<svg height="512" viewBox="0 0 128 128" width="512" xmlns="http://www.w3.org/2000/svg"><g><path d="m70.207 87.032a28.026 28.026 0 0 1 -16.507-26.089l1.063-53.943h-47.763l6.991 53.107a58.732 58.732 0 0 1 -3.743 30.081 40.476 40.476 0 0 0 -3.248 15.324 15.488 15.488 0 0 0 15.488 15.488h6.748a40.006 40.006 0 0 0 13.4-2.312 30.135 30.135 0 0 1 17.461-.807 101.037 101.037 0 0 0 24.229 3.119c5.04 0 15.122-1.913 15.122-1.913s6.3 1.789 10.574 1.789c8.109 0 10.978-4.494 10.978-13.893l-18.553-3.105a335.244 335.244 0 0 0 -32.24-16.846z" fill="#fcbfab"/><g fill="#fca17a"><path d="m120.838 110.468c-1.171 2.848-5.274 7.046-10.795 3.793-5.8-3.419-25.826 1.956-36.913-3.261s-22.3 0-38.869 0c-15.73 0-25.686-11.175-22.18-25.978q-.788 2.619-1.833 5.166a40.476 40.476 0 0 0 -3.248 15.324 15.488 15.488 0 0 0 15.488 15.488h6.748a40.006 40.006 0 0 0 13.4-2.312 30.135 30.135 0 0 1 17.461-.807 101.037 101.037 0 0 0 24.229 3.119c5.04 0 15.122-1.913 15.122-1.913s6.3 1.789 10.574 1.789c7.031 0 10.118-3.384 10.816-10.408z"/><path d="m12.745 82.636-.011.046z"/></g><g><path d="m87.1 93.328c-5.545-2.895-10.987-5.55-16.173-7.891a26.251 26.251 0 0 1 -15.483-24.46l1.068-53.942a1.75 1.75 0 0 0 -1.712-1.785 1.768 1.768 0 0 0 -1.784 1.715l-1.071 53.943a29.745 29.745 0 0 0 17.542 27.719c5.126 2.313 10.507 4.939 15.992 7.8a1.75 1.75 0 1 0 1.621-3.1z"/><path d="m121.289 105.257-18.225-3.05c-.875-.525-3.669-2.184-7.711-4.432a1.75 1.75 0 1 0 -1.7 3.06c4.841 2.69 7.855 4.52 7.885 4.538a1.736 1.736 0 0 0 .62.231l17.065 2.856c-.337 8.835-3.793 10.666-9.2 10.666-3.978 0-10.035-1.706-10.1-1.723a1.75 1.75 0 0 0 -.8-.036c-.1.019-9.979 1.883-14.8 1.883a99.676 99.676 0 0 1 -23.8-3.066 31.789 31.789 0 0 0 -18.474.855 38.158 38.158 0 0 1 -12.817 2.211h-6.744a13.754 13.754 0 0 1 -13.738-13.738 38.452 38.452 0 0 1 3.115-14.657 60.25 60.25 0 0 0 4.245-27.2 1.75 1.75 0 0 0 -3.491.252 56.739 56.739 0 0 1 -3.989 25.613 41.915 41.915 0 0 0 -3.38 15.992 17.258 17.258 0 0 0 17.238 17.238h6.748a41.661 41.661 0 0 0 13.99-2.413 28.291 28.291 0 0 1 16.446-.759 103.251 103.251 0 0 0 24.654 3.172c4.626 0 13.082-1.507 15.047-1.869a48.483 48.483 0 0 0 10.649 1.745c11.281 0 12.728-8.36 12.728-15.643a1.75 1.75 0 0 0 -1.461-1.726z"/><path d="m14.416 49.935a1.749 1.749 0 1 0 -3.469.457l.587 4.458a1.749 1.749 0 0 0 1.732 1.522 1.651 1.651 0 0 0 .231-.016 1.748 1.748 0 0 0 1.503-1.963z"/><path d="m8.735 6.771a1.75 1.75 0 0 0 -3.47.458l4.422 33.592a1.75 1.75 0 0 0 1.732 1.521 1.792 1.792 0 0 0 .231-.015 1.75 1.75 0 0 0 1.507-1.963z"/><path d="m31.123 88.176c-2.637-1.689-4.14-3.678-4.467-5.915-.572-3.9 2.505-7.533 2.536-7.569a1.75 1.75 0 0 0 -2.643-2.292c-.17.2-4.15 4.839-3.361 10.34.473 3.3 2.507 6.118 6.047 8.385a1.75 1.75 0 0 0 1.888-2.947z"/></g></g></svg>