<svg id="Capa_1" enable-background="new 0 0 512 512" height="512" viewBox="0 0 512 512" width="512" xmlns="http://www.w3.org/2000/svg"><g><g><path d="m254.682 220.419c-.01-.05-.01-.1-.01-.15" fill="#ffeee6"/><path d="m504.5 22.422v467.156c0 8.24-6.68 14.92-14.92 14.92h-132.319c-8.51 0-15.3-7.11-14.9-15.61l.51-11.07c2.44-52.89-14.26-104.719-46.27-146.899-20.85-27.47-40.5-65.129-41.92-110.499-.08.01-.16.02-.25.03-25.54 3.53-80.289 6.34-138.979-20.37-22.46 7.06-68.969 19.12-102.039 10.32-3.47-.93-5.91-4.05-5.91-7.65v-120.739c0-3.38 2.16-6.39 5.36-7.48 91.469-31.24 169.329-6.85 169.329-6.85 18.2-7.94 41.41-15.08 69.469-17.99 77.049-7.95 137.439 30.23 138.359 30.81v.01h.01l20.82-59.54c2.82-8.07 10.44-13.47 18.98-13.47h59.749c8.241.001 14.921 6.681 14.921 14.921z" fill="#b87d72"/><g fill="#ab695d"><path d="m457.14 7.502c-6.54.84-12.04 5.49-13.91 11.93l-15.048 52.04c-3.621 12.523-17.606 18.813-29.378 13.213l-8.773-4.173 20.82-59.54c2.82-8.07 10.44-13.47 18.98-13.47h27.309z"/><path d="m254.672 220.27-.24.18c-25.54 3.53-80.289 6.34-138.979-20.37-22.46 7.06-68.969 19.12-102.039 10.32-3.47-.93-5.91-4.05-5.91-7.65v-15.75c37.368 1.593 72.354-19.637 88.811-31.47 5.347-3.845 12.695-3.092 17.186 1.725 29.115 31.232 103.21 63.015 141.171 63.015z"/><path d="m399.831 504.347h-42.58c-8.51 0-15.3-7.11-14.9-15.61l.51-11.07c2.44-52.89-14.26-104.719-46.27-146.899-20.85-27.47-40.5-65.129-41.92-110.499-.2.03-.4.06-.6.08.14-.02.27-.04.4-.06 9.58-1.32 15.04-2.75 15.04-2.75 39.27-9.09 79.509 7.07 77.789 37.78-51.397 23.012 38.23 116.239 33.47 229.218-.449 10.81 8.241 19.81 19.061 19.81z"/><path d="m441.384 346.253h-37.74c-15.46 0-29.48-9.08-35.81-23.2l-5.72-12.77h23.901c8.419 0 16.054 4.945 19.495 12.629l.063.141c6.331 14.12 20.351 23.2 35.811 23.2z"/></g></g><g><path d="m340.916 435.812c4.077-.732 6.789-4.631 6.056-8.708-6.499-36.189-21.852-71.017-44.397-100.719-24.113-31.773-37.57-65.246-40.059-99.598 5.044-.881 8.096-1.634 8.779-1.808 21.854-5.037 44.416-1.577 57.5 8.823 7.304 5.806 11.008 13.098 11.008 21.671 0 4.142 3.358 7.5 7.5 7.5s7.5-3.358 7.5-7.5c0-13.188-5.766-24.743-16.674-33.414-16.798-13.353-43.736-17.826-70.305-11.674-.062.015-.133.032-.195.048-.212.055-21.599 5.484-53.268 4.654-29.056-.762-73.017-7.109-117.436-33.024-3.578-2.086-8.169-.879-10.257 2.699-2.087 3.578-.879 8.17 2.699 10.257 1.827 1.066 3.652 2.09 5.477 3.094-22.697 5.73-55.422 11.446-79.492 5.04-.207-.053-.352-.22-.352-.403v-120.73c0-.179.117-.335.283-.393 17.365-5.929 35.501-10.215 53.905-12.737 4.104-.562 6.975-4.345 6.412-8.449-.562-4.104-4.336-6.972-8.449-6.412-19.358 2.653-38.439 7.163-56.73 13.408-6.233 2.144-10.421 8.004-10.421 14.583v120.73c0 6.96 4.716 13.085 11.481 14.897 8.915 2.373 18.664 3.343 28.649 3.343 27.24 0 56.232-7.222 74.863-12.918 38.215 16.813 74.207 21.416 99.549 22.026 12.882.31 24.093-.339 33.088-1.27 2.872 36.949 17.308 72.779 42.995 106.626 21.121 27.824 35.5 60.433 41.582 94.301.652 3.629 3.812 6.176 7.373 6.176.441.001.887-.038 1.336-.119z"/><path d="m504.5 222.21c-4.142 0-7.5 3.358-7.5 7.5v109.039h-93.356c-12.489 0-23.858-7.364-28.964-18.762l-5.721-12.771c-1.693-3.78-6.131-5.472-9.911-3.778-3.78 1.693-5.472 6.131-3.778 9.911l5.721 12.771c7.52 16.784 24.262 27.629 42.654 27.629h93.355v135.821c0 4.097-3.333 7.43-7.43 7.43h-132.31c-2.046 0-3.952-.815-5.366-2.296-1.417-1.484-2.146-3.43-2.051-5.479l.51-11.066c.233-5.16.296-10.233.186-15.079-.094-4.141-3.517-7.423-7.668-7.328-4.141.094-7.422 3.527-7.328 7.668.103 4.507.043 9.238-.174 14.054l-.51 11.062c-.283 6.183 1.915 12.053 6.189 16.528 4.272 4.472 10.03 6.935 16.213 6.935h132.31c12.368 0 22.43-10.062 22.43-22.43v-259.859c-.001-4.142-3.359-7.5-7.501-7.5z"/><path d="m489.57 0h-59.74c-11.722 0-22.195 7.433-26.059 18.494l-17.85 51.021c-19.446-10.404-71.434-33.843-135.032-27.285-27.743 2.87-50.861 9.716-69.28 17.481-8.972-2.442-38.356-9.41-78.736-8.509-4.141.092-7.423 3.524-7.331 7.665s3.519 7.438 7.665 7.331c23.398-.519 43.05 1.793 56.616 4.155-20.129 11.299-30.75 21.718-31.607 22.574-2.924 2.925-2.923 7.66-.004 10.59 2.918 2.93 7.665 2.938 10.601.026.39-.387 39.836-38.762 113.617-46.393 73.957-7.631 132.968 29.308 133.55 29.678 1.932 1.236 4.322 1.519 6.49.771 2.167-.749 3.873-2.448 4.63-4.612l20.831-59.542c1.765-5.051 6.547-8.444 11.9-8.444h59.74c4.097 0 7.43 3.333 7.43 7.43v172.28c0 4.142 3.358 7.5 7.5 7.5s7.5-3.358 7.5-7.5v-172.281c-.001-12.368-10.063-22.43-22.431-22.43z"/><path d="m475.903 148.661c1.464 1.464 3.384 2.197 5.303 2.197s3.839-.732 5.303-2.197c2.929-2.929 2.929-7.678 0-10.606l-11.842-11.843c-8.626-8.625-20.997-12.792-33.077-11.143l-72.334 9.863c-4.104.56-6.978 4.34-6.418 8.444s4.339 6.978 8.444 6.418l72.334-9.863c7.469-1.021 15.112 1.556 20.443 6.887z"/><path d="m445.805 303.742v13.553c0 4.142 3.358 7.5 7.5 7.5s7.5-3.358 7.5-7.5v-13.553c0-4.142-3.358-7.5-7.5-7.5s-7.5 3.358-7.5 7.5z"/></g></g></svg>