<svg id="Capa_1" enable-background="new 0 0 512 512" height="512" viewBox="0 0 512 512" width="512" xmlns="http://www.w3.org/2000/svg"><g><g><path clip-rule="evenodd" d="m117.035 301.446c9.536 75.343 6.914 163.966-3.256 202.342h10.17 132.036 132.036 10.17c-10.17-38.376-12.792-126.999-3.256-202.342l39.498 202.342h70.067l-2.679-128.523-3.227-138.383c-1.642-70.542-29.271-112.253-99.509-133.065-53.097-15.724-67.617-49.788-82.512-95.609h-60.587-60.587c-14.866 45.821-29.386 79.885-82.483 95.609-70.239 20.812-97.867 62.522-99.509 133.065l-3.227 138.383-2.68 128.524h70.066z" fill="#fed2a4" fill-rule="evenodd"/></g><g><path clip-rule="evenodd" d="m279.293 27.728c14.866 45.821 29.386 79.885 82.483 95.609 70.239 20.812 97.867 62.522 99.509 133.093l3.227 138.383 2.276 108.976h37.712l-2.679-128.523-3.227-138.383c-1.642-70.542-29.271-112.253-99.509-133.065-53.097-15.724-67.617-49.788-82.512-95.609h-39.326z" fill="#ffbd86" fill-rule="evenodd"/></g><g><path d="m212.147 208.597v-76.723c0-4.143-3.358-7.5-7.5-7.5s-7.5 3.357-7.5 7.5v76.471c-1.666 24.278-14.042 45.063-38.932 65.388-3.208 2.62-3.686 7.345-1.065 10.554 1.482 1.815 3.639 2.756 5.813 2.756 1.668 0 3.347-.554 4.739-1.69 28.419-23.208 42.537-47.44 44.428-76.264.011-.165.017-.328.017-.492z"/><path d="m179.009 419.429c-3.614-2.023-8.185-.732-10.208 2.882-2.023 3.615-.732 8.186 2.882 10.208 5.656 3.165 10.025 6.992 13.383 11.737 3.325 4.639 5.577 10.16 6.693 16.411.649 3.632 3.81 6.182 7.375 6.182.438 0 .882-.038 1.328-.118 4.077-.729 6.792-4.624 6.064-8.702-1.513-8.468-4.631-16.041-9.242-22.474-4.584-6.481-10.733-11.905-18.275-16.126z"/><path d="m349.037 287.042c2.176 0 4.334-.942 5.816-2.76 2.618-3.21 2.138-7.935-1.072-10.553-24.885-20.296-37.261-41.079-38.928-65.384v-76.472c0-4.143-3.358-7.5-7.5-7.5s-7.5 3.357-7.5 7.5v76.723c0 .164.005.327.016.491 1.894 28.854 16.012 53.088 44.432 76.267 1.392 1.135 3.07 1.688 4.736 1.688z"/><path d="m332.95 419.436c-7.523 4.228-13.658 9.651-18.194 16.062-4.679 6.481-7.804 14.072-9.288 22.56-.713 4.08 2.017 7.966 6.097 8.679.437.077.872.113 1.3.113 3.576 0 6.742-2.566 7.379-6.21 1.089-6.231 3.334-11.736 6.714-16.42 3.329-4.703 7.692-8.533 13.34-11.707 3.611-2.029 4.893-6.602 2.863-10.213s-6.6-4.894-10.211-2.864z"/><path d="m510.09 508.776c1.252-1.401 1.947-3.266 1.909-5.146l-2.333-110.901c-.087-4.141-3.521-7.42-7.656-7.34-4.141.087-7.428 3.515-7.341 7.656l2.172 103.243h-56.229l-38.059-194.968c5.357-34.121 13.291-63.69 23.599-87.886 1.624-3.811-.15-8.216-3.96-9.84-3.811-1.621-8.216.15-9.839 3.961-10.925 25.646-19.278 56.851-24.828 92.746-.005.033-.006.066-.01.1-.005.035-.014.069-.018.104-8.444 66.707-7.695 150.991 1.283 195.783h-125.295v-240.289c0-4.143-3.358-7.5-7.5-7.5s-7.5 3.357-7.5 7.5v240.289h-125.292c8.977-44.793 9.726-129.076 1.283-195.783-.004-.034-.013-.066-.017-.1-.005-.033-.005-.065-.01-.098-5.496-35.752-13.838-66.956-24.797-92.746-1.62-3.812-6.023-5.592-9.836-3.969-3.812 1.619-5.589 6.023-3.97 9.836 10.342 24.336 18.268 53.906 23.573 87.889l-38.031 194.971h-56.23l2.519-120.848 3.227-138.383c1.229-52.741 17.137-85.918 51.579-107.572 3.506-2.205 4.562-6.835 2.357-10.342-2.204-3.506-6.833-4.562-10.341-2.357-38.632 24.29-57.25 62.396-58.59 119.922l-3.228 138.401-2.679 128.523c-.084 4.134 3.365 7.656 7.499 7.656h70.066.01c2.88.001 5.497-1.67 6.737-4.241.057-.119.119-.235.17-.358.022-.053.039-.109.059-.162.071-.18.139-.361.196-.548.012-.04.02-.081.031-.121.058-.201.111-.405.152-.612.002-.008.004-.015.005-.022l29.332-150.37c3.342 61.603-.546 119.911-7.729 147.014-1.062 4.004 1.324 8.109 5.328 9.171.644.17 1.29.252 1.926.252.347 0 142.348-.011 142.423-.013.079.002.156.011.236.011 0 0 141.505.002 141.743.002.636 0 1.282-.082 1.926-.252 4.004-1.062 6.39-5.167 5.328-9.171-7.183-27.106-11.072-85.43-7.727-147.043l29.359 150.4c.001.006.003.012.005.019.044.222.099.439.162.654.008.026.013.054.02.08.062.205.137.405.216.602.014.035.025.073.039.108.065.155.141.304.216.454.036.072.067.148.105.219.033.062.073.119.109.18.425.736.967 1.386 1.598 1.929.041.036.079.075.122.11.057.047.119.087.178.133.609.472 1.291.851 2.028 1.119.109.04.215.084.326.119.048.015.098.024.146.038.19.055.382.108.577.148.013.003.027.004.041.007.232.047.466.083.704.107.01.001.019.001.029.002.24.024.482.036.726.037.005 0 .01.001.015.001h70.066c2.118-.003 4.182-.937 5.59-2.515z"/><path d="m100.384 115.431c.851 0 1.716-.146 2.562-.453 3.76-1.366 7.721-2.665 12.1-3.968 54.152-16.036 71.066-51.005 85.785-95.3h55.156 55.159c14.747 44.3 31.68 79.27 85.809 95.3 65.233 19.328 92.508 55.847 94.142 126.047l2.795 120.762c.095 4.082 3.433 7.326 7.495 7.326.059 0 .118-.001.177-.002 4.141-.096 7.42-3.53 7.325-7.672l-2.795-120.763c-.88-37.825-9.21-67.074-25.464-89.418-16.93-23.274-42.906-39.846-79.414-50.663-48.716-14.426-62.388-44.555-76.872-88.794-.197-3.966-3.466-7.123-7.481-7.123h-.371c-.005 0-.01 0-.016 0h-60.489-60.471c-.024 0-.047 0-.071 0h-.304c-3.982 0-7.23 3.105-7.476 7.025-14.467 44.289-28.105 74.449-76.886 88.895-4.675 1.391-8.913 2.78-12.956 4.25-3.893 1.415-5.902 5.718-4.487 9.61 1.106 3.048 3.983 4.941 7.048 4.941z"/></g></g></svg>