<svg id="Capa_1" enable-background="new 0 0 511.64 511.64" height="512" viewBox="0 0 511.64 511.64" width="512" xmlns="http://www.w3.org/2000/svg"><g><g><path d="m386.494 299.461-174.327-174.326c23.281-28.27 21.7-70.147-4.734-96.582-28.107-28.107-73.677-28.107-101.784 0-15.414 15.414-22.36 36.08-20.864 56.243-20.163-1.495-40.828 5.45-56.243 20.864-28.107 28.107-28.107 73.677 0 101.784 26.434 26.434 68.312 28.015 96.582 4.734l174.327 174.327c-23.281 28.27-21.7 70.147 4.734 96.582 28.107 28.107 73.677 28.107 101.784 0 15.414-15.414 22.359-36.08 20.864-56.243 20.162 1.495 40.828-5.45 56.243-20.864 28.107-28.107 28.107-73.677 0-101.784-26.435-26.435-68.312-28.016-96.582-4.735z" fill="#faf7f7"/><path d="m417.925 467.276c-3.16 5.67-7.15 10.99-11.96 15.81-28.11 28.1-73.68 28.1-101.78 0-26.44-26.44-28.02-68.32-4.74-96.59l-174.32-174.32c-28.27 23.28-70.15 21.7-96.59-4.74-28.1-28.1-28.1-73.67 0-101.78 4.82-4.81 10.14-8.8 15.81-11.96-10.96 23.06-3.79 55.15 19.5 78.44 21.793 21.801 51.302 29.481 73.897 21.392 9.306-3.332 19.699-.966 26.689 6.023l147.64 147.64c6.99 6.99 9.355 17.382 6.023 26.689-8.089 22.595-.409 52.104 21.392 73.897 23.289 23.289 55.379 30.459 78.439 19.499z" fill="#f3eae6"/></g><g><path d="m95.56 40.489c3.242 2.579 7.96 2.041 10.538-1.201 1.5-1.886 3.133-3.714 4.853-5.434 25.14-25.13 66.045-25.131 91.184-.002 11.402 11.406 18.085 26.552 18.818 42.648.729 15.994-4.447 31.575-14.574 43.872-2.455 2.981-2.245 7.34.486 10.071l174.33 174.32c2.731 2.732 7.09 2.941 10.071.486 12.298-10.127 27.877-15.294 43.867-14.573 16.093.735 31.237 7.42 42.643 18.826.467.468.917.936 1.366 1.412 1.476 1.565 3.465 2.355 5.458 2.355 1.846 0 3.695-.677 5.144-2.043 3.014-2.841 3.153-7.588.312-10.602-.551-.584-1.101-1.156-1.674-1.729-14.058-14.058-32.726-22.298-52.565-23.204-17.404-.787-34.429 4.095-48.621 13.859l-165.119-165.11c9.763-14.19 14.653-31.212 13.86-48.625-.904-19.842-9.142-38.511-23.196-52.571-30.987-30.977-81.407-30.977-112.396.001-2.121 2.12-4.135 4.376-5.986 6.705-2.579 3.242-2.041 7.961 1.201 10.539z"/><path d="m130.431 206.876c-2.73-2.731-7.089-2.94-10.071-.486-12.298 10.127-27.872 15.298-43.872 14.573-16.096-.735-31.242-7.421-42.647-18.826-25.131-25.133-25.131-66.033-.001-91.173 11.822-11.814 27.683-18.493 44.246-18.833 2.651 16.415 10.408 31.669 22.258 43.517 1.464 1.465 3.384 2.197 5.303 2.197s3.839-.732 5.303-2.197c2.929-2.929 2.929-7.678 0-10.606-10.848-10.848-17.469-25.211-18.676-40.476-.003-.106.002-.212-.006-.318-.423-5.729-.088-11.489.995-17.121.783-4.067-1.88-7.999-5.948-8.781-4.061-.781-7.999 1.88-8.781 5.948-.815 4.236-1.286 8.532-1.41 12.84-20.182.582-39.469 8.813-53.89 23.224-30.979 30.99-30.979 81.406.001 112.386 14.058 14.058 32.727 22.298 52.57 23.204 17.418.792 34.434-4.095 48.625-13.859l70.185 70.185c1.464 1.464 3.384 2.197 5.303 2.197s3.839-.732 5.303-2.197c2.929-2.929 2.929-7.678 0-10.606z"/><path d="m508.799 333.95c-1.099-3.993-5.226-6.341-9.221-5.242-3.994 1.099-6.341 5.227-5.242 9.221 6.146 22.343-.2 46.386-16.56 62.746-11.823 11.816-27.677 18.496-44.244 18.834-2.651-16.415-10.408-31.668-22.257-43.517-2.929-2.929-7.678-2.929-10.606 0-2.929 2.929-2.929 7.678 0 10.606 10.872 10.872 17.499 25.274 18.686 40.576.003.073.018.404.024.496 1.298 18.664-5.513 36.916-18.712 50.115-25.142 25.133-66.042 25.134-91.175.001-11.405-11.406-18.091-26.551-18.826-42.647-.73-15.993 4.445-31.574 14.573-43.872 2.455-2.981 2.245-7.34-.486-10.071l-74.8-74.8c-2.929-2.929-7.678-2.929-10.606 0-2.929 2.929-2.929 7.678 0 10.606l70.195 70.195c-9.764 14.191-14.653 31.212-13.859 48.625.906 19.843 9.146 38.512 23.204 52.57 15.492 15.492 35.836 23.237 56.189 23.235 20.348-.002 40.704-7.747 56.198-23.235 14.409-14.408 22.643-33.694 23.23-53.887 20.177-.581 39.459-8.812 53.88-23.223 20.165-20.167 27.989-49.799 20.415-77.332z"/></g></g></svg>