<svg id="Capa_1" enable-background="new 0 0 512.006 512.006" height="512" viewBox="0 0 512.006 512.006" width="512" xmlns="http://www.w3.org/2000/svg"><g><g><path d="m19.511 340.931 68.06 88.931 27.702 36.196.01.01c-2.479 7.847 3.376 15.833 11.601 15.833h258.239c8.225 0 14.08-7.986 11.601-15.833l95.772-125.137c9.091-11.879 13.274-26.796 11.67-41.672l-16.659-155.309c-1.653-15.434-12.945-28.1-28.09-31.516l-97.863-22.036c-11.013-2.41-19.925-10.455-23.43-21.16l-10.147-30.978c-1.593-4.869-6.134-8.155-11.252-8.155h-121.443c-5.118 0-9.659 3.286-11.252 8.155l-10.147 30.978c-3.505 10.704-12.417 18.75-23.43 21.16l-97.863 22.037c-15.145 3.415-26.437 16.081-28.09 31.516l-16.659 155.308c-1.604 14.876 2.579 29.793 11.67 41.672z" fill="#ffeee6"/><g fill="#ffdfcf"><path d="m420.323 404.53 4.112 25.332-27.702 36.196-7.966-25.133c-5.975-18.919-7.269-39.014-3.714-58.531l21.827-120.238v-.01c9.579-6.532 16.649-16.609 19.208-28.608l10.973-51.481c13.488 0 23.639 12.286 21.094 25.532z"/><path d="m224.175 30.11c-5.118 0-9.659 3.286-11.252 8.155l-10.147 30.978c-3.505 10.704-12.417 18.75-23.43 21.16l-97.863 22.037c-15.136 3.415-26.427 16.081-28.09 31.516l-16.66 155.307c-1.593 14.877 2.579 29.793 11.67 41.672l95.772 125.137c-2.48 7.847 3.376 15.833 11.6 15.833h-28.897c-8.225 0-14.08-7.986-11.6-15.833l-95.771-125.136c-9.091-11.879-13.273-26.796-11.67-41.672l16.659-155.308c1.653-15.434 12.945-28.1 28.09-31.516l97.863-22.036c11.013-2.41 19.925-10.455 23.43-21.16l10.147-30.978c1.593-4.869 6.134-8.155 11.252-8.155h28.897z"/><path d="m172.266 270.194h-41.061c-9.583 0-18.597-2.938-26.071-8.044-.01 0-.01 0-.01 0-9.573-6.545-16.638-16.618-19.196-28.609l-10.972-51.483h18.658c13.064 0 24.349 9.134 27.072 21.911l6.302 29.572c2.558 11.991 9.623 22.064 19.196 28.609h.01c7.475 5.106 16.489 8.044 26.072 8.044z"/><path d="m170.527 481.902h-43.649c-8.224 0-14.08-7.994-11.602-15.839l7.964-25.142c5.976-18.916 7.265-39.012 3.717-58.528l-21.833-120.243h.01c7.475 5.106 16.488 8.044 26.071 8.044h19.026l20.365 112.2c3.548 19.516 2.268 39.612-3.717 58.528l-7.954 25.142c-2.488 7.844 3.368 15.838 11.602 15.838z"/></g></g><g><path d="m433.412 235.105 10.973-51.484c.863-4.051-1.721-8.035-5.771-8.898-4.051-.863-8.035 1.72-8.898 5.772l-10.973 51.484c-3.793 17.795-19.752 30.711-37.947 30.711h-91.497c-7.381 0-13.754-5.26-15.152-12.506-.785-4.066-4.708-6.729-8.786-5.942-4.066.785-6.728 4.719-5.942 8.786 2.759 14.291 15.326 24.663 29.881 24.663h91.497c5.565 0 10.979-.874 16.094-2.497l-16.108 88.725c-.74 4.076 1.964 7.979 6.039 8.719.453.082.904.122 1.349.122 3.556 0 6.713-2.539 7.37-6.161l8.716-48.01c3.003 5.135 6.726 10.376 11.26 14.911 1.465 1.465 3.385 2.197 5.304 2.197s3.839-.732 5.304-2.197c2.929-2.929 2.929-7.677 0-10.606-10.158-10.157-15.588-25.633-17.112-30.499l4.736-26.085c9.77-7.6 16.956-18.501 19.663-31.205z"/><path d="m223.63 120.963 9.124 9.124c1.464 1.465 3.384 2.197 5.303 2.197s3.839-.732 5.303-2.197c2.929-2.929 2.929-7.678 0-10.607l-9.124-9.124c-7.024-7.024-17.094-10.417-26.934-9.073l-55.73 7.6c-4.104.56-6.978 4.34-6.418 8.445.56 4.104 4.337 6.978 8.444 6.418l55.73-7.6c5.227-.712 10.573 1.088 14.302 4.817z"/><path d="m360.436 108.883-55.73-7.6c-9.845-1.343-19.911 2.05-26.936 9.073l-9.124 9.124c-2.929 2.929-2.929 7.678 0 10.607 1.465 1.464 3.385 2.197 5.304 2.197s3.839-.732 5.304-2.197l9.123-9.124c3.73-3.729 9.078-5.528 14.302-4.818l55.73 7.6c4.113.558 7.886-2.313 8.445-6.418.559-4.104-2.315-7.884-6.418-8.444z"/><path d="m248.503 441.656v19.052c0 4.142 3.358 7.5 7.5 7.5 4.143 0 7.5-3.358 7.5-7.5v-19.052c0-4.142-3.357-7.5-7.5-7.5-4.142 0-7.5 3.358-7.5 7.5z"/><path d="m361.09 243.619v-.5c0-4.142-3.357-7.5-7.5-7.5s-7.5 3.358-7.5 7.5v.5c0 4.142 3.357 7.5 7.5 7.5s7.5-3.358 7.5-7.5z"/><path d="m150.916 243.119v.5c0 4.142 3.358 7.5 7.5 7.5s7.5-3.358 7.5-7.5v-.5c0-4.142-3.358-7.5-7.5-7.5s-7.5 3.358-7.5 7.5z"/><path d="m511.622 298.459-16.658-155.307c-1.995-18.626-15.617-33.911-33.9-38.034l-97.904-22.045c-3.847-.844-7.46-2.62-10.45-5.135-3.169-2.666-7.901-2.258-10.567.912-2.667 3.17-2.259 7.901.911 10.567 4.842 4.073 10.683 6.945 16.852 8.299l97.86 22.035c12.018 2.71 20.973 12.756 22.284 25l16.658 155.312c1.403 13.013-2.209 25.908-10.169 36.31l-87.017 113.698-3.611-11.406c-3.96-12.54-5.72-25.56-5.24-38.67.15-4.14-3.09-7.62-7.23-7.77-4.1-.14-7.61 3.08-7.77 7.22-.54 14.83 1.46 29.55 5.94 43.75l7.96 25.14.003-.001c.618 1.962-.164 3.448-.685 4.159-.522.712-1.706 1.907-3.766 1.907h-258.24c-2.06 0-3.243-1.195-3.765-1.907s-1.305-2.2-.684-4.165c.006-.02.009-.041.015-.061l7.942-25.082c6.33-20.04 7.69-41.52 3.95-62.13l-19.22-105.815c5.163 1.617 10.572 2.454 16.084 2.454h91.504c14.546 0 27.112-10.372 29.877-24.661.787-4.067-1.872-8.001-5.938-8.789-4.064-.788-8.002 1.871-8.789 5.938-1.403 7.25-7.775 12.512-15.151 12.512h-91.504c-7.837 0-15.389-2.33-21.84-6.737-.072-.049-.145-.097-.218-.143-8.175-5.667-13.811-14.122-15.883-23.836l-10.972-51.483c-.864-4.051-4.847-6.636-8.899-5.772-4.051.863-6.635 4.847-5.772 8.898l10.973 51.485c2.671 12.521 9.618 23.523 19.682 31.317l4.718 25.978c-1.527 4.873-6.956 20.339-17.109 30.492-2.929 2.929-2.929 7.678 0 10.607 1.464 1.465 3.384 2.197 5.303 2.197s3.839-.732 5.303-2.197c4.534-4.534 8.257-9.774 11.26-14.908l11.832 65.145c3.31 18.22 2.1 37.21-3.49 54.92l-3.614 11.406-87.01-113.688c-7.96-10.401-11.572-23.297-10.169-36.314l11.461-106.835c.442-4.119-2.539-7.815-6.657-8.257-4.115-.44-7.815 2.539-8.257 6.657l-11.463 106.829c-1.816 16.858 2.861 33.562 13.171 47.034l93.731 122.469c-.448 4.73.838 9.449 3.733 13.4 3.745 5.11 9.527 8.042 15.865 8.042h258.24c6.338 0 12.12-2.931 15.864-8.042 2.896-3.95 4.181-8.669 3.733-13.4l93.73-122.47c10.312-13.472 14.989-30.176 13.172-47.029z"/><path d="m22.177 165.627c.271.029.541.043.808.043 3.783 0 7.036-2.855 7.448-6.702l1.523-14.22c1.311-12.242 10.266-22.288 22.28-24.998l97.818-22.026c13.549-2.965 24.644-12.986 28.955-26.152l10.147-30.98c.585-1.787 2.242-2.988 4.124-2.988h121.443c1.882 0 3.539 1.201 4.124 2.989l4.72 14.419c1.289 3.936 5.522 6.084 9.461 4.795 3.937-1.289 6.083-5.524 4.795-9.461l-4.72-14.418c-2.608-7.969-9.994-13.322-18.38-13.322h-121.441c-8.386 0-15.772 5.354-18.379 13.321l-10.147 30.979c-2.665 8.138-9.526 14.333-17.95 16.177l-97.866 22.035c-18.281 4.123-31.903 19.407-33.898 38.033l-1.523 14.219c-.441 4.119 2.54 7.816 6.658 8.257z"/></g></g></svg>