<svg id="Capa_1" enable-background="new 0 0 511.987 511.987" height="512" viewBox="0 0 511.987 511.987" width="512" xmlns="http://www.w3.org/2000/svg"><g><g><path d="m488.932 223.015-136.1-61.75c-6.4-2.91-13.51-3.91-20.47-2.88l-243.41 36-46.55 6.88c-10.7 1.58-20.76-5.49-22.89-16.09l-11.62-57.81c-2.46-12.25 6.61-23.79 19.1-24.3l50.25-2.04 275.49-11.2c9.31-.38 18.4 2.8 25.44 8.9l122.43 106.06c9.54 8.27-.18 23.44-11.67 18.23z" fill="#b87d72"/><path d="m88.952 194.385-46.55 6.88c-10.7 1.58-20.76-5.49-22.89-16.09l-11.62-57.81c-2.46-12.25 6.61-23.79 19.1-24.3l50.25-2.04c-12.62 16.15-26.79 48.93 11.71 93.36z" fill="#ab695d"/><path d="m434.732 308.315c-57.55 52.5-132.11 75.98-204.88 70.45-.01-.01-.01-.01-.02-.01-58.88-4.48-116.58-27.96-163.15-70.44-5.19-4.73-5.19-12.88 0-17.61 22.77-20.77 48.2-37 75.14-48.69.01-.01.01-.01.01-.01 96.22-41.75 211.55-25.51 292.9 48.7 5.19 4.73 5.19 12.88 0 17.61z" fill="#ffeee6"/><path d="m229.832 378.755c-58.88-4.48-116.58-27.96-163.15-70.44-5.19-4.73-5.19-12.88 0-17.61 22.77-20.77 48.2-37 75.14-48.69-.73 1.21-54 90.24 88.01 136.74z" fill="#ffdfcf"/></g><g><path d="m43.498 208.683 289.972-42.88c5.538-.819 11.158-.03 16.262 2.291l38.5 17.47c3.772 1.714 8.217.041 9.929-3.73 1.711-3.772.041-8.217-3.73-9.929l-38.495-17.468c-7.733-3.517-16.263-4.717-24.661-3.472l-289.978 42.88c-6.748.999-13.089-3.455-14.434-10.148l-11.61-57.81c-.74-3.683.166-7.489 2.485-10.441 2.32-2.953 5.804-4.735 9.555-4.889l32.771-1.33c4.139-.168 7.358-3.659 7.19-7.798-.168-4.138-3.675-7.367-7.798-7.189l-32.773 1.33c-8.145.333-15.704 4.2-20.739 10.61-5.035 6.409-7.002 14.668-5.397 22.661l11.61 57.811c2.645 13.159 14.184 22.338 27.221 22.337 1.359-.001 2.736-.1 4.12-.306z"/><path d="m505.521 199.125-122.44-106.07c-8.513-7.375-19.385-11.181-30.646-10.725l-258.019 10.49c-4.139.168-7.357 3.66-7.189 7.798s3.641 7.371 7.799 7.189l258.021-10.49c7.413-.299 14.597 2.209 20.214 7.075l122.438 106.069c1.952 1.692 1.239 3.513.641 4.447-.6.935-1.955 2.344-4.309 1.276l-66.99-30.4c-3.774-1.714-8.218-.041-9.93 3.73-1.711 3.772-.041 8.217 3.73 9.929l66.993 30.401c2.57 1.166 5.228 1.727 7.825 1.727 6.045 0 11.765-3.04 15.309-8.57 5.067-7.907 3.65-17.725-3.447-23.876z"/><path d="m140.379 348.148c-25.04-11.405-48.136-26.671-68.643-45.375-1.276-1.165-1.468-2.573-1.468-3.309 0-.703.18-2.047 1.38-3.143 6.3-5.753 12.969-11.277 19.822-16.417 3.313-2.485 3.985-7.187 1.5-10.5-2.484-3.313-7.187-3.985-10.5-1.5-7.238 5.429-14.283 11.264-20.936 17.34-3.982 3.635-6.267 8.818-6.267 14.221.001 5.458 2.317 10.703 6.358 14.39 1.03.939 2.071 1.862 3.113 2.785l-31.782 16.211c-3.689 1.882-5.155 6.399-3.272 10.089 1.325 2.599 3.957 4.094 6.687 4.094 1.146 0 2.311-.264 3.402-.82l37.482-19.118c12.257 9.652 25.252 18.234 38.883 25.68l-23.773 23.773c-2.929 2.929-2.929 7.678 0 10.606 1.465 1.465 3.384 2.197 5.304 2.197 1.919 0 3.839-.732 5.304-2.197l27.213-27.213c1.321.627 2.644 1.251 3.975 1.857 1.008.459 2.064.677 3.104.677 2.849 0 5.572-1.632 6.83-4.394 1.717-3.769.053-8.217-3.716-9.934z"/><path d="m473.36 332.851-34.905-17.804c.443-.399.89-.792 1.331-1.194 4.037-3.684 6.354-8.927 6.357-14.383.003-5.402-2.276-10.585-6.255-14.224-6.625-6.051-13.673-11.886-20.948-17.342-3.315-2.486-8.015-1.813-10.5 1.5s-1.813 8.015 1.5 10.5c6.89 5.167 13.562 10.691 19.828 16.415 1.197 1.095 1.375 2.439 1.375 3.144-.001.737-.191 2.146-1.468 3.311-34.624 31.584-77.089 53.478-122.802 63.314-44.605 9.596-91.191 7.571-134.723-5.859-3.955-1.224-8.156.996-9.378 4.956-1.221 3.958.998 8.156 4.956 9.377 3.549 1.095 7.118 2.113 10.703 3.065l-14.377 28.795c-1.851 3.706-.346 8.21 3.359 10.06 1.076.537 2.219.792 3.345.792 2.753 0 5.402-1.521 6.716-4.151l15.952-31.951c16.396 3.399 33.064 5.316 49.78 5.762v35.262c0 4.142 3.357 7.5 7.5 7.5s7.5-3.358 7.5-7.5v-35.248c17.38-.458 34.739-2.52 51.821-6.195.797-.171 1.59-.355 2.385-.534l16.427 32.904c1.312 2.63 3.963 4.151 6.716 4.151 1.126 0 2.269-.254 3.344-.791 3.706-1.851 5.211-6.354 3.36-10.061l-14.964-29.973c16.278-4.608 32.082-10.683 47.216-18.123l28.83 28.83c1.465 1.464 3.385 2.197 5.304 2.197s3.839-.732 5.304-2.197c2.929-2.929 2.929-7.678 0-10.606l-25.545-25.544c13.191-7.429 25.795-15.929 37.667-25.433l40.471 20.643c1.092.557 2.256.82 3.402.82 2.729 0 5.361-1.496 6.687-4.094 1.884-3.692.418-8.209-3.271-10.091z"/></g></g></svg>