<svg id="Capa_1" enable-background="new 0 0 511.956 511.956" height="512" viewBox="0 0 511.956 511.956" width="512" xmlns="http://www.w3.org/2000/svg"><g><g><g><path d="m454.879 263.13 18.405-35.697 13.302-52.844-19.486-42.936-52.183-32.037-18.497-27.743-15.523-33.028-28.569-20.477s-36.385-7.706-36.55-7.687-15.688-.79-15.688-.79l-7.16.79c-7.669 1.871-15.028 4.523-22.126 7.836-9.348 4.363-20.123 4.467-29.462.085-16.941-7.949-35.373-12.136-55.963-10.876-37.224 2.278-70.299 25.565-83.01 60.626-.327.902-.639 1.805-.936 2.709-5.702 17.366-18.835 31.278-35.994 37.574-.316.116-.632.234-.946.353-35.636 13.523-56.616 50.563-51.13 88.282 4.881 33.56 18.46 60.742 36.077 75.821l13.152 25.597 193.386 25.749 153.364-20.42z" fill="#6c5e69"/><g><path d="m447.463 108.989c-18.601-6.412-32.375-21.846-37.876-40.636-12.711-35.061-45.786-58.348-83.01-60.626-11.894-.728-23.064.372-33.646 2.955.378.02.749.022 1.128.045 37.224 2.278 70.299 25.565 83.01 60.626.327.901.638 1.804.935 2.708 5.707 17.378 18.829 31.277 36.001 37.578.314.115.627.232.94.351 35.636 13.523 56.616 50.563 51.13 88.282-4.881 33.56-18.46 60.742-36.077 75.821l32.519-3c17.616-15.079 31.196-42.261 36.077-75.821 5.485-37.72-15.495-74.76-51.131-88.283z" fill="#574d56"/></g><path d="m102.692 353.981h-28.664c-19.526 0-35.356-15.829-35.356-35.356v-20.14c0-19.526 15.829-35.356 35.356-35.356h28.664z" fill="#ffb29f"/><path d="m409.264 353.981h28.664c19.526 0 35.356-15.829 35.356-35.356v-20.14c0-19.526-15.829-35.356-35.356-35.356h-28.664z" fill="#ffb29f"/><path d="m271.687 501.341 39.853-11.67 33.468-25.982 30.214-29.505 16.905-35.229 5.725-70.459 11.412-85.431-6.128-48.838-19.816-28.255-36.551-10.099-58.569-8.367-30.165-11.67-24.847-1.979c-36.738 27.351-87.99-.611-126.827 33.612-17.743 15.636-26.551 39.085-24.373 62.634l13.829 149.532c3.302 35.701 23.011 67.839 53.336 86.968l38.613 24.356c13.978 8.817 30.167 13.497 46.694 13.497h27.243z" fill="#ffe0cf"/><g><path d="m405.594 167.469c-43.526-38.356-102.648 1.404-139.453-46.141-5.133-6.631-15.192-6.631-20.325 0-3.965 5.122-8.191 9.226-12.627 12.529 36.922 43.57 94.671 5.963 137.396 43.612 17.743 15.636 26.551 39.085 24.373 62.634l-13.829 139.532c-3.302 35.701-23.012 67.839-53.336 86.968l-38.613 24.356c-13.978 8.817-30.167 13.497-46.694 13.497h35.009c16.527 0 32.716-4.679 46.694-13.497l38.613-24.356c30.325-19.128 50.035-51.267 53.336-86.968l13.829-149.532c2.178-23.549-6.63-46.998-24.373-62.634z" fill="#ffcfc0"/></g></g><g><path d="m494.949 140.316c-10.125-17.597-26.044-31.212-44.824-38.339-16.478-5.577-28.644-19.284-33.488-36.18-7.233-19.957-20.604-36.785-38.666-48.667-3.462-2.277-8.112-1.318-10.388 2.144-2.276 3.46-1.316 8.111 2.144 10.388 15.34 10.09 26.685 24.353 32.809 41.248.301.83.588 1.66.86 2.491 6.503 19.8 21.28 35.209 40.536 42.275l.87.325c31.867 12.092 51.368 45.817 46.369 80.19-4.075 28.025-14.536 52.006-29.029 66.959-6.894-4.739-15.234-7.521-24.214-7.521h-2.79l2.297-24.836c2.424-26.207-7.626-51.983-26.882-68.951-22.567-19.887-49.244-20.673-72.78-21.367-25.986-.766-48.43-1.428-65.701-23.739-3.878-5.009-9.743-7.882-16.094-7.882-6.35 0-12.215 2.873-16.093 7.882-17.271 22.311-39.715 22.973-65.702 23.739-23.536.693-50.212 1.48-72.78 21.367-19.257 16.969-29.306 42.746-26.881 68.951l2.297 24.836h-2.791c-8.98 0-17.32 2.782-24.214 7.521-14.493-14.954-24.953-38.935-29.028-66.959-5-34.373 14.501-68.097 46.37-80.19l.861-.322c19.264-7.068 34.041-22.478 40.542-42.277.274-.833.562-1.666.861-2.493 11.491-31.696 41.486-53.559 76.417-55.697 18.168-1.109 35.22 2.19 52.138 10.094 11.441 5.346 24.564 5.345 36.008 0 16.916-7.904 33.966-11.208 52.136-10.094 6.515.399 13.009 1.514 19.303 3.315 3.984 1.14 8.135-1.164 9.274-5.147 1.14-3.982-1.165-8.134-5.147-9.273-7.339-2.1-14.914-3.4-22.514-3.866-20.724-1.271-40.157 2.485-59.401 11.476-7.404 3.459-15.901 3.46-23.31 0-19.244-8.992-38.686-12.744-59.403-11.476-40.901 2.503-76.072 28.236-89.604 65.562-.352.972-.688 1.945-1.009 2.919-5.062 15.415-16.528 27.397-31.464 32.878-.339.125-.677.25-1.012.377-18.781 7.127-34.701 20.743-44.825 38.339-10.041 17.45-13.971 38.06-11.065 58.034 4.525 31.112 16.477 58.071 33.183 75.314-4.999 7.009-7.952 15.574-7.952 24.82v20.14c0 23.631 19.225 42.855 42.855 42.855h12.58l1.743 18.845c3.492 37.764 24.728 72.389 56.804 92.621l38.612 24.356c15.197 9.586 32.728 14.653 50.695 14.653h43.034c17.968 0 35.498-5.067 50.695-14.653l38.612-24.356c32.075-20.232 53.311-54.856 56.804-92.621l1.743-18.845h12.579c11.82 0 23.234-4.961 31.315-13.61 2.828-3.026 2.666-7.772-.36-10.601-3.028-2.828-7.773-2.668-10.601.36-5.332 5.707-12.561 8.851-20.354 8.851h-11.191l7.014-75.851h4.177c15.359 0 27.855 12.496 27.855 27.855v16.801c0 4.143 3.357 7.5 7.5 7.5s7.5-3.357 7.5-7.5v-16.801c0-9.246-2.953-17.811-7.952-24.82 16.706-17.244 28.659-44.202 33.184-75.315 2.904-19.972-1.027-40.582-11.067-58.032zm-136.148 319.943-38.612 24.356c-12.799 8.073-27.562 12.341-42.693 12.341h-43.034c-15.131 0-29.895-4.268-42.693-12.341l-38.612-24.356c-28.16-17.763-46.804-48.16-49.87-81.314l-6.078-65.724c-.381-4.125-4.046-7.171-8.158-6.777-4.125.381-7.159 4.034-6.777 8.158l2.948 31.879h-11.195c-15.359 0-27.855-12.496-27.855-27.855v-20.14c0-15.359 12.496-27.855 27.855-27.855h4.178l1.387 14.999c.381 4.126 4.037 7.174 8.158 6.777 4.125-.381 7.159-4.034 6.777-8.158l-5.071-54.836c-1.984-21.451 6.188-42.503 21.863-56.315 18.505-16.307 40.266-16.948 63.305-17.627 27.292-.804 55.513-1.636 77.121-29.55 1.016-1.312 2.558-2.064 4.231-2.064 1.675 0 3.217.752 4.232 2.064 21.608 27.914 49.829 28.746 77.121 29.55 23.038.679 44.8 1.32 63.305 17.627 15.674 13.811 23.847 34.864 21.863 56.316l-13.828 149.532c-3.065 33.153-21.709 63.551-49.868 81.313z"/><path d="m303.595 395.908c-4.143 0-7.5 3.357-7.5 7.5 0 12.662-18.371 23.359-40.117 23.359s-40.117-10.697-40.117-23.359c0-4.143-3.357-7.5-7.5-7.5s-7.5 3.357-7.5 7.5c0 21.51 24.21 38.359 55.117 38.359s55.117-16.85 55.117-38.359c0-4.142-3.358-7.5-7.5-7.5z"/><path d="m265.373 376.202c1.11 0 2.239-.248 3.304-.771 5.665-2.786 9.832-7.886 11.433-13.992 1.601-6.107.471-12.596-3.1-17.802l-2.025-2.954c-2.341-3.415-7.008-4.286-10.427-1.944-3.416 2.342-4.287 7.011-1.944 10.427l2.025 2.955c1.123 1.637 1.464 3.595.961 5.515-.504 1.92-1.761 3.46-3.542 4.335-3.717 1.828-5.248 6.323-3.421 10.04 1.304 2.651 3.967 4.191 6.736 4.191z"/><path d="m203.995 250.3c3.37 2.409 8.053 1.636 10.464-1.734 2.411-3.368 1.635-8.053-1.733-10.464-13.908-9.953-31.97-11.232-47.142-3.342l-23.964 12.464c-3.675 1.911-5.104 6.44-3.193 10.114 1.337 2.569 3.952 4.041 6.66 4.041 1.166 0 2.35-.272 3.455-.848l23.964-12.464c10.135-5.271 22.201-4.416 31.489 2.233z"/><path d="m370.336 247.224-23.965-12.464c-15.172-7.89-33.234-6.609-47.141 3.342-3.369 2.411-4.146 7.095-1.735 10.464 2.412 3.369 7.097 4.146 10.464 1.734 9.289-6.648 21.355-7.505 31.49-2.232l23.965 12.464c1.106.575 2.289.848 3.455.848 2.708 0 5.323-1.472 6.66-4.041 1.911-3.676.482-8.204-3.193-10.115z"/></g></g><g><path d="m185.438 315.828c-4.143 0-7.5-3.357-7.5-7.5v-20.528c0-4.143 3.357-7.5 7.5-7.5s7.5 3.357 7.5 7.5v20.528c0 4.143-3.358 7.5-7.5 7.5z"/></g><g><path d="m326.519 315.828c-4.143 0-7.5-3.357-7.5-7.5v-20.528c0-4.143 3.357-7.5 7.5-7.5s7.5 3.357 7.5 7.5v20.528c0 4.143-3.358 7.5-7.5 7.5z"/></g></g></svg>