<svg id="Capa_1" enable-background="new 0 0 512 512" height="512" viewBox="0 0 512 512" width="512" xmlns="http://www.w3.org/2000/svg"><g><path d="m468.307 413.855-110.163-47.621c-15.711-6.792-26.133-21.869-27.068-38.819l-45 88.542 188.424 88.543h30v-35.571c0-23.933-14.224-45.578-36.193-55.074z" fill="#ffba9c"/><path d="m444.565 413.855-91.115-47.621c-12.994-6.792-21.601-21.87-22.375-38.819-.046-.825-.076-1.654-.076-2.487v-5.248h-150v5.248c0 17.95-10.668 34.183-27.144 41.306l-110.162 47.621c-21.969 9.496-36.193 31.141-36.193 55.074v35.571h467v-35.571c0-23.933-11.764-45.578-29.935-55.074z" fill="#ffd1bd"/><path d="m331 319.68v-72.236h-150v72.237c21.036 16.046 47.173 25.32 75 25.32 27.828-.001 53.964-9.276 75-25.321z" fill="#ffba9c"/><path d="m368.5 127.506v-7.506c0-62.132-50.368-112.5-112.5-112.5v307.5c40.31 0 76.098-25.794 88.845-64.036l7.656-22.968 18.206-12.137c12.519-8.346 20.039-22.396 20.039-37.442v-28.417c-.001-12.341-9.938-22.356-22.246-22.494z" fill="#ffd1bd"/><path d="m338.5 161.25c0-84.914-36.936-153.75-82.5-153.75-62.132 0-112.5 50.368-112.5 112.5v7.506c-12.309.137-22.245 10.153-22.245 22.494v28.417c0 15.046 7.52 29.096 20.038 37.442l18.205 12.137 7.656 22.968c12.748 38.242 48.535 64.036 88.846 64.036 45.563 0 82.5-68.836 82.5-153.75z" fill="#ffe4d9"/><circle cx="331" cy="237.18" fill="#ffa18c" r="82.5"/><circle cx="331" cy="237.18" fill="#ff8178" r="52.5"/><circle cx="331" cy="237.18" fill="#fc424b" r="22.5"/><path d="m331 207.18c-16.542 0-30 13.458-30 30s13.458 30 30 30 30-13.458 30-30-13.458-30-30-30zm0 45c-8.271 0-15-6.729-15-15s6.729-15 15-15 15 6.729 15 15-6.729 15-15 15z"/><path d="m471.283 406.97-110.163-47.62c-13.146-5.683-21.821-18.301-22.549-32.491 46.096-3.859 82.429-42.604 82.429-89.679 0-22.908-8.608-43.841-22.754-59.745v-27.435c0-13.796-9.467-25.528-22.246-28.972v-1.028c0-66.168-53.832-120-120-120s-120 53.832-120 120v1.028c-12.779 3.443-22.245 15.175-22.245 28.972v28.417c0 17.594 8.739 33.924 23.378 43.683l16.063 10.71 6.843 20.527c3.217 9.651 7.798 18.551 13.461 26.544v45.048c0 14.97-8.879 28.481-22.62 34.422l-41.313 17.858c-3.803 1.644-5.553 6.058-3.909 9.86 1.225 2.833 3.987 4.526 6.889 4.526.993 0 2.002-.199 2.972-.618l41.313-17.858c19.238-8.316 31.669-27.232 31.669-48.19v-28.223c18.121 16.234 41.939 25.794 67.499 25.794 11.352 0 22.5-1.907 33.202-5.636 10.414 5.485 22.026 8.988 34.334 10.003.74 20.179 12.99 38.191 31.633 46.25l110.163 47.621c19.237 8.316 31.668 27.232 31.668 48.19v28.072h-482v-28.071c0-20.958 12.431-39.874 31.668-48.19l41.313-17.858c3.803-1.644 5.553-6.058 3.909-9.86s-6.057-5.551-9.86-3.908l-41.313 17.857c-24.735 10.693-40.717 35.013-40.717 61.959v35.571c0 4.142 3.357 7.5 7.5 7.5h497c4.143 0 7.5-3.358 7.5-7.5v-35.571c0-26.946-15.982-51.266-40.717-61.959zm-140.283-94.79c-41.355 0-75-33.645-75-75s33.645-75 75-75 75 33.645 75 75-33.645 75-75 75zm-75-4.68c-37.14 0-69.985-23.673-81.73-58.908l-7.656-22.968c-.527-1.583-1.567-2.944-2.955-3.869l-18.205-12.137c-10.456-6.971-16.698-18.635-16.698-31.202v-28.416c0-8.177 6.652-14.903 14.829-14.994 4.109-.046 7.416-3.39 7.416-7.5v-7.506c0-57.897 47.103-105 105-105s105 47.103 105 105v7.506c0 4.109 3.307 7.454 7.416 7.5 8.178.091 14.83 6.817 14.83 14.994v13.938c-14.74-10.545-32.781-16.759-52.246-16.759-49.626 0-90 40.374-90 90 0 27.479 12.383 52.116 31.856 68.637-5.533 1.109-11.164 1.684-16.857 1.684z"/><path d="m331 177.18c-33.084 0-60 26.916-60 60s26.916 60 60 60 60-26.916 60-60-26.916-60-60-60zm0 105c-24.813 0-45-20.187-45-45s20.187-45 45-45 45 20.187 45 45-20.187 45-45 45z"/></g></svg>