<svg id="Capa_1" enable-background="new 0 0 512 512" height="512" viewBox="0 0 512 512" width="512" xmlns="http://www.w3.org/2000/svg"><g><g><path d="m498.67 330.666c-34.12 13.77-107.57 36.77-178.67 15.8-21.97-6.47-43.71-17.15-64-33.59-67 54.29-149.84 45.71-204.27 30.75-15.41-4.24-28.55-8.98-38.4-12.96-6.82-2.75-7.93-12.04-1.88-16.22 48.21-33.34 52.98-157.34 160.05-157.34 14.85 0 27.27 2.42 37.64 6.36 16.55 6.28 27.9 16.44 35.63 26.82 1.77 2.37 4.11 4 6.66 4.86 5.5 1.88 11.99.26 15.8-4.86 12.24-16.43 33.5-32.29 70.14-33.14 1.03-.03 2.07-.04 3.13-.04 107.07 0 111.84 124 160.05 157.34 6.05 4.18 4.94 13.47-1.88 16.22z" fill="#b87d72"/><g fill="#ab695d"><path d="m320 346.466c-21.97-6.47-43.71-17.15-64-33.59-16.72-9.01-27.83-68.96-4.57-117.73 5.5 1.88 11.99.26 15.8-4.86 12.24-16.43 33.5-32.29 70.14-33.14-26.62 34.25-76.3 115.72-17.37 189.32z"/><path d="m209.14 163.466c-124.94-26.36-76.83 152.38-157.41 180.16-15.41-4.24-28.55-8.98-38.4-12.96-6.82-2.75-7.93-12.04-1.88-16.22 48.21-33.34 52.98-157.34 160.05-157.34 14.85 0 27.27 2.42 37.64 6.36z"/></g></g><g><path d="m37.306 283.838c1.149.634 2.392.936 3.618.936 2.643 0 5.206-1.4 6.573-3.877 3.943-7.144 7.692-14.557 11.661-22.405 11.528-22.797 23.449-46.371 40.837-64.33 19.252-19.883 42.641-29.549 71.505-29.549 29.73 0 52.357 10.146 67.254 30.159 4.084 5.485 10.37 8.63 17.246 8.63 6.875 0 13.161-3.146 17.246-8.631 14.896-20.012 37.524-30.158 67.254-30.158 17.412 0 32.45 3.376 45.974 10.321 3.684 1.893 8.205.44 10.098-3.245s.439-8.206-3.245-10.098c-15.476-7.948-33.25-11.979-52.826-11.979-43.258 0-66.993 19.687-79.286 36.2-1.225 1.646-3.126 2.589-5.214 2.589s-3.989-.944-5.214-2.588c-12.293-16.515-36.028-36.201-79.286-36.201-33.141 0-60.055 11.159-82.282 34.115-18.971 19.594-31.975 45.308-43.447 67.995-3.906 7.724-7.595 15.02-11.407 21.925-2.003 3.627-.686 8.189 2.941 10.191z"/><path d="m504.817 308.274c-15.359-10.624-26.646-32.94-38.594-56.568-11.443-22.626-24.412-48.272-43.307-67.843-2.877-2.979-7.625-3.063-10.605-.186s-3.063 7.625-.186 10.605c17.322 17.941 29.212 41.454 40.712 64.193 12.833 25.376 24.955 49.345 43.451 62.138.541.374.777.909.702 1.59-.045.414-.253 1.161-1.124 1.513-8.36 3.371-19.217 7.335-31.877 11.047-42.356-.474-67.127-30.271-76.199-58.186-1.281-3.938-5.509-6.094-9.451-4.814-3.939 1.28-6.095 5.512-4.814 9.451 6.236 19.188 17.411 35.75 32.315 47.896 7.144 5.822 15.005 10.458 23.403 13.856-10.723 1.912-22.07 3.346-33.807 4.008-41.537-.285-72.188-36.003-76.809-69.116-.572-4.103-4.359-6.962-8.465-6.392-4.102.573-6.964 4.362-6.392 8.465 3.282 23.52 17.682 48.152 39.335 64.216-28.147-4.962-56.541-16.154-82.383-37.093-2.753-2.23-6.69-2.23-9.443 0-25.854 20.949-54.257 32.14-82.413 37.099 21.666-16.063 36.083-40.694 39.366-64.222.572-4.103-2.29-7.892-6.392-8.465-4.101-.569-7.892 2.29-8.465 6.392-4.62 33.106-35.259 68.815-76.784 69.115-11.75-.662-23.109-2.096-33.843-4.01 8.401-3.398 16.268-8.03 23.414-13.853 14.904-12.146 26.079-28.708 32.315-47.896 1.28-3.939-.875-8.171-4.814-9.451-3.939-1.281-8.171.875-9.451 4.814-9.072 27.915-33.843 57.712-76.2 58.186-12.658-3.71-23.511-7.673-31.868-11.043-.879-.356-1.087-1.103-1.132-1.517-.075-.682.161-1.217.714-1.599 3.757-2.606 7.44-5.81 10.947-9.522 2.845-3.011 2.71-7.758-.301-10.602-3.01-2.845-7.758-2.71-10.602.301-2.796 2.959-5.687 5.482-8.581 7.49-5.047 3.486-7.762 9.456-7.085 15.579.682 6.172 4.672 11.451 10.423 13.778 24.675 9.951 69.893 24.761 120.329 24.76 41.016-.001 85.486-9.799 125.146-39.97 39.665 30.175 84.123 39.972 125.145 39.97 50.43-.002 95.663-14.812 120.339-24.763 5.743-2.324 9.733-7.602 10.415-13.774.673-6.123-2.041-12.093-7.084-15.577z"/></g></g></svg>