<svg id="Capa_1" enable-background="new 0 0 511.997 511.997" height="512" viewBox="0 0 511.997 511.997" width="512" xmlns="http://www.w3.org/2000/svg"><g><g><circle cx="328.023" cy="220.048" fill="#6cabca" r="72.025"/><path d="m206.02 162.156h-81.338v122.907h204.246c-.001-67.88-55.028-122.907-122.908-122.907z" fill="#ffdfcf"/><path d="m234.476 285.068h-109.794v-122.914h81.34c5.671 0 11.247.386 16.704 1.134-28.315 5.479-49.696 30.402-49.696 60.323 0 16.962 6.881 32.328 18 43.458 11.118 11.118 26.485 17.999 43.446 17.999z" fill="#ffcebf"/><path d="m307.174 115.766h-15.791c-21.146 0-38.288 17.142-38.288 38.287v16.409c0 29.867 24.212 54.078 54.078 54.078 21.146 0 38.288-17.142 38.288-38.288v-32.199c.001-21.145-17.141-38.287-38.287-38.287z" fill="#fe646f"/><path d="m282.01 34.635c-5.92-1.822-9.96-7.291-9.96-13.485v-6.137c0-4.151-3.365-7.516-7.516-7.516h-17.072c-4.151 0-7.516 3.365-7.516 7.516v6.137c0 6.194-4.04 11.663-9.96 13.485l-52.971 16.299 9.441 30.684 52.971-16.298c6.257-1.925 11.851-5.064 16.57-9.105 4.719 4.042 10.314 7.18 16.571 9.106l52.97 16.298 9.441-30.684z" fill="#6cabca"/><path d="m265.49 462.207h-71.74c-28.467 0-51.543-23.077-51.543-51.543v-126.726h221.779v186.125z" fill="#fe99a0"/><path d="m187.483 447.112c9.332 9.332 22.216 15.1 36.448 15.1h-30.177c-14.233 0-27.117-5.768-36.448-15.1-9.332-9.331-15.099-22.215-15.099-36.448 0-28.465 23.082-51.537 51.548-51.537h30.177c-28.465 0-51.548 23.072-51.548 51.537 0 14.233 5.768 27.117 15.099 36.448z" fill="#fd8087"/><path d="m176.435 287.518c-2.609 6.166-4.051 12.945-4.051 20.061 0 14.233 5.768 27.117 15.099 36.448 9.332 9.332 22.216 15.1 36.448 15.1h-30.177c-14.233 0-27.117-5.768-36.448-15.1-9.332-9.331-15.099-22.215-15.099-36.448 0-8.074 1.857-15.713 5.167-22.516z" fill="#fd8087"/><path d="m400.048 360.982c0-7.662-3.232-14.575-8.401-19.454 5.169-4.88 8.401-11.793 8.401-19.465 0-7.666-3.235-14.578-8.409-19.457 5.167-4.878 8.398-11.786 8.398-19.453 0-14.775-11.978-26.753-26.753-26.753-7.716 0-14.664 3.27-19.546 8.496-4.884-5.225-11.833-8.496-19.544-8.496-7.716 0-14.671 3.264-19.552 8.486-4.879-5.222-11.835-8.486-19.551-8.486s-14.661 3.264-19.552 8.486c-4.879-5.222-11.835-8.486-19.54-8.486-7.716 0-14.671 3.264-19.552 8.486-4.879-5.222-11.835-8.486-19.551-8.486s-14.671 3.264-19.552 8.486c-4.879-5.222-11.835-8.486-19.551-8.486-7.712 0-14.661 3.27-19.545 8.496-4.883-5.225-11.831-8.496-19.547-8.496-14.775 0-26.753 11.978-26.753 26.753 0 7.024 2.711 13.413 7.138 18.186-4.428 4.773-7.138 11.162-7.138 18.188 0 7.031 2.708 13.419 7.138 18.192-4.43 4.773-7.138 11.162-7.138 18.192 0 7.022 2.711 13.411 7.14 18.186-4.429 4.773-7.14 11.162-7.14 18.187 0 14.775 11.978 26.753 26.753 26.753s26.753-11.978 26.753-26.753c0-7.026-2.712-13.416-7.142-18.189 4.429-4.774 7.142-11.163 7.142-18.184 0-7.031-2.707-13.419-7.138-18.192 4.431-4.773 7.138-11.162 7.138-18.192 0-6.462-2.292-12.388-6.106-17.011 4.801 4.575 11.294 7.391 18.444 7.391 7.716 0 14.671-3.274 19.551-8.497 4.88 5.223 11.836 8.497 19.552 8.497s14.671-3.274 19.551-8.497c4.88 5.223 11.836 8.497 19.552 8.497 7.705 0 14.661-3.274 19.54-8.497 4.891 5.223 11.836 8.497 19.552 8.497s14.671-3.274 19.551-8.497c4.88 5.223 11.836 8.497 19.552 8.497 7.711 0 14.659-3.272 19.543-8.498.387.415.788.816 1.201 1.205-5.165 4.879-8.394 11.787-8.394 19.45 0 7.673 3.221 14.586 8.39 19.465-5.169 4.88-8.39 11.793-8.39 19.454 0 7.673 3.221 14.586 8.39 19.466-5.169 4.869-8.39 11.793-8.39 19.454 0 7.673 3.221 14.586 8.39 19.455-5.169 4.88-8.39 11.793-8.39 19.465 0 6.093 2.042 11.709 5.474 16.208-4.102-2.558-8.944-4.041-14.132-4.041-6.795 0-12.991 2.525-17.71 6.688-4.719-4.163-10.915-6.688-17.7-6.688-6.792 0-12.989 2.535-17.706 6.704-4.718-4.169-10.913-6.704-17.704-6.704-14.775 0-26.753 11.978-26.753 26.753s11.978 26.753 26.753 26.753c6.792 0 12.988-2.536 17.706-6.706 4.717 4.169 10.913 6.706 17.704 6.706 6.784 0 12.98-2.536 17.7-6.699 4.719 4.163 10.915 6.699 17.71 6.699 6.786 0 12.979-2.535 17.697-6.703 4.718 4.168 10.913 6.703 17.703 6.703 14.775 0 26.753-11.978 26.753-26.753 0-7.67-3.233-14.58-8.403-19.458 5.177-4.88 8.415-11.793 8.415-19.462 0-7.673-3.232-14.586-8.401-19.465 5.169-4.869 8.401-11.782 8.401-19.455 0-7.662-3.232-14.586-8.401-19.454 5.166-4.881 8.399-11.794 8.399-19.467z" fill="#b87d72"/><path d="m148.943 417.004c-3.146 1.305-6.614 2.033-10.241 2.033-14.768 0-26.753-11.975-26.753-26.753 0-7.031 2.718-13.419 7.148-18.192-4.43-4.773-7.148-11.162-7.148-18.182 0-7.031 2.707-13.419 7.138-18.192-4.43-4.773-7.138-11.162-7.138-18.192s2.718-13.419 7.138-18.192c-4.419-4.773-7.138-11.162-7.138-18.181 0-14.778 11.985-26.753 26.753-26.753 3.628 0 7.073.717 10.22 2.033-9.685 4.023-16.501 13.58-16.501 24.72 0 7.02 2.718 13.408 7.138 18.181-4.42 4.773-7.138 11.162-7.138 18.192 0 7.031 2.707 13.419 7.138 18.192-4.43 4.773-7.138 11.162-7.138 18.192 0 7.02 2.718 13.409 7.138 18.182-4.42 4.773-7.138 11.161-7.138 18.192-.001 11.15 6.827 20.707 16.522 24.72z" fill="#ab695d"/><g fill="#fe99a0"><path d="m130.39 232.329c-16.637 0-30.123-13.486-30.123-30.123v-92.514c0-36.598 29.669-66.267 66.267-66.267 36.598 0 66.267 29.669 66.267 66.267v20.225c.001 56.561-45.85 102.412-102.411 102.412z"/><path d="m381.606 232.329c16.637 0 30.123-13.486 30.123-30.123v-92.514c0-36.598-29.669-66.267-66.267-66.267-36.598 0-66.267 29.669-66.267 66.267v20.225c0 56.561 45.851 102.412 102.411 102.412z"/></g><g fill="#fd8087"><path d="m131.365 109.693v92.512c0 12.82 8.015 23.778 19.316 28.112-6.56 1.316-13.344 2.012-20.289 2.012-16.63 0-30.124-13.494-30.124-30.124v-92.512c0-36.598 29.674-66.272 66.273-66.272 5.361 0 10.562.631 15.549 1.84-29.108 6.988-50.725 33.185-50.725 64.432z"/><path d="m392.421 230.317c-3.349 1.306-6.999 2.012-10.808 2.012-56.567 0-102.411-45.855-102.411-102.41v-20.226c0-18.299 7.416-34.864 19.401-46.861 11.996-11.996 28.561-19.412 46.861-19.412 5.361 0 10.562.631 15.549 1.84-12.06 2.89-22.826 9.086-31.312 17.571-11.996 11.997-19.412 28.562-19.412 46.861v20.226c0 49.611 35.282 90.993 82.132 100.399z"/></g></g><path d="m409.873 73.714c-2.021-3.614-6.594-4.906-10.207-2.882-3.615 2.022-4.905 6.593-2.883 10.208 4.871 8.704 7.445 18.614 7.445 28.658v92.51c0 12.473-10.147 22.62-22.62 22.62-52.334 0-94.91-42.577-94.91-94.91v-20.22c0-15.698 6.113-30.457 17.214-41.557 11.099-11.1 25.854-17.213 41.546-17.213 10.462 0 20.733 2.783 29.704 8.048 3.571 2.097 8.167.9 10.264-2.672s.9-8.168-2.672-10.265c-11.27-6.615-24.167-10.111-37.296-10.111-7.733 0-15.279 1.199-22.443 3.479l-38.79-11.934c-2.796-.863-4.675-3.401-4.675-6.317v-6.143c0-8.279-6.734-15.013-15.012-15.013h-17.079c-8.278 0-15.013 6.734-15.013 15.012v6.143c0 2.914-1.88 5.453-4.668 6.315l-38.833 11.947c-7.072-2.26-14.599-3.491-22.411-3.491-40.675 0-73.767 33.092-73.767 73.767v92.514c0 16.1 10.167 29.864 24.416 35.224v19.096c-7.761 6.286-12.735 15.886-12.735 26.631 0 6.497 1.825 12.771 5.225 18.18-3.399 5.411-5.225 11.688-5.225 18.189 0 6.502 1.826 12.78 5.225 18.19-3.398 5.411-5.225 11.688-5.225 18.19 0 6.495 1.826 12.771 5.227 18.187-3.4 5.412-5.227 11.69-5.227 18.193 0 18.265 14.371 33.234 32.4 34.198 2.699 9.772 7.859 18.638 15.146 25.925 11.154 11.154 25.982 17.297 41.754 17.297h40.021c-.623 2.581-.962 5.271-.962 8.04 0 18.886 15.364 34.25 34.25 34.25 6.284 0 12.397-1.726 17.71-4.939 5.313 3.213 11.428 4.939 17.711 4.939 6.278 0 12.386-1.724 17.693-4.933 5.315 3.209 11.432 4.933 17.716 4.933 6.277 0 12.385-1.723 17.69-4.93 5.308 3.207 11.418 4.93 17.7 4.93 2.425 0 4.858-.258 7.231-.767 4.051-.868 6.63-4.855 5.762-8.905-.867-4.05-4.855-6.628-8.904-5.762-1.343.288-2.719.434-4.089.434-4.693 0-9.216-1.712-12.734-4.82-2.836-2.507-7.096-2.507-9.932 0-3.519 3.108-8.037 4.82-12.725 4.82-4.697 0-9.229-1.714-12.761-4.827-2.837-2.5-7.091-2.499-9.924.005-3.521 3.109-8.039 4.821-12.725 4.821-4.692 0-9.219-1.716-12.746-4.831-2.836-2.506-7.095-2.505-9.931 0-3.525 3.115-8.052 4.831-12.744 4.831-10.614 0-19.25-8.635-19.25-19.25 0-10.62 8.636-19.26 19.25-19.26 4.693 0 9.219 1.715 12.744 4.83 2.835 2.506 7.095 2.507 9.932 0 3.526-3.115 8.053-4.831 12.745-4.831 4.693 0 9.212 1.708 12.725 4.811 2.833 2.502 7.087 2.505 9.924.005 3.523-3.106 8.056-4.816 12.761-4.816 3.586 0 7.104 1.007 10.176 2.913 3.073 1.907 7.074 1.348 9.508-1.333 2.433-2.681 2.604-6.716.406-9.593-2.577-3.374-3.939-7.401-3.939-11.647 0-5.363 2.145-10.341 6.038-14.017 1.502-1.417 2.353-3.392 2.352-5.458s-.854-4.04-2.357-5.456c-3.89-3.664-6.032-8.632-6.032-13.99 0-5.364 2.143-10.336 6.032-14 1.503-1.416 2.356-3.39 2.357-5.456.001-2.065-.85-4.04-2.352-5.458-3.894-3.676-6.038-8.65-6.038-14.006 0-5.357 2.145-10.331 6.038-14.007 1.501-1.417 2.352-3.39 2.352-5.454s-.851-4.037-2.352-5.454c-3.894-3.675-6.038-8.649-6.038-14.006 0-5.352 2.146-10.32 6.043-13.99 1.512-1.424 2.365-3.412 2.357-5.489-.009-2.078-.878-4.059-2.401-5.471-.277-.257-.519-.5-.737-.741-1.407-1.556-3.401-2.451-5.5-2.468-2.075-.03-4.106.845-5.539 2.377-3.692 3.948-8.69 6.123-14.072 6.123-5.306 0-10.435-2.231-14.072-6.122-1.418-1.517-3.401-2.378-5.479-2.378s-4.061.861-5.479 2.378c-3.691 3.948-8.688 6.122-14.071 6.122-5.376 0-10.375-2.176-14.076-6.127-1.418-1.514-3.399-2.373-5.474-2.373-.001 0-.003 0-.004 0-2.075.001-4.058.862-5.475 2.378-3.69 3.948-8.685 6.122-14.062 6.122-5.383 0-10.381-2.174-14.071-6.122-1.418-1.517-3.401-2.378-5.479-2.378s-4.061.861-5.479 2.378c-3.638 3.891-8.767 6.122-14.071 6.122-5.383 0-10.381-2.174-14.072-6.123-1.419-1.517-3.402-2.377-5.479-2.377s-4.061.861-5.479 2.378c-3.638 3.891-8.767 6.122-14.071 6.122-4.957 0-9.674-1.89-13.279-5.322-2.873-2.735-7.38-2.759-10.282-.056-2.903 2.704-3.198 7.2-.675 10.26 2.835 3.438 4.396 7.784 4.396 12.238 0 4.873-1.824 9.521-5.136 13.087-2.672 2.877-2.672 7.33 0 10.207 3.312 3.566 5.136 8.213 5.136 13.086 0 4.858-1.829 9.508-5.151 13.092-2.668 2.878-2.665 7.327.006 10.202 3.318 3.573 5.146 8.22 5.146 13.086 0 10.614-8.64 19.25-19.26 19.25-10.614 0-19.25-8.636-19.25-19.25 0-4.873 1.824-9.521 5.136-13.086 2.67-2.875 2.672-7.323.005-10.201-3.314-3.578-5.141-8.227-5.141-13.092 0-4.873 1.824-9.521 5.136-13.086 2.672-2.877 2.672-7.33 0-10.207-3.312-3.566-5.136-8.214-5.136-13.087s1.824-9.521 5.136-13.086c2.672-2.877 2.672-7.33 0-10.207-3.312-3.566-5.136-8.21-5.136-13.076 0-10.62 8.636-19.26 19.25-19.26 5.391 0 10.386 2.172 14.066 6.117 1.418 1.52 3.404 2.383 5.483 2.383s4.065-.863 5.483-2.383c3.681-3.944 8.676-6.117 14.066-6.117 1.101 0 2.175.092 3.193.274 4.077.724 7.974-1.989 8.7-6.067s-1.989-7.973-6.067-8.7c-1.886-.336-3.846-.506-5.826-.506-7.018 0-13.854 2.185-19.55 6.14-5.696-3.955-12.532-6.14-19.55-6.14-2.228 0-4.404.221-6.515.629v-9.72c44.735-.72 83.062-28.293 99.52-67.276 4.823 1.098 9.573 2.517 14.214 4.229 3.165 31.009 29.429 55.283 61.254 55.283.454 0 .906-.012 1.359-.025 3.559 6.866 6.399 14.066 8.507 21.503-.818.473-1.622.972-2.4 1.512-5.698-3.952-12.534-6.136-19.55-6.136-7.01 0-13.844 2.184-19.547 6.137-5.697-3.953-12.531-6.137-19.543-6.137-7.016 0-13.852 2.184-19.55 6.136-5.698-3.952-12.534-6.136-19.55-6.136-.323 0-.628.004-.952.024-4.134.25-7.326 3.805-7.077 7.94s3.754 7.287 7.896 7.037h.134c5.39 0 10.387 2.17 14.071 6.112 1.418 1.517 3.401 2.378 5.479 2.378s4.061-.861 5.479-2.378c3.685-3.941 8.682-6.112 14.071-6.112 5.383 0 10.377 2.17 14.062 6.112 1.417 1.516 3.399 2.377 5.475 2.378h.004c2.074 0 4.056-.859 5.474-2.373 3.695-3.945 8.694-6.117 14.076-6.117 5.39 0 10.387 2.17 14.071 6.112 1.418 1.517 3.401 2.378 5.479 2.378s4.061-.861 5.479-2.378c3.685-3.941 8.683-6.112 14.072-6.112 5.382 0 10.38 2.174 14.071 6.123 1.419 1.517 3.402 2.377 5.479 2.377h.004c2.078-.001 4.062-.864 5.479-2.383 3.681-3.944 8.673-6.117 14.057-6.117 10.62 0 19.26 8.64 19.26 19.26 0 5.344-2.148 10.314-6.049 13.996-1.501 1.417-2.352 3.39-2.352 5.454s.851 4.037 2.352 5.454c3.907 3.688 6.059 8.663 6.059 14.006 0 5.351-2.147 10.325-6.048 14.006-1.501 1.417-2.352 3.39-2.352 5.454s.851 4.037 2.352 5.454c3.9 3.682 6.048 8.656 6.048 14.007s-2.147 10.325-6.048 14.006c-1.502 1.417-2.353 3.392-2.352 5.458s.854 4.04 2.357 5.456c3.896 3.67 6.042 8.642 6.042 14 0 5.352-2.146 10.32-6.042 13.99-1.503 1.416-2.356 3.39-2.357 5.456-.001 2.065.85 4.04 2.352 5.458 3.9 3.682 6.048 8.66 6.048 14.017 0 5.345-2.153 10.317-6.062 14.001-1.505 1.417-2.357 3.392-2.357 5.459s.853 4.042 2.357 5.459c3.895 3.67 6.044 8.629 6.053 14.063-.208 4.086 2.906 7.595 7.003 7.862.166.011.331.017.495.017 3.919 0 7.218-3.045 7.477-7.013.021-.316.025-.612.025-.928 0-6.974-2.165-13.778-6.082-19.458 3.924-5.685 6.092-12.489 6.092-19.461 0-7.095-2.117-13.815-6.062-19.487 3.904-5.672 6.062-12.467 6.062-19.433 0-6.979-2.163-13.785-6.076-19.463 3.914-5.682 6.076-12.485 6.076-19.457s-2.163-13.777-6.078-19.46c3.915-5.683 6.078-12.487 6.078-19.46 0-6.969-2.167-13.775-6.088-19.461 3.915-5.681 6.078-12.482 6.078-19.449 0-9.479-3.871-18.07-10.113-24.278 4.98-8.894 8.216-18.715 9.495-28.864 7.558-6.886 12.309-16.802 12.309-27.808v-92.51c.001-12.606-3.235-25.049-9.355-35.986zm-236.915 318.573c0-6.21-1.687-12.21-4.807-17.456 7.434-5.312 16.401-8.214 25.597-8.214h104.37c4.143 0 7.5-3.358 7.5-7.5s-3.357-7.5-7.5-7.5h-104.37c-7.152 0-14.201 1.313-20.807 3.802-.089-6.327-1.895-12.427-5.208-17.702 3.398-5.411 5.225-11.688 5.225-18.19 0-.827-.03-1.652-.09-2.473 1.621.234 3.268.354 4.93.354 7.013 0 13.849-2.187 19.55-6.144 5.702 3.958 12.538 6.144 19.551 6.144s13.849-2.187 19.55-6.144c5.701 3.957 12.537 6.144 19.55 6.144 7.009 0 13.843-2.188 19.543-6.146 5.706 3.958 12.541 6.146 19.547 6.146 7.013 0 13.849-2.187 19.55-6.144 5.701 3.957 12.538 6.144 19.551 6.144 1.76 0 3.508-.138 5.23-.407-.252 1.669-.381 3.363-.381 5.066 0 6.975 2.161 13.78 6.07 19.46-3.909 5.68-6.07 12.485-6.07 19.46 0 6.974 2.16 13.777 6.068 19.457-1.45 2.106-2.657 4.368-3.605 6.736-7.757 6.147-17.39 9.515-27.332 9.515h-103.073c-4.143 0-7.5 3.358-7.5 7.5s3.357 7.5 7.5 7.5h103.073c8.865 0 17.547-1.997 25.43-5.759.866 4.806 2.731 9.389 5.492 13.404-3.938 5.669-6.054 12.389-6.054 19.487 0 1.583.106 3.149.316 4.692-6.75-.292-13.458 1.44-19.183 4.893-5.304-3.204-11.412-4.925-17.693-4.925-6.284 0-12.397 1.726-17.711 4.939-5.312-3.212-11.426-4.939-17.71-4.939-10.025 0-19.057 4.331-25.326 11.22h-47.983c-11.765 0-22.826-4.583-31.147-12.904-5.067-5.067-8.751-11.153-10.859-17.852 12.438-5.14 21.216-17.394 21.216-31.664zm59.24-350.483c9.12-2.82 15.248-11.118 15.248-20.649l.013-6.155 17.091.012v6.143c0 9.536 6.129 17.835 15.258 20.652l23.625 7.269c-3.581 2.494-6.977 5.307-10.128 8.458-1.585 1.585-3.078 3.237-4.499 4.936l-14.025-4.319c-5.171-1.591-9.848-4.159-13.901-7.633-2.809-2.407-6.953-2.407-9.762 0-4.052 3.473-8.726 6.042-13.891 7.633l-14.066 4.329c-4.253-5.092-9.182-9.597-14.642-13.392zm-6.896 88.114c0 52.334-42.577 94.911-94.912 94.911-12.474 0-22.622-10.148-22.622-22.623v-92.514c0-32.404 26.362-58.767 58.767-58.767s58.768 26.363 58.768 58.767v20.226zm20.296 24.135v6.73c-2.972-.947-5.98-1.778-9.012-2.508 2.419-9.051 3.716-18.555 3.716-28.357v-20.225c0-12.337-3.06-23.968-8.437-34.198l9.777-3.009c5.158-1.59 9.967-3.888 14.357-6.856 4.394 2.97 9.206 5.268 14.368 6.856l9.719 2.993c-5.475 10.432-8.388 22.099-8.388 34.217v3.002c-15.81 7.515-26.1 23.51-26.1 41.355zm15 16.405v-16.405c0-9.355 4.217-17.94 11.106-23.671.146 34.832 16.573 65.892 42.053 85.944-2.145.467-4.348.716-6.585.716-25.681 0-46.574-20.897-46.574-46.584zm124.121 80.41c-3.58-1.272-7.43-1.972-11.441-1.972-7.015 0-13.848 2.186-19.544 6.142-5.701-3.956-12.535-6.142-19.546-6.142-.95 0-1.896.048-2.838.127-1.979-6.895-4.503-13.613-7.59-20.083 1.827-.711 3.609-1.542 5.338-2.49 15.611 8.526 33.504 13.376 52.51 13.376 2.786 0 5.5-.314 8.115-.891-1.264 4.134-2.937 8.135-5.004 11.933z"/></g></svg>