<svg id="Capa_1" enable-background="new 0 0 512.007 512.007" height="512" viewBox="0 0 512.007 512.007" width="512" xmlns="http://www.w3.org/2000/svg"><g><g><path clip-rule="evenodd" d="m31.065 167.106c9.978 43.388 22.848 91.443 39.913 136.924l29.198 65.874c.992 1.923 2.013 3.818 3.062 5.713 22.905 42.002 54.455 77.018 103.071 30.773 14.485-14.453 27.922-34.45 49.693-34.45s35.207 19.997 49.693 34.45c48.644 46.245 80.166 11.229 103.099-30.773 1.021-1.895 2.041-3.79 3.062-5.713l29.169-65.874c17.065-45.509 29.935-93.536 39.913-136.924 22.366-97.185-63.725-122.358-117.414-66.609-6.662 6.93-13.181 14.368-20.155 21.637-17.802 24.324-13.89 66.921-3.997 93.875 31.125 5.431 29.906 44.406 5.273 72.068-9.071 10.239-21.997 18.243-36.029 23.929-21.771-11.314-83.086-11.003-105.225 0-14.032-5.685-26.93-13.69-36.029-23.929-24.634-27.662-25.853-66.638 5.273-72.068-2.721-16.094-13.777-51.845-3.997-93.875-6.973-7.269-13.493-14.708-20.155-21.637-53.693-55.749-139.784-30.576-117.418 66.609zm286.733 193.917c-4.422-6.223-4.734-13.972 5.358-18.583 5.783-2.63 15.818-4.667 24.435-3.762 22.933 2.376 18.227 28.765 7.654 42.144-6.633 8.4-15.903 11.059-22.423 1.301zm-153.388-22.345c8.618-.905 18.653 1.131 24.435 3.762 10.092 4.61 9.78 12.36 5.358 18.583l-14.996 21.1c-6.52 9.758-15.818 7.099-22.423-1.301-10.601-13.378-15.306-39.768 7.626-42.144z" fill="#bebebe" fill-rule="evenodd"/></g><g><path clip-rule="evenodd" d="m37.868 311.582c-31.068 6.873-36.454 40.475-24.464 63.894 12.898 25.201 23.16 39.598 26.618 68.731 1.984 16.631 1.502 34.026 1.644 48.338h44.08c-3.402-37.335.907-87.71 14.429-122.641 5.244-13.576 11.906-24.834 20.042-32.074 4.706-4.837 7.455-10.324 8.788-15.867 4.451-18.583-4.847-38.184-24.861-41.012-10.602-1.527-21.26 2.659-28.461 16.405-1.417 2.744-3.005 4.921-4.677 6.675-9.78 10.097-23.216 5.373-33.138 7.551z" fill="#f8f7f7" fill-rule="evenodd"/></g><g><path clip-rule="evenodd" d="m73.898 355.253c-11.878 30.717-16.612 96.478-15.308 137.292h27.157c-3.402-37.335.907-87.71 14.429-122.641 5.244-13.576 11.906-24.834 20.042-32.074 4.706-4.837 7.455-10.324 8.788-15.867 4.451-18.583-4.847-38.184-24.861-41.012-1.616-.226-3.203-.339-4.791-.283 4.394 7.608 5.641 17.253 3.402 26.672-1.332 5.544-4.11 11.003-8.788 15.839-3.458 3.055-6.605 6.845-9.525 11.201-3.997 5.967-7.484 13.038-10.545 20.873z" fill="#e1e1e1" fill-rule="evenodd"/></g><g><path clip-rule="evenodd" d="m374.889 371.799c-1.021 1.923-2.041 3.818-3.061 5.713-10.914 19.997-23.783 38.41-39.516 47.235 34.017 13.944 58.027-15.33 76.481-49.13 1.021-1.895 2.041-3.79 3.062-5.713 18.454-31.452 28.744-66.327 29.169-65.874 17.065-45.509 29.935-93.536 39.913-136.924 17.263-75.038-30.133-107.141-77.331-92.235 31.125 7.41 52.981 39.315 40.395 94.13-8.164 35.44-18.227 73.963-30.955 111.666-16.046 52.326-19.136 48.197-38.157 91.132z" fill="#acacac" fill-rule="evenodd"/></g><g><path clip-rule="evenodd" d="m217.817 67.263v47.8l42.181 12.954 34.186-12.954v-47.8l-33.421-8.995z" fill="#f8f7f7" fill-rule="evenodd"/></g><g><path clip-rule="evenodd" d="m268.643 67.263h25.541v47.8h-25.541z" fill="#e1e1e1" fill-rule="evenodd"/></g><g><path clip-rule="evenodd" d="m217.817 115.063v41.606c10.97 15.556 23.443 16.179 38.184 16.179s32.599-4.441 38.184-16.179v-41.606z" fill="#f8f7f7" fill-rule="evenodd"/></g><g><path clip-rule="evenodd" d="m268.643 115.063v57.191c9.44-.933 19.985-8.655 25.541-15.585v-41.606z" fill="#e1e1e1" fill-rule="evenodd"/></g><g><path clip-rule="evenodd" d="m217.817 24.921v42.342h76.368v-42.342c0-2.998-2.466-5.459-5.499-5.459h-65.369c-3.034 0-5.5 2.461-5.5 5.459z" fill="#f8f7f7" fill-rule="evenodd"/></g><g><path clip-rule="evenodd" d="m268.643 24.921v42.342h25.541v-42.342c0-2.998-2.466-5.459-5.499-5.459h-25.541c3.033 0 5.499 2.461 5.499 5.459z" fill="#e1e1e1" fill-rule="evenodd"/></g><g><path clip-rule="evenodd" d="m172.631 216.01c4.989 5.346 9.95 10.55 14.344 16.575 17.547 24.098 17.405 51.308 16.413 79.422 34.13 13.859 71.095 13.859 105.225 0-.992-28.115-1.134-55.324 16.413-79.422 4.394-6.025 9.383-11.229 14.344-16.575 4.479-4.865 8.958-9.871 12.983-15.754 20.382-29.981 19.843-58.577-8.986-78.121-13.352 13.916-28.347 27.096-49.183 34.535-10.914 3.875-23.443 6.194-38.184 6.194s-27.27-2.319-38.184-6.194c-20.835-7.439-35.831-20.619-49.183-34.535-28.829 19.544-29.339 48.14-8.986 78.121 4.026 5.882 8.505 10.889 12.984 15.754z" fill="#acacac" fill-rule="evenodd"/></g><g><path clip-rule="evenodd" d="m391.784 337.83c1.304 1.301 2.551 2.687 3.77 4.101 6.435 7.524 11.849 16.716 16.3 27.973 13.493 34.931 17.802 85.305 14.4 122.641h44.08c.142-14.312-.34-31.707 1.644-48.338 3.458-29.133 13.72-43.53 26.618-68.731 11.991-23.419 6.633-57.021-24.464-63.894-9.922-2.178-23.358 2.546-33.11-7.552-1.701-1.754-3.288-3.932-4.706-6.675-7.2-13.746-17.83-17.932-28.461-16.405-20.013 2.828-29.311 22.429-24.861 41.012 1.335 5.544 4.113 11.031 8.79 15.868z" fill="#f8f7f7" fill-rule="evenodd"/></g><g><path clip-rule="evenodd" d="m474.898 365.266c-12.926 25.201-23.188 39.598-26.646 68.759-1.616 13.633-1.587 41.154-1.616 58.52h23.698c.142-14.312-.34-31.707 1.644-48.338 3.458-29.133 13.72-43.53 26.618-68.731 11.991-23.419 6.633-57.021-24.464-63.894-1.616-.339-3.317-.509-5.103-.594 14.062 13.435 14.855 36.713 5.869 54.278z" fill="#e1e1e1" fill-rule="evenodd"/></g><g><path d="m348.374 331.219c-10.475-1.097-21.772 1.415-28.336 4.399-8.132 3.715-11.067 9.072-12.098 12.911-1.453 5.416-.124 11.396 3.748 16.844l14.964 21.016c5.062 7.51 11.153 9.291 15.38 9.459.234.009.468.014.702.014 6.578 0 13.085-3.667 18.395-10.39 8.132-10.289 13.578-27.303 8.254-39.916-3.461-8.2-10.926-13.292-21.009-14.337zm.987 44.953c-.001.001-.002.001-.002.002-2.801 3.546-5.347 4.733-6.731 4.686-1.457-.058-2.861-1.844-3.569-2.903-.042-.062-.084-.123-.127-.184l-15.021-21.094c-1.176-1.655-1.744-3.288-1.483-4.262.269-.999 1.705-2.178 3.833-3.15 3.849-1.751 10.652-3.305 17.014-3.305 1.204 0 2.394.056 3.544.176 6.12.634 7.922 3.301 8.745 5.251 2.525 5.984-.315 17.333-6.203 24.783z"/><path d="m142.615 345.568c-5.315 12.617.142 29.619 8.282 39.899 5.292 6.726 11.796 10.395 18.388 10.395.229 0 .458-.004.687-.013 4.236-.164 10.341-1.941 15.408-9.463l14.938-21.019c3.868-5.442 5.197-11.422 3.744-16.838-1.03-3.839-3.966-9.195-12.109-12.916-6.552-2.979-17.852-5.494-28.313-4.395-10.101 1.047-17.568 6.143-21.025 14.35zm26.115.393c6.355 0 13.159 1.554 16.999 3.301 2.14.977 3.576 2.157 3.845 3.155.261.974-.308 2.606-1.483 4.261l-14.996 21.1c-.042.059-.083.118-.123.178-.708 1.06-2.115 2.847-3.58 2.903-1.36.057-3.933-1.141-6.711-4.674-.006-.007-.012-.015-.018-.022-5.896-7.441-8.747-18.785-6.225-24.772.822-1.951 2.623-4.619 8.756-5.254 1.147-.12 2.334-.176 3.536-.176z"/><path d="m507.229 328.726c-6.02-12.786-16.904-21.246-31.478-24.467-3.967-.876-8.013-.872-11.945-.868-5.782-.003-10.208-.149-13.828-1.963 13.992-38.155 26.531-81.609 38.267-132.64 10.344-44.943-1.019-81.273-30.393-97.183-14.325-7.759-31.979-9.792-49.708-5.724-18.22 4.179-35.518 14.35-50.028 29.417-3.381 3.516-6.769 7.211-10.044 10.784-13.462 14.684-27.213 29.66-46.388 39.189v-120.35c0-7.146-5.831-12.959-12.999-12.959h-65.369c-7.168 0-12.999 5.813-12.999 12.959v120.35c-19.175-9.529-32.925-24.505-46.388-39.189-3.275-3.573-6.663-7.268-10.048-10.788-14.507-15.062-31.805-25.233-50.024-29.413-17.73-4.068-35.385-2.035-49.708 5.724-29.374 15.91-40.736 52.24-30.394 97.181 11.748 51.086 24.288 94.541 38.27 132.65-3.62 1.818-8.046 1.966-13.831 1.955-3.913-.009-7.978-.009-11.947.868-14.566 3.223-25.447 11.686-31.467 24.477-7.012 14.896-6.265 34.116 1.947 50.155 2.351 4.597 4.582 8.781 6.739 12.828 2.363 4.432 4.596 8.618 6.637 12.705 1.85 3.706 6.353 5.209 10.061 3.359 3.706-1.851 5.21-6.355 3.359-10.061-2.131-4.267-4.408-8.539-6.82-13.062-2.128-3.99-4.328-8.117-6.622-12.603-6.05-11.816-6.729-26.313-1.729-36.935 3.968-8.429 11.276-14.037 21.135-16.218 2.36-.521 5.443-.521 8.692-.514 9.963.005 24.962.027 34.148-17.556 4.993-9.534 11.979-13.724 20.768-12.458 6.394.903 11.61 4.081 15.087 9.189 4.148 6.093 5.467 14.56 3.531 22.645-1.109 4.617-3.364 8.725-6.701 12.214-31.008 27.907-40.24 103.033-37.342 152.621h-28.537c-.001-.514-.001-1.03-.002-1.549-.013-12.41-.027-26.476-1.659-40.15-.4-3.468-.956-7.049-1.697-10.949-.774-4.069-4.699-6.74-8.77-5.966-4.069.774-6.74 4.7-5.967 8.769.673 3.539 1.175 6.766 1.536 9.896 1.53 12.825 1.544 26.42 1.557 38.416.003 3.142.007 6.188.035 9.107.041 4.113 3.387 7.426 7.5 7.426h44.08c2.107 0 4.118-.887 5.539-2.443 1.421-1.557 2.121-3.64 1.93-5.739-2.977-32.607.185-72.191 8.793-103.239 12.057 20.24 29.602 42.854 53.648 46.626 2.325.365 4.665.546 7.023.546 15.666 0 32.048-8.04 48.797-23.971.043-.041.086-.083.129-.125 2.819-2.813 5.604-5.832 8.295-8.75 11.153-12.09 21.687-23.51 36.1-23.51s24.946 11.42 36.1 23.51c2.691 2.918 5.476 5.937 8.295 8.75.043.043.087.085.13.126 19.279 18.328 38.06 26.212 55.828 23.424 24.016-3.763 41.566-26.352 53.649-46.609 8.602 31.041 11.76 70.615 8.783 103.221-.191 2.099.509 4.182 1.93 5.739s3.432 2.443 5.539 2.443h44.08c4.113 0 7.459-3.313 7.5-7.426.028-2.922.031-5.971.035-9.116.012-11.993.025-25.586 1.559-38.434.375-3.241.883-6.45 1.551-9.809.808-4.062-1.831-8.011-5.894-8.818-4.062-.807-8.012 1.831-8.819 5.893-.747 3.76-1.316 7.361-1.735 10.983-1.635 13.7-1.648 27.763-1.661 40.17-.001.522-.001 1.041-.002 1.557h-28.536c2.897-49.6-6.328-124.727-37.334-152.614-3.351-3.525-5.606-7.635-6.707-12.215-1.938-8.09-.619-16.558 3.528-22.65 3.478-5.108 8.694-8.285 15.104-9.191 8.781-1.262 15.759 2.931 20.747 12.454 9.189 17.59 24.213 17.567 34.152 17.563 3.244-.006 6.332-.007 8.692.514 9.865 2.181 17.176 7.786 21.143 16.21 4.999 10.618 4.316 25.119-1.739 36.946-2.292 4.482-4.492 8.609-6.62 12.599-2.412 4.523-4.689 8.795-6.82 13.062-1.851 3.706-.347 8.21 3.359 10.061 3.705 1.85 8.209.346 10.061-3.359 2.041-4.087 4.273-8.273 6.637-12.705 2.157-4.047 4.389-8.231 6.737-12.825 8.219-16.052 8.969-35.275 1.957-50.168zm-281.912-301.764h61.367v32.801h-61.367zm0 47.801h61.367v32.8h-61.367zm0 47.8h61.367v28.608c-9.005 2.662-19.114 4.193-30.684 4.193s-21.678-1.531-30.684-4.193v-28.608zm23.184 242.543c-16.907 3.048-28.893 16.04-39.625 27.674-2.686 2.911-5.223 5.662-7.801 8.238-15.69 14.906-30.186 21.437-43.094 19.414-16.237-2.547-31.54-17.928-48.183-48.445-.465-.841-.903-1.645-1.327-2.432 4.646-11.241 10.239-20.345 16.731-26.121.135-.12.265-.245.391-.374 5.336-5.485 8.938-11.994 10.705-19.35 2.948-12.31.865-24.916-5.717-34.585-5.834-8.571-14.851-14.111-25.368-15.598-12.8-1.843-24.227 3.248-32.233 14.071-12.519-35.419-23.886-75.554-34.606-122.174-8.871-38.547-.518-67.935 22.919-80.629 23.854-12.921 57.485-4.326 81.78 20.9 3.258 3.388 6.436 6.854 9.801 10.524 1.524 1.662 3.062 3.339 4.619 5.021-11.439 9.848-18.069 21.936-19.266 35.376-1.328 14.924 3.791 31.023 15.227 47.867 1.974 2.892 4.035 5.556 6.133 8.084-7.44 3.947-12.885 10.271-15.76 18.52-6.268 17.989.938 42.897 17.926 61.973 20.218 22.751 57.398 35.153 86.748 36.675zm-78.362-140.772c3.861 4.165 7.52 8.193 10.772 12.664 13.509 18.552 15.63 39.149 15.28 63.4-9.047-4.679-17.144-10.457-23.233-17.308-13.274-14.907-19.43-34.262-14.968-47.068 2.027-5.813 6.11-9.727 12.149-11.688zm85.973 90.554c-.031 0-.061 0-.092 0-.006 0-.013-.001-.019-.001s-.013.001-.019.001c-.031 0-.061 0-.092 0-13.259.184-29.538-2.55-44.823-8.042.762-24.306.429-53.328-18.027-78.674-4.138-5.688-8.736-10.637-13.183-15.422-5.037-5.421-9.796-10.542-14.004-16.707-9.431-13.892-13.698-26.709-12.685-38.097.871-9.791 5.825-18.469 14.718-25.872 20.295 20.166 45.662 38.29 88.114 38.29 42.454 0 67.82-18.125 88.116-38.292 7.852 6.534 12.645 14.061 14.249 22.447 2.3 12.025-1.924 26.382-12.214 41.518-4.209 6.187-8.978 11.314-14.025 16.743-4.442 4.776-9.035 9.715-13.164 15.39-18.458 25.351-18.791 54.376-18.028 78.683-15.288 5.496-31.571 8.232-44.822 8.035zm97.897-78.866c4.462 12.806-1.693 32.161-14.974 47.074-6.086 6.848-14.181 12.626-23.227 17.306-.35-24.252 1.771-44.851 15.281-63.406 3.25-4.467 6.912-8.494 10.778-12.66 6.037 1.962 10.118 5.875 12.142 11.686zm52.798 37.502c-10.537 1.489-19.554 7.029-25.388 15.601-6.582 9.668-8.665 22.274-5.715 34.59 1.756 7.307 5.352 13.81 10.688 19.328.132.136.268.267.409.392 6.494 5.772 12.088 14.876 16.734 26.118-.443.83-.887 1.655-1.326 2.47-16.644 30.483-31.953 45.865-48.179 48.408-12.904 2.019-27.405-4.508-43.105-19.415-2.577-2.576-5.115-5.326-7.8-8.237-10.732-11.634-22.718-24.626-39.625-27.674v-35.378c29.343-1.524 66.528-13.916 86.742-36.663 16.993-19.082 24.199-43.989 17.932-61.979-2.873-8.247-8.316-14.569-15.752-18.516 2.1-2.532 4.161-5.201 6.133-8.099 12.758-18.767 17.651-36.521 14.543-52.771-2.222-11.617-8.464-21.836-18.572-30.48 1.551-1.675 3.083-3.346 4.601-5.001 3.365-3.67 6.543-7.137 9.797-10.52 24.297-25.229 57.927-33.826 81.784-20.904 23.437 12.694 31.79 42.082 22.918 80.63-10.706 46.552-22.067 86.668-34.587 122.113-10.579-14.51-24.397-15.141-32.232-14.013z"/></g></g></svg>