<svg id="Capa_1" enable-background="new 0 0 512 512" height="512" viewBox="0 0 512 512" width="512" xmlns="http://www.w3.org/2000/svg"><g><g><path clip-rule="evenodd" d="m255.986 7.5c-120.897 0-218.888 111.249-218.888 248.5 0 55.956 16.283 107.584 43.76 149.112h350.254c27.477-41.527 43.789-93.155 43.789-149.112.001-137.251-98.018-248.5-218.915-248.5z" fill="#f47c7c" fill-rule="evenodd"/></g><g><path clip-rule="evenodd" d="m186.513 120.048c-47.954 25.02-80.723 75.147-80.723 132.893 0 30.994 9.458 59.795 25.597 83.718 41.996-20.114 98.453 27.529 124.426 75.954 25.973-48.424 82.777-96.068 124.773-75.954 16.168-23.924 25.597-52.724 25.597-83.718 0-57.746-32.741-107.873-80.723-132.893-23.948-12.496-44.715-4.733-47.028 20.634-4.801 52.869 20.94 57.457 20.824 92.693-.116 24.097-19.378 43.634-43.268 43.634s-43.153-19.537-43.239-43.634c-.145-35.236 25.626-39.825 20.795-92.693-2.316-25.367-23.083-33.13-47.031-20.634z" fill="#685e68" fill-rule="evenodd"/></g><g><path clip-rule="evenodd" d="m255.986 373.569c-25.973-48.424-82.603-57.024-124.599-36.91-26.175 12.525-46.681 36.246-50.528 68.452 39.942 60.343 103.514 99.388 175.127 99.388s135.185-39.045 175.127-99.388c-3.847-32.206-24.353-55.928-50.528-68.452-41.996-20.114-98.627-11.514-124.599 36.91z" fill="#e94444" fill-rule="evenodd"/></g><g><path clip-rule="evenodd" d="m474.902 256c0-137.251-98.019-248.5-218.916-248.5-2.69 0-5.38.058-8.069.144 109.791 13.39 195.286 118.897 195.286 247.086 0 41.412-8.937 80.486-24.729 114.828 6.565 10.245 11.049 22.163 12.639 35.554 27.476-41.528 43.789-93.155 43.789-149.112z" fill="#ee6161" fill-rule="evenodd"/></g><g><path clip-rule="evenodd" d="m406.181 252.941c0-57.746-32.741-107.873-80.723-132.893-17.556-9.177-33.435-7.446-41.562 4.156 2.227.837 4.454 1.847 6.739 3.03 47.983 25.02 80.723 75.147 80.723 132.893 0 24.559-5.9 47.732-16.399 68.164 8.879 1.674 17.527 4.473 25.626 8.369 16.167-23.924 25.596-52.725 25.596-83.719z" fill="#554e56" fill-rule="evenodd"/></g><g><path clip-rule="evenodd" d="m354.959 328.29c-35.257-6.609-73.984 4.964-95.734 39.709 29.154-26.838 72.423-29.262 106.233-13.073 24.584 11.774 44.165 41.498 49.631 71.742 5.698-6.839 11.048-14.025 16.023-21.557-1.591-13.39-6.074-25.309-12.639-35.554-9.226-14.429-22.589-25.569-37.889-32.899-8.098-3.895-16.746-6.694-25.625-8.368z" fill="#d83131" fill-rule="evenodd"/></g><g><path clip-rule="evenodd" d="m274.814 227.921c-.087 24.097-11.974 43.634-35.864 43.634-1.446 0-2.892-.087-4.309-.231 6.305 3.636 13.594 5.685 21.345 5.685 23.89 0 43.153-19.537 43.268-43.634.116-35.236-25.626-39.825-20.824-92.693.607-6.753 2.545-12.265 5.466-16.478 5.322-7.59 13.941-10.937 24.208-9.783-23.803-12.265-44.396-4.473-46.71 20.778-4.801 52.897 13.565 57.457 13.42 92.722z" fill="#ee6161" fill-rule="evenodd"/></g><path d="m416.407 75.323c-42.792-48.573-99.763-75.323-160.422-75.323-49.979 0-97.356 18.031-137.011 52.144-3.14 2.701-3.495 7.437-.794 10.577 2.701 3.138 7.435 3.495 10.577.794 36.894-31.739 80.889-48.515 127.228-48.515 116.575 0 211.416 108.112 211.416 241 0 47.565-12.155 91.953-33.104 129.349-4.743-14.028-12.805-26.667-23.851-37.194-5.706-5.438-12.182-10.228-19.187-14.283 10.124-16.795 16.903-35.056 20.177-54.398.691-4.084-2.059-7.955-6.143-8.646-4.081-.695-7.955 2.059-8.646 6.143-3.031 17.902-9.396 34.781-18.922 50.27-6.808-2.774-13.934-4.903-21.228-6.282-20.725-3.916-41.434-1.925-59.888 5.764-16.42 6.841-30.276 18.001-40.623 32.612-10.346-14.611-24.202-25.771-40.623-32.612-18.451-7.687-39.161-9.681-59.887-5.764-7.287 1.377-14.405 3.503-21.206 6.273-13.737-22.333-20.98-47.881-20.98-74.288 0-53.188 29.387-101.562 76.692-126.244 10.413-5.435 20.143-6.497 26.692-2.926 6.778 3.698 8.853 11.607 9.398 17.593 2.561 28.029-4.005 41.21-10.354 53.956-5.183 10.404-10.542 21.163-10.473 38.082.102 28.18 22.863 51.106 50.739 51.106 27.859 0 50.634-22.923 50.769-51.109.056-16.916-5.302-27.672-10.483-38.073-6.351-12.748-12.918-25.931-10.372-53.963.546-5.984 2.619-13.894 9.397-17.592 6.552-3.575 16.28-2.508 26.693 2.926 43.834 22.863 73.094 67.558 76.361 116.642.275 4.134 3.844 7.256 7.981 6.985 4.133-.275 7.261-3.849 6.985-7.981-1.81-27.189-10.741-53.56-25.828-76.262-14.732-22.167-34.983-40.384-58.562-52.683-15.142-7.9-29.638-8.894-40.815-2.794-9.82 5.357-15.911 15.797-17.152 29.398-2.931 32.273 4.939 48.072 11.884 62.012 4.805 9.645 8.954 17.975 8.91 31.324-.096 19.944-16.141 36.17-35.769 36.17-19.635 0-35.667-16.222-35.739-36.164-.055-13.361 4.095-21.691 8.898-31.336 6.944-13.939 14.814-29.739 11.866-62.009-1.24-13.599-7.332-24.039-17.152-29.396-11.178-6.097-25.674-5.106-40.815 2.795-52.277 27.277-84.753 80.747-84.753 139.543 0 28.712 7.757 56.503 22.462 80.906-7.021 4.061-13.51 8.858-19.227 14.307-11.039 10.52-19.097 23.149-23.842 37.166-20.935-37.392-33.082-81.77-33.082-129.323 0-63.162 21.302-122.885 59.98-168.164 2.69-3.149 2.318-7.884-.831-10.573-3.15-2.693-7.885-2.316-10.573.831-40.998 47.993-63.576 111.175-63.576 177.906 0 68.207 23.432 132.373 65.979 180.677 42.784 48.573 99.751 75.323 160.407 75.323 60.658 0 117.63-26.75 160.422-75.323 42.557-48.306 65.994-112.471 65.994-180.677s-23.437-132.371-65.994-180.677zm-160.422 421.677c-67.996 0-128.586-36.802-167.28-93.841 5.327-34.102 32.322-60.427 69.555-67.463 29.829-5.638 68.954 1.973 90.225 39.842v68.042c0 4.143 3.357 7.5 7.5 7.5s7.5-3.357 7.5-7.5v-68.042c21.271-37.868 60.4-45.477 90.226-39.842 37.243 7.038 64.242 33.376 69.558 67.492-38.7 57.023-99.29 93.812-167.284 93.812z"/></g></svg>