<svg id="Capa_1" enable-background="new 0 0 512 512" height="512" viewBox="0 0 512 512" width="512" xmlns="http://www.w3.org/2000/svg"><g><g><path clip-rule="evenodd" d="m25.513 210.688v106.526c0 104.372 28.069 102.614 28.069 187.285h99.491 205.856 106.138l11.818-121.833c3.494-36.142 9.602-67.975 9.602-104.287v-98.844c0-17.66-14.461-32.088-32.131-32.088-17.614 0-32.046 14.343-32.16 31.89v-19.021-23.414c0-21.997-18.04-39.997-40.086-39.997s-40.086 18-40.086 39.997v-25.37c0-23.414-19.177-42.576-42.643-42.576s-42.643 19.162-42.643 42.576v-24.945c0-24.378-20-44.306-44.404-44.306-24.432 0-44.404 19.928-44.404 44.306v-8.05c0-39.061-32.046-71.036-71.223-71.036-39.148 0-71.195 31.975-71.195 71.036v132.151z" fill="#fed2a4" fill-rule="evenodd"/></g><g><path clip-rule="evenodd" d="m446.941 382.666-11.79 121.833h29.915l11.818-121.833c3.494-36.142 9.602-67.975 9.602-104.287v-98.844c0-17.66-14.461-32.088-32.131-32.088-5.398 0-10.483 1.332-14.972 3.713 10.199 5.386 17.188 16.101 17.188 28.375v98.844c.001 36.312-6.107 68.145-9.63 104.287z" fill="#ffbd86" fill-rule="evenodd"/></g><g><path clip-rule="evenodd" d="m62.076 62.549v28.12c0 45.128 69.263 45.128 69.263 0v-28.12c0-4.479-4.176-9.524-8.239-11.424-18.438-8.674-34.319-8.674-52.785 0-4.035 1.899-8.239 6.945-8.239 11.424z" fill="#f8f7f7" fill-rule="evenodd"/></g><g><path clip-rule="evenodd" d="m116.85 82.817c0 27.014-24.773 37.843-44.688 32.57 19.205 17.802 59.177 9.553 59.177-24.718v-28.12c0-4.479-4.176-9.524-8.239-11.424-3.182-1.502-6.307-2.721-9.347-3.713 1.818 2.183 3.097 4.847 3.097 7.313z" fill="#e1e1e1" fill-rule="evenodd"/></g><g><path d="m199.976 90.203h24.717c4.143 0 7.5-3.357 7.5-7.5s-3.357-7.5-7.5-7.5h-24.717c-4.143 0-7.5 3.357-7.5 7.5s3.357 7.5 7.5 7.5z"/><path d="m288.699 116.906h21.364c4.143 0 7.5-3.357 7.5-7.5s-3.357-7.5-7.5-7.5h-21.364c-4.143 0-7.5 3.357-7.5 7.5s3.358 7.5 7.5 7.5z"/><path d="m373.048 144.855h18.126c4.143 0 7.5-3.357 7.5-7.5s-3.357-7.5-7.5-7.5h-18.126c-4.143 0-7.5 3.357-7.5 7.5s3.357 7.5 7.5 7.5z"/><path d="m124.573 171.133c1.078.539 2.223.795 3.351.795 2.75 0 5.398-1.519 6.713-4.146 1.854-3.705.354-8.21-3.351-10.063-21.32-10.668-47.809-10.668-69.129 0-3.704 1.854-5.204 6.358-3.351 10.063 1.854 3.704 6.358 5.204 10.063 3.351 17.18-8.595 38.524-8.595 55.704 0z"/><path d="m110.034 199.484c1.075.537 2.218.791 3.343.791 2.754 0 5.404-1.522 6.717-4.153 1.85-3.707.344-8.211-3.362-10.06-12.344-6.158-27.678-6.158-40.021 0-3.706 1.849-5.212 6.353-3.362 10.06 1.849 3.706 6.354 5.212 10.06 3.362 8.209-4.098 18.415-4.098 26.625 0z"/><path d="m98.48 328.232c-3.402 2.363-4.244 7.037-1.882 10.438 32.039 46.124 48.974 103.467 48.974 165.829 0 4.143 3.357 7.5 7.5 7.5s7.5-3.357 7.5-7.5c0-65.435-17.861-125.737-51.653-174.385-2.364-3.403-7.039-4.243-10.439-1.882z"/><path d="m413.52 328.232c-3.403-2.364-8.075-1.521-10.438 1.882-33.792 48.648-51.653 108.95-51.653 174.385 0 4.143 3.357 7.5 7.5 7.5s7.5-3.357 7.5-7.5c0-62.362 16.935-119.705 48.974-165.829 2.361-3.401 1.52-8.075-1.883-10.438z"/><path d="m456.203 195.369c4.143 0 7.5-3.357 7.5-7.5s-3.357-7.5-7.5-7.5h-3.693c-4.143 0-7.5 3.357-7.5 7.5s3.357 7.5 7.5 7.5z"/><path d="m67.979 121.715c7.645 6.643 17.848 10.3 28.727 10.3 20.937 0 42.132-14.202 42.132-41.346v-28.12c0-8.019-6.472-15.371-12.546-18.21-20.445-9.619-38.693-9.619-59.166-.002-.002.001-.004.002-.007.003-6.081 2.863-12.544 10.218-12.544 18.209v28.12c.001 12.693 4.635 23.428 13.404 31.046zm1.597-59.158c.05-1.073 1.97-3.718 3.928-4.644 16.493-7.747 29.936-7.747 46.42.006 1.96.916 3.872 3.561 3.915 4.63v28.12c0 18.199-13.627 26.346-27.132 26.346-13.504 0-27.131-8.146-27.131-26.346z"/><path d="m226.335 157.788c-9.095-2.038-19.936-2.04-29.001.002-4.041.91-6.579 4.923-5.669 8.964.785 3.486 3.88 5.854 7.31 5.854.546 0 1.1-.061 1.654-.186 6.796-1.528 15.598-1.53 22.421.002 4.051.909 8.054-1.635 8.961-5.676.906-4.041-1.635-8.053-5.676-8.96z"/><path d="m313.222 172.352c-8.691-2.069-19.073-2.071-27.765 0-4.029.96-6.519 5.004-5.559 9.033.959 4.029 4.996 6.515 9.033 5.559 6.324-1.506 14.495-1.506 20.815 0 .584.14 1.168.206 1.743.206 3.394 0 6.47-2.319 7.29-5.765.961-4.029-1.528-8.073-5.557-9.033z"/><path d="m364.777 212.363c1.177 3.973 5.352 6.236 9.32 5.062 4.552-1.348 10.414-1.347 14.938-.003.713.213 1.433.313 2.141.313 3.232 0 6.217-2.107 7.186-5.364 1.181-3.97-1.08-8.145-5.051-9.326-7.334-2.183-16.108-2.184-23.472-.003-3.971 1.176-6.238 5.349-5.062 9.321z"/><path d="m467.127 246.547c1.708-3.773.032-8.217-3.742-9.924-5.944-2.691-13.046-2.692-18.994-.001-3.774 1.707-5.449 6.15-3.743 9.925 1.708 3.774 6.148 5.449 9.925 3.743 1.982-.898 4.648-.897 6.631-.001 1.003.454 2.053.669 3.086.669 2.854.001 5.584-1.639 6.837-4.411z"/><path d="m472.07 432.319c-4.138-.412-7.789 2.618-8.189 6.74l-6.278 64.715c-.4 4.123 2.618 7.79 6.74 8.189.247.024.491.036.733.036 3.815 0 7.08-2.9 7.456-6.776l6.278-64.715c.401-4.122-2.618-7.789-6.74-8.189z"/><path d="m33.012 317.213v-166.28c0-4.143-3.357-7.5-7.5-7.5s-7.5 3.357-7.5 7.5v166.28c0 56.028 7.858 81.855 15.458 106.833 6.485 21.313 12.611 41.445 12.611 80.453 0 4.143 3.357 7.5 7.5 7.5s7.5-3.357 7.5-7.5c0-41.239-6.441-62.408-13.261-84.82-7.28-23.927-14.808-48.669-14.808-102.466z"/><path d="m454.356 139.947c-9.312 0-17.886 3.22-24.66 8.603v-11.648c0-26.19-21.347-47.497-47.586-47.497-12.958 0-24.722 5.195-33.311 13.609-4.06-23.57-24.674-41.559-49.417-41.559-14.15 0-26.95 5.883-36.075 15.33-4.604-23.894-25.71-42.004-50.973-42.004-16.471 0-31.173 7.695-40.688 19.675-10.215-31.561-39.948-54.456-74.939-54.456-43.392 0-78.695 35.231-78.695 78.536v37.616c0 4.143 3.357 7.5 7.5 7.5s7.5-3.357 7.5-7.5v-37.616c0-35.034 28.573-63.536 63.695-63.536 35.137 0 63.723 28.502 63.723 63.536v123.705c0 4.143 3.357 7.5 7.5 7.5s7.5-3.357 7.5-7.5v-115.654c0-20.295 16.556-36.806 36.904-36.806s36.904 16.511 36.904 36.806v24.945 115.653c0 4.143 3.357 7.5 7.5 7.5s7.5-3.357 7.5-7.5v-115.653c0-19.342 15.766-35.077 35.143-35.077s35.143 15.735 35.143 35.077v141.023c0 4.143 3.357 7.5 7.5 7.5s7.5-3.357 7.5-7.5v-115.653c0-17.919 14.618-32.497 32.586-32.497s32.586 14.578 32.586 32.497v139.067c0 4.143 3.357 7.5 7.5 7.5s7.5-3.357 7.5-7.5v-96.434c0-13.558 11.062-24.588 24.66-24.588 13.582 0 24.632 11.03 24.632 24.588v98.845c0 24.19-2.75 46.246-5.661 69.597-1.364 10.946-2.775 22.265-3.906 33.965l-2.188 22.507c-.4 4.123 2.616 7.79 6.739 8.19.247.024.491.036.734.036 3.815 0 7.079-2.899 7.456-6.775l2.188-22.511c1.112-11.498 2.51-22.712 3.862-33.557 2.97-23.826 5.775-46.33 5.775-71.452v-98.845c.001-21.829-17.777-39.588-39.631-39.588z"/></g></g></svg>