<svg id="Capa_1" enable-background="new 0 0 512 512" height="512" viewBox="0 0 512 512" width="512" xmlns="http://www.w3.org/2000/svg"><g><g><path clip-rule="evenodd" d="m67.639 103.198c-24.935 195.839 106.634 493.49 139.285 309.906l7.205-60.204c4.539-29.55 18.751-40.136 36.85-41.268 18.099 1.132 32.339 11.718 36.878 41.268l7.205 60.204c24.339 136.881 108.591-12.794 135.257-167.167 8.709-50.58 11.262-101.642 3.489-143.334-9.588-51.401-55.998-90.093-105.669-94.367h-18.155c-20.595 1.812-41.048 9.907-59.005 25.842-11.546-14.096-32.311-23.238-55.884-25.842h-28.396c-45.161 4.897-91.23 33.456-99.06 94.962z" fill="#f8f7f7" fill-rule="evenodd"/></g><g><path clip-rule="evenodd" d="m12.322 279.931v190.574c0 18.709 15.319 33.994 34.069 33.994h419.216c18.751 0 34.07-15.284 34.07-33.994v-190.574c0-18.681-15.319-33.994-34.07-33.994h-35.289c-26.665 154.373-110.916 304.048-135.256 167.167l-7.205-60.204c-4.539-29.55-18.779-40.136-36.878-41.268-18.099 1.132-32.311 11.718-36.85 41.268l-7.205 60.204c-25.219 141.778-109.414-3.453-134.973-167.166h-25.559c-18.751 0-34.07 15.312-34.07 33.993z" fill="#f47c7c" fill-rule="evenodd"/></g><g><path clip-rule="evenodd" d="m379.115 101.216c7.773 41.693 5.248 92.754-3.489 143.334-13.985 81.149-43.913 160.968-72.678 198.585 31.034 80.074 103.088-56.609 127.371-197.198 8.709-50.58 11.262-101.642 3.489-143.334-9.588-51.401-55.998-90.093-105.669-94.367h-18.155c-5.135.453-10.241 1.302-15.318 2.547 41.075 11.775 76.251 46.448 84.449 90.433z" fill="#e1e1e1" fill-rule="evenodd"/></g><g><path clip-rule="evenodd" d="m430.319 245.938c-.199 1.076-.369 2.123-.567 3.17.198-1.048.368-2.095.567-3.17zm17.446 33.144v190.574c0 18.709-15.318 33.994-34.041 33.994h-374.906c2.44.566 4.964.849 7.574.849h419.216c18.751 0 34.07-15.284 34.07-33.994v-190.574c0-18.681-15.319-33.994-34.07-33.994h-35.289c-.199 1.076-.369 2.123-.567 3.17 10.694 5.746 18.013 17.068 18.013 29.975z" fill="#ee6161" fill-rule="evenodd"/></g><path d="m465.608 238.437h-26.439c8.175-51.736 9.026-99.588 2.013-137.209-7.941-42.601-40.779-79.634-83.658-94.346-37.579-12.894-75.777-6.696-105.918 16.911-23.443-22.058-68.403-30.081-108.666-18.526-46.423 13.322-76.581 48.671-82.744 97.008-.691 5.575-1.264 11.043-1.705 16.255-.348 4.128 2.716 7.757 6.843 8.105 4.138.358 7.756-2.716 8.105-6.843.423-5.017.977-10.29 1.64-15.646 7.346-57.619 48.262-77.65 71.998-84.461 37.364-10.722 80.355-2.365 97.99 19.02 1.236 1.711 2.408 3.375 3.544 4.988 10.906 15.495 19.519 27.734 52.71 38.317.758.242 1.526.356 2.28.356 3.177 0 6.127-2.035 7.144-5.224 1.258-3.947-.921-8.166-4.868-9.425-28.154-8.977-34.887-18.293-44.759-32.317 26.045-20.227 59.034-25.481 91.535-14.33 37.852 12.987 66.812 45.53 73.78 82.906 21.956 117.786-39.721 308.974-86.648 348.912-6.478 5.514-11.949 7.524-16.257 5.977-4.076-1.464-14.273-8.962-21.045-46.867l-7.18-59.991c-.01-.083-.021-.165-.034-.248-4.618-30.065-19.362-46.085-43.823-47.615-.313-.02-.625-.02-.937 0-24.442 1.528-39.177 17.549-43.795 47.615-.013.083-.024.165-.034.248l-7.178 59.993c-5.971 33.445-15.717 52.041-26.701 51.065-14.72-1.325-40.298-33.085-64.256-101.056-23.102-65.544-36.757-143.42-36.526-208.318.015-4.142-3.331-7.513-7.474-7.527-4.147.005-7.513 3.331-7.527 7.474-.096 27.048 2.038 55.743 6.168 84.799h-16.794c-22.922 0-41.57 18.614-41.57 41.494v190.574c0 22.88 18.648 41.494 41.57 41.494h192.219c4.142 0 7.501-3.358 7.501-7.501s-3.358-7.501-7.501-7.501h-192.219c-14.65 0-26.569-11.885-26.569-26.493v-190.573c0-14.608 11.919-26.493 26.569-26.493h19.094c6.37 38.595 16.181 77.44 28.912 113.558 11.391 32.318 41.703 107.829 77.059 111.009.823.074 1.634.111 2.436.111 19.309-.001 32.899-21.41 40.416-63.7.025-.14.046-.28.063-.421l7.19-60.077c4.548-29.368 18.837-34.003 29.418-34.768 10.593.765 24.898 5.401 29.445 34.768l7.19 60.078c.017.141.038.282.062.422 6.073 34.151 16.141 53.309 30.781 58.568 6.692 2.405 17.513 2.851 31.051-8.671 25.754-21.919 54.075-80.581 73.909-153.095 5.331-19.489 9.735-38.848 13.193-57.781h28.997c14.65 0 26.569 11.885 26.569 26.493v190.574c0 14.608-11.919 26.493-26.569 26.493h-192.19c-4.142 0-7.501 3.358-7.501 7.501s3.358 7.501 7.501 7.501h192.19c22.922 0 41.57-18.614 41.57-41.494v-190.576c0-22.88-18.648-41.494-41.57-41.494z"/></g></svg>