<svg id="Capa_1" enable-background="new 0 0 512 512" height="512" viewBox="0 0 512 512" width="512" xmlns="http://www.w3.org/2000/svg"><g><g><path d="m381.076 106.901-125.076-33.144h-108.367c-19.284 41.798-43.861 80.904-73.109 116.351v144.822h362.651v-145.188c-21.253-25.804-40.03-53.543-56.099-82.841z" fill="#64caff"/><path d="m381.076 106.901-26.272-6.962c17.849 33.336 39.086 64.969 62.352 93.217v141.775h20.018v-145.189c-21.252-25.804-40.028-53.543-56.098-82.841z" fill="#00b8ff"/><path d="m342.609 18.828c-2.255-6.765-8.585-11.328-15.716-11.328h-28.893c-5.539 0-10.712 2.768-13.784 7.377l-4.119 6.179c-4.379 6.568-12.783 9.134-20.084 6.133l-35.783-14.712c-7.994-3.286-16.554-4.977-25.197-4.977h-13.925c-7.131 0-13.461 4.563-15.716 11.328-6.251 18.753-13.525 37.085-21.758 54.929l.004.009 19.471 19.157c12.236 12.039 32.11 11.194 43.281-1.839 13.792-16.091 39.525-12.923 49.003 6.032l9.9 19.799c9.358 18.716 34.849 21.675 48.245 5.599 6.643-7.971 18.984-7.655 25.21.646 6.368 8.49 19.069 8.589 25.569.2l12.753-16.462.008.001c-15.379-28.034-28.277-57.496-38.469-88.071z" fill="#f3f0f1"/><path d="m342.609 18.828c-2.255-6.765-8.585-11.328-15.716-11.328h-141.786c-7.131 0-13.461 4.563-15.716 11.328-6.251 18.753-13.525 37.085-21.758 54.929l.004.009 19.471 19.157c12.236 12.039 32.11 11.194 43.281-1.839 13.792-16.091 39.525-12.923 49.003 6.032l9.9 19.799c9.358 18.716 34.849 21.675 48.245 5.599 6.643-7.971 18.984-7.655 25.21.646 6.368 8.49 19.069 8.589 25.569.2l12.753-16.462.008.001c-15.378-28.034-28.276-57.496-38.468-88.071z" fill="#dcf3fe"/><path d="m319.609 18.828c11.97 35.909 28.654 71.411 48.562 104.699.046-.058.099-.106.144-.165l12.753-16.462.008.001c-15.377-28.035-28.275-57.498-38.467-88.073-2.255-6.765-8.585-11.328-15.716-11.328h-23c7.131 0 13.461 4.563 15.716 11.328z" fill="#c0defa"/><g><path d="m504.5 413.383v-157.383c0-36.598-29.669-66.267-66.267-66.267s-66.266 29.669-66.266 66.267c0 1.529.07 3.04.172 4.543-4.913-2.883-10.631-4.543-16.739-4.543-18.299 0-33.133 14.834-33.133 33.133 0 3.39.512 6.661 1.458 9.741-10.07-6.175-21.913-9.741-34.591-9.741-19.831 0-37.615 8.722-49.759 22.527-1.221-30.945-26.68-55.66-57.925-55.66-8.921 0-17.368 2.019-24.917 5.618-1.406-39.936-34.204-71.885-74.483-71.885-41.173 0-74.55 33.377-74.55 74.55v149.1z" fill="#dcf3fe"/><path d="m438.233 189.733c-3.925 0-7.763.361-11.5 1.015 31.114 5.448 54.767 32.579 54.767 65.252v157.383h23v-157.383c0-36.598-29.669-66.267-66.267-66.267z" fill="#c0defa"/></g><path d="m481.588 389.924c-152.465-24.403-307.899-23.927-460.245 1.463-7.988 1.332-13.843 8.243-13.843 16.342v80.205c0 9.15 7.417 16.567 16.567 16.567h463.867c9.15 0 16.567-7.417 16.567-16.567v-75.097z" fill="#64caff"/><path d="m490.657 391.388c-3.051-.509-6.103-1-9.157-1.485v98.03c0 9.149-7.417 16.567-16.567 16.567h23c9.149 0 16.567-7.417 16.567-16.567v-80.205c0-8.098-5.855-15.009-13.843-16.34z" fill="#00b8ff"/></g><g><path d="m440.786 182.298c-40.24-49.505-70.874-105.28-91.061-165.842-3.282-9.843-12.457-16.456-22.832-16.456h-141.786c-10.375 0-19.551 6.613-22.832 16.456-11.794 35.381-27.399 69.596-46.383 101.694-2.109 3.565-.928 8.165 2.637 10.273 3.566 2.11 8.167.929 10.273-2.637 7.562-12.785 14.595-25.9 21.089-39.281l11.957 11.764c7.309 7.191 17.386 11.079 27.619 10.629 10.242-.436 19.943-5.149 26.615-12.934 4.909-5.729 12.017-8.479 19.509-7.563 7.488.922 13.718 5.321 17.092 12.069l9.9 19.799c5.53 11.062 16.166 18.518 28.451 19.942 1.424.166 2.842.247 4.253.247 10.77-.001 21.01-4.743 28.01-13.143 1.688-2.025 4.138-3.157 6.808-3.083 2.638.067 5.059 1.317 6.642 3.428 4.45 5.935 11.257 9.371 18.675 9.43h.191c7.345 0 14.126-3.323 18.631-9.137l5.811-7.5c12.709 22.053 26.987 43.222 42.791 63.413-31.279 6.667-55.29 33.202-58.103 65.722-22.035-5.726-46.053 10.232-49.404 32.73-18.409-53.934-18.705-92.195-18.706-92.593-.004-4.139-3.36-7.493-7.5-7.493-4.143 0-7.5 3.357-7.5 7.5 0 1.673.222 38.828 17.905 92.644-3.432-.487-6.908-.744-10.405-.744-16.192 0-31.804 5.34-44.522 14.973-6.725-24.742-27.453-43.415-53.107-47.333-5.589-.85-11.347-1.009-16.962-.414 31.402-56.56 38.852-105.504 39.179-107.741.6-4.097-2.235-7.901-6.331-8.503-4.096-.598-7.905 2.232-8.51 6.328-.077.523-7.479 48.766-37.81 103.261-3.867-13.911-11.369-26.618-21.985-36.894-13.43-12.998-30.582-20.893-48.972-22.684 6.777-8.717 13.316-17.663 19.52-26.733 2.339-3.419 1.463-8.086-1.956-10.425-3.418-2.338-8.085-1.463-10.425 1.956-8.343 12.198-17.303 24.165-26.65 35.624-39.84 5.59-70.602 39.88-70.602 81.236v223.65c0 13.271 10.796 24.067 24.066 24.067h21.574c4.143 0 7.5-3.357 7.5-7.5s-3.357-7.5-7.5-7.5h-21.574c-4.999 0-9.066-4.067-9.066-9.066v-80.205c0-4.45 3.187-8.211 7.577-8.942 154.888-25.816 311.958-25.815 466.848 0 4.39.732 7.575 4.492 7.575 8.942v80.205c0 4.999-4.067 9.066-9.066 9.066h-407.294c-4.143 0-7.5 3.357-7.5 7.5s3.357 7.5 7.5 7.5h407.294c13.27 0 24.066-10.796 24.066-24.066v-231.934c0-39.819-31.719-72.35-71.214-73.702zm-78.399-63.53c-1.639 2.115-4.106 3.324-6.778 3.324-.022 0-.046 0-.069 0-2.697-.021-5.173-1.271-6.792-3.43-4.352-5.803-11.006-9.237-18.257-9.423-7.272-.175-14.073 2.903-18.716 8.476-4.735 5.681-11.664 8.449-19.01 7.598-7.347-.853-13.457-5.136-16.765-11.751l-9.9-19.8c-5.577-11.154-16.297-18.724-28.675-20.248-12.376-1.518-24.614 3.221-32.73 12.689-4.035 4.708-9.669 7.445-15.864 7.709-6.189.266-12.042-1.987-16.462-6.336l-15.743-15.489c7.475-16.624 14.125-33.619 19.881-50.888 1.236-3.709 4.692-6.2 8.602-6.2h141.785c3.909 0 7.365 2.491 8.602 6.2 9.831 29.492 22.072 57.879 36.627 85.003zm129.503 265.222c-156.527-26.089-315.256-26.089-471.779-.001-1.789.298-3.491.807-5.11 1.461v-96.318c0-14.134 11.499-25.633 25.633-25.633 11.921 0 21.967 8.18 24.821 19.221-13.822 3.679-24.037 16.298-24.037 31.263 0 4.143 3.357 7.5 7.5 7.5s7.5-3.357 7.5-7.5c0-9.567 7.783-17.351 17.35-17.351s17.351 7.783 17.351 17.351c0 4.143 3.357 7.5 7.5 7.5s7.5-3.357 7.5-7.5c0-15.459-10.903-28.413-25.421-31.595-3.225-19.205-19.958-33.888-40.065-33.888-9.549 0-18.332 3.319-25.275 8.853 3.479-33.727 32.06-60.119 66.692-60.119 34.755 0 63.197 26.056 66.659 60.107-11.301 6.538-20.653 16.4-26.436 28.573-1.777 3.741-.186 8.216 3.556 9.993 3.74 1.775 8.215.186 9.993-3.556 7.274-15.311 21.863-25.887 38.363-28.317 29.942-4.887 58.307 20.19 57.749 49.95 0 4.915-.703 9.77-2.09 14.429-1.182 3.971 1.079 8.146 5.049 9.328.714.212 1.435.314 2.143.314 3.232 0 6.217-2.106 7.186-5.362 1.746-5.869 2.65-11.97 2.703-18.143 11.053-11.415 26.276-17.916 42.209-17.916 10.007 0 19.8 2.544 28.487 7.367 3.323 8.417 9.399 15.662 17.451 20.322 1.184.685 2.475 1.01 3.75 1.01 2.589 0 5.108-1.342 6.498-3.744 2.075-3.585.851-8.174-2.734-10.248-5.887-3.408-10.11-8.997-11.885-15.395-6.55-21.275 18.367-40.627 37.359-29.087 7.741 4.416 12.975 12.744 12.975 22.275 0 4.143 3.357 7.5 7.5 7.5s7.5-3.357 7.5-7.5c0-13.402-6.525-25.305-16.562-32.71-.001-.14-.004-.285-.004-.422 0-32.404 26.362-58.767 58.767-58.767s58.764 26.361 58.764 58.765v18.201c-6.998-5.705-15.921-9.134-25.633-9.134-20.113 0-36.851 14.693-40.067 33.907-10.629 2.351-19.622 9.981-23.456 20.464-1.423 3.891.578 8.197 4.468 9.62 3.895 1.422 8.197-.577 9.62-4.468 2.491-6.813 9.042-11.39 16.301-11.39 9.566 0 17.35 7.783 17.35 17.35 0 4.143 3.357 7.5 7.5 7.5s7.5-3.357 7.5-7.5c0-14.965-10.215-27.583-24.037-31.262 2.854-11.042 12.9-19.221 24.822-19.221 14.134 0 25.633 11.499 25.633 25.634v79.751c-1.62-.656-3.322-1.164-5.111-1.462z"/><path d="m123.467 429.167c4.143 0 7.5-3.357 7.5-7.5s-3.357-7.5-7.5-7.5h-8.283c-4.143 0-7.5 3.357-7.5 7.5s3.357 7.5 7.5 7.5z"/><path d="m81.267 454.8c0-4.143-3.357-7.5-7.5-7.5h-8.283c-4.143 0-7.5 3.357-7.5 7.5s3.357 7.5 7.5 7.5h8.283c4.142 0 7.5-3.358 7.5-7.5z"/><path d="m429.95 462.3c4.143 0 7.5-3.357 7.5-7.5s-3.357-7.5-7.5-7.5h-8.283c-4.143 0-7.5 3.357-7.5 7.5s3.357 7.5 7.5 7.5z"/><path d="m276.708 445.733c4.143 0 7.5-3.357 7.5-7.5s-3.357-7.5-7.5-7.5h-8.283c-4.143 0-7.5 3.357-7.5 7.5s3.357 7.5 7.5 7.5z"/></g></g></svg>