<svg id="Capa_1" enable-background="new 0 0 512.001 512.001" height="512" viewBox="0 0 512.001 512.001" width="512" xmlns="http://www.w3.org/2000/svg"><g><g><path d="m490.657 391.388c-155.367-25.894-313.947-25.894-469.314 0-7.988 1.332-13.843 8.243-13.843 16.341v80.205c0 9.15 7.417 16.567 16.567 16.567h463.867c9.15 0 16.567-7.417 16.567-16.567v-80.205c-.001-8.098-5.856-15.009-13.844-16.341z" fill="#bbf49b"/><path d="m490.657 391.388c-6.619-1.103-13.245-2.142-19.875-3.151 6.342 2.391 10.718 8.494 10.718 15.492v84.205c0 9.15-7.417 16.567-16.567 16.567h23c9.15 0 16.567-7.417 16.567-16.567v-80.205c0-8.098-5.855-15.009-13.843-16.341z" fill="#9be69d"/><path d="m371.967 454.801h69.798c16.031 0 29.487-12.753 29.6-28.783.098-13.868-9.545-25.493-22.491-28.459-.582-.133-1.121-.415-1.543-.837-.541-.541-.847-1.262-.911-2.025-1.076-12.731-11.745-22.729-24.754-22.729-1.048 0-2.081.065-3.096.191-2.771.345-5.492-.732-7.346-2.82-7.585-8.548-18.648-13.938-30.975-13.938-.69 0-1.377.017-2.059.05z" fill="#6fd7a3"/><path d="m448.874 397.558c-.582-.133-1.121-.415-1.543-.837-.541-.541-.847-1.262-.911-2.025-1.077-12.731-11.745-22.729-24.754-22.729-1.048 0-2.082.065-3.096.191-2.771.345-5.492-.731-7.346-2.82-7.586-8.548-18.648-13.938-30.975-13.938-.691 0-1.377.017-2.059.05l-.354 5.644c3.76 2.212 7.143 4.999 10.022 8.244 1.854 2.089 4.575 3.165 7.346 2.82 1.014-.126 2.047-.191 3.096-.191 13.009 0 23.678 9.998 24.754 22.729.065.762.371 1.484.912 2.025.422.422.96.704 1.543.837 12.946 2.966 22.588 14.591 22.491 28.46-.113 16.03-13.569 28.783-29.6 28.783h23.365c16.031 0 29.487-12.752 29.6-28.783.097-13.868-9.545-25.493-22.491-28.46z" fill="#3ec3a4"/><path d="m393.139 435.181-16.902-90.145c-2.564-13.673-13.396-24.289-27.119-26.576-1.182-.197-2.087-1.159-2.213-2.35l-7.121-67.65c-.592-5.622-4.01-10.555-9.067-13.083l-21.997-10.985c-2.1-1.049-3.633-2.966-4.194-5.245l-11.733-47.675c-2.322-9.434-8.666-17.373-17.356-21.718l-30.644-15.322c-14.149-7.074-30.361-8.854-45.708-5.018l-9.457 2.364-8.882-22.36c-4.643-11.69-15.506-19.743-28.042-20.788l-52.363-4.363c-15.517-1.293-29.84 8.393-34.42 23.275l-2.352 7.644-46.217 20.483c-5.991 2.655-9.854 8.593-9.854 15.146v279.138c0 4.575 3.709 8.283 8.283 8.283h24.85c0 9.149 7.417 16.567 16.567 16.567h319.656c10.375-.002 18.197-9.427 16.285-19.622z" fill="#b4c9d9"/><path d="m214.583 24.067h.074c2.6.004 5.014-1.258 6.577-3.336 6.045-8.034 15.655-13.231 26.483-13.231 14.402 0 26.658 9.189 31.225 22.024.597 1.677 2.143 2.826 3.923 2.826h1.631c11.229 0 20.792 8.732 21.191 19.953.419 11.781-9.007 21.464-20.695 21.464h-69.849c-13.932 0-25.669-11.401-25.405-25.331.256-13.502 11.281-24.369 24.845-24.369z" fill="#f3f0f1"/><path d="m463.083 57.201h-.073c-2.6.004-5.014-1.258-6.577-3.335-6.045-8.034-15.655-13.231-26.483-13.231-14.402 0-26.658 9.189-31.225 22.024-.597 1.677-2.143 2.826-3.923 2.826h-1.631c-11.229 0-20.792 8.732-21.191 19.953-.419 11.781 9.007 21.463 20.695 21.463h69.849c13.932 0 25.669-11.401 25.405-25.331-.256-13.502-11.282-24.369-24.846-24.369z" fill="#f3f0f1"/><path d="m268.425 429.951v-75.794l-25.37-13.431-16.294-35.025-61.878 8.283-6.057 24.23c-1.457 5.826-4.469 11.146-8.715 15.393l-13.508 13.508c-3.107 3.107-4.852 7.321-4.852 11.714v31.135l5.731 1.146c6.561 1.312 11.688 6.442 12.998 13.004l6.122 30.686h107.683z" fill="#4e6c99"/><path d="m305.686 52.304c-.399-11.222-9.962-19.953-21.191-19.953h-1.631c-1.78 0-3.326-1.149-3.923-2.826-4.567-12.835-16.823-22.024-31.225-22.024-4.056 0-7.942.73-11.533 2.064 9.188 3.393 16.471 10.721 19.758 19.96.597 1.677 2.143 2.826 3.923 2.826h1.631c11.229 0 20.792 8.732 21.191 19.953.419 11.781-9.007 21.463-20.695 21.463h23c11.688 0 21.114-9.682 20.695-21.463z" fill="#ede1e5"/><path d="m463.084 57.201h-.073c-2.6.004-5.014-1.258-6.577-3.335-6.045-8.034-15.655-13.231-26.483-13.231-4.035 0-7.891.744-11.467 2.064 5.995 2.228 11.17 6.143 14.95 11.167 1.563 2.077 3.977 3.339 6.577 3.335h.073c13.564 0 24.59 10.867 24.846 24.37.264 13.929-11.473 25.33-25.405 25.33h23c13.932 0 25.669-11.401 25.405-25.33-.257-13.503-11.283-24.37-24.846-24.37z" fill="#ede1e5"/><path d="m267.52 333.431-1.349-.337c-6.211-1.553-10.971-6.545-12.227-12.823l-3.851-19.258c-1.415-7.074-7.245-12.42-14.416-13.216l-48.12-5.347c-8.241-.916-15.89 4.403-17.902 12.447l-4.772 19.087 47.829 7.329c3.681.564 6.533 3.515 6.971 7.214l1.081 9.128c1.312 11.077 8.109 20.751 18.086 25.739l2.906 1.453c9.003 4.501 15.471 12.851 17.58 22.693l9.088 42.412 2.502-15.011c1.009-6.053 5.281-11.052 11.102-12.993l15.387-5.129-5.133-35.928c-1.903-13.338-11.693-24.193-24.762-27.46z" fill="#99b5c9"/><g><path d="m393.426 438.021c-.009-.624-.054-1.253-.136-1.887.082.634.127 1.263.136 1.887z" fill="#a1bdd1"/></g><g><path d="m393.139 435.181-16.902-90.145c-2.564-13.673-13.396-24.289-27.119-26.576-1.182-.197-2.087-1.159-2.213-2.35l-7.121-67.65c-.592-5.622-4.01-10.555-9.067-13.083l-21.997-10.985c-2.1-1.049-3.633-2.966-4.194-5.245l-11.733-47.675c-2.322-9.434-8.666-17.373-17.356-21.718l-30.645-15.322c-12.772-6.386-27.224-8.441-41.204-5.962 6.231 1.105 12.32 3.089 18.066 5.962l30.645 15.322c8.689 4.345 15.034 12.284 17.356 21.718l10.848 44.083c1.122 4.558 4.189 8.394 8.388 10.491l18.687 9.332c5.057 2.528 8.475 7.461 9.067 13.083l7.121 67.65c.125 1.192 1.031 2.153 2.213 2.35 13.723 2.287 24.555 12.903 27.119 26.576l16.902 90.145c1.912 10.195-5.91 19.62-16.283 19.62h23.138c10.374-.001 18.196-9.426 16.284-19.621z" fill="#a1bdd1"/></g></g><g><path d="m491.89 383.99c-14.72-2.453-29.672-4.695-44.504-6.692-5.96-7.797-15.353-12.831-25.721-12.831-1.339 0-2.691.084-4.024.249-.396.052-.696-.232-.808-.355-8.347-9.408-19.975-15.191-32.391-16.263l-.833-4.444c-2.9-15.469-14.582-27.841-29.609-31.803l-6.755-64.177c-.864-8.209-5.788-15.314-13.172-19.006l-22.211-11.105-11.784-47.884c-2.852-11.589-10.609-21.297-21.284-26.634l-30.645-15.322c-15.74-7.869-33.811-9.854-50.881-5.586l-3.09.773-6.459-16.261c-5.733-14.435-18.91-24.203-34.389-25.493l-52.362-4.363c-18.895-1.57-36.637 10.431-42.211 28.542l-1.347 4.379-43.094 19.096c-8.697 3.854-14.316 12.491-14.316 22.002v42.445c0 4.143 3.358 7.5 7.5 7.5s7.5-3.357 7.5-7.5v-42.445c0-3.583 2.117-6.837 5.393-8.289l31.17-13.814-18.098 58.819c-1.218 3.959 1.004 8.156 4.963 9.374.735.227 1.478.334 2.208.334 3.206 0 6.174-2.072 7.166-5.296l25.29-82.194c3.515-11.428 14.702-18.994 26.628-18.007l52.362 4.363c9.765.814 18.078 6.977 21.694 16.083l5.718 14.395-8.277 2.069c-12.621 3.155-23.041 12.25-27.872 24.329l-7.129 17.822c-1.078 2.695-3.403 4.725-6.219 5.429l-24.916 6.229c-4.018 1.005-6.462 5.077-5.457 9.096 1.004 4.017 5.076 6.458 9.095 5.457l24.917-6.229c7.475-1.87 13.646-7.257 16.507-14.41l7.129-17.822c3.048-7.619 9.621-13.356 17.584-15.347l26.049-6.513c13.599-3.402 27.995-1.82 40.534 4.449l30.644 15.322c6.734 3.367 11.628 9.491 13.428 16.802l20.803 84.53c.841 3.421 3.905 5.71 7.276 5.71.594 0 1.196-.071 1.798-.22 4.022-.989 6.48-5.053 5.49-9.074l-4.312-17.523 10.797 5.398c2.782 1.392 4.638 4.067 4.963 7.16l6.301 59.863-15.125-2.521c-4.1-.678-7.951 2.08-8.631 6.165-.682 4.086 2.079 7.95 6.165 8.632l26.849 4.475c10.574 1.762 19.006 10.024 20.981 20.561l16.901 90.146c.499 2.659-.206 5.379-1.935 7.461-1.728 2.082-4.271 3.276-6.977 3.276h-103.718l5.187-31.128c.554-3.321 2.883-6.046 6.077-7.111l40.237-13.412c3.929-1.31 6.053-5.558 4.743-9.487-1.311-3.93-5.557-6.052-9.487-4.743l-16.324 5.441-3.862-27.031c-2.348-16.431-14.269-29.648-30.372-33.675l-1.347-.337c-3.382-.845-6.009-3.6-6.692-7.018l-3.852-19.258c-2.064-10.321-10.48-18.037-20.941-19.199l-48.12-5.347c-11.918-1.317-23.098 6.449-26.006 18.082l-10.83 43.316c-1.127 4.507-3.458 8.625-6.743 11.909l-13.509 13.509c-4.545 4.547-7.048 10.59-7.048 17.018v21.987l-15.879-3.176c-4.065-.817-8.012 1.822-8.825 5.884-.812 4.062 1.822 8.013 5.884 8.825l30.582 6.116c3.602.72 6.394 3.514 7.113 7.117l4.333 21.718h-90.256c-5 0-9.067-4.067-9.067-9.066v-60.861l11.288-3.763c.01-.003.021-.007.031-.01l24.969-8.323c3.93-1.31 6.053-5.558 4.744-9.487-1.311-3.93-5.558-6.052-9.487-4.743l-14.978 4.99v-67.829c0-9.076 2.145-18.163 6.204-26.28l1.953-3.907 32.357 17.649c2.219 1.21 3.843 3.31 4.455 5.762l6.521 26.086c.852 3.407 3.91 5.683 7.27 5.683.602 0 1.214-.073 1.825-.225 4.019-1.005 6.462-5.077 5.457-9.096l-6.521-26.086c-1.626-6.505-5.936-12.078-11.824-15.291l-32.827-17.906 9.188-18.376c1.853-3.705.351-8.21-3.354-10.063-3.706-1.854-8.21-.351-10.062 3.354l-17.854 35.708c-5.095 10.189-7.788 21.597-7.788 32.989v72.829l-11.438 3.813c-3.063 1.021-5.128 3.887-5.128 7.115v58.767h-17.35c-.432 0-.783-.352-.783-.783v-201.586c0-4.143-3.358-7.5-7.5-7.5s-7.5 3.357-7.5 7.5v259.568c0 13.271 10.796 24.066 24.067 24.066h21.572c4.142 0 7.5-3.357 7.5-7.5s-3.358-7.5-7.5-7.5h-21.573c-5 0-9.067-4.067-9.067-9.066v-42.24c.261.013.519.04.783.04h18.553c3.16 9.608 12.212 16.566 22.864 16.566h384.564c20.316 0 36.96-16.253 37.1-36.229.093-13.215-7.112-25.27-18.106-31.749 9.588 1.398 19.177 2.882 28.667 4.464 4.39.73 7.575 4.492 7.575 8.942v80.205c0 4.999-4.067 9.066-9.066 9.066h-407.294c-4.142 0-7.5 3.357-7.5 7.5s3.358 7.5 7.5 7.5h407.294c13.271 0 24.066-10.796 24.066-24.066v-80.205c0-11.812-8.458-21.797-20.11-23.738zm-305.162-94.086 48.12 5.347c3.941.439 7.112 3.345 7.89 7.232l3.852 19.258c1.815 9.072 8.787 16.385 17.764 18.629l1.347.337c10.158 2.539 17.679 10.878 19.159 21.243l4.247 29.731-9.451 3.15c-3.786 1.263-7.109 3.408-9.763 6.177l-3.223-15.04c-2.601-12.136-10.458-22.279-21.561-27.831l-2.904-1.451c-7.744-3.872-12.974-11.316-13.992-19.913l-1.081-9.128c-.831-7.022-6.294-12.675-13.283-13.744l-39.693-6.082 2.776-11.102c1.095-4.383 5.306-7.305 9.796-6.813zm-28.895 132.743c-1.888-9.464-9.168-16.814-18.583-18.819v-24.998c0-2.422.943-4.699 2.655-6.411l13.509-13.509c5.206-5.207 8.902-11.734 10.688-18.877l4.4-17.601 41.076 6.295c.346.053.617.333.658.681l1.081 9.128c1.613 13.627 9.904 25.427 22.181 31.566l2.904 1.451c7.003 3.502 11.961 9.901 13.602 17.557l8.789 41.018-2.862 17.173h-95.178zm283.932 24.654h-42.617c1.723-4.227 2.227-8.896 1.363-13.501l-13.151-70.141c6.999 1.506 13.419 5.209 18.254 10.658 3.51 3.955 8.699 5.936 13.88 5.285.718-.089 1.448-.134 2.172-.134 8.938 0 16.529 6.967 17.281 15.86.216 2.547 1.31 4.925 3.081 6.697 1.407 1.407 3.195 2.391 5.172 2.844 9.727 2.229 16.735 11.101 16.665 21.097-.083 11.764-9.997 21.335-22.1 21.335z"/><path d="m375.321 237.788c7.015-3.508 15.458-2.14 21.006 3.408l3.469 3.47c1.406 1.406 3.314 2.197 5.303 2.197h.001c1.989 0 3.896-.79 5.304-2.196l3.47-3.47c5.547-5.547 13.988-6.917 21.006-3.409 3.707 1.855 8.211.351 10.063-3.354 1.853-3.705.352-8.21-3.354-10.063-12.052-6.027-26.403-4.164-36.488 4.516-10.083-8.678-24.435-10.541-36.487-4.516-3.705 1.853-5.206 6.357-3.354 10.063 1.852 3.705 6.355 5.206 10.061 3.354z"/><path d="m454.8 162.525c-14.037-13.951-35.338-17.383-53.054-8.526-3.705 1.852-5.207 6.357-3.354 10.062 1.852 3.707 6.358 5.208 10.061 3.354 11.975-5.984 26.375-3.647 35.839 5.816l5.204 5.204c1.465 1.464 3.385 2.196 5.304 2.196s3.839-.732 5.304-2.196l5.204-5.204c9.464-9.466 23.869-11.802 35.838-5.816 3.706 1.855 8.211.351 10.063-3.354s.351-8.21-3.354-10.063c-17.718-8.858-39.017-5.425-53.055 8.527z"/><path d="m215.143 81.267h69.848c7.726 0 14.935-3.062 20.3-8.621 5.363-5.558 8.166-12.877 7.891-20.609-.525-14.769-13.023-26.825-28.01-27.179-6.304-14.959-21.074-24.857-37.455-24.857-12.882 0-24.72 5.913-32.476 16.222-.163.216-.376.345-.583.345-.001 0-.001 0-.001 0h-.074c-17.503 0-32.012 14.233-32.344 31.727-.163 8.592 3.122 16.764 9.251 23.01 6.213 6.331 14.834 9.962 23.653 9.962zm-.56-49.7h.085c4.884 0 9.577-2.363 12.559-6.326 4.896-6.508 12.365-10.24 20.49-10.24 10.824 0 20.532 6.848 24.158 17.039 1.663 4.672 6.079 7.811 10.989 7.811h1.631c7.303 0 13.446 5.706 13.696 12.72.129 3.627-1.183 7.058-3.694 9.659-2.513 2.604-5.889 4.038-9.506 4.038h-69.848c-4.817 0-9.536-1.993-12.946-5.469-3.285-3.348-5.047-7.688-4.961-12.22.178-9.38 7.96-17.012 17.347-17.012z"/><path d="m392.675 114.401h69.849c8.819 0 17.44-3.632 23.653-9.963 6.129-6.247 9.414-14.419 9.251-23.011-.332-17.494-14.842-31.727-32.345-31.727-.004 0-.081 0-.085 0-.196 0-.409-.129-.572-.345-7.757-10.31-19.594-16.223-32.476-16.223-16.382 0-31.152 9.897-37.455 24.858-14.986.354-27.485 12.41-28.01 27.179-.275 7.732 2.527 15.052 7.891 20.609 5.365 5.562 12.574 8.623 20.299 8.623zm.497-41.417h1.63c4.91 0 9.327-3.14 10.99-7.813 3.626-10.19 13.334-17.038 24.158-17.038 8.125 0 15.593 3.732 20.489 10.24 2.981 3.963 7.675 6.327 12.548 6.327h.022.073c9.388 0 17.169 7.631 17.347 17.012.087 4.532-1.675 8.872-4.96 12.22-3.41 3.476-8.129 5.469-12.946 5.469h-69.849c-3.617 0-6.992-1.434-9.505-4.037-2.512-2.603-3.823-6.033-3.694-9.661.25-7.013 6.394-12.719 13.697-12.719z"/></g></g></svg>