<svg id="Capa_1" enable-background="new 0 0 512 512" height="512" viewBox="0 0 512 512" width="512" xmlns="http://www.w3.org/2000/svg"><g><g><path d="m40.633 196.468h177.321v149.866h-177.321z" fill="#ffc144"/><path d="m166.733 196.468h51.221v149.866h-51.221z" fill="#ffa844"/><path d="m166.733 196.468h51.221v149.866h-51.221z" fill="#ffa844"/><path d="m156.6 178.473h-115.967v-30.103c0-4.418 3.582-8 8-8h99.967c4.418 0 8 3.582 8 8z" fill="#dcf3fe"/><path d="m148.6 140.37h-23c4.418 0 8 3.582 8 8v30.103h23v-30.103c0-4.418-3.582-8-8-8z" fill="#c0defa"/><path d="m119.467 272.781h-41.7c-2.209 0-4-1.791-4-4v-25.103c0-2.209 1.791-4 4-4h41.7c2.209 0 4 1.791 4 4v25.103c0 2.209-1.791 4-4 4z" fill="#64caff"/><path d="m166.733 272.781h-5.992c-2.287 0-4.142-1.853-4.142-4.138v-24.827c0-2.285 1.854-4.138 4.142-4.138h5.992l14.45 16.551z" fill="#64caff"/><path d="m166.733 239.678h36.284v33.103h-36.284z" fill="#00b8ff"/><path d="m189.733 358.038-23-19.051h-134.383c-4.575 0-8.283 3.705-8.283 8.276v29.827h142.667z" fill="#f3f0f1"/><path d="m166.733 338.986h51.221v38.103h-51.221z" fill="#ede1e5"/><path d="m188.945 190.024-22.212-16.551h-134.383c-4.575 0-8.283 3.705-8.283 8.276v16.551c0 4.57 3.709 8.276 8.283 8.276h134.383z" fill="#f3f0f1"/><path d="m166.733 173.473h51.221v33.103h-51.221z" fill="#ede1e5"/><path d="m388.533 130.413h49.7v168.876h-49.7z" fill="#ff7383"/><path d="m415.233 130.413h23v168.876h-23z" fill="#ff546a"/><g><path d="m272.567 55.33v-39.095c0-4.571 3.708-8.276 8.283-8.276h16.567c4.575 0 8.283 3.705 8.283 8.276v39.095z" fill="#dcf3fe"/><path d="m338.833 272.781-11.5-16.781 11.5-16.322v-33.103l-11.5-16.551 11.5-16.551v-33.103l-11.5-16.551 11.5-16.551v-29.455c0-14.249-9.126-26.898-22.656-31.404l-115.541-38.478c-5.364-1.786-10.903 2.202-10.903 7.851v91.485l13.431 16.551-13.431 16.551v33.103l13.431 15.375-13.431 17.728v33.103l13.431 16.322-13.431 16.781v104.309h149.1z" fill="#b4c9d9"/><path d="m338.833 239.678v-33.103l-11.5-16.551 11.5-16.551v-33.103l-11.5-16.551 11.5-16.551v-29.455c0-14.249-9.126-26.898-22.656-31.404l-14.852-4.946c8.908 6.056 14.508 16.204 14.508 27.35v308.276h23v-104.308l-11.5-16.781z" fill="#a1bdd1"/><g fill="#dcf3fe"><path d="m189.733 239.678h33.133c4.575 0 8.283 3.705 8.283 8.276v16.551c0 4.57-3.709 8.276-8.283 8.276h-33.133z"/><path d="m189.733 173.473h33.133c4.575 0 8.283 3.705 8.283 8.276v16.551c0 4.57-3.709 8.276-8.283 8.276h-33.133z"/><path d="m189.733 107.267h33.133c4.575 0 8.283 3.705 8.283 8.276v16.551c0 4.57-3.709 8.276-8.283 8.276h-33.133z"/><path d="m327.333 123.818-11.5-16.551h-18.417c-4.575 0-8.283 3.705-8.283 8.276v16.551c0 4.571 3.708 8.276 8.283 8.276h18.417z"/><path d="m327.333 190.024-11.5-16.551h-18.417c-4.575 0-8.283 3.705-8.283 8.276v16.551c0 4.57 3.708 8.276 8.283 8.276h18.417z"/><path d="m327.333 256-11.5-16.322h-18.417c-4.575 0-8.283 3.705-8.283 8.276v16.551c0 4.571 3.708 8.276 8.283 8.276h18.417z"/></g><path d="m315.833 107.267h23v33.103h-23z" fill="#c0defa"/><path d="m315.833 173.473h23v33.103h-23z" fill="#c0defa"/><path d="m315.833 239.678h23v33.103h-23z" fill="#c0defa"/></g><path d="m454.8 48.062h-82.833v-32.103c0-4.418 3.582-8 8-8h66.833c4.418 0 8 3.582 8 8z" fill="#dcf3fe"/><path d="m463.083 64.164v37.586c0 3.581-1.163 7.066-3.313 9.931l-21.537 28.689h-49.7l-21.537-28.689c-2.151-2.865-3.313-6.349-3.313-9.931v-37.586z" fill="#dcf3fe"/><path d="m438.517 206.575h-50.267c-4.418 0-8-3.582-8-8v-17.103c0-4.418 3.582-8 8-8h50.267c4.418 0 8 3.582 8 8v17.103c0 4.419-3.582 8-8 8z" fill="#f3f0f1"/><path d="m463.083 343.987h-99.4v-38.654c0-8.837 7.163-16 16-16h67.4c8.837 0 16 7.163 16 16z" fill="#dcf3fe"/><path d="m446.8 7.959h-23c4.418 0 8 3.582 8 8v32.103h23v-32.103c0-4.418-3.582-8-8-8z" fill="#c0defa"/><path d="m440.083 64.164v37.586c0 3.581-1.163 7.066-3.313 9.931l-21.537 28.689h23l21.537-28.689c2.151-2.865 3.313-6.349 3.313-9.931v-37.586z" fill="#c0defa"/><path d="m438.517 173.473h-23c4.418 0 8 3.582 8 8v17.103c0 4.418-3.582 8-8 8h23c4.418 0 8-3.582 8-8v-17.103c0-4.419-3.582-8-8-8z" fill="#ede1e5"/><path d="m447.083 289.332h-23c8.837 0 16 7.163 16 16v38.654h23v-38.654c0-8.836-7.163-16-16-16z" fill="#c0defa"/><path d="m463.083 74.164h-99.4c-4.575 0-8.283-3.705-8.283-8.276v-16.551c0-4.571 3.709-8.276 8.283-8.276h99.4c4.575 0 8.283 3.705 8.283 8.276v16.551c.001 4.571-3.708 8.276-8.283 8.276z" fill="#f3f0f1"/><path d="m463.083 41.062h-23c4.575 0 8.283 3.705 8.283 8.276v16.551c0 4.571-3.709 8.276-8.283 8.276h23c4.575 0 8.283-3.705 8.283-8.276v-16.552c.001-4.57-3.708-8.275-8.283-8.275z" fill="#ede1e5"/><path d="m487.933 377.089h-149.1v-30.103c0-4.418 3.582-8 8-8h133.1c4.418 0 8 3.582 8 8z" fill="#f3f0f1"/><path d="m479.933 338.986h-23c4.418 0 8 3.582 8 8v30.103h23v-30.103c0-4.418-3.581-8-8-8z" fill="#ede1e5"/><path d="m7.5 405.1v82.833c0 9.149 7.417 16.567 16.567 16.567h463.867c9.149 0 16.567-7.417 16.567-16.567v-82.833l-248.501-22.54z" fill="#bbf49b"/><path d="m496.217 371.967h-480.434c-4.575 0-8.283 3.709-8.283 8.283v24.85h497v-24.85c0-4.575-3.708-8.283-8.283-8.283z" fill="#dcf3fe"/><path d="m481.5 487.933c0 9.149-7.417 16.567-16.567 16.567h23c9.149 0 16.567-7.417 16.567-16.567v-82.833l-23-2.086z" fill="#9be69d"/><path d="m481.5 380.25v24.85h23v-24.85c0-4.575-3.708-8.283-8.283-8.283h-23c4.575 0 8.283 3.708 8.283 8.283z" fill="#c0defa"/></g><g><path d="m496.217 364.586h-.783v-17.603c0-8.547-6.953-15.5-15.5-15.5h-9.351v-26.155c0-12.958-10.542-23.5-23.5-23.5h-1.35v-69.552c4.919-2.601 8.283-7.765 8.283-13.707v-17.103c0-5.941-3.364-11.106-8.283-13.707v-24.896l20.033-26.687c3.105-4.136 4.816-9.262 4.816-14.435v-21.983c4.929-2.672 8.284-7.89 8.284-13.878v-16.551c0-8.699-7.081-15.776-15.784-15.776h-.782v-17.603c0-8.547-6.953-15.5-15.5-15.5h-66.833c-8.547 0-15.5 6.953-15.5 15.5v17.603h-.783c-8.703 0-15.783 7.077-15.783 15.776v16.552c0 5.987 3.354 11.205 8.283 13.877v21.985c0 5.173 1.711 10.299 4.815 14.433l20.034 26.689v24.896c-4.919 2.601-8.283 7.765-8.283 13.707v17.103c0 5.941 3.364 11.106 8.283 13.707v69.552h-1.35c-12.958 0-23.5 10.542-23.5 23.5v26.155h-9.351c-.169 0-.332.02-.5.025v-253.704c0-17.505-11.166-32.985-27.785-38.521l-5.348-1.781v-21.278c0-8.699-7.08-15.776-15.783-15.776h-16.566c-8.703 0-15.783 7.077-15.783 15.776v5.249l-62.06-20.668c-4.801-1.601-10.119-.788-14.223 2.172-4.102 2.957-6.55 7.74-6.55 12.795v27.138c0 4.142 3.358 7.5 7.5 7.5s7.5-3.358 7.5-7.5v-27.139c0-.098 0-.395.322-.628.328-.235.616-.14.711-.108l115.541 38.479c10.482 3.491 17.525 13.252 17.525 24.289v21.955h-33.916c-8.703 0-15.783 7.077-15.783 15.776v16.552c0 8.699 7.08 15.776 15.783 15.776h33.916v18.103h-33.916c-8.703 0-15.783 7.077-15.783 15.776v16.552c0 8.699 7.08 15.776 15.783 15.776h33.916v18.103h-33.916c-8.703 0-15.783 7.077-15.783 15.776v16.552c0 8.699 7.08 15.776 15.783 15.776h33.916v84.31h-134.1v-84.31h25.633c8.703 0 15.783-7.077 15.783-15.776v-16.552c0-8.699-7.081-15.776-15.783-15.776h-25.633v-18.104h25.633c8.703 0 15.783-7.077 15.783-15.776v-16.552c0-8.699-7.081-15.776-15.783-15.776h-25.633v-18.103h25.633c8.703 0 15.783-7.077 15.783-15.776v-16.552c0-8.699-7.081-15.776-15.783-15.776h-25.633v-21.847c0-4.142-3.358-7.5-7.5-7.5s-7.5 3.358-7.5 7.5v88.054h-18.133v-17.603c0-8.547-6.953-15.5-15.5-15.5h-83.9v-42.155c0-4.142-3.358-7.5-7.5-7.5s-7.5 3.358-7.5 7.5v42.155h-1.067c-8.547 0-15.5 6.953-15.5 15.5v17.603h-.783c-8.703 0-15.783 7.077-15.783 15.776v16.552c0 8.699 7.08 15.776 15.783 15.776h.783v117.413h-.783c-8.703 0-15.783 7.077-15.783 15.776v17.327h-.784c-8.702 0-15.783 7.078-15.783 15.776v107.586c0 13.262 10.796 24.052 24.067 24.052h21.573c4.142 0 7.5-3.358 7.5-7.5s-3.358-7.5-7.5-7.5h-21.573c-5 0-9.067-4.061-9.067-9.051v-75.259h482v75.258c0 4.991-4.067 9.051-9.066 9.051h-407.294c-4.142 0-7.5 3.358-7.5 7.5s3.358 7.5 7.5 7.5h407.294c13.27 0 24.066-10.79 24.066-24.052v-107.585c0-8.698-7.08-15.776-15.783-15.776zm-216.151-348.36c0-.428.352-.775.783-.775h16.567c.432 0 .783.348.783.775v16.283l-18.134-6.039v-10.244zm-57.199 98.534c.432 0 .783.348.783.775v16.552c0 .428-.352.775-.783.775h-25.633v-18.102zm165.383 84.31c-.275 0-.5-.224-.5-.5v-17.103c0-.276.225-.5.5-.5h50.267c.275 0 .5.224.5.5v17.103c0 .276-.225.5-.5.5zm7.783-51.207h34.7v18.103h-34.7zm-16.566-131.913c0-.276.225-.5.5-.5h66.833c.275 0 .5.224.5.5v17.603h-67.833zm-16.567 33.379c0-.428.352-.776.783-.776h99.399c.433 0 .784.348.784.776v16.552c0 .428-.352.776-.784.776h-99.399c-.432 0-.783-.348-.783-.776zm8.284 52.414v-20.086h84.399v20.086c0 1.945-.643 3.872-1.811 5.428l-19.286 25.692h-42.204l-19.287-25.693c-1.169-1.555-1.811-3.482-1.811-5.427zm24.849 112.327h34.7v67.758h-34.7zm-24.849 91.258c0-4.687 3.813-8.5 8.5-8.5h67.399c4.686 0 8.5 3.813 8.5 8.5v26.155h-84.399zm-73.767-172.465c-.432 0-.783-.348-.783-.775v-16.552c0-.428.352-.775.783-.775h33.916v18.103h-33.916zm0 66.207c-.432 0-.783-.348-.783-.775v-16.552c0-.428.352-.775.783-.775h33.916v18.103h-33.916zm0 66.206c-.432 0-.783-.348-.783-.776v-16.552c0-.428.352-.775.783-.775h33.916v18.103zm48.916 81.707c0-.276.225-.5.5-.5h133.101c.275 0 .5.224.5.5v17.603h-134.101zm-164.1-81.707h-18.133v-18.103h18.133zm15.784-18.102h24.85c.432 0 .783.348.783.775v16.552c0 .428-.352.776-.783.776h-25.633v-18.103zm24.85-66.207c.432 0 .783.348.783.775v16.552c0 .428-.352.775-.783.775h-25.633v-18.103h25.633zm-174.734-32.604c0-.276.224-.5.5-.5h99.967c.276 0 .5.224.5.5v17.603h-100.967zm-16.566 49.931v-16.552c0-.428.352-.775.783-.775h149.883v18.103h-149.883c-.432 0-.783-.348-.783-.776zm16.566 15.776h134.1v18.103h-21.492c-6.419 0-11.642 5.221-11.642 11.638v24.828c0 6.417 5.222 11.638 11.642 11.638h21.492v51.207h-134.1zm-16.566 133.189c0-.428.352-.775.783-.775h149.883v18.103h-150.666zm-16.567 50.431v-17.327c0-.428.352-.776.783-.776h480.434c.432 0 .783.348.783.776v17.327z"/><path d="m186.751 473.274c1.644-1.643 4.321-1.643 5.964 0 3.746 3.742 8.665 5.613 13.585 5.613 4.919 0 9.839-1.871 13.584-5.613 1.645-1.643 4.32-1.643 5.965 0 2.93 2.927 7.679 2.925 10.607-.005s2.925-7.679-.005-10.607c-7.49-7.484-19.677-7.484-27.168 0-1.645 1.644-4.32 1.643-5.965 0-7.49-7.484-19.678-7.484-27.168 0-2.93 2.927-2.933 7.676-.005 10.607 2.927 2.931 7.675 2.934 10.606.005z"/><path d="m418.684 456.723c1.643-1.643 4.319-1.644 5.966 0 3.745 3.742 8.664 5.613 13.584 5.613 4.919 0 9.839-1.871 13.584-5.612 1.645-1.643 4.32-1.643 5.965 0 2.929 2.926 7.678 2.925 10.606-.005s2.926-7.679-.005-10.607c-7.49-7.483-19.678-7.483-27.168 0-1.645 1.644-4.32 1.643-5.965 0-7.489-7.482-19.678-7.484-27.169 0-2.931 2.927-2.933 7.676-.005 10.607 2.926 2.929 7.675 2.931 10.607.004z"/><path d="m119.467 232.173h-41.7c-6.341 0-11.5 5.159-11.5 11.5v25.103c0 6.341 5.159 11.5 11.5 11.5h41.7c6.341 0 11.5-5.159 11.5-11.5v-25.103c0-6.341-5.159-11.5-11.5-11.5zm-3.5 33.103h-34.7v-18.103h34.7z"/></g></g></svg>