<svg id="Capa_1" enable-background="new 0 0 512 512" height="512" viewBox="0 0 512 512" width="512" xmlns="http://www.w3.org/2000/svg"><g><g><g><path d="m504.5 438.233v-146.471c0-8.098-5.855-15.01-13.843-16.341-155.366-25.894-313.947-25.894-469.313 0-7.645 0-13.843 6.198-13.843 13.843v148.97l10.343 16.566-10.344 16.567v17.133c0 8.837 7.163 16 16 16h465c8.836 0 16-7.163 16-16v-17.133l-11.5-16.715z" fill="#bbf49b"/><path d="m504.5 291.762c0-8.098-5.855-15.01-13.843-16.341-5.655-.943-11.315-1.84-16.979-2.714 4.736 2.95 7.822 8.184 7.822 14.055v201.738c0 8.836-7.164 16-16 16h23c8.836 0 16-7.164 16-16v-17.133l-11.5-16.715 11.5-16.419z" fill="#9be69d"/></g><g><path d="m493 454.652-11.5-16.419h-474v33.134h474z" fill="#f3f0f1"/><path d="m481.5 438.233h23v33.133h-23z" fill="#ede1e5"/></g><g><g><path d="m447.037 438.347-9.908-13.356h-14.537l-4.001 1.6c-3.145 1.258-5.207 4.304-5.207 7.691v70.218h33.653z" fill="#ffe6b4"/><path d="m449.593 426.591-9.349-3.739c-3.95-1.58-8.356-1.58-12.305 0l-5.347 2.139 4.001 1.6c3.145 1.258 5.207 4.304 5.207 7.691v70.218h23v-70.218c0-3.387-2.062-6.433-5.207-7.691z" fill="#ffd0a1"/></g><g><path d="m328.309 438.347-9.908-13.356h-14.537l-4.001 1.6c-3.145 1.258-5.207 4.304-5.207 7.691v70.218h33.653z" fill="#ffe6b4"/><path d="m330.865 426.591-9.349-3.739c-3.95-1.58-8.356-1.58-12.305 0l-5.347 2.139 4.001 1.6c3.145 1.258 5.207 4.304 5.207 7.691v70.218h23v-70.218c0-3.387-2.062-6.433-5.207-7.691z" fill="#ffd0a1"/></g><g><path d="m209.581 438.347-9.908-13.356h-14.537l-4.001 1.6c-3.145 1.258-5.207 4.304-5.207 7.691v70.218h33.653z" fill="#ffe6b4"/><path d="m212.138 426.591-9.349-3.739c-3.95-1.58-8.356-1.58-12.305 0l-5.347 2.139 4.002 1.6c3.145 1.258 5.207 4.304 5.207 7.691v70.218h23v-70.218c-.002-3.387-2.064-6.433-5.208-7.691z" fill="#ffd0a1"/></g><g><path d="m90.853 438.347-9.908-13.356h-14.537l-4.001 1.6c-3.145 1.258-5.207 4.304-5.207 7.691v70.218h33.653z" fill="#ffe6b4"/><path d="m93.41 426.591-9.349-3.739c-3.95-1.58-8.356-1.58-12.305 0l-5.347 2.139 4.001 1.6c3.145 1.258 5.207 4.304 5.207 7.691v70.218h23v-70.218c0-3.387-2.062-6.433-5.207-7.691z" fill="#ffd0a1"/></g></g><path d="m463.083 24.067h-.073c-2.6.004-5.014-1.258-6.577-3.335-6.045-8.034-15.655-13.232-26.483-13.232-14.402 0-26.658 9.189-31.225 22.024-.597 1.677-2.143 2.826-3.923 2.826h-1.631c-11.229 0-20.792 8.732-21.191 19.953-.419 11.781 9.007 21.464 20.695 21.464h69.849c13.932 0 25.669-11.401 25.405-25.331-.256-13.502-11.282-24.369-24.846-24.369z" fill="#f3f0f1"/><path d="m48.917 57.2h.073c2.6.004 5.014-1.258 6.577-3.335 6.045-8.034 15.655-13.231 26.483-13.231 14.402 0 26.658 9.189 31.225 22.024.597 1.677 2.143 2.826 3.923 2.826h1.631c11.229 0 20.792 8.732 21.191 19.953.419 11.781-9.007 21.463-20.695 21.463h-69.849c-13.932 0-25.669-11.401-25.405-25.33.256-13.503 11.282-24.37 24.846-24.37z" fill="#f3f0f1"/><path d="m463.083 24.067h-.073c-2.6.004-5.014-1.258-6.577-3.335-6.045-8.034-15.655-13.232-26.483-13.232-4.035 0-7.891.744-11.467 2.064 5.995 2.228 11.17 6.143 14.95 11.167 1.563 2.077 3.977 3.339 6.577 3.335h.073c13.564 0 24.589 10.867 24.845 24.369.264 13.929-11.473 25.331-25.405 25.331h23c13.932 0 25.669-11.401 25.405-25.331-.255-13.501-11.281-24.368-24.845-24.368z" fill="#ede1e5"/><path d="m140.02 85.437c-.399-11.222-9.962-19.953-21.191-19.953h-1.631c-1.78 0-3.326-1.149-3.923-2.826-4.567-12.835-16.823-22.024-31.225-22.024-4.056 0-7.942.73-11.533 2.064 9.188 3.393 16.47 10.721 19.758 19.96.597 1.677 2.143 2.826 3.923 2.826h1.631c11.229 0 20.792 8.731 21.191 19.953.419 11.781-9.007 21.464-20.695 21.464h23c11.687-.001 21.114-9.683 20.695-21.464z" fill="#ede1e5"/><g><path d="m303.799 388.533h89.692c4.575 0 8.283-3.709 8.283-8.283v-165.499h-120.688z" fill="#ff7383"/><path d="m388.483 214.751v165.499c0 4.575-3.709 8.283-8.284 8.283h23c4.575 0 8.283-3.708 8.283-8.283v-165.499z" fill="#ff546a"/><path d="m411.483 194.734v-38.134c0-36.598-29.669-66.267-66.267-66.267-30.809 0-56.708 21.025-64.13 49.51v54.89h130.397z" fill="#ffc144"/><path d="m345.216 90.333c-3.939 0-7.795.348-11.545 1.007 31.135 5.429 54.812 32.57 54.812 65.259v38.134h23v-38.133c0-36.598-29.669-66.267-66.267-66.267z" fill="#ffa844"/><path d="m281.086 189.733h130.396c9.149 0 16.567 7.417 16.567 16.567 0 9.149-7.417 16.567-16.567 16.567h-130.396z" fill="#f3f0f1"/><path d="m411.483 189.733h-23c9.149 0 16.567 7.417 16.567 16.567 0 9.149-7.417 16.567-16.567 16.567h23c9.149 0 16.567-7.417 16.567-16.567-.001-9.15-7.418-16.567-16.567-16.567z" fill="#ede1e5"/><path d="m312.083 240.001v-5l-31.43-62.859c-1.081-2.163-3.054-3.745-5.4-4.332l-58.552-14.638c-2.638-.66-5.398-.66-8.036 0l-58.553 14.638c-2.346.587-4.318 2.169-5.4 4.332l-31.429 62.858v5l9.103 16.996-9.103 16.996v106.258c0 4.575 3.708 8.283 8.283 8.283h41.417l49.7-24.608 49.7 24.608h41.417c4.575 0 8.283-3.708 8.283-8.283v-106.258l-11.5-16.996z" fill="#ff7383"/><path d="m312.083 240.001v-5l-31.43-62.859c-1.081-2.163-3.054-3.745-5.4-4.332l-25.345-6.336c1.906.74 3.487 2.16 4.413 4.012l34.761 69.514v145.25c0 4.575-3.708 8.283-8.283 8.283h23c4.575 0 8.283-3.708 8.283-8.283v-106.258l-11.5-16.996z" fill="#ff546a"/><path d="m150.112 172.81 58.553-14.638c2.638-.66 5.398-.66 8.036 0l58.552 14.638c2.346.587 4.319 2.169 5.4 4.332l31.43 62.859 22.947-5.417c5.201-1.228 7.896-6.986 5.506-11.766l-35.566-71.132c-2.18-4.36-6.17-7.539-10.907-8.69l-79.424-19.295c-1.285-.312-2.626-.312-3.911 0l-79.424 19.295c-4.737 1.151-8.727 4.33-10.907 8.69l-35.567 71.131c-2.39 4.78.305 10.538 5.506 11.766l22.947 5.417 31.429-62.859c1.082-2.162 3.054-3.745 5.4-4.331z" fill="#ffc144"/><path d="m242.381 388.533h-79.399v-66.55c0-4.418 3.582-8 8-8h63.399c4.418 0 8 3.582 8 8z" fill="#c68a65"/><path d="m340.535 222.817-35.566-71.132c-2.18-4.36-6.17-7.539-10.907-8.689l-24.358-5.918c3.891 1.46 7.122 4.333 9.002 8.094l41.339 82.624c2.168 4.336.144 9.465-4.131 11.299l19.115-4.512c5.201-1.227 7.896-6.986 5.506-11.766z" fill="#ffa844"/><path d="m254.383 313.983h-23c4.418 0 8 3.582 8 8v66.55h23v-66.55c0-4.418-3.582-8-8-8z" fill="#bd7460"/><path d="m113.283 240.001h198.8v33.992h-198.8z" fill="#f3f0f1"/><path d="m289.082 240.001h23v33.992h-23z" fill="#ede1e5"/></g></g><g><path d="m491.89 268.022c-24.098-4.016-48.589-7.446-72.907-10.228v-28.631c9.608-3.16 16.566-12.212 16.566-22.863 0-10.652-6.958-19.704-16.566-22.864v-26.836c0-40.675-33.092-73.767-73.767-73.767-8.967 0-17.734 1.594-26.059 4.737-3.875 1.464-5.83 5.791-4.367 9.666 1.463 3.876 5.794 5.828 9.666 4.367 6.625-2.502 13.609-3.771 20.76-3.771 29.862 0 54.575 22.394 58.272 51.267h-91.425l-.384-.768c-3.175-6.348-8.95-10.948-15.845-12.623l-5.064-1.23c2.076-5.116 4.854-9.914 8.337-14.315 2.57-3.247 2.022-7.965-1.227-10.535-3.244-2.57-7.963-2.021-10.535 1.227-4.84 6.115-8.619 12.836-11.292 20.048l-59.641-14.489c-2.437-.593-5.016-.593-7.454-.001l-79.424 19.295c-6.896 1.675-12.672 6.276-15.845 12.623l-35.566 71.132c-2.171 4.341-2.235 9.352-.179 13.747 2.057 4.396 5.945 7.558 10.669 8.674l17.17 4.053v10.46c-28.593 3.012-57.378 6.911-85.672 11.625-11.654 1.943-20.111 11.926-20.111 23.74v61.475c0 4.143 3.357 7.5 7.5 7.5s7.5-3.357 7.5-7.5v-61.475c0-4.45 3.187-8.211 7.577-8.943 27.479-4.58 55.427-8.382 83.205-11.34v108.771c0 8.703 7.081 15.783 15.784 15.783h281.633c8.703 0 15.783-7.08 15.783-15.783v-107.36c23.504 2.718 47.159 6.049 70.442 9.93 4.39.732 7.575 4.492 7.575 8.942v138.972h-35.098c-1.134-4.979-4.624-9.147-9.524-11.106l-9.348-3.738c-5.764-2.307-12.113-2.306-17.877-.001l-9.349 3.739c-4.9 1.96-8.39 6.128-9.524 11.106h-63.106c-1.135-4.978-4.625-9.146-9.524-11.106l-9.348-3.738c-5.764-2.307-12.113-2.306-17.877-.001l-9.349 3.739c-4.9 1.96-8.39 6.128-9.524 11.106h-63.106c-1.135-4.978-4.625-9.146-9.524-11.106l-9.349-3.739c-5.764-2.305-12.114-2.305-17.876 0l-9.349 3.739c-4.9 1.96-8.39 6.128-9.524 11.106h-63.106c-1.134-4.978-4.624-9.146-9.524-11.106l-9.349-3.739c-5.764-2.305-12.114-2.305-17.876 0l-9.349 3.739c-4.9 1.959-8.39 6.128-9.524 11.106h-35.095v-42.13c0-4.143-3.357-7.5-7.5-7.5s-7.5 3.357-7.5 7.5v99.33c0 13.27 10.796 24.066 24.066 24.066h463.867c13.271 0 24.067-10.796 24.067-24.066v-196.172c0-11.814-8.458-21.798-20.11-23.74zm-340.259-87.787c.087-.07.189-.122.301-.149l58.555-14.639c1.438-.36 2.957-.359 4.395.001l58.553 14.638c.223.056.409.205.512.41l26.003 52.005h-174.53l26.002-52.004c.049-.103.122-.192.209-.262zm-30.849 67.266h183.801v18.991h-183.801zm198.801-1.564 17.17-4.054c4.724-1.115 8.612-4.276 10.669-8.673.432-.924.749-1.878.994-2.844h55.567v117.534h-84.399v-101.963zm91.899-30.571h-66.288l-9.066-18.133h75.354c4.999 0 9.066 4.067 9.066 9.066.001 5-4.067 9.067-9.066 9.067zm-7.5-51.266v18.134h-75.354l-9.067-18.134zm-312.453 62.754c-.16-.344-.033-.599.009-.682l35.566-71.133c1.195-2.391 3.371-4.124 5.969-4.755l79.428-19.296c.118-.028.244-.028.366.001l79.426 19.295c2.597.631 4.772 2.364 5.969 4.756l35.337 70.674c.086.209.182.412.286.611.036.125.056.305-.048.529-.161.344-.439.41-.53.431l-17.169 4.054-28.775-57.552c-2.064-4.125-5.814-7.134-10.289-8.253l-58.551-14.637c-3.82-.957-7.857-.956-11.676-.001l-58.553 14.638-.001.001c-4.475 1.119-8.225 4.127-10.288 8.253l-28.775 57.551-17.169-4.053c-.092-.022-.371-.089-.532-.432zm29.253 153.396v-98.758h183.801v98.758c0 .432-.352.783-.784.783h-33.916v-59.05c0-8.547-6.953-15.5-15.5-15.5h-83.4c-8.547 0-15.5 6.953-15.5 15.5v59.05h-33.916c-.433 0-.785-.351-.785-.783zm49.7-58.267c0-.275.225-.5.5-.5h34.2v59.55h-34.7zm49.701 59.05v-59.55h34.2c.275 0 .5.225.5.5v59.05zm183.016 0h-83.656c.013-.261.04-.519.04-.783v-17.35h84.399v17.35c0 .432-.351.783-.783.783zm93.801 82.833h-34.7v-18.133h34.7zm-76.117-29.584c0-.322.193-.608.492-.728l9.349-3.739c2.171-.869 4.563-.869 6.735 0l9.349 3.739c.299.119.492.405.492.728v62.718h-26.417zm-15 29.584h-62.311v-18.133h62.311zm-62.311 15h62.311v18.134h-62.311zm-41.417-44.584c0-.322.193-.608.492-.728l9.349-3.739c2.171-.869 4.563-.869 6.735 0l9.349 3.739c.299.119.492.405.492.728v62.718h-26.417zm-15 29.584h-62.311v-18.133h62.311zm-62.31 15h62.311v18.134h-62.311zm-41.417-44.584c0-.322.193-.608.492-.728l9.35-3.74c2.17-.867 4.563-.868 6.734.001l9.349 3.739c.299.119.492.405.492.728v62.718h-26.417zm-15 29.584h-62.311v-18.133h62.311zm-62.311 15h62.311v18.134h-62.311zm-41.417-44.584c0-.322.193-.608.492-.728l9.35-3.74c2.17-.867 4.563-.868 6.734.001l9.349 3.739c.299.119.492.405.492.728v62.718h-26.417zm-15 11.451v18.133h-34.7v-18.133zm-34.7 42.201v-9.067h34.7v18.133h-25.634c-4.999 0-9.066-4.067-9.066-9.066zm472.934 9.066h-25.634v-18.134h34.7v9.067c0 5-4.067 9.067-9.066 9.067z"/><path d="m204.399 206.942h16.566c4.143 0 7.5-3.357 7.5-7.5s-3.357-7.5-7.5-7.5h-16.566c-4.143 0-7.5 3.357-7.5 7.5s3.358 7.5 7.5 7.5z"/><path d="m392.675 81.267h69.849c8.819 0 17.44-3.632 23.653-9.964 6.129-6.246 9.414-14.417 9.251-23.008-.332-17.495-14.842-31.728-32.345-31.728-.004 0-.081 0-.085 0-.196 0-.41-.129-.572-.344-7.756-10.31-19.593-16.223-32.476-16.223-16.381 0-31.151 9.898-37.455 24.857-14.987.353-27.485 12.41-28.01 27.18-.275 7.732 2.527 15.051 7.891 20.608 5.365 5.56 12.574 8.622 20.299 8.622zm.497-41.417h1.63c4.911 0 9.327-3.139 10.99-7.812 3.626-10.19 13.334-17.038 24.158-17.038 8.125 0 15.594 3.732 20.49 10.242 2.982 3.961 7.675 6.324 12.547 6.324h.022.073c9.388 0 17.169 7.632 17.347 17.013.087 4.531-1.675 8.871-4.96 12.219-3.41 3.475-8.129 5.469-12.946 5.469h-69.849c-3.617 0-6.992-1.434-9.506-4.038-2.511-2.602-3.822-6.031-3.693-9.659.25-7.014 6.394-12.72 13.697-12.72z"/><path d="m49.477 114.4h69.849c7.725 0 14.934-3.062 20.299-8.621 5.363-5.558 8.166-12.877 7.891-20.608-.524-14.771-13.022-26.826-28.01-27.18-6.303-14.959-21.073-24.857-37.455-24.857-12.883 0-24.72 5.912-32.476 16.222-.163.216-.376.345-.583.345h-.002-.073c-17.503 0-32.013 14.232-32.345 31.727-.163 8.592 3.122 16.764 9.251 23.01 6.213 6.331 14.834 9.962 23.654 9.962zm-.56-49.7h.062.023c4.884 0 9.577-2.364 12.559-6.327 4.896-6.507 12.364-10.239 20.489-10.239 10.824 0 20.533 6.847 24.158 17.038 1.663 4.672 6.08 7.812 10.99 7.812h1.631c7.303 0 13.446 5.706 13.695 12.72.129 3.627-1.183 7.058-3.694 9.66-2.513 2.604-5.888 4.037-9.505 4.037h-69.848c-4.817 0-9.536-1.993-12.946-5.469-3.285-3.349-5.047-7.688-4.96-12.22.177-9.381 7.958-17.012 17.346-17.012z"/></g></g></svg>