<svg id="Capa_1" enable-background="new 0 0 512 512" height="512" viewBox="0 0 512 512" width="512" xmlns="http://www.w3.org/2000/svg"><g><g><g><path d="m90.333 291.263v47.57c0 4.575-3.708 8.283-8.283 8.283h-16.567c-4.575 0-8.283-3.709-8.283-8.283v-47.57z" fill="#c68a65"/><path d="m134.798 287.412-26.635-53.269h-.066c1.124-.17 2.248-.339 3.37-.526 5.762-.96 8.747-7.423 5.741-12.432l-36.338-60.563c-3.217-5.362-10.988-5.362-14.206 0l-36.338 60.563c-3.006 5.009-.021 11.472 5.741 12.432 1.122.187 2.246.356 3.37.526h-.066l-26.635 53.269c-2.556 5.112.711 11.215 6.381 11.924 36.292 4.536 73.007 4.536 109.299 0 5.671-.709 8.937-6.813 6.382-11.924z" fill="#6fd7a3"/><path d="m134.798 287.412-26.635-53.269h-.066c1.124-.17 2.248-.339 3.37-.526 5.762-.96 8.747-7.423 5.741-12.432l-36.338-60.563c-3.217-5.362-10.988-5.362-14.206 0l-4.397 7.329 31.941 53.234c3.005 5.009.021 11.472-5.741 12.432-1.122.187-2.246.356-3.37.526h.066l26.635 56.269c2.065 4.13.327 8.904-3.407 10.96 6.686-.527 13.363-1.204 20.025-2.037 5.671-.708 8.937-6.812 6.382-11.923z" fill="#3ec3a4"/></g><g><path d="m454.8 291.263v47.57c0 4.575-3.709 8.283-8.283 8.283h-16.567c-4.575 0-8.283-3.709-8.283-8.283v-47.57z" fill="#c68a65"/><path d="m499.264 287.412-26.635-53.269h-.066c1.124-.17 2.248-.339 3.37-.526 5.762-.96 8.747-7.423 5.741-12.432l-36.338-60.563c-3.217-5.362-10.988-5.362-14.206 0l-36.338 60.563c-3.006 5.009-.021 11.472 5.741 12.432 1.122.187 2.246.356 3.37.526h-.066l-26.635 53.269c-2.556 5.112.711 11.215 6.381 11.924 36.292 4.536 73.007 4.536 109.299 0 5.672-.709 8.938-6.813 6.382-11.924z" fill="#6fd7a3"/><path d="m499.264 287.412-26.635-53.269h-.066c1.124-.17 2.248-.339 3.37-.526 5.762-.96 8.747-7.423 5.741-12.432l-36.338-60.563c-3.217-5.362-10.988-5.362-14.206 0l-4.397 7.329 31.941 53.234c3.005 5.009.021 11.472-5.741 12.432-1.122.187-2.246.356-3.37.526h.066l26.635 56.269c2.065 4.13.327 8.904-3.407 10.96 6.686-.527 13.363-1.204 20.025-2.037 5.672-.708 8.938-6.812 6.382-11.923z" fill="#3ec3a4"/></g><path d="m490.657 341.687c-28.424-4.737-56.956-8.599-85.556-11.602l-149.101 24.621-149.101-24.621c-28.6 3.004-57.132 6.865-85.556 11.602-7.988 1.332-13.843 8.243-13.843 16.342v129.905c0 9.15 7.417 16.567 16.567 16.567h66.267l165.666-38.059 165.667 38.058h66.267c9.15 0 16.567-7.417 16.567-16.567v-129.904c-.001-8.099-5.856-15.01-13.844-16.342z" fill="#bbf49b"/><path d="m490.657 341.688c-6.619-1.103-13.245-2.142-19.875-3.151 6.342 2.391 10.718 8.494 10.718 15.492v133.905c0 9.15-7.417 16.567-16.567 16.567h23c9.15 0 16.567-7.417 16.567-16.567v-129.905c0-8.099-5.855-15.01-13.843-16.341z" fill="#9be69d"/><path d="m189.733 222.867h-24.471c-4.864 0-8.694-4.174-8.259-9.018 4.557-50.671 47.139-90.382 98.997-90.382s94.44 39.711 98.997 90.382c.436 4.844-3.395 9.018-8.259 9.018h-24.471z" fill="#ffc144"/><path d="m354.996 213.848c-4.557-50.671-47.139-90.382-98.996-90.382-3.89 0-7.726.228-11.5.663 46.53 5.361 83.281 42.849 87.496 89.719.436 4.844-3.395 9.018-8.259 9.018h23c4.865.001 8.695-4.173 8.259-9.018z" fill="#ffa844"/><path d="m260.889 157.615h-16.389c-31.113 5.447-54.767 32.578-54.767 65.252v66.267l66.267 33.444 66.267-33.445v-66.267l-17.455-38.832z" fill="#ff7383"/><path d="m299.267 222.867v77.875l23-11.608v-66.267c0-36.598-29.668-66.267-66.267-66.267-3.925 0-7.763.361-11.5 1.015 31.113 5.447 54.767 32.578 54.767 65.252z" fill="#ff546a"/><path d="m322.267 289.133h-20.532-91.47-20.532v34.673h132.534z" fill="#f3f0f1"/><path d="m231.15 322.483v-49.916c0-4.575 3.709-8.283 8.283-8.283h13.718c4.575 0 8.283 3.709 8.283 8.283v49.916z" fill="#4e6c99"/><path d="m248.897 193.288-10.22 17.033c-3.313 5.521.664 12.545 7.103 12.545h20.44c6.439 0 10.415-7.024 7.103-12.545l-10.22-17.033c-3.217-5.362-10.989-5.362-14.206 0z" fill="#4e6c99"/><path d="m272.567 264.283h-23c4.575 0 8.283 3.709 8.283 8.283v49.916h23v-49.916c0-4.574-3.709-8.283-8.283-8.283z" fill="#416195"/><path d="m299.267 289.133v34.673h23v-34.673h-20.532z" fill="#ede1e5"/><circle cx="57.2" cy="57.2" fill="#ffc144" r="49.7"/><path d="m57.2 7.5c-3.96 0-7.807.477-11.5 1.352 21.901 5.191 38.2 24.86 38.2 48.348s-16.299 43.157-38.2 48.348c3.693.875 7.54 1.352 11.5 1.352 27.449 0 49.7-22.251 49.7-49.7s-22.251-49.7-49.7-49.7z" fill="#ffa844"/><path d="m479.65 24.067h-.073c-2.6.004-5.014-1.258-6.577-3.335-6.045-8.034-15.655-13.232-26.483-13.232-14.402 0-26.658 9.189-31.225 22.024-.597 1.677-2.143 2.826-3.923 2.826h-1.631c-11.229 0-20.792 8.732-21.191 19.953-.419 11.781 9.007 21.464 20.695 21.464h69.849c13.932 0 25.669-11.401 25.405-25.331-.257-13.502-11.282-24.369-24.846-24.369z" fill="#f3f0f1"/><path d="m98.617 40.633h.073c2.6.004 5.014-1.258 6.577-3.335 6.045-8.034 15.655-13.231 26.483-13.231 14.402 0 26.658 9.189 31.225 22.024.597 1.677 2.143 2.826 3.923 2.826h1.631c11.229 0 20.792 8.732 21.191 19.953.419 11.781-9.007 21.463-20.695 21.463h-69.849c-13.932 0-25.669-11.401-25.405-25.33.256-13.503 11.282-24.37 24.846-24.37z" fill="#f3f0f1"/><path d="m479.65 24.067h-.073c-2.6.004-5.014-1.258-6.577-3.336-6.045-8.033-15.655-13.231-26.483-13.231-4.035 0-7.891.744-11.467 2.064 5.995 2.228 11.17 6.142 14.95 11.167 1.563 2.078 3.977 3.34 6.577 3.336h.073c13.564 0 24.589 10.867 24.845 24.369.264 13.929-11.473 25.33-25.405 25.33h23c13.932 0 25.669-11.401 25.405-25.33-.256-13.502-11.281-24.369-24.845-24.369z" fill="#ede1e5"/><path d="m189.72 68.87c-.399-11.222-9.962-19.953-21.191-19.953h-1.631c-1.78 0-3.326-1.149-3.923-2.826-4.567-12.835-16.823-22.024-31.225-22.024-4.056 0-7.942.73-11.533 2.064 9.188 3.393 16.47 10.721 19.758 19.96.597 1.677 2.143 2.826 3.923 2.826h1.631c11.229 0 20.792 8.732 21.191 19.953.419 11.781-9.007 21.463-20.695 21.463h23c11.687 0 21.114-9.682 20.695-21.463z" fill="#ede1e5"/><path d="m106.899 330.085-16.566 174.415h331.333l-16.566-174.415c-99.127-10.412-199.073-10.412-298.201 0z" fill="#6fd7a3"/></g><g><path d="m491.89 334.29c-9.855-1.643-19.718-3.181-29.59-4.616v-20.098c10.53-.566 21.044-1.49 31.513-2.799 5.074-.634 9.545-3.704 11.958-8.213 2.414-4.509 2.489-9.932.202-14.507l-22.716-45.431c2.421-1.595 4.391-3.851 5.644-6.563 2.191-4.746 1.895-10.256-.795-14.738l-36.338-60.563c-2.879-4.798-7.939-7.664-13.534-7.664s-10.655 2.865-13.534 7.663l-36.337 60.563c-2.69 4.482-2.987 9.992-.796 14.738 1.253 2.713 3.223 4.968 5.644 6.563l-22.716 45.431c-2.287 4.575-2.212 9.998.202 14.507 2.413 4.509 6.884 7.579 11.957 8.213 10.472 1.309 20.984 2.233 31.514 2.799v13.937c-28.095-3.124-56.236-5.428-84.4-6.884v-86.263h16.972c4.423 0 8.673-1.874 11.658-5.14 2.981-3.261 4.465-7.653 4.069-12.05-2.381-26.472-14.511-50.992-34.155-69.044-19.767-18.164-45.447-28.167-72.31-28.167-7.842 0-15.667.854-23.259 2.54-4.044.897-6.595 4.903-5.697 8.947s4.907 6.599 8.947 5.697c4.104-.911 8.289-1.538 12.509-1.88v18.209c-14.723 1.493-28.175 7.341-39.059 16.222l-12.913-12.909c2.951-2.496 6.073-4.833 9.368-6.98 3.471-2.261 4.45-6.908 2.188-10.378s-6.908-4.449-10.378-2.189c-27.669 18.03-45.229 47.165-48.176 79.934-.396 4.396 1.088 8.788 4.069 12.049 2.986 3.267 7.235 5.14 11.659 5.14h16.972v86.263c-28.164 1.456-56.305 3.76-84.4 6.884v-13.937c10.531-.566 21.044-1.49 31.513-2.799 5.074-.634 9.545-3.704 11.958-8.213 2.414-4.509 2.489-9.932.202-14.507l-22.716-45.431c2.421-1.595 4.391-3.851 5.644-6.563 2.191-4.746 1.895-10.256-.795-14.738l-36.338-60.563c-2.879-4.798-7.938-7.664-13.534-7.664s-10.655 2.865-13.534 7.663l-36.337 60.563c-2.69 4.482-2.987 9.992-.796 14.738 1.253 2.713 3.223 4.968 5.644 6.563l-22.716 45.433c-2.287 4.575-2.212 9.998.202 14.507 2.413 4.509 6.884 7.579 11.957 8.213 10.472 1.309 20.984 2.233 31.514 2.799v20.097c-9.872 1.436-19.736 2.974-29.591 4.616-11.652 1.942-20.109 11.926-20.109 23.739v129.904c0 13.271 10.796 24.067 24.066 24.067h21.574c4.143 0 7.5-3.358 7.5-7.5s-3.357-7.5-7.5-7.5h-21.574c-4.999 0-9.066-4.067-9.066-9.067v-21.491h71.414l-2.903 30.558h-2.871c-4.143 0-7.5 3.358-7.5 7.5s3.357 7.5 7.5 7.5h407.294c13.27 0 24.066-10.796 24.066-24.067v-129.904c0-11.814-8.458-21.797-20.11-23.739zm-129.394 162.71-9.08-163.9c14.942 1.031 29.876 2.298 44.798 3.804l15.206 160.096zm-143.957-166.761-3.037 166.761h-50.976l9.132-164.859c14.955-.872 29.916-1.505 44.881-1.902zm-21.306-107.372c0-32.404 26.362-58.767 58.767-58.767s58.767 26.363 58.767 58.767v58.767h-26.417v-9.066c0-8.703-7.08-15.784-15.783-15.784h-33.133c-8.703 0-15.783 7.081-15.783 15.784v9.066h-26.417v-58.767zm105.326-57.166c-10.884-8.881-24.336-14.729-39.059-16.222v-18.195c19.799 1.571 37.823 9.3 52.087 21.389zm-63.909 106.866c0-.432.352-.784.783-.784h33.133c.432 0 .783.352.783.784v42.273c-11.566-.141-23.133-.141-34.699 0zm-5.102 57.354c14.968-.238 29.937-.238 44.905 0l3.042 167.079h-50.989zm59.913.318c14.964.397 29.925 1.03 44.879 1.902l9.134 164.859h-50.976zm123.471 45.086h80.068v30.558h-77.166zm4.327 45.558h75.741v30.559h-72.838zm75.741-62.854v2.296h-81.493l-2.071-21.803c25.374 2.838 50.711 6.35 75.988 10.563 4.39.732 7.576 4.494 7.576 8.944zm-113.079-66.543c-.191-.358-.06-.621-.011-.72l24.229-48.457c9.977 1.276 20.063 1.928 30.095 1.928 4.143 0 7.5-3.358 7.5-7.5s-3.357-7.5-7.5-7.5c-12.182 0-24.45-1.016-36.466-3.018-.001 0-.001 0-.002 0-.112-.019-.408-.069-.581-.444-.174-.376-.019-.634.04-.731l36.338-60.564c.068-.114.228-.38.671-.38s.603.267.671.381l36.339 60.563c.058.097.213.355.039.731s-.471.425-.583.444c-1.027.171-2.058.327-3.087.482l-.171.026c-3.88.586-6.619 4.064-6.324 7.978.091 1.213.47 2.34 1.066 3.318l26.373 52.743c.049.099.181.362-.011.72-.191.357-.483.394-.594.408-35.645 4.455-71.792 4.455-107.438 0-.11-.015-.402-.051-.593-.408zm45.246 18.646c3.022.061 6.044.103 9.066.103s6.044-.042 9.066-.103v17.441c-6.042-.814-12.086-1.577-18.133-2.314v-15.127zm-140.817 4.97v-18.468h26.417v19.301c-8.805-.363-17.611-.634-26.417-.833zm58.975-99.996c-.157.173-.355.26-.587.26h-17.351c-1.494-14.723-7.341-28.176-16.223-39.06l13.028-13.027c11.83 13.961 19.568 31.6 21.334 51.24.02.223-.048.42-.201.587zm-182.651 0c-.153-.167-.221-.365-.201-.586 1.724-19.17 9.277-36.893 21.426-51.148l12.936 12.936c-8.881 10.884-14.728 24.336-16.222 39.059h-17.351c-.233 0-.43-.088-.588-.261zm32.559 81.527h26.417v18.468c-8.807.199-17.613.47-26.417.833zm-182.233 78.692h80.068l-2.903 30.558h-77.165zm4.454-83.839c-.191-.358-.06-.621-.011-.72l24.23-48.457c9.976 1.276 20.062 1.928 30.094 1.928 4.143 0 7.5-3.358 7.5-7.5s-3.357-7.5-7.5-7.5c-12.182 0-24.45-1.016-36.466-3.018-.001 0-.001 0-.002 0-.112-.019-.407-.069-.581-.444-.174-.376-.019-.634.04-.731l36.338-60.564c.068-.114.227-.38.671-.38.443 0 .603.267.671.381l36.339 60.563c.058.097.213.355.039.731s-.471.425-.583.444c-1.027.171-2.058.327-3.087.482l-.171.026c-3.88.586-6.618 4.064-6.324 7.978.092 1.214.472 2.342 1.069 3.322l26.37 52.739c.049.099.181.362-.011.72-.191.357-.483.394-.594.408-35.645 4.455-71.792 4.455-107.438 0-.109-.015-.401-.051-.593-.408zm45.246 18.646c3.022.061 6.044.103 9.066.103s6.044-.042 9.066-.103v15.128c-6.047.737-12.091 1.499-18.133 2.313v-17.441zm-42.123 38.953c25.277-4.213 50.613-7.725 75.987-10.563l-2.071 21.803h-81.493v-2.296c0-4.45 3.187-8.212 7.577-8.944zm-7.577 102.357v-30.559h75.741l-2.903 30.559zm98.786-114.537c14.922-1.506 29.855-2.773 44.797-3.804l-9.079 163.899h-50.924zm374.148 160.095h-59.445l-2.903-30.558h71.414v21.491c0 5-4.067 9.067-9.066 9.067z"/><path d="m409.242 81.267h69.849c8.818 0 17.44-3.631 23.652-9.963 6.129-6.246 9.414-14.418 9.251-23.009-.332-17.494-14.841-31.727-32.344-31.727-.004 0-.082 0-.086 0-.195 0-.409-.128-.571-.345-7.758-10.31-19.595-16.223-32.476-16.223-16.383 0-31.152 9.898-37.455 24.858-14.986.354-27.485 12.411-28.01 27.179-.275 7.732 2.527 15.051 7.891 20.609 5.365 5.559 12.574 8.621 20.299 8.621zm.496-41.417h1.631c4.91 0 9.326-3.139 10.989-7.812 3.625-10.191 13.334-17.038 24.159-17.038 8.125 0 15.594 3.732 20.49 10.24 2.98 3.963 7.674 6.327 12.547 6.327h.022.074c9.387 0 17.168 7.631 17.346 17.012.087 4.532-1.675 8.872-4.96 12.219-3.41 3.475-8.128 5.469-12.945 5.469h-69.849c-3.617 0-6.994-1.434-9.507-4.038-2.511-2.602-3.822-6.032-3.693-9.66.249-7.013 6.393-12.719 13.696-12.719z"/><path d="m57.2 114.4c15.128 0 29.579-6.018 40.261-16.614.57.03 1.142.047 1.714.047h69.849c7.726 0 14.935-3.062 20.3-8.622 5.363-5.557 8.166-12.876 7.891-20.608-.534-15.023-12.778-26.839-28.01-27.18-6.304-14.959-21.074-24.857-37.455-24.857-9.868 0-19.116 3.48-26.394 9.739-10.366-16.264-28.278-26.305-48.156-26.305-31.54 0-57.2 25.66-57.2 57.2s25.66 57.2 57.2 57.2zm74.55-82.833c10.824 0 20.533 6.847 24.158 17.039 1.663 4.672 6.079 7.811 10.989 7.811h1.631c7.303 0 13.446 5.707 13.696 12.72.129 3.627-1.183 7.057-3.693 9.659-2.514 2.604-5.89 4.038-9.507 4.038h-69.848c-4.817 0-9.535-1.993-12.945-5.469-3.285-3.348-5.047-7.688-4.96-12.22.178-9.38 7.959-17.012 17.346-17.012h.063.023c3.149 0 6.212-.995 8.795-2.755.286-.181.553-.383.807-.597 1.098-.854 2.104-1.84 2.957-2.974 4.894-6.508 12.363-10.24 20.488-10.24zm-74.55-16.567c14.399 0 27.398 7.144 35.104 18.763-14.55 2.929-25.741 15.759-26.032 31.097-.163 8.592 3.122 16.764 9.251 23.01 1.595 1.626 3.351 3.07 5.226 4.324-6.9 4.648-15.081 7.206-23.549 7.206-23.269 0-42.2-18.931-42.2-42.2s18.931-42.2 42.2-42.2z"/><path d="m245.78 230.367h20.439c5.762 0 10.897-2.993 13.735-8.007 2.838-5.013 2.764-10.956-.201-15.896l-10.22-17.033c-2.879-4.798-7.939-7.663-13.534-7.663s-10.655 2.865-13.534 7.663l-10.221 17.034c-2.964 4.94-3.038 10.883-.2 15.896 2.84 5.013 7.975 8.006 13.736 8.006zm-.673-16.186 10.221-17.034c.001-.001.001-.001.001-.001.068-.114.227-.38.671-.38.443 0 .603.266.672.38l10.22 17.033c.07.117.235.392.01.789-.225.398-.545.398-.682.398h-20.44c-.137 0-.457 0-.682-.398-.225-.396-.06-.671.009-.787z"/></g></g></svg>