<svg id="Capa_1" enable-background="new 0 0 512 512" height="512" viewBox="0 0 512 512" width="512" xmlns="http://www.w3.org/2000/svg"><g><g><path d="m351.823 338.833h-104.106v74.185h170.274v-7.918z" fill="#b4c9d9"/><path d="m351.823 338.833h-23l66.168 66.267v7.918h23v-7.918z" fill="#a1bdd1"/><path d="m341.207 328.201-37.798-37.854c-3.236-3.24-8.486-3.24-11.722 0l-43.97 44.028v12.742h10.782l31.553-6.716c4.68-.996 9.561.08 13.389 2.951l14.684 11.013c6.988 5.241 16.845 4.156 22.525-2.48l.556-.65v-23.034z" fill="#dcf3fe"/><path d="m291.687 290.347-5.639 5.647 55.159 55.242 10.617-12.402-48.414-48.487c-3.237-3.24-8.488-3.24-11.723 0z" fill="#c0defa"/><path d="m231.15 314.298-90.517-18.527-41.754 18.212-48.319 57.984v73.531h256.259v-40.398z" fill="#b4c9d9"/><path d="m231.15 314.298-27.73-5.676 80.399 96.478v40.398h23v-40.398z" fill="#a1bdd1"/><path d="m478.769 163.215 16.995-33.99c10.291-20.582 11.547-44.52 3.468-66.066-7.791-20.776-23.599-37.553-43.876-46.565-27.282-12.125-58.424-12.125-85.707 0-20.277 9.012-36.085 25.789-43.876 46.565-8.08 21.546-6.823 45.484 3.467 66.066l16.995 33.99 66.267 16.567z" fill="#ff7383"/><path d="m499.231 63.16c-7.791-20.776-23.599-37.553-43.876-46.565-17.227-7.656-35.992-10.473-54.353-8.46 10.717 1.175 21.298 3.991 31.353 8.46 20.276 9.012 36.085 25.789 43.875 46.565 8.08 21.546 6.823 45.484-3.468 66.066l-16.995 33.99-54.767 13.692 11.5 2.875 66.267-16.567 16.995-33.99c10.292-20.583 11.549-44.52 3.469-66.066z" fill="#ff546a"/><path d="m431.601 312.315h-38.199c-8.098 0-15.01-5.855-16.341-13.843l-5.976-35.857v-5h82.833v5l-5.976 35.857c-1.331 7.988-8.242 13.843-16.341 13.843z" fill="#c68a65"/><circle cx="57.2" cy="57.2" fill="#ffc144" r="49.7"/><g fill="#f3f0f1"><path d="m264.284 40.633h-.073c-2.6.004-5.014-1.258-6.577-3.335-6.045-8.034-15.655-13.231-26.483-13.231-14.402 0-26.658 9.189-31.225 22.024-.597 1.677-2.143 2.826-3.923 2.826h-1.631c-11.229 0-20.792 8.732-21.191 19.953-.419 11.781 9.007 21.463 20.695 21.463h69.849c13.932 0 25.669-11.401 25.405-25.33-.257-13.503-11.283-24.37-24.846-24.37z"/><path d="m65.483 156.6h.073c2.6.004 5.014-1.258 6.577-3.335 6.045-8.034 15.655-13.231 26.483-13.231 14.402 0 26.658 9.189 31.225 22.024.597 1.677 2.143 2.826 3.923 2.826h1.631c11.229 0 20.792 8.732 21.191 19.953.419 11.781-9.007 21.463-20.695 21.463h-69.848c-13.932 0-25.669-11.401-25.405-25.33.256-13.503 11.282-24.37 24.845-24.37z"/><path d="m442.335 163.215 7.651-33.99c4.633-20.582 5.198-44.52 1.561-66.066-3.508-20.776-10.624-37.553-19.752-46.565-12.282-12.126-26.302-12.126-38.584 0-9.128 9.012-16.245 25.789-19.752 46.565-3.637 21.546-3.072 45.484 1.561 66.066l7.651 33.99 29.832 16.567z"/></g><path d="m443.017 196.349h-82.031c-3.801 0-7.114-2.587-8.036-6.274l-6.715-26.859h111.532l-6.715 26.859c-.921 3.687-4.235 6.274-8.035 6.274z" fill="#dcf3fe"/><path d="m207.151 326.07 7.673-3.764v-27.6l-43.577-52.292c-3.312-3.974-9.415-3.974-12.727 0l-59.641 71.569 59.475-7.449c4.272-.535 8.584.614 12.024 3.204l19.512 14.692c4.985 3.755 11.658 4.388 17.261 1.64z" fill="#dcf3fe"/><path d="m430.919 257.615v5l-5.976 35.857c-1.331 7.988-8.243 13.843-16.341 13.843h23c8.099 0 15.01-5.855 16.341-13.843l5.976-35.857v-5z" fill="#bd7460"/><path d="m57.2 7.5c-3.96 0-7.807.477-11.5 1.352 21.901 5.191 38.2 24.86 38.2 48.348s-16.299 43.157-38.2 48.348c3.693.875 7.54 1.352 11.5 1.352 27.449 0 49.7-22.251 49.7-49.7s-22.251-49.7-49.7-49.7z" fill="#ffa844"/><path d="m264.284 40.633h-.073c-2.6.004-5.014-1.258-6.577-3.335-6.045-8.034-15.655-13.231-26.483-13.231-4.035 0-7.891.744-11.467 2.064 5.995 2.228 11.17 6.143 14.95 11.167 1.563 2.078 3.977 3.339 6.577 3.335h.073c13.564 0 24.589 10.867 24.845 24.37.264 13.929-11.473 25.33-25.405 25.33h23c13.932 0 25.669-11.401 25.405-25.33-.256-13.503-11.282-24.37-24.845-24.37z" fill="#ede1e5"/><path d="m156.587 184.837c-.399-11.222-9.962-19.953-21.191-19.953h-1.631c-1.78 0-3.326-1.149-3.923-2.826-4.567-12.835-16.823-22.024-31.225-22.024-4.056 0-7.942.73-11.533 2.064 9.188 3.393 16.471 10.721 19.758 19.96.596 1.677 2.143 2.826 3.923 2.826h1.631c11.229 0 20.792 8.732 21.191 19.953.419 11.781-9.007 21.463-20.695 21.463h23c11.687 0 21.114-9.682 20.695-21.463z" fill="#ede1e5"/><path d="m455.769 163.215-6.715 26.859c-.922 3.687-4.235 6.274-8.036 6.274h23c3.801 0 7.114-2.587 8.036-6.274l6.715-26.859z" fill="#c0defa"/><path d="m405.349 8.708c8.874 1.346 17.612 3.838 26.001 7.462-5.774-5.545-11.92-8.428-18.082-8.649-.429-.003-.858-.009-1.288-.007-2.217.055-4.433.451-6.631 1.194z" fill="#ede1e5"/><path d="m434.201 262.615h-63.399c-4.418 0-8-3.582-8-8v-17.133c0-4.418 3.582-8 8-8h63.399c4.418 0 8 3.582 8 8v17.133c0 4.419-3.582 8-8 8z" fill="#dcf3fe"/><path d="m454.202 229.482h-23c4.418 0 8 3.582 8 8v17.133c0 4.418-3.582 8-8 8h23c4.418 0 8-3.582 8-8v-17.133c0-4.418-3.582-8-8-8z" fill="#c0defa"/><path d="m284.925 471.367 103.609 33.133h99.4c9.15 0 16.567-7.417 16.567-16.567v-49.7c0-18.299-14.834-33.133-33.133-33.133h-186.443z" fill="#6fd7a3"/><path d="m24.067 504.5c-9.15 0-16.567-7.417-16.567-16.567v-82.833c0-18.299 14.834-33.133 33.133-33.133h112.091c83.432 0 161.994 39.281 212.053 106.027l19.88 26.507h-360.59z" fill="#bbf49b"/><path d="m471.367 405.1h-23c18.299 0 33.133 14.834 33.133 33.133v49.7c0 9.15-7.417 16.567-16.567 16.567h23c9.149 0 16.567-7.417 16.567-16.567v-49.7c0-18.299-14.834-33.133-33.133-33.133z" fill="#3ec3a4"/><path d="m368.654 477.993c-50.059-66.745-128.622-106.026-212.054-106.026h-23c83.432 0 161.994 39.281 212.053 106.027l19.88 26.507h23z" fill="#9be69d"/><path d="m231.15 314.298-59.903-71.884c-3.312-3.974-9.415-3.974-12.727 0l-5.137 6.164 61.44 73.728z" fill="#c0defa"/></g><g><path d="m471.367 397.6h-50.267l-112.384-112.553c-2.982-2.986-6.948-4.631-11.169-4.631-4.22 0-8.186 1.644-11.167 4.63l-38.073 38.124-71.298-85.558c-3.007-3.609-7.426-5.679-12.124-5.679-.001 0-.001 0-.001 0-4.697 0-9.117 2.07-12.126 5.679l-105.711 126.855h-6.414c-22.405 0-40.633 18.228-40.633 40.633v82.833c0 13.271 10.796 24.067 24.067 24.067h21.573c4.143 0 7.5-3.358 7.5-7.5s-3.357-7.5-7.5-7.5h-21.573c-4.999 0-9.066-4.067-9.066-9.067v-82.833c0-14.134 11.499-25.633 25.633-25.633h115.966c80.641 0 157.67 38.515 206.054 103.026l10.88 14.507h-292.894c-4.142 0-7.5 3.358-7.5 7.5s3.358 7.5 7.5 7.5h307.891.009.006 99.388c13.27 0 24.066-10.796 24.066-24.067v-49.7c0-22.405-18.227-40.633-40.633-40.633zm-161.036 0-38.113-45.736 19.395-4.128c2.563-.547 5.232.043 7.327 1.615l14.685 11.014c4.303 3.227 9.371 4.796 14.411 4.796 6.818 0 13.581-2.872 18.312-8.398l5.898-6.89 47.656 47.728h-89.571zm-13.337-101.954c.304-.306.805-.304 1.107 0l43.514 43.58-6.662 7.782c-3.101 3.622-8.518 4.216-12.328 1.357l-14.685-11.014c-5.56-4.171-12.649-5.733-19.45-4.286l-27.126 5.774-3.414-4.097zm-132.713-48.43c.059-.07.236-.283.604-.283.366 0 .543.212.602.282l53.793 64.552-15.431 7.569c-3.085 1.513-6.703 1.168-9.446-.897l-19.513-14.692c-5.024-3.783-11.23-5.439-17.467-4.655l-40.61 5.086zm-7.681 117.251h-90.027l36.174-43.409 56.54-7.082c2.352-.296 4.687.329 6.579 1.753l19.513 14.692c4.27 3.216 9.341 4.859 14.455 4.859 3.607 0 7.235-.817 10.62-2.478l18.708-9.176 61.644 73.973h-4.002c-2.747-1.496-5.512-2.959-8.309-4.358-37.65-18.824-79.8-28.774-121.895-28.774zm340.4 123.466c0 5-4.067 9.067-9.066 9.067h-95.65l-17.63-23.507c-17.654-23.539-39.224-44.169-63.462-60.893h160.176c14.134 0 25.633 11.499 25.633 25.633v49.7z"/><path d="m57.2 114.4c31.54 0 57.2-25.66 57.2-57.2s-25.66-57.2-57.2-57.2-57.2 25.66-57.2 57.2 25.66 57.2 57.2 57.2zm0-99.4c23.269 0 42.2 18.931 42.2 42.2s-18.931 42.2-42.2 42.2-42.2-18.931-42.2-42.2 18.931-42.2 42.2-42.2z"/><path d="m193.875 97.834h69.849c8.819 0 17.441-3.632 23.653-9.964 6.129-6.246 9.414-14.417 9.251-23.009-.332-17.495-14.842-31.728-32.345-31.728-.004 0-.081 0-.085 0-.196 0-.41-.129-.572-.345-7.757-10.309-19.594-16.222-32.476-16.222-16.381 0-31.151 9.898-37.456 24.857-14.986.353-27.484 12.41-28.009 27.179-.275 7.732 2.527 15.051 7.891 20.609 5.366 5.561 12.575 8.623 20.299 8.623zm.496-41.417h1.631c4.91 0 9.326-3.139 10.989-7.811 3.626-10.191 13.335-17.039 24.159-17.039 8.124 0 15.593 3.732 20.489 10.241 2.982 3.962 7.676 6.326 12.548 6.326h.023.073c9.388 0 17.169 7.631 17.347 17.012.087 4.532-1.675 8.871-4.96 12.219-3.41 3.476-8.129 5.469-12.946 5.469h-69.849c-3.617 0-6.992-1.434-9.505-4.038-2.512-2.602-3.823-6.032-3.694-9.66.249-7.013 6.393-12.719 13.695-12.719z"/><path d="m66.141 148.755c-.162.216-.376.345-.583.345h-.001-.073c-17.503 0-32.013 14.233-32.345 31.727-.162 8.592 3.123 16.764 9.252 23.01 6.213 6.331 14.834 9.962 23.652 9.962h69.849c7.725 0 14.933-3.061 20.299-8.621 5.363-5.557 8.166-12.876 7.892-20.609-.525-14.77-13.023-26.826-28.01-27.179-6.305-14.959-21.075-24.858-37.456-24.858-12.881.001-24.718 5.914-32.476 16.223zm56.636 15.818c1.663 4.672 6.079 7.811 10.988 7.811h1.631c7.303 0 13.446 5.706 13.696 12.719.129 3.627-1.184 7.058-3.695 9.66-2.513 2.604-5.888 4.037-9.505 4.037h-69.849c-4.817 0-9.535-1.993-12.945-5.468-3.285-3.348-5.047-7.688-4.961-12.22.178-9.38 7.959-17.012 17.347-17.012h.085c4.883 0 9.576-2.364 12.559-6.326 4.896-6.508 12.365-10.241 20.489-10.241 10.824 0 20.533 6.847 24.16 17.04z"/><path d="m339.158 165.831 6.516 26.062c1.256 5.024 4.828 8.954 9.405 10.8l6.757 22.168c-3.947 2.812-6.534 7.416-6.534 12.621v17.133c0 6.305 3.789 11.732 9.205 14.151l5.156 30.939c1.942 11.652 11.926 20.11 23.739 20.11h38.198c11.813 0 21.797-8.457 23.74-20.11l5.156-30.939c5.416-2.419 9.205-7.846 9.205-14.151v-17.133c0-5.205-2.587-9.809-6.535-12.621l6.757-22.167c4.577-1.846 8.15-5.776 9.406-10.8l6.516-26.062 16.626-33.252c11.186-22.371 12.564-48.633 3.781-72.053-8.441-22.511-25.883-41.022-47.852-50.785-29.17-12.964-62.629-12.964-91.799 0-7.572 3.365-14.646 7.757-21.021 13.054-3.186 2.647-3.623 7.375-.976 10.561s7.375 3.624 10.562.977c5.316-4.417 11.213-8.079 17.527-10.885 2.631-1.169 5.304-2.209 8.007-3.135-6.712 10.408-11.793 24.739-14.639 41.598-3.781 22.397-3.184 47.532 1.64 68.961l5.592 24.843h-22.423l-14.922-29.844c-9.327-18.654-10.477-40.551-3.154-60.077.789-2.102 1.682-4.191 2.651-6.208 1.796-3.733.225-8.214-3.508-10.01-3.731-1.796-8.215-.226-10.01 3.508-1.163 2.418-2.232 4.922-3.178 7.442-8.782 23.419-7.404 49.681 3.782 72.053zm115.044 71.151c.275 0 .5.224.5.5v17.133c0 .276-.225.5-.5.5h-83.4c-.275 0-.5-.224-.5-.5v-17.133c0-.276.225-.5.5-.5zm-77.562-15-5.527-18.133h82.779l-5.527 18.133zm63.905 75.257c-.732 4.39-4.494 7.576-8.944 7.576h-38.198c-4.45 0-8.211-3.186-8.943-7.576l-4.521-27.124h65.126zm51.663-231.446c7.323 19.528 6.174 41.425-3.152 60.078l-14.922 29.844h-22.424l5.593-24.843c4.822-21.427 5.42-46.562 1.64-68.961-2.846-16.859-7.927-31.19-14.639-41.598 2.703.926 5.376 1.966 8.007 3.135 18.316 8.141 32.858 23.575 39.897 42.345zm-109.872 61.785c-4.412-19.599-4.952-42.623-1.483-63.17 3.229-19.123 9.653-34.605 17.627-42.476 9.304-9.186 18.741-9.186 28.045 0 7.974 7.872 14.398 23.354 17.627 42.476 3.469 20.55 2.928 43.575-1.483 63.171l-6.334 28.137h-47.665zm86.827 43.137-4.386 17.54c-.087.349-.399.593-.76.593h-103.031c-.359 0-.672-.244-.759-.593l-4.386-17.54z"/><path d="m87.353 440.106c1.644-1.643 4.316-1.645 5.962 0 2.928 2.929 7.677 2.928 10.606 0 2.929-2.929 2.929-7.678-.001-10.607-7.49-7.491-19.682-7.489-27.174 0-.796.796-1.853 1.234-2.979 1.234s-2.184-.439-2.98-1.235c-3.629-3.629-8.454-5.627-13.586-5.627-5.133 0-9.958 1.999-13.587 5.628-2.929 2.929-2.929 7.678.001 10.607 2.928 2.929 7.677 2.928 10.606 0 .796-.796 1.854-1.234 2.98-1.234 1.125 0 2.184.438 2.979 1.234 3.629 3.629 8.454 5.628 13.587 5.628 5.133-.001 9.958-2 13.586-5.628z"/><path d="m186.754 473.239c.796-.796 1.854-1.234 2.98-1.234s2.184.438 2.98 1.235c3.629 3.629 8.454 5.627 13.586 5.627 5.133 0 9.958-1.999 13.586-5.627 1.644-1.643 4.316-1.644 5.962 0 2.928 2.929 7.677 2.928 10.606-.001s2.929-7.678-.001-10.607c-7.49-7.491-19.682-7.49-27.174.001-.796.796-1.854 1.234-2.979 1.234s-2.184-.439-2.98-1.234c-3.629-3.629-8.454-5.628-13.587-5.628s-9.958 1.999-13.587 5.628c-2.929 2.929-2.929 7.678.001 10.607 2.928 2.928 7.677 2.928 10.607-.001z"/><path d="m454.8 440.438c-5.132 0-9.957 1.999-13.587 5.628-.796.796-1.854 1.234-2.98 1.234s-2.184-.439-2.98-1.235c-7.488-7.489-19.681-7.49-27.173 0-2.93 2.929-2.93 7.678-.001 10.607 2.929 2.928 7.678 2.929 10.606 0 1.644-1.643 4.317-1.644 5.961 0 3.629 3.629 8.454 5.628 13.587 5.628s9.958-1.999 13.586-5.627c.797-.796 1.855-1.235 2.98-1.235 1.126 0 2.184.439 2.98 1.234 2.929 2.928 7.678 2.929 10.606 0 2.93-2.929 2.93-7.678.001-10.607-3.628-3.628-8.453-5.627-13.586-5.627z"/></g></g></svg>