<svg id="Capa_1" enable-background="new 0 0 512 512" height="512" viewBox="0 0 512 512" width="512" xmlns="http://www.w3.org/2000/svg"><g><g><path d="m322.267 48.496c0-6.967-4.358-13.189-10.905-15.569l-64.458-23.44c-9.905-3.602-20.933-2.276-29.702 3.57l-28.375 18.917c-4.609 3.073-7.377 8.245-7.377 13.784v44.568l-47.943 20.547c-6.091 2.611-10.041 8.6-10.041 15.227v68.252c0 7.131-4.563 13.462-11.328 15.716l-30.002 10.001c-5.232 1.744-9.254 5.977-10.726 11.293l-15.242 54.924 11.988 19.406h163.486l90.625-182.233z" fill="#dcf3fe"/><g><path d="m311.361 32.926-21.178-7.701c5.517 2.794 9.083 8.471 9.083 14.767v129.717l23-46.25v-74.963c.001-6.967-4.358-13.189-10.905-15.57z" fill="#c0defa"/></g><path d="m441.854 239.289c-2.261-5.086-6.925-8.698-12.415-9.613l-29.481-4.914c-6.861-1.144-12.277-6.451-13.559-13.288l-20.182-107.636c-1.469-7.835-8.311-13.514-16.283-13.514h-73.004c-7.468 0-14.012 4.996-15.981 12.2l-8.975 32.845 1.631 8.154-5.889 7.426-38.283 4.346c-6.866.78-12.527 5.739-14.203 12.443l-11.574 46.297c-1.374 5.495-5.46 9.908-10.833 11.699l-32.371 10.79c-5.414 1.805-9.518 6.269-10.862 11.815l-13.542 57.352h214.502 80.356l52.193-18.606z" fill="#dcf3fe"/><g><g><g><path d="m343.217 103.839 19.434 103.649c1.282 6.837 6.698 12.145 13.56 13.288l22.305 3.674c-6.168-1.601-10.926-6.626-12.117-12.975l-20.182-107.636c-1.469-7.835-8.311-13.514-16.283-13.514h-23c7.972.001 14.814 5.679 16.283 13.514z" fill="#c0defa"/></g></g></g><path d="m440.097 295.286 23.002-8.2-21.244-47.797c-2.261-5.086-6.925-8.698-12.415-9.613l-22.455-3.743c4.396 1.453 8.031 4.692 9.942 8.994l23.172 52.158v2.039z" fill="#c0defa"/><path d="m493.7 274.364c-3.516 1.211-6.873 3.03-9.909 5.459-6.049 4.839-13.371 7.26-20.693 7.263l-52.193 18.606h-342.749l-11.987-19.406v-.026c-9.574 2.143-19.896.015-27.96-6.437-3.036-2.429-6.392-4.249-9.909-5.459-5.303-1.826-10.8 2.284-10.8 7.893v155.969l23.665 37.721h450.335l23-37.721v-155.969c0-5.609-5.497-9.719-10.8-7.893z" fill="#64caff"/><path d="m481.5 475.946 23-37.721v-155.968c0-5.608-5.497-9.719-10.8-7.893-3.516 1.211-6.873 3.03-9.909 5.459-.759.607-1.539 1.176-2.336 1.708.021.24.044.479.044.726v193.689z" fill="#00b8ff"/><path d="m434.865 275.306c-11.051-4.799-24.137-3.299-33.907 4.517-12.107 9.685-29.31 9.685-41.417 0-12.107-9.686-29.31-9.686-41.417 0-12.107 9.685-29.31 9.685-41.417 0-12.107-9.686-29.31-9.686-41.417 0-12.107 9.685-29.31 9.685-41.417 0-12.107-9.686-29.31-9.686-41.417 0-12.107 9.685-29.31 9.685-41.417 0-12.107-9.686-29.31-9.686-41.417 0-4.042 3.234-8.657 5.363-13.457 6.437v.026l.609 40.803c.243 16.3 12.307 30.001 28.444 32.306l87.944 12.562 7.41 14.82c5.613 11.225 17.085 18.316 29.635 18.316h106.19c13.548 0 25.732-8.249 30.764-20.828l11.549-28.872 90.405-14.35c8.044-1.277 13.967-8.212 13.97-16.357l.006-21.15z" fill="#00b8ff"/><path d="m427.22 344.518 21.898-3.476c8.044-1.277 13.967-8.212 13.97-16.357l.011-35.56v-2.039c-7.332.004-14.666-2.417-20.723-7.263-2.337-1.87-4.866-3.369-7.51-4.517l3.854 8.677c.909 2.046 1.378 4.258 1.378 6.497-.002 9.876-.01 37.908-.01 37.908-.003 7.766-5.393 14.421-12.868 16.13z" fill="#00a2ff"/><path d="m481.5 447.166c-11.914 7.971-27.763 7.413-39.125-1.676-12.107-9.685-29.31-9.685-41.417 0-12.107 9.685-29.31 9.685-41.417 0s-29.31-9.685-41.417 0c-12.107 9.685-29.31 9.685-41.417 0s-29.31-9.685-41.417 0c-12.107 9.685-29.31 9.685-41.417 0-12.107-9.685-29.31-9.685-41.417 0s-29.31 9.685-41.417 0c-12.107-9.685-29.31-9.685-41.417 0s-29.31 9.685-41.417 0c-6.053-4.843-13.381-7.264-20.708-7.264v49.7c0 9.149 7.417 16.567 16.567 16.567h463.867c9.149 0 16.567-7.417 16.567-16.567v-17.76z" fill="#00b8ff"/><path d="m483.792 445.49c-.745.596-1.51 1.154-2.292 1.676v40.76c0 9.149-7.417 16.567-16.567 16.567h23c9.149 0 16.567-7.417 16.567-16.567v-49.7c-7.328 0-14.655 2.421-20.708 7.264z" fill="#00a2ff"/></g><path d="m505.34 269.342c-4.096-2.922-9.36-3.695-14.081-2.07-4.408 1.518-8.497 3.77-12.152 6.694-3.402 2.722-7.294 4.446-11.319 5.205l-19.079-42.929c-3.293-7.41-10.036-12.63-18.036-13.964l-29.481-4.913c-3.74-.623-6.722-3.546-7.42-7.273l-20.182-107.635c-2.133-11.375-12.081-19.631-23.655-19.631h-20.167v-34.33c0-10.083-6.367-19.172-15.842-22.618l-64.459-23.439c-12.099-4.4-25.714-2.763-36.425 4.378l-28.375 18.917c-6.711 4.474-10.717 11.96-10.717 20.024v39.622l-43.397 18.599c-8.861 3.797-14.586 12.48-14.586 22.121v19.077c0 4.142 3.358 7.5 7.5 7.5s7.5-3.358 7.5-7.5v-19.077c0-3.632 2.157-6.903 5.495-8.334l37.488-16.066v21.759c0 4.142 3.358 7.5 7.5 7.5s7.5-3.358 7.5-7.5v-77.701c0-3.038 1.509-5.858 4.037-7.544l28.375-18.917c6.756-4.504 15.346-5.537 22.979-2.762l64.457 23.439c3.57 1.298 5.968 4.723 5.968 8.521v34.33h-37.836c-10.818 0-20.364 7.288-23.215 17.723l-11.893 43.523-33.235 3.773c-9.92 1.126-18.212 8.391-20.633 18.076l-9.736 38.945-10.081-6.721c-2.528-1.685-4.037-4.505-4.037-7.543v-40.834c0-4.142-3.358-7.5-7.5-7.5s-7.5 3.358-7.5 7.5v40.834c0 8.065 4.006 15.551 10.717 20.024l11.479 7.652c-.276.124-.554.245-.845.342l-32.371 10.79c-7.915 2.639-13.814 9.055-15.79 17.206l-6.473 27.416c-.03-.023-.061-.043-.09-.066-13.962-11.169-33.095-11.904-47.741-2.214l10.653-38.388c.808-2.913 3.002-5.224 5.871-6.18l30.001-10.001c9.843-3.281 16.457-12.456 16.457-22.831v-14.175c0-4.142-3.358-7.5-7.5-7.5s-7.5 3.358-7.5 7.5v14.175c0 3.909-2.491 7.365-6.2 8.601l-30.001 10.001c-7.614 2.538-13.44 8.671-15.582 16.402l-13.935 50.215c-6.091.32-12.267-1.535-17.355-5.605-3.655-2.924-7.744-5.176-12.152-6.693-4.722-1.626-9.986-.852-14.082 2.069-4.171 2.975-6.661 7.803-6.661 12.916v205.669c0 13.271 10.796 24.067 24.067 24.067h21.573c4.142 0 7.5-3.358 7.5-7.5s-3.358-7.5-7.5-7.5h-21.573c-5 0-9.067-4.067-9.067-9.067v-41.05c3.08.944 5.987 2.441 8.523 4.47 14.95 11.96 35.834 11.961 50.787 0 9.435-7.547 22.612-7.546 32.046 0 14.951 11.961 35.836 11.961 50.788 0 9.434-7.548 22.611-7.547 32.046 0 14.952 11.961 35.836 11.961 50.787 0 9.434-7.547 22.612-7.548 32.046 0 7.477 5.981 16.434 8.972 25.394 8.971 8.958-.001 17.919-2.991 25.394-8.971 9.435-7.547 22.612-7.546 32.046 0 14.951 11.961 35.836 11.961 50.788 0 9.434-7.548 22.611-7.547 32.046 0 14.951 11.961 35.835 11.962 50.787 0 2.537-2.029 5.444-3.527 8.523-4.47v41.05c0 5-4.067 9.067-9.067 9.067h-407.294c-4.142 0-7.5 3.358-7.5 7.5s3.358 7.5 7.5 7.5h407.293c13.271 0 24.067-10.796 24.067-24.067v-205.669c0-5.113-2.49-9.941-6.66-12.915zm-368.461-19.235c.74-3.055 2.962-5.473 5.944-6.466l32.371-10.79c7.848-2.616 13.731-8.969 15.737-16.995l11.574-46.297c.912-3.648 4.036-6.385 7.773-6.809l47.762-5.422c4.375-.498 8.456 2.204 9.712 6.42l4.561 15.311c1.584 5.319 5.913 9.46 11.298 10.806l21.16 5.29c2.571.643 4.725 2.371 5.911 4.741l13.159 26.318c1.852 3.705 6.357 5.208 10.062 3.354 3.705-1.852 5.207-6.357 3.354-10.062l-13.159-26.319c-3.147-6.292-8.865-10.879-15.689-12.584l-21.16-5.29c-.267-.067-.482-.272-.561-.536l-4.561-15.311c-3.189-10.708-13.249-17.714-24.278-17.146l10.334-37.816c1.074-3.931 4.67-6.676 8.746-6.676h73.004c4.36 0 8.108 3.11 8.912 7.396l20.182 107.635c1.854 9.892 9.771 17.65 19.698 19.305l29.48 4.913c3.014.503 5.555 2.469 6.795 5.261l14.937 33.608c-.988-.594-1.955-1.238-2.878-1.976-14.951-11.961-35.837-11.961-50.787 0-9.434 7.547-22.611 7.547-32.047 0-14.951-11.961-35.836-11.96-50.787 0-9.434 7.547-22.611 7.547-32.046 0-14.951-11.961-35.836-11.961-50.787 0-9.435 7.547-22.612 7.546-32.046 0-14.951-11.961-35.837-11.961-50.787 0-5.225 4.18-11.597 6.034-17.847 5.584zm-30.523 35.572c1.848 1.478 3.787 2.772 5.793 3.885l-3.401 14.405c-.952 4.031 1.545 8.071 5.576 9.023.58.137 1.159.203 1.73.202 3.399 0 6.478-2.326 7.293-5.778l3.098-13.122c10.662 1.417 21.744-1.451 30.698-8.615 9.435-7.547 22.612-7.547 32.046 0 14.951 11.961 35.835 11.962 50.787 0 9.434-7.547 22.612-7.547 32.046 0 14.952 11.962 35.837 11.962 50.787 0 9.434-7.547 22.611-7.547 32.046 0 14.951 11.961 35.836 11.961 50.787 0 9.435-7.547 22.612-7.547 32.046 0 5.384 4.307 11.538 7.055 17.907 8.26l-.009 30.744c-.001 4.484-3.216 8.249-7.645 8.952l-77.36 12.28 8.348-20.87c1.539-3.846-.332-8.211-4.178-9.749-3.848-1.54-8.211.332-9.749 4.178l-24.802 62.006c-3.916 9.789-13.258 16.113-23.8 16.113h-106.19c-9.772 0-18.557-5.43-22.927-14.17l-7.273-14.546c-.075-.165-.156-.326-.242-.484l-16.461-32.921c-1.852-3.705-6.357-5.207-10.062-3.354-3.705 1.852-5.206 6.357-3.354 10.062l10.164 20.328-73.773-10.538c-12.562-1.794-21.816-12.306-22.006-24.993l-.525-35.158c3.721-1.472 7.282-3.519 10.558-6.14 9.435-7.547 22.612-7.547 32.047 0zm372.75 153.954c-9.434 7.547-22.611 7.547-32.046 0-14.951-11.961-35.837-11.961-50.787 0-9.434 7.547-22.612 7.547-32.047 0-14.951-11.961-35.836-11.961-50.787 0-9.434 7.547-22.611 7.548-32.046 0-14.951-11.961-35.836-11.961-50.787 0-9.433 7.547-22.611 7.547-32.046 0-14.951-11.961-35.837-11.961-50.787 0-9.434 7.547-22.612 7.547-32.047 0-14.952-11.961-35.836-11.961-50.787 0-9.435 7.547-22.612 7.547-32.046 0-5.208-4.167-11.385-6.967-17.894-8.195v-149.181c0-.382.232-.604.37-.703.252-.18.405-.126.488-.098 2.778.957 5.356 2.377 7.665 4.224 7.441 5.953 16.352 8.941 25.269 8.969l.486 32.553c.3 20.112 14.971 36.774 34.883 39.619l84.054 12.006 5.652 11.304c6.927 13.855 20.854 22.462 36.344 22.462h106.19c16.712 0 31.521-10.026 37.727-25.542l9.967-24.918 86.198-13.682c11.755-1.865 20.291-11.858 20.294-23.761l.009-30.754c6.359-1.208 12.504-3.954 17.88-8.255 2.309-1.847 4.887-3.268 7.665-4.224.083-.028.236-.082.488.098.138.099.37.321.37.703v149.181c-6.506 1.228-12.683 4.028-17.892 8.194z"/></g></svg>