<svg id="Capa_1" enable-background="new 0 0 512 512" height="512" viewBox="0 0 512 512" width="512" xmlns="http://www.w3.org/2000/svg"><g><g><g><path d="m257.408 158.103c-21.905 48.773-28.649 108.36-30.631 134.382v15.27h73.086c-2.16-21.662-1.369-94.328 7.564-155.288.253-1.724 0-30.082 0-30.082h-29.803z" fill="#c68a65"/></g><path d="m307.426 122.385h-23s.758 25.645.505 27.368c-8.933 60.96-10.229 136.34-8.069 158.002h23c-2.161-21.662-1.369-94.327 7.564-155.288.253-1.723 0-30.082 0-30.082z" fill="#bd7460"/><path d="m307.426 122.385h-29.803l-20.216 35.718c-3.361 7.483-6.361 15.221-9.046 23.053 1.498.253 3.02.387 4.553.387.729 0 1.468-.029 2.197-.088 19.999-1.598 37.394-7.842 50.791-17.88.479-3.735.986-7.443 1.523-11.108.254-1.723.001-30.082.001-30.082z" fill="#bd7460"/><path d="m282.675 94.947c-2.937-17.051-3.251-41.327 12.378-59.1 19.854-22.576 51.497-27.361 66.371-28.332 4.411-.288 8.726 3.793 8.401 7.939-.973 12.396-7.654 36.889-42.04 59.115 0 0 8.513 1.881 19.03 8.048 3.823 2.242 5.174 6.874 2.828 9.548-.894 1.02-1.929 2.152-3.095 3.356v31.884h-60.777z" fill="#6fd7a3"/><path d="m369.824 15.454c.325-4.146-3.989-8.227-8.401-7.939-4.914.321-11.663 1.064-19.208 2.721 2.774 1.42 4.837 4.427 4.608 7.474-.972 12.975-7.654 38.611-42.039 61.875 0 0 8.513 1.969 19.03 8.424 3.823 2.346 5.174 7.195 2.828 9.993-.894 1.067-1.929 2.253-3.095 3.513v25.888h23v-31.883c1.167-1.204 2.201-2.336 3.095-3.356 2.346-2.674.995-7.306-2.828-9.548-10.517-6.167-19.03-8.048-19.03-8.048 34.386-22.226 41.068-46.718 42.04-59.114z" fill="#3ec3a4"/><path d="m401.981 365.863v-14.645l7.911-27.69c2.059-7.208-.978-14.9-7.406-18.757l-18.193-10.916c-7.864-4.718-17.331-5.966-26.149-3.447l-27.524 7.864c-9.069 2.591-14.148 12.22-11.165 21.168l.523 1.571v44.851h82.003z" fill="#99b5c9"/><path d="m402.487 304.771-18.193-10.916c-7.864-4.718-17.331-5.966-26.149-3.447l-2.565.733c1.971.718 3.887 1.618 5.714 2.714l18.193 10.916c6.428 3.857 9.465 11.549 7.406 18.757l-7.911 27.69v14.644h23v-14.644l7.911-27.69c2.059-7.208-.979-14.9-7.406-18.757z" fill="#8aa3b5"/><g><path d="m420.31 376.859c-6.118-15.295-17.562-27.459-31.777-34.604l-281.629-7.322c-8.502 10.786-15.008 23.281-18.922 36.98l-4.983 17.439v35.974h342.05v-36.621z" fill="#ffe6b4"/><path d="m106.904 334.934 21.851 12.641c17.383 10.056 38.656 10.703 56.618 1.723 12.826-6.413 28.174-5.029 39.645 3.575 9.12 6.84 20.837 9.206 31.897 6.441l29.606-7.402c12.526-3.131 25.685-2.626 37.934 1.457 19.56 6.52 41.023 3.798 58.336-7.399l5.743-3.714c-7.445-3.742-15.649-6.107-24.247-6.823l-9.395-.783c-13.391-1.116-26.015-6.432-36.478-14.864-14.539-11.717-32.086-19.615-51.067-22.535l-13.142-2.022c-26.26-4.04-52.983-4.04-79.243 0-.635.098-1.269.201-1.901.31l-33.028 11.456c-12.834 6.97-24.106 16.492-33.129 27.939z" fill="#cbe558"/></g><path d="m420.31 376.859c-6.118-15.294-17.562-27.459-31.777-34.604l-24.749-.842c15.023 7.007 27.16 19.529 33.526 35.446l7.387 18.123-2.648 30.345h23v-36.621z" fill="#ffd0a1"/><path d="m106.904 334.934 21.851 12.641c17.383 10.056 38.656 10.703 56.618 1.723 12.826-6.413 28.174-5.029 39.645 3.575 9.12 6.84 20.837 9.206 31.897 6.441l29.606-7.402c12.526-3.131 25.685-2.626 37.934 1.457 19.56 6.52 41.023 3.798 58.336-7.399l5.743-3.714c-7.445-3.742-15.649-6.107-24.247-6.823l-9.395-.783c-13.391-1.116-26.015-6.432-36.478-14.864-14.539-11.717-32.086-19.615-51.067-22.535l-13.142-2.022c-26.26-4.04-52.983-4.04-79.243 0-.635.098-1.269.201-1.901.31l-33.028 11.456c-12.834 6.97-24.106 16.492-33.129 27.939z" fill="#bbf49b"/><path d="m382.79 345.97 5.743-3.714c-7.445-3.742-15.649-6.107-24.247-6.823l-9.395-.783c-13.391-1.116-26.015-6.432-36.478-14.864-14.539-11.717-32.086-19.615-51.067-22.535l-13.142-2.022c-3.296-.507-6.6-.95-9.909-1.33 20.845 4.807 38.048 15.354 51.118 25.887 10.463 8.432 23.087 13.748 36.478 14.864l9.395.783c13.202 1.1 25.476 6.091 35.496 13.982 2.048-1.046 4.058-2.184 6.008-3.445z" fill="#9be69d"/><path d="m302.56 114.583c13.65-10.316 39.425-25.323 65.733-16.857 28.619 9.209 45.62 36.323 52.44 49.577 2.023 3.931 0 9.515-3.932 10.869-11.756 4.049-36.882 7.685-70.973-14.992 0 0 1.668 8.557.204 20.661-.532 4.4-4.242 7.485-7.629 6.4-10.243-3.282-30.489-11.817-40.444-30.121z" fill="#bbf49b"/><path d="m481.5 476.432 23-38.198v-40.002c0-5.608-5.497-9.718-10.8-7.893-3.516 1.211-6.873 3.03-9.909 5.459-12.107 9.686-29.31 9.686-41.417 0-12.107-9.685-29.31-9.685-41.417 0-12.107 9.686-29.31 9.686-41.417 0-12.107-9.685-29.31-9.685-41.417 0-12.107 9.686-29.31 9.686-41.417 0-12.107-9.685-29.31-9.685-41.417 0-12.107 9.686-29.31 9.686-41.417 0-12.107-9.685-29.31-9.685-41.417 0-12.107 9.686-29.31 9.686-41.417 0-12.107-9.685-29.31-9.685-41.417 0-12.107 9.686-29.31 9.686-41.417 0-3.036-2.429-6.392-4.249-9.909-5.459-5.303-1.826-10.8 2.285-10.8 7.893v40.002l16.567 38.198z" fill="#64caff"/><path d="m481.5 476.432 23-38.198v-40.002c0-5.608-5.497-9.718-10.8-7.893-3.516 1.211-6.873 3.03-9.909 5.459-.759.608-1.539 1.176-2.336 1.708.021.24.044.48.044.726v78.2z" fill="#00b8ff"/><path d="m481.5 447.174c-11.914 7.971-27.763 7.413-39.125-1.676-12.107-9.685-29.31-9.685-41.417 0-12.107 9.686-29.31 9.686-41.417 0-12.107-9.685-29.31-9.685-41.417 0-12.107 9.686-29.31 9.686-41.417 0-12.107-9.685-29.31-9.685-41.417 0-12.107 9.686-29.31 9.686-41.417 0-12.107-9.685-29.31-9.685-41.417 0-12.107 9.686-29.31 9.686-41.417 0-12.107-9.685-29.31-9.685-41.417 0-12.107 9.686-29.31 9.686-41.417 0-6.053-4.843-13.381-7.264-20.708-7.264v49.7c0 9.149 7.417 16.567 16.567 16.567h463.867c9.149 0 16.567-7.417 16.567-16.567v-17.759z" fill="#00b8ff"/><path d="m483.792 445.498c-.745.596-1.51 1.154-2.292 1.676v40.759c0 9.149-7.417 16.567-16.567 16.567h23c9.149 0 16.567-7.417 16.567-16.567v-49.7c-7.327.001-14.655 2.422-20.708 7.265z" fill="#00a2ff"/><circle cx="57.2" cy="57.2" fill="#ffc144" r="49.7"/><path d="m57.2 7.5c-3.96 0-7.807.477-11.5 1.352 21.901 5.191 38.2 24.86 38.2 48.348s-16.299 43.157-38.2 48.348c3.693.875 7.54 1.352 11.5 1.352 27.449 0 49.7-22.251 49.7-49.7 0-27.448-22.251-49.7-49.7-49.7z" fill="#ffa844"/><path d="m479.65 24.067h-.073c-2.6.004-5.014-1.258-6.577-3.335-6.045-8.034-15.655-13.232-26.483-13.232-14.402 0-26.658 9.189-31.225 22.024-.597 1.677-2.143 2.826-3.923 2.826h-1.631c-11.229 0-20.792 8.732-21.191 19.953-.419 11.781 9.007 21.464 20.695 21.464h69.849c13.932 0 25.669-11.401 25.405-25.331-.256-13.502-11.282-24.369-24.846-24.369z" fill="#f3f0f1"/><path d="m98.617 40.634h.073c2.6.004 5.014-1.258 6.577-3.335 6.045-8.034 15.655-13.231 26.483-13.231 14.402 0 26.658 9.189 31.225 22.024.597 1.677 2.143 2.826 3.923 2.826h1.631c11.229 0 20.792 8.732 21.191 19.953.419 11.781-9.007 21.463-20.695 21.463h-69.849c-13.932 0-25.669-11.401-25.405-25.33.256-13.503 11.282-24.37 24.846-24.37z" fill="#f3f0f1"/><path d="m479.65 24.067h-.073c-2.6.004-5.014-1.258-6.577-3.336-6.045-8.033-15.655-13.231-26.483-13.231-4.035 0-7.891.744-11.467 2.065 5.995 2.228 11.17 6.142 14.95 11.167 1.563 2.078 3.977 3.34 6.577 3.336h.073c13.564 0 24.589 10.867 24.845 24.369.264 13.929-11.473 25.33-25.405 25.33h23c13.932 0 25.669-11.401 25.405-25.33-.255-13.503-11.281-24.37-24.845-24.37z" fill="#ede1e5"/><path d="m189.72 68.87c-.399-11.222-9.962-19.953-21.191-19.953h-1.631c-1.78 0-3.326-1.149-3.923-2.826-4.567-12.835-16.823-22.024-31.225-22.024-4.056 0-7.942.73-11.533 2.064 9.188 3.393 16.47 10.721 19.758 19.96.596 1.677 2.143 2.826 3.923 2.826h1.631c11.229 0 20.792 8.732 21.191 19.953.419 11.781-9.007 21.463-20.695 21.463h23c11.688.001 21.114-9.682 20.695-21.463z" fill="#ede1e5"/><path d="m306.783 127.592c1.32-2.727 1.01-5.959-.754-8.421-7.835-10.933-32.365-40.739-65.292-38.066-29.965 2.433-52.708 24.949-62.373 36.296-2.866 3.365-2.171 9.264 1.348 11.48 10.521 6.626 34.154 15.901 72.521 1.606 0 0-3.577 7.95-4.916 20.068-.486 4.405 2.421 8.256 5.967 7.972 12.869-1.028 41.497-6.135 53.499-30.935z" fill="#bbf49b"/><path d="m173.167 313.984v-16.567c0-9.149-7.417-16.567-16.567-16.567s-16.567 7.417-16.567 16.567v16.567z" fill="#bbf49b"/><g fill="#9be69d"><path d="m420.733 147.302c-6.82-13.254-23.821-40.367-52.44-49.577-9.525-3.065-18.976-3.043-27.811-1.292 1.6.348 3.204.775 4.811 1.292 28.619 9.209 45.62 36.323 52.44 49.577 2.022 3.931-.001 9.515-3.932 10.869-2.132.734-4.709 1.453-7.694 2.005 13.766 2.302 24.245.216 30.694-2.005 3.931-1.354 5.954-6.938 3.932-10.869z"/><path d="m306.029 119.171c-7.835-10.933-32.365-40.739-65.292-38.066-2.592.21-5.127.58-7.607 1.071 25.083 5.483 43.341 27.844 49.899 36.995 1.765 2.462 2.074 5.694.754 8.421-7.809 16.136-22.654 23.931-35.62 27.695 1.067 2.064 2.974 3.413 5.121 3.241 12.869-1.028 41.497-6.135 53.499-30.936 1.32-2.727 1.01-5.959-.754-8.421z"/></g></g><g><path d="m505.341 385.317c-4.096-2.923-9.362-3.697-14.083-2.069-4.41 1.518-8.498 3.771-12.15 6.694-9.435 7.546-22.614 7.546-32.047 0-5.026-4.021-10.724-6.684-16.64-8.002l-3.146-7.865c-3.891-9.727-9.651-18.28-16.794-25.308l6.624-23.178c2.984-10.45-1.44-21.655-10.76-27.249l-18.192-10.914c-9.607-5.766-21.297-7.307-32.068-4.228l-27.524 7.863c-6.371 1.82-11.583 6.051-14.675 11.912-.574 1.088-1.059 2.205-1.457 3.342-1.798-1.137-3.623-2.229-5.479-3.263-2.128-23.405-5.978-84.341 5.068-137.234 8.752 5.945 17.785 9.542 24.097 11.564 1.195.384 2.432.572 3.671.572 2.383 0 4.773-.698 6.89-2.056 3.703-2.373 6.246-6.545 6.805-11.158.341-2.827.526-5.485.604-7.919 30.496 16.06 53.467 12.469 65.16 8.441 3.836-1.321 6.974-4.412 8.606-8.479 1.727-4.298 1.563-9.005-.448-12.913-8.061-15.666-26.16-43.421-56.812-53.284-4.147-1.334-8.267-2.141-12.331-2.539-.028-.404-.065-.81-.131-1.215-.701-4.342-3.514-8.336-7.52-10.685-2.457-1.44-4.821-2.67-7.023-3.712 26.885-21.569 32.748-44.068 33.715-56.395.317-4.045-1.266-8.154-4.344-11.272-3.254-3.298-7.645-5.023-12.022-4.737-13.871.906-40.255 4.851-61.109 21.089-3.268 2.545-3.854 7.258-1.31 10.526 2.547 3.268 7.26 3.851 10.526 1.31 17.649-13.744 40.616-17.148 52.79-17.951.14.042.344.186.477.326-1.013 11.316-7.457 32.812-38.596 52.939-2.533 1.638-3.826 4.636-3.302 7.605.524 2.97 2.79 5.34 5.73 6.011.073.017 7.139 1.672 15.949 6.669-15.117 2.345-28.573 9.418-38.231 15.898-3.906-4.413-8.686-9.195-14.246-13.66-1.771-12.273-1.193-23.631 1.703-33 1.224-3.958-.992-8.157-4.949-9.381-3.962-1.225-8.158.993-9.381 4.949-2.549 8.245-3.659 17.318-3.343 27.094-9.808-4.869-21.067-7.834-33.513-6.826-32.092 2.605-56.05 25.495-67.476 38.909-2.85 3.346-4.084 7.891-3.384 12.469.662 4.332 3.01 8.057 6.444 10.221 10.462 6.589 32.003 15.329 65.366 6.655-.479 2.388-.906 5.018-1.218 7.849-.51 4.618 1.014 9.259 4.076 12.416.818.842 1.732 1.547 2.704 2.126-17.722 44.069-24.362 94.438-26.741 120.477-13.864-.276-27.742.53-41.535 2.411-3.858-8.155-12.162-13.811-21.766-13.811-13.271 0-24.067 10.797-24.067 24.067v5.23c-25.001 14.904-43.75 39.162-51.763 67.206l-3.832 13.414c-4.242 1.495-8.302 3.718-11.998 6.675-9.435 7.546-22.613 7.546-32.045.001-3.654-2.924-7.742-5.177-12.154-6.696-4.724-1.626-9.987-.852-14.081 2.07-4.171 2.973-6.66 7.802-6.66 12.913v89.703c0 13.27 10.797 24.066 24.067 24.066h21.573c4.142 0 7.5-3.357 7.5-7.5s-3.358-7.5-7.5-7.5h-21.573c-5 0-9.067-4.067-9.067-9.066v-41.05c3.08.944 5.986 2.441 8.523 4.47 14.952 11.962 35.837 11.961 50.787 0 9.435-7.547 22.612-7.547 32.046 0 14.951 11.961 35.836 11.961 50.788 0 9.434-7.547 22.611-7.547 32.046 0 14.952 11.962 35.837 11.961 50.787 0 9.434-7.547 22.612-7.547 32.046 0 14.953 11.961 35.837 11.961 50.788 0 9.434-7.547 22.612-7.547 32.046 0 7.477 5.982 16.434 8.972 25.394 8.971 8.958 0 17.919-2.99 25.394-8.971 9.434-7.547 22.612-7.549 32.046 0 14.951 11.961 35.835 11.961 50.788 0 2.536-2.029 5.443-3.526 8.522-4.47v41.05c0 4.999-4.067 9.066-9.066 9.066h-407.295c-4.142 0-7.5 3.357-7.5 7.5s3.358 7.5 7.5 7.5h407.294c13.27 0 24.066-10.796 24.066-24.066v-89.703c0-5.111-2.489-9.94-6.659-12.914zm-178.189-75.346c1.164-2.208 3.128-3.801 5.528-4.486l27.524-7.865c6.794-1.939 14.169-.969 20.23 2.668l18.191 10.914c3.512 2.107 5.179 6.33 4.055 10.267l-4.941 17.293c-9.717-6.024-20.897-9.808-32.831-10.802l-9.395-.783c-10.355-.864-20.346-4.575-29.131-10.774-.546-2.171-.286-4.43.77-6.432zm-86.697-66.213c2.057-11.797 4.721-24.541 8.155-37.462 12.498 4.138 26.542 7.344 41.929 9.568-.661 10.688-.949 21.115-.988 30.945-20.754.516-37.279-1.118-49.096-3.051zm22.171-78.86c9.694-1.662 22.626-5.355 33.754-13.55.891 1.152 1.817 2.259 2.77 3.324-3.602 14.961-5.963 30.69-7.441 46.207-14.367-2.124-27.41-5.143-38.944-9.006 2.851-9.146 6.116-18.228 9.861-26.975zm151.401-14.236c.017.146-.033.389-.109.566-10.78 3.582-33.063 6.241-63.936-14.295-2.512-1.669-5.775-1.661-8.291.004s-3.786 4.686-3.23 7.651c.014.074 1.365 7.466.188 17.825-9.037-3.143-22.831-9.625-31.367-21.566 2.343-2.972 4.459-6.283 6.253-9.99v-.001c2.248-4.645 2.042-10.06-.45-14.528 12.939-8.518 33.052-17.856 52.911-11.465 26.409 8.501 42.363 34.803 48.031 45.799zm-229.924-27.881c-.034-.19-.027-.439.022-.577 8.029-9.412 29.568-31.379 57.218-33.623 29.401-2.385 52.278 26.154 58.589 34.96.174.242.213.55.1.783-9.787 20.222-33.437 25.273-45.201 26.527 1.218-10.354 4.22-17.24 4.241-17.287 1.241-2.759.703-5.993-1.364-8.202-1.445-1.544-3.439-2.375-5.477-2.375-.878 0-1.764.154-2.617.472-34.746 12.947-55.834 5.27-65.511-.678zm53.991 135.779c13.514 2.209 28.347 3.352 43.829 3.352 2.57 0 5.157-.032 7.758-.094.277 13.355.948 25.04 1.62 33.997-7.357-2.757-14.999-4.774-22.813-5.976l-13.143-2.022c-6.796-1.045-13.616-1.827-20.448-2.347.676-7.307 1.694-16.515 3.197-26.91zm-103.498 60.579c1.367 1.441 3.295 2.345 5.438 2.345 4.142 0 7.5-3.357 7.5-7.5v-16.566c0-5 4.067-9.067 9.067-9.067 4.999 0 9.066 4.067 9.066 9.067v16.566c0 4.143 3.358 7.5 7.5 7.5s7.5-3.357 7.5-7.5v-12c24.051-3.254 48.383-3.037 72.398.658l13.142 2.022c17.378 2.673 33.804 9.921 47.502 20.962 11.877 9.571 25.902 15.275 40.561 16.497l9.395.783c2.439.203 4.835.561 7.185 1.048-13.779 6.275-29.393 7.175-44.021 2.298-13.624-4.54-28.189-5.1-42.125-1.618l-29.606 7.402c-8.909 2.227-18.231.345-25.578-5.165-13.834-10.375-32.035-12.016-47.5-4.283-15.754 7.875-34.262 7.314-49.508-1.507l-13.985-8.091c4.839-5.156 10.224-9.808 16.069-13.851zm-25.603 25.668 16.006 9.26c19.626 11.353 43.45 12.079 63.728 1.939 10.35-5.177 22.532-4.077 31.792 2.867 7.954 5.965 17.457 9.085 27.152 9.084 3.685 0 7.397-.45 11.063-1.366l29.606-7.402c11.164-2.789 22.83-2.342 33.743 1.296 21.839 7.279 45.45 4.286 64.779-8.216l2.039-1.318c10.868 6.462 19.529 16.404 24.446 28.695l.816 2.04c-6.362 1.207-12.51 3.953-17.889 8.257-9.435 7.547-22.612 7.547-32.046 0-14.953-11.961-35.838-11.961-50.787 0-9.436 7.546-22.613 7.545-32.047 0-14.951-11.962-35.835-11.962-50.787 0-9.434 7.546-22.611 7.546-32.046 0-14.951-11.962-35.835-11.962-50.787 0-9.434 7.546-22.612 7.546-32.047 0-6.688-5.35-14.563-8.3-22.563-8.863l2.03-7.104c2.986-10.456 7.689-20.305 13.799-29.169zm370.114 94.834c-9.435 7.547-22.613 7.549-32.046 0-14.951-11.961-35.835-11.961-50.788 0-9.433 7.546-22.61 7.547-32.045 0-14.953-11.961-35.837-11.961-50.788 0-9.434 7.547-22.612 7.547-32.046 0-14.951-11.961-35.836-11.959-50.787 0-9.433 7.547-22.611 7.548-32.046 0-14.951-11.961-35.837-11.961-50.787 0-9.434 7.547-22.612 7.547-32.047 0-14.951-11.961-35.835-11.961-50.787 0-9.434 7.547-22.611 7.548-32.046 0-5.208-4.167-11.385-6.967-17.894-8.195v-33.215c0-.382.232-.604.37-.703.251-.177.406-.126.487-.099 2.779.957 5.358 2.379 7.666 4.226 14.951 11.961 35.835 11.961 50.787 0 9.435-7.548 22.612-7.546 32.046 0 14.951 11.961 35.836 11.961 50.788 0 9.434-7.547 22.611-7.547 32.046 0 14.952 11.962 35.837 11.961 50.787 0 9.434-7.547 22.611-7.547 32.047 0 14.951 11.961 35.836 11.961 50.787 0 9.434-7.547 22.612-7.547 32.046 0 14.951 11.961 35.836 11.961 50.787 0 9.434-7.547 22.611-7.549 32.047 0 14.949 11.961 35.835 11.96 50.788-.001 2.307-1.846 4.885-3.268 7.663-4.224.082-.028.236-.08.488.098.138.099.37.321.37.703v33.215c-6.509 1.228-12.686 4.028-17.893 8.195z"/><path d="m409.241 81.267h69.85c8.818 0 17.439-3.632 23.652-9.963 6.129-6.246 9.414-14.418 9.251-23.009-.332-17.495-14.841-31.729-32.344-31.729-.004 0-.082 0-.086 0-.195 0-.409-.128-.571-.344-7.756-10.309-19.593-16.222-32.476-16.222-16.381 0-31.151 9.898-37.455 24.857-14.987.354-27.485 12.409-28.01 27.179-.275 7.733 2.527 15.052 7.891 20.609 5.365 5.56 12.574 8.622 20.298 8.622zm.497-41.417h1.631c4.91 0 9.326-3.139 10.989-7.811 3.627-10.191 13.335-17.039 24.159-17.039 8.125 0 15.594 3.732 20.49 10.24 2.98 3.963 7.674 6.326 12.547 6.326h.022.074c9.387 0 17.168 7.632 17.346 17.013.087 4.531-1.675 8.871-4.96 12.219-3.41 3.475-8.128 5.469-12.945 5.469h-69.85c-3.617 0-6.992-1.434-9.505-4.037-2.512-2.603-3.823-6.033-3.694-9.661.249-7.013 6.394-12.719 13.696-12.719z"/><path d="m57.2 114.401c15.128 0 29.579-6.019 40.262-16.615.57.03 1.142.047 1.714.047h69.849c7.725 0 14.934-3.062 20.299-8.621 5.363-5.558 8.165-12.876 7.891-20.608-.525-14.77-13.022-26.825-28.009-27.179-6.304-14.961-21.074-24.858-37.456-24.858-9.868 0-19.116 3.481-26.394 9.74-10.366-16.266-28.278-26.307-48.156-26.307-31.54 0-57.2 25.661-57.2 57.201s25.66 57.2 57.2 57.2zm74.55-82.834c10.824 0 20.533 6.848 24.159 17.037 1.662 4.674 6.078 7.813 10.989 7.813h1.631c7.302 0 13.446 5.706 13.696 12.72.129 3.627-1.183 7.057-3.694 9.658-2.513 2.604-5.889 4.038-9.506 4.038h-69.849c-4.817 0-9.536-1.993-12.946-5.469-3.285-3.348-5.047-7.688-4.961-12.219.178-9.367 7.938-16.99 17.306-17.013.057.001.102 0 .126.001 3.148 0 6.21-.994 8.792-2.754.288-.183.557-.386.813-.602 1.097-.854 2.101-1.838 2.953-2.971 4.898-6.507 12.367-10.239 20.491-10.239zm-74.55-16.567c14.399 0 27.397 7.144 35.104 18.763-14.55 2.93-25.74 15.759-26.031 31.098-.163 8.592 3.123 16.764 9.251 23.01 1.595 1.625 3.351 3.07 5.226 4.324-6.901 4.648-15.083 7.207-23.55 7.207-23.269 0-42.2-18.931-42.2-42.2s18.931-42.202 42.2-42.202z"/></g></g></svg>