<svg id="Capa_1" enable-background="new 0 0 512 512" height="512" viewBox="0 0 512 512" width="512" xmlns="http://www.w3.org/2000/svg"><g><g><g><path d="m504.5 313.983v-99.062c0-6.275-3.545-12.011-9.158-14.818-57.14-28.57-124.062-30.09-182.44-4.144l-33.746 14.998v116.41l202.344 11.466z" fill="#bbf49b"/><path d="m504.5 214.921c0-6.275-3.545-12.011-9.158-14.818-6.823-3.411-13.788-6.425-20.858-9.065 4.356 3.073 7.016 8.099 7.016 13.531v134.263l23-24.85z" fill="#9be69d"/></g><g><path d="m7.5 313.983v-93.703c0-5.945 3.185-11.434 8.347-14.384l44.649-25.513c40.41-23.092 88.179-29.681 133.332-18.393 40.218 10.055 75.75 33.647 100.623 66.811l57.674 76.899v66.267h-72.969z" fill="#bbf49b"/><path d="m294.451 228.801c-24.874-33.165-60.405-56.757-100.623-66.811-18.241-4.56-36.909-6.199-55.346-5.015 10.84.688 21.666 2.345 32.346 5.015 40.218 10.055 75.75 33.647 100.623 66.811l57.674 76.899v66.267h23v-66.267z" fill="#9be69d"/></g><g><path d="m190.302 279.813c1.79-1.24 3.223-2.976 4.256-4.938 5.823-11.062 17.424-18.607 30.794-18.607 12.952 0 24.251 7.078 30.239 17.577 2.044 3.583 5.96 5.666 10.085 5.618 1.12-.013 2.262.057 3.419.217 11.171 1.549 19.802 11.212 20.033 22.487.118 5.764-1.866 11.061-5.239 15.177v9.875h-91.889z" fill="#6fd7a3"/><path d="m160.988 282.283c4.366-3.813 10.068-6.134 16.321-6.134 9.251 0 17.322 5.056 21.6 12.555 1.46 2.559 4.257 4.047 7.203 4.013.8-.009 1.615.04 2.442.155 7.979 1.106 14.144 8.009 14.309 16.063.086 4.192-1.385 8.039-3.875 11.001v7.285h-55.912z" fill="#3ec3a4"/><path d="m62.445 317.346c-3.373-4.116-5.358-9.414-5.24-15.178.231-11.275 8.863-20.939 20.033-22.487 1.158-.16 2.299-.23 3.419-.217 4.125.048 8.041-2.035 10.085-5.618 5.989-10.499 17.287-17.577 30.239-17.577 13.37 0 24.971 7.545 30.794 18.607 1.445 2.746 3.676 5.05 6.57 6.17 8.984 3.477 15.265 12.373 14.797 22.689-.03.662-.091 1.318-.182 1.965v21.52z" fill="#6fd7a3"/></g><g><path d="m481.456 314.672c-11.909 7.939-27.733 7.37-39.081-1.708-12.107-9.685-29.31-9.685-41.417 0s-29.31 9.685-41.417 0-29.31-9.685-41.416 0c-12.107 9.685-29.31 9.685-41.417 0s-29.31-9.685-41.417 0c-12.107 9.685-29.31 9.685-41.417 0s-29.31-9.685-41.417 0-29.31 9.685-41.417 0c-12.107-9.685-29.31-9.685-41.417 0s-29.31 9.685-41.417 0c-3.036-2.429-6.392-4.249-9.909-5.459-5.303-1.826-10.8 2.285-10.8 7.893v40.002l49.7 96.31 186.192 24.721h238.111l23-38.198v-100.517z" fill="#64caff"/><path d="m481.5 476.431 23-38.198v-122.836c0-5.608-5.497-9.718-10.8-7.893-3.516 1.211-6.873 3.03-9.909 5.459-.759.607-1.539 1.176-2.336 1.708.021.24.044.48.044.726v161.034z" fill="#00b8ff"/><path d="m481.5 447.174c-11.914 7.971-27.763 7.413-39.125-1.676-12.107-9.685-29.31-9.685-41.417 0s-29.31 9.685-41.417 0-29.31-9.685-41.416 0c-12.107 9.685-29.31 9.685-41.417 0s-29.31-9.685-41.417 0c-12.107 9.685-29.31 9.685-41.417 0s-29.31-9.685-41.417 0-29.31 9.685-41.417 0c-12.107-9.685-29.31-9.685-41.417 0-3.753 3.003-7.997 5.07-12.426 6.211l.001.002 397.6 52.79h33.133c9.149 0 16.567-7.417 16.567-16.567v-17.759z" fill="#00b8ff"/><path d="m483.792 445.497c-.745.596-1.51 1.154-2.292 1.676v40.759c0 9.15-7.417 16.567-16.567 16.567h23c9.149 0 16.567-7.417 16.567-16.567v-49.7c-7.328.001-14.655 2.423-20.708 7.265z" fill="#00a2ff"/></g><path d="m405.747 443.328-60.967-27.304-38.899-5.664-17.087-.381c-16.72.891-27.464 3.405-27.464 3.405s-26.998 5.423-57.029 2.687c-9.822-.709-27.706-1.979-28.209-1.863-.695.16-33.289-16.724-33.289-16.724l-24.366-17.473-55.197-21.642-34.464-3.536h-11.388c-6.194.23-9.888.567-9.888.567v132.533c0 9.15 7.417 16.567 16.567 16.567h407.733l-1.26-17.891z" fill="#bbf49b"/><g fill="#9be69d"><path d="m117.033 388.533c22.833 26.601 65.431 29.465 93.579 27.996-24.997-1.399-53.389-7.969-70.579-27.996-28.993-33.778-97.131-34.649-122.646-33.7 31.428 1.143 77.234 7.589 99.646 33.7z"/><path d="m288.792 409.979c44.784 2.388 108.329 20.1 143.008 94.521h23c-41.212-88.442-123.201-96.802-166.008-94.521z"/></g><g><g fill="#f3f0f1"><path d="m479.65 24.067h-.073c-2.6.004-5.014-1.258-6.577-3.336-6.045-8.033-15.655-13.231-26.483-13.231-14.402 0-26.658 9.189-31.225 22.024-.597 1.677-2.143 2.826-3.923 2.826h-1.631c-11.229 0-20.792 8.732-21.191 19.953-.419 11.781 9.007 21.463 20.695 21.463h69.849c13.932 0 25.669-11.401 25.405-25.33-.257-13.502-11.282-24.369-24.846-24.369z"/><path d="m98.617 40.633h.073c2.6.004 5.014-1.258 6.577-3.335 6.045-8.034 15.655-13.231 26.483-13.231 14.402 0 26.658 9.189 31.225 22.024.597 1.677 2.143 2.826 3.923 2.826h1.631c11.229 0 20.792 8.732 21.191 19.953.419 11.781-9.007 21.463-20.695 21.463h-69.849c-13.932 0-25.669-11.401-25.405-25.331.256-13.502 11.282-24.369 24.846-24.369z"/></g></g><circle cx="305.7" cy="73.767" fill="#ffc144" r="49.7"/><g fill="#ede1e5"><path d="m479.65 24.067h-.073c-2.6.004-5.014-1.258-6.577-3.336-6.045-8.033-15.655-13.231-26.483-13.231-4.035 0-7.891.744-11.467 2.064 5.995 2.228 11.17 6.143 14.95 11.167 1.563 2.078 3.977 3.339 6.577 3.336h.073c13.564 0 24.589 10.867 24.845 24.369.264 13.929-11.473 25.33-25.405 25.33h23c13.932 0 25.669-11.401 25.405-25.33-.256-13.502-11.281-24.369-24.845-24.369z"/><path d="m189.72 68.87c-.399-11.222-9.962-19.953-21.191-19.953h-1.631c-1.78 0-3.326-1.149-3.923-2.826-4.567-12.835-16.823-22.024-31.225-22.024-4.056 0-7.942.73-11.533 2.064 9.188 3.393 16.47 10.721 19.758 19.96.597 1.677 2.143 2.826 3.923 2.826h1.631c11.229 0 20.792 8.732 21.191 19.953.419 11.781-9.007 21.463-20.695 21.463h23c11.687 0 21.114-9.682 20.695-21.463z"/></g><path d="m305.7 24.067c-3.96 0-7.807.477-11.5 1.352 21.901 5.191 38.2 24.86 38.2 48.348s-16.299 43.157-38.2 48.348c3.693.875 7.54 1.352 11.5 1.352 27.449 0 49.7-22.252 49.7-49.7 0-27.449-22.251-49.7-49.7-49.7z" fill="#ffa844"/></g><g><path d="m498.696 193.396c-59.363-29.682-128.192-31.245-188.839-4.29l-29.079 12.924c-23.622-22.825-53.032-39.291-85.131-47.315-33.065-8.267-67.776-7.387-100.383 2.546-3.962 1.206-6.196 5.397-4.989 9.36 1.207 3.962 5.396 6.198 9.36 4.989 30.005-9.139 61.946-9.949 92.374-2.343 38.426 9.607 72.677 32.349 96.442 64.036l48.658 64.873c-8.379.359-16.674 3.336-23.67 8.932-5.4 4.32-12.027 6.156-18.477 5.53 1.165-3.389 1.739-6.983 1.664-10.622-.306-14.916-11.7-27.711-26.501-29.762-1.501-.209-3.026-.309-4.538-.288-1.457-.018-2.827-.685-3.482-1.834-7.516-13.176-21.599-21.361-36.754-21.361-15.451 0-29.535 8.357-36.994 21.85-3.495-1.275-7.225-1.969-11.049-1.969-6.08 0-11.997 1.725-17.103 4.916-.674-.495-1.294-1.235-1.793-2.183-7.343-13.948-21.686-22.613-37.431-22.613-15.155 0-29.238 8.185-36.754 21.362-.655 1.148-1.993 1.81-3.484 1.833-1.504-.023-3.035.08-4.534.288-14.802 2.052-26.196 14.847-26.502 29.763-.075 3.639.499 7.233 1.664 10.622-6.45.626-13.076-1.209-18.477-5.53-3.655-2.924-7.744-5.176-12.152-6.693-1.865-.642-3.813-.896-5.741-.805v-79.332c0-3.246 1.75-6.262 4.568-7.873l44.649-25.514c1.446-.826 2.932-1.647 4.416-2.439 3.654-1.95 5.036-6.493 3.085-10.148s-6.495-5.037-10.148-3.085c-1.611.86-3.226 1.751-4.796 2.649l-44.649 25.513c-7.48 4.276-12.126 12.283-12.126 20.897v267.653c0 13.271 10.796 24.067 24.067 24.067h21.573c4.142 0 7.5-3.358 7.5-7.5s-3.358-7.5-7.5-7.5h-21.573c-5 0-9.067-4.067-9.067-9.067v-125.485c22.03-1.018 91.506-1.461 119.342 30.97 38.451 44.796 124.806 28.053 128.464 27.318.078-.016.155-.032.232-.05.325-.077 32.984-7.533 72.209-.482 48.209 8.665 84.264 34.488 107.353 76.796h-361.96c-4.142 0-7.5 3.358-7.5 7.5s3.358 7.5 7.5 7.5h407.293c13.271 0 24.067-10.796 24.067-24.067v-273.012c0-9.174-5.098-17.423-13.304-21.525zm-206.948 20.172 24.201-10.756c56.537-25.128 120.701-23.67 176.04 3.999 3.091 1.546 5.012 4.653 5.012 8.11v84.686c-1.929-.091-3.877.163-5.741.805-4.408 1.518-8.497 3.77-12.152 6.694-9.435 7.547-22.612 7.546-32.046 0-14.951-11.961-35.837-11.961-50.787 0-9.434 7.547-22.611 7.547-32.047 0-1.16-.928-2.36-1.776-3.587-2.56l-60.189-80.246c-2.771-3.693-5.68-7.267-8.704-10.732zm-66.396 50.201c9.781 0 18.871 5.285 23.725 13.793 3.355 5.88 9.735 9.501 16.684 9.401.758-.01 1.54.041 2.305.147 7.577 1.05 13.408 7.59 13.564 15.212.031 1.54-.175 3.061-.58 4.522-14.927-11.691-35.606-11.607-50.444.263-.111.089-.228.163-.34.249-.904-11.075-9.553-20.371-20.682-21.913-1.179-.164-2.374-.239-3.56-.226-.311.022-.547-.134-.602-.23-1.273-2.231-2.804-4.262-4.523-6.093.098-.175.202-.347.296-.525 4.74-9.006 13.996-14.6 24.157-14.6zm-32.959 28.65c2.781 4.875 8.061 7.84 13.805 7.797.44-.007.884.023 1.326.085 4.308.597 7.752 4.457 7.841 8.787.026 1.273-.222 2.522-.702 3.676-5.68.018-11.364-1.866-16.103-5.657-5.452-4.362-11.695-7.125-18.15-8.306-.695-5.484-2.839-10.608-6.135-14.88.996-.178 2.01-.272 3.034-.272 6.218 0 11.998 3.361 15.084 8.77zm-114.124-5.31c.763-.106 1.537-.152 2.301-.147 6.974.092 13.333-3.521 16.687-9.401 4.853-8.508 13.944-13.793 23.725-13.793 10.16 0 19.416 5.595 24.157 14.6 2.391 4.542 6.12 7.976 10.501 9.671 4.868 1.884 8.366 6.005 9.565 10.898-6.199 1.25-12.181 3.969-17.431 8.169-9.434 7.547-22.611 7.547-32.047 0-14.838-11.87-35.517-11.953-50.443-.263-.405-1.461-.611-2.982-.58-4.522.156-7.621 5.987-14.161 13.565-15.212zm181.5 118.937c-3.094.593-81.806 15.161-114.044-22.398-32.134-37.437-105.91-37.402-130.725-36.245v-32.006c0-.382.232-.604.37-.703.252-.18.405-.126.488-.098 2.778.957 5.356 2.377 7.665 4.224 14.951 11.961 35.835 11.962 50.787 0 9.434-7.547 22.611-7.547 32.046 0 14.951 11.961 35.836 11.961 50.787 0 9.435-7.547 22.612-7.547 32.046 0 14.951 11.961 35.835 11.962 50.787 0 9.434-7.547 22.612-7.547 32.046 0 14.952 11.962 35.837 11.961 50.787 0 9.434-7.547 22.611-7.547 32.046 0 14.951 11.961 35.836 11.961 50.787 0 9.435-7.547 22.612-7.547 32.046 0 14.951 11.961 35.836 11.961 50.787.001 2.309-1.847 4.887-3.268 7.665-4.225.083-.028.236-.082.488.098.138.099.37.321.37.703v116.049c-6.508 1.229-12.685 4.029-17.894 8.196-9.434 7.546-22.612 7.547-32.046 0-11.564-9.252-26.998-11.399-40.487-5.981-23.23-16.489-47.909-24.488-68.673-28.221-41.292-7.422-75.265-.046-78.129.606zm228.164 90.954h-28.423c-10.69-21.596-23.802-38.328-37.971-51.269 5.743-.029 11.453 1.864 16.151 5.623 7.477 5.981 16.433 8.972 25.394 8.971 8.957-.001 17.919-2.991 25.393-8.971 2.537-2.029 5.444-3.527 8.523-4.47v41.05c0 4.999-4.067 9.066-9.067 9.066z"/><path d="m409.242 81.267h69.849c8.819 0 17.44-3.631 23.652-9.963 6.129-6.246 9.414-14.418 9.251-23.01-.332-17.494-14.842-31.727-32.344-31.727-.004 0-.087.001-.085 0-.196 0-.41-.129-.572-.345-7.758-10.309-19.595-16.222-32.476-16.222-16.381 0-31.151 9.898-37.456 24.858-14.987.353-27.484 12.41-28.009 27.179-.275 7.732 2.527 15.051 7.891 20.609 5.365 5.559 12.574 8.621 20.299 8.621zm.496-41.417h1.631c4.912 0 9.328-3.14 10.989-7.812 3.626-10.191 13.334-17.038 24.159-17.038 8.125 0 15.593 3.732 20.49 10.241 2.982 3.962 7.675 6.326 12.547 6.326h.023.073c9.387 0 17.169 7.631 17.347 17.011.086 4.532-1.676 8.872-4.961 12.22-3.41 3.476-8.128 5.469-12.946 5.469h-69.849c-3.617 0-6.993-1.434-9.506-4.038-2.511-2.602-3.823-6.032-3.694-9.659.25-7.014 6.394-12.72 13.697-12.72z"/><path d="m99.176 97.834h69.849c7.725 0 14.934-3.062 20.299-8.622 5.363-5.558 8.165-12.877 7.891-20.608-.525-14.77-13.023-26.826-28.009-27.179-6.304-14.959-21.075-24.857-37.456-24.857-12.882 0-24.719 5.913-32.476 16.221-.163.216-.376.345-.583.345-.001 0-.001 0-.001 0h-.073c-17.502 0-32.012 14.233-32.344 31.727-.163 8.592 3.123 16.763 9.251 23.009 6.213 6.332 14.833 9.964 23.652 9.964zm-.559-49.701h.085c4.883 0 9.577-2.364 12.559-6.326 4.896-6.508 12.365-10.24 20.49-10.24 10.824 0 20.533 6.847 24.159 17.037 1.662 4.673 6.078 7.813 10.989 7.813h1.631c7.302 0 13.446 5.706 13.696 12.72.129 3.627-1.183 7.057-3.694 9.659-2.513 2.604-5.889 4.038-9.506 4.038h-69.85c-4.817 0-9.536-1.993-12.946-5.469-3.285-3.348-5.047-7.688-4.961-12.219.179-9.381 7.96-17.013 17.348-17.013z"/><path d="m305.7 130.967c31.54 0 57.2-25.66 57.2-57.2s-25.66-57.2-57.2-57.2-57.2 25.66-57.2 57.2 25.66 57.2 57.2 57.2zm0-99.4c23.269 0 42.2 18.931 42.2 42.2s-18.931 42.2-42.2 42.2-42.2-18.931-42.2-42.2 18.931-42.2 42.2-42.2z"/><path d="m186.753 473.239c.796-.796 1.855-1.234 2.98-1.234s2.184.439 2.98 1.234c3.746 3.746 8.666 5.619 13.586 5.619 4.921 0 9.841-1.872 13.587-5.619.796-.796 1.855-1.234 2.98-1.234 1.126 0 2.184.439 2.98 1.234 2.929 2.929 7.678 2.929 10.606 0 2.929-2.929 2.929-7.678 0-10.607-7.491-7.492-19.682-7.492-27.173 0-1.643 1.644-4.316 1.644-5.96 0-7.491-7.492-19.682-7.492-27.173 0-2.929 2.929-2.929 7.678 0 10.607 2.93 2.929 7.679 2.929 10.607 0z"/><path d="m87.353 423.539c.796-.796 1.854-1.234 2.98-1.234s2.184.438 2.98 1.234c2.93 2.929 7.678 2.928 10.607.001 2.929-2.929 2.929-7.678.001-10.607-3.629-3.629-8.455-5.628-13.587-5.628s-9.957 1.999-13.587 5.627c-1.644 1.644-4.317 1.643-5.96.001-3.629-3.629-8.455-5.628-13.587-5.628s-9.958 1.999-13.587 5.628c-2.929 2.929-2.929 7.678 0 10.606 2.929 2.929 7.678 2.929 10.606 0 .796-.796 1.854-1.234 2.98-1.234 1.125 0 2.184.438 2.98 1.235 3.746 3.745 8.666 5.618 13.586 5.618s9.842-1.873 13.588-5.619z"/></g></g></svg>