<svg id="Capa_1" enable-background="new 0 0 512 512" height="512" viewBox="0 0 512 512" width="512" xmlns="http://www.w3.org/2000/svg"><g><g><path d="m331.675 356.001c4.6-10.304 7.158-21.721 7.158-33.735 0-43.821-34.033-79.674-77.107-82.617-1.773-.121-3.456-.829-4.815-1.975-1.339-1.13-2.303-2.645-2.736-4.342-6.398-25.062-29.104-43.6-56.159-43.6-4.472 0-8.824.51-13.005 1.469-2.116.486-4.221-.845-4.731-2.955-4.391-18.158-20.74-31.648-40.247-31.648-2.877 0-5.685.294-8.397.853-11.495-20.562-33.617-34.377-58.94-33.978-36.339.576-65.196 30.895-65.196 67.24v181.254l294.051 22.703z" fill="#dcf3fe"/><g><g><g><path d="m261.727 239.65c-2.762-.189-5.306-1.801-6.745-4.276-.4-.687-.653-1.45-.852-2.219-6.46-24.971-29.122-43.421-56.113-43.421-3.938 0-7.781.404-11.498 1.153 21.755 4.383 39.092 20.941 44.61 42.266.199.77.452 1.533.852 2.221 1.44 2.476 3.983 4.088 6.745 4.276 43.074 2.943 77.107 38.796 77.107 82.617 0 .12 0 .24-.001.36-.068 15.971-5.644 31.432-15.459 44.031l-20.518 26.337 21.695 1.675 30.125-38.668c4.6-10.304 7.158-21.721 7.158-33.735 0-43.821-34.032-79.674-77.106-82.617z" fill="#c0defa"/></g></g></g><path d="m160.988 278.701c4.366-3.813 10.068-6.134 16.321-6.134 9.251 0 17.322 5.056 21.6 12.555 1.46 2.559 4.257 4.047 7.203 4.013.8-.009 1.615.04 2.442.155 7.979 1.106 14.144 8.009 14.309 16.063.173 8.436-5.961 15.474-14.009 16.719h-55.928z" fill="#3ec3a4"/><path d="m168.13 313.085c2.927-3.641 4.793-8.108 5.012-12.932.468-10.317-5.812-19.213-14.797-22.689-2.894-1.12-5.125-3.424-6.57-6.17-5.823-11.062-17.424-18.607-30.794-18.607-12.952 0-24.251 7.078-30.239 17.577-2.044 3.583-5.96 5.666-10.085 5.618-1.12-.013-2.261.057-3.419.217-11.17 1.549-19.802 11.212-20.033 22.487-.234 11.411 7.775 20.993 18.478 23.202z" fill="#6fd7a3"/><g><g fill="#f3f0f1"><path d="m479.65 24.067h-.073c-2.6.004-5.014-1.258-6.577-3.335-6.045-8.034-15.655-13.232-26.483-13.232-14.402 0-26.658 9.189-31.225 22.024-.597 1.677-2.143 2.826-3.923 2.826h-1.631c-11.229 0-20.792 8.732-21.191 19.953-.419 11.781 9.007 21.464 20.695 21.464h69.849c13.932 0 25.669-11.401 25.405-25.331-.257-13.502-11.282-24.369-24.846-24.369z"/><path d="m98.617 40.633h.073c2.6.004 5.014-1.258 6.577-3.335 6.045-8.034 15.655-13.231 26.483-13.231 14.402 0 26.658 9.189 31.225 22.024.597 1.677 2.143 2.826 3.923 2.826h1.631c11.229 0 20.792 8.732 21.191 19.953.419 11.781-9.007 21.463-20.695 21.463h-69.849c-13.932 0-25.669-11.401-25.405-25.33.256-13.503 11.282-24.37 24.846-24.37z"/></g></g><circle cx="305.7" cy="73.767" fill="#ffc144" r="49.7"/><g fill="#ede1e5"><path d="m479.65 24.067h-.073c-2.6.004-5.014-1.258-6.577-3.335-6.045-8.034-15.655-13.232-26.483-13.232-4.035 0-7.891.744-11.467 2.064 5.995 2.228 11.17 6.143 14.95 11.167 1.563 2.077 3.977 3.339 6.577 3.335h.073c13.564 0 24.589 10.867 24.845 24.369.264 13.929-11.473 25.331-25.405 25.331h23c13.932 0 25.669-11.401 25.405-25.331-.256-13.501-11.281-24.368-24.845-24.368z"/><path d="m189.72 68.87c-.399-11.222-9.962-19.953-21.191-19.953h-1.631c-1.78 0-3.326-1.149-3.923-2.826-4.567-12.835-16.823-22.024-31.225-22.024-4.056 0-7.942.73-11.533 2.064 9.188 3.393 16.47 10.721 19.758 19.96.597 1.677 2.143 2.826 3.923 2.826h1.631c11.229 0 20.792 8.732 21.191 19.953.419 11.781-9.007 21.463-20.695 21.463h23c11.687 0 21.114-9.682 20.695-21.463z"/></g><path d="m305.7 24.067c-3.96 0-7.807.477-11.5 1.352 21.901 5.191 38.2 24.86 38.2 48.348s-16.299 43.157-38.2 48.348c3.693.875 7.54 1.352 11.5 1.352 27.449 0 49.7-22.251 49.7-49.7s-22.251-49.7-49.7-49.7z" fill="#ffa844"/><path d="m484.11 363.471c-50.896-21.207-107.805-22.997-159.934-5.032l-37.306 12.949 68.53 133.112h132.533c9.15 0 16.567-7.417 16.567-16.567v-93.878c0-13.375-8.043-25.439-20.39-30.584z" fill="#bbf49b"/><path d="m331.551 457.734-45.743-78.605-74.752-53.56-49.706-11.67-24.454-1.885-5.441-.108c-13.635.731-27.213 2.742-40.547 6.076l-58.31 14.577c-14.751 3.687-25.098 16.94-25.098 32.144v20.13l6.271 24.369-6.271 21.631v46l111.812 27.667h82.346l36.337-7.005 40.534 7.005h53.871z" fill="#bbf49b"/><path d="m484.11 363.471c-6.888-2.87-13.89-5.372-20.971-7.53 11.189 5.572 18.361 17.022 18.361 29.649v102.343c0 9.15-7.417 16.567-16.567 16.567h23c9.15 0 16.567-7.417 16.567-16.567v-93.878c0-13.375-8.043-25.439-20.39-30.584z" fill="#9be69d"/><path d="m327.052 433.63c-23.727-59.317-75.221-103.086-137.586-116.945-19.092-4.243-38.61-5.819-58.013-4.779 11.747.632 23.458 2.211 35.013 4.779 62.365 13.859 113.859 57.628 137.586 116.945l28.348 70.87h23z" fill="#9be69d"/><path d="m278.529 504.5-15.374-38.435c-18.903-47.257-59.203-82.518-108.239-95.022-12.06-3.076-24.393-4.845-36.793-5.289-14.192-.564-28.442.555-42.424 3.361-.194-.003-2.908.625-3.102.625-3.134 0-47.231 10.627-50.272 11.387l-14.825 3.706v46l11.47-2.867c6.082-1.52 32.827-7.412 39.095-7.412.389 0 2.037-.312 2.426-.306 10.892-1.343 21.918-1.444 32.822-.316 9.2.889 18.264 2.724 27.054 5.47 35.707 11.149 64.813 37.903 78.891 73.099l2.4 6h76.871z" fill="#6fd7a3"/><path d="m24.067 504.5h95.246v-.001c-13.041-15.14-30.76-25.936-50.81-30.391-8.184-1.819-16.586-2.741-24.97-2.741-9.403 0-18.796 1.156-27.919 3.437l-8.114 2.028v11.101c0 9.15 7.417 16.567 16.567 16.567z" fill="#6fd7a3"/><g><path d="m429.95 307.83v47.57c0 4.575-3.709 8.283-8.283 8.283h-16.567c-4.575 0-8.283-3.708-8.283-8.283v-47.57z" fill="#c68a65"/><path d="m474.414 303.978-26.635-53.269h-.066c1.124-.17 2.248-.339 3.37-.526 5.762-.96 8.747-7.423 5.741-12.432l-36.338-60.563c-3.217-5.362-10.988-5.362-14.206 0l-36.338 60.563c-3.006 5.009-.021 11.472 5.741 12.432 1.122.187 2.246.356 3.37.526h-.066l-26.635 53.269c-2.556 5.112.711 11.215 6.381 11.924 36.292 4.536 73.007 4.536 109.299 0 5.672-.709 8.938-6.812 6.382-11.924z" fill="#6fd7a3"/><path d="m474.414 303.978-26.635-53.269h-.066c1.124-.17 2.248-.339 3.37-.526 5.762-.96 8.747-7.423 5.741-12.432l-36.338-60.563c-3.217-5.362-10.988-5.362-14.206 0l-4.397 7.329 31.941 53.234c3.005 5.009.021 11.472-5.741 12.432-1.122.187-2.246.356-3.37.526h.066l26.635 56.269c2.065 4.13.327 8.904-3.406 10.96 6.686-.527 13.362-1.204 20.025-2.037 5.671-.708 8.937-6.811 6.381-11.923z" fill="#3ec3a4"/></g></g><g><path d="m441.213 421.216c-.796.796-1.853 1.234-2.979 1.234s-2.184-.439-2.98-1.235c-7.49-7.489-19.679-7.49-27.173 0-2.93 2.929-2.93 7.677-.001 10.606 2.93 2.929 7.679 2.93 10.606.001 1.645-1.642 4.318-1.645 5.961-.001 3.629 3.63 8.454 5.629 13.587 5.629s9.958-1.999 13.586-5.628c1.645-1.643 4.317-1.643 5.96 0 2.93 2.928 7.678 2.928 10.607 0 2.929-2.93 2.929-7.678 0-10.607-7.493-7.49-19.683-7.49-27.174.001z"/><path d="m486.995 356.548c-15.922-6.634-32.56-11.472-49.545-14.432v-15.974c10.53-.566 21.043-1.489 31.514-2.798 5.074-.635 9.544-3.705 11.957-8.214 2.413-4.51 2.488-9.933.201-14.507l-22.715-45.431c2.42-1.595 4.39-3.85 5.643-6.562 2.191-4.746 1.896-10.256-.794-14.739l-36.339-60.563c-2.879-4.798-7.939-7.662-13.533-7.662-5.596 0-10.655 2.864-13.535 7.663l-36.338 60.564c-2.689 4.482-2.985 9.992-.794 14.738 1.253 2.712 3.223 4.967 5.644 6.562l-22.716 45.431c-.537 1.074-.932 2.197-1.209 3.342-2.947-14.207-9.275-27.619-18.548-38.926-2.626-3.204-7.353-3.67-10.555-1.043-3.203 2.626-3.67 7.352-1.043 10.555 10.99 13.401 17.043 30.347 17.043 47.715 0 9.572-1.77 18.847-5.239 27.629-1.462.472-37.215 12.856-37.215 12.856-18.156-17.989-39.676-32.453-63.496-42.463 3.221-4.211 5.094-9.473 4.978-15.091-.239-11.695-9.172-21.729-20.781-23.339-1.182-.163-2.384-.244-3.556-.224-.289-.023-.548-.135-.602-.229-5.749-10.079-16.522-16.34-28.114-16.34-6.079 0-11.996 1.726-17.103 4.916-.674-.495-1.294-1.235-1.793-2.184-7.343-13.947-21.686-22.612-37.431-22.612-15.154 0-29.237 8.185-36.754 21.361-.647 1.135-1.958 1.835-3.425 1.835-.018 0-.036 0-.054 0-1.509-.03-3.028.078-4.541.287-14.802 2.052-26.195 14.847-26.501 29.762-.158 7.655 2.523 14.8 7.145 20.332l-26.074 6.518c-5.931 1.483-11.271 4.223-15.778 7.885v-142.453c0-32.437 25.936-59.235 57.815-59.738 18.524-.32 35.888 8.13 47.143 22.452-16.986 7.678-28.842 24.77-28.842 44.59 0 4.143 3.357 7.5 7.5 7.5s7.5-3.357 7.5-7.5c0-17.533 13.372-32.001 30.453-33.742 17.655-2.106 34.887 11.457 37.046 29.024.216 1.543.335 3.116.335 4.717 0 4.143 3.357 7.5 7.5 7.5 4.13 0 7.478-3.338 7.498-7.464 2.982-.542 6.015-.82 9.068-.82 23.082 0 43.186 15.607 48.893 37.956.822 3.22 2.609 6.063 5.168 8.22 2.614 2.204 5.773 3.492 9.139 3.724 9.815.67 19.248 3.206 28.04 7.537 3.721 1.833 8.214.302 10.042-3.413 1.831-3.716.303-8.212-3.413-10.042-10.554-5.199-21.874-8.243-33.644-9.047-.156-.011-.337-.093-.494-.226-.152-.129-.261-.294-.305-.465-7.402-28.994-33.484-49.244-63.426-49.244-3.821 0-7.62.331-11.36.987-6.493-21.323-28.638-36.309-51.19-33.909-13.817-21.083-37.435-33.726-62.888-33.335-40.018.632-72.577 34.16-72.577 74.738v297.221c0 13.27 10.796 24.066 24.066 24.066h21.574c4.143 0 7.5-3.357 7.5-7.5s-3.357-7.5-7.5-7.5h-21.574c-4.999 0-9.066-4.067-9.066-9.066v-5.245l2.433-.608c16.141-4.035 33.207-4.258 49.443-.651 12.37 2.749 23.745 8.053 33.602 15.571h-19.838c-4.143 0-7.5 3.357-7.5 7.5s3.357 7.5 7.5 7.5h407.294c13.27-.001 24.066-10.797 24.066-24.067v-93.878c0-16.456-9.815-31.179-25.005-37.508zm-82.679-29.849c3.022.061 6.045.103 9.067.103 3.023 0 6.044-.042 9.066-.103v28.701c0 .432-.352.783-.783.783h-16.566c-.432 0-.783-.352-.783-.783v-28.701zm-45.256-19.366 24.228-48.457c9.976 1.276 20.063 1.928 30.095 1.928 4.143 0 7.5-3.357 7.5-7.5s-3.357-7.5-7.5-7.5c-12.182 0-24.451-1.016-36.467-3.018-.001 0-.001 0-.002 0-.112-.018-.408-.068-.58-.443-.175-.377-.02-.636.039-.732l36.337-60.562c.068-.114.229-.381.673-.381.443 0 .604.267.671.38l36.338 60.561c.059.098.214.356.039.733-.173.376-.47.425-.578.443-1.028.171-2.058.326-3.087.481l-.175.026c-3.88.587-6.619 4.065-6.324 7.979.091 1.212.47 2.339 1.066 3.317l26.372 52.744c.05.099.181.362-.01.72-.191.357-.484.394-.595.407-35.644 4.456-71.792 4.456-107.438 0-.11-.014-.402-.05-.593-.407-.189-.357-.058-.62-.009-.719zm-12.727 14.934c0-2.262-.102-4.515-.271-6.76 2.457 4.301 6.811 7.221 11.742 7.838 10.47 1.309 20.983 2.232 31.513 2.798v12.668c-15.497.545-30.84 2.626-45.877 6.225 1.919-7.382 2.893-14.996 2.893-22.769zm-153.938-33.428c2.781 4.876 8.107 7.84 13.809 7.795.43.003.881.023 1.32.084 4.309.598 7.753 4.457 7.842 8.787.082 4.003-2.483 7.538-6.157 8.783-5.927-1.911-11.969-3.558-18.115-4.924-3.829-.851-7.685-1.586-11.556-2.23.62-2.159.995-4.382 1.098-6.642.338-7.448-2.025-14.535-6.361-20.154.996-.178 2.011-.272 3.035-.272 6.217 0 11.998 3.362 15.085 8.773zm-127.692 9.901c.157-7.622 5.988-14.162 13.563-15.212.771-.107 1.539-.149 2.305-.147 6.918.068 13.332-3.52 16.687-9.401 4.854-8.508 13.944-13.793 23.725-13.793 10.16 0 19.416 5.595 24.157 14.6 2.391 4.542 6.12 7.978 10.5 9.671.654.253 1.277.556 1.879.886.072.038.143.079.216.115 5.072 2.883 8.187 8.391 7.917 14.354-.083 1.829-.544 3.628-1.341 5.332-25.149-2.411-50.729-.56-75.221 5.562l-13.382 3.345c-6.601-2.055-11.149-8.261-11.005-15.312zm-30.286 41.095 58.31-14.577c31.015-7.755 63.905-8.187 95.112-1.252 59.988 13.331 109.428 55.354 132.249 112.409l24.234 60.585h-60.715c-22.32-76.524-82.21-137.506-165.189-138.738-28.63-2.816-85.169 12.621-103.418 16.965v-10.524c0-11.784 7.984-22.011 19.417-24.868zm172.319 157.165c-31.902-80.862-116.065-98.63-191.736-75.774v-30.537c32.808-7.435 69.989-19.141 102.854-17.44 73.638.76 129.893 55.371 149.597 123.751zm-136.606-30.214c-18.098-4.021-37.099-3.852-55.13.459v-30.556c68.622-20.926 143.296-10.562 175.471 60.311h-67.81c-14.068-15.262-32.153-25.685-52.531-30.214zm426.87 21.148c0 4.999-4.067 9.066-9.066 9.066h-127.456l-26.463-66.155c-8.289-20.723-19.84-39.6-33.968-56.092l26.573-9.222c20.268-6.986 41.324-10.91 62.695-11.712v1.582c0 8.703 7.08 15.783 15.783 15.783h16.567c8.044 0 14.689-6.052 15.651-13.84 15.041 2.799 29.777 7.162 43.908 13.05 9.583 3.993 15.774 13.281 15.774 23.662v93.878z"/><path d="m409.241 81.267h69.85c8.818 0 17.44-3.632 23.652-9.963 6.129-6.246 9.414-14.418 9.251-23.009-.332-17.495-14.841-31.728-32.344-31.728-.004 0-.082 0-.086 0-.195 0-.409-.128-.571-.344-7.757-10.31-19.594-16.223-32.476-16.223-16.381 0-31.151 9.898-37.455 24.857-14.987.353-27.485 12.41-28.01 27.18-.275 7.732 2.527 15.051 7.891 20.608 5.365 5.56 12.574 8.622 20.298 8.622zm.497-41.417h1.631c4.91 0 9.326-3.139 10.989-7.812 3.626-10.19 13.334-17.038 24.159-17.038 8.125 0 15.594 3.732 20.49 10.24 2.98 3.963 7.674 6.326 12.547 6.326h.022.074c9.387 0 17.168 7.632 17.346 17.013.087 4.531-1.675 8.871-4.96 12.219-3.41 3.475-8.128 5.469-12.945 5.469h-69.85c-3.617 0-6.992-1.434-9.506-4.038-2.511-2.602-3.822-6.031-3.693-9.658.249-7.015 6.393-12.721 13.696-12.721z"/><path d="m99.176 97.833h69.849c7.726 0 14.935-3.062 20.3-8.621 5.363-5.558 8.166-12.876 7.891-20.608-.534-15.022-12.779-26.838-28.01-27.179-6.304-14.96-21.074-24.858-37.455-24.858-12.882 0-24.719 5.913-32.478 16.225-.162.215-.375.343-.483.344l-.074-.001c-.033-.001-.065-.001-.099-.001-17.503 0-32.012 14.233-32.344 31.728-.163 8.592 3.122 16.764 9.251 23.01 6.212 6.329 14.833 9.961 23.652 9.961zm-.6-49.7c.058.002.101.001.126.001 4.885 0 9.579-2.365 12.558-6.326 4.897-6.509 12.365-10.241 20.49-10.241 10.824 0 20.532 6.848 24.158 17.039 1.663 4.672 6.079 7.812 10.989 7.812h1.631c7.303 0 13.446 5.706 13.696 12.72.129 3.627-1.183 7.057-3.693 9.658-2.513 2.604-5.889 4.038-9.507 4.038h-69.848c-4.817 0-9.535-1.993-12.945-5.469-3.285-3.348-5.047-7.688-4.96-12.22.176-9.368 7.936-16.991 17.305-17.012z"/><path d="m305.7 130.967c31.54 0 57.2-25.66 57.2-57.2s-25.66-57.2-57.2-57.2-57.2 25.66-57.2 57.2 25.66 57.2 57.2 57.2zm0-99.401c23.27 0 42.2 18.931 42.2 42.2s-18.931 42.2-42.2 42.2-42.2-18.931-42.2-42.2 18.931-42.2 42.2-42.2z"/></g></g></svg>