<svg id="Capa_1" enable-background="new 0 0 512.064 512.064" height="512" viewBox="0 0 512.064 512.064" width="512" xmlns="http://www.w3.org/2000/svg"><g><g><path d="m468.188 113.082 36.344-55.818v-40.003c0-5.608-5.497-9.719-10.8-7.893-3.516 1.211-6.873 3.03-9.909 5.459-12.107 9.685-29.31 9.685-41.417 0-12.107-9.686-29.31-9.686-41.417 0-12.107 9.685-29.31 9.685-41.417 0-12.107-9.686-29.31-9.686-41.417 0-12.107 9.685-29.31 9.685-41.417 0-12.107-9.686-29.31-9.686-41.417 0-12.107 9.685-29.31 9.685-41.417 0-12.107-9.686-29.31-9.686-41.417 0-12.107 9.685-29.31 9.685-41.417 0-12.107-9.686-29.31-9.686-41.416 0-12.107 9.685-29.31 9.685-41.417 0-3.036-2.429-6.393-4.249-9.909-5.459-5.303-1.826-10.8 2.285-10.8 7.893v40.003l30.197 55.818z" fill="#64caff"/><path d="m481.532 92.588 23-35.324v-40.003c0-5.608-5.497-9.719-10.8-7.893-3.516 1.211-6.873 3.03-9.909 5.459-.759.607-1.539 1.176-2.336 1.708.021.24.044.479.044.726v75.327z" fill="#00b8ff"/><path d="m7.532 454.864 21.937-1.321-21.937-.064z" fill="#83d2fc"/><path d="m481.532 66.204c-11.914 7.971-27.763 7.413-39.125-1.677-12.107-9.685-29.31-9.685-41.417 0-12.107 9.686-29.31 9.686-41.417 0-12.107-9.685-29.31-9.685-41.417 0-12.107 9.686-29.31 9.686-41.417 0-12.107-9.685-29.31-9.685-41.417 0-12.107 9.686-29.31 9.686-41.417 0-12.107-9.685-29.31-9.685-41.417 0-12.107 9.686-29.31 9.686-41.417 0-12.107-9.685-29.31-9.685-41.417 0-12.107 9.686-29.31 9.686-41.417 0-6.053-4.843-13.381-7.264-20.708-7.264v215.367l171.882 171.881 325.118-19.58v-335.727z" fill="#00b8ff"/><path d="m504.532 57.264c-7.328 0-14.655 2.421-20.708 7.264-.745.596-1.51 1.154-2.292 1.677v360.113l23-1.385z" fill="#00a2ff"/><path d="m481.532 406.028.011-.018c-3.361-.737-6.745-1.327-10.144-1.757l-33.133.658c-7.227 1.207-14.363 3.112-21.306 5.715-12.003 4.501-24.271 7.968-36.677 10.408l-33.133 4.064c-39.476 1.975-79.214-6.156-115.275-24.186l-5.298-2.649c-13.648-6.824-27.779-12.322-42.208-16.487l-176.837 73.088v33.133c0 9.149 7.417 16.567 16.567 16.567h463.867c9.149 0 16.567-7.417 16.567-16.567v-58.969z" fill="#c68a65"/><g fill="#64caff"><ellipse cx="256.032" cy="173.231" rx="16.567" ry="16.567" transform="matrix(.16 -.987 .987 .16 44.026 398.208)"/><ellipse cx="106.365" cy="189.797" rx="16.567" ry="16.567" transform="matrix(.23 -.973 .973 .23 -102.792 249.711)"/><ellipse cx="106.365" cy="123.617" rx="16.567" ry="16.567" transform="matrix(.707 -.707 .707 .707 -56.257 111.418)"/><ellipse cx="437.699" cy="140.183" rx="16.567" ry="16.567" transform="matrix(.924 -.383 .383 .924 -20.328 178.171)"/><circle cx="438.265" cy="206.364" r="16.567"/></g><g><g><path d="m352.149 388.597h-21.567c-27.449 0-49.7-22.251-49.7-49.7v-16.567c0-9.15 7.417-16.567 16.567-16.567 9.149 0 16.567 7.417 16.567 16.567v16.567c0 9.15 7.417 16.567 16.567 16.567h21.567v33.133z" fill="#ff546a"/></g></g><path d="m429.181 272.649c-8.91.419-15.766 8.095-15.766 17.016v16.099c0 9.15-7.417 16.567-16.567 16.567h-16.567v-65.799c0-8.92-6.855-16.596-15.766-17.016-9.514-.448-17.367 7.133-17.367 16.548v198.8h33.133v-91.117c0-4.575 3.709-8.283 8.283-8.283h8.283c27.448 0 49.7-22.251 49.7-49.7v-16.567c.002-9.415-7.852-16.996-17.366-16.548z" fill="#ff7383"/><path d="m471.399 454.864v-66.267c0-9.149-7.417-16.567-16.567-16.567s-16.567 7.417-16.567 16.567v66.267z" fill="#bbf49b"/><g><g><g><path d="m73.799 317.143v-61.079c0-9.149-7.417-16.567-16.567-16.567-9.149 0-16.567 7.417-16.567 16.567v31.707z" fill="#bbf49b"/></g><g><path d="m140.065 361.845v-56.081c0-9.15-7.417-16.567-16.567-16.567s-16.567 7.417-16.567 16.567v33.992z" fill="#bbf49b"/></g></g></g><path d="m184.368 381.789c-3.915-11.353-13.762-19.854-25.87-21.872l-25.146-4.183-10.632 99.13h61.648z" fill="#b4c9d9"/><path d="m135.212 362.907c-2.042-14.296-13.108-25.622-27.353-27.997l-16.581-2.764c-5.71-.952-10.508-4.815-12.658-10.189-8.266-20.665-25.631-36.34-47.031-42.454l-24.056-6.873v74.55l57.861 107.683h41.539 41.417z" fill="#b4c9d9"/><path d="m102.368 427.479c-2.243-13.458-12.506-24.165-25.857-26.975l-14.759-3.107c-1.498-.315-2.685-1.459-3.056-2.944l-7.204-28.818c-1.553-6.211-6.545-10.971-12.823-12.227l-31.137-6.227v100.183l99.4 7.5z" fill="#99b5c9"/><path d="m380.282 307.33c-12.829 0-24.496 5.05-33.133 13.26v34.873c0-18.299 14.834-33.133 33.133-33.133z" fill="#ff546a"/><path d="m493.204 409.215c-3.845-1.282-7.744-2.326-11.672-3.187v81.969c0 9.149-7.417 16.567-16.567 16.567h23c9.149 0 16.567-7.417 16.567-16.567v-63.066c0-7.13-4.563-13.461-11.328-15.716z" fill="#bd7460"/><path d="m185.65 386.672c-2.501-13.753-13.363-24.457-27.152-26.755l-20.606-3.428c12.25 3.304 21.661 13.37 23.965 26.043l13.191 72.332h23z" fill="#a1bdd1"/><g fill="#a1bdd1"><path d="m54.954 317.335c2.15 5.375 6.948 9.237 12.658 10.189l16.582 2.764c1.123.187 2.218.449 3.298.745-3.996-1.708-7.219-4.941-8.872-9.074-8.266-20.665-25.631-36.34-47.031-42.454l-21.741-6.212c20.228 6.804 37.186 24.243 45.106 44.042z"/><path d="m135.212 362.907c-2.042-14.296-13.108-25.622-27.353-27.996l-16.582-2.764c-.31-.052-.617-.116-.922-.185 11.186 4.186 19.454 14.17 21.19 26.322l13.803 96.58h23z"/></g><path d="m102.368 427.479c-2.243-13.458-12.506-24.165-25.857-26.975l-14.759-3.107c-1.498-.315-2.685-1.458-3.056-2.944l-7.204-28.817c-1.553-6.211-6.545-10.971-12.823-12.227l-22.54-4.508c5.462 1.713 9.706 6.144 11.114 11.779l7.204 28.817c.371 1.485 1.558 2.629 3.056 2.944l14.759 3.107c13.351 2.811 23.614 13.518 25.857 26.976l5.813 32.341h23z" fill="#8aa3b5"/></g><g><path d="m505.373 4.347c-4.096-2.923-9.36-3.698-14.083-2.069-4.409 1.517-8.497 3.771-12.151 6.693-9.434 7.547-22.611 7.548-32.046 0-14.951-11.961-35.836-11.961-50.787 0-9.435 7.547-22.612 7.547-32.047 0-14.951-11.961-35.835-11.962-50.787 0-9.434 7.548-22.611 7.548-32.046 0-14.951-11.961-35.836-11.961-50.787 0-9.434 7.547-22.611 7.548-32.046 0-14.951-11.961-35.837-11.961-50.787 0-9.435 7.547-22.612 7.547-32.047 0-14.951-11.961-35.835-11.962-50.787 0-9.435 7.548-22.612 7.546-32.046 0-3.654-2.923-7.743-5.176-12.153-6.694-4.723-1.625-9.986-.852-14.082 2.07-4.17 2.975-6.659 7.803-6.659 12.914v121.989c0 4.143 3.358 7.5 7.5 7.5s7.5-3.357 7.5-7.5v-73.336c3.08.944 5.987 2.441 8.523 4.47 14.951 11.96 35.835 11.961 50.787 0 9.435-7.547 22.612-7.547 32.046 0 14.951 11.961 35.836 11.961 50.788 0 9.434-7.547 22.611-7.547 32.046 0 14.952 11.962 35.836 11.961 50.787 0 9.434-7.548 22.612-7.548 32.046 0 7.477 5.981 16.434 8.972 25.394 8.971 8.958 0 17.919-2.991 25.394-8.971 9.435-7.547 22.612-7.547 32.046 0 14.951 11.961 35.835 11.961 50.788 0 9.434-7.547 22.611-7.547 32.046 0 14.951 11.961 35.835 11.961 50.787 0 2.537-2.029 5.444-3.526 8.523-4.47v336.737c-.479-.195-.961-.385-1.457-.551-5.44-1.813-11.026-3.238-16.677-4.268v-9.235c0-13.271-10.796-24.066-24.067-24.066s-24.066 10.796-24.066 24.066v10.138c-5.585 1.237-11.093 2.864-16.44 4.869-8.647 3.243-17.543 5.963-26.544 8.119v-47.976c0-.432.352-.783.783-.783h8.284c31.54 0 57.2-25.66 57.2-57.2v-16.567c0-6.547-2.717-12.895-7.456-17.414-4.806-4.585-11.118-6.918-17.764-6.625-12.849.604-22.914 11.369-22.914 24.508v16.099c0 4.999-4.067 9.066-9.066 9.066h-9.067v-58.299c0-13.137-10.064-23.901-22.913-24.507-6.649-.318-12.958 2.039-17.765 6.624-4.738 4.521-7.456 10.868-7.456 17.415v91.9h-9.067c-4.999 0-9.066-4.067-9.066-9.067v-16.567c0-13.271-10.796-24.066-24.067-24.066-13.27 0-24.066 10.796-24.066 24.066v16.566c0 31.54 25.66 57.2 57.2 57.2h9.067v21.752c-36.121.648-72.073-7.471-104.42-23.644l-5.299-2.649c-12.824-6.412-26.258-11.753-39.975-15.928-5.548-12.021-16.777-20.868-30.226-23.109l-12.164-2.023v-44.731c0-13.27-10.796-24.067-24.066-24.067-13.271 0-24.067 10.797-24.067 24.067v20.138l-6.92-1.153c-3.105-.519-5.759-2.654-6.928-5.576-1.238-3.095-2.676-6.091-4.285-8.98v-54.129c0-13.27-10.796-24.066-24.066-24.066-13.271 0-24.067 10.796-24.067 24.066v16.089l-18.133-5.181v-92.722c0-4.143-3.358-7.5-7.5-7.5s-7.5 3.357-7.5 7.5v313.747c0 13.271 10.796 24.066 24.067 24.066h21.573c4.142 0 7.5-3.357 7.5-7.5s-3.358-7.5-7.5-7.5h-21.574c-5 0-9.067-4.067-9.067-9.066v-25.634h191.3c4.142 0 7.5-3.357 7.5-7.5s-3.358-7.5-7.5-7.5h-2.024l-9.913-54.521c9.855 3.419 19.513 7.471 28.827 12.129l5.299 2.649c33.23 16.615 70.021 25.266 107.107 25.266 1.339 0 2.68-.028 4.021-.05v14.528h-9.067c-4.142 0-7.5 3.357-7.5 7.5s3.358 7.5 7.5 7.5h66.267c4.142 0 7.5-3.357 7.5-7.5s-3.358-7.5-7.5-7.5h-9.067v-20.253c10.794-2.416 21.469-5.583 31.811-9.462 3.65-1.368 7.386-2.532 11.172-3.495v33.21h-.783c-4.142 0-7.5 3.357-7.5 7.5s3.358 7.5 7.5 7.5h49.7c4.142 0 7.5-3.357 7.5-7.5s-3.358-7.5-7.5-7.5h-.783v-34.249c4.037.844 8.029 1.914 11.934 3.216 3.708 1.236 6.2 4.692 6.2 8.602v63.065c0 4.999-4.067 9.066-9.067 9.066h-407.294c-4.142 0-7.5 3.357-7.5 7.5s3.358 7.5 7.5 7.5h407.293c13.271 0 24.067-10.796 24.067-24.066v-63.065-407.672c0-5.111-2.489-9.939-6.659-12.914zm-381.874 292.35c4.999 0 9.066 4.067 9.066 9.067v34.54c-4.815-5.324-11.04-9.344-18.133-11.525v-23.014c0-5.001 4.067-9.068 9.067-9.068zm-66.267-49.7c4.999 0 9.066 4.067 9.066 9.066v34.879c-5.405-5.096-11.51-9.445-18.133-12.875v-22.004c0-4.998 4.068-9.066 9.067-9.066zm-27.704 39.717c19.029 5.438 34.778 19.655 42.128 38.029 3.102 7.756 10.148 13.427 18.389 14.802l16.581 2.764c11.07 1.845 19.574 10.549 21.161 21.659l11.914 83.396h-26.416l-3.52-21.118c-2.771-16.624-15.218-29.609-31.709-33.081l-12.616-2.656-6.673-26.692c-2.244-8.976-9.556-15.947-18.629-17.763l-25.107-5.021v-58.459zm-14.496 142.517h9.067c4.142 0 7.5-3.357 7.5-7.5s-3.358-7.5-7.5-7.5h-9.067v-.784-6.099-51.019l22.165 4.433c3.418.684 6.173 3.311 7.019 6.692l14.024 56.096c.852 3.407 3.91 5.683 7.27 5.683.602 0 1.214-.073 1.825-.225 4.019-1.005 6.462-5.077 5.457-9.096l-3.306-13.223 5.481 1.154c10.404 2.19 18.256 10.382 20.004 20.87l3.108 18.651h-83.047zm139.822 18.133-4.957-34.7h6.736c4.142 0 7.5-3.357 7.5-7.5s-3.358-7.5-7.5-7.5h-8.879l-4.673-32.708 14.185 2.36c10.635 1.772 19.077 10.091 21.006 20.699l10.791 59.35h-34.209zm202.605-197.863c1.81-1.726 4.179-2.619 6.705-2.494 4.752.225 8.619 4.497 8.619 9.524v59.004c-6.785 1.272-12.982 4.229-18.133 8.429v-67.901c-.001-2.502.997-4.832 2.809-6.562zm-26.877 131.596c-23.269 0-42.2-18.931-42.2-42.2v-16.567c0-4.999 4.067-9.066 9.066-9.066 5 0 9.067 4.067 9.067 9.066v16.566c0 13.271 10.796 24.067 24.066 24.067h9.067v18.133h-9.066zm24.067 66.267v-58.767-33.133c0-14.135 11.499-25.634 25.633-25.634h16.567c13.27 0 24.066-10.796 24.066-24.066v-16.099c0-5.028 3.866-9.301 8.618-9.523 0 0 0-.001.001-.001 2.514-.127 4.895.768 6.705 2.494 1.812 1.728 2.81 4.059 2.81 6.561v16.567c0 23.27-18.931 42.2-42.2 42.2h-8.284c-8.703 0-15.783 7.08-15.783 15.783v83.616h-18.133zm91.116 0v-58.767c0-4.999 4.067-9.066 9.066-9.066 5 0 9.067 4.067 9.067 9.066v58.767zm33.373-388.693c-9.434 7.547-22.611 7.547-32.046 0-14.951-11.961-35.836-11.961-50.787 0-9.435 7.547-22.612 7.547-32.047 0-14.951-11.961-35.835-11.962-50.787 0-9.434 7.548-22.611 7.548-32.046 0-14.951-11.961-35.836-11.961-50.787 0-9.434 7.547-22.611 7.547-32.046 0-14.951-11.961-35.837-11.961-50.787 0-9.435 7.547-22.612 7.547-32.047 0-14.951-11.961-35.835-11.962-50.787 0-9.435 7.547-22.612 7.547-32.046 0-5.208-4.167-11.385-6.967-17.894-8.195v-33.215c0-.382.232-.604.37-.703.252-.179.406-.125.487-.099 2.779.957 5.358 2.379 7.666 4.225 14.951 11.96 35.835 11.961 50.787 0 9.435-7.547 22.612-7.547 32.046 0 14.951 11.961 35.836 11.961 50.788 0 9.434-7.547 22.611-7.547 32.046 0 14.952 11.962 35.836 11.961 50.787 0 9.434-7.548 22.612-7.548 32.046 0 14.952 11.962 35.837 11.961 50.787 0 9.435-7.547 22.612-7.547 32.046 0 14.951 11.961 35.835 11.961 50.788 0 9.434-7.547 22.611-7.547 32.046 0 14.951 11.962 35.835 11.96 50.787 0 2.308-1.846 4.887-3.268 7.665-4.224.082-.028.235-.082.489.098.138.099.37.321.37.703v33.215c-6.508 1.228-12.685 4.029-17.894 8.195z"/><path d="m256.032 197.297c13.271 0 24.067-10.796 24.067-24.066 0-13.271-10.796-24.067-24.067-24.067-13.27 0-24.067 10.797-24.067 24.067s10.796 24.066 24.067 24.066zm0-33.134c5 0 9.067 4.067 9.067 9.067 0 4.999-4.067 9.066-9.067 9.066-4.999 0-9.067-4.067-9.067-9.066s4.067-9.067 9.067-9.067z"/><path d="m106.932 213.864c13.271 0 24.067-10.796 24.067-24.066 0-13.271-10.796-24.066-24.067-24.066-13.27 0-24.066 10.796-24.066 24.066-.001 13.27 10.796 24.066 24.066 24.066zm0-33.133c5 0 9.067 4.067 9.067 9.066s-4.067 9.066-9.067 9.066c-4.999 0-9.066-4.067-9.066-9.066-.001-4.999 4.067-9.066 9.066-9.066z"/><path d="m106.932 147.683c13.271 0 24.067-10.796 24.067-24.066s-10.797-24.067-24.067-24.067-24.066 10.796-24.066 24.066 10.796 24.067 24.066 24.067zm0-33.133c5 0 9.067 4.067 9.067 9.066s-4.067 9.066-9.067 9.066c-4.999 0-9.066-4.067-9.066-9.066-.001-4.998 4.067-9.066 9.066-9.066z"/><path d="m438.265 164.25c13.271 0 24.066-10.797 24.066-24.067s-10.796-24.066-24.066-24.066-24.067 10.796-24.067 24.066 10.797 24.067 24.067 24.067zm0-33.133c4.999 0 9.066 4.067 9.066 9.066 0 5-4.067 9.067-9.066 9.067s-9.067-4.067-9.067-9.067c0-4.999 4.068-9.066 9.067-9.066z"/><path d="m438.265 230.431c13.271 0 24.066-10.797 24.066-24.067s-10.796-24.066-24.066-24.066-24.067 10.796-24.067 24.066 10.797 24.067 24.067 24.067zm0-33.134c4.999 0 9.066 4.067 9.066 9.066 0 5-4.067 9.067-9.066 9.067s-9.067-4.067-9.067-9.067c0-4.998 4.068-9.066 9.067-9.066z"/><path d="m256.031 462.364c4.142 0 7.5-3.357 7.5-7.5s-3.358-7.5-7.5-7.5h-8.283c-4.142 0-7.5 3.357-7.5 7.5s3.358 7.5 7.5 7.5z"/></g></g></svg>