<svg id="Capa_1" enable-background="new 0 0 512 512" height="512" viewBox="0 0 512 512" width="512" xmlns="http://www.w3.org/2000/svg"><g><g><g><g><g><path d="m156.6 246.413h33.133v224.954h-33.133z" fill="#ff7383"/></g><g><path d="m322.267 246.413h33.133v224.954h-33.133z" fill="#ff7383"/></g><g><path d="m156.6 246.413h33.133v32.508h-33.133z" fill="#ff546a"/></g><g><path d="m322.267 246.413h33.133v32.508h-33.133z" fill="#ff546a"/></g><g><path d="m322.267 366.963h33.133v28.003h-33.133z" fill="#ff546a"/></g><g><path d="m156.6 366.963h33.133v28.003h-33.133z" fill="#ff546a"/></g></g></g><path d="m463.083 40.633h-.073c-2.6.004-5.014-1.258-6.577-3.335-6.045-8.034-15.655-13.231-26.483-13.231-14.402 0-26.658 9.189-31.225 22.024-.597 1.677-2.143 2.826-3.923 2.826h-1.631c-11.229 0-20.792 8.732-21.191 19.953-.419 11.781 9.007 21.463 20.695 21.463h69.849c13.932 0 25.669-11.401 25.405-25.33-.256-13.503-11.282-24.37-24.846-24.37z" fill="#f3f0f1"/><path d="m48.917 90.333h.073c2.6.004 5.014-1.258 6.577-3.335 6.045-8.034 15.655-13.231 26.483-13.231 14.402 0 26.658 9.189 31.225 22.024.597 1.677 2.143 2.826 3.923 2.826h1.631c11.229 0 20.792 8.731 21.191 19.953.419 11.781-9.007 21.463-20.695 21.463h-69.849c-13.932 0-25.669-11.401-25.405-25.33.256-13.503 11.282-24.37 24.846-24.37z" fill="#f3f0f1"/><path d="m504.5 487.933v-123.87c0-4.866-4.178-8.694-9.025-8.258-34.284 3.086-63.546 23.582-78.887 52.579-2.222 4.201-7.35 5.778-11.461 3.394-7.316-4.244-15.811-6.677-24.877-6.677-23.649 0-43.431 16.519-48.456 38.646-.48 2.113-2.532 3.446-4.676 3.128-1.583-.235-3.203-.358-4.852-.358-4.57 0-8.922.928-12.881 2.603-1.859.786-3.985.122-5.103-1.558-10.39-15.605-28.129-25.894-48.282-25.894-21.718 0-40.638 11.944-50.571 29.618-1.648 2.933-4.958 4.573-8.284 4.071-2.418-.365-4.892-.556-7.412-.556-4.842 0-9.519.698-13.943 1.991-1.314.384-2.625-.594-2.624-1.962v-.03c0-27.448-22.251-49.7-49.7-49.7-6.815 0-13.308 1.374-19.22 3.858-3.887 1.633-8.338.181-10.433-3.477-15.726-27.465-44.179-46.707-77.321-49.679-4.835-.434-8.993 3.406-8.993 8.26v123.872c0 9.15 7.417 16.567 16.567 16.567h463.867c9.15-.001 16.567-7.418 16.567-16.568z" fill="#6fd7a3"/><path d="m131.467 338.833h249.067c4.418 0 8 3.582 8 8v17.133c0 4.418-3.582 8-8 8h-249.067c-4.418 0-8-3.582-8-8v-17.133c0-4.418 3.581-8 8-8z" fill="#ff7383"/><path d="m371.967 222.867 7.573-2.524c10.876-3.626 19.411-12.16 23.036-23.036 1.409-4.227-.778-8.811-4.95-10.375-38.982-14.618-75.597-34.902-108.665-60.197l-4.271-3.267-28.69-16.568-28.69 16.567-4.271 3.267c-33.068 25.295-69.683 45.578-108.665 60.197-4.172 1.564-6.359 6.148-4.95 10.375 3.626 10.876 12.16 19.411 23.036 23.036l7.573 2.524 115.967 16.567z" fill="#4e6c99"/><path d="m463.083 40.633h-.073c-2.6.004-5.014-1.258-6.577-3.335-6.045-8.034-15.655-13.231-26.483-13.231-4.035 0-7.891.744-11.467 2.064 5.995 2.228 11.17 6.143 14.95 11.167 1.563 2.078 3.977 3.34 6.577 3.335h.073c13.564 0 24.589 10.867 24.845 24.37.264 13.929-11.473 25.33-25.405 25.33h23c13.932 0 25.669-11.401 25.405-25.33-.255-13.503-11.281-24.37-24.845-24.37z" fill="#ede1e5"/><path d="m140.02 118.57c-.399-11.222-9.962-19.953-21.191-19.953h-1.631c-1.78 0-3.326-1.149-3.923-2.826-4.567-12.835-16.823-22.024-31.225-22.024-4.056 0-7.942.73-11.533 2.064 9.188 3.393 16.47 10.721 19.758 19.96.597 1.677 2.143 2.826 3.923 2.826h1.631c11.229 0 20.792 8.731 21.191 19.953.419 11.781-9.007 21.463-20.695 21.463h23c11.687 0 21.114-9.682 20.695-21.463z" fill="#ede1e5"/><path d="m495.475 355.804c-5.488.494-10.845 1.439-16.039 2.789 1.279 1.455 2.064 3.364 2.064 5.47v123.871c0 9.15-7.417 16.567-16.567 16.567h23c9.15 0 16.567-7.417 16.567-16.567v-123.871c0-4.867-4.178-8.695-9.025-8.259z" fill="#3ec3a4"/><path d="m380.533 338.833h-23c4.418 0 8 3.582 8 8v17.133c0 4.418-3.582 8-8 8h23c4.418 0 8-3.582 8-8v-17.133c0-4.418-3.581-8-8-8z" fill="#ff546a"/><path d="m397.626 186.931c-38.982-14.618-75.597-34.902-108.665-60.197l-4.271-3.267-28.69-16.567-11.5 6.641 17.19 9.926 4.271 3.267c33.068 25.295 69.683 45.578 108.665 60.197 4.172 1.564 6.359 6.148 4.95 10.375-3.625 10.877-12.16 19.411-23.037 23.037l-7.572 2.524-104.467 14.923 11.5 1.643 115.967-16.567 7.573-2.524c10.876-3.626 19.411-12.16 23.037-23.037 1.408-4.226-.779-8.81-4.951-10.374z" fill="#416195"/><path d="m272.567 78.21v-54.143c0-9.149-7.417-16.567-16.567-16.567s-16.567 7.417-16.567 16.567v54.143z" fill="#97b3c7"/><path d="m276.67 115.675v-19.45l-19.45-20.405h-12.72c-12.63 4.675-21.634 16.825-21.634 31.08 0 6.037 1.623 11.692 4.444 16.567h34.379z" fill="#ffc144"/><path d="m256 73.767c-4.044 0-7.917.727-11.5 2.053 12.63 4.675 21.633 16.825 21.633 31.08 0 6.037-1.623 11.692-4.444 16.567h23c2.821-4.875 4.444-10.529 4.444-16.567 0-18.299-14.834-33.133-33.133-33.133z" fill="#ffa844"/><path d="m114.374 186.93c-4.148 1.556-6.33 6.096-4.97 10.303h293.192c1.36-4.207-.822-8.747-4.97-10.303-4.003-1.501-7.975-3.077-11.927-4.697h-259.398c-3.952 1.62-7.924 3.196-11.927 4.697z" fill="#416195"/><path d="m341.965 256h-193.932c-4.418 0-8-3.582-8-8v-25.133h209.932v25.133c0 4.418-3.581 8-8 8z" fill="#ff7383"/><path d="m348.967 222.867v25.133c0 4.418-3.582 8-8 8h23c4.418 0 8-3.582 8-8v-25.133z" fill="#ff546a"/></g><g><path d="m392.675 97.834h69.849c8.819 0 17.44-3.631 23.653-9.963 6.129-6.246 9.414-14.418 9.251-23.009-.332-17.495-14.842-31.728-32.345-31.728-.004 0-.081 0-.085 0-.196 0-.41-.129-.572-.344-7.756-10.31-19.593-16.222-32.476-16.222-16.381 0-31.151 9.898-37.455 24.857-14.987.353-27.485 12.41-28.01 27.179-.275 7.732 2.527 15.051 7.891 20.609 5.365 5.559 12.574 8.621 20.299 8.621zm.497-41.417h1.63c4.911 0 9.327-3.139 10.99-7.812 3.625-10.191 13.334-17.038 24.158-17.038 8.125 0 15.594 3.732 20.489 10.241 2.982 3.962 7.675 6.326 12.548 6.326h.022.073c9.388 0 17.169 7.631 17.347 17.012.087 4.532-1.675 8.872-4.96 12.219-3.41 3.476-8.129 5.469-12.946 5.469h-69.849c-3.617 0-6.992-1.434-9.505-4.038-2.512-2.602-3.823-6.032-3.694-9.66.25-7.013 6.394-12.719 13.697-12.719z"/><path d="m49.477 147.533h69.849c7.725 0 14.934-3.062 20.299-8.621 5.363-5.558 8.166-12.876 7.891-20.609-.525-14.768-13.024-26.824-28.009-27.179-6.304-14.959-21.074-24.858-37.456-24.858-12.882 0-24.719 5.913-32.476 16.222-.163.216-.376.345-.583.345 0 0 0 0-.001 0h-.073c-17.503 0-32.013 14.233-32.344 31.727-.163 8.592 3.122 16.764 9.251 23.01 6.212 6.332 14.833 9.963 23.652 9.963zm-.56-49.699h.084c4.883 0 9.577-2.364 12.559-6.326 4.897-6.508 12.365-10.241 20.49-10.241 10.824 0 20.533 6.847 24.159 17.039 1.663 4.672 6.079 7.812 10.989 7.812h1.63c7.303 0 13.447 5.706 13.696 12.72.129 3.627-1.183 7.057-3.694 9.659-2.513 2.604-5.889 4.038-9.506 4.038h-69.847c-4.817 0-9.536-1.993-12.946-5.469-3.285-3.348-5.047-7.688-4.961-12.22.178-9.381 7.96-17.012 17.347-17.012z"/><path d="m506.86 352.405c-3.262-2.982-7.661-4.463-12.057-4.07-36.116 3.25-67.833 24.388-84.844 56.542-.172.324-.396.447-.555.492-.176.049-.335.026-.514-.078-8.673-5.031-18.577-7.69-28.642-7.69-6.033 0-11.862.932-17.35 2.656v-20.79h17.633c8.547 0 15.5-6.953 15.5-15.5v-17.133c0-8.547-6.953-15.5-15.5-15.5h-17.631v-67.834h1.066c8.547 0 15.5-6.953 15.5-15.5v-19.727l2.444-.815c13.046-4.349 23.431-14.733 27.78-27.781 2.696-8.091-1.447-16.774-9.432-19.768-38.125-14.297-73.862-34.065-106.235-58.751 1.704-4.544 2.609-9.373 2.609-14.257 0-13.404-6.528-25.309-16.567-32.714v-50.12c.001-13.271-10.795-24.067-24.065-24.067s-24.066 10.796-24.066 24.067v50.119c-10.039 7.405-16.567 19.31-16.567 32.714 0 4.885.905 9.714 2.609 14.258-32.373 24.686-68.11 44.454-106.235 58.751-7.985 2.995-12.128 11.678-9.432 19.77 4.349 13.046 14.734 23.431 27.78 27.78l2.445.815v19.726c0 8.547 6.953 15.5 15.5 15.5h1.066v67.833h-17.633c-8.547 0-15.5 6.953-15.5 15.5v17.133c0 8.547 6.953 15.5 15.5 15.5h17.633v24.21c-7.715-3.884-16.423-6.076-25.633-6.076-7.663 0-15.107 1.495-22.124 4.443-.342.144-.79.11-1.021-.29-17.372-30.339-48.459-50.311-83.159-53.423-4.379-.392-8.766 1.088-12.021 4.064-3.268 2.989-5.142 7.241-5.142 11.667v82.436.019.01 41.407c0 13.271 10.797 24.067 24.067 24.067h21.573c4.142 0 7.5-3.358 7.5-7.5s-3.358-7.5-7.5-7.5h-21.573c-4.999 0-9.066-4.067-9.066-9.067v-41.436c.011-14.125 11.505-25.614 25.633-25.614 11.921 0 21.967 8.18 24.821 19.221-13.822 3.679-24.038 16.298-24.038 31.263 0 4.142 3.358 7.5 7.5 7.5s7.5-3.358 7.5-7.5c0-9.567 7.783-17.35 17.35-17.35s17.35 7.783 17.35 17.35c0 4.142 3.358 7.5 7.5 7.5s7.5-3.358 7.5-7.5c0-15.459-10.902-28.413-25.42-31.595-3.224-19.205-19.956-33.888-40.063-33.888-9.712 0-18.635 3.429-25.633 9.134v-50.956c0-.235.088-.436.263-.595.243-.223.481-.203.56-.194 29.821 2.675 56.544 19.847 71.482 45.935 3.947 6.895 12.48 9.761 19.847 6.666 5.168-2.171 10.658-3.272 16.315-3.272 23.269 0 42.2 18.931 42.2 42.227-.001 2.991 1.426 5.847 3.817 7.64 2.393 1.793 5.538 2.363 8.411 1.523 5.84-1.706 12.08-2.131 18.13-1.218 6.371.96 12.775-2.178 15.943-7.813 8.941-15.909 25.814-25.793 44.032-25.793 16.922 0 32.638 8.43 42.038 22.55 3.114 4.677 9.115 6.491 14.27 4.311 3.153-1.334 6.504-2.01 9.959-2.01 1.251 0 2.514.093 3.753.277 5.997.89 11.753-3.013 13.088-8.886 4.388-19.317 21.306-32.808 41.143-32.808 7.425 0 14.727 1.959 21.114 5.664 3.729 2.164 8.054 2.706 12.174 1.523 4.122-1.181 7.649-4.059 9.68-7.896 14.628-27.649 41.892-45.823 72.93-48.617.221-.019.424.048.593.203.173.157.26.354.26.586v46.888c-5.018-3.202-10.968-5.067-17.35-5.067-15.513 0-28.505 10.977-31.63 25.571-14.593 3.125-25.57 16.117-25.57 31.63 0 4.142 3.357 7.5 7.5 7.5s7.5-3.358 7.5-7.5c0-9.567 7.783-17.35 17.35-17.35s17.351 7.783 17.351 17.35c0 4.142 3.357 7.5 7.5 7.5s7.5-3.358 7.5-7.5c0-14.823-10.025-27.341-23.648-31.151 2.529-6.457 8.806-11.049 16.148-11.049 9.566 0 17.35 7.783 17.35 17.35v49.7c0 4.999-4.067 9.067-9.066 9.067h-407.298c-4.142 0-7.5 3.358-7.5 7.5s3.358 7.5 7.5 7.5h407.294c13.27-.004 24.066-10.8 24.066-24.071v-123.87c0-4.424-1.873-8.673-5.14-11.658zm-158.96-21.072h-18.134v-67.833h18.134zm-120.304-198.642 2.254-1.724h52.3l2.254 1.724c25.588 19.574 53.219 36.166 82.43 49.542h-221.668c29.211-13.376 56.841-29.968 82.43-49.542zm19.338-108.624c0-5 4.067-9.067 9.066-9.067s9.066 4.067 9.066 9.067v43.232c-2.918-.668-5.949-1.032-9.066-1.032s-6.149.365-9.066 1.032zm9.066 57.2c14.135 0 25.634 11.499 25.634 25.633 0 3.107-.567 6.182-1.659 9.067h-47.949c-1.092-2.885-1.659-5.959-1.659-9.067 0-14.134 11.499-25.633 25.633-25.633zm-138.569 115.966h277.137c-3.245 7.501-9.594 13.391-17.402 15.994l-6.418 2.14h-229.497l-6.419-2.14c-7.807-2.603-14.156-8.494-17.401-15.994zm30.103 50.767v-17.633h216.933v17.633c0 .276-.225.5-.5.5h-8.567-33.134-132.533-33.133-8.566c-.276 0-.5-.224-.5-.5zm16.566 15.5h18.133v67.833h-18.133zm-33.133 100.466v-17.133c0-.276.224-.5.5-.5h25.133 33.133 23.135c4.142 0 7.5-3.358 7.5-7.5s-3.358-7.5-7.5-7.5h-15.635v-67.833h117.533v67.833h-66.898c-4.142 0-7.5 3.358-7.5 7.5s3.358 7.5 7.5 7.5h74.398 33.134 25.133c.275 0 .5.224.5.5v17.133c0 .276-.225.5-.5.5h-25.133-33.134-132.533-33.133-25.133c-.276 0-.5-.224-.5-.5zm33.133 50.632v-35.131h18.133v68.33c-.655.086-1.308.179-1.959.288-1.525-12.987-7.427-24.647-16.174-33.487zm144.916 26.634c-12.322-16.996-31.946-27.065-53.016-27.065-23.632 0-45.515 12.815-57.108 33.443-.125.222-.395.361-.627.33-.343-.052-.687-.089-1.031-.135v-68.339h117.533v60.245c-1.951.366-3.873.871-5.751 1.521zm20.751-13.412v-48.354h18.133v28.061c-7.526 5.14-13.775 12.066-18.133 20.293z"/></g></g></svg>