<svg id="Capa_1" enable-background="new 0 0 512 512" height="512" viewBox="0 0 512 512" width="512" xmlns="http://www.w3.org/2000/svg"><g><g><path d="m278.856 64.538c-2.086-2.434-5.232-3.328-8.1-2.69l-119.511 158.024v81.686h320.121v-12.425z" fill="#ffda8f"/><g fill="#ebc184"><path d="m329.427 301.558-99.094-118.913c-5.961-7.154-14.721-11.256-24.032-11.256-9.312 0-18.071 4.103-24.033 11.256l-99.095 118.913z"/><path d="m270.756 61.848c-1.677.373-3.259 1.267-4.478 2.69l-192.511 224.595v12.425h103.595z"/><path d="m433.513 301.558-72.413-72.509c-5.91-5.918-13.771-9.177-22.135-9.177s-16.224 3.259-22.135 9.177l-43.97 44.028-6.726 6.735v9.518 12.228z"/></g><path d="m496.217 289.133h-229.168l-135.299 136.194v47.471l171.189 31.702h184.994c9.149 0 16.567-7.417 16.567-16.567v-190.516c0-4.575-3.709-8.284-8.283-8.284z" fill="#ffe6b4"/><path d="m496.217 289.133h-23.044c4.575 0 8.283 3.708 8.283 8.283v190.517c0 9.15-7.417 16.567-16.567 16.567h23.044c9.149 0 16.567-7.417 16.567-16.567v-190.516c0-4.575-3.709-8.284-8.283-8.284z" fill="#ffd0a1"/><path d="m322.267 485.172c0-10.674-8.653-19.328-19.328-19.328h-93.878c-10.674 0-19.328-8.653-19.328-19.328 0-10.674 8.653-19.328 19.328-19.328h160.145c10.674 0 19.328-8.653 19.328-19.328 0-10.674-8.653-19.328-19.328-19.328h-96.639l-5.518-99.4h-251.266c-4.575 0-8.283 3.708-8.283 8.283v190.517c0 9.15 7.417 16.567 16.567 16.567h278.872c10.674.001 19.328-8.652 19.328-19.327z" fill="#ffd0a1"/><path d="m305.543 338.833h132.69l-93.408-93.531c-3.236-3.24-8.486-3.24-11.722 0l-27.56 27.596z" fill="#ffda8f"/><path d="m305.543 272.898-16.41 16.432v49.503h71.356z" fill="#ebc184"/><path d="m166.468 260.715-43.804 103.753v24.065h249.303l-159.304-191.163c-2.035-2.442-5.122-3.376-7.969-2.818z" fill="#ffda8f"/><path d="m140.033 388.533 64.661-193.982c-1.787.35-3.48 1.285-4.758 2.818l-159.303 191.164z" fill="#ebc184"/><circle cx="57.2" cy="57.2" fill="#ffc144" r="49.7"/><path d="m57.2 7.5c-3.96 0-7.807.477-11.5 1.352 21.901 5.191 38.2 24.86 38.2 48.348s-16.299 43.157-38.2 48.348c3.693.875 7.54 1.352 11.5 1.352 27.449 0 49.7-22.251 49.7-49.7s-22.251-49.7-49.7-49.7z" fill="#ffa844"/><path d="m479.65 24.067h-.073c-2.6.004-5.014-1.258-6.577-3.335-6.045-8.034-15.655-13.232-26.483-13.232-14.402 0-26.658 9.189-31.225 22.024-.597 1.677-2.143 2.826-3.923 2.826h-1.631c-11.229 0-20.792 8.732-21.191 19.953-.419 11.781 9.007 21.463 20.695 21.463h69.849c13.932 0 25.669-11.401 25.405-25.33-.257-13.502-11.282-24.369-24.846-24.369z" fill="#f3f0f1"/><path d="m98.617 40.633h.073c2.6.004 5.014-1.258 6.577-3.335 6.045-8.034 15.655-13.231 26.483-13.231 14.402 0 26.658 9.189 31.225 22.024.597 1.677 2.143 2.826 3.923 2.826h1.631c11.229 0 20.792 8.732 21.191 19.953.419 11.781-9.007 21.463-20.695 21.463h-69.849c-13.932 0-25.669-11.401-25.405-25.33.256-13.503 11.282-24.37 24.846-24.37z" fill="#f3f0f1"/><path d="m479.65 24.067h-.073c-2.6.004-5.014-1.258-6.577-3.336-6.045-8.033-15.655-13.231-26.483-13.231-4.035 0-7.891.744-11.467 2.064 5.995 2.228 11.17 6.142 14.95 11.167 1.563 2.078 3.977 3.34 6.577 3.336h.073c13.564 0 24.589 10.867 24.845 24.37.264 13.929-11.473 25.33-25.405 25.33h23c13.932 0 25.669-11.401 25.405-25.33-.256-13.503-11.281-24.37-24.845-24.37z" fill="#ede1e5"/><path d="m189.72 68.87c-.399-11.222-9.962-19.953-21.191-19.953h-1.631c-1.78 0-3.326-1.149-3.923-2.826-4.567-12.835-16.823-22.024-31.225-22.024-4.056 0-7.942.73-11.533 2.064 9.188 3.393 16.47 10.721 19.758 19.96.597 1.677 2.143 2.826 3.923 2.826h1.631c11.229 0 20.792 8.732 21.191 19.953.419 11.781-9.007 21.463-20.695 21.463h23c11.687 0 21.114-9.682 20.695-21.463z" fill="#ede1e5"/></g><g><path d="m496.217 281.633h-21.401l-190.266-221.977c-3.002-3.502-7.371-5.511-11.984-5.511s-8.981 2.009-11.983 5.512l-136.979 159.808c-2.696 3.145-2.332 7.88.814 10.575 3.144 2.695 7.879 2.331 10.575-.813l114.585-133.682-36.239 93.014c-2.16-1.078-4.557-1.67-7.04-1.67-4.698 0-9.117 2.07-12.124 5.679l-74.221 89.065h-29.881l22.075-25.754c2.696-3.145 2.332-7.879-.813-10.575-3.146-2.696-7.879-2.332-10.575.814l-30.442 35.516h-54.535c-8.703-.001-15.783 7.08-15.783 15.783v190.517c0 13.27 10.796 24.066 24.067 24.066h21.573c4.142 0 7.5-3.358 7.5-7.5s-3.358-7.5-7.5-7.5h-21.573c-5 0-9.067-4.067-9.067-9.067v-91.9h354.206c6.522 0 11.828 5.306 11.828 11.828s-5.306 11.828-11.828 11.828h-160.145c-14.793 0-26.828 12.035-26.828 26.828s12.035 26.828 26.828 26.828l93.878.001c6.522 0 11.828 5.306 11.828 11.828s-5.306 11.828-11.828 11.828h-222.299c-4.142 0-7.5 3.358-7.5 7.5s3.358 7.5 7.5 7.5h407.293c13.271-.002 24.067-10.798 24.067-24.069v-190.516c0-8.704-7.081-15.784-15.783-15.784zm-140.557-115.966h-25.893v-9.067c0-4.142-3.358-7.5-7.5-7.5s-7.5 3.358-7.5 7.5v9.066h-17.35c-4.142 0-7.5 3.358-7.5 7.5s3.358 7.5 7.5 7.5h71.101l86.543 100.967h-63.352l-41.576-41.631c-2.982-2.986-6.948-4.63-11.168-4.63s-8.186 1.645-11.168 4.63l-38.073 38.123-64.859-77.831 50.149-128.716zm-299.014 215.366 129.969-155.963-51.988 155.963zm152.512-176.155 146.796 176.155h-205.515zm90.208 84.819 39.044-39.095c.304-.306.804-.306 1.108 0l80.625 80.731h-86.081zm-284.366 7.72c0-.432.352-.783.783-.783h91.671l-70.333 84.4h-22.121zm482 190.516c0 5-4.067 9.067-9.067 9.067h-160.922c1.762-3.57 2.756-7.584 2.756-11.828 0-14.793-12.035-26.828-26.828-26.828l-93.878-.001c-6.522 0-11.828-5.306-11.828-11.828s5.306-11.828 11.828-11.828h160.145c14.793 0 26.828-12.035 26.828-26.828 0-4.243-.994-8.258-2.756-11.828h11.822c4.142 0 7.5-3.358 7.5-7.5s-3.358-7.5-7.5-7.5h-29.62l-28.917-34.7h108.237c4.142 0 7.5-3.358 7.5-7.5s-3.358-7.5-7.5-7.5h-13.457l-34.654-34.7h89.528c.432 0 .783.352.783.783z"/><path d="m409.242 81.267h69.849c8.819 0 17.44-3.631 23.652-9.963 6.129-6.246 9.414-14.417 9.251-23.01-.332-17.494-14.842-31.727-32.344-31.727-.004 0-.087-.002-.085 0-.196 0-.41-.129-.572-.345-7.758-10.309-19.595-16.222-32.476-16.222-16.381 0-31.151 9.898-37.456 24.858-14.987.353-27.484 12.41-28.009 27.179-.275 7.732 2.527 15.051 7.891 20.609 5.365 5.559 12.574 8.621 20.299 8.621zm.496-41.417h1.631c4.912 0 9.328-3.14 10.989-7.812 3.626-10.191 13.334-17.038 24.159-17.038 8.125 0 15.593 3.732 20.491 10.242 2.982 3.962 7.675 6.325 12.547 6.325h.023.073c9.387 0 17.169 7.631 17.347 17.011.086 4.532-1.676 8.872-4.961 12.22-3.41 3.475-8.129 5.469-12.946 5.469h-69.849c-3.617 0-6.993-1.434-9.506-4.038-2.511-2.602-3.823-6.032-3.694-9.659.249-7.014 6.393-12.72 13.696-12.72z"/><path d="m57.2 114.4c15.129 0 29.579-6.018 40.262-16.614.57.03 1.142.047 1.714.047h69.849c7.725 0 14.934-3.062 20.299-8.622 5.363-5.558 8.165-12.876 7.891-20.608-.525-14.77-13.023-26.826-28.009-27.179-6.304-14.959-21.075-24.857-37.456-24.857-9.869 0-19.117 3.481-26.394 9.739-10.366-16.265-28.278-26.306-48.156-26.306-31.54 0-57.2 25.66-57.2 57.2s25.66 57.2 57.2 57.2zm74.55-82.833c10.824 0 20.533 6.847 24.159 17.037 1.662 4.673 6.078 7.813 10.989 7.813h1.631c7.302 0 13.446 5.706 13.696 12.72.129 3.627-1.183 7.057-3.694 9.659-2.513 2.604-5.889 4.038-9.506 4.038h-69.849c-4.817 0-9.536-1.993-12.946-5.469-3.285-3.348-5.047-7.688-4.961-12.219.178-9.381 7.96-17.012 17.347-17.012h.085c3.147 0 6.208-.993 8.79-2.752.29-.184.561-.388.818-.606 1.096-.853 2.099-1.837 2.951-2.969 4.897-6.508 12.365-10.24 20.49-10.24zm-74.55-16.567c14.399 0 27.397 7.145 35.104 18.763-14.55 2.93-25.741 15.759-26.032 31.098-.163 8.592 3.123 16.763 9.251 23.009 1.595 1.626 3.351 3.07 5.226 4.324-6.9 4.648-15.082 7.206-23.549 7.206-23.269 0-42.2-18.931-42.2-42.2s18.931-42.2 42.2-42.2z"/></g></g></svg>