<svg id="Capa_1" enable-background="new 0 0 512 512" height="512" viewBox="0 0 512 512" width="512" xmlns="http://www.w3.org/2000/svg"><g><g><path d="m504.5 313.983v-99.062c0-6.275-3.545-12.011-9.158-14.818-57.14-28.57-124.062-30.09-182.44-4.144l-33.746 14.998v116.41z" fill="#6fd7a3"/><path d="m7.5 313.983v-93.703c0-5.945 3.186-11.434 8.347-14.384l44.649-25.513c40.411-23.092 88.179-29.681 133.332-18.393 40.218 10.055 75.75 33.647 100.623 66.811l57.674 76.899v21.667h-72.969z" fill="#6fd7a3"/><path d="m504.5 214.921c0-6.275-3.545-12.011-9.158-14.818-6.823-3.411-13.788-6.425-20.858-9.065 4.356 3.073 7.016 8.099 7.016 13.531v110.779l23-1.366z" fill="#3ec3a4"/><path d="m294.451 228.801c-24.874-33.165-60.405-56.757-100.623-66.811-18.241-4.56-36.909-6.199-55.346-5.015 10.84.688 21.666 2.345 32.346 5.015 40.218 10.055 75.75 33.647 100.623 66.811l57.674 76.899v21.667h23v-21.667z" fill="#3ec3a4"/><path d="m481.5 305.7h-465.717c-4.575 0-8.283 3.709-8.283 8.283v173.95c0 9.15 7.417 16.567 16.567 16.567h463.867c9.15 0 16.567-7.417 16.567-16.567v-159.233z" fill="#bbf49b"/><g><path d="m313.983 358.4v-74.617c0-6.774 4.124-12.866 10.414-15.382l39.286-15.714h4.509v105.713z" fill="#f3f0f1"/><path d="m340.683 261.887v96.513h27.51v-105.713h-4.51z" fill="#ede1e5"/><path d="m353.165 371.967-12.482-16.567h-26.7c-9.15 0-16.567 7.417-16.567 16.567v19.567h28.946z" fill="#97b3c7"/><path d="m368.193 391.534v-36.134h-27.509v15.245c0 1.219-.552 2.376-1.513 3.126-5.811 4.536-10.297 10.686-12.808 17.763z" fill="#86a7bf"/><path d="m363.683 388.533h-66.267c-4.575 0-8.283 3.709-8.283 8.283v16.567c0 4.575 3.709 8.283 8.283 8.283h49.7z" fill="#f3f0f1"/><path d="m347.117 421.667 16.567-33.133h-36.127c-2.207 4.885-3.44 10.301-3.44 16v4.06c-3.389 3.651-5.904 8.122-7.228 13.073z" fill="#ede1e5"/></g><path d="m496.217 305.7h-14.717v182.233c0 9.15-7.417 16.567-16.567 16.567h23c9.15 0 16.567-7.417 16.567-16.567v-173.95c0-4.574-3.708-8.283-8.283-8.283z" fill="#9be69d"/><g><g fill="#f3f0f1"><path d="m479.65 24.067h-.073c-2.6.004-5.014-1.258-6.577-3.336-6.045-8.033-15.655-13.231-26.483-13.231-14.402 0-26.658 9.189-31.225 22.024-.597 1.677-2.143 2.826-3.923 2.826h-1.631c-11.229 0-20.792 8.732-21.191 19.953-.419 11.781 9.007 21.463 20.695 21.463h69.849c13.932 0 25.669-11.401 25.405-25.33-.257-13.502-11.282-24.369-24.846-24.369z"/><path d="m98.617 40.633h.073c2.6.004 5.014-1.258 6.577-3.335 6.045-8.034 15.655-13.231 26.483-13.231 14.402 0 26.658 9.189 31.225 22.024.597 1.677 2.143 2.826 3.923 2.826h1.631c11.229 0 20.792 8.732 21.191 19.953.419 11.781-9.007 21.463-20.695 21.463h-69.849c-13.932 0-25.669-11.401-25.405-25.331.256-13.502 11.282-24.369 24.846-24.369z"/></g></g><circle cx="305.7" cy="73.767" fill="#ffc144" r="49.7"/><path d="m208.56 452.625 12.931-19.77 2.992-20.091-14.427-15.496-13.892-14.32-24.045-15.281-23.805-12.267h-11.644l28.213 99.4h24.976z" fill="#6fd7a3"/><path d="m363.683 200.059h63.418v194.715h-63.418z" fill="#f3f0f1"/><path d="m65.483 394.534v-142.866c0-5.86 5.919-9.867 11.36-7.691l61.06 24.424c6.29 2.516 10.414 8.608 10.414 15.382v110.751z" fill="#f3f0f1"/><path d="m423.517 200.059h23v194.715h-23z" fill="#ede1e5"/><path d="m442.697 170.167h-95.581v20.133c0 8.837 7.163 16 16 16h63.581c8.837 0 16-7.163 16-16z" fill="#97b3c7"/><path d="m440.083 170.167v20.133c0 8.837-7.163 16-16 16h23c8.837 0 16-7.163 16-16v-20.133z" fill="#86a7bf"/><path d="m442.01 140.033h-95.177c-4.418 0-8 3.582-8 8v17.133c0 4.418 3.582 8 8 8h95.177c4.418 0 8-3.582 8-8v-17.133c0-4.418-3.582-8-8-8z" fill="#f3f0f1"/><path d="m463.367 140.033h-23c4.418 0 8 3.582 8 8v17.133c0 4.418-3.582 8-8 8h23c4.418 0 8-3.582 8-8v-17.133c0-4.418-3.582-8-8-8z" fill="#ede1e5"/><path d="m216.939 397.558c-.582-.133-1.12-.415-1.543-.837-.541-.541-.847-1.262-.911-2.025-1.076-12.731-11.745-22.729-24.754-22.729-1.048 0-2.082.065-3.096.192-2.771.345-5.492-.732-7.346-2.82-7.585-8.548-18.648-13.938-30.975-13.938h-11.644l.492 1.734c7.481 2.232 14.079 6.512 19.13 12.204 1.854 2.089 4.575 3.165 7.346 2.82 1.014-.126 2.047-.192 3.096-.192 13.009 0 23.678 9.998 24.754 22.729.064.762.37 1.484.911 2.025.422.423.96.704 1.543.837 12.946 2.966 22.588 14.591 22.491 28.459-.113 16.03-13.569 28.783-29.6 28.783h22.997c16.031 0 29.487-12.753 29.6-28.783.097-13.868-9.545-25.493-22.491-28.459z" fill="#3ec3a4"/><path d="m137.903 268.401-21.634-8.653c5.513 2.806 9.051 8.486 9.051 14.756v120.03h22.997v-110.751c0-6.774-4.125-12.866-10.414-15.382z" fill="#ede1e5"/><path d="m48.917 425.667h94.61v-21.134c0-8.837-7.163-16-16-16h-62.61c-8.837 0-16 7.163-16 16z" fill="#97b3c7"/><path d="m148.883 388.533h-22.997c8.837 0 16 7.164 16 16v21.134h22.997v-21.134c0-8.836-7.163-16-16-16z" fill="#86a7bf"/><path d="m48.633 454.8h95.177c4.418 0 8-3.582 8-8v-17.133c0-4.418-3.582-8-8-8h-95.177c-4.418 0-8 3.582-8 8v17.133c0 4.418 3.582 8 8 8z" fill="#f3f0f1"/><path d="m165.167 421.667h-22.997c4.418 0 8 3.582 8 8v17.133c0 4.418-3.582 8-8 8h22.997c4.418 0 8-3.582 8-8v-17.133c0-4.419-3.582-8-8-8z" fill="#ede1e5"/><path d="m347.117 424.667h94.61v-20.134c0-8.837-7.164-16-16-16h-62.61c-8.837 0-16 7.163-16 16z" fill="#97b3c7"/><path d="m447.083 388.533h-23c8.837 0 16 7.164 16 16v20.134h23v-20.134c0-8.836-7.163-16-16-16z" fill="#86a7bf"/><path d="m346.833 454.8h95.177c4.418 0 8-3.582 8-8v-17.133c0-4.418-3.582-8-8-8h-95.177c-4.418 0-8 3.582-8 8v17.133c0 4.418 3.582 8 8 8z" fill="#f3f0f1"/><path d="m463.367 421.667h-23c4.418 0 8 3.582 8 8v17.133c0 4.418-3.582 8-8 8h23c4.418 0 8-3.582 8-8v-17.133c0-4.419-3.582-8-8-8z" fill="#ede1e5"/><g fill="#ede1e5"><path d="m479.65 24.067h-.073c-2.6.004-5.014-1.258-6.577-3.336-6.045-8.033-15.655-13.231-26.483-13.231-4.035 0-7.891.744-11.467 2.064 5.995 2.228 11.17 6.143 14.95 11.167 1.563 2.078 3.977 3.339 6.577 3.336h.073c13.564 0 24.589 10.867 24.845 24.369.264 13.929-11.473 25.33-25.405 25.33h23c13.932 0 25.669-11.401 25.405-25.33-.256-13.502-11.281-24.369-24.845-24.369z"/><path d="m189.72 68.87c-.399-11.222-9.962-19.953-21.191-19.953h-1.631c-1.78 0-3.326-1.149-3.923-2.826-4.567-12.835-16.823-22.024-31.225-22.024-4.056 0-7.942.73-11.533 2.064 9.188 3.393 16.47 10.721 19.758 19.96.597 1.677 2.143 2.826 3.923 2.826h1.631c11.229 0 20.792 8.732 21.191 19.953.419 11.781-9.007 21.463-20.695 21.463h23c11.687 0 21.114-9.682 20.695-21.463z"/></g><path d="m305.7 24.067c-3.96 0-7.807.477-11.5 1.352 21.901 5.191 38.2 24.86 38.2 48.348s-16.299 43.157-38.2 48.348c3.693.875 7.54 1.352 11.5 1.352 27.449 0 49.7-22.252 49.7-49.7 0-27.449-22.251-49.7-49.7-49.7z" fill="#ffa844"/></g><g><path d="m409.242 81.267h69.849c8.818 0 17.44-3.631 23.652-9.963 6.129-6.246 9.414-14.418 9.251-23.009-.332-17.494-14.841-31.727-32.344-31.727-.004 0-.082 0-.086 0-.195 0-.409-.128-.571-.345-7.758-10.31-19.595-16.223-32.476-16.223-16.383 0-31.152 9.898-37.455 24.858-14.986.354-27.485 12.411-28.01 27.179-.275 7.732 2.527 15.051 7.891 20.609 5.365 5.559 12.574 8.621 20.299 8.621zm.496-41.417h1.631c4.91 0 9.326-3.139 10.989-7.812 3.625-10.191 13.334-17.038 24.159-17.038 8.125 0 15.594 3.732 20.49 10.24 2.98 3.963 7.674 6.327 12.547 6.327h.022.074c9.387 0 17.168 7.631 17.346 17.012.087 4.532-1.675 8.872-4.96 12.219-3.41 3.476-8.128 5.469-12.945 5.469h-69.849c-3.617 0-6.994-1.434-9.507-4.038-2.511-2.602-3.822-6.032-3.693-9.66.249-7.013 6.393-12.719 13.696-12.719z"/><path d="m99.176 97.834h69.849c7.726 0 14.935-3.062 20.3-8.622 5.363-5.557 8.166-12.877 7.891-20.608-.534-15.023-12.778-26.839-28.01-27.18-6.304-14.959-21.074-24.857-37.455-24.857-12.882 0-24.72 5.913-32.478 16.223-.162.215-.375.343-.581.343-.001 0-.001 0-.001 0h-.074c-17.503 0-32.012 14.233-32.344 31.727-.163 8.592 3.122 16.764 9.251 23.01 6.212 6.332 14.833 9.964 23.652 9.964zm-.56-49.701h.086c4.884 0 9.578-2.364 12.558-6.326 4.896-6.508 12.365-10.24 20.49-10.24 10.824 0 20.533 6.847 24.158 17.039 1.663 4.672 6.079 7.811 10.989 7.811h1.631c7.303 0 13.446 5.706 13.696 12.72.129 3.627-1.183 7.057-3.693 9.659-2.514 2.604-5.89 4.038-9.507 4.038h-69.848c-4.817 0-9.535-1.993-12.945-5.469-3.285-3.348-5.047-7.688-4.96-12.22.177-9.38 7.958-17.012 17.345-17.012z"/><path d="m305.7 130.967c31.54 0 57.2-25.66 57.2-57.2s-25.66-57.2-57.2-57.2-57.2 25.66-57.2 57.2 25.66 57.2 57.2 57.2zm0-99.4c23.27 0 42.2 18.931 42.2 42.2s-18.931 42.2-42.2 42.2-42.2-18.931-42.2-42.2 18.931-42.2 42.2-42.2z"/><path d="m498.696 193.396c-9.064-4.532-18.499-8.454-28.113-11.706v-2.816c4.92-2.601 8.284-7.765 8.284-13.707v-17.133c0-8.547-6.953-15.5-15.5-15.5h-57.334c-4.143 0-7.5 3.358-7.5 7.5s3.357 7.5 7.5 7.5h57.334c.275 0 .5.224.5.5v17.133c0 .276-.225.5-.5.5h-.284-115.966-.284c-.275 0-.5-.224-.5-.5v-17.133c0-.276.225-.5.5-.5h24.2c4.143 0 7.5-3.358 7.5-7.5s-3.357-7.5-7.5-7.5h-24.2c-8.547 0-15.5 6.953-15.5 15.5v17.133c0 5.698 3.099 10.674 7.691 13.367-9.942 2.839-19.729 6.377-29.168 10.572l-29.078 12.924c-23.622-22.825-53.032-39.291-85.131-47.316-47.26-11.816-96.578-5.011-138.872 19.157l-44.648 25.513c-7.48 4.274-12.127 12.281-12.127 20.896v267.653c0 13.271 10.796 24.067 24.066 24.067h21.634c4.143 0 7.5-3.358 7.5-7.5s-3.357-7.5-7.5-7.5h-21.634c-4.999 0-9.066-4.067-9.066-9.067v-173.95c0-.432.352-.783.783-.783h42.2v68.878c-9.584 2.966-16.566 11.91-16.566 22.455v11.426c-4.92 2.601-8.284 7.765-8.284 13.707v17.134c0 8.547 6.953 15.5 15.5 15.5h116.534c1.656 0 3.249-.267 4.747-.75.985.476 2.086.75 3.253.75h36.663c20.315 0 36.958-16.252 37.1-36.23.112-15.944-10.392-30.206-25.371-35.015-2.748-15.132-16.181-26.588-31.828-26.588-1.346 0-2.699.084-4.023.249-.393.048-.699-.232-.81-.356-7.602-8.566-17.923-14.134-29.082-15.872v-35.288h150.667v35.903c-9.608 3.16-16.566 12.212-16.566 22.864v10.966c-4.929 2.673-8.284 7.894-8.284 13.884v16.566c0 8.703 7.081 15.783 15.784 15.783h33.941c-.005.168-.025.331-.025.5v17.134c0 8.547 6.953 15.5 15.5 15.5h116.534c8.547 0 15.5-6.953 15.5-15.5v-17.133c0-5.942-3.364-11.106-8.284-13.707v-11.426c0-10.545-6.982-19.49-16.566-22.455v-68.879h42.2c.432 0 .783.352.783.783v173.95c0 4.999-4.067 9.067-9.066 9.067h-407.294c-4.143 0-7.5 3.358-7.5 7.5s3.357 7.5 7.5 7.5h407.294c13.27 0 24.066-10.796 24.066-24.067v-273.012c0-9.175-5.098-17.423-13.304-21.525zm-43.113-12.729v9.633c0 4.687-3.814 8.5-8.5 8.5h-.566-82.833-.566c-4.686 0-8.5-3.813-8.5-8.5v-9.633zm-84.399 200.366v-167.233h67.833v167.233zm-49.701-97.25c0-3.729 2.237-7.033 5.699-8.418l29.001-11.6v84.135h-34.7zm-5.535-80.97c7.771-3.454 15.794-6.432 23.946-8.905 1.383 8.938 7.82 16.227 16.289 18.847v34.854l-29.424 11.77-26.308-35.077c-2.77-3.694-5.68-7.268-8.703-10.733zm-209.048 160.087c4.143 0 7.5-3.358 7.5-7.5v-88.322l20.717 8.287c3.462 1.385 5.699 4.689 5.699 8.418v71.559c0 .02-.003.038-.003.058s.003.039.003.058v25.575h-67.833v-129.365c0-.114 0-.416.345-.648.344-.233.624-.121.729-.079l25.343 10.137v94.322c0 4.142 3.358 7.5 7.5 7.5zm-50.483 41.633c0-4.687 3.813-8.5 8.5-8.5h83.966c4.687 0 8.5 3.813 8.5 8.5v9.633h-100.966zm108.75 42.767h-116.534c-.275 0-.5-.224-.5-.5v-17.133c0-.276.225-.5.5-.5h.284 115.966.284c.275 0 .5.224.5.5v17.133c0 .276-.225.5-.5.5zm8.512-72.984c3.511 3.955 8.703 5.931 13.885 5.285.711-.089 1.44-.134 2.167-.134 8.938 0 16.528 6.967 17.28 15.861.216 2.547 1.312 4.926 3.076 6.69 1.41 1.413 3.201 2.399 5.178 2.851 9.727 2.229 16.735 11.101 16.665 21.096-.083 11.765-9.997 21.336-22.1 21.336h-29.188c.005-.168.025-.331.025-.5v-17.133c0-5.942-3.364-11.106-8.284-13.707v-11.426c0-10.545-6.982-19.49-16.566-22.455v-18.327c6.845 1.557 13.117 5.216 17.862 10.563zm-17.863-76.116v-14.417c0-9.898-5.939-18.669-15.129-22.345l-61.06-24.424c-4.869-1.947-10.366-1.355-14.71 1.584-4.342 2.94-6.935 7.826-6.935 13.07v46.532h-42.2c-.264 0-.522.027-.783.04v-77.96c0-3.246 1.751-6.262 4.568-7.873l44.648-25.513c38.92-22.238 84.305-28.5 127.792-17.629 38.428 9.607 72.678 32.349 96.442 64.036l25.089 33.451c-4.436 4.415-7.056 10.47-7.056 17.031v14.417zm149.101 73.767c0-4.999 4.067-9.067 9.066-9.067h42.2v18.133h-51.267v-9.066zm-8.284 41.416v-16.566c0-.432.352-.784.784-.784h43.798c-1.027 2.638-1.597 5.503-1.597 8.5v9.633h-42.2c-.434.001-.785-.351-.785-.783zm167.234 33.417c0 .276-.225.5-.5.5h-116.534c-.275 0-.5-.224-.5-.5v-17.133c0-.276.225-.5.5-.5h.284 115.966.284c.275 0 .5.224.5.5zm-8.284-32.633h-100.966v-9.633c0-4.687 3.814-8.5 8.5-8.5h.566 83.399c4.686 0 8.5 3.813 8.5 8.5v9.633zm40.634-115.967h-42.2v-85.445c7.399-2.289 13.245-8.142 15.528-15.543 7.66 2.757 15.18 5.968 22.444 9.6 3.091 1.545 5.012 4.653 5.012 8.109v83.318c-.262-.012-.52-.039-.784-.039z"/><path d="m405.1 231.933c-4.143 0-7.5 3.358-7.5 7.5v115.967c0 4.142 3.357 7.5 7.5 7.5s7.5-3.358 7.5-7.5v-115.967c0-4.142-3.358-7.5-7.5-7.5z"/><path d="m156.6 208.504c-5.132 0-9.957 1.999-13.587 5.628-.796.796-1.854 1.234-2.979 1.234s-2.184-.439-2.98-1.235c-3.629-3.629-8.454-5.627-13.586-5.627-5.133 0-9.958 1.999-13.587 5.628-2.929 2.929-2.929 7.678.001 10.607 2.928 2.929 7.677 2.928 10.606-.001.796-.796 1.854-1.234 2.979-1.234s2.184.438 2.981 1.235c3.629 3.629 8.454 5.627 13.586 5.627 5.133 0 9.958-1.999 13.586-5.627.797-.796 1.855-1.235 2.98-1.235 1.126 0 2.184.438 2.98 1.234 2.929 2.928 7.678 2.929 10.606.001 2.93-2.929 2.93-7.678.001-10.607-3.629-3.629-8.455-5.628-13.587-5.628z"/><path d="m256 258.205c-5.133 0-9.958 1.999-13.586 5.627-.797.796-1.855 1.235-2.98 1.235-1.126 0-2.184-.438-2.98-1.235-7.489-7.489-19.682-7.49-27.173 0-2.93 2.929-2.93 7.678-.001 10.607 2.929 2.928 7.678 2.929 10.606.001 1.644-1.643 4.317-1.644 5.961-.001 3.629 3.629 8.454 5.628 13.587 5.628 5.132 0 9.957-1.998 13.587-5.628.796-.796 1.854-1.234 2.98-1.234s2.184.438 2.979 1.234c2.929 2.928 7.678 2.929 10.606.001 2.93-2.929 2.93-7.678.001-10.607-3.629-3.629-8.454-5.628-13.587-5.628z"/></g></g></svg>