<svg id="Capa_1" enable-background="new 0 0 512.016 512.016" height="512" viewBox="0 0 512.016 512.016" width="512" xmlns="http://www.w3.org/2000/svg"><g><g><path d="m449.583 418.502v-18.302c13.951-28.528 21.791-60.589 21.791-94.484 0-118.944-96.423-215.367-215.367-215.367s-215.366 96.423-215.366 215.366c0 33.896 7.84 65.957 21.791 94.484v18.302h387.151z" fill="#ff9346"/><path d="m256.008 90.349c-3.858 0-7.692.106-11.5.306 113.596 5.978 203.867 99.975 203.867 215.06 0 33.896-7.841 65.957-21.791 94.484v18.302h23v-18.301c13.95-28.528 21.791-60.589 21.791-94.484-.001-118.944-96.423-215.367-215.367-215.367z" fill="#ff7d46"/><path d="m366.292 305.646-45.908-93.071-58.087-22.259h-17.72c-58.609 5.774-104.397 55.203-104.397 115.33 0 64.008 51.889 115.897 115.897 115.897 31.607 0 60.254-12.658 81.162-33.174z" fill="#ffc144"/><path d="m256.077 189.749c-3.881 0-7.717.195-11.5.567 58.609 5.774 104.398 55.203 104.398 115.33s-45.788 109.556-104.398 115.33c3.783.373 7.619.567 11.5.567 64.008 0 115.898-51.889 115.898-115.897s-51.89-115.897-115.898-115.897z" fill="#ffa844"/><path d="m481.508 476.447 23-38.198v-40.002c0-5.608-5.497-9.718-10.8-7.893-3.516 1.211-6.873 3.03-9.909 5.459-12.107 9.686-29.31 9.686-41.416 0-12.107-9.685-29.31-9.685-41.417 0-12.107 9.686-29.31 9.686-41.417 0-12.107-9.685-29.31-9.685-41.417 0-12.107 9.686-29.31 9.686-41.417 0-12.107-9.685-29.31-9.685-41.417 0-12.107 9.686-29.31 9.686-41.417 0-12.107-9.685-29.31-9.685-41.417 0-12.107 9.686-29.31 9.686-41.417 0-12.107-9.685-29.31-9.685-41.417 0-12.107 9.686-29.31 9.686-41.417 0-3.036-2.429-6.392-4.249-9.909-5.459-5.303-1.826-10.8 2.285-10.8 7.893v40.002l16.567 38.198z" fill="#93dcfc"/><path d="m481.508 476.447 23-38.198v-40.002c0-5.608-5.497-9.718-10.8-7.893-3.516 1.211-6.873 3.03-9.909 5.459-.759.608-1.539 1.177-2.336 1.708.021.24.044.48.044.726v78.2z" fill="#83d2fc"/><path d="m481.508 447.189c-11.914 7.971-27.763 7.413-39.125-1.676-12.107-9.685-29.31-9.685-41.417 0s-29.31 9.685-41.417 0-29.31-9.685-41.417 0-29.31 9.685-41.417 0-29.31-9.685-41.417 0c-12.107 9.685-29.31 9.685-41.417 0s-29.31-9.685-41.417 0-29.31 9.685-41.417 0c-12.107-9.685-29.31-9.685-41.417 0s-29.31 9.685-41.417 0c-6.053-4.843-13.381-7.264-20.708-7.264v49.7c0 9.15 7.417 16.567 16.567 16.567h463.867c9.149 0 16.567-7.417 16.567-16.567v-17.759z" fill="#81b8fd"/><path d="m483.799 445.513c-.745.596-1.51 1.154-2.292 1.676v40.759c0 9.15-7.417 16.567-16.567 16.567h23c9.149 0 16.567-7.417 16.567-16.567v-49.7c-7.327.001-14.654 2.422-20.708 7.265z" fill="#6fa8fd"/><path d="m481.508 476.447 23-38.198v-40.002c0-5.608-5.497-9.718-10.8-7.893-3.516 1.211-6.873 3.03-9.909 5.459-12.107 9.686-29.31 9.686-41.416 0-12.107-9.685-29.31-9.685-41.417 0-12.107 9.686-29.31 9.686-41.417 0-12.107-9.685-29.31-9.685-41.417 0-12.107 9.686-29.31 9.686-41.417 0-12.107-9.685-29.31-9.685-41.417 0-12.107 9.686-29.31 9.686-41.417 0-12.107-9.685-29.31-9.685-41.417 0-12.107 9.686-29.31 9.686-41.417 0-12.107-9.685-29.31-9.685-41.417 0-12.107 9.686-29.31 9.686-41.417 0-3.036-2.429-6.392-4.249-9.909-5.459-5.303-1.826-10.8 2.285-10.8 7.893v40.002l16.567 38.198z" fill="#64caff"/><path d="m481.508 476.447 23-38.198v-40.002c0-5.608-5.497-9.718-10.8-7.893-3.516 1.211-6.873 3.03-9.909 5.459-.759.608-1.539 1.177-2.336 1.708.021.24.044.48.044.726v78.2z" fill="#00b8ff"/><path d="m481.508 447.189c-11.914 7.971-27.763 7.413-39.125-1.676-12.107-9.685-29.31-9.685-41.417 0s-29.31 9.685-41.417 0-29.31-9.685-41.417 0-29.31 9.685-41.417 0-29.31-9.685-41.417 0c-12.107 9.685-29.31 9.685-41.417 0s-29.31-9.685-41.417 0-29.31 9.685-41.417 0c-12.107-9.685-29.31-9.685-41.417 0s-29.31 9.685-41.417 0c-6.053-4.843-13.381-7.264-20.708-7.264v49.7c0 9.15 7.417 16.567 16.567 16.567h463.867c9.149 0 16.567-7.417 16.567-16.567v-17.759z" fill="#00b8ff"/><path d="m483.799 445.513c-.745.596-1.51 1.154-2.292 1.676v40.759c0 9.15-7.417 16.567-16.567 16.567h23c9.149 0 16.567-7.417 16.567-16.567v-49.7c-7.327.001-14.654 2.422-20.708 7.265z" fill="#00a2ff"/></g><g><path d="m505.348 385.331c-4.097-2.921-9.36-3.694-14.081-2.068-4.408 1.517-8.496 3.77-12.152 6.694-5.564 4.451-12.428 6.255-19.06 5.457 12.479-28.287 18.82-58.414 18.82-89.697 0-59.53-23.183-115.497-65.276-157.591-42.094-42.094-98.06-65.276-157.59-65.276s-115.496 23.182-157.59 65.276-65.276 98.061-65.276 157.591c0 31.284 6.34 61.41 18.82 89.697-6.632.799-13.496-1.006-19.061-5.457-3.655-2.924-7.743-5.176-12.15-6.693-4.723-1.625-9.986-.853-14.082 2.068-4.17 2.975-6.66 7.803-6.66 12.916v89.702c0 13.271 10.796 24.067 24.066 24.067h21.573c4.143 0 7.5-3.358 7.5-7.5s-3.357-7.5-7.5-7.5h-21.575c-4.999 0-9.066-4.067-9.066-9.067v-41.05c3.08.944 5.986 2.441 8.523 4.47 14.953 11.961 35.837 11.961 50.788 0 9.434-7.548 22.612-7.547 32.046 0 14.951 11.962 35.836 11.962 50.787 0 9.434-7.546 22.613-7.548 32.046 0 14.951 11.961 35.835 11.961 50.788 0 9.433-7.547 22.61-7.548 32.045 0 14.953 11.961 35.837 11.961 50.788 0 9.434-7.548 22.612-7.547 32.046 0 7.477 5.981 16.434 8.972 25.394 8.971 8.958-.001 17.919-2.991 25.394-8.971 9.434-7.546 22.612-7.548 32.046 0 14.951 11.961 35.835 11.961 50.788 0 2.536-2.029 5.443-3.527 8.523-4.47v41.05c0 5-4.067 9.067-9.066 9.067h-407.297c-4.143 0-7.5 3.358-7.5 7.5s3.357 7.5 7.5 7.5h407.294c13.27 0 24.066-10.796 24.066-24.067v-89.702c.001-5.114-2.489-9.943-6.659-12.917zm-249.34-287.482c114.618 0 207.866 93.248 207.866 207.867 0 29.187-5.914 57.288-17.553 83.668-14.894-11.377-35.333-11.191-50.04.572-3.542 2.834-7.612 4.603-11.814 5.308 14.953-21.392 24.302-46.071 27.186-72.158.456-4.117-2.513-7.824-6.63-8.279-4.116-.454-7.823 2.513-8.278 6.63-2.87 25.95-12.799 50.374-28.797 70.981-1.286-.709-2.529-1.536-3.712-2.483-3.731-2.985-7.832-5.224-12.118-6.719 17.729-21.878 27.357-48.915 27.357-77.522 0-68.08-55.387-123.467-123.467-123.467-26.87 0-52.416 8.483-73.877 24.532-3.316 2.481-3.995 7.181-1.514 10.498 2.48 3.317 7.182 3.995 10.497 1.515 18.848-14.095 41.287-21.545 64.894-21.545 59.809 0 108.467 48.658 108.467 108.467 0 28.5-10.872 55.234-30.674 75.587-7.233.913-14.282 3.797-20.353 8.654-9.434 7.548-22.612 7.547-32.046 0-14.951-11.961-35.836-11.96-50.787 0-9.434 7.546-22.612 7.548-32.046 0-6.071-4.857-13.12-7.741-20.353-8.654-19.802-20.353-30.674-47.087-30.674-75.587 0-22.985 7.096-44.944 20.521-63.501 2.428-3.356 1.675-8.045-1.682-10.473-3.354-2.428-8.045-1.675-10.473 1.681-15.287 21.132-23.367 46.131-23.367 72.293 0 28.606 9.629 55.644 27.357 77.522-4.286 1.495-8.387 3.735-12.118 6.719-1.182.946-2.423 1.772-3.708 2.481-19.164-24.723-29.664-55.302-29.664-86.722 0-16.199 2.71-32.081 8.056-47.202 1.381-3.905-.666-8.19-4.571-9.571-3.908-1.38-8.191.667-9.571 4.572-5.914 16.731-8.913 34.294-8.913 52.201 0 32.097 9.907 63.404 28.125 89.547-4.196-.708-8.26-2.476-11.798-5.306-14.707-11.764-35.146-11.949-50.04-.572-11.639-26.38-17.553-54.481-17.553-83.668-.001-114.618 93.247-207.866 207.865-207.866zm223.106 341.808c-9.435 7.547-22.613 7.548-32.046 0-14.951-11.961-35.835-11.961-50.788 0-9.434 7.547-22.611 7.547-32.045 0-14.953-11.961-35.837-11.961-50.788 0-9.434 7.548-22.612 7.547-32.046 0-14.951-11.961-35.836-11.961-50.787 0-9.434 7.547-22.612 7.548-32.046 0-14.951-11.961-35.835-11.961-50.788 0-9.434 7.547-22.611 7.547-32.045 0-14.953-11.961-35.837-11.961-50.788 0-9.433 7.547-22.611 7.547-32.046 0-5.208-4.167-11.385-6.967-17.894-8.196v-33.215c0-.382.232-.605.37-.704.252-.179.403-.127.488-.098 2.777.957 5.356 2.377 7.664 4.224 14.953 11.962 35.837 11.961 50.788 0 9.434-7.548 22.612-7.548 32.046 0 14.951 11.962 35.836 11.961 50.787 0 5.195-4.156 11.525-6.01 17.741-5.589 0 .004 0 .008.001.013.047 0 .094-.006.141-.007 5.023.368 9.965 2.223 14.164 5.583 14.952 11.962 35.836 11.961 50.788 0 9.433-7.548 22.61-7.548 32.045 0 14.953 11.962 35.837 11.961 50.788 0 9.434-7.548 22.612-7.548 32.046 0 14.952 11.962 35.837 11.961 50.787 0 9.434-7.547 22.612-7.548 32.046 0 14.951 11.962 35.836 11.961 50.787 0 2.309-1.847 4.888-3.268 7.666-4.225.082-.029.235-.082.487.098.138.099.37.321.37.704v33.215c-6.508 1.23-12.685 4.03-17.893 8.197z"/><path d="m191.078 179.845c20.19-10.437 42.035-15.729 64.93-15.729 47.537 0 91.652 23.667 118.007 63.31 1.445 2.173 3.826 3.349 6.253 3.349 1.426-.001 2.869-.407 4.145-1.255 3.449-2.293 4.387-6.949 2.094-10.398-29.143-43.835-77.928-70.005-130.499-70.005-24.958 0-49.792 6.018-71.818 17.404-3.68 1.902-5.12 6.427-3.218 10.106 1.901 3.679 6.425 5.119 10.106 3.218z"/><path d="m275.928 19.651c16.928-8.464 37.29-5.159 50.671 8.223l6.817 6.818c.739.739 1.595 1.368 2.565 1.758 2.914 1.173 6.085.441 8.163-1.637l6.94-6.939c11.832-11.834 29.126-15.786 44.674-10.69 3.556 1.166 7.429-.401 9.102-3.748 2.065-4.129-.069-9.08-4.456-10.517-20.858-6.832-44.054-1.527-59.927 14.347l-1.637 1.636-1.635-1.636c-17.887-17.886-45.07-22.354-67.729-11.161-3.434 1.696-5.254 5.618-4.009 9.24 1.51 4.389 6.456 6.309 10.461 4.306z"/><path d="m398.399 79.921c1.852 3.705 6.356 5.208 10.063 3.354 7.016-3.508 15.459-2.138 21.006 3.409l3.47 3.47c1.465 1.464 3.385 2.197 5.304 2.197s3.839-.732 5.304-2.197l3.47-3.47c5.548-5.548 13.987-6.918 21.005-3.409 3.707 1.854 8.211.35 10.063-3.354 1.853-3.705.352-8.21-3.354-10.063-12.051-6.025-26.402-4.164-36.487 4.517-10.084-8.682-24.439-10.542-36.488-4.517-3.706 1.853-5.208 6.358-3.356 10.063z"/><path d="m27.428 76.313c11.975-5.986 26.375-3.649 35.839 5.815l5.204 5.205c1.406 1.407 3.314 2.197 5.304 2.197 1.989 0 3.897-.79 5.304-2.197l5.203-5.205c9.465-9.464 23.868-11.801 35.839-5.816 3.707 1.854 8.212.351 10.063-3.354 1.852-3.705.351-8.21-3.354-10.062-17.712-8.856-39.016-5.428-53.055 8.526-14.038-13.952-35.339-17.382-53.054-8.527-3.705 1.852-5.207 6.357-3.355 10.063s6.36 5.207 10.062 3.355z"/></g></g></svg>