<svg id="Capa_1" enable-background="new 0 0 512.001 512.001" height="512" viewBox="0 0 512.001 512.001" width="512" xmlns="http://www.w3.org/2000/svg"><g><g><g><path d="m504.501 403.332v-180.464c0-36.598-29.669-66.267-66.267-66.267s-66.267 29.669-66.267 66.267c0 1.529.07 3.04.172 4.543-4.913-2.883-10.631-4.543-16.739-4.543-18.299 0-33.133 14.834-33.133 33.133 0 3.39.512 6.661 1.458 9.741-10.07-6.175-21.913-9.741-34.591-9.741-19.831 0-37.615 8.722-49.759 22.527-1.221-30.945-26.68-55.66-57.925-55.66-8.921 0-17.368 2.019-24.917 5.618-1.406-39.936-34.204-71.885-74.483-71.885-41.173 0-74.55 33.377-74.55 74.55v172.18h497.001z" fill="#dcf3fe"/><path d="m438.234 156.601c-3.925 0-7.763.361-11.5 1.015 31.113 5.447 54.767 32.578 54.767 65.252v180.464h23v-180.464c0-36.598-29.669-66.267-66.267-66.267z" fill="#c0defa"/><g><g><g><path d="m335.427 290.578c1.801-3.113 1.145-7.073-1.584-9.416-4.784-4.108-8.379-9.56-10.212-15.768.034.115.058.235.093.349-5.051-3.097-10.548-5.537-16.373-7.201.701 13.135 6.788 25.398 16.619 33.908 3.58 3.099 9.083 2.228 11.454-1.87z" fill="#c0defa"/></g></g></g></g><path d="m422.935 341.803c-31.12-27.662-54.077-63.065-66.709-102.37l-100.234-36.377-97.729 28.084c-11.959 42.614-35.905 81.07-69.198 110.664-9.967 8.859-17.029 20.519-20.263 33.456l-6.231 24.923v18.122h386.84v-18.189l-6.214-24.856c-3.233-12.938-10.295-24.598-20.262-33.457z" fill="#4e6c99"/><path d="m291.887 366.414c-1.659-6.637-7.228-11.572-14.017-12.421l-28.166-3.521c-1.264-.158-2.377-.909-2.997-2.021l-19.099-34.257c-2.927-5.243-8.461-8.493-14.466-8.493h-20.746c-11.89 0-22.869 6.371-28.768 16.695l-17.318 30.306c-4.147 7.257-6.883 15.232-8.065 23.506l-3.821 26.747v15.35h166.576v-15.439z" fill="#b4c9d9"/><g><path d="m322.267 123.468c-9.15 0-16.567-7.417-16.567-16.567v-49.7c0-27.405 22.295-49.7 49.7-49.7s49.7 22.295 49.7 49.7c0 9.15-7.417 16.567-16.567 16.567s-16.567-7.417-16.567-16.567c0-9.135-7.432-16.567-16.567-16.567s-16.567 7.432-16.567 16.567v49.7c.002 9.15-7.415 16.567-16.565 16.567z" fill="#ff9346"/></g><g><g><path d="m388.534 148.318c-9.15 0-16.567-7.417-16.567-16.567v-8.283c0-9.15 7.417-16.567 16.567-16.567 9.149 0 16.567 7.417 16.567 16.567v8.283c0 9.15-7.418 16.567-16.567 16.567z" fill="#ffc144"/></g></g><g><g><g><path d="m106.901 57.201c0-27.725 22.818-50.219 50.661-49.691 27.209.516 48.739 23.31 48.739 50.525v48.398c0 8.92-6.855 16.596-15.765 17.016-9.514.448-17.368-7.132-17.368-16.548v-49.219c0-8.91-6.833-16.588-15.732-17.027-9.512-.47-17.402 7.134-17.402 16.546v16.567c0 9.15-7.417 16.567-16.567 16.567-9.149 0-16.567-7.417-16.567-16.567v-16.567z" fill="#ff9346"/></g></g></g><ellipse cx="256.001" cy="24.068" fill="#ffc144" rx="16.567" ry="16.567" transform="matrix(.151 -.989 .989 .151 193.581 273.506)"/><path d="m272.567 90.335c0-9.15-7.417-16.567-16.567-16.567s-16.567 7.417-16.567 16.567v16.567c0 9.15 7.417 16.567 16.567 16.567 9.149 0 16.567-7.417 16.567-16.567 0-4.955 0-11.612 0-16.567z" fill="#ffc144"/><path d="m422.935 341.803c-31.12-27.662-54.077-63.065-66.709-102.37l-25.809-9.367c11.856 43.042 35.932 81.894 69.505 111.737 9.967 8.859 17.029 20.519 20.263 33.456l6.214 24.856v18.189h23.013v-18.189l-6.214-24.856c-3.234-12.937-10.296-24.597-20.263-33.456z" fill="#416195"/><path d="m158.264 231.139.003.013 5.91 4.667c14.963 11.816 36.1 11.75 50.988-.161 8.685-6.948 21.421-5.18 27.886 3.87l9.494 13.291c8.785 12.299 27.64 10.261 33.594-3.631 5.403-12.606 21.829-15.77 31.527-6.072 7.518 7.518 19.264 8.77 28.198 3.005l10.361-6.686.003-.002c-2.959-9.208-5.355-18.629-7.152-28.216l-7.707-41.102c-1.469-7.836-8.311-13.514-16.283-13.514h-138.17c-7.972 0-14.814 5.678-16.283 13.514l-7.707 41.102c-1.261 6.728-2.824 13.373-4.662 19.922z" fill="#ff9346"/><path d="m318.355 170.115 7.707 41.102c2.459 13.116 6.042 25.92 10.656 38.292 3.182-.439 6.306-1.556 9.146-3.388l10.361-6.686.003-.002c-2.959-9.208-5.355-18.629-7.152-28.216l-7.707-41.102c-1.469-7.836-8.311-13.514-16.283-13.514h-23.013c7.971 0 14.813 5.678 16.282 13.514z" fill="#ff7d46"/><path d="m481.501 476.433 23-38.198v-40.002c0-5.608-5.497-9.719-10.8-7.893-3.516 1.211-6.873 3.03-9.909 5.459-12.107 9.685-29.31 9.685-41.417 0-12.107-9.685-29.31-9.685-41.417 0-12.107 9.685-29.31 9.685-41.417 0s-29.31-9.685-41.417 0c-12.107 9.685-29.31 9.685-41.417 0s-29.31-9.685-41.417 0c-12.107 9.685-29.31 9.685-41.417 0-12.107-9.685-29.31-9.685-41.417 0s-29.31 9.685-41.417 0c-12.107-9.685-29.31-9.685-41.417 0s-29.31 9.685-41.417 0c-3.036-2.429-6.392-4.249-9.909-5.459-5.303-1.826-10.8 2.284-10.8 7.893v40.002l16.567 38.198z" fill="#64caff"/><path d="m481.501 476.433 23-38.198v-40.002c0-5.608-5.497-9.719-10.8-7.893-3.516 1.211-6.873 3.03-9.909 5.459-.759.608-1.539 1.177-2.336 1.708.021.24.044.479.044.726v78.2z" fill="#00b8ff"/><path d="m481.501 447.175c-11.914 7.971-27.763 7.413-39.125-1.676-12.107-9.685-29.31-9.685-41.417 0s-29.31 9.685-41.417 0-29.31-9.685-41.417 0-29.31 9.685-41.417 0-29.31-9.685-41.417 0c-12.107 9.685-29.31 9.685-41.417 0s-29.31-9.685-41.417 0-29.31 9.685-41.417 0c-12.107-9.685-29.31-9.685-41.417 0s-29.31 9.685-41.417 0c-6.053-4.843-13.381-7.264-20.708-7.264v49.7c0 9.15 7.417 16.567 16.567 16.567h463.867c9.149 0 16.567-7.417 16.567-16.567v-17.759z" fill="#00b8ff"/><path d="m483.792 445.499c-.745.596-1.51 1.154-2.292 1.676v40.759c0 9.15-7.417 16.567-16.567 16.567h23c9.149 0 16.567-7.417 16.567-16.567v-49.7c-7.327.001-14.654 2.422-20.708 7.265z" fill="#00a2ff"/></g><g><path d="m438.234 149.101c-38.515 0-70.231 29.672-73.491 67.357-2.34-.553-4.745-.892-7.163-1.022-.399-1.861-.783-3.727-1.134-5.6l-7.707-41.103c-2.133-11.376-12.082-19.632-23.655-19.632h-138.167c-11.573 0-21.522 8.256-23.655 19.632l-5.703 30.417c-3.286-7.762-7.751-15.03-13.294-21.477-2.7-3.141-7.436-3.498-10.577-.797-3.141 2.7-3.498 7.436-.797 10.576 8.872 10.319 14.387 23.201 15.809 36.686-11.455 6.612-20.68 16.547-26.427 28.645-1.777 3.741-.185 8.215 3.556 9.992 1.039.493 2.135.728 3.213.728 2.806 0 5.496-1.581 6.78-4.284 2.54-5.346 5.968-10.137 10.087-14.222-12.698 34.86-33.971 66.441-61.826 91.201-11.141 9.902-18.941 22.78-22.557 37.242l-5.263 21.054c-7.871 2.377-16.585.875-23.369-4.55-3.654-2.924-7.742-5.177-12.154-6.696-1.865-.642-3.813-.895-5.741-.805v-126.442c0-14.134 11.499-25.633 25.633-25.633 11.921 0 21.967 8.18 24.821 19.221-13.822 3.679-24.038 16.297-24.038 31.262 0 4.143 3.358 7.5 7.5 7.5s7.5-3.357 7.5-7.5c0-9.566 7.783-17.35 17.35-17.35s17.35 7.783 17.35 17.35c0 4.143 3.358 7.5 7.5 7.5s7.5-3.357 7.5-7.5c0-15.459-10.902-28.412-25.42-31.594-3.224-19.205-19.956-33.888-40.063-33.888-9.549 0-18.332 3.319-25.276 8.853 3.479-33.728 32.061-60.121 66.692-60.121 8.8 0 17.35 1.677 25.413 4.983 3.833 1.574 8.213-.26 9.785-4.092 1.572-3.833-.261-8.214-4.093-9.785-9.878-4.052-20.343-6.107-31.105-6.107-45.242 0-82.05 36.808-82.05 82.051v256.783c0 13.271 10.796 24.066 24.067 24.066h21.633c4.142 0 7.5-3.357 7.5-7.5s-3.358-7.5-7.5-7.5h-21.63c-5 0-9.067-4.067-9.067-9.066v-41.05c3.08.944 5.987 2.441 8.523 4.47 14.95 11.96 35.834 11.961 50.787 0 9.435-7.547 22.612-7.547 32.046 0 14.951 11.961 35.836 11.961 50.788 0 9.434-7.547 22.611-7.547 32.046 0 14.952 11.962 35.836 11.961 50.787 0 9.434-7.548 22.612-7.548 32.046 0 7.477 5.982 16.434 8.972 25.394 8.971 8.958 0 17.919-2.991 25.394-8.971 9.435-7.547 22.612-7.547 32.046 0 14.951 11.961 35.836 11.961 50.788 0 9.434-7.547 22.611-7.547 32.046 0 14.951 11.961 35.835 11.961 50.787 0 2.537-2.029 5.444-3.526 8.523-4.47v41.05c0 4.999-4.067 9.066-9.067 9.066h-407.294c-4.142 0-7.5 3.357-7.5 7.5s3.358 7.5 7.5 7.5h407.293c13.27 0 24.067-10.796 24.067-24.066v-265.065c0-40.676-33.092-73.768-73.767-73.768zm-70.309 84.551c7.814 4.396 13.109 12.763 13.109 22.35 0 4.143 3.358 7.5 7.5 7.5s7.5-3.357 7.5-7.5c0-13.402-6.525-25.304-16.562-32.71-.001-.141-.004-.285-.004-.423 0-32.404 26.363-58.768 58.767-58.768s58.767 26.363 58.767 58.768v18.201c-6.998-5.705-15.921-9.134-25.633-9.134-20.113 0-36.85 14.692-40.066 33.906-10.629 2.351-19.621 9.981-23.456 20.465-1.423 3.89.577 8.197 4.467 9.62 3.887 1.418 8.197-.577 9.62-4.468 2.492-6.813 9.043-11.391 16.302-11.391 9.567 0 17.35 7.783 17.35 17.351 0 4.143 3.358 7.5 7.5 7.5s7.5-3.357 7.5-7.5c0-14.965-10.215-27.584-24.038-31.263 2.854-11.041 12.9-19.221 24.821-19.221 14.134 0 25.633 11.499 25.633 25.633v109.874c-1.929-.091-3.877.163-5.742.806-4.41 1.518-8.498 3.771-12.151 6.694-6.784 5.426-15.498 6.928-23.369 4.551l-5.263-21.054c-3.615-14.461-11.415-27.34-22.556-37.243-31.506-28.004-54.586-64.733-66.367-105.066 2.221.55 4.365 1.395 6.371 2.522zm-197.626-21.053 7.707-41.102c.804-4.286 4.551-7.396 8.912-7.396h138.168c4.36 0 8.108 3.11 8.912 7.396l7.706 41.103c1.495 7.973 3.404 15.85 5.7 23.602l-5.606 3.618c-5.925 3.822-13.844 2.979-18.829-2.007-6.316-6.315-15.321-9.079-24.097-7.39-8.771 1.689-16.108 7.6-19.627 15.811-1.714 4-5.321 6.668-9.648 7.136-4.33.468-8.42-1.368-10.95-4.909l-9.494-13.292c-4.336-6.07-10.793-9.979-18.183-11.003-7.388-1.025-14.667.976-20.491 5.637-12.231 9.785-29.36 9.841-41.656.13l-2.043-1.613c1.347-5.195 2.527-10.436 3.519-15.721zm-76.25 134.809c31.419-27.928 54.981-63.991 68.188-103.723 17.546 12.025 40.78 11.295 57.612-2.172 2.576-2.06 5.795-2.946 9.06-2.491 3.267.453 6.121 2.181 8.038 4.864l9.494 13.292c5.133 7.186 13.112 11.266 21.766 11.266.993 0 1.995-.054 3.002-.162 9.787-1.059 17.945-7.092 21.823-16.141 1.579-3.683 4.741-6.231 8.677-6.989 3.936-.756 7.819.434 10.653 3.268 9.948 9.946 25.748 11.631 37.568 4.003l2.353-1.518c13.58 36.877 36.164 70.276 65.67 96.505 8.876 7.889 15.089 18.148 17.97 29.67l1.81 7.242c-13.537-5.878-29.42-4.009-41.459 5.623-5.368 4.294-11.948 6.136-18.361 5.543-37.307-52.415-48.173-107.208-48.28-107.765-.779-4.064-4.707-6.738-8.773-5.953-4.069.777-6.736 4.706-5.959 8.774.4 2.092 8.872 45.083 37.132 92.655-12.869-4.461-27.395-2.213-38.592 6.746-2.15 1.719-4.5 3.027-6.95 3.963l-7.328-29.311c-2.393-9.569-10.576-16.82-20.363-18.044l-26.384-3.298-18.259-32.715c-4.248-7.609-12.3-12.337-21.015-12.337h-20.746c-14.545 0-28.063 7.845-35.279 20.474l-17.317 30.306c-4.636 8.112-7.657 16.916-8.978 26.166l-2.879 20.154c-4.342-.659-8.56-2.435-12.214-5.358-12.039-9.631-27.922-11.501-41.459-5.622l1.81-7.242c2.879-11.524 9.093-21.784 17.969-29.673zm112.251 17.06c-4.142 0-7.5 3.357-7.5 7.5v18.15c-.079-.061-.162-.113-.24-.176-14.951-11.961-35.835-11.962-50.787 0-1.364 1.091-2.814 2.006-4.312 2.781l2.208-15.456c1.052-7.369 3.458-14.382 7.152-20.846l17.317-30.306c4.552-7.966 13.08-12.915 22.256-12.915h20.746c3.283 0 6.317 1.781 7.917 4.647l12.891 23.096-10.152-1.269c-4.109-.505-7.858 2.402-8.372 6.512s2.401 7.859 6.512 8.373l55.003 6.875c3.687.461 6.77 3.192 7.672 6.798l6.651 26.606c-3.507-.875-6.876-2.503-9.869-4.897-14.951-11.961-35.836-11.962-50.787 0-4.935 3.947-10.894 5.809-16.807 5.627v-23.601c.001-4.141-3.356-7.499-7.499-7.499zm272.807 75.174c-9.434 7.547-22.611 7.548-32.046 0-14.951-11.961-35.836-11.961-50.787 0-9.435 7.547-22.612 7.547-32.047 0-14.951-11.961-35.835-11.962-50.787 0-9.434 7.548-22.611 7.548-32.046 0-14.951-11.961-35.836-11.961-50.787 0-9.434 7.547-22.611 7.548-32.046 0-14.951-11.961-35.837-11.961-50.787 0-9.435 7.547-22.612 7.547-32.047 0-14.952-11.961-35.836-11.962-50.787 0-9.435 7.547-22.612 7.547-32.046 0-5.208-4.167-11.385-6.967-17.894-8.195v-33.215c0-.382.232-.604.37-.703.252-.177.406-.125.487-.099 2.779.957 5.358 2.379 7.666 4.226 14.952 11.962 35.836 11.961 50.787 0 9.435-7.547 22.612-7.547 32.046 0 14.951 11.961 35.836 11.961 50.788 0 9.434-7.547 22.611-7.547 32.046 0 14.952 11.962 35.836 11.961 50.787 0 9.434-7.546 22.612-7.547 32.047 0 14.951 11.961 35.835 11.961 50.787 0 9.435-7.547 22.612-7.547 32.046 0 14.951 11.961 35.836 11.961 50.788 0 9.434-7.547 22.611-7.547 32.046 0 14.951 11.961 35.835 11.96 50.788-.001 2.307-1.846 4.886-3.268 7.664-4.224.082-.029.236-.081.489.098.138.099.37.321.37.703v33.215c-6.51 1.228-12.687 4.028-17.895 8.195z"/><path d="m322.267 130.968c13.271 0 24.067-10.796 24.067-24.066v-49.7c0-5 4.067-9.067 9.066-9.067 5 0 9.067 4.067 9.067 9.067 0 13.271 10.796 24.066 24.066 24.066 13.271 0 24.067-10.796 24.067-24.066 0-31.54-25.66-57.2-57.2-57.2s-57.2 25.66-57.2 57.2v49.7c.001 13.27 10.797 24.066 24.067 24.066zm-9.066-73.766c0-23.27 18.931-42.2 42.2-42.2s42.2 18.931 42.2 42.2c0 4.999-4.067 9.066-9.067 9.066-4.999 0-9.066-4.067-9.066-9.066 0-13.271-10.796-24.067-24.067-24.067-13.27 0-24.066 10.797-24.066 24.067v49.7c0 4.999-4.067 9.066-9.067 9.066-4.999 0-9.066-4.067-9.066-9.066v-49.7z"/><path d="m388.534 99.402c-13.27 0-24.066 10.796-24.066 24.066v8.283c0 13.27 10.796 24.066 24.066 24.066 13.271 0 24.067-10.796 24.067-24.066v-8.283c0-13.27-10.797-24.066-24.067-24.066zm9.067 32.349c0 4.999-4.067 9.066-9.067 9.066-4.999 0-9.066-4.067-9.066-9.066v-8.283c0-4.999 4.067-9.066 9.066-9.066s9.067 4.067 9.067 9.066z"/><path d="m123.467 97.834c13.27 0 24.066-10.796 24.066-24.066v-16.566c0-2.5 1.003-4.831 2.824-6.565 1.818-1.729 4.204-2.616 6.709-2.49 4.742.233 8.601 4.511 8.601 9.535v49.22c0 6.547 2.717 12.894 7.455 17.414 4.523 4.315 10.376 6.653 16.594 6.653.389 0 .78-.01 1.172-.028 12.848-.605 22.912-11.37 22.912-24.507v-48.398c0-31.407-25.165-57.437-56.097-58.024-15.48-.302-30.084 5.522-41.144 16.375-11.065 10.856-17.159 25.352-17.159 40.815v16.566c.001 13.27 10.797 24.066 24.067 24.066zm-9.066-40.632c0-11.402 4.498-22.096 12.664-30.108 8.163-8.009 18.956-12.336 30.354-12.084 22.818.433 41.382 19.734 41.382 43.026v48.398c0 5.027-3.866 9.3-8.617 9.523-2.518.125-4.896-.767-6.706-2.495-1.812-1.729-2.81-4.059-2.81-6.561v-49.22c0-13.116-10.042-23.886-22.861-24.518-.411-.02-.819-.03-1.227-.03-6.197 0-12.039 2.332-16.563 6.638-4.755 4.526-7.482 10.879-7.482 17.43v16.566c0 4.999-4.067 9.066-9.066 9.066s-9.067-4.067-9.067-9.066v-16.565z"/><path d="m256.001 48.134c13.271 0 24.067-10.796 24.067-24.066s-10.797-24.067-24.067-24.067-24.067 10.796-24.067 24.066 10.796 24.067 24.067 24.067zm0-33.133c5 0 9.067 4.067 9.067 9.066s-4.067 9.066-9.067 9.066c-4.999 0-9.067-4.067-9.067-9.066s4.067-9.066 9.067-9.066z"/><path d="m256.001 130.968c13.271 0 24.067-10.796 24.067-24.066v-16.568c0-13.271-10.796-24.066-24.067-24.066-13.27 0-24.067 10.796-24.067 24.066v16.567c0 13.271 10.796 24.067 24.067 24.067zm-9.067-40.634c0-4.999 4.067-9.066 9.067-9.066s9.067 4.067 9.067 9.066v16.567c0 4.999-4.067 9.066-9.067 9.066-4.999 0-9.067-4.067-9.067-9.066z"/></g></g></svg>