<svg id="Capa_1" enable-background="new 0 0 512 512" height="512" viewBox="0 0 512 512" width="512" xmlns="http://www.w3.org/2000/svg"><g><g><path d="m317.414 168.314-6.862-6.862c-3.107-3.107-7.321-4.852-11.714-4.852h-67.688v-16.567c0-9.149-7.417-16.567-16.567-16.567h-17.091c-4.917 0-9.579 2.184-12.727 5.961l-21.09 25.308c-9.924 11.909-15.359 26.921-15.359 42.423v202.615h173.95v-219.744c.001-4.394-1.745-8.608-4.852-11.715z" fill="#ffda8f"/><g><path d="m317.414 168.314-6.862-6.862c-3.107-3.107-7.321-4.852-11.714-4.852h-23c4.394 0 8.608 1.745 11.714 4.852l6.862 6.862c3.107 3.107 4.852 7.321 4.852 11.714v219.744h23v-219.743c.001-4.394-1.745-8.608-4.852-11.715z" fill="#ebc184"/></g><path d="m191.583 273.732v126.041h130.683v-219.744c0-4.394-1.745-8.607-4.852-11.714l-1.581-1.581h-1.85c-19.627 0-35.962 14.366-39.044 33.133h-.624c-11.119 0-21.886 3.26-31.137 9.427l-26.599 17.733c-15.651 10.434-24.996 27.894-24.996 46.705z" fill="#ebc184"/><path d="m387.112 213.162-13.724-13.724c-6.214-6.214-14.641-9.705-23.429-9.705h-35.976c-9.15 0-16.567 7.417-16.567 16.567v16.567h-23.101c-6.541 0-12.936 1.936-18.379 5.565l-26.599 17.732c-9.218 6.145-14.754 16.49-14.754 27.569v131.367h182.233v-168.509c.001-8.787-3.49-17.215-9.704-23.429z" fill="#ffda8f"/><path d="m106.9 379.686v-38.091c0-7.169 2.325-14.145 6.627-19.88l13.253-17.671c3.129-4.172 8.039-6.627 13.253-6.627h11.915c7.602 0 14.228 5.174 16.072 12.549l3.168 12.671c1.314 5.256 1.979 10.654 1.979 16.072v40.978h-66.267z" fill="#ffda8f"/><path d="m387.112 213.162-13.724-13.724c-6.214-6.214-14.641-9.705-23.429-9.705h-23c8.788 0 17.215 3.491 23.429 9.705l13.724 13.724c6.214 6.214 9.705 14.641 9.705 23.429v168.509h23v-168.509c0-8.787-3.491-17.215-9.705-23.429z" fill="#ebc184"/><path d="m106.9 379.686v-38.091c0-7.169 2.325-14.145 6.627-19.88l13.253-17.671c3.129-4.172 8.039-6.627 13.253-6.627h11.915c7.602 0 14.228 5.174 16.072 12.549l3.168 12.671c1.314 5.256 1.979 10.654 1.979 16.072v40.978h-66.267z" fill="#ffda8f"/><path d="m171.188 322.636-3.168-12.67c-1.844-7.375-8.47-12.549-16.072-12.549h-11.915c-1.912 0-3.783.333-5.541.957 5.116 1.818 9.153 6.091 10.528 11.591l3.168 12.67c1.314 5.256 1.979 10.654 1.979 16.072v40.978h23v-40.978c0-5.417-.665-10.815-1.979-16.071z" fill="#ebc184"/><path d="m396.817 405.1v-80.983h-16.629c-5.983-14.957-20.458-24.85-36.729-24.85h-45.144c-13.732 0-26.275 6.952-33.552 18.596l-31.02 49.633-3.496 5.594v6.596 25.414z" fill="#ebc184"/><path d="m445.099 371.148c-4.064-14.224-17.065-24.031-31.858-24.031h-49.557l-4.507-13.522c-2.255-6.765-8.586-11.328-15.717-11.328h-45.144c-5.712 0-11.021 2.943-14.048 7.786l-31.02 49.633v37.37h201.552v-11.956z" fill="#ffda8f"/><g><path d="m445.099 371.148c-4.064-14.224-17.065-24.031-31.858-24.031h-23c14.793 0 27.794 9.807 31.858 24.031l9.701 33.952v11.955h23v-11.955z" fill="#ebc184"/></g><path d="m284.924 471.367 103.609 33.133h99.4c9.15 0 16.567-7.417 16.567-16.567v-49.7c0-18.299-14.834-33.133-33.133-33.133h-186.443z" fill="#ffe6b4"/><path d="m24.067 504.5c-9.15 0-16.567-7.417-16.567-16.567v-82.833c0-18.299 14.834-33.133 33.133-33.133h144.247c83.432 0 161.994 39.281 212.053 106.027l19.88 26.507h-392.746z" fill="#ffe6b4"/><path d="m471.367 405.1h-23c18.299 0 33.133 14.834 33.133 33.133v49.7c0 9.15-7.417 16.567-16.567 16.567h23c9.15 0 16.567-7.417 16.567-16.567v-49.7c0-18.299-14.834-33.133-33.133-33.133z" fill="#ffd0a1"/><path d="m401.787 477.993c-50.059-66.745-128.622-106.027-212.053-106.027h-23c83.432 0 161.994 39.281 212.053 106.027l19.88 26.507h23z" fill="#ffd0a1"/><circle cx="57.2" cy="57.2" fill="#ffc144" r="49.7"/><path d="m57.2 7.5c-3.96 0-7.807.477-11.5 1.352 21.901 5.191 38.2 24.86 38.2 48.348s-16.299 43.157-38.2 48.348c3.693.875 7.54 1.352 11.5 1.352 27.449 0 49.7-22.251 49.7-49.7 0-27.448-22.251-49.7-49.7-49.7z" fill="#ffa844"/><path d="m479.65 24.067h-.073c-2.6.004-5.014-1.258-6.577-3.336-6.045-8.033-15.655-13.231-26.483-13.231-14.402 0-26.658 9.189-31.225 22.024-.597 1.677-2.143 2.826-3.923 2.826h-1.631c-11.229 0-20.792 8.732-21.191 19.953-.419 11.781 9.007 21.463 20.695 21.463h69.849c13.932 0 25.669-11.401 25.405-25.33-.257-13.502-11.282-24.369-24.846-24.369z" fill="#f3f0f1"/><path d="m98.617 40.633h.073c2.6.004 5.014-1.258 6.577-3.335 6.045-8.034 15.655-13.231 26.483-13.231 14.402 0 26.658 9.189 31.225 22.024.597 1.677 2.143 2.826 3.923 2.826h1.631c11.229 0 20.792 8.732 21.191 19.953.419 11.781-9.007 21.463-20.695 21.463h-69.849c-13.932 0-25.669-11.401-25.405-25.331.256-13.502 11.282-24.369 24.846-24.369z" fill="#f3f0f1"/><path d="m479.65 24.067h-.073c-2.6.004-5.014-1.258-6.577-3.336-6.045-8.033-15.655-13.231-26.483-13.231-4.035 0-7.891.744-11.467 2.065 5.995 2.228 11.17 6.142 14.95 11.167 1.563 2.078 3.977 3.34 6.577 3.336h.073c13.564 0 24.589 10.867 24.845 24.369.264 13.929-11.473 25.33-25.405 25.33h23c13.932 0 25.669-11.401 25.405-25.33-.256-13.503-11.281-24.37-24.845-24.37z" fill="#ede1e5"/><path d="m189.72 68.87c-.399-11.222-9.962-19.953-21.191-19.953h-1.631c-1.78 0-3.326-1.149-3.923-2.826-4.567-12.835-16.823-22.024-31.225-22.024-4.056 0-7.942.73-11.533 2.064 9.188 3.393 16.47 10.721 19.758 19.96.597 1.677 2.143 2.826 3.923 2.826h1.631c11.229 0 20.792 8.732 21.191 19.953.419 11.781-9.007 21.463-20.695 21.463h23c11.687 0 21.114-9.682 20.695-21.463z" fill="#ede1e5"/><path d="m206.3 482.411c0-12.199-9.889-22.089-22.089-22.089h-55.222c-12.199 0-22.089-9.889-22.089-22.089 0-12.199 9.89-22.089 22.089-22.089h121.489c12.199 0 22.089-9.89 22.089-22.089 0-3.403-.77-6.626-2.144-9.505-25.781-8.241-52.965-12.583-80.689-12.583h-149.1c-18.3 0-33.134 14.834-33.134 33.133v82.833c0 9.15 7.417 16.567 16.567 16.567h160.144c12.2 0 22.089-9.889 22.089-22.089z" fill="#ffd0a1"/></g><g><path d="m471.367 397.6h-10.91l-8.147-28.513c-4.957-17.352-21.023-29.47-39.07-29.47h-8.924v-103.026c0-10.853-4.227-21.057-11.901-28.732l-13.724-13.724c-7.674-7.675-17.878-11.901-28.732-11.901h-20.192v-2.205c0-6.429-2.503-12.472-7.049-17.018l-6.862-6.862c-4.545-4.545-10.589-7.049-17.018-7.049h-60.188v-9.067c0-13.27-10.796-24.066-24.066-24.066h-17.091c-7.164 0-13.903 3.156-18.488 8.66l-21.09 25.308c-11.025 13.229-17.097 30.001-17.097 47.224v19.094c0 4.142 3.358 7.5 7.5 7.5s7.5-3.358 7.5-7.5v-19.094c0-13.721 4.837-27.082 13.621-37.622l21.09-25.308c1.728-2.073 4.266-3.262 6.965-3.262h17.091c4.999 0 9.066 4.067 9.066 9.066v9.067h-9.066c-4.142 0-7.5 3.358-7.5 7.5s3.358 7.5 7.5 7.5h84.254c2.422 0 4.699.943 6.411 2.655l6.862 6.862c1.712 1.712 2.655 3.989 2.655 6.411v2.205h-.783c-13.271 0-24.067 10.796-24.067 24.066v9.067h-15.601c-8.049 0-15.843 2.36-22.54 6.825l-4.843 3.228v-27.403c0-4.142-3.358-7.5-7.5-7.5s-7.5 3.358-7.5 7.5v37.403l-6.756 4.504c-11.33 7.554-18.093 20.193-18.093 33.809v91.303c-5.777-.373-11.564-.568-17.35-.568h-9.067v-25.759c0-6.028-.741-12.047-2.203-17.891l-3.167-12.67c-2.365-9.459-10.104-16.397-19.48-17.913v-38.982c0-4.142-3.358-7.5-7.5-7.5s-7.5 3.358-7.5 7.5v38.664h-.784c-7.535 0-14.732 3.599-19.253 9.627l-13.253 17.671c-5.241 6.987-8.127 15.645-8.127 24.38v22.873h-58.767c-22.405 0-40.633 18.228-40.633 40.633v82.833c0 13.271 10.796 24.067 24.067 24.067h21.573c4.142 0 7.5-3.358 7.5-7.5s-3.358-7.5-7.5-7.5h-21.573c-5 0-9.067-4.067-9.067-9.067v-82.833c0-14.134 11.499-25.633 25.633-25.633h149.1c25.618 0 50.867 3.901 74.953 11.274.25 1.076.38 2.183.38 3.315 0 8.044-6.544 14.589-14.589 14.589h-121.488c-16.315 0-29.589 13.273-29.589 29.589s13.273 29.589 29.589 29.589h55.222c8.044 0 14.589 6.544 14.589 14.589 0 8.044-6.544 14.589-14.589 14.589h-103.571c-4.142 0-7.5 3.358-7.5 7.5s3.358 7.5 7.5 7.5h407.293c13.27 0 24.067-10.796 24.067-24.067v-49.7c0-22.406-18.228-40.634-40.633-40.634zm-356.967-56.006c0-5.51 1.821-10.972 5.127-15.38l13.253-17.671c1.703-2.271 4.415-3.627 7.253-3.627h11.915c4.168 0 7.785 2.824 8.796 6.868l3.167 12.671c1.164 4.656 1.754 9.451 1.754 14.253v25.759h-51.265zm323.488 31.614 6.969 24.392h-124.919c-2.747-1.496-5.512-2.959-8.309-4.358-14.942-7.471-30.595-13.538-46.669-18.147l25.668-41.068c1.667-2.668 4.542-4.261 7.688-4.261h45.144c3.909 0 7.365 2.492 8.601 6.2l4.458 13.374c.002.008.005.016.008.024l8.325 24.975c1.31 3.93 5.558 6.054 9.487 4.744 3.93-1.31 6.053-5.558 4.744-9.487l-4.993-14.979h39.152c11.383 0 21.518 7.645 24.646 18.591zm-215.805-99.476c0-8.59 4.267-16.563 11.414-21.329l10.117-6.745c.007-.004.013-.009.02-.013l16.462-10.974c4.224-2.816 9.141-4.305 14.219-4.305h15.601v42.2c0 4.142 3.358 7.5 7.5 7.5s7.5-3.358 7.5-7.5v-66.266c0-4.999 4.067-9.066 9.067-9.066h35.976c6.847 0 13.284 2.666 18.125 7.508l13.724 13.724c4.842 4.842 7.508 11.279 7.508 18.126v11.908h-12.699c-11.064 0-20.665 7.497-23.348 18.229l-5.147 20.585c-1.005 4.019 1.439 8.091 5.457 9.095.611.153 1.223.226 1.825.226 3.36 0 6.418-2.275 7.27-5.683l5.146-20.585c1.011-4.043 4.628-6.868 8.796-6.868h12.699v76.117h-20.228l-2.798-8.394c-3.281-9.843-12.456-16.457-22.832-16.457h-45.144c-8.353 0-15.982 4.229-20.408 11.311l-28.197 45.115c-9.121-2.059-18.346-3.654-27.627-4.772v-92.687zm-37.872 179.09h-55.222c-8.045 0-14.589-6.544-14.589-14.589s6.544-14.589 14.589-14.589h121.489c15.674 0 28.533-12.251 29.521-27.68 45.533 17.108 86.068 46.903 115.788 86.529l10.88 14.507h-196.729c2.453-4.309 3.862-9.286 3.862-14.589 0-16.315-13.274-29.589-29.589-29.589zm312.789 35.111c0 4.999-4.067 9.067-9.067 9.067h-62.517l-17.63-23.507c-17.654-23.539-39.224-44.169-63.462-60.893h110.448c.008 0 .016.002.024.002.009 0 .019-.002.028-.002h16.543c14.134 0 25.633 11.499 25.633 25.633z"/><path d="m409.242 81.267h69.849c8.819 0 17.439-3.631 23.652-9.963 6.129-6.246 9.415-14.417 9.251-23.01-.332-17.494-14.842-31.727-32.344-31.727-.004 0-.085.001-.085 0-.196 0-.41-.129-.572-.345-7.758-10.309-19.595-16.222-32.476-16.222-16.381 0-31.151 9.898-37.456 24.858-14.987.353-27.484 12.41-28.009 27.179-.275 7.732 2.527 15.051 7.891 20.609 5.365 5.559 12.574 8.621 20.299 8.621zm.496-41.417h1.631c4.912 0 9.328-3.14 10.989-7.812 3.626-10.191 13.334-17.038 24.159-17.038 8.125 0 15.593 3.732 20.491 10.242 2.982 3.962 7.675 6.325 12.547 6.325h.022.073c9.387 0 17.169 7.631 17.347 17.011.086 4.532-1.676 8.872-4.961 12.22-3.41 3.476-8.129 5.469-12.946 5.469h-69.849c-3.617 0-6.993-1.434-9.506-4.038-2.511-2.602-3.823-6.032-3.694-9.659.251-7.014 6.394-12.72 13.697-12.72z"/><path d="m57.2 114.4c15.128 0 29.579-6.018 40.262-16.614.57.03 1.142.047 1.714.047h69.849c7.725 0 14.934-3.062 20.299-8.622 5.363-5.558 8.165-12.877 7.891-20.608-.525-14.77-13.023-26.826-28.009-27.179-6.304-14.959-21.075-24.857-37.456-24.857-9.869 0-19.117 3.481-26.394 9.739-10.366-16.265-28.278-26.306-48.156-26.306-31.54 0-57.2 25.66-57.2 57.2s25.66 57.2 57.2 57.2zm74.55-82.833c10.824 0 20.533 6.847 24.159 17.037 1.662 4.673 6.078 7.813 10.989 7.813h1.631c7.302 0 13.446 5.706 13.696 12.72.129 3.627-1.183 7.057-3.694 9.659-2.513 2.604-5.889 4.038-9.506 4.038h-69.849c-4.817 0-9.536-1.993-12.946-5.469-3.285-3.348-5.047-7.688-4.961-12.219.178-9.381 7.96-17.012 17.347-17.012h.085c4.883 0 9.577-2.364 12.559-6.326 4.897-6.509 12.365-10.241 20.49-10.241zm-74.55-16.567c14.399 0 27.397 7.145 35.104 18.763-14.55 2.93-25.741 15.759-26.032 31.098-.163 8.592 3.122 16.763 9.251 23.009 1.595 1.626 3.351 3.07 5.226 4.324-6.9 4.648-15.081 7.206-23.549 7.206-23.269 0-42.2-18.931-42.2-42.2s18.931-42.2 42.2-42.2z"/><path d="m454.8 162.692c-10.084-8.682-24.437-10.542-36.487-4.517-3.705 1.852-5.207 6.357-3.354 10.062s6.356 5.208 10.062 3.354c7.019-3.507 15.46-2.138 21.007 3.409l3.469 3.469c1.464 1.465 3.384 2.197 5.303 2.197s3.838-.732 5.303-2.196l3.47-3.47c5.548-5.548 13.988-6.917 21.006-3.409 3.705 1.854 8.21.351 10.062-3.354 1.853-3.705.351-8.21-3.354-10.062-12.049-6.024-26.403-4.163-36.487 4.517z"/><path d="m342.188 121.892c7.017-3.508 15.459-2.138 21.006 3.409l3.47 3.47c1.407 1.407 3.314 2.197 5.304 2.197 1.989 0 3.897-.79 5.303-2.197l3.469-3.469c5.547-5.547 13.991-6.917 21.007-3.409 3.707 1.851 8.21.35 10.063-3.354 1.852-3.705.35-8.21-3.354-10.063-12.051-6.024-26.403-4.164-36.487 4.517-10.084-8.682-24.438-10.541-36.487-4.517-3.705 1.853-5.207 6.357-3.354 10.063 1.85 3.703 6.353 5.204 10.06 3.353z"/></g></g></svg>