<svg id="Capa_1" enable-background="new 0 0 512 512" viewBox="0 0 512 512" xmlns="http://www.w3.org/2000/svg"><g><g><g><g><g><path d="m102.86 486.655c-3.126 0-6.264-1.101-8.786-3.342-20.407-18.141-27.155-44.06-29.222-62.609-.894-8.033 1.687-16.098 7.083-22.128 5.412-6.048 13.17-9.517 21.287-9.517h48.817c7.308 0 13.232 5.924 13.232 13.232s-5.924 13.232-13.232 13.232h-48.817c-.777 0-1.281.38-1.566.699-.399.445-.568.967-.502 1.552 1.553 13.942 6.37 33.198 20.502 45.76 5.462 4.855 5.953 13.218 1.098 18.68-2.614 2.941-6.246 4.441-9.894 4.441z" fill="#d9e7eb"/></g></g><g><g><g><g><path d="m242.585 223.42h191.84v251.08h-191.84z" fill="#68dbf9"/><path d="m407.715 223.42h-13.29-125.13v119.11c0 5.52 4.47 10 10 10h105.13c5.523 0 10 4.477 10 10v111.97h40v-251.08z" fill="#21c1f8"/><g><path d="m407.72 7.5h-138.43v304.426c0 5.523 4.477 10 10 10h118.43c5.523 0 10-4.477 10-10z" fill="#d9e7eb"/><path d="m407.715 7.5v304.43c0 5.52-4.47 10-10 10h-40c5.53 0 10-4.48 10-10v-304.43z" fill="#b7c4ce"/></g><g><path d="m407.72 265.761h-138.43v46.165c0 5.523 4.477 10 10 10h118.43c5.523 0 10-4.477 10-10z" fill="#596d76"/><path d="m367.715 311.93c0 5.494-4.429 9.954-9.923 9.996h39.928c5.523 0 10-4.477 10-10v-46.165h-40.005z" fill="#475a61"/></g></g><g><path d="m397.72 504.5h-118.43c-5.523 0-10-4.477-10-10v-39.999c0-5.523 4.477-10 10-10h118.43c5.523 0 10 4.477 10 10v39.999c0 5.523-4.477 10-10 10z" fill="#596d76"/><path d="m407.715 454.5v40c0 5.52-4.47 10-10 10h-40c5.53 0 10-4.48 10-10v-40c0-5.52-4.47-10-10-10h40c5.53 0 10 4.48 10 10z" fill="#475a61"/></g></g></g><g><g><path d="m119.915 363.773c4.023 36.175 10.293 96.13 36.606 136.23 1.856 2.828 5.043 4.498 8.425 4.498h92.404c3.383 0 6.569-1.669 8.425-4.498 26.312-40.099 32.583-100.055 36.606-136.23.667-6.001-4.031-11.243-10.069-11.243h-162.328c-6.038 0-10.736 5.241-10.069 11.243z" fill="#d9e7eb"/><path d="m302.377 363.77c-4.02 36.18-10.29 96.13-36.6 136.23-1.86 2.83-5.04 4.5-8.43 4.5h-40c3.39 0 6.57-1.67 8.43-4.5 26.31-40.1 32.58-100.05 36.6-136.23.67-6-4.03-11.24-10.06-11.24h40c6.03 0 10.73 5.24 10.06 11.24z" fill="#b7c4ce"/></g></g></g></g></g><g><path d="m447.321 467h-5.394v-236.08h5.394c4.143 0 7.5-3.358 7.5-7.5s-3.357-7.5-7.5-7.5h-32.101v-40.217c0-4.142-3.357-7.5-7.5-7.5s-7.5 3.358-7.5 7.5v40.217h-123.43v-200.92h123.431v128.526c0 4.142 3.357 7.5 7.5 7.5s7.5-3.358 7.5-7.5v-128.526h19.204c4.143 0 7.5-3.358 7.5-7.5s-3.357-7.5-7.5-7.5h-191.84c-4.143 0-7.5 3.358-7.5 7.5s3.357 7.5 7.5 7.5h19.205v200.921h-32.101c-4.143 0-7.5 3.358-7.5 7.5s3.357 7.5 7.5 7.5h5.394v114.109h-33.49c-4.143 0-7.5 3.358-7.5 7.5s3.357 7.5 7.5 7.5h90.72c1.026 0 1.671.549 1.964.876.291.325.764 1.023.65 2.037l-.211 1.901c-3.867 34.835-10.339 93.14-35.211 131.044-.45.686-1.276 1.112-2.155 1.112h-92.403c-.879 0-1.705-.427-2.155-1.112-24.872-37.905-31.344-96.211-35.211-131.048l-.211-1.896c-.112-1.014.359-1.711.651-2.037.293-.328.938-.876 1.964-.876h39.432c4.143 0 7.5-3.358 7.5-7.5s-3.357-7.5-7.5-7.5h-39.432c-5.011 0-9.801 2.141-13.141 5.873-3.339 3.73-4.936 8.723-4.383 13.698l.21 1.894c.516 4.648 1.078 9.705 1.721 15.064h-21.169c-10.249 0-20.045 4.379-26.876 12.015-6.815 7.616-10.077 17.806-8.948 27.959 2.212 19.854 9.506 47.66 31.693 67.384 3.799 3.377 8.688 5.237 13.766 5.237h.003c5.919 0 11.568-2.536 15.5-6.958 7.595-8.544 6.822-21.674-1.722-29.268-10.466-9.304-15.13-23.192-17.167-34.906h21.24c5.448 27.972 14.21 57.733 29.539 81.095 3.239 4.936 8.733 7.882 14.695 7.882h92.403c4.087 0 7.953-1.385 11.024-3.845 2.996 2.4 6.788 3.845 10.916 3.845h118.431c9.649 0 17.5-7.851 17.5-17.5v-12.5h32.101c4.143 0 7.5-3.358 7.5-7.5s-3.357-7.5-7.5-7.5zm-354.098-58.977c-2.732 0-5.343 1.167-7.155 3.198-1.83 2.045-2.671 4.669-2.367 7.383 1.698 15.248 7.062 36.393 22.974 50.536 2.361 2.1 2.575 5.73.476 8.091-1.103 1.241-2.626 1.924-4.29 1.924-1.401 0-2.752-.514-3.802-1.448-18.63-16.561-24.83-40.591-26.751-57.833-.658-5.917 1.243-11.856 5.219-16.298 3.989-4.459 9.711-7.017 15.697-7.017h23.109c.523 3.737 1.096 7.566 1.723 11.463h-24.833zm306.998-177.102v27.34h-123.431v-27.34zm-123.431 42.34h123.431v38.666c0 1.378-1.121 2.5-2.5 2.5h-118.431c-1.379 0-2.5-1.122-2.5-2.5zm123.431 221.239c0 1.378-1.121 2.5-2.5 2.5h-118.431c-.933 0-1.738-.519-2.167-1.278 2.471-4.415 4.74-9.006 6.835-13.722h116.263zm-2.5-57.499h-35.271c-4.143 0-7.5 3.358-7.5 7.5s3.357 7.5 7.5 7.5h35.271c1.379 0 2.5 1.122 2.5 2.5v12.499h-110.303c1.749-4.938 3.345-9.951 4.792-15h35.561c4.143 0 7.5-3.358 7.5-7.5s-3.357-7.5-7.5-7.5h-31.676c6.079-25.97 8.927-51.573 11.029-70.501l.211-1.897c.554-4.976-1.043-9.968-4.381-13.698-3.34-3.733-8.13-5.874-13.142-5.874h-42.229v-114.109h11.707v34.84 46.166c0 9.649 7.851 17.5 17.5 17.5h118.431c9.649 0 17.5-7.851 17.5-17.5v-46.166-34.84h11.707v236.079h-11.707v-12.5c0-9.648-7.851-17.499-17.5-17.499z"/><path d="m302.444 54.42h12.326c4.143 0 7.5-3.358 7.5-7.5s-3.357-7.5-7.5-7.5h-12.326c-4.143 0-7.5 3.358-7.5 7.5s3.358 7.5 7.5 7.5z"/><path d="m356.9 73.649c0-4.142-3.357-7.5-7.5-7.5h-46.956c-4.143 0-7.5 3.358-7.5 7.5s3.357 7.5 7.5 7.5h46.956c4.143 0 7.5-3.358 7.5-7.5z"/><path d="m294.944 149.281c0 12.645 10.287 22.932 22.932 22.932s22.932-10.287 22.932-22.932c0-12.644-10.287-22.931-22.932-22.931s-22.932 10.287-22.932 22.931zm30.863 0c0 4.374-3.559 7.932-7.932 7.932s-7.932-3.558-7.932-7.932c0-4.373 3.559-7.931 7.932-7.931s7.932 3.558 7.932 7.931z"/></g></g><g/><g/><g/><g/><g/><g/><g/><g/><g/><g/><g/><g/><g/><g/><g/></svg>