<svg id="Capa_1" enable-background="new 0 0 512 512" viewBox="0 0 512 512" xmlns="http://www.w3.org/2000/svg"><g><g><g><path d="m475.648 234.971c19.268-20.199 29.474-46.772 28.726-74.803-.71-27.23-11.718-52.833-30.978-72.093l-49.879-49.879c-19.779-19.779-46.1-30.68-74.162-30.695-27.978.023-54.268 10.924-74.04 30.695-16.924 16.924-27.619 39.36-30.123 63.192-.863 8.298-.718 16.642.382 24.84 3.71 27.543-6.328 55.139-27.436 73.208l-199.226 170.599c-14.336 12.275-15.184 34.161-1.84 47.505l20.023 20.023c4.216 4.216 11.052 4.216 15.268 0l18.573-18.573c2.886-2.886 4.015-7.16 2.71-11.031-4.664-13.886-.87-29.909 11.077-40.131l49.062-41.978c7.382-6.313 16.565-9.267 25.627-8.909 9.069.351 18 4 24.863 10.863 13.741 13.741 14.596 35.741 1.962 50.497l-41.978 49.062c-10.222 11.947-26.253 15.733-40.131 11.077-3.87-1.305-8.145-.176-11.031 2.71l-18.573 18.573c-4.216 4.216-4.216 11.052 0 15.268l20.023 20.023c13.344 13.344 35.23 12.496 47.505-1.84l170.584-199.211c18.061-21.1 45.627-31.153 73.147-27.451 4.618.618 9.29.939 14 .946 28.528.01 56.192-11.838 75.865-32.487zm-78.216-28.535c-11.909 0-23.825-4.542-32.917-13.634l-45.23-45.23c-18.184-18.184-18.176-47.658 0-65.834 9.092-9.092 21.001-13.642 32.917-13.634 11.916-.008 23.825 4.542 32.917 13.634l45.23 45.23c18.176 18.176 18.184 47.65 0 65.834-9.084 9.084-21.001 13.626-32.917 13.634z" fill="#23f1a8"/><path d="m399.783 267.46c-4.71-.008-9.382-.328-14-.946-27.52-3.702-55.085 6.351-73.147 27.451l-170.584 199.211c-12.275 14.336-34.161 15.184-47.505 1.84l-20.023-20.023c-1.183-1.183-2.038-2.573-2.55-4.061 13.161 7.649 30.466 5.183 40.871-6.962l30.123-35.176c.443-.458.87-.931 1.29-1.427l41.978-49.062c.237-.282.473-.565.702-.855l96.491-112.69c18.061-21.1 45.627-31.153 73.147-27.451 4.618.618 9.29.939 14 .947 28.527.008 56.192-11.84 75.864-32.489 19.268-20.199 29.474-46.772 28.726-74.803-.71-27.23-11.718-52.833-30.978-72.093l29.207 29.207c19.26 19.26 30.268 44.864 30.978 72.093.748 28.031-9.458 54.604-28.726 74.803-19.672 20.646-47.336 32.494-75.864 32.486z" fill="#26d192"/><path d="m466.603 161.159c-.458-17.512-7.535-33.978-19.924-46.368l-49.879-49.879c-12.642-12.642-29.466-19.619-47.413-19.626-17.894.015-34.711 6.985-47.352 19.626-10.832 10.832-17.665 25.176-19.26 40.39-1.557 14.962 2 30.184 10.038 42.848 1.672 2.634 3.649 5.099 5.855 7.306l57.963 57.963c2.214 2.214 4.672 4.183 7.313 5.863 10.71 6.786 23.1 10.382 35.856 10.39 18.237.008 35.917-7.565 48.505-20.779 12.267-12.863 18.771-29.825 18.298-47.734zm-66.803 36.131c-6.443 0-12.878-1.794-18.512-5.367-3.741-2.366-5.527-6.886-4.626-11.222l.695-3.29c.748-3.573-.351-7.267-2.931-9.848l-29.902-29.902c-2.58-2.58-6.275-3.679-9.848-2.931l-3.29.695c-4.336.901-8.855-.886-11.229-4.618-8.481-13.382-6.893-31.321 4.779-42.993 6.756-6.756 15.619-10.138 24.482-10.145 8.863.008 17.718 3.382 24.482 10.145l49.879 49.879c13.374 13.374 14.13 35.169 1.084 48.856-6.826 7.16-15.949 10.741-25.063 10.741z" fill="#f4f6f7"/><path d="m448.303 208.894c-12.588 13.214-30.268 20.787-48.505 20.779-12.756-.008-25.146-3.603-35.856-10.39-2.641-1.679-5.099-3.649-7.313-5.863l-22.901-22.901c2.214 2.214 4.672 4.183 7.313 5.863 10.71 6.786 23.1 10.382 35.856 10.39 17.367.008 34.245-6.87 46.688-18.947.435-.42.863-.847 1.282-1.282.183-.183.351-.366.534-.55 12.268-12.863 18.771-29.825 18.298-47.734-.458-17.512-7.535-33.978-19.924-46.368l22.901 22.901c12.39 12.39 19.466 28.856 19.924 46.368.475 17.909-6.029 34.871-18.297 47.734z" fill="#d9e7eb"/></g></g><g><path d="m402.103 59.609c-14.065-14.065-32.786-21.815-52.724-21.823-19.896.017-38.593 7.767-52.649 21.823-12.034 12.035-19.64 27.984-21.416 44.917-1.733 16.648 2.232 33.568 11.166 47.644 1.967 3.098 4.283 5.988 6.884 8.589l57.964 57.964c2.598 2.597 5.488 4.915 8.602 6.895 11.917 7.55 25.702 11.545 39.867 11.554h.031c20.271 0 39.918-8.421 53.904-23.103 13.66-14.323 20.895-33.184 20.368-53.106-.508-19.438-8.363-37.719-22.118-51.475l-16.167-16.167c-2.932-2.93-7.68-2.929-10.607 0-2.929 2.929-2.929 7.678 0 10.606l16.168 16.167c11.026 11.026 17.322 25.68 17.73 41.262.419 15.903-5.344 30.947-16.232 42.363-11.172 11.728-26.859 18.452-43.045 18.452-.008 0-.017 0-.025 0-11.319-.006-22.331-3.196-31.835-9.218-2.181-1.386-4.211-3.014-6.034-4.837l-57.963-57.963c-1.825-1.825-3.449-3.851-4.827-6.021-7.131-11.235-10.295-24.75-8.911-38.047 1.418-13.519 7.492-26.257 17.104-35.869 11.226-11.226 26.161-17.416 42.046-17.43 15.924.006 30.88 6.196 42.113 17.43l10.967 10.966c2.927 2.929 7.676 2.929 10.606 0 2.929-2.929 2.929-7.678-.001-10.606z"/><path d="m369.318 179.177c-1.542 7.427 1.657 15.097 7.953 19.08 6.739 4.273 14.529 6.533 22.528 6.533 11.632 0 22.46-4.64 30.491-13.066 15.641-16.409 15.098-43.026-1.209-59.333l-49.88-49.879c-7.948-7.949-18.524-12.332-29.792-12.342-11.254.01-21.829 4.393-29.778 12.342-13.818 13.82-16.262 35.82-5.803 52.322 3.998 6.288 11.672 9.476 19.107 7.932l3.277-.692c1.095-.232 2.218.104 3.007.894l29.901 29.901c.789.79 1.124 1.914.897 2.994zm-19.49-46.818c-3.473-3.473-8.111-5.36-12.913-5.36-1.258 0-2.526.129-3.788.394l-3.265.689c-1.351.279-2.704-.243-3.37-1.291-6.728-10.614-5.151-24.776 3.747-33.675 5.119-5.119 11.932-7.942 19.171-7.948 7.253.006 14.066 2.829 19.185 7.948l49.88 49.879c10.598 10.598 11.027 27.814.959 38.378-5.173 5.426-12.146 8.415-19.634 8.415-5.149 0-10.162-1.453-14.502-4.205-1.052-.665-1.571-2.015-1.298-3.332l.698-3.304c1.271-6.067-.587-12.305-4.969-16.688z"/><path d="m80.755 405.572c-3.88-11.55-.409-24.128 8.843-32.044l49.061-41.977c5.711-4.884 12.974-7.42 20.462-7.114 7.499.29 14.548 3.37 19.85 8.671 10.901 10.901 11.59 28.611 1.566 40.318l-12.72 14.867c-2.693 3.147-2.324 7.882.823 10.575 3.148 2.693 7.881 2.324 10.575-.823l12.718-14.865c15.085-17.62 14.051-44.272-2.355-60.679-7.981-7.981-18.591-12.617-29.87-13.054-11.27-.45-22.206 3.354-30.799 10.704l-49.063 41.979c-13.923 11.913-19.147 30.839-13.307 48.227.371 1.101.016 2.408-.907 3.33l-18.572 18.573c-.84.84-1.821.965-2.331.965s-1.49-.125-2.331-.965l-20.023-20.023c-4.958-4.958-7.54-11.549-7.269-18.558.271-7.01 3.355-13.384 8.684-17.947l147.868-126.621c3.146-2.694 3.513-7.429.818-10.575-2.694-3.146-7.428-3.512-10.575-.818l-147.867 126.62c-8.416 7.206-13.488 17.689-13.917 28.761-.428 11.07 3.819 21.912 11.651 29.744l20.023 20.023c3.456 3.456 8.05 5.359 12.938 5.359 4.887 0 9.481-1.903 12.937-5.359l18.573-18.573c4.92-4.919 6.692-12.272 4.516-18.721z"/><path d="m511.871 159.973c-.76-29.153-12.54-56.57-33.171-77.201l-49.88-49.879c-21.194-21.195-49.414-32.877-79.472-32.893-29.975.024-58.15 11.706-79.337 32.892-18.133 18.133-29.596 42.18-32.279 67.72-.916 8.809-.779 17.763.408 26.618 3.419 25.382-5.882 50.246-24.88 66.51l-26.933 23.062c-3.146 2.694-3.513 7.429-.818 10.575 2.694 3.148 7.429 3.512 10.575.819l26.931-23.062c22.881-19.587 34.093-49.459 29.992-79.902-1.029-7.676-1.148-15.437-.356-23.06 2.324-22.125 12.257-42.962 27.968-58.673 18.355-18.357 42.768-28.478 68.731-28.499 26.044.014 50.5 10.135 68.862 28.499l49.88 49.879c17.902 17.902 28.124 41.691 28.784 66.99.694 26.022-8.772 50.678-26.658 69.43-18.265 19.17-43.924 30.163-70.396 30.163-.009 0-.019 0-.026 0-4.33-.007-8.71-.303-13.013-.88-30.409-4.087-60.258 7.127-79.844 30.006l-170.584 199.211c-4.562 5.329-10.936 8.412-17.947 8.684-7.001.275-13.6-2.31-18.558-7.269l-20.023-20.023c-1.285-1.285-1.285-3.376 0-4.661l18.573-18.574c.921-.922 2.229-1.278 3.342-.903 17.38 5.833 36.306.608 48.215-13.311l8.345-9.753c2.693-3.147 2.325-7.882-.823-10.575s-7.882-2.324-10.575.823l-8.345 9.753c-7.913 9.249-20.492 12.72-32.035 8.846-6.459-2.177-13.811-.406-18.73 4.514l-18.574 18.572c-7.133 7.133-7.133 18.74 0 25.874l20.023 20.023c7.473 7.473 17.683 11.682 28.218 11.682.508 0 1.018-.01 1.527-.029 11.072-.428 21.555-5.5 28.761-13.917l170.585-199.211c16.264-18.998 41.099-28.307 66.453-24.895 4.957.664 9.998 1.005 14.994 1.013h.03c30.565-.001 60.187-12.689 81.264-34.812 20.661-21.661 31.597-50.136 30.796-80.176z"/></g></g><g/><g/><g/><g/><g/><g/><g/><g/><g/><g/><g/><g/><g/><g/><g/></svg>