<svg id="Capa_1" enable-background="new 0 0 512 512" height="512" viewBox="0 0 512 512" width="512" xmlns="http://www.w3.org/2000/svg"><g><path d="m481.22 398.054v49.3c0 5.53-4.48 10-10 10h-430.44c-5.52 0-10-4.47-10-10v-49.3z" fill="#ffeed3"/><path d="m481.22 398.054v49.3c0 5.53-4.48 10-10 10h-38c5.52 0 10-4.47 10-10v-49.3z" fill="#fddaa9"/><path d="m481.22 398.054v31.02c-.07.01-.15.01-.22.01h-450c-.07 0-.15 0-.22-.01v-31.02z" fill="#fddaa9"/><path d="m481 409.085h-450c-5.523 0-10-4.477-10-10v-311c0-5.523 4.477-10 10-10h450c5.523 0 10 4.477 10 10v311c0 5.522-4.477 10-10 10z" fill="#93ddb7"/><g fill="#4dcb8f"><path d="m217.708 234.539h-17.106c-2.761 0-5-2.239-5-5v-78.931c0-2.761 2.239-5 5-5h17.106c2.761 0 5 2.239 5 5v78.931c0 2.761-2.239 5-5 5z"/><path d="m311.399 234.539h-17.106c-2.761 0-5-2.239-5-5v-78.931c0-2.761 2.239-5 5-5h17.106c2.761 0 5 2.239 5 5v78.931c0 2.761-2.239 5-5 5z"/><path d="m491 88.085v311c0 5.52-4.48 10-10 10h-38c5.52 0 10-4.48 10-10v-311c0-5.52-4.48-10-10-10h38c5.52 0 10 4.479 10 10z"/><path d="m491 120.585v-32.5c0-5.523-4.477-10-10-10h-450c-5.523 0-10 4.477-10 10v32.5z"/></g><path d="m494.5 95.527h-477c-5.523 0-10-4.477-10-10v-20.885c0-5.523 4.477-10 10-10h477c5.523 0 10 4.477 10 10v20.885c0 5.523-4.477 10-10 10z" fill="#ffeed3"/><path d="m504.5 64.645v20.88c0 5.53-4.48 10-10 10h-38c5.52 0 10-4.47 10-10v-20.88c0-5.53-4.48-10-10-10h38c5.52 0 10 4.47 10 10z" fill="#fddaa9"/><g><path d="m217.708 213.539h-17.106c-2.761 0-5-2.239-5-5v-78.931c0-2.761 2.239-5 5-5h17.106c2.761 0 5 2.239 5 5v78.931c0 2.761-2.239 5-5 5z" fill="#d9e7eb"/><g><path d="m311.399 213.539h-17.106c-2.761 0-5-2.239-5-5v-78.931c0-2.761 2.239-5 5-5h17.106c2.761 0 5 2.239 5 5v78.931c0 2.761-2.239 5-5 5z" fill="#d9e7eb"/><g><path d="m494.5 47.142h-477c-9.649 0-17.5 7.851-17.5 17.5v20.885c0 8.271 5.775 15.204 13.5 17.021v296.537c0 6.877 3.997 12.823 9.781 15.682v32.592c0 9.649 7.851 17.5 17.5 17.5h330.055c4.142 0 7.5-3.358 7.5-7.5s-3.358-7.5-7.5-7.5h-330.055c-1.378 0-2.5-1.122-2.5-2.5v-30.773h79.222c4.142 0 7.5-3.358 7.5-7.5s-3.358-7.5-7.5-7.5h-86.503c-1.378 0-2.5-1.122-2.5-2.5v-296.059h220v298.558h-97.336c-4.142 0-7.5 3.358-7.5 7.5s3.358 7.5 7.5 7.5h322.555v30.773c0 1.378-1.122 2.5-2.5 2.5h-66.722c-4.142 0-7.5 3.358-7.5 7.5s3.358 7.5 7.5 7.5h66.722c9.649 0 17.5-7.851 17.5-17.5v-32.592c5.784-2.859 9.781-8.805 9.781-15.682v-296.536c7.725-1.816 13.5-8.749 13.5-17.021v-20.885c0-9.649-7.851-17.5-17.5-17.5zm-479.5 17.5c0-1.378 1.122-2.5 2.5-2.5h477c1.378 0 2.5 1.122 2.5 2.5v20.885c0 1.378-1.122 2.5-2.5 2.5h-477c-1.378 0-2.5-1.122-2.5-2.5zm248.5 38.385h220v296.058c0 1.378-1.122 2.5-2.5 2.5h-217.5z"/><path d="m217.708 221.039c6.893 0 12.5-5.607 12.5-12.5v-78.931c0-6.893-5.607-12.5-12.5-12.5h-17.106c-6.893 0-12.5 5.607-12.5 12.5v78.931c0 6.893 5.607 12.5 12.5 12.5zm-14.606-88.931h12.106v73.931h-12.106z"/><path d="m311.398 117.108h-17.106c-6.893 0-12.5 5.607-12.5 12.5v27.895c0 4.142 3.358 7.5 7.5 7.5s7.5-3.358 7.5-7.5v-25.395h12.106v73.931h-12.106v-14.875c0-4.142-3.358-7.5-7.5-7.5s-7.5 3.358-7.5 7.5v17.375c0 6.893 5.607 12.5 12.5 12.5h17.106c6.893 0 12.5-5.607 12.5-12.5v-78.931c0-6.893-5.607-12.5-12.5-12.5z"/></g></g></g></g></svg>