<svg id="Capa_1" enable-background="new 0 0 512 512" height="512" viewBox="0 0 512 512" width="512" xmlns="http://www.w3.org/2000/svg"><g><path d="m491.955 167.808-110.966-110.965c-3.849-3.849-10.078-3.842-13.919 0l-217.387 217.386c-3.849 3.849-3.849 10.071 0 13.919l110.966 110.966c16.731 16.731 43.846 16.731 60.577 0l170.729-170.729c16.724-16.724 16.731-43.846 0-60.577zm-117.689-31.458c-8.867 0-16.056-7.189-16.056-16.056s7.189-16.056 16.056-16.056 16.056 7.189 16.056 16.056-7.19 16.056-16.056 16.056z" fill="#d9e7eb"/><g><g><g><path d="m16.122 449.42c-11.495-11.495-11.495-30.132 0-41.627l119.64-119.64c3.844-3.844 10.076-3.844 13.919 0l27.708 27.708c3.844 3.844 3.844 10.076 0 13.919l-119.64 119.64c-11.495 11.495-30.132 11.495-41.627 0z" fill="#fcb44d"/><path d="m177.383 329.781-119.206 119.206c-11.434 11.434-30.097 12.02-41.712.77-3.987-3.861-6.637-8.547-7.959-13.538 9.813 2.64 20.725.088 28.427-7.614l114.577-114.577c6.098-6.098 6.595-15.646 1.5-22.314.594.449 1.179.955 1.725 1.5l22.647 22.647c3.845 3.844 3.845 10.076.001 13.92z" fill="#fca62f"/><g><path d="m177.389 329.785-16.954 16.954-41.633-41.633 16.954-16.954c3.844-3.844 10.076-3.844 13.919 0l27.714 27.714c3.844 3.843 3.844 10.075 0 13.919z" fill="#fc6d5a"/></g><path d="m177.382 329.778-16.954 16.954-20.81-20.81 11.894-11.894c6.097-6.097 6.598-15.645 1.503-22.313.585.445 1.176.953 1.719 1.496l22.647 22.647c3.845 3.844 3.845 10.076.001 13.92z" fill="#fb5652"/></g></g></g><path d="m491.955 228.386-170.729 170.728c-16.731 16.731-43.846 16.731-60.577 0l-25.312-25.312c16.724 16.724 43.846 16.731 60.577 0l170.729-170.729c16.724-16.724 16.724-43.853 0-60.577l25.312 25.312c16.731 16.731 16.724 43.853 0 60.578z" fill="#c5d3dd"/><g><path d="m497.258 162.508-37.648-37.649c-2.929-2.93-7.678-2.929-10.606 0-2.929 2.929-2.929 7.678 0 10.606l37.648 37.649c6.673 6.674 10.348 15.548 10.348 24.986s-3.675 18.312-10.349 24.985l-170.73 170.73c-6.674 6.674-15.547 10.349-24.985 10.349s-18.312-3.675-24.985-10.349l-83.258-83.258-27.708-27.708s-.001-.001-.002-.001-.001-.001-.001-.002c-.913-.914-.913-2.399 0-3.313l37.375-37.375c2.929-2.929 2.929-7.678 0-10.606-2.929-2.929-7.678-2.929-10.606 0l-37.375 37.375c-2.583 2.583-4.172 5.786-4.781 9.134-3.441.624-6.61 2.263-9.135 4.788l-46.237 46.237c-2.929 2.929-2.929 7.678 0 10.606 2.929 2.929 7.678 2.929 10.606 0l23.974-23.974 31.021 31.021-97.377 97.377c-4.143 4.143-9.651 6.425-15.51 6.425s-11.368-2.282-15.511-6.425-6.426-9.651-6.426-15.51 2.282-11.367 6.425-15.51l49.602-49.602c2.929-2.929 2.929-7.678 0-10.606-2.929-2.929-7.678-2.929-10.606 0l-49.602 49.602c-6.977 6.975-10.819 16.25-10.819 26.116s3.842 19.141 10.818 26.117 16.251 10.818 26.117 10.818c9.865 0 19.141-3.842 26.117-10.818l119.64-119.64c.56-.56 1.06-1.161 1.533-1.78l71.119 71.119c9.813 9.813 22.702 14.719 35.592 14.719s25.779-4.906 35.592-14.719l170.73-170.73c9.507-9.507 14.742-22.147 14.742-35.592s-5.235-26.085-14.742-35.592zm-325.172 161.968-11.656 11.656-31.021-31.021 11.656-11.657c.913-.913 2.399-.914 3.313 0l27.708 27.708c.913.915.913 2.401 0 3.314z"/><path d="m210.855 220.552c1.919 0 3.839-.732 5.303-2.197l156.211-156.21c.567-.567 1.214-.686 1.657-.686.442 0 1.089.119 1.656.686l49.519 49.519c2.929 2.929 7.678 2.929 10.606 0 2.929-2.929 2.929-7.678 0-10.606l-49.519-49.519c-3.275-3.276-7.63-5.08-12.263-5.08s-8.988 1.804-12.263 5.08l-156.211 156.21c-2.929 2.929-2.929 7.678 0 10.606 1.465 1.465 3.385 2.197 5.304 2.197z"/><path d="m350.713 120.293c0 12.988 10.567 23.555 23.555 23.555s23.555-10.566 23.555-23.555-10.566-23.555-23.555-23.555-23.555 10.566-23.555 23.555zm32.11 0c0 4.717-3.837 8.555-8.555 8.555s-8.555-3.837-8.555-8.555 3.838-8.555 8.555-8.555 8.555 3.837 8.555 8.555z"/></g></g></svg>