<svg id="Capa_1" enable-background="new 0 0 512 512" height="512" viewBox="0 0 512 512" width="512" xmlns="http://www.w3.org/2000/svg"><g><path d="m468.367 504.5h-424.733c-5.523 0-10-4.477-10-10v-477c0-5.523 4.477-10 10-10h424.733c5.523 0 10 4.477 10 10v477c0 5.523-4.477 10-10 10z" fill="#fddaa9"/><path d="m443.37 52.5v407c0 5.52-4.48 10-10 10h-354.74c-5.52 0-10-4.48-10-10v-407c0-5.52 4.48-10 10-10h354.74c5.52 0 10 4.48 10 10z" fill="#fb9927"/><path d="m62.5 88.634h387v334.733h-387z" fill="#fca62f" transform="matrix(0 1 -1 0 512 0)"/><path d="m443.37 118v69h-82.87v282.5h-69v-282.5h-71v282.5h-69v-282.5h-82.87v-69z" fill="#fb9927"/><path d="m443.366 138h-374.732v29h102.866v302.5h29v-302.5h111v302.5h29v-302.5h102.866z" fill="#fddaa9"/><g fill="#fcc16d"><path d="m311.5 449.5h29v20h-29z"/><path d="m171.5 449.5h29v20h-29z"/><path d="m68.63 138h20v29h-20z"/><path d="m423.37 138h20v29h-20z"/></g><g><path d="m468.366 0h-251.202c-4.142 0-7.5 3.358-7.5 7.5s3.358 7.5 7.5 7.5h251.203c1.379 0 2.5 1.122 2.5 2.5v477c0 1.378-1.121 2.5-2.5 2.5h-424.733c-1.378 0-2.5-1.122-2.5-2.5v-477c0-1.378 1.122-2.5 2.5-2.5h139.87c4.142 0 7.5-3.358 7.5-7.5s-3.358-7.5-7.5-7.5h-139.87c-9.649 0-17.5 7.851-17.5 17.5v477c0 9.649 7.851 17.5 17.5 17.5h424.733c9.649 0 17.5-7.851 17.5-17.5v-477c-.001-9.649-7.851-17.5-17.501-17.5z"/><path d="m443.366 246.336c4.143 0 7.5-3.358 7.5-7.5v-186.336c0-9.649-7.851-17.5-17.5-17.5h-354.732c-9.649 0-17.5 7.851-17.5 17.5v407c0 9.649 7.851 17.5 17.5 17.5h354.733c9.649 0 17.5-7.851 17.5-17.5v-187.003c0-4.142-3.357-7.5-7.5-7.5s-7.5 3.358-7.5 7.5v187.003c0 1.378-1.121 2.5-2.5 2.5h-85.367v-287.5h87.866v64.336c0 4.143 3.358 7.5 7.5 7.5zm-364.732-196.336h354.733c1.379 0 2.5 1.122 2.5 2.5v78h-359.733v-78c0-1.378 1.121-2.5 2.5-2.5zm-2.5 409.5v-285h87.866v287.5h-85.366c-1.379 0-2.5-1.122-2.5-2.5zm264.366-300c-4.143 0-7.5 3.358-7.5 7.5v295h-14v-295c0-4.142-3.357-7.5-7.5-7.5h-111c-4.142 0-7.5 3.358-7.5 7.5v228.503c0 4.142 3.358 7.5 7.5 7.5s7.5-3.358 7.5-7.5v-221.003h96v287.5h-96v-32.836c0-4.142-3.358-7.5-7.5-7.5s-7.5 3.358-7.5 7.5v32.836h-14v-295c0-4.142-3.358-7.5-7.5-7.5h-95.366v-14h359.733v14z"/></g></g></svg>