<svg id="Capa_1" enable-background="new 0 0 512 512" viewBox="0 0 512 512" xmlns="http://www.w3.org/2000/svg"><g><g><g><g><g><g><path d="m341.933 354.787c-3.866 0-7.714-1.591-10.483-4.709-5.137-5.787-4.61-14.642 1.177-19.779l50.065-44.445c13.645-12.113 21.472-29.526 21.472-47.773v-42.635c0-7.726-6.285-14.01-14.01-14.01h-48.225c-7.738 0-14.01-6.273-14.01-14.01 0-7.738 6.273-14.01 14.01-14.01h48.225c23.176 0 42.031 18.855 42.031 42.031v42.635c0 26.251-11.259 51.301-30.89 68.728l-50.065 44.445c-2.668 2.367-5.989 3.532-9.297 3.532z" fill="#d9e7eb"/></g></g><g><g><path d="m341.933 354.787c-3.866 0-7.714-1.591-10.483-4.709-5.137-5.787-4.61-14.642 1.177-19.779l50.065-44.445c13.645-12.113 21.472-29.526 21.472-47.773v-42.635c0-7.726-6.285-14.01-14.01-14.01h-48.225c-7.738 0-14.01-6.273-14.01-14.01 0-7.738 6.273-14.01 14.01-14.01h48.225c23.176 0 42.031 18.855 42.031 42.031v42.635c0 26.251-11.259 51.301-30.89 68.728l-50.065 44.445c-2.668 2.367-5.989 3.532-9.297 3.532z" fill="#d9e7eb"/></g></g></g><g><g><path d="m211.901 23.783h28.608v74.632h-28.608z" fill="#b7c4ce"/><path d="m211.901 23.783h28.608v40.725h-28.608z" fill="#a0acb9"/></g><g><path d="m250.501 124.236h-48.591v-29.461c0-2.831 2.295-5.127 5.127-5.127h38.337c2.831 0 5.127 2.295 5.127 5.127z" fill="#d9e7eb"/></g><path d="m88.248 153.415c-5.263 0-9.4 4.82-8.236 10.286.416 1.955 1.622 3.639 3.177 4.895.114.092.227.184.341.277 15.712 12.818 24.629 32.182 24.629 52.46v272.913c0 5.663 4.591 10.254 10.254 10.254h220.27c5.663 0 10.254-4.591 10.254-10.254v-340.831z" fill="#9ce6fb"/><path d="m348.938 153.418v340.827c0 5.66-4.594 10.254-10.254 10.254h-35.559c5.66 0 10.254-4.594 10.254-10.254v-340.827z" fill="#68dbf9"/><g><g><path d="m211.901 159.003h28.608v257.327h-28.608z" fill="#b7c4ce"/><path d="m211.901 159.003h28.608v84.04h-28.608z" fill="#a0acb9"/></g><path d="m139.031 146.618v59.505c0 5.663 4.591 10.253 10.254 10.253h153.842c5.663 0 10.253-4.591 10.253-10.253v-59.505z" fill="#596d76"/><path d="m274.733 146.618v59.504c0 5.66-4.594 10.254-10.254 10.254h38.645c5.66 0 10.254-4.594 10.254-10.254v-59.504z" fill="#475a61"/></g><path d="m348.934 153.415h-245.458v-31.511c0-2.831 2.295-5.127 5.127-5.127h235.205c2.831 0 5.127 2.295 5.127 5.127v31.511z" fill="#d9e7eb"/><path d="m348.938 121.899v31.519h-35.559v-31.519c0-2.83-2.297-5.127-5.127-5.127h35.559c2.83 0 5.127 2.297 5.127 5.127z" fill="#b7c4ce"/><path d="m261.779 37.986h-71.148c-2.831 0-5.127-2.295-5.127-5.127v-20.232c0-2.831 2.295-5.127 5.127-5.127h71.148c2.831 0 5.127 2.295 5.127 5.127v20.233c0 2.831-2.295 5.126-5.127 5.126z" fill="#d9e7eb"/><path d="m266.91 12.627v20.23c0 2.83-2.297 5.127-5.127 5.127h-29.684c2.83 0 5.127-2.297 5.127-5.127v-20.23c0-2.83-2.297-5.127-5.127-5.127h29.684c2.83 0 5.127 2.297 5.127 5.127z" fill="#b7c4ce"/><g><path d="m108.154 396.683h240.783v29.879h-240.783z" fill="#d9e7eb"/><path d="m313.378 396.683h35.559v29.879h-35.559z" fill="#b7c4ce"/></g><g><path d="m315.038 426.564h-172.984v19.117c0 5.663 4.591 10.254 10.254 10.254h152.478c5.663 0 10.254-4.591 10.254-10.254v-19.117z" fill="#b7c4ce"/><path d="m315.04 426.562v19.123c0 5.66-4.594 10.254-10.254 10.254h-36.892c5.66 0 10.254-4.594 10.254-10.254v-19.123z" fill="#a0acb9"/></g></g></g></g><path d="m390.154 145.915h-33.72v-24.011c0-6.963-5.664-12.627-12.626-12.627h-42.869c-4.142 0-7.5 3.357-7.5 7.5s3.358 7.5 7.5 7.5h40.495v21.638h-230.458v-21.638h157.786c4.142 0 7.5-3.357 7.5-7.5s-3.358-7.5-7.5-7.5h-10.762v-14.502c0-6.059-4.29-11.13-9.991-12.346v-36.943h13.77c6.962 0 12.627-5.664 12.627-12.627v-20.232c0-6.963-5.664-12.627-12.627-12.627h-71.148c-6.962 0-12.626 5.664-12.626 12.627v20.232c0 6.963 5.664 12.627 12.626 12.627h13.77v36.944c-5.701 1.216-9.991 6.287-9.991 12.346v14.502h-85.807c-6.962 0-12.627 5.664-12.627 12.627v24.011h-7.728c-4.831 0-9.346 2.154-12.387 5.911s-4.203 8.654-3.185 13.436c.743 3.492 2.803 6.748 5.791 9.162l.321.261c13.899 11.339 21.87 28.342 21.87 46.648v39.229c0 4.143 3.358 7.5 7.5 7.5s7.5-3.357 7.5-7.5v-39.229c0-22.833-9.982-44.072-27.407-58.287-1.037-.586-1.431-1.893-.002-2.131h15.228 28.055v45.208c0 9.789 7.964 17.754 17.753 17.754h55.117v165.302h-88.743v-96.44c0-4.143-3.358-7.5-7.5-7.5s-7.5 3.357-7.5 7.5v201.507c0 9.79 7.964 17.754 17.753 17.754h220.27c9.789 0 17.753-7.964 17.753-17.754v-137.585l49.839-44.244c21.233-18.849 33.411-45.943 33.411-74.337v-42.635c0-27.311-22.22-49.531-49.531-49.531zm-197.15-130.915h66.402v15.486h-66.402zm40.005 30.486v36.662h-13.608v-36.662zm-23.599 51.662h33.59v12.129h-33.59zm147.024 91.788h33.72c3.59 0 6.51 2.921 6.51 6.511v42.635c0 16.105-6.907 31.474-18.951 42.164l-21.279 18.891zm-15 200.244h-93.425v-165.303h55.117c9.789 0 17.753-7.965 17.753-17.754v-45.208h20.554v228.265zm-194.903-183.057v-45.208h159.349v45.208c0 1.519-1.235 2.754-2.753 2.754h-153.843c-1.518 0-2.753-1.235-2.753-2.754zm72.87 17.754h13.608v165.303h-13.608zm122.033 180.303v14.884h-225.776v-14.884zm-2.753 92.82h-220.27c-1.518 0-2.753-1.235-2.753-2.754v-60.183h18.896v11.617c0 9.789 7.964 17.753 17.753 17.753h18.93c4.142 0 7.5-3.357 7.5-7.5s-3.358-7.5-7.5-7.5h-18.93c-1.518 0-2.753-1.235-2.753-2.753v-11.617h157.985v11.617c0 1.518-1.235 2.753-2.754 2.753h-101.371c-4.142 0-7.5 3.357-7.5 7.5s3.358 7.5 7.5 7.5h101.371c9.79 0 17.754-7.964 17.754-17.753v-11.617h18.896v60.183c-.001 1.519-1.236 2.754-2.754 2.754zm86.004-258.919c0 24.109-10.34 47.115-28.369 63.12l-39.881 35.403v-17.412l31.237-27.73c15.248-13.535 23.993-32.992 23.993-53.382v-42.635c0-11.861-9.649-21.511-21.51-21.511h-33.72v-13.021h33.72c19.041 0 34.531 15.49 34.531 34.531v42.637z"/></g><g/><g/><g/><g/><g/><g/><g/><g/><g/><g/><g/><g/><g/><g/><g/></svg>