<svg id="Capa_1" enable-background="new 0 0 512 512" height="512" viewBox="0 0 512 512" width="512" xmlns="http://www.w3.org/2000/svg"><g><g><g><path d="m200.925 110.361v-58.016c0-5.821 4.736-10.558 10.559-10.558h89.033c5.821 0 10.558 4.736 10.558 10.558v58.016h34.287v-58.016c0-24.728-20.117-44.845-44.845-44.845h-89.033c-24.728 0-44.846 20.117-44.846 44.845v58.016z" fill="#1fb2cc"/></g><g><path d="m345.362 52.347v58.014h-27.645v-58.014c0-24.726-20.122-44.847-44.847-44.847h27.645c24.725 0 44.847 20.122 44.847 44.847z" fill="#189ab0"/></g></g><path d="m404.904 478.702h-297.807l55.838-346.789h186.13z" fill="#f6f8f9"/><g fill="#d9e7eb"><path d="m404.904 478.702h-30.692l-55.839-346.789h30.692z"/><path d="m353.718 160.812h-195.436l4.653-28.899h186.13z"/><ellipse cx="228.354" cy="204.31" rx="13.815" ry="18.286"/><ellipse cx="283.646" cy="204.31" rx="13.815" ry="18.286"/><ellipse cx="200.708" cy="278.475" rx="13.815" ry="18.286"/><ellipse cx="256" cy="278.475" rx="13.815" ry="18.286"/><ellipse cx="311.292" cy="278.475" rx="13.815" ry="18.286"/><ellipse cx="173.062" cy="352.64" rx="13.815" ry="18.286"/><ellipse cx="228.354" cy="352.64" rx="13.815" ry="18.286"/><ellipse cx="283.646" cy="352.64" rx="13.815" ry="18.286"/><ellipse cx="338.939" cy="352.64" rx="13.815" ry="18.286"/><ellipse cx="200.708" cy="426.806" rx="13.815" ry="18.286"/><ellipse cx="256" cy="426.806" rx="13.815" ry="18.286"/><ellipse cx="311.292" cy="426.806" rx="13.815" ry="18.286"/></g><path d="m354.832 141.222h-197.663c-5.41 0-9.796-4.386-9.796-9.796v-19.432c0-5.41 4.386-9.796 9.796-9.796h197.663c5.41 0 9.796 4.386 9.796 9.796v19.432c0 5.41-4.386 9.796-9.796 9.796z" fill="#3ad1e0"/><path d="m364.631 111.997v19.426c0 5.417-4.389 9.796-9.796 9.796h-30.702c5.417 0 9.796-4.379 9.796-9.796v-19.426c0-5.417-4.379-9.796-9.796-9.796h30.702c5.407 0 9.796 4.379 9.796 9.796z" fill="#20bfd5"/><path d="m407.732 504.5h-303.463c-5.41 0-9.796-4.386-9.796-9.796v-19.432c0-5.41 4.386-9.796 9.796-9.796h303.463c5.41 0 9.796 4.386 9.796 9.796v19.432c0 5.41-4.386 9.796-9.796 9.796z" fill="#3ad1e0"/><path d="m417.531 475.273v19.426c0 5.417-4.389 9.796-9.796 9.796h-30.702c5.417 0 9.796-4.379 9.796-9.796v-19.426c0-5.408-4.379-9.796-9.796-9.796h30.702c5.407 0 9.796 4.388 9.796 9.796z" fill="#20bfd5"/><g><g fill="#7a8d98"><g><ellipse cx="228.354" cy="189.615" rx="13.815" ry="18.286"/><ellipse cx="283.646" cy="189.615" rx="13.815" ry="18.286"/></g><g><ellipse cx="200.708" cy="263.781" rx="13.815" ry="18.286"/><ellipse cx="256" cy="263.781" rx="13.815" ry="18.286"/><ellipse cx="311.292" cy="263.781" rx="13.815" ry="18.286"/></g><g><ellipse cx="173.062" cy="337.946" rx="13.815" ry="18.286"/><ellipse cx="228.354" cy="337.946" rx="13.815" ry="18.286"/><ellipse cx="283.646" cy="337.946" rx="13.815" ry="18.286"/><ellipse cx="338.939" cy="337.946" rx="13.815" ry="18.286"/></g></g><g><ellipse cx="200.708" cy="412.111" fill="#7a8d98" rx="13.815" ry="18.286"/><ellipse cx="256" cy="412.111" fill="#7a8d98" rx="13.815" ry="18.286"/><g><ellipse cx="311.292" cy="412.111" fill="#7a8d98" rx="13.815" ry="18.286"/><g><path d="m409.174 458.048-18.34-113.907c-.657-4.088-4.503-6.875-8.597-6.212-4.089.658-6.871 4.507-6.212 8.597l17.944 111.449h-275.938l49.795-309.252h25.679c4.142 0 7.5-3.357 7.5-7.5s-3.358-7.5-7.5-7.5h-36.336c-1.266 0-2.296-1.03-2.296-2.297v-19.432c0-1.267 1.03-2.297 2.296-2.297h197.663c1.266 0 2.296 1.03 2.296 2.297v19.432c0 1.267-1.03 2.297-2.296 2.297h-127.666c-4.142 0-7.5 3.357-7.5 7.5s3.358 7.5 7.5 7.5h117.01l26.544 164.853c.593 3.686 3.778 6.309 7.396 6.309.396 0 .798-.031 1.201-.097 4.09-.658 6.871-4.507 6.212-8.597l-26.257-163.067c7.389-1.968 12.856-8.698 12.856-16.698v-19.432c0-9.537-7.759-17.297-17.296-17.297h-1.971v-42.352c0-28.864-23.481-52.345-52.344-52.345h-89.033c-28.75 0-52.23 23.391-52.341 52.141-.016 4.143 3.329 7.514 7.471 7.529h.029c4.128 0 7.483-3.339 7.5-7.471.079-20.511 16.83-37.199 37.341-37.199h89.033c20.592 0 37.345 16.753 37.345 37.345v42.353h-19.287v-42.353c0-9.957-8.101-18.058-18.058-18.058h-89.033c-9.958 0-18.059 8.101-18.059 18.058v42.353h-19.287v-8.868c0-4.143-3.358-7.5-7.5-7.5s-7.5 3.357-7.5 7.5v8.867h-1.969c-9.537 0-17.296 7.76-17.296 17.297v19.432c0 8 5.467 14.729 12.856 16.698l-49.903 309.924c-8.863.737-15.853 8.174-15.853 17.224v19.433c0 9.537 7.759 17.296 17.296 17.296h303.462c9.537 0 17.296-7.759 17.296-17.296v-19.433c0-9.051-6.99-16.487-15.853-17.224zm-200.749-405.703c0-1.686 1.372-3.058 3.059-3.058h89.033c1.686 0 3.058 1.372 3.058 3.058v42.353h-95.149v-42.353zm201.602 442.359c0 1.266-1.03 2.296-2.296 2.296h-303.462c-1.266 0-2.296-1.03-2.296-2.296v-19.433c0-1.267 1.03-2.297 2.296-2.297h303.462c1.266 0 2.296 1.03 2.296 2.297z"/><path d="m228.354 163.829c-11.952 0-21.314 11.326-21.314 25.786s9.362 25.787 21.314 25.787 21.315-11.327 21.315-25.787-9.363-25.786-21.315-25.786zm0 36.573c-2.981 0-6.314-4.613-6.314-10.787s3.333-10.786 6.314-10.786 6.315 4.612 6.315 10.786-3.334 10.787-6.315 10.787z"/><path d="m283.646 163.829c-11.952 0-21.314 11.326-21.314 25.786s9.362 25.787 21.314 25.787 21.314-11.327 21.314-25.787-9.361-25.786-21.314-25.786zm0 36.573c-2.98 0-6.314-4.613-6.314-10.787s3.334-10.786 6.314-10.786 6.314 4.612 6.314 10.786-3.333 10.787-6.314 10.787z"/><path d="m179.393 263.78c0 14.46 9.363 25.787 21.315 25.787s21.314-11.327 21.314-25.787-9.362-25.786-21.314-25.786-21.315 11.326-21.315 25.786zm27.629 0c0 6.174-3.333 10.787-6.314 10.787s-6.315-4.613-6.315-10.787 3.334-10.786 6.315-10.786 6.314 4.612 6.314 10.786z"/><path d="m234.686 263.78c0 14.46 9.362 25.787 21.314 25.787s21.315-11.327 21.315-25.787-9.363-25.786-21.315-25.786-21.314 11.326-21.314 25.786zm27.629 0c0 6.174-3.334 10.787-6.315 10.787s-6.314-4.613-6.314-10.787 3.333-10.786 6.314-10.786 6.315 4.612 6.315 10.786z"/><path d="m311.292 289.567c11.952 0 21.315-11.327 21.315-25.787s-9.363-25.786-21.315-25.786-21.314 11.326-21.314 25.786 9.362 25.787 21.314 25.787zm0-36.573c2.981 0 6.315 4.612 6.315 10.786s-3.334 10.787-6.315 10.787c-2.98 0-6.314-4.613-6.314-10.787s3.334-10.786 6.314-10.786z"/><path d="m151.747 337.946c0 14.46 9.363 25.786 21.315 25.786s21.314-11.326 21.314-25.786-9.362-25.787-21.314-25.787-21.315 11.327-21.315 25.787zm27.629 0c0 6.174-3.333 10.786-6.314 10.786s-6.315-4.612-6.315-10.786 3.334-10.787 6.315-10.787 6.314 4.613 6.314 10.787z"/><path d="m249.669 337.946c0-14.46-9.363-25.787-21.315-25.787s-21.314 11.327-21.314 25.787 9.362 25.786 21.314 25.786 21.315-11.326 21.315-25.786zm-27.629 0c0-6.174 3.333-10.787 6.314-10.787s6.315 4.613 6.315 10.787-3.334 10.786-6.315 10.786-6.314-4.612-6.314-10.786z"/><path d="m304.961 337.946c0-14.46-9.362-25.787-21.314-25.787s-21.314 11.327-21.314 25.787 9.362 25.786 21.314 25.786 21.314-11.326 21.314-25.786zm-27.629 0c0-6.174 3.334-10.787 6.314-10.787s6.314 4.613 6.314 10.787-3.334 10.786-6.314 10.786-6.314-4.612-6.314-10.786z"/><path d="m360.253 337.946c0-14.46-9.362-25.787-21.314-25.787s-21.314 11.327-21.314 25.787 9.362 25.786 21.314 25.786 21.314-11.326 21.314-25.786zm-27.629 0c0-6.174 3.334-10.787 6.314-10.787s6.314 4.613 6.314 10.787-3.334 10.786-6.314 10.786-6.314-4.612-6.314-10.786z"/><path d="m200.708 437.897c11.952 0 21.314-11.326 21.314-25.786s-9.362-25.786-21.314-25.786-21.315 11.326-21.315 25.786 9.363 25.786 21.315 25.786zm0-36.572c2.981 0 6.314 4.612 6.314 10.786s-3.333 10.786-6.314 10.786-6.315-4.612-6.315-10.786 3.334-10.786 6.315-10.786z"/><path d="m256 437.897c11.952 0 21.315-11.326 21.315-25.786s-9.363-25.786-21.315-25.786-21.314 11.326-21.314 25.786 9.362 25.786 21.314 25.786zm0-36.572c2.981 0 6.315 4.612 6.315 10.786s-3.334 10.786-6.315 10.786-6.314-4.612-6.314-10.786 3.333-10.786 6.314-10.786z"/><path d="m311.292 437.897c11.952 0 21.315-11.326 21.315-25.786s-9.363-25.786-21.315-25.786-21.314 11.326-21.314 25.786 9.362 25.786 21.314 25.786zm0-36.572c2.981 0 6.315 4.612 6.315 10.786s-3.334 10.786-6.315 10.786c-2.98 0-6.314-4.612-6.314-10.786s3.334-10.786 6.314-10.786z"/></g></g></g></g></g></svg>