<svg id="Capa_1" enable-background="new 0 0 512 512" viewBox="0 0 512 512" xmlns="http://www.w3.org/2000/svg"><g><g><g><g><g><path d="m197 38.677h-32.741v-21.242c0-5.487 4.448-9.935 9.935-9.935h12.872c5.487 0 9.935 4.448 9.935 9.935v21.242z" fill="#f82f40"/></g><g><path d="m273.663 38.677h-52.313v-21.242c0-5.487 4.448-9.935 9.935-9.935h32.443c5.487 0 9.935 4.448 9.935 9.935z" fill="#b7c4ce"/><path d="m273.66 17.43v21.25h-24.35v-21.25c0-5.48-4.45-9.93-9.93-9.93h24.35c5.49 0 9.93 4.45 9.93 9.93z" fill="#a0acb9"/></g><path d="m376.49 31.59h-223.28c-33.57 0-60.77 27.21-60.77 60.78v8.1l43.25 23.44-43.25 44.26v56.7c0 10.81 8.76 19.57 19.57 19.57h305.68c10.81 0 19.57-8.76 19.57-19.57v-132.5c0-33.57-27.2-60.78-60.77-60.78zm.12 74.83h-89.56c-11.43 0-20.7-9.27-20.7-20.7 0-11.44 9.27-20.7 20.7-20.7h89.56c11.43 0 20.7 9.26 20.7 20.7 0 11.43-9.27 20.7-20.7 20.7z" fill="#f4f6f7"/><path d="m437.264 92.363v132.508c0 10.813-8.758 19.571-19.571 19.571h-39.143c10.813 0 19.571-8.758 19.571-19.571v-132.508c0-33.555-27.204-60.769-60.769-60.769h39.143c33.565 0 60.769 27.214 60.769 60.769z" fill="#d9e7eb"/><path d="m200.45 244.443h-88.443c-10.809 0-19.571-8.762-19.571-19.571v-132.505c0-33.564 27.209-60.773 60.773-60.773h6.041c33.564 0 60.773 27.209 60.773 60.773v132.504c-.002 10.809-8.764 19.572-19.573 19.572z" fill="#7a8d98"/><path d="m220.021 92.363v132.508c0 10.813-8.758 19.571-19.571 19.571h-39.143c10.813 0 19.571-8.758 19.571-19.571v-132.508c0-27.821-18.701-51.277-44.222-58.479 5.265-1.497 10.813-2.29 16.548-2.29h6.048c33.565 0 60.769 27.214 60.769 60.769z" fill="#596d76"/><g><g><path d="m129.009 381.744h-27.053v-13.527c0-7.471 6.056-13.527 13.527-13.527 7.471 0 13.527 6.056 13.527 13.527v13.527z" fill="#a0acb9"/></g><g><g><path d="m210.502 381.744h-27.053v-13.527c0-7.471 6.056-13.527 13.527-13.527 7.471 0 13.527 6.056 13.527 13.527v13.527z" fill="#a0acb9"/></g></g></g></g></g></g><g><path d="m437.265 175.842c-4.143 0-7.5 3.358-7.5 7.5v41.529c0 6.656-5.415 12.072-12.071 12.072h-63.191c-4.143 0-7.5 3.358-7.5 7.5s3.357 7.5 7.5 7.5h63.191c14.927 0 27.071-12.145 27.071-27.072v-41.529c0-4.142-3.358-7.5-7.5-7.5z"/><path d="m376.492 24.095h-95.329v-6.66c0-9.614-7.821-17.435-17.434-17.435h-32.443c-9.613 0-17.435 7.821-17.435 17.435v6.66h-9.351v-6.66c0-9.614-7.821-17.435-17.436-17.435h-12.871c-9.613 0-17.435 7.821-17.435 17.435v6.66h-3.551c-37.646 0-68.272 30.627-68.272 68.272v23.399c0 4.142 3.357 7.5 7.5 7.5s7.5-3.358 7.5-7.5v-23.399c0-29.375 23.897-53.272 53.272-53.272h6.041c29.375 0 53.272 23.898 53.272 53.272v132.504c0 6.656-5.415 12.072-12.071 12.072h-88.443c-6.656 0-12.071-5.416-12.071-12.072v-76.927c0-4.142-3.357-7.5-7.5-7.5s-7.5 3.358-7.5 7.5v76.927c0 13.56 10.022 24.821 23.047 26.771v96.955c-7.897 3.029-13.527 10.67-13.527 19.62v6.271c-15.318 1.892-27.22 14.978-27.22 30.8v75.668c0 17.118 13.927 31.044 31.044 31.044h34.405c9.409 0 17.846-4.213 23.544-10.844 5.698 6.632 14.135 10.844 23.544 10.844h34.405c17.117 0 31.044-13.926 31.044-31.044v-75.668c0-15.822-11.901-28.908-27.22-30.8v-6.271c0-8.95-5.631-16.591-13.527-19.62v-96.654h117.851c4.143 0 7.5-3.358 7.5-7.5s-3.357-7.5-7.5-7.5h-97.655c1.82-3.637 2.851-7.735 2.851-12.072v-132.504c0-21.529-10.027-40.75-25.645-53.272h174.616c29.374 0 53.272 23.898 53.272 53.272v58.797c0 4.142 3.357 7.5 7.5 7.5s7.5-3.358 7.5-7.5v-58.797c.001-37.645-30.626-68.272-68.272-68.272zm-187.017 227.848v96.654c-7.896 3.03-13.526 10.67-13.526 19.62v6.271c-7.855.97-14.807 4.882-19.72 10.6-4.913-5.718-11.865-9.63-19.72-10.6v-6.271c0-8.95-5.63-16.59-13.526-19.62v-96.654zm13.527 116.274v6.027h-12.054v-6.027c0-3.323 2.703-6.027 6.026-6.027s6.028 2.704 6.028 6.027zm-12.054 122.756v-95.703c0-3.323 2.703-6.026 6.026-6.026s6.027 2.704 6.027 6.026v95.703c0 3.323-2.704 6.027-6.027 6.027s-6.026-2.704-6.026-6.027zm-81.493-122.756c0-3.323 2.704-6.027 6.027-6.027s6.026 2.704 6.026 6.027v6.027h-12.054v-6.027zm0 122.756v-95.703c0-3.323 2.704-6.026 6.027-6.026s6.026 2.704 6.026 6.026v95.703c0 3.323-2.703 6.027-6.026 6.027s-6.027-2.704-6.027-6.027zm-27.22-10.017v-75.668c0-7.817 5.623-14.337 13.035-15.751-.519 1.826-.815 3.744-.815 5.734v95.703c0 1.99.296 3.908.815 5.734-7.412-1.414-13.035-7.935-13.035-15.752zm53.459 15.751c.519-1.826.815-3.744.815-5.734v-95.703c0-1.99-.296-3.908-.815-5.734 7.412 1.414 13.035 7.934 13.035 15.751v75.668c0 7.818-5.624 14.339-13.035 15.752zm28.035-15.751v-75.668c0-7.817 5.623-14.337 13.035-15.751-.519 1.826-.815 3.744-.815 5.734v95.703c0 1.99.296 3.908.815 5.734-7.412-1.414-13.035-7.935-13.035-15.752zm66.493-75.668v75.668c0 7.817-5.623 14.338-13.035 15.751.519-1.826.815-3.744.815-5.734v-95.703c0-1.99-.296-3.908-.815-5.734 7.412 1.414 13.035 7.934 13.035 15.752zm-1.371-387.853c0-1.342 1.092-2.435 2.435-2.435h32.443c1.343 0 2.435 1.092 2.435 2.435v6.66h-37.312v-6.66zm-54.658-2.435h12.871c1.343 0 2.436 1.092 2.436 2.435v6.66h-17.741v-6.66c0-1.343 1.092-2.435 2.434-2.435z"/><path d="m404.809 85.716c0-15.55-12.651-28.201-28.201-28.201h-89.559c-15.55 0-28.201 12.651-28.201 28.201s12.651 28.201 28.201 28.201h89.559c15.549 0 28.201-12.65 28.201-28.201zm-130.961 0c0-7.279 5.922-13.201 13.201-13.201h89.559c7.279 0 13.201 5.922 13.201 13.201s-5.922 13.201-13.201 13.201h-89.559c-7.279 0-13.201-5.921-13.201-13.201z"/><path d="m123.286 216.458h12.458c4.143 0 7.5-3.358 7.5-7.5s-3.357-7.5-7.5-7.5h-12.458c-4.143 0-7.5 3.358-7.5 7.5s3.358 7.5 7.5 7.5z"/><path d="m123.286 190.582h12.458c4.143 0 7.5-3.358 7.5-7.5s-3.357-7.5-7.5-7.5h-12.458c-4.143 0-7.5 3.358-7.5 7.5s3.358 7.5 7.5 7.5z"/><path d="m123.286 164.705h12.458c4.143 0 7.5-3.358 7.5-7.5s-3.357-7.5-7.5-7.5h-12.458c-4.143 0-7.5 3.358-7.5 7.5s3.358 7.5 7.5 7.5z"/><path d="m176.713 216.458h12.458c4.143 0 7.5-3.358 7.5-7.5s-3.357-7.5-7.5-7.5h-12.458c-4.143 0-7.5 3.358-7.5 7.5s3.357 7.5 7.5 7.5z"/><path d="m176.713 190.582h12.458c4.143 0 7.5-3.358 7.5-7.5s-3.357-7.5-7.5-7.5h-12.458c-4.143 0-7.5 3.358-7.5 7.5s3.357 7.5 7.5 7.5z"/><path d="m176.713 164.705h12.458c4.143 0 7.5-3.358 7.5-7.5s-3.357-7.5-7.5-7.5h-12.458c-4.143 0-7.5 3.358-7.5 7.5s3.357 7.5 7.5 7.5z"/><path d="m269.29 170.596c-12.645 0-22.932 10.287-22.932 22.931 0 12.645 10.287 22.932 22.932 22.932s22.932-10.287 22.932-22.932c0-12.644-10.287-22.931-22.932-22.931zm0 30.862c-4.373 0-7.932-3.558-7.932-7.932 0-4.373 3.559-7.931 7.932-7.931s7.932 3.558 7.932 7.931c0 4.374-3.559 7.932-7.932 7.932z"/></g></g><g/><g/><g/><g/><g/><g/><g/><g/><g/><g/><g/><g/><g/><g/><g/></svg>