<svg id="Capa_1" enable-background="new 0 0 512 512" viewBox="0 0 512 512" xmlns="http://www.w3.org/2000/svg"><g><g><g><g><g><g><g><path d="m194.273 23.184h66.406v124.2h-66.406z" fill="#f4f6f7"/></g><g><path d="m260.68 23.18v124.2h-33.2v-71.37c0-5.523-4.477-10-10-10h-23.21v-42.83z" fill="#d9e7eb"/></g></g><g><g><g><g><path d="m480.38 177.49v312.59c0 7.96-6.45 14.42-14.42 14.42h-343.02c-7.96 0-14.42-6.46-14.42-14.42v-312.59c0-7.97 6.46-14.42 14.42-14.42h228.17l29.14 38.75 29.38-38.75h56.33c7.97 0 14.42 6.45 14.42 14.42z" fill="#ffbc8a"/><path d="m440.38 177.49v312.59c0 7.96-6.45 14.42-14.42 14.42h-281.02l102.78-341.43h103.39l29.14 38.75 29.38-38.75h16.33c7.97 0 14.42 6.45 14.42 14.42z" fill="#f5a871"/><path d="m108.523 359.155v130.925c0 7.964 6.456 14.42 14.42 14.42h343.021c7.964 0 14.42-6.456 14.42-14.42v-159.764h-343.022c-15.928 0-28.839 12.911-28.839 28.839z" fill="#596d76"/><path d="m440.383 490.08v-159.764h-243.01l-52.435 174.184h281.025c7.964 0 14.42-6.456 14.42-14.42z" fill="#475a61"/><g><g><path d="m31.617 388.209v101.871c0 7.964 6.456 14.42 14.42 14.42h419.926c7.964 0 14.42-6.456 14.42-14.42v-111.485h-439.152c-5.31 0-9.614 4.304-9.614 9.614z" fill="#f4f6f7"/></g><path d="m440.383 490.08v-111.485h-257.544l-37.901 125.905h281.025c7.964 0 14.42-6.456 14.42-14.42z" fill="#d9e7eb"/></g><path d="m287.718 163.068-102.78 341.432h281.025c7.964 0 14.42-6.456 14.42-14.42v-312.592c0-7.964-6.456-14.42-14.42-14.42z" fill="#7a8d98"/><path d="m480.38 177.49v312.59c0 7.96-6.45 14.42-14.42 14.42h-40c7.97 0 14.42-6.46 14.42-14.42v-312.59c0-7.97-6.45-14.42-14.42-14.42h40c7.97 0 14.42 6.45 14.42 14.42z" fill="#596d76"/></g><path d="m53.209 287.922h55.313v27.578h-55.313z" fill="#475a61"/><path d="m76.059 338.447h-23.721c-2.655 0-4.807-2.152-4.807-4.807v-49.708c0-2.655 2.152-4.807 4.807-4.807h23.721c2.655 0 4.807 2.152 4.807 4.807v49.708c0 2.655-2.152 4.807-4.807 4.807z" fill="#f4f6f7"/></g><path d="m277.983 163.068h-152.781v-14.065c0-9.557 7.747-17.304 17.304-17.304h118.174c9.557 0 17.304 7.747 17.304 17.304v14.065z" fill="#7a8d98"/><path d="m277.98 149v14.07h-32.89v-14.07c0-9.55-7.75-17.3-17.31-17.3h32.9c9.56 0 17.3 7.75 17.3 17.3z" fill="#596d76"/><path d="m130.008 7.5h143.168c2.655 0 4.807 2.152 4.807 4.807v9.258c0 9.557-7.747 17.304-17.304 17.304h-118.174c-9.557 0-17.304-7.747-17.304-17.304v-9.258c.001-2.655 2.153-4.807 4.807-4.807z" fill="#7a8d98"/><path d="m277.98 12.31v9.25c0 9.56-7.74 17.31-17.3 17.31h-32.9c9.56 0 17.31-7.75 17.31-17.31v-9.25c0-2.66-2.16-4.81-4.81-4.81h32.9c2.65 0 4.8 2.15 4.8 4.81z" fill="#596d76"/></g></g></g><g><g><circle cx="384.937" cy="412.279" fill="#68dbf9" r="52.277"/><path d="m437.21 412.28c0 28.87-23.4 52.28-52.27 52.28-5.14 0-10.1-.74-14.79-2.12 21.67-6.38 37.49-26.43 37.49-50.16s-15.82-43.78-37.49-50.16c4.69-1.38 9.65-2.12 14.79-2.12 28.87 0 52.27 23.41 52.27 52.28z" fill="#21c1f8"/></g><g><circle cx="384.937" cy="412.279" fill="#596d76" r="22.699"/><path d="m407.637 412.279c0 12.54-10.16 22.7-22.7 22.7-4.14 0-8.01-1.11-11.35-3.05 6.79-3.91 11.35-11.25 11.35-19.65s-4.56-15.74-11.35-19.65c3.34-1.94 7.21-3.05 11.35-3.05 12.54 0 22.7 10.16 22.7 22.7z" fill="#475a61"/></g></g></g></g></g><g><path d="m465.963 155.568h-73c-4.143 0-7.5 3.358-7.5 7.5s3.357 7.5 7.5 7.5h73c3.815 0 6.92 3.104 6.92 6.919v312.593c0 3.815-3.104 6.92-6.92 6.92h-270.934l98.265-326.432h67.492c4.143 0 7.5-3.358 7.5-7.5s-3.357-7.5-7.5-7.5h-75.302v-6.565c0-11.063-7.282-20.455-17.304-23.641v-80.156c10.022-3.187 17.304-12.579 17.304-23.642v-9.258c-.001-6.785-5.521-12.306-12.307-12.306h-143.169c-6.785 0-12.306 5.521-12.306 12.307v9.258c0 13.677 11.127 24.804 24.803 24.804h44.269v77.831h-44.269c-13.676 0-24.803 11.126-24.803 24.803v7.203c-9.564 2.355-16.68 11.001-16.68 21.282v27.993c0 4.142 3.357 7.5 7.5 7.5s7.5-3.358 7.5-7.5v-27.993c0-3.815 3.104-6.919 6.92-6.919h154.686l-45.83 152.247h-94.436c-7.969 0-15.343 2.585-21.34 6.952v-92.11c0-4.142-3.357-7.5-7.5-7.5s-7.5 3.358-7.5 7.5v42.765h-13.172c-1.515-5.08-6.224-8.796-11.79-8.796h-23.721c-6.786 0-12.307 5.521-12.307 12.306v49.708c0 6.786 5.521 12.306 12.307 12.306h23.721c6.786 0 12.307-5.521 12.307-12.306v-10.641h12.656v36.155 11.94h-59.793c-9.437 0-17.113 7.677-17.113 17.113v101.872c0 12.087 9.833 21.92 21.92 21.92h419.926c12.087 0 21.92-9.833 21.92-21.92v-312.592c0-12.087-9.833-21.92-21.92-21.92zm-333.261-134.004v-6.564h137.781v6.564c0 5.406-4.397 9.804-9.804 9.804h-118.174c-5.405 0-9.803-4.398-9.803-9.804zm69.071 24.804h51.406v77.832h-51.406zm-69.071 109.2v-6.565c0-5.406 4.397-9.803 9.803-9.803h118.175c5.406 0 9.804 4.397 9.804 9.803v6.565zm-59.336 175.378h-18.334v-44.32h18.334zm15-22.946v-12.578h12.656v12.578zm-49.249 182.08v-54.944h17.903c3.584 0 6.688 2.552 7.382 6.068l11.013 55.796h-29.378c-3.815 0-6.92-3.104-6.92-6.92zm51.588 6.92-11.586-58.7c-2.078-10.525-11.371-18.164-22.099-18.164h-17.903v-31.928c0-1.166.948-2.113 2.113-2.113h91.274c4.143 0 7.5-3.358 7.5-7.5s-3.357-7.5-7.5-7.5h-16.482v-11.94c0-11.767 9.573-21.34 21.34-21.34h89.92l-10.018 33.28h-52.582c-4.143 0-7.5 3.358-7.5 7.5s3.357 7.5 7.5 7.5h48.066l-33.384 110.905z"/><path d="m384.937 472.056c32.961 0 59.776-26.816 59.776-59.777s-26.815-59.776-59.776-59.776-59.776 26.815-59.776 59.776 26.815 59.777 59.776 59.777zm0-104.554c24.689 0 44.776 20.086 44.776 44.776s-20.087 44.777-44.776 44.777-44.776-20.087-44.776-44.777 20.086-44.776 44.776-44.776z"/><path d="m384.937 442.479c16.652 0 30.2-13.547 30.2-30.2 0-16.652-13.548-30.199-30.2-30.199s-30.199 13.547-30.199 30.199c-.001 16.652 13.546 30.2 30.199 30.2zm0-45.399c8.382 0 15.2 6.818 15.2 15.199s-6.818 15.2-15.2 15.2c-8.381 0-15.199-6.818-15.199-15.2-.001-8.381 6.818-15.199 15.199-15.199z"/><path d="m315.71 202.822h13.004c4.143 0 7.5-3.358 7.5-7.5s-3.357-7.5-7.5-7.5h-13.004c-4.143 0-7.5 3.358-7.5 7.5s3.357 7.5 7.5 7.5z"/><path d="m329.712 221.329c0-4.142-3.357-7.5-7.5-7.5h-13.003c-4.143 0-7.5 3.358-7.5 7.5s3.357 7.5 7.5 7.5h13.003c4.142 0 7.5-3.358 7.5-7.5z"/><path d="m323.21 247.335c0-4.142-3.357-7.5-7.5-7.5h-13.003c-4.143 0-7.5 3.358-7.5 7.5s3.357 7.5 7.5 7.5h13.003c4.143 0 7.5-3.358 7.5-7.5z"/><path d="m309.209 265.842h-13.004c-4.143 0-7.5 3.358-7.5 7.5s3.357 7.5 7.5 7.5h13.004c4.143 0 7.5-3.358 7.5-7.5s-3.357-7.5-7.5-7.5z"/></g></g><g/><g/><g/><g/><g/><g/><g/><g/><g/><g/><g/><g/><g/><g/><g/></svg>