<svg id="Capa_1" enable-background="new 0 0 511.997 511.997" viewBox="0 0 511.997 511.997" xmlns="http://www.w3.org/2000/svg"><g><g><g><g><g><g><path d="m173.973 44.495h31.584v41.353h-31.584z" fill="#596d76"/></g></g><g><g><path d="m306.44 44.495h31.584v41.353h-31.584z" fill="#596d76"/></g></g></g><g><g><g><path d="m374.315 504.497h-237.62c-5.851 0-10.514-4.891-10.235-10.736l19.516-408.853c.261-5.463 4.766-9.758 10.235-9.758h198.589c5.469 0 9.975 4.295 10.235 9.758l19.516 408.853c.278 5.845-4.385 10.736-10.236 10.736z" fill="#7a8d98"/></g><g><path d="m384.549 493.757c.28 5.85-4.38 10.74-10.23 10.74h-40c5.85 0 10.51-4.89 10.23-10.74l-19.51-408.85c-.26-5.46-4.77-9.76-10.24-9.76h40c5.47 0 9.98 4.3 10.24 9.76z" fill="#596d76"/></g></g><g><g><g><circle cx="255.505" cy="287.029" fill="#d9e7eb" r="182.587"/></g><g><path d="m438.092 287.03c0 100.844-81.743 182.587-182.587 182.587-7.514 0-14.928-.455-22.198-1.332 90.378-10.955 160.389-87.925 160.389-181.255s-70.011-170.3-160.389-181.255c7.27-.877 14.684-1.332 22.198-1.332 100.844 0 182.587 81.743 182.587 182.587z" fill="#b7c4ce"/></g></g><g><g><g><path d="m302.783 311.637-14.542 5.752c-1.857.734-3.94.639-5.721-.264l-148.663-75.279c-5.115-2.59-1.934-10.335 3.525-8.583l158.665 50.924c1.901.61 3.45 2.006 4.255 3.833l6.303 14.312c1.595 3.624-.14 7.848-3.822 9.305z" fill="#fb4a59"/></g></g><g><g><g><circle cx="255.505" cy="287.03" fill="#fb4a59" r="20.718"/></g></g></g></g></g></g><g><g><path d="m461.467 44.495h-410.937c-12.069 0-21.852-9.784-21.852-21.852v-10.02c0-2.83 2.294-5.124 5.124-5.124h444.394c2.83 0 5.124 2.294 5.124 5.124v10.019c-.001 12.069-9.784 21.853-21.853 21.853z" fill="#d9e7eb"/></g><g><path d="m483.319 12.621v10.022c0 12.071-9.786 21.857-21.857 21.857h-40.988c12.071 0 21.857-9.786 21.857-21.857v-10.022c0-2.828-2.295-5.124-5.124-5.124h40.988c2.829 0 5.124 2.295 5.124 5.124z" fill="#b7c4ce"/></g></g></g></g><g><path d="m255.731 126.535h-.452c-4.143 0-7.5 3.357-7.5 7.5s3.357 7.5 7.5 7.5h.452c4.143 0 7.5-3.357 7.5-7.5s-3.357-7.5-7.5-7.5z"/><path d="m255.279 447.524h.452c4.143 0 7.5-3.357 7.5-7.5s-3.357-7.5-7.5-7.5h-.452c-4.143 0-7.5 3.357-7.5 7.5s3.357 7.5 7.5 7.5z"/><path d="m215.683 146.809c.643 0 1.296-.083 1.945-.258l.438-.117c4.001-1.071 6.376-5.184 5.304-9.185-1.071-4.002-5.189-6.378-9.185-5.304l-.438.117c-4.001 1.071-6.376 5.184-5.304 9.185.898 3.352 3.929 5.562 7.24 5.562z"/><path d="m293.376 427.51-.437.117c-4.001 1.073-6.373 5.188-5.299 9.188.898 3.35 3.929 5.558 7.238 5.558.644 0 1.298-.084 1.949-.259l.437-.117c4.001-1.073 6.373-5.188 5.299-9.188-1.072-4.001-5.185-6.371-9.187-5.299z"/><path d="m178.819 162.146c1.274 0 2.566-.325 3.749-1.009l.392-.227c3.585-2.074 4.811-6.663 2.736-10.248-2.075-3.584-6.661-4.81-10.248-2.736l-.392.227c-3.585 2.074-4.811 6.663-2.736 10.248 1.39 2.403 3.909 3.745 6.499 3.745z"/><path d="m328.454 412.915-.392.226c-3.589 2.067-4.822 6.653-2.755 10.243 1.389 2.409 3.911 3.757 6.506 3.757 1.271 0 2.558-.322 3.737-1.002l.392-.226c3.589-2.067 4.822-6.653 2.755-10.243-2.07-3.589-6.655-4.822-10.243-2.755z"/><path d="m126.876 203.845c-3.582-2.07-8.173-.849-10.248 2.736l-.227.392c-2.074 3.585-.849 8.174 2.736 10.248 1.183.684 2.474 1.009 3.749 1.009 2.589 0 5.108-1.343 6.499-3.745l.227-.392c2.075-3.585.849-8.174-2.736-10.248z"/><path d="m391.872 356.839c-3.583-2.07-8.172-.85-10.248 2.736l-.227.392c-2.074 3.585-.849 8.174 2.736 10.248 1.183.684 2.474 1.009 3.749 1.009 2.589 0 5.108-1.343 6.499-3.745l.227-.392c2.074-3.585.849-8.174-2.736-10.248z"/><path d="m109.722 239.969c-4.002-1.075-8.113 1.302-9.185 5.304l-.117.438c-1.072 4.001 1.303 8.113 5.304 9.185.65.175 1.303.258 1.945.258 3.312 0 6.342-2.21 7.239-5.562l.117-.438c1.073-4.002-1.302-8.114-5.303-9.185z"/><path d="m401.284 334.089c.651.175 1.306.259 1.949.259 3.31 0 6.34-2.208 7.238-5.558l.117-.437c1.074-4-1.298-8.114-5.299-9.188-4.002-1.074-8.114 1.298-9.188 5.299l-.117.437c-1.073 4 1.299 8.115 5.3 9.188z"/><path d="m95.01 286.804v.452c0 4.143 3.357 7.5 7.5 7.5s7.5-3.357 7.5-7.5v-.452c0-4.143-3.357-7.5-7.5-7.5s-7.5 3.357-7.5 7.5z"/><path d="m401 286.804v.452c0 4.143 3.357 7.5 7.5 7.5s7.5-3.357 7.5-7.5v-.452c0-4.143-3.357-7.5-7.5-7.5s-7.5 3.357-7.5 7.5z"/><path d="m114.908 324.465c-1.073-4.001-5.187-6.373-9.188-5.299-4.001 1.073-6.373 5.188-5.299 9.188l.117.437c.898 3.35 3.929 5.558 7.238 5.558.644 0 1.298-.084 1.949-.259 4.001-1.073 6.373-5.188 5.299-9.188z"/><path d="m410.472 245.272c-1.071-4.002-5.187-6.379-9.185-5.304-4.001 1.071-6.376 5.184-5.304 9.185l.117.438c.897 3.352 3.928 5.562 7.239 5.562.643 0 1.296-.083 1.945-.258 4.001-1.071 6.376-5.184 5.304-9.185z"/><path d="m116.402 367.087.227.392c1.391 2.402 3.909 3.745 6.499 3.745 1.274 0 2.566-.325 3.749-1.009 3.585-2.074 4.811-6.663 2.736-10.248l-.227-.392c-2.074-3.584-6.662-4.809-10.248-2.736-3.585 2.074-4.81 6.663-2.736 10.248z"/><path d="m394.608 206.973-.227-.392c-2.075-3.584-6.662-4.81-10.248-2.736-3.585 2.074-4.811 6.663-2.736 10.248l.227.392c1.391 2.402 3.909 3.745 6.499 3.745 1.274 0 2.566-.325 3.749-1.009 3.585-2.075 4.81-6.663 2.736-10.248z"/><path d="m141.858 389.75c-2.929 2.93-2.929 7.678 0 10.607l.319.319c1.465 1.464 3.385 2.196 5.304 2.196s3.839-.732 5.304-2.196c2.929-2.93 2.929-7.678 0-10.607l-.319-.319c-2.93-2.928-7.678-2.928-10.608 0z"/><path d="m369.152 173.702-.319-.319c-2.93-2.928-7.678-2.928-10.607 0-2.929 2.93-2.929 7.678 0 10.607l.319.319c1.465 1.464 3.385 2.196 5.304 2.196s3.839-.732 5.304-2.196c2.928-2.929 2.928-7.677-.001-10.607z"/><path d="m175.068 425.913.392.226c1.18.68 2.467 1.002 3.737 1.002 2.594 0 5.117-1.348 6.506-3.757 2.067-3.59.834-8.176-2.755-10.243l-.392-.226c-3.588-2.066-8.174-.834-10.243 2.755-2.067 3.59-.834 8.176 2.755 10.243z"/><path d="m335.954 148.153-.392-.227c-3.583-2.07-8.172-.849-10.248 2.736-2.074 3.585-.849 8.174 2.736 10.248l.392.227c1.183.684 2.474 1.009 3.749 1.009 2.589 0 5.108-1.343 6.499-3.745 2.074-3.585.849-8.173-2.736-10.248z"/><path d="m217.628 427.509c-4.003-1.075-8.112 1.302-9.185 5.304-1.072 4.001 1.303 8.113 5.304 9.185l.438.117c.65.175 1.303.258 1.945.258 3.312 0 6.342-2.21 7.239-5.562 1.072-4.001-1.303-8.113-5.304-9.185z"/><path d="m293.376 146.55c.651.175 1.306.259 1.949.259 3.31 0 6.34-2.208 7.238-5.558 1.074-4-1.298-8.114-5.299-9.188l-.437-.117c-4-1.072-8.114 1.298-9.188 5.299-1.074 4 1.298 8.114 5.299 9.188z"/><path d="m147.162 186.506c1.919 0 3.839-.732 5.304-2.196l.319-.319c2.929-2.93 2.929-7.678 0-10.607-2.93-2.928-7.678-2.928-10.607 0l-.319.319c-2.929 2.93-2.929 7.678 0 10.607 1.464 1.463 3.384 2.196 5.303 2.196z"/><path d="m358.544 389.75-.319.319c-2.929 2.93-2.929 7.678 0 10.607 1.465 1.464 3.385 2.196 5.304 2.196s3.839-.732 5.304-2.196l.319-.319c2.929-2.93 2.929-7.678 0-10.607-2.93-2.928-7.678-2.928-10.608 0z"/><path d="m255.695 151.363h-.38c-4.143 0-7.5 3.357-7.5 7.5s3.357 7.5 7.5 7.5h.38c4.143 0 7.5-3.357 7.5-7.5s-3.358-7.5-7.5-7.5z"/><path d="m255.315 422.696h.38c4.143 0 7.5-3.357 7.5-7.5s-3.357-7.5-7.5-7.5h-.38c-4.143 0-7.5 3.357-7.5 7.5s3.357 7.5 7.5 7.5z"/><path d="m119.838 286.84v.379c0 4.143 3.357 7.5 7.5 7.5s7.5-3.357 7.5-7.5v-.379c0-4.143-3.357-7.5-7.5-7.5s-7.5 3.357-7.5 7.5z"/><path d="m376.171 286.84v.379c0 4.143 3.357 7.5 7.5 7.5s7.5-3.357 7.5-7.5v-.379c0-4.143-3.357-7.5-7.5-7.5s-7.5 3.357-7.5 7.5z"/><path d="m170.315 372.487-.268-.268c-2.93-2.928-7.678-2.928-10.607 0-2.929 2.93-2.929 7.678 0 10.607l.268.268c1.465 1.464 3.385 2.196 5.304 2.196s3.839-.732 5.304-2.196c2.928-2.929 2.928-7.677-.001-10.607z"/><path d="m340.695 201.572.268.268c1.465 1.464 3.385 2.196 5.304 2.196s3.839-.732 5.304-2.196c2.929-2.93 2.929-7.678 0-10.607l-.268-.268c-2.93-2.928-7.678-2.928-10.607 0-2.93 2.93-2.93 7.678-.001 10.607z"/><path d="m159.708 190.965-.268.268c-2.929 2.93-2.929 7.678 0 10.607 1.465 1.464 3.385 2.196 5.304 2.196s3.839-.732 5.304-2.196l.268-.268c2.929-2.93 2.929-7.678 0-10.607-2.931-2.928-7.679-2.928-10.608 0z"/><path d="m345.999 385.291c1.919 0 3.839-.732 5.304-2.196l.268-.268c2.929-2.93 2.929-7.678 0-10.607-2.93-2.928-7.678-2.928-10.607 0l-.268.268c-2.929 2.93-2.929 7.678 0 10.607 1.464 1.464 3.384 2.196 5.303 2.196z"/><path d="m124.716 233.07c-2.477 6.023-.055 12.529 5.754 15.467l19.895 10.076c-2.488 9.229-3.752 18.766-3.752 28.417 0 60.044 48.849 108.893 108.892 108.893 60.044 0 108.893-48.849 108.893-108.893 0-60.043-48.849-108.892-108.893-108.892-39.414 0-75.124 20.871-94.526 54.825l-21.299-6.835c-6.195-1.994-12.489.923-14.964 6.942zm62.67 44.291 42.541 21.544c2.887 6.224 8.027 11.421 14.859 14.227 3.497 1.437 7.117 2.116 10.683 2.116 1.894 0 3.769-.207 5.603-.579l18.062 9.149c2.055 1.04 4.301 1.562 6.546 1.562 1.808 0 3.614-.339 5.317-1.021l14.542-5.751c3.692-1.461 6.558-4.286 8.068-7.955 1.512-3.671 1.466-7.697-.136-11.354l-6.307-14.303c-1.666-3.789-4.883-6.688-8.826-7.952l-19.854-6.367c-2.984-4.208-7.146-7.651-12.26-9.752h-.001c-6.588-2.706-13.62-2.72-19.877-.567l-45.807-14.7c12.909-17.095 33.286-27.431 54.965-27.431 37.938 0 68.802 30.864 68.802 68.801 0 37.938-30.864 68.802-68.802 68.802-37.937 0-68.801-30.864-68.801-68.802.001-3.244.235-6.474.683-9.667zm106.144 13.895 5.998 13.602-13.834 5.471-9.079-4.599c2.046-2.305 3.757-4.972 4.993-7.98 1.297-3.157 1.976-6.417 2.096-9.645zm-25.797.795c-2.77 6.744-10.51 9.973-17.249 7.207-6.743-2.77-9.976-10.507-7.207-17.249 2.097-5.104 7.041-8.197 12.245-8.197 1.67 0 3.366.318 5.005.99 6.741 2.769 9.974 10.508 7.206 17.249zm-35.782-20.557c-.985 1.494-1.844 3.1-2.549 4.817-.645 1.57-1.128 3.165-1.475 4.769l-58.632-29.693zm23.553-78.356c51.772 0 93.893 42.119 93.893 93.892s-42.12 93.893-93.893 93.893-93.892-42.12-93.892-93.893c0-7.273.83-14.467 2.468-21.471l9.31 4.715c-1.115 5.492-1.688 11.109-1.688 16.755 0 46.208 37.593 83.802 83.801 83.802s83.802-37.594 83.802-83.802-37.594-83.801-83.802-83.801c-28.147 0-54.491 14.299-69.933 37.627l-9.944-3.191c17.056-27.651 46.97-44.526 79.878-44.526z"/><path d="m478.196 0h-444.395c-6.96 0-12.623 5.663-12.623 12.623v10.02c0 16.185 13.167 29.353 29.352 29.353h115.943v15.654h-10.263c-9.488 0-17.274 7.424-17.727 16.901l-2.613 54.742c-19.321 15.651-35.715 35.189-47.918 57.903-1.96 3.649-.591 8.196 3.058 10.157 3.65 1.959 8.195.592 10.157-3.058 30.604-56.967 89.741-92.354 154.337-92.354 96.543 0 175.087 78.544 175.087 175.087s-78.544 175.087-175.087 175.087-175.086-78.543-175.086-175.086c0-18.627 2.92-36.984 8.68-54.562 1.29-3.936-.855-8.173-4.792-9.462-3.939-1.288-8.173.856-9.462 4.792-6.255 19.088-9.426 39.017-9.426 59.232 0 53.006 21.817 101.005 56.932 135.515l-3.382 70.859c-.23 4.825 1.549 9.597 4.881 13.093 3.333 3.496 8.016 5.501 12.846 5.501h149.922c4.143 0 7.5-3.357 7.5-7.5s-3.357-7.5-7.5-7.5h-149.922c-1.024 0-1.686-.533-1.988-.852-.304-.317-.805-1.004-.756-2.026l2.805-58.776c32.558 26.121 73.857 41.773 118.749 41.773s86.191-15.653 118.749-41.773l2.806 58.777c.049 1.021-.452 1.708-.756 2.025-.303.318-.964.852-1.988.852h-55.521c-4.143 0-7.5 3.357-7.5 7.5s3.357 7.5 7.5 7.5h55.521c4.83 0 9.513-2.005 12.846-5.501 3.332-3.496 5.111-8.268 4.881-13.092l-3.383-70.86c35.115-34.509 56.932-82.509 56.932-135.515 0-59.512-27.498-112.714-70.446-147.595l-2.62-54.883c-.452-9.478-8.238-16.901-17.727-16.901h-9.275v-15.655h32.839c4.143 0 7.5-3.357 7.5-7.5s-3.357-7.5-7.5-7.5h-327.833c-7.913 0-14.352-6.438-14.352-14.353v-7.642h439.641v7.643c0 7.914-6.438 14.353-14.352 14.353h-50.927c-4.143 0-7.5 3.357-7.5 7.5s3.357 7.5 7.5 7.5h50.928c16.185 0 29.352-13.168 29.352-29.353v-10.02c-.001-6.96-5.664-12.623-12.624-12.623zm-296.723 51.995h16.584v15.655h-16.584zm31.584 15.655v-15.655h85.883v15.655zm144.486 17.617 2.042 42.784c-29.92-19.655-65.685-31.108-104.081-31.108-37.706 0-73.69 11.12-104.075 31.002l2.037-42.677c.07-1.467 1.275-2.616 2.744-2.616h198.589c1.469-.002 2.674 1.148 2.744 2.615zm-27.019-17.617h-16.584v-15.655h16.584z"/></g></g><g/><g/><g/><g/><g/><g/><g/><g/><g/><g/><g/><g/><g/><g/><g/></svg>