<svg id="Capa_1" enable-background="new 0 0 512 512" viewBox="0 0 512 512" xmlns="http://www.w3.org/2000/svg"><g><g><g><path d="m376.583 130.325c-5.929-6.449-15.963-6.869-22.412-.941-1.338 1.23-33.189 30.706-69.431 80.528-31.302 43.03-71.43 109.457-90.934 187.801h-180.241c0 74.838 47.81 106.787 106.787 106.787 56.378 0 102.547-29.2 106.507-97.149h.002s.382-9.672 2.516-17.581c19.323-66.395 53.245-122.924 80.564-160.574 34.27-47.231 65.098-75.901 65.702-76.46 6.448-5.929 6.87-15.963.94-22.411z" fill="#d9e7eb"/><path d="m354.171 129.384c-1.338 1.23-33.189 30.706-69.431 80.528-31.283 43.004-71.38 109.376-90.897 187.658l.037.143s6.761 102.312-145.062 84.807c18.933 15.021 44.017 21.979 71.535 21.979 56.378 0 102.547-29.2 106.507-97.149h.002s.382-9.672 2.516-17.581c19.323-66.395 53.245-122.924 80.564-160.574 34.27-47.231 65.098-75.901 65.702-76.46 6.448-5.929 6.869-15.963.94-22.411-5.929-6.448-15.964-6.868-22.413-.94z" fill="#b7c4ce"/><g><path d="m103.723 374.171c-74.547 0-90.157 23.542-90.157 23.542s15.61 23.542 90.157 23.542 90.157-23.542 90.157-23.542-15.61-23.542-90.157-23.542z" fill="#596d76"/><path d="m193.885 397.71s-15.61 23.54-90.16 23.54c-16.86 0-30.71-1.21-42.04-3.07.87.01 1.76.01 2.65.01 56.24 0 78.94-13.4 86.69-19.98 2.2-1.87 2.2-5.27 0-7.13-5.42-4.6-18.15-12.54-44.54-16.89 72.18.56 87.4 23.52 87.4 23.52z" fill="#475a61"/><g><g><path d="m366.024 154.483-14.036-14.075c-4.098-4.11-4.098-10.773 0-14.883l31.901-31.99 28.878 28.958-31.901 31.99c-4.098 4.109-10.743 4.109-14.842 0z" fill="#7a8d98"/><g><path d="m394.851 141.897-30.36-30.445c-3.608-3.618-3.608-9.484 0-13.102l87.821-88.136c3.608-3.618 9.458-3.618 13.066 0l30.36 30.445c3.608 3.618 3.608 9.484 0 13.102l-87.821 88.136c-3.609 3.618-9.458 3.618-13.066 0z" fill="#ffbc8a"/><path d="m495.738 53.761-87.821 88.136c-3.606 3.616-9.46 3.616-13.066 0l-22.401-22.463c3.606 3.616 9.46 3.616 13.066 0l87.821-88.136c3.606-3.616 3.606-9.486 0-13.102l22.401 22.463c3.606 3.616 3.606 9.485 0 13.102z" fill="#f5a871"/></g></g></g></g></g></g><path d="m501.048 35.362-30.36-30.444c-3.162-3.171-7.369-4.918-11.844-4.918s-8.681 1.747-11.846 4.92l-40.222 40.365c-2.923 2.935-2.915 7.683.019 10.606s7.683 2.915 10.607-.019l40.22-40.363c.419-.421.896-.51 1.222-.51s.802.089 1.222.51l30.36 30.444c.69.692.69 1.818-.002 2.513l-87.819 88.134c-.419.421-.896.51-1.222.51s-.802-.089-1.222-.51l-30.36-30.444c-.69-.692-.69-1.818.002-2.513l24.887-24.977c2.924-2.935 2.916-7.683-.019-10.606-2.935-2.925-7.684-2.916-10.606.019l-24.886 24.975c-4.915 4.929-6.116 12.189-3.614 18.263l-8.888 8.912c-3.058 3.067-4.78 6.973-5.167 10.986-12.677 12.679-36.543 38.142-62.835 74.285-29.517 40.575-68.196 103.777-89.061 178.761-12.265-7.819-37.307-17.59-85.891-17.59-75.817 0-94.313 23.793-96.363 26.831-.833 1.241-1.288 2.717-1.294 4.217.001 37.645 11.362 66.928 33.768 87.034 19.863 17.825 47.706 27.247 80.519 27.247 38.091 0 68.853-12.414 88.96-35.9 2.694-3.146 2.327-7.882-.82-10.575-3.146-2.695-7.881-2.326-10.575.819-21.692 25.338-54.153 30.656-77.565 30.656-29.055 0-53.434-8.096-70.501-23.411-15.953-14.317-25.312-34.505-27.972-60.109 6.674 3.629 16.102 7.426 29.244 10.318 4.045.89 8.046-1.667 8.936-5.714.89-4.046-1.668-8.046-5.713-8.937-15.521-3.414-24.613-8.062-29.559-11.425 8.822-5.975 30.834-16.052 78.935-16.052 48.092 0 70.104 10.073 78.929 16.048-8.792 5.909-30.886 16.036-78.929 16.036-6.535 0-12.878-.188-18.851-.56-4.121-.25-7.694 2.885-7.951 7.02s2.886 7.694 7.02 7.951c6.282.391 12.938.589 19.782.589 76.369 0 94.582-24.145 96.408-26.897.655-.987 1.042-2.092 1.182-3.22 19.436-77.348 59.359-142.891 89.492-184.313 22.78-31.316 43.641-54.371 56.686-67.806l11.832 11.865c-11.93 12.346-33.052 35.536-55.452 66.408-26.12 35.997-61.497 93.478-81.695 162.883-.014.047-.027.095-.04.143-2.161 8.013-2.68 17.249-2.766 19.143-.725 12.376-2.968 23.748-6.668 33.801-1.431 3.887.561 8.198 4.448 9.628.854.314 1.729.464 2.589.464 3.054 0 5.923-1.879 7.04-4.912 4.213-11.448 6.76-24.284 7.569-38.151.002-.044.005-.093.007-.137.003-.088.381-8.901 2.245-15.86 19.6-67.302 54-123.17 79.412-158.191 24.448-33.694 47.278-57.956 57.772-68.552 4.684-.087 9.075-1.942 12.393-5.271l8.882-8.906c1.982.81 4.12 1.238 6.326 1.238 4.475 0 8.681-1.747 11.846-4.92l87.819-88.134c6.513-6.533 6.513-17.162-.002-23.695zm-143.749 95.458 7.957-7.979 18.286 18.336-7.987 8.009c-.762.765-1.649.879-2.11.879-.46 0-1.347-.114-2.11-.879l-14.037-14.075c-1.179-1.183-1.179-3.108.001-4.291z"/></g><g/><g/><g/><g/><g/><g/><g/><g/><g/><g/><g/><g/><g/><g/><g/></svg>