<svg id="Capa_1" enable-background="new 0 0 512 512" viewBox="0 0 512 512" xmlns="http://www.w3.org/2000/svg"><g><g><g><path d="m68.535 215.545h374.929v80.91h-374.929z" fill="#596d76"/><circle cx="256" cy="256" fill="#9ce6fb" r="157.025"/><path d="m413.03 256c0 86.72-70.31 157.03-157.03 157.03-6.78 0-13.45-.43-20-1.26 77.28-9.83 137.03-75.83 137.03-155.77s-59.75-145.94-137.03-155.77c6.55-.83 13.22-1.26 20-1.26 86.72 0 157.03 70.31 157.03 157.03z" fill="#68dbf9"/><g><circle cx="256" cy="256" fill="#7a8d98" r="52.277"/><path d="m308.276 255.996c0 28.87-23.4 52.28-52.27 52.28-5.14 0-10.1-.74-14.79-2.12 21.67-6.38 37.49-26.43 37.49-50.16s-15.82-43.78-37.49-50.16c4.69-1.38 9.65-2.12 14.79-2.12 28.871 0 52.27 23.41 52.27 52.28z" fill="#596d76"/></g><g><circle cx="256" cy="256" fill="#596d76" r="22.699"/><path d="m278.7 256c0 12.54-10.16 22.7-22.7 22.7-4.14 0-8.01-1.11-11.35-3.05 6.79-3.91 11.35-11.25 11.35-19.65s-4.56-15.74-11.35-19.65c3.34-1.94 7.21-3.05 11.35-3.05 12.54 0 22.7 10.16 22.7 22.7z" fill="#475a61"/></g><g><g><path d="m474.5 314.677h-26.913c-5.523 0-10-4.477-10-10v-97.354c0-5.523 4.477-10 10-10h26.913c16.569 0 30 13.431 30 30v57.354c0 16.569-13.432 30-30 30z" fill="#ffbc8a"/><path d="m504.5 227.32v57.36c0 16.57-13.43 30-30 30h-26.91c-.39 0-.78-.02-1.16-.07 15.67-.99 28.07-14.01 28.07-29.93v-57.36c0-15.92-12.4-28.94-28.07-29.93.38-.05.77-.07 1.16-.07h26.91c16.57 0 30 13.43 30 30z" fill="#f5a871"/></g><g><path d="m37.5 314.677h26.913c5.523 0 10-4.477 10-10v-97.354c0-5.523-4.477-10-10-10h-26.913c-16.569 0-30 13.431-30 30v57.354c0 16.569 13.431 30 30 30z" fill="#ffbc8a"/><path d="m74.41 207.32v97.36c0 5.52-4.47 10-10 10h-26.91c-.65 0-1.29-.02-1.93-.07 4.98-.57 8.84-4.8 8.84-9.93v-97.36c0-5.13-3.86-9.36-8.84-9.93.64-.05 1.28-.07 1.93-.07h26.91c5.53 0 10 4.48 10 10z" fill="#f5a871"/></g></g></g></g><g><path d="m106.475 256c0-82.448 67.077-149.525 149.525-149.525 7.807 0 15.672.613 23.378 1.822 4.11.64 7.931-2.155 8.572-6.246.643-4.093-2.154-7.931-6.246-8.572-8.474-1.33-17.122-2.004-25.704-2.004-74.044 0-136.812 49.17-157.389 116.57h-16.698v-.722c0-9.649-7.851-17.5-17.5-17.5h-26.913c-20.678 0-37.5 16.822-37.5 37.5v57.354c0 20.678 16.822 37.5 37.5 37.5h26.913c9.649 0 17.5-7.851 17.5-17.5v-.722h16.692c4.425 14.544 10.858 28.468 19.221 41.379 1.437 2.216 3.844 3.423 6.302 3.423 1.397 0 2.811-.391 4.071-1.206 3.476-2.252 4.469-6.896 2.217-10.373-15.663-24.178-23.941-52.248-23.941-81.178zm-39.562 48.677c0 1.379-1.121 2.5-2.5 2.5h-26.913c-12.406 0-22.5-10.094-22.5-22.5v-57.354c0-12.406 10.094-22.5 22.5-22.5h26.913c1.379 0 2.5 1.121 2.5 2.5zm15-15.722v-65.91h12.879c-2.174 10.651-3.318 21.672-3.318 32.955 0 11.15 1.143 22.179 3.337 32.955z"/><path d="m196.224 256c0 32.961 26.815 59.776 59.776 59.776s59.776-26.815 59.776-59.776-26.815-59.776-59.776-59.776-59.776 26.815-59.776 59.776zm104.552 0c0 24.689-20.087 44.776-44.776 44.776s-44.776-20.087-44.776-44.776 20.087-44.776 44.776-44.776 44.776 20.087 44.776 44.776z"/><path d="m225.801 256c0 16.652 13.547 30.199 30.199 30.199s30.199-13.547 30.199-30.199-13.547-30.199-30.199-30.199-30.199 13.547-30.199 30.199zm45.398 0c0 8.381-6.818 15.199-15.199 15.199s-15.199-6.818-15.199-15.199 6.818-15.199 15.199-15.199 15.199 6.818 15.199 15.199z"/><path d="m474.5 189.822h-26.912c-9.649 0-17.5 7.851-17.5 17.5v.723h-16.657c-5.011-16.479-12.624-32.138-22.7-46.483-19.05-27.124-45.432-47.661-76.294-59.392-3.875-1.47-8.203.475-9.676 4.346-1.472 3.872.475 8.204 4.346 9.676 28.049 10.661 52.029 29.331 69.349 53.991 17.709 25.214 27.069 54.89 27.069 85.817 0 82.448-67.077 149.525-149.525 149.525-40.211 0-77.942-15.741-106.246-44.324-2.915-2.943-7.664-2.967-10.606-.052-2.943 2.914-2.967 7.663-.052 10.606 31.142 31.449 72.659 48.77 116.904 48.77 74.044 0 136.812-49.17 157.389-116.57h16.699v.723c0 9.649 7.851 17.5 17.5 17.5h26.912c20.678 0 37.5-16.822 37.5-37.5v-57.355c0-20.678-16.822-37.501-37.5-37.501zm22.5 94.856c0 12.406-10.094 22.5-22.5 22.5h-26.912c-1.379 0-2.5-1.121-2.5-2.5v-39.081c0-4.143-3.357-7.5-7.5-7.5s-7.5 3.357-7.5 7.5v23.358h-12.88c2.174-10.651 3.318-21.672 3.318-32.955 0-11.176-1.118-22.201-3.301-32.955h12.864v10.375c0 4.143 3.357 7.5 7.5 7.5s7.5-3.357 7.5-7.5v-26.098c0-1.379 1.121-2.5 2.5-2.5h26.911c12.406 0 22.5 10.094 22.5 22.5z"/></g></g><g/><g/><g/><g/><g/><g/><g/><g/><g/><g/><g/><g/><g/><g/><g/></svg>