<svg id="Capa_1" enable-background="new 0 0 511.999 511.999" height="512" viewBox="0 0 511.999 511.999" width="512" xmlns="http://www.w3.org/2000/svg"><g><g><g><g><path d="m442.071 385.155c-2.449 0-4.908-.144-7.366-.436l-87.367-10.401c-10.361-1.234-17.761-10.633-16.528-20.995 1.234-10.361 10.633-17.762 20.995-16.528l87.367 10.401c7.086.843 13.928-1.302 19.264-6.04 5.336-4.739 8.275-11.279 8.275-18.415v-199.674c0-7.275-3.034-13.898-8.543-18.649-5.508-4.752-12.504-6.778-19.702-5.711l-59.128 8.782c-10.317 1.535-19.93-5.592-21.464-15.913-1.533-10.321 5.592-19.931 15.913-21.464l59.128-8.782c17.973-2.67 36.172 2.606 49.932 14.473 13.759 11.867 21.651 29.094 21.651 47.264v199.674c0 17.824-7.644 34.834-20.972 46.67-11.476 10.192-26.266 15.744-41.455 15.744z" fill="#d4f2f6"/></g><g><path d="m442.071 385.155c-2.449 0-4.908-.144-7.366-.436l-87.367-10.401c-10.361-1.234-17.761-10.633-16.528-20.995 1.234-10.361 10.633-17.762 20.995-16.528l87.367 10.401c7.086.843 13.928-1.302 19.264-6.04 5.336-4.739 8.275-11.279 8.275-18.415v-199.674c0-7.275-3.034-13.898-8.543-18.649-5.508-4.752-12.504-6.778-19.702-5.711l-59.128 8.782c-10.317 1.535-19.93-5.592-21.464-15.913-1.533-10.321 5.592-19.931 15.913-21.464l59.128-8.782c17.973-2.67 36.172 2.606 49.932 14.473 13.759 11.867 21.651 29.094 21.651 47.264v199.674c0 17.824-7.644 34.834-20.972 46.67-11.476 10.192-26.266 15.744-41.455 15.744z" fill="#d4f2f6"/></g></g><path d="m320.393 471.245h-250.323c-5.963 0-10.796-4.834-10.796-10.796v-46.023h271.916v46.023c-.001 5.962-4.835 10.796-10.797 10.796z" fill="#fc7c6a"/><path d="m331.189 414.429v46.02c0 5.96-4.83 10.8-10.8 10.8h-35.63c5.97 0 10.8-4.84 10.8-10.8v-46.02z" fill="#fb5652"/><path d="m59.274 414.426h271.916v40.074h-271.916z" fill="#fb5652"/><path d="m341.555 434.268h-292.648c-5.619 0-10.299-4.31-10.76-9.911l-30.611-371.921c-.518-6.291 4.448-11.682 10.76-11.682h353.871c6.312 0 11.278 5.391 10.76 11.682l-30.612 371.922c-.461 5.6-5.14 9.91-10.76 9.91z" fill="#d4f2f6"/><path d="m382.929 52.439-30.61 371.92c-.46 5.6-5.14 9.91-10.76 9.91h-46c5.62 0 10.3-4.31 10.76-9.91l30.61-371.92c.52-6.29-4.45-11.69-10.76-11.69h46c6.31 0 11.28 5.4 10.76 11.69z" fill="#a8e7ef"/><path d="m355.189 389.499-2.87 34.86c-.46 5.6-5.14 9.91-10.76 9.91h-292.65c-5.62 0-10.3-4.31-10.76-9.91l-2.87-34.86z" fill="#fda79b"/><path d="m355.189 389.499-2.87 34.86c-.46 5.6-5.14 9.91-10.76 9.91h-46c5.62 0 10.3-4.31 10.76-9.91l2.87-34.86z" fill="#fc9085"/></g><g><g fill="#fc7c6a"><path d="m93.821 117.898-11.669-11.669c-3.791-3.791-3.791-9.937 0-13.728l11.669-11.669c3.791-3.791 9.937-3.791 13.728 0l11.669 11.669c3.791 3.791 3.791 9.937 0 13.728l-11.669 11.669c-3.791 3.791-9.937 3.791-13.728 0z"/><path d="m282.914 117.898-11.669-11.669c-3.791-3.791-3.791-9.937 0-13.728l11.669-11.669c3.791-3.791 9.937-3.791 13.728 0l11.669 11.669c3.791 3.791 3.791 9.937 0 13.728l-11.669 11.669c-3.791 3.791-9.937 3.791-13.728 0z"/></g><g><path d="m487.746 70.123c-15.414-13.293-35.799-19.203-55.933-16.213l-41.996 6.237.584-7.096c.418-5.081-1.322-10.146-4.776-13.896s-8.359-5.901-13.458-5.901h-92.338c-4.142 0-7.5 3.358-7.5 7.5s3.358 7.5 7.5 7.5h92.338c1.258 0 2.059.666 2.425 1.063s.963 1.25.86 2.503l-3.296 40.044h-24.425c-4.142 0-7.5 3.358-7.5 7.5s3.358 7.5 7.5 7.5h23.19l-22.646 275.134h-213.113c-4.142 0-7.5 3.358-7.5 7.5s3.358 7.5 7.5 7.5h211.879l-2.201 26.743c-.14 1.697-1.583 3.026-3.285 3.026h-292.648c-1.703 0-3.146-1.329-3.285-3.026l-2.201-26.743h58.081c4.142 0 7.5-3.358 7.5-7.5s-3.358-7.5-7.5-7.5h-59.316l-22.645-275.133h23.191c4.142 0 7.5-3.358 7.5-7.5s-3.358-7.5-7.5-7.5h-24.426l-3.296-40.044c-.103-1.253.495-2.106.861-2.503s1.167-1.063 2.424-1.063h227.873c4.142 0 7.5-3.358 7.5-7.5s-3.358-7.5-7.5-7.5h-227.873c-5.098 0-10.003 2.151-13.457 5.901s-5.195 8.814-4.777 13.896l30.612 371.922c.775 9.418 8.785 16.795 18.234 16.795h2.866v18.68c0 10.089 8.208 18.296 18.296 18.296h250.323c10.089 0 18.296-8.208 18.296-18.296v-18.68h2.866c9.45 0 17.459-7.377 18.234-16.795l3.392-41.216 70.637 8.409c2.727.325 5.503.489 8.252.489 17.137 0 33.628-6.264 46.436-17.637 14.929-13.257 23.492-32.312 23.492-52.278v-199.674c.002-20.354-8.838-39.651-24.251-52.944zm-164.057 390.325c0 1.818-1.479 3.296-3.296 3.296h-250.323c-1.818 0-3.296-1.479-3.296-3.296v-18.68h256.916v18.68zm173.31-137.707c0 15.683-6.726 30.649-18.452 41.062-10.06 8.933-23.013 13.853-36.476 13.853-2.159 0-4.339-.129-6.479-.384l-71.179-8.474 1.871-22.726 72.002 8.572c1.317.157 2.627.234 3.926.234 7.821 0 15.235-2.813 21.205-8.114 6.961-6.182 10.794-14.713 10.794-24.023v-37.412c0-4.142-3.358-7.5-7.5-7.5s-7.5 3.358-7.5 7.5v37.412c0 4.963-2.044 9.511-5.755 12.807-3.711 3.295-8.472 4.786-13.397 4.201l-72.544-8.636 17.856-216.939 54.195-8.049c5.006-.743 9.875.668 13.705 3.972 3.832 3.304 5.941 7.91 5.941 12.97v128.603c0 4.142 3.358 7.5 7.5 7.5s7.5-3.358 7.5-7.5v-128.603c0-9.491-3.958-18.131-11.145-24.328-7.183-6.197-16.309-8.843-25.703-7.451l-50.73 7.534 1.92-23.322 45.463-6.752c15.81-2.35 31.824 2.293 43.932 12.735 12.106 10.44 19.049 25.598 19.049 41.584v199.674z"/><path d="m100.685 70.49c-4.596 0-8.917 1.79-12.167 5.04l-11.669 11.669c-6.708 6.708-6.708 17.625 0 24.334l11.669 11.668c3.25 3.25 7.571 5.04 12.167 5.04s8.917-1.79 12.167-5.04l11.669-11.669c6.708-6.708 6.708-17.625 0-24.334l-11.668-11.668c-3.25-3.25-7.572-5.04-12.168-5.04zm13.23 30.436-11.669 11.669c-.534.534-1.143.646-1.56.646s-1.026-.112-1.56-.646l-11.668-11.668c-.861-.861-.861-2.262 0-3.122l11.669-11.669c.534-.534 1.143-.646 1.56-.646s1.026.112 1.561.646l11.668 11.668c.859.861.859 2.262-.001 3.122z"/><path d="m277.61 123.201c3.25 3.25 7.571 5.04 12.167 5.04s8.917-1.79 12.167-5.04l11.668-11.668c3.25-3.25 5.04-7.571 5.04-12.167s-1.79-8.917-5.04-12.167l-11.667-11.669c-3.25-3.25-7.571-5.04-12.167-5.04s-8.917 1.79-12.167 5.04l-11.668 11.668c-3.25 3.25-5.04 7.571-5.04 12.167s1.79 8.917 5.04 12.167zm-1.062-25.397 11.668-11.668c.43-.43.996-.646 1.561-.646s1.131.215 1.561.646l11.668 11.668c.534.535.646 1.144.646 1.561s-.112 1.026-.646 1.561l-11.668 11.668c-.535.534-1.144.646-1.561.646s-1.026-.112-1.561-.646l-11.668-11.668c-.86-.861-.86-2.261 0-3.122z"/><path d="m162.232 91.865c-4.142 0-7.5 3.358-7.5 7.5s3.358 7.5 7.5 7.5h66c4.142 0 7.5-3.358 7.5-7.5s-3.358-7.5-7.5-7.5z"/></g></g></g></svg>