<svg id="Capa_1" enable-background="new 0 0 512.051 512.051" height="512" viewBox="0 0 512.051 512.051" width="512" xmlns="http://www.w3.org/2000/svg"><g><g><path d="m395.508 199.834-187.54-187.54c-3.459-3.459-7.751-4.906-11.912-4.75l-65.961-.016 77.873 402.702 187.54-187.54c6.311-6.312 6.311-16.544 0-22.856z" fill="#fc7c6a"/><path d="m395.506 222.685-187.536 187.548-6.4-33.072 154.477-154.476c6.31-6.309 6.31-16.536 0-22.845l-187.537-187.549c-3.262-3.251-7.246-4.729-11.186-4.763l38.726.012c4.165-.147 8.454 1.298 11.919 4.752l187.537 187.548c6.31 6.309 6.31 16.535 0 22.845z" fill="#fc6d5a"/><path d="m374.22 269.966-228.748 228.739c-12.42 12.42-33.65 3.63-33.65-13.94v-457.487c0-17.56 21.23-26.36 33.65-13.94l228.748 228.749c7.69 7.7 7.69 20.18 0 27.879z" fill="#3ad1e0"/><path d="m296.191 269.966-184.369 184.369v-396.627l184.369 184.379c7.7 7.7 7.7 20.18 0 27.879z" fill="#fddaa9"/><path d="m374.219 269.967-228.746 228.746c-12.416 12.416-33.647 3.623-33.647-13.94v-.406l214.4-214.4c7.698-7.698 7.698-20.181 0-27.879l-214.4-214.4v-.406c0-17.563 21.231-26.356 33.647-13.94l228.746 228.746c7.698 7.697 7.698 20.181 0 27.879z" fill="#20bfd5"/></g><g><path d="m400.811 194.53-29.38-29.38c-2.929-2.928-7.678-2.928-10.606 0-2.929 2.93-2.929 7.678 0 10.607l29.38 29.379c3.377 3.378 3.377 8.873 0 12.25l-15.04 15.04-170.979-170.978c-2.929-2.928-7.678-2.928-10.606 0-2.929 2.93-2.929 7.678 0 10.607l19.755 19.755-28.404 28.404-65.21-65.214c-.128-.128-.264-.244-.399-.361v-27.359c0-5.109 2.818-9.327 7.539-11.282 4.722-1.955 9.696-.967 13.309 2.647l29.609 29.608c2.929 2.928 7.678 2.928 10.606 0 2.929-2.93 2.929-7.678 0-10.607l-22.612-22.612 38.281.01c.063-.007.188-.002.283-.005 1.659-.067 4.1.33 6.328 2.559l134.358 134.357c1.464 1.464 3.384 2.196 5.303 2.196s3.839-.732 5.303-2.196c2.929-2.93 2.929-7.678 0-10.607l-134.358-134.356c-4.685-4.686-10.844-7.15-17.342-6.947l-62.833-.017s-.001 0-.002 0c-.028 0-.056.004-.084.004-3.948-.194-7.99.491-11.891 2.107-10.361 4.292-16.798 13.926-16.798 25.141v264.248c0 4.143 3.358 7.5 7.5 7.5s7.5-3.357 7.5-7.5v-84.529c.135-.117.271-.233.399-.361l65.211-65.211 77.486 77.491-143.096 143.096v-36.826c0-4.143-3.358-7.5-7.5-7.5s-7.5 3.357-7.5 7.5v159.581c0 11.216 6.437 20.85 16.799 25.142 3.472 1.438 7.056 2.141 10.586 2.141 7.005 0 13.796-2.767 19.069-8.039l228.745-228.745c5.14-5.141 7.97-11.974 7.97-19.242 0-4.213-.957-8.277-2.758-11.953l16.078-16.078c9.226-9.227 9.227-24.238.001-33.465zm-281.49-8.706v-110.01l55.003 55.007zm76.217-55.003 28.404-28.404 77.489 77.489-28.406 28.406zm-75.817 252.008 153.304-153.303 17.863 17.864c4.762 4.762 4.762 12.511 0 17.272l-171.567 171.567v-53.04c.135-.116.271-.232.4-.36zm249.193-118.169-228.745 228.745c-3.612 3.614-8.588 4.602-13.309 2.647s-7.539-6.173-7.539-11.283v-27.653c.515-.309 1.004-.677 1.448-1.121l180.725-180.725c10.611-10.611 10.611-27.876 0-38.486l-17.863-17.864 28.406-28.406 56.877 56.877c4.761 4.76 4.761 12.508 0 17.269z"/><path d="m197.924 181.809c-.013 0-.025 0-.038 0-4.125 0-7.479 3.334-7.499 7.464l-.013 2.717c-.02 4.142 3.321 7.516 7.463 7.536h.038c4.125 0 7.479-3.334 7.499-7.464l.013-2.717c.02-4.141-3.321-7.515-7.463-7.536z"/><path d="m197.836 209.456c-.012 0-.024 0-.036 0-4.125 0-7.479 3.335-7.499 7.465l-.013 2.716c-.019 4.143 3.323 7.516 7.465 7.535h.036c4.125 0 7.479-3.335 7.499-7.465l.013-2.716c.019-4.143-3.322-7.516-7.465-7.535z"/><path d="m213.016 212.04h.036c4.125 0 7.479-3.335 7.499-7.465.019-4.143-3.323-7.516-7.465-7.535l-2.722-.013c-.012 0-.024 0-.036 0-4.125 0-7.479 3.335-7.499 7.465-.019 4.143 3.323 7.516 7.465 7.535z"/><path d="m182.66 196.942c-.012 0-.024 0-.036 0-4.125 0-7.479 3.335-7.499 7.465-.019 4.143 3.323 7.516 7.465 7.535l2.722.013h.036c4.125 0 7.479-3.335 7.499-7.465.019-4.143-3.323-7.516-7.465-7.535z"/><path d="m152.865 226.867c-.012 0-.024 0-.036 0-4.125 0-7.479 3.335-7.499 7.465l-.013 2.716c-.019 4.143 3.323 7.516 7.465 7.535h.036c4.125 0 7.479-3.335 7.499-7.465l.013-2.716c.019-4.143-3.323-7.516-7.465-7.535z"/><path d="m152.781 254.513c-.013 0-.025 0-.038 0-4.125 0-7.479 3.334-7.499 7.464l-.013 2.716c-.02 4.142 3.321 7.516 7.463 7.536h.038c4.125 0 7.479-3.334 7.499-7.464l.013-2.716c.02-4.141-3.321-7.515-7.463-7.536z"/><path d="m168.029 242.097-2.722-.013c-.012 0-.024 0-.036 0-4.125 0-7.479 3.335-7.499 7.465-.019 4.143 3.323 7.516 7.465 7.535l2.722.013h.036c4.125 0 7.479-3.335 7.499-7.465.019-4.142-3.323-7.515-7.465-7.535z"/><path d="m137.605 241.999c-.013 0-.025 0-.039 0-4.124 0-7.478 3.333-7.499 7.462-.021 4.143 3.32 7.518 7.462 7.538l2.722.014h.039c4.124 0 7.478-3.333 7.499-7.462.021-4.143-3.32-7.518-7.462-7.538z"/></g></g></svg>