<svg id="Capa_1" enable-background="new 0 0 512 512" viewBox="0 0 512 512" xmlns="http://www.w3.org/2000/svg"><g><g><g><path d="m36.879 104.44v390.06c0 5.523 4.477 10 10 10h418.243c5.523 0 10-4.477 10-10v-390.06z" fill="#7a8d98"/><path d="m475.121 104.44h-.001-438.242v50.202h387.322v339.858c0 5.52-4.47 10-10 10h50.92c5.52 0 10-4.48 10-10z" fill="#596d76"/><g><path d="m475.12 454.67v39.83c0 5.52-4.48 10-10 10h-418.24c-5.52 0-10-4.48-10-10v-39.83z" fill="#d9e7eb"/></g><path d="m475.12 454.67v39.83c0 5.52-4.48 10-10 10h-50.92c5.53 0 10-4.48 10-10v-39.83z" fill="#b7c4ce"/><path d="m483.32 109.3v-96.8c0-2.761-2.239-5-5-5h-444.64c-2.761 0-5 2.239-5 5v96.8c0 2.761 2.239 5 5 5h444.64c2.762 0 5-2.239 5-5z" fill="#d9e7eb"/><path d="m483.32 12.5v96.8c0 2.76-2.24 5-5 5h-40c2.76 0 5-2.24 5-5v-96.8c0-2.76-2.24-5-5-5h40c2.76 0 5 2.24 5 5z" fill="#b7c4ce"/><g><g><path d="m87.795 170.393h336.409v284.281h-336.409z" fill="#9ce6fb"/><path d="m382.49 235.805v218.869h41.715v-284.281h-336.41v55.411h284.695c5.523.001 10 4.478 10 10.001z" fill="#68dbf9"/><g><path d="m87.79 359.199h336.42v28.02h-336.42z" fill="#596d76"/><path d="m382.49 359.199h41.72v28.02h-41.72z" fill="#475a61"/></g></g><g><g><path d="m428.587 191.35h-345.174c-5.523 0-10-4.477-10-10v-16.707c0-5.523 4.477-10 10-10h345.173c5.523 0 10 4.477 10 10v16.707c.001 5.523-4.476 10-9.999 10z" fill="#d9e7eb"/></g><g><path d="m438.59 164.64v16.71c0 5.52-4.48 10-10 10h-39.12c5.52 0 10-4.48 10-10v-16.71c0-5.52-4.48-10-10-10h39.12c5.52 0 10 4.48 10 10z" fill="#b7c4ce"/></g></g></g><g><path d="m304.209 359.204h-96.42c-10.14 0-19.608-5.069-25.23-13.508l-17.393-26.107c-1.678-2.518.128-5.891 3.154-5.891h175.359c3.026 0 4.832 3.372 3.154 5.891l-17.393 26.107c-5.622 8.438-15.091 13.508-25.231 13.508z" fill="#f4f6f7"/><path d="m346.833 319.595-17.396 26.102c-5.622 8.444-15.089 13.507-25.229 13.507h-33.701c10.139 0 19.607-5.062 25.229-13.507l17.389-26.102c1.68-2.524-.127-5.891-3.151-5.891h33.708c3.024 0 4.831 3.367 3.151 5.891z" fill="#d9e7eb"/></g><g><g><g><circle cx="347.476" cy="58.01" fill="#7a8d98" r="20.735"/></g><g><path d="m368.206 58.011c0 11.451-9.275 20.737-20.726 20.737-3.773 0-7.322-1.004-10.369-2.779 6.195-3.583 10.369-10.279 10.369-17.958s-4.174-14.376-10.369-17.959c3.047-1.775 6.596-2.779 10.369-2.779 11.451 0 20.726 9.286 20.726 20.738z" fill="#596d76"/></g></g><g><g><circle cx="256" cy="58.01" fill="#21c1f8" r="20.735"/></g><g><path d="m276.729 58.011c0 11.451-9.275 20.737-20.726 20.737-3.773 0-7.322-1.004-10.369-2.779 6.195-3.583 10.369-10.279 10.369-17.958s-4.174-14.376-10.369-17.959c3.047-1.775 6.596-2.779 10.369-2.779 11.451 0 20.726 9.286 20.726 20.738z" fill="#1faaee"/></g></g><g><g><circle cx="164.524" cy="58.01" fill="#7a8d98" r="20.735"/></g><g><path d="m185.253 58.011c0 11.451-9.275 20.737-20.726 20.737-3.773 0-7.322-1.004-10.369-2.779 6.195-3.583 10.369-10.279 10.369-17.958s-4.174-14.376-10.369-17.959c3.047-1.775 6.596-2.779 10.369-2.779 11.451 0 20.726 9.286 20.726 20.738z" fill="#596d76"/></g></g></g></g></g><g><path d="m483.32 45.765c4.143 0 7.5-3.357 7.5-7.5v-25.765c0-6.893-5.607-12.5-12.5-12.5h-444.64c-6.893 0-12.5 5.607-12.5 12.5v96.8c0 5.379 3.422 9.962 8.199 11.721v215.838c0 4.143 3.358 7.5 7.5 7.5s7.5-3.357 7.5-7.5v-215.059h423.243v325.37h-35.917v-248.615c8.165-1.477 14.383-8.622 14.383-17.206v-16.707c0-9.649-7.851-17.5-17.5-17.5h-73.535c-4.143 0-7.5 3.357-7.5 7.5s3.357 7.5 7.5 7.5h73.535c1.379 0 2.5 1.121 2.5 2.5v16.707c0 1.379-1.121 2.5-2.5 2.5h-345.175c-1.378 0-2.5-1.121-2.5-2.5v-16.707c0-1.379 1.122-2.5 2.5-2.5h239.462c4.143 0 7.5-3.357 7.5-7.5s-3.357-7.5-7.5-7.5h-239.462c-9.649 0-17.5 7.851-17.5 17.5v16.707c0 8.584 6.217 15.729 14.382 17.206v248.615h-35.917v-78.133c0-4.143-3.358-7.5-7.5-7.5s-7.5 3.357-7.5 7.5v125.463c0 9.649 7.851 17.5 17.5 17.5h418.243c9.649 0 17.5-7.851 17.5-17.5v-373.479c4.777-1.759 8.199-6.342 8.199-11.722v-38.857c0-4.143-3.357-7.5-7.5-7.5s-7.5 3.357-7.5 7.5v36.358h-439.64v-91.8h439.64v23.265c0 4.142 3.358 7.5 7.5 7.5zm-388.025 153.085h321.409v152.854h-82.34c.455-.602.895-1.217 1.317-1.85l17.395-26.107c2.312-3.471 2.525-7.911.557-11.588s-5.782-5.961-9.953-5.961h-175.36c-4.17 0-7.984 2.284-9.953 5.961s-1.755 8.116.557 11.588l17.393 26.107c.422.633.862 1.248 1.317 1.85h-82.339zm93.506 142.687-13.551-20.34h161.499l-13.551 20.34c-4.241 6.365-11.34 10.166-18.989 10.166h-96.419c-7.649 0-14.748-3.801-18.989-10.166zm-93.506 25.166h321.409v13.019h-321.409zm0 28.019h321.409v52.448h-321.409zm369.826 102.278h-418.243c-1.378 0-2.5-1.121-2.5-2.5v-32.33h423.243v32.33c0 1.379-1.121 2.5-2.5 2.5z"/><path d="m319.241 58.011c0 15.568 12.666 28.234 28.235 28.234 15.568 0 28.234-12.666 28.234-28.234 0-15.569-12.666-28.235-28.234-28.235-15.569-.001-28.235 12.665-28.235 28.235zm41.47 0c0 7.298-5.937 13.234-13.234 13.234s-13.235-5.937-13.235-13.234 5.938-13.235 13.235-13.235 13.234 5.937 13.234 13.235z"/><path d="m227.765 58.011c0 15.568 12.666 28.234 28.235 28.234 15.568 0 28.234-12.666 28.234-28.234 0-15.569-12.666-28.235-28.234-28.235-15.569-.001-28.235 12.665-28.235 28.235zm41.469 0c0 7.298-5.937 13.234-13.234 13.234s-13.235-5.937-13.235-13.234 5.937-13.236 13.235-13.236 13.234 5.938 13.234 13.236z"/><path d="m136.289 58.011c0 15.568 12.666 28.234 28.235 28.234 15.568 0 28.234-12.666 28.234-28.234 0-15.569-12.666-28.235-28.234-28.235-15.569-.001-28.235 12.665-28.235 28.235zm41.469 0c0 7.298-5.937 13.234-13.234 13.234-7.298 0-13.235-5.937-13.235-13.234s5.937-13.235 13.235-13.235c7.297-.001 13.234 5.937 13.234 13.235z"/></g></g><g/><g/><g/><g/><g/><g/><g/><g/><g/><g/><g/><g/><g/><g/><g/></svg>