<svg id="Capa_1" enable-background="new 0 0 512 512" viewBox="0 0 512 512" xmlns="http://www.w3.org/2000/svg"><g><g><g><path d="m473.623 243.052-32.905-211.109c-.076-.487-.495-.846-.988-.846h-57.837l55.252 215.974c1.132 4.426 5.12 7.522 9.688 7.522h16.909c6.137-.001 10.826-5.478 9.881-11.541z" fill="#ffbc8a"/><path d="m448.136 79.533-7.418-47.59c-.076-.487-.495-.846-.988-.846h-57.837l12.391 48.436z" fill="#f5a871"/><g><path d="m362.086 95.631h-277.777v398.869c0 5.523 4.477 10 10 10h257.777c5.523 0 10-4.477 10-10z" fill="#596d76"/><path d="m362.086 95.631h-.004v-.001l-277.773.001v36.356h227.772c5.523 0 10 4.477 10 10v352.513c0 5.52-4.47 10-10 10h40c5.53 0 10-4.48 10-10z" fill="#475a61"/><path d="m449.405 7.5h-401.115c-7.809 0-12.605 8.55-8.533 15.214l44.552 72.918h277.777v-37.892c0-7.247 5.875-13.123 13.123-13.123h74.197c5.523 0 10-4.477 10-10v-17.117c-.001-5.523-4.478-10-10.001-10z" fill="#596d76"/><path d="m459.402 17.5v17.12c0 5.52-4.47 10-10 10h-37.56c5.52 0 10-4.48 10-10v-17.12c0-5.52-4.48-10-10-10h37.56c5.53 0 10 4.48 10 10z" fill="#475a61"/></g></g></g><path d="m481.033 241.896-29.6-189.906c8.696-1.01 15.472-8.41 15.472-17.373v-17.117c0-9.649-7.851-17.5-17.5-17.5h-296.55c-4.142 0-7.5 3.358-7.5 7.5s3.358 7.5 7.5 7.5h296.55c1.378 0 2.5 1.122 2.5 2.5v17.118c0 1.378-1.122 2.5-2.5 2.5h-74.197c-11.372 0-20.623 9.251-20.623 20.623v30.391h-266.069l-42.359-69.328c-.664-1.087-.314-2.05-.047-2.526.268-.478.907-1.278 2.181-1.278h72.387c4.142 0 7.5-3.358 7.5-7.5s-3.358-7.5-7.5-7.5h-72.387c-6.418 0-12.124 3.342-15.263 8.939-3.14 5.598-3.017 12.209.33 17.685l43.452 71.117v396.759c0 9.649 7.851 17.5 17.5 17.5h257.776c9.649 0 17.5-7.851 17.5-17.5v-68.739c0-4.142-3.358-7.5-7.5-7.5s-7.5 3.358-7.5 7.5v68.739c0 1.378-1.122 2.5-2.5 2.5h-257.777c-1.378 0-2.5-1.122-2.5-2.5v-391.369h262.776v290.453c0 4.142 3.358 7.5 7.5 7.5s7.5-3.358 7.5-7.5v-335.844c0-3.1 2.522-5.623 5.623-5.623h4.32l21.666 84.689c.867 3.39 3.916 5.643 7.261 5.643.615 0 1.241-.077 1.864-.236 4.013-1.027 6.434-5.112 5.407-9.125l-20.715-80.972h41.259l29.94 192.089c.154.989-.292 1.685-.571 2.011s-.898.874-1.899.874h-16.909c-1.143 0-2.139-.773-2.422-1.88l-20.696-80.898c-1.027-4.013-5.111-6.432-9.125-5.407-4.013 1.027-6.434 5.112-5.407 9.125l20.696 80.898c1.983 7.75 8.955 13.163 16.954 13.163h16.909c5.119 0 9.964-2.23 13.293-6.118s4.788-9.018 4-14.077z"/></g><g/><g/><g/><g/><g/><g/><g/><g/><g/><g/><g/><g/><g/><g/><g/></svg>