<svg id="Capa_1" enable-background="new 0 0 511.982 511.982" height="512" viewBox="0 0 511.982 511.982" width="512" xmlns="http://www.w3.org/2000/svg"><g><circle cx="393.15" cy="118.832" fill="#d9e7eb" r="101.518"/><path d="m464.939 190.615c-39.646 39.646-103.926 39.646-143.572 0-3.548-3.548-6.785-7.293-9.686-11.21 39.753 29.641 96.264 26.412 132.362-9.686s39.327-92.609 9.678-132.354c3.917 2.901 7.662 6.138 11.21 9.686 39.646 39.646 39.654 103.918.008 143.564z" fill="#c5d3dd"/><circle cx="393.15" cy="118.832" fill="#d9e7eb" r="60.441"/><circle cx="393.15" cy="118.832" fill="#f6f8f9" r="56.901"/><path d="m239.314 295.812 171.626-171.626c6.391-6.391 6.391-16.753 0-23.144s-16.753-6.391-23.144 0l-171.626 171.626z" fill="#b7c4ce"/><path d="m410.936 124.188-171.623 171.623-15.021-15.021 171.623-171.623c3.524-3.524 5.114-8.26 4.745-12.858 3.753.279 7.416 1.86 10.284 4.728 6.392 6.393 6.384 16.759-.008 23.151z" fill="#a0acb9"/><g><g><g><path d="m17.632 494.35c-13.535-13.535-13.535-35.479 0-49.014l183.018-183.018c7.816-7.816 20.489-7.816 28.305 0l20.709 20.709c7.816 7.816 7.816 20.489 0 28.305l-183.018 183.018c-13.535 13.535-35.479 13.535-49.014 0z" fill="#fcb44d"/><path d="m249.657 311.334-183.014 183.014c-13.538 13.538-35.475 13.538-49.013 0-4.469-4.469-7.454-9.835-8.966-15.541 11.554 3.108 24.403.104 33.472-8.966l183.015-183.015c7.18-7.18 7.766-18.422 1.767-26.273.699.529 1.389 1.124 2.031 1.767l20.709 20.709c7.822 7.823 7.822 20.482-.001 28.305z" fill="#fca62f"/><g><path d="m235.653 325.344 14.012-14.012c7.816-7.816 7.816-20.489 0-28.305l-20.709-20.709c-7.816-7.816-20.489-7.816-28.305 0l-14.012 14.012z" fill="#fc6d5a"/></g><path d="m249.657 311.334-14.01 14.01-24.507-24.507 14.01-14.01c7.18-7.18 7.756-18.432 1.767-26.273.35.274.699.548 1.039.85.34.283.671.595.992.916l20.709 20.709c7.814 7.813 7.823 20.482 0 28.305z" fill="#fb5652"/><path d="m506.422 141.418-6.31-1.691c2.672-13.79 2.672-28.001 0-41.791l6.31-1.691c4.001-1.072 6.375-5.185 5.303-9.186-1.071-4.001-5.185-6.373-9.186-5.304l-6.291 1.686c-4.441-13.006-11.406-25.331-20.892-36.209l4.598-4.598c2.929-2.929 2.929-7.678 0-10.606-2.93-2.929-7.678-2.929-10.607 0l-4.597 4.597c-10.878-9.487-23.203-16.451-36.208-20.892l1.686-6.291c1.072-4.001-1.302-8.114-5.303-9.186-4.003-1.07-8.114 1.303-9.186 5.303l-1.691 6.31c-13.791-2.673-28.002-2.673-41.792 0l-1.691-6.31c-1.071-4-5.184-6.374-9.186-5.303-4.001 1.072-6.375 5.185-5.303 9.186l1.686 6.291c-13.006 4.441-25.331 11.405-36.208 20.892l-4.597-4.597c-2.93-2.929-7.678-2.929-10.607 0s-2.929 7.678 0 10.606l4.612 4.612c-9.431 10.822-16.419 23.143-20.892 36.198l-6.307-1.69c-4.002-1.072-8.114 1.302-9.186 5.304-1.072 4.001 1.302 8.113 5.303 9.186l6.31 1.691c-2.684 13.75-2.726 27.956-.038 41.801l-6.272 1.68c-4.001 1.072-6.375 5.185-5.303 9.186.897 3.351 3.928 5.561 7.239 5.561.643 0 1.296-.083 1.946-.257l6.244-1.673c2.719 7.933 6.412 15.629 11.053 22.939l-74.448 74.448c-10.217-4.843-22.822-3.048-31.264 5.393l-63.277 63.277c-2.929 2.929-2.929 7.678 0 10.606 2.929 2.929 7.677 2.929 10.607 0l43.961-43.961 38.407 38.407-163.701 163.705c-10.591 10.59-27.821 10.587-38.408 0-5.13-5.129-7.955-11.95-7.955-19.204s2.825-14.074 7.955-19.204l95.94-95.94c2.929-2.929 2.929-7.678 0-10.606-2.93-2.929-7.678-2.929-10.607 0l-95.94 95.94c-16.438 16.438-16.438 43.184 0 59.621 8.22 8.219 19.015 12.328 29.811 12.328s21.593-4.109 29.812-12.328l183.018-183.019c5.196-5.197 8.059-12.106 8.059-19.456 0-4.158-.917-8.174-2.654-11.819l24.249-24.249c2.929-2.929 2.929-7.678 0-10.606s-7.677-2.93-10.607 0l-23.133 23.133-12.539-12.538 154.754-154.755c3.459-3.457 9.083-3.457 12.538 0 3.457 3.457 3.457 9.081 0 12.538l-107.82 107.82c-2.929 2.929-2.929 7.678 0 10.606 2.93 2.929 7.678 2.929 10.607 0l26.378-26.378c7.311 4.643 15.012 8.328 22.946 11.047l-1.672 6.242c-1.072 4.001 1.302 8.114 5.303 9.186.65.174 1.304.257 1.946.257 3.312 0 6.342-2.21 7.239-5.561l1.679-6.268c6.876 1.335 13.84 2.011 20.796 2.011 7.051 0 14.09-.681 21.013-2.033l1.686 6.29c.897 3.351 3.928 5.561 7.239 5.561.643 0 1.296-.083 1.946-.257 4.001-1.072 6.375-5.185 5.303-9.186l-1.685-6.29c13.057-4.473 25.385-11.462 36.207-20.894l4.598 4.598c1.465 1.464 3.385 2.197 5.304 2.197s3.839-.732 5.304-2.197c2.929-2.929 2.929-7.678 0-10.606l-4.598-4.598c9.487-10.878 16.451-23.203 20.892-36.209l6.291 1.686c.65.174 1.304.257 1.946.257 3.312 0 6.342-2.21 7.239-5.561 1.073-4.001-1.301-8.113-5.302-9.185zm-258.396 155.762c0 3.342-1.302 6.485-3.666 8.849l-8.708 8.708-38.407-38.407 8.708-8.708c2.363-2.364 5.506-3.666 8.849-3.666s6.485 1.302 8.849 3.666l20.709 20.709c2.365 2.363 3.666 5.506 3.666 8.849zm97.694-97.167 22.014-22.014c8.152 3.501 16.771 5.227 25.34 5.227 16.745 0 33.271-6.512 45.615-18.855 20.144-20.144 24.621-51.634 10.888-76.578-1.093-1.984-3.022-3.368-5.252-3.766-2.228-.396-4.519.233-6.23 1.716l-.317.277c-3.228 2.596-3.739 7.317-1.143 10.545.359.447.76.842 1.191 1.184 8.795 18.655 4.983 41.288-9.744 56.016-12.843 12.843-31.587 17.453-48.648 12.535l36.81-36.81c9.304-9.305 9.304-24.445-.001-33.751-9.305-9.304-24.444-9.304-33.751 0l-36.806 36.806c-4.895-17.056-.256-35.856 12.533-48.645 15.101-15.101 38.06-18.797 57.132-9.2 3.698 1.861 8.209.372 10.07-3.329 1.862-3.7.372-8.209-3.328-10.071-24.864-12.511-54.795-7.692-74.481 11.993-18.584 18.584-23.959 46.908-13.636 70.963l-22.006 22.006c-21.418-36.561-15.67-83.541 14.7-113.911 36.656-36.657 96.303-36.657 132.961 0 36.657 36.658 36.657 96.304 0 132.961-30.369 30.369-77.349 36.119-113.911 14.701z"/></g></g></g></g></svg>