<svg id="Capa_1" enable-background="new 0 0 512 512" height="512" viewBox="0 0 512 512" width="512" xmlns="http://www.w3.org/2000/svg"><g><circle cx="256" cy="256" fill="#d4f2f6" r="248.5"/><path d="m504.5 256c0 137.24-111.26 248.5-248.5 248.5-6.9 0-13.74-.28-20.5-.83 127.65-10.43 228-117.33 228-247.67s-100.35-237.24-228-247.67c6.76-.55 13.6-.83 20.5-.83 137.24 0 248.5 111.26 248.5 248.5z" fill="#a8e7ef"/><g><path d="m78.218 190.142c-.954 0-1.924-.183-2.86-.57-3.829-1.582-5.65-5.967-4.069-9.795 20.154-48.792 59.696-88.333 108.488-108.488 3.829-1.581 8.214.24 9.795 4.069 1.581 3.828-.24 8.214-4.069 9.795-45.132 18.642-81.708 55.218-100.35 100.35-1.195 2.892-3.989 4.639-6.935 4.639z"/></g><g><path d="m182.637 441.281c-.954 0-1.924-.183-2.86-.57-48.792-20.154-88.333-59.696-108.488-108.488-1.581-3.828.24-8.214 4.069-9.795s8.213.24 9.795 4.069c18.642 45.132 55.218 81.708 100.35 100.35 3.829 1.582 5.65 5.967 4.069 9.795-1.195 2.892-3.989 4.639-6.935 4.639z"/></g><g><path d="m329.363 441.281c-2.946 0-5.74-1.747-6.935-4.639-1.581-3.828.24-8.214 4.069-9.795 45.132-18.642 81.708-55.218 100.35-100.35 1.582-3.828 5.968-5.65 9.795-4.069 3.829 1.582 5.65 5.967 4.069 9.795-20.154 48.792-59.696 88.333-108.488 108.488-.936.387-1.906.57-2.86.57z"/></g><g><path d="m433.782 190.142c-2.946 0-5.74-1.747-6.935-4.639-18.642-45.132-55.218-81.708-100.35-100.35-3.829-1.582-5.65-5.967-4.069-9.795 1.582-3.828 5.967-5.65 9.795-4.069 48.792 20.154 88.333 59.696 108.488 108.488 1.581 3.828-.24 8.214-4.069 9.795-.936.387-1.906.57-2.86.57z"/></g><g><path d="m256 512c-68.38 0-132.667-26.629-181.02-74.98-48.351-48.353-74.98-112.64-74.98-181.02 0-61.945 22.425-121.73 63.143-168.341 2.725-3.121 7.464-3.439 10.583-.714 3.12 2.725 3.439 7.463.714 10.583-38.331 43.876-59.44 100.157-59.44 158.472 0 132.888 108.112 241 241 241s241-108.112 241-241-108.112-241-241-241c-58.315 0-114.596 21.109-158.473 59.44-3.119 2.725-7.857 2.406-10.583-.714-2.725-3.119-2.405-7.857.714-10.583 46.612-40.718 106.397-63.143 168.342-63.143 68.38 0 132.667 26.629 181.02 74.98 48.351 48.353 74.98 112.64 74.98 181.02s-26.629 132.667-74.98 181.02c-48.353 48.351-112.64 74.98-181.02 74.98z"/></g><circle cx="256" cy="256" fill="#fc7c6a" r="148.862"/><path d="m404.86 256c0 82.21-66.65 148.86-148.86 148.86-7.65 0-15.16-.58-22.5-1.69 71.53-10.85 126.36-72.61 126.36-147.17s-54.83-136.32-126.36-147.17c7.34-1.11 14.85-1.69 22.5-1.69 82.21 0 148.86 66.65 148.86 148.86z" fill="#fb5652"/><g><path d="m239.179 411.41c-.28 0-.563-.016-.848-.047-79.068-8.9-138.693-75.691-138.693-155.363 0-86.218 70.144-156.362 156.362-156.362 37.385 0 73.566 13.406 101.877 37.748 28.006 24.079 46.645 57.318 52.482 93.593.658 4.089-2.124 7.938-6.213 8.596-4.089.661-7.938-2.124-8.596-6.213-11.07-68.793-69.759-118.724-139.55-118.724-77.947 0-141.362 63.415-141.362 141.362 0 72.029 53.898 132.412 125.371 140.457 4.116.463 7.077 4.176 6.614 8.292-.431 3.831-3.678 6.661-7.444 6.661z"/></g><g><path d="m272.821 411.41c-3.767 0-7.013-2.831-7.444-6.662-.463-4.116 2.498-7.829 6.614-8.292 68.009-7.654 120.604-62.796 125.06-131.115.269-4.133 3.828-7.268 7.972-6.996 4.133.27 7.265 3.838 6.996 7.972-2.381 36.523-17.661 71.237-43.023 97.748-25.281 26.427-59.136 43.224-95.327 47.297-.285.033-.568.048-.848.048z"/></g><g><g><path d="m249.136 75.96-11.669-11.669c-3.791-3.791-3.791-9.937 0-13.728l11.669-11.669c3.791-3.791 9.937-3.791 13.728 0l11.669 11.669c3.791 3.791 3.791 9.937 0 13.728l-11.669 11.669c-3.791 3.791-9.937 3.791-13.728 0z" fill="#fc7c6a"/><g><path d="m256 86.303c-4.596 0-8.917-1.79-12.167-5.04l-11.669-11.668c-6.708-6.709-6.708-17.625 0-24.334l11.669-11.669c3.25-3.25 7.571-5.04 12.167-5.04s8.917 1.79 12.167 5.041l11.668 11.668c6.708 6.709 6.708 17.625 0 24.334l-11.669 11.669c-3.249 3.249-7.57 5.039-12.166 5.039zm0-42.752c-.417 0-1.026.112-1.56.646l-11.669 11.669c-.86.86-.86 2.261 0 3.122l11.668 11.668c.534.534 1.143.646 1.56.646s1.026-.112 1.56-.646l11.669-11.669c.86-.86.86-2.261 0-3.122l-11.668-11.668c-.534-.533-1.143-.646-1.56-.646z"/></g></g><g><path d="m249.136 473.105-11.669-11.669c-3.791-3.791-3.791-9.937 0-13.728l11.669-11.669c3.791-3.791 9.937-3.791 13.728 0l11.669 11.669c3.791 3.791 3.791 9.937 0 13.728l-11.669 11.669c-3.791 3.791-9.937 3.791-13.728 0z" fill="#fc7c6a"/><g><path d="m256 483.449c-4.596 0-8.917-1.79-12.167-5.04l-11.669-11.668c-6.708-6.709-6.708-17.625 0-24.334l11.669-11.669c3.25-3.25 7.571-5.04 12.167-5.04s8.917 1.79 12.167 5.041l11.668 11.668c6.708 6.709 6.708 17.625 0 24.334l-11.669 11.669c-3.249 3.249-7.57 5.039-12.166 5.039zm0-42.752c-.417 0-1.026.112-1.56.646l-11.669 11.669c-.86.86-.86 2.261 0 3.122l11.668 11.668c.534.534 1.143.646 1.56.646s1.026-.112 1.56-.646l11.669-11.669c.86-.86.86-2.261 0-3.122l-11.668-11.668c-.534-.533-1.143-.646-1.56-.646z"/></g></g></g><g><g><path d="m436.04 249.136 11.669-11.669c3.791-3.791 9.937-3.791 13.728 0l11.669 11.669c3.791 3.791 3.791 9.937 0 13.728l-11.669 11.669c-3.791 3.791-9.937 3.791-13.728 0l-11.669-11.669c-3.791-3.791-3.791-9.937 0-13.728z" fill="#fc7c6a"/><g><path d="m454.573 284.867c-4.406 0-8.813-1.677-12.167-5.031l-11.669-11.669c-3.25-3.25-5.04-7.571-5.04-12.167s1.79-8.917 5.04-12.167l11.668-11.669c6.709-6.708 17.626-6.708 24.334 0l11.669 11.669c3.25 3.25 5.04 7.571 5.04 12.167s-1.79 8.917-5.041 12.167l-11.668 11.668c-3.353 3.355-7.76 5.032-12.166 5.032zm0-42.742c-.565 0-1.131.215-1.562.646l-11.668 11.668c-.534.534-.646 1.143-.646 1.56s.112 1.026.646 1.56l11.669 11.669c.86.86 2.261.86 3.122 0l11.668-11.668c.534-.535.646-1.144.646-1.561s-.112-1.026-.646-1.56l-11.669-11.669c-.429-.43-.995-.645-1.56-.645zm-18.532 7.011h.01z"/></g></g><g><path d="m38.895 249.136 11.669-11.669c3.791-3.791 9.937-3.791 13.728 0l11.669 11.669c3.791 3.791 3.791 9.937 0 13.728l-11.669 11.669c-3.791 3.791-9.937 3.791-13.728 0l-11.669-11.669c-3.791-3.791-3.791-9.937 0-13.728z" fill="#fc7c6a"/><g><path d="m57.427 284.867c-4.406 0-8.813-1.677-12.167-5.031l-11.669-11.669c-3.25-3.25-5.04-7.571-5.04-12.167s1.79-8.917 5.04-12.167l11.668-11.669c6.709-6.708 17.626-6.708 24.334 0l11.669 11.669c3.25 3.25 5.04 7.571 5.04 12.167s-1.79 8.917-5.041 12.167l-11.668 11.668c-3.353 3.355-7.76 5.032-12.166 5.032zm0-42.742c-.565 0-1.131.215-1.562.646l-11.668 11.668c-.534.534-.646 1.143-.646 1.56s.112 1.026.646 1.56l11.669 11.669c.86.86 2.261.86 3.122 0l11.668-11.668c.534-.535.646-1.144.646-1.561s-.112-1.026-.646-1.56l-11.669-11.669c-.429-.43-.995-.645-1.56-.645zm-18.532 7.011h.01z"/></g></g></g></g></svg>