<svg id="Capa_1" enable-background="new 0 0 512 512" height="512" viewBox="0 0 512 512" width="512" xmlns="http://www.w3.org/2000/svg"><g><g><path d="m134.995 31.91h240.346v158.859h-240.346z" fill="#b7c4ce"/><path d="m331.11 31.91h44.23v158.86h-44.23z" fill="#a0acb9"/><path d="m135.83 138.76h240.34v52.01h-240.34z" fill="#3ad1e0"/><path d="m331.11 138.76h44.23v52.01h-44.23z" fill="#20bfd5"/><path d="m376.173 190.77h-240.346l-123.183 68.42c-3.175 1.764-5.144 5.11-5.144 8.742v62.779c0 5.523 4.477 10 10 10h477c5.523 0 10-4.477 10-10v-62.779c0-3.632-1.969-6.978-5.144-8.742z" fill="#d4f2f6"/><path d="m504.5 267.93v62.78c0 5.52-4.48 10-10 10h-44.23c5.52 0 10-4.48 10-10v-62.78c0-3.63-1.97-6.98-5.14-8.74l-123.18-68.42h44.22l123.19 68.42c3.17 1.76 5.14 5.11 5.14 8.74z" fill="#a8e7ef"/><path d="m504.5 267.93v62.78c0 5.52-4.48 10-10 10h-477c-5.52 0-10-4.48-10-10v-62.78z" fill="#a8e7ef"/><path d="m504.5 267.93v62.78c0 5.52-4.48 10-10 10h-44.23c5.52 0 10-4.48 10-10v-62.78z" fill="#70d9e6"/></g><g><path d="m502.997 252.633-119.324-66.277v-154.446c0-4.143-3.358-7.5-7.5-7.5s-7.5 3.357-7.5 7.5v99.354h-64.843c-4.142 0-7.5 3.357-7.5 7.5s3.358 7.5 7.5 7.5h64.843v37.006h-138.843c-4.142 0-7.5 3.357-7.5 7.5s3.358 7.5 7.5 7.5h144.4l111.916 62.162h-460.292l111.916-62.162h58.4c4.142 0 7.5-3.357 7.5-7.5s-3.358-7.5-7.5-7.5h-52.843v-37.006h126.843c4.142 0 7.5-3.357 7.5-7.5s-3.358-7.5-7.5-7.5h-126.843v-99.354c0-4.143-3.358-7.5-7.5-7.5s-7.5 3.357-7.5 7.5v154.446l-119.324 66.277c-5.553 3.085-9.003 8.946-9.003 15.299v62.779c0 9.649 7.851 17.5 17.5 17.5h346.003c4.142 0 7.5-3.357 7.5-7.5s-3.358-7.5-7.5-7.5h-346.003c-1.378 0-2.5-1.121-2.5-2.5v-55.279h482v55.279c0 1.379-1.122 2.5-2.5 2.5h-97.336c-4.142 0-7.5 3.357-7.5 7.5s3.358 7.5 7.5 7.5h97.336c9.649 0 17.5-7.851 17.5-17.5v-62.779c0-6.353-3.45-12.214-9.003-15.299z"/><path d="m113.019 295.266c-4.142 0-7.5 3.357-7.5 7.5s3.358 7.5 7.5 7.5h133.828c4.142 0 7.5-3.357 7.5-7.5s-3.358-7.5-7.5-7.5z"/><path d="m299.878 295.266c-4.142 0-7.5 3.357-7.5 7.5s3.358 7.5 7.5 7.5h.104c4.142 0 7.5-3.357 7.5-7.5s-3.358-7.5-7.5-7.5z"/><path d="m326.878 295.266c-4.142 0-7.5 3.357-7.5 7.5s3.358 7.5 7.5 7.5h.104c4.142 0 7.5-3.357 7.5-7.5s-3.358-7.5-7.5-7.5z"/><path d="m371.981 295.266h-.104c-4.142 0-7.5 3.357-7.5 7.5s3.358 7.5 7.5 7.5h.104c4.142 0 7.5-3.357 7.5-7.5s-3.357-7.5-7.5-7.5z"/><path d="m398.878 310.266h.104c4.142 0 7.5-3.357 7.5-7.5s-3.358-7.5-7.5-7.5h-.104c-4.142 0-7.5 3.357-7.5 7.5s3.358 7.5 7.5 7.5z"/><path d="m81.077 368.843c0-4.143-3.358-7.5-7.5-7.5s-7.5 3.357-7.5 7.5c0 3.668-.791 5.134-2.101 7.563-1.646 3.051-3.899 7.229-3.899 14.685s2.253 11.634 3.899 14.685c1.31 2.429 2.101 3.896 2.101 7.563s-.791 5.135-2.101 7.563c-1.646 3.051-3.899 7.229-3.899 14.686 0 4.143 3.358 7.5 7.5 7.5s7.5-3.357 7.5-7.5c0-3.669.791-5.136 2.101-7.564 1.646-3.051 3.899-7.229 3.899-14.685s-2.253-11.634-3.899-14.685c-1.31-2.429-2.101-3.896-2.101-7.563s.791-5.135 2.101-7.563c1.645-3.052 3.899-7.23 3.899-14.685z"/><path d="m173.789 368.843c0-4.143-3.358-7.5-7.5-7.5s-7.5 3.357-7.5 7.5c0 3.668-.791 5.134-2.101 7.563-1.646 3.051-3.899 7.229-3.899 14.685s2.253 11.634 3.899 14.685c1.31 2.429 2.101 3.896 2.101 7.563s-.791 5.135-2.101 7.563c-1.646 3.051-3.899 7.229-3.899 14.686s2.253 11.634 3.899 14.685c1.31 2.431 2.101 3.896 2.101 7.566s-.791 5.136-2.101 7.566c-1.646 3.051-3.899 7.229-3.899 14.686 0 4.143 3.358 7.5 7.5 7.5s7.5-3.357 7.5-7.5c0-3.67.791-5.136 2.101-7.566 1.646-3.051 3.899-7.229 3.899-14.686s-2.253-11.635-3.899-14.687c-1.31-2.429-2.101-3.896-2.101-7.564s.791-5.136 2.101-7.564c1.646-3.051 3.899-7.229 3.899-14.685s-2.253-11.634-3.899-14.685c-1.31-2.429-2.101-3.896-2.101-7.563s.791-5.135 2.101-7.563c1.645-3.052 3.899-7.23 3.899-14.685z"/><path d="m266.5 368.843c0-4.143-3.358-7.5-7.5-7.5s-7.5 3.357-7.5 7.5c0 3.668-.791 5.134-2.101 7.563-1.646 3.051-3.899 7.229-3.899 14.685s2.253 11.634 3.899 14.685c1.31 2.429 2.101 3.896 2.101 7.563s-.791 5.135-2.101 7.563c-1.646 3.051-3.899 7.229-3.899 14.686s2.253 11.634 3.899 14.685c1.31 2.431 2.101 3.896 2.101 7.566s-.791 5.136-2.101 7.566c-1.646 3.051-3.899 7.229-3.899 14.686 0 4.143 3.358 7.5 7.5 7.5s7.5-3.357 7.5-7.5c0-3.67.791-5.136 2.101-7.566 1.646-3.051 3.899-7.229 3.899-14.686s-2.253-11.635-3.899-14.687c-1.31-2.429-2.101-3.896-2.101-7.564s.791-5.136 2.101-7.564c1.646-3.051 3.899-7.229 3.899-14.685s-2.253-11.634-3.899-14.685c-1.31-2.429-2.101-3.896-2.101-7.563s.791-5.135 2.101-7.563c1.646-3.052 3.899-7.23 3.899-14.685z"/><path d="m359.211 368.843c0-4.143-3.358-7.5-7.5-7.5s-7.5 3.357-7.5 7.5c0 3.668-.791 5.134-2.101 7.563-1.646 3.051-3.899 7.229-3.899 14.685s2.253 11.634 3.899 14.685c1.31 2.429 2.101 3.896 2.101 7.563s-.791 5.135-2.101 7.563c-1.646 3.051-3.899 7.229-3.899 14.686s2.253 11.634 3.899 14.685c1.31 2.431 2.101 3.896 2.101 7.566s-.791 5.136-2.101 7.566c-1.646 3.051-3.899 7.229-3.899 14.686 0 4.143 3.358 7.5 7.5 7.5s7.5-3.357 7.5-7.5c0-3.67.791-5.136 2.101-7.566 1.646-3.051 3.899-7.229 3.899-14.686s-2.253-11.635-3.899-14.687c-1.31-2.429-2.101-3.896-2.101-7.564s.791-5.136 2.101-7.564c1.646-3.051 3.899-7.229 3.899-14.685s-2.253-11.634-3.899-14.685c-1.31-2.429-2.101-3.896-2.101-7.563s.791-5.135 2.101-7.563c1.646-3.052 3.899-7.23 3.899-14.685z"/><path d="m451.923 368.843c0-4.143-3.358-7.5-7.5-7.5s-7.5 3.357-7.5 7.5c0 3.668-.791 5.134-2.101 7.563-1.646 3.051-3.899 7.229-3.899 14.685s2.253 11.634 3.899 14.685c1.31 2.429 2.101 3.896 2.101 7.563s-.791 5.135-2.101 7.563c-1.646 3.051-3.899 7.229-3.899 14.686 0 4.143 3.358 7.5 7.5 7.5s7.5-3.357 7.5-7.5c0-3.669.791-5.136 2.101-7.564 1.646-3.051 3.899-7.229 3.899-14.685s-2.253-11.634-3.899-14.685c-1.31-2.429-2.101-3.896-2.101-7.563s.791-5.135 2.101-7.563c1.646-3.052 3.899-7.23 3.899-14.685z"/></g></g></svg>