<svg id="Capa_1" enable-background="new 0 0 512 512" height="512" viewBox="0 0 512 512" width="512" xmlns="http://www.w3.org/2000/svg"><g><g><path d="m443.37 407.29v87.49c0 5.37-4.35 9.72-9.72 9.72h-355.3c-5.37 0-9.72-4.35-9.72-9.72v-87.49z" fill="#8d9da7"/><path d="m443.37 407.29v87.49c0 5.37-4.35 9.72-9.72 9.72h-41.776c5.37 0 9.72-4.35 9.72-9.72v-87.49z" fill="#7a8d98"/><path d="m443.37 407.29v64.1c-8.16 6.03-18.26 9.6-29.16 9.6h-316.42c-10.9 0-21-3.57-29.16-9.6v-64.1z" fill="#7a8d98"/><path d="m443.37 36.66v395.16c0 16.11-13.06 29.17-29.16 29.17h-316.42c-16.1 0-29.16-13.06-29.16-29.17v-395.16c0-16.1 13.06-29.16 29.16-29.16h316.42c16.1 0 29.16 13.06 29.16 29.16z" fill="#a8e7ef"/><path d="m443.37 36.66v395.16c0 16.11-13.06 29.17-29.16 29.17h-41.77c16.1 0 29.16-13.06 29.16-29.17v-395.16c0-16.1-13.06-29.16-29.16-29.16h41.77c16.1 0 29.16 13.06 29.16 29.16z" fill="#70d9e6"/><path d="m443.37 36.66v37.34h-113.79c-2.75 0-5.42 1.46-7.31 4-12.4 16.66-37.79 27-66.27 27s-53.87-10.34-66.26-26.99c-1.9-2.55-4.57-4.01-7.32-4.01h-113.79v-37.34c0-16.1 13.06-29.16 29.16-29.16h316.42c16.1 0 29.16 13.06 29.16 29.16z" fill="#70d9e6"/><path d="m443.37 36.66v17.34h-113.79c-9.28 0-17.82 4.62-23.36 12.07-8.28 11.12-27.65 18.93-50.22 18.93s-41.94-7.81-50.22-18.93c-5.54-7.45-14.08-12.07-23.36-12.07h-113.79v-17.34c0-16.1 13.06-29.16 29.16-29.16h316.42c16.1 0 29.16 13.06 29.16 29.16z" fill="#e8edf1"/><path d="m443.37 36.66v17.34h-41.77v-17.34c0-16.1-13.06-29.16-29.16-29.16h41.77c16.1 0 29.16 13.06 29.16 29.16z" fill="#c5d3dd"/></g><g><path d="m171.5 275.754h-47.167c-5.523 0-10-4.477-10-10v-31.204h67.167v31.204c0 5.523-4.477 10-10 10z" fill="#b7c4ce"/><ellipse cx="177.333" cy="234.55" fill="#e8edf1" rx="63" ry="15.683"/></g><g><path d="m443.372 180.336c4.143 0 7.5-3.358 7.5-7.5v-136.171c0-20.217-16.448-36.665-36.665-36.665h-225.71c-4.143 0-7.5 3.358-7.5 7.5s3.357 7.5 7.5 7.5h225.71c11.946 0 21.665 9.719 21.665 21.665v9.835h-106.292c-11.537 0-22.245 5.501-29.376 15.09-5.896 7.92-21.851 15.91-44.204 15.91s-38.308-7.99-44.201-15.906c-7.134-9.593-17.842-15.094-29.379-15.094h-106.292v-9.835c0-11.946 9.719-21.665 21.665-21.665h57.043c4.143 0 7.5-3.358 7.5-7.5s-3.357-7.5-7.5-7.5h-57.043c-20.217 0-36.665 16.448-36.665 36.665v458.114c0 9.496 7.726 17.222 17.222 17.222h245.82c4.143 0 7.5-3.358 7.5-7.5s-3.357-7.5-7.5-7.5h-245.82c-1.225 0-2.222-.997-2.222-2.222v-33.402c6.074 4.465 13.565 7.11 21.665 7.11h316.414c8.1 0 15.591-2.645 21.665-7.11v33.402c0 1.225-.997 2.222-2.222 2.222h-75.82c-4.143 0-7.5 3.358-7.5 7.5s3.357 7.5 7.5 7.5h75.82c9.496 0 17.222-7.726 17.222-17.222v-288.282c0-4.142-3.357-7.5-7.5-7.5s-7.5 3.358-7.5 7.5v225.325c0 11.946-9.719 21.665-21.665 21.665h-316.414c-11.946 0-21.665-9.719-21.665-21.665v-370.322h106.292c6.746 0 13.067 3.297 17.345 9.049 10.082 13.54 31.63 21.951 56.235 21.951s46.153-8.411 56.238-21.955c4.274-5.749 10.596-9.045 17.342-9.045h106.292v111.336c0 4.143 3.357 7.5 7.5 7.5z"/><path d="m106.833 265.754c0 9.649 7.851 17.5 17.5 17.5h47.167c9.649 0 17.5-7.851 17.5-17.5v-8.306c21.025-.976 58.833-5.193 58.833-22.898 0-22.065-58.728-23.183-70.5-23.183s-70.5 1.118-70.5 23.183c0 .185.015.365.023.547-.009.151-.023.3-.023.453zm64.667 2.5h-47.167c-1.379 0-2.5-1.122-2.5-2.5v-15.643c16.241 6.334 41.274 7.431 52.167 7.595v8.048c0 1.378-1.121 2.5-2.5 2.5zm5.833-41.886c28.828 0 47.368 4.741 53.746 8.183-6.378 3.441-24.918 8.183-53.746 8.183s-47.368-4.741-53.746-8.183c6.378-3.442 24.918-8.183 53.746-8.183z"/><path d="m167.453 145.167h.036c4.125 0 7.479-3.334 7.499-7.465.02-4.142-3.322-7.516-7.465-7.535h-.104c-.012 0-.023 0-.036 0-4.125 0-7.479 3.334-7.499 7.465-.02 4.142 3.322 7.516 7.465 7.535z"/><path d="m211.735 145.167h.036c4.125 0 7.479-3.334 7.499-7.465.02-4.142-3.322-7.516-7.465-7.535h-.104c-.012 0-.023 0-.036 0-4.125 0-7.479 3.334-7.499 7.465-.02 4.142 3.322 7.516 7.465 7.535z"/><path d="m255.983 130.167c-.012 0-.023 0-.036 0-4.125 0-7.479 3.334-7.499 7.465-.02 4.142 3.322 7.516 7.465 7.535h.104.036c4.125 0 7.479-3.334 7.499-7.465.02-4.142-3.322-7.516-7.465-7.535z"/><path d="m300.265 130.167c-.012 0-.023 0-.036 0-4.125 0-7.479 3.334-7.499 7.465-.02 4.142 3.322 7.516 7.465 7.535h.104.036c4.125 0 7.479-3.334 7.499-7.465.02-4.142-3.322-7.516-7.465-7.535z"/><path d="m344.547 130.167c-.012 0-.023 0-.036 0-4.125 0-7.479 3.334-7.499 7.465-.02 4.142 3.322 7.516 7.465 7.535h.104.036c4.125 0 7.479-3.334 7.499-7.465.02-4.142-3.322-7.516-7.465-7.535z"/></g></g></svg>