<svg id="Capa_1" enable-background="new 0 0 512 512" viewBox="0 0 512 512" xmlns="http://www.w3.org/2000/svg"><g><g><g><g><g><g><path d="m273.737 98.054v-13.38c0-14.964 9.718-28.194 23.997-32.67 7.804-2.446 7.146-13.725-.896-15.211-9.947-1.838-23.324-3.274-40.838-3.274s-30.891 1.436-40.838 3.274c-8.042 1.486-8.699 12.764-.896 15.211 14.279 4.476 23.997 17.706 23.997 32.67v13.38z" fill="#596d76"/></g><g><path d="m303.24 44.523c0 3.15-1.8 6.31-5.51 7.48-14.28 4.48-23.99 17.71-23.99 32.67v13.38h-21.86v-18.21c0-20.36 13.22-38.36 32.65-44.46.28-.09.56-.19.83-.3 4.25.5 8.06 1.08 11.48 1.71 4.22.78 6.4 4.25 6.4 7.73z" fill="#475a61"/></g></g><g><path d="m447.006 143.33c-48.212-39.792-115.962-64.56-191.006-64.56s-142.794 24.768-191.006 64.56z" fill="#9ce6fb"/></g><g><path d="m447.01 143.333h-61.23c-37.47-36.83-88.99-60.79-146.42-64.15 5.5-.27 11.05-.41 16.64-.41 75.04 0 142.79 24.77 191.01 64.56z" fill="#68dbf9"/></g><g><g><g><path d="m129.62 445.549 14.051 27.484c1.71 3.344 5.148 5.448 8.904 5.448h25.155c5.523 0 10-4.477 10-10v-22.932z" fill="#475a61"/></g><g><path d="m382.38 445.549-14.051 27.484c-1.71 3.344-5.148 5.448-8.904 5.448h-25.155c-5.523 0-10-4.477-10-10v-22.932z" fill="#475a61"/></g></g><g><g><path d="m69.176 157.724v212.163c0 4.995 1.469 9.881 4.224 14.047l35.945 54.361c4.716 7.132 12.695 11.422 21.245 11.422h250.82c8.55 0 16.529-4.29 21.245-11.422l35.944-54.361c2.755-4.167 4.224-9.052 4.224-14.047v-212.163z" fill="#f4f6f7"/><path d="m69.177 157.724v36.3h325.643c5.523 0 10 4.477 10 10v165.859c0 5-1.47 9.88-4.22 14.05l-35.95 54.36c-4.71 7.13-12.69 11.42-21.24 11.42h38c8.55 0 16.53-4.29 21.24-11.42l35.95-54.36c2.75-4.17 4.22-9.05 4.22-14.05v-212.16z" fill="#d9e7eb"/><g><path d="m443.841 165.953h-375.682c-5.626 0-10.188-4.561-10.188-10.188v-15.845c0-5.626 4.561-10.188 10.188-10.188h375.683c5.626 0 10.188 4.561 10.188 10.188v15.845c-.001 5.626-4.562 10.188-10.189 10.188z" fill="#7a8d98"/><path d="m454.03 139.923v15.84c0 5.63-4.56 10.19-10.19 10.19h-38c5.63 0 10.19-4.56 10.19-10.19v-15.84c0-5.63-4.56-10.19-10.19-10.19h38c5.63 0 10.19 4.56 10.19 10.19z" fill="#596d76"/></g></g><g><g><path d="m494.5 194.024h-51.676v43.251l54.36-15.142c4.325-1.205 7.317-5.144 7.317-9.633v-8.476c-.001-5.522-4.478-10-10.001-10z" fill="#ffbc8a"/><path d="m504.5 204.023v8.48c0 4.49-2.99 8.43-7.32 9.63l-25.48 7.1c3.12-1.73 5.13-5.04 5.13-8.73l2-16.48c0-5.52-4.48-10-10-10h25.67c5.52 0 10 4.48 10 10z" fill="#f5a871"/></g><g><path d="m17.5 194.024h51.676v43.251l-54.36-15.142c-4.324-1.204-7.316-5.143-7.316-9.633v-8.476c0-5.522 4.477-10 10-10z" fill="#ffbc8a"/><path d="m44.567 194.024v36.397l24.61 6.855v-43.252z" fill="#f5a871"/></g></g></g></g></g><g><g><g><path d="m317.974 422.306h-123.947c-5.787 0-10.478-4.691-10.478-10.478v-101.193c0-25.508 20.678-46.186 46.186-46.186h52.53c25.508 0 46.186 20.678 46.186 46.186v101.194c0 5.786-4.691 10.477-10.477 10.477z" fill="#d9e7eb"/></g><g><path d="m328.45 310.633v101.2c0 5.78-4.69 10.47-10.48 10.47h-28.2c5.79 0 10.48-4.69 10.48-10.47v-101.2c0-25.51-20.68-46.18-46.19-46.18h28.2c25.51 0 46.19 20.67 46.19 46.18z" fill="#b7c4ce"/></g></g><g><path d="m266.847 389.779h-20.67c-7.315 0-13.244-5.93-13.244-13.244 0-7.315 5.93-13.244 13.244-13.244h20.67c7.315 0 13.244 5.93 13.244 13.244 0 7.315-5.93 13.244-13.244 13.244z" fill="#23f1a8"/></g></g></g></g><g><path d="m494.5 186.524h-44.177v-14.318c6.552-2.593 11.206-8.977 11.206-16.441v-15.845c0-9.753-7.935-17.688-17.688-17.688h-12.651c-41.741-28.025-93.034-45.297-146.991-49.782 3.224-6.273 8.851-11.119 15.778-13.29 6.857-2.149 11.172-8.416 10.736-15.592-.434-7.161-5.462-12.848-12.512-14.15-12.205-2.256-26.403-3.399-42.201-3.399s-29.996 1.144-42.2 3.399c-7.051 1.302-12.079 6.989-12.513 14.15-.436 7.177 3.879 13.443 10.736 15.592 6.92 2.169 12.543 7.008 15.768 13.272-16.551 1.363-32.89 3.922-48.827 7.666-4.033.947-6.533 4.984-5.586 9.017s4.991 6.532 9.016 5.586c23.814-5.595 48.579-8.431 73.605-8.431 52.489 0 103.482 12.647 146.285 35.962h-292.584c13.37-7.298 27.576-13.579 42.472-18.758 3.913-1.36 5.981-5.635 4.621-9.547s-5.637-5.984-9.547-4.621c-24.002 8.346-46.334 19.423-66.426 32.926h-12.662c-9.753 0-17.688 7.935-17.688 17.688v15.845c0 7.464 4.654 13.848 11.206 16.441v14.318h-44.176c-9.649 0-17.5 7.851-17.5 17.5v8.476c0 7.826 5.265 14.758 12.804 16.858l48.873 13.613v126.916c0 6.486 1.891 12.773 5.468 18.184l35.944 54.36c5.466 8.267 14.25 13.546 23.97 14.585l9.933 19.431c3.008 5.88 8.978 9.533 15.582 9.533h25.154c9.649 0 17.5-7.851 17.5-17.5v-11.263h121.543v11.263c0 9.649 7.851 17.5 17.5 17.5h25.154c6.604 0 12.574-3.653 15.582-9.534l9.933-19.43c9.72-1.039 18.504-6.318 23.969-14.584l35.945-54.361c3.577-5.41 5.468-11.698 5.468-18.184v-57.408c0-4.142-3.357-7.5-7.5-7.5s-7.5 3.358-7.5 7.5v57.408c0 3.535-1.03 6.962-2.979 9.911l-35.946 54.361c-3.335 5.046-8.938 8.058-14.987 8.058h-250.82c-6.049 0-11.652-3.012-14.988-8.059l-35.945-54.36c-1.949-2.949-2.979-6.376-2.979-9.911v-196.434h358.646v106.85c0 4.142 3.357 7.5 7.5 7.5s7.5-3.358 7.5-7.5v-37.33l48.873-13.613c7.539-2.1 12.804-9.033 12.804-16.858v-8.476c-.001-9.651-7.852-17.502-17.501-17.502zm-250.883-115.023c-4.195-12.626-14.207-22.61-27.107-26.654-.132-.041-.2-.081-.206-.081-.072-.114-.056-.446 0-.532.016-.01.087-.041.222-.066 11.308-2.09 24.589-3.149 39.475-3.149s28.167 1.06 39.476 3.149c.133.025.207.056.194.042.082.11.099.442.04.541-.015.013-.083.054-.22.097-12.899 4.043-22.91 14.025-27.106 26.65-4.118-.15-8.247-.227-12.384-.227-4.136-.001-8.264.082-12.384.23zm-63.388 396.98c0 1.378-1.121 2.5-2.5 2.5h-25.154c-.943 0-1.797-.522-2.227-1.362l-6.34-12.401h36.221zm179.197 2.5h-25.154c-1.379 0-2.5-1.122-2.5-2.5v-11.263h36.22l-6.34 12.4c-.429.84-1.283 1.363-2.226 1.363zm-293.955-331.061c0-1.482 1.206-2.688 2.688-2.688h375.684c1.481 0 2.688 1.206 2.688 2.688v15.845c0 1.482-1.206 2.688-2.688 2.688h-375.685c-1.481 0-2.688-1.206-2.688-2.688v-15.845zm-48.642 74.989c-1.077-.3-1.829-1.29-1.829-2.408v-8.476c0-1.378 1.121-2.5 2.5-2.5h44.177v25.876zm480.171-2.409c0 1.118-.752 2.108-1.829 2.408l-44.848 12.492v-25.876h44.177c1.379 0 2.5 1.122 2.5 2.5z"/><path d="m254.261 429.806h63.713c9.913 0 17.978-8.065 17.978-17.978v-101.193c0-29.603-24.084-53.687-53.687-53.687h-52.529c-29.603 0-53.687 24.083-53.687 53.687v101.194c0 9.913 8.064 17.978 17.978 17.978h28.057c4.143 0 7.5-3.358 7.5-7.5s-3.357-7.5-7.5-7.5h-28.057c-1.642 0-2.978-1.336-2.978-2.978v-101.194c0-21.332 17.354-38.687 38.687-38.687h52.529c21.332 0 38.687 17.354 38.687 38.687v101.194c0 1.642-1.336 2.978-2.978 2.978h-63.713c-4.143 0-7.5 3.358-7.5 7.5s3.357 7.499 7.5 7.499z"/><path d="m236.649 321.667c4.143 0 7.5-3.358 7.5-7.5s-3.357-7.5-7.5-7.5h-17.819c-4.143 0-7.5 3.358-7.5 7.5s3.357 7.5 7.5 7.5z"/><path d="m223.571 344.785h8.338c4.143 0 7.5-3.358 7.5-7.5s-3.357-7.5-7.5-7.5h-8.338c-4.143 0-7.5 3.358-7.5 7.5s3.358 7.5 7.5 7.5z"/><path d="m300.67 314.167c0-4.142-3.357-7.5-7.5-7.5h-17.819c-4.143 0-7.5 3.358-7.5 7.5s3.357 7.5 7.5 7.5h17.819c4.142 0 7.5-3.357 7.5-7.5z"/><path d="m280.091 329.785c-4.143 0-7.5 3.358-7.5 7.5s3.357 7.5 7.5 7.5h8.338c4.143 0 7.5-3.358 7.5-7.5s-3.357-7.5-7.5-7.5z"/><path d="m246.177 397.279h20.67c11.438 0 20.744-9.306 20.744-20.744s-9.306-20.744-20.744-20.744h-20.67c-11.438 0-20.744 9.306-20.744 20.744s9.305 20.744 20.744 20.744zm0-26.488h20.67c3.167 0 5.744 2.577 5.744 5.744s-2.577 5.744-5.744 5.744h-20.67c-3.167 0-5.744-2.577-5.744-5.744s2.577-5.744 5.744-5.744z"/></g></g><g/><g/><g/><g/><g/><g/><g/><g/><g/><g/><g/><g/><g/><g/><g/></svg>