<svg id="Capa_1" enable-background="new 0 0 511.996 511.996" height="512" viewBox="0 0 511.996 511.996" width="512" xmlns="http://www.w3.org/2000/svg"><g><g><g><path d="m369.494 120.629 22.193-22.193c21.195-21.195 38.107-46.095 51.576-72.872 1.455-2.893 3.39-5.606 5.806-8.022 12.386-12.386 34.411-13.959 46.508-1.115 12.843 12.096 11.271 34.122-1.115 46.508-2.415 2.415-5.129 4.35-8.022 5.806-26.777 13.469-51.677 30.381-72.872 51.576l-22.193 22.193z" fill="#fcb44d"/><path d="m495.574 16.429c12.845 12.096 11.27 34.116-1.118 46.504-2.413 2.413-5.124 4.349-8.019 5.81-26.776 13.467-51.678 30.382-72.873 51.577l-22.191 22.191-15.239-15.239 22.191-22.191c21.195-21.195 46.097-38.11 72.873-51.577 2.895-1.46 5.607-3.397 8.019-5.81 9.74-9.74 12.801-25.423 7.416-37.564 3.309 1.467 6.357 3.549 8.941 6.299z" fill="#fca62f"/><path d="m400.827 88.749 22.426 22.426c-2.483 2.216-4.921 4.477-7.308 6.8-.8.775-1.594 1.556-2.381 2.343l-22.191 22.191-21.88-21.88 22.191-22.191c3.149-3.149 6.191-6.381 9.143-9.689z" fill="#fc6d5a"/><path d="m408.002 95.924 15.239 15.239c-2.476 2.222-4.908 4.489-7.296 6.813-.8.775-1.594 1.556-2.381 2.343l-22.191 22.191-15.239-15.239 22.191-22.191c3.144-3.143 6.375-6.197 9.677-9.156z" fill="#fb5652"/></g><g><path d="m120.639 369.484-22.193 22.193c-21.195 21.195-46.095 38.107-72.872 51.576-2.893 1.455-5.606 3.39-8.022 5.806-12.386 12.386-13.959 34.411-1.115 46.508 12.096 12.843 34.122 11.271 46.508-1.115 2.415-2.415 4.35-5.129 5.806-8.022 13.469-26.777 30.381-51.677 51.576-72.872l22.193-22.193z" fill="#fcb44d"/><path d="m16.438 495.564c12.096 12.845 34.116 11.27 46.504-1.118 2.413-2.413 4.349-5.124 5.81-8.019 13.467-26.776 30.382-51.678 51.577-72.873l22.191-22.191-15.239-15.239-22.191 22.191c-21.195 21.195-38.11 46.097-51.577 72.873-1.46 2.895-3.397 5.607-5.81 8.019-9.74 9.74-25.423 12.801-37.564 7.416 1.467 3.309 3.55 6.357 6.299 8.941z" fill="#fca62f"/><path d="m88.759 400.818 22.426 22.426c2.216-2.483 4.477-4.921 6.8-7.308.775-.8 1.556-1.594 2.343-2.381l22.191-22.191-21.88-21.88-22.191 22.191c-3.149 3.149-6.381 6.19-9.689 9.143z" fill="#fc6d5a"/><path d="m95.934 407.992 15.239 15.239c2.222-2.476 4.489-4.908 6.813-7.296.775-.8 1.556-1.594 2.343-2.381l22.191-22.191-15.239-15.239-22.191 22.191c-3.143 3.144-6.197 6.376-9.156 9.677z" fill="#fb5652"/></g></g><path d="m412.45 174.494-237.946 237.947c-7.81 7.81-20.474 7.81-28.284 0l-46.658-46.658c-7.81-7.81-7.81-20.474 0-28.284l237.946-237.947c7.81-7.81 20.474-7.81 28.284 0l46.658 46.658c7.811 7.811 7.811 20.474 0 28.284z" fill="#fee7c9"/><path d="m412.446 174.496-237.94 237.94c-7.81 7.81-20.48 7.81-28.29 0l-24.1-24.1c7.81 7.82 20.48 7.82 28.29 0l237.94-237.94c7.82-7.81 7.82-20.48 0-28.29l24.1 24.1c7.81 7.811 7.81 20.48 0 28.29z" fill="#fddaa9"/><g><path d="m511.129 29.791c-.856-4.052-4.83-6.644-8.891-5.783-4.052.857-6.642 4.838-5.783 8.891 1.85 8.741-1.015 18.448-7.3 24.733-1.796 1.796-3.844 3.279-6.087 4.407-22.247 11.191-42.166 24.228-59.464 38.879l-12.521-12.521c14.651-17.298 27.688-37.217 38.879-59.465 1.128-2.242 2.611-4.29 4.409-6.088 6.013-6.013 15.388-8.941 23.874-7.459 4.091.713 7.966-2.02 8.679-6.099.712-4.081-2.019-7.966-6.099-8.679-13.359-2.329-27.558 2.126-37.06 11.629-2.932 2.931-5.355 6.28-7.204 9.956-13.943 27.717-30.826 51.584-50.179 70.938l-8.203 8.202-7.085-7.086c-10.724-10.721-28.17-10.72-38.892 0l-79.405 79.406c-2.929 2.93-2.929 7.678 0 10.607 2.93 2.928 7.678 2.928 10.607 0l79.405-79.406c2.36-2.361 5.5-3.661 8.838-3.661 3.339 0 6.479 1.3 8.839 3.661l46.658 46.658c4.874 4.873 4.874 12.804 0 17.677l-177.403 177.408c-2.929 2.93-2.929 7.678 0 10.607 1.465 1.464 3.384 2.196 5.304 2.196 1.919 0 3.839-.732 5.304-2.196l177.406-177.405c5.193-5.194 8.054-12.101 8.054-19.445 0-7.346-2.86-14.252-8.054-19.446l-7.085-7.086 8.201-8.202c19.355-19.354 43.223-36.236 70.938-50.18 3.677-1.849 7.026-4.272 9.955-7.202 9.778-9.778 14.24-24.868 11.365-38.446zm-122.341 82.149 8.203-8.202c1.365-1.365 2.717-2.755 4.058-4.161l11.377 11.377c-1.407 1.342-2.797 2.694-4.163 4.059l-8.201 8.202z"/><path d="m205.94 370.398-36.739 36.739c-2.36 2.361-5.5 3.661-8.839 3.661-3.338 0-6.478-1.3-8.838-3.661l-46.658-46.658c-4.874-4.873-4.874-12.804 0-17.677l134.739-134.739c2.929-2.93 2.929-7.678 0-10.607-2.93-2.928-7.678-2.928-10.607 0l-134.74 134.739c-10.722 10.723-10.722 28.169 0 38.892l7.086 7.086-8.201 8.202c-19.354 19.354-43.223 36.236-70.938 50.18-3.677 1.849-7.026 4.272-9.955 7.202-7.95 7.949-12.411 19.123-12.238 30.656.154 10.377 4.102 19.764 11.12 26.46 6.696 7.019 16.083 10.966 26.46 11.12.216.004.43.005.645.005 11.304 0 22.211-4.441 30.01-12.241 2.932-2.931 5.355-6.28 7.204-9.956 13.943-27.717 30.826-51.584 50.18-70.938l8.202-8.202 7.085 7.085c5.361 5.36 12.403 8.041 19.446 8.041 7.042 0 14.084-2.681 19.445-8.041l36.739-36.739c2.929-2.93 2.929-7.678 0-10.607-2.93-2.93-7.678-2.93-10.608-.002zm-143.891 112.662c-1.128 2.242-2.611 4.29-4.409 6.088-5.022 5.022-12.397 7.967-19.825 7.846-6.365-.095-12.019-2.428-15.919-6.569-.103-.108-.209-.215-.317-.317-4.142-3.9-6.475-9.554-6.569-15.919-.11-7.392 2.822-14.803 7.848-19.827 1.796-1.796 3.844-3.279 6.087-4.407 22.247-11.191 42.165-24.228 59.464-38.879l12.521 12.521c-14.653 17.296-27.69 37.215-38.881 59.463zm52.973-74.806c-1.365 1.365-2.717 2.755-4.058 4.161l-11.377-11.377c1.407-1.342 2.797-2.694 4.163-4.059l8.201-8.202 11.273 11.273z"/></g></g></svg>