<svg id="Capa_1" enable-background="new 0 0 512 512" viewBox="0 0 512 512" xmlns="http://www.w3.org/2000/svg"><g><g><g><g><g><g><path d="m158.479 176.752v-11.97c0-13.386 6.425-25.222 15.864-29.226 5.159-2.188 4.724-12.278-.592-13.607-6.576-1.644-15.419-2.929-26.998-2.929s-20.422 1.285-26.998 2.929c-5.317 1.329-5.751 11.419-.592 13.607 9.44 4.004 15.864 15.839 15.864 29.226v11.97z" fill="#7a8d98"/></g></g><g><g><path d="m177.987 128.862c0 2.83-1.19 5.651-3.646 6.696-9.434 4.004-15.864 15.841-15.864 29.226v11.966h-23.452v-11.966c0-16.378 3.142-26.204 15.757-32.902 2.348-1.247 3.638-3.867 3.638-6.689 0-2.402-.862-4.805-2.532-6.079 9.106.313 16.291 1.442 21.866 2.837 2.784.695 4.233 3.799 4.233 6.911z" fill="#596d76"/></g></g></g><g><path d="m271.655 334.432 21.776-36.95c6.189-10.501 17.469-16.947 29.658-16.947h38.618v-33.861h-90.052z" fill="#7a8d98"/><path d="m300.674 246.675v42.188c6.151-5.286 14.063-8.327 22.415-8.327h38.618v-33.861z" fill="#596d76"/><g><path d="m238.443 392.979h-188.084c-18.343 0-33.213-14.87-33.213-33.213v-118.393h254.509v118.393c0 18.343-14.87 33.213-33.212 33.213z" fill="#1891cd"/><path d="m17.146 241.373v34.794h202.417c5.754 0 10.419 4.665 10.419 10.419v73.183c0 18.338-14.879 33.206-33.217 33.206h41.677c18.345 0 33.217-14.872 33.217-33.217v-118.384z" fill="#127cac"/><g><g><path d="m276.364 221.023c-32.715-36.537-78.687-59.279-129.609-59.279s-96.894 22.742-129.609 59.279z" fill="#9ce6fb"/></g></g><g><g><path d="m276.359 221.026h-54.722c-24.694-31.581-58.025-52.857-95.326-58.046 6.71-.823 13.535-1.24 20.443-1.24 50.919 0 96.899 22.745 129.605 59.286z" fill="#68dbf9"/></g></g><g><g><path d="m277.969 246.675h-262.428c-4.441 0-8.041-3.6-8.041-8.041v-22.055c0-4.441 3.6-8.041 8.041-8.041h262.428c4.441 0 8.041 3.6 8.041 8.041v22.055c.001 4.441-3.6 8.041-8.041 8.041z" fill="#d9e7eb"/></g><g><path d="m286.008 216.577v22.058c0 4.439-3.595 8.044-8.033 8.044h-37.509c4.439 0 8.033-3.605 8.033-8.044v-22.058c0-4.439-3.595-8.044-8.033-8.044h37.509c4.438 0 8.033 3.605 8.033 8.044z" fill="#b7c4ce"/></g></g></g><path d="m329.539 246.675v33.652c0 7.996 6.482 14.478 14.478 14.478h146.005c7.996 0 14.478-6.482 14.478-14.478v-19.175c0-7.996-6.482-14.478-14.478-14.478h-160.483z" fill="#ffbc8a"/><path d="m504.5 261.15v19.182c0 7.992-6.481 14.472-14.483 14.472h-37.28c8.002 0 14.483-6.481 14.483-14.472v-19.182c0-7.992-6.481-14.472-14.483-14.472h37.28c8.002 0 14.483 6.481 14.483 14.472z" fill="#f5a871"/></g></g></g><path d="m490.022 239.175h-85.847c-4.143 0-7.5 3.357-7.5 7.5s3.357 7.5 7.5 7.5h85.847c3.848 0 6.978 3.13 6.978 6.978v19.175c0 3.848-3.13 6.978-6.978 6.978h-146.005c-3.848 0-6.978-3.13-6.978-6.978v-26.152h34.959c4.143 0 7.5-3.357 7.5-7.5s-3.357-7.5-7.5-7.5h-78.515c.006-.181.027-.358.027-.541v-22.056c0-8.569-6.972-15.541-15.542-15.541h-10.993c-12.161-10.911-25.567-20.143-39.868-27.43-3.688-1.881-8.207-.414-10.087 3.277-1.88 3.69-.413 8.207 3.277 10.088 7.943 4.047 15.582 8.762 22.861 14.064h-192.814c28.333-20.606 61.959-31.794 96.411-31.794 15.311 0 30.522 2.177 45.213 6.472 3.973 1.158 8.141-1.118 9.303-5.095 1.162-3.976-1.119-8.142-5.095-9.304-9.451-2.762-19.102-4.7-28.853-5.846 1.848-6.216 5.474-11.111 9.949-13.008 5.402-2.291 8.682-8.304 8.161-14.962-.502-6.419-4.373-11.454-9.861-12.826-8.365-2.092-18.061-3.152-28.817-3.152s-20.452 1.061-28.817 3.152c-5.489 1.372-9.36 6.407-9.862 12.826-.521 6.658 2.759 12.671 8.16 14.961 4.473 1.897 8.097 6.788 9.946 12.999-36.543 4.334-71.312 20.138-99.655 45.577h-10.985c-8.57 0-15.542 6.972-15.542 15.541v22.056c0 6.483 3.993 12.045 9.646 14.372v53.963c0 4.143 3.358 7.5 7.5 7.5s7.5-3.357 7.5-7.5v-52.794h239.509v105.591c0 14.178-11.535 25.713-25.713 25.713h-188.083c-14.178 0-25.712-11.535-25.712-25.713v-20.619c0-4.143-3.358-7.5-7.5-7.5s-7.5 3.357-7.5 7.5v20.619c0 22.449 18.264 40.713 40.712 40.713h188.083c22.449 0 40.713-18.264 40.713-40.713v-23.288l20.738-35.187c4.817-8.175 13.706-13.254 23.196-13.254h.348c3.13 8.326 11.172 14.269 20.578 14.269h146.006c12.118 0 21.978-9.859 21.978-21.978v-19.175c.001-12.119-9.858-21.978-21.977-21.978zm-366.994-110.104c-.005-.062-.007-.126-.007-.19 6.86-1.566 14.834-2.359 23.733-2.359 8.897 0 16.872.793 23.732 2.359 0 .064-.002.128-.007.19-9.01 4.247-15.756 13.715-18.333 25.268-1.796-.055-3.592-.096-5.391-.096-1.801 0-3.599.038-5.395.094-2.577-11.551-9.323-21.018-18.332-25.266zm-108.028 87.507c0-.299.243-.541.542-.541h262.427c.299 0 .542.242.542.541v22.056c0 .298-.243.541-.542.541h-262.427c-.299 0-.542-.243-.542-.541zm271.971 77.097-7.815 13.261v-52.761h42.884v18.896c-14.38.366-27.746 8.177-35.069 20.604z"/></g><g/><g/><g/><g/><g/><g/><g/><g/><g/><g/><g/><g/><g/><g/><g/></svg>