<svg id="Capa_1" enable-background="new 0 0 512 512" viewBox="0 0 512 512" xmlns="http://www.w3.org/2000/svg"><g><g><g><g><path d="m372.093 268.212v86.368c0 8.31-4.154 16.069-11.07 20.676l-21.395 14.254c-2.064 1.375-4.827-.105-4.827-2.585v-151.058c0-2.48 2.764-3.96 4.827-2.585l21.395 14.254c6.916 4.607 11.07 12.367 11.07 20.676z" fill="#f4f6f7"/><path d="m403.847 268.212v86.368c0 8.31-4.154 16.069-11.07 20.676l-21.395 14.254c-2.064 1.375-4.827-.105-4.827-2.585v-151.058c0-2.48 2.764-3.96 4.827-2.585l21.395 14.254c6.915 4.607 11.07 12.367 11.07 20.676z" fill="#d9e7eb"/><path d="m435.6 268.212v86.368c0 8.31-4.154 16.069-11.07 20.676l-21.395 14.254c-2.064 1.375-4.827-.105-4.827-2.585v-151.058c0-2.48 2.764-3.96 4.827-2.585l21.395 14.254c6.916 4.607 11.07 12.367 11.07 20.676z" fill="#f4f6f7"/><path d="m467.354 268.212v86.368c0 8.31-4.154 16.069-11.07 20.676l-21.395 14.254c-2.064 1.375-4.827-.105-4.827-2.585v-151.058c0-2.48 2.763-3.959 4.827-2.585l21.395 14.254c6.915 4.607 11.07 12.367 11.07 20.676z" fill="#d9e7eb"/></g><g><g><g><g><path d="m107.65 301.337h-54.051v-27.354c0-2.761 2.239-5 5-5h44.051c2.761 0 5 2.239 5 5z" fill="#d9e7eb"/></g><g><path d="m107.653 273.985v27.35h-27.03v-27.35c0-2.76-2.24-5-5-5h27.03c2.76 0 5 2.24 5 5z" fill="#b7c4ce"/></g></g><g><g><path d="m268.242 301.337h-54.051v-27.354c0-2.761 2.239-5 5-5h44.051c2.761 0 5 2.239 5 5z" fill="#d9e7eb"/></g><g><path d="m268.245 273.985v27.35h-27.03v-27.35c0-2.76-2.24-5-5-5h27.03c2.76 0 5 2.24 5 5z" fill="#b7c4ce"/></g></g></g><g><g><path d="m231.792 66.135h-35.87c-28.949 0-52.5 23.551-52.5 52.5v147.913h35v-147.913c0-9.649 7.851-17.5 17.5-17.5h35.87c9.649 0 17.5 7.851 17.5 17.5v28.876h35v-28.876c0-28.949-23.552-52.5-52.5-52.5z" fill="#b7c4ce"/></g><g><path d="m187.947 301.337h-54.051v-43.354c0-2.761 2.239-5 5-5h44.051c2.761 0 5 2.239 5 5z" fill="#d9e7eb"/></g><g><path d="m187.95 257.985v43.35h-27.03v-43.35c0-2.76-2.24-5-5-5h27.03c2.76 0 5 2.24 5 5z" fill="#b7c4ce"/></g><g><g><path d="m241.248 144.404v20.823c0 2.761 2.239 5 5 5h41.088c2.761 0 5-2.239 5-5v-20.823c0-2.761-2.239-5-5-5h-41.088c-2.762 0-5 2.239-5 5z" fill="#d9e7eb"/></g><g><path d="m292.34 144.405v20.82c0 2.76-2.24 5-5 5h-25.55c2.76 0 5-2.24 5-5v-20.82c0-2.76-2.24-5-5-5h25.55c2.76 0 5 2.24 5 5z" fill="#b7c4ce"/></g></g></g><g><g><g><path d="m292.335 410.865v-78.731h-262.826v78.731c0 19.33 15.67 35 35 35h192.827c19.329 0 34.999-15.67 34.999-35z" fill="#596d76"/><path d="m29.508 332.135v28.487h212.827c5.523 0 10 4.477 10 10v40.243c0 19.33-15.67 35-35 35h40c19.33 0 35-15.67 35-35v-78.73z" fill="#475a61"/></g><g><path d="m482.491 410.865v-78.731h-162.826v78.731c0 19.33 15.67 35 35 35h92.827c19.329 0 34.999-15.67 34.999-35z" fill="#596d76"/><path d="m319.665 332.135v28.487h112.825c5.523 0 10 4.477 10 10v40.243c0 19.33-15.67 35-35 35h40c19.33 0 35-15.67 35-35v-78.73z" fill="#475a61"/></g></g><g><g><g><path d="m494.997 299.947h-477.994c-5.248 0-9.503 4.255-9.503 9.503v18.659c0 5.248 4.255 9.503 9.503 9.503h477.994c5.248 0 9.503-4.255 9.503-9.503v-18.659c0-5.249-4.255-9.503-9.503-9.503z" fill="#b7c4ce"/><path d="m504.5 309.446v18.66c0 5.25-4.25 9.51-9.5 9.51h-36.74c5.25 0 9.5-4.26 9.5-9.51v-18.66c0-5.24-4.25-9.5-9.5-9.5h36.74c5.25 0 9.5 4.26 9.5 9.5z" fill="#a0acb9"/></g></g></g></g></g></g></g><path d="m494.997 292.447h-20.144v-24.235c0-10.843-5.387-20.906-14.412-26.918l-21.395-14.253c-3.261-2.174-7.432-2.374-10.886-.524-3.454 1.849-5.6 5.432-5.6 9.35v1.345l-15.268-10.172c-3.261-2.173-7.433-2.374-10.886-.524-3.454 1.85-5.6 5.432-5.6 9.35v1.346l-15.268-10.172c-3.261-2.173-7.433-2.374-10.886-.524-3.454 1.85-5.6 5.432-5.6 9.35v1.346l-15.268-10.172c-3.261-2.172-7.431-2.373-10.886-.523-3.454 1.849-5.6 5.432-5.6 9.35v56.58h-51.559v-18.464c0-6.893-5.607-12.5-12.5-12.5h-14.525v-11.395h9.031c4.142 0 7.5-3.358 7.5-7.5s-3.358-7.5-7.5-7.5h-33.062c-4.142 0-7.5 3.358-7.5 7.5s3.358 7.5 7.5 7.5h9.031v11.395h-14.525c-6.893 0-12.5 5.607-12.5 12.5v18.464h-11.244v-34.464c0-5.866-4.067-10.787-9.525-12.127v-48.343c0-4.142-3.358-7.5-7.5-7.5s-7.5 3.358-7.5 7.5v47.971h-20v-126.849c0-24.813 20.187-45 45-45h35.87c24.813 0 45 20.187 45 45v13.27h-20v-13.27c0-13.785-11.215-25-25-25h-35.87c-13.785 0-25 11.215-25 25v46.7c0 4.142 3.358 7.5 7.5 7.5s7.5-3.358 7.5-7.5v-46.7c0-5.514 4.486-10 10-10h35.87c5.514 0 10 4.486 10 10v14.105c-4.696 1.8-8.044 6.343-8.044 11.665v20.823c0 6.893 5.607 12.5 12.5 12.5h41.088c6.893 0 12.5-5.607 12.5-12.5v-20.823c0-5.321-3.348-9.864-8.044-11.665v-14.105c0-33.084-26.916-60-60-60h-35.87c-33.084 0-60 26.916-60 60v127.22c-5.459 1.34-9.525 6.261-9.525 12.127v34.464h-11.245v-18.464c0-6.893-5.607-12.5-12.5-12.5h-14.525v-11.395h9.031c4.142 0 7.5-3.358 7.5-7.5s-3.358-7.5-7.5-7.5h-33.062c-4.142 0-7.5 3.358-7.5 7.5s3.358 7.5 7.5 7.5h9.031v11.395h-14.525c-6.893 0-12.5 5.607-12.5 12.5v18.464h-29.097c-9.376.001-17.003 7.628-17.003 17.004v18.659c0 9.375 7.627 17.003 17.003 17.003h5.005v21.533c0 4.142 3.358 7.5 7.5 7.5s7.5-3.358 7.5-7.5v-21.533h247.827v65.753c0 15.164-12.336 27.5-27.5 27.5h-192.827c-15.164 0-27.5-12.336-27.5-27.5v-12.043c0-4.142-3.358-7.5-7.5-7.5s-7.5 3.358-7.5 7.5v12.043c0 23.435 19.065 42.5 42.5 42.5h192.827c23.435 0 42.5-19.065 42.5-42.5v-65.753h12.329v65.753c0 23.435 19.065 42.5 42.5 42.5h92.827c23.435 0 42.5-19.065 42.5-42.5v-65.753h5.005c9.375 0 17.003-7.627 17.003-17.003v-18.659c.001-9.376-7.626-17.003-17.002-17.003zm-210.162-129.72h-36.088v-15.823h36.088zm152.727 81.348 14.564 9.703c4.839 3.224 7.728 8.62 7.728 14.435v22.741h-22.292zm-17.19 9.702c.765.51 1.49 1.12 2.19 1.776v36.894h-16.753v-48.372zm-31.753.001c.774.516 1.503 1.104 2.189 1.744v36.925h-16.753v-48.372zm-46.318-9.703 14.564 9.703c.763.508 1.493 1.103 2.189 1.76v36.908h-16.754v-48.371zm-120.61 32.407h39.051v15.964h-39.051zm-80.295-16h39.051v31.964h-39.051zm-80.296 16h39.051v15.964h-39.051zm435.9 51.627c0 1.104-.898 2.003-2.003 2.003h-112.666c-4.142 0-7.5 3.358-7.5 7.5s3.358 7.5 7.5 7.5h92.661v65.753c0 15.164-12.336 27.5-27.5 27.5h-92.827c-15.164 0-27.5-12.336-27.5-27.5v-65.753h22.989c4.142 0 7.5-3.358 7.5-7.5s-3.358-7.5-7.5-7.5h-333.151c-1.104 0-2.003-.898-2.003-2.003v-18.659c0-1.104.898-2.003 2.003-2.003h477.994c1.104 0 2.003.898 2.003 2.003z"/></g><g/><g/><g/><g/><g/><g/><g/><g/><g/><g/><g/><g/><g/><g/><g/></svg>