<svg id="Capa_1" enable-background="new 0 0 512 512" height="512" viewBox="0 0 512 512" width="512" xmlns="http://www.w3.org/2000/svg"><g><path d="m501.128 123.022-112.146-112.145c-4.502-4.502-11.802-4.502-16.304 0l-135.73 135.73c-4.502 4.502-4.502 11.802 0 16.304l44.081 44.081-98.331 98.331 23.982 23.982 98.331-98.331 44.082 44.082c4.502 4.502 11.802 4.502 16.304 0l135.729-135.73c4.504-4.502 4.504-11.802.002-16.304z" fill="#b7c4ce"/><path d="m501.128 139.323-135.73 135.729c-4.504 4.504-11.802 4.504-16.306 0l-19.799-19.799c4.504 4.504 11.802 4.504 16.306 0l135.729-135.729c4.497-4.497 4.504-11.801 0-16.306l19.799 19.799c4.505 4.504 4.498 11.808.001 16.306z" fill="#a0acb9"/><path d="m305.011 230.971-98.33 98.33-19.799-19.799 91.259-91.259c3.905-3.905 10.237-3.905 14.142 0z" fill="#a0acb9"/><g><g><g><path d="m16.264 495.74c-11.679-11.679-11.679-30.614 0-42.293l157.922-157.922c6.744-6.744 17.679-6.744 24.424 0l17.869 17.869c6.744 6.744 6.744 17.679 0 24.424l-157.922 157.922c-11.679 11.679-30.614 11.679-42.293 0z" fill="#fcb44d"/><path d="m216.473 337.82-157.919 157.919c-11.682 11.682-30.61 11.682-42.292 0-3.856-3.856-6.432-8.486-7.736-13.41 9.97 2.682 21.057.09 28.882-7.736l157.919-157.919c6.196-6.196 6.701-15.896 1.524-22.671.603.456 1.198.97 1.753 1.524l17.869 17.869c6.75 6.75 6.75 17.674 0 24.424z" fill="#fca62f"/><g><path d="m204.389 349.909 12.09-12.09c6.744-6.744 6.744-17.679 0-24.424l-17.869-17.869c-6.744-6.744-17.679-6.744-24.424 0l-12.09 12.09z" fill="#fc6d5a"/></g><path d="m216.473 337.82-12.089 12.089-21.146-21.146 12.089-12.089c6.196-6.196 6.693-15.904 1.525-22.671.302.236.603.473.897.734.293.245.579.514.856.791l17.869 17.869c6.741 6.741 6.749 17.673-.001 24.423z" fill="#fb5652"/></g></g></g><g><path d="m397.358 232.489-37.264 37.263c-.761.761-1.772 1.18-2.848 1.18s-2.088-.419-2.849-1.18l-44.082-44.082c-1.407-1.407-3.314-2.197-5.304-2.197s-3.896.79-5.304 2.197l-80.173 80.174-13.375-13.376 80.173-80.174c2.929-2.929 2.929-7.678 0-10.606l-44.081-44.082c-1.571-1.571-1.571-4.126 0-5.697l135.731-135.729c1.569-1.569 4.125-1.571 5.696 0l64.835 64.834c2.929 2.928 7.677 2.93 10.607 0 2.929-2.929 2.929-7.678 0-10.606l-64.834-64.835c-3.595-3.594-8.374-5.573-13.456-5.573-5.083 0-9.861 1.979-13.456 5.573l-135.729 135.73c-7.419 7.419-7.418 19.491 0 26.91l38.778 38.778-76.998 76.998c-8.422-2.477-17.91-.4-24.543 6.232l-80.428 80.428c-2.929 2.929-2.929 7.678 0 10.606 2.93 2.929 7.678 2.929 10.607 0l63.034-63.034 31.686 31.686-140.528 140.53c-4.231 4.232-9.858 6.563-15.842 6.563s-11.611-2.331-15.844-6.563c-4.231-4.231-6.563-9.858-6.563-15.843s2.331-11.611 6.563-15.843l53.693-53.693c2.929-2.929 2.929-7.678 0-10.606-2.93-2.929-7.678-2.929-10.607 0l-53.692 53.693c-7.065 7.065-10.957 16.458-10.957 26.45s3.892 19.385 10.956 26.45c7.066 7.064 16.459 10.955 26.451 10.955s19.385-3.891 26.45-10.956l157.922-157.922c6.632-6.632 8.708-16.12 6.231-24.542l76.998-76.999 38.778 38.778c3.595 3.594 8.373 5.573 13.455 5.573h.001c5.083 0 9.861-1.979 13.455-5.573l37.264-37.263c2.929-2.929 2.929-7.678 0-10.606-2.929-2.93-7.677-2.93-10.607-.001zm-186.183 100.026-6.786 6.786-31.686-31.686 6.787-6.787c3.809-3.81 10.008-3.809 13.816 0l17.869 17.87c3.81 3.809 3.81 10.008 0 13.817z"/><path d="m506.431 117.719-23.51-23.509c-2.93-2.928-7.678-2.929-10.607 0s-2.929 7.678 0 10.606l23.51 23.509c1.571 1.571 1.571 4.126 0 5.697l-74.664 74.665c-2.929 2.929-2.929 7.678 0 10.606 1.465 1.464 3.385 2.197 5.304 2.197s3.839-.732 5.304-2.197l74.664-74.665c7.418-7.418 7.418-19.49-.001-26.909z"/><path d="m392.844 58.134c-2.93-2.929-7.678-2.929-10.607 0l-92.425 92.425c-2.929 2.929-2.929 7.678 0 10.606 1.465 1.464 3.385 2.197 5.304 2.197s3.839-.732 5.304-2.197l92.425-92.425c2.928-2.928 2.928-7.677-.001-10.606z"/><path d="m325.629 193.875c1.919 0 3.839-.732 5.304-2.197l92.425-92.425c2.929-2.929 2.929-7.678 0-10.606-2.93-2.929-7.678-2.929-10.607 0l-92.425 92.425c-2.929 2.929-2.929 7.678 0 10.606 1.464 1.465 3.384 2.197 5.303 2.197z"/><path d="m356.142 224.388c1.919 0 3.839-.732 5.304-2.197l92.425-92.425c2.929-2.929 2.929-7.678 0-10.606-2.93-2.929-7.678-2.929-10.607 0l-92.425 92.425c-2.929 2.929-2.929 7.678 0 10.606 1.464 1.465 3.384 2.197 5.303 2.197z"/></g></g></svg>