<svg id="Capa_1" enable-background="new 0 0 512 512" viewBox="0 0 512 512" xmlns="http://www.w3.org/2000/svg"><g><g><g><g><g><path d="m262.879 8.293c-65.646 27.75-112.771 103.673-112.771 193h233.374c0-89.326-47.125-165.25-112.771-193-2.503-1.057-5.329-1.057-7.832 0z" fill="#fb4a59"/><path d="m383.483 201.29h-36c0-73.95-32.31-138.73-80.69-174.57v-19.22c1.34 0 2.67.26 3.92.79 65.64 27.75 112.77 103.68 112.77 193z" fill="#f82f40"/><path d="m263.194 9.079c-27.076 29.443-46.319 104.391-46.319 192.214h99.839c0-87.822-19.244-162.771-46.319-192.214-1.936-2.105-5.264-2.105-7.201 0z" fill="#fb6672"/><g><g><path d="m424.869 217.172v-27.033c0-5.729-4.644-10.374-10.374-10.374h-290.575c-5.729 0-10.374 4.644-10.374 10.374v27.033z" fill="#fb4a59"/><path d="m424.873 190.14v27.03h-40v-27.03c0-5.73-4.65-10.37-10.38-10.37h40c5.73 0 10.38 4.64 10.38 10.37z" fill="#f82f40"/></g><g><path d="m65.65 217.172c-5.072 0-6.937 6.706-2.571 9.288 20.571 12.165 50.467 36.95 50.467 78.262v146.949c0 29.176 23.652 52.828 52.828 52.828h205.666c29.176 0 52.828-23.652 52.828-52.828v-166.085l25.535-54.149c3.128-6.633-1.711-14.265-9.045-14.265z" fill="#9ce6fb"/><path d="m450.403 231.44-25.53 54.15v166.08c0 29.18-23.66 52.83-52.83 52.83h-40c29.17 0 52.83-23.65 52.83-52.83v-166.08l25.53-54.15c3.13-6.64-1.71-14.27-9.04-14.27h40c7.33 0 12.17 7.63 9.04 14.27z" fill="#68dbf9"/><path d="m113.546 217.172v95.849h16.688c4.203 0 7.99-2.536 9.591-6.422l12.074-29.307c5.604-13.601 18.86-22.477 33.57-22.477h167.474c14.71 0 27.966 8.876 33.57 22.477l12.074 29.307c1.601 3.886 5.389 6.422 9.591 6.422h16.688v-95.849z" fill="#f82f40"/><path d="m424.873 217.17v95.85h-16.69c-4.21 0-7.99-2.53-9.59-6.42l-12.08-29.31c-.49-1.19-1.04-2.34-1.64-3.45v-56.67z" fill="#e22334"/></g></g></g></g></g></g><g><path d="m456.139 217.802c-3.227-5.091-8.752-8.13-14.78-8.13h-8.991v-19.533c0-9.855-8.018-17.874-17.874-17.874h-25.173c-4.327-38.127-17.167-74.055-37.277-104.083-20.566-30.708-47.681-53.806-78.414-66.797-1.762-.745-3.63-1.172-5.517-1.313-.435-.046-.876-.072-1.319-.072s-.883.026-1.32.073c-1.886.141-3.754.568-5.515 1.312-29.14 12.317-55.198 33.886-75.358 62.373-2.393 3.381-1.591 8.062 1.79 10.455 3.38 2.392 8.062 1.592 10.455-1.79 12.65-17.875 27.769-32.757 44.531-43.98-16.952 33.395-28.422 85.101-31.286 143.823h-50.744c3.132-26.017 10.389-50.613 21.605-73.177 1.843-3.709.331-8.211-3.378-10.055-3.711-1.843-8.21-.332-10.055 3.378-12.238 24.621-20.049 51.473-23.263 79.854h-20.336c-9.855 0-17.874 8.018-17.874 17.874v19.533h-40.396c-5.708 0-10.556 3.703-12.064 9.215-1.503 5.495.778 11.132 5.675 14.029 38.668 22.867 46.785 51.67 46.785 71.807v146.949c0 33.265 27.063 60.328 60.328 60.328h205.666c33.265 0 60.328-27.063 60.328-60.328v-53.158c0-4.142-3.358-7.5-7.5-7.5s-7.5 3.358-7.5 7.5v53.158c0 24.994-20.334 45.328-45.328 45.328h-205.666c-24.994 0-45.328-20.334-45.328-45.328v-131.152h9.188c7.27 0 13.757-4.343 16.526-11.065l12.074-29.306c4.463-10.833 14.918-17.834 26.635-17.834h103.041c4.142 0 7.5-3.358 7.5-7.5s-3.358-7.5-7.5-7.5h-103.04c-17.818 0-33.717 10.645-40.504 27.12l-12.074 29.306c-.445 1.081-1.488 1.779-2.657 1.779h-9.188v-80.849h296.322v80.849h-9.188c-1.169 0-2.211-.698-2.657-1.779l-12.074-29.306c-6.788-16.475-22.687-27.12-40.505-27.12h-32.256c-4.142 0-7.5 3.358-7.5 7.5s3.358 7.5 7.5 7.5h32.256c11.717 0 22.172 7 26.636 17.834l12.074 29.306c2.769 6.722 9.256 11.065 16.526 11.065h9.188v45.815c0 4.142 3.358 7.5 7.5 7.5s7.5-3.358 7.5-7.5v-79.07l24.818-52.63c2.571-5.451 2.18-11.744-1.048-16.834zm-116.557-141.272c18.485 27.601 30.403 60.613 34.643 95.736h-50.726c-2.864-58.726-14.336-110.435-31.289-143.83 18.051 12.071 34.151 28.353 47.372 48.094zm-72.787-60.185c22.073 26.343 38.206 86.634 41.688 155.92h-83.376c3.482-69.286 19.614-129.577 41.688-155.92zm-164.854 233.704c-7.359-9.437-16.638-17.948-27.653-25.377h31.759v31.059c-1.29-1.921-2.652-3.817-4.106-5.682zm19.106-59.91c0-1.584 1.289-2.874 2.874-2.874h290.575c1.584 0 2.874 1.289 2.874 2.874v19.533h-296.323zm322.573 38.099-11.251 23.86v-27.426h8.991c1.196 0 1.836.728 2.111 1.162.275.433.66 1.322.149 2.404z"/><path d="m203.439 416.536h-1.416c-4.142 0-7.5 3.358-7.5 7.5s3.358 7.5 7.5 7.5h1.416c4.142 0 7.5-3.358 7.5-7.5s-3.358-7.5-7.5-7.5z"/><path d="m203.439 352.675h-1.416c-4.142 0-7.5 3.358-7.5 7.5s3.358 7.5 7.5 7.5h1.416c4.142 0 7.5-3.358 7.5-7.5s-3.358-7.5-7.5-7.5z"/><path d="m203.439 288.814h-1.416c-4.142 0-7.5 3.358-7.5 7.5s3.358 7.5 7.5 7.5h1.416c4.142 0 7.5-3.358 7.5-7.5s-3.358-7.5-7.5-7.5z"/><path d="m336.391 288.814h-1.415c-4.142 0-7.5 3.358-7.5 7.5s3.358 7.5 7.5 7.5h1.415c4.142 0 7.5-3.358 7.5-7.5s-3.358-7.5-7.5-7.5z"/><path d="m336.391 320.745h-1.415c-4.142 0-7.5 3.358-7.5 7.5s3.358 7.5 7.5 7.5h1.415c4.142 0 7.5-3.358 7.5-7.5s-3.358-7.5-7.5-7.5z"/><path d="m336.391 352.675h-1.415c-4.142 0-7.5 3.358-7.5 7.5s3.358 7.5 7.5 7.5h1.415c4.142 0 7.5-3.358 7.5-7.5s-3.358-7.5-7.5-7.5z"/><path d="m336.391 384.605h-1.415c-4.142 0-7.5 3.358-7.5 7.5s3.358 7.5 7.5 7.5h1.415c4.142 0 7.5-3.358 7.5-7.5s-3.358-7.5-7.5-7.5z"/><path d="m336.391 416.536h-1.415c-4.142 0-7.5 3.358-7.5 7.5s3.358 7.5 7.5 7.5h1.415c4.142 0 7.5-3.358 7.5-7.5s-3.358-7.5-7.5-7.5z"/><path d="m336.391 448.466h-1.415c-4.142 0-7.5 3.358-7.5 7.5s3.358 7.5 7.5 7.5h1.415c4.142 0 7.5-3.358 7.5-7.5s-3.358-7.5-7.5-7.5z"/><path d="m309.54 303.814c4.142 0 7.5-3.358 7.5-7.5s-3.358-7.5-7.5-7.5h-39.394c-.319 0-.631.026-.939.065-.308-.039-.62-.065-.939-.065h-39.394c-4.142 0-7.5 3.358-7.5 7.5s3.358 7.5 7.5 7.5h31.894v48.86h-31.894c-4.142 0-7.5 3.358-7.5 7.5s3.358 7.5 7.5 7.5h31.894v48.861h-31.894c-4.142 0-7.5 3.358-7.5 7.5s3.358 7.5 7.5 7.5h31.894v41.573c0 4.142 3.358 7.5 7.5 7.5s7.5-3.358 7.5-7.5v-9.643h7.062c4.142 0 7.5-3.358 7.5-7.5s-3.358-7.5-7.5-7.5h-7.062v-16.931h33.771c4.142 0 7.5-3.358 7.5-7.5s-3.358-7.5-7.5-7.5h-33.771v-16.93h7.062c4.142 0 7.5-3.358 7.5-7.5s-3.358-7.5-7.5-7.5h-7.062v-16.931h33.771c4.142 0 7.5-3.358 7.5-7.5s-3.358-7.5-7.5-7.5h-33.771v-16.93h7.062c4.142 0 7.5-3.358 7.5-7.5s-3.358-7.5-7.5-7.5h-7.062v-16.93h33.772z"/></g></g><g/><g/><g/><g/><g/><g/><g/><g/><g/><g/><g/><g/><g/><g/><g/></svg>