<svg id="Capa_1" enable-background="new 0 0 512 512" viewBox="0 0 512 512" xmlns="http://www.w3.org/2000/svg"><g><g><g><path d="m494.5 419.824h-477c-5.523 0-10-4.477-10-10v-307.648c0-5.523 4.477-10 10-10h477c5.523 0 10 4.477 10 10v307.647c0 5.524-4.477 10.001-10 10.001z" fill="#7a8d98"/><path d="m504.5 102.18v307.64c0 5.53-4.48 10-10 10h-40c5.52 0 10-4.47 10-10v-307.64c0-5.53-4.48-10-10-10h40c5.52 0 10 4.47 10 10z" fill="#596d76"/><path d="m7.5 348.441v61.383c0 5.523 4.477 10 10 10h477c5.523 0 10-4.477 10-10v-61.383z" fill="#d9e7eb"/><path d="m504.5 348.441h-40v61.379c0 5.53-4.48 10-10 10l.001.004h39.999c5.523 0 10-4.477 10-10z" fill="#b7c4ce"/><g><g><g><circle cx="211.296" cy="348.441" fill="#7a8d98" r="25.862"/></g></g><g><g><circle cx="300.704" cy="348.441" fill="#7a8d98" r="25.862"/></g></g></g><g><g><g><circle cx="131.269" cy="219.194" fill="#475a61" r="83.586"/><circle cx="131.269" cy="219.194" fill="#d9e7eb" r="56.636"/><path d="m187.907 219.19c0 31.282-25.364 56.636-56.636 56.636-5.907 0-11.605-.899-16.958-2.582 22.991-7.214 39.667-28.679 39.667-54.053 0-25.364-16.676-46.839-39.667-54.053 5.353-1.683 11.051-2.582 16.958-2.582 31.272-.002 56.636 25.362 56.636 56.634z" fill="#b7c4ce"/><circle cx="131.269" cy="219.194" fill="#f82f40" r="22.715"/><path d="m153.98 219.19c0 12.546-10.162 22.719-22.709 22.719-3.618 0-7.047-.847-10.079-2.352 7.496-3.712 12.651-11.438 12.651-20.367s-5.154-16.655-12.651-20.356c3.032-1.506 6.461-2.352 10.079-2.352 12.547-.001 22.709 10.162 22.709 22.708z" fill="#e22334"/></g></g><g><g><circle cx="380.731" cy="219.194" fill="#475a61" r="83.586"/><circle cx="380.731" cy="219.194" fill="#d9e7eb" r="56.636"/><path d="m437.37 219.19c0 31.282-25.364 56.636-56.636 56.636-5.907 0-11.605-.899-16.958-2.582 22.991-7.214 39.667-28.679 39.667-54.053 0-25.364-16.676-46.839-39.667-54.053 5.353-1.683 11.051-2.582 16.958-2.582 31.272-.002 56.636 25.362 56.636 56.634z" fill="#b7c4ce"/><circle cx="380.731" cy="219.194" fill="#f82f40" r="22.715"/><path d="m403.443 219.19c0 12.546-10.162 22.719-22.709 22.719-3.618 0-7.047-.847-10.079-2.352 7.496-3.712 12.651-11.438 12.651-20.367s-5.154-16.655-12.651-20.356c3.032-1.506 6.461-2.352 10.079-2.352 12.547-.001 22.709 10.162 22.709 22.708z" fill="#e22334"/></g></g></g></g></g><g><path d="m7.5 276.521c4.143 0 7.5-3.357 7.5-7.5v-166.845c0-1.379 1.121-2.5 2.5-2.5h381.092c4.143 0 7.5-3.357 7.5-7.5s-3.357-7.5-7.5-7.5h-381.092c-9.649 0-17.5 7.851-17.5 17.5v166.846c0 4.142 3.357 7.499 7.5 7.499z"/><path d="m494.5 84.676h-63.731c-4.143 0-7.5 3.357-7.5 7.5s3.357 7.5 7.5 7.5h63.731c1.379 0 2.5 1.121 2.5 2.5v238.766h-163.785c-.834-3.649-2.278-7.115-4.279-10.279 2.098-2.93 1.839-7.027-.792-9.66-2.633-2.631-6.729-2.89-9.66-.792-5.274-3.336-11.387-5.131-17.78-5.131-8.911 0-17.289 3.471-23.591 9.771-4.587 4.587-7.549 10.19-8.901 16.091h-24.425c-.823-3.59-2.245-7.066-4.265-10.273 2.103-2.931 1.846-7.032-.788-9.666-2.633-2.631-6.729-2.89-9.659-.793-5.274-3.336-11.387-5.13-17.779-5.13-8.911 0-17.289 3.471-23.59 9.771-4.494 4.494-7.538 10.045-8.921 16.091h-27.588c-4.143 0-7.5 3.357-7.5 7.5s3.357 7.5 7.5 7.5h27.588c.835 3.649 2.277 7.115 4.278 10.279-2.098 2.93-1.839 7.027.793 9.659 1.465 1.464 3.385 2.196 5.304 2.196 1.532 0 3.061-.475 4.362-1.408 5.411 3.407 11.59 5.12 17.774 5.12 8.543 0 17.087-3.252 23.591-9.756 4.587-4.587 7.549-10.19 8.901-16.091h24.425c.822 3.59 2.245 7.066 4.265 10.273-2.103 2.931-1.845 7.031.788 9.665 1.465 1.464 3.385 2.196 5.304 2.196 1.532 0 3.061-.475 4.362-1.408 5.41 3.407 11.59 5.12 17.773 5.12 8.543 0 17.087-3.252 23.59-9.756 4.494-4.494 7.538-10.045 8.921-16.091h163.784v53.883c0 1.379-1.121 2.5-2.5 2.5h-477c-1.379 0-2.5-1.121-2.5-2.5v-53.883h104.02c4.143 0 7.5-3.357 7.5-7.5s-3.357-7.5-7.5-7.5h-104.02v-39.743c0-4.143-3.357-7.5-7.5-7.5s-7.5 3.357-7.5 7.5v108.626c0 9.649 7.851 17.5 17.5 17.5h477c9.649 0 17.5-7.851 17.5-17.5v-307.647c0-9.65-7.851-17.5-17.5-17.5zm-206.779 250.781c3.468-3.468 8.079-5.378 12.983-5.378 2.274 0 4.478.428 6.541 1.214l-23.684 23.684c-2.487-6.553-1.11-14.25 4.16-19.52zm-89.409 0c3.468-3.468 8.079-5.378 12.983-5.378 2.274 0 4.478.427 6.541 1.213l-23.689 23.689c-.786-2.063-1.213-4.267-1.213-6.541 0-4.903 1.91-9.514 5.378-12.983zm25.967 25.968c-5.268 5.27-12.966 6.647-19.52 4.159l23.679-23.679c2.488 6.554 1.111 14.251-4.159 19.52zm89.409 0c-5.269 5.27-12.967 6.646-19.52 4.159l23.684-23.684c.786 2.063 1.214 4.267 1.214 6.541 0 4.905-1.91 9.516-5.378 12.984z"/><path d="m53.808 376.633c-4.143 0-7.5 3.357-7.5 7.5s3.357 7.5 7.5 7.5h9.248c4.143 0 7.5-3.357 7.5-7.5s-3.357-7.5-7.5-7.5z"/><path d="m91.785 376.633c-4.143 0-7.5 3.357-7.5 7.5s3.357 7.5 7.5 7.5h9.249c4.143 0 7.5-3.357 7.5-7.5s-3.357-7.5-7.5-7.5z"/><path d="m122.263 384.133c0 4.143 3.357 7.5 7.5 7.5h9.249c4.143 0 7.5-3.357 7.5-7.5s-3.357-7.5-7.5-7.5h-9.249c-4.143 0-7.5 3.357-7.5 7.5z"/><path d="m382.237 391.633c4.143 0 7.5-3.357 7.5-7.5s-3.357-7.5-7.5-7.5h-9.249c-4.143 0-7.5 3.357-7.5 7.5s3.357 7.5 7.5 7.5z"/><path d="m420.215 391.633c4.143 0 7.5-3.357 7.5-7.5s-3.357-7.5-7.5-7.5h-9.249c-4.143 0-7.5 3.357-7.5 7.5s3.357 7.5 7.5 7.5z"/><path d="m458.192 391.633c4.143 0 7.5-3.357 7.5-7.5s-3.357-7.5-7.5-7.5h-9.248c-4.143 0-7.5 3.357-7.5 7.5s3.357 7.5 7.5 7.5z"/><path d="m131.269 188.979c-16.66 0-30.215 13.555-30.215 30.215 0 16.661 13.555 30.216 30.215 30.216s30.215-13.555 30.215-30.216c-.001-16.661-13.555-30.215-30.215-30.215zm0 45.43c-8.39 0-15.215-6.826-15.215-15.216s6.825-15.215 15.215-15.215 15.215 6.825 15.215 15.215-6.826 15.216-15.215 15.216z"/><path d="m222.044 226.693h7.993c4.143 0 7.5-3.357 7.5-7.5s-3.357-7.5-7.5-7.5h-7.993c-3.624-44.255-39.02-79.65-83.275-83.274v-7.994c0-4.143-3.357-7.5-7.5-7.5s-7.5 3.357-7.5 7.5v7.994c-44.255 3.624-79.651 39.019-83.275 83.274h-7.994c-4.143 0-7.5 3.357-7.5 7.5s3.357 7.5 7.5 7.5h7.993c3.624 44.255 39.02 79.651 83.275 83.275v7.993c0 4.143 3.357 7.5 7.5 7.5s7.5-3.357 7.5-7.5v-7.993c44.256-3.624 79.651-39.02 83.276-83.275zm-15.063-15h-12.029c-3.439-29.379-26.804-52.743-56.184-56.183v-12.029c35.979 3.538 64.676 32.235 68.213 68.212zm-29.996 15h2.848c-3.246 21.101-19.964 37.819-41.065 41.065v-2.848c0-4.143-3.357-7.5-7.5-7.5s-7.5 3.357-7.5 7.5v2.848c-21.101-3.246-37.819-19.964-41.065-41.065h2.848c4.143 0 7.5-3.357 7.5-7.5s-3.357-7.5-7.5-7.5h-2.848c3.246-21.101 19.964-37.818 41.065-41.064v2.848c0 4.143 3.357 7.5 7.5 7.5s7.5-3.357 7.5-7.5v-2.848c21.101 3.245 37.819 19.963 41.065 41.064h-2.848c-4.143 0-7.5 3.357-7.5 7.5s3.358 7.5 7.5 7.5zm-53.216-83.211v12.029c-29.38 3.439-52.744 26.804-56.184 56.183h-12.029c3.537-35.978 32.235-64.675 68.213-68.212zm-68.213 83.211h12.029c3.439 29.38 26.804 52.744 56.184 56.184v12.029c-35.978-3.537-64.676-32.235-68.213-68.213zm83.213 68.213v-12.029c29.38-3.439 52.744-26.804 56.184-56.184h12.029c-3.538 35.978-32.235 64.676-68.213 68.213z"/><path d="m380.731 249.409c16.66 0 30.215-13.555 30.215-30.216 0-16.66-13.555-30.215-30.215-30.215s-30.215 13.555-30.215 30.215c.001 16.661 13.555 30.216 30.215 30.216zm0-45.43c8.39 0 15.215 6.825 15.215 15.215s-6.825 15.216-15.215 15.216-15.215-6.826-15.215-15.216 6.826-15.215 15.215-15.215z"/><path d="m380.731 325.462c4.143 0 7.5-3.357 7.5-7.5v-7.993c44.255-3.624 79.651-39.02 83.275-83.275h7.993c4.143 0 7.5-3.357 7.5-7.5s-3.357-7.5-7.5-7.5h-7.993c-3.624-44.255-39.02-79.65-83.275-83.274v-7.994c0-4.143-3.357-7.5-7.5-7.5s-7.5 3.357-7.5 7.5v7.994c-44.255 3.624-79.651 39.019-83.275 83.274h-7.993c-4.143 0-7.5 3.357-7.5 7.5s3.357 7.5 7.5 7.5h7.993c3.624 44.255 39.02 79.651 83.275 83.275v7.993c0 4.142 3.358 7.5 7.5 7.5zm-45.716-113.769h-2.848c3.246-21.101 19.964-37.818 41.065-41.064v2.848c0 4.143 3.357 7.5 7.5 7.5s7.5-3.357 7.5-7.5v-2.848c21.101 3.245 37.819 19.963 41.065 41.064h-2.848c-4.143 0-7.5 3.357-7.5 7.5s3.357 7.5 7.5 7.5h2.848c-3.246 21.101-19.964 37.819-41.065 41.065v-2.848c0-4.143-3.357-7.5-7.5-7.5s-7.5 3.357-7.5 7.5v2.848c-21.101-3.246-37.819-19.964-41.065-41.065h2.848c4.143 0 7.5-3.357 7.5-7.5s-3.358-7.5-7.5-7.5zm53.216 83.213v-12.029c29.38-3.439 52.744-26.804 56.184-56.184h12.029c-3.537 35.978-32.235 64.676-68.213 68.213zm68.213-83.213h-12.029c-3.439-29.379-26.804-52.743-56.184-56.183v-12.029c35.978 3.538 64.676 32.235 68.213 68.212zm-83.213-68.211v12.029c-29.38 3.439-52.744 26.804-56.184 56.183h-12.029c3.538-35.978 32.235-64.675 68.213-68.212zm-68.212 83.211h12.029c3.439 29.38 26.804 52.744 56.184 56.184v12.029c-35.979-3.537-64.676-32.235-68.213-68.213z"/></g></g><g/><g/><g/><g/><g/><g/><g/><g/><g/><g/><g/><g/><g/><g/><g/></svg>