<svg id="Capa_1" enable-background="new 0 0 512 512" viewBox="0 0 512 512" xmlns="http://www.w3.org/2000/svg"><g><g><g><g><g><g><path d="m388.199 151.731h-264.398v-125.651c0-5.361 4.346-9.707 9.707-9.707h244.983c5.361 0 9.707 4.346 9.707 9.707v125.651z" fill="#ffbc8a"/><path d="m388.2 26.08v125.652h-38.828v-125.652c0-5.358-4.349-9.707-9.707-9.707h38.828c5.358 0 9.707 4.349 9.707 9.707z" fill="#f5a871"/></g><g><g><path d="m14.78 425.237v59.213c0 6.173 5.004 11.178 11.178 11.178h38.966c4.559 0 8.662-2.769 10.367-6.998l4.755-11.793c3.705-9.189 12.619-15.206 22.527-15.206h306.855c9.908 0 18.822 6.018 22.527 15.206l4.755 11.793c1.705 4.229 5.807 6.998 10.367 6.998h38.966c6.173 0 11.178-5.004 11.178-11.178v-59.213z" fill="#f4f6f7"/><path d="m497.22 425.237v59.213c0 6.174-5.009 11.173-11.173 11.173h-38.828c6.164 0 11.173-4.999 11.173-11.173v-59.213z" fill="#d9e7eb"/><path d="m497.22 425.24h-482.44c0-263.68 22.36-300.37 79.62-300.37h70.09l22.42 26.86 23.48-26.86h207.21c57.26 0 79.62 36.69 79.62 300.37z" fill="#f82f40"/><path d="m497.22 425.237h-38.828c0-263.682-22.355-300.365-79.627-300.365h38.828c57.271 0 79.627 36.683 79.627 300.365z" fill="#e22334"/><path d="m15.093 374.695c-.209 15.846-.313 32.668-.313 50.541h482.44c0-17.873-.104-34.695-.313-50.541z" fill="#fb6672"/><path d="m458.079 374.695c.209 15.847.313 32.668.313 50.542h38.828c0-17.873-.104-34.695-.313-50.542z" fill="#fb4a59"/></g><g><path d="m393.026 158.062h-274.052c-11.794 0-21.355-9.561-21.355-21.355v-11.837h316.763v11.837c-.001 11.793-9.562 21.355-21.356 21.355z" fill="#f4f6f7"/></g><g><path d="m414.38 124.872v11.833c0 11.794-9.561 21.355-21.355 21.355h-38.828c11.794 0 21.355-9.561 21.355-21.355v-11.833z" fill="#d9e7eb"/></g></g></g></g><g><g><circle cx="376.333" cy="267.999" fill="#f4f6f7" r="52.277"/><path d="m428.606 268c0 28.87-23.4 52.28-52.27 52.28-5.14 0-10.1-.74-14.79-2.12 21.67-6.38 37.49-26.43 37.49-50.16s-15.82-43.78-37.49-50.16c4.69-1.38 9.65-2.12 14.79-2.12 28.87 0 52.27 23.41 52.27 52.28z" fill="#d9e7eb"/></g><g><circle cx="376.333" cy="267.999" fill="#596d76" r="22.699"/><path d="m399.033 267.999c0 12.54-10.16 22.7-22.7 22.7-4.14 0-8.01-1.11-11.35-3.05 6.79-3.91 11.35-11.25 11.35-19.65s-4.56-15.74-11.35-19.65c3.34-1.94 7.21-3.05 11.35-3.05 12.54 0 22.7 10.16 22.7 22.7z" fill="#475a61"/></g></g><g><g><g><circle cx="79.211" cy="236.051" fill="#f4f6f7" r="18.203"/><path d="m97.413 236.055c0 10.045-8.145 18.2-18.2 18.2-2.878 0-5.6-.666-8.018-1.86 6.04-2.966 10.191-9.173 10.191-16.339 0-7.176-4.151-13.383-10.191-16.349 2.418-1.194 5.14-1.86 8.018-1.86 10.055-.001 18.2 8.154 18.2 18.208z" fill="#d9e7eb"/></g></g></g></g></g><g><path d="m177.853 50.104c-2.928-2.929-7.677-2.929-10.606 0l-11.442 11.441c-2.929 2.929-2.929 7.677 0 10.606 1.464 1.465 3.384 2.197 5.303 2.197s3.839-.732 5.303-2.197l11.442-11.441c2.929-2.929 2.929-7.677 0-10.606z"/><path d="m181.397 86.355c1.464 1.464 3.384 2.197 5.303 2.197s3.839-.732 5.303-2.197l11.441-11.441c2.929-2.929 2.929-7.678 0-10.606-2.929-2.929-7.678-2.929-10.606 0l-11.441 11.441c-2.929 2.929-2.929 7.678 0 10.606z"/><path d="m288.861 74.348c1.919 0 3.839-.732 5.303-2.197l11.441-11.441c2.929-2.929 2.929-7.678 0-10.606-2.929-2.929-7.678-2.929-10.606 0l-11.441 11.441c-2.929 2.929-2.929 7.678 0 10.606 1.464 1.465 3.383 2.197 5.303 2.197z"/><path d="m512 425.237c0-4.07-3.244-7.376-7.287-7.489-.021-12.377-.092-24.226-.216-35.568 3.993-.168 7.181-3.449 7.181-7.484 0-4.101-3.294-7.429-7.379-7.494-.565-36.106-1.703-66.775-3.436-92.83-.274-4.133-3.833-7.261-7.981-6.986-4.133.275-7.26 3.848-6.985 7.981 1.713 25.751 2.839 56.09 3.401 91.829h-466.587c1.52-94.943 7.114-154.245 17.584-188.85 10.969-36.253 26.723-45.011 49.824-45.895v4.255c0 15.911 12.944 28.855 28.855 28.855h274.052c15.911 0 28.855-12.944 28.855-28.855v-4.25c17.924.693 28.575 5.938 37.197 18.055 11.615 16.324 19.272 45.646 24.096 92.28.399 3.858 3.655 6.729 7.451 6.729.258 0 .519-.013.781-.041 4.121-.426 7.115-4.111 6.689-8.232-5.102-49.316-13.616-80.911-26.795-99.433-15.328-21.542-35.75-24.446-53.705-24.446h-21.897v-91.288c0-9.488-7.719-17.207-17.207-17.207h-244.983c-9.488 0-17.207 7.719-17.207 17.207v91.289h-21.897c-17.884 0-30.555 3.497-41.082 11.338-12.048 8.975-20.75 23.367-27.384 45.295-11.039 36.485-16.736 95.708-18.244 193.2-4.083.069-7.372 3.395-7.372 7.494 0 4.033 3.186 7.314 7.177 7.484-.122 11.359-.193 23.207-.213 35.569-4.042.112-7.286 3.418-7.286 7.488 0 4.068 3.241 7.372 7.28 7.489v51.724c0 10.299 8.379 18.678 18.678 18.678h38.966c7.659 0 14.458-4.59 17.323-11.693l4.755-11.794c2.574-6.385 8.686-10.511 15.571-10.511h42.726c4.142 0 7.5-3.358 7.5-7.5s-3.358-7.5-7.5-7.5h-42.726c-13.036 0-24.609 7.812-29.483 19.902l-4.754 11.793c-.564 1.399-1.903 2.303-3.411 2.303h-38.967c-2.028 0-3.678-1.65-3.678-3.678v-51.712h467.44v51.712c0 2.028-1.65 3.678-3.678 3.678h-38.966c-1.508 0-2.847-.904-3.411-2.303l-4.755-11.793c-4.874-12.09-16.447-19.902-29.483-19.902h-231.951c-4.142 0-7.5 3.358-7.5 7.5s3.358 7.5 7.5 7.5h231.952c6.885 0 12.997 4.126 15.571 10.511l4.755 11.793c2.864 7.104 9.664 11.693 17.322 11.693h38.966c10.299 0 18.678-8.379 18.678-18.678v-51.724c4.039-.117 7.28-3.42 7.28-7.488zm-380.699-399.157c0-1.217.99-2.207 2.207-2.207h244.983c1.217 0 2.207.99 2.207 2.207v91.289h-177.216c-4.142 0-7.5 3.358-7.5 7.5s3.358 7.5 7.5 7.5h203.399v4.337c0 7.64-6.215 13.855-13.855 13.855h-274.052c-7.64 0-13.855-6.215-13.855-13.855v-4.337h66.187c4.142 0 7.5-3.358 7.5-7.5s-3.358-7.5-7.5-7.5h-40.004v-91.289zm358.195 356.115c.124 11.328.196 23.169.216 35.542h-467.425c.021-12.339.095-24.18.221-35.542z"/><path d="m376.333 208.223c-32.961 0-59.776 26.815-59.776 59.776s26.815 59.777 59.776 59.777 59.776-26.816 59.776-59.777-26.816-59.776-59.776-59.776zm0 104.553c-24.69 0-44.776-20.087-44.776-44.777s20.086-44.776 44.776-44.776 44.776 20.086 44.776 44.776-20.087 44.777-44.776 44.777z"/><path d="m376.333 237.8c-16.652 0-30.199 13.547-30.199 30.199s13.547 30.2 30.199 30.2 30.2-13.547 30.2-30.2c-.001-16.652-13.548-30.199-30.2-30.199zm0 45.399c-8.381 0-15.199-6.818-15.199-15.2 0-8.381 6.818-15.199 15.199-15.199s15.2 6.818 15.2 15.199c-.001 8.381-6.819 15.2-15.2 15.2z"/><path d="m103.254 326.226c-.092 4.141 3.19 7.573 7.332 7.665.057.001.113.002.17.002 4.064 0 7.404-3.25 7.495-7.333 1.116-50.32 3.292-88.948 6.653-118.091.475-4.115-2.477-7.835-6.591-8.31-4.12-.477-7.836 2.477-8.31 6.591-.78 6.762-1.496 14.025-2.151 21.802h-4.056c-3.217-10.525-13.02-18.203-24.583-18.203-14.172 0-25.703 11.53-25.703 25.703s11.53 25.703 25.703 25.703c11.564 0 21.366-7.678 24.583-18.203h2.913c-1.604 23.276-2.745 50.645-3.455 82.674zm-24.043-79.473c-5.901 0-10.703-4.801-10.703-10.703s4.801-10.703 10.703-10.703 10.703 4.801 10.703 10.703-4.802 10.703-10.703 10.703z"/></g></g><g/><g/><g/><g/><g/><g/><g/><g/><g/><g/><g/><g/><g/><g/><g/></svg>