<svg id="Capa_1" enable-background="new 0 0 512 512" height="512" viewBox="0 0 512 512" width="512" xmlns="http://www.w3.org/2000/svg"><g><g><g fill="#dff6fd"><path d="m336.023 200.461v-17.013c0-7.866-4.793-14.937-12.099-17.851l-45.123-17.996v-22.821h-45.641v22.821l-44.82 17.982c-7.287 2.923-12.062 9.985-12.062 17.836v17.042z"/><path d="m176.277 314.565v89.95c0 10.614 8.604 19.218 19.218 19.218h121.31c10.614 0 19.218-8.604 19.218-19.218v-89.95z"/></g><path d="m176.277 314.565v89.95c0 10.614 8.604 19.218 19.218 19.218h121.31c10.614 0 19.218-8.604 19.218-19.218v-89.95z" fill="#dff6fd"/><path d="m176.277 404.515c0 .822.069 1.626.169 2.42l92.371-92.371h-92.539v89.951z" fill="#c8effe"/><path d="m336.023 183.447c0-7.866-4.793-14.937-12.099-17.851l-34.96-13.943-48.806 48.807h95.865z" fill="#c8effe"/><path d="m327.465 237.743c5.346-3.564 8.558-9.565 8.558-15.99v-21.292h-159.746v21.292c0 6.426 3.211 12.426 8.558 15.99 5.346 3.564 8.558 9.565 8.558 15.99v11.379c0 6.426-3.211 12.426-8.558 15.99s-8.558 9.565-8.558 15.99v17.471h159.746v-17.471c0-6.426-3.211-12.426-8.558-15.99s-8.558-9.565-8.558-15.99v-11.379c0-6.425 3.212-12.425 8.558-15.99z" fill="#62dbfb"/><path d="m327.465 237.743c5.347-3.564 8.558-9.565 8.558-15.99v-21.292h-95.865l-47.62 47.62c.557 1.809.855 3.711.855 5.653v11.379c0 6.426-3.211 12.426-8.558 15.99s-8.558 9.565-8.558 15.99v17.471h92.539l50.091-50.091v-10.74c0-6.425 3.212-12.425 8.558-15.99z" fill="#01d0fb"/><path d="m283.366 124.78h-54.77c-5.041 0-9.128-4.087-9.128-9.128v-18.257c0-5.041 4.087-9.128 9.128-9.128h54.77c5.041 0 9.128 4.087 9.128 9.128v18.257c0 5.041-4.087 9.128-9.128 9.128z" fill="#62dbfb"/><path d="m283.366 88.267h-24.244c5.041 0 9.128 4.087 9.128 9.128v18.257c0 5.041-4.087 9.128-9.128 9.128h24.244c5.041 0 9.128-4.087 9.128-9.128v-18.257c0-5.041-4.087-9.128-9.128-9.128z" fill="#01d0fb"/></g><path d="m256 7.5c-137.243 0-248.5 111.257-248.5 248.5s111.257 248.5 248.5 248.5 248.5-111.257 248.5-248.5-111.257-248.5-248.5-248.5zm-212.134 248.2c.162-116.501 95.333-211.672 211.834-211.834 50.463-.07 96.871 17.582 133.36 47.051 1.876 1.515 2.041 4.316.336 6.021l-292.458 292.458c-1.705 1.705-4.506 1.54-6.021-.336-29.469-36.489-47.121-82.898-47.051-133.36zm212.434 212.434c-50.463.07-96.871-17.582-133.36-47.051-1.876-1.515-2.041-4.316-.336-6.021l292.457-292.458c1.705-1.705 4.506-1.54 6.021.336 29.47 36.489 47.122 82.897 47.052 133.36-.162 116.501-95.333 211.672-211.834 211.834z" fill="#fd8087"/><path d="m416.164 66.017c36.503 43.254 58.517 99.134 58.517 160.164 0 25.7-3.903 50.489-11.146 73.807-17.305 81.736-81.812 146.243-163.547 163.548-23.318 7.243-48.107 11.145-73.807 11.145-61.03 0-116.91-22.014-160.164-58.517 45.584 54.016 113.77 88.336 189.983 88.336 137.243 0 248.5-111.257 248.5-248.5 0-76.213-34.32-144.399-88.336-189.983z" fill="#fe646f"/><g><path d="m437.019 74.981c-48.353-48.352-112.64-74.981-181.019-74.981-61.695 0-121.302 22.263-167.838 62.688-3.128 2.717-3.46 7.453-.744 10.58 2.717 3.129 7.455 3.46 10.58.744 43.809-38.055 99.921-59.012 158.002-59.012 64.372 0 124.893 25.068 170.412 70.588s70.588 106.04 70.588 170.412-25.068 124.893-70.588 170.412-106.04 70.588-170.412 70.588-124.893-25.068-170.412-70.588-70.588-106.04-70.588-170.412c0-58.081 20.957-114.193 59.012-158.002 2.717-3.127 2.384-7.863-.744-10.58-3.125-2.716-7.863-2.385-10.58.744-40.425 46.536-62.688 106.143-62.688 167.838 0 68.379 26.629 132.666 74.981 181.019s112.64 74.981 181.019 74.981 132.666-26.629 181.019-74.981 74.981-112.64 74.981-181.019-26.629-132.666-74.981-181.019z"/><path d="m393.771 85.082c-38.908-31.423-87.823-48.716-137.781-48.716-.098 0-.204 0-.302 0-120.766.168-219.154 98.557-219.322 219.323-.069 50.06 17.231 99.098 48.717 138.083 2.062 2.552 5.12 4.115 8.393 4.288.203.011.405.017.607.017 3.049 0 5.993-1.213 8.159-3.378l292.457-292.457c2.309-2.31 3.534-5.505 3.361-8.767-.172-3.272-1.736-6.33-4.289-8.393zm-196.047 156.032c-2.084-3.871-5.104-7.196-8.732-9.614-3.263-2.176-5.211-5.82-5.211-9.75v-13.789h83.986l-70.395 70.395c2.268-3.971 3.518-8.515 3.518-13.246v-11.38c0-4.377-1.091-8.733-3.166-12.616zm87.27-125.463c0 .898-.73 1.629-1.629 1.629h-54.77c-.898 0-1.629-.73-1.629-1.629v-18.255c0-.898.73-1.629 1.629-1.629h54.77c.898 0 1.629.73 1.629 1.629zm-49.042 38.91c2.844-1.141 4.708-3.896 4.708-6.961v-15.32h30.64v15.32c0 3.069 1.87 5.829 4.722 6.967l32.269 12.87-25.524 25.524h-98.987v-9.541c0-4.813 2.888-9.085 7.352-10.879zm83.883 1.331-33.535-13.375v-10.512c7.772-1.392 13.694-8.187 13.694-16.354v-18.255c0-9.169-7.46-16.629-16.629-16.629h-54.77c-9.169 0-16.629 7.46-16.629 16.629v18.256c0 8.166 5.922 14.961 13.693 16.354v10.522l-40.117 16.094c-10.183 4.092-16.763 13.826-16.763 24.799v38.33c0 8.956 4.444 17.267 11.891 22.231 1.593 1.061 2.922 2.528 3.835 4.224.905 1.694 1.384 3.604 1.384 5.525v11.38c0 3.93-1.949 7.572-5.221 9.749-3.643 2.43-6.663 5.762-8.733 9.636-2.064 3.862-3.155 8.217-3.155 12.595v9.857l-74.402 74.402c-27.826-35.818-43.075-80.281-43.012-125.639.156-112.52 91.824-204.189 204.344-204.345h.28c45.264 0 89.615 15.241 125.359 43.011z"/><path d="m412.846 398.697c3.157 2.681 7.89 2.294 10.571-.862 33.6-39.566 52.143-89.827 52.213-141.524.069-50.061-17.231-99.099-48.701-138.065-2.05-2.553-5.099-4.122-8.365-4.306-3.286-.194-6.47 1.034-8.808 3.356l-292.477 292.477c-2.306 2.32-3.523 5.524-3.34 8.79.184 3.267 1.753 6.315 4.289 8.352 38.907 31.423 87.822 48.717 137.78 48.715h.301c51.698-.07 101.959-18.613 141.525-52.213 3.157-2.682 3.543-7.414.862-10.571s-7.414-3.543-10.571-.862c-36.864 31.305-83.685 48.581-131.837 48.646-.094 0-.187 0-.28 0-45.256 0-89.604-15.239-125.36-43.013l38.132-38.132v25.034c0 14.729 11.986 26.711 26.72 26.711h121.3c14.733 0 26.72-11.982 26.72-26.711v-26.27c0-4.143-3.357-7.5-7.5-7.5s-7.5 3.357-7.5 7.5v26.27c0 6.457-5.258 11.711-11.72 11.711h-121.3c-6.462 0-11.72-5.254-11.72-11.711v-40.034l42.421-42.421h102.319v21.186c0 4.143 3.357 7.5 7.5 7.5s7.5-3.357 7.5-7.5v-46.16c0-8.942-4.441-17.251-11.891-22.231-1.598-1.064-2.928-2.528-3.835-4.214-.905-1.694-1.384-3.608-1.384-5.534v-11.38c0-3.924 1.952-7.569 5.221-9.75 3.648-2.434 6.669-5.762 8.733-9.625 2.064-3.862 3.155-8.221 3.155-12.605v-17.004l74.099-74.099c27.828 35.818 43.075 80.28 43.012 125.643-.065 48.151-17.342 94.972-48.646 131.836-2.681 3.156-2.296 7.889.862 10.57zm-84.326-176.947c0 1.927-.479 3.841-1.384 5.535-.904 1.691-2.228 3.148-3.829 4.216-7.449 4.971-11.896 13.281-11.896 22.229v11.38c0 4.384 1.091 8.742 3.166 12.625 2.078 3.861 5.099 7.183 8.725 9.599 3.268 2.186 5.219 5.832 5.219 9.756v9.975h-87.318l87.318-87.318v2.003z"/></g></g></svg>