<svg id="Capa_1" enable-background="new 0 0 512.018 512.018" height="512" viewBox="0 0 512.018 512.018" width="512" xmlns="http://www.w3.org/2000/svg"><g><g><path d="m199.184 472.184-43.569-50.672c-16.828-19.572-47.132-19.572-63.96 0l-43.569 50.672z" fill="#ecbba3"/><path d="m155.616 421.511c-12.479-14.514-32.365-18.254-48.675-11.241 5.684 2.444 10.937 6.183 15.285 11.241l43.569 50.672h33.389z" fill="#e8ad8c"/><path d="m187.682 381.77c19.665 19.665 51.28 13.86 51.28 13.86s5.805-31.616-13.86-51.28-51.28-13.86-51.28-13.86-5.805 31.615 13.86 51.28z" fill="#ffe177"/><path d="m225.102 344.349c-5.688-5.688-12.376-9.236-19.01-11.419.195 3.314.3 6.682.3 10.098 0 17.335-2.589 33.498-7.057 47.123 18.466 9.356 39.627 5.479 39.627 5.479s5.805-31.616-13.86-51.281z" fill="#ffd15b"/><path d="m59.589 381.77c-19.665 19.665-51.28 13.86-51.28 13.86s-5.805-31.616 13.86-51.28 51.28-13.86 51.28-13.86 5.805 31.615-13.86 51.28z" fill="#ffe177"/><path d="m73.449 330.49s-12.361-2.269-26.433.837c.263 3.828.401 7.733.401 11.701 0 18.842-3.059 36.299-8.264 50.616 7.096-2.132 14.341-5.777 20.437-11.874 19.664-19.665 13.859-51.28 13.859-51.28z" fill="#ffd15b"/></g><g><path d="m463.931 472.184-43.569-50.672c-16.828-19.572-47.132-19.572-63.96 0l-43.569 50.672z" fill="#ecbba3"/><path d="m420.362 421.511c-12.479-14.514-32.365-18.254-48.675-11.241 5.684 2.444 10.936 6.183 15.285 11.241l43.569 50.672h33.389z" fill="#e8ad8c"/><path d="m452.429 381.77c19.665 19.665 51.28 13.86 51.28 13.86s5.805-31.616-13.86-51.28c-19.665-19.665-51.28-13.86-51.28-13.86s-5.805 31.615 13.86 51.28z" fill="#ffe177"/><path d="m489.849 344.349c-5.688-5.688-12.376-9.236-19.01-11.419.195 3.314.3 6.682.3 10.098 0 17.335-2.589 33.498-7.057 47.123 18.466 9.356 39.627 5.479 39.627 5.479s5.805-31.616-13.86-51.281z" fill="#ffd15b"/><path d="m324.336 381.77c-19.665 19.665-51.28 13.86-51.28 13.86s-5.805-31.616 13.86-51.28c19.665-19.665 51.28-13.86 51.28-13.86s5.805 31.615-13.86 51.28z" fill="#ffe177"/><path d="m338.196 330.49s-12.361-2.269-26.433.837c.263 3.828.401 7.733.401 11.701 0 18.842-3.059 36.299-8.264 50.616 7.096-2.132 14.341-5.777 20.437-11.874 19.664-19.665 13.859-51.28 13.859-51.28z" fill="#ffd15b"/></g><g><path d="m261.074 16.906 5.627-6.591c4.186-4.903 12.156-3.084 13.8 3.15l2.21 8.38c1.253 4.749 6.454 7.254 10.948 5.272l7.93-3.497c5.899-2.601 12.29 2.496 11.067 8.825l-1.645 8.509c-.932 4.822 2.667 9.336 7.576 9.5l8.662.29c6.443.216 9.99 7.581 6.142 12.753l-5.174 6.953c-2.932 3.94-1.648 9.569 2.704 11.847l7.678 4.019c5.711 2.99 5.711 11.165 0 14.155l-7.678 4.019c-4.351 2.278-5.636 7.906-2.704 11.847l5.174 6.953c3.849 5.172.302 12.537-6.142 12.753l-8.662.29c-4.909.164-8.508 4.678-7.576 9.5l1.645 8.509c1.223 6.33-5.168 11.427-11.067 8.825l-7.93-3.497c-4.494-1.982-9.695.523-10.948 5.272l-2.21 8.38c-1.644 6.234-9.614 8.053-13.8 3.15l-5.627-6.591c-3.189-3.735-8.962-3.735-12.151 0l-5.627 6.591c-4.186 4.903-12.156 3.084-13.8-3.15l-2.21-8.38c-1.253-4.749-6.454-7.254-10.948-5.272l-7.93 3.497c-5.899 2.601-12.29-2.496-11.067-8.825l1.645-8.509c.932-4.822-2.667-9.336-7.576-9.5l-8.662-.29c-6.443-.216-9.99-7.581-6.142-12.753l5.174-6.953c2.932-3.94 1.648-9.569-2.704-11.847l-7.678-4.019c-5.711-2.99-5.711-11.165 0-14.155l7.678-4.019c4.351-2.278 5.636-7.906 2.704-11.847l-5.174-6.953c-3.849-5.172-.302-12.537 6.142-12.753l8.662-.29c4.909-.164 8.508-4.678 7.576-9.5l-1.645-8.509c-1.223-6.33 5.168-11.427 11.067-8.825l7.93 3.497c4.494 1.982 9.695-.523 10.948-5.272l2.21-8.38c1.644-6.234 9.614-8.053 13.8-3.15l5.627 6.591c3.189 3.736 8.962 3.736 12.151 0z" fill="#ffe177"/><path d="m338.599 86.317-7.678-4.019c-4.351-2.278-5.636-7.906-2.704-11.846l5.174-6.953c3.849-5.172.302-12.537-6.141-12.753l-8.662-.29c-4.909-.164-8.508-4.678-7.576-9.5l1.645-8.509c1.119-5.791-4.137-10.531-9.557-9.307 4.195 10.464 6.508 21.886 6.508 33.85 0 50.266-40.749 91.015-91.015 91.015-6.735 0-13.297-.738-19.615-2.126l-1.636 8.466c-1.223 6.33 5.168 11.427 11.067 8.825l7.93-3.497c4.494-1.982 9.695.523 10.948 5.272l2.21 8.38c1.644 6.233 9.614 8.053 13.8 3.15l5.627-6.591c3.189-3.736 8.962-3.736 12.151 0l5.627 6.591c4.186 4.903 12.156 3.084 13.8-3.15l2.21-8.38c1.253-4.749 6.454-7.254 10.948-5.272l7.93 3.497c5.899 2.601 12.29-2.496 11.067-8.825l-1.645-8.509c-.932-4.822 2.667-9.336 7.576-9.5l8.662-.29c6.443-.216 9.99-7.581 6.141-12.753l-5.174-6.953c-2.932-3.94-1.648-9.569 2.704-11.846l7.678-4.02c5.712-2.992 5.712-11.167 0-14.157z" fill="#ffd15b"/><circle cx="254.999" cy="93.394" fill="#fea95c" r="40.407"/><path d="m270.262 55.98c1.924 4.71 2.992 9.861 2.992 15.263 0 22.316-18.09 40.407-40.406 40.407-5.402 0-10.553-1.068-15.263-2.992 6.023 14.747 20.501 25.143 37.414 25.143 22.316 0 40.407-18.091 40.407-40.407-.001-16.913-10.397-31.391-25.144-37.414z" fill="#fe9738"/></g><path d="m496.428 504.509h-480.838c-4.463 0-8.081-3.618-8.081-8.081v-16.163c0-4.463 3.618-8.081 8.081-8.081h480.837c4.463 0 8.081 3.618 8.081 8.081v16.163c.001 4.463-3.617 8.081-8.08 8.081z" fill="#e19974"/><path d="m496.428 472.184h-40.406c4.463 0 8.081 3.618 8.081 8.081v16.163c0 4.463-3.618 8.081-8.081 8.081h40.406c4.463 0 8.081-3.618 8.081-8.081v-16.163c0-4.463-3.618-8.081-8.081-8.081z" fill="#dc8758"/><g><path d="m267.044 212.615c0-4.142-3.357-7.5-7.5-7.5-4.142 0-7.5 3.358-7.5 7.5 0 4.339-1.219 6.124-3.239 9.082-2.47 3.616-5.852 8.569-5.852 17.542s3.382 13.925 5.852 17.542c2.02 2.958 3.239 4.743 3.239 9.082 0 4.34-1.219 6.125-3.239 9.083-2.47 3.616-5.852 8.569-5.852 17.542 0 4.142 3.358 7.5 7.5 7.5s7.5-3.358 7.5-7.5c0-4.34 1.22-6.125 3.239-9.083 2.47-3.616 5.853-8.569 5.853-17.542s-3.383-13.925-5.853-17.542c-2.02-2.958-3.239-4.743-3.239-9.082s1.22-6.124 3.239-9.082c2.469-3.616 5.852-8.569 5.852-17.542z"/><path d="m343.212 212.615c0 4.339-1.219 6.124-3.239 9.082-2.47 3.616-5.853 8.569-5.853 17.542s3.383 13.926 5.853 17.542c2.02 2.958 3.239 4.743 3.239 9.082 0 4.142 3.357 7.5 7.5 7.5s7.5-3.358 7.5-7.5c0-8.973-3.383-13.926-5.853-17.542-2.02-2.958-3.239-4.743-3.239-9.082s1.219-6.124 3.239-9.082c2.47-3.616 5.853-8.569 5.853-17.542 0-4.142-3.357-7.5-7.5-7.5s-7.5 3.358-7.5 7.5z"/><path d="m425.287 292.487c0 4.142 3.357 7.5 7.5 7.5s7.5-3.358 7.5-7.5c0-4.339 1.22-6.125 3.239-9.083 2.47-3.617 5.853-8.569 5.853-17.542s-3.383-13.926-5.853-17.542c-2.02-2.958-3.239-4.743-3.239-9.082s1.219-6.124 3.239-9.082c2.47-3.616 5.853-8.569 5.853-17.542 0-4.142-3.357-7.5-7.5-7.5s-7.5 3.358-7.5 7.5c0 4.339-1.219 6.124-3.239 9.082-2.47 3.616-5.853 8.569-5.853 17.542s3.383 13.926 5.853 17.542c2.02 2.958 3.239 4.743 3.239 9.082s-1.22 6.125-3.239 9.083c-2.47 3.617-5.853 8.569-5.853 17.542z"/><path d="m60.619 292.487c0 4.142 3.358 7.5 7.5 7.5s7.5-3.358 7.5-7.5c0-4.34 1.219-6.125 3.239-9.083 2.47-3.616 5.852-8.569 5.852-17.542s-3.382-13.925-5.852-17.542c-2.02-2.958-3.239-4.743-3.239-9.082s1.219-6.124 3.239-9.082c2.47-3.616 5.852-8.569 5.852-17.542 0-4.142-3.358-7.5-7.5-7.5s-7.5 3.358-7.5 7.5c0 4.339-1.219 6.124-3.239 9.082-2.47 3.616-5.852 8.569-5.852 17.542s3.382 13.925 5.852 17.542c2.02 2.958 3.239 4.743 3.239 9.082 0 4.34-1.219 6.125-3.239 9.083-2.47 3.617-5.852 8.57-5.852 17.542z"/><path d="m160.878 265.862c0 4.142 3.358 7.5 7.5 7.5s7.5-3.358 7.5-7.5c0-8.973-3.383-13.926-5.853-17.542-2.02-2.958-3.239-4.743-3.239-9.082s1.219-6.124 3.239-9.082c2.47-3.616 5.853-8.569 5.853-17.542 0-4.142-3.358-7.5-7.5-7.5s-7.5 3.358-7.5 7.5c0 4.339-1.219 6.124-3.239 9.082-2.47 3.616-5.853 8.569-5.853 17.542s3.383 13.926 5.853 17.542c2.019 2.958 3.239 4.743 3.239 9.082z"/><path d="m167.92 107.116 7.679 4.02c.06.031.199.104.25.324s-.044.347-.084.4l-5.174 6.953c-3.452 4.639-4.038 10.757-1.529 15.967s7.657 8.566 13.437 8.76l8.661.29c.068.002.226.008.366.184.141.176.11.331.098.397l-1.645 8.509c-1.098 5.677 1.029 11.443 5.55 15.049 4.521 3.605 10.615 4.396 15.907 2.062l7.93-3.497c.061-.027.207-.09.409.007.203.098.244.25.261.316l2.21 8.38c1.475 5.591 5.893 9.864 11.53 11.15 1.154.264 2.317.392 3.468.392 4.471 0 8.772-1.938 11.758-5.436l5.626-6.591c.044-.051.146-.171.372-.171s.328.12.372.171l5.628 6.592c3.754 4.397 9.593 6.33 15.226 5.043 5.638-1.287 10.056-5.559 11.53-11.15l2.21-8.381c.018-.065.058-.217.26-.315.206-.098.347-.034.409-.007l7.931 3.498c5.29 2.332 11.387 1.542 15.907-2.063s6.646-9.372 5.549-15.048l-1.645-8.51c-.013-.066-.042-.221.098-.397.141-.176.299-.182.366-.184l8.661-.29c5.779-.193 10.928-3.55 13.437-8.76s1.923-11.328-1.529-15.967l-5.173-6.952c-.037-.049-.135-.181-.085-.401.051-.22.19-.293.25-.324l7.679-4.02c5.122-2.682 8.305-7.939 8.305-13.722 0-5.782-3.183-11.04-8.305-13.722l-7.679-4.02c-.06-.031-.199-.104-.25-.324-.05-.22.048-.352.084-.4l5.174-6.953c3.452-4.639 4.038-10.757 1.529-15.967s-7.657-8.566-13.437-8.76l-8.661-.29c-.067-.002-.226-.008-.366-.184s-.11-.331-.098-.397l1.645-8.509c1.098-5.677-1.028-11.443-5.55-15.048-4.52-3.605-10.615-4.396-15.907-2.062l-7.929 3.497c-.062.028-.204.092-.41-.006-.202-.098-.242-.25-.26-.316l-2.21-8.38c-1.475-5.591-5.893-9.863-11.53-11.15-5.636-1.287-11.471.646-15.227 5.043l-5.626 6.591c-.044.051-.146.172-.372.172s-.328-.121-.372-.171l-5.629-6.593c-3.754-4.397-9.593-6.332-15.226-5.043-5.637 1.287-10.055 5.559-11.53 11.15l-2.21 8.38c-.017.065-.058.218-.26.315-.204.099-.348.034-.409.007l-7.93-3.497c-5.292-2.333-11.386-1.544-15.907 2.062-4.521 3.605-6.648 9.372-5.55 15.049l1.645 8.509c.013.066.043.221-.098.397-.14.176-.298.181-.366.184l-8.662.29c-5.779.193-10.928 3.55-13.437 8.76s-1.923 11.328 1.529 15.967l5.173 6.953c.041.054.135.181.084.4s-.19.293-.25.324l-7.678 4.02c-5.123 2.682-8.305 7.939-8.305 13.722.001 5.783 3.184 11.041 8.307 13.722zm6.957-14.155 7.678-4.02c4.021-2.105 6.907-5.85 7.917-10.275s.035-9.052-2.675-12.693l-5.173-6.953c-.079-.105-.177-.237-.048-.504.128-.266.292-.272.424-.276l8.661-.29c4.537-.151 8.761-2.273 11.591-5.822 2.831-3.549 3.959-8.14 3.098-12.597l-1.645-8.509c-.025-.129-.056-.291.175-.475.23-.184.38-.119.501-.065l7.931 3.498c4.153 1.83 8.88 1.752 12.97-.218 4.089-1.969 7.098-5.616 8.255-10.004l2.21-8.38c.034-.127.076-.286.364-.352.292-.065.396.06.48.159l5.627 6.592c2.947 3.452 7.241 5.432 11.779 5.432s8.833-1.98 11.78-5.432l5.626-6.591c.086-.101.198-.225.481-.16.289.066.331.225.364.352l2.21 8.379c1.156 4.389 4.165 8.036 8.254 10.005s8.816 2.049 12.972.218l7.93-3.497c.122-.054.271-.117.503.065.23.184.199.345.175.475l-1.645 8.508c-.862 4.457.267 9.048 3.097 12.597s7.056 5.671 11.592 5.823l8.661.29c.132.004.296.01.424.276.129.267.03.398-.048.504l-5.175 6.953c-2.709 3.642-3.684 8.269-2.673 12.694 1.01 4.425 3.896 8.17 7.916 10.274l7.679 4.02c.116.061.262.137.262.433s-.146.372-.262.433l-7.679 4.02c-4.021 2.104-6.906 5.85-7.916 10.274-1.011 4.425-.036 9.052 2.674 12.694l5.174 6.953c.078.105.177.237.048.504-.128.266-.292.272-.424.276l-8.661.29c-4.537.152-8.763 2.274-11.592 5.824-2.83 3.549-3.959 8.14-3.097 12.596l1.645 8.51c.024.129.056.29-.175.474-.233.186-.383.118-.503.065l-7.93-3.497c-4.154-1.832-8.88-1.752-12.971.217-4.089 1.97-7.099 5.617-8.255 10.005l-2.21 8.379c-.033.127-.075.287-.364.353-.284.064-.396-.059-.48-.159l-5.627-6.592c-2.947-3.452-7.241-5.431-11.78-5.431s-8.832 1.979-11.78 5.432l-5.626 6.591c-.085.101-.191.227-.481.16-.288-.066-.33-.225-.364-.352l-2.21-8.38c-1.157-4.389-4.167-8.036-8.256-10.005-4.09-1.969-8.816-2.048-12.97-.217l-7.93 3.497c-.12.053-.271.119-.501-.065-.231-.184-.2-.345-.175-.474l1.645-8.509c.861-4.457-.268-9.048-3.098-12.597-2.83-3.548-7.055-5.671-11.592-5.823l-8.661-.29c-.132-.004-.295-.01-.424-.276-.128-.267-.031-.398.048-.504l5.174-6.953c2.709-3.642 3.684-8.268 2.674-12.693s-3.896-8.17-7.917-10.275l-7.679-4.02c-.116-.061-.262-.137-.262-.433.002-.298.148-.374.265-.436z"/><path d="m254.999 141.299c26.418 0 47.91-21.488 47.91-47.9 0-6.612-1.329-13.026-3.95-19.066-1.648-3.799-6.065-5.546-9.866-3.894-3.799 1.649-5.543 6.066-3.894 9.866 1.798 4.144 2.71 8.549 2.71 13.094 0 18.141-14.764 32.9-32.91 32.9-18.147 0-32.91-14.759-32.91-32.9 0-18.146 14.763-32.91 32.91-32.91 3.206 0 6.359.457 9.373 1.356 3.968 1.186 8.147-1.071 9.333-5.041 1.186-3.969-1.071-8.147-5.04-9.333-4.407-1.316-9.006-1.983-13.666-1.983-26.418 0-47.91 21.492-47.91 47.91 0 26.413 21.492 47.901 47.91 47.901z"/><path d="m496.429 464.679h-29.06l-41.32-48.057c-7.798-9.069-18.515-14.934-30.167-16.71v-48.648c0-12.076 9.825-21.9 21.901-21.9 4.679 0 9.123 1.483 12.839 4.189-.964 10.198-1.282 35.736 16.503 53.521 14.213 14.212 33.388 16.865 45.722 16.865 6.926 0 11.695-.837 12.217-.933 3.063-.562 5.46-2.959 6.022-6.022.266-1.449 6.261-35.744-15.933-57.938-18.15-18.15-44.383-17.449-54.136-16.444-6.556-5.335-14.672-8.238-23.234-8.238-11.987 0-22.656 5.744-29.401 14.625-6.744-8.881-17.414-14.625-29.4-14.625-8.562 0-16.68 2.903-23.235 8.239-9.755-1.004-35.985-1.706-54.135 16.444-22.193 22.194-16.198 56.489-15.933 57.938.562 3.063 2.959 5.46 6.022 6.022.521.096 5.289.933 12.217.933 12.334 0 31.51-2.654 45.722-16.865 17.785-17.785 17.467-43.323 16.503-53.521 3.715-2.706 8.159-4.188 12.839-4.188 12.076 0 21.9 9.825 21.9 21.9v48.648c-11.652 1.776-22.369 7.641-30.166 16.71l-41.321 48.057h-106.772l-41.32-48.057c-7.798-9.069-18.515-14.934-30.167-16.71v-48.648c0-12.076 9.825-21.9 21.9-21.9 4.68 0 9.124 1.483 12.839 4.189-.964 10.198-1.281 35.736 16.503 53.521 14.212 14.213 33.387 16.865 45.721 16.865 6.926 0 11.696-.837 12.217-.933 3.063-.562 5.46-2.959 6.022-6.022.266-1.449 6.261-35.744-15.933-57.938-18.15-18.151-44.382-17.448-54.136-16.444-6.555-5.335-14.672-8.238-23.234-8.238-11.987 0-22.656 5.744-29.4 14.625-6.745-8.881-17.414-14.625-29.4-14.625-8.563 0-16.679 2.903-23.235 8.239-9.754-1.004-35.986-1.706-54.135 16.444-22.194 22.191-16.199 56.486-15.933 57.935.562 3.063 2.959 5.46 6.022 6.022.521.096 5.289.933 12.217.933 12.334 0 31.51-2.654 45.721-16.865 17.785-17.785 17.468-43.323 16.503-53.521 3.715-2.706 8.159-4.189 12.839-4.189 12.076 0 21.9 9.825 21.9 21.9v48.648c-11.652 1.776-22.369 7.641-30.167 16.71l-41.32 48.057h-29.058c-8.591 0-15.58 6.994-15.58 15.59v16.16c0 8.591 6.989 15.58 15.58 15.58h361.58c4.143 0 7.5-3.358 7.5-7.5s-3.357-7.5-7.5-7.5h-361.58c-.32 0-.58-.26-.58-.58v-16.16c0-.325.26-.59.58-.59h73.85c4.142 0 7.5-3.358 7.5-7.5s-3.358-7.5-7.5-7.5h-25.008l32.912-38.278c6.594-7.669 16.178-12.068 26.293-12.068s19.699 4.398 26.293 12.068l32.911 38.278h-58.401c-4.142 0-7.5 3.358-7.5 7.5s3.358 7.5 7.5 7.5h371.99c.32 0 .58.265.58.59v16.16c0 .32-.26.58-.58.58h-84.26c-4.143 0-7.5 3.358-7.5 7.5s3.357 7.5 7.5 7.5h84.26c8.591 0 15.58-6.989 15.58-15.58v-16.16c0-8.597-6.989-15.59-15.58-15.59zm-51.033-127.363c8.985-.5 27.063.25 39.15 12.336 12.09 12.09 12.835 30.167 12.337 39.15-8.991.497-27.065-.25-39.15-12.336-12.091-12.089-12.835-30.166-12.337-39.15zm-126.364 39.151c-12.091 12.088-30.167 12.834-39.149 12.337-.499-8.992.248-27.063 12.336-39.151 12.102-12.102 30.195-12.838 39.173-12.335.526 8.959-.184 26.974-12.36 39.149zm-138.384-39.151c8.992-.495 27.064.25 39.151 12.336 12.101 12.101 12.836 30.199 12.335 39.174-8.961.524-26.975-.185-39.15-12.359-12.086-12.09-12.834-30.168-12.336-39.151zm-126.362 39.151c-12.102 12.102-30.195 12.834-39.174 12.335-.525-8.96.185-26.975 12.36-39.15 12.09-12.09 30.164-12.833 39.15-12.337.498 8.993-.248 27.063-12.336 39.152zm307.803 49.934c6.595-7.669 16.179-12.068 26.294-12.068 10.114 0 19.698 4.399 26.293 12.068l32.911 38.278h-118.41z"/></g></g></svg>