<svg id="Capa_1" enable-background="new 0 0 512 512" height="512" viewBox="0 0 512 512" width="512" xmlns="http://www.w3.org/2000/svg"><g><path d="m35.725 322.656 20.28-39.358c9.283-18.015 14.126-37.988 14.126-58.253v-209.409c0-4.462 3.618-8.079 8.081-8.079h16.162c4.463 0 8.081 3.617 8.081 8.079v54.706c0 5.791 2.486 11.303 6.827 15.137l33.647 29.72c4.341 3.834 6.827 9.346 6.827 15.137v122.296c0 22.885 6.176 45.347 17.876 65.017l2.978 5.007z" fill="#dd7f66"/><path d="m167.633 317.649c-11.7-19.67-17.876-42.132-17.876-65.017v-122.296c0-5.791-2.486-11.303-6.827-15.137l-23.478-20.738v158.17c0 22.885 6.176 45.347 17.876 65.017l2.978 5.007h30.305z" fill="#d6694b"/><path d="m494.398 504.442h-476.796c-5.578 0-10.1-4.522-10.1-10.1v-161.586c0-5.578 4.522-10.1 10.1-10.1h476.796c5.578 0 10.1 4.522 10.1 10.1v161.586c.001 5.578-4.522 10.1-10.1 10.1z" fill="#e19974"/><path d="m494.398 504.442h-22.225v-181.786h22.225c5.578 0 10.1 4.522 10.1 10.1v161.586c.001 5.578-4.522 10.1-10.1 10.1z" fill="#dc8758"/><g><path d="m422.691 16.954 5.627-6.59c4.186-4.902 12.156-3.083 13.8 3.149l2.21 8.378c1.253 4.748 6.454 7.252 10.948 5.271l7.93-3.496c5.899-2.601 12.29 2.495 11.067 8.823l-1.645 8.507c-.932 4.821 2.667 9.334 7.576 9.498l8.662.29c6.443.216 9.99 7.579 6.142 12.75l-5.174 6.951c-2.932 3.939-1.648 9.566 2.704 11.844l7.678 4.019c5.711 2.989 5.711 11.162 0 14.152l-7.678 4.019c-4.351 2.277-5.636 7.904-2.704 11.844l5.174 6.951c3.849 5.171.302 12.535-6.142 12.75l-8.662.29c-4.909.164-8.508 4.677-7.576 9.498l1.645 8.507c1.223 6.328-5.168 11.424-11.067 8.823l-7.93-3.496c-4.494-1.981-9.695.523-10.948 5.271l-2.21 8.378c-1.644 6.232-9.614 8.051-13.8 3.149l-5.627-6.59c-3.189-3.735-8.962-3.735-12.151 0l-5.627 6.59c-4.186 4.902-12.156 3.083-13.8-3.149l-2.21-8.378c-1.253-4.748-6.454-7.252-10.948-5.271l-7.93 3.496c-5.899 2.601-12.29-2.495-11.067-8.823l1.645-8.507c.932-4.821-2.667-9.334-7.576-9.498l-8.662-.29c-6.443-.216-9.99-7.579-6.142-12.75l5.174-6.951c2.932-3.939 1.648-9.566-2.704-11.844l-7.678-4.019c-5.711-2.989-5.711-11.162 0-14.152l7.678-4.019c4.351-2.277 5.636-7.904 2.704-11.844l-5.174-6.951c-3.849-5.171-.302-12.535 6.142-12.75l8.662-.29c4.909-.164 8.508-4.677 7.576-9.498l-1.645-8.507c-1.223-6.328 5.168-11.424 11.067-8.823l7.93 3.496c4.494 1.981 9.695-.523 10.948-5.271l2.21-8.378c1.644-6.232 9.614-8.051 13.8-3.149l5.627 6.59c3.189 3.735 8.961 3.735 12.151 0z" fill="#ffe177"/><path d="m500.215 86.348-7.678-4.019c-4.351-2.278-5.636-7.904-2.704-11.844l5.174-6.951c3.849-5.171.302-12.534-6.141-12.75l-8.662-.29c-4.909-.164-8.508-4.677-7.576-9.498l1.645-8.507c1.119-5.79-4.137-10.529-9.557-9.305 4.195 10.462 6.508 21.881 6.508 33.842 0 50.254-40.749 90.993-91.014 90.993-6.735 0-13.297-.738-19.615-2.126l-1.636 8.464c-1.223 6.328 5.168 11.424 11.067 8.823l7.93-3.496c4.494-1.981 9.695.523 10.948 5.271l2.21 8.378c1.644 6.232 9.614 8.051 13.8 3.149l5.627-6.59c3.189-3.735 8.962-3.735 12.151 0l5.627 6.59c4.186 4.902 12.156 3.083 13.8-3.149l2.21-8.378c1.253-4.748 6.454-7.252 10.948-5.271l7.93 3.496c5.899 2.601 12.29-2.495 11.067-8.823l-1.645-8.507c-.932-4.821 2.667-9.334 7.576-9.498l8.662-.29c6.443-.216 9.99-7.579 6.141-12.75l-5.174-6.951c-2.932-3.939-1.648-9.566 2.704-11.844l7.678-4.019c5.71-2.987 5.71-11.16-.001-14.15z" fill="#ffd15b"/><ellipse cx="416.615" cy="93.424" fill="#fea95c" rx="40.406" ry="40.397"/><path d="m431.878 56.019c1.924 4.709 2.992 9.859 2.992 15.26 0 22.311-18.09 40.397-40.406 40.397-5.402 0-10.553-1.068-15.263-2.991 6.023 14.744 20.501 25.137 37.414 25.137 22.316 0 40.406-18.086 40.406-40.397 0-16.91-10.396-31.385-25.143-37.406z" fill="#fe9738"/></g><g><path d="m132.252 496.941h-32.521v-22.446c0-2.811-1.572-5.386-4.073-6.67l-28.127-14.452v-17.153c0-4.142-3.358-7.5-7.502-7.5s-7.502 3.358-7.502 7.5v18.624l-7.429 7.427c-2.93 2.929-2.93 7.677-.001 10.606 1.465 1.465 3.385 2.197 5.305 2.197 1.919 0 3.84-.732 5.304-2.197l5.759-5.758 23.262 11.953v17.868h-67.121c-1.434 0-2.601-1.167-2.601-2.6v-161.59c0-1.434 1.167-2.6 2.601-2.6h45.024v17.181l-25.388 25.382c-2.929 2.929-2.929 7.678 0 10.606 1.465 1.464 3.386 2.197 5.305 2.197s3.84-.732 5.305-2.197l8.487-8.486 8.487 8.486c1.465 1.465 3.385 2.197 5.305 2.197 1.919 0 3.84-.732 5.304-2.197 2.93-2.929 2.93-7.677.001-10.606l-8.488-8.486 8.488-8.486c1.407-1.406 2.197-3.314 2.197-5.303v-20.288h22.296l25.061 29.662c1.425 1.687 3.522 2.66 5.731 2.66h51.389c2.587 0 4.99-1.332 6.362-3.525l18.002-28.797h72.329v34.528l-12.191 12.188-14.388-14.384c-1.408-1.407-3.315-2.197-5.305-2.197h-24.46c-4.144 0-7.502 3.358-7.502 7.5s3.358 7.5 7.502 7.5h21.353l12.191 12.188-11.407 11.405c-2.929 2.929-2.929 7.678 0 10.606 1.465 1.464 3.386 2.197 5.305 2.197s3.84-.732 5.305-2.197l31.099-31.092 15.319 15.315c1.465 1.464 3.386 2.197 5.305 2.197s3.84-.732 5.305-2.197c2.929-2.929 2.929-7.678 0-10.606l-18.427-18.423v-34.528h42.392c4.144 0 7.502-3.358 7.502-7.5s-3.358-7.5-7.502-7.5h-161.326l-.794-1.332c-11.004-18.511-16.821-39.67-16.821-61.188v-93.909l50.411-51.38c1.375-1.402 2.146-3.288 2.146-5.252v-16.394l17.828-12.116c3.426-2.329 4.315-6.993 1.986-10.419-2.327-3.425-6.994-4.315-10.421-1.986l-9.393 6.383v-19.033c0-4.142-3.358-7.5-7.502-7.5s-7.502 3.358-7.502 7.5v50.502l-37.553 38.275v-6.959c0-7.947-3.412-15.516-9.357-20.76l-11.34-10.016 22.813-39.818c.651-1.135.992-2.42.992-3.728v-18.015l14.509-14.505c2.929-2.929 2.929-7.678 0-10.606-2.93-2.929-7.679-2.929-10.61 0l-3.898 3.897v-9.232c0-4.142-3.358-7.5-7.502-7.5s-7.502 3.358-7.502 7.5v46.464l-20.282 35.401-10.823-9.56c-2.733-2.417-4.301-5.889-4.301-9.523v-54.702c0-8.591-6.991-15.58-15.584-15.58h-16.163c-8.593 0-15.584 6.989-15.584 15.58v51.732c0 4.142 3.358 7.5 7.502 7.5s7.502-3.358 7.502-7.5v-51.732c0-.32.26-.58.58-.58h16.164c.32 0 .58.26.58.58v54.702c0 7.928 3.413 15.494 9.366 20.761l33.651 29.723c2.722 2.402 4.283 5.87 4.283 9.516v122.29c0 21.795 5.319 43.253 15.411 62.52h-109.632l14.641-28.416c9.783-18.994 14.956-40.328 14.956-61.694v-122.67c0-4.142-3.358-7.5-7.502-7.5s-7.502 3.358-7.502 7.5v29.675l-30.917-25.429v-44.917c0-4.142-3.358-7.5-7.502-7.5s-7.502 3.358-7.502 7.5v9.232l-3.898-3.898c-2.929-2.929-7.679-2.93-10.61 0-2.929 2.929-2.929 7.677 0 10.606l14.508 14.505v18.013c0 2.243 1.004 4.367 2.736 5.792l43.185 35.518v73.572c0 18.988-4.596 37.946-13.29 54.825l-18.18 35.285h-13.55c-9.707 0-17.605 7.896-17.605 17.6v161.59c0 9.705 7.897 17.6 17.605 17.6h114.646c4.144 0 7.502-3.358 7.502-7.5s-3.358-7.499-7.502-7.499zm45.7-149.468h-43.747l-14.635-17.322h69.211z"/><path d="m494.394 315.151h-123.188c-4.144 0-7.502 3.358-7.502 7.5s3.358 7.5 7.502 7.5h39.404v21.933l-35.486 10.494h-21.418c-4.144 0-7.502 3.358-7.502 7.5s3.358 7.5 7.502 7.5h15.001v30.395c0 4.142 3.358 7.5 7.502 7.5s7.502-3.358 7.502-7.5v-32.292l32.463-9.6 7.977 7.3v21.702c0 1.989.79 3.897 2.197 5.303l14.117 14.114c1.465 1.464 3.386 2.197 5.305 2.197s3.84-.732 5.305-2.197c2.929-2.929 2.929-7.678 0-10.606l-11.921-11.917v-21.898c0-2.104-.884-4.112-2.437-5.533l-11.104-10.161v-24.233h68.781c1.434 0 2.601 1.167 2.601 2.6v161.59c0 1.434-1.167 2.6-2.601 2.6h-48.683l-27.759-38.454c-1.287-1.783-3.292-2.911-5.484-3.087l-16.845-1.352 20.084-20.113c2.927-2.931 2.924-7.68-.009-10.606-2.931-2.926-7.681-2.924-10.609.009l-29.094 29.136-19.02-1.526-23.043-22.167c-2.986-2.871-7.735-2.78-10.607.205-2.873 2.985-2.781 7.733.204 10.605l24.974 24.023c1.248 1.201 2.875 1.933 4.602 2.071l54.709 4.39 19.395 26.866h-163.707v-20.913c0-1.989-.79-3.897-2.197-5.303l-13.703-13.699v-12.594c0-4.142-3.358-7.5-7.502-7.5s-7.502 3.358-7.502 7.5v15.701c0 1.989.79 3.897 2.197 5.303l13.703 13.699v17.806h-81.238c-4.144 0-7.502 3.358-7.502 7.5s3.358 7.5 7.502 7.5h327.134c9.707 0 17.605-7.896 17.605-17.6v-161.59c0-9.705-7.897-17.601-17.605-17.601z"/><path d="m329.535 107.145 7.679 4.019c.06.031.199.104.249.323s-.044.345-.084.399l-5.174 6.951c-3.452 4.638-4.038 10.755-1.53 15.964 2.509 5.209 7.659 8.566 13.439 8.759l8.661.29c.067.002.225.008.364.183.14.175.11.329.097.396l-1.643 8.506c-1.098 5.677 1.029 11.443 5.55 15.048 4.523 3.605 10.619 4.395 15.908 2.062l7.931-3.496c.06-.027.202-.092.407.007.202.098.243.25.26.313l2.21 8.379c1.475 5.59 5.893 9.863 11.532 11.149 1.155.264 2.316.392 3.468.392 4.472 0 8.773-1.938 11.76-5.435l5.627-6.589c.043-.051.146-.171.37-.171s.327.12.37.17l5.627 6.59c3.755 4.397 9.589 6.332 15.227 5.043 5.639-1.286 10.057-5.559 11.532-11.149l2.21-8.379c.018-.065.058-.216.259-.314.206-.098.347-.034.407-.007l7.931 3.496c5.291 2.333 11.387 1.543 15.908-2.062 4.522-3.605 6.648-9.371 5.551-15.047l-1.645-8.509c-.013-.066-.042-.22.098-.395s.297-.181.364-.183l8.661-.29c5.781-.193 10.929-3.55 13.439-8.759 2.509-5.209 1.923-11.326-1.53-15.964l-5.174-6.951c-.04-.054-.134-.181-.084-.399.05-.219.189-.292.249-.323l7.679-4.019c5.123-2.682 8.306-7.939 8.306-13.72 0-5.782-3.182-11.039-8.306-13.721l-7.679-4.019c-.06-.031-.199-.104-.249-.323s.044-.345.084-.399l5.174-6.952c3.453-4.639 4.039-10.756 1.53-15.965s-7.659-8.565-13.439-8.758l-8.661-.29c-.067-.002-.225-.008-.364-.183-.14-.175-.11-.329-.097-.396l1.643-8.506c1.098-5.677-1.029-11.442-5.549-15.047s-10.617-4.396-15.909-2.062l-7.931 3.496c-.062.027-.204.091-.406-.007-.202-.097-.242-.249-.26-.315l-2.21-8.377c-1.475-5.59-5.893-9.863-11.532-11.149-5.637-1.286-11.472.646-15.227 5.043l-5.627 6.589c-.043.051-.146.171-.37.171s-.327-.12-.37-.17l-5.627-6.59c-3.754-4.397-9.588-6.33-15.227-5.043-5.639 1.286-10.057 5.559-11.532 11.149l-2.21 8.376c-.017.065-.058.218-.26.315-.202.098-.346.034-.407.007l-7.931-3.496c-5.292-2.333-11.387-1.542-15.908 2.062-4.522 3.605-6.648 9.371-5.551 15.047l1.645 8.508c.013.066.042.22-.098.395s-.297.181-.364.183l-8.661.29c-5.78.193-10.928 3.549-13.438 8.758-2.509 5.209-1.924 11.327 1.529 15.965l5.174 6.951c.04.054.134.18.084.399s-.19.292-.249.323l-7.679 4.019c-5.123 2.682-8.306 7.939-8.306 13.721 0 5.784 3.182 11.041 8.305 13.723zm6.959-14.152 7.679-4.019c4.021-2.104 6.908-5.85 7.918-10.274 1.01-4.425.035-9.051-2.675-12.692l-5.174-6.951c-.078-.105-.176-.236-.048-.502.128-.265.291-.271.423-.275l8.661-.29c4.537-.151 8.763-2.274 11.593-5.822 2.83-3.549 3.959-8.14 3.097-12.594l-1.645-8.508c-.024-.129-.056-.289.175-.473.232-.185.38-.117.499-.065l7.931 3.496c4.153 1.831 8.879 1.752 12.97-.216 4.09-1.969 7.1-5.615 8.259-10.005l2.21-8.377c.033-.127.075-.285.362-.35.286-.063.394.058.479.158l5.627 6.59c2.948 3.451 7.242 5.431 11.781 5.431s8.833-1.979 11.781-5.431l5.627-6.59c.086-.1.195-.222.479-.158.287.065.329.223.362.351l2.21 8.377c1.158 4.389 4.167 8.035 8.257 10.004s8.818 2.048 12.971.217l7.931-3.496c.119-.053.271-.119.499.065.231.184.199.344.174.474l-1.643 8.505c-.862 4.456.267 9.047 3.096 12.596 2.831 3.548 7.056 5.671 11.593 5.822l8.661.29c.132.004.295.01.423.275s.03.396-.048.501l-5.174 6.951c-2.711 3.641-3.685 8.267-2.675 12.692 1.01 4.424 3.896 8.169 7.918 10.274l7.679 4.019c.116.061.261.137.261.432 0 .294-.145.37-.261.431l-7.679 4.019c-4.021 2.104-6.907 5.849-7.918 10.273-1.01 4.425-.035 9.051 2.675 12.692l5.174 6.951c.078.105.176.236.048.501s-.292.271-.423.275l-8.661.29c-4.537.151-8.763 2.274-11.593 5.823-2.83 3.548-3.959 8.139-3.097 12.593l1.645 8.508c.024.129.056.289-.175.473-.229.183-.378.117-.499.064l-7.931-3.496c-4.153-1.831-8.88-1.752-12.971.217-4.09 1.969-7.099 5.616-8.257 10.003l-2.21 8.378c-.033.127-.075.285-.362.35-.282.066-.393-.058-.479-.158l-5.627-6.59c-2.948-3.451-7.242-5.431-11.781-5.431s-8.833 1.979-11.781 5.431l-5.627 6.59c-.085.101-.193.224-.479.158-.287-.065-.329-.223-.362-.35l-2.21-8.38c-1.158-4.388-4.169-8.034-8.259-10.003-2.125-1.023-4.421-1.536-6.719-1.536-2.126 0-4.255.439-6.25 1.319l-7.931 3.497c-.119.053-.27.118-.498-.065-.231-.184-.199-.344-.174-.474l1.643-8.506c.862-4.456-.267-9.046-3.096-12.595-2.831-3.549-7.056-5.671-11.593-5.823l-8.661-.29c-.131-.004-.295-.01-.423-.276-.127-.265-.03-.396.048-.501l5.174-6.952c2.711-3.641 3.685-8.267 2.675-12.692-1.011-4.424-3.896-8.169-7.918-10.273l-7.679-4.019c-.116-.061-.261-.137-.261-.431-.002-.29.143-.366.259-.427z"/><path d="m416.615 141.321c26.417 0 47.908-21.486 47.908-47.897s-21.491-47.897-47.908-47.897c-26.416 0-47.907 21.486-47.907 47.897s21.491 47.897 47.907 47.897zm0-80.794c18.144 0 32.905 14.757 32.905 32.897s-14.761 32.897-32.905 32.897-32.904-14.757-32.904-32.897 14.76-32.897 32.904-32.897z"/><path d="m187.415 409.069c-2.929-2.929-7.679-2.93-10.61 0l-16.282 16.278-16.328-6.722v-20.268c0-4.142-3.358-7.5-7.502-7.5s-7.502 3.358-7.502 7.5v21.243l-25.342 16.634c-3.464 2.273-4.428 6.923-2.154 10.386 1.441 2.194 3.836 3.385 6.278 3.385 1.412 0 2.841-.398 4.11-1.231l25.415-16.682 20.547 8.458 15.578 15.574c1.465 1.464 3.386 2.197 5.305 2.197s3.84-.732 5.305-2.197c2.929-2.929 2.929-7.678 0-10.606l-11.334-11.332 14.515-14.511c2.93-2.929 2.93-7.677.001-10.606z"/><path d="m107.967 231.183c4.144 0 7.502-3.358 7.502-7.5v-40.909c0-4.142-3.358-7.5-7.502-7.5s-7.502 3.358-7.502 7.5v40.909c.001 4.142 3.359 7.5 7.502 7.5z"/><path d="m100.466 264.775c0 4.142 3.358 7.5 7.502 7.5s7.502-3.358 7.502-7.5v-10.611c0-4.142-3.358-7.5-7.502-7.5s-7.502 3.358-7.502 7.5z"/><path d="m259.7 290.338c0 4.142 3.358 7.5 7.502 7.5s7.502-3.358 7.502-7.5c0-4.338 1.219-6.123 3.239-9.08 2.469-3.616 5.852-8.568 5.852-17.539s-3.383-13.923-5.852-17.538c-2.02-2.957-3.239-4.742-3.239-9.08 0-4.142-3.358-7.5-7.502-7.5s-7.502 3.358-7.502 7.5c0 8.971 3.383 13.923 5.852 17.539 2.02 2.957 3.239 4.742 3.239 9.079 0 4.338-1.219 6.123-3.239 9.08-2.469 3.616-5.852 8.568-5.852 17.539z"/><path d="m230.397 210.485c0-4.142-3.358-7.5-7.502-7.5s-7.502 3.358-7.502 7.5c0 4.337-1.219 6.122-3.239 9.078-2.469 3.616-5.852 8.567-5.852 17.539s3.383 13.923 5.852 17.539c2.02 2.957 3.239 4.742 3.239 9.079 0 4.338-1.219 6.123-3.239 9.08-2.469 3.616-5.852 8.568-5.852 17.539 0 4.142 3.358 7.5 7.502 7.5s7.502-3.358 7.502-7.5c0-4.338 1.219-6.123 3.239-9.08 2.469-3.616 5.852-8.568 5.852-17.539s-3.383-13.923-5.852-17.538c-2.02-2.957-3.239-4.742-3.239-9.08s1.219-6.122 3.239-9.079c2.469-3.616 5.852-8.568 5.852-17.538z"/><path d="m313.097 290.338c0 4.142 3.358 7.5 7.502 7.5s7.502-3.358 7.502-7.5c0-4.338 1.219-6.123 3.239-9.08 2.47-3.616 5.853-8.568 5.853-17.54 0-8.971-3.383-13.923-5.853-17.539-2.02-2.957-3.239-4.741-3.239-9.079 0-4.337 1.219-6.122 3.239-9.079 2.47-3.616 5.853-8.567 5.853-17.538 0-4.142-3.358-7.5-7.502-7.5s-7.502 3.358-7.502 7.5c0 4.337-1.219 6.122-3.239 9.078-2.47 3.616-5.853 8.567-5.853 17.539s3.383 13.923 5.853 17.539c2.02 2.957 3.239 4.741 3.239 9.079s-1.219 6.123-3.239 9.08c-2.47 3.617-5.853 8.568-5.853 17.54z"/><path d="m366.495 290.338c0 4.142 3.358 7.5 7.502 7.5s7.502-3.358 7.502-7.5c0-4.338 1.219-6.123 3.239-9.08 2.47-3.616 5.853-8.568 5.853-17.54 0-8.971-3.383-13.923-5.853-17.539-2.02-2.957-3.239-4.741-3.239-9.079 0-4.142-3.358-7.5-7.502-7.5s-7.502 3.358-7.502 7.5c0 8.971 3.383 13.923 5.853 17.539 2.02 2.957 3.239 4.741 3.239 9.079s-1.219 6.123-3.239 9.08c-2.47 3.617-5.853 8.568-5.853 17.54z"/><path d="m443.988 210.485c0-4.142-3.358-7.5-7.502-7.5s-7.502 3.358-7.502 7.5c0 4.337-1.219 6.122-3.239 9.078-2.47 3.616-5.853 8.567-5.853 17.539s3.383 13.923 5.853 17.539c2.02 2.957 3.239 4.741 3.239 9.079s-1.219 6.123-3.239 9.08c-2.47 3.616-5.853 8.568-5.853 17.54 0 4.142 3.358 7.5 7.502 7.5s7.502-3.358 7.502-7.5c0-4.338 1.219-6.123 3.239-9.08 2.47-3.616 5.853-8.568 5.853-17.54 0-8.971-3.383-13.923-5.853-17.539-2.02-2.957-3.239-4.741-3.239-9.079 0-4.337 1.219-6.122 3.239-9.079 2.471-3.616 5.853-8.568 5.853-17.538z"/></g></g></svg>