<svg id="Capa_1" enable-background="new 0 0 512 512" height="512" viewBox="0 0 512 512" width="512" xmlns="http://www.w3.org/2000/svg"><g><path d="m197.411 82.252v-59.6c0-8.368 6.784-15.152 15.152-15.152 8.368 0 15.152 6.784 15.152 15.152v59.6z" fill="#ffe177"/><path d="m197.411 53.967h30.305v28.285h-30.305z" fill="#ffd15b"/><g><g><path d="m346.929 361.057-16.377-65.51c-2.248-8.994-10.329-15.303-19.6-15.303h-135.75c-6.359 0-12.347 2.994-16.163 8.081l-54.549 72.732h-.028l-64.082 7.913c-10.124 1.25-17.727 9.85-17.727 20.051v50.829h65.661v32.325h232.336v-32.325h65.661v-64.65c0-7.811-6.332-14.142-14.142-14.142h-25.24z" fill="#fd8087"/><path d="m386.311 420.313c-12.69-23.246-37.363-39.053-65.661-39.053-41.218 0-74.752 33.534-74.752 74.752 0 5.55.627 10.954 1.78 16.162h72.972v-32.324h65.661z" fill="#fe646f"/><path d="m161.285 472.175c1.153-5.208 1.78-10.612 1.78-16.162 0-41.218-33.534-74.752-74.752-74.752-28.298 0-52.971 15.807-65.661 39.053v19.536h65.661v32.325z" fill="#fe646f"/><g><path d="m255.163 361.057h58.445l-10.592-42.368c-.901-3.604-4.124-6.12-7.84-6.12h-40.013z" fill="#c8effe"/><path d="m303.016 318.689c-.901-3.604-4.124-6.12-7.84-6.12h-24.244c3.715 0 6.939 2.517 7.84 6.12l10.592 42.368h24.244z" fill="#99e6fc"/><path d="m222.838 312.569h-37.535c-2.53 0-4.947 1.208-6.465 3.233l-33.941 45.255h77.942v-48.488z" fill="#c8effe"/><path d="m198.594 312.569h24.244v48.488h-24.244z" fill="#99e6fc"/></g></g><path d="m393.382 472.175h-72.732v-32.325h72.732c4.463 0 8.081 3.618 8.081 8.081v16.163c0 4.463-3.618 8.081-8.081 8.081z" fill="#99e6fc"/><path d="m15.581 472.175h72.732v-32.325h-72.732c-4.463 0-8.081 3.618-8.081 8.081v16.163c0 4.463 3.618 8.081 8.081 8.081z" fill="#c8effe"/><circle cx="320.65" cy="456.012" fill="#528fd8" r="48.488"/><path d="m345.892 414.608c4.492 7.353 7.083 15.994 7.083 25.242 0 26.779-21.709 48.488-48.488 48.488-9.248 0-17.889-2.591-25.242-7.083 8.517 13.94 23.873 23.246 41.405 23.246 26.779 0 48.488-21.709 48.488-48.488 0-17.532-9.306-32.889-23.246-41.405z" fill="#0573ce"/><circle cx="320.65" cy="456.012" fill="#bfbfbf" r="16.163"/><circle cx="88.313" cy="456.012" fill="#528fd8" r="48.488"/><path d="m113.555 414.608c4.492 7.353 7.083 15.994 7.083 25.242 0 26.779-21.709 48.488-48.488 48.488-9.248 0-17.889-2.591-25.242-7.083 8.517 13.94 23.873 23.246 41.405 23.246 26.779 0 48.488-21.709 48.488-48.488 0-17.532-9.306-32.889-23.246-41.405z" fill="#0573ce"/><circle cx="88.313" cy="456.012" fill="#bfbfbf" r="16.163"/></g><path d="m314.589 114.577h-117.178v44.447c0 11.158 9.045 20.203 20.203 20.203h76.772c11.158 0 20.203-9.045 20.203-20.203z" fill="#9c9c9c"/><path d="m286.305 114.577v44.447c0 11.158-9.045 20.203-20.203 20.203h28.285c11.158 0 20.203-9.045 20.203-20.203v-44.447z" fill="#838383"/><path d="m322.671 82.252h-133.342c-4.463 0-8.081 3.618-8.081 8.081v16.163c0 4.463 3.618 8.081 8.081 8.081h133.341c4.463 0 8.081-3.618 8.081-8.081v-16.163c.001-4.463-3.617-8.081-8.08-8.081z" fill="#bfbfbf"/><path d="m314.589 82.252v-59.6c0-8.368-6.784-15.152-15.152-15.152-8.368 0-15.152 6.784-15.152 15.152v59.6z" fill="#ffe177"/><path d="m284.285 53.967h30.305v28.285h-30.305z" fill="#ffd15b"/><path d="m322.671 82.252h-36.366c4.463 0 8.081 3.618 8.081 8.081v16.163c0 4.463-3.618 8.081-8.081 8.081h36.366c4.463 0 8.081-3.618 8.081-8.081v-16.163c0-4.463-3.618-8.081-8.081-8.081z" fill="#acacac"/><g><path d="m256 139.326c-4.184 0-7.576 3.392-7.576 7.576s3.392 7.576 7.576 7.576 7.576-3.392 7.576-7.576-3.392-7.576-7.576-7.576z"/><path d="m186.98 464.68h-43.353c.441-2.826.674-5.72.674-8.668 0-30.871-25.116-55.987-55.988-55.987-22.418 0-41.791 13.25-50.725 32.325h-7.438v-43.33c0-6.401 4.793-11.821 11.149-12.606l63.874-7.885c2.102-.191 4.038-1.264 5.317-2.969l54.554-72.735c2.383-3.184 6.18-5.084 10.156-5.084h76.35c4.142 0 7.5-3.357 7.5-7.5s-3.358-7.5-7.5-7.5h-76.35c-8.678 0-16.964 4.147-22.16 11.09l-52.632 70.173-60.947 7.523c-13.859 1.712-24.311 13.531-24.311 27.493v43.352c-8.391.23-15.15 7.112-15.15 15.558v16.16c0 8.591 6.989 15.58 15.58 15.58h22.006c8.933 19.078 28.307 32.33 50.727 32.33 22.416 0 41.787-13.248 50.723-32.32h47.944c4.142 0 7.5-3.357 7.5-7.5s-3.358-7.5-7.5-7.5zm-171.4-.01c-.325 0-.58-.255-.58-.58v-16.16c0-.32.26-.58.58-.58h17.418c-.441 2.824-.673 5.716-.673 8.662 0 2.944.232 5.835.672 8.658zm72.733 32.33c-22.601 0-40.988-18.388-40.988-40.988s18.387-40.987 40.988-40.987 40.988 18.387 40.988 40.987-18.387 40.988-40.988 40.988z"/><path d="m247.664 312.569v48.487c0 4.143 3.358 7.5 7.5 7.5h58.445c2.31 0 4.49-1.064 5.912-2.885s1.925-4.193 1.364-6.435l-10.592-42.367c-1.737-6.948-7.953-11.801-15.116-11.801h-40.013c-4.143.001-7.5 3.359-7.5 7.501zm15 7.5h32.513c.276 0 .497.173.564.439l8.262 33.048h-41.339z"/><path d="m185.303 305.069c-4.879 0-9.539 2.33-12.465 6.232l-33.941 45.255c-1.705 2.272-1.979 5.313-.708 7.854 1.27 2.54 3.867 4.146 6.708 4.146h77.942c4.142 0 7.5-3.357 7.5-7.5v-48.487c0-4.143-3.358-7.5-7.5-7.5zm30.035 48.488h-55.442l24.942-33.255c.101-.135.296-.232.465-.232h30.036v33.487z"/><path d="m320.65 432.35c-13.047 0-23.663 10.615-23.663 23.662 0 13.048 10.615 23.663 23.663 23.663s23.663-10.615 23.663-23.663c0-13.047-10.615-23.662-23.663-23.662zm0 32.325c-4.776 0-8.663-3.887-8.663-8.663s3.886-8.662 8.663-8.662 8.663 3.886 8.663 8.662-3.886 8.663-8.663 8.663z"/><path d="m88.313 432.35c-13.047 0-23.663 10.615-23.663 23.662 0 13.048 10.615 23.663 23.663 23.663s23.663-10.615 23.663-23.663c0-13.047-10.616-23.662-23.663-23.662zm0 32.325c-4.776 0-8.663-3.887-8.663-8.663s3.886-8.662 8.663-8.662 8.663 3.886 8.663 8.662-3.887 8.663-8.663 8.663z"/><path d="m484.297 232.337h-218.195c-1.435 0-2.602-1.167-2.602-2.602v-43.008h30.886c15.275 0 27.703-12.428 27.703-27.703v-36.944h.581c8.591 0 15.58-6.989 15.58-15.58v-16.17c0-8.591-6.989-15.58-15.58-15.58h-.581v-52.098c0-12.49-10.161-22.652-22.652-22.652s-22.652 10.162-22.652 22.652v52.098h-41.569v-52.098c-.001-12.49-10.162-22.652-22.653-22.652s-22.652 10.162-22.652 22.652v52.098h-.581c-8.591 0-15.58 6.989-15.58 15.58v16.17c0 8.591 6.989 15.58 15.58 15.58h.581v36.944c0 15.275 12.428 27.703 27.703 27.703h30.886v43.008c0 9.705 7.896 17.602 17.602 17.602h218.195c7.004 0 12.703 5.699 12.703 12.704v175.769c0 7.005-5.699 12.703-12.703 12.703h-75.333v-.581c0-8.447-6.761-15.331-15.153-15.56v-57.172c0-11.933-9.708-21.641-21.64-21.641h-19.384l-14.96-59.829c-3.089-12.358-14.141-20.99-26.875-20.99h-24.4c-4.142 0-7.5 3.357-7.5 7.5s3.358 7.5 7.5 7.5h24.4c5.838 0 10.906 3.959 12.324 9.629l16.38 65.51c.834 3.339 3.834 5.681 7.276 5.681h25.24c3.662 0 6.64 2.979 6.64 6.641v57.149h-7.435c-8.934-19.075-28.307-32.325-50.725-32.325-30.872 0-55.988 25.116-55.988 55.987 0 2.948.233 5.842.674 8.668h-43.358c-4.142 0-7.5 3.357-7.5 7.5s3.358 7.5 7.5 7.5h47.948c8.935 19.073 28.307 32.32 50.723 32.32 22.418 0 41.79-13.25 50.725-32.325h22.007c8.591 0 15.581-6.989 15.581-15.581v-.581h75.333c15.275 0 27.703-12.428 27.703-27.703v-175.769c0-15.276-12.428-27.704-27.703-27.704zm-192.512-209.685c0-4.22 3.433-7.652 7.652-7.652s7.652 3.433 7.652 7.652v52.098h-15.305v-52.098zm-86.874 0c0-4.22 3.433-7.652 7.652-7.652s7.652 3.433 7.652 7.652v52.098h-15.305v-52.098zm0 136.372v-36.944h7.649c4.142 0 7.5-3.357 7.5-7.5s-3.358-7.5-7.5-7.5h-23.23c-.32 0-.58-.26-.58-.58v-16.17c0-.32.26-.58.58-.58h133.34c.32 0 .58.26.58.58v16.17c0 .32-.26.58-.58.58h-75.11c-4.142 0-7.5 3.357-7.5 7.5s3.358 7.5 7.5 7.5h59.529v36.944c0 7.005-5.699 12.703-12.703 12.703h-76.772c-7.005.001-12.703-5.698-12.703-12.703zm115.739 337.976c-22.601 0-40.988-18.388-40.988-40.988s18.387-40.987 40.988-40.987 40.988 18.387 40.988 40.987-18.387 40.988-40.988 40.988zm73.313-32.906c0 .32-.261.581-.581.581h-17.417c.441-2.824.673-5.717.673-8.663s-.232-5.838-.673-8.662h17.417c.32 0 .581.261.581.582z"/></g></g></svg>