<svg id="Capa_1" enable-background="new 0 0 512 512" height="512" viewBox="0 0 512 512" width="512" xmlns="http://www.w3.org/2000/svg"><g><g><g fill="#528fd8"><path d="m316.61 290.346h-64.651l64.651-52.529z"/><path d="m381.26 290.346h-64.65l64.65-52.529z"/><path d="m445.911 290.346h-64.651l64.651-52.529z"/></g><g><path d="m142.862 39.825h-76.773v-20.203c0-6.695 5.427-12.122 12.122-12.122h52.528c6.695 0 12.122 5.427 12.122 12.122v20.203z" fill="#bfbfbf"/><path d="m130.74 7.5h-28.285c6.695 0 12.122 5.427 12.122 12.122v20.203h28.285v-20.203c0-6.695-5.427-12.122-12.122-12.122z" fill="#acacac"/><path d="m66.089 39.825h76.772v250.52h-76.772z" fill="#9c9c9c"/><path d="m114.577 39.825h28.285v250.52h-28.285z" fill="#838383"/></g><g><path d="m251.959 86.293h-76.772v-20.204c0-6.695 5.427-12.122 12.122-12.122h52.528c6.695 0 12.122 5.427 12.122 12.122z" fill="#bfbfbf"/><path d="m239.837 53.967h-28.285c6.695 0 12.122 5.427 12.122 12.122v20.203h28.285v-20.203c0-6.694-5.427-12.122-12.122-12.122z" fill="#acacac"/><path d="m175.187 86.293h76.772v204.053h-76.772z" fill="#9c9c9c"/><path d="m223.675 86.293h28.285v204.053h-28.285z" fill="#838383"/></g></g><path d="m496.419 504.5h-480.838c-4.463 0-8.081-3.618-8.081-8.081v-16.163c0-4.463 3.618-8.081 8.081-8.081h480.837c4.463 0 8.081 3.618 8.081 8.081v16.163c.001 4.463-3.617 8.081-8.08 8.081z" fill="#bfbfbf"/><path d="m478.236 472.175h-444.472v-167.687c0-7.811 6.332-14.142 14.142-14.142h416.187c7.811 0 14.142 6.332 14.142 14.142v167.687z" fill="#ffe177"/><path d="m122.659 397.423h-48.488c-4.463 0-8.081 3.618-8.081 8.081v66.671h64.65v-66.671c0-4.463-3.618-8.081-8.081-8.081z" fill="#dc8758"/><path d="m464.094 290.346h-32.325c7.811 0 14.142 6.332 14.142 14.142v167.687h32.325v-167.687c0-7.811-6.332-14.142-14.142-14.142z" fill="#ffd15b"/><path d="m496.419 472.175h-40.406c4.463 0 8.081 3.618 8.081 8.081v16.163c0 4.463-3.618 8.081-8.081 8.081h40.406c4.463 0 8.081-3.618 8.081-8.081v-16.163c0-4.463-3.618-8.081-8.081-8.081z" fill="#acacac"/><g fill="#dff6fd"><path d="m340.854 326.711h-60.61c-4.463 0-8.081 3.618-8.081 8.081v24.244c0 4.463 3.618 8.081 8.081 8.081h60.61c4.463 0 8.081-3.618 8.081-8.081v-24.244c0-4.463-3.618-8.081-8.081-8.081z"/><path d="m171.146 367.118h60.61c4.463 0 8.081-3.618 8.081-8.081v-24.244c0-4.463-3.618-8.081-8.081-8.081h-60.61c-4.463 0-8.081 3.618-8.081 8.081v24.244c0 4.463 3.618 8.081 8.081 8.081z"/><path d="m437.829 326.711h-48.488c-4.463 0-8.081 3.618-8.081 8.081v24.244c0 4.463 3.618 8.081 8.081 8.081h48.488c4.463 0 8.081-3.618 8.081-8.081v-24.244c.001-4.463-3.618-8.081-8.081-8.081z"/><path d="m122.659 326.711h-48.488c-4.463 0-8.081 3.618-8.081 8.081v24.244c0 4.463 3.618 8.081 8.081 8.081h48.488c4.463 0 8.081-3.618 8.081-8.081v-24.244c0-4.463-3.618-8.081-8.081-8.081z"/></g><g><path d="m496.42 464.67h-10.68v-160.18c0-11.933-9.712-21.641-21.65-21.641h-10.679v-45.032c0-2.894-1.664-5.528-4.277-6.772-2.611-1.242-5.707-.873-7.953.951l-52.421 42.592v-36.771c0-2.894-1.664-5.528-4.277-6.772-2.612-1.242-5.706-.873-7.953.951l-52.421 42.592v-36.771c0-2.894-1.664-5.528-4.277-6.772-2.612-1.242-5.707-.873-7.953.951l-52.421 42.592v-208.498c0-10.819-8.802-19.622-19.622-19.622h-52.528c-10.82 0-19.622 8.803-19.622 19.622v216.76h-17.326v-263.23c0-10.818-8.801-19.62-19.62-19.62h-52.53c-10.818 0-19.62 8.802-19.62 19.62v82.98c0 4.143 3.358 7.5 7.5 7.5s7.5-3.357 7.5-7.5v-55.275h61.77v235.525h-61.77v-145.25c0-4.143-3.358-7.5-7.5-7.5s-7.5 3.357-7.5 7.5v145.25h-10.68c-11.938 0-21.65 9.708-21.65 21.641v160.18h-10.68c-8.591-.001-15.58 6.992-15.58 15.589v16.16c0 8.591 6.989 15.58 15.58 15.58h480.84c8.591 0 15.58-6.989 15.58-15.58v-16.16c0-8.597-6.989-15.59-15.58-15.59zm-422.83-432.345v-12.705c0-2.548 2.073-4.62 4.62-4.62h52.53c2.547 0 4.62 2.072 4.62 4.62v12.705zm364.821 221.249v29.271h-36.026zm-64.651 0v29.271h-36.026zm-64.65 0v29.271h-36.026zm-121.801-192.106h52.528c2.549 0 4.622 2.073 4.622 4.622v12.703h-61.772v-12.703c0-2.549 2.073-4.622 4.622-4.622zm309.691 434.952c0 .32-.26.58-.58.58h-480.84c-.32 0-.58-.26-.58-.58v-16.16c0-.325.26-.59.58-.59h301.56c4.142 0 7.5-3.357 7.5-7.5s-3.358-7.5-7.5-7.5h-178.9v-59.166c0-8.592-6.99-15.581-15.581-15.581h-48.488c-8.592 0-15.582 6.989-15.582 15.581v59.166h-17.329v-160.18c0-3.662 2.983-6.641 6.65-6.641h146.65c4.142 0 7.5-3.357 7.5-7.5s-3.358-7.5-7.5-7.5h-11.873v-189.056h61.772v189.057h-14.899c-4.142 0-7.5 3.357-7.5 7.5s3.358 7.5 7.5 7.5h234.53c3.667 0 6.65 2.979 6.65 6.641v160.18h-118.6c-4.142 0-7.5 3.357-7.5 7.5s3.358 7.5 7.5 7.5h144.28c.32 0 .58.265.58.59zm-373.76-31.75h-49.65v-59.166c0-.32.261-.581.582-.581h48.488c.32 0 .581.261.581.581v59.166z"/><path d="m356.435 359.036v-24.243c0-8.592-6.99-15.582-15.582-15.582h-60.609c-8.592 0-15.582 6.99-15.582 15.582v24.243c0 8.592 6.99 15.582 15.582 15.582h60.609c8.592 0 15.582-6.99 15.582-15.582zm-15 0c0 .321-.261.582-.582.582h-60.609c-.321 0-.582-.261-.582-.582v-24.243c0-.321.261-.582.582-.582h60.609c.321 0 .582.261.582.582z"/><path d="m231.756 319.211h-60.609c-8.592 0-15.582 6.99-15.582 15.582v24.243c0 8.592 6.99 15.582 15.582 15.582h60.609c8.592 0 15.582-6.99 15.582-15.582v-24.243c-.001-8.592-6.99-15.582-15.582-15.582zm.581 39.825c0 .321-.261.582-.582.582h-60.609c-.321 0-.582-.261-.582-.582v-24.243c0-.321.261-.582.582-.582h60.609c.321 0 .582.261.582.582z"/><path d="m389.341 374.618h48.488c8.592 0 15.582-6.99 15.582-15.582v-24.243c0-8.592-6.99-15.582-15.582-15.582h-48.488c-8.591 0-15.581 6.99-15.581 15.582v24.243c0 8.592 6.99 15.582 15.581 15.582zm-.581-39.825c0-.321.261-.582.581-.582h48.488c.321 0 .582.261.582.582v24.243c0 .321-.261.582-.582.582h-48.488c-.32 0-.581-.261-.581-.582z"/><path d="m122.659 319.211h-48.488c-8.592 0-15.582 6.99-15.582 15.582v24.243c0 8.592 6.99 15.582 15.582 15.582h48.488c8.591 0 15.581-6.99 15.581-15.582v-24.243c0-8.592-6.99-15.582-15.581-15.582zm.581 39.825c0 .321-.261.582-.581.582h-48.488c-.321 0-.582-.261-.582-.582v-24.243c0-.321.261-.582.582-.582h48.488c.32 0 .581.261.581.582z"/></g></g></svg>