<svg id="Capa_1" enable-background="new 0 0 512 512" height="512" viewBox="0 0 512 512" width="512" xmlns="http://www.w3.org/2000/svg"><g><path d="m66.089 72.15h32.325v308.1h-32.325z" fill="#e19974"/><path d="m98.415 39.825h-32.326v-24.244c0-4.463 3.618-8.081 8.081-8.081h16.163c4.463 0 8.081 3.618 8.081 8.081v24.244z" fill="#e19974"/><path d="m66.089 72.15h32.325v32.325h-32.325z" fill="#dc8758"/><path d="m98.415 296.104-32.326 8.456v75.69h32.326z" fill="#dc8758"/><path d="m7.5 64.069v-16.162c0-4.463 3.618-8.081 8.081-8.081h133.341c4.463 0 8.081 3.618 8.081 8.081v16.163c0 4.463-3.618 8.081-8.081 8.081h-133.341c-4.463-.001-8.081-3.619-8.081-8.082z" fill="#bfbfbf"/><path d="m148.923 39.825h-32.325c4.463 0 8.081 3.618 8.081 8.081v16.163c0 4.463-3.618 8.081-8.081 8.081h32.325c4.463 0 8.081-3.618 8.081-8.081v-16.162c0-4.464-3.618-8.082-8.081-8.082z" fill="#acacac"/><path d="m417.626 310.549-16.377-65.51c-2.248-8.994-10.329-15.303-19.6-15.303h-155.954c-6.359 0-12.347 2.994-16.163 8.081l-54.549 72.732h-.028l-96.888 25.347c-8.889 2.326-15.09 10.357-15.09 19.545v23.799h213.008 213.008v-35.479c0-8.43-5.235-15.975-13.132-18.925z" fill="#fd8087"/><path d="m468.994 379.24v-28.285c-.049 0-.097 0-.116 0-.487-.315-1.155-.77-1.688-1.134-5.623-3.84-16.091-10.987-33.702-10.987s-28.078 7.148-33.701 10.987c-.533.364-1.2.819-1.687 1.134-.036 0-.191 0-.228 0-.487-.315-1.154-.77-1.687-1.134-5.623-3.84-16.09-10.987-33.701-10.987s-28.079 7.148-33.702 10.988c-.532.364-1.199.819-1.686 1.133-.036 0-.189 0-.226 0-.487-.315-1.154-.77-1.686-1.133-5.623-3.84-16.09-10.988-33.701-10.988s-28.077 7.149-33.7 10.989c-.532.363-1.198.818-1.685 1.133-.035 0-.186 0-.221 0-.487-.315-1.153-.769-1.685-1.133-5.623-3.84-16.089-10.989-33.7-10.989s-28.078 7.148-33.701 10.988c-.532.364-1.199.818-1.686 1.133-.036 0-.19 0-.226 0-.487-.315-1.154-.77-1.686-1.133-5.623-3.84-16.09-10.988-33.701-10.988s-28.078 7.148-33.701 10.988c-.532.364-1.198.818-1.685 1.133-.036 0-.187 0-.223 0-.487-.315-1.153-.769-1.685-1.133-5.623-3.84-16.09-10.988-33.701-10.988s-28.077 7.149-33.7 10.988c-.382.261-.831.568-1.235.837-.375 1.541-.581 3.142-.581 4.782v23.799h213.008z" fill="#fe646f"/><g><path d="m315.759 310.549h68.547l-10.592-42.368c-.901-3.604-4.124-6.12-7.84-6.12h-50.115z" fill="#c8effe"/><path d="m373.714 268.181c-.901-3.604-4.124-6.12-7.84-6.12h-24.244c3.715 0 6.939 2.517 7.84 6.12l10.592 42.368h24.244z" fill="#99e6fc"/><path d="m283.434 262.061h-47.637c-2.53 0-4.947 1.208-6.465 3.233l-33.941 45.255h88.044v-48.488z" fill="#c8effe"/><path d="m259.19 262.061h24.244v48.488h-24.244z" fill="#99e6fc"/></g><path d="m504.5 367.118c-17.753 0-17.753 12.122-35.506 12.122s-17.753-12.122-35.506-12.122c-17.751 0-17.751 12.122-35.501 12.122-17.751 0-17.751-12.122-35.503-12.122-17.75 0-17.75 12.122-35.501 12.122-17.75 0-17.75-12.122-35.5-12.122-17.748 0-17.748 12.122-35.496 12.122s-17.748-12.122-35.495-12.122c-17.75 0-17.75 12.122-35.501 12.122-17.75 0-17.75-12.122-35.5-12.122-17.749 0-17.749 12.122-35.498 12.122s-17.749-12.122-35.497-12.122-17.748 12.122-35.497 12.122-17.749-12.122-35.498-12.122v137.382h497v-137.382z" fill="#99e6fc"/><path d="m472.175 379.098v125.402h32.325v-137.382c-16.623 0-17.683 10.627-32.325 11.98z" fill="#62dbfb"/><path d="m309.836 111.102c.001-.074.006-.146.006-.22 0-7.991-5.803-14.622-13.424-15.919-2.429-10.143-11.554-17.683-22.441-17.683-10.967 0-20.147 7.651-22.494 17.906-1.223-.296-2.499-.457-3.813-.457-8.921 0-16.154 7.232-16.154 16.154 0 .034.002.067.003.101-.155-.004-.308-.012-.464-.012-10.196 0-18.461 8.265-18.461 18.461s8.265 18.461 18.461 18.461h76.614c10.196 0 18.461-8.265 18.461-18.461 0-9.463-7.12-17.257-16.294-18.331z" fill="#dff6fd"/><path d="m309.836 111.102c.001-.074.006-.146.006-.22 0-7.991-5.803-14.622-13.424-15.919-1.556-6.499-5.865-11.926-11.622-14.989 5.588 20.27-1.588 45.408-20.343 64.162-1.31 1.31-2.653 2.561-4.022 3.758h47.237c10.196 0 18.461-8.265 18.461-18.461.001-9.463-7.119-17.257-16.293-18.331z" fill="#c8effe"/><path d="m488.399 40.923c.001-.073.005-.145.005-.218 0-7.896-5.735-14.449-13.265-15.731-2.4-10.023-11.417-17.474-22.175-17.474-10.837 0-19.909 7.56-22.229 17.694-1.209-.293-2.469-.451-3.768-.451-8.816 0-15.963 7.147-15.963 15.963 0 .034.002.066.003.1-.153-.004-.305-.012-.459-.012-10.075 0-18.243 8.168-18.243 18.243s8.168 18.243 18.243 18.243h75.708c10.075 0 18.243-8.168 18.243-18.243.001-9.351-7.035-17.053-16.1-18.114z" fill="#dff6fd"/><path d="m488.399 40.923c.001-.073.005-.145.005-.218 0-7.896-5.735-14.449-13.265-15.731-1.538-6.423-5.795-11.785-11.485-14.812 5.522 20.031-1.57 44.871-20.102 63.404-1.295 1.295-2.622 2.531-3.974 3.713h46.679c10.075 0 18.243-8.168 18.243-18.243 0-9.35-7.036-17.052-16.101-18.113z" fill="#c8effe"/><g><path d="m308.259 262.061v48.488c0 4.142 3.357 7.5 7.5 7.5h68.547c2.31 0 4.49-1.064 5.911-2.884 1.422-1.82 1.925-4.194 1.365-6.435l-10.593-42.369c-1.737-6.948-7.953-11.8-15.115-11.8h-50.115c-4.143 0-7.5 3.358-7.5 7.5zm15 7.5h42.615c.275 0 .497.173.563.439l8.263 33.049h-51.441z"/><path d="m235.797 254.561c-4.878 0-9.538 2.33-12.466 6.232l-33.941 45.255c-1.704 2.272-1.979 5.313-.708 7.854s3.867 4.146 6.708 4.146h88.044c4.143 0 7.5-3.358 7.5-7.5v-48.488c0-4.142-3.357-7.5-7.5-7.5h-47.637zm40.137 48.488h-65.544l24.941-33.255c.101-.135.297-.233.466-.233h40.137z"/><path d="m504.5 359.62c-11.189 0-17.172 4.083-21.978 7.364-2.09 1.427-3.884 2.646-6.032 3.494v-26.718c0-11.497-7.236-21.924-18.004-25.945l-34.537-12.909-15.424-61.686c-3.091-12.352-14.143-20.979-26.875-20.979h-14.12c-4.143 0-7.5 3.358-7.5 7.5s3.357 7.5 7.5 7.5h14.12c5.839 0 10.906 3.956 12.323 9.619l16.38 65.51c.6 2.395 2.338 4.342 4.65 5.206l38.232 14.291c4.937 1.844 8.254 6.624 8.254 11.894v26.716c-2.143-.848-3.934-2.065-6.021-3.49-4.807-3.282-10.788-7.366-21.979-7.366s-17.173 4.084-21.979 7.366c-4.042 2.76-6.962 4.754-13.521 4.754-6.565 0-9.487-1.995-13.532-4.756-4.807-3.281-10.788-7.364-21.978-7.364-11.191 0-17.173 4.084-21.979 7.366-4.042 2.76-6.962 4.754-13.521 4.754s-9.479-1.994-13.521-4.754c-4.807-3.282-10.788-7.366-21.979-7.366-11.193 0-17.175 4.085-21.98 7.368-4.039 2.759-6.958 4.752-13.51 4.752-6.559 0-9.479-1.994-13.521-4.754-4.807-3.282-10.788-7.366-21.979-7.366s-17.173 4.084-21.979 7.366c-4.042 2.76-6.962 4.754-13.521 4.754s-9.479-1.994-13.521-4.754c-4.807-3.282-10.788-7.366-21.979-7.366s-17.173 4.084-21.979 7.366c-4.042 2.76-6.962 4.754-13.521 4.754s-9.479-1.994-13.521-4.754c-4.807-3.282-10.788-7.366-21.979-7.366-11.186 0-17.165 4.084-21.97 7.366-2.093 1.429-3.888 2.65-6.04 3.498v-15.045c0-5.775 3.899-10.826 9.488-12.284l96.637-25.284c1.731-.384 3.29-1.375 4.375-2.822l54.549-72.729c2.388-3.182 6.189-5.081 10.171-5.081h106.83c4.143 0 7.5-3.358 7.5-7.5s-3.357-7.5-7.5-7.5h-106.829c-8.676 0-16.964 4.141-22.17 11.08l-52.975 70.63-44.646 11.681v-145.341c0-4.142-3.357-7.5-7.5-7.5s-7.5 3.358-7.5 7.5v149.265l-17.32 4.532v-244.437h17.32v55.64c0 4.142 3.357 7.5 7.5 7.5s7.5-3.358 7.5-7.5v-55.64h43.013c8.592 0 15.581-6.99 15.581-15.581v-16.162c0-8.592-6.989-15.582-15.581-15.582h-2.602v-8.663c0-4.142-3.357-7.5-7.5-7.5s-7.5 3.358-7.5 7.5v8.663h-25.406v-16.743c.001-8.592-6.989-15.582-15.581-15.582h-16.162c-8.592 0-15.581 6.99-15.581 15.582v16.744h-25.407v-8.663c0-4.142-3.357-7.5-7.5-7.5s-7.5 3.358-7.5 7.5v8.663h-2.602c-8.592-.001-15.581 6.989-15.581 15.581v16.163c0 8.591 6.989 15.58 15.581 15.58h43.009v248.361l-2.413.631c-12.186 3.18-20.696 14.199-20.696 26.797v15.029c-2.135-.847-3.921-2.062-6.001-3.482-4.807-3.282-10.788-7.366-21.979-7.366-4.143 0-7.5 3.358-7.5 7.5v137.38c0 4.142 3.357 7.5 7.5 7.5h55.28c4.143 0 7.5-3.358 7.5-7.5s-3.357-7.5-7.5-7.5h-47.781v-121.12c2.145.848 3.934 2.069 6.021 3.494 4.807 3.282 10.788 7.366 21.979 7.366 11.193 0 17.175-4.085 21.98-7.368 4.039-2.759 6.958-4.752 13.51-4.752 6.559 0 9.479 1.994 13.521 4.754 4.807 3.282 10.788 7.366 21.979 7.366s17.173-4.084 21.979-7.366c4.042-2.76 6.962-4.754 13.521-4.754s9.479 1.994 13.521 4.754c4.807 3.282 10.788 7.366 21.979 7.366s17.173-4.084 21.979-7.366c4.042-2.76 6.962-4.754 13.521-4.754s9.479 1.994 13.521 4.754c4.807 3.282 10.788 7.366 21.979 7.366 11.186 0 17.165-4.084 21.97-7.366 4.041-2.76 6.961-4.754 13.521-4.754 6.559 0 9.479 1.994 13.521 4.754 4.807 3.282 10.788 7.366 21.979 7.366s17.173-4.084 21.979-7.366c4.042-2.76 6.962-4.754 13.521-4.754 6.558 0 9.479 1.994 13.521 4.753 4.809 3.282 10.792 7.367 21.989 7.367 11.191 0 17.173-4.084 21.979-7.366 4.042-2.76 6.962-4.754 13.521-4.754s9.479 1.994 13.521 4.754c4.807 3.282 10.788 7.366 21.979 7.366 11.197 0 17.181-4.085 21.989-7.367 2.087-1.425 3.876-2.646 6.021-3.494v121.121h-399.221c-4.143 0-7.5 3.358-7.5 7.5s3.357 7.5 7.5 7.5h406.72c4.143 0 7.5-3.358 7.5-7.5v-137.38c0-4.142-3.357-7.5-7.5-7.5zm-430.91-344.038c0-.321.261-.582.581-.582h16.162c.321 0 .582.261.582.582v16.744h-17.325zm-58.59 48.487v-16.162c0-.321.261-.582.581-.582h133.342c.32 0 .581.261.581.582v16.163c0 .32-.261.581-.581.581h-133.342c-.32-.001-.581-.261-.581-.582z"/><path d="m105.834 429.375c3.617 2.47 8.569 5.853 17.542 5.853s13.926-3.383 17.542-5.853c2.958-2.02 4.743-3.239 9.082-3.239 4.34 0 6.125 1.219 9.083 3.239 3.616 2.47 8.569 5.853 17.542 5.853 4.143 0 7.5-3.358 7.5-7.5s-3.357-7.5-7.5-7.5c-4.34 0-6.125-1.219-9.083-3.239-3.616-2.47-8.569-5.853-17.542-5.853s-13.925 3.382-17.541 5.853c-2.958 2.02-4.743 3.239-9.083 3.239-4.339 0-6.124-1.219-9.081-3.239-3.617-2.47-8.569-5.853-17.542-5.853s-13.925 3.383-17.542 5.853c-2.957 2.02-4.742 3.239-9.081 3.239-4.143 0-7.5 3.358-7.5 7.5s3.357 7.5 7.5 7.5c8.973 0 13.925-3.383 17.542-5.853 2.957-2.02 4.742-3.239 9.081-3.239s6.124 1.219 9.081 3.239z"/><path d="m352.916 429.375c2.957-2.02 4.742-3.239 9.081-3.239 4.34 0 6.125 1.219 9.083 3.239 3.616 2.47 8.568 5.853 17.541 5.853s13.925-3.382 17.541-5.853c2.958-2.02 4.743-3.239 9.083-3.239s6.125 1.219 9.083 3.239c3.616 2.47 8.569 5.853 17.542 5.853 4.143 0 7.5-3.358 7.5-7.5s-3.357-7.5-7.5-7.5c-4.34 0-6.125-1.219-9.083-3.239-3.616-2.47-8.569-5.853-17.542-5.853s-13.926 3.383-17.542 5.853c-2.958 2.02-4.743 3.239-9.082 3.239s-6.124-1.219-9.082-3.239c-3.616-2.47-8.569-5.853-17.542-5.853s-13.926 3.383-17.542 5.853c-2.957 2.02-4.742 3.239-9.08 3.239-4.143 0-7.5 3.358-7.5 7.5s3.357 7.5 7.5 7.5c8.972 0 13.925-3.383 17.541-5.853z"/><path d="m220.294 469.421c2.957-2.02 4.742-3.239 9.081-3.239s6.124 1.219 9.081 3.239c3.617 2.47 8.569 5.853 17.542 5.853s13.926-3.383 17.543-5.853c2.957-2.02 4.742-3.239 9.081-3.239 4.34 0 6.125 1.219 9.083 3.239 3.616 2.47 8.569 5.853 17.543 5.853 4.143 0 7.5-3.358 7.5-7.5s-3.357-7.5-7.5-7.5c-4.34 0-6.126-1.219-9.084-3.24-3.616-2.47-8.569-5.852-17.542-5.852s-13.925 3.382-17.541 5.853c-2.958 2.02-4.743 3.239-9.083 3.239-4.339 0-6.124-1.219-9.081-3.239-3.617-2.47-8.569-5.853-17.542-5.853s-13.925 3.383-17.542 5.853c-2.957 2.02-4.742 3.239-9.081 3.239-4.143 0-7.5 3.358-7.5 7.5s3.357 7.5 7.5 7.5c8.973 0 13.925-3.383 17.542-5.853z"/><path d="m231.054 155.394h76.614c14.315 0 25.962-11.646 25.962-25.961 0-11.091-6.991-20.703-17.006-24.373-1.857-7.38-7.178-13.437-14.306-16.209-4.605-11.423-15.69-19.071-28.342-19.071-12.099 0-22.708 6.937-27.657 17.487-10.125.572-18.568 7.543-21.34 16.922-11.395 2.742-19.887 13.02-19.887 25.244.001 14.314 11.647 25.961 25.962 25.961zm.051-36.92h.005l.22.007c2.065.05 4.048-.746 5.501-2.203 1.448-1.453 2.237-3.436 2.185-5.486.05-4.73 3.912-8.563 8.653-8.563.685 0 1.373.083 2.048.246 1.95.474 4.007.145 5.712-.911 1.705-1.055 2.917-2.75 3.364-4.704 1.629-7.112 7.872-12.08 15.184-12.08 7.237 0 13.466 4.906 15.147 11.93.699 2.921 3.074 5.143 6.035 5.647 4.136.705 7.146 4.25 7.183 8.448-.002.07-.005.158-.005.199-.051 3.842 2.811 7.102 6.627 7.548 5.511.645 9.666 5.323 9.666 10.881 0 6.044-4.918 10.961-10.962 10.961h-76.614c-6.044 0-10.961-4.917-10.961-10.961 0-6.043 4.914-10.959 11.012-10.959z"/><path d="m410.549 84.779h75.708c14.195 0 25.743-11.548 25.743-25.743 0-10.981-6.912-20.5-16.818-24.151-1.85-7.288-7.105-13.269-14.144-16.02-4.573-11.302-15.549-18.865-28.074-18.865-11.973 0-22.475 6.854-27.389 17.284-10.002.588-18.34 7.471-21.1 16.733-11.273 2.737-19.67 12.916-19.67 25.019.001 14.195 11.549 25.743 25.744 25.743zm.045-36.483h.005l.218.007c2.104.058 4.05-.745 5.504-2.204 1.448-1.453 2.237-3.436 2.185-5.486.05-4.624 3.827-8.371 8.463-8.371.669 0 1.344.081 2.004.241 1.947.473 4.006.144 5.711-.912 1.705-1.055 2.916-2.75 3.363-4.704 1.599-6.987 7.733-11.867 14.917-11.867 7.109 0 13.229 4.82 14.882 11.721.7 2.921 3.074 5.143 6.035 5.647 4.044.688 6.986 4.155 7.024 8.258-.002.069-.005.155-.005.196-.052 3.843 2.81 7.103 6.627 7.55 5.4.632 9.473 5.216 9.473 10.664 0 5.924-4.819 10.743-10.743 10.743h-75.708c-5.924 0-10.743-4.819-10.743-10.743 0-5.922 4.816-10.74 10.788-10.74z"/></g></g></svg>