<svg id="Capa_1" enable-background="new 0 0 512 512" height="512" viewBox="0 0 512 512" width="512" xmlns="http://www.w3.org/2000/svg"><g><g><path d="m504.5 225.776c0-8.541-3.538-16.25-9.222-21.759 5.684-5.508 9.222-13.218 9.222-21.759 0-13.159-8.389-24.354-20.109-28.542.034-.584.055-1.171.055-1.763 0-16.737-13.568-30.305-30.305-30.305-3.927 0-7.675.755-11.119 2.114-7.339-7.532-17.588-12.216-28.935-12.216-11.603 0-22.056 4.898-29.426 12.73-2.626-5.374-8.129-9.084-14.513-9.084-5.882 0-11.015 3.153-13.842 7.85-5.551-7.001-14.124-11.496-23.753-11.496-16.737 0-30.305 13.568-30.305 30.305 0 3.386.564 6.639 1.589 9.68-14.004 2.673-24.591 14.977-24.591 29.76 0 16.737 13.568 30.305 30.305 30.305 2.45 0 4.828-.298 7.11-.847 2.934 4.074 7.707 6.737 13.111 6.737 4.024 0 7.697-1.48 10.526-3.914 1.941 1.464 4.022 2.75 6.214 3.85-.198 1.398-.306 2.824-.306 4.276 0 16.052 12.482 29.18 28.268 30.229-.844 3.252-1.295 6.662-1.295 10.177 0 18.281 12.143 33.718 28.801 38.706-2.516 2.849-4.055 6.582-4.055 10.682 0 8.908 7.207 16.13 16.108 16.16-.288 1.679-.447 3.402-.447 5.164 0 16.737 13.568 30.305 30.305 30.305.576 0 1.146-.02 1.714-.051 1.724 4.904 4.672 9.23 8.48 12.612-8.589 5.811-14.235 15.642-14.235 26.793-10.555 0-19.53 6.748-22.859 16.163h-30.68v32.325h55.553v-.09c10.138-.835 18.504-7.903 21.259-17.367 2.873.837 5.908 1.294 9.051 1.294 17.853 0 32.325-14.473 32.325-32.325 0-5.666-1.462-10.988-4.022-15.618 2.497-2.845 4.022-6.563 4.022-10.646 0-3.614-1.201-6.939-3.204-9.631 2.046-4.081 3.204-8.684 3.204-13.56 0-12.447-7.507-23.137-18.238-27.801 10.731-4.664 18.238-15.354 18.238-27.801 0-10.433-5.273-19.633-13.298-25.084 2.992-4.698 4.732-10.27 4.732-16.252 0-2.812-.391-5.531-1.108-8.115 5.95-5.535 9.675-13.426 9.675-22.191z" fill="#9c9c9c"/><path d="m504.5 225.776c0-5.431-1.435-10.522-3.938-14.929-10.106 47.92-39.468 95.877-85.23 132.114 4.173 11.746 15.381 20.159 28.559 20.159.576 0 1.146-.02 1.714-.051 1.724 4.904 4.672 9.23 8.48 12.612-8.589 5.811-14.235 15.642-14.235 26.793-10.555 0-19.53 6.748-22.859 16.163h-30.68v32.325h55.553v-.09c10.138-.835 18.504-7.903 21.259-17.367 2.873.837 5.908 1.294 9.051 1.294 17.853 0 32.325-14.473 32.325-32.325 0-5.666-1.462-10.988-4.022-15.618 2.497-2.845 4.022-6.563 4.022-10.646 0-3.614-1.201-6.939-3.204-9.631 2.046-4.081 3.204-8.684 3.204-13.56 0-12.447-7.507-23.137-18.238-27.801 10.731-4.664 18.238-15.354 18.238-27.801 0-10.433-5.273-19.633-13.298-25.084 2.992-4.698 4.732-10.27 4.732-16.252 0-2.812-.391-5.531-1.108-8.115 5.95-5.534 9.675-13.425 9.675-22.19z" fill="#838383"/><g><g><path d="m346.929 339.844-16.377-65.51c-2.248-8.994-10.329-15.303-19.6-15.303h-135.75c-6.359 0-12.347 2.994-16.163 8.081l-54.549 72.732h-.028l-64.082 7.913c-10.124 1.25-17.727 9.85-17.727 20.051v50.829h65.661v32.325h232.336v-32.325h65.661v-64.65c0-7.811-6.332-14.142-14.142-14.142h-25.24z" fill="#fea95c"/><path d="m386.311 399.1c-12.69-23.246-37.363-39.053-65.661-39.053-41.218 0-74.752 33.534-74.752 74.752 0 5.55.627 10.954 1.78 16.162h72.972v-32.325h65.661z" fill="#fe9738"/><path d="m161.285 450.961c1.153-5.208 1.78-10.612 1.78-16.162 0-41.218-33.534-74.752-74.752-74.752-28.298 0-52.971 15.807-65.661 39.053v19.536h65.661v32.325z" fill="#fe9738"/><g><path d="m255.163 339.844h58.445l-10.592-42.368c-.901-3.604-4.124-6.12-7.84-6.12h-40.013z" fill="#c8effe"/><path d="m303.016 297.476c-.901-3.604-4.124-6.12-7.84-6.12h-24.244c3.715 0 6.939 2.517 7.84 6.12l10.592 42.368h24.244z" fill="#99e6fc"/><path d="m222.838 291.356h-37.535c-2.53 0-4.947 1.208-6.465 3.233l-33.941 45.255h77.942v-48.488z" fill="#c8effe"/><path d="m198.594 291.356h24.244v48.488h-24.244z" fill="#99e6fc"/></g></g><path d="m393.382 450.961h-72.732v-32.325h72.732c4.463 0 8.081 3.618 8.081 8.081v16.163c0 4.463-3.618 8.081-8.081 8.081z" fill="#99e6fc"/><path d="m15.581 450.961h72.732v-32.325h-72.732c-4.463 0-8.081 3.618-8.081 8.081v16.163c0 4.463 3.618 8.081 8.081 8.081z" fill="#c8effe"/><circle cx="320.65" cy="434.799" fill="#528fd8" r="48.488"/><path d="m345.892 393.394c4.492 7.353 7.083 15.994 7.083 25.242 0 26.779-21.709 48.488-48.488 48.488-9.248 0-17.889-2.591-25.242-7.083 8.517 13.94 23.873 23.246 41.405 23.246 26.779 0 48.488-21.709 48.488-48.488 0-17.532-9.306-32.888-23.246-41.405z" fill="#0573ce"/><circle cx="320.65" cy="434.799" fill="#bfbfbf" r="16.163"/><circle cx="88.313" cy="434.799" fill="#528fd8" r="48.488"/><path d="m113.555 393.394c4.492 7.353 7.083 15.994 7.083 25.242 0 26.779-21.709 48.488-48.488 48.488-9.248 0-17.889-2.591-25.242-7.083 8.517 13.94 23.873 23.246 41.405 23.246 26.779 0 48.488-21.709 48.488-48.488 0-17.532-9.306-32.888-23.246-41.405z" fill="#0573ce"/><circle cx="88.313" cy="434.799" fill="#bfbfbf" r="16.163"/></g></g><path d="m291.497 68.408c0-9.976-7.821-18.125-17.666-18.652.098-.775.154-1.562.154-2.363 0-10.317-8.363-18.68-18.68-18.68s-18.68 8.363-18.68 18.68c0 .849.062 1.682.172 2.501-.704-.109-1.424-.166-2.158-.166-7.492 0-13.61 5.881-13.991 13.279-2.486-1.224-5.282-1.915-8.241-1.915-10.317 0-18.68 8.363-18.68 18.68 0 7.125 3.99 13.317 9.858 16.467-1.18 2.053-1.858 4.43-1.858 6.968 0 7.737 6.273 14.01 14.01 14.01 7.424 0 13.496-5.775 13.976-13.078 1.533.576 3.192.893 4.926.893 3.892 0 7.412-1.588 9.95-4.149 3.402 3.564 8.195 5.787 13.51 5.787 10.317 0 18.68-8.363 18.68-18.68 0-.443-.021-.88-.051-1.315 8.438-1.798 14.769-9.292 14.769-18.267z" fill="#9c9c9c"/><g><path d="m505.118 204.02c4.475-6.322 6.882-13.844 6.882-21.76 0-14.134-7.925-26.982-20.179-33.446-1.6-19.382-17.889-34.664-37.682-34.664-3.135 0-6.225.382-9.231 1.14-2.192-1.842-4.554-3.491-7.059-4.927-3.593-2.059-8.177-.816-10.236 2.778-2.06 3.594-.816 8.177 2.777 10.236 2.685 1.539 5.126 3.427 7.255 5.614 2.108 2.166 5.311 2.855 8.124 1.746 2.673-1.053 5.488-1.587 8.37-1.587 12.578 0 22.811 10.228 22.811 22.8 0 .459-.026.904-.051 1.386-.17 3.308 1.851 6.336 4.971 7.449 9.05 3.227 15.13 11.857 15.13 21.475 0 6.218-2.466 12.034-6.942 16.377-1.456 1.413-2.277 3.354-2.277 5.383s.822 3.971 2.278 5.383c4.476 4.343 6.941 10.159 6.941 16.376 0 6.391-2.588 12.324-7.285 16.706-2.041 1.904-2.856 4.783-2.116 7.475.552 2.003.831 4.062.831 6.12 0 4.339-1.23 8.566-3.558 12.224-2.177 3.422-1.239 7.955 2.116 10.232 6.27 4.254 10.012 11.314 10.012 18.884 0 9.08-5.391 17.292-13.733 20.923-2.738 1.192-4.508 3.894-4.507 6.88s1.773 5.687 4.513 6.876c8.339 3.621 13.728 11.833 13.728 20.92 0 3.576-.811 7.01-2.408 10.206-1.266 2.531-.999 5.558.689 7.829 1.124 1.512 1.719 3.295 1.719 5.155 0 2.085-.771 4.115-2.168 5.716-2.076 2.377-2.442 5.8-.915 8.562 2.017 3.649 3.083 7.792 3.083 11.982 0 13.691-11.139 24.83-24.83 24.83-2.337 0-4.675-.336-6.95-1-1.91-.557-3.965-.333-5.71.626-1.745.958-3.037 2.571-3.592 4.482-1.919 6.608-7.814 11.425-14.67 11.986-.183.015-.364.037-.543.065h-31.771c.007-.194.029-.384.029-.579v-16.163c0-.195-.022-.385-.029-.578h8.056c3.179 0 6.012-2.003 7.071-5 2.361-6.681 8.706-11.17 15.788-11.17 4.143 0 7.5-3.358 7.5-7.5 0-8.25 4.088-15.943 10.936-20.58 1.916-1.297 3.126-3.407 3.278-5.716s-.77-4.56-2.498-6.098c-2.897-2.577-5.108-5.864-6.394-9.504-1.108-3.139-4.161-5.173-7.478-4.992-.427.023-.862.04-1.305.04-12.572 0-22.8-10.228-22.8-22.8 0-1.311.111-2.621.331-3.894.376-2.176-.227-4.406-1.646-6.098-1.42-1.691-3.512-2.671-5.72-2.678-4.762-.016-8.636-3.9-8.636-8.66 0-2.685 1.185-4.588 2.179-5.712 1.695-1.917 2.296-4.565 1.595-7.025-.702-2.46-2.61-4.394-5.061-5.127-13.809-4.136-23.453-17.1-23.453-31.525 0-2.803.354-5.593 1.052-8.293.559-2.162.125-4.459-1.183-6.269s-3.354-2.942-5.581-3.091c-11.92-.793-21.258-10.785-21.258-22.747 0-1.095.075-2.178.225-3.219.456-3.19-1.178-6.316-4.058-7.763-1.815-.912-3.514-1.964-5.048-3.126-2.819-2.137-6.748-2.012-9.427.298-1.111.958-2.991 2.101-5.633 2.101-2.765 0-5.39-1.354-7.022-3.622-1.78-2.474-4.882-3.624-7.845-2.909-1.765.425-3.565.641-5.353.641-12.572 0-22.8-10.232-22.8-22.81 0-10.933 7.778-20.35 18.494-22.393 2.131-.406 3.982-1.715 5.075-3.59s1.32-4.13.624-6.185c-.792-2.335-1.193-4.782-1.193-7.272 0-12.572 10.228-22.8 22.8-22.8 7.007 0 13.524 3.153 17.883 8.65 1.528 1.928 3.905 2.979 6.36 2.825 2.455-.159 4.676-1.511 5.944-3.619 1.587-2.64 4.358-4.215 7.413-4.215 3.327 0 6.303 1.868 7.767 4.874 1.08 2.217 3.18 3.761 5.617 4.131 2.438.372 4.9-.482 6.59-2.277 3.5-3.722 7.854-6.608 12.59-8.347 3.889-1.427 5.884-5.736 4.457-9.625-1.428-3.888-5.734-5.884-9.625-4.456-4.242 1.557-8.27 3.74-11.924 6.444-4.205-3.655-9.64-5.744-15.472-5.744-5.083 0-9.985 1.674-13.995 4.619-6.631-5.317-14.89-8.259-23.605-8.259-20.843 0-37.8 16.957-37.8 37.8 0 1.521.091 3.035.271 4.533-13.843 5.757-23.271 19.416-23.271 34.907 0 20.849 16.957 37.81 37.8 37.81 1.448 0 2.899-.084 4.345-.253 4.313 3.907 9.973 6.143 15.875 6.143 3.099 0 6.144-.612 8.971-1.774.653 16.369 11.849 30.26 27.116 34.753-.117 1.372-.177 2.75-.177 4.13 0 17.943 10.251 34.332 25.777 42.48-.683 2.223-1.037 4.549-1.037 6.91 0 10.232 6.552 18.985 15.682 22.271.474 19.332 15.535 35.108 34.567 36.723.808 1.543 1.721 3.032 2.731 4.451-5.482 5.729-9.139 12.969-10.479 20.803-8.738 1.962-16.31 7.563-20.729 15.402h-18.379v-57.15c0-11.938-9.707-21.65-21.64-21.65h-19.385l-14.96-59.831c-3.091-12.353-14.143-20.979-26.875-20.979h-88.97c-4.143 0-7.5 3.358-7.5 7.5s3.357 7.5 7.5 7.5h88.97c5.839 0 10.906 3.957 12.323 9.62l16.38 65.51c.835 3.338 3.835 5.681 7.276 5.681h25.24c3.661 0 6.64 2.983 6.64 6.65v57.146h-7.434c-8.934-19.075-28.307-32.326-50.726-32.326-30.871 0-55.987 25.116-55.987 55.988 0 2.945.232 5.837.672 8.661h-63.964c-4.143 0-7.5 3.358-7.5 7.5s3.357 7.5 7.5 7.5h68.555c8.934 19.076 28.307 32.327 50.725 32.327s41.791-13.25 50.725-32.325l70.485-.002c.652 0 1.286-.085 1.89-.246 10.133-1.251 19.023-7.4 23.888-16.175 1.505.174 3.018.261 4.532.261 21.962 0 39.83-17.868 39.83-39.83 0-5.122-.995-10.204-2.903-14.928 1.892-3.46 2.903-7.353 2.903-11.332 0-3.567-.789-7.022-2.309-10.185 1.518-4.156 2.309-8.583 2.309-13.005 0-10.755-4.552-20.77-12.186-27.803 7.633-7.038 12.186-17.05 12.186-27.797 0-10.28-4.162-19.99-11.378-27.041 1.848-4.517 2.808-9.364 2.808-14.299 0-1.943-.15-3.885-.448-5.808 5.773-6.808 9.019-15.519 9.019-24.492-.001-7.917-2.408-15.439-6.883-21.76zm-184.468 271.767c-22.601 0-40.987-18.387-40.987-40.988s18.387-40.988 40.987-40.988 40.988 18.387 40.988 40.988-18.387 40.988-40.988 40.988zm55.316-49.65h17.416c.321 0 .582.261.582.582v16.163c0 .32-.261.581-.582.581h-17.416c.441-2.824.673-5.717.673-8.663 0-2.947-.233-5.839-.673-8.663z"/><path d="m166.37 443.46h-22.742c.44-2.824.672-5.716.672-8.661 0-30.872-25.116-55.988-55.987-55.988-22.42 0-41.794 13.252-50.727 32.329h-7.436v-43.33c0-6.402 4.793-11.822 11.149-12.607l63.874-7.895c2.102-.192 4.037-1.264 5.316-2.969l54.555-72.736c2.378-3.177 6.174-5.074 10.155-5.074h11.78c4.143 0 7.5-3.358 7.5-7.5s-3.357-7.5-7.5-7.5h-11.779c-8.684 0-16.969 4.145-22.16 11.08l-52.633 70.174-60.946 7.533c-13.859 1.712-24.311 13.531-24.311 27.494v43.352c-8.391.23-15.15 7.112-15.15 15.558v16.16c0 8.591 6.989 15.58 15.58 15.58h22.007c8.934 19.076 28.307 32.327 50.726 32.327 22.418 0 41.791-13.251 50.725-32.327h27.332c4.143 0 7.5-3.358 7.5-7.5s-3.357-7.5-7.5-7.5zm-150.79 0c-.32 0-.58-.26-.58-.58v-16.16c0-.325.255-.58.58-.58h17.417c-.44 2.823-.672 5.714-.672 8.659s.232 5.837.672 8.661zm72.733 32.327c-22.601 0-40.988-18.387-40.988-40.988s18.388-40.988 40.988-40.988 40.987 18.387 40.987 40.988-18.386 40.988-40.987 40.988z"/><path d="m313.608 347.344c2.31 0 4.49-1.064 5.911-2.884 1.422-1.82 1.925-4.194 1.365-6.435l-10.592-42.367c-1.736-6.949-7.952-11.802-15.116-11.802h-40.014c-4.143 0-7.5 3.358-7.5 7.5v48.488c0 4.142 3.357 7.5 7.5 7.5zm-50.945-48.488h32.514c.271 0 .498.176.563.439l8.263 33.049h-41.34z"/><path d="m172.838 290.088-33.941 45.255c-1.704 2.272-1.979 5.313-.708 7.854s3.867 4.146 6.708 4.146h77.941c4.143 0 7.5-3.358 7.5-7.5v-48.488c0-4.142-3.357-7.5-7.5-7.5h-37.535c-4.88.001-9.541 2.332-12.465 6.233zm42.5 42.256h-55.441l24.943-33.257c.1-.134.295-.23.463-.23h30.035z"/><path d="m320.65 411.136c-13.047 0-23.662 10.615-23.662 23.663s10.615 23.663 23.662 23.663c13.048 0 23.663-10.615 23.663-23.663s-10.615-23.663-23.663-23.663zm0 32.325c-4.776 0-8.662-3.886-8.662-8.663s3.886-8.663 8.662-8.663 8.663 3.886 8.663 8.663-3.886 8.663-8.663 8.663z"/><path d="m88.313 411.136c-13.048 0-23.663 10.615-23.663 23.663s10.615 23.663 23.663 23.663c13.047 0 23.662-10.615 23.662-23.663s-10.615-23.663-23.662-23.663zm0 32.325c-4.776 0-8.663-3.886-8.663-8.663s3.887-8.663 8.663-8.663 8.662 3.886 8.662 8.663-3.885 8.663-8.662 8.663z"/><path d="m428.45 252.213c10.769 0 19.88-7.23 22.734-17.091 9.861-2.854 17.091-11.966 17.091-22.734 0-4.142-3.357-7.5-7.5-7.5s-7.5 3.358-7.5 7.5c0 4.776-3.886 8.663-8.662 8.663-4.143 0-7.5 3.358-7.5 7.5 0 4.776-3.887 8.663-8.663 8.663-4.143 0-7.5 3.358-7.5 7.5s3.358 7.499 7.5 7.499z"/><path d="m350.757 167.765c0-4.142-3.357-7.5-7.5-7.5s-7.5 3.358-7.5 7.5c0 13.047 10.615 23.663 23.662 23.663 4.143 0 7.5-3.358 7.5-7.5s-3.357-7.5-7.5-7.5c-4.776-.001-8.662-3.887-8.662-8.663z"/><path d="m391.292 206.607c0-4.142-3.357-7.5-7.5-7.5s-7.5 3.358-7.5 7.5c0 13.047 10.615 23.663 23.662 23.663 4.143 0 7.5-3.358 7.5-7.5s-3.357-7.5-7.5-7.5c-4.776 0-8.662-3.886-8.662-8.663z"/><path d="m430.49 183.346c13.047 0 23.662-10.615 23.662-23.663 0-4.142-3.357-7.5-7.5-7.5s-7.5 3.358-7.5 7.5c0 4.776-3.886 8.663-8.662 8.663-4.143 0-7.5 3.358-7.5 7.5s3.358 7.5 7.5 7.5z"/><path d="m454.733 275.774c-4.143 0-7.5 3.358-7.5 7.5 0 4.776-3.886 8.663-8.662 8.663-4.143 0-7.5 3.358-7.5 7.5s3.357 7.5 7.5 7.5c13.047 0 23.662-10.615 23.662-23.663 0-4.142-3.357-7.5-7.5-7.5z"/><path d="m194.643 99.006c-.274 1.378-.415 2.786-.415 4.201 0 11.86 9.649 21.51 21.51 21.51 8.467 0 15.885-4.96 19.379-12.19 3.242-.07 6.363-.853 9.185-2.275 4.097 2.555 8.83 3.918 13.799 3.918 13.04 0 23.884-9.582 25.858-22.076 8.978-4.25 15.039-13.442 15.039-23.686 0-11.478-7.4-21.301-17.786-24.806-1.843-12.646-12.758-22.388-25.906-22.388-12.883 0-23.622 9.354-25.783 21.626-6.059 1.477-11.127 5.518-13.959 10.939-1.039-.124-2.092-.187-3.155-.187-14.436 0-26.18 11.744-26.18 26.18-.001 7.413 3.115 14.344 8.414 19.234zm17.764-30.414c1.729 0 3.387.384 4.927 1.143 2.263 1.115 4.935 1.018 7.11-.26 2.176-1.277 3.563-3.562 3.693-6.082.178-3.457 3.033-6.165 6.501-6.165.337 0 .678.026 1.012.078 2.339.359 4.709-.401 6.397-2.058 1.689-1.656 2.498-4.012 2.182-6.356-.069-.516-.104-1.02-.104-1.5 0-6.165 5.016-11.18 11.18-11.18s11.18 5.015 11.18 11.18c0 .455-.031.921-.095 1.425-.26 2.067.351 4.148 1.686 5.747 1.336 1.598 3.275 2.569 5.355 2.681 5.925.317 10.566 5.22 10.566 11.162 0 5.244-3.715 9.841-8.833 10.932-3.654.779-6.178 4.129-5.918 7.856.018.263.033.527.033.794 0 6.165-5.016 11.18-11.18 11.18-3.081 0-5.952-1.231-8.086-3.465-1.397-1.465-3.329-2.302-5.354-2.321-2.025-.011-3.972.782-5.396 2.22-1.233 1.244-2.875 1.929-4.624 1.929-.788 0-1.558-.139-2.288-.414-2.223-.835-4.708-.568-6.703.718-1.994 1.287-3.263 3.442-3.418 5.811-.225 3.403-3.076 6.07-6.492 6.07-3.59 0-6.51-2.92-6.51-6.51 0-1.151.289-2.238.86-3.231 1.01-1.757 1.266-3.848.709-5.797s-1.879-3.589-3.664-4.548c-3.643-1.956-5.905-5.733-5.905-9.859 0-6.165 5.015-11.18 11.179-11.18z"/></g></g></svg>