<svg id="Capa_1" enable-background="new 0 0 512 512" height="512" viewBox="0 0 512 512" width="512" xmlns="http://www.w3.org/2000/svg"><g><path d="m504.5 285.138c-17.753 0-17.753 12.122-35.506 12.122s-17.753-12.122-35.506-12.122c-17.751 0-17.751 12.122-35.501 12.122-17.751 0-17.751-12.122-35.503-12.122-17.75 0-17.75 12.122-35.501 12.122-17.75 0-17.75-12.122-35.5-12.122-17.748 0-17.748 12.122-35.496 12.122s-17.748-12.122-35.495-12.122c-17.75 0-17.75 12.122-35.501 12.122-17.75 0-17.75-12.122-35.5-12.122-17.749 0-17.749 12.122-35.498 12.122s-17.749-12.122-35.497-12.122-17.748 12.122-35.497 12.122-17.749-12.122-35.498-12.122v198.147h497v-198.147z" fill="#99e6fc"/><path d="m472.175 297.118v186.167h32.325v-198.147c-16.623 0-17.683 10.627-32.325 11.98z" fill="#62dbfb"/><path d="m393.901 200.5-29.341-6.378c-10.451-2.272-19.102-9.567-23.107-19.484l-48.216-119.404c-1.542-3.819-5.248-6.319-9.367-6.319h-22.57c-3.319 0-6.426 1.63-8.312 4.361l-65.758 95.203c-4.276 6.19-10.577 10.695-17.818 12.739l-42.879 12.101c-8.006 2.259-14.832 7.518-19.06 14.682l-64.475 109.259c17.748 0 17.748-12.122 35.497-12.122s17.749 12.122 35.497 12.122c17.749 0 17.749-12.122 35.498-12.122 17.75 0 17.75 12.122 35.5 12.122s17.75-12.122 35.501-12.122c17.748 0 17.748 12.122 35.495 12.122 9.926 0 14.301-3.791 19.334-7.133v75.368c0 8.703 6.688 16.191 15.381 16.601 9.282.437 16.944-6.959 16.944-16.144v-52.072c0-8.703 6.688-16.191 15.381-16.601 9.282-.437 16.944 6.959 16.944 16.144v19.747c0 8.703 6.688 16.191 15.381 16.601 9.282.437 16.944-6.959 16.944-16.144v-46.872c8.862 3.298 11.999 10.506 25.691 10.506 17.751 0 17.751-12.122 35.501-12.122 17.753 0 17.753 12.122 35.506 12.122l-55.013-83.027c-4.649-7.019-11.853-11.945-20.079-13.734z" fill="#dff6fd"/><path d="m260.427 55.234 48.216 119.404c4.005 9.917 12.656 17.212 23.107 19.484l29.341 6.378c8.226 1.788 15.43 6.715 20.08 13.733l47.237 71.291c1.525-.244 3.198-.386 5.08-.386 17.753 0 17.753 12.122 35.506 12.122l-55.013-83.027c-4.65-7.018-11.854-11.944-20.08-13.733l-29.341-6.378c-10.451-2.272-19.102-9.567-23.107-19.484l-48.216-119.404c-1.542-3.819-5.248-6.319-9.367-6.319h-22.57c-1.825 0-3.577.508-5.106 1.406 1.872 1.105 3.383 2.807 4.233 4.913z" fill="#c8effe"/><g><path d="m504.5 448.158c-4.142 0-7.5 3.357-7.5 7.5v20.13h-482v-117.08c0-4.143-3.358-7.5-7.5-7.5s-7.5 3.357-7.5 7.5v124.58c0 4.143 3.358 7.5 7.5 7.5h497c4.142 0 7.5-3.357 7.5-7.5v-27.63c0-4.142-3.358-7.5-7.5-7.5z"/><path d="m504.5 277.638c-11.189 0-17.171 4.083-21.978 7.364-3.156 2.154-5.636 3.837-9.69 4.475l-52.602-79.394c-5.764-8.691-14.549-14.698-24.736-16.914l-29.341-6.38c-8.032-1.745-14.667-7.338-17.748-14.96l-18.78-46.51c-1.552-3.84-5.924-5.7-9.763-4.146-3.841 1.551-5.697 5.922-4.146 9.763l43.451 106.628c1.19 2.9 3.989 4.655 6.941 4.655.948 0 1.913-.181 2.844-.563 3.832-1.572 5.664-5.953 4.091-9.785l-12.767-31.116c.886.258 1.781.494 2.69.692l29.339 6.38c6.352 1.381 11.829 5.127 15.422 10.544l41.659 62.876c-3.915-2.005-8.882-3.609-15.896-3.609-11.191 0-17.173 4.084-21.979 7.366-4.042 2.76-6.962 4.754-13.521 4.754-6.563 0-9.485-1.992-13.529-4.75-2.616-1.783-5.58-3.805-9.562-5.282-2.302-.853-4.876-.525-6.892.875-2.015 1.402-3.217 3.702-3.217 6.157v46.87c0 2.391-.954 4.617-2.686 6.269-1.728 1.648-3.995 2.493-6.401 2.379-4.539-.213-8.232-4.299-8.232-9.107v-19.75c0-6.438-2.673-12.679-7.334-17.124-4.726-4.507-10.94-6.826-17.459-6.507-12.637.596-22.537 11.178-22.537 24.091v52.07c0 2.392-.953 4.619-2.683 6.271-1.729 1.65-3.999 2.51-6.405 2.387-4.54-.213-8.233-4.299-8.233-9.107v-75.37c0-2.764-1.52-5.303-3.955-6.609s-5.392-1.168-7.694.361c-.558.37-1.108.746-1.659 1.122-4.044 2.761-6.966 4.756-13.522 4.756-6.559 0-9.479-1.994-13.521-4.754-4.807-3.282-10.788-7.366-21.979-7.366s-17.173 4.084-21.979 7.366c-4.042 2.76-6.962 4.754-13.521 4.754s-9.479-1.994-13.521-4.754c-4.807-3.282-10.788-7.366-21.979-7.366s-17.173 4.084-21.979 7.366c-4.042 2.76-6.962 4.754-13.521 4.754s-9.479-1.994-13.521-4.754c-4.807-3.282-10.788-7.366-21.979-7.366-8.361 0-13.813 2.281-18.04 4.805l53.477-90.63c3.265-5.527 8.465-9.532 14.639-11.276l112.077-32.981c2.234-.674 4.55-1.016 6.881-1.016h23.82c4.142 0 7.5-3.357 7.5-7.5s-3.358-7.5-7.5-7.5h-23.82c-3.799 0-7.572.557-11.214 1.655l-37.153 11.212 60.009-86.875c.48-.697 1.277-1.113 2.132-1.113h22.57c1.069 0 2.016.638 2.416 1.629l16.33 40.439c1.551 3.84 5.922 5.697 9.763 4.146s5.697-5.922 4.146-9.763l-16.328-40.435c-2.698-6.692-9.106-11.017-16.326-11.017h-22.569c-5.792 0-11.208 2.844-14.48 7.598l-65.758 95.197c-3.284 4.749-8.144 8.225-13.688 9.787l-42.882 12.101c-9.904 2.798-18.242 9.22-23.48 18.086l-62.106 105.248c-3.901-.667-6.339-2.325-9.427-4.433-4.807-3.282-10.788-7.366-21.979-7.366-4.142 0-7.5 3.357-7.5 7.5v38.57c0 4.143 3.358 7.5 7.5 7.5s7.5-3.357 7.5-7.5v-29.811c2.145.848 3.933 2.068 6.021 3.494 4.807 3.282 10.788 7.366 21.979 7.366 11.193 0 17.174-4.085 21.98-7.368 4.04-2.759 6.958-4.752 13.51-4.752 6.559 0 9.479 1.994 13.521 4.754 4.807 3.282 10.788 7.366 21.979 7.366s17.173-4.084 21.979-7.366c4.042-2.76 6.962-4.754 13.521-4.754s9.479 1.994 13.521 4.754c4.807 3.282 10.788 7.366 21.979 7.366s17.173-4.084 21.979-7.366c4.042-2.76 6.962-4.754 13.521-4.754s9.479 1.994 13.521 4.754c4.807 3.282 10.788 7.366 21.979 7.366 4.792 0 8.63-.75 11.83-1.864v62.604c0 12.914 9.896 23.496 22.533 24.092.381.018.76.026 1.138.026 6.117 0 11.877-2.302 16.325-6.548 4.655-4.444 7.325-10.684 7.325-17.12v-52.07c0-4.808 3.698-8.894 8.245-9.108 2.398-.122 4.67.731 6.399 2.38 1.732 1.651 2.686 3.878 2.686 6.269v19.75c0 12.914 9.895 23.496 22.524 24.091 6.527.313 12.736-2 17.461-6.507 4.661-4.445 7.334-10.687 7.334-17.124v-33.76c4.25 2.556 9.735 4.89 18.2 4.89 11.191 0 17.173-4.084 21.979-7.366 4.042-2.76 6.962-4.754 13.521-4.754s9.479 1.994 13.521 4.754c4.807 3.282 10.788 7.366 21.979 7.366 11.197 0 17.181-4.085 21.989-7.367 2.087-1.425 3.876-2.646 6.021-3.493v126.761c0 4.143 3.358 7.5 7.5 7.5s7.5-3.357 7.5-7.5v-135.521c0-4.143-3.358-7.5-7.5-7.5z"/><path d="m121.077 108.584c0 4.143 3.358 7.5 7.5 7.5s7.5-3.357 7.5-7.5c0-4.34 1.219-6.125 3.239-9.083 2.47-3.616 5.852-8.569 5.852-17.542s-3.382-13.926-5.853-17.542c-2.02-2.958-3.239-4.743-3.239-9.082s1.219-6.124 3.239-9.082c2.47-3.616 5.852-8.568 5.852-17.541 0-4.143-3.358-7.5-7.5-7.5s-7.5 3.357-7.5 7.5c0 4.339-1.219 6.124-3.239 9.082-2.47 3.616-5.852 8.568-5.852 17.541s3.382 13.925 5.852 17.541c2.02 2.958 3.239 4.743 3.239 9.083s-1.219 6.125-3.239 9.083c-2.469 3.616-5.851 8.569-5.851 17.542z"/><path d="m366.832 108.584c0 4.143 3.358 7.5 7.5 7.5s7.5-3.357 7.5-7.5c0-4.34 1.219-6.125 3.239-9.083 2.47-3.616 5.852-8.569 5.852-17.542s-3.382-13.926-5.853-17.542c-2.02-2.958-3.239-4.743-3.239-9.082s1.219-6.124 3.239-9.082c2.47-3.616 5.852-8.568 5.852-17.541 0-4.143-3.358-7.5-7.5-7.5s-7.5 3.357-7.5 7.5c0 4.339-1.219 6.124-3.239 9.082-2.47 3.616-5.852 8.568-5.852 17.541s3.382 13.925 5.852 17.541c2.02 2.958 3.239 4.743 3.239 9.083s-1.219 6.125-3.239 9.083c-2.469 3.616-5.851 8.569-5.851 17.542z"/><path d="m462.372 159.092c0 4.143 3.358 7.5 7.5 7.5s7.5-3.357 7.5-7.5c0-4.34 1.219-6.125 3.239-9.083 2.47-3.616 5.852-8.569 5.852-17.542s-3.382-13.925-5.852-17.541c-2.02-2.958-3.239-4.743-3.239-9.083 0-4.339 1.219-6.124 3.239-9.082 2.47-3.616 5.852-8.568 5.852-17.541 0-4.143-3.358-7.5-7.5-7.5s-7.5 3.357-7.5 7.5c0 4.339-1.219 6.124-3.239 9.082-2.47 3.616-5.852 8.568-5.852 17.541s3.382 13.926 5.853 17.542c2.02 2.958 3.239 4.743 3.239 9.082 0 4.34-1.219 6.125-3.239 9.083-2.471 3.616-5.853 8.569-5.853 17.542z"/><path d="m25.537 159.092c0 4.143 3.358 7.5 7.5 7.5s7.5-3.357 7.5-7.5c0-4.34 1.219-6.125 3.239-9.083 2.47-3.616 5.852-8.569 5.852-17.542s-3.382-13.925-5.852-17.541c-2.02-2.958-3.239-4.743-3.239-9.083 0-4.339 1.219-6.124 3.239-9.082 2.47-3.616 5.852-8.568 5.852-17.541 0-4.143-3.358-7.5-7.5-7.5s-7.5 3.357-7.5 7.5c0 4.339-1.219 6.124-3.239 9.082-2.47 3.616-5.852 8.568-5.852 17.541s3.382 13.926 5.853 17.542c2.02 2.958 3.239 4.743 3.239 9.082 0 4.34-1.219 6.125-3.239 9.083-2.471 3.616-5.853 8.569-5.853 17.542z"/><path d="m352.916 426.848c2.958-2.02 4.743-3.239 9.082-3.239s6.124 1.22 9.082 3.239c3.616 2.47 8.569 5.853 17.542 5.853s13.926-3.383 17.542-5.853c2.958-2.02 4.743-3.239 9.082-3.239s6.125 1.22 9.083 3.239c3.617 2.47 8.57 5.853 17.543 5.853 4.142 0 7.5-3.357 7.5-7.5s-3.358-7.5-7.5-7.5c-4.34 0-6.125-1.22-9.083-3.239-3.616-2.47-8.569-5.853-17.542-5.853s-13.926 3.383-17.542 5.853c-2.958 2.02-4.743 3.239-9.082 3.239s-6.124-1.22-9.082-3.239c-3.616-2.47-8.569-5.853-17.542-5.853s-13.925 3.383-17.542 5.853c-2.958 2.02-4.743 3.239-9.082 3.239-4.142 0-7.5 3.357-7.5 7.5s3.358 7.5 7.5 7.5c8.972-.001 13.925-3.384 17.541-5.853z"/><path d="m96.755 408.608c-8.973 0-13.926 3.383-17.542 5.853-2.958 2.02-4.744 3.239-9.083 3.239-4.142 0-7.5 3.357-7.5 7.5s3.358 7.5 7.5 7.5c8.973 0 13.926-3.383 17.543-5.853 2.958-2.02 4.743-3.239 9.083-3.239s6.125 1.22 9.082 3.239c3.616 2.47 8.569 5.853 17.542 5.853s13.925-3.383 17.542-5.853c2.958-2.02 4.743-3.239 9.082-3.239s6.124 1.22 9.082 3.239c3.616 2.47 8.569 5.853 17.542 5.853 4.142 0 7.5-3.357 7.5-7.5s-3.358-7.5-7.5-7.5c-4.339 0-6.124-1.22-9.082-3.239-3.616-2.47-8.569-5.853-17.542-5.853s-13.925 3.383-17.542 5.853c-2.958 2.02-4.743 3.239-9.082 3.239s-6.125-1.22-9.082-3.239c-3.617-2.47-8.57-5.853-17.543-5.853z"/><path d="m146.12 358.799c2.958-2.02 4.743-3.239 9.083-3.239s6.125 1.22 9.082 3.239c3.616 2.47 8.569 5.853 17.542 5.853s13.925-3.383 17.542-5.853c2.958-2.02 4.743-3.239 9.082-3.239 4.338 0 6.124 1.219 9.081 3.239 3.616 2.47 8.569 5.853 17.542 5.853 4.142 0 7.5-3.357 7.5-7.5s-3.358-7.5-7.5-7.5c-4.339 0-6.124-1.22-9.082-3.239-3.616-2.47-8.569-5.853-17.541-5.853-8.973 0-13.926 3.383-17.542 5.853-2.958 2.021-4.743 3.239-9.082 3.239s-6.125-1.22-9.082-3.239c-3.616-2.47-8.569-5.853-17.542-5.853s-13.926 3.383-17.542 5.853c-2.958 2.02-4.743 3.239-9.083 3.239-4.142 0-7.5 3.357-7.5 7.5s3.358 7.5 7.5 7.5c8.972-.001 13.925-3.383 17.542-5.853z"/></g></g></svg>