<svg id="Capa_1" enable-background="new 0 0 512 512" height="512" viewBox="0 0 512 512" width="512" xmlns="http://www.w3.org/2000/svg"><g><path d="m504.5 7.559h-152.099c0 4.003-1.799 8.005-5.397 10.64l-15.943 11.671c-9.045 6.622-6.226 20.794 4.664 23.45l19.195 4.681c8.664 2.113 12.776 12.039 8.143 19.659l-10.263 16.883c-5.823 9.579 2.205 21.594 13.283 19.88l19.526-3.021c8.813-1.363 16.41 6.233 15.047 15.047l-3.021 19.526c-1.714 11.078 10.301 19.106 19.88 13.283l16.883-10.263c7.621-4.633 17.546-.521 19.659 8.143l4.681 19.195c2.656 10.891 16.828 13.71 23.45 4.664l11.671-15.943c2.634-3.598 6.637-5.397 10.64-5.397v-152.098z" fill="#ffe177"/><path d="m474.716 7.559c1.757 8.074 2.692 16.456 2.692 25.057 0 51.524-33.222 95.286-79.413 111.041l-.359 2.318c-1.714 11.078 10.301 19.106 19.88 13.283l16.883-10.263c7.621-4.633 17.546-.521 19.659 8.143l4.681 19.195c2.656 10.891 16.828 13.71 23.45 4.664l11.671-15.943c2.634-3.598 6.637-5.397 10.64-5.397v-152.098z" fill="#ffd15b"/><path d="m504.5 128.75c-66.932 0-121.191-54.259-121.191-121.191h121.191z" fill="#fea95c"/><path d="m474.716 7.559c1.757 8.074 2.692 16.456 2.692 25.057 0 31.258-12.242 59.645-32.174 80.668 17.523 9.844 37.737 15.465 59.267 15.465v-121.19z" fill="#fe9738"/><circle cx="211.621" cy="300.438" fill="#dff6fd" r="204.005"/><path d="m322.051 128.883c20.531 31.829 32.45 69.736 32.45 110.429 0 112.669-91.336 204.005-204.005 204.005-40.693 0-78.6-11.919-110.429-32.45 36.314 56.298 99.579 93.576 171.555 93.576 112.669 0 204.005-91.336 204.005-204.005-.001-71.976-37.278-135.241-93.576-171.555z" fill="#c8effe"/><circle cx="211.621" cy="300.438" fill="#99e6fc" r="171.688"/><path d="m320.527 167.711c17.283 26.789 27.317 58.695 27.317 92.946 0 94.82-76.867 171.688-171.688 171.688-41.344 0-79.272-14.617-108.906-38.961 30.562 47.374 83.802 78.741 144.371 78.741 94.82 0 171.687-76.867 171.687-171.688.001-53.476-24.451-101.238-62.781-132.726z" fill="#62dbfb"/><path d="m266.243 229.892 14.409 23.776c3.295 5.436 9.19 8.757 15.547 8.757h24.958c6.99 0 13.361 4.008 16.387 10.309l8.357 17.401c2.995 6.236 9.27 10.232 16.188 10.308l21.216.232.003-.003c.127-94.928-76.789-171.923-171.687-171.923v74.207c0 10.04 8.139 18.179 18.179 18.179h20.897c6.356 0 12.252 3.321 15.546 8.757z" fill="#a2e62e"/><path d="m320.529 167.714c17.282 26.789 27.315 58.694 27.315 92.944 0 9.735-.823 19.276-2.38 28.569l.437.909c2.995 6.236 9.27 10.232 16.188 10.308l21.216.232c.001-.001.002-.002.003-.003.072-53.571-24.394-101.425-62.779-132.959z" fill="#97d729"/><path d="m149.839 308.096-25.763-20.37c-7.31-5.78-11.573-14.586-11.573-23.905v-8.817c0-16.831-13.644-30.475-30.475-30.475h-24.431c-11.302 22.889-17.663 48.654-17.663 75.908 0 94.766 76.779 171.597 171.525 171.686v-54.373c0-14.728-10.533-27.348-25.023-29.983-14.49-2.635-25.023-15.255-25.023-29.983v-25.783c-.001-9.318-4.264-18.125-11.574-23.905z" fill="#a2e62e"/><path d="m176.157 432.345c-41.343 0-79.27-14.616-108.904-38.959 30.535 47.329 83.705 78.681 144.206 78.737v-43.419c-11.395 2.382-23.201 3.641-35.302 3.641z" fill="#97d729"/><path d="m217.767 296.031h39.153c5.828 0 10.552 4.724 10.552 10.552v11.629c0 5.828 4.724 10.552 10.552 10.552h11.449c5.828 0 10.552 4.724 10.552 10.552v26.098c0 5.828-4.724 10.552-10.552 10.552h-43.866c-5.828 0-10.552-4.724-10.552-10.552v-10.434c0-5.828-4.724-10.552-10.552-10.552h-6.737c-5.828 0-10.552-4.724-10.552-10.552v-27.293c0-5.828 4.725-10.552 10.553-10.552z" fill="#a2e62e"/><g><path d="m504.5 152.159c-6.669 0-12.753 3.086-16.691 8.467l-11.671 15.942c-1.933 2.64-4.629 2.431-5.697 2.218-1.069-.213-3.64-1.05-4.415-4.229l-4.681-19.196c-1.581-6.479-6.02-11.658-12.181-14.209-6.162-2.552-12.962-2.029-18.661 1.435l-16.883 10.263c-2.796 1.7-5.206.475-6.112-.131-.906-.605-2.96-2.363-2.46-5.597l3.021-19.526c1.019-6.59-1.101-13.074-5.816-17.79s-11.197-6.836-17.79-5.815l-19.525 3.021c-3.235.494-4.992-1.554-5.597-2.46-.606-.906-1.831-3.316-.131-6.112l10.264-16.884c3.463-5.698 3.986-12.5 1.435-18.661-2.552-6.161-7.731-10.6-14.21-12.181l-19.195-4.681c-3.179-.775-4.017-3.345-4.229-4.414s-.422-3.764 2.218-5.697l15.943-11.671c5.38-3.939 8.466-10.023 8.466-16.691 0-4.142-3.358-7.5-7.5-7.5s-7.5 3.358-7.5 7.5c0 1.833-.848 3.505-2.327 4.588l-15.942 11.671c-6.565 4.806-9.657 12.748-8.07 20.727.868 4.364 3.032 8.175 6.101 11.054l-44.649 44.649c-16.135-5.506-32.997-9.083-50.279-10.551-4.118-.344-7.757 2.711-8.107 6.839-.35 4.127 2.711 7.757 6.839 8.107 48.865 4.148 94.171 26.356 127.572 62.533 33.592 36.384 52.092 83.711 52.092 133.264 0 108.351-88.154 196.5-196.51 196.5-108.351 0-196.5-88.149-196.5-196.5 0-49.554 18.498-96.881 52.087-133.264 33.398-36.177 78.703-58.385 127.567-62.533 4.127-.351 7.189-3.98 6.839-8.107s-3.981-7.181-8.107-6.839c-17.281 1.467-34.143 5.044-50.277 10.55l-85.191-85.189h15.81c4.142 0 7.5-3.358 7.5-7.5s-3.358-7.5-7.5-7.5h-33.916c-4.142 0-7.5 3.358-7.5 7.5v33.917c0 4.142 3.358 7.5 7.5 7.5s7.5-3.358 7.5-7.5v-15.81l80.478 80.478c-8.274 3.566-16.31 7.67-24.069 12.273l-12.539-12.539c2.661-1.152 4.524-3.799 4.524-6.883 0-4.142-3.358-7.5-7.5-7.5h-14.514c-4.142 0-7.5 3.358-7.5 7.5v14.513c0 4.142 3.358 7.5 7.5 7.5 3.084 0 5.731-1.863 6.883-4.523l10.239 10.239c-8.266 5.756-16.152 12.119-23.59 19.066l-41.74-41.74h15.81c4.142 0 7.5-3.358 7.5-7.5s-3.358-7.5-7.5-7.5h-33.916c-4.142 0-7.5 3.358-7.5 7.5v33.917c0 4.142 3.358 7.5 7.5 7.5s7.5-3.358 7.5-7.5v-15.81l41.75 41.75c-.187.201-.378.396-.564.597-7.594 8.226-14.462 16.978-20.589 26.156l-10.491-10.491c2.66-1.152 4.523-3.799 4.523-6.883 0-4.142-3.358-7.5-7.5-7.5h-14.513c-4.142 0-7.5 3.358-7.5 7.5v14.513c0 4.142 3.358 7.5 7.5 7.5 3.084 0 5.731-1.863 6.883-4.523l13.008 13.008c-17.849 31.5-27.387 67.253-27.387 104.157 0 56.496 22 109.608 61.945 149.555 39.946 39.946 93.059 61.945 149.555 61.945 116.627 0 211.51-94.878 211.51-211.5 0-23.533-3.882-46.598-11.321-68.393l44.651-44.651c2.879 3.069 6.691 5.233 11.055 6.101 1.384.275 2.767.41 4.133.41 6.507 0 12.622-3.054 16.594-8.479l11.671-15.942c1.083-1.479 2.755-2.327 4.588-2.327 4.142 0 7.5-3.358 7.5-7.5s-3.359-7.501-7.501-7.501zm-209.169-46.016 44.181-44.181 13.632 3.324c1.781.435 3.205 1.655 3.906 3.348.702 1.694.558 3.563-.394 5.129l-10.263 16.884c-4.226 6.952-4.043 15.473.477 22.237s12.318 10.195 20.363 8.95l14.928-2.31-26.263 26.262c-17.905-16.721-38.394-30.086-60.567-39.643zm71.728 50.859c-.186-.202-.378-.397-.565-.598l25.955-25.955-2.225 14.379c-1.244 8.04 2.186 15.842 8.95 20.362s15.285 4.702 22.237.477l16.883-10.263c1.567-.952 3.437-1.096 5.129-.394 1.694.701 2.914 2.125 3.348 3.905l3.324 13.632-44.196 44.196c-9.374-21.753-22.427-41.963-38.84-59.741z"/><path d="m224.503 351.929c1.683 0 3.052 1.369 3.052 3.052v10.434c0 9.954 8.098 18.053 18.052 18.053h43.866c9.954 0 18.052-8.099 18.052-18.053v-26.098c0-9.954-8.098-18.052-18.052-18.052h-11.449c-1.683 0-3.052-1.369-3.052-3.052v-11.629c0-9.954-8.098-18.052-18.052-18.052h-39.153c-9.954 0-18.052 8.098-18.052 18.052v27.293c0 9.954 8.098 18.052 18.052 18.052zm-9.789-18.053v-27.293c0-1.683 1.369-3.052 3.052-3.052h39.153c1.683 0 3.052 1.369 3.052 3.052v11.629c0 9.954 8.098 18.052 18.052 18.052h11.449c1.683 0 3.052 1.369 3.052 3.052v26.098c0 1.683-1.369 3.053-3.052 3.053h-43.866c-1.683 0-3.052-1.37-3.052-3.053v-10.434c0-9.954-8.098-18.052-18.052-18.052h-6.737c-1.682.001-3.051-1.368-3.051-3.052z"/><path d="m130.96 443.472c-3.605-2.039-8.181-.767-10.22 2.839-2.038 3.606-.767 8.181 2.839 10.22 26.726 15.106 57.169 23.091 88.041 23.091 98.806 0 179.19-80.38 179.19-179.18 0-98.806-80.384-179.19-179.19-179.19s-179.19 80.383-179.19 179.189c0 51.75 22.375 100.963 61.388 135.02 3.12 2.724 7.859 2.403 10.582-.718 2.724-3.12 2.403-7.858-.718-10.582-35.749-31.208-56.252-76.302-56.252-123.72 0-24.402 5.359-47.573 14.949-68.411h19.649c12.668 0 22.975 10.306 22.975 22.975v8.816c0 11.684 5.256 22.541 14.421 29.788l25.763 20.37c5.545 4.384 8.725 10.953 8.725 18.021v25.783c0 18.364 13.114 34.077 31.181 37.362 10.931 1.988 18.865 11.494 18.865 22.604v46.671c-25.643-1.196-50.733-8.364-72.998-20.948zm244.677-150.38-13.466-.147c-4.094-.045-7.737-2.365-9.509-6.056l-8.357-17.401c-4.249-8.846-13.335-14.562-23.148-14.562h-24.958c-3.71 0-7.209-1.971-9.132-5.144l-14.409-23.775c-4.624-7.63-13.039-12.371-21.96-12.371h-20.898c-5.888 0-10.679-4.791-10.679-10.679v-66.527c84.629 3.824 152.768 72.013 156.516 156.662zm-187.861 87.296c-10.931-1.987-18.864-11.494-18.864-22.604v-25.783c0-11.684-5.256-22.541-14.421-29.788l-25.763-20.37c-5.545-4.384-8.725-10.953-8.725-18.021v-8.816c0-20.939-17.035-37.975-37.975-37.975h-11.778c27.417-46.291 76.906-78.027 133.871-80.601v66.527c0 14.159 11.52 25.679 25.679 25.679h20.897c3.71 0 7.209 1.971 9.132 5.145l14.409 23.775c4.624 7.63 13.039 12.37 21.96 12.37h24.958c4.081 0 7.859 2.377 9.626 6.056l8.356 17.4c4.261 8.875 13.023 14.454 22.867 14.562l13.619.149c-3.899 84.558-72.064 152.616-156.667 156.357v-46.7c.001-18.364-13.112-34.077-31.181-37.362z"/><path d="m504.5 136.251c4.142 0 7.5-3.358 7.5-7.5s-3.358-7.5-7.5-7.5c-29.565 0-57.574-11.301-78.865-31.82-2.982-2.874-7.73-2.787-10.605.196-2.874 2.982-2.787 7.73.196 10.605 24.101 23.227 55.806 36.019 89.274 36.019z"/><path d="m399.027 74.762c1.254 0 2.526-.315 3.695-.979 3.602-2.045 4.865-6.623 2.82-10.225-9.638-16.982-14.732-36.346-14.732-55.998 0-4.142-3.358-7.5-7.5-7.5s-7.5 3.358-7.5 7.5c0 22.243 5.771 44.167 16.688 63.402 1.38 2.434 3.918 3.8 6.529 3.8z"/><path d="m147.077 192.433c0-4.142-3.358-7.5-7.5-7.5h-10.099c-4.142 0-7.5 3.358-7.5 7.5s3.358 7.5 7.5 7.5h10.099c4.142 0 7.5-3.358 7.5-7.5z"/><path d="m179.723 214.506h-10.099c-4.142 0-7.5 3.358-7.5 7.5s3.358 7.5 7.5 7.5h10.099c4.142 0 7.5-3.358 7.5-7.5s-3.358-7.5-7.5-7.5z"/><path d="m160.066 256.59h-10.099c-4.142 0-7.5 3.358-7.5 7.5s3.358 7.5 7.5 7.5h10.099c4.142 0 7.5-3.358 7.5-7.5s-3.358-7.5-7.5-7.5z"/></g></g></svg>