<svg id="Capa_1" enable-background="new 0 0 512 512" height="512" viewBox="0 0 512 512" width="512" xmlns="http://www.w3.org/2000/svg"><g><g><g><path d="m454.713 110.85c.003-.225.017-.447.017-.673 0-24.416-17.732-44.678-41.018-48.643-7.422-30.992-35.304-54.032-68.571-54.032-33.511 0-61.56 23.377-68.734 54.712-3.737-.905-7.635-1.396-11.65-1.396-27.26 0-49.359 22.099-49.359 49.359 0 .104.007.206.008.309-.473-.012-.942-.036-1.418-.036-31.154 0-56.41 25.256-56.41 56.41s25.256 56.41 56.41 56.41h234.101c31.154 0 56.41-25.256 56.41-56.41-.001-28.912-21.756-52.729-49.786-56.01z" fill="#c8effe"/></g><g><path d="m371.751 155.26c-7.364-25.137-25.63-45.778-49.87-56.071-7.257-16.598-18.527-31.397-32.794-42.797-2.803-2.24-5.718-4.319-8.712-6.269-1.667 3.866-3.009 7.905-3.968 12.092-3.737-.905-7.635-1.396-11.65-1.396-27.26 0-49.359 22.099-49.359 49.359 0 .104.007.205.008.309-.473-.012-.942-.036-1.418-.036-31.154 0-56.41 25.256-56.41 56.41s25.256 56.41 56.41 56.41h215.208c-6.843-30.754-28.457-56.21-57.445-68.011z" fill="#99e6fc"/></g></g><g><g><path d="m342.965 180.944c.003-.254.019-.505.019-.76 0-27.566-20.02-50.441-46.31-54.918-8.379-34.99-39.858-61.002-77.417-61.002-37.834 0-69.502 26.393-77.601 61.77-4.219-1.021-8.62-1.576-13.153-1.576-30.777 0-55.726 24.949-55.726 55.726 0 .117.008.232.009.349-.534-.013-1.064-.04-1.601-.04-35.173 0-63.687 28.514-63.687 63.687s28.514 63.687 63.687 63.687h264.301c35.173 0 63.687-28.514 63.687-63.687 0-32.642-24.561-59.531-56.208-63.236z" fill="#dff6fd"/></g><g><path d="m342.965 180.944c.003-.254.019-.505.019-.76 0-27.566-20.02-50.441-46.31-54.918-5.369-22.421-20.232-41.141-40.093-51.708 19.279 69.928-5.479 156.646-70.178 221.345-4.52 4.52-9.153 8.835-13.875 12.964h162.958c35.173 0 63.687-28.514 63.687-63.687 0-32.642-24.561-59.531-56.208-63.236z" fill="#c8effe"/></g></g><g><g><path d="m265.295 368.476h-18.589c-2.887 0-5.555 1.54-6.999 4.041l-9.295 16.099c-1.444 2.5-1.444 5.581 0 8.081l9.295 16.099c1.444 2.5 4.111 4.041 6.999 4.041h18.589c2.887 0 5.555-1.54 6.999-4.041l9.295-16.099c1.444-2.5 1.444-5.581 0-8.081l-9.295-16.099c-1.444-2.501-4.112-4.041-6.999-4.041z" fill="#99e6fc"/></g></g><g><g><path d="m376.208 437.58h-18.589c-2.887 0-5.555 1.54-6.999 4.041l-9.295 16.099c-1.444 2.5-1.444 5.581 0 8.081l9.295 16.099c1.444 2.5 4.111 4.041 6.999 4.041h18.589c2.887 0 5.555-1.54 6.999-4.041l9.295-16.099c1.444-2.5 1.444-5.581 0-8.081l-9.295-16.099c-1.444-2.501-4.112-4.041-6.999-4.041z" fill="#99e6fc"/></g></g><g><g><path d="m487.122 348.273h-18.589c-2.887 0-5.555 1.54-6.999 4.041l-9.295 16.099c-1.444 2.5-1.444 5.581 0 8.081l9.295 16.099c1.444 2.5 4.111 4.041 6.999 4.041h18.589c2.887 0 5.555-1.54 6.999-4.041l9.295-16.099c1.444-2.5 1.444-5.581 0-8.081l-9.295-16.099c-1.444-2.501-4.112-4.041-6.999-4.041z" fill="#99e6fc"/></g></g><g><g><path d="m135.792 437.58h18.589c2.887 0 5.555 1.54 6.999 4.041l9.295 16.099c1.444 2.5 1.444 5.581 0 8.081l-9.295 16.099c-1.444 2.5-4.111 4.041-6.999 4.041h-18.589c-2.887 0-5.555-1.54-6.999-4.041l-9.295-16.099c-1.444-2.5-1.444-5.581 0-8.081l9.295-16.099c1.444-2.501 4.112-4.041 6.999-4.041z" fill="#99e6fc"/></g></g><g><g><path d="m24.878 348.273h18.589c2.887 0 5.555 1.54 6.999 4.041l9.295 16.099c1.444 2.5 1.444 5.581 0 8.081l-9.295 16.099c-1.444 2.5-4.111 4.041-6.999 4.041h-18.589c-2.887 0-5.555-1.54-6.999-4.041l-9.295-16.099c-1.444-2.5-1.444-5.581 0-8.081l9.295-16.099c1.444-2.501 4.112-4.041 6.999-4.041z" fill="#99e6fc"/></g></g><g><path d="m448.09 230.77c35.24 0 63.91-28.67 63.91-63.909 0-30.239-21.108-56.013-50.051-62.391-2.345-23.667-19.142-43.34-42.199-49.303-1.357-4.427-3.105-8.716-5.218-12.803-1.902-3.678-6.427-5.118-10.107-3.217-3.679 1.903-5.119 6.428-3.217 10.107 2.287 4.422 4.043 9.146 5.22 14.039.702 2.918 3.076 5.137 6.034 5.64 20.146 3.427 34.768 20.77 34.768 41.236l-.003.192c-.003.165-.006.326-.006.487 0 3.805 2.849 7.007 6.628 7.449 24.6 2.882 43.151 23.759 43.151 48.563 0 26.969-21.941 48.909-48.91 48.909h-47.338c-9.017-20.698-27.599-36.418-50.518-41.235-.62-7.039-2.403-13.862-5.326-20.347-1.702-3.775-6.145-5.456-9.919-3.756-3.776 1.702-5.458 6.144-3.756 9.92 2.819 6.254 4.248 12.925 4.248 19.828l-.01.761c0 3.805 2.848 7.006 6.626 7.449 28.261 3.313 49.573 27.298 49.573 55.79 0 30.983-25.202 56.19-56.18 56.19h-189.41c-4.142 0-7.5 3.357-7.5 7.5s3.358 7.5 7.5 7.5h189.41c39.249 0 71.18-31.936 71.18-71.19 0-4.577-.448-9.058-1.28-13.41h42.7z"/><path d="m71.18 315.37h39.9c4.142 0 7.5-3.357 7.5-7.5s-3.358-7.5-7.5-7.5h-39.9c-30.978 0-56.18-25.207-56.18-56.19s25.202-56.189 56.18-56.189c.246 0 .488.01.731.018l.729.021c2.025.043 3.961-.731 5.399-2.143 1.439-1.41 2.25-3.341 2.25-5.355 0-.14-.003-.283-.01-.448.053-26.543 21.664-48.122 48.22-48.122 3.83 0 7.665.458 11.397 1.36 1.947.47 4.004.143 5.71-.913 1.705-1.055 2.916-2.748 3.363-4.703 3.583-15.643 12.477-29.843 25.047-39.986 12.937-10.439 28.581-15.958 45.242-15.958 33.5 0 62.333 22.722 70.116 55.255.699 2.923 3.076 5.146 6.039 5.649 5.527.938 10.79 2.816 15.642 5.582 3.598 2.051 8.179.797 10.23-2.802s.796-8.179-2.802-10.229c-4.961-2.828-10.246-4.949-15.764-6.333-6.496-21.847-20.992-39.643-39.826-50.501 3.923-.177 7.888.188 11.761 1.121 1.948.47 4.002.138 5.706-.917 1.703-1.056 2.913-2.749 3.36-4.702 3.128-13.667 10.9-26.075 21.886-34.939 11.306-9.125 24.976-13.946 39.534-13.946 12.721 0 24.977 3.774 35.443 10.915 3.423 2.337 8.088 1.454 10.422-1.969 2.334-3.421 1.453-8.088-1.968-10.422-12.968-8.847-28.147-13.524-43.897-13.524-17.766 0-35.15 6.133-48.952 17.27-11.729 9.464-20.5 22.202-25.175 36.396-10.776-1.189-21.713.76-31.352 5.492-6.564-1.564-13.396-2.399-20.401-2.399-19.839 0-39.252 6.849-54.663 19.285-13.301 10.733-23.196 25.24-28.354 41.391-2.569-.316-5.157-.476-7.744-.476-32.502 0-59.354 24.653-62.838 56.242-36.679 2.827-65.661 33.581-65.661 70.979 0 39.255 31.931 71.19 71.18 71.19z"/><path d="m288.083 384.865-9.295-16.1c-2.775-4.805-7.945-7.79-13.493-7.79h-18.589c-5.549 0-10.719 2.985-13.494 7.791l-9.295 16.099c-2.774 4.806-2.774 10.775 0 15.581l9.294 16.098c2.773 4.807 7.944 7.792 13.494 7.792h18.589c5.549 0 10.719-2.985 13.494-7.791l9.294-16.099c2.775-4.805 2.775-10.775.001-15.581zm-12.99 8.081-9.294 16.099c-.104.18-.296.291-.503.291h-18.589c-.207 0-.399-.111-.503-.291l-9.295-16.099c-.104-.179-.104-.402 0-.581l9.295-16.099c.104-.18.296-.291.503-.291h18.589c.207 0 .4.112.503.291l9.294 16.099c.103.179.103.403 0 .581z"/><path d="m389.702 437.871c-2.774-4.806-7.945-7.791-13.494-7.791h-18.589c-5.549 0-10.721 2.986-13.494 7.791l-9.295 16.099c-2.774 4.806-2.774 10.775 0 15.581l9.295 16.099c2.774 4.806 7.945 7.791 13.494 7.791h18.589c5.548 0 10.718-2.985 13.494-7.791l9.294-16.098c2.776-4.806 2.776-10.777 0-15.582zm-3.696 24.18-9.294 16.098c-.104.18-.297.292-.504.292h-18.589c-.207 0-.4-.111-.503-.291l-9.295-16.099c-.104-.179-.104-.402 0-.581l9.295-16.1c.104-.179.296-.29.503-.29h18.589c.207 0 .4.111.503.291l9.295 16.1c.104.178.104.4 0 .58z"/><path d="m487.122 340.772h-18.589c-5.549 0-10.719 2.985-13.494 7.791l-9.295 16.099c-2.774 4.806-2.774 10.775 0 15.581l9.295 16.1c2.774 4.805 7.945 7.79 13.494 7.79h18.589c5.549 0 10.72-2.985 13.494-7.79l9.294-16.099c2.776-4.806 2.776-10.777 0-15.582l-9.294-16.099c-2.775-4.805-7.945-7.791-13.494-7.791zm9.798 31.971-9.294 16.1c-.104.179-.296.29-.503.29h-18.589c-.207 0-.4-.111-.503-.29l-9.295-16.1c-.104-.179-.104-.402 0-.581l9.295-16.099c.104-.18.296-.291.503-.291h18.589c.207 0 .4.111.503.291l9.295 16.1c.102.179.102.4-.001.58z"/><path d="m167.875 437.872c-2.773-4.807-7.944-7.792-13.494-7.792h-18.589c-5.549 0-10.719 2.985-13.494 7.791l-9.294 16.098c-2.776 4.806-2.776 10.777 0 15.582l9.295 16.1c2.775 4.805 7.945 7.79 13.493 7.79h18.589c5.549 0 10.719-2.985 13.494-7.791l9.295-16.099c2.774-4.806 2.774-10.775 0-15.581zm-3.696 24.179-9.295 16.099c-.104.18-.296.291-.503.291h-18.589c-.207 0-.4-.112-.503-.291l-9.295-16.1c-.103-.179-.103-.4 0-.58l9.294-16.099c.104-.18.296-.291.503-.291h18.589c.207 0 .399.111.503.291l9.295 16.099c.105.178.105.402.001.581z"/><path d="m43.467 340.772h-18.589c-5.548 0-10.718 2.985-13.494 7.791l-9.294 16.098c-2.776 4.806-2.776 10.777 0 15.582l9.295 16.101c2.775 4.805 7.945 7.789 13.493 7.789h18.589c5.549 0 10.72-2.985 13.494-7.79l9.295-16.1c2.774-4.806 2.774-10.775 0-15.581l-9.295-16.099c-2.774-4.805-7.945-7.791-13.494-7.791zm9.799 31.971-9.295 16.1c-.104.179-.296.29-.503.29h-18.59c-.207 0-.4-.111-.503-.29l-9.295-16.101c-.103-.179-.103-.4 0-.58l9.294-16.098c.104-.18.297-.292.504-.292h18.589c.207 0 .4.111.503.291l9.295 16.099c.104.179.104.402.001.581z"/><path d="m301.5 468.818c-1.852-3.704-6.357-5.205-10.062-3.354-3.705 1.853-5.207 6.357-3.354 10.062l16.163 32.325c1.314 2.628 3.962 4.147 6.714 4.147 1.127 0 2.271-.256 3.348-.794 3.705-1.853 5.207-6.357 3.354-10.062z"/><path d="m261.094 468.818c-1.852-3.704-6.356-5.205-10.062-3.354-3.705 1.853-5.207 6.357-3.354 10.062l16.163 32.325c1.314 2.628 3.962 4.147 6.714 4.147 1.127 0 2.271-.256 3.348-.794 3.705-1.853 5.207-6.357 3.354-10.062z"/><path d="m54.616 468.818c-1.852-3.704-6.357-5.205-10.062-3.354-3.705 1.853-5.207 6.357-3.354 10.062l16.163 32.325c1.314 2.628 3.962 4.147 6.714 4.147 1.127 0 2.271-.256 3.348-.794 3.705-1.853 5.207-6.357 3.354-10.062z"/><path d="m14.21 468.818c-1.853-3.704-6.356-5.205-10.062-3.354-3.705 1.853-5.207 6.357-3.354 10.062l16.163 32.325c1.314 2.629 3.962 4.149 6.713 4.149 1.127 0 2.271-.256 3.348-.794 3.705-1.853 5.207-6.357 3.354-10.062z"/><path d="m164.571 396.117c1.127 0 2.271-.256 3.348-.794 3.705-1.853 5.207-6.357 3.354-10.062l-16.163-32.325c-1.852-3.704-6.357-5.204-10.062-3.354-3.705 1.853-5.207 6.357-3.354 10.062l16.163 32.325c1.314 2.629 3.963 4.148 6.714 4.148z"/><path d="m124.165 396.117c1.127 0 2.271-.256 3.348-.794 3.705-1.853 5.207-6.357 3.354-10.062l-16.163-32.325c-1.852-3.704-6.357-5.204-10.062-3.354-3.705 1.853-5.207 6.357-3.354 10.062l16.163 32.325c1.314 2.629 3.963 4.148 6.714 4.148z"/><path d="m387.612 396.117c1.127 0 2.271-.256 3.348-.794 3.705-1.853 5.207-6.357 3.354-10.062l-16.163-32.325c-1.852-3.704-6.357-5.204-10.062-3.354-3.705 1.853-5.207 6.357-3.354 10.062l16.163 32.325c1.314 2.629 3.963 4.148 6.714 4.148z"/><path d="m347.206 396.117c1.127 0 2.271-.256 3.348-.794 3.705-1.853 5.207-6.357 3.354-10.062l-16.163-32.325c-1.852-3.704-6.357-5.204-10.062-3.354-3.705 1.853-5.207 6.357-3.354 10.062l16.163 32.325c1.314 2.629 3.963 4.148 6.714 4.148z"/><path d="m495.043 468.818c-1.852-3.704-6.357-5.205-10.062-3.354-3.705 1.853-5.207 6.357-3.354 10.062l16.163 32.325c1.314 2.628 3.962 4.147 6.714 4.147 1.127 0 2.271-.256 3.348-.794 3.705-1.853 5.207-6.357 3.354-10.062z"/><path d="m454.637 468.818c-1.853-3.704-6.356-5.205-10.062-3.354-3.705 1.853-5.207 6.357-3.354 10.062l16.163 32.325c1.314 2.628 3.962 4.147 6.714 4.147 1.127 0 2.271-.256 3.348-.794 3.705-1.853 5.207-6.357 3.354-10.062z"/></g></g></svg>