<svg id="Capa_1" enable-background="new 0 0 512 512" height="512" viewBox="0 0 512 512" width="512" xmlns="http://www.w3.org/2000/svg"><g><g><g><path d="m175.187 504.5c-44.561 0-80.813-36.252-80.813-80.813 0-21.883 8.97-42.647 24.244-57.671v-301.947c0-31.193 25.377-56.569 56.569-56.569s56.569 25.376 56.569 56.569v301.947c15.274 15.024 24.244 35.787 24.244 57.671 0 44.561-36.252 80.813-80.813 80.813z" fill="#dff6fd"/><path d="m240.101 375.651c.232 2.472.364 4.963.364 7.472 0 44.561-36.252 80.813-80.813 80.813-26.569 0-50.178-12.892-64.917-32.744 3.8 41.054 38.423 73.308 80.452 73.308 44.561 0 80.813-36.252 80.813-80.813 0-17.524-5.764-34.321-15.899-48.036z" fill="#c8effe"/><path d="m175.187 39.825c-13.39 0-24.244 10.854-24.244 24.244v40.979l48.488-.572v-40.407c0-13.389-10.854-24.244-24.244-24.244z" fill="#99e6fc"/><path d="m199.431 381.702v-277.226c0-13.39-10.854-24.244-24.244-24.244s-24.244 10.854-24.244 24.244v277.227c-14.489 8.385-24.244 24.041-24.244 41.985 0 26.779 21.709 48.488 48.488 48.488s48.488-21.709 48.488-48.488c0-17.945-9.755-33.601-24.244-41.986z" fill="#fd8087"/><path d="m202.195 383.433c-2.131 34.362-30.66 61.576-65.559 61.576-1.723 0-3.424-.087-5.113-.217 7.848 16.206 24.45 27.383 43.664 27.383 26.779 0 48.488-21.709 48.488-48.488 0-16.777-8.529-31.55-21.48-40.254z" fill="#fe646f"/></g></g><g><path d="m368.143 16.897 5.627-6.591c4.186-4.903 12.156-3.084 13.8 3.15l2.21 8.38c1.253 4.749 6.454 7.254 10.948 5.272l7.93-3.497c5.899-2.601 12.29 2.496 11.067 8.825l-1.645 8.509c-.932 4.822 2.667 9.336 7.576 9.5l8.662.29c6.443.216 9.99 7.581 6.142 12.753l-5.174 6.953c-2.932 3.94-1.648 9.569 2.704 11.847l7.678 4.019c5.711 2.99 5.711 11.165 0 14.155l-7.678 4.019c-4.351 2.278-5.636 7.906-2.704 11.847l5.174 6.953c3.849 5.172.302 12.537-6.142 12.753l-8.662.29c-4.909.164-8.508 4.678-7.576 9.5l1.645 8.509c1.223 6.33-5.168 11.427-11.067 8.825l-7.93-3.497c-4.494-1.982-9.695.523-10.948 5.272l-2.21 8.38c-1.644 6.234-9.614 8.053-13.8 3.15l-5.627-6.591c-3.189-3.735-8.962-3.735-12.151 0l-5.627 6.591c-4.186 4.903-12.156 3.084-13.8-3.15l-2.21-8.38c-1.253-4.749-6.454-7.254-10.948-5.272l-7.93 3.497c-5.899 2.601-12.29-2.496-11.067-8.825l1.645-8.509c.932-4.822-2.667-9.336-7.576-9.5l-8.662-.29c-6.443-.216-9.99-7.581-6.142-12.753l5.174-6.953c2.932-3.94 1.648-9.569-2.704-11.847l-7.678-4.019c-5.711-2.99-5.711-11.165 0-14.155l7.678-4.019c4.351-2.278 5.636-7.906 2.704-11.847l-5.174-6.953c-3.849-5.172-.302-12.537 6.142-12.753l8.662-.29c4.909-.164 8.508-4.678 7.576-9.5l-1.645-8.509c-1.223-6.33 5.168-11.427 11.067-8.825l7.93 3.497c4.494 1.982 9.695-.523 10.948-5.272l2.21-8.38c1.644-6.234 9.614-8.053 13.8-3.15l5.627 6.591c3.189 3.736 8.961 3.736 12.151 0z" fill="#ffe177"/><path d="m445.668 86.308-7.678-4.019c-4.351-2.278-5.636-7.906-2.704-11.846l5.174-6.953c3.849-5.172.302-12.537-6.141-12.753l-8.662-.29c-4.909-.164-8.508-4.678-7.576-9.5l1.645-8.509c1.119-5.791-4.137-10.531-9.557-9.307 4.195 10.464 6.508 21.886 6.508 33.85 0 50.266-40.749 91.015-91.015 91.015-6.735 0-13.297-.738-19.615-2.126l-1.636 8.466c-1.224 6.33 5.168 11.427 11.067 8.825l7.93-3.497c4.494-1.982 9.695.523 10.948 5.272l2.21 8.38c1.644 6.233 9.614 8.053 13.8 3.15l5.627-6.591c3.189-3.736 8.962-3.736 12.151 0l5.627 6.591c4.186 4.903 12.156 3.084 13.8-3.15l2.21-8.38c1.253-4.749 6.454-7.254 10.948-5.272l7.93 3.497c5.899 2.601 12.29-2.496 11.067-8.825l-1.645-8.509c-.932-4.822 2.667-9.336 7.576-9.5l8.662-.29c6.443-.216 9.99-7.581 6.141-12.753l-5.174-6.953c-2.932-3.94-1.648-9.569 2.704-11.846l7.678-4.02c5.711-2.992 5.711-11.167 0-14.157z" fill="#ffd15b"/><circle cx="362.067" cy="93.385" fill="#fea95c" r="40.407"/><path d="m377.33 55.971c1.924 4.71 2.992 9.861 2.992 15.263 0 22.316-18.09 40.407-40.407 40.407-5.402 0-10.553-1.068-15.263-2.992 6.023 14.747 20.501 25.143 37.414 25.143 22.316 0 40.406-18.091 40.406-40.407.002-16.913-10.395-31.391-25.142-37.414z" fill="#fe9738"/></g><g><path d="m154.698 388.19c2.316-1.341 3.742-3.814 3.742-6.49v-44.07c0-4.143-3.358-7.5-7.5-7.5s-7.5 3.357-7.5 7.5v39.95c-15.054 10.395-24.24 27.682-24.24 46.11 0 30.867 25.117 55.979 55.99 55.979 30.868 0 55.98-25.112 55.98-55.979 0-18.429-9.186-35.716-24.24-46.11v-313.51c0-17.502-14.239-31.74-31.74-31.74-17.507 0-31.75 14.238-31.75 31.74v238.56c0 4.143 3.358 7.5 7.5 7.5s7.5-3.357 7.5-7.5l.003-198.154c0-9.232 7.511-16.744 16.744-16.744 9.229 0 16.738 7.507 16.743 16.734v277.234c0 2.676 1.426 5.149 3.742 6.49 12.643 7.321 20.498 20.924 20.498 35.5 0 22.596-18.384 40.979-40.98 40.979-22.602 0-40.99-18.384-40.99-40.979 0-14.576 7.855-28.178 20.498-35.5zm20.489-315.459c-6.144 0-11.882 1.76-16.747 4.794v-13.455c0-9.23 7.514-16.74 16.75-16.74 9.23 0 16.74 7.51 16.74 16.74v13.453c-4.864-3.033-10.601-4.792-16.743-4.792z"/><path d="m239.26 236.45c0-4.143-3.358-7.5-7.5-7.5s-7.5 3.357-7.5 7.5v129.57c0 2.011.807 3.937 2.241 5.347 13.981 13.753 22 32.824 22 52.324 0 40.423-32.887 73.31-73.31 73.31-40.429 0-73.32-32.887-73.32-73.31 0-19.503 8.021-38.574 22.008-52.322 1.434-1.41 2.242-3.337 2.242-5.349v-301.95c0-27.058 22.013-49.07 49.07-49.07s49.07 22.013 49.07 49.07v137.38c0 4.143 3.358 7.5 7.5 7.5s7.5-3.357 7.5-7.5v-137.38c-.001-35.328-28.743-64.07-64.071-64.07s-64.07 28.742-64.07 64.07v298.888c-15.448 16.344-24.25 38.297-24.25 60.732 0 48.694 39.62 88.31 88.32 88.31 48.694 0 88.31-39.615 88.31-88.31 0-22.432-8.797-44.384-24.24-60.731z"/><path d="m62.049 87.731h24.244c4.142 0 7.5-3.357 7.5-7.5s-3.358-7.5-7.5-7.5h-24.244c-4.142 0-7.5 3.357-7.5 7.5s3.358 7.5 7.5 7.5z"/><path d="m86.292 113.139h-14.142c-4.142 0-7.5 3.357-7.5 7.5s3.358 7.5 7.5 7.5h14.142c4.142 0 7.5-3.357 7.5-7.5s-3.357-7.5-7.5-7.5z"/><path d="m62.049 168.545h24.244c4.142 0 7.5-3.357 7.5-7.5s-3.358-7.5-7.5-7.5h-24.244c-4.142 0-7.5 3.357-7.5 7.5s3.358 7.5 7.5 7.5z"/><path d="m86.292 193.951h-14.142c-4.142 0-7.5 3.357-7.5 7.5s3.358 7.5 7.5 7.5h14.142c4.142 0 7.5-3.357 7.5-7.5s-3.357-7.5-7.5-7.5z"/><path d="m62.049 249.357h24.244c4.142 0 7.5-3.357 7.5-7.5s-3.358-7.5-7.5-7.5h-24.244c-4.142 0-7.5 3.357-7.5 7.5s3.358 7.5 7.5 7.5z"/><path d="m86.292 274.765h-14.142c-4.142 0-7.5 3.357-7.5 7.5s3.358 7.5 7.5 7.5h14.142c4.142 0 7.5-3.357 7.5-7.5s-3.357-7.5-7.5-7.5z"/><path d="m93.792 322.671c0-4.143-3.358-7.5-7.5-7.5h-24.243c-4.142 0-7.5 3.357-7.5 7.5s3.358 7.5 7.5 7.5h24.244c4.142 0 7.499-3.358 7.499-7.5z"/><path d="m441.468 111.127 7.678-4.02c5.123-2.682 8.305-7.94 8.305-13.723 0-5.781-3.182-11.04-8.305-13.722l-7.679-4.02c-.06-.031-.199-.104-.249-.323-.05-.22.044-.346.085-.4l5.174-6.953c3.452-4.64 4.038-10.758 1.528-15.968s-7.658-8.565-13.436-8.759l-8.661-.29c-.062-.002-.226-.007-.367-.184-.141-.176-.11-.331-.098-.396l1.645-8.511c1.097-5.677-1.03-11.443-5.551-15.049-4.521-3.605-10.616-4.396-15.906-2.062l-7.929 3.497c-.062.026-.206.091-.409-.007s-.244-.251-.261-.316l-2.21-8.38c-1.475-5.591-5.893-9.863-11.53-11.15-5.637-1.282-11.471.646-15.226 5.043l-5.627 6.592c-.044.052-.146.172-.372.172s-.328-.12-.372-.171l-5.627-6.593c-3.754-4.397-9.589-6.328-15.226-5.042s-10.055 5.559-11.53 11.15l-2.21 8.38c-.017.064-.058.218-.261.315s-.348.033-.409.007l-7.93-3.497c-5.291-2.335-11.386-1.544-15.907 2.062-4.521 3.605-6.647 9.371-5.55 15.048l1.645 8.511c.013.065.043.221-.097.396-.141.177-.299.182-.366.184l-8.661.29c-5.779.193-10.928 3.549-13.437 8.759s-1.924 11.328 1.528 15.968l5.174 6.953c.041.054.135.181.084.399-.05.22-.189.293-.25.324l-7.678 4.02c-5.123 2.682-8.305 7.94-8.305 13.722s3.182 11.041 8.305 13.723l7.678 4.02c.06.031.2.104.25.324s-.044.347-.084.4l-5.174 6.953c-3.452 4.639-4.038 10.757-1.529 15.967 2.509 5.209 7.657 8.565 13.437 8.76l8.662.29c.067.002.225.007.365.184.141.176.11.331.098.397l-1.645 8.508c-1.097 5.678 1.029 11.443 5.549 15.049 4.521 3.605 10.617 4.397 15.908 2.063l7.93-3.497c.062-.027.207-.09.409.007.203.098.243.25.26.314l2.21 8.382c1.475 5.591 5.893 9.863 11.53 11.149 1.154.264 2.316.393 3.468.393 4.471 0 8.772-1.938 11.758-5.437l5.626-6.591c.044-.052.146-.172.372-.172s.328.12.372.171l5.627 6.592c3.755 4.398 9.591 6.329 15.226 5.045 5.637-1.287 10.056-5.56 11.53-11.15l2.21-8.382c.017-.064.058-.217.26-.314s.347-.034.409-.007l7.93 3.497c5.291 2.333 11.386 1.542 15.906-2.062 4.521-3.605 6.647-9.372 5.55-15.05l-1.645-8.509c-.013-.065-.043-.221.098-.396.141-.177.298-.182.366-.184l8.662-.29c5.779-.194 10.928-3.551 13.437-8.761 2.509-5.209 1.923-11.327-1.529-15.966l-5.174-6.953c-.04-.055-.134-.181-.084-.4.052-.219.192-.292.252-.323zm-6.958-13.289c-4.021 2.105-6.907 5.852-7.917 10.276s-.035 9.052 2.675 12.692l5.174 6.953c.079.105.177.237.048.503-.128.267-.292.272-.424.276l-8.662.29c-4.537.152-8.761 2.274-11.591 5.823-2.831 3.549-3.959 8.14-3.098 12.597l1.645 8.508c.025.13.056.291-.175.476-.233.185-.382.118-.501.065l-7.929-3.497c-4.152-1.83-8.88-1.752-12.97.216-4.089 1.97-7.099 5.616-8.256 10.005l-2.21 8.381c-.034.128-.076.286-.364.353-.291.067-.395-.061-.48-.159l-5.627-6.593c-2.947-3.451-7.24-5.432-11.779-5.432 0 0 0 0-.001 0-4.539 0-8.832 1.979-11.78 5.433l-5.627 6.591c-.085.101-.192.228-.48.16-.288-.066-.33-.225-.364-.352l-2.21-8.381c-1.157-4.39-4.167-8.036-8.256-10.006-2.125-1.022-4.42-1.535-6.719-1.535-2.127 0-4.255.439-6.251 1.319l-7.929 3.497c-.121.052-.271.118-.503-.065-.231-.185-.2-.346-.175-.476l1.645-8.508c.861-4.457-.268-9.049-3.098-12.598-2.83-3.548-7.055-5.67-11.591-5.822l-8.662-.29c-.132-.004-.296-.01-.424-.276s-.031-.397.048-.503l5.174-6.953c2.709-3.642 3.684-8.268 2.674-12.692-1.01-4.426-3.896-8.171-7.917-10.276l-7.678-4.02c-.117-.062-.262-.138-.262-.434 0-.295.146-.371.262-.433l7.677-4.019c4.021-2.105 6.907-5.85 7.917-10.275 1.011-4.425.036-9.052-2.674-12.693l-5.174-6.953c-.079-.105-.177-.237-.048-.504.128-.266.292-.271.424-.275l8.663-.29c4.537-.153 8.762-2.275 11.591-5.824s3.958-8.14 3.097-12.595l-1.645-8.511c-.025-.129-.056-.29.175-.474.23-.186.381-.118.502-.065l7.93 3.497c4.154 1.832 8.881 1.753 12.97-.218 4.089-1.97 7.098-5.616 8.255-10.005l2.21-8.379c.034-.128.076-.286.364-.353.29-.064.396.06.48.158l5.627 6.593c2.947 3.452 7.241 5.432 11.78 5.432s8.832-1.98 11.779-5.432c0 0 0 0 0-.001l5.627-6.591c.084-.101.192-.226.479-.159.289.066.331.225.364.353l2.21 8.379c1.157 4.389 4.167 8.035 8.256 10.005s8.816 2.05 12.97.218l7.93-3.497c.12-.053.27-.121.501.065.231.185.2.345.175.474l-1.645 8.51c-.861 4.456.268 9.047 3.097 12.596 2.83 3.549 7.055 5.671 11.592 5.824l8.663.29c.131.004.295.01.423.275.128.267.031.398-.048.504l-5.173 6.953c-2.71 3.642-3.685 8.268-2.675 12.693s3.896 8.17 7.917 10.274l7.678 4.02c.117.062.262.138.262.433 0 .296-.146.372-.262.434z"/><path d="m399.386 76.088c-4.017 1.013-6.451 5.09-5.438 9.106.679 2.689 1.022 5.447 1.022 8.195 0 18.142-14.759 32.9-32.9 32.9-18.146 0-32.91-14.759-32.91-32.9 0-18.146 14.763-32.909 32.91-32.909 4.995 0 9.792 1.09 14.259 3.238 3.734 1.795 8.214.226 10.01-3.508 1.795-3.732.225-8.214-3.507-10.01-6.512-3.133-13.497-4.721-20.762-4.721-26.417 0-47.91 21.492-47.91 47.909 0 26.412 21.492 47.9 47.91 47.9 26.413 0 47.9-21.488 47.9-47.9 0-3.984-.497-7.976-1.478-11.863-1.013-4.015-5.093-6.454-9.106-5.437z"/></g></g></svg>