<svg id="Capa_1" enable-background="new 0 0 512 512" height="512" viewBox="0 0 512 512" width="512" xmlns="http://www.w3.org/2000/svg"><g><path d="m472.175 265.96v238.54h32.325v-250.52c-16.623 0-17.683 10.627-32.325 11.98z" fill="#62dbfb"/><path d="m85.661 198.591 23.065-19.482c3.417-2.886 5.779-6.824 6.717-11.196l6.747-31.448c1.213-5.656 4.793-10.521 9.832-13.361l21.249-11.979c5.181-2.921 8.812-7.976 9.925-13.819l13.977-73.382c1.816-9.53 10.147-16.424 19.847-16.424h76.984c10.039 0 18.555 7.371 19.995 17.307l16.836 116.228c.682 4.711 3.006 9.03 6.562 12.194l38.325 34.114c4.307 3.834 6.77 9.325 6.77 15.091v63.668h-283.997v-52.076c0-5.95 2.622-11.596 7.166-15.435z" fill="#dff6fd"/><g fill="#c8effe"><path d="m159.024 253.98c0-25.32-10.331-48.93-28.285-65.917v-64.143c-4.354 2.907-7.443 7.387-8.55 12.545l-6.747 31.448c-.938 4.373-3.301 8.31-6.717 11.196l-23.065 19.482c-4.545 3.839-7.167 9.485-7.167 15.434v52.076h79.719c.533-3.966.812-8.012.812-12.121z"/><path d="m355.721 187.343-38.325-34.114c-3.556-3.165-5.879-7.483-6.562-12.194l-16.836-116.228c-1.439-9.935-9.955-17.307-19.994-17.307h-32.325c10.039 0 18.555 7.372 19.995 17.307l16.836 116.228c.682 4.711 3.006 9.03 6.562 12.194l38.325 34.114c4.307 3.834 6.77 9.325 6.77 15.091v63.667h32.325v-63.667c0-5.766-2.464-11.257-6.771-15.091z"/><path d="m296.818 44.272 41.263 43.838c2.408 2.558 5.441 4.444 8.8 5.472l28.382 8.684c6.879 2.105 12.12 7.709 13.76 14.713l5.088 21.727c1.422 6.071 5.567 11.146 11.233 13.75l16.379 7.529c7.17 3.296 11.765 10.465 11.765 18.357v87.759h-70.995v-63.668c0-5.766-2.464-11.257-6.77-15.091l-38.325-34.114c-3.556-3.165-5.879-7.484-6.562-12.194z"/></g><path d="m375.87 164.708-35.572-31.664-7.29-50.322-36.191-38.449 14.017 96.763c.682 4.711 3.006 9.03 6.562 12.194l38.325 34.114c4.307 3.834 6.77 9.325 6.77 15.091v63.667h30.305v-63.667c.001-14.402-6.169-28.154-16.926-37.727z" fill="#99e6fc"/><path d="m504.5 253.98c-17.753 0-17.753 12.122-35.506 12.122s-17.753-12.122-35.506-12.122c-17.751 0-17.751 12.122-35.501 12.122-17.751 0-17.751-12.122-35.503-12.122-17.75 0-17.75 12.122-35.501 12.122-17.75 0-17.75-12.122-35.5-12.122-17.748 0-17.748 12.122-35.496 12.122s-17.748-12.122-35.495-12.122c-17.75 0-17.75 12.122-35.501 12.122-17.75 0-17.75-12.122-35.5-12.122-17.749 0-17.749 12.122-35.498 12.122s-17.749-12.122-35.497-12.122-17.748 12.122-35.497 12.122-17.749-12.122-35.498-12.122v250.52h497v-250.52z" fill="#99e6fc"/><path d="m42.998 266.102c-17.749 0-17.749-12.122-35.498-12.122v67.701c16.097 14.426 37.345 23.214 60.61 23.214 49.628 0 90.089-39.972 90.896-89.412-2.565-.915-5.61-1.503-9.515-1.503-17.749 0-17.749 12.122-35.498 12.122s-17.749-12.122-35.497-12.122c-17.75 0-17.75 12.122-35.498 12.122z" fill="#62dbfb"/><path d="m472.175 265.96v238.54h32.325v-250.52c-16.623 0-17.683 10.627-32.325 11.98z" fill="#62dbfb"/><path d="m146.312 367.159 5.725-4.536c4.269-3.382 10.45-2.771 13.974 1.382l45.298 53.374c4.494 5.295 12.868 4.581 16.4-1.4l59.527-100.796c2.01-3.404 5.821-5.322 9.753-4.91l24.374 2.559c3.154.331 6.281-.838 8.444-3.158l29.97-32.15c1.744-1.871 2.714-4.334 2.712-6.892l-.007-16.652c-17.75 0-17.75 12.122-35.501 12.122-17.75 0-17.75-12.122-35.5-12.122-17.748 0-17.748 12.122-35.496 12.122s-17.748-12.122-35.495-12.122c-17.75 0-17.75 12.122-35.501 12.122-17.75 0-17.75-12.122-35.5-12.122-17.749 0-17.749 12.122-35.498 12.122s-17.749-12.122-35.497-12.122v48.111c0 6.443 2.565 12.622 7.128 17.17l47.285 47.134c3.629 3.616 9.39 3.945 13.405.764z" fill="#01d0fb"/><path d="m149.49 253.98c-17.749 0-17.749 12.122-35.498 12.122s-17.749-12.122-35.497-12.122v48.111c0 6.443 2.565 12.622 7.128 17.17l18.324 18.266c31.927-13.747 54.459-45.276 55.058-82.044-2.565-.916-5.61-1.503-9.515-1.503z" fill="#01c0fa"/><path d="m321.364 312.832-24.374-2.559c-3.932-.413-7.743 1.506-9.753 4.91l-45.558 77.143 29.226 17.341c6.287 3.731 14.382 2.054 18.67-3.867l32.924-45.457c4.846-6.69 14.37-7.821 20.647-2.451l8.189 7.005c6.093 5.213 15.297 4.322 20.277-1.963l56.633-71.468c3.395-4.284 5.243-9.591 5.243-15.057v-22.43c-17.751 0-17.751 12.122-35.501 12.122-17.751 0-17.751-12.122-35.503-12.122l.007 16.652c.001 2.558-.968 5.021-2.712 6.892l-29.97 32.15c-2.164 2.321-5.291 3.491-8.445 3.159z" fill="#01c0fa"/><path d="m100.435 202.72v-162.895c0-17.852-14.472-32.325-32.325-32.325s-32.325 14.473-32.325 32.325v162.895c-16.992 10.737-28.285 29.674-28.285 51.26 0 33.474 27.136 60.61 60.61 60.61s60.61-27.136 60.61-60.61c0-21.586-11.294-40.523-28.285-51.26z" fill="#fff6ce"/><path d="m99.429 202.082c5.528 9.141 8.712 19.858 8.712 31.319 0 33.474-27.136 60.61-60.61 60.61-11.462 0-22.179-3.184-31.32-8.712 10.617 17.554 29.886 29.29 51.898 29.29 33.474 0 60.61-27.136 60.61-60.61.001-22.011-11.735-41.28-29.29-51.897z" fill="#fff0ad"/><circle cx="68.11" cy="253.98" fill="#fd8087" r="28.285"/><g><path d="m504.5 246.479c-11.189 0-17.171 4.084-21.977 7.366-4.044 2.761-6.966 4.756-13.53 4.756-6.557 0-9.477-1.994-13.519-4.753-3.603-2.46-7.866-5.37-14.487-6.675v-68.831c0-10.785-6.332-20.666-16.132-25.171l-16.379-7.529c-3.588-1.649-6.162-4.8-7.062-8.646l-5.088-21.728c-2.24-9.568-9.47-17.299-18.868-20.175l-28.382-8.684c-2.108-.645-4.022-1.835-5.533-3.44l-39.639-42.113-2.481-17.133c-1.962-13.524-13.751-23.723-27.423-23.723h-76.98c-13.289 0-24.731 9.476-27.207 22.526l-13.981 73.375c-.698 3.676-2.972 6.843-6.234 8.685l-21.259 11.98c-6.894 3.884-11.807 10.563-13.482 18.332l-6.739 31.438c-.052.244-.12.483-.187.723v-127.229c-.001-21.962-17.864-39.83-39.821-39.83-21.963 0-39.83 17.868-39.83 39.83v103.71c0 4.142 3.358 7.5 7.5 7.5s7.5-3.358 7.5-7.5v-103.71c0-13.691 11.138-24.83 24.83-24.83 13.686 0 24.82 11.139 24.82 24.83v162.89c0 2.573 1.319 4.966 3.494 6.341 15.526 9.809 24.796 26.601 24.796 44.919 0 29.285-23.825 53.11-53.11 53.11s-53.11-23.825-53.11-53.11c0-18.316 9.266-35.109 24.787-44.92 2.174-1.374 3.493-3.767 3.493-6.339v-24.18c0-4.142-3.358-7.5-7.5-7.5s-7.5 3.358-7.5 7.5v20.199c-17.784 12.807-28.28 33.158-28.28 55.239v250.521c0 4.142 3.358 7.5 7.5 7.5h497c4.142 0 7.5-3.358 7.5-7.5v-250.521c0-4.142-3.358-7.5-7.5-7.5zm-396.57-47.742v-9.141l5.437-4.586 28.126-20.18c1.955-1.402 4.259-2.144 6.664-2.144h12.657c3.284 0 6.412 1.414 8.581 3.88l15.394 17.497c2.736 3.11 7.475 3.413 10.585.677s3.413-7.475.677-10.585l-15.394-17.497c-5.017-5.702-12.249-8.972-19.843-8.972h-12.657c-5.561 0-10.888 1.713-15.408 4.956l-7.511 5.389 4.283-19.98c.77-3.569 3.022-6.637 6.181-8.417l21.095-11.887 36.971-18.572c6.369-3.2 14.135-1.724 18.887 3.589l7.339 8.205c6.187 6.918 15.058 10.886 24.339 10.886h11.667c4.142 0 7.5-3.358 7.5-7.5s-3.358-7.5-7.5-7.5h-11.667c-5.018 0-9.814-2.145-13.159-5.885l-7.339-8.205c-9.257-10.351-24.392-13.226-36.801-6.993l-15.484 7.778 12.999-68.222c1.135-5.984 6.38-10.328 12.471-10.328h76.98c6.271 0 11.679 4.676 12.578 10.875l8.64 59.66c.593 4.099 4.39 6.938 8.498 6.347 4.099-.593 6.941-4.398 6.347-8.498l-2.413-16.663 24.971 26.529c3.296 3.501 7.469 6.096 12.067 7.503l28.381 8.684c4.31 1.318 7.625 4.863 8.652 9.251l5.081 21.702 8.565 38.999c.77 3.504 3.872 5.893 7.318 5.893.533 0 1.075-.057 1.616-.176 4.046-.888 6.605-4.888 5.716-8.934l-3.252-14.807 11.823 5.435c4.494 2.066 7.397 6.597 7.397 11.542v68.831c-6.618 1.305-10.879 4.214-14.48 6.674-4.041 2.76-6.961 4.754-13.519 4.754-6.564 0-9.486-1.995-13.53-4.756-3.599-2.458-7.858-5.364-14.468-6.67v-44.745c0-7.893-3.382-15.434-9.283-20.692l-38.32-34.109c-2.232-1.988-3.702-4.717-4.135-7.675l-3.18-21.93c-.594-4.1-4.397-6.941-8.499-6.346-4.1.594-6.94 4.399-6.346 8.499l1.494 10.303c-4.093-1.99-8.723-2.75-13.331-2.107-6.723.935-12.679 4.748-16.341 10.463l-16.064 25.067c-3.344 5.218-8.09 9.339-13.725 11.918l-14.859 6.802c-3.766 1.724-5.422 6.175-3.698 9.941 1.261 2.755 3.98 4.38 6.824 4.38 1.044 0 2.106-.219 3.117-.683l14.859-6.801c8.257-3.779 15.211-9.818 20.111-17.464l16.064-25.067c1.314-2.05 3.366-3.364 5.778-3.699 2.414-.335 4.745.369 6.568 1.983l15.401 13.633c.008.007.017.013.026.02l38.28 34.074c2.707 2.412 4.26 5.872 4.26 9.491v44.741c-6.622 1.304-10.885 4.215-14.487 6.676-4.042 2.76-6.961 4.754-13.519 4.754-6.557 0-9.477-1.994-13.519-4.753-4.808-3.283-10.792-7.369-21.988-7.369-11.186 0-17.165 4.085-21.969 7.367-4.041 2.76-6.96 4.755-13.519 4.755-6.558 0-9.478-1.994-13.519-4.754-4.806-3.283-10.788-7.368-21.979-7.368-11.189 0-17.171 4.084-21.977 7.366-4.044 2.761-6.966 4.756-13.53 4.756-6.558 0-9.478-1.994-13.519-4.754-4.806-3.283-10.788-7.368-21.979-7.368-5.636 0-9.948 1.037-13.457 2.484-1.458-20.126-11.663-38.397-28.098-50.227zm27.044 68.17c.336-.227.667-.453.995-.676 4.042-2.758 6.963-4.751 13.519-4.751 6.558 0 9.478 1.994 13.519 4.754 4.806 3.282 10.788 7.368 21.979 7.368 11.197 0 17.181-4.085 21.989-7.369 4.042-2.759 6.962-4.753 13.519-4.753 6.558 0 9.478 1.994 13.519 4.754 4.806 3.282 10.788 7.368 21.979 7.368 11.193 0 17.174-4.086 21.98-7.37 4.039-2.759 6.957-4.752 13.507-4.752 6.564 0 9.486 1.995 13.53 4.756 4.806 3.281 10.788 7.366 21.977 7.366 11.191 0 17.173-4.085 21.979-7.368 2.087-1.425 3.878-2.643 6.022-3.491l.005 7.887c0 .663-.252 1.298-.707 1.786l-29.952 32.131c-.563.602-1.366.913-2.182.823l-24.363-2.548c-6.841-.728-13.522 2.629-17.015 8.554l-13.8 23.37c-2.106 3.567-.922 8.166 2.645 10.271 1.197.707 2.51 1.043 3.807 1.043 2.566 0 5.066-1.318 6.465-3.688l13.803-23.375c.516-.874 1.498-1.369 2.519-1.259l24.355 2.547c5.453.585 10.955-1.465 14.731-5.503l29.963-32.144c3.05-3.277 4.73-7.542 4.73-12.015l-.005-7.879c2.141.848 3.93 2.064 6.015 3.488 4.808 3.283 10.792 7.368 21.988 7.368 11.191 0 17.172-4.085 21.979-7.368 2.086-1.425 3.877-2.643 6.021-3.49v13.666c0 3.759-1.286 7.453-3.621 10.399l-56.634 71.469c-1.131 1.427-2.752 2.31-4.565 2.486-1.814.179-3.575-.38-4.958-1.564l-8.189-7.005c-4.578-3.917-10.631-5.757-16.62-5.046-5.983.71-11.442 3.917-14.977 8.796l-32.925 45.458c-2.027 2.799-5.796 3.58-8.769 1.816l-22.789-13.522 10.146-17.181c2.106-3.566.922-8.166-2.645-10.271-3.564-2.106-8.165-.921-10.271 2.645l-27.921 47.281c-.593 1.005-1.518 1.227-2.017 1.27-.5.043-1.449-.019-2.207-.911l-45.292-53.361c-6.162-7.282-16.86-8.349-24.373-2.416l-5.695 4.528c-1.038.821-2.525.735-3.462-.199l-44.24-44.1c20.914-8.617 36.624-27.348 41.009-50.073zm362.026 230.093h-482v-200.449c12.493 15.555 31.653 25.539 53.11 25.539 3.216 0 6.376-.24 9.475-.674.849 1.104 1.756 2.167 2.75 3.155l47.279 47.13c6.318 6.3 16.361 6.876 23.373 1.33l5.69-4.524c1.115-.879 2.698-.726 3.614.357l45.301 53.371c3.356 3.953 8.29 6.213 13.427 6.212.496 0 .994-.021 1.493-.063 5.662-.484 10.767-3.696 13.655-8.589l10.147-17.182 22.763 13.506c3.486 2.069 7.308 3.063 11.082 3.063 6.709 0 13.263-3.144 17.49-8.98l32.923-45.457c1.101-1.52 2.733-2.479 4.597-2.7 1.862-.222 3.674.328 5.101 1.549l8.189 7.005c4.511 3.858 10.249 5.671 16.155 5.096 5.907-.572 11.19-3.449 14.876-8.1l56.633-71.468c4.427-5.586 6.865-12.588 6.865-19.715v-13.667c2.147.848 3.939 2.067 6.028 3.493 4.806 3.282 10.788 7.366 21.977 7.366 11.197 0 17.181-4.085 21.989-7.369 2.087-1.425 3.875-2.646 6.019-3.493v234.258z"/><path d="m68.11 40.407c-4.142 0-7.5 3.358-7.5 7.5v171.086c-16.142 3.457-28.285 17.828-28.285 34.987 0 19.732 16.053 35.785 35.785 35.785s35.785-16.053 35.785-35.785c0-17.159-12.142-31.53-28.285-34.987v-171.086c0-4.142-3.358-7.5-7.5-7.5zm20.785 213.572c0 11.461-9.324 20.785-20.785 20.785s-20.785-9.324-20.785-20.785c0-11.46 9.324-20.784 20.785-20.784s20.785 9.324 20.785 20.784z"/><path d="m419.795 454.573c-4.339 0-6.125-1.219-9.083-3.239-3.617-2.47-8.57-5.853-17.543-5.853s-13.926 3.383-17.542 5.853c-2.958 2.02-4.743 3.239-9.082 3.239s-6.125-1.219-9.082-3.239c-3.616-2.47-8.569-5.853-17.542-5.853s-13.925 3.383-17.542 5.853c-2.958 2.02-4.743 3.239-9.082 3.239-4.142 0-7.5 3.358-7.5 7.5s3.358 7.5 7.5 7.5c8.973 0 13.925-3.383 17.542-5.853 2.958-2.02 4.743-3.239 9.082-3.239s6.124 1.219 9.082 3.239c3.616 2.47 8.569 5.853 17.542 5.853s13.925-3.383 17.542-5.853c2.958-2.02 4.743-3.239 9.082-3.239 4.34 0 6.125 1.219 9.083 3.239 3.616 2.47 8.569 5.853 17.542 5.853 4.142 0 7.5-3.358 7.5-7.5s-3.357-7.5-7.499-7.5z"/><path d="m460.201 400.024c-4.339 0-6.125-1.219-9.083-3.239-3.617-2.47-8.569-5.853-17.542-5.853s-13.926 3.383-17.542 5.853c-2.958 2.02-4.743 3.239-9.082 3.239-4.142 0-7.5 3.358-7.5 7.5s3.358 7.5 7.5 7.5c8.973 0 13.926-3.383 17.542-5.853 2.958-2.02 4.743-3.239 9.082-3.239s6.125 1.219 9.083 3.239c3.617 2.47 8.569 5.853 17.542 5.853 4.142 0 7.5-3.358 7.5-7.5s-3.358-7.5-7.5-7.5z"/><path d="m198.672 454.573c-4.339 0-6.124-1.219-9.082-3.239-3.616-2.47-8.569-5.853-17.541-5.853-8.973 0-13.926 3.383-17.542 5.853-2.958 2.02-4.743 3.239-9.082 3.239s-6.125-1.219-9.082-3.239c-3.616-2.47-8.569-5.853-17.542-5.853s-13.926 3.383-17.542 5.853c-2.958 2.02-4.743 3.239-9.083 3.239-4.142 0-7.5 3.358-7.5 7.5s3.358 7.5 7.5 7.5c8.973 0 13.926-3.383 17.542-5.853 2.958-2.02 4.743-3.239 9.083-3.239s6.125 1.219 9.082 3.239c3.616 2.47 8.569 5.853 17.542 5.853s13.925-3.383 17.542-5.853c2.958-2.02 4.743-3.239 9.082-3.239 4.338 0 6.124 1.219 9.081 3.239 3.616 2.47 8.569 5.853 17.542 5.853 4.142 0 7.5-3.358 7.5-7.5s-3.358-7.5-7.5-7.5z"/><path d="m105.02 415.024c4.142 0 7.5-3.358 7.5-7.5s-3.358-7.5-7.5-7.5c-4.339 0-6.125-1.219-9.082-3.239-3.616-2.47-8.569-5.853-17.542-5.853s-13.926 3.382-17.542 5.853c-2.958 2.02-4.744 3.239-9.083 3.239-4.142 0-7.5 3.358-7.5 7.5s3.358 7.5 7.5 7.5c8.973 0 13.926-3.383 17.543-5.853 2.958-2.02 4.743-3.239 9.083-3.239s6.125 1.219 9.082 3.239c3.615 2.471 8.568 5.853 17.541 5.853z"/></g></g></svg>