<svg id="Capa_1" enable-background="new 0 0 512 512" height="512" viewBox="0 0 512 512" width="512" xmlns="http://www.w3.org/2000/svg"><g><path d="m490.358 7.5h-41.084c-5.707 0-10.855 3.431-13.052 8.698l-35.915 86.11c-1.846 4.426-5.206 8.051-9.48 10.227l-51.355 26.146c-9.742 4.96-16.057 14.781-16.527 25.703l-2.798 65.002c-.282 6.554-3.729 12.564-9.245 16.116l-86.419 55.66c-11.549 7.438-18.527 20.234-18.527 33.97v38.565c0 5.412-2.171 10.597-6.027 14.394l-85.376 84.083h389.947v-450.532c0-7.81-6.332-14.142-14.142-14.142z" fill="#9c9c9c"/><path d="m490.358 7.5h-40.406c7.811 0 14.142 6.332 14.142 14.142v450.533h40.406v-450.533c0-7.81-6.332-14.142-14.142-14.142z" fill="#838383"/><path d="m496.419 504.5h-480.838c-4.463 0-8.081-3.618-8.081-8.081v-16.163c0-4.463 3.618-8.081 8.081-8.081h488.919v24.244c0 4.463-3.618 8.081-8.081 8.081z" fill="#e19974"/><path d="m464.094 472.175v24.244c0 4.463-3.618 8.081-8.081 8.081h40.406c4.463 0 8.081-3.618 8.081-8.081v-24.244z" fill="#dc8758"/><path d="m177.311 138.415 26.013 21.082c3.313 2.685 5.238 6.722 5.238 10.987v31.625c0 5.264-2.923 10.092-7.587 12.531l-39.011 20.406c-5.312 2.778-11.798 1.906-16.187-2.177l-24.857-23.122c-2.876-2.675-4.51-6.427-4.51-10.355v-26.864c0-4.927 2.565-9.5 6.77-12.068l37.855-23.126c5.106-3.121 11.625-2.688 16.276 1.081z" fill="#9c9c9c"/><path d="m204.166 160.262c-8.001 16.975-26.428 33.959-51.009 44.874-9.347 4.15-18.745 7.037-27.797 8.742l20.416 18.991c4.389 4.083 10.876 4.955 16.187 2.177l39.011-20.406c4.664-2.44 7.587-7.268 7.587-12.531v-31.625c.001-3.883-1.608-7.565-4.395-10.222z" fill="#838383"/><path d="m231.52 103.953 9.173 15.289c2.697 4.495 7.555 7.246 12.798 7.246h26.733c4.752 0 9.22-2.263 12.032-6.094l8.397-11.439c2.456-3.346 3.408-7.563 2.627-11.639l-.212-1.109c-.948-4.949-4.329-9.085-8.99-10.999l-25.74-10.568c-1.495-.614-2.881-1.467-4.103-2.525l-3.546-3.071c-7.699-6.668-19.668-3.836-23.562 5.575l-6.599 15.948c-1.808 4.368-1.439 9.334.992 13.386z" fill="#9c9c9c"/><path d="m303.28 97.316-.212-1.109c-.948-4.949-4.329-9.085-8.99-10.999l-24.795-10.18c.227 1.962.357 3.955.357 5.978 0 18.228-9.482 34.23-23.773 43.378 2.271 1.351 4.895 2.103 7.626 2.103h26.733c4.752 0 9.22-2.263 12.032-6.094l8.397-11.439c2.454-3.344 3.405-7.561 2.625-11.638z" fill="#838383"/><path d="m339.342 18.306 15.827 3.618c2.201.503 4.168 1.733 5.584 3.492l6.616 8.22c2.291 2.846 2.855 6.711 1.473 10.093l-5.449 13.332c-1.543 3.775-5.216 6.242-9.294 6.242h-15.127c-2.965 0-5.778-1.31-7.685-3.58l-9.587-11.405c-2.688-3.198-3.115-7.727-1.071-11.371l7.72-13.764c2.177-3.884 6.653-5.869 10.993-4.877z" fill="#838383"/><g><path d="m504.5 116.49c4.142 0 7.5-3.357 7.5-7.5v-87.35c0-11.933-9.708-21.64-21.64-21.64h-41.09c-8.757 0-16.596 5.225-19.972 13.313l-35.906 86.101c-1.166 2.786-3.287 5.075-5.963 6.442l-51.361 26.14c-12.121 6.173-20.022 18.455-20.62 32.062l-2.79 64.999c-.183 4.122-2.356 7.91-5.818 10.137l-86.42 55.66c-13.75 8.857-21.958 23.913-21.958 40.275v38.57c0 3.37-1.384 6.669-3.792 9.046l-83.191 81.924h-39.479c-4.142 0-7.5 3.357-7.5 7.5s3.358 7.5 7.5 7.5h425v16.75c0 .32-.26.58-.58.58h-480.84c-.32 0-.58-.26-.58-.58v-16.16c0-.325.26-.59.58-.59h21.42c4.142 0 7.5-3.357 7.5-7.5s-3.358-7.5-7.5-7.5h-21.42c-8.591.001-15.58 6.994-15.58 15.591v16.16c0 8.591 6.989 15.58 15.58 15.58h480.84c8.591 0 15.58-6.989 15.58-15.58v-352.43c0-4.143-3.358-7.5-7.5-7.5s-7.5 3.357-7.5 7.5v196.293l-23.704-23.704c-3.325-3.324-7.745-5.155-12.446-5.155h-54.334c-4.702 0-9.122 1.831-12.446 5.155l-26.37 26.37c-.492.492-1.145.763-1.84.763h-16.381c-4.702 0-9.123 1.831-12.446 5.154l-21.215 21.215-14.241-14.241c-4.47-4.469-10.412-6.931-16.732-6.931h-47.372c-5.784 0-11.222 2.253-15.311 6.342l-8.702 8.702v-28.823c0-11.24 5.638-21.582 15.081-27.664l118.023-76.195c1.989-1.292 4.293-1.976 6.664-1.976h45.331c7.273 0 14.11-2.832 19.252-7.974l30.059-30.06c2.929-2.93 2.929-7.678 0-10.607-2.929-2.928-7.678-2.928-10.606 0l-30.059 30.06c-2.309 2.31-5.379 3.581-8.646 3.581h-45.331c-5.278 0-10.409 1.521-14.837 4.397l-10.569 6.869 2.611-60.852c.361-8.209 5.128-15.622 12.439-19.345l102.335-50.279c3.744-1.772 5.342-6.244 3.569-9.988-1.772-3.743-6.245-5.341-9.988-3.568l-27.021 12.794 31.374-75.233c1.037-2.484 3.442-4.089 6.128-4.089h41.09c3.661 0 6.64 2.979 6.64 6.64v87.351c.001 4.141 3.359 7.498 7.501 7.498zm-271.731 249.368c1.256-1.256 2.927-1.948 4.704-1.948h47.372c2.313 0 4.489.901 6.125 2.538l14.241 14.241-38.55 38.55c-2.929 2.93-2.929 7.678 0 10.607 1.464 1.464 3.384 2.196 5.303 2.196s3.839-.732 5.303-2.196l70.372-70.372c.491-.491 1.145-.762 1.84-.762h16.381c4.702 0 9.122-1.831 12.446-5.155l26.371-26.371c.484-.484 1.154-.762 1.838-.762h54.334c.695 0 1.348.271 1.84.763l34.31 34.31v103.173h-364.144z"/><path d="m115.812 215.242 24.855 23.116c4.088 3.808 9.393 5.791 14.754 5.791 3.415 0 6.853-.805 10.015-2.454l39.006-20.408c7.166-3.743 11.617-11.091 11.617-19.177v-31.63c0-6.568-2.927-12.698-8.017-16.806l-26.018-21.097c-7.104-5.744-17.113-6.404-24.906-1.648l-3.29 2.01c-3.535 2.16-4.649 6.776-2.49 10.311 2.159 3.534 6.775 4.648 10.31 2.49l3.288-2.009c2.394-1.461 5.471-1.256 7.648.504l26.023 21.101c1.558 1.257 2.451 3.132 2.451 5.145v31.63c0 2.48-1.365 4.733-3.567 5.884l-39 20.405c-2.495 1.302-5.547.893-7.604-1.022l-24.858-23.118c-1.346-1.253-2.119-3.028-2.119-4.87v-26.86c0-2.335 1.188-4.454 3.179-5.67l4.7-2.87c3.535-2.158 4.65-6.774 2.492-10.31-2.16-3.534-6.775-4.65-10.31-2.491l-4.699 2.869c-6.392 3.902-10.362 10.98-10.362 18.472v26.859c0 5.994 2.515 11.771 6.902 15.853z"/><path d="m234.262 123.102c4.03 6.715 11.398 10.887 19.229 10.887h26.733c7.112 0 13.87-3.423 18.078-9.155l8.397-11.44c3.677-5.011 5.115-11.385 3.946-17.486l-.213-1.11c-1.43-7.463-6.479-13.641-13.507-16.524l-25.743-10.569c-.744-.306-1.43-.728-2.039-1.255l-3.546-3.071c-5.514-4.775-12.75-6.549-19.844-4.872-7.098 1.68-12.769 6.509-15.558 13.249l-6.599 15.948c-2.703 6.531-2.145 14.05 1.492 20.11zm3.196-29.666 6.599-15.947c.923-2.232 2.801-3.831 5.151-4.387.581-.138 1.164-.205 1.741-.205 1.758 0 3.455.627 4.83 1.817l3.544 3.07c1.84 1.595 3.915 2.871 6.166 3.795l25.741 10.568c2.327.955 3.999 3 4.472 5.47l.212 1.11c.387 2.021-.089 4.132-1.307 5.79l-8.396 11.439c-1.394 1.897-3.631 3.031-5.986 3.031h-26.733c-2.593 0-5.033-1.382-6.367-3.604l-9.173-15.289c-1.205-2.006-1.39-4.495-.494-6.658z"/><path d="m325.547 64.551c3.34 3.974 8.234 6.253 13.426 6.253h15.127c7.156 0 13.529-4.28 16.236-10.904l5.449-13.333c2.413-5.906 1.427-12.662-2.573-17.632l-6.617-8.222c-2.463-3.06-5.927-5.226-9.755-6.101l-15.828-3.617c-7.533-1.723-15.428 1.781-19.206 8.519l-7.719 13.764c-3.55 6.328-2.798 14.312 1.871 19.866zm1.623-23.936 7.72-13.764c.454-.81 1.318-1.297 2.222-1.297.186 0 .373.021.559.063l15.828 3.617c.554.127 1.055.44 1.412.883l6.617 8.222c.579.719.722 1.697.372 2.553l-5.449 13.333c-.392.959-1.314 1.578-2.351 1.578h-15.127c-.752 0-1.46-.33-1.944-.905l-9.588-11.407c-.676-.803-.785-1.96-.271-2.876z"/></g></g></svg>