<svg id="Capa_1" enable-background="new 0 0 512 512" height="512" viewBox="0 0 512 512" width="512" xmlns="http://www.w3.org/2000/svg"><g><path d="m324.691 167.106h96.976v32.325h-96.976z" fill="#528fd8"/><path d="m393.382 167.106h28.285v32.325h-28.285z" fill="#0573ce"/><path d="m324.691 102.455h96.976v32.325h-96.976z" fill="#fea95c"/><path d="m393.382 102.455h28.285v32.325h-28.285z" fill="#fe9738"/><path d="m324.691 134.78h96.976v32.325h-96.976z" fill="#ffe177"/><path d="m393.382 134.78h28.285v32.325h-28.285z" fill="#ffd15b"/><path d="m187.552 167.106c4.876 0 9.408 2.512 11.993 6.647l11.895 19.031c2.584 4.135 7.117 6.647 11.993 6.647h32.567l-20.203-98.996h-145.464l-20.203 66.671z" fill="#fff6ce"/><path d="m235.797 100.435h-28.285l20.203 98.996h28.285z" fill="#fff0ad"/><path d="m504.5 256c-17.753 0-17.753 12.122-35.506 12.122s-17.754-12.122-35.507-12.122c-17.751 0-17.751 12.122-35.501 12.122-17.751 0-17.751-12.122-35.503-12.122-17.75 0-17.75 12.122-35.501 12.122-17.75 0-17.75-12.122-35.5-12.122-17.748 0-17.748 12.122-35.496 12.122s-17.748-12.122-35.495-12.122c-17.75 0-17.75 12.122-35.501 12.122-17.75 0-17.75-12.122-35.5-12.122-17.749 0-17.749 12.122-35.498 12.122-17.749 0-17.749-12.122-35.497-12.122s-17.748 12.122-35.497 12.122-17.749-12.122-35.498-12.122v248.5h497z" fill="#99e6fc"/><path d="m472.175 267.98v236.52h32.325v-248.5c-16.623 0-17.683 10.627-32.325 11.98z" fill="#62dbfb"/><path d="m415.464 348.935c0-8.926-7.236-16.163-16.163-16.163h-36.224c-8.926 0-16.163-7.236-16.163-16.163 0-8.926 7.236-16.163 16.163-16.163h18.183c8.926 0 16.163-7.236 16.163-16.163v-16.163h-282.846v16.163c0 8.926 7.236 16.163 16.163 16.163h56.037c8.926 0 16.163 7.236 16.163 16.163 0 8.926-7.236 16.163-16.163 16.163h-50.313c-8.926 0-16.163 7.236-16.163 16.163 0 8.926 7.236 16.163 16.163 16.163h21.355c8.926 0 16.163 7.236 16.163 16.163 0 8.926-7.236 16.163-16.163 16.163h-81.769c-8.926 0-16.163 7.236-16.163 16.163 0 8.926 7.236 16.163 16.163 16.163h260.622c8.926 0 16.163-7.236 16.163-16.163 0-8.926-7.236-16.163-16.163-16.163h-20.203c-8.926 0-16.163-7.236-16.163-16.163 0-8.926 7.236-16.163 16.163-16.163h82.833c8.926 0 16.162-7.237 16.162-16.163z" fill="#9c9c9c"/><path d="m211.439 192.784-11.895-19.031c-2.584-4.135-7.117-6.647-11.993-6.647h-130.301c-4.602 0-8.333 3.731-8.333 8.333 0 1.166.245 2.319.718 3.384l35.956 80.9c2.27 5.107 7.335 8.399 12.923 8.399h315.175c5.485 0 10.475-3.172 12.804-8.138l22.879-48.785c.515-1.098.782-2.295.782-3.507 0-4.562-3.698-8.261-8.261-8.261h-218.461c-4.876 0-9.408-2.512-11.993-6.647z" fill="#fd8087"/><path d="m441.892 199.431h-32.325c4.562 0 8.261 3.698 8.261 8.261 0 1.212-.267 2.41-.782 3.507l-22.879 48.785c-2.329 4.966-7.319 8.138-12.804 8.138h32.325c5.485 0 10.475-3.172 12.804-8.138l22.879-48.785c.515-1.098.782-2.295.782-3.507 0-4.563-3.698-8.261-8.261-8.261z" fill="#fe646f"/><path d="m247.919 100.435h-169.708c-4.463 0-8.081-3.618-8.081-8.081v-14.143c0-4.463 3.618-8.081 8.081-8.081h169.707c4.463 0 8.081 3.618 8.081 8.081v14.142c.001 4.464-3.617 8.082-8.08 8.082z" fill="#dff6fd"/><path d="m247.919 70.13h-32.325c4.463 0 8.081 3.618 8.081 8.081v14.142c0 4.463-3.618 8.081-8.081 8.081h32.325c4.463 0 8.081-3.618 8.081-8.081v-14.142c0-4.463-3.618-8.081-8.081-8.081z" fill="#c8effe"/><g><path d="m504.5 248.5c-11.189 0-17.172 4.083-21.978 7.364-4.045 2.761-6.967 4.756-13.532 4.756-6.559 0-9.479-1.994-13.521-4.754-3.79-2.587-8.322-5.666-15.55-6.856l16.233-34.608c.979-2.076 1.498-4.397 1.498-6.713 0-4.208-1.64-8.165-4.616-11.143-2.978-2.977-6.936-4.617-11.145-4.617h-12.72v-89.47c0-4.142-3.357-7.5-7.5-7.5h-30.99c-4.143 0-7.5 3.358-7.5 7.5s3.357 7.5 7.5 7.5h23.49v17.32h-81.979v-17.32h23.489c4.143 0 7.5-3.358 7.5-7.5s-3.357-7.5-7.5-7.5h-30.989c-4.143 0-7.5 3.358-7.5 7.5v89.47h-55.066l-17.142-83.995h2.936c8.592 0 15.582-6.99 15.582-15.582v-14.141c0-8.592-6.99-15.582-15.582-15.582h-44.58v-37.527h8.663c4.142 0 7.5-3.358 7.5-7.5s-3.358-7.5-7.5-7.5h-8.663v-2.602c0-4.142-3.358-7.5-7.5-7.5s-7.5 3.358-7.5 7.5v2.602h-8.663c-4.142 0-7.5 3.358-7.5 7.5s3.358 7.5 7.5 7.5h8.663v37.528h-110.127c-8.592 0-15.582 6.99-15.582 15.582v14.142c0 8.592 6.99 15.582 15.582 15.582h2.012l-15.659 51.674h-7.314c-8.729 0-15.83 7.102-15.83 15.83 0 2.201.468 4.421 1.356 6.426l29.806 67.056c-7.534 1.124-12.183 4.294-16.062 6.944-4.041 2.76-6.961 4.754-13.521 4.754-6.559 0-9.479-1.994-13.521-4.754-4.805-3.282-10.787-7.366-21.978-7.366-4.142 0-7.5 3.358-7.5 7.5v248.5c0 4.142 3.358 7.5 7.5 7.5h349c4.143 0 7.5-3.358 7.5-7.5s-3.357-7.5-7.5-7.5h-341.5v-232.24c2.145.848 3.933 2.069 6.021 3.494 4.807 3.282 10.788 7.366 21.979 7.366 11.193 0 17.174-4.085 21.98-7.368 4.04-2.759 6.958-4.752 13.51-4.752.21 0 .407.007.611.011 3.623 7.378 11.144 12.109 19.409 12.109h8.567v8.665c0 13.047 10.615 23.663 23.663 23.663h56.037c4.776 0 8.663 3.886 8.663 8.663s-3.886 8.663-8.663 8.663h-50.313c-13.047 0-23.663 10.615-23.663 23.663s10.615 23.663 23.663 23.663h21.355c4.776 0 8.663 3.886 8.663 8.663s-3.886 8.663-8.663 8.663h-81.769c-13.047 0-23.663 10.615-23.663 23.663s10.615 23.663 23.663 23.663h260.622c13.047 0 23.662-10.615 23.662-23.663 0-13.047-10.615-23.663-23.662-23.663h-20.203c-4.776 0-8.663-3.886-8.663-8.663s3.887-8.663 8.663-8.663h82.833c13.047 0 23.662-10.615 23.662-23.663s-10.615-23.663-23.662-23.663h-36.225c-4.776 0-8.662-3.886-8.662-8.663s3.886-8.663 8.662-8.663h18.183c13.048 0 23.663-10.615 23.663-23.663v-8.665h8.768c8.222 0 15.792-4.743 19.41-12.106.133-.002.255-.014.39-.014 6.559 0 9.479 1.994 13.521 4.754 4.807 3.282 10.788 7.366 21.979 7.366 11.197 0 17.181-4.085 21.989-7.367 2.087-1.425 3.876-2.646 6.021-3.493v232.24h-105.501c-4.143 0-7.5 3.358-7.5 7.5s3.357 7.5 7.5 7.5h113c4.143 0 7.5-3.358 7.5-7.5v-248.5c0-4.142-3.357-7.5-7.5-7.5zm-90.33-106.22v17.325h-81.98v-17.325zm-81.98 32.325h81.979v17.325h-81.979zm-254.56-82.251v-14.143c0-.321.261-.582.582-.582h169.707c.321 0 .582.261.582.582v14.142c0 .321-.261.582-.582.582h-169.708c-.32 0-.581-.261-.581-.581zm18.268 15.581h133.775l3.536 17.325h-17.756c-4.142 0-7.5 3.358-7.5 7.5s3.358 7.5 7.5 7.5h20.818l10.545 51.67h-23.386c-2.271 0-4.427-1.194-5.631-3.127l-11.898-19.027c-3.977-6.366-10.837-10.167-18.351-10.167h-107.312zm317.792 152.685h-229.337c-4.142 0-7.5 3.358-7.5 7.5s3.358 7.5 7.5 7.5h205.57v8.665c0 4.776-3.887 8.663-8.663 8.663h-18.183c-13.047 0-23.662 10.615-23.662 23.663 0 13.047 10.615 23.663 23.662 23.663h36.225c4.776 0 8.662 3.886 8.662 8.663s-3.886 8.663-8.662 8.663h-82.833c-13.048 0-23.663 10.615-23.663 23.663s10.615 23.663 23.663 23.663h20.203c4.776 0 8.662 3.886 8.662 8.663s-3.886 8.663-8.662 8.663h-260.622c-4.776 0-8.663-3.886-8.663-8.663s3.886-8.663 8.663-8.663h81.77c13.047 0 23.663-10.615 23.663-23.663 0-13.047-10.615-23.663-23.663-23.663h-21.355c-4.776 0-8.663-3.886-8.663-8.663s3.886-8.663 8.663-8.663h50.313c13.048 0 23.663-10.615 23.663-23.663s-10.615-23.663-23.663-23.663h-56.038c-4.776 0-8.663-3.886-8.663-8.663v-8.665h27.275c4.142 0 7.5-3.358 7.5-7.5s-3.358-7.5-7.5-7.5h-50.842c-2.62 0-5.001-1.548-6.066-3.946l-35.957-80.893c-.042-.096-.067-.22-.067-.341 0-.458.373-.83.83-.83h130.3c2.307 0 4.411 1.164 5.631 3.117l11.894 19.02c3.974 6.376 10.836 10.184 18.355 10.184h218.46c.26 0 .436.122.537.222.102.103.224.279.224.538 0 .115-.021.222-.07.325l-22.881 48.781c-1.09 2.322-3.448 3.823-6.01 3.823z"/><path d="m190.627 132.76c0-4.142-3.358-7.5-7.5-7.5h-32.325c-4.142 0-7.5 3.358-7.5 7.5s3.358 7.5 7.5 7.5h32.325c4.142 0 7.5-3.358 7.5-7.5z"/><path d="m355.501 225.19c-4.184 0-7.576 3.392-7.576 7.576s3.392 7.576 7.576 7.576 7.576-3.392 7.576-7.576-3.392-7.576-7.576-7.576z"/><path d="m385.806 225.19c-4.184 0-7.576 3.392-7.576 7.576s3.392 7.576 7.576 7.576 7.576-3.392 7.576-7.576-3.392-7.576-7.576-7.576z"/><path d="m166.853 217.185c-4.142 0-7.5 3.358-7.5 7.5 0 3.105-2.526 5.632-5.632 5.632s-5.632-2.526-5.632-5.632v-17.173c0-4.142-3.358-7.5-7.5-7.5s-7.5 3.358-7.5 7.5v17.173c0 3.105-2.527 5.632-5.632 5.632s-5.632-2.526-5.632-5.632c0-4.142-3.358-7.5-7.5-7.5s-7.5 3.358-7.5 7.5c0 11.376 9.255 20.632 20.632 20.632 4.985 0 9.562-1.778 13.132-4.732 3.57 2.954 8.147 4.732 13.132 4.732 11.376 0 20.632-9.255 20.632-20.632 0-4.142-3.358-7.5-7.5-7.5z"/><path d="m394.322 456.088c-8.973 0-13.926 3.383-17.542 5.853-2.957 2.02-4.742 3.239-9.08 3.239-4.143 0-7.5 3.358-7.5 7.5s3.357 7.5 7.5 7.5c8.972 0 13.925-3.383 17.541-5.853 2.957-2.02 4.742-3.239 9.081-3.239 4.34 0 6.125 1.219 9.083 3.239 3.616 2.47 8.568 5.853 17.541 5.853s13.925-3.382 17.541-5.853c2.958-2.02 4.743-3.239 9.083-3.239s6.125 1.219 9.083 3.239c3.616 2.47 8.569 5.853 17.542 5.853 4.143 0 7.5-3.358 7.5-7.5s-3.357-7.5-7.5-7.5c-4.34 0-6.125-1.219-9.083-3.239-3.616-2.47-8.569-5.853-17.542-5.853s-13.926 3.383-17.543 5.853c-2.957 2.02-4.742 3.239-9.081 3.239s-6.124-1.219-9.081-3.239c-3.617-2.47-8.569-5.853-17.543-5.853z"/><path d="m438.487 428.365c2.958-2.02 4.743-3.239 9.083-3.239s6.125 1.219 9.083 3.239c3.616 2.47 8.569 5.853 17.542 5.853 4.143 0 7.5-3.358 7.5-7.5s-3.357-7.5-7.5-7.5c-4.34 0-6.125-1.219-9.083-3.239-3.616-2.47-8.569-5.853-17.542-5.853-8.974 0-13.926 3.383-17.542 5.853-2.958 2.02-4.743 3.239-9.082 3.239-4.143 0-7.5 3.358-7.5 7.5s3.357 7.5 7.5 7.5c8.973 0 13.925-3.383 17.541-5.853z"/><path d="m70.129 323.737c3.418 0 4.695.872 7.24 2.61 3.227 2.204 7.647 5.223 15.698 5.223 4.142 0 7.5-3.358 7.5-7.5s-3.358-7.5-7.5-7.5c-3.417 0-4.695-.872-7.239-2.61-3.228-2.204-7.648-5.223-15.699-5.223s-12.471 3.019-15.698 5.223c-2.544 1.738-3.821 2.61-7.239 2.61-4.142 0-7.5 3.358-7.5 7.5s3.358 7.5 7.5 7.5c8.051 0 12.471-3.019 15.699-5.223 2.544-1.738 3.821-2.61 7.238-2.61z"/><path d="m203.237 397.39c0 4.142 3.358 7.5 7.5 7.5h23.441c4.142 0 7.5-3.358 7.5-7.5s-3.358-7.5-7.5-7.5h-23.441c-4.142 0-7.5 3.358-7.5 7.5z"/><path d="m258.24 307.947h23.44c4.143 0 7.5-3.358 7.5-7.5s-3.357-7.5-7.5-7.5h-23.44c-4.142 0-7.5 3.358-7.5 7.5s3.358 7.5 7.5 7.5z"/><path d="m258.602 344.134c0 4.142 3.357 7.5 7.5 7.5h23.44c4.143 0 7.5-3.358 7.5-7.5s-3.357-7.5-7.5-7.5h-23.44c-4.143 0-7.5 3.358-7.5 7.5z"/><path d="m232.56 351.634h3.237c4.142 0 7.5-3.358 7.5-7.5s-3.358-7.5-7.5-7.5h-3.237c-4.142 0-7.5 3.358-7.5 7.5s3.357 7.5 7.5 7.5z"/><path d="m312.854 307.947h3.237c4.143 0 7.5-3.358 7.5-7.5s-3.357-7.5-7.5-7.5h-3.237c-4.143 0-7.5 3.358-7.5 7.5s3.358 7.5 7.5 7.5z"/></g></g></svg>