<svg id="Capa_1" enable-background="new 0 0 512 512" height="512" viewBox="0 0 512 512" width="512" xmlns="http://www.w3.org/2000/svg"><g><g><path d="m432.647 150.627 10.122-20.153c2.131-4.244 2.289-9.21.43-13.58l-9.782-23.001c-.697-1.639-.638-3.501.161-5.092l4.449-8.857-40.786-20.485-4.459 8.878c-.793 1.579-2.237 2.734-3.952 3.161l-24.086 5.997c-4.574 1.139-8.422 4.217-10.538 8.429l-10.15 20.208z" fill="#dff6fd"/><path d="m315.513 162.962-23.608 47.004c-4.006 7.977-.788 17.691 7.189 21.697l59.703 29.987c7.977 4.006 17.691.788 21.697-7.189l23.608-47.004z" fill="#dff6fd"/><path d="m299.094 231.663 59.703 29.987c7.977 4.007 17.691.788 21.697-7.189l23.608-47.004-52.846-26.543c-9.699 2.01-16.002 6.307-20.196 9.171-.972.664-2.303 1.573-2.676 1.735-.003.001-.393.103-1.401.103-.925 0-1.33-.086-1.35-.086 0 0-.001 0 0 .001-.433-.186-1.759-1.091-2.728-1.753-3.685-2.517-9.012-6.133-16.826-8.339l-14.173 28.219c-4.007 7.977-.789 17.692 7.188 21.698z" fill="#c8effe"/><path d="m342.282 107.226h63.596v99.136h-63.596z" fill="#bbec6c" transform="matrix(.449 -.894 .894 .449 66.067 420.704)"/><path d="m443.199 116.894-9.782-23.001c-.697-1.639-.638-3.501.161-5.092l4.449-8.857-23.47-11.788-4.449 8.857c-.799 1.591-.858 3.454-.161 5.092l9.782 23.001c1.858 4.37 1.701 9.336-.43 13.58l-10.122 20.153 23.47 11.788 10.122-20.153c2.131-4.244 2.288-9.21.43-13.58z" fill="#c8effe"/><path d="m380.633 195.669-23.608 47.004c-4.007 7.977-13.721 11.195-21.697 7.189l23.47 11.788c7.977 4.006 17.691.788 21.697-7.189l23.608-47.004z" fill="#c8effe"/><path d="m432.647 150.627-23.47-11.788-17.279 34.401c-3.158 6.288-10.216 9.5-17.072 7.914-3.602-.833-7.691-1.353-12.342-1.353-4.179 0-7.9.424-11.227 1.113l52.846 26.543z" fill="#a2e62e"/><path d="m439.45 80.658-43.329-21.763c-3.988-2.003-5.598-6.86-3.594-10.849l7.254-14.443c2.003-3.988 6.86-5.598 10.849-3.594l43.33 21.763c3.988 2.003 5.598 6.86 3.594 10.849l-7.254 14.443c-2.004 3.988-6.861 5.597-10.85 3.594z" fill="#bbec6c"/></g><g><path d="m165.505 120.198h44.447v96.976h-44.447z" fill="#fd8087" transform="matrix(.707 -.707 .707 .707 -64.294 182.151)"/><path d="m206.301 218.686 31.429-31.429-6.426-6.426c-3.221-.639-6.806-1.029-10.813-1.029-16.364 0-25.791 6.438-31.423 10.284-.972.664-2.303 1.573-2.676 1.735-.004.001-.393.103-1.401.103-.925 0-1.329-.086-1.35-.086-.001 0-.001 0-.001.001-.433-.186-1.758-1.091-2.727-1.753-2.133-1.457-4.814-3.285-8.207-4.994z" fill="#fe646f"/><path d="m111.219 174.484h44.447v96.976h-44.447z" fill="#fe646f" transform="matrix(.707 -.707 .707 .707 -118.58 159.665)"/><path d="m112.086 179.695h96.976v32.292h-96.976z" fill="#dff6fd" transform="matrix(.707 .707 -.707 .707 185.511 -56.183)"/><path d="m183.443 241.543 22.834-22.833-33.663-33.663c-5.556-2.786-13.012-5.245-23.124-5.245-9.88 0-17.218 2.35-22.732 5.057z" fill="#c8effe"/><g fill="#bfbfbf"><path d="m237.73 187.257-68.572-68.572 23.422-12.268c3.914-2.05 8.706-1.319 11.83 1.805l43.783 43.783c3.124 3.124 3.856 7.916 1.805 11.83z"/><path d="m83.442 204.4 68.572 68.572-23.422 12.268c-3.914 2.05-8.706 1.319-11.83-1.805l-43.783-43.783c-3.124-3.124-3.856-7.916-1.805-11.83z"/></g></g><path d="m504.5 204.045c-17.753 0-17.753 12.122-35.506 12.122s-17.753-12.122-35.506-12.122c-17.751 0-17.751 12.122-35.501 12.122-17.751 0-17.751-12.122-35.503-12.122-17.75 0-17.75 12.122-35.501 12.122-17.75 0-17.75-12.122-35.5-12.122-17.748 0-17.748 12.122-35.496 12.122s-17.748-12.122-35.495-12.122c-17.75 0-17.75 12.122-35.501 12.122-17.75 0-17.75-12.122-35.5-12.122-17.749 0-17.749 12.122-35.498 12.122s-17.749-12.122-35.497-12.122-17.748 12.122-35.497 12.122-17.749-12.122-35.498-12.122v278.805h497v-278.805z" fill="#99e6fc"/><path d="m472.175 216.025v266.825h32.325v-278.805c-16.623 0-17.683 10.627-32.325 11.98z" fill="#62dbfb"/><g><path d="m239.499 358.384-6.23-17.84c-1.663-4.762-6.872-7.275-11.634-5.612l-30.18 10.54c-2.381.832-4.986-.425-5.817-2.806l-9.034-25.869c-.832-2.381.425-4.986 2.806-5.817l30.18-10.54c4.762-1.663 7.275-6.872 5.612-11.634l-6.23-17.84c-1.58-4.524-6.387-7.058-11.012-5.804l-122.788 33.28c-12.79 3.467-19.953 17.057-15.584 29.567l27.494 78.728c4.369 12.511 18.435 18.687 30.602 13.438l116.811-50.394c4.399-1.897 6.584-6.873 5.004-11.397z" fill="#dff6fd"/><path d="m239.499 358.385-6.23-17.84c-1.663-4.762-6.872-7.275-11.634-5.612l-30.18 10.54c-2.381.832-4.985-.424-5.817-2.806l-9.034-25.869c-.832-2.381.425-4.985 2.806-5.817l30.18-10.54c4.762-1.663 7.275-6.872 5.612-11.634l-6.23-17.84c-1.58-4.524-6.387-7.058-11.012-5.804l-36.969 10.02c4.833 31.994-4.903 71.574-29.221 107.1-9.942 14.523-21.399 27.015-33.626 37.199 5.851 3.026 12.971 3.527 19.541.693l116.811-50.394c4.398-1.897 6.583-6.873 5.003-11.396z" fill="#c8effe"/></g><g><path d="m504.5 196.548c-11.189 0-17.171 4.083-21.978 7.364-4.045 2.76-6.967 4.755-13.532 4.755-6.559 0-9.479-1.994-13.521-4.754-4.807-3.281-10.788-7.365-21.979-7.365-8.259 0-13.677 2.225-17.883 4.71l33.863-67.416c3.131-6.232 3.361-13.479.634-19.88l-9.528-22.392 1.316-2.613c.39.03.779.068 1.171.068 1.648 0 3.305-.265 4.915-.799 3.951-1.309 7.155-4.078 9.023-7.797l7.255-14.443c1.868-3.72 2.176-7.943.866-11.894-1.309-3.951-4.078-7.156-7.797-9.023l-43.329-21.763c-7.675-3.854-17.061-.747-20.918 6.93l-7.254 14.443c-1.868 3.72-2.176 7.943-.866 11.894.621 1.876 1.581 3.576 2.806 5.052l-1.379 2.751-23.477 5.837c-6.699 1.687-12.314 6.189-15.401 12.347l-16.72 33.279c-1.859 3.701-.366 8.209 3.335 10.069 1.081.542 2.229.8 3.361.8 2.746 0 5.391-1.515 6.708-4.135l3.202-6.374 75.183 37.762-21.813 43.426-75.186-37.763 2.904-5.781c1.859-3.701.365-8.209-3.336-10.068-3.7-1.858-8.209-.365-10.068 3.336l-24.844 49.465c-10.388.293-16.112 4.182-20.735 7.339-4.039 2.759-6.958 4.752-13.51 4.752-6.559 0-9.479-1.994-13.521-4.754-1.953-1.333-4.109-2.796-6.721-4.067l7.285-7.285-.01-.01c.53-.53.993-1.134 1.349-1.815l12.269-23.422c3.592-6.857 2.327-15.142-3.146-20.614l-43.783-43.783c-5.473-5.472-13.756-6.737-20.613-3.146l-23.422 12.269c-.681.356-1.284.818-1.814 1.349l-.009-.009-83.221 83.221c-.693-.034-1.405-.054-2.143-.054-11.186 0-17.165 4.084-21.97 7.365-4.041 2.76-6.961 4.754-13.521 4.754-6.559 0-9.479-1.994-13.521-4.754-4.806-3.281-10.788-7.365-21.979-7.365-4.142 0-7.5 3.357-7.5 7.5v41.819c0 4.143 3.358 7.5 7.5 7.5s7.5-3.357 7.5-7.5v-33.06c2.145.848 3.934 2.068 6.021 3.494 4.806 3.281 10.788 7.365 21.979 7.365 11.193 0 17.174-4.085 21.98-7.367 4.039-2.759 6.958-4.752 13.51-4.752 6.559 0 9.479 1.994 13.521 4.754 4.806 3.281 10.788 7.365 21.979 7.365s17.173-4.084 21.979-7.365c4.042-2.76 6.962-4.754 13.521-4.754s9.479 1.994 13.521 4.754c4.806 3.281 10.788 7.365 21.979 7.365s17.173-4.084 21.979-7.365c4.042-2.76 6.962-4.754 13.521-4.754s9.479 1.994 13.521 4.754c4.806 3.281 10.788 7.365 21.979 7.365 11.186 0 17.165-4.084 21.97-7.365 4.041-2.76 6.961-4.754 13.521-4.754 6.559 0 9.479 1.994 13.521 4.754 4.807 3.281 10.788 7.365 21.979 7.365s17.173-4.084 21.979-7.365c4.041-2.76 6.962-4.754 13.521-4.754s9.479 1.993 13.521 4.753c4.808 3.282 10.792 7.366 21.988 7.366 11.191 0 17.173-4.084 21.979-7.365 4.041-2.76 6.962-4.754 13.521-4.754s9.479 1.994 13.521 4.754c4.807 3.281 10.788 7.365 21.979 7.365 11.196 0 17.181-4.084 21.988-7.366 2.088-1.425 3.876-2.646 6.021-3.493v193.49c0 4.143 3.357 7.5 7.5 7.5s7.5-3.357 7.5-7.5v-202.25c.004-4.14-3.353-7.498-7.496-7.498zm-308.441-83.488c1.013-.53 2.239-.345 3.047.466l43.784 43.783c.809.809.996 2.033.465 3.046l-7.535 14.386-54.146-54.146zm-82.069 95.607c-6.559 0-9.479-1.994-13.521-4.754-1.114-.76-2.295-1.563-3.585-2.349l17.988-17.988 17.335 17.334c-1.737.987-3.271 2.029-4.696 3.002-4.042 2.761-6.962 4.755-13.521 4.755zm57.479-4.753c-4.806-3.281-10.788-7.365-21.979-7.365-.145 0-.28.008-.423.01l-23.588-23.588 12.248-12.248 47.933 47.933c-.222.005-.439.013-.67.013-6.558-.002-9.479-1.996-13.521-4.755zm29.21-1.455-52.345-52.344 20.823-20.823 57.966 57.966-9.387 9.387c-7.953.512-13.03 3.188-17.057 5.814zm198.55-151.046 7.253-14.442c.103-.203.309-.32.521-.32.088 0 .177.02.261.062l43.329 21.763c.287.144.402.494.259.78l-7.255 14.443c-.026.054-.108.215-.336.291-.229.074-.391-.006-.443-.032 0-.001-.001-.001-.001-.001l-43.329-21.763c-.288-.145-.403-.495-.259-.781zm-45.1 51.384 6.786-13.508c1.132-2.258 3.193-3.909 5.635-4.523l24.108-5.995c3.827-.961 7.043-3.53 8.837-7.073l1.087-2.169 27.375 13.749-1.09 2.165c-1.781 3.563-1.911 7.711-.354 11.391l9.79 23.006c.996 2.337.909 4.986-.237 7.27l-6.756 13.449zm-13.628 101.117c-4.041 2.76-6.962 4.754-13.521 4.754s-9.479-1.994-13.521-4.754c-2.222-1.517-4.703-3.201-7.825-4.578l13.212-26.306 47.121 23.667c-1.107-.092-2.261-.149-3.488-.149-11.19 0-17.171 4.084-21.978 7.366z"/><path d="m504.5 433.798c-4.143 0-7.5 3.357-7.5 7.5v34.05h-482v-194.48c0-4.143-3.358-7.5-7.5-7.5s-7.5 3.357-7.5 7.5v201.98c0 4.143 3.358 7.5 7.5 7.5h497c4.143 0 7.5-3.357 7.5-7.5v-41.55c0-4.142-3.357-7.5-7.5-7.5z"/><path d="m222.282 286.335-6.23-17.841c-2.864-8.199-11.676-12.838-20.055-10.569l-122.788 33.279c-8.099 2.195-14.987 7.712-18.9 15.135-3.912 7.423-4.569 16.224-1.803 24.145l27.494 78.727c2.767 7.922 8.759 14.399 16.442 17.772 3.872 1.701 8.034 2.551 12.197 2.551 4.096 0 8.194-.823 12.015-2.472l116.81-50.395c7.974-3.438 11.979-12.557 9.116-20.756 0-.001 0-.001 0-.001l-6.23-17.84c-3.024-8.659-12.531-13.243-21.187-10.22l-27.411 9.573-7.1-20.331 27.411-9.571c8.658-3.022 13.243-12.527 10.219-21.186zm-15.165 7.026-30.181 10.54c-6.281 2.194-9.607 9.09-7.413 15.37l9.034 25.867c2.193 6.282 9.088 9.606 15.371 7.416l30.181-10.54c.853-.299 1.784.153 2.081 1.003l6.23 17.84c.281.806-.112 1.7-.895 2.038l-116.812 50.395c-3.952 1.705-8.298 1.691-12.239-.04-3.941-1.73-6.893-4.921-8.312-8.983l-27.494-78.729c-1.419-4.063-1.095-8.397.912-12.205s5.399-6.524 9.554-7.65l122.788-33.28c.141-.038.283-.056.424-.056.679 0 1.312.427 1.545 1.094l6.23 17.84c.296.849-.154 1.783-1.004 2.08z"/><path d="m368.397 279.166c2.958-2.02 4.743-3.239 9.083-3.239 4.339 0 6.124 1.219 9.082 3.239 3.616 2.47 8.569 5.853 17.542 5.853s13.925-3.383 17.542-5.853c2.957-2.02 4.742-3.239 9.081-3.239s6.124 1.22 9.081 3.239c3.617 2.47 8.569 5.853 17.542 5.853 4.143 0 7.5-3.357 7.5-7.5s-3.357-7.5-7.5-7.5c-4.339 0-6.124-1.22-9.081-3.239-3.617-2.47-8.569-5.853-17.542-5.853s-13.925 3.383-17.542 5.853c-2.957 2.02-4.742 3.239-9.081 3.239-4.34 0-6.125-1.22-9.083-3.239-3.616-2.47-8.568-5.853-17.541-5.853s-13.926 3.383-17.542 5.853c-2.958 2.02-4.743 3.239-9.083 3.239-4.143 0-7.5 3.357-7.5 7.5s3.357 7.5 7.5 7.5c8.973-.001 13.926-3.384 17.542-5.853z"/><path d="m319.351 339.483c-4.339 0-6.124-1.219-9.082-3.239-3.616-2.47-8.569-5.852-17.542-5.852s-13.926 3.382-17.542 5.852c-2.958 2.021-4.743 3.239-9.083 3.239-4.143 0-7.5 3.357-7.5 7.5s3.357 7.5 7.5 7.5c8.973 0 13.926-3.382 17.542-5.852 2.958-2.021 4.743-3.239 9.083-3.239s6.125 1.219 9.083 3.239c3.616 2.47 8.568 5.852 17.541 5.852s13.925-3.382 17.541-5.852c2.958-2.021 4.743-3.239 9.082-3.239s6.124 1.219 9.082 3.239c3.616 2.47 8.568 5.852 17.541 5.852 4.143 0 7.5-3.357 7.5-7.5s-3.357-7.5-7.5-7.5c-4.339 0-6.124-1.219-9.082-3.239-3.616-2.47-8.568-5.852-17.541-5.852s-13.925 3.382-17.541 5.852c-2.958 2.02-4.744 3.239-9.082 3.239z"/></g></g></svg>