<svg id="Capa_1" enable-background="new 0 0 512 512" height="512" viewBox="0 0 512 512" width="512" xmlns="http://www.w3.org/2000/svg"><g><ellipse cx="255.985" cy="256" fill="#528fd8" rx="248.486" ry="248.5"/><path d="m392.69 48.474c25.888 39.221 40.972 86.201 40.972 136.713 0 137.243-111.251 248.5-248.486 248.5-50.508 0-97.486-15.085-136.705-40.975 44.453 67.345 120.788 111.788 207.514 111.788 137.235 0 248.486-111.257 248.486-248.5 0-86.732-44.441-163.071-111.781-207.526z" fill="#0573ce"/><path d="m255.985 472.175c-57.739 0-112.022-22.486-152.85-63.316-40.827-40.831-63.312-95.116-63.312-152.859s22.485-112.028 63.312-152.859c40.828-40.83 95.112-63.316 152.85-63.316s112.022 22.486 152.85 63.316c40.827 40.83 63.312 95.116 63.312 152.859s-22.485 112.028-63.312 152.859c-40.828 40.83-95.111 63.316-152.85 63.316z" fill="#ffe177"/><path d="m425.505 121.843c5.319 20.222 8.157 41.45 8.157 63.344 0 137.243-111.251 248.5-248.486 248.5-21.892 0-43.119-2.838-63.34-8.158 38.044 30.228 84.832 46.645 134.149 46.645 57.739 0 112.022-22.486 152.85-63.316 40.827-40.83 63.312-95.116 63.312-152.859.001-49.319-16.416-96.11-46.642-134.156z" fill="#ffd15b"/><path d="m255.985 72.15c-41.434 0-80.777 13.616-112.917 38.732-9.592 7.496-10.529 21.664-1.922 30.272l56.584 56.588c6.587 6.588 16.818 7.807 24.779 2.968 9.77-5.938 21.231-9.361 33.476-9.361s23.706 3.422 33.476 9.361c7.961 4.838 18.192 3.619 24.779-2.968l56.584-56.588c8.608-8.608 7.67-22.777-1.922-30.272-32.141-25.116-71.483-38.732-112.917-38.732z" fill="#528fd8"/><circle cx="255.985" cy="256" fill="#528fd8" r="32.324"/><path d="m266.294 225.364c1.09 3.239 1.689 6.703 1.689 10.309 0 17.853-14.472 32.325-32.323 32.325-3.606 0-7.07-.599-10.308-1.689 4.304 12.796 16.389 22.016 30.635 22.016 17.852 0 32.323-14.473 32.323-32.325-.001-14.247-9.221-26.332-22.016-30.636z" fill="#0573ce"/><path d="m96.776 347.925c20.717 35.885 52.18 63.151 89.999 78.429 11.287 4.56 24.025-1.713 27.176-13.472l20.711-77.3c2.411-8.999-1.649-18.469-9.819-22.944-10.028-5.493-18.721-13.707-24.844-24.312s-8.889-22.242-8.632-33.673c.21-9.314-5.962-17.565-14.96-19.976l-77.296-20.712c-11.759-3.151-23.559 4.745-25.254 16.801-5.678 40.393 2.202 81.274 22.919 117.159z" fill="#528fd8"/><path d="m415.194 347.925c20.717-35.885 28.598-76.767 22.918-117.161-1.695-12.055-13.496-19.951-25.254-16.8l-77.296 20.713c-8.998 2.411-15.169 10.662-14.96 19.976.257 11.431-2.509 23.068-8.632 33.673s-14.816 18.82-24.844 24.312c-8.17 4.475-12.23 13.946-9.819 22.944l20.712 77.3c3.151 11.759 15.889 18.032 27.176 13.472 37.821-15.279 69.283-42.544 89.999-78.429z" fill="#0573ce"/><path d="m363.272 314.168-104.057 159.068c-8.79 13.437.85 31.264 16.906 31.264h208.114c16.056 0 25.696-17.827 16.906-31.264l-104.057-159.068c-7.975-12.19-25.837-12.19-33.812 0z" fill="#fd8087"/><path d="m501.141 473.236-66.204-101.204c-8.887 42.432-32.232 86.084-68.879 122.733-3.36 3.36-6.784 6.598-10.256 9.734h128.433c16.056.001 25.696-17.826 16.906-31.263z" fill="#fe646f"/><g><path d="m319.543 203.045 56.585-56.588c5.599-5.6 8.534-13.345 8.05-21.25-.485-7.947-4.371-15.323-10.658-20.236-33.758-26.378-74.4-40.321-117.535-40.321-43.136 0-83.779 13.943-117.535 40.322-6.288 4.914-10.172 12.29-10.658 20.237-.483 7.904 2.451 15.649 8.05 21.249l56.585 56.587c9.053 9.057 23.027 10.731 33.978 4.075 8.901-5.41 19.13-8.27 29.58-8.27s20.679 2.859 29.58 8.27c4.48 2.723 9.464 4.051 14.411 4.051 7.148-.001 14.217-2.775 19.567-8.126zm-63.558-19.195c-13.198 0-26.122 3.614-37.371 10.451-5.026 3.054-11.432 2.287-15.58-1.862l-56.585-56.587c-2.601-2.601-3.911-6.056-3.686-9.727.224-3.661 2.018-7.063 4.923-9.333 31.093-24.298 68.543-37.141 108.299-37.141s77.206 12.843 108.299 37.141c2.904 2.27 4.699 5.671 4.923 9.332.225 3.671-1.085 7.126-3.686 9.728l-56.585 56.588c-4.15 4.149-10.556 4.915-15.58 1.862-11.249-6.839-24.172-10.452-37.371-10.452z"/><path d="m178.349 227.432-77.296-20.712c-7.649-2.048-15.823-.719-22.426 3.652-6.639 4.395-11.084 11.447-12.196 19.35-5.965 42.425 2.283 84.596 23.85 121.954 21.568 37.358 53.964 65.587 93.686 81.633 3.357 1.356 6.905 2.03 10.446 2.03 4.262 0 8.515-.977 12.407-2.917 7.087-3.534 12.326-9.948 14.376-17.598l20.711-77.3c3.314-12.369-2.221-25.307-13.46-31.463-9.135-5.004-16.726-12.433-21.952-21.484-5.225-9.053-7.863-19.341-7.628-29.755.286-12.814-8.15-24.076-20.518-27.39zm42.892 91.784c5.156 2.824 7.696 8.756 6.177 14.425l-20.711 77.3c-.952 3.553-3.29 6.415-6.582 8.056-3.282 1.636-7.124 1.784-10.541.403-36.589-14.781-66.436-40.793-86.314-75.225-19.875-34.43-27.48-73.289-21.987-112.366.514-3.65 2.562-6.905 5.621-8.929 3.068-2.03 6.714-2.624 10.266-1.671l77.296 20.712c5.669 1.519 9.536 6.685 9.404 12.562-.297 13.16 3.035 26.159 9.634 37.592 6.601 11.432 16.191 20.817 27.737 27.141z"/><path d="m295.808 256c0-21.959-17.864-39.825-39.823-39.825s-39.823 17.866-39.823 39.825 17.864 39.825 39.823 39.825 39.823-17.866 39.823-39.825zm-64.647 0c0-13.688 11.136-24.825 24.824-24.825s24.824 11.137 24.824 24.825-11.136 24.825-24.824 24.825-24.824-11.137-24.824-24.825z"/><path d="m507.417 469.135-11.589-17.72c-2.266-3.467-6.914-4.438-10.381-2.171-3.467 2.268-4.438 6.916-2.171 10.382l11.59 17.722c2.595 3.964 2.798 8.819.543 12.989-2.256 4.172-6.434 6.664-11.177 6.664h-208.108c-4.743 0-8.921-2.491-11.176-6.663-2.255-4.17-2.052-9.025.544-12.991l104.053-159.069c2.391-3.654 6.267-5.75 10.633-5.75 4.367 0 8.243 2.096 10.634 5.748l73.305 112.07c2.267 3.467 6.917 4.439 10.381 2.171 3.467-2.268 4.438-6.916 2.171-10.382l-11.829-18.085c30.852-43.417 47.131-94.49 47.131-148.05 0-68.379-26.627-132.666-74.977-181.019s-112.634-74.981-181.009-74.981-132.658 26.629-181.008 74.981-74.977 112.64-74.977 181.019c0 61.679 22.247 121.268 62.643 167.788 1.483 1.708 3.569 2.583 5.666 2.583 1.743 0 3.495-.604 4.915-1.837 3.127-2.716 3.461-7.453.745-10.58-38.028-43.793-58.97-99.889-58.97-157.954 0-64.372 25.067-124.892 70.584-170.412s106.034-70.588 170.402-70.588 124.885 25.069 170.402 70.588 70.584 106.04 70.584 170.412c0 48.434-14.145 94.701-40.998 134.495l-10.334-15.798c22.258-35.417 34.003-76.344 34.003-118.697 0-53.195-18.919-104.665-53.271-144.928-2.687-3.15-7.42-3.526-10.573-.837-3.151 2.689-3.525 7.423-.837 10.574 32.037 37.551 49.682 85.562 49.682 135.192 0 37.171-9.686 73.156-28.106 104.781l-10.795-16.504c18.513-35.48 25.363-74.986 19.802-114.556-1.112-7.902-5.557-14.954-12.197-19.347-6.605-4.371-14.78-5.702-22.433-3.651l-77.295 20.709c-12.37 3.318-20.805 14.583-20.514 27.397.239 10.404-2.397 20.691-7.622 29.743-5.235 9.057-12.828 16.488-21.957 21.489-11.242 6.156-16.778 19.094-13.461 31.46l20.039 74.8-34.242 52.347c-55.694-.032-108.046-21.731-147.424-61.112-39.408-39.41-61.111-91.813-61.111-147.557s21.703-108.147 61.11-147.557 91.807-61.113 147.548-61.113c49.575 0 97.547 17.614 135.078 49.599 3.153 2.687 7.887 2.307 10.572-.844 2.687-3.153 2.309-7.887-.844-10.573-40.241-34.295-91.668-53.182-144.806-53.182-59.748 0-115.914 23.264-158.155 65.507-42.239 42.242-65.502 98.413-65.502 158.163s23.263 115.921 65.502 158.163c40.537 40.539 93.901 63.585 150.944 65.38-1.036 5.82-.132 11.873 2.718 17.407-56.492-1.052-110.862-21.907-153.549-59.01-3.126-2.717-7.862-2.387-10.58.741-2.717 3.126-2.385 7.863.741 10.581 46.547 40.457 106.168 62.738 167.881 62.738h228.247c10.342 0 19.453-5.432 24.372-14.53 4.916-9.095 4.473-19.688-1.187-28.335zm-222.865-135.497c-1.519-5.667 1.02-11.596 6.178-14.42 11.537-6.321 21.129-15.705 27.741-27.143 6.601-11.438 9.931-24.437 9.628-37.588-.134-5.877 3.734-11.045 9.403-12.566l77.293-20.708c3.555-.952 7.205-.36 10.275 1.672 3.103 2.054 5.099 5.224 5.621 8.926 4.725 33.628-.288 67.21-14.489 97.884l-12.841-19.631c-5.137-7.849-13.805-12.535-23.184-12.535s-18.046 4.687-23.184 12.537l-55.871 85.412z"/><path d="m380.178 474.33c4.231 0 7.66-3.43 7.66-7.661s-3.429-7.66-7.66-7.66-7.66 3.43-7.66 7.66 3.43 7.661 7.66 7.661z"/><path d="m380.178 443.078c4.142 0 7.5-3.358 7.5-7.5v-77.868c0-4.142-3.357-7.5-7.5-7.5s-7.5 3.358-7.5 7.5v77.868c.001 4.142 3.358 7.5 7.5 7.5z"/></g></g></svg>