<svg id="Capa_1" enable-background="new 0 0 512 512" height="512" viewBox="0 0 512 512" width="512" xmlns="http://www.w3.org/2000/svg"><g><g><circle cx="256" cy="185.107" fill="#99e6fc" r="177.607"/><path d="m368.661 47.804c17.879 27.713 28.259 60.719 28.259 96.151 0 98.09-79.517 177.607-177.607 177.607-42.77 0-82.006-15.121-112.661-40.304 31.616 49.007 86.691 81.456 149.349 81.456 98.09 0 177.607-79.518 177.607-177.607-.001-55.32-25.295-104.729-64.947-137.303z" fill="#62dbfb"/><path d="m312.505 112.13 14.906 24.596c3.408 5.624 9.507 9.059 16.083 9.059h25.819c7.231 0 13.822 4.146 16.952 10.664l8.645 18.002c3.098 6.452 9.59 10.585 16.746 10.663l21.948.24c.001-.001.002-.002.003-.003.132-98.202-79.436-177.851-177.607-177.851v76.765c0 10.386 8.419 18.805 18.805 18.805h21.617c6.577.001 12.675 3.436 16.083 9.06z" fill="#a2e62e"/><path d="m368.663 47.807c17.878 27.713 28.257 60.717 28.257 96.149 0 10.071-.851 19.941-2.462 29.554l.452.941c3.098 6.451 9.59 10.585 16.746 10.663l21.948.24c.001-.001.002-.002.003-.003.074-55.418-25.236-104.923-64.944-137.544z" fill="#97d729"/><path d="m192.087 193.03-26.651-21.073c-7.562-5.979-11.972-15.089-11.972-24.729v-9.121c0-17.411-14.114-31.525-31.525-31.525h-25.275c-11.692 23.678-18.272 50.331-18.272 78.525 0 98.033 79.427 177.514 177.439 177.605v-56.248c0-15.236-10.896-28.291-25.886-31.017-14.99-2.725-25.886-15.781-25.886-31.017v-26.672c.001-9.639-4.41-18.749-11.972-24.728z" fill="#a2e62e"/><path d="m219.313 321.563c-42.769 0-82.004-15.12-112.659-40.302 31.588 48.961 86.591 81.394 149.178 81.452v-44.916c-11.787 2.464-24.001 3.766-36.519 3.766z" fill="#97d729"/><path d="m262.357 180.548h40.503c6.029 0 10.916 4.887 10.916 10.916v12.03c0 6.029 4.887 10.916 10.916 10.916h11.844c6.029 0 10.916 4.887 10.916 10.916v26.998c0 6.029-4.887 10.916-10.916 10.916h-45.378c-6.029 0-10.916-4.887-10.916-10.916v-10.793c0-6.029-4.887-10.916-10.916-10.916h-6.969c-6.029 0-10.916-4.887-10.916-10.916v-28.234c0-6.029 4.887-10.917 10.916-10.917z" fill="#a2e62e"/></g><g><g><path d="m202.558 345.58-39.957-12.553-44.709-44.709c-7.737-7.737-20.359-8.327-28.35-.852-8.355 7.815-8.52 20.928-.496 28.952l-41.279-41.279v-89.501c0-11.119-9.014-20.133-20.133-20.133-11.119 0-20.133 9.014-20.133 20.133v101.174c0 3.288.803 6.527 2.338 9.434l51.694 97.889c1.142 2.163 2.667 4.1 4.501 5.717l66.303 58.478v46.169h107.153v-108.605c0-23.038-14.953-43.409-36.932-50.314z" fill="#fed2a4"/><path d="m221.731 413.621c-32.546 18.79-66.601 30.616-99.507 35.79l10.113 8.92v46.169h107.153v-101.96c-5.733 3.849-11.648 7.553-17.759 11.081z" fill="#ffbd86"/></g><g><path d="m309.442 345.58 39.957-12.553 44.709-44.709c7.737-7.737 20.359-8.327 28.35-.852 8.355 7.815 8.52 20.928.496 28.952l41.279-41.279v-89.501c0-11.119 9.014-20.133 20.133-20.133 11.119 0 20.133 9.014 20.133 20.133v101.174c0 3.288-.803 6.527-2.338 9.434l-51.694 97.889c-1.142 2.163-2.667 4.1-4.501 5.717l-66.303 58.478v46.169h-107.153v-108.605c0-23.038 14.953-43.409 36.932-50.314z" fill="#fed2a4"/><path d="m407.305 413.621c-44.372 25.618-91.552 38.302-134.795 38.805v52.074h107.153v-46.169l66.303-58.479c1.834-1.618 3.359-3.555 4.501-5.717l10.515-19.911c-15.747 14.554-33.721 27.876-53.677 39.397z" fill="#ffbd86"/></g></g><g><path d="m336.537 206.911h-11.844c-1.884 0-3.417-1.533-3.417-3.417v-12.03c0-10.155-8.261-18.416-18.416-18.416h-40.503c-10.155 0-18.417 8.261-18.417 18.416v28.235c0 10.155 8.262 18.416 18.417 18.416h6.969c1.884 0 3.416 1.532 3.416 3.416v10.793c0 10.155 8.262 18.416 18.417 18.416h45.378c10.155 0 18.417-8.261 18.417-18.416v-26.998c-.001-10.154-8.263-18.415-18.417-18.415zm3.416 45.414c0 1.884-1.533 3.416-3.417 3.416h-45.378c-1.884 0-3.417-1.532-3.417-3.416v-10.793c0-10.155-8.261-18.416-18.416-18.416h-6.969c-1.884 0-3.417-1.532-3.417-3.416v-28.235c0-1.884 1.533-3.416 3.417-3.416h40.503c1.884 0 3.416 1.532 3.416 3.416v12.03c0 10.155 8.262 18.417 18.417 18.417h11.844c1.884 0 3.417 1.532 3.417 3.416z"/><path d="m503.903 166.097c-5.221-5.221-12.158-8.097-19.533-8.097-15.241 0-27.64 12.399-27.64 27.64v86.394l-21.689 21.689c-1.416-4.43-3.95-8.45-7.455-11.728-3.012-2.82-6.546-4.813-10.307-5.989 15.622-27.648 23.831-58.818 23.831-90.896 0-43.676-15.499-86.076-43.64-119.39-2.673-3.165-7.405-3.563-10.569-.89s-3.562 7.405-.89 10.569c24.279 28.741 38.314 64.844 39.938 102.37l-14.211-.155c-4.333-.047-8.191-2.504-10.068-6.411l-8.645-18.002c-4.352-9.062-13.66-14.917-23.712-14.917h-25.819c-3.928 0-7.633-2.087-9.668-5.446l-14.906-24.596c-4.737-7.816-13.357-12.671-22.497-12.671h-21.617c-6.234 0-11.306-5.072-11.306-11.306v-69.104c36.152 1.54 70.068 14.217 98.503 36.902 3.239 2.584 7.957 2.052 10.54-1.186s2.052-7.957-1.186-10.54c-33.078-26.389-72.968-40.337-115.357-40.337-102.07 0-185.11 83.04-185.11 185.11 0 32.078 8.208 63.248 23.83 90.896-3.759 1.176-7.292 3.168-10.303 5.987-3.507 3.28-6.042 7.299-7.458 11.73l-21.689-21.689v-86.394c0-15.241-12.399-27.64-27.64-27.64-7.375 0-14.312 2.875-19.526 8.089-5.226 5.212-8.104 12.156-8.104 19.551v101.17c0 4.501 1.11 8.979 3.208 12.942l20.52 38.86c1.935 3.664 6.472 5.064 10.134 3.13 3.663-1.935 5.064-6.472 3.13-10.134l-20.523-38.866c-.961-1.816-1.469-3.867-1.469-5.932v-101.17c0-3.381 1.312-6.553 3.703-8.937 2.388-2.388 5.559-3.703 8.927-3.703 6.97 0 12.64 5.67 12.64 12.64v89.5c0 1.989.79 3.897 2.197 5.303l90.093 90.095v9.351c0 4.142 3.358 7.5 7.5 7.5s7.5-3.358 7.5-7.5v-12.457c0-1.989-.79-3.897-2.197-5.303 0 0-51.004-51.006-51.01-51.012-2.444-2.445-3.759-5.694-3.701-9.149.058-3.451 1.482-6.654 4.014-9.022 4.91-4.596 12.949-4.292 17.921.678l44.71 44.71c.854.854 1.903 1.49 3.056 1.852l39.961 12.551c18.946 5.948 31.676 23.29 31.676 43.154v101.109h-92.15v-38.67c0-2.152-.925-4.201-2.539-5.625l-66.299-58.47c-1.172-1.038-2.125-2.247-2.84-3.608l-14.82-28.06c-1.935-3.663-6.473-5.063-10.134-3.129-3.663 1.935-5.064 6.472-3.129 10.134l14.812 28.046c1.555 2.96 3.63 5.601 6.178 7.857l63.771 56.241v42.784c0 4.142 3.358 7.5 7.5 7.5h107.15c4.142 0 7.5-3.358 7.5-7.5v-108.61c0-9.359-2.131-18.293-5.991-26.288 4.989.401 9.999.611 15.001.611s10.013-.21 15.001-.611c-3.86 7.995-5.991 16.929-5.991 26.288v23.52c0 4.142 3.358 7.5 7.5 7.5s7.5-3.358 7.5-7.5v-23.52c0-19.864 12.73-37.207 31.678-43.155l39.959-12.55c1.153-.362 2.202-.998 3.056-1.852l44.71-44.709c4.972-4.971 13.012-5.274 17.924-.676 2.529 2.365 3.954 5.568 4.011 9.02.058 3.456-1.257 6.705-3.701 9.149-.007.007-51.01 51.012-51.01 51.012-1.407 1.406-2.197 3.314-2.197 5.303v12.457c0 4.142 3.358 7.5 7.5 7.5s7.5-3.358 7.5-7.5v-9.351l90.093-90.095c1.407-1.406 2.197-3.314 2.197-5.303v-89.5c0-6.97 5.67-12.64 12.64-12.64 3.368 0 6.539 1.315 8.934 3.71 2.384 2.377 3.696 5.548 3.696 8.93v101.17c0 2.065-.508 4.116-1.472 5.938l-51.697 97.894c-.708 1.347-1.661 2.556-2.822 3.583l-66.31 58.48c-1.614 1.424-2.539 3.473-2.539 5.625v38.67h-92.15v-42.59c0-4.142-3.358-7.5-7.5-7.5s-7.5 3.358-7.5 7.5v50.09c0 4.142 3.358 7.5 7.5 7.5h107.15c4.142 0 7.5-3.358 7.5-7.5v-42.784l63.782-56.251c2.537-2.246 4.612-4.886 6.16-7.833l51.687-97.874c2.101-3.97 3.211-8.447 3.211-12.948v-101.17c0-7.395-2.878-14.339-8.097-19.543zm-299.096 172.328-38.205-11.999-43.409-43.409c-3.123-3.123-6.832-5.361-10.783-6.719-17.342-27.237-26.52-58.698-26.52-91.188 0-25.34 5.579-49.399 15.558-71.027h20.49c13.248 0 24.025 10.778 24.025 24.025v9.121c0 12.007 5.402 23.165 14.821 30.612l26.651 21.073c5.798 4.584 9.124 11.454 9.124 18.846v26.672c0 18.873 13.477 35.02 32.044 38.396 11.431 2.079 19.728 12.02 19.728 23.638v48.564c-6.412-.283-12.796-.927-19.095-1.921-6.674-6.613-14.97-11.715-24.429-14.684zm140.59-11.999-38.204 11.999c-9.459 2.97-17.755 8.072-24.43 14.684-6.409 1.012-12.907 1.663-19.432 1.938v-48.582c0-18.872-13.477-35.02-32.045-38.396-11.431-2.078-19.727-12.019-19.727-23.638v-26.672c0-12.007-5.402-23.165-14.82-30.612l-26.651-21.073c-5.799-4.584-9.125-11.454-9.125-18.846v-9.121c0-21.519-17.507-39.025-39.025-39.025h-12.637c28.401-48.244 79.907-81.322 139.199-83.908v69.091c0 14.505 11.801 26.306 26.306 26.306h21.617c3.928 0 7.633 2.087 9.668 5.446l14.906 24.596c4.737 7.816 13.357 12.671 22.497 12.671h25.819c4.32 0 8.32 2.517 10.191 6.411l8.645 18.002c4.366 9.09 13.342 14.806 23.425 14.916l14.346.157c-1.324 29.763-10.355 58.438-26.331 83.528-3.951 1.358-7.66 3.596-10.783 6.719z"/></g></g></svg>