<svg id="Capa_1" enable-background="new 0 0 512 512" height="512" viewBox="0 0 512 512" width="512" xmlns="http://www.w3.org/2000/svg"><g><g><path d="m211.553 407.524h88.894v64.65h-88.894z" fill="#0573ce"/><path d="m211.553 407.524h88.894v26.264h-88.894z" fill="#0067c5"/><g><path d="m98.415 407.524c-13.39 0-24.244-10.854-24.244-24.244v-228.297c0-13.39 10.854-24.244 24.244-24.244h315.171c13.39 0 24.244 10.854 24.244 24.244v228.297c0 13.39-10.854 24.244-24.244 24.244z" fill="#82aee3"/><path d="m335.5 130.74h78.086c13.385 0 24.244 10.859 24.244 24.244v228.296c0 13.385-10.859 24.244-24.244 24.244h-315.171c-13.385 0-24.244-10.859-24.244-24.244v-228.297c0-13.385 10.859-24.244 24.244-24.244h78.085 159z" fill="#82aee3"/><path d="m149.865 130.74c.33 4.151 1.415 8.277 3.291 12.172 3.937 8.176 10.813 14.288 19.043 17.301.804 6.331 3.378 12.368 7.546 17.416 6.551 7.937 16.184 12.49 26.429 12.489 1.12 0 2.233-.054 3.339-.163 6.201 9.514 16.919 15.581 28.748 15.579 6.33 0 12.448-1.751 17.74-4.97 5.293 3.219 11.412 4.971 17.743 4.97 11.828 0 22.545-6.067 28.744-15.579 1.107.109 2.222.163 3.343.163 10.245-.001 19.878-4.554 26.427-12.492 4.166-5.049 6.739-11.084 7.543-17.413 8.229-3.013 15.106-9.125 19.043-17.301 1.876-3.896 2.96-8.021 3.29-12.172z" fill="#528fd8"/><path d="m413.585 130.74h-26.264c13.39 0 24.244 10.854 24.244 24.244v228.296c0 13.39-10.854 24.244-24.244 24.244h26.264c13.39 0 24.244-10.854 24.244-24.244v-228.297c0-13.389-10.854-24.243-24.244-24.243z" fill="#528fd8"/><path d="m106.496 163.065h299.008v212.134h-299.008z" fill="#0573ce"/><path d="m172.699 163.065c1.134 5.283 3.509 10.281 7.045 14.564 6.551 7.937 16.184 12.49 26.429 12.489 1.12 0 2.233-.054 3.339-.163 6.201 9.514 16.919 15.581 28.748 15.579 6.33 0 12.448-1.751 17.74-4.97 5.293 3.219 11.412 4.971 17.743 4.97 11.828 0 22.545-6.067 28.744-15.579 1.107.109 2.222.163 3.343.163 10.245-.001 19.878-4.554 26.427-12.492 3.535-4.284 5.909-9.281 7.043-14.562h-166.601z" fill="#0067c5"/></g></g><path d="m496.419 504.5h-480.838c-4.463 0-8.081-3.618-8.081-8.081v-16.163c0-4.463 3.618-8.081 8.081-8.081h480.837c4.463 0 8.081 3.618 8.081 8.081v16.163c.001 4.463-3.617 8.081-8.08 8.081z" fill="#bbec6c"/><path d="m496.419 472.175h-40.406c4.463 0 8.081 3.618 8.081 8.081v16.163c0 4.463-3.618 8.081-8.081 8.081h40.406c4.463 0 8.081-3.618 8.081-8.081v-16.163c0-4.463-3.618-8.081-8.081-8.081z" fill="#a2e62e"/><g><path d="m262.076 16.897 5.627-6.591c4.186-4.903 12.156-3.084 13.8 3.15l2.21 8.38c1.253 4.749 6.454 7.254 10.948 5.272l7.93-3.497c5.899-2.601 12.29 2.496 11.067 8.825l-1.645 8.509c-.932 4.822 2.667 9.336 7.576 9.5l8.662.29c6.443.216 9.99 7.581 6.142 12.753l-5.174 6.953c-2.932 3.94-1.648 9.569 2.704 11.847l7.678 4.019c5.711 2.99 5.711 11.165 0 14.155l-7.678 4.019c-4.351 2.278-5.636 7.906-2.704 11.847l5.174 6.953c3.849 5.172.302 12.537-6.142 12.753l-8.662.29c-4.909.164-8.508 4.678-7.576 9.5l1.645 8.509c1.223 6.33-5.168 11.427-11.067 8.825l-7.93-3.497c-4.494-1.982-9.695.523-10.948 5.272l-2.21 8.38c-1.644 6.234-9.614 8.053-13.8 3.15l-5.627-6.591c-3.189-3.735-8.962-3.735-12.151 0l-5.627 6.591c-4.186 4.903-12.156 3.084-13.8-3.15l-2.21-8.38c-1.253-4.749-6.454-7.254-10.948-5.272l-7.93 3.497c-5.899 2.601-12.29-2.496-11.067-8.825l1.645-8.509c.932-4.822-2.667-9.336-7.576-9.5l-8.662-.29c-6.443-.216-9.99-7.581-6.142-12.753l5.174-6.953c2.932-3.94 1.648-9.569-2.704-11.847l-7.678-4.019c-5.711-2.99-5.711-11.165 0-14.155l7.678-4.019c4.351-2.278 5.636-7.906 2.704-11.847l-5.174-6.953c-3.849-5.172-.302-12.537 6.142-12.753l8.662-.29c4.909-.164 8.508-4.678 7.576-9.5l-1.645-8.509c-1.223-6.33 5.168-11.427 11.067-8.825l7.93 3.497c4.494 1.982 9.695-.523 10.948-5.272l2.21-8.38c1.644-6.234 9.614-8.053 13.8-3.15l5.627 6.591c3.189 3.736 8.961 3.736 12.151 0z" fill="#ffe177"/><path d="m339.601 86.308-7.678-4.019c-4.351-2.278-5.636-7.906-2.704-11.846l5.174-6.953c3.849-5.172.302-12.537-6.141-12.753l-8.662-.29c-4.909-.164-8.508-4.678-7.576-9.5l1.645-8.509c1.119-5.791-4.137-10.531-9.557-9.307 4.195 10.464 6.508 21.886 6.508 33.85 0 50.266-40.749 91.015-91.015 91.015-6.735 0-13.297-.738-19.615-2.126l-1.636 8.466c-1.223 6.33 5.168 11.427 11.067 8.825l7.93-3.497c4.494-1.982 9.695.523 10.948 5.272l2.21 8.38c1.644 6.233 9.614 8.053 13.8 3.15l5.627-6.591c3.189-3.736 8.962-3.736 12.151 0l5.627 6.591c4.186 4.903 12.156 3.084 13.8-3.15l2.21-8.38c1.253-4.749 6.454-7.254 10.948-5.272l7.93 3.497c5.899 2.601 12.29-2.496 11.067-8.825l-1.645-8.509c-.932-4.822 2.667-9.336 7.576-9.5l8.662-.29c6.443-.216 9.99-7.581 6.141-12.753l-5.174-6.953c-2.932-3.94-1.648-9.569 2.704-11.846l7.678-4.02c5.711-2.992 5.711-11.167 0-14.157z" fill="#ffd15b"/><circle cx="256" cy="93.385" fill="#fea95c" r="40.407"/><path d="m271.263 55.971c1.924 4.71 2.992 9.861 2.992 15.263 0 22.316-18.09 40.407-40.406 40.407-5.402 0-10.553-1.068-15.263-2.992 6.023 14.747 20.501 25.143 37.414 25.143 22.316 0 40.407-18.091 40.407-40.407-.001-16.913-10.397-31.392-25.144-37.414z" fill="#fe9738"/></g><g><path d="m74.17 184.269c4.142 0 7.5-3.357 7.5-7.5v-21.789c0-9.23 7.51-16.74 16.74-16.74h73.939c2.78 3.191 6.783 5.144 11.149 5.291l8.662.29c.067.002.225.007.365.184.141.176.11.331.098.396l-1.645 8.51c-.171.886-.255 1.773-.272 2.654h-84.21c-4.142 0-7.5 3.357-7.5 7.5v212.134c0 4.143 3.358 7.5 7.5 7.5h299.008c4.142 0 7.5-3.357 7.5-7.5v-212.134c0-4.143-3.358-7.5-7.5-7.5h-84.211c-.017-.882-.101-1.769-.272-2.654l-1.645-8.51c-.013-.065-.043-.221.098-.396.14-.177.298-.182.366-.184l8.662-.29c4.366-.147 8.369-2.1 11.149-5.291h73.939c9.23 0 16.74 7.51 16.74 16.74v158.6c0 4.143 3.358 7.5 7.5 7.5s7.5-3.357 7.5-7.5v-158.6c0-17.502-14.239-31.74-31.74-31.74h-70.886c-.514-1.566-1.276-3.066-2.295-4.436l-5.174-6.953c-.041-.054-.135-.181-.084-.4s.19-.293.25-.324l7.678-4.02c5.123-2.682 8.305-7.94 8.305-13.723 0-5.781-3.182-11.04-8.305-13.722l-7.679-4.02c-.06-.031-.199-.104-.249-.324-.05-.219.044-.346.084-.399l5.174-6.953c3.452-4.64 4.038-10.758 1.528-15.968s-7.658-8.565-13.436-8.759l-8.661-.29c-.068-.002-.226-.007-.367-.184-.14-.176-.11-.331-.097-.397l1.645-8.509c1.098-5.678-1.029-11.444-5.55-15.05-4.521-3.604-10.616-4.394-15.906-2.062l-7.93 3.497c-.062.026-.207.09-.409-.007-.203-.098-.244-.251-.261-.315l-2.21-8.381c-1.475-5.591-5.893-9.863-11.53-11.149-5.638-1.289-11.472.645-15.227 5.043l-5.626 6.591c-.044.052-.146.172-.372.172s-.328-.12-.372-.172l-5.627-6.592c-3.754-4.397-9.59-6.325-15.226-5.043-5.638 1.287-10.056 5.56-11.53 11.151l-2.21 8.379c-.017.065-.058.218-.261.316-.204.097-.348.033-.409.007l-7.93-3.497c-5.291-2.334-11.386-1.543-15.906 2.062-4.521 3.605-6.648 9.372-5.551 15.05l1.645 8.51c.013.065.043.221-.098.396-.141.177-.305.182-.366.184l-8.661.29c-5.779.193-10.928 3.549-13.437 8.759s-1.924 11.328 1.528 15.968l5.174 6.953c.041.054.135.181.084.399-.05.22-.189.293-.25.324l-7.678 4.02c-5.123 2.682-8.305 7.94-8.305 13.722s3.182 11.041 8.305 13.723l7.678 4.02c.06.031.2.104.25.324s-.044.347-.084.4l-5.174 6.953c-1.019 1.369-1.781 2.87-2.295 4.436h-70.884c-17.501 0-31.74 14.238-31.74 31.74v21.789c0 4.143 3.358 7.5 7.5 7.5zm236.478-13.704h12.604v27.427h-59.752v-15.148c2.842 2.532 6.484 3.926 10.257 3.926 1.151 0 2.314-.129 3.468-.393 5.638-1.286 10.056-5.559 11.53-11.15l2.21-8.381c.017-.064.058-.217.26-.314s.347-.034.409-.007l7.931 3.497c3.572 1.575 7.509 1.721 11.083.543zm-62.148 112.28h-59.752v-27.427h59.752zm15-27.426h59.752v27.427h-59.752zm-74.752-15v-27.427h59.752v27.427zm-15 0h-59.752v-27.427h59.752zm0 15v27.427h-59.752v-27.427zm0 42.426v27.427h-59.752v-27.427zm15 0h59.752v27.427h-59.752zm59.752 42.427v27.427h-59.752v-27.427zm15 0h59.752v27.427h-59.752zm0-15v-27.427h59.752v27.427zm74.752-27.427h59.752v27.427h-59.752zm0-15v-27.427h59.752v27.427zm0-42.426v-27.427h59.752v27.427zm-15 0h-59.752v-27.427h59.752zm-74.752-42.427h-59.752v-27.427h12.602c3.574 1.178 7.512 1.033 11.086-.543l7.931-3.497c.061-.028.204-.092.408.007.203.098.244.25.261.314l2.21 8.382c1.475 5.591 5.893 9.863 11.53 11.15 4.934 1.125 10.016-.213 13.725-3.512v15.126zm-74.752-27.427v27.427h-59.752v-27.427zm-59.752 169.707h59.752v27.427h-59.752zm224.256 27.427v-27.427h59.752v27.427zm59.752-169.707h-59.752v-27.427h59.752zm-222.126-104.174c-.117-.062-.262-.138-.262-.434 0-.295.146-.371.262-.433l7.677-4.019c4.021-2.105 6.907-5.85 7.917-10.275 1.011-4.425.036-9.052-2.674-12.693l-5.174-6.953c-.079-.105-.177-.237-.048-.504.128-.266.292-.271.424-.275l8.663-.29c4.537-.153 8.761-2.275 11.591-5.824 2.829-3.549 3.958-8.14 3.097-12.596l-1.645-8.509c-.025-.13-.056-.29.175-.475.231-.187.381-.118.501-.065l7.931 3.497c4.153 1.832 8.88 1.751 12.969-.217 4.089-1.97 7.099-5.616 8.257-10.006l2.21-8.379c.034-.128.076-.286.364-.353.287-.065.394.059.479.158l5.627 6.593c2.947 3.451 7.24 5.432 11.779 5.432h.001c4.539 0 8.832-1.979 11.779-5.432v-.001l5.626-6.591c.085-.101.194-.224.48-.159.289.066.331.225.364.352l2.21 8.38c1.157 4.389 4.167 8.035 8.255 10.005 4.09 1.97 8.817 2.049 12.971.218l7.931-3.497c.12-.053.27-.121.501.065.231.184.2.345.175.475l-1.645 8.509c-.861 4.456.268 9.047 3.097 12.596 2.83 3.549 7.055 5.671 11.592 5.824l8.663.29c.131.004.295.01.423.275.128.267.031.398-.048.504l-5.174 6.953c-2.709 3.642-3.685 8.269-2.674 12.693 1.01 4.426 3.896 8.17 7.917 10.274l7.678 4.02c.117.062.262.138.262.433 0 .296-.146.372-.262.434l-7.679 4.02c-4.021 2.105-6.907 5.851-7.917 10.276s-.035 9.051 2.674 12.692l5.174 6.953c.079.105.177.237.048.503-.128.267-.292.272-.424.276l-8.661.29c-4.537.152-8.761 2.274-11.591 5.822-2.831 3.549-3.959 8.141-3.098 12.597l1.645 8.51c.025.129.056.29-.175.475-.233.185-.382.118-.501.065l-7.93-3.497c-4.152-1.83-8.88-1.752-12.97.216-4.089 1.97-7.099 5.616-8.256 10.006l-2.21 8.38c-.034.128-.076.286-.364.353-.287.066-.395-.06-.48-.159l-5.627-6.593c-2.947-3.452-7.241-5.432-11.78-5.432s-8.832 1.98-11.779 5.433l-5.628 6.592c-.085.099-.194.225-.479.159-.288-.066-.33-.225-.364-.352l-2.21-8.382c-1.158-4.39-4.168-8.036-8.258-10.005-4.089-1.969-8.817-2.046-12.968-.216l-7.93 3.497c-.12.053-.27.119-.502-.065-.231-.185-.2-.346-.175-.475l1.645-8.509c.861-4.457-.268-9.048-3.098-12.597s-7.055-5.671-11.591-5.823l-8.662-.29c-.132-.004-.296-.01-.424-.276s-.031-.397.048-.503l5.174-6.953c2.709-3.642 3.684-8.268 2.674-12.692-1.01-4.426-3.896-8.171-7.917-10.276z"/><path d="m496.42 464.67h-12.196l1.335-1.335c2.929-2.929 2.929-7.678 0-10.606s-7.678-2.929-10.606.001l-8.839 8.839-8.839-8.839c-2.929-2.93-7.678-2.929-10.606-.001-2.929 2.929-2.929 7.678 0 10.606l1.335 1.335h-22.369l1.335-1.335c2.929-2.929 2.929-7.678 0-10.606s-7.678-2.929-10.606.001l-8.839 8.839-8.839-8.839c-2.929-2.93-7.678-2.929-10.606-.001-2.929 2.929-2.929 7.678 0 10.606l1.335 1.335h-22.369l1.335-1.335c2.929-2.929 2.929-7.678 0-10.606s-7.678-2.929-10.606.001l-8.839 8.839-8.839-8.84c-2.929-2.928-7.678-2.928-10.606 0-2.929 2.93-2.929 7.678 0 10.607l1.334 1.334h-22.876v-49.65h105.641c17.501 0 31.74-14.238 31.74-31.739v-34.7c0-4.143-3.358-7.5-7.5-7.5s-7.5 3.357-7.5 7.5v34.7c0 9.23-7.51 16.739-16.74 16.739h-315.18c-9.23 0-16.74-7.509-16.74-16.739v-171.512c0-4.143-3.358-7.5-7.5-7.5s-7.5 3.357-7.5 7.5v171.511c0 17.501 14.239 31.739 31.74 31.739h105.643v49.65h-22.876l1.334-1.334c2.929-2.93 2.929-7.678 0-10.607-2.929-2.928-7.678-2.928-10.606 0l-8.839 8.84-8.839-8.839c-2.928-2.93-7.677-2.929-10.606-.001-2.929 2.929-2.929 7.678 0 10.606l1.335 1.335h-22.369l1.335-1.335c2.929-2.929 2.929-7.678 0-10.606s-7.678-2.929-10.606.001l-8.839 8.839-8.839-8.839c-2.929-2.93-7.678-2.929-10.606-.001-2.929 2.929-2.929 7.678 0 10.606l1.335 1.335h-22.37l1.335-1.335c2.929-2.929 2.929-7.678 0-10.606s-7.678-2.929-10.606.001l-8.839 8.839-8.839-8.839c-2.929-2.93-7.678-2.929-10.606-.001-2.929 2.929-2.929 7.678 0 10.606l1.335 1.335h-12.197c-8.591 0-15.58 6.993-15.58 15.59v16.16c0 8.591 6.989 15.581 15.58 15.581h105.17c4.142 0 7.5-3.357 7.5-7.5s-3.358-7.5-7.5-7.5h-105.17c-.32 0-.58-.26-.58-.58v-16.16c0-.325.26-.59.58-.59h480.84c.32 0 .58.265.58.59v16.16c0 .32-.26.58-.58.58h-340.67c-4.142 0-7.5 3.357-7.5 7.5s3.358 7.5 7.5 7.5h340.67c8.591 0 15.58-6.989 15.58-15.58v-16.16c0-8.597-6.989-15.59-15.58-15.59zm-277.367-49.651h73.895v49.65h-73.895z"/><path d="m256 141.292c26.416 0 47.906-21.49 47.906-47.906s-21.49-47.908-47.906-47.908-47.907 21.491-47.907 47.907 21.491 47.907 47.907 47.907zm0-80.814c18.145 0 32.906 14.762 32.906 32.907s-14.762 32.906-32.906 32.906c-18.145 0-32.907-14.762-32.907-32.906 0-18.145 14.762-32.907 32.907-32.907z"/></g></g></svg>