<svg id="Capa_1" enable-background="new 0 0 512 512" height="512" viewBox="0 0 512 512" width="512" xmlns="http://www.w3.org/2000/svg"><g><path d="m223.674 472.07c0-17.853-14.473-32.325-32.325-32.325-2.165 0-4.278.217-6.324.623-5.779-8.783-15.719-14.586-27.019-14.586-2.195 0-4.338.221-6.411.638-5.077-11.203-16.349-19-29.449-19-11.932 0-22.346 6.469-27.947 16.087-6.174-2.549-12.935-3.964-20.03-3.964-29.01 0-52.527 23.517-52.527 52.527z" fill="#dff6fd"/><path d="m483.624 472.07c0-11.456-5.965-21.513-14.953-27.254 2.453-3.789 3.882-8.303 3.882-13.153 0-13.39-10.854-24.244-24.244-24.244-1.247 0-2.472.095-3.668.276-7.043-16.577-23.473-28.202-42.62-28.202-19.123 0-35.535 11.598-42.593 28.143-1.213-.138-2.445-.217-3.695-.217-12.668 0-23.628 7.291-28.928 17.902-2.788-1.118-5.829-1.74-9.017-1.74-10.791 0-19.93 7.052-23.074 16.797-2.066-.414-4.201-.634-6.389-.634-17.853 0-32.325 14.473-32.325 32.325h227.624z" fill="#dff6fd"/><path d="m400.182 472.07h83.441c0-11.456-5.965-21.513-14.953-27.254 2.453-3.789 3.882-8.303 3.882-13.153 0-13.39-10.854-24.244-24.244-24.244-1.247 0-2.472.095-3.668.276-4.236-9.97-11.871-18.145-21.448-23.08 6.12 27.398-1.961 60.007-23.01 87.455z" fill="#c8effe"/><path d="m191.349 439.745c-2.165 0-4.278.217-6.324.623-5.779-8.783-15.719-14.586-27.019-14.586-2.195 0-4.338.221-6.411.638-2.485-5.483-6.461-10.142-11.402-13.479.249 2.349.594 4.726 1.051 7.131 3.492 18.394 12.889 35.595 28.469 51.997h53.961c0-17.851-14.473-32.324-32.325-32.324z" fill="#c8effe"/><path d="m74.171 68.216s0 78.748 41.031 129.193c50.077 61.567 75.517 86.077 75.517 124.754 0 49.494-57.453 89.881 29.011 149.908h36.27s-30.617-51.423-12.379-87.9c17.065-34.131 66.555-50.627 66.555-111.493 0-109.787 127.654-60.297 127.654-204.462h-363.659z" fill="#ecbba3"/><path d="m397.441 68.216c0 144.165-127.654 94.675-127.654 204.462 0 60.866-49.489 77.363-66.555 111.493-14.854 29.707 2.696 69.324 9.722 83.007 2.159 1.617 4.403 3.246 6.775 4.892h36.271s-30.617-51.423-12.379-87.899c17.065-34.131 66.555-50.627 66.555-111.493 0-109.787 127.654-60.297 127.654-204.462z" fill="#e8ad8c"/><ellipse cx="256" cy="68.216" fill="#dc8758" rx="181.829" ry="60.61"/><path d="m496.419 504.395h-480.838c-4.463 0-8.081-3.618-8.081-8.081v-16.163c0-4.463 3.618-8.081 8.081-8.081h480.837c4.463 0 8.081 3.618 8.081 8.081v16.163c.001 4.463-3.617 8.081-8.08 8.081z" fill="#bbec6c"/><path d="m496.419 472.07h-40.406c4.463 0 8.081 3.618 8.081 8.081v16.163c0 4.463-3.618 8.081-8.081 8.081h40.406c4.463 0 8.081-3.618 8.081-8.081v-16.163c0-4.463-3.618-8.081-8.081-8.081z" fill="#a2e62e"/><g><path d="m423.403 290.725c-8.012 8.012-7.173 20.059-6.075 26.18.436 2.431 2.329 4.324 4.76 4.76 6.12 1.099 18.167 1.938 26.18-6.075 8.012-8.012 7.173-20.059 6.075-26.18-.436-2.431-2.329-4.324-4.76-4.76-6.121-1.098-18.168-1.937-26.18 6.075z" fill="#bbec6c"/></g><g><path d="m98.589 334.932c-7.208-7.208-18.046-6.453-23.552-5.465-2.187.393-3.89 2.095-4.282 4.282-.988 5.506-1.743 16.344 5.465 23.552s18.046 6.453 23.552 5.465c2.187-.393 3.89-2.095 4.282-4.282.988-5.506 1.743-16.344-5.465-23.552z" fill="#bbec6c"/></g><g><path d="m496.42 464.575h-6.012c-1.608-8.463-5.901-16.151-12.302-21.957 1.284-3.486 1.948-7.188 1.948-10.954 0-17.205-13.759-31.257-30.851-31.731-9.376-17.132-27.36-27.938-47.182-27.938-19.812 0-37.801 10.807-47.178 27.936-12.712.277-24.268 6.476-31.505 16.64-1.824-.323-3.678-.486-5.552-.486-11.683 0-22.161 6.31-27.689 16.202-.591-.026-1.183-.04-1.772-.04-14.361 0-26.969 7.642-33.976 19.072-6.888-16.982-14.184-43.463-4.02-63.792 5.348-10.696 14.649-19.916 24.51-29.663 13.027-.707 25.662-2.123 37.235-4.23 4.075-.742 6.777-4.647 6.035-8.723s-4.645-6.774-8.723-6.035c-5.997 1.092-12.303 1.99-18.812 2.693 12.103-13.715 22.742-30.159 26.043-53.462 30.401 6.577 46.263 17.076 46.263 24.66 0 4.452-6.2 11.558-23.603 18.149-3.874 1.467-5.824 5.797-4.357 9.67 1.136 2.999 3.987 4.846 7.015 4.846.883 0 1.781-.157 2.655-.488 27.515-10.421 33.29-23.25 33.29-32.177 0-17.542-21.848-31.886-60.21-39.77 0-.108.005-.211.005-.319 0-.213.009-.414.01-.625 35.096-5.55 63.685-14.769 82.628-26.876 15.184-9.704 24.168-21.211 26.703-34.202.092-.474.139-.954.139-1.437 0-9.417-4.823-22.708-26.005-35.564 24.1-19.136 44.163-47.687 44.178-105.695 0-.021.001-.042.001-.063 0-13.918-10.129-33.886-58.386-49.972-35.088-11.698-81.591-18.139-130.943-18.139-45.357 0-89.055 5.558-123.045 15.65-3.971 1.179-6.234 5.354-5.055 9.324 1.179 3.971 5.354 6.237 9.325 5.055 32.642-9.691 74.824-15.029 118.775-15.029 47.782 0 92.601 6.168 126.201 17.369 30.137 10.046 48.129 23.407 48.129 35.741h-.001v.031c-.03 12.325-18.015 25.672-48.127 35.71-33.601 11.201-78.42 17.369-126.201 17.369-47.782 0-92.601-6.168-126.201-17.369-30.117-10.039-48.104-23.388-48.129-35.715 0-.008 0-.025 0-.029h-.001c.003-8.463 8.643-17.648 24.329-25.862 3.669-1.922 5.086-6.454 3.165-10.124-1.921-3.669-6.453-5.084-10.124-3.165-26.754 14.011-32.37 29.025-32.37 39.154 0 .015.001.031.001.047.001.867.035 5.54.572 12.854-24.517 10.996-36.938 23.997-36.938 38.688 0 18.291 19.771 34.246 57.367 46.468.098.218.196.436.295.653-25.857 11.764-39.469 26.406-39.469 42.612 0 .455.042.909.124 1.356 3.388 18.422 19.669 33.639 48.391 45.228.92.371 1.87.547 2.804.547 2.968 0 5.779-1.774 6.958-4.695 1.55-3.842-.308-8.212-4.148-9.762-16.022-6.465-35.686-17.464-39.111-33.327.491-9.568 11.709-19.782 31.195-28.551 4.225 7.58 9.08 14.93 14.674 21.808 6.989 8.593 13.356 16.292 19.513 23.738 9.367 11.327 17.515 21.185 24.463 30.118-7.262-1.294-14.267-2.758-20.943-4.397-4.023-.989-8.085 1.474-9.072 5.496s1.473 8.084 5.496 9.072c11.532 2.831 23.989 5.167 37.065 6.998 1.47 2.195 2.839 4.344 4.121 6.462-23.534 8.325-35.908 19.689-35.908 33.138 0 9.672 6.702 23.435 38.628 34.075 1.811.604 3.686 1.177 5.589 1.736-1.267 3.992-2.682 8.018-4.122 12.115-6.335 18.024-13.118 37.344-7.704 58.522-2.764-.602-5.61-.932-8.508-.932-.756 0-1.514.021-2.272.065-7.247-11.349-19.897-18.43-33.588-18.43-11.993 0-23.314 5.479-30.812 14.62-5.544-1.659-11.293-2.498-17.16-2.498-30.577 0-55.87 22.986-59.55 52.583-8.144.501-14.621 7.266-14.621 15.533v16.16c0 8.591 6.989 15.58 15.58 15.58h374.64c4.143 0 7.5-3.357 7.5-7.5s-3.357-7.5-7.5-7.5h-374.64c-.32 0-.58-.26-.58-.58v-16.16c0-.325.255-.58.58-.58h54.32c4.142 0 7.5-3.357 7.5-7.5s-3.358-7.5-7.5-7.5h-40.122c3.58-21.273 22.118-37.534 44.393-37.534 5.941 0 11.715 1.144 17.162 3.399 3.466 1.434 7.463.086 9.352-3.157 4.438-7.627 12.66-12.364 21.459-12.364 9.722 0 18.604 5.73 22.625 14.599 1.441 3.176 4.879 4.944 8.301 4.257 1.63-.326 3.29-.491 4.934-.491 8.382 0 16.141 4.189 20.755 11.207.319.485.694.92 1.106 1.311 4.645 6.104 10.538 12.359 17.915 18.774h-92.88c-4.142 0-7.5 3.357-7.5 7.5s3.358 7.5 7.5 7.5h391.52c.325 0 .58.255.58.58v16.16c0 .32-.26.58-.58.58h-71.2c-4.143 0-7.5 3.357-7.5 7.5s3.357 7.5 7.5 7.5h71.2c8.591 0 15.58-6.989 15.58-15.58v-16.16c0-8.592-6.989-15.581-15.58-15.581zm-208.095-17.33c1.645 0 3.298.164 4.914.488 3.743.754 7.443-1.423 8.612-5.051 2.238-6.938 8.642-11.6 15.936-11.6 2.146 0 4.24.404 6.226 1.2 3.627 1.455 7.758-.116 9.501-3.609 4.239-8.483 12.753-13.754 22.22-13.754.915 0 1.848.056 2.85.169 3.302.371 6.443-1.46 7.744-4.509 6.112-14.328 20.123-23.586 35.694-23.586 15.597 0 29.616 9.277 35.717 23.635 1.34 3.152 4.639 4.999 8.028 4.482.836-.127 1.691-.191 2.543-.191 9.232 0 16.744 7.512 16.744 16.744 0 3.231-.926 6.37-2.679 9.076-1.085 1.677-1.457 3.717-1.033 5.668.424 1.952 1.608 3.653 3.292 4.729 5.009 3.199 8.607 7.966 10.334 13.438h-210.309c3.186-10.036 12.589-17.329 23.666-17.329zm123.813-238.4c-1.946 8.525-8.638 16.493-19.901 23.691-16.412 10.489-42.124 18.824-73.451 24.102 5.123-34.59 27.336-47.873 52.565-62.956 5.39-3.222 10.891-6.512 16.339-10.074 15.383 8.013 23.996 16.871 24.448 25.237zm-366.833-89.041c0-7.261 8.463-15.388 23.558-22.87 1.852 14.19 5.271 32.221 11.574 50.833-25.467-10.003-35.132-20.525-35.132-27.963zm95.152 96.516c-6.138-7.423-12.486-15.099-19.436-23.644-5.284-6.496-9.853-13.518-13.813-20.8 40.868 10.363 93.306 16.037 148.793 16.037 4.143 0 7.5-3.357 7.5-7.5s-3.357-7.5-7.5-7.5c-57.623 0-111.704-6.207-152.28-17.479-1.676-.466-3.296-.936-4.889-1.408-8.006-19.854-12.279-40.076-14.557-55.903 8.884 6.885 21.906 13.771 40.781 20.062 35.089 11.697 81.593 18.139 130.944 18.139s95.854-6.441 130.944-18.139c19.149-6.383 32.277-13.377 41.168-20.362-1.188 7.321-2.865 14.129-5.027 20.459-5.557 5.992-35.25 35.773-82.82 43.46-4.089.661-6.868 4.512-6.208 8.601.596 3.685 3.78 6.305 7.396 6.305.397 0 .8-.031 1.205-.097 22.473-3.632 41.195-11.581 55.804-20.079-10.597 9.842-22.848 17.183-34.809 24.333-3.639 2.176-7.292 4.361-10.903 6.62-.006.004-.012.006-.018.01-.003.002-.016.01-.024.015-.194.121-.388.243-.581.365-5.395 3.33-46.405 27.392-103.955 27.392-4.142 0-7.5 3.357-7.5 7.5s3.358 7.5 7.5 7.5c26.843 0 50.201-4.805 68.599-10.585-6.8 10.256-11.657 22.909-13.388 39.301-9.342 1.21-19.081 2.167-29.146 2.844-33.905 2.279-68.543 1.313-99.81-2.596-8.962-12.601-20.341-26.369-33.97-42.851zm97.427 61.66c12.43 0 24.948-.41 37.361-1.245 9.457-.636 18.601-1.503 27.406-2.581-.483 33.106-17.055 51.812-34.278 68.995-4.1.151-8.228.241-12.374.241-22.975 0-43.016-2.251-59.349-5.71.969-5.05 1.568-10.21 1.568-15.517 0-16.968-4.564-31.452-13.287-46.74 17.084 1.683 34.922 2.557 52.953 2.557zm-88.765 34.786c0-5.319 8.698-13.195 27.938-19.693 4.1 9.49 6.162 18.802 6.162 29.089 0 3.982-.418 7.918-1.129 11.845-21.059-6.271-32.971-14.563-32.971-21.241zm30.624 94.811c8.113 1.477 16.716 2.634 25.704 3.442.229.021.455.03.68.03 3.839 0 7.111-2.932 7.461-6.828.371-4.126-2.673-7.771-6.798-8.142-9.251-.832-18.048-2.048-26.261-3.615 1.518-8.817 4.616-17.631 7.838-26.798 1.553-4.419 3.122-8.887 4.538-13.428 17.99 3.839 38.719 5.964 60.388 6.129-6.453 6.911-12.197 14.083-16.38 22.449-14.58 29.161-1.631 65.593 6.794 83.759h-21.595c-30.349-21.5-40.911-39.633-42.369-56.998z"/><path d="m418.101 285.421c-.001.001 0 0 0 0-10.358 10.359-9.556 25.002-8.154 32.81.985 5.484 5.331 9.83 10.816 10.815 2.437.438 5.536.816 8.967.816 7.561 0 16.716-1.844 23.842-8.969 10.358-10.359 9.555-25.002 8.153-32.809-.984-5.485-5.331-9.832-10.816-10.817-7.809-1.4-22.453-2.202-32.808 8.154zm24.863 24.866c-5.142 5.143-13.348 4.94-18.438 4.18-.763-5.09-.962-13.296 4.18-18.438l.001-.001c5.141-5.142 13.349-4.941 18.437-4.18.763 5.089.962 13.296-4.18 18.439z"/><path d="m101.097 370.148c5.243-.941 9.397-5.096 10.339-10.339 1.287-7.167 2.018-20.619-7.543-30.181v-.001c-9.562-9.559-23.014-8.83-30.181-7.543-5.243.941-9.397 5.096-10.339 10.339-1.287 7.168-2.017 20.621 7.544 30.182 6.589 6.588 15.024 8.289 21.979 8.289 3.137 0 5.973-.346 8.201-.746zm-23.197-33.536c4.021-.521 11.094-.671 15.386 3.623 4.293 4.294 4.143 11.366 3.623 15.386-4.022.519-11.093.67-15.386-3.623-4.294-4.293-4.143-11.366-3.623-15.386z"/></g></g></svg>