<svg id="Capa_1" enable-background="new 0 0 512 512" height="512" viewBox="0 0 512 512" width="512" xmlns="http://www.w3.org/2000/svg"><g><path d="m335.187 265.801h149.5v99.912h-149.5z" fill="#fed2a4"/><path d="m484.687 321.759c-4.458-1.264-9.648-2.118-15.699-2.118-17.611 0-28.077 7.149-33.7 10.989-.532.363-1.197.818-1.684 1.132-.035.001-.186.001-.221 0-.487-.315-1.153-.769-1.684-1.132-5.623-3.84-16.089-10.989-33.699-10.989-17.611 0-28.078 7.148-33.7 10.988-.532.364-1.199.819-1.686 1.133-.036.001-.073.001-.113.001-9.345 0-18.467-.274-27.311-.808v34.759h149.5v-43.955z" fill="#ffbd86"/><path d="m382.663 365.714h54.547v-52.297c0-4.463-3.618-8.081-8.081-8.081h-38.385c-4.463 0-8.081 3.618-8.081 8.081z" fill="#d6694b"/><g><path d="m468.987 347.925c-17.748 0-17.748 12.122-35.495 12.122s-17.747-12.122-35.494-12.122c-17.75 0-17.75 12.122-35.5 12.122-202.803 0-233.706-117.152-215.883-159.606 11.383-27.113 36.026-36.805 56.503-36.805 6.706 0 14.992 1.83 22.754 5.736.472-.299.939-.629 1.396-1.028 9.702-8.468-3.582-23.689 6.12-32.157s22.986 6.754 32.688-1.713c9.703-8.468-3.581-23.69 6.121-32.158 7.629-6.658 17.471 1.321 26.046.924-29.511-39.146-76.401-64.451-129.207-64.424-89.478.044-161.536 73.689-161.536 163.172v271.197h496.987v-113.138c-17.75 0-17.75-12.122-35.5-12.122z" fill="#99e6fc"/></g><path d="m468.987 347.925c-17.748 0-17.748 12.122-35.495 12.122s-17.747-12.122-35.494-12.122c-17.75 0-17.75 12.122-35.5 12.122-19.795 0-37.944-1.121-54.578-3.174-15.606 47.082-45.617 87.589-84.812 116.313h281.379v-113.139c-17.75 0-17.75-12.122-35.5-12.122z" fill="#62dbfb"/><path d="m272.199 102.315c-9.703 8.468 3.581 23.69-6.121 32.158s-22.986-6.754-32.688 1.713c-9.702 8.468 3.582 23.689-6.12 32.157-.457.399-.924.729-1.396 1.028 8.335 4.193 16.065 10.779 20.58 20.09 3.257 6.718 10.072 10.98 17.538 10.98h45.912c11.778 0 20.942-10.368 19.351-22.038-3.813-27.967-14.786-53.653-31.003-75.164-8.578.401-18.422-7.584-26.053-.924z" fill="#dff6fd"/><path d="m501.34 245.496-82.18-91.313c-4.833-5.37-13.253-5.37-18.086 0l-82.18 91.313c-7.046 7.83-1.49 20.306 9.043 20.306h164.359c10.534-.001 16.09-12.477 9.044-20.306z" fill="#fd8087"/><path d="m501.34 245.496-82.18-91.313c-4.833-5.37-13.253-5.37-18.086 0l-9.139 10.155 73.04 81.158c7.046 7.83 1.49 20.306-9.043 20.306h36.365c10.533-.001 16.089-12.477 9.043-20.306z" fill="#fe646f"/><g><path d="m7.5 255.8c4.142 0 7.5-3.358 7.5-7.5v-46.31c0-85.799 69.102-155.632 154.04-155.67h.094c37.479 0 73.598 13.611 101.711 38.331 2.761 2.428 5.423 4.949 7.989 7.551-3.844.101-7.851 1.219-11.567 4.463-7.95 6.939-6.502 16.514-5.544 22.851.882 5.835.922 7.999-.577 9.307-1.497 1.309-3.637.976-9.299-.688-6.148-1.807-15.439-4.537-23.39 2.401-7.95 6.939-6.502 16.514-5.544 22.851.478 3.159.705 5.236.579 6.69-6.961-2.651-14.068-3.935-20.378-3.935-22.256 0-50.602 10.875-63.414 41.397-9.974 23.762-3.361 53.422 6.153 73.256 1.29 2.689 3.972 4.258 6.767 4.258 1.087 0 2.192-.238 3.238-.74 3.735-1.792 5.31-6.271 3.518-10.006-7.734-16.123-13.905-41.763-5.847-60.963 12.543-29.88 41.122-32.203 49.583-32.203 10.098 0 28.962 5.862 36.591 21.593 4.482 9.238 14.015 15.207 24.287 15.207h45.909c7.815 0 15.246-3.378 20.387-9.268 5.109-5.852 7.439-13.61 6.393-21.286-5.475-40.165-25.339-77.1-55.932-104-30.855-27.13-70.487-42.066-111.614-42.066-.033 0-.071 0-.104 0-93.201.04-169.029 76.603-169.029 170.669v46.31c0 4.142 3.358 7.5 7.5 7.5zm311.49-66.992c-2.292 2.626-5.605 4.132-9.088 4.132h-45.909c-4.565 0-8.802-2.651-10.791-6.752-3.839-7.916-9.587-14.173-16.175-18.887 2.295-5.624 1.393-11.693.718-16.157-.882-5.835-.922-7.999.577-9.307 1.498-1.308 3.635-.976 9.298.688 6.149 1.807 15.44 4.537 23.391-2.402 7.95-6.939 6.502-16.514 5.544-22.851-.882-5.835-.922-7.999.577-9.307 1.501-1.312 3.64-.979 9.304.684 2.427.712 5.073 1.479 7.857 1.859 14.588 20.28 24.121 43.906 27.529 68.904.466 3.433-.539 6.769-2.832 9.396z"/><path d="m504.487 352.55c-5.88 0-8.837-1.607-12.299-3.93v-75.32h.109c7.877 0 14.761-4.47 17.965-11.666 3.203-7.193 1.918-15.299-3.35-21.151l-34.879-38.76c-2.771-3.078-7.513-3.329-10.592-.558s-3.329 7.513-.558 10.592l34.88 38.761c1.829 2.031 1.165 4.183.796 5.014-.371.832-1.527 2.767-4.262 2.767h-164.355c-2.739 0-3.896-1.934-4.267-2.766s-1.035-2.985.791-5.017l82.175-91.316c1.214-1.347 2.699-1.548 3.477-1.548h.002c.775 0 2.256.201 3.464 1.544l23.889 26.55c2.77 3.08 7.513 3.33 10.592.559s3.329-7.513.559-10.592l-23.889-26.549c-3.72-4.136-9.044-6.509-14.607-6.512-.003 0-.006 0-.01 0-5.565 0-10.893 2.371-14.623 6.51l-82.18 91.322c-5.265 5.857-6.545 13.963-3.34 21.155 3.17 7.114 9.943 11.555 17.714 11.651v78.003c-26.911-2.01-49.673-6.319-68.911-12.06-5.468-2.734-62-32.19-62-79.995 0-17.711 11.196-26.273 22.292-26.901 10.182-.57 22.835 5.645 25.042 25.071.468 4.116 4.181 7.074 8.299 6.605 4.116-.468 7.073-4.184 6.605-8.299-3.155-27.76-23.341-39.338-40.794-38.354-9.697.549-18.694 4.723-25.331 11.75-7.27 7.698-11.113 18.116-11.113 30.127 0 18.619 6.948 36.838 20.279 53.565-10.121-7.039-18.092-14.349-24.35-21.322-2.767-3.083-7.508-3.34-10.591-.573-3.083 2.766-3.34 7.508-.574 10.591 48.982 54.592 133.599 66.051 195.957 66.051 11.193 0 17.174-4.088 21.981-7.373 4.041-2.762 6.961-4.757 13.518-4.757s9.477 1.996 13.518 4.758c4.805 3.285 10.784 7.372 21.972 7.372 11.193 0 17.174-4.088 21.981-7.373 4.041-2.762 6.961-4.757 13.518-4.757s9.477 1.996 13.518 4.757c3.601 2.461 7.863 5.373 14.481 6.679v98.824h-481.986v-182.379c0-4.142-3.358-7.5-7.5-7.5s-7.5 3.358-7.5 7.5v189.88c0 4.142 3.358 7.5 7.5 7.5h496.987c4.142 0 7.5-3.358 7.5-7.5v-113.13c0-4.142-3.358-7.5-7.5-7.5zm-106.488-12.13c-2.952 0-5.534.29-7.835.769v-27.771c0-.32.261-.581.582-.581h38.385c.32 0 .581.261.581.581v38.86c-4.079-.631-6.564-2.319-9.73-4.484-4.807-3.285-10.788-7.374-21.983-7.374zm49.008 7.372c-.797.544-1.549 1.057-2.295 1.533v-35.908c0-8.591-6.99-15.581-15.581-15.581h-38.385c-8.592 0-15.581 6.99-15.581 15.581v34.956c-3.624 2.455-6.578 4.176-12.664 4.176-6.825 0-13.425-.135-19.812-.393v-78.856h134.5v67.971c-2.393-.527-5.089-.85-8.2-.85-11.194-.001-17.176 4.087-21.982 7.371z"/><path d="m226.444 84.288c1.615-3.814-.168-8.216-3.982-9.831-16.952-7.178-34.922-10.817-53.415-10.817-22.798.01-45.393 5.842-65.343 16.866-3.626 2.003-4.941 6.566-2.937 10.191 1.368 2.476 3.929 3.875 6.571 3.875 1.227 0 2.471-.302 3.62-.937 17.737-9.8 37.826-14.985 58.092-14.995 16.469 0 32.471 3.24 47.563 9.629 3.816 1.618 8.217-.167 9.831-3.981z"/><path d="m74.953 112.103c-3.184-2.648-7.913-2.212-10.561.973-20.679 24.875-32.068 56.45-32.068 88.911 0 4.142 3.358 7.5 7.5 7.5s7.5-3.358 7.5-7.5c0-28.965 10.158-57.135 28.602-79.322 2.648-3.185 2.213-7.914-.973-10.562z"/><path d="m362.502 384.872c-56.523 0-104.947-8.753-143.928-26.016-3.786-1.675-8.217.033-9.894 3.821-1.677 3.787.033 8.217 3.821 9.894 40.906 18.116 91.374 27.301 150.001 27.301 4.142 0 7.5-3.358 7.5-7.5s-3.358-7.5-7.5-7.5z"/><path d="m203.123 138.806c4.142 0 7.5-3.358 7.5-7.5s-3.358-7.5-7.5-7.5c-32.645 0-74.28 16.082-93.231 61.217-14.42 34.353-7.468 81.02 17.711 118.89 1.444 2.172 3.826 3.349 6.252 3.349 1.426 0 2.869-.406 4.145-1.255 3.449-2.293 4.387-6.949 2.093-10.398-22.474-33.803-28.9-74.931-16.372-104.779 16.106-38.358 51.577-52.024 79.402-52.024z"/><path d="m72.023 281.265c-3.923 1.33-6.025 5.588-4.695 9.511 8.317 24.537 22.521 47.779 41.078 67.212 1.474 1.543 3.448 2.32 5.425 2.32 1.861 0 3.726-.689 5.179-2.076 2.996-2.861 3.105-7.608.245-10.604-17.058-17.863-30.101-39.188-37.721-61.668-1.33-3.922-5.587-6.023-9.511-4.695z"/><path d="m358.042 427.274c-4.142 0-7.5 3.358-7.5 7.5s3.358 7.5 7.5 7.5c8.972 0 13.925-3.382 17.541-5.852 2.957-2.02 4.743-3.239 9.081-3.239s6.124 1.219 9.081 3.239c3.616 2.47 8.569 5.852 17.541 5.852s13.925-3.382 17.542-5.852c2.957-2.02 4.743-3.239 9.082-3.239 4.34 0 6.125 1.219 9.083 3.239 3.616 2.47 8.569 5.852 17.542 5.852 4.142 0 7.5-3.358 7.5-7.5s-3.358-7.5-7.5-7.5c-4.34 0-6.125-1.219-9.083-3.239-3.616-2.47-8.569-5.852-17.542-5.852s-13.925 3.382-17.542 5.852c-2.957 2.02-4.743 3.239-9.082 3.239s-6.124-1.219-9.081-3.239c-3.616-2.47-8.569-5.852-17.541-5.852s-13.925 3.382-17.541 5.852c-2.957 2.02-4.742 3.239-9.081 3.239z"/><path d="m55.797 337.716c-1.455-3.87-5.77-5.832-9.644-4.386-3.88 1.449-5.85 5.77-4.401 9.65.385 1.03 9.715 25.5 35.41 50.011 23.568 22.482 65.998 49.282 134.3 49.282 4.142 0 7.5-3.358 7.5-7.5s-3.358-7.5-7.5-7.5c-50.547 0-92.07-15.016-123.416-44.631-23.455-22.16-32.163-44.701-32.249-44.926z"/></g></g></svg>