<svg id="Capa_1" enable-background="new 0 0 512.003 512.003" height="512" viewBox="0 0 512.003 512.003" width="512" xmlns="http://www.w3.org/2000/svg"><g><g><path d="m445.059 204.321c-8.882-3.789-15.107-12.601-15.107-22.867v-118.284c0-7.246-4.709-13.651-11.625-15.813l-21.508-6.721-59.232-16.633-7.035.067c0 41.173-33.377 74.55-74.55 74.55s-74.55-33.377-74.55-74.55l-6.749-.067-59.518 16.633-21.508 6.721c-6.916 2.161-11.625 8.567-11.625 15.813v118.283c0 10.266-6.225 19.078-15.107 22.867-5.987 2.554-9.743 8.585-9.743 15.094v58.943 154.863 38.149c0 18.299 14.834 33.133 33.133 33.133h331.333c18.299 0 33.133-14.834 33.133-33.133v-38.149-154.863-58.943c.001-6.508-3.755-12.539-9.742-15.093z" fill="#335373"/><path d="m445.059 204.321c-8.882-3.789-15.107-12.601-15.107-22.867v-118.284c0-7.246-4.709-13.651-11.625-15.813l-21.508-6.721-7.79 4.753 6.298 1.968c6.916 2.161 11.625 8.567 11.625 15.813v118.283c0 10.266 6.225 19.078 15.107 22.867 5.987 2.554 9.743 8.585 9.743 15.094v58.943 154.863 38.149c0 18.299-14.834 33.133-33.133 33.133h23c18.299 0 33.133-14.834 33.133-33.133v-38.149-154.863-58.943c0-6.508-3.756-12.539-9.743-15.093z" fill="#1f3c59"/><g><g fill="#54d7ff"><path d="m123.468 173.17h49.7c4.575 0 8.283-3.709 8.283-8.283v-149.096c0-5.389-5.064-9.343-10.292-8.036l-49.7 12.425c-3.688.922-6.274 4.235-6.274 8.036v136.671c0 4.574 3.709 8.283 8.283 8.283z"/><path d="m388.535 173.17h-49.7c-4.575 0-8.283-3.709-8.283-8.283v-149.096c0-5.389 5.064-9.343 10.292-8.036l49.7 12.425c3.688.922 6.274 4.235 6.274 8.036v136.671c0 4.574-3.708 8.283-8.283 8.283z"/></g></g><g fill="#e2dff4"><path d="m371.968 206.303v74.55c0 4.575-3.709 8.283-8.283 8.283h-215.367c-4.575 0-8.283-3.708-8.283-8.283v-74.55z"/><path d="m142.968 333.821h226.066v33.133h-226.066z"/><path d="m381.177 433.221h-250.349l13.233-33.133h223.881z"/></g><g fill="#63b0ff"><path d="m171.159 7.755-14.048 3.512c.843 1.289 1.341 2.836 1.341 4.524v149.096c0 4.575-3.708 8.283-8.283 8.283h23c4.575 0 8.283-3.709 8.283-8.283v-149.096c0-5.389-5.065-9.343-10.293-8.036z"/><path d="m390.544 20.18-18.543-4.636c1.144 1.431 1.817 3.237 1.817 5.172v144.171c0 4.575-3.708 8.283-8.283 8.283h23c4.575 0 8.283-3.709 8.283-8.283v-136.671c0-3.801-2.587-7.114-6.274-8.036z"/></g><path d="m348.968 206.303v74.55c0 4.575-3.709 8.283-8.284 8.283h23c4.575 0 8.284-3.708 8.284-8.283v-74.55z" fill="#bebcdd"/><path d="m372.535 222.87h-233.067c-8.837 0-16-7.164-16-16v-25.7c0-4.418 3.582-8 8-8h249.067c4.418 0 8 3.582 8 8v25.7c0 8.836-7.163 16-16 16z" fill="#f6f6f6"/><path d="m380.535 173.17h-23c4.418 0 8 3.582 8 8v25.7c0 8.836-7.164 16-16 16h23c8.837 0 16-7.164 16-16v-25.7c0-4.418-3.582-8-8-8z" fill="#e2dff4"/><path d="m63.728 281.476 82.028 35.155c6.492 2.782 10.506 9.374 9.998 16.419l-6.249 89.812c-.656 9.091-8.531 15.945-17.626 15.338l-75.779-5.053c-8.702-.58-15.465-7.808-15.465-16.53v-119.914c0-11.893 12.161-19.912 23.093-15.227z" fill="#54d7ff"/><path d="m448.276 281.476-82.028 35.155c-6.492 2.782-10.506 9.374-9.998 16.419l6.249 89.812c.656 9.091 8.531 15.945 17.626 15.338l75.778-5.052c8.702-.58 15.465-7.808 15.465-16.53v-119.915c0-11.893-12.16-19.912-23.092-15.227z" fill="#54d7ff"/><path d="m448.276 281.476-5.858 2.51c3.583 2.981 5.951 7.471 5.951 12.716v121.645c0 7.894-5.546 14.546-13.05 16.172l20.585-1.373c8.703-.58 15.465-7.808 15.465-16.53v-119.913c-.001-11.893-12.162-19.912-23.093-15.227z" fill="#63b0ff"/></g><path d="m468.05 276.611c-1.81-1.194-3.745-2.114-5.748-2.773v-54.423c0-9.654-5.613-18.287-14.3-21.992-6.409-2.734-10.55-9.002-10.55-15.969v-118.284c0-10.583-6.787-19.814-16.888-22.971l-16.246-5.077v-6.907c0-7.255-4.916-13.552-11.955-15.311l-49.7-12.426c-4.751-1.186-9.685-.14-13.542 2.873-3.857 3.012-6.069 7.546-6.069 12.439v8.279c0 36.972-30.078 67.051-67.05 67.051s-67.05-30.079-67.05-67.051v-8.279c0-4.893-2.212-9.428-6.069-12.439-3.857-3.012-8.793-4.06-13.543-2.873l-49.7 12.426c-7.039 1.76-11.955 8.057-11.955 15.311v6.907l-16.246 5.078c-10.1 3.156-16.888 12.387-16.888 22.97v20.45c0 4.143 3.357 7.5 7.5 7.5s7.5-3.357 7.5-7.5v-20.45c0-3.987 2.557-7.465 6.362-8.654l11.771-3.679v114.049c0 6.065 3.444 11.335 8.474 13.977-.114.755-.191 1.521-.191 2.307v25.7c0 10.545 6.982 19.49 16.566 22.455v51.527c0 8.703 7.08 15.783 15.783 15.783h215.367c8.703 0 15.783-7.08 15.783-15.783v-51.527c9.584-2.965 16.566-11.91 16.566-22.455v-25.7c0-.786-.078-1.553-.191-2.307 5.031-2.642 8.474-7.911 8.474-13.977v-114.049l11.771 3.679c3.806 1.189 6.362 4.667 6.362 8.654v118.283c0 12.985 7.719 24.669 19.664 29.766 3.15 1.344 5.186 4.561 5.186 8.195v54.431c-.666.219-1.328.457-1.98.737h.001l-82.027 35.154c-7.138 3.059-12.211 9.301-13.936 16.584h-186.714c-1.726-7.288-6.798-13.526-13.934-16.584l-82.026-35.154c-.652-.28-1.314-.518-1.98-.737v-54.431c0-3.635 2.035-6.852 5.187-8.195 11.944-5.097 19.663-16.78 19.663-29.766v-67.833c0-4.143-3.357-7.5-7.5-7.5s-7.5 3.357-7.5 7.5v67.833c0 6.967-4.141 13.234-10.549 15.969-8.688 3.705-14.301 12.338-14.301 21.992v54.424c-2.003.659-3.938 1.579-5.748 2.772-6.774 4.467-10.819 11.978-10.819 20.093v119.914c0 10.572 6.921 19.683 16.567 22.862v31.891c0 22.405 18.228 40.633 40.633 40.633h33.134c4.143 0 7.5-3.357 7.5-7.5s-3.357-7.5-7.5-7.5h-33.134c-11.525 0-21.296-7.647-24.511-18.133h380.356c-3.215 10.486-12.986 18.133-24.511 18.133h-268.2c-4.143 0-7.5 3.357-7.5 7.5s3.357 7.5 7.5 7.5h268.2c22.405 0 40.633-18.228 40.633-40.633v-31.89c9.647-3.179 16.567-12.29 16.567-22.862v-119.915c0-8.114-4.045-15.626-10.819-20.092zm-129.999-260.821c0-.095 0-.382.301-.617.175-.137.343-.17.471-.17.092 0 .164.018.202.027l49.699 12.426c.35.087.594.399.594.759v12.375.079 91.867h-51.267zm50.484 149.88h-8-41.7c-.432 0-.783-.352-.783-.784v-17.35h51.267v17.35c-.001.433-.353.784-.784.784zm-265.067 0c-.432 0-.783-.352-.783-.784v-17.35h51.267v17.35c0 .433-.352.784-.783.784h-41.7zm65.484-.784v-37.146c19.868 12.843 43.18 19.796 67.05 19.796s47.182-6.953 67.05-19.796v37.146c0 .265.027.523.04.784h-134.18c.013-.261.04-.519.04-.784zm67.05-58.766c27.679 0 52.182-13.791 67.05-34.847v38.035c-19.048 14.992-42.714 23.228-67.05 23.228-24.337 0-48.002-8.236-67.05-23.227v-38.035c14.868 21.056 39.371 34.846 67.05 34.846zm-132.723-78.664 49.698-12.426c.039-.01.11-.027.203-.027.128 0 .296.033.471.17.301.235.301.523.301.617v116.746h-51.267v-91.867c0-.026 0-.052 0-.079v-12.375c0-.359.244-.672.594-.759zm240.406 254.18h-215.367c-.432 0-.783-.352-.783-.783v-50.483h216.934v50.482c-.001.433-.352.784-.784.784zm17.35-74.766c0 4.687-3.814 8.5-8.5 8.5h-233.067c-4.687 0-8.5-3.813-8.5-8.5v-25.7c0-.275.225-.5.5-.5h41.7 165.666 41.7c.275 0 .5.225.5.5v25.7zm66.266 257h-382.6v-22.633l66.677 4.445c.54.036 1.076.054 1.609.054 5.465-.001 10.569-1.862 14.658-5.016h216.709c4.089 3.153 9.194 5.016 14.661 5.016.532 0 1.07-.018 1.609-.054l66.677-4.445zm-265.066-122.549v18.134h-20.802l1.262-18.134zm167.074 0 1.262 18.134h-20.802v-18.134zm-152.074 84.4v-18.134h117.533v18.134zm-38.107-33.134 1.262-18.133h191.225l1.262 18.133zm155.64-33.133h-117.533v-18.134h117.533zm-157.783 63.927 1.099-15.794h24.151v18.134h-25.533c.131-.767.226-1.548.283-2.34zm172.783 2.34v-18.134h24.151l1.1 15.812c.057.786.151 1.56.281 2.321h-25.532zm-281.634-129.018c0-3.103 1.485-5.862 4.076-7.57 1.525-1.005 3.233-1.515 4.964-1.515 1.207 0 2.426.248 3.598.751h.001l82.027 35.154c3.551 1.522 5.749 5.133 5.471 9.005l-6.248 89.793c-.357 4.96-4.697 8.715-9.646 8.395l-75.778-5.052c-4.746-.316-8.464-4.29-8.464-9.047v-119.914zm415.735 119.915c0 4.757-3.718 8.73-8.464 9.047l-75.778 5.052c-4.966.321-9.289-3.436-9.646-8.376l-6.25-89.83c-.277-3.854 1.921-7.465 5.472-8.986l82.027-35.154h.001c1.172-.503 2.39-.751 3.598-.751 1.73 0 3.44.51 4.964 1.515 2.591 1.708 4.076 4.468 4.076 7.57z"/></g></svg>