<svg id="Capa_1" enable-background="new 0 0 511.879 511.879" height="512" viewBox="0 0 511.879 511.879" width="512" xmlns="http://www.w3.org/2000/svg"><g><g><path d="m38.845 496.396-23.363-23.363c-11.298-11.298-10.5-29.847 1.728-40.132l156.038-131.257 36.987 36.987-131.258 156.037c-10.285 12.227-28.834 13.026-40.132 1.728z" fill="#766e6e"/><path d="m38.845 496.396-21.457-21.457c11.299 11.299 29.843 10.505 40.128-1.723l131.261-156.038 21.457 21.457-131.26 156.038c-10.286 12.228-28.83 13.022-40.129 1.723z" fill="#5b5555"/><circle cx="307.988" cy="203.889" fill="#f99675" r="196.389"/><path d="m504.378 203.889c0 108.46-87.919 196.392-196.38 196.392-16.671 0-32.853-2.078-48.307-5.995 85.101-21.52 148.073-98.608 148.073-190.396s-62.971-168.877-148.072-190.397c15.453-3.917 31.635-5.995 48.307-5.995 108.459 0 196.379 87.931 196.379 196.391z" fill="#f68157"/><path d="m459.632 203.892c0 72.693-51.149 133.432-119.411 148.204-10.39 2.257-21.174 3.439-32.232 3.439-83.752 0-151.644-67.892-151.644-151.644 0-83.751 67.892-151.644 151.644-151.644 11.059 0 21.842 1.182 32.232 3.44 68.262 14.773 119.411 75.512 119.411 148.205z" fill="#c8effe"/><path d="m459.632 203.892c0 72.693-51.149 133.432-119.411 148.204 41.38-35.982 67.546-89.042 67.546-148.204s-26.166-112.222-67.546-148.204c68.262 14.772 119.411 75.511 119.411 148.204z" fill="#99e6fc"/><g fill="#fe646f"><path d="m307.989 250.649c-9.665 0-17.5-7.835-17.5-17.5 0-19.151 11.328-36.251 28.859-43.566 11.762-4.907 19.05-16.773 18.136-29.527-1.014-14.13-12.38-25.828-26.439-27.21-15.949-1.562-30.146 9.537-32.343 25.276-.189 1.361-.286 2.758-.286 4.146 0 9.665-7.835 17.5-17.5 17.5s-17.5-7.835-17.5-17.5c0-2.998.209-6.019.621-8.979 4.803-34.407 35.726-58.682 70.432-55.275 15.024 1.477 29.154 8.314 39.786 19.254 10.618 10.924 17.06 25.231 18.14 40.286 1.99 27.773-13.911 53.626-39.569 64.331-4.456 1.859-7.336 6.281-7.336 11.265-.001 9.664-7.836 17.499-17.501 17.499z"/><path d="m307.989 310.088c-9.665 0-17.5-7.835-17.5-17.5v-.147c0-9.665 7.835-17.5 17.5-17.5s17.5 7.835 17.5 17.5v.147c0 9.665-7.835 17.5-17.5 17.5z"/></g></g><g><path d="m307.988 0c-42.155 0-82.613 12.758-117 36.894-33.612 23.592-59.065 56.266-73.609 94.489-1.473 3.871.472 8.204 4.343 9.677 3.871 1.472 8.204-.471 9.677-4.343 13.474-35.41 37.06-65.683 68.208-87.546 31.848-22.355 69.325-34.171 108.381-34.171 104.154 0 188.891 84.736 188.891 188.89s-84.736 188.89-188.891 188.89-188.89-84.735-188.89-188.89c0-11.837 1.107-23.714 3.29-35.302.768-4.07-1.911-7.992-5.981-8.759-4.071-.766-7.991 1.911-8.759 5.981-2.355 12.501-3.55 25.313-3.55 38.079 0 42.95 13.361 82.832 36.128 115.733l-127.844 107.547c-7.432 6.247-11.933 15.393-12.35 25.094-.418 9.704 3.284 19.208 10.152 26.07l23.358 23.358c6.516 6.521 15.406 10.188 24.591 10.188.493 0 .987-.011 1.482-.032 9.7-.417 18.847-4.919 25.093-12.35l25.38-30.18c2.666-3.17 2.257-7.901-.913-10.567-3.171-2.667-7.901-2.256-10.567.913l-25.381 30.182c-3.601 4.284-8.664 6.775-14.256 7.016-5.598.244-10.857-1.808-14.819-5.773l-23.363-23.363c-3.962-3.959-6.012-9.221-5.771-14.817.241-5.592 2.732-10.655 7.019-14.258l127.187-106.993c9.197 11.406 19.593 21.802 30.999 30.999l-59.162 70.327c-2.667 3.17-2.259 7.901.911 10.567 1.406 1.183 3.12 1.761 4.824 1.761 2.137 0 4.26-.909 5.743-2.672l59.717-70.987c32.901 22.767 72.783 36.128 115.733 36.128 112.426 0 203.891-91.464 203.891-203.89s-91.466-203.89-203.892-203.89z"/><path d="m307.988 363.032c87.752 0 159.144-71.391 159.144-159.143s-71.392-159.143-159.144-159.143-159.143 71.391-159.143 159.143 71.391 159.143 159.143 159.143zm0-303.286c79.481 0 144.144 64.662 144.144 144.143s-64.662 144.143-144.144 144.143c-79.48 0-144.143-64.662-144.143-144.143s64.663-144.143 144.143-144.143z"/><path d="m260.919 187.27c13.785 0 25-11.215 25-25 0-1.079.07-2.126.207-3.112 1.641-11.741 12.268-20.027 24.19-18.844 10.466 1.027 18.931 9.748 19.69 20.28.682 9.538-4.762 18.404-13.548 22.065-20.333 8.49-33.471 28.309-33.471 50.491 0 13.785 11.215 25 25 25s25-11.215 25-25c0-1.951 1.07-3.657 2.728-4.348 28.636-11.945 46.384-40.794 44.164-71.783-.312-4.403-1.044-8.789-2.174-13.037-1.065-4.003-5.174-6.386-9.176-5.32-4.003 1.065-6.385 5.173-5.32 9.176.888 3.335 1.462 6.782 1.708 10.248 1.759 24.556-12.297 47.411-34.977 56.872-7.262 3.028-11.953 10.169-11.953 18.192 0 5.514-4.486 10-10 10s-10-4.486-10-10c0-16.112 9.519-30.498 24.245-36.647 14.739-6.141 23.876-21.001 22.735-36.982-1.279-17.729-15.547-32.403-33.186-34.134-19.951-1.97-37.754 11.957-40.514 31.699-.232 1.672-.351 3.416-.351 5.185 0 5.514-4.486 10-10 10s-10-4.486-10-10c0-2.645.185-5.32.547-7.944 4.241-30.398 31.597-51.859 62.267-48.853 12.754 1.259 24.874 6.946 34.127 16.013 2.956 2.898 7.705 2.851 10.605-.107 2.899-2.958 2.852-7.707-.107-10.606-11.685-11.45-27.01-18.634-43.157-20.228-38.719-3.788-73.233 23.314-78.592 61.718-.457 3.311-.689 6.678-.689 10.007.002 13.784 11.216 24.999 25.002 24.999z"/><path d="m307.989 267.441c-13.785 0-25 11.215-25 25v.147c0 13.785 11.215 25 25 25s25-11.215 25-25v-.147c0-13.786-11.215-25-25-25zm10 25.147c0 5.514-4.486 10-10 10s-10-4.486-10-10v-.147c0-5.514 4.486-10 10-10s10 4.486 10 10z"/></g></g></svg>