<svg id="Capa_1" enable-background="new 0 0 512 512" height="512" viewBox="0 0 512 512" width="512" xmlns="http://www.w3.org/2000/svg"><g><g><g><path d="m276.093 353.009h143.962c30.479 0 57.009 20.836 64.232 50.447l19.542 80.11c2.6 10.658-5.471 20.934-16.441 20.934h-300.175l24.649-101.045c7.223-29.61 33.752-50.446 64.231-50.446z" fill="#766e6e"/><path d="m356.548 353.011c30.47 0 57 20.84 64.23 50.45l24.65 101.039h41.96c10.97 0 19.04-10.27 16.44-20.93l-19.54-80.109c-7.22-29.61-33.75-50.45-64.23-50.45z" fill="#5b5555"/></g><g><path d="m155.156 318.55-.729-2.446c-2.163-7.262 3.126-14.683 10.701-14.863 8.106-.193 15.215 5.327 17.052 13.2l8.319 35.647h.003c.001 0 .001.001.001.001l20.329 87.116h-.004l.001.005 15.7 67.29h-63.742c-3.138 0-5.862-2.162-6.575-5.218l-14.482-62.072-.001-.005h-31.003c-7.818 0-14.545-6.008-14.913-13.818-.393-8.338 6.251-15.221 14.503-15.221-8.019 0-14.52-6.501-14.52-14.52s6.501-14.519 14.52-14.519h-33.517c-7.818 0-14.545-6.008-14.913-13.818-.393-8.338 6.251-15.221 14.503-15.221h33.926z" fill="#ffdfcf"/><path d="m153.949 312.101c.3.75.54 1.53.73 2.34l8.32 35.65 20.33 87.119 15.7 67.29h27.5l-15.7-67.29-20.33-87.119-8.32-35.65c-1.82-7.79-8.79-13.28-16.79-13.2-6.29.05-11.1 5.02-11.44 10.86z" fill="#ffcebf"/><path d="m7.68 310.381v30.69c0 4.98 4.04 9.02 9.01 9.02h94.849l19.48 65.4h29.167c11.893 0 20.431-11.452 17.036-22.85l-12.674-42.549-9.123-30.632c-3.196-10.731-13.063-18.088-24.26-18.088h-114.475c-4.976-.001-9.01 4.033-9.01 9.009z" fill="#766e6e"/><path d="m95.8 422.691c0 4.01 1.62 7.63 4.25 10.26s6.26 4.26 10.27 4.26h31.41c8.02 0 14.52-6.51 14.52-14.52 0-8.02-6.5-14.52-14.52-14.52 8.02 0 14.52-6.5 14.52-14.52s-6.5-14.52-14.52-14.52h-31.41c-8.02 0-14.52 6.5-14.52 14.52s6.5 14.52 14.52 14.52c-8.02 0-14.52 6.5-14.52 14.52z" fill="#ffdfcf"/></g><path d="m292.962 398.654 55.112 19.832 70.211-20.884c17.593-5.233 29.655-21.406 29.655-39.76 0-22.91-18.572-41.482-41.482-41.482h-99.451c-22.91 0-41.482 18.572-41.482 41.482v1.781c0 17.493 10.976 33.107 27.437 39.031z" fill="#9e9797"/><path d="m400.23 402.971 18.05-5.37c17.6-5.23 29.66-21.4 29.66-39.76 0-11.46-4.64-21.82-12.15-29.33-7.5-7.51-17.88-12.15-29.33-12.15h-34.12c13.2 0 25.15 5.35 33.8 14s14 20.6 14 33.8c0 15.7-7.66 30.01-19.91 38.81z" fill="#766e6e"/><g><path d="m333.053 7.504c-42.121 0-76.266 34.145-76.266 76.266v24.723l76.266 28.828 76.266-28.828v-24.724c-.001-42.12-34.146-76.265-76.266-76.265z" fill="#766e6e"/><path d="m369.379 108.489-56.3 21.28 19.97 7.55 76.269-28.83v-24.72c0-42.12-34.15-76.269-76.269-76.269-6.91 0-13.61.92-19.97 2.64 32.44 8.78 56.3 38.42 56.3 73.629z" fill="#5b5555"/><path d="m440.722 237.654c30.477-30.511-12.564-84.579-12.564-84.579h-68.893v85.578z" fill="#e49280"/><path d="m310.572 322.841h5.1v30.17h75.349v-89.369c5.57 3.31 12.18 5.02 19.22 4.52 16.22-1.15 29.35-14.29 30.48-30.51 1.35-19.27-13.89-35.33-32.88-35.33-6.14 0-11.89 1.68-16.82 4.61v-65.74h-139.099l-13.32 99.389c-5.84 43.541 28.03 82.26 71.97 82.26z" fill="#ffdfcf"/><path d="m315.672 322.841v28.265c0 20.807 16.868 37.675 37.675 37.675 20.807 0 37.675-16.868 37.675-37.675v-87.464c5.57 3.31 12.18 5.02 19.22 4.52 16.22-1.15 29.35-14.29 30.48-30.51 1.35-19.27-13.89-35.33-32.88-35.33-6.14 0-11.89 1.68-16.82 4.61v-65.74h-17.58v140.499c0 22.72-18.42 41.15-41.15 41.15z" fill="#ffcebf"/><path d="m415.084 108.493h-164.063c-7.221 0-13.075 5.854-13.075 13.075v31.507c0 7.221 5.854 13.075 13.075 13.075h164.064c7.221 0 13.075-5.854 13.075-13.075v-31.507c-.001-7.221-5.855-13.075-13.076-13.075z" fill="#766e6e"/><path d="m368.179 166.157h46.9c7.22 0 13.08-5.86 13.08-13.08v-31.51c0-7.22-5.86-13.07-13.08-13.07h-46.9c7.22 0 13.07 5.85 13.07 13.07v31.51c0 7.22-5.85 13.08-13.07 13.08z" fill="#5b5555"/></g></g><g><path d="m511.115 481.793-19.54-80.122c-4.958-20.299-18.062-37.242-36.259-47.156-.321-4.788-1.325-9.471-3.021-13.957-1.465-3.874-5.791-5.828-9.667-4.364-3.875 1.464-5.829 5.793-4.364 9.667 1.443 3.82 2.176 7.85 2.176 11.979 0 .329-.008.658-.026 1.084-.462 14.66-10.211 27.313-24.263 31.487l-67.858 20.188-52.795-19.006c-13.445-4.836-22.479-17.684-22.479-31.972 0 0 .052-4.015.156-5.072 1.089-11.316 7.825-21.32 17.781-26.664 5.596 1.414 11.365 2.247 17.224 2.421v20.805c0 24.907 20.263 45.17 45.17 45.17 12.076 0 23.422-4.702 31.938-13.232 8.539-8.526 13.241-19.868 13.241-31.937v-27.252h7.93c4.13 0 8.159.732 11.978 2.175.874.33 1.77.487 2.651.487 3.028 0 5.882-1.849 7.017-4.85 1.465-3.875-.489-8.203-4.363-9.667-5.52-2.087-11.334-3.145-17.282-3.145h-7.93v-34.188c3.967.934 8.093 1.267 12.25.97 19.006-1.348 34.5-16.044 37.119-34.684 13.054-14.667 14.778-35.28 4.933-59.828-5.71-14.238-13.75-25.921-17.172-30.574v-28.989c0-10.759-8.306-19.601-18.84-20.487v-17.31c-.001-46.191-37.58-83.77-83.771-83.77-18.134 0-35.396 5.706-49.924 16.5-3.324 2.471-4.017 7.168-1.546 10.493 2.47 3.324 7.166 4.017 10.493 1.547 11.92-8.858 26.09-13.54 40.977-13.54 37.92 0 68.771 30.85 68.771 68.77v17.223h-137.53v-17.223c0-11.255 2.629-21.977 7.812-31.868 1.923-3.669.508-8.202-3.161-10.125-3.667-1.923-8.201-.508-10.124 3.161-6.233 11.892-9.527 25.319-9.527 38.832v17.311c-10.536.884-18.843 9.726-18.843 20.487v31.507c0 7.459 4.003 13.984 9.961 17.592l-9.24 68.92c-3.066 22.899 3.902 46.006 19.119 63.396 6.773 7.74 14.895 13.989 23.85 18.565-7.529 6.827-12.822 15.884-14.996 25.936-23.359 5.492-42.382 21.94-51.282 44l-18.377-78.751c-2.635-11.275-12.904-19.276-24.53-18.99-5.506.131-10.56 2.592-14.058 6.794-5.574-4.205-12.461-6.664-19.725-6.664h-93.93v-6.312c0-4.142-3.357-7.5-7.5-7.5s-7.5 3.358-7.5 7.5v6.312h-5.551c-9.104 0-16.51 7.406-16.51 16.51v30.69c0 9.109 7.406 16.52 16.51 16.52h38.818c-.857 2.557-1.244 5.278-1.11 8.065.543 11.761 10.383 20.974 22.402 20.974h12.647c-.744 2.206-1.147 4.566-1.147 7.02 0 5.552 2.065 10.631 5.469 14.508-3.791 4.304-5.721 9.802-5.45 15.587.557 11.756 10.401 20.965 22.412 20.965h25.048l3.818 16.364c.808 3.461 3.89 5.798 7.297 5.798.564 0 1.138-.064 1.711-.198 4.033-.941 6.541-4.974 5.6-9.008l-3.473-14.887c7.653-3.442 13-11.127 13.018-20.044 6.649-.924 12.607-4.418 16.704-9.915 4.816-6.462 6.257-14.599 3.954-22.32l-22.789-76.539c-.523-1.759.26-3.102.62-3.598.429-.59 1.398-1.586 3.067-1.625 4.562-.124 8.542 3.01 9.57 7.406l42.204 180.854h-53.699l-1.227-5.254c-.941-4.034-4.976-6.541-9.008-5.599-4.034.941-6.541 4.974-5.6 9.008l1.363 5.843c1.523 6.479 7.231 11.003 13.881 11.003h324.6c7.546 0 14.547-3.404 19.208-9.34s6.307-13.542 4.519-20.868zm-67.501-265.462c-1.647-3.092-3.71-5.993-6.174-8.636-7.628-8.181-18.413-12.873-29.59-12.873-3.153 0-6.28.368-9.32 1.086v-22.259h16.555c5.501 0 10.493-2.183 14.188-5.712 7.267 11.717 17.211 31.499 14.341 48.394zm-198.168-94.763c0-3.074 2.501-5.575 5.574-5.575h164.063c3.074 0 5.575 2.501 5.575 5.575v31.507c0 3.074-2.501 5.574-5.575 5.574h-164.062c-3.073 0-5.574-2.501-5.574-5.574v-31.507zm16.128 171.537c-12.368-14.135-18.032-32.916-15.54-51.527l9.107-67.929h16.181v17.72c0 4.142 3.357 7.5 7.5 7.5s7.5-3.358 7.5-7.5v-17.72h39.399v17.72c0 4.142 3.357 7.5 7.5 7.5s7.5-3.358 7.5-7.5v-17.72h42.808v33.283c0 2.696 1.447 5.185 3.791 6.519 2.343 1.334 5.223 1.307 7.54-.071 3.917-2.327 8.408-3.557 12.989-3.557 7.135 0 13.747 2.877 18.619 8.102 4.867 5.22 7.271 12.04 6.77 19.206-.874 12.537-10.985 22.661-23.521 23.55-5.266.373-10.397-.831-14.853-3.483-2.317-1.38-5.198-1.408-7.543-.075s-3.793 3.823-3.793 6.52v87.469c0 8.059-3.14 15.631-8.848 21.331-5.691 5.7-13.267 8.839-21.332 8.839-16.636 0-30.17-13.534-30.17-30.17v-20.774h20.306c4.143 0 7.5-3.358 7.5-7.5s-3.357-7.5-7.5-7.5l-32.915.004c-18.771-.001-36.629-8.105-48.995-22.237zm-114.916 24.787h-38.482l-3.374-9.021h26.366c6.566.001 12.385 3.506 15.49 9.021zm-131.479 23.179v-30.69c0-.833.678-1.51 1.51-1.51h72.099l7.162 19.148c1.096 2.93 3.896 4.873 7.024 4.873h48.627l2.888 9.699h-137.8c-.832 0-1.51-.682-1.51-1.52zm126.554 88.639c-.001 0-.002 0-.004 0h-31c-3.922 0-7.255-2.994-7.429-6.67-.092-1.949.595-3.794 1.931-5.195 1.335-1.399 3.136-2.171 5.073-2.175h31.425c3.87 0 7.02 3.149 7.02 7.02 0 3.87-3.147 7.018-7.016 7.02zm-.003-29.039h-31.396c-.005 0-.01-.001-.015-.001-3.871 0-7.021-3.149-7.021-7.02 0-3.867 3.143-7.013 7.009-7.019h.008 31.414c3.87 0 7.02 3.149 7.02 7.02 0 3.87-3.149 7.02-7.019 7.02zm-64.931-29.041c-3.921 0-7.249-2.99-7.419-6.679-.093-1.943.591-3.784 1.924-5.183 1.334-1.4 3.133-2.172 5.065-2.177h29.577l4.182 14.039zm91.626 32.227c-1.958 2.627-4.96 4.134-8.237 4.134h-1.772c3.318-3.856 5.334-8.865 5.334-14.34 0-12.142-9.878-22.02-22.02-22.02h-15.95l-4.182-14.04h37.358l11.075 37.194c.936 3.139.351 6.446-1.606 9.072zm46.592 18.306 4.13-16.935c4.899-20.078 19.778-35.776 39.013-41.918 1.449 19.09 14.044 35.845 32.258 42.396l50.155 18.056v73.238h-108.092zm279.782 71.233c-1.798 2.29-4.499 3.604-7.41 3.604h-131.815v-72.918l64.851-19.293c16.423-4.878 28.768-17.791 33.208-33.714 11.621 8.093 19.942 20.116 23.371 34.152l19.54 80.121c.689 2.826.053 5.759-1.745 8.048z"/><path d="m323.436 256.887c4.143 0 7.5-3.358 7.5-7.5 0-6.657 5.416-12.074 12.073-12.074 4.143 0 7.5-3.358 7.5-7.5s-3.357-7.5-7.5-7.5c-14.929 0-27.073 12.145-27.073 27.074 0 4.142 3.357 7.5 7.5 7.5z"/><path d="m402.439 249.628c4.143 0 7.5-3.358 7.5-7.5 0-3.125 2.542-5.666 5.666-5.666 4.143 0 7.5-3.358 7.5-7.5s-3.357-7.5-7.5-7.5c-11.396 0-20.666 9.271-20.666 20.666 0 4.142 3.357 7.5 7.5 7.5z"/><path d="m303.858 212.724c-1.658 0-2.482-1.046-2.825-1.67-.344-.624-.787-1.879.101-3.28l13.579-21.445c2.216-3.5 1.175-8.133-2.324-10.349-3.5-2.217-8.134-1.176-10.35 2.324l-13.579 21.445c-3.554 5.614-3.771 12.717-.568 18.538 3.204 5.821 9.322 9.437 15.967 9.437 4.143 0 7.5-3.358 7.5-7.5s-3.359-7.5-7.501-7.5z"/></g></g></svg>