<svg id="Capa_1" enable-background="new 0 0 512 512" height="512" viewBox="0 0 512 512" width="512" xmlns="http://www.w3.org/2000/svg"><g><g><g><g><path d="m220.48 353.852h143.96c30.479 0 57.008 20.836 64.231 50.446l19.542 80.11c2.6 10.658-5.471 15.934-16.441 15.934h-275.137c-12.745 0-22.122-6.939-19.101-19.321l18.716-76.723c7.222-29.61 33.752-50.446 64.23-50.446z" fill="#f99675"/><path d="m300.935 353.855c30.47 0 56.999 20.84 64.229 50.449l24.65 96.038h41.959c10.97 0 19.04-5.27 16.44-15.93l-19.54-80.109c-7.22-29.61-33.749-50.449-64.229-50.449h-63.509z" fill="#f68157"/></g><g><path d="m255.522 323.683h4.542v28.267c0 20.807 16.867 37.674 37.674 37.674 20.807 0 37.674-16.867 37.674-37.674v-87.466c5.567 3.309 12.18 5.023 19.219 4.525 16.216-1.148 29.341-14.294 30.477-30.51 1.351-19.273-13.891-35.334-32.876-35.334-6.14 0-11.89 1.68-16.82 4.61v-67.467c0-39.118-32.433-70.442-71.527-69.082-33.695 1.172-61.628 26.482-66.108 59.898l-14.711 109.743c-5.876 43.84 28.223 82.816 72.456 82.816z" fill="#ffdfcf"/><path d="m260.059 323.685v28.265c0 20.807 16.867 37.674 37.674 37.674 20.807 0 37.674-16.867 37.674-37.674v-87.464c5.57 3.31 12.18 5.02 19.22 4.52 16.22-1.15 29.35-14.29 30.479-30.51.973-13.881-6.664-26.097-18.109-31.843-4.443-2.231-7.161-23.491-12.471-23.491-6.14 0-2.772 6.122-7.702 9.052l6.583-59.384-35.58-43.199v192.905c0 22.72-18.42 41.149-41.149 41.149z" fill="#ffcebf"/></g></g><g><g fill="#f9f3f1"><path d="m474.496 21.05h30v469.9h-30z"/><path d="m323.833 21.05h30v469.9h-30z"/><path d="m131.669 21.05h30v469.9h-30z"/><path d="m7.504 21.05h30v469.9h-30z"/></g><path d="m504.496 468.275h-496.992v18.172c0 9.969 8.081 18.05 18.05 18.05h460.893c9.969 0 18.05-8.081 18.05-18.05v-18.172z" fill="#766e6e"/><path d="m486.446 7.504h-460.892c-9.969 0-18.05 8.081-18.05 18.05v18.172h496.992v-18.172c0-9.969-8.081-18.05-18.05-18.05z" fill="#766e6e"/><path d="m504.496 468.268v18.17c0 9.97-8.08 18.049-18.05 18.049h-43.869c9.97 0 18.05-8.08 18.05-18.049v-18.17z" fill="#5b5555"/><path d="m504.496 25.546v18.18h-43.869v-18.18c0-9.96-8.08-18.05-18.05-18.05h43.869c9.97 0 18.05 8.09 18.05 18.05z" fill="#5b5555"/></g><g><path d="m158.437 392.866c7.12 0 12.892-5.772 12.892-12.892s-5.772-12.892-12.892-12.892h-27.231c-7.12 0-12.892 5.772-12.892 12.892s5.772 12.892 12.892 12.892c-7.12 0-12.892 5.772-12.892 12.892 0 7.12 5.772 12.892 12.892 12.892-7.12 0-12.892 5.772-12.892 12.892 0 7.12 5.772 12.892 12.892 12.892h27.231c7.12 0 12.892-5.772 12.892-12.892 0-7.12-5.772-12.892-12.892-12.892 7.12 0 12.892-5.772 12.892-12.892 0-7.12-5.772-12.892-12.892-12.892z" fill="#ffdfcf"/><path d="m158.439 418.648c3.56 0 6.78 1.44 9.12 3.77 2.33 2.34 3.77 5.56 3.77 9.12 0 7.12-5.77 12.9-12.89 12.9h-23.81c7.12 0 12.89-5.78 12.89-12.9 0-3.56-1.44-6.78-3.78-9.12-2.33-2.33-5.55-3.77-9.11-3.77 7.12 0 12.89-5.77 12.89-12.89 0-3.56-1.44-6.78-3.78-9.12-2.33-2.33-5.55-3.77-9.11-3.77 7.12 0 12.89-5.78 12.89-12.9s-5.77-12.89-12.89-12.89h23.81c7.12 0 12.89 5.77 12.89 12.89s-5.77 12.9-12.89 12.9c3.56 0 6.78 1.44 9.12 3.77 2.33 2.34 3.77 5.56 3.77 9.12 0 7.12-5.77 12.89-12.89 12.89z" fill="#ffcebf"/></g><g><g><path d="m409.915 468.607h-54.089l-2.5-24.18h-31.849c-7.1 0-13.29-5.81-13.28-12.91.01-3.55 1.45-6.76 3.78-9.09 2.33-2.34 5.56-3.78 9.12-3.78-7.12 0-12.9-5.77-12.9-12.89 0-3.56 1.45-6.78 3.78-9.11 2.33-2.34 5.56-3.78 9.12-3.78-7.12 0-12.9-5.78-12.9-12.9 0-3.56 1.45-6.78 3.78-9.12 2.33-2.33 5.56-3.77 9.12-3.77h31.812c26.434 0 48.589 19.986 51.303 46.28z" fill="#ffdfcf"/></g><g><path d="m409.912 468.598h-31.3l-5.7-55.239c-2.71-26.3-24.87-46.289-51.299-46.289h31.3c26.43 0 48.589 19.99 51.299 46.289z" fill="#ffcebf"/></g></g></g><g><path d="m277.608 166.61c-4.143 0-7.5 3.358-7.5 7.5v18.104c0 4.142 3.357 7.5 7.5 7.5s7.5-3.358 7.5-7.5v-18.104c0-4.142-3.357-7.5-7.5-7.5z"/><path d="m230.71 192.214v-18.104c0-4.142-3.357-7.5-7.5-7.5s-7.5 3.358-7.5 7.5v18.104c0 4.142 3.357 7.5 7.5 7.5s7.5-3.358 7.5-7.5z"/><path d="m245.133 239.865c-7.232 0-14.031 2.816-19.145 7.93-2.929 2.929-2.929 7.678.001 10.606 2.928 2.93 7.677 2.929 10.606 0 2.28-2.28 5.312-3.536 8.537-3.536s6.256 1.256 8.536 3.536c1.465 1.465 3.384 2.197 5.304 2.197 1.919 0 3.839-.732 5.303-2.197 2.93-2.929 2.93-7.677.001-10.606-5.113-5.114-11.912-7.93-19.143-7.93z"/><path d="m232.278 219.132c3.204 5.821 9.321 9.437 15.966 9.437 4.143 0 7.5-3.358 7.5-7.5s-3.357-7.5-7.5-7.5c-1.658 0-2.481-1.046-2.824-1.67-.344-.624-.787-1.879.101-3.28l13.578-21.445c2.216-3.5 1.175-8.133-2.325-10.349-3.497-2.217-8.133-1.176-10.349 2.324l-13.578 21.445c-3.554 5.614-3.772 12.717-.569 18.538z"/><path d="m511.996 25.553c0-14.088-11.462-25.549-25.55-25.549h-460.892c-14.088 0-25.55 11.461-25.55 25.549l-.004 460.893c0 14.088 11.462 25.55 25.55 25.55h460.9c14.088 0 25.55-11.461 25.55-25.55zm-30 435.223v-409.551h15v409.55h-15zm-150.667-8.85h14.999v8.85h-14.999zm31.234 8.85-1.773-17.122c-.396-3.823-3.617-6.728-7.46-6.728h-31.85c-1.534 0-3.063-.651-4.196-1.786-.593-.593-1.587-1.852-1.584-3.604.004-1.438.566-2.79 1.597-3.82 1.004-1.009 2.347-1.564 3.785-1.569.005 0 .009.001.014.001h27.172c4.143 0 7.5-3.358 7.5-7.5s-3.357-7.5-7.5-7.5h-27.12c-.016 0-.032-.002-.048-.002-2.978 0-5.399-2.418-5.399-5.39 0-1.434.562-2.785 1.596-3.819 1.005-1.008 2.348-1.564 3.786-1.569.005 0 .009.001.014.001h27.172c4.143 0 7.5-3.358 7.5-7.5s-3.357-7.5-7.5-7.5h-27.12c-.016 0-.032-.002-.048-.002-2.978 0-5.399-2.422-5.399-5.4 0-1.436.566-2.795 1.585-3.818 1.013-1.014 2.368-1.572 3.814-1.572h31.811c22.668 0 41.516 17.002 43.84 39.55l4.816 46.65h-39.005zm-95.003-129.596h20.312c4.143 0 7.5-3.358 7.5-7.5s-3.357-7.5-7.5-7.5l-32.353.005c-18.918 0-36.912-8.167-49.369-22.407-12.459-14.241-18.162-33.164-15.646-51.917l14.71-109.741c1.931-14.411 8.928-27.72 19.705-37.481 10.765-9.765 24.696-15.418 39.249-15.92.709-.026 1.425-.035 2.132-.035 4.143 0 7.5-3.358 7.5-7.5s-3.357-7.5-7.5-7.5c-.893 0-1.796.012-2.668.044-18.075.622-35.402 7.654-48.786 19.796-13.397 12.133-22.098 28.684-24.499 46.603l-14.71 109.74c-3.09 23.041 3.917 46.29 19.224 63.787 14.655 16.751 35.547 26.663 57.699 27.476v15.224h-32.08c-17.995 0-35.234 6.606-48.58 18.343-.85-.75-1.761-1.428-2.728-2.03v-311.442h147.157v31.068c-4.167-3.6-8.713-6.755-13.553-9.38-3.642-1.975-8.194-.624-10.169 3.017s-.624 8.193 3.017 10.168c8.156 4.424 15.262 10.731 20.705 18.29v255.768c-3.626.865-6.959 2.692-9.663 5.397-3.847 3.863-5.966 8.981-5.966 14.412 0 .672.04 1.335.104 1.99-1.014.103-2.034.169-3.063.169-16.642 0-30.181-13.534-30.181-30.17zm-128.388 129.596v-8.841h15v8.841zm-101.672-289.641c-4.143 0-7.5 3.358-7.5 7.5v282.14h-14.996v-409.55h14.996v92.41c0 4.142 3.357 7.5 7.5 7.5s7.5-3.358 7.5-7.5v-92.41h79.172v309.633c-7.783 2.874-13.358 10.346-13.358 19.115 0 4.887 1.731 9.376 4.609 12.892-2.878 3.516-4.609 8.005-4.609 12.893 0 4.887 1.731 9.376 4.609 12.892-2.877 3.516-4.609 8.005-4.609 12.892 0 8.769 5.575 16.241 13.358 19.115v10.117h-79.172v-282.14c0-4.141-3.357-7.499-7.5-7.499zm120.937 214.231h-27.23c-2.974 0-5.393-2.419-5.393-5.392s2.419-5.392 5.393-5.392h27.23c2.973 0 5.392 2.419 5.392 5.392s-2.42 5.392-5.392 5.392zm5.391 20.393c0 2.973-2.419 5.392-5.392 5.392h-27.23c-2.974 0-5.393-2.419-5.393-5.392s2.419-5.392 5.393-5.392h27.23c2.973-.001 5.392 2.418 5.392 5.392zm-9.656-46.177h-15v-308.357h15zm9.656 71.961c0 2.973-2.419 5.392-5.392 5.392h-27.23c-2.974 0-5.393-2.419-5.393-5.393 0-2.973 2.419-5.392 5.393-5.392h27.23c2.973 0 5.392 2.419 5.392 5.393zm197.5-219.206c3.771 1.437 7.172 3.768 9.941 6.885 4.584 5.157 6.842 11.816 6.356 18.749-.702 10-7.286 18.448-16.298 21.919v-47.553zm-15 147.239h-14.999v-308.351h14.999zm70.317 101.2-4.974-48.189c-2.59-25.13-20.5-45.107-43.928-51.13 25.683 1.423 47.481 19.361 53.647 44.614l13.339 54.705zm33.524 0-14.206-58.261c-8.073-33.066-37.481-56.16-71.515-56.16h-3.12v-70.803c16.998-3.931 30.007-18.691 31.261-36.532.77-10.994-2.82-21.564-10.108-29.763-5.676-6.385-13.019-10.702-21.152-12.556v-145.476h105.668v409.55h-16.828zm-435.165-435.223c0-5.817 4.732-10.549 10.55-10.549h460.893c5.817 0 10.55 4.732 10.55 10.549v10.672h-481.993zm481.996 460.893c0 5.817-4.732 10.55-10.55 10.55h-460.9c-5.817 0-10.55-4.732-10.55-10.55v-10.67h211.2c4.143 0 7.5-3.358 7.5-7.5s-3.357-7.5-7.5-7.5h-57.028v-11.928c5.785-3.603 9.656-10.002 9.656-17.305 0-4.887-1.731-9.376-4.609-12.892 2.877-3.516 4.609-8.005 4.609-12.892s-1.731-9.376-4.609-12.892c2.877-3.516 4.609-8.005 4.609-12.892 0-.395-.037-.78-.059-1.168 10.969-11.126 25.983-17.45 41.712-17.45h33.07c4.339 20.41 22.501 35.77 44.19 35.77 1.687 0 3.362-.103 5.023-.287-1.341 2.746-2.063 5.775-2.063 8.917 0 4.883 1.727 9.371 4.601 12.886-2.967 3.619-4.588 8.114-4.601 12.864-.007 5.317 2.112 10.372 5.97 14.234 2.679 2.683 6.049 4.561 9.659 5.498v9.538h-55.15c-4.143 0-7.5 3.358-7.5 7.5s3.357 7.5 7.5 7.5h235.82z"/><path d="m231.292 124.609c4.143 0 7.5-3.358 7.5-7.5v-.5c0-4.142-3.357-7.5-7.5-7.5s-7.5 3.358-7.5 7.5v.5c0 4.142 3.357 7.5 7.5 7.5z"/><path d="m257.64 104.564c4.143 0 7.5-3.358 7.5-7.5v-.5c0-4.142-3.357-7.5-7.5-7.5s-7.5 3.358-7.5 7.5v.5c0 4.142 3.357 7.5 7.5 7.5z"/><path d="m278.799 113.859c-4.143 0-7.5 3.358-7.5 7.5v.5c0 4.142 3.357 7.5 7.5 7.5s7.5-3.358 7.5-7.5v-.5c0-4.142-3.358-7.5-7.5-7.5z"/><path d="m302.672 113.815c4.143 0 7.5-3.358 7.5-7.5v-.5c0-4.142-3.357-7.5-7.5-7.5s-7.5 3.358-7.5 7.5v.5c0 4.142 3.357 7.5 7.5 7.5z"/></g></g></svg>