<svg id="Capa_1" enable-background="new 0 0 512 512" height="512" viewBox="0 0 512 512" width="512" xmlns="http://www.w3.org/2000/svg"><g><g><g><path d="m438.474 502.47h-234.443c-26.008 0-47.091-21.083-47.091-47.091v-314.129c0-9.887 8.015-17.902 17.902-17.902h292.821c9.887 0 17.902 8.015 17.902 17.902v314.128c0 26.009-21.083 47.092-47.091 47.092z" fill="#c8effe"/><path d="m485.565 141.248v314.134c0 26.006-21.077 47.092-47.082 47.092h-48.193c26.016 0 47.092-21.086 47.092-47.092v-314.134c0-9.889-8.014-17.903-17.903-17.903h48.193c9.879 0 17.893 8.015 17.893 17.903z" fill="#99e6fc"/><g><path d="m504.499 195.254c0 3.571-1.448 6.814-3.799 9.155-2.341 2.351-5.584 3.799-9.155 3.799h-340.586c-7.151 0-12.953-5.802-12.953-12.953 0-3.571 1.448-6.814 3.799-9.155 2.341-2.351 5.574-3.799 9.155-3.799-7.151 0-12.953-5.792-12.953-12.953 0-3.57 1.448-6.814 3.799-9.155 2.341-2.341 5.574-3.789 9.155-3.789h340.587c7.151 0 12.953 5.792 12.953 12.943 0 3.581-1.448 6.824-3.799 9.165-2.341 2.341-5.584 3.789-9.155 3.789 7.15-.001 12.952 5.801 12.952 12.953z" fill="#f99675"/></g><g><path d="m504.499 195.254c0 3.58-1.448 6.814-3.799 9.155-2.341 2.351-5.584 3.799-9.155 3.799h-50.782c3.571 0 6.814-1.448 9.155-3.799 2.351-2.341 3.799-5.574 3.799-9.155 0-7.151-5.802-12.953-12.953-12.953 3.571 0 6.814-1.448 9.155-3.789 2.351-2.351 3.799-5.584 3.799-9.165 0-7.151-5.802-12.943-12.953-12.943h50.782c7.151 0 12.953 5.792 12.953 12.943 0 3.581-1.448 6.814-3.799 9.165-2.341 2.341-5.584 3.789-9.155 3.789 7.151-.001 12.953 5.801 12.953 12.953z" fill="#f68157"/></g></g><g><path d="m345.251 375.186h-76.152c-8.18 0-14.811 6.631-14.811 14.811v54.525c0 8.18 6.631 14.81 14.811 14.81h76.152c20.827 0 40.395-9.967 52.643-26.811l4.107-5.648c4.167-5.731 4.167-13.495 0-19.227l-4.107-5.648c-12.248-16.845-31.817-26.812-52.643-26.812z" fill="#ffe177"/><path d="m345.249 459.332h-76.151c-8.177 0-14.805-6.627-14.805-14.805v-29.26c.056 8.121 6.67 14.693 14.805 14.693l76.158-.007c20.823.007 40.39-9.966 52.642-26.805l.421-.575 3.682 5.071c4.166 5.737 4.173 13.501 0 19.231l-4.103 5.646c-12.245 16.845-31.819 26.811-52.649 26.811z" fill="#fece85"/></g><g><path d="m307.969 388.653h-234.443c-26.008 0-47.091-21.083-47.091-47.091v-314.129c0-9.887 8.015-17.902 17.902-17.902h292.821c9.887 0 17.902 8.015 17.902 17.902v314.128c0 26.008-21.083 47.092-47.091 47.092z" fill="#c8effe"/><path d="m355.06 27.431v314.134c0 26.006-21.077 47.092-47.082 47.092h-48.193c26.016 0 47.092-21.086 47.092-47.092v-314.134c0-9.889-8.014-17.903-17.903-17.903h48.193c9.879 0 17.893 8.014 17.893 17.903z" fill="#99e6fc"/><g><path d="m373.994 81.436c0 3.571-1.448 6.814-3.799 9.155-2.341 2.351-5.584 3.799-9.155 3.799h-340.586c-7.151 0-12.953-5.802-12.953-12.953 0-3.571 1.448-6.814 3.799-9.155 2.341-2.351 5.574-3.799 9.155-3.799-7.151 0-12.953-5.792-12.953-12.953 0-3.57 1.448-6.814 3.799-9.155 2.341-2.341 5.574-3.789 9.155-3.789h340.587c7.151 0 12.953 5.792 12.953 12.943 0 3.581-1.448 6.824-3.799 9.165-2.341 2.341-5.584 3.789-9.155 3.789 7.15 0 12.952 5.802 12.952 12.953z" fill="#f99675"/></g><g><path d="m373.994 81.436c0 3.58-1.448 6.814-3.799 9.155-2.341 2.351-5.584 3.799-9.155 3.799h-50.782c3.571 0 6.814-1.448 9.155-3.799 2.351-2.341 3.799-5.574 3.799-9.155 0-7.151-5.802-12.953-12.953-12.953 3.571 0 6.814-1.448 9.155-3.789 2.351-2.351 3.799-5.584 3.799-9.165 0-7.151-5.802-12.943-12.953-12.943h50.782c7.151 0 12.953 5.792 12.953 12.943 0 3.581-1.448 6.814-3.799 9.165-2.341 2.341-5.584 3.789-9.155 3.789 7.151 0 12.953 5.802 12.953 12.953z" fill="#f68157"/></g></g><g><path d="m178.258 139.973h26.885v197.871h-26.885z" fill="#01d0fb" transform="matrix(-.707 .707 -.707 -.707 496.187 272.29)"/><path d="m240.76 287.968c11.811-11.811 30.962-11.811 42.773 0l15.842 15.842c11.811 11.811 11.811 30.962 0 42.773-11.811 11.811-30.962 11.811-42.773 0l-15.842-15.842c-11.812-11.812-11.812-30.962 0-42.773z" fill="#f9f3f1"/><path d="m82.117 129.325c11.811-11.811 30.962-11.811 42.773 0l15.842 15.842c11.811 11.811 11.811 30.962 0 42.773-11.811 11.811-30.962 11.811-42.773 0l-15.842-15.842c-11.811-11.811-11.811-30.961 0-42.773z" fill="#f9f3f1"/><g fill="#efe2dd"><path d="m233.948 298.431c1.473-3.815 3.738-7.385 6.817-10.464 11.811-11.811 30.957-11.811 42.768 0l15.843 15.843c11.811 11.811 11.817 30.964.007 42.775-3.072 3.072-6.648 5.344-10.464 6.817 4.208-10.829 1.929-23.586-6.81-32.324l-15.843-15.843c-8.74-8.74-21.497-11.019-32.318-6.804z"/><path d="m75.306 139.789c1.473-3.815 3.738-7.385 6.817-10.464 11.811-11.811 30.957-11.811 42.768 0l15.843 15.843c11.81 11.81 11.817 30.964.007 42.775-3.072 3.072-6.649 5.344-10.464 6.817 4.208-10.829 1.929-23.586-6.81-32.324l-15.843-15.843c-8.739-8.74-21.497-11.019-32.318-6.804z"/></g></g></g><g><path d="m512 169.352c0-10.765-8.366-19.593-18.935-20.374v-7.734c0-14.007-11.396-25.403-25.402-25.403h-105.103v-14.03c10.569-.781 18.936-9.609 18.936-20.375 0-4.911-1.742-9.422-4.638-12.951 2.896-3.529 4.638-8.04 4.638-12.951 0-10.765-8.367-19.594-18.936-20.375v-7.729c0-14.007-11.396-25.402-25.402-25.402h-292.82c-14.008 0-25.403 11.396-25.403 25.402v7.729c-10.569.782-18.935 9.61-18.935 20.375 0 4.911 1.742 9.422 4.638 12.951-2.896 3.53-4.638 8.04-4.638 12.952 0 10.765 8.366 19.593 18.935 20.374v239.754c0 30.103 24.49 54.593 54.593 54.593h75.913v59.224c0 30.101 24.489 54.59 54.59 54.59h4.569c4.143 0 7.5-3.358 7.5-7.5s-3.357-7.5-7.5-7.5h-4.569c-21.83 0-39.59-17.76-39.59-39.59v-59.224h82.349v48.36c0 12.307 10.008 22.318 22.309 22.318h76.153c23.15 0 45.1-11.181 58.711-29.907l4.109-5.648c6.095-8.388 6.095-19.66-.003-28.053l-4.105-5.643c-11.593-15.938-29.226-26.403-48.495-29.163 4.505-7.937 7.092-17.098 7.092-26.858v-125.861h115.509v239.679c0 21.83-17.765 39.59-39.601 39.59h-195.109c-4.143 0-7.5 3.358-7.5 7.5s3.357 7.5 7.5 7.5h195.11c30.106 0 54.601-24.489 54.601-54.59v-239.754c4.888-.358 9.436-2.413 12.935-5.911 3.866-3.866 5.995-9.004 5.995-14.468 0-4.905-1.74-9.41-4.632-12.937 2.999-3.641 4.631-8.173 4.631-12.96zm-44.337-38.511c5.736 0 10.402 4.667 10.402 10.403v7.657h-19.805c-4.143 0-7.5 3.358-7.5 7.5s3.357 7.5 7.5 7.5h33.29c3.005 0 5.45 2.445 5.45 5.45 0 1.458-.565 2.823-1.614 3.868-1.016 1.02-2.378 1.582-3.836 1.582h-128.99v-10.9h60.7c4.143 0 7.5-3.358 7.5-7.5s-3.357-7.5-7.5-7.5h-60.7v-18.06zm-423.325-113.813h292.819c5.736 0 10.402 4.667 10.402 10.402v7.652h-313.624v-7.652c0-5.735 4.667-10.402 10.403-10.402zm-23.887 33.055h340.593c3.006 0 5.451 2.445 5.451 5.451s-2.445 5.451-5.451 5.451h-340.593c-3.006 0-5.451-2.445-5.451-5.451s2.445-5.451 5.451-5.451zm-5.451 31.354c0-3.006 2.445-5.451 5.451-5.451h340.593c3.006 0 5.451 2.445 5.451 5.451s-2.445 5.451-5.451 5.451h-340.593c-3.006 0-5.451-2.446-5.451-5.451zm18.935 260.128v-239.677h313.625v239.677c0 21.832-17.761 39.593-39.592 39.593h-234.441c-21.831 0-39.592-17.762-39.592-39.593zm227.854 102.953v-48.36h23.275v55.678h-15.967c-4.03 0-7.308-3.283-7.308-7.318zm130.044-38.108 4.104 5.639c2.263 3.115 2.263 7.301.003 10.411l-4.108 5.646c-10.801 14.858-28.214 23.729-46.58 23.729h-45.187v-55.678h7.903c13.71 0 26.246-5.092 35.845-13.469h1.438c18.364 0 35.778 8.868 46.582 23.722zm103.564-207.299c-1.026 1.026-2.394 1.592-3.851 1.592h-5.957c-.007 0-.013-.001-.019-.001s-.013.001-.019.001h-122.991v-10.896h128.987c3.007 0 5.453 2.442 5.453 5.443 0 1.457-.569 2.828-1.603 3.861z"/><path d="m304.678 298.506-15.843-15.842c-9.243-9.243-22.126-12.677-34.077-10.309l-98.415-98.416c2.365-11.949-1.068-24.829-10.308-34.07l-15.842-15.852c-7.129-7.128-16.606-11.054-26.688-11.054s-19.56 3.926-26.688 11.054c-8.939 8.94-12.798 21.695-10.322 34.119.81 4.062 4.754 6.703 8.821 5.89 4.062-.81 6.699-4.759 5.89-8.821-1.494-7.499.83-15.192 6.219-20.581 4.295-4.295 10.006-6.661 16.081-6.661s11.786 2.365 16.08 6.659l15.842 15.852c8.867 8.868 8.867 23.296.005 32.159-4.307 4.3-10.022 6.668-16.092 6.668s-11.779-2.366-16.076-6.663l-3.47-3.47c-2.93-2.929-7.678-2.929-10.607 0s-2.929 7.678 0 10.606l3.471 3.47c7.13 7.129 16.606 11.056 26.683 11.056 2.518 0 4.998-.245 7.414-.725l98.37 98.37c-.478 2.414-.723 4.892-.723 7.408 0 10.082 3.926 19.561 11.055 26.69l15.842 15.842c7.13 7.129 16.608 11.056 26.69 11.056s19.561-3.926 26.689-11.056c14.716-14.716 14.716-38.662-.001-53.379zm-163.177-101.396c1.593-1.16 3.111-2.446 4.533-3.865 1.429-1.429 2.715-2.948 3.867-4.534l90.087 90.088c-1.586 1.151-3.104 2.437-4.532 3.866h.001c-1.421 1.421-2.708 2.938-3.869 4.532zm152.569 144.169c-4.295 4.296-10.007 6.662-16.082 6.662s-11.787-2.366-16.083-6.662l-15.842-15.842c-4.297-4.296-6.662-10.008-6.662-16.083s2.365-11.787 6.661-16.083c4.436-4.434 10.259-6.651 16.084-6.651 5.823 0 11.648 2.218 16.082 6.651l15.842 15.842c8.869 8.868 8.869 23.298 0 32.166z"/></g></g></svg>