<svg id="Capa_1" enable-background="new 0 0 512 512" height="512" viewBox="0 0 512 512" width="512" xmlns="http://www.w3.org/2000/svg"><g><g><g><path d="m458.553 105.54v159.34l-81.1 48.498-46.16-48.498v-159.34z" fill="#c8effe"/><path d="m379.481 105.54h30.9v192.715h-30.9z" fill="#f9f3f1"/><path d="m458.563 105.54v159.34l-81.1 48.5-15.95-16.76 53.08-31.74v-159.34z" fill="#99e6fc"/><path d="m458.553 264.88v175.99c0 17.57-7.12 33.48-18.64 44.99-11.51 11.52-27.42 18.64-44.99 18.64-35.14 0-63.63-28.49-63.63-63.63v-175.99z" fill="#fe646f"/><path d="m458.564 264.876v175.99c0 17.57-7.12 33.48-18.64 44.99-11.51 11.52-27.42 18.64-44.99 18.64-7.72 0-15.13-1.38-21.98-3.9 8.73-3.22 16.55-8.29 23-14.74 11.52-11.51 18.64-27.42 18.64-44.99v-175.99z" fill="#fd4755"/><path d="m458.564 138.919h-127.266c-14.254 0-25.809-11.555-25.809-25.809v-79.799c0-14.254 11.555-25.809 25.809-25.809h127.266c14.254 0 25.809 11.555 25.809 25.809v79.799c-.001 14.254-11.556 25.809-25.809 25.809z" fill="#ffe177"/><path d="m484.372 33.311v79.8c0 14.25-11.55 25.81-25.8 25.81h-52.56c14.25 0 25.81-11.56 25.81-25.81v-79.8c0-14.25-11.56-25.81-25.81-25.81h52.56c14.25 0 25.8 11.56 25.8 25.81z" fill="#fece85"/></g><g><path d="m265.869 29.38c0 44.98-24.25 74.86-55.14 98.37-6.91 5.27-14.16 10.22-21.55 14.94l-37.78 7.21-4.65-32.58c16.65-9.9 30.94-19 42.46-28.32 0-.01 0-.01 0-.01 21.11-17.08 32.92-34.88 32.92-59.61 0-12.08 9.79-21.88 21.87-21.88s21.87 9.8 21.87 21.88z" fill="#fe646f"/><path d="m265.869 29.38c0 44.98-24.25 74.86-55.14 98.37-28.51-9.11-21.68-38.12-21.52-38.75 0-.01 0-.01 0-.01 21.11-17.08 32.92-34.88 32.92-59.61 0-12.08 9.79-21.88 21.87-21.88s21.87 9.8 21.87 21.88z" fill="#fd4755"/><path d="m104.329 369.31c-40.37 25.82-76.7 58.25-76.7 113.31 0 12.08 9.79 21.88 21.87 21.88s21.87-9.8 21.87-21.88c0-38.23 28.21-59.92 75.38-87.94l-13.423-25.37z" fill="#01d0fb"/><path d="m141.232 138.919 5.517 29.131c-47.17 28.03-75.38 49.72-75.38 87.94 0 38.23 28.21 59.92 75.38 87.95 3.56 2.11 34.185-7.062 37.965-4.862 10.37 6.04 10.37 6.04 4.455 30.232 40.37 25.82 76.7 58.25 76.7 113.31 0 12.08-9.79 21.88-21.87 21.88s-21.87-9.8-21.87-21.88c0-38.23-28.21-59.92-75.38-87.94-3.56-2.12-7.23-4.27-11.01-6.47-10.37-6.04-21.02-12.25-31.41-18.9-40.37-25.82-76.7-58.26-76.7-113.32 0-55.05 36.32-87.48 76.69-113.3z" fill="#fe646f"/><path d="m265.869 482.62c0-44.98-24.25-74.86-55.14-98.37-28.51 9.11-21.68 38.12-21.52 38.75v.01c21.11 17.08 32.92 34.88 32.92 59.61 0 12.08 9.79 21.88 21.87 21.88s21.87-9.8 21.87-21.88z" fill="#fd4755"/><path d="m265.869 255.99c0 43.45-22.62 72.81-52.01 95.95-7.85 6.19-16.18 11.93-24.69 17.37-10.39-6.65-21.04-12.86-31.41-18.9-3.78-2.2-7.45-4.36-11.01-6.47 14.05-8.36 26.42-16.14 36.87-23.98 24.61-18.44 38.51-37.13 38.51-63.97 0-26.83-13.9-45.521-38.51-63.96-10.45-7.84-22.82-15.63-36.87-23.98-3.56-2.11-7.23-4.27-11.01-6.47-10.37-6.04-21.03-12.25-31.42-18.89-40.37-25.83-76.69-58.26-76.69-113.31 0-12.08 9.79-21.88 21.87-21.88s21.87 9.8 21.87 21.88c0 38.22 28.21 59.91 75.38 87.94 3.56 2.11 7.23 4.27 11.01 6.47 10.37 6.04 21.03 12.25 31.42 18.9 3.67 2.34 7.3 4.74 10.87 7.21 35.8 24.69 65.82 56.04 65.82 106.09z" fill="#01d0fb"/><path d="m265.869 255.99c0 43.45-22.62 72.81-52.01 95.95 3.12-32.31-30.24-30.23-30.24-30.23v-1.75c24.61-18.44 38.51-37.13 38.51-63.97 0-26.83-13.9-45.521-38.51-63.96v-.01c24.32-13.21 16.43-42.12 16.43-42.12 35.8 24.69 65.82 56.04 65.82 106.09z" fill="#01c0fa"/><path d="m59.519 264.88h-.01" fill="#fe646f"/></g></g><g><path d="m458.561 0h-17.55c-4.142 0-7.5 3.358-7.5 7.5s3.358 7.5 7.5 7.5h17.55c10.096 0 18.31 8.214 18.31 18.31v79.8c0 10.096-8.214 18.31-18.31 18.31h-127.26c-10.096 0-18.31-8.214-18.31-18.31v-79.8c0-10.096 8.214-18.31 18.31-18.31h74.71c4.142 0 7.5-3.358 7.5-7.5s-3.358-7.5-7.5-7.5h-74.71c-18.367 0-33.31 14.943-33.31 33.31v79.8c0 15.787 11.043 29.034 25.807 32.448v295.309c0 39.223 31.91 71.133 71.133 71.133s71.133-31.91 71.133-71.133v-295.31c14.764-3.414 25.807-16.661 25.807-32.447v-79.8c0-18.367-14.943-33.31-33.31-33.31zm-119.763 257.38v-110.96h33.183v110.96zm48.183-110.96h15.9v110.96h-15.9zm30.9 0h33.183v110.96h-33.183zm-22.95 350.579c-30.952 0-56.133-25.181-56.133-56.133v-168.486h112.266v168.486c0 30.952-25.181 56.133-56.133 56.133z"/><path d="m328.873 34.246v77.93c0 4.142 3.358 7.5 7.5 7.5s7.5-3.358 7.5-7.5v-77.93c0-4.142-3.358-7.5-7.5-7.5s-7.5 3.358-7.5 7.5z"/><path d="m367.911 34.246v77.93c0 4.142 3.358 7.5 7.5 7.5s7.5-3.358 7.5-7.5v-77.93c0-4.142-3.358-7.5-7.5-7.5s-7.5 3.358-7.5 7.5z"/><path d="m406.95 34.246v77.93c0 4.142 3.358 7.5 7.5 7.5s7.5-3.358 7.5-7.5v-77.93c0-4.142-3.358-7.5-7.5-7.5s-7.5 3.358-7.5 7.5z"/><path d="m460.989 112.176v-77.93c0-4.142-3.358-7.5-7.5-7.5s-7.5 3.358-7.5 7.5v77.93c0 4.142 3.358 7.5 7.5 7.5s7.5-3.358 7.5-7.5z"/><path d="m237.323 408.244c-3.251 2.566-3.806 7.283-1.239 10.534 14.996 18.994 22.286 39.877 22.286 63.843 0 7.929-6.446 14.38-14.37 14.38s-14.37-6.451-14.37-14.38c0-43.938-34.261-67.782-79.042-94.384-3.581-2.132-7.272-4.295-11.072-6.507-10.208-5.945-20.763-12.093-31.144-18.737-36.217-23.164-73.241-53.991-73.241-107.001 0-29.12 8.349-64.21 69.268-104.403 9.207 5.755 18.517 11.203 27.568 16.475.041.024.081.047.122.071-39.36 24.147-68.218 47.551-68.218 87.856 0 43.932 34.26 67.783 79.056 94.402 3.576 2.12 7.263 4.29 11.059 6.499 10.208 5.945 20.763 12.093 31.142 18.736 10.743 6.875 19.698 13.277 27.378 19.573 1.395 1.143 3.078 1.7 4.75 1.7 2.169 0 4.322-.937 5.805-2.745 2.626-3.204 2.158-7.929-1.045-10.555-5.71-4.681-12.069-9.398-19.227-14.28 36.328-24.701 70.581-57.938 70.581-113.33 0-55.375-34.241-88.605-70.558-113.301 36.318-24.705 70.558-57.943 70.558-113.309 0-16.2-13.175-29.38-29.37-29.38-13.604 0-25.074 9.302-28.397 21.88h-137.707c-3.323-12.579-14.793-21.881-28.397-21.881-16.195 0-29.37 13.18-29.37 29.38 0 55.366 34.239 88.603 70.559 113.309-36.318 24.697-70.557 57.927-70.557 113.301 0 55.385 34.245 88.621 70.566 113.319-36.322 24.699-70.567 57.934-70.567 113.311 0 16.2 13.175 29.38 29.37 29.38 13.604 0 25.074-9.302 28.397-21.88h137.708c3.323 12.578 14.793 21.88 28.397 21.88 16.195 0 29.37-13.18 29.37-29.38 0-27.47-8.346-51.394-25.514-73.138-2.567-3.252-7.284-3.806-10.535-1.238zm-93.722-182.324h62.831c4.238 6.985 6.8 14.374 7.756 22.57h-134.876c.956-8.196 3.518-15.585 7.756-22.57h21.533c4.142 0 7.5-3.358 7.5-7.5s-3.358-7.5-7.5-7.5h-9.397c11.132-10.982 26.915-21.728 47.546-34.13 20.631 12.402 36.414 23.147 47.546 34.13h-50.695c-4.142 0-7.5 3.358-7.5 7.5s3.358 7.5 7.5 7.5zm3.149 109.28c-20.637-12.405-36.423-23.153-47.555-34.14h95.11c-11.132 10.987-26.918 21.734-47.555 34.14zm59.686-49.14h-119.372c-4.236-6.985-6.797-14.374-7.752-22.57h134.876c-.955 8.197-3.516 15.585-7.752 22.57zm23.193-256.68c0-7.929 6.446-14.38 14.37-14.38s14.37 6.451 14.37 14.38c0 23.631-7.076 44.244-21.633 63.017-13.829 17.833-33.037 31.837-47.626 41.399-9.214-5.767-18.526-11.215-27.578-16.488-.041-.024-.081-.047-.122-.072 39.361-24.147 68.219-47.55 68.219-87.856zm-23.197 30.07h-119.366c-4.237-6.985-6.8-14.374-7.756-22.57h134.877c-.955 8.196-3.517 15.585-7.755 22.57zm-12.136 15c-11.132 10.983-26.915 21.728-47.547 34.13-20.632-12.402-36.416-23.147-47.547-34.13zm-137.534 17.946c-14.557-18.772-21.633-39.385-21.633-63.016 0-7.929 6.446-14.38 14.37-14.38s14.37 6.451 14.37 14.38c0 43.923 34.26 67.773 79.056 94.392 3.577 2.12 7.264 4.29 11.059 6.5 10.264 5.978 20.877 12.16 31.154 18.737 36.212 23.161 73.231 53.983 73.231 106.981 0 29.123-8.349 64.215-69.257 104.409-9.376-5.868-18.977-11.46-27.579-16.47-.042-.024-.081-.048-.123-.072 39.361-24.147 68.219-47.552 68.219-87.867 0-43.922-34.26-67.772-79.056-94.392-3.577-2.12-7.264-4.29-11.059-6.499-10.267-5.98-20.884-12.164-31.153-18.727-14.909-9.539-36.479-24.476-51.599-43.976zm30.3 360.154h119.377c4.235 6.984 6.796 14.374 7.751 22.57h-134.88c.955-8.197 3.516-15.586 7.752-22.57zm107.245-15h-95.114c11.132-10.985 26.919-21.73 47.557-34.132 20.637 12.402 36.424 23.146 47.557 34.132zm-130.438 45.07c0 7.929-6.446 14.38-14.37 14.38s-14.37-6.451-14.37-14.38c0-23.635 7.078-44.25 21.638-63.024 13.826-17.827 33.026-31.822 47.613-41.381 9.379 5.87 18.984 11.465 27.588 16.477.041.023.079.046.12.07-39.361 24.139-68.219 47.538-68.219 87.858z"/></g></g></svg>