<svg id="Capa_1" enable-background="new 0 0 512 512" height="512" viewBox="0 0 512 512" width="512" xmlns="http://www.w3.org/2000/svg"><g><g><path d="m58.852 24.067h394.297v455.583h-394.297z" fill="#b37059"/><path d="m157.063 106.9h197.875v336.1h-197.875z" fill="#335373"/><path d="m157.063 106.9h197.875v39.567h-197.875z" fill="#1f3c59"/><g><path d="m438.233 57.201h33.133v397.598h-33.133z" fill="#f6f6f6"/><path d="m448.367 57.201h23v397.598h-23z" fill="#e2dff4"/><path d="m421.667 479.333v-32.817c0-4.575 3.709-8.283 8.283-8.283h49.7c4.575 0 8.283 3.709 8.283 8.283v32.817z" fill="#ffc649"/><path d="m487.933 33v32.483c0 4.575-3.708 8.283-8.283 8.283h-49.7c-4.575 0-8.283-3.709-8.283-8.283v-32.483z" fill="#ffc649"/><g fill="#ffa742"><path d="m464.933 33v32.483c0 4.575-3.708 8.283-8.283 8.283h23c4.575 0 8.283-3.709 8.283-8.283v-32.483z"/><path d="m479.65 438.233h-23c4.575 0 8.283 3.708 8.283 8.283v32.817h23v-32.817c0-4.574-3.708-8.283-8.283-8.283z"/></g></g><g><path d="m40.634 57.201h33.133v397.598h-33.133z" fill="#f6f6f6"/><path d="m50.767 57.201h23v397.598h-23z" fill="#e2dff4"/><path d="m24.067 479.333v-32.817c0-4.575 3.709-8.283 8.283-8.283h49.7c4.575 0 8.283 3.709 8.283 8.283v32.817z" fill="#ffc649"/><path d="m90.334 33v32.483c0 4.575-3.709 8.283-8.283 8.283h-49.7c-4.575 0-8.283-3.709-8.283-8.283v-32.483z" fill="#ffc649"/><g fill="#ffa742"><path d="m67.333 33v32.483c0 4.575-3.709 8.283-8.283 8.283h23c4.575 0 8.283-3.709 8.283-8.283v-32.483z"/><path d="m82.05 438.233h-23c4.575 0 8.283 3.708 8.283 8.283v32.817h23v-32.817c.001-4.574-3.708-8.283-8.283-8.283z"/></g></g><path d="m496.5 40.633h-481c-4.418 0-8-3.582-8-8v-17.133c0-4.418 3.582-8 8-8h481c4.418 0 8 3.582 8 8v17.133c0 4.419-3.582 8-8 8z" fill="#f6f6f6"/><g><g><path d="m380.25 111v160.91 35.758 143.032h-33.133v-143.032-35.758-160.91z" fill="#e2dff4"/><g fill="#bebcdd"><path d="m357.367 450.7h22.883v-143.032-35.758-160.91h-22.883z"/><path d="m347.117 111h33.133v35.467h-33.133z"/></g></g><g><path d="m272.567 111v160.91 35.758 143.032h-33.134v-143.032-35.758-160.91z" fill="#e2dff4"/><g fill="#bebcdd"><path d="m249.683 450.7h22.884v-143.032-35.758-160.91h-22.884z"/><path d="m239.433 111h33.133v35.467h-33.133z"/></g></g><g><path d="m164.883 111v160.91 35.758 143.032h-33.133v-143.032-35.758-160.91z" fill="#e2dff4"/><g fill="#bebcdd"><path d="m142 450.7h22.883v-143.032-35.758-160.91h-22.883z"/><path d="m131.75 111h33.133v35.467h-33.133z"/></g></g><path d="m131.467 90.333h249.067c4.418 0 8 3.582 8 8v17.133c0 4.418-3.582 8-8 8h-249.067c-4.418 0-8-3.582-8-8v-17.133c0-4.418 3.581-8 8-8z" fill="#f6f6f6"/><path d="m380.533 90.333h-23.167c4.418 0 8 3.582 8 8v17.133c0 4.418-3.582 8-8 8h23.167c4.418 0 8-3.582 8-8v-17.133c0-4.418-3.581-8-8-8z" fill="#e2dff4"/><path d="m131.467 272.567h249.067c4.418 0 8 3.582 8 8v17.133c0 4.418-3.582 8-8 8h-249.067c-4.418 0-8-3.582-8-8v-17.133c0-4.419 3.581-8 8-8z" fill="#f6f6f6"/><path d="m380.533 272.567h-23.167c4.418 0 8 3.582 8 8v17.133c0 4.418-3.582 8-8 8h23.167c4.418 0 8-3.582 8-8v-17.133c0-4.419-3.581-8-8-8z" fill="#e2dff4"/><g><path d="m131.467 438.232h249.067c4.418 0 8 3.582 8 8v25.418c0 4.418-3.582 8-8 8h-249.067c-4.418 0-8-3.582-8-8v-25.418c0-4.418 3.581-8 8-8z" fill="#f6f6f6"/><path d="m380.533 438.232h-23.167c4.418 0 8 3.582 8 8v25.418c0 4.418-3.582 8-8 8h23.167c4.418 0 8-3.582 8-8v-25.418c0-4.418-3.581-8-8-8z" fill="#e2dff4"/></g></g><path d="m496.5 504.5h-481c-4.418 0-8-3.582-8-8v-17.133c0-4.418 3.582-8 8-8h481c4.418 0 8 3.582 8 8v17.133c0 4.418-3.582 8-8 8z" fill="#f6f6f6"/><path d="m496.5 7.5h-23c4.418 0 8 3.582 8 8v17.133c0 4.418-3.582 8-8 8h23c4.418 0 8-3.582 8-8v-17.133c0-4.418-3.582-8-8-8z" fill="#e2dff4"/><path d="m496.5 471.367h-23c4.418 0 8 3.582 8 8v17.133c0 4.418-3.582 8-8 8h23c4.418 0 8-3.582 8-8v-17.133c0-4.419-3.582-8-8-8z" fill="#e2dff4"/><g><path d="m305.7 239.433c0-27.449-22.252-49.7-49.7-49.7-27.449 0-49.7 22.251-49.7 49.7v32.9h33.133v-32.9c0-9.15 7.417-16.567 16.567-16.567 9.149 0 16.567 7.417 16.567 16.567v32.9h33.133z" fill="#f6f6f6"/><path d="m256 189.733c-3.91 0-7.709.466-11.358 1.319 21.972 5.139 38.342 24.842 38.342 48.381v32.9h22.716v-32.9c0-27.448-22.252-49.7-49.7-49.7z" fill="#e2dff4"/><path d="m305.983 338.833h-99.967c-4.418 0-8-3.582-8-8v-66.833c0-4.418 3.582-8 8-8h99.967c4.418 0 8 3.582 8 8v66.833c0 4.418-3.581 8-8 8z" fill="#ffc649"/><path d="m305.983 256h-23c4.418 0 8 3.582 8 8v66.833c0 4.418-3.582 8-8 8h23c4.418 0 8-3.582 8-8v-66.833c0-4.418-3.581-8-8-8z" fill="#ffa742"/></g></g><g><path d="m478.867 81.267h.783c8.703 0 15.783-7.081 15.783-15.783v-17.35h1.066c8.547 0 15.5-6.953 15.5-15.5v-17.134c.001-8.547-6.952-15.5-15.499-15.5h-350.533c-4.142 0-7.5 3.358-7.5 7.5s3.358 7.5 7.5 7.5h350.533c.275 0 .5.224.5.5v17.133c0 .276-.225.5-.5.5h-481c-.276 0-.5-.224-.5-.5v-17.133c0-.276.224-.5.5-.5h100.467c4.142 0 7.5-3.358 7.5-7.5s-3.358-7.5-7.5-7.5h-100.467c-8.547 0-15.5 6.953-15.5 15.5v17.133c0 8.547 6.953 15.5 15.5 15.5h1.067v17.35c0 8.703 7.081 15.783 15.783 15.783h.783v349.467h-.783c-8.703 0-15.783 7.081-15.783 15.783v17.35h-1.067c-8.547 0-15.5 6.953-15.5 15.5v17.134c0 8.547 6.953 15.5 15.5 15.5h54.04c4.142 0 7.5-3.358 7.5-7.5s-3.358-7.5-7.5-7.5h-54.04c-.276 0-.5-.224-.5-.5v-17.133c0-.276.224-.5.5-.5h481c.275 0 .5.224.5.5v17.133c0 .276-.225.5-.5.5h-396.96c-4.142 0-7.5 3.358-7.5 7.5s3.358 7.5 7.5 7.5h396.96c8.547 0 15.5-6.953 15.5-15.5v-17.133c0-8.547-6.953-15.5-15.5-15.5h-1.066v-17.35c0-8.703-7.08-15.783-15.783-15.783h-.783v-349.467zm-15 316.333h-18.134v-316.333h18.134zm-33.917 33.133c-8.703 0-15.783 7.081-15.783 15.783v17.35h-18.134v-17.35c0-5.99-3.354-11.211-8.283-13.884v-121.331c4.929-2.673 8.283-7.894 8.283-13.884v-16.567c0-5.99-3.354-11.211-8.283-13.884v-137.793c4.919-2.601 8.283-7.765 8.283-13.706v-17.133c0-8.547-6.953-15.5-15.5-15.5h-249.066c-8.547 0-15.5 6.953-15.5 15.5v17.133c0 5.941 3.364 11.106 8.283 13.706v137.793c-4.929 2.673-8.283 7.894-8.283 13.884v16.566c0 5.99 3.354 11.211 8.283 13.884v121.332c-4.929 2.673-8.283 7.894-8.283 13.884v17.35h-18.134v-17.35c0-8.703-7.081-15.783-15.784-15.783h-.783v-349.466h.783c8.703 0 15.784-7.081 15.784-15.783v-17.35h316.333v17.35c0 8.703 7.08 15.783 15.783 15.783h.783v349.467h-.782zm-298.483-314.766c-.276 0-.5-.224-.5-.5v-17.133c0-.276.224-.5.5-.5h249.066c.275 0 .5.224.5.5v17.133c0 .276-.225.5-.5.5zm223.15 314.766v-117.533h18.133v117.533zm-74.723 0v-84.4h26.09c8.547 0 15.5-6.953 15.5-15.5v-17.633h18.134v117.533zm-33.134 0v-84.4h18.133v84.4zm-74.377 0v-117.533h18.133v17.633c0 8.547 6.953 15.5 15.5 15.5h25.744v84.4zm-33.133 0v-117.533h18.133v117.533zm-8.283-133.316v-16.567c0-.432.352-.783.783-.783h58.767v18.133h-58.767c-.432 0-.783-.351-.783-.783zm26.416-166.45v134.1h-18.133v-134.1zm74.377 0v56.673c-19.453 9.141-32.96 28.915-32.96 51.794v10.861c-4.919 2.601-8.283 7.765-8.283 13.706v1.067h-18.133v-134.1h59.376zm33.134 0v51.962c-2.899-.455-5.869-.695-8.894-.695-3.146 0-6.23.266-9.24.757v-52.024zm74.723 0v134.1h-18.134v-1.067c0-5.941-3.364-11.105-8.283-13.706v-10.861c0-23.013-13.668-42.882-33.307-51.95v-56.516zm33.133 0v134.1h-18.133v-134.1zm8.283 149.883v16.566c0 .432-.352.784-.783.784h-58.767v-18.133h58.767c.432 0 .783.351.783.783zm-175.016 50.483c-.276 0-.5-.224-.5-.5v-66.833c0-.276.224-.5.5-.5h.283 99.4.283c.275 0 .5.224.5.5v66.833c0 .276-.225.5-.5.5zm49.983-134.1c23.269 0 42.2 18.931 42.2 42.2v9.067h-18.134v-9.067c0-13.27-10.796-24.066-24.066-24.066-13.271 0-24.067 10.796-24.067 24.066v9.067h-18.133v-9.067c0-23.269 18.931-42.2 42.2-42.2zm-9.067 51.267v-9.067c0-4.999 4.067-9.066 9.067-9.066 4.999 0 9.066 4.067 9.066 9.066v9.067zm-115.966 198.017c0-.432.352-.783.783-.783h248.5c.432 0 .783.352.783.783v17.35h-250.066zm349.467-381.034c0 .432-.352.783-.783.783h-49.7c-.432 0-.783-.352-.783-.783v-17.35h51.267v17.35zm-448.867 0v-17.35h51.267v17.35c0 .432-.352.783-.784.783h-49.7c-.432.001-.783-.351-.783-.783zm34.7 15.784v316.333h-18.134v-316.333zm-18.134 331.333h18.133v18.133h-18.133zm-16.566 33.917c0-.432.352-.783.783-.783h49.7c.432 0 .784.352.784.783v17.35h-51.267zm448.867 0v17.35h-51.267v-17.35c0-.432.352-.783.783-.783h49.7c.432-.001.784.351.784.783zm-34.701-15.784v-18.133h18.134v18.133z"/><path d="m259.969 281.633h-8.283c-4.142 0-7.5 3.358-7.5 7.5 0 3.001 1.767 5.584 4.315 6.782v9.785c0 4.142 3.358 7.5 7.5 7.5 4.143 0 7.5-3.358 7.5-7.5v-9.951c2.361-1.263 3.969-3.751 3.969-6.616-.001-4.142-3.359-7.5-7.501-7.5z"/></g></g></svg>