<svg id="Capa_1" enable-background="new 0 0 512 512" height="512" viewBox="0 0 512 512" width="512" xmlns="http://www.w3.org/2000/svg"><g><g><path d="m337.546 275.293 102.546 102.546c7.274 7.275 7.274 19.069 0 26.343-7.275 7.275-19.069 7.275-26.343 0l-13.172-13.172c-7.275-7.275-19.069-7.275-26.343 0s-7.274 19.069 0 26.343l26.344 26.344c7.275 7.275 7.275 19.069 0 26.343s-19.069 7.274-26.343 0l-115.72-115.718z" fill="#fd445f"/><g><g fill="#e30f5a"><path d="m440.09 377.838-102.544-102.545-11.503 11.503 91.043 91.043c7.275 7.275 7.275 19.069 0 26.343-.531.531-1.092 1.012-1.668 1.465 7.311 5.759 17.932 5.278 24.675-1.465 7.272-7.275 7.272-19.069-.003-26.344z"/><path d="m374.233 417.353c-7.274-7.274-7.274-19.069 0-26.343.531-.531 1.092-1.012 1.668-1.465-7.311-5.759-17.932-5.278-24.675 1.465-7.274 7.275-7.274 19.069 0 26.343l26.344 26.344c7.274 7.275 7.274 19.069 0 26.343-.531.531-1.092 1.012-1.668 1.465 7.311 5.759 17.932 5.278 24.675-1.465 7.274-7.274 7.274-19.068 0-26.343z"/></g></g><path d="m106.32 123.275c.519.102 1.053.155 1.596.155h48.586c5.786 0 9.79-5.779 7.758-11.195l-18.642-49.713c-1.212-3.234-4.304-5.376-7.758-5.376h-2.544l-24.13 33.142z" fill="#ff8c59"/><path d="m268.859 140.747-39.515-39.515c-7.275-7.275-19.069-7.275-26.343 0-7.275 7.274-7.275 19.069 0 26.343l80.448 80.448 39.714-39.714-41.872-41.872z" fill="#fd445f"/><path d="m301.313 67.827-19.281-19.281c-7.275-7.275-19.069-7.275-26.343 0-7.275 7.275-7.275 19.069 0 26.343l19.281 19.281z" fill="#fd445f"/><circle cx="413.747" cy="140.747" fill="#f6f6f6" r="46.569"/><path d="m307.93 456.424-65.414-65.414c-3.637-3.637-3.637-9.535 0-13.172l128.424-128.423c1.818-1.818 4.767-1.818 6.586 0l16.464 16.464c3.637 3.637 3.637 9.535 0 13.172l-52.242 52.242c-11.077 11.077-11.344 29.474-.059 40.339 10.939 10.532 28.345 10.406 39.13-.378l72.445-72.445c14.549-14.549 14.549-38.137 0-52.687l-125.132-125.132c-3.637-3.637-3.637-9.535 0-13.172l52.242-52.242c11.077-11.077 11.344-29.474.059-40.339-10.939-10.532-28.345-10.406-39.13.378l-72.444 72.445c-14.549 14.549-14.549 38.137 0 52.687l29.636 29.636c1.819 1.818 1.819 4.767 0 6.586l-52.686 52.687c-1.818 1.818-4.767 1.818-6.586 0l-29.636-29.636c-14.549-14.549-38.137-14.549-52.687 0l-85.171 85.171c-11.077 11.077-11.344 29.474-.059 40.339 10.939 10.532 28.345 10.406 39.13-.378l65.859-65.859c3.637-3.637 9.535-3.637 13.172 0l42.808 42.808c1.818 1.819 1.818 4.767 0 6.586l-49.394 49.393c-14.549 14.549-14.549 38.137 0 52.687l85.616 85.616c10.784 10.784 28.191 10.91 39.13.378 11.283-10.863 11.015-29.26-.061-40.337z" fill="#f6f6f6"/><path d="m104.718 123.431h-48.586c-5.786 0-9.79-5.779-7.758-11.195l18.643-49.713c1.212-3.234 4.304-5.376 7.758-5.376h60.542l-22.84 60.909c-1.213 3.232-4.305 5.375-7.759 5.375z" fill="#ffc649"/><path d="m112.31 57.147-22.84 60.909c-1.212 3.234-4.304 5.376-7.758 5.376h23.006c3.454 0 6.546-2.143 7.758-5.376l22.84-60.909z" fill="#ffa742"/><g><g fill="#e2dff4"><path d="m453.263 246.122-125.132-125.132c-3.637-3.637-3.637-9.535 0-13.172l52.242-52.242c11.077-11.077 11.344-29.474.059-40.339-8.444-8.129-20.739-9.902-30.869-5.33 2.835 1.28 5.5 3.056 7.863 5.33 11.285 10.865 11.018 29.262-.059 40.339l-52.242 52.242c-3.637 3.637-3.637 9.535 0 13.172l125.132 125.132c14.549 14.549 14.549 38.137 0 52.686l-72.445 72.445c-2.46 2.46-5.266 4.358-8.259 5.709 10.288 4.647 22.811 2.746 31.265-5.709l72.445-72.445c14.549-14.549 14.549-38.138 0-52.686z"/><path d="m242.516 391.01c-3.637-3.638-3.637-9.535 0-13.172l120.214-120.214-8.21-8.21c-1.818-1.818-4.767-1.818-6.586 0l-128.424 128.425c-3.637 3.637-3.637 9.535 0 13.172l65.414 65.414c11.077 11.077 11.344 29.474.059 40.339-2.363 2.275-5.029 4.05-7.864 5.33 10.131 4.571 22.426 2.799 30.87-5.33 11.285-10.865 11.018-29.262-.059-40.339z"/></g></g><path d="m446.677 107.818c-12.043-12.044-29.041-16.103-44.432-12.195 7.85 1.994 15.283 6.053 21.426 12.195 18.186 18.186 18.186 47.672 0 65.859-6.143 6.143-13.576 10.202-21.426 12.195 15.391 3.908 32.389-.152 44.432-12.195 18.186-18.187 18.186-47.673 0-65.859z" fill="#e2dff4"/></g><g><path d="m458.568 240.816-46.052-46.053c.411.009.822.029 1.232.029 13.846 0 27.693-5.27 38.234-15.811 21.081-21.082 21.082-55.385 0-76.469-21.085-21.083-55.386-21.081-76.469 0-10.854 10.854-16.104 25.212-15.782 39.467l-26.295-26.295c-.706-.706-.706-1.856 0-2.562l52.244-52.242c6.836-6.836 10.703-16.334 10.61-26.06-.091-9.587-3.874-18.461-10.654-24.988-13.81-13.295-36.077-13.081-49.637.479l-40.795 40.796-7.866-7.866c-10.189-10.187-26.765-10.187-36.953 0-10.187 10.189-10.187 26.765 0 36.953l8.316 8.315c-4.86 6.821-7.691 14.834-8.172 23.294l-15.877-15.877c-10.189-10.187-26.765-10.187-36.953 0-4.935 4.936-7.652 11.497-7.652 18.477s2.718 13.541 7.652 18.477l67.14 67.139-22.32 22.32-27.624-27.626c-17.452-17.451-45.845-17.449-63.297 0l-45.41 45.412c-2.93 2.931-2.93 7.68 0 10.61 2.931 2.929 7.68 2.929 10.61 0l45.41-45.411c11.599-11.602 30.476-11.603 42.077-.001l29.638 29.639c4.739 4.738 12.452 4.735 17.194-.001l52.687-52.687c4.74-4.741 4.74-12.454 0-17.196l-29.636-29.636c-5.621-5.62-8.715-13.092-8.715-21.039s3.095-15.418 8.715-21.038l72.443-72.445c7.82-7.819 20.661-7.945 28.622-.279 3.854 3.71 6.005 8.795 6.058 14.321.055 5.724-2.212 11.303-6.218 15.308l-52.242 52.243c-6.556 6.558-6.556 17.226 0 23.78l125.132 125.132c11.601 11.6 11.601 30.476 0 42.077l-72.445 72.444c-7.818 7.822-20.658 7.945-28.621.28-3.854-3.711-6.005-8.797-6.057-14.323-.055-5.723 2.212-11.302 6.218-15.307l25.883-25.884c.005-.005.01-.009.015-.014s.009-.01.014-.015l26.328-26.329c3.177-3.176 4.926-7.398 4.926-11.891 0-4.491-1.749-8.714-4.925-11.891l-16.464-16.464c-4.741-4.739-12.454-4.739-17.196 0l-128.426 128.426c-6.556 6.557-6.556 17.224 0 23.781l65.415 65.413c4.006 4.006 6.272 9.586 6.218 15.309-.053 5.525-2.204 10.611-6.058 14.321-7.961 7.667-20.802 7.541-28.62-.279l-85.617-85.616c-5.62-5.62-8.714-13.091-8.714-21.038 0-7.948 3.095-15.419 8.715-21.039l49.393-49.393c2.297-2.298 3.562-5.35 3.562-8.598 0-3.249-1.266-6.303-3.562-8.597l-42.809-42.81c-6.558-6.556-17.225-6.554-23.781 0l-65.858 65.859c-7.818 7.82-20.659 7.944-28.622.278-3.853-3.709-6.004-8.795-6.057-14.32-.054-5.724 2.213-11.303 6.219-15.309l18.54-18.541c2.93-2.93 2.93-7.68-.001-10.609-2.929-2.929-7.679-2.93-10.609.001l-18.544 18.539c-6.837 6.836-10.705 16.334-10.612 26.06.091 9.588 3.874 18.461 10.653 24.989 13.811 13.294 36.076 13.081 49.638-.478l65.857-65.859c.706-.706 1.857-.708 2.563 0l40.796 40.796-47.381 47.381c-8.454 8.453-13.11 19.693-13.11 31.65 0 11.955 4.655 23.195 13.109 31.649l85.616 85.616c6.868 6.867 15.968 10.312 25.073 10.312 8.871 0 17.748-3.272 24.565-9.833 6.779-6.527 10.563-15.401 10.653-24.989.093-9.726-3.774-19.224-10.61-26.061l-65.414-65.413c-.706-.706-.706-1.855 0-2.563l14.453-14.453 15.003 15.002c1.464 1.464 3.385 2.197 5.304 2.197s3.84-.732 5.305-2.198c2.93-2.93 2.93-7.68-.001-10.609l-15.002-15.001 68.421-68.421 15.733 15.733-20.593 20.593c-6.835 6.836-10.703 16.334-10.611 26.059.091 9.588 3.874 18.462 10.653 24.99 8.758 8.43 20.917 11.42 32.1 9.027-9.838 10.215-9.729 26.523.342 36.595l26.343 26.343c4.338 4.338 4.338 11.396 0 15.733-4.337 4.339-11.396 4.339-15.733 0l-70.436-70.437c-2.931-2.929-7.68-2.929-10.61 0-2.93 2.931-2.93 7.68 0 10.61l70.438 70.438c5.094 5.093 11.785 7.641 18.477 7.641s13.383-2.548 18.477-7.641c10.188-10.189 10.188-26.766-.001-36.954l-26.343-26.342c-4.338-4.339-4.338-11.398-.001-15.734 4.339-4.338 11.398-4.338 15.734 0l13.172 13.171c4.935 4.936 11.497 7.654 18.477 7.654s13.542-2.719 18.477-7.653c4.935-4.935 7.652-11.497 7.652-18.477s-2.718-13.541-7.652-18.477l-27.623-27.624 40.796-40.796c17.448-17.45 17.448-45.845-.002-63.296zm-72.444-127.692c7.616-7.617 17.619-11.425 27.625-11.425 10.003 0 20.008 3.81 27.623 11.424 15.232 15.234 15.232 40.018 0 55.249-15.231 15.234-40.018 15.233-55.248 0-15.233-15.232-15.233-40.017 0-55.248zm-110.678 76.286-67.14-67.14c-4.338-4.337-4.338-11.396 0-15.733 4.337-4.339 11.396-4.339 15.733 0l67.14 67.14zm-14.453-135.558c4.337-4.339 11.396-4.339 15.733 0l7.867 7.866-15.733 15.733-7.867-7.867c-4.338-4.337-4.338-11.395 0-15.732zm90.921 225.198 22.319-22.319 14.452 14.453c.439.439.531.939.531 1.28 0 .343-.092.842-.531 1.28l-21.039 21.039zm82.871 104.093c4.338 4.337 4.338 11.396 0 15.733-2.102 2.102-4.895 3.259-7.866 3.259s-5.766-1.157-7.866-3.26l-13.172-13.172c-5.889-5.888-13.909-8.365-21.598-7.448.627-.544 1.245-1.104 1.84-1.699l21.038-21.038z"/><path d="m107.916 130.933h48.587c5.176 0 10.027-2.54 12.976-6.794 2.949-4.255 3.625-9.69 1.808-14.538l-18.643-49.712c-2.299-6.128-8.239-10.244-14.782-10.244h-63.088c-6.545 0-12.485 4.117-14.782 10.244l-18.643 49.713c-1.817 4.848-1.142 10.282 1.807 14.537 2.948 4.254 7.799 6.794 12.976 6.794h48.586zm49.322-16.064c.039.105.145.385-.09.723-.233.337-.531.337-.644.337h-35.219l18.175-48.464zm-101.75.722c-.234-.338-.129-.617-.09-.722l18.643-49.715c.114-.303.409-.507.733-.507h49.717l-19.04 50.774c-.114.303-.409.507-.733.507h-48.587c-.112 0-.41 0-.643-.337z"/><path d="m89.746 97.79h4.143c4.143 0 7.502-3.358 7.502-7.502s-3.359-7.502-7.502-7.502h-4.143c-4.144 0-7.502 3.358-7.502 7.502s3.358 7.502 7.502 7.502z"/></g></g></svg>