<svg id="Capa_1" enable-background="new 0 0 512 512" height="512" viewBox="0 0 512 512" width="512" xmlns="http://www.w3.org/2000/svg"><g><g><path d="m399.198 140.159v23.23c0 11.62-9.42 21.04-21.04 21.04h-244.328c-11.62 0-21.04-9.42-21.04-21.04v-23.23c0-2.86.32-5.7.94-8.49l23.27-104.669c2.54-11.39 12.65-19.5 24.32-19.5h7.34c7.02 0 12.7 5.69 12.7 12.7v.95c0 8.66 7.03 33.557 15.69 33.557l117.889-3.106c8.67 0 15.69-21.791 15.69-30.451v-.95c0-7.01 5.69-12.7 12.7-12.7h7.35c11.67 0 21.78 8.11 24.32 19.5l23.27 104.669c.619 2.79.929 5.63.929 8.49z" fill="#fe646f"/><path d="m399.2 140.159v23.23c0 11.62-9.42 21.04-21.04 21.04h-54.33c11.62 0 21.04-9.42 21.04-21.04v-23.23c0-2.86-.31-5.7-.93-8.49l-13.31-59.86-10.069-21.055c4.89-2.65 10.069-23.654 10.069-29.604v-.95c0-7.01 5.69-12.7 12.7-12.7h7.35c11.67 0 21.78 8.11 24.32 19.5l23.27 104.669c.62 2.79.93 5.63.93 8.49z" fill="#fd4755"/><path d="m330.628 21.15v82.749c0 18.99-15.39 34.38-34.38 34.38h-80.499c-18.99 0-34.39-15.39-34.39-34.38v-82.749c0 8.66 7.03 15.69 15.69 15.69h117.889c8.67 0 15.69-7.03 15.69-15.69z" fill="#f9f3f1"/><circle cx="255.996" cy="87.015" fill="#5b5555" r="24.643"/><path d="m361.682 504.497h-211.372c-20.721 0-37.518-16.797-37.518-37.518v-260.127c0-12.384 10.039-22.423 22.423-22.423h241.562c12.384 0 22.423 10.039 22.423 22.423v260.127c0 20.72-16.797 37.518-37.518 37.518z" fill="#766e6e"/><path d="m399.2 206.852v260.128c0 20.72-16.8 37.52-37.52 37.52h-54.32c20.72 0 37.51-16.8 37.51-37.52v-260.128c0-12.38-10.04-22.42-22.42-22.42h54.33c12.38 0 22.42 10.04 22.42 22.42z" fill="#5b5555"/><g><path d="m346.338 437.507h-180.688c-21.65 0-35.18-23.43-24.35-42.18l90.339-156.479c10.83-18.75 37.89-18.75 48.71 0l64.519 111.739 25.83 44.74c10.82 18.75-2.71 42.18-24.36 42.18z" fill="#ffe177"/><path d="m346.338 437.507h-1.47v-86.92l25.83 44.74c10.82 18.75-2.71 42.18-24.36 42.18z" fill="#fece85"/><g><path d="m269.552 324.045c-.006-.151-.016-.231-.016-.231l-24.709 2.085c-.8-9.488 3.05-28.29 22.559-38.575 6.058-3.193 13.556-.87 16.75 5.186 3.193 6.057.871 13.557-5.186 16.749-9.344 4.926-9.468 13.182-9.398 14.786z" fill="#5de1c4"/><path d="m258.055 318.322c14.134.26 25.572 11.842 25.342 25.977-.464 28.502-18.19 55.103-46.557 65.507-18.919 6.939-38.885 5.324-55.657-2.883-8.696-4.255-6.472-17.354 3.164-18.283 4.401-.424 8.821-1.412 13.165-3.006 19.531-7.164 32.29-24.641 34.378-44.013 1.444-13.388 12.7-23.547 26.165-23.299z" fill="#fe646f"/></g></g></g><g><path d="m406.705 163.39v-23.23c0-3.405-.373-6.809-1.108-10.118l-7.69-34.6c-.899-4.044-4.906-6.596-8.948-5.694-4.044.898-6.593 4.905-5.694 8.949l7.69 34.6c.498 2.242.751 4.551.751 6.863v23.23c0 7.466-6.074 13.54-13.54 13.54h-1.39-241.56-1.38c-7.466 0-13.54-6.074-13.54-13.54v-23.23c0-2.28.256-4.589.762-6.863l23.269-104.665c1.79-8.026 8.781-13.632 17-13.632h7.34c2.867 0 5.2 2.333 5.2 5.2v.001l-.003-.002v83.7c0 23.093 18.792 41.88 41.89 41.88h80.5c23.093 0 41.88-18.787 41.88-41.88v-82.595c0-.052.004-.102.004-.154v-.95c0-2.867 2.328-5.2 5.19-5.2h7.36c8.219 0 15.209 5.606 16.998 13.626l7.98 35.92c.897 4.043 4.9 6.599 8.948 5.695 4.043-.898 6.593-4.904 5.694-8.948l-7.981-35.926c-3.333-14.935-16.344-25.367-31.641-25.367h-7.36c-11.133 0-20.19 9.062-20.19 20.2v.95c0 4.516-3.678 8.19-8.199 8.19h-117.88c-4.516 0-8.19-3.674-8.19-8.19v-.95c0-11.138-9.062-20.2-20.2-20.2h-7.34c-15.299 0-28.31 10.432-31.642 25.373l-23.27 104.67c-.743 3.341-1.119 6.745-1.119 10.118v23.23c0 8.526 3.763 16.186 9.71 21.42-5.964 5.473-9.71 13.326-9.71 22.04v23.02c0 4.142 3.358 7.5 7.5 7.5s7.5-3.358 7.5-7.5v-23.02c0-8.227 6.693-14.92 14.92-14.92h241.56c8.232 0 14.93 6.693 14.93 14.92v260.13c0 16.553-13.467 30.02-30.02 30.02h-211.38c-16.548 0-30.01-13.467-30.01-30.02v-202.111c0-4.142-3.358-7.5-7.5-7.5s-7.5 3.358-7.5 7.5v202.11c0 24.824 20.191 45.02 45.01 45.02h211.38c24.824 0 45.02-20.196 45.02-45.02v-260.13c0-8.713-3.747-16.565-9.712-22.039 5.947-5.234 9.711-12.894 9.711-21.421zm-209.65-119.05h117.88c2.884 0 5.646-.533 8.195-1.499v61.059c0 14.822-12.059 26.88-26.88 26.88h-80.5c-14.827 0-26.89-12.058-26.89-26.88v-61.06c2.551.967 5.311 1.5 8.195 1.5z"/><path d="m255.996 119.158c17.724 0 32.144-14.419 32.144-32.143s-14.42-32.144-32.144-32.144-32.143 14.419-32.143 32.144c0 17.724 14.419 32.143 32.143 32.143zm0-49.286c9.453 0 17.144 7.69 17.144 17.144 0 9.453-7.69 17.143-17.144 17.143-9.453 0-17.143-7.69-17.143-17.143 0-9.454 7.69-17.144 17.143-17.144z"/><path d="m282.454 315.893c9.695-5.122 13.427-17.18 8.313-26.888-2.481-4.7-6.644-8.152-11.72-9.722-5.079-1.571-10.465-1.069-15.161 1.412-19.792 10.435-24.897 27.736-26.197 36.699-7.221 5.391-12.207 13.699-13.255 23.424-1.865 17.31-13.171 31.785-29.504 37.776-3.66 1.342-7.462 2.211-11.302 2.581-7.654.738-13.722 6.334-15.1 13.926-1.394 7.68 2.368 15.138 9.358 18.56 10.938 5.353 22.653 8.047 34.429 8.047 9.111 0 18.261-1.615 27.108-4.859 15.184-5.569 28.086-15.499 37.31-28.716 9.011-12.911 13.909-28.025 14.164-43.71.167-10.327-4.494-19.646-11.906-25.837.871-1.03 2.019-1.933 3.463-2.693zm-48.196 86.872c-16.407 6.019-34.084 5.102-49.778-2.578-1.237-.605-1.331-1.644-1.192-2.408.277-1.528 1.408-1.637 1.78-1.673 5.112-.493 10.168-1.646 15.028-3.429 21.73-7.97 36.771-27.225 39.253-50.251 1.026-9.526 8.829-16.607 18.223-16.607.114 0 .23.001.346.003 10.076.186 18.143 8.42 17.981 18.356-.424 26.063-17.159 49.607-41.641 58.587zm23.934-91.941c-1.097-.02-2.182.014-3.253.097 2.445-5.739 7.095-12.293 15.948-16.96 1.155-.61 2.479-.734 3.729-.347 1.25.386 2.276 1.237 2.884 2.388 1.26 2.392.339 5.365-2.042 6.623-4.926 2.593-8.038 5.92-10.006 9.138-2.334-.565-4.761-.893-7.26-.939z"/><path d="m346.335 430.01h-34.88c-4.143 0-7.5 3.358-7.5 7.5s3.357 7.5 7.5 7.5h34.88c12.876 0 24.409-6.658 30.849-17.81 6.442-11.154 6.445-24.473.007-35.63l-90.341-156.471c-6.441-11.153-17.976-17.811-30.854-17.811s-24.413 6.658-30.855 17.812l-90.341 156.471c-6.437 11.155-6.435 24.474.007 35.628 6.44 11.152 17.973 17.81 30.85 17.81h111.02c4.143 0 7.5-3.358 7.5-7.5s-3.357-7.5-7.5-7.5h-111.02c-7.455 0-14.131-3.854-17.86-10.312-3.73-6.458-3.732-14.171-.005-20.628l90.34-156.468c3.73-6.458 10.409-10.314 17.866-10.314s14.135 3.855 17.865 10.312l90.339 156.468c3.728 6.459 3.726 14.171-.005 20.63-3.731 6.458-10.408 10.313-17.862 10.313z"/></g></g></svg>