<svg id="Capa_1" enable-background="new 0 0 512 512" height="512" viewBox="0 0 512 512" width="512" xmlns="http://www.w3.org/2000/svg"><g><g><g fill="#9e9797"><path d="m141.3 484.916h-65.694l29.767-99.953 32.091-17.48 33.603 17.48z"/><path d="m370.7 484.916h65.694l-29.767-99.953-30.303-30-35.391 30z"/></g><g fill="#766e6e"><path d="m173.65 386.65-29.77 99.96h-25.29l29.76-99.96-20.66-10.75 12.35-6.73z"/><path d="m438.97 486.61h-25.29l-29.76-99.96-18.64-18.45 13.62-11.55 30.31 30z"/></g><g fill="#f99675"><path d="m366.397 504.5h79.395c8.952 0 16.208-7.257 16.208-16.208 0-8.952-7.257-16.209-16.208-16.209h-79.395c-8.952 0-16.208 7.257-16.208 16.209 0 8.951 7.257 16.208 16.208 16.208z"/><path d="m66.208 504.5h79.395c8.952 0 16.209-7.257 16.209-16.208 0-8.952-7.257-16.209-16.209-16.209h-79.395c-8.952 0-16.209 7.257-16.209 16.209.001 8.951 7.257 16.208 16.209 16.208z"/></g><g fill="#f68157"><path d="m462 488.291c0 8.95-7.26 16.21-16.21 16.21h-29.85c8.95 0 16.21-7.26 16.21-16.21 0-4.48-1.81-8.53-4.75-11.46-2.93-2.94-6.98-4.75-11.46-4.75h29.85c4.47 0 8.53 1.81 11.46 4.75 2.93 2.93 4.75 6.98 4.75 11.46z"/><path d="m161.81 488.291c0 8.95-7.26 16.21-16.21 16.21h-29.85c8.95 0 16.21-7.26 16.21-16.21 0-4.48-1.82-8.53-4.75-11.46-2.93-2.94-6.99-4.75-11.46-4.75h29.85c4.48 0 8.53 1.81 11.46 4.75 2.94 2.93 4.75 6.98 4.75 11.46z"/></g><path d="m477.707 384.963h-443.414c-14.798 0-26.793-11.996-26.793-26.793v-323.877c0-14.797 11.996-26.793 26.793-26.793h443.413c14.798 0 26.793 11.996 26.793 26.793v323.877c.001 14.797-11.995 26.793-26.792 26.793z" fill="#766e6e"/><path d="m504.5 34.293v323.88c0 14.79-11.99 26.79-26.79 26.79h-48.99c14.8 0 26.79-12 26.79-26.79v-323.88c0-14.8-11.99-26.79-26.79-26.79h48.99c14.8 0 26.79 11.99 26.79 26.79z" fill="#5b5555"/><path d="m474.5 57.45v277.57c0 10.69-8.42 19.42-18.99 19.91-.32.02-.64.03-.96.03h-397.1c-11.02 0-19.95-8.93-19.95-19.94v-277.57c0-11.02 8.93-19.95 19.95-19.95h397.1c.32 0 .64.01.96.03 10.57.49 18.99 9.22 18.99 19.92z" fill="#f99675"/><path d="m474.5 57.45v277.57c0 10.69-8.42 19.42-18.99 19.91v-317.4c10.57.49 18.99 9.22 18.99 19.92z" fill="#f68157"/><path d="m218.118 256h-132.146c-8.782 0-15.9-7.119-15.9-15.9v-152.083c0-8.782 7.119-15.9 15.9-15.9h132.147c8.782 0 15.9 7.119 15.9 15.9v152.082c0 8.782-7.119 15.901-15.901 15.901z" fill="#ffe177"/><g><path d="m99.203 256v-14.701c0-26.425 21.417-47.842 47.842-47.842 13.217 0 25.176 5.359 33.834 14.008 8.649 8.659 14.008 20.617 14.008 33.834v14.701" fill="#01d0fb"/><path d="m147.042 203.322c-23.098 0-41.823-18.725-41.823-41.823v-23.412c0-23.098 18.725-41.823 41.823-41.823 23.098 0 41.823 18.725 41.823 41.823v23.412c.001 23.098-18.724 41.823-41.823 41.823z" fill="#ffdfcf"/></g><path d="m428.125 234.728h-48.778c-6.855 0-12.411-5.557-12.411-12.411v-48.778c0-6.855 5.557-12.411 12.411-12.411h48.778c6.855 0 12.411 5.557 12.411 12.411v48.778c0 6.854-5.557 12.411-12.411 12.411z" fill="#f9f3f1"/><path d="m419.571 320.966h-68.765c-6.811 0-12.332-5.521-12.332-12.332v-32.577c0-6.811 5.521-12.332 12.332-12.332h68.765c6.811 0 12.332 5.521 12.332 12.332v32.577c0 6.811-5.521 12.332-12.332 12.332z" fill="#5de1c4"/><g><circle cx="362.45" cy="170.375" fill="#01d0fb" r="17.263"/></g><g><circle cx="333.125" cy="292.346" fill="#fe646f" r="17.263"/></g><g><circle cx="230.708" cy="256" fill="#fe646f" r="17.263"/></g><g><circle cx="419.131" cy="79" fill="#01d0fb" r="17.263"/></g><g><circle cx="234.019" cy="120.681" fill="#01d0fb" r="17.263"/></g></g><g><path d="m477.707 0h-443.414c-18.909 0-34.293 15.384-34.293 34.293v323.877c0 18.91 15.384 34.293 34.293 34.293h61.017l-21.473 72.119h-7.63c-13.073 0-23.708 10.636-23.708 23.708.001 13.074 10.636 23.71 23.709 23.71h79.395c13.073 0 23.708-10.636 23.708-23.709 0-9.872-6.067-18.351-14.667-21.913l3.594-12.067c1.182-3.97-1.078-8.146-5.047-9.329-3.973-1.184-8.146 1.077-9.329 5.047l-4.334 14.553h-50.04l21.474-72.119h50.047l-7.357 24.696c-1.183 3.97 1.077 8.146 5.047 9.329 3.968 1.182 8.146-1.078 9.329-5.047l8.633-28.978h158.679l22.017 73.915c-8.6 3.562-14.668 12.041-14.668 21.913 0 13.073 10.636 23.709 23.709 23.709h79.395c13.072 0 23.708-10.636 23.708-23.709s-10.636-23.708-23.708-23.708h-7.628l-21.474-72.119h61.017c18.909 0 34.293-15.384 34.293-34.293v-323.878c-.001-18.909-15.385-34.293-34.294-34.293zm-332.104 497h-79.395c-4.802 0-8.708-3.907-8.708-8.709s3.907-8.708 8.708-8.708h79.395c4.802 0 8.708 3.907 8.708 8.708 0 4.802-3.907 8.709-8.708 8.709zm308.897-8.709c0 4.802-3.906 8.709-8.708 8.709h-79.395c-4.802 0-8.709-3.907-8.709-8.709s3.907-8.708 8.709-8.708h79.395c4.802 0 8.708 3.906 8.708 8.708zm-31.988-23.708h-50.04l-21.482-72.119h50.049zm74.488-106.413c0 10.639-8.654 19.293-19.293 19.293h-443.414c-10.638 0-19.293-8.654-19.293-19.293v-323.877c0-10.638 8.655-19.293 19.293-19.293h443.414c10.639 0 19.293 8.655 19.293 19.293z"/><path d="m454.55 30h-397.1c-15.136 0-27.45 12.314-27.45 27.451v277.57c0 15.13 12.314 27.44 27.45 27.44h397.1c15.136 0 27.45-12.31 27.45-27.44v-78.78c0-4.142-3.357-7.5-7.5-7.5s-7.5 3.358-7.5 7.5v78.78c0 6.859-5.585 12.44-12.45 12.44h-397.1c-6.865 0-12.45-5.581-12.45-12.44v-277.57c0-6.866 5.585-12.451 12.45-12.451h397.1c6.865 0 12.45 5.585 12.45 12.45v163.79c0 4.142 3.357 7.5 7.5 7.5s7.5-3.358 7.5-7.5v-163.789c0-15.137-12.314-27.451-27.45-27.451z"/><path d="m132.464 162.292c4.142 0 7.5-3.358 7.5-7.5v-9.899c0-4.142-3.358-7.5-7.5-7.5s-7.5 3.358-7.5 7.5v9.899c0 4.143 3.358 7.5 7.5 7.5z"/><path d="m161.621 162.292c4.142 0 7.5-3.358 7.5-7.5v-9.899c0-4.142-3.358-7.5-7.5-7.5s-7.5 3.358-7.5 7.5v9.899c0 4.143 3.358 7.5 7.5 7.5z"/><path d="m145.334 183.627h3.416c4.142 0 7.5-3.358 7.5-7.5s-3.358-7.5-7.5-7.5h-3.416c-4.142 0-7.5 3.358-7.5 7.5s3.358 7.5 7.5 7.5z"/><path d="m379.35 242.23h48.771c10.983 0 19.92-8.932 19.92-19.91v-48.78c0-10.978-8.937-19.91-19.92-19.91h-47.447c-4.529-4.925-11.021-8.017-18.223-8.017-11.366 0-20.962 7.7-23.861 18.156-22.711-.516-57.926-5.693-83.837-29.572.892-1.365 1.653-2.821 2.266-4.354.722.007 1.459.01 2.211.01 29.291 0 80.276-5.379 141.322-34.511 2.936 3.334 6.75 5.876 11.08 7.255v8.765c0 4.142 3.357 7.5 7.5 7.5s7.5-3.358 7.5-7.5v-8.765c9.999-3.185 17.263-12.558 17.263-23.599 0-13.654-11.108-24.763-24.763-24.763s-24.764 11.111-24.764 24.765c0 .878.048 1.745.137 2.6-59.524 28.494-108.769 33.397-136.424 33.247-2.04-8.412-8.383-15.158-16.561-17.764v-9.062c0-12.903-10.497-23.4-23.4-23.4h-87.7c-4.142 0-7.5 3.358-7.5 7.5s3.358 7.5 7.5 7.5h87.7c4.632 0 8.4 3.768 8.4 8.4v9.062c-9.999 3.185-17.264 12.558-17.264 23.599s7.264 20.414 17.264 23.599v87.318c-9.172 1.57-16.638 8.196-19.411 16.902h-4.722v-7.202c0-14.776-5.754-28.674-16.205-39.137-1.702-1.702-3.503-3.284-5.394-4.74 9.578-9.003 15.577-21.772 15.577-35.923v-23.413c0-27.197-22.126-49.323-49.323-49.323s-49.323 22.126-49.323 49.323v23.413c0 14.159 6.006 26.934 15.593 35.938-13.401 10.354-21.609 26.559-21.609 43.862v7.202h-5.733c-4.632 0-8.4-3.768-8.4-8.4v-152.08c0-4.632 3.769-8.4 8.4-8.4h9.45c4.142 0 7.5-3.358 7.5-7.5s-3.358-7.5-7.5-7.5h-9.45c-12.903 0-23.4 10.497-23.4 23.4v152.08c0 12.903 10.498 23.4 23.4 23.4h121.14c3.185 9.999 12.558 17.262 23.598 17.262 2.595 0 5.098-.404 7.451-1.147 11.948 11.748 31.997 23.366 64.575 23.366 2.561 0 5.21-.081 7.928-.23 3.91 8.406 12.399 14.266 22.244 14.352 3.198 6.701 10.032 11.367 17.904 11.367h68.761c10.935 0 19.83-8.9 19.83-19.84v-32.57c0-10.934-8.896-19.83-19.83-19.83h-68.761c-7.871 0-14.704 4.662-17.903 11.359-12.014.105-22.009 8.806-24.125 20.241-29.466 1.378-47.45-7.511-58.176-17.108 3.055-4.118 4.865-9.212 4.865-14.722 0-9.78-5.7-18.252-13.951-22.273v-89.448c.504-.16.998-.34 1.488-.531 9.298 8.907 20.378 16.294 33.024 21.991 18.438 8.307 39.651 12.679 63.128 13.045 3.12 8.617 10.894 15.017 20.27 16.163v27.373c0 10.977 8.936 19.909 19.92 19.909zm39.781-172.993c5.383 0 9.763 4.379 9.763 9.763s-4.38 9.763-9.763 9.763-9.763-4.379-9.763-9.763 4.38-9.763 9.763-9.763zm.439 201.993c2.663 0 4.83 2.167 4.83 4.83v32.57c0 2.668-2.167 4.84-4.83 4.84h-68.76c-1.173 0-2.24-.44-3.081-1.143 6.153-4.51 10.159-11.785 10.159-19.981 0-8.195-4.004-15.469-10.155-19.979.841-.699 1.906-1.137 3.077-1.137zm-86.445 11.353c5.383 0 9.763 4.379 9.763 9.763s-4.38 9.763-9.763 9.763c-5.384 0-9.764-4.379-9.764-9.763s4.38-9.763 9.764-9.763zm-99.125-171.664c.007 0 .013.001.02.001.006 0 .012-.001.019-.001 5.374.011 9.743 4.386 9.743 9.762 0 5.383-4.379 9.763-9.763 9.763s-9.763-4.379-9.763-9.763c0-5.376 4.369-9.751 9.744-9.762zm-121.281 27.167c0-18.926 15.397-34.323 34.323-34.323s34.323 15.397 34.323 34.323v23.413c0 18.926-15.397 34.323-34.323 34.323s-34.323-15.397-34.323-34.323zm-6.016 103.212c0-14.37 7.775-27.688 20.057-34.858 6.192 2.806 13.055 4.382 20.283 4.382 7.239 0 14.111-1.58 20.31-4.394 2.994 1.742 5.75 3.865 8.221 6.336 7.619 7.627 11.814 17.761 11.814 28.534v7.202h-80.685zm114.245 14.751c0-.016.002-.032.002-.048s-.002-.032-.002-.049c.026-5.361 4.393-9.715 9.76-9.715 5.383 0 9.763 4.38 9.763 9.763s-4.379 9.763-9.763 9.763c-5.367 0-9.734-4.354-9.76-9.714zm207.172-87.419c2.713 0 4.92 2.203 4.92 4.91v48.78c0 2.708-2.207 4.91-4.92 4.91h-48.77c-2.713 0-4.92-2.203-4.92-4.91v-30.282c7.616-4.228 12.783-12.352 12.783-21.663 0-.587-.028-1.168-.068-1.746h40.975zm-75.432 1.745c0-5.383 4.38-9.763 9.763-9.763s9.763 4.379 9.763 9.763-4.38 9.763-9.763 9.763-9.763-4.379-9.763-9.763z"/><path d="m77.96 294.205h102.694c4.142 0 7.5-3.358 7.5-7.5s-3.358-7.5-7.5-7.5h-102.694c-4.142 0-7.5 3.358-7.5 7.5s3.358 7.5 7.5 7.5z"/><path d="m77.96 324.91h149.282c4.142 0 7.5-3.358 7.5-7.5s-3.358-7.5-7.5-7.5h-149.282c-4.142 0-7.5 3.358-7.5 7.5s3.358 7.5 7.5 7.5z"/></g></g></svg>