<svg id="Capa_1" enable-background="new 0 0 512 512" height="512" viewBox="0 0 512 512" width="512" xmlns="http://www.w3.org/2000/svg"><g><g><path d="m484.32 372.432v-250.06c0-18.3-14.84-33.13-33.14-33.13h-390.36c-18.3 0-33.14 14.83-33.14 33.13v250.06l139.703 40.369h187.319z" fill="#01d0fb"/><path d="m484.32 122.372v250.06l-129.62 40.37h-55.67l129.62-40.37v-250.06c0-18.3-14.84-33.13-33.14-33.13h55.67c18.3 0 33.14 14.831 33.14 33.13z" fill="#01c0fa"/><path d="m484.32 372.432h-91.16v40.37h91.16c11.14 0 20.18-9.04 20.18-20.18v-.01c0-11.14-9.04-20.18-20.18-20.18z" fill="#f9f3f1"/><path d="m7.5 392.613v.01c0 11.14 9.04 20.18 20.18 20.18h50.49v-40.37h-50.49c-11.14-.001-20.18 9.039-20.18 20.18z" fill="#f9f3f1"/><path d="m429.147 245.452h-148.887c-9.202 0-16.661-7.46-16.661-16.661v-79.772c0-9.202 7.46-16.661 16.661-16.661h148.887c9.202 0 16.661 7.46 16.661 16.661v79.772c0 9.202-7.46 16.661-16.661 16.661z" fill="#5b5555"/><g fill="#c8effe"><path d="m155.496 132.358h38.43c9.202 0 16.661 7.46 16.661 16.661v79.772c0 9.202-7.46 16.662-16.662 16.662h-38.43c-7.663 0-13.876-6.212-13.876-13.876v-85.344c.002-7.663 6.214-13.875 13.877-13.875z"/><path d="m27.68 132.363v113.09h67.235c7.663 0 13.876-6.212 13.876-13.876v-85.339c0-7.663-6.212-13.875-13.876-13.875z"/></g><path d="m44.293 346.022h-16.613v-67.571h16.613c8.836 0 15.999 7.163 15.999 15.999v35.573c0 8.837-7.163 15.999-15.999 15.999z" fill="#ffe177"/><circle cx="112.098" cy="411.308" fill="#766e6e" r="55.285"/><circle cx="393.156" cy="411.308" fill="#766e6e" r="55.285"/><path d="m448.441 411.308c0 30.53-24.75 55.28-55.28 55.28-4.54 0-8.96-.55-13.18-1.59 24.17-5.9 42.11-27.7 42.11-53.69s-17.94-47.8-42.11-53.7c4.22-1.04 8.64-1.59 13.18-1.59 30.53-.001 55.28 24.759 55.28 55.29z" fill="#5b5555"/><path d="m167.383 411.308c0 30.53-24.75 55.28-55.28 55.28-4.54 0-8.96-.55-13.18-1.59 24.17-5.9 42.11-27.7 42.11-53.69s-17.94-47.8-42.11-53.7c4.22-1.04 8.64-1.59 13.18-1.59 30.53-.001 55.28 24.759 55.28 55.29z" fill="#5b5555"/><circle cx="112.098" cy="411.308" fill="#f9f3f1" r="22.216"/><circle cx="393.156" cy="411.308" fill="#f9f3f1" r="22.216"/><path d="m88.643 45.407h90.132c8.061 0 14.596 6.535 14.596 14.596v14.642c0 8.061-6.535 14.596-14.596 14.596h-90.132c-8.061 0-14.596-6.535-14.596-14.596v-14.641c0-8.062 6.535-14.597 14.596-14.597z" fill="#fe646f"/><path d="m193.372 60.004v14.65c0 8.06-6.53 14.59-14.59 14.59h-38.2c8.06 0 14.6-6.53 14.6-14.59v-14.65c0-8.06-6.54-14.59-14.6-14.59h38.2c8.06 0 14.59 6.53 14.59 14.59z" fill="#fd4755"/><g><path d="m216.738 316.578c.137 4.077 1.764 7.857 4.713 10.927.097.097.195.201.292.298l.023.023c5.234 5.234 11.408 9.111 18.348 11.511 5.055 1.753 9.462 4.985 12.648 9.182.753.993 1.907 1.601 3.153 1.601h.169c1.246 0 2.4-.608 3.153-1.601 3.185-4.198 7.592-7.429 12.648-9.182 6.941-2.4 13.12-6.277 18.354-11.511.103-.103.212-.212.315-.321 2.944-3.069 4.57-6.849 4.707-10.927.126-3.837-1.071-7.697-3.379-10.875-5.337-7.345-6.217-16.822-2.506-24.885.758-1.647.379-3.595-.903-4.878-1.292-1.292-3.244-1.632-4.912-.885-3.86 1.729-8.067 2.632-12.33 2.632-4.356 0-8.647-.945-12.576-2.75-1.693-.777-3.621-.777-5.313.001-3.927 1.804-8.222 2.749-12.577 2.749-4.258 0-8.467-.903-12.324-2.631-1.668-.747-3.62-.408-4.913.884-1.282 1.282-1.661 3.229-.903 4.876 3.708 8.064 2.828 17.54-2.504 24.886-2.306 3.179-3.509 7.039-3.383 10.876z" fill="#ffe177"/></g></g><g><path d="m491.82 365.974v-243.604c0-22.403-18.231-40.63-40.641-40.63h-20.31c-4.143 0-7.5 3.358-7.5 7.5s3.357 7.5 7.5 7.5h20.31c14.139 0 25.641 11.498 25.641 25.63v242.562h-41.385c-11.165-10.189-26.006-16.413-42.275-16.413-10.58 0-21.04 2.68-30.247 7.75-3.629 1.998-4.95 6.559-2.953 10.188 1.998 3.628 6.561 4.952 10.188 2.952 6.998-3.853 14.955-5.89 23.013-5.89 26.346 0 47.78 21.438 47.78 47.79 0 26.346-21.435 47.78-47.78 47.78-26.352 0-47.79-21.434-47.79-47.78 0-7.171 1.546-14.062 4.595-20.482 1.777-3.742.185-8.215-3.557-9.993-3.74-1.774-8.215-.185-9.992 3.557-3.15 6.633-5.062 13.647-5.746 20.911h-156.082c-3.033-31.812-29.897-56.78-62.491-56.78-16.27 0-31.112 6.223-42.278 16.41h-34.64v-11.41h9.113c12.957 0 23.499-10.542 23.499-23.499v-35.573c0-12.958-10.542-23.499-23.499-23.499h-9.113v-18.001h59.73c11.789 0 21.38-9.586 21.38-21.37v-35.31c0-4.142-3.357-7.5-7.5-7.5s-7.5 3.358-7.5 7.5v35.31c0 3.513-2.862 6.37-6.38 6.37h-59.73v-98.09h59.73c3.518 0 6.38 2.862 6.38 6.38v15.43c0 4.142 3.357 7.5 7.5 7.5s7.5-3.358 7.5-7.5v-15.43c0-11.789-9.591-21.38-21.38-21.38h-59.73v-2.49c0-14.132 11.502-25.63 25.641-25.63h335.35c4.143 0 7.5-3.358 7.5-7.5s-3.357-7.5-7.5-7.5h-196.474c.758-2.229 1.175-4.613 1.175-7.094v-14.642c0-12.184-9.912-22.097-22.097-22.097h-90.131c-12.185 0-22.097 9.913-22.097 22.097v14.642c0 2.481.417 4.866 1.175 7.094h-6.902c-22.409 0-40.641 18.227-40.641 40.63v243.604c-11.628 3.279-20.179 13.977-20.179 26.649 0 15.263 12.417 27.68 27.68 27.68h22.287c4.378 30.372 30.565 53.79 62.131 53.79s57.753-23.418 62.131-53.79h156.796c4.377 30.371 30.568 53.787 62.136 53.787 31.563 0 57.75-23.417 62.126-53.787h29.034c15.263 0 27.68-12.417 27.68-27.69-.001-12.664-8.552-23.361-20.181-26.639zm-410.273-291.328v-14.642c0-3.913 3.184-7.097 7.097-7.097h90.132c3.913 0 7.097 3.184 7.097 7.097v14.642c0 3.897-3.158 7.068-7.048 7.094h-90.23c-3.89-.026-7.048-3.197-7.048-7.094zm-37.254 211.305c4.687 0 8.499 3.812 8.499 8.499v35.573c0 4.687-3.812 8.499-8.499 8.499h-9.113v-52.571zm-29.293 106.662c0-6.992 5.688-12.68 12.68-12.68h30.069c-4.405 7.6-7.268 16.197-8.143 25.37h-21.926c-6.992 0-12.68-5.689-12.68-12.69zm97.098 66.48c-26.349 0-47.785-21.437-47.785-47.785s21.437-47.785 47.785-47.785 47.785 21.437 47.785 47.785-21.437 47.785-47.785 47.785zm372.222-53.79h-28.674c-.875-9.173-3.738-17.77-8.142-25.37h36.816c6.991 0 12.68 5.688 12.68 12.69 0 6.991-5.688 12.68-12.68 12.68z"/><path d="m453.308 228.791v-79.772c0-13.322-10.839-24.161-24.161-24.161h-148.887c-13.323 0-24.162 10.839-24.162 24.161v79.772c0 13.323 10.839 24.162 24.162 24.162h148.887c13.322 0 24.161-10.839 24.161-24.162zm-24.162 9.162h-34.741v-23.532h43.902v14.37c.001 5.052-4.109 9.162-9.161 9.162zm-99.145-59.547h49.404v21.015h-49.404zm-15 21.015h-43.903v-21.015h43.903zm15-36.015v-23.548h49.404v23.548zm64.404 15h43.902v21.015h-43.902zm-15 36.015v23.532h-49.404v-23.532zm58.903-65.402v14.387h-43.902v-23.548h34.741c5.051 0 9.161 4.11 9.161 9.161zm-158.048-9.161h34.741v23.548h-43.903v-14.387c0-5.051 4.11-9.161 9.162-9.161zm-9.162 88.933v-14.37h43.903v23.532h-34.741c-5.052 0-9.162-4.11-9.162-9.162z"/><path d="m218.087 228.791v-79.772c0-13.322-10.839-24.161-24.161-24.161h-38.43c-11.787 0-21.376 9.589-21.376 21.375v85.344c0 11.787 9.589 21.375 21.376 21.375h38.43c13.322.001 24.161-10.838 24.161-24.161zm-15 0c0 5.052-4.109 9.162-9.161 9.162h-38.43c-3.516 0-6.376-2.86-6.376-6.375v-85.344c0-3.516 2.86-6.375 6.376-6.375h38.43c5.052 0 9.161 4.11 9.161 9.161z"/><path d="m422.872 411.308c0-16.385-13.33-29.716-29.716-29.716s-29.716 13.331-29.716 29.716 13.33 29.716 29.716 29.716 29.716-13.331 29.716-29.716zm-44.432 0c0-8.114 6.602-14.716 14.716-14.716s14.716 6.602 14.716 14.716-6.602 14.716-14.716 14.716-14.716-6.602-14.716-14.716z"/><path d="m112.098 381.592c-16.386 0-29.716 13.331-29.716 29.716s13.33 29.716 29.716 29.716 29.716-13.331 29.716-29.716-13.331-29.716-29.716-29.716zm0 44.431c-8.114 0-14.716-6.602-14.716-14.716s6.602-14.716 14.716-14.716 14.716 6.602 14.716 14.716-6.602 14.716-14.716 14.716z"/><path d="m216.135 332.794.248.253c.02.019.061.061.079.08 6.051 6.051 13.185 10.524 21.194 13.293 3.64 1.262 6.797 3.555 9.132 6.631 2.17 2.859 5.582 4.566 9.127 4.566h.17c3.545 0 6.957-1.707 9.128-4.567 2.334-3.076 5.491-5.368 9.123-6.628 8.023-2.774 15.159-7.247 21.222-13.311.138-.138.282-.284.411-.418 4.241-4.424 6.589-9.91 6.789-15.871.181-5.497-1.526-11.012-4.807-15.53-3.679-5.062-4.354-11.707-1.76-17.341 2.055-4.466 1.085-9.817-2.413-13.315-3.461-3.46-8.8-4.436-13.28-2.426-5.838 2.615-12.888 2.586-18.71-.088-3.682-1.69-7.899-1.69-11.575.001-5.818 2.672-12.87 2.702-18.703.089-4.48-2.008-9.82-1.036-13.285 2.426-3.495 3.497-4.465 8.846-2.413 13.312 2.592 5.636 1.918 12.282-1.759 17.346-3.282 4.521-4.991 10.036-4.811 15.528v.005c.2 5.96 2.552 11.449 6.801 15.871.03.032.061.063.092.094zm10.056-22.685c5.518-7.6 7.401-17.129 5.398-26.061 8.082 2.024 16.829 1.273 24.411-2.081 7.584 3.355 16.33 4.105 24.411 2.081-2.006 8.933-.12 18.462 5.402 26.062 1.33 1.831 2.022 4.041 1.951 6.217-.074 2.235-.958 4.249-2.635 5.999l-.194.197c-4.428 4.428-9.644 7.701-15.509 9.728-5.115 1.774-9.692 4.697-13.428 8.548-3.735-3.851-8.313-6.774-13.436-8.55-5.852-2.023-11.065-5.295-15.438-9.668-.02-.019-.073-.074-.092-.093l-.188-.192c-1.657-1.731-2.535-3.736-2.611-5.962-.07-2.179.624-4.389 1.958-6.225z"/></g></g></svg>