<svg id="Capa_1" enable-background="new 0 0 512 512" height="512" viewBox="0 0 512 512" width="512" xmlns="http://www.w3.org/2000/svg"><g><g><path d="m123.467 81.5h265.067v150.2h-265.067z" fill="#54d7ff"/><path d="m365.533 81.5h23v150.2h-23z" fill="#63b0ff"/><g><path d="m24.067 253.167h463.867v225.5h-463.867z" fill="#54d7ff"/><path d="m464.933 253.167h23v225.5h-23z" fill="#63b0ff"/></g><path d="m115.183 90.333c-4.575 0-8.283-3.709-8.283-8.283v-16.567c0-4.575 3.709-8.283 8.283-8.283h281.633c4.575 0 8.283 3.709 8.283 8.283v16.567c0 4.575-3.709 8.283-8.283 8.283z" fill="#e2dff4"/><path d="m322.267 476.367h-132.534v-179.234c0-4.418 3.582-8 8-8h116.533c4.418 0 8 3.582 8 8v179.234z" fill="#f6f6f6"/><path d="m314.267 289.133h-23c4.418 0 8 3.582 8 8v179.233h23v-179.233c0-4.418-3.582-8-8-8z" fill="#e2dff4"/><g><path d="m446.8 421.667h-50.267c-4.418 0-8-3.582-8-8v-99.967c0-4.418 3.582-8 8-8h50.267c4.418 0 8 3.582 8 8v99.967c0 4.418-3.582 8-8 8z" fill="#f6f6f6"/><path d="m446.8 305.7h-23c4.418 0 8 3.582 8 8v99.967c0 4.418-3.582 8-8 8h23c4.418 0 8-3.582 8-8v-99.967c0-4.418-3.582-8-8-8z" fill="#e2dff4"/></g><path d="m396.817 57.2h-23c4.575 0 8.283 3.709 8.283 8.283v16.567c0 4.575-3.709 8.283-8.283 8.283h23c4.575 0 8.283-3.709 8.283-8.283v-16.567c0-4.574-3.709-8.283-8.283-8.283z" fill="#bebcdd"/><g><path d="m15.783 256c-4.575 0-8.283-3.709-8.283-8.283v-16.567c0-4.575 3.709-8.283 8.283-8.283h480.433c4.575 0 8.283 3.708 8.283 8.283v16.567c0 4.575-3.709 8.283-8.283 8.283z" fill="#e2dff4"/><path d="m496.217 222.867h-23c4.575 0 8.283 3.708 8.283 8.283v16.567c0 4.575-3.709 8.283-8.283 8.283h23c4.575 0 8.283-3.709 8.283-8.283v-16.567c0-4.575-3.709-8.283-8.283-8.283z" fill="#bebcdd"/></g><g><path d="m15.783 504.5c-4.575 0-8.283-3.709-8.283-8.283v-16.567c0-4.575 3.709-8.283 8.283-8.283h480.433c4.575 0 8.283 3.708 8.283 8.283v16.567c0 4.575-3.709 8.283-8.283 8.283z" fill="#e2dff4"/><path d="m496.217 471.367h-23c4.575 0 8.283 3.708 8.283 8.283v16.567c0 4.575-3.709 8.283-8.283 8.283h23c4.575 0 8.283-3.709 8.283-8.283v-16.567c0-4.575-3.709-8.283-8.283-8.283z" fill="#bebcdd"/></g><path d="m281.133 405.1h-50.267c-4.418 0-8-3.582-8-8v-17.133c0-4.418 3.582-8 8-8h50.267c4.418 0 8 3.582 8 8v17.133c0 4.418-3.581 8-8 8z" fill="#ffc649"/><path d="m281.133 371.967h-23c4.418 0 8 3.582 8 8v17.133c0 4.418-3.582 8-8 8h23c4.418 0 8-3.582 8-8v-17.133c0-4.419-3.581-8-8-8z" fill="#ffa742"/><g><path d="m115.467 421.667h-50.267c-4.418 0-8-3.582-8-8v-99.967c0-4.418 3.582-8 8-8h50.267c4.418 0 8 3.582 8 8v99.967c0 4.418-3.582 8-8 8z" fill="#f6f6f6"/><path d="m115.467 305.7h-23c4.418 0 8 3.582 8 8v99.967c0 4.418-3.582 8-8 8h23c4.418 0 8-3.582 8-8v-99.967c0-4.418-3.582-8-8-8z" fill="#e2dff4"/></g><g><path d="m261.857 167.309 2.345-2.345c5.473-5.473 12.331-9.356 19.841-11.234l10.181-2.545c7.509-1.877 14.367-5.76 19.841-11.234l3.003-3.002c12.999-12.999 16.221-32.856 8-49.298-6.854-13.708-5.837-30.037 2.664-42.789l1.486-2.229c.824-1.237.923-2.82.258-4.149l-13.64-27.279c-1.023-2.046-3.511-2.875-5.557-1.852l-2.716 1.358c-16.519 8.258-36.196 7.033-51.563-3.211-15.367 10.244-35.044 11.47-51.563 3.21l-2.716-1.358c-2.046-1.023-4.534-.194-5.557 1.852l-13.639 27.279c-.665 1.329-.566 2.913.258 4.149l1.486 2.229c8.501 12.752 9.518 29.082 2.664 42.789-8.221 16.442-4.999 36.3 8 49.298l3.003 3.002c5.473 5.473 12.331 9.356 19.841 11.234l10.181 2.545c7.509 1.877 14.367 5.76 19.841 11.234l2.345 2.345c3.234 3.236 8.478 3.236 11.713.001z" fill="#ffc649"/><g><path d="m325.067 87.651c-6.854-13.708-5.837-30.037 2.664-42.789l1.486-2.228c.824-1.237.923-2.82.258-4.15l-13.64-27.279c-1.023-2.046-3.511-2.875-5.557-1.852l-2.716 1.358c-4.101 2.05-8.397 3.514-12.773 4.402l11.686 23.371c.665 1.329.566 2.913-.258 4.15l-1.486 2.228c-8.501 12.752-9.518 29.081-2.664 42.789 8.221 16.442 4.999 36.3-8 49.299l-3.003 3.002c-5.473 5.473-12.331 9.356-19.841 11.234l-10.181 2.545c-6.075 1.519-11.709 4.369-16.543 8.293 1.142.926 2.252 1.895 3.298 2.94l2.345 2.345c3.235 3.235 8.48 3.235 11.714 0l2.345-2.345c5.473-5.473 12.331-9.356 19.841-11.234l10.181-2.545c7.509-1.878 14.367-5.76 19.841-11.234l3.003-3.002c12.999-12.998 16.221-32.856 8-49.298z" fill="#ffa742"/></g></g></g><g><path d="m496.5 263.5c8.547 0 15.5-6.953 15.5-15.5v-17.133c0-8.547-6.953-15.5-15.5-15.5h-100.467v-117.533h.783c8.703 0 15.783-7.081 15.783-15.784v-16.567c0-8.703-7.08-15.783-15.783-15.783h-63.264c.143-.225.272-.456.421-.679l1.485-2.229c2.31-3.466 2.588-7.934.726-11.663l-13.64-27.28c-2.873-5.74-9.879-8.077-15.618-5.206l-2.718 1.358c-14.074 7.039-30.952 5.989-44.048-2.741-2.52-1.68-5.801-1.68-8.32 0-13.096 8.73-29.973 9.781-44.049 2.742l-2.716-1.358c-5.746-2.873-12.748-.535-15.619 5.207l-13.642 27.282c-1.86 3.726-1.582 8.194.728 11.661l1.486 2.23c.148.222.277.453.42.678h-63.264c-8.703 0-15.783 7.08-15.783 15.783v16.565c0 8.703 7.08 15.784 15.783 15.784h.783v117.533h-43.767c-4.143 0-7.5 3.358-7.5 7.5s3.357 7.5 7.5 7.5h424.3c.275 0 .5.224.5.5v17.133c0 .276-.225.5-.5.5h-481c-.275 0-.5-.224-.5-.5v-17.133c0-.276.225-.5.5-.5h26.7c4.143 0 7.5-3.358 7.5-7.5s-3.357-7.5-7.5-7.5h-26.7c-8.547 0-15.5 6.953-15.5 15.5v17.133c0 8.547 6.953 15.5 15.5 15.5h1.066v200.367h-1.066c-8.547 0-15.5 6.953-15.5 15.5v17.133c0 8.547 6.953 15.5 15.5 15.5h59.833c4.143 0 7.5-3.358 7.5-7.5s-3.357-7.5-7.5-7.5h-59.833c-.275 0-.5-.224-.5-.5v-17.133c0-.276.225-.5.5-.5h481c.275 0 .5.224.5.5v17.133c0 .276-.225.5-.5.5h-391.167c-4.143 0-7.5 3.358-7.5 7.5s3.357 7.5 7.5 7.5h391.167c8.547 0 15.5-6.953 15.5-15.5v-17.133c0-8.547-6.953-15.5-15.5-15.5h-1.066v-200.367zm-99.684-198.8c.432 0 .783.352.783.783v16.567c0 .432-.352.784-.783.784h-65.712c-2.556-5.76-3.479-12.023-2.808-18.133h68.52zm-195.445-47.139c17.358 8.562 37.841 7.988 54.629-1.29 16.788 9.279 37.274 9.851 54.629 1.29l11.267 22.533-.404.607c-9.97 14.954-11.17 34.23-3.132 50.304 6.787 13.576 4.137 29.908-6.595 40.641l-3.003 3.002c-4.513 4.512-10.168 7.714-16.357 9.261l-10.181 2.545c-8.826 2.206-16.892 6.773-23.325 13.206l-2.345 2.345c-.306.306-.804.304-1.107 0l-2.345-2.345c-6.434-6.434-14.499-11-23.325-13.206l-10.182-2.546c-6.188-1.546-11.844-4.749-16.356-9.261l-3.002-3.002c-10.732-10.733-13.383-27.065-6.596-40.641 8.038-16.075 6.838-35.35-3.131-50.303l-.405-.608zm-86.971 64.489v-16.567c0-.432.352-.783.783-.783h68.521c.671 6.11-.252 12.374-2.808 18.133h-65.713c-.431.001-.783-.351-.783-.783zm16.567 15.784h44.751c-2.881 15.905 2.052 32.559 13.912 44.42l3.003 3.003c6.434 6.434 14.5 11 23.324 13.206l10.181 2.545c6.189 1.547 11.846 4.75 16.356 9.261l2.346 2.345c3.077 3.077 7.118 4.615 11.16 4.615s8.083-1.538 11.16-4.615c0 0 0-.001.001-.001l2.345-2.345c4.511-4.511 10.167-7.714 16.356-9.261l10.18-2.545c8.825-2.206 16.892-6.772 23.325-13.206l3.004-3.003c11.859-11.86 16.792-28.514 13.911-44.419h44.751v117.533h-250.066zm183.3 183.799h-116.534c-8.547 0-15.5 6.953-15.5 15.5v166.733h-18.133v-200.366h183.8v200.367h-18.134v-166.734c.001-8.547-6.952-15.5-15.499-15.5zm-282.701-18.133h117.534v200.367h-117.534zm165.667 33.633c0-.276.225-.5.5-.5h50.767v67.833h-17.633c-8.547 0-15.5 6.953-15.5 15.5v17.134c0 8.547 6.953 15.5 15.5 15.5h17.633v51.267h-51.267zm51.267 100.467h-17.633c-.275 0-.5-.224-.5-.5v-17.133c0-.276.225-.5.5-.5h17.633zm15-18.133h17.633c.275 0 .5.224.5.5v17.133c0 .276-.225.5-.5.5h-17.633zm0 84.4v-51.267h17.633c8.547 0 15.5-6.953 15.5-15.5v-17.133c0-8.547-6.953-15.5-15.5-15.5h-17.633v-67.833h50.767c.275 0 .5.224.5.5v166.733zm216.934 0h-117.534v-200.367h117.533v200.367z"/><path d="m222.867 64.7h66.266c4.143 0 7.5-3.358 7.5-7.5s-3.357-7.5-7.5-7.5h-66.266c-4.143 0-7.5 3.358-7.5 7.5s3.358 7.5 7.5 7.5z"/><path d="m272.566 82.834h-33.133c-4.143 0-7.5 3.358-7.5 7.5s3.357 7.5 7.5 7.5h33.133c4.143 0 7.5-3.358 7.5-7.5s-3.357-7.5-7.5-7.5z"/><path d="m115.467 298.2h-50.267c-8.547 0-15.5 6.953-15.5 15.5v99.966c0 8.547 6.953 15.5 15.5 15.5h50.267c8.547 0 15.5-6.953 15.5-15.5v-99.966c0-8.547-6.953-15.5-15.5-15.5zm-50.267 15h50.267c.275 0 .5.224.5.5v17.633h-51.267v-17.633c0-.276.225-.5.5-.5zm50.267 100.967h-50.267c-.275 0-.5-.224-.5-.5v-67.333h51.267v67.333c0 .275-.225.5-.5.5z"/><path d="m396.533 429.167h50.267c8.547 0 15.5-6.953 15.5-15.5v-99.967c0-8.547-6.953-15.5-15.5-15.5h-50.267c-8.547 0-15.5 6.953-15.5 15.5v99.966c0 8.547 6.953 15.501 15.5 15.501zm50.267-15h-50.267c-.275 0-.5-.224-.5-.5v-67.333h51.267v67.333c0 .275-.225.5-.5.5zm-50.267-100.967h50.267c.275 0 .5.224.5.5v17.633h-51.267v-17.633c0-.276.225-.5.5-.5z"/></g></g></svg>