<svg id="Capa_1" enable-background="new 0 0 512 512" height="512" viewBox="0 0 512 512" width="512" xmlns="http://www.w3.org/2000/svg"><g><g><g><path d="m220.48 352.635h143.963c30.479 0 57.009 20.836 64.232 50.447l19.542 80.111c2.6 10.658-5.471 20.934-16.442 20.934h-275.142c-12.745 0-22.122-11.939-19.102-24.321l18.716-76.724c7.224-29.611 33.753-50.447 64.233-50.447z" fill="#f99675"/><path d="m300.936 352.637c30.47 0 57 20.84 64.23 50.45l24.65 101.04h41.96c10.97 0 19.04-10.27 16.44-20.93l-19.54-80.11c-7.22-29.61-33.75-50.45-64.23-50.45z" fill="#f68157"/></g><g><path d="m255.522 322.465h4.542v28.267c0 20.807 16.868 37.675 37.675 37.675 20.807 0 37.675-16.868 37.675-37.675v-87.467c5.567 3.309 12.18 5.023 19.219 4.525 16.216-1.148 29.341-14.294 30.478-30.511 1.351-19.273-13.891-35.334-32.877-35.334-6.14 0-11.89 1.68-16.82 4.61v-67.468c0-39.119-32.433-70.443-71.528-69.083-33.695 1.172-61.629 26.482-66.109 59.899l-14.711 109.745c-5.878 43.841 28.222 82.817 72.456 82.817z" fill="#ffdfcf"/><path d="m260.059 322.467v28.265c0 20.807 16.868 37.675 37.675 37.675 20.807 0 37.675-16.868 37.675-37.675v-87.465c5.57 3.31 12.18 5.02 19.22 4.52 16.22-1.15 29.35-14.29 30.48-30.51.973-13.881-6.664-26.097-18.11-31.844-4.443-2.231-7.161-23.492-12.471-23.492-6.14 0-2.772 6.122-7.702 9.052l6.583-59.385-35.58-43.2v192.908c0 22.72-18.42 41.15-41.15 41.15h-16.62z" fill="#ffcebf"/><path d="m366.997 110.357v95.08c-4.44-2.24-9.45-3.49-14.76-3.49-6.14 0-11.89 1.68-16.82 4.61v-33.67l-.01-14.9c0-15.23-6.82-28.86-17.58-38.01-8.69-7.4-19.97-11.86-32.28-11.86h-79.55c-27.7 0-50.87-21.96-51.32-49.66-.4-25 17.35-45.92 40.94-50.43 4.95-.95 9.55 2.82 9.55 7.86 0 8.96 3.63 17.06 9.5 22.93s13.98 9.5 22.93 9.5h67.36c34.26 0 62.04 27.77 62.04 62.04z" fill="#766e6e"/><path d="m366.997 110.357v95.08c-4.44-2.24-9.45-3.49-14.76-3.49-6.14 0-11.89 1.68-16.82 4.61v-33.67l-.01-14.9c0-15.23-6.82-28.86-17.58-38.01v-36.87c0-19.22-15.57-34.79-34.79-34.79h21.92c34.26 0 62.04 27.77 62.04 62.04z" fill="#5b5555"/></g><path d="m305.631 378.757h-187.214c-9.386 0-16.994 7.609-16.994 16.994v91.382c0 9.386 7.609 16.994 16.994 16.994h187.214c9.386 0 16.994-7.609 16.994-16.994v-91.382c0-9.386-7.608-16.994-16.994-16.994z" fill="#5de1c4"/><path d="m322.625 395.743v91.39c0 9.38-7.61 16.99-17 16.99h-23.57c9.38 0 16.99-7.61 16.99-16.99v-91.39c0-9.38-7.61-16.99-16.99-16.99h23.57c9.391 0 17 7.61 17 16.99z" fill="#0ed2b3"/><g><path d="m115.57 428.382c7.12 0 12.892-5.772 12.892-12.892s-5.772-12.892-12.892-12.892h-27.231c-7.12 0-12.892 5.772-12.892 12.892s5.772 12.892 12.892 12.892c-7.12 0-12.892 5.772-12.892 12.892 0 7.12 5.772 12.892 12.892 12.892-7.12 0-12.892 5.772-12.892 12.892 0 7.12 5.772 12.892 12.892 12.892h27.231c7.12 0 12.892-5.772 12.892-12.892 0-7.12-5.772-12.892-12.892-12.892 7.12 0 12.892-5.772 12.892-12.892 0-7.12-5.772-12.892-12.892-12.892z" fill="#ffdfcf"/><path d="m115.572 454.164c3.56 0 6.78 1.44 9.12 3.77 2.33 2.34 3.77 5.56 3.77 9.12 0 7.12-5.77 12.9-12.89 12.9h-23.81c7.12 0 12.89-5.78 12.89-12.9 0-3.56-1.44-6.78-3.78-9.12-2.33-2.33-5.55-3.77-9.11-3.77 7.12 0 12.89-5.77 12.89-12.89 0-3.56-1.44-6.78-3.78-9.12-2.33-2.33-5.55-3.77-9.11-3.77 7.12 0 12.89-5.78 12.89-12.9s-5.77-12.89-12.89-12.89h23.81c7.12 0 12.89 5.77 12.89 12.89s-5.77 12.9-12.89 12.9c3.56 0 6.78 1.44 9.12 3.77 2.33 2.34 3.77 5.56 3.77 9.12 0 7.12-5.77 12.89-12.89 12.89z" fill="#ffcebf"/></g><g><g><path d="m399.917 504.127h-54.09l-2.5-24.18h-31.85c-7.1 0-13.29-5.81-13.28-12.91.01-3.55 1.45-6.76 3.78-9.09 2.33-2.34 5.56-3.78 9.12-3.78-7.12 0-12.9-5.77-12.9-12.89 0-3.56 1.45-6.78 3.78-9.11 2.33-2.34 5.56-3.78 9.12-3.78-7.12 0-12.9-5.78-12.9-12.9 0-3.56 1.45-6.78 3.78-9.12 2.33-2.33 5.56-3.77 9.12-3.77h31.813c26.435 0 48.59 19.986 51.304 46.281z" fill="#ffdfcf"/></g></g></g><g><path d="m504.5 148.697c4.143 0 7.5-3.358 7.5-7.5s-3.357-7.5-7.5-7.5h-130v-20.294c0-4.142-3.357-7.5-7.5-7.5s-7.5 3.358-7.5 7.5v81.684c-5.403-.976-11.167-.837-16.583.443l-.007-37.536c0-31.634-25.731-57.37-57.36-57.37h-79.55c-23.776 0-43.435-18.96-43.821-42.266-.353-20.962 14.306-39.033 34.86-42.969.05-.01.091-.014.121-.014.172 0 .51.154.51.51 0 22.018 17.912 39.93 39.93 39.93h67.36c19.596 0 37.784 10.603 47.467 27.671 2.043 3.602 6.619 4.866 10.225 2.822 3.603-2.044 4.866-6.621 2.822-10.224-2.233-3.937-4.826-7.599-7.717-10.965h146.743c4.143 0 7.5-3.358 7.5-7.5s-3.357-7.5-7.5-7.5h-164.85c-10.392-5.986-22.319-9.304-34.69-9.304h-67.36c-13.746 0-24.93-11.184-24.93-24.93 0-8.552-6.958-15.51-15.51-15.51-.98 0-1.977.096-2.951.284-24.903 4.77-43.384 24.922-46.546 49.46h-140.163c-4.143 0-7.5 3.358-7.5 7.5s3.357 7.5 7.5 7.5h140.177c3.232 24.38 22.048 44.131 46.101 49.22-1.611 4.722-2.768 9.593-3.434 14.574l-.642 4.786h-182.202c-4.143 0-7.5 3.358-7.5 7.5s3.357 7.5 7.5 7.5h180.191l-9.193 68.58h-170.998c-4.143 0-7.5 3.358-7.5 7.5s3.357 7.5 7.5 7.5h168.988l-.854 6.373c-2.998 22.352 3.509 44.9 17.875 62.203h-100.559c-4.143 0-7.5 3.358-7.5 7.5s3.357 7.5 7.5 7.5h117.021c12.489 8.556 27.237 13.498 42.596 14.06v15.224h-32.087c-21.601 0-42.344 9.701-56.239 26.12h-45.821c-13.292 0-24.137 10.636-24.483 23.841h-5.598c-4.726 0-9.071 1.631-12.532 4.34h-68.307c-4.143 0-7.5 3.358-7.5 7.5s3.357 7.5 7.5 7.5h60.5c-.018.351-.053.697-.053 1.053 0 4.887 1.731 9.376 4.609 12.892-2.877 3.516-4.609 8.005-4.609 12.892s1.731 9.376 4.609 12.892c-2.877 3.516-4.609 8.005-4.609 12.892 0 11.244 9.148 20.392 20.393 20.392h5.589c.17 13.359 11.088 24.176 24.492 24.176l313.36-.004c7.546 0 14.547-3.405 19.208-9.34 4.66-5.935 6.307-13.541 4.517-20.87l-2.83-11.58c-.983-4.023-5.043-6.489-9.065-5.505-4.024.983-6.488 5.042-5.505 9.066l2.829 11.578c.69 2.825.055 5.758-1.743 8.047-1.798 2.29-4.499 3.604-7.41 3.604h-25.098l-5.008-48.515c-3.119-30.221-28.382-53.011-58.764-53.011h-12.797c-.098-3.727-1.031-7.248-2.622-10.385.749-.656 1.48-1.335 2.187-2.042 6.276-6.266 10.47-14.057 12.257-22.538h22.514c27.099 0 50.515 18.389 56.943 44.717l8.53 34.98c.836 3.427 3.902 5.725 7.28 5.725.588 0 1.186-.07 1.783-.215 4.023-.981 6.49-5.039 5.509-9.063l-5.325-21.839h65.329c4.143 0 7.5-3.358 7.5-7.5s-3.357-7.5-7.5-7.5h-69.03c-8.706-32.067-37.629-54.304-71.02-54.304h-21.53v-29.276h161.58c4.143 0 7.5-3.358 7.5-7.5s-3.357-7.5-7.5-7.5h-161.58v-26.563c3.966.934 8.084 1.265 12.251.97 19.944-1.415 36.032-17.524 37.421-37.469.13-1.857.126-3.699.008-5.519h111.9c4.143 0 7.5-3.358 7.5-7.5s-3.357-7.5-7.5-7.5h-115.842c-3.131-6.48-7.978-12.089-14.158-16.156v-52.423h130zm-284.02 211.44h33.08c.825 3.871 2.154 7.61 3.943 11.12h-71.311c9.894-7.113 21.913-11.12 34.288-11.12zm-132.141 49.96h27.23c2.974 0 5.393 2.419 5.393 5.392s-2.419 5.392-5.393 5.392h-27.23c-2.974 0-5.393-2.419-5.393-5.392s2.419-5.392 5.393-5.392zm-5.393 31.177c0-2.973 2.419-5.392 5.393-5.392h27.23c2.974 0 5.393 2.419 5.393 5.392s-2.419 5.392-5.393 5.392h-27.23c-2.974.001-5.393-2.418-5.393-5.392zm0 25.785c0-2.973 2.419-5.392 5.393-5.392h27.23c2.974 0 5.393 2.419 5.393 5.392s-2.419 5.392-5.393 5.392h-27.23c-2.974 0-5.393-2.419-5.393-5.392zm253.616 20.388.949 9.176h-9.295c1.194-2.829 1.865-5.928 1.906-9.176zm50.192-37.799 4.848 46.975h-39.011l-1.804-17.447c-.395-3.823-3.616-6.729-7.46-6.729h-31.85c-1.534 0-3.063-.651-4.196-1.786-.593-.593-1.586-1.852-1.584-3.604.004-1.438.566-2.79 1.596-3.82 1.009-1.013 2.359-1.571 3.804-1.571h27.173c4.143 0 7.5-3.358 7.5-7.5s-3.357-7.5-7.5-7.5h-27.173c-2.978 0-5.399-2.418-5.399-5.39 0-1.434.562-2.785 1.596-3.819 1.009-1.013 2.359-1.571 3.804-1.571h27.173c4.143 0 7.5-3.358 7.5-7.5s-3.357-7.5-7.5-7.5h-27.173c-2.978 0-5.399-2.423-5.399-5.4 0-1.436.566-2.795 1.585-3.818 1.013-1.014 2.368-1.572 3.814-1.572h31.813c22.667.001 41.516 17.004 43.843 39.552zm-75.657-54.551c-5.454 0-10.577 2.119-14.434 5.978-3.847 3.863-5.966 8.982-5.966 14.412 0 4.886 1.727 9.377 4.603 12.894-2.981 3.634-4.603 8.142-4.603 12.896 0 4.883 1.727 9.371 4.601 12.885-2.967 3.62-4.588 8.114-4.601 12.864-.007 5.317 2.112 10.372 5.97 14.234 3.926 3.931 9.324 6.186 14.811 6.186h3.637c-.165 5.063-4.309 9.135-9.407 9.176l-187.287.004c-5.132 0-9.316-4.089-9.484-9.176h6.634c11.244 0 20.393-9.148 20.393-20.392 0-4.887-1.731-9.376-4.609-12.892 2.877-3.516 4.609-8.005 4.609-12.892s-1.731-9.376-4.609-12.892c2.877-3.516 4.609-8.005 4.609-12.892 0-11.244-9.148-20.392-20.393-20.392h-6.616c.337-4.93 4.448-8.841 9.467-8.841h187.21c5.019 0 9.13 3.91 9.467 8.84zm66.532-158.345c-.874 12.536-10.985 22.661-23.521 23.55-5.269.373-10.397-.831-14.853-3.483-2.316-1.38-5.197-1.408-7.543-.075-2.345 1.333-3.793 3.823-3.793 6.52v87.47c0 8.059-3.14 15.631-8.844 21.327-.693.693-1.423 1.337-2.172 1.955-3.377-1.758-7.21-2.758-11.274-2.758h-29.993c-5.153-5.546-8.069-12.881-8.069-20.52v-20.774h20.306c4.143 0 7.5-3.358 7.5-7.5s-3.357-7.5-7.5-7.5h-27.81c-.031 0-.061.004-.092.005h-4.454c-18.918 0-36.913-8.167-49.37-22.407-12.459-14.241-18.162-33.164-15.646-51.917l14.71-109.742c.705-5.272 2.085-10.391 4.097-15.278h76.242c23.357 0 42.36 19.007 42.36 42.37l.01 48.562c.001 2.696 1.448 5.184 3.792 6.517 1.15.654 2.43.981 3.708.981 1.326 0 2.652-.351 3.832-1.053 3.915-2.327 8.407-3.557 12.988-3.557 4.019 0 7.849.904 11.382 2.686.003.002.007.003.01.004.002.001.003.002.005.003 9.22 4.625 14.713 14.287 13.992 24.614z"/><path d="m7.5 315.853h50.45c4.143 0 7.5-3.358 7.5-7.5s-3.357-7.5-7.5-7.5h-50.45c-4.143 0-7.5 3.358-7.5 7.5s3.357 7.5 7.5 7.5z"/><path d="m277.609 165.389c-4.143 0-7.5 3.358-7.5 7.5v18.104c0 4.142 3.357 7.5 7.5 7.5s7.5-3.358 7.5-7.5v-18.104c0-4.142-3.357-7.5-7.5-7.5z"/><path d="m230.709 190.994v-18.104c0-4.142-3.357-7.5-7.5-7.5s-7.5 3.358-7.5 7.5v18.104c0 4.142 3.357 7.5 7.5 7.5s7.5-3.358 7.5-7.5z"/><path d="m245.132 238.646c-7.231 0-14.03 2.816-19.144 7.929-2.93 2.929-2.93 7.677-.001 10.607 2.929 2.928 7.678 2.93 10.606 0 2.281-2.281 5.313-3.536 8.538-3.536 3.226 0 6.257 1.256 8.537 3.536 1.465 1.465 3.384 2.197 5.304 2.197 1.919 0 3.839-.732 5.303-2.197 2.93-2.929 2.93-7.677.001-10.607-5.113-5.113-11.912-7.929-19.144-7.929z"/><path d="m359.992 221.086c-11.396 0-20.666 9.271-20.666 20.666 0 4.142 3.357 7.5 7.5 7.5s7.5-3.358 7.5-7.5c0-3.125 2.542-5.666 5.666-5.666 4.143 0 7.5-3.358 7.5-7.5s-3.357-7.5-7.5-7.5z"/><path d="m232.278 217.912c3.204 5.821 9.321 9.437 15.966 9.437 4.143 0 7.5-3.358 7.5-7.5s-3.357-7.5-7.5-7.5c-1.658 0-2.481-1.046-2.824-1.669-.344-.624-.787-1.879.101-3.281l13.578-21.445c2.216-3.5 1.175-8.133-2.325-10.349-3.497-2.215-8.133-1.176-10.349 2.324l-13.578 21.445c-3.555 5.614-3.773 12.718-.569 18.538z"/><path d="m164.872 421.451c-4.143 0-7.5 3.358-7.5 7.5v24.981c0 4.142 3.357 7.5 7.5 7.5s7.5-3.358 7.5-7.5v-24.981c0-4.142-3.357-7.5-7.5-7.5z"/><path d="m188.448 421.451c-4.143 0-7.5 3.358-7.5 7.5v24.981c0 4.142 3.357 7.5 7.5 7.5s7.5-3.358 7.5-7.5v-24.981c0-4.142-3.357-7.5-7.5-7.5z"/><path d="m212.024 421.451c-4.143 0-7.5 3.358-7.5 7.5v24.981c0 4.142 3.357 7.5 7.5 7.5s7.5-3.358 7.5-7.5v-24.981c0-4.142-3.357-7.5-7.5-7.5z"/><path d="m235.601 421.451c-4.143 0-7.5 3.358-7.5 7.5v24.981c0 4.142 3.357 7.5 7.5 7.5s7.5-3.358 7.5-7.5v-24.981c0-4.142-3.358-7.5-7.5-7.5z"/><path d="m259.176 421.451c-4.143 0-7.5 3.358-7.5 7.5v24.981c0 4.142 3.357 7.5 7.5 7.5s7.5-3.358 7.5-7.5v-24.981c0-4.142-3.358-7.5-7.5-7.5z"/></g></g></svg>