<svg id="Capa_1" enable-background="new 0 0 512 512" height="512" viewBox="0 0 512 512" width="512" xmlns="http://www.w3.org/2000/svg"><g><g><path d="m338.833 90.333c0-45.747-37.085-82.833-82.833-82.833s-82.833 37.086-82.833 82.833v14.167h165.666z" fill="#335373"/><path d="m256 7.5c-3.904 0-7.74.29-11.5.813 40.302 5.601 71.333 40.177 71.333 82.021v14.166h23v-14.166c0-45.748-37.085-82.834-82.833-82.834z" fill="#1f3c59"/><path d="m355.4 156.599c9.15 0 16.567 7.417 16.567 16.567v33.134c0 9.15-7.417 16.567-16.567 16.567h-198.799c-9.149 0-16.567-7.417-16.567-16.567v-33.134c0-9.15 7.417-16.567 16.567-16.567z" fill="#feb19d"/><path d="m148.316 339.348c-32.687 4.076-57.981 31.959-57.981 65.75l-.002 82.834c0 9.15 7.417 16.567 16.567 16.567h298.198c9.15 0 16.567-7.417 16.567-16.567l-.002-82.834c0-33.791-25.293-61.675-57.981-65.75z" fill="#335373"/><path d="m181.45 305.7c-18.299 0-33.133 14.834-33.133 33.133v15.494c0 15.429 10.649 28.816 25.683 32.285l78.275 18.064c2.451.566 4.999.566 7.45 0l78.275-18.063c15.034-3.469 25.683-16.856 25.683-32.285v-15.494c0-18.299-14.834-33.133-33.133-33.133h-149.1z" fill="#54d7ff"/><path d="m421.664 405.099c0-33.791-25.293-61.674-57.981-65.75h-23c32.687 4.076 57.981 31.959 57.981 65.75l.002 82.835c0 9.149-7.417 16.567-16.567 16.567h23c9.15 0 16.567-7.418 16.567-16.567z" fill="#1f3c59"/><path d="m206.299 277.5v69.617h99.401v-69.609z" fill="#feb19d"/><path d="m180.079 255.999 75.921 21.505 75.922-21.505c4.435-10.148 6.911-21.348 6.911-33.13l.001-16.57h-165.667l.001 16.57c0 11.783 2.477 22.982 6.911 33.13z" fill="#fecdad"/><path d="m331.922 255.999c4.435-10.148 6.911-21.348 6.911-33.13l.001-16.57h-23.334v16.57c0 14.854-3.926 28.782-10.774 40.834z" fill="#feb19d"/><path d="m338.833 206.299c0 13.796-11.184 24.979-24.98 24.979h-26.116c-4.409 0-8.632-1.753-11.741-4.879-2.371-2.383-5.337-5.365-8.252-8.295-6.477-6.51-17.013-6.51-23.489 0l-8.248 8.291c-3.109 3.126-7.336 4.883-11.745 4.883h-26.116c-13.796 0-24.98-11.184-24.98-24.979v-64.633h165.666v64.633z" fill="#335373"/><path d="m330.55 305.7h-23c18.299 0 33.133 14.834 33.133 33.133v21.048c0 14.095-8.891 26.482-21.89 31.163l19.207-4.431c15.034-3.469 25.683-16.856 25.683-32.285v-15.494c0-18.299-14.834-33.134-33.133-33.134z" fill="#63b0ff"/><path d="m315.5 141.667v64.633c0 13.796-11.184 24.979-24.979 24.979h23.333c13.796 0 24.979-11.184 24.979-24.979v-64.633z" fill="#1f3c59"/><path d="m331.922 255.999h-151.843c12.783 29.252 41.957 49.702 75.922 49.702 33.964.001 63.138-20.45 75.921-49.702z" fill="#335373"/><path d="m256.001 305.702c33.964 0 63.138-20.451 75.921-49.702h-23.319c-11.293 25.836-35.39 44.795-64.27 48.868 0 .002-.001.004-.001.007 3.814.537 7.707.827 11.669.827z" fill="#1f3c59"/><path d="m338.833 90.333c9.15 0 16.567 7.417 16.567 16.567v49.699h-198.8v-49.699c0-9.149 7.417-16.567 16.567-16.567z" fill="#54d7ff"/><path d="m338.833 90.334h-23c9.149 0 16.567 7.417 16.567 16.567v49.699h23v-49.7c0-9.149-7.418-16.566-16.567-16.566z" fill="#63b0ff"/></g><g fill="#0c0a0b"><path d="m222.867 205.516c4.142 0 7.5-3.357 7.5-7.5v-8.283c0-4.143-3.358-7.5-7.5-7.5s-7.5 3.357-7.5 7.5v8.283c0 4.142 3.358 7.5 7.5 7.5z"/><path d="m289.134 205.516c4.142 0 7.5-3.357 7.5-7.5v-8.283c0-4.143-3.358-7.5-7.5-7.5s-7.5 3.357-7.5 7.5v8.283c0 4.142 3.358 7.5 7.5 7.5z"/><path d="m429.164 405.099c0-35.041-24.71-65.021-58.412-72.15-2.861-19.626-19.796-34.749-40.202-34.749h-17.35v-5.468c18.399-15.091 30.75-37.293 32.82-62.366h9.38c13.271 0 24.067-10.796 24.067-24.066v-33.134c0-10.652-6.959-19.704-16.567-22.865v-43.401c0-10.736-7.068-19.851-16.794-22.942-3.282-46.846-42.439-83.958-90.106-83.958s-86.824 37.112-90.106 83.959c-9.726 3.09-16.794 12.205-16.794 22.942v4.767c0 4.143 3.358 7.5 7.5 7.5s7.5-3.357 7.5-7.5v-4.768c0-5 4.067-9.067 9.066-9.067h33.918v51.266h-42.984v-7.432c0-4.143-3.358-7.5-7.5-7.5s-7.5 3.357-7.5 7.5v8.635c-9.608 3.16-16.566 12.213-16.566 22.864v33.134c0 13.27 10.796 24.066 24.067 24.066h9.382c2.07 25.072 14.42 47.272 32.817 62.363v5.471h-17.35c-20.406 0-37.341 15.123-40.202 34.749-33.702 7.129-58.412 37.109-58.412 72.15l-.002 82.834c0 13.271 10.796 24.067 24.067 24.067h27.199c4.142 0 7.5-3.357 7.5-7.5s-3.358-7.5-7.5-7.5h-27.199c-5 0-9.067-4.067-9.067-9.067l.002-82.834c0-26.674 17.967-49.667 42.98-56.615v5.844c0 19.032 12.952 35.312 31.497 39.593l26.487 6.112v39.785c-2.454 1.233-4.142 3.766-4.142 6.699s1.688 5.466 4.142 6.699v18.15c0 4.143 3.358 7.5 7.5 7.5s7.5-3.357 7.5-7.5v-18.15c2.454-1.233 4.142-3.766 4.142-6.699s-1.688-5.467-4.142-6.699v-36.324l36.789 8.49c1.77.409 3.59.613 5.411.613 1.82 0 3.641-.205 5.412-.613l36.788-8.49v36.323c-2.454 1.233-4.142 3.766-4.142 6.699s1.688 5.466 4.142 6.699v18.15c0 4.143 3.358 7.5 7.5 7.5s7.5-3.357 7.5-7.5v-18.15c2.454-1.233 4.142-3.766 4.142-6.699s-1.688-5.467-4.142-6.699v-39.785l26.487-6.112c18.545-4.28 31.497-20.56 31.497-39.593v-5.844c25.013 6.948 42.98 29.94 42.98 56.615l.002 82.834c0 5-4.067 9.067-9.067 9.067h-240.999c-4.142 0-7.5 3.357-7.5 7.5s3.358 7.5 7.5 7.5h240.999c13.271 0 24.067-10.797 24.067-24.067zm-215.365-65.482v-36.901c12.604 6.688 26.967 10.485 42.202 10.485 15.234 0 29.596-3.796 42.199-10.483v36.899zm117.535-175.518v42.189c0 .004-.001.008-.001.012 0 9.638-7.841 17.479-17.48 17.479h-26.116c-2.431 0-4.712-.947-6.423-2.667l-8.253-8.297c-4.551-4.573-10.61-7.093-17.062-7.092-6.452 0-12.511 2.52-17.061 7.094l-8.248 8.29c-1.689 1.698-4.033 2.672-6.428 2.672h-26.116c-9.633 0-17.47-7.833-17.479-17.463l-.001-42.217zm-133.187 74.679h26.116c6.358 0 12.577-2.585 17.061-7.093l8.249-8.291c1.714-1.723 3.997-2.672 6.427-2.672 2.431 0 4.713.948 6.428 2.672l8.253 8.296c4.548 4.57 10.605 7.088 17.057 7.088h26.116c6.074 0 11.761-1.68 16.628-4.593-.748 4.944-1.981 9.731-3.644 14.314h-141.674c-1.663-4.582-2.896-9.369-3.644-14.313 4.867 2.913 10.554 4.592 16.627 4.592zm121.24 24.721c-13.412 20.851-36.805 34.702-63.386 34.702-26.582 0-49.974-13.851-63.386-34.702zm45.08-57.199c0 4.999-4.067 9.066-9.067 9.066h-9.066v-51.268h9.066c5 0 9.067 4.067 9.067 9.067zm-16.567-57.201h-42.983v-51.266h33.917c4.999 0 9.067 4.067 9.067 9.067v42.199zm-91.9-134.099c9.87 0 23.953 26.185 25.488 67.833h-50.977c1.536-41.648 15.618-67.833 25.489-67.833zm74.958 67.833h-34.466c-.87-23.658-5.831-47.298-14.56-63.232 26.554 9.766 46.132 34.081 49.026 63.232zm-100.89-63.232c-8.73 15.934-13.691 39.574-14.56 63.232h-34.466c2.894-29.151 22.472-53.466 49.026-63.232zm-7.984 78.232h67.832v51.266h-67.832zm-74.55 108.467v-33.134c0-5 4.067-9.067 9.067-9.067h9.067l.001 42.186c0 .005-.001.01-.001.015 0 .01.001.02.001.031v9.036h-9.068c-5-.001-9.067-4.068-9.067-9.067zm208.65 148.028c0 12.006-8.171 22.277-19.87 24.978l-23.114 5.334v-12.673c0-4.143-3.358-7.5-7.5-7.5s-7.5 3.357-7.5 7.5v16.134l-40.161 9.268c-1.334.307-2.745.307-4.078 0l-40.162-9.268v-16.134c0-4.143-3.358-7.5-7.5-7.5s-7.5 3.357-7.5 7.5v12.673l-23.114-5.334c-11.699-2.7-19.87-12.972-19.87-24.978v-15.494c0-14.135 11.499-25.634 25.633-25.634h17.35v26.417h-.783c-4.142 0-7.5 3.357-7.5 7.5s3.358 7.5 7.5 7.5h115.967c4.142 0 7.5-3.357 7.5-7.5s-3.358-7.5-7.5-7.5h-.782v-26.417h17.351c14.134 0 25.633 11.499 25.633 25.634z"/></g></g></svg>