<svg id="Capa_1" enable-background="new 0 0 512 512" height="512" viewBox="0 0 512 512" width="512" xmlns="http://www.w3.org/2000/svg"><g><g><path d="m118.347 504.5h-52.864c-4.575 0-8.283-3.709-8.283-8.283v-29.85h82.833v5l-14.277 28.554c-1.403 2.806-4.271 4.579-7.409 4.579z" fill="#335373"/><path d="m117.033 466.367v5l-14.277 28.554c-1.403 2.806-4.271 4.579-7.409 4.579h23c3.137 0 6.006-1.773 7.409-4.579l14.277-28.554v-5z" fill="#1f3c59"/><path d="m393.653 504.5h52.864c4.575 0 8.283-3.709 8.283-8.283v-29.85h-82.833v5l14.277 28.554c1.403 2.806 4.271 4.579 7.409 4.579z" fill="#335373"/><path d="m431.8 466.367v29.85c0 4.575-3.709 8.283-8.283 8.283h23c4.575 0 8.283-3.709 8.283-8.283v-29.85z" fill="#1f3c59"/><path d="m488.5 471.367h-465c-8.837 0-16-7.164-16-16v-431.867c0-8.837 7.163-16 16-16h465c8.837 0 16 7.163 16 16v431.867c0 8.836-7.163 16-16 16z" fill="#335373"/><path d="m57.2 48.917c0-4.575 3.709-8.283 8.283-8.283h381.033c4.575 0 8.283 3.709 8.283 8.283v381.033c0 4.575-3.709 8.283-8.283 8.283h-381.033c-4.575 0-8.283-3.708-8.283-8.283z" fill="#f6f6f6"/><g><ellipse cx="347.117" cy="239.434" fill="#e2dff4" rx="66.267" ry="66.267" transform="matrix(.23 -.973 .973 .23 34.337 522.254)"/><path d="m347.117 173.167c-3.925 0-7.763.361-11.5 1.015 31.113 5.447 54.767 32.578 54.767 65.252s-23.653 59.804-54.767 65.252c3.737.654 7.575 1.015 11.5 1.015 36.598 0 66.267-29.669 66.267-66.267-.001-36.598-29.669-66.267-66.267-66.267z" fill="#bebcdd"/><ellipse cx="347.117" cy="239.434" fill="#ffc649" rx="33.133" ry="33.133" transform="matrix(.23 -.973 .973 .23 34.337 522.254)"/><path d="m347.117 206.3c-4.044 0-7.917.727-11.5 2.053 12.63 4.675 21.633 16.825 21.633 31.08s-9.003 26.406-21.633 31.08c3.583 1.326 7.456 2.053 11.5 2.053 18.299 0 33.133-14.834 33.133-33.133 0-18.298-14.834-33.133-33.133-33.133z" fill="#ffa742"/></g><g><path d="m215.15 322.267h-83.967c-8.836 0-16-7.163-16-16v-133.667c0-8.837 7.163-16 16-16h83.967c8.837 0 16 7.163 16 16v133.667c0 8.836-7.163 16-16 16z" fill="#e2dff4"/><path d="m190.017 222.867h-33.7c-4.418 0-8-3.582-8-8v-17.133c0-4.418 3.582-8 8-8h33.7c4.418 0 8 3.582 8 8v17.133c0 4.418-3.582 8-8 8z" fill="#54d7ff"/><path d="m215.15 156.6h-23c8.837 0 16 7.163 16 16v133.667c0 8.837-7.163 16-16 16h23c8.837 0 16-7.163 16-16v-133.667c0-8.837-7.163-16-16-16z" fill="#bebcdd"/><path d="m190.017 189.733h-23c4.418 0 8 3.582 8 8v17.133c0 4.418-3.582 8-8 8h23c4.418 0 8-3.582 8-8v-17.133c0-4.418-3.582-8-8-8z" fill="#63b0ff"/></g><path d="m363.4 405.1h50.267c4.418 0 8-3.582 8-8v-17.133c0-4.418-3.582-8-8-8h-50.267c-4.418 0-8 3.582-8 8v17.133c0 4.418 3.582 8 8 8z" fill="#ffc649"/><path d="m488.5 7.5h-23c8.836 0 16 7.163 16 16v431.867c0 8.836-7.164 16-16 16h23c8.836 0 16-7.164 16-16v-431.867c0-8.837-7.164-16-16-16z" fill="#1f3c59"/><path d="m446.517 40.633h-23c4.575 0 8.283 3.709 8.283 8.283v381.034c0 4.575-3.709 8.283-8.283 8.283h23c4.575 0 8.283-3.709 8.283-8.283v-381.033c0-4.575-3.709-8.284-8.283-8.284z" fill="#e2dff4"/><path d="m413.667 371.967h-23c4.418 0 8 3.582 8 8v17.133c0 4.418-3.582 8-8 8h23c4.418 0 8-3.582 8-8v-17.133c0-4.419-3.582-8-8-8z" fill="#ffa742"/><g><path d="m65.767 156.6h-17.134c-4.418 0-8-3.582-8-8v-50.267c0-4.418 3.582-8 8-8h17.133c4.418 0 8 3.582 8 8v50.267c.001 4.418-3.581 8-7.999 8z" fill="#e2dff4"/><path d="m65.767 90.333h-17.134c-1.037 0-2.024.204-2.933.563 2.965 1.171 5.067 4.056 5.067 7.437v50.267c0 3.382-2.101 6.267-5.067 7.437.909.359 1.897.563 2.933.563h17.133c4.418 0 8-3.582 8-8v-50.267c.001-4.418-3.581-8-7.999-8z" fill="#bebcdd"/></g><g><path d="m65.767 388.533h-17.134c-4.418 0-8-3.582-8-8v-50.267c0-4.418 3.582-8 8-8h17.133c4.418 0 8 3.582 8 8v50.267c.001 4.419-3.581 8-7.999 8z" fill="#e2dff4"/><path d="m65.767 322.267h-17.134c-1.037 0-2.024.204-2.933.563 2.965 1.171 5.067 4.056 5.067 7.437v50.267c0 3.382-2.101 6.267-5.067 7.437.909.359 1.897.563 2.933.563h17.133c4.418 0 8-3.582 8-8v-50.267c.001-4.419-3.581-8-7.999-8z" fill="#bebcdd"/></g></g><g><path d="m488.5 0h-355.81c-4.142 0-7.5 3.357-7.5 7.5s3.358 7.5 7.5 7.5h355.81c4.686 0 8.5 3.813 8.5 8.5v431.867c0 4.687-3.814 8.5-8.5 8.5h-465c-4.687 0-8.5-3.813-8.5-8.5v-431.867c0-4.687 3.813-8.5 8.5-8.5h79.189c4.142 0 7.5-3.357 7.5-7.5s-3.358-7.5-7.5-7.5h-79.189c-12.958 0-23.5 10.542-23.5 23.5v431.867c0 12.958 10.542 23.5 23.5 23.5h26.2v17.35c0 8.703 7.081 15.783 15.783 15.783h52.864c6.018 0 11.427-3.344 14.117-8.725l12.204-24.408h222.663l12.205 24.408c2.69 5.382 8.1 8.725 14.116 8.725h52.864c8.703 0 15.783-7.08 15.783-15.783v-17.35h26.2c12.958 0 23.5-10.542 23.5-23.5v-431.867c.001-12.958-10.541-23.5-23.499-23.5zm-369.453 496.567c-.133.267-.402.433-.7.433h-52.864c-.432 0-.783-.352-.783-.783v-17.35h63.198zm328.253-.35c0 .432-.352.783-.783.783h-52.864c-.298 0-.566-.166-.7-.434l-8.85-17.699h63.197z"/><path d="m132.69 445.733h313.827c8.703 0 15.783-7.08 15.783-15.783v-381.033c0-8.703-7.08-15.784-15.783-15.784h-381.034c-8.703 0-15.783 7.081-15.783 15.784v33.916h-1.067c-8.547 0-15.5 6.953-15.5 15.5v50.267c0 8.547 6.953 15.5 15.5 15.5h1.067v150.667h-1.067c-8.547 0-15.5 6.953-15.5 15.5v50.267c0 8.547 6.953 15.5 15.5 15.5h1.067v33.917c0 8.703 7.08 15.783 15.783 15.783h37.207c4.142 0 7.5-3.357 7.5-7.5s-3.358-7.5-7.5-7.5h-37.207c-.432 0-.783-.352-.783-.783v-33.917h1.066c8.547 0 15.5-6.953 15.5-15.5v-50.267c0-8.547-6.953-15.5-15.5-15.5h-1.066v-150.667h1.066c8.547 0 15.5-6.953 15.5-15.5v-50.267c0-8.547-6.953-15.5-15.5-15.5h-1.066v-33.916c0-.433.352-.784.783-.784h381.033c.432 0 .783.352.783.784v381.033c0 .432-.352.783-.783.783h-313.826c-4.142 0-7.5 3.357-7.5 7.5s3.358 7.5 7.5 7.5zm-66.923-64.7h-17.134c-.276 0-.5-.225-.5-.5v-17.633h18.133v17.633c.001.276-.224.5-.499.5zm.5-50.766v17.633h-18.134v-17.634c0-.275.224-.5.5-.5h17.133c.276.001.501.225.501.501zm-.5-181.167h-17.134c-.276 0-.5-.225-.5-.5v-17.633h18.133v17.633c.001.275-.224.5-.499.5zm.5-50.767v17.634h-18.134v-17.634c0-.275.224-.5.5-.5h17.133c.276 0 .501.225.501.5z"/><path d="m347.117 165.667c-40.676 0-73.768 33.092-73.768 73.767s33.092 73.767 73.768 73.767c40.675 0 73.766-33.092 73.766-73.767s-33.091-73.767-73.766-73.767zm35.883 27.276-12.962 12.962c-6.529-4.478-14.423-7.105-22.922-7.105-8.498 0-16.392 2.627-22.922 7.105l-12.963-12.962c9.935-7.686 22.38-12.276 35.884-12.276 13.506 0 25.951 4.59 35.885 12.276zm-61.517 46.491c0-14.134 11.499-25.633 25.634-25.633 14.134 0 25.633 11.499 25.633 25.633 0 14.135-11.499 25.634-25.633 25.634-14.135-.001-25.634-11.5-25.634-25.634zm-20.858-35.884 12.963 12.962c-4.478 6.529-7.105 14.423-7.105 22.921s2.627 16.392 7.105 22.922l-12.962 12.963c-7.686-9.935-12.277-22.38-12.277-35.884s4.59-25.949 12.276-35.884zm10.608 82.374 12.962-12.962c6.53 4.478 14.424 7.105 22.923 7.105 8.498 0 16.392-2.627 22.921-7.105l12.961 12.963c-9.935 7.686-22.379 12.275-35.883 12.275s-25.949-4.59-35.884-12.276zm82.374-10.607-12.962-12.962c4.478-6.53 7.105-14.424 7.105-22.922s-2.627-16.392-7.105-22.922l12.962-12.962c7.686 9.935 12.276 22.38 12.276 35.884 0 13.505-4.59 25.949-12.276 35.884z"/><path d="m215.15 329.767c12.958 0 23.5-10.542 23.5-23.5v-133.667c0-12.958-10.542-23.5-23.5-23.5h-83.967c-12.958 0-23.5 10.542-23.5 23.5v133.667c0 12.958 10.542 23.5 23.5 23.5zm-92.467-23.5v-133.667c0-4.686 3.813-8.5 8.5-8.5h83.967c4.687 0 8.5 3.814 8.5 8.5v133.667c0 4.686-3.813 8.5-8.5 8.5h-83.967c-4.687 0-8.5-3.814-8.5-8.5z"/><path d="m156.317 230.367h33.7c8.547 0 15.5-6.953 15.5-15.5v-17.134c0-8.547-6.953-15.5-15.5-15.5h-33.7c-8.547 0-15.5 6.953-15.5 15.5v17.134c0 8.547 6.953 15.5 15.5 15.5zm-.5-32.634c0-.275.224-.5.5-.5h33.7c.276 0 .5.225.5.5v17.134c0 .275-.224.5-.5.5h-33.7c-.276 0-.5-.225-.5-.5z"/><path d="m148.317 263.5h8.283c4.142 0 7.5-3.357 7.5-7.5s-3.358-7.5-7.5-7.5h-8.283c-4.142 0-7.5 3.357-7.5 7.5s3.358 7.5 7.5 7.5z"/><path d="m198.017 248.5h-8.283c-4.142 0-7.5 3.357-7.5 7.5s3.358 7.5 7.5 7.5h8.283c4.142 0 7.5-3.357 7.5-7.5s-3.358-7.5-7.5-7.5z"/><path d="m148.317 296.633h8.283c4.142 0 7.5-3.357 7.5-7.5s-3.358-7.5-7.5-7.5h-8.283c-4.142 0-7.5 3.357-7.5 7.5 0 4.142 3.358 7.5 7.5 7.5z"/><path d="m198.017 281.633h-8.283c-4.142 0-7.5 3.357-7.5 7.5s3.358 7.5 7.5 7.5h8.283c4.142 0 7.5-3.357 7.5-7.5s-3.358-7.5-7.5-7.5z"/><path d="m347.9 379.967v17.133c0 8.547 6.953 15.5 15.5 15.5h50.267c8.547 0 15.5-6.953 15.5-15.5v-17.133c0-8.547-6.953-15.5-15.5-15.5h-50.267c-8.547 0-15.5 6.953-15.5 15.5zm66.267 0v17.133c0 .275-.225.5-.5.5h-50.267c-.275 0-.5-.225-.5-.5v-17.133c0-.275.225-.5.5-.5h50.267c.275 0 .5.224.5.5z"/></g></g></svg>