<svg id="Capa_1" enable-background="new 0 0 512 512" height="512" viewBox="0 0 512 512" width="512" xmlns="http://www.w3.org/2000/svg"><g><g><path d="m400 256h63.083c4.575 0 8.283-3.709 8.283-8.283v-190.517h-71.366z" fill="#335373"/><path d="m448.367 57.2v190.517c0 4.575-3.708 8.283-8.283 8.283h23c4.575 0 8.283-3.709 8.283-8.283v-190.517z" fill="#1f3c59"/><path d="m148.033 289.133h149.667c4.418 0 8-3.582 8-8v-38.633h-165.667v38.633c0 4.419 3.582 8 8 8z" fill="#ffc649"/><path d="m282.7 242.5v38.633c0 4.418-3.582 8-8 8h23c4.418 0 8-3.582 8-8v-38.633z" fill="#ffa742"/><path d="m73.767 222.867c0 18.299 14.834 33.133 33.133 33.133h281.633v-165.667h-314.766z" fill="#335373"/><path d="m371.967 90.333v165.667c0 4.575 3.708 8.283 8.283 8.283h16.567c4.575 0 8.283-3.708 8.283-8.283v-165.667z" fill="#ffc649"/><path d="m382.1 90.334v165.666c0 3.434-2.09 6.379-5.067 7.635.989.417 2.076.648 3.217.648h16.567c4.575 0 8.283-3.709 8.283-8.283v-165.666z" fill="#ffa742"/><path d="m122.9 222.867h83.967c8.837 0 16-7.163 16-16v-41.983h-115.967v41.983c0 8.836 7.163 16 16 16z" fill="#ffc649"/><path d="m199.867 164.883v41.983c0 8.836-7.163 16-16 16h23c8.837 0 16-7.164 16-16v-41.983z" fill="#ffa742"/><path d="m198.017 454.8-157.384 16.567h-16.633l.067-66.267h173.95 33.133v49.7z" fill="#f6f6f6"/><path d="m175.017 405.1v52.121l23-2.421h33.133v-49.7h-33.133z" fill="#e2dff4"/><path d="m32.633 322.267h-17.133c-4.418 0-8 3.582-8 8v166.233c0 4.418 3.582 8 8 8h17.133c4.418 0 8-3.582 8-8v-166.233c0-4.419-3.581-8-8-8z" fill="#ffc649"/><path d="m504.5 24.067v9.704c0 4.394-1.745 8.608-4.852 11.714l-56.562 56.562c-3.107 3.107-7.321 4.852-11.714 4.852h-65.732c-6.275 0-12.011 3.545-14.818 9.158l-23.975 47.951c-2.806 5.613-8.543 9.158-14.818 9.158h-246.546c-4.575 0-8.283-3.709-8.283-8.283v-124.25c0-18.299 14.834-33.133 33.133-33.133h397.6c9.15 0 16.567 7.417 16.567 16.567z" fill="#f6f6f6"/><path d="m148.6 106.9h-50.267c-4.418 0-8 3.582-8 8v17.133c0 4.418 3.582 8 8 8h50.267c4.418 0 8-3.582 8-8v-17.133c0-4.418-3.582-8-8-8z" fill="#54d7ff"/><path d="m214.867 106.9h-17.133c-4.418 0-8 3.582-8 8v17.133c0 4.418 3.582 8 8 8h17.133c4.418 0 8-3.582 8-8v-17.133c0-4.418-3.582-8-8-8z" fill="#54d7ff"/><path d="m264.283 371.967v87.206c0 2.572-.599 5.108-1.749 7.409l-1.955 3.911c-2.806 5.613-8.543 9.158-14.818 9.158h-29.222c-6.275 0-12.012-3.545-14.818-9.158l-1.955-3.911c-1.15-2.3-1.749-4.837-1.749-7.409v-87.206z" fill="#f6f6f6"/><ellipse cx="231.15" cy="322.267" fill="#f6f6f6" rx="33.133" ry="33.133" transform="matrix(.383 -.924 .924 .383 -155.043 412.495)"/><path d="m32.633 322.267h-17.133c-1.037 0-2.024.204-2.934.563 2.965 1.171 5.066 4.056 5.066 7.437v166.233c0 3.381-2.101 6.267-5.066 7.438.909.359 1.897.562 2.934.562h17.133c4.418 0 8-3.582 8-8v-166.233c0-4.419-3.581-8-8-8z" fill="#ffa742"/><path d="m241.283 371.967v87.206c0 2.572-.599 5.109-1.749 7.409l-1.955 3.911c-2.806 5.613-8.543 9.158-14.818 9.158h23c6.275 0 12.011-3.545 14.818-9.158l1.956-3.911c1.15-2.3 1.749-4.837 1.749-7.409v-87.206z" fill="#e2dff4"/><path d="m197.733 388.533h66.833c4.418 0 8-3.582 8-8v-17.133c0-4.418-3.582-8-8-8h-66.833c-4.418 0-8 3.582-8 8v17.133c0 4.419 3.582 8 8 8z" fill="#ffc649"/><path d="m264.567 355.4h-23c4.418 0 8 3.582 8 8v17.133c0 4.418-3.582 8-8 8h23c4.418 0 8-3.582 8-8v-17.133c0-4.418-3.582-8-8-8z" fill="#ffa742"/><path d="m231.15 289.133c-3.99 0-7.815.706-11.358 1.999 12.705 4.636 21.775 16.826 21.775 31.134s-9.071 26.498-21.775 31.134c3.543 1.293 7.368 1.999 11.358 1.999 18.299 0 33.133-14.834 33.133-33.133s-14.834-33.133-33.133-33.133z" fill="#e2dff4"/><path d="m214.867 106.9h-17.133c-1.037 0-2.024.204-2.933.563 2.965 1.171 5.067 4.056 5.067 7.437v17.133c0 3.382-2.101 6.267-5.067 7.437.909.359 1.897.563 2.933.563h17.133c4.418 0 8-3.582 8-8v-17.133c0-4.418-3.582-8-8-8z" fill="#63b0ff"/><path d="m148.6 106.9h-23.025c4.418 0 8 3.582 8 8v17.133c0 4.418-3.582 8-8 8h23.025c4.418 0 8-3.582 8-8v-17.133c0-4.418-3.582-8-8-8z" fill="#63b0ff"/><g><g fill="#e2dff4"><path d="m327.821 116.058-23.975 47.951c-2.806 5.613-8.543 9.158-14.818 9.158h23c6.275 0 12.011-3.545 14.818-9.158l23.975-47.951c2.806-5.613 8.543-9.158 14.818-9.158h-23c-6.275 0-12.012 3.545-14.818 9.158z"/><path d="m487.933 7.5h-23c9.15 0 16.567 7.417 16.567 16.567v9.704c0 4.394-1.745 8.608-4.852 11.714l-56.562 56.562c-3.107 3.107-7.321 4.852-11.714 4.852h23c4.394 0 8.608-1.745 11.714-4.852l56.562-56.562c3.107-3.107 4.852-7.321 4.852-11.714v-9.704c0-9.15-7.417-16.567-16.567-16.567z"/></g></g></g><g><path d="m487.933 0h-345.358c-4.142 0-7.5 3.357-7.5 7.5s3.358 7.5 7.5 7.5h345.358c4.999 0 9.067 4.067 9.067 9.066v9.705c0 2.422-.943 4.698-2.656 6.41l-9.519 9.519h-420.125v-9.067c0-14.134 11.499-25.633 25.634-25.633h22.242c4.142 0 7.5-3.357 7.5-7.5s-3.358-7.5-7.5-7.5h-22.242c-22.406 0-40.634 18.228-40.634 40.633v124.25c0 8.703 7.08 15.784 15.783 15.784h.783v42.2c0 22.405 18.228 40.633 40.633 40.633h25.633v17.633c0 8.547 6.953 15.5 15.5 15.5h51.618c-5.706 6.998-9.135 15.922-9.135 25.634s3.429 18.636 9.135 25.634h-1.918c-8.547 0-15.5 6.953-15.5 15.5v17.133c0 5.941 3.364 11.105 8.283 13.706v3.36h-70.155c-4.142 0-7.5 3.357-7.5 7.5s3.358 7.5 7.5 7.5h70.157v35.448l-109.25 11.5v-46.948h9.094c4.142 0 7.5-3.357 7.5-7.5s-3.358-7.5-7.5-7.5h-42.228v-67.333c0-8.547-6.953-15.5-15.5-15.5h-17.133c-8.547 0-15.5 6.953-15.5 15.5v166.233c0 8.547 6.953 15.5 15.5 15.5h17.133c8.547 0 15.5-6.953 15.5-15.5v-18.381l142.714-15.023c.394 2.373 1.135 4.689 2.21 6.839l1.956 3.911c4.103 8.206 12.351 13.304 21.525 13.304h29.223c9.174 0 17.422-5.098 21.526-13.305l1.954-3.909c1.663-3.324 2.542-7.046 2.542-10.764v-64.932c4.92-2.6 8.284-7.765 8.284-13.706v-17.134c0-8.547-6.953-15.5-15.5-15.5h-1.918c5.705-6.998 9.134-15.922 9.134-25.634s-3.429-18.636-9.134-25.634h35.051c8.547 0 15.5-6.953 15.5-15.5v-17.632h53.166c2.673 4.929 7.894 8.283 13.884 8.283h16.567c5.99 0 11.211-3.354 13.884-8.283h52.383c8.703 0 15.783-7.08 15.783-15.783v-170.844l26.083-26.084c4.547-4.545 7.05-10.589 7.05-17.018v-9.705c0-13.27-10.796-24.066-24.067-24.066zm-423.233 164.883v-100.183h405.126l-32.043 32.044c-1.713 1.713-3.99 2.656-6.412 2.656h-65.732c-9.175 0-17.423 5.098-21.525 13.303l-23.976 47.951c-1.546 3.092-4.654 5.013-8.11 5.013h-246.545c-.431 0-.783-.352-.783-.784zm347.9-50.483h18.133v134.1h-18.133zm-298.2 66.267h100.967v26.2c0 4.686-3.813 8.5-8.5 8.5h-83.967c-4.687 0-8.5-3.814-8.5-8.5zm-33.133 42.2v-42.2h18.133v26.2c0 12.958 10.542 23.5 23.5 23.5h83.967c12.958 0 23.5-10.542 23.5-23.5v-26.2h81.661c9.174 0 17.422-5.098 21.526-13.304l23.976-47.951c1.369-2.737 3.962-4.549 6.938-4.93v134.018h-257.568c-14.134 0-25.633-11.499-25.633-25.633zm-48.634 274.133h-17.133c-.276 0-.5-.225-.5-.5v-166.233c0-.275.224-.5.5-.5h17.133c.276 0 .5.225.5.5v141.103.029 25.101c0 .275-.224.5-.5.5zm15.5-84.4h18.133v48.528l-18.133 1.909zm207.693 50.628-1.955 3.91c-1.546 3.092-4.654 5.013-8.11 5.013h-29.223c-3.456 0-6.564-1.921-8.109-5.013l-1.956-3.911c-.626-1.252-.957-2.654-.957-4.054v-4.376c0-.009 0-.019 0-.029v-58.735h51.267v63.14c0 1.4-.33 2.802-.957 4.055zm9.241-99.828v17.133c0 .275-.224.5-.5.5h-66.833c-.276 0-.5-.225-.5-.5v-17.133c0-.275.224-.5.5-.5h66.833c.276 0 .5.225.5.5zm-8.284-41.133c0 14.135-11.499 25.634-25.633 25.634s-25.633-11.499-25.633-25.634 11.499-25.634 25.633-25.634 25.633 11.499 25.633 25.634zm41.417-41.134c0 .275-.224.5-.5.5h-149.667c-.276 0-.5-.225-.5-.5v-17.633h150.667zm98.617-24.35h-16.567c-.432 0-.783-.352-.783-.783v-141.6h18.133v141.6c0 .432-.351.783-.783.783zm67.05-9.066c0 .432-.352.783-.783.783h-17.35v-138.851c.931-.695 1.819-1.461 2.655-2.297l15.478-15.478z"/><path d="m98.334 147.533h50.266c8.547 0 15.5-6.953 15.5-15.5v-17.133c0-8.547-6.953-15.5-15.5-15.5h-50.266c-8.547 0-15.5 6.953-15.5 15.5v17.133c0 8.547 6.953 15.5 15.5 15.5zm-.5-32.633c0-.275.224-.5.5-.5h50.266c.276 0 .5.225.5.5v17.133c0 .275-.224.5-.5.5h-50.266c-.276 0-.5-.225-.5-.5z"/><path d="m197.733 147.533h17.133c8.547 0 15.5-6.953 15.5-15.5v-17.133c0-8.547-6.953-15.5-15.5-15.5h-17.133c-8.547 0-15.5 6.953-15.5 15.5v17.133c0 8.547 6.953 15.5 15.5 15.5zm-.5-32.633c0-.275.224-.5.5-.5h17.133c.276 0 .5.225.5.5v17.133c0 .275-.224.5-.5.5h-17.133c-.276 0-.5-.225-.5-.5z"/><path d="m338.833 230.367c4.142 0 7.5-3.357 7.5-7.5v-8.284c0-4.143-3.358-7.5-7.5-7.5s-7.5 3.357-7.5 7.5v8.284c0 4.143 3.358 7.5 7.5 7.5z"/><path d="m305.7 230.367c4.142 0 7.5-3.357 7.5-7.5v-8.284c0-4.143-3.358-7.5-7.5-7.5s-7.5 3.357-7.5 7.5v8.284c0 4.143 3.358 7.5 7.5 7.5z"/><path d="m272.567 230.367c4.142 0 7.5-3.357 7.5-7.5v-8.284c0-4.143-3.358-7.5-7.5-7.5s-7.5 3.357-7.5 7.5v8.284c0 4.143 3.358 7.5 7.5 7.5z"/></g></g></svg>