<svg id="Capa_1" enable-background="new 0 0 512 512" height="512" viewBox="0 0 512 512" width="512" xmlns="http://www.w3.org/2000/svg"><g><g><path d="m406.067 59.853h-300.122c-7.165 0-12.974-5.809-12.974-12.974v-26.401c0-7.165 5.809-12.974 12.974-12.974h300.122c7.165 0 12.974 5.809 12.974 12.974v26.401c-.001 7.166-5.809 12.974-12.974 12.974z" fill="#766e6e"/><path d="m419.04 20.478v26.399c0 7.162-5.806 12.978-12.969 12.978h-45.083c7.162 0 12.968-5.816 12.968-12.978v-26.399c0-7.163-5.806-12.978-12.968-12.978h45.083c7.163 0 12.969 5.816 12.969 12.978z" fill="#5b5555"/><path d="m415.085 504.5h-318.158c-13.865 0-25.106-11.24-25.106-25.106v-357.023c0-13.865 11.24-25.106 25.106-25.106h318.158c13.865 0 25.106 11.24 25.106 25.106v357.024c-.001 13.865-11.241 25.105-25.106 25.105z" fill="#f9f3f1"/><path d="m440.189 122.369v357.028c0 13.863-11.241 25.103-25.103 25.103h-30.387c13.862 0 25.103-11.241 25.103-25.103v-357.028c0-13.862-11.241-25.103-25.103-25.103h30.387c13.862 0 25.103 11.24 25.103 25.103z" fill="#efe2dd"/><g><path d="m160.881 116.592h-32.646c-5.083 0-9.204-4.121-9.204-9.204v-54.214c0-5.083 4.121-9.204 9.204-9.204h32.646c5.083 0 9.204 4.121 9.204 9.204v54.215c0 5.082-4.121 9.203-9.204 9.203z" fill="#f99675"/><path d="m383.776 116.592h-32.646c-5.083 0-9.204-4.121-9.204-9.204v-54.214c0-5.083 4.121-9.204 9.204-9.204h32.646c5.083 0 9.204 4.121 9.204 9.204v54.215c0 5.082-4.121 9.203-9.204 9.203z" fill="#f99675"/><g fill="#f68157"><path d="m392.98 53.174v54.214c0 5.083-4.119 9.201-9.201 9.201h-16.374c5.083 0 9.201-4.118 9.201-9.201v-54.214c0-5.083-4.119-9.211-9.201-9.211h16.374c5.082 0 9.201 4.128 9.201 9.211z"/><path d="m170.085 53.174v54.214c0 5.083-4.119 9.201-9.201 9.201h-16.374c5.083 0 9.201-4.118 9.201-9.201v-54.214c0-5.083-4.119-9.211-9.201-9.211h16.374c5.082 0 9.201 4.128 9.201 9.211z"/></g></g><path d="m361.936 372.123v78.132c0 9.92-8.042 17.961-17.961 17.961h-175.942c-9.92 0-17.961-8.042-17.961-17.961v-78.132c0-37.009 22.043-68.867 53.717-83.161 8.354-3.77 10.171-14.979 3.27-21.011-15.601-13.636-25.455-33.686-25.455-56.04 0-41.68 34.281-75.368 76.194-74.384 39.61.93 71.858 33.338 72.602 72.952.431 22.924-9.509 43.537-25.441 57.467-6.902 6.035-5.24 17.203 3.124 20.959 31.747 14.261 53.853 46.156 53.853 83.218z" fill="#9e9797"/></g><g><path d="m440.185 280.52c4.142 0 7.5-3.358 7.5-7.5v-150.65c0-17.976-14.625-32.6-32.6-32.6h-14.605v-22.41h5.585c11.292 0 20.48-9.188 20.48-20.48v-26.4c0-11.292-9.188-20.48-20.48-20.48h-57.64c-4.142 0-7.5 3.358-7.5 7.5s3.358 7.5 7.5 7.5h57.64c3.021 0 5.48 2.458 5.48 5.48v26.4c0 3.021-2.458 5.48-5.48 5.48h-5.626c-.429-8.832-7.727-15.89-16.663-15.89h-32.646c-8.935 0-16.232 7.057-16.663 15.887h-156.923c-.43-8.83-7.728-15.887-16.662-15.887h-32.646c-8.936 0-16.234 7.059-16.662 15.89h-5.628c-3.016 0-5.47-2.458-5.47-5.48v-26.4c0-3.021 2.454-5.48 5.47-5.48h207.48c4.142 0 7.5-3.358 7.5-7.5s-3.358-7.5-7.5-7.5h-207.48c-11.287 0-20.47 9.188-20.47 20.48v26.4c0 11.292 9.183 20.48 20.47 20.48h5.587v22.41h-14.608c-17.981 0-32.61 14.625-32.61 32.6v357.03c0 17.976 14.629 32.6 32.61 32.6h318.16c17.976 0 32.6-14.625 32.6-32.6v-171.38c0-4.142-3.358-7.5-7.5-7.5s-7.5 3.358-7.5 7.5v171.38c0 9.705-7.896 17.6-17.6 17.6h-318.16c-9.71 0-17.61-7.896-17.61-17.6v-357.03c0-9.705 7.9-17.6 17.61-17.6h14.607v2.618c0 9.21 7.493 16.704 16.704 16.704h32.646c9.21 0 16.704-7.494 16.704-16.704v-2.623h156.841v2.623c0 9.21 7.494 16.704 16.704 16.704h32.646c9.21 0 16.704-7.494 16.704-16.704v-2.618h14.605c9.705 0 17.6 7.896 17.6 17.6v150.65c-.001 4.142 3.357 7.5 7.499 7.5zm-279.304-171.428h-32.646c-.939 0-1.704-.765-1.704-1.704v-54.214c0-.939.764-1.704 1.704-1.704h32.646c.939 0 1.704.765 1.704 1.704v54.214c0 .94-.764 1.704-1.704 1.704zm16.704-19.326v-22.409h156.841v22.409zm206.191 19.326h-32.646c-.939 0-1.704-.765-1.704-1.704v-54.214c0-.939.765-1.704 1.704-1.704h32.646c.939 0 1.704.765 1.704 1.704v54.214c0 .94-.765 1.704-1.704 1.704z"/><path d="m161.576 346.464c1.267-3.944-.903-8.168-4.847-9.435-3.947-1.269-8.168.903-9.435 4.847-3.132 9.75-4.72 19.925-4.72 30.244v78.14c0 14.039 11.421 25.46 25.46 25.46h175.94c14.039 0 25.46-11.421 25.46-25.46v-78.14c0-38.804-22.875-74.151-58.273-90.05-2.289-1.03-2.822-3.069-2.945-3.898-.123-.826-.205-2.926 1.686-4.576 18.25-15.959 28.457-39.016 28.001-63.258-.399-21.101-8.893-41.034-23.915-56.128-15.024-15.096-34.918-23.682-56.016-24.178-22.263-.52-43.277 7.741-59.185 23.278-15.917 15.545-24.683 36.356-24.683 58.6 0 23.647 10.211 46.131 28.019 61.691 1.761 1.537 1.772 3.466 1.623 4.479-.127.86-.679 2.976-3.047 4.044-14.095 6.363-26.682 16.121-36.4 28.218-2.594 3.229-2.08 7.95 1.149 10.544 3.229 2.596 7.951 2.08 10.544-1.149 8.248-10.266 18.925-18.545 30.876-23.94 6.32-2.85 10.7-8.652 11.717-15.521 1.002-6.776-1.464-13.497-6.595-17.974-14.543-12.708-22.885-31.075-22.885-50.392 0-18.17 7.161-35.17 20.163-47.869 12.994-12.69 30.16-19.456 48.351-19.013 17.213.404 33.456 7.423 45.738 19.763 12.281 12.34 19.224 28.616 19.55 45.83.372 19.807-7.967 38.645-22.873 51.679-5.177 4.517-7.665 11.274-6.655 18.076 1.01 6.807 5.358 12.554 11.633 15.377 30.023 13.484 49.423 43.46 49.423 76.368v78.14c0 5.768-4.692 10.46-10.46 10.46h-45.916c16.068-12.544 26.429-32.074 26.429-53.991v-13.942h6.443c4.142 0 7.5-3.358 7.5-7.5s-3.358-7.5-7.5-7.5h-6.443v-13.941c0-35.227-26.739-64.316-60.984-68.065v-7.987c0-4.142-3.358-7.5-7.5-7.5s-7.5 3.358-7.5 7.5v7.987c-34.245 3.749-60.983 32.838-60.983 68.065v13.941h-6.443c-4.142 0-7.5 3.358-7.5 7.5s3.358 7.5 7.5 7.5h6.443v13.942c0 21.917 10.361 41.447 26.429 53.991h-45.914c-5.768 0-10.46-4.692-10.46-10.46v-78.14c-.001-8.761 1.345-17.392 4-25.657zm76.102 46.323h10.825v30.645c-6.372-2.873-10.825-9.271-10.825-16.703zm36.651-15h-10.826v-30.645c6.372 2.873 10.826 9.271 10.826 16.703zm0 15v13.942c0 7.432-4.454 13.831-10.826 16.703v-30.645zm-25.826-15h-10.825v-13.942c0-7.431 4.454-13.83 10.825-16.702zm60.985 28.942c0 26.945-20.033 49.289-45.984 52.947v-20.483c14.774-3.413 25.826-16.667 25.826-32.464v-13.942h20.159v13.942zm0-42.883v13.941h-20.159v-13.942c0-15.796-11.051-29.051-25.826-32.464v-20.483c25.952 3.66 45.985 26.002 45.985 52.948zm-106.968 0c0-26.945 20.032-49.288 45.983-52.947v20.483c-14.774 3.413-25.825 16.667-25.825 32.463v13.942h-20.158zm0 42.883v-13.942h20.158v13.942c0 15.796 11.051 29.051 25.825 32.464v20.483c-25.951-3.659-45.983-26.002-45.983-52.947z"/><path d="m256.002 149.191c-4.142 0-7.5 3.358-7.5 7.5v7.659c-19.775 3.204-35.426 18.855-38.63 38.63h-7.659c-4.142 0-7.5 3.358-7.5 7.5s3.358 7.5 7.5 7.5h7.659c3.204 19.775 18.855 35.426 38.63 38.63v7.66c0 4.142 3.358 7.5 7.5 7.5s7.5-3.358 7.5-7.5v-7.66c19.775-3.204 35.427-18.855 38.631-38.63h7.659c4.142 0 7.5-3.358 7.5-7.5s-3.358-7.5-7.5-7.5h-7.659c-3.204-19.775-18.855-35.426-38.63-38.63v-7.659c-.001-4.142-3.359-7.5-7.501-7.5zm-7.5 30.453v23.336h-23.336c2.794-11.485 11.85-20.542 23.336-23.336zm-23.337 38.336h23.337v23.336c-11.486-2.793-20.543-11.85-23.337-23.336zm38.337 23.337v-23.337h23.337c-2.794 11.487-11.851 20.543-23.337 23.337zm23.337-38.337h-23.337v-23.336c11.486 2.794 20.542 11.85 23.337 23.336z"/><path d="m415.686 152.616h-7.391v-7.391c0-4.142-3.358-7.5-7.5-7.5s-7.5 3.358-7.5 7.5v7.391h-7.391c-4.142 0-7.5 3.358-7.5 7.5s3.358 7.5 7.5 7.5h7.391v7.391c0 4.142 3.358 7.5 7.5 7.5s7.5-3.358 7.5-7.5v-7.391h7.391c4.142 0 7.5-3.358 7.5-7.5s-3.358-7.5-7.5-7.5z"/><path d="m400.795 469.836c4.142 0 7.5-3.358 7.5-7.5v-7.391h7.391c4.142 0 7.5-3.358 7.5-7.5s-3.358-7.5-7.5-7.5h-7.391v-7.391c0-4.142-3.358-7.5-7.5-7.5s-7.5 3.358-7.5 7.5v7.391h-7.391c-4.142 0-7.5 3.358-7.5 7.5s3.358 7.5 7.5 7.5h7.391v7.391c0 4.142 3.358 7.5 7.5 7.5z"/><path d="m126.107 152.616h-7.391v-7.391c0-4.142-3.358-7.5-7.5-7.5s-7.5 3.358-7.5 7.5v7.391h-7.39c-4.142 0-7.5 3.358-7.5 7.5s3.358 7.5 7.5 7.5h7.39v7.391c0 4.142 3.358 7.5 7.5 7.5s7.5-3.358 7.5-7.5v-7.391h7.391c4.142 0 7.5-3.358 7.5-7.5s-3.358-7.5-7.5-7.5z"/><path d="m111.216 469.836c4.142 0 7.5-3.358 7.5-7.5v-7.391h7.391c4.142 0 7.5-3.358 7.5-7.5s-3.358-7.5-7.5-7.5h-7.391v-7.391c0-4.142-3.358-7.5-7.5-7.5s-7.5 3.358-7.5 7.5v7.391h-7.39c-4.142 0-7.5 3.358-7.5 7.5s3.358 7.5 7.5 7.5h7.39v7.391c0 4.142 3.358 7.5 7.5 7.5z"/></g></g></svg>