<svg id="Capa_1" enable-background="new 0 0 512 512" height="512" viewBox="0 0 512 512" width="512" xmlns="http://www.w3.org/2000/svg"><g><g><path d="m193.616 69.26h124.764c47.582 0 87.603 35.675 93.049 82.944l27.061 234.877-182.492 29.672-182.492-29.672 27.061-234.877c5.447-47.269 45.468-82.944 93.049-82.944z" fill="#01d0fb"/><path d="m212.42 409.662 43.58 7.09 182.489-29.67-27.06-234.878c-5.45-47.27-45.47-82.939-93.049-82.939h-87.15c47.58 0 87.599 35.67 93.049 82.939l27.06 234.878z" fill="#01c0fa"/><path d="m34.99 443.698 221.008 28.303 221.008-28.303-9.79-34.85c-3.62-12.87-15.36-21.77-28.73-21.77h-364.976c-13.37 0-25.11 8.9-28.73 21.77z" fill="#f9f3f1"/><path d="m351.336 387.077c13.37 0 25.11 8.9 28.73 21.77l9.79 34.85 31.041 17.601 56.108-17.601-9.79-34.85c-3.62-12.87-15.36-21.77-28.73-21.77z" fill="#efe2dd"/><g><path d="m341.926 185.411c0-8.404-7.925-14.536-16.07-12.464-28.114 7.152-48.908 32.636-48.908 62.976s20.794 55.823 48.908 62.976c8.144 2.072 16.07-4.061 16.07-12.464z" fill="#c8effe"/><path d="m170.071 185.411c0-8.404 7.925-14.536 16.07-12.464 28.114 7.152 48.908 32.636 48.908 62.976s-20.794 55.823-48.908 62.976c-8.144 2.072-16.07-4.061-16.07-12.464z" fill="#c8effe"/><path d="m170.071 253.768v32.67c0 8.4 7.93 14.53 16.07 12.46 28.12-7.15 48.91-32.63 48.91-62.97 0-5.64-.72-11.12-2.07-16.34-5.92 22.85-23.95 40.82-46.84 46.64-8.14 2.07-16.07-4.06-16.07-12.46z" fill="#99e6fc"/><path d="m341.926 253.768v32.67c0 8.4-7.93 14.53-16.07 12.46-28.12-7.15-48.91-32.63-48.91-62.97 0-5.64.72-11.12 2.07-16.34 5.92 22.85 23.95 40.82 46.84 46.64 8.14 2.07 16.07-4.06 16.07-12.46z" fill="#99e6fc"/><path d="m235.049 387.081h41.899v-151.159c0-11.57-9.379-20.949-20.949-20.949-11.57 0-20.949 9.379-20.949 20.949v151.159z" fill="#c8effe"/><path d="m245.528 217.782c6.26 3.62 10.47 10.39 10.47 18.14v151.159h20.95v-151.159c0-11.57-9.38-20.95-20.95-20.95-3.81 0-7.39 1.02-10.47 2.81z" fill="#99e6fc"/></g><path d="m7.5 471.188v13.8c0 8.46 6.86 15.32 15.32 15.32h466.357c8.46 0 15.32-6.86 15.32-15.32v-13.8c0-7.6-3.08-14.47-8.05-19.44-4.98-4.98-11.85-8.05-19.44-8.05h-442.017c-15.18 0-27.49 12.3-27.49 27.49z" fill="#f99675"/><path d="m391.931 500.308h97.249c8.46 0 15.32-6.86 15.32-15.32v-13.8c0-7.6-3.08-14.47-8.05-19.44-4.98-4.98-11.85-8.05-19.44-8.05h-97.249c7.59 0 14.46 3.07 19.44 8.05 4.97 4.97 8.05 11.84 8.05 19.44v13.8c0 8.46-6.86 15.32-15.32 15.32z" fill="#f68157"/><g><path d="m380.327 443.698h40.57v56.61h-40.57z" fill="#766e6e"/><path d="m407.247 471.188v13.8c0 8.46-6.86 15.32-15.32 15.32h28.97v-56.61h-41.14c.19 0 .38 0 .57.02 7.36.14 14.01 3.17 18.87 8.03 4.97 4.97 8.05 11.84 8.05 19.44z" fill="#5b5555"/><g fill="#766e6e"><path d="m235.716 443.695h40.565v56.613h-40.565z" transform="matrix(-1 0 0 -1 511.996 944.002)"/><path d="m91.104 443.695h40.565v56.613h-40.565z" transform="matrix(-1 0 0 -1 222.773 944.002)"/></g></g></g><g><path d="m23.877 33.002 65.594 47.92c1.334.975 2.883 1.444 4.418 1.444 2.312 0 4.594-1.066 6.062-3.076 2.443-3.345 1.713-8.037-1.632-10.48l-65.594-47.92c-3.344-2.444-8.037-1.712-10.48 1.632s-1.713 8.036 1.632 10.48z"/><path d="m25.949 145.055 32.797 10.834c.781.258 1.574.38 2.354.38 3.147 0 6.079-1.997 7.12-5.15 1.299-3.933-.836-8.175-4.769-9.474l-32.797-10.834c-3.937-1.299-8.175.836-9.474 4.769-1.3 3.934.836 8.175 4.769 9.475z"/><path d="m166.127 43.799c1.303 2.657 3.968 4.201 6.74 4.201 1.108 0 2.233-.247 3.295-.767 3.719-1.823 5.257-6.316 3.434-10.035l-14.115-28.8c-1.824-3.72-6.317-5.256-10.036-3.434-3.719 1.823-5.257 6.316-3.434 10.035z"/><path d="m418.107 82.366c1.535 0 3.083-.47 4.418-1.444l65.594-47.92c3.345-2.444 4.075-7.136 1.632-10.48s-7.134-4.075-10.48-1.632l-65.594 47.92c-3.345 2.444-4.075 7.136-1.632 10.48 1.469 2.01 3.749 3.076 6.062 3.076z"/><path d="m481.342 130.811-32.797 10.834c-3.933 1.299-6.068 5.541-4.769 9.474 1.042 3.152 3.972 5.149 7.12 5.149.78 0 1.573-.123 2.354-.38l32.797-10.834c3.933-1.299 6.068-5.541 4.769-9.474-1.299-3.932-5.54-6.068-9.474-4.769z"/><path d="m335.833 47.233c1.062.521 2.187.767 3.295.767 2.772 0 5.438-1.544 6.74-4.201l14.116-28.8c1.823-3.719.285-8.212-3.434-10.035-3.718-1.823-8.213-.286-10.035 3.434l-14.116 28.8c-1.823 3.719-.285 8.212 3.434 10.035z"/><path d="m501.748 446.435c-5.222-5.211-11.794-8.575-18.92-9.762l-8.388-29.86c-3.888-13.822-15.414-24.043-29.192-26.6l-26.367-228.868c-4.489-38.961-31.428-72.106-68.63-84.44-3.936-1.304-8.176.827-9.479 4.759-1.304 3.932.827 8.176 4.758 9.479 31.683 10.505 54.626 38.735 58.45 71.919l26.097 226.522h-145.629v-99.472c9.637 12.546 23.364 21.935 39.559 26.055 1.687.429 3.392.64 5.082.64 4.474 0 8.841-1.478 12.475-4.303 4.997-3.884 7.862-9.741 7.862-16.069v-101.024c0-6.328-2.866-12.185-7.862-16.07-5.007-3.893-11.405-5.228-17.557-3.663-24.484 6.229-43.326 24.496-50.91 47.523-4.763-3.593-10.686-5.728-17.099-5.728s-12.335 2.135-17.099 5.728c-7.585-23.022-26.427-41.29-50.911-47.527-6.148-1.563-12.549-.228-17.556 3.666-4.997 3.885-7.862 9.744-7.862 16.073v50.86c0 4.142 3.358 7.5 7.5 7.5s7.5-3.358 7.5-7.5v-50.86c0-2.281 1.297-3.63 2.07-4.231 1.327-1.031 3.021-1.385 4.649-.971 25.464 6.487 43.251 29.385 43.26 55.691 0 .007-.001.014-.001.021v.047c-.021 26.298-17.803 49.18-43.266 55.657-1.624.415-3.316.063-4.641-.965-.774-.601-2.072-1.95-2.072-4.229v-15.16c0-4.142-3.358-7.5-7.5-7.5s-7.5 3.358-7.5 7.5v15.16c0 6.331 2.869 12.19 7.872 16.075 3.633 2.821 7.995 4.297 12.459 4.296 1.692 0 3.4-.212 5.087-.643 16.195-4.119 29.923-13.507 39.56-26.052v99.473h-145.624l26.097-226.523c5.006-43.497 41.806-76.297 85.6-76.297h119.93c4.142 0 7.5-3.358 7.5-7.5s-3.358-7.5-7.5-7.5h-119.93c-51.418 0-94.624 38.512-100.501 89.582l-26.367 228.868c-13.778 2.557-25.304 12.779-29.193 26.603l-8.388 29.862c-16.534 2.779-29.171 17.194-29.171 34.506v13.81c0 12.578 10.237 22.81 22.82 22.81h417.28c4.142 0 7.5-3.358 7.5-7.5s-3.358-7.5-7.5-7.5h-11.708v-41.609h48.614c.005 0 .011-.001.016-.001 5.33.004 10.347 2.083 14.119 5.847 3.778 3.786 5.858 8.808 5.858 14.142v13.81c0 4.306-3.508 7.81-7.82 7.81h-15.1c-4.142 0-7.5 3.358-7.5 7.5s3.358 7.5 7.5 7.5h15.1c12.583 0 22.82-10.232 22.82-22.81v-13.81c.001-9.334-3.636-18.119-10.251-24.747zm-174.043-266.22c.448-.114.901-.17 1.35-.17 1.185 0 2.341.391 3.303 1.138.772.601 2.068 1.948 2.068 4.228v101.023c0 2.279-1.296 3.627-2.068 4.227-1.325 1.03-3.02 1.385-4.652.969-25.469-6.479-43.257-29.387-43.257-55.707-.001-26.321 17.787-49.228 43.256-55.708zm-85.155 55.708c0-.005 0-.01 0-.014.007-7.41 6.037-13.436 13.449-13.436 7.416 0 13.45 6.033 13.45 13.449v143.659h-26.899v-143.612c-.001-.015 0-.03 0-.046zm-190.55 174.951c2.698-9.592 11.543-16.291 21.51-16.291h364.98c9.967 0 18.812 6.699 21.509 16.288l7.113 25.323h-422.225zm46.604 81.929v-41.609h25.565v41.609zm40.565-41.608h89.047v41.609h-89.047zm104.047 41.608v-41.609h25.565v41.609zm40.565-41.608h89.047v41.609h-89.047zm-268.781 33.798v-13.81c0-11.017 8.96-19.981 19.975-19.989.005 0 .009.001.014.001h48.615v41.609h-60.784c-4.312-.001-7.82-3.505-7.82-7.811zm398.393 7.81h-25.565v-41.609h25.565z"/></g></g></svg>