<svg id="Capa_1" enable-background="new 0 0 512 512" height="512" viewBox="0 0 512 512" width="512" xmlns="http://www.w3.org/2000/svg"><g><g><path d="m318.088 234.132-37.21 18.12-3.11-3.16-116.94-118.81-10.15-8.99c-8.92-7.89-12.73-20.07-9.91-31.64 5.88-24.11 19.63-44.65 38.11-59.16s41.69-22.99 66.51-22.99c26.6 0 51.2 9.71 70.16 25.99 18.96 16.29 32.28 39.14 36.29 65.43l8.39 54.85c5.06 33.12-12.02 65.69-42.14 80.36z" fill="#766e6e"/><path d="m318.088 234.132-37.21 18.12-3.11-3.16c-6.24-25.17-7.62-56.06 3.11-91.3 30.22-99.26-35.49-150.29-35.49-150.29 26.6 0 51.2 9.71 70.16 25.99 18.96 16.29 32.28 39.14 36.29 65.43l8.39 54.85c5.06 33.12-12.02 65.69-42.14 80.36z" fill="#5b5555"/><g><path d="m188.527 353.009h143.963c30.479 0 57.009 20.836 64.232 50.447l19.542 80.111c2.6 10.658-5.471 15.934-16.442 15.934h-275.141c-12.745 0-22.122-6.939-19.102-19.321l18.716-76.724c7.223-29.611 33.753-50.447 64.232-50.447z" fill="#5de1c4"/><path d="m268.983 353.012c30.47 0 57 20.84 64.23 50.45l24.65 96.04h41.96c10.97 0 19.04-5.27 16.44-15.93l-19.54-80.11c-7.22-29.61-33.75-50.45-64.23-50.45z" fill="#0ed2b3"/></g><path d="m348.158 237.652c-1.13 16.22-14.26 29.36-30.47 30.51-7.04.5-13.66-1.21-19.22-4.52v87.47c0 20.8-16.87 37.67-37.68 37.67-10.4 0-19.82-4.22-26.64-11.04-6.82-6.81-11.03-16.23-11.03-26.63v-28.27h-4.55c-44.23 0-78.33-38.98-72.45-82.82l14.71-109.74c1.04-7.78 3.36-15.12 6.72-21.82 0 0 29.46 43.83 113.33 49.33 5.62.37 11.48.57 17.59.57v48.57c4.93-2.93 10.68-4.61 16.82-4.61 5.31 0 10.32 1.25 14.76 3.49 11.44 5.74 19.08 17.96 18.11 31.84z" fill="#ffdfcf"/><path d="m348.158 237.652c-1.13 16.22-14.26 29.36-30.47 30.51-7.04.5-13.66-1.21-19.22-4.52v87.47c0 20.8-16.87 37.67-37.68 37.67-10.4 0-19.82-4.22-26.64-11.04-6.82-6.81-11.03-16.23-11.03-26.63v-28.27h16.61c22.73 0 41.15-18.43 41.15-41.15v-123.9c5.62.37 11.48.57 17.59.57v48.57c4.93-2.93 10.68-4.61 16.82-4.61 5.31 0 10.32 1.25 14.76 3.49 11.44 5.74 19.08 17.96 18.11 31.84z" fill="#ffcebf"/><circle cx="234.418" cy="257.048" fill="#5b5555" r="16.238"/><path d="m150.367 496.127c-1.095 0-2.208-.145-3.316-.449-6.657-1.827-10.573-8.705-8.746-15.363l17.818-64.921c1.304-4.751 5.277-8.293 10.146-9.045l32.372-5c6.825-1.052 13.208 3.623 14.262 10.445 1.054 6.823-3.623 13.208-10.445 14.262l-24.369 3.764-15.675 57.112c-1.524 5.551-6.558 9.195-12.047 9.195z" fill="#766e6e"/><path d="m352.948 496.127c-5.49 0-10.524-3.644-12.047-9.194l-15.677-57.112-24.369-3.764c-6.822-1.054-11.499-7.439-10.445-14.262 1.054-6.822 7.441-11.503 14.262-10.445l32.372 5c4.869.752 8.842 4.294 10.146 9.045l17.819 64.921c1.828 6.657-2.088 13.536-8.745 15.363-1.108.303-2.221.448-3.316.448z" fill="#766e6e"/><path d="m433.574 462.75h-369.142c-8.631 0-15.628 6.997-15.628 15.628v10.491c0 8.631 6.997 15.628 15.628 15.628h369.143c8.631 0 15.628-6.997 15.628-15.628v-10.491c0-8.631-6.997-15.628-15.629-15.628z" fill="#f99675"/><g><path d="m440.637 7.502h-134.094c-12.459 0-22.56 10.1-22.56 22.56v80.583c0 12.459 10.1 22.56 22.56 22.56h30.918l-7.652 26.289c-2.55 8.761 6.983 16.092 14.796 11.379l62.435-37.668h33.598c12.459 0 22.56-10.1 22.56-22.56v-80.583c-.001-12.46-10.101-22.56-22.561-22.56z" fill="#01d0fb"/><path d="m463.197 30.066v80.578c0 12.466-10.095 22.562-22.553 22.562h-23.542c12.458 0 22.561-10.095 22.561-22.562v-80.578c0-12.458-10.104-22.561-22.561-22.561h23.542c12.458 0 22.553 10.104 22.553 22.561z" fill="#01c0fa"/></g><path d="m373.59 44.177c-20.318 0-38.045 11.046-47.539 27.452 9.494 16.405 27.221 27.451 47.539 27.451s38.045-11.046 47.539-27.451c-9.494-16.406-27.221-27.452-47.539-27.452z" fill="#f9f3f1"/><ellipse cx="373.59" cy="70.355" fill="#5b5555" rx="19.152" ry="24.307"/></g><g><path d="m240.657 198.869c4.142 0 7.5-3.358 7.5-7.5v-18.104c0-4.142-3.358-7.5-7.5-7.5s-7.5 3.358-7.5 7.5v18.104c0 4.142 3.358 7.5 7.5 7.5z"/><path d="m193.757 173.264c0-4.142-3.358-7.5-7.5-7.5s-7.5 3.358-7.5 7.5v18.104c0 4.142 3.358 7.5 7.5 7.5s7.5-3.358 7.5-7.5z"/><path d="m323.04 221.461c-11.396 0-20.666 9.271-20.666 20.666 0 4.142 3.357 7.5 7.5 7.5s7.5-3.358 7.5-7.5c0-3.124 2.542-5.666 5.666-5.666 4.143 0 7.5-3.358 7.5-7.5s-3.357-7.5-7.5-7.5z"/><path d="m218.792 220.224c0-4.142-3.358-7.5-7.5-7.5-1.658 0-2.482-1.046-2.825-1.669-.343-.624-.787-1.879.101-3.281l13.579-21.445c2.216-3.5 1.175-8.133-2.324-10.349s-8.133-1.174-10.349 2.324l-13.579 21.445c-3.555 5.614-3.772 12.717-.568 18.538s9.322 9.437 15.966 9.437c4.141 0 7.499-3.358 7.499-7.5z"/><path d="m234.418 233.31c-13.09 0-23.739 10.649-23.739 23.739 0 13.089 10.649 23.738 23.739 23.738 13.089 0 23.739-10.649 23.739-23.738 0-13.091-10.649-23.739-23.739-23.739zm0 32.477c-4.818 0-8.739-3.92-8.739-8.738s3.92-8.739 8.739-8.739 8.738 3.92 8.738 8.739-3.919 8.738-8.738 8.738z"/><path d="m440.64 0h-6.04c-4.143 0-7.5 3.358-7.5 7.5s3.357 7.5 7.5 7.5h6.04c8.305 0 15.061 6.756 15.061 15.06v80.58c0 8.304-6.756 15.06-15.061 15.06h-33.6c-1.365 0-2.705.373-3.874 1.078l-62.445 37.673c-1.212.731-2.204.318-2.824-.158-.511-.393-1.305-1.266-.886-2.707l7.65-26.29c.659-2.266.214-4.71-1.202-6.598-1.417-1.887-3.639-2.998-5.999-2.998h-30.92c-8.304 0-15.06-6.756-15.06-15.06v-80.58c0-8.304 6.756-15.06 15.06-15.06h93.06c4.143 0 7.5-3.358 7.5-7.5s-3.358-7.5-7.5-7.5h-93.06c-7.655 0-14.647 2.881-19.96 7.61-13.141-5.047-26.97-7.608-41.189-7.608-25.68 0-50.945 8.733-71.142 24.591-20.204 15.864-34.681 38.338-40.765 63.283-3.49 14.318 1.195 29.275 12.224 39.031l7.153 6.335-14.18 105.784c-3.09 23.04 3.917 46.289 19.224 63.786 14.657 16.754 35.554 26.666 57.71 27.477v15.222h-27.085c-2.443 0-4.897.124-7.292.369-4.121.421-7.12 4.103-6.698 8.224.395 3.861 3.652 6.738 7.452 6.738.255 0 .513-.013.772-.04 1.891-.193 3.831-.291 5.767-.291h28.076c4.339 20.411 22.499 35.772 44.184 35.772 21.684 0 39.843-15.36 44.183-35.77h27.514c27.108 0 50.524 18.388 56.944 44.718l12.205 50.021h-35.731l-11.484-41.838c-2.078-7.593-8.449-13.274-16.229-14.472l-32.372-4.999c-10.89-1.69-21.129 5.798-22.826 16.711-1.676 10.901 5.826 21.135 16.717 22.811l19.57 3.028 5.15 18.759h-145.547l5.15-18.759 19.564-3.027c10.896-1.677 18.398-11.911 16.72-22.824-1.691-10.883-11.924-18.372-22.826-16.7l-32.367 5c-7.782 1.198-14.154 6.879-16.231 14.467l-11.486 41.844h-18.029l12.206-50.023c3.262-13.375 11.167-25.218 22.258-33.348 3.34-2.449 4.064-7.142 1.615-10.483s-7.143-4.063-10.483-1.615c-13.935 10.214-23.865 25.091-27.962 41.891l-13.074 53.575h-39.51c-12.754 0-23.13 10.376-23.13 23.13v10.49c0 12.754 10.376 23.13 23.13 23.13h291.66c4.143 0 7.5-3.358 7.5-7.5s-3.357-7.5-7.5-7.5h-291.66c-4.483 0-8.13-3.647-8.13-8.13v-10.49c0-4.483 3.647-8.13 8.13-8.13h45.373c.011 0 .022.002.033.002.008 0 .015-.002.023-.002h323.711c4.482 0 8.13 3.647 8.13 8.13v10.49c0 4.483-3.647 8.13-8.13 8.13h-42.48c-4.143 0-7.5 3.358-7.5 7.5s3.357 7.5 7.5 7.5h42.48c12.754 0 23.13-10.376 23.13-23.13v-10.49c0-12.754-10.376-23.13-23.13-23.13h-16.493l-13.073-53.575c-8.062-33.068-37.472-56.163-71.517-56.163h-26.522v-70.839c3.968.934 8.087 1.265 12.25.97 19.943-1.415 36.031-17.523 37.422-37.468.536-7.674-1.094-15.118-4.481-21.618 11.421-14.792 17.522-32.721 17.454-51.413l40.518-24.444h31.513c16.575 0 30.061-13.485 30.061-30.06v-80.58c-.002-16.575-13.487-30.06-30.062-30.06zm-108.18 427.836c-.782-2.85-3.165-4.975-6.086-5.426l-24.375-3.771c-2.724-.419-4.599-2.98-4.181-5.695.424-2.728 2.979-4.6 5.705-4.18l32.383 5c1.94.299 3.529 1.714 4.049 3.612l10.396 37.873h-10.365zm-169.099-10.464c.518-1.893 2.107-3.309 4.051-3.608l32.365-4.999c2.73-.422 5.296 1.455 5.717 4.167.419 2.728-1.455 5.288-4.184 5.708l-24.37 3.77c-2.921.452-5.304 2.576-6.086 5.426l-7.525 27.414h-10.366zm177.313-180.242c-.874 12.537-10.985 22.661-23.521 23.55-5.264.372-10.397-.831-14.852-3.483-2.318-1.379-5.199-1.409-7.543-.076-2.346 1.333-3.794 3.823-3.794 6.52v87.465c0 16.639-13.536 30.175-30.175 30.175s-30.175-13.536-30.175-30.175v-20.77h20.306c4.142 0 7.5-3.358 7.5-7.5s-3.357-7.5-7.5-7.5l-32.355.004c-18.918 0-36.913-8.167-49.371-22.407-12.458-14.241-18.161-33.164-15.646-51.916l14.71-109.743c.391-2.928.989-5.811 1.788-8.632 15.256 14.915 51.85 41.326 120.918 43.122v41.167c0 2.696 1.447 5.185 3.791 6.519 2.343 1.334 5.222 1.307 7.541-.071 3.915-2.327 8.407-3.557 12.988-3.557 4.02 0 7.849.904 11.396 2.694 9.222 4.626 14.715 14.288 13.994 24.614zm.777-32.706c-2.421-2.05-5.104-3.841-8.028-5.308-5.647-2.849-11.75-4.294-18.138-4.294-3.153 0-6.281.368-9.32 1.085v-37.545c0-4.142-3.357-7.5-7.5-7.5-48.016 0-79.385-12.701-97.245-23.355-19.264-11.493-27.391-23.142-27.451-23.229-1.488-2.213-4.038-3.468-6.7-3.301-2.662.169-5.033 1.739-6.229 4.123-1.81 3.608-3.314 7.339-4.528 11.162l-.663-.587c-6.852-6.061-9.761-15.351-7.592-24.246 5.291-21.694 17.882-41.24 35.455-55.038 17.566-13.792 39.542-21.389 61.878-21.389 11.238 0 22.193 1.836 32.67 5.461-1.019 3.017-1.58 6.242-1.58 9.597v80.58c0 16.575 13.484 30.06 30.06 30.06h20.927l-4.858 16.694c-2.033 6.984.38 14.36 6.147 18.793 3.152 2.421 6.896 3.648 10.657 3.648 3.116 0 6.245-.842 9.061-2.543l4.536-2.736c-1.426 10.717-5.367 20.906-11.559 29.868z"/><path d="m319.56 67.872c-1.345 2.324-1.345 5.189 0 7.514 11.135 19.241 31.838 31.194 54.03 31.194s42.896-11.953 54.031-31.194c1.345-2.324 1.345-5.189 0-7.514-11.135-19.242-31.839-31.195-54.031-31.195s-42.896 11.953-54.03 31.195zm54.03 19.29c-6.315 0-11.651-7.696-11.651-16.807s5.336-16.807 11.651-16.807 11.651 7.696 11.651 16.807-5.336 16.807-11.651 16.807zm-38.63-15.533c3.729-5.232 8.46-9.587 13.827-12.889-1.188 3.601-1.848 7.517-1.848 11.615 0 5.388 1.132 10.465 3.122 14.917-5.895-3.378-11.079-8.001-15.101-13.643zm77.261 0c-4.022 5.643-9.207 10.265-15.102 13.645 1.99-4.452 3.122-9.529 3.122-14.918 0-4.099-.66-8.015-1.849-11.616 5.368 3.302 10.099 7.656 13.829 12.889z"/></g></g></svg>