<svg id="Layer_1" enable-background="new 0 0 512.002 512.002" height="512" viewBox="0 0 512.002 512.002" width="512" xmlns="http://www.w3.org/2000/svg"><g><g><path d="m253.808 294.889v185.333h191.113v-185.333c-3.444 0-187.22 0-191.113 0z" fill="#dbedff"/><path d="m273.649 357.293h-19.84v68.075h19.84c5.015 0 9.081-4.066 9.081-9.081v-49.914c-.001-5.014-4.066-9.08-9.081-9.08z" fill="#b5dcff"/><path d="m349.79 7.341h-187.963c-20.44 0-37.009 16.569-37.009 37.009v227.972h261.981v-227.972c0-20.439-16.569-37.009-37.009-37.009z" fill="#fbc56c"/><path d="m192.827 7.341h-31c-20.439 0-37.009 16.569-37.009 37.009v227.972h31v-227.972c0-20.439 16.57-37.009 37.009-37.009z" fill="#ebb865"/><g><path d="m351.787 35.304h-191.957c-3.887 0-7.049 3.162-7.049 7.049v155.955c0-6.987 5.664-7.65 12.65-7.65h180.755c6.987 0 12.651.664 12.651 7.65v-155.955c-.001-3.887-3.163-7.049-7.05-7.049z" fill="#60b9fe"/></g><g><path d="m196.864 42.353c0-3.887 3.162-7.049 7.049-7.049h-44.084c-3.887 0-7.049 3.162-7.049 7.049v155.955c0-6.987 5.664-7.65 12.65-7.65h31.433v-148.305z" fill="#1ca8ff"/></g><path d="m340.903 212.287h-170.189c0 20.42 6.281 43.37 17.009 59.035h136.171c10.728-15.665 17.009-38.615 17.009-59.035z" fill="#b5dcff"/><path d="m170.714 212.287c0 20.421 6.281 43.37 17.009 59.035h55.5c-10.728-15.665-17.009-38.615-17.009-59.035z" fill="#8bcaff"/><path d="m358.836 201.637v-3.329c0-6.987-5.664-12.65-12.651-12.65h-180.754c-6.987 0-12.65 5.664-12.65 12.65v3.329c0 6.987 5.664 12.65 12.65 12.65h180.755c6.986 0 12.65-5.664 12.65-12.65z" fill="#dbedff"/><path d="m208.28 201.637v-3.329c0-6.987 5.664-12.65 12.65-12.65h-55.5c-6.987 0-12.65 5.664-12.65 12.65v3.329c0 6.987 5.664 12.65 12.65 12.65h55.5c-6.986 0-12.65-5.664-12.65-12.65z" fill="#b5dcff"/><path d="m66.696 294.889v185.333h189.113v-185.333c-3.446 0-185.221 0-189.113 0z" fill="#b5dcff"/><path d="m66.696 294.889v185.333h63.215v-185.333c-1.152 0-61.914 0-63.215 0z" fill="#8bcaff"/><path d="m255.809 357.293h-17.84c-5.015 0-9.081 4.066-9.081 9.081v49.914c0 5.015 4.066 9.081 9.081 9.081h17.84z" fill="#8bcaff"/><path d="m448.882 269.322h-386.147c-6.987 0-12.65 5.664-12.65 12.65v3.329c0 6.987 5.664 12.65 12.65 12.65h386.148c6.987 0 12.651-5.664 12.651-12.65v-3.329c-.001-6.986-5.665-12.65-12.652-12.65z" fill="#fcd79b"/><path d="m116.457 285.301v-3.329c0-6.987 5.664-12.65 12.65-12.65h-66.372c-6.987 0-12.65 5.664-12.65 12.65v3.329c0 6.987 5.664 12.65 12.65 12.65h66.373c-6.987.001-12.651-5.663-12.651-12.65z" fill="#fbc56c"/><path d="m448.882 475.714h-386.147c-6.987 0-12.65 5.664-12.65 12.65v3.329c0 6.987 5.664 12.65 12.65 12.65h386.148c6.987 0 12.651-5.664 12.651-12.65v-3.329c-.001-6.987-5.665-12.65-12.652-12.65z" fill="#fcd79b"/><path d="m116.457 491.693v-3.329c0-6.987 5.664-12.65 12.65-12.65h-66.372c-6.987 0-12.65 5.664-12.65 12.65v3.329c0 6.987 5.664 12.65 12.65 12.65h66.373c-6.987 0-12.651-5.664-12.651-12.65z" fill="#fbc56c"/></g><g><path d="m62.926 512.002h386.148c11.111 0 20.15-9.04 20.15-20.15v-3.329c0-9.902-7.185-18.139-16.611-19.819v-59.714c0-4.142-3.357-7.5-7.5-7.5s-7.5 3.358-7.5 7.5v59.382h-174.113v-35.345h10.34c9.143 0 16.581-7.438 16.581-16.581v-49.914c0-9.143-7.438-16.581-16.581-16.581h-10.34v-44.341h174.113v68.379c0 4.142 3.357 7.5 7.5 7.5s7.5-3.358 7.5-7.5v-68.71c9.427-1.68 16.611-9.918 16.611-19.819v-3.329c0-11.111-9.039-20.15-20.15-20.15h-54.583v-217.472c.001-24.542-19.966-44.509-44.509-44.509h-76.482c-4.143 0-7.5 3.358-7.5 7.5s3.357 7.5 7.5 7.5h76.481c16.271 0 29.51 13.238 29.51 29.509v217.472h-42.27c6.352-12.478 10.127-26.072 11.107-40.134 10.199-.985 18.2-9.599 18.2-20.052 0-7.892 0-151.422 0-159.284 0-8.022-6.527-14.549-14.55-14.549h-191.956c-8.022 0-14.55 6.527-14.55 14.549v159.284c0 10.452 8 19.066 18.199 20.052.979 14.062 4.756 27.656 11.108 40.134h-42.269v-217.472c0-16.271 13.238-29.509 29.509-29.509h76.481c4.143 0 7.5-3.358 7.5-7.5s-3.357-7.5-7.5-7.5h-76.481c-24.542 0-44.509 19.967-44.509 44.509v217.472h-54.584c-11.11 0-20.149 9.04-20.149 20.15v3.329c0 9.901 7.185 18.139 16.61 19.819v163.424c-9.426 1.68-16.61 9.918-16.61 19.819v3.329c0 11.111 9.039 20.151 20.149 20.151zm210.914-147.05c.872 0 1.581.709 1.581 1.581v49.914c0 .872-.709 1.581-1.581 1.581h-10.34v-53.075h10.34zm-113.368-321.99h191.057v136.021c-1.715-.454-3.635-.667-5.151-.667h-82.878v-25.258c0-14.125-11.492-25.618-25.617-25.618-14.126 0-25.618 11.492-25.618 25.618v8.319c0 4.142 3.357 7.5 7.5 7.5s7.5-3.358 7.5-7.5v-8.319c0-5.854 4.764-10.618 10.618-10.618s10.617 4.763 10.617 10.618v25.258h-82.878c-1.565 0-3.479.225-5.15.667zm5.151 163.984c-2.84 0-5.15-2.311-5.15-5.15v-3.329c0-2.84 2.311-5.15 5.15-5.15h180.755c2.841 0 5.151 2.311 5.151 5.15v3.329c0 2.84-2.311 5.15-5.151 5.15-6.239 0-170.433 0-180.755 0zm167.664 15c-1.175 14.241-5.69 27.899-13.257 40.035h-128.059c-7.567-12.136-12.083-25.794-13.258-40.035zm-275.51 63.514v-3.329c0-2.84 2.31-5.15 5.149-5.15h386.148c2.84 0 5.15 2.311 5.15 5.15v3.329c0 2.84-2.311 5.15-5.15 5.15-18.067 0-368.667 0-386.148 0-2.84 0-5.149-2.31-5.149-5.15zm180.384 64.492c-9.143 0-16.581 7.438-16.581 16.581v49.914c0 9.143 7.438 16.581 16.581 16.581h10.34v35.345h-174.114v-162.763h174.113v44.342zm10.339 15v53.075h-10.34c-.872 0-1.581-.709-1.581-1.581v-49.914c0-.872.709-1.581 1.581-1.581h10.34zm-190.723 123.57c0-2.84 2.31-5.15 5.149-5.15h386.148c2.84 0 5.15 2.311 5.15 5.15v3.329c0 2.84-2.311 5.15-5.15 5.15h-386.148c-2.84 0-5.149-2.311-5.149-5.15z"/><path d="m302.724 62.254 29.578 25.171c3.156 2.686 7.89 2.301 10.572-.851 2.685-3.155 2.304-7.888-.852-10.573l-29.578-25.171c-3.154-2.685-7.888-2.302-10.572.851-2.684 3.155-2.303 7.889.852 10.573z"/><path d="m260.301 66.249 71.002 60.422c3.156 2.686 7.89 2.301 10.572-.851 2.685-3.155 2.304-7.888-.852-10.573l-71.002-60.422c-3.154-2.684-7.889-2.302-10.572.851-2.684 3.155-2.303 7.888.852 10.573z"/></g></g></svg>