<svg id="Capa_1" enable-background="new 0 0 511.572 511.572" height="512" viewBox="0 0 511.572 511.572" width="512" xmlns="http://www.w3.org/2000/svg"><path d="m398.71 303.912h96.721c4.773 0 8.642 3.869 8.642 8.642v88.429c0 4.25-3.09 7.869-7.287 8.535l-300.535 47.06h-17.961v-152.666z" fill="#017bae"/><path d="m398.71 303.912h-155.912-64.509v83.176 69.49h17.961l46.548-7.289v-47.518c0-5.421 4.405-9.793 9.826-9.792h.098.002c59.5 0 109.025-8.337 151.382-25.482 12.514-5.063 20.6-17.051 20.6-30.542v-32.042h-25.996z" fill="#057399"/><path d="m495.431 303.912h-36.128v111.475l37.482-5.869c4.197-.666 7.287-4.285 7.287-8.535v-88.429c0-4.773-3.869-8.642-8.641-8.642z" fill="#99e6fc"/><path d="m475.495 221.124-47.17-132.07-43.55-32.16c-3.31-2.44-7.86-2.25-10.99.42-56.37 47.94-115.55 47.79-177.52-.46-3.12-2.43-7.49-2.51-10.67-.16l-43.82 32.36-22.21 62.19.001.003h69.956c3.716 0 6.728 3.012 6.728 6.728v205.549l1.045.159c74.31 5.84 141.6 1.16 197.06-21.29 2.62-1.06 4.35-3.6 4.35-6.44v-58.94l73.64-46.66c3.07-1.969 4.38-5.789 3.15-9.229z" fill="#fedf30"/><path d="m222.544 125.575h-85.597l-17.381 25.672 50.659 208.407 26.02 3.87h.005v-.001l26.294-3.312z" fill="#fedf30"/><path d="m273.93 338.5c-26.905-.301-48.64-22.04-48.809-48.947l-.752-119.933c0-25.301-20.51-45.811-45.811-45.811h-2.442c-13.856 0-23.53-13.726-18.87-26.775l9.411-26.355-24.882 18.375-22.21 62.19.001.003h69.956c3.716 0 6.728 3.012 6.728 6.728v205.549l1.045.159c74.31 5.84 141.6 1.16 197.06-21.29 2.62-1.06 4.35-3.6 4.35-6.44v-12.67c-37.459 11.277-79.465 15.723-124.775 15.217z" fill="#fed402"/><path d="m394.355 230.824c-55.72 22.56-123.38 27.18-198.11 21.21h-9.068v29.432l9.068-.232c74.73 5.97 142.39 1.35 198.11-21.21 2.62-1.06 4.35-3.6 4.35-6.44v-29.2c0 2.84-1.73 5.38-4.35 6.44z" fill="#fe646f"/><path d="m224.897 253.8c-9.425-.402-18.975-.993-28.647-1.766v29.2c9.735.778 19.346 1.371 28.83 1.773z" fill="#fd4755"/><path d="m49.226 151.247h140.295c3.716 0 6.728 3.012 6.728 6.728v298.603h-27.776c-.988 0-1.949-.32-2.739-.913l-153.21-116.408c-3.93-2.948-5.782-7.915-4.741-12.716l34.867-169.992c.672-3.094 3.41-5.302 6.576-5.302z" fill="#0290cf"/><path d="m189.521 151.247h-140.295c-3.167 0-5.904 2.208-6.575 5.302l-10.576 51.562h164.175v-50.135c0-3.717-3.013-6.729-6.729-6.729z" fill="#017bae"/><path d="m82.73 151.247h71.803v56.864h-71.803z" fill="#dd7f66"/><path d="m106.486 151.247h-23.757v56.864h71.803v-21.161h-12.344c-19.717-.001-35.702-15.985-35.702-35.703z" fill="#d6694b"/><path d="m151.217 316.815-38.887 19.134c-1.653.813-3.589.813-5.242 0l-38.887-19.134c-2.03-.999-3.315-3.064-3.315-5.326v-65.394c0-3.279 2.658-5.936 5.936-5.936h77.775c3.279 0 5.936 2.658 5.936 5.936v65.394c0 2.262-1.286 4.327-3.316 5.326z" fill="#017bae"/><path d="m399.822 68.005-15.047-11.112c-3.31-2.44-7.86-2.25-10.99.42-56.37 47.94-115.55 47.79-177.52-.46-3.12-2.43-7.49-2.51-10.67-.16l-15.365 11.347 20.577 15.882c32.414 22.879 64.855 34.311 96.708 34.308 31.617-.003 62.65-11.278 92.437-33.821l18.759-15.37z" fill="#fe646f"/><path d="m475.495 221.124-47.165-132.055-29.625 36.506v151.438l73.64-46.66c3.07-1.969 4.38-5.789 3.15-9.229z" fill="#fac600"/><path d="m148.597 232.658h-77.776c-7.409 0-13.437 6.028-13.437 13.437v65.394c0 5.159 2.875 9.778 7.504 12.056l38.888 19.134c1.857.914 3.895 1.371 5.932 1.371s4.075-.457 5.934-1.371l38.887-19.134c4.629-2.277 7.504-6.896 7.504-12.056v-65.394c-.001-7.409-6.028-13.437-13.436-13.437zm-1.565 77.857-37.323 18.365-37.324-18.365v-62.857h74.647z"/><path d="m495.431 296.412h-89.221v-14.773l70.178-44.969c6.047-3.874 8.584-11.304 6.169-18.068l-47.168-132.07c-.502-1.403-1.409-2.625-2.608-3.511l-43.549-32.159c-6.126-4.524-14.479-4.221-20.31.738-53.77 45.727-108.736 45.509-168.046-.662-5.766-4.488-13.882-4.602-19.74-.275l-43.818 32.358c-1.199.885-2.106 2.107-2.608 3.511l-20.433 57.215h-65.05c-6.648 0-12.496 4.716-13.922 11.295l-34.852 169.909c-1.657 7.643 1.314 15.613 7.533 20.278l153.249 116.437c2.075 1.555 4.646 2.412 7.238 2.412h27.746c.007 0 .014.001.021.001.006 0 .013-.001.019-.001.353 0 .697-.033 1.037-.081.038-.005.075-.003.113-.009l300.551-47.063c7.887-1.251 13.611-7.956 13.611-15.942v-88.429c.001-8.9-7.24-16.142-16.14-16.142zm-43.628 15v65.905l-6.021.955c-4.091.649-6.881 4.492-6.231 8.583.586 3.693 3.773 6.326 7.398 6.326.391 0 .786-.03 1.185-.094l3.67-.582v16.465l-248.054 38.842v-15.941l6.021-.956c4.091-.649 6.881-4.492 6.231-8.583-.648-4.09-4.49-6.878-8.583-6.231l-3.67.583v-45.002c17.049 1.194 33.357 1.794 48.966 1.794 56.972 0 104.574-7.983 144.451-24.13 5.493-2.225 9.043-7.481 9.043-13.391v-24.542h45.594zm-361.573-110.802v-41.863h56.803v41.863zm71.802-41.863h26.718v41.863h-26.718zm41.718 101.364c17.044 1.194 33.353 1.795 48.957 1.795 54.177 0 99.863-7.234 138.503-21.822v13.123c-48.803 19.682-110.185 26.583-187.46 21.068zm-55.683-166.382 22.063-16.292 16.095 12.423c.085.065.171.129.258.19 33.544 23.676 67.531 35.681 101.021 35.681h.013c5.158 0 10.381-.292 15.522-.865 4.117-.459 7.082-4.168 6.623-8.285s-4.178-7.084-8.285-6.622c-4.593.512-9.256.772-13.862.772-.005 0-.006 0-.011 0-30.286 0-61.323-11.052-92.241-32.844l-12.586-9.715 7.371-5.443c.472-.346 1.135-.329 1.615.045 64.876 50.505 127.785 50.591 186.978.252.496-.422 1.187-.463 1.683-.098l7.371 5.443-12.382 10.144c-15.056 11.378-30.608 19.852-46.232 25.19-3.92 1.339-6.012 5.602-4.673 9.522 1.065 3.116 3.978 5.077 7.097 5.077.805 0 1.622-.13 2.426-.405 17.176-5.868 34.184-15.124 50.55-27.51.076-.058.152-.118.227-.179l15.436-12.647 21.891 16.165 46.398 129.917c.053.147-.002.31-.134.394l-62.086 39.783v-112.575c0-4.142-3.357-7.5-7.5-7.5s-7.5 3.358-7.5 7.5v72.759c-48.803 19.681-110.185 26.584-187.46 21.068v-87.098c0-7.846-6.383-14.229-14.229-14.229h-59.317zm-98.211 65.018h25.374v41.863h-33.961zm138.894 290.331h-19.288l-152.437-115.82c-1.58-1.185-2.33-3.198-1.895-5.21l23.062-112.438h150.558v91.972c0 4.142 3.357 7.5 7.5 7.5s7.5-3.358 7.5-7.5v-18.269c17.044 1.194 33.353 1.795 48.957 1.795 54.177 0 99.864-7.234 138.503-21.822v66.288c-48.808 19.682-110.191 26.581-187.46 21.065v-19.057c0-4.142-3.357-7.5-7.5-7.5s-7.5 3.358-7.5 7.5zm307.822-48.095c0 .565-.405 1.039-.947 1.125l-28.822 4.513v-95.209h28.628c.63 0 1.142.512 1.142 1.142v88.429z"/><path d="m260.389 407.695-26.484 4.203c-4.091.649-6.881 4.492-6.231 8.583.586 3.693 3.773 6.325 7.398 6.325.391 0 .786-.03 1.185-.094l26.484-4.203c4.091-.649 6.881-4.492 6.231-8.583-.649-4.091-4.483-6.885-8.583-6.231z"/><path d="m313.359 399.288-26.484 4.203c-4.091.649-6.881 4.492-6.231 8.583.586 3.693 3.773 6.325 7.398 6.325.391 0 .786-.03 1.185-.094l26.484-4.203c4.091-.649 6.881-4.492 6.231-8.583-.65-4.09-4.487-6.881-8.583-6.231z"/><path d="m386.581 395.262c.586 3.693 3.773 6.325 7.398 6.325.391 0 .786-.031 1.185-.094l26.484-4.203c4.091-.649 6.881-4.492 6.231-8.583-.649-4.091-4.482-6.885-8.583-6.231l-26.484 4.203c-4.09.65-6.88 4.492-6.231 8.583z"/><path d="m366.328 390.883-26.485 4.203c-4.091.649-6.881 4.492-6.231 8.583.586 3.693 3.773 6.326 7.398 6.326.391 0 .786-.03 1.185-.094l26.485-4.203c4.091-.649 6.881-4.492 6.231-8.583-.648-4.091-4.49-6.884-8.583-6.232z"/></svg>