<svg id="Capa_1" enable-background="new 0 0 511.995 511.995" height="512" viewBox="0 0 511.995 511.995" width="512" xmlns="http://www.w3.org/2000/svg"><g><g><g><g><g><g><g><path d="m401.391 219.237c-6.905 0-12.503-5.598-12.503-12.503v-70.456c0-3.135-1.221-6.082-3.438-8.3l-8.276-8.276c-4.883-4.883-4.883-12.799 0-17.682 4.882-4.882 12.8-4.882 17.682 0l8.276 8.276c6.94 6.94 10.762 16.167 10.762 25.981v70.456c0 6.906-5.598 12.504-12.503 12.504z" fill="#d6a59d"/></g></g></g></g><path d="m75.656 273.534 57.755-209.756h170.287v290.262h-228.042z" fill="#c4e1ff"/><g fill="#eaf6ff"><path d="m155.9 184.219c40.162-40.139 80.313-80.29 120.464-120.44h-28.801c-11.899 11.957-23.796 23.917-35.703 35.866-40.617 40.759-81.283 81.469-121.961 122.167l-10.755 39.059c25.584-25.551 51.18-51.092 76.756-76.652z"/><path d="m229.963 63.778h-96.552l-36.654 133.123c44.414-44.362 88.817-88.736 133.206-133.123z"/><path d="m303.698 241.636v-43.653c-6.748 6.749-110.666 110.758-155.833 156.057h43.176c37.513-37.507 75.046-74.995 112.657-112.404z"/></g><g><g><g><g><path d="m31.622 302.6 82.911 66.59h118.685s-16.897-101.963-115.947-101.963c0 0-51.855 0-85.649 35.373z" fill="#6c524e"/><g><circle cx="114.533" cy="382.016" fill="#96756f" r="79.834"/><path d="m194.367 382.013c0 44.098-35.741 79.84-79.83 79.84-8.387 0-16.481-1.293-24.08-3.698 41.239-.93 74.403-34.66 74.403-76.141 0-41.471-33.165-75.202-74.403-76.131 7.599-2.405 15.693-3.698 24.08-3.698 44.089-.002 79.83 35.74 79.83 79.828z" fill="#80635e"/><circle cx="114.533" cy="382.016" fill="#d6a59d" r="54"/><path d="m168.529 382.013c0 29.83-24.171 54.001-53.991 54.001-7.175 0-14.016-1.395-20.281-3.941.566.02 1.142.03 1.718.03 27.668 0 50.091-22.423 50.091-50.091 0-27.657-22.423-50.08-50.091-50.08-.586 0-1.172.01-1.748.03 6.265-2.546 13.126-3.951 20.311-3.951 29.82.001 53.991 24.182 53.991 54.002z" fill="#ac8380"/></g><g><path d="m437.64 183.811h-133.942v158.966h-67.256c-16.609-51.479-64.975-88.826-121.908-88.826-43.966 0-82.822 22.273-105.892 56.126-2.943 4.319.117 10.171 5.344 10.171 9.972 0 19.515-4.016 26.511-11.122 18.865-19.161 45.087-31.059 74.037-31.059 56.564 0 102.721 45.413 103.926 101.693.027 1.25 1.029 2.256 2.279 2.256h247.746c13.318 0 24.115-10.797 24.115-24.115v-119.131c-.001-30.353-24.607-54.959-54.96-54.959z" fill="#a3e440"/><path d="m492.598 238.767v119.136c0 13.32-10.796 24.115-24.115 24.115h-27.99c13.312 0 24.115-10.796 24.115-24.115v-119.136c0-30.353-24.606-54.959-54.959-54.959h27.99c30.353.001 54.959 24.606 54.959 54.959z" fill="#99d53b"/><path d="m406.433 273.367v108.649h62.051c13.318 0 24.115-10.797 24.115-24.115v-99.585h-71.116c-8.312 0-15.05 6.739-15.05 15.051z" fill="#80635e"/><path d="m464.608 258.316v99.587c0 13.32-10.804 24.115-24.115 24.115h27.99c13.32 0 24.115-10.796 24.115-24.115v-99.587z" fill="#6c524e"/></g></g></g></g></g><g><circle cx="428.465" cy="385.82" fill="#96756f" r="76.03"/><path d="m504.495 385.817c0 41.997-34.038 76.035-76.026 76.035-7.987 0-15.696-1.232-22.933-3.522 39.274-.885 70.858-33.009 70.858-72.513 0-39.495-31.584-71.618-70.858-72.503 7.237-2.291 14.945-3.522 22.933-3.522 41.987 0 76.026 34.038 76.026 76.025z" fill="#80635e"/><circle cx="428.465" cy="385.82" fill="#d6a59d" r="51.427"/><path d="m479.887 385.817c0 28.408-23.019 51.428-51.418 51.428-6.833 0-13.348-1.328-19.314-3.753.539.019 1.087.029 1.636.029 26.349 0 47.704-21.354 47.704-47.704 0-26.34-21.355-47.694-47.704-47.694-.558 0-1.116.01-1.665.029 5.967-2.425 12.501-3.763 19.343-3.763 28.399 0 51.418 23.029 51.418 51.428z" fill="#ac8380"/></g><path d="m309.432 78.52h-184.896c-5.524 0-10.002-4.478-10.002-10.002v-8.371c0-5.524 4.478-10.002 10.002-10.002h184.897c5.524 0 10.002 4.478 10.002 10.002v8.371c0 5.523-4.478 10.002-10.003 10.002z" fill="#80635e"/><path d="m319.432 60.144v8.372c0 5.521-4.471 10.002-10.002 10.002h-24.075c5.521 0 10.002-4.481 10.002-10.002v-8.372c0-5.521-4.481-10.002-10.002-10.002h24.075c5.531-.001 10.002 4.48 10.002 10.002z" fill="#6c524e"/></g><g><path d="m317.911 355.917h-56.919c-2.761 0-5-2.239-5-5v-17.901c0-2.761 2.239-5 5-5h56.919c2.761 0 5 2.239 5 5v17.901c0 2.762-2.238 5-5 5z" fill="#80635e"/><path d="m322.915 333.017v17.9c0 2.76-2.24 5-5 5h-19.22c2.76 0 5-2.24 5-5v-17.9c0-2.76-2.24-5-5-5h19.22c2.76 0 5 2.24 5 5z" fill="#6c524e"/></g></g><g><path d="m114.534 320.516c-33.911 0-61.5 27.589-61.5 61.5s27.589 61.5 61.5 61.5 61.5-27.589 61.5-61.5-27.589-61.5-61.5-61.5zm0 108c-25.64 0-46.5-20.859-46.5-46.5s20.86-46.5 46.5-46.5 46.5 20.859 46.5 46.5-20.86 46.5-46.5 46.5z"/><path d="m500.097 342.908c0-.017.003-.034.003-.051v-104.087c0-10.704-2.77-21.283-8.009-30.591-2.033-3.61-6.605-4.888-10.215-2.857-3.609 2.032-4.889 6.605-2.857 10.215 3.979 7.067 6.081 15.101 6.081 23.233v12.046h-63.616c-12.434 0-22.55 10.116-22.55 22.551v34.332c-28.133 10.671-49.038 36.115-53.212 66.817l-119.987.001c-1.816-27.302-13.501-52.729-33.228-72.064-20.978-20.562-48.669-31.886-77.973-31.886-30.05 0-58.241 11.825-79.381 33.298-5.094 5.173-11.998 8.324-19.189 8.816 22.654-32.117 59.352-51.229 98.571-51.229 52.509 0 98.631 33.608 114.77 83.629 1 3.098 3.883 5.197 7.138 5.197h12.05v.64c0 6.893 5.608 12.5 12.5 12.5h56.919c6.893 0 12.5-5.607 12.5-12.5v-17.901c0-6.893-5.607-12.5-12.5-12.5h-6.714v-93.362h17.951c9.65 0 17.502-7.852 17.502-17.502v-18.34h90.989c7.318 0 14.34 1.625 20.871 4.83 1.063.522 2.189.77 3.299.77 2.771 0 5.436-1.542 6.738-4.197 1.825-3.719.29-8.213-3.428-10.037-8.606-4.224-17.852-6.365-27.48-6.365h-16.245v-40.032c0-11.817-4.603-22.928-12.959-31.284l-8.275-8.277c-7.801-7.799-20.488-7.799-28.289 0-7.799 7.8-7.799 20.489 0 28.289l8.276 8.276c.813.812 1.241 1.848 1.241 2.996v40.032h-34.739v-50.448c0-9.65-7.852-17.502-17.502-17.502h-17.951v-22.434c8.825-.888 15.737-8.358 15.737-17.413v-8.371c0-9.65-7.852-17.502-17.502-17.502h-184.897c-9.65 0-17.502 7.852-17.502 17.502v8.371c0 7.971 5.363 14.702 12.665 16.807l-23.913 86.849c-1.1 3.994 1.247 8.122 5.24 9.222.667.184 1.336.271 1.996.271 3.291 0 6.311-2.184 7.227-5.511l24.819-90.137h63.771v189.908c-1.236-.983-2.489-1.95-3.763-2.894-23.469-17.39-51.319-26.582-80.54-26.582-8.209 0-16.317.752-24.245 2.196l11.287-40.993c1.1-3.994-1.247-8.122-5.24-9.222-3.989-1.099-8.122 1.246-9.222 5.239l-13.527 49.127c-28.574 9.079-53.754 27.538-71.143 53.055-2.937 4.31-3.249 9.848-.814 14.453 2.427 4.59 7.161 7.441 12.356 7.441 9.431 0 18.683-3.076 26.282-8.585l7.802 6.266c-13.006 15.253-20.869 35.017-20.869 56.586 0 48.156 39.178 87.335 87.334 87.335s87.334-39.179 87.334-87.335c0-1.789-.061-3.563-.167-5.325h9.13c.059 1.073.107 2.149.13 3.23.113 5.291 4.5 9.596 9.778 9.596l124.291-.001c1.942 44.349 38.616 79.835 83.436 79.835 46.059 0 83.53-37.472 83.53-83.53-.003-15.679-4.354-30.359-11.901-42.91zm-184.686 5.509h-51.92v-12.901h51.92zm16.239-138.766c0 1.38-1.122 2.502-2.502 2.502h-17.951v-20.842h20.453zm59.105-86.975-8.276-8.276c-1.951-1.95-1.951-5.124 0-7.074 1.949-1.951 5.125-1.95 7.074-.001l8.275 8.277c5.524 5.523 8.566 12.867 8.566 20.678v40.032h-10.006v-40.032c.001-5.139-2-9.971-5.633-13.604zm-61.607.685c1.38 0 2.502 1.122 2.502 2.502v50.448h-20.453v-52.95zm-207.114-63.215c0-1.38 1.123-2.502 2.502-2.502h184.897c1.38 0 2.502 1.122 2.502 2.502v8.371c0 1.38-1.122 2.502-2.502 2.502h-184.898c-1.379 0-2.502-1.122-2.502-2.502v-8.371zm174.163 25.873v234.496h-35.205c-6.893 0-12.5 5.607-12.5 12.5v2.262h-6.705c-6.241-16.985-15.718-32.365-27.95-45.49v-203.768zm-181.663 368.332c-39.885 0-72.334-32.449-72.334-72.335 0-39.885 32.449-72.334 72.334-72.334s72.334 32.449 72.334 72.334-32.449 72.335-72.334 72.335zm84.94-92.661c-9.185-38.385-43.78-67.009-84.941-67.009-21.163 0-40.589 7.568-55.721 20.137l-7.233-5.809c17.515-15.17 39.585-23.444 62.954-23.444 45.818 0 84.813 32.791 94.262 76.124h-9.321zm214.459-88.323c0-4.163 3.387-7.551 7.55-7.551h63.616v58.676c-14.898-13.769-34.797-22.203-56.635-22.203-4.958 0-9.808.459-14.531 1.292zm14.532 180.984c-37.787 0-68.529-30.742-68.529-68.53s30.742-68.53 68.529-68.53c37.788 0 68.53 30.742 68.53 68.53s-30.742 68.53-68.53 68.53z"/><path d="m447.304 329.987c-3.923-1.325-8.18.784-9.504 4.709s.784 8.18 4.709 9.504c17.874 6.03 29.883 22.756 29.883 41.62 0 24.222-19.705 43.927-43.927 43.927s-43.927-19.705-43.927-43.927c0-18.957 12.085-35.708 30.071-41.684 3.931-1.306 6.06-5.551 4.753-9.481-1.306-3.931-5.549-6.061-9.481-4.753-24.13 8.016-40.343 30.487-40.343 55.918 0 32.492 26.435 58.927 58.927 58.927s58.927-26.435 58.927-58.927c-.001-25.306-16.111-47.744-40.088-55.833z"/><path d="m366.358 299.813h-33.147c-4.143 0-7.5 3.357-7.5 7.5s3.357 7.5 7.5 7.5h33.147c4.143 0 7.5-3.357 7.5-7.5s-3.357-7.5-7.5-7.5z"/><path d="m366.358 275.902h-33.147c-4.143 0-7.5 3.357-7.5 7.5s3.357 7.5 7.5 7.5h33.147c4.143 0 7.5-3.357 7.5-7.5s-3.357-7.5-7.5-7.5z"/><path d="m366.358 251.991h-33.147c-4.143 0-7.5 3.357-7.5 7.5s3.357 7.5 7.5 7.5h33.147c4.143 0 7.5-3.357 7.5-7.5 0-4.142-3.357-7.5-7.5-7.5z"/></g></g></svg>