<svg id="Capa_1" enable-background="new 0 0 511.944 511.944" height="512" viewBox="0 0 511.944 511.944" width="512" xmlns="http://www.w3.org/2000/svg"><g><g><path d="m482.118 120.202c4.168 4.168 5.119 5.837 8.245 10.572 21.881 33.141 18.235 78.177-10.941 107.352l-241.356 241.355c-28.328 28.328-71.611 32.589-104.437 12.781-5.811-3.506-7.498-6.094-12.513-11.109z" fill="#f59705"/><path d="m219.867 467.307c16.094-16.094 3.659-28.528 19.753-44.622s28.529-3.66 44.623-19.754c16.093-16.093 3.659-28.528 19.752-44.621s28.528-3.659 44.621-19.752c16.091-16.091 3.657-28.526 19.748-44.617 16.093-16.093 28.527-3.659 44.62-19.751 16.094-16.094 3.659-28.528 19.753-44.621 16.093-16.093 28.528-3.659 44.621-19.752 16.397-16.397 6.987-35.491 24.81-51.579-2.833-12.118-7.919-22.385-15.042-32.289-30.616 30.311-362.452 358.907-361.093 360.289 2.091 2.108 4.452 3.972 6.948 5.622.214.134.423.266.649.403 4.101 2.474 8.365 4.573 12.743 6.296.019.007.037.014.056.021.451.177.908.334 1.361.503 9.154 3.293 16.839 4.378 16.895 4.396.033-.003.306.045.793.119.042.006.084.013.127.019.407.061.942.137 1.598.219.687.084 1.374.156 2.062.224 7.796.736 24.562 1.088 42.607-6.699.829-.362 1.657-.727 2.477-1.117.028-.013.056-.026.085-.039 7.457-3.554 14.505-8.251 20.882-14.092.053-.049.105-.099.158-.147.877-.807 1.743-1.634 2.593-2.484l30-30c-12.846 12.846-28.768 20.734-45.395 23.677-3.163.56-5.368-3.289-2.805-5.852z" fill="#ef7f02"/><path d="m394.637 32.5-362.101 362.101c-33.343-33.343-33.343-87.403 0-120.746l241.355-241.355c33.343-33.343 87.403-33.343 120.746 0z" fill="#f59705"/><path d="m62.536 273.855 241.355-241.355c12.84-12.84 28.755-20.714 45.373-23.665-26.536-4.712-54.87 3.162-75.373 23.665l-241.355 241.355c-33.343 33.343-33.343 87.403 0 120.746l16.88-16.88c-19.416-32.756-15.045-75.701 13.12-103.866z" fill="#ef7f02"/><path d="m402.403 16.126c-11.935-11.935-32.052-7.634-38.329 8.035-1.375 3.433-3.574 6.972-7.311 10.709-16.096 16.096-28.53 3.661-44.626 19.757-16.094 16.094-3.659 28.528-19.753 44.622s-28.529 3.66-44.623 19.754c-16.093 16.093-3.659 28.528-19.752 44.621s-28.528 3.659-44.621 19.752c-16.091 16.091-3.657 28.526-19.748 44.617-16.093 16.093-28.527 3.658-44.62 19.751s-3.659 28.528-19.752 44.621-28.528 3.659-44.621 19.752c-16.092 16.092-3.658 28.527-19.75 44.619-3.732 3.732-7.267 5.93-10.697 7.305-15.668 6.282-19.973 26.394-8.037 38.33 9.136 9.136 23.948 9.136 33.084 0l192.917-176.496 160.242-176.662c9.136-9.136 9.136-23.948 0-33.084z" fill="#80d261"/><path d="m46.164 402.37c-11.936-11.936-7.631-32.049 8.037-38.33 3.43-1.375 6.965-3.573 10.697-7.305 16.092-16.092 3.658-28.527 19.75-44.619 16.093-16.093 28.528-3.659 44.621-19.752s3.659-28.528 19.752-44.621 28.527-3.658 44.62-19.751c16.091-16.091 3.657-28.526 19.748-44.617 16.093-16.093 28.528-3.659 44.621-19.752 16.093-16.094 3.659-28.528 19.752-44.621 16.094-16.094 28.529-3.66 44.623-19.754s3.659-28.528 19.753-44.622c16.096-16.096 28.53-3.661 44.626-19.757 3.736-3.736 5.935-7.275 7.311-10.708 1.543-3.851 3.924-7.01 6.812-9.416-12.054-10.171-30.793-5.608-36.812 9.416-1.375 3.433-3.574 6.972-7.311 10.708-16.096 16.096-28.53 3.661-44.626 19.757-16.094 16.094-3.659 28.528-19.753 44.622s-28.529 3.66-44.623 19.754c-16.093 16.094-3.659 28.528-19.752 44.621s-28.528 3.659-44.621 19.752c-16.091 16.091-3.657 28.526-19.748 44.617-16.093 16.093-28.527 3.659-44.62 19.751-16.093 16.093-3.659 28.528-19.752 44.621s-28.528 3.659-44.621 19.752c-16.092 16.092-3.658 28.527-19.75 44.619-3.732 3.732-7.267 5.929-10.697 7.305-15.668 6.281-19.973 26.394-8.037 38.33 8.64 8.64 22.351 9.097 31.542 1.394-.527-.442-1.046-.898-1.542-1.394z" fill="#68ca44"/><path d="m109.601 495.807c11.935 11.935 32.052 7.634 38.329-8.035 1.375-3.433 3.574-6.972 7.311-10.709 16.096-16.096 28.53-3.661 44.626-19.757 16.094-16.094 3.659-28.528 19.753-44.622s28.529-3.66 44.623-19.754c16.093-16.093 3.659-28.528 19.752-44.621s28.528-3.659 44.621-19.752c16.091-16.091 3.657-28.526 19.748-44.617 16.093-16.093 28.527-3.659 44.62-19.751 16.093-16.093 3.659-28.528 19.752-44.621s28.528-3.659 44.621-19.752c16.092-16.092 3.658-28.527 19.75-44.619 3.732-3.732 7.267-5.93 10.697-7.305 15.668-6.282 19.973-26.394 8.037-38.33-9.136-9.136-23.948-9.136-33.084 0l-179.05 157.663-174.108 195.496c-9.136 9.136-9.136 23.948 0 33.084z" fill="#80d261"/><path d="m139.601 495.807-.002-.002c-9.136-9.136-9.136-23.948 0-33.084l353.157-353.157c.496-.496 1.015-.952 1.542-1.394-9.191-7.703-22.902-7.246-31.542 1.394l-179.05 157.663-174.107 195.494c-9.136 9.136-9.136 23.948 0 33.084l.002.002c9.002 9.002 22.656 8.763 31.518 1.381-.517-.436-1.027-.889-1.518-1.381z" fill="#68ca44"/><path d="m483.909 88.411-395.463 395.462c-16.665 16.665-43.685 16.665-60.35 0-16.665-16.665-16.665-43.685 0-60.35l28.921-28.921 18.71-11.408 5.259-12.562 37.844-37.844 17.649-10.224 6.561-13.986 37.877-37.877 18.868-8.007 5.312-16.173 37.911-37.911 20.18-8.99 3.96-15.15 37.914-37.914 18.56-10.486 5.601-13.675 37.893-37.893 21.561-7.97 2.579-16.17 32.303-32.303c16.665-16.665 43.685-16.665 60.35 0 16.665 16.667 16.665 43.686 0 60.352z" fill="#ea433f"/><path d="m58.096 483.873c-16.665-16.665-16.665-43.685 0-60.35l395.462-395.463c4.45-4.45 9.642-7.7 15.175-9.773-15.186-5.691-32.96-2.441-45.175 9.773l-32.303 32.303-2.579 16.17-21.561 7.97-37.893 37.893-5.601 13.675-18.56 10.486-37.914 37.914-3.96 15.15-20.18 8.99-37.911 37.911-5.312 16.173-18.868 8.007-37.877 37.877-6.561 13.986-17.649 10.224-37.844 37.844-5.259 12.562-18.71 11.408-28.921 28.921c-16.665 16.665-16.665 43.685 0 60.35 12.215 12.215 29.989 15.465 45.175 9.774-5.531-2.075-10.724-5.325-15.174-9.775z" fill="#e32928"/><g fill="#eaf6ff"><path d="m116.557 407.482c-4.315 4.315-10.756 5.707-16.467 3.558l-43.243-16.268 24.14-24.14 30.051 11.305c10.576 3.979 13.509 17.555 5.519 25.545z"/><path d="m178.611 345.428c-4.315 4.315-10.756 5.707-16.467 3.558l-43.244-16.267 24.14-24.14 30.051 11.305c10.577 3.978 13.51 17.554 5.52 25.544z"/><path d="m240.665 283.374c-4.315 4.315-10.756 5.707-16.467 3.558l-43.243-16.268 24.14-24.14 30.051 11.305c10.576 3.979 13.509 17.555 5.519 25.545z"/><path d="m302.719 221.32c-4.315 4.315-10.756 5.707-16.467 3.558l-43.243-16.268 24.14-24.14 30.051 11.305c10.576 3.979 13.509 17.555 5.519 25.545z"/><path d="m364.773 159.267c-4.315 4.315-10.756 5.707-16.467 3.558l-43.243-16.268 24.14-24.14 30.051 11.305c10.576 3.979 13.509 17.554 5.519 25.545z"/><path d="m426.826 97.213c-4.315 4.315-10.756 5.707-16.467 3.558l-43.243-16.268 24.14-24.14 30.051 11.305c10.577 3.979 13.51 17.554 5.519 25.545z"/></g><path d="m80.986 370.632-24.14 24.14 21.8 8.201 24.14-24.14z" fill="#d8ecfe"/><path d="m143.04 308.578-24.14 24.141 21.8 8.2 24.14-24.14z" fill="#d8ecfe"/><path d="m205.094 246.525-24.14 24.14 21.799 8.2 24.141-24.14z" fill="#d8ecfe"/><path d="m267.148 184.471-24.14 24.14 21.799 8.2 24.14-24.14z" fill="#d8ecfe"/><path d="m329.202 122.417-24.14 24.14 21.799 8.201 24.14-24.141z" fill="#d8ecfe"/><path d="m391.256 60.363-24.14 24.14 21.799 8.201 24.14-24.14z" fill="#d8ecfe"/></g><path d="m505.164 142.912c11.7-17.995 1.92-41.75-18.363-46.788.853-1.221 17.106-13.805 17.106-37.889 0-35.617-36.084-59.833-69.064-46.483-11.619 4.703-17.483 12.131-18.999 13.414-4.979-20.049-28.666-30.276-46.92-18.276-2.81-1.916-13.323-4.499-16.845-5.184-29.982-5.832-61.443 3.442-83.492 25.491l-168.81 168.811c-2.929 2.929-2.929 7.678 0 10.606 2.929 2.929 7.678 2.929 10.606 0l168.811-168.811c20.736-20.736 51.399-27.985 79.106-19.015-1.697 3.334-2.092 6.03-6.84 10.778-13.159 13.16-26.756 1.888-44.626 19.757-17.755 17.756-6.652 31.521-19.752 44.622-13.16 13.157-26.755 1.885-44.624 19.754-17.756 17.756-6.652 31.52-19.752 44.621-13.158 13.157-26.754 1.885-44.621 19.751-17.754 17.754-6.649 31.518-19.748 44.617-13.158 13.158-26.753 1.884-44.621 19.751-17.756 17.755-6.652 31.521-19.752 44.621-13.158 13.158-26.754 1.884-44.621 19.752-17.755 17.755-6.659 31.529-19.75 44.619-4.751 4.751-7.447 5.142-10.775 6.839-8.893-27.519-1.767-58.326 19.019-79.113l49.432-49.432c2.929-2.929 2.929-7.678 0-10.606-2.929-2.929-7.678-2.929-10.606 0l-49.432 49.432c-26.356 26.358-34.287 66.224-20.427 100.524-11.684 18.052-1.8 41.703 18.416 46.717-.868 1.272-17.1 13.594-17.1 37.906 0 12.849 4.891 25.697 14.672 35.479 9.781 9.781 22.63 14.672 35.479 14.672 24.303 0 36.68-16.263 37.907-17.1 5.083 20.488 28.849 29.916 46.648 18.465 34.284 13.862 74.156 5.958 100.543-20.429l88.147-88.147c2.929-2.929 2.929-7.678 0-10.606-2.93-2.929-7.678-2.929-10.607 0l-88.146 88.147c-20.781 20.781-51.576 27.907-79.089 19.026 1.717-3.354 2.115-6.081 6.871-10.837 13.16-13.159 26.758-1.888 44.626-19.757 17.756-17.756 6.652-31.52 19.752-44.622 13.159-13.158 26.755-1.885 44.623-19.754 17.755-17.755 6.652-31.522 19.753-44.621 13.157-13.157 26.754-1.885 44.619-19.751 17.755-17.754 6.649-31.518 19.749-44.617 13.158-13.16 26.752-1.884 44.62-19.751 17.755-17.755 6.652-31.522 19.753-44.621 13.159-13.159 26.753-1.884 44.621-19.752 17.753-17.755 6.651-31.52 19.75-44.62 4.737-4.737 7.431-5.142 10.718-6.81 8.887 27.515 1.737 58.384-19.011 79.132l-130.035 130.034c-2.929 2.929-2.929 7.678 0 10.606 2.93 2.929 7.678 2.929 10.607 0l130.035-130.035c26.301-26.3 34.279-66.24 20.439-100.517zm-112.023-73.827 25.525 9.602c5.454 2.052 7.022 9.057 2.856 13.222-2.228 2.228-5.572 2.951-8.523 1.842l-32.353-12.171zm-371.674 327.982c-5.569-5.569-6.704-14.493-.31-22.124 4.875-5.169 9.627-3.488 19.043-12.905 17.755-17.755 6.65-31.519 19.75-44.619 13.158-13.157 26.754-1.884 44.621-19.752 17.756-17.756 6.661-31.53 19.752-44.621 13.158-13.157 26.753-1.885 44.621-19.751 17.754-17.754 6.649-31.518 19.748-44.617 13.158-13.158 26.753-1.884 44.621-19.751 17.756-17.756 6.652-31.52 19.752-44.621 13.16-13.158 26.755-1.885 44.624-19.754 17.755-17.756 6.661-31.531 19.753-44.622 13.159-13.16 26.756-1.888 44.626-19.757 4.121-4.121 7.055-8.446 8.969-13.223 4.296-10.724 17.913-13.616 26.023-5.561 6.708 6.947 5.813 16.745.048 22.516l-353.163 353.162c-6.196 6.197-16.28 6.198-22.478 0zm309.62-265.928 25.526 9.603c5.456 2.052 7.02 9.057 2.857 13.221-2.229 2.229-5.572 2.951-8.524 1.842l-32.354-12.171zm-62.054 62.053 25.526 9.603c5.439 2.047 7.031 9.048 2.857 13.222-2.23 2.229-5.579 2.95-8.524 1.842l-32.354-12.172zm-62.054 62.054 25.526 9.602c5.473 2.06 7.01 9.069 2.856 13.222-2.228 2.228-5.573 2.951-8.523 1.842l-32.354-12.171zm-62.054 62.054 25.526 9.603c5.44 2.046 7.03 9.049 2.856 13.222-2.228 2.228-5.574 2.951-8.523 1.842l-32.354-12.171zm-62.054 62.054 25.526 9.603c2.609.982 4.443 3.107 5.032 5.833 1.361 6.296-4.81 11.445-10.699 9.231l-32.354-12.172zm388.934-229.459c-17.757 17.755-6.65 31.518-19.75 44.619-13.158 13.156-26.756 1.884-44.621 19.752-17.757 17.755-6.653 31.521-19.754 44.621-13.158 13.158-26.753 1.885-44.62 19.751-17.753 17.754-6.658 31.528-19.748 44.617-6.235 6.236-11.153 6.867-17.96 7.74-7.486.96-16.803 2.155-26.659 12.012-9.857 9.856-11.053 19.173-12.013 26.66-.873 6.807-1.504 11.725-7.741 17.961-6.236 6.237-11.155 6.868-17.962 7.741-7.486.96-16.803 2.155-26.66 12.013-9.857 9.857-11.052 19.174-12.012 26.66-.873 6.807-1.504 11.725-7.74 17.962-6.238 6.238-11.157 6.869-17.964 7.743-7.487.961-16.804 2.157-26.662 12.015-4.123 4.123-7.057 8.448-8.97 13.223-.916 2.287-2.27 4.264-3.963 5.854-.147.121-.289.248-.427.381-2.043 1.783-4.535 3.031-7.333 3.604-5.283 1.084-10.514-.49-14.344-4.321-6.195-6.196-6.196-16.275-.005-22.473l252.424-252.424c2.929-2.929 2.929-7.678 0-10.606-2.93-2.929-7.678-2.929-10.607 0-15.605 15.603-259.026 259.026-273.571 273.57-13.715 13.714-36.03 13.713-49.744 0-13.714-13.714-13.714-36.03 0-49.744 9.349-9.349 25.349-25.349 25.332-25.332l38.718 14.566c8.447 3.176 18.029 1.108 24.412-5.275 11.852-11.852 7.48-31.976-8.182-37.868l-19.162-7.209 26.269-26.269 38.718 14.565c8.429 3.172 18.017 1.121 24.412-5.274 11.851-11.85 7.48-31.976-8.182-37.867l-19.163-7.209 26.269-26.269 38.718 14.565c8.445 3.178 18.029 1.108 24.412-5.274 11.851-11.851 7.481-31.976-8.182-37.868l-19.162-7.208 26.269-26.269 38.718 14.566c16.909 6.358 34.521-8.493 30.642-26.438-1.661-7.689-7.049-13.934-14.412-16.704l-19.162-7.209 26.269-26.268 38.717 14.565c16.94 6.373 34.517-8.502 30.643-26.439-1.662-7.689-7.05-13.933-14.413-16.703l-19.162-7.209 26.269-26.268 38.717 14.565c8.447 3.178 18.03 1.108 24.412-5.274 11.85-11.85 7.481-31.975-8.183-37.868l-19.161-7.208 24.076-24.076c13.743-13.745 35.996-13.748 49.742 0 13.745 13.743 13.75 35.996 0 49.744l-98.735 98.735c-2.929 2.929-2.929 7.678 0 10.606s7.677 2.93 10.607 0l77.583-77.583c11.167-11.167 29.911-.874 26.796 14.336-1.104 5.389-4.691 9.664-9.843 11.729-4.772 1.914-9.093 4.846-13.21 8.965z"/></g></svg>