<svg id="Capa_1" enable-background="new 0 0 512 512" height="512" viewBox="0 0 512 512" width="512" xmlns="http://www.w3.org/2000/svg"><g><g><path d="m449.5 437h-432c-5.523 0-10-4.477-10-10v-342c0-5.523 4.477-10 10-10h432c5.523 0 10 4.477 10 10v342c0 5.523-4.477 10-10 10z" fill="#fcf1f2"/><path d="m459.5 85v342c0 5.52-4.48 10-10 10h-30c5.52 0 10-4.48 10-10v-342c0-5.52-4.48-10-10-10h30c5.52 0 10 4.48 10 10z" fill="#f4e5e0"/><path d="m459.5 392v35c0 5.52-4.48 10-10 10h-432c-5.52 0-10-4.48-10-10v-35z" fill="#9ae59c"/><path d="m414.5 193h90v149h-90z" fill="#cbb0f2"/><path d="m459.5 193h45v149h-45z" fill="#b696ef"/><path d="m474.5 193h30v149h-30z" fill="#a18ae2"/><path d="m484.5 437h-50c-11.046 0-20-8.954-20-20v-45h90v45c0 11.046-8.954 20-20 20z" fill="#ff8d95"/><path d="m504.5 372v45c0 11.05-8.95 20-20 20h-30c11.05 0 20-8.95 20-20v-45z" fill="#ff7686"/><path d="m414.5 342h90v30h-90z" fill="#bcf1f8"/><path d="m474.5 342h30v30h-30z" fill="#91f2f2"/><path d="m484.5 214h-50c-11.046 0-20-8.954-20-20v-4.189c0-5.753 1.654-11.384 4.765-16.223l31.824-49.503c3.936-6.123 12.887-6.123 16.824 0l31.824 49.503c3.111 4.839 4.765 10.47 4.765 16.223v4.189c-.002 11.046-8.956 20-20.002 20z" fill="#fff"/><path d="m504.5 189.81v4.19c0 11.05-8.95 20-20 20h-10v-24.19c0-5.75-1.65-11.38-4.76-16.22l-6.93-10.77c7.1-.77 13.46-3.97 18.25-8.76 1.27-1.27 2.43-2.65 3.47-4.13l15.21 23.66c3.11 4.84 4.76 10.47 4.76 16.22z" fill="#f2f2f2"/><path d="m484.53 149.93c-1.04 1.48-2.2 2.86-3.47 4.13-5.52 5.52-13.14 8.94-21.56 8.94-10.36 0-19.51-5.17-25.03-13.07l16.62-25.85c3.93-6.12 12.89-6.12 16.82 0z" fill="#cbb0f2"/><path d="m484.53 149.93c-1.04 1.48-2.2 2.86-3.47 4.13-4.79 4.79-11.15 7.99-18.25 8.76l-18.31-28.49 6.59-10.25c3.93-6.12 12.89-6.12 16.82 0z" fill="#b696ef"/><path d="m279.5 193h90v149h-90z" fill="#ffc263"/><path d="m324.5 193h45v149h-45z" fill="#ffaa5a"/><path d="m339.5 193h30v149h-30z" fill="#f7984b"/><path d="m349.5 437h-50c-11.046 0-20-8.954-20-20v-45h90v45c0 11.046-8.954 20-20 20z" fill="#ff8d95"/><path d="m369.5 372v45c0 11.05-8.95 20-20 20h-30c11.05 0 20-8.95 20-20v-45z" fill="#ff7686"/><path d="m279.5 342h90v30h-90z" fill="#bcf1f8"/><path d="m339.5 342h30v30h-30z" fill="#91f2f2"/><path d="m349.5 214h-50c-11.046 0-20-8.954-20-20v-4.189c0-5.753 1.654-11.384 4.765-16.223l31.824-49.503c3.936-6.123 12.887-6.123 16.824 0l31.824 49.503c3.111 4.839 4.765 10.47 4.765 16.223v4.189c-.002 11.046-8.956 20-20.002 20z" fill="#fff"/><path d="m369.5 189.81v4.19c0 11.05-8.95 20-20 20h-10v-24.19c0-5.75-1.65-11.38-4.76-16.22l-6.93-10.77c7.1-.77 13.46-3.97 18.25-8.76 1.27-1.27 2.43-2.65 3.47-4.13l15.21 23.66c3.11 4.84 4.76 10.47 4.76 16.22z" fill="#f2f2f2"/><path d="m349.53 149.93c-1.04 1.48-2.2 2.86-3.47 4.13-5.52 5.52-13.14 8.94-21.56 8.94-10.36 0-19.51-5.17-25.03-13.07l16.62-25.85c3.93-6.12 12.89-6.12 16.82 0z" fill="#ffc263"/><path d="m349.53 149.93c-1.04 1.48-2.2 2.86-3.47 4.13-4.79 4.79-11.15 7.99-18.25 8.76l-18.31-28.49 6.59-10.25c3.93-6.12 12.89-6.12 16.82 0z" fill="#ffaa5a"/><path d="m83 180c-16.569 0-30-13.431-30-30 0-16.569 13.431-30 30-30 16.569 0 30 13.431 30 30 0 16.569-13.431 30-30 30z" fill="#ffe077"/><path d="m113 150c0 8.28-3.36 15.78-8.79 21.21s-12.93 8.79-21.21 8.79c-5.46 0-10.59-1.46-15-4.03 2.28-1.31 4.36-2.91 6.21-4.76 5.43-5.43 8.79-12.93 8.79-21.21s-3.36-15.78-8.79-21.21c-1.85-1.85-3.93-3.45-6.21-4.76 4.41-2.57 9.54-4.03 15-4.03 8.28 0 15.78 3.36 21.21 8.79s8.79 12.93 8.79 21.21z" fill="#ffd05b"/></g><g><path d="m506.044 169.533-31.823-49.503c-1.805-2.807-4.315-4.981-7.221-6.356v-28.674c0-9.649-7.851-17.5-17.5-17.5h-432c-9.649 0-17.5 7.851-17.5 17.5v342c0 9.649 7.851 17.5 17.5 17.5h467c15.163 0 27.5-12.336 27.5-27.5v-75c0-4.142-3.357-7.5-7.5-7.5h-37.5v-113h17.5c4.5 0 8.747-1.093 12.5-3.018v88.518c0 4.142 3.357 7.5 7.5 7.5s7.5-3.358 7.5-7.5v-117.189c0-7.205-2.06-14.217-5.956-20.278zm-30.856-20.261c-4.278 4.009-9.81 6.228-15.688 6.228-5.94 0-11.479-2.22-15.708-6.197l13.604-21.162c1.413-1.623 2.794-1.624 4.207 0zm-460.188 277.728v-27.5h41.892c4.143 0 7.5-3.358 7.5-7.5s-3.357-7.5-7.5-7.5h-41.892v-299.5c0-1.378 1.121-2.5 2.5-2.5h432c1.379 0 2.5 1.122 2.5 2.5v28.673c-2.905 1.376-5.416 3.549-7.221 6.356l-31.823 49.504c-3.896 6.061-5.956 13.073-5.956 20.278v194.689h-30v-194.689c0-7.205-2.06-14.217-5.956-20.278l-15.114-23.51c-.037-.06-.076-.119-.115-.179l-16.594-25.814c-3.235-5.032-8.738-8.037-14.721-8.037s-11.485 3.004-14.721 8.037l-31.823 49.504c-3.896 6.061-5.956 13.073-5.956 20.278v194.688h-99.93v-34.165h14.961c4.234 0 8.259-2.038 10.764-5.452 2.507-3.414 3.245-7.864 1.976-11.905l-13.097-41.671 27.222 16.396c3.49 2.117 8.144 1.025 10.295-2.555 2.137-3.548.993-8.157-2.555-10.294l-41.821-25.19c-1.964-5.257-5.537-9.565-10.071-12.421 6.342-6.564 10.256-15.488 10.256-25.315v-2.141c0-20.107-16.358-36.465-36.534-36.465-20.107 0-36.466 16.358-36.466 36.465v2.141c0 9.826 3.914 18.751 10.256 25.315-4.534 2.856-8.106 7.164-10.07 12.421l-41.821 25.19c-3.548 2.137-4.691 6.746-2.555 10.294 2.151 3.58 6.804 4.672 10.295 2.555l27.222-16.397-13.097 41.672c-1.27 4.04-.531 8.49 1.976 11.904 2.505 3.414 6.529 5.452 10.764 5.452h14.961v34.166h-23.039c-4.143 0-7.5 3.358-7.5 7.5s3.357 7.5 7.5 7.5h180.108v17.5c0 4.5 1.093 8.747 3.018 12.5h-257.518c-1.379 0-2.5-1.122-2.5-2.5zm285.603-264.957c6.7 5.439 15.068 8.457 23.897 8.457 8.802 0 17.147-2.983 23.894-8.464l10.033 15.607c2.338 3.637 3.573 7.845 3.573 12.167v4.19c0 6.893-5.607 12.5-12.5 12.5h-50c-6.893 0-12.5-5.607-12.5-12.5v-4.189c0-4.323 1.235-8.53 3.573-12.167zm8.196-12.75 13.598-21.152c1.413-1.623 2.794-1.624 4.207 0l13.584 21.132c-4.278 4.009-9.81 6.228-15.688 6.228-5.901-.001-11.461-2.234-15.701-6.208zm-21.799 185.207v-116.018c3.753 1.924 8 3.018 12.5 3.018h17.5v113zm45-113h17.5c4.5 0 8.747-1.093 12.5-3.018v116.018h-30zm-45 128h75v15h-75zm90 67.5v-17.5h30v17.5c0 4.5 1.093 8.747 3.018 12.5h-36.035c1.924-3.753 3.017-8 3.017-12.5zm-247.07-32.5v-34.165h27.141v34.165zm35.07-152.571c0 11.836-9.63 21.465-21.466 21.465h-.068c-11.836 0-21.466-9.629-21.466-21.465v-2.141c0-11.836 9.63-21.465 21.534-21.465 11.836 0 21.466 9.629 21.466 21.465zm-43.962 43.509c1.324-4.213 5.18-7.043 9.596-7.043h25.732c4.416 0 8.271 2.831 9.596 7.043l18.825 59.898h-82.574zm178.462 154.062c-6.893 0-12.5-5.607-12.5-12.5v-37.5h75v37.5c0 6.893-5.607 12.5-12.5 12.5zm197.5-12.5c0 6.893-5.607 12.5-12.5 12.5h-50c-6.893 0-12.5-5.607-12.5-12.5v-37.5h75zm0-52.5h-75v-15h75zm-45-30h-30v-116.018c3.753 1.924 8 3.018 12.5 3.018h17.5zm32.5-128h-50c-6.893 0-12.5-5.607-12.5-12.5v-4.189c0-4.323 1.235-8.53 3.573-12.167l10.045-15.626c6.704 5.405 15.14 8.482 23.881 8.482 8.802 0 17.148-2.983 23.894-8.463l10.033 15.607c2.338 3.637 3.573 7.845 3.573 12.167v4.189c.001 6.893-5.606 12.5-12.499 12.5z"/><path d="m120.5 150c0-20.678-16.822-37.5-37.5-37.5s-37.5 16.822-37.5 37.5 16.822 37.5 37.5 37.5 37.5-16.822 37.5-37.5zm-60 0c0-12.407 10.094-22.5 22.5-22.5s22.5 10.093 22.5 22.5-10.094 22.5-22.5 22.5-22.5-10.093-22.5-22.5z"/></g></g></svg>