<svg id="Layer_1" enable-background="new 0 0 512 512" viewBox="0 0 512 512" xmlns="http://www.w3.org/2000/svg"><g><g><g><path d="m454.567 485.152h-397.134c-27.577 0-49.933-22.356-49.933-49.933 0-27.577 22.356-49.933 49.933-49.933h397.134c27.577 0 49.933 22.356 49.933 49.933 0 27.577-22.356 49.933-49.933 49.933z" fill="#54afff"/></g><g><circle cx="75.949" cy="435.219" fill="#f8f5f6" r="19.005"/></g><g><circle cx="147.97" cy="435.219" fill="#f8f5f6" r="19.005"/></g><g><circle cx="219.99" cy="435.219" fill="#f8f5f6" r="19.005"/></g><g><circle cx="292.01" cy="435.219" fill="#f8f5f6" r="19.005"/></g><g><circle cx="364.03" cy="435.219" fill="#f8f5f6" r="19.005"/></g><g><circle cx="436.05" cy="435.219" fill="#f8f5f6" r="19.005"/></g><g><path d="m318.151 137.959-10.689 1.644c-4.388.675-8.586-1.95-9.965-6.169-1.9-5.815-4.241-11.43-6.982-16.808-2-3.926-.831-8.723 2.722-11.328l8.732-6.404c4.463-3.273 4.958-9.754 1.045-13.668l-32.837-32.837c-3.914-3.913-10.395-3.418-13.668 1.045l-6.404 8.732c-2.606 3.553-7.403 4.722-11.328 2.722-5.378-2.74-10.993-5.081-16.808-6.981-4.22-1.379-6.844-5.578-6.169-9.965l1.644-10.689c.841-5.47-3.391-10.403-8.926-10.403h-46.438c-5.535 0-9.767 4.933-8.926 10.403l1.644 10.689c.675 4.388-1.95 8.586-6.169 9.965-5.815 1.9-11.43 4.241-16.808 6.981-3.926 2-8.723.831-11.328-2.722l-6.404-8.732c-3.273-4.463-9.754-4.958-13.668-1.045l-32.839 32.836c-3.914 3.914-3.418 10.395 1.045 13.668l8.732 6.404c3.553 2.606 4.722 7.402 2.722 11.328-2.74 5.378-5.081 10.994-6.982 16.808-1.379 4.22-5.578 6.844-9.965 6.169l-10.688-1.644c-5.47-.841-10.403 3.391-10.403 8.926v46.438c0 5.535 4.933 9.767 10.403 8.926l10.688-1.644c4.388-.675 8.586 1.95 9.965 6.169 1.9 5.815 4.241 11.43 6.982 16.808 2 3.926.831 8.723-2.722 11.328l-8.732 6.404c-4.463 3.273-4.958 9.754-1.045 13.668l32.837 32.837c3.913 3.914 10.395 3.418 13.668-1.045l6.404-8.732c2.606-3.553 7.403-4.722 11.328-2.722 5.378 2.74 10.993 5.081 16.808 6.982 4.22 1.379 6.844 5.578 6.169 9.965l-1.644 10.688c-.841 5.47 3.391 10.403 8.926 10.403h46.438c5.535 0 9.767-4.933 8.926-10.403l-1.644-10.688c-.675-4.388 1.95-8.586 6.169-9.965 5.815-1.9 11.43-4.241 16.808-6.982 3.926-2 8.723-.831 11.328 2.722l6.404 8.732c3.273 4.463 9.754 4.958 13.668 1.045l32.837-32.837c3.913-3.913 3.418-10.395-1.045-13.668l-8.732-6.404c-3.553-2.606-4.722-7.403-2.722-11.328 2.74-5.378 5.081-10.994 6.982-16.808 1.379-4.22 5.578-6.844 9.965-6.169l10.689 1.644c5.47.841 10.403-3.391 10.403-8.926v-46.438c.002-5.533-4.931-9.766-10.401-8.925zm-132.853 103.016c-39.141 0-70.87-31.73-70.87-70.87 0-39.141 31.73-70.87 70.87-70.87s70.87 31.73 70.87 70.87-31.73 70.87-70.87 70.87z" fill="#75797f"/></g><g><path d="m255.015 157.393c.75 4.125 1.153 8.37 1.153 12.711 0 39.141-31.73 70.871-70.87 70.871-1.234 0-2.459-.032-3.677-.095v72.481h26.897c5.535 0 9.767-4.933 8.926-10.403l-1.644-10.688c-.675-4.388 1.95-8.586 6.169-9.965 5.815-1.9 11.43-4.241 16.808-6.981 3.926-2 8.723-.832 11.328 2.722l6.404 8.731c3.273 4.463 9.754 4.958 13.668 1.045l32.837-32.837c3.913-3.914 3.418-10.395-1.045-13.667l-8.732-6.404c-3.553-2.606-4.722-7.402-2.722-11.329 2.74-5.378 5.081-10.994 6.981-16.808 1.379-4.22 5.578-6.844 9.965-6.169l10.688 1.644c5.47.841 10.403-3.391 10.403-8.926v-35.931h-73.537z" fill="#666a6f"/></g><g><path d="m465.292 385.286h-251.341v-189.46c0-5.01 4.062-9.072 9.072-9.072h233.198c5.01 0 9.072 4.062 9.072 9.072v189.46z" fill="#e3a55c"/></g><g><path d="m456.221 186.754h-26.928v92.003c0 38.399-31.129 69.528-69.528 69.528h-145.814v37h251.341v-189.459c0-5.01-4.061-9.072-9.071-9.072z" fill="#d3955b"/></g><g><path d="m359.581 259.517h-39.919c-3.093 0-5.601-2.508-5.601-5.601v-67.162h51.121v67.162c0 3.094-2.507 5.601-5.601 5.601z" fill="#e3a55c"/></g><g><path d="m359.581 259.517h-39.919c-3.093 0-5.601-2.508-5.601-5.601v-67.162h51.121v67.162c0 3.094-2.507 5.601-5.601 5.601z" fill="#fce9c7"/></g></g><g><path d="m472.792 380.767v-184.941c0-9.138-7.435-16.572-16.572-16.572h-120.166v-32.369c0-4.829-2.102-9.401-5.766-12.545-3.665-3.145-8.502-4.526-13.277-3.793l-10.688 1.644c-.74.114-1.453-.342-1.696-1.085-1.999-6.116-4.498-12.133-7.429-17.885-.322-.633-.118-1.439.476-1.875l8.731-6.404c3.894-2.855 6.338-7.254 6.706-12.069s-1.379-9.535-4.793-12.95l-32.838-32.839c-3.415-3.414-8.132-5.164-12.949-4.793-4.814.368-9.214 2.812-12.069 6.706l-6.404 8.732c-.434.593-1.24.799-1.875.475-5.751-2.93-11.768-5.429-17.884-7.428-.743-.243-1.2-.957-1.086-1.697l1.644-10.688c.733-4.773-.649-9.612-3.794-13.277-3.144-3.665-7.717-5.766-12.545-5.766h-46.438c-4.828 0-9.401 2.102-12.545 5.766-3.145 3.665-4.527 8.504-3.794 13.277l1.644 10.689c.114.74-.343 1.454-1.086 1.696-6.116 1.999-12.133 4.498-17.884 7.428-.634.324-1.439.119-1.875-.475l-6.404-8.732c-2.856-3.894-7.256-6.338-12.07-6.706-4.823-.375-9.535 1.379-12.949 4.793l-32.839 32.838c-3.415 3.415-5.162 8.134-4.793 12.949s2.812 9.214 6.706 12.07l8.731 6.404c.594.436.798 1.242.475 1.875-2.928 5.748-5.428 11.764-7.428 17.884-.243.743-.965 1.196-1.696 1.085l-10.689-1.644c-4.77-.732-9.612.65-13.277 3.794s-5.766 7.717-5.766 12.545v46.438c0 4.829 2.102 9.401 5.767 12.546 3.665 3.144 8.501 4.527 13.277 3.793l10.688-1.644c.738-.113 1.453.342 1.696 1.087 2 6.12 4.5 12.136 7.428 17.882.323.634.119 1.441-.475 1.876l-8.731 6.404c-3.894 2.856-6.338 7.256-6.706 12.07-.368 4.815 1.379 9.535 4.793 12.949l32.837 32.837c3.413 3.414 8.123 5.165 12.948 4.793 4.814-.368 9.214-2.812 12.07-6.706l6.404-8.732c.436-.594 1.244-.797 1.875-.474 5.751 2.93 11.768 5.429 17.884 7.428.743.243 1.2.956 1.086 1.697l-1.644 10.688c-.733 4.773.649 9.612 3.794 13.277 3.144 3.665 7.717 5.766 12.545 5.766h44.372v56.924h-149.016c-31.669.002-57.433 25.767-57.433 57.436s25.764 57.433 57.433 57.433h271.749c4.143 0 7.5-3.358 7.5-7.5s-3.357-7.5-7.5-7.5h-271.749c-23.397 0-42.433-19.036-42.433-42.433s19.036-42.433 42.433-42.433h397.134c23.397 0 42.433 19.036 42.433 42.433s-19.035 42.433-42.433 42.433h-89.385c-4.143 0-7.5 3.358-7.5 7.5s3.357 7.5 7.5 7.5h89.385c31.668 0 57.433-25.764 57.433-57.433 0-25.299-16.449-46.813-39.208-54.452zm-151.231-186.513h36.121v57.763h-36.121zm-159.482 111.607c-.581 0-.952-.291-1.161-.534s-.44-.655-.352-1.229l1.644-10.688c1.235-8.032-3.497-15.7-11.252-18.234-5.38-1.758-10.674-3.957-15.733-6.535-7.227-3.682-15.968-1.594-20.781 4.969l-6.404 8.731c-.344.469-.798.597-1.118.622-.313.023-.788-.033-1.198-.444l-32.839-32.839c-.411-.411-.468-.879-.444-1.199s.152-.774.621-1.118l8.731-6.404c6.562-4.812 8.652-13.552 4.969-20.782-2.576-5.057-4.775-10.35-6.535-15.732-2.534-7.755-10.205-12.483-18.234-11.253l-10.688 1.644c-.574.092-.986-.142-1.23-.351-.243-.209-.534-.58-.534-1.162v-46.438c0-.581.291-.952.534-1.161.244-.209.655-.443 1.23-.352l10.688 1.643c8.03 1.233 15.7-3.497 18.234-11.251 1.76-5.383 3.958-10.677 6.536-15.735 3.683-7.228 1.592-15.968-4.97-20.78l-8.731-6.404c-.469-.344-.597-.797-.621-1.118-.024-.32.033-.788.444-1.199l32.836-32.836c.412-.411.887-.465 1.199-.444.32.024.774.152 1.118.621l6.404 8.732c4.812 6.562 13.553 8.651 20.781 4.969 5.06-2.578 10.354-4.777 15.733-6.535 7.755-2.535 12.486-10.204 11.252-18.234l-1.644-10.688c-.089-.575.143-.986.352-1.23.209-.243.58-.534 1.161-.534h46.438c.581 0 .952.291 1.161.534.209.244.44.655.352 1.23l-1.642 10.687c-1.234 8.031 3.497 15.699 11.252 18.234 5.38 1.758 10.674 3.957 15.733 6.535 7.229 3.684 15.969 1.594 20.781-4.969l6.404-8.731c.344-.469.798-.597 1.117-.621.321-.026.789.032 1.199.443l32.837 32.836c.411.412.469.88.444 1.2-.024.32-.152.773-.621 1.117l-8.731 6.405c-6.562 4.813-8.652 13.553-4.969 20.78 2.578 5.061 4.777 10.354 6.535 15.733 2.533 7.755 10.196 12.486 18.233 11.252l10.688-1.644c.571-.093.985.142 1.229.351s.534.58.534 1.162v32.369h-57.938c.353-3.033.552-6.091.552-9.15 0-43.213-35.157-78.37-78.371-78.37-4.143 0-7.5 3.358-7.5 7.5s3.357 7.5 7.5 7.5c34.943 0 63.371 28.428 63.371 63.37 0 3.064-.226 6.131-.662 9.15h-24.984c-9.138 0-16.572 7.434-16.572 16.572v34.03c-6.769 2.4-13.869 3.619-21.153 3.619-34.942 0-63.37-28.428-63.37-63.371 0-22.077 11.214-42.219 29.996-53.881 3.519-2.185 4.601-6.809 2.416-10.328-2.186-3.519-6.81-4.6-10.328-2.416-23.221 14.417-37.084 39.323-37.084 66.624 0 43.214 35.156 78.371 78.37 78.371 7.226 0 14.305-.992 21.153-2.91v60.296h-44.368zm59.372 71.924v-181.959c0-.867.705-1.572 1.572-1.572h83.538v59.662c0 7.224 5.877 13.101 13.101 13.101h39.92c7.224 0 13.101-5.877 13.101-13.101v-59.662h83.538c.867 0 1.572.705 1.572 1.572v15.175h-44.589c-4.143 0-7.5 3.358-7.5 7.5s3.357 7.5 7.5 7.5h44.589v27.531h-38.738c-4.143 0-7.5 3.358-7.5 7.5s3.357 7.5 7.5 7.5h38.738v109.253z"/><path d="m49.444 435.219c0 14.615 11.89 26.505 26.505 26.505s26.505-11.89 26.505-26.505-11.891-26.505-26.505-26.505-26.505 11.89-26.505 26.505zm38.011 0c0 6.344-5.161 11.505-11.505 11.505s-11.505-5.161-11.505-11.505 5.161-11.505 11.505-11.505c6.343 0 11.505 5.161 11.505 11.505z"/><path d="m121.464 435.219c0 14.615 11.89 26.505 26.505 26.505s26.505-11.89 26.505-26.505-11.89-26.505-26.505-26.505-26.505 11.89-26.505 26.505zm38.01 0c0 6.344-5.161 11.505-11.505 11.505s-11.505-5.161-11.505-11.505 5.161-11.505 11.505-11.505 11.505 5.161 11.505 11.505z"/><path d="m193.485 435.219c0 14.615 11.89 26.505 26.505 26.505s26.505-11.89 26.505-26.505-11.89-26.505-26.505-26.505-26.505 11.89-26.505 26.505zm38.01 0c0 6.344-5.161 11.505-11.505 11.505s-11.505-5.161-11.505-11.505 5.161-11.505 11.505-11.505 11.505 5.161 11.505 11.505z"/><path d="m265.504 435.219c0 14.615 11.891 26.505 26.506 26.505s26.505-11.89 26.505-26.505-11.89-26.505-26.505-26.505-26.506 11.89-26.506 26.505zm38.011 0c0 6.344-5.161 11.505-11.505 11.505-6.345 0-11.506-5.161-11.506-11.505s5.161-11.505 11.506-11.505c6.344 0 11.505 5.161 11.505 11.505z"/><path d="m390.535 435.219c0-14.615-11.89-26.505-26.505-26.505s-26.505 11.89-26.505 26.505 11.89 26.505 26.505 26.505 26.505-11.89 26.505-26.505zm-38.01 0c0-6.344 5.161-11.505 11.505-11.505s11.505 5.161 11.505 11.505-5.161 11.505-11.505 11.505-11.505-5.161-11.505-11.505z"/><path d="m462.555 435.219c0-14.615-11.89-26.505-26.505-26.505s-26.505 11.89-26.505 26.505 11.89 26.505 26.505 26.505 26.505-11.89 26.505-26.505zm-38.01 0c0-6.344 5.161-11.505 11.505-11.505s11.505 5.161 11.505 11.505-5.161 11.505-11.505 11.505-11.505-5.161-11.505-11.505z"/><path d="m354.761 305.264h-43.057c-4.143 0-7.5 3.358-7.5 7.5s3.357 7.5 7.5 7.5h43.057c4.143 0 7.5-3.358 7.5-7.5s-3.357-7.5-7.5-7.5z"/><path d="m352.551 341.431h-38.95c-4.143 0-7.5 3.358-7.5 7.5s3.357 7.5 7.5 7.5h38.95c4.143 0 7.5-3.358 7.5-7.5s-3.357-7.5-7.5-7.5z"/><path d="m49.605 357.618h79.359c4.143 0 7.5-3.358 7.5-7.5s-3.357-7.5-7.5-7.5h-79.359c-4.142 0-7.5 3.358-7.5 7.5s3.358 7.5 7.5 7.5z"/><path d="m49.605 324.38h31.467c4.143 0 7.5-3.358 7.5-7.5s-3.357-7.5-7.5-7.5h-31.467c-4.142 0-7.5 3.358-7.5 7.5s3.358 7.5 7.5 7.5z"/></g></g><g/><g/><g/><g/><g/><g/><g/><g/><g/><g/><g/><g/><g/><g/><g/></svg>