<svg id="Capa_1" enable-background="new 0 0 512 512" height="512" viewBox="0 0 512 512" width="512" xmlns="http://www.w3.org/2000/svg"><g><path d="m496.419 130.74h-480.838c-4.463 0-8.081-3.618-8.081-8.081v-16.163c0-4.463 3.618-8.081 8.081-8.081h480.837c4.463 0 8.081 3.618 8.081 8.081v16.163c.001 4.463-3.617 8.081-8.08 8.081z" fill="#7a6d79"/><path d="m23.663 130.74h464.675v341.435h-464.675z" fill="#eaf6ff"/><path d="m458.033 130.74h30.305v341.435h-30.305z" fill="#d8ecfe"/><path d="m247.919 401.463v-167.687h210.114v167.687c0 5.579-4.523 10.102-10.102 10.102h-189.911c-5.579 0-10.101-4.523-10.101-10.102z" fill="#60b7ff"/><path d="m427.728 233.776v167.687c0 5.579-4.523 10.102-10.102 10.102h30.305c5.579 0 10.102-4.523 10.102-10.102v-167.687z" fill="#26a6fe"/><path d="m247.919 233.776v-20.203c0-5.579 4.523-10.102 10.102-10.102h189.911c5.579 0 10.102 4.523 10.102 10.102v20.203z" fill="#d77f4a"/><path d="m447.931 203.472h-30.305c5.579 0 10.102 4.523 10.102 10.102v20.203h30.305v-20.203c0-5.58-4.523-10.102-10.102-10.102z" fill="#c86d36"/><path d="m53.967 472.175v-258.602c0-5.579 4.523-10.102 10.102-10.102h141.423c5.579 0 10.102 4.523 10.102 10.102v258.602z" fill="#d77f4a"/><path d="m205.492 203.472h-30.305c5.579 0 10.102 4.523 10.102 10.102v258.602h30.305v-258.603c-.001-5.579-4.523-10.101-10.102-10.101z" fill="#c86d36"/><path d="m84.272 306.508v-64.65c0-4.463 3.618-8.081 8.081-8.081h84.854c4.463 0 8.081 3.618 8.081 8.081v64.65c0 4.463-3.618 8.081-8.081 8.081h-84.853c-4.464 0-8.082-3.618-8.082-8.081z" fill="#c4e2ff"/><path d="m496.419 98.415h-32.325c4.463 0 8.081 3.618 8.081 8.081v16.163c0 4.463-3.618 8.081-8.081 8.081h32.325c4.463 0 8.081-3.618 8.081-8.081v-16.163c0-4.463-3.618-8.081-8.081-8.081z" fill="#685e68"/><path d="m496.419 504.5h-480.838c-4.463 0-8.081-3.618-8.081-8.081v-16.163c0-4.463 3.618-8.081 8.081-8.081h480.837c4.463 0 8.081 3.618 8.081 8.081v16.163c.001 4.463-3.617 8.081-8.08 8.081z" fill="#7a6d79"/><path d="m496.419 472.175h-32.325c4.463 0 8.081 3.618 8.081 8.081v16.163c0 4.463-3.618 8.081-8.081 8.081h32.325c4.463 0 8.081-3.618 8.081-8.081v-16.163c0-4.463-3.618-8.081-8.081-8.081z" fill="#685e68"/><path d="m346.537 161.045h-181.83c-11.158 0-20.203-9.045-20.203-20.203v-113.139c0-11.158 9.045-20.203 20.203-20.203h181.829c11.158 0 20.203 9.045 20.203 20.203v113.138c.001 11.158-9.044 20.204-20.202 20.204z" fill="#ffe177"/><path d="m346.537 7.5h-30.305c11.158 0 20.203 9.045 20.203 20.203v113.138c0 11.158-9.045 20.203-20.203 20.203h30.305c11.158 0 20.203-9.045 20.203-20.203v-113.138c0-11.158-9.045-20.203-20.203-20.203z" fill="#ffd15b"/><g><path d="m323.579 84.265c7.457-4.129 12.507-12.079 12.507-21.207 0-13.386-10.857-24.243-24.243-24.243s-24.243 10.857-24.243 24.243c0 1.729.186 3.414.536 5.05h-65.027c.35-1.636.536-3.322.536-5.05 0-13.386-10.857-24.243-24.243-24.243s-24.243 10.857-24.243 24.243c0 9.129 5.05 17.079 12.507 21.207-7.457 4.143-12.507 12.093-12.507 21.222 0 13.386 10.85 24.236 24.243 24.243 13.386 0 24.243-10.857 24.243-24.243 0-1.743-.186-3.429-.529-5.057h65.012c-.343 1.629-.529 3.314-.529 5.057 0 13.386 10.857 24.243 24.243 24.243 13.393-.007 24.243-10.857 24.243-24.243.001-9.129-5.049-17.079-12.506-21.222z" fill="#eaf6ff"/><path d="m323.579 84.265c8.058-4.461 13.305-13.384 12.408-23.434-1.065-11.931-10.994-21.417-22.959-21.988-6.192-.296-11.901 1.74-16.337 5.299 5.539 4.444 9.091 11.265 9.091 18.916 0 4.108-1.023 7.978-2.828 11.368-3.298 6.195-3.3 13.493-.002 19.688 1.806 3.392 2.83 7.263 2.83 11.373 0 7.653-3.551 14.473-9.091 18.916 4.151 3.331 9.418 5.328 15.153 5.328 13.393-.007 24.243-10.857 24.243-24.243-.001-9.13-5.051-17.08-12.508-21.223z" fill="#d8ecfe"/></g><path d="m268.93 275.799c-11.604 0-21.011-9.407-21.011-21.011v-21.011h42.023v21.011c-.001 11.604-9.408 21.011-21.012 21.011z" fill="#fd8087"/><path d="m310.953 275.799c-11.604 0-21.011-9.407-21.011-21.011v-21.011h42.023v21.011c-.001 11.604-9.408 21.011-21.012 21.011z" fill="#eaf6ff"/><path d="m352.976 275.799c-11.604 0-21.011-9.407-21.011-21.011v-21.011h42.023v21.011c-.001 11.604-9.408 21.011-21.012 21.011z" fill="#fd8087"/><path d="m394.998 275.799c-11.604 0-21.011-9.407-21.011-21.011v-21.011h42.023v21.011c0 11.604-9.407 21.011-21.012 21.011z" fill="#eaf6ff"/><path d="m437.021 275.799c-11.604 0-21.011-9.407-21.011-21.011v-21.011h42.023v21.011c0 11.604-9.408 21.011-21.012 21.011z" fill="#fd8087"/><path d="m427.728 233.776v39.834c2.805 1.388 5.952 2.188 9.293 2.188 11.604 0 21.011-9.407 21.011-21.011v-21.011z" fill="#fe646f"/><g><g><path d="m352.976 376.37-5.797 1.849c-5.426 1.731-11.364.288-15.391-3.739-5.945-5.945-5.945-15.584 0-21.529l15.665-15.665c1.465-1.465 3.451-2.287 5.522-2.287 2.071 0 4.058.823 5.522 2.287l15.665 15.665c5.945 5.945 5.945 15.584 0 21.529-4.027 4.027-9.965 5.469-15.391 3.739z" fill="#eaf6ff"/></g></g><g><path d="m177.208 226.276h-84.854c-8.591 0-15.581 6.989-15.581 15.581v64.65c0 8.592 6.99 15.582 15.581 15.582h84.854c8.591 0 15.581-6.99 15.581-15.582v-64.65c0-8.591-6.99-15.581-15.581-15.581zm.581 80.232c0 .321-.261.582-.581.582h-84.854c-.32 0-.581-.261-.581-.582v-64.65c0-.32.261-.581.581-.581h84.854c.32 0 .581.261.581.581z"/><path d="m258.021 195.972c-9.706 0-17.602 7.896-17.602 17.602v187.891c0 9.705 7.896 17.602 17.602 17.602h189.91c9.706 0 17.602-7.896 17.602-17.602v-187.892c0-9.705-7.896-17.602-17.602-17.602h-189.91zm-2.603 45.304h27.023v13.512c0 7.45-6.061 13.511-13.511 13.511s-13.512-6.061-13.512-13.511zm195.115 160.188c0 1.435-1.167 2.602-2.602 2.602h-189.91c-1.435 0-2.602-1.167-2.602-2.602v-121.577c4.024 2.175 8.626 3.412 13.512 3.412 8.308 0 15.795-3.574 21.011-9.262 5.216 5.689 12.703 9.262 21.011 9.262s15.796-3.574 21.012-9.262c5.216 5.689 12.703 9.262 21.011 9.262s15.795-3.574 21.011-9.262c5.216 5.689 12.704 9.262 21.012 9.262s15.795-3.574 21.011-9.262c5.216 5.689 12.703 9.262 21.011 9.262 4.886 0 9.488-1.237 13.512-3.412zm-153.092-146.676v-13.512h27.023v13.512c0 7.45-6.062 13.511-13.512 13.511s-13.511-6.061-13.511-13.511zm42.023 0v-13.512h27.022v13.512c0 7.45-6.061 13.511-13.511 13.511s-13.511-6.061-13.511-13.511zm42.023 0v-13.512h27.023v13.512c0 7.45-6.061 13.511-13.511 13.511s-13.512-6.061-13.512-13.511zm69.046 0c0 7.45-6.062 13.511-13.512 13.511s-13.511-6.061-13.511-13.511v-13.512h27.023zm0-41.215v12.703h-195.115v-12.703c0-1.435 1.167-2.602 2.602-2.602h189.91c1.435.001 2.603 1.168 2.603 2.602z"/><path d="m311.843 31.314c-16.68 0-30.396 12.931-31.649 29.294h-49.143c-1.254-16.363-14.97-29.294-31.649-29.294-17.503 0-31.743 14.24-31.743 31.743 0 7.949 2.979 15.474 8.136 21.213-5.157 5.746-8.136 13.271-8.136 21.217 0 17.494 14.238 31.733 31.743 31.742 16.682 0 30.399-12.934 31.65-29.3h49.142c1.25 16.366 14.968 29.3 31.654 29.3 17.501-.009 31.739-14.248 31.739-31.742 0-7.945-2.979-15.471-8.136-21.216 5.157-5.74 8.136-13.265 8.136-21.214-.001-17.502-14.241-31.743-31.744-31.743zm8.094 59.508c5.335 2.963 8.649 8.583 8.649 14.665 0 9.227-7.513 16.737-16.743 16.742-9.232 0-16.743-7.511-16.743-16.742 0-1.171.124-2.353.368-3.514.465-2.211-.091-4.515-1.516-6.27-1.424-1.755-3.563-2.774-5.824-2.774h-65.013c-2.26 0-4.4 1.02-5.824 2.774-1.424 1.755-1.981 4.059-1.516 6.27.244 1.161.368 2.343.368 3.514 0 9.231-7.511 16.742-16.739 16.742-9.234-.005-16.747-7.516-16.747-16.742 0-6.082 3.314-11.702 8.649-14.665 2.383-1.324 3.86-3.836 3.858-6.562s-1.482-5.236-3.867-6.557c-5.33-2.951-8.64-8.563-8.64-14.646 0-9.232 7.511-16.743 16.743-16.743s16.743 7.511 16.743 16.743c0 1.164-.125 2.335-.37 3.481-.474 2.214.078 4.524 1.502 6.285s3.567 2.784 5.832 2.784h65.026c2.264 0 4.407-1.022 5.831-2.783s1.977-4.07 1.503-6.284c-.246-1.148-.37-2.32-.37-3.483 0-9.232 7.511-16.743 16.743-16.743s16.743 7.511 16.743 16.743c0 6.084-3.311 11.696-8.64 14.646-2.385 1.32-3.865 3.83-3.867 6.557.001 2.726 1.478 5.238 3.861 6.562z"/><path d="m488.34 189c4.142 0 7.5-3.357 7.5-7.5v-43.26h.579c8.592 0 15.582-6.99 15.582-15.582v-16.162c0-8.592-6.99-15.581-15.582-15.581h-122.179v-63.212c0-15.275-12.428-27.703-27.703-27.703h-181.829c-15.275 0-27.703 12.428-27.703 27.703v63.207h-47.505c-4.142 0-7.5 3.357-7.5 7.5s3.358 7.5 7.5 7.5h47.504v17.33h-121.424c-.32 0-.58-.26-.58-.58v-16.16c0-.325.26-.59.58-.59h38.92c4.142 0 7.5-3.357 7.5-7.5s-3.358-7.5-7.5-7.5h-38.92c-8.591 0-15.58 6.993-15.58 15.59v16.16c0 8.591 6.989 15.58 15.58 15.58h.583v326.43h-.583c-8.591 0-15.58 6.993-15.58 15.59v16.16c0 8.591 6.989 15.58 15.58 15.58h319.9c4.142 0 7.5-3.357 7.5-7.5s-3.358-7.5-7.5-7.5h-319.9c-.32 0-.58-.26-.58-.58v-16.16c0-.325.26-.59.58-.59h7.986c.033 0 .064.005.097.005s.064-.004.097-.005h472.66c.32 0 .58.265.58.59v16.16c0 .32-.26.58-.58.58h-125.94c-4.142 0-7.5 3.357-7.5 7.5s3.358 7.5 7.5 7.5h125.94c8.591 0 15.58-6.989 15.58-15.58v-16.16c0-8.597-6.989-15.59-15.58-15.59h-.58v-248.17c0-4.143-3.358-7.5-7.5-7.5s-7.5 3.357-7.5 7.5v248.17h-257.747v-251.097c0-9.705-7.896-17.602-17.602-17.602h-141.422c-9.706 0-17.602 7.896-17.602 17.602v251.097h-15.304v-326.43h105.842v2.602c0 15.275 12.428 27.703 27.703 27.703h181.829c15.276 0 27.704-12.428 27.704-27.703v-2.602h106.6v43.26c-.001 4.143 3.357 7.5 7.499 7.5zm-426.873 24.573c0-1.435 1.167-2.602 2.602-2.602h141.422c1.435 0 2.602 1.167 2.602 2.602v251.097h-146.626zm297.773-72.731c0 7.005-5.699 12.703-12.704 12.703h-181.828c-7.004 0-12.703-5.698-12.703-12.703v-113.139c0-7.005 5.699-12.703 12.703-12.703h181.829c7.005 0 12.704 5.698 12.704 12.703v113.139zm15-17.602v-17.325h122.178c.321 0 .582.261.582.581v16.162c0 .321-.261.582-.582.582z"/><path d="m363.8 331.981c-2.893-2.891-6.736-4.482-10.824-4.482s-7.932 1.592-10.826 4.483l-15.665 15.665c-8.86 8.86-8.86 23.276 0 32.136 4.34 4.341 10.109 6.666 16.032 6.666 2.315 0 4.655-.355 6.941-1.085l3.518-1.122 3.517 1.121c8.133 2.598 16.937.459 22.975-5.58 8.859-8.859 8.859-23.275 0-32.136zm5.06 37.196c-2.052 2.053-5.043 2.778-7.809 1.896l-5.797-1.849c-1.482-.473-3.075-.473-4.558 0l-5.798 1.85c-2.764.881-5.755.155-7.807-1.897-3.011-3.011-3.011-7.911 0-10.923l15.663-15.663c.059-.059.139-.092.221-.092s.162.033.219.091l15.665 15.664c3.012 3.012 3.012 7.912.001 10.923z"/><circle cx="313.45" cy="325.919" r="7.5"/><circle cx="337.068" cy="306.508" r="7.5"/><circle cx="368.883" cy="306.508" r="7.5"/><circle cx="392.501" cy="325.919" r="7.5"/></g></g></svg>