<svg id="Capa_1" enable-background="new 0 0 512 512" height="512" viewBox="0 0 512 512" width="512" xmlns="http://www.w3.org/2000/svg"><g><g><path d="m467.094 397.314h-140.374c-5.501 0-9.96-4.459-9.96-9.96v-140.374c0-5.501 4.459-9.96 9.96-9.96h140.374c5.501 0 9.96 4.459 9.96 9.96v140.374c0 5.501-4.459 9.96-9.96 9.96z" fill="#fcb72d"/><path d="m412.073 295.226h-30.333c-2.75 0-4.98-2.23-4.98-4.98v-53.226h40.293v53.226c0 2.751-2.229 4.98-4.98 4.98z" fill="#e33c53"/><path d="m477.051 246.985v140.365c0 5.508-4.452 9.96-9.96 9.96h-27.9c5.498 0 9.96-4.452 9.96-9.96v-140.365c0-5.508-4.462-9.96-9.96-9.96h27.9c5.507 0 9.96 4.452 9.96 9.96z" fill="#fb9927"/></g><g><path d="m467.094 237.02h-140.374c-5.501 0-9.96-4.459-9.96-9.96v-140.374c0-5.501 4.459-9.96 9.96-9.96h140.374c5.501 0 9.96 4.459 9.96 9.96v140.374c0 5.501-4.459 9.96-9.96 9.96z" fill="#fdc83a"/><path d="m477.051 86.691v140.375c0 5.498-4.452 9.96-9.96 9.96h-27.9c5.498 0 9.96-4.462 9.96-9.96v-140.375c0-5.508-4.462-9.96-9.96-9.96h27.9c5.507 0 9.96 4.452 9.96 9.96z" fill="#fcb72d"/></g><g><g><g><path d="m424.847 387.501h-92.936c-3.583 0-6.487-2.904-6.487-6.487v-45.912c0-3.583 2.904-6.487 6.487-6.487h92.936c3.583 0 6.487 2.904 6.487 6.487v45.912c0 3.582-2.904 6.487-6.487 6.487z" fill="#7da2b0"/><path d="m431.333 335.102v45.909c0 3.587-2.9 6.487-6.487 6.487h-29.948c3.581 0 6.487-2.9 6.487-6.487v-45.909c0-3.581-2.906-6.487-6.487-6.487h29.948c3.587 0 6.487 2.906 6.487 6.487z" fill="#688d97"/></g><g><g><g><path d="m382.75 328.615h-92.936c-3.583 0-6.487-2.904-6.487-6.487v-45.912c0-3.583 2.904-6.487 6.487-6.487h92.936c3.583 0 6.487 2.904 6.487 6.487v45.912c0 3.582-2.904 6.487-6.487 6.487z" fill="#a9d3d8"/><path d="m389.236 276.216v45.909c0 3.587-2.9 6.487-6.487 6.487h-29.948c3.581 0 6.487-2.9 6.487-6.487v-45.909c0-3.581-2.906-6.487-6.487-6.487h29.948c3.587 0 6.487 2.906 6.487 6.487z" fill="#90bac4"/></g><g><path d="m392.104 446.386h-92.936c-3.583 0-6.487-2.904-6.487-6.487v-45.912c0-3.583 2.904-6.487 6.487-6.487h92.936c3.583 0 6.487 2.904 6.487 6.487v45.912c0 3.583-2.904 6.487-6.487 6.487z" fill="#90bac4"/><g><path d="m392.1 394.999h.01z"/></g></g><g><path d="m498.013 446.386h-92.936c-3.583 0-6.487-2.904-6.487-6.487v-45.912c0-3.583 2.904-6.487 6.487-6.487h92.936c3.583 0 6.487 2.904 6.487 6.487v45.912c0 3.583-2.904 6.487-6.487 6.487z" fill="#7da2b0"/><path d="m504.499 393.988v45.909c0 3.587-2.9 6.487-6.487 6.487h-29.948c3.581 0 6.487-2.9 6.487-6.487v-45.909c0-3.581-2.906-6.487-6.487-6.487h29.948c3.587 0 6.487 2.906 6.487 6.487z" fill="#688d97"/></g></g><g><g><path d="m25.253 83.489h233.676v345.019h-233.676z" fill="#e8576b"/><path d="m25.253 83.489v36.53h197.609v55.203h-197.609v36.53h197.609v133.727h-197.609v36.53h197.609v46.499h36.067v-345.019z" fill="#e33c53"/><g><g><g><g><path d="m272.037 92.526h-259.893c-2.565 0-4.644-2.079-4.644-4.644v-17.627c0-2.565 2.079-4.644 4.644-4.644h259.893c2.565 0 4.644 2.079 4.644 4.644v17.627c0 2.565-2.079 4.644-4.644 4.644z" fill="#ee7382"/></g><g><path d="m276.682 70.257v17.62c0 2.573-2.081 4.644-4.644 4.644h-37.182c2.573 0 4.644-2.071 4.644-4.644v-17.62c0-2.564-2.071-4.644-4.644-4.644h37.182c2.564 0 4.644 2.081 4.644 4.644z" fill="#e8576b"/></g></g><g><g><path d="m272.037 183.982h-259.893c-2.565 0-4.644-2.079-4.644-4.644v-17.627c0-2.565 2.079-4.644 4.644-4.644h259.893c2.565 0 4.644 2.079 4.644 4.644v17.627c0 2.565-2.079 4.644-4.644 4.644z" fill="#ee7382"/></g><g><path d="m276.682 161.713v17.62c0 2.573-2.081 4.644-4.644 4.644h-37.182c2.573 0 4.644-2.071 4.644-4.644v-17.62c0-2.564-2.071-4.644-4.644-4.644h37.182c2.564 0 4.644 2.081 4.644 4.644z" fill="#e8576b"/></g></g></g><g><g><g><path d="m272.037 354.93h-259.893c-2.565 0-4.644-2.079-4.644-4.644v-17.627c0-2.565 2.079-4.644 4.644-4.644h259.893c2.565 0 4.644 2.079 4.644 4.644v17.627c0 2.565-2.079 4.644-4.644 4.644z" fill="#ee7382"/></g><g><path d="m276.682 332.661v17.62c0 2.573-2.081 4.644-4.644 4.644h-37.182c2.573 0 4.644-2.071 4.644-4.644v-17.62c0-2.564-2.071-4.644-4.644-4.644h37.182c2.564 0 4.644 2.081 4.644 4.644z" fill="#e8576b"/></g></g><g><g><path d="m272.037 446.386h-259.893c-2.565 0-4.644-2.079-4.644-4.644v-17.627c0-2.565 2.079-4.644 4.644-4.644h259.893c2.565 0 4.644 2.079 4.644 4.644v17.627c0 2.565-2.079 4.644-4.644 4.644z" fill="#ee7382"/></g><g><path d="m276.682 424.117v17.62c0 2.573-2.081 4.644-4.644 4.644h-37.182c2.573 0 4.644-2.071 4.644-4.644v-17.62c0-2.564-2.071-4.644-4.644-4.644h37.182c2.564 0 4.644 2.081 4.644 4.644z" fill="#e8576b"/></g></g></g></g></g><g><g><g><g><path d="m361.146 446.384c7.419 0 12.699-7.216 10.439-14.282-15.093-47.196-67-195.161-124.521-195.161-56.817 0-107.374 148.146-122.013 195.248-2.191 7.049 3.085 14.197 10.466 14.197z" fill="#dc7f69"/></g><path d="m247.065 236.94c-2.701 0-5.388.337-8.058.98 47.886 37.59 87.861 152.12 101.061 193.423 2.389 7.444-3.174 15.038-10.987 15.038h32.112c7.394-.03 12.648-7.228 10.393-14.28-15.094-47.195-67-195.161-124.521-195.161z" fill="#d46a50"/></g></g><g><g><path d="m241.306 446.386s-41.308-95.755-88.043-95.755c-34.206 0-65.089 52.637-78.774 79.859-3.669 7.299 1.645 15.897 9.814 15.897z" fill="#e9a999"/></g><g><path d="m241.311 446.383h-36.488s-35.686-82.723-76.06-82.723c-2.426 0-4.83.307-7.212.889 9.901-8.397 20.637-13.919 31.713-13.919 46.729.001 88.047 95.753 88.047 95.753z" fill="#e39382"/></g></g><g><g><path d="m302.587 446.386s-33.179-64.22-70.717-64.22c-37.057 0-69.258 64.22-69.258 64.22z" fill="#dc7f69"/></g><g><path d="m302.585 446.383h-36.345s-28.189-54.556-60.121-54.698c8.035-5.73 16.751-9.517 25.752-9.517 37.541 0 70.714 64.215 70.714 64.215z" fill="#d46a50"/></g></g><g id="XMLID_00000103958857048847906280000003963296448114490002_"><path d="m249.357 345.808c-4.142 0-7.5-3.315-7.5-7.458v-.085c0-4.142 3.358-7.5 7.5-7.5s7.5 3.358 7.5 7.5-3.358 7.543-7.5 7.543z"/></g><g id="XMLID_00000046316870717057668410000018416884127839395230_"><path d="m113.217 425.011c-4.142 0-7.5-3.315-7.5-7.458v-.084c0-4.142 3.358-7.5 7.5-7.5s7.5 3.358 7.5 7.5-3.358 7.542-7.5 7.542z"/></g><g id="XMLID_00000027565974827369419430000010670978324209706391_"><path d="m134.688 432.254c-4.142 0-7.5-3.315-7.5-7.458v-.085c0-4.142 3.358-7.5 7.5-7.5s7.5 3.358 7.5 7.5-3.357 7.543-7.5 7.543z"/></g><g id="XMLID_00000016054587412036028080000006135065197773268106_"><path d="m221.631 358.131c-4.142 0-7.5-3.315-7.5-7.458v-.084c0-4.142 3.358-7.5 7.5-7.5s7.5 3.358 7.5 7.5-3.358 7.542-7.5 7.542z"/></g><g id="XMLID_00000017476172028839686760000010423491448310466700_"><path d="m218.788 426.973c-4.142 0-7.5-3.316-7.5-7.458v-.084c0-4.142 3.358-7.5 7.5-7.5s7.5 3.358 7.5 7.5-3.358 7.542-7.5 7.542z"/></g><g id="XMLID_00000138543568310581734770000005274210811136182708_"><path d="m254.352 274.291c-4.142 0-7.5-3.315-7.5-7.458v-.085c0-4.142 3.358-7.5 7.5-7.5s7.5 3.358 7.5 7.5-3.358 7.543-7.5 7.543z"/></g><g id="XMLID_00000121258868322260843520000010976966499936277388_"><path d="m311.386 410.612c-4.142 0-7.5-3.315-7.5-7.458v-.084c0-4.142 3.358-7.5 7.5-7.5s7.5 3.358 7.5 7.5-3.358 7.542-7.5 7.542z"/></g></g></g></g></g><g><path d="m88.852 226.423-19.949 34.8c-1.903 3.32.494 7.457 4.32 7.457h39.899c3.827 0 6.224-4.137 4.32-7.457l-19.949-34.8c-1.914-3.337-6.728-3.337-8.641 0z" fill="#27cc81"/><g><path d="m113.122 276.18h-39.899c-4.503 0-8.541-2.327-10.798-6.223-2.258-3.897-2.269-8.556-.029-12.464l19.949-34.799c2.218-3.87 6.367-6.274 10.827-6.274s8.609 2.404 10.827 6.274l19.95 34.799c2.24 3.908 2.229 8.568-.029 12.464-2.258 3.897-6.295 6.223-10.798 6.223zm-35.55-15h31.201l-15.601-27.212zm17.787-31.026-.002.004c0-.002.001-.003.002-.004zm-6.507-3.73h.01z"/></g><g><path d="m118.109 304.662h-49.873c-4.142 0-7.5-3.358-7.5-7.5s3.358-7.5 7.5-7.5h49.874c4.142 0 7.5 3.358 7.5 7.5s-3.359 7.5-7.501 7.5z"/></g></g></g><g><path d="m412.073 134.932h-30.333c-2.75 0-4.98-2.23-4.98-4.98v-53.226h40.293v53.226c0 2.751-2.229 4.98-4.98 4.98z" fill="#e33c53"/><path d="m498.013 380.001h-13.459v-133.021c0-3.702-1.166-7.132-3.139-9.96 1.973-2.828 3.139-6.258 3.139-9.96v-140.374c0-9.627-7.833-17.46-17.46-17.46h-140.374c-9.627 0-17.46 7.833-17.46 17.46v31.68c0 4.142 3.358 7.5 7.5 7.5s7.5-3.358 7.5-7.5v-31.68c0-1.356 1.104-2.46 2.46-2.46h42.541v45.726c0 6.881 5.599 12.48 12.48 12.48h30.333c6.881 0 12.479-5.599 12.479-12.48v-45.726h42.541c1.356 0 2.46 1.104 2.46 2.46v140.374c0 1.356-1.104 2.46-2.46 2.46h-140.374c-1.356 0-2.46-1.104-2.46-2.46v-75.532c0-4.142-3.358-7.5-7.5-7.5s-7.5 3.358-7.5 7.5v75.532c0 3.702 1.166 7.132 3.139 9.96-1.973 2.828-3.139 6.258-3.139 9.96v15.249h-9.609c-11.15-13.681-22.24-23.11-33.221-28.225v-42.522h5.607c6.696 0 12.144-5.448 12.144-12.144v-17.627c0-6.696-5.448-12.144-12.144-12.144h-5.607v-49.541h5.607c6.696 0 12.144-5.448 12.144-12.144v-17.627c0-6.696-5.448-12.144-12.144-12.144h-259.893c-6.696 0-12.144 5.448-12.144 12.144v17.627c0 6.696 5.448 12.144 12.144 12.144h5.606v49.541h-5.606c-6.696 0-12.144 5.448-12.144 12.144v17.627c0 6.696 5.448 12.144 12.144 12.144h5.606v129.033h-5.606c-6.696 0-12.144 5.448-12.144 12.144v17.626c0 6.696 5.448 12.145 12.145 12.145h5.605v49.538h-5.61c-6.694 0-12.14 5.451-12.14 12.15v17.62c0 6.7 5.446 12.15 12.14 12.15h379.96c2.343 0 4.549-.586 6.491-1.608 1.941 1.021 4.145 1.606 6.485 1.606h92.937c7.712 0 13.987-6.275 13.987-13.987v-45.912c0-7.712-6.274-13.986-13.987-13.986zm-88.46-252.569h-25.292v-43.206h25.292zm15 162.814v-45.726h42.541c1.356 0 2.46 1.104 2.46 2.46v133.021h-30.72v-44.899c0-7.712-6.275-13.987-13.987-13.987h-28.11v-18.388h15.336c6.882-.001 12.48-5.599 12.48-12.481zm-40.292-45.726h25.292v43.206h-12.816v-11.511c0-7.202-5.472-13.146-12.477-13.902v-17.793zm-60.001 2.46c0-1.356 1.104-2.46 2.46-2.46h42.541v17.708h-45v-15.248zm57.477 30.249v43.886h-45.949c-1.276-2.589-2.569-5.166-3.883-7.722-7.061-13.732-14.115-25.784-21.152-36.164zm-366.737-192.203v-11.915h254.181v11.915zm236.43 15v49.541h-218.68v-49.541zm-236.43 76.456v-11.915h254.181v11.915zm52.79 250.638c-1.871 3.721-2.406 7.839-1.646 11.769h-51.144v-11.92h52.867c-.025.049-.053.102-.077.151zm-35.04-15.151v-49.539h80.006c-14.761 13.783-27.412 32.769-36.888 49.538h-43.118zm51.55 26.92c-1.692 0-2.583-1.036-2.963-1.653-.379-.615-.903-1.872-.145-3.379 6.742-13.414 17.552-32.756 30.767-48.724 14.621-17.667 28.903-27.004 41.302-27.004 13.467 0 28.89 10.455 44.862 30.321-19.758 15.745-34.605 40.591-40.021 50.439zm91.091-.003c11.967-19.717 34.586-49.221 56.479-49.221 22.235 0 45.428 29.478 57.754 49.22zm188.551-1.422c-.387.531-1.265 1.42-2.796 1.42h-54.111c-8.368-14.806-39.005-64.219-75.165-64.219-7.344 0-14.436 2.09-21.144 5.527-15.283-19.31-30.469-31.139-45.331-35.335 8.477-19.208 17.037-36.004 25.49-49.993 2.142-3.545 1.004-8.155-2.541-10.298s-8.157-1.005-10.298 2.541c-5.963 9.869-11.961 21.05-17.933 33.407h-53.73c-4.142 0-7.5 3.358-7.5 7.5s3.358 7.5 7.5 7.5h46.753c-1.145 2.554-2.288 5.149-3.428 7.786-5.238.458-10.36 1.891-15.335 4.129h-119.373v-11.915h58.22c4.142 0 7.5-3.358 7.5-7.5s-3.358-7.5-7.5-7.5h-40.47v-129.032h218.68v38.21c-1.457-.156-2.913-.252-4.366-.252-16.294 0-32.905 9.975-49.371 29.647-2.658 3.176-2.239 7.907.938 10.565s7.907 2.239 10.565-.938c13.482-16.108 26.222-24.275 37.868-24.275 21.275 0 46 26.215 71.501 75.812 21.581 41.972 38.006 89.524 45.876 114.135.464 1.449-.113 2.55-.499 3.078zm27.148 1.425h-11.797c.567-2.967.397-6.066-.564-9.072-2.885-9.02-6.906-21.081-11.894-34.816h24.255zm-29.852-58.888c-5.337-13.929-11.495-28.935-18.335-43.886h80.931v43.886zm135.762 58.885h-90.91v-43.886h90.91z"/></g><g><path d="m359.037 212.725h-12.472c-4.142 0-7.5-3.358-7.5-7.5s3.358-7.5 7.5-7.5h12.472c4.142 0 7.5 3.358 7.5 7.5s-3.358 7.5-7.5 7.5z"/></g><g><path d="m359.037 188.741h-12.472c-4.142 0-7.5-3.358-7.5-7.5s3.358-7.5 7.5-7.5h12.472c4.142 0 7.5 3.358 7.5 7.5s-3.358 7.5-7.5 7.5z"/></g></g></svg>