<svg id="Capa_1" enable-background="new 0 0 512.004 512.004" height="512" viewBox="0 0 512.004 512.004" width="512" xmlns="http://www.w3.org/2000/svg"><g><g><g><path d="m154.622 274.464h-61.1v18.602c0 7.656 6.207 13.863 13.863 13.863h35.7c7.656 0 13.863-6.207 13.863-13.863v-18.712c-.766.069-1.541.11-2.326.11z" fill="#7b6c79"/></g><g><path d="m125.235 293.066v-18.602h-31.713v18.602c0 7.656 6.207 13.863 13.863 13.863h31.713c-7.656 0-13.863-6.206-13.863-13.863z" fill="#665e68"/></g><path d="m459.473 172.345h-15.713v124.009h15.713c10.026 0 18.23-8.203 18.23-18.23v-87.55c0-10.026-8.203-18.229-18.23-18.229z" fill="#60b9fe"/><path d="m459.473 252.182h-15.713v44.172h15.713c10.026 0 18.23-8.203 18.23-18.23v-44.172c0 10.027-8.203 18.23-18.23 18.23z" fill="#1ca8ff"/><path d="m348.314 23.958h-31.532c-7.176 0-13.048 5.871-13.048 13.048v65.66c0 7.176 5.871 13.048 13.048 13.048h31.532c7.176 0 13.048-5.872 13.048-13.048v-65.66c-.001-7.176-5.872-13.048-13.048-13.048z" fill="#60b9fe"/><path d="m332.548 102.666v-65.66c0-7.176 5.871-13.048 13.048-13.048h-28.814c-7.176 0-13.047 5.871-13.047 13.048v65.66c0 7.176 5.871 13.048 13.047 13.048h28.814c-7.177-.001-13.048-5.872-13.048-13.048z" fill="#1ca8ff"/><path d="m397.145 114.713c-1.468 0-173.669 0-247.984 0l-47.851 2.262c-19.672 6.226-33.932 24.622-33.932 46.353v90.3c0 14.269 11.567 25.835 25.835 25.835h61.409c14.269 0 25.835-11.567 25.835-25.835s11.567-25.835 25.835-25.835h100.552c14.269 0 25.835 11.567 25.835 25.835v138.483h113.08v-228.782c.001-26.85-21.765-48.616-48.614-48.616z" fill="#dbedff"/><path d="m102.677 253.629v-90.3c0-17.549 9.302-32.919 23.242-41.465v-6.051l-24.609 1.163c-19.672 6.226-33.932 24.622-33.932 46.353v90.3c0 14.269 11.567 25.835 25.835 25.835h35.299c-14.268 0-25.835-11.567-25.835-25.835z" fill="#b5dcff"/><path d="m342.144 227.793h-35.299c14.269 0 25.835 11.567 25.835 25.835v138.483h35.299v-138.482c0-14.269-11.567-25.836-25.835-25.836z" fill="#b5dcff"/><g><path d="m485.416 469.569v-57.03c0-12.939-10.489-23.428-23.428-23.428h-412.19c-12.939 0-23.428 10.489-23.428 23.428v57.03z" fill="#ff94d5"/></g><path d="m125.235 187.061c9.552 0 18.111 4.229 23.925 10.91v-87.607c0-7.176-5.871-13.048-13.048-13.048h-21.755c-7.176 0-13.048 5.871-13.048 13.048v87.607c5.815-6.681 14.374-10.91 23.926-10.91z" fill="#ffafe2"/><g><path d="m125.235 110.364c0-6.81 5.29-12.435 11.963-12.992-.359-.03-.719-.055-1.085-.055h-21.755c-7.176 0-13.048 5.871-13.048 13.048v87.607c5.814-6.681 14.373-10.91 23.925-10.91z" fill="#ff94d5"/></g><g fill="#b5dcff"><path d="m214.377 142.983h-10.113c-4.513 0-8.172 3.659-8.172 8.172v40.196c0 4.513 3.659 8.172 8.172 8.172h10.113c4.513 0 8.172-3.659 8.172-8.172v-40.196c0-4.513-3.659-8.172-8.172-8.172z"/><path d="m267.292 142.983h-10.113c-4.513 0-8.172 3.659-8.172 8.172v40.196c0 4.513 3.659 8.172 8.172 8.172h10.113c4.513 0 8.172-3.659 8.172-8.172v-40.196c.001-4.513-3.658-8.172-8.172-8.172z"/><path d="m320.208 142.983h-10.113c-4.513 0-8.172 3.659-8.172 8.172v40.196c0 4.513 3.659 8.172 8.172 8.172h10.113c4.513 0 8.172-3.659 8.172-8.172v-40.196c0-4.513-3.659-8.172-8.172-8.172z"/></g><path d="m214.377 173.143h-10.114c-4.513 0-8.172-3.659-8.172-8.172v26.38c0 4.513 3.659 8.172 8.172 8.172h10.114c4.513 0 8.172-3.659 8.172-8.172v-26.38c0 4.513-3.659 8.172-8.172 8.172z" fill="#8bcaff"/><path d="m267.292 173.143h-10.114c-4.513 0-8.172-3.659-8.172-8.172v26.38c0 4.513 3.659 8.172 8.172 8.172h10.114c4.513 0 8.172-3.659 8.172-8.172v-26.38c0 4.513-3.658 8.172-8.172 8.172z" fill="#8bcaff"/><path d="m320.208 173.143h-10.113c-4.513 0-8.172-3.659-8.172-8.172v26.38c0 4.513 3.659 8.172 8.172 8.172h10.113c4.513 0 8.172-3.659 8.172-8.172v-26.38c0 4.513-3.659 8.172-8.172 8.172z" fill="#8bcaff"/><ellipse cx="389.154" cy="234.349" fill="#b5dcff" rx="26.246" ry="26.246" transform="matrix(.099 -.995 .995 .099 117.598 598.517)"/><ellipse cx="389.154" cy="307.21" fill="#b5dcff" rx="17.416" ry="17.416" transform="matrix(.099 -.995 .995 .099 45.092 664.198)"/><path d="m383.324 234.349c0-10.874 6.614-20.204 16.038-24.186-3.138-1.326-6.587-2.059-10.208-2.059-14.495 0-26.246 11.75-26.246 26.246 0 14.495 11.751 26.246 26.246 26.246 3.621 0 7.07-.733 10.208-2.059-9.424-3.984-16.038-13.313-16.038-24.188z" fill="#8bcaff"/><path d="m389.154 307.21c0-6.443 3.507-12.054 8.708-15.067-2.564-1.485-5.532-2.349-8.708-2.349-9.619 0-17.416 7.797-17.416 17.416s7.798 17.416 17.416 17.416c3.176 0 6.144-.864 8.708-2.349-5.201-3.012-8.708-8.624-8.708-15.067z" fill="#8bcaff"/><circle cx="125.235" cy="216.774" fill="#ff72c7" r="31.713"/><path d="m125.235 216.774c0-11.736 6.38-21.976 15.857-27.46-4.666-2.7-10.078-4.253-15.857-4.253-17.514 0-31.713 14.198-31.713 31.713s14.198 31.713 31.713 31.713c5.779 0 11.191-1.553 15.857-4.253-9.476-5.485-15.857-15.724-15.857-27.46z" fill="#ff4fb9"/><path d="m103.464 389.111h-53.666c-12.939 0-23.428 10.489-23.428 23.428v57.03h53.667v-57.03c0-12.939 10.489-23.428 23.427-23.428z" fill="#ff72c7"/><path d="m486.894 466.569h-462.002c-7.735 0-14.005 6.27-14.005 14.005v9.786c0 7.735 6.27 14.005 14.005 14.005h462.001c7.735 0 14.005-6.27 14.005-14.005v-9.786c.001-7.734-6.27-14.005-14.004-14.005z" fill="#ff72c7"/><path d="m64.554 490.36v-9.786c0-7.735 6.271-14.005 14.005-14.005h-53.667c-7.734 0-14.005 6.27-14.005 14.005v9.786c0 7.735 6.271 14.005 14.005 14.005h53.667c-7.735.001-14.005-6.27-14.005-14.005z" fill="#ff4fb9"/></g><g><path d="m25.001 512.004h462.002c11.857 0 21.505-9.647 21.505-21.505v-9.786c0-9.766-6.55-18.018-15.482-20.631v-47.404c0-17.054-13.875-30.928-30.929-30.928h-8.728v-77.757h6.213c14.188 0 25.729-11.542 25.729-25.729v-26.734c0-4.142-3.357-7.5-7.5-7.5s-7.5 3.358-7.5 7.5v26.734c0 5.917-4.813 10.729-10.729 10.729h-6.213v-109.01h6.213c5.916 0 10.729 4.813 10.729 10.729v25.815c0 4.142 3.357 7.5 7.5 7.5s7.5-3.358 7.5-7.5v-25.815c0-14.188-11.542-25.729-25.729-25.729h-6.213c0-34.496-26.675-57.631-56.115-57.631h-29.065c.497-1.768.782-3.624.782-5.548v-64.66c0-11.33-9.218-20.548-20.548-20.548h-8.266v-9.096c0-4.142-3.357-7.5-7.5-7.5s-7.5 3.358-7.5 7.5v9.097h-8.267c-11.33 0-20.548 9.218-20.548 20.548v64.66c0 1.924.285 3.78.782 5.548h-140.622c-1.524-9.836-10.024-17.397-20.281-17.397h-21.755c-10.458 0-20.548 7.872-20.548 21.964-20.504 8.779-33.932 28.843-33.932 51.547v90.3c0 15.912 11.209 29.248 26.144 32.545v6.892c0 11.779 9.584 21.363 21.363 21.363h10.35v53.661c0 4.142 3.357 7.5 7.5 7.5s7.5-3.358 7.5-7.5v-53.661h10.351c11.779 0 21.363-9.583 21.363-21.363v-7.582c13.6-4.204 23.509-16.893 23.509-31.856 0-10.11 8.226-18.335 18.336-18.335h100.552c10.11 0 18.335 8.225 18.335 18.335v127.984h-63.1c-4.143 0-7.5 3.358-7.5 7.5s3.357 7.5 7.5 7.5h199.907c8.783 0 15.929 7.146 15.929 15.928v46.53h-444.046v-46.53c0-8.783 7.146-15.928 15.929-15.928h177.282c4.143 0 7.5-3.358 7.5-7.5s-3.357-7.5-7.5-7.5h-177.283c-17.054 0-30.929 13.875-30.929 30.928v47.404c-8.933 2.613-15.482 10.865-15.482 20.631v9.786c0 11.857 9.648 21.505 21.505 21.505zm286.342-474.859c0-3.059 2.488-5.548 5.548-5.548h31.532c3.06 0 5.548 2.489 5.548 5.548v64.66c0 3.059-2.488 5.548-5.548 5.548h-31.532c-3.06 0-5.548-2.489-5.548-5.548zm-202.424 73.357c0-3.059 2.488-5.547 5.548-5.547h21.755c3.06 0 5.548 2.488 5.548 5.547v70.808c-10.509-4.85-22.517-4.763-32.851 0 0-8.912 0-61.905 0-70.808zm17.722 82.232c12.805.682 22.917 11.333 22.917 24.178 0 13.351-10.862 24.213-24.214 24.213-13.351 0-24.213-10.862-24.213-24.213 0-13.805 11.641-24.924 25.51-24.178zm22.917 100.471c0 3.508-2.854 6.363-6.363 6.363h-35.7c-3.509 0-6.363-2.854-6.363-6.363v-6.102h48.427v6.102zm288.811 88.545h-98.08v-127.983c0-18.381-14.954-33.335-33.335-33.335h-100.552c-18.382 0-33.336 14.954-33.336 33.335 0 10.11-8.225 18.335-18.335 18.335h-61.1-.309c-10.11 0-18.335-8.225-18.335-18.335v-90.3c0-14.336 7.302-27.239 18.932-34.65v64.653c-4.856 6.505-7.788 14.755-7.788 23.442 0 21.622 17.591 39.213 39.213 39.213 21.623 0 39.214-17.591 39.214-39.213 0-8.106-2.576-16.461-7.788-23.442v-71.118h240.484c22.671 0 41.115 18.444 41.115 41.115zm-419.873 98.963c0-3.587 2.918-6.505 6.505-6.505h1.468.01 459.047.01 1.468c3.587 0 6.505 2.918 6.505 6.505v9.786c0 3.587-2.918 6.505-6.505 6.505h-462.003c-3.587 0-6.505-2.918-6.505-6.505z"/><path d="m214.485 135.622h-10.113c-8.642 0-15.672 7.031-15.672 15.672v40.196c0 8.642 7.03 15.672 15.672 15.672h10.113c8.642 0 15.673-7.03 15.673-15.672v-40.196c0-8.642-7.031-15.672-15.673-15.672zm.673 55.868c0 .371-.302.672-.673.672h-10.113c-.37 0-.672-.301-.672-.672v-40.196c0-.371.302-.672.672-.672h10.113c.371 0 .673.302.673.672z"/><path d="m267.401 135.622h-10.113c-8.642 0-15.673 7.031-15.673 15.672v40.196c0 8.642 7.031 15.672 15.673 15.672h10.113c8.642 0 15.672-7.03 15.672-15.672v-40.196c0-8.642-7.03-15.672-15.672-15.672zm.672 55.868c0 .371-.302.672-.672.672h-10.113c-.371 0-.673-.301-.673-.672v-40.196c0-.371.302-.672.673-.672h10.113c.37 0 .672.302.672.672z"/><path d="m320.316 135.622h-10.113c-8.642 0-15.672 7.031-15.672 15.672v40.196c0 8.642 7.03 15.672 15.672 15.672h10.113c8.642 0 15.673-7.03 15.673-15.672v-40.196c0-8.642-7.031-15.672-15.673-15.672zm.673 55.868c0 .371-.302.672-.673.672h-10.113c-.37 0-.672-.301-.672-.672v-40.196c0-.371.302-.672.672-.672h10.113c.371 0 .673.302.673.672z"/><path d="m389.263 200.742c-18.607 0-33.746 15.138-33.746 33.746s15.139 33.746 33.746 33.746 33.746-15.138 33.746-33.746-15.139-33.746-33.746-33.746zm0 52.491c-10.337 0-18.746-8.409-18.746-18.746s8.409-18.746 18.746-18.746 18.746 8.409 18.746 18.746-8.409 18.746-18.746 18.746z"/><path d="m389.263 282.432c-13.738 0-24.916 11.178-24.916 24.917s11.178 24.916 24.916 24.916 24.916-11.177 24.916-24.916-11.178-24.917-24.916-24.917zm0 34.833c-5.468 0-9.916-4.448-9.916-9.916s4.448-9.917 9.916-9.917 9.916 4.449 9.916 9.917-4.449 9.916-9.916 9.916z"/></g></g></svg>