<svg id="Capa_1" enable-background="new 0 0 511.997 511.997" height="512" viewBox="0 0 511.997 511.997" width="512" xmlns="http://www.w3.org/2000/svg"><g><g><path d="m291.159 501.393c-5.974-4.564-7.64-12.813-3.993-19.387 14.202-25.599 4.254-44.388-8.91-69.251-16.829-31.787-37.767-71.333 11.938-122.685 5.674-5.862 15.1-6.468 21.176-1.025 6.432 5.762 6.723 15.656.763 21.787-34.745 35.735-23.185 57.57-7.184 87.791 13.877 26.209 30.79 58.153 8.565 98.129-4.468 8.038-15.047 10.225-22.355 4.641z" fill="#cecece"/><g><path d="m403.391 393.695c-11.013 10.429-28.497 9.774-39.225-.954l-72.655-72.655c-5.076-5.076-13.334-4.848-18.182.441-14.629 15.968-27.5 33.451-38.392 52.146-4.022 6.912-7.781 13.989-11.255 21.221l-8.742 18.196-12.059 25.101c9.105 9.817 12.501 24.275 7.546 37.701-1.438 3.887-5.78 5.852-9.66 4.421l-15.419-5.653-40.606-14.907c-4.933-1.815-7.468-7.283-5.652-12.216l11.967-32.612 26.133-71.196c5.667-15.434-9.333-30.433-24.767-24.767l-71.189 26.141-32.612 11.967c-4.941 1.808-10.408-.726-12.216-5.652l-14.914-40.613-5.645-15.412c-1.438-3.887.527-8.229 4.414-9.668 13.426-4.955 27.884-1.559 37.709 7.553l25.108-12.067 18.181-8.742c7.233-3.474 14.316-7.226 21.221-11.255 18.694-10.892 36.185-23.756 52.146-38.392 5.289-4.848 5.517-13.106.441-18.182l-73.068-73.068c-11.056-11.056-10.864-29.102.569-39.923 11.013-10.429 28.49-9.767 39.218.961l262.168 262.17c11.055 11.056 10.87 29.095-.563 39.915z" fill="#ebebeb"/><g fill="#e2e2e2"><path d="m175.068 203.643-73.068-73.068c-11.056-11.056-10.863-29.102.569-39.923 1.837-1.737 3.851-3.168 5.994-4.285-5.588 10.529-3.958 23.877 4.905 32.74l73.068 73.068c5.076 5.076 4.848 13.334-.441 18.182-2.819 2.577-5.674 5.104-8.578 7.567 2.206-4.656 1.43-10.402-2.449-14.281z"/><path d="m403.391 393.695c-11.013 10.429-28.497 9.774-39.225-.954l-72.655-72.655c-3.88-3.88-9.625-4.656-14.28-2.449 2.463-2.905 4.99-5.759 7.567-8.578 4.848-5.289 13.106-5.517 18.182-.441l72.655 72.655c8.934 8.934 22.553 10.878 33.224 5.261-1.382 2.591-3.204 5.026-5.468 7.161z"/><path d="m190.977 238.18c-15.96 14.636-33.451 27.5-52.146 38.392-6.905 4.029-13.989 7.781-21.221 11.255l-18.181 8.742-22.88 9.91c-6.506 2.819-13.989 2.798-20.282-.463-8.849-4.563-19.499-5.546-29.565-1.83-2.869 1.061-4.684 3.702-4.869 6.563l-.342-.94-5.645-15.412c-1.438-3.887.527-8.229 4.414-9.667 13.426-4.955 27.884-1.559 37.709 7.553l25.108-12.067 18.181-8.742c7.233-3.474 14.316-7.226 21.221-11.255 18.694-10.892 36.185-23.756 52.146-38.392 5.289-4.848 5.517-13.106.441-18.182l16.352 16.352c5.076 5.077 4.848 13.335-.441 18.183z"/></g><g><path d="m114.244 298.879c-12.109 4.449-25.521-1.758-29.978-13.875-.576-1.573-.975-3.182-1.189-4.791l18.181-8.742c7.233-3.474 14.316-7.226 21.221-11.255 2.449 2.349 4.407 5.289 5.652 8.685 4.451 12.124-1.771 25.536-13.887 29.978z" fill="#017297"/></g><g><path d="m214.94 412.091c-1.602-.221-3.21-.619-4.791-1.203-12.109-4.449-18.324-17.868-13.875-29.978 4.442-12.116 17.861-18.331 29.978-13.889 3.403 1.253 6.343 3.21 8.685 5.653-4.022 6.912-7.781 13.989-11.255 21.221z" fill="#017297"/></g><path d="m428.705 242.216-175.765-175.765c-7.576-7.576-7.576-19.858 0-27.434l25.835-25.835c7.576-7.576 19.858-7.576 27.434 0l175.765 175.765c7.576 7.576 7.576 19.858 0 27.434l-25.835 25.835c-7.575 7.576-19.858 7.576-27.434 0z" fill="#cecece"/><path d="m307.736 222.837-35.417-35.416c-32.983-32.983-32.983-86.46 0-119.443l35.417-35.416c32.983-32.983 86.46-32.983 119.443 0l35.417 35.416c32.983 32.983 32.983 86.46 0 119.443l-35.417 35.416c-32.983 32.984-86.46 32.984-119.443 0z" fill="#ebebeb"/><path d="m308.329 223.416c-.198-.185-.397-.383-.588-.575l-35.415-35.415c-32.983-32.983-32.99-86.466-.007-119.449l35.415-35.415c32.983-32.982 86.466-32.976 119.449.007l35.415 35.415c.192.192.39.39.575.588-33.023-32.415-86.069-32.223-118.861.568l-35.415 35.415c-32.791 32.792-32.983 85.839-.568 118.861z" fill="#e2e2e2"/><path d="m433.907 176.182-27.676 27.676c-18.755 18.755-49.174 18.761-67.935 0l-47-47c-2.227-2.227-4.19-4.613-5.882-7.137-12.609-18.676-10.64-44.264 5.888-60.791l27.676-27.676c14.202-14.202 35.078-17.658 52.518-10.356 5.604 2.339 10.851 5.789 15.411 10.349l47 47c18.762 18.761 18.762 49.174 0 67.935z" fill="#017297"/><path d="m285.414 149.722c-12.609-18.676-10.64-44.264 5.888-60.791l27.676-27.676c14.202-14.202 35.078-17.658 52.518-10.356-9.886 4.124-19.145 10.197-27.187 18.239l-35.415 35.415c-12.774 12.774-20.605 28.628-23.48 45.169z" fill="#025f80"/><path d="m335.461 239.417-79.721-79.721c-6.333-6.333-16.602-6.333-22.936 0-6.333 6.333-6.333 16.602 0 22.936l79.721 79.721c6.333 6.333 16.602 6.333 22.936 0 6.333-6.334 6.333-16.603 0-22.936z" fill="#e2e2e2"/><path d="m259.237 202.345c0 4.158 1.588 8.308 4.748 11.469l-31.181-31.181c-3.168-3.168-4.755-7.318-4.748-11.468-.007-4.15 1.58-8.301 4.748-11.469 6.336-6.336 16.601-6.336 22.937 0l31.181 31.181c-6.329-6.329-16.601-6.336-22.937 0-3.168 3.167-4.748 7.325-4.748 11.468z" fill="#cecece"/><circle cx="266.693" cy="279.937" fill="#017297" r="16.034"/></g><g><path d="m93.722 199.029-23.393 9.949-9.949 23.393c-.994 2.333-2.929 3.725-5.032 4.164-3.107.67-6.612-.722-8.077-4.164l-9.949-23.393-23.393-9.949c-5.775-2.459-5.775-10.65 0-13.109l23.393-9.949 9.949-23.393c1.507-3.547 5.179-4.917 8.359-4.101 1.998.502 3.798 1.873 4.75 4.101l9.949 23.393 23.393 9.949c5.775 2.458 5.775 10.65 0 13.109z" fill="#fef056"/><path d="m55.347 236.535c-3.107.67-6.612-.722-8.077-4.164l-9.949-23.393-23.393-9.949c-5.775-2.459-5.775-10.65 0-13.109l23.393-9.949 9.949-23.393c1.507-3.547 5.179-4.917 8.359-4.101-4.561 16.665-11.906 53.418-.282 88.058z" fill="#ffd15b"/></g><g><path d="m498.071 322.418-23.393 9.949-9.949 23.393c-.994 2.333-2.929 3.724-5.032 4.164-3.107.67-6.612-.722-8.077-4.164l-9.949-23.393-23.393-9.949c-5.775-2.459-5.775-10.65 0-13.109l23.393-9.949 9.949-23.393c1.507-3.547 5.179-4.917 8.359-4.101 1.998.502 3.798 1.873 4.75 4.101l9.949 23.393 23.393 9.949c5.775 2.459 5.775 10.65 0 13.109z" fill="#fef056"/><path d="m459.696 359.925c-3.107.67-6.612-.722-8.077-4.164l-9.949-23.393-23.393-9.949c-5.775-2.459-5.775-10.65 0-13.109l23.393-9.949 9.949-23.393c1.507-3.547 5.179-4.917 8.359-4.101-4.561 16.664-11.906 53.418-.282 88.058z" fill="#ffd15b"/></g><g><path d="m111.225 463.225-23.393 9.949-9.949 23.393c-.994 2.333-2.929 3.724-5.032 4.164-3.107.67-6.612-.722-8.077-4.164l-9.949-23.393-23.393-9.949c-5.775-2.459-5.775-10.65 0-13.109l23.393-9.949 9.949-23.393c1.507-3.547 5.179-4.917 8.359-4.101 1.998.502 3.798 1.873 4.75 4.101l9.949 23.393 23.393 9.949c5.775 2.459 5.775 10.65 0 13.109z" fill="#fef056"/><path d="m72.85 500.731c-3.107.67-6.612-.722-8.077-4.164l-9.949-23.393-23.393-9.949c-5.775-2.459-5.775-10.65 0-13.109l23.393-9.949 9.949-23.393c1.507-3.547 5.179-4.917 8.359-4.101-4.561 16.665-11.905 53.419-.282 88.058z" fill="#ffd15b"/></g></g><g><path d="m285.995 162.163 47.002 47.001c10.825 10.82 25.045 16.23 39.267 16.23 14.221 0 28.442-5.411 39.27-16.231l27.68-27.68c8.27-8.271 13.639-18.724 15.527-30.229.67-4.087-2.1-7.945-6.187-8.615-4.1-.676-7.945 2.1-8.616 6.187-1.376 8.389-5.295 16.014-11.332 22.051l-27.678 27.678c-15.806 15.797-41.523 15.795-57.325.001l-47-47c-7.657-7.657-11.873-17.835-11.873-28.662s4.216-21.005 11.873-28.662l27.681-27.68c7.656-7.656 17.835-11.873 28.661-11.873s21.005 4.217 28.661 11.873l47 47c2.153 2.153 4.062 4.545 5.674 7.109 2.206 3.507 6.835 4.562 10.342 2.357s4.562-6.835 2.357-10.341c-2.208-3.512-4.821-6.786-7.766-9.731l-47-47c-21.653-21.652-56.884-21.653-78.537 0l-27.681 27.68c-21.653 21.653-21.653 56.885 0 78.537z"/><path d="m250.051 263.296c-9.176 9.176-9.176 24.107 0 33.283 4.589 4.588 10.615 6.882 16.642 6.882s12.053-2.294 16.642-6.882c9.176-9.176 9.176-24.106 0-33.283-9.178-9.176-24.108-9.176-33.284 0zm22.676 22.676c-3.326 3.327-8.742 3.327-12.068 0-3.328-3.328-3.328-8.742 0-12.07 1.663-1.664 3.849-2.496 6.034-2.496s4.371.832 6.034 2.496c3.328 3.328 3.328 8.743 0 12.07z"/><path d="m230.688 236.476c1.919 0 3.839-.732 5.304-2.197 2.929-2.929 2.929-7.678 0-10.606l-17.779-17.779c-2.93-2.929-7.678-2.929-10.607 0s-2.929 7.678 0 10.606l17.779 17.779c1.464 1.464 3.384 2.197 5.303 2.197z"/><path d="m192.462 221.036c-2.929 2.929-2.929 7.678 0 10.606l17.779 17.779c1.465 1.464 3.385 2.197 5.304 2.197s3.839-.732 5.304-2.197c2.929-2.929 2.929-7.678 0-10.606l-17.779-17.779c-2.93-2.929-7.678-2.929-10.608 0z"/><path d="m333.435 272.649c2.7-1.172 5.185-2.849 7.329-4.993 4-4 6.389-9.177 6.857-14.749 6.529 1.436 13.141 2.153 19.726 2.152 17.367-.001 34.509-4.934 49.309-14.29l6.747 6.747c5.083 5.083 11.839 7.882 19.022 7.882 7.186 0 13.939-2.8 19.014-7.881l25.841-25.831c5.082-5.083 7.881-11.838 7.881-19.023s-2.799-13.94-7.882-19.023l-6.733-6.732c22.518-35.539 18.317-83.266-12.65-114.234l-35.417-35.417c-17.369-17.367-40.462-26.932-65.025-26.932-17.708 0-34.638 4.995-49.224 14.277l-6.717-6.717c-5.078-5.085-11.834-7.885-19.021-7.885-7.188 0-13.944 2.8-19.018 7.881l-25.845 25.834c-10.473 10.487-10.473 27.551.004 38.042l6.736 6.736c-12.901 20.408-17.347 45.29-12.125 69.043-5.57.469-10.745 2.858-14.744 6.856-2.176 2.177-3.821 4.681-4.973 7.349l-25.115-25.115c-2.93-2.929-7.678-2.929-10.607 0s-2.929 7.678 0 10.606l75.259 75.264-65.921 65.92-40.881-40.881c8.468-6.299 16.628-13.025 24.435-20.178 4.038-3.702 6.422-8.958 6.54-14.421.119-5.514-1.963-10.699-5.864-14.601l-58.281-58.281 28.768-28.768 11.795 11.795c2.93 2.929 7.678 2.929 10.607 0s2.929-7.678 0-10.606l-26.171-26.17c-13.632-13.632-35.918-14.127-49.679-1.104-6.998 6.625-10.925 15.573-11.057 25.197-.133 9.627 3.543 18.677 10.349 25.483l73.061 73.06c.981.981 1.505 2.284 1.476 3.669-.031 1.414-.628 2.724-1.679 3.688-21.355 19.568-45.429 35.855-71.553 48.41l-38.979 18.74c-11.897-8.704-27.309-10.948-41.365-5.755-7.731 2.85-11.711 11.498-8.866 19.293l20.569 56.018c1.566 4.266 4.7 7.667 8.827 9.575 4.123 1.908 8.746 2.096 13.008.531l103.802-38.1c4.436-1.627 9.076-.606 12.415 2.733 3.336 3.337 4.356 7.973 2.729 12.403l-38.096 103.796c-1.573 4.261-1.39 8.88.516 13.007 1.909 4.133 5.313 7.273 9.586 8.841l56.032 20.575c1.7.621 3.441.915 5.156.915 6.116 0 11.882-3.746 14.121-9.781 5.193-14.062 2.951-29.473-5.754-41.371l18.739-38.988c6.232-12.963 13.385-25.42 21.399-37.292.996 15.604 6.358 29.308 11.684 40.536 1.283 2.705 3.975 4.288 6.781 4.288 1.077 0 2.172-.233 3.21-.726 3.742-1.775 5.337-6.249 3.562-9.991-7.562-15.942-14.333-35.191-7.726-57.452 3.077-3.707 6.238-7.347 9.498-10.906.965-1.053 2.275-1.649 3.689-1.68 1.432-.037 2.688.494 3.668 1.475l3.022 3.021c-15.251 27.73-3.923 49.147 9.085 73.715 13.54 25.569 28.887 54.549 8.633 90.976-1.085 1.95-2.887 3.275-5.073 3.73-2.193.456-4.384-.042-6.174-1.41-3.018-2.301-3.85-6.417-1.979-9.788 13.205-23.803 7.455-43.143-.725-60.496-1.766-3.747-6.234-5.351-9.982-3.586-3.746 1.766-5.352 6.235-3.586 9.982 7.899 16.758 10.625 29.792 1.176 46.824-5.427 9.782-2.847 22.246 5.993 28.986 3.978 3.042 8.805 4.649 13.724 4.649 1.535 0 3.081-.157 4.611-.476 6.425-1.337 11.938-5.394 15.125-11.127 24.211-43.541 5.312-79.228-8.486-105.284-11.401-21.534-19.411-36.667-11.147-55.502l58.436 58.435c13.634 13.635 35.925 14.13 49.689 1.103 7-6.626 10.927-15.577 11.056-25.204.13-9.624-3.546-18.669-10.349-25.466zm-225.711-176.552c7.915-7.493 20.818-7.126 28.761.816l3.768 3.768-28.768 28.768-4.173-4.173c-3.918-3.918-6.034-9.128-5.958-14.671.076-5.539 2.339-10.691 6.37-14.508zm368.947 98.15c4.642 4.641 4.642 12.192.001 16.833l-25.844 25.834c-2.244 2.247-5.229 3.485-8.404 3.485-3.178 0-6.166-1.239-8.416-3.488l-5.254-5.253c1.269-1.135 2.517-2.299 3.73-3.512l35.417-35.417c1.217-1.217 2.385-2.465 3.519-3.732zm-54.8-156.383 35.417 35.417c30.01 30.01 30.013 78.835.007 108.841l-35.417 35.417c-20.802 20.804-51.795 27.879-79.517 18.337-.5-.609-1.032-1.197-1.596-1.762l-79.721-79.721c-.564-.564-1.152-1.096-1.761-1.596-9.54-27.722-2.465-58.713 18.339-79.516l35.416-35.417c14.534-14.535 33.86-22.54 54.416-22.54 20.556.001 39.882 8.005 54.417 22.54zm-163.628 23.291c-4.636-4.643-4.636-12.198-.005-16.836l25.845-25.834c2.244-2.247 5.23-3.485 8.409-3.485 3.178 0 6.164 1.238 8.411 3.488l5.255 5.255c-1.267 1.136-2.515 2.302-3.728 3.514l-35.416 35.417c-1.215 1.215-2.378 2.467-3.514 3.739zm-20.136 103.845c1.647-1.647 3.837-2.554 6.165-2.554 2.329 0 4.518.907 6.164 2.553l79.721 79.721h.001c1.646 1.646 2.553 3.835 2.553 6.164s-.906 4.518-2.554 6.165c-1.646 1.646-3.835 2.553-6.164 2.553-2.3 0-4.461-.888-6.101-2.496l-79.839-79.839c-3.341-3.403-3.325-8.889.054-12.267zm-133.6 113.23c5.399-2.595 10.712-5.347 15.939-8.242.236.485.455.982.645 1.498 1.462 3.98 1.285 8.289-.495 12.131-1.781 3.842-4.954 6.761-8.939 8.223-7.587 2.788-15.956-.628-19.558-7.645zm-58.473 70.799c-.647.238-1.194.097-1.541-.063-.346-.16-.807-.486-1.044-1.131l-20.592-56.069c9.85-3.636 20.699-1.741 28.73 4.904l16.279 44.347zm138.195-3.712c3.643-9.913 1.266-20.71-6.202-28.179-7.47-7.472-18.275-9.851-28.192-6.208l-67.887 24.917-14.594-39.757 11.232-5.399c5.29 10.638 16.152 17.123 27.641 17.123 3.523 0 7.104-.609 10.598-1.893 7.742-2.838 13.915-8.519 17.38-15.996 3.467-7.479 3.811-15.864.97-23.605-.495-1.35-1.096-2.658-1.774-3.923 3.181-1.969 6.325-3.995 9.431-6.076l96.006 96.006c-2.08 3.104-4.105 6.246-6.073 9.425-1.257-.671-2.563-1.269-3.93-1.772-7.74-2.839-16.122-2.493-23.602.971-7.479 3.465-13.161 9.637-15.998 17.373-5.475 14.901 1.321 31.363 15.224 38.265l-5.391 11.216-39.757-14.594zm19.115 126.963-56.021-20.57c-.65-.239-.978-.702-1.138-1.049-.158-.343-.297-.885-.057-1.536l8.013-21.833 44.343 16.277c6.649 8.03 8.545 18.881 4.86 28.711zm7.618-69.223c-7.022-3.603-10.435-11.972-7.645-19.565 1.458-3.979 4.378-7.15 8.222-8.931 3.845-1.781 8.154-1.958 12.122-.502.52.191 1.02.413 1.508.65-2.894 5.225-5.646 10.535-8.24 15.932zm71.26-94.135c-5.463.118-10.72 2.502-14.423 6.541-7.153 7.806-13.879 15.966-20.178 24.434l-40.871-40.872 65.921-65.92 111.198 111.192-28.769 28.768-58.279-58.278c-3.9-3.901-9.074-5.99-14.599-5.865zm116.022 79.331c-7.92 7.496-20.827 7.128-28.771-.816l-3.765-3.765 28.768-28.769 4.182 4.182c3.915 3.912 6.029 9.116 5.955 14.655-.075 5.542-2.337 10.696-6.369 14.513z"/><path d="m31.602 214.695 8.769 20.609c2.3 5.405 7.58 8.897 13.453 8.897 5.874 0 11.154-3.492 13.454-8.896l8.769-20.61 20.61-8.769c5.404-2.3 8.896-7.581 8.896-13.454s-3.492-11.154-8.896-13.454l-20.61-8.768-8.769-20.61c-2.3-5.405-7.58-8.897-13.454-8.897-5.873 0-11.153 3.492-13.453 8.897l-8.769 20.61-20.61 8.768c-5.404 2.3-8.896 7.581-8.896 13.454s3.492 11.154 8.896 13.454zm62.118-28.775-2.925 6.907c-.004-.002-.007-.004-.011-.006zm-53.464-3.05c1.784-.759 3.205-2.18 3.965-3.965l9.604-22.57 9.603 22.57c.76 1.785 2.181 3.206 3.965 3.965l22.572 9.603-22.572 9.604c-1.784.759-3.205 2.181-3.965 3.965l-9.604 22.57-9.603-22.57c-.76-1.784-2.181-3.206-3.965-3.965l-22.572-9.604z"/><path d="m501.005 302.408-20.61-8.769-8.769-20.609c-2.3-5.405-7.58-8.897-13.453-8.897-5.874 0-11.154 3.492-13.454 8.896l-8.769 20.61-20.61 8.769c-5.404 2.299-8.896 7.581-8.896 13.454s3.492 11.154 8.896 13.454l20.61 8.769 8.769 20.61c2.3 5.405 7.58 8.897 13.454 8.897 5.873 0 11.153-3.492 13.453-8.897l8.769-20.61 20.61-8.769c5.404-2.299 8.896-7.581 8.896-13.454.001-5.873-3.491-11.154-8.896-13.454zm-29.264 23.057c-1.784.759-3.205 2.181-3.965 3.965l-9.604 22.57-9.603-22.57c-.76-1.785-2.181-3.206-3.965-3.965l-22.571-9.604 22.571-9.603c1.784-.759 3.205-2.181 3.965-3.965l9.604-22.57 9.603 22.57c.76 1.784 2.181 3.206 3.965 3.965l22.572 9.604z"/><path d="m114.16 443.215-20.609-8.769-8.769-20.61c-2.3-5.405-7.58-8.897-13.454-8.897s-11.154 3.492-13.454 8.897l-8.769 20.61-20.609 8.769c-5.404 2.299-8.896 7.581-8.896 13.454 0 5.874 3.492 11.155 8.896 13.454l20.609 8.769 8.769 20.609c2.3 5.405 7.58 8.897 13.454 8.897s11.154-3.492 13.454-8.896l8.769-20.61 20.608-8.769c5.405-2.299 8.898-7.58 8.898-13.454 0-5.873-3.493-11.154-8.897-13.454zm-29.264 23.057c-1.784.759-3.205 2.181-3.965 3.965l-9.604 22.572-9.604-22.572c-.76-1.784-2.181-3.206-3.965-3.965l-22.57-9.604 22.57-9.603c1.784-.759 3.205-2.181 3.965-3.965l9.604-22.572 9.604 22.572c.76 1.785 2.181 3.206 3.965 3.965l22.571 9.604z"/></g></g></svg>