<svg id="Capa_1" enable-background="new 0 0 512 512" viewBox="0 0 512 512" xmlns="http://www.w3.org/2000/svg"><g><path d="m287.062 442.375-27.108 20.973-35.016-20.973 15.531-77.656h31.062z" fill="#0078c8"/><path d="m479.28 277.883-2.376-55.604c0-5.588-9.111-14.093-11.228-18.899-4.806-2.117-10.119-3.293-15.707-3.293h-108.375c-21.539 0-39 17.461-39 39v46.709l164.33 12.522c2.761 0 12.356-17.674 12.356-20.435z" fill="#e8ad8c"/><path d="m198.066 285.797-2.034-66.709c0-5.588-7.802-10.902-9.919-15.707-4.806-2.117-10.119-3.293-15.707-3.293h-108.375c-21.539 0-39 17.461-39 39v46.709l162.546 12.522c2.762-.001 12.489-9.761 12.489-12.522z" fill="#ffe177"/><path d="m465.676 203.38c2.117 4.806 3.293 10.119 3.293 15.707v61.709c0 2.761-2.239 5-5 5h-161.375v20l101.122 19.611 85.253-19.611v-66.709c0-15.95-9.576-29.664-23.293-35.707z" fill="#e19974"/><path d="m186.114 203.38c2.117 4.806 3.293 10.119 3.293 15.707v61.709c0 2.761-2.239 5-5 5h-161.376v20l92.279 19.611 94.096-19.611v-66.709c0-15.95-9.576-29.664-23.292-35.707z" fill="#ffc344"/><path d="m151.396 127.387-1.462-42.231c0-22.3-22.788-40.941-43.715-45.518-20.927 4.576-36.594 23.217-36.594 45.518v37.275c0 22.3 15.667 40.941 36.594 45.518 20.927-4.577 45.177-18.262 45.177-40.562z" fill="#ffe177"/><path d="m429.144 126.339 2.612-39.136c0-22.3-25.047-42.989-45.974-47.565-20.927 4.576-36.594 23.217-36.594 45.518v37.275c0 22.3 15.667 40.941 36.594 45.518 20.926-4.577 43.362-19.31 43.362-41.61z" fill="#e8ad8c"/><path d="m489.5 330.398 2.612-19.601c0-2.761-14.851-5-17.612-5h-462c-2.761 0-5 2.239-5 5v21.062c0 2.761 2.239 5 5 5h462c2.761 0 15-3.7 15-6.461z" fill="#62dbfb"/><path d="m499.5 305.797h-25c2.761 0 5 2.239 5 5v21.062c0 2.761-2.239 5-5 5h25c2.761 0 5-2.239 5-5v-21.062c0-2.762-2.239-5-5-5z" fill="#01d0fb"/><path d="m116.219 38.562c-3.433 0-6.779.371-10 1.076 20.927 4.576 36.594 23.217 36.594 45.518v37.275c0 22.3-15.667 40.941-36.594 45.518 3.221.704 6.567 1.076 10 1.076 25.733 0 46.594-20.861 46.594-46.594v-37.275c-.001-25.733-20.861-46.594-46.594-46.594z" fill="#ffc344"/><path d="m395.781 38.562c-3.433 0-6.779.371-10 1.076 20.927 4.576 36.594 23.217 36.594 45.518v37.275c0 22.3-15.667 40.941-36.594 45.518 3.221.704 6.567 1.076 10 1.076 25.733 0 46.594-20.861 46.594-46.594v-37.275c0-25.733-20.861-46.594-46.594-46.594z" fill="#e19974"/><path d="m309.142 310.081c0-13.325-10.212-29.423-17.354-39.54-10.117-7.142-22.462-11.338-35.788-11.338-34.311 0-62.125 27.814-62.125 62.125 0 13.325 4.196 25.671 11.337 35.788 10.117 7.142 25.02 16.767 38.345 16.767 34.311 0 65.585-29.492 65.585-63.802z" fill="#dff6fd"/><path d="m291.788 270.541c7.142 10.117 11.337 22.462 11.337 35.787 0 34.311-27.814 62.125-62.125 62.125-13.325 0-25.671-4.196-35.788-11.337 11.247 15.932 29.802 26.337 50.788 26.337 34.311 0 62.125-27.814 62.125-62.125 0-20.985-10.405-39.54-26.337-50.787z" fill="#99e6fc"/><path d="m319.719 442.375h-152.438c-11.046 0-20 8.954-20 20v6.062c0 2.761 2.239 5 5 5h187.438l7.74-15.531c0-11.045-16.695-15.531-27.74-15.531z" fill="#5f99d7"/><path d="m344.719 442.375h-25c11.046 0 20 8.954 20 20v11.062h20c2.761 0 5-2.239 5-5v-6.062c0-11.046-8.955-20-20-20z" fill="#3c87d0"/><path d="m110.904 130.433h3.472c8.082 0 14.657-6.575 14.657-14.657v-13.312c0-4.143-3.357-7.5-7.5-7.5s-7.5 3.357-7.5 7.5v12.97h-3.129c-4.143 0-7.5 3.357-7.5 7.5s3.358 7.499 7.5 7.499z"/><path d="m116.219 176.525c29.827 0 54.094-24.267 54.094-54.094v-37.275c0-29.828-24.267-54.094-54.094-54.094s-54.094 24.267-54.094 54.094v37.275c0 29.828 24.267 54.094 54.094 54.094zm-39.094-91.369c0-21.556 17.537-39.094 39.094-39.094s39.094 17.538 39.094 39.094v37.275c0 21.557-17.537 39.094-39.094 39.094s-39.094-17.537-39.094-39.094z"/><path d="m390.467 130.433h3.472c8.082 0 14.657-6.575 14.657-14.657v-13.312c0-4.143-3.357-7.5-7.5-7.5s-7.5 3.357-7.5 7.5v12.97h-3.129c-4.143 0-7.5 3.357-7.5 7.5s3.357 7.499 7.5 7.499z"/><path d="m395.781 176.525c29.827 0 54.094-24.267 54.094-54.094v-37.275c0-29.828-24.267-54.094-54.094-54.094s-54.094 24.266-54.094 54.094v37.275c.001 29.828 24.267 54.094 54.094 54.094zm-39.093-91.369c0-21.556 17.537-39.094 39.094-39.094s39.094 17.538 39.094 39.094v37.275c0 21.557-17.537 39.094-39.094 39.094s-39.094-17.537-39.094-39.094z"/><path d="m279.297 298.297h-46.594c-4.143 0-7.5 3.357-7.5 7.5s3.357 7.5 7.5 7.5h46.594c4.143 0 7.5-3.357 7.5-7.5s-3.358-7.5-7.5-7.5z"/><path d="m279.297 329.359h-46.594c-4.143 0-7.5 3.357-7.5 7.5s3.357 7.5 7.5 7.5h46.594c4.143 0 7.5-3.357 7.5-7.5s-3.358-7.5-7.5-7.5z"/><path d="m499.5 298.297h-3.031v-59.209c0-25.641-20.859-46.5-46.5-46.5h-108.375c-25.641 0-46.5 20.859-46.5 46.5v24.653c-11.152-7.595-24.614-12.038-39.094-12.038s-27.942 4.443-39.094 12.038v-24.653c0-25.641-20.859-46.5-46.5-46.5h-55.096c-4.143 0-7.5 3.357-7.5 7.5s3.357 7.5 7.5 7.5h55.097c17.369 0 31.5 14.131 31.5 31.5v38.452c-4.983 6.144-8.943 13.151-11.617 20.757h-19.977v-41.756c0-4.143-3.357-7.5-7.5-7.5s-7.5 3.357-7.5 7.5v41.756h-78.188v-41.756c0-4.143-3.357-7.5-7.5-7.5s-7.5 3.357-7.5 7.5v41.756h-31.594v-59.209c0-17.369 14.131-31.5 31.5-31.5h18.279c4.143 0 7.5-3.357 7.5-7.5s-3.357-7.5-7.5-7.5h-18.279c-25.641 0-46.5 20.859-46.5 46.5v59.209h-3.031c-6.893 0-12.5 5.607-12.5 12.5v21.062c0 6.893 5.607 12.5 12.5 12.5h177.79c6.484 18.447 20.53 33.364 38.4 41.013l-9.9 49.503h-51.508c-15.163 0-27.5 12.337-27.5 27.5v6.062c0 6.893 5.607 12.5 12.5 12.5h27.811c4.143 0 7.5-3.357 7.5-7.5s-3.357-7.5-7.5-7.5h-25.311v-3.562c0-6.893 5.607-12.5 12.5-12.5h177.438c6.893 0 12.5 5.607 12.5 12.5v3.562h-142.128c-4.143 0-7.5 3.357-7.5 7.5s3.357 7.5 7.5 7.5h144.627c6.893 0 12.5-5.607 12.5-12.5v-6.062c0-15.163-12.337-27.5-27.5-27.5h-51.508l-9.9-49.503c17.869-7.649 31.915-22.566 38.4-41.013h100.665c4.143 0 7.5-3.357 7.5-7.5s-3.357-7.5-7.5-7.5h-97.21c.304-2.636.46-5.315.46-8.031s-.156-5.396-.46-8.031h171.834v16.062h-39.625c-4.143 0-7.5 3.357-7.5 7.5s3.357 7.5 7.5 7.5h42.125c6.893 0 12.5-5.607 12.5-12.5v-21.062c0-6.893-5.607-12.5-12.5-12.5zm-484.5 31.062v-16.062h171.835c-.304 2.636-.46 5.315-.46 8.031s.156 5.396.46 8.031zm262.914 105.516h-43.827l9.023-45.118c4.178.785 8.487 1.196 12.89 1.196s8.712-.411 12.89-1.196zm-21.914-58.922c-30.12 0-54.625-24.505-54.625-54.625s24.505-54.625 54.625-54.625 54.625 24.505 54.625 54.625-24.505 54.625-54.625 54.625zm54.094-98.413v-38.452c0-17.369 14.131-31.5 31.5-31.5h108.375c17.369 0 31.5 14.131 31.5 31.5v59.209h-31.594v-41.756c0-4.143-3.357-7.5-7.5-7.5s-7.5 3.357-7.5 7.5v41.756h-78.188v-41.756c0-4.143-3.357-7.5-7.5-7.5s-7.5 3.357-7.5 7.5v41.756h-19.977c-2.673-7.607-6.633-14.613-11.616-20.757z"/></g><g/><g/><g/><g/><g/><g/><g/><g/><g/><g/><g/><g/><g/><g/><g/></svg>