<svg id="Capa_1" enable-background="new 0 0 512 512" viewBox="0 0 512 512" xmlns="http://www.w3.org/2000/svg"><g><path d="m472.631 120.448c.715-2.667-.868-5.409-3.536-6.124l-35.347-9.471c-2.667-.715-5.409.868-6.124 3.535l-.115.428 12.038 38.154 20.908 18.911z" fill="#5f99d7"/><path d="m453.136 193.203 7.321-27.32-32.947-57.066-7.32 27.321-2.686 37.452z" fill="#3c87d0"/><path d="m26.732 216.588c5.226 3.018 22.773.568 28.752.568 7.053 0 16.073-.368 21.861-4.37 3.405-2.354 3.847-4.754 7.842-4.754 3.141 0 6.539 1.358 9.431 2.853 4.911 2.54 7.164 2.376 12.668 2.376.001 0 3.409-.95 3.411-.95 12.26 0 31.577-12.177 37.698-22.779 2.619-4.537 1.759-9.603 2.139-14.766.699-9.492 3.603-10.56 11.644-15.683 3.926-2.501 9.203-15.769 11.406-19.96 2.712-5.162 2.5-15.235 1.663-20.673-2.225-14.464-12.978-22.075-19.068-34.574-5.306-1.625-10.771-2.256-16.147-1.958-4.08.226-7.902-2.063-9.755-5.705-3.948-7.759-10.113-14.502-18.215-19.18-16.117-9.305-35.483-7.886-49.835 2.042-2.49 1.723-5.594 2.403-8.514 1.604-16.612-4.544-34.833 2.44-43.848 18.054-.736 1.275-1.391 2.574-1.967 3.891-.271.617-.398 1.288-.398 1.962v86.204c5.405 9.814 2.746 24.12 10.678 32.728 2.335 2.535 5.501 11.308 8.554 13.07z" fill="#9be69d"/><path d="m167.486 89.076c-3.619-2.285-7.42-4.01-11.307-5.2 6.089 12.499 10.428 26.114 12.654 40.577.837 5.438.012 11.16-2.7 16.322-2.203 4.192-5.311 7.586-9.237 10.087-8.041 5.123-13.258 13.848-13.958 23.34-.38 5.163-1.901 10.082-4.52 14.619-6.121 10.602-17.541 17.188-29.801 17.188-.001 0-.001 0-.003 0-5.504 0-10.785-1.288-15.696-3.828-2.892-1.495-6.044-2.234-9.185-2.234-3.994 0-7.97 1.195-11.375 3.549-5.788 4.002-12.576 6.117-19.629 6.117-5.979 0-11.902-1.595-17.128-4.613-3.053-1.762-5.765-3.927-8.1-6.461-7.932-8.608-14.595-17.934-20-27.748v33.001c0 1.011.294 2.007.877 2.833 4.398 6.232 10.184 11.633 17.223 15.697 18.8 10.854 41.388 9.202 58.132-2.374 25.638 13.257 57.426 4.129 72.007-21.127 4.232-7.331 6.563-15.238 7.145-23.15.24-3.263 1.998-6.183 4.758-7.941 6.61-4.211 12.259-10.163 16.195-17.652 11.211-21.338 4.029-48.132-16.352-61.002z" fill="#6fd7a3"/><path d="m158.991 309.756-37.032-138.204c-1.898-7.085-1.135-14.62 2.145-21.181l3.05-6.1c1.074-2.149-1.205-4.428-3.354-3.354l-16.016 8.008c-4.526 2.263-10.029.788-12.817-3.434l-16.315-24.71c-1.324-2.005-4.438-1.171-4.582 1.228l-1.774 29.557c-.303 5.051-4.332 9.08-9.383 9.383l-17.874 1.073c-2.398.144-3.233 3.258-1.228 4.582l5.691 3.758c6.121 4.042 10.55 10.186 12.448 17.271l31.843 118.84c9.695 3.632 19.786 15.768 36.807 15.768 11.173-.001 21.002-10.72 28.391-12.485z" fill="#e8ad8c"/><path d="m166.261 336.891-7.271-27.135c-7.389 1.765-16.07 2.837-27.242 2.837-17.02 0-28.259-2.49-37.954-6.122l8.298 30.968z" fill="#e19974"/><path d="m377.94 94.093-138.436 98.715-25.487 95.118c11.072-3.157 19.893 3.632 37.388 3.632 35.639 0 52.657 13.072 69.149 21.035 14.457 6.981 31.612 9.362 58.099 9.362 14.055 0 34.929.347 43.485-2.289l13.252-95.076z" fill="#dff6fd"/><path d="m435.39 224.591-21.689 80.944c-.459 1.712-1.783 3.061-3.492 3.527-7.971 2.174-17.389 3.532-29.962 3.532-26.487 0-38.973-6.029-53.43-13.01-16.492-7.963-35.184-16.99-70.823-16.99-17.495 0-30.906 2.175-41.978 5.333l-7.849 29.292 210.029 56.277 33.336-124.41 5.51-29.549z" fill="#99e6fc"/><path d="m488.132 253.817-101.606-175.986c-1.381-2.391-4.439-3.211-6.83-1.83l-175.986 101.606c-2.391 1.381-3.211 4.439-1.83 6.83l10.531 18.24c1.381 2.391 4.439 3.211 6.83 1.83l153.416-88.575 88.575 153.416c1.381 2.391 4.439 3.211 6.83 1.83l18.24-10.531c2.391-1.38 3.211-4.438 1.83-6.83z" fill="#fe646f"/><path d="m357.342 310.68 15.083-56.291c.715-2.667-.868-5.409-3.536-6.124l-65.351-17.511c-2.667-.715-5.409.868-6.124 3.536l-13.523 50.468c18.759 3.155 25.118 22.261 36.662 27.835 9.513 4.594 24.435-4.236 36.789-1.913z" fill="#62dbfb"/><path d="m357.342 310.68c-12.354-2.323-21.012-6.504-30.524-11.097-11.544-5.574-24.167-11.669-42.926-14.825l-13.322 49.717 7.182 1.924 67.829 18.175z" fill="#01d0fb"/><path d="m501.267 479.5-16.767-175.7c-43.031 5.599-49.625 28.794-104.253 28.794-62.126 0-62.126-30-124.253-30-62.123 0-62.123 30-124.247 30-61.273 0-62.112-29.184-121.731-29.983-1.387-.019-2.517 1.113-2.517 2.5v179.389l472 9.395c2.762 0 21.768-11.634 21.768-14.395z" fill="#62dbfb"/><path d="m154.852 453.991c2.839-.559 13.896-10.291 13.147-13.086l-27.79-72.133-50.862 13.629c-2.667.715-4.25 3.457-3.536 6.124l15.208 56.757c9.027 2.507 17.676 11.306 29.581 11.306 9.643 0 17.777-1.323 24.252-2.597z" fill="#fe646f"/><path d="m501.983 302.61c-6.469.087-12.245.508-17.483 1.189v175.7c0 2.761-2.239 5-5 5h-472v15c0 2.761 2.239 5 5 5h487c2.761 0 5-2.239 5-5v-194.388c0-1.388-1.13-2.519-2.517-2.501z" fill="#01d0fb"/><path d="m160.822 368.426c-.715-2.667-3.456-4.25-6.124-3.536l-14.489 3.882 19.271 71.922c.749 2.795-1.017 5.643-3.856 6.202-6.475 1.275-14.234 2.095-23.877 2.095-11.905 0-21.701-1.202-30.728-3.709l5.832 21.766c7.112 1.221 15.256 1.943 24.896 1.943 25.142 0 40.108-4.914 53.136-10.764z" fill="#fd4755"/><path d="m115.512 299.798c.898 3.351 3.928 5.561 7.24 5.561.643 0 1.296-.083 1.946-.257 4.001-1.072 6.375-5.185 5.303-9.186l-12.06-45.006c-1.072-4-5.183-6.374-9.186-5.303-4.001 1.072-6.375 5.185-5.303 9.186z"/><path d="m109.902 217.595-8.04-30.004c-1.072-4.001-5.185-6.372-9.186-5.304-4.001 1.072-6.375 5.185-5.304 9.186l8.04 30.004c.898 3.351 3.928 5.561 7.24 5.561.643 0 1.296-.083 1.946-.257 4.002-1.073 6.376-5.185 5.304-9.186z"/><path d="m501.882 295.111c-29.812.4-45.861 7.588-60.889 14.822l11.098-41.416 2.646 4.583c2.313 4.005 6.523 6.247 10.846 6.247 2.119 0 4.266-.539 6.229-1.672l18.24-10.531c5.968-3.446 8.021-11.105 4.576-17.075l-33.443-57.924 18.69-69.754c.865-3.225.421-6.594-1.248-9.485-1.67-2.892-4.365-4.96-7.59-5.824l-35.346-9.471c-3.226-.866-6.594-.421-9.486 1.248-2.891 1.669-4.959 4.365-5.824 7.59l-2.749 10.259-24.61-42.625c-1.669-2.892-4.365-4.96-7.59-5.824-3.225-.863-6.593-.42-9.485 1.249l-73.15 42.233c-3.587 2.071-4.816 6.658-2.745 10.245 2.072 3.588 6.659 4.818 10.245 2.745l70.985-40.983 99.106 171.656-13.911 8.031-87.325-151.251c-2.071-3.588-6.659-4.817-10.245-2.745l-151.251 87.325-8.031-13.911 69.356-40.042c3.587-2.071 4.816-6.658 2.745-10.245s-6.658-4.817-10.245-2.745l-71.521 41.293c-5.968 3.446-8.021 11.106-4.575 17.075l10.531 18.241c3.447 5.969 11.106 8.022 17.075 4.575l4.582-2.646-26.1 97.407c-3.76 1.646-7.324 3.367-10.863 5.075-6.755 3.262-13.343 6.443-21.161 8.97l-7.353-27.44c-1.072-4.001-5.188-6.373-9.186-5.303-4.001 1.072-6.375 5.185-5.304 9.186l7.26 27.093c-6.609 1.104-14.166 1.749-23.119 1.749-10.187 0-18.565-.834-25.797-2.23l-36.755-137.176c-1.742-6.5-5.177-12.356-9.905-17.011l4.072-.245c8.831-.53 15.89-7.589 16.42-16.42l.875-14.584 8.05 12.192c4.874 7.383 14.517 9.967 22.43 6.01l3.649-1.824c-1.767 6.396-1.814 13.185-.073 19.684l23.867 89.074c1.072 4.001 5.185 6.372 9.186 5.304 4.001-1.072 6.375-5.185 5.304-9.186l-9.616-35.888c7.67-5.216 14.107-12.134 18.779-20.227 4.708-8.155 7.443-17.02 8.13-26.351.065-.888.542-1.677 1.308-2.165 7.905-5.037 14.407-12.122 18.804-20.488 13.019-24.775 4.679-55.889-18.985-70.832-9.593-6.058-20.617-8.929-31.874-8.305-1.069.059-2.133-.591-2.656-1.618-4.744-9.322-12.057-17.023-21.149-22.273-18.021-10.405-40.728-9.475-57.851 2.37-.751.52-1.601.721-2.269.537-20.282-5.549-41.797 3.309-52.321 21.538-.864 1.496-1.652 3.055-2.346 4.639-.679 1.556-1.024 3.226-1.024 4.965v119.205c0 2.597.777 5.072 2.249 7.157 5.177 7.336 11.772 13.348 19.602 17.868 9.521 5.498 20.17 8.292 30.894 8.292 4.767 0 9.55-.554 14.253-1.667l22.145 82.646c-5.765-2.182-10.96-4.69-16.257-7.248-15.589-7.528-31.709-15.312-62.768-15.729-2.686-.025-5.224.985-7.139 2.876-1.921 1.896-2.979 4.426-2.979 7.125v47.042c0 4.142 3.358 7.5 7.5 7.5s7.5-3.358 7.5-7.5v-41.898c24.409 1.078 37.527 7.412 51.362 14.093 16.031 7.742 32.607 15.747 65.386 15.747 32.778 0 49.354-8.005 65.385-15.746 15.179-7.331 29.516-14.254 58.861-14.254 29.347 0 43.685 6.924 58.865 14.254 16.031 7.741 32.608 15.746 65.388 15.746s49.356-8.005 65.388-15.746c13.836-6.681 26.955-13.016 51.365-14.093v186.744h-482v-109.848c0-4.142-3.358-7.5-7.5-7.5s-7.5 3.358-7.5 7.5v112.348c0 6.893 5.607 12.5 12.5 12.5h487c6.893 0 12.5-5.607 12.5-12.5v-194.389c0-2.699-1.058-5.229-2.979-7.124-1.916-1.891-4.429-2.921-7.139-2.876zm-67.66-182.366 30.517 8.177-14.161 52.85-22.34-38.694zm-404.872 103.081c-5.688-3.284-10.512-7.6-14.35-12.837v-117.877c.411-.895.867-1.777 1.36-2.63 7.118-12.329 21.664-18.32 35.374-14.569 4.964 1.357 10.345.385 14.76-2.67 12.378-8.562 28.793-9.234 41.818-1.714 6.573 3.795 11.857 9.357 15.28 16.085 3.226 6.337 9.844 10.188 16.855 9.792 8.133-.444 16.093 1.628 23.034 6.011 17.096 10.796 23.121 33.273 13.716 51.172-3.183 6.057-7.881 11.18-13.585 14.815-4.73 3.013-7.798 8.141-8.208 13.715-.52 7.057-2.592 13.77-6.161 19.951-2.641 4.575-6.025 8.654-9.984 12.07l-10.056-37.529c-1.425-5.318-.854-10.96 1.609-15.885l3.05-6.101c1.928-3.856 1.174-8.495-1.874-11.543-3.048-3.047-7.685-3.801-11.542-1.873l-16.016 8.008c-1.13.564-2.508.196-3.204-.859l-16.315-24.71c-2.376-3.598-6.769-5.265-10.934-4.149-4.164 1.116-7.135 4.758-7.393 9.06l-1.774 29.557c-.076 1.262-1.084 2.27-2.346 2.346l-17.874 1.073c-4.303.258-7.944 3.229-9.06 7.394-1.116 4.164.552 8.558 4.149 10.933l5.691 3.758c4.595 3.034 7.911 7.634 9.335 12.953l8.406 31.372c-11.445 2.594-23.474.82-33.761-5.119zm258.681 82.463 15.981-59.643 60.521 16.216-17.742 66.216c-9.753-2.679-17.465-6.404-25.409-10.239-9.743-4.704-19.689-9.506-33.351-12.55zm73.508 25.704 18.13-67.662c1.784-6.657-2.181-13.525-8.839-15.31l-65.352-17.511c-6.657-1.782-13.523 2.182-15.308 8.839l-17.033 63.566c-5.195-.528-10.872-.821-17.143-.821-15.529 0-27.421 1.797-37.342 4.511l27.292-101.855 123.967-71.573 71.572 123.967-18.158 67.764c-10.856 4.164-23.693 7.185-43.079 7.185-7.022.001-13.185-.396-18.707-1.1z"/><path d="m63.969 451.264c-1.799 3.73-.234 8.214 3.497 10.014 14.783 7.131 31.54 15.213 64.282 15.213 32.778 0 49.354-8.005 65.385-15.746 15.179-7.331 29.516-14.254 58.861-14.254 4.142 0 7.5-3.358 7.5-7.5s-3.358-7.5-7.5-7.5c-32.777 0-49.354 8.005-65.384 15.746-.268.129-.535.259-.803.387l-21.741-81.138c-.864-3.226-2.932-5.922-5.824-7.591-2.891-1.669-6.259-2.112-9.485-1.249l-65.352 17.511c-6.657 1.784-10.622 8.651-8.839 15.31l17.813 66.478c-8.68-2.561-15.595-5.896-22.397-9.177-3.731-1.801-8.213-.235-10.013 3.496zm29.734-62.266 60.521-16.217 21.727 81.085c-11.097 4.389-24.143 7.624-44.203 7.624-7.114 0-13.353-.411-18.923-1.13z"/><path d="m314.859 402.004c16.031 7.741 32.608 15.746 65.388 15.746 32.778 0 49.355-8.005 65.387-15.746 5.015-2.421 9.751-4.708 15.009-6.77 3.856-1.512 5.757-5.864 4.245-9.72s-5.866-5.758-9.72-4.245c-5.791 2.27-11.009 4.79-16.057 7.228-15.18 7.33-29.518 14.253-58.864 14.253-29.348 0-43.686-6.924-58.865-14.254-5.045-2.437-10.263-4.956-16.05-7.225-3.856-1.512-8.208.388-9.72 4.245-1.512 3.856.388 8.208 4.245 9.72 5.255 2.06 9.99 4.347 15.002 6.768z"/><circle cx="130.601" cy="435.664" r="7.5"/><path d="m287.062 46.062c1.919 0 3.839-.732 5.303-2.197l15.531-15.531c2.929-2.929 2.929-7.678 0-10.606-2.929-2.929-7.678-2.929-10.606 0l-15.531 15.531c-2.929 2.929-2.929 7.678 0 10.606 1.465 1.465 3.384 2.197 5.303 2.197z"/><path d="m219.634 105.991c1.464 1.464 3.384 2.197 5.303 2.197s3.839-.732 5.303-2.197l31.062-31.062c2.929-2.929 2.929-7.678 0-10.606-2.929-2.929-7.678-2.929-10.606 0l-31.062 31.062c-2.929 2.928-2.929 7.677 0 10.606z"/><path d="m318.125 77.125c1.919 0 3.839-.732 5.303-2.197l62.124-62.125c2.929-2.929 2.929-7.678 0-10.606-2.929-2.929-7.678-2.929-10.606 0l-62.124 62.125c-2.929 2.929-2.929 7.678 0 10.606 1.464 1.465 3.384 2.197 5.303 2.197z"/><path d="m193.875 61.594c1.919 0 3.839-.732 5.303-2.197l46.594-46.594c2.929-2.929 2.929-7.678 0-10.606-2.929-2.929-7.678-2.929-10.606 0l-46.594 46.593c-2.929 2.929-2.929 7.678 0 10.606 1.464 1.465 3.384 2.198 5.303 2.198z"/><path d="m488.969 30.531c1.919 0 3.839-.732 5.303-2.197l15.531-15.531c2.929-2.929 2.929-7.678 0-10.606-2.929-2.929-7.678-2.929-10.606 0l-15.531 15.531c-2.929 2.929-2.929 7.678 0 10.606 1.464 1.465 3.383 2.197 5.303 2.197z"/><path d="m442.375 77.125c1.919 0 3.839-.732 5.303-2.197l15.531-15.531c2.929-2.929 2.929-7.678 0-10.606-2.929-2.929-7.678-2.929-10.606 0l-15.531 15.531c-2.929 2.929-2.929 7.678 0 10.606 1.464 1.465 3.384 2.197 5.303 2.197z"/><path d="m411.312 46.062c1.919 0 3.839-.732 5.303-2.197l15.531-15.531c2.929-2.929 2.929-7.678 0-10.606-2.929-2.929-7.678-2.929-10.606 0l-15.531 15.531c-2.929 2.929-2.929 7.678 0 10.606 1.465 1.465 3.384 2.197 5.303 2.197z"/></g><g/><g/><g/><g/><g/><g/><g/><g/><g/><g/><g/><g/><g/><g/><g/></svg>