<svg id="Capa_1" enable-background="new 0 0 512 512" viewBox="0 0 512 512" xmlns="http://www.w3.org/2000/svg"><g><path d="m201.64 119.21h23.564s11.406-10.337 11.406-10.337l27.66-42.576-18.87-37.74c-1.694-3.388-5.157-5.528-8.944-5.528h-38.053c-1.552 0-3.084.361-4.472 1.056l-25.246 12.623c-2.372 1.186-4.176 3.266-5.015 5.782l-7.15 21.451z" fill="#5f99d7"/><path d="m378.281 170.299 32.91 7.926c1.797.599 3.778.131 5.117-1.208l20.437-33.98-6.181-18.543c-1.361-4.083-5.183-6.838-9.487-6.838l-35.244.001c-2.652 0-5.196 1.054-7.071 2.929l-13.226 13.226 9.854 33.98c.593 1.186 1.633 2.088 2.891 2.507z" fill="#5f99d7"/><path d="m27.5 484.498 442.576 10.02c2.761 0 24.238-2.585 24.238-5.347l-2.851-95.525c0-1.736-7.275-15.422-7.876-16.997l-104.785-104.783h-29.614l-71.221-71.22c-14.065-14.065-33.142-21.967-53.033-21.967h-78.687c-9.283 0-18.185-3.688-24.749-10.251l-20.811-20.811z" fill="#e8ad8c"/><path d="m240.469 411.605h-.042l.042.042z" fill="#e8ad8c"/><path d="m471.973 303.161-25.876-25.876c-1.953-1.953-5.119-1.953-7.071 0l-.313.313-20 42.151 20 23.742 33.26-33.26c1.953-1.951 1.953-5.117 0-7.07z" fill="#5f99d7"/><path d="m418.713 297.599-15.531 36.371 15.531 29.523 20-20v-65.894z" fill="#3c87d0"/><path d="m494.542 387.606-10.956-10.956c.6 1.574.914 3.262.914 4.997v97.851c0 2.761-2.239 5-5 5h-452l-20 20h492c2.761 0 5-2.239 5-5v-87.851c0-9.017-3.582-17.665-9.958-24.041z" fill="#e19974"/><path d="m418.713 230.272c0-2.761-2.239-5-5-5h-203.212c-2.761 0-5 2.239-5 5v21.062c0 2.761 2.239 5 5 5h23.398l153.752 135.313 11.851 12.692 19.212-12.692v-161.375z" fill="#fe646f"/><path d="m387.651 391.647h31.062v20h-31.062z" fill="#fd4755"/><path d="m379.897 384.735-12.247-128.4h-133.751l-40.024 40.024v62.482c0 3.978 1.58 7.794 4.393 10.607l22.158 22.158 140.995 10c2.762-.001 18.476-14.109 18.476-16.871z" fill="#dff6fd"/><path d="m387.65 256.335h-20v130.271c0 2.761-2.239 5-5 5h-91.119l11.211 20h103.389l1.519-1.519z" fill="#99e6fc"/><path d="m318.221 369.055-47.84-47.84c-1.953-1.953-5.118-1.953-7.071 0l-56.637 56.637 13.753 13.754 40.48 10 41.836-10 15.479-15.479c1.953-1.954 1.953-5.12 0-7.072z" fill="#99e6fc"/><path d="m240.427 411.605h42.315l20-20h-82.315z" fill="#62dbfb"/><path d="m7.5 477.477v-464.969c0-4.455 5.386-6.685 8.536-3.536l64.652 64.652 10.853 64.933 5.703 67.554 83.644 85.951 7.604 81.783 25.562 32.752-27.939 26.614-73.188 1.901-33.267 28.04-40.871 2.851z" fill="#5f99d7"/><g fill="#3c87d0"><path d="m198.268 369.447c-2.813-2.813-4.393-6.628-4.393-10.607v-67.301c0-2.652-1.054-5.196-2.929-7.071l-85.865-85.865c-2.813-2.813-4.393-6.628-4.393-10.607v-88.159c0-3.978-1.58-7.794-4.393-10.607l-15.608-15.606v114.372c0 9.283 3.688 18.185 10.251 24.749l81.472 81.472c.938.938 1.464 2.209 1.464 3.536v61.087c0 9.283 3.688 18.185 10.251 24.749l16.715 16.715c1.953 1.953 1.953 5.119 0 7.071l-12.323 12.322c-1.875 1.875-4.418 2.928-7.07 2.928h-50.817c-14.691 0-28.503 5.721-38.891 16.11l-11.94 11.94c-1.875 1.875-4.419 2.929-7.071 2.929h-19.836c-18.017 0-34.709 8.603-45.392 23.873v27.021l20.643-20.643c6.564-6.564 15.466-10.251 24.749-10.251h19.838c7.956 0 15.587-3.161 21.213-8.787l11.94-11.94c6.564-6.564 15.466-10.251 24.749-10.251h50.817c7.956 0 15.587-3.161 21.213-8.787l16.376-16.376c3.751-3.751 8.838-5.858 14.142-5.858h7.247z"/><path d="m264.271 66.298-43.985 43.985c-.938.938-2.209 1.464-3.536 1.464h-10.352c-1.326 0-2.598-.527-3.536-1.465l-46.342-46.341-5.117 15.35c-1.198 3.593-.263 7.555 2.416 10.233l39.295 39.295c1.875 1.875 4.419 2.929 7.071 2.929h22.778c2.652 0 5.196-1.054 7.071-2.929l38.568-38.568c3.044-3.044 3.798-7.693 1.873-11.543z"/><path d="m354.858 26.252-15.672 7.836c-4.94 2.47-6.942 8.477-4.472 13.416l8.295 16.59c1.694 3.388 5.157 5.528 8.944 5.528h14.882c5.523 0 10-4.477 10-10v-16.92c0-2.652-1.054-5.196-2.929-7.071l-7.506-7.506c-3.043-3.043-7.692-3.798-11.542-1.873z"/><path d="m436.745 143.038-27.208 27.208c-1.339 1.339-3.32 1.807-5.117 1.208l-22.111-7.37c-1.258-.419-2.298-1.321-2.891-2.507l-13.881-27.764-9.811 9.811c-3.044 3.044-3.798 7.693-1.873 11.543l10.455 20.911c1.186 2.372 3.266 4.176 5.782 5.015l36.801 12.267c3.593 1.198 7.555.263 10.233-2.416l22.322-22.322c2.678-2.678 3.614-6.64 2.416-10.233z"/></g><circle cx="224.937" cy="466.272" r="7.5"/><circle cx="271.531" cy="450.741" r="7.5"/><circle cx="395.781" cy="466.272" r="7.5"/><circle cx="139.781" cy="124.248" r="7.5"/><circle cx="473.438" cy="100.685" r="7.5"/><circle cx="457.906" cy="209.404" r="7.5"/><circle cx="279.031" cy="154.779" r="7.5"/><circle cx="333.656" cy="100.685" r="7.5"/><circle cx="457.906" cy="450.741" r="7.5"/><path d="m61.594 256.335v-124.25c0-4.142-3.358-7.5-7.5-7.5s-7.5 3.358-7.5 7.5v124.25c0 4.142 3.358 7.5 7.5 7.5s7.5-3.358 7.5-7.5z"/><path d="m187.811 134.123c3.306 3.305 7.7 5.125 12.374 5.125h22.778c4.673 0 9.068-1.82 12.374-5.125l38.569-38.569c5.334-5.335 6.651-13.453 3.277-20.2l-25.075-50.15c-2.983-5.967-8.981-9.674-15.652-9.674h-38.053c-2.703 0-5.409.639-7.826 1.848l-25.246 12.622c-4.181 2.09-7.297 5.684-8.775 10.118l-12.267 36.801c-2.109 6.329-.489 13.191 4.228 17.908zm-29.293-52.461 12.267-36.801c.211-.634.656-1.147 1.253-1.446l25.246-12.623c.345-.172.732-.264 1.118-.264h38.053c.953 0 1.81.53 2.236 1.382l25.075 50.151c.482.964.293 2.124-.468 2.886l-38.568 38.567c-.473.473-1.101.733-1.768.733h-22.778c-.668 0-1.296-.26-1.768-.732l-39.294-39.295c-.674-.673-.905-1.653-.604-2.558z"/><path d="m373.458 115.283-23.037 23.038c-5.334 5.335-6.65 13.453-3.277 20.2l10.455 20.91c2.09 4.181 5.683 7.298 10.118 8.777l36.801 12.266c1.836.612 3.716.911 5.576.911 4.553 0 8.983-1.788 12.334-5.138l22.32-22.322c4.719-4.718 6.339-11.58 4.229-17.909l-11.298-33.893c-2.385-7.159-9.057-11.968-16.602-11.967h-35.244c-4.673 0-9.067 1.82-12.373 5.124-.001.002-.001.002-.002.003zm12.375 9.874h35.245c1.077 0 2.029.686 2.37 1.709l11.298 33.895c.302.903.07 1.883-.604 2.558l-22.32 22.322c-.674.674-1.655.906-2.559.604l-36.802-12.266c-.624-.208-1.15-.665-1.445-1.254l-10.456-20.911c-.481-.964-.293-2.125.469-2.886l23.035-23.036c.473-.474 1.101-.735 1.769-.735z"/><path d="m336.301 67.448c2.983 5.967 8.981 9.674 15.653 9.674h14.882c9.649 0 17.5-7.851 17.5-17.5v-16.92c0-4.674-1.82-9.069-5.125-12.374l-7.506-7.506c-5.335-5.334-13.454-6.652-20.201-3.279l-15.671 7.836c-4.182 2.09-7.299 5.684-8.776 10.119-1.479 4.435-1.142 9.179.949 13.361zm4.985-25.206c.123-.367.448-1.042 1.255-1.446l15.67-7.835c.965-.482 2.125-.294 2.887.468l7.506 7.506c.473.472.732 1.1.732 1.768v16.92c0 1.378-1.121 2.5-2.5 2.5h-14.882c-.953 0-1.81-.529-2.236-1.382l-8.296-16.59c-.402-.807-.258-1.542-.136-1.909z"/><path d="m499.846 382.302-44.668-44.668 22.098-22.098c2.361-2.361 3.662-5.5 3.662-8.84s-1.301-6.479-3.661-8.839l-25.877-25.875c-2.361-2.36-5.5-3.66-8.839-3.66s-6.479 1.3-8.839 3.661l-7.51 7.51v-49.22c0-6.893-5.607-12.5-12.5-12.5h-108.007l-22.435-22.425c-15.574-15.585-36.291-24.169-58.335-24.169h-78.69c-7.339 0-14.247-2.861-19.447-8.053l-18.611-18.611v-44.678c0-6.01-2.34-11.66-6.59-15.91l-80.258-80.258c-3.587-3.588-8.933-4.65-13.623-2.71-4.687 1.942-7.716 6.475-7.716 11.549v68.901c0 4.142 3.358 7.5 7.5 7.5s7.5-3.358 7.5-7.5v-62.866l75.991 75.991c1.417 1.417 2.197 3.3 2.197 5.303v157.531c0 11.352 4.421 22.025 12.448 30.052l44.108 44.108c1.464 1.464 3.384 2.197 5.303 2.197s3.839-.732 5.303-2.197c2.929-2.929 2.929-7.678 0-10.606l-44.108-44.108c-5.194-5.194-8.055-12.1-8.055-19.446v-45.052l77.456 77.456c.465.465.732 1.109.732 1.768v67.301c0 6.01 2.34 11.661 6.59 15.91l30.948 30.948c-3.785 1.351-7.253 3.536-10.179 6.462l-16.376 16.375c-4.25 4.25-9.9 6.59-15.91 6.59h-.083l-90.907-90.907c-2.929-2.929-7.678-2.929-10.606 0-2.929 2.929-2.929 7.678 0 10.606l80.3 80.3h-29.521c-11.352 0-22.025 4.421-30.052 12.448l-11.94 11.94c-4.25 4.25-9.9 6.59-15.91 6.59h-19.837c-11.352 0-22.025 4.421-30.052 12.448l-7.84 7.84v-369.982c0-4.142-3.358-7.5-7.5-7.5s-7.5 3.358-7.5 7.5v388.089c0 4.068 3.307 7.5 7.499 7.5h112.548c4.142 0 7.5-3.358 7.5-7.5s-3.358-7.5-7.5-7.5h-94.44l7.839-7.839c5.194-5.194 12.1-8.055 19.446-8.055h19.838c10.017 0 19.434-3.9 26.516-10.983l11.94-11.94c5.194-5.194 12.1-8.054 19.445-8.054h46.592c.371.056.745.084 1.12.084s.749-.028 1.12-.084h1.985c10.016 0 19.433-3.901 26.516-10.984l16.376-16.376c2.36-2.36 5.499-3.661 8.838-3.661h93.242c4.143 0 7.5-3.358 7.5-7.5s-3.357-7.5-7.5-7.5h-25.573l22.676-22.677c4.872-4.874 4.872-12.803 0-17.677l-47.841-47.84c-4.874-4.874-12.804-4.874-17.678 0l-51.333 51.334-3.102-3.102c-1.417-1.417-2.197-3.3-2.197-5.304v-59.375l35.63-35.63h143.148v38.208c0 4.142 3.357 7.5 7.5 7.5s7.5-3.358 7.5-7.5v-45.708c0-4.142-3.357-7.5-7.5-7.5h-174.649v-16.062h198.212v171.333h-16.063v-67.063c0-4.142-3.357-7.5-7.5-7.5s-7.5 3.358-7.5 7.5v67.063h-18.729c-4.143 0-7.5 3.358-7.5 7.5s3.357 7.5 7.5 7.5h80.953c4.143 0 7.5-3.358 7.5-7.5s-3.357-7.5-7.5-7.5h-16.162v-37.506l18.358-18.358 44.667 44.667c5.005 5.005 7.762 11.66 7.762 18.738v85.351h-341.952c-4.142 0-7.5 3.358-7.5 7.5s3.358 7.5 7.5 7.5h344.453c6.893 0 12.5-5.607 12.5-12.5v-87.851c0-11.085-4.316-21.507-12.154-29.345zm-233-54.017 44.305 44.305-31.515 31.515h-36.103l-26.253-26.253zm-56.345-110.513c-6.893 0-12.5 5.607-12.5 12.5v21.062c0 6.893 5.607 12.5 12.5 12.5h5.291l-17.614 17.614c-.572-.806-1.215-1.57-1.929-2.284l-85.865-85.864c-1.417-1.417-2.197-3.3-2.197-5.303v-22.27l8.008 8.008c8.036 8.024 18.708 12.443 30.049 12.443h78.69c18.035 0 34.984 7.021 47.728 19.774l11.825 11.819h-73.986zm215.712 82.934 16.349-16.349 22.34 22.34-38.688 38.688v-44.679z"/></g><g/><g/><g/><g/><g/><g/><g/><g/><g/><g/><g/><g/><g/><g/><g/></svg>