<svg id="Capa_1" enable-background="new 0 0 512 512" viewBox="0 0 512 512" xmlns="http://www.w3.org/2000/svg"><g><path d="m492.168 329.188-7.668-64.323-26.594-8.865-12.347-32.926c-6.586-17.564-23.377-29.199-42.135-29.199h-54.237l-17 140.987 142.872 7.485c2.762 0 17.109-10.398 17.109-13.159z" fill="#ffe177"/><path d="m487.406 265.833-2.906-.969v59.323c0 2.761-2.239 5-5 5h-130.312l-12.782 10.308 12.782 9.692h145.312c5.523 0 10-4.477 10-10v-49.637c0-10.761-6.886-20.314-17.094-23.717z" fill="#ffc344"/><path d="m17.5 131.75c-5.523 0-10 4.477-10 10v176.375l331.757 14.062-7.07-200.438h-314.687z" fill="#dff6fd"/><path d="m349.188 141.75c0-5.523-4.477-10-10-10h-7v186.375l6.714 10.321 10.286-10.321z" fill="#99e6fc"/><path d="m402.688 224.938h-19.938c-1.381 0-2.5 1.119-2.5 2.5v26.062c0 1.381 1.119 2.5 2.5 2.5h38.374c1.746 0 2.954-1.743 2.341-3.378l-6.732-17.952c-2.196-5.854-7.792-9.732-14.045-9.732z" fill="#5f99d7"/><circle cx="426.844" cy="349.188" fill="#5f99d7" r="31.062"/><path d="m332.188 327.188v-9.062h-108.836c-3.788 0-7.25-2.14-8.944-5.528l-5.857-11.715c-4.235-8.47-12.891-13.82-22.361-13.82h-108.88c-9.469 0-18.126 5.35-22.361 13.82l-5.857 11.715c-1.694 3.388-5.156 5.528-8.944 5.528h-32.648v14.062h319.688c2.761 0 5-2.239 5-5z" fill="#62dbfb"/><path d="m332.188 318.125v9.062c0 2.761-2.239 5-5 5h-319.688v12c0 2.761 2.239 5 5 5h336.688v-31.062z" fill="#01d0fb"/><path d="m139.198 256h-83.188c-2.761 0-5-2.239-5-5v-57.125h93.187v57.125c.001 2.761-2.238 5-4.999 5z" fill="#e8ad8c"/><path d="m75.892 162.812h-32.323c-3.717 0-6.134 3.912-4.472 7.236l11.913 23.826h46.594l-12.768-25.534c-1.693-3.387-5.156-5.528-8.944-5.528z" fill="#e19974"/><path d="m119.315 162.812h32.323c3.717 0 6.134 3.912 4.472 7.236l-11.913 23.826h-46.593l12.767-25.535c1.694-3.386 5.157-5.527 8.944-5.527z" fill="#e19974"/><circle cx="100.688" cy="349.188" fill="#5f99d7" r="31.062"/><circle cx="162.812" cy="349.188" fill="#5f99d7" r="31.062"/><circle cx="100.688" cy="349.188" r="7.5"/><circle cx="162.812" cy="349.188" r="7.5"/><circle cx="426.844" cy="349.188" r="7.5"/><path d="m489.781 258.713-26.105-8.699-11.094-29.569c-7.643-20.376-27.399-34.066-49.162-34.066h-46.732v-44.629c0-9.649-7.851-17.5-17.5-17.5h-253.178c-4.143 0-7.5 3.358-7.5 7.5s3.357 7.5 7.5 7.5h253.178c1.379 0 2.5 1.122 2.5 2.5v97.043c0 4.142 3.357 7.5 7.5 7.5s7.5-3.358 7.5-7.5v-37.414h46.732c15.546 0 29.658 9.779 35.117 24.334l12.351 32.92c.795 2.119 2.505 3.766 4.651 4.481l29.493 9.828c7.158 2.394 11.968 9.067 11.968 16.607v49.64c0 1.378-1.121 2.5-2.5 2.5h-29.826c-3.5-17.687-19.132-31.064-37.83-31.064s-34.331 13.377-37.83 31.064h-32.326v-67.896c0-4.142-3.357-7.5-7.5-7.5s-7.5 3.358-7.5 7.5v36.832h-47.341c-4.143 0-7.5 3.358-7.5 7.5s3.357 7.5 7.5 7.5h47.341v16.062h-141.046c-3.5-17.686-19.132-31.062-37.83-31.062-12.728 0-24.035 6.199-31.062 15.736-7.027-9.537-18.334-15.736-31.062-15.736-18.698 0-34.33 13.376-37.83 31.062h-47.858v-16.062h25.147c6.672 0 12.67-3.707 15.652-9.674l5.857-11.714c2.984-5.967 8.982-9.674 15.653-9.674h108.879c6.671 0 12.669 3.707 15.653 9.674l5.856 11.714c2.983 5.967 8.981 9.674 15.653 9.674h34.994c4.143 0 7.5-3.358 7.5-7.5s-3.357-7.5-7.5-7.5h-34.994c-.953 0-1.81-.529-2.236-1.382l-5.857-11.715c-5.541-11.082-16.68-17.965-29.069-17.965h-108.877c-12.39 0-23.528 6.884-29.069 17.966l-5.858 11.715c-.426.852-1.282 1.381-2.235 1.381h-25.149v-168.875c0-1.378 1.121-2.5 2.5-2.5h33.51c4.143 0 7.5-3.358 7.5-7.5s-3.357-7.5-7.5-7.5h-33.51c-9.649 0-17.5 7.851-17.5 17.5v202.438c0 6.893 5.607 12.5 12.5 12.5h50.358c3.5 17.686 19.132 31.062 37.83 31.062 12.728 0 24.035-6.199 31.062-15.736 7.027 9.537 18.334 15.736 31.062 15.736 18.698 0 34.33-13.376 37.83-31.062l188.372.001c3.5 17.685 19.132 31.061 37.829 31.061s34.329-13.376 37.829-31.061h29.828c9.649 0 17.5-7.851 17.5-17.5v-49.64c0-14.001-8.926-26.392-22.219-30.836zm-389.093 114.037c-12.992 0-23.562-10.57-23.562-23.562s10.57-23.562 23.562-23.562 23.562 10.57 23.562 23.562-10.57 23.562-23.562 23.562zm62.124 0c-12.992 0-23.562-10.57-23.562-23.562s10.57-23.562 23.562-23.562 23.562 10.57 23.562 23.562-10.569 23.562-23.562 23.562zm264.032 0c-12.992 0-23.562-10.57-23.562-23.562s10.57-23.562 23.562-23.562 23.562 10.57 23.562 23.562-10.57 23.562-23.562 23.562z"/><path d="m421.124 263.5c3.279 0 6.353-1.609 8.22-4.305 1.868-2.696 2.295-6.138 1.144-9.206l-6.731-17.953c-3.276-8.732-11.742-14.599-21.067-14.599h-19.94c-5.514 0-10 4.486-10 10v26.063c0 5.514 4.486 10 10 10zm-33.374-31.062h14.938c3.108 0 5.931 1.956 7.022 4.866l4.198 11.196h-26.158z"/><circle cx="468.438" cy="302.594" r="7.5"/><path d="m56.01 263.5h83.188c6.893 0 12.5-5.607 12.5-12.5v-55.354l11.121-22.242c1.952-3.903 1.748-8.45-.546-12.163-2.294-3.712-6.27-5.929-10.634-5.929h-32.323c-6.672 0-12.67 3.707-15.652 9.674l-6.059 12.119-6.059-12.118c-2.983-5.967-8.98-9.674-15.652-9.674h-32.325c-4.364 0-8.339 2.216-10.634 5.928-2.294 3.712-2.499 8.258-.547 12.162l11.121 22.241v55.356c.001 6.893 5.608 12.5 12.501 12.5zm80.687-15h-78.187v-47.125h78.188v47.125zm-17.382-78.188h28.278l-8.031 16.062h-29.824l7.341-14.681c.427-.851 1.283-1.381 2.236-1.381zm-43.422 0c.952 0 1.809.529 2.235 1.382l7.34 14.681h-29.823l-8.031-16.062h28.279z"/><path d="m201.375 256v-77.656c0-4.142-3.357-7.5-7.5-7.5s-7.5 3.358-7.5 7.5v77.656c0 4.142 3.357 7.5 7.5 7.5s7.5-3.358 7.5-7.5z"/><path d="m230.114 263.5c4.143 0 7.5-3.358 7.5-7.5v-77.656c0-4.142-3.357-7.5-7.5-7.5s-7.5 3.358-7.5 7.5v77.656c0 4.142 3.358 7.5 7.5 7.5z"/><path d="m273.854 256v-77.656c0-4.142-3.357-7.5-7.5-7.5s-7.5 3.358-7.5 7.5v77.656c0 4.142 3.357 7.5 7.5 7.5s7.5-3.358 7.5-7.5z"/><path d="m310.094 256v-77.656c0-4.142-3.357-7.5-7.5-7.5s-7.5 3.358-7.5 7.5v77.656c0 4.142 3.357 7.5 7.5 7.5s7.5-3.358 7.5-7.5z"/></g><g/><g/><g/><g/><g/><g/><g/><g/><g/><g/><g/><g/><g/><g/><g/></svg>