<svg id="Capa_1" enable-background="new 0 0 511.996 511.996" viewBox="0 0 511.996 511.996" xmlns="http://www.w3.org/2000/svg"><g><path d="m437.789 186.058c0-48.52-25.45-97.3-54.876-131.332-34.032-29.426-78.395-47.226-126.915-47.226-107.221 0-194.141 86.92-194.141 194.141 0 48.52 17.8 92.883 47.225 126.915 34.032 29.425 92.22 55.207 140.741 55.207 107.221 0 187.966-90.484 187.966-197.705z" fill="#ffe177"/><path d="m382.913 54.725c29.425 34.032 47.225 78.395 47.225 126.915 0 107.221-86.92 194.141-194.141 194.141-48.52 0-92.883-17.8-126.915-47.225 35.599 41.173 88.215 67.225 146.915 67.225 107.221 0 194.141-86.92 194.141-194.141.001-58.7-26.052-111.315-67.225-146.915z" fill="#ffc344"/><path d="m362.605 120.102v-16.826c0-14.918-19.537-27.569-32.98-31.98-13.443 4.411-23.151 17.062-23.151 31.98v16.826c0 14.918 9.708 27.569 23.151 31.98 13.443-4.411 32.98-17.062 32.98-31.98z" fill="#5f99d7"/><path d="m340.125 69.625c-3.667 0-7.196.587-10.5 1.671 13.443 4.411 23.151 17.062 23.151 31.98v16.826c0 14.918-9.708 27.569-23.151 31.98 3.304 1.084 6.833 1.671 10.5 1.671 18.585 0 33.651-15.066 33.651-33.651v-16.826c0-18.585-15.066-33.651-33.651-33.651z" fill="#3c87d0"/><path d="m195.08 184.815c0-13.47-21.722-24.937-33.71-29.242-11.988 4.305-20.562 15.772-20.562 29.242s8.574 24.937 20.562 29.242c11.989-4.305 33.71-15.772 33.71-29.242z" fill="#5f99d7"/><path d="m171.87 153.753c-3.685 0-7.22.642-10.5 1.82 11.988 4.305 20.562 15.772 20.562 29.242s-8.574 24.937-20.562 29.242c3.28 1.178 6.815 1.82 10.5 1.82 17.155 0 31.062-13.907 31.062-31.062s-13.906-31.062-31.062-31.062z" fill="#3c87d0"/><path d="m369.021 488.661c-1.442-2.972-2.317-11.148-2.317-14.614l-1.232-230.369c0-2.761-.638 1.775 2.123 1.775l6.18 120.007c0 7.46 7.85 15.1 17.4 14.78 9.14-.31 16.25-8.12 16.25-17.26v-148.165c0-16.569-13.431-30-30-30h-70.03c-13.578 0-25.464 9.12-28.978 22.236l-24.212 90.374-31.235-40.7c-4.732-6.165-12.061-9.78-19.833-9.78h-73.572c-13.807 0-25 11.193-25 25v97.52c0 9.14 7.11 16.94 16.24 17.25 9.56.32 17.41-7.33 17.41-16.82v99.604c0 1.087-.705 2.043-1.74 2.373-6.181 1.97-11.159 6.64-13.546 12.625l67.399 12.125c1.917 0 14.503-10.465 13.545-12.125-1.927-3.338-5.703-15.649-5.703-19.716l-2.354-166.343 9.711-9.162 38.83 50.604c10.095 13.156 30.894 9.018 35.186-7l26.934-100.534v237.153c0 1.087-.705 2.043-1.741 2.373-6.188 1.97-11.168 6.64-13.555 12.625l65.366 9.69c1.849-.001 13.282-3.861 12.474-5.526z" fill="#5f99d7"/><path d="m190.525 469.499c0 4.067 1.077 7.925 3.004 11.262.959 1.66-.304 3.735-2.221 3.735h-68.379c-.989 2.481-1.534 5.187-1.534 8.02v6.57c0 2.99 2.42 5.41 5.42 5.41h90.11c3 0 5.42-2.42 5.42-5.41v-6.57c0-9.669-6.336-17.858-15.079-20.645-1.035-.33-1.74-1.286-1.74-2.373v-180.224h-10c-2.761 0-5 2.239-5 5v175.225z" fill="#3c87d0"/><path d="m375.842 473.603c-1.2-.176-2.066-1.248-2.066-2.461v-105.682-134.051h-12.001c-2.761 0-5 2.239-5 5v234.734c0 3.466.806 6.783 2.248 9.756.808 1.665-.387 3.598-2.238 3.598h-65.606c-.99 2.481-1.534 5.187-1.534 8.02v6.57c0 2.988 2.422 5.41 5.41 5.41h90.13c2.993 0 5.42-2.427 5.42-5.42v-6.56c0-9.55-6.18-17.656-14.763-18.914z" fill="#3c87d0"/><g><path d="m340.125 161.252c22.691 0 41.151-18.46 41.151-41.151v-16.826c0-22.69-18.46-41.151-41.151-41.151s-41.151 18.46-41.151 41.151v16.826c0 22.691 18.46 41.151 41.151 41.151zm-26.151-57.976c0-14.419 11.731-26.151 26.151-26.151s26.151 11.731 26.151 26.151v16.826c0 14.419-11.731 26.151-26.151 26.151s-26.151-11.731-26.151-26.151z"/><path d="m210.433 184.815c0-21.264-17.299-38.562-38.562-38.562s-38.562 17.299-38.562 38.562 17.299 38.562 38.562 38.562 38.562-17.298 38.562-38.562zm-62.125 0c0-12.992 10.57-23.562 23.562-23.562s23.562 10.57 23.562 23.562-10.57 23.562-23.562 23.562-23.562-10.57-23.562-23.562z"/><path d="m213.025 466.083v-17.121c0-4.142-3.357-7.5-7.5-7.5s-7.5 3.358-7.5 7.5v20.537c0 4.366 2.798 8.191 6.963 9.519 5.896 1.879 9.857 7.304 9.857 13.499v4.48h-35.475v-133.574c0-4.142-3.357-7.5-7.5-7.5s-7.5 3.358-7.5 7.5v133.573h-35.476v-4.48c0-6.195 3.962-11.62 9.858-13.499 4.164-1.328 6.962-5.153 6.962-9.519l.004-180.224c0-4.142-3.357-7.5-7.5-7.5s-7.5 3.358-7.5 7.5c0 0-.004 80.542-.004 80.62 0 2.552-1.01 4.934-2.844 6.708-1.834 1.773-4.263 2.695-6.812 2.617-4.96-.168-8.995-4.544-8.995-9.754v-97.52c0-9.649 7.851-17.5 17.5-17.5h73.572c5.403 0 10.594 2.559 13.883 6.845l31.234 40.701c1.738 2.266 4.612 3.345 7.414 2.79 2.801-.557 5.042-2.657 5.78-5.415l24.213-90.374c2.631-9.819 11.568-16.677 21.734-16.677h70.029c12.406 0 22.5 10.093 22.5 22.5v22.757c0 4.142 3.357 7.5 7.5 7.5s7.5-3.358 7.5-7.5v-22.757c0-20.678-16.822-37.5-37.5-37.5h-70.029c-16.943 0-31.839 11.43-36.223 27.795l-20.277 75.684-21.976-28.636c-6.11-7.96-15.748-12.713-25.783-12.713h-73.572c-17.921 0-32.5 14.58-32.5 32.5v27.643c-18.188-29.332-27.708-62.801-27.708-97.948 0-45.848 16.781-89.929 47.253-124.123 2.756-3.092 2.482-7.833-.609-10.589-3.094-2.756-7.835-2.483-10.59.609-32.923 36.945-51.054 84.57-51.054 134.103 0 45.49 14.764 88.381 42.708 124.107v43.718c0 13.205 10.535 24.306 23.489 24.746 3.557.123 6.992-.513 10.161-1.829v73.701c-10.195 4.738-16.82 14.943-16.82 26.433v6.57c0 7.119 5.796 12.91 12.92 12.91h90.11c7.124 0 12.92-5.791 12.92-12.91v-6.57c.004-11.491-6.621-21.696-16.817-26.433z"/><path d="m457.639 201.641c0-111.185-90.456-201.641-201.641-201.641-45.267 0-88.035 14.654-123.685 42.377-3.27 2.543-3.858 7.255-1.316 10.524 2.545 3.271 7.255 3.858 10.525 1.316 32.992-25.655 72.577-39.217 114.476-39.217 102.914 0 186.641 83.727 186.641 186.641 0 35.15-9.522 68.622-27.713 97.956v-27.025c0-4.142-3.357-7.5-7.5-7.5s-7.5 3.358-7.5 7.5v90.408c0 5.215-4.039 9.596-9.001 9.764-2.686.083-5.381-.958-7.362-2.874-1.4-1.353-2.273-3.027-2.286-4.378 0-.009 0-134.084 0-134.084 0-4.142-3.357-7.5-7.5-7.5s-7.5 3.358-7.5 7.5l-.001 239.734c0 4.923 3.645 9.171 8.479 9.882 4.762.698 8.352 5.638 8.352 11.492v4.48h-35.48v-168.518c0-4.142-3.357-7.5-7.5-7.5s-7.5 3.358-7.5 7.5v168.518h-35.479v-4.48c0-6.196 3.964-11.62 9.862-13.498 4.168-1.326 6.968-5.151 6.968-9.52v-237.153c0-3.764-2.79-6.945-6.521-7.436-3.731-.492-7.249 1.86-8.223 5.495l-26.935 100.534c-1.26 4.702-4.861 8.075-9.636 9.025-4.771.949-9.393-.789-12.355-4.65l-38.83-50.604c-1.957-2.55-5.319-3.569-8.361-2.536s-5.089 3.889-5.089 7.102v124.687c0 4.142 3.357 7.5 7.5 7.5s7.5-3.358 7.5-7.5v-15.273c14.055 3.049 28.471 4.592 42.973 4.592s28.921-1.543 42.978-4.593v67.392c-10.201 4.736-16.83 14.942-16.83 26.436v6.57c0 7.119 5.791 12.91 12.91 12.91h90.13c7.124 0 12.92-5.796 12.92-12.92v-6.56c0-11.812-6.859-21.788-16.83-25.269v-81.319c3.209 1.291 6.677 1.928 10.154 1.807 12.956-.439 23.496-11.545 23.496-24.755v-37.228c27.944-35.726 42.71-78.619 42.71-124.111zm-201.641 186.64c-14.529 0-28.962-1.671-42.973-4.971v-71.941l25.38 33.076c6.422 8.369 16.843 12.29 27.183 10.23 10.346-2.058 18.468-9.666 21.197-19.854l12.19-45.5v93.989c-14.012 3.3-28.446 4.971-42.977 4.971z"/></g></g><g/><g/><g/><g/><g/><g/><g/><g/><g/><g/><g/><g/><g/><g/><g/></svg>