<svg id="Capa_1" enable-background="new 0 0 512 512" viewBox="0 0 512 512" xmlns="http://www.w3.org/2000/svg"><g><path d="m323.134 152.753-4.488-55.715c-22.076-10.159-45.183-35.925-62.646-52.752-22.892 14.236-50.75 51.676-77.656 54.997v47.023c0 39.642 29.355 73.004 67.688 77.989 38.15-4.921 77.102-32.053 77.102-71.542z" fill="#e8ad8c"/><path d="m313.656 147.281c0 39.489-29.475 72.093-67.624 77.014 3.072.4 6.202.617 9.379.64 43.158.32 78.245-34.57 78.245-77.654v-25.897c-3.019-1.04-4.919-22.701-7.881-23.87-3.724-1.47-8.493 17.515-12.119 15.846z" fill="#e19974"/><path d="m323.134 83.496c0-18.327-15.827-42.086-26.446-55.368l-16.756 13.307c-10.154 10.154-14.003 23.683-26.004 31.145 17.463 16.826 37.651 30.621 59.728 40.78z" fill="#99e6fc"/><path d="m306.892 26.499-14.098-1.133 3.894 11.336c10.619 13.282 16.968 30.127 16.968 48.454v28.204c6.51 2.996 13.183 5.676 20 8.024v-36.228c0-23.42-10.368-44.419-26.764-58.657z" fill="#62dbfb"/><path d="m190.34 487.937 2.604-10.701c0-30.376 17.149-50.393 47.525-50.393l83.719 1.918c2.761 0 13.278-3.846 13.278-6.607l-.878-72.967c0-11.046 5.35-10.982 16.396-10.982l33.329-9.018c2.761 0 16.784 4.565 16.784 1.804l-3.064-29.021c0-24.813-28.907-45.97-53.72-45.97h-180.625c-35.898 0-65 29.102-65 65v163.5l79.781 8.776c2.761 0 9.871-2.577 9.871-5.339z" fill="#e8ad8c"/><path d="m411.312 349.188v-28.188c0-35.898-29.102-65-65-65 24.813 0 45 20.187 45 45v23.188c0 2.761-2.239 5-5 5h-37.125c-11.046 0-20 8.954-20 20v68.188c0 2.761-2.239 5-5 5h-83.719c-30.376 0-55 24.624-55 55v2.125c0 2.761-2.239 5-5 5h-79.781v10c0 5.523 4.477 10 10 10h94.781l168.184-35.342z" fill="#e19974"/><path d="m334.627 422.375-5.439-21.964-144.411-144.411h-19.089c-7.452 0-14.61 1.254-21.277 3.562l162.812 162.812 19 8.169c2.761.001 8.404-5.407 8.404-8.168z" fill="#99e6fc"/><path d="m329.188 417.375c0 2.761-2.239 5-5 5h-16.964l20 20h21.964v-21.964l-20-20z" fill="#62dbfb"/><path d="m399.676 466.84-8.364-117.653h-42.125v93.188h-108.718c-19.33 0-35 15.67-35 35v7.125l157.138 11.984c13.785 0 37.069-15.859 37.069-29.644z" fill="#dff6fd"/><path d="m391.312 349.188v110.312c0 13.785-11.215 25-25 25h-160.843v20h160.844c24.853 0 45-20.147 45-45v-110.312z" fill="#99e6fc"/><path d="m296.688 36.702c-3.666-4.585-3.763-12.887-8.157-16.416-11.23-9.018-28.51-10.31-42.289-12.179-38.283 4.799-67.899 37.465-67.899 77.049v14.127c41.01-5.062 79.421-23.657 108.945-53.181z" fill="#dff6fd"/><path d="m296.688 36.702 10.203-10.203c-13.629-11.835-31.423-18.999-50.891-18.999-3.305 0-6.561.207-9.757.607 19.17 2.601 37.411 12.291 50.445 28.595z" fill="#99e6fc"/><path d="m247.143 157.781h5.786c10.713 0 19.429-8.716 19.429-19.429v-16.192c0-4.143-3.357-7.5-7.5-7.5s-7.5 3.357-7.5 7.5v16.192c0 2.442-1.986 4.429-4.429 4.429h-5.786c-4.143 0-7.5 3.357-7.5 7.5s3.357 7.5 7.5 7.5z"/><path d="m255.355 232.436c.218.001.432.002.649.002 22.63-.001 43.912-8.764 59.985-24.718 16.229-16.109 25.166-37.573 25.166-60.438v-62.126c0-24.681-10.696-48.124-29.347-64.32-.016-.014-.032-.027-.048-.041-15.464-13.41-35.265-20.795-55.76-20.795-46.955 0-85.156 38.201-85.156 85.156v61.15c0 47.147 37.912 85.784 84.511 86.13zm23.758-168.779c14.169 12.07 29.956 21.971 47.043 29.499v17.434c-22.087-8.862-42.241-21.28-60.113-37.041 4.49-3.109 8.852-6.408 13.07-9.892zm46.49 12.701c-12.619-6.187-24.405-13.821-35.197-22.801 1.935-1.874 1.919-1.895 16.602-16.566 10.23 10.836 16.733 24.626 18.595 39.367zm-69.603-61.358c2.502 0 4.992.134 7.459.398l-3.44 3.44c-3.825 3.826-7.886 7.473-12.07 10.84-3.227 2.597-3.737 7.317-1.141 10.545 1.481 1.841 3.654 2.798 5.848 2.798 1.65 0 3.312-.542 4.697-1.657 4.603-3.703 9.068-7.713 13.273-11.918l9.988-9.988c5.26 1.97 10.283 4.571 14.952 7.761-7.341 5.705-40.858 51.475-109.723 63.375v-5.437c0-3.744.295-7.42.863-11.007 13.624-2.628 26.824-6.988 39.294-12.985 3.733-1.795 5.304-6.276 3.509-10.009-1.795-3.734-6.277-5.305-10.009-3.509-8.988 4.322-18.396 7.706-28.084 10.11 10.692-25.109 35.616-42.757 64.584-42.757zm-70.156 90.797c23.653-3.76 46.432-11.935 67.051-23.899 21.424 19.633 46.028 34.668 73.262 44.769v20.614c0 18.838-7.363 36.521-20.733 49.792-13.242 13.145-30.774 20.364-49.421 20.364-.179 0-.356 0-.535-.002-38.391-.284-69.623-32.192-69.623-71.129v-40.509z"/><path d="m346.312 248.5h-37.922c-4.143 0-7.5 3.357-7.5 7.5s3.357 7.5 7.5 7.5h37.922c31.706 0 57.5 25.794 57.5 57.5v20.688h-47.125v-8.031c0-4.143-3.357-7.5-7.5-7.5s-7.5 3.357-7.5 7.5v68.646l-138.802-138.803h70.506c4.143 0 7.5-3.357 7.5-7.5s-3.357-7.5-7.5-7.5h-107.703c-39.977 0-72.5 32.523-72.5 72.5v173.5c0 9.649 7.851 17.5 17.5 17.5h255.625c28.948 0 52.5-23.552 52.5-52.5v-138.5c-.001-39.977-32.524-72.5-72.501-72.5zm51.277 231.669-30.298-30.298h36.521v9.629c0 7.632-2.292 14.739-6.223 20.669zm-102.496-30.294v47.125h-31.59v-47.125zm15 0h31.59v47.125h-31.59zm46.595-15.004v-31.59h47.125v31.59zm47.124-78.183v31.594h-47.125v-31.594zm-295.624 137.812v-173.5c0-23.494 14.163-43.742 34.399-52.654l99.252 99.253c1.465 1.464 3.384 2.196 5.304 2.196 1.919 0 3.839-.732 5.304-2.196 2.929-2.93 2.929-7.678 0-10.607l-93.138-93.139c2.095-.232 4.224-.352 6.38-.352h15.982l160.018 160.018v11.357h-11.359l-52.858-52.858c-2.93-2.928-7.678-2.928-10.607 0-2.929 2.93-2.929 7.678 0 10.607l42.251 42.251h-68.646c-23.435 0-42.5 19.065-42.5 42.5v19.624h-27.656v-163.344c0-4.143-3.357-7.5-7.5-7.5s-7.5 3.357-7.5 7.5v163.344h-44.625c-1.38 0-2.501-1.121-2.501-2.5zm104.781-17.125c0-15.163 12.337-27.5 27.5-27.5h8.034v47.125h-35.534zm143.714 19.625v-36.522l30.299 30.299c-5.93 3.932-13.036 6.224-20.669 6.224h-9.63z"/></g><g/><g/><g/><g/><g/><g/><g/><g/><g/><g/><g/><g/><g/><g/><g/></svg>