<svg id="Capa_1" enable-background="new 0 0 512.013 512.013" viewBox="0 0 512.013 512.013" xmlns="http://www.w3.org/2000/svg"><g><circle cx="380.257" cy="116.225" r="7.5"/><circle cx="395.788" cy="69.632" r="7.5"/><circle cx="163.898" cy="147.288" r="7.5"/><circle cx="116.225" cy="69.632" r="7.5"/><path d="m473.522 463.774-39.205-54.696c-48.329-60.411-97.155-115.938-132.948-184.134l-100.879 10.062-17.572 23.292c-6.664 11.662-30.712 28.779-30.712 28.779-25.627 41.544-53.771 81.497-84.28 119.633l-49.813 62.266 444.781 8.676c4.192 0 13.246-10.605 10.628-13.878z" fill="#e8ad8c"/><path d="m345.35 44.833c-8.219-4.012-17.456-6.264-27.218-6.264-2.532 0-6.415.296-10.042.853-2.031.312-4.047-.652-5.081-2.428-4.846-8.324-14.619-13.956-23.705-13.956-6.19 0-14.333 3.376-19.781 8.764-1.948 1.927-5.084 1.928-7.032.001-5.447-5.389-13.592-8.765-19.781-8.765-9.087 0-18.859 5.632-23.705 13.956-1.033 1.776-3.05 2.74-5.081 2.428-3.627-.557-7.51-.853-10.042-.853-9.762 0-18.999 2.252-27.218 6.264-9.424 4.6-11.569 17.074-4.153 24.489l.458.458c4.641 4.641 11.67 5.658 17.597 2.841 4.036-1.918 8.55-2.991 13.316-2.991 17.155 0 31.062 13.907 31.062 31.062v104.25l39.112 7.305c2.761 0 11.406-5.437 11.406-8.198l1.782-96.238c0-39.259 36-58.455 75.567-43.415 2.965-7.14.088-15.878-7.461-19.563z" fill="#fe646f"/><path d="m267.069 103.694v96.25c0 2.761-2.239 5-5 5h-37.125v20h62.125v-124.25c0-17.155 13.907-31.062 31.062-31.062 4.765 0 9.28 1.073 13.316 2.991 5.927 2.817 12.957 1.799 17.597-2.841l.458-.458c1.475-1.475 2.572-3.151 3.308-4.924-41.208-29.016-85.741.036-85.741 39.294z" fill="#fd4755"/><path d="m126.611 151.538c-5.371 9.303-17.267 12.49-26.57 7.119s-12.49-17.267-7.119-26.57c4.21-7.292 22.927-15.807 30.82-19.147 1.789-.757 3.802.405 4.041 2.333 1.054 8.506 3.039 28.973-1.172 36.265z" fill="#fe646f"/><path d="m375.021 199.684c5.371 9.303 17.267 12.49 26.57 7.119s12.49-17.267 7.119-26.57c-4.21-7.292-22.927-15.807-30.82-19.147-1.789-.757-3.802.405-4.041 2.333-1.054 8.507-3.038 28.973 1.172 36.265z" fill="#fe646f"/><path d="m503.402 480.852-59.314-74.142c-30.509-38.136-58.653-78.089-84.28-119.633 0 0-32.655-41.059-42.143-41.059l-16.297-21.074c35.794 68.195 78.773 133.849 127.102 194.26l33.319 41.648c2.619 3.274.288 8.123-3.904 8.123h-439.772l-9.501 11.877c-2.619 3.274-.288 8.123 3.904 8.123h486.981c4.193 0 6.524-4.849 3.905-8.123z" fill="#e19974"/><path d="m188.602 276.818 14.378-14.378c2.374-2.374 6.433-.693 6.433 2.665 0 12.58 10.575 22.689 23.321 21.923 5.499-.33 10.638-2.855 14.534-6.751l17.838-17.838c2.374-2.374 6.433-.693 6.433 2.665v114.713c0 8.363 6.427 15.559 14.78 15.952 8.919.42 16.282-6.687 16.282-15.513v-115.151c0-3.357 4.059-5.039 6.433-2.665l14.378 14.378c3.286 3.286 7.159 5.852 11.372 7.594 0 0 1.31-25.468-3.541-34.024-7.303-12.88-32.483-30.443-32.483-30.443h-90.203c-10.964 0-21.024 5.998-26.313 15.602-9.596 17.426-19.616 34.606-30.052 51.523h11.66c9.284-.001 18.186-3.688 24.75-10.252z" fill="#fe646f"/><path d="m298.76 219.944c11.294 21.77 23.321 43.288 36.024 64.468 4.202 1.738 8.742 2.657 13.377 2.657h11.66c-10.435-16.917-20.455-34.097-30.051-51.523-5.289-9.604-15.349-15.602-26.313-15.602z" fill="#fd4755"/><path d="m96.292 165.153c4.152 2.398 8.761 3.623 13.432 3.623 2.34 0 4.697-.308 7.019-.93 6.953-1.863 12.765-6.322 16.364-12.557 3.931-6.809 4.644-20.582 2.12-40.938-.406-3.274-2.277-6.097-5.133-7.745-2.854-1.648-6.234-1.856-9.274-.572-18.891 7.993-30.462 15.497-34.393 22.304-3.6 6.234-4.556 13.498-2.692 20.451 1.862 6.953 6.322 12.765 12.557 16.364zm3.125-29.315c1.442-2.498 8.738-7.599 21.594-13.5 1.317 14.083.548 22.951-.895 25.45-3.295 5.707-10.618 7.668-16.324 4.374-2.765-1.596-4.742-4.173-5.568-7.256-.827-3.083-.403-6.304 1.193-9.068z"/><path d="m384.89 215.992c2.321.622 4.678.93 7.019.93 4.67 0 9.279-1.225 13.432-3.623 12.869-7.431 17.294-23.946 9.864-36.815-3.93-6.807-15.501-14.311-34.394-22.304-3.038-1.286-6.418-1.077-9.275.573-2.855 1.649-4.726 4.473-5.13 7.745-2.523 20.356-1.811 34.13 2.119 40.938 3.6 6.233 9.411 10.692 16.365 12.556zm-4.268-45.507c12.856 5.901 20.15 11.001 21.593 13.499 3.295 5.707 1.332 13.03-4.374 16.325-2.765 1.595-5.985 2.02-9.068 1.194-3.084-.826-5.661-2.804-7.257-5.568-1.442-2.499-2.211-11.367-.894-25.45z"/><path d="m144.092 404.81c1.033.487 2.12.717 3.191.717 2.813 0 5.511-1.591 6.79-4.306 12.623-26.796 24.676-54.764 35.824-83.125 1.515-3.855-.382-8.208-4.236-9.724-3.855-1.517-8.209.381-9.725 4.236-11.028 28.057-22.949 55.72-35.434 82.22-1.764 3.749-.157 8.217 3.59 9.982z"/><path d="m136.735 420.089c-3.733-1.791-8.214-.219-10.007 3.515l-13.022 27.125c-1.793 3.734-.22 8.214 3.515 10.007 1.047.502 2.152.741 3.241.741 2.794 0 5.476-1.569 6.766-4.256l13.022-27.125c1.793-3.734.22-8.214-3.515-10.007z"/><path d="m225.99 356.62c.355.05.708.075 1.058.075 3.677 0 6.888-2.707 7.417-6.453 1.443-10.234 2.873-20.707 4.247-31.128.542-4.106-2.349-7.875-6.455-8.416-4.107-.544-7.874 2.348-8.416 6.455-1.368 10.377-2.791 20.805-4.229 30.994-.579 4.101 2.277 7.895 6.378 8.473z"/><path d="m212.705 394.631c-1.168 7.488-1.212 7.665-9.284 58.16-.654 4.09 2.132 7.936 6.222 8.59.401.064.8.095 1.193.095 3.62 0 6.807-2.628 7.397-6.316 8.026-50.212 7.989-49.876 9.292-58.215.639-4.092-2.16-7.928-6.253-8.567-4.095-.643-7.927 2.16-8.567 6.253z"/><path d="m301.178 461.476c.394 0 .793-.031 1.193-.095 4.091-.654 6.876-4.5 6.222-8.591l-4.5-28.123c-.655-4.09-4.508-6.877-8.591-6.221-4.091.654-6.876 4.5-6.222 8.591l4.5 28.123c.591 3.689 3.777 6.316 7.398 6.316z"/><path d="m384.786 457.222c1.29 2.687 3.972 4.256 6.766 4.256 1.089 0 2.194-.238 3.241-.741 3.734-1.793 5.308-6.273 3.515-10.007l-22.689-47.262c-12.26-25.538-24.034-52.262-34.996-79.43-1.55-3.841-5.918-5.701-9.762-4.149-3.841 1.55-5.698 5.92-4.148 9.761 11.081 27.464 22.986 54.484 35.384 80.31z"/><path d="m254.168 93.187c.6 0 1.21-.073 1.817-.224 4.02-1 6.467-5.07 5.467-9.09-2.493-10.014-7.312-19.534-13.933-27.53-2.642-3.19-7.371-3.634-10.56-.993-3.19 2.642-3.635 7.37-.993 10.56 5.196 6.275 8.976 13.74 10.929 21.586.85 3.413 3.91 5.691 7.273 5.691z"/><path d="m509.258 476.167-59.313-74.142c-42.535-53.169-80.576-110.114-113.604-170.096-6.617-12.019-19.218-19.485-32.883-19.485h-8.888v-111.75c0-12.992 10.57-23.562 23.562-23.562 3.537 0 6.934.762 10.097 2.265 8.839 4.202 19.339 2.469 26.122-4.315l.455-.455c5.254-5.253 7.565-12.467 6.341-19.792-1.212-7.251-5.888-13.51-12.507-16.741-9.549-4.661-19.813-7.024-30.508-7.024-2.673 0-6.202.265-9.534.705-6.387-9.772-17.946-16.236-29.294-16.236-7.663 0-16.745 3.679-23.297 9.312-6.553-5.634-15.634-9.312-23.297-9.312-11.348 0-22.906 6.462-29.294 16.236-3.332-.44-6.861-.705-9.534-.705-10.694 0-20.959 2.363-30.508 7.024-6.619 3.231-11.295 9.489-12.507 16.741-1.225 7.325 1.087 14.539 6.338 19.789l.46.461c6.78 6.781 17.277 8.515 26.12 4.312 3.163-1.502 6.56-2.265 10.097-2.265 12.992 0 23.562 10.57 23.562 23.562v40.159c0 4.142 3.357 7.5 7.5 7.5s7.5-3.358 7.5-7.5v-40.159c0-21.264-17.299-38.563-38.562-38.563-5.781 0-11.345 1.25-16.534 3.717-3.172 1.508-6.735.97-9.073-1.368l-.461-.462c-1.782-1.782-2.566-4.229-2.151-6.712.42-2.518 1.985-4.607 4.292-5.734 7.482-3.652 15.532-5.504 23.928-5.504 1.947 0 5.455.237 8.905.766 5.116.787 10.099-1.598 12.699-6.068 3.451-5.927 10.694-10.229 17.224-10.229 3.8 0 10.175 2.312 14.508 6.598 4.847 4.793 12.733 4.792 17.58-.001 4.331-4.284 10.706-6.596 14.506-6.596 6.529 0 13.772 4.302 17.224 10.23 2.604 4.47 7.595 6.847 12.7 6.067 3.449-.529 6.957-.766 8.904-.766 8.396 0 16.445 1.852 23.928 5.504 2.307 1.126 3.872 3.216 4.292 5.734.415 2.483-.369 4.93-2.154 6.715l-.456.456c-2.34 2.341-5.9 2.879-9.075 1.371-5.189-2.466-10.753-3.717-16.534-3.717-21.264 0-38.562 17.299-38.562 38.563v111.75h-47.125v-36.591c0-4.142-3.357-7.5-7.5-7.5s-7.5 3.358-7.5 7.5v36.591h-8.887c-13.665 0-26.265 7.466-32.883 19.484-32.985 59.9-71.001 116.841-113.605 170.097l-59.316 74.141c-3.029 3.786-3.606 8.854-1.506 13.224s6.418 7.085 11.267 7.085h97.231c4.143 0 7.5-3.358 7.5-7.5s-3.357-7.5-7.5-7.5h-92.03l56.064-70.081c29.656-37.07 57.431-76.362 82.587-116.826h7.485c11.352 0 22.024-4.421 30.052-12.448l9.1-9.1c1.437 5.126 4.247 9.837 8.175 13.536 5.973 5.625 13.786 8.449 22.003 7.957 7.173-.43 14.059-3.604 19.388-8.934l11.468-11.468v34.551c0 4.142 3.357 7.5 7.5 7.5s7.5-3.358 7.5-7.5v-43.559c0-4.574-2.73-8.661-6.956-10.411-4.228-1.749-9.046-.791-12.281 2.443l-17.838 17.838c-2.733 2.734-6.171 4.356-9.68 4.567-4.033.242-7.888-1.143-10.819-3.904-2.935-2.764-4.551-6.504-4.551-10.533 0-4.574-2.73-8.661-6.956-10.411-4.228-1.749-9.046-.791-12.281 2.443l-14.378 14.378c-4.785 4.786-11.024 7.59-17.722 8.001 7.993-13.289 15.783-26.815 23.237-40.353 3.981-7.229 11.547-11.72 19.744-11.72h94.899c8.197 0 15.763 4.491 19.743 11.72 7.453 13.535 15.243 27.061 23.238 40.353-6.697-.411-12.937-3.215-17.723-8.001l-14.378-14.378c-3.234-3.234-8.055-4.192-12.281-2.443-4.226 1.751-6.956 5.837-6.956 10.411v115.152c0 2.217-.884 4.281-2.489 5.812-1.603 1.529-3.712 2.314-5.94 2.209-4.209-.198-7.633-3.994-7.633-8.461v-36.154c0-4.142-3.357-7.5-7.5-7.5s-7.5 3.358-7.5 7.5v36.154c0 12.567 9.632 22.865 21.928 23.444.375.018.749.026 1.123.026 5.947 0 11.549-2.237 15.877-6.366 4.534-4.326 7.135-10.4 7.135-16.666v-106.141l8.008 8.008c8.027 8.027 18.7 12.448 30.052 12.448h7.485c25.156 40.464 52.93 79.756 82.587 116.826l56.064 70.081h-349.55c-4.143 0-7.5 3.358-7.5 7.5s3.357 7.5 7.5 7.5h354.749c4.849 0 9.166-2.715 11.267-7.085 2.1-4.371 1.523-9.438-1.506-13.224z"/></g><g/><g/><g/><g/><g/><g/><g/><g/><g/><g/><g/><g/><g/><g/><g/></svg>