<svg id="Capa_1" enable-background="new 0 0 512 512" viewBox="0 0 512 512" xmlns="http://www.w3.org/2000/svg"><g><path d="m487.599 269.296-74.53-37.942c-1.328-.676-1.777-2.353-.965-3.602l45.596-70.118c1.118-1.72-.188-3.982-2.237-3.872l-83.54 4.486c-1.489.08-2.719-1.15-2.639-2.639l4.486-83.54c.11-2.048-2.152-3.355-3.872-2.237l-70.119 45.595c-1.249.812-2.926.363-3.602-.965l-37.942-74.53c-.93-1.827-3.54-1.827-4.47 0l-37.942 74.53c-.676 1.328-2.353 1.777-3.602.965l-70.118-45.596c-1.72-1.118-3.982.188-3.872 2.237l4.486 83.54c.08 1.489-1.15 2.719-2.639 2.639l-83.54-4.486c-2.048-.11-3.355 2.152-2.237 3.872l45.595 70.119c.812 1.249.363 2.926-.965 3.602l-74.53 37.942c-1.827.93-1.827 3.54 0 4.47l74.53 37.942c1.328.676 1.777 2.353.965 3.602l-45.596 70.118c-1.118 1.72.188 3.982 2.237 3.872l83.54-4.486c1.489-.08 2.719 1.15 2.639 2.639l-4.486 83.54c-.11 2.048 2.152 3.355 3.872 2.237l70.119-45.595c1.249-.812 2.926-.363 3.602.965l37.942 74.53c.93 1.827 3.54 1.827 4.47 0l37.942-74.53c.676-1.328 2.353-1.777 3.602-.965l70.118 45.596c1.72 1.118 3.982-.188 3.872-2.237l-4.486-83.54c-.08-1.489 1.15-2.719 2.639-2.639l83.54 4.486c2.048.11 3.355-2.152 2.237-3.872l-45.595-70.119c-.812-1.249-.363-2.926.965-3.602l74.53-37.942c1.827-.93 1.827-3.54 0-4.47z" fill="#fe646f"/><path d="m234.86 217.154-72.781 42.02c-3.445 1.989-5.959 5.265-6.989 9.108l-9.761 36.431 119.552-48.713-13.596-31.333z" fill="#3c87d0"/><path d="m267.711 234.055-13.031-22.571c-1.381-2.391-4.439-3.211-6.83-1.83l-12.99 7.5 15.531 26.901 14.49 6.514z" fill="#0078c8"/><path d="m147.02 377.704-43.489-48.86-72.706 41.977c-4.352 2.513-5.843 8.077-3.33 12.429l54.928 95.138 61.508-74.189c1.043-1.581 4.036-24.855 3.089-26.495z" fill="#e8ad8c"/><path d="m120.852 318.844-17.321 10 34.669 60.049c.947 1.64.886 3.674-.158 5.255l-55.62 84.24 3.819 6.615c3.382 5.858 11.746 6.108 15.473.464l61.531-93.193 1.96-53.784z" fill="#e19974"/><path d="m288.908 293.363-38.518-49.308-129.539 74.789 32.395 56.109 130.645-64.594c2.391-1.38 6.398-14.605 5.017-16.996z" fill="#5f99d7"/><path d="m465.436 143.638-16.564-14.176-181.161 104.593 6.675 36.16 183.534-114.893c2.391-1.38 8.896-9.293 7.516-11.684z" fill="#5f99d7"/><path d="m371.574 247.242-11.514-17.552-89.071 38.7 29.116 21.774 63.528-29.14c1.819-1.05 8.302-11.715 7.941-13.782z" fill="#e8ad8c"/><path d="m376.089 357.499-12.832-5.982c-29.444 0-54.935-28.278-66.772-55.8l-35.333 40.03 4.905 8.495c19.503 33.781 55.547 54.592 94.554 54.593h8.6l11.795-19.237c.001-2.762-2.155-22.099-4.917-22.099z" fill="#5f99d7"/><path d="m380.12 342.307h-18.396c-19.504 0-37.526-10.406-47.278-27.296l-4.344-7.525-15.065-3.288-1.811 13.032c11.837 27.521 39.055 45.077 68.499 45.077h2.492c2.762 0 5 2.239 5 5.001l-.006 31.527h10.904c5.025 0 9.098-4.073 9.099-9.098l.004-38.33c.001-5.025-4.072-9.1-9.098-9.1z" fill="#3c87d0"/><path d="m211.297 458.549-6.276-111.273-41.775 44.998 10.169 85.258 30.219-7.221c1.732-1 7.9-9.776 7.663-11.762z" fill="#e8ad8c"/><path d="m384.463 253.19-5.953-34.152-18.45 10.652 3.5 20.05c.361 2.068-.608 4.141-2.426 5.19l-61.028 35.234-5.069 15.558 15.069 1.763 67.08-38.728c5.451-3.149 8.358-9.366 7.277-15.567z" fill="#e19974"/><path d="m224.59 467.897-12.39-103.886-13.181-3.422-5.664 14.302 9.779 81.984c.237 1.986-.733 3.922-2.465 4.922l-27.254 15.734 1.76 14.756c.387 3.243 3.964 5.034 6.792 3.401l40.38-23.313c1.576-.909 2.458-2.671 2.243-4.478z" fill="#e19974"/><path d="m310.106 307.484-42.395-73.43-17.32 10 29.894 51.78c1.381 2.391.561 5.449-1.83 6.83l-125.209 72.289 10 17.321z" fill="#3c87d0"/><path d="m485.115 152.236-16.648-28.835c-1.256-2.176-4.039-2.922-6.214-1.665l-13.381 7.725 8.697 15.064c1.381 2.391.561 5.449-1.83 6.83l-176.831 102.094-2.621 12.327 12.621 4.993 194.542-112.318c2.176-1.257 2.922-4.039 1.665-6.215z" fill="#3c87d0"/><path d="m317.515 122.781-71.082-111.305c-.782.797-1.485 1.714-2.084 2.751l-65.168 112.873c-.599 1.037-1.042 2.104-1.341 3.181l130.856 4.036c3.849 0 10.743-8.202 8.819-11.536z" fill="#ffe177"/><path d="m332.819 127.1-65.168-112.873c-4.58-7.932-15.234-8.849-21.219-2.751l64.264 111.306c1.924 3.333-.481 7.5-4.33 7.5h-128.526c-2.288 8.232 3.833 17 12.992 17h130.335c10.357-.001 16.83-11.212 11.652-20.182z" fill="#ffc344"/><circle cx="256" cy="116.219" r="7.5"/><path d="m171.849 325.269c2.08 3.605 6.675 4.807 10.245 2.745l59.68-34.456c3.587-2.071 4.816-6.658 2.745-10.245-2.07-3.588-6.659-4.816-10.245-2.745l-59.68 34.456c-3.587 2.07-4.817 6.657-2.745 10.245z"/><path d="m263.5 85.156v-28.985c0-4.142-3.357-7.5-7.5-7.5s-7.5 3.358-7.5 7.5v28.985c0 4.142 3.357 7.5 7.5 7.5s7.5-3.358 7.5-7.5z"/><path d="m491.001 262.612-69.584-35.424s25.176-38.723 25.24-38.835l40.543-23.408c2.787-1.609 4.781-4.208 5.614-7.316.833-3.109.405-6.357-1.204-9.144l-16.648-28.836c-3.321-5.752-10.703-7.73-16.459-4.409l-5.146 2.971-3.316-5.743c-2.071-3.587-6.66-4.817-10.245-2.745-3.587 2.071-4.816 6.658-2.745 10.245l3.316 5.743-40.792 23.551c-.13 0-.261.004-.393.011l-22.111 1.188 4.188-77.988c.204-3.782-1.707-7.309-4.986-9.203-3.279-1.895-7.288-1.79-10.463.275l-44.367 28.85-47.296-81.918c-3.789-6.56-10.572-10.477-18.147-10.477s-14.358 3.917-18.146 10.477l-15.826 27.412c-2.071 3.587-.842 8.174 2.745 10.245 3.588 2.071 8.174.841 10.245-2.745l15.826-27.412c1.552-2.687 4.123-2.977 5.156-2.977s3.604.29 5.156 2.977l65.168 112.873c1.551 2.688.517 5.06-.001 5.955-.517.895-2.054 2.977-5.156 2.977h-130.334c-3.103 0-4.64-2.082-5.156-2.977-.518-.895-1.552-3.267-.001-5.954l31.45-54.473c2.071-3.587.842-8.174-2.745-10.245-3.589-2.072-8.175-.843-10.245 2.745l-13.578 23.517-44.367-28.85c-3.174-2.065-7.186-2.169-10.463-.275-3.278 1.895-5.188 5.421-4.985 9.202l4.188 77.989-77.988-4.188c-3.778-.205-7.308 1.707-9.203 4.986s-1.79 7.288.275 10.463l42.57 65.467-69.587 35.425c-3.371 1.717-5.466 5.135-5.466 8.918s2.095 7.201 5.468 8.919l69.585 35.424-12.251 18.857-51.258 29.594c-3.84 2.216-6.586 5.796-7.733 10.079s-.56 8.755 1.657 12.595l14.654 25.383c2.07 3.588 6.659 4.816 10.245 2.745 3.587-2.071 4.816-6.658 2.745-10.245l-14.654-25.383c-.273-.474-.238-.921-.16-1.213.079-.292.271-.697.745-.971l83.531-48.227 36.327 62.92-58.978 89.326c-.675 1.021-2.132.935-2.719-.082l-26.272-45.504c-2.071-3.587-6.66-4.817-10.245-2.745-3.587 2.071-4.816 6.658-2.745 10.245l26.272 45.504c6.176 10.697 21.435 11.133 28.227.847l23.672-35.853-.904 16.843c-.204 3.782 1.707 7.309 4.986 9.203 3.279 1.895 7.287 1.789 10.463-.275l18.475-12.014 3.062 25.672c.481 4.034 2.938 7.528 6.57 9.347 3.561 1.784 7.834 1.731 11.419-.339l40.379-23.313c1.954-1.128 3.504-2.745 4.543-4.638l16.444 32.3c1.717 3.372 5.135 5.466 8.918 5.466s7.201-2.094 8.919-5.467l35.425-69.585 65.466 42.57c3.173 2.064 7.182 2.169 10.461.276 3.278-1.894 5.19-5.419 4.988-9.203l-3.451-64.255h2.308c7.812 0 14.38-5.424 16.137-12.703 0 0 59.172 3.173 59.355 3.173 3.571 0 6.851-1.881 8.654-5 1.895-3.279 1.79-7.288-.275-10.463l-42.57-65.467 69.587-35.425c3.371-1.717 5.466-5.135 5.466-8.918s-2.096-7.202-5.469-8.92zm-383.539 48.743c-.733-2.738-2.603-5.046-5.128-6.331l-65.792-33.494 65.791-33.493c2.526-1.286 4.396-3.593 5.129-6.331.732-2.737.267-5.67-1.278-8.044l-40.241-61.886 73.733 3.959c2.837.143 5.608-.911 7.613-2.917 2.006-2.006 3.069-4.781 2.917-7.613l-3.959-73.733 36.8 23.93-10.362 17.947c-3.787 6.561-3.787 14.394.001 20.954 3.787 6.56 10.571 10.477 18.146 10.477h130.334c7.575 0 14.359-3.917 18.146-10.477 3.788-6.56 3.788-14.394.001-20.955l-10.362-17.946 36.801-23.93-3.96 73.733c-.152 2.833.911 5.608 2.917 7.614 1.707 1.706 3.969 2.73 6.351 2.905l-38.664 22.323c-3.587 2.071-4.816 6.658-2.745 10.245 2.07 3.587 6.659 4.817 10.245 2.745l123.551-71.332 13.696 23.725-185.49 107.095-13.697-23.725 31.369-18.111c3.587-2.071 4.816-6.658 2.745-10.245-2.07-3.588-6.659-4.817-10.245-2.745l-31.369 18.111-9.281-16.076c-1.67-2.892-4.365-4.96-7.59-5.824-3.226-.864-6.593-.421-9.485 1.249l-85.771 49.52c-5.206 3.006-8.929 7.858-10.483 13.662l-8.958 33.43-32.081 18.522c1.034-2.146 1.277-4.612.655-6.938zm269.612-56.877c.538 3.088-.924 6.216-3.639 7.783l-60.585 34.979-13.697-23.724 73.811-42.615zm-119.608-23.168-100.207 57.854 5.075-18.942c.519-1.934 1.76-3.551 3.495-4.553l83.605-48.27zm-126.369 90.279 133.869-77.289 34.895 60.439-133.869 77.289zm129.126 27.547c6.727 11.653 2.743 26.528-8.911 33.257l-27.474 15.862-3.604-30.222 38.175-22.04zm-113.977 112.453 1.751-32.608 10.227-15.489 4.462 37.407zm35.846 25.368-10.813-90.661 34.82-20.104 10.813 90.661zm183.662-25.368-61.887-40.243c-2.376-1.544-5.31-2.009-8.045-1.276-2.736.733-5.043 2.602-6.328 5.126l-33.494 65.793-26.85-52.741c-.197-.386-.422-.748-.673-1.084l-2.708-22.705 33.042-19.076c9.484-5.476 15.827-14.331 18.388-24.175 21.691 22.128 51.728 35.126 83.412 35.127h2.174zm15.96-71.851c0 .881-.717 1.598-1.599 1.598l-19.504-.001c-36.211-.001-69.953-19.482-88.06-50.842l-1.155-2 35.96-20.761.594 1.029c11.056 19.15 31.661 31.046 53.773 31.046h18.395c.548 0 .918.255 1.132.469.213.213.468.583.468 1.13zm27.953-84.714c-2.526 1.286-4.396 3.593-5.129 6.33-.732 2.738-.267 5.67 1.278 8.045l40.241 61.886-49.342-2.65.003-27.226c.001-4.434-1.726-8.603-4.86-11.739-3.136-3.135-7.304-4.862-11.738-4.863h-18.396c-16.771 0-32.397-9.022-40.783-23.547l-.594-1.029 60.588-34.98c8.145-4.702 12.531-14.085 10.916-23.35l-5.053-28.989 31.231-18.031-12.212 18.78c-1.546 2.375-2.012 5.308-1.279 8.046s2.603 5.045 5.128 6.33l65.792 33.494z"/></g><g/><g/><g/><g/><g/><g/><g/><g/><g/><g/><g/><g/><g/><g/><g/></svg>