<svg id="Capa_1" enable-background="new 0 0 512 512" height="512" viewBox="0 0 512 512" width="512" xmlns="http://www.w3.org/2000/svg"><g><g><path d="m206.275 307.177h99.452c41.286 1.022 78.986 32.522 89.642 74.809l19.314 106.198c1.545 8.496-4.982 16.317-13.617 16.317h-290.13c-8.635 0-15.162-7.821-13.617-16.317l19.314-106.198c7.88-43.321 45.611-74.809 89.642-74.809z" fill="#a2aee6"/><path d="m231.275 307.179c-44.03 0-81.76 31.49-89.64 74.81l-19.32 106.2c-1.54 8.49 4.99 16.31 13.62 16.31h-25c-8.63 0-15.16-7.82-13.62-16.31l19.32-106.2c7.88-43.32 45.61-74.81 89.64-74.81z" fill="#8795de"/><path d="m328.471 310.861v97.51c0 15.55-12.6 28.16-28.15 28.16h-84.88c-17.63 0-31.91-14.29-31.91-31.91v-94.56c7.29-1.89 14.92-2.88 22.74-2.88h99.46c7.76.19 15.39 1.46 22.74 3.68z" fill="#f2fbff"/><path d="m275.883 338.288h-39.762c-13.269 0-24.026-10.757-24.026-24.026v-41.739h87.814v41.739c0 13.269-10.757 24.026-24.026 24.026z" fill="#ffdfcf"/><path d="m299.909 305.406v-22.018h-62.814v-10.869h-25v41.74c0 13.271 10.759 24.03 24.03 24.03h25c-13.27 0-24.03-10.76-24.03-24.03v-4.853c0-2.209 1.791-4 4-4z" fill="#ffcebf"/><path d="m362.724 193.727h-213.444c-15.253 0-27.619-12.365-27.619-27.619v-.78c0-15.253 12.365-27.619 27.619-27.619h213.444c15.253 0 27.619 12.365 27.619 27.619v.78c-.001 15.254-12.366 27.619-27.619 27.619z" fill="#ffcebf"/><path d="m256.002 294.177c57.103 0 103.395-46.291 103.395-103.395v-51.248c0-37.358-30.285-67.643-67.643-67.643h-71.504c-37.358 0-67.643 30.285-67.643 67.643v51.248c0 57.104 46.291 103.395 103.395 103.395z" fill="#ffeee6"/><path d="m268.505 293.429c-4.1.5-8.27.75-12.5.75-57.11 0-103.4-46.29-103.4-103.4v-51.25c0-37.35 30.29-67.64 67.65-67.64h25c-37.36 0-67.65 30.29-67.65 67.64v51.25c0 52.88 39.68 96.48 90.9 102.65z" fill="#ffdfcf"/><path d="m279.234 199.968c-6.003-.579-11.606 1.051-16.096 4.172-4.286 2.979-9.987 2.979-14.273 0-4.49-3.121-10.093-4.751-16.096-4.172-11.267 1.087-20.389 10.148-21.542 21.409-1.477 14.427 9.805 26.599 23.93 26.6h41.688c14.125-.001 25.407-12.173 23.93-26.6-1.151-11.261-10.274-20.322-21.541-21.409z" fill="#a2aee6"/><path d="m260.155 247.979h-25c-14.12 0-25.4-12.17-23.93-26.6 1.15-11.26 10.28-20.32 21.54-21.41 5.49-.53 10.63.78 14.9 3.39-6.25 3.82-10.66 10.42-11.44 18.02-1.47 14.43 9.81 26.6 23.93 26.6z" fill="#8795de"/><circle cx="256.002" cy="249.902" fill="#f2fbff" r="17.197"/><path d="m266.129 86.847h-57.695c-8.448 0-15.296-6.848-15.296-15.296 0-35.374 28.676-64.049 64.049-64.049h57.695c8.448 0 15.296 6.848 15.296 15.296.001 35.373-28.675 64.049-64.049 64.049z" fill="#ffc344"/><path d="m236.895 26.259c-11.59 11.59-18.76 27.6-18.76 45.29 0 8.45 6.85 15.3 15.3 15.3h-25c-8.45 0-15.3-6.85-15.3-15.3 0-17.69 7.17-33.7 18.76-45.29s27.6-18.76 45.29-18.76h25c-17.69 0-33.7 7.17-45.29 18.76z" fill="#feb137"/><path d="m260.505 364.849 3.107 9.562c.634 1.951 2.452 3.272 4.504 3.272h10.055c4.587 0 6.494 5.87 2.783 8.566l-8.134 5.91c-1.66 1.206-2.354 3.343-1.72 5.294l3.107 9.562c1.418 4.363-3.576 7.991-7.287 5.294l-8.134-5.91c-1.66-1.206-3.907-1.206-5.567 0l-8.134 5.91c-3.711 2.696-8.704-.932-7.287-5.294l3.107-9.562c.634-1.951-.061-4.088-1.72-5.294l-8.134-5.91c-3.711-2.696-1.804-8.566 2.783-8.566h10.055c2.051 0 3.87-1.321 4.504-3.272l3.107-9.562c1.416-4.362 7.588-4.362 9.005 0z" fill="#ffc344"/><path d="m240.445 436.529h-25c-17.63 0-31.91-14.29-31.91-31.91v-94.56c7.29-1.89 14.92-2.88 22.74-2.88h2.26v97.44c0 17.62 14.28 31.91 31.91 31.91z" fill="#dff6fd"/></g><g><path d="m422.059 486.838-19.31-106.2c-.03-.165-.065-.329-.106-.492-11.349-45.012-51.252-78.58-95.232-80.393v-10.737c32.46-17.06 55.478-49.738 59.001-87.982 17.636-1.851 31.428-16.807 31.428-34.925v-.78c0-18.151-13.841-33.13-31.523-34.937-3.34-27.054-21.293-50.311-46.336-60.506 11.437-13.043 17.7-29.58 17.7-47.087 0-12.572-10.228-22.8-22.8-22.8h-57.69c-19.111 0-37.079 7.442-50.593 20.957-13.516 13.515-20.958 31.483-20.958 50.594 0 .419.013.835.036 1.248-22.129 11.449-37.025 32.994-40.006 57.597-17.675 1.813-31.509 16.789-31.509 34.935v.78c0 18.118 13.792 33.074 31.428 34.925 3.523 38.244 26.541 70.922 59.001 87.982v10.701c-46.957.791-86.907 34.564-95.339 80.921l-8.89 48.91c-.741 4.076 1.962 7.979 6.038 8.72.454.083.905.123 1.35.123 3.555 0 6.712-2.539 7.37-6.16l8.89-48.909c5.335-29.332 25.559-52.715 52.021-62.981v84.278c0 21.725 17.679 39.4 39.41 39.4h84.88c19.658 0 35.65-15.993 35.65-35.65v-86.778c24.844 10.928 44.891 33.837 52.067 61.983l19.265 105.951c.463 2.539-.658 4.344-1.367 5.194-.71.852-2.288 2.28-4.875 2.28h-42.88v-51.42c0-.804.185-1.621.532-2.357l8.78-18.59c1.769-3.746.167-8.216-3.579-9.985-3.746-1.768-8.215-.166-9.985 3.579l-8.782 18.594c-1.287 2.728-1.966 5.757-1.966 8.759v51.42h-174.36v-51.42c0-3.002-.68-6.031-1.968-8.763l-8.78-18.59c-1.769-3.745-6.24-5.346-9.985-3.579-3.745 1.769-5.348 6.239-3.579 9.985l8.778 18.585c.349.74.534 1.557.534 2.361v51.421h-42.88c-2.587 0-4.165-1.429-4.875-2.28-.709-.85-1.83-2.655-1.366-5.197l4.16-22.86c.742-4.075-1.961-7.98-6.036-8.722s-7.979 1.961-8.722 6.036l-4.16 22.858c-1.138 6.244.54 12.62 4.605 17.493 4.067 4.875 10.042 7.672 16.394 7.672h290.12c6.352 0 12.327-2.796 16.394-7.672 4.064-4.873 5.743-11.249 4.605-17.49zm-39.219-321.508v.78c0 9.664-6.851 17.754-15.95 19.68v-40.14c9.099 1.927 15.95 10.016 15.95 19.68zm-253.68.78v-.78c0-9.664 6.851-17.754 15.95-19.68v40.139c-9.099-1.926-15.95-10.015-15.95-19.679zm30.95 24.67v-51.25c0-22.235 12.113-42.34 31.327-52.808 4.177 4.677 10.246 7.628 16.993 7.628h25.64c4.142 0 7.5-3.358 7.5-7.5s-3.358-7.5-7.5-7.5h-25.64c-4.295 0-7.79-3.499-7.79-7.8 0-15.104 5.882-29.306 16.563-39.987s24.882-16.563 39.987-16.563h57.69c4.301 0 7.8 3.499 7.8 7.8 0 15.104-5.882 29.306-16.563 39.987-10.009 10.009-23.286 15.87-37.382 16.5-4.138.186-7.342 3.69-7.157 7.828s3.698 7.334 7.828 7.157c13.672-.612 26.723-5.119 37.778-12.88 26.09 6.92 44.707 30.859 44.707 58.138v51.25c0 52.88-43.016 95.9-95.89 95.9s-95.891-43.02-95.891-95.9zm95.89 110.9c12.749 0 25-2.17 36.41-6.148v18.728c0 9.115-7.416 16.53-16.53 16.53h-39.76c-9.115 0-16.53-7.416-16.53-16.53v-18.728c11.41 3.978 23.661 6.148 36.41 6.148zm64.97 106.69c0 11.386-9.264 20.65-20.65 20.65h-84.88c-13.46 0-24.41-10.946-24.41-24.4v-88.542c4.421-.816 8.957-1.27 13.572-1.361.247 17.175 14.286 31.073 31.519 31.073h39.76c17.216 0 31.245-13.872 31.517-31.024 4.591.224 9.127.856 13.573 1.867v91.737z"/><path d="m294.923 174.624c4.142 0 7.5-3.358 7.5-7.5v-13.494c0-4.142-3.358-7.5-7.5-7.5s-7.5 3.358-7.5 7.5v13.494c0 4.142 3.358 7.5 7.5 7.5z"/><path d="m217.077 174.624c4.142 0 7.5-3.358 7.5-7.5v-13.494c0-4.142-3.358-7.5-7.5-7.5s-7.5 3.358-7.5 7.5v13.494c0 4.142 3.357 7.5 7.5 7.5z"/><path d="m256 274.599c11.761 0 21.621-8.266 24.094-19.291 7.72-.807 14.944-4.446 20.189-10.261 5.966-6.614 8.862-15.519 7.948-24.428-1.517-14.866-13.413-26.689-28.28-28.114-7.478-.721-14.969 1.222-21.09 5.476-1.712 1.189-4.012 1.189-5.721.001-6.123-4.254-13.611-6.197-21.085-5.477-14.873 1.425-26.769 13.249-28.286 28.11-.915 8.913 1.982 17.818 7.948 24.432 5.245 5.814 12.467 9.453 20.189 10.261 2.473 11.025 12.333 19.291 24.094 19.291zm0-15c-5.347 0-9.697-4.351-9.697-9.698s4.35-9.697 9.697-9.697 9.697 4.35 9.697 9.697-4.35 9.698-9.697 9.698zm-37.309-37.458c.78-7.65 7.141-13.972 14.8-14.706 4.002-.386 7.835.603 11.089 2.864 6.83 4.744 16.007 4.744 22.839-.001 3.252-2.26 7.087-3.25 11.094-2.863 7.653.733 14.014 7.055 14.794 14.709.49 4.769-.989 9.334-4.165 12.854-2.702 2.995-6.405 4.884-10.368 5.356-3.741-8.892-12.541-15.152-22.776-15.152-10.236 0-19.036 6.26-22.776 15.151-3.965-.473-7.667-2.361-10.368-5.355-3.174-3.519-4.653-8.083-4.163-12.857z"/><path d="m278.169 370.183h-8.046l-2.486-7.652c-1.643-5.057-6.319-8.455-11.636-8.455s-9.993 3.397-11.636 8.454l-2.487 7.652h-8.046c-5.317 0-9.993 3.397-11.636 8.454s.143 10.555 4.444 13.68l6.509 4.729-2.486 7.652c-1.643 5.057.143 10.554 4.445 13.68 2.151 1.562 4.671 2.344 7.191 2.344s5.041-.781 7.191-2.344l6.51-4.729 6.509 4.729c4.301 3.125 10.082 3.126 14.384 0 4.301-3.125 6.087-8.623 4.444-13.679l-2.486-7.652 6.509-4.729c4.301-3.125 6.087-8.623 4.444-13.68-1.642-5.057-6.318-8.454-11.635-8.454zm-9.759 15.908c-4.303 3.125-6.089 8.623-4.445 13.679l.478 1.471-1.251-.909c-2.15-1.562-4.67-2.343-7.191-2.343-2.52 0-5.041.781-7.191 2.343l-1.251.909.478-1.471c1.643-5.057-.144-10.554-4.445-13.678l-1.251-.909h1.546c5.317 0 9.994-3.398 11.636-8.454l.478-1.47.478 1.471c1.644 5.056 6.32 8.453 11.637 8.453h1.546z"/></g></g></svg>