<svg id="Capa_1" enable-background="new 0 0 511.997 511.997" height="512" viewBox="0 0 511.997 511.997" width="512" xmlns="http://www.w3.org/2000/svg"><g><g><path d="m374.934 504.523h-254.523v-103.52c0-70.285 56.977-127.262 127.262-127.262 70.285 0 127.262 56.977 127.262 127.262v103.52z" fill="#ee6161"/></g><g><path d="m374.936 400.999v103.529h-23.464v-103.529c0-66.335-50.744-120.799-115.526-126.71 3.864-.361 7.777-.542 11.726-.542 35.142 0 66.961 14.242 89.991 37.273s37.273 54.837 37.273 89.979z" fill="#e94444"/></g><g><path d="m273.748 276.423v228.103h-52.151v-228.103c8.422-1.761 17.142-2.677 26.076-2.677 8.933.001 17.653.917 26.075 2.677z" fill="#f5f8f9"/></g><g><path d="m221.597 276.423v228.103h-38.709v-213.066c11.812-7.007 24.85-12.158 38.709-15.037z" fill="#c4e2ff"/></g><g><path d="m312.457 291.46v213.067h-38.709v-228.104c13.859 2.879 26.897 8.03 38.709 15.037z" fill="#c4e2ff"/></g><g><path d="m247.704 295.914c-52.131 0-94.392-42.261-94.392-94.392v-112.248h94.392 94.392v112.248c-.001 52.131-42.261 94.392-94.392 94.392z" fill="#fed2a4"/></g><g><path d="m342.1 89.276v112.244c0 52.136-42.261 94.398-94.397 94.398-3.368 0-6.686-.179-9.955-.528 47.443-4.972 84.423-45.101 84.423-93.869v-112.245z" fill="#ffbd86"/></g><g><path d="m342.095 204.713h12.747c10.947 0 19.822-8.875 19.822-19.822 0-10.947-8.875-19.822-19.822-19.822h-12.747z" fill="#fed2a4"/></g><g><path d="m153.312 204.713h-12.747c-10.947 0-19.822-8.875-19.822-19.822 0-10.947 8.875-19.822 19.822-19.822h12.747z" fill="#fed2a4"/></g><g><path d="m153.312 157.988v-32.466l38.568-24.027s19.865 32.331 70.784 41.198c3.625.631 6.452-3.097 4.842-6.405l-12.613-25.917s70.917-7.424 87.202 33.548v21.15h16.285s14.586-21.792 17.073-25.829c27.096-43.964 31.995-95.828-22.785-119.406-28.497-12.266-62.087-14.268-92.616-10.891-7.461.825-14.864 2.13-22.138 3.985-14.794 3.773-27.306 8.613-39.83 17.408l-12.845 8.038c-.013-.013-14.149-18.711-14.149-18.711-5.522 9.934-8.174 25.619-8.224 36.751-16.57-5.821-33.976 3.169-42.124 18.064-.059.108-20.86 38.225 19.822 90.591h12.747v-7.081z" fill="#537983"/></g><g><path d="m375.453 139.24c-2.491 4.036-17.07 25.829-17.07 25.829h-16.283v-8.68c4.484-6.736 11.739-17.628 13.423-20.368 27.095-43.965 31.997-95.832-22.78-119.41-8.052-3.468-16.502-6.108-25.181-8.042 15.625 1.624 30.991 5.182 45.111 11.26 54.777 23.588 49.874 75.446 22.78 119.411z" fill="#3e5959"/></g><g><path d="m201.666 175.56c-4.128 0-7.474 3.346-7.474 7.474v17.629c0 4.128 3.346 7.474 7.474 7.474s7.474-3.346 7.474-7.474v-17.629c0-4.128-3.347-7.474-7.474-7.474z"/><path d="m293.742 208.137c4.128 0 7.474-3.346 7.474-7.474v-17.629c0-4.128-3.346-7.474-7.474-7.474s-7.474 3.346-7.474 7.474v17.629c0 4.128 3.346 7.474 7.474 7.474z"/><path d="m269.277 241.459c3.069-2.759 3.321-7.484.563-10.555-2.759-3.068-7.484-3.323-10.555-.563-3.093 2.78-7.09 4.311-11.254 4.311-4.394 0-8.552-1.682-11.709-4.734-2.967-2.871-7.699-2.791-10.568.176s-2.79 7.698.176 10.567c5.959 5.764 13.808 8.938 22.101 8.938 7.86.001 15.405-2.89 21.246-8.14z"/><path d="m310.353 281.788c21.216-16.596 35.703-41.407 38.65-69.602h5.839c15.052 0 27.297-12.245 27.297-27.295 0-9.66-5.049-18.158-12.643-23.011 4.511-6.768 10.721-16.124 12.319-18.719 19.034-30.882 25.274-61.317 17.573-85.695-6.226-19.706-20.951-34.677-43.766-44.497-33.787-14.542-71.067-14.258-96.391-11.454-7.97.881-15.763 2.285-23.163 4.172-17.405 4.439-30.013 9.951-42.113 18.418l-6.881 4.306c-4.173-5.518-10.021-13.254-10.021-13.254-1.524-2.015-3.961-3.131-6.484-2.948-2.521.177-4.781 1.615-6.009 3.824-4.799 8.634-7.597 20.715-8.664 31.279-16.38-1.468-32.912 7.498-41.709 23.58-.338.621-2.116 4.032-3.707 9.87-1.086 3.983 1.263 8.091 5.245 9.177 3.982 1.084 8.091-1.263 9.176-5.245 1.123-4.118 2.321-6.476 2.413-6.653 5.987-10.919 19.264-19.429 33.076-14.574 2.28.801 4.808.449 6.785-.944 1.975-1.393 3.155-3.656 3.166-6.074.027-6.154.956-14.222 2.883-21.572 6.331 8.369 6.39 8.43 6.636 8.686 2.452 2.543 6.35 3.022 9.345 1.147l12.844-8.038c.112-.07.222-.143.33-.219 10.579-7.428 21.759-12.297 37.383-16.281 6.728-1.716 13.831-2.994 21.112-3.8 23.534-2.603 58.049-2.925 88.84 10.328 18.645 8.025 30.563 19.892 35.421 35.27 6.373 20.173.675 46.222-16.044 73.351-1.657 2.689-9.405 14.343-14.704 22.276h-4.818v-13.677c0-.945-.179-1.882-.529-2.761-18.167-45.709-91.801-38.55-94.924-38.22-2.425.254-4.573 1.674-5.756 3.805-1.183 2.132-1.253 4.706-.186 6.899l10.001 20.551c-42.402-9.345-59.219-35.48-59.927-36.61-1.042-1.695-2.717-2.906-4.654-3.361-1.938-.455-3.977-.122-5.666.93l-38.568 24.027c-2.191 1.365-3.522 3.763-3.522 6.344v.537 31.537h-1.562c-10.594-14.319-17.341-28.745-20.068-42.925-.779-4.052-4.701-6.703-8.751-5.927-4.054.779-6.707 4.698-5.927 8.751 2.772 14.408 9.019 28.87 18.592 43.115-8.809 4.533-14.852 13.712-14.852 24.282 0 15.051 12.244 27.295 27.295 27.295h5.839c2.947 28.183 17.423 52.986 38.625 69.583-42.822 22.589-72.092 67.547-72.092 119.234v103.52c0 4.128 3.346 7.474 7.474 7.474h254.524c4.128 0 7.474-3.346 7.474-7.474v-103.52c-.001-51.675-29.254-96.623-72.056-119.218zm39.216-109.245h5.273c6.809 0 12.349 5.539 12.349 12.348s-5.54 12.348-12.349 12.348h-5.273zm-203.73 24.696h-5.274c-6.809 0-12.348-5.539-12.348-12.348s5.54-12.348 12.348-12.348h5.274zm29.575 299.811h-47.529v-96.047c0-38.932 18.673-73.58 47.529-95.473zm-14.628-295.528v-71.85l29.232-18.21c8.774 10.501 30.872 31.543 71.364 38.595 4.458.779 8.924-.987 11.646-4.604 2.716-3.608 3.175-8.374 1.199-12.435l-7.631-15.68c18.946-.096 56.847 2.934 68.026 28.087v56.098c0 47.927-38.991 86.917-86.917 86.917s-86.919-38.991-86.919-86.918zm53.337 295.528h-23.762v-201.21c3.007-1.646 6.1-3.153 9.256-4.539 4.633 2.492 9.48 4.632 14.506 6.392zm52.151 0h-37.204v-195.377c6.043 1.122 12.27 1.714 18.634 1.714 6.341 0 12.547-.588 18.57-1.702zm101.187 0h-47.53v-60.403c0-4.128-3.346-7.474-7.474-7.474s-7.474 3.345-7.474 7.474v60.403h-23.762v-199.335c5.04-1.761 9.901-3.906 14.547-6.402 3.143 1.382 6.22 2.888 9.215 4.527v105.938c0 4.128 3.346 7.474 7.474 7.474s7.474-3.346 7.474-7.474v-96.248c28.856 21.893 47.53 56.542 47.53 95.474z"/></g></g></svg>