<svg id="Capa_1" enable-background="new 0 0 512 512" height="512" viewBox="0 0 512 512" width="512" xmlns="http://www.w3.org/2000/svg"><g><g><path d="m304.286 324.257-62.52-14.462c-5.442-1.259-9.296-6.106-9.296-11.691v-58.468c0-6.627-5.373-12-12-12h-50.16c-6.627 0-12 5.373-12 12v58.468c0 5.586-3.854 10.432-9.296 11.691l-62.52 14.462c-26.208 6.062-45.974 27.642-49.718 54.28l-15.302 108.875c-1.269 9.026 5.739 17.088 14.854 17.088h318.127c9.115 0 16.123-8.062 14.854-17.088l-15.304-108.875c-3.745-26.638-23.511-48.217-49.719-54.28z" fill="#ffc344"/><path d="m163.44 325.246-51.946 12.014c-26.2 6.06-45.97 27.64-49.71 54.28l-13.57 96.53c-1.05 7.47 3.58 14.33 10.44 16.43h-22.32c-9.12 0-16.13-8.06-14.86-17.09l15.31-108.87c3.74-26.64 23.51-48.22 49.71-54.28l57.057-13.196z" fill="#feb137"/><path d="m317.892 156.322h-245.002v-26.321c0-67.655 54.846-122.501 122.501-122.501 67.655 0 122.501 54.846 122.501 122.501z" fill="#7a6d79"/><path d="m207.861 8.13c-61.77 6.28-109.97 58.45-109.97 121.87v26.32h-25v-26.32c0-67.65 54.84-122.5 122.5-122.5 4.21 0 8.37.21 12.47.63z" fill="#685e68"/><path d="m290.18 184.379h-189.578c-15.538 0-28.135-12.596-28.135-28.135 0-15.538 12.596-28.135 28.135-28.135h189.578c15.538 0 28.135 12.596 28.135 28.135 0 15.539-12.597 28.135-28.135 28.135z" fill="#ffcebf"/><path d="m249.601 311.61c-31.19 26.63-77.23 26.63-108.42 0l7.83-1.81c5.45-1.26 9.3-6.11 9.3-11.7v-58.46c0-6.63 5.37-12 12-12h50.16c6.63 0 12 5.37 12 12v58.46c0 5.59 3.85 10.44 9.3 11.7z" fill="#ffdfcf"/><path d="m220.471 227.64h-50.16c-6.627 0-12 5.373-12 12v58.46c0 5.591-3.858 10.442-9.305 11.701l-7.825 1.809c6.81 5.82 14.33 10.36 22.26 13.64l10.57-2.45c5.45-1.26 9.3-6.11 9.3-11.7v-11.554c0-2.472 2.212-4.335 4.653-3.943 1.992.32 4.371.487 7.427.487 13.21 0 25.77-2.84 37.08-7.94v-48.51c0-6.627-5.372-12-12-12z" fill="#ffcebf"/><path d="m245.349 85.583-7.873 25.382c-.953 3.073-4.519 4.459-7.297 2.836l-31.994-18.686c-3.188-1.862-7.226.255-7.507 3.937l-.624 8.171c-.315 4.126-5.22 6.106-8.311 3.353l-35.556-31.666c-3.011-2.682-7.352-3.321-10.977-1.556-17.92 8.725-30.273 27.101-30.273 48.373v60.044c0 49.883 40.438 90.321 90.321 90.321 49.883 0 90.322-40.438 90.322-90.322v-60.044c0-19.319-10.189-36.25-25.483-45.732-5.531-3.428-12.821-.626-14.748 5.589z" fill="#ffeee6"/><path d="m207.761 275.22c-4.09.58-8.26.87-12.5.87-49.89 0-90.33-40.44-90.33-90.32v-60.04c0-21.28 12.36-39.65 30.28-48.38 3.62-1.76 7.96-1.12 10.97 1.56l4.73 4.21c-12.76 9.83-20.98 25.25-20.98 42.61v60.04c0 45.64 33.86 83.38 77.83 89.45z" fill="#ffdfcf"/><path d="m145.581 310.59v86.34h-30v-79.4z" fill="#f2fbff"/><path d="m275.201 317.53v79.4h-30v-86.34z" fill="#f2fbff"/><path d="m118.837 382.915h153.109c9.493 0 17.189 7.696 17.189 17.189v104.396h-187.488v-104.396c0-9.493 7.696-17.189 17.19-17.189z" fill="#a2aee6"/><path d="m143.841 382.91c-9.5 0-17.19 7.7-17.19 17.19v104.4h-25v-104.4c0-9.49 7.69-17.19 17.19-17.19z" fill="#8795de"/><path d="m241.921 447.51v56.99h-93.06v-56.99c0-6.63 5.37-12 12-12h69.06c6.63 0 12 5.37 12 12z" fill="#8795de"/><path d="m185.861 435.51c-6.63 0-12 5.37-12 12v56.99h-25v-56.99c0-6.63 5.37-12 12-12z" fill="#6c7fd8"/><path d="m241.921 447.51v18.82l-.13.33h-92.93v-19.15c0-6.63 5.37-12 12-12h69.06c6.63 0 12 5.37 12 12z" fill="#f2fbff"/><path d="m185.861 435.51c-6.63 0-12 5.37-12 12v19.15h-25v-19.15c0-6.63 5.37-12 12-12z" fill="#dff6fd"/><path d="m345.091 365.529h69.396c28.809.713 55.115 22.693 62.551 52.201l13.477 74.103c1.078 5.928-3.476 11.386-9.502 11.386h-202.448c-6.026 0-10.58-5.457-9.502-11.386l13.477-74.103c5.498-30.229 31.826-52.201 62.551-52.201z" fill="#a2aee6"/><path d="m145.581 310.59v18.79l-30 6.93v-18.78z" fill="#dff6fd"/><path d="m429.476 367.844v57.698c0 16.699-13.54 30.249-30.249 30.249h-34.849c-18.929 0-34.279-15.35-34.279-34.279v-54.198c4.82-1.17 9.85-1.79 14.99-1.79h69.398c5.099.13 10.129.92 14.989 2.32z" fill="#f2fbff"/><path d="m368.088 365.52c-30.72 0-57.05 21.98-62.55 52.21l-13.48 74.1c-1.08 5.93 3.48 11.39 9.5 11.39h-23c-6.02 0-10.58-5.46-9.5-11.39l13.48-74.1c5.5-30.23 31.83-52.21 62.55-52.21z" fill="#8795de"/><path d="m387.378 455.79h-23c-18.93 0-34.28-15.35-34.28-34.28v-54.2c4.82-1.17 9.85-1.79 14.99-1.79h8.01v55.99c0 18.93 15.35 34.28 34.28 34.28z" fill="#dff6fd"/><path d="m458.276 295.932h-156.974c-11.072 0-20.047-8.975-20.047-20.047 0-11.072 8.975-20.047 20.047-20.047h156.974c11.072 0 20.047 8.975 20.047 20.047 0 11.072-8.976 20.047-20.047 20.047z" fill="#ffcebf"/><path d="m380.911 395.251h-2.244c-14.381 0-26.039-11.658-26.039-26.039v-16.828h54.322v16.828c0 14.381-11.658 26.039-26.039 26.039z" fill="#ffcebf"/><path d="m379.789 365.524c39.847 0 72.15-32.302 72.15-72.149v-35.762c0-26.069-21.133-47.202-47.202-47.202h-49.895c-26.069 0-47.202 21.133-47.202 47.202v35.762c-.001 39.847 32.302 72.149 72.149 72.149z" fill="#ffeee6"/><path d="m392.288 364.44c-4.06.71-8.24 1.08-12.5 1.08-39.85 0-72.15-32.3-72.15-72.14v-35.77c0-26.07 21.13-47.2 47.2-47.2h25c-26.07 0-47.2 21.13-47.2 47.2v35.77c0 35.58 25.76 65.14 59.65 71.06z" fill="#ffdfcf"/><path d="m382.354 228.747h-33.105c-4.847 0-8.777-3.93-8.777-8.777 0-20.297 16.454-36.751 36.751-36.751h33.105c4.847 0 8.777 3.93 8.777 8.777 0 20.297-16.454 36.751-36.751 36.751z" fill="#ffc344"/><path d="m390.411 322.629h-21.245c-9.76 0-17.672-7.912-17.672-17.672 0-9.76 7.912-17.672 17.672-17.672h21.245c9.76 0 17.672 7.912 17.672 17.672 0 9.76-7.912 17.672-17.672 17.672z" fill="#a2aee6"/><circle cx="379.789" cy="326.629" fill="#f2fbff" r="12.5"/></g><g><path d="m360.125 265.468v-7.915c0-4.143-3.358-7.5-7.5-7.5s-7.5 3.357-7.5 7.5v7.915c0 4.143 3.358 7.5 7.5 7.5s7.5-3.358 7.5-7.5z"/><path d="m497.893 491.772-13.477-74.106c-.03-.165-.065-.328-.106-.491-7.37-29.246-31.536-51.773-59.497-56.813 1.868-1.278 3.685-2.638 5.444-4.079 3.204-2.625 3.674-7.351 1.049-10.555-2.625-3.203-7.351-3.675-10.555-1.049-11.47 9.397-25.949 14.585-40.787 14.627h-.333c-35.578-.084-64.496-29.05-64.496-64.646v-35.77c0-13.693 7.208-26.294 18.394-33.475 1.847 6.961 8.183 12.114 15.717 12.114h33.104c13.885 0 26.291-6.434 34.41-16.47 16.28 5.15 27.674 20.379 27.674 37.832v35.771c0 8.571-1.651 16.893-4.906 24.733-1.589 3.825.225 8.214 4.05 9.803.94.391 1.915.575 2.874.575 2.94 0 5.731-1.74 6.929-4.626 2.73-6.573 4.522-13.422 5.405-20.446 14.952-.276 27.033-12.517 27.033-27.533 0-15.066-12.159-27.339-27.179-27.538-3.268-19.047-16.441-35.043-34.481-41.88 1.575-4.538 2.443-9.404 2.443-14.472 0-8.976-7.302-16.277-16.277-16.277h-33.105c-19.747 0-36.51 13.004-42.187 30.896-17.855 6.96-30.82 23.031-34.088 41.733-15.026.191-27.193 12.467-27.193 27.538 0 15.018 12.083 27.26 27.037 27.533.501 3.963 1.293 7.835 2.356 11.597l-59.682-13.804c-2.054-.475-3.489-2.281-3.489-4.393v-25.341c29.845-15.404 50.788-45.721 52.92-81.031 12.288-1.078 22.82-8.402 28.345-18.797 2.563-4.816 4.046-10.299 4.142-16.1.011-.173.018-26.83.018-26.83 0-71.68-58.32-130-130.01-130-71.68 0-130 58.32-130 130 0 0 .008 26.666.02 26.85.105 6.171 1.775 11.976 4.65 17.01 5.607 9.816 15.755 16.712 27.564 17.839 2.129 35.429 23.194 65.836 53.191 81.2v25.199c0 2.111-1.435 3.918-3.49 4.394l-62.521 14.46c-29.023 6.713-51.305 31.044-55.446 60.542l-15.31 108.87c-.908 6.454 1.023 12.977 5.298 17.894 4.276 4.92 10.468 7.741 16.989 7.741h230.651 2.307 211.72c5.103 0 9.905-2.247 13.174-6.165s4.62-9.044 3.707-14.064zm-27.074-214.605c0 6.526-5.01 11.898-11.385 12.487v-24.975c6.375.589 11.385 5.962 11.385 12.488zm-93.599-85.167h33.105c.704 0 1.277.573 1.277 1.277 0 16.129-13.122 29.251-29.251 29.251h-33.104c-.704 0-1.277-.573-1.277-1.277-.002-16.129 13.12-29.251 29.25-29.251zm21.572 182.306c-2.198 8.455-9.874 14.725-19.007 14.725-9.134 0-16.81-6.269-19.008-14.725zm-61.198.498c2.455-.329 4.956-.498 7.492-.498h.395c2.404 16.781 16.867 29.725 34.303 29.725 17.435 0 31.899-12.943 34.302-29.725h.302c2.556.068 5.088.334 7.585.77v49.365c0 13.856-11.273 25.13-25.13 25.13h-29.77c-16.255 0-29.48-13.225-29.48-29.48v-45.287zm-48.842-97.637c0-6.525 5.009-11.898 11.382-12.488v24.975c-6.374-.59-11.382-5.962-11.382-12.487zm21.844 56.878c5.925 10.367 14.104 19.281 23.876 26.067-17.232 2.588-32.608 11.368-43.544 24.221-2.241-2.693-5.042-4.904-8.224-6.451v-50.918l19.896 4.602c2.735.635 5.414 1.469 7.996 2.479zm-187.513-10.549 15-3.469v55.384h-15zm30 5.159c12.959 6.797 27.475 10.428 42.31 10.428s29.351-3.631 42.31-10.428v46.755h-84.62zm99.62-8.63 15 3.469v51.916h-15zm40.378-143.438v-40.685c9.803 1.597 17.318 10.1 17.318 20.337 0 10.248-7.515 18.751-17.318 20.348zm-97.692-161.587c62.48 0 113.47 50.07 114.97 112.18-5.022-3.573-11.014-5.867-17.484-6.431-1.547-19.378-12.071-36.741-28.827-47.13-4.599-2.852-10.154-3.396-15.242-1.494-5.128 1.916-8.999 6.011-10.62 11.234v.001l-6.942 22.378-29.277-17.101c-3.743-2.186-8.27-2.289-12.11-.276-3.839 2.014-6.328 5.796-6.659 10.119l-.239 3.136-31.785-28.308c-5.323-4.741-12.878-5.801-19.248-2.698-19.776 9.629-32.582 28.56-34.288 50.166-6.37.603-12.259 2.881-17.211 6.404 1.502-62.11 52.492-112.18 114.962-112.18zm-115 141.24c0-10.144 7.378-18.589 17.049-20.296v40.602c-9.671-1.707-17.049-10.153-17.049-20.306zm32.049 29.531v-60.044c0-17.853 9.984-33.804 26.056-41.63.32-.155.669-.231 1.021-.231.603 0 1.211.223 1.685.645l35.555 31.666c3.574 3.183 8.552 4.047 12.99 2.259 4.439-1.791 7.423-5.868 7.788-10.642l.32-4.188 28.546 16.673c3.311 1.933 7.26 2.245 10.833.854 3.573-1.389 6.273-4.286 7.409-7.947l7.874-25.381c.321-1.035 1.105-1.465 1.543-1.629.506-.188 1.28-.308 2.088.192 13.735 8.516 21.936 23.229 21.936 39.358v60.044c0 45.668-37.154 82.821-82.822 82.821s-82.822-37.153-82.822-82.82zm82.821 97.821c10.356 0 20.339-1.623 29.715-4.619v19.127c0 6.535 3.191 12.382 8.258 15.941-23.445 13.558-52.231 13.558-75.676.001 5.068-3.559 8.259-9.407 8.259-15.942v-19.04c9.296 2.941 19.188 4.532 29.444 4.532zm-164.593 210.827c-1.445-1.663-2.072-3.781-1.765-5.964l15.311-108.872c3.284-23.396 20.956-42.692 43.973-48.016l19.899-4.602v50.914c-8.237 4.005-13.929 12.459-13.929 22.22v39.471c0 4.143 3.358 7.5 7.5 7.5s7.5-3.357 7.5-7.5v-39.47c0-5.343 4.342-9.689 9.68-9.689h153.11c4.818 0 8.814 3.538 9.556 8.217-2.943 5.897-5.116 12.279-6.345 19.039l-14.43 79.333h-11.301v-49.489c0-10.752-8.748-19.5-19.5-19.5h-69.063c-10.752 0-19.5 8.748-19.5 19.5v49.489h-32.208v-22.43c0-4.143-3.358-7.5-7.5-7.5s-7.5 3.357-7.5 7.5v22.43h-57.82c-2.208 0-4.221-.917-5.668-2.581zm203.759-35.26h-78.063v-11.648c0-2.481 2.019-4.5 4.5-4.5h69.063c2.481 0 4.5 2.019 4.5 4.5zm-78.064 15h78.063v22.841h-78.063zm326.309 22.066c-.242.29-.778.775-1.657.775h-29.545v-35.59c0-.127.029-.256.083-.371l5.657-11.973c1.77-3.745.168-8.216-3.577-9.985-3.746-1.771-8.216-.169-9.985 3.577l-5.657 11.973c-.995 2.106-1.521 4.45-1.521 6.779v35.59h-113.365v-35.59c0-2.329-.526-4.674-1.521-6.779l-5.657-11.973c-1.77-3.744-6.239-5.346-9.985-3.577-3.745 1.77-5.347 6.24-3.577 9.985l5.657 11.973c.054.114.083.243.083.371v35.59h-32.131l13.94-76.65c3.429-18.85 16.024-34.038 32.682-41.335v41.075c0 24.526 19.954 44.48 44.48 44.48h29.77c22.128 0 40.13-18.002 40.13-40.13v-44.44c15.627 7.7 28.105 22.548 32.73 40.604l13.431 73.853c.158.863-.224 1.479-.465 1.768z"/><path d="m414.446 265.468v-7.915c0-4.143-3.358-7.5-7.5-7.5s-7.5 3.357-7.5 7.5v7.915c0 4.143 3.358 7.5 7.5 7.5s7.5-3.358 7.5-7.5z"/><path d="m359.872 329.626c.875 10.227 9.464 18.284 19.913 18.284 10.455 0 19.048-8.068 19.914-18.303 3.153-1.255 6.059-3.122 8.508-5.563 4.757-4.758 7.377-11.08 7.377-17.804 0-13.879-11.296-25.17-25.18-25.17h-21.24c-6.716 0-13.036 2.613-17.812 7.375-4.745 4.761-7.358 11.08-7.358 17.795 0 10.522 6.555 19.662 15.878 23.386zm19.913 3.284c-2.757 0-5-2.243-5-5s2.243-5 5-5 5 2.243 5 5-2.243 5-5 5zm-17.825-33.859c1.928-1.922 4.487-2.98 7.205-2.98h21.24c5.613 0 10.18 4.562 10.18 10.17 0 2.717-1.06 5.272-2.975 7.188-.714.711-1.524 1.301-2.397 1.768-3.671-4.447-9.224-7.286-15.427-7.286-6.202 0-11.754 2.838-15.425 7.283-3.197-1.725-5.366-5.107-5.366-8.953-.001-2.719 1.058-5.277 2.965-7.19z"/><path d="m234.491 170.521c4.142 0 7.5-3.357 7.5-7.5v-13.555c0-4.143-3.358-7.5-7.5-7.5s-7.5 3.357-7.5 7.5v13.555c0 4.143 3.358 7.5 7.5 7.5z"/><path d="m156.295 141.967c-4.142 0-7.5 3.357-7.5 7.5v13.555c0 4.143 3.358 7.5 7.5 7.5s7.5-3.357 7.5-7.5v-13.555c0-4.143-3.358-7.5-7.5-7.5z"/><path d="m183.494 189.903c3.559 2.585 7.729 3.877 11.899 3.877s8.341-1.292 11.899-3.877c3.352-2.435 4.095-7.125 1.66-10.477-2.434-3.35-7.125-4.096-10.476-1.66-1.845 1.34-4.323 1.34-6.168 0-3.352-2.435-8.042-1.69-10.476 1.66-2.433 3.352-1.69 8.043 1.662 10.477z"/><path d="m195.393 239.5c-8.836 0-17.671-3.232-24.557-9.697-3.02-2.836-3.168-7.582-.333-10.602 2.836-3.02 7.583-3.168 10.602-.334 8.012 7.525 20.564 7.525 28.576 0 3.021-2.834 7.767-2.687 10.602.334 2.835 3.02 2.687 7.766-.333 10.602-6.885 6.465-15.721 9.697-24.557 9.697z"/></g></g></svg>