<svg id="Capa_1" enable-background="new 0 0 513.605 513.605" height="512" viewBox="0 0 513.605 513.605" width="512" xmlns="http://www.w3.org/2000/svg"><g><g><path d="m365.698 325.862-62.52-14.462c-5.442-1.259-9.296-6.106-9.296-11.691v-58.468c0-6.627-5.373-12-12-12h-50.16c-6.627 0-12 5.373-12 12v58.468c0 5.586-3.854 10.432-9.296 11.691l-62.52 14.462c-26.208 6.062-45.974 27.642-49.718 54.28l-15.303 108.875c-1.269 9.026 5.739 17.088 14.854 17.088h318.127c9.115 0 16.123-8.062 14.854-17.088l-15.304-108.875c-3.744-26.638-23.51-48.217-49.718-54.28z" fill="#a2aee6"/><path d="m244.725 229.245v83.46c0 5.59-3.85 10.44-9.3 11.7l-62.52 14.46c-26.2 6.06-45.97 27.64-49.71 54.28l-13.57 96.53c-1.05 7.47 3.58 14.33 10.44 16.43h-22.32c-9.12 0-16.13-8.06-14.86-17.09l15.31-108.87c3.74-26.64 23.51-48.22 49.71-54.28l62.52-14.46c5.45-1.26 9.3-6.11 9.3-11.7v-58.46c0-6.63 5.37-12 12-12z" fill="#8795de"/><path d="m358.932 45.484c-5.027-2.669-9.393-6.485-12.499-11.255-10.284-15.791-28.085-26.234-48.334-26.234h-87.64c-42.175 0-76.365 34.19-76.365 76.365v70.563h114.209 107.457 23.966v-74.885c0-14.98-8.425-27.988-20.794-34.554z" fill="#7a6d79"/><path d="m304.832 319.785-33.99 30.8h-16.17l-47.57-30.41 3.32-.77c5.45-1.26 9.3-6.11 9.3-11.7v-58.46c0-6.63 5.37-12 12-12h50.16c6.63 0 12 5.37 12 12v58.46c0 5.59 3.85 10.44 9.3 11.7z" fill="#ffdfcf"/><path d="m281.882 237.245h-50.16c-6.627 0-12 5.373-12 12v58.46c0 5.59-3.85 10.44-9.3 11.7l-3.32.77 21.57 13.79 6.75-1.56c5.444-1.258 9.3-6.107 9.3-11.695v-18.863c0-2.356 2.023-4.177 4.371-3.978 2.541.215 5.112.326 7.709.326 13.21 0 25.77-2.84 37.08-7.94v-41.01c0-6.627-5.372-12-12-12z" fill="#ffcebf"/><path d="m235.462 7.995c-42.18 0-76.37 34.19-76.37 76.37v70.56h-25v-70.56c0-42.18 34.19-76.37 76.37-76.37h25z" fill="#685e68"/><path d="m351.591 186.484h-189.577c-15.538 0-28.135-12.596-28.135-28.135 0-15.538 12.596-28.135 28.135-28.135h189.577c15.538 0 28.135 12.596 28.135 28.135 0 15.539-12.597 28.135-28.135 28.135z" fill="#ffcebf"/><path d="m256.802 278.197c49.883 0 90.322-40.438 90.322-90.321v-59.949c0-35.197-28.533-63.73-63.73-63.73h-53.183c-35.197 0-63.73 28.533-63.73 63.73v59.949c0 49.882 40.438 90.321 90.321 90.321z" fill="#ffeee6"/><path d="m269.302 277.325c-4.09.58-8.26.87-12.5.87-49.88 0-90.32-40.44-90.32-90.32v-59.95c0-35.2 28.53-63.73 63.73-63.73h25c-35.2 0-63.73 28.53-63.73 63.73v59.95c0 45.64 33.86 83.37 77.82 89.45z" fill="#ffdfcf"/><path d="m347.124 130.214c-17.228 0-31.771-12.064-35.376-28.205-.839-3.757-4.939-5.721-8.429-4.096-29.703 13.829-60.725 14.872-93.402-.122-3.45-1.583-7.491.443-8.312 4.149-3.579 16.175-22.339 28.274-39.591 28.274l4.333-56.414 39.244-39.244 141.399 36.114 9.616 53.87z" fill="#7a6d79"/><path d="m176.826 318.953 22.477-22.477c1.562-1.562 4.095-1.562 5.657 0l50.671 50.671c1.562 1.562 1.562 4.095 0 5.657l-21.063 21.063c-1.562 1.562-4.095 1.562-5.657 0l-52.085-52.085c-.781-.781-.781-2.047 0-2.829z" fill="#dff6fd"/><path d="m336.779 318.953-22.477-22.477c-1.562-1.562-4.095-1.562-5.657 0l-50.671 50.671c-1.562 1.562-1.562 4.095 0 5.657l21.063 21.063c1.562 1.562 4.095 1.562 5.657 0l52.085-52.085c.781-.781.781-2.047 0-2.829z" fill="#dff6fd"/><g fill="#c8effe"><path d="m201.826 321.477c-.781-.781-.781-2.047 0-2.828l12.805-12.806-9.672-9.672c-1.562-1.562-4.095-1.562-5.657 0l-22.477 22.477c-.781.781-.781 2.047 0 2.828l52.085 52.085c1.562 1.562 4.095 1.562 5.657 0l9.672-9.672z"/><path d="m282.974 352.804c-1.562-1.562-1.562-4.095 0-5.657l40.999-40.999-9.672-9.672c-1.562-1.562-4.095-1.562-5.657 0l-50.671 50.671c-1.562 1.562-1.562 4.095 0 5.657l21.063 21.063c1.562 1.562 4.095 1.562 5.657 0l9.672-9.672z"/></g></g><g><path d="m438.149 487.971-15.31-108.869c-4.142-29.5-26.424-53.831-55.448-60.544l-27.188-6.287-20.597-20.597c-2.172-2.173-5.061-3.369-8.132-3.369-3.072 0-5.96 1.196-8.132 3.368l-1.959 1.959v-19.201c29.909-15.378 50.907-45.722 53.051-81.073 12.549-.995 23.281-8.505 28.799-19.149 2.55-4.9 3.99-10.46 3.99-16.36v-78.3c0-17.29-9.49-33.07-24.77-41.19-4.05-2.15-7.42-5.17-9.73-8.72-12.091-18.559-32.511-29.639-54.621-29.639h-16.3c-4.14 0-7.5 3.35-7.5 7.5 0 4.14 3.36 7.5 7.5 7.5h16.3c17.02 0 32.74 8.53 42.05 22.83 3.7 5.68 8.98 10.44 15.26 13.78 10.37 5.5 16.81 16.21 16.81 27.94v49.26c-5.82-4.15-12.94-6.6-20.63-6.6h-4.69c-.001 0-.002 0-.002 0-13.251-.043-24.948-9.42-27.833-22.334-.893-4-3.513-7.332-7.187-9.143-3.7-1.82-7.975-1.866-11.727-.119-28.992 13.496-57.486 13.453-87.109-.14-3.709-1.702-7.936-1.635-11.597.186-3.669 1.824-6.28 5.163-7.165 9.16-2.865 12.945-14.565 22.345-27.842 22.389h-4.428c-7.69 0-14.81 2.45-20.63 6.6v-44.939c0-37.98 30.89-68.87 68.87-68.87h36.34c4.14 0 7.5-3.36 7.5-7.5 0-4.15-3.36-7.5-7.5-7.5h-36.34c-46.25 0-83.87 37.62-83.87 83.87v73.98c0 5.63 1.31 10.96 3.65 15.69 5.413 10.995 16.333 18.804 29.139 19.82 2.145 35.35 23.143 65.694 53.051 81.072v19.197l-1.958-1.957c-4.483-4.484-11.78-4.482-16.266 0l-20.599 20.6-27.187 6.287c-29.023 6.712-51.306 31.043-55.447 60.542l-15.309 108.869c-.908 6.454 1.023 12.977 5.298 17.894 4.276 4.92 10.468 7.741 16.989 7.741h318.12c6.521 0 12.713-2.821 16.989-7.741 4.274-4.918 6.205-11.44 5.297-17.893zm-126.675-183.216 16.113 16.112-45.721 45.722-16.113-16.113 33.433-33.432c.001-.001.001-.001.002-.002zm60.748-146.905c0 10.348-7.657 18.91-17.6 20.382v-40.774c9.944 1.474 17.6 10.044 17.6 20.392zm-230.84 0c0-10.348 7.657-18.918 17.6-20.392v40.774c-9.943-1.472-17.6-10.034-17.6-20.382zm32.601 29.525v-50.852c16.411-2.965 30.126-15.286 34.503-31.65 32.284 14.312 64.693 14.336 96.387.077 4.423 16.409 18.253 28.747 34.75 31.623v50.801c0 45.667-37.153 82.819-82.82 82.819s-82.82-37.151-82.82-82.818zm53.239 93.244c9.336 2.968 19.273 4.576 29.58 4.576s20.244-1.607 29.58-4.576v28.014l-29.577 29.578-29.583-29.582zm194.308 215.405c-1.447 1.664-3.46 2.581-5.668 2.581h-57.816v-78.87c0-4.143-3.358-7.5-7.5-7.5s-7.5 3.357-7.5 7.5v78.87h-172.488v-78.87c0-4.143-3.358-7.5-7.5-7.5s-7.5 3.357-7.5 7.5v78.87h-57.816c-2.208 0-4.221-.917-5.668-2.581-1.445-1.663-2.072-3.781-1.765-5.965l15.311-108.871c3.284-23.396 20.956-42.691 43.972-48.015l22.344-5.167 17.453 17.453c2.929 2.928 7.678 2.928 10.606 0 2.929-2.93 2.929-7.678 0-10.607l-13.982-13.981 16.119-16.119 45.724 45.724-16.114 16.114-6.946-6.947c-2.929-2.93-7.678-2.929-10.607-.001-2.929 2.929-2.929 7.678 0 10.606l9.421 9.422c2.236 2.235 5.177 3.354 8.123 3.354 2.943 0 5.891-1.117 8.143-3.354l16.928-16.929 16.931 16.931c2.242 2.241 5.186 3.361 8.13 3.361s5.89-1.12 8.132-3.361l51.666-51.667 22.35 5.167c23.017 5.324 40.688 24.619 43.973 48.018l15.31 108.87c.307 2.182-.32 4.301-1.766 5.964z"/><path d="m295.9 172.126c4.142 0 7.5-3.357 7.5-7.5v-13.554c0-4.143-3.358-7.5-7.5-7.5s-7.5 3.357-7.5 7.5v13.554c0 4.143 3.358 7.5 7.5 7.5z"/><path d="m217.704 172.126c4.142 0 7.5-3.357 7.5-7.5v-13.554c0-4.143-3.358-7.5-7.5-7.5s-7.5 3.357-7.5 7.5v13.554c0 4.143 3.358 7.5 7.5 7.5z"/><path d="m244.902 191.507c3.559 2.586 7.729 3.879 11.9 3.879s8.341-1.293 11.9-3.879c3.351-2.435 4.094-7.125 1.659-10.477-2.435-3.35-7.125-4.094-10.476-1.658-1.844 1.34-4.322 1.34-6.166 0-3.351-2.437-8.042-1.693-10.476 1.658-2.435 3.352-1.692 8.042 1.659 10.477z"/><path d="m256.802 385.14c-4.142 0-7.5 3.357-7.5 7.5v10.806c0 4.143 3.358 7.5 7.5 7.5s7.5-3.357 7.5-7.5v-10.806c0-4.143-3.358-7.5-7.5-7.5z"/><path d="m256.802 460.783c-4.142 0-7.5 3.357-7.5 7.5v10.806c0 4.143 3.358 7.5 7.5 7.5s7.5-3.357 7.5-7.5v-10.806c0-4.142-3.358-7.5-7.5-7.5z"/><path d="m256.802 422.961c-4.142 0-7.5 3.357-7.5 7.5v10.807c0 4.143 3.358 7.5 7.5 7.5s7.5-3.357 7.5-7.5v-10.807c0-4.142-3.358-7.5-7.5-7.5z"/><path d="m256.802 241.301c-8.835 0-17.671-3.232-24.556-9.698-3.02-2.835-3.168-7.581-.333-10.601 2.836-3.02 7.583-3.167 10.602-.333 8.012 7.523 20.563 7.523 28.575 0 3.02-2.836 7.766-2.687 10.602.333 2.835 3.02 2.687 7.766-.333 10.601-6.885 6.466-15.721 9.698-24.557 9.698z"/></g></g></svg>