<svg id="Capa_1" enable-background="new 0 0 512 512" height="512" viewBox="0 0 512 512" width="512" xmlns="http://www.w3.org/2000/svg"><g><g><g><path d="m286.128 154.996c6.124-22.748 12.604-46.999 8.808-70.709-3.822-23.869-21.032-42.228-41.279-54.381-11.49-6.897-23.959-12.097-36.69-16.216-20.469-6.623-42.579-7.912-63.728-4.074-15.602 2.831-30.123 6.114-42.742 15.945-2.004 1.562-12.767 10.345-19.156 19.133-10.681-6.011-26.221-6.023-36.406 1.283-8.947 6.418-13.244 19.332-14.322 29.864-2.537 24.8-.202 50.089 6.833 74.005l5.624 22.736h227.999z" fill="#537983"/></g><g><path d="m286.123 154.993-5.059 17.586h-21.27l4.252-14.768c6.383-23.73 13.144-49.033 9.181-73.768-3.983-24.905-21.937-44.054-43.058-56.73-11.989-7.2-25.004-12.627-38.278-16.918-3.346-1.085-6.731-2.031-10.157-2.838 11.949.408 23.849 2.45 35.231 6.134 12.726 4.123 25.203 9.321 36.695 16.211 20.244 12.159 37.452 30.521 41.275 54.39 3.795 23.709-2.687 47.957-8.812 70.701z" fill="#3e5959"/></g><g><path d="m277.934 504.531h-220.32v-128.533c0-60.84 49.32-110.16 110.16-110.16 60.84 0 110.16 49.32 110.16 110.16z" fill="#eaf6ff"/></g><g><path d="m277.936 375.994v128.541h-20.311v-128.541c0-57.421-43.925-104.566-100.001-109.683 3.345-.313 6.732-.469 10.15-.469 30.419 0 57.962 12.328 77.898 32.264s32.264 47.469 32.264 77.888z" fill="#d8ecfe"/></g><g><path d="m167.774 265.842v17.061c-6.058 10.416-37.048 64.361-53.986 45.424-3.967-4.43-5.831-10.931-7.418-16.525-2.37-8.335-2.854-17.35-1.865-25.983 17.906-12.59 39.727-19.977 63.269-19.977z" fill="#c4e2ff"/></g><g><path d="m229.178 311.802c-1.587 5.594-3.451 12.095-7.418 16.525-16.948 18.936-47.928-35.008-53.986-45.424v-17.061c23.542 0 45.363 7.387 63.269 19.977.989 8.634.505 17.648-1.865 25.983z" fill="#c4e2ff"/></g><g><path d="m229.174 311.799c-1.583 5.596-3.445 12.099-7.419 16.53-7.857 8.783-18.741 1.882-28.748-9.072 3.276.229 6.353-.936 9.062-3.963 3.973-4.431 5.835-10.934 7.419-16.52 2.181-7.658 2.768-15.893 2.071-23.879 6.881 2.987 13.413 6.652 19.488 10.924.985 8.634.497 17.646-1.873 25.98z" fill="#b3dafe"/></g><g><path d="m167.836 284.41c-54.185 0-98.11-43.925-98.11-98.11v-76.369h196.22v76.369c0 54.184-43.926 98.11-98.11 98.11z" fill="#fed2a4"/></g><g><path d="m265.949 109.933v76.367c0 54.181-43.924 98.105-98.115 98.105-3.416 0-6.781-.179-10.107-.518 49.431-5.059 87.998-46.822 87.998-97.587v-84.672z" fill="#ffbd86"/></g><g><path d="m265.946 189.617h13.249c11.379 0 20.603-9.224 20.603-20.603 0-11.379-9.224-20.603-20.603-20.603h-13.249z" fill="#fed2a4"/></g><g><path d="m69.995 195.19h-13.655c-11.727 0-21.233-9.506-21.233-21.233 0-11.727 9.506-21.233 21.233-21.233h13.655z" fill="#fed2a4"/></g><g><path d="m69.995 150.472s20.016-22.24 25.248-35.372c0 0 14.58 20.413 45.087 25.351 3.93.636 7.35-2.748 6.782-6.689-.533-3.698-1.155-8.443-1.663-13.527 0 0 24.003 23.218 75.626 22.687 3.681-.038 6.449-3.383 5.779-7.003l-2.77-14.969 41.862 26.816 2.444-27.813-2.444-30.52h-196.22l-7.432 30.52z" fill="#537983"/></g></g><g><g><path d="m276.197 482.349c-29.311-29.311-29.311-76.833 0-106.144l72.568-72.568c29.311-29.311 76.833-29.311 106.144 0 29.311 29.311 29.311 76.833 0 106.144l-72.568 72.568c-29.31 29.311-76.833 29.311-106.144 0z" fill="#f5f8f9"/></g><g><path d="m476.891 356.711c0 19.209-7.319 38.407-21.977 53.066l-72.573 72.573c-29.306 29.306-76.835 29.306-106.141 0-4.342-4.341-8.036-9.071-11.083-14.09 29.445 27.026 75.242 26.269 103.771-2.27l72.573-72.563c14.648-14.658 21.977-33.867 21.977-53.076 0-13.523-3.635-27.046-10.894-38.985.807.737 1.593 1.494 2.37 2.27 14.658 14.658 21.977 33.867 21.977 53.075z" fill="#e8edf2"/></g><g><circle cx="398.927" cy="359.619" fill="#fed2a4" r="48.633"/></g><g><path d="m433.316 394.004c-18.99 19-49.779 19-68.779 0-8.554-8.554-13.244-19.488-14.09-30.67 2.101 3.674 4.71 7.12 7.847 10.257 18.99 18.99 49.78 18.99 68.779 0 10.436-10.436 15.136-24.437 14.1-38.079 10.614 18.57 7.995 42.639-7.857 58.492z" fill="#ffbd86"/></g><g><path d="m424.228 440.467-41.884 41.884c-29.309 29.309-76.835 29.309-106.144 0-22.019-22.019-27.493-54.304-16.441-81.427 72.243 33.55 127.993 40.464 164.469 39.543z" fill="#d9e7ec"/></g><g><path d="m424.224 440.467-41.883 41.883c-29.306 29.306-76.835 29.306-106.141 0-4.342-4.341-8.036-9.071-11.083-14.09 29.445 27.026 75.242 26.269 103.771-2.27l26.418-26.418c10.685.895 20.334 1.114 28.918.895z" fill="#c5d3dd"/></g><g><circle cx="167.774" cy="350.468" r="7.468"/><circle cx="167.774" cy="380.381" r="7.468"/><circle cx="167.774" cy="410.294" r="7.468"/><path d="m119.984 159.614c-4.125 0-7.468 3.343-7.468 7.468v18.325c0 4.125 3.344 7.468 7.468 7.468 4.125 0 7.468-3.343 7.468-7.468v-18.325c.001-4.124-3.343-7.468-7.468-7.468z"/><path d="m215.688 192.876c4.125 0 7.468-3.343 7.468-7.468v-18.325c0-4.125-3.344-7.468-7.468-7.468-4.125 0-7.468 3.343-7.468 7.468v18.325c-.001 4.125 3.343 7.468 7.468 7.468z"/><path d="m190.057 227.589c3.069-2.757 3.321-7.479.565-10.547-2.758-3.069-7.479-3.321-10.547-.564-3.271 2.939-7.497 4.557-11.898 4.557-4.645 0-9.042-1.778-12.38-5.005-2.966-2.869-7.694-2.788-10.56.177-2.867 2.966-2.788 7.694.177 10.561 6.138 5.936 14.222 9.204 22.763 9.204 8.093-.001 15.864-2.978 21.88-8.383z"/><path d="m438.597 399.289c10.596-10.597 16.432-24.686 16.432-39.67 0-14.985-5.836-29.074-16.432-39.67-21.874-21.871-57.465-21.873-79.339 0-10.596 10.596-16.432 24.685-16.432 39.67 0 14.984 5.836 29.073 16.432 39.67 10.938 10.938 25.301 16.405 39.669 16.405 14.365 0 28.734-5.47 39.67-16.405zm-80.834-39.67c0-10.995 4.282-21.333 12.057-29.107 8.025-8.026 18.566-12.038 29.107-12.038s21.083 4.012 29.108 12.038c7.775 7.775 12.057 18.112 12.057 29.107s-4.282 21.333-12.057 29.107c-16.05 16.051-42.165 16.051-58.215 0-7.775-7.774-12.057-18.111-12.057-29.107z"/><path d="m397.959 333.916c-2.916-2.915-7.645-2.915-10.562 0l-6.12 6.12c-2.917 2.917-2.917 7.645 0 10.563 1.458 1.458 3.37 2.187 5.281 2.187s3.823-.729 5.281-2.187l6.12-6.12c2.917-2.917 2.917-7.645 0-10.563z"/><path d="m413.229 379.456c1.911 0 3.823-.729 5.281-2.187l6.12-6.12c2.917-2.917 2.917-7.645 0-10.563-2.916-2.915-7.645-2.915-10.562 0l-6.12 6.12c-2.917 2.917-2.917 7.645 0 10.563 1.458 1.458 3.369 2.187 5.281 2.187z"/><path d="m460.191 298.355c-15.211-15.21-35.43-23.79-56.933-24.158-21.464-.409-41.897 7.462-57.579 22.043-3.021 2.808-3.193 7.534-.384 10.555 2.809 3.02 7.535 3.194 10.555.383 12.84-11.938 29.608-18.351 47.152-18.046 17.61.301 34.168 7.328 46.627 19.786 12.765 12.765 19.796 29.738 19.796 47.791s-7.03 35.025-19.796 47.79l-28.556 28.556c-32.668.413-84.325-5.818-151.351-35.804 3.089-5.725 7.027-11.035 11.756-15.764l50.344-50.345c2.917-2.917 2.917-7.645 0-10.563-2.916-2.915-7.645-2.915-10.562 0l-37.271 37.272c-5.57-35.802-27.343-66.306-57.566-83.766 25.492-17.069 43.176-44.932 46.445-77h6.328c15.478 0 28.071-12.593 28.071-28.072 0-9.143-4.396-17.277-11.182-22.406 5.185-20.025 9.688-41.882 6.226-63.501-3.736-23.334-19.65-44.501-44.81-59.604-11.059-6.638-23.566-12.172-38.235-16.918-21.428-6.933-44.722-8.424-67.36-4.318-16.255 2.949-32.005 6.5-45.999 17.402-.446.347-9.415 7.373-16.764 15.832-12.778-4.646-28.122-3.082-38.561 4.407-5.71 4.095-10.211 10.266-13.378 18.34-1.506 3.84.386 8.174 4.225 9.681 3.838 1.504 8.174-.385 9.68-4.226 2.068-5.272 4.896-9.303 8.179-11.658 7.366-5.285 19.837-5.657 28.389-.843 3.303 1.856 7.475.949 9.704-2.117 5.279-7.262 14.571-15.192 17.705-17.633 11.332-8.829 24.587-11.785 39.486-14.488 20.221-3.672 41.002-2.347 60.095 3.831 13.576 4.392 25.072 9.466 35.145 15.513 12.345 7.41 33.664 23.65 37.749 49.158 2.928 18.286-.749 37.115-5.482 55.622-.948-.097-1.91-.148-2.884-.148h-10.054l-41.029-26.282c-2.506-1.605-5.726-1.571-8.196.091-2.47 1.661-3.717 4.63-3.176 7.556l2.435 13.154c-46.26-.057-68.343-20.416-68.533-20.596-2.252-2.179-5.627-2.72-8.447-1.355-2.821 1.366-4.489 4.348-4.177 7.465.377 3.767.848 7.704 1.404 11.73-25.387-4.873-37.6-21.264-38.1-21.948-1.588-2.224-4.268-3.408-6.975-3.073-2.712.329-5.029 2.111-6.04 4.649-3.665 9.196-23.603 32.597-23.919 32.92h-8.048c-.811 0-1.612.042-2.406.108-4.624-16.535-6.93-33.646-6.846-50.904.02-4.125-3.307-7.485-7.432-7.505h-.037c-4.107 0-7.447 3.32-7.467 7.431-.094 19.025 2.504 37.886 7.708 56.094-7.384 5.199-12.222 13.781-12.222 23.478 0 15.826 12.875 28.701 28.701 28.701h7.187c4.638 29.688 21.693 55.314 45.666 71.389-35.255 20.336-59.047 58.41-59.047 101.951v128.534c0 4.125 3.344 7.468 7.468 7.468h220.32c4.125 0 7.468-3.343 7.468-7.468v-5.349c13.02 8.205 28.1 12.618 43.867 12.618 22.043 0 42.766-8.584 58.353-24.17l72.568-72.568c15.587-15.586 24.171-36.31 24.171-58.354.001-22.038-8.582-42.762-24.169-58.349zm-186.777-142.476h5.781c7.242 0 13.134 5.892 13.134 13.135s-5.892 13.135-13.134 13.135h-5.781zm-217.074 31.842c-7.59 0-13.765-6.175-13.765-13.765s6.175-13.764 13.765-13.764h5.918v26.108c0 .475.012.947.018 1.421zm21.123 5.583v-40.004c4.067-4.66 13.135-15.4 19.468-25.507 7.878 7.132 21.818 16.729 42.205 20.03 4.175.678 8.473-.694 11.495-3.664 2.36-2.319 3.759-5.432 3.977-8.68 12.979 7.055 34.94 15.213 66.542 14.911 3.97-.041 7.694-1.822 10.217-4.888 2.116-2.57 3.182-5.795 3.042-9.069l24.068 15.417v34.45c0 49.98-40.662 90.641-90.642 90.641-47.622 0-86.785-36.917-90.372-83.637zm144.531 116.457c0 .001 0 .003-.001.004-1.383 4.876-2.95 10.402-5.798 13.582-1.366 1.527-2.292 1.571-3.124 1.487-1.772-.182-8.54-2.063-21.227-18.668-3.929-5.142-7.509-10.482-10.47-15.158 10.33-1.329 20.198-4.151 29.378-8.251 4.584 2.121 8.982 4.578 13.173 7.325.437 6.914-.219 13.656-1.931 19.679zm-67.819-18.772c-2.974 4.696-6.574 10.073-10.465 15.165-12.695 16.616-19.465 18.498-21.237 18.679-.83.084-1.755.039-3.121-1.488-2.846-3.179-4.414-8.705-5.798-13.585-1.712-6.023-2.368-12.764-1.931-19.678 4.211-2.761 8.63-5.228 13.238-7.357 9.16 4.099 19.006 6.927 29.314 8.264zm116.291 206.074h-41.275v-105.342c0-4.125-3.344-7.468-7.468-7.468s-7.468 3.343-7.468 7.468v105.343h-92.959v-105.343c0-4.125-3.344-7.468-7.468-7.468s-7.468 3.343-7.468 7.468v105.343h-41.278v-121.066c0-29.175 12.244-55.529 31.848-74.238.41 4.178 1.162 8.235 2.255 12.081 1.734 6.113 3.892 13.721 9.036 19.466 3.818 4.269 8.56 6.487 13.81 6.487.645 0 1.298-.034 1.957-.101 4.732-.482 18.431-1.894 43.784-42.318 25.35 40.425 39.047 41.834 43.78 42.318 5.942.607 11.726-1.862 15.772-6.383 5.147-5.747 7.305-13.356 9.039-19.468 1.093-3.847 1.846-7.903 2.255-12.081 18.593 17.743 30.556 42.366 31.742 69.747-15.227 15.519-23.615 35.996-23.615 57.77 0 21.824 8.425 42.347 23.72 57.88v9.905zm106.595-19.995c-12.766 12.766-29.738 19.796-47.791 19.796s-35.026-7.03-47.792-19.796c-12.765-12.765-19.796-29.738-19.796-47.79 0-6.018.804-12 2.375-17.797.032-.117.064-.234.097-.351 59.881 26.712 108.184 35.108 142.229 36.615z"/></g></g></g></svg>