<svg id="Capa_1" enable-background="new 0 0 512.109 512.109" height="512" viewBox="0 0 512.109 512.109" width="512" xmlns="http://www.w3.org/2000/svg"><g><g><path d="m141.939 190.402v108.043c0 33.297 26.993 60.29 60.29 60.29h107.651c33.297 0 60.29-26.993 60.29-60.29v-108.043z" fill="#537983"/></g><g><path d="m370.174 190.398v108.044c0 33.297-27.001 60.297-60.298 60.297h-20.326c33.297 0 60.288-27.001 60.288-60.297v-108.044z" fill="#3e5959"/></g><g><g><path d="m368.32 504.614h-224.534v-97.065c0-62.003 50.264-112.267 112.267-112.267 62.003 0 112.267 50.264 112.267 112.267z" fill="#fe76a8"/></g><g><path d="m368.322 407.545v97.072h-20.699v-97.072c0-58.519-44.765-106.566-101.914-111.781 3.409-.319 6.861-.478 10.344-.478 31.001 0 59.071 12.564 79.388 32.881 20.317 20.318 32.881 48.377 32.881 79.378z" fill="#fe5694"/></g></g><g><path d="m256.054 309.054c-55.648 0-100.759-45.111-100.759-100.759v-78.431l100.759-41.389 100.759 41.389v78.431c.001 55.647-45.111 100.759-100.759 100.759z" fill="#fed2a4"/></g><g><path d="m356.814 129.86v78.435c0 55.651-45.108 100.759-100.759 100.759-3.448 0-6.855-.17-10.213-.51 50.844-5.126 90.536-48.046 90.536-100.25v-86.829z" fill="#ffbd86"/></g><g><path d="m356.814 201.095h14.273c12.258 0 22.195-9.937 22.195-22.195 0-12.258-9.937-22.195-22.195-22.195h-14.273z" fill="#fed2a4"/></g><g><path d="m155.295 201.095h-14.273c-12.258 0-22.195-9.937-22.195-22.195 0-12.258 9.937-22.195 22.195-22.195h14.273z" fill="#fed2a4"/></g><g><path d="m256.054 7.495c-62.172 0-112.572 48.699-112.572 108.772v40.437c98.648-15.912 112.572-56.224 112.572-56.224s13.924 40.312 112.572 56.224v-40.437c0-60.073-50.4-108.772-112.572-108.772z" fill="#537983"/></g><g><path d="m368.625 116.27v40.432c-7.115-1.149-13.8-2.418-20.056-3.807v-36.625c0-56.81-45.058-103.447-102.538-108.344 3.298-.29 6.645-.43 10.023-.43 62.177 0 112.571 48.696 112.571 108.774z" fill="#3e5959"/></g><g><path d="m188.776 430.1h134.556v49.056h-134.556z" fill="#f5f8f9"/></g><g><path d="m303.346 430.1h19.986v49.056h-19.986z" fill="#e8edf2"/></g><g><path d="m206.911 181.063c-4.139 0-7.495 3.355-7.495 7.495v18.819c0 4.139 3.356 7.495 7.495 7.495s7.495-3.356 7.495-7.495v-18.819c-.001-4.139-3.356-7.495-7.495-7.495z"/><path d="m305.198 214.872c4.139 0 7.495-3.356 7.495-7.495v-18.819c0-4.139-3.356-7.495-7.495-7.495s-7.495 3.355-7.495 7.495v18.819c0 4.14 3.356 7.495 7.495 7.495z"/><path d="m256.404 244.142c-4.817 0-9.375-1.843-12.835-5.19-2.976-2.877-7.72-2.798-10.598.177-2.877 2.975-2.798 7.72.177 10.598 6.271 6.065 14.53 9.405 23.256 9.405 8.27 0 16.209-3.042 22.355-8.565 3.078-2.767 3.332-7.505.565-10.584-2.768-3.078-7.506-3.331-10.584-.565-3.39 3.046-7.771 4.724-12.336 4.724z"/><path d="m376.121 149.645v-33.378c0-64.11-53.862-116.267-120.067-116.267s-120.066 52.157-120.066 116.267v33.378c-13.981 2.399-24.656 14.6-24.656 29.254 0 14.111 9.898 25.945 23.113 28.947v90.599c0 18.312 7.311 34.937 19.154 47.144-10.98 18.088-17.307 39.299-17.307 61.96v19.736c0 4.139 3.356 7.495 7.495 7.495s7.495-3.356 7.495-7.495v-19.736c0-44.506 27.903-82.602 67.127-97.758 11.731 4.365 24.414 6.757 37.647 6.757 13.236 0 25.923-2.393 37.657-6.761 39.22 15.158 67.115 53.259 67.115 97.761v89.57h-29.998v-92.551c0-4.139-3.356-7.495-7.495-7.495s-7.495 3.355-7.495 7.495v18.037h-119.569v-18.037c0-4.139-3.356-7.495-7.495-7.495s-7.495 3.355-7.495 7.495v92.551h-30.001v-34.708c0-4.139-3.356-7.495-7.495-7.495s-7.495 3.355-7.495 7.495v42.204c0 4.139 3.356 7.495 7.495 7.495h224.535c4.139 0 7.495-3.356 7.495-7.495v-97.065c0-22.664-6.329-43.877-17.311-61.966 11.843-12.208 19.16-28.826 19.16-47.138v-5.673c0-4.139-3.356-7.495-7.495-7.495s-7.495 3.355-7.495 7.495v5.673c0 13.217-4.891 25.305-12.948 34.574-10.41-13.057-23.493-23.887-38.406-31.677 26.573-15.845 45.822-42.742 51.354-74.304v32.392c0 4.139 3.356 7.495 7.495 7.495s7.495-3.356 7.495-7.495v-51.583c13.215-3.002 23.113-14.836 23.113-28.947 0-14.655-10.675-26.856-24.656-29.255zm-60.284 347.474h-119.566v-10.469h119.566zm0-25.458h-119.566v-34.066h119.566zm-168.037-278.061h-6.778c-8.106 0-14.701-6.594-14.701-14.701 0-8.106 6.594-14.701 14.701-14.701h6.778zm14.58 139.418c-8.056-9.269-12.946-21.357-12.946-34.573v-71.407c5.532 31.56 24.778 58.456 51.349 74.301-14.912 7.79-27.993 18.622-38.403 31.679zm186.939-124.724c0 51.426-41.838 93.264-93.265 93.264s-93.265-41.838-93.265-93.264v-47.559c33.44-7.085 59.802-17.869 78.518-32.152 6.705-5.116 11.44-9.969 14.746-14.055 3.306 4.086 8.041 8.939 14.746 14.055 18.716 14.283 45.078 25.067 78.518 32.152v47.559zm11.812-60.495c-82.452-15.319-97.37-48.301-98.013-49.828-.975-3.061-3.761-5.048-6.98-5.101-3.245-.048-6.11 2.1-7.168 5.163-.121.349-14.072 34.179-97.993 49.766v-31.532c0-55.845 47.137-101.278 105.077-101.278s105.077 45.433 105.077 101.278zm9.956 45.801h-6.778v-29.401h6.778c8.106 0 14.701 6.595 14.701 14.701-.001 8.106-6.595 14.7-14.701 14.7z"/></g></g></svg>