<svg id="Capa_1" enable-background="new 0 0 512 512" height="512" viewBox="0 0 512 512" width="512" xmlns="http://www.w3.org/2000/svg"><g><g><path d="m350.063 504.525h-223.935v-118.37c0-61.838 50.13-111.968 111.968-111.968 61.838 0 111.968 50.13 111.968 111.968v118.37z" fill="#dc8758"/></g><g><path d="m350.065 386.151v118.378h-20.644v-118.378c0-58.363-44.646-106.281-101.642-111.482 3.4-.318 6.842-.477 10.317-.477 30.918 0 58.913 12.53 79.176 32.793s32.793 48.247 32.793 79.166z" fill="#c86d36"/></g><g><path d="m335.647 331.171c-27.786 16.524-60.236 26.012-94.909 26.012-36.307 0-70.183-10.405-98.806-28.404 19.544-32.699 55.293-54.595 96.165-54.595 30.915 0 58.911 12.527 79.172 32.799 7.166 7.165 13.365 15.298 18.378 24.188z" fill="#f5f8f9"/></g><g><path d="m335.647 331.171c-5.262 3.129-10.684 6-16.265 8.601-16.265-35.719-50.758-61.372-91.6-65.1 3.399-.319 6.837-.478 10.315-.478 30.915 0 58.911 12.528 79.172 32.789 7.156 7.156 13.355 15.288 18.368 24.168 0 .01.01.01.01.02z" fill="#e8edf2"/></g><g><path d="m183.793 422.541 27.149 16.772 27.151-16.772 27.154 16.772 27.154-16.772v44.487l-27.154 16.771-27.154-16.771-27.151 16.771-27.149-16.771z" fill="#f5f8f9"/></g><g><path d="m292.403 422.541v44.49l-20.53 12.677v-44.489z" fill="#e8edf2"/></g><g><path d="m335.309 198.178h13.507c11.6 0 21.004-9.404 21.004-21.004 0-11.6-9.404-21.004-21.004-21.004h-13.507z" fill="#fed2a4"/></g><g><path d="m140.452 197.056h-13.147c-11.291 0-20.443-9.153-20.443-20.443 0-11.291 9.153-20.443 20.443-20.443h13.147z" fill="#fed2a4"/></g><g><path d="m237.954 297.966c-53.765 0-97.351-43.585-97.351-97.35v-75.778l123.261-65.899 71.44 76.878v64.799c0 53.765-43.585 97.35-97.35 97.35z" fill="#fed2a4"/></g><g><path d="m335.309 135.813v64.798c0 53.774-43.588 97.352-97.352 97.352-3.499 0-6.946-.186-10.351-.549 48.899-5.165 87.001-46.528 87.001-96.803v-87.073z" fill="#ffbd86"/></g><g><path d="m329.985 156.17c-22.456-5.706-26.521-27.567-26.521-27.567-2.673-8.322-3.972-15.225-5.082-23.895l49.391-30.855s23.109 37.369 3.587 82.317z" fill="#537983"/></g><g><path d="m351.364 156.172h-18.936c12.368-31.832 3.847-59.379-1.545-71.767l16.893-10.554s23.102 37.373 3.588 82.321z" fill="#3e5959"/></g><g><path d="m126.598 156.17c-8.602-21.053-15.64-42.902-14.749-65.892.795-20.516 10.854-46.644 26.595-60.547 10.866-9.597 23.901-16.382 38.169-19.14 10.092-1.951 20.998-3.024 31.494-3.11 13.933-.113 27.725 2 41.547 3.444 17.564 1.836 34.296 5.65 51.751 8.049 15.402 2.118 31.145 2.946 46.606.943 13.295-1.723 25.783-9.098 39.427-8.658 16.635.537 19.471 19.232 16.857 32.043-5.033 24.659-16.718 45.122-38.157 59.296-9.189 6.074-19.219 10.802-29.48 14.758-43.088 16.614-90.38 19.817-136.006 16.852-8.6-.559-17.187-1.309-25.762-2.172 0 0-4.065 18.427-26.521 24.134z" fill="#537983"/></g><g><path d="m404.295 43.304c-5.033 24.657-16.723 45.117-38.161 59.289-9.189 6.08-19.215 10.804-29.48 14.76-43.084 16.614-90.374 19.823-136 16.853-8.601-.558-17.192-1.306-25.763-2.173 0 0-4.066 18.428-26.52 24.138h-18.627c15.184-3.862 24.393-20.953 28.765-31.616 2.108-5.141 7.312-8.299 12.847-7.805 5.326.475 10.658.894 15.994 1.241 45.626 2.97 92.916-.239 136-16.853 10.265-3.957 20.291-8.681 29.48-14.76 21.448-14.172 33.128-34.633 38.161-59.29.957-4.714 1.186-10.235.249-15.338 13.264 3.06 15.457 19.784 13.055 31.554z" fill="#3e5959"/></g><g><path d="m190.473 207.205c4.129 0 7.475-3.346 7.475-7.475v-18.183c0-4.129-3.346-7.475-7.475-7.475-4.128 0-7.475 3.346-7.475 7.475v18.183c0 4.128 3.346 7.475 7.475 7.475z"/><path d="m285.435 207.205c4.129 0 7.475-3.346 7.475-7.475v-18.183c0-4.129-3.346-7.475-7.475-7.475s-7.475 3.346-7.475 7.475v18.183c0 4.128 3.346 7.475 7.475 7.475z"/><path d="m238.292 249.967c8.047 0 15.774-2.961 21.756-8.335 3.071-2.759 3.324-7.486.564-10.556s-7.485-3.324-10.556-.564c-3.234 2.906-7.411 4.506-11.764 4.506-4.592 0-8.938-1.758-12.238-4.949-2.969-2.871-7.701-2.791-10.57.177s-2.79 7.7.177 10.57c6.103 5.901 14.14 9.151 22.631 9.151z"/><path d="m405.966 12.716c-10.741-13.595-29.599-8.555-43.763-4.082-5.263 1.662-10.236 3.233-15.152 3.871-13.101 1.698-27.7 1.392-44.628-.934-7.204-.991-14.462-2.258-21.48-3.483-13.305-2.323-26.588-4.107-39.973-5.656-10.686-1.237-21.726-2.529-32.923-2.425-10.97.088-22.33 1.211-32.853 3.246-15.127 2.925-29.546 10.143-41.698 20.877-18.898 16.691-28.34 45.84-29.115 65.859-.855 22.039 5.178 42.816 12.091 60.906-10.028 4.238-17.084 14.167-17.084 25.719 0 15.394 12.524 27.918 27.917 27.918h5.904c1.208 32.731 17.489 61.679 42.097 80.08-33.972 21.082-56.653 58.705-56.653 101.543v118.371c0 4.128 3.346 7.475 7.475 7.475h223.935c4.129 0 7.475-3.346 7.475-7.475v-118.372c0-42.903-22.746-80.58-56.804-101.643 24.253-18.195 40.382-46.647 41.914-78.859h6.168c15.704 0 28.479-12.775 28.479-28.479 0-11.274-6.585-21.038-16.111-25.649 5.081-14.7 6.14-28.422 5.244-40.266 2.729-1.666 5.35-3.387 7.929-5.285 3.325-2.448 4.035-7.126 1.588-10.451-2.45-3.326-7.127-4.036-10.451-1.588-1.131.832-2.303 1.651-3.48 2.429-7.828 5.175-17.002 9.761-28.048 14.019-37.334 14.396-80.782 19.75-132.832 16.367-7.847-.51-16.188-1.213-25.499-2.15-3.772-.393-7.231 2.125-8.048 5.827-.03.137-3.171 13.529-20.198 18.269h-15.74c-6.843-17.367-13.135-37.446-12.333-58.129.677-17.479 9.164-42.065 24.074-55.234 10.152-8.967 22.13-14.985 34.64-17.404 9.642-1.864 20.063-2.893 30.135-2.974 23.356-.188 47.224 3.845 70.204 7.858 7.15 1.249 14.543 2.539 22.015 3.566 18.262 2.509 34.154 2.821 48.586.95 6.233-.807 12.08-2.654 17.735-4.44 7.118-2.249 13.835-4.362 20.49-4.159 11.257.347 11.469 14.761 9.772 23.076-2.168 10.628-5.631 20.165-10.29 28.348-2.043 3.587-.79 8.151 2.797 10.194 3.586 2.043 8.151.791 10.194-2.797 5.442-9.558 9.461-20.578 11.947-32.756 1.957-9.573 1.5-23.029-5.649-32.078zm-121.041 484.334h-93.659v-16.62l15.749 9.728c1.204.744 2.565 1.115 3.928 1.115 1.362 0 2.724-.372 3.928-1.115l23.222-14.344 23.226 14.344c2.408 1.487 5.448 1.487 7.856 0l15.75-9.727zm0-34.189-19.677 12.152-23.226-14.344c-1.204-.744-2.566-1.115-3.928-1.115s-2.724.372-3.928 1.115l-23.222 14.344-19.675-12.153v-26.915l15.747 9.727c2.407 1.487 5.447 1.487 7.856 0l23.222-14.344 23.226 14.344c2.408 1.487 5.448 1.487 7.856 0l15.75-9.727v26.916zm40.271-134.365c-25.845 13.897-54.885 21.212-84.457 21.212-11.24 0-22.487-1.051-33.43-3.125-4.049-.763-7.967 1.896-8.736 5.953-.768 4.056 1.897 7.967 5.953 8.736 11.858 2.246 24.042 3.386 36.213 3.386 32.154 0 63.721-7.998 91.812-23.163 6.432 13.55 10.038 28.69 10.038 44.659v110.896h-42.714v-29.992c0-.01.002-.02.002-.03v-44.486c0-.01-.002-.019-.002-.029v-8.924c0-4.129-3.346-7.475-7.475-7.475s-7.475 3.346-7.475 7.475v4.785l-19.677 12.152-23.226-14.344c-2.408-1.487-5.448-1.487-7.856 0l-23.222 14.344-19.677-12.154v-4.783c0-4.129-3.346-7.475-7.475-7.475s-7.475 3.346-7.475 7.475v83.462h-42.714v-110.897c0-16.882 4.029-32.838 11.168-46.966 8.161 4.672 16.667 8.764 25.388 12.184 3.843 1.506 8.179-.386 9.688-4.23 1.507-3.843-.386-8.18-4.23-9.688-7.952-3.12-15.719-6.837-23.169-11.088 9.571-13.669 22.336-24.937 37.191-32.746 14.467 7.546 30.901 11.82 48.315 11.82 17.474 0 33.959-4.303 48.461-11.897 15.679 8.216 29.036 20.281 38.781 34.953zm37.15-151.323c0 7.46-6.069 13.529-13.53 13.529h-6.032v-27.058h6.032c7.46.001 13.53 6.07 13.53 13.529zm-23.001-52.842c4.394-1.694 8.522-3.446 12.427-5.265-.035 9-1.501 19.029-5.453 29.63h-15.348c-10.535-2.999-15.751-10.545-18.199-15.842 9.158-2.404 18.02-5.226 26.573-8.523zm-191.267 39.314s1.505-.132 2.116-.246c14.992-2.78 26.148-16.063 29.645-23.37 7.247.684 13.942 1.223 20.327 1.638 36.266 2.357 68.616.58 97.861-5.379 3.193 8.252 11.204 22.176 29.803 27.038v37.289c0 49.558-40.318 89.876-89.876 89.876s-89.876-40.318-89.876-89.876zm-20.773 0h5.672v25.937h-5.672c-7.151 0-12.968-5.818-12.968-12.969s5.817-12.968 12.968-12.968z"/></g></g></svg>