<svg id="Capa_1" enable-background="new 0 0 512 512" height="512" viewBox="0 0 512 512" width="512" xmlns="http://www.w3.org/2000/svg"><g><g><path d="m364.895 324.257-62.52-14.462c-5.442-1.259-9.296-6.106-9.296-11.691v-58.468c0-6.627-5.373-12-12-12h-50.16c-6.627 0-12 5.373-12 12v58.468c0 5.586-3.854 10.432-9.296 11.691l-62.52 14.462c-26.208 6.062-45.974 27.642-49.718 54.28l-15.302 108.875c-1.269 9.026 5.739 17.088 14.854 17.088h318.127c9.115 0 16.123-8.062 14.854-17.088l-15.304-108.875c-3.745-26.638-23.511-48.217-49.719-54.28z" fill="#7a6d79"/><path d="m243.923 227.64v83.46c0 5.59-3.85 10.44-9.3 11.7l-62.52 14.46c-26.2 6.06-45.97 27.64-49.71 54.28l-13.57 96.53c-1.05 7.47 3.58 14.33 10.44 16.43h-22.32c-9.12 0-16.13-8.06-14.86-17.09l15.31-108.87c3.74-26.64 23.51-48.22 49.71-54.28l62.52-14.46c5.45-1.26 9.3-6.11 9.3-11.7v-58.46c0-6.63 5.37-12 12-12z" fill="#685e68"/><path d="m322.18 314.38-57.158 35.12h-17.609l-51.803-36.46 14.01-3.24c5.45-1.26 9.3-6.11 9.3-11.7v-58.46c0-6.63 5.37-12 12-12h50.16c6.63 0 12 5.37 12 12v58.46c0 5.59 3.85 10.44 9.3 11.7z" fill="#fed2a4"/><path d="m281.08 227.64h-50.16c-6.627 0-12 5.373-12 12v58.464c0 5.588-3.856 10.437-9.3 11.696l-14.01 3.24 20.09 14.14 18.92-4.38c5.45-1.26 9.3-6.11 9.3-11.7v-11.346c0-2.355 2.021-4.175 4.368-3.979 2.499.209 5.028.315 7.582.315 13.27 0 25.86-2.86 37.21-8v-48.45c0-6.627-5.373-12-12-12z" fill="#f6a96c"/><path d="m320.185 37.468h-76.112c-6.682 0-12.098 5.416-12.098 12.098v112.157l146.949-5.479v-60.038c-.001-32.44-26.299-58.738-58.739-58.738z" fill="#bc7c63"/><path d="m344.26 42.62v114.91l-27.78 1.04v-121.1h3.71c8.58 0 16.73 1.84 24.07 5.15z" fill="#aa6a51"/><path d="m296.407 7.5h-83.331c-44.183 0-80 35.817-80 80v68.744l186.825-3.766v-121.483c.001-12.976-10.518-23.495-23.494-23.495z" fill="#bc7c63"/><path d="m238.08 7.5c-44.19 0-79 35.82-79 80v68.24l-26 .5v-68.74c0-44.18 35.81-80 80-80z" fill="#aa6a51"/><path d="m350.789 184.379h-189.578c-15.538 0-28.135-12.596-28.135-28.135 0-15.538 12.596-28.135 28.135-28.135h189.577c15.538 0 28.135 12.596 28.135 28.135 0 15.539-12.596 28.135-28.134 28.135z" fill="#f6a96c"/><path d="m255.866 276.092c49.883 0 90.322-40.438 90.322-90.321v-54.512c0-29.707-24.083-53.79-53.79-53.79h-73.063c-29.708 0-53.79 24.083-53.79 53.79v54.512c0 49.882 40.438 90.321 90.321 90.321z" fill="#fed2a4"/><path d="m268.37 275.22c-4.09.58-8.26.87-12.5.87-49.89 0-90.33-40.44-90.33-90.32v-54.51c0-29.71 24.09-53.79 53.79-53.79h25c-29.7 0-53.79 24.08-53.79 53.79v54.51c0 45.64 33.86 83.38 77.83 89.45z" fill="#ffbd86"/><path d="m305.449 504.021h-98.898v-156.021l98.898-.13z" fill="#f2fbff"/><path d="m176.024 317.849 22.477-22.477c1.562-1.562 4.095-1.562 5.657 0l50.671 50.671c1.562 1.562 1.562 4.095 0 5.657l-21.063 21.063c-1.562 1.562-4.095 1.562-5.657 0l-52.085-52.085c-.781-.782-.781-2.048 0-2.829z" fill="#dff6fd"/><path d="m201.024 320.677c-.781-.781-.781-2.047 0-2.828l12.805-12.806-9.672-9.672c-1.562-1.562-4.095-1.562-5.657 0l-22.477 22.477c-.781.781-.781 2.047 0 2.828l52.085 52.085c1.562 1.562 4.095 1.562 5.657 0l9.672-9.672z" fill="#c8effe"/><path d="m335.976 317.848-22.477-22.477c-1.562-1.562-4.095-1.562-5.657 0l-50.671 50.671c-1.562 1.562-1.562 4.095 0 5.657l21.063 21.063c1.562 1.562 4.095 1.562 5.657 0l52.085-52.085c.781-.781.781-2.047 0-2.829z" fill="#dff6fd"/><path d="m282.172 351.699c-1.562-1.562-1.562-4.095 0-5.657l40.999-40.999-9.672-9.672c-1.562-1.562-4.095-1.562-5.657 0l-50.671 50.671c-1.562 1.562-1.562 4.095 0 5.657l21.063 21.063c1.562 1.562 4.095 1.562 5.657 0l9.672-9.672z" fill="#c8effe"/></g><g><path d="m437.347 486.366-6.21-44.18c-.576-4.102-4.366-6.964-8.471-6.383-4.102.576-6.959 4.369-6.383 8.471l6.21 44.181c.307 2.183-.32 4.301-1.765 5.964-1.447 1.665-3.46 2.582-5.668 2.582h-57.816v-78.87c0-4.142-3.358-7.5-7.5-7.5s-7.5 3.358-7.5 7.5v78.869h-29.295v-142.689l27.916-27.916 22.345 5.172c23.017 5.324 40.688 24.62 43.973 48.017l4.21 29.95c.526 3.748 3.738 6.457 7.417 6.457.347 0 .699-.024 1.053-.074 4.102-.576 6.959-4.369 6.383-8.471l-4.209-29.949c-4.142-29.501-26.424-53.832-55.446-60.544l-27.199-6.295-20.589-20.589c-4.483-4.484-11.779-4.484-16.263 0l-1.96 1.96v-19.269c29.835-15.398 50.774-45.699 52.919-80.994 18.386-1.391 32.924-16.785 32.924-35.521v-60.035c0-34.094-25.891-62.246-59.039-65.843-.334-16.8-14.095-30.367-30.974-30.367h-83.33c-20.02 0-39.588 6.936-55.103 19.529-15.286 12.408-26.046 29.768-30.298 48.882-.9 4.043 1.649 8.05 5.692 8.95 4.045.902 8.05-1.649 8.95-5.692 7.305-32.836 37.063-56.669 70.759-56.669h83.33c8.817 0 15.99 7.173 15.99 15.99v42.347c-6.273-2.173-12.999-3.369-20.002-3.369h-73.063c-30.189 0-55.333 21.946-60.359 50.718-6.829.425-13.139 2.783-18.396 6.53v-.007-22.17c0-4.14-3.36-7.5-7.5-7.5-4.15 0-7.5 3.36-7.5 7.5 0 0-.003 51.16-.003 51.204 0 18.645 14.397 33.981 32.656 35.501 2.144 35.409 23.204 65.796 53.187 81.154v19.129l-1.959-1.959c-4.483-4.484-11.78-4.485-16.263 0l-20.596 20.596-27.191 6.288c-29.023 6.713-51.306 31.044-55.447 60.543l-15.31 108.87c-.908 6.454 1.023 12.976 5.298 17.893 4.275 4.921 10.467 7.742 16.988 7.742h318.12c6.521 0 12.713-2.821 16.989-7.741 4.275-4.918 6.205-11.44 5.298-17.893zm-223.296-117.055 8.755 8.755c2.172 2.172 5.06 3.368 8.132 3.368 3.071 0 5.959-1.196 8.131-3.368l8.431-8.431v126.887h-33.449zm83.898 127.21h-35.449v-128.887l10.431 10.431c2.172 2.172 5.06 3.368 8.131 3.368 3.072 0 5.96-1.196 8.132-3.368l8.755-8.755zm12.722-193.371 16.113 16.113-45.722 45.721-16.113-16.113zm43.017-126.499v-40.813c10.006 1.417 17.735 10.015 17.735 20.407s-7.729 18.989-17.735 20.406zm-26.288-131.164c24.847 3.515 44.023 24.916 44.023 50.723v31.01c-5.328-3.799-11.736-6.175-18.67-6.553-2.865-16.368-12.237-30.517-25.353-39.677zm-186.823 110.757c0-10.299 7.592-18.834 17.468-20.366v40.732c-9.876-1.532-17.468-10.067-17.468-20.366zm32.468 29.526v-54.512c0-25.524 20.766-46.29 46.29-46.29h73.063c25.524 0 46.29 20.766 46.29 46.29v54.512c0 45.668-37.154 82.822-82.822 82.822s-82.821-37.154-82.821-82.822zm53.375 93.29c9.297 2.941 19.189 4.532 29.446 4.532 10.356 0 20.338-1.623 29.713-4.619v28.055l-29.579 29.579-29.58-29.58zm-25.091 24.09 45.721 45.721-16.113 16.113-45.722-45.721zm-110.057 191.268c-1.445-1.663-2.072-3.781-1.765-5.964l15.311-108.872c3.284-23.396 20.956-42.692 43.973-48.016l22.349-5.168 27.912 27.912v142.69h-29.295v-78.87c0-4.142-3.358-7.5-7.5-7.5s-7.5 3.358-7.5 7.5v78.87h-57.817c-2.208 0-4.221-.917-5.668-2.582z"/><path d="m295.098 170.521c4.142 0 7.5-3.358 7.5-7.5v-13.554c0-4.142-3.358-7.5-7.5-7.5s-7.5 3.358-7.5 7.5v13.554c0 4.142 3.358 7.5 7.5 7.5z"/><path d="m216.902 141.967c-4.142 0-7.5 3.358-7.5 7.5v13.554c0 4.142 3.358 7.5 7.5 7.5s7.5-3.358 7.5-7.5v-13.554c0-4.142-3.358-7.5-7.5-7.5z"/><path d="m243.1 189.903c3.559 2.585 7.729 3.878 11.9 3.878 4.17 0 8.341-1.293 11.9-3.878 3.351-2.435 4.094-7.125 1.66-10.476-2.435-3.351-7.125-4.093-10.476-1.66-1.845 1.34-4.322 1.34-6.167 0-3.351-2.435-8.042-1.692-10.476 1.66-2.435 3.351-1.692 8.041 1.659 10.476z"/><path d="m256 239.501c-8.836 0-17.671-3.233-24.557-9.698-3.02-2.835-3.168-7.582-.333-10.602 2.836-3.019 7.583-3.168 10.602-.333 8.012 7.523 20.564 7.523 28.576 0 3.02-2.836 7.766-2.686 10.602.333 2.835 3.02 2.687 7.766-.333 10.602-6.886 6.466-15.722 9.698-24.557 9.698z"/></g></g></svg>