<svg id="Capa_1" enable-background="new 0 0 511.72 511.72" height="512" viewBox="0 0 511.72 511.72" width="512" xmlns="http://www.w3.org/2000/svg"><g><g><path d="m132.936 156.104h245.847v248.203h-245.847z" fill="#feb137"/><path d="m132.94 156.1h25v248.21h-25z" fill="#f6ab31"/><path d="m289.204 50.975h-66.688c-4.29 0-7.769-3.478-7.769-7.769 0-19.64 15.921-35.561 35.561-35.561h11.103c19.64 0 35.561 15.921 35.561 35.561.001 4.29-3.477 7.769-7.768 7.769z" fill="#feb137"/><path d="m378.783 156.182h-245.847v-6.755c0-63.415 51.408-114.823 114.823-114.823h16.201c63.415 0 114.823 51.408 114.823 114.823z" fill="#ffc344"/><path d="m268.36 34.69c-61.38 2.31-110.42 52.79-110.42 114.74v6.75h-25v-6.75c0-63.42 51.4-114.83 114.82-114.83h16.2c1.47 0 2.94.03 4.4.09z" fill="#feb137"/><path d="m364.755 324.117-62.52-14.462c-5.442-1.259-9.296-6.106-9.296-11.691v-58.468c0-6.627-5.373-12-12-12h-50.16c-6.627 0-12 5.373-12 12v58.468c0 5.586-3.854 10.432-9.296 11.691l-62.52 14.462c-26.208 6.062-45.974 27.642-49.718 54.28l-15.302 108.875c-1.269 9.026 5.739 17.088 14.854 17.088h318.127c9.115 0 16.123-8.062 14.854-17.088l-15.304-108.875c-3.745-26.638-23.511-48.218-49.719-54.28z" fill="#cb97e7"/><path d="m122.232 391.55-13.549 96.38c-1.05 7.47 3.58 14.33 10.44 16.43h-22.32c-9.12 0-16.13-8.06-14.86-17.09l15.008-106.72 15.453.875z" fill="#bd80e1"/><path d="m392.85 338.49-106.969 88.455c-4.2 2.07-51.98 4.142-56.17 2.043l-111.051-90.318c7.91-6.98 17.57-12.07 28.3-14.55l62.52-14.46c5.45-1.26 9.3-6.11 9.3-11.7v-58.46c0-6.63 5.37-12 12-12h50.16c6.63 0 12 5.37 12 12v58.46c0 5.59 3.85 10.44 9.3 11.7l62.52 14.46c10.64 2.46 20.22 7.48 28.09 14.37z" fill="#ffdfcf"/><path d="m280.835 227.5h-50.055-.105c-6.63 0-12 5.37-12 12l.105 58.46c0 5.59-3.85 10.44-9.3 11.7l-62.52 14.46c-10.73 2.48-20.39 7.57-28.3 14.55l3.572 14.842 21.778-2.162h.01c7.84-6.81 17.37-11.78 27.94-14.23l62.52-14.46c5.45-1.26 9.3-6.11 9.3-11.7v-11.349c0-2.355 2.022-4.175 4.369-3.979 2.508.21 5.045.318 7.606.318 13.21 0 25.77-2.84 37.08-7.94v-48.51c0-6.628-5.373-12-12-12z" fill="#ffcebf"/><path d="m350.649 184.239h-189.578c-15.538 0-28.135-12.596-28.135-28.135 0-15.538 12.596-28.135 28.135-28.135h189.577c15.538 0 28.135 12.596 28.135 28.135 0 15.538-12.596 28.135-28.134 28.135z" fill="#ffcebf"/><path d="m255.86 275.952c49.883 0 90.322-40.438 90.322-90.321v-98.941h-133.8l-23.087 32.757-23.756 12.913v53.27c-.001 49.883 40.438 90.322 90.321 90.322z" fill="#ffeee6"/><path d="m268.36 275.08c-4.09.58-8.26.87-12.5.87-49.88 0-90.32-40.44-90.32-90.32v-68.335l25-30.605v98.94c0 45.64 33.86 83.37 77.82 89.45z" fill="#ffdfcf"/><path d="m351.87 81.29v171.6c0 13.62-11.04 24.67-24.67 24.67-1.47 0-2.8-.6-3.77-1.56-.96-.97-1.56-2.3-1.56-3.78v-122.61c0-7.81-4.85-14.8-12.17-17.53l-83.57-31.15c-3.9-1.45-8.3.03-10.53 3.55l-22.84 36.03c-1.9 3-2.91 6.47-2.91 10.02v121.69c0 2.89-2.3 5.32-5.19 5.34-6.87.04-13.09-2.73-17.59-7.23-4.46-4.46-7.22-10.63-7.22-17.44v-124.39c3.2-17.44 10.35-33.49 20.49-47.21z" fill="#ffc344"/><path d="m414.74 380.29-154.73 66.1c-3.79 1.62-8.09 1.6-11.88-.04l-151.18-65.8.3-2.15c2.21-15.73 10-29.69 21.41-39.73l128.99 64.51c4.19 2.1 9.12 2.12 13.32.05l131.88-64.74h.01c11.52 10.06 19.39 24.09 21.61 39.91z" fill="#f2fbff"/><path d="m144.02 351.35c-11.6 10.07-19.54 24.16-21.77 40.05l-.02.15h-.01l-25.27-11 .3-2.15c2.21-15.73 10-29.69 21.41-39.73z" fill="#dff6fd"/><path d="m273.538 350.821-14.142 14.142c-1.953 1.953-5.118 1.953-7.071 0l-14.142-14.142c-1.953-1.953-1.953-5.118 0-7.071l14.142-14.142c1.953-1.953 5.118-1.953 7.071 0l14.142 14.142c1.952 1.952 1.952 5.118 0 7.071z" fill="#ffc344"/></g><g><path d="m437.207 486.085-15.31-108.869c-3.133-22.317-16.652-41.668-35.613-52.679v-175.25c0-53.66-34.732-99.358-82.895-115.801-4.374-19.4-21.613-33.486-41.979-33.486h-11.1c-11.502 0-22.317 4.48-30.458 12.621-5.733 5.743-9.72 13.019-11.515 20.863-48.166 16.441-82.901 62.141-82.901 115.803v175.251c-18.961 11.011-32.48 30.362-35.613 52.677l-15.31 108.87c-.908 6.453 1.022 12.975 5.297 17.893 4.276 4.92 10.469 7.742 16.99 7.742h318.119c6.521 0 12.714-2.822 16.99-7.742 4.275-4.918 6.206-11.44 5.298-17.893zm-133.278-183.872c-2.055-.475-3.489-2.282-3.489-4.393v-25.3c4.864-2.489 9.529-5.379 13.93-8.657v8.217c0 3.409 1.324 6.625 3.784 9.11 2.43 2.405 5.643 3.73 9.046 3.73 17.738 0 32.17-14.431 32.17-32.17v-62.239c4.279-1.076 8.308-2.954 11.914-5.519v132.988c-1.59-.487-67.355-15.767-67.355-15.767zm-39.23 21.952c-2.36-2.361-5.5-3.662-8.839-3.662s-6.479 1.3-8.838 3.661l-13.878 13.877c-12.891-3.366-24.811-9.562-35.02-18.198l13.045-3.017c8.896-2.057 15.11-9.873 15.11-19.007v-19.117c9.495 3.021 19.471 4.609 29.58 4.609s20.085-1.587 29.58-4.609v19.117c0 9.134 6.214 16.95 15.109 19.007l13.046 3.017c-10.209 8.635-22.129 14.832-35.02 18.198zm1.767 22.981-10.606 10.606-10.606-10.606 10.606-10.606zm98.77-176.589c-1.719 1.72-3.71 3.089-5.866 4.096v-37.408c7.066 3.277 11.91 10.425 11.91 18.716 0 5.507-2.149 10.692-6.044 14.596zm-134.774-147.333c5.304-5.304 12.353-8.224 19.848-8.224h11.1c10.296 0 19.367 5.52 24.249 13.892-7.044-1.266-14.295-1.928-21.698-1.928h-16.201c-7.389 0-14.627.659-21.659 1.92 1.201-2.053 2.664-3.96 4.361-5.66zm17.297 18.74h16.201c50.871 0 93.587 35.576 104.579 83.154-4.831-2.796-10.388-4.501-16.354-4.752-4.115-.183-7.635 3.039-7.809 7.178-.003.064.003.126.002.19-.001.045-.008.079-.008.125v124.89c0 8.732-6.554 15.963-15 17.034v-22.859c0-.017.001-.035 0-.052v-40.542c0-4.142-3.357-7.5-7.5-7.5s-7.5 3.358-7.5 7.5v37.746c-15.627 15.639-36.282 24.236-58.51 24.236s-42.883-8.597-58.51-24.236v-93.686c0-2.126.604-4.204 1.745-6.004l22.841-36.032c.333-.526.995-.751 1.574-.535l83.568 31.149c4.361 1.626 7.291 5.847 7.291 10.502v21.86c0 4.142 3.357 7.5 7.5 7.5s7.5-3.358 7.5-7.5v-21.86c0-10.885-6.852-20.754-17.051-24.558l-83.574-31.152c-7.186-2.671-15.378.09-19.479 6.564l-22.841 36.032c-2.665 4.208-4.074 9.061-4.074 14.034v96.483c-.001.017 0 .035 0 .052v22.862c-3.765-.471-7.245-2.167-9.977-4.899-3.239-3.239-5.023-7.549-5.023-12.137v-124.921c0-.054-.007-.094-.008-.146-.001-.048.003-.095.001-.144-.003-.077-.016-.15-.021-.226-.007-.082-.012-.168-.023-.243-.414-3.908-3.831-6.872-7.768-6.704-5.822.248-11.414 1.913-16.359 4.79 10.978-47.598 53.703-83.193 104.587-83.193zm-101.275 99.409c1.719-1.72 3.71-3.089 5.866-4.096v37.407c-7.066-3.278-11.91-10.43-11.91-18.724 0-5.509 2.146-10.689 6.044-14.587zm-6.048 43.685c3.538 2.508 7.562 4.384 11.914 5.468v62.224c0 8.594 3.344 16.671 9.416 22.743 6.084 6.084 14.154 9.428 22.752 9.427h.193c6.969-.048 12.639-5.808 12.639-12.84v-8.217c4.401 3.277 9.065 6.168 13.93 8.657v25.3c0 2.111-1.435 3.918-3.49 4.393 0 0-65.764 15.28-67.354 15.767zm-20.335 162.578 54.543 27.281c1.077.539 2.222.794 3.35.794 2.751 0 5.399-1.519 6.714-4.146 1.853-3.705.352-8.21-3.353-10.062l-48.202-24.109c4.777-2.745 9.981-4.83 15.497-6.106l31.913-7.381c13.439 12.916 31.942 24.173 50.03 28.927.579 1.136 1.338 2.203 2.286 3.152l14.142 14.142c2.36 2.361 5.5 3.662 8.839 3.662s6.479-1.3 8.838-3.661l14.143-14.142h.001c.936-.936 1.688-1.987 2.265-3.106 18.267-4.526 37.352-15.373 50.871-28.782l31.093 7.191c5.376 1.243 10.454 3.257 15.132 5.899l-120.547 59.176c-2.083 1.025-4.565 1.014-6.65-.03l-38.19-19.1c-3.707-1.853-8.209-.351-10.062 3.353-1.853 3.705-.352 8.21 3.354 10.063l38.186 19.098c3.152 1.58 6.615 2.37 10.077 2.37 3.403 0 6.806-.764 9.907-2.293l127.132-62.409c7.423 7.692 12.722 17.412 14.974 28.152l-149.318 63.788c-1.885.806-4.056.795-5.94-.021l-145.846-63.48c2.196-10.751 7.443-20.493 14.821-28.22zm34.515 149.084h-57.816c-2.208 0-4.222-.917-5.669-2.582-1.445-1.663-2.071-3.78-1.765-5.963l13.634-96.952 51.616 22.465zm187.488 0h-172.488v-76.503l75.535 32.876c2.853 1.234 5.915 1.852 8.975 1.852 3.015 0 6.025-.599 8.831-1.798l79.147-33.812zm78.484-2.582c-1.447 1.665-3.461 2.582-5.669 2.582h-57.815v-83.792l51.57-22.03 13.679 97.278c.307 2.181-.319 4.299-1.765 5.962z"/><path d="m294.958 141.687c-4.143 0-7.5 3.358-7.5 7.5v13.554c0 4.142 3.357 7.5 7.5 7.5s7.5-3.358 7.5-7.5v-13.554c0-4.142-3.358-7.5-7.5-7.5z"/><path d="m216.762 141.687c-4.143 0-7.5 3.358-7.5 7.5v13.554c0 4.142 3.357 7.5 7.5 7.5s7.5-3.358 7.5-7.5v-13.554c0-4.142-3.357-7.5-7.5-7.5z"/><path d="m243.959 189.623c3.56 2.585 7.729 3.878 11.9 3.878s8.341-1.292 11.9-3.878c3.351-2.435 4.094-7.125 1.66-10.476-2.435-3.351-7.125-4.093-10.477-1.66-1.844 1.34-4.324 1.34-6.168 0-3.352-2.436-8.042-1.692-10.477 1.66-2.431 3.351-1.688 8.041 1.662 10.476z"/><path d="m255.86 239.221c-8.836 0-17.671-3.233-24.556-9.698-3.02-2.835-3.169-7.582-.333-10.602 2.834-3.018 7.581-3.169 10.601-.333 8.012 7.524 20.564 7.524 28.576 0 3.02-2.836 7.767-2.685 10.601.333 2.836 3.02 2.687 7.766-.333 10.602-6.885 6.465-15.72 9.698-24.556 9.698z"/></g></g></svg>