<svg id="Capa_1" enable-background="new 0 0 512 512" height="512" viewBox="0 0 512 512" width="512" xmlns="http://www.w3.org/2000/svg"><g><g><path d="m364.895 324.257-62.52-14.462c-5.442-1.259-9.296-6.106-9.296-11.691v-58.468c0-6.627-5.373-12-12-12h-50.16c-6.627 0-12 5.373-12 12v58.468c0 5.586-3.854 10.432-9.296 11.691l-62.52 14.462c-26.208 6.062-45.974 27.642-49.718 54.28l-15.302 108.875c-1.269 9.026 5.739 17.088 14.854 17.088h318.127c9.115 0 16.123-8.062 14.854-17.088l-15.304-108.875c-3.745-26.638-23.511-48.217-49.719-54.28z" fill="#91deb6"/><path d="m214.981 327.343-42.878 9.917c-26.2 6.06-45.97 27.64-49.71 54.28l-13.57 96.53c-1.05 7.47 3.58 14.33 10.44 16.43h-22.32c-9.12 0-16.13-8.06-14.86-17.09l15.31-108.87c3.74-26.64 23.51-48.22 49.71-54.28l43.518-10.065 18.401 4.979z" fill="#6ed5a1"/><path d="m101.962 281.092c-7.018 0-12.707-5.689-12.707-12.707v-143.114c0-42.133 34.156-76.289 76.289-76.289v168.527c.001 35.116-28.466 63.583-63.582 63.583z" fill="#bc7c63"/><path d="m114.26 117.27v143.11c0 7.02 5.68 12.71 12.7 12.71 2.19 0 4.36-.11 6.49-.33-9.28 5.3-20.03 8.33-31.49 8.33-7.02 0-12.7-5.69-12.7-12.71v-143.11c0-38.6 28.66-70.51 65.87-75.58-24.3 12.75-40.87 38.23-40.87 67.58z" fill="#aa6a51"/><path d="m378.923 156.322h-245.847v-26.321c0-67.655 54.846-122.501 122.501-122.501h.845c67.655 0 122.501 54.846 122.501 122.501z" fill="#bc7c63"/><path d="m268.5 8.09c-61.99 6.06-109.42 58.33-109.42 121.91v26.32h-26v-26.32c0-67.65 54.84-122.5 122.5-122.5h.84c4.08 0 8.1.2 12.08.59z" fill="#aa6a51"/><path d="m321.38 314.19c-39.14 27.82-91.62 27.82-130.76 0l19-4.39c5.45-1.26 9.3-6.11 9.3-11.7v-58.46c0-6.63 5.37-12 12-12h50.16c6.63 0 12 5.37 12 12v58.46c0 5.59 3.85 10.44 9.3 11.7z" fill="#ffbd86"/><path d="m281.08 227.64h-50.16c-6.627 0-12 5.373-12 12v58.46c0 5.59-3.85 10.44-9.3 11.7l-19 4.39c7.67 5.45 15.86 9.84 24.36 13.15l19.635-4.539c5.447-1.259 9.305-6.11 9.305-11.701v-11.357c0-2.356 2.023-4.177 4.371-3.978 2.541.215 5.112.326 7.709.326 13.21 0 25.77-2.84 37.08-7.94v-48.51c0-6.628-5.373-12.001-12-12.001z" fill="#f6a96c"/><path d="m254.708 394.362c-9.479-8.174-23.917-7.568-32.66 1.82-8.534 9.163-7.86 24.279.994 33.133 10.059 10.059 26.183 26.183 31.326 31.326.904.904 2.365.899 3.269-.004l31.319-31.319c8.854-8.854 9.531-23.973.997-33.136-8.743-9.388-23.181-9.994-32.66-1.82-.743.641-1.842.641-2.585 0z" fill="#f79595"/><path d="m248.042 429.315c-8.854-8.854-9.528-23.97-.994-33.133 1.447-1.554 3.062-2.844 4.773-3.917-9.339-5.853-21.874-4.564-29.773 3.917-8.534 9.163-7.86 24.279.994 33.133 10.059 10.059 26.183 26.183 31.326 31.326.904.904 2.365.9 3.269-.004l10.864-10.864c-6.622-6.621-14.576-14.575-20.459-20.458z" fill="#f47c7c"/><path d="m350.789 184.379h-189.578c-15.538 0-28.135-12.596-28.135-28.135 0-15.538 12.596-28.135 28.135-28.135h189.577c15.538 0 28.135 12.596 28.135 28.135 0 15.539-12.596 28.135-28.134 28.135z" fill="#f6a96c"/><path d="m255.866 276.092c49.883 0 90.322-40.438 90.322-90.321v-54.517c0-29.705-24.081-53.785-53.785-53.785h-73.073c-29.705 0-53.785 24.081-53.785 53.785v54.517c0 49.882 40.438 90.321 90.321 90.321z" fill="#fed2a4"/><path d="m268.37 275.22c-4.09.58-8.26.87-12.5.87-49.89 0-90.33-40.44-90.33-90.32v-54.52c0-29.7 24.09-53.78 53.79-53.78h25c-29.7 0-53.79 24.08-53.79 53.78v54.52c0 45.64 33.86 83.38 77.83 89.45z" fill="#ffbd86"/></g><g><path d="m295.098 170.521c4.143 0 7.5-3.358 7.5-7.5v-13.554c0-4.142-3.357-7.5-7.5-7.5s-7.5 3.358-7.5 7.5v13.554c0 4.142 3.357 7.5 7.5 7.5z"/><path d="m216.902 141.967c-4.142 0-7.5 3.358-7.5 7.5v13.554c0 4.142 3.358 7.5 7.5 7.5s7.5-3.358 7.5-7.5v-13.554c0-4.142-3.358-7.5-7.5-7.5z"/><path d="m244.1 189.903c3.559 2.585 7.729 3.878 11.9 3.878 4.17 0 8.342-1.293 11.9-3.878 3.351-2.435 4.094-7.125 1.66-10.476-2.435-3.351-7.125-4.093-10.477-1.66-1.844 1.339-4.323 1.34-6.167 0-3.352-2.435-8.041-1.692-10.476 1.66-2.434 3.351-1.691 8.041 1.66 10.476z"/><path d="m255.998 468.817h.019c2.615-.005 5.074-1.027 6.924-2.877l31.318-31.319c11.919-11.917 12.449-31.454 1.183-43.55-10.402-11.169-26.974-13.051-39.44-5.077-12.467-7.977-29.039-6.094-39.441 5.076-11.266 12.097-10.737 31.632 1.179 43.548l31.326 31.326c1.852 1.854 4.313 2.873 6.932 2.873zm-28.461-67.524c3.185-3.419 7.483-5.16 11.797-5.16 3.713 0 7.438 1.29 10.475 3.907 3.53 3.046 8.854 3.045 12.381.001 6.565-5.66 16.349-5.109 22.274 1.252 5.628 6.043 5.249 16.66-.812 22.721l-27.652 27.653-27.655-27.655c-6.058-6.059-6.437-16.675-.808-22.719z"/><path d="m437.347 486.366-15.31-108.869c-4.142-29.5-26.424-53.831-55.446-60.544l-62.521-14.46c-2.055-.475-3.489-2.281-3.489-4.393v-25.342c29.835-15.398 50.773-45.699 52.918-80.993 18.335-1.386 32.84-16.699 32.922-35.364 0-.027.004-26.4.004-26.4-.001-71.683-58.32-130.001-130.003-130.001h-.845c-37.091 0-70.602 15.617-94.309 40.618-21.116 1.058-40.812 9.906-55.657 25.101-15.381 15.742-23.851 36.536-23.851 58.551v71.32c0 4.142 3.358 7.5 7.5 7.5s7.5-3.358 7.5-7.5v-71.32c0-31.354 21.591-58.276 50.669-66.326-13.796 20.638-21.852 45.423-21.852 72.057 0 0 .004 26.374.004 26.4.081 18.508 14.343 33.723 32.459 35.329v24.78c0 30.923-25.157 56.08-56.08 56.08-1.389 0-2.694-.541-3.676-1.522-.982-.983-1.524-2.292-1.524-3.688v-36.79c0-4.142-3.358-7.5-7.5-7.5s-7.5 3.358-7.5 7.5v36.79c0 5.401 2.101 10.477 5.917 14.293 3.815 3.815 8.888 5.917 14.283 5.917 33.128 0 61.032-22.782 68.877-53.502 9.443 16.554 23.578 30.1 40.583 38.81v25.202c0 2.111-1.435 3.917-3.49 4.393l-62.52 14.46c-29.023 6.713-51.306 31.044-55.447 60.543l-15.31 108.87c-.908 6.454 1.023 12.976 5.298 17.893 4.276 4.92 10.468 7.741 16.989 7.741h109.54c4.142 0 7.5-3.358 7.5-7.5s-3.358-7.5-7.5-7.5h-36.724v-78.87c0-4.142-3.358-7.5-7.5-7.5s-7.5 3.358-7.5 7.5v78.87h-57.816c-2.208 0-4.221-.917-5.668-2.582-1.445-1.663-2.072-3.781-1.765-5.964l15.311-108.872c3.284-23.396 20.956-42.692 43.973-48.016l40.305-9.322c20.289 13.581 43.596 20.374 66.905 20.374s46.615-6.794 66.904-20.374l40.306 9.322c23.018 5.324 40.688 24.62 43.974 48.018l15.31 108.871c.307 2.183-.319 4.3-1.765 5.963-1.447 1.665-3.461 2.582-5.669 2.582h-57.815v-78.87c0-4.142-3.357-7.5-7.5-7.5s-7.5 3.358-7.5 7.5v78.87h-100.766c-4.142 0-7.5 3.358-7.5 7.5s3.358 7.5 7.5 7.5h173.58c6.521 0 12.714-2.822 16.99-7.742 4.274-4.918 6.205-11.44 5.297-17.892zm-83.66-309.715v-40.814c10.007 1.417 17.736 10.015 17.736 20.407s-7.729 18.99-17.736 20.407zm-98.109-161.651h.845c62.473 0 113.47 50.074 114.966 112.194-5.321-3.784-11.716-6.15-18.635-6.528-5.032-28.762-30.17-50.698-60.351-50.698h-73.073c-30.188 0-55.331 21.946-60.355 50.719-6.815.424-13.112 2.773-18.363 6.507 1.496-62.12 52.492-112.194 114.966-112.194zm-115.001 141.244c0-10.299 7.592-18.834 17.468-20.366v40.732c-9.876-1.532-17.468-10.067-17.468-20.366zm32.468 29.526v-54.517c0-25.522 20.763-46.285 46.285-46.285h73.072c25.521 0 46.285 20.763 46.285 46.285v54.517c0 45.668-37.153 82.822-82.821 82.822s-82.821-37.154-82.821-82.822zm37.557 131.5.707-.163c8.897-2.057 15.111-9.873 15.111-19.007v-19.04c9.297 2.941 19.189 4.532 29.446 4.532 10.356 0 20.339-1.623 29.714-4.619v19.127c0 9.135 6.214 16.951 15.109 19.007l.707.164c-28.717 13.76-62.076 13.76-90.794-.001z"/><path d="m256 239.501c-8.835 0-17.671-3.233-24.556-9.698-3.02-2.835-3.168-7.582-.333-10.602 2.836-3.019 7.583-3.168 10.602-.333 8.012 7.524 20.564 7.525 28.576 0 3.02-2.836 7.767-2.685 10.601.333 2.836 3.02 2.687 7.766-.333 10.602-6.886 6.466-15.721 9.698-24.557 9.698z"/></g></g></svg>