<svg id="Capa_1" enable-background="new 0 0 510.735 510.735" height="512" viewBox="0 0 510.735 510.735" width="512" xmlns="http://www.w3.org/2000/svg"><g><g><path d="m378.291 155.611v-42.404c0-55.527-53.172-95.599-106.549-80.299l-9.121 2.614c-2.983.855-5.659-2.067-4.545-4.963l6.658-17.319c1.063-2.765-1.341-5.616-4.246-5.036l-63.89 12.757c-37.299 7.448-64.153 40.193-64.153 78.229v56.421z" fill="#bc7c63"/><path d="m264.958 12.307-43.36 8.65c-37.3 7.45-64.15 40.2-64.15 78.23v56.42h-25v-56.42c0-38.03 26.85-70.78 64.15-78.23l63.89-12.75c2.57-.51 4.76 1.67 4.47 4.1z" fill="#aa6a51"/><path d="m364.263 323.624-62.52-14.462c-5.442-1.259-9.296-6.106-9.296-11.691v-58.468c0-6.627-5.373-12-12-12h-50.16c-6.627 0-12 5.373-12 12v58.468c0 5.586-3.854 10.432-9.296 11.691l-62.52 14.462c-26.208 6.062-45.974 27.642-49.718 54.28l-15.303 108.875c-1.269 9.026 5.739 17.088 14.854 17.088h318.127c9.115 0 16.123-8.062 14.854-17.088l-15.304-108.875c-3.744-26.638-23.51-48.217-49.718-54.28z" fill="#ffbd86"/><path d="m280.448 227.003h-50.16c-6.63 0-12 5.37-12 12l.003 58.464c0 5.59-3.85 10.44-9.3 11.7l-6.963 1.61-29.682 13.285c-1.017.235-27.9.058-28.897.34-24.689 6.968-43.094 27.899-46.688 53.505l-15.31 108.87c-1.27 9.03 5.74 17.09 14.86 17.09h22.32c-6.86-2.1-11.49-8.96-10.44-16.43l13.57-96.53c3.078-21.925 17.014-40.423 36.456-49.662 4.181-1.987 7.927-9.653 12.564-10.726l41.776-3.395 21.434-4.957c5.45-1.26 9.3-6.11 9.3-11.7v-11.361c0-2.356 2.023-4.177 4.371-3.978 2.54.215 5.11.325 7.706.325 13.21 0 25.77-2.84 37.08-7.94v-48.51c0-6.627-5.373-12-12-12z" fill="#f6a96c"/><path d="m308.698 310.777c-4.4 10.34-11.72 19.13-20.93 25.35-9.24 6.25-20.4 9.9-32.4 9.9-23.95 0-44.51-14.53-53.34-35.25l-55.56 12.85c-1.02.24-2.02.49-3.02.77 25.42 23.92 36.65 52.68 18.55 91.48-.5 1.07-.77 2.23-.77 3.41v84.58h188.28v-84.58c0-1.18-.27-2.34-.77-3.41-18.1-38.8-6.87-67.56 18.55-91.48z" fill="#a2aee6"/><path d="m212.558 327.127-41.09 9.5c-4.64 1.07-9.07 2.63-13.25 4.62-4.1-5.9-9.08-11.5-14.77-16.85 1-.28 2-.53 3.02-.77l55.56-12.85c2.58 6.05 6.16 11.57 10.53 16.35z" fill="#8795de"/><path d="m350.156 183.746h-189.577c-15.538 0-28.135-12.596-28.135-28.135 0-15.538 12.596-28.135 28.135-28.135h189.577c15.538 0 28.135 12.596 28.135 28.135 0 15.539-12.596 28.135-28.135 28.135z" fill="#f6a96c"/><path d="m255.368 275.459c49.883 0 90.322-40.438 90.322-90.321v-72.746c0-21.423-17.367-38.79-38.79-38.79-2.465 0-4.707 1.498-5.583 3.802-7.005 18.42-18.622 29.904-37.566 30.364-3.945.096-6.858-3.607-5.947-7.446 1.531-6.45.874-12.657-2.715-18.539-2.542-4.165-8.703-3.816-10.657.655-4.818 11.022-11.036 19.889-20.179 24.255-4.551 2.173-9.623-1.869-8.449-6.774 2.358-9.855.183-18.318-7.892-24.967-1.068-.879-2.42-1.35-3.803-1.35h-.272c-21.423 0-38.79 17.367-38.79 38.79v72.746c-.001 49.883 40.437 90.321 90.321 90.321z" fill="#fed2a4"/><path d="m267.868 274.587c-4.09.58-8.26.87-12.5.87-49.88 0-90.32-40.44-90.32-90.32v-72.75c0-21.42 17.37-38.79 38.79-38.79h.27c1.38 0 2.74.47 3.8 1.35 1.16.95 2.19 1.94 3.11 2.97-12.46 6.46-20.97 19.47-20.97 34.47v72.75c0 45.64 33.86 83.37 77.82 89.45z" fill="#ffbd86"/><path d="m161.23 426.197h188.276v37.787h-188.276z" fill="#f2fbff"/><path d="m223.988 426.197h62.759v37.787h-62.759z" fill="#91deb6"/></g><g><path d="m436.714 485.101-15.31-108.869c-4.142-29.501-26.424-53.832-55.446-60.544l-62.521-14.461c-2.055-.475-3.489-2.281-3.489-4.393v-25.27c29.909-15.378 50.908-45.723 53.053-81.074 18.323-1.455 32.791-16.82 32.791-35.511 0-3.215-.004-42.404-.004-42.404 0-28.844-13.21-55.342-36.243-72.7-23.032-17.359-52.145-22.759-79.878-14.808l-1.895.544 3.968-10.318c1.469-3.828.738-8.154-1.908-11.29-2.648-3.138-6.797-4.592-10.812-3.782l-63.894 12.75c-13.169 2.637-25.228 8.085-35.843 16.194-3.291 2.515-3.921 7.222-1.406 10.514 2.515 3.289 7.221 3.921 10.514 1.406 8.784-6.712 18.77-11.222 29.675-13.404l57.231-11.422-4.216 10.964c-1.549 4.011-.711 8.474 2.187 11.647 2.899 3.176 7.271 4.42 11.421 3.233l9.115-2.618c23.161-6.639 47.475-2.13 66.713 12.369 19.237 14.498 30.271 36.63 30.271 60.721v13.376c-5.052-3.601-11.076-5.916-17.599-6.469v-7.724c0-25.524-20.766-46.29-46.29-46.29-5.566 0-10.627 3.471-12.593 8.637-6.198 16.298-15.385 24.431-28.81 25.438 1.481-8.015.137-15.508-4.006-22.298-2.65-4.346-7.454-6.837-12.511-6.485-5.026.341-9.403 3.423-11.422 8.042-4.067 9.305-8.508 15.416-13.811 18.939 1.818-11.671-1.971-21.718-11.069-29.212-2.397-1.974-5.44-3.061-8.57-3.061h-.271c-25.524 0-46.29 20.766-46.29 46.29v7.724c-6.522.553-12.547 2.868-17.599 6.469v-27.396c0-11.477 2.765-22.902 7.995-33.041 1.899-3.681.455-8.205-3.227-10.104-3.68-1.898-8.205-.455-10.104 3.227-6.323 12.256-9.665 26.059-9.665 39.918 0 0-.004 52.358-.004 56.425 0 18.691 14.468 34.056 32.791 35.511 2.145 35.352 23.144 65.696 53.053 81.074v25.27c0 2.111-1.435 3.918-3.49 4.394l-62.521 14.46c-29.022 6.712-51.305 31.043-55.446 60.543l-15.308 108.868c-.908 6.453 1.022 12.975 5.297 17.893 4.276 4.92 10.469 7.742 16.99 7.742h273.399c4.143 0 7.5-3.357 7.5-7.5s-3.357-7.5-7.5-7.5h-12.7v-77.08c0-2.274-.496-4.49-1.473-6.581-14.197-30.432-9.836-55.883 13.751-79.769 19.684 7.212 34.307 24.948 37.265 46.014l15.31 108.871c.307 2.183-.319 4.3-1.765 5.963-1.447 1.665-3.461 2.582-5.669 2.582h-9.72c-4.143 0-7.5 3.357-7.5 7.5s3.357 7.5 7.5 7.5h9.72c6.521 0 12.714-2.822 16.99-7.742 4.276-4.918 6.206-11.439 5.298-17.892zm-65.926-330.199v.154c-.038 10.31-7.682 18.839-17.599 20.309v-40.773c9.916 1.472 17.56 10 17.599 20.31zm-230.844.077c0-10.345 7.661-18.912 17.603-20.386v40.773c-9.942-1.475-17.603-10.041-17.603-20.387zm32.602 29.526v-72.746c0-17.165 13.893-31.146 31.024-31.289 5.166 4.462 6.688 9.751 4.938 17.071-1.219 5.092.556 10.303 4.63 13.598 4.097 3.312 9.592 3.961 14.346 1.688 9.162-4.375 16.547-12.621 22.515-25.159 1.255 3.15 1.41 6.484.506 10.29-.981 4.137-.012 8.4 2.66 11.697 2.646 3.266 6.565 5.085 10.768 4.979 20.449-.498 35.244-11.985 43.988-34.148 16.781.541 30.269 14.362 30.269 31.273 0 0-.084 72.295 0 72.746 0 45.668-37.153 82.822-82.821 82.822s-82.823-37.154-82.823-82.822zm82.822 97.822c10.307 0 20.244-1.607 29.58-4.575v19.083c0 8.262 5.092 15.43 12.645 18.248-9.213 14.089-24.969 22.811-42.225 22.811-17.243 0-33.007-8.726-42.222-22.812 7.552-2.82 12.642-9.987 12.642-18.248v-19.083c9.336 2.969 19.273 4.576 29.58 4.576zm-164.729 210.826c-1.445-1.663-2.071-3.78-1.765-5.964l15.31-108.871c2.958-21.066 17.581-38.801 37.265-46.013 23.587 23.886 27.949 49.337 13.753 79.765-.979 2.095-1.475 4.311-1.475 6.585v77.08h-57.42c-2.207 0-4.221-.917-5.668-2.582zm251.368-60.089v22.788h-47.761v-22.788zm-62.76 22.788h-47.758v-22.788h47.758zm-62.758 0h-47.761v-22.788h47.761zm-47.761 39.883v-24.883h173.279v24.883zm173.055-77.671h-172.831c15.576-33.646 11.977-63.215-11.037-90.019l39.991-9.249c11.396 20.9 33.31 34.098 57.462 34.098 24.17 0 46.07-13.193 57.464-34.098l39.989 9.249c-23.014 26.803-26.613 56.371-11.038 90.019z"/><path d="m294.465 169.256c4.143 0 7.5-3.357 7.5-7.5v-13.554c0-4.143-3.357-7.5-7.5-7.5s-7.5 3.357-7.5 7.5v13.554c0 4.142 3.358 7.5 7.5 7.5z"/><path d="m216.27 140.702c-4.143 0-7.5 3.357-7.5 7.5v13.554c0 4.143 3.357 7.5 7.5 7.5s7.5-3.357 7.5-7.5v-13.554c0-4.143-3.357-7.5-7.5-7.5z"/><path d="m243.468 188.639c3.559 2.585 7.729 3.877 11.899 3.877s8.341-1.292 11.899-3.877c3.352-2.435 4.096-7.125 1.661-10.476-2.435-3.352-7.124-4.094-10.476-1.661-1.846 1.34-4.324 1.34-6.17 0-3.352-2.436-8.041-1.691-10.476 1.661-2.433 3.351-1.688 8.041 1.663 10.476z"/><path d="m255.368 238.235c-8.836 0-17.671-3.232-24.556-9.698-3.02-2.835-3.169-7.581-.333-10.601 2.834-3.019 7.581-3.169 10.601-.333 8.012 7.523 20.564 7.523 28.576 0 3.02-2.836 7.767-2.686 10.601.333 2.836 3.02 2.687 7.766-.333 10.601-6.885 6.466-15.72 9.698-24.556 9.698z"/></g></g></svg>