<svg id="Capa_1" enable-background="new 0 0 512 512" height="512" viewBox="0 0 512 512" width="512" xmlns="http://www.w3.org/2000/svg"><g><g><path d="m364.895 324.257-62.52-14.462c-5.442-1.259-9.296-6.106-9.296-11.691v-58.468c0-6.627-5.373-12-12-12h-50.16c-6.627 0-12 5.373-12 12v58.468c0 5.586-3.854 10.432-9.296 11.691l-62.52 14.462c-26.208 6.062-45.974 27.642-49.718 54.28l-15.302 108.875c-1.269 9.026 5.739 17.088 14.854 17.088h318.127c9.115 0 16.123-8.062 14.854-17.088l-15.304-108.875c-3.745-26.638-23.511-48.217-49.719-54.28z" fill="#a2aee6"/><path d="m210.216 326.444-38.116 8.816c-26.2 6.06-45.97 27.64-49.71 54.28l-13.84 98.43c-1.07 7.6 3.74 14.56 10.78 16.53h-22.39c-9.12 0-16.13-8.06-14.86-17.09l15.31-108.87c3.74-26.64 23.51-48.22 49.71-54.28l52.499-12.142z" fill="#8795de"/><path d="m313.69 312.42-1.45.19c-31.09 31.09-81.39 31.09-112.48 0l-.16-.49 10.02-2.32c5.45-1.26 9.3-6.11 9.3-11.7v-58.46c0-6.63 5.37-12 12-12h50.16c6.63 0 12 5.37 12 12v58.46c0 5.59 3.85 10.44 9.3 11.7z" fill="#ffbd86"/><path d="m243.92 227.64v81.46c0 5.59-3.85 10.44-9.3 11.7l-18.67 4.32c-5.78-3.38-11.23-7.55-16.19-12.51l-.16-.49 10.02-2.32c5.45-1.26 9.3-6.11 9.3-11.7v-58.46c0-6.63 5.37-12 12-12z" fill="#ffcebf"/><path d="m234.592 290.438c-.752-3.772-4.67-6.035-8.314-4.8-12.932 4.383-26.495 16.104-36.072 32.693-9.578 16.589-12.947 34.195-10.276 47.586.752 3.772 4.67 6.035 8.314 4.8 12.932-4.383 26.495-16.104 36.072-32.693s12.947-34.195 10.276-47.586z" fill="#c8effe"/><path d="m277.408 290.438c.752-3.772 4.671-6.035 8.314-4.8 12.932 4.383 26.495 16.104 36.072 32.693 9.578 16.589 12.947 34.195 10.276 47.586-.752 3.772-4.67 6.035-8.314 4.8-12.932-4.383-26.495-16.104-36.072-32.693s-12.947-34.195-10.276-47.586z" fill="#c8effe"/><path d="m256 307c-67.889 0-122.924-55.035-122.924-122.923v-54.076c.001-67.655 54.846-122.501 122.502-122.501h.845c67.655 0 122.501 54.846 122.501 122.501v54.076c-.001 67.888-55.035 122.923-122.924 122.923z" fill="#f2fbff"/><path d="m268.5 306.38c-4.11.41-8.28.62-12.5.62-67.89 0-122.92-55.03-122.92-122.92v-54.08c0-67.65 54.84-122.5 122.5-122.5h.84c4.08 0 8.1.2 12.08.59-61.99 6.06-110.42 58.33-110.42 121.91v54.08c0 63.67 48.4 116.03 110.42 122.3z" fill="#dff6fd"/><path d="m256 276.092c49.883 0 90.322-40.438 90.322-90.321v-58.602c0-29.705-24.081-53.785-53.785-53.785h-73.072c-29.705 0-53.785 24.081-53.785 53.785v58.602c-.002 49.882 40.437 90.321 90.32 90.321z" fill="#fed2a4"/><path d="m268.5 275.22c-4.09.58-8.26.87-12.5.87-49.88 0-90.32-40.44-90.32-90.32v-58.6c0-29.71 24.08-53.79 53.78-53.79h25c-29.7 0-53.78 24.08-53.78 53.79v58.6c0 45.64 33.86 83.37 77.82 89.45z" fill="#ffbd86"/></g><g><path d="m437.347 486.366-15.31-108.868c-4.141-29.501-26.424-53.832-55.447-60.545l-43.207-9.997c-1.925-2.721-3.96-5.331-6.106-7.777 41.107-21.973 69.143-65.32 69.143-115.098v-54.081c0-6.953-.553-13.933-1.644-20.746-.655-4.09-4.498-6.871-8.592-6.22-4.09.655-6.875 4.501-6.22 8.592.966 6.031 1.456 12.213 1.456 18.374v54.08c0 63.643-51.777 115.42-115.42 115.42s-115.42-51.777-115.42-115.42v-54.08c0-63.411 51.589-115 115-115h.84c43.974 0 84.69 25.626 103.729 65.286 1.792 3.734 6.273 5.308 10.007 3.515 3.734-1.792 5.308-6.273 3.516-10.007-10.451-21.771-26.739-40.188-47.102-53.263-20.92-13.431-45.177-20.531-70.15-20.531h-.84c-71.682 0-130 58.318-130 130v54.08c0 49.778 28.036 93.125 69.143 115.098-2.146 2.447-4.182 5.057-6.106 7.778l-43.206 9.997c-29.023 6.713-51.306 31.044-55.447 60.543l-15.31 108.87c-.908 6.454 1.023 12.976 5.298 17.893 4.275 4.92 10.467 7.741 16.988 7.741h12.01c4.142 0 7.5-3.358 7.5-7.5s-3.358-7.5-7.5-7.5h-12.01c-2.208 0-4.221-.917-5.668-2.582-1.445-1.663-2.072-3.781-1.765-5.964l15.311-108.872c3.284-23.396 20.956-42.692 43.973-48.016l29.831-6.902c-6.411 14.73-8.613 29.854-6.047 42.718.778 3.911 3.208 7.301 6.669 9.302 2.139 1.237 4.542 1.868 6.96 1.868 1.496 0 2.998-.242 4.446-.731 15.291-5.188 29.931-18.329 40.165-36.052.012-.02.023-.041.034-.061 5.823 1.757 11.781 2.903 17.785 3.412v151.88h-78.878v-78.87c0-4.142-3.358-7.5-7.5-7.5s-7.5 3.358-7.5 7.5v78.87h-10.806c-4.142 0-7.5 3.358-7.5 7.5s3.358 7.5 7.5 7.5h271.11c6.521 0 12.713-2.821 16.989-7.741 4.275-4.918 6.205-11.44 5.298-17.893zm-122.052-164.285c8.027 13.902 11.587 29.143 9.649 41.097-11.322-4.303-22.743-15.007-30.77-28.908-4.343-7.52-7.375-15.384-8.938-23.076 6.061-1.393 11.958-3.216 17.666-5.423 4.641 4.667 8.88 10.222 12.393 16.31zm-128.24 41.097c-1.939-11.951 1.621-27.193 9.65-41.099 3.512-6.086 7.752-11.641 12.39-16.309 5.708 2.208 11.606 4.03 17.666 5.423-1.563 7.692-4.595 15.556-8.938 23.076-8.026 13.904-19.452 24.61-30.768 28.909zm54.5-49.482c4.745.525 9.562.804 14.445.804s9.7-.279 14.445-.804c.938 4.758 2.329 9.549 4.151 14.294-12.192 3.253-25.015 3.254-37.193.002 1.823-4.745 3.214-9.537 4.152-14.296zm179.173 180.722c-1.447 1.665-3.46 2.582-5.668 2.582h-57.816v-78.87c0-4.142-3.358-7.5-7.5-7.5s-7.5 3.358-7.5 7.5v78.87h-78.61v-151.898c5.91-.52 11.777-1.664 17.516-3.394.012.021.023.042.035.063 10.234 17.724 24.874 30.864 40.174 36.055 1.444.488 2.942.729 4.436.729 2.417 0 4.822-.631 6.962-1.869 3.46-2.001 5.891-5.392 6.668-9.299 2.567-12.868.364-27.992-6.046-42.722l29.831 6.902c23.017 5.324 40.688 24.62 43.973 48.018l15.31 108.87c.307 2.183-.32 4.301-1.765 5.963z"/><path d="m292.536 65.883h-73.072c-33.793 0-61.286 27.493-61.286 61.286v58.602c0 53.939 43.883 97.822 97.822 97.822s97.822-43.883 97.822-97.822v-58.602c0-33.794-27.493-61.286-61.286-61.286zm46.286 119.887c0 45.668-37.154 82.822-82.822 82.822s-82.822-37.154-82.822-82.822v-58.602c0-25.522 20.764-46.286 46.286-46.286h73.072c25.522 0 46.286 20.764 46.286 46.286z"/><path d="m295.231 141.967c-4.142 0-7.5 3.358-7.5 7.5v13.554c0 4.142 3.358 7.5 7.5 7.5s7.5-3.358 7.5-7.5v-13.554c0-4.142-3.357-7.5-7.5-7.5z"/><path d="m217.036 141.967c-4.142 0-7.5 3.358-7.5 7.5v13.554c0 4.142 3.358 7.5 7.5 7.5s7.5-3.358 7.5-7.5v-13.554c0-4.142-3.358-7.5-7.5-7.5z"/><path d="m259.083 177.767c-1.845 1.34-4.322 1.34-6.167 0-3.352-2.435-8.042-1.691-10.476 1.66-2.435 3.351-1.691 8.041 1.66 10.476 3.559 2.585 7.729 3.878 11.9 3.878s8.341-1.293 11.9-3.878c3.351-2.435 4.094-7.125 1.66-10.476-2.435-3.351-7.124-4.094-10.477-1.66z"/><path d="m275.779 127.383c0-4.142-3.358-7.5-7.5-7.5h-24.559c-4.142 0-7.5 3.358-7.5 7.5s3.358 7.5 7.5 7.5h24.559c4.142 0 7.5-3.358 7.5-7.5z"/><path d="m282.362 92.883h-52.724c-4.142 0-7.5 3.358-7.5 7.5s3.358 7.5 7.5 7.5h52.724c4.142 0 7.5-3.358 7.5-7.5s-3.358-7.5-7.5-7.5z"/><path d="m256.134 239.501c-8.836 0-17.671-3.233-24.557-9.698-3.02-2.835-3.168-7.582-.333-10.602 2.836-3.019 7.583-3.168 10.602-.333 8.012 7.523 20.564 7.523 28.576 0 3.021-2.836 7.766-2.686 10.602.333 2.835 3.02 2.687 7.766-.333 10.602-6.886 6.466-15.722 9.698-24.557 9.698z"/></g></g></svg>