<svg id="Capa_1" enable-background="new 0 0 512 512" height="512" viewBox="0 0 512 512" width="512" xmlns="http://www.w3.org/2000/svg"><g><g><path d="m438.342 111.55c0 9.14-7.42 16.56-16.56 16.56h-83.87v-33.12h83.87c4.57 0 8.71 1.85 11.71 4.85 2.99 3 4.85 7.14 4.85 11.71z" fill="#f79595"/><path d="m348.852 94.99h26.8v33.12h-26.8z" fill="#f47c7c"/><path d="m356.617 324.257-62.52-14.462c-5.442-1.259-9.296-6.106-9.296-11.691v-58.468c0-6.627-5.373-12-12-12h-50.16c-6.627 0-12 5.373-12 12v58.468c0 5.586-3.854 10.432-9.296 11.691l-62.52 14.462c-26.208 6.062-45.974 27.642-49.718 54.28l-15.303 108.875c-1.269 9.026 5.739 17.088 14.854 17.088h318.127c9.115 0 16.123-8.062 14.854-17.088l-15.304-108.875c-3.744-26.638-23.51-48.217-49.718-54.28z" fill="#ffc344"/><path d="m206.702 327.343-42.878 9.917c-26.2 6.06-45.97 27.64-49.71 54.28l-13.57 96.53c-1.05 7.47 3.58 14.33 10.44 16.43h-22.32c-9.12 0-16.13-8.06-14.86-17.09l15.31-108.87c3.74-26.64 23.51-48.22 49.71-54.28l43.518-10.065 17.911 3.664z" fill="#feb137"/><path d="m313.102 314.19c-39.14 27.82-91.62 27.82-130.76 0l19-4.39c5.45-1.26 9.3-6.11 9.3-11.7v-58.46c0-6.63 5.37-12 12-12h50.16c6.63 0 12 5.37 12 12v58.46c0 5.59 3.85 10.44 9.3 11.7z" fill="#ffdfcf"/><path d="m272.802 227.64h-50.16c-6.627 0-12 5.373-12 12v58.46c0 5.59-3.85 10.44-9.3 11.7l-19 4.39c7.67 5.45 15.86 9.84 24.36 13.15l19.64-4.54c5.444-1.259 9.3-6.107 9.3-11.695v-11.362c0-2.356 2.023-4.177 4.371-3.978 2.541.215 5.112.326 7.709.326 13.21 0 25.77-2.84 37.08-7.94v-48.51c0-6.628-5.373-12.001-12-12.001z" fill="#ffcebf"/><path d="m342.51 184.379h-189.577c-15.538 0-28.135-12.596-28.135-28.135 0-15.538 12.596-28.135 28.135-28.135h189.577c15.538 0 28.135 12.596 28.135 28.135 0 15.539-12.596 28.135-28.135 28.135z" fill="#ffcebf"/><path d="m247.588 276.092c49.883 0 90.322-40.438 90.322-90.321v-67.792h-180.644v67.792c0 49.882 40.439 90.321 90.322 90.321z" fill="#ffeee6"/><path d="m260.092 275.22c-4.09.58-8.26.87-12.5.87-49.89 0-90.33-40.44-90.33-90.32v-67.79h25v67.79c0 45.64 33.86 83.38 77.83 89.45z" fill="#ffdfcf"/><path d="m257.46 466.247h-19.476c-13.317 0-24.113-10.796-24.113-24.113v-36.141c0-13.317 10.796-24.113 24.113-24.113h19.476c13.317 0 24.113 10.796 24.113 24.113v36.141c0 13.318-10.796 24.113-24.113 24.113z" fill="#f79595"/><path d="m238.87 442.134v-36.141c0-12.383 9.335-22.58 21.351-23.951-.907-.104-1.827-.162-2.762-.162h-19.476c-13.317 0-24.113 10.796-24.113 24.113v36.141c0 13.317 10.796 24.113 24.113 24.113h19.476c.935 0 1.855-.059 2.762-.162-12.015-1.371-21.351-11.568-21.351-23.951z" fill="#f47c7c"/><path d="m153.982 436.45v28h-76.95l3.94-28z" fill="#f79595"/><path d="m107.802 436.45-3.94 28h-26.83l3.94-28z" fill="#f47c7c"/><path d="m418.411 464.45h-76.949v-28h73.01z" fill="#f79595"/><path d="m157.266 128.109v50.465c18.253-13.717 30.76-29.827 32.391-50.465" fill="#7a6d79"/><path d="m337.909 128.109v50.465c-18.253-13.717-30.76-29.827-32.391-50.465" fill="#7a6d79"/><path d="m230.138 7.5h34.323c48.651 0 88.09 39.439 88.09 88.09v32.519h-208.504c-1.105 0-2-.895-2-2v-30.519c0-48.651 39.44-88.09 88.091-88.09z" fill="#f79595"/><path d="m167.052 95.59v30.52c0 1.1.89 2 2 2h-25c-1.11 0-2-.9-2-2v-30.52c0-48.65 39.44-88.09 88.09-88.09h25c-48.65 0-88.09 39.44-88.09 88.09z" fill="#f47c7c"/><path d="m273.913 98.915h-53.106v-12.255c0-14.665 11.888-26.553 26.553-26.553 14.665 0 26.553 11.888 26.553 26.553z" fill="#7a6d79"/><path d="m220.807 128.191h78.638v-23.149c0-3.384-2.743-6.128-6.128-6.128h-72.511v29.277z" fill="#f2fbff"/><path d="m182.259 128.11v23.71c-5.72 10-14.38 18.78-24.99 26.75v-50.46z" fill="#685e68"/></g><g><path d="m445.843 111.55c0-6.412-2.5-12.451-7.047-17.013-4.544-4.544-10.586-7.046-17.014-7.046h-62.071c-.865-10.382-3.395-20.442-7.565-30-1.656-3.797-6.08-5.534-9.873-3.875-3.797 1.656-5.531 6.077-3.875 9.874 4.415 10.12 6.654 20.92 6.654 32.1v25.02h-38.106v-15.567c0-7.514-6.113-13.627-13.628-13.627h-11.904v-4.756c0-18.777-15.276-34.053-34.053-34.053s-34.053 15.276-34.053 34.053v12.255 21.695h-63.755v-25.02c0-44.438 36.152-80.59 80.59-80.59h34.32c20.579 0 40.163 7.748 55.146 21.817 3.018 2.835 7.765 2.687 10.602-.333 2.835-3.02 2.686-7.766-.334-10.602-17.774-16.69-41.005-25.882-65.414-25.882h-34.32c-52.708 0-95.59 42.881-95.59 95.59v30.142c-10.33 6.247-17.253 17.584-17.253 30.512 0 18.643 14.394 33.978 32.651 35.5 2.144 35.408 23.206 65.795 53.192 81.152v25.204c0 2.111-1.435 3.917-3.49 4.393l-62.516 14.459c-8.038 1.854-15.643 5.041-22.603 9.472-3.494 2.225-4.523 6.861-2.298 10.354 1.43 2.246 3.855 3.473 6.334 3.473 1.377 0 2.772-.379 4.021-1.174 5.518-3.513 11.546-6.039 17.922-7.51l40.328-9.327c20.219 13.517 43.549 20.292 66.887 20.292s46.665-6.776 66.878-20.292l40.327 9.327c23.018 5.324 40.689 24.62 43.975 48.018l6.942 49.366h-56.881v-10.82c0-4.142-3.357-7.5-7.5-7.5s-7.5 3.358-7.5 7.5v78.869h-172.49v-32.472c0-.026.004-.051.004-.077s-.004-.051-.004-.077v-27.845c0-.026.004-.051.004-.077s-.004-.051-.004-.077v-18.245c0-4.142-3.358-7.5-7.5-7.5s-7.5 3.358-7.5 7.5v10.82h-56.881l6.942-49.366c.855-6.08 2.655-11.938 5.351-17.411 1.831-3.716.302-8.211-3.414-10.042-3.717-1.831-8.211-.301-10.042 3.414-3.401 6.904-5.672 14.29-6.749 21.95l-15.31 108.87c-.908 6.454 1.023 12.976 5.298 17.893 4.276 4.921 10.469 7.742 16.989 7.742h318.12c6.521 0 12.713-2.821 16.988-7.741 4.275-4.918 6.206-11.439 5.299-17.894l-15.31-108.869c-4.142-29.5-26.424-53.832-55.447-60.544l-62.521-14.46c-2.055-.475-3.489-2.281-3.489-4.393v-25.342c29.836-15.397 50.775-45.698 52.92-80.993 18.386-1.392 32.923-16.786 32.923-35.521 0-7.689-2.462-14.806-6.62-20.634h50.255c13.268.001 24.062-10.793 24.062-24.059zm-37.885 332.4 1.828 13h-60.819v-13zm-261.479 0v13h-60.819l1.828-13zm-63.484 50.468c-1.445-1.663-2.072-3.781-1.765-5.964l2.321-16.504h62.928v25.05h-57.816c-2.208 0-4.221-.917-5.668-2.582zm329.456 0c-1.447 1.665-3.46 2.582-5.668 2.582h-57.815v-25.05h62.928l2.321 16.504c.306 2.184-.321 4.302-1.766 5.964zm15.73-389.284c1.717 1.723 2.662 4.001 2.662 6.416 0 4.996-4.064 9.06-9.061 9.06h-61.729v-18.12h61.729c2.422 0 4.697.943 6.399 2.644zm-97.77 30.476v26.645c-8.447-8.478-13.701-17.216-16.078-26.645zm-38.464-15h-10.532v-14.195h10.532zm-63.639-33.95c0-10.506 8.547-19.053 19.053-19.053s19.053 8.547 19.053 19.053v4.755h-38.106zm0 19.755h38.106v14.195h-38.106zm-63.54 29.195h16.078c-2.377 9.428-7.632 18.167-16.078 26.645zm-32.468 20.634c0-10.297 7.59-18.831 17.463-20.365v40.73c-9.874-1.533-17.463-10.068-17.463-20.365zm160.113 160.863.685.159c-28.651 13.669-62.09 13.668-90.747-.001l.681-.158c8.897-2.057 15.111-9.873 15.111-19.007v-19.043c9.298 2.941 19.192 4.532 29.45 4.532 10.354 0 20.336-1.623 29.71-4.618v19.129c0 9.135 6.214 16.951 15.11 19.007zm-44.82-48.517c-45.673 0-82.83-37.153-82.83-82.82v-3.515c17.828-14.143 28.176-29.484 31.441-46.645h102.771c3.263 17.16 13.611 32.5 31.437 46.643v3.517c.001 45.667-37.152 82.82-82.819 82.82zm97.82-91.939v-40.813c10.006 1.418 17.734 10.016 17.734 20.406s-7.728 18.989-17.734 20.407z"/><path d="m257.461 473.748c17.431 0 31.612-14.182 31.612-31.613v-36.141c0-17.431-14.182-31.613-31.612-31.613h-19.477c-17.431 0-31.613 14.182-31.613 31.613v36.141c0 17.432 14.182 31.613 31.613 31.613zm-36.089-31.614v-36.141c0-9.16 7.453-16.613 16.613-16.613h19.477c9.16 0 16.612 7.453 16.612 16.613v36.141c0 9.161-7.452 16.613-16.612 16.613h-19.477c-9.16.001-16.613-7.452-16.613-16.613z"/><path d="m286.821 147.427c-4.143 0-7.5 3.358-7.5 7.5v11.326c0 4.142 3.357 7.5 7.5 7.5s7.5-3.358 7.5-7.5v-11.326c0-4.142-3.358-7.5-7.5-7.5z"/><path d="m208.625 147.427c-4.142 0-7.5 3.358-7.5 7.5v11.326c0 4.142 3.358 7.5 7.5 7.5s7.5-3.358 7.5-7.5v-11.326c0-4.142-3.358-7.5-7.5-7.5z"/><path d="m235.823 189.902c3.559 2.586 7.729 3.879 11.9 3.879 4.17 0 8.341-1.293 11.9-3.878 3.351-2.435 4.094-7.125 1.659-10.476s-7.125-4.093-10.476-1.66c-1.845 1.341-4.323 1.34-6.167 0-3.353-2.436-8.042-1.692-10.476 1.659s-1.691 8.042 1.66 10.476z"/><path d="m247.723 239.501c-8.835 0-17.671-3.233-24.556-9.698-3.02-2.835-3.168-7.582-.333-10.602 2.836-3.019 7.583-3.168 10.602-.333 8.012 7.524 20.564 7.524 28.576 0 3.02-2.836 7.767-2.686 10.601.333 2.836 3.02 2.687 7.766-.333 10.602-6.886 6.466-15.721 9.698-24.557 9.698z"/></g></g></svg>