<svg id="Capa_1" enable-background="new 0 0 512 512" height="512" viewBox="0 0 512 512" width="512" xmlns="http://www.w3.org/2000/svg"><g><g><path d="m378.923 156.322h-245.846v-26.321c0-67.655 54.845-122.501 122.501-122.501h.845c67.655 0 122.501 54.846 122.501 122.501v26.321z" fill="#ffc344"/><path d="m268.5 8.09c-61.99 6.06-110.42 58.33-110.42 121.91v26.32h-25v-26.32c0-67.65 54.84-122.5 122.5-122.5h.84c4.08 0 8.1.2 12.08.59z" fill="#feb137"/><path d="m364.895 324.257-62.52-14.462c-5.442-1.259-9.296-6.106-9.296-11.691v-58.468c0-6.627-5.373-12-12-12h-50.16c-6.627 0-12 5.373-12 12v58.468c0 5.586-3.854 10.432-9.296 11.691l-62.52 14.462c-26.208 6.062-45.974 27.642-49.718 54.28l-15.302 108.875c-1.269 9.026 5.739 17.088 14.854 17.088h318.127c9.115 0 16.123-8.062 14.854-17.088l-15.304-108.875c-3.745-26.638-23.511-48.217-49.719-54.28z" fill="#a2aee6"/><path d="m180.27 335.371-8.167 1.889c-26.2 6.06-45.97 27.64-49.71 54.28l-13.57 96.53c-1.05 7.47 3.58 14.33 10.44 16.43h-22.32c-9.12 0-16.13-8.06-14.86-17.09l15.31-108.87c3.74-26.64 23.51-48.22 49.71-54.28l16.526-3.822 12.892 6.35z" fill="#8795de"/><path d="m310.29 311.63-54.29 62.03-54.29-62.03 7.91-1.83c5.45-1.26 9.3-6.11 9.3-11.7v-58.46c0-6.63 5.37-12 12-12h50.16c6.63 0 12 5.37 12 12v58.46c0 5.59 3.85 10.44 9.3 11.7z" fill="#ffdfcf"/><path d="m281.08 227.64h-50.16c-6.627 0-12 5.373-12 12v58.463c0 5.588-3.856 10.438-9.3 11.697l-7.91 1.83.833 8.75 15.807 6.18 16.27-3.76c5.444-1.258 9.3-6.107 9.3-11.694v-11.338c0-2.367 2.038-4.219 4.392-3.978 2.045.21 4.497.3 7.688.3 13.21 0 25.77-2.84 37.08-7.94v-48.51c0-6.627-5.373-12-12-12z" fill="#ffcebf"/><path d="m350.789 184.379h-189.578c-15.538 0-28.135-12.596-28.135-28.135 0-15.538 12.596-28.135 28.135-28.135h189.577c15.538 0 28.135 12.596 28.135 28.135 0 15.539-12.596 28.135-28.134 28.135z" fill="#ffcebf"/><path d="m255.866 276.092c49.883 0 90.322-40.438 90.322-90.321v-57.661h-31.346c-1.793 0-3.368-1.194-3.852-2.921l-7.886-28.142c-.951-3.392-5.504-3.988-7.296-.955l-17.748 30.051c-.72 1.218-2.029 1.966-3.444 1.966h-17.5c-1.367 0-2.64-.698-3.374-1.852l-18.494-29.044c-1.541-2.42-5.053-2.479-6.674-.112l-20.049 29.268c-.746 1.089-1.98 1.739-3.3 1.739h-39.68v57.661c0 49.884 40.438 90.323 90.321 90.323z" fill="#ffeee6"/><path d="m268.37 275.22c-4.09.58-8.26.87-12.5.87-49.89 0-90.33-40.44-90.33-90.32v-57.66h25v57.66c0 45.64 33.86 83.38 77.83 89.45z" fill="#ffdfcf"/><path d="m348.37 320.44-75.01 67.31c-4.94 4.45-11.15 6.67-17.36 6.67s-12.41-2.22-17.36-6.67l-75.01-67.31 25.04-5.79 13.04-3.02 44.57 39.99c5.53 4.96 13.91 4.96 19.44 0l44.57-39.99 15.74 3.64z" fill="#f2fbff"/><path d="m218.35 326.56-38.08 8.81-16.64-14.93 25.04-5.79 13.04-3.02z" fill="#dff6fd"/></g><g><path d="m437.347 486.366-15.31-108.869c-4.142-29.5-26.424-53.831-55.448-60.545l-62.52-14.459c-2.055-.475-3.489-2.281-3.489-4.393v-25.342c29.834-15.398 50.772-45.697 52.918-80.99 11.724-.886 21.876-7.464 27.702-16.969 3.31-5.41 5.22-11.77 5.22-18.56v-26.239c0-71.68-58.32-130-130-130h-.84c-35.55 0-68.73 14.07-93.43 39.62-2.88 2.97-2.8 7.72.18 10.6 2.97 2.88 7.72 2.8 10.6-.18 21.85-22.59 51.21-35.04 82.65-35.04h.84c62.47 0 113.47 50.07 114.96 112.19-5.81-4.14-12.92-6.58-20.59-6.58l-33.294-.001-7.171-25.585c-1.244-4.443-5.005-7.701-9.579-8.3-4.573-.597-9.048 1.581-11.396 5.555l-16.731 28.331h-13.581l-17.463-27.424c-2.08-3.267-5.634-5.256-9.506-5.322-.066-.001-.132-.001-.197-.001-3.798 0-7.332 1.859-9.485 5.001l-19.007 27.746-42.169.001c-7.68 0-14.78 2.44-20.6 6.58.42-17.78 4.8-34.74 13.03-50.46 1.93-3.67.51-8.2-3.16-10.12s-8.2-.51-10.12 3.16c-9.67 18.45-14.78 39.28-14.78 60.23 0 0 .011 26.82.027 27.054.14 6.183 1.841 11.987 4.763 17.016 5.69 9.828 15.958 16.682 27.863 17.673 2.144 35.41 23.203 65.798 53.187 81.156v25.2c0 2.111-1.435 3.917-3.49 4.393l-62.521 14.46c-29.022 6.713-51.305 31.044-55.446 60.543l-15.31 108.87c-.908 6.453 1.022 12.975 5.297 17.893 4.276 4.92 10.469 7.742 16.99 7.742h318.119c6.521 0 12.714-2.822 16.99-7.742 4.274-4.919 6.205-11.441 5.297-17.893zm-65.927-330.126c0 10.394-7.724 18.996-17.732 20.412v-40.814c10.008 1.416 17.732 10.017 17.732 20.402zm-230.84 0c0-10.292 7.587-18.83 17.465-20.361v40.733c-9.878-1.532-17.465-10.071-17.465-20.372zm32.465 29.53v-50.161h32.18c3.798 0 7.345-1.871 9.487-5.001l17.055-24.897 15.649 24.576c2.122 3.333 5.749 5.323 9.7 5.323h17.5c4.048 0 7.843-2.166 9.902-5.652l13.576-22.989 5.673 20.242c1.385 4.945 5.938 8.399 11.074 8.399h23.846v50.161c0 45.668-37.153 82.822-82.821 82.822s-82.821-37.155-82.821-82.823zm82.821 97.822c10.356 0 20.339-1.623 29.714-4.619v19.127c0 7.151 3.819 13.48 9.741 16.884l-34.609 31.053c-2.688 2.41-6.737 2.41-9.423 0l-34.61-31.053c5.922-3.404 9.741-9.733 9.741-16.884v-19.04c9.297 2.941 19.189 4.532 29.446 4.532zm164.863 210.826c-1.447 1.665-3.461 2.582-5.669 2.582h-57.815v-78.87c0-4.142-3.357-7.5-7.5-7.5s-7.5 3.358-7.5 7.5v78.87h-172.489v-78.87c0-4.142-3.357-7.5-7.5-7.5s-7.5 3.358-7.5 7.5v78.87h-57.816c-2.208 0-4.222-.917-5.669-2.582-1.445-1.663-2.071-3.78-1.765-5.963l15.31-108.872c3.285-23.396 20.956-42.692 43.972-48.016l12.731-2.945 72.107 64.705c6.163 5.541 14.109 8.592 22.374 8.592 8.277 0 16.226-3.053 22.37-8.589l19.14-17.18c3.083-2.767 3.339-7.508.571-10.591s-7.508-3.339-10.591-.572l-19.149 17.189c-3.396 3.059-7.778 4.743-12.341 4.743-4.557 0-8.94-1.686-12.352-4.752l-64.273-57.675 20.226-4.678 41.671 37.388c4.198 3.766 9.462 5.648 14.728 5.648 5.265 0 10.53-1.883 14.729-5.649l41.67-37.388 20.226 4.678-18.772 16.845c-3.083 2.766-3.34 7.508-.573 10.591 1.481 1.651 3.528 2.491 5.585 2.491 1.783 0 3.574-.633 5.006-1.918l26.611-23.879 12.729 2.944c23.018 5.324 40.688 24.62 43.974 48.018l15.31 108.871c.305 2.184-.321 4.301-1.766 5.964z"/><path d="m295.098 170.521c4.143 0 7.5-3.358 7.5-7.5v-13.554c0-4.142-3.357-7.5-7.5-7.5s-7.5 3.358-7.5 7.5v13.554c0 4.142 3.357 7.5 7.5 7.5z"/><path d="m216.902 141.967c-4.143 0-7.5 3.358-7.5 7.5v13.554c0 4.142 3.357 7.5 7.5 7.5s7.5-3.358 7.5-7.5v-13.554c0-4.142-3.357-7.5-7.5-7.5z"/><path d="m243.1 189.903c3.56 2.585 7.729 3.878 11.9 3.878s8.341-1.292 11.9-3.878c3.351-2.435 4.094-7.125 1.66-10.476-2.435-3.351-7.125-4.093-10.477-1.66-1.844 1.34-4.324 1.34-6.168 0-3.352-2.434-8.042-1.691-10.477 1.66-2.432 3.351-1.689 8.041 1.662 10.476z"/><path d="m256 239.501c-8.836 0-17.671-3.233-24.556-9.698-3.02-2.835-3.169-7.582-.333-10.602 2.834-3.019 7.581-3.169 10.601-.333 8.012 7.524 20.564 7.524 28.576 0 3.02-2.836 7.767-2.686 10.601.333 2.836 3.02 2.687 7.766-.333 10.602-6.885 6.466-15.72 9.698-24.556 9.698z"/></g></g></svg>