<svg id="Capa_1" enable-background="new 0 0 512 512" height="512" viewBox="0 0 512 512" width="512" xmlns="http://www.w3.org/2000/svg"><g><g><path d="m256 504.5c-67.331 0-121.913-54.582-121.913-121.913v-253.174c0-67.331 54.582-121.913 121.913-121.913 67.331 0 121.913 54.582 121.913 121.913v253.174c0 67.331-54.582 121.913-121.913 121.913z" fill="#f2fbff"/><path d="m268.5 503.87c-4.11.42-8.28.63-12.5.63-67.33 0-121.91-54.58-121.91-121.91v-253.18c0-67.33 54.58-121.91 121.91-121.91 4.22 0 8.39.21 12.5.63-61.46 6.26-109.41 58.17-109.41 121.28v253.18c0 63.11 47.95 115.02 109.41 121.28z" fill="#dff6fd"/><path d="m256 233.894c42.407 0 76.784-34.377 76.784-76.784v-32.069c0-33.137-26.863-60-60-60h-33.567c-33.137 0-60 26.863-60 60v32.069c-.001 42.406 34.377 76.784 76.783 76.784z" fill="#ffeee6"/><path d="m268.5 232.87c-4.07.67-8.24 1.02-12.5 1.02-42.41 0-76.78-34.37-76.78-76.78v-32.07c0-33.14 26.86-60 60-60h25c-33.14 0-60 26.86-60 60v32.07c0 38.15 27.81 69.8 64.28 75.76z" fill="#ffdfcf"/><path d="m267.464 188.322h-22.927c-10.533 0-19.071-8.538-19.071-19.071 0-10.533 8.538-19.071 19.071-19.071h22.927c10.533 0 19.071 8.538 19.071 19.071 0 10.533-8.539 19.071-19.071 19.071z" fill="#fe93bb"/><circle cx="256" cy="190.489" fill="#f2fbff" r="13.49"/></g><g><path d="m347.505 37.908c-24.434-24.445-56.931-37.908-91.505-37.908-34.833 0-67.5 13.636-91.983 38.396-2.913 2.945-2.886 7.694.06 10.606s7.694 2.885 10.606-.06c21.644-21.887 50.523-33.942 81.317-33.942 30.566 0 59.295 11.901 80.897 33.514 21.611 21.611 33.513 50.341 33.513 80.896v81.321l-114.413 76.196-114.407-76.203v-81.314c0-18.607 4.564-37.062 13.199-53.37 1.938-3.661.542-8.2-3.119-10.138-3.659-1.939-8.198-.541-10.138 3.118-9.775 18.462-14.942 39.345-14.942 60.39v253.18c0 71.357 58.053 129.41 129.41 129.41s129.41-58.053 129.41-129.41v-253.18c0-34.562-13.462-67.058-37.905-91.502zm-105.038 258.03-100.877 67.182v-134.373zm13.533 201.062c-47.077 0-87.599-28.584-105.136-69.306l109.764-73.103c3.448-2.296 4.381-6.952 2.085-10.399-2.296-3.448-6.952-4.383-10.399-2.085l-106.587 70.987c-2.691-9.716-4.136-19.944-4.136-30.505v-1.448l228.82-152.389v34.701l-88.697 59.073c-3.448 2.296-4.381 6.952-2.085 10.399 1.445 2.17 3.824 3.344 6.249 3.344 1.428 0 2.873-.407 4.15-1.259l80.383-53.536v101.116c-.001 63.086-51.325 114.41-114.411 114.41z"/><path d="m340.284 157.11v-32.069c0-37.22-30.28-67.5-67.5-67.5h-33.567c-37.22 0-67.5 30.28-67.5 67.5v32.069c0 46.474 37.81 84.283 84.284 84.283s84.283-37.809 84.283-84.283zm-153.568 0v-32.069c0-28.948 23.551-52.5 52.5-52.5h33.567c28.949 0 52.5 23.552 52.5 52.5v32.069c0 38.203-31.081 69.283-69.284 69.283s-69.283-31.08-69.283-69.283z"/><path d="m288.805 132.985c4.142 0 7.5-3.357 7.5-7.5v-11.372c0-4.143-3.358-7.5-7.5-7.5s-7.5 3.357-7.5 7.5v11.372c0 4.143 3.358 7.5 7.5 7.5z"/><path d="m230.695 125.485v-11.372c0-4.143-3.358-7.5-7.5-7.5s-7.5 3.357-7.5 7.5v11.372c0 4.143 3.358 7.5 7.5 7.5s7.5-3.357 7.5-7.5z"/><path d="m256 211.479c10.312 0 18.892-7.482 20.644-17.299 3.581-1.322 6.872-3.411 9.61-6.147 5.014-5.015 7.776-11.686 7.776-18.783 0-14.651-11.919-26.57-26.57-26.57h-22.92c-7.097 0-13.771 2.765-18.794 7.787-5.014 5.015-7.776 11.686-7.776 18.783 0 11.441 7.128 21.218 17.388 24.949 1.76 9.808 10.336 17.28 20.642 17.28zm0-15c-3.303 0-5.99-2.688-5.99-5.99s2.687-5.989 5.99-5.989 5.99 2.687 5.99 5.989-2.687 5.99-5.99 5.99zm-19.647-35.406c2.189-2.188 5.097-3.394 8.188-3.394h22.92c6.379 0 11.57 5.19 11.57 11.57 0 3.092-1.202 5.995-3.382 8.177-.627.627-1.326 1.168-2.068 1.631-3.749-5.745-10.223-9.558-17.58-9.558-7.367 0-13.848 3.823-17.594 9.582-3.29-2.043-5.435-5.686-5.435-9.832-.002-3.091 1.2-5.994 3.381-8.176z"/></g></g></svg>