<svg id="Capa_1" enable-background="new 0 0 512 512" height="512" viewBox="0 0 512 512" width="512" xmlns="http://www.w3.org/2000/svg"><g><g><path d="m177.993 280.003-10.598 5.26c-3.524 1.749-7.775-.082-8.926-3.844l-.592-1.936c-1.232-4.029-5.966-5.774-9.519-3.509l-17.721 11.298c-4.262 2.717-9.84-.372-9.797-5.427l.117-13.869c.042-4.969-5.363-8.074-9.631-5.529-.089.053-.179.107-.269.161-4.403 2.625-9.947-.755-9.626-5.871l1.666-26.49c.605-9.637 3.677-18.244 8.459-25.442 15.004-22.585 46.83-31.307 72.075-14.536 33.288 22.114 30.149 71.967-5.638 89.734z" fill="#7a6d79"/><path d="m145.96 267.98-.08 9.57-15.24 9.72c-4.26 2.72-9.84-.37-9.8-5.42l.12-13.87c.04-4.97-5.37-8.08-9.63-5.53-.09.05-.18.1-.27.16-4.41 2.62-9.95-.76-9.63-5.87l1.67-26.49c.6-9.64 3.67-18.25 8.46-25.44 11.93-17.97 34.51-27.16 55.95-21.73-12.49 3.12-23.69 10.8-30.95 21.73-4.79 7.19-7.86 15.8-8.46 25.44l-1.67 26.49c-.32 5.11 5.22 8.49 9.63 5.87.09-.06.18-.11.27-.16 4.26-2.55 9.67.56 9.63 5.53z" fill="#685e68"/><path d="m334.007 280.003 10.598 5.26c3.524 1.749 7.775-.082 8.926-3.844l.592-1.936c1.232-4.029 5.966-5.774 9.519-3.509l17.721 11.298c4.262 2.717 9.84-.372 9.797-5.427l-.117-13.869c-.042-4.969 5.363-8.074 9.631-5.529.089.053.179.107.269.161 4.403 2.625 9.947-.755 9.626-5.871l-1.666-26.49c-.605-9.637-3.677-18.244-8.459-25.442-15.004-22.585-46.83-31.307-72.075-14.536-33.288 22.114-30.149 71.967 5.638 89.734z" fill="#7a6d79"/><path d="m378.923 156.835h-245.846v-26.834c0-67.655 54.845-122.501 122.501-122.501h.845c67.655 0 122.501 54.846 122.501 122.501v26.834z" fill="#7a6d79"/><path d="m268.5 8.09c-61.99 6.06-110.42 58.33-110.42 121.91v26.84h-25v-26.84c0-67.65 54.84-122.5 122.5-122.5h.84c4.08 0 8.1.2 12.08.59z" fill="#685e68"/><path d="m364.895 324.257-62.52-14.462c-5.442-1.259-9.296-6.106-9.296-11.691v-58.468c0-6.627-5.373-12-12-12h-50.16c-6.627 0-12 5.373-12 12v58.468c0 5.586-3.854 10.432-9.296 11.691l-62.52 14.462c-26.208 6.062-45.974 27.642-49.718 54.28l-15.302 108.875c-1.269 9.026 5.739 17.088 14.854 17.088h318.127c9.115 0 16.123-8.062 14.854-17.088l-15.304-108.875c-3.745-26.638-23.511-48.217-49.719-54.28z" fill="#cb97e7"/><path d="m214.981 327.343-42.878 9.917c-26.2 6.06-45.97 27.64-49.71 54.28l-13.57 96.53c-1.05 7.47 3.58 14.33 10.44 16.43h-22.32c-9.12 0-16.13-8.06-14.86-17.09l15.31-108.87c3.74-26.64 23.51-48.22 49.71-54.28l43.518-10.065 20.411 4.816z" fill="#bd80e1"/><path d="m321.38 314.19c-39.14 27.82-91.62 27.82-130.76 0l19-4.39c5.45-1.26 9.3-6.11 9.3-11.7v-58.46c0-6.63 5.37-12 12-12h50.16c6.63 0 12 5.37 12 12v58.46c0 5.59 3.85 10.44 9.3 11.7z" fill="#ffbd86"/><path d="m281.08 227.64h-50.16c-6.627 0-12 5.373-12 12v58.46c0 5.59-3.85 10.44-9.3 11.7l-19 4.39c7.67 5.45 15.86 9.84 24.36 13.15l19.635-4.539c5.447-1.259 9.305-6.11 9.305-11.701v-11.486c0-2.43 2.143-4.298 4.55-3.959 2.046.288 4.464.435 7.53.435 13.21 0 25.77-2.84 37.08-7.94v-48.51c0-6.627-5.373-12-12-12z" fill="#f6a96c"/><path d="m349.74 426.41v78.09h-187.48v-78.09c0-5.42 1.48-10.73 4.29-15.36l50.35-82.98c25.21 9.31 52.99 9.31 78.2 0l50.35 82.98c2.81 4.63 4.29 9.94 4.29 15.36z" fill="#f47c7c"/><path d="m350.789 184.379h-189.578c-15.538 0-28.135-12.596-28.135-28.135 0-15.538 12.596-28.135 28.135-28.135h189.577c15.538 0 28.135 12.596 28.135 28.135 0 15.539-12.596 28.135-28.134 28.135z" fill="#f6a96c"/><path d="m255.866 276.092c49.883 0 90.322-38.938 90.322-86.971v-66.944c0-11.061-8.967-20.028-20.028-20.028-1.762 0-3.434.774-4.574 2.117l-13.276 15.642c-1.624 1.914-4.589 1.876-6.164-.078l-12.451-15.447c-1.139-1.413-2.856-2.235-4.671-2.235h-37.807c-2.673 0-5.024 1.769-5.765 4.337l-4.166 14.441c-.918 3.183-5.087 3.934-7.058 1.272l-13.045-17.62c-1.132-1.528-2.921-2.43-4.822-2.43h-26.787c-11.061 0-20.028 8.967-20.028 20.028v66.944c-.001 48.033 40.437 86.972 90.32 86.972z" fill="#fed2a4"/><path d="m268.37 275.26c-4.09.55-8.26.83-12.5.83-49.89 0-90.33-38.94-90.33-86.97v-66.94c0-11.06 8.97-20.03 20.03-20.03h25c-11.06 0-20.03 8.97-20.03 20.03v66.94c0 43.95 33.86 80.28 77.83 86.14z" fill="#ffbd86"/><path d="m90.28 429.13h71.98v32.18h-76.51z" fill="#f79595"/><path d="m117.11 429.13-4.53 32.18h-26.83l4.53-32.18z" fill="#f47c7c"/><path d="m426.25 461.31h-76.51v-32.18h71.98z" fill="#f79595"/></g><g><path d="m437.347 486.366-15.31-108.869c-4.142-29.5-26.424-53.831-55.446-60.544l-62.521-14.46c-2.055-.475-3.489-2.281-3.489-4.393v-24.97c2.877-1.434 5.67-3.003 8.374-4.697 5.567 7.684 12.953 13.93 21.722 18.285l10.596 5.257c3.651 1.816 7.898 1.934 11.649.321s6.587-4.778 7.785-8.695l.154-.508 16.464 10.498c2.271 1.451 4.864 2.181 7.463 2.181 2.307 0 4.619-.576 6.715-1.735 4.455-2.464 7.198-7.157 7.158-12.252l-.104-11.978c4.147 1.852 8.953 1.568 12.889-.837 4.399-2.688 6.933-7.554 6.611-12.702l-1.674-26.539c-.058-.834-.116-1.646-.208-2.468-.458-4.117-4.161-7.077-8.283-6.625-4.116.458-7.083 4.166-6.625 8.283.068.618.109 1.226.149 1.803l1.544 24.488c-3.981-1.739-8.603-1.52-12.432.67-4.35 2.489-7.027 7.149-6.987 12.166l.103 11.785-15.975-10.187c-3.682-2.344-8.145-2.825-12.242-1.316-4.1 1.508-7.188 4.77-8.481 8.971l-.197.649-9.401-4.665c-6.612-3.284-12.165-7.986-16.325-13.761 19.402-16.765 31.859-40.876 32.627-67.762 3.447-.275 6.758-1.036 9.861-2.226 9.24 1.388 17.936 5.678 24.658 12.199 1.457 1.414 3.341 2.117 5.222 2.117 1.958 0 3.913-.762 5.384-2.278 2.885-2.973 2.812-7.721-.16-10.605-5.703-5.533-12.476-9.849-19.82-12.743 1.699-2.162 3.168-4.512 4.337-7.034 2.11-4.55 3.29-9.62 3.29-14.95v-26.24c0-71.68-58.31-130-130-130h-.84c-71.69 0-130 58.32-130 130v26.24c0 4.67.91 9.14 2.55 13.23 1.272 3.174 2.997 6.116 5.079 8.765-11.276 4.466-21.166 12.291-27.891 22.417-5.693 8.546-9.049 18.619-9.704 29.126l-1.67 26.494c-.321 5.144 2.212 10.009 6.611 12.698 3.935 2.405 8.741 2.688 12.889.837l-.104 11.983c-.04 5.09 2.703 9.783 7.158 12.247 2.097 1.159 4.408 1.735 6.716 1.735 2.598 0 5.189-.73 7.458-2.179l16.468-10.5.158.521c1.194 3.904 4.03 7.069 7.781 8.682 3.75 1.613 7.995 1.496 11.645-.318l10.6-5.259c8.726-4.329 16.085-10.535 21.643-18.167 2.728 1.701 5.548 3.276 8.453 4.712v24.836c0 2.111-1.435 3.917-3.49 4.393l-62.521 14.46c-29.022 6.713-51.305 31.044-55.446 60.543l-15.31 108.87c-.908 6.453 1.022 12.975 5.297 17.893 4.276 4.92 10.469 7.742 16.99 7.742h318.118c6.521 0 12.714-2.822 16.99-7.742 4.274-4.919 6.205-11.441 5.297-17.893zm-80.103-49.736h57.961l2.416 17.18h-60.377zm49.94-57.046 5.913 42.045h-56.17c-.664-5.107-2.377-10.039-5.067-14.473l-45.8-75.482c5.792-2.659 11.426-5.803 16.845-9.43l40.306 9.322c23.017 5.325 40.687 24.621 43.973 48.018zm-68.496-190.463c0 43.82-37.153 79.471-82.821 79.471s-82.821-35.651-82.821-79.471v-66.944c0-6.908 5.62-12.528 12.527-12.528h26.031l12.597 17.012c2.622 3.542 6.947 5.256 11.281 4.475 4.337-.782 7.789-3.897 9.01-8.13l3.854-13.357h35.961l12.001 14.889c2.158 2.678 5.369 4.238 8.808 4.282.05 0 .099.001.147.001 3.385 0 6.572-1.474 8.766-4.059l12.812-15.095c6.593.354 11.848 5.83 11.848 12.51v66.944zm32.732-32.881c0 10.394-7.724 18.996-17.732 20.412v-40.814c10.008 1.416 17.732 10.017 17.732 20.402zm-115.84-141.24h.84c62.47 0 113.47 50.07 114.96 112.19-5.081-3.621-11.156-5.941-17.731-6.466-.758-14.506-12.797-26.075-27.489-26.075-3.972 0-7.724 1.737-10.292 4.765l-10.539 12.416-9.796-12.154c-2.576-3.194-6.407-5.026-10.51-5.026h-37.808c-5.979 0-11.312 4.012-12.971 9.758l-2.203 7.638-8.831-11.927c-2.534-3.424-6.591-5.469-10.852-5.469h-26.787c-14.7 0-26.746 11.583-27.491 26.102-6.471.567-12.45 2.868-17.462 6.439 1.492-62.121 52.492-112.191 114.962-112.191zm-115 141.24c0-10.292 7.587-18.83 17.465-20.361v40.733c-9.878-1.532-17.465-10.071-17.465-20.372zm34.076 117.042-9.403 4.666-.205-.673c-1.285-4.177-4.374-7.438-8.474-8.947-4.098-1.509-8.561-1.028-12.246 1.319l-15.971 10.184.103-11.79c.04-5.012-2.638-9.672-6.987-12.161-3.827-2.19-8.451-2.409-12.432-.67l1.544-24.493c.498-7.991 2.926-15.308 7.223-21.757 6.918-10.418 18.314-17.577 30.74-19.423 3.007 1.148 6.204 1.905 9.536 2.196.762 26.975 13.292 51.158 32.797 67.934-4.148 5.709-9.666 10.361-16.225 13.615zm51.764 24.818v-18.885c9.297 2.84 19.189 4.377 29.446 4.377 10.356 0 20.339-1.568 29.714-4.461v18.969c0 9.135 6.214 16.951 15.109 19.007l.708.164c-28.718 13.76-62.076 13.76-90.794 0l.707-.164c8.896-2.056 15.11-9.872 15.11-19.007zm-77.63 33.467 40.305-9.322c5.419 3.627 11.052 6.771 16.844 9.43l-15.422 25.415c-2.148 3.541-1.02 8.154 2.521 10.302 1.216.738 2.558 1.089 3.884 1.089 2.534 0 5.008-1.285 6.419-3.61l16.834-27.741c11.662 3.65 23.742 5.489 35.825 5.489s24.162-1.839 35.824-5.489l47.211 77.808c2.1 3.46 3.209 7.428 3.209 11.475v70.587h-172.484v-70.59c0-4.051 1.107-8.018 3.202-11.47l11.96-19.71c2.148-3.541 1.02-8.154-2.521-10.303-3.54-2.147-8.153-1.021-10.303 2.521l-11.96 19.71c-2.688 4.429-4.399 9.361-5.061 14.471h-56.173l5.913-42.047c3.285-23.395 20.955-42.691 43.973-48.015zm-51.996 105.063h57.965v17.18h-60.38zm-5.523 57.788c-1.445-1.663-2.071-3.78-1.765-5.963l2.762-19.645h62.49v28.19h-57.818c-2.208 0-4.221-.917-5.669-2.582zm329.458 0c-1.447 1.665-3.461 2.582-5.669 2.582h-57.815v-28.19h62.487l2.762 19.645c.306 2.183-.32 4.3-1.765 5.963z"/><path d="m295.098 141.967c-4.143 0-7.5 3.358-7.5 7.5v13.554c0 4.142 3.357 7.5 7.5 7.5s7.5-3.358 7.5-7.5v-13.554c0-4.142-3.358-7.5-7.5-7.5z"/><path d="m216.902 141.967c-4.143 0-7.5 3.358-7.5 7.5v13.554c0 4.142 3.357 7.5 7.5 7.5s7.5-3.358 7.5-7.5v-13.554c0-4.142-3.357-7.5-7.5-7.5z"/><path d="m244.1 189.903c3.56 2.585 7.729 3.878 11.9 3.878s8.341-1.292 11.9-3.878c3.351-2.435 4.094-7.125 1.66-10.476-2.435-3.351-7.125-4.093-10.477-1.66-1.844 1.34-4.324 1.34-6.168 0-3.352-2.434-8.042-1.691-10.477 1.66-2.432 3.351-1.689 8.041 1.662 10.476z"/><path d="m256 239.501c-8.836 0-17.671-3.233-24.556-9.698-3.02-2.835-3.169-7.582-.333-10.602 2.834-3.019 7.581-3.169 10.601-.333 8.012 7.524 20.564 7.524 28.576 0 3.02-2.836 7.767-2.686 10.601.333 2.836 3.02 2.687 7.766-.333 10.602-6.885 6.466-15.72 9.698-24.556 9.698z"/></g></g></svg>