<svg id="Capa_1" enable-background="new 0 0 512 512" height="512" viewBox="0 0 512 512" width="512" xmlns="http://www.w3.org/2000/svg"><g><g><path d="m181.566 7.5c-67.889 0-122.924 55.035-122.924 122.923v126.115c0 10.799 8.754 19.553 19.553 19.553h206.74c10.799 0 19.553-8.754 19.553-19.553v-126.115c.001-67.888-55.034-122.923-122.922-122.923z" fill="#ffc344"/><path d="m83.645 130.42v126.12c0 10.8 8.75 19.55 19.55 19.55h-25c-10.8 0-19.55-8.75-19.55-19.55v-126.12c0-67.89 55.03-122.92 122.92-122.92 4.22 0 8.39.21 12.5.62-62.02 6.27-110.42 58.63-110.42 122.3z" fill="#feb137"/><path d="m290.461 324.257-62.52-14.462c-5.442-1.259-9.296-6.106-9.296-11.691v-58.468c0-6.627-5.373-12-12-12h-50.16c-6.627 0-12 5.373-12 12v58.468c0 5.586-3.854 10.432-9.296 11.691l-62.52 14.462c-26.208 6.062-45.974 27.642-49.718 54.28l-15.303 108.875c-1.268 9.026 5.74 17.088 14.854 17.088h318.127c9.115 0 16.123-8.062 14.854-17.088l-15.304-108.875c-3.744-26.638-23.51-48.217-49.718-54.28z" fill="#f79595"/><path d="m113.975 333.489-16.307 3.771c-26.2 6.06-45.97 27.64-49.71 54.28l-13.57 96.53c-1.05 7.47 3.58 14.33 10.44 16.43h-22.32c-9.12 0-16.13-8.06-14.86-17.09l15.31-108.87c3.74-26.64 23.51-48.22 49.71-54.28l35.287-8.161 11.262 7.51z" fill="#f47c7c"/><path d="m255.175 316.1c-.93 17.58-15.48 31.54-33.28 31.54h-80.66c-17.8 0-32.35-13.96-33.28-31.54l27.23-6.3c5.45-1.26 9.3-6.11 9.3-11.7v-58.46c0-6.63 5.37-12 12-12h50.16c6.63 0 12 5.37 12 12v58.46c0 5.59 3.85 10.44 9.3 11.7z" fill="#ffdfcf"/><path d="m206.645 227.64h-50.16c-6.627 0-12 5.373-12 12v58.46c0 5.59-3.85 10.44-9.3 11.7l-27.23 6.3c.35 6.46 2.52 12.42 6.02 17.39l46.21-10.69c5.45-1.26 9.3-6.11 9.3-11.7v-11.357c0-2.356 2.023-4.177 4.371-3.978 2.541.215 5.112.326 7.709.326 13.21 0 25.77-2.84 37.08-7.94v-48.51c0-6.628-5.372-12.001-12-12.001z" fill="#ffcebf"/><path d="m276.354 184.379h-189.577c-15.538 0-28.135-12.596-28.135-28.135 0-15.538 12.596-28.135 28.135-28.135h189.577c15.538 0 28.135 12.596 28.135 28.135 0 15.539-12.596 28.135-28.135 28.135z" fill="#ffcebf"/><path d="m91.244 128.452v57.318c0 49.883 40.438 90.321 90.321 90.321 49.883 0 90.321-40.438 90.321-90.321v-59.4c0-6.611-4.719-12.309-11.227-13.471-19.788-3.534-35.179-10.021-43.252-21.424-2.732-3.859-8.117-5.113-12.191-2.716-29.069 17.106-62.606 25.638-100.399 26.001-7.463.072-13.573 6.229-13.573 13.692z" fill="#ffeee6"/><path d="m194.065 275.22c-4.09.58-8.26.87-12.5.87-49.88 0-90.32-40.44-90.32-90.32v-57.32c0-7.46 6.11-13.62 13.57-13.69 6.85-.07 13.56-.4 20.13-1.01-5.1 1.99-8.7 6.97-8.7 12.77v59.25c0 45.64 33.86 83.37 77.82 89.45z" fill="#ffdfcf"/><path d="m164.065 347.638h35v156.862h-35z" fill="#f2fbff"/><path d="m321.306 497.02c-39.859-18.587-57.104-65.966-38.517-105.825l69.888-149.876c18.587-39.859 65.966-57.104 105.825-38.517 39.859 18.587 57.104 65.966 38.517 105.825l-69.888 149.876c-18.587 39.859-65.966 57.104-105.825 38.517z" fill="#f2fbff"/><path d="m396.006 336.825c25.104 11.706 54.945.845 66.651-24.259l8.853-18.985c9.147-19.617.66-42.935-18.956-52.082l-19.871-9.266c-19.617-9.147-42.935-.66-52.082 18.956l-8.853 18.985c-11.707 25.104-.846 54.944 24.258 66.651z" fill="#ffeee6"/><path d="m305.446 401.761 69.888-149.876c16.789-36.004 57.069-53.548 94.08-42.908-3.42-2.303-7.058-4.377-10.913-6.175-39.859-18.586-87.238-1.342-105.825 38.517l-69.888 149.876c-18.586 39.859-1.342 87.238 38.517 105.825 3.855 1.798 7.781 3.251 11.745 4.391-31.94-21.513-44.392-63.647-27.604-99.65z" fill="#dff6fd"/><path d="m394.405 280.739 8.853-18.985c8.929-19.149 31.361-27.684 50.672-19.571-.454-.234-.909-.467-1.376-.685l-19.871-9.266c-19.617-9.147-42.935-.661-52.082 18.956l-8.853 18.985c-11.706 25.104-.845 54.945 24.259 66.651 3.911 1.824 7.938 3.099 11.993 3.859-17.276-14.184-23.477-38.751-13.595-59.944z" fill="#ffdfcf"/><path d="m427.638 400.608 12.815-27.483c4.347-9.322 15.427-13.355 24.749-9.008l6.278 2.927c9.322 4.347 13.355 15.427 9.008 24.749l-12.815 27.483c-4.347 9.322-15.427 13.355-24.749 9.008l-6.278-2.927c-9.322-4.347-13.354-15.427-9.008-24.749z" fill="#ffeee6"/></g><g><path d="m511.998 275.03c0-33.749-19.756-64.769-50.331-79.028-43.547-20.297-95.491-1.391-115.785 42.148l-39.116 83.884c-4.663-2.2-9.547-3.907-14.606-5.081l-62.521-14.461c-2.055-.475-3.489-2.28-3.489-4.392v-14.51h58.79c14.915 0 27.05-12.135 27.05-27.05v-18.92c0-4.143-3.357-7.5-7.5-7.5s-7.5 3.357-7.5 7.5v18.92c0 6.645-5.405 12.05-12.05 12.05h-51.374c25.917-16.33 43.669-44.479 45.635-76.823 6.594-.523 12.688-2.85 17.789-6.484v17.307c0 4.143 3.357 7.5 7.5 7.5s7.5-3.357 7.5-7.5v-72.17c-.002-71.914-58.508-130.42-130.422-130.42s-130.42 58.506-130.42 130.42v126.12c0 14.915 12.135 27.05 27.05 27.05h58.79v14.511c0 2.111-1.435 3.917-3.49 4.393l-62.52 14.46c-29.023 6.713-51.306 31.044-55.446 60.542l-15.31 108.87c-.907 6.454 1.023 12.976 5.298 17.894 4.276 4.919 10.469 7.74 16.989 7.74h318.12c1.665 0 3.31-.18 4.909-.535 3.128.339 6.271.509 9.415.509 11.766 0 23.544-2.381 34.572-7.15 3.802-1.645 5.552-6.059 3.907-9.86-1.644-3.803-6.056-5.553-9.86-3.907-18.898 8.173-40.438 7.869-59.094-.833-17.463-8.145-30.711-22.601-37.302-40.706-.758-2.083-1.406-4.188-1.968-6.305l136.662-21.742c2.256 3.946 5.555 7.335 9.727 9.707l-11.267 24.155c-2.735 5.869-6.23 11.327-10.389 16.223-2.682 3.156-2.297 7.89.86 10.571 1.41 1.198 3.136 1.784 4.852 1.784 2.125 0 4.236-.897 5.72-2.645 5.027-5.918 9.251-12.512 12.552-19.595l11.517-24.691c1.76.372 3.546.564 5.336.563 3.013 0 6.034-.527 8.949-1.589 6.558-2.387 11.793-7.184 14.741-13.508l12.815-27.482c5.222-11.198 1.788-24.245-7.532-31.573l24.063-51.59c5.431-11.639 8.184-24.011 8.184-36.771zm-185.38 39.924 36.618 60.131-69.602 10.603zm-26.192 20.674-24.435 52.401c-5.118 10.972-7.831 22.641-8.156 34.391l-.026.031v1.368c-.009.793-.013 1.585 0 2.378v.804 69.999h-61.242v-141.859h15.33c18.705 0 34.575-12.6 39.351-29.941l27.524 6.366c4.037.937 7.935 2.302 11.654 4.062zm-108.859 19.513v141.859h-20v-141.859zm72.822-169.37c0 45.668-37.153 82.821-82.821 82.821s-82.821-37.153-82.821-82.821v-57.317c0-3.324 2.814-6.16 6.145-6.192 39.249-.377 74.284-9.473 104.132-27.036.214-.126.468-.186.729-.186.575 0 1.192.284 1.537.771 8.666 12.241 24.385 20.246 48.054 24.472 2.924.522 5.046 3.083 5.046 6.089v59.399zm15-9.141v-40.772c9.923 1.471 17.571 10.009 17.6 20.328v.116c-.03 10.319-7.678 18.857-17.6 20.328zm-97.821-161.63c62.561 0 113.654 50.033 115.372 112.187-5.242-3.724-11.524-6.068-18.323-6.496-2.126-7.692-8.474-13.715-16.637-15.174-19.597-3.499-32.174-9.51-38.449-18.375-5.008-7.069-14.723-9.196-22.116-4.845-27.555 16.214-60.079 24.613-96.669 24.964-8.831.086-16.392 5.643-19.49 13.406-7.083.301-13.63 2.671-19.06 6.531 1.713-62.159 52.808-112.198 115.372-112.198zm-115.42 141.321v-.154c.038-10.31 7.681-18.838 17.598-20.309v40.772c-9.916-1.471-17.559-9.999-17.598-20.309zm0 100.219v-71.256c5.099 3.633 11.194 5.945 17.786 6.469 1.962 32.351 19.715 60.505 45.636 76.837h-51.372c-6.644 0-12.05-5.405-12.05-12.05zm70.73 60.567c8.896-2.057 15.11-9.872 15.11-19.007v-19.084c9.336 2.968 19.273 4.575 29.579 4.575 10.307 0 20.245-1.607 29.581-4.576v19.084c0 9.135 6.214 16.95 15.109 19.006l20.363 4.71c-3.219 10.652-13.11 18.324-24.723 18.324h-80.66c-11.614 0-21.504-7.672-24.723-18.324zm-120.037 177.312c-1.445-1.663-2.072-3.781-1.766-5.964l15.311-108.872c3.284-23.396 20.956-42.691 43.974-48.017l27.528-6.367c4.775 17.341 20.645 29.941 39.35 29.941h15.33v141.86h-61.245v-78.87c0-4.143-3.357-7.5-7.5-7.5s-7.5 3.357-7.5 7.5v78.87h-57.814c-2.208 0-4.221-.917-5.668-2.581zm289.269 2.581h-23.301v-23.239-.003c6.187 9.161 14.075 17.023 23.301 23.242zm-19.538-95.065 142.279-21.673-8.01 17.177c-1.419 3.042-2.191 6.222-2.388 9.386l-135.567 21.568c-.451-8.927.79-17.875 3.686-26.458zm187.119-13.311-12.816 27.483c-1.255 2.692-3.484 4.735-6.276 5.751s-5.812.885-8.506-.372l-6.277-2.926c-2.692-1.256-4.735-3.485-5.752-6.277-1.016-2.792-.884-5.812.371-8.505l12.816-27.483c1.255-2.692 3.484-4.735 6.276-5.751 1.241-.452 2.527-.677 3.811-.677 1.603 0 3.199.351 4.695 1.049l6.277 2.926c2.692 1.256 4.735 3.485 5.752 6.277 1.016 2.792.884 5.813-.371 8.505zm16.531-83.164-23.81 51.048c-5.807-2.165-12.128-2.204-18.015-.06-4.184 1.523-7.821 4.034-10.677 7.29l-58.412 8.898-45.073-74.015 25.242-54.132c16.801-36.043 59.798-51.696 95.852-34.893 25.313 11.806 41.67 37.489 41.67 65.434-.001 10.553-2.281 20.79-6.777 30.43z"/><path d="m455.723 234.702-19.871-9.266c-11.303-5.271-23.981-5.824-35.702-1.56-11.72 4.266-21.076 12.84-26.347 24.143l-8.853 18.984c-13.436 28.812-.926 63.183 27.886 76.618 7.859 3.665 16.129 5.398 24.276 5.398 21.726 0 42.571-12.332 52.342-33.285l8.853-18.984c5.271-11.303 5.825-23.982 1.559-35.702-4.266-11.719-12.841-21.075-24.143-26.346zm8.99 55.709-8.853 18.984c-9.94 21.316-35.371 30.569-56.685 20.633-21.315-9.94-30.571-35.369-20.632-56.685l8.853-18.984c3.578-7.672 9.929-13.492 17.884-16.387 7.953-2.895 16.56-2.519 24.231 1.058l19.871 9.266c7.673 3.578 13.492 9.929 16.388 17.884 2.896 7.954 2.52 16.559-1.057 24.231z"/><path d="m448.501 272.137c-3.752-1.751-8.216-.127-9.967 3.627l-1.963 4.209c-1.751 3.754-.127 8.217 3.627 9.967 1.025.479 2.104.705 3.165.705 2.824 0 5.529-1.604 6.802-4.332l1.963-4.209c1.751-3.754.127-8.217-3.627-9.967z"/><path d="m403.516 272.834c1.025.479 2.104.705 3.165.705 2.824 0 5.529-1.604 6.802-4.332l1.963-4.209c1.751-3.754.127-8.217-3.627-9.967-3.752-1.751-8.216-.127-9.967 3.627l-1.963 4.209c-1.751 3.754-.127 8.217 3.627 9.967z"/><path d="m418.369 299.661c-.068.002-.137.002-.206.002-3.149 0-6.079-1.398-8.063-3.857-2.602-3.222-7.321-3.729-10.547-1.127-3.224 2.601-3.728 7.323-1.127 10.547 4.854 6.017 12.022 9.438 19.729 9.438.167 0 .335-.002.503-.005 4.142-.08 7.434-3.502 7.354-7.644-.079-4.141-3.517-7.415-7.643-7.354z"/><path d="m220.665 141.968c-4.143 0-7.5 3.357-7.5 7.5v13.554c0 4.143 3.357 7.5 7.5 7.5s7.5-3.357 7.5-7.5v-13.554c0-4.143-3.357-7.5-7.5-7.5z"/><path d="m142.47 141.968c-4.143 0-7.5 3.357-7.5 7.5v13.554c0 4.143 3.357 7.5 7.5 7.5s7.5-3.357 7.5-7.5v-13.554c0-4.143-3.358-7.5-7.5-7.5z"/><path d="m169.667 189.902c3.56 2.586 7.729 3.879 11.9 3.879 4.17 0 8.342-1.293 11.9-3.879 3.352-2.435 4.094-7.125 1.659-10.476-2.435-3.352-7.123-4.095-10.476-1.659-1.846 1.338-4.322 1.34-6.166 0-3.348-2.434-8.04-1.693-10.477 1.658-2.433 3.351-1.691 8.042 1.66 10.477z"/><path d="m181.567 239.501c-8.836 0-17.671-3.232-24.556-9.698-3.02-2.835-3.169-7.581-.333-10.601 2.833-3.02 7.581-3.169 10.601-.333 8.012 7.523 20.564 7.523 28.576 0 3.02-2.836 7.767-2.687 10.601.333 2.836 3.02 2.687 7.766-.333 10.601-6.885 6.466-15.72 9.698-24.556 9.698z"/></g></g></svg>