<svg id="Capa_1" enable-background="new 0 0 512 512" height="512" viewBox="0 0 512 512" width="512" xmlns="http://www.w3.org/2000/svg"><g><g><path d="m290.463 324.257-62.52-14.462c-5.442-1.259-9.296-6.106-9.296-11.691v-58.468c0-6.627-5.373-12-12-12h-50.16c-6.627 0-12 5.373-12 12v58.468c0 5.586-3.854 10.432-9.296 11.691l-62.52 14.462c-26.208 6.062-45.974 27.642-49.718 54.28l-15.303 108.875c-1.268 9.026 5.74 17.088 14.854 17.088h318.127c9.115 0 16.123-8.062 14.854-17.088l-15.304-108.875c-3.744-26.638-23.51-48.217-49.718-54.28z" fill="#7a6d79"/><path d="m169.491 227.64v83.46c0 5.59-3.85 10.44-9.3 11.7l-62.52 14.46c-26.2 6.06-45.97 27.64-49.71 54.28l-13.57 96.53c-1.05 7.47 3.58 14.33 10.44 16.43h-22.321c-9.12 0-16.13-8.06-14.86-17.09l15.31-108.87c3.74-26.64 23.51-48.22 49.71-54.28l62.52-14.46c5.45-1.26 9.3-6.11 9.3-11.7v-58.46c0-6.63 5.37-12 12-12z" fill="#685e68"/><path d="m247.747 314.38-57.158 35.12h-17.609l-51.803-36.46 14.01-3.24c5.45-1.26 9.3-6.11 9.3-11.7v-58.46c0-6.63 5.37-12 12-12h50.16c6.63 0 12 5.37 12 12v58.46c0 5.59 3.85 10.44 9.3 11.7z" fill="#ffdfcf"/><path d="m206.647 227.64h-50.16c-6.627 0-12 5.373-12 12v58.464c0 5.588-3.856 10.437-9.3 11.696l-14.01 3.24 20.09 14.14 18.92-4.38c5.45-1.26 9.3-6.11 9.3-11.7v-11.346c0-2.355 2.021-4.175 4.368-3.979 2.499.209 5.028.315 7.582.315 13.27 0 25.86-2.86 37.21-8v-48.45c0-6.627-5.372-12-12-12z" fill="#ffcebf"/><path d="m245.753 37.468h-76.113c-6.682 0-12.098 5.416-12.098 12.098v112.157l146.949-5.479v-60.038c0-32.44-26.298-58.738-58.738-58.738z" fill="#bc7c63"/><path d="m269.827 42.62v114.91l-27.78 1.04v-121.1h3.71c8.58 0 16.731 1.84 24.07 5.15z" fill="#aa6a51"/><path d="m221.975 7.5h-83.331c-44.183 0-80 35.817-80 80v68.744l186.825-3.766v-121.483c0-12.976-10.519-23.495-23.494-23.495z" fill="#bc7c63"/><path d="m163.647 7.5c-44.19 0-80 35.82-80 80v68.24l-25 .5v-68.74c0-44.18 35.81-80 80-80z" fill="#aa6a51"/><path d="m276.356 184.379h-189.577c-15.538 0-28.135-12.596-28.135-28.135 0-15.538 12.596-28.135 28.135-28.135h189.577c15.538 0 28.135 12.596 28.135 28.135 0 15.539-12.596 28.135-28.135 28.135z" fill="#ffcebf"/><path d="m181.434 276.092c49.883 0 90.322-40.438 90.322-90.321v-54.512c0-29.707-24.083-53.79-53.79-53.79h-73.063c-29.708 0-53.79 24.083-53.79 53.79v54.512c-.001 49.882 40.438 90.321 90.321 90.321z" fill="#ffeee6"/><path d="m193.937 275.22c-4.09.58-8.26.87-12.5.87-49.89 0-90.33-40.44-90.33-90.32v-54.51c0-29.71 24.09-53.79 53.79-53.79h25c-29.7 0-53.79 24.08-53.79 53.79v54.51c.001 45.64 33.86 83.38 77.83 89.45z" fill="#ffdfcf"/><path d="m231.017 504.021h-98.899v-156.021l98.899-.13z" fill="#f2fbff"/><path d="m101.591 317.849 22.477-22.477c1.562-1.562 4.095-1.562 5.657 0l50.671 50.671c1.562 1.562 1.562 4.095 0 5.657l-21.063 21.063c-1.562 1.562-4.095 1.562-5.657 0l-52.085-52.085c-.781-.782-.781-2.048 0-2.829z" fill="#dff6fd"/><path d="m126.591 320.677c-.781-.781-.781-2.047 0-2.828l12.805-12.806-9.672-9.672c-1.562-1.562-4.095-1.562-5.657 0l-22.477 22.477c-.781.781-.781 2.047 0 2.828l52.085 52.085c1.562 1.562 4.095 1.562 5.657 0l9.672-9.672z" fill="#c8effe"/><path d="m261.544 317.848-22.477-22.477c-1.562-1.562-4.095-1.562-5.657 0l-50.671 50.671c-1.562 1.562-1.562 4.095 0 5.657l21.063 21.063c1.562 1.562 4.095 1.562 5.657 0l52.085-52.085c.781-.781.781-2.047 0-2.829z" fill="#dff6fd"/><path d="m207.739 351.699c-1.562-1.562-1.562-4.095 0-5.657l40.999-40.999-9.672-9.672c-1.562-1.562-4.095-1.562-5.657 0l-50.671 50.671c-1.562 1.562-1.562 4.095 0 5.657l21.063 21.063c1.562 1.562 4.095 1.562 5.657 0l9.672-9.672z" fill="#c8effe"/><path d="m321.309 497.02c-39.859-18.587-57.104-65.966-38.517-105.825l69.888-149.876c18.587-39.859 65.966-57.104 105.825-38.517 39.859 18.587 57.104 65.966 38.517 105.825l-69.888 149.876c-18.587 39.859-65.967 57.104-105.825 38.517z" fill="#f2fbff"/><path d="m396.009 336.825c25.104 11.706 54.945.845 66.651-24.259l8.853-18.985c9.147-19.617.66-42.935-18.956-52.082l-19.871-9.266c-19.617-9.147-42.935-.66-52.082 18.956l-8.853 18.985c-11.707 25.104-.846 54.944 24.258 66.651z" fill="#ffeee6"/><path d="m305.449 401.761 69.888-149.876c16.789-36.004 57.069-53.548 94.08-42.908-3.42-2.303-7.058-4.377-10.913-6.175-39.859-18.586-87.238-1.342-105.825 38.517l-69.888 149.876c-18.586 39.859-1.342 87.238 38.517 105.825 3.855 1.798 7.781 3.251 11.745 4.391-31.94-21.513-44.393-63.647-27.604-99.65z" fill="#dff6fd"/><path d="m394.408 280.739 8.853-18.985c8.929-19.149 31.361-27.684 50.672-19.571-.454-.234-.909-.467-1.376-.685l-19.871-9.266c-19.617-9.147-42.935-.661-52.082 18.956l-8.853 18.985c-11.706 25.104-.845 54.945 24.259 66.651 3.911 1.824 7.938 3.099 11.993 3.859-17.276-14.184-23.478-38.751-13.595-59.944z" fill="#ffdfcf"/><path d="m427.641 400.608 12.815-27.483c4.347-9.322 15.427-13.355 24.749-9.008l6.278 2.927c9.322 4.347 13.355 15.427 9.008 24.749l-12.815 27.483c-4.347 9.322-15.427 13.355-24.749 9.008l-6.278-2.927c-9.322-4.347-13.355-15.427-9.008-24.749z" fill="#ffeee6"/></g><g><path d="m511.999 275.03c0-33.749-19.756-64.769-50.331-79.027-35.592-16.592-78.108-7.247-103.393 22.732-2.67 3.166-2.269 7.897.898 10.568 3.167 2.67 7.898 2.268 10.568-.898 20.927-24.811 56.121-32.544 85.587-18.808 25.313 11.805 41.67 37.488 41.67 65.433 0 10.551-2.28 20.789-6.777 30.431l-23.809 51.047c-5.809-2.166-12.128-2.202-18.015-.06-4.183 1.523-7.82 4.035-10.677 7.29l-58.412 8.898-45.07-74.009 19.301-41.393c1.75-3.755.126-8.217-3.628-9.968-3.752-1.748-8.217-.125-9.968 3.628l-33.171 71.139c-4.666-2.204-9.556-3.912-14.623-5.084l-27.188-6.289-20.594-20.594c-4.483-4.481-11.779-4.483-16.265 0l-1.959 1.959v-19.268c29.835-15.398 50.774-45.699 52.919-80.993 18.387-1.391 32.925-16.786 32.925-35.522 0-.039-.003-60.044-.003-60.044 0-34.087-25.887-62.231-59.032-65.831-.332-16.799-14.093-30.367-30.972-30.367h-83.33c-20.014 0-39.578 6.931-55.091 19.516-15.282 12.398-26.047 29.747-30.31 48.851-.901 4.043 1.645 8.052 5.687 8.954 4.049.893 8.052-1.645 8.954-5.687 7.322-32.817 37.081-56.634 70.76-56.634h83.33c8.816 0 15.989 7.173 15.989 15.99v42.349c-6.275-2.174-13.001-3.371-20.006-3.371h-73.062c-30.189 0-55.333 21.945-60.359 50.717-6.826.426-13.135 2.782-18.392 6.528v-22.113c0-4.143-3.357-7.5-7.5-7.5s-7.5 3.357-7.5 7.5c0 0-.008 51.042-.008 51.145 0 18.646 14.396 33.981 32.656 35.501 2.145 35.408 23.204 65.795 53.188 81.153v19.128l-1.959-1.959c-2.173-2.172-5.061-3.368-8.133-3.368-3.071 0-5.959 1.196-8.132 3.368l-20.599 20.599-27.182 6.288c-29.03 6.71-51.31 31.04-55.46 60.54l-15.3 108.87c-.91 6.46 1.02 12.98 5.3 17.9 4.27 4.91 10.46 7.73 16.98 7.73l65.172-.003c.05.001.098.007.148.007s.098-.006.148-.007l269.793-.012c9.102-.302 18.199-2.034 27.004-5.239 21.87-7.961 39.329-23.963 49.161-45.056l11.527-24.709c1.762.368 3.536.552 5.299.552 9.844 0 19.289-5.588 23.716-15.081l12.815-27.483c5.222-11.198 1.789-24.243-7.532-31.572l24.062-51.59c5.432-11.642 8.185-24.014 8.185-36.772zm-91.157 122.408c-1.401 3.003-2.198 6.179-2.402 9.388l-135.552 21.566c-.448-8.927.795-17.874 3.693-26.458l142.271-21.673zm-57.605-22.353-69.592 10.601 32.978-70.725zm-62.802-39.456-24.44 52.415c-4.832 10.357-7.527 21.335-8.088 32.416-.012.146-.022.307-.033.478-.002.055-.007.11-.009.165-.021.395-.041.831-.055 1.359v1.537c-.007.704-.011 1.408 0 2.112v70.886h-29.294v-142.685l27.915-27.914 22.34 5.167c4.042.935 7.943 2.301 11.664 4.064zm-160.819 33.683 8.756 8.756c2.241 2.24 5.186 3.36 8.13 3.36s5.89-1.121 8.133-3.361l8.431-8.431v126.886h-33.449v-127.21zm58.88 8.754c2.172 2.172 5.06 3.367 8.132 3.367s5.96-1.195 8.132-3.367l8.755-8.755v127.21h-35.449v-128.885zm37.74-74.916 16.113 16.113-26.632 26.632c-.003.003-.007.007-.01.01l-19.078 19.078-16.113-16.113zm43.017-126.498v-40.814c10.006 1.417 17.735 10.015 17.735 20.407.001 10.392-7.728 18.99-17.735 20.407zm-26.284-131.163c24.844 3.518 44.017 24.913 44.017 50.712v31.017c-5.327-3.798-11.734-6.172-18.667-6.551-2.865-16.366-12.236-30.514-25.349-39.674v-35.504zm-186.827 110.755c0-10.298 7.592-18.834 17.468-20.366v40.732c-9.876-1.531-17.468-10.067-17.468-20.366zm32.468 29.527v-54.512c0-25.524 20.766-46.29 46.291-46.29h73.062c25.524 0 46.29 20.766 46.29 46.29v54.512c0 45.668-37.153 82.821-82.821 82.821s-82.822-37.154-82.822-82.821zm53.376 93.289c9.297 2.941 19.189 4.532 29.446 4.532 10.356 0 20.338-1.623 29.713-4.619v28.055l-29.579 29.58-29.58-29.58zm-25.092 24.09 45.722 45.721-16.112 16.113-45.722-45.721zm-110.052 191.276c-1.45-1.67-2.07-3.79-1.77-5.97l15.31-108.87c3.29-23.4 20.96-42.7 43.98-48.02l22.34-5.168 27.915 27.915v142.684h-29.295v-78.867c0-4.143-3.357-7.5-7.5-7.5s-7.5 3.357-7.5 7.5v78.866h-57.82c-2.2 0-4.21-.91-5.66-2.57zm289.22 2.57h-23.252v-23.26c6.186 9.158 14.053 17.038 23.276 23.26zm73.574-4.35c-7.505 2.732-15.265 4.165-23.023 4.349h-3.351c-9.832-.229-19.601-2.475-28.782-6.757-17.463-8.145-30.71-22.601-37.301-40.706-.76-2.088-1.41-4.198-1.972-6.32l136.665-21.743c2.311 4.048 5.644 7.382 9.738 9.701l-11.277 24.174c-8.139 17.465-22.592 30.712-40.697 37.302zm94.056-104.022-12.815 27.483c-2.594 5.56-9.227 7.973-14.782 5.381l-6.278-2.929c-2.692-1.255-4.735-3.484-5.751-6.275-1.016-2.792-.884-5.813.371-8.506l12.816-27.483c1.255-2.692 3.484-4.735 6.275-5.751 2.79-1.018 5.812-.884 8.506.372l6.277 2.926c5.558 2.593 7.972 9.223 5.381 14.782z"/><path d="m417.168 349.055c6.649 0 13.318-1.166 19.753-3.508 14.472-5.267 26.025-15.854 32.533-29.811l8.853-18.984c10.881-23.334.75-51.17-22.583-62.05l-19.871-9.266c-23.333-10.883-51.17-.751-62.05 22.583l-8.853 18.984c-13.436 28.812-.925 63.184 27.887 76.618 7.751 3.616 16.026 5.434 24.331 5.434zm-38.624-75.711 8.853-18.984c5.372-11.519 16.828-18.296 28.771-18.296 4.478 0 9.026.953 13.345 2.967l19.871 9.266c15.838 7.386 22.714 26.279 15.329 42.116l-8.853 18.984c-4.815 10.326-13.363 18.158-24.069 22.056-10.705 3.896-22.289 3.389-32.614-1.424-21.316-9.941-30.572-35.369-20.633-56.685z"/><path d="m440.198 289.939c1.025.479 2.104.705 3.165.705 2.824 0 5.529-1.604 6.802-4.332l1.963-4.209c1.751-3.754.127-8.217-3.627-9.967-3.752-1.751-8.216-.127-9.967 3.627l-1.963 4.209c-1.75 3.755-.126 8.217 3.627 9.967z"/><path d="m403.516 272.834c1.025.479 2.104.705 3.165.705 2.824 0 5.529-1.604 6.802-4.332l1.963-4.209c1.751-3.754.127-8.217-3.627-9.967-3.752-1.751-8.216-.127-9.967 3.627l-1.963 4.209c-1.751 3.754-.127 8.217 3.627 9.967z"/><path d="m418.156 314.665c.167 0 .335-.002.503-.005 4.142-.08 7.434-3.502 7.354-7.644s-3.517-7.417-7.644-7.354c-3.228.1-6.242-1.343-8.27-3.856-2.602-3.224-7.324-3.729-10.547-1.127-3.224 2.602-3.728 7.323-1.127 10.547 4.856 6.017 12.023 9.439 19.731 9.439z"/><path d="m220.663 170.521c4.143 0 7.5-3.357 7.5-7.5v-13.554c0-4.143-3.357-7.5-7.5-7.5s-7.5 3.357-7.5 7.5v13.554c0 4.143 3.358 7.5 7.5 7.5z"/><path d="m142.467 141.968c-4.143 0-7.5 3.357-7.5 7.5v13.554c0 4.143 3.357 7.5 7.5 7.5s7.5-3.357 7.5-7.5v-13.554c0-4.143-3.357-7.5-7.5-7.5z"/><path d="m168.664 189.902c3.56 2.586 7.73 3.88 11.901 3.88 4.17 0 8.341-1.294 11.9-3.88 3.351-2.436 4.093-7.126 1.658-10.477-2.436-3.352-7.127-4.09-10.477-1.658-1.845 1.34-4.322 1.338-6.165 0-3.349-2.434-8.04-1.693-10.477 1.658-2.432 3.351-1.69 8.042 1.66 10.477z"/><path d="m181.565 239.501c-8.837 0-17.671-3.231-24.556-9.698-3.02-2.835-3.169-7.581-.333-10.601 2.834-3.02 7.581-3.17 10.601-.333 8.013 7.522 20.564 7.523 28.577-.001 3.02-2.835 7.767-2.686 10.602.334s2.686 7.766-.334 10.602c-6.884 6.464-15.722 9.697-24.557 9.697z"/></g></g></svg>