<svg id="Capa_1" enable-background="new 0 0 512 512" height="512" viewBox="0 0 512 512" width="512" xmlns="http://www.w3.org/2000/svg"><g><g><path d="m364.895 324.257-62.52-14.462c-5.442-1.259-9.296-6.106-9.296-11.691v-58.468c0-6.627-5.373-12-12-12h-50.16c-6.627 0-12 5.373-12 12v58.468c0 5.586-3.854 10.432-9.296 11.691l-62.52 14.462c-26.208 6.062-45.974 27.642-49.718 54.28l-15.302 108.875c-1.269 9.026 5.739 17.088 14.854 17.088h318.127c9.115 0 16.123-8.062 14.854-17.088l-15.304-108.875c-3.745-26.638-23.511-48.217-49.719-54.28z" fill="#ffc344"/><path d="m195.469 331.856-23.366 5.404c-26.2 6.06-45.97 27.64-49.71 54.28l-13.57 96.53c-1.05 7.47 3.58 14.33 10.44 16.43h-22.32c-9.12 0-16.13-8.06-14.86-17.09l15.31-108.87c3.74-26.64 23.51-48.22 49.71-54.28l24.427-5.65 15.296 4.085z" fill="#feb137"/><path d="m340.47 318.61-83.58 46.25c-.55.31-1.23.31-1.78 0l-83.58-46.25 38.09-8.81c5.45-1.26 9.3-6.11 9.3-11.7v-58.46c0-6.63 5.37-12 12-12h50.16c6.63 0 12 5.37 12 12v58.46c0 5.59 3.85 10.44 9.3 11.7z" fill="#eb9c8d"/><path d="m281.08 227.64h-50.16c-6.627 0-12 5.373-12 12v58.46c0 5.59-3.85 10.44-9.3 11.7l-38.09 8.81 23.94 13.25 39.15-9.06c5.45-1.26 9.3-6.11 9.3-11.7v-11.357c0-2.356 2.023-4.177 4.371-3.978 2.541.215 5.112.326 7.709.326 13.21 0 25.77-2.84 37.08-7.94v-48.51c0-6.628-5.373-12.001-12-12.001z" fill="#d78878"/><path d="m350.789 184.379h-189.578c-15.538 0-28.135-12.596-28.135-28.135 0-15.538 12.596-28.135 28.135-28.135h189.577c15.538 0 28.135 12.596 28.135 28.135 0 15.539-12.596 28.135-28.134 28.135z" fill="#d78878"/><path d="m256 276.092c49.883 0 90.322-40.438 90.322-90.321v-112.473h-180.644v112.472c0 49.883 40.439 90.322 90.322 90.322z" fill="#f1b0a2"/><path d="m268.5 275.22c-4.09.58-8.26.87-12.5.87-49.88 0-90.32-40.44-90.32-90.32v-112.47h25v112.47c0 45.64 33.86 83.37 77.82 89.45z" fill="#eb9c8d"/><path d="m316.191 7.5h-120.382c-24.853 0-45 20.147-45 45v74.457c0 1.105.895 2 2 2h21.298c8.284 0 15-6.716 15-15v-7.987c0-14.096 11.427-25.524 25.524-25.524h82.739c14.096 0 25.524 11.427 25.524 25.524v7.987c0 8.284 6.716 15 15 15h21.298c1.105 0 2-.895 2-2v-74.457c-.001-24.853-20.148-45-45.001-45z" fill="#7a6d79"/><path d="m195.81 7.5h25c-24.85 0-45 20.15-45 45v74.46c0 .75.41 1.4 1.03 1.75-.88.16-1.8.25-2.73.25h-21.3c-1.11 0-2-.9-2-2v-74.46c0-24.85 20.15-45 45-45z" fill="#685e68"/></g><g><path d="m437.347 486.366-15.31-108.869c-4.142-29.5-26.424-53.831-55.447-60.544l-62.521-14.461c-2.054-.475-3.489-2.281-3.489-4.393v-25.272c29.908-15.378 50.906-45.721 53.051-81.072 18.324-1.455 32.792-16.82 32.792-35.511 0-13.126-7.139-24.609-17.733-30.792v-72.952c0-28.948-23.551-52.5-52.5-52.5h-120.38c-28.949 0-52.5 23.552-52.5 52.5v72.952c-10.594 6.183-17.733 17.666-17.733 30.792 0 18.692 14.469 34.057 32.792 35.511 2.145 35.351 23.143 65.694 53.051 81.072v25.273c0 2.111-1.435 3.918-3.49 4.394l-62.521 14.46c-29.023 6.713-51.306 31.044-55.446 60.543l-15.31 108.869c-.908 6.454 1.023 12.977 5.298 17.894 4.276 4.919 10.468 7.74 16.989 7.74h273.66c4.142 0 7.5-3.357 7.5-7.5s-3.358-7.5-7.5-7.5h-13.356v-78.87c0-4.143-3.358-7.5-7.5-7.5s-7.5 3.357-7.5 7.5v78.87h-78.744v-20h7.5c4.142 0 7.5-3.357 7.5-7.5s-3.358-7.5-7.5-7.5h-7.5v-20h7.5c4.142 0 7.5-3.357 7.5-7.5s-3.358-7.5-7.5-7.5h-7.5v-20h7.5c4.142 0 7.5-3.357 7.5-7.5s-3.358-7.5-7.5-7.5h-7.5v-22.221l78.085-43.214 21.625 5.001c23.018 5.324 40.689 24.621 43.974 48.018l15.31 108.871c.307 2.183-.32 4.301-1.765 5.964-1.447 1.664-3.46 2.581-5.668 2.581h-9.46c-4.142 0-7.5 3.357-7.5 7.5s3.358 7.5 7.5 7.5h9.46c6.521 0 12.713-2.821 16.989-7.741 4.274-4.917 6.204-11.44 5.297-17.893zm-83.527-309.735v-40.773c9.942 1.474 17.604 10.041 17.604 20.386s-7.662 18.913-17.604 20.387zm-213.243-20.387c0-10.346 7.661-18.913 17.604-20.386v40.773c-9.943-1.474-17.604-10.041-17.604-20.387zm32.603 29.526v-50.16h5.91c.86 0 2.905-.586 2.982-.62 8.714-3.299 14.538-11.675 14.538-21.03v-7.99c0-9.936 8.084-18.02 18.02-18.02h.24c4.142 0 7.5-3.357 7.5-7.5s-3.358-7.5-7.5-7.5h-.24c-18.208 0-33.02 14.812-33.02 33.02v7.99c0 2.823-1.593 5.374-4.047 6.649 0 0-18.295.051-19.253.128v-68.237c0-20.678 16.822-37.5 37.5-37.5h120.38c20.678 0 37.5 16.822 37.5 37.5v68.238c-.958-.078-19.253-.128-19.253-.128-2.455-1.275-4.047-3.827-4.047-6.649v-7.99c0-18.207-14.812-33.02-33.02-33.02h-47.5c-4.142 0-7.5 3.357-7.5 7.5s3.358 7.5 7.5 7.5h47.5c9.937 0 18.02 8.084 18.02 18.02v7.99c0 9.355 5.824 17.731 14.538 21.03.077.034 2.119.62 2.982.62h5.91v50.16c0 45.667-37.153 82.82-82.82 82.82s-82.82-37.154-82.82-82.821zm67.82 221.23h7.5v20h-7.5c-4.142 0-7.5 3.357-7.5 7.5s3.358 7.5 7.5 7.5h7.5v20h-7.5c-4.142 0-7.5 3.357-7.5 7.5s3.358 7.5 7.5 7.5h7.5v20h-78.744v-78.87c0-4.143-3.358-7.5-7.5-7.5s-7.5 3.357-7.5 7.5v78.87h-57.816c-2.208 0-4.221-.917-5.668-2.581-1.445-1.663-2.072-3.781-1.765-5.965l15.311-108.871c3.284-23.396 20.956-42.691 43.973-48.017l21.626-5.001 78.084 43.213v22.222h-7.501c-4.142 0-7.5 3.357-7.5 7.5s3.358 7.5 7.5 7.5zm15-50.215-63.736-35.273 19.045-4.405c8.897-2.057 15.111-9.873 15.111-19.008v-19.085c9.336 2.969 19.273 4.576 29.58 4.576s20.244-1.607 29.58-4.576v19.086c0 9.135 6.214 16.951 15.11 19.007l19.046 4.405z"/><path d="m295.098 170.521c4.142 0 7.5-3.357 7.5-7.5v-13.555c0-4.143-3.358-7.5-7.5-7.5s-7.5 3.357-7.5 7.5v13.555c0 4.143 3.358 7.5 7.5 7.5z"/><path d="m216.902 141.967c-4.142 0-7.5 3.357-7.5 7.5v13.555c0 4.143 3.358 7.5 7.5 7.5s7.5-3.357 7.5-7.5v-13.555c0-4.143-3.358-7.5-7.5-7.5z"/><path d="m244.101 189.903c3.559 2.585 7.729 3.877 11.899 3.877s8.341-1.292 11.899-3.877c3.352-2.435 4.095-7.125 1.66-10.477-2.434-3.351-7.125-4.096-10.476-1.66-1.845 1.34-4.323 1.34-6.168 0-3.351-2.436-8.042-1.691-10.476 1.66-2.433 3.352-1.69 8.043 1.662 10.477z"/><path d="m280.556 229.803c3.02-2.835 3.168-7.581.333-10.601-2.836-3.02-7.582-3.169-10.602-.333-8.012 7.523-20.563 7.523-28.575 0-3.019-2.835-7.766-2.687-10.602.333-2.835 3.02-2.687 7.766.333 10.601 6.885 6.466 15.721 9.698 24.556 9.698s17.672-3.232 24.557-9.698z"/></g></g></svg>