<svg id="Capa_1" enable-background="new 0 0 512 512" height="512" viewBox="0 0 512 512" width="512" xmlns="http://www.w3.org/2000/svg"><g><g><path d="m374.675 154.996c6.124-22.748 12.604-46.999 8.808-70.708-3.822-23.869-21.032-42.228-41.279-54.381-11.49-6.897-23.959-12.097-36.69-16.216-20.469-6.622-42.579-7.912-63.728-4.074-15.602 2.831-30.123 6.114-42.742 15.945-2.004 1.562-12.767 10.345-19.156 19.133-10.681-6.011-26.221-6.023-36.406 1.283-8.947 6.418-13.244 19.332-14.322 29.864-2.537 24.8-.202 50.089 6.833 74.005l5.624 22.736h227.999z" fill="#537983"/></g><g><path d="m374.671 154.993-5.059 17.586h-21.27l4.252-14.768c6.383-23.73 13.144-49.033 9.181-73.768-3.983-24.905-21.937-44.054-43.058-56.73-11.989-7.2-25.004-12.627-38.278-16.918-3.346-1.085-6.731-2.031-10.157-2.838 11.949.408 23.849 2.45 35.231 6.134 12.726 4.123 25.203 9.321 36.695 16.211 20.244 12.159 37.452 30.521 41.275 54.39 3.795 23.71-2.688 47.957-8.812 70.701z" fill="#3e5959"/></g><g><path d="m366.482 504.531h-220.32v-128.533c0-60.84 49.32-110.16 110.16-110.16 60.84 0 110.16 49.32 110.16 110.16z" fill="#eaf6ff"/></g><g><path d="m366.483 375.995v128.541h-20.311v-128.541c0-57.421-43.925-104.565-100.001-109.682 3.345-.313 6.732-.469 10.15-.469 30.419 0 57.962 12.328 77.898 32.264 19.936 19.935 32.264 47.467 32.264 77.887z" fill="#d8ecfe"/></g><g><path d="m256.322 265.842v17.061c-6.058 10.416-37.048 64.361-53.986 45.424-3.967-4.43-5.831-10.931-7.418-16.525-2.37-8.335-2.854-17.35-1.865-25.983 17.906-12.59 39.727-19.977 63.269-19.977z" fill="#c4e2ff"/></g><g><path d="m317.725 311.803c-1.587 5.594-3.451 12.095-7.418 16.525-16.948 18.936-47.928-35.008-53.986-45.424v-17.061c23.542 0 45.363 7.387 63.269 19.977.989 8.633.505 17.648-1.865 25.983z" fill="#c4e2ff"/></g><g><path d="m317.722 311.8c-1.583 5.596-3.445 12.099-7.419 16.53-7.857 8.783-18.741 1.882-28.748-9.072 3.276.229 6.353-.936 9.062-3.963 3.973-4.431 5.835-10.934 7.419-16.52 2.181-7.658 2.768-15.893 2.071-23.879 6.881 2.987 13.413 6.652 19.488 10.924.985 8.633.497 17.645-1.873 25.98z" fill="#b3dafe"/></g><g><path d="m256.384 284.41c-54.185 0-98.11-43.925-98.11-98.11v-76.369h196.219v76.369c0 54.185-43.925 98.11-98.109 98.11z" fill="#fed2a4"/></g><g><path d="m354.496 109.934v76.367c0 54.181-43.924 98.105-98.115 98.105-3.416 0-6.781-.179-10.107-.518 49.431-5.059 87.998-46.822 87.998-97.587v-84.672z" fill="#ffbd86"/></g><g><path d="m354.493 189.617h13.249c11.379 0 20.603-9.224 20.603-20.603 0-11.379-9.224-20.603-20.603-20.603h-13.249z" fill="#fed2a4"/></g><g><path d="m158.543 195.19h-13.655c-11.727 0-21.233-9.506-21.233-21.233 0-11.727 9.506-21.233 21.233-21.233h13.655z" fill="#fed2a4"/></g><g><path d="m158.543 150.472s20.016-22.24 25.248-35.372c0 0 14.58 20.412 45.087 25.351 3.93.636 7.35-2.748 6.782-6.689-.533-3.698-1.155-8.443-1.663-13.527 0 0 24.003 23.218 75.626 22.687 3.681-.038 6.449-3.383 5.779-7.003l-2.77-14.969 41.862 26.816 2.444-27.813-2.444-30.52h-196.22l-7.432 30.52z" fill="#537983"/></g><g><path d="m208.532 159.615c-4.125 0-7.468 3.344-7.468 7.468v18.324c0 4.125 3.344 7.468 7.468 7.468s7.468-3.344 7.468-7.468v-18.324c.001-4.124-3.343-7.468-7.468-7.468z"/><path d="m304.235 159.615c-4.125 0-7.468 3.344-7.468 7.468v18.324c0 4.125 3.344 7.468 7.468 7.468s7.468-3.344 7.468-7.468v-18.324c0-4.124-3.343-7.468-7.468-7.468z"/><path d="m268.622 216.478c-3.27 2.939-7.496 4.557-11.898 4.557-4.645 0-9.041-1.778-12.379-5.006-2.965-2.867-7.693-2.789-10.56.177-2.867 2.964-2.789 7.693.177 10.56 6.138 5.936 14.222 9.206 22.763 9.206 8.095 0 15.865-2.978 21.882-8.384 3.068-2.757 3.32-7.479.563-10.547-2.759-3.068-7.481-3.32-10.548-.563z"/><circle cx="256.322" cy="350.468" r="7.468"/><circle cx="256.322" cy="380.381" r="7.468"/><circle cx="256.322" cy="410.294" r="7.468"/><path d="m361.406 197.086h6.336c15.478 0 28.071-12.593 28.071-28.071 0-9.143-4.396-17.277-11.183-22.406 5.186-20.024 9.689-41.879 6.227-63.502-3.736-23.334-19.65-44.501-44.81-59.604-11.061-6.638-23.567-12.172-38.235-16.918-21.426-6.933-44.719-8.425-67.36-4.317-16.255 2.949-32.006 6.499-45.999 17.402-.446.347-9.416 7.374-16.764 15.832-12.778-4.646-28.122-3.08-38.561 4.407-13.819 9.913-16.811 29.428-17.398 35.173-.42 4.103 2.566 7.77 6.67 8.189 4.1.428 7.77-2.566 8.189-6.67.88-8.603 4.296-19.571 11.245-24.556 7.37-5.285 19.84-5.657 28.391-.843 3.304 1.859 7.476.949 9.704-2.117 5.279-7.261 14.571-15.191 17.705-17.633 11.332-8.829 24.586-11.785 39.485-14.488 20.224-3.67 41.005-2.344 60.095 3.831 13.574 4.392 25.071 9.466 35.146 15.513 12.345 7.41 33.664 23.65 37.749 49.158 2.928 18.288-.749 37.118-5.482 55.623-.948-.097-1.91-.147-2.884-.147h-10.053l-41.03-26.283c-2.506-1.606-5.727-1.57-8.196.091-2.47 1.661-3.717 4.63-3.176 7.556l2.434 13.153c-46.259-.056-68.342-20.415-68.533-20.594-2.253-2.18-5.627-2.721-8.446-1.354-2.821 1.365-4.489 4.346-4.178 7.464.375 3.755.846 7.691 1.403 11.729-25.387-4.873-37.6-21.263-38.1-21.948-1.589-2.223-4.268-3.396-6.975-3.073-2.712.329-5.029 2.112-6.04 4.65-3.663 9.193-23.583 32.599-23.898 32.92h-8.066c-.807 0-1.605.042-2.395.108-3.273-11.71-5.412-23.802-6.332-35.993-.31-4.113-3.892-7.193-8.009-6.886-4.113.311-7.196 3.896-6.885 8.009 1.022 13.548 3.433 26.989 7.146 39.983-7.387 5.198-12.227 13.782-12.227 23.481 0 15.826 12.876 28.701 28.702 28.701h7.189c4.638 29.686 21.686 55.313 45.658 71.388-35.253 20.337-59.041 58.412-59.041 101.952v128.533c0 4.125 3.344 7.468 7.468 7.468h220.32c4.125 0 7.468-3.344 7.468-7.468v-74.79c0-4.125-3.344-7.468-7.468-7.468s-7.468 3.344-7.468 7.468v67.321h-38.374v-105.339c0-4.125-3.344-7.468-7.468-7.468s-7.468 3.344-7.468 7.468v105.342h-98.761v-105.342c0-4.125-3.344-7.468-7.468-7.468s-7.468 3.344-7.468 7.468v105.342h-38.378v-121.065c0-29.179 12.247-55.538 31.856-74.247.41 4.18 1.153 8.242 2.247 12.089 1.734 6.113 3.892 13.721 9.036 19.466 4.039 4.51 9.696 7.005 15.767 6.387 4.733-.483 18.43-1.887 43.786-42.316 25.351 40.426 39.047 41.832 43.779 42.316 6.061.62 11.74-1.879 15.771-6.383 5.148-5.749 7.306-13.357 9.039-19.469 1.094-3.85 1.828-7.917 2.236-12.099 19.615 18.71 31.867 45.072 31.867 74.257v19.025c0 4.125 3.344 7.468 7.468 7.468s7.468-3.344 7.468-7.468v-19.025c0-43.512-23.755-81.57-58.971-101.916 25.487-17.07 43.158-44.934 46.427-76.997zm.555-41.206h5.781c7.242 0 13.134 5.892 13.134 13.134s-5.892 13.134-13.134 13.134h-5.781zm-217.073 31.841c-7.59 0-13.765-6.175-13.765-13.765s6.175-13.765 13.765-13.765h5.917v26.109c0 .476.016.947.023 1.421zm87.369 118.434c-12.695 16.617-19.465 18.497-21.237 18.678-.832.084-1.755.039-3.121-1.487-2.846-3.179-4.414-8.705-5.798-13.586-1.712-6.023-2.368-12.765-1.931-19.679 4.21-2.76 8.628-5.227 13.235-7.355 9.16 4.099 19.007 6.926 29.315 8.263-2.974 4.698-6.571 10.073-10.463 15.166zm78.285 3.605c0 .002-.001.003-.001.005-1.314 4.634-2.95 10.402-5.798 13.582-1.365 1.526-2.29 1.572-3.124 1.486-1.772-.181-8.539-2.062-21.224-18.664-3.934-5.149-7.505-10.481-10.468-15.162 10.327-1.33 20.193-4.153 29.371-8.252 4.585 2.122 8.984 4.579 13.175 7.327.437 6.914-.219 13.656-1.931 19.678zm-54.158-32.818c-47.621 0-86.783-36.915-90.372-83.632v-40.011c4.057-4.648 13.125-15.383 19.468-25.505 7.878 7.133 21.818 16.729 42.205 20.03 4.178.68 8.475-.693 11.496-3.664 2.36-2.319 3.759-5.433 3.977-8.68 12.979 7.055 34.945 15.236 66.542 14.91 3.97-.041 7.693-1.822 10.216-4.887 2.116-2.57 3.182-5.794 3.042-9.07l24.068 15.417v34.45c-.001 49.98-40.663 90.642-90.642 90.642z"/></g></g></svg>