<svg id="Capa_1" enable-background="new 0 0 512 512" height="512" viewBox="0 0 512 512" width="512" xmlns="http://www.w3.org/2000/svg"><g><g><path d="m314.188 34.149h-107.592c-40.604 0-73.52 32.916-73.52 73.52v48.575h245.847v-57.36c0-35.752-28.983-64.735-64.735-64.735z" fill="#bc7c63"/><path d="m231.6 34.15c-40.61 0-73.52 32.91-73.52 73.52v48.57h-25v-48.57c0-40.61 32.91-73.52 73.52-73.52z" fill="#aa6a51"/><path d="m364.895 324.257-62.52-14.462c-5.442-1.259-9.296-6.106-9.296-11.691v-58.468c0-6.627-5.373-12-12-12h-50.16c-6.627 0-12 5.373-12 12v58.468c0 5.586-3.854 10.432-9.296 11.691l-62.52 14.462c-26.208 6.062-45.974 27.642-49.718 54.28l-15.302 108.875c-1.269 9.026 5.739 17.088 14.854 17.088h318.127c9.115 0 16.123-8.062 14.854-17.088l-15.304-108.875c-3.745-26.638-23.511-48.217-49.719-54.28z" fill="#a2aee6"/><path d="m165.866 330.295s2.873 7.815 1.234 8.334c-23.688 7.506-41.209 27.995-44.707 52.911l-13.57 96.53c-1.05 7.47 3.58 14.33 10.44 16.43h-22.32c-9.12 0-16.13-8.06-14.86-17.09l15.31-108.87c3.74-26.64 23.51-48.22 49.71-54.28l11.067-2.56z" fill="#8795de"/><path d="m320.34 313.95c-11.97 23.34-36.29 39.32-64.34 39.32s-52.37-15.98-64.34-39.32l17.96-4.15c5.45-1.26 9.3-6.11 9.3-11.7v-58.46c0-6.63 5.37-12 12-12h50.16c6.63 0 12 5.37 12 12v58.46c0 5.59 3.85 10.44 9.3 11.7z" fill="#eb9c8d"/><path d="m281.08 227.64h-37.16-13c-6.627 0-12 5.373-12 12v58.46c0 5.59-3.85 10.44-9.3 11.7l-17.96 4.15c3.03 5.91 6.85 11.35 11.33 16.17l31.63-7.32c5.45-1.26 9.3-6.11 9.3-11.7v-11.357c0-2.356 2.023-4.177 4.371-3.978 2.541.215 5.112.326 7.709.326 13.21 0 25.77-2.84 37.08-7.94v-48.51c0-6.628-5.373-12.001-12-12.001z" fill="#d78878"/><path d="m350.789 184.379h-189.578c-15.538 0-28.135-12.596-28.135-28.135 0-15.538 12.596-28.135 28.135-28.135h189.577c15.538 0 28.135 12.596 28.135 28.135 0 15.539-12.596 28.135-28.134 28.135z" fill="#d78878"/><path d="m378.923 101.968c0-52.173-42.295-94.468-94.468-94.468h-49.28c-20.05 0-36.303 16.253-36.303 36.303v24.255c0 18.728 15.182 33.91 33.91 33.91z" fill="#bc7c63"/><path d="m232.782 101.968c-14.742 0-27.281-9.41-31.953-22.548-20.306 5.91-35.151 24.645-35.151 46.858v60.061c0 49.569 40.184 89.753 89.753 89.753h1.137c49.569 0 89.753-40.184 89.753-89.753v-71.359c-.013-7.157-5.879-13.012-13.035-13.012z" fill="#f1b0a2"/><path d="m268.5 275.3c-3.9.52-7.88.79-11.93.79h-1.14c-49.57 0-89.75-40.18-89.75-89.75v-60.06c0-22.22 14.84-40.95 35.15-46.86 1.38 3.89 3.45 7.45 6.07 10.54-9.96 8.92-16.22 21.89-16.22 36.32v60.06c0 45.52 33.89 83.13 77.82 88.96z" fill="#eb9c8d"/><path d="m353.83 321.7c-15.95 38.3-53.74 65.23-97.83 65.23s-81.88-26.93-97.83-65.23l33.49-7.75c11.97 23.34 36.29 39.32 64.34 39.32s52.37-15.98 64.34-39.32z" fill="#f2fbff"/><path d="m319.3 446.45v58.05h-61.33v-58.05c0-3.32 2.68-6 6-6h49.33c3.31 0 6 2.68 6 6z" fill="#8795de"/><path d="m319.3 446.45v20.64h-61.33v-20.64c0-3.32 2.68-6 6-6h49.33c3.31 0 6 2.68 6 6z" fill="#f2fbff"/><path d="m202.99 330.12-30.89 7.14c-1.7.39-3.36.85-5 1.37-3.46-5.33-6.46-10.99-8.93-16.93l33.49-7.75c3.03 5.91 6.85 11.35 11.33 16.17z" fill="#dff6fd"/><path d="m257.78 101.97h-25c-18.73 0-33.91-15.18-33.91-33.91v-24.26c0-20.05 16.26-36.3 36.31-36.3h25c-20.05 0-36.31 16.25-36.31 36.3v24.26c0 18.73 15.18 33.91 33.91 33.91z" fill="#aa6a51"/></g><g><path d="m437.347 486.366-15.31-108.869c-4.142-29.5-26.424-53.831-55.446-60.544l-62.521-14.461c-2.055-.475-3.489-2.281-3.489-4.393v-25.051c30.051-15.316 51.13-45.799 53.088-81.296 11.781-.948 21.966-7.64 27.722-17.282 3.086-5.167 4.893-11.179 5.008-17.587.014-.2.022-54.913.022-54.913 0-8.581-1.067-17.103-3.174-25.33-1.027-4.012-5.109-6.438-9.126-5.405-4.013 1.027-6.433 5.113-5.405 9.126 1.795 7.012 2.705 14.282 2.705 21.609v25.23c-5.047-3.599-11.073-5.909-17.599-6.459v-5.775c-.021-11.303-9.232-20.498-20.535-20.498h-100.505c-11.15 0-21.151-7.057-24.886-17.561-.001-.004-.003-.007-.005-.011-.984-2.764-1.521-5.739-1.521-8.836v-24.26c0-15.88 12.924-28.8 28.81-28.8h49.28c27.886 0 54.272 13.522 70.584 36.173 2.421 3.361 7.107 4.123 10.469 1.703 3.361-2.421 4.124-7.107 1.703-10.469-19.123-26.553-50.06-42.407-82.756-42.407h-49.28c-18.42 0-34.21 11.43-40.677 27.564-18.206 2.727-34.925 11.564-47.524 25.236-13.8 14.99-21.4 34.48-21.4 54.87v48.57c0 6.77 1.9 13.11 5.2 18.51 5.779 9.487 15.88 16.063 27.551 17.002 1.957 35.498 23.037 65.981 53.088 81.296v25.052c0 2.111-1.435 3.918-3.49 4.394l-62.519 14.459c-23.161 5.354-42.234 21.737-51.02 43.825-1.531 3.85.348 8.211 4.197 9.741.909.362 1.847.533 2.77.533 2.982 0 5.802-1.79 6.971-4.729 6.968-17.518 22.093-30.51 40.461-34.756l5.086-1.176c18.889 39.101 58.294 64.04 102.123 64.04s83.235-24.938 102.124-64.04l5.086 1.176c23.017 5.325 40.688 24.621 43.974 48.018l15.31 108.871c.307 2.183-.319 4.301-1.765 5.963-1.447 1.665-3.461 2.582-5.669 2.582h-57.815v-78.87c0-4.143-3.357-7.5-7.5-7.5s-7.5 3.357-7.5 7.5v78.869h-15.446v-50.553c0-7.444-6.056-13.5-13.5-13.5h-49.33c-7.444 0-13.5 6.056-13.5 13.5v50.553h-80.712v-78.87c0-4.143-3.358-7.5-7.5-7.5s-7.5 3.357-7.5 7.5v78.87h-57.814c-2.208 0-4.221-.917-5.668-2.581-1.445-1.663-2.072-3.781-1.765-5.965l12.58-89.48c.577-4.102-2.281-7.895-6.383-8.471-4.1-.573-7.894 2.28-8.471 6.383l-12.58 89.479c-.908 6.454 1.023 12.977 5.298 17.894 4.276 4.92 10.468 7.741 16.989 7.741h318.12c6.521 0 12.714-2.821 16.99-7.742 4.274-4.917 6.205-11.44 5.297-17.892zm-65.927-330.126c0 10.348-7.656 18.917-17.599 20.392v-40.774c9.943 1.475 17.599 10.043 17.599 20.382zm-230.84-48.57c0-30.708 21.663-57.292 50.8-64.248-.001.126-.01.251-.01.377v24.26c0 2.262.193 4.479.543 6.644-18.49 8.125-31.416 25.838-33.445 46.013-6.638.506-12.767 2.832-17.888 6.484zm0 48.57c0-10.338 7.656-18.907 17.598-20.382v40.773c-9.943-1.474-17.598-10.044-17.598-20.391zm32.598 30.099v-60.062c0-16.107 9.525-30.7 23.802-37.41 7.317 12.566 20.905 20.601 35.802 20.601h100.504c2.995 0 5.53 2.53 5.535 5.513v71.358c0 45.354-36.898 82.253-82.253 82.253h-1.137c-45.354 0-82.253-36.899-82.253-82.253zm38.131 130.768c8.897-2.057 15.111-9.873 15.111-19.008v-18.928c9.166 2.871 18.911 4.42 29.012 4.42h1.137c10.1 0 19.845-1.549 29.012-4.42v18.929c0 9.135 6.214 16.951 15.109 19.007l7.837 1.812c-12.067 16.763-31.426 26.851-52.527 26.851s-40.459-10.087-52.526-26.85zm37.191 43.305v18.734c-12.39-.934-24.257-4.17-35.102-9.361l9.367-16.224c8.025 3.666 16.703 6.011 25.735 6.851zm15 0c9.032-.84 17.71-3.185 25.735-6.851l9.367 16.224c-10.845 5.192-22.712 8.428-35.102 9.362zm-94.583-33.5 18.959-4.385c5.724 9.407 13.2 17.367 21.891 23.547l-9.36 16.212c-13.02-8.901-23.897-20.947-31.49-35.374zm142.676 35.373-9.36-16.212c8.691-6.18 16.167-14.14 21.891-23.547l18.958 4.385c-7.592 14.428-18.469 26.474-31.489 35.374zm.205 85.662v11.638h-46.33v-11.638zm-46.33 26.638h46.33v22.415h-46.33z"/><path d="m295.098 170.521c4.143 0 7.5-3.357 7.5-7.5v-13.555c0-4.143-3.357-7.5-7.5-7.5s-7.5 3.357-7.5 7.5v13.555c0 4.143 3.357 7.5 7.5 7.5z"/><path d="m216.902 141.967c-4.142 0-7.5 3.357-7.5 7.5v13.555c0 4.143 3.358 7.5 7.5 7.5s7.5-3.357 7.5-7.5v-13.555c0-4.143-3.358-7.5-7.5-7.5z"/><path d="m244.1 189.903c3.559 2.585 7.729 3.877 11.899 3.877s8.341-1.292 11.899-3.877c3.352-2.435 4.096-7.125 1.661-10.476-2.435-3.352-7.124-4.095-10.476-1.661-1.846 1.339-4.324 1.34-6.169 0-3.352-2.436-8.042-1.691-10.476 1.66-2.432 3.352-1.689 8.043 1.662 10.477z"/><path d="m256 239.5c-8.835 0-17.671-3.232-24.556-9.698-3.02-2.835-3.168-7.581-.333-10.601 2.836-3.021 7.583-3.168 10.602-.333 8.012 7.523 20.564 7.524 28.576 0 3.02-2.836 7.767-2.687 10.601.333 2.836 3.02 2.687 7.766-.333 10.601-6.886 6.466-15.721 9.698-24.557 9.698z"/></g></g></svg>