<svg id="Capa_1" enable-background="new 0 0 511.996 511.996" height="512" viewBox="0 0 511.996 511.996" width="512" xmlns="http://www.w3.org/2000/svg"><g><g><path d="m330.441 208.527h12.999c11.164 0 20.214-9.05 20.214-20.214 0-11.164-9.05-20.214-20.214-20.214h-12.999z" fill="#fed2a4"/></g><g><path d="m137.921 208.527h-12.999c-11.164 0-20.214-9.05-20.214-20.214 0-11.164 9.05-20.214 20.214-20.214h12.999z" fill="#fed2a4"/></g><g><path d="m339.89 504.525h-210.625v-111.335c0-58.162 47.15-105.312 105.312-105.312 58.162 0 105.312 47.15 105.312 105.312v111.335z" fill="#fed2a4"/></g><g><path d="m339.892 393.187v111.342h-19.417v-111.342c0-54.894-41.992-99.964-95.601-104.856 3.198-.299 6.436-.448 9.704-.448 29.081 0 55.412 11.786 74.47 30.844s30.844 45.379 30.844 74.46z" fill="#ffbd86"/></g><g><path d="m339.892 393.187v111.342h-210.629v-111.342c0-38.954 21.151-72.956 52.582-91.177 2.132 27.407 25.046 48.976 53.001 48.976 14.685 0 27.985-5.948 37.609-15.572 8.628-8.627 14.306-20.214 15.372-33.096 7.761 4.553 14.894 10.082 21.22 16.408 19.059 19.059 30.845 45.38 30.845 74.461z" fill="#46cc8d"/></g><g><path d="m339.892 393.187v111.342h-19.417v-111.342c0-31.223-13.589-59.277-35.178-78.545 1.315-3.925 2.182-8.06 2.531-12.324 7.761 4.553 14.894 10.082 21.22 16.408 19.058 19.059 30.844 45.38 30.844 74.461z" fill="#00c27a"/></g><g><path d="m234.181 301.533c-53.163 0-96.26-43.097-96.26-96.259v-114.47h96.26 96.26v114.469c0 53.163-43.097 96.26-96.26 96.26z" fill="#fed2a4"/></g><g><path d="m330.437 90.803v114.47c0 53.16-43.098 96.258-96.258 96.258-3.357 0-6.675-.169-9.943-.508 48.488-4.981 86.306-45.947 86.306-95.75v-114.47z" fill="#ffbd86"/></g><g><path d="m116.517 168.099c-6.424-12.417-10.8-26.611-13.606-40.252-2.225-10.819-3.495-22.111-2.457-33.147 1.654-17.585 8.851-30.423 27.815-31.575 4.073-.247 15.012 3.211 15.013 3.211 0 0 3.858-9.994 3.859-9.997 8.377-21.699 27.052-37.689 48.954-44.803 13.887-4.511 28.61-4.99 42.967-2.765 17.169 2.661 33.499 9.765 50.621 12.698 18.306 3.136 36.929 3.516 55.446 4.172 60.605 2.147 87.149 75.642 48.878 119.425-14.914 17.062-40.416 28.041-63.059 23.855-21.749-4.021-42.371-17.961-56.362-34.816-10.748-12.948-22.213-27.622-38.665-33.407-10.108-3.554-20.697-2.063-29.642 3.568-.748.471-6.122 4.198-10.01 7.185-2.401 1.844-5.754 1.928-8.165.097-10.355-7.865-26.443-11.528-36.602-2.156-3.616 3.336-6.167 7.72-8.314 12.095-3.268 6.659-5.013 14.088-5.269 21.491-.252 7.31 0 25.12 0 25.12-5.434.302-15.954.001-21.402.001z" fill="#dc8758"/></g><g><path d="m394.009 145.069c-14.914 17.056-40.418 28.035-63.063 23.851-21.748-4.015-42.371-17.963-56.358-34.819-1.116-1.335-2.232-2.7-3.367-4.065 12.633 11.009 28.104 19.427 44.204 22.396 22.645 4.184 48.139-6.795 63.053-23.851 23.103-26.43 22.595-63.691 5.22-89.543 31.262 23.621 39.023 73.185 10.311 106.031z" fill="#c86d36"/></g><g><path d="m129.265 390.352h210.625v65.558h-210.625z" fill="#eaf6ff"/></g><g><path d="m320.475 390.352h19.415v65.558h-19.415z" fill="#d8ecfe"/></g><g><path d="m187.232 178.946c-4.127 0-7.472 3.345-7.472 7.472v17.979c0 4.127 3.345 7.472 7.472 7.472s7.472-3.345 7.472-7.472v-17.979c0-4.127-3.346-7.472-7.472-7.472z"/><path d="m273.658 204.397c0 4.127 3.345 7.472 7.472 7.472s7.472-3.345 7.472-7.472v-17.979c0-4.127-3.345-7.472-7.472-7.472s-7.472 3.345-7.472 7.472z"/><path d="m246.092 234.774c-3.181 2.859-7.293 4.433-11.577 4.433-4.52 0-8.797-1.73-12.045-4.87-2.966-2.868-7.697-2.79-10.565.177-2.869 2.966-2.79 7.697.177 10.566 6.049 5.85 14.016 9.071 22.434 9.071 7.978 0 15.637-2.934 21.566-8.263 3.069-2.758 3.321-7.482.563-10.551-2.76-3.07-7.484-3.323-10.553-.563z"/><path d="m413.099 65.75c-11.291-27.526-35.415-45.247-64.531-47.403-4.116-.286-7.698 2.784-8.003 6.9-.305 4.115 2.784 7.699 6.9 8.003 23.345 1.729 42.713 15.998 51.809 38.172 9.69 23.621 5.517 49.956-10.89 68.726-14.087 16.114-37.148 24.925-56.074 21.425-21.616-3.997-40.06-17.846-53.724-34.358-10.626-12.847-22.669-27.409-40.183-33.567-12.115-4.26-24.936-2.736-36.103 4.293-.98.618-6.192 4.238-10.18 7.276-13.098-9.657-32.82-13.184-45.681-1.318-4.761 4.391-7.821 9.946-9.956 14.296-3.647 7.431-5.731 15.912-6.029 24.525-.15 4.338-.129 12.084-.084 17.906 0 0-9.022.041-9.183.039-4.621-9.888-8.3-21.41-10.957-34.324-2.423-11.78-3.187-21.901-2.336-30.942 1.963-20.873 11.631-24.258 20.804-24.816 1.548-.014 7.328 1.303 12.34 2.878.724.228 1.486.345 2.245.345 3.089 0 5.858-1.9 6.97-4.781 2.825-7.318 3.615-9.363 3.859-9.997 7.186-18.615 23.744-33.713 44.292-40.388 11.911-3.867 25.205-4.706 39.515-2.487 8.36 1.296 16.512 3.709 25.143 6.263 8.178 2.42 16.634 4.922 25.361 6.417 7.295 1.249 15.22 2.173 24.225 2.826 4.115.298 7.694-2.797 7.992-6.912.298-4.116-2.797-7.694-6.912-7.992-8.517-.617-15.969-1.484-22.782-2.651-7.856-1.346-15.525-3.615-23.644-6.017-8.724-2.581-17.744-5.251-27.094-6.699-16.645-2.581-32.263-1.559-46.421 3.041-25.153 8.17-44.695 26.111-53.619 49.226l-1.401 3.628c-3.898-.984-8.105-1.785-10.952-1.617-25.931 1.575-33.238 21.715-34.801 38.334-.991 10.536-.148 22.099 2.577 35.351 2.872 13.962 6.889 26.521 11.959 37.424-6.286 5.08-10.315 12.845-10.315 21.537 0 15.266 12.42 27.686 27.686 27.686h6.082c3.42 33.136 22.502 61.695 49.698 78.125-.872.467-1.751.926-2.604 1.42-5.872 3.404-11.358 7.313-16.438 11.635.011.005.021.01.032.015-23.487 19.938-38.731 49.299-39.829 82.186-.042.319-.07 115.143-.07 115.143 0 4.127 3.345 7.472 7.472 7.472h210.626c4.127 0 7.472-3.345 7.472-7.472 0 0-.027-114.806-.066-115.117-1.368-41.272-25.025-76.987-59.286-95.499 27.009-16.464 45.946-44.915 49.351-77.909h6.08c15.266 0 27.686-12.42 27.686-27.686 0-5.801-1.804-11.182-4.867-15.634 12.583-4.568 24.35-12.37 33.376-22.696 20.157-23.059 25.317-55.335 13.463-84.231zm-282.65 135.305h-5.528c-7.026 0-12.742-5.716-12.742-12.742 0-6.58 5.013-12.009 11.419-12.673 2.801.031 5.619.06 6.851.063zm42.309 295.997h-36.021v-33.67h36.021zm108.695 0h-93.751v-33.67h93.751zm50.965 0h-36.021v-33.67h36.021zm-39.346-182.245c21.274 15.917 35.871 40.282 38.795 68.074h-118.858c-4.127 0-7.472 3.345-7.472 7.472s3.345 7.472 7.472 7.472h119.409v50.613h-36.021v-29.445c0-4.127-3.345-7.472-7.472-7.472s-7.472 3.345-7.472 7.472v29.445h-93.751v-29.445c0-4.127-3.345-7.472-7.472-7.472s-7.472 3.345-7.472 7.472v29.445h-36.021v-50.613h42.059c4.127 0 7.472-3.345 7.472-7.472s-3.345-7.472-7.472-7.472h-41.509c2.946-27.99 17.733-52.501 39.255-68.41 7.31 25.433 30.952 43.986 58.304 43.986 16.207 0 31.439-6.307 42.892-17.76 7.252-7.251 12.503-16.185 15.334-25.89zm-103.151-8.658c2.609-1.344 5.286-2.573 8.025-3.681 11.286 4.221 23.495 6.535 36.235 6.535 12.883 0 25.223-2.367 36.614-6.679 3.053 1.221 6.04 2.574 8.934 4.086-1.699 8.927-6.056 17.218-12.557 23.719-8.63 8.631-20.11 13.383-32.325 13.383-22.101.001-40.98-16.066-44.926-37.363zm133.048-100.876c0 48.958-39.83 88.787-88.788 88.787s-88.787-39.83-88.787-88.787c0 0-.078-59.914-.004-62.036.36-10.448 3.326-21.107 11.182-28.352 6.913-6.377 19.078-3.414 27.016 2.614 5.056 3.841 12.144 3.789 17.236-.124 3.735-2.869 8.85-6.408 9.439-6.786 7.227-4.549 15.461-5.558 23.183-2.843 13.6 4.782 23.78 17.091 33.625 28.993 14.471 17.496 33.567 31.926 55.899 38.009v30.525zm20.471-4.218h-5.528v-23.841c1.009.047 2.021.074 3.037.074 2.64 0 5.299-.158 7.959-.466 4.293 2.052 7.273 6.424 7.273 11.491.001 7.026-5.715 12.742-12.741 12.742z"/></g></g></svg>