<svg id="Capa_1" enable-background="new 0 0 512 512" height="512" viewBox="0 0 512 512" width="512" xmlns="http://www.w3.org/2000/svg"><g><g><path d="m380.633 159.584c14.006-3.97 25.115-.25 33.933 9.07 8.664 9.157 9.286 21.048 7.852 33.343-2.449 20.987-20.526 40.623-38.24 50.434-4.221 2.338-8.654 4.307-13.246 5.793-15.016 4.856-33.593 5.191-48.905 1.35-19.379-4.863-37.441-16.428-49.264-32.77-11.234-15.528-18.057-34.05-21.582-52.79-6.688-35.557-7.716-72.577-2.846-108.401 2.433-17.898 8.155-37.143 23.466-48.24 12.324-8.932 28.84-11.746 43.627-8.739 18.445 3.751 34.856 16.444 43.122 33.354 6.633 13.569 8.063 29.066 8.227 44.169.179 16.506-5.682 91.89-5.682 91.89 2.52-9.746 12.278-16.405 19.538-18.463z" fill="#537983"/></g><g><path d="m361.652 170.774-.557 7.272s-1.015 10.062-15.078 11.35c-2.55.234-4.702-1.883-4.507-4.436 1.258-16.522 5.492-73.299 5.34-87.358-.169-15.101-1.594-30.6-8.228-44.166-8.268-16.913-24.683-29.604-43.121-33.349-9.303-1.893-19.294-1.484-28.488 1.305 1.484-1.434 3.078-2.779 4.791-4.024 12.322-8.925 28.837-11.744 43.618-8.736 18.448 3.755 34.863 16.445 43.13 33.359 6.624 13.567 8.058 29.066 8.218 44.166.151 13.368-3.664 65.323-5.118 84.617z" fill="#3e5959"/></g><g><path d="m422.413 202.002c-2.44 20.988-20.519 40.62-38.24 50.432-2.998 1.664-6.116 3.138-9.313 4.383 13.746-10.708 25.679-26.605 27.631-43.369 1.434-12.292.807-24.185-7.849-33.339-7.869-8.307-17.541-12.172-29.474-10.09 4.184-5.359 10.429-9.005 15.469-10.429 14.005-3.974 25.111-.249 33.927 9.064 8.666 9.153 9.284 21.046 7.849 33.348z" fill="#3e5959"/></g><g><path d="m294.587 92.766c5.651-4.579 9.526-11.295 10.661-18.479 4.563-28.884-35.175-54.357-59.369-38.21-6.781 4.525-11.731 11.513-14.513 19.175z" fill="#8ac9fe"/></g><g><path d="m305.244 74.284c-1.125 7.182-5 13.905-10.658 18.477l-16.405-9.732c4.452-4.662 7.471-10.678 8.467-17.043 2.022-12.82-4.114-25.022-13.846-33.658 18.696 4.802 35.5 22.612 32.442 41.956z" fill="#60b7ff"/></g><g><g><path d="m314.228 504.53h-213.121v-124.334c0-58.852 47.709-106.561 106.561-106.561 58.852 0 106.561 47.709 106.561 106.561v124.334z" fill="#8ac9fe"/></g><g><path d="m314.23 380.192v124.341h-19.647v-124.341c0-55.544-42.49-101.149-96.734-106.099 3.236-.302 6.512-.454 9.819-.454 29.425 0 56.069 11.925 75.353 31.21s31.209 45.918 31.209 75.343z" fill="#60b7ff"/></g></g><g><path d="m209.119 295.61c-49.438 0-89.515-40.077-89.515-89.515v-69.679l113.341-60.595 65.69 70.691v59.584c-.001 49.437-40.078 89.514-89.516 89.514z" fill="#fed2a4"/></g><g><path d="m298.638 146.51v59.582c0 49.444-40.078 89.522-89.522 89.522-3.257 0-6.466-.173-9.636-.52 44.915-4.799 79.886-42.814 79.886-89.002v-80.319z" fill="#ffbd86"/></g><g><path d="m298.634 209.121h12.089c10.382 0 18.798-8.416 18.798-18.798 0-10.382-8.416-18.798-18.798-18.798h-12.089z" fill="#fed2a4"/></g><g><path d="m119.849 209.121h-12.089c-10.382 0-18.798-8.416-18.798-18.798 0-10.382 8.416-18.798 18.798-18.798h12.089z" fill="#fed2a4"/></g><g><path d="m209.303 45.735v-.002c-.02 0-.041.001-.061.001s-.041-.001-.061-.001v.002c-57.846.066-104.719 46.978-104.719 104.84v20.942s57.124 8.206 104.78-36.48c47.656 44.686 104.78 36.48 104.78 36.48v-20.942c-.001-57.862-46.874-104.774-104.719-104.84z" fill="#537983"/></g><g><path d="m314.019 150.574v20.948s-8.407 1.205-21.446.169c.996-.09 1.524-.169 1.524-.169v-20.948c0-54.526-41.616-99.32-94.817-104.36 3.257-.319 6.564-.478 9.901-.478h.12c57.843.07 104.718 46.975 104.718 104.838z" fill="#3e5959"/></g><g><path d="m165.46 181.091c-4.126 0-7.471 3.345-7.471 7.47v16.719c0 4.126 3.344 7.471 7.471 7.471s7.471-3.345 7.471-7.471v-16.719c-.001-4.125-3.345-7.47-7.471-7.47z"/><path d="m252.779 212.751c4.126 0 7.471-3.345 7.471-7.471v-16.719c0-4.126-3.344-7.47-7.471-7.47-4.126 0-7.471 3.345-7.471 7.47v16.719c0 4.126 3.344 7.471 7.471 7.471z"/><path d="m188.027 232.925c-2.868 2.966-2.789 7.695.177 10.563 5.725 5.535 13.262 8.583 21.225 8.583 7.547 0 14.793-2.776 20.403-7.817 3.069-2.758 3.321-7.481.563-10.55-2.756-3.068-7.48-3.321-10.549-.563-2.863 2.573-6.562 3.99-10.417 3.99-4.067 0-7.916-1.556-10.838-4.383-2.967-2.87-7.696-2.789-10.564.177z"/><path d="m419.993 163.52c-11.156-11.79-25.469-15.636-41.397-11.123-2.695.763-5.56 1.984-8.362 3.617.378-5.2.801-11.113 1.221-17.208 1.929-27.946 2.867-45.687 2.792-52.73-.087-7.96-.502-14.487-1.307-20.539-.545-4.091-4.303-6.963-8.391-6.421-4.089.544-6.964 4.301-6.42 8.39.724 5.439 1.097 11.391 1.177 18.731.145 13.348-4.027 70.259-5.654 91.16-.179 2.296.698 4.609 2.406 6.167 4.178 3.809 10.889 1.685 12.268-3.647 1.646-6.364 8.618-11.522 14.343-13.145 10.673-3.025 19.08-.793 26.469 7.017 5.646 5.966 7.398 14.144 5.859 27.343-2.201 18.869-19.396 36.431-34.439 44.765-17.358 9.615-37.415 11.273-56.715 6.431-8.734-2.192-17.055-5.858-24.508-10.675 3.125-7.903 5.247-16.308 6.194-25.061h5.192c14.485 0 26.269-11.784 26.269-26.269 0-10.648-6.372-19.828-15.5-23.948v-15.801c0-21.257-5.943-41.158-16.254-58.129 3.814-4.943 6.417-10.836 7.391-16.994 2.584-16.359-5.968-33.023-22.319-43.493-5.192-3.324-10.621-5.665-16.051-7.023.629-.526 1.268-1.037 1.928-1.515 10.216-7.405 24.328-10.196 37.754-7.467 13.312 2.707 25.553 10.747 33.582 22.06 2.388 3.363 7.05 4.156 10.416 1.767 3.365-2.388 4.157-7.051 1.769-10.416-10.202-14.373-25.799-24.598-42.79-28.053-17.449-3.548-35.954.194-49.499 10.01-4.872 3.531-9.068 7.896-12.645 13.086-4.645.981-9.053 2.792-13.04 5.453-4.115 2.747-7.782 6.331-10.839 10.518-6.983-1.375-14.193-2.107-21.59-2.118l-.068.001c-.055.005-.074 0-.111 0-61.837.099-112.134 50.472-112.134 112.314v15.805c-9.127 4.119-15.499 13.297-15.499 23.944 0 14.485 11.784 26.268 26.268 26.268h4.947c2.876 26.594 16.538 50.002 36.52 65.735-33.268 19.94-55.589 56.341-55.589 97.869v27.918c0 4.126 3.344 7.47 7.471 7.47s7.471-3.345 7.471-7.47v-27.918c0-38.723 22.335-72.312 54.792-88.604 13.637 7.326 29.215 11.489 45.749 11.489 15.959 0 31.029-3.877 44.321-10.735 31.656 16.561 53.317 49.716 53.317 87.85v116.863h-36.628v-70.419c5.667-4.101 10.238-9.698 12.903-16.218 5.116-12.514 2.914-27.331-5.61-37.747-2.615-3.194-7.319-3.664-10.513-1.051-3.192 2.613-3.663 7.32-1.051 10.512 5.024 6.139 6.367 15.234 3.343 22.632-3.008 7.357-10.365 12.99-18.309 14.017-4.06.522-7.722-.282-9.792-2.158-3.057-2.77-7.78-2.538-10.552.52-2.771 3.058-2.538 7.782.519 10.552 4.434 4.018 10.637 6.184 17.454 6.183.425 0 6.644-.161 6.665-.671v63.848h-95.042s0-63.738 0-63.847c0 .351 6.266.67 6.664.67 6.816 0 13.02-2.166 17.454-6.183 3.057-2.771 3.29-7.495.52-10.552-2.771-3.057-7.495-3.291-10.552-.52-2.069 1.875-5.731 2.679-9.792 2.158-7.942-1.027-15.3-6.66-18.309-14.017-3.024-7.398-1.68-16.492 3.343-22.631 2.614-3.193 2.143-7.9-1.05-10.513-3.191-2.612-7.9-2.143-10.512 1.05-8.525 10.416-10.728 25.233-5.612 37.748 2.666 6.52 7.238 12.117 12.904 16.217v70.419h-36.627v-54.073c0-4.126-3.344-7.47-7.471-7.47s-7.471 3.345-7.471 7.47v61.543c0 4.126 3.344 7.471 7.471 7.471h213.121c4.126 0 7.471-3.345 7.471-7.471v-124.332c0-40.851-21.603-76.739-53.974-96.879 10.062-7.655 18.581-17.232 25.021-28.173 8.434 5.236 17.738 9.235 27.463 11.676 22.458 5.635 47.21 3.436 67.59-7.853 16.534-9.158 31.262-24.132 38.338-41.822 6.563-16.405 6.666-40.088-6.142-53.625zm-97.943 26.804c0 6.246-5.082 11.327-11.327 11.327h-4.618v-22.084c2.818-.079 5.056-.241 6.601-.386 5.302.942 9.344 5.574 9.344 11.143zm-72.024-148.034c8.54-5.698 21.189-4.815 32.227 2.253 11.107 7.111 17.237 18.328 15.617 28.577-.339 2.143-1.015 4.23-1.963 6.187-12.802-15.549-29.697-27.606-49.016-34.518.999-.916 2.037-1.767 3.135-2.499zm-137.893 159.361h-4.373c-6.246 0-11.326-5.082-11.326-11.328 0-5.568 4.042-10.2 9.343-11.142 1.5.141 3.649.298 6.357.38v22.09zm179.031 4.449c-.003 45.238-36.807 82.04-82.045 82.04-43.774 0-79.521-34.46-81.8-77.677v-31.332c20.992-1.746 52.618-9.006 81.922-34.067 29.31 25.066 60.932 32.32 81.922 34.064v26.972zm-76.813-76.513c-2.873-2.694-7.346-2.694-10.219 0-35.289 33.09-76.577 35.417-92.2 34.966v-13.978c0-53.611 43.599-97.281 97.196-97.371.059.001.113.001.166.001 53.627.062 97.256 43.742 97.256 97.369v13.977c-15.612.454-56.918-1.882-92.199-34.964z"/></g></g></svg>