<svg id="Capa_1" enable-background="new 0 0 512 512" viewBox="0 0 512 512" xmlns="http://www.w3.org/2000/svg"><g><g><g><g><g><path d="m131.8 366.175h85.233v65.456h-85.233z" fill="#fec0b7"/></g></g></g><g><g><g><path d="m187.033 366.175h30v65.456h-30z" fill="#feb3a7"/></g></g></g><g><g><g><circle cx="366.858" cy="248.625" fill="#9cf8d2" r="137.642"/></g></g></g><g><g><g><path d="m448.477 137.793c22.372 24.476 36.022 57.059 36.022 92.833 0 76.018-61.624 137.642-137.642 137.642-30.556 0-58.782-9.963-81.62-26.81 25.168 27.535 61.375 44.81 101.62 44.81 76.018 0 137.642-61.625 137.642-137.642.001-45.462-22.044-85.77-56.022-110.833z" fill="#6cf5c2"/></g></g></g><g><g><g><circle cx="366.858" cy="248.625" fill="#00c285" r="92.041"/></g></g></g><g><g><g><circle cx="366.858" cy="248.625" fill="#6cf5c2" r="31.877"/></g></g></g><g><g><g><path d="m247.781 439.127-73.365-7.495-73.365 7.495-61.489 13.795c-18.742 4.205-32.062 20.844-32.062 40.053 0 4.62 3.745 8.366 8.366 8.366h158.551 158.551c4.62 0 8.366-3.746 8.366-8.366v-6.697c0-15.294-10.606-28.542-25.528-31.89z" fill="#0593fc"/></g></g></g><g><g><g><path d="m97.307 149.732c-18.71 6.079-30.132 24.959-26.834 44.353l7.71 45.343 96.234 43.065 96.234-43.065 7.71-45.343c3.298-19.394-8.124-38.274-26.834-44.353-50.118-16.284-104.104-16.284-154.22 0z" fill="#fdc102"/></g></g></g><g><g><g><path d="m210.103 380.915c-22.797 9.724-48.575 9.724-71.373 0-26.799-11.431-44.188-37.753-44.188-66.888v-91.998c0-15.383 12.471-27.854 27.854-27.854h104.04c15.383 0 27.854 12.471 27.854 27.854v91.998c0 29.135-17.389 55.457-44.187 66.888z" fill="#ffd9d7"/></g></g></g><g><g><g><path d="m226.436 194.175h-30c15.383 0 27.854 12.47 27.854 27.854v91.999c0 29.135-17.389 55.457-44.188 66.888-6.689 2.853-13.635 4.862-20.686 6.041 16.982 2.839 34.578.83 50.686-6.041 26.799-11.431 44.188-37.753 44.188-66.888v-91.999c0-15.384-12.47-27.854-27.854-27.854z" fill="#fecec8"/></g></g></g><g><g><g><path d="m315.804 454.388-14.469-3.246c6.218 7.806 9.998 18.73 9.998 30.604v19.595h21.634c4.62 0 8.366-3.745 8.366-8.366v-6.697c0-15.294-10.606-28.542-25.529-31.89z" fill="#0182fc"/></g></g></g><g><g><g><path d="m94.542 314.87h-23.25c-3.416 0-6.185-2.769-6.185-6.185v-64.518c0-3.416 2.769-6.185 6.185-6.185h23.251v76.888z" fill="#537983"/></g></g></g><g><g><g><path d="m65.106 307.018h-14.58c-6.597 0-11.945-5.348-11.945-11.945v-37.295c0-6.597 5.348-11.945 11.945-11.945h14.581v61.185z" fill="#a8d3d8"/></g></g></g><g><g><g><path d="m254.29 314.87h23.251c3.416 0 6.185-2.769 6.185-6.185v-64.518c0-3.416-2.769-6.185-6.185-6.185h-23.251z" fill="#537983"/></g></g></g><g><g><g><path d="m283.726 307.018h14.581c6.597 0 11.945-5.348 11.945-11.945v-37.295c0-6.597-5.348-11.945-11.945-11.945h-14.581z" fill="#a8d3d8"/></g></g></g><g><g><g><path d="m140.598 366.175h-24.54c-6.906 0-12.504-5.598-12.504-12.504v-.116c0-6.906 5.598-12.504 12.504-12.504h24.54c6.906 0 12.504 5.598 12.504 12.504v.116c0 6.906-5.599 12.504-12.504 12.504z" fill="#cbe5e8"/></g></g></g><g><g><g><path d="m174.416 431.631-46.971-20.252c-3.987-1.719-8.633-.285-10.957 3.383l-15.438 24.365 34.666 32.287c4.557 4.244 11.854 3.278 15.149-2.007z" fill="#60b7ff"/></g></g></g><g><g><g><path d="m174.416 431.631 46.97-20.252c3.987-1.719 8.633-.285 10.957 3.383l15.438 24.365-34.666 32.287c-4.557 4.244-11.854 3.278-15.149-2.007z" fill="#60b7ff"/></g></g></g><g><g><g><circle cx="413.018" cy="328.267" fill="#fdd602" r="13.727"/></g></g></g><g><g><g><circle cx="423.362" cy="176.075" fill="#fdd602" r="13.727"/></g></g></g><g><g><g><path d="m323.48 62.187c0 6.447-5.227 18.432-11.674 18.432s-11.674-11.984-11.674-18.432 5.227-11.674 11.674-11.674c6.448 0 11.674 5.227 11.674 11.674z" fill="#fe7c66"/></g></g></g><g><g><g><path d="m423.362 62.187c0 6.447 5.227 18.432 11.674 18.432s11.674-11.984 11.674-18.432-5.227-11.674-11.674-11.674-11.674 5.227-11.674 11.674z" fill="#fe7c66"/></g></g></g><g><g><g><path d="m398.103 47.545c0 14.613-11.05 30.067-24.682 30.067-13.631 0-24.682-15.454-24.682-30.067s11.05-22.851 24.682-22.851c13.631.001 24.682 8.239 24.682 22.851z" fill="#f9f3f1"/></g></g></g></g><g><path d="m366.858 103.483c-25.679 0-50.676 6.848-72.526 19.444-12.286-10.457-27.941-16.295-44.342-16.295h-151.147c-20.171 0-39.216 8.829-52.25 24.225-13.034 15.395-18.601 35.634-15.273 55.529l9.161 54.772c-5.623 3.412-9.4 9.574-9.4 16.618v37.296c0 10.723 8.723 19.445 19.445 19.445h8.405c.457.964 1.016 1.869 1.676 2.693v11.093c0 17.268 10.99 31.446 36.839 32.647 2.686 6.84 9.019 11.862 16.604 12.622.413.681.937 1.31 1.581 1.852 2.747 2.311 5.647 4.418 8.67 6.335v21.398c-5.578-.134-10.985 2.602-14.146 7.591l-13.775 21.74-58.46 13.116c-22.326 5.009-37.92 24.489-37.92 47.371 0 8.749 7.117 15.866 15.866 15.866h52.241c4.142 0 7.5-3.357 7.5-7.5s-3.358-7.5-7.5-7.5h-52.241c-.478 0-.866-.389-.866-.866 0-15.812 10.776-29.273 26.204-32.734l57.63-12.929 31.772 29.591c3.249 3.026 7.466 4.669 11.839 4.669.765 0 1.536-.051 2.306-.152 5.171-.686 9.72-3.617 12.48-8.044l17.186-27.566 17.186 27.566c2.76 4.427 7.309 7.358 12.48 8.044.771.102 1.54.152 2.306.152 4.372 0 8.59-1.644 11.839-4.669l31.772-29.591 64.164 14.395c11.582 2.598 19.67 12.702 19.67 24.571v6.697c0 .478-.389.866-.866.866h-229.86c-4.142 0-7.5 3.357-7.5 7.5s3.358 7.5 7.5 7.5h229.86c8.749 0 15.866-7.117 15.866-15.866v-6.697c0-18.939-12.907-35.062-31.387-39.208l-64.992-14.581-13.776-21.74c-3.161-4.99-8.568-7.725-14.146-7.59v-21.393c14.673-9.289 25.805-22.995 31.928-38.939 12.208 14.272 27.182 26.2 43.819 34.802 20.418 10.559 43.44 16.139 66.578 16.139 80.032 0 145.142-65.11 145.142-145.143 0-80.031-65.11-145.142-145.142-145.142zm-64.14 80.429-9.102 54.42h-3.715c-1.893-3.993-5.655-6.922-10.156-7.656l6.008-35.334c2.418-14.219-1.963-28.351-10.918-38.74 5.344-5.339 11.119-10.162 17.236-14.453 9.249 11.806 13.133 26.903 10.647 41.763zm-4.411 69.42c2.451 0 4.445 1.994 4.445 4.445v37.296c0 2.451-1.994 4.445-4.445 4.445h-7.081v-46.187h7.081zm-71.87-66.657h-4.931c5.471-11.364 6.618-24.278 3.308-36.365 8.19 1.757 16.331 3.936 24.394 6.556 15.059 4.893 24.412 20.354 21.758 35.963l-6.402 37.653h-2.773v-8.453c-.001-19.495-15.86-35.354-35.354-35.354zm-81.681 0c-7.591-11.217-9.665-27.356-3.556-39.415 22.064-3.089 44.367-3.089 66.431 0 6.109 12.058 4.036 28.197-3.556 39.414h-59.319zm-57.714 35.353v8.453h-2.774l-6.402-37.653c-2.654-15.609 6.699-31.07 21.758-35.963 8.063-2.62 16.204-4.799 24.394-6.556-3.31 12.087-2.163 25.001 3.308 36.365h-4.931c-19.493.001-35.353 15.86-35.353 35.354zm0 85.341h-14.436v-61.888h14.436zm174.748-61.888h14.436v61.888h-14.436zm-203.749-104.931c10.178-12.022 25.05-18.917 40.802-18.917h151.147c11.272 0 22.083 3.547 31.057 9.961-6.276 4.596-12.203 9.715-17.716 15.322-2.947-1.762-6.118-3.221-9.487-4.316-51.962-16.885-106.892-16.885-158.855 0-22.084 7.176-35.803 29.85-31.91 52.742l6.008 35.334c-4.501.734-8.262 3.663-10.155 7.656h-3.715l-9.102-54.42c-2.599-15.536 1.748-31.341 11.926-43.362zm-11.96 154.523v-37.296c0-2.451 1.994-4.445 4.445-4.445h7.081v46.187h-7.081c-2.451 0-4.445-1.995-4.445-4.446zm29.525 33.232v-5.936h11.882c.849 8.085 2.918 16.02 6.139 23.482-10.165-1.208-18.021-8.605-18.021-17.546zm35.447 25.366v-.115c0-2.76 2.245-5.005 5.004-5.005h24.54c2.759 0 5.004 2.245 5.004 5.005v.115c0 2.759-2.245 5.004-5.004 5.004h-24.54c-2.759 0-5.004-2.245-5.004-5.004zm63.363 69.794-35.116-15.141v-19.101c11.26 4.291 23.187 6.444 35.116 6.444 11.93 0 23.857-2.154 35.117-6.445v19.102zm-29.914 41.974c-.521.836-1.302 1.054-1.722 1.109-.418.054-1.231.048-1.951-.623l-30.11-28.044 12.105-19.105c.352-.556 1.046-.769 1.652-.51l38.961 16.799zm81.506-46.662 12.106 19.104-30.11 28.044c-.722.672-1.532.679-1.952.623s-1.2-.273-1.721-1.109l-18.936-30.374 38.962-16.799c.605-.258 1.299-.044 1.651.511zm-18.848-44.76c-20.808 8.876-44.677 8.877-65.487 0-.267-.114-.528-.239-.794-.356 10.9-.153 19.723-9.055 19.723-19.99v-.115c0-11.03-8.974-20.005-20.004-20.005h-24.54c-3.68 0-7.12 1.017-10.085 2.757-2.585-7.12-3.93-14.677-3.93-22.281v-91.999c0-11.223 9.13-20.354 20.354-20.354h104.041c11.223 0 20.354 9.131 20.354 20.354v91.999c-.002 26.174-15.558 49.721-39.632 59.99zm159.698 4.751c-41.211 0-80.42-19.843-104.884-53.079-.273-.371-.578-.705-.902-1.01.102-.768.198-1.536.278-2.309h16.191c5.458 0 10.166-3.219 12.361-7.851h2.389c.138.185.282.367.439.542 18.868 21.039 45.886 33.105 74.128 33.105 10.646 0 21.085-1.68 31.092-4.969 3.849 3.884 9.181 6.297 15.069 6.297 11.705 0 21.227-9.522 21.227-21.228 0-1.964-.289-3.857-.791-5.664 20.966-18.883 32.944-45.704 32.944-73.978 0-23.509-8.349-46.318-23.507-64.242 1.09-2.553 1.697-5.36 1.697-8.308 0-11.704-9.522-21.227-21.227-21.227-4.809 0-9.235 1.626-12.798 4.332-13.662-6.693-28.355-10.096-43.705-10.096-6.666 0-13.33.663-19.805 1.972-4.06.82-6.687 4.777-5.866 8.837.821 4.061 4.779 6.688 8.837 5.866 5.5-1.111 11.163-1.675 16.834-1.675 12.507 0 24.496 2.652 35.684 7.88-.262 1.331-.407 2.704-.407 4.11 0 11.704 9.522 21.227 21.227 21.227 3.235 0 6.29-.749 9.037-2.048 12.253 15.035 19 33.915 19 53.372 0 23.514-9.76 45.844-26.887 61.822-3.316-2.146-7.257-3.407-11.493-3.407-11.705 0-21.227 9.522-21.227 21.227 0 .382.037.755.057 1.133-8.061 2.492-16.445 3.767-24.991 3.767-21.254 0-41.69-8.054-57.221-22.321 4.904-3.534 8.115-9.278 8.115-15.771v-37.296c0-7.044-3.777-13.206-9.4-16.618l9.161-54.772c3.091-18.484-1.505-37.26-12.624-52.177 18.85-10.204 40.134-15.727 61.969-15.727 71.761 0 130.142 58.381 130.142 130.142s-58.382 130.142-130.143 130.142zm39.934-50.501c0-3.434 2.793-6.227 6.227-6.227 3.433 0 6.227 2.793 6.227 6.227s-2.793 6.228-6.227 6.228c-3.434-.001-6.227-2.795-6.227-6.228zm22.796-152.192c0 3.434-2.793 6.227-6.227 6.227-3.433 0-6.227-2.793-6.227-6.227s2.793-6.227 6.227-6.227c3.434.001 6.227 2.794 6.227 6.227z"/><path d="m327.48 248.625c0 21.713 17.665 39.378 39.377 39.378s39.377-17.665 39.377-39.378-17.665-39.377-39.377-39.377-39.377 17.664-39.377 39.377zm39.378-24.377c13.442 0 24.377 10.936 24.377 24.377 0 13.442-10.936 24.378-24.377 24.378s-24.377-10.936-24.377-24.378c-.001-13.441 10.935-24.377 24.377-24.377z"/><path d="m258.501 47.202c6.94 6.941 16.168 10.764 25.984 10.764h8.631c-.307 1.36-.484 2.77-.484 4.222 0 8.801 6.768 25.932 19.174 25.932 5.733 0 10.993-3.784 14.811-10.655 2.691-4.844 4.363-10.697 4.363-15.276 0-1.452-.176-2.861-.484-4.222h12.19c1.458 5.3 3.976 10.384 7.382 14.724 6.197 7.895 14.708 12.423 23.352 12.423s17.155-4.528 23.352-12.423c3.406-4.339 5.924-9.424 7.382-14.724h12.19c-.307 1.36-.484 2.77-.484 4.222 0 8.801 6.768 25.932 19.174 25.932 5.733 0 10.993-3.784 14.811-10.655 2.691-4.844 4.363-10.697 4.363-15.276 0-1.452-.176-2.861-.484-4.222h8.631c9.816 0 19.044-3.822 25.983-10.763l4.889-4.888c2.929-2.929 2.93-7.678.001-10.606-2.928-2.929-7.677-2.93-10.606-.001l-4.89 4.889c-4.107 4.107-9.568 6.369-15.377 6.369h-57.061c-1.755-13.056-11.042-22.504-24.375-25.067v-7.239c0-4.143-3.358-7.5-7.5-7.5s-7.5 3.357-7.5 7.5v7.239c-13.333 2.563-22.619 12.012-24.375 25.067h-57.061c-5.809 0-11.27-2.262-15.378-6.37l-4.889-4.888c-2.929-2.928-7.678-2.928-10.606.001s-2.928 7.678.001 10.606zm53.305 25.468c-1.833-1.903-4.174-7.189-4.174-10.482 0-2.302 1.873-4.174 4.174-4.174 2.302 0 4.174 1.872 4.174 4.174 0 3.292-2.341 8.579-4.174 10.482zm123.23 0c-1.833-1.903-4.174-7.189-4.174-10.482 0-2.302 1.873-4.174 4.174-4.174s4.174 1.872 4.174 4.174c-.001 3.292-2.342 8.579-4.174 10.482zm-61.615-40.476c8.306 0 17.182 4.032 17.182 15.351 0 11.389-8.511 22.567-17.182 22.567s-17.182-11.179-17.182-22.567c0-11.318 8.876-15.351 17.182-15.351z"/></g></g><g/><g/><g/><g/><g/><g/><g/><g/><g/><g/><g/><g/><g/><g/><g/></svg>