<svg id="Capa_1" enable-background="new 0 0 512 512" height="512" viewBox="0 0 512 512" width="512" xmlns="http://www.w3.org/2000/svg"><g><g><g><path d="m446.888 246.079-335.778-64.664c-8.177-1.677-14.56-8.113-16.234-16.37l-6.604-40.193c-1.532-7.554-7.373-13.443-14.854-14.978l-3.169-.65c-10.343-2.121-20.466 4.635-22.611 15.091l-12.506 60.971c-6.93 33.786 14.545 66.732 47.966 73.587l393.849 80.783c9.862 2.023 19.514-4.419 21.559-14.389 7.456-36.358-15.654-71.812-51.618-79.188z" fill="#fafafa"/></g><g><g><path d="m184.694 279.712 292.253 59.944c9.862 2.022 19.514-4.419 21.559-14.389 6.286-30.649-9.15-60.654-35.697-73.74 6.501 13.033 8.864 28.301 5.697 43.74-2.045 9.969-11.697 16.411-21.559 14.389l-393.85-80.783c-4.725-.969-9.2-2.476-13.401-4.417 7.99 17.131 23.598 30.355 43.401 34.417z" fill="#f0eef0"/></g></g><g><circle cx="242.948" cy="354.732" fill="#7ca1b1" r="20.096"/></g><g><path d="m498.633 493.517h-485.266c-3.24 0-5.867-2.627-5.867-5.867v-30.852c0-3.24 2.627-5.867 5.867-5.867h485.267c3.24 0 5.867 2.627 5.867 5.867v30.852c-.001 3.24-2.628 5.867-5.868 5.867z" fill="#6fd7a3"/></g><g><path d="m458.813 291.652 40.049 8.214c-4.629-26.219-24.557-48.165-51.974-53.788l-11.854-2.283-1.847 9.006c-3.653 17.805 7.821 35.199 25.626 38.851z" fill="#60b7ff"/></g><g><path d="m220.421 236.079 144.271 32.126c7.013 1.562 12.596-5.991 9.11-12.324l-124.733-226.568c-2.901-5.269-7.897-9.025-13.732-10.325-13.297-2.961-25.871 7.49-25.567 21.249l4.155 187.856c.086 3.862 2.765 7.155 6.496 7.986z" fill="#fe646f"/></g><g><path d="m373.802 255.882-124.733-226.569c-2.901-5.269-7.897-9.025-13.732-10.325-7.454-1.66-14.679.896-19.537 5.885 1.266 1.316 2.369 2.805 3.269 4.44l124.733 226.568c1.437 2.609 1.316 5.417.208 7.718l20.682 4.605c7.013 1.563 12.596-5.99 9.11-12.322z" fill="#fd4755"/></g><g><circle cx="276.096" cy="350.165" fill="#7ca1b1" r="20.096"/></g></g><g><path d="m498.633 443.431h-64.809c-4.143 0-7.5 3.357-7.5 7.5s3.357 7.5 7.5 7.5h63.176v27.586h-482v-27.586h381.825c4.143 0 7.5-3.357 7.5-7.5s-3.357-7.5-7.5-7.5h-383.458c-7.371 0-13.367 5.996-13.367 13.367v30.852c0 7.371 5.996 13.367 13.367 13.367h485.267c7.37 0 13.366-5.996 13.366-13.367v-30.852c0-7.371-5.997-13.367-13.367-13.367z"/><path d="m81.59 266.22 55.825 11.45c.509.104 1.015.155 1.515.155 3.487-.001 6.611-2.445 7.339-5.995.833-4.058-1.782-8.021-5.84-8.854l-55.825-11.45c-14.186-2.91-26.381-11.235-34.338-23.443-7.974-12.233-10.74-26.896-7.788-41.29l12.505-60.971c1.311-6.387 7.48-10.533 13.756-9.252l3.17.65c4.499.923 8.014 4.449 8.986 9.001l6.579 40.039c.015.092.031.184.05.275 2.276 11.218 10.942 19.941 22.167 22.242l96.273 18.541.463 20.94c.161 7.329 5.245 13.556 12.362 15.141h.001l144.271 32.126c1.174.262 2.349.39 3.508.39 4.899 0 9.518-2.28 12.58-6.366 3.819-5.094 4.288-11.717 1.223-17.284l-6.995-12.706 52.784 10.165-.322 1.57c-4.477 21.828 9.64 43.229 31.467 47.705l34.835 7.145c.528 5.747.238 11.669-.982 17.616-.59 2.874-2.246 5.347-4.665 6.96-2.394 1.598-5.249 2.159-8.041 1.589l-111.783-22.927c-.003 0-.006-.002-.009-.002l-89.011-18.257c-.027-.006-.055-.012-.082-.017l-33.07-6.783c-.025-.005-.05-.01-.075-.016l-62.83-12.887c-4.057-.832-8.021 1.782-8.854 5.84s1.782 8.021 5.84 8.854l56.869 11.664v30.403c-11.582 3.276-20.097 13.934-20.097 26.551 0 15.217 12.38 27.597 27.597 27.597 7.641 0 14.565-3.123 19.567-8.158 4.012 2.281 8.645 3.591 13.581 3.591 15.217 0 27.597-12.38 27.597-27.597 0-12.617-8.514-23.276-20.097-26.552v-15.959l66.402 13.62c.003 0 .006.002.01.002l125.43 25.727c1.729.354 3.464.529 5.188.529 5.01 0 9.916-1.479 14.195-4.335 5.726-3.821 9.644-9.653 11.031-16.423 8.276-40.351-17.499-79.847-57.547-88.06l-84.334-16.241-108.332-196.777c-3.937-7.149-10.742-12.263-18.672-14.027-8.545-1.905-17.356.205-24.162 5.786-6.892 5.651-10.73 14.017-10.533 22.949l3.353 151.575-93.009-17.911c-5.194-1.065-9.25-5.138-10.365-10.392l-6.579-40.04c-.015-.092-.031-.184-.05-.275-2.133-10.515-10.258-18.692-20.697-20.833l-3.17-.65c-14.377-2.953-28.492 6.441-31.465 20.932l-12.505 60.971c-3.751 18.288-.229 36.931 9.916 52.495 10.16 15.588 25.748 26.223 43.889 29.944zm161.358 101.108c-6.946 0-12.597-5.65-12.597-12.597 0-6.945 5.65-12.596 12.597-12.596s12.597 5.65 12.597 12.596c-.001 6.947-5.651 12.597-12.597 12.597zm45.745-17.163c0 6.946-5.65 12.597-12.597 12.597-2.293 0-4.439-.626-6.293-1.701.479-2.034.741-4.151.741-6.33 0-4.842-1.257-9.394-3.457-13.354 2.289-2.346 5.479-3.81 9.009-3.81 6.946.002 12.597 5.652 12.597 12.598zm-20.097-26.553c-4.625 1.309-8.75 3.803-12.048 7.123-1.905-1.083-3.949-1.946-6.101-2.554v-27.326l18.148 3.723v19.034zm219.764-33.555-28.04-5.751c-13.725-2.815-22.602-16.272-19.787-29.997l.359-1.748 4.489.864c20.281 4.16 35.959 18.467 42.979 36.632zm-266.043-261.004c3.218-2.64 7.372-3.643 11.391-2.743 3.728.829 6.932 3.242 8.791 6.62l124.733 226.569c.082.148.299.542-.083 1.053-.332.442-.654.37-.827.333l-144.272-32.126h.001c-.36-.08-.619-.422-.628-.831l-4.155-187.855c-.095-4.294 1.745-8.311 5.049-11.02z"/><path d="m168.733 223.978-66.299-12.98c-4.07-.797-8.007 1.855-8.802 5.919-.796 4.065 1.854 8.006 5.919 8.802l66.299 12.98c.487.096.972.141 1.449.141 3.514 0 6.652-2.481 7.353-6.06.796-4.066-1.855-8.006-5.919-8.802z"/></g></g></svg>