<svg id="Capa_1" enable-background="new 0 0 511.111 511.111" viewBox="0 0 511.111 511.111" xmlns="http://www.w3.org/2000/svg"><g><g><g><g><g><path d="m500.437 335.228-269.656-232.476-55.191 118.747 312.9 269.758c5.929 5.112 15.123.899 15.123-6.929v-142.171c-.001-2.662-1.16-5.192-3.176-6.929z" fill="#7ca1b1"/></g></g></g><g><g><g><path d="m98.737 213.1c-10.078 0-18.247-8.17-18.247-18.247v-112.63c0-10.078 8.17-18.247 18.247-18.247 10.078 0 18.247 8.17 18.247 18.247v112.629c0 10.078-8.169 18.248-18.247 18.248z" fill="#678d98"/></g></g></g><g><g><g><path d="m62.242 213.1c-10.078 0-18.247-8.17-18.247-18.247v-112.63c0-10.078 8.17-18.247 18.247-18.247 10.078 0 18.247 8.17 18.247 18.247v112.629c0 10.078-8.169 18.248-18.247 18.248z" fill="#a8d3d8"/></g></g></g><g><g><g><path d="m25.747 213.1c-10.078 0-18.247-8.17-18.247-18.247v-112.63c0-10.078 8.17-18.247 18.247-18.247 10.078 0 18.247 8.17 18.247 18.247v112.629c.001 10.078-8.169 18.248-18.247 18.248z" fill="#678d98"/></g></g></g><g><g><g><path d="m234.232 221.499h-110.699c-3.617 0-6.549-2.932-6.549-6.549v-152.824c0-3.617 2.932-6.549 6.549-6.549h110.698c3.617 0 6.549 2.932 6.549 6.549v152.824c.001 3.617-2.931 6.549-6.548 6.549z" fill="#deecf1"/></g></g></g><g><g><g><path d="m500.437 335.228-30-25c2.016 1.738 3.175 4.268 3.175 6.929v142.171c0 6.598-6.527 10.603-12.129 8.646l27.007 23.283c5.929 5.112 15.123.899 15.123-6.929v-142.171c-.001-2.662-1.16-5.192-3.176-6.929z" fill="#678d98"/></g></g></g><g><g><g><path d="m234.232 55.576h-23.451v71.492c0 38.346-31.085 69.431-69.431 69.431h-24.366v18.451c0 3.617 2.932 6.549 6.549 6.549h110.698c3.617 0 6.549-2.932 6.549-6.549v-152.824c.001-3.617-2.931-6.55-6.548-6.55z" fill="#cbe5e8"/></g></g></g></g><g><path d="m505.334 329.547-17.837-15.378v-25.003l11.217 9.67c1.417 1.221 3.159 1.819 4.895 1.819 2.105 0 4.2-.882 5.684-2.603 2.704-3.137 2.354-7.873-.783-10.578l-260.229-224.347v-1.002c0-7.747-6.303-14.049-14.05-14.049h-13.75v-22.97h7.665c4.143 0 7.5-3.358 7.5-7.5s-3.357-7.5-7.5-7.5h-101.26c-4.143 0-7.5 3.358-7.5 7.5s3.357 7.5 7.5 7.5h7.665v22.971h-11.019c-6.671 0-12.26 4.678-13.686 10.923-3.366-1.617-7.134-2.524-11.111-2.524-7.124 0-13.581 2.91-18.247 7.602-4.666-4.692-11.123-7.602-18.247-7.602-7.125 0-13.581 2.91-18.247 7.602-4.666-4.692-11.123-7.602-18.248-7.602-14.196 0-25.746 11.55-25.746 25.747v35.671c0 4.142 3.357 7.5 7.5 7.5s7.5-3.358 7.5-7.5v-35.671c0-5.926 4.821-10.747 10.747-10.747 5.927 0 10.748 4.821 10.748 10.747v112.629c0 5.926-4.821 10.748-10.748 10.748-5.926 0-10.747-4.822-10.747-10.748v-41.958c0-4.142-3.357-7.5-7.5-7.5s-7.5 3.358-7.5 7.5v41.958c0 14.197 11.55 25.748 25.747 25.748 7.125 0 13.582-2.91 18.248-7.602 4.666 4.692 11.123 7.602 18.247 7.602s13.581-2.91 18.247-7.602c4.666 4.692 11.123 7.602 18.248 7.602 3.976 0 7.744-.907 11.11-2.523 1.427 6.245 7.016 10.923 13.686 10.923h110.698c7.747 0 14.05-6.302 14.05-14.049v-87.208l247.258 213.166c.363.313.572.769.572 1.249v142.171c0 .702-.323 1.207-.962 1.499-.639.293-1.231.208-1.763-.25l-269.037-231.945c-3.137-2.704-7.872-2.356-10.578.783-2.704 3.137-2.354 7.873.783 10.577l269.038 231.943c3.11 2.682 6.932 4.068 10.819 4.068 2.352 0 4.729-.507 6.986-1.542 5.991-2.745 9.714-8.545 9.714-15.136v-142.169c0-4.848-2.105-9.444-5.777-12.61zm-32.837-53.276v24.967l-18.245-15.729v-25.003l18.247 15.731c0 .011-.002.022-.002.034zm-186.466-160.793 20.268 17.473c-.014.188-.029.376-.029.567v24.411l-20.455-17.635c.136-.564.216-24.816.216-24.816zm35.24 30.38 18.349 15.819c-.062.389-.104.785-.104 1.192v23.722l-18.245-15.729zm33.245 28.662 18.466 15.92c-.139.571-.221 24.813-.221 24.813l-18.245-15.73zm33.245 28.661 18.245 15.729v25.004l-18.245-15.73zm33.245 28.662 18.263 15.745c-.005.111-.017.221-.017.333v24.656l-18.246-15.73zm-215.525-183.766h-20.465v-22.971h20.465zm-55.929-22.971h20.465v22.971h-20.465zm-87.31 180.494c-5.926 0-10.747-4.821-10.747-10.748v-112.629c0-5.926 4.821-10.747 10.747-10.747s10.747 4.821 10.747 10.747v112.629c0 5.926-4.821 10.748-10.747 10.748zm36.495 0c-5.927 0-10.748-4.821-10.748-10.748v-112.629c0-5.926 4.821-10.747 10.748-10.747 5.926 0 10.747 4.821 10.747 10.747v112.629c0 5.926-4.821 10.748-10.747 10.748zm134.544 8.399h-108.797v-150.922h108.797zm15-131.066 22.75 19.614v25.003l-22.75-19.613z"/><path d="m433.947 363.416c1.41 1.199 3.136 1.785 4.853 1.785 2.125 0 4.235-.898 5.719-2.644 2.683-3.156 2.298-7.889-.858-10.572l-156.778-133.226c-3.155-2.682-7.889-2.296-10.571.859-2.683 3.156-2.298 7.889.858 10.572z"/></g></g><g/><g/><g/><g/><g/><g/><g/><g/><g/><g/><g/><g/><g/><g/><g/></svg>