<svg id="Capa_1" enable-background="new 0 0 512 512" height="512" viewBox="0 0 512 512" width="512" xmlns="http://www.w3.org/2000/svg"><g><g><g><path d="m496.5 504.5h-481c-4.418 0-8-3.582-8-8v-481c0-4.418 3.582-8 8-8h481c4.418 0 8 3.582 8 8v481c0 4.418-3.582 8-8 8z" fill="#b3dafe"/></g><g><path d="m315.168 287.818h-307.668v-48.303h307.668c3.808 0 6.895 3.087 6.895 6.895v34.513c0 3.808-3.087 6.895-6.895 6.895z" fill="#a8d3d8"/></g><g><path d="m315.168 239.516h-30c3.808 0 6.895 3.087 6.895 6.895v34.512c0 3.808-3.087 6.895-6.895 6.895h30c3.808 0 6.895-3.087 6.895-6.895v-34.512c0-3.808-3.087-6.895-6.895-6.895z" fill="#8ebac5"/></g><g><path d="m295.667 287.818h-288.167v208.682c0 4.418 3.582 8 8 8h280.167z" fill="#537983"/></g><g><path d="m496.5 7.5h-22v459c0 4.418-3.582 8-8 8h-459v22c0 4.418 3.582 8 8 8h481c4.418 0 8-3.582 8-8v-481c0-4.418-3.582-8-8-8z" fill="#8ac9fe"/></g><g><path d="m265.667 287.818v121.622c0 35.931-29.128 65.059-65.059 65.059h-193.108v22c0 4.418 3.582 8 8 8h280.167v-216.681z" fill="#3e5959"/></g><g><path d="m381.618 139.408h-251.237c-7.326 0-13.265-5.939-13.265-13.265v-60.63c0-7.326 5.939-13.265 13.265-13.265h251.237c7.326 0 13.265 5.939 13.265 13.265v60.631c0 7.326-5.939 13.264-13.265 13.264z" fill="#26a6fe"/></g><g><path d="m420.652 504.5h-60.033v-177.802c0-5.972 4.841-10.814 10.814-10.814 27.183 0 49.22 22.036 49.22 49.22v139.396z" fill="#678d98"/></g><g><path d="m360.619 474.5h60.033v30h-60.033z" fill="#537983"/></g><g><path d="m242.006 413.539h-178.402c-5.834 0-10.563-4.729-10.563-10.563v-32.859c0-5.834 4.729-10.563 10.563-10.563h178.402c5.834 0 10.563 4.729 10.563 10.563v32.859c0 5.834-4.73 10.563-10.563 10.563z" fill="#ffd15b"/></g></g><g><path d="m504.5 425.857c-4.142 0-7.5 3.358-7.5 7.5v63.143c0 .276-.224.5-.5.5h-68.348v-131.896c0-31.275-25.444-56.72-56.72-56.72-10.098 0-18.313 8.215-18.313 18.313v170.303h-49.952v-201.682h12c7.938 0 14.396-6.458 14.396-14.395v-34.513c0-7.938-6.458-14.395-14.396-14.395h-300.167v-79.613c0-4.142-3.358-7.5-7.5-7.5s-7.5 3.358-7.5 7.5v344.098c0 8.547 6.953 15.5 15.5 15.5h481c8.547 0 15.5-6.953 15.5-15.5v-63.143c0-4.142-3.358-7.5-7.5-7.5zm-189.937-178.841v33.303h-18.896-280.667v-33.303zm-299.063 249.984c-.276 0-.5-.224-.5-.5v-201.182h273.167v201.682zm352.619 0v-67.381h22.517c4.142 0 7.5-3.358 7.5-7.5s-3.358-7.5-7.5-7.5h-22.517v-22.219h22.517c4.142 0 7.5-3.358 7.5-7.5s-3.358-7.5-7.5-7.5h-22.517v-50.702c0-1.827 1.486-3.313 3.313-3.313 23.004 0 41.72 18.715 41.72 41.72v131.895z"/><path d="m496.5 0h-481c-8.547 0-15.5 6.953-15.5 15.5v100.902c0 4.142 3.358 7.5 7.5 7.5s7.5-3.358 7.5-7.5v-100.902c0-.276.224-.5.5-.5h158.251c-.012.171-.026.341-.026.515v29.233h-43.344c-11.45 0-20.765 9.315-20.765 20.765v60.631c0 11.45 9.315 20.765 20.765 20.765h251.237c11.45 0 20.765-9.315 20.765-20.765v-60.631c0-11.45-9.315-20.765-20.765-20.765h-35.5v-29.233c0-.174-.014-.344-.026-.515h150.408c.276 0 .5.224.5.5v382.857c0 4.142 3.358 7.5 7.5 7.5s7.5-3.358 7.5-7.5v-382.857c0-8.547-6.953-15.5-15.5-15.5zm-109.117 65.513v60.631c0 3.179-2.586 5.765-5.765 5.765h-251.237c-3.179 0-5.765-2.586-5.765-5.765v-60.631c0-3.179 2.586-5.765 5.765-5.765h251.237c3.179 0 5.765 2.586 5.765 5.765zm-56.264-49.998v29.233h-142.394v-29.233c0-.174-.014-.344-.026-.515h142.446c-.012.171-.026.341-.026.515z"/><path d="m187.849 82.254-14.522-11.955c-.324-.268-.675-.505-1.042-.716-.031-.018-.061-.038-.092-.056-.335-.187-.689-.344-1.053-.478-.057-.021-.113-.043-.17-.062-.35-.12-.711-.214-1.083-.281-.064-.011-.128-.019-.192-.029-.372-.057-.75-.096-1.138-.096-.005 0-.01 0-.014 0-.389 0-.769.039-1.142.097-.063.01-.126.017-.189.029-.373.067-.735.162-1.087.282-.056.019-.11.04-.165.06-.366.135-.72.292-1.057.48-.031.017-.06.037-.09.055-.365.211-.715.446-1.038.713l-14.526 11.959c-3.198 2.632-3.656 7.359-1.023 10.557 1.483 1.801 3.63 2.733 5.794 2.733 1.678 0 3.366-.56 4.763-1.71l2.266-1.866v21.902c0 4.142 3.358 7.5 7.5 7.5s7.5-3.358 7.5-7.5v-21.904l2.267 1.866c3.198 2.633 7.924 2.175 10.557-1.023 2.632-3.198 2.174-7.924-1.024-10.557z"/><path d="m314.524 107.434c-1.84.023-3.742.043-5.6.058 1.641-2.26 3.561-4.948 5.796-8.143 2.777-3.968 4.524-7.613 5.343-11.145.057-.245.102-.493.133-.743l.194-1.521c.041-.315.061-.633.061-.951 0-9.685-7.879-17.563-17.563-17.563-8.374 0-15.622 5.958-17.234 14.167-.798 4.064 1.85 8.006 5.914 8.805 4.066.796 8.007-1.85 8.805-5.914.201-1.023 1.129-2.058 2.515-2.058 1.305 0 2.385.98 2.543 2.243l-.058.451c-.314 1.138-1.084 2.973-2.942 5.628-6.194 8.851-9.887 13.685-11.871 16.283-2.535 3.319-4.538 5.941-3.317 9.908.728 2.367 2.583 4.254 4.962 5.048.983.328 1.645.549 9.669.549 3.063 0 7.202-.032 12.838-.103 4.142-.052 7.457-3.452 7.405-7.594s-3.427-7.458-7.593-7.405z"/><path d="m330.373 85.881v18.188c0 10.407 8.466 18.873 18.873 18.873s18.873-8.466 18.873-18.873v-18.188c0-10.407-8.466-18.873-18.873-18.873s-18.873 8.467-18.873 18.873zm15 0c0-2.136 1.737-3.873 3.873-3.873s3.873 1.737 3.873 3.873v18.188c0 2.136-1.737 3.873-3.873 3.873-2.135 0-3.873-1.737-3.873-3.873z"/><path d="m265.434 68.885c-4.142 0-7.5 3.358-7.5 7.5v10.453h-10.73v-10.453c0-4.142-3.358-7.5-7.5-7.5s-7.5 3.358-7.5 7.5v37.181c0 4.142 3.358 7.5 7.5 7.5s7.5-3.358 7.5-7.5v-11.728h10.73v11.728c0 4.142 3.358 7.5 7.5 7.5s7.5-3.358 7.5-7.5v-37.181c0-4.142-3.358-7.5-7.5-7.5z"/><path d="m242.006 352.054h-178.402c-9.96 0-18.063 8.103-18.063 18.063v32.859c0 9.959 8.103 18.062 18.063 18.062h178.402c9.959 0 18.062-8.103 18.062-18.062v-32.859c0-9.96-8.103-18.063-18.062-18.063zm3.062 50.922c0 1.688-1.374 3.062-3.062 3.062h-178.402c-1.689 0-3.063-1.374-3.063-3.062v-32.859c0-1.689 1.374-3.063 3.063-3.063h178.402c1.688 0 3.062 1.374 3.062 3.063z"/></g></g></svg>