<svg id="Capa_1" enable-background="new 0 0 511.509 511.509" viewBox="0 0 511.509 511.509" xmlns="http://www.w3.org/2000/svg"><g><g><g><g><g><path d="m471.265 391.607h-431.021c-18.084 0-32.744-14.66-32.744-32.744v-206.216c0-18.084 14.66-32.744 32.744-32.744h431.021c18.084 0 32.744 14.66 32.744 32.744v206.216c0 18.084-14.66 32.744-32.744 32.744z" fill="#f9f3f1"/></g></g></g><g><g><g><path d="m473.895 120.017c.069.868.114 1.744.114 2.63v206.216c0 18.084-14.66 32.744-32.744 32.744h-431.021c-.886 0-1.761-.045-2.63-.114 1.341 16.853 15.432 30.114 32.63 30.114h431.021c18.084 0 32.744-14.66 32.744-32.744v-206.216c0-17.198-13.261-31.289-30.114-32.63z" fill="#ebe5e3"/></g></g></g><g><g><g><path d="m504.009 195.919v-43.272c0-18.084-14.66-32.744-32.744-32.744h-431.021c-18.084 0-32.744 14.66-32.744 32.744v43.272z" fill="#fe7c66"/></g></g></g><g><g><g><path d="m471.265 119.902h-30c18.084 0 32.744 14.66 32.744 32.744v43.272h30v-43.272c0-18.083-14.66-32.744-32.744-32.744z" fill="#fe6c55"/></g></g></g><g><g><g><path d="m135.539 262.196c-21.274 21.274-55.767 21.274-77.041 0s-21.274-55.767 0-77.041 55.767-21.274 77.041 0 21.274 55.766 0 77.041z" fill="#01d0fb"/></g></g></g><g><g><g><path d="m356.121 275.637h-159.393c-3.667 0-6.641-2.973-6.641-6.641v-17.742c0-3.667 2.973-6.641 6.641-6.641h159.393c3.667 0 6.641 2.973 6.641 6.641v17.742c0 3.668-2.974 6.641-6.641 6.641z" fill="#a8d3d8"/></g></g></g><g><g><g><path d="m458.67 275.637h-48.393c-3.667 0-6.641-2.973-6.641-6.641v-17.742c0-3.667 2.973-6.641 6.641-6.641h48.393c3.667 0 6.641 2.973 6.641 6.641v17.742c-.001 3.668-2.974 6.641-6.641 6.641z" fill="#a8d3d8"/></g></g></g><g><g><g><path d="m299.277 310.734h159.393c3.667 0 6.641 2.973 6.641 6.641v17.742c0 3.668-2.973 6.641-6.641 6.641h-159.393c-3.667 0-6.641-2.973-6.641-6.641v-17.742c0-3.668 2.973-6.641 6.641-6.641z" fill="#a8d3d8"/></g></g></g><g><g><g><path d="m196.728 310.734h48.393c3.667 0 6.641 2.973 6.641 6.641v17.742c0 3.668-2.973 6.641-6.641 6.641h-48.393c-3.667 0-6.641-2.973-6.641-6.641v-17.742c0-3.668 2.973-6.641 6.641-6.641z" fill="#a8d3d8"/></g></g></g></g><g><path d="m70.904 245.535h4.254v4.254c0 4.142 3.358 7.5 7.5 7.5 4.143 0 7.5-3.358 7.5-7.5v-8.647l8.6-8.6v5.402c0 4.142 3.357 7.5 7.5 7.5s7.5-3.358 7.5-7.5v-20.401l8.801-8.801c2.929-2.929 2.929-7.677 0-10.606-2.929-2.928-7.677-2.929-10.607 0l-8.8 8.8h-20.402c-4.142 0-7.5 3.358-7.5 7.5s3.358 7.5 7.5 7.5h5.402l-8.599 8.599h-8.648c-4.142 0-7.5 3.358-7.5 7.5s3.357 7.5 7.499 7.5z"/><path d="m370.261 268.996v-17.742c0-7.797-6.344-14.141-14.141-14.141h-159.392c-7.797 0-14.141 6.344-14.141 14.141v17.742c0 7.797 6.344 14.141 14.141 14.141h159.393c7.796 0 14.14-6.344 14.14-14.141zm-15-.859h-157.674v-16.024h157.674z"/><path d="m458.669 283.137c7.797 0 14.141-6.344 14.141-14.141v-17.742c0-7.797-6.344-14.141-14.141-14.141h-48.393c-7.797 0-14.141 6.344-14.141 14.141v17.742c0 7.797 6.344 14.141 14.141 14.141zm-47.533-31.024h46.674v16.024h-46.674z"/><path d="m299.277 349.257h159.393c7.797 0 14.141-6.344 14.141-14.141v-17.742c0-7.797-6.344-14.141-14.141-14.141h-159.393c-7.797 0-14.141 6.344-14.141 14.141v17.742c0 7.798 6.344 14.141 14.141 14.141zm.859-31.023h157.674v16.024h-157.674z"/><path d="m196.728 303.234c-7.797 0-14.141 6.344-14.141 14.141v17.742c0 7.797 6.344 14.141 14.141 14.141h48.393c7.797 0 14.141-6.344 14.141-14.141v-17.742c0-7.797-6.344-14.141-14.141-14.141zm47.533 31.023h-46.674v-16.024h46.674z"/><path d="m471.265 112.403h-431.021c-22.19 0-40.244 18.053-40.244 40.244v206.216c0 22.191 18.054 40.244 40.244 40.244h264.283c4.143 0 7.5-3.358 7.5-7.5s-3.357-7.5-7.5-7.5h-264.283c-13.919 0-25.244-11.325-25.244-25.244v-155.444h23.458c-7.472 21.713-2.563 46.78 14.737 64.08 12.082 12.082 27.953 18.123 43.824 18.123s31.741-6.041 43.824-18.123c11.705-11.706 18.152-27.269 18.152-43.824 0-16.554-6.447-32.118-18.152-43.824-24.166-24.164-63.483-24.165-87.648 0-2.693 2.693-5.068 5.583-7.161 8.61-.261-.027-.525-.043-.793-.043h-30.241v-35.772c0-13.92 11.325-25.244 25.244-25.244h431.021c13.92 0 25.244 11.324 25.244 25.244v35.772h-306.422c-4.143 0-7.5 3.358-7.5 7.5s3.357 7.5 7.5 7.5h306.422v155.444c0 13.92-11.324 25.244-25.244 25.244h-129.738c-4.143 0-7.5 3.358-7.5 7.5s3.357 7.5 7.5 7.5h129.738c22.19 0 40.244-18.053 40.244-40.244v-206.215c0-22.191-18.053-40.244-40.244-40.244zm-407.464 78.055c9.159-9.159 21.186-13.737 33.217-13.737 12.028 0 24.061 4.58 33.217 13.737 8.873 8.873 13.76 20.67 13.76 33.217 0 12.548-4.887 24.344-13.76 33.217-9.159 9.159-21.186 13.738-33.217 13.737-12.028-.001-24.06-4.58-33.217-13.737-18.316-18.316-18.316-48.118 0-66.434z"/><path d="m337.319 165.411c4.143 0 7.5-3.358 7.5-7.5s-3.357-7.5-7.5-7.5h-121.789c-4.143 0-7.5 3.358-7.5 7.5s3.357 7.5 7.5 7.5z"/><path d="m412.632 165.411c4.143 0 7.5-3.358 7.5-7.5s-3.357-7.5-7.5-7.5h-25.501c-4.143 0-7.5 3.358-7.5 7.5s3.357 7.5 7.5 7.5z"/><path d="m43.85 314.644v29.657c0 4.142 3.358 7.5 7.5 7.5s7.5-3.358 7.5-7.5v-29.657c0-4.142-3.358-7.5-7.5-7.5s-7.5 3.358-7.5 7.5z"/><path d="m72.219 314.644v29.657c0 4.142 3.358 7.5 7.5 7.5s7.5-3.358 7.5-7.5v-29.657c0-4.142-3.357-7.5-7.5-7.5s-7.5 3.358-7.5 7.5z"/><path d="m101.188 314.644v29.657c0 4.142 3.357 7.5 7.5 7.5s7.5-3.358 7.5-7.5v-29.657c0-4.142-3.357-7.5-7.5-7.5s-7.5 3.358-7.5 7.5z"/><path d="m130.158 314.644v29.657c0 4.142 3.357 7.5 7.5 7.5s7.5-3.358 7.5-7.5v-29.657c0-4.142-3.357-7.5-7.5-7.5s-7.5 3.358-7.5 7.5z"/></g></g><g/><g/><g/><g/><g/><g/><g/><g/><g/><g/><g/><g/><g/><g/><g/></svg>