<svg id="Capa_1" enable-background="new 0 0 512 512" height="512" viewBox="0 0 512 512" width="512" xmlns="http://www.w3.org/2000/svg"><g><g><g><path d="m322.068 393.13h-127.552v-232.318c0-23.206 18.812-42.019 42.019-42.019h43.514c23.206 0 42.019 18.812 42.019 42.019z" fill="#fe646f"/></g><g><path d="m275.161 118.793h-31.945v-37.525c0-8.821 7.151-15.973 15.973-15.973 8.821 0 15.973 7.151 15.973 15.973v37.525z" fill="#678d98"/></g><g><path d="m411.797 393.13h-89.729v-150.971c0-23.206 18.812-42.019 42.019-42.019h5.692c23.206 0 42.019 18.812 42.019 42.019v150.971z" fill="#ffd15b"/></g><g><path d="m290.702 120.159c.889 3.402 1.366 6.971 1.366 10.653v185.807c0 25.687-20.824 46.511-46.511 46.511h-51.041v30h127.552v-232.318c0-19.525-13.319-35.937-31.366-40.653z" fill="#fd4755"/></g><g><path d="m380.431 201.506c.889 3.402 1.366 6.972 1.366 10.653v107.259c0 24.141-19.57 43.711-43.711 43.711h-16.018v30h89.729v-150.97c0-19.525-13.319-35.936-31.366-40.653z" fill="#ffc344"/></g><g><path d="m110.054 38.923h37.465v397.033h-37.465z" fill="#cbe5e8"/></g><g><path d="m96.538 392.935h387.468v34.741h-387.468z" fill="#cbe5e8"/></g><g><path d="m129.816 7.5h-60.726c-8.677 0-15.711 7.034-15.711 15.711 0 8.677 7.034 15.711 15.711 15.711h78.43v-13.719c-.001-9.777-7.927-17.703-17.704-17.703z" fill="#537983"/></g><g><path d="m484.006 392.935h-52.916l18.252-73.396c1.12-4.502 3.972-8.38 7.937-10.789 11.724-7.123 26.727 1.316 26.727 15.034z" fill="#678d98"/></g><g><circle cx="96.538" cy="435.956" fill="#678d98" r="68.544"/></g><g><circle cx="385.462" cy="448.718" fill="#678d98" r="55.782"/></g><g><path d="m96.538 367.411c-5.155 0-10.17.588-15 1.666 30.638 6.843 53.544 34.177 53.544 66.878s-22.906 60.035-53.544 66.878c4.83 1.079 9.845 1.666 15 1.666 37.856 0 68.544-30.688 68.544-68.544.001-37.855-30.688-68.544-68.544-68.544z" fill="#537983"/></g><g><path d="m385.462 392.935c-5.199 0-10.225.727-15 2.057 23.52 6.554 40.783 28.117 40.783 53.726s-17.263 47.172-40.783 53.726c4.775 1.33 9.801 2.057 15 2.057 30.808 0 55.783-24.975 55.783-55.782s-24.975-55.784-55.783-55.784z" fill="#537983"/></g><g><circle cx="96.538" cy="435.956" fill="#8ebac5" r="25.345"/></g><g><circle cx="385.462" cy="448.718" fill="#8ebac5" r="17.866"/></g></g><g><path d="m96.539 403.11c-18.111 0-32.846 14.734-32.846 32.845s14.734 32.846 32.846 32.846c18.11 0 32.845-14.734 32.845-32.846-.001-18.11-14.735-32.845-32.845-32.845zm0 50.691c-9.84 0-17.846-8.005-17.846-17.846 0-9.84 8.006-17.845 17.846-17.845s17.845 8.005 17.845 17.845c-.001 9.841-8.006 17.846-17.845 17.846z"/><path d="m385.462 423.352c-13.987 0-25.366 11.379-25.366 25.366s11.379 25.366 25.366 25.366c13.986 0 25.365-11.379 25.365-25.366s-11.378-25.366-25.365-25.366zm0 35.731c-5.716 0-10.366-4.65-10.366-10.366s4.65-10.366 10.366-10.366 10.365 4.65 10.365 10.366-4.649 10.366-10.365 10.366z"/><path d="m478.716 301.915c-8.009-4.505-17.479-4.346-25.331.425-5.694 3.46-9.715 8.925-11.321 15.389l-16.837 67.706h-5.93v-33.888c0-4.142-3.357-7.5-7.5-7.5s-7.5 3.358-7.5 7.5v33.888h-74.729v-143.276c0-19.034 15.485-34.519 34.519-34.519h5.692c19.033 0 34.519 15.485 34.519 34.519v74.388c0 4.142 3.357 7.5 7.5 7.5s7.5-3.358 7.5-7.5v-74.388c0-25.735-19.735-46.939-44.865-49.293v-28.869c0-4.142-3.357-7.5-7.5-7.5s-7.5 3.358-7.5 7.5v28.869c-11.566 1.083-21.983 6.162-29.864 13.837v-45.891c0-26.429-20.812-48.086-46.907-49.449v-30.095c0-12.943-10.529-23.473-23.473-23.473s-23.473 10.53-23.473 23.473v30.047c-26.927.441-48.699 22.468-48.699 49.498v224.623h-31.997v-360.232c-.001-13.898-11.307-25.204-25.204-25.204h-60.727c-12.798 0-23.211 10.413-23.211 23.211s10.412 23.211 23.211 23.211h33.465v38.737c0 4.142 3.357 7.5 7.5 7.5s7.5-3.358 7.5-7.5v-38.737h22.465v327.2c-6.769-4.736-14.338-8.394-22.465-10.735v-242.728c0-4.142-3.357-7.5-7.5-7.5s-7.5 3.358-7.5 7.5v240.012c-1.987-.156-3.989-.26-6.016-.26-41.932 0-76.045 34.113-76.045 76.044s34.114 76.045 76.046 76.045c41.931 0 76.044-34.113 76.044-76.044 0-.261-.017-.519-.02-.78h151.091c-.956 4.366-1.474 8.894-1.474 13.542 0 34.894 28.389 63.282 63.283 63.282s63.282-28.388 63.282-63.282c0-4.648-.518-9.176-1.474-13.542h36.736c4.143 0 7.5-3.358 7.5-7.5v-34.741-69.15c-.001-9.189-4.782-17.365-12.791-21.87zm-22.095 19.433c.646-2.599 2.264-4.797 4.554-6.188 3.159-1.919 6.967-1.982 10.188-.171 3.221 1.812 5.144 5.1 5.144 8.796v61.65h-35.822zm-205.906-240.08c0-4.672 3.801-8.473 8.473-8.473s8.473 3.801 8.473 8.473v30.026h-16.945v-30.026zm-48.785 79.595c-.017-19.034 15.454-34.533 34.487-34.55l43.515-.04c19.033-.017 34.533 15.454 34.55 34.487l.204 224.623-112.552.102zm-91.876-129.441h-40.965c-4.527 0-8.211-3.684-8.211-8.211 0-4.528 3.684-8.211 8.211-8.211h60.727c5.626 0 10.203 4.577 10.203 10.204v6.219h-29.965zm-13.515 465.578c-33.66 0-61.045-27.384-61.045-61.044s27.385-61.044 61.045-61.044 61.044 27.384 61.044 61.044-27.384 61.044-61.044 61.044zm74.386-76.824c-1.479-6.981-3.922-13.607-7.177-19.741l180.645.195c-6.331 5.415-11.58 12.052-15.385 19.546zm214.537 76.824c-26.623 0-48.283-21.659-48.283-48.282 0-25.204 19.416-45.947 44.074-48.088h8.419c24.658 2.141 44.073 22.884 44.073 48.088 0 26.623-21.66 48.282-48.283 48.282zm91.044-76.824h-34.592c-3.85-7.583-9.177-14.291-15.609-19.741h50.201z"/><path d="m239.755 170.609c-4.143 0-7.5 3.358-7.5 7.5v165.659c0 4.142 3.357 7.5 7.5 7.5s7.5-3.358 7.5-7.5v-165.659c0-4.142-3.357-7.5-7.5-7.5z"/><path d="m276.829 170.609c-4.143 0-7.5 3.358-7.5 7.5v165.659c0 4.142 3.357 7.5 7.5 7.5s7.5-3.358 7.5-7.5v-165.659c0-4.142-3.358-7.5-7.5-7.5z"/><path d="m359.432 257.675v76.013c0 4.142 3.357 7.5 7.5 7.5s7.5-3.358 7.5-7.5v-76.013c0-4.142-3.357-7.5-7.5-7.5s-7.5 3.358-7.5 7.5z"/></g></g></svg>