<svg id="Capa_1" enable-background="new 0 0 512.001 512.001" viewBox="0 0 512.001 512.001" xmlns="http://www.w3.org/2000/svg"><g><g><g><g><g><path d="m277.484 94.772h-42.967v-21.842c0-11.865 9.618-21.483 21.483-21.483 11.865 0 21.483 9.618 21.483 21.483v21.842z" fill="#3e5959"/></g></g></g><g><g><g><path d="m374.295 143.058h-236.589c-5.219 0-8.778-5.33-6.814-10.206l7.602-18.873c4.677-11.612 15.867-19.207 28.296-19.207h178.421c12.429 0 23.619 7.595 28.296 19.207l7.602 18.873c1.964 4.876-1.595 10.206-6.814 10.206z" fill="#678d98"/></g></g></g><g><g><g><path d="m400.71 246.091h-289.42c-4.525 0-7.61-4.621-5.907-8.848l6.59-16.362c4.055-10.067 13.756-16.652 24.531-16.652h238.991c10.776 0 20.477 6.585 24.531 16.652l6.59 16.362c1.704 4.227-1.381 8.848-5.906 8.848z" fill="#678d98"/></g></g></g><g><g><g><path d="m293.063 504.501h-74.125c-9.461 0-17.13-7.669-17.13-17.13v-84.913h108.385v84.913c0 9.46-7.67 17.13-17.13 17.13z" fill="#678d98"/></g></g></g><g><g><g><path d="m137.706 143.058 19.448 61.17h197.692l19.449-61.17z" fill="#f9f3f1"/></g></g></g><g><g><g><path d="m111.29 246.09 12.187 113.016c2.66 24.665 23.315 43.351 47.92 43.351h169.206c24.605 0 45.261-18.686 47.92-43.351l12.187-113.016z" fill="#f9f3f1"/></g></g></g><g><g><g><path d="m381.109 132.852-7.602-18.873c-4.677-11.612-15.866-19.207-28.296-19.207h-30c12.429 0 23.619 7.595 28.296 19.207l7.602 18.873c1.964 4.876-1.594 10.206-6.814 10.206h30c5.219 0 8.777-5.33 6.814-10.206z" fill="#537983"/></g></g></g><g><g><g><path d="m406.617 237.242-6.59-16.362c-4.055-10.067-13.756-16.652-24.531-16.652h-30c10.776 0 20.477 6.585 24.531 16.652l6.59 16.362c1.703 4.227-1.382 8.848-5.907 8.848h30c4.525 0 7.61-4.62 5.907-8.848z" fill="#537983"/></g></g></g><g><g><g><path d="m280.193 402.457v84.913c0 9.461-7.669 17.13-17.13 17.13h30c9.46 0 17.13-7.669 17.13-17.13v-84.913z" fill="#537983"/></g></g></g><g><g><g><path d="m344.295 143.058-19.449 61.17h30l19.449-61.17z" fill="#ebe5e3"/></g></g></g><g><g><g><path d="m370.71 246.09-12.187 113.016c-2.66 24.665-23.315 43.351-47.92 43.351h30c24.605 0 45.26-18.686 47.92-43.351l12.187-113.016z" fill="#ebe5e3"/></g></g></g></g><g><path d="m413.574 234.441-6.59-16.362c-5.224-12.969-17.584-21.35-31.488-21.35h-10.396l15.068-47.391c2.564-1.108 4.805-2.932 6.421-5.323 2.785-4.125 3.337-9.345 1.477-13.965l-7.602-18.872c-5.849-14.522-19.687-23.906-35.253-23.906h-60.228v-14.343c0-13.388-9.126-24.68-21.483-27.994v-37.434c0-4.142-3.357-7.5-7.5-7.5s-7.5 3.358-7.5 7.5v37.435c-12.357 3.314-21.483 14.606-21.483 27.994v14.342h-60.227c-15.565 0-29.403 9.383-35.254 23.905l-7.602 18.873c-1.86 4.62-1.309 9.839 1.478 13.964 1.615 2.392 3.856 4.216 6.421 5.324l6.507 20.467c1.015 3.192 3.966 5.229 7.146 5.229.753 0 1.519-.114 2.274-.354 3.947-1.255 6.13-5.473 4.875-9.42l-4.674-14.702h216.08l-14.68 46.171h-212.856c-13.904 0-26.265 8.38-31.488 21.35l-6.591 16.363c-1.736 4.313-1.221 9.187 1.38 13.037 1.193 1.767 2.761 3.187 4.546 4.223l11.668 108.209c3.077 28.531 26.885 50.047 55.378 50.047h22.91v77.414c0 13.581 11.049 24.63 24.63 24.63h74.125c13.581 0 24.63-11.049 24.63-24.63v-77.414h22.911c28.494 0 52.301-21.516 55.377-50.047l11.668-108.209c1.785-1.037 3.354-2.457 4.548-4.224 2.599-3.852 3.114-8.725 1.377-13.037zm-171.557-161.512c0-7.71 6.272-13.983 13.983-13.983s13.983 6.273 13.983 13.983v14.342h-27.967v-14.342zm-96.567 43.852c3.551-8.814 11.927-14.51 21.34-14.51h178.421c9.413 0 17.789 5.695 21.339 14.51l7.581 18.776h-236.243zm-26.519 106.902c2.925-7.262 9.823-11.954 17.574-11.954h238.991c7.751 0 14.649 4.692 17.574 11.954l6.005 14.908h-286.149zm166.664 171.274h-22.095v-35.683c0-4.142-3.357-7.5-7.5-7.5s-7.5 3.358-7.5 7.5v35.683h-22.094c-20.814 0-38.21-15.758-40.463-36.655l-11.292-104.712h73.849v70.684c0 4.142 3.357 7.5 7.5 7.5s7.5-3.358 7.5-7.5v-70.684h73.849l-11.291 104.712c-2.253 20.897-19.649 36.655-40.463 36.655zm-154.661-36.655-11.291-104.712h39.921l11.465 106.319c1.5 13.915 7.941 26.152 17.442 35.047h-17.074c-20.814.001-38.21-15.757-40.463-36.654zm171.758 129.069c0 5.31-4.32 9.63-9.63 9.63h-74.125c-5.31 0-9.63-4.32-9.63-9.63v-77.414h93.385zm78.374-129.069c-2.253 20.896-19.648 36.655-40.463 36.655h-17.073c9.501-8.895 15.942-21.132 17.442-35.047l11.465-106.32h39.921z"/><path d="m205.211 52.195c1.189.694 2.49 1.024 3.774 1.024 2.579 0 5.09-1.332 6.484-3.721 2.088-3.577.881-8.17-2.696-10.258-2.642-1.542-4.282-4.417-4.282-7.505s1.642-5.964 4.283-7.506c3.577-2.088 4.785-6.68 2.697-10.258-2.089-3.579-6.682-4.785-10.258-2.697-7.23 4.22-11.723 12.06-11.723 20.461.001 8.401 4.492 16.24 11.721 20.46z"/><path d="m176.881 62.205c1.28.855 2.728 1.265 4.16 1.265 2.421 0 4.797-1.17 6.242-3.333 2.302-3.444 1.376-8.102-2.068-10.403-5.416-3.62-8.78-10.516-8.78-17.998 0-7.483 3.365-14.38 8.782-17.999 3.444-2.301 4.371-6.958 2.07-10.403-2.302-3.444-6.96-4.371-10.402-2.07-9.53 6.367-15.45 18.042-15.45 30.472-.001 12.427 5.918 24.102 15.446 30.469z"/><path d="m299.225 24.23c2.642 1.542 4.283 4.418 4.283 7.506s-1.641 5.963-4.282 7.505c-3.577 2.088-4.784 6.681-2.696 10.258 1.395 2.389 3.905 3.721 6.484 3.721 1.284 0 2.585-.331 3.774-1.024 7.229-4.22 11.72-12.059 11.72-20.459 0-8.401-4.492-16.241-11.723-20.461-3.576-2.087-8.17-.881-10.258 2.697-2.087 3.576-.879 8.169 2.698 10.257z"/><path d="m326.783 13.737c5.417 3.619 8.782 10.516 8.782 17.999 0 7.482-3.364 14.378-8.779 17.998-3.444 2.302-4.37 6.959-2.068 10.403 1.445 2.164 3.821 3.333 6.242 3.333 1.433 0 2.881-.41 4.16-1.265 9.527-6.367 15.445-18.042 15.445-30.469 0-12.429-5.92-24.105-15.45-30.472-3.443-2.301-8.102-1.374-10.402 2.07-2.301 3.444-1.374 8.102 2.07 10.403z"/></g></g><g/><g/><g/><g/><g/><g/><g/><g/><g/><g/><g/><g/><g/><g/><g/></svg>