<svg id="Capa_1" enable-background="new 0 0 512 512" height="512" viewBox="0 0 512 512" width="512" xmlns="http://www.w3.org/2000/svg"><g><g><g><path d="m301.208 89.189h-93.332c-4.59 0-8.31-3.721-8.31-8.31v-17.5c0-4.59 3.721-8.31 8.31-8.31h93.332c4.59 0 8.31 3.721 8.31 8.31v17.5c0 4.589-3.72 8.31-8.31 8.31z" fill="#7ca1b1"/></g><g><path d="m463.606 456.931h-415.212c-22.585 0-40.894-18.309-40.894-40.894 0-22.585 18.309-40.894 40.894-40.894h415.212c22.585 0 40.894 18.309 40.894 40.894 0 22.586-18.309 40.894-40.894 40.894z" fill="#678d98"/></g><g><path d="m463.787 375.144h-415.574v-31.737c0-9.587 7.772-17.359 17.359-17.359h380.856c9.587 0 17.359 7.772 17.359 17.359z" fill="#a8d3d8"/></g><g><path d="m446.428 326.047h-12.641c0 13.308-10.788 24.096-24.096 24.096h-361.478v25h415.574v-31.737c0-9.587-7.772-17.359-17.359-17.359z" fill="#8ebac5"/></g><g><path d="m120.45 428.822h-59.452c-7.061 0-12.785-5.724-12.785-12.785 0-7.061 5.724-12.785 12.785-12.785h59.452c7.061 0 12.785 5.724 12.785 12.785 0 7.061-5.724 12.785-12.785 12.785z" fill="#a8d3d8"/></g><g><path d="m285.726 428.822h-59.452c-7.061 0-12.785-5.724-12.785-12.785 0-7.061 5.724-12.785 12.785-12.785h59.452c7.061 0 12.785 5.724 12.785 12.785 0 7.061-5.724 12.785-12.785 12.785z" fill="#a8d3d8"/></g><g><path d="m451.002 428.822h-59.452c-7.061 0-12.785-5.724-12.785-12.785 0-7.061 5.724-12.785 12.785-12.785h59.452c7.061 0 12.785 5.724 12.785 12.785 0 7.061-5.724 12.785-12.785 12.785z" fill="#a8d3d8"/></g><g><path d="m422.465 326.047h-335.845v-182.735c0-12.111 9.818-21.929 21.929-21.929h291.988c12.111 0 21.929 9.818 21.929 21.929v182.735z" fill="#ffd15b"/></g><g><path d="m400.536 121.384h-8.071v135.411c0 21.679-17.574 39.253-39.253 39.253h-266.592v30h335.846v-182.736c-.001-12.11-9.819-21.928-21.93-21.928z" fill="#ffc344"/></g><g><path d="m275.535 276.105h-39.071c-5.528 0-10.01-4.481-10.01-10.01v-144.711h59.09v144.712c.001 5.528-4.481 10.009-10.009 10.009z" fill="#f3eae6"/></g></g><g><path d="m471.287 368.26v-24.854c0-13.708-11.152-24.859-24.859-24.859h-16.463v-175.235c0-16.227-13.202-29.429-29.429-29.429h-94.525v-17.76c0-.062-.008-.121-.009-.183 6.381-2.035 11.017-8.016 11.017-15.062v-17.5c0-8.718-7.092-15.81-15.81-15.81h-93.332c-8.718 0-15.81 7.092-15.81 15.81v17.5c0 7.366 5.071 13.554 11.9 15.301v17.704h-35.732c-4.142 0-7.5 3.358-7.5 7.5s3.358 7.5 7.5 7.5h50.72v137.212c0 9.655 7.855 17.509 17.51 17.509h39.071c9.655 0 17.51-7.854 17.51-17.509v-137.211h107.491c7.956 0 14.429 6.473 14.429 14.429v175.234h-320.846v-175.235c0-7.956 6.473-14.429 14.429-14.429h24.687c4.142 0 7.5-3.358 7.5-7.5s-3.358-7.5-7.5-7.5h-24.687c-16.227 0-29.429 13.202-29.429 29.429v175.234h-13.548c-13.708 0-24.859 11.152-24.859 24.859v24.854c-23.046 3.693-40.713 23.708-40.713 47.779 0 26.684 21.709 48.394 48.394 48.394h194.545c4.142 0 7.5-3.358 7.5-7.5s-3.358-7.5-7.5-7.5h-194.545c-18.414-.001-33.394-14.981-33.394-33.394 0-18.414 14.98-33.394 33.394-33.394h415.212c18.414 0 33.394 14.98 33.394 33.394 0 18.413-14.98 33.394-33.394 33.394h-185.667c-4.142 0-7.5 3.358-7.5 7.5s3.358 7.5 7.5 7.5h185.667c26.685 0 48.394-21.709 48.394-48.394 0-24.071-17.667-44.086-40.713-47.778zm-264.221-304.881c0-.447.363-.81.81-.81h93.332c.447 0 .81.363.81.81v17.5c0 .447-.363.81-.81.81h-93.332c-.447 0-.81-.363-.81-.81zm11.901 33.31h72.044v17.195h-72.044zm59.078 55.859h-22.045c-4.142 0-7.5 3.358-7.5 7.5s3.358 7.5 7.5 7.5h22.045v23.663h-22.045c-4.142 0-7.5 3.358-7.5 7.5s3.358 7.5 7.5 7.5h22.045v23.663h-22.045c-4.142 0-7.5 3.358-7.5 7.5s3.358 7.5 7.5 7.5h22.045v21.222c0 1.384-1.126 2.509-2.51 2.509h-39.071c-1.384 0-2.51-1.125-2.51-2.509v-137.212h44.09v23.664zm-222.333 215.096v-24.237c0-5.437 4.423-9.859 9.859-9.859h380.856c5.437 0 9.859 4.423 9.859 9.859v24.237z"/><path d="m60.998 395.752c-11.185 0-20.285 9.1-20.285 20.285s9.1 20.285 20.285 20.285h59.453c11.185 0 20.285-9.1 20.285-20.285s-9.1-20.285-20.285-20.285zm64.737 20.286c0 2.914-2.371 5.285-5.285 5.285h-59.452c-2.914 0-5.285-2.371-5.285-5.285s2.371-5.285 5.285-5.285h59.453c2.913-.001 5.284 2.371 5.284 5.285z"/><path d="m306.011 416.038c0-11.185-9.1-20.285-20.285-20.285h-59.453c-11.185 0-20.285 9.1-20.285 20.285s9.1 20.285 20.285 20.285h59.453c11.185-.001 20.285-9.1 20.285-20.285zm-85.022 0c0-2.914 2.371-5.285 5.285-5.285h59.453c2.914 0 5.285 2.371 5.285 5.285s-2.371 5.285-5.285 5.285h-59.453c-2.915-.001-5.285-2.371-5.285-5.285z"/><path d="m451.002 436.322c11.185 0 20.285-9.1 20.285-20.285s-9.1-20.285-20.285-20.285h-59.452c-11.185 0-20.285 9.1-20.285 20.285s9.1 20.285 20.285 20.285zm-64.737-20.284c0-2.914 2.371-5.285 5.285-5.285h59.452c2.914 0 5.285 2.371 5.285 5.285s-2.371 5.285-5.285 5.285h-59.452c-2.914-.001-5.285-2.371-5.285-5.285z"/><path d="m133.235 161.548c-4.142 0-7.5 3.358-7.5 7.5v110.102c0 4.142 3.358 7.5 7.5 7.5s7.5-3.358 7.5-7.5v-110.102c0-4.142-3.358-7.5-7.5-7.5z"/><path d="m180.735 279.149v-110.101c0-4.142-3.358-7.5-7.5-7.5s-7.5 3.358-7.5 7.5v110.102c0 4.142 3.358 7.5 7.5 7.5s7.5-3.358 7.5-7.501z"/><path d="m386.265 279.149v-110.101c0-4.142-3.358-7.5-7.5-7.5s-7.5 3.358-7.5 7.5v110.102c0 4.142 3.358 7.5 7.5 7.5s7.5-3.358 7.5-7.501z"/><path d="m346.265 279.149v-110.101c0-4.142-3.358-7.5-7.5-7.5s-7.5 3.358-7.5 7.5v110.102c0 4.142 3.358 7.5 7.5 7.5s7.5-3.358 7.5-7.501z"/></g></g></svg>