<svg id="Capa_1" enable-background="new 0 0 512 512" height="512" viewBox="0 0 512 512" width="512" xmlns="http://www.w3.org/2000/svg"><g><g><g><path d="m446.092 504.5h-380.184c-18.699 0-33.857-15.158-33.857-33.857v-332.71c0-44.918 36.413-81.331 81.331-81.331h285.236c44.918 0 81.331 36.413 81.331 81.331v332.71c0 18.699-15.158 33.857-33.857 33.857z" fill="#f3eae6"/></g><g><path d="m479.949 465.357v-300.749h-31.389c-33.245 0-63.456 19.33-77.388 49.515l-11.682 25.311c-32.156 69.671-101.887 114.287-178.62 114.287h-148.819v111.635c0 21.618 17.525 39.143 39.143 39.143h369.612c21.618.001 39.143-17.524 39.143-39.142z" fill="#6fd7a3"/></g><g><path d="m398.618 56.602h-30c44.918 0 81.331 36.413 81.331 81.331v332.71c0 18.698-15.158 33.857-33.857 33.857h30c18.698 0 33.857-15.158 33.857-33.857v-332.71c0-44.918-36.413-81.331-81.331-81.331z" fill="#e6ddd9"/></g><g><path d="m449.949 164.608v270.748c0 21.618-17.525 39.143-39.143 39.143h-369.612c-2.835 0-5.598-.309-8.262-.881 3.793 17.649 19.479 30.881 38.262 30.881h369.612c21.618 0 39.143-17.525 39.143-39.143v-300.748z" fill="#6fd7a3"/></g><g><path d="m212.463 154.092c-16.051-.324-30.295 7.45-38.955 19.506-8.66-12.055-22.904-19.829-38.954-19.506-25.709.518-46.429 22.246-45.78 47.952.435 17.217 10.176 32.122 24.382 39.872 4.721 2.576 33.212 19.896 49.304 29.704 6.787 4.137 15.31 4.137 22.097 0 16.092-9.808 44.584-27.128 49.304-29.704 14.205-7.75 23.947-22.654 24.382-39.871.648-25.706-20.072-47.435-45.78-47.953z" fill="#6fd7a3"/></g><g><g><path d="m212.463 154.092c-.732-.015-1.456.006-2.18.024 11.22 8.853 18.344 22.692 17.959 37.928-.435 17.217-10.176 32.121-24.382 39.871-4.721 2.575-33.212 19.896-49.304 29.704-1.564.953-3.222 1.676-4.928 2.19 4.645 2.823 9.077 5.522 12.831 7.81 6.787 4.137 15.31 4.137 22.097 0 16.092-9.808 44.584-27.128 49.304-29.704 14.205-7.75 23.947-22.655 24.382-39.871.649-25.705-20.071-47.434-45.779-47.952z" fill="#3ec3a4"/></g></g><g><path d="m241.358 449.95h-144.549c-4.447 0-8.051-3.605-8.051-8.051v-28.288c0-4.447 3.605-8.051 8.051-8.051h144.549c4.447 0 8.051 3.605 8.051 8.051v28.288c0 4.447-3.604 8.051-8.051 8.051z" fill="#f3eae6"/></g><g><path d="m369.436 56.602h-226.872v-30.426c0-10.314 8.362-18.676 18.676-18.676h189.52c10.314 0 18.676 8.362 18.676 18.676z" fill="#7ca1b1"/></g></g><g><path d="m212.614 146.593c-14.708-.293-28.773 5.391-39.107 15.526-10.333-10.135-24.396-15.819-39.105-15.526-14.43.291-27.934 6.266-38.024 16.825-10.104 10.574-15.468 24.358-15.103 38.815.487 19.285 11.326 37.013 28.287 46.266 3.335 1.82 21.193 12.581 48.994 29.524 4.612 2.811 9.781 4.216 14.952 4.216 5.17 0 10.341-1.406 14.952-4.216 27.803-16.945 45.661-27.707 48.993-29.524 16.961-9.253 27.8-26.981 28.288-46.266.365-14.457-4.998-28.242-15.103-38.815-10.091-10.559-23.595-16.534-38.024-16.825zm38.13 55.262c-.353 13.951-8.199 26.778-20.477 33.477-4.595 2.507-29.517 17.635-49.615 29.884-4.407 2.686-9.883 2.686-14.291 0-20.096-12.248-45.017-27.375-49.616-29.884-12.277-6.698-20.124-19.526-20.476-33.477-.264-10.437 3.626-20.406 10.952-28.073 7.312-7.652 17.072-11.982 27.481-12.191.265-.005.528-.008.792-.008 12.632 0 24.518 6.088 31.919 16.391 1.409 1.961 3.676 3.124 6.091 3.124s4.682-1.163 6.091-3.125c7.556-10.52 19.789-16.641 32.713-16.383 10.409.209 20.168 4.54 27.48 12.191 7.33 7.667 11.22 17.637 10.956 28.074z"/><path d="m283.469 113.733c-4.142 0-7.5 3.358-7.5 7.5v5.442h-5.442c-4.142 0-7.5 3.358-7.5 7.5s3.358 7.5 7.5 7.5h5.442v5.442c0 4.142 3.358 7.5 7.5 7.5s7.5-3.358 7.5-7.5v-5.442h5.442c4.142 0 7.5-3.358 7.5-7.5s-3.358-7.5-7.5-7.5h-5.442v-5.442c0-4.142-3.357-7.5-7.5-7.5z"/><path d="m398.618 49.102h-21.682v-22.926c0-14.433-11.742-26.176-26.176-26.176h-189.52c-14.434 0-26.176 11.743-26.176 26.176v22.926h-21.682c-48.981 0-88.831 39.85-88.831 88.831v88.226c0 4.142 3.358 7.5 7.5 7.5s7.5-3.358 7.5-7.5v-88.226c0-40.71 33.121-73.831 73.831-73.831h285.236c40.71 0 73.831 33.121 73.831 73.831v19.175h-23.889c-36.044 0-69.093 21.146-84.198 53.872l-11.682 25.311c-15.176 32.881-39.321 60.578-69.826 80.096-30.504 19.518-65.771 29.834-101.985 29.834h-141.318v-84.062c0-4.142-3.358-7.5-7.5-7.5s-7.5 3.358-7.5 7.5v208.485c0 22.804 18.552 41.356 41.356 41.356h380.185c22.804 0 41.356-18.552 41.356-41.356v-85.048c0-4.142-3.358-7.5-7.5-7.5s-7.5 3.358-7.5 7.5v85.048c0 14.533-11.823 26.356-26.356 26.356h-380.185c-14.533 0-26.356-11.823-26.356-26.356v-109.423h141.319c39.085 0 77.146-11.134 110.069-32.199s58.982-50.957 75.361-86.445l11.682-25.311c12.661-27.433 40.365-45.158 70.579-45.158h23.889v178.487c0 4.142 3.358 7.5 7.5 7.5s7.5-3.358 7.5-7.5v-212.662c-.001-48.981-39.851-88.831-88.832-88.831zm-248.554 0v-22.926c0-6.163 5.014-11.176 11.176-11.176h189.52c6.163 0 11.176 5.014 11.176 11.176v22.926z"/><path d="m96.809 398.06c-8.575 0-15.551 6.976-15.551 15.551v28.288c0 8.575 6.976 15.551 15.551 15.551h144.549c8.575 0 15.551-6.976 15.551-15.551v-28.288c0-8.575-6.976-15.551-15.551-15.551zm145.1 15.551v28.288c0 .304-.247.551-.551.551h-144.549c-.304 0-.551-.247-.551-.551v-28.288c0-.304.247-.551.551-.551h144.549c.304 0 .551.247.551.551z"/><path d="m401.033 405.56c0-4.142-3.358-7.5-7.5-7.5h-97.122c-4.142 0-7.5 3.358-7.5 7.5s3.358 7.5 7.5 7.5h97.122c4.142 0 7.5-3.358 7.5-7.5z"/><path d="m296.411 433.266c-4.142 0-7.5 3.358-7.5 7.5s3.358 7.5 7.5 7.5h39.336c4.142 0 7.5-3.358 7.5-7.5s-3.358-7.5-7.5-7.5z"/></g></g></svg>