<svg id="Capa_1" enable-background="new 0 0 513.243 513.243" height="512" viewBox="0 0 513.243 513.243" width="512" xmlns="http://www.w3.org/2000/svg"><g><g><g><path d="m501.345 192.956-308.389 308.389c-5.877 5.877-15.405 5.877-21.282 0l-159.777-159.777c-5.877-5.877-5.877-15.405 0-21.282l308.389-308.389c5.877-5.877 15.405-5.877 21.282 0l159.777 159.777c5.877 5.877 5.877 15.405 0 21.282z" fill="#3ec3a4"/></g><g><path d="m181.676 458.02-126.453-126.454c-1.976-1.976-1.976-5.18 0-7.156l269.187-269.187c1.976-1.976 5.18-1.976 7.156 0l126.454 126.454c1.976 1.976 1.976 5.18 0 7.156l-269.188 269.187c-1.976 1.976-5.18 1.976-7.156 0z" fill="#c9f6b0"/></g><g><path d="m501.345 171.674-30-30c5.877 5.877 5.877 15.405 0 21.282l-308.389 308.389c-5.877 5.877-15.405 5.877-21.282 0l30 30c5.877 5.877 15.405 5.877 21.282 0l308.389-308.389c5.877-5.877 5.877-15.405 0-21.282z" fill="#0bb494"/></g><g><path d="m458.019 181.677-30-30c1.976 1.976 1.976 5.18 0 7.156l-269.187 269.187c-1.976 1.976-5.179 1.976-7.156 0l30 30c1.976 1.976 5.18 1.976 7.156 0l269.188-269.188c1.975-1.976 1.975-5.179-.001-7.155z" fill="#9be69d"/></g><g><g><circle cx="256.621" cy="256.621" fill="#6fd7a3" r="91.97"/></g><g><path d="m256.621 348.591c50.794 0 91.97-41.177 91.97-91.97 0-5.746-.532-11.367-1.54-16.821l-107.251 107.251c5.454 1.009 11.075 1.54 16.821 1.54z" fill="#3ec3a4"/></g></g></g><g><path d="m506.649 166.371-78.723-78.723c-2.93-2.929-7.678-2.929-10.607 0s-2.929 7.677 0 10.606l78.723 78.723c2.943 2.943 2.943 7.733 0 10.676l-308.389 308.389c-2.943 2.943-7.732 2.944-10.676 0l-42.542-42.543c-2.929-2.928-7.678-2.929-10.606 0-2.93 2.929-2.93 7.677-.001 10.606l42.542 42.543c4.396 4.396 10.171 6.594 15.945 6.594s11.549-2.198 15.945-6.594l308.389-308.388c8.791-8.792 8.791-23.098 0-31.889z"/><path d="m17.201 336.265c-2.943-2.943-2.943-7.733 0-10.676l308.389-308.389c2.942-2.943 7.73-2.944 10.675 0l54.701 54.701c2.93 2.929 7.678 2.929 10.607 0s2.929-7.677 0-10.606l-54.701-54.701c-8.791-8.791-23.095-8.792-31.89 0l-308.388 308.389c-8.791 8.792-8.791 23.097 0 31.889l91.335 91.335c1.465 1.465 3.384 2.197 5.304 2.197 1.919 0 3.839-.732 5.304-2.197 2.929-2.929 2.929-7.677 0-10.606z"/><path d="m327.988 46.241c-3.355 0-6.51 1.307-8.882 3.679l-269.187 269.187c-4.896 4.896-4.896 12.864 0 17.762l126.454 126.454c2.372 2.372 5.526 3.679 8.881 3.679s6.51-1.307 8.882-3.679l269.188-269.188c4.896-4.897 4.896-12.865 0-17.761l-126.455-126.454c-2.372-2.372-5.526-3.679-8.881-3.679zm-71.367 294.85c-46.577 0-84.47-37.893-84.47-84.47s37.893-84.47 84.47-84.47 84.471 37.893 84.471 84.47-37.894 84.47-84.471 84.47zm-71.367 109.9-123.002-123.003 98.727-98.727c-2.491 8.696-3.828 17.875-3.828 27.36 0 54.848 44.622 99.47 99.47 99.47 9.485 0 18.664-1.336 27.36-3.827zm167.01-167.011c2.491-8.696 3.827-17.874 3.827-27.359 0-54.848-44.622-99.47-99.471-99.47-9.485 0-18.664 1.336-27.36 3.828l98.726-98.727 123.004 123.003z"/><path d="m54.205 199.338c1.465 1.465 3.384 2.197 5.304 2.197 1.919 0 3.839-.732 5.304-2.197.001-.001.001-.002.002-.003l24.087-24.087c2.929-2.929 2.929-7.677 0-10.606-2.93-2.928-7.678-2.929-10.607 0l-11.286 11.286v-16.81c0-53.522 43.543-97.066 97.065-97.066h20.457l-11.287 11.286c-2.929 2.929-2.929 7.677 0 10.606 1.465 1.465 3.384 2.197 5.304 2.197 1.919 0 3.839-.732 5.304-2.197l24.09-24.09c.437-.437.698-.759.844-1.017 2.044-2.925 1.767-6.978-.844-9.589l-24.09-24.09c-2.93-2.929-7.678-2.929-10.607 0s-2.929 7.678 0 10.606l11.287 11.286h-20.457c-61.793 0-112.065 50.272-112.065 112.066v16.809l-11.285-11.286c-2.929-2.928-7.677-2.929-10.607 0-2.929 2.929-2.929 7.678 0 10.607z"/><path d="m463.993 305.302c-2.93-2.929-7.678-2.929-10.607 0l-24.089 24.09c-2.929 2.929-2.929 7.678 0 10.607 1.465 1.464 3.385 2.197 5.304 2.197s3.839-.732 5.304-2.197l11.285-11.286v20.456c0 53.522-43.543 97.066-97.065 97.066h-16.81l11.287-11.286c2.929-2.929 2.929-7.677 0-10.606-2.929-2.928-7.677-2.929-10.607 0l-24.09 24.09c-.002.002-.003.003-.004.005-1.354 1.357-2.192 3.23-2.192 5.298 0 1.831.658 3.507 1.748 4.809.116.146.265.31.449.494l24.09 24.09c1.465 1.465 3.385 2.197 5.304 2.197s3.839-.732 5.304-2.197c2.929-2.929 2.929-7.678 0-10.606l-11.287-11.286h16.81c61.793 0 112.065-50.272 112.065-112.066v-20.456l11.286 11.286c1.465 1.465 3.385 2.197 5.304 2.197s3.839-.732 5.304-2.197c2.929-2.929 2.929-7.678 0-10.606z"/><path d="m301.682 293.056c9.436-14.095 6.595-30.679-.952-41.276-9.72-13.645-25.987-17.692-41.442-10.308-2.044.976-4.148 1.961-6.271 2.919l-24.686-24.686c4.785-2.909 9.018-3.255 9.398-3.28 4.104-.203 7.287-3.678 7.121-7.793-.167-4.138-3.607-7.365-7.797-7.191-.573.023-10.085.517-19.522 7.465l-5.014-5.014c-2.93-2.929-7.678-2.929-10.607 0s-2.929 7.677 0 10.606l5.421 5.421c-.596.935-1.177 1.904-1.731 2.936-5.257 9.79-4.44 21.849 2.131 31.472 5.993 8.777 15.479 13.529 24.765 12.409 4.897-.592 10.281-2.033 17.031-4.622l31.345 31.345c-4.309 3.701-8.101 5.506-15.647 7.083-4.054.848-6.653 4.822-5.806 8.876.739 3.537 3.857 5.967 7.333 5.967.509 0 1.025-.052 1.543-.16 11.072-2.315 16.967-5.587 23.2-11.143l5.62 5.62c1.465 1.465 3.385 2.197 5.304 2.197s3.839-.732 5.304-2.197c2.929-2.929 2.929-7.677 0-10.606zm-70.988-41.212c-3.7.446-7.754-1.843-10.576-5.977-2.516-3.684-4.205-9.442-1.777-14.938l19.379 19.379c-2.487.732-4.858 1.274-7.026 1.536zm35.059 3.163c13.059-6.236 20.721 2.614 22.759 5.475 3.962 5.564 5.727 13.922 2.16 21.564l-26.358-26.358c.479-.228.948-.447 1.439-.681z"/></g></g></svg>