<svg id="Capa_1" enable-background="new 0 0 512 512" height="512" viewBox="0 0 512 512" width="512" xmlns="http://www.w3.org/2000/svg"><g><g><g><path d="m423.169 147.71-332.849 78.358c-8.147 1.815-16.605-1.447-21.51-8.296l-22.469-33.974c-4.488-6.266-12.227-9.251-19.682-7.59l-3.158.703c-10.306 2.295-16.779 12.602-14.459 23.02l13.531 60.752c7.498 33.665 40.572 54.943 73.873 47.525l392.432-87.406c9.826-2.189 15.998-12.016 13.786-21.949-8.068-36.227-43.66-59.124-79.495-51.143z" fill="#fafafa"/></g><g><g><path d="m36.809 193.772c4.085 5.703 10.633 8.906 17.414 8.775l-12.4-18.749c-3.931-5.488-10.355-8.458-16.899-7.996z" fill="#f0eef0"/></g><g><path d="m498.147 198.853c-4.713-21.159-18.822-37.757-36.878-46.325 4.326 6.627 7.57 14.13 9.395 22.325 2.213 9.934-3.959 19.761-13.786 21.949l-392.432 87.406c-13.379 2.98-26.717 1.32-38.378-3.905 13.563 21.785 39.637 33.746 65.861 27.905l392.433-87.406c9.826-2.188 15.998-12.016 13.785-21.949z" fill="#f0eef0"/></g></g><g><path d="m498.633 485.388h-485.266c-3.24 0-5.867-2.627-5.867-5.867v-30.852c0-3.24 2.627-5.867 5.867-5.867h485.267c3.24 0 5.867 2.627 5.867 5.867v30.852c-.001 3.24-2.628 5.867-5.868 5.867z" fill="#6fd7a3"/></g><g><path d="m452.694 184.418 39.905-8.888c-14.95-22.031-42.112-33.904-69.43-27.82l-11.751 2.766 1.999 8.973c3.951 17.741 21.536 28.92 39.277 24.969z" fill="#60b7ff"/></g><g><path d="m212.429 231.231 144.789-29.705c7.038-1.444 9.043-10.62 3.272-14.972l-206.506-155.716c-4.802-3.621-10.898-5.005-16.754-3.804-13.345 2.738-20.543 17.418-14.637 29.849l80.641 169.718c1.658 3.489 5.45 5.398 9.195 4.63z" fill="#fe646f"/></g><g><path d="m360.489 186.554-206.505-155.716c-4.802-3.621-10.898-5.005-16.754-3.804-4.371.897-8.077 3.08-10.885 6.041l206.568 165.293c2.417 1.935 3.489 4.727 3.437 7.438l20.868-4.281c7.038-1.443 9.043-10.619 3.271-14.971z" fill="#fd4755"/></g></g><g><path d="m498.633 435.302h-129.842c-4.142 0-7.5 3.357-7.5 7.5s3.358 7.5 7.5 7.5h128.209v27.586h-482v-27.586h317.791c4.142 0 7.5-3.357 7.5-7.5s-3.358-7.5-7.5-7.5h-319.424c-7.371 0-13.367 5.996-13.367 13.367v30.852c0 7.371 5.996 13.367 13.367 13.367h485.266c7.371 0 13.367-5.996 13.367-13.367v-30.852c0-7.371-5.997-13.367-13.367-13.367z"/><path d="m15.253 262.314c7.261 32.597 36.085 54.866 67.891 54.864 4.928 0 9.932-.535 14.933-1.649l267.442-59.567c.003-.001.007-.001.01-.002l124.98-27.837c6.723-1.497 12.451-5.546 16.128-11.401 3.661-5.829 4.85-12.754 3.348-19.499-8.949-40.176-48.577-65.662-88.36-56.852l-87.002 17.286-176.123-132.807c-6.516-4.913-14.819-6.797-22.777-5.162-8.581 1.761-15.754 7.288-19.681 15.166-3.976 7.976-4.057 17.179-.223 25.248l24.691 51.824c1.778 3.741 6.252 5.333 9.993 3.556 3.741-1.778 5.333-6.252 3.556-9.993l-24.691-51.824c-1.843-3.879-1.807-8.296.099-12.119 1.856-3.725 5.236-6.336 9.271-7.164 3.743-.764 7.653.124 10.731 2.445l206.504 155.716c.135.103.495.373.355.995-.122.539-.444.605-.618.642l-144.789 29.705c-.363.069-.737-.133-.912-.501l-38.7-81.448c-1.778-3.741-6.252-5.333-9.993-3.555-3.741 1.778-5.333 6.252-3.555 9.993l23.125 48.669-92.197 21.706c-5.175 1.155-10.542-.903-13.709-5.241l-22.384-33.846c-.052-.077-.104-.154-.159-.229-6.248-8.722-17.005-12.864-27.409-10.544l-3.159.703c-14.325 3.191-23.364 17.533-20.148 31.972zm409.377-107.247c.057-.012.113-.023.169-.036 20.208-4.501 40.367 2.141 54.204 15.844l-27.939 6.222c-13.679 3.039-27.281-5.603-30.326-19.277l-.422-1.896zm-399.499 29.164 3.158-.703c4.482-.994 9.133.782 11.883 4.539l22.382 33.843c.052.077.104.154.159.229 6.664 9.305 18.139 13.719 29.326 11.229l95.433-22.466 8.989 18.918c2.677 5.635 8.279 9.082 14.29 9.082 1.053 0 2.12-.106 3.185-.325l144.788-29.705c6.158-1.263 10.846-5.873 12.236-12.033 1.401-6.211-.881-12.446-5.956-16.273l-14.329-10.805 54.924-10.913.497 2.232c2.347 10.535 8.656 19.526 17.765 25.317 6.561 4.17 14.009 6.321 21.6 6.321 2.948 0 5.917-.325 8.864-.981l34.709-7.73c2.832 5.028 4.99 10.551 6.31 16.476.638 2.863.138 5.797-1.409 8.259-1.53 2.437-3.905 4.119-6.687 4.739l-111.379 24.808c-.004.001-.008.001-.011.002l-281.042 62.597c-29.211 6.501-58.334-12.261-64.921-41.836l-13.532-60.752c-1.418-6.364 2.516-12.676 8.768-14.069z"/><path d="m96.195 271.418c.561 0 1.132-.063 1.703-.196l65.807-15.277c4.035-.937 6.546-4.967 5.61-9.002-.937-4.034-4.962-6.551-9.002-5.609l-65.807 15.277c-4.035.937-6.546 4.967-5.609 9.002.803 3.464 3.888 5.805 7.298 5.805z"/></g></g></svg>