<svg id="Capa_1" enable-background="new 0 0 512 512" height="512" viewBox="0 0 512 512" width="512" xmlns="http://www.w3.org/2000/svg"><g><g><g><path d="m248.038 490.598h-48.42c-4.397 0-7.962-3.565-7.962-7.962v-168.833h64.344v168.833c0 4.397-3.565 7.962-7.962 7.962z" fill="#537983"/></g><g><path d="m191.656 313.803h64.344v37.994h-64.344z" fill="#3e5959"/></g><g><path d="m491.796 224.163-196.313 71.931v-206.464l182.987-67.048c12.638-4.631 26.03 4.725 26.03 18.185v165.212c0 8.126-5.074 15.388-12.704 18.184z" fill="#c4e2ff"/></g><g><path d="m286.752 313.803h-122.533c-4.404 0-7.974-3.57-7.974-7.974v-232.799c0-4.404 3.57-7.974 7.974-7.974h122.534c4.404 0 7.974 3.57 7.974 7.974v232.798c-.001 4.404-3.571 7.975-7.975 7.975z" fill="#60b7ff"/></g><g><path d="m478.47 22.582-3.97 1.455v126.432c0 23.449-14.639 44.403-36.656 52.471l-142.361 52.162v40.992l196.313-71.931c7.63-2.796 12.704-10.058 12.704-18.184v-165.212c0-13.46-13.392-22.816-26.03-18.185z" fill="#b3dafe"/></g><g><path d="m286.752 65.056h-22.026v160.241c0 32.312-26.194 58.506-58.506 58.506h-49.977v22.026c0 4.404 3.57 7.974 7.974 7.974h122.533c4.404 0 7.974-3.57 7.974-7.974v-232.799c.002-4.404-3.568-7.974-7.972-7.974z" fill="#26a6fe"/></g><g><path d="m106.052 94.199h50.193v203.173h-50.193z" fill="#c4e2ff"/></g><g><path d="m28.485 304.954 26.694-7.581v-203.174l-26.694-7.581c-10.523-2.988-20.985 4.916-20.985 15.856v186.624c0 10.94 10.462 18.844 20.985 15.856z" fill="#0182fc"/></g><g><path d="m74.54 305.868 29.915-8.496v-203.173l-29.915-8.495c-8.908-2.53-17.764 4.161-17.764 13.422v193.321c0 9.26 8.856 15.951 17.764 13.421z" fill="#60b7ff"/></g></g><g><path d="m500.519 18.742c-7.188-5.021-16.397-6.219-24.629-3.202l-173.664 63.632v-3.937c0-9.748-7.931-17.679-17.679-17.679h-118.124c-9.749 0-17.68 7.931-17.68 17.679v11.465h-42.692c-.158 0-.313.014-.469.024l-28.993-8.234c-6.526-1.854-13.378-.571-18.792 3.52-1.543 1.166-2.892 2.512-4.042 3.99l-23.221-6.595c-7.297-2.073-14.956-.639-21.009 3.935-6.053 4.573-9.525 11.547-9.525 19.134v186.624c0 7.587 3.472 14.562 9.525 19.135 4.236 3.2 9.257 4.864 14.392 4.864 2.203 0 4.427-.306 6.618-.928l23.221-6.595c1.15 1.478 2.498 2.823 4.042 3.99 3.789 2.863 8.281 4.35 12.873 4.35 1.971 0 3.959-.274 5.919-.831l28.993-8.234c.156.01.311.024.469.024h42.756c.645 9.165 8.289 16.43 17.616 16.43h17.732v161.333c0 8.526 6.937 15.462 15.462 15.462h48.42c8.525 0 15.462-6.936 15.462-15.462v-4.391c0-4.142-3.357-7.5-7.5-7.5s-7.5 3.358-7.5 7.5v4.391c0 .255-.207.462-.462.462h-48.42c-.255 0-.462-.207-.462-.462v-161.333h49.344v121.942c0 4.142 3.357 7.5 7.5 7.5s7.5-3.358 7.5-7.5v-121.942h21.048c9.748 0 17.679-7.931 17.679-17.679v-2.013l192.15-70.406c10.541-3.862 17.623-14 17.623-25.227v-165.211c0-8.769-4.292-17.003-11.481-22.025zm-452.84 272.964-21.242 6.033c-2.732.776-5.602.239-7.869-1.474-2.268-1.713-3.568-4.325-3.568-7.167v-186.624c0-2.842 1.3-5.454 3.567-7.167 1.586-1.199 3.467-1.822 5.39-1.822.825 0 1.658.115 2.479.348l21.242 6.033v191.84zm49.276 0-24.463 6.948c-1.963.558-4.024.172-5.652-1.059-1.629-1.23-2.563-3.107-2.563-5.148v-193.322c0-2.041.934-3.918 2.563-5.148 1.14-.861 2.49-1.309 3.872-1.309.593 0 1.191.083 1.781.25l24.463 6.948v191.84zm190.271 11.918c0 1.477-1.202 2.679-2.679 2.679h-118.124c-1.478 0-2.68-1.202-2.68-2.679v-71.512c0-4.142-3.357-7.5-7.5-7.5s-7.5 3.358-7.5 7.5v57.76h-35.192v-188.173h35.192v92.12c0 4.142 3.357 7.5 7.5 7.5s7.5-3.358 7.5-7.5v-118.584c0-1.477 1.202-2.679 2.68-2.679h118.124c1.477 0 2.679 1.202 2.679 2.679zm209.774-97.645c0 4.959-3.128 9.437-7.783 11.142l-186.233 68.238v-190.489l178.066-65.246c3.689-1.352 7.655-.838 10.879 1.414 3.222 2.251 5.07 5.797 5.07 9.728v165.213z"/><path d="m457.124 131.77-123.14 45.094c-3.89 1.425-5.888 5.732-4.464 9.622 1.113 3.039 3.985 4.923 7.044 4.923.856 0 1.728-.148 2.578-.459l123.14-45.094c3.89-1.425 5.888-5.732 4.464-9.622-1.425-3.889-5.733-5.888-9.622-4.464z"/></g></g></svg>