<svg id="Capa_1" enable-background="new 0 0 512.027 512.027" viewBox="0 0 512.027 512.027" xmlns="http://www.w3.org/2000/svg"><g><g><g><g><g><path d="m289.488 357.2-81.817-87.691 226.163-218.81c16.736-16.191 42.373-15.489 58.315 1.598 15.942 17.087 16.597 44.565 1.49 62.502z" fill="#fdc102"/></g></g></g><g><g><g><path d="m208.451 405.121-45.49-48.756c-3.316-3.554-3.825-9.123-1.218-13.3l45.928-73.556 81.817 87.691-68.629 49.226c-3.896 2.795-9.093 2.248-12.408-1.305z" fill="#8ebac5"/></g></g></g><g><g><g><path d="m108.603 463.381c-11.995-12.856-11.995-33.7 0-46.556l55.384-59.36 43.437 46.556-55.384 59.36c-11.994 12.856-31.442 12.856-43.437 0z" fill="#537983"/></g></g></g><g><g><g><path d="m492.149 52.297c-3.742-4.01-8.022-7.106-12.592-9.305 8.213 16.461 6.327 37.268-5.918 51.807l-203.515 241.646 19.365 20.755 204.151-242.401c15.107-17.937 14.451-45.416-1.491-62.502z" fill="#fda302"/></g></g></g><g><g><g><path d="m269.488 337.2-68.629 49.226c-2.655 1.904-5.911 2.254-8.767 1.162l16.358 17.532c3.316 3.554 8.512 4.1 12.409 1.305l68.629-49.226z" fill="#7ca1b1"/></g></g></g><g><g><g><path d="m188.354 383.581-53.97 57.456c-9.28 9.88-22.027 13.384-32.95 10.257 1.484 4.411 3.87 8.552 7.169 12.087 11.995 12.856 31.442 12.856 43.437 0l55.384-59.36z" fill="#3e5959"/></g></g></g></g><g><path d="m477.817 133.585c-3.167-2.669-7.899-2.263-10.567.905l-178.049 211.408-71.021-76.121 51.324-49.657c2.978-2.88 3.056-7.628.176-10.605-2.881-2.978-7.629-3.055-10.605-.175l-52.645 51.005c-3.036 2.942-5.703 6.237-7.945 9.821-10.698 17.097-43.105 68.927-43.105 68.927-3.409 5.461-3.677 12.158-1.049 17.727l-51.212 54.888c-6.046 6.479-9.581 14.641-10.623 23.092-15.249-16.505-34.879-37.604-46.12-49.104-10.798-11.047-25.747-12.214-36.354-2.84-12.139 10.726-15.994 33.812 4.224 59.154 13.564 17.002 34.53 27.348 60.631 29.918 4.647.458 9.062.632 13.097.632 7.859 0 14.268-.663 18.125-1.191 6.811 5.927 15.272 9.152 24.222 9.153h.001c10.306 0 19.968-4.271 27.202-12.026l50.749-54.393c2.25 1.061 4.674 1.617 7.116 1.617 3.41 0 6.845-1.052 9.841-3.201l63.434-45.507c3.516-2.523 6.706-5.472 9.496-8.78l180.562-214.08c2.669-3.167 2.264-7.899-.905-10.567zm-451.845 299.072c-8.253-10.345-16.666-29.15-6.018-38.56 1.91-1.688 4.086-2.52 6.353-2.52 3.097 0 6.362 1.555 9.343 4.604 14.26 14.589 42.263 44.895 57.303 61.243-17.974.692-48.768-1.938-66.981-24.767zm120.585 25.608c-4.368 4.681-10.134 7.259-16.236 7.259-6.098 0-11.86-2.575-16.225-7.251-.008-.008-.011-.012-.021-.023-9.331-10.015-9.328-26.298.012-36.309l49.9-53.482 33.18 35.562zm69.931-57.934c-.833.596-1.811.47-2.553-.327h-.001l-45.489-48.755c-.998-1.069-1.147-2.919-.341-4.211l40.752-65.265 69.328 74.306z"/><path d="m497.633 47.181c-9.112-9.768-21.267-15.33-34.223-15.661-12.888-.329-25.258 4.568-34.79 13.79l-144.347 139.652c-2.977 2.88-3.056 7.628-.176 10.605 1.472 1.521 3.431 2.285 5.392 2.285 1.878 0 3.758-.701 5.214-2.11l144.347-139.652c6.616-6.401 15.131-9.798 23.977-9.575 8.899.228 17.295 4.099 23.64 10.899 13.409 14.372 13.953 37.456 1.238 52.553-2.669 3.168-2.264 7.9.905 10.568 3.166 2.667 7.898 2.262 10.567-.905 17.519-20.801 16.753-52.625-1.744-72.449z"/><path d="m153.433 404.338c-2.826 3.029-2.662 7.774.367 10.601 1.445 1.349 3.282 2.016 5.114 2.016 2.007 0 4.009-.801 5.485-2.383l6.613-7.088c2.826-3.029 2.662-7.774-.367-10.601s-7.775-2.66-10.6.367z"/><path d="m209.778 338.937 14.363 15.394c1.477 1.583 3.478 2.384 5.485 2.384 1.832 0 3.669-.667 5.114-2.016 3.028-2.826 3.193-7.572.367-10.6l-14.362-15.394c-2.824-3.028-7.571-3.195-10.6-.368-3.027 2.826-3.192 7.572-.367 10.6z"/></g></g><g/><g/><g/><g/><g/><g/><g/><g/><g/><g/><g/><g/><g/><g/><g/></svg>