<svg id="Capa_1" enable-background="new 0 0 512 512" viewBox="0 0 512 512" xmlns="http://www.w3.org/2000/svg"><g><g><g><g><g><path d="m454.489 429.95h-396.978c-27.62 0-50.011-22.391-50.011-50.011v-247.878c0-27.62 22.391-50.011 50.011-50.011h396.978c27.62 0 50.011 22.391 50.011 50.011v247.878c0 27.62-22.391 50.011-50.011 50.011z" fill="#0593fc"/></g></g></g><g><g><g><path d="m471.521 85.029c1.926 5.316 2.979 11.051 2.979 17.032v247.878c0 27.62-22.391 50.011-50.011 50.011h-396.978c-5.981 0-11.715-1.053-17.032-2.979 6.967 19.234 25.393 32.979 47.032 32.979h396.978c27.62 0 50.011-22.391 50.011-50.011v-247.878c0-21.639-13.745-40.065-32.979-47.032z" fill="#0182fc"/></g></g></g><g><g><g><path d="m203.994 238.633h-139.779c-8.958 0-16.22-7.262-16.22-16.22v-78.037c0-8.958 7.262-16.22 16.22-16.22h139.779c8.958 0 16.22 7.262 16.22 16.22v78.037c0 8.958-7.262 16.22-16.22 16.22z" fill="#8ac9fe"/></g></g></g><g><g><g><path d="m203.994 383.843h-139.779c-8.958 0-16.22-7.262-16.22-16.22v-78.037c0-8.958 7.262-16.22 16.22-16.22h139.779c8.958 0 16.22 7.262 16.22 16.22v78.037c0 8.958-7.262 16.22-16.22 16.22z" fill="#8ac9fe"/></g></g></g><g><g><g><circle cx="299.138" cy="173.29" fill="#faf7f7" r="45.133"/></g></g></g><g><g><g><circle cx="425.226" cy="173.29" fill="#faf7f7" r="45.133"/></g></g></g><g><g><g><path d="m460.838 305.428h-197.311c-5.259 0-9.521-4.263-9.521-9.521v-29.811c0-5.259 4.263-9.521 9.521-9.521h197.311c5.259 0 9.521 4.263 9.521 9.521v29.811c.001 5.258-4.262 9.521-9.521 9.521z" fill="#8ac9fe"/></g></g></g><g><g><g><path d="m460.838 383.843h-197.311c-5.259 0-9.521-4.263-9.521-9.521v-29.811c0-5.259 4.263-9.521 9.521-9.521h197.311c5.259 0 9.521 4.263 9.521 9.521v29.811c.001 5.258-4.262 9.521-9.521 9.521z" fill="#8ac9fe"/></g></g></g><g><g><g><path d="m89.073 82.05h76.383v347.9h-76.383z" fill="#ebe5e3"/></g></g></g><g><g><g><path d="m89.073 82.05h76.383v314.712h-76.383z" fill="#f9f3f1"/></g></g></g><g><g><g><path d="m165.456 199.176-76.383-30v-47.161l76.383 30z" fill="#fdd602"/></g></g></g><g><g><g><path d="m165.456 289.498-76.383-30v-47.161l76.383 30z" fill="#fdd602"/></g></g></g><g><g><g><path d="m165.456 379.819-76.383-30v-47.16l76.383 30z" fill="#fdd602"/></g></g></g></g><g><path d="m454.489 74.55h-396.978c-31.712 0-57.511 25.799-57.511 57.511v247.878c0 31.712 25.799 57.511 57.511 57.511h178.276c4.142 0 7.5-3.358 7.5-7.5s-3.358-7.5-7.5-7.5h-62.831v-31.107h31.038c13.08 0 23.72-10.641 23.72-23.72v-78.037c0-13.079-10.641-23.72-23.72-23.72h-31.038v-19.733h31.038c13.08 0 23.72-10.641 23.72-23.72v-78.037c0-13.079-10.641-23.72-23.72-23.72h-31.038v-31.106h281.533c23.441 0 42.511 19.07 42.511 42.511v247.878c0 23.441-19.07 42.511-42.511 42.511h-182.702c-4.142 0-7.5 3.358-7.5 7.5s3.358 7.5 7.5 7.5h182.702c31.712 0 57.511-25.799 57.511-57.511v-247.878c0-31.712-25.799-57.511-57.511-57.511zm-357.916 195.17 61.383 24.109v27.826l-61.383-24.109zm0-46.38 61.383 24.109v30.264l-61.383-24.109zm61.383 7.993-61.383-24.109v-27.826l61.383 24.109zm-76.383-.2h-17.358c-4.808 0-8.72-3.912-8.72-8.72v-78.037c0-4.808 3.912-8.72 8.72-8.72h17.358zm0 145.21h-17.358c-4.808 0-8.72-3.912-8.72-8.72v-78.037c0-4.808 3.912-8.72 8.72-8.72h17.358zm15-62.681 61.383 24.109v30.264l-61.383-24.109zm61.383-126.27-61.383-24.109v-30.264l61.383 24.109zm-142.956 192.547v-247.878c0-23.441 19.07-42.511 42.511-42.511h24.062v31.107h-17.358c-13.079 0-23.72 10.641-23.72 23.72v78.037c0 13.079 10.641 23.72 23.72 23.72h17.358v19.733h-17.358c-13.079 0-23.72 10.641-23.72 23.72v78.037c0 13.079 10.641 23.72 23.72 23.72h17.358v31.107h-24.062c-23.441-.001-42.511-19.071-42.511-42.512zm81.573 42.511v-62.408l61.383 24.109v38.3h-61.383zm107.421-141.583c4.808 0 8.72 3.912 8.72 8.72v78.037c0 4.808-3.912 8.72-8.72 8.72h-31.038v-95.477zm0-145.21c4.808 0 8.72 3.912 8.72 8.72v78.037c0 4.808-3.912 8.72-8.72 8.72h-31.038v-95.477zm-46.038 5.355-61.383-24.109v-27.353h61.383z"/><path d="m299.139 225.923c29.022 0 52.633-23.611 52.633-52.633s-23.611-52.633-52.633-52.633-52.633 23.611-52.633 52.633 23.611 52.633 52.633 52.633zm0-90.266c20.751 0 37.633 16.882 37.633 37.633s-16.882 37.633-37.633 37.633-37.633-16.882-37.633-37.633 16.882-37.633 37.633-37.633z"/><path d="m425.227 225.923c29.022 0 52.633-23.611 52.633-52.633s-23.611-52.633-52.633-52.633-52.633 23.611-52.633 52.633 23.611 52.633 52.633 52.633zm0-90.266c20.751 0 37.633 16.882 37.633 37.633s-16.882 37.633-37.633 37.633-37.633-16.882-37.633-37.633 16.882-37.633 37.633-37.633z"/><path d="m246.505 295.906c0 9.386 7.636 17.021 17.021 17.021h197.311c9.386 0 17.021-7.636 17.021-17.021v-29.811c0-9.386-7.636-17.021-17.021-17.021h-87.334c-4.142 0-7.5 3.358-7.5 7.5s3.358 7.5 7.5 7.5h87.334c1.115 0 2.021.907 2.021 2.021v29.811c0 1.115-.907 2.021-2.021 2.021h-197.31c-1.115 0-2.021-.907-2.021-2.021v-29.811c0-1.115.907-2.021 2.021-2.021h74.977c4.142 0 7.5-3.358 7.5-7.5s-3.358-7.5-7.5-7.5h-74.977c-9.386 0-17.021 7.636-17.021 17.021v29.811z"/><path d="m477.859 374.322v-29.811c0-9.386-7.636-17.021-17.021-17.021h-197.311c-9.386 0-17.021 7.636-17.021 17.021v29.811c0 9.386 7.636 17.021 17.021 17.021h197.311c9.386 0 17.021-7.635 17.021-17.021zm-216.354 0v-29.811c0-1.115.907-2.021 2.021-2.021h197.311c1.115 0 2.021.907 2.021 2.021v29.811c0 1.115-.907 2.021-2.021 2.021h-197.31c-1.115 0-2.022-.906-2.022-2.021z"/></g></g><g/><g/><g/><g/><g/><g/><g/><g/><g/><g/><g/><g/><g/><g/><g/></svg>