<svg id="Capa_1" enable-background="new 0 0 512 512" height="512" viewBox="0 0 512 512" width="512" xmlns="http://www.w3.org/2000/svg"><g><g><g><path d="m410.394 504.5h-308.789c-12.566 0-22.753-10.187-22.753-22.753v-414.091c0-12.566 10.187-22.753 22.753-22.753h308.789c12.566 0 22.753 10.187 22.753 22.753v414.091c0 12.566-10.187 22.753-22.753 22.753z" fill="#feb237"/></g><g><path d="m379.749 458.686h-247.498c-5.282 0-9.564-4.282-9.564-9.564v-354.949c0-5.282 4.282-9.564 9.564-9.564h247.499c5.282 0 9.564 4.282 9.564 9.564v354.949c-.001 5.282-4.283 9.564-9.565 9.564z" fill="#fafafa"/></g><g><path d="m379.749 84.608h-20.436v334.514c0 5.282-4.282 9.564-9.564 9.564h-227.063v20.436c0 5.282 4.282 9.564 9.564 9.564h247.499c5.282 0 9.564-4.282 9.564-9.564v-354.949c0-5.282-4.282-9.565-9.564-9.565z" fill="#e6ddd9"/></g><g><path d="m199.068 171.526h-22.72c-4.31 0-7.804-3.494-7.804-7.804v-22.72c0-4.31 3.494-7.804 7.804-7.804h22.72c4.31 0 7.804 3.494 7.804 7.804v22.72c-.001 4.31-3.494 7.804-7.804 7.804z" fill="#fe646f"/></g><g><path d="m199.068 251.049h-22.72c-4.31 0-7.804-3.494-7.804-7.804v-22.72c0-4.31 3.494-7.804 7.804-7.804h22.72c4.31 0 7.804 3.494 7.804 7.804v22.72c-.001 4.31-3.494 7.804-7.804 7.804z" fill="#9be69d"/></g><g><path d="m199.068 330.573h-22.72c-4.31 0-7.804-3.494-7.804-7.804v-22.72c0-4.31 3.494-7.804 7.804-7.804h22.72c4.31 0 7.804 3.494 7.804 7.804v22.72c-.001 4.31-3.494 7.804-7.804 7.804z" fill="#9be69d"/></g><g><path d="m199.068 410.096h-22.72c-4.31 0-7.804-3.494-7.804-7.804v-22.72c0-4.31 3.494-7.804 7.804-7.804h22.72c4.31 0 7.804 3.494 7.804 7.804v22.72c-.001 4.31-3.494 7.804-7.804 7.804z" fill="#9be69d"/></g><g><path d="m304.184 27.89v-8.121c0-6.776-5.493-12.269-12.269-12.269h-71.83c-6.776 0-12.269 5.493-12.269 12.269v8.121c0 3.981-3.228 7.209-7.209 7.209h-11.799c-3.256 0-5.896 2.64-5.896 5.896v37.717c0 3.256 2.64 5.896 5.896 5.896h134.383c3.256 0 5.896-2.64 5.896-5.896v-37.717c0-3.256-2.64-5.896-5.896-5.896h-11.799c-3.981 0-7.208-3.227-7.208-7.209z" fill="#a8d3d8"/></g></g><g><path d="m410.394 37.403h-74.31c-1.575-5.646-6.751-9.804-12.892-9.804h-11.509v-7.83c0-10.901-8.868-19.769-19.768-19.769h-71.829c-10.901 0-19.77 8.868-19.77 19.769v7.83h-11.508c-6.141 0-11.317 4.159-12.892 9.804h-74.311c-16.681 0-30.252 13.571-30.252 30.253v21.181c0 4.142 3.357 7.5 7.5 7.5s7.5-3.358 7.5-7.5v-21.181c0-8.411 6.842-15.253 15.252-15.253h73.808v24.705h-43.163c-9.409 0-17.064 7.655-17.064 17.064v354.949c0 9.409 7.655 17.064 17.064 17.064h247.5c9.409 0 17.063-7.655 17.063-17.064v-22.189c0-4.142-3.357-7.5-7.5-7.5s-7.5 3.358-7.5 7.5v22.189c0 1.138-.926 2.064-2.063 2.064h-247.5c-1.139 0-2.064-.926-2.064-2.064v-354.948c0-1.138.926-2.064 2.064-2.064h247.5c1.138 0 2.063.926 2.063 2.064v296.76c0 4.142 3.357 7.5 7.5 7.5s7.5-3.358 7.5-7.5v-296.76c0-9.409-7.654-17.064-17.063-17.064h-43.162v-24.706h73.807c8.41 0 15.253 6.842 15.253 15.253v414.091c0 8.411-6.843 15.253-15.253 15.253h-308.79c-8.41 0-15.252-6.842-15.252-15.253v-357.91c0-4.142-3.357-7.5-7.5-7.5s-7.5 3.358-7.5 7.5v357.91c0 16.682 13.571 30.253 30.252 30.253h308.789c16.682 0 30.253-13.571 30.253-30.253v-414.091c0-16.681-13.571-30.253-30.253-30.253zm-219.981 39.705v-34.509h10.194c8.11 0 14.709-6.599 14.709-14.709v-8.121c0-2.63 2.14-4.769 4.77-4.769h71.829c2.63 0 4.769 2.139 4.769 4.769v8.121c0 8.11 6.599 14.709 14.709 14.709h10.195v34.509z"/><path d="m214.372 141.002c0-8.438-6.865-15.304-15.304-15.304h-22.72c-8.438 0-15.304 6.865-15.304 15.304v22.72c0 8.438 6.865 15.304 15.304 15.304h22.72c8.438 0 15.304-6.865 15.304-15.304zm-15 22.72c0 .167-.137.304-.304.304h-22.72c-.167 0-.304-.136-.304-.304v-22.72c0-.167.137-.304.304-.304h22.72c.167 0 .304.136.304.304z"/><path d="m353.934 125.699h-112.658c-4.143 0-7.5 3.358-7.5 7.5s3.357 7.5 7.5 7.5h112.658c4.143 0 7.5-3.358 7.5-7.5s-3.357-7.5-7.5-7.5z"/><path d="m241.276 172.564h41.675c4.143 0 7.5-3.358 7.5-7.5s-3.357-7.5-7.5-7.5h-41.675c-4.143 0-7.5 3.358-7.5 7.5s3.357 7.5 7.5 7.5z"/><path d="m214.372 220.526c0-8.438-6.865-15.304-15.304-15.304h-22.72c-8.438 0-15.304 6.865-15.304 15.304v22.72c0 8.438 6.865 15.304 15.304 15.304h22.72c8.438 0 15.304-6.865 15.304-15.304zm-15 22.72c0 .167-.137.304-.304.304h-22.72c-.167 0-.304-.136-.304-.304v-22.72c0-.167.137-.304.304-.304h22.72c.167 0 .304.136.304.304z"/><path d="m353.934 205.222h-112.658c-4.143 0-7.5 3.358-7.5 7.5s3.357 7.5 7.5 7.5h112.658c4.143 0 7.5-3.358 7.5-7.5s-3.357-7.5-7.5-7.5z"/><path d="m241.276 252.087h41.675c4.143 0 7.5-3.358 7.5-7.5s-3.357-7.5-7.5-7.5h-41.675c-4.143 0-7.5 3.358-7.5 7.5s3.357 7.5 7.5 7.5z"/><path d="m214.372 300.049c0-8.438-6.865-15.304-15.304-15.304h-22.72c-8.438 0-15.304 6.865-15.304 15.304v22.72c0 8.438 6.865 15.304 15.304 15.304h22.72c8.438 0 15.304-6.865 15.304-15.304zm-15 22.72c0 .167-.137.304-.304.304h-22.72c-.167 0-.304-.136-.304-.304v-22.72c0-.167.137-.304.304-.304h22.72c.167 0 .304.136.304.304z"/><path d="m353.934 284.746h-112.658c-4.143 0-7.5 3.358-7.5 7.5s3.357 7.5 7.5 7.5h112.658c4.143 0 7.5-3.358 7.5-7.5s-3.357-7.5-7.5-7.5z"/><path d="m241.276 331.611h41.675c4.143 0 7.5-3.358 7.5-7.5s-3.357-7.5-7.5-7.5h-41.675c-4.143 0-7.5 3.358-7.5 7.5s3.357 7.5 7.5 7.5z"/><path d="m199.068 364.269h-22.72c-8.438 0-15.304 6.865-15.304 15.304v22.72c0 8.438 6.865 15.304 15.304 15.304h22.72c8.438 0 15.304-6.865 15.304-15.304v-22.72c0-8.439-6.866-15.304-15.304-15.304zm.304 38.023c0 .167-.137.304-.304.304h-22.72c-.167 0-.304-.136-.304-.304v-22.72c0-.167.137-.304.304-.304h22.72c.167 0 .304.136.304.304z"/><path d="m361.434 371.769c0-4.142-3.357-7.5-7.5-7.5h-112.658c-4.143 0-7.5 3.358-7.5 7.5s3.357 7.5 7.5 7.5h112.658c4.143 0 7.5-3.358 7.5-7.5z"/><path d="m241.276 396.134c-4.143 0-7.5 3.358-7.5 7.5s3.357 7.5 7.5 7.5h41.675c4.143 0 7.5-3.358 7.5-7.5s-3.357-7.5-7.5-7.5z"/></g></g></svg>