<svg id="Capa_1" enable-background="new 0 0 512 512" viewBox="0 0 512 512" xmlns="http://www.w3.org/2000/svg"><g><g><g><g><g><path d="m149.579 384.616c-21.766 0-39.412-17.645-39.412-39.411v-182.754c0-21.766 17.645-39.411 39.411-39.411 21.766 0 39.411 17.645 39.411 39.411v182.754c.001 21.766-17.644 39.411-39.41 39.411z" fill="#678d98"/></g></g></g><g><g><g><path d="m228.313 384.616c-21.766 0-39.412-17.645-39.412-39.411v-182.754c0-21.766 17.645-39.411 39.411-39.411 21.766 0 39.412 17.645 39.412 39.411v182.754c0 21.766-17.645 39.411-39.411 39.411z" fill="#7ca1b1"/></g></g></g><g><g><g><path d="m365.818 369.246h-77.576c-12.04 0-21.8-9.76-21.8-21.8v-187.547c0-12.04 9.76-21.8 21.8-21.8h77.576c12.04 0 21.8 9.76 21.8 21.8v187.547c.001 12.04-9.76 21.8-21.8 21.8z" fill="#cbe5e8"/></g></g></g><g><g><g><path d="m387.619 354.89 110.796-47.633c3.341-1.436 5.506-4.723 5.506-8.36v-182.625c0-6.537-6.688-10.942-12.693-8.36l-103.608 44.543v202.435z" fill="#eef5f6"/></g></g></g><g><g><g><path d="m300.116 373.915h57.114v130.585h-57.114z" fill="#678d98"/></g></g></g><g><g><g><path d="m372.573 504.5h-87.798c-2.932 0-5.309-2.377-5.309-5.309v-15.605c0-5.713 4.631-10.345 10.345-10.345h77.727c5.713 0 10.345 4.631 10.345 10.345v15.605c-.002 2.932-2.379 5.309-5.31 5.309z" fill="#3e5959"/></g></g></g><g><g><g><path d="m28.936 504.5h-.184c-11.416 0-20.671-9.255-20.671-20.671v-20.397c0-11.416 9.255-20.671 20.671-20.671h.184c11.416 0 20.671 9.255 20.671 20.671v20.397c-.001 11.416-9.255 20.671-20.671 20.671z" fill="#537983"/></g></g></g><g><g><g><path d="m8.081 7.5v164.347h44.047l-16.193-146.479c-1.124-10.171-9.719-17.868-19.952-17.868z" fill="#01d0fb"/></g></g></g><g><g><g><path d="m8.081 98.019v297.539c0 3.522 2.989 6.327 6.501 6.063 74.674-5.615 133.984-91.245 133.984-172.375 0-83.471-62.782-130.717-140.485-131.227z" fill="#f9f3f1"/></g></g></g><g><g><g><path d="m228.313 123.039c-5.312 0-10.375 1.058-15 2.963 14.325 5.902 24.411 19.994 24.411 36.449v182.754c0 16.454-10.087 30.547-24.411 36.449 4.625 1.905 9.688 2.963 15 2.963 21.766 0 39.411-17.645 39.411-39.412v-182.754c0-21.766-17.645-39.412-39.411-39.412z" fill="#678d98"/></g></g></g><g><g><g><path d="m365.818 138.099h-30c12.04 0 21.8 9.76 21.8 21.8v187.547c0 12.04-9.76 21.801-21.8 21.801h30c12.04 0 21.8-9.76 21.8-21.801v-187.547c.001-12.04-9.76-21.8-21.8-21.8z" fill="#a8d3d8"/></g></g></g><g><g><g><path d="m8.081 98.019v2.65c63.241 11.031 110.485 56.171 110.485 128.577 0 72.331-47.144 148.236-110.287 167.829.712 2.77 3.314 4.77 6.303 4.545 74.674-5.615 133.984-91.245 133.984-172.375 0-83.47-62.782-130.716-140.485-131.226z" fill="#ebe5e3"/></g></g></g><g><g><g><path d="m120.671 146.136c-31.568 22.275-70.471 36.478-112.59 36.759v146.345c58.811-.52 110.393-37.018 139.831-85.179.428-4.942.655-9.886.655-14.814-.001-33.922-10.373-61.858-27.896-83.111z" fill="#01d0fb"/></g></g></g><g><g><g><path d="m148.524 225.673c-.462-28.577-9.415-57.411-27.853-79.537-6.617 4.669-13.56 8.978-20.784 12.884 23.207 35.554 23.224 90.412 7.829 131.773 18.182-17.704 44.215-37.284 40.808-65.12z" fill="#01c0fa"/></g></g></g></g><path d="m503.95 102.409c-4.678-3.08-10.539-3.598-15.686-1.387l-98.324 42.271c-5.291-7.662-14.128-12.695-24.123-12.695h-77.575c-7.41 0-14.422 2.852-19.737 7.689-8.219-13.62-23.158-22.748-40.193-22.748-16.483 0-30.998 8.553-39.367 21.446-8.369-12.893-22.884-21.446-39.367-21.446-4.143 0-7.5 3.358-7.5 7.5s3.357 7.5 7.5 7.5c17.025 0 30.976 13.4 31.865 30.206-.02.567-.043 1.133-.043 1.705v182.754c0 .572.023 1.138.043 1.705-.889 16.806-14.841 30.207-31.865 30.207-17.532 0-31.804-14.214-31.906-31.723 24.434-33.875 38.394-75.998 38.394-116.147 0-41.888-15.096-77.284-43.655-102.36-16.702-14.665-37.66-25.214-61.142-31.06l-7.879-71.282c-1.547-13.992-13.329-24.544-27.407-24.544h-7.902c-4.143 0-7.5 3.358-7.5 7.5v90.519 297.539c0 3.769 1.585 7.4 4.349 9.964 2.508 2.326 5.818 3.615 9.213 3.615.333 0 .668-.013 1.002-.038 2.073-.156 4.139-.379 6.199-.649v27.807c-11.95 3.261-20.763 14.206-20.763 27.175v20.396c0 15.533 12.638 28.17 28.171 28.17h.184c15.533 0 28.171-12.637 28.171-28.17v-20.396c0-12.97-8.813-23.914-20.763-27.175v-30.797c25.166-6.776 48.877-22.103 68.994-44.678 6.438 18.232 23.834 31.335 44.242 31.335 16.483 0 30.998-8.553 39.367-21.446 8.369 12.893 22.884 21.446 39.367 21.446 17.118 0 32.118-9.221 40.31-22.952 5.302 4.772 12.265 7.583 19.62 7.583h4.374v88.995h-2.807c-9.84 0-17.845 8.005-17.845 17.845v15.605c0 7.062 5.746 12.809 12.809 12.809h87.799c7.062 0 12.809-5.746 12.809-12.809v-15.605c0-9.84-8.005-17.845-17.845-17.845h-2.807v-88.995h1.088c10.862 0 20.721-6.106 25.764-15.396l109.794-47.202c6.101-2.623 10.043-8.609 10.043-15.25v-182.628c-.001-5.601-2.793-10.783-7.47-13.863zm-461.844 361.024v20.396c0 7.262-5.908 13.17-13.171 13.17h-.184c-7.263 0-13.171-5.908-13.171-13.17v-20.396c0-7.263 5.908-13.171 13.171-13.171h.184c7.263 0 13.171 5.908 13.171 13.171zm98.479-221.814c-14.361 23.009-33.546 42.549-55.597 56.567-21.599 13.73-45.445 21.682-69.407 23.25v-131.233c36.549-1.608 72.045-13.238 103.475-33.9 14.468 19.985 22.01 44.781 22.01 72.943 0 4.106-.168 8.235-.481 12.373zm-31.217-96.908c-28.611 18.457-60.74 28.902-93.787 30.476v-69.461c34.207 1.658 64.852 13.044 86.933 32.432 2.392 2.101 4.676 4.287 6.854 6.553zm-93.385-129.711c6.42 0 11.792 4.812 12.498 11.192l7.354 66.532c-6.607-1.025-13.367-1.705-20.254-2.013v-75.711zm-.402 379.012v-57.548c26.803-1.577 53.433-10.349 77.454-25.619 15.463-9.83 29.618-22.147 41.896-36.347-6.192 23.107-16.9 45.459-31.357 64.756-24.265 32.389-55.459 51.782-87.993 54.758zm354.8 89.574v13.414h-83.416v-13.414c0-1.568 1.276-2.845 2.845-2.845h77.727c1.568.001 2.844 1.277 2.844 2.845zm-62.764-17.844v-84.327h42.113v84.327zm-47.393-120.537c0 17.596-14.315 31.912-31.911 31.912-17.025 0-30.976-13.4-31.865-30.207.02-.567.043-1.133.043-1.705v-182.754c0-.572-.023-1.138-.043-1.705.889-16.806 14.841-30.206 31.865-30.206 17.596 0 31.911 14.315 31.911 31.911zm236.195-46.308c0 .64-.38 1.217-.967 1.47l-100.334 43.135v-9.818c0-4.142-3.357-7.5-7.5-7.5s-7.5 3.358-7.5 7.5v16.343c-.227.437-.415.901-.557 1.392-1.754 6.081-7.405 10.328-13.744 10.328h-77.575c-5.525 0-10.612-3.235-12.959-8.242-.178-.379-.39-.73-.619-1.064.367-2.36.56-4.776.56-7.237v-182.753c0-2.97-.29-5.872-.82-8.691 3.563-4.142 9.546-8.161 13.839-8.161h77.575c7.886 0 14.301 6.416 14.301 14.301v137.785c0 4.142 3.357 7.5 7.5 7.5s7.5-3.358 7.5-7.5v-140.29l99.069-42.592c.653-.28 1.182-.083 1.512.134.328.216.72.624.72 1.336v182.624z"/></g><g/><g/><g/><g/><g/><g/><g/><g/><g/><g/><g/><g/><g/><g/><g/></svg>