<svg id="Capa_1" enable-background="new 0 0 512 512" height="512" viewBox="0 0 512 512" width="512" xmlns="http://www.w3.org/2000/svg"><g><g><g><path d="m482.714 386.692h-453.428c-12.032 0-21.786-9.754-21.786-21.786v-217.812c0-12.032 9.754-21.786 21.786-21.786h453.428c12.032 0 21.786 9.754 21.786 21.786v217.812c0 12.032-9.754 21.786-21.786 21.786z" fill="#6fd7a3"/></g><g><path d="m482.714 125.308h-8.214v209.598c0 12.032-9.754 21.786-21.786 21.786h-445.214v8.214c0 12.032 9.754 21.786 21.786 21.786h453.428c12.032 0 21.786-9.754 21.786-21.786v-217.812c0-12.032-9.754-21.786-21.786-21.786z" fill="#3ec3a4"/></g><g><path d="m451.25 386.692h-390.499l50-261.384h290.499z" fill="#f0eef0"/></g><g><path d="m66.49 356.692-5.739 30h390.499l-5.739-30z" fill="#e6ddd9"/></g><g><path d="m411.25 386.692h-310.499l47.196-261.384h216.107z" fill="#678d98"/></g><g><path d="m106.168 356.692-5.417 30h310.499l-5.417-30z" fill="#537983"/></g></g><g><path d="m504.5 297.879c4.143 0 7.5-3.358 7.5-7.5v-143.285c0-16.148-13.138-29.286-29.286-29.286h-453.428c-16.148 0-29.286 13.138-29.286 29.286v73.906c0 4.142 3.357 7.5 7.5 7.5s7.5-3.358 7.5-7.5v-73.906c0-7.877 6.409-14.286 14.286-14.286h72.395l-47.131 246.384h-25.264c-7.877 0-14.286-6.409-14.286-14.286v-108.906c0-4.142-3.357-7.5-7.5-7.5s-7.5 3.358-7.5 7.5v108.906c0 16.148 13.138 29.286 29.286 29.286h453.428c16.148 0 29.286-13.138 29.286-29.286v-39.527c0-4.142-3.357-7.5-7.5-7.5s-7.5 3.358-7.5 7.5v39.527c0 7.877-6.409 14.286-14.286 14.286h-25.263l-47.131-246.384h72.394c7.877 0 14.286 6.409 14.286 14.286v143.285c0 4.142 3.357 7.5 7.5 7.5zm-387.548-165.071h22.019l-44.487 246.384h-24.663zm146.548 246.384v-44.774c0-4.142-3.357-7.5-7.5-7.5s-7.5 3.358-7.5 7.5v44.774h-138.773l44.486-246.384h94.287v44.774c0 4.142 3.357 7.5 7.5 7.5s7.5-3.358 7.5-7.5v-44.774h94.287l44.487 246.384zm178.68 0h-24.663l-44.488-246.384h22.02z"/><path d="m256 214.121c-4.143 0-7.5 3.358-7.5 7.5v68.757c0 4.142 3.357 7.5 7.5 7.5s7.5-3.358 7.5-7.5v-68.757c0-4.142-3.357-7.5-7.5-7.5z"/></g></g></svg>