<svg id="Capa_1" enable-background="new 0 0 512 512" viewBox="0 0 512 512" xmlns="http://www.w3.org/2000/svg"><g><g><g><g><g><path d="m497.831 306.24-22.707-14.383c-5.391-3.415-9.993-7.938-13.501-13.269l-25.38-38.57c-6.366-9.675-16.219-16.52-27.507-19.109l-267.15-61.285c-17.144-3.933-31.097-16.342-37.003-32.911l-26.801-75.188c-1.795-5.036-6.036-8.809-11.248-10.004l-18.751-4.302c-10.738-2.463-20.595 6.639-18.992 17.539l9.482 64.495c1.075 7.309-2.829 14.444-9.564 17.481-4.715 2.126-8.164 6.336-9.321 11.378l-2.569 11.2c-1.335 5.82.571 11.908 4.987 15.927l74.395 67.716c11.162 10.16 24.755 17.271 39.466 20.645l297.516 68.251c5.145 1.18 10.415 1.727 15.692 1.628l41.55-.78c6.585-.124 12.239-4.715 13.712-11.134 1.359-5.929-1.167-12.07-6.306-15.325z" fill="#f9f3f1"/></g></g></g><g><g><g><path d="m461.623 278.587-25.38-38.57c-6.366-9.675-16.219-16.52-27.507-19.109l-34.609-7.939-5.3 23.105c-2.696 11.751 4.645 23.463 16.396 26.159l77.371 17.749c-.329-.462-.66-.921-.971-1.395z" fill="#26a6fe"/></g></g></g><g><g><g><path d="m461.623 278.587-25.38-38.57c-6.366-9.675-16.219-16.52-27.507-19.109l-34.609-7.939-5.3 23.105c-2.696 11.751 4.645 23.463 16.396 26.159l77.371 17.749c-.329-.462-.66-.921-.971-1.395z" fill="#26a6fe"/></g></g></g><g><g><g><path d="m497.831 306.24-15.727-9.962c-2.548 3.841-6.861 6.331-11.679 6.421l-41.55.78c-5.278.099-10.547-.447-15.692-1.628l-290.475-76.552c-14.711-3.375-28.304-10.486-39.466-20.646l-65.452-53.056-.97 7.714c-1.335 5.82.571 11.908 4.987 15.928l74.394 67.716c11.162 10.16 24.755 17.27 39.466 20.645l297.516 68.25c5.145 1.181 10.415 1.727 15.692 1.628l41.55-.78c6.585-.124 12.239-4.715 13.712-11.134 1.36-5.928-1.168-12.069-6.306-15.324z" fill="#ebe5e3"/></g></g></g><g><g><g><path d="m291.34 318.052-92.349-21.185c-14.114-3.238-24.022-15.931-23.737-30.409l.251-12.735c.134-6.796 6.481-11.751 13.106-10.231l135.336 31.046c6.625 1.52 10.178 8.746 7.336 14.92l-5.325 11.571c-6.053 13.156-20.504 20.261-34.618 17.023z" fill="#fd544c"/></g></g></g><g><g><g><path d="m55.002 176.789 32.085 7.36c5.288 1.213 6.202 8.356 1.39 10.862l-61.271 31.904c-1.434.747-3.088.958-4.664.597l-9.754-2.238c-5.396-1.238-7.134-8.057-2.989-11.727l40.031-35.44c1.41-1.248 3.336-1.739 5.172-1.318z" fill="#fe6c55"/></g></g></g><g><g><g><circle cx="253.829" cy="352.517" fill="#678d98" r="18.882"/></g></g></g><g><g><g><circle cx="409.75" cy="377.955" fill="#678d98" r="18.882"/></g></g></g><g><g><g><path d="m487.154 475.179h-462.307c-9.58 0-17.346-7.766-17.346-17.346v-23.425c0-9.58 7.766-17.346 17.346-17.346h462.307c9.58 0 17.346 7.766 17.346 17.346v23.425c.001 9.58-7.766 17.346-17.346 17.346z" fill="#678d98"/></g></g></g><g><g><g><path d="m487.154 417.061h-12.654v10.771c0 9.58-7.766 17.346-17.346 17.346h-449.654v12.654c0 9.58 7.766 17.346 17.346 17.346h462.307c9.58 0 17.346-7.766 17.346-17.346v-23.425c.001-9.579-7.765-17.346-17.345-17.346z" fill="#537983"/></g></g></g></g><g><path d="m314.17 226.553-2.112 9.205c-.927 4.038 1.595 8.061 5.632 8.988.564.129 1.129.191 1.685.191 3.417 0 6.506-2.351 7.303-5.824l2.112-9.205c.927-4.038-1.595-8.061-5.632-8.988-4.034-.921-8.061 1.597-8.988 5.633z"/><path d="m282.221 236.413c3.418 0 6.507-2.352 7.304-5.825l2.111-9.205c.926-4.037-1.597-8.061-5.634-8.987-4.036-.924-8.061 1.596-8.987 5.633l-2.111 9.205c-.926 4.037 1.597 8.061 5.634 8.987.564.13 1.127.192 1.683.192z"/><path d="m245.067 227.891c3.418 0 6.507-2.352 7.304-5.825l2.111-9.205c.926-4.037-1.597-8.061-5.634-8.987-4.038-.925-8.062 1.596-8.987 5.633l-2.111 9.205c-.926 4.037 1.597 8.061 5.634 8.987.563.13 1.127.192 1.683.192z"/><path d="m207.912 219.367c3.418 0 6.507-2.352 7.304-5.825l2.111-9.205c.926-4.037-1.597-8.061-5.634-8.987-4.036-.925-8.061 1.596-8.987 5.633l-2.111 9.205c-.926 4.037 1.597 8.061 5.634 8.987.564.13 1.128.192 1.683.192z"/><path d="m170.758 210.844c3.418 0 6.507-2.352 7.304-5.825l2.111-9.205c.926-4.037-1.597-8.061-5.634-8.987-4.037-.925-8.061 1.596-8.987 5.633l-2.111 9.205c-.926 4.037 1.597 8.061 5.634 8.987.564.13 1.127.192 1.683.192z"/><path d="m128.398 183.938-2.111 9.205c-.926 4.037 1.597 8.061 5.634 8.987.564.129 1.128.191 1.684.191 3.418 0 6.507-2.352 7.304-5.825l2.111-9.205c.926-4.037-1.597-8.061-5.634-8.987-4.036-.925-8.062 1.596-8.988 5.634z"/><path d="m190.287 236.183c-5.367-1.231-10.938.005-15.278 3.395-4.342 3.389-6.894 8.491-7.003 13.998l-.25 12.735c-.354 17.931 12.078 33.856 29.559 37.866l56.921 13.058-1.936 8.429c-.04.175-.065.35-.093.524-11.366.704-21.416 8.775-24.091 20.424-3.256 14.178 5.63 28.361 19.808 31.617 1.979.455 3.958.672 5.907.672 12.017 0 22.909-8.281 25.71-20.48 1.577-6.868.386-13.939-3.355-19.911-2.382-3.802-5.618-6.864-9.426-8.997.05-.166.12-.321.159-.492l1.937-8.433 20.808 4.773c2.81.645 5.634.955 8.43.955 10.291 0 20.162-4.225 27.304-11.497l73.261 16.806-2.638 23.808c-.091.056-.185.106-.276.164-5.972 3.742-10.129 9.584-11.706 16.452s-.386 13.939 3.355 19.911 9.584 10.129 16.452 11.706c1.979.455 3.974.679 5.955.679 4.896 0 9.704-1.372 13.955-4.035 5.972-3.741 10.129-9.584 11.706-16.452s.386-13.939-3.355-19.911-9.584-10.129-16.452-11.706c-1.369-.314-2.747-.514-4.122-.61l1.842-16.63 18.131 4.159c5.296 1.215 10.725 1.829 16.157 1.829.45 0 .902-.004 1.353-.013l41.55-.78c10.048-.188 18.634-7.161 20.882-16.957 2.066-9.012-1.793-18.391-9.603-23.337l-22.707-14.383c-4.522-2.864-8.307-6.583-11.249-11.055l-25.38-38.57c-7.464-11.343-18.862-19.261-32.096-22.297l-53.386-12.247c-4.035-.926-8.061 1.595-8.987 5.633-.926 4.037 1.597 8.061 5.634 8.987l11.465 2.63-3.624 15.795c-3.615 15.763 6.268 31.529 22.024 35.145l74.773 17.211c3.602 4.487 7.885 8.328 12.797 11.44l22.707 14.383c2.447 1.55 3.656 4.489 3.009 7.312-.704 3.069-3.394 5.254-6.542 5.313l-41.55.78c-4.661.084-9.33-.396-13.875-1.439l-100.821-23.129 4.058-8.818c2.303-5.003 2.229-10.708-.201-15.651s-6.903-8.484-12.271-9.715zm74.635 118.881c-1.405 6.117-7.522 9.95-13.641 8.546-6.117-1.405-9.95-7.524-8.546-13.64 1.209-5.263 5.907-8.836 11.093-8.836.841 0 1.694.094 2.548.29 2.963.681 5.483 2.474 7.098 5.05s2.129 5.627 1.448 8.59zm154.473 16.848c1.614 2.577 2.129 5.627 1.448 8.59s-2.475 5.484-5.051 7.098-5.626 2.128-8.589 1.448c-2.963-.681-5.484-2.474-7.098-5.05-1.614-2.577-2.129-5.627-1.448-8.59s2.475-5.484 5.051-7.098c1.834-1.149 3.908-1.741 6.02-1.741.855 0 1.716.097 2.569.293 2.963.68 5.484 2.474 7.098 5.05zm-43.258-134.162 3.624-15.794 27.299 6.262c9.449 2.168 17.589 7.822 22.918 15.922l16.05 24.392-59.128-13.61c-7.702-1.767-12.53-9.47-10.763-17.172zm-83.12 72.992-92.349-21.185c-10.595-2.431-18.13-12.083-17.915-22.951l.25-12.735c.026-1.33.785-2.118 1.235-2.469.449-.351 1.394-.897 2.695-.599l135.337 31.046c1.296.297 1.912 1.201 2.164 1.713.252.513.592 1.552.035 2.761l-5.325 11.571c-4.542 9.874-15.529 15.278-26.127 12.848z"/><path d="m11.112 232.585 9.755 2.238c1.054.242 2.125.361 3.193.361 2.286 0 4.558-.547 6.61-1.616l28.036-14.599 32.445 29.533c12.09 11.004 26.903 18.753 42.839 22.409.564.129 1.128.191 1.684.191 3.417 0 6.507-2.352 7.304-5.825.926-4.037-1.597-8.061-5.634-8.987-13.427-3.08-25.908-9.609-36.095-18.882l-28.368-25.821 19.06-9.925c5.011-2.609 7.785-7.916 7.067-13.52-.717-5.604-4.738-10.041-10.245-11.304l-32.084-7.36c-4.184-.959-8.604.165-11.822 3.013l-7.567 6.7-10.436-9.5c-2.41-2.193-3.454-5.528-2.726-8.704l2.569-11.201c.628-2.738 2.531-5.062 5.094-6.217 9.738-4.391 15.454-14.839 13.9-25.409l-9.481-64.492c-.397-2.707.527-5.324 2.537-7.181 2.009-1.857 4.689-2.57 7.358-1.958l18.751 4.302c2.729.626 4.92 2.574 5.86 5.212l26.802 75.188c6.801 19.079 22.647 33.174 42.391 37.703l170.517 39.117c.564.129 1.128.191 1.684.191 3.418 0 6.507-2.352 7.304-5.825.926-4.037-1.597-8.061-5.634-8.987l-170.517-39.117c-14.724-3.378-26.543-13.89-31.615-28.119l-26.802-75.187c-2.669-7.488-8.888-13.019-16.636-14.796l-18.751-4.302c-7.455-1.711-15.267.367-20.889 5.559-5.622 5.191-8.313 12.811-7.2 20.382l9.482 64.494c.584 3.974-1.565 7.903-5.226 9.553-6.813 3.072-11.879 9.254-13.55 16.538l-2.569 11.2c-1.937 8.446.841 17.317 7.249 23.15l9.237 8.408-21.166 18.74c-4.031 3.569-5.709 9.026-4.379 14.244 1.331 5.216 5.416 9.205 10.664 10.408zm43.047-48.294 26.842 6.158-57.032 29.696-8.186-1.878z"/><path d="m160.979 331.373c3.417 0 6.506-2.351 7.303-5.823.928-4.037-1.594-8.061-5.631-8.988l-108.412-24.899c-4.029-.928-8.062 1.593-8.988 5.631-.928 4.037 1.594 8.061 5.631 8.988l108.412 24.899c.564.13 1.128.192 1.685.192z"/><path d="m28.569 316.562c-4.027-.926-8.062 1.593-8.988 5.631-.928 4.037 1.594 8.061 5.631 8.988l54.206 12.45c.564.13 1.129.192 1.686.192 3.417 0 6.506-2.351 7.303-5.823.928-4.037-1.594-8.061-5.631-8.988z"/><path d="m487.155 409.561h-462.308c-13.7 0-24.847 11.146-24.847 24.847v23.425c0 13.7 11.146 24.846 24.847 24.846h462.308c13.7 0 24.846-11.146 24.846-24.846v-23.425c-.001-13.701-11.146-24.847-24.846-24.847zm9.845 48.271c0 5.429-4.417 9.846-9.846 9.846h-462.307c-5.43 0-9.847-4.417-9.847-9.846v-23.425c0-5.429 4.417-9.846 9.847-9.846h462.308c5.429 0 9.846 4.417 9.846 9.846v23.425z"/></g></g><g/><g/><g/><g/><g/><g/><g/><g/><g/><g/><g/><g/><g/><g/><g/></svg>