<svg id="Capa_1" enable-background="new 0 0 512 512" height="512" viewBox="0 0 512 512" width="512" xmlns="http://www.w3.org/2000/svg"><g><g><g><path d="m498.633 503.61h-485.266c-3.24 0-5.867-2.627-5.867-5.867v-30.852c0-3.24 2.627-5.867 5.867-5.867h485.267c3.24 0 5.867 2.627 5.867 5.867v30.852c-.001 3.24-2.628 5.867-5.868 5.867z" fill="#8ebac5"/></g><g><path d="m429.624 174.296c0 88.765-95.563 223.41-141.634 283.163-12.438 16.133-36.681 16.432-49.53.624-46.432-57.129-140.646-185.194-140.646-283.787 0-91.627 74.278-165.905 165.905-165.905s165.905 74.278 165.905 165.905z" fill="#ffd15b"/></g><g><path d="m263.719 8.391c-5.057 0-10.058.239-15 .682 84.596 7.583 150.905 78.653 150.905 165.223 0 88.765-95.563 223.41-141.634 283.163-2.819 3.657-6.248 6.491-10.01 8.518 13.106 7.064 30.216 4.186 40.01-8.518 46.07-59.753 141.634-194.398 141.634-283.163 0-91.627-74.278-165.905-165.905-165.905z" fill="#ffc344"/></g><g><circle cx="263.719" cy="178.946" fill="#faf7f7" r="131.517"/></g><g><path d="m325.39 135.72-44.196 21.089-.497-.604c-8.332-10.131-22.489-13.287-34.333-7.659-2.497 1.186-3.243 4.386-1.488 6.521l11.265 13.696-38.439 18.342c-2.242 1.07-4.924.474-6.502-1.445-9.144-11.117-24.688-14.571-37.679-8.372-2.717 1.297-3.496 4.799-1.583 7.125l26.894 32.7c5.809 7.063 15.685 9.257 23.938 5.319l127.218-60.705c5.748-2.743 8.185-9.627 5.442-15.375-5.359-11.231-18.809-15.991-30.04-10.632z" fill="#26a6fe"/></g></g><g><path d="m362.963 157.669c1.696-4.792 1.425-9.959-.765-14.546-7.131-14.944-25.092-21.304-40.039-14.171l-39.244 18.726c-10.7-9.765-26.372-12.272-39.771-5.904-3.302 1.569-5.651 4.512-6.446 8.073-.79 3.543.079 7.182 2.385 9.984l5.175 6.293-28.339 13.522c-11.466-12.811-29.987-16.587-45.629-9.126-3.391 1.618-5.804 4.65-6.619 8.318-.815 3.669.086 7.437 2.473 10.339l26.895 32.701c5.348 6.501 13.158 10.006 21.148 10.006 3.987 0 8.021-.874 11.812-2.684l127.219-60.705c4.589-2.188 8.049-6.033 9.745-10.826zm-14.14-5.005c-.359 1.016-1.093 1.831-2.064 2.295l-127.219 60.705c-5.154 2.459-11.287 1.097-14.916-3.313l-24.376-29.639c9.063-2.697 18.994.219 25.159 7.713 3.774 4.591 10.157 6.011 15.525 3.45l38.438-18.342c2.082-.993 3.591-2.89 4.091-5.142s-.063-4.609-1.529-6.391l-8.321-10.118c7.751-1.908 16.059.725 21.293 7.089l.497.604c2.189 2.661 5.912 3.488 9.021 2.003l44.196-21.089c7.481-3.568 16.472-.388 20.042 7.094.465.972.522 2.066.163 3.081z"/><path d="m498.633 453.524h-58.161c-4.142 0-7.5 3.357-7.5 7.5s3.358 7.5 7.5 7.5h56.528v27.585h-482v-27.585h223.36c6.898 5.616 15.515 8.728 24.612 8.728.171 0 .343-.001.514-.004 9.035-.115 17.55-3.281 24.337-8.888.503.106 1.024.165 1.56.165h114.09c4.142 0 7.5-3.357 7.5-7.5s-3.358-7.5-7.5-7.5h-103.034c23.69-31.234 55.235-75.627 82.167-123.065 36.175-63.721 54.518-116.262 54.518-156.163 0-95.616-77.789-173.405-173.405-173.405-63.271 0-121.531 34.473-152.046 89.966-1.996 3.63-.672 8.19 2.958 10.187 3.63 1.993 8.189.67 10.186-2.958 27.879-50.699 81.103-82.194 138.902-82.194 87.345 0 158.405 71.061 158.405 158.405 0 87.464-97.958 223.959-140.073 278.584-4.518 5.859-11.355 9.274-18.758 9.37-7.407.086-14.339-3.148-19.012-8.897-41.783-51.408-138.967-181.51-138.967-279.057 0-15.507 2.234-30.827 6.641-45.535 1.188-3.968-1.064-8.148-5.032-9.337-3.967-1.188-8.148 1.063-9.337 5.032-4.825 16.105-7.271 32.874-7.271 49.84 0 44.223 18.133 98.444 53.896 161.158 26.419 46.327 57.415 88.441 80.966 118.07h-211.81c-7.371-.002-13.367 5.995-13.367 13.366v30.852c0 7.37 5.996 13.366 13.367 13.366h485.266c7.371 0 13.367-5.996 13.367-13.366v-30.852c0-7.371-5.997-13.368-13.367-13.368z"/><path d="m402.737 178.946c0-76.654-62.363-139.018-139.018-139.018s-139.018 62.363-139.018 139.018 62.363 139.018 139.018 139.018 139.018-62.363 139.018-139.018zm-263.035 0c0-68.384 55.634-124.018 124.018-124.018s124.018 55.634 124.018 124.018-55.634 124.018-124.018 124.018-124.018-55.634-124.018-124.018z"/></g></g></svg>