<svg id="Capa_1" enable-background="new 0 0 512 512" height="512" viewBox="0 0 512 512" width="512" xmlns="http://www.w3.org/2000/svg"><g><g><g><path d="m301.976 44.521h-97.834c-3.047 0-5.517-2.47-5.517-5.517v-25.987c0-3.047 2.47-5.517 5.517-5.517h97.834c3.047 0 5.517 2.47 5.517 5.517v25.987c-.001 3.047-2.47 5.517-5.517 5.517z" fill="#678d98"/></g><g><path d="m338.168 461.735h-164.336c-25.605 0-46.361-20.757-46.361-46.361v-249.421c0-25.605 20.757-46.361 46.361-46.361h164.337c25.605 0 46.361 20.757 46.361 46.361v249.421c0 25.605-20.757 46.361-46.362 46.361z" fill="#60b7ff"/></g><g><path d="m352.321 121.8c1.429 4.462 2.208 9.216 2.208 14.153v249.421c0 25.605-20.757 46.361-46.361 46.361h-164.336c-4.937 0-9.69-.779-14.153-2.208 5.984 18.681 23.485 32.208 44.153 32.208h164.337c25.605 0 46.361-20.757 46.361-46.361v-249.421c0-20.668-13.527-38.169-32.209-44.153z" fill="#26a6fe"/></g><g><path d="m189.765 504.5h-1.21c-8.082 0-14.633-6.552-14.633-14.633v-28.132h30.476v28.132c.001 8.081-6.551 14.633-14.633 14.633z" fill="#7ca1b1"/></g><g><path d="m323.444 504.5h-1.21c-8.082 0-14.633-6.552-14.633-14.633v-28.132h30.476v28.132c.001 8.081-6.551 14.633-14.633 14.633z" fill="#7ca1b1"/></g><g><path d="m184.101 419.961h-1.21c-8.082 0-14.633-6.552-14.633-14.633v-229.328c0-8.082 6.552-14.633 14.633-14.633h1.21c8.082 0 14.633 6.552 14.633 14.633v229.328c0 8.081-6.551 14.633-14.633 14.633z" fill="#0182fc"/></g><g><path d="m256.605 419.961h-1.21c-8.082 0-14.633-6.552-14.633-14.633v-229.328c0-8.082 6.552-14.633 14.633-14.633h1.21c8.082 0 14.633 6.552 14.633 14.633v229.328c0 8.081-6.551 14.633-14.633 14.633z" fill="#0182fc"/></g><g><path d="m329.109 419.961h-1.21c-8.082 0-14.633-6.552-14.633-14.633v-229.328c0-8.082 6.552-14.633 14.633-14.633h1.21c8.082 0 14.633 6.552 14.633 14.633v229.328c0 8.081-6.552 14.633-14.633 14.633z" fill="#0182fc"/></g></g><g><path d="m384.53 286.508c-4.142 0-7.5 3.358-7.5 7.5v121.366c0 21.428-17.433 38.861-38.861 38.861h-.091-164.155-.091c-21.428 0-38.861-17.433-38.861-38.861v-72.626c0-4.142-3.358-7.5-7.5-7.5s-7.5 3.358-7.5 7.5v72.626c0 27.185 20.248 49.716 46.452 53.339v21.154c0 12.204 9.929 22.133 22.133 22.133h1.209c12.204 0 22.133-9.929 22.133-22.133v-20.632h88.203v20.632c0 12.204 9.929 22.133 22.133 22.133h1.209c12.204 0 22.133-9.929 22.133-22.133v-21.154c26.204-3.623 46.452-26.154 46.452-53.339v-121.366c.002-4.142-3.356-7.5-7.498-7.5zm-187.631 203.359c0 3.933-3.2 7.133-7.133 7.133h-1.209c-3.933 0-7.133-3.2-7.133-7.133v-20.632h15.476v20.632zm133.678 0c0 3.933-3.2 7.133-7.133 7.133h-1.209c-3.933 0-7.133-3.2-7.133-7.133v-20.632h15.476v20.632z"/><path d="m338.169 112.092h-31.862v-60.828c5.051-1.79 8.686-6.603 8.686-12.26v-25.987c-.001-7.178-5.84-13.017-13.017-13.017h-97.834c-7.177 0-13.017 5.839-13.017 13.017v25.988c0 5.658 3.634 10.47 8.686 12.26v60.827h-25.979c-29.699 0-53.861 24.162-53.861 53.861v141.795c0 4.142 3.358 7.5 7.5 7.5s7.5-3.358 7.5-7.5v-141.795c0-21.428 17.433-38.861 38.861-38.861h164.337c21.428 0 38.861 17.433 38.861 38.861v93.055c0 4.142 3.358 7.5 7.5 7.5s7.5-3.358 7.5-7.5v-93.055c0-29.699-24.163-53.861-53.861-53.861zm-132.044-97.092h93.867v22.021h-93.867zm8.686 37.021h76.496v60.071h-76.496z"/><path d="m184.101 427.461c12.204 0 22.133-9.929 22.133-22.133v-229.328c0-12.204-9.929-22.133-22.133-22.133h-1.209c-12.205 0-22.133 9.929-22.133 22.133v229.328c0 12.204 9.929 22.133 22.133 22.133zm-8.343-22.134v-229.327c0-3.933 3.2-7.133 7.133-7.133h1.209c3.933 0 7.133 3.2 7.133 7.133v229.328c0 3.933-3.2 7.133-7.133 7.133h-1.209c-3.933 0-7.133-3.2-7.133-7.134z"/><path d="m256.605 427.461c12.204 0 22.133-9.929 22.133-22.133v-229.328c0-12.204-9.929-22.133-22.133-22.133h-1.209c-12.205 0-22.133 9.929-22.133 22.133v229.328c0 12.204 9.929 22.133 22.133 22.133zm-8.343-22.134v-229.327c0-3.933 3.2-7.133 7.133-7.133h1.209c3.933 0 7.133 3.2 7.133 7.133v229.328c0 3.933-3.2 7.133-7.133 7.133h-1.209c-3.933 0-7.133-3.2-7.133-7.134z"/><path d="m327.899 427.461h1.209c12.204 0 22.133-9.929 22.133-22.133v-229.328c0-12.204-9.929-22.133-22.133-22.133h-1.209c-12.205 0-22.133 9.929-22.133 22.133v229.328c0 12.204 9.929 22.133 22.133 22.133zm-7.133-251.461c0-3.933 3.2-7.133 7.133-7.133h1.209c3.933 0 7.133 3.2 7.133 7.133v229.328c0 3.933-3.2 7.133-7.133 7.133h-1.209c-3.933 0-7.133-3.2-7.133-7.133z"/></g></g></svg>