<svg id="Capa_1" enable-background="new 0 0 512 512" viewBox="0 0 512 512" xmlns="http://www.w3.org/2000/svg"><g><g><g><g><g><circle cx="256" cy="256" fill="#685e68" r="248.5"/></g></g></g><g><g><g><path d="m382.066 41.826c56.946 45.537 93.434 115.589 93.434 194.174 0 137.243-111.257 248.5-248.5 248.5-46.018 0-89.105-12.524-126.065-34.326 42.506 33.99 96.407 54.326 155.065 54.326 137.243 0 248.5-111.257 248.5-248.5 0-91.225-49.165-170.953-122.434-214.174z" fill="#554e56"/></g></g></g><g><g><g><circle cx="256" cy="256" fill="#eef5f6" r="197.347"/></g></g></g><g><g><g><circle cx="256" cy="256" fill="#7ca1b1" r="91.781"/></g></g></g><g><g><g><circle cx="256" cy="256" fill="#685e68" r="45.668"/></g></g></g></g><g><path d="m437.02 74.981c-48.352-48.352-112.64-74.981-181.02-74.981-60.52 0-119.247 21.51-165.362 60.567-3.16 2.677-3.553 7.409-.876 10.57 2.678 3.16 7.409 3.553 10.571.876 43.409-36.765 98.692-57.013 155.667-57.013 64.374 0 124.894 25.068 170.413 70.587s70.587 106.039 70.587 170.413-25.068 124.894-70.587 170.413-106.039 70.587-170.413 70.587c-64.373 0-124.894-25.068-170.412-70.587-45.52-45.519-70.588-106.04-70.588-170.413 0-55.472 18.318-107.608 52.975-150.771 2.594-3.23 2.078-7.95-1.152-10.544s-7.949-2.077-10.544 1.153c-17.854 22.237-31.764 47.066-41.342 73.797-9.912 27.661-14.937 56.718-14.937 86.365 0 68.38 26.629 132.667 74.98 181.019 48.353 48.352 112.64 74.981 181.02 74.981s132.668-26.629 181.02-74.981 74.98-112.639 74.98-181.019-26.629-132.667-74.98-181.019z"/><path d="m256 460.847c112.953 0 204.848-91.894 204.848-204.847s-91.895-204.847-204.848-204.847-204.847 91.894-204.847 204.847 91.894 204.847 204.847 204.847zm0-394.694c48.681 0 93.135 18.425 126.773 48.659l-12.908 6.947c-23.63 12.718-44.601 29.328-62.393 49.373-15.018-9.142-32.641-14.412-51.472-14.412-5.192 0-10.291.403-15.27 1.174-1.379-24.721 1.52-49.267 8.651-73.018l5.617-18.71c.335-.002.667-.013 1.002-.013zm121.033 310.821 9.176 17.05c-32.65 30.819-76.191 50.209-124.167 51.717 14.921-29.521 23.303-62.145 24.413-95.245 17.979-5.808 33.731-16.613 45.612-30.773 18.211 16.4 33.336 35.642 44.966 57.251zm-121.033-205.255c46.473 0 84.281 37.808 84.281 84.281s-37.808 84.281-84.281 84.281-84.28-37.808-84.28-84.281 37.807-84.281 84.28-84.281zm0 183.562c5.205 0 10.317-.405 15.308-1.181-1.697 31.982-10.668 63.368-26.111 91.433-43.504-2.453-83.137-19.617-113.994-46.591 32.035-10.594 61.474-28.248 85.917-51.595 11.948 5.105 25.089 7.934 38.88 7.934zm63.718-175.353c16.397-18.208 35.638-33.326 57.256-44.961l17.05-9.177c28.479 30.172 47.195 69.644 51.063 113.321l-13.65-4.098c-26.297-7.894-53.469-10.941-80.819-9.094-5.779-18.137-16.639-34.026-30.9-45.991zm-84.704-99.366c-7.888 26.276-10.94 53.461-9.097 80.821-22.468 7.16-41.488 22.116-53.866 41.676-21.921-24.075-38.086-52.95-47.134-84.261 30.281-28.943 70.097-47.979 114.195-51.885zm-70.362 136.561c-5.103 11.946-7.932 25.087-7.932 38.877 0 5.205.405 10.317 1.181 15.308-31.982-1.697-63.368-10.669-91.433-26.112 2.453-43.502 19.616-83.133 46.587-113.989 10.596 32.055 28.24 61.461 51.597 85.916zm-3.147 69.333c7.208 22.311 22.11 41.193 41.568 53.503-24.069 21.915-52.987 38.083-84.274 47.126-31.299-32.745-51.018-76.639-52.54-125.043 29.522 14.92 62.146 23.303 95.246 24.414zm235.684 96.317-6.947-12.908c-12.714-23.62-29.325-44.6-49.372-62.396 9.141-15.018 14.411-32.64 14.411-51.469 0-5.193-.403-10.294-1.175-15.274 24.713-1.382 49.248 1.518 73.019 8.655l18.71 5.617c.002.335.013.667.013 1.003 0 48.68-18.426 93.134-48.659 126.772z"/><path d="m256 309.168c18.797 0 36.384-10.084 45.898-26.316 2.095-3.573.896-8.168-2.679-10.263-3.572-2.094-8.167-.896-10.263 2.678-6.833 11.659-19.462 18.901-32.957 18.901-21.046 0-38.168-17.122-38.168-38.168s17.122-38.168 38.168-38.168c16.304 0 30.814 10.352 36.108 25.758 1.346 3.917 5.61 6.001 9.53 4.656 3.917-1.346 6.002-5.613 4.655-9.53-7.375-21.463-27.587-35.884-50.294-35.884-29.317 0-53.168 23.851-53.168 53.168s23.853 53.168 53.17 53.168z"/><path d="m271.27 240.731c-2.93-2.929-7.678-2.929-10.607 0l-4.663 4.662-4.662-4.662c-2.93-2.929-7.678-2.929-10.607 0s-2.929 7.677 0 10.606l4.663 4.663-4.663 4.663c-2.929 2.929-2.929 7.677 0 10.606 1.465 1.465 3.385 2.197 5.304 2.197s3.839-.732 5.304-2.197l4.662-4.662 4.662 4.662c1.465 1.465 3.385 2.197 5.304 2.197s3.839-.732 5.304-2.197c2.929-2.929 2.929-7.677 0-10.606l-4.664-4.663 4.663-4.663c2.928-2.929 2.928-7.677 0-10.606z"/></g></g><g/><g/><g/><g/><g/><g/><g/><g/><g/><g/><g/><g/><g/><g/><g/></svg>