<svg id="Capa_1" enable-background="new 0 0 512 512" viewBox="0 0 512 512" xmlns="http://www.w3.org/2000/svg"><g><g><g><g><g><path d="m154.138 87.591h-67.154v-24.242c0-6.628 5.373-12.002 12.002-12.002h43.151c6.628 0 12.002 5.373 12.002 12.002v24.242z" fill="#554e56"/></g></g></g><g><g><g><path d="m145.933 305.463h-50.743c-37.07 0-67.122-30.051-67.122-67.122v-107.08c0-24.118 19.552-43.67 43.67-43.67h97.646c24.118 0 43.67 19.552 43.67 43.67v107.08c.001 37.07-30.051 67.122-67.121 67.122z" fill="#c8effe"/></g></g></g><g><g><g><path d="m88.603 305.463h63.916v36.691h-63.916z" fill="#554e56"/></g></g></g><g><g><g><path d="m175.053 423.609h-108.983c-10.441 0-17.567-10.564-13.655-20.245l21.01-52c2.249-5.566 7.652-9.21 13.655-9.21h66.964c6.004 0 11.406 3.644 13.655 9.21l21.01 52c3.911 9.681-3.215 20.245-13.656 20.245z" fill="#fdd602"/></g></g></g><g><g><g><path d="m425.016 87.591h-67.154v-24.242c0-6.628 5.373-12.002 12.002-12.002h43.151c6.628 0 12.002 5.373 12.002 12.002v24.242z" fill="#554e56"/></g></g></g><g><g><g><path d="m416.81 305.463h-50.743c-37.07 0-67.122-30.051-67.122-67.122v-107.08c0-24.118 19.552-43.67 43.67-43.67h97.646c24.118 0 43.67 19.552 43.67 43.67v107.08c.001 37.07-30.05 67.122-67.121 67.122z" fill="#c8effe"/></g></g></g><g><g><g><path d="m359.481 305.463h63.916v36.691h-63.916z" fill="#554e56"/></g></g></g><g><g><g><path d="m445.93 423.609h-108.983c-10.441 0-17.567-10.564-13.655-20.245l21.01-52c2.249-5.566 7.652-9.21 13.655-9.21h66.964c6.004 0 11.406 3.644 13.655 9.21l21.01 52c3.911 9.681-3.214 20.245-13.656 20.245z" fill="#fdd602"/></g></g></g><g><g><g><path d="m459.586 403.364-21.01-52c-2.249-5.566-7.652-9.21-13.655-9.21h-30c6.004 0 11.406 3.644 13.655 9.21l21.01 52c3.911 9.681-3.214 20.245-13.655 20.245h30c10.441 0 17.566-10.564 13.655-20.245z" fill="#fdc102"/></g></g></g><g><g><g><path d="m169.384 87.591h-30c24.119 0 43.67 19.552 43.67 43.67v107.08c0 37.07-30.052 67.122-67.122 67.122h30c37.07 0 67.122-30.051 67.122-67.122v-107.08c.001-24.118-19.551-43.67-43.67-43.67z" fill="#99e6fc"/></g></g></g><g><g><g><path d="m188.708 403.364-21.01-52c-2.249-5.566-7.652-9.21-13.655-9.21h-30c6.004 0 11.406 3.644 13.655 9.21l21.01 52c3.911 9.681-3.214 20.245-13.655 20.245h30c10.441 0 17.567-10.564 13.655-20.245z" fill="#fdc102"/></g></g></g><g><g><g><path d="m440.262 87.591h-30c24.118 0 43.67 19.552 43.67 43.67v107.08c0 37.07-30.052 67.122-67.122 67.122h30c37.07 0 67.122-30.051 67.122-67.122v-107.08c0-24.118-19.552-43.67-43.67-43.67z" fill="#99e6fc"/></g></g></g></g><g><path d="m200.856 370.041h-17.522l-8.681-21.486c-2.64-6.534-8.087-11.266-14.633-13.079v-23.865c34.433-6.607 60.536-36.94 60.536-73.27v-107.08c0-28.215-22.955-51.17-51.17-51.17h-7.746v-16.742c0-10.753-8.749-19.502-19.501-19.502h-14.076v-36.347c0-4.142-3.358-7.5-7.5-7.5s-7.5 3.358-7.5 7.5v36.347h-14.077c-10.753 0-19.501 8.749-19.501 19.502v16.742h-7.746c-28.215 0-51.17 22.955-51.17 51.17v29.265c0 4.142 3.358 7.5 7.5 7.5s7.5-3.358 7.5-7.5v-29.265c0-19.944 16.226-36.17 36.17-36.17h97.646c19.944 0 36.17 16.226 36.17 36.17v107.08c0 32.875-26.746 59.622-59.622 59.622h-50.743c-32.875 0-59.622-26.746-59.622-59.622v-41.814c0-4.142-3.358-7.5-7.5-7.5s-7.5 3.358-7.5 7.5v41.814c0 36.33 26.103 66.663 60.535 73.27v23.865c-6.546 1.812-11.992 6.544-14.632 13.078l-8.681 21.486h-17.523c-20.871 0-37.851 16.98-37.851 37.851v43.079c0 33.653 27.378 61.03 61.03 61.03h114.231c33.652 0 61.029-27.377 61.029-61.029v-43.079c0-20.871-16.979-37.851-37.85-37.851zm-106.371-306.692c0-2.482 2.02-4.502 4.501-4.502h43.151c2.482 0 4.501 2.02 4.501 4.502v16.742h-52.153zm1.618 271.305v-21.691h48.916v21.691zm-15.724 19.52c1.109-2.746 3.74-4.52 6.701-4.52h66.963c2.961 0 5.592 1.774 6.702 4.52l21.01 52c.915 2.265.656 4.725-.709 6.75s-3.55 3.186-5.992 3.186h-108.984c-2.442 0-4.626-1.161-5.992-3.186s-1.625-4.485-.71-6.75zm143.327 96.797c0 25.381-20.648 46.029-46.029 46.029h-114.231c-25.381 0-46.029-20.648-46.029-46.029v-43.079c0-12.6 10.251-22.851 22.851-22.851h11.461l-6.269 15.514c-2.772 6.862-1.956 14.622 2.182 20.757s11.027 9.798 18.427 9.798h108.983c7.401 0 14.29-3.663 18.428-9.798s4.954-13.895 2.181-20.756l-6.268-15.514h11.462c12.6 0 22.851 10.251 22.851 22.851z"/><path d="m471.733 370.041h-17.523l-8.681-21.486c-2.64-6.534-8.086-11.266-14.632-13.078v-23.865c34.433-6.607 60.536-36.94 60.536-73.27v-49.537c0-4.142-3.358-7.5-7.5-7.5s-7.5 3.358-7.5 7.5v49.537c0 32.875-26.746 59.622-59.622 59.622h-50.743c-32.876 0-59.622-26.746-59.622-59.622v-107.08c0-19.944 16.226-36.17 36.17-36.17h97.646c19.944 0 36.17 16.226 36.17 36.17v21.543c0 4.142 3.358 7.5 7.5 7.5s7.5-3.358 7.5-7.5v-21.543c0-28.215-22.955-51.17-51.17-51.17h-7.746v-16.743c0-10.753-8.749-19.502-19.502-19.502h-14.075v-36.347c0-4.142-3.358-7.5-7.5-7.5s-7.5 3.358-7.5 7.5v36.347h-14.075c-10.753 0-19.502 8.749-19.502 19.502v16.742h-7.746c-28.215 0-51.17 22.955-51.17 51.17v107.08c0 36.33 26.103 66.663 60.536 73.27v23.865c-6.547 1.812-11.993 6.544-14.632 13.079l-8.681 21.486h-17.523c-20.871 0-37.851 16.98-37.851 37.851v43.079c0 33.652 27.377 61.029 61.029 61.029h114.231c33.652 0 61.029-27.377 61.029-61.029v-43.079c0-20.871-16.98-37.851-37.851-37.851zm-106.371-306.692c0-2.482 2.02-4.502 4.502-4.502h43.15c2.482 0 4.502 2.02 4.502 4.502v16.742h-52.154zm1.619 271.305v-21.691h48.916v21.691zm-15.725 19.519c1.109-2.746 3.739-4.52 6.701-4.52h66.964c2.961 0 5.591 1.774 6.701 4.52l21.01 52c.915 2.265.656 4.725-.709 6.75s-3.55 3.186-5.992 3.186h-108.984c-2.442 0-4.626-1.161-5.992-3.186s-1.625-4.485-.71-6.75zm143.328 96.798c0 25.381-20.648 46.029-46.029 46.029h-114.232c-25.381 0-46.029-20.648-46.029-46.029v-43.079c0-12.6 10.251-22.851 22.851-22.851h11.462l-6.269 15.514c-2.772 6.862-1.957 14.622 2.182 20.757 4.138 6.135 11.027 9.798 18.427 9.798h108.983c7.4 0 14.289-3.663 18.427-9.798s4.954-13.895 2.182-20.757l-6.268-15.514h11.462c12.6 0 22.851 10.251 22.851 22.851z"/><path d="m129.696 147.188-50.014 50.015c-2.929 2.929-2.929 7.678 0 10.606 1.464 1.464 3.384 2.197 5.303 2.197s3.839-.732 5.303-2.197l50.014-50.015c2.929-2.929 2.929-7.678 0-10.606-2.929-2.929-7.678-2.929-10.606 0z"/><path d="m104.688 232.816c1.464 1.464 3.384 2.197 5.303 2.197s3.839-.732 5.303-2.197l50.015-50.015c2.929-2.929 2.929-7.678 0-10.606-2.929-2.929-7.678-2.929-10.606 0l-50.015 50.015c-2.929 2.929-2.929 7.678 0 10.606z"/><path d="m412.476 147.188c-2.929-2.929-7.678-2.929-10.606 0l-50.015 50.015c-2.929 2.929-2.929 7.678 0 10.606 1.464 1.464 3.384 2.197 5.303 2.197s3.839-.732 5.303-2.197l50.015-50.015c2.93-2.928 2.93-7.677 0-10.606z"/><path d="m382.166 235.013c1.919 0 3.839-.732 5.303-2.197l50.015-50.015c2.929-2.929 2.929-7.678 0-10.606-2.929-2.929-7.678-2.929-10.606 0l-50.015 50.015c-2.929 2.929-2.929 7.678 0 10.606 1.464 1.465 3.383 2.197 5.303 2.197z"/></g></g><g/><g/><g/><g/><g/><g/><g/><g/><g/><g/><g/><g/><g/><g/><g/></svg>