<svg id="Capa_1" enable-background="new 0 0 512 512" height="512" viewBox="0 0 512 512" width="512" xmlns="http://www.w3.org/2000/svg"><g><g><g><path d="m255.605 504.5c-14.245 0-25.793-11.548-25.793-25.792v-114.312h51.585v114.312c.001 14.244-11.547 25.792-25.792 25.792z" fill="#7ca1b1"/></g><g><path d="m229.813 364.396h51.585v34.538h-51.585z" fill="#678d98"/></g><g><path d="m230.603 35.99v-6.586c0-12.098 9.807-21.905 21.905-21.905h6.986c12.098 0 21.905 9.807 21.905 21.905v8.958" fill="#7ca1b1"/></g><g><path d="m415.233 364.396h-318.466c-11.13 0-20.153-9.023-20.153-20.153v-283.354c0-11.13 9.023-20.153 20.153-20.153h318.466c11.13 0 20.153 9.023 20.153 20.153v283.355c0 11.129-9.023 20.152-20.153 20.152z" fill="#6fd7a3"/></g><g><path d="m113.394 313.278v-221.424c0-7.918 6.419-14.338 14.338-14.338h256.537c7.918 0 14.338 6.419 14.338 14.338v221.424c0 7.918-6.419 14.337-14.338 14.337h-256.537c-7.918.001-14.338-6.418-14.338-14.337z" fill="#fafafa"/></g><g><path d="m384.269 77.516h-15.662v197.584c0 12.435-10.081 22.516-22.516 22.516h-232.697v15.662c0 7.918 6.419 14.338 14.338 14.338h256.537c7.918 0 14.338-6.419 14.338-14.338v-221.424c-.001-7.919-6.42-14.338-14.338-14.338z" fill="#f0eef0"/></g><g><path d="m266.885 111.366h-41.6c-4.385 0-8.59 1.746-11.686 4.851-3.096 3.106-4.828 7.316-4.814 11.702v149.347c0 9.113 7.388 16.5 16.5 16.5s16.5-7.387 16.5-16.5v-48.485c8.922-.047 19.342-.094 25.1-.094 32.801 0 59.486-26.315 59.486-58.661s-26.685-58.66-59.486-58.66zm-58.1 16.553v149.347c0 9.113 7.388 16.5 16.5 16.5m41.6-98.078c-5.734 0-16.018.046-24.901.093-.047-9.172-.122-41.835-.149-51.414h25.051c14.357 0 26.486 11.751 26.486 25.661s-12.13 25.66-26.487 25.66z" fill="#3ec3a4"/></g></g><g><path d="m411.476 33.236h-40.52c-4.143 0-7.5 3.358-7.5 7.5s3.357 7.5 7.5 7.5h40.52c9.049 0 16.41 7.362 16.41 16.41v275.839c0 9.048-7.361 16.41-16.41 16.41h-310.952c-9.049 0-16.41-7.362-16.41-16.41v-275.839c0-9.048 7.361-16.41 16.41-16.41h234.838c4.143 0 7.5-3.358 7.5-7.5s-3.357-7.5-7.5-7.5h-46.465v-3.832c0-16.213-13.19-29.404-29.404-29.404h-6.985c-16.214 0-29.405 13.191-29.405 29.405v3.832h-122.579c-17.32 0-31.41 14.09-31.41 31.41v275.839c0 17.32 14.09 31.41 31.41 31.41h121.788v106.812c0 18.357 14.936 33.292 33.293 33.292s33.292-14.935 33.292-33.292v-106.812h122.578c17.319 0 31.41-14.09 31.41-31.41v-275.84c.001-17.319-14.09-31.41-31.409-31.41zm-173.373-3.831c0-7.943 6.462-14.405 14.405-14.405h6.985c7.942 0 14.404 6.462 14.404 14.405v3.832h-35.795v-3.832zm35.794 449.303c0 10.086-8.206 18.292-18.292 18.292-10.087 0-18.293-8.206-18.293-18.292v-106.812h36.585z"/><path d="m211.058 335.116h170.538c13.516 0 24.511-10.996 24.511-24.511v-216.078c0-13.516-10.995-24.511-24.511-24.511h-251.19c-13.516 0-24.511 10.996-24.511 24.511v216.078c0 13.515 10.995 24.511 24.511 24.511h45.059c4.143 0 7.5-3.358 7.5-7.5s-3.357-7.5-7.5-7.5h-45.059c-5.244 0-9.511-4.267-9.511-9.511v-216.078c0-5.245 4.267-9.511 9.511-9.511h251.19c5.244 0 9.511 4.267 9.511 9.511v216.078c0 5.244-4.267 9.511-9.511 9.511h-170.538c-4.143 0-7.5 3.358-7.5 7.5s3.357 7.5 7.5 7.5z"/><path d="m234.483 195.819c.011 1.989.811 3.893 2.225 5.292 1.404 1.39 3.3 2.169 5.275 2.169h.039c8.87-.046 19.137-.093 24.862-.093 18.423 0 33.986-15.186 33.986-33.161s-15.563-33.161-33.986-33.161h-25.051c-1.993 0-3.903.793-5.311 2.204s-2.195 3.325-2.189 5.317l.029 11.306c.036 13.65.087 33.331.121 40.127zm32.402-43.953c10.292 0 18.986 8.316 18.986 18.161s-8.694 18.161-18.986 18.161c-4.169 0-10.739.024-17.431.056-.03-9.033-.064-22.47-.091-32.588l-.01-3.789h17.532z"/><path d="m225.285 301.266c13.233 0 24-10.767 24-24v-41.022c6.752-.032 13.411-.057 17.6-.057 36.937 0 66.986-29.68 66.986-66.161s-30.05-66.161-66.986-66.161h-41.6c-6.332 0-12.527 2.572-16.998 7.057-4.597 4.612-6.833 10.804-7.002 17.099-1.047 38.918 0 77.996 0 116.934v32.311c0 13.234 10.767 24 24 24zm-9-173.37c-.008-2.375.95-4.702 2.626-6.383 1.677-1.682 4-2.646 6.374-2.646h41.6c28.665 0 51.986 22.951 51.986 51.161s-23.321 51.161-51.986 51.161c-5.767 0-16.202.047-25.139.094-4.127.022-7.461 3.373-7.461 7.5v48.484c0 4.962-4.037 9-9 9s-9-4.038-9-9c0-55.724.001-149.228 0-149.371z"/></g></g></svg>