<svg id="Capa_1" enable-background="new 0 0 512.078 512.078" viewBox="0 0 512.078 512.078" xmlns="http://www.w3.org/2000/svg"><g><g><g><g><g><circle cx="256.039" cy="256.039" fill="#918291" r="164.48"/></g></g></g><g><g><g><circle cx="256.039" cy="256.039" fill="#a8d3d8" r="134.814"/></g></g></g><g><g><g><path d="m306.07 130.82c38.844 23.66 64.783 66.41 64.783 115.219 0 74.456-60.358 134.814-134.814 134.814-17.679 0-34.561-3.409-50.031-9.595 20.411 12.432 44.384 19.595 70.031 19.595 74.456 0 134.814-60.358 134.814-134.814 0-56.777-35.101-105.35-84.783-125.219z" fill="#8ebac5"/></g></g></g><g><g><g><circle cx="256.039" cy="256.039" fill="#918291" r="94.165"/></g></g></g><g><g><g><path d="m256.039 234.655-152.565-11.908c-19.165-1.496-38.269-3.816-57.158-7.389-20.319-3.844-54.828-4.425-30.308 36.135 21.746 35.97 148.691 60.377 240.031 11.411z" fill="#eef5f6"/></g></g></g><g><g><g><path d="m256.039 234.655 152.565-11.908c19.165-1.496 38.269-3.816 57.158-7.389 20.319-3.844 54.828-4.425 30.308 36.135-21.746 35.97-148.691 60.377-240.031 11.411z" fill="#eef5f6"/></g></g></g><g><g><g><path d="m473.823 214.153c-1.112 4.71-3.574 10.427-7.753 17.34-19.447 32.167-123.022 55.078-210.031 24.545v6.866c91.34 48.966 218.285 24.559 240.031-11.411 21.484-35.538-2.349-39.492-22.247-37.34z" fill="#deecf1"/></g></g></g><g><g><g><circle cx="256.039" cy="256.039" fill="#cbe5e8" r="41.092"/></g></g></g><g><g><g><path d="m272.006 218.165c3.262 5.891 5.124 12.663 5.124 19.873 0 22.694-18.397 41.092-41.092 41.092-5.663 0-11.059-1.146-15.967-3.218 7.005 12.65 20.483 21.218 35.967 21.218 22.694 0 41.092-18.397 41.092-41.092.001-17.03-10.361-31.641-25.124-37.873z" fill="#a8d3d8"/></g></g></g></g><g><path d="m508.484 216.507c-8.556-12.319-28.712-11.431-44.117-8.518-13.146 2.487-26.847 4.451-41.547 5.951-9.031-35.823-29.736-68.235-58.643-91.637-30.464-24.663-68.869-38.245-108.139-38.245-33.549 0-66.061 9.666-94.02 27.952-27.237 17.815-48.796 42.825-62.346 72.328-1.729 3.764-.079 8.217 3.685 9.946 3.765 1.728 8.217.078 9.946-3.686 25.54-55.609 81.566-91.54 142.734-91.54 35.846 0 70.898 12.396 98.7 34.904 25.771 20.863 44.402 49.56 52.938 81.334l-14.908 1.164c-8.144-28.104-25.059-53.412-48.101-71.775-25.416-20.255-56.063-30.96-88.629-30.96-31.547 0-61.431 10.11-86.421 29.236-24.081 18.431-41.931 44.522-50.307 73.5l-15.253-1.19c-20.458-1.597-38.89-3.978-56.347-7.281-27.906-5.278-39.395 1.718-44.117 8.518-6.295 9.065-4.334 21.779 5.996 38.866 10.621 17.569 40.65 31.609 78.604 38.268 8.324 37.282 29.198 71.143 58.93 95.5 30.604 25.071 69.284 38.878 108.916 38.878 39.858 0 78.709-13.948 109.398-39.275 29.494-24.341 50.165-58.017 58.449-95.095 38.936-6.865 68.206-21.079 78.602-38.276 10.331-17.089 12.292-29.802 5.997-38.867zm-329.75-61.635c22.35-17.106 49.082-26.147 77.305-26.147 29.134 0 56.549 9.575 79.281 27.691 19.803 15.782 34.527 37.297 42.116 61.241l-26.434 2.063c-14.986-39.167-52.875-65.346-94.963-65.346-41.995 0-79.989 26.213-94.966 65.346l-26.438-2.063c7.827-24.726 23.375-46.923 44.099-62.785zm110.897 101.167c0 18.523-15.069 33.592-33.592 33.592s-33.592-15.069-33.592-33.592 15.069-33.592 33.592-33.592 33.592 15.069 33.592 33.592zm-33.592 48.592c15.28 0 28.927-7.096 37.841-18.158 12.715 3.829 25.979 6.711 39.538 8.628-14.681 29.1-44.439 47.603-77.379 47.603-32.965 0-62.743-18.532-77.412-47.67 13.337-1.856 26.638-4.668 39.574-8.557 8.915 11.06 22.56 18.154 37.838 18.154zm0-97.184c-14.653 0-27.801 6.529-36.718 16.819l-42.534-3.32c13.781-31.059 44.95-51.573 79.252-51.573 34.381 0 65.479 20.487 79.259 51.572l-42.541 3.32c-8.917-10.289-22.065-16.818-36.718-16.818zm-233.612 40.166c-9.575-15.838-7.405-21.264-6.512-22.55 2.389-3.442 12.285-5.499 29.008-2.335 17.999 3.405 36.96 5.857 57.968 7.497l107.791 8.413c-2.081 5.407-3.234 11.271-3.234 17.402 0 6 1.1 11.745 3.098 17.055-80.688 22.942-171.797 1.517-188.119-25.482zm333.463 129.562c-28.008 23.114-63.469 35.844-99.851 35.844-36.176 0-71.48-12.601-99.41-35.481-25.655-21.016-44.085-49.774-52.445-81.586 5.113.585 10.331 1.037 15.628 1.354 8.639 28.544 26.528 54.202 50.435 72.29 24.865 18.813 54.531 28.757 85.792 28.757 50.502 0 97.668-27.146 123.093-70.846 2.083-3.58.869-8.171-2.711-10.254s-8.171-.869-10.254 2.711c-22.748 39.1-64.946 63.389-110.127 63.389-27.967 0-54.503-8.893-76.741-25.719-20.026-15.152-35.329-36.233-43.543-59.804.662.004 1.321.018 1.985.018 8.286 0 16.698-.35 25.149-1.06 16.217 37.044 52.63 60.916 93.151 60.916 40.487 0 76.872-23.832 93.109-60.823 8.261.705 16.589 1.07 24.932 1.07 11.293 0 22.607-.661 33.802-1.97-8.318 31.617-26.559 60.204-51.994 81.194zm133.761-129.562c-8.166 13.508-36.091 25.967-71.144 31.742-38.447 6.334-80.698 4.019-116.968-6.277 1.993-5.305 3.091-11.045 3.091-17.039 0-6.131-1.153-11.995-3.234-17.402l107.791-8.413c21.008-1.64 39.969-4.092 57.968-7.497 16.722-3.163 26.619-1.106 29.008 2.335.893 1.287 3.063 6.713-6.512 22.551z"/><path d="m262.965 185.299c-3.58-9.038-17.721-3.177-13.85 5.741 3.587 9.041 17.711 3.18 13.85-5.741z"/><path d="m310.956 205.179c-3.577-9.044-17.724-3.175-13.85 5.741 3.581 9.04 17.71 3.183 13.85-5.741z"/><path d="m212.215 201.809c-8.025-5.497-16.492 7.19-8.329 12.48 8.017 5.506 16.48-7.192 8.329-12.48z"/><path d="m256.036 331.409c8.806.216 10.162-13.349 1.469-14.85-10.498-2.109-12.159 14.867-1.469 14.85z"/><path d="m297.105 306.899c3.589 9.044 17.709 3.18 13.85-5.741-3.576-9.038-17.725-3.172-13.85 5.741z"/><path d="m208.045 311.529c8.809.219 10.159-13.346 1.47-14.85-10.485-2.129-12.169 14.873-1.47 14.85z"/></g></g><g/><g/><g/><g/><g/><g/><g/><g/><g/><g/><g/><g/><g/><g/><g/></svg>