<svg id="Capa_1" enable-background="new 0 0 512 512" viewBox="0 0 512 512" xmlns="http://www.w3.org/2000/svg"><g><g><g><g><g><circle cx="256" cy="256" fill="#6cf5c2" r="248.5"/></g></g></g><g><g><g><path d="m256 7.5c-5.038 0-10.036.168-15 .464 130.256 7.757 233.5 115.831 233.5 248.036s-103.244 240.279-233.5 248.036c4.964.296 9.962.464 15 .464 137.243 0 248.5-111.257 248.5-248.5s-111.257-248.5-248.5-248.5z" fill="#00f2a6"/></g></g></g><g><g><g><path d="m256 256 .152-248.5c65.855.04 129.066 26.257 175.618 72.838s72.73 109.807 72.73 175.662z" fill="#6cf5c2"/></g></g></g><g><g><g><circle cx="256" cy="256" fill="#0ed290" r="192.231"/></g></g></g><g><g><g><circle cx="256" cy="256" fill="#6cf5c2" r="131.321"/></g></g></g><g><g><g><circle cx="256" cy="256" fill="#0ed290" r="77.391"/></g></g></g><g><g><g><path d="m256 256 .152-248.5c65.855.04 129.066 26.257 175.618 72.838s72.73 109.807 72.73 175.662z" fill="#cffce9"/></g></g></g><g><g><g><path d="m431.77 80.338c-46.552-46.581-109.763-72.798-175.618-72.838l-.001 1.844c54.813 6.705 106.191 31.542 145.619 70.994 46.552 46.58 72.73 109.807 72.73 175.662h30c0-65.855-26.178-129.082-72.73-175.662z" fill="#9cf8d2"/></g></g></g><g><g><g><circle cx="136.305" cy="406.148" fill="#fdd602" r="19.607"/></g></g></g><g><g><g><circle cx="333.391" cy="83.376" fill="#fdd602" r="19.607"/></g></g></g><g><g><g><circle cx="352.998" cy="343.398" fill="#fdd602" r="19.607"/></g></g></g></g><path d="m437.02 74.981c-48.304-48.304-112.512-74.925-180.815-74.978-.016 0-.032-.003-.049-.003-.001 0-.003 0-.004 0-.01 0-.02.001-.029.001-.041 0-.082-.001-.123-.001-68.38 0-132.667 26.629-181.02 74.981s-74.98 112.639-74.98 181.019 26.628 132.667 74.98 181.019 112.64 74.981 181.02 74.981 132.667-26.629 181.02-74.981c48.351-48.352 74.98-112.639 74.98-181.019s-26.629-132.667-74.98-181.019zm59.853 173.519h-41.296c-1.206-32.136-10.131-63.593-26.021-91.415-16.604-29.073-40.459-53.723-68.985-71.286-.058-.036-.119-.064-.178-.098.066-.767.107-1.542.107-2.326 0-14.947-12.16-27.107-27.107-27.107-7.737 0-14.722 3.264-19.665 8.48-16.237-4.894-33.049-7.696-50.104-8.337l.025-41.28c61.507 1.905 119.054 26.743 162.765 70.455 43.745 43.748 68.589 101.352 70.459 162.914zm-102.256 0c-3.775-70.56-60.483-127.294-131.032-131.112l.028-45.961c14.667.595 29.132 2.911 43.149 6.908-.309 1.634-.477 3.318-.477 5.04 0 14.947 12.16 27.106 27.106 27.106 8.717 0 16.481-4.14 21.443-10.553 25.446 16.152 46.752 38.427 61.696 64.594 14.598 25.561 22.833 54.448 24.031 83.976h-45.944zm-53.726 94.898c0-6.676 5.431-12.107 12.107-12.107 6.675 0 12.106 5.431 12.106 12.107s-5.431 12.107-12.106 12.107c-6.676 0-12.107-5.431-12.107-12.107zm22.164-25.164c-3.112-1.248-6.504-1.942-10.057-1.942-14.947 0-27.107 12.16-27.107 27.107 0 4.545 1.13 8.83 3.116 12.596-21.283 15.588-46.438 23.827-73.007 23.827-68.275 0-123.821-55.546-123.821-123.821 0-65.782 51.565-119.739 116.397-123.592l-.024 39.047c-43.332 3.787-77.443 40.248-77.443 84.546 0 46.809 38.082 84.892 84.892 84.892 44.28 0 80.729-34.084 84.541-77.392h39.04c-1.164 19.319-6.809 38.046-16.527 54.732zm-226.75 75.807c6.675 0 12.106 5.431 12.106 12.107s-5.431 12.107-12.106 12.107-12.106-5.431-12.106-12.107 5.43-12.107 12.106-12.107zm0-15c-5.253 0-10.159 1.507-14.317 4.104-31.023-32.654-48.776-74.728-50.558-119.645h45.953c3.777 70.589 60.528 127.34 131.117 131.117v45.948c-30.61-1.233-60.312-10.008-86.576-25.579.959-2.772 1.487-5.744 1.487-8.839 0-14.946-12.16-27.106-27.106-27.106zm116.48-119.828c2.763 2.765 6.437 4.287 10.345 4.287h62.353c-3.755 35.024-33.479 62.392-69.483 62.392-38.539 0-69.892-31.353-69.892-69.892 0-36.019 27.39-65.754 62.434-69.489l-.038 62.354c-.002 3.908 1.518 7.583 4.281 10.348zm10.719-10.713.038-61.978c32.538 3.508 58.452 29.434 61.941 61.978zm77.037 0c-3.592-40.817-36.18-73.421-76.99-77.038l.024-39.045c62.279 3.778 112.272 53.794 116.012 116.083zm-19.256-165.124c0-6.676 5.431-12.107 12.106-12.107 6.676 0 12.107 5.431 12.107 12.107s-5.431 12.106-12.107 12.106c-6.675 0-12.106-5.431-12.106-12.106zm-235.698 2.211c43.781-43.781 101.443-68.631 163.06-70.466l-.025 41.295c-46.967 1.723-91.689 19.842-126.637 51.484-3.071 2.78-3.306 7.523-.526 10.594 1.48 1.635 3.517 2.466 5.562 2.466 1.795 0 3.596-.641 5.031-1.94 32.181-29.137 73.325-45.878 116.56-47.595l-.028 45.952c-70.628 3.736-127.423 60.505-131.202 131.122h-45.961c1.411-35.432 12.807-69.301 33.179-98.377 2.377-3.392 1.554-8.069-1.838-10.446-3.391-2.376-8.069-1.554-10.446 1.839-22.149 31.612-34.489 68.455-35.908 106.985h-41.281c1.87-61.562 26.714-119.166 70.46-162.913zm-70.46 177.913h41.294c1.804 49.183 21.317 95.243 55.501 130.815-1.743 3.578-2.724 7.593-2.724 11.833 0 14.947 12.16 27.107 27.106 27.107 6.401 0 12.286-2.235 16.928-5.958 28.831 17.329 61.557 27.036 95.267 28.292v41.285c-61.562-1.87-119.167-26.714-162.913-70.46-43.745-43.748-68.589-101.352-70.459-162.914zm411.286 162.913c-43.746 43.746-101.351 68.59-162.913 70.46v-41.294c28.567-1.036 55.96-7.988 81.525-20.738 3.707-1.849 5.213-6.352 3.364-10.059-1.848-3.707-6.35-5.213-10.059-3.365-23.467 11.704-48.609 18.121-74.831 19.149v-45.948c27.693-1.453 53.796-10.955 76.01-27.722 3.976 2.291 8.579 3.609 13.488 3.609 14.947 0 27.106-12.16 27.106-27.107 0-5.916-1.911-11.392-5.14-15.853 11.698-19.414 18.417-41.38 19.635-64.045h45.963c-2.083 51.581-25.558 99.882-65.162 133.463-3.159 2.679-3.549 7.412-.87 10.571 1.483 1.75 3.597 2.65 5.724 2.65 1.713 0 3.437-.585 4.847-1.78 42.972-36.437 68.382-88.905 70.472-144.904h41.299c-1.868 61.562-26.712 119.166-70.458 162.913z"/></g><g/><g/><g/><g/><g/><g/><g/><g/><g/><g/><g/><g/><g/><g/><g/></svg>