<svg id="Capa_1" enable-background="new 0 0 512 512" viewBox="0 0 512 512" xmlns="http://www.w3.org/2000/svg"><g><g><g><g><g><path d="m487.425 472.49h-462.85c-9.43 0-17.075-7.645-17.075-17.075v-274.514h497v274.514c0 9.431-7.645 17.075-17.075 17.075z" fill="#678d98"/></g></g></g><g><g><g><path d="m486.58 99.767h-461.16c-9.897 0-17.92 8.023-17.92 17.92v63.214h497v-63.214c0-9.897-8.023-17.92-17.92-17.92z" fill="#fdd602"/></g></g></g><g><g><g><path d="m474.5 180.901v244.514c0 9.43-7.645 17.075-17.075 17.075h-449.925v12.925c0 9.43 7.645 17.075 17.075 17.075h462.85c9.43 0 17.075-7.645 17.075-17.075v-274.514z" fill="#537983"/></g></g></g><g><g><g><path d="m486.58 99.767h-30c9.897 0 17.92 8.023 17.92 17.92v63.214h30v-63.214c0-9.897-8.023-17.92-17.92-17.92z" fill="#fdc102"/></g></g></g><g><g><g><path d="m257.942 267.746h-193.304c-7.599 0-13.76-6.16-13.76-13.76v-14.311c0-7.599 6.16-13.76 13.76-13.76h193.304c7.599 0 13.76 6.16 13.76 13.76v14.311c0 7.599-6.161 13.76-13.76 13.76z" fill="#faf7f7"/></g></g></g></g><g><g><g><g><path d="m257.942 349.602h-193.304c-7.599 0-13.76-6.16-13.76-13.76v-14.311c0-7.599 6.16-13.76 13.76-13.76h193.304c7.599 0 13.76 6.16 13.76 13.76v14.311c0 7.6-6.161 13.76-13.76 13.76z" fill="#faf7f7"/></g></g></g><g><g><g><path d="m257.942 431.459h-193.304c-7.599 0-13.76-6.16-13.76-13.76v-14.311c0-7.599 6.16-13.76 13.76-13.76h193.304c7.599 0 13.76 6.16 13.76 13.76v14.311c0 7.599-6.161 13.76-13.76 13.76z" fill="#faf7f7"/></g></g></g><g><path d="m486.58 92.267h-62.823v-52.757c0-4.143-3.357-7.5-7.5-7.5s-7.5 3.357-7.5 7.5v52.758h-305.514v-52.758c0-4.143-3.357-7.5-7.5-7.5s-7.5 3.357-7.5 7.5v52.758h-62.823c-14.017-.001-25.42 11.403-25.42 25.419v337.729c0 13.551 11.024 24.574 24.575 24.574h279.082c4.143 0 7.5-3.357 7.5-7.5s-3.357-7.5-7.5-7.5h-279.082c-5.279 0-9.575-4.295-9.575-9.574v-267.015h482v267.015c0 5.279-4.295 9.574-9.574 9.574h-147.769c-4.143 0-7.5 3.357-7.5 7.5s3.357 7.5 7.5 7.5h147.769c13.551 0 24.574-11.023 24.574-24.574v-337.729c0-14.016-11.404-25.42-25.42-25.42zm-471.58 81.134v-55.714c0-5.745 4.674-10.42 10.42-10.42h461.16c5.745 0 10.42 4.675 10.42 10.42v55.714z"/><path d="m279.202 239.676c0-11.723-9.537-21.26-21.26-21.26h-127.199c-4.143 0-7.5 3.357-7.5 7.5s3.357 7.5 7.5 7.5h127.199c3.451 0 6.26 2.809 6.26 6.26v14.311c0 3.451-2.809 6.26-6.26 6.26h-193.304c-3.452 0-6.26-2.809-6.26-6.26v-14.311c0-3.451 2.808-6.26 6.26-6.26h31.104c4.143 0 7.5-3.357 7.5-7.5s-3.357-7.5-7.5-7.5h-31.104c-11.723 0-21.26 9.537-21.26 21.26v14.311c0 11.723 9.537 21.26 21.26 21.26h193.304c11.723 0 21.26-9.537 21.26-21.26z"/><path d="m311.586 254.331h56.142c4.143 0 7.5-3.357 7.5-7.5s-3.357-7.5-7.5-7.5h-56.142c-4.143 0-7.5 3.357-7.5 7.5s3.358 7.5 7.5 7.5z"/><path d="m410.119 254.331h56.141c4.143 0 7.5-3.357 7.5-7.5s-3.357-7.5-7.5-7.5h-56.141c-4.143 0-7.5 3.357-7.5 7.5s3.357 7.5 7.5 7.5z"/><path d="m279.202 321.532c0-11.723-9.537-21.26-21.26-21.26h-193.304c-11.723 0-21.26 9.537-21.26 21.26v14.311c0 11.723 9.537 21.26 21.26 21.26h193.304c11.723 0 21.26-9.537 21.26-21.26zm-15 14.311c0 3.451-2.809 6.26-6.26 6.26h-193.304c-3.452 0-6.26-2.809-6.26-6.26v-14.311c0-3.451 2.808-6.26 6.26-6.26h193.304c3.451 0 6.26 2.809 6.26 6.26z"/><path d="m311.586 336.187h56.142c4.143 0 7.5-3.357 7.5-7.5s-3.357-7.5-7.5-7.5h-56.142c-4.143 0-7.5 3.357-7.5 7.5s3.358 7.5 7.5 7.5z"/><path d="m410.119 336.187h56.141c4.143 0 7.5-3.357 7.5-7.5s-3.357-7.5-7.5-7.5h-56.141c-4.143 0-7.5 3.357-7.5 7.5s3.357 7.5 7.5 7.5z"/><path d="m257.942 382.129h-193.304c-11.723 0-21.26 9.537-21.26 21.26v14.311c0 11.723 9.537 21.26 21.26 21.26h193.304c11.723 0 21.26-9.537 21.26-21.26v-14.311c0-11.723-9.537-21.26-21.26-21.26zm6.26 35.57c0 3.451-2.809 6.26-6.26 6.26h-193.304c-3.452 0-6.26-2.809-6.26-6.26v-14.311c0-3.451 2.808-6.26 6.26-6.26h193.304c3.451 0 6.26 2.809 6.26 6.26z"/><path d="m311.586 418.044h56.142c4.143 0 7.5-3.357 7.5-7.5s-3.357-7.5-7.5-7.5h-56.142c-4.143 0-7.5 3.357-7.5 7.5s3.358 7.5 7.5 7.5z"/><path d="m410.119 418.044h56.141c4.143 0 7.5-3.357 7.5-7.5s-3.357-7.5-7.5-7.5h-56.141c-4.143 0-7.5 3.357-7.5 7.5s3.357 7.5 7.5 7.5z"/><path d="m243.008 133.213h-183.978c-4.142 0-7.5 3.357-7.5 7.5s3.358 7.5 7.5 7.5h183.978c4.143 0 7.5-3.357 7.5-7.5s-3.357-7.5-7.5-7.5z"/><path d="m321.197 133.213h-46.382c-4.143 0-7.5 3.357-7.5 7.5s3.357 7.5 7.5 7.5h46.382c4.143 0 7.5-3.357 7.5-7.5s-3.358-7.5-7.5-7.5z"/></g></g></g><g/><g/><g/><g/><g/><g/><g/><g/><g/><g/><g/><g/><g/><g/><g/></svg>