<svg id="Capa_1" enable-background="new 0 0 512.532 512.532" height="512" viewBox="0 0 512.532 512.532" width="512" xmlns="http://www.w3.org/2000/svg"><g><g><g><path d="m315.079 89.46 76.297-76.297c7.543-7.543 19.772-7.543 27.314 0l80.685 80.685c7.543 7.543 7.543 19.772 0 27.314l-76.297 76.297z" fill="#537983"/></g><g><path d="m430.693 189.845 68.683-68.682c7.542-7.542 7.542-19.772 0-27.314l-1.343-1.343-67.339 67.339v30z" fill="#3e5959"/></g><g><path d="m113.932 290.607-100.775 100.775c-7.543 7.543-7.543 19.772 0 27.314l80.685 80.685c7.543 7.543 19.772 7.543 27.314 0l100.775-100.775z" fill="#537983"/></g><g><path d="m121.156 499.382 100.775-100.775-15-15-85.775 85.775c-7.542 7.543-19.771 7.543-27.314 0l-79.342-79.343-1.343 1.343c-7.542 7.543-7.542 19.772 0 27.314l80.685 80.685c7.543 7.543 19.772 7.543 27.314.001z" fill="#3e5959"/></g><g><path d="m244.108 144.875 89.237-89.237c5.516-5.516 14.458-5.516 19.974 0l103.582 103.582c5.516 5.516 5.516 14.458 0 19.974l-89.237 89.237c-5.516 5.516-14.458 5.516-19.974 0l-103.582-103.583c-5.516-5.515-5.516-14.458 0-19.973z" fill="#a8d3d8"/></g><g><path d="m284.694 337.553-2.314-14.763c-1.179-7.522 1.308-15.155 6.692-20.539 9.306-9.306 9.306-24.393 0-33.698l-45.085-45.085c-9.306-9.306-24.393-9.306-33.698 0-5.384 5.384-13.017 7.871-20.539 6.692l-14.763-2.314c-7.522-1.179-15.155 1.308-20.539 6.692l-88.741 88.741c-6.573 6.573-6.573 17.23 0 23.803l99.753 99.753c6.573 6.573 17.23 6.573 23.803 0l88.741-88.741c5.382-5.386 7.869-13.019 6.69-20.541z" fill="#a8d3d8"/></g><g><path d="m367.663 268.43 89.237-89.237c5.516-5.516 5.516-14.458 0-19.974l-5.013-5.013-84.224 84.224c-5.516 5.516-14.458 5.516-19.974 0l-98.568-98.569-5.013 5.013c-5.516 5.516-5.516 14.458 0 19.974l103.582 103.582c5.515 5.516 14.458 5.516 19.973 0z" fill="#8ebac5"/></g><g><g><path d="m189.261 446.833 88.742-88.741c5.384-5.384 7.871-13.017 6.691-20.539l-2.314-14.763c-.031-.196-.049-.393-.075-.59-1.112 2.147-2.551 4.14-4.303 5.892l-88.742 88.741c-6.573 6.573-17.229 6.573-23.802 0l-96.654-96.654-3.099 3.099c-6.573 6.573-6.573 17.23 0 23.803l99.753 99.753c6.573 6.572 17.23 6.572 23.803-.001z" fill="#8ebac5"/></g></g><g><path d="m184.072 272.238h40.938v74.093h-40.938z" fill="#fafafa" transform="matrix(-.707 .707 -.707 -.707 567.87 383.35)"/></g></g><g><path d="m512.532 107.505c0-7.162-2.789-13.896-7.854-18.96l-35.322-35.322c-2.93-2.929-7.678-2.929-10.607 0s-2.929 7.678 0 10.606l35.322 35.322c2.232 2.231 3.461 5.199 3.461 8.354 0 3.156-1.229 6.123-3.461 8.354l-34.962 34.962-97.392-97.392 34.963-34.963c2.231-2.231 5.197-3.46 8.354-3.46 3.155 0 6.122 1.229 8.354 3.46l17.292 17.292c2.929 2.929 7.678 2.93 10.606 0 2.93-2.929 2.93-7.677.001-10.606l-17.293-17.292c-5.065-5.065-11.799-7.854-18.961-7.854-7.163 0-13.896 2.79-18.961 7.854l-36.95 36.95c-7.266-2.008-15.38-.177-21.081 5.524l-89.236 89.237c-8.431 8.431-8.431 22.149 0 30.58l103.581 103.582c4.085 4.084 9.515 6.333 15.291 6.333s11.206-2.25 15.29-6.333l89.237-89.237c5.7-5.7 7.531-13.814 5.524-21.08l36.95-36.95c5.065-5.065 7.854-11.798 7.854-18.961zm-60.935 66.385-89.237 89.237c-1.251 1.25-2.914 1.939-4.683 1.939-1.77 0-3.433-.689-4.684-1.94l-103.581-103.581c-1.251-1.251-1.94-2.915-1.94-4.684s.689-3.433 1.94-4.684l89.236-89.237c1.251-1.251 2.914-1.94 4.684-1.94 1.003 0 1.969.229 2.848.648.414.324.853.597 1.311.822.181.147.357.302.524.47l103.582 103.582c1.251 1.251 1.94 2.915 1.94 4.684s-.689 3.433-1.94 4.684z"/><path d="m249.29 218.164c-5.918-5.917-13.785-9.176-22.153-9.176-8.367 0-16.234 3.258-22.152 9.176-3.676 3.677-8.937 5.393-14.074 4.585l-14.763-2.314c-9.855-1.544-19.948 1.744-27.005 8.798l-88.741 88.742c-6.006 6.007-8.196 14.396-6.597 22.153l-45.95 45.952c-5.066 5.064-7.855 11.797-7.855 18.96 0 7.162 2.789 13.896 7.854 18.96l33.27 33.27c1.465 1.464 3.385 2.197 5.304 2.197s3.839-.732 5.304-2.197c2.929-2.929 2.929-7.678 0-10.606l-33.27-33.27c-2.233-2.232-3.462-5.199-3.462-8.354 0-3.156 1.229-6.123 3.461-8.354l43.121-43.122 97.392 97.392-43.122 43.122c-4.605 4.606-12.102 4.606-16.707 0l-21.752-21.751c-2.93-2.929-7.678-2.929-10.607 0s-2.929 7.678 0 10.606l21.752 21.751c5.228 5.228 12.095 7.841 18.961 7.841s13.733-2.614 18.961-7.841l45.951-45.951c1.632.337 3.289.518 4.949.518 6.23 0 12.461-2.372 17.205-7.115l88.741-88.741c7.054-7.055 10.343-17.15 8.797-27.003l-2.313-14.763c-.805-5.137.909-10.398 4.586-14.075 12.215-12.215 12.215-32.09 0-44.305zm34.478 78.783c-7.053 7.053-10.342 17.148-8.797 27.003l2.313 14.763v.001c.805 5.136-.909 10.397-4.586 14.074l-88.74 88.741c-3.639 3.639-9.56 3.638-13.196 0l-99.753-99.753c-3.638-3.638-3.638-9.558 0-13.196l88.74-88.741c3.079-3.078 7.269-4.781 11.565-4.781.835 0 1.674.064 2.51.195l14.764 2.314c9.854 1.547 19.951-1.745 27.004-8.798 6.364-6.366 16.725-6.367 23.091 0l45.085 45.085c6.367 6.368 6.367 16.727 0 23.093z"/><path d="m198.122 263.312c-2.93-2.929-7.678-2.929-10.607 0l-28.947 28.947c-2.929 2.929-2.929 7.678 0 10.606l52.392 52.392c1.465 1.464 3.385 2.197 5.304 2.197s3.839-.732 5.304-2.197l28.947-28.947c2.929-2.929 2.929-7.678 0-10.606zm18.141 76.036-41.785-41.785 18.341-18.341 41.785 41.785z"/></g></g></svg>