<svg id="Capa_1" enable-background="new 0 0 512 512" height="512" viewBox="0 0 512 512" width="512" xmlns="http://www.w3.org/2000/svg"><g><g><g><path d="m403.072 504.5h-294.144v-431.763c0-36.029 29.208-65.237 65.237-65.237h163.67c36.029 0 65.237 29.208 65.237 65.237z" fill="#ffe177"/></g><g><path d="m337.835 7.5h-30c36.03 0 65.237 29.208 65.237 65.237v431.763h30v-431.763c0-36.029-29.208-65.237-65.237-65.237z" fill="#ffd15b"/></g><g><path d="m108.928 110.056h294.144v394.444h-294.144z" fill="#8ac9fe"/></g><g><path d="m373.072 110.056h26.769v394.444h-26.769z" fill="#60b7ff"/></g><g><path d="m403.072 504.5h-294.144v-63.814c0-62.591 50.74-113.331 113.331-113.331h67.482c62.591 0 113.331 50.74 113.331 113.331z" fill="#0593fc"/></g><g><path d="m353.466 346.961c12.37 18.159 19.605 40.096 19.605 63.725v5.573c0 32.165-26.075 58.24-58.24 58.24h-205.903v30h294.144v-63.813c0-38.961-19.664-73.327-49.606-93.725z" fill="#0182fc"/></g><g><path d="m334.862 248.991h-119.052c-10.258 0-18.574-8.316-18.574-18.574v-39.236c0-10.258 8.316-18.574 18.574-18.574h119.052c10.258 0 18.574 8.316 18.574 18.574v39.236c0 10.258-8.316 18.574-18.574 18.574z" fill="#fe646f"/></g><g><path d="m265.742 411.752h-19.485c-2.457 0-4.551-1.783-4.942-4.209l-6.783-42.043c-.491-3.044 1.859-5.804 4.942-5.804h33.051c3.083 0 5.433 2.76 4.942 5.804l-6.783 42.043c-.391 2.426-2.485 4.209-4.942 4.209z" fill="#fafafa"/></g><g><circle cx="256" cy="455.741" fill="#fafafa" r="16.71"/></g></g><g><path d="m403.072 211.101c-4.143 0-7.5 3.358-7.5 7.5v163.833c-20.599-37.275-60.313-62.577-105.831-62.577h-67.482c-45.517 0-85.231 25.302-105.83 62.577v-88.667c0-4.142-3.357-7.5-7.5-7.5s-7.5 3.358-7.5 7.5v210.733c0 4.142 3.357 7.5 7.5 7.5h294.144c4.143 0 7.5-3.358 7.5-7.5v-285.899c-.001-4.143-3.359-7.5-7.501-7.5zm-7.5 285.899h-279.144v-56.313c0-58.355 47.476-105.831 105.83-105.831h67.482c58.355 0 105.831 47.476 105.831 105.831v56.313z"/><path d="m337.834 0h-163.67c-40.107 0-72.736 32.629-72.736 72.737v186.029c0 4.142 3.357 7.5 7.5 7.5s7.5-3.358 7.5-7.5v-141.21h279.144v66.044c0 4.142 3.357 7.5 7.5 7.5s7.5-3.358 7.5-7.5v-110.863c0-40.108-32.63-72.737-72.738-72.737zm-221.406 102.556v-29.819c0-31.836 25.9-57.737 57.736-57.737h163.67c31.837 0 57.737 25.901 57.737 57.737v29.819z"/><path d="m163.102 165.108c-4.143 0-7.5 3.358-7.5 7.5v96.136c0 10.93 8.893 19.822 19.822 19.822h167.012c4.143 0 7.5-3.358 7.5-7.5s-3.357-7.5-7.5-7.5h-167.012c-2.659 0-4.822-2.163-4.822-4.822v-96.136c0-4.142-3.357-7.5-7.5-7.5z"/><path d="m295.286 138.179h-39.9c-9.555 0-17.328 7.773-17.328 17.328v9.601h-22.248c-14.377 0-26.073 11.697-26.073 26.074v39.236c0 14.377 11.696 26.074 26.073 26.074h119.053c14.377 0 26.074-11.697 26.074-26.074v-39.236c0-14.377-11.697-26.074-26.074-26.074h-22.248v-9.601c-.001-9.554-7.775-17.328-17.329-17.328zm-42.229 17.328c0-1.284 1.044-2.328 2.328-2.328h39.9c1.284 0 2.328 1.044 2.328 2.328v9.601h-44.557v-9.601zm92.879 35.675v39.236c0 6.106-4.968 11.074-11.074 11.074h-119.053c-6.105 0-11.073-4.968-11.073-11.074v-39.236c0-6.106 4.968-11.074 11.073-11.074h119.053c6.106 0 11.074 4.968 11.074 11.074z"/><path d="m272.526 352.197h-33.052c-3.671 0-7.142 1.603-9.521 4.398s-3.41 6.477-2.825 10.101l6.783 42.043c.983 6.092 6.176 10.514 12.347 10.514h19.485c6.171 0 11.363-4.422 12.347-10.515l6.782-42.042c.585-3.625-.444-7.306-2.825-10.101-2.38-2.795-5.85-4.398-9.521-4.398zm-8.907 52.055h-15.237l-5.979-37.055h27.194z"/><path d="m256 431.531c-13.349 0-24.209 10.86-24.209 24.209s10.86 24.21 24.209 24.21c13.35 0 24.21-10.86 24.21-24.209s-10.861-24.21-24.21-24.21zm0 33.419c-5.078 0-9.209-4.131-9.209-9.209s4.131-9.209 9.209-9.209 9.21 4.131 9.21 9.209-4.132 9.209-9.21 9.209z"/><path d="m189.533 448.241h-30.56c-4.143 0-7.5 3.358-7.5 7.5s3.357 7.5 7.5 7.5h30.56c4.143 0 7.5-3.358 7.5-7.5s-3.358-7.5-7.5-7.5z"/><path d="m353.027 448.241h-30.56c-4.143 0-7.5 3.358-7.5 7.5s3.357 7.5 7.5 7.5h30.56c4.143 0 7.5-3.358 7.5-7.5s-3.358-7.5-7.5-7.5z"/></g></g></svg>