<svg id="Capa_1" enable-background="new 0 0 512 512" viewBox="0 0 512 512" xmlns="http://www.w3.org/2000/svg"><g><g><g><g><g><path d="m402.685 449.334h-293.37c-9.846 0-17.828-7.982-17.828-17.828v-366.707c0-9.846 7.982-17.828 17.828-17.828h293.37c9.846 0 17.828 7.982 17.828 17.828v366.707c0 9.846-7.982 17.828-17.828 17.828z" fill="#99e6fc"/></g></g></g><g><g><g><path d="m183.922 504.5h-3.806c-13.47 0-24.389-10.919-24.389-24.389v-30.777h52.584v30.777c0 13.47-10.92 24.389-24.389 24.389z" fill="#678d98"/></g></g></g><g><g><g><path d="m331.884 504.5h-3.806c-13.47 0-24.389-10.919-24.389-24.389v-30.777h52.584v30.777c0 13.47-10.919 24.389-24.389 24.389z" fill="#678d98"/></g></g></g><g><g><g><path d="m91.487 430.115c0 10.614 8.605 19.219 19.219 19.219h290.588c10.614 0 19.219-8.605 19.219-19.219v-49.549h-329.026z" fill="#60b7ff"/></g></g></g><g><g><g><path d="m402.685 46.971h-30c9.846 0 17.828 7.982 17.828 17.828v366.708c0 9.846-7.982 17.828-17.828 17.828h30c9.846 0 17.828-7.982 17.828-17.828v-366.708c0-9.846-7.982-17.828-17.828-17.828z" fill="#62dbfb"/></g></g></g><g><g><g><path d="m341.503 46.971h-171.006c-10.29 0-18.631-8.341-18.631-18.631v-12.43c0-4.645 3.765-8.41 8.41-8.41h191.447c4.645 0 8.41 3.765 8.41 8.41v12.43c.001 10.29-8.34 18.631-18.63 18.631z" fill="#537983"/></g></g></g><g><g><g><path d="m91.487 177.712h329.026v68.768h-329.026z" fill="#60b7ff"/></g></g></g><g><g><g><path d="m390.513 177.711h30v68.769h-30z" fill="#26a6fe"/></g></g></g><g><g><g><path d="m225.499 380.566h-45.404l-9.021-63.254c-.929-6.512 4.124-12.336 10.702-12.336h42.043c6.577 0 11.63 5.825 10.702 12.336z" fill="#faf7f7"/></g></g></g><g><g><g><path d="m334.438 380.566h-45.404l-9.021-63.254c-.929-6.512 4.124-12.336 10.702-12.336h42.043c6.577 0 11.63 5.825 10.702 12.336z" fill="#faf7f7"/></g></g></g><g><g><g><path d="m362.362 177.712h-45.404l-9.021-63.254c-.929-6.512 4.124-12.336 10.702-12.336h42.043c6.577 0 11.63 5.825 10.702 12.336z" fill="#faf7f7"/></g></g></g><g><g><g><path d="m235.768 177.712h-73.763c-11.873 0-21.498-9.625-21.498-21.498v-7.163c0-4.31 3.494-7.804 7.804-7.804h101.152c4.31 0 7.804 3.494 7.804 7.804v7.163c0 11.872-9.625 21.498-21.499 21.498z" fill="#faf7f7"/></g></g></g><g><g><g><path d="m235.768 141.246h-73.763c-11.873 0-21.498-9.625-21.498-21.498v-7.163c0-4.31 3.494-7.804 7.804-7.804h101.152c4.31 0 7.804 3.494 7.804 7.804v7.163c0 11.873-9.625 21.498-21.499 21.498z" fill="#faf7f7"/></g></g></g><g><g><g><path d="m390.513 380.566v19.549c0 10.614-8.605 19.219-19.219 19.219h-279.807v10.781c0 10.614 8.605 19.219 19.219 19.219h290.588c10.614 0 19.219-8.605 19.219-19.219v-49.549z" fill="#26a6fe"/></g></g></g></g><path d="m402.685 39.471h-37.547c1.598-3.379 2.496-7.151 2.496-11.131v-12.43c0-8.772-7.137-15.91-15.91-15.91h-94.504c-4.142 0-7.5 3.357-7.5 7.5s3.358 7.5 7.5 7.5h94.504c.502 0 .91.408.91.91v12.43c0 6.138-4.994 11.131-11.131 11.131h-171.006c-6.138 0-11.131-4.993-11.131-11.131v-12.43c0-.502.408-.91.91-.91h61.944c4.142 0 7.5-3.357 7.5-7.5s-3.358-7.5-7.5-7.5h-61.944c-8.773 0-15.91 7.138-15.91 15.91v12.43c0 3.979.898 7.751 2.496 11.131h-37.547c-13.966 0-25.328 11.362-25.328 25.328v365.316 1.392c0 13.966 11.362 25.327 25.328 25.327h1.391 37.521v23.276c0 17.584 14.305 31.89 31.889 31.89h3.806c17.584 0 31.889-14.306 31.889-31.89v-23.276h80.378v23.276c0 17.584 14.305 31.89 31.889 31.89h3.806c17.584 0 31.889-14.306 31.889-31.89v-23.276h37.521 1.391c13.966 0 25.328-11.361 25.328-25.327v-1.392-365.316c0-13.966-11.362-25.328-25.328-25.328zm-115.247 276.783c-.186-1.302.407-2.211.776-2.637s1.186-1.141 2.5-1.141h42.042c1.314 0 2.131.715 2.5 1.141s.962 1.335.776 2.637l-8.102 56.812h-32.392zm59.151-12.466c-3.479-4.011-8.521-6.312-13.831-6.312h-42.042c-5.311 0-10.352 2.301-13.831 6.312s-5.045 9.326-4.295 14.583l7.8 54.695h-46.244l7.8-54.695c.75-5.257-.816-10.572-4.295-14.583s-8.521-6.312-13.831-6.312h-42.042c-5.31 0-10.352 2.301-13.831 6.312s-5.045 9.326-4.295 14.583l7.8 54.695h-72.465v-119.086h20.74c4.142 0 7.5-3.357 7.5-7.5s-3.358-7.5-7.5-7.5h-20.74v-53.769h314.026v53.769h-257.286c-4.142 0-7.5 3.357-7.5 7.5s3.358 7.5 7.5 7.5h257.286v119.086h-69.929l7.8-54.695c.75-5.257-.816-10.572-4.295-14.583zm-168.09 12.466c-.186-1.302.407-2.211.776-2.637s1.186-1.141 2.5-1.141h42.042c1.314 0 2.131.715 2.5 1.141s.962 1.335.776 2.637l-8.103 56.812h-32.392zm71.268-196.507c0 7.719-6.28 13.999-13.999 13.999h-73.763c-7.719 0-13.999-6.28-13.999-13.999v-7.163c0-.167.136-.304.304-.304h101.152c.167 0 .304.137.304.304v7.163zm-101.76 36.466v-7.163c0-.167.136-.304.304-.304h13.694 73.763 13.695c.167 0 .304.137.304.304v7.163c0 7.719-6.28 13.999-13.999 13.999h-73.763c-7.718 0-13.998-6.28-13.998-13.999zm167.354-42.814c-.186-1.302.407-2.21.776-2.637.37-.426 1.186-1.141 2.5-1.141h42.043c1.314 0 2.131.715 2.5 1.141.37.427.962 1.335.776 2.637l-8.103 56.812h-32.392zm-206.046-58.928h293.371c5.695 0 10.328 4.633 10.328 10.328v105.413h-42.006l7.8-54.695c.75-5.257-.816-10.572-4.295-14.583s-8.521-6.312-13.831-6.312h-42.043c-5.31 0-10.352 2.301-13.831 6.312s-5.045 9.326-4.295 14.583l7.8 54.695h-47.158c2.299-4.153 3.613-8.925 3.613-13.999v-7.163c0-4.836-2.261-9.148-5.775-11.955 3.625-4.841 5.775-10.848 5.775-17.348v-7.163c0-8.438-6.865-15.304-15.304-15.304h-101.153c-8.439 0-15.304 6.865-15.304 15.304v7.163c0 6.5 2.15 12.507 5.775 17.348-3.514 2.807-5.775 7.118-5.775 11.955v7.163c0 5.074 1.314 9.846 3.613 13.999h-37.633v-105.413c0-5.695 4.633-10.328 10.328-10.328zm91.496 425.639c0 9.313-7.577 16.89-16.889 16.89h-3.806c-9.312 0-16.889-7.576-16.889-16.89v-23.276h37.584zm147.963 0c0 9.313-7.577 16.89-16.889 16.89h-3.806c-9.312 0-16.889-7.576-16.889-16.89v-23.276h37.584zm-238.068-38.276c-6.462 0-11.719-5.257-11.719-11.719v-42.049h314.026v42.049c0 6.462-5.257 11.719-11.719 11.719z"/></g><g/><g/><g/><g/><g/><g/><g/><g/><g/><g/><g/><g/><g/><g/><g/></svg>