<svg id="Capa_1" enable-background="new 0 0 511.997 511.997" viewBox="0 0 511.997 511.997" xmlns="http://www.w3.org/2000/svg"><g><g><g><g><g><path d="m492.366 159.098-24.291-1.624c-5.767-.386-11.386-1.994-16.483-4.719l-36.88-19.715c-9.251-4.945-20.052-6.13-30.155-3.308l-239.098 66.785c-15.344 4.286-31.815.446-43.681-10.184l-53.85-48.239c-3.607-3.231-8.614-4.399-13.278-3.096l-16.782 4.688c-9.611 2.684-13.517 14.191-7.527 22.172l35.442 47.221c4.017 5.352 3.997 12.718-.049 18.048-2.833 3.732-3.756 8.574-2.496 13.086l2.8 10.024c1.455 5.209 5.605 9.229 10.858 10.517l88.491 21.708c13.277 3.257 27.17 3.036 40.336-.642l266.276-74.376c4.605-1.286 9.035-3.131 13.191-5.492l32.727-18.593c5.186-2.947 7.7-9.046 6.095-14.791-1.482-5.309-6.149-9.103-11.646-9.47z" fill="#f9f3f1"/></g></g></g><g><g><g><path d="m504.012 168.565c-1.482-5.306-6.149-9.101-11.646-9.468l-6.68-.447c-1.125 1.911-2.738 3.552-4.769 4.706l-32.727 18.593c-4.157 2.362-8.587 4.206-13.191 5.492l-266.276 74.376c-13.167 3.678-27.059 3.899-40.336.642l-84.741-20.788 2.392 8.562c1.455 5.209 5.605 9.229 10.857 10.518l88.491 21.708c13.277 3.257 27.17 3.036 40.336-.642l266.276-74.376c4.604-1.286 9.034-3.13 13.191-5.492l32.727-18.593c5.188-2.946 7.701-9.046 6.096-14.791z" fill="#ebe5e3"/></g></g></g><g><g><g><path d="m451.592 152.754-36.88-19.715c-9.25-4.945-20.052-6.13-30.155-3.308l-30.975 8.652 5.776 20.679c2.938 10.517 13.845 16.662 24.362 13.724l69.247-19.342c-.461-.225-.922-.448-1.375-.69z" fill="#26a6fe"/></g></g></g><g><g><g><path d="m333.156 257.813-82.652 23.087c-12.632 3.528-26.007-2.287-32.043-13.931l-5.309-10.242c-2.833-5.466.075-12.154 6.004-13.81l121.125-33.833c5.929-1.656 11.882 2.557 12.292 8.7l.767 11.511c.874 13.086-7.552 24.99-20.184 28.518z" fill="#fd544c"/></g></g></g><g><g><g><path d="m83.983 247.627 28.716-8.021c4.733-1.322 8.55 3.967 5.804 8.042l-34.958 51.891c-.818 1.215-2.043 2.098-3.453 2.492l-8.729 2.438c-4.829 1.349-9.162-3.326-7.451-8.039l16.526-45.517c.581-1.604 1.902-2.828 3.545-3.286z" fill="#fe6c55"/></g></g></g></g><g><path d="m511.236 166.547c-2.334-8.353-9.716-14.354-18.37-14.933l-24.291-1.624c-4.737-.317-9.261-1.612-13.447-3.85l-36.88-19.715c-11.008-5.884-23.69-7.274-35.708-3.918l-239.099 66.785c-12.944 3.617-26.648.42-36.66-8.547l-53.849-48.239c-5.543-4.966-13.132-6.734-20.3-4.733l-16.782 4.687c-6.9 1.928-12.395 7.129-14.698 13.913s-1.11 14.255 3.19 19.984l8.754 11.664c2.486 3.313 7.187 3.983 10.5 1.497s3.983-7.188 1.497-10.5l-8.754-11.664c-1.345-1.792-1.703-4.037-.983-6.158.72-2.122 2.371-3.685 4.529-4.288l16.783-4.688c2.209-.617 4.548-.072 6.256 1.459l53.85 48.239c13.846 12.404 32.802 16.822 50.703 11.822l200.899-56.115 3.759 13.455c3.362 12.039 14.346 19.938 26.276 19.938 2.422 0 4.883-.326 7.327-1.008l66.499-18.575c.04-.011.077-.027.116-.039 4.837 2.008 9.937 3.208 15.221 3.562l24.291 1.624c2.32.155 4.299 1.764 4.924 4.002.68 2.434-.38 5.005-2.577 6.253l-32.727 18.593c-3.62 2.057-7.49 3.668-11.504 4.789l-58.777 16.417c-3.989 1.114-6.32 5.252-5.206 9.241.926 3.315 3.938 5.484 7.22 5.484.668 0 1.347-.09 2.021-.278l58.777-16.417c5.19-1.45 10.197-3.534 14.879-6.195l32.727-18.593c8.196-4.657 12.151-14.251 9.614-23.331zm-129.533-.986c-6.521 1.823-13.301-2.001-15.121-8.519l-3.759-13.455 23.752-6.634c8.28-2.316 17.019-1.355 24.601 2.699l21.717 11.61z"/><path d="m320.585 189.04c.667 0 1.347-.09 2.021-.278 3.989-1.114 6.32-5.251 5.206-9.241l-2.301-8.238c-1.113-3.989-5.245-6.32-9.241-5.206-3.989 1.114-6.32 5.251-5.206 9.241l2.301 8.238c.926 3.314 3.939 5.484 7.22 5.484z"/><path d="m287.332 198.328c.667 0 1.347-.09 2.021-.278 3.989-1.114 6.32-5.251 5.206-9.241l-2.301-8.238c-1.113-3.988-5.246-6.322-9.241-5.206-3.989 1.114-6.32 5.251-5.206 9.241l2.301 8.238c.926 3.315 3.939 5.484 7.22 5.484z"/><path d="m254.08 207.616c.668 0 1.347-.09 2.022-.279 3.989-1.114 6.319-5.252 5.205-9.241l-2.302-8.238c-1.115-3.99-5.248-6.324-9.242-5.205-3.989 1.114-6.319 5.252-5.205 9.241l2.302 8.238c.927 3.315 3.939 5.484 7.22 5.484z"/><path d="m220.827 216.904c.668 0 1.348-.09 2.022-.279 3.989-1.114 6.319-5.252 5.205-9.241l-2.302-8.238c-1.115-3.989-5.255-6.323-9.242-5.205-3.989 1.114-6.319 5.252-5.205 9.241l2.302 8.238c.927 3.315 3.939 5.484 7.22 5.484z"/><path d="m187.574 226.192c.668 0 1.348-.09 2.022-.279 3.989-1.114 6.319-5.252 5.205-9.241l-2.302-8.238c-1.116-3.99-5.253-6.324-9.242-5.205-3.989 1.114-6.319 5.252-5.205 9.241l2.302 8.238c.927 3.315 3.939 5.484 7.22 5.484z"/><path d="m154.321 235.48c.668 0 1.347-.09 2.021-.278 3.989-1.114 6.32-5.251 5.206-9.241l-2.301-8.238c-1.114-3.989-5.251-6.322-9.241-5.206-3.989 1.114-6.32 5.251-5.206 9.241l2.301 8.238c.926 3.314 3.939 5.484 7.22 5.484z"/><path d="m360.058 217.284c-.347-5.191-2.981-9.892-7.228-12.897s-9.554-3.925-14.565-2.526l-121.125 33.831c-5.011 1.4-9.075 4.939-11.149 9.71s-1.891 10.156.503 14.775l3.646 7.034-26.434 7.383c-11.901 3.325-24.534 3.525-36.531.581l-32.759-8.036 10.308-15.301c3.026-4.492 2.935-10.233-.235-14.625-3.169-4.392-8.584-6.288-13.806-4.832l-28.717 8.021s0 0-.001 0c-3.965 1.108-7.172 4.081-8.577 7.95l-2.907 8.008-11.798-2.894c-2.618-.642-4.696-2.654-5.421-5.251l-2.8-10.024c-.625-2.239-.16-4.682 1.246-6.534 6.041-7.957 6.071-19.094.074-27.084-2.487-3.312-7.188-3.983-10.5-1.497-3.313 2.486-3.983 7.188-1.497 10.5 1.995 2.658 1.985 6.363-.024 9.011-4.226 5.566-5.626 12.907-3.746 19.638l2.8 10.024c2.181 7.805 8.424 13.854 16.295 15.784l10.222 2.507-8.469 23.328c-1.755 4.833-.673 10.179 2.823 13.951 2.63 2.838 6.253 4.38 9.996 4.38 1.231 0 2.475-.167 3.7-.509l8.729-2.438c3.124-.873 5.843-2.835 7.655-5.526l15.72-23.335 38.115 9.35c6.798 1.667 13.762 2.5 20.727 2.5 7.889 0 15.777-1.069 23.414-3.202l31.614-8.83c6.478 5.872 14.994 9.197 23.79 9.197 3.116 0 6.27-.417 9.377-1.285l82.652-23.086c15.966-4.459 26.754-19.702 25.651-36.242zm-282.458 77.656-5.752 1.606 15.25-42.003 21.823-6.096zm253.539-44.35-82.652 23.086c-9.162 2.562-18.988-1.713-23.366-10.159l-5.309-10.243c-.42-.81-.221-1.533-.064-1.892.155-.359.549-.998 1.428-1.244l121.124-33.831c.215-.06.417-.085.604-.085.579 0 1.02.237 1.261.408.319.227.865.742.926 1.652l.768 11.51c.632 9.492-5.558 18.239-14.72 20.798z"/><path d="m135.75 145.955c.926 3.315 3.938 5.484 7.22 5.484.668 0 1.347-.09 2.021-.278l87.483-24.436c3.989-1.114 6.32-5.252 5.206-9.241-1.114-3.99-5.251-6.321-9.241-5.206l-87.483 24.436c-3.989 1.114-6.32 5.252-5.206 9.241z"/><path d="m91.169 129.61c.668 0 1.347-.09 2.021-.278l54.905-15.336c3.989-1.114 6.32-5.252 5.206-9.241-1.114-3.99-5.252-6.321-9.241-5.206l-54.905 15.336c-3.989 1.114-6.32 5.252-5.206 9.241.926 3.314 3.939 5.484 7.22 5.484z"/><path d="m205.822 310.781-115.459 32.25c-3.989 1.114-6.32 5.252-5.206 9.241.926 3.315 3.938 5.484 7.22 5.484.668 0 1.347-.09 2.021-.278l115.459-32.25c3.989-1.114 6.32-5.252 5.206-9.241-1.115-3.99-5.251-6.321-9.241-5.206z"/><path d="m146.031 363.786-107.197 34.297c-3.945 1.262-6.12 5.483-4.857 9.429 1.019 3.185 3.967 5.216 7.141 5.216.757 0 1.528-.116 2.288-.359l107.196-34.297c3.945-1.262 6.12-5.483 4.858-9.429-1.263-3.944-5.48-6.119-9.429-4.857z"/></g></g><g/><g/><g/><g/><g/><g/><g/><g/><g/><g/><g/><g/><g/><g/><g/></svg>