<svg id="Capa_1" enable-background="new 0 0 512 512" height="512" viewBox="0 0 512 512" width="512" xmlns="http://www.w3.org/2000/svg"><g><g><g><path d="m110.573 504.5c-10.676 0-19.33-8.654-19.33-19.33v-19.33h38.661v19.33c0 10.676-8.655 19.33-19.331 19.33z" fill="#678d98"/></g><g><path d="m413.892 504.5c-10.676 0-19.33-8.654-19.33-19.33v-19.33h38.661v19.33c-.001 10.676-8.655 19.33-19.331 19.33z" fill="#678d98"/></g><g><path d="m448.308 465.839h-384.616c-10.646 0-19.277-8.631-19.277-19.277v-419.785c0-10.646 8.631-19.277 19.277-19.277h384.616c10.646 0 19.277 8.631 19.277 19.277v419.785c0 10.647-8.631 19.277-19.277 19.277z" fill="#c4e2ff"/></g><g><path d="m448.308 7.5h-10.723v409.062c0 10.646-8.631 19.277-19.277 19.277h-373.893v10.723c0 10.646 8.631 19.277 19.277 19.277h384.615c10.646 0 19.277-8.631 19.277-19.277v-419.785c.001-10.646-8.63-19.277-19.276-19.277z" fill="#b3dafe"/></g><g><path d="m348.723 421.541h-259.643c-5.433 0-9.837-4.404-9.837-9.837v-50.013c0-5.433 4.404-9.837 9.837-9.837h259.643c5.433 0 9.837 4.404 9.837 9.837v50.013c0 5.433-4.404 9.837-9.837 9.837z" fill="#60b7ff"/></g><g><path d="m343.244 313.234h-248.684c-8.459 0-15.316-6.857-15.316-15.316v-234.389c0-8.459 6.857-15.316 15.316-15.316h248.684c8.459 0 15.316 6.857 15.316 15.316v234.388c0 8.46-6.857 15.317-15.316 15.317z" fill="#60b7ff"/></g><g><path d="m424.603 421.541h-24.095c-6.594 0-11.94-5.346-11.94-11.94v-112.944c0-6.594 5.346-11.94 11.94-11.94h24.095c6.594 0 11.94 5.346 11.94 11.94v112.944c0 6.594-5.346 11.94-11.94 11.94z" fill="#7ca1b1"/></g><g><path d="m79.243 126.989h279.317v30.429h-279.317z" fill="#fafafa"/></g><g><path d="m79.243 249h279.317v30.429h-279.317z" fill="#fafafa"/></g><g><path d="m160.18 126.989h-53.358v-33.317c0-4.381 3.552-7.933 7.933-7.933h37.491c4.381 0 7.933 3.552 7.933 7.933v33.317z" fill="#26a6fe"/></g><g><path d="m160.18 126.989h-53.358v-33.317c0-4.381 3.552-7.933 7.933-7.933h37.491c4.381 0 7.933 3.552 7.933 7.933v33.317z" fill="#ffc344"/></g><g><path d="m245.235 126.989h-53.358v-33.317c0-4.381 3.552-7.933 7.933-7.933h37.491c4.381 0 7.933 3.552 7.933 7.933v33.317z" fill="#fd4755"/></g><g><path d="m330.289 126.989h-53.358v-33.317c0-4.381 3.552-7.933 7.933-7.933h37.491c4.381 0 7.933 3.552 7.933 7.933v33.317z" fill="#ffc344"/></g><g><path d="m160.18 248.974h-53.358v-33.317c0-4.381 3.552-7.933 7.933-7.933h37.491c4.381 0 7.933 3.552 7.933 7.933v33.317z" fill="#26a6fe"/></g><g><path d="m160.18 248.974h-53.358v-33.317c0-4.381 3.552-7.933 7.933-7.933h37.491c4.381 0 7.933 3.552 7.933 7.933v33.317z" fill="#fd4755"/></g><g><path d="m245.235 248.974h-53.358v-33.317c0-4.381 3.552-7.933 7.933-7.933h37.491c4.381 0 7.933 3.552 7.933 7.933v33.317z" fill="#ffc344"/></g><g><path d="m330.289 248.974h-53.358v-33.317c0-4.381 3.552-7.933 7.933-7.933h37.491c4.381 0 7.933 3.552 7.933 7.933v33.317z" fill="#fd4755"/></g></g><g><path d="m274.092 458.339h-210.4c-6.494 0-11.777-5.283-11.777-11.777v-419.785c0-6.494 5.283-11.777 11.777-11.777h69.809c4.143 0 7.5-3.358 7.5-7.5s-3.357-7.5-7.5-7.5h-69.809c-14.765 0-26.777 12.012-26.777 26.777v419.786c0 14.765 12.012 26.777 26.777 26.777h20.051v11.831c0 14.794 12.036 26.83 26.83 26.83s26.83-12.036 26.83-26.83v-11.831h136.688c4.143 0 7.5-3.358 7.5-7.5s-3.357-7.501-7.499-7.501zm-151.689 26.831c0 6.523-5.307 11.83-11.83 11.83s-11.83-5.307-11.83-11.83v-11.831h23.66z"/><path d="m448.308 0h-278.807c-4.143 0-7.5 3.358-7.5 7.5s3.357 7.5 7.5 7.5h278.807c6.494 0 11.777 5.283 11.777 11.777v419.786c0 6.494-5.283 11.777-11.777 11.777h-138.216c-4.143 0-7.5 3.358-7.5 7.5s3.357 7.5 7.5 7.5h76.97v11.831c0 14.794 12.036 26.83 26.83 26.83 14.795 0 26.831-12.036 26.831-26.83v-11.831h7.585c14.765 0 26.777-12.012 26.777-26.777v-419.786c0-14.765-12.013-26.777-26.777-26.777zm-22.585 485.17c0 6.523-5.308 11.83-11.831 11.83s-11.83-5.307-11.83-11.83v-11.831h23.661z"/><path d="m89.08 344.354c-9.56 0-17.337 7.777-17.337 17.337v50.013c0 9.56 7.777 17.337 17.337 17.337h259.644c9.56 0 17.337-7.777 17.337-17.337v-50.013c0-9.56-7.777-17.337-17.337-17.337zm261.981 17.337v50.013c0 1.289-1.048 2.337-2.337 2.337h-259.644c-1.289 0-2.337-1.048-2.337-2.337v-50.013c0-1.289 1.048-2.337 2.337-2.337h259.644c1.289 0 2.337 1.049 2.337 2.337z"/><path d="m366.061 63.529c0-12.581-10.235-22.816-22.816-22.816h-248.685c-12.581 0-22.816 10.235-22.816 22.816v234.389c0 12.581 10.235 22.816 22.816 22.816h248.685c12.581 0 22.816-10.235 22.816-22.816zm-15 208.4h-264.318v-15.429h264.317v15.429zm-236.739-30.455v-25.817c0-.239.194-.433.434-.433h37.491c.239 0 .434.194.434.433v25.817zm85.055 0v-25.817c0-.239.194-.433.433-.433h37.491c.239 0 .434.194.434.433v25.817zm85.054 0v-25.817c0-.239.194-.433.434-.433h37.491c.239 0 .434.194.434.433v25.817zm53.358.026v-25.843c0-8.51-6.924-15.433-15.434-15.433h-37.491c-8.51 0-15.434 6.923-15.434 15.433v25.843h-16.696v-25.843c0-8.51-6.924-15.433-15.434-15.433h-37.49c-8.51 0-15.433 6.923-15.433 15.433v25.843h-16.696v-25.843c0-8.51-6.924-15.433-15.434-15.433h-37.491c-8.51 0-15.434 6.923-15.434 15.433v25.843h-12.579v-76.582h264.317v76.582zm-251.046-107.011h20.079 53.358 31.696 53.357 31.696 53.358 20.771v15.429h-264.315zm65.938-15h-38.358v-25.817c0-.239.194-.433.434-.433h37.491c.239 0 .434.194.434.433v25.817zm85.053 0h-38.357v-25.817c0-.239.194-.433.433-.433h37.491c.239 0 .434.194.434.433v25.817zm85.055 0h-38.358v-25.817c0-.239.194-.433.434-.433h37.491c.239 0 .434.194.434.433v25.817zm-228.229-63.776h248.685c4.31 0 7.816 3.506 7.816 7.816v55.959h-13.271v-25.816c0-8.51-6.924-15.433-15.434-15.433h-37.491c-8.51 0-15.434 6.923-15.434 15.433v25.817h-16.696v-25.817c0-8.51-6.924-15.433-15.434-15.433h-37.491c-8.51 0-15.433 6.923-15.433 15.433v25.817h-16.696v-25.817c0-8.51-6.924-15.433-15.434-15.433h-37.491c-8.51 0-15.434 6.923-15.434 15.433v25.817h-12.579v-55.96c0-4.31 3.507-7.816 7.817-7.816zm248.684 250.021h-248.684c-4.31 0-7.816-3.506-7.816-7.816v-10.989h264.317v10.989c0 4.31-3.507 7.816-7.817 7.816z"/><path d="m381.067 409.601c0 10.719 8.721 19.44 19.44 19.44h24.095c10.72 0 19.44-8.721 19.44-19.44v-112.944c0-10.719-8.721-19.44-19.44-19.44h-24.095c-10.72 0-19.44 8.721-19.44 19.44zm15-112.944c0-2.448 1.992-4.44 4.44-4.44h24.095c2.448 0 4.44 1.992 4.44 4.44v112.944c0 2.448-1.992 4.44-4.44 4.44h-24.095c-2.448 0-4.44-1.992-4.44-4.44z"/><path d="m421.392 82.739v-24.216c0-4.142-3.357-7.5-7.5-7.5s-7.5 3.358-7.5 7.5v24.216c0 4.142 3.357 7.5 7.5 7.5s7.5-3.358 7.5-7.5z"/><path d="m382.404 109.706c0 4.142 3.357 7.5 7.5 7.5h47.976c4.143 0 7.5-3.358 7.5-7.5s-3.357-7.5-7.5-7.5h-47.976c-4.142 0-7.5 3.357-7.5 7.5z"/><path d="m389.904 148.025h47.976c4.143 0 7.5-3.358 7.5-7.5s-3.357-7.5-7.5-7.5h-47.976c-4.143 0-7.5 3.358-7.5 7.5s3.358 7.5 7.5 7.5z"/><path d="m389.904 178.845h47.976c4.143 0 7.5-3.358 7.5-7.5s-3.357-7.5-7.5-7.5h-47.976c-4.143 0-7.5 3.358-7.5 7.5s3.358 7.5 7.5 7.5z"/><path d="m389.904 244.169h47.976c4.143 0 7.5-3.358 7.5-7.5s-3.357-7.5-7.5-7.5h-47.976c-4.143 0-7.5 3.358-7.5 7.5s3.358 7.5 7.5 7.5z"/><path d="m222.994 379.198h-8.185c-4.143 0-7.5 3.358-7.5 7.5s3.357 7.5 7.5 7.5h8.185c4.143 0 7.5-3.358 7.5-7.5s-3.357-7.5-7.5-7.5z"/></g></g></svg>