<svg id="Capa_1" enable-background="new 0 0 512 512" height="512" viewBox="0 0 512 512" width="512" xmlns="http://www.w3.org/2000/svg"><g><g><g><circle cx="256" cy="256" fill="#60b7ff" r="248.5"/></g><g><circle cx="256" cy="256" fill="#f0eef0" r="212.23"/></g><g><path d="m256 43.77c-5.044 0-10.044.188-15 .535 110.21 7.696 197.23 99.528 197.23 211.695s-87.02 203.999-197.23 211.696c4.956.346 9.956.535 15 .535 117.212 0 212.23-95.019 212.23-212.23 0-117.213-95.019-212.231-212.23-212.231z" fill="#e6ddd9"/></g></g><g><path d="m275.696 255.221c0 4.142 3.358 7.5 7.5 7.5s7.5-3.358 7.5-7.5c0-19.131-15.564-34.696-34.696-34.696s-34.696 15.564-34.696 34.696c0 4.142 3.358 7.5 7.5 7.5s7.5-3.358 7.5-7.5c0-10.86 8.835-19.696 19.696-19.696s19.696 8.835 19.696 19.696z"/><path d="m332.051 255.221c0-41.935-34.116-76.051-76.051-76.051s-76.051 34.116-76.051 76.051c0 4.142 3.358 7.5 7.5 7.5s7.5-3.358 7.5-7.5c0-33.664 27.388-61.051 61.051-61.051s61.051 27.388 61.051 61.051c0 4.142 3.358 7.5 7.5 7.5s7.5-3.358 7.5-7.5z"/><path d="m370.827 255.221c0-63.315-51.511-114.827-114.827-114.827s-114.827 51.511-114.827 114.827c0 4.142 3.358 7.5 7.5 7.5s7.5-3.358 7.5-7.5c0-55.044 44.782-99.827 99.827-99.827s99.827 44.782 99.827 99.827c0 4.142 3.358 7.5 7.5 7.5s7.5-3.358 7.5-7.5z"/><path d="m247.456 292.006v62.019c0 4.142 3.358 7.5 7.5 7.5s7.5-3.358 7.5-7.5v-62.019c0-4.142-3.358-7.5-7.5-7.5s-7.5 3.358-7.5 7.5z"/><path d="m346.286 292.006v62.019c0 4.142 3.358 7.5 7.5 7.5s7.5-3.358 7.5-7.5v-62.019c0-4.142-3.358-7.5-7.5-7.5s-7.5 3.358-7.5 7.5z"/><path d="m316.816 299.733c4.142 0 7.5-3.358 7.5-7.5s-3.358-7.5-7.5-7.5h-24.952c-4.142 0-7.5 3.358-7.5 7.5v61.565c0 4.142 3.358 7.5 7.5 7.5s7.5-3.358 7.5-7.5v-23.283h15.47c4.142 0 7.5-3.358 7.5-7.5s-3.358-7.5-7.5-7.5h-15.47v-15.782z"/><path d="m211.099 290.656-7.381 37.089-11.69-37.947c-1.22-3.958-5.417-6.178-9.375-4.959-2.695.83-4.582 3.042-5.128 5.618l-11.545 37.293-7.358-37.199c-.803-4.063-4.747-6.705-8.813-5.902-4.063.804-6.706 4.75-5.902 8.813l12.083 61.088c.071.357.167.709.29 1.053 1.259 3.549 4.625 5.922 8.386 5.922h.059c3.786-.025 7.148-2.45 8.367-6.034.022-.065.043-.131.064-.197l11.703-37.811 11.651 37.82c.031.102.065.203.101.303 1.26 3.547 4.625 5.92 8.386 5.92h.061c3.785-.025 7.146-2.451 8.365-6.034.106-.311.191-.628.255-.951l12.131-60.956c.808-4.062-1.83-8.011-5.892-8.82-4.056-.808-8.009 1.828-8.818 5.891z"/><path d="m436.746 367.541c3.597 2.052 8.178.8 10.231-2.797 18.811-32.966 28.753-70.569 28.753-108.744 0-58.692-22.856-113.871-64.357-155.373-41.502-41.502-96.681-64.357-155.373-64.357s-113.872 22.856-155.373 64.358c-41.502 41.501-64.357 96.68-64.357 155.372s22.856 113.871 64.357 155.373 96.681 64.357 155.373 64.357c64.536 0 125.557-28.215 167.417-77.412 2.685-3.155 2.303-7.888-.852-10.572-3.155-2.685-7.889-2.304-10.572.852-39.005 45.841-95.863 72.132-155.993 72.132-112.889 0-204.73-91.842-204.73-204.73s91.841-204.73 204.73-204.73 204.73 91.841 204.73 204.73c0 35.572-9.261 70.604-26.781 101.31-2.053 3.597-.801 8.178 2.797 10.231z"/><path d="m437.02 74.98c-48.353-48.351-112.64-74.98-181.02-74.98-57.373 0-111.599 18.548-156.817 53.638-3.272 2.54-3.866 7.251-1.327 10.523 2.54 3.272 7.251 3.866 10.523 1.327 42.563-33.03 93.609-50.488 147.621-50.488 64.374 0 124.894 25.068 170.413 70.587s70.587 106.039 70.587 170.413-25.068 124.894-70.587 170.413-106.039 70.587-170.413 70.587-124.894-25.068-170.413-70.587-70.587-106.039-70.587-170.413c0-61.888 23.419-120.713 65.942-165.639 2.848-3.008 2.717-7.755-.291-10.603-3.008-2.847-7.755-2.717-10.603.291-45.171 47.723-70.048 110.211-70.048 175.951 0 68.38 26.628 132.667 74.98 181.02 48.353 48.351 112.64 74.98 181.02 74.98s132.667-26.629 181.02-74.98c48.351-48.353 74.98-112.64 74.98-181.02s-26.629-132.667-74.98-181.02z"/></g></g></svg>