<svg id="Layer_1" enable-background="new 0 0 512 512" height="512" viewBox="0 0 512 512" width="512" xmlns="http://www.w3.org/2000/svg"><g><g><path d="m345.497 266.242c-70.62 0-175.766-6.031-310.166-30.713 7.646 6.412 36.707 34.343 52.312 70.33 10.77 24.836 20.495 45.87 36.976 58.815l29.388 12.58c4.872.817 10.134 1.258 15.877 1.258h232.814l31.921-7.399c7.252-4.643 14.053-12.191 17.024-24.502 7.364-30.508 14.73-72.499 24.948-88.724-38.822 6.225-95.293 8.355-131.094 8.355z" fill="#dbedff"/><path d="m154.947 307.021c-7.494-23.629-21.86-46.067-29.474-56.983-28.381-3.912-58.437-8.686-90.143-14.508 7.646 6.412 36.707 34.343 52.312 70.33 10.77 24.836 20.495 45.87 36.976 58.815l29.388 12.58c4.872.817 10.134 1.258 15.877 1.258h23.934c-19.767-13.177-30.18-44.093-38.87-71.492z" fill="#b5dcff"/><path d="m143.659 349.353c-7.63-1.209-14.905 3.369-17.34 10.7-2.218 6.677-5.135 12.495-8.289 17.501 10.365 4.107 17.699 14.214 17.699 26.04 0 5.848-1.795 11.276-4.86 15.767 14.836-15.74 22.098-36.566 25.544-50.907 2.131-8.872-3.742-17.674-12.754-19.101z" fill="#ffd500"/><g><path d="m137.759 372.293c2.436-7.331 9.71-11.909 17.34-10.7.505.08.997.191 1.482.316-1.181-6.277-6.17-11.487-12.923-12.556-7.63-1.209-14.905 3.369-17.34 10.7-2.219 6.677-5.135 12.495-8.289 17.501 5.179 2.052 9.602 5.603 12.73 10.118 2.656-4.51 5.088-9.623 7-15.379z" fill="#fbc700"/></g><path d="m412.645 349.353c7.63-1.209 14.905 3.369 17.34 10.7 2.218 6.677 5.135 12.495 8.289 17.501-10.365 4.107-17.699 14.214-17.699 26.04 0 5.848 1.795 11.276 4.86 15.767-14.836-15.74-22.098-36.566-25.544-50.907-2.131-8.872 3.741-17.674 12.754-19.101z" fill="#ffd500"/><path d="m425.616 387.575c-4.085-8.946-6.755-17.715-8.474-24.869-1.118-4.651-.02-9.272 2.561-12.832-2.219-.697-4.619-.907-7.058-.521-9.013 1.428-14.885 10.229-12.753 19.102 3.446 14.342 10.708 35.167 25.544 50.907-3.065-4.491-4.86-9.919-4.86-15.767-.001-5.961 1.865-11.481 5.04-16.02z" fill="#fbc700"/><circle cx="108.721" cy="403.594" fill="#ffe559" r="28.007"/><path d="m108.721 403.594c0-10.365 5.635-19.408 14.004-24.251-4.12-2.385-8.9-3.756-14.004-3.756-15.468 0-28.008 12.539-28.008 28.007s12.539 28.008 28.008 28.008c5.103 0 9.883-1.372 14.004-3.756-8.369-4.844-14.004-13.887-14.004-24.252z" fill="#ffd500"/><circle cx="447.583" cy="403.594" fill="#ffe559" r="28.007"/><path d="m447.583 403.594c0-10.365 5.635-19.408 14.004-24.251-4.121-2.385-8.901-3.756-14.004-3.756-15.468 0-28.008 12.539-28.008 28.007s12.54 28.008 28.008 28.008c5.103 0 9.883-1.372 14.004-3.756-8.37-4.844-14.004-13.887-14.004-24.252z" fill="#ffd500"/><path d="m458.56 194.805c-6.273 0-11.877-2.851-15.596-7.325v43.706c14-1.427 24.438-2.91 31.193-4v-39.705c-3.72 4.473-9.324 7.324-15.597 7.324z" fill="#dbedff"/><path d="m459.797 194.766c-.409.025-.822.039-1.237.039-6.273 0-11.877-2.851-15.596-7.325v43.706c6.35-.647 11.96-1.306 16.833-1.935z" fill="#b5dcff"/><g><path d="m345.497 268.242c-73.053 0-183.047-6.45-324.158-33.328-9.363-1.784-15.507-10.819-13.723-20.182 1.782-9.362 10.813-15.506 20.181-13.724 153.74 29.284 269.441 33.849 339.427 32.517 75.798-1.439 115.774-9.907 116.169-9.993 9.304-2.019 18.496 3.893 20.519 13.199s-3.864 18.488-13.167 20.523c-37.95 8.274-104.8 10.988-145.248 10.988z" fill="#ffe559"/></g><path d="m501.553 231.08c-2.383 3.697-6.17 6.489-10.808 7.504-37.949 8.272-104.8 10.987-145.248 10.987-73.053 0-183.047-6.45-324.158-33.328-4.837-.922-8.802-3.787-11.272-7.625-1.168 1.812-2.023 3.868-2.451 6.116-1.783 9.362 4.36 18.398 13.723 20.182 141.111 26.878 251.105 33.328 324.158 33.328 40.448 0 107.298-2.715 145.248-10.987 9.303-2.035 15.19-11.217 13.167-20.523-.451-2.075-1.274-3.968-2.359-5.654z" fill="#ffd500"/><circle cx="458.56" cy="176.53" fill="#b5dcff" r="20.275"/><path d="m456.048 176.53c0-8.008 4.654-14.91 11.394-18.205-2.685-1.313-5.691-2.07-8.881-2.07-11.198 0-20.275 9.078-20.275 20.275 0 11.198 9.077 20.275 20.275 20.275 3.19 0 6.196-.757 8.881-2.07-6.74-3.295-11.394-10.198-11.394-18.205z" fill="#8bcaff"/><path d="m391.993 123.524c-.108-.001-.215-.001-.323-.001s-.216.001-.323.001c-14.667.136-26.373 12.329-26.373 26.996v7.273h53.393v-7.273c-.001-14.667-11.707-26.86-26.374-26.996z" fill="#b5dcff"/><path d="m405.018 127.135c-3.833-2.25-8.272-3.567-13.025-3.611-.108-.001-.216-.001-.323-.001s-.216.001-.323.001c-14.667.136-26.373 12.329-26.373 26.996v7.273h26.696v-7.273c0-9.914 5.352-18.692 13.348-23.385z" fill="#8bcaff"/></g><g><path d="m20.128 242.44c4.048.771 8.065 1.522 12.061 2.26 56.25 48.496 50.046 91.128 83.504 122.161-.335.683-.681 1.361-1.038 2.035-2.184-.422-4.437-.65-6.742-.65-19.578 0-35.507 15.929-35.507 35.507 0 19.579 15.929 35.508 35.507 35.508 11.923 0 22.484-5.913 28.927-14.954 10.967-11.767 18.021-25.948 22.533-38.671 7.755.765-6.957.535 238.129.535 4.52 12.584 11.535 26.535 22.347 38.136 6.443 9.041 17.004 14.954 28.927 14.954 19.578 0 35.507-15.929 35.507-35.508 0-19.345-15.554-35.116-34.811-35.489 4.572-5.497 7.81-12.09 9.655-19.733 1.548-6.414 3.059-13.075 4.658-20.128l.087-.383c.916-4.04-1.616-8.058-5.655-8.974-4.037-.913-8.058 1.616-8.974 5.655l-.087.383c-1.588 7.001-3.087 13.613-4.611 19.927-1.315 5.448-3.613 10.107-6.865 13.937-5.312-15.138-18.716-19.505-29.51-16.006-10.821 3.507-18.468 14.74-15.182 28.229-241.461 0-224.825.087-229.236-.203 3.501-14.354-5.894-26.832-18.726-28.863-9.149-1.454-17.984 2.729-22.861 10.054-24.822-27.061-21.267-57.349-63.578-102.758 123.579 21.155 281.668 35.613 405.482 20.026-2.076 5.474-4.152 12.064-6.302 19.964-1.088 3.997 1.27 8.119 5.267 9.206 3.993 1.091 8.119-1.27 9.206-5.267 3.279-12.046 6.336-20.751 9.298-26.472 3.858-.661 7.549-1.363 11.003-2.116 13.313-2.913 21.789-16.121 18.894-29.444-2.9-13.332-16.101-21.827-29.421-18.938-.013.003-.069.014-.164.034v-24.296c1.606-2.399 2.843-5.063 3.643-7.909h7.4c4.143 0 7.5-3.358 7.5-7.5s-3.357-7.5-7.5-7.5h-7.4c-2.611-9.295-9.944-16.627-19.238-19.238v-36.265c0-22.577-18.368-40.945-40.945-40.945s-40.945 18.368-40.945 40.945v3.33c-15.238 3.452-26.696 17.28-26.696 33.664v1.094c-1.964 1.352-3.254 3.615-3.254 6.18 0 4.142 3.357 7.5 7.5 7.5h59.9c4.143 0 7.5-3.358 7.5-7.5 0-2.565-1.29-4.827-3.254-6.18v-1.094c0-16.383-11.459-30.212-26.696-33.664v-3.33c0-14.306 11.639-25.945 25.945-25.945s25.945 11.639 25.945 25.945v36.265c-11.682 3.281-20.275 14.022-20.275 26.738 0 5.696 1.726 10.995 4.679 15.408v30.433c-48.383 4.483-99.677 4.662-147.828 2.559-4.094-.177-7.639 3.027-7.82 7.166s3.028 7.64 7.166 7.82c96.126 4.195 170.886-3.186 198.001-9.053 5.261-1.141 10.459 2.209 11.601 7.463 1.142 5.251-2.196 10.457-7.435 11.603-37.677 8.213-105.159 10.814-143.651 10.814-105.556 0-219.05-13.443-322.754-33.195-5.286-1.008-8.767-6.126-7.761-11.411 1.007-5.283 6.119-8.762 11.411-7.76 77.943 14.847 153.783 24.802 225.415 29.59 4.122.288 7.707-2.85 7.983-6.983s-2.851-7.707-6.983-7.983c-71.027-4.747-146.26-14.624-223.61-29.358-13.417-2.549-26.396 6.283-28.95 19.688-2.559 13.407 6.273 26.395 19.684 28.95zm428.647 140.806c11.308 0 20.507 9.199 20.507 20.507s-9.199 20.508-20.507 20.508c-11.37 0-20.508-9.285-20.508-20.508 0-11.314 9.246-20.507 20.508-20.507zm-35.599-26.151c4.187-1.11 8.489 1.285 9.884 5.482 1.456 4.381 3.24 8.533 5.129 12.227-5.725 4.047-10.072 9.661-12.559 16.132-3.541-7.644-6.347-16.14-8.255-24.074-1.064-4.431 1.675-8.674 5.801-9.767zm-279.548 5.481c1.297-3.903 5.107-6.275 9.05-5.657 4.792.76 7.722 5.418 6.634 9.943-1.96 8.162-4.698 16.398-8.254 24.073-2.486-6.471-6.833-12.085-12.558-16.132 2.078-4.064 3.904-8.543 5.128-12.227zm-5.208 41.177c0 11.222-9.134 20.508-20.508 20.508-11.308 0-20.507-9.2-20.507-20.508s9.199-20.507 20.507-20.507c11.28 0 20.508 9.201 20.508 20.507zm282.637-253.301h-38.391c.119-10.551 8.57-19.174 18.906-19.27l.289-.001.268.001c10.365.103 18.809 8.723 18.928 19.27zm55.791 68.441c-4.443.643-9.845 1.359-16.192 2.086v-17.717c2.469.75 5.284 1.201 8.097 1.201 2.781 0 5.601-.442 8.096-1.2v15.63zm-6.709-34.705h8.933c-2.488 3.414-6.374 5.275-10.32 5.275-6.981 0-12.775-5.725-12.775-12.775 0-7.044 5.731-12.775 12.775-12.775 4.24 0 7.994 2.085 10.32 5.275h-8.933c-4.143 0-7.5 3.358-7.5 7.5s3.358 7.5 7.5 7.5z"/></g></g></svg>