<svg id="Layer_1" enable-background="new 0 0 512.002 512.002" height="512" viewBox="0 0 512.002 512.002" width="512" xmlns="http://www.w3.org/2000/svg"><g><g><path d="m29.208 236.847 18.618 236.798c1.374 17.333 15.841 30.699 33.229 30.699h349.508c17.388 0 31.855-13.365 33.229-30.699l18.618-236.798z" fill="#60b9fe"/><path d="m87.826 473.645-18.618-236.798h-40l18.618 236.798c1.374 17.333 15.841 30.699 33.229 30.699h40c-17.388-.001-31.855-13.366-33.229-30.699z" fill="#1ca8ff"/><path d="m121.947 214.556v-130.75c-.871.184-1.766.282-2.675.282-8.04 0-14.179 0-22.219 0-.909 0-1.804-.098-2.675-.282v130.75z" fill="#dbedff"/><path d="m94.378 234.223v199.333c.871-.188 1.766-.288 2.675-.288h22.219c.909 0 1.804.1 2.675.288v-199.333z" fill="#b5dcff"/><path d="m108.162 7.341c-27.831 0-45.623 29.662-32.52 54.215l9.505 17.811c2.345 4.396 6.923 7.141 11.905 7.141h22.219c4.982 0 9.559-2.745 11.905-7.141l9.505-17.811c13.104-24.553-4.688-54.215-32.519-54.215z" fill="#ffc7e9"/><path d="m118.882 79.368-9.505-17.811c-10.185-19.085-1.699-41.248 15.652-50.178-4.972-2.559-10.668-4.037-16.867-4.037-27.831 0-45.623 29.662-32.52 54.215l9.505 17.811c2.345 4.396 6.923 7.141 11.905 7.141h22.219c2.029 0 3.987-.462 5.758-1.298-2.578-1.218-4.756-3.237-6.147-5.843z" fill="#ffafe2"/><path d="m108.162 504.343c-27.831 0-45.623-29.662-32.52-54.215l9.505-17.811c2.345-4.396 6.923-7.141 11.905-7.141h22.219c4.982 0 9.559 2.745 11.905 7.141l9.505 17.811c13.104 24.553-4.688 54.215-32.519 54.215z" fill="#ffafe2"/><path d="m109.377 450.128 9.505-17.811c1.39-2.606 3.568-4.625 6.147-5.843-1.771-.836-3.729-1.298-5.758-1.298-8.04 0-14.179 0-22.219 0-4.982 0-9.559 2.745-11.905 7.141l-9.505 17.811c-13.103 24.553 4.689 54.215 32.52 54.215 6.199 0 11.895-1.479 16.867-4.038-17.351-8.929-25.837-31.092-15.652-50.177z" fill="#ff94d5"/><path d="m195.77 214.556v-130.75c-.871.184-1.766.282-2.675.282-8.04 0-14.179 0-22.219 0-.909 0-1.804-.098-2.675-.282v130.75z" fill="#dbedff"/><path d="m168.201 234.223v199.333c.871-.188 1.766-.288 2.675-.288h22.219c.909 0 1.804.1 2.675.288v-199.333z" fill="#b5dcff"/><path d="m181.986 7.341c-27.831 0-45.623 29.662-32.52 54.215l9.505 17.811c2.345 4.396 6.923 7.141 11.905 7.141h22.219c4.982 0 9.559-2.745 11.905-7.141l9.505-17.811c13.103-24.553-4.688-54.215-32.519-54.215z" fill="#ffc7e9"/><path d="m192.706 79.368-9.506-17.811c-10.185-19.085-1.699-41.248 15.652-50.178-4.972-2.559-10.668-4.037-16.867-4.037-27.831 0-45.623 29.662-32.52 54.215l9.505 17.811c2.345 4.396 6.923 7.141 11.905 7.141h22.219c2.029 0 3.987-.462 5.758-1.298-2.578-1.218-4.756-3.237-6.146-5.843z" fill="#ffafe2"/><path d="m181.986 504.343c-27.831 0-45.623-29.662-32.52-54.215l9.505-17.811c2.345-4.396 6.923-7.141 11.905-7.141h22.219c4.982 0 9.559 2.745 11.905 7.141l9.505 17.811c13.103 24.553-4.688 54.215-32.519 54.215z" fill="#ffafe2"/><path d="m183.2 450.128 9.505-17.811c1.39-2.606 3.568-4.625 6.147-5.843-1.771-.836-3.729-1.298-5.758-1.298-8.04 0-14.179 0-22.219 0-4.982 0-9.559 2.745-11.905 7.141l-9.505 17.811c-13.103 24.553 4.689 54.215 32.52 54.215 6.199 0 11.895-1.479 16.867-4.038-17.351-8.929-25.836-31.092-15.652-50.177z" fill="#ff94d5"/><path d="m269.594 214.556v-130.75c-.871.184-1.766.282-2.675.282-8.04 0-14.179 0-22.219 0-.909 0-1.804-.098-2.675-.282v130.75z" fill="#dbedff"/><path d="m242.024 234.223v199.333c.871-.188 1.766-.288 2.675-.288h22.219c.909 0 1.804.1 2.675.288v-199.333z" fill="#b5dcff"/><path d="m255.809 7.341c-27.831 0-45.623 29.662-32.52 54.215l9.505 17.811c2.345 4.396 6.923 7.141 11.905 7.141h22.219c4.982 0 9.559-2.745 11.905-7.141l9.505-17.811c13.104-24.553-4.688-54.215-32.519-54.215z" fill="#ffc7e9"/><path d="m266.529 79.368-9.505-17.811c-10.185-19.085-1.699-41.248 15.652-50.178-4.972-2.559-10.668-4.037-16.867-4.037-27.831 0-45.623 29.662-32.52 54.215l9.505 17.811c2.345 4.396 6.923 7.141 11.905 7.141h22.219c2.029 0 3.987-.462 5.758-1.298-2.578-1.218-4.756-3.237-6.147-5.843z" fill="#ffafe2"/><path d="m255.809 504.343c-27.831 0-45.623-29.662-32.52-54.215l9.505-17.811c2.345-4.396 6.923-7.141 11.905-7.141h22.219c4.982 0 9.559 2.745 11.905 7.141l9.505 17.811c13.104 24.553-4.688 54.215-32.519 54.215z" fill="#ffafe2"/><path d="m257.024 450.128 9.505-17.811c1.39-2.606 3.568-4.625 6.147-5.843-1.771-.836-3.729-1.298-5.758-1.298-8.04 0-14.179 0-22.219 0-4.982 0-9.559 2.745-11.905 7.141l-9.505 17.811c-13.103 24.553 4.689 54.215 32.52 54.215 6.199 0 11.895-1.479 16.867-4.038-17.351-8.929-25.837-31.092-15.652-50.177z" fill="#ff94d5"/><path d="m343.417 214.556v-130.75c-.871.184-1.766.282-2.675.282-8.04 0-14.179 0-22.219 0-.909 0-1.804-.098-2.675-.282v130.75z" fill="#dbedff"/><path d="m315.848 234.223v199.333c.871-.188 1.766-.288 2.675-.288h22.219c.909 0 1.804.1 2.675.288v-199.333z" fill="#b5dcff"/><path d="m329.632 7.341c-27.831 0-45.623 29.662-32.52 54.215l9.505 17.811c2.345 4.396 6.923 7.141 11.905 7.141h22.219c4.982 0 9.559-2.745 11.905-7.141l9.505-17.811c13.104-24.553-4.688-54.215-32.519-54.215z" fill="#ffc7e9"/><path d="m340.353 79.368-9.505-17.811c-10.185-19.085-1.699-41.248 15.652-50.178-4.972-2.559-10.668-4.037-16.867-4.037-27.831 0-45.623 29.662-32.52 54.215l9.505 17.811c2.345 4.396 6.923 7.141 11.905 7.141h22.219c2.029 0 3.987-.462 5.758-1.298-2.579-1.218-4.757-3.237-6.147-5.843z" fill="#ffafe2"/><path d="m329.632 504.343c-27.831 0-45.623-29.662-32.52-54.215l9.505-17.811c2.345-4.396 6.923-7.141 11.905-7.141h22.219c4.982 0 9.559 2.745 11.905 7.141l9.505 17.811c13.104 24.553-4.688 54.215-32.519 54.215z" fill="#ffafe2"/><path d="m330.847 450.128 9.505-17.811c1.39-2.606 3.568-4.625 6.147-5.843-1.771-.836-3.729-1.298-5.758-1.298-8.04 0-14.179 0-22.219 0-4.982 0-9.559 2.745-11.905 7.141l-9.505 17.811c-13.103 24.553 4.689 54.215 32.52 54.215 6.199 0 11.895-1.479 16.867-4.038-17.351-8.929-25.836-31.092-15.652-50.177z" fill="#ff94d5"/><path d="m417.24 214.556v-130.75c-.871.184-1.766.282-2.675.282-8.04 0-14.179 0-22.219 0-.909 0-1.804-.098-2.675-.282v130.75z" fill="#dbedff"/><path d="m389.671 234.223v199.333c.871-.188 1.766-.288 2.675-.288h22.219c.909 0 1.804.1 2.675.288v-199.333z" fill="#b5dcff"/><path d="m403.456 7.341c-27.831 0-45.623 29.662-32.52 54.215l9.505 17.811c2.345 4.396 6.923 7.141 11.905 7.141h22.219c4.982 0 9.559-2.745 11.905-7.141l9.505-17.811c13.104-24.553-4.688-54.215-32.519-54.215z" fill="#ffc7e9"/><path d="m414.176 79.368-9.505-17.811c-10.185-19.085-1.699-41.248 15.652-50.178-4.972-2.559-10.668-4.037-16.867-4.037-27.831 0-45.623 29.662-32.52 54.215l9.505 17.811c2.345 4.396 6.923 7.141 11.905 7.141h22.219c2.029 0 3.987-.462 5.758-1.298-2.579-1.218-4.757-3.237-6.147-5.843z" fill="#ffafe2"/><path d="m403.456 504.343c-27.831 0-45.623-29.662-32.52-54.215l9.505-17.811c2.345-4.396 6.923-7.141 11.905-7.141h22.219c4.982 0 9.559 2.745 11.905 7.141l9.505 17.811c13.104 24.553-4.688 54.215-32.519 54.215z" fill="#ffafe2"/><path d="m404.671 450.128 9.505-17.811c1.39-2.606 3.568-4.625 6.147-5.843-1.771-.836-3.729-1.298-5.758-1.298-8.04 0-14.179 0-22.219 0-4.982 0-9.559 2.745-11.905 7.141l-9.505 17.811c-13.103 24.553 4.689 54.215 32.52 54.215 6.199 0 11.895-1.479 16.867-4.038-17.352-8.929-25.837-31.092-15.652-50.177z" fill="#ff94d5"/><path d="m486.721 211.278h-461.825c-7.613 0-13.784 6.172-13.784 13.785 0 7.613 6.172 13.785 13.784 13.785h461.825c7.613 0 13.785-6.172 13.785-13.785 0-7.613-6.172-13.785-13.785-13.785z" fill="#8bcaff"/><path d="m51.112 225.063c0-7.613 6.172-13.784 13.785-13.784h-40c-7.613 0-13.785 6.171-13.785 13.784 0 7.613 6.172 13.785 13.785 13.785h40c-7.613-.001-13.785-6.172-13.785-13.785z" fill="#60b9fe"/></g><path d="m25.089 203.937c-11.736 0-21.285 9.548-21.285 21.285 0 10.843 8.156 19.801 18.653 21.104l18.085 228.071c1.673 21.087 19.553 37.605 40.706 37.605h349.508c21.154 0 39.034-16.519 40.706-37.606l8.792-110.881c.327-4.129-2.755-7.742-6.884-8.069-4.152-.334-7.742 2.755-8.069 6.884l-8.792 110.881c-.867 10.941-8.632 19.932-18.779 22.815 1.438-1.738 2.772-3.585 3.96-5.566 8.091-13.489 8.501-29.827 1.095-43.705l-9.505-17.81c-1.945-3.647-4.87-6.548-8.347-8.475v-173.964h49.552l-6.409 80.823c-.327 4.129 2.755 7.742 6.884 8.069 4.146.329 7.741-2.756 8.069-6.884l6.517-82.189c10.496-1.303 18.653-10.261 18.653-21.104 0-11.736-9.549-21.285-21.285-21.285h-61.98v-112.405c3.476-1.926 6.401-4.827 8.346-8.473l9.507-17.812c7.405-13.877 6.995-30.215-1.096-43.704-8.093-13.489-22.314-21.542-38.044-21.542-15.03 0-28.668 7.366-36.911 19.788-8.244-12.422-21.882-19.788-36.912-19.788s-28.668 7.366-36.912 19.787c-8.243-12.421-21.881-19.787-36.911-19.787s-28.668 7.366-36.912 19.787c-8.243-12.421-21.882-19.787-36.911-19.787s-28.668 7.366-36.912 19.787c-8.243-12.421-21.882-19.787-36.912-19.787-15.729 0-29.95 8.053-38.042 21.542-8.091 13.489-8.501 29.827-1.095 43.705l9.505 17.81c1.945 3.647 4.87 6.548 8.347 8.475v112.406h-61.98zm45.224 286.523c1.188 1.98 2.522 3.828 3.96 5.566-10.146-2.884-17.91-11.875-18.779-22.815l-17.976-226.705h49.552v173.965c-3.476 1.926-6.401 4.827-8.346 8.473l-9.507 17.812c-7.405 13.877-6.995 30.215 1.096 43.704zm63.22-7.716c-5.355 8.928-14.768 14.258-25.179 14.258s-19.823-5.33-25.179-14.258-5.626-19.742-.726-28.926l9.507-17.813c1.081-2.024 3.18-3.171 5.287-3.171h22.22c2.094 0 4.201 1.135 5.288 3.172l9.505 17.811c4.903 9.185 4.633 19.999-.723 28.927zm-31.464-64.91v-171.328h12.569v171.329h-12.569zm39.544 79.168c1.313-1.497 2.531-3.096 3.653-4.787 1.122 1.691 2.341 3.29 3.653 4.787zm3.653-54.416-7.28-13.641c-1.946-3.646-4.871-6.547-8.348-8.473v-173.966h31.254v173.966c-3.476 1.926-6.401 4.827-8.347 8.473zm62.09 40.158c-5.355 8.928-14.768 14.258-25.179 14.258s-19.823-5.33-25.179-14.258c-5.355-8.928-5.626-19.742-.724-28.926l9.505-17.811c1.08-2.026 3.183-3.172 5.284-3.172h.004 22.219c2.094 0 4.201 1.135 5.288 3.172l9.505 17.811c4.903 9.184 4.633 19.998-.723 28.926zm-31.463-64.91v-171.328h12.569v171.329h-12.569zm39.543 79.168c1.313-1.497 2.531-3.096 3.653-4.787 1.122 1.691 2.341 3.29 3.653 4.787zm3.653-54.416-7.28-13.641c-1.946-3.646-4.871-6.547-8.348-8.473v-173.966h31.255v173.965c-3.476 1.926-6.402 4.827-8.348 8.473zm62.091 40.158c-5.355 8.928-14.768 14.258-25.179 14.258s-19.823-5.33-25.179-14.258c-5.355-8.928-5.626-19.742-.724-28.926l9.505-17.811c1.073-2.01 3.163-3.172 5.288-3.172h22.219c2.097 0 4.203 1.138 5.288 3.172l9.505 17.811c4.903 9.184 4.632 19.998-.723 28.926zm-31.463-64.91v-171.328h12.568v171.329h-12.568zm39.543 79.168c1.313-1.497 2.531-3.096 3.653-4.787 1.122 1.691 2.341 3.29 3.653 4.787zm3.653-54.416-7.28-13.641c-1.946-3.646-4.871-6.547-8.348-8.473v-173.966h31.255v173.965c-3.476 1.926-6.402 4.827-8.348 8.473zm62.09 40.158c-5.355 8.928-14.768 14.258-25.179 14.258s-19.823-5.33-25.179-14.258c-5.355-8.928-5.626-19.742-.724-28.926l9.505-17.811c1.08-2.025 3.18-3.172 5.288-3.172h22.219.004c2.119 0 4.21 1.159 5.285 3.172l9.505 17.811c4.902 9.184 4.631 19.998-.724 28.926zm-31.463-64.91v-171.328h12.569v171.329h-12.569zm39.543 79.168c1.313-1.497 2.531-3.097 3.654-4.788 1.122 1.691 2.341 3.29 3.653 4.788zm3.653-54.416-7.28-13.642c-1.946-3.646-4.871-6.547-8.347-8.473v-173.965h31.254v173.965c-3.476 1.926-6.402 4.827-8.348 8.473zm62.815 11.231c4.901 9.185 4.631 19.999-.725 28.927s-14.768 14.258-25.179 14.258c-10.41 0-19.822-5.33-25.178-14.257-5.355-8.928-5.627-19.742-.725-28.927l9.505-17.811c1.073-2.01 3.163-3.172 5.288-3.172h22.22c2.119 0 4.212 1.156 5.288 3.172zm-32.188-35.983v-171.328h12.569v171.329h-12.569zm-18.893-388.577c5.355-8.927 14.767-14.257 25.177-14.257 10.411 0 19.823 5.33 25.179 14.258s5.626 19.742.726 28.926l-9.507 17.813c-1.06 1.987-3.124 3.159-5.259 3.169-.009 0-.019.001-.028.001h-22.22c-.009 0-.019-.001-.028-.001-2.093-.01-4.18-1.147-5.26-3.17l-9.505-17.811c-4.902-9.186-4.631-20 .725-28.928zm31.463 64.91v109.769h-12.569v-109.769zm-43.197-24.75 7.28 13.641c1.946 3.646 4.871 6.547 8.348 8.473v112.406h-31.254v-112.407c3.476-1.926 6.401-4.827 8.346-8.473zm-62.09-40.159c5.355-8.928 14.767-14.258 25.178-14.258s19.823 5.33 25.179 14.258 5.626 19.742.726 28.926l-9.507 17.811c-1.067 2-3.139 3.16-5.256 3.17-.011 0-.021.002-.032.002h-22.219c-.009 0-.019-.001-.028-.001-2.093-.01-4.18-1.147-5.26-3.17l-9.505-17.811c-4.902-9.185-4.632-19.999.724-28.927zm31.463 64.909v109.769h-12.569v-109.769zm-43.196-24.751 7.28 13.641c1.946 3.646 4.871 6.547 8.348 8.473v112.406h-31.255v-34.682c0-4.142-3.357-7.5-7.5-7.5s-7.5 3.358-7.5 7.5v34.682h-12.568v-109.769h12.568v40.087c0 4.142 3.357 7.5 7.5 7.5s7.5-3.358 7.5-7.5v-42.723c3.476-1.926 6.402-4.827 8.348-8.473zm-62.091-40.158c5.356-8.928 14.768-14.258 25.179-14.258s19.823 5.33 25.179 14.258c5.355 8.928 5.626 19.742.724 28.926l-9.505 17.811c-1.079 2.024-3.167 3.16-5.26 3.17-.009 0-.019.001-.028.001h-22.219c-.009 0-.019-.001-.019-.001-2.102-.01-4.19-1.147-5.269-3.17l-9.505-17.811c-4.903-9.184-4.632-19.998.723-28.926zm-11.733 40.158 7.28 13.641c1.946 3.646 4.871 6.547 8.348 8.473v112.406h-31.255v-112.405c3.476-1.926 6.402-4.827 8.348-8.473zm-62.09-40.158c5.355-8.928 14.768-14.258 25.179-14.258s19.823 5.33 25.179 14.258c5.355 8.928 5.626 19.742.724 28.926l-9.505 17.811c-1.079 2.024-3.167 3.16-5.26 3.17-.009 0-.019.001-.028.001h-22.219c-.011 0-.022-.002-.032-.002-2.091-.011-4.177-1.148-5.256-3.17l-9.505-17.811c-4.903-9.183-4.632-19.997.723-28.925zm31.463 64.909v109.769h-12.569v-109.769zm-43.196-24.751 7.28 13.641c1.946 3.646 4.871 6.547 8.347 8.473v112.406h-31.254v-112.405c3.476-1.926 6.402-4.827 8.348-8.473zm-62.815-11.231c-4.901-9.185-4.631-19.999.725-28.927s14.767-14.258 25.178-14.258 19.823 5.33 25.179 14.258c5.355 8.928 5.626 19.742.724 28.926l-9.505 17.811c-1.079 2.024-3.167 3.16-5.26 3.17 0 0-.019.001-.028.001h-22.22c-.009 0-.019-.001-.028-.001-2.098-.01-4.181-1.15-5.26-3.17zm32.188 35.982v109.769h-12.569v-109.769zm372.274 124.77c3.466 0 6.285 2.819 6.285 6.285s-2.819 6.285-6.285 6.285h-4.311c-10.644 0-447.997 0-457.514 0-3.466 0-6.285-2.819-6.285-6.285s2.819-6.285 6.285-6.285z"/></g></svg>