<svg id="Layer_1" enable-background="new 0 0 512.002 512.002" height="512" viewBox="0 0 512.002 512.002" width="512" xmlns="http://www.w3.org/2000/svg"><g><g><path d="m118.77 50.317h62.569v31.736h-62.569z" fill="#b5dcff"/><path d="m118.77 50.317h32.825v31.736h-32.825z" fill="#8bcaff"/><path d="m262.265 367.557 6.259 26.094c2.934 11.762 13.499 21.016 25.622 21.016h53.848c12.123 0 22.688-9.254 25.622-21.016l6.259-26.094c-17.072 0-100.578 0-117.61 0z" fill="#dbedff"/><path d="m305.814 393.651-6.259-26.094c-16.838 0-31.248 0-37.289 0l6.259 26.094c2.934 11.762 13.499 21.016 25.622 21.016h37.289c-12.123 0-22.689-9.253-25.622-21.016z" fill="#b5dcff"/><path d="m412.667 89.119 2.621-37.501h-188.435l2.621 37.501z" fill="#5ce2c5"/><path d="m284.734 51.618h-57.881l2.621 37.501h57.048z" fill="#00d3b5"/><path d="m246.254 329.217 1.823 26.093c.521 7.461 6.718 13.247 14.188 13.247h117.61c7.469 0 13.666-5.786 14.188-13.247l1.823-26.093z" fill="#00d3b5"/><path d="m297.969 329.217h-51.715l1.823 26.093c.521 7.461 6.718 13.247 14.188 13.247h37.58z" fill="#00b8a0"/><path d="m349.376 413.668h-56.611c-5.556 0-9.78 4.994-8.857 10.474l12.251 72.713c.728 4.323 4.472 7.489 8.857 7.489h32.108c4.384 0 8.128-3.166 8.857-7.489l12.251-72.713c.924-5.48-3.3-10.474-8.856-10.474z" fill="#60b9fe"/><path d="m333.449 496.854-12.251-72.713c-.923-5.479 3.3-10.474 8.856-10.474h-37.289c-5.556 0-9.78 4.995-8.857 10.474l12.251 72.713c.729 4.323 4.472 7.489 8.857 7.489h32.108c.898 0 1.767-.139 2.591-.388-3.198-.964-5.687-3.663-6.266-7.101z" fill="#1ca8ff"/><path d="m118.77 81.418h62.569v32.116h-62.569z" fill="#dbedff"/><path d="m118.77 81.418h32.825v32.116h-32.825z" fill="#b5dcff"/><path d="m118.77 50.953h62.569v-18.594c0-5.673-4.599-10.272-10.272-10.272h-52.357c.029.395.06.79.06 1.193z" fill="#dbedff"/><path d="m151.594 50.953v-28.866h-32.884c.029.395.06.79.06 1.193v27.672h32.824z" fill="#b5dcff"/><path d="m118.77 111.884v28.865h52.297c5.673 0 10.272-4.599 10.272-10.272v-18.593z" fill="#b5dcff"/><path d="m118.77 111.884h32.825v28.865h-32.825z" fill="#8bcaff"/><g><path d="m123.957 207.726v48.446c4.6-3.062 10.109-4.854 16.018-4.854 5.842 0 11.292 1.754 15.86 4.753v-48.345c0-14.268-6.055-27.957-16.614-37.557l-12.273-11.156c-3.928-3.57-6.18-8.662-6.18-13.968v-121.765c0-8.803-7.136-15.939-15.939-15.939s-15.937 7.137-15.937 15.939v121.764c0 14.269 6.055 27.957 16.614 37.556l12.273 11.156c3.927 3.571 6.178 8.663 6.178 13.97z" fill="#ff636e"/></g><g><path d="m141.569 207.726c0-5.307-2.252-10.399-6.179-13.969l-12.273-11.156c-10.559-9.599-16.614-23.288-16.614-37.556v-121.765c0-5.546 2.836-10.426 7.133-13.281-2.523-1.677-5.549-2.658-8.806-2.658-8.803 0-15.939 7.136-15.939 15.939v121.764c0 14.269 6.055 27.957 16.614 37.556l12.273 11.156c3.928 3.57 6.18 8.662 6.18 13.969v48.446c4.6-3.062 10.109-4.854 16.018-4.854.536 0 1.065.031 1.594.06v-43.651z" fill="#ff4654"/></g><path d="m321.07 212.087c45.618 36.807 80.541 1.868 83.056-.76l8.75-125.189h-183.61l8.793 125.813c2.35-2.408 37.277-36.764 83.011.136z" fill="#00d3b5"/><path d="m286.38 86.139h-57.114l8.793 125.813c1.813-1.858 23.009-22.714 53.594-15.228z" fill="#00b8a0"/><path d="m321.07 210.087c-47.365-38.216-83.141-.001-83.142 0l8.534 122.109h149.217l8.598-123.029c0 .001-35.842 39.137-83.207.92z" fill="#5ce2c5"/><path d="m291.556 194.699c-31.947-7.763-53.627 15.387-53.627 15.388l8.534 122.109h51.649z" fill="#00d3b5"/><path d="m415.288 19.441h-188.435c-4.108 0-7.438 3.33-7.438 7.438v17.71c0 4.108 3.33 7.438 7.438 7.438h188.435c4.108 0 7.438-3.33 7.438-7.438v-17.71c0-4.108-3.33-7.438-7.438-7.438z" fill="#dbedff"/><path d="m278.22 44.589v-17.71c0-4.108 3.33-7.438 7.438-7.438h-58.805c-4.108 0-7.438 3.33-7.438 7.438v17.71c0 4.108 3.33 7.438 7.438 7.438h58.805c-4.108 0-7.438-3.33-7.438-7.438z" fill="#b5dcff"/><path d="m139.975 249.318c-15.975 0-29.045 13.07-29.045 29.045v196.936c0 15.974 13.07 29.044 29.045 29.044 15.974 0 29.045-13.07 29.045-29.044v-196.937c0-15.974-13.07-29.044-29.045-29.044z" fill="#ff9ba1"/><path d="m139.975 475.299v-196.937c0-10.692 5.86-20.076 14.522-25.118-4.28-2.491-9.24-3.927-14.522-3.927-15.974 0-29.044 13.07-29.044 29.044v196.936c0 15.974 13.07 29.044 29.044 29.044 5.282 0 10.243-1.436 14.522-3.927-8.662-5.039-14.522-14.423-14.522-25.115z" fill="#ff7f87"/></g><g><path d="m189.03 130.636c0-9.695 0-86.721 0-98.118 0-9.799-7.973-17.771-17.771-17.771h-44.475c-3.461-8.632-11.908-14.747-21.761-14.747-12.925 0-23.44 10.515-23.44 23.439v121.764c0 16.377 6.95 32.089 19.068 43.106 12.578 11.433 15.998 13.237 15.998 19.575v42.694c-7.958 6.709-13.027 16.743-13.027 27.943v196.937c0 20.15 16.394 36.544 36.545 36.544s36.545-16.394 36.545-36.544v-89.242c0-4.143-3.357-7.5-7.5-7.5s-7.5 3.357-7.5 7.5v89.242c0 11.879-9.665 21.544-21.545 21.544s-21.545-9.665-21.545-21.544v-196.937c0-11.867 9.671-21.545 21.545-21.545 11.657 0 21.545 9.475 21.545 21.545v72.694c0 4.143 3.357 7.5 7.5 7.5s7.5-3.357 7.5-7.5v-72.694c0-11.275-5.134-21.37-13.185-28.079v-42.558c0-16.377-6.95-32.089-19.068-43.106l-12.273-11.156c-1.557-1.415-2.666-3.23-3.25-5.214h42.322c9.799 0 17.772-7.972 17.772-17.772zm-60.569-100.89h42.797c1.528 0 2.771 1.243 2.771 2.771v11.094h-45.568zm0 28.865h45.568v15.466h-45.568zm0 30.466h45.568v15.466h-45.568zm5.909 86.8c8.998 8.182 14.158 19.848 14.158 32.008v35.064c-5.665-1.337-11.513-1.253-16.878.036v-35.101c0-7.416-3.147-14.53-8.635-19.519l-12.273-11.156c-8.998-8.181-14.158-19.847-14.158-32.007v-121.763c0-4.653 3.786-8.439 8.439-8.439 4.361 0 7.96 3.326 8.394 7.574.003.07-.001.139.004.208l.007.106c.014.183.033.364.033.551v121.764c0 7.416 3.147 14.53 8.635 19.519zm-5.909-42.469v-13.865h45.568v11.093c0 1.528-1.243 2.772-2.771 2.772z"/><path d="m311.262 19.6c0-4.143-3.357-7.5-7.5-7.5h-76.718c-8.236 0-14.938 6.701-14.938 14.938v17.71c0 5.661 3.165 10.596 7.818 13.129.241 3.449 20.618 294.622 20.864 298.132.646 9.232 7.085 16.83 15.591 19.33l5.06 20.284c2.31 9.263 8.279 16.81 16.136 21.276-1.046 2.721-1.367 5.698-.87 8.646l12.252 72.713c1.342 7.964 8.177 13.743 16.252 13.743h32.108c8.075 0 14.91-5.779 16.252-13.743l12.251-72.712c.497-2.948.176-5.926-.87-8.647 7.857-4.466 13.825-12.013 16.135-21.275l5.06-20.285c8.506-2.5 14.945-10.098 15.591-19.33.281-4.011 20.652-295.119 20.863-298.132 4.654-2.533 7.819-7.469 7.819-13.13v-17.71c0-8.237-6.701-14.938-14.938-14.938h-76.718c-4.143 0-7.5 3.357-7.5 7.5s3.357 7.5 7.5 7.5l76.656-.062.062 17.648h-188.373l-.063-17.585h76.718c4.143 0 7.5-3.358 7.5-7.5zm39.767 403.454-12.251 72.713c-.121.716-.735 1.235-1.461 1.235h-32.108c-.726 0-1.34-.52-1.461-1.235l-12.252-72.712c-.152-.911.542-1.729 1.462-1.729h56.61c.916 0 1.615.817 1.461 1.728zm15.502-31.059c-2.104 8.438-9.647 14.331-18.345 14.331h-53.848c-8.697 0-16.24-5.894-18.345-14.332l-3.936-15.778h98.409zm20.243-37.032c-.246 3.506-3.191 6.253-6.706 6.253h-117.61c-3.515 0-6.46-2.747-6.706-6.253l-1.054-15.061h133.13zm2.103-30.061h-135.23l-7.797-111.421c7.929-6.799 35.41-25.633 70.706 2.81 27.239 21.949 55.477 23.208 79.273 9.261zm8.312-118.774c-19.318 17.259-45.263 19.4-71.221-1.517-28.269-22.78-57.446-23.394-81.344-8.653-.857-12.242-6.271-89.613-7.124-101.795h167.524zm10.248-146.441-1.363 19.477h-169.624l-1.363-19.477z"/></g></g></svg>