<svg id="Layer_1" enable-background="new 0 0 512.002 512.002" height="512" viewBox="0 0 512.002 512.002" width="512" xmlns="http://www.w3.org/2000/svg"><g><g><path d="m120.03 369.446h-7.173c-5.942 0-10.76 4.817-10.76 10.76v23.521h28.693v-23.521c0-5.943-4.817-10.76-10.76-10.76z" fill="#ebb865"/><path d="m398.761 369.446h-7.173c-5.942 0-10.76 4.817-10.76 10.76v23.52h28.693v-23.52c0-5.943-4.817-10.76-10.76-10.76z" fill="#ebb865"/><path d="m123.693 370.1c-1.145-.416-2.375-.654-3.664-.654h-7.173c-5.942 0-10.76 4.817-10.76 10.76v23.521h14.5v-23.521c.001-4.654 2.961-8.606 7.097-10.106z" fill="#daac5d"/><path d="m402.424 370.1c-1.145-.415-2.375-.654-3.663-.654h-7.173c-5.942 0-10.76 4.817-10.76 10.76v23.521h14.5v-23.521c0-4.654 2.96-8.606 7.096-10.106z" fill="#daac5d"/><g><path d="m464.899 429.678h-418.18c-21.732 0-39.411-17.68-39.411-39.411 0-13.571 6.842-26.013 18.303-33.282l209.092-132.597c12.821-8.131 29.391-8.131 42.212 0l209.091 132.596c11.462 7.269 18.304 19.711 18.304 33.282 0 21.732-17.679 39.412-39.411 39.412zm-209.09-182.458c-1.95 0-3.9.54-5.601 1.618l-209.091 132.597c-8.769 5.563-4.867 19.292 5.602 19.292h418.181c10.47 0 14.369-13.73 5.601-19.292l-209.091-132.597c-1.701-1.078-3.651-1.618-5.601-1.618z" fill="#fbc56c"/></g><g><path d="m29.641 394.601c0-13.571 6.842-26.013 18.303-33.282l209.092-132.597c5.269-3.342 11.174-5.287 17.189-5.882-12.388-6.536-27.58-6.026-39.522 1.549l-209.092 132.597c-11.461 7.269-18.303 19.71-18.303 33.281 0 21.731 17.679 39.411 39.411 39.411h4.402c-12.738-6.538-21.48-19.802-21.48-35.077z" fill="#ebb865"/></g></g><g><path d="m398.953 362.104h-7.173c-10.068 0-18.26 8.191-18.26 18.26v13.02h-100.688c-4.143 0-7.5 3.358-7.5 7.5s3.357 7.5 7.5 7.5h192.26c8.046 0 14.962-5.201 17.209-12.942 2.255-7.762-.797-15.874-7.592-20.184l-209.092-132.595c-5.855-3.713-13.375-3.714-19.233 0l-209.093 132.597c-6.794 4.311-9.845 12.421-7.59 20.182 2.248 7.741 9.164 12.942 17.21 12.942h190.921c4.143 0 7.5-3.358 7.5-7.5s-3.357-7.5-7.5-7.5h-99.35v-13.02c0-10.069-8.191-18.26-18.261-18.26h-7.173c-10.068 0-18.26 8.191-18.26 18.26v13.02h-47.877c-1.809 0-2.523-1.156-2.806-2.126-.234-.807-.387-2.313 1.22-3.332l209.091-132.596c.934-.592 2.237-.592 3.169 0l209.091 132.595c1.607 1.02 1.455 2.526 1.221 3.333-.282.97-.997 2.125-2.805 2.125h-47.879v-13.02c0-10.067-8.192-18.259-18.26-18.259zm3.26 31.281h-13.692v-13.02c0-1.798 1.462-3.26 3.26-3.26h7.173c1.798 0 3.26 1.462 3.26 3.26v13.02zm-292.424-13.02c0-1.798 1.462-3.26 3.26-3.26h7.173c1.798 0 3.261 1.462 3.261 3.26v13.02h-13.693v-13.02z"/><path d="m490.215 350.81-104.272-66.125c-3.499-2.218-8.131-1.182-10.351 2.317-2.218 3.498-1.181 8.132 2.317 10.351l104.272 66.125c9.28 5.886 14.82 15.96 14.82 26.949 0 17.596-14.314 31.911-31.91 31.911h-418.18c-17.596-.002-31.911-14.317-31.911-31.912 0-10.989 5.54-21.063 14.819-26.947l209.094-132.597c10.381-6.585 23.796-6.584 34.177 0l75.26 47.726c3.496 2.217 8.131 1.181 10.351-2.317 2.218-3.498 1.181-8.132-2.317-10.351l-75.259-47.725c-5.816-3.689-12.281-5.962-18.898-6.84v-23.298c0-3.294 2.299-6.167 5.591-6.987 24.655-6.141 41.848-29.065 40.881-54.509-1.1-28.963-24.982-51.915-53.94-51.915-24.935 0-46.968 17.39-52.635 41.715-.939 4.034 1.569 8.066 5.604 9.006 4.031.939 8.065-1.569 9.006-5.603 4.149-17.818 20.495-30.48 38.807-30.111 20.622.417 37.389 16.879 38.171 37.476.698 18.387-11.716 34.951-29.518 39.384-9.989 2.488-16.966 11.347-16.966 21.542v23.723c-5.722 1.08-11.281 3.202-16.347 6.415l-209.095 132.598c-13.641 8.651-21.786 23.46-21.786 39.615 0 25.867 21.044 46.911 46.911 46.911h418.181c25.866 0 46.91-21.044 46.91-46.911 0-16.154-8.145-30.964-21.787-39.616z"/></g></g></svg>