<svg id="Capa_1" enable-background="new 0 0 512 512" height="512" viewBox="0 0 512 512" width="512" xmlns="http://www.w3.org/2000/svg"><g><g><path d="m371.818 130.694h-53.007c-.324 3.565-2.054 6.828-4.88 9.115-1.211.98-1.906 2.422-1.906 3.957 0 1.534.694 2.976 1.906 3.956 3.213 2.601 5.012 6.462 4.936 10.594-.131 7.196-6.31 13.051-13.772 13.051v2h4.188c9.289 0 17.626 4.13 23.289 10.643h39.246c14.723 0 26.658-11.935 26.658-26.658 0-14.723-11.935-26.658-26.658-26.658z" fill="#fe646f"/></g><g><path d="m371.818 130.694h-31.095c14.723 0 26.658 11.935 26.658 26.658 0 14.723-11.935 26.658-26.658 26.658h31.095c14.723 0 26.658-11.935 26.658-26.658 0-14.723-11.935-26.658-26.658-26.658z" fill="#fd4755"/></g><g><path d="m110.859 115.165 7.121 1h135.792l6.689-1c12.225 0 22.135-9.91 22.135-22.135v-11.289c0-12.225-9.91-22.135-22.135-22.135h-149.602c-12.225 0-22.135 9.91-22.135 22.135v11.289c0 12.225 9.91 22.135 22.135 22.135z" fill="#ffe177"/></g><g><path d="m218.738 115.165h41.724c12.225 0 22.135-9.91 22.135-22.135v-11.289c0-12.225-9.91-22.135-22.135-22.135h-41.724c12.225 0 22.135 9.91 22.135 22.135v11.289c0 12.225-9.91 22.135-22.135 22.135z" fill="#ffd15b"/></g><g><path d="m51.454 158.333c.144 7.872 6.898 14.033 14.772 14.033l2.029 1h234.33l2.51-1c7.874 0 14.628-6.16 14.772-14.032.084-4.6-2.004-8.716-5.307-11.389-2.046-1.656-2.046-4.702 0-6.358 3.303-2.674 5.392-6.789 5.307-11.389-.144-7.872-6.898-14.032-14.772-14.032h-238.869c-7.874 0-14.628 6.16-14.772 14.032-.084 4.6 2.004 8.716 5.307 11.389 2.046 1.656 2.046 4.702 0 6.358-3.303 2.673-5.391 6.788-5.307 11.388z" fill="#a2e62e"/></g><g><path d="m273.644 172.366h31.451c7.874 0 14.628-6.16 14.772-14.032.084-4.6-2.004-8.716-5.307-11.389-2.046-1.656-2.046-4.702 0-6.358 3.303-2.674 5.392-6.789 5.307-11.389-.144-7.872-6.898-14.032-14.772-14.032h-31.451c7.874 0 14.628 6.16 14.772 14.032.084 4.6-2.004 8.716-5.307 11.389-2.046 1.656-2.046 4.702 0 6.358 3.303 2.674 5.392 6.789 5.307 11.389-.144 7.872-6.898 14.032-14.772 14.032z" fill="#97d729"/></g><g><g><g><path d="m340.15 204.233c0 9.21-4.07 17.871-11.167 23.761l-2.132 1.77h88.69c4.973-4.843 8.066-11.606 8.066-19.096 0-14.723-11.935-26.658-26.658-26.658h-64.377c4.714 5.421 7.578 12.492 7.578 20.223z" fill="#7a6d79"/></g></g><g><path d="m396.949 184.01h-31.607c14.723 0 26.658 11.935 26.658 26.658 0 7.49-3.093 14.253-8.066 19.096h31.607c4.973-4.843 8.066-11.606 8.066-19.096 0-14.723-11.935-26.658-26.658-26.658z" fill="#685e68"/></g><g><path d="m42.965 229.764h285.391c7.767-5.812 12.793-15.084 12.793-25.531 0-17.6-14.267-31.867-31.867-31.867h-247.244c-17.6 0-31.867 14.267-31.867 31.867 0 10.447 5.027 19.719 12.794 25.531z" fill="#60b7ff"/></g><g><path d="m300 204.233c0 9.869-4.49 18.686-11.534 24.531h41.15c7.044-5.845 11.534-14.662 11.534-24.531 0-17.6-14.267-31.867-31.867-31.867h-41.15c17.6 0 31.867 14.267 31.867 31.867z" fill="#26a6fe"/></g><g><path d="m311.627 422.377c0-6.207 5.05-11.257 11.257-11.257v-2c-6.207 0-11.257-5.05-11.257-11.256v-17.761c0-6.207 5.05-11.257 11.257-11.257v-2c-6.207 0-11.257-5.05-11.257-11.257v-17.761c0-6.206 5.05-11.256 11.257-11.256h86.863l12.424-53.478h-148.591c-2.645 0-5.145-1.156-6.858-3.172l-6.267-7.373c-2.093-2.463-5.148-3.876-8.381-3.876h-54.525c-3.205 0-6.242 1.393-8.334 3.82l-6.44 7.476c-1.712 1.985-4.197 3.125-6.818 3.125h-148.417l35.31 150.51c1.591 6.78 7.639 11.574 14.604 11.574h234.173z" fill="#fe99a0"/></g><g><g><path d="m384 273.096-12.424 53.477h38.171l12.424-53.477z" fill="#fd8087"/></g><path d="m504.5 355.59v-17.761c0-6.769-5.487-12.257-12.257-12.257h-169.36c-6.769 0-12.257 5.487-12.257 12.257v17.761c0 6.769 5.487 12.257 12.257 12.257-6.769 0-12.257 5.487-12.257 12.257v17.761c0 6.769 5.487 12.257 12.257 12.257h169.36c6.769 0 12.257-5.487 12.257-12.257v-17.761c0-6.769-5.487-12.257-12.257-12.257 6.77 0 12.257-5.488 12.257-12.257z" fill="#ffe177"/><g><path d="m322.884 411.12v-2c-6.207 0-11.257-5.05-11.257-11.256v-17.761c0-6.207 5.05-11.257 11.257-11.257v-2c-6.207 0-11.257-5.05-11.257-11.257v-17.761c0-6.206 5.05-11.256 11.257-11.256h-25.055c-6.207 0-11.257 5.05-11.257 11.256v97.348h25.055v-12.8c0-6.206 5.05-11.256 11.257-11.256z" fill="#fd8087"/></g></g><g><path d="m7.5 238.764v25.331c0 5.523 4.477 10 10 10h158.456c2.91 0 5.676-1.268 7.576-3.473l6.44-7.475c1.9-2.205 4.666-3.473 7.576-3.473h54.525c2.934 0 5.72 1.288 7.62 3.524l6.267 7.373c1.9 2.235 4.686 3.524 7.62 3.524h158.415c5.523 0 10-4.477 10-10v-25.331c0-5.523-4.477-10-10-10h-414.495c-5.523 0-10 4.477-10 10z" fill="#fdb4ba"/></g><g><g><path d="m431.995 228.764h-41.995c5.523 0 10 4.477 10 10v25.331c0 5.523-4.477 10-10 10h41.995c5.523 0 10-4.477 10-10v-25.331c0-5.523-4.477-10-10-10z" fill="#fe99a0"/></g></g><g><g><path d="m310.627 397.864v-17.761c0-6.769 5.487-12.257 12.257-12.257h169.36c6.769 0 12.257 5.487 12.257 12.257v17.761c0 6.769-5.487 12.257-12.257 12.257h-169.36c-6.769 0-12.257-5.488-12.257-12.257z" fill="#ffd15b"/></g><g><path d="m492.243 367.847h-41.627c6.769 0 12.257 5.487 12.257 12.257v17.761c0 6.769-5.487 12.257-12.257 12.257h41.627c6.769 0 12.257-5.487 12.257-12.257v-17.761c0-6.77-5.487-12.257-12.257-12.257z" fill="#ffc344"/></g><g><path d="m310.627 440.138v-17.761c0-6.769 5.487-12.257 12.257-12.257h169.36c6.769 0 12.257 5.487 12.257 12.257v17.761c0 6.769-5.487 12.257-12.257 12.257h-169.36c-6.769-.001-12.257-5.488-12.257-12.257z" fill="#ffe177"/></g><g><path d="m492.243 410.121h-41.627c6.769 0 12.257 5.487 12.257 12.257v17.761c0 6.769-5.487 12.257-12.257 12.257h41.627c6.769 0 12.257-5.487 12.257-12.257v-17.761c0-6.77-5.487-12.257-12.257-12.257z" fill="#ffd15b"/></g><g><path d="m492.243 325.573h-41.627c6.769 0 12.257 5.487 12.257 12.257v17.761c0 6.769-5.487 12.257-12.257 12.257h41.627c6.769 0 12.257-5.487 12.257-12.257v-17.761c0-6.77-5.487-12.257-12.257-12.257z" fill="#ffd15b"/></g></g></g><g><path d="m96.2 305.963c0-4.143-3.358-7.5-7.5-7.5s-7.5 3.357-7.5 7.5v22.062c0 4.143 3.358 7.5 7.5 7.5s7.5-3.357 7.5-7.5z"/><path d="m88.7 359.745c-4.142 0-7.5 3.357-7.5 7.5v22.062c0 4.143 3.358 7.5 7.5 7.5s7.5-3.357 7.5-7.5v-22.062c0-4.142-3.358-7.5-7.5-7.5z"/><path d="m126.549 305.963c0-4.143-3.358-7.5-7.5-7.5s-7.5 3.357-7.5 7.5v22.062c0 4.143 3.358 7.5 7.5 7.5s7.5-3.357 7.5-7.5z"/><path d="m119.049 359.745c-4.142 0-7.5 3.357-7.5 7.5v22.062c0 4.143 3.358 7.5 7.5 7.5s7.5-3.357 7.5-7.5v-22.062c0-4.142-3.358-7.5-7.5-7.5z"/><path d="m169.282 335.524c4.142 0 7.5-3.357 7.5-7.5v-22.062c0-4.143-3.358-7.5-7.5-7.5s-7.5 3.357-7.5 7.5v22.062c0 4.143 3.358 7.5 7.5 7.5z"/><path d="m161.782 389.307c0 4.143 3.358 7.5 7.5 7.5s7.5-3.357 7.5-7.5v-22.062c0-4.143-3.358-7.5-7.5-7.5s-7.5 3.357-7.5 7.5z"/><path d="m199.631 335.524c4.142 0 7.5-3.357 7.5-7.5v-22.062c0-4.143-3.358-7.5-7.5-7.5s-7.5 3.357-7.5 7.5v22.062c0 4.143 3.358 7.5 7.5 7.5z"/><path d="m192.131 389.307c0 4.143 3.358 7.5 7.5 7.5s7.5-3.357 7.5-7.5v-22.062c0-4.143-3.358-7.5-7.5-7.5s-7.5 3.357-7.5 7.5z"/><path d="m249.864 335.524c4.142 0 7.5-3.357 7.5-7.5v-22.062c0-4.143-3.358-7.5-7.5-7.5s-7.5 3.357-7.5 7.5v22.062c0 4.143 3.358 7.5 7.5 7.5z"/><path d="m242.364 389.307c0 4.143 3.358 7.5 7.5 7.5s7.5-3.357 7.5-7.5v-22.062c0-4.143-3.358-7.5-7.5-7.5s-7.5 3.357-7.5 7.5z"/><path d="m280.213 335.524c4.142 0 7.5-3.357 7.5-7.5v-22.062c0-4.143-3.358-7.5-7.5-7.5s-7.5 3.357-7.5 7.5v22.062c0 4.143 3.358 7.5 7.5 7.5z"/><path d="m272.713 389.307c0 4.143 3.358 7.5 7.5 7.5s7.5-3.357 7.5-7.5v-22.062c0-4.143-3.358-7.5-7.5-7.5s-7.5 3.357-7.5 7.5z"/><path d="m512 337.829c0-10.894-8.863-19.756-19.756-19.756h-72.822l8.475-36.478h4.099c9.649 0 17.5-7.851 17.5-17.5v-25.332c0-9.649-7.851-17.5-17.5-17.5h-2.59c1.107-3.389 1.702-6.955 1.702-10.596 0-17.817-13.714-32.484-31.14-34.017 3.782-5.495 6.009-12.138 6.009-19.299 0-18.835-15.323-34.158-34.158-34.158h-45.403c-2.779-8.953-11.336-15.528-21.32-15.528h-18.881c2.465-4.321 3.882-9.315 3.882-14.636v-11.288c0-16.341-13.294-29.636-29.635-29.636h-100.462c-4.142 0-7.5 3.357-7.5 7.5s3.358 7.5 7.5 7.5h100.462c8.07 0 14.635 6.565 14.635 14.636v11.288c0 8.07-6.565 14.636-14.635 14.636h-149.603c-8.07 0-14.635-6.565-14.635-14.636v-11.288c0-8.07 6.565-14.636 14.635-14.636h14.141c4.142 0 7.5-3.357 7.5-7.5s-3.358-7.5-7.5-7.5h-14.141c-16.341 0-29.635 13.295-29.635 29.636v11.288c0 5.321 1.417 10.315 3.882 14.636h-18.88c-12.064 0-22.055 9.598-22.271 21.396-.1 5.479 1.812 10.668 5.335 14.705-3.523 4.038-5.435 9.226-5.335 14.704.063 3.456.968 6.721 2.515 9.612-13.985 6.046-23.799 19.972-23.799 36.151 0 5.987 1.36 11.785 3.885 17.03h-9.056c-9.649 0-17.5 7.851-17.5 17.5v25.332c0 9.649 7.851 17.5 17.5 17.5h4.33l33.718 143.721c2.398 10.223 11.406 17.361 21.905 17.361h49.047c4.142 0 7.5-3.357 7.5-7.5s-3.358-7.5-7.5-7.5h-49.046c-3.5 0-6.502-2.38-7.302-5.787l-32.914-140.294h138.718c5.097 0 9.929-2.215 13.258-6.077l6.44-7.476c.475-.552 1.166-.868 1.894-.868h54.525c.735 0 1.429.321 1.905.881l6.267 7.373c3.332 3.919 8.191 6.167 13.334 6.167h138.917l-8.475 36.478h-35.727v-12.11c0-4.143-3.358-7.5-7.5-7.5s-7.5 3.357-7.5 7.5v12.11h-15.349v-12.11c0-4.143-3.358-7.5-7.5-7.5s-7.5 3.357-7.5 7.5v12.11h-.062c-10.894 0-19.757 8.862-19.757 19.756v17.761c0 4.63 1.613 8.885 4.29 12.257-2.678 3.372-4.29 7.626-4.29 12.257v17.761c0 4.63 1.612 8.884 4.29 12.256-2.678 3.372-4.29 7.626-4.29 12.257v5.301h-141.626c-4.142 0-7.5 3.357-7.5 7.5s3.358 7.5 7.5 7.5h141.809c1.253 9.695 9.543 17.217 19.575 17.217h169.36c10.894 0 19.756-8.863 19.756-19.757v-17.761c0-4.63-1.612-8.885-4.29-12.257 2.678-3.372 4.29-7.626 4.29-12.256v-17.761c0-4.63-1.613-8.885-4.29-12.257 2.678-3.372 4.29-7.626 4.29-12.257zm-115.051-146.319c10.564 0 19.158 8.595 19.158 19.158 0 3.807-1.139 7.471-3.224 10.596h-68.118c2.524-5.245 3.885-11.043 3.885-17.03 0-4.452-.754-8.729-2.122-12.724zm-71.409-53.317h46.278c10.563 0 19.158 8.595 19.158 19.158s-8.594 19.158-19.158 19.158h-34.616c-3.518-3.543-7.705-6.418-12.351-8.427 1.547-2.891 2.452-6.156 2.515-9.611.101-5.479-1.811-10.668-5.334-14.706 1.462-1.676 2.629-3.56 3.508-5.572zm-264.061-3.437c-1.645-1.331-2.565-3.307-2.527-5.422.067-3.677 3.33-6.669 7.273-6.669h238.87c3.943 0 7.206 2.992 7.273 6.67.039 2.114-.882 4.09-2.527 5.421-.565.457-1.067.97-1.529 1.51h-213.26c-4.142 0-7.5 3.357-7.5 7.5s3.358 7.5 7.5 7.5h213.261c.462.54.963 1.051 1.528 1.508 1.645 1.332 2.566 3.309 2.527 5.424-.067 3.677-3.33 6.669-7.273 6.669h-238.869c-3.943 0-7.206-2.992-7.273-6.67-.038-2.114.883-4.091 2.528-5.423 2.742-2.22 4.315-5.504 4.315-9.008-.001-3.505-1.573-6.789-4.317-9.01zm.559 45.11h247.245c13.436 0 24.367 10.931 24.367 24.367 0 6.414-2.504 12.493-6.946 17.03h-282.086c-4.442-4.537-6.946-10.615-6.946-17.03-.001-13.436 10.93-24.367 24.366-24.367zm209.637 85.848-6.267-7.373c-3.331-3.919-8.191-6.166-13.334-6.166h-54.525c-5.098 0-9.931 2.215-13.258 6.077l-6.438 7.475c-.477.553-1.167.869-1.896.869h-158.457c-1.378 0-2.5-1.121-2.5-2.5v-25.332c0-1.379 1.122-2.5 2.5-2.5h414.495c1.378 0 2.5 1.121 2.5 2.5v25.332c0 1.379-1.122 2.5-2.5 2.5h-158.415c-.735 0-1.429-.322-1.905-.882zm225.325 174.424c0 2.623-2.134 4.757-4.756 4.757h-169.36c-2.623 0-4.757-2.134-4.757-4.757v-17.761c0-2.623 2.134-4.757 4.757-4.757h169.36c2.623 0 4.756 2.134 4.756 4.757zm0-84.548c0 2.623-2.134 4.757-4.756 4.757h-51.244c-4.142 0-7.5 3.357-7.5 7.5s3.358 7.5 7.5 7.5h51.244c2.623 0 4.756 2.134 4.756 4.757v17.761c0 2.622-2.134 4.756-4.756 4.756h-169.36c-2.623 0-4.757-2.134-4.757-4.756v-17.761c0-2.623 2.134-4.757 4.757-4.757h83.116c4.142 0 7.5-3.357 7.5-7.5s-3.358-7.5-7.5-7.5h-83.116c-2.623 0-4.757-2.134-4.757-4.757v-17.761c0-2.622 2.134-4.756 4.757-4.756h169.36c2.623 0 4.756 2.134 4.756 4.756z"/><path d="m109.5 87c0 4.143 3.358 7.5 7.5 7.5h88c4.142 0 7.5-3.357 7.5-7.5s-3.358-7.5-7.5-7.5h-88c-4.142 0-7.5 3.357-7.5 7.5z"/></g></g></svg>