<svg id="Layer_1" enable-background="new 0 0 512.002 512.002" height="512" viewBox="0 0 512.002 512.002" width="512" xmlns="http://www.w3.org/2000/svg"><g><g><path d="m226.805 84.01c4.662-2.674 9.861-4.174 15.348-4.174s10.685 1.5 15.347 4.174v-50.322h-30.695z" fill="#8bcaff"/><path d="m242.152 75.637c-17.967 0-32.877 14.048-35.795 31.183h71.591c-2.919-17.134-17.829-31.183-35.796-31.183z" fill="#ff7f87"/><path d="m259.027 80.061c-5.042-2.804-10.782-4.424-16.875-4.424-17.967 0-32.877 14.048-35.795 31.183h33.75c1.929-11.323 9.096-21.295 18.92-26.759z" fill="#ff636e"/><g><path d="m357.557 60.035c-4.726 0-9.386-2.174-12.393-6.279l-9.762-13.325c-1.099-1.5-2.864-2.395-4.723-2.395h-131.469c-8.476 0-15.347-6.871-15.347-15.347s6.871-15.347 15.347-15.347h131.47c11.605 0 22.627 5.589 29.484 14.951l9.761 13.325c5.009 6.837 3.527 16.441-3.31 21.45-2.734 2.002-5.911 2.967-9.058 2.967z" fill="#dbedff"/></g><g><path d="m236.529 22.689c0-8.476 6.872-15.347 15.348-15.347h-52.667c-8.476 0-15.347 6.871-15.347 15.347s6.871 15.347 15.347 15.347h52.667c-8.477 0-15.348-6.871-15.348-15.347z" fill="#b5dcff"/></g><path d="m278.38 105.821h-72.455c-6.753 0-12.278 5.525-12.278 12.278v23.022c.54-.025 1.08-.047 1.623-.047h93.765c.543 0 1.083.022 1.623.047v-23.022c0-6.753-5.525-12.278-12.278-12.278z" fill="#ffb6bb"/><g><path d="m232.692 118.099c0-6.753 5.525-12.278 12.278-12.278h-39.046c-6.753 0-12.278 5.525-12.278 12.278v23.022c.54-.025 1.08-.047 1.623-.047h37.422v-22.975z" fill="#ff7f87"/></g><path d="m340.89 185.106c-1.07-2.035-2.312-3.988-3.726-5.831l-20.315-26.482c-6.635-8.649-16.915-13.719-27.815-13.719h-93.764c-10.9 0-21.18 5.07-27.815 13.719l-20.315 26.482c-1.414 1.843-2.656 3.796-3.726 5.831z" fill="#dbedff"/><path d="m211.205 152.792c6.635-8.648 16.915-13.719 27.815-13.719h-43.75c-10.9 0-21.18 5.07-27.815 13.719l-20.315 26.482c-1.414 1.843-2.656 3.796-3.726 5.831h43.75c1.07-2.035 2.312-3.988 3.726-5.831z" fill="#b5dcff"/><path d="m138.735 462.793v14.766c0 14.793 11.992 26.784 26.784 26.784h153.266c14.793 0 26.784-11.992 26.784-26.784v-14.766z" fill="#dbedff"/><path d="m182.485 477.559v-14.766h-43.75v14.766c0 14.793 11.992 26.784 26.784 26.784h43.75c-14.792 0-26.784-11.991-26.784-26.784z" fill="#b5dcff"/><path d="m138.735 204.042v263.175h206.835v-263.175c0-8.373-2.584-16.527-7.374-23.359h-192.087c-4.79 6.832-7.374 14.986-7.374 23.359z" fill="#ff7f87"/><path d="m189.859 180.682h-43.75c-4.791 6.833-7.374 14.986-7.374 23.359v263.175h43.75v-263.174c0-8.373 2.583-16.527 7.374-23.36z" fill="#ff636e"/><ellipse cx="242.152" cy="319.662" fill="#ff636e" rx="65.482" ry="106.534"/><path d="m219.309 319.662c0-46.693 18.465-86.365 44.163-100.755-6.684-3.743-13.855-5.779-21.32-5.779-36.165 0-65.482 47.697-65.482 106.534s29.317 106.534 65.482 106.534c7.465 0 14.636-2.037 21.32-5.779-25.698-14.39-44.163-54.062-44.163-100.755z" fill="#ff4654"/></g><g><path d="m200.433 99.321c-8.143 2.449-14.094 10.007-14.094 18.937v14.492c-9.694 2.153-18.522 7.659-24.643 15.636l-20.315 26.483c-6.228 8.117-9.954 18.293-9.954 29.331v273.518c0 18.904 15.38 34.284 34.284 34.284h153.267c18.904 0 34.284-15.38 34.284-34.284 0-7.827 0-266.837 0-273.518 0-10.48-3.382-20.766-9.955-29.332h.001l-20.315-26.481c-6.119-7.978-14.948-13.484-24.643-15.637v-14.492c0-8.93-5.952-16.488-14.094-18.937-3.173-10.483-10.068-19.145-19.064-24.629v-28.998h64.845l9.27 12.652c7.304 9.976 21.573 12.519 31.934 4.93 10.162-7.446 12.372-21.771 4.929-31.932l-9.762-13.326c-8.266-11.283-21.551-18.018-35.537-18.018h-44.563c-4.143 0-7.5 3.357-7.5 7.5s3.357 7.5 7.5 7.5h44.563c9.224 0 17.983 4.442 23.434 11.882l9.763 13.327c2.557 3.49 1.797 8.41-1.692 10.967-3.417 2.502-8.339 1.898-10.969-1.693l-9.762-13.324c-2.506-3.421-6.533-5.464-10.773-5.464h-131.47c-4.327 0-7.848-3.52-7.848-7.847s3.521-7.848 7.848-7.848h51.906c4.143 0 7.5-3.357 7.5-7.5s-3.357-7.5-7.5-7.5h-51.906c-12.599 0-22.848 10.249-22.848 22.848 0 12.598 10.249 22.847 22.848 22.847h20.095v28.998c-8.997 5.483-15.892 14.145-19.064 24.628zm137.829 378.397c0 10.634-8.65 19.284-19.284 19.284h-153.267c-10.634 0-19.284-8.65-19.284-19.284v-2.843h191.835zm0-273.518v255.675h-191.835v-255.675c0-5.246 1.295-10.791 4.045-15.859h183.745c2.729 5.04 4.045 10.524 4.045 15.859zm-49.035-57.468c8.441 0 16.655 3.992 21.863 10.784l12.139 15.824h-161.77l12.139-15.824c5.081-6.623 13.201-10.784 21.864-10.784zm-11.087-33.253c3.477 0 5.21 2.508 5.21 4.778v13.475h-82.011v-13.475c0-2.351 1.804-4.778 5.21-4.778zm-43.643-67.784h15.694v23.298c-5.168-.929-10.518-.931-15.694 0zm7.848 37.601c10.617 0 20.427 5.848 25.412 15.184h-50.825c4.941-9.254 14.696-15.184 25.413-15.184z"/><path d="m265.265 296.613h-45.841c-4.143 0-7.5 3.357-7.5 7.5s3.357 7.5 7.5 7.5h45.841c4.143 0 7.5-3.357 7.5-7.5s-3.358-7.5-7.5-7.5z"/><path d="m265.265 325.981h-45.841c-4.143 0-7.5 3.357-7.5 7.5s3.357 7.5 7.5 7.5h45.841c4.143 0 7.5-3.357 7.5-7.5s-3.358-7.5-7.5-7.5z"/><path d="m242.345 433.855c36.115 0 66.421-40.279 72.06-95.776.418-4.121-2.583-7.801-6.704-8.22-4.12-.413-7.801 2.583-8.22 6.704-4.767 46.914-29.329 82.292-57.136 82.292-31.657 0-57.983-44.877-57.983-99.034 0-27.089 6.417-52.447 18.069-71.404 10.952-17.818 25.127-27.631 39.914-27.631 27.807 0 52.369 35.378 57.136 82.293.419 4.121 4.104 7.117 8.22 6.704 4.121-.419 7.122-4.099 6.704-8.22-5.639-55.497-35.944-95.777-72.06-95.777-20.195 0-38.909 12.351-52.693 34.776-13.084 21.286-20.29 49.435-20.29 79.259-.001 61.807 31.331 114.034 72.983 114.034z"/></g></g></svg>