<svg id="Layer_1" enable-background="new 0 0 512.002 512.002" height="512" viewBox="0 0 512.002 512.002" width="512" xmlns="http://www.w3.org/2000/svg"><g><g><path d="m272.434 418.937v-83.353c-5.476.53-11.018.815-16.625.815-4.981 0-9.913-.223-14.792-.643v83.181z" fill="#b5dcff"/><path d="m259.017 336.358c-1.068.021-2.136.04-3.208.04-4.981 0-9.913-.223-14.792-.643v83.181h18z" fill="#8bcaff"/><circle cx="255.809" cy="156.302" fill="#dbedff" r="148.96"/><path d="m142.442 156.302c0-76.245 57.286-139.101 131.164-147.898-5.836-.695-11.773-1.062-17.797-1.062-82.269 0-148.96 66.692-148.96 148.96s66.692 148.96 148.96 148.96c6.023 0 11.96-.367 17.797-1.062-73.878-8.797-131.164-71.653-131.164-147.898z" fill="#b5dcff"/><path d="m273.367 414.489h-35.116c-6.817 0-12.394 5.577-12.394 12.394v69.759c0 4.254 3.448 7.702 7.702 7.702h44.498c4.254 0 7.702-3.448 7.702-7.702v-69.759c.001-6.817-5.576-12.394-12.392-12.394z" fill="#6e60b8"/><path d="m255.809 496.641v-69.759c0-6.817 5.577-12.394 12.394-12.394h-29.952c-6.816 0-12.394 5.577-12.394 12.394v69.759c0 4.254 3.448 7.702 7.702 7.702h29.952c-4.254 0-7.702-3.448-7.702-7.702z" fill="#6353b2"/><circle cx="255.809" cy="156.302" fill="#60b9fe" r="117.544"/><path d="m173.858 156.302c0-58.868 43.275-107.627 99.747-116.204-5.804-.881-11.747-1.34-17.797-1.34-64.918 0-117.544 52.626-117.544 117.544s52.626 117.544 117.544 117.544c6.05 0 11.993-.458 17.797-1.34-56.472-8.577-99.747-57.337-99.747-116.204z" fill="#1ca8ff"/></g><g><path d="m78.929 122.858c-4.099-.595-7.905 2.242-8.503 6.341-.952 6.536-1.559 13.156-1.823 19.761h-6.081c-4.143 0-7.5 3.358-7.5 7.5s3.357 7.5 7.5 7.5h6.089c3.657 92.481 74.588 167.954 165.099 178.723v65.057c-8.688 2.132-15.16 9.965-15.16 19.301v69.759c0 8.382 6.819 15.202 15.202 15.202h44.499c8.383 0 15.202-6.82 15.202-15.202v-69.759c0-8.666-5.579-16.036-13.327-18.757v-15.818c0-4.142-3.357-7.5-7.5-7.5s-7.5 3.358-7.5 7.5v14.681h-16.416v-63.277c5.69.223 11.507.155 16.416-.081v13.678c0 4.142 3.357 7.5 7.5 7.5s7.5-3.358 7.5-7.5v-15c89.635-11.561 159.634-86.649 163.266-178.506h6.089c4.143 0 7.5-3.358 7.5-7.5s-3.357-7.5-7.5-7.5h-6.081c-.265-6.606-.872-13.225-1.823-19.761-.597-4.099-4.407-6.936-8.503-6.341-4.099.597-6.938 4.404-6.341 8.503.848 5.822 1.396 11.716 1.652 17.599h-16.106c-3.929-82.803-72.52-148.961-156.278-148.961s-152.349 66.158-156.277 148.96h-16.106c.255-5.883.804-11.777 1.652-17.599.597-4.098-2.242-7.905-6.341-8.503zm194.63 299.289c2.652 0 4.894 2.241 4.894 4.894v69.759c0 .111-.091.202-.202.202h-44.499c-.111 0-.202-.091-.202-.202v-69.759c0-2.652 2.241-4.894 4.894-4.894zm-17.558-407.147c78.001 0 141.46 63.459 141.46 141.46s-63.459 141.46-141.46 141.46c-78.002 0-141.461-63.458-141.461-141.46s63.46-141.46 141.461-141.46zm-156.277 148.96c3.928 82.803 72.52 148.96 156.277 148.96s152.349-66.157 156.276-148.96h16.104c-3.951 91.9-79.999 165.053-172.38 165.053-92.364 0-168.428-73.12-172.381-165.053z"/><path d="m318.689 117.472c3.156 2.686 7.89 2.301 10.572-.851 2.685-3.155 2.304-7.888-.852-10.573l-34.832-29.642c-3.154-2.684-7.889-2.302-10.572.851-2.685 3.155-2.304 7.888.852 10.573z"/><path d="m234.224 77.257c-2.685 3.155-2.304 7.888.852 10.573l83.613 71.154c3.156 2.686 7.89 2.301 10.572-.851 2.685-3.155 2.304-7.888-.852-10.573l-83.613-71.154c-3.154-2.684-7.887-2.302-10.572.851z"/><path d="m237.394 280.124c4.114.611 7.916-2.227 8.525-6.311.611-4.097-2.214-7.914-6.311-8.525-53.39-7.97-93.651-54.755-93.651-108.828 0-60.678 49.365-110.044 110.044-110.044s110.044 49.366 110.044 110.044c0 54.072-40.262 100.858-93.651 108.828-4.097.612-6.922 4.429-6.311 8.525.611 4.097 4.435 6.915 8.525 6.311 61.076-9.118 106.437-61.811 106.437-123.664 0-68.95-56.095-125.044-125.044-125.044s-125.043 56.095-125.043 125.044c0 61.774 45.285 114.535 106.436 123.664z"/></g></g></svg>