<svg id="Layer_1" enable-background="new 0 0 512.002 512.002" height="512" viewBox="0 0 512.002 512.002" width="512" xmlns="http://www.w3.org/2000/svg"><g><g><path d="m380.143 468.587v-25.877c0-7.666-6.214-13.879-13.879-13.879h-85.184c-1.4 13.942-5.609 27.46-12.34 39.757h111.403z" fill="#ffafe2"/><path d="m316.393 428.83h-35.313c-1.4 13.942-5.609 27.46-12.34 39.757h33.774v-25.877c-.001-7.666 6.213-13.88 13.879-13.88z" fill="#ff94d5"/><path d="m269.819 466.587c-4.403 8.476-10.018 16.468-16.853 23.704-4.801 5.083-10.681 8.9-17.119 11.264 2.32 1.743 5.194 2.788 8.318 2.788h122.098c7.666 0 13.879-6.214 13.879-13.88v-23.877h-110.323z" fill="#ff94d5"/><path d="m302.513 490.464v-23.877h-32.695c-4.403 8.476-10.018 16.468-16.853 23.704-4.802 5.083-10.681 8.9-17.119 11.264 2.32 1.743 5.194 2.788 8.318 2.788h72.228c-7.665 0-13.879-6.213-13.879-13.879z" fill="#ff72c7"/><path d="m419.918 143.832 12.072-100.697h-252.551l11.999 100.697z" fill="#dbedff"/><path d="m191.438 143.832h62.784l-9.283-98.697-.469-2h-65.031z" fill="#b5dcff"/><path d="m210.126 300.658.28 2.347h18.258c5.453 0 9.874 4.421 9.874 9.874v32.971c0 5.453-4.421 9.874-9.874 9.874h3.095c20.038 0 37.689 13.156 43.443 32.351.974 3.25 1.785 6.534 2.436 9.841.138 1.102 3.161 14.936 1.442 31.916h77.272c16.767 0 30.891-13.524 32.898-30.171l11.868-99.002h-190.992z" fill="#dbedff"/><path d="m281.122 429.83-12.15-129.172h-58.847l.28 2.347h18.258c5.453 0 9.874 4.421 9.874 9.874v32.971c0 5.453-4.421 9.874-9.874 9.874h3.095c20.038 0 37.689 13.156 43.443 32.351.974 3.25 1.785 6.534 2.436 9.841.138 1.102 3.161 14.936 1.442 31.916h2.043z" fill="#b5dcff"/><path d="m231.664 302.004h-108.016c-5.453 0-9.874 4.42-9.874 9.873v33.971c0 5.453 4.421 9.874 9.874 9.874h108.016c5.453 0 9.874-4.42 9.874-9.874v-33.971c0-5.452-4.421-9.873-9.874-9.873z" fill="#dbedff"/><path d="m161.938 345.849v-33.972c0-5.453 4.42-9.873 9.874-9.873h-48.164c-5.453 0-9.874 4.421-9.874 9.873v33.972c0 5.453 4.42 9.874 9.874 9.874h48.164c-5.453 0-9.874-4.421-9.874-9.874z" fill="#b5dcff"/><path d="m280.929 399.523c-.696-3.85-1.596-7.674-2.728-11.449-5.754-19.194-23.405-32.35-43.443-32.35h-114.205c-20.038 0-37.689 13.157-43.442 32.35-1.132 3.776-2.032 7.599-2.728 11.449z" fill="#60b9fe"/><path d="m80.56 458.137c4.777 11.628 11.717 22.552 20.787 32.154 8.516 9.015 20.42 14.053 32.821 14.053h86.977c12.401 0 24.306-5.037 32.821-14.053 9.068-9.6 16.009-20.524 20.787-32.154z" fill="#60b9fe"/><path d="m113.383 399.523c.696-3.85 1.596-7.674 2.728-11.449 5.754-19.194 23.405-32.35 43.442-32.35h-39c-20.038 0-37.689 13.157-43.442 32.35-1.132 3.776-2.032 7.599-2.728 11.449z" fill="#1ca8ff"/><path d="m140.346 490.291c-9.07-9.602-16.01-20.526-20.787-32.154h-39c4.777 11.628 11.717 22.552 20.787 32.154 8.516 9.015 20.42 14.053 32.821 14.053h39c-12.4-.001-24.305-5.038-32.821-14.053z" fill="#1ca8ff"/><path d="m431.99 7.341h-252.552c-3.834 0-6.941 3.108-6.941 6.942v23.911c0 3.833 3.108 6.941 6.941 6.941h252.552c3.834 0 6.941-3.108 6.941-6.941v-23.911c0-3.834-3.108-6.942-6.941-6.942z" fill="#ffafe2"/><path d="m237.997 38.194v-23.911c0-3.834 3.108-6.942 6.941-6.942h-65.5c-3.833 0-6.941 3.108-6.941 6.942v23.911c0 3.833 3.108 6.941 6.941 6.941h65.5c-3.833 0-6.941-3.108-6.941-6.941z" fill="#ff94d5"/><path d="m420.08 142.486h-228.802l19.008 159.518h190.671z" fill="#ffafe2"/><path d="m254.095 142.486h-62.817l19.008 159.518h58.813z" fill="#ff94d5"/><circle cx="305.714" cy="222.245" fill="#ff94d5" r="53.628"/><path d="m301.086 222.245c0-20.788 11.836-38.799 29.128-47.7-7.346-3.781-15.67-5.928-24.5-5.928-29.618 0-53.628 24.01-53.628 53.628s24.01 53.628 53.628 53.628c8.83 0 17.154-2.148 24.5-5.928-17.293-8.901-29.128-26.912-29.128-47.7z" fill="#ff72c7"/><path d="m280.637 397.915h-69.057c7.012 8.366 11.24 19.145 11.24 30.916 0 11.77-4.228 22.549-11.24 30.915h62.481c8.4-19.512 10.658-41.108 6.576-61.831z" fill="#8bcaff"/><path d="m132.492 428.83c0-11.771 4.228-22.549 11.24-30.916h-69.057c-4.081 20.718-1.826 42.315 6.576 61.831h62.481c-7.012-8.366-11.24-19.145-11.24-30.915z" fill="#8bcaff"/><path d="m113.675 397.915h-39c0 1.26-7.446 29.263 6.576 61.831h39c-8.402-19.516-10.656-41.113-6.576-61.831z" fill="#60b9fe"/><circle cx="177.656" cy="428.83" fill="#dbedff" r="48.164"/><path d="m172.412 428.83c0-18.887 10.877-35.225 26.704-43.118-6.463-3.223-13.747-5.046-21.46-5.046-26.6 0-48.164 21.563-48.164 48.164s21.563 48.164 48.164 48.164c7.713 0 14.997-1.823 21.46-5.046-15.826-7.893-26.704-24.231-26.704-43.118z" fill="#b5dcff"/></g><g><path d="m70.119 386.078c-11.55 38.529-1.654 80.279 25.968 109.521 9.846 10.424 23.796 16.403 38.273 16.403h86.977c5.041 0 10.013-.741 14.776-2.126 2.822 1.366 5.918 2.126 9.245 2.126h121.099c11.788 0 21.379-9.591 21.379-21.38 0-6.926 0-40.828 0-47.754 0-5.869-2.379-11.191-6.221-15.058 8.225-6.457 13.941-16.035 15.275-27.095l42.154-349.659c4.511-2.445 7.582-7.223 7.582-12.704v-23.911c-.002-7.962-6.481-14.441-14.444-14.441h-108.776c-4.143 0-7.5 3.358-7.5 7.5s3.357 7.5 7.5 7.5h108.218v22.793h-251.435v-22.793h108.217c4.143 0 7.5-3.358 7.5-7.5s-3.357-7.5-7.5-7.5h-108.775c-7.963 0-14.441 6.479-14.441 14.441v23.911c0 5.482 3.071 10.259 7.582 12.704l29.368 243.606h-78.3c-9.58 0-17.374 7.794-17.374 17.374v33.971c0 1.439.195 2.83.527 4.168-17.418 4.627-31.477 17.902-36.874 35.903zm11.124 19.495h46.113c-6.896 14.903-6.884 31.969 0 46.831h-40.796c-5.519-14.844-7.407-30.94-5.317-46.831zm140.094 91.429h-86.977c-10.368 0-20.344-4.266-27.369-11.703-5.185-5.489-9.648-11.503-13.359-17.896h43.991c10.142 10.615 24.419 17.249 40.226 17.249 15.806 0 30.083-6.633 40.225-17.249h43.969c-9.602 16.51-21.63 29.599-40.706 29.599zm-43.489-108.677c22.408 0 40.663 18.22 40.663 40.664 0 22.374-18.2 40.664-40.663 40.664-21.554 0-39.587-16.951-40.615-38.734-1.091-23.253 17.516-42.594 40.615-42.594zm50.492 17.248h46.101c2.108 15.854.228 31.953-5.304 46.831h-40.797c6.766-14.563 6.991-31.767 0-46.831zm144.495 85.049c0 3.518-2.861 6.38-6.379 6.38h-108.223c5.667-5.549 12.297-14.146 17.227-22.757h97.375zm0-31.377h-90.212c2.966-7.597 4.942-15.077 6.222-22.756h77.611c3.518 0 6.379 2.862 6.379 6.379zm9.161-60.325c-1.551 12.866-12.493 22.568-25.452 22.568h-66.265c.866-32.139-10.278-63.023-41.554-71.318.335-1.356.504-2.947.504-4.163v-33.971c0-.807-.075-1.595-.182-2.374h143.709zm-193.907-346.127h235.636l-9.928 82.351h-215.78zm11.736 97.352h212.163c-.724 6.005-16.521 137.033-17.424 144.519-9.056 0-171.047 0-177.316 0zm-78.359 161.892c0-1.309 1.065-2.374 2.374-2.374h108.016c1.309 0 2.373 1.065 2.373 2.374v33.971c0 1.309-1.064 2.374-2.373 2.374h-108.016c-1.309 0-2.374-1.065-2.374-2.374zm-.72 51.345h114.205c16.958 0 31.455 10.982 36.258 27.004.01.034.019.069.029.103.008.028.015.057.023.084h-53.188c-10.142-10.615-24.419-17.249-40.225-17.249s-30.083 6.633-40.226 17.249h-53.187c4.939-16.602 19.703-27.191 36.311-27.191z"/><path d="m305.906 283.532c25.694 0 48.809-16.238 57.518-40.406 1.404-3.896-.616-8.194-4.513-9.598-3.895-1.403-8.194.615-9.599 4.513-6.572 18.237-24.016 30.491-43.406 30.491-25.435 0-46.128-20.693-46.128-46.128s20.693-46.128 46.128-46.128c19.946 0 37.549 12.723 43.801 31.66 1.299 3.933 5.542 6.067 9.474 4.771 3.934-1.299 6.069-5.54 4.771-9.474-8.286-25.096-31.612-41.957-58.045-41.957-33.706 0-61.128 27.422-61.128 61.128s27.421 61.128 61.127 61.128z"/></g></g></svg>