<svg id="Layer_1" enable-background="new 0 0 512.002 512.002" height="512" viewBox="0 0 512.002 512.002" width="512" xmlns="http://www.w3.org/2000/svg"><g><path d="m405.811 218.674h-226.834c-2.757 0-5.422-.404-7.949-1.142v79.365h46.718c4.015 0 7.142 3.484 6.709 7.476l-7.019 64.747h188.374c2.757 0 5.422.404 7.949 1.142v-152.729c-2.526.738-5.192 1.141-7.948 1.141z" fill="#00b8a0"/><path d="m171.028 217.532v79.365h46.409v-78.223h-38.46c-2.757 0-5.422-.403-7.949-1.142z" fill="#009b8f"/><path d="m223.14 313.507-5.703 55.613h188.374c2.757 0 5.422.404 7.949 1.142v-56.755z" fill="#009b8f"/><path d="m405.811 83.451h-226.834c-15.698 0-28.542 12.844-28.542 28.542v47.741c5.88 5.123 13.565 8.226 21.976 8.226 9.117 0 17.379-3.646 23.414-9.559 3.65-3.577 9.513-3.577 13.164 0 6.035 5.913 14.297 9.559 23.414 9.559s17.379-3.646 23.414-9.559c3.65-3.577 9.513-3.577 13.164 0 6.035 5.913 14.297 9.559 23.414 9.559s17.379-3.646 23.414-9.559c3.65-3.577 9.513-3.576 13.164 0 6.035 5.913 14.297 9.559 23.414 9.559s17.379-3.646 23.414-9.559c3.65-3.577 9.513-3.577 13.163 0 6.035 5.913 14.297 9.559 23.414 9.559 8.411 0 16.096-3.103 21.977-8.226v-47.741c-.002-15.698-12.846-28.542-28.544-28.542z" fill="#8aecdc"/><g><path d="m200.7 110.101c0-11.603 6.709-21.709 16.435-26.65h-38.158c-15.698 0-28.542 12.844-28.542 28.542v47.741c5.88 5.123 13.565 8.226 21.976 8.226 9.117 0 17.379-3.646 23.414-9.559 1.386-1.358 3.093-2.198 4.875-2.524z" fill="#5ce2c5"/></g><path d="m405.811 366.12h-188.374l-14.33 132.202c-.371 3.426-3.264 6.021-6.709 6.021h209.413c15.698 0 28.542-12.844 28.542-28.542v-81.139c0-15.698-12.844-28.542-28.542-28.542z" fill="#00d3b5"/><path d="m217.437 475.801v-81.139c0-15.698 12.844-28.542 28.542-28.542h-28.542l-14.33 132.202c-.372 3.426-3.264 6.021-6.709 6.021h49.582c-15.699 0-28.543-12.844-28.543-28.542z" fill="#00b8a0"/><g><path d="m412.376 159.96c-9.117 0-17.379-3.646-23.414-9.559-3.65-3.577-9.513-3.577-13.163 0-6.035 5.913-14.297 9.559-23.414 9.559s-17.379-3.646-23.414-9.559c-3.65-3.576-9.513-3.577-13.164 0-6.035 5.913-14.297 9.559-23.414 9.559s-17.379-3.646-23.414-9.559c-3.65-3.577-9.513-3.577-13.164 0-6.035 5.913-14.297 9.559-23.414 9.559s-17.379-3.646-23.414-9.559c-3.65-3.577-9.513-3.577-13.163 0-6.035 5.913-14.297 9.559-23.414 9.559-8.411 0-16.096-3.103-21.977-8.226v41.398c0 15.698 12.844 28.542 28.542 28.542h226.834c15.698 0 28.542-12.844 28.542-28.542v-41.398c-5.878 5.123-13.564 8.226-21.975 8.226z" fill="#00d3b5"/></g><path d="m200.7 195.024v-47.147c-1.782.327-3.488 1.166-4.875 2.525-6.035 5.913-14.297 9.559-23.414 9.559-8.411 0-16.096-3.103-21.976-8.226v41.398c0 15.698 12.844 28.542 28.542 28.542h38.16c-9.728-4.941-16.437-15.048-16.437-26.651z" fill="#00b8a0"/><path d="m332.407 7.341h-80.026c-8.383 0-15.242 6.859-15.242 15.242v45.626c0 8.383 6.859 15.242 15.242 15.242h80.026c8.383 0 15.242-6.859 15.242-15.242v-45.626c0-8.383-6.859-15.242-15.242-15.242z" fill="#dbedff"/><path d="m286.639 68.209v-45.626c0-8.383 6.859-15.242 15.242-15.242h-49.5c-8.383 0-15.242 6.859-15.242 15.242v45.626c0 8.383 6.859 15.242 15.242 15.242h49.5c-8.383 0-15.242-6.859-15.242-15.242z" fill="#b5dcff"/><g><path d="m220.746 293.897h-136.731c-4.015 0-7.142 3.484-6.709 7.476l6.884 63.502c2.625.662 5.369 1.023 8.2 1.023 9.117 0 17.379-3.646 23.414-9.559 3.65-3.576 9.513-3.576 13.164 0 6.034 5.913 14.297 9.559 23.414 9.559s17.379-3.646 23.414-9.559c3.65-3.576 9.513-3.576 13.164 0 6.035 5.913 14.297 9.559 23.414 9.559 2.831 0 5.575-.361 8.2-1.023l6.884-63.502c.43-3.992-2.697-7.476-6.712-7.476z" fill="#dbedff"/></g><path d="m121.98 293.897h-37.965c-4.015 0-7.142 3.484-6.709 7.476l6.884 63.502c2.625.662 5.369 1.023 8.2 1.023 9.117 0 17.379-3.646 23.414-9.559 3.573-3.5 9.259-3.565 12.922-.214z" fill="#b5dcff"/><path d="m209.575 466.328 11.219-103.503c-2.691.698-5.512 1.073-8.422 1.073-9.117 0-17.379-3.646-23.414-9.559-3.65-3.576-9.513-3.576-13.164 0-6.035 5.913-14.297 9.559-23.414 9.559s-17.379-3.646-23.414-9.559c-3.65-3.576-9.513-3.576-13.164 0-6.035 5.913-14.297 9.559-23.414 9.559-2.91 0-5.731-.375-8.422-1.073l11.22 103.503z" fill="#60b9fe"/><path d="m128.485 353.912c-3.667-3.134-9.187-2.998-12.682.427-6.035 5.913-14.297 9.559-23.414 9.559-2.91 0-5.731-.375-8.422-1.073l11.22 103.503h45.485z" fill="#1ca8ff"/><path d="m94.97 464.328 3.685 33.994c.371 3.426 3.263 6.021 6.709 6.021h94.034c3.446 0 6.338-2.596 6.709-6.021l3.685-33.994z" fill="#1ca8ff"/><path d="m140.454 464.328h-45.484l3.685 33.994c.371 3.426 3.263 6.021 6.709 6.021h39.428z" fill="#0094fd"/><path d="m317.067 260.249h-51.182c-4.143 0-7.5 3.358-7.5 7.5s3.357 7.5 7.5 7.5h51.182c4.143 0 7.5-3.358 7.5-7.5s-3.357-7.5-7.5-7.5z"/><path d="m421.452 225.847c12.164-5.796 20.593-18.209 20.593-32.556v-41.398-39.741c0-19.874-16.168-36.042-36.042-36.042h-52.021c.878-2.418 1.359-5.025 1.359-7.742v-45.626c0-12.54-10.203-22.742-22.743-22.742h-22.513c-4.143 0-7.5 3.358-7.5 7.5s3.357 7.5 7.5 7.5h22.513c4.27 0 7.742 3.473 7.742 7.742v45.625c0 4.269-3.473 7.742-7.742 7.742h-80.025c-4.27 0-7.742-3.473-7.742-7.742v-45.625c0-4.269 3.473-7.742 7.742-7.742h22.513c4.143 0 7.5-3.358 7.5-7.5s-3.357-7.5-7.5-7.5h-22.513c-12.54 0-22.742 10.202-22.742 22.742v45.625c0 2.717.481 5.324 1.359 7.742h-52.021c-19.874 0-36.042 16.168-36.042 36.042v39.741 41.398c0 14.348 8.429 26.761 20.594 32.557v60.708h-79.514c-8.452 0-15.08 7.347-14.165 15.784 1.109 10.23 19.9 183.585 21.349 196.949.785 7.248 6.875 12.713 14.165 12.713h94.034 206.413c19.874 0 36.042-16.168 36.042-36.042v-23.07c0-4.142-3.357-7.5-7.5-7.5s-7.5 3.358-7.5 7.5v23.07c0 11.603-9.439 21.042-21.042 21.042h-192c.285-2.631 13.187-121.651 13.357-123.223h178.643c11.279 0 21.042 9.189 21.042 21.042v23.069c0 4.142 3.357 7.5 7.5 7.5s7.5-3.358 7.5-7.5v-23.069c0-14.347-8.429-26.76-20.593-32.556v-48.599zm-263.325-113.695c0-11.603 9.439-21.042 21.042-21.042h226.834c11.603 0 21.042 9.439 21.042 21.042v36.03c-4.26 2.865-9.288 4.438-14.477 4.438-6.833 0-13.284-2.634-18.164-7.416-6.522-6.393-17.138-6.393-23.662-.001-4.881 4.783-11.332 7.417-18.165 7.417s-13.284-2.634-18.165-7.416c-6.522-6.391-17.137-6.393-23.661 0-4.881 4.783-11.332 7.417-18.165 7.417s-13.284-2.634-18.164-7.416c-6.522-6.393-17.138-6.393-23.662-.001-4.881 4.783-11.332 7.417-18.165 7.417s-13.284-2.634-18.165-7.416c-6.522-6.391-17.137-6.393-23.661 0-4.881 4.783-11.332 7.417-18.165 7.417-5.189 0-10.217-1.572-14.477-4.438zm40.788 384.85h-92.685l-2.711-25.015h98.107zm4.337-40.015h-101.359l-9.26-85.431c10.764-.013 20.923-4.167 28.611-11.702.734-.72 1.932-.72 2.666 0 15.928 15.61 41.391 15.616 57.325 0 .734-.72 1.932-.72 2.666 0 7.688 7.534 17.848 11.689 28.611 11.702zm10.893-100.48c-7.388.446-14.478-2.205-19.746-7.366-6.525-6.392-17.139-6.391-23.662 0-10.096 9.892-26.23 9.897-36.329 0-6.523-6.392-17.139-6.393-23.662 0-5.265 5.159-12.355 7.812-19.745 7.366l-5.957-54.95h86.176 48.881zm192.307 2.275c-.149-.002-.3-.003-.449-.003h-177.017c.717-6.613.289-2.67 4.078-37.613h173.388zm0-52.616h-171.763l.415-3.826c.911-8.404-5.679-15.784-14.166-15.784h-42.218v-57.226c.262.003 227.3.006 227.731 0v76.836zm-.449-91.833h-226.834c-11.398 0-21.042-9.298-21.042-21.042v-28.313c4.589 1.733 9.489 2.642 14.477 2.642 10.781 0 20.961-4.156 28.663-11.702.734-.721 1.931-.72 2.665 0 7.702 7.546 17.882 11.702 28.663 11.702s20.961-4.156 28.663-11.702c.734-.719 1.921-.742 2.665 0 7.633 7.616 17.882 11.702 28.663 11.702s20.961-4.156 28.663-11.702c.734-.721 1.931-.72 2.665 0 7.702 7.546 17.882 11.702 28.663 11.702s20.961-4.156 28.663-11.702c.733-.719 1.93-.721 2.665 0 7.702 7.546 17.882 11.702 28.663 11.702 4.987 0 9.888-.908 14.477-2.642v28.313c0 11.791-9.695 21.042-21.042 21.042z"/></g></svg>