<svg id="Layer_1" enable-background="new 0 0 512.002 512.002" height="512" viewBox="0 0 512.002 512.002" width="512" xmlns="http://www.w3.org/2000/svg"><g><g><path d="m114.401 62.394v-34.607c0-.286.023-.567.046-.848h-40.5v36.303h40.5c-.023-.28-.046-.561-.046-.848z" fill="#fbc700"/><path d="m270.859 26.956c.02.275.042.551.042.831v34.607c0 .298-.022.59-.045.881 30.551.705 56.192 25.759 56.192 56.477v47.38c4.844-4.26 11.194-6.85 18.152-6.85s13.308 2.589 18.152 6.85v-47.38c0-50.736-41.922-92.087-92.493-92.796z" fill="#ffd500"/><g><path d="m349.6 119.753c0-25.296-17.388-46.752-40.588-53.931-9.251-2.863-15.555-11.412-15.557-21.096-.001-3.953-.002-8.781-.002-14.67-7.246-1.917-14.817-2.991-22.593-3.1.02.275.042.551.042.831v34.607c0 .298-.022.59-.045.881 30.551.705 56.192 25.759 56.192 56.477v47.38c4.844-4.26 11.194-6.85 18.152-6.85 1.499 0 2.967.127 4.4.358v-40.887z" fill="#fbc700"/></g><g><path d="m345.201 203.439c9.494 0 18.709 1.197 27.503 3.445v-21.097c0-15.19-12.314-27.504-27.504-27.504s-27.504 12.314-27.504 27.504v21.098c8.795-2.248 18.01-3.446 27.505-3.446z" fill="#dbedff"/></g><g><path d="m350.526 185.787c0-9.037 4.359-17.055 11.089-22.069-4.582-3.414-10.262-5.435-16.415-5.435-15.19 0-27.504 12.314-27.504 27.504v21.098c8.794-2.248 18.009-3.445 27.505-3.445 1.786 0 3.56.056 5.325.14z" fill="#b5dcff"/></g><path d="m69.066 7.341h-23.118c-3.641 0-6.592 2.952-6.592 6.592v62.986c0 3.641 2.952 6.592 6.592 6.592h23.119c3.641 0 6.592-2.952 6.592-6.592v-62.985c0-3.641-2.952-6.593-6.593-6.593z" fill="#ffe559"/><path d="m57.507 76.919v-62.985c0-3.641 2.952-6.592 6.592-6.592h-18.151c-3.641 0-6.593 2.952-6.593 6.592v62.986c0 3.641 2.952 6.593 6.593 6.593h18.152c-3.642-.001-6.593-2.953-6.593-6.594z" fill="#ffd500"/><path d="m260.759 16.645h-136.639c-6.153 0-11.142 4.988-11.142 11.142v34.607c0 6.153 4.988 11.142 11.142 11.142h136.639c6.154 0 11.142-4.988 11.142-11.142v-34.607c0-6.153-4.988-11.142-11.142-11.142z" fill="#dbedff"/><path d="m165.558 62.394v-34.607c0-6.154 4.989-11.142 11.142-11.142h-52.58c-6.154 0-11.142 4.988-11.142 11.142v34.607c0 6.153 4.988 11.142 11.142 11.142h52.58c-6.153 0-11.142-4.988-11.142-11.142z" fill="#b5dcff"/><path d="m345.201 200.439c-61.152 0-110.726 50.573-110.726 111.726h221.451c0-61.152-49.573-111.726-110.725-111.726z" fill="#b5dcff"/><path d="m371.491 203.648c-8.428-2.09-17.23-3.208-26.29-3.208-61.152 0-110.726 50.573-110.726 111.726h52.58c0-52.093 35.976-96.501 84.436-108.518z" fill="#8bcaff"/><g><path d="m234.475 347.847v14.232c0 12.015 9.83 21.845 21.845 21.845h177.761c12.015 0 21.845-9.83 21.845-21.845v-14.232z" fill="#b5dcff"/></g><path d="m287.055 362.078v-14.232h-52.58v14.232c0 12.015 9.83 21.845 21.845 21.845h52.58c-12.015 0-21.845-9.83-21.845-21.845z" fill="#8bcaff"/><path d="m462.91 311.165h-235.418c-5.165 0-9.353 4.188-9.353 9.353v20.975c0 5.166 4.188 9.353 9.353 9.353h235.418c5.165 0 9.353-4.188 9.353-9.353v-20.975c0-5.165-4.188-9.353-9.353-9.353z" fill="#dbedff"/><path d="m270.718 341.494v-20.975c0-5.166 4.188-9.353 9.353-9.353h-52.58c-5.165 0-9.353 4.188-9.353 9.353v20.975c0 5.166 4.188 9.353 9.353 9.353h52.58c-5.165 0-9.353-4.188-9.353-9.353z" fill="#b5dcff"/></g><g><path d="m46.139 91.17h23.119c7.771 0 14.093-6.322 14.093-14.092v-6.177h24.316c3.069 6.094 9.368 10.294 16.645 10.294h50.819c4.143 0 7.5-3.358 7.5-7.5s-3.357-7.5-7.5-7.5h-50.819c-1.989 0-3.605-1.604-3.636-3.586-.002-.026-.005-.052-.006-.078v-34.551c.001-.036.005-.073.007-.109.041-1.973 1.652-3.568 3.634-3.568h136.64c2.008 0 3.642 1.634 3.642 3.642v34.588c0 .019-.003.037-.004.056-.02 1.991-1.643 3.605-3.638 3.605h-50.82c-4.143 0-7.5 3.358-7.5 7.5s3.357 7.5 7.5 7.5h50.82c7.086 0 13.259-3.975 16.412-9.812 23.816 3.282 42.377 23.987 42.377 48.528v42.251c-5.798 6.249-9.353 14.607-9.353 23.784v12.443c-45.869 14.247-79.854 55.729-82.977 105.449-9.166.148-16.581 7.638-16.581 16.839v20.976c0 9.119 7.284 16.551 16.337 16.827v3.758c0 16.181 13.164 29.345 29.345 29.345h177.762c16.181 0 29.345-13.164 29.345-29.345v-3.758c9.053-.276 16.336-7.708 16.336-16.827v-20.976c0-9.201-7.414-16.691-16.58-16.839-3.123-49.72-37.109-91.203-82.979-105.45v-12.442c0-9.176-3.554-17.534-9.352-23.783v-30.96c0-4.142-3.357-7.5-7.5-7.5s-7.5 3.358-7.5 7.5v21.399c-7.312-2.35-15.135-2.056-21.304 0v-32.691c0-32.4-24.113-59.087-55.147-63.382v-21.461c34.863 3.656 64.537 28.685 73.625 63.054 1.061 4.005 5.171 6.391 9.168 5.333 4.005-1.059 6.393-5.164 5.334-9.168-10.982-41.529-47.533-71.44-89.994-74.417-3.017-6.24-9.392-10.565-16.775-10.565h-136.64c-7.276 0-13.575 4.2-16.645 10.294h-24.314v-5.505c0-7.771-6.322-14.093-14.093-14.093h-23.119c-7.771 0-14.092 6.322-14.092 14.092v62.986c0 7.771 6.322 14.092 14.092 14.092zm402.48 271.067c0 7.91-6.435 14.345-14.345 14.345h-177.762c-7.91 0-14.345-6.435-14.345-14.345v-3.731h206.451v3.731zm14.483-43.413c1.021 0 1.853.831 1.853 1.853v20.976c0 1.022-.831 1.853-1.853 1.853-11.383 0-224.129 0-235.418 0-1.022 0-1.854-.831-1.854-1.853v-20.976c0-1.022.831-1.853 1.854-1.853zm-137.714-132.878c0-11.19 9.19-20.004 20.004-20.004 11.065 0 20.004 9.036 20.004 20.004v8.841c-12.614-2.148-26.392-2.324-40.008 0zm4.133 23.377c60.169-9.225 114.532 34.964 118.828 94.501h-205.912c3.442-47.7 39.638-87.13 87.084-94.501zm-246.17-174.725h22.319v21.304h-22.319zm-36.304-19.598h21.304v61.17h-21.304z"/><path d="m253.276 430.849c4.143 0 7.5-3.358 7.5-7.5v-13.105c0-4.142-3.357-7.5-7.5-7.5s-7.5 3.358-7.5 7.5v13.105c0 4.142 3.357 7.5 7.5 7.5z"/><path d="m245.776 463.925c0 4.142 3.357 7.5 7.5 7.5s7.5-3.358 7.5-7.5v-13.105c0-4.142-3.357-7.5-7.5-7.5s-7.5 3.358-7.5 7.5z"/><path d="m245.776 504.502c0 4.142 3.357 7.5 7.5 7.5s7.5-3.358 7.5-7.5v-13.105c0-4.142-3.357-7.5-7.5-7.5s-7.5 3.358-7.5 7.5z"/><path d="m290.123 430.849c4.143 0 7.5-3.358 7.5-7.5v-13.105c0-4.142-3.357-7.5-7.5-7.5s-7.5 3.358-7.5 7.5v13.105c0 4.142 3.357 7.5 7.5 7.5z"/><path d="m282.623 463.925c0 4.142 3.357 7.5 7.5 7.5s7.5-3.358 7.5-7.5v-13.105c0-4.142-3.357-7.5-7.5-7.5s-7.5 3.358-7.5 7.5z"/><path d="m282.623 504.502c0 4.142 3.357 7.5 7.5 7.5s7.5-3.358 7.5-7.5v-13.105c0-4.142-3.357-7.5-7.5-7.5s-7.5 3.358-7.5 7.5z"/><path d="m326.969 430.849c4.143 0 7.5-3.358 7.5-7.5v-13.105c0-4.142-3.357-7.5-7.5-7.5s-7.5 3.358-7.5 7.5v13.105c0 4.142 3.358 7.5 7.5 7.5z"/><path d="m319.469 463.925c0 4.142 3.357 7.5 7.5 7.5s7.5-3.358 7.5-7.5v-13.105c0-4.142-3.357-7.5-7.5-7.5s-7.5 3.358-7.5 7.5z"/><path d="m319.469 504.502c0 4.142 3.357 7.5 7.5 7.5s7.5-3.358 7.5-7.5v-13.105c0-4.142-3.357-7.5-7.5-7.5s-7.5 3.358-7.5 7.5z"/><path d="m363.816 430.849c4.143 0 7.5-3.358 7.5-7.5v-13.105c0-4.142-3.357-7.5-7.5-7.5s-7.5 3.358-7.5 7.5v13.105c0 4.142 3.357 7.5 7.5 7.5z"/><path d="m356.316 463.925c0 4.142 3.357 7.5 7.5 7.5s7.5-3.358 7.5-7.5v-13.105c0-4.142-3.357-7.5-7.5-7.5s-7.5 3.358-7.5 7.5z"/><path d="m356.316 504.502c0 4.142 3.357 7.5 7.5 7.5s7.5-3.358 7.5-7.5v-13.105c0-4.142-3.357-7.5-7.5-7.5s-7.5 3.358-7.5 7.5z"/><path d="m400.663 430.849c4.143 0 7.5-3.358 7.5-7.5v-13.105c0-4.142-3.357-7.5-7.5-7.5s-7.5 3.358-7.5 7.5v13.105c0 4.142 3.357 7.5 7.5 7.5z"/><path d="m393.163 463.925c0 4.142 3.357 7.5 7.5 7.5s7.5-3.358 7.5-7.5v-13.105c0-4.142-3.357-7.5-7.5-7.5s-7.5 3.358-7.5 7.5z"/><path d="m393.163 504.502c0 4.142 3.357 7.5 7.5 7.5s7.5-3.358 7.5-7.5v-13.105c0-4.142-3.357-7.5-7.5-7.5s-7.5 3.358-7.5 7.5z"/><path d="m437.509 430.849c4.143 0 7.5-3.358 7.5-7.5v-13.105c0-4.142-3.357-7.5-7.5-7.5s-7.5 3.358-7.5 7.5v13.105c0 4.142 3.358 7.5 7.5 7.5z"/><path d="m430.009 463.925c0 4.142 3.357 7.5 7.5 7.5s7.5-3.358 7.5-7.5v-13.105c0-4.142-3.357-7.5-7.5-7.5s-7.5 3.358-7.5 7.5z"/><path d="m430.009 504.502c0 4.142 3.357 7.5 7.5 7.5s7.5-3.358 7.5-7.5v-13.105c0-4.142-3.357-7.5-7.5-7.5s-7.5 3.358-7.5 7.5z"/></g></g></svg>