<svg id="Capa_1" enable-background="new 0 0 512 512" height="512" viewBox="0 0 512 512" width="512" xmlns="http://www.w3.org/2000/svg"><g><g><ellipse cx="266.827" cy="136.558" fill="#dae4ea" rx="73.256" ry="129.058"/></g><g><path d="m211.025 7.5c-40.458 0-73.256 57.781-73.256 129.058s32.798 129.058 73.256 129.058h55.802c-40.458 0-73.256-57.781-73.256-129.058s32.797-129.058 73.256-129.058z" fill="#bc95e2"/></g><g><path d="m137.769 136.558c0-71.277 32.798-129.058 73.256-129.058h-73.256c-71.277 0-129.058 57.781-129.058 129.058 0 48.41 26.654 90.594 66.086 112.679 5.622 3.148 9.084 9.105 9.084 15.549v117.932h108.406v-99.238c0-9.866 7.998-17.864 17.864-17.864h.873c-40.457 0-73.255-57.781-73.255-129.058z" fill="#8659b9"/></g><g><path d="m181.296 422.106h-86.423c-6.07 0-10.992-4.921-10.992-10.992v-28.397h108.406v28.397c.001 6.071-4.92 10.992-10.991 10.992z" fill="#bc95e2"/></g><g><path d="m152.288 391.114c0 6.07-4.921 10.992-10.992 10.992h-57.414v9.009c0 6.07 4.921 10.992 10.992 10.992h86.423c6.07 0 10.992-4.921 10.992-10.992v-28.397h-40v8.396z" fill="#ac80dd"/></g><g><path d="m171.831 245.61c-.268.004-.537.006-.806.006-.317 0-.633-.003-.949-.011.316.007.632.011.949.011h-.873c-9.866 0-17.864 7.998-17.864 17.864v119.237h40v-99.237c0-9.866 7.998-17.864 17.864-17.864h.873c-14.416 0-27.86-7.337-39.194-20.006z" fill="#734a9b"/></g><g><path d="m213.816 225.632c-10.076 12.025-25.126 19.74-41.985 19.978 11.334 12.669 24.777 20.006 39.194 20.006h55.802c-20.853 0-39.67-15.349-53.011-39.984z" fill="#ac80dd"/></g><g><path d="m177.768 504.5h-81.441c-1.949 0-3.528-1.58-3.528-3.528v-78.866h88.498v78.866c-.001 1.948-1.58 3.528-3.529 3.528z" fill="#dae4ea"/></g><g><path d="m390.749 59.047h-12.79c-7.111 0-12.875-5.765-12.875-12.875 0-7.111 5.764-12.875 12.875-12.875h12.79c7.111 0 12.875 5.765 12.875 12.875 0 7.111-5.764 12.875-12.875 12.875z" fill="#b1e4f9"/></g><g><path d="m390.749 149.433h-12.79c-7.111 0-12.875-5.764-12.875-12.875 0-7.111 5.764-12.875 12.875-12.875h12.79c7.111 0 12.875 5.765 12.875 12.875 0 7.111-5.764 12.875-12.875 12.875z" fill="#b1e4f9"/></g><g><path d="m390.749 239.82h-12.79c-7.111 0-12.875-5.765-12.875-12.875 0-7.111 5.764-12.875 12.875-12.875h12.79c7.111 0 12.875 5.765 12.875 12.875 0 7.11-5.764 12.875-12.875 12.875z" fill="#b1e4f9"/></g><g><path d="m440.582 104.24h-12.79c-7.111 0-12.875-5.765-12.875-12.875 0-7.111 5.764-12.875 12.875-12.875h12.79c7.111 0 12.875 5.765 12.875 12.875 0 7.111-5.765 12.875-12.875 12.875z" fill="#b1e4f9"/></g><g><path d="m440.582 194.627h-12.79c-7.111 0-12.875-5.765-12.875-12.875 0-7.111 5.764-12.875 12.875-12.875h12.79c7.111 0 12.875 5.765 12.875 12.875 0 7.11-5.765 12.875-12.875 12.875z" fill="#b1e4f9"/></g><g><path d="m490.414 59.047h-12.79c-7.111 0-12.875-5.765-12.875-12.875 0-7.111 5.765-12.875 12.875-12.875h12.79c7.111 0 12.875 5.765 12.875 12.875.001 7.111-5.764 12.875-12.875 12.875z" fill="#b1e4f9"/></g><g><path d="m490.414 149.433h-12.79c-7.111 0-12.875-5.764-12.875-12.875 0-7.111 5.765-12.875 12.875-12.875h12.79c7.111 0 12.875 5.765 12.875 12.875.001 7.111-5.764 12.875-12.875 12.875z" fill="#b1e4f9"/></g><g><path d="m490.414 239.82h-12.79c-7.111 0-12.875-5.765-12.875-12.875 0-7.111 5.765-12.875 12.875-12.875h12.79c7.111 0 12.875 5.765 12.875 12.875.001 7.11-5.764 12.875-12.875 12.875z" fill="#b1e4f9"/></g><path d="m330.218 201.785c3.98 1.138 8.135-1.165 9.274-5.147 13.872-48.48 10.398-111.455-14.343-155.04-15.226-26.825-35.939-41.598-58.323-41.598h-129.057c-75.299 0-136.558 61.26-136.558 136.558 0 49.384 26.792 95.067 69.921 119.222 3.238 1.813 5.25 5.264 5.25 9.005v50.193c0 4.142 3.358 7.5 7.5 7.5s7.5-3.358 7.5-7.5v-50.193c0-9.164-4.951-17.629-12.919-22.092-38.398-21.505-62.251-62.174-62.251-106.136-.001-67.026 54.529-121.557 121.557-121.557h36.065c-3 2.601-5.909 5.529-8.71 8.777-2.705 3.137-2.355 7.873.781 10.578 3.138 2.706 7.873 2.355 10.578-.781 7.308-8.473 19.233-18.574 34.542-18.574h18.56c-48.012 41.695-58.166 151.183-21.081 216.518 6.203 10.927 13.316 19.854 21.081 26.598h-18.56c-16.751 0-32.832-12.076-45.278-34.002-25.079-44.185-26.983-113.562-6.555-161.764 1.617-3.814-.165-8.216-3.979-9.832-3.814-1.615-8.216.165-9.832 3.979-21.909 51.694-20.43 126.131 7.32 175.022 6.202 10.927 13.316 19.854 21.081 26.598h-36.015c-4.142 0-7.5 3.358-7.5 7.5s3.358 7.5 7.5 7.5h49.234c-1.423 3.166-2.215 6.674-2.215 10.364v91.737h-93.404v-25.24c0-4.142-3.358-7.5-7.5-7.5s-7.5 3.358-7.5 7.5v61.136c0 6.694 3.576 12.569 8.917 15.815v74.043c0 6.081 4.947 11.028 11.028 11.028h81.441c6.081 0 11.028-4.947 11.028-11.028v-72.956c6.47-2.882 10.991-9.374 10.991-16.901v-127.635c0-5.715 4.649-10.364 10.364-10.364h56.674c22.615 0 43.477-15.037 58.742-42.342 2.021-3.615.729-8.185-2.887-10.206-3.614-2.02-8.185-.73-10.207 2.887-25.74 46.044-65.095 46.164-90.926.659-27.332-48.153-27.327-126.966 0-175.111 25.713-45.298 64.8-45.374 90.556 0 22.846 40.247 25.656 99.168 12.966 143.508-1.138 3.982 1.167 8.134 5.149 9.274zm-145.43 188.433v20.896c0 1.925-1.566 3.492-3.491 3.492h-86.424c-1.925 0-3.492-1.566-3.492-3.492v-20.896zm-84.489 67.129h73.498v11.912h-73.498zm73.498-15h-73.498v-12.741h73.498zm-73.498 54.653v-12.741h73.498v12.741z"/><circle cx="266.827" cy="53.296" r="7.5"/><circle cx="266.827" cy="94.927" r="7.5"/><circle cx="266.827" cy="178.189" r="7.5"/><circle cx="237.389" cy="107.121" r="7.5"/><circle cx="296.264" cy="165.996" r="7.5"/><circle cx="296.264" cy="107.121" r="7.5"/><circle cx="237.389" cy="165.996" r="7.5"/><circle cx="266.827" cy="219.82" r="7.5"/><circle cx="237.354" cy="199.647" r="7.5"/><circle cx="296.3" cy="199.647" r="7.5"/><circle cx="237.354" cy="73.469" r="7.5"/><circle cx="296.3" cy="73.469" r="7.5"/><circle cx="308.458" cy="136.558" r="7.5"/><circle cx="266.827" cy="136.558" r="7.5"/><circle cx="225.196" cy="136.558" r="7.5"/><path d="m390.749 25.796h-12.791c-11.234 0-20.375 9.141-20.375 20.375s9.141 20.375 20.375 20.375h12.791c11.234 0 20.375-9.14 20.375-20.375s-9.14-20.375-20.375-20.375zm0 25.751h-12.791c-2.964 0-5.375-2.411-5.375-5.375s2.411-5.375 5.375-5.375h12.791c2.964 0 5.375 2.412 5.375 5.375s-2.411 5.375-5.375 5.375z"/><path d="m377.958 156.934h12.791c11.234 0 20.375-9.141 20.375-20.375s-9.141-20.375-20.375-20.375h-12.791c-11.234 0-20.375 9.141-20.375 20.375s9.141 20.375 20.375 20.375zm0-25.751h12.791c2.964 0 5.375 2.412 5.375 5.375s-2.411 5.375-5.375 5.375h-12.791c-2.964 0-5.375-2.412-5.375-5.375s2.411-5.375 5.375-5.375z"/><path d="m377.958 247.32h12.791c11.234 0 20.375-9.141 20.375-20.375s-9.141-20.375-20.375-20.375h-12.791c-11.234 0-20.375 9.141-20.375 20.375s9.141 20.375 20.375 20.375zm0-25.751h12.791c2.964 0 5.375 2.412 5.375 5.375s-2.411 5.375-5.375 5.375h-12.791c-2.964 0-5.375-2.412-5.375-5.375s2.411-5.375 5.375-5.375z"/><path d="m440.581 70.989h-12.79c-11.235 0-20.376 9.141-20.376 20.375s9.141 20.375 20.376 20.375h12.79c11.235 0 20.376-9.141 20.376-20.375s-9.14-20.375-20.376-20.375zm0 25.751h-12.79c-2.964 0-5.376-2.412-5.376-5.375s2.412-5.375 5.376-5.375h12.79c2.964 0 5.376 2.412 5.376 5.375s-2.412 5.375-5.376 5.375z"/><path d="m440.581 161.376h-12.79c-11.235 0-20.376 9.141-20.376 20.375s9.141 20.375 20.376 20.375h12.79c11.235 0 20.376-9.14 20.376-20.375s-9.14-20.375-20.376-20.375zm0 25.75h-12.79c-2.964 0-5.376-2.411-5.376-5.375s2.412-5.375 5.376-5.375h12.79c2.964 0 5.376 2.412 5.376 5.375s-2.412 5.375-5.376 5.375z"/><path d="m490.414 25.796h-12.79c-11.235 0-20.376 9.141-20.376 20.375s9.141 20.375 20.376 20.375h12.79c11.234 0 20.375-9.14 20.375-20.375s-9.14-20.375-20.375-20.375zm0 25.751h-12.79c-2.964 0-5.376-2.411-5.376-5.375s2.412-5.375 5.376-5.375h12.79c2.964 0 5.375 2.412 5.375 5.375s-2.411 5.375-5.375 5.375z"/><path d="m490.414 116.183h-12.79c-11.235 0-20.376 9.141-20.376 20.375s9.141 20.375 20.376 20.375h12.79c11.234 0 20.375-9.141 20.375-20.375s-9.14-20.375-20.375-20.375zm0 25.751h-12.79c-2.964 0-5.376-2.412-5.376-5.375s2.412-5.375 5.376-5.375h12.79c2.964 0 5.375 2.412 5.375 5.375s-2.411 5.375-5.375 5.375z"/><path d="m477.624 247.32h12.79c11.234 0 20.375-9.141 20.375-20.375s-9.141-20.375-20.375-20.375h-12.79c-11.235 0-20.376 9.141-20.376 20.375s9.141 20.375 20.376 20.375zm0-25.751h12.79c2.964 0 5.375 2.412 5.375 5.375s-2.411 5.375-5.375 5.375h-12.79c-2.964 0-5.376-2.412-5.376-5.375s2.412-5.375 5.376-5.375z"/></g></svg>