<svg id="Layer_1" enable-background="new 0 0 512.002 512.002" height="512" viewBox="0 0 512.002 512.002" width="512" xmlns="http://www.w3.org/2000/svg"><g><g><g><path d="m187.613 43.937h34.689v32.153h-34.689z" fill="#8bcaff"/></g><path d="m231.361 394.176v103.094c0 3.906 3.167 7.073 7.073 7.073h34.748c3.907 0 7.073-3.167 7.073-7.073v-103.094z" fill="#b5dcff"/><path d="m259.3 497.27v-103.094h-27.938v103.094c0 3.906 3.167 7.073 7.073 7.073h27.938c-3.907 0-7.073-3.166-7.073-7.073z" fill="#8bcaff"/><path d="m205.871 361.754v12.565c0 12.572 10.286 22.857 22.857 22.857h54.162c12.571 0 22.857-10.286 22.857-22.857v-12.565z" fill="#dbedff"/><path d="m255.809 374.318v-12.565h-49.938v12.565c0 12.572 10.286 22.857 22.857 22.857h49.938c-12.571.001-22.857-10.285-22.857-22.857z" fill="#b5dcff"/><g><path d="m76.461 231.614v55.708c0 42.587 34.845 77.432 77.432 77.432h203.831c42.588 0 77.432-34.845 77.432-77.432v-55.708z" fill="#b5dcff"/></g><path d="m126.399 287.322v-55.708h-49.938v55.708c0 42.587 34.844 77.432 77.432 77.432h49.938c-42.587 0-77.432-34.845-77.432-77.432z" fill="#8bcaff"/><g><path d="m368.714 204.282v-59.142c0-13.233-10.727-23.96-23.96-23.96h-22.855c-13.233 0-23.96 10.727-23.96 23.96v59.141h70.775z" fill="#ff636e"/></g><path d="m351.021 122.014c-1.998-.54-4.098-.833-6.267-.833h-22.854c-13.233 0-23.96 10.727-23.96 23.96v59.141h35.388v-59.142c-.001-11.064 7.5-20.371 17.693-23.126z" fill="#ff4654"/><g><path d="m170.857 122.783c0-8.821 7.176-15.998 15.998-15.998h36.204c8.822 0 15.998 7.177 15.998 15.998v81.499h32.694v-81.499c0-26.849-21.843-48.693-48.693-48.693h-36.204c-26.849 0-48.693 21.844-48.693 48.693v16.063h32.694v-16.063z" fill="#ffd500"/></g><g><path d="m224.082 74.116c-.341-.007-.68-.026-1.023-.026h-36.205c-26.849 0-48.692 21.844-48.692 48.693v16.063h32.694v-16.063c0-5.689 2.994-10.68 7.479-13.517 5.785-19.978 24.038-34.699 45.747-35.15z" fill="#fbc700"/></g><path d="m172.943 135.846h-36.691c-3.21 0-5.812 2.603-5.812 5.813v18.89c0 3.21 2.602 5.812 5.812 5.812h36.691c3.21 0 5.812-2.602 5.812-5.812v-18.89c0-3.21-2.602-5.813-5.812-5.813z" fill="#ffe559"/><path d="m223.361 7.341h-36.806c-7.193 0-13.078 5.885-13.078 13.078v12.44c0 7.193 5.885 13.078 13.078 13.078h36.806c7.193 0 13.078-5.885 13.078-13.078v-12.44c-.001-7.193-5.886-13.078-13.078-13.078z" fill="#dbedff"/><path d="m204.957 32.859v-12.44c0-7.193 5.885-13.078 13.078-13.078h-31.481c-7.193 0-13.078 5.885-13.078 13.078v12.44c0 7.193 5.885 13.078 13.078 13.078h31.481c-7.192 0-13.078-5.885-13.078-13.078z" fill="#b5dcff"/><path d="m439.809 201.282h-368c-6.621 0-11.988 5.367-11.988 11.988v9.357c0 6.62 5.367 11.988 11.988 11.988h368c6.621 0 11.988-5.368 11.988-11.988v-9.357c0-6.621-5.367-11.988-11.988-11.988z" fill="#dbedff"/><path d="m109.759 222.626v-9.357c0-6.621 5.367-11.988 11.988-11.988h-49.938c-6.621 0-11.988 5.367-11.988 11.988v9.357c0 6.62 5.367 11.988 11.988 11.988h49.938c-6.621 0-11.988-5.368-11.988-11.988z" fill="#b5dcff"/></g><path d="m459.489 213.428c0-10.746-8.742-19.488-19.488-19.488h-63.595v-48.642c0-17.347-14.113-31.46-31.46-31.46h-3.928v-13.063h6.396c4.143 0 7.5-3.358 7.5-7.5s-3.357-7.5-7.5-7.5h-6.505c-.589-3.554-3.669-6.267-7.39-6.267s-6.801 2.713-7.39 6.267h-6.504c-4.143 0-7.5 3.358-7.5 7.5s3.357 7.5 7.5 7.5h6.395v13.063h-3.927c-17.348 0-31.461 14.113-31.461 31.46v48.642h-11.187v-32.832c0-4.142-3.357-7.5-7.5-7.5s-7.5 3.358-7.5 7.5v32.832h-17.695v-70.999c0-12.957-10.541-23.498-23.498-23.498h-36.205c-12.957 0-23.498 10.541-23.498 23.498v5.563h-17.694v-5.563c0-22.713 18.479-41.192 41.192-41.192h36.205c22.714 0 41.192 18.479 41.192 41.192v3.167c0 4.142 3.357 7.5 7.5 7.5s7.5-3.358 7.5-7.5v-3.167c0-28.701-21.635-52.43-49.45-55.774v-14.62c8.198-2.711 14.137-10.435 14.137-19.53v-12.44c0-11.346-9.232-20.577-20.578-20.577h-36.807c-11.347 0-20.577 9.231-20.577 20.578v12.44c0 9.096 5.938 16.819 14.136 19.53v14.62c-27.815 3.343-49.45 27.072-49.45 55.774v6.811c-4.552 2.118-7.723 6.723-7.723 12.065v18.89c0 7.34 5.972 13.312 13.313 13.312h36.69c7.341 0 13.313-5.972 13.313-13.312v-18.89c0-5.412-3.251-10.071-7.898-12.15v-6.726c0-4.686 3.813-8.498 8.498-8.498h36.205c4.686 0 8.498 3.812 8.498 8.498v70.999h-159.75c-10.746 0-19.488 8.742-19.488 19.488v9.356c0 9.776 7.243 17.871 16.641 19.256v45.44c0 46.832 38.101 84.932 84.933 84.932h44.477v2.064c0 15.083 11.058 27.626 25.491 29.962v92.989c0 8.036 6.537 14.573 14.573 14.573h34.748c8.036 0 14.573-6.538 14.573-14.573v-29.011c0-4.142-3.357-7.5-7.5-7.5s-7.5 3.358-7.5 7.5v28.584h-33.895v-92.167h33.895v28.583c0 4.142 3.357 7.5 7.5 7.5s7.5-3.358 7.5-7.5v-28.979c14.433-2.336 25.491-14.88 25.491-29.962v-2.064h44.478c46.832 0 84.933-38.101 84.933-84.932v-45.44c9.397-1.386 16.64-9.48 16.64-19.256v-9.356zm-244.495-146.679h-19.689v-13.154h19.689zm-33.825-46.171c0-3.076 2.502-5.578 5.577-5.578h36.807c3.076 0 5.578 2.502 5.578 5.578v12.44c0 3.076-2.502 5.578-5.578 5.578-13.014 0-23.986 0-36.807 0-3.075 0-5.577-2.502-5.577-5.578zm-9.722 138.442h-33.315v-15.515h.223 32.694.398zm134.184-13.721c0-9.076 7.385-16.46 16.461-16.46h22.854c9.076 0 16.46 7.384 16.46 16.46v48.642h-55.775zm-7.192 229.178c0 8.468-6.89 15.357-15.357 15.357-23.089 0-28.811 0-54.162 0-8.468 0-15.357-6.889-15.357-15.357v-2.064h84.877v2.064zm129.411-86.997c0 38.561-31.372 69.932-69.933 69.932-4.703 0-202.076 0-203.831 0-38.561 0-69.933-31.372-69.933-69.932v-45.208h343.697zm16.639-64.695c0 2.475-2.014 4.488-4.488 4.488-3.384 0-363.29 0-368 0-2.475 0-4.488-2.014-4.488-4.488v-9.356c0-2.475 2.014-4.488 4.488-4.488h368c2.475 0 4.488 2.013 4.488 4.488z"/></g></svg>