<svg id="Layer_1" enable-background="new 0 0 512.009 512.009" height="512" viewBox="0 0 512.009 512.009" width="512" xmlns="http://www.w3.org/2000/svg"><g><g><path d="m349.799 139.342-17.922-17.922c-1.437-1.437-2.513-3.099-3.259-4.877l-137.375 137.374 26.059 26.059 137.375-137.375c-1.778-.747-3.441-1.822-4.878-3.259z" fill="#dbedff"/><path d="m341.449 130.991-9.571-9.571c-1.437-1.437-2.513-3.099-3.259-4.878l-137.376 137.375 13.64 13.64z" fill="#b5dcff"/><path d="m459.235 29.906-17.922-17.922c-6.182-6.182-16.204-6.182-22.385 0l-89.451 89.451c-6.182 6.182-6.182 16.204 0 22.385l17.922 17.922c6.182 6.182 16.204 6.182 22.385 0l89.451-89.451c6.182-6.181 6.182-16.204 0-22.385z" fill="#ff636e"/><path d="m363.81 123.821c-6.182-6.182-6.182-16.204 0-22.385l83.477-83.477-5.974-5.974c-6.182-6.182-16.204-6.182-22.385 0l-89.451 89.451c-6.182 6.182-6.182 16.204 0 22.385l17.922 17.922c6.181 6.182 16.204 6.182 22.385 0l5.974-5.974z" fill="#ff4654"/><g><path d="m84.892 392.983c-1.267-.899-2.478-1.91-3.612-3.044-1.134-1.134-2.145-2.346-3.044-3.613l-43.247 26.505c-3.86 2.365-4.553 7.679-1.412 10.82l13.991 13.991c3.141 3.141 8.455 2.448 10.82-1.412z" fill="#8bcaff"/></g><g><path d="m126.241 452.76-13.84-56.435c-1.944.883-3.967 1.534-6.027 1.959l-13.317 54.463c-1.058 4.327 2.22 8.503 6.675 8.505l19.842.008c4.454.001 7.729-4.173 6.667-8.5z" fill="#8bcaff"/></g><g><path d="m74.914 358.879-56.462-13.889c-4.329-1.065-8.502 2.207-8.496 6.663l.024 19.848c.005 4.456 4.185 7.738 8.512 6.683l54.468-13.277c.422-2.061 1.072-4.084 1.954-6.028z" fill="#8bcaff"/></g><g fill="#8bcaff"><path d="m257.725 325.96-45.385-27.684-5.698 5.698 27.684 45.385c2.337 3.831 7.623 4.497 10.764 1.356l13.991-13.991c3.141-3.141 2.475-8.427-1.356-10.764z"/><path d="m218.383 365.302-45.385-27.684-5.698 5.698 27.684 45.385c2.337 3.831 7.623 4.497 10.764 1.356l13.991-13.991c3.141-3.141 2.475-8.427-1.356-10.764z"/><path d="m179.041 404.644-45.385-27.684-5.698 5.698 27.684 45.385c2.337 3.831 7.623 4.497 10.764 1.356l13.991-13.991c3.141-3.141 2.475-8.427-1.356-10.764z"/><path d="m145.228 213.463 27.497 45.199-5.698 5.698-45.199-27.497c-3.815-2.321-4.466-7.592-1.325-10.733l13.991-13.991c3.142-3.142 8.413-2.492 10.734 1.324z"/><path d="m105.886 252.805 27.497 45.199-5.698 5.698-45.199-27.497c-3.815-2.321-4.466-7.592-1.325-10.733l13.991-13.991c3.142-3.142 8.413-2.491 10.734 1.324z"/><path d="m66.544 292.147 27.497 45.199-5.698 5.698-45.199-27.497c-3.815-2.321-4.466-7.592-1.325-10.733l13.991-13.991c3.142-3.141 8.413-2.491 10.734 1.324z"/></g><path d="m489.811 465.705h-219.348c-6.564 0-11.884 5.321-11.884 11.884v14.877c0 6.564 5.321 11.884 11.884 11.884h219.348c6.564 0 11.884-5.321 11.884-11.884v-14.877c0-6.563-5.32-11.884-11.884-11.884z" fill="#dbedff"/><path d="m325.729 492.465v-14.877c0-6.563 5.321-11.884 11.884-11.884h-67.15c-6.564 0-11.885 5.321-11.885 11.884v14.877c0 6.564 5.321 11.884 11.885 11.884h67.15c-6.563.001-11.884-5.32-11.884-11.884z" fill="#b5dcff"/><path d="m461.362 320.505c-2.028-12.028-12.423-20.833-24.596-20.833-12 0-101.256 0-113.256 0-12.173 0-22.568 8.805-24.596 20.833l-28.45 145.557h219.348z" fill="#b5dcff"/><path d="m390.659 299.672c-28.413 0-60.315 0-67.15 0-12.173 0-22.568 8.805-24.596 20.833l-28.449 145.557h67.15l28.45-145.557c2.027-12.028 12.422-20.833 24.595-20.833z" fill="#8bcaff"/><path d="m216.735 272.406-17.922-17.922c-6.182-6.182-16.204-6.182-22.385 0l-95.953 95.953c-11.131 11.131-11.13 29.177 0 40.307 11.13 11.13 29.176 11.131 40.307 0l95.953-95.953c6.181-6.181 6.181-16.203 0-22.385z" fill="#60b9fe"/><path d="m114.621 390.744c-11.13-11.13-11.131-29.177 0-40.307l90.073-90.072-5.88-5.88c-6.181-6.182-16.204-6.182-22.385 0l-95.953 95.953c-11.131 11.131-11.13 29.177 0 40.307 10.155 10.155 26.063 11.04 37.226 2.666-1.073-.806-2.105-1.691-3.081-2.667z" fill="#1ca8ff"/></g><g><path d="m133.681 451.187-12.438-50.789c2.98-2.061 4.71-3.868 5.906-5.064l22.335 36.822c4.84 7.981 15.85 9.272 22.416 2.706l13.991-13.991c6.579-6.581 5.259-17.584-2.706-22.416l.001.001-36.822-22.336 20.127-20.128 22.336 36.823c4.834 7.971 15.841 9.278 22.415 2.704l13.991-13.991c6.582-6.584 5.253-17.589-2.705-22.414l-36.823-22.337 20.127-20.128 22.335 36.822c4.84 7.981 15.85 9.272 22.416 2.706l13.991-13.991c6.579-6.581 5.259-17.584-2.706-22.416l.001.001-37.113-22.512c3.659-5.132 5.051-11.475 3.924-17.705l125.9-125.899c7.38 1.335 15.097-.848 20.7-6.451l31.882-31.882c2.929-2.93 2.929-7.678 0-10.607-2.93-2.928-7.678-2.928-10.607 0l-31.882 31.882c-3.34 3.34-8.644 3.134-11.778 0l-17.922-17.922c-3.218-3.232-3.266-8.513 0-11.778l89.452-89.452c3.25-3.25 8.515-3.261 11.777.001l17.922 17.922c3.248 3.247 3.248 8.531 0 11.778l-32.797 32.797c-2.929 2.93-2.929 7.678 0 10.607 2.93 2.928 7.678 2.928 10.607 0l32.797-32.797c9.116-9.116 9.118-23.875 0-32.993l-17.922-17.921c-9.119-9.119-23.873-9.117-32.992 0l-89.452 89.451c-5.615 5.615-7.752 13.403-6.434 20.683l-125.932 125.932c-6.059-1.097-12.457.22-17.676 3.927l-22.525-37.134c-4.831-7.966-15.835-9.279-22.415-2.705l-13.991 13.992c-6.587 6.589-5.247 17.591 2.705 22.414l36.823 22.337-20.127 20.128-22.335-36.822c-4.841-7.983-15.854-9.268-22.416-2.706l-13.99 13.991c-6.583 6.581-5.257 17.588 2.704 22.415l36.822 22.336-20.128 20.127-22.336-36.823c-4.831-7.966-15.837-9.279-22.415-2.705l-13.992 13.993c-6.587 6.589-5.247 17.591 2.705 22.414l36.823 22.337c-1.12 1.12-2.961 2.869-5.056 5.908l-50.797-12.439c-9.04-2.208-17.762 4.623-17.762 13.938v19.787c0 9.302 8.707 16.149 17.762 13.938l44.667-10.938c.365 3.41 1.213 6.776 2.547 9.988l-36.428 22.097c-7.953 4.822-9.291 15.826-2.705 22.414l13.992 13.992c6.588 6.586 17.589 5.249 22.415-2.705l22.084-36.407c3.168 1.322 6.528 2.18 9.996 2.548l-10.934 44.647c-2.211 9.034 4.622 17.763 13.938 17.763h19.787c9.308-.002 16.154-8.72 13.94-17.765zm-116.061-80.403v-18.127l37.015 9.063zm34.857 61.128-12.818-12.818 32.583-19.766zm122.222-21.062-12.818 12.818-19.763-32.581zm39.341-39.341-12.817 12.818-19.765-32.583zm39.343-39.343-12.818 12.818-19.763-32.581zm72.216-201.648 15.452 15.452-120.055 120.057-15.452-15.452zm-199.014 100.487 12.818-12.818 19.765 32.583zm-39.341 39.342 12.818-12.818 19.763 32.581zm-39.343 39.342 12.818-12.818 19.765 32.583zm52.885 144.261 9.064-37.015 9.063 37.015zm14.884-68.351c-8.247 8.248-21.595 8.102-29.699 0-8.194-8.194-8.189-21.51 0-29.7l95.952-95.952c3.246-3.248 8.531-3.249 11.778 0l17.922 17.922.011.01c3.243 3.255 3.245 8.513-.011 11.767-10.514 10.514-83.633 83.634-95.953 95.953z"/><path d="m191.251 280.319c-2.93-2.928-7.678-2.928-10.607 0l-84.974 84.974c-2.929 2.93-2.929 7.678 0 10.607 2.931 2.929 7.678 2.928 10.607 0l84.974-84.974c2.929-2.929 2.929-7.677 0-10.607z"/><path d="m496.393 459.468-27.461-140.2c-2.689-15.614-16.12-26.937-31.975-26.937h-113.255c-15.854 0-29.285 11.322-31.975 26.937l-27.461 140.2c-7.554 2.649-12.995 9.833-12.995 18.28v14.876c0 10.688 8.696 19.385 19.385 19.385h92.174c4.143 0 7.5-3.357 7.5-7.5s-3.357-7.5-7.5-7.5h-92.174c-2.418 0-4.385-1.967-4.385-4.385v-14.876c0-2.418 1.967-4.385 4.385-4.385h219.348c2.418 0 4.385 1.967 4.385 4.385v14.876c0 2.418-1.967 4.385-4.385 4.385h-92.174c-4.143 0-7.5 3.357-7.5 7.5s3.357 7.5 7.5 7.5h92.174c10.688 0 19.385-8.696 19.385-19.385v-14.876c-.001-8.447-5.442-15.631-12.996-18.28zm-216.626-1.105 26.698-136.303c.013-.063.024-.128.035-.191 1.423-8.424 8.657-14.538 17.201-14.538h113.256c8.544 0 15.778 6.114 17.201 14.538.011.063.022.128.035.191l26.698 136.303z"/></g></g></svg>