<svg id="Layer_1" enable-background="new 0 0 512.002 512.002" height="512" viewBox="0 0 512.002 512.002" width="512" xmlns="http://www.w3.org/2000/svg"><g><g><path d="m129.911 61.406v171.017c0 17.608 11.827 32.444 27.967 37.025h195.862c16.14-4.581 27.967-19.417 27.967-37.025v-171.017z" fill="#b5dcff"/><path d="m171.125 232.423v-171.017h-41.215v171.017c0 17.608 11.827 32.444 27.967 37.025h41.215c-16.14-4.581-27.967-19.417-27.967-37.025z" fill="#8bcaff"/><path d="m265.686 7.341h-19.754c-6.763 0-12.297 5.534-12.297 12.297v17.221h44.348v-17.221c0-6.763-5.534-12.297-12.297-12.297z" fill="#b5dcff"/><path d="m268.309 7.632c-.847-.186-1.723-.291-2.623-.291h-19.754c-6.763 0-12.297 5.534-12.297 12.297v17.221h25v-17.221c0-5.863 4.161-10.795 9.674-12.006z" fill="#8bcaff"/><path d="m155.563 328.498c0 42.587 29.385 80.646 69.93 92.861h60.63c40.545-12.215 69.93-50.274 69.93-92.861z" fill="#b5dcff"/><path d="m206.897 328.498h-51.333c0 42.587 29.385 80.646 69.93 92.861h51.333c-40.545-12.215-69.93-50.274-69.93-92.861z" fill="#8bcaff"/><path d="m286.124 421.359h-60.63c-14.623 10.823-27.611 31.299-38.49 55.451.088-.002.174-.013.262-.013h137.086c.089 0 .174.011.262.013-10.879-24.152-23.867-44.628-38.49-55.451z" fill="#60b9fe"/><g><path d="m276.827 421.359h-51.333c-14.623 10.823-27.611 31.299-38.49 55.451.088-.002.174-.013.262-.013h51.077c10.878-24.146 23.864-44.617 38.484-55.438z" fill="#1ca8ff"/></g><g><path d="m349.979 301.951c2.483-11.335 3.817-24.31 3.817-36.695 0-71.121-43.87-128.776-97.987-128.776s-97.987 57.655-97.987 128.776c0 12.385 1.334 25.36 3.817 36.695z" fill="#8bcaff"/></g><path d="m272.559 138.361c-5.443-1.232-11.039-1.882-16.75-1.882-54.117 0-97.987 57.655-97.987 128.776 0 12.385 1.334 25.36 3.817 36.696h33.5c-2.483-11.335-3.817-24.31-3.817-36.696-.001-63.614 35.1-116.449 81.237-126.894z" fill="#60b9fe"/><g><path d="m322.652 301.951c2.727-10.669 4.226-23.103 4.226-34.932 0-55.206-32.545-101.846-71.069-101.846-38.523 0-71.069 46.64-71.069 101.846 0 11.83 1.498 24.264 4.226 34.932z" fill="#60b9fe"/></g><path d="m272.559 168.167c-5.392-1.949-11.004-2.994-16.75-2.994-38.523 0-71.069 46.64-71.069 101.846 0 11.83 1.498 24.264 4.226 34.932h33.5c-2.728-10.669-4.226-23.103-4.226-34.932 0-46.972 23.562-87.734 54.319-98.852z" fill="#1ca8ff"/><path d="m334.015 494.68v-10.221c0-5.336-4.326-9.663-9.663-9.663h-137.086c-5.337 0-9.663 4.326-9.663 9.663v10.221c0 5.337 4.326 9.663 9.663 9.663h137.086c5.336 0 9.663-4.326 9.663-9.663z" fill="#8bcaff"/><path d="m228.936 494.68v-10.221c0-5.336 4.326-9.663 9.663-9.663h-51.333c-5.337 0-9.663 4.326-9.663 9.663v10.221c0 5.337 4.326 9.663 9.663 9.663h51.333c-5.337 0-9.663-4.326-9.663-9.663z" fill="#60b9fe"/><path d="m366.294 320.835v-10.221c0-5.337-4.326-9.663-9.663-9.663h-201.645c-5.337 0-9.663 4.326-9.663 9.663v10.221c0 5.337 4.326 9.663 9.663 9.663h201.645c5.337 0 9.663-4.326 9.663-9.663z" fill="#dbedff"/><path d="m196.657 320.835v-10.221c0-5.337 4.326-9.663 9.663-9.663h-51.333c-5.337 0-9.663 4.326-9.663 9.663v10.221c0 5.337 4.326 9.663 9.663 9.663h51.333c-5.337 0-9.663-4.326-9.663-9.663z" fill="#b5dcff"/><path d="m385.348 34.859h-259.078c-5.337 0-9.663 4.326-9.663 9.663v10.221c0 5.337 4.326 9.663 9.663 9.663h259.078c5.337 0 9.663-4.326 9.663-9.663v-10.221c-.001-5.337-4.327-9.663-9.663-9.663z" fill="#dbedff"/><path d="m157.821 54.743v-10.221c0-5.337 4.326-9.663 9.663-9.663h-41.214c-5.336 0-9.663 4.326-9.663 9.663v10.221c0 5.337 4.326 9.663 9.663 9.663h41.215c-5.337 0-9.664-4.327-9.664-9.663z" fill="#b5dcff"/></g><g><path d="m381.899 137.831c4.143 0 7.5-3.358 7.5-7.5v-58.72c7.609-1.758 13.304-8.574 13.304-16.709v-10.222c0-9.463-7.699-17.163-17.163-17.163h-99.865v-7.721c-.001-10.915-8.882-19.796-19.798-19.796h-19.754c-10.916 0-19.797 8.881-19.797 19.797v7.721h-99.865c-9.463 0-17.162 7.699-17.162 17.163v10.221c0 8.135 5.695 14.952 13.304 16.71v160.97c0 18.588 11.341 35.301 28.167 42.394.34 6.339 1.021 12.626 2.033 18.819-8.341 1.163-14.788 8.323-14.788 16.979v10.221c0 7.082 4.313 13.173 10.448 15.792 2.411 39.473 28.015 72.311 62.78 87.409-10.727 10.787-20.529 25.575-29.253 44.168-6.788 2.29-11.695 8.704-11.695 16.255v10.221c0 9.464 7.699 17.163 17.162 17.163h51.043c4.143 0 7.5-3.358 7.5-7.5s-3.357-7.5-7.5-7.5h-51.043c-1.192 0-2.162-.97-2.162-2.163v-10.221c0-1.156.912-2.094 2.053-2.152.874-.012 136.418-.02 137.285-.002 1.15.048 2.073.992 2.073 2.154v10.221c0 1.193-.971 2.163-2.163 2.163h-51.043c-4.143 0-7.5 3.358-7.5 7.5s3.357 7.5 7.5 7.5h51.043c9.464 0 17.163-7.699 17.163-17.163v-10.221c0-7.551-4.907-13.964-11.695-16.254-8.726-18.594-18.526-33.382-29.253-44.168 34.757-15.095 60.367-47.928 62.779-87.409 6.136-2.619 10.448-8.711 10.448-15.792v-10.221c0-8.656-6.447-15.816-14.787-16.979 1.012-6.192 1.692-12.479 2.032-18.818 16.827-7.092 28.168-23.805 28.168-42.394v-67.25c0-4.142-3.357-7.5-7.5-7.5s-7.5 3.358-7.5 7.5v67.25c0 10.201-5.066 19.563-13.069 25.269-2.747-64.06-43.439-128.712-105.329-128.712-57.586 0-102.332 58.337-105.329 128.711-8.002-5.706-13.068-15.068-13.068-25.268v-160.52h236.796v58.267c0 4.142 3.357 7.5 7.5 7.5zm-69.031 329.624h-113.734c8.846-17.163 18.604-30.056 29.101-38.438h55.532c10.496 8.381 20.254 21.274 29.101 38.438zm-27.678-53.437h-58.378c-35.54-11.135-60.123-40.967-63.225-75.861h184.826c-3.101 34.894-27.683 64.726-63.223 75.861zm-29.19-269.88c58.624 0 101.53 73.736 88.016 149.472h-11.857c12.634-68.457-25.852-135.779-76.158-135.779-50.408 0-88.764 67.466-76.157 135.779h-11.857c-13.621-76.306 29.803-149.472 88.013-149.472zm60.882 149.472h-121.762c-12.529-60.443 20.516-120.779 60.88-120.779 40.327 0 73.422 60.282 60.882 120.779zm-163.867 17.163c0-1.193.971-2.163 2.163-2.163h201.645c1.192 0 2.163.97 2.163 2.163v10.221c0 1.192-.971 2.163-2.163 2.163-13.588 0-188.395 0-201.645 0-1.192 0-2.163-.97-2.163-2.163zm88.312-290.976c0-2.6 2.196-4.797 4.797-4.797h19.754c2.601 0 4.797 2.197 4.797 4.797v7.721h-29.348zm-114.866 37.267c-1.192 0-2.162-.97-2.162-2.163v-10.221c0-1.192.97-2.163 2.162-2.163h259.078c1.192 0 2.163.97 2.163 2.163v10.221c0 1.193-.971 2.163-2.163 2.163-3.087 0-256.345 0-259.078 0z"/></g></g></svg>