<svg id="Layer_1" enable-background="new 0 0 512.002 512.002" height="512" viewBox="0 0 512.002 512.002" width="512" xmlns="http://www.w3.org/2000/svg"><g><g><path d="m113.615 243.906h46.667v89.758h-46.667z" fill="#b5dcff"/><path d="m113.615 290.326h46.667v43.339h-46.667z" fill="#8bcaff"/><path d="m70.281 243.906h44.844v89.758h-44.844z" fill="#dbedff"/><path d="m70.281 290.326h44.844v43.339h-44.844z" fill="#b5dcff"/><path d="m185.397 243.906h-26.633v89.758h41.347v-75.044c0-8.126-6.588-14.714-14.714-14.714z" fill="#dbedff"/><path d="m158.764 290.326h41.347v43.339h-41.347z" fill="#b5dcff"/><path d="m71.486 333.665v-89.758h-26.634c-8.126 0-14.713 6.588-14.713 14.713v75.045z" fill="#b5dcff"/><path d="m30.139 290.326v43.339h41.347v-43.339z" fill="#8bcaff"/><path d="m359.024 324.064v-40.955c0-.907.076-1.795.188-2.673h-60.969c-20.438 0-40.045 8.673-53.797 23.797l-15.98 17.58c-5.114 5.626-12.407 8.852-20.008 8.852h-178.319c-12.609 0-22.831 10.222-22.831 22.831s10.222 22.831 22.831 22.831h178.318c20.439 0 40.046-8.673 53.796-23.797l15.98-17.58c5.114-5.626 12.408-8.852 20.009-8.852h60.885c-.063-.67-.103-1.347-.103-2.034z" fill="#ff636e"/><g><path d="m359.025 303.432h-60.782c-7.602 0-14.895 3.225-20.009 8.852l-15.98 17.58c-13.75 15.124-33.357 23.797-53.796 23.797h-178.319c-8.483 0-15.88-4.63-19.816-11.498-1.915 3.34-3.015 7.207-3.015 11.333 0 12.609 10.222 22.831 22.831 22.831h178.318c20.439 0 40.046-8.673 53.796-23.797l15.98-17.58c5.114-5.626 12.408-8.852 20.009-8.852h60.885c-.064-.67-.104-1.348-.104-2.034v-20.632z" fill="#ff4654"/></g><path d="m191.897 233.627c-.382-4.279-1.001-8.259-1.814-11.959-6.167-28.06-31.305-47.874-60.035-47.874h-56.321c-25.604 0-27.62-20.614-26.367-33.543.381-3.93-4.197-6.389-7.271-3.912-10.47 8.438-26.239 25.345-26.239 50.636 0 11.801 3.735 21.777 8.877 29.919 10.745 17.013 29.757 27.013 49.879 27.013h109.912c5.539-.001 9.872-4.764 9.379-10.28z" fill="#5ce2c5"/><path d="m131.984 206.24h-64.528c-12.594 0-23.256-6.678-28.127-16.105-15.289-29.589 1.924-49.578 6.226-53.907-1.531-1.114-3.736-1.283-5.466.111-10.47 8.438-26.239 25.345-26.239 50.636 0 11.801 3.735 21.777 8.877 29.919 10.745 17.013 29.757 27.013 49.879 27.013h109.912c2.702 0 5.112-1.139 6.82-2.942-11.506-31.37-57.354-34.725-57.354-34.725z" fill="#00d3b5"/><path d="m497.012 261.775h-119.653c-11.734 0-21.335 9.601-21.335 21.335v40.955c0 11.734 9.601 21.335 21.335 21.335h119.653c4.03 0 7.298-3.267 7.298-7.298v-69.029c0-4.031-3.267-7.298-7.298-7.298z" fill="#ff9ba1"/><path d="m497.012 302.587h-119.653c-11.421 0-20.794-9.101-21.288-20.406-.014.31-.047.615-.047.929v40.955c0 11.734 9.601 21.335 21.335 21.335h119.653c4.031 0 7.298-3.267 7.298-7.298v-42.812c0 4.03-3.267 7.297-7.298 7.297z" fill="#ff7f87"/><path d="m497.012 261.775h-86.314v20.168c0 11.734 9.601 21.335 21.335 21.335h72.277v-34.205c0-4.031-3.267-7.298-7.298-7.298z" fill="#ffb6bb"/></g><g><path d="m497.204 254.433c-2.227 0-115.634 0-119.652 0-12.319 0-22.854 7.768-26.976 18.662h-52.141c-22.545 0-44.176 9.568-59.347 26.252l-15.98 17.58c-3.751 4.127-8.766 6.396-15.305 6.396v-18.379c0-4.142-3.357-7.5-7.5-7.5s-7.5 3.358-7.5 7.5v18.379h-26.347v-71.758h16.255 2.878c3.978 0 7.214 3.236 7.214 7.213v11.166c0 4.142 3.357 7.5 7.5 7.5s7.5-3.358 7.5-7.5v-11.166c0-7.447-3.687-14.044-9.328-18.077.919-2.393 1.317-4.983 1.085-7.583-.398-4.46-1.058-8.801-1.959-12.902-6.847-31.153-35.176-53.764-67.36-53.764h-56.322c-6.681 0-11.591-1.678-14.596-4.988-4.935-5.437-4.815-15.071-4.306-20.331.447-4.61-1.8-9.109-5.918-11.492-4.42-2.566-9.788-1.996-13.524 1.017-10.843 8.738-29.032 27.695-29.032 56.475 0 11.965 3.377 23.379 10.036 33.924 4.641 7.347 10.609 13.55 17.51 18.409-6.716 3.825-11.258 11.046-11.258 19.312v65.485c-13.109 3.347-22.831 15.255-22.831 29.391 0 16.725 13.606 30.332 30.331 30.332h178.318c22.547 0 44.178-9.568 59.346-26.252l15.981-17.581c3.693-4.064 8.963-6.396 14.458-6.396h51.909c3.946 11.227 14.649 19.301 27.208 19.301h35.308c4.143 0 7.5-3.358 7.5-7.5s-3.357-7.5-7.5-7.5h-35.308c-7.655 0-13.835-6.235-13.835-13.835v-40.955c0-7.441 6.058-13.835 13.835-13.835h25.839v12.668c0 15.899 12.935 28.835 28.834 28.835h64.777v27.122h-49.143c-4.143 0-7.5 3.358-7.5 7.5s3.357 7.5 7.5 7.5h49.345c8.159 0 14.798-6.638 14.798-14.798v-34.824-34.205c.001-8.16-6.638-14.798-14.797-14.798zm-455.642-95.074c1.406 4.758 3.633 8.858 6.655 12.187 5.967 6.573 14.614 9.906 25.702 9.906h56.321c22.986 0 43.445 14.699 50.917 35.749-16.41-13.546-41.887-18.303-48.981-18.303h-64.529c-9.257 0-17.683-4.729-21.464-12.048-5.641-10.916-6.161-20.178-4.621-27.491zm-12.3 53.689c-5.122-8.109-7.719-16.828-7.719-25.914 0-7.212 1.505-13.986 4.262-20.353.007 7.956 1.914 17.012 7.053 26.956 6.328 12.248 19.984 20.162 34.79 20.162h64.215c3.004.274 33.908 3.551 46.945 22.667-10.581 0-95.971 0-106.009 0-17.694-.001-34.376-9.012-43.537-23.518zm122.194 38.517v71.758h-28.64v-71.758zm-43.64 0v71.758h-28.638v-71.758zm-43.638 0v71.758h-26.347v-64.545c0-3.978 3.235-7.213 7.213-7.213zm284.539 67.192h-50.282c-9.713 0-19.028 4.122-25.559 11.307l-15.98 17.579c-12.331 13.563-29.916 21.343-48.246 21.343h-178.319c-8.453 0-15.331-6.878-15.331-15.332s6.878-15.331 15.331-15.331h178.318c9.711 0 19.027-4.122 25.558-11.307l15.979-17.579c12.333-13.563 29.919-21.343 48.248-21.343h50.282v30.663zm148.285-22.821h-64.777c-7.628 0-13.834-6.207-13.834-13.835v-12.668h78.611z"/></g></g></svg>