<svg id="Layer_1" enable-background="new 0 0 512.002 512.002" height="512" viewBox="0 0 512.002 512.002" width="512" xmlns="http://www.w3.org/2000/svg"><g><g><path d="m77.987 82.309h33.277v124.143h-33.277z" fill="#fbc56c"/><path d="m77.987 82.309h19.5v124.143h-19.5z" fill="#ebb865"/><path d="m77.987 230.729h33.277v124.143h-33.277z" fill="#fbc56c"/><path d="m77.987 230.729h19.5v124.143h-19.5z" fill="#ebb865"/><path d="m77.987 379.15v116.704c0 4.688 3.801 8.489 8.489 8.489h16.299c4.689 0 8.489-3.801 8.489-8.489v-116.704z" fill="#fbc56c"/><path d="m97.487 495.854v-116.704h-19.5v116.704c0 4.688 3.801 8.489 8.489 8.489h16.299c.548 0 1.082-.057 1.601-.156-3.922-.749-6.889-4.192-6.889-8.333z" fill="#ebb865"/><path d="m111.264 58.031v-42.2c0-4.689-3.801-8.489-8.489-8.489h-16.298c-4.689 0-8.489 3.801-8.489 8.489v42.201h33.276z" fill="#fbc56c"/><path d="m104.376 7.497c-.519-.099-1.053-.156-1.601-.156h-16.298c-4.688 0-8.489 3.801-8.489 8.489v42.201h19.5v-42.2c-.001-4.141 2.966-7.585 6.888-8.334z" fill="#ebb865"/><path d="m400.353 82.309h33.277v124.143h-33.277z" fill="#fbc56c"/><path d="m400.353 82.309h19.5v124.143h-19.5z" fill="#ebb865"/><path d="m400.353 230.729h33.277v124.143h-33.277z" fill="#fbc56c"/><path d="m400.353 230.729h19.5v124.143h-19.5z" fill="#ebb865"/><path d="m400.353 379.15v116.704c0 4.688 3.801 8.489 8.489 8.489h16.299c4.689 0 8.489-3.801 8.489-8.489v-116.704z" fill="#fbc56c"/><path d="m419.853 495.854v-116.704h-19.5v116.704c0 4.688 3.801 8.489 8.489 8.489h16.299c.548 0 1.082-.057 1.601-.156-3.922-.749-6.889-4.192-6.889-8.333z" fill="#ebb865"/><path d="m433.631 58.031v-42.2c0-4.689-3.801-8.489-8.489-8.489h-16.299c-4.689 0-8.489 3.801-8.489 8.489v42.201h33.277z" fill="#fbc56c"/><path d="m426.742 7.497c-.519-.099-1.053-.156-1.601-.156h-16.299c-4.688 0-8.489 3.801-8.489 8.489v42.201h19.5v-42.2c0-4.141 2.967-7.585 6.889-8.334z" fill="#ebb865"/><path d="m49.931 359.362v16.299c0 4.689 3.801 8.489 8.489 8.489h394.778c4.688 0 8.489-3.801 8.489-8.489v-16.299c0-4.689-3.801-8.489-8.489-8.489h-394.778c-4.688 0-8.489 3.8-8.489 8.489z" fill="#fcd79b"/><path d="m158.403 54.031h-99.983c-4.689 0-8.489 3.801-8.489 8.489v16.299c0 4.689 3.801 8.489 8.489 8.489h99.983z" fill="#fcd79b"/><path d="m453.198 54.031h-99.983v33.277h99.983c4.688 0 8.489-3.801 8.489-8.489v-16.298c0-4.689-3.801-8.49-8.489-8.49z" fill="#fcd79b"/><path d="m453.198 202.452h-99.983v33.277h99.983c4.688 0 8.489-3.801 8.489-8.489v-16.299c0-4.688-3.801-8.489-8.489-8.489z" fill="#fcd79b"/><path d="m158.403 202.452h-99.983c-4.689 0-8.489 3.801-8.489 8.489v16.299c0 4.689 3.801 8.489 8.489 8.489h99.983z" fill="#fcd79b"/><g fill="#fbc56c"><path d="m453.198 367.511h-394.778c-4.631 0-8.389-3.71-8.481-8.319-.001.057-.009.113-.009.17v16.299c0 4.689 3.801 8.489 8.489 8.489h394.778c4.688 0 8.489-3.801 8.489-8.489v-16.299c0-.057-.008-.113-.009-.17-.09 4.609-3.848 8.319-8.479 8.319z"/><path d="m49.94 62.351c-.001.057-.009.113-.009.17v16.299c0 4.689 3.801 8.489 8.489 8.489h99.983v-16.639h-99.983c-4.631 0-8.389-3.71-8.48-8.319z"/><path d="m453.198 70.67h-99.983v16.639h99.983c4.688 0 8.489-3.801 8.489-8.489v-16.299c0-.057-.008-.113-.009-.17-.091 4.609-3.849 8.319-8.48 8.319z"/><path d="m453.198 219.09h-99.983v16.639h99.983c4.688 0 8.489-3.801 8.489-8.489v-16.299c0-.057-.008-.113-.009-.17-.091 4.61-3.849 8.319-8.48 8.319z"/><path d="m49.94 210.771c-.001.057-.009.113-.009.17v16.299c0 4.689 3.801 8.489 8.489 8.489h99.983v-16.639h-99.983c-4.631 0-8.389-3.709-8.48-8.319z"/></g><path d="m155.403 184.247h200.812v36.409h-200.812z" fill="#60b9fe"/><path d="m155.403 184.247h49.25v36.409h-49.25z" fill="#1ca8ff"/><path d="m155.403 219.091v40.022c0 6.696 5.428 12.124 12.124 12.124h176.565c6.696 0 12.124-5.428 12.124-12.124v-40.022z" fill="#8bcaff"/><path d="m204.653 259.113v-40.022h-49.25v40.022c0 6.696 5.428 12.124 12.124 12.124h49.25c-6.696 0-12.124-5.429-12.124-12.124z" fill="#60b9fe"/><path d="m356.215 185.813v-132.977c0-6.696-5.428-12.124-12.124-12.124h-176.564c-6.696 0-12.124 5.428-12.124 12.124v132.977z" fill="#dbedff"/><path d="m216.777 40.712h-49.25c-6.696 0-12.124 5.428-12.124 12.124v132.977h49.25v-132.977c0-6.696 5.428-12.124 12.124-12.124z" fill="#b5dcff"/></g><g><path d="m433.823 135.039c4.143 0 7.5-3.357 7.5-7.5v-32.571h12.067c8.816 0 15.989-7.173 15.989-15.989v-16.299c0-8.816-7.173-15.989-15.989-15.989h-12.067v-30.702c0-8.816-7.173-15.989-15.99-15.989h-16.299c-8.816 0-15.989 7.173-15.989 15.989v30.701h-30.197c-2.634-7.733-9.952-13.319-18.565-13.319h-70.782c-4.143 0-7.5 3.357-7.5 7.5s3.357 7.5 7.5 7.5h70.782c2.549 0 4.623 2.074 4.623 4.624v125.477h-185.811c0-8.568 0-121.036 0-125.477 0-2.55 2.074-4.624 4.623-4.624h70.783c4.143 0 7.5-3.357 7.5-7.5s-3.357-7.5-7.5-7.5h-70.783c-8.613 0-15.931 5.586-18.565 13.319h-30.197v-30.701c.001-8.816-7.172-15.989-15.989-15.989h-16.299c-8.816 0-15.989 7.173-15.989 15.989v30.701h-12.067c-8.816 0-15.989 7.173-15.989 15.989v16.299c0 8.816 7.173 15.989 15.989 15.989h12.067v100.143h-12.067c-8.816 0-15.989 7.173-15.989 15.989v16.299c0 8.816 7.173 15.989 15.989 15.989h12.067v100.144h-12.067c-8.816 0-15.989 7.173-15.989 15.989v16.299c0 8.816 7.173 15.989 15.989 15.989h12.067v104.204c0 8.816 7.173 15.989 15.989 15.989h16.299c8.816 0 15.989-7.173 15.989-15.989v-104.203h274.089v104.204c0 8.816 7.173 15.989 15.989 15.989h16.299c8.816 0 15.989-7.173 15.989-15.989v-104.204h12.067c8.816 0 15.989-7.173 15.989-15.989v-16.299c0-8.816-7.173-15.989-15.989-15.989h-12.067v-100.144h12.067c8.816 0 15.989-7.173 15.989-15.989v-16.299c0-8.816-7.173-15.989-15.989-15.989h-12.067v-32.571c0-4.143-3.357-7.5-7.5-7.5s-7.5 3.357-7.5 7.5v32.571h-18.277v-100.143h18.277v32.571c.001 4.143 3.358 7.5 7.501 7.5zm-25.778-119.05c0-.546.443-.989.989-.989h16.299c.546 0 .989.443.989.989v30.701h-18.277zm-44.138 78.979h29.139v100.142h-29.139c0-10.645 0-89.11 0-100.142zm-200.812 98.504h185.812v18.277h-185.812c0-6.614 0-11.663 0-18.277zm0 33.277h185.812v32.522c0 2.55-2.074 4.624-4.623 4.624h-176.566c-2.549 0-4.623-2.074-4.623-4.624 0-29.562 0-14.148 0-32.522zm-2.877 50.65v27.465c0 4.143 3.357 7.5 7.5 7.5s7.5-3.357 7.5-7.5v-25.969h10.224v25.969c0 4.143 3.357 7.5 7.5 7.5s7.5-3.357 7.5-7.5v-25.969h10.224v25.969c0 4.143 3.357 7.5 7.5 7.5s7.5-3.357 7.5-7.5v-25.969h10.224v25.969c0 4.143 3.357 7.5 7.5 7.5s7.5-3.357 7.5-7.5v-25.969h10.224v25.969c0 4.143 3.357 7.5 7.5 7.5s7.5-3.357 7.5-7.5v-25.969h10.224v25.969c0 4.143 3.357 7.5 7.5 7.5s7.5-3.357 7.5-7.5v-25.969h10.224v25.969c0 4.143 3.357 7.5 7.5 7.5s7.5-3.357 7.5-7.5v-25.969h10.224v25.969c0 4.143 3.357 7.5 7.5 7.5s7.5-3.357 7.5-7.5v-27.465c7.108-2.953 12.123-9.963 12.123-18.127v-15.884h29.139v100.144h-274.091v-100.144h29.139v15.884c-.001 8.164 5.014 15.174 12.122 18.127zm-12.123-82.289h-29.139v-100.142h29.139zm-62.416-179.121c0-.546.443-.989.989-.989h16.299c.546 0 .989.443.989.989v30.701h-18.277zm-27.067 63.979c-.546 0-.989-.443-.989-.989v-16.299c0-.546.443-.989.989-.989h89.483v18.277c-12.1 0-77.334 0-89.483 0zm45.345 15v100.142h-18.278v-100.142zm-45.345 133.42c-.546 0-.989-.443-.989-.989v-16.299c0-.546.443-.989.989-.989h89.483v18.277c-11.733 0-80.446 0-89.483 0zm45.345 15v100.144h-18.278v-100.144zm0 252.625c0 .546-.443.989-.989.989h-16.3c-.546 0-.989-.443-.989-.989v-104.204h18.277v104.204zm322.366 0c0 .546-.443.989-.989.989h-16.299c-.546 0-.989-.443-.989-.989v-104.204h18.277zm27.067-137.482c.546 0 .989.443.989.989v16.299c0 .546-.443.989-.989.989-16.382 0-376.888 0-394.778 0-.546 0-.989-.443-.989-.989v-16.299c0-.546.443-.989.989-.989zm-45.345-15v-100.143h18.277v100.144h-18.277zm45.345-133.421c.546 0 .989.443.989.989v16.299c0 .546-.443.989-.989.989-13.142 0-76.341 0-89.483 0 0-6.614 0-11.663 0-18.277zm-89.483-130.142v-18.278h89.483c.546 0 .989.443.989.989v16.299c0 .546-.443.989-.989.989-9.038.001-77.75.001-89.483.001z"/></g></g></svg>