<svg id="Layer_1" enable-background="new 0 0 512.002 512.002" height="512" viewBox="0 0 512.002 512.002" width="512" xmlns="http://www.w3.org/2000/svg"><g><g><path d="m455.524 87.017c-26.944 0-48.786 21.842-48.786 48.786 0 9.042 2.469 17.503 6.756 24.763l24.195 20.644c5.526 2.172 11.538 3.379 17.835 3.379 26.944 0 48.786-21.842 48.786-48.786s-21.842-48.786-48.786-48.786z" fill="#b5dcff"/><path d="m452.071 135.803c0-18.759 10.594-35.035 26.119-43.199-6.774-3.562-14.482-5.587-22.667-5.587-26.944 0-48.786 21.842-48.786 48.786 0 9.042 2.469 17.503 6.756 24.763l24.195 20.644c5.526 2.172 11.538 3.379 17.835 3.379 8.185 0 15.893-2.025 22.667-5.587-15.525-8.164-26.119-24.44-26.119-43.199z" fill="#8bcaff"/><path d="m56.094 87.017c-26.944 0-48.786 21.842-48.786 48.786s21.842 48.786 48.786 48.786c6.297 0 12.309-1.206 17.835-3.379l24.195-20.644c4.287-7.26 6.756-15.721 6.756-24.763 0-26.944-21.842-48.786-48.786-48.786z" fill="#b5dcff"/><path d="m52.641 135.803c0-18.759 10.594-35.035 26.119-43.199-6.774-3.562-14.482-5.587-22.667-5.587-26.944 0-48.786 21.842-48.786 48.786s21.842 48.786 48.786 48.786c6.297 0 12.309-1.206 17.835-3.379l3.466-2.957c-14.776-8.384-24.753-24.247-24.753-42.45z" fill="#8bcaff"/><path d="m139.329 175.655c-22.31-1.808-44.096-13.234-57.511-31.35l-13.177-17.794c-5.133-6.929-14.911-8.388-21.838-3.256-6.93 5.132-8.387 14.909-3.256 21.838l13.177 17.794c19.28 26.035 50.432 42.209 82.605 44.069z" fill="#dbedff"/><path d="m464.815 123.255c-6.928-5.132-16.706-3.673-21.838 3.256l-13.177 17.794c-13.415 18.116-35.201 29.543-57.511 31.35v31.301c32.173-1.86 63.326-18.034 82.605-44.069l13.177-17.794c5.132-6.928 3.674-16.706-3.256-21.838z" fill="#dbedff"/><path d="m138.329 305.886h234.96v35.373h-234.96z" fill="#fbc700"/><path d="m138.329 305.886h52.784v35.373h-52.784z" fill="#eab900"/><path d="m138.329 340.023v39.569c0 6.62 5.367 11.987 11.987 11.987h210.987c6.62 0 11.987-5.367 11.987-11.987v-39.569z" fill="#ffd500"/><path d="m191.113 379.592v-39.569h-52.784v39.569c0 6.62 5.366 11.987 11.986 11.987h52.785c-6.62-.001-11.987-5.367-11.987-11.987z" fill="#fbc700"/><path d="m373.289 307.122v-131.471c0-6.62-5.367-11.987-11.987-11.987h-210.986c-6.62 0-11.987 5.367-11.987 11.987v131.472h234.96z" fill="#ffe559"/><path d="m203.1 163.664h-52.784c-6.62 0-11.986 5.367-11.986 11.987v131.472h52.784v-131.472c-.001-6.62 5.366-11.987 11.986-11.987z" fill="#ffd500"/></g><g><path d="m455.716 79.675c-31.036 0-56.286 25.25-56.286 56.286 0 7.675 1.576 15.247 4.589 22.246-7.581 4.623-16.023 7.805-24.909 9.325-3.12-6.612-9.832-11.208-17.615-11.208h-210.987c-7.783 0-14.495 4.597-17.615 11.208-8.886-1.52-17.328-4.701-24.909-9.325 3.012-6.999 4.589-14.571 4.589-22.246 0-31.036-25.25-56.286-56.286-56.286s-56.287 25.25-56.287 56.286c0 37.552 36.369 64.838 72.563 53.869 16.753 13.183 36.91 21.596 58.458 24.144v165.776c0 8.023 4.875 14.925 11.817 17.909v27.168c0 4.143 3.357 7.5 7.5 7.5s7.5-3.357 7.5-7.5v-25.59h15.189v25.59c0 4.143 3.357 7.5 7.5 7.5s7.5-3.357 7.5-7.5v-25.59h15.188v25.59c0 4.143 3.357 7.5 7.5 7.5s7.5-3.357 7.5-7.5v-25.59h15.189v25.59c0 4.143 3.357 7.5 7.5 7.5s7.5-3.357 7.5-7.5v-25.59h15.189v25.59c0 4.143 3.357 7.5 7.5 7.5s7.5-3.357 7.5-7.5v-25.59h15.189v25.59c0 4.143 3.357 7.5 7.5 7.5s7.5-3.357 7.5-7.5v-25.59h15.188v25.59c0 4.143 3.357 7.5 7.5 7.5s7.5-3.357 7.5-7.5v-25.59h15.189v25.59c0 4.143 3.357 7.5 7.5 7.5s7.5-3.357 7.5-7.5v-27.168c6.942-2.984 11.817-9.887 11.817-17.909 0-11.919 0-105.625 0-117.353 0-4.143-3.357-7.5-7.5-7.5s-7.5 3.357-7.5 7.5v37.384h-219.955c0-2.125 0-120.513 0-123.967v-.005c0-2.474 2.013-4.486 4.486-4.486h210.986c2.474 0 4.486 2.013 4.486 4.486v.005 51.583c0 4.143 3.357 7.5 7.5 7.5s7.5-3.357 7.5-7.5v-13.423c21.548-2.549 41.705-10.961 58.458-24.144 36.234 10.981 72.563-16.363 72.563-53.869.002-31.036-25.248-56.286-56.284-56.286zm-440.716 56.286c0-22.766 18.521-41.286 41.286-41.286s41.286 18.521 41.286 41.286c0 4.313-.676 8.582-1.985 12.65-5.211-5.042-7.212-8.154-20.728-26.405-7.602-10.265-22.064-12.423-32.329-4.819-10.264 7.603-12.423 22.062-4.818 32.328 13.81 18.649 15.682 21.497 21.165 27.452-23.915 1.475-43.877-17.569-43.877-41.206zm116.021 62.9c-48.976-6.657-69.491-42.186-81.255-58.073-2.663-3.595-1.921-8.671 1.691-11.348 3.573-2.646 8.661-1.934 11.348 1.692 12.363 16.696 28.425 44.83 68.216 51.317zm234.959 115.92v17.9h-92.479c-4.143 0-7.5 3.357-7.5 7.5s3.357 7.5 7.5 7.5h92.479v32.068c0 2.475-2.013 4.487-4.486 4.487h-210.986c-2.474 0-4.486-2.013-4.486-4.487v-32.068h92.479c4.143 0 7.5-3.357 7.5-7.5s-3.357-7.5-7.5-7.5h-92.479v-17.9zm66.64-138.737c-14.619 12.259-32.462 20.21-51.64 22.817v-16.411c19.008-3.099 36.372-12.536 49.309-26.602 4.012-4.368 5.201-6.207 18.906-24.715 2.675-3.609 7.752-4.358 11.349-1.692 3.604 2.669 4.361 7.742 1.691 11.348-24.927 33.663-18.98 24.742-29.615 35.255zm20.505 1.122c5.553-6.032 7.433-8.909 21.165-27.451 7.603-10.266 5.448-24.726-4.818-32.328-10.263-7.604-24.726-5.449-32.33 4.819-5.575 7.528-14.086 19.982-20.727 26.404-8.601-26.72 11.465-53.937 39.301-53.937 22.766 0 41.286 18.521 41.286 41.286 0 23.638-19.961 42.683-43.877 41.207z"/></g></g></svg>