<svg id="Layer_1" enable-background="new 0 0 512.002 512.002" height="512" viewBox="0 0 512.002 512.002" width="512" xmlns="http://www.w3.org/2000/svg"><g><g><g><path d="m72.041 161.427 33.639 295.758c3.354 26.938 26.249 47.158 53.395 47.158h193.468c27.146 0 50.04-20.22 53.395-47.158l33.639-295.758z" fill="#60b9fe"/></g><path d="m146.842 457.185-33.639-295.758h-41.162l33.639 295.758c3.354 26.938 26.249 47.158 53.395 47.158h41.162c-27.146 0-50.04-20.22-53.395-47.158z" fill="#1ca8ff"/><path d="m183.116 94.529v-25.552c0-16.348 13.3-29.647 29.646-29.647h86.093c16.346 0 29.646 13.3 29.646 29.647v25.552h31.989v-25.552c0-33.986-27.65-61.636-61.635-61.636h-86.093c-33.986 0-61.635 27.65-61.635 61.636v25.552z" fill="#b5dcff"/><g><path d="m248.762 7.341h-36c-33.986 0-61.635 27.65-61.635 61.636v25.552h31.989v-25.552c0-7.324 2.675-14.031 7.092-19.21 8.093-24.605 31.275-42.426 58.554-42.426z" fill="#8bcaff"/></g><g><path d="m415.71 128.841v-19.912c0-9.57-7.83-17.4-17.4-17.4h-285.002c-9.57 0-17.4 7.83-17.4 17.4v19.912z" fill="#60b9fe"/></g><path d="m154.47 91.529h-41.162c-9.57 0-17.4 7.83-17.4 17.4v19.912h41.162v-19.912c0-9.57 7.83-17.4 17.4-17.4z" fill="#1ca8ff"/><path d="m442.322 125.841h-373.026c-8.291 0-15.012 6.721-15.012 15.012v7.562c0 8.291 6.721 15.012 15.012 15.012h373.026c8.291 0 15.012-6.721 15.012-15.012v-7.562c0-8.291-6.721-15.012-15.012-15.012z" fill="#b5dcff"/><path d="m95.446 148.415v-7.562c0-8.291 6.721-15.012 15.012-15.012h-41.162c-8.291 0-15.012 6.721-15.012 15.012v7.562c0 8.291 6.721 15.012 15.012 15.012h41.162c-8.29 0-15.012-6.721-15.012-15.012z" fill="#8bcaff"/><g fill="#1ca8ff"><path d="m159.833 203.289c-8.644 0-15.652 7.007-15.652 15.651v215.677c0 8.644 7.007 15.651 15.651 15.651 8.644 0 15.651-7.007 15.651-15.651v-215.677c.001-8.644-7.006-15.651-15.65-15.651z"/><path d="m287.801 203.289c-8.644 0-15.652 7.007-15.652 15.651v215.677c0 8.644 7.007 15.651 15.651 15.651 8.644 0 15.651-7.007 15.651-15.651v-215.677c.001-8.644-7.006-15.651-15.65-15.651z"/><path d="m223.817 203.289c-8.644 0-15.651 7.007-15.651 15.651v215.677c0 8.644 7.007 15.651 15.651 15.651s15.651-7.007 15.651-15.651v-215.677c0-8.644-7.007-15.651-15.651-15.651z"/><path d="m351.785 203.289c-8.644 0-15.652 7.007-15.652 15.651v215.677c0 8.644 7.007 15.651 15.651 15.651 8.644 0 15.651-7.007 15.651-15.651v-215.677c.002-8.644-7.006-15.651-15.65-15.651z"/></g><path d="m160.522 434.617v-215.677c0-5.646 2.999-10.578 7.481-13.331-2.38-1.462-5.172-2.32-8.17-2.32-8.644 0-15.652 7.007-15.652 15.651v215.677c0 8.644 7.008 15.651 15.652 15.651 2.998 0 5.79-.858 8.17-2.32-4.482-2.752-7.481-7.685-7.481-13.331z" fill="#0094fd"/><path d="m288.49 434.617v-215.677c0-5.646 2.999-10.578 7.481-13.331-2.38-1.462-5.172-2.32-8.17-2.32-8.644 0-15.651 7.007-15.651 15.651v215.677c0 8.644 7.007 15.651 15.651 15.651 2.999 0 5.79-.858 8.17-2.32-4.482-2.752-7.481-7.685-7.481-13.331z" fill="#0094fd"/><path d="m224.506 434.617v-215.677c0-5.646 2.999-10.578 7.481-13.331-2.38-1.462-5.172-2.32-8.17-2.32-8.644 0-15.652 7.007-15.652 15.651v215.677c0 8.644 7.008 15.651 15.652 15.651 2.999 0 5.79-.858 8.17-2.32-4.482-2.752-7.481-7.685-7.481-13.331z" fill="#0094fd"/><path d="m352.474 434.617v-215.677c0-5.646 2.999-10.578 7.481-13.331-2.381-1.462-5.172-2.32-8.17-2.32-8.644 0-15.652 7.007-15.652 15.651v215.677c0 8.644 7.008 15.651 15.652 15.651 2.999 0 5.79-.858 8.17-2.32-4.481-2.752-7.481-7.685-7.481-13.331z" fill="#0094fd"/></g><g><path d="m65.501 170.725 32.928 287.545c3.814 30.632 29.969 53.731 60.838 53.731h193.468c30.868 0 57.022-23.1 60.846-53.805l32.92-287.471c10.517-1.888 18.525-11.099 18.525-22.151v-7.562c0-12.413-10.099-22.512-22.512-22.512h-19.112v-9.412c0-13.73-11.17-24.9-24.899-24.9h-30.319v-15.052c-.001-38.122-31.016-69.136-69.137-69.136h-86.093c-38.121 0-69.136 31.014-69.136 69.136v15.052h-30.318c-13.729 0-24.899 11.17-24.899 24.9v9.412h-19.113c-12.413 0-22.512 10.099-22.512 22.512v7.562c0 11.052 8.008 20.263 18.525 22.151zm333.186 285.692c-2.882 23.137-22.637 40.585-45.952 40.585h-193.468c-23.316 0-43.072-17.448-45.944-40.511l-32.682-285.405h350.72zm-239.868-387.281c0-29.851 24.285-54.136 54.136-54.136h86.093c29.851 0 54.136 24.286 54.136 54.136v15.052h-16.989v-15.052c0-20.483-16.664-37.147-37.146-37.147h-86.093c-20.482 0-37.146 16.664-37.146 37.147v15.052h-16.989v-15.052zm-55.219 39.952c0-5.459 4.44-9.9 9.899-9.9h125.002c4.143 0 7.5-3.358 7.5-7.5s-3.357-7.5-7.5-7.5h-47.693v-15.052c0-12.212 9.935-22.147 22.146-22.147h86.093c12.212 0 22.146 9.935 22.146 22.147v15.052h-47.692c-4.143 0-7.5 3.358-7.5 7.5s3.357 7.5 7.5 7.5h125.001c5.459 0 9.899 4.441 9.899 9.9v9.412h-304.801zm-41.624 31.924c0-4.142 3.37-7.512 7.512-7.512h373.026c4.142 0 7.512 3.37 7.512 7.512v7.562c0 4.142-3.37 7.512-7.512 7.512-10.253 0-363.099 0-373.026 0-4.142 0-7.512-3.37-7.512-7.512z"/><path d="m160.025 457.928c12.766 0 23.151-10.386 23.151-23.152v-215.677c0-12.766-10.386-23.151-23.151-23.151s-23.151 10.386-23.151 23.151v215.677c0 12.766 10.385 23.152 23.151 23.152zm-8.151-238.829c0-4.495 3.656-8.151 8.151-8.151s8.151 3.657 8.151 8.151v215.677c0 4.495-3.656 8.152-8.151 8.152s-8.151-3.657-8.151-8.152z"/><path d="m287.993 457.928c12.767 0 23.152-10.386 23.152-23.152v-215.677c0-12.766-10.386-23.151-23.152-23.151s-23.151 10.386-23.151 23.151v215.677c-.001 12.766 10.385 23.152 23.151 23.152zm-8.152-238.829c0-4.495 3.656-8.151 8.151-8.151s8.152 3.657 8.152 8.151v215.677c0 4.495-3.657 8.152-8.152 8.152s-8.151-3.657-8.151-8.152z"/><path d="m224.009 457.928c12.766 0 23.151-10.386 23.151-23.152v-215.677c0-12.766-10.386-23.151-23.151-23.151s-23.151 10.386-23.151 23.151v215.677c0 12.766 10.386 23.152 23.151 23.152zm-8.151-238.829c0-4.495 3.656-8.151 8.151-8.151s8.151 3.657 8.151 8.151v215.677c0 4.495-3.656 8.152-8.151 8.152s-8.151-3.657-8.151-8.152z"/><path d="m351.977 457.928c12.766 0 23.151-10.386 23.151-23.151v-90.339c0-4.142-3.357-7.5-7.5-7.5s-7.5 3.358-7.5 7.5v90.339c0 4.495-3.656 8.151-8.151 8.151s-8.151-3.657-8.151-8.151v-215.678c0-4.495 3.656-8.151 8.151-8.151s8.151 3.657 8.151 8.151v90.339c0 4.142 3.357 7.5 7.5 7.5s7.5-3.358 7.5-7.5v-90.339c0-12.766-10.386-23.151-23.151-23.151s-23.151 10.386-23.151 23.151v215.678c0 12.765 10.385 23.151 23.151 23.151z"/></g></g></svg>