<svg id="Capa_1" enable-background="new 0 0 512 512" height="512" viewBox="0 0 512 512" width="512" xmlns="http://www.w3.org/2000/svg"><g><g><path clip-rule="evenodd" d="m12.914 100.662c-2.976 0-5.414 2.553-5.414 5.673v330.494c0 3.12 2.438 5.673 5.414 5.673h486.143c3.005 0 5.443-2.553 5.443-5.673v-330.494c0-3.12-2.438-5.673-5.443-5.673l-28.46 2.326z" fill="#edf3f4" fill-rule="evenodd"/></g><g><path clip-rule="evenodd" d="m249.381 91.529c-62.447-22.946-126.369-32.533-202.99-6.07-4.989 1.702-5.017.964-5.017 7.772v306.47c.028 12.253.028 11.658 13.635 7.63 73.758-21.84 134.249-13.586 194.372 8.509 5.726 2.099 7.512 2.099 13.238 0 60.095-22.095 120.586-30.349 194.372-8.509 13.578 4.028 13.578 4.623 13.606-7.63v-306.471c0-6.807-.028-6.07-4.989-7.772-76.649-26.463-140.571-16.876-202.99 6.07-5.725 2.1-7.511 2.1-13.237.001z" fill="#6bd9e7" fill-rule="evenodd"/></g><g><path clip-rule="evenodd" d="m255.986 342.803c-31.748-23.882-69.506-35.852-107.292-35.852s-75.572 11.969-107.32 35.852v56.898c.028 12.253.028 11.658 13.635 7.63 73.758-21.84 134.249-13.586 194.372 8.509 2.863 1.049 4.734 1.56 6.605 1.56z" fill="#fcd79b" fill-rule="evenodd"/></g><g><path clip-rule="evenodd" d="m321.098 243.984-65.112 65.152v33.668 74.596c1.871 0 3.77-.511 6.633-1.56 60.095-22.095 120.586-30.349 194.372-8.509 13.578 4.028 13.578 4.623 13.606-7.63v-46.318l-76.366-76.412-32.967-32.987c-11.026-11.062-29.111-11.062-40.166 0z" fill="#80d261" fill-rule="evenodd"/></g><g><path clip-rule="evenodd" d="m418.015 253.145-23.783 23.826 76.366 76.412v-66.938l-33.279-33.299c-5.301-5.305-13.975-5.305-19.304-.001z" fill="#80d261" fill-rule="evenodd"/></g><g><path clip-rule="evenodd" d="m174.178 152.397c-5.584-8.112-14.91-13.416-25.484-13.416-10.573 0-19.928 5.304-25.484 13.416-16.668.482-30.019 14.153-30.019 30.916 0 3.262.51 6.382 1.446 9.332-8.901 5.446-14.825 15.231-14.825 26.435 0 17.075 13.833 30.945 30.898 30.945h37.984 37.984c17.065 0 30.898-13.87 30.898-30.945 0-11.204-5.924-20.989-14.825-26.435.907-2.95 1.417-6.07 1.417-9.332 0-16.762-13.351-30.434-29.99-30.916z" fill="#80d261" fill-rule="evenodd"/></g><g><path clip-rule="evenodd" d="m384.878 127.636c-18.397 0-33.336 14.919-33.336 33.327s14.939 33.356 33.336 33.356 33.307-14.948 33.307-33.356-14.911-33.327-33.307-33.327z" fill="#fdb440" fill-rule="evenodd"/></g><g><path clip-rule="evenodd" d="m418.185 160.963c0-18.408-14.91-33.327-33.307-33.327-3.402 0-6.661.482-9.751 1.447 13.635 4.169 23.556 16.876 23.556 31.881 0 15.033-9.921 27.711-23.556 31.881 3.09.964 6.35 1.475 9.751 1.475 18.396-.001 33.307-14.949 33.307-33.357z" fill="#fe9900" fill-rule="evenodd"/></g><g><path clip-rule="evenodd" d="m171.4 148.908c1.02 9.445 1.559 19.231 1.559 29.271 0 26.435-3.713 51.055-10.091 71.845h23.811c17.065 0 30.898-13.87 30.898-30.945 0-11.204-5.924-20.989-14.825-26.435.907-2.95 1.417-6.07 1.417-9.332 0-16.763-13.351-30.434-29.991-30.916-.851-1.218-1.786-2.381-2.778-3.488z" fill="#4fc122" fill-rule="evenodd"/></g><g><path clip-rule="evenodd" d="m197.932 247.898c-2.466 22.237-7.455 43.283-14.542 62.457 25.767 5.105 50.627 15.912 72.595 32.448v-33.668-206.147-9.871c-1.871 0-3.742-.539-6.605-1.588-30.104-11.062-60.52-19.004-92.523-21.33 7.115 9.899 13.521 20.904 19.077 32.788 8.164 17.5 14.485 36.986 18.567 57.834 5.953 5.644 9.666 13.643 9.666 22.492 0 3.262-.51 6.382-1.417 9.332 8.901 5.446 14.825 15.231 14.825 26.435.001 13.104-8.134 24.308-19.643 28.818z" fill="#00c7dd" fill-rule="evenodd"/></g><g><path clip-rule="evenodd" d="m183.39 310.355c-13.323 36.164-34.044 65.775-59.244 84.609 44.504-2.524 84.955 6.07 125.235 20.876 2.863 1.049 4.734 1.56 6.605 1.56v-74.597c-21.969-16.536-46.829-27.343-72.596-32.448z" fill="#fbc56c" fill-rule="evenodd"/></g><g><path clip-rule="evenodd" d="m432.727 250.139c3.345 15.713 5.187 32.987 5.187 51.14 0 6.353-.227 12.593-.68 18.72l33.364 33.384v-66.938l-33.279-33.299c-1.333-1.334-2.92-2.355-4.592-3.007z" fill="#4fc122" fill-rule="evenodd"/></g><g><path clip-rule="evenodd" d="m370.704 191.142c2.013 20.62 3.146 42.631 3.203 65.492l20.324 20.337 23.783-23.826c3.969-3.943 9.78-4.964 14.712-3.007 1.672.652 3.26 1.673 4.592 3.007l33.279 33.299v-183.456-2.326-7.432c0-6.807-.028-6.07-4.989-7.772-45.014-15.543-85.635-18.663-124.158-13.927 4.535 8.566 8.702 18.947 12.444 30.86 3.232 10.211 6.123 21.556 8.646 33.81 3.572-3.205 7.852-5.673 12.586-7.119 3.09-.964 6.35-1.447 9.751-1.447 18.397 0 33.307 14.919 33.307 33.327s-14.91 33.356-33.307 33.356c-3.402 0-6.661-.511-9.751-1.475-1.53-.453-3.004-1.02-4.422-1.701z" fill="#00c7dd" fill-rule="evenodd"/></g><g><path clip-rule="evenodd" d="m373.936 258.903c0 51.594-5.386 98.933-14.343 135.919 30.387-1.447 62.391 2.156 97.399 12.508 13.578 4.028 13.578 4.623 13.606-7.63v-46.318l-33.364-33.384-43.002-43.028-20.324-20.337c-.001.767.028 1.504.028 2.27z" fill="#4fc122" fill-rule="evenodd"/></g><g><path clip-rule="evenodd" d="m385.274 394.822c-4.507 16.536-9.78 32.476-15.761 47.679h129.544c3.005 0 5.443-2.553 5.443-5.673v-330.493c0-3.12-2.438-5.673-5.443-5.673l-28.46 2.326v183.457 66.938 46.318c-.028 12.253-.028 11.658-13.606 7.63-25.285-7.489-49.039-11.431-71.717-12.509z" fill="#d7e7ec" fill-rule="evenodd"/></g><g><path d="m344.042 160.963c0 22.527 18.319 40.855 40.836 40.855 22.501 0 40.807-18.328 40.807-40.855 0-22.513-18.306-40.828-40.807-40.828-22.517 0-40.836 18.316-40.836 40.828zm40.836-25.828c14.229 0 25.807 11.587 25.807 25.828 0 14.257-11.577 25.855-25.807 25.855-14.246 0-25.836-11.599-25.836-25.855 0-14.241 11.59-25.828 25.836-25.828z"/><path d="m499.058 93.162h-20.96c-.003-7.135-.454-11.654-8.83-14.39-.366-.12-.773-.253-1.212-.403-87.472-30.197-157.12-12.591-208.018 6.118-4.038 1.478-4.038 1.479-8.068.003-44.799-16.48-83.824-23.594-122.816-22.354-4.14.13-7.391 3.593-7.26 7.732.128 4.06 3.459 7.264 7.492 7.264.08 0 .16-.001.241-.004 37.004-1.168 74.234 5.646 117.173 21.442.587.215 1.143.407 1.686.588v229.322c-27.718-17.692-59.242-27.573-92.292-28.873v-42.082h30.484c21.172 0 38.397-17.246 38.397-38.444 0-11.638-5.11-22.36-13.9-29.617.327-2.039.492-4.094.492-6.149 0-19.681-14.471-35.772-33.571-38.133-7.269-8.64-18.009-13.7-29.403-13.7-11.422 0-22.165 5.062-29.412 13.701-19.113 2.361-33.591 18.451-33.591 38.132 0 2.07.167 4.132.499 6.167-8.776 7.257-13.878 17.973-13.878 29.6 0 21.198 17.225 38.444 38.398 38.444h30.484v42.085c-33.059 1.296-64.594 11.173-92.32 28.87v-235.251c0-.225 0-.458 0-.694 15.088-5.219 30.219-9.159 44.973-11.714 4.082-.706 6.817-4.588 6.111-8.669s-4.591-6.813-8.669-6.11c-15.558 2.692-31.488 6.84-47.318 12.317-.454.155-.864.288-1.233.408-8.407 2.73-8.859 7.252-8.862 14.394h-20.96c-7.122 0-12.915 5.909-12.915 13.172v330.494c0 7.264 5.793 13.173 12.914 13.173h312.152c4.143 0 7.5-3.357 7.5-7.5s-3.357-7.5-7.5-7.5h-310.066v-326.84h18.874v291.557c.017 7.493.029 12.444 4.466 15.744 4.477 3.327 9.191 1.921 17.006-.407l1.792-.533c63.927-18.93 122.419-16.352 189.662 8.359 3.697 1.354 6.447 2.032 9.199 2.032 2.753 0 5.507-.679 9.208-2.035 67.207-24.709 125.698-27.288 189.651-8.357l1.787.532c7.801 2.331 12.512 3.738 16.984.412 4.438-3.299 4.45-8.251 4.468-15.765v-291.538h18.903v326.84h-137.294c-4.143 0-7.5 3.357-7.5 7.5s3.357 7.5 7.5 7.5h139.352c7.137 0 12.942-5.909 12.942-13.173v-330.495c0-7.263-5.806-13.172-12.942-13.172zm-388.348 149.363c-12.902 0-23.398-10.518-23.398-23.444 0-8.241 4.202-15.731 11.24-20.038 2.943-1.801 4.277-5.377 3.234-8.665-.727-2.29-1.095-4.667-1.095-7.063 0-12.764 9.987-23.051 22.736-23.42 2.397-.069 4.616-1.28 5.971-3.259 4.355-6.358 11.569-10.154 19.296-10.154 7.705 0 14.922 3.802 19.306 10.169 1.356 1.97 3.57 3.175 5.96 3.244 12.733.369 22.708 10.656 22.708 23.42 0 2.386-.365 4.783-1.086 7.126-1.007 3.274.332 6.814 3.254 8.603 7.038 4.307 11.24 11.797 11.24 20.038 0 12.927-10.496 23.444-23.397 23.444h-30.484v-25.757l13.707-12.229c3.091-2.758 3.361-7.499.603-10.59-2.758-3.09-7.499-3.36-10.589-.604l-11.221 10.011-11.221-10.011c-3.091-2.757-7.832-2.486-10.59.604-2.757 3.091-2.487 7.832.604 10.59l13.708 12.229v25.757h-30.486zm137.776 165.026c-69.007-24.71-129.494-26.989-195.605-7.412 0 0-3.28.977-4.001 1.187-.003-.542-.004-1.092-.005-1.625v-53.103c59.292-42.624 140.32-42.625 199.612 0v60.953zm214.612-7.868c-.001.538-.003 1.092-.006 1.637-.711-.208-3.972-1.181-3.972-1.181-66.153-19.581-126.647-17.298-195.634 7.421v-95.32l62.916-62.955c3.931-3.934 9.183-6.099 14.789-6.099h.015c5.598.004 10.835 2.167 14.754 6.099l32.966 32.986c.003.003.005.006.007.008s.005.005.008.007l74.156 74.201v43.196zm0-64.415-58.265-58.3 18.473-18.507c2.409-2.401 6.316-2.408 8.708-.015l31.084 31.102zm0-242.038v175.1l-20.475-20.487c-8.225-8.229-21.636-8.235-29.917.003l-18.478 18.512-27.652-27.669c-6.743-6.766-15.75-10.495-25.36-10.502-.009 0-.016 0-.024 0-9.614 0-18.635 3.728-25.398 10.495l-52.307 52.338v-191.853c.554-.184 1.121-.38 1.721-.599 48.554-17.848 114.921-34.662 197.891-6.042-.001.239-.001.476-.001.704z"/></g></g></svg>