<svg id="Capa_1" enable-background="new 0 0 512 512" height="512" viewBox="0 0 512 512" width="512" xmlns="http://www.w3.org/2000/svg"><g><g><path clip-rule="evenodd" d="m154.737 477.995 33.648-218.114-33.648-207.911c0-7.689-6.236-14.006-13.89-14.006h-119.457c-7.654 0-13.89 6.317-13.89 14.006v426.024c0 7.689 6.237 14.006 13.89 14.006h119.456c7.654 0 13.891-6.317 13.891-14.005z" fill="#fe636e" fill-rule="evenodd"/></g><g><path clip-rule="evenodd" d="m113.435 322.19v-142.57c0-5.802-4.706-10.576-10.489-10.576h-43.655c-5.783 0-10.489 4.773-10.489 10.576v142.57c0 5.802 4.706 10.576 10.489 10.576h43.655c5.783 0 10.489-4.773 10.489-10.576z" fill="#edf3f4" fill-rule="evenodd"/></g><g><path clip-rule="evenodd" d="m81.118 445.925c17.887 0 32.401-14.606 32.401-32.67 0-18.036-14.514-32.67-32.401-32.67s-32.401 14.634-32.401 32.67c0 18.064 14.514 32.67 32.401 32.67z" fill="#edf3f4" fill-rule="evenodd"/></g><g><path clip-rule="evenodd" d="m131.889 51.97v426.024c0 7.689-6.236 14.006-13.89 14.006h22.848c7.654 0 13.89-6.317 13.89-14.006v-426.024c0-7.689-6.236-14.006-13.89-14.006h-22.848c7.653.001 13.89 6.317 13.89 14.006z" fill="#fb2a39" fill-rule="evenodd"/></g><g><path clip-rule="evenodd" d="m91.607 179.62v142.57c0 5.802-4.734 10.576-10.489 10.576h21.828c5.783 0 10.489-4.773 10.489-10.576v-142.57c0-5.802-4.706-10.576-10.489-10.576h-21.828c5.755.001 10.489 4.774 10.489 10.576z" fill="#d7e7ec" fill-rule="evenodd"/></g><g><path clip-rule="evenodd" d="m71.849 381.957c13.408 4.002 23.16 16.521 23.16 31.298 0 14.806-9.752 27.296-23.16 31.327 2.948.886 6.066 1.343 9.27 1.343 17.887 0 32.401-14.606 32.401-32.67 0-18.036-14.514-32.67-32.401-32.67-3.204 0-6.322.486-9.27 1.372z" fill="#d7e7ec" fill-rule="evenodd"/></g><g><path clip-rule="evenodd" d="m302.002 477.995v-426.025c-.085-.629-.113-1.258-.113-1.858-.935-6.831-6.775-12.148-13.777-12.148h-119.485c-7.625 0-13.89 6.317-13.89 14.006v426.024c0 7.689 6.265 14.006 13.89 14.006h119.484c7.626 0 13.891-6.317 13.891-14.005z" fill="#80d261" fill-rule="evenodd"/></g><g><path clip-rule="evenodd" d="m260.699 322.19v-142.57c0-5.802-4.706-10.576-10.489-10.576h-43.683c-5.755 0-10.489 4.773-10.489 10.576v142.57c0 5.802 4.734 10.576 10.489 10.576h43.683c5.784 0 10.489-4.773 10.489-10.576z" fill="#edf3f4" fill-rule="evenodd"/></g><g><path clip-rule="evenodd" d="m228.383 445.925c17.887 0 32.401-14.606 32.401-32.67 0-18.036-14.514-32.67-32.401-32.67-17.916 0-32.401 14.634-32.401 32.67 0 18.064 14.486 32.67 32.401 32.67z" fill="#edf3f4" fill-rule="evenodd"/></g><g><path clip-rule="evenodd" d="m275.157 51.97v426.024c0 7.689-6.265 14.006-13.89 14.006h26.845c7.625 0 13.89-6.317 13.89-14.006v-426.024c-.085-.629-.113-1.258-.113-1.858-.935-6.831-6.775-12.148-13.777-12.148h-26.845c7.002 0 12.841 5.316 13.749 12.148-.001.6.056 1.229.141 1.858z" fill="#4fc122" fill-rule="evenodd"/></g><g><path clip-rule="evenodd" d="m238.872 179.62v142.57c0 5.802-4.734 10.576-10.489 10.576h21.827c5.783 0 10.489-4.773 10.489-10.576v-142.57c0-5.802-4.706-10.576-10.489-10.576h-21.827c5.755.001 10.489 4.774 10.489 10.576z" fill="#d7e7ec" fill-rule="evenodd"/></g><g><path clip-rule="evenodd" d="m219.114 381.957c13.38 4.002 23.132 16.521 23.132 31.298 0 14.806-9.752 27.296-23.132 31.327 2.948.886 6.038 1.343 9.27 1.343 17.887 0 32.401-14.606 32.401-32.67 0-18.036-14.514-32.67-32.401-32.67-3.232 0-6.322.486-9.27 1.372z" fill="#d7e7ec" fill-rule="evenodd"/></g><g><path clip-rule="evenodd" d="m504.374 454.328-56.44-422.194c-1.021-7.632-8.051-13.034-15.619-12.005l-118.408 16.092c-6.945.943-12.019 7.003-12.019 13.891.057.6.113 1.229.113 1.858l56.44 422.194c1.021 7.632 8.051 13.034 15.619 12.005l118.407-16.092c6.945-.943 12.019-6.974 12.048-13.863v-.029c.001-.628-.056-1.228-.141-1.857z" fill="#01d0fb" fill-rule="evenodd"/></g><g><path clip-rule="evenodd" d="m442.803 305.498-18.879-141.284c-.765-5.774-6.095-9.832-11.793-9.061l-43.286 5.888c-5.726.772-9.78 6.117-8.986 11.89l18.879 141.256c.765 5.774 6.066 9.861 11.793 9.061l43.286-5.859c5.726-.801 9.752-6.146 8.986-11.891z" fill="#edf3f4" fill-rule="evenodd"/></g><g><path clip-rule="evenodd" d="m427.184 432.491c17.717-2.43 30.162-18.865 27.78-36.757-2.41-17.864-18.709-30.412-36.455-28.011-17.745 2.43-30.162 18.865-27.78 36.757 2.381 17.864 18.709 30.412 36.455 28.011z" fill="#edf3f4" fill-rule="evenodd"/></g><g><path clip-rule="evenodd" d="m420.522 35.878 56.44 422.166c.085.629.113 1.258.113 1.858v.029c0 6.86-5.046 12.891-11.963 13.863h.028l27.327-3.716c6.945-.943 12.019-6.974 12.048-13.863v-.029c0-.629-.057-1.229-.142-1.858l-56.44-422.194c-1.021-7.632-8.051-13.034-15.619-12.005l-27.44 3.716c7.597-1.029 14.628 4.373 15.648 12.033z" fill="#08a9f1" fill-rule="evenodd"/></g><g><path clip-rule="evenodd" d="m402.266 167.158 18.908 141.255c.765 5.745-3.26 11.09-8.958 11.89h.028l21.572-2.915c5.726-.8 9.751-6.145 8.986-11.89l-18.879-141.284c-.765-5.774-6.095-9.832-11.793-9.061l-21.657 2.944c5.727-.8 11.028 3.287 11.793 9.061z" fill="#d7e7ec" fill-rule="evenodd"/></g><g><path clip-rule="evenodd" d="m410.601 369.838c14.174 1.858 25.91 13.091 27.922 28.04 2.013 15.092-6.52 29.154-19.9 34.642 2.778.343 5.641.372 8.561-.029 17.717-2.43 30.162-18.865 27.78-36.757-2.41-17.864-18.709-30.412-36.455-28.011-2.778.371-5.414 1.114-7.908 2.115z" fill="#d7e7ec" fill-rule="evenodd"/></g><g><path d="m196.039 131.098h64.66c4.143 0 7.5-3.358 7.5-7.5s-3.358-7.5-7.5-7.5h-64.66c-4.143 0-7.5 3.358-7.5 7.5s3.358 7.5 7.5 7.5z"/><path d="m196.039 89.539h64.66c4.143 0 7.5-3.358 7.5-7.5s-3.358-7.5-7.5-7.5h-64.66c-4.143 0-7.5 3.358-7.5 7.5s3.358 7.5 7.5 7.5z"/><path d="m41.302 322.191c0 9.967 8.07 18.076 17.989 18.076h43.655c9.919 0 17.989-8.109 17.989-18.076v-142.571c0-9.967-8.07-18.076-17.989-18.076h-43.655c-9.919 0-17.989 8.109-17.989 18.076zm15.001-142.571c0-1.667 1.368-3.076 2.988-3.076h43.655c1.62 0 2.988 1.409 2.988 3.076v142.57c0 1.667-1.368 3.076-2.988 3.076h-43.655c-1.62 0-2.988-1.409-2.988-3.076z"/><path d="m81.119 453.425c22.002 0 39.901-18.02 39.901-40.17s-17.899-40.17-39.901-40.17-39.902 18.02-39.902 40.17 17.9 40.17 39.902 40.17zm0-65.34c13.73 0 24.9 11.291 24.9 25.17s-11.17 25.17-24.9 25.17c-13.731 0-24.901-11.291-24.901-25.17s11.17-25.17 24.901-25.17z"/><path d="m48.802 131.098h64.632c4.143 0 7.5-3.358 7.5-7.5s-3.358-7.5-7.5-7.5h-64.632c-4.143 0-7.5 3.358-7.5 7.5s3.358 7.5 7.5 7.5z"/><path d="m48.802 89.539h64.632c4.143 0 7.5-3.358 7.5-7.5s-3.358-7.5-7.5-7.5h-64.632c-4.143 0-7.5 3.358-7.5 7.5s3.358 7.5 7.5 7.5z"/><path d="m206.528 340.266h43.683c9.919 0 17.989-8.109 17.989-18.076v-142.57c0-9.967-8.07-18.076-17.989-18.076h-43.683c-9.919 0-17.989 8.109-17.989 18.076v142.57c0 9.967 8.07 18.076 17.989 18.076zm-2.989-160.646c0-1.667 1.368-3.076 2.988-3.076h43.683c1.62 0 2.988 1.409 2.988 3.076v142.57c0 1.667-1.368 3.076-2.988 3.076h-43.683c-1.62 0-2.988-1.409-2.988-3.076z"/><path d="m228.383 373.085c-22.002 0-39.901 18.02-39.901 40.17s17.899 40.17 39.901 40.17 39.902-18.02 39.902-40.17-17.9-40.17-39.902-40.17zm0 65.34c-13.73 0-24.9-11.291-24.9-25.17s11.17-25.17 24.9-25.17c13.731 0 24.901 11.291 24.901 25.17s-11.17 25.17-24.901 25.17z"/><path d="m511.808 453.334-56.44-422.195c-.762-5.7-3.704-10.762-8.284-14.254-4.547-3.466-10.155-4.956-15.778-4.188l-118.409 16.092h-.001c-4.73.643-8.892 2.805-12.067 5.93-3.56-2.66-7.952-4.255-12.718-4.255h-119.484c-5.302 0-10.149 1.961-13.89 5.184-3.742-3.223-8.589-5.184-13.891-5.184h-119.456c-11.794.001-21.39 9.648-21.39 21.506v202.766c0 4.142 3.358 7.5 7.5 7.5s7.5-3.358 7.5-7.5v-202.766c0-3.587 2.866-6.505 6.39-6.505h119.456c3.524 0 6.391 2.918 6.391 6.505v426.025c0 3.587-2.867 6.505-6.391 6.505h-119.456c-3.524 0-6.39-2.918-6.39-6.505v-188.331c0-4.142-3.358-7.5-7.5-7.5s-7.5 3.358-7.5 7.5v188.331c0 11.858 9.596 21.505 21.39 21.505h119.456c5.302 0 10.149-1.961 13.891-5.184 3.741 3.223 8.588 5.184 13.89 5.184h119.484c11.794 0 21.39-9.647 21.39-21.505v-313.319l41.506 310.483c.762 5.7 3.704 10.763 8.284 14.254 3.767 2.871 8.257 4.384 12.887 4.384.959 0 1.925-.065 2.891-.196l118.409-16.092c11.678-1.588 19.9-12.433 18.33-24.175zm-217.307 24.661c0 3.526-2.926 6.505-6.39 6.505h-119.484c-3.464 0-6.39-2.979-6.39-6.505v-426.025c0-3.526 2.926-6.505 6.39-6.505h119.484c3.073 0 5.718 2.346 6.277 5.338.017.513.059 1.029.113 1.547zm196.957-15.349-118.408 16.091c-1.651.225-3.308-.22-4.663-1.253-1.389-1.059-2.28-2.591-2.511-4.313l-56.414-422c-.017-.472-.025-.947-.073-1.411.155-3.065 2.433-5.687 5.529-6.108h-.001l118.409-16.092c1.648-.226 3.308.221 4.663 1.254 1.389 1.059 2.28 2.591 2.511 4.313l56.44 422.195c.477 3.563-1.983 6.848-5.482 7.324z"/><path d="m391.536 330.68 43.319-5.864c9.79-1.368 16.691-10.478 15.382-20.311l-18.879-141.277c-.634-4.784-3.1-9.036-6.944-11.97-3.828-2.924-8.554-4.179-13.295-3.537l-43.278 5.887c-4.751.641-8.974 3.106-11.891 6.942-2.93 3.854-4.182 8.614-3.526 13.374l6.69 50.077c.548 4.105 4.326 6.989 8.427 6.441 4.106-.548 6.989-4.321 6.441-8.427l-6.694-50.105c-.15-1.096.313-1.899.604-2.281.283-.371.912-1.015 1.963-1.157l43.282-5.888c1.034-.139 1.807.313 2.175.594.378.289 1.033.935 1.179 2.028l18.879 141.28c.221 1.656-.966 3.246-2.558 3.469l-43.319 5.864c-1.025.142-1.772-.298-2.131-.571-.381-.29-1.041-.94-1.189-2.057l-7.853-58.68c-.549-4.106-4.318-6.993-8.429-6.439-4.106.549-6.988 4.323-6.439 8.428l7.852 58.671c.638 4.812 3.116 9.08 6.979 12.017 3.157 2.4 6.92 3.663 10.783 3.663.819.002 1.645-.055 2.47-.171z"/><path d="m447.06 368.183c-8.482-6.52-18.977-9.326-29.557-7.893-.004 0-.008.001-.012.001-21.774 2.981-37.115 23.248-34.197 45.179 1.422 10.669 6.904 20.13 15.435 26.641 7.015 5.353 15.398 8.175 24.062 8.175 1.795 0 3.603-.121 5.411-.366 21.773-2.986 37.113-23.252 34.194-45.191-1.431-10.614-6.878-20.043-15.336-26.546zm-20.882 56.876c-6.552.886-13.07-.844-18.348-4.871-5.342-4.077-8.775-10.007-9.666-16.697-1.831-13.758 7.746-26.466 21.351-28.336 6.577-.889 13.117.856 18.401 4.92 5.301 4.075 8.716 9.993 9.614 16.648 1.831 13.759-7.754 26.471-21.352 28.336z"/><path d="m353.443 124.827 64.065-8.718c4.104-.559 6.979-4.338 6.42-8.443s-4.335-6.977-8.444-6.42l-64.065 8.718c-4.104.559-6.979 4.338-6.42 8.443.512 3.761 3.73 6.49 7.422 6.49.338 0 .679-.023 1.022-.07z"/><path d="m347.915 83.64 64.093-8.718c4.105-.559 6.98-4.338 6.421-8.442-.559-4.105-4.345-6.979-8.443-6.421l-64.093 8.718c-4.105.559-6.98 4.338-6.421 8.442.512 3.762 3.729 6.49 7.422 6.49.337 0 .678-.023 1.021-.069z"/></g></g></svg>