<svg id="Capa_1" enable-background="new 0 0 512 512" height="512" viewBox="0 0 512 512" width="512" xmlns="http://www.w3.org/2000/svg"><g><g><path clip-rule="evenodd" d="m162.22 499.114v-58.819h-92.505v58.819c0 2.948 2.438 5.386 5.386 5.386h81.76c2.949 0 5.359-2.438 5.359-5.386z" fill="#b5c4cf" fill-rule="evenodd"/></g><g><path clip-rule="evenodd" d="m442.257 499.114v-58.819h-92.505v58.819c0 2.948 2.41 5.386 5.386 5.386h81.76c2.949 0 5.359-2.438 5.359-5.386z" fill="#b5c4cf" fill-rule="evenodd"/></g><g><path clip-rule="evenodd" d="m162.22 460.308h-92.505v19.049h69.456v25.143h17.69c2.948 0 5.358-2.438 5.358-5.386v-38.806z" fill="#9aafb7" fill-rule="evenodd"/></g><g><path clip-rule="evenodd" d="m442.257 460.308h-92.505v19.049h69.456v25.143h17.69c2.948 0 5.358-2.438 5.358-5.386v-38.806z" fill="#9aafb7" fill-rule="evenodd"/></g><g><path clip-rule="evenodd" d="m468.877 42.565h-425.754v412.782c0 2.721 2.24 4.961 4.961 4.961h21.631 92.505 187.532 92.505 21.631c2.75 0 4.99-2.239 4.99-4.961v-412.782z" fill="#fdb440" fill-rule="evenodd"/></g><g><path clip-rule="evenodd" d="m480.358 7.5h-448.716c-3.119 0-5.642 2.523-5.642 5.641v33.789c0 3.118 2.523 5.641 5.642 5.641h11.482 425.754 11.482c3.09 0 5.642-2.523 5.642-5.641v-33.789c-.002-3.118-2.553-5.641-5.644-5.641z" fill="#fcd79b" fill-rule="evenodd"/></g><g><path clip-rule="evenodd" d="m43.123 52.571h425.754v25.484h-425.754z" fill="#fe9900" fill-rule="evenodd"/></g><g><path clip-rule="evenodd" d="m413.312 401.148v-95.018h-314.652v95.018c0 2.381 1.956 4.337 4.337 4.337h305.977c2.382.001 4.338-1.955 4.338-4.337z" fill="#edf3f4" fill-rule="evenodd"/></g><g><path clip-rule="evenodd" d="m98.66 206.776h314.652v99.355h-314.652z" fill="#b5c4cf" fill-rule="evenodd"/></g><g><path clip-rule="evenodd" d="m413.312 206.776v-95.046c0-2.381-1.956-4.337-4.338-4.337h-305.977c-2.381 0-4.337 1.956-4.337 4.337v95.046z" fill="#edf3f4" fill-rule="evenodd"/></g><g><path clip-rule="evenodd" d="m98.66 306.131h314.652v24.378h-314.652z" fill="#d7e7ec" fill-rule="evenodd"/></g><g><path clip-rule="evenodd" d="m413.312 134.096v-22.366c0-2.381-1.956-4.337-4.338-4.337h-305.977c-2.381 0-4.337 1.956-4.337 4.337v22.365h314.652z" fill="#d7e7ec" fill-rule="evenodd"/></g><g><path clip-rule="evenodd" d="m98.66 206.776h314.652v24.35h-314.652z" fill="#9aafb7" fill-rule="evenodd"/></g><g><path clip-rule="evenodd" d="m486 13.141c0-3.118-2.551-5.641-5.642-5.641h-92.023c3.09 0 5.642 2.523 5.642 5.641v29.424 4.365c0 3.118-2.551 5.641-5.642 5.641h80.541 11.482c3.09 0 5.642-2.523 5.642-5.641z" fill="#fbc56c" fill-rule="evenodd"/></g><g><path d="m420.812 401.148v-95.018-99.354-95.046c0-6.527-5.31-11.837-11.837-11.837h-305.978c-6.527 0-11.837 5.31-11.837 11.837v95.046 99.354 95.018c0 6.527 5.31 11.837 11.837 11.837h305.978c6.527 0 11.837-5.309 11.837-11.837zm-314.652-186.872h299.651v84.354h-299.651zm299.652-99.382v84.383h-299.652v-84.383zm-299.652 283.091v-84.354h299.651v84.354z"/><path d="m242.165 164.585h27.642c4.143 0 7.5-3.357 7.5-7.5s-3.357-7.5-7.5-7.5h-27.642c-4.143 0-7.5 3.357-7.5 7.5s3.357 7.5 7.5 7.5z"/><path d="m269.807 248.939h-27.642c-4.143 0-7.5 3.357-7.5 7.5s3.357 7.5 7.5 7.5h27.642c4.143 0 7.5-3.357 7.5-7.5s-3.358-7.5-7.5-7.5z"/><path d="m269.807 348.294h-27.642c-4.143 0-7.5 3.357-7.5 7.5s3.357 7.5 7.5 7.5h27.642c4.143 0 7.5-3.357 7.5-7.5s-3.358-7.5-7.5-7.5z"/><path d="m480.358 0h-448.716c-7.246 0-13.142 5.895-13.142 13.141v33.789c0 7.246 5.896 13.142 13.142 13.142h3.981v395.275c0 6.871 5.59 12.461 12.461 12.461h14.131v31.307c0 7.105 5.781 12.886 12.887 12.886h81.76c7.09 0 12.858-5.78 12.858-12.886v-31.307h69.61c4.143 0 7.5-3.357 7.5-7.5s-3.357-7.5-7.5-7.5h-77.11-92.505-19.092v-392.737h191.713c4.143 0 7.5-3.357 7.5-7.5s-3.357-7.5-7.5-7.5h-208.836v-30.071h445v30.071h-201.55c-4.143 0-7.5 3.357-7.5 7.5s3.357 7.5 7.5 7.5h184.427v392.736h-19.12-92.505-75.778c-4.143 0-7.5 3.357-7.5 7.5s3.357 7.5 7.5 7.5h68.278v31.307c0 7.105 5.781 12.886 12.887 12.886h81.76c7.09 0 12.858-5.78 12.858-12.886v-31.307h14.131c6.887 0 12.489-5.59 12.489-12.461v-395.275h3.981c7.246 0 13.142-5.896 13.142-13.142v-33.788c0-7.246-5.896-13.141-13.142-13.141zm-325.638 467.808v29.192h-77.505v-29.192zm280.037 29.192h-77.505v-29.192h77.505z"/></g></g></svg>