<svg id="Capa_1" enable-background="new 0 0 512 512" height="512" viewBox="0 0 512 512" width="512" xmlns="http://www.w3.org/2000/svg"><g><g><path clip-rule="evenodd" d="m434.874 73.871c-2.332-12.805-10.193-23.682-22.633-23.682h-29.688-96.319-192.753c-12.439.086-13.044 4.575-15.376 17.351l-21.567 119.588c67.409-.086 332.841-.432 398.839-.518z" fill="#b5c4cf" fill-rule="evenodd"/></g><g><path clip-rule="evenodd" d="m165.296 216.679 13.447-59.621-13.447-32.113h-52.061c-4.607 0-8.379 3.769-8.379 8.373v83.447z" fill="#edf3f4" fill-rule="evenodd"/></g><g><path clip-rule="evenodd" d="m225.765 216.622 14.282-62.096-14.282-50.356h-52.061c-4.607 0-8.408 3.769-8.408 8.402v12.373 91.734z" fill="#edf3f4" fill-rule="evenodd"/></g><g><path clip-rule="evenodd" d="m286.235 104.17v-54.988-21.754c0-4.604-3.772-8.373-8.408-8.373h-43.682c-4.607 0-8.379 3.769-8.379 8.373v21.754 54.988 112.452l60.469-.086z" fill="#edf3f4" fill-rule="evenodd"/></g><g><path clip-rule="evenodd" d="m346.675 124.946v-12.373c0-4.604-3.772-8.402-8.379-8.402h-52.061l-15.117 46.155 15.117 66.211 60.441-.086v-91.505z" fill="#edf3f4" fill-rule="evenodd"/></g><g><path clip-rule="evenodd" d="m407.145 216.536v-83.216c0-4.604-3.772-8.373-8.379-8.373h-52.09l-13.447 30.904 13.447 60.6z" fill="#edf3f4" fill-rule="evenodd"/></g><g><path clip-rule="evenodd" d="m165.296 186.984v-62.038h-22.287v62.038.029.115 29.551l-38.154.058v.029l60.441-.087v-29.551z" fill="#d7e7ec" fill-rule="evenodd"/></g><g><path clip-rule="evenodd" d="m225.765 186.898v-82.728h-22.431v82.756.202 14.934.259 14.33l22.431-.029v-29.494z" fill="#d7e7ec" fill-rule="evenodd"/></g><g><path clip-rule="evenodd" d="m286.235 27.428c0-4.604-3.772-8.373-8.408-8.373h-14.023v138.982 28.832 29.696l22.431-.029c0-68.081 0-121.027 0-189.108z" fill="#d7e7ec" fill-rule="evenodd"/></g><g><path clip-rule="evenodd" d="m346.675 124.946v-12.373c0-4.604-3.772-8.402-8.379-8.402h-14.052v82.612.345 29.35l22.431-.029z" fill="#d7e7ec" fill-rule="evenodd"/></g><g><path clip-rule="evenodd" d="m407.145 186.667v-53.348c0-4.604-3.772-8.373-8.379-8.373h-15.463v61.751.432 29.379l23.842.029v-29.408z" fill="#d7e7ec" fill-rule="evenodd"/></g><g><path clip-rule="evenodd" d="m46.085 187.128h419.83v291.632c0 7.798-6.392 14.186-14.196 14.186h-391.438c-7.803 0-14.196-6.388-14.196-14.186z" fill="#80d261" fill-rule="evenodd"/></g><g><path clip-rule="evenodd" d="m225.765 387.112 8.812-58.844-8.812-70.527h-60.469l-10.078 68.858 10.078 60.513z" fill="#edf3f4" fill-rule="evenodd"/></g><g><path clip-rule="evenodd" d="m286.235 387.112 12.583-64.714-12.583-64.657h-60.47l-11.23 64.685 11.23 64.686z" fill="#edf3f4" fill-rule="evenodd"/></g><g><path clip-rule="evenodd" d="m346.675 387.112 12.612-66.383-12.612-62.988h-60.44l-11.23 61.29 11.23 68.081z" fill="#edf3f4" fill-rule="evenodd"/></g><g><path clip-rule="evenodd" d="m203.334 257.741h22.431v129.371h-22.431z" fill="#d7e7ec" fill-rule="evenodd"/></g><g><path clip-rule="evenodd" d="m263.803 257.741h22.431v129.371h-22.431z" fill="#d7e7ec" fill-rule="evenodd"/></g><g><path clip-rule="evenodd" d="m324.244 257.741h22.431v129.371h-22.431z" fill="#d7e7ec" fill-rule="evenodd"/></g><g><path clip-rule="evenodd" d="m407.145 316.556c0-32.343-26.491-58.815-58.828-58.815h-1.641v129.371h46.417c7.746 0 14.052-6.33 14.052-14.042z" fill="#edf3f4" fill-rule="evenodd"/></g><g><path clip-rule="evenodd" d="m407.145 316.556c0-19.279-9.387-36.458-23.842-47.191v117.746h9.79c7.746 0 14.052-6.33 14.052-14.042z" fill="#d7e7ec" fill-rule="evenodd"/></g><g><path clip-rule="evenodd" d="m165.296 257.741h-1.613c-32.365 0-58.828 26.473-58.828 58.815v56.514c0 7.712 6.306 14.042 14.052 14.042h46.389z" fill="#edf3f4" fill-rule="evenodd"/></g><g><path clip-rule="evenodd" d="m165.296 387.112v-129.371h-1.613c-7.602 0-14.887 1.468-21.567 4.144v125.228h23.18z" fill="#d7e7ec" fill-rule="evenodd"/></g><path d="m348.317 250.184h-184.634c-36.605 0-66.386 29.774-66.386 66.372v56.513c0 11.91 9.694 21.599 21.609 21.599h274.186c11.915 0 21.609-9.689 21.609-21.599v-56.513c.001-36.598-29.78-66.372-66.384-66.372zm-175.464 15.114h45.355v114.258h-45.355zm60.47 0h45.355v114.258h-45.355zm60.469 0h45.326v114.258h-45.326zm-181.379 107.772v-56.513c0-26.253 19.847-47.947 45.326-50.903v113.902h-38.831c-3.582-.001-6.495-2.91-6.495-6.486zm287.174 0c0 3.576-2.913 6.486-6.495 6.486h-38.86v-113.906c25.493 2.943 45.355 24.644 45.355 50.907z"/><g><path clip-rule="evenodd" d="m465.915 443.165h-419.83v35.594c0 7.798 6.392 14.186 14.196 14.186h391.438c7.803 0 14.196-6.388 14.196-14.186z" fill="#fcd79b" fill-rule="evenodd"/></g><g><path clip-rule="evenodd" d="m425.976 187.128h39.939v256.037h-39.939z" fill="#4fc122" fill-rule="evenodd"/></g><g><path clip-rule="evenodd" d="m465.915 443.165h-39.939v35.594c0 7.798-6.392 14.186-14.196 14.186h39.939c7.803 0 14.196-6.388 14.196-14.186z" fill="#fbc56c" fill-rule="evenodd"/></g><g><path clip-rule="evenodd" d="m455.376 186.61-20.502-112.739c-2.332-12.805-10.193-23.682-22.633-23.682h-29.688-12.987-35.186c12.439 0 20.3 10.877 22.633 23.682l9.272 51.075h17.018 15.463c4.607 0 8.379 3.769 8.379 8.373v53.348z" fill="#9aafb7" fill-rule="evenodd"/></g><path d="m504.443 178.995c-.003 0-.007 0-.01 0l-42.75.055-19.374-106.534c-3.307-18.154-15.098-29.884-30.039-29.884h-42.703c-4.174 0-7.557 3.383-7.557 7.557s3.384 7.557 7.557 7.557h42.703c8.837 0 13.63 9.029 15.169 17.476l18.885 103.848-31.621.041v-45.792c0-8.784-7.149-15.931-15.937-15.931h-44.533v-4.816c0-8.8-7.149-15.959-15.937-15.959h-44.504v-38.867h40.588c4.174 0 7.557-3.383 7.557-7.557s-3.383-7.557-7.557-7.557h-40.588v-15.204c0-8.784-7.162-15.93-15.966-15.93h-43.682c-8.788 0-15.937 7.146-15.937 15.93v15.204h-124.778c-18.489.128-20.413 10.686-22.642 22.912l-20.565 114.027-42.672.058c-4.174.004-7.554 3.391-7.55 7.565.004 4.171 3.387 7.549 7.557 7.549h.007l30.963-.031v284.048c0 11.989 9.758 21.743 21.753 21.743h391.438c11.995 0 21.753-9.754 21.753-21.743v-284.61l30.98-.04c4.174-.005 7.553-3.393 7.548-7.567-.004-4.172-3.387-7.548-7.556-7.548zm-286.235.37-45.355.059v-66.852c0-.442.406-.846.851-.846h44.504zm-60.47.079-45.326.059v-46.183c0-.428.392-.817.822-.817h44.504zm241.027-46.942c.43 0 .822.39.822.817v45.812l-45.355.059v-46.687h44.533zm-60.469-20.775c.423 0 .822.411.822.846v66.637l-45.326.059v-67.541h44.504zm-104.973-84.299c0-.427.392-.816.822-.816h43.682c.453 0 .851.382.851.816v151.859l-45.355.059zm-147.784 41.47.118-.643c.763-4.187 1.552-8.515 2.458-9.704.006-.007.72-.772 5.366-.805h124.727v38.867h-44.504c-8.804 0-15.966 7.159-15.966 15.959v4.816h-44.504c-8.788 0-15.937 7.147-15.937 15.931v46.202l-31.717.041zm366.18 416.49h-391.438c-3.661 0-6.639-2.974-6.639-6.629v-28.037h183.583c4.174 0 7.557-3.383 7.557-7.557s-3.383-7.557-7.557-7.557h-183.583v-240.916l404.715-.007v240.923h-188.046c-4.174 0-7.557 3.383-7.557 7.557s3.383 7.557 7.557 7.557h188.046v28.037c.001 3.656-2.977 6.629-6.638 6.629z"/></g></svg>