<svg id="Capa_1" enable-background="new 0 0 512 512" height="512" viewBox="0 0 512 512" width="512" xmlns="http://www.w3.org/2000/svg"><g><g><path clip-rule="evenodd" d="m91.574 27.91h328.851c22.302 0 40.575 18.226 40.575 40.507v395.548c0 22.28-18.273 40.536-40.574 40.536h-328.852c-22.33-.001-40.574-18.256-40.574-40.537v-395.547c0-22.281 18.244-40.507 40.574-40.507z" fill="#fdb440" fill-rule="evenodd"/></g><g><path clip-rule="evenodd" d="m103.321 78.083h305.329c3.291 0 5.958 2.665 5.958 5.924v365.699c0 3.26-2.667 5.924-5.958 5.924h-305.329c-3.263 0-5.93-2.665-5.93-5.924v-365.699c0-3.26 2.667-5.924 5.93-5.924z" fill="#edf3f4" fill-rule="evenodd"/></g><g><path clip-rule="evenodd" d="m379.511 84.007v365.699c0 3.26-2.667 5.924-5.958 5.924h35.098c3.291 0 5.958-2.665 5.958-5.924v-365.699c0-3.26-2.667-5.924-5.958-5.924h-35.098c3.291 0 5.958 2.664 5.958 5.924z" fill="#d7e7ec" fill-rule="evenodd"/></g><g><path clip-rule="evenodd" d="m208.559 7.5c-11.236 0-20.429 9.184-20.429 20.41 0 11.225 9.193 20.381 20.429 20.381h96.272c11.236 0 20.429-9.156 20.429-20.381s-9.193-20.41-20.429-20.41z" fill="#b5c4cf" fill-rule="evenodd"/></g><g><path clip-rule="evenodd" d="m188.13 27.91c0 11.225 9.193 20.381 20.429 20.381h96.272c11.236 0 20.429-9.156 20.429-20.381z" fill="#9aafb7" fill-rule="evenodd"/></g><g><path clip-rule="evenodd" d="m414.496 68.417v14.513c.085.34.113.709.113 1.077v365.699c0 .368-.028.737-.113 1.077v13.181c0 22.28-18.244 40.536-40.574 40.536h46.504c22.302 0 40.574-18.255 40.574-40.536v-395.547c0-22.28-18.273-40.507-40.574-40.507h-46.504c22.329 0 40.574 18.226 40.574 40.507z" fill="#fe9900" fill-rule="evenodd"/></g><g><path d="m171.616 156.785h-16.91c-4.143 0-7.5 3.357-7.5 7.5s3.357 7.5 7.5 7.5h16.91c4.143 0 7.5-3.357 7.5-7.5s-3.357-7.5-7.5-7.5z"/><path d="m171.616 210.189h-16.91c-4.143 0-7.5 3.357-7.5 7.5s3.357 7.5 7.5 7.5h16.91c4.143 0 7.5-3.357 7.5-7.5s-3.357-7.5-7.5-7.5z"/><path d="m171.616 263.566h-16.91c-4.143 0-7.5 3.357-7.5 7.5s3.357 7.5 7.5 7.5h16.91c4.143 0 7.5-3.357 7.5-7.5s-3.357-7.5-7.5-7.5z"/><path d="m171.616 316.971h-16.91c-4.143 0-7.5 3.357-7.5 7.5s3.357 7.5 7.5 7.5h16.91c4.143 0 7.5-3.357 7.5-7.5s-3.357-7.5-7.5-7.5z"/><path d="m171.616 370.348h-16.91c-4.143 0-7.5 3.357-7.5 7.5s3.357 7.5 7.5 7.5h16.91c4.143 0 7.5-3.357 7.5-7.5s-3.357-7.5-7.5-7.5z"/><path d="m221.469 171.785h138.066c4.143 0 7.5-3.357 7.5-7.5s-3.357-7.5-7.5-7.5h-138.066c-4.143 0-7.5 3.357-7.5 7.5s3.357 7.5 7.5 7.5z"/><path d="m221.469 225.189h138.066c4.143 0 7.5-3.357 7.5-7.5s-3.357-7.5-7.5-7.5h-138.066c-4.143 0-7.5 3.357-7.5 7.5s3.357 7.5 7.5 7.5z"/><path d="m221.469 278.566h138.066c4.143 0 7.5-3.357 7.5-7.5s-3.357-7.5-7.5-7.5h-138.066c-4.143 0-7.5 3.357-7.5 7.5s3.357 7.5 7.5 7.5z"/><path d="m221.469 331.971h138.066c4.143 0 7.5-3.357 7.5-7.5s-3.357-7.5-7.5-7.5h-138.066c-4.143 0-7.5 3.357-7.5 7.5s3.357 7.5 7.5 7.5z"/><path d="m221.469 385.348h138.066c4.143 0 7.5-3.357 7.5-7.5s-3.357-7.5-7.5-7.5h-138.066c-4.143 0-7.5 3.357-7.5 7.5s3.357 7.5 7.5 7.5z"/><path d="m420.43 20.41h-68.64-20.06c-3.29-11.76-14.1-20.41-26.9-20.41h-96.27c-12.8 0-23.61 8.65-26.9 20.41h-21.45-68.64c-26.5 0-48.07 21.54-48.07 48.01v186.63c0 4.14 3.36 7.5 7.5 7.5s7.5-3.36 7.5-7.5v-186.63c0-18.2 14.84-33.01 33.07-33.01h61.14v35.173h-49.389c-7.405 0-13.431 6.022-13.431 13.425v365.698c0 7.402 6.025 13.425 13.433 13.425l135.569-.028c4.142-.001 7.499-3.359 7.498-7.502-.001-4.142-3.359-7.499-7.502-7.498l-133.998.028v-362.548h47.926c1.318 17.627 16.088 31.577 34.064 31.577h138.21c17.995 0 32.775-13.95 34.094-31.577h47.926v362.548l-133.572-.028c-.001 0-.001 0-.002 0-4.142 0-7.499 3.357-7.5 7.498-.001 4.143 3.356 7.501 7.498 7.502l135.117.028c7.421 0 13.459-6.022 13.459-13.425v-365.698c0-7.402-6.038-13.425-13.459-13.425h-49.36v-35.173h61.14c18.23 0 33.07 14.81 33.07 33.01v395.54c0 18.22-14.84 33.04-33.07 33.04h-328.861c-18.23 0-33.07-14.82-33.07-33.04v-174.27c0-4.14-3.36-7.5-7.5-7.5s-7.5 3.36-7.5 7.5v174.27c0 26.49 21.57 48.04 48.07 48.04h328.86c26.5 0 48.07-21.55 48.07-48.04v-395.54c0-26.47-21.57-48.01-48.07-48.01zm-222.39 0c2.35-3.27 6.19-5.41 10.52-5.41h96.27c4.33 0 8.17 2.14 10.52 5.41 1.52 2.11 2.41 4.71 2.41 7.5 0 2.8-.9 5.39-2.43 7.5-2.35 3.26-6.18 5.38-10.5 5.38h-96.27c-4.32 0-8.15-2.12-10.5-5.38-1.53-2.11-2.43-4.7-2.43-7.5 0-2.79.89-5.39 2.41-7.5zm127.05 81.75h-138.21c-9.697 0-17.716-7.237-18.977-16.577h176.195c-1.264 9.34-9.292 16.577-19.008 16.577zm-157.38-31.577v-35.173h13.95c.03.1.06.2.09.3 3.39 11.59 14.12 20.08 26.81 20.08h96.27c12.73 0 23.49-8.55 26.84-20.2.02-.06.05-.12.06-.18h12.56v35.173z"/></g></g></svg>