<svg id="Capa_1" enable-background="new 0 0 512 512" height="512" viewBox="0 0 512 512" width="512" xmlns="http://www.w3.org/2000/svg"><g><g><path clip-rule="evenodd" d="m68.53 86.546c-6.236.085-12.472 4.251-15.449 12.526l-25.852 49.707 41.301 14.991 41.301-14.991-25.852-49.707c-2.976-8.275-9.213-12.441-15.449-12.526z" fill="#fe636e" fill-rule="evenodd"/></g><g><path clip-rule="evenodd" d="m109.831 148.779-25.852-49.707c-2.976-8.275-9.213-12.441-15.449-12.526-4.677.057-9.326 2.409-12.614 7.056 1.106 1.559 2.069 3.401 2.835 5.47l25.852 49.707h5.556z" fill="#fb2a39" fill-rule="evenodd"/></g><g><path clip-rule="evenodd" d="m109.831 148.779h-82.602c-3.061 0-5.556 2.522-5.556 5.583v36.699 38.853 76.743h93.714l32.825-76.148-32.825-81.731h-5.556z" fill="#edf3f4" fill-rule="evenodd"/></g><g><path clip-rule="evenodd" d="m484.742 148.779h-82.573c-3.061 0-4.28 2.806-5.584 5.583l-29.962 63.367 29.962 68.921h93.742v-95.589-36.699c0-3.061-2.523-5.583-5.585-5.583z" fill="#edf3f4" fill-rule="evenodd"/></g><g><path clip-rule="evenodd" d="m349.728 86.546c-6.265.085-12.473 4.251-15.449 12.526l-25.852 49.707 40.649 12.611 41.953-12.611-25.852-49.707c-2.977-8.275-9.213-12.441-15.449-12.526z" fill="#6bd9e7" fill-rule="evenodd"/></g><g><path clip-rule="evenodd" d="m391.029 148.779h-82.602c-3.061 0-5.556 2.522-5.556 5.583l-29.622 56.112 29.622 76.176 50.995 23.408 42.718-23.408v-95.759-36.529c.001-3.061-2.494-5.583-5.555-5.583z" fill="#edf3f4" fill-rule="evenodd"/></g><g><path clip-rule="evenodd" d="m209.129 191.061h93.742v38.853h-93.742z" fill="#fdb440" fill-rule="evenodd"/></g><g><path clip-rule="evenodd" d="m255.986 86.546c-6.236.085-12.444 4.251-15.449 12.526l-25.824 49.707h82.573l-25.852-49.707c-2.976-8.275-9.184-12.441-15.448-12.526z" fill="#fdb440" fill-rule="evenodd"/></g><g><path clip-rule="evenodd" d="m297.287 148.779h-82.573-5.584l-21.742 83.006 21.742 74.872h93.742l28.488-76.743-28.488-75.553c-1.106-2.862-2.524-5.582-5.585-5.582z" fill="#edf3f4" fill-rule="evenodd"/></g><g><path clip-rule="evenodd" d="m209.129 191.061h93.742v38.853h-93.742z" fill="#fdb440" fill-rule="evenodd"/></g><g><path clip-rule="evenodd" d="m162.272 31.001c-6.265.085-12.472 4.251-15.449 12.526l-25.852 49.707 45.354 17.06 37.219-17.06-25.852-49.707c-2.976-8.275-9.184-12.441-15.42-12.526z" fill="#80d261" fill-rule="evenodd"/></g><g><path clip-rule="evenodd" d="m203.545 93.234h-82.573c-3.061 0-5.584 2.494-5.584 5.555v187.861h93.742c0-62.602 0-125.231 0-187.861-.001-3.061-2.524-5.555-5.585-5.555z" fill="#edf3f4" fill-rule="evenodd"/></g><g><path clip-rule="evenodd" d="m209.129 135.488h-93.742v13.291 25.562h93.742v-25.562z" fill="#80d261" fill-rule="evenodd"/></g><g><path clip-rule="evenodd" d="m203.545 93.234-25.852-49.707c-2.976-8.275-9.184-12.441-15.421-12.526-5.811.057-11.622 3.684-14.797 10.854.255.538.482 1.077.68 1.672l25.852 49.707z" fill="#4fc122" fill-rule="evenodd"/></g><g><path clip-rule="evenodd" d="m203.545 93.234h-29.537c3.061 0 5.584 2.494 5.584 5.555v5.441 31.258h29.537c0-12.214 0-24.457 0-36.699 0-3.061-2.523-5.555-5.584-5.555z" fill="#d7e7ec" fill-rule="evenodd"/></g><g><path clip-rule="evenodd" d="m209.129 135.488h-29.537v13.291 25.562h22.847 6.69v-25.562z" fill="#4fc122" fill-rule="evenodd"/></g><g><path clip-rule="evenodd" d="m202.439 174.341h-22.847v112.309h23.726 5.811c0-18.902 0-37.833 0-56.735v-38.853c0-5.583 0-11.137 0-16.72h-6.69z" fill="#d7e7ec" fill-rule="evenodd"/></g><g><path clip-rule="evenodd" d="m21.673 191.061h93.714v38.853h-93.714z" fill="#fe636e" fill-rule="evenodd"/></g><g><path clip-rule="evenodd" d="m109.831 148.779h-19.672v25.562 16.72h25.228v-16.72-25.562z" fill="#d7e7ec" fill-rule="evenodd"/></g><g><path clip-rule="evenodd" d="m90.159 191.061h25.228v38.853h-25.228z" fill="#fb2a39" fill-rule="evenodd"/></g><g><path clip-rule="evenodd" d="m90.159 229.914h25.228v56.735h-25.228z" fill="#d7e7ec" fill-rule="evenodd"/></g><g><path clip-rule="evenodd" d="m396.585 191.061h93.742v38.853h-93.742z" fill="#fcd79b" fill-rule="evenodd"/></g><g><path clip-rule="evenodd" d="m443.442 86.546c-6.236.085-12.444 4.251-15.421 12.526l-25.852 49.707h82.573l-25.852-49.707c-2.976-8.275-9.184-12.441-15.448-12.526z" fill="#fcd79b" fill-rule="evenodd"/></g><g><path clip-rule="evenodd" d="m504.5 320.005h-497v146.826c0 7.793 6.378 14.17 14.173 14.17h468.653c7.795 0 14.173-6.376 14.173-14.17v-146.826z" fill="#edf3f4" fill-rule="evenodd"/></g><g><path clip-rule="evenodd" d="m302.871 191.061h93.714v38.853h-93.714z" fill="#6bd9e7" fill-rule="evenodd"/></g><g><path clip-rule="evenodd" d="m21.673 286.65c-7.795 0-14.173 6.376-14.173 14.17v29.189h497v-29.189c0-7.793-6.378-14.17-14.173-14.17-156.218 0-312.436 0-468.654 0z" fill="#fe636e" fill-rule="evenodd"/></g><g><path clip-rule="evenodd" d="m271.435 99.072c-2.976-8.275-9.184-12.441-15.449-12.526-6.236.085-12.444 4.251-15.449 12.526l-1.247 2.437 24.576 47.27h33.421z" fill="#fe9900" fill-rule="evenodd"/></g><g><path clip-rule="evenodd" d="m297.287 148.779h-33.421c3.061 0 5.556 2.522 5.556 5.583v36.699h33.449v-36.699c-1.105-2.863-2.523-5.583-5.584-5.583z" fill="#d7e7ec" fill-rule="evenodd"/></g><g><path clip-rule="evenodd" d="m269.422 191.061h33.449v38.853h-33.449z" fill="#fe9900" fill-rule="evenodd"/></g><g><path clip-rule="evenodd" d="m269.422 229.914h33.449v56.735h-33.449z" fill="#d7e7ec" fill-rule="evenodd"/></g><g><path clip-rule="evenodd" d="m426.83 101.367 24.662 47.412h33.25l-25.852-49.707c-2.976-8.275-9.184-12.441-15.449-12.526-6.236.085-12.444 4.251-15.421 12.526z" fill="#fbc56c" fill-rule="evenodd"/></g><g><path clip-rule="evenodd" d="m457.076 154.362v36.699h33.251v-36.699c0-3.061-2.523-5.583-5.584-5.583h-33.25c3.06 0 5.583 2.522 5.583 5.583z" fill="#d7e7ec" fill-rule="evenodd"/></g><g><path clip-rule="evenodd" d="m457.076 191.061h33.251v38.853h-33.251z" fill="#fbc56c" fill-rule="evenodd"/></g><g><path clip-rule="evenodd" d="m457.076 229.914h33.251v56.735h-33.251z" fill="#d7e7ec" fill-rule="evenodd"/></g><g><path clip-rule="evenodd" d="m334.279 99.072-1.247 2.409 24.605 47.298h33.392l-25.852-49.707c-2.976-8.275-9.213-12.441-15.449-12.526-6.265.085-12.473 4.251-15.449 12.526z" fill="#00c7dd" fill-rule="evenodd"/></g><g><path clip-rule="evenodd" d="m363.221 157.139v33.752.17h33.364v-36.699c0-3.061-2.495-5.583-5.556-5.583h-33.392c3.061 0 5.584 2.522 5.584 5.583z" fill="#d7e7ec" fill-rule="evenodd"/></g><g><path clip-rule="evenodd" d="m363.221 191.061v38.853h8.702 24.662v-38.853h-17.377z" fill="#00c7dd" fill-rule="evenodd"/></g><g><path clip-rule="evenodd" d="m363.221 229.914h33.364v56.735h-33.364z" fill="#d7e7ec" fill-rule="evenodd"/></g><g><path clip-rule="evenodd" d="m457.076 286.65h-25.937c7.795 0 14.173 6.376 14.173 14.17v19.186 10.004h59.188v-10.004-19.186c0-7.793-6.378-14.17-14.173-14.17z" fill="#fb2a39" fill-rule="evenodd"/></g><g><path clip-rule="evenodd" d="m445.312 330.009v136.822c0 7.793-6.378 14.17-14.173 14.17h59.188c7.795 0 14.173-6.376 14.173-14.17v-136.822z" fill="#d7e7ec" fill-rule="evenodd"/></g><g><path clip-rule="evenodd" d="m400.015 374.955h-288.03c-14.117 0-25.654 11.534-25.654 25.619 0 14.113 11.537 25.647 25.654 25.647h288.029c14.088 0 25.625-11.534 25.625-25.647.001-14.085-11.536-25.619-25.624-25.619z" fill="#6bd9e7" fill-rule="evenodd"/></g><g><path clip-rule="evenodd" d="m400.015 374.955h-54.369c14.088 0 25.625 11.534 25.625 25.619 0 14.113-11.537 25.647-25.625 25.647h54.369c14.088 0 25.625-11.534 25.625-25.647 0-14.085-11.537-25.619-25.625-25.619z" fill="#00c7dd" fill-rule="evenodd"/></g><g><path d="m497.827 280.489v-50.574-38.854-36.699c0-5.41-3.301-10.064-7.995-12.053l-24.07-46.279c-3.918-10.358-12.389-16.851-22.219-16.983-.068-.002-.137-.002-.204 0-9.813.134-18.272 6.626-22.19 16.983l-24.092 46.323c-.154.066-.314.119-.464.191-.158-.075-.31-.159-.471-.228l-24.074-46.286c-3.918-10.357-12.388-16.85-22.218-16.983-.067-.003-.136-.003-.204 0-9.831.133-18.301 6.625-22.219 16.983l-24.073 46.286c-.161.069-.314.153-.471.228-.163-.077-.321-.164-.487-.235l-24.07-46.279c-3.917-10.358-12.388-16.851-22.219-16.983-.068-.002-.137-.002-.204 0-9.799.133-18.269 6.623-22.214 16.976l-17.041 32.801v-30.035c0-5.399-3.302-10.043-7.997-12.027l-24.068-46.276c-3.917-10.357-12.377-16.85-22.19-16.983-.067-.003-.136-.003-.204 0-9.83.133-18.301 6.625-22.219 16.983l-24.068 46.276c-4.695 1.984-7.997 6.629-7.997 12.027v29.997l-17.034-32.756c-3.918-10.357-12.388-16.85-22.218-16.983-.067-.002-.137-.002-.204 0-9.83.134-18.301 6.626-22.219 16.983l-24.073 46.286c-4.676 1.993-7.963 6.641-7.963 12.046v36.699 38.854 50.574c-8.266 3.058-14.174 11.016-14.174 20.33v166.012c0 11.949 9.723 21.67 21.673 21.67h468.653c11.951 0 21.673-9.721 21.673-21.67v-166.012c.001-9.314-5.907-17.272-14.172-20.33zm-63.152-177.956c.155-.298.29-.606.403-.923 1.67-4.644 4.792-7.463 8.364-7.563 3.589.101 6.721 2.92 8.392 7.563.113.316.248.625.403.923l20.151 38.746h-57.865zm-30.591 53.746h78.742v27.282h-78.742zm0 42.282h78.742v23.854h-78.742zm0 38.854h78.742v41.735h-78.742zm-63.151-134.882c.155-.298.29-.606.403-.923 1.67-4.644 4.802-7.463 8.392-7.563 3.59.101 6.722 2.92 8.392 7.563.113.316.248.625.403.923l20.151 38.746h-57.893zm-30.562 53.746h78.713v27.282h-78.713zm0 42.282h78.713v23.854h-78.713zm0 38.854h78.713v41.735h-78.713zm-63.179-134.885c.151-.291.283-.591.395-.898 1.691-4.657 4.825-7.484 8.399-7.585 3.589.101 6.721 2.92 8.391 7.563.114.316.249.624.404.923l20.151 38.746h-57.871zm-30.563 71.81v-18.062h78.742v27.282h-78.742zm0 24.221h78.742v23.854h-78.742zm78.742 38.854v41.735h-78.742v-41.735zm-141.894-190.427c.155-.298.29-.606.403-.923 1.67-4.644 4.802-7.463 8.391-7.563 3.572.101 6.694 2.92 8.364 7.563.113.316.248.625.403.923l20.151 38.746h-57.865zm-30.59 53.746h78.742v27.254h-78.742zm0 42.254h78.742v23.853h-78.742zm0 38.852h78.742v97.31h-78.742zm-63.152-79.307c.155-.298.29-.606.403-.923 1.67-4.644 4.802-7.462 8.392-7.563 3.589.102 6.721 2.92 8.392 7.563.113.316.248.625.403.923l20.151 38.746h-57.893zm-30.562 53.746h78.713v18.062 9.221h-78.713zm0 42.282h78.713v23.854h-78.713zm0 38.854h78.713v41.735h-78.713zm467.827 85.093h-226.189c-4.142 0-7.5 3.357-7.5 7.5s3.358 7.5 7.5 7.5h226.189v129.322c0 3.678-2.994 6.67-6.673 6.67h-468.654c-3.68 0-6.673-2.992-6.673-6.67v-129.322h221.824c4.142 0 7.5-3.357 7.5-7.5s-3.358-7.5-7.5-7.5h-221.824v-21.689c0-3.678 2.994-6.669 6.673-6.669h468.653c3.68 0 6.673 2.991 6.673 6.669v21.689z"/><path d="m78.832 400.574c0 18.277 14.873 33.146 33.154 33.146h128.892c4.142 0 7.5-3.357 7.5-7.5s-3.358-7.5-7.5-7.5h-128.893c-10.01 0-18.154-8.141-18.154-18.146 0-9.991 8.144-18.119 18.154-18.119h288.029c9.995 0 18.125 8.128 18.125 18.119 0 10.006-8.131 18.146-18.125 18.146h-125.518c-4.142 0-7.5 3.357-7.5 7.5s3.358 7.5 7.5 7.5h125.519c18.266 0 33.125-14.869 33.125-33.146 0-18.262-14.86-33.119-33.125-33.119h-288.03c-18.281 0-33.153 14.857-33.153 33.119z"/></g></g></svg>