<svg id="Capa_1" enable-background="new 0 0 512 512" height="512" viewBox="0 0 512 512" width="512" xmlns="http://www.w3.org/2000/svg"><g><g><path clip-rule="evenodd" d="m254.36 424.278 45.254-57.147 3.825-4.847 89.941-113.614-17.115-13.55c-45.792-36.256-86.512-68.543-136.555-108.172l-89.941 113.586-49.079 62.023c-3.344 4.224-3.06 2.778-3.627 8.136l-7.538 69.535 36.413 51.053 55.852 22.026 65.486-23.613c5.072-1.844 3.741-1.192 7.084-5.416z" fill="#fdb440" fill-rule="evenodd"/></g><g><path clip-rule="evenodd" d="m181.79 453.306 65.486-23.613c5.072-1.843 3.74-1.191 7.084-5.414l45.254-57.147 3.825-4.847 89.941-113.614-17.115-13.55-89.941 113.586-3.825 4.876-45.254 57.147c-3.344 4.224-2.012 3.572-7.084 5.414l-65.486 23.613z" fill="#fe9900" fill-rule="evenodd"/></g><g><path clip-rule="evenodd" d="m111.089 498.831 21.536-26.93-.057-.057-17.399-28.574-32.956-11.282-53.443 64.829c-3.23 3.912-1.644 7.682 1.559 7.682h70.077c2.862.001 6.433-.367 10.683-5.668z" fill="#fdb440" fill-rule="evenodd"/></g><g><path clip-rule="evenodd" d="m111.089 498.831 21.536-26.93-.057-.057-18.816-14.882.057.057-32.927 41.812c-4.194 5.329-7.821 5.669-10.683 5.669h30.207c2.862 0 6.433-.368 10.683-5.669z" fill="#fe9900" fill-rule="evenodd"/></g><g><path clip-rule="evenodd" d="m181.79 453.306-92.265-73.078-18.277 23.102c-5.327 6.747-4.194 16.64 2.55 21.997l8.416 6.662 50.355 39.856 8.954 7.115c6.744 5.329 16.634 4.195 21.961-2.551z" fill="#edf3f4" fill-rule="evenodd"/></g><g><path clip-rule="evenodd" d="m163.484 476.408 18.306-23.103-17.115-13.55-4.109 5.188-14.197 17.915c-5.327 6.718-15.16 7.88-21.904 2.58l.028.028 8.076 6.378 8.954 7.115c6.744 5.33 16.634 4.196 21.961-2.551z" fill="#d7e7ec" fill-rule="evenodd"/></g><g><path clip-rule="evenodd" d="m393.381 248.67 84.189-106.386c11.788-14.882 9.266-36.709-5.611-48.501l-7.566-5.981c-.935 1.701-2.012 3.345-3.259 4.904l-101.984 128.836z" fill="#edf3f4" fill-rule="evenodd"/></g><g><path clip-rule="evenodd" d="m295.024 170.772c12.27-22.082 74.469-140.402 84.954-149.87l-7.566-5.981c-14.877-11.792-36.725-9.241-48.513 5.641l-84.189 106.386z" fill="#edf3f4" fill-rule="evenodd"/></g><g><path clip-rule="evenodd" d="m359.15 221.542 101.984-128.837c1.247-1.559 2.324-3.203 3.259-4.904 8.189-14.882 4.676-34.073-9.039-44.93l-29.612-23.443c-13.715-10.857-33.182-9.893-45.764 1.474-1.445 1.304-2.805 2.75-4.052 4.309l-101.985 128.837-3.145 3.997c-12.128 15.307-9.521 37.73 5.781 49.834l29.584 23.443c15.302 12.132 37.716 9.525 49.816-5.783z" fill="#b5c4cf" fill-rule="evenodd"/></g><g><path clip-rule="evenodd" d="m359.15 221.542 101.984-128.837c1.247-1.559 2.324-3.203 3.259-4.904 8.189-14.882 4.676-34.073-9.039-44.93l-21.564-17.065c10.485 11.169 12.582 28.007 5.242 41.386-.085.113-.142.227-.198.34-.907 1.587-1.927 3.118-3.089 4.592l-101.985 128.838-.227.283-2.919 3.713c-12.128 15.279-34.543 17.887-49.845 5.783l-8.048-6.378c1.19 1.247 2.465 2.438 3.854 3.515l29.584 23.443c15.302 12.132 37.716 9.525 49.816-5.783z" fill="#9aafb7" fill-rule="evenodd"/></g><g><path clip-rule="evenodd" d="m393.381 248.67 84.189-106.386c11.788-14.882 9.266-36.709-5.611-48.501l-7.566-5.981c-.368.68-.793 1.361-1.219 2.041 6.943 11.934 6.347 27.468-2.72 38.892l-84.189 106.385z" fill="#d7e7ec" fill-rule="evenodd"/></g><g><path d="m249.323 241.4c-3.244-2.569-7.963-2.022-10.535 1.226l-78.89 99.668c-2.57 3.248-2.021 7.965 1.227 10.536 1.377 1.09 3.019 1.62 4.649 1.62 2.213 0 4.405-.976 5.886-2.846l78.89-99.668c2.57-3.249 2.021-7.966-1.227-10.536z"/><path d="m192.976 378.058c1.377 1.09 3.019 1.62 4.649 1.62 2.213 0 4.405-.976 5.886-2.846l78.889-99.668c2.57-3.248 2.021-7.965-1.227-10.536-3.245-2.569-7.963-2.022-10.535 1.226l-78.889 99.668c-2.57 3.248-2.021 7.965 1.227 10.536z"/><path d="m476.623 87.909-2.971-2.359c-.012-.009-.016-.025-.011-.039 6.211-16.952 1.258-36.719-13.633-48.52l-29.608-23.44c-8.957-7.099-20.186-10.277-31.622-8.95-6.808.791-13.174 3.131-18.715 6.778-.013.008-.029.008-.041-.002l-2.952-2.334c-8.766-6.949-19.753-10.054-30.941-8.755-11.182 1.302-21.164 6.848-28.111 15.619l-148.577 187.728c-2.527 3.193-2.295 7.914.789 10.572 1.425 1.228 3.168 1.824 4.896 1.824 2.213 0 4.405-.976 5.886-2.846l59.896-75.678c.012-.015.034-.018.05-.006l22.488 17.803c.015.011.017.032.007.047-6.073 8.593-8.74 19.014-7.518 29.617 1.319 11.454 6.998 21.68 15.984 28.788l29.583 23.442c7.639 6.057 16.918 9.266 26.561 9.266 1.684 0 3.379-.098 5.077-.295 10.612-1.234 20.162-6.221 27.15-14.113.012-.014.033-.016.048-.004l22.474 17.81c.015.012.018.034.006.05l-85.263 107.725s-47.827 60.486-50.683 64.102c-.091.115-.201.194-.339.243-3.957 1.432-63.34 22.846-63.34 22.846-.012.004-.024.002-.034-.006l-85.716-67.891c-.01-.008-.015-.019-.013-.032l7.092-65.419s.076-.727.141-1.331c.05-.465.234-.9.534-1.258.39-.467.952-1.146 1.375-1.68l53.046-67.012c2.57-3.248 2.021-7.964-1.226-10.535-3.247-2.57-7.964-2.022-10.536 1.225 0 0-54.084 68.285-54.45 68.719-2.804 3.321-3.235 4.889-3.732 9.642l-7.37 68.009c-.001.007-.003.013-.007.018l-16.934 21.404c-7.898 10.004-6.206 24.591 3.781 32.525l2.39 1.893c.016.012.018.035.005.05l-48.55 58.893c-3.567 4.321-4.476 9.495-2.428 13.842 1.777 3.772 5.52 6.116 9.769 6.116h70.078c4.533 0 10.51-.963 16.54-8.485l16.846-21.065c.012-.015.034-.018.05-.006l3.032 2.401c4.115 3.252 9.112 4.976 14.301 4.976.903 0 1.812-.052 2.723-.158 6.158-.712 11.653-3.769 15.465-8.597l16.973-21.422c.004-.005.01-.009.016-.011l64.235-23.162c4.368-1.579 5.758-2.355 8.334-5.809.336-.451 46.581-58.884 46.581-58.884l3.82-4.839 89.802-113.458c.044-.053.093-.099.136-.153.05-.064.092-.131.14-.196l84.05-106.192c14.383-18.163 11.32-44.646-6.829-59.031zm-371.385 406.23c-2.294 2.861-3.359 2.861-4.831 2.861h-61.992c-.03 0-.046-.035-.027-.058l44.912-54.479c.012-.015.034-.017.049-.005l38.679 30.63c.015.012.018.035.006.05zm52.359-22.378c-1.33 1.685-3.257 2.751-5.425 3.001-2.166.252-4.304-.347-5.993-1.682l-67.716-53.626c-3.521-2.797-4.118-7.946-1.334-11.472l13.599-17.189c.012-.015.034-.018.05-.006l80.447 63.717c.015.012.018.034.006.05zm173.81-240.491c-7.448.867-14.758-1.203-20.589-5.826l-29.589-23.448c-5.843-4.622-9.534-11.278-10.394-18.744-.857-7.441 1.213-14.735 5.833-20.541l44.829-56.41c2.577-3.243 2.037-7.96-1.206-10.538s-7.96-2.038-10.538 1.206l-36.985 46.539c-.012.015-.034.018-.05.006l-22.452-17.775c-.015-.012-.018-.034-.006-.05l79.518-100.47c4.459-5.629 10.883-9.192 18.087-10.031 7.196-.841 14.266 1.153 19.895 5.617l1.256.993c.015.012.018.034.006.05l-39.074 49.365c-2.611 3.3-2.003 8.116 1.384 10.657 3.299 2.476 8.033 1.615 10.593-1.62l39.88-50.383c4.608-5.819 11.251-9.501 18.704-10.367 7.45-.866 14.759 1.196 20.578 5.808l29.609 23.44c10.847 8.596 13.593 23.692 7.115 35.443-.05.091-.101.182-.147.274-.7 1.237-1.502 2.435-2.409 3.584l-105.163 132.839c-4.608 5.829-11.244 9.516-18.685 10.382zm140.282-93.641-79.519 100.466c-.012.015-.034.018-.05.006l-22.416-17.764c-.015-.012-.018-.034-.006-.05l96.287-121.627c.012-.015.034-.018.05-.006l1.265 1.005c11.674 9.254 13.644 26.286 4.389 37.97z"/></g></g></svg>