<svg id="Capa_1" enable-background="new 0 0 512 512" height="512" viewBox="0 0 512 512" width="512" xmlns="http://www.w3.org/2000/svg"><g><g><path clip-rule="evenodd" d="m433.456 504.5c23.593 0 44.948-19.417 42.909-42.945l-22.658-260.987c-10.083-44.788-43.249-21.6-43.249-95.358v-9.383l-158.097-10.176-150.847 10.177v9.383c0 73.758-33.138 50.57-43.22 95.358l-22.659 260.986c-2.039 23.528 19.316 42.945 42.909 42.945h177.442z" fill="#b5c4cf" fill-rule="evenodd"/></g><g><path clip-rule="evenodd" d="m255.986 95.828h154.472 7.166c8.242 0 14.954-6.718 14.954-14.967v-58.394c0-8.249-6.712-14.967-14.954-14.967h-323.276c-8.214 0-14.954 6.718-14.954 14.967v58.394c0 8.249 6.741 14.967 14.954 14.967h7.166z" fill="#edf3f4" fill-rule="evenodd"/></g><g><path clip-rule="evenodd" d="m172.122 391.227c-18.353-21.543-29.456-52.98-29.456-80.051s6.628-45.638 18.07-64.375h-106.464l-12.547 144.426z" fill="#fdb440" fill-rule="evenodd"/></g><g><path clip-rule="evenodd" d="m340.02 391.227h130.228l-12.519-144.426h-106.324c11.471 18.737 18.07 37.304 18.07 64.375s-11.074 58.508-29.455 80.051z" fill="#fdb440" fill-rule="evenodd"/></g><g><path clip-rule="evenodd" d="m350.017 391.227c18.353-21.543 29.456-49.521 29.456-80.051 0-23.584-6.599-45.638-18.07-64.375-21.695-35.462-60.752-59.131-105.332-59.131s-83.637 23.669-105.304 59.131c-11.471 18.737-18.07 40.791-18.07 64.375 0 30.529 11.074 58.507 29.427 80.051 22.63 26.589 56.334 43.427 93.946 43.427 37.642 0 71.318-16.838 93.947-43.427z" fill="#edf3f4" fill-rule="evenodd"/></g><g><path clip-rule="evenodd" d="m255.986 371.441c34.044 0 65.171-39.373 33.591-85.465l-30.164-44.079c-1.898-2.75-4.956-2.75-6.826 0l-30.192 44.079c-31.58 46.092-.453 85.465 33.591 85.465z" fill="#b5c4cf" fill-rule="evenodd"/></g><g><path clip-rule="evenodd" d="m432.578 80.861v-58.394c0-8.249-6.712-14.967-14.954-14.967h-65.114c8.214 0 14.954 6.718 14.954 14.967v58.394c0 8.249-6.741 14.967-14.954 14.967h57.948 7.166c8.242 0 14.954-6.718 14.954-14.967z" fill="#d7e7ec" fill-rule="evenodd"/></g><g><path clip-rule="evenodd" d="m453.707 200.568c-10.083-44.788-43.249-21.6-43.249-95.358v-9.383h-57.948-96.524-154.472v9.383c0 12.869-.991 22.791-2.719 30.643h116.35 146.542c7.364 0 8.015 1.474 8.015 8.05 1.19 68.882 43.674 39.487 43.135 96.662l.538 6.236h44.353z" fill="#9aafb7" fill-rule="evenodd"/></g><g><path clip-rule="evenodd" d="m470.247 391.227-12.518-144.425h-44.354l12.547 144.425z" fill="#fe9900" fill-rule="evenodd"/></g><g><path clip-rule="evenodd" d="m476.365 461.555-6.118-70.328h-44.212l6.089 70.328c2.039 23.528-19.288 42.945-42.909 42.945h44.24c23.594 0 44.949-19.417 42.91-42.945z" fill="#9aafb7" fill-rule="evenodd"/></g><g><path clip-rule="evenodd" d="m255.986 371.441c34.044 0 65.171-39.373 33.591-85.465l-30.164-44.079c-1.898-2.75-4.956-2.75-6.826 0l-10.083 14.712 14.445 21.09c29.739 43.427 3.852 80.901-27.728 85.096 7.789 5.528 17.164 8.646 26.765 8.646z" fill="#9aafb7" fill-rule="evenodd"/></g><g><path clip-rule="evenodd" d="m379.473 311.177c0-23.584-6.599-45.638-18.07-64.375-21.695-35.462-60.752-59.131-105.332-59.131-5.098 0-10.14.312-15.096.907 35.035 6.463 64.887 27.723 82.844 57.09 11.471 18.737 18.07 40.791 18.07 64.375 0 30.558-11.074 58.507-29.456 80.079-19.543 22.961-47.356 38.665-78.822 42.491 7.279 1.361 14.784 2.041 22.46 2.041 37.641 0 71.317-16.838 93.946-43.427 18.354-21.543 29.456-49.521 29.456-80.05z" fill="#d7e7ec" fill-rule="evenodd"/></g><g><path d="m483.837 460.906-22.659-260.986c-.029-.336-.081-.67-.155-.999-4.698-20.869-14.264-29.072-22.704-36.311-10.926-9.37-20.362-17.462-20.362-57.4v-1.891c12.227-.18 22.12-10.182 22.12-22.458v-58.394c.001-12.388-10.072-22.467-22.453-22.467h-323.276c-12.381 0-22.454 10.079-22.454 22.467v58.394c0 12.276 9.893 22.278 22.12 22.458v1.891c0 39.942-9.429 48.034-20.347 57.403-8.434 7.238-17.993 15.441-22.69 36.308-.074.329-.126.663-.155.999l-22.659 260.987c-1.077 12.424 3.201 24.577 12.046 34.222 9.833 10.722 23.805 16.871 38.335 16.871h354.912c14.53 0 28.502-6.149 38.335-16.871 8.845-9.645 13.123-21.798 12.046-34.223zm-422.68-206.604h77.03c-8.32 17.211-12.989 36.507-12.989 56.875 0 26.813 8.098 51.767 21.967 72.55h-97.245zm79.04 56.875c0-63.966 51.98-116.006 115.874-116.006 63.909 0 115.902 52.04 115.902 116.006 0 63.95-51.993 115.978-115.902 115.978-63.893-.001-115.874-52.028-115.874-115.978zm246.776 0c0-20.368-4.67-39.664-12.992-56.875h76.863l11.236 129.425h-97.079c13.872-20.784 21.972-45.737 21.972-72.55zm-303.537-137.18c11.989-10.289 25.578-21.951 25.578-68.786v-1.883h130.29c4.142 0 7.5-3.358 7.5-7.5s-3.358-7.5-7.5-7.5h-144.956c-4.11 0-7.455-3.35-7.455-7.467v-58.394c0-4.117 3.344-7.467 7.455-7.467h323.275c4.11 0 7.455 3.35 7.455 7.467v58.394c0 4.117-3.344 7.467-7.455 7.467h-143.737c-4.142 0-7.5 3.358-7.5 7.5s3.358 7.5 7.5 7.5h129.072v1.883c0 46.835 13.599 58.498 25.597 68.787 7.558 6.481 14.096 12.089 17.724 27.735l3.262 37.569h-84.085c-23.427-35.59-63.708-59.131-109.385-59.131-45.668 0-85.939 23.541-109.361 59.131h-84.25l3.262-37.569c3.627-15.647 10.161-21.254 17.714-27.736zm377.3 310.994c-6.896 7.52-17.094 12.009-27.28 12.009h-354.912c-10.186 0-20.384-4.489-27.28-12.009-5.97-6.509-8.867-14.603-8.157-22.787l5.511-63.477h110.201c23.973 26.645 58.689 43.427 97.252 43.427 38.571 0 73.294-16.782 97.273-43.427h110.038l5.511 63.476c.71 8.185-2.187 16.278-8.157 22.788z"/><path d="m255.986 378.941c19.754 0 38.553-11.45 47.893-29.171 10.638-20.183 7.68-44.98-8.112-68.029l-30.181-44.104c-2.335-3.383-5.887-5.326-9.634-5.301-3.779.013-7.266 1.961-9.551 5.322l-18.75 27.354c-2.342 3.417-1.47 8.084 1.946 10.427 3.418 2.342 8.085 1.471 10.427-1.946l15.974-23.305 27.392 40.029c12.728 18.577 15.292 37.244 7.219 52.561-6.776 12.857-20.366 21.165-34.623 21.165-13.132 0-25.775-7.041-32.997-18.375-7.984-12.53-8.275-28.239-.82-44.233 1.75-3.754.125-8.216-3.629-9.966-3.754-1.752-8.217-.126-9.966 3.629-9.556 20.501-8.913 41.872 1.765 58.63 9.949 15.614 27.44 25.313 45.647 25.313z"/></g></g></svg>