<svg id="Capa_1" enable-background="new 0 0 512 512" height="512" viewBox="0 0 512 512" width="512" xmlns="http://www.w3.org/2000/svg"><g><g><path clip-rule="evenodd" d="m305.025 343.378 42.066-24.973 30.558-18.17 43.965-26.107c0-61.71 0-133.427 0-195.138v-2.665l-75.685-68.825h-256.394c-3.175 0-5.754 2.58-5.754 5.754v256.933l123.166 73.191 29.622 17.603c22.45 13.351 16.016 13.578 38.41.255z" fill="#edf3f4" fill-rule="evenodd"/></g><g><path clip-rule="evenodd" d="m363.334 76.325h58.28v-.907c-.028-1.644-.709-1.928-3.288-4.394l-62.901-60.01c-2.948-2.806-3.43-3.515-5.187-3.515h-4.309v56.892c0 12.7 11.764 11.934 17.405 11.934z" fill="#d7e7ec" fill-rule="evenodd"/></g><g><path clip-rule="evenodd" d="m25.585 225.627v261.497c0 9.553 7.795 17.376 17.376 17.376h426.077c9.553 0 17.376-7.824 17.376-17.376v-261.497c-70.47 41.868-140.967 83.736-211.437 125.604-22.394 13.323-15.959 13.096-38.41-.255-70.326-41.784-140.654-83.567-210.982-125.349z" fill="#fcd79b" fill-rule="evenodd"/></g><g><path clip-rule="evenodd" d="m25.585 487.124c0 9.553 7.795 17.376 17.376 17.376h45.043l30.104-43.342h-92.523z" fill="#fbc56c" fill-rule="evenodd"/></g><g><path clip-rule="evenodd" d="m88.004 504.5h335.992l-30.133-43.342h-275.755z" fill="#fbc56c" fill-rule="evenodd"/></g><g><path clip-rule="evenodd" d="m393.863 461.158 30.132 43.342h45.043c9.553 0 17.376-7.824 17.376-17.376v-261.497l-44.334 26.334v191.821c0 9.553-7.824 17.376-17.376 17.376z" fill="#fbc56c" fill-rule="evenodd"/></g><g><path clip-rule="evenodd" d="m421.615 179.847v84.274l20.466-12.161 44.334-26.334c0-3.912-3.94-8.306-9.411-11.679z" fill="#fdb440" fill-rule="evenodd"/></g><g><path clip-rule="evenodd" d="m25.585 225.627 58.195 34.554v-80.334c-2.551 1.843-46.12 32.088-48.643 33.987-5.215 3.884-9.552 7.853-9.552 11.793z" fill="#fdb440" fill-rule="evenodd"/></g><g><path d="m138.149 130.2h226.375c4.142 0 7.5-3.358 7.5-7.5s-3.358-7.5-7.5-7.5h-226.375c-4.142 0-7.5 3.358-7.5 7.5s3.358 7.5 7.5 7.5z"/><path d="m138.149 185.221h226.375c4.142 0 7.5-3.358 7.5-7.5s-3.358-7.5-7.5-7.5h-226.375c-4.142 0-7.5 3.358-7.5 7.5s3.358 7.5 7.5 7.5z"/><path d="m138.149 240.213h226.375c4.142 0 7.5-3.358 7.5-7.5s-3.358-7.5-7.5-7.5h-226.375c-4.142 0-7.5 3.358-7.5 7.5s3.358 7.5 7.5 7.5z"/><path d="m493.909 225.49c-.002-.119-.008-.238-.016-.357-.227-6.319-4.798-12.541-12.957-17.572l-51.821-31.904v-100.239c0-.043 0-.086-.001-.129-.079-4.55-2.525-6.819-4.492-8.642-.32-.297-.689-.638-1.118-1.049l-62.907-60.015-.97-.931c-2.481-2.392-4.826-4.652-9.389-4.652h-260.703c-7.32 0-13.254 5.934-13.254 13.254v74.521c0 4.107 3.164 7.688 7.269 7.811 4.247.128 7.731-3.278 7.731-7.497v-73.089h247.148v49.392c0 5.73 1.741 10.364 5.173 13.774 5.345 5.31 13.008 5.668 17.75 5.668.393 0 .766-.002 1.116-.005l51.647-.003v176.021l-40.089 23.811c-3.323 1.974-4.818 6.146-3.212 9.662 1.291 2.824 4.026 4.41 6.842 4.41 1.302 0 2.622-.339 3.823-1.053l43.701-25.956c.031-.016.059-.036.089-.053l53.646-31.863v248.319c0 5.455-4.422 9.876-9.876 9.876h-41.122l-112.129-161.286 34.862-20.706c3.53-2.097 4.994-6.645 3.006-10.237-2.058-3.718-6.764-4.976-10.395-2.821 0 0-77.354 46.193-86.471 51.216-.532.293-1.175.293-1.705-.004-12.677-7.122-163.805-97.228-163.805-97.228v-132.891c0-4.107-3.164-7.688-7.269-7.811-4.247-.128-7.731 3.278-7.731 7.497v53.221c-3.328 2.325-8.834 6.16-14.564 10.151-17.259 12.019-29.591 20.614-31.058 21.718-6.357 4.733-12.235 10.097-12.544 17.225-.012.154-.021.308-.023.462 0 .041-.006.08-.006.121v261.497c0 13.739 11.138 24.876 24.876 24.876h381.033 45.044c13.739 0 24.876-11.138 24.876-24.876v-261.498c.001-.045-.005-.09-.005-.136zm-253.679 136.522c7.063 4.408 11.344 6.618 15.659 6.618 4.356 0 8.747-2.254 16.064-6.776 1.97-1.218 4.203-2.598 6.854-4.175l24.05-14.284 106.79 153.605h-307.296l106.766-153.61 23.618 14.032c2.951 1.754 5.365 3.261 7.495 4.59zm-169.941-163.602c2.18-1.518 4.174-2.907 5.992-4.174v52.786l-40.515-24.07c.94-.84 2.193-1.868 3.882-3.125 1.405-1.057 18.303-12.825 30.641-21.417zm-37.204 288.714v-248.318l163.104 96.903-112.105 161.291h-41.123c-5.445 0-9.876-4.431-9.876-9.876zm329.284-418.294c-2.218.012-6.836.045-8.195-1.305-.473-.47-.745-1.612-.745-3.133v-44.92l51.728 49.354h-41.823zm66.746 124.442 43.953 27.059c1.407.868 2.52 1.716 3.389 2.487l-47.342 28.119z"/></g></g></svg>