<svg id="Capa_1" enable-background="new 0 0 512 512" height="512" viewBox="0 0 512 512" width="512" xmlns="http://www.w3.org/2000/svg"><g><g><path clip-rule="evenodd" d="m479.662 101.162c19.143-23.894 21.667-56.716 0-78.343-21.638-21.626-54.479-19.132-78.358 0-76.741 61.365-155.354 136.589-274.351 305.519l10.436 36.564 36.584 10.431c169.024-118.931 244.291-197.501 305.689-274.171zm-53.344-24.999c7.827 7.823 20.504 7.823 28.331 0 7.827-7.851 7.827-20.521 0-28.344s-20.504-7.823-28.331 0c-7.856 7.823-7.856 20.492 0 28.344z" fill="#fdb440" fill-rule="evenodd"/></g><g><path clip-rule="evenodd" d="m254.6 163.462 84.342 84.295c13.754-11.989 26.488-23.582 38.342-34.835l-87.83-87.781c-11.259 11.848-22.858 24.574-34.854 38.321z" fill="#fe636e" fill-rule="evenodd"/></g><g><path clip-rule="evenodd" d="m91.249 356.484c-30.09-.737-56.124 29.676-67.156 64.284-7.232 22.647-8.763 42.771-5.303 67.685 5.842 41.977 11.004-10.969 55.5-18.027 40.015-6.349 74.983-27.324 73.82-57.085l-13.613-50.651z" fill="#fcd79b" fill-rule="evenodd"/></g><g><path clip-rule="evenodd" d="m91.249 356.484 56.861 56.858 3.346 3.345c8.791 8.787 23.17 8.787 31.961 0s8.791-23.157 0-31.944l-9.444-9.41-23.51-23.497-23.51-23.497-9.415-9.439c-8.791-8.787-23.17-8.787-31.961 0s-8.791 23.157 0 31.944z" fill="#6bd9e7" fill-rule="evenodd"/></g><g><path clip-rule="evenodd" d="m133.675 398.915 14.435 14.427 3.346 3.345c8.791 8.787 23.17 8.787 31.961 0s8.791-23.157 0-31.944l-9.444-9.41-8.366-8.39c2.155 2.182 3.8 4.705 4.878 7.398 3.318 8.163 1.673 17.913-4.935 24.489-5.303 5.329-12.705 7.426-19.653 6.292-4.48-.709-8.762-2.806-12.222-6.207z" fill="#00c7dd" fill-rule="evenodd"/></g><g><path clip-rule="evenodd" d="m130.272 395.513c1.134 29.733-33.805 50.736-73.82 57.056-19.313 3.061-31.224 14.767-38.994 23.61.312 3.968.766 8.05 1.333 12.273 5.842 41.977 11.004-10.969 55.5-18.027 40.015-6.349 74.983-27.324 73.82-57.085l-14.435-14.427c-.028-.028-.057-.057-.057-.085z" fill="#fbc56c" fill-rule="evenodd"/></g><g><path clip-rule="evenodd" d="m359.446 195.094c-11.883 11.253-24.588 22.817-38.342 34.835l17.838 17.828c13.754-11.989 26.488-23.582 38.342-34.835z" fill="#fb2a39" fill-rule="evenodd"/></g><g><path clip-rule="evenodd" d="m461.824 83.305c-28.501 35.572-59.952 71.568-102.378 111.788l17.838 17.828c42.426-40.22 73.905-76.188 102.378-111.76 19.143-23.894 21.667-56.716 0-78.343-3.12-3.118-6.466-5.725-9.983-7.88 12.706 20.919 8.508 47.931-7.855 68.367z" fill="#fe9900" fill-rule="evenodd"/></g><g><path clip-rule="evenodd" d="m165.608 366.943v.028zm-9.472-9.467 9.472 9.467v.028l8.366 8.361c68.687-48.326 121.89-89.992 164.968-127.576l-17.838-17.828c-43.079 37.584-96.281 79.222-164.968 127.548z" fill="#fe9900" fill-rule="evenodd"/></g></g><g><path d="m421.026 42.485c-5.216 5.194-8.093 12.102-8.1 19.451-.007 7.362 2.867 14.291 8.09 19.511h-.001c5.367 5.364 12.414 8.046 19.464 8.046 7.052-.001 14.107-2.685 19.48-8.056 10.721-10.753 10.717-28.222-.009-38.942-10.734-10.729-28.199-10.73-38.924-.01zm28.32 28.353c-4.885 4.885-12.839 4.887-17.726 0-.001 0-.001 0-.001 0-2.385-2.384-3.697-5.541-3.694-8.89.003-3.335 1.311-6.472 3.695-8.845 2.443-2.443 5.653-3.665 8.863-3.665 3.211 0 6.42 1.222 8.865 3.665 4.882 4.881 4.878 12.841-.002 17.735z"/><path d="m484.963 17.495c-11.818-11.812-26.957-17.859-43.808-17.478-15.532.349-31.35 6.361-44.534 16.925-55.578 44.439-118.908 100.819-205.221 211.5-2.548 3.266-1.965 7.979 1.302 10.526 3.265 2.546 7.978 1.964 10.525-1.302 18.249-23.401 35.452-44.337 51.762-63.233l72.97 72.93c-41.063 35.42-90.655 74.016-153.132 118.171l-38.091-38.069c14.732-20.826 29.353-40.9 43.517-59.747 2.488-3.311 1.821-8.012-1.49-10.5-3.311-2.49-8.013-1.822-10.501 1.489-13.773 18.327-27.974 37.81-42.287 58.003l-3.136-3.135c-11.733-11.728-30.828-11.729-42.564 0-5.669 5.666-8.791 13.221-8.791 21.276 0 5.776 1.613 11.291 4.612 16.041-10.872 3.01-21.361 9.489-30.917 19.199-12.219 12.416-22.244 29.597-28.23 48.375-7.545 23.629-9.217 44.863-5.588 71.001 1.621 11.646 3.315 20.048 10.396 22.116.971.284 1.894.416 2.781.416 5.25 0 9.2-4.627 13.671-9.863 7.242-8.481 18.185-21.298 37.255-24.323 35.071-5.564 69.951-22.94 78.295-50.322 4.282 2.18 8.978 3.276 13.678 3.276 7.706-.001 15.415-2.933 21.281-8.797 5.669-5.666 8.792-13.222 8.792-21.276s-3.123-15.61-8.792-21.276l-3.128-3.126c159.481-112.913 235.45-189.95 299.924-270.461 10.576-13.202 16.595-29.021 16.948-44.541.383-16.842-5.67-31.987-17.499-43.795zm-411.849 445.505c-24.376 3.866-37.99 19.652-46.154 29.212-.231-1.336-.48-2.923-.743-4.81-3.3-23.77-1.8-43.021 5.02-64.377 8.899-27.917 30.309-57.597 56.917-59.021l52.434 52.405c-1.456 24.863-35.425 41.506-67.474 46.591zm105.001-51.638c-4.058 4.057-10.236 5.458-15.654 3.578-3.826-1.328-6.407-4.28-9.185-7.056l-56.726-56.723c-3.492-3.492-7.808-6.811-9.357-11.681-2.71-8.523 2.736-17.793 11.554-19.448 4.867-.914 9.983.65 13.488 4.152l65.879 65.842c5.795 5.792 5.797 15.544.001 21.336zm295.693-314.908c-27.922 34.867-58.051 69.092-96.404 105.965l-27.801-27.785c-2.93-2.928-7.677-2.928-10.606.003-2.928 2.929-2.927 7.678.003 10.605l27.518 27.501c-8.645 8.095-17.702 16.33-27.231 24.735l-74.413-74.372c8.458-9.585 16.674-18.62 24.668-27.161l23.926 24.513c1.47 1.506 3.418 2.262 5.368 2.262 1.888 0 3.779-.709 5.237-2.133 2.965-2.893 3.022-7.641.129-10.605l-24.333-24.93c39.921-41.556 74.313-70.966 106.125-96.402 22.523-18.043 50.637-18.269 68.37-.544 17.732 17.701 17.504 45.806-.556 68.348z"/></g></svg>