<svg id="Capa_1" enable-background="new 0 0 512 512" height="512" viewBox="0 0 512 512" width="512" xmlns="http://www.w3.org/2000/svg"><g><g><path clip-rule="evenodd" d="m255.986 14.536c-101.112 0-188.136 60.324-226.914 146.959-13.862 30.927-21.572 65.224-21.572 101.305 0 36.11 7.71 70.407 21.572 101.334 15.506 34.637 38.75 65.082 67.521 89.127 47.792 39.961 126.397 24.385 153.808-18.494 14.882-23.28 12.274-38.772 17.745-69.217 2.409-13.481 10.913-21.156 20.778-22.657 53.575 17.757 67.862 28.774 125.859 110.878 54.822-45.541 89.717-114.163 89.717-190.971 0-137.103-111.26-248.264-248.514-248.264z" fill="#edf3f4" fill-rule="evenodd"/></g><g><path clip-rule="evenodd" d="m140.814 249.15c-36.482 0-66.047 29.539-66.047 65.989s29.565 65.989 66.047 65.989 66.047-29.539 66.047-65.989-29.565-65.989-66.047-65.989z" fill="#6bd9e7" fill-rule="evenodd"/></g><g><path clip-rule="evenodd" d="m80.918 162.062c1.134 19.967 18.255 35.232 38.268 34.099 19.984-1.133 35.263-18.239 34.129-38.234-1.134-19.967-18.255-35.26-38.268-34.099-19.984 1.133-35.292 18.239-34.129 38.234z" fill="#fdb440" fill-rule="evenodd"/></g><g><path clip-rule="evenodd" d="m196.288 112.499c1.134 19.967 18.284 35.26 38.268 34.127 20.013-1.161 35.291-18.267 34.158-38.262-1.134-19.967-18.284-35.232-38.268-34.099-20.013 1.133-35.292 18.268-34.158 38.234z" fill="#fe636e" fill-rule="evenodd"/></g><g><path clip-rule="evenodd" d="m316.562 148.637c1.134 19.995 18.284 35.26 38.268 34.127 19.984-1.161 35.291-18.267 34.158-38.234-1.162-19.995-18.284-35.26-38.268-34.127-20.013 1.133-35.291 18.268-34.158 38.234z" fill="#80d261" fill-rule="evenodd"/></g><g><path clip-rule="evenodd" d="m378.103 252.973c1.134 19.967 18.255 35.232 38.268 34.099 19.984-1.133 35.263-18.239 34.129-38.234-1.134-19.967-18.255-35.26-38.268-34.099-19.984 1.133-35.291 18.239-34.129 38.234z" fill="#fcd79b" fill-rule="evenodd"/></g><g><path clip-rule="evenodd" d="m254.285 14.536c121.011 16.681 214.215 120.422 214.215 245.942 0 64.629-24.718 123.481-65.225 167.662 4.167 8.751 7.937 17.248 11.509 25.631 54.821-45.541 89.716-114.163 89.716-190.971 0-137.104-111.26-248.265-248.514-248.265-.567.001-1.134.001-1.701.001z" fill="#d7e7ec" fill-rule="evenodd"/></g><g><path clip-rule="evenodd" d="m121.935 157.927c.879 15.095-7.654 28.576-20.495 34.75 5.329 2.549 11.395 3.852 17.745 3.484 19.984-1.133 35.263-18.239 34.129-38.234-1.134-19.967-18.255-35.26-38.268-34.099-4.876.255-9.468 1.501-13.635 3.484 11.51 5.522 19.759 16.964 20.524 30.615z" fill="#fe9900" fill-rule="evenodd"/></g><g><path clip-rule="evenodd" d="m125.11 251.019c28.913 7.052 50.372 33.079 50.372 64.119s-21.458 57.067-50.372 64.12c5.046 1.218 10.29 1.869 15.704 1.869 36.482 0 66.047-29.539 66.047-65.989s-29.565-65.989-66.047-65.989c-5.414.001-10.658.652-15.704 1.87z" fill="#00c7dd" fill-rule="evenodd"/></g><g><path clip-rule="evenodd" d="m237.334 108.364c.85 15.124-7.654 28.576-20.523 34.75 5.357 2.577 11.395 3.852 17.745 3.512 20.013-1.161 35.291-18.267 34.158-38.262-1.134-19.967-18.284-35.232-38.268-34.099-4.904.283-9.496 1.501-13.635 3.484 11.509 5.551 19.729 16.993 20.523 30.615z" fill="#fb2a39" fill-rule="evenodd"/></g><g><path clip-rule="evenodd" d="m357.608 144.531c.85 15.095-7.682 28.548-20.523 34.722 5.358 2.577 11.395 3.852 17.745 3.512 19.984-1.161 35.291-18.267 34.158-38.234-1.162-19.995-18.284-35.26-38.268-34.127-4.904.283-9.496 1.501-13.635 3.484 11.509 5.55 19.73 16.992 20.523 30.643z" fill="#4fc122" fill-rule="evenodd"/></g><g><path clip-rule="evenodd" d="m398.597 218.223c11.509 5.523 19.758 16.964 20.523 30.615.879 15.095-7.654 28.576-20.495 34.75 5.329 2.549 11.395 3.852 17.745 3.484 19.984-1.133 35.263-18.239 34.129-38.234-1.134-19.967-18.255-35.26-38.268-34.099-4.875.255-9.467 1.501-13.634 3.484z" fill="#fbc56c" fill-rule="evenodd"/></g><g><path clip-rule="evenodd" d="m288.925 342.893c7.115 17.673 14.003 33.363 20.721 47.495l40.309-2.521 14.542-28.265c-15.392-23.535-34.696-50.1-59.868-81.396h-22.961l-10.233 18.55c6.009 16.768 11.82 32.09 17.49 46.137z" fill="#fdb440" fill-rule="evenodd"/></g><g><path clip-rule="evenodd" d="m326.144 422.901c12.813 23.45 25.228 42.312 37.814 59.871 2.92 4.107 6.52 7.505 10.517 9.997 8.816 5.523 19.559 6.655 29.254 1.218.709-.368 1.361-.793 2.013-1.218 12.387-8.326 15.194-24.413 9.241-38.517-.085-.17-.142-.312-.198-.481-3.572-8.383-7.342-16.88-11.509-25.631-5.754-12.065-12.274-24.611-20.041-38.092l-30.473.34z" fill="#fdb440" fill-rule="evenodd"/></g><g><path clip-rule="evenodd" d="m237.362 250.254c.737 22.346 16.101 41.916 34.073 46.504l33.194-18.55c5.669-17.446-6.52-38.545-29.197-48.996-25.2-11.612-19.389-43.841-29.877-19.967-6.237 14.189-8.675 26.367-8.193 41.009z" fill="#fcd79b" fill-rule="evenodd"/></g><g><path clip-rule="evenodd" d="m256.241 240.257c18 8.326 29.424 23.365 30.473 37.951.283 3.625-.113 7.194-1.162 10.677l19.077-10.677c5.669-17.446-6.52-38.545-29.197-48.996-25.2-11.612-19.389-43.841-29.877-19.967-2.438 5.551-4.28 10.762-5.613 15.945 3.26 5.437 8.164 11.328 16.299 15.067z" fill="#fbc56c" fill-rule="evenodd"/></g><g><path clip-rule="evenodd" d="m285.438 289.253c24.775 30.814 43.88 57.067 59.131 80.319.198.283.397.595.567.878l.34-.17 19.021-10.677c-15.392-23.535-34.696-50.1-59.868-81.396l-19.077 10.677c-.057.114-.086.227-.114.369z" fill="#fe9900" fill-rule="evenodd"/></g><g><path clip-rule="evenodd" d="m364.015 401.094c7.795 13.481 14.287 26.027 20.041 38.092 4.167 8.751 7.965 17.248 11.509 25.659l.198.453c3.912 9.233 4.054 19.287.255 27.472-.765 1.614-1.672 3.144-2.721 4.616 3.515-.396 7.03-1.501 10.432-3.399.709-.368 1.361-.793 2.013-1.218 12.387-8.326 15.194-24.413 9.241-38.517-.085-.17-.142-.312-.198-.481-3.572-8.383-7.342-16.88-11.509-25.631-5.754-12.065-12.274-24.611-20.041-38.092l-11.395 6.571z" fill="#fe9900" fill-rule="evenodd"/></g><g><path clip-rule="evenodd" d="m345.476 370.28-35.83 20.108c5.584 11.838 11.084 22.572 16.498 32.513l45.695-26.282 11.395-6.571c-5.556-9.629-11.735-19.712-18.737-30.445z" fill="#fe636e" fill-rule="evenodd"/></g><g><path clip-rule="evenodd" d="m345.277 370.648c2.608 3.993 5.102 7.902 7.512 11.725 1.672 2.691 3.288 5.353 4.876 7.958 2.211 3.653 4.337 7.25 6.35 10.762l7.824-4.475 11.395-6.571c-5.556-9.629-11.735-19.712-18.737-30.445l-19.021 10.677-.34.17c.056.058.085.142.141.199z" fill="#fb2a39" fill-rule="evenodd"/></g><g><path d="m69.982 295.272c-1.802 6.433-2.716 13.116-2.716 19.866 0 40.522 32.993 73.489 73.547 73.489 40.555 0 73.548-32.967 73.548-73.489 0-40.521-32.993-73.488-73.548-73.488-19.773 0-38.326 7.728-52.239 21.761-2.916 2.941-2.896 7.689.046 10.606 2.94 2.917 7.689 2.898 10.606-.046 11.075-11.17 25.844-17.321 41.587-17.321 32.283 0 58.548 26.237 58.548 58.488s-26.265 58.489-58.548 58.489-58.547-26.238-58.547-58.489c0-5.382.727-10.704 2.159-15.819 1.117-3.989-1.21-8.128-5.198-9.245-3.989-1.117-8.127 1.21-9.245 5.198z"/><path d="m234.99 154.114c24.089-1.397 42.576-22.111 41.212-46.176-1.368-24.063-22.092-42.523-46.182-41.161h.001c-11.676.661-22.394 5.827-30.18 14.548-7.782 8.717-11.704 19.939-11.042 31.6 1.32 23.239 20.662 41.262 43.682 41.261.832-.001 1.669-.024 2.509-.072zm-31.214-42.039c-.436-7.66 2.142-15.032 7.255-20.76 5.117-5.731 12.162-9.127 19.838-9.562h.001c.553-.031 1.103-.047 1.649-.047 15.125 0 27.84 11.829 28.706 27.082.897 15.816-11.262 29.432-27.095 30.35-15.828.899-29.455-11.243-30.354-27.063z"/><path d="m320.116 117.462c-7.782 8.717-11.704 19.939-11.042 31.6 1.318 23.239 20.66 41.262 43.682 41.261.832 0 1.669-.023 2.509-.071 24.09-1.399 42.577-22.101 41.211-46.156-1.399-24.07-22.075-42.511-46.181-41.18h.001c-11.676.661-22.394 5.827-30.18 14.546zm11.19 9.991c5.117-5.73 12.162-9.126 19.838-9.561h.001c.551-.031 1.098-.047 1.644-.047 15.106 0 27.824 11.847 28.712 27.11.897 15.799-11.262 29.4-27.095 30.32-15.818.883-29.458-11.242-30.354-27.063-.437-7.66 2.14-15.032 7.254-20.759z"/><path d="m117.105 203.719c.829 0 1.666-.023 2.505-.07 11.666-.661 22.375-5.824 30.153-14.537 7.78-8.715 11.7-19.94 11.039-31.61-.663-11.665-5.832-22.373-14.557-30.15-8.724-7.774-19.948-11.678-31.624-11.012-11.687.663-22.41 5.837-30.195 14.571-7.769 8.716-11.674 19.933-10.997 31.575 1.32 23.224 20.663 41.235 43.676 41.233zm-21.481-62.828c5.116-5.739 12.165-9.14 19.848-9.575.003-.001.006-.001.01-.001.569-.033 1.138-.05 1.703-.05 7.054 0 13.774 2.554 19.08 7.283 5.731 5.109 9.127 12.142 9.562 19.803.436 7.669-2.141 15.046-7.252 20.771-5.11 5.725-12.146 9.116-19.813 9.551-15.839.896-29.458-11.232-30.356-27.047-.446-7.649 2.118-15.013 7.218-20.735z"/><path d="m411.808 207.251c-11.686.663-22.409 5.837-30.194 14.57-7.77 8.716-11.676 19.934-10.999 31.577 1.319 23.224 20.661 41.234 43.675 41.232.83 0 1.667-.023 2.506-.07 11.666-.661 22.375-5.824 30.154-14.537 7.78-8.714 11.7-19.939 11.039-31.609-.663-11.666-5.832-22.374-14.557-30.151-8.724-7.776-19.949-11.688-31.624-11.012zm21.642 22.208c5.73 5.109 9.127 12.143 9.562 19.804.436 7.669-2.141 15.045-7.252 20.77s-12.147 9.116-19.813 9.551c-15.813.894-29.457-11.23-30.356-27.046-.444-7.649 2.12-15.014 7.221-20.735 5.116-5.739 12.164-9.14 19.847-9.575.003-.001.006-.001.01-.001.569-.033 1.138-.05 1.703-.05 7.052-.001 13.772 2.553 19.078 7.282z"/><path d="m512 262.8c0-55.475-17.491-108.264-50.583-152.659-2.476-3.321-7.176-4.007-10.496-1.531-3.321 2.476-4.006 7.175-1.531 10.496 31.147 41.786 47.61 91.475 47.61 143.694 0 68.379-28.828 132.893-79.409 178.585-20.249-45.894-47.276-93.089-104.771-164.943 3.984-20.272-10.064-42.898-34.25-54.043-9.837-4.532-13.747-13.024-16.602-19.226-2.164-4.699-4.614-10.022-10.715-10.022-.03 0-.062 0-.093 0-6.755.06-9.793 6.975-12.473 13.075-6.703 15.253-9.342 28.494-8.822 44.274.773 23.422 15.875 45.136 35.777 52.31 4.551 12.602 8.992 24.378 13.349 35.432-9.357 4.579-16.066 13.891-18.227 25.981-1.534 8.535-2.452 15.961-3.263 22.512-2.124 17.172-3.527 28.517-13.42 43.991-12.021 18.805-35.65 32.564-63.211 36.809-29.797 4.587-58.758-2.712-79.469-20.029-54.935-45.92-86.427-113.242-86.401-184.706 0-132.758 108.105-240.764 240.985-240.764 65.791 0 127.231 25.976 173.004 73.144 2.883 2.972 7.631 3.045 10.605.158 2.972-2.884 3.043-7.633.158-10.604-23.602-24.321-51.288-43.439-82.29-56.822-32.086-13.853-66.228-20.876-101.477-20.876-68.37 0-132.652 26.604-181.003 74.913-48.353 48.309-74.982 112.537-74.982 180.848-.028 75.92 33.426 147.438 91.782 196.218 19.366 16.193 44.771 24.861 71.738 24.861 6.475 0 13.041-.5 19.634-1.516 31.757-4.891 59.259-21.173 73.566-43.554 11.724-18.34 13.464-32.413 15.668-50.229.787-6.36 1.679-13.569 3.141-21.708 1.236-6.916 4.446-12.007 9.075-14.668 12.09 29.454 23.582 53.492 34.998 74.361.015.026.025.053.041.08.005.009.012.016.017.025 12.589 23.001 25.089 42.156 38.199 60.469 8.246 11.524 20.454 17.828 32.604 17.828 5.8 0 11.589-1.438 16.925-4.43 15.179-8.483 21.554-26.613 16.211-44.433 56.241-48.711 88.401-118.85 88.401-193.301zm-192.572 130.698 42.598-23.908c3.879 6.074 7.518 11.976 10.926 17.721l-43.852 25.235c-3.208-6.056-6.428-12.387-9.672-19.048zm-23.452-53.158c-.029-.079-.063-.155-.094-.233-4.955-12.306-10.02-25.552-15.232-39.908l22.095-12.348c20.716 25.982 37.333 48.638 51.056 69.154l-40.808 22.904c-5.562-12.062-11.214-25.168-17.017-39.569zm-51.118-90.333c-.413-12.544 1.428-22.837 6.305-34.78 3.68 6.891 9.806 15.578 21.13 20.796 17.735 8.173 28.366 23.745 25.879 37.201l-27.6 15.423c-14.073-5.148-25.148-21.505-25.714-38.64zm155.202 237.44c-11.538 6.473-23.641-.148-30.003-9.041-11.563-16.152-22.646-32.991-33.759-52.694l44.134-25.397c11.151 19.975 19.827 38.393 27.64 56.855 4.243 10.053 3.55 23.814-8.012 30.277z"/></g></g></svg>