<svg id="Capa_1" enable-background="new 0 0 511.998 511.998" height="512" viewBox="0 0 511.998 511.998" width="512" xmlns="http://www.w3.org/2000/svg"><g><g><path clip-rule="evenodd" d="m210.47 208.227c-7.824-7.824-7.852-20.722 0-28.546 7.824-7.852 20.694-7.852 28.518 0l180.094 180.062c23.699 23.727 23.699 62.647 0 86.346-23.727 23.727-62.649 23.727-86.348 0l-228.625-228.621c-38.553-38.552-38.553-101.823 0-140.376s101.826-38.552 140.379 0l147.438 147.434c7.909 7.909 20.864 7.909 28.773 0 7.909-7.937 7.909-20.864 0-28.801l-147.438-147.405c-54.428-54.427-143.497-54.427-197.925 0-54.456 54.427-54.456 143.494 0 197.921l228.598 228.621c39.517 39.516 104.405 39.516 143.922 0s39.517-104.375 0-143.891l-184.545-184.541c-23.642-23.613-62.45-23.642-86.093 0-23.642 23.642-23.642 62.477 0 86.091l103.328 103.354c7.937 7.909 20.864 7.909 28.801 0 7.909-7.909 7.909-20.864 0-28.772z" fill="#6bd9e7" fill-rule="evenodd"/></g><g><path clip-rule="evenodd" d="m447.856 330.971-109.735-109.733c2.495 20.07 4.025 40.792 4.479 62.024l76.483 76.481c23.699 23.727 23.699 62.647 0 86.346-23.727 23.727-62.649 23.727-86.348 0l-6.945-6.917c-3.799 15.109-8.193 29.651-13.125 43.456 39.829 31.551 98.452 28.971 135.191-7.767 39.517-39.516 39.517-104.374 0-143.89z" fill="#00c7dd" fill-rule="evenodd"/></g><g><path clip-rule="evenodd" d="m420.699 195.726-125.213-125.182c12.87 26.278 23.5 56.269 31.438 88.982l65.002 65c7.909 7.909 20.864 7.909 28.773 0 7.909-7.937 7.909-20.863 0-28.8z" fill="#00c7dd" fill-rule="evenodd"/></g><g><path d="m375.895 511.998c-29.296 0-56.736-11.306-77.265-31.833l-151.293-151.289c-2.929-2.93-2.929-7.678 0-10.607 2.929-2.928 7.677-2.929 10.607 0l151.292 151.289c18.375 18.375 42.521 27.563 66.658 27.565 24.143.003 48.278-9.186 66.657-27.565 17.696-17.695 27.441-41.362 27.441-66.642s-9.745-48.947-27.441-66.642l-69.563-69.535c-2.93-2.929-2.931-7.678-.003-10.606 2.929-2.932 7.678-2.933 10.606-.003l69.565 69.536c20.53 20.529 31.836 47.964 31.836 77.25s-11.306 56.72-31.834 77.249c-20.528 20.527-47.967 31.833-77.263 31.833zm.004-40.614c-18.378 0-35.592-7.101-48.471-19.995l-228.623-228.618c-20.062-20.063-31.111-46.872-31.111-75.491s11.05-55.429 31.111-75.491c20.063-20.063 46.874-31.111 75.493-31.111 28.62 0 55.431 11.05 75.493 31.111l147.438 147.434c2.408 2.409 5.634 3.735 9.083 3.735s6.675-1.326 9.083-3.735c4.995-5.012 4.995-13.182-.009-18.203l-147.428-147.396c-51.645-51.643-135.676-51.643-187.32 0-24.917 24.904-38.638 58.161-38.634 93.645.003 35.48 13.725 68.746 38.636 93.67l52.813 52.869c2.928 2.931 2.926 7.68-.005 10.606-2.932 2.928-7.681 2.925-10.606-.005l-52.812-52.868c-27.741-27.755-43.021-64.786-43.025-104.271-.005-39.493 15.277-76.517 43.029-104.254 27.739-27.739 64.768-43.016 104.264-43.016 39.497 0 76.525 15.277 104.267 43.017l147.437 147.405c10.831 10.87 10.831 28.54.01 39.398-5.251 5.251-12.244 8.138-19.699 8.138s-14.448-2.887-19.69-8.128l-147.439-147.434c-35.775-35.778-93.992-35.779-129.771 0-17.229 17.229-26.719 40.271-26.719 64.884s9.489 47.655 26.719 64.884l228.626 228.621c10.048 10.061 23.492 15.599 37.86 15.599s27.821-5.539 37.88-15.599c20.87-20.868 20.869-54.847-.003-75.742l-180.09-180.058c-2.377-2.385-5.554-3.693-8.957-3.693-3.402 0-6.579 1.309-8.946 3.684-2.384 2.375-3.688 5.548-3.691 8.953-.003 3.423 1.305 6.617 3.682 8.994l98.879 98.876c5.241 5.241 8.128 12.234 8.128 19.689 0 7.456-2.887 14.448-8.128 19.69-10.87 10.829-28.539 10.827-39.399.01l-103.339-103.365c-12.85-12.833-19.929-30.002-19.929-48.338 0-18.334 7.078-35.509 19.93-48.359 26.642-26.642 70.021-26.645 96.695-.003l92.077 92.075c2.93 2.93 2.93 7.678.001 10.607-2.93 2.928-7.679 2.928-10.606 0l-92.075-92.072c-20.822-20.797-54.686-20.799-75.486 0-10.018 10.018-15.535 23.425-15.535 37.752 0 14.326 5.517 27.725 15.532 37.729l103.331 103.358c5.013 4.994 13.185 4.995 18.204-.011 2.399-2.398 3.726-5.624 3.726-9.073 0-3.448-1.326-6.674-3.734-9.082l-98.879-98.876c-5.214-5.214-8.082-12.18-8.075-19.615.007-7.417 2.878-14.358 8.086-19.547 5.182-5.201 12.133-8.076 19.552-8.076 7.42 0 14.371 2.875 19.572 8.096l180.084 180.052c26.717 26.748 26.716 70.239 0 96.953-12.892 12.891-30.112 19.991-48.487 19.991z"/></g></g></svg>