<svg id="Capa_1" enable-background="new 0 0 512 512" height="512" viewBox="0 0 512 512" width="512" xmlns="http://www.w3.org/2000/svg"><g><g><path clip-rule="evenodd" d="m10.125 249.035 26.019-29.478c2.664-3.007 2.664-5.078 0-8.086l-26.019-29.478c-3.458-3.887-3.458-10.015 0-13.902l26.019-29.506c3.458-3.887 3.429-9.987 0-13.902l-23.241-26.753c-2.296-2.61-2.267-2.979-2.267-6.469v-25.618c0-3.405 2.806-6.213 6.207-6.213h25.594c3.486 0 3.855-.028 6.462 2.27l26.727 23.264c3.911 3.433 10.005 3.461 13.888 0l29.477-26.045c3.883-3.461 10.005-3.461 13.888 0l29.448 26.045c3.911 3.461 10.005 3.461 13.916 0l29.448-26.045c3.911-3.461 10.005-3.461 13.916 0l29.448 26.045c3.826 3.405 10.062 3.405 13.888 0l29.477-26.045c3.883-3.461 10.005-3.461 13.888 0l29.477 26.045c3.883 3.461 10.005 3.461 13.888 0l29.448-26.045c3.911-3.461 10.005-3.461 13.916 0l29.448 26.045c3.883 3.461 9.977 3.433 13.888 0l26.727-23.264c2.608-2.298 3.004-2.27 6.462-2.27h25.594c3.43 0 6.207 2.809 6.207 6.213v25.619c0 3.49.057 3.858-2.239 6.469l-23.27 26.754c-3.401 3.915-3.43 10.015 0 13.902l26.047 29.506c3.43 3.887 3.43 10.015 0 13.902l-26.047 29.478c-2.636 3.007-2.636 5.078 0 8.086l26.047 29.478c3.43 3.915 3.43 10.015 0 13.93l-26.047 29.478c-2.636 3.007-2.636 5.078 0 8.086l26.047 29.478c3.43 3.887 3.43 10.015 0 13.902l-26.047 29.506c-3.43 3.887-3.401 9.987 0 13.902l23.27 26.754c2.296 2.61 2.239 2.979 2.239 6.469v25.619c0 3.433-2.778 6.213-6.207 6.213h-25.594c-3.458 0-3.855.057-6.462-2.27l-26.727-23.264c-3.911-3.405-10.005-3.433-13.888 0l-29.448 26.045c-3.911 3.461-10.005 3.461-13.916 0l-29.448-26.045c-3.883-3.433-10.005-3.433-13.888 0l-29.477 26.045c-3.883 3.461-10.005 3.461-13.888 0l-29.477-26.045c-3.826-3.405-10.062-3.405-13.888 0l-29.448 26.045c-3.911 3.461-10.005 3.461-13.916 0l-29.448-26.045c-3.911-3.433-10.005-3.433-13.916 0l-29.448 26.045c-3.883 3.461-10.005 3.461-13.888 0l-29.477-26.045c-3.883-3.433-9.977-3.405-13.888 0l-26.727 23.264c-2.608 2.326-2.976 2.27-6.462 2.27h-25.595c-3.401 0-6.207-2.78-6.207-6.213v-25.619c0-3.49-.028-3.858 2.267-6.469l23.241-26.754c3.429-3.915 3.458-10.015 0-13.902l-26.019-29.506c-3.458-3.887-3.458-10.015 0-13.902l26.019-29.478c2.664-3.007 2.664-5.078 0-8.086l-26.019-29.478c-3.457-3.917-3.457-10.017.001-13.932z" fill="#fcd79b" fill-rule="evenodd"/></g><g><path clip-rule="evenodd" d="m79.197 127.89h353.635c3.713 0 6.746 3.036 6.746 6.752v242.715c0 3.717-3.033 6.752-6.746 6.752h-353.635c-3.713 0-6.746-3.036-6.746-6.752v-242.714c0-3.717 3.033-6.753 6.746-6.753z" fill="#6bd9e7" fill-rule="evenodd"/></g><g><path clip-rule="evenodd" d="m79.197 384.11h311.545l-124.284-124.379-46.256-46.33c-15.504-15.519-40.87-15.519-56.374 0l-91.378 91.497v72.46c.001 3.716 3.034 6.752 6.747 6.752z" fill="#80d261" fill-rule="evenodd"/></g><g><path clip-rule="evenodd" d="m390.742 384.11h42.089c3.713 0 6.746-3.036 6.746-6.752v-38.329l-112.635-112.748c-7.426-7.433-19.642-7.433-27.067 0l-33.416 33.45z" fill="#80d261" fill-rule="evenodd"/></g><g><path clip-rule="evenodd" d="m243.076 384.11h147.667l-80.097-80.177-44.187-44.202-46.256-46.33c-8.134-8.142-18.99-12.001-29.703-11.604 13.264 21.108 24.8 45.025 33.785 71.07 13.264 38.386 19.272 76.573 18.791 111.243z" fill="#4fc122" fill-rule="evenodd"/></g><g><path clip-rule="evenodd" d="m432.831 384.11c3.713 0 6.746-3.036 6.746-6.752v-38.329l-93.985-94.079c12.471 20.314 23.326 43.152 31.857 67.949 8.304 24.087 13.775 48.089 16.581 71.212h38.801z" fill="#4fc122" fill-rule="evenodd"/></g><g><path clip-rule="evenodd" d="m475.856 211.472 26.047-29.478c3.43-3.887 3.43-10.015 0-13.902l-26.047-29.506c-3.43-3.887-3.401-9.987 0-13.902l23.27-26.754c2.296-2.61 2.239-2.979 2.239-6.469v-25.618c0-3.405-2.778-6.213-6.207-6.213h-25.594c-3.458 0-3.855-.028-6.462 2.27l-26.727 23.264c-3.911 3.433-10.005 3.461-13.888 0l-29.448-26.045c-3.911-3.461-10.005-3.461-13.916 0l-29.448 26.045c-2.381 2.099-5.584 2.922-8.588 2.468 9.92 11.49 18.933 25.052 26.756 40.259h64.99c3.713 0 6.746 3.036 6.746 6.752v204.386 38.329c0 3.717-3.033 6.752-6.746 6.752h-38.803-3.288-9.013c-6.831 18.299-15.362 34.755-25.254 48.742l22.646 20.03c3.911 3.461 10.005 3.461 13.916 0l29.448-26.045c3.883-3.433 9.977-3.405 13.888 0l26.727 23.264c2.608 2.326 3.004 2.27 6.462 2.27h25.594c3.43 0 6.207-2.78 6.207-6.213v-25.619c0-3.49.057-3.858-2.239-6.469l-23.27-26.754c-3.401-3.915-3.43-10.015 0-13.902l26.047-29.506c3.43-3.887 3.43-10.015 0-13.902l-26.047-29.478c-2.636-3.007-2.636-5.078 0-8.086l26.047-29.478c3.43-3.915 3.43-10.015 0-13.93l-26.047-29.478c-2.634-3.006-2.634-5.077.002-8.084z" fill="#fbc56c" fill-rule="evenodd"/></g><g><path clip-rule="evenodd" d="m439.577 339.028v-204.385c0-3.717-3.033-6.752-6.746-6.752h-64.99c18.621 36.202 30.582 81.851 32.509 131.784.51 13.42.255 26.612-.652 39.436z" fill="#00c7dd" fill-rule="evenodd"/></g><g><path d="m507.527 348.869c5.894-6.681 5.893-17.146-.004-23.828l-25.232-28.555 25.253-28.58c5.945-6.787 5.945-17.024-.021-23.836l-25.232-28.555 25.235-28.559c5.893-6.679 5.894-17.144-.001-23.826l-26.047-29.504c-.928-1.051-.91-2.93.036-4.019l23.242-26.723c3.543-4.028 4.109-6.217 4.107-11.177v-25.864c0-7.561-6.148-13.712-13.705-13.712h-25.718c-.003 0-.006 0-.01 0-4.68 0-7.014.377-11.252 4.112l-26.751 23.284c-1.074.942-2.919.959-3.973.019l-29.447-26.042c-6.8-6.019-17.057-6.019-23.855-.002l-29.469 26.063c-1.04.929-2.866.929-3.933-.021l-29.452-26.021c-6.692-5.966-17.176-5.967-23.844-.022l-29.495 26.059c-.988.881-2.929.88-3.935-.015l-29.447-26.042c-6.8-6.019-17.057-6.019-23.855-.002l-29.45 26.046c-1.077.954-2.899.952-3.978-.002l-29.426-26.023c-6.693-5.968-17.178-5.966-23.843-.022l-29.501 26.065c-1.032.923-2.879.902-3.975-.059l-26.692-23.233c-4.051-3.57-6.265-4.142-11.289-4.142-.002 0-.005 0-.007 0h-25.719c-7.558 0-13.706 6.152-13.706 13.712v25.744c-.001 5.029.57 7.242 4.106 11.261l23.261 26.776c.945 1.079.963 2.938.017 4.001l-25.998 29.483c-5.954 6.693-5.953 17.179-.02 23.848l25.206 28.558-25.205 28.559c-6.004 6.8-6.003 17.056 0 23.855l25.206 28.558-25.187 28.536c-5.953 6.692-5.954 17.178-.021 23.846l26.04 29.53c.925 1.04.907 2.899-.059 4.001l-23.209 26.717c-3.567 4.054-4.138 6.268-4.137 11.297v25.744c0 7.561 6.149 13.712 13.706 13.712h25.837.026c4.963 0 7.159-.58 11.116-4.112l26.727-23.264c1.084-.944 2.952-.964 4-.037l29.452 26.022c6.693 5.967 17.177 5.966 23.846.021l29.427-26.025c1.091-.957 2.932-.956 4.001-.019l29.446 26.042c6.8 6.018 17.057 6.017 23.855.002l29.466-26.06c.986-.879 2.927-.879 3.937.018l29.452 26.022c6.692 5.966 17.177 5.966 23.843.021l29.48-26.046c1.053-.93 2.899-.93 3.952 0l29.446 26.042c3.401 3.009 7.665 4.514 11.929 4.514 4.263 0 8.527-1.505 11.925-4.512l29.449-26.044c1.043-.925 2.912-.905 3.997.039l26.657 23.202c3.997 3.567 6.303 4.173 11.19 4.173h.024 25.835c7.558 0 13.705-6.152 13.705-13.712v-25.862c.002-4.96-.564-7.15-4.08-11.146l-23.267-26.751c-.948-1.092-.966-2.971-.038-4.021zm-37.329 43.369 23.296 26.785c.148.169.27.309.369.426.002.269.002.57.002.841v24.582h-24.549c-.257.001-.548 0-.807-.002-.13-.111-.289-.251-.484-.425l-26.727-23.264c-6.818-5.934-17.042-5.919-23.78.039l-29.451 26.046c-1.079.954-2.899.954-3.978-.002l-29.449-26.045c-3.34-2.953-7.626-4.429-11.913-4.429-4.285 0-8.57 1.476-11.908 4.428l-29.503 26.066c-1.042.929-2.867.927-3.932-.022l-29.457-26.027c-6.69-5.952-17.169-5.951-23.841-.015l-29.451 26.046c-1.079.954-2.899.954-3.978-.002l-29.469-26.062c-6.788-5.958-17.023-5.955-23.831.019l-29.471 26.064c-1.041.929-2.865.928-3.931-.022l-29.475-26.043c-6.738-5.956-16.961-5.972-23.779-.038l-26.798 23.325c-.162.146-.299.265-.413.363-.26.002-.549.001-.806.002h-24.55v-24.46c0-.311 0-.642.003-.93.111-.132.252-.294.428-.493l23.22-26.731c5.984-6.832 5.968-17.076-.017-23.804l-26.04-29.529c-.932-1.048-.932-2.886.02-3.956l26.009-29.467c5.153-5.815 5.152-12.218.01-18.02l-26.02-29.479c-.958-1.085-.958-2.919 0-4.003 0 0 .001 0 .001-.001l26.008-29.466c5.153-5.814 5.154-12.217.011-18.021l-26.038-29.501c-.932-1.047-.932-2.885.021-3.957l25.997-29.482c6.006-6.751 6.022-16.995.059-23.805l-23.273-26.79c-.161-.184-.292-.334-.396-.458-.003-.286-.003-.618-.003-.93v-24.46h24.429c.308.003.639 0 .924.003.13.11.291.25.488.424l26.704 23.243c6.721 5.899 17.186 5.88 23.8-.017l29.503-26.066c1.041-.926 2.866-.928 3.928.021l29.447 26.042c6.8 6.017 17.055 6.018 23.855.002l29.45-26.046c1.075-.952 2.897-.956 3.978.002l29.431 26.028c6.689 5.953 17.168 5.953 23.839.018l29.501-26.065c1.042-.926 2.868-.928 3.933.021l29.452 26.021c6.69 5.966 17.175 5.966 23.847.021l29.45-26.046c1.076-.952 2.897-.956 3.978.002l29.426 26.023c6.639 5.92 17.104 5.939 23.802.06l26.763-23.294c.182-.16.331-.29.453-.394.285-.004.626-.002.925-.003h24.427v24.582c0 .27 0 .572-.002.841-.105.123-.235.273-.396.457l-23.271 26.757c-5.925 6.82-5.909 17.044.038 23.784l26.046 29.503c.935 1.059.935 2.92.004 3.975l-26.066 29.5c-5.08 5.796-5.08 12.179.02 17.994l26.025 29.454c.944 1.078.944 2.97.021 4.024l-26.065 29.499c-5.081 5.794-5.081 12.177.019 17.995l26.043 29.474c.935 1.059.935 2.92.002 3.977l-26.048 29.506c-5.951 6.74-5.966 16.964-.039 23.787z"/><path d="m447.076 134.643c0-7.858-6.391-14.251-14.245-14.251h-151.719c-4.142 0-7.499 3.357-7.499 7.499s3.357 7.499 7.499 7.499h150.966v185.521l-99.83-99.929c-5.008-5.013-11.699-7.775-18.839-7.775-7.141 0-13.831 2.761-18.84 7.775l-28.097 28.125-40.964-41.007c-8.914-8.924-20.809-13.838-33.492-13.838s-24.577 4.914-33.493 13.839l-78.573 78.676v-151.387h163.692c4.142 0 7.499-3.357 7.499-7.499s-3.357-7.499-7.499-7.499h-164.446c-7.855 0-14.244 6.393-14.244 14.251v242.715c0 7.858 6.39 14.251 14.244 14.251h353.635c7.855 0 14.245-6.393 14.245-14.251zm-53.226 241.967-52.222-52.273c-2.927-2.929-7.676-2.932-10.605-.005-2.93 2.926-2.932 7.675-.005 10.605l41.632 41.673h-292.7v-68.609l89.183-89.3c6.082-6.087 14.208-9.44 22.882-9.44 8.675 0 16.801 3.353 22.882 9.44l45.984 46.03c.092.102.178.208.277.306.094.094.195.176.292.264l43.889 43.933c2.927 2.928 7.676 2.933 10.605.005 2.93-2.926 2.932-7.675.005-10.605l-38.877-38.916 28.107-28.135c2.176-2.177 5.097-3.377 8.23-3.377 3.131 0 6.053 1.199 8.229 3.377l110.441 110.55v34.479h-38.229z"/></g></g></svg>