<svg id="Capa_1" enable-background="new 0 0 512 512" height="512" viewBox="0 0 512 512" width="512" xmlns="http://www.w3.org/2000/svg"><g><g><path clip-rule="evenodd" d="m122.332 277.928v-58.126h-83.934l-.057 58.126v16.11c0 3.143.907 6.059 2.466 8.55 2.863 4.53 7.937 7.588 13.691 7.588h25.994 25.71c8.872 0 16.129-7.248 16.129-16.138v-16.11z" fill="#fdb440" fill-rule="evenodd"/></g><g><path clip-rule="evenodd" d="m134.011 189.168c2.154-5.153 4.819-8.522 10.176-10.136 42.151-12.826 76.989-19.253 111.799-19.253s69.647 6.427 111.799 19.253c5.357 1.614 8.022 4.983 10.176 10.136l10.857 25.849c.935 2.237.822 1.104.822 4.785h83.934c0-3.652.227-2.492-1.276-8.296l-17.688-68.658c-2.268-8.805-7.824-13.873-16.554-16.506-68.656-20.895-125.349-31.342-182.07-31.342s-113.415 10.447-182.07 31.342c-8.702 2.633-14.287 7.701-16.554 16.506l-17.688 68.658c-1.502 5.804-1.276 4.643-1.276 8.296h83.934c0-3.681-.113-2.548.822-4.785z" fill="#fcd79b" fill-rule="evenodd"/></g><g><path clip-rule="evenodd" d="m473.631 277.928-.057-58.126h-83.934v37.373 20.753 16.11c0 8.89 7.257 16.138 16.129 16.138h25.71 25.994c5.754 0 10.828-3.058 13.691-7.616 1.559-2.463 2.466-5.379 2.466-8.522v-16.11z" fill="#fdb440" fill-rule="evenodd"/></g><g><path clip-rule="evenodd" d="m255.986 294.519c-36.454 0-66.444-15.119-78.066-34.825-1.474-2.52-1.304-2.746-4.45-2.746h-51.137v20.98 16.11c0 8.89-7.257 16.138-16.129 16.138h-25.71-25.995c-5.754 0-10.828-3.058-13.691-7.616l-28.148 75.255c4.45-5.691 11.395-9.371 19.134-9.371h448.386c7.767 0 14.683 3.681 19.162 9.371l-28.176-75.255c-2.863 4.558-7.937 7.616-13.691 7.616h-25.994-25.71c-8.872 0-16.129-7.248-16.129-16.138v-16.11-20.753h-50.769c-3.118 0-3.345 0-4.819 2.52-11.624 19.705-41.615 34.824-78.068 34.824z" fill="#edf3f4" fill-rule="evenodd"/></g><g><path clip-rule="evenodd" d="m480.179 368.444h-448.386c-7.739 0-14.684 3.681-19.134 9.371-3.232 4.105-5.159 9.287-5.159 14.892 0 13.364 10.942 24.293 24.293 24.293h448.386c13.38 0 24.321-10.929 24.321-24.292 0-5.606-1.956-10.787-5.159-14.892-4.479-5.692-11.395-9.372-19.162-9.372z" fill="#b5c4cf" fill-rule="evenodd"/></g><g><path clip-rule="evenodd" d="m454.61 142.848c-2.268-8.805-7.824-13.873-16.554-16.506-63.383-19.309-116.59-29.672-169.002-31.172 10.29 13.618 16.158 29.445 16.158 46.32 0 6.682-.935 13.222-2.693 19.536 26.362 2.407 53.773 8.409 85.266 18.007 5.357 1.614 8.022 4.983 10.176 10.136l10.857 25.849c.935 2.237.822 1.104.822 4.785h83.934c0-3.652.227-2.492-1.276-8.296z" fill="#fbc56c" fill-rule="evenodd"/></g><g><path clip-rule="evenodd" d="m499.341 377.815-28.176-75.255c-2.863 4.558-7.937 7.616-13.691 7.616h-25.994-25.71c-8.872 0-16.129-7.248-16.129-16.138v-16.11-20.753h-50.769c-3.118 0-3.345 0-4.819 2.52-7.398 12.514-22.195 23.188-41.358 29.304 16.753 15.912 26.787 36.127 26.787 58.154 0 7.305-1.134 14.439-3.232 21.291h163.928c7.768 0 14.684 3.68 19.163 9.371z" fill="#d7e7ec" fill-rule="evenodd"/></g><g><path clip-rule="evenodd" d="m480.179 368.444h-163.928c-5.868 19.168-19.502 36.014-38.24 48.556h202.168c13.38 0 24.321-10.929 24.321-24.292 0-5.606-1.956-10.787-5.159-14.892-4.479-5.692-11.395-9.372-19.162-9.372z" fill="#9aafb7" fill-rule="evenodd"/></g><g><path clip-rule="evenodd" d="m122.332 256.948v-37.146h-41.358v55.493 16.138c0 8.862-7.257 16.11-16.129 16.11h-19.134c2.523 1.67 5.556 2.633 8.787 2.633h25.994 25.71c8.872 0 16.129-7.248 16.129-16.138v-16.11-20.98z" fill="#fe9900" fill-rule="evenodd"/></g><g><path clip-rule="evenodd" d="m473.631 277.928-.057-58.126h-41.386l.057 55.493v16.138c0 3.114-.907 6.031-2.438 8.522-2.863 4.558-7.937 7.588-13.691 7.588h-19.134c2.523 1.67 5.556 2.633 8.787 2.633h25.71 25.994c5.754 0 10.828-3.058 13.691-7.616 1.559-2.463 2.466-5.379 2.466-8.522v-16.11z" fill="#fe9900" fill-rule="evenodd"/></g><path d="m505.973 374.14-26.625-71.11c1.146-2.774 1.783-5.809 1.783-8.992 0 0-.053-75.064-.05-75.386.03-3.05-.16-3.785-1.222-7.864l-17.986-69.81c-2.831-10.997-10.116-18.337-21.634-21.812-71.96-21.899-128.786-31.666-184.253-31.666s-112.293 9.767-184.242 31.663c-11.534 3.491-18.816 10.83-21.645 21.814l-17.986 69.803c-1.062 4.085-1.253 4.821-1.222 7.87.003.322-.05 75.388-.05 75.388 0 3.183.637 6.218 1.783 8.992l-26.593 71.097c-3.789 5.229-6.031 11.647-6.031 18.581 0 17.53 14.262 31.792 31.793 31.792h448.386c17.546 0 31.821-14.262 31.821-31.792 0-6.929-2.24-13.342-6.027-18.568zm-39.842-96.212v16.11c0 1.577-.433 3.052-1.175 4.325-.119.177-.232.356-.336.542-1.561 2.275-4.181 3.771-7.147 3.771h-51.704c-4.758 0-8.629-3.875-8.629-8.639v-66.735h68.942zm-401.506-133.209c1.533-5.954 4.854-9.198 11.475-11.202 70.483-21.45 125.962-31.017 179.886-31.017 53.923 0 109.403 9.566 179.904 31.022 6.604 1.992 9.923 5.235 11.458 11.197l17.41 67.583h-68.943c-.028-.064-10.933-26.027-10.933-26.027-2.211-5.288-5.906-11.706-14.913-14.418-44.497-13.54-79.65-19.578-113.982-19.578-13.765 0-27.349.949-41.53 2.901-4.104.564-6.972 4.349-6.407 8.452.565 4.104 4.347 6.975 8.453 6.407 13.496-1.857 26.411-2.761 39.484-2.761 32.789 0 66.595 5.838 109.636 18.935 2.306.694 3.705 1.746 5.424 5.858 0 0 11.023 26.241 11.098 26.41 0 .032-.001 14.755-.002 31.192h-43.271c-5.18 0-8.191.933-11.279 6.21-9.141 15.497-34.826 31.135-71.606 31.135s-62.466-15.638-71.593-31.112l-.319-.553c-2.533-4.416-5.209-5.906-10.604-5.906h-43.641c-.001-16.347-.002-30.935-.002-30.966.074-.167 11.102-26.422 11.102-26.422 1.714-4.101 3.113-5.152 5.448-5.855 13.228-4.041 25.283-7.303 36.855-9.973 4.036-.931 6.554-4.957 5.623-8.993-.932-4.037-4.962-6.547-8.994-5.623-11.915 2.749-24.301 6.1-37.838 10.234-9.028 2.719-12.723 9.137-14.929 14.413l-10.861 25.859c-.029.069-.052.119-.078.18h-68.945zm-18.733 82.584h68.938l.002 66.735c0 4.764-3.871 8.639-8.629 8.639h-51.704c-5.001 0-8.658-4.107-8.658-8.639zm434.287 182.197h-448.386c-9.26 0-16.793-7.533-16.793-16.792 0-3.808 1.293-7.312 3.444-10.13.089-.108.169-.222.252-.335 3.08-3.834 7.803-6.299 13.097-6.299h208.121c4.142 0 7.5-3.357 7.5-7.5s-3.358-7.5-7.5-7.5h-208.121c-1.687 0-3.344.135-4.961.389l17.237-46.084c3.148 1.552 6.688 2.428 10.429 2.428h18.494v19.028c0 4.143 3.358 7.5 7.5 7.5s7.5-3.357 7.5-7.5v-19.028h18.21c13.029 0 23.629-10.604 23.629-23.639 0 0-.001-13.792-.001-29.59h42.199c14.126 22.86 46.914 37.571 83.957 37.571 36.907 0 69.592-14.607 83.815-37.345h42.34c-.001 15.703-.001 29.363-.001 29.363 0 13.034 10.6 23.639 23.629 23.639h18.211v19.028c0 4.143 3.357 7.5 7.5 7.5s7.5-3.357 7.5-7.5v-19.028h18.493c3.743 0 7.284-.877 10.433-2.43l17.256 46.089c-1.624-.256-3.288-.393-4.984-.393h-205.654c-4.143 0-7.5 3.357-7.5 7.5s3.357 7.5 7.5 7.5h205.654c5.344 0 10.103 2.504 13.186 6.388.053.071.103.143.159.211 2.171 2.824 3.476 6.341 3.476 10.166.001 9.26-7.545 16.793-16.82 16.793z"/></g></svg>