<svg id="Capa_1" enable-background="new 0 0 512.004 512.004" height="512" viewBox="0 0 512.004 512.004" width="512" xmlns="http://www.w3.org/2000/svg"><g><g><path clip-rule="evenodd" d="m44.987 214.69c-.313-48.613 14.718-106.642 49.298-142.464 24.379-25.242 73.989-37.637 104.506-17.017 7.444 5.048 12.815 11.714 16.31 19.995 6.961 16.62 7.558 43.678 9.945 61.83 1.108 8.452 2.529 16.847 4.546 25.129 8.695 35.424 27.306 62.624 58.191 82.506 10.513 6.75 18.156 16.025 22.077 27.908 9.092 27.511-3.893 58.568-23.356 78.337-31.738 32.22-78.138 37.864-120.901 29.837-82.968-15.571-120.133-87.214-120.616-166.061zm263.112-1.503c-61.374-39.48-38.444-104.94-58.419-152.447-28.954-68.921-130.931-67.815-182.388-14.494-93.368 96.744-87.827 337.653 91.379 371.319 172.784 32.446 244.159-143.4 149.428-204.378z" fill="#fdb440" fill-rule="evenodd"/></g><g><path clip-rule="evenodd" d="m244.395 203.203c32.846-35.85 83.366-68.24 133.147-71.076 35.034-2.014 79.9 22.52 88.253 58.369 2.046 8.736 1.421 17.301-1.648 25.725-6.166 16.932-24.18 37.155-34.778 52.13-4.944 6.949-9.604 14.068-13.752 21.527-17.73 31.879-22.589 64.439-13.468 99.977 3.125 12.082 2.444 24.08-2.785 35.481-12.047 26.32-42.706 40.303-70.438 41.607-45.235 2.127-83.139-25.186-109.052-60.071-50.292-67.7-28.783-145.47 24.521-203.669zm194.095 177.349c-18.156-70.594 43.217-103.097 60.891-151.511 25.629-70.197-49.924-138.521-123.998-134.295-134.34 7.658-294.225 188.212-185.627 334.419 104.704 141.017 276.75 60.355 248.734-48.613z" fill="#80d261" fill-rule="evenodd"/></g><g><path clip-rule="evenodd" d="m262.949 137.318c-3.978-26.405-3.609-53.605-13.269-76.578-18.44-43.905-66.517-59.391-112.291-51.053 8.325 9.161 16.167 21.016 23.356 35.141 13.752-.142 27.135 3.006 38.046 10.381 7.444 5.048 12.815 11.714 16.31 19.995 6.961 16.62 7.558 43.678 9.945 61.83 1.108 8.452 2.529 16.847 4.546 25.129.17.709.369 1.418.54 2.099 10.314-9.842 21.338-18.861 32.817-26.944z" fill="#fe9900" fill-rule="evenodd"/></g><g><path clip-rule="evenodd" d="m229.762 419.125c119.48-19.598 158.776-154.149 78.337-205.938-16.793-10.806-27.277-23.569-34.068-37.381-10.399 8.168-19.975 17.017-28.414 26.093 10.144 16.904 24.038 31.085 42.166 42.77 10.513 6.75 18.156 16.025 22.077 27.908 9.092 27.511-3.893 58.568-23.356 78.337-21.935 22.264-50.917 31.851-80.809 32.985 3.864 7.771 8.581 15.429 14.178 22.973 3.127 4.198 6.423 8.31 9.889 12.253z" fill="#fe9900" fill-rule="evenodd"/></g><g><path clip-rule="evenodd" d="m499.38 229.041c25.63-70.197-49.923-138.521-123.997-134.295-9.49.539-19.151 1.957-28.812 4.141 4.29 11.402 8.155 23.342 11.564 35.793 6.45-1.333 12.928-2.184 19.407-2.553 35.034-2.014 79.9 22.52 88.253 58.369 2.046 8.736 1.421 17.301-1.648 25.725-6.166 16.932-24.18 37.155-34.778 52.13-4.944 6.949-9.604 14.068-13.752 21.527-17.73 31.879-22.589 64.439-13.468 99.977 3.125 12.082 2.444 24.08-2.785 35.481-11.195 24.477-38.472 38.289-64.528 41.154-6.535 13.671-13.724 26.263-21.481 37.608 77.257 5.956 143.319-52.811 125.134-123.546-18.156-70.593 43.218-103.097 60.891-151.511z" fill="#4fc122" fill-rule="evenodd"/></g><g><path d="m435.639 140.747c-18.191-11.329-39.521-17.197-58.523-16.108-55.162 3.144-107.584 40.028-138.251 73.499-28.892 31.545-47.212 66.859-52.98 102.127-4.901 29.963-.459 59.368 12.842 86.39.159.402.349.786.571 1.149 4.063 8.079 8.912 15.945 14.556 23.541 30.405 40.933 69.334 63.215 110.142 63.215 1.756 0 3.521-.042 5.284-.125 26.335-1.238 62.279-14.023 76.902-45.973 5.813-12.676 6.898-26.297 3.231-40.475-7.776-30.23-4.934-58.57 8.689-86.637 1.809-3.727.254-8.214-3.472-10.022-3.727-1.811-8.214-.255-10.022 3.472-15.242 31.4-18.422 63.104-9.72 96.934 2.785 10.764 1.997 21.017-2.343 30.481-11.06 24.164-40.099 36.113-63.97 37.237-36.318 1.705-64.789-16.86-84.115-35.736 27.213-6.694 51.47-19.679 70.752-38.021 20.413-19.419 34.641-44.493 40.063-70.604 4.327-20.841 2.983-41.611-3.887-60.064-7.332-19.694-20.896-36.343-39.234-48.149-12.362-7.941-21.723-17.46-28.476-28.971 26.843-20.019 60.113-36.342 94.295-38.29 15.75-.895 34.343 4.277 49.737 13.865 16.414 10.222 27.346 23.973 30.784 38.728 1.69 7.219 1.235 14.234-1.393 21.448-4.127 11.334-14.681 25.076-23.992 37.2-3.575 4.656-6.953 9.054-9.861 13.163-2.393 3.382-1.592 8.063 1.79 10.455 3.379 2.391 8.061 1.59 10.455-1.789 2.74-3.871 6.03-8.156 9.514-12.692 9.971-12.983 21.271-27.698 26.189-41.203 3.606-9.9 4.247-19.995 1.905-29.994-4.346-18.649-17.65-35.713-37.462-48.051zm-190.954 73.423c10.165 14.388 23.007 26.496 39.046 36.81 9.351 6.003 15.746 14.06 19.009 23.95 8.342 25.241-4.828 53.707-21.577 70.72-17.667 17.931-42.078 28.403-70.822 30.47-23.026-50.86-11.04-109.227 34.344-161.95zm59.354 5.322c30.8 19.831 44.463 54.428 36.548 92.548-7.898 38.038-40.913 86.208-107.949 98.899-2.511-2.995-4.763-5.873-6.743-8.539-2.902-3.906-5.56-7.881-7.991-11.911 29.645-3.382 55.034-15.118 73.945-34.312 18.491-18.78 36.168-52.561 25.134-85.948-4.368-13.237-12.829-23.96-25.144-31.867-15.365-9.88-27.427-21.547-36.748-35.533 5.092-5.195 10.696-10.419 16.737-15.522 7.849 12.755 18.451 23.346 32.211 32.185z"/><path d="m491.406 141.876c-12.695-17.092-30.245-31.313-50.751-41.125-21.06-10.078-43.775-14.734-65.699-13.493-34.467 1.965-71.618 15.021-106.122 37.088-.431-3.83-.818-7.659-1.198-11.424-1.878-18.64-3.82-37.914-11.042-55.088-12.405-29.528-38.033-49.307-72.164-55.693-20.937-3.915-43.479-2.443-65.188 4.262-22.296 6.887-42.127 18.863-57.346 34.635-27.231 28.216-47.265 69.309-56.41 115.709-9.138 46.362-6.796 95.018 6.594 137.004 22.731 71.275 74.3 117.865 145.216 131.188 7.418 1.384 14.941 2.407 22.42 3.095 1.303 1.879 2.64 3.747 4.018 5.603 27.935 37.623 63.066 62.944 101.596 73.227 12.88 3.438 25.962 5.142 38.89 5.142 21.064 0 41.716-4.523 60.409-13.442 22.849-10.901 41.521-28.082 52.576-48.376 11.969-21.974 14.926-46.697 8.549-71.5 0-.001 0-.001 0-.001-11.088-43.108 9.502-70.342 31.301-99.174 11.299-14.943 22.982-30.396 29.371-47.897 10.973-30.058 5.639-61.927-15.02-89.74zm-331.35 268.318c-65.231-12.255-112.708-55.226-133.686-121.001-25.93-81.304-6.017-183.51 46.319-237.739 26.872-27.845 70.667-41.737 108.983-34.568 29.01 5.428 50.707 22.033 61.095 46.761 6.351 15.103 8.097 32.433 9.946 50.779.642 6.364 1.312 12.903 2.184 19.433-.077.056-.156.111-.233.167-6.902 5.028-13.576 10.368-19.996 15.971-.807-4.346-1.533-8.961-2.186-13.939-.61-4.639-1.105-9.939-1.63-15.553-1.529-16.355-3.261-34.895-8.841-48.216-4.078-9.662-10.474-17.497-19.021-23.294-34.482-23.297-87.808-9.201-114.104 18.026-15.249 15.815-27.493 36.146-36.393 60.427-1.425 3.889.572 8.197 4.461 9.623 3.887 1.427 8.198-.572 9.623-4.461 8.177-22.31 19.316-40.873 33.103-55.173 10.957-11.345 28.139-20.148 45.962-23.55 19.003-3.627 36.388-.951 48.939 7.529 6.184 4.194 10.635 9.658 13.602 16.686 4.686 11.188 6.305 28.513 7.733 43.798.538 5.757 1.046 11.195 1.692 16.109 1.161 8.852 2.546 16.687 4.216 23.89-23.37 22.992-42.544 49.56-55.56 77.388-20.628 44.102-25.145 88.808-13.892 130.593-62.33-18.36-99.393-75.411-99.886-155.246-.114-15.38 1.342-31.06 4.327-46.604.781-4.067-1.884-7.999-5.952-8.779-4.063-.78-7.999 1.884-8.78 5.951-3.169 16.511-4.716 33.179-4.595 49.533.262 42.306 10.663 80.348 30.079 110.013 20.914 31.954 52.077 53.346 90.304 62.059 3.217 8.464 7.091 16.786 11.652 24.928-3.166-.455-6.328-.956-9.465-1.541zm332.279-183.725c-5.618 15.391-16.124 29.285-27.246 43.996-21.915 28.985-46.753 61.838-33.863 111.956v-.001c10.752 41.822-10.074 82.096-53.057 102.604-50.573 24.128-126.585 14.834-182.393-60.33-39.439-53.098-45.094-116.687-15.924-179.052 36.228-77.453 120.471-139.105 195.958-143.407 1.992-.114 3.988-.17 5.992-.17 36.951 0 75.531 19.095 97.562 48.756 17.55 23.626 22.156 50.491 12.971 75.648z"/></g></g></svg>