<svg id="Capa_1" enable-background="new 0 0 512 512" height="512" viewBox="0 0 512 512" width="512" xmlns="http://www.w3.org/2000/svg"><g><g><path clip-rule="evenodd" d="m7.5 242.573v80.96c0 4.792 3.77 8.706 8.362 8.706h240.124 240.124c4.62 0 8.391-3.913 8.391-8.706v-80.96c0-4.792-3.77-8.706-8.391-8.706h-27.014-8.022c0-263.156-410.175-263.156-410.175 0h-7.994-27.043c-4.592 0-8.362 3.913-8.362 8.706zm122.797-7.884h251.831c1.474 0 2.92 0 2.891-1.787-2.438-163.934-255.147-163.905-257.613 0-.028 1.787 1.446 1.787 2.891 1.787z" fill="#edf3f4" fill-rule="evenodd"/></g><g><path clip-rule="evenodd" d="m444.717 150.355c-31.521-72.595-104.117-110.48-178.526-113.657 133.087 26.798 169.796 176.298 170.873 295.54h59.046c4.62 0 8.391-3.913 8.391-8.706v-80.96c0-4.792-3.77-8.706-8.391-8.706h-27.014-7.994c-.001-31.646-5.953-59.493-16.385-83.511z" fill="#d7e7ec" fill-rule="evenodd"/></g><g><path clip-rule="evenodd" d="m17.421 377.979c-5.471 0-9.921 4.452-9.921 9.925v77.671c0 5.445 4.45 9.925 9.921 9.925h477.129c5.471 0 9.95-4.48 9.95-9.925v-77.671c0-5.473-4.479-9.925-9.95-9.925-159.024-.028-318.076 0-477.129 0z" fill="#edf3f4" fill-rule="evenodd"/></g><g><path clip-rule="evenodd" d="m494.55 377.979h-54.68c4.819 14.888 7.512 31.562 7.512 49.2 0 17.27-2.608 33.66-7.228 48.321h54.397c5.471 0 9.95-4.48 9.95-9.925v-77.671c-.001-5.473-4.48-9.925-9.951-9.925z" fill="#d7e7ec" fill-rule="evenodd"/></g><g><path d="m494.55 370.479h-477.129c-9.606 0-17.421 7.817-17.421 17.425v77.67c0 9.609 7.815 17.426 17.421 17.426h220.763c4.142 0 7.5-3.358 7.5-7.5s-3.358-7.5-7.5-7.5h-220.763c-1.313 0-2.421-1.111-2.421-2.425v-77.67c0-1.337 1.086-2.425 2.421-2.425h39.329v15.186c0 4.142 3.358 7.5 7.5 7.5s7.5-3.358 7.5-7.5v-15.186h58.361v31.718c0 4.142 3.358 7.5 7.5 7.5s7.5-3.358 7.5-7.5v-31.718h58.361v15.186c0 4.142 3.358 7.5 7.5 7.5s7.5-3.358 7.5-7.5v-15.186h58.361v31.718c0 4.142 3.358 7.5 7.5 7.5s7.5-3.358 7.5-7.5v-31.718h58.361v15.186c0 4.142 3.358 7.5 7.5 7.5s7.5-3.358 7.5-7.5v-15.186h58.361v31.718c0 4.142 3.358 7.5 7.5 7.5s7.5-3.358 7.5-7.5v-31.718h55.996c1.328 0 2.45 1.111 2.45 2.425v77.67c0 1.314-1.122 2.425-2.45 2.425h-221.727c-4.142 0-7.5 3.358-7.5 7.5s3.358 7.5 7.5 7.5h221.726c9.622 0 17.45-7.817 17.45-17.425v-77.67c0-9.609-7.828-17.426-17.45-17.426z"/><path d="m496.109 226.367h-27.646c-1.759-59.938-24.697-110.375-66.605-146.225-38.553-32.979-90.358-51.142-145.872-51.142s-107.319 18.163-145.873 51.143c-41.908 35.849-64.846 86.287-66.605 146.225h-27.646c-8.746-.001-15.862 7.269-15.862 16.205v80.96c0 8.936 7.116 16.206 15.862 16.206h480.247c8.762 0 15.891-7.27 15.891-16.206v-80.96c0-8.936-7.128-16.206-15.891-16.206zm.891 97.166c0 .69-.47 1.206-.891 1.206h-51.546v-17.54c0-4.142-3.358-7.5-7.5-7.5s-7.5 3.358-7.5 7.5v17.54h-59.466v-30.414c0-4.142-3.358-7.5-7.5-7.5s-7.5 3.358-7.5 7.5v30.414h-59.495v-17.54c0-4.142-3.358-7.5-7.5-7.5s-7.5 3.358-7.5 7.5v17.54h-59.495v-30.414c0-4.142-3.358-7.5-7.5-7.5s-7.5 3.358-7.5 7.5v30.414h-59.495v-17.54c0-4.142-3.358-7.5-7.5-7.5s-7.5 3.358-7.5 7.5v17.54h-59.494v-30.414c0-4.142-3.358-7.5-7.5-7.5s-7.5 3.358-7.5 7.5v30.414h-41.256c-.352 0-.862-.47-.862-1.206v-80.96c0-.736.511-1.206.862-1.206h35.036c4.142 0 7.5-3.358 7.5-7.5 0-27.408 4.536-51.669 12.561-72.913l7.675 4.223c1.147.631 2.386.931 3.609.931 2.646 0 5.212-1.403 6.578-3.886 1.997-3.629.674-8.189-2.955-10.187l-8.98-4.941c14.003-29.17 35.043-51.884 59.928-68.472l8.35 10.055c1.483 1.786 3.621 2.708 5.774 2.708 1.688 0 3.387-.567 4.788-1.73 3.187-2.646 3.625-7.375.979-10.562l-6.944-8.362c30.162-16.794 64.719-25.486 98.726-26.599v13.806c0 4.142 3.358 7.5 7.5 7.5s7.5-3.358 7.5-7.5v-13.808c35.855 1.129 69.759 10.341 98.727 26.601l-6.945 8.363c-2.646 3.187-2.208 7.915.979 10.562 1.4 1.163 3.099 1.73 4.788 1.73 2.153 0 4.291-.922 5.774-2.708l8.314-10.012c5.923 3.976 11.598 8.267 16.986 12.876 18.284 15.641 32.634 34.354 42.863 55.622l-8.843 4.875c-3.627 2-4.947 6.562-2.947 10.189 1.367 2.479 3.93 3.88 6.575 3.88 1.224 0 2.466-.301 3.614-.934l7.542-4.158c8.361 22.051 12.66 46.49 12.66 72.851 0 4.142 3.358 7.5 7.5 7.5h35.036c.42 0 .891.516.891 1.206v80.96z"/><path d="m348.956 134.99c-24.636-20.972-57.561-32.524-92.71-32.527-.006 0-.007 0-.014 0-35.149 0-68.083 11.55-92.728 32.52-27.916 23.753-42.991 57.574-43.597 97.801-.041 2.555.868 4.908 2.558 6.625 2.737 2.78 6.179 2.78 7.833 2.78h107.887c4.142 0 7.5-3.358 7.5-7.5s-3.358-7.5-7.5-7.5h-103.079c4.09-75.341 64.953-109.726 121.126-109.726h.012c56.156.005 117 34.399 121.077 109.738l-104.233.271c-4.142.011-7.491 3.377-7.48 7.52.011 4.136 3.367 7.48 7.5 7.48h.02l109.001-.284c1.656 0 5.103 0 7.834-2.775 1.689-1.716 2.597-4.071 2.557-6.623-.6-40.228-15.664-74.048-43.564-97.8z"/></g></g></svg>