<svg id="Capa_1" enable-background="new 0 0 511.994 511.994" height="512" viewBox="0 0 511.994 511.994" width="512" xmlns="http://www.w3.org/2000/svg"><g><g><path clip-rule="evenodd" d="m92.426 282.814h209.254v-51.012l-237.345-32.997-2.693-.397c-1.276-.17-2.551-.397-3.827-.68v50.502c0 19.006 15.591 34.584 34.611 34.584z" fill="#edf3f4" fill-rule="evenodd"/></g><g><path clip-rule="evenodd" d="m291.674 286.185v43.619h45.156c16.384-5.58 22.28-58.886 8.447-72.991l-53.603-25.01z" fill="#b5c4cf" fill-rule="evenodd"/></g><g><path clip-rule="evenodd" d="m420.367 298.223c0 11.103.198 23.452 9.836 31.581h45.156v-64.098l-43.37-6.288c-6.434 6.147-11.622 27.673-11.622 38.805z" fill="#b5c4cf" fill-rule="evenodd"/></g><g><path clip-rule="evenodd" d="m18.64 408.999h465.62c6.123 0 11.14-5.013 11.14-11.131v-56.932c0-6.118-5.017-11.131-11.14-11.131h-8.901c-66.274 0-117.383 0-183.686 0h-244.545c-21.798-.001-39.628 17.815-39.628 39.597v28.466c0 6.117 5.017 11.131 11.14 11.131z" fill="#01d0fb" fill-rule="evenodd"/></g><g><path clip-rule="evenodd" d="m64.335 216.054 227.339 32.998c66.303 9.63 118.375 17.164 183.686 26.653l.595.085c8.277 1.218 16.016-4.589 17.235-12.859l11.14-76.844c.113-.623.142-1.246.17-1.869v-.595c-.142-7.279-5.584-13.652-13.039-14.757l-452.723-65.712c-8.277-1.19-16.044 4.589-17.235 12.859l-5.584 38.408c-4.28 29.429 16.299 56.96 45.723 61.237z" fill="#01d0fb" fill-rule="evenodd"/></g><g><path clip-rule="evenodd" d="m327.164 298.223c0 11.698 3.572 22.574 9.666 31.581 10.148 14.927 27.269 24.755 46.687 24.755 19.446 0 36.567-9.829 46.687-24.755 6.123-9.007 9.694-19.884 9.694-31.581 0-10.537-2.891-20.393-7.909-28.806-9.836-16.513-27.865-27.559-48.473-27.559-14.769 0-28.205 5.693-38.239 14.955-11.14 10.31-18.113 25.038-18.113 41.41z" fill="#edf3f4" fill-rule="evenodd"/></g><g><path clip-rule="evenodd" d="m360.868 298.223c0 12.519 10.148 22.659 22.649 22.659 12.529 0 22.677-10.14 22.677-22.659s-10.148-22.659-22.677-22.659c-12.501-.001-22.649 10.14-22.649 22.659z" fill="#b5c4cf" fill-rule="evenodd"/></g><g><path clip-rule="evenodd" d="m412.459 269.417c5.017 8.412 7.909 18.269 7.909 28.806 0 11.698-3.572 22.574-9.666 31.581-8.419 12.378-21.6 21.243-36.936 23.934 3.175.538 6.435.821 9.751.821 19.446 0 36.567-9.829 46.687-24.755 6.123-9.007 9.694-19.884 9.694-31.581 0-10.537-2.891-20.393-7.909-28.806-1.049-1.784-2.211-3.484-3.458-5.127-10.29-13.624-26.617-22.433-45.014-22.433-3.317 0-6.576.283-9.751.85 15.194 2.634 28.29 11.386 36.68 23.566.709 1.02 1.389 2.068 2.013 3.144z" fill="#d7e7ec" fill-rule="evenodd"/></g><g><path clip-rule="evenodd" d="m387.854 296.92c0 9.8-6.236 18.156-14.967 21.3 3.175 1.699 6.803 2.662 10.63 2.662 12.529 0 22.677-10.14 22.677-22.659s-10.148-22.659-22.677-22.659c-2.693 0-5.301.453-7.71 1.331 7.171 3.823 12.047 11.358 12.047 20.025z" fill="#9aafb7" fill-rule="evenodd"/></g><g><path clip-rule="evenodd" d="m463.879 180.224-8.929 61.633-2.211 15.21c-.283 1.841-.879 3.569-1.729 5.127-2.948 5.353-9.043 8.639-15.421 7.732l39.77 5.778.595.085c8.277 1.218 16.016-4.589 17.235-12.859l11.14-76.844c.113-.623.142-1.246.17-1.869v-.595c-.142-7.279-5.584-13.652-13.039-14.757l-40.451-5.863c7.455 1.076 12.898 7.478 13.039 14.757v.566c-.027.625-.055 1.276-.169 1.899z" fill="#08a9f1" fill-rule="evenodd"/></g><g><path clip-rule="evenodd" d="m456.764 340.936v56.932c0 6.118-5.017 11.131-11.14 11.131h38.636c6.123 0 11.14-5.013 11.14-11.131v-56.932c0-6.118-5.017-11.131-11.14-11.131h-8.901-29.736c6.124-.001 11.141 5.013 11.141 11.131z" fill="#08a9f1" fill-rule="evenodd"/></g><g><path clip-rule="evenodd" d="m64.335 239.252 227.339 32.998v-23.198l-227.339-32.998-2.693-.397c-1.276-.198-2.551-.425-3.827-.708v23.226c1.276.283 2.551.51 3.827.68z" fill="#d7e7ec" fill-rule="evenodd"/></g><g><path clip-rule="evenodd" d="m291.674 249.052v23.198l10.006 1.445 29.225 4.249c3.146-8.101 8.079-15.323 14.372-21.13l-43.597-6.316z" fill="#9aafb7" fill-rule="evenodd"/></g><g><path clip-rule="evenodd" d="m431.99 269.417c4.309 7.223 7.03 15.493 7.739 24.331l35.632 5.183v-23.226l-39.77-5.778z" fill="#9aafb7" fill-rule="evenodd"/></g><g><path d="m383.517 268.063c-16.624 0-30.149 13.53-30.149 30.16s13.525 30.159 30.149 30.159c16.64 0 30.177-13.529 30.177-30.159s-13.537-30.16-30.177-30.16zm0 45.319c-8.353 0-15.149-6.8-15.149-15.159s6.796-15.16 15.149-15.16c8.369 0 15.177 6.801 15.177 15.16s-6.808 15.159-15.177 15.159z"/><path d="m500.612 264.007 11.138-76.827c.882-5.988-.641-11.969-4.29-16.843-3.634-4.854-8.928-8.011-14.923-8.894l-452.732-65.713c-12.403-1.788-23.944 6.837-25.723 19.204l-5.584 38.407c-2.358 16.214 1.774 32.416 11.636 45.618 7.72 10.337 18.21 17.815 30.182 21.712v27.56c0 23.205 18.891 42.084 42.111 42.084h53.688c4.142 0 7.5-3.358 7.5-7.5s-3.358-7.5-7.5-7.5h-53.689c-14.949 0-27.111-12.149-27.111-27.084v-24.461l218.859 31.756v19.789h-103.42c-4.142 0-7.5 3.358-7.5 7.5s3.358 7.5 7.5 7.5h103.42v31.99h-237.046c-25.986-.001-47.128 21.127-47.128 47.097v28.466c0 10.273 8.362 18.631 18.64 18.631h152.986c4.142 0 7.5-3.358 7.5-7.5s-3.358-7.5-7.5-7.5h-152.986c-1.973 0-3.64-1.663-3.64-3.631v-28.466c0-17.698 14.413-32.097 32.128-32.097h285.954c11.692 15.046 29.945 24.755 50.435 24.755 20.499 0 38.76-9.709 50.457-24.755h50.287c1.973 0 3.64 1.663 3.64 3.631v56.932c0 1.968-1.667 3.631-3.64 3.631h-277.995c-4.142 0-7.5 3.358-7.5 7.5s3.358 7.5 7.5 7.5h277.995c10.278 0 18.64-8.358 18.64-18.631v-56.932c0-10.273-8.362-18.631-18.64-18.631h-1.401v-39.366c9.006-1.928 16.327-9.266 17.752-18.932zm-176.216 58.297h-25.222v-64.603l31.591 4.584c-6.999 10.245-11.101 22.62-11.101 35.937 0 8.519 1.69 16.646 4.732 24.082zm59.121 24.756c-26.938 0-48.853-21.908-48.853-48.837 0-26.944 21.916-48.865 48.853-48.865 26.953 0 48.881 21.921 48.881 48.865 0 26.929-21.928 48.837-48.881 48.837zm84.343-24.756h-25.196c3.043-7.437 4.734-15.564 4.734-24.082 0-6.775-1.07-13.302-3.034-19.434l23.495 3.406v40.11zm9.171-53.936-40.563-5.88c-.524-.774-1.07-1.514-1.626-2.239-11.65-15.697-30.318-25.891-51.326-25.891-14.553 0-27.976 4.905-38.727 13.134-.621.443-1.236.906-1.841 1.404l-280.23-40.661c-12.252-1.782-23.108-8.264-30.569-18.252-7.462-9.99-10.591-22.237-8.81-34.483l5.586-38.418c.604-4.193 4.528-7.112 8.734-6.505l452.708 65.709c2.035.3 3.84 1.379 5.084 3.041 1.236 1.65 1.753 3.663 1.456 5.684l-11.138 76.826c-.62 4.219-4.533 7.148-8.738 6.531z"/></g></g></svg>