<svg id="Capa_1" enable-background="new 0 0 512 512" height="512" viewBox="0 0 512 512" width="512" xmlns="http://www.w3.org/2000/svg"><g><g><path clip-rule="evenodd" d="m454.828 186.859c-4.347-62.226-56.235-111.359-119.604-111.359-44.074 0-82.606 23.771-103.435 59.158-10.457 17.807-16.453 38.54-16.453 60.664 0 16.955 3.524 33.115 9.889 47.741 3.694-3.465 9.349-5.567 20.914-8.236 71.609-16.472 118.24-27.179 208.632-47.969.001.001.029.001.057.001z" fill="#edf3f4" fill-rule="evenodd"/></g><g><path clip-rule="evenodd" d="m402.94 194.271c0-37.091-30.093-67.139-67.176-67.139-37.112 0-67.176 30.048-67.176 67.139 0 12.127 3.239 23.516 8.866 33.371 68.426-15.734 59.134-13.604 125.316-28.827.114-1.505.17-3.01.17-4.544z" fill="#b5c4cf" fill-rule="evenodd"/></g><g><path clip-rule="evenodd" d="m246.14 234.827c-11.565 2.67-17.22 4.771-20.914 8.236-4.149 3.891-5.854 9.486-10.628 19.511-12.73 26.697-63.255 37.858-85.845-11.673l-38.93-85.315h-11.879c-28.331 0-51.49 23.146-51.49 51.433v167.194l249.807 27.634 222.812-27.634-10.088-181.593c-.54-9.912-6.621-22.096-34.156-15.762h-.057c-69.563 15.99-139.098 31.98-208.632 47.969z" fill="#fdb440" fill-rule="evenodd"/></g><g><path clip-rule="evenodd" d="m499.072 384.215h-472.618-13.526c-2.984 0-5.428 2.442-5.428 5.425v41.436c0 2.982 2.444 5.425 5.428 5.425h486.145c2.984 0 5.428-2.442 5.428-5.425v-41.436c-.001-2.983-2.445-5.425-5.429-5.425z" fill="#fe636e" fill-rule="evenodd"/></g><g><path clip-rule="evenodd" d="m414.904 272.401h-100.821c-3.211 0-5.854 2.641-5.854 5.851v33.854 11.332c0 3.209 2.643 5.851 5.854 5.851h100.821c3.211 0 5.854-2.641 5.854-5.851v-44.163-1.022c-.001-3.21-2.643-5.852-5.854-5.852z" fill="#edf3f4" fill-rule="evenodd"/></g><g><path clip-rule="evenodd" d="m454.828 186.859c-4.347-62.226-56.235-111.359-119.604-111.359-14.208 0-27.848 2.471-40.493 6.987 4.319-.454 8.695-.71 13.1-.71 63.368 0 115.256 49.133 119.604 111.359l27.336-6.277z" fill="#d7e7ec" fill-rule="evenodd"/></g><g><path clip-rule="evenodd" d="m402.94 194.271c0-37.091-30.093-67.139-67.176-67.139-10.173 0-19.806 2.272-28.445 6.305h1.051c37.112 0 67.176 30.048 67.176 67.111 0 1.534-.057 3.067-.142 4.572l27.365-6.305c.115-1.505.171-3.01.171-4.544z" fill="#9aafb7" fill-rule="evenodd"/></g><g><path clip-rule="evenodd" d="m454.772 186.859-13.469 3.096c3.751 3.465 5.086 8.293 5.314 12.667l1.79 32.291 8.298 149.302h42.369l-10.088-181.593c-.54-9.912-6.621-22.096-34.156-15.762-.03-.001-.058-.001-.058-.001z" fill="#fe9900" fill-rule="evenodd"/></g><g><path clip-rule="evenodd" d="m414.904 272.401h-31.286c3.211 0 5.854 2.641 5.854 5.851v1.022 22.919 21.244c0 3.209-2.643 5.851-5.854 5.851h31.286c3.211 0 5.854-2.641 5.854-5.851v-44.163-1.022c-.001-3.209-2.643-5.851-5.854-5.851z" fill="#d7e7ec" fill-rule="evenodd"/></g><g><path clip-rule="evenodd" d="m499.072 384.215h-42.369-29.183c2.984 0 5.427 2.442 5.427 5.425v2.755 38.682c0 2.982-2.444 5.425-5.427 5.425h71.552c2.984 0 5.428-2.442 5.428-5.425v-41.436c0-2.984-2.444-5.426-5.428-5.426z" fill="#fb2a39" fill-rule="evenodd"/></g><g><path clip-rule="evenodd" d="m335.423 171.977c-11.821 0-21.511 9.685-21.511 21.528v25.731l43.051-9.883v-15.848c0-11.844-9.69-21.528-21.54-21.528z" fill="#fcd79b" fill-rule="evenodd"/></g><g><path clip-rule="evenodd" d="m356.963 193.504c0-11.843-9.69-21.528-21.54-21.528-5.115 0-9.832 1.818-13.526 4.828 9.491 2.244 16.595 10.821 16.595 20.96v15.819l18.471-4.232z" fill="#fbc56c" fill-rule="evenodd"/></g><g><path d="m506.29 378.921-9.816-176.708c-.448-8.242-3.719-14.881-9.456-19.201-6.118-4.605-14.705-6.254-25.59-4.941-3.92-28.922-17.633-55.554-39.157-75.703-23.675-22.162-54.588-34.368-87.046-34.368-46.122 0-86.598 24.626-108.957 61.413-34.277 25.85-95.257 28.674-120.05 28.674h-16.396-.029-11.849c-32.527 0-58.99 26.437-58.99 58.933v69.127c0 4.142 3.357 7.5 7.5 7.5s7.5-3.358 7.5-7.5v-69.127c0-24.225 19.734-43.933 43.99-43.933h7.057l36.927 80.927c11.161 24.47 30.538 38.615 53.162 38.808 19.896.22 38.49-10.688 46.277-27.018 1.261-2.644 2.307-4.974 3.229-7.031 5.336-11.896 5.655-12.607 23.225-16.637l208.448-47.926c.069-.014.138-.031.207-.047 10.089-2.315 17.731-2.019 21.52.834 2.12 1.595 3.297 4.297 3.501 8.04l9.648 173.677h-120.94c-4.143 0-7.5 3.358-7.5 7.5s3.357 7.5 7.5 7.5h126.795v37.286h-482v-37.286h320.65c4.143 0 7.5-3.358 7.5-7.5s-3.357-7.5-7.5-7.5h-301.696v-55.89c0-4.142-3.357-7.5-7.5-7.5s-7.5 3.358-7.5 7.5v55.89h-6.026c-7.128 0-12.928 5.798-12.928 12.925v41.437c0 7.126 5.8 12.924 12.928 12.924h486.145c7.127 0 12.927-5.798 12.927-12.924v-41.437c0-4.456-2.268-8.393-5.71-10.718zm-295.381-126.287c-.889 1.981-1.896 4.227-3.081 6.712-5.204 10.913-18.447 18.477-32.287 18.477-.107 0-.216 0-.323-.001-9.727-.083-27.812-4.095-39.643-30.034l-34.087-74.702h4.729c22.024 0 71.069-2.179 108.71-19.655-4.589 13.125-7.092 27.22-7.092 41.89 0 16.054 2.941 31.636 8.729 46.394-1.979 2.92-3.654 6.458-5.655 10.919zm33.554-25.117c-6.577 1.508-11.56 2.951-15.479 4.567-4.083-11.767-6.148-24.096-6.148-36.762 0-61.934 50.417-112.322 112.389-112.322 56.619 0 104.388 42.565 111.461 98.022l-36.422 8.374c-2.523-38.891-34.962-69.764-74.499-69.764-41.177 0-74.676 33.483-74.676 74.639 0 9.658 1.891 19.233 5.515 28.155zm120-27.59v-6.423c0-16.006-13.027-29.027-29.039-29.027-15.997 0-29.012 13.021-29.012 29.027v19.769l-24.951 5.737c-3.524-7.757-5.372-16.208-5.372-24.739 0-32.885 26.771-59.639 59.676-59.639 32.416 0 58.859 25.969 59.639 58.181zm-15 3.449-28.051 6.449v-16.321c0-7.735 6.285-14.027 14.012-14.027 7.741 0 14.039 6.292 14.039 14.027z"/><path d="m414.903 336.788c7.363 0 13.354-5.989 13.354-13.351v-45.185c0-7.361-5.991-13.351-13.354-13.351h-100.82c-7.363 0-13.354 5.989-13.354 13.351v45.185c0 7.361 5.99 13.351 13.354 13.351zm-99.174-56.887h97.528v41.886h-97.528z"/></g></g></svg>