<svg id="Capa_1" enable-background="new 0 0 511.947 511.947" height="512" viewBox="0 0 511.947 511.947" width="512" xmlns="http://www.w3.org/2000/svg"><g><g><path d="m236.159 194.676 3.835-36.427c1.794-20.505-13.374-38.581-33.879-40.375-8.78-.768-16.534 5.724-17.304 14.519-.768 8.78-8.508 15.289-17.304 14.519-8.78-.768-16.534 5.724-17.304 14.519-.768 8.78-8.508 15.289-17.304 14.519-8.78-.768-16.534 5.724-17.304 14.519-1.789 20.448 13.318 38.576 33.879 40.375l36.54 2.548z" fill="#423e4f"/><circle cx="481.858" cy="173.159" fill="#f1e12b" r="22.588"/><g fill="#e1dfe5"><path d="m496.917 383.983c0-21.719-10.024-40.933-18.506-53.303-3.776-5.506-12.279-3.726-13.561 2.826-3.281 16.772-12.083 41.031-35.698 50.477z"/><path d="m444.816 233.395c14.533 16.141 19.94 37.127 21.913 51.995.878 6.618-6.632 10.985-11.968 6.974-13.661-10.269-36.434-22.407-60.304-13.625z"/><path d="m411.747 278.899c14.346 15.933 19.799 36.586 21.835 51.417.923 6.723-6.863 11.056-12.146 6.797-13.76-11.093-36.519-25.001-60.048-20.295z"/></g><path d="m499.186 396.963c-30.22 26.26-80.89 54.78-137.8 54.78-2.72 0-5.4-.04-8.04-.13-99.44-3.22-138.17-65.91-157.61-90.22-30.11-37.65-90.35-37.65-90.35-37.65h-22.59v-67.76h286.12v52.71c0 76.04 66.21 74.08 117.1 62.3 15.26-3.54 25 15.7 13.17 25.97z" fill="#5c576e"/><path d="m353.346 451.613c-99.44-3.22-138.17-65.91-157.61-90.22-30.11-37.65-90.35-37.65-90.35-37.65h-22.59v-67.76h125.62c-5.3 61.09 20.63 136.72 144.93 195.63z" fill="#423e4f"/><path d="m443.616 249.153c-13.8 24.79-44.07 71.22-82.23 82.13-52.7 15.06-60.23-75.3-150.59-67.77-.96.08-1.92.17-2.88.27l-80.81 4.69-43.65 55.24c-2.71 2.56-5.38 5.19-8 7.91l-10.57 10.95c-14.55 14.55-38.16 14.54-52.7 0-6.24-6.24-6.24-16.35 0-22.59s6.24-16.35 0-22.59c-6.24-6.22-6.24-16.36 0-22.58 6.25-6.25 6.23-16.36 0-22.59-6.24-6.24-6.24-16.35 0-22.59 14.55-14.55 38.15-14.55 52.7 0l13.12 13.59c3.229 3.34 7.67 5.23 12.32 5.23 18 0 33.98-8.73 50.55-20.99h.01l55.28-24.86 43.48-41.11c.73-.28 1.47-.55 2.21-.82 17.29-6.22 36.8-10.1 59.3-10.1 80.69 0 122.95 42.28 140.5 66.42 6.85 9.43 7.63 21.98 1.96 32.16z" fill="#77728d"/><path d="m241.856 160.673c-12.06 19.24-32.08 57.65-33.94 103.11-43.02 4.37-92.87 26.83-132.46 67.84l-10.57 10.95c-14.55 14.55-38.16 14.54-52.7 0-6.24-6.24-6.24-16.35 0-22.59s6.24-16.35 0-22.59c-6.24-6.22-6.24-16.36 0-22.58 6.25-6.25 6.23-16.36 0-22.59-6.24-6.24-6.24-16.35 0-22.59 14.55-14.55 38.15-14.55 52.7 0l13.12 13.59c3.229 3.34 7.67 5.23 12.32 5.23 48.24 0 82-62.77 151.53-87.78z" fill="#5c576e"/><g><g><ellipse cx="353.557" cy="269.886" fill="#ffa1ac" rx="29.816" ry="23.744"/></g></g></g><g><path d="m502.683 367.375c-3.495-17.069-11.697-31.617-18.087-40.926-7.491-10.951-24.531-7.485-27.11 5.616-2.25 11.514-7.407 27.292-19.132 37.58-28.988-.115-51.672-9.714-59.155-37.607 3.129-1.663 6.194-3.505 9.181-5.521 11.501 3.995 21.68 11.055 28.347 16.433 10.494 8.467 26.133-.174 24.29-13.657-1.513-11.017-5.108-26.799-13.587-41.427.378-.499.754-.997 1.126-1.496 7.146 2.545 14.565 6.625 21.696 11.99 10.551 7.925 25.671-.713 23.909-13.951-1.84-13.906-6.71-33.827-19.328-50.598-.165-7.499-2.543-14.94-7.111-21.229-18.273-25.135-60.23-66.757-138.716-69.379 3.772-42.09 39.679-75.481 82.5-75.481 43.389 0 79.245 33.753 82.573 76.374-12.832 3.438-22.309 15.162-22.309 29.062 0 16.591 13.498 30.088 30.089 30.088s30.088-13.498 30.088-30.088c0-14.083-9.728-25.933-22.816-29.194-1.576-23.772-11.624-45.894-28.668-62.821-38.023-37.763-99.182-37.907-137.396-.505-17.145 16.781-27.376 38.841-29.136 62.578-17.073.625-32.465 3.447-46.487 7.75-1.913-21.169-18.777-38.643-40.691-40.567-12.897-1.096-24.296 8.478-25.408 21.337-.407 4.644-4.524 8.106-9.202 7.703-12.871-1.092-24.279 8.476-25.407 21.337-.407 4.645-4.539 8.1-9.193 7.703-12.871-1.091-24.289 8.475-25.414 21.314-1.315 14.467 4.583 28.537 15.385 37.849-12.318 8.041-24.383 13.311-37.187 13.311-2.594 0-5.119-1.073-6.924-2.939-14.091-14.596-14.059-14.732-17.041-17.093-3.25-2.57-7.966-2.02-10.536 1.228s-2.021 7.965 1.228 10.535c2.037 1.612 15.563 15.752 15.563 15.752 4.619 4.777 11.074 7.517 17.711 7.517 64.898 0 100.116-97.88 210.83-97.88 76.908 0 117.238 39.678 134.432 63.328 5.124 7.053 5.703 16.513 1.476 24.104-11.215 20.146-41.24 68.132-77.738 78.567-20.26 5.791-32.463-7.457-50.323-25.64-2.908-2.952-7.657-2.989-10.606-.084-2.952 2.906-2.99 7.654-.085 10.606 21.449 21.816 37.742 38.163 66.975 28.961 4.487 15.074 12.883 26.688 25.056 34.571 21.428 13.878 54.187 15.835 97.374 5.813 5.281-1.228 7.726 2.657 8.349 3.877.628 1.23 2.353 5.524-1.799 9.129-6.279 5.462-13.158 10.743-20.445 15.696-3.425 2.329-4.314 6.994-1.985 10.419 2.333 3.433 7 4.31 10.419 1.986 7.776-5.287 15.13-10.934 21.851-16.78 11.561-10.044 9.68-27.048-1.426-35.251zm-5.736-194.216c0 8.32-6.769 15.088-15.088 15.088-8.32 0-15.089-6.769-15.089-15.088s6.769-15.088 15.089-15.088c8.319 0 15.088 6.769 15.088 15.088zm-356.685 45.371c-9.047-6.011-14.183-16.534-13.194-27.402.407-4.644 4.534-8.097 9.202-7.702 12.857 1.089 24.278-8.476 25.408-21.338.407-4.644 4.543-8.099 9.192-7.702 12.882 1.091 24.288-8.476 25.417-21.346.401-4.64 4.506-8.095 9.172-7.696 15.896 1.396 27.809 15.112 27.148 30.898-39.504 16.019-67.361 43.176-92.345 62.288zm309.364 35.234c5.776 11.419 8.444 23.445 9.661 32.616-.295-.037-8.897-7.332-21.827-12.674 4.76-7.181 8.837-14.008 12.166-19.942zm-32.467 46.714c5.335 10.997 7.826 22.396 8.984 30.796-5.933-4.786-14.354-10.748-24.188-15.376 5.384-4.793 10.459-10.011 15.204-15.42zm42.036 67.792c7.332-11.079 11.086-23.531 12.98-33.339.009-.006.023-.012.04-.016 6.087 9.131 10.82 17.949 13.993 28.413-2.899.432-12.606 3.119-27.013 4.942z"/><path d="m444.472 423.995c-27.692 13.435-55.646 20.248-83.086 20.248-90.191 0-126.132-45.463-159.793-87.534-22.172-27.725-63.085-40.223-97.992-40.466 32.526-25.743 71.197-42.214 107.819-45.256 23.931-2 43.539 2.964 61.686 15.618 3.396 2.37 8.072 1.536 10.442-1.862 2.369-3.398 1.535-8.073-1.862-10.442-20.885-14.563-44.276-20.537-71.511-18.263-49.143 4.082-101.521 30.391-140.114 70.375l-10.522 10.9c-11.633 11.585-30.44 11.565-42.049-.044-3.305-3.304-3.305-8.68 0-11.983 9.152-9.153 9.151-24.045-.009-33.205-3.277-3.267-3.331-8.635.009-11.965 9.087-9.089 9.257-23.941 0-33.196-3.304-3.304-3.305-8.68 0-11.984 3.299-3.3 7.198-5.714 11.588-7.178 3.93-1.31 6.054-5.557 4.744-9.487-1.311-3.93-5.56-6.054-9.486-4.744-6.62 2.206-12.491 5.84-17.453 10.802-9.151 9.152-9.151 24.044.001 33.197 3.311 3.312 3.31 8.673.008 11.974-9.197 9.167-9.177 24.057-.008 33.196 3.304 3.303 3.303 8.679-.001 11.983-9.152 9.152-9.152 24.044 0 33.196 17.469 17.469 45.8 17.508 63.308 0l16.267-16.633c38.634.203 79.267 4.63 103.423 34.835 10.885 13.608 28.192 39.733 59.145 60.885 31.342 21.419 69.146 32.279 112.362 32.279 29.727 0 59.884-7.318 89.633-21.752 3.728-1.808 5.282-6.295 3.475-10.021-1.811-3.725-6.298-5.282-10.024-3.473z"/><path d="m382.685 227.314c3.571 0 6.735-2.561 7.377-6.199.72-4.079-2.004-7.969-6.083-8.688l-21.124-3.725c-4.087-.718-7.969 2.005-8.688 6.084s2.004 7.969 6.083 8.688z"/><path d="m363.434 234.934v12c0 4.142 3.357 7.5 7.5 7.5s7.5-3.358 7.5-7.5v-12c0-4.142-3.357-7.5-7.5-7.5s-7.5 3.358-7.5 7.5z"/></g></g></svg>