<svg id="Capa_1" enable-background="new 0 0 511.941 511.941" height="512" viewBox="0 0 511.941 511.941" width="512" xmlns="http://www.w3.org/2000/svg"><g><g><g fill="#ff8a98"><path d="m278.56 374.865c-7.18 14.36-17.56 25.55-29.69 33.38-42 27.1-105.05 13.93-129.4-46.89-3.54-8.84-2.55-18.54 2.07-26.32 2.24-3.79 5.33-7.12 9.18-9.69l27.37-18.24z"/><path d="m158.09 307.105 120.47 67.76c-7.18 14.36-17.56 25.55-29.69 33.38-52.02-15.6-94.95-44.64-127.33-73.21 2.24-3.79 5.33-7.12 9.18-9.69z"/><path d="m278.56 137.085-119.69 67.32-.78.44-27.37-18.24c-3.24-2.16-5.95-4.87-8.06-7.93-5.56-8.05-7-18.56-3.19-28.08 17.3-43.2 54.12-62.36 89.05-60.12 14.62.94 28.91 5.62 41.29 13.87 11.73 7.77 21.76 18.75 28.75 32.74z"/><path d="m122.66 178.675c33-28.76 76.26-58.27 127.15-74.33 11.73 7.77 21.76 18.75 28.75 32.74l-119.69 67.32-.78.44-27.37-18.24c-3.24-2.16-5.95-4.87-8.06-7.93z"/><path d="m120.44 218.325v75.3c-5.8 8.69-12.16 16.28-18.65 22.85-12.03 12.2-24.51 20.93-34.69 26.86-13.93 8.13-31.84 3.92-40.47-9.71-.53-.84-1.06-1.71-1.59-2.61-2.31-3.91-4.6-8.4-6.71-13.53-5.52-13.36-9.91-31.03-10.7-54.01-.09-2.44-.13-4.94-.13-7.5s.04-5.06.13-7.5c.78-22.66 5.06-40.16 10.46-53.45 2.09-5.13 4.35-9.62 6.64-13.55.63-1.1 1.26-2.14 1.9-3.15 8.63-13.63 26.54-17.84 40.47-9.71 10.53 6.14 23.53 15.27 35.94 28.14 6.05 6.27 11.97 13.43 17.4 21.57z"/><path d="m103.04 196.755c6.05 6.27 11.97 13.43 17.4 21.57v75.3c-5.8 8.69-12.16 16.28-18.65 22.85-14.51-14.5-26.03-28.03-34.37-38.61-10.03-12.74-9.77-30.75.59-43.22 8.59-10.34 20.38-23.62 35.03-37.89z"/></g><path d="m97.185 237.355c-9.041 10.89-9.272 26.608-.512 37.724 30.707 38.964 110.992 123.954 227.061 123.954 150.588 0 180.706-143.059 180.706-143.059 0-22.588-37.647-143.059-180.706-143.059-110.725.001-194.387 85.702-226.549 124.44z" fill="#ffbfc7"/><path d="m289.909 273.943-34.505 25.887-6.665 4.995c-25.051 18.788-61.584 6.815-69.83-23.396-4.548-16.656-4.801-33.296 0-50.907 5.249-19.236 21.964-31.076 39.873-32.298 10.229-.686 20.846 2.073 29.957 8.902l41.17 30.881c11.959 8.962 11.988 26.945 0 35.936z" fill="#ff8a98"/><path d="m391.896 308.451c10.505 18.347 30.385 30.637 53.109 30.342 33.102-.429 59.436-28.023 59.436-61.128v-21.69l-96.367 18.069c-15.718 2.947-24.124 20.53-16.178 34.407z" fill="#ff8a98"/><path d="m272.53 268.025-23.14 17.36-4.47 3.35c-16.8 12.6-41.3 4.57-46.83-15.69-3.05-11.17-3.22-22.33 0-34.14 3.52-12.9 14.73-20.84 26.74-21.66 6.86-.46 13.98 1.39 20.09 5.97l27.61 20.71c8.02 6.01 8.04 18.07 0 24.1z" fill="#fd5c6f"/><path d="m247.261 286.98-2.341 1.754c-16.8 12.6-41.3 4.57-46.83-15.69-3.05-11.17-3.22-22.33 0-34.14 3.52-12.9 14.73-20.84 26.74-21.66-13.477 10.795-26.329 53.241 22.431 69.736z" fill="#f6334c"/><g><ellipse cx="345.961" cy="247.338" fill="#fff" rx="29.756" ry="23.696"/></g></g><g><path d="m511.94 255.957c-.008-12.546-9.406-49.739-38.432-84.769-24.863-30.006-71.03-65.773-149.778-65.773-17.796 0-35.693 2.197-53.538 6.512-44.292-47.907-128.387-37.448-157.685 35.881-6.529 16.312-.62 35.252 14.056 45.039l1.374.915c-3.193 3.007-6.362 6.073-9.487 9.199-8.601-10.746-18.647-20.525-29.991-29.116-3.303-2.501-8.007-1.851-10.507 1.452-2.5 3.302-1.851 8.006 1.451 10.507 10.884 8.242 20.465 17.652 28.546 28.024-1.043 1.116-2.073 2.238-3.102 3.362-30.716-16.617-55.509-26.963-72.89-33.207.333-.553.667-1.105 1.009-1.645 4.183-6.604 11.376-10.515 19.266-10.346 4.019.097 7.551-3.153 7.618-7.381.065-4.142-3.239-7.552-7.38-7.617-13.179-.213-25.172 6.265-32.174 17.314-2.379 3.756-4.74 8.12-5.992 10.815-9.49 19.572-14.304 43.406-14.304 70.852 0 28.125 5.145 57.821 20.294 81.662 10.832 17.109 33.064 22.403 50.583 12.178 12.755-7.437 30.715-20.175 46.592-39.603 2.96 3.048 5.961 6.033 8.997 8.959-14.602 9.802-20.474 28.695-13.961 44.966 29.223 73.14 112.861 83.661 157.224 36.378 32.409 7.464 64.236 8.084 94.54 2.37 4.07-.768 6.748-4.689 5.98-8.76-.767-4.069-4.686-6.749-8.76-5.98-90.539 17.07-187.335-26.936-258.931-117.714-6.518-8.266-6.353-20.161.392-28.286 12.643-15.231 27.199-30.365 42.095-43.764 39.539-35.567 102.634-77.966 178.684-77.966 72.92 0 115.417 32.815 138.228 60.344 26.692 32.213 34.983 66.405 34.983 75.216v22.588c0 29.078-23.657 52.735-52.735 52.735s-52.735-23.657-52.735-52.735c0-4.143-3.358-7.5-7.5-7.5s-7.5 3.357-7.5 7.5c0 6.6.966 12.975 2.734 19.01-34.964 14.268-46.621 36.865-47.123 37.868-2.502 5.004 1.143 10.884 6.707 10.884 2.741 0 5.375-1.507 6.687-4.129.102-.197 10.012-18.763 39.52-30.786 11.562 20.758 33.711 34.846 59.102 34.886-14.794 14.072-31.677 24.975-50.398 32.513-3.842 1.547-5.703 5.916-4.156 9.759 1.549 3.847 5.923 5.702 9.758 4.155 26.982-10.864 50.442-28.081 69.749-51.164 25.09-9.931 42.891-34.415 42.891-62.995zm-385.505-102.58c23.942-59.925 89.079-70.189 127.082-36.786-5.595 1.771-11.18 3.752-16.751 5.937-16.497-10.552-29.729-14.944-30.304-15.132-3.932-1.288-8.159.855-9.452 4.787-1.292 3.931.848 8.167 4.777 9.466.098.032 7.555 2.532 17.949 8.217-5.732 2.695-11.443 5.605-17.129 8.735-16.937-10.126-30.426-14.135-31.014-14.306-3.975-1.167-8.128 1.115-9.294 5.085-1.167 3.97 1.106 8.136 5.075 9.309.106.031 8.615 2.588 20.248 8.7-6.327 3.94-12.616 8.141-18.858 12.618-11.599-4.749-19.664-6.517-20.024-6.594-4.046-.872-8.026 1.697-8.904 5.74-.878 4.044 1.69 8.036 5.732 8.92.052.011 3.501.781 9.016 2.643-5.103 4.039-10.171 8.251-15.199 12.649l-4.505-3c-8.802-5.872-12.355-17.219-8.445-26.988zm-101.004 161.632c-6.145-14.673-9.592-31.952-10.287-51.534h68.299c1.077 5.804 3.517 11.397 7.339 16.244 1.151 1.459 2.311 2.906 3.478 4.345-29.267 15.612-52.668 25.222-68.829 30.945zm65.979-82.445c-3.913 4.714-6.491 10.191-7.736 15.911h-68.53c.686-19.329 4.054-36.418 10.055-50.976 16.32 5.769 39.922 15.463 69.45 31.238-1.086 1.275-2.179 2.549-3.239 3.827zm-28.09 104.294c-10.55 6.157-23.882 2.975-30.359-7.255-.231-.363-.456-.74-.684-1.111 17.158-6.178 41.609-16.383 71.869-32.71.991 1.129 1.989 2.25 2.991 3.366-14.77 18.599-31.811 30.711-43.817 37.71zm152.507 44.845c-7.351 3.767-12.177 5.143-12.27 5.168-3.984 1.092-6.336 5.202-5.257 9.192 1.08 3.992 5.196 6.365 9.199 5.28.472-.128 11.158-3.086 25.484-12.216 6.567 2.574 13.168 4.859 19.79 6.871-38.132 32.655-102.566 22.072-126.34-37.432-3.908-9.764-.355-21.111 8.444-26.98l2.918-1.943c5.374 4.765 10.849 9.341 16.417 13.717-4.731 1.973-7.758 2.99-7.908 3.04-3.935 1.296-6.074 5.535-4.778 9.47 1.293 3.926 5.523 6.075 9.469 4.778.317-.105 7.242-2.407 16.993-6.999 5.011 3.551 10.084 6.948 15.215 10.174-10.234 5.011-17.809 7.547-17.907 7.58-3.931 1.299-6.066 5.537-4.77 9.469 1.298 3.939 5.54 6.07 9.471 4.775.556-.183 13.128-4.372 28.422-12.842 7.14 3.953 12.051 6.376 17.408 8.898z"/><path d="m221.43 225.338c4.022-.988 6.482-5.05 5.494-9.072-.987-4.022-5.048-6.482-9.073-5.494-13.321 3.272-23.412 13.05-26.995 26.157-3.5 12.816-3.5 25.276 0 38.091 6.916 25.341 37.549 35.476 58.566 19.715l27.62-20.718c12.008-9.039 12.025-27.041-.01-36.092l-18.92-14.19c-3.313-2.484-8.014-1.813-10.5 1.5-2.485 3.313-1.814 8.015 1.5 10.5l18.912 14.185c4.063 3.056 4 9.102.007 12.105l-27.609 20.71c-12.416 9.312-30.91 3.669-35.095-11.665-2.773-10.157-2.773-20.032 0-30.188 2.124-7.778 8.145-13.589 16.103-15.544z"/><path d="m381.115 201.559c-1.204-3.963-5.396-6.197-9.355-4.997-6.222 1.889-14.213 2.799-16.487 1.903-2.761-2.797-7.258-2.999-10.262-.38-3.122 2.722-3.447 7.459-.726 10.581 4.328 4.965 11.961 5.562 18.547 4.955l-.008 10.765c-.003 4.143 3.352 7.503 7.494 7.506 4.196 0 7.502-3.403 7.506-7.494.01-13.048.119-12.634-.315-14.062 3.074-1.66 4.66-5.305 3.606-8.777z"/></g></g></svg>