<svg id="Capa_1" enable-background="new 0 0 511.967 511.967" height="512" viewBox="0 0 511.967 511.967" width="512" xmlns="http://www.w3.org/2000/svg"><g><g><path d="m293.63 203.278h-75.294l20.72-165.763c1.067-8.536 8.324-14.943 16.927-14.943 8.599 0 15.859 6.402 16.927 14.943z" fill="#5c576e"/><path d="m436.693 353.864c0 72.56-56.13 91.59-124.99 96.36-17.96 1.25-36.79 1.52-55.72 1.52-91.48 0-180.71-6.39-180.71-97.88 0-76.53 62.45-188.37 136.42-222.88 14.45-6.74 29.34-10.53 44.29-10.53 91.48 0 180.71 141.93 180.71 233.41z" fill="#77728d"/><path d="m311.703 450.224c-17.96 1.25-36.79 1.52-55.72 1.52-91.48 0-180.71-6.39-180.71-97.88 0-76.53 62.45-188.37 136.42-222.88-33.38 51.74-116.71 217.02 100.01 319.24z" fill="#5c576e"/><path d="m338.803 361.394s-7.53 45.18-82.82 45.18c-5.92 0-11.43-.28-16.54-.79-59.89-6.04-66.28-44.39-66.28-44.39s6.32-4.74 18.23-9.87c14.1-6.09 36.03-12.72 64.59-12.72 52.71 0 82.82 22.59 82.82 22.59z" fill="#ffbfc7"/><path d="m239.443 405.784c-59.89-6.04-66.28-44.39-66.28-44.39s6.32-4.74 18.23-9.87c11.12 18.57 26.74 36.85 48.05 54.26z" fill="#ff8a98"/><path d="m453.013 397.784c-5.93 5.93-15.11 7.08-22.28 2.8-56.28-33.62-148.66-45.62-230.69-35.96l-65.78-1.69-49.36 35.52c-1.24.7-2.46 1.41-3.67 2.13-7.18 4.29-16.36 3.12-22.28-2.8-7.29-7.29-7.2-19.25.41-26.29 4.67-4.32 10.03-8.46 16.01-12.4l53.35-3.98 48.94-32.4c24.31-4.19 50.72-6.49 78.32-6.49 86.51 0 161.29 22.56 196.62 55.27 7.59 7.02 7.72 18.98.41 26.29z" fill="#e1dfe5"/><path d="m200.043 364.624c-45.4 5.35-87.63 17.34-118.81 35.96-7.18 4.29-16.36 3.12-22.28-2.8-7.29-7.29-7.2-19.25.41-26.29 24.06-22.27 66.41-39.84 118.3-48.78 5.1 14.04 12.39 28.09 22.38 41.91z" fill="#c2c0cb"/></g><g><path d="m468.59 189.809c-7.432-13.128-11.953-26.943-13.438-41.063-3.348-31.693 8.721-50.824 35.869-56.861 4.043-.899 6.593-4.906 5.693-8.949-.898-4.043-4.904-6.591-8.949-5.693-34.811 7.741-51.69 33.694-47.531 73.076 1.702 16.177 6.851 31.949 15.302 46.88 20.823 36.792 56.578 109.116 34.569 145.482-9.953 16.445-28.437 18.713-37.709 18.727-2.597-2.127-5.351-4.208-8.26-6.24.275-84.804-71.145-207.947-153.486-236.184l-10.296-82.401c-1.535-12.262-12.013-21.508-24.371-21.508-12.357 0-22.835 9.246-24.372 21.508l-1.48 11.82c-.515 4.11 2.4 7.859 6.51 8.374 4.114.515 7.859-2.4 8.374-6.51l1.48-11.819c.598-4.773 4.677-8.373 9.488-8.373 4.812 0 8.891 3.599 9.487 8.37l9.54 76.352c-12.394-2.371-24.797-2.536-38.058.005l3.722-29.797c.514-4.11-2.402-7.858-6.512-8.372-4.112-.508-7.858 2.403-8.372 6.513l-4.479 35.852c-82.063 28.185-154.928 152.381-153.455 236.102-2.92 2.045-5.696 4.147-8.321 6.305-9.371-.025-27.717-2.329-37.644-18.674-22.037-36.289 13.588-108.514 34.539-145.533 8.452-14.931 13.6-30.703 15.302-46.877 4.16-39.385-12.72-65.338-47.531-73.079-4.046-.896-8.05 1.65-8.949 5.693s1.65 8.05 5.693 8.949c27.149 6.037 39.217 25.167 35.869 56.864-1.485 14.117-6.006 27.932-13.438 41.061-24.636 43.531-60.296 117.914-34.305 160.708 8.225 13.544 21.936 22.251 38.722 24.974-3.671 9.495-1.345 20.395 5.856 27.596 7.579 7.578 18.88 9.601 28.472 5.429 5.195 8.031 11.808 15.122 19.778 21.105 3.305 2.482 8.008 1.826 10.501-1.494 2.487-3.313 1.818-8.014-1.494-10.501-6.312-4.739-11.445-10.103-15.572-16.263 21.165-10.852 47.055-19.248 75.919-24.777 3.922 6.824 10.524 15.062 21.546 22.106 15.966 10.206 37.225 15.38 63.184 15.38 26 0 47.283-5.19 63.258-15.428 10.973-7.031 17.553-15.241 21.469-22.056 28.864 5.528 54.753 13.923 75.914 24.771-26.624 39.45-93.781 42.883-160.641 42.883-38.454 0-82.259-.913-115.438-11.815-3.933-1.294-8.174.848-9.466 4.784-1.293 3.935.849 8.173 4.784 9.466 7.698 2.529 15.869 4.553 24.351 6.171-11.296 14.745-30.467 29.044-62.35 29.044-4.142 0-7.5 3.358-7.5 7.5s3.358 7.5 7.5 7.5c44.316 0 67.823-24.419 78.823-41.434 25.994 3.376 53.804 3.783 79.297 3.783 27.119 0 54.308-.582 79.264-3.833 10.967 16.987 34.479 41.483 78.856 41.483 4.143 0 7.5-3.358 7.5-7.5s-3.357-7.5-7.5-7.5c-31.931 0-51.111-14.348-62.397-29.106 33.764-6.457 61.999-19.225 78.153-44.247 9.672 4.197 20.938 2.065 28.458-5.454 7.215-7.215 9.528-18.115 5.858-27.599 16.816-2.73 30.547-11.466 38.763-25.041 25.902-42.798-9.698-117.079-34.349-160.635zm-212.607 209.265c-41.071 0-60.01-14.187-68.53-25.236 44.554-6.654 93.372-6.523 137.059.003-8.528 11.061-27.466 25.233-68.529 25.233zm191.727-6.594c-3.504 3.506-8.902 4.19-13.13 1.666-89.762-53.637-267.303-53.713-357.193 0-7.26 4.335-16.476-1.092-16.311-9.565.057-2.925 1.257-5.617 3.383-7.583 49.982-46.275 173.88-65.293 276.38-45.46 4.078.791 8.002-1.873 8.788-5.938.787-4.067-1.872-8.001-5.938-8.788-14.08-2.725-28.621-4.764-43.512-6.115 11.698-24.919 35.007-40.774 35.257-40.942 3.446-2.297 4.378-6.954 2.08-10.4-2.297-3.447-6.955-4.377-10.4-2.08-1.277.851-30.165 20.409-42.753 52.253-18.664-1.066-37.857-1.074-56.754 0-12.586-31.841-41.468-51.397-42.753-52.253-3.441-2.295-8.089-1.365-10.39 2.074-2.3 3.439-1.375 8.096 2.061 10.4.259.174 23.557 16.027 35.257 40.939-50.701 4.564-95.981 16.904-128.774 35.012 4.449-85.68 88.1-217.745 172.976-217.745 83.678 0 167.561 128.702 172.892 217.758-14.396-7.912-31.354-14.822-50.358-20.459-3.975-1.176-8.146 1.086-9.323 5.058s1.087 8.145 5.058 9.323c31.674 9.395 57.006 22.315 73.26 37.365 4.428 4.097 4.538 11.139.197 15.48z"/><path d="m143.042 281.66c-4.142 0-7.5 3.358-7.5 7.5v12c0 4.142 3.358 7.5 7.5 7.5s7.5-3.358 7.5-7.5v-12c0-4.142-3.358-7.5-7.5-7.5z"/><path d="m376.424 301.16v-12c0-4.142-3.357-7.5-7.5-7.5s-7.5 3.358-7.5 7.5v12c0 4.142 3.357 7.5 7.5 7.5s7.5-3.358 7.5-7.5z"/></g></g></svg>