<svg id="Capa_1" enable-background="new 0 0 511.961 511.961" height="512" viewBox="0 0 511.961 511.961" width="512" xmlns="http://www.w3.org/2000/svg"><g><g><path d="m491.896 199.791c-6.9 9.69-10.4 21.29-11.04 33.16-1.23 22.6-14.92 42.15-34.74 51.37-12.91 6-23.34 16.43-29.35 29.35-1.61 3.47-3.55 6.76-5.76 9.82-12.23 16.93-32.99 27.07-55.39 24.64-10.94-1.19-22.02.78-32 5.41-22.28 10.35-49.58 6.32-67.95-12.05l-85.2-85.19c-18.37-18.38-22.39-45.68-12.05-67.96 4.64-9.98 6.6-21.06 5.42-31.99-2.87-26.45 11.77-50.61 34.46-61.16 12.91-6 23.34-16.44 29.35-29.35 2.26-4.86 5.16-9.37 8.59-13.43 10.71-12.68 26.6-20.9 44.46-21.37 11.37-.3 22.23-4.41 31.49-11.01 19.82-14.13 45.93-16.42 67.88-6.21 13.38 6.23 28.45 8.24 42.77 4.67 45.11-11.25 81.86 25.63 70.63 70.64-3.56 14.27-1.61 29.31 4.63 42.64 10.32 22.06 7.9 48.24-6.2 68.02z" fill="#df8a57"/><path d="m436.366 171.031-6.46 4.77.82 9.31c-11.96 27-30.58 54.47-53.62 77.52-2.9 2.9-5.9 5.44-8.95 7.66l-10.51 1-4.37 7.41c-10.1 4.31-20.33 6.22-29.78 7.38-9.56 1.17-15.19 10.64-12.58 19.22.4 1.3.98 2.58 1.77 3.81 7.27 11.27 13.74 26.15 12.34 43.8-1.3 16.33-9.34 35.03-29.74 55.43-25.22 25.22-23.9 47.5-16.97 62.93 3.06 6.84-4.7 13.48-10.95 9.35-20.34-13.43-40.81-38.66-18.66-81.54 2.85-5.52 5.87-10.25 8.87-14.36 6.55-8.97 2.52-21.66-7.99-25.25-.22-.08-.45-.16-.67-.24-9.03-3.14-18.71 2.29-21.15 11.54-5.23 19.64-20.56 43.4-57.85 66.99-30.15 19.06-33.74 41.09-30.38 57.67 1.49 7.34-7.53 12.11-12.73 6.72-16.9-17.58-31.31-46.68-.3-83.65 7.78-9.28 17.11-17.15 27.32-23.67 25.4-16.24 47.4-40.36 45.45-68.34-.52-7.38-6.43-13.29-13.81-13.81-27.99-1.96-52.11 20.07-68.34 45.45-6.52 10.21-14.39 19.54-23.67 27.32-36.97 31.01-66.07 16.6-83.65-.3-5.39-5.2-.62-14.22 6.72-12.73 16.58 3.36 38.61-.23 57.67-30.38 23.59-37.29 47.35-52.62 66.99-57.85 9.25-2.44 14.68-12.12 11.54-21.15-.08-.22-.16-.45-.24-.67-3.59-10.51-16.28-14.54-25.25-7.99-4.11 3-8.84 6.02-14.36 8.87-42.88 22.15-68.11 1.68-81.54-18.66-4.13-6.25 2.51-14.01 9.35-10.95 15.43 6.93 37.71 8.25 62.93-16.97 20.4-20.4 39.1-28.44 55.43-29.74 17.65-1.4 32.53 5.07 43.8 12.34 4.01 2.58 8.58 2.98 12.59 1.71 5.33-1.66 9.67-6.24 10.44-12.521 2.11-17.11 6.65-36.8 23.45-53.61 9.21-9.21 19.12-17.71 29.43-25.36h9.19l3.21-8.67c52.5-34.54 111.65-46.76 139.19-19.21 18.98 18.971 19.08 52.951 6.02 89.421z" fill="#c76d33"/><path d="m295.286 408.341c-25.22 25.22-23.9 47.5-16.97 62.93 3.06 6.84-4.7 13.48-10.95 9.35-20.34-13.43-40.81-38.66-18.66-81.54 2.85-5.52 5.87-10.25 8.87-14.36 6.55-8.97 2.52-21.66-7.99-25.25-.22-.08-.45-.16-.67-.24-9.03-3.14-18.71 2.29-21.15 11.54-5.23 19.64-20.56 43.4-57.85 66.99-30.15 19.06-33.74 41.09-30.38 57.67 1.49 7.34-7.53 12.11-12.73 6.72-16.9-17.58-31.31-46.68-.3-83.65 7.78-9.28 17.11-17.15 27.32-23.67 25.4-16.24 47.4-40.36 45.45-68.34-.52-7.38-6.43-13.29-13.81-13.81-27.99-1.96-52.11 20.07-68.34 45.45-6.52 10.21-14.39 19.54-23.67 27.32-36.97 31.01-66.07 16.6-83.65-.3-5.39-5.2-.62-14.22 6.72-12.73 16.58 3.36 38.61-.23 57.67-30.38 23.59-37.29 47.35-52.62 66.99-57.85 9.25-2.44 14.68-12.12 11.54-21.15-.08-.22-.16-.45-.24-.67-3.59-10.51-16.28-14.54-25.25-7.99-4.11 3-8.84 6.02-14.36 8.87-42.88 22.15-68.11 1.68-81.54-18.66-4.13-6.25 2.51-14.01 9.35-10.95 15.43 6.93 37.71 8.25 62.93-16.97 20.4-20.4 39.104-28.44 55.435-29.74 0 0-.575 165.98 165.975 165.98-1.3 16.33-9.34 35.03-29.74 55.43z" fill="#a05423"/></g><g><path d="m384.364 59.024c-4.14.128-7.393 3.589-7.264 7.729s3.591 7.396 7.729 7.264c54.026-1.677 62.77 43.12 44.55 94.258-1.644-.359-3.327-.554-5.022-.554-4.666 0-8.47-3.783-8.47-8.48 0-13.019-10.567-23.47-23.48-23.47-4.67 0-8.47-3.799-8.47-8.47 0-4.142-3.358-7.5-7.5-7.5s-7.5 3.358-7.5 7.5c0 12.941 10.528 23.47 23.47 23.47 4.634 0 8.48 3.746 8.48 8.47 0 12.716 10.081 23.058 22.705 23.461-11.802 26.469-29.969 52.799-51.786 74.624-3.405 3.403-6.95 6.247-10.576 8.638-2.475-1.674-3.753-4.295-3.753-7.014 0-12.938-10.474-23.47-23.48-23.47-4.674 0-8.47-3.795-8.47-8.47 0-12.963-10.502-23.47-23.47-23.47-4.67 0-8.47-3.804-8.47-8.48 0-4.142-3.358-7.5-7.5-7.5s-7.5 3.358-7.5 7.5c0 12.947 10.528 23.48 23.47 23.48 4.675 0 8.47 3.795 8.47 8.47 0 12.963 10.503 23.47 23.47 23.47 4.702 0 8.48 3.808 8.48 8.47 0 5.156 1.657 10.058 4.715 14.104-8.371 3.13-16.789 4.617-24.608 5.581-16.509 2.024-25.19 20.559-16.2 34.539 19.374 30.051 14.009 59.446-16.4 89.863-20.518 20.518-30.029 44.425-18.508 71.307 0 0 0 .001-.001.001-26.321-17.392-31.739-41.556-16.103-71.825 2.442-4.73 5.145-9.107 8.262-13.377 9.513-13.029 3.721-31.477-11.551-36.746-14.067-5.074-28.058 3.151-31.564 16.442-5.957 22.371-24.331 43.427-54.61 62.581-34.432 21.767-37.344 47.633-33.723 65.501v.003c-21.844-22.744-21.823-47.51.067-73.607 6.96-8.302 15.576-15.761 25.612-22.169 19.354-12.374 51.441-38.596 48.892-75.186-.779-11.058-9.706-19.985-20.768-20.765-36.588-2.563-62.803 29.533-75.185 48.896-6.406 10.033-13.865 18.648-22.168 25.61-26.1 21.893-50.867 21.913-73.605.066.002 0 .004 0 .005.001 17.865 3.619 43.732.708 65.498-33.721 19.155-30.281 40.211-48.655 62.565-54.607 6.593-1.739 12.169-6.168 15.3-12.15 6.544-12.508.68-29.755-14.286-34.474-7.325-2.31-15.087-1.032-21.299 3.504-7.33 5.351-15.755 9.923-23.724 12.875-3.884 1.439-5.866 5.754-4.427 9.638 1.438 3.884 5.753 5.866 9.638 4.427 9.227-3.418 18.942-8.683 27.357-14.826 4.882-3.567 11.769-1.384 13.729 4.357 2.088 6.011-1.222 10.853-6.132 12.148-26.137 6.96-50.159 27.513-71.4 61.089-13.809 21.845-30.577 30.944-49.838 27.038-6.597-1.341-13.138 1.767-16.272 7.731-3.127 5.951-1.981 13.082 2.862 17.755 16.434 15.798 50.455 36.886 93.667.641 9.474-7.943 17.943-17.71 25.17-29.027 8.523-13.329 31.575-44.105 61.494-42.009 3.651.257 6.599 3.205 6.855 6.85 2.086 29.932-28.683 52.979-42.005 61.497-11.321 7.229-21.088 15.699-29.029 25.171-36.248 43.214-15.158 77.235.648 93.678 2.913 3.019 6.787 4.599 10.735 4.599 9.232-.002 16.693-8.416 14.743-18.017-3.903-19.263 5.193-36.032 27.04-49.842 33.574-21.24 54.127-45.262 61.092-71.416 1.316-4.987 6.375-8.21 12.005-6.165 6.385 2.353 7.815 9.233 4.495 13.78-3.578 4.9-6.677 9.919-9.476 15.34-25.89 50.119 2.164 78.678 21.188 91.239 5.603 3.702 12.809 3.266 17.934-1.083 5.144-4.366 6.75-11.434 3.993-17.597-8.046-17.914-2.854-36.268 15.432-54.554 18.004-18.008 28.437-36.64 31.25-55.35 7.465-2.599 15.34-3.535 22.968-2.707 29.444 3.197 56.742-12.926 68.759-38.753 4.126-8.872 10.635-16.428 18.821-21.85 3.453-2.287 4.398-6.941 2.111-10.395-2.289-3.454-6.942-4.399-10.395-2.111-10.497 6.952-18.844 16.645-24.138 28.029-9.36 20.116-30.615 32.655-53.539 30.168-7.967-.865-16.121-.241-24.013 1.793-1.009-12.561-5.473-25.087-13.42-37.414-3.015-4.689-.123-10.851 5.419-11.53 17.203-2.122 39.341-6.947 57.997-25.591 29.418-29.428 52.626-66.725 63.672-102.327 12.044-38.818 8.339-70.532-10.434-89.298-11.972-11.972-29.716-17.942-51.282-17.279z"/><path d="m504.888 128.591c-5.694-12.165-7.167-25.534-4.146-37.645 12.61-50.539-29.201-92.339-79.721-79.733-12.091 3.015-25.512 1.525-37.793-4.193-24.53-11.409-53.419-8.764-75.396 6.903-8.482 6.045-17.935 9.372-27.334 9.62-26.553.696-49.189 16.61-59.652 39.132-5.273 11.327-14.405 20.459-25.71 25.714-25.264 11.736-42.019 38.703-38.757 68.765.823 7.64-.117 15.514-2.716 22.964-18.711 2.812-37.343 13.246-55.351 31.25-18.286 18.285-36.639 23.477-54.564 15.427-6.153-2.753-13.221-1.147-17.587 3.997-4.35 5.125-4.785 12.332-1.086 17.93 10.765 16.316 24.194 26.451 39.914 30.123 4.026.941 8.066-1.557 9.009-5.597.942-4.034-1.564-8.067-5.597-9.009-11.852-2.769-22.21-10.758-30.791-23.754.001-.001.001-.001.002 0 16.621 7.465 42.484 10.314 71.305-18.508 30.417-30.41 59.813-35.775 89.871-16.396 13.963 8.98 32.506.31 34.531-16.2 1.94-15.74 5.99-33.897 21.308-49.224 8.657-8.654 18.012-16.725 27.794-24.053.019.235.034.47.034.708 0 12.965 10.5 23.47 23.48 23.47 4.674 0 8.47 3.794 8.47 8.47 0 12.964 10.502 23.47 23.47 23.47 4.656 0 8.47 3.774 8.47 8.48 0 4.142 3.358 7.5 7.5 7.5s7.5-3.358 7.5-7.5c0-12.99-10.516-23.48-23.47-23.48-4.675 0-8.47-3.795-8.47-8.47 0-12.964-10.503-23.47-23.47-23.47-4.719 0-8.48-3.828-8.48-8.47 0-3.433-.737-6.752-2.126-9.782 18.31-12.054 37.651-21.427 56.445-27.131 3.963-1.203 6.201-5.392 4.998-9.355s-5.395-6.201-9.355-4.998c-35.931 10.907-73.616 34.235-103.396 64.005-18.642 18.653-23.467 40.792-25.589 57.999-.677 5.523-6.834 8.434-11.522 5.419-12.33-7.949-24.858-12.414-37.419-13.423 2.032-7.878 2.661-16.027 1.802-24.002-2.524-23.265 10.36-44.349 30.165-53.549 14.509-6.743 26.225-18.458 32.991-32.992 8.15-17.544 25.78-29.921 46.446-30.462 12.396-.327 24.723-4.615 35.646-12.4 17.589-12.541 40.72-14.654 60.36-5.518 15.381 7.162 32.338 8.99 47.752 5.147 39.532-9.871 71.405 21.993 61.537 61.548-3.853 15.442-2.037 32.359 5.113 47.633 9.191 19.646 7.079 42.824-5.516 60.491-7.375 10.357-11.67 23.188-12.419 37.102-.627 11.5-4.854 22.214-12.223 30.984-2.665 3.171-2.254 7.902.917 10.566 3.169 2.664 7.902 2.255 10.567-.917 9.477-11.277 14.911-25.046 15.717-39.821.597-11.075 3.937-21.177 9.658-29.21 15.727-22.065 18.365-51.015 6.884-75.555z"/><path d="m188.904 245.343 8.485-8.485c2.929-2.929 2.929-7.678 0-10.606-2.929-2.929-7.678-2.929-10.606 0l-8.485 8.485c-4.739 4.738-1.318 12.803 5.303 12.803 1.919 0 3.839-.732 5.303-2.197z"/><path d="m277.22 333.659 8.485-8.485c2.929-2.929 2.929-7.678 0-10.606-2.929-2.929-7.678-2.929-10.606 0l-8.485 8.485c-4.739 4.738-1.318 12.803 5.303 12.803 1.919 0 3.839-.732 5.303-2.197z"/><path d="m216.883 264.821c-4.126-.288-7.712 2.836-7.996 6.969-1.223 17.812 13.562 32.5 31.28 31.28 4.133-.284 7.252-3.864 6.969-7.996-.284-4.133-3.874-7.257-7.996-6.969-8.918.617-15.871-6.808-15.288-15.288.284-4.132-2.836-7.712-6.969-7.996z"/></g></g></svg>