<svg id="Capa_1" enable-background="new 0 0 511.966 511.966" height="512" viewBox="0 0 511.966 511.966" width="512" xmlns="http://www.w3.org/2000/svg"><g><g><path d="m396.528 327.523c-12.54-.16-28.56 3.17-42.4 17.14-102.52-44.98-104.9-126.01-89.14-185.66 7.58-28.67 19.35-52.4 26.22-64.81 2.57-4.65 9.02-5.24 12.38-1.12 16.53 20.28 58.7 75.46 81.05 136.33 11.959 32.57 18.24 66.77 11.89 98.12z" fill="#c2c0cb"/><path d="m396.528 327.523c-12.54-.16-28.56 3.17-42.4 17.14-102.52-44.98-104.9-126.01-89.14-185.66 45.05 13.53 92.13 35.37 119.65 70.4 11.959 32.57 18.24 66.77 11.89 98.12z" fill="#b3b0be"/><path d="m32.312 261.668c-10.659-15.913-18.617-34.565-23.875-49.093-4.321-11.941 7.334-23.653 19.218-19.178 48.202 18.154 86.047 77.624 86.047 77.624v15.059s-37.845 59.471-86.047 77.624c-11.884 4.476-23.539-7.237-19.218-19.178 5.258-14.529 13.216-33.181 23.875-49.093 6.859-10.24 6.859-23.525 0-33.765z" fill="#59c2e8"/><path d="m164.1 320.883-43.139 20.858c-7.942 3.84-11.267 13.391-7.427 21.332 3.837 7.935 13.384 11.27 21.332 7.427 7.935-3.837 17.489-.521 21.332 7.427l4.635 9.586c3.84 7.942 13.391 11.267 21.332 7.427 7.935-3.837 17.489-.521 21.332 7.427 3.837 7.935 13.384 11.27 21.332 7.427l9.586-4.635c7.942-3.84 17.492-.515 21.332 7.427 3.837 7.935 13.384 11.27 21.332 7.427 7.935-3.837 11.27-13.384 7.427-21.332l-20.858-43.139z" fill="#59c2e8"/><path d="m492.223 270.479c15.917 11.632 16.366 35.214 1.002 47.568-33.277 26.758-96.372 65.915-180.639 65.915-96.705 0-173.959-47.113-206.092-70.273-10.15-7.315-16.152-19.065-16.152-31.577 0-16.303 10.143-30.904 25.446-36.527 36.296-13.339 108.425-34.799 196.798-34.799 83.428 0 146.104 35.188 179.637 59.693z" fill="#91d4f2"/><path d="m355.988 327.663c-16.32 8.64-31.72 14.53-46.23 18.11-30.75 7.63-57.47 4.91-80.38-3.84-51.08-19.5-83.36-69.02-99.68-101.23 16.52-5.53 37.74-11.72 62.61-17.03 10.05-2.15 20.71-4.15 31.9-5.9 4.08.66 8.2 1.37 12.35 2.15 49.29 9.26 101.88 27.66 132.37 63.88-7.92 9.73-15.27 24.339-12.94 43.86z" fill="#59c2e8"/><path d="m373.628 268.523c-8.98 8.76-17.95 22.44-17.86 42.1-17.2 6.72-33.18 10.81-48 12.71-31.42 4.07-57.65-1.68-79.42-12.99-60.11-31.23-86.29-104.95-94.18-132.33-1.47-5.11 2.67-10.08 7.96-9.55 6.86.7 16.69 1.85 28.53 3.67l9.29 4.55 7.39-1.74c11.21 2.05 23.52 4.61 36.38 7.84 8.39 2.1 17.01 4.48 25.7 7.17 47.91 14.82 98.05 39.11 124.21 78.57z" fill="#e1dfe5"/><path d="m307.768 323.333c-31.42 4.07-57.65-1.68-79.42-12.99-60.11-31.23-86.29-104.95-94.18-132.33-1.47-5.11 2.67-10.08 7.96-9.55 6.86.7 16.69 1.85 28.53 3.67l9.29 4.55 7.39-1.74c11.21 2.05 23.52 4.61 36.38 7.84-8.34 28.869-20.63 108.559 84.05 140.55z" fill="#c2c0cb"/><g><g><ellipse cx="420.458" cy="306.254" fill="#fff" rx="23.047" ry="28.941" transform="matrix(.005 -1 1 .005 112.333 725.343)"/></g></g></g><g><path d="m496.644 264.428c-34.11-24.934-72.158-42.428-110.672-52.068-8.06-19.152-18.48-39.219-31.006-59.691-2.162-3.534-6.783-4.645-10.312-2.483-3.533 2.162-4.646 6.779-2.483 10.312 10.009 16.359 18.615 32.417 25.685 47.9-22.845-4.257-42.34-5.375-63.495-5.053-.513.01-13.07-6.92-37.494-15.498 5.125-38.879 21.449-72.922 30.909-90.035 5.868 7.198 15.046 18.898 25.437 33.759 2.374 3.394 7.049 4.224 10.444 1.849 3.395-2.374 4.223-7.05 1.849-10.444-10.653-15.235-20.075-27.248-26.104-34.642-6.707-8.226-19.619-7.062-24.756 2.231-9.743 17.621-26.393 52.33-32.249 92.489-45.554-14.22-89.136-19.976-109.505-22.047-10.559-1.077-18.866 8.875-15.927 19.083 3.281 11.393 9.096 28.808 18.296 47.844-11.046 3.283-21.804 6.839-32.066 10.613-3.705 1.366-7.156 3.188-10.311 5.378-6.752-8.182-15.964-18.449-26.75-28.148-3.082-2.77-7.823-2.517-10.592.563-2.77 3.08-2.518 7.822.563 10.592 10.546 9.482 19.519 19.581 25.964 27.46-11.264 15.135-12.299 35.331-2.651 51.517-15.517 18.451-38.51 41.025-64.403 50.778-5.837 2.198-11.687-3.623-9.523-9.608 4.695-12.962 12.506-31.72 23.05-47.47 8.567-12.79 8.567-29.318.002-42.104-10.561-15.785-18.364-34.534-23.051-47.481-2.158-5.963 3.676-11.809 9.52-9.611 4.662 1.76 9.439 4.024 14.198 6.732 3.601 2.047 8.18.79 10.228-2.811 2.049-3.6.79-8.179-2.81-10.228-5.438-3.093-10.928-5.693-16.329-7.731-17.842-6.71-35.424 10.754-28.911 28.752 4.971 13.732 13.289 33.678 24.69 50.721 5.171 7.719 5.171 17.694-.001 25.414-11.385 17.007-19.71 36.962-24.69 50.712-6.508 17.996 11.061 35.476 28.916 28.749 27.938-10.522 52.252-33.722 68.938-53.209 4.554 3.869 17.004 12.024 22.533 15.506l-4.081 1.972c-11.648 5.634-16.541 19.696-10.904 31.35 5.633 11.635 19.691 16.531 31.337 10.917 4.21-2.03 9.29-.266 11.322 3.931l4.639 9.589c5.637 11.653 19.698 16.549 31.339 10.92 4.209-2.03 9.29-.267 11.32 3.928 5.621 11.629 19.676 16.548 31.344 10.92l6.69-3.23c3.73-1.801 5.294-6.285 3.493-10.015-1.799-3.729-6.281-5.295-10.015-3.493l-6.687 3.228c-4.214 2.032-9.29.264-11.322-3.942-5.631-11.63-19.69-16.522-31.347-10.904-4.204 2.032-9.277.264-11.313-3.945l-4.641-9.592c-5.632-11.629-19.688-16.523-31.337-10.907-4.209 2.031-9.288.26-11.321-3.939-2.034-4.206-.269-9.28 3.932-11.313l12.941-6.255c40.893 23.295 86.741 40.18 134.189 46.469l6.4 13.232c3.151 6.534-2.825 13.577-9.488 11.956-4.024-.983-8.081 1.486-9.063 5.511-.98 4.024 1.487 8.082 5.512 9.063 18.915 4.609 35.214-15.077 26.547-33.052l-2.356-4.872c78.136 5.985 150.454-19.563 209.025-66.658 19.257-15.488 18.578-44.951-1.286-59.461zm-323.379-84.309c10.946 31.894 37.217 84.381 95.218 105.481 3.917 1.423 8.205-.615 9.612-4.484 1.416-3.893-.591-8.196-4.483-9.612-47.765-17.376-71.852-59.054-83.291-88.419 56.042 10.581 136.198 34.103 173.661 84.761-9.426 10.914-14.654 23.56-15.603 37.546-43.25 15.854-81.819 15.611-114.688-.742-58.204-28.96-83.947-99.661-92.319-128.722 7.642.777 18.683 2.088 31.893 4.191zm315.264 132.079c-29.85 24.001-92.398 64.265-175.941 64.265-95.819 0-172.985-48.152-201.713-68.854-8.163-5.887-13.037-15.418-13.037-25.497 0-13.111 8.256-24.963 20.539-29.491 10.809-3.975 22.194-7.709 33.903-11.125 43.414 78.365 111.5 108.98 196.754 79.582.948 6.562 2.721 13.353 5.342 20.345 1.129 3.011 3.986 4.869 7.023 4.869 5.214 0 8.863-5.224 7.021-10.135-9.486-25.304-5.973-46.254 10.443-62.268 7.731-7.541 15.558-11.013 15.611-11.037 3.807-1.633 5.568-6.043 3.936-9.85-1.633-3.806-6.043-5.569-9.85-3.935-.324.139-6.354 2.775-13.619 8.4-11.427-14.983-26.181-27.699-42.779-38.485 73.303 5.082 128.254 37.542 155.632 57.555 4.735 3.458 7.836 8.504 8.82 14.17-5.881 4.437-14.325 3.821-19.438-2.032-2.727-3.12-7.465-3.439-10.583-.713-3.119 2.725-3.438 7.463-.714 10.583 6.406 7.332 16.274 11.27 26.474 9.732-1.098 1.436-2.374 2.755-3.824 3.921z"/><path d="m437.482 271.051c-4.225 0-7.515 3.388-7.533 7.466l-.021 4.787c-.019 4.142 3.324 7.515 7.467 7.534 4.225 0 7.515-3.388 7.533-7.466l.021-4.787c.018-4.142-3.325-7.516-7.467-7.534z"/></g></g></svg>