<svg id="Capa_1" enable-background="new 0 0 512.004 512.004" height="512" viewBox="0 0 512.004 512.004" width="512" xmlns="http://www.w3.org/2000/svg"><g><g><path d="m443.302 481.895c-63.08-2.31-92.45-48.53-96.42-96.85-4.31-52.53 15.73-84.39 12.65-121.91-.87-10.61-7.33-23.17-16.16-35.73-22.4-31.88-60.01-63.78-60.01-63.78l37.52-3.08s45.79 38.83 62.67 77.93c3.23 7.48 5.41 14.96 6 22.19 4.31 52.53-18.82 46.87-12.65 121.91 4.55 55.41 46.66 66.55 68.38 68.58 7.44.7 13.35 6.6 13.96 14.08.76 9.21-6.71 17-15.94 16.66z" fill="#928cd9"/><path d="m383.552 238.475c-7.5 2.63-16.16.94-22.14-5.04-4.93-4.93-11.65-6.93-18.04-6.03-22.4-31.88-60.01-63.78-60.01-63.78l37.52-3.08s45.79 38.83 62.67 77.93z" fill="#736acc"/><path d="m228.642 163.625s-37.61 31.9-60.01 63.78c-8.83 12.56-15.29 25.12-16.16 35.73-3.08 37.52 16.96 69.38 12.65 121.91-3.97 48.32-33.34 94.54-96.42 96.85-9.23.34-16.7-7.45-15.94-16.66.61-7.48 6.52-13.38 13.96-14.08 21.72-2.03 63.83-13.17 68.38-68.58 6.17-75.04-16.96-69.38-12.65-121.91.59-7.23 2.77-14.72 6-22.2 16.89-39.1 62.67-77.92 62.67-77.92z" fill="#928cd9"/><path d="m228.642 163.625s-37.61 31.9-60.01 63.78c-6.4-.9-13.13 1.12-18.04 6.03-6 6-14.66 7.66-22.14 5.03 16.89-39.1 62.67-77.92 62.67-77.92z" fill="#736acc"/><path d="m256.002 180.735v316.23h-30.12c-20.79 0-37.64-23.6-37.64-52.7 0-14.31 4.07-27.27 10.67-36.77 7.63-10.96 11.91-23.89 11.91-37.25v-2.56c0-13.35-4.28-26.29-11.91-37.25-14.22-20.44-14.25-53.02 0-73.53 4.63-6.65 8.02-14.02 9.98-21.77 1.27-5.03 1.93-10.22 1.93-15.48v-38.92z" fill="#91d4f2"/><path d="m256.002 180.735v58.94c-5.46 0-10.91-2.09-15.06-6.24-8.34-8.34-21.82-8.29-30.12 0-.62.62-1.26 1.19-1.93 1.7 1.27-5.03 1.93-10.22 1.93-15.48v-38.92z" fill="#59c2e8"/><path d="m313.092 407.495c6.6 9.5 10.67 22.46 10.67 36.77 0 29.1-16.85 52.7-37.64 52.7h-30.12v-316.23h45.18v38.92c0 5.26.66 10.45 1.93 15.49 1.96 7.75 5.35 15.12 9.98 21.76 14.25 20.51 14.22 53.09 0 73.53-7.63 10.96-11.91 23.9-11.91 37.25v2.56c0 13.36 4.28 26.29 11.91 37.25z" fill="#91d4f2"/><path d="m303.112 235.145c-.67-.52-1.31-1.09-1.93-1.71-8.34-8.34-21.83-8.29-30.12 0-4.16 4.16-9.61 6.24-15.06 6.24v-58.94h45.18v38.92c0 5.26.66 10.45 1.93 15.49z" fill="#59c2e8"/><path d="m286.122 451.785c0 29.11-13.49 52.71-30.12 52.71s-30.12-23.6-30.12-52.71c0-12.21 2.38-23.44 6.36-32.37 5.74-12.88 8.7-26.82 8.7-40.93v-3.98c0-14.1-2.96-28.05-8.7-40.93-8.59-19.26-8.36-46 0-64.75 5.01-11.24 7.9-23.28 8.55-35.53.1-1.79.15-3.59.15-5.39v-54.7h30.12v54.7c0 1.8.05 3.6.15 5.39.65 12.25 3.54 24.29 8.55 35.53 8.59 19.26 8.36 46 0 64.75-5.74 12.88-8.7 26.83-8.7 40.93v3.98c0 14.11 2.96 28.05 8.7 40.93 3.98 8.93 6.36 20.16 6.36 32.37z" fill="#928cd9"/><path d="m271.212 233.295c-.05.04-.1.09-.15.14-8.34 8.34-21.83 8.3-30.12 0-.05-.05-.1-.1-.15-.14.1-1.79.15-3.59.15-5.39v-54.7h30.12v54.7c0 1.8.05 3.6.15 5.39z" fill="#736acc"/><path d="m158.119 135.555-37.647 37.647c-8.317 8.317-8.317 21.801 0 30.118 8.294 8.294 21.778 8.34 30.118 0 8.294-8.294 21.778-8.34 30.118 0 8.294 8.294 21.778 8.34 30.118 0 8.294-8.294 21.778-8.34 30.118 0 8.294 8.294 21.778 8.34 30.118 0 8.294-8.294 21.778-8.34 30.118 0 8.294 8.294 21.778 8.34 30.118 0 8.294-8.294 21.778-8.34 30.118 0 8.294 8.294 21.778 8.34 30.118 0 8.294-8.294 8.34-21.778 0-30.118l-37.647-37.647z" fill="#928cd9"/><path d="m380.592 165.675h-249.18c-19.35 0-33.7-18.07-29.2-36.9 12.54-52.44 51.2-94.74 101.47-112.35 16.37-5.75 33.98-8.87 52.32-8.87 74.62 0 137.17 51.69 153.79 121.22 4.5 18.83-9.85 36.9-29.2 36.9z" fill="#e1dfe5"/><path d="m228.892 165.675h-97.48c-19.35 0-33.7-18.07-29.2-36.9 12.54-52.44 51.2-94.74 101.47-112.35-17.98 24.45-57.99 94.65 25.21 149.25z" fill="#c2c0cb"/><g fill="#ffa1ac"><path d="m206.045 104.358c-.04 12.848-13.152 23.222-29.285 23.171s-29.179-10.506-29.139-23.354 13.151-23.222 29.285-23.172c16.133.051 29.179 10.507 29.139 23.355z"/><path d="m305.959 104.671c-.04 12.848 13.006 23.304 29.139 23.354 16.133.051 29.245-10.323 29.285-23.171s-13.006-23.304-29.139-23.355c-16.133-.05-29.245 10.324-29.285 23.172z"/></g></g><g><path d="m466.718 464.634c-.892-11.093-9.612-19.902-20.737-20.946-21.277-1.988-57.573-12.651-61.604-61.727-6.035-73.398 17.134-67.264 12.649-121.911-1.064-12.926-6.634-27.429-16.588-43.274 14.009-1.939 24.833-13.981 24.833-28.51 0-7.195-2.623-13.988-7.415-19.288 14.784-7.664 23.365-24.64 19.23-41.946-8.506-35.582-29.018-67.828-57.758-90.799-60.499-48.355-146.267-48.266-206.654 0-28.74 22.97-49.252 55.217-57.758 90.799-4.136 17.31 4.452 34.283 19.229 41.945-4.791 5.296-7.414 12.087-7.414 19.283 0 14.614 10.852 26.605 24.834 28.52-9.952 15.844-15.526 30.35-16.589 43.272-4.483 54.623 18.688 48.467 12.649 121.91-4.03 49.075-40.326 59.738-61.606 61.726-11.122 1.044-19.843 9.853-20.733 20.931-1.133 13.718 10.02 25.282 23.689 24.772 61.686-2.259 98.844-45.585 103.62-103.732 4.396-53.572-15.58-86.209-12.65-121.908.664-8.065 6.005-22.864 27.231-47.995 5.076 1.579 10.687 1.769 16.145.293-.274 2.001 2.015 18.499-10.57 36.577-3.948 5.686-6.991 12.229-9.044 19.447-1.133 3.984 1.179 8.132 5.162 9.265 3.994 1.133 8.135-1.185 9.266-5.163 1.6-5.625 3.934-10.669 6.932-14.986 17.208-24.717 12.455-47.041 13.255-54.351 4.575-2.988 10.549-2.988 15.12-.002-.858 14.863 3.201 33.687-8.051 58.934-9.297 20.86-9.297 49.997 0 70.856 5.342 11.987 8.051 24.73 8.051 37.877-.23 2.541 1.573 20.262-8.051 41.856-9.68 21.717-9.367 52.02 1.072 73.104h-.582c-16.337 0-30.14-20.699-30.14-45.2 0-12.293 3.313-23.832 9.325-32.485 14.894-21.393 13.109-43.092 13.255-44.095 0-14.716-4.583-29.079-13.254-41.534-3.606-5.181-6.32-11.621-7.85-18.625-.883-4.046-4.872-6.612-8.927-5.728-4.047.884-6.611 4.88-5.728 8.927 1.945 8.913 5.47 17.21 10.192 23.995 6.912 9.929 10.565 21.328 10.565 32.965-.199 1.395 1.679 17.937-10.569 35.531-16.017 23.052-16.151 59.481.409 82.671 8.557 11.98 20.176 18.579 32.72 18.579h11.645c11.658 10.315 26.131 9.786 37.086 0h11.509c12.544 0 24.163-6.598 32.72-18.579 16.606-23.255 16.378-59.687.405-82.677-12.024-17.271-10.419-34.501-10.565-35.525 0-11.637 3.653-23.036 10.567-32.968 15.999-23.004 16-59.063-.002-82.097-6.912-9.929-10.565-21.328-10.565-32.965v-3.605c5.378 1.454 10.988 1.31 16.144-.293 21.209 25.108 26.566 39.911 27.232 47.992 2.941 35.845-17.059 68.181-12.65 121.91 4.787 58.275 42.041 101.476 103.618 103.731 13.698.512 24.824-11.082 23.695-24.754zm-321.721-202.112c-3.215 39.159 16.857 70.619 12.65 121.909-6.986 85.029-86.256 96.933-95.25 87.522-4.527-4.736-1.647-12.705 5.022-13.331 20.896-1.953 70.047-13.212 75.156-75.433 6.239-75.868-16.723-72.253-12.649-121.909 1.636-19.865 19.53-46.227 25.962-52.656 5.052-5.039 13.075-5.349 18.482-.942-18.31 22.004-28.188 40.435-29.373 54.84zm161.939 63.628c-8.672 12.456-13.255 26.819-13.255 41.535.206 1.422-1.907 22.317 13.251 44.09 6.016 8.658 9.329 20.197 9.329 32.49 0 24.501-13.803 45.2-30.14 45.2h-.585c8.863-18.169 10.718-43.91 4.052-65.183-1.239-3.952-5.446-6.153-9.399-4.914s-6.153 5.447-4.915 9.399c9.774 31.192-3.346 68.228-19.272 68.228-10.699 0-22.62-18.567-22.62-45.21 0-10.643 2.028-21.055 5.711-29.317 10.776-24.179 9.197-46.307 9.35-47.963 0-15.264-3.146-30.063-9.35-43.983-7.572-16.99-7.572-41.653 0-58.644 12.094-27.135 8.81-48.635 9.35-55.829 4.956 1.34 10.154 1.342 15.119 0 .527 7.024-2.713 28.763 9.35 55.829 7.573 16.99 7.573 41.654 0 58.644-6.568 14.736-9.336 29.222-9.351 45.044-.005 5.541-.009 10.774 1.143 18.556.551 3.726 3.753 6.404 7.409 6.404 4.611 0 8.096-4.09 7.429-8.598-1.004-6.788-.985-11.102-.979-17.423 0-13.147 2.709-25.89 8.051-37.877 9.297-20.859 9.297-49.997 0-70.856-11.232-25.204-7.186-43.954-8.051-58.933 4.575-2.988 10.549-2.988 15.12-.001v12.817c0 14.717 4.583 29.079 13.251 41.529 12.45 17.923 12.451 47.068.002 64.966zm-.458-128.144c-11.225-11.198-29.49-11.198-40.721.007-5.378 5.38-14.102 5.411-19.519-.007-11.224-11.198-29.488-11.198-40.72.006-5.385 5.383-14.107 5.41-19.511-.006-11.224-11.198-29.489-11.198-40.721.007-5.379 5.381-14.103 5.41-19.516-.003-5.389-5.382-5.394-14.11.002-19.5l5.342-5.342 45.315.008c4.143 0 7.5-3.358 7.5-7.5s-3.357-7.5-7.5-7.5h-45.02c-14.532 0-25.274-13.562-21.905-27.656 16.25-67.983 76.491-115.464 146.495-115.464s130.245 47.48 146.495 115.463c3.371 14.107-7.387 27.657-21.905 27.657h-169.16c-4.143 0-7.5 3.358-7.5 7.5s3.357 7.5 7.5 7.5l169.455-.008 5.342 5.342c2.607 2.607 4.043 6.072 4.043 9.757 0 12.284-14.915 18.386-23.563 9.74-11.225-11.197-29.488-11.198-40.727.013-5.341 5.356-14.069 5.417-19.501-.014zm143.128 273.948c-8.995 9.415-88.264-2.499-95.25-87.522-4.21-51.326 15.87-82.694 12.65-121.912-1.186-14.404-11.065-32.834-29.375-54.836 5.417-4.408 13.432-4.096 18.477.935 5.591 5.591 24.288 32.256 25.968 52.66 4.082 49.76-18.898 45.927-12.649 121.911 5.109 62.222 54.261 73.481 75.153 75.433 6.693.627 9.54 8.609 5.026 13.331z"/><path d="m255.952 120.495c17.521 0 31.101-15.471 31.158-33.757.072-23.423-21.688-23.491-30.979-23.52-9.286-.027-31.051-.096-31.125 23.325-.058 18.117 13.235 33.896 30.946 33.952zm-.288-42.278c.139 0 .279 0 .42.001 15.403.048 16.044 2.632 16.026 8.473-.031 9.929-6.845 18.804-16.111 18.804-9.186-.029-16.025-8.951-15.993-18.905.018-5.787.663-8.373 15.658-8.373z"/><path d="m215.341 79.073c.038-11.843-9.537-21.472-21.405-21.472-11.771 0-21.366 9.558-21.403 21.337-.013 4.142 3.334 7.511 7.477 7.524 4.198 0 7.511-3.377 7.523-7.476.026-8.477 12.837-8.329 12.809.039-.013 4.142 3.334 7.511 7.477 7.524 4.197 0 7.508-3.377 7.522-7.476z"/><path d="m304.298 86.851c4.198 0 7.511-3.377 7.523-7.476.011-3.525 2.882-6.385 6.404-6.385 3.545 0 6.416 2.875 6.404 6.424-.013 4.142 3.334 7.511 7.477 7.524 4.198 0 7.51-3.377 7.523-7.476.038-11.841-9.537-21.472-21.405-21.472-11.77 0-21.366 9.558-21.403 21.337-.013 4.142 3.334 7.511 7.477 7.524z"/></g></g></svg>