<svg id="Capa_1" enable-background="new 0 0 511.94 511.94" height="512" viewBox="0 0 511.94 511.94" width="512" xmlns="http://www.w3.org/2000/svg"><g><g><path d="m504.44 218.749c0 8.45-5.8 16.64-16.84 22.8h-.01s-.01 0-.02-.01c-1.62-.61-89.2-33.22-171.37-43.54-53.58-6.74-104.86-4.01-128.51 23.25-4.09 4.71-7.79 9.41-11.13 14.08-4.83 6.74-8.9 13.41-12.27 19.96-28.68 55.7-7.05 102.56 25.45 107.47 18.41 14.71 44.42 19.97 67.94 21.28 7.07.39 13.38-4.28 15.24-11.11 4.33-15.96 18.6-44.75 65.61-61.29 4.25-1.49 8.83 1.1 9.79 5.5 3.93 18.16 10.23 62.46-15.62 84.01-3.68 3.06-3.68 8.61 0 11.68 25.85 21.55 19.55 65.85 15.62 84.01-.96 4.39-5.54 6.99-9.79 5.5-44.28-15.59-59.51-42.03-64.75-58.38-2.43-7.58-10.4-11.94-18.08-9.9-156.34 41.61-248.2-61.19-248.2-185.19 0-51.17 20.46-96.32 55.13-132.09 2.43-2.52 4.94-4.99 7.52-7.41 5.12-4.81 6.33-12.49 2.78-18.55-7.35-12.57-20-24.37-41.65-35.16-10.67-5.32-11.16-20.33-.88-26.38 30.99-18.23 88.8-39.02 144.26 12.08 3.83 3.53 9.24 4.72 14.25 3.3 32.42-9.2 67.74-14.14 104.71-14.14 108.78 0 149.85 67.72 164.88 109.98 3.86 10.82 6 19.98 7.14 25.89.84 4.4 3.64 8.17 7.58 10.31 10.75 5.83 31.22 19.85 31.22 42.05z" fill="#77728d"/><path d="m316.2 197.999c-53.58-6.74-104.86-4.01-128.51 23.25-4.09 4.71-7.79 9.41-11.13 14.08-2.76-6.48-5.82-12.45-9.08-17.94-20.88-35.14-5.47-79.05 33.78-96.92 11.28-5.14 23.19-7.54 34.88-7.54 33.51 0 65.2 19.75 74.8 51.48 3.17 10.49 5.19 21.77 5.26 33.59z" fill="#5c576e"/><path d="m348.32 496.839c-.96 4.39-5.54 6.99-9.79 5.5-44.28-15.59-59.51-42.03-64.75-58.38-2.43-7.58-10.4-11.94-18.08-9.9-156.34 41.61-248.2-61.19-248.2-185.19 0-51.17 20.46-96.32 55.13-132.09-5.59 36.63-8.31 128.29 101.66 138.51-28.68 55.7-7.05 102.56 25.45 107.47 18.41 14.71 44.42 19.97 67.94 21.28 7.07.39 13.38-4.28 15.24-11.11 4.33-15.96 18.6-44.75 65.61-61.29 4.25-1.49 8.83 1.1 9.79 5.5 3.93 18.16 10.23 62.46-15.62 84.01-3.68 3.06-3.68 8.61 0 11.68 25.85 21.55 19.55 65.85 15.62 84.01z" fill="#5c576e"/><path d="m487.59 241.549c-27.75 15.47-88.64 18.08-173.75-20.43-1.71-.77-3.43-1.56-5.16-2.37-46.01-21.47-93.28 2.04-119.89 37.45-1.29 1.72-2.53 3.46-3.72 5.23-22.7 33.68-26.87 76.14 4.67 101.33-12.71 6.83-24.74 8.5-34.82 7.22-15.22-1.94-25.45-16.771-22.19-31.771 2.62-12.1 3.83-28.04-4.76-36.63-5.32-5.32-27.88-9.09-49.12-11.52-25.64-2.94-30.96-37.87-7.41-48.42 7.66-3.43 16.49-6.18 26.41-7.83.64-.11 1.28-.22 1.93-.35 17.6-3.5 40.42-15.479 61.79-28.87 19.15-11.99 37.14-25.11 49.19-34.27 10.72-8.15 23.85-12.3 37.32-12.26 21.87.07 42.85 2.23 62.7 5.84 87.62 15.931 153.39 60.091 176.81 77.651z" fill="#e1dfe5"/><path d="m313.84 221.119c-1.71-.77-3.43-1.56-5.16-2.37-46.01-21.47-93.28 2.04-119.89 37.45-.74.98-1.46 1.97-2.15 2.97-.52.72-1.02 1.44-1.51 2.17-.02.03-.04.06-.06.09-22.7 33.68-26.87 76.14 4.67 101.33-12.71 6.83-24.74 8.5-34.82 7.22-15.22-1.94-25.45-16.771-22.19-31.771 2.62-12.1 3.83-28.04-4.76-36.63-5.32-5.32-27.88-9.09-49.12-11.52-25.64-2.94-30.96-37.87-7.41-48.42 7.66-3.43 16.49-6.18 26.41-7.83.64-.11 1.28-.22 1.93-.35 14.587 10.648 34.307 18.482 60.818 21.45 11.455 1.282 19.99-10.363 15.382-20.929-2.602-5.967-5.466-11.489-8.5-16.591-2.47-4.16-4.44-8.45-5.91-12.8 19.15-11.99 37.14-25.11 49.19-34.27 10.72-8.15 23.85-12.3 37.32-12.26 21.87.07 42.85 2.23 62.7 5.84.002.002.004.004.006.006 5.303 17.277 7.457 36.716 3.054 57.215z" fill="#c2c0cb"/><path d="m288.267 180.656c7.045 32.871-1.175 74.738-59.562 113.491-10.051 6.671-23.378-.68-23.266-12.743.278-29.903-6.751-52.248-15.865-68.603-13.928-24.995-4.413-56.529 21.18-69.326 31.78-15.889 70.067 2.44 77.513 37.181z" fill="#423e4f"/><ellipse cx="336.774" cy="109.477" fill="#e1dfe5" rx="22.588" ry="45.176" transform="matrix(.342 -.94 .94 .342 118.716 388.498)"/></g><g><path d="m178.207 435.727c-112.742-5.37-163.207-97.719-163.207-186.858 0-50.62 20.847-96.969 60.286-134.034 7.749-7.28 9.442-18.715 4.119-27.801-8.757-14.976-23.404-27.434-44.778-38.086-5.346-2.665-5.584-10.167-.424-13.204 34.328-20.194 85.681-34.657 135.375 11.131 5.661 5.217 13.852 7.132 21.38 5 32.399-9.194 66.939-13.855 102.663-13.855 81.813 0 123.059 40.216 143.254 73.952 2.128 3.555 6.734 4.709 10.288 2.583 3.554-2.127 4.71-6.733 2.583-10.287-22.188-37.065-67.285-81.248-156.125-81.248-37.108 0-73.027 4.854-106.755 14.424-2.541.721-5.271.108-7.123-1.6-59.432-54.76-121.46-31.668-153.146-13.029-15.345 9.03-14.693 31.564 1.338 39.556 18.683 9.312 31.283 19.855 38.523 32.238 1.766 3.014 1.172 6.836-1.444 9.294-42.533 39.974-65.014 90.102-65.014 144.966 0 106.805 65.83 196.523 177.493 201.842 4.242.187 7.656-3.087 7.849-7.135.197-4.138-2.998-7.652-7.135-7.849z"/><path d="m476.799 170.108c-1.995-1.083-3.377-2.952-3.794-5.134-1.184-6.166-3.463-15.913-7.606-27.45-1.389-3.869-5.606-6.158-9.509-4.867-4.025 1.331-6.135 5.708-4.705 9.668 3.88 10.75 5.997 19.789 7.088 25.47 1.262 6.608 5.405 12.256 11.372 15.497 10.193 5.528 27.295 17.486 27.295 35.457 0 4.746-3.188 9.567-9.012 13.729-30.414-22.095-104.849-68.946-201.3-79.695-10.394-22.027-24.365-36.229-25.354-37.218-2.929-2.929-7.678-2.93-10.607 0-2.929 2.929-2.929 7.678 0 10.606.364.364 36.338 36.912 31.832 81.963-2.938 29.358-22.431 56.194-57.94 79.764-5.025 3.336-11.675-.342-11.619-6.424.42-45.202-15.479-73.864-28.89-89.949-14.766-17.708-29.812-24.524-30.445-24.805-3.772-1.678-8.179.019-9.872 3.785-1.693 3.767-.008 8.201 3.752 9.909.102.046 8.179 3.792 17.764 12.934-14.914 9.711-28.411 17.461-40.2 23.079-3.707 1.767-5.57 6.157-3.916 9.916 1.714 3.897 6.285 5.565 10.085 3.76 12.949-6.15 27.77-14.697 44.105-25.425 7.83 10.305 13.636 22.096 17.406 35.281-31.957 33.579-47.011 85.94-16.462 120.439-6.906 2.232-13.834 2.975-20.397 2.14-11.058-1.41-18.092-12.234-15.809-22.743 4.277-19.754 1.931-34.803-6.787-43.521-3.963-3.963-13.634-9.099-53.569-13.668-9.957-1.142-14.58-8.497-15.586-15-1.012-6.542 1.185-15.001 10.385-19.123 6.608-2.957 13.828-5.214 21.464-6.71 3.718-.728 6.512-4.042 6.283-7.823-.281-4.626-4.528-7.8-8.917-6.945-8.842 1.713-17.239 4.333-24.959 7.788-30.542 13.683-23.602 58.906 9.624 62.716 38.12 4.362 44.132 8.892 44.669 9.372 4.862 4.862 5.833 15.424 2.734 29.734-4.196 19.311 9.027 38.311 28.572 40.803 12.034 1.533 24.052-.897 34.861-5.849 14.526 10.224 36.185 18.166 68.433 19.957 10.495.571 20.108-6.415 22.892-16.635 3.895-14.354 16.979-40.74 60.831-56.167 3.625 16.747 9.605 57.741-13.084 76.657-7.283 6.055-7.286 17.137-.008 23.208 22.697 18.922 16.717 59.916 13.123 76.675-42.096-14.821-55.723-39.94-60.1-53.595-3.654-11.404-15.574-17.931-27.151-14.859-14.126 3.762-28.095 6.396-41.523 7.83-3.76.402-6.809 3.488-6.896 7.269-.106 4.624 3.85 8.146 8.289 7.667 14.252-1.51 29.052-4.293 43.985-8.27 3.842-1.019 7.798 1.152 9.012 4.941 5.227 16.304 21.191 46.19 69.411 63.168 8.437 2.958 17.663-2.128 19.602-10.991 4.198-19.391 10.755-67.127-18.109-91.327-.056-.047-.054-.132.006-.174 2.134-1.507 32.607-24.376 18.1-91.384-1.912-8.772-11.075-13.969-19.606-10.976-50.35 17.715-65.693 49.206-70.356 66.394-.949 3.488-4.104 5.781-7.588 5.593-42.85-2.379-70.517-16.763-80.012-41.596-8.573-22.423-1.145-51.953 18.48-76.603.989 7.315 1.451 14.979 1.376 22.982-.168 18.109 19.939 29 34.913 19.062 34.753-23.067 55.742-49.522 62.573-78.781 3.405 1.073 6.777 2.384 10.082 3.93 41.813 19.514 82.376 31.131 117.302 33.596 23.225 1.639 51.89-.383 71.439-12.832 11.407-7.265 17.69-17.053 17.69-27.561-.001-25.738-22.02-41.523-35.142-48.639zm-164.941 41.847c-4.627-2.165-9.38-3.943-14.187-5.326.93-13.685-1.182-26.506-4.796-37.966 82.774 11.1 147.856 49.231 179.542 71.201-31.903 10.109-89.332 5.332-160.559-27.909z"/><path d="m311.361 76.091c-12.446 1.432-21.001 6.891-24.087 15.369-5.866 16.119 10.99 36.019 39.209 46.29 11.149 4.058 24.074 6.451 35.704 5.112 12.446-1.432 21.001-6.891 24.087-15.369 5.866-16.119-10.99-36.019-39.209-46.29-12.412-4.517-25.089-6.333-35.704-5.112zm60.817 46.272c-.996 2.736-5.481 4.881-11.706 5.598-8.224.948-18.74-.623-28.858-4.306-21.612-7.866-32.349-21.283-30.244-27.064.996-2.736 5.481-4.881 11.706-5.598 9.218-1.06 20.043 1.097 28.858 4.306 21.612 7.866 32.349 21.283 30.244 27.064z"/><path d="m405.05 150.986v12c0 4.142 3.357 7.5 7.5 7.5s7.5-3.358 7.5-7.5v-12c0-4.142-3.357-7.5-7.5-7.5s-7.5 3.357-7.5 7.5z"/></g></g></svg>