<svg id="Capa_1" enable-background="new 0 0 511.98 511.98" height="512" viewBox="0 0 511.98 511.98" width="512" xmlns="http://www.w3.org/2000/svg"><g><g><path d="m504.464 200.936c0 34.15-16.34 65.07-42.2 84.48-12.81 9.63-27.96 16.44-44.62 19.41-38.72 6.91-91.73 12.54-161.65 12.54-84.82 0-144.76-8.29-184.48-17.09-37.42-8.3-63.99-41.58-63.99-79.92 0-45.89 37.4-81.9 81.72-81.9 4.16 0 8.38.31 12.64.97 12.89 1.99 26.79 3.83 41.48 5.38 6.16.65 12.47 1.24 18.91 1.77 39.04 3.22 78.05-6.64 110.97-27.87 29.07-18.74 62.66-28.45 96.62-28.45 14.88 0 29.83 1.87 44.51 5.65l10.88 2.81c46.63 12.02 79.21 54.069 79.21 102.22z" fill="#df8a57"/><path d="m462.264 285.416c-12.81 9.63-27.96 16.44-44.62 19.41-38.72 6.91-91.73 12.54-161.65 12.54-84.82 0-144.76-8.29-184.48-17.09-37.42-8.3-63.99-41.58-63.99-79.92 0-45.89 37.4-81.9 81.72-81.9 4.16 0 8.38.31 12.64.97 12.89 1.99 26.79 3.83 41.48 5.38-3.36 6.44-7.61 15.11-10.45 21.7-6.75 15.63 13.9 28.62 25.07 15.77.16-.18.32-.37.48-.55 21.85-25.56 58.97-30.98 87.05-13.3 17.95 11.29 39.97 13.78 60.45 8.26 19.55-5.28 41.12 1.49 53.91 18.92 12.22 16.66 30.45 27.64 50.93 30.38 27.66 3.71 51.97 26.779 51.46 59.43z" fill="#c76d33"/><path d="m440.464 293.646c0 29.1-23.59 52.7-52.7 52.7h-263.54c-29.1 0-52.7-38.65-52.7-67.76 0-28.02 20.56-48.06 44.39-52.01 1.9-.32 3.82-.53 5.76-.64 2.82-.16 5.6-.5 8.34-1.04 15.07-2.89 28.65-11.25 38.76-23.08 19.54-22.86 52.74-27.71 77.85-11.9 16.05 10.1 35.74 12.33 54.06 7.39 17.48-4.72 36.77 1.33 48.21 16.92 10.93 14.9 27.23 24.72 45.54 27.17 22.23 2.98 42.03 19.94 45.49 44.52.36 2.5.54 5.079.54 7.73z" fill="#e1dfe5"/><path d="m118.434 371.376-15.87 14.06c-12.35 0-24.29-15.49-33.94-35.55 13.5 7.18 29.91 14.48 49.81 21.49z" fill="#c2c0cb"/><path d="m440.464 293.646c0 29.1-23.59 52.7-52.7 52.7h-263.54c-29.1 0-52.7-38.65-52.7-67.76 0-28.02 20.56-48.06 44.39-52.01-1.961 15.047-2.215 30.907.164 47.124.98 6.685 6.382 11.833 13.09 12.635 17.249 2.063 35.358 5.177 51.536 9.801 38.98 11.13 97.88 22.59 143.05 7.53 24.3-8.09 74.74-14.01 116.17-17.75.36 2.5.54 5.079.54 7.73z" fill="#c2c0cb"/><path d="m504.464 314.506c0 1.23-.18 2.46-.54 3.64-3.86 12.91-31.7 84.28-178.26 101.32-27.65 3.21-59.37 2.89-89.1-.37v-.01c-11.51-1.25-22.72-2.96-33.28-5.06-151.4-30.18-187.48-81.77-194.35-94.82-.93-1.77-1.41-3.729-1.41-5.729 0-6.79 5.5-12.29 12.28-12.29h.16c13.7.17 33.63.18 56 1.09v.01l21.71 13.42 26.66-9.92c19.63 2.16 39.12 5.42 56.37 10.35 38.98 11.13 97.88 22.59 143.05 7.53 36.49-12.15 131.91-19.4 167.27-21.74 7.28-.491 13.44 5.289 13.44 12.579z" fill="#df8a57"/><path d="m236.564 419.086c-11.51-1.25-22.72-2.96-33.28-5.06-151.4-30.18-187.48-81.77-194.35-94.82-.93-1.77-1.41-3.729-1.41-5.729 0-6.79 5.5-12.29 12.28-12.29h.16c23.12.28 64.02.14 104.37 4.6.01 0 .01.01.02.01 14.82 39.439 48.06 79.259 112.21 113.289z" fill="#c76d33"/><g><g fill="#ffa1ac"><path d="m205.495 262.977c-.028 12.987-13.272 23.486-29.58 23.451-16.308-.036-29.506-10.593-29.477-23.58.028-12.987 13.272-23.486 29.58-23.451 16.308.036 29.505 10.593 29.477 23.58z"/><ellipse cx="336.022" cy="263.263" rx="23.515" ry="29.529" transform="matrix(.002 -1 1 .002 72.024 598.708)"/></g></g></g><g><path d="m490.529 294.442c-8.312.55-19.189 1.319-31.503 2.311 32.611-20.433 52.938-56.473 52.938-95.817 0-51.585-34.887-96.606-84.834-109.482-15.549-4.016-31.72-8.698-57.266-8.698-35.782 0-70.598 10.251-100.685 29.647-31.442 20.276-69.191 29.756-106.29 26.698-47.145-3.878-58.796-8.145-73.646-8.145-41.387 0-77.996 29.313-87.049 69.699-.906 4.042 1.636 8.053 5.678 8.959 4.046.908 8.053-1.637 8.959-5.678 8.338-37.201 44.759-63.167 83.91-57.098 20.357 3.135 40.854 5.562 60.916 7.212 40.367 3.333 81.446-6.983 115.649-29.041 27.658-17.83 59.663-27.254 92.557-27.254 23.518 0 38.904 4.448 53.518 8.223 43.324 11.167 73.582 50.216 73.582 94.958 0 35.509-19.085 67.909-49.392 85.187-3.285-27.098-24.752-48.492-52.142-52.16-16.272-2.178-30.65-10.762-40.485-24.169-1.991-2.718-4.239-5.24-6.681-7.496-3.042-2.811-7.787-2.624-10.598.418-2.812 3.042-2.624 7.787.418 10.599 1.735 1.604 3.337 3.402 4.763 5.348 12.272 16.73 30.24 27.444 50.593 30.167 25.271 3.385 42.254 25.787 39.206 50.218-40.784 3.83-87.637 9.636-111.264 17.503-42.666 14.226-98.931 3.705-138.618-7.627-30.665-8.755-68.321-12.342-101.246-13.888-1.628-5.718-2.493-11.342-2.493-16.45 0-27.794 22.187-44.013 43.062-45.161 19.708-1.084 38.805-10.83 52.39-26.736 16.895-19.768 46.192-24.25 68.154-10.425 17.294 10.884 39.168 13.902 60.007 8.284 2.25-.607 4.56-1.001 6.862-1.172 4.131-.307 7.231-3.904 6.925-8.034-.308-4.13-3.897-7.231-8.034-6.925-3.246.241-6.495.795-9.657 1.648-16.813 4.533-34.349 2.166-48.112-6.496-28.265-17.793-65.608-12.296-87.549 13.376-10.937 12.805-26.176 20.642-41.81 21.502-34.538 1.901-63.13 32.495-56.129 72.25-24.45-8.411-43.086-29.225-48.5-54.946-.853-4.053-4.832-6.646-8.884-5.794-4.053.854-6.647 4.831-5.794 8.884 4.784 22.728 18.166 42.26 36.604 55.035-7.359-.087-13.016-.122-18.596-.189-15.16 0-24.556 15.898-17.666 29.014 8.127 15.439 46.533 68.185 199.52 98.681 39.546 7.886 86.17 10.007 124.715 5.535 13.742-1.602 27.021-3.746 39.47-6.371 4.053-.854 6.646-4.833 5.791-8.886s-4.836-6.65-8.887-5.791c-12 2.531-24.823 4.6-38.106 6.148-36.91 4.284-81.785 2.285-120.05-5.345-150.254-29.953-183.949-81.026-189.176-90.954-1.629-3.1.51-7.031 4.298-7.032 45.823.56 110.363.84 158.772 14.662 41.724 11.913 101.177 22.873 147.479 7.434 36.267-12.076 135.766-19.412 165.405-21.373 3.541-.235 6.256 3.162 5.21 6.589-2.67 8.931-20.077 54.813-100.768 81.097-3.938 1.283-6.091 5.516-4.808 9.454 1.282 3.938 5.515 6.09 9.454 4.809 36.774-11.979 65.801-29.28 86.272-51.421 16.497-17.843 22.434-33.667 24.208-39.602 4.08-13.367-6.529-26.839-20.567-25.893z"/><path d="m185.959 233.397v12c0 4.142 3.357 7.5 7.5 7.5s7.5-3.358 7.5-7.5v-12c0-4.142-3.357-7.5-7.5-7.5s-7.5 3.358-7.5 7.5z"/><path d="m310.856 233.397v12c0 4.142 3.357 7.5 7.5 7.5s7.5-3.358 7.5-7.5v-12c0-4.142-3.357-7.5-7.5-7.5s-7.5 3.358-7.5 7.5z"/><path d="m277.501 252.553c0 3.835-3.12 6.956-6.955 6.956-3.836 0-6.956-3.12-6.956-6.956 0-4.142-3.357-7.5-7.5-7.5s-7.5 3.358-7.5 7.5c0 3.835-3.12 6.956-6.955 6.956-3.836 0-6.956-3.12-6.956-6.956 0-4.142-3.357-7.5-7.5-7.5s-7.5 3.358-7.5 7.5c0 12.106 9.85 21.956 21.956 21.956 5.533 0 10.59-2.062 14.455-5.451 3.865 3.39 8.923 5.451 14.456 5.451 12.106 0 21.955-9.849 21.955-21.956 0-4.142-3.357-7.5-7.5-7.5s-7.5 3.357-7.5 7.5z"/></g></g></svg>