<svg id="Capa_1" enable-background="new 0 0 511.268 511.268" height="512" viewBox="0 0 511.268 511.268" width="512" xmlns="http://www.w3.org/2000/svg"><g><g><path d="m476.995 326.36s50.493 59.529 15.279 117.484c-2.651 4.363-7.359 7.081-12.463 7.196-67.798 1.519-94.105-71.974-94.105-71.974z" fill="#5c576e"/><path d="m479.723 335.178-143.26 64.9-87.67 39.72-25.99 11.77-43.14 19.54-113.91-88.19c-11.37-34.82-9.47-68.04-7.2-85.27.83-6.31-2.44-12.48-8.14-15.3-10.62-5.26-27.6-19.5-41.68-58.09-3.06-8.4 1.8-17.65 10.49-19.74 15.75-3.79 41.22-4.28 63.93 20.71 6.06 6.66 16.5 6.57 22.47-.18 20.85-23.61 42.4-24.3 56.34-21.05 8.81 2.05 13.84 11.28 10.77 19.79-14.22 39.28-31.37 53.52-41.95 58.69-6.33 3.1-9.64 10.29-7.94 17.14 3.29 13.24 12.1 30.97 35.69 30.97 9.98 0 18.23-2.35 25.18-6.57 61.18-37.14 20.81-219.31 162.92-219.31 2.77 0 5.52.12 8.23.37 42.97 3.82 78.06 37.43 100.26 83.66 20.46 42.581 29.97 95.871 24.6 146.44z" fill="#77728d"/><g fill="#5c576e"><path d="m455.123 188.738-.05.53c-1.02 10.4-8.84 18.88-19.14 20.62-12.98 2.18-32.45 2.68-56.13-5.29-23.68-7.98-38.87-20.16-47.88-29.76-7.15-7.61-8.24-19.09-2.77-27.99l25.71-41.77c42.97 3.821 78.061 37.43 100.26 83.66z"/><path d="m338.913 396.178c-.79 1.31-1.61 2.61-2.45 3.9l-87.67 39.72c-21.25-19.17-32.1-42.16-37.04-64.58-9.58-43.6 24.45-83.49 67.44-83.49 3.34 0 6.72.24 10.15.74 48.74 7.061 75.1 61.601 49.57 103.71z"/><path d="m222.803 451.569-43.14 19.54-113.91-88.19c-11.37-34.82-9.47-68.04-7.2-85.27.83-6.31-2.44-12.48-8.14-15.3-10.62-5.26-27.6-19.5-41.68-58.09-3.06-8.4 1.8-17.65 10.49-19.74 15.75-3.79 41.22-4.28 63.93 20.71 6.06 6.66 16.5 6.57 22.47-.18 20.85-23.61 42.4-24.3 56.34-21.05 8.81 2.05 13.84 11.28 10.77 19.79-14.22 39.28-31.37 53.52-41.95 58.69-6.33 3.1-9.64 10.29-7.94 17.14 3.29 13.24 12.1 30.97 35.69 30.97 9.98 0 18.23-2.35 25.18-6.57-7.69 37.059-5.78 86.829 39.09 127.55z"/></g><path d="m479.723 335.178c-8.59 81.11-55.46 155.23-156.8 166.97-9.17 1.07-18.79 1.62-28.86 1.62-153.28 0-209.32-62.66-228.31-120.85l60.81 43.81 65.42-16.01c10.09-1.31 20.1-3.43 29.92-6.34 25.31-7.5 49.38-20.25 70.49-38.12 17.02-14.39 34.25-24.91 50.75-32.5 30.85-14.22 59.17-18.22 78.79-18.22 8.82.001 33.12.001 57.79 19.64z" fill="#e1dfe5"/><path d="m338.913 396.178c-13.22 21.83-33.32 41.79-63.86 52.32-6.82 2.35-14.39 1.05-20.04-3.43-15.31-12.14-25.92-26.13-33.11-40.69 25.31-7.5 49.38-20.25 70.49-38.12 17.02-14.39 34.25-24.91 50.75-32.5 8.32 19.281 7.99 42.271-4.23 62.42z" fill="#c2c0cb"/><path d="m322.924 502.149c-9.17 1.07-18.79 1.62-28.86 1.62-153.28 0-209.32-62.66-228.31-120.85 38.44 24.39 83.12 33.41 126.23 27.8 16.849 35.649 54.699 69.91 130.94 91.43z" fill="#c2c0cb"/><path d="m230.083 369.394c3.522 20.744 13.844 42.692 38.037 58.806 36.66-9.203 57.646-35.455 62.964-60.773 15.902-75.698-114.481-77.426-101.001 1.967z" fill="#423e4f"/><path d="m444.063 96.439-6.34 64.4-55.941-4.368 6.701-64.672 27.8-45.15z" fill="#c76d33"/><path d="m452.003 15.779-7.94 80.66c-18-13.59-25.04-35.68-27.78-49.79l21.87-35.54c4.17-6.781 14.63-3.25 13.85 4.67z" fill="#df8a57"/><path d="m437.723 160.839-1.23 12.49c-.67 6.71-5.71 12.19-12.37 13.31-23.199 3.904-50.968-5.398-67.17-22.63-4.62-4.92-5.32-12.34-1.78-18.08l33.31-54.12c1.39 13.449 9 58.26 49.24 69.03z" fill="#df8a57"/><g><g><ellipse cx="334.8" cy="264.317" fill="#ffa1ac" rx="29.816" ry="23.744"/></g></g></g><g><path d="m504.224 411.871c-4.034-.952-8.073 1.539-9.028 5.567-1.845 7.781-4.984 15.357-9.331 22.515-1.312 2.158-3.692 3.533-6.222 3.588-10.248.234-20.075-1.429-29.327-4.936 17.189-24.008 28.926-53.188 34.564-86.042 4.578 8.977 9.094 20.306 11.176 32.843.68 4.098 4.555 6.849 8.627 6.17 4.086-.679 6.849-4.541 6.17-8.627-4.012-24.156-15.493-43.828-22.983-54.575 4.696-60.903-11.36-125.95-42.251-171.216l13.853-140.65c1.558-15.827-19.364-22.879-27.702-9.332l-57.773 93.857c-8.925-2.537-18.109-3.825-27.363-3.825-20.284 0-38.299 3.639-53.544 10.813-3.747 1.765-5.355 6.232-3.592 9.98 1.752 3.722 6.206 5.366 9.98 3.592 13.231-6.228 29.097-9.386 47.155-9.386 6.444 0 12.849.747 19.129 2.2l-16.98 27.585c-5.313 8.63-4.199 19.793 2.706 27.145 17.766 18.92 48.126 29.234 73.883 24.893 7.758-1.306 14.097-6.597 16.99-13.643 22.196 39.818 33.665 91.649 30.924 141.236-22.743-13.573-43.741-13.586-51.351-13.586-14.556 0-42.557 2.213-75.333 15.999.008-.585.006-.953.005-1.052-.043-4.115-3.392-7.418-7.498-7.418-4.18 0-7.534 3.41-7.502 7.563.002.193.064 19.543-7.339 41.062-9.605 27.921-26.727 46.302-50.887 54.631-2.39.826-5.103.359-7.081-1.21-20.04-15.89-30.236-38.502-30.307-67.208-.053-21.918 6.095-39.387 6.256-39.837 1.415-3.893-.592-8.194-4.483-9.611-3.895-1.415-8.196.591-9.613 4.482-.291.8-7.125 19.859-7.159 44.498-.022 16.156 2.911 30.94 8.629 44.022-17.647 6.32-36.019 9.916-54.722 10.695-4.139.172-7.354 3.667-7.181 7.806.173 4.156 3.702 7.369 7.806 7.181 20.972-.874 41.553-5.029 61.273-12.34 5.397 8.294 12.14 15.69 20.181 22.066 6.062 4.806 14.025 6.143 21.29 3.638 39.733-13.699 60.869-50.186 66.871-91.909 33.478-15.668 62.35-18.057 76.793-18.057 7.938 0 28.392.012 49.849 15.537-12.113 98.84-78.27 157.693-177.719 157.693-84.645 0-176.103-19.56-213.38-96.406 18.394 9.019 37.981 15.05 58.471 17.972 4.078.589 7.897-2.25 8.483-6.366.585-4.101-2.266-7.898-6.366-8.483-24.666-3.518-47.914-11.919-69.155-24.953-10.095-32.814-8.176-63.839-6.129-79.405 1.252-9.513-3.671-18.756-12.247-22.999-8.333-4.128-24.347-16.623-37.961-53.937-1.544-4.237.891-8.845 5.198-9.881 14.918-3.587 36.848-3.299 56.627 18.465 9.186 10.095 24.827 9.701 33.64-.262 18.242-20.658 36.722-21.574 49.019-18.71 4.443 1.034 6.961 5.654 5.418 9.933-13.717 37.888-29.815 50.411-38.197 54.507-9.45 4.629-14.464 15.43-11.92 25.685 5.875 23.642 21.135 36.661 42.969 36.661 22.365 0 39.122-10.409 51.229-31.822 24.8-43.866 24.71-123.188 63.853-165.601 2.809-3.044 2.619-7.789-.425-10.599-3.045-2.811-7.789-2.619-10.599.425-25.649 27.794-35.965 69.074-45.064 105.495-13.494 54.003-23.563 87.102-58.994 87.102-14.685 0-24.243-8.505-28.411-25.275-.854-3.44.813-7.058 3.954-8.597 12.719-6.215 30.973-22.168 45.712-62.883 4.6-12.751-2.978-26.581-16.122-29.639-13.321-3.108-39.304-4.196-63.661 23.385-2.874 3.251-8.08 3.644-11.301.104-26.017-28.629-55.797-26.673-71.234-22.958-13.046 3.136-20.371 17.006-15.782 29.603 14.634 40.107 32.765 55.983 45.399 62.242 2.824 1.397 4.444 4.451 4.03 7.6-3.438 26.142-6.499 92.57 39.203 144.675 40.696 46.397 109.245 69.923 203.743 69.923 56.919 0 109.113-16.957 146.603-60.397 12.431 5.459 25.679 7.985 39.309 7.666 7.707-.167 14.7-4.201 18.708-10.796 5.163-8.502 8.9-17.533 11.107-26.842.956-4.032-1.536-8.073-5.566-9.029zm-90.61-346.587c4.276 11.907 11.245 24.628 22.589 34.43l-5.003 50.799c-26.074-12.11-33.099-42.655-34.966-56.994zm30.928-50.244-6.392 64.91c-7.686-10.133-11.753-22.165-13.913-31.921zm-21.662 164.2c-20.673 3.48-46.103-5.083-60.457-20.37-2.281-2.429-2.638-6.136-.867-9.013l23.191-37.676c5.32 19.217 17.421 43.792 44.915 53.948l-.636 6.459c-.331 3.363-2.858 6.098-6.146 6.652z"/><path d="m415.607 259.736c3.865 3.39 8.923 5.451 14.455 5.451 12.106 0 21.956-9.849 21.956-21.955 0-4.143-3.357-7.5-7.5-7.5s-7.5 3.357-7.5 7.5c0 3.835-3.12 6.955-6.956 6.955-3.835 0-6.955-3.12-6.955-6.955 0-4.143-3.357-7.5-7.5-7.5s-7.5 3.357-7.5 7.5c0 3.835-3.12 6.955-6.956 6.955-3.835 0-6.955-3.12-6.955-6.955 0-4.143-3.357-7.5-7.5-7.5s-7.5 3.357-7.5 7.5c0 12.106 9.849 21.955 21.955 21.955 5.533 0 10.591-2.061 14.456-5.451z"/><path d="m340.32 238.917c4.143 0 7.5-3.357 7.5-7.5 0-3.455 2.811-6.266 6.265-6.266s6.265 2.811 6.265 6.266c0 4.143 3.357 7.5 7.5 7.5s7.5-3.357 7.5-7.5c0-11.726-9.539-21.266-21.265-21.266s-21.265 9.54-21.265 21.266c0 4.142 3.358 7.5 7.5 7.5z"/></g></g></svg>