<svg id="Capa_1" enable-background="new 0 0 511.947 511.947" height="512" viewBox="0 0 511.947 511.947" width="512" xmlns="http://www.w3.org/2000/svg"><g><g><path d="m143.032 203.294s-135.822-7.559-135.529 200.515c.014 9.925 9.238 17.398 18.874 15.02 37.252-9.197 116.655-48.402 116.655-215.535z" fill="#423e4f"/><path d="m368.915 203.294s135.822-7.559 135.529 200.515c-.014 9.925-9.238 17.398-18.874 15.02-37.252-9.197-116.655-48.402-116.655-215.535z" fill="#5c576e"/><path d="m333.694 472.59c-6.58 1.14-13.36 1.73-20.3 1.73h-25.48l-31.11-9.56-32.77 9.56h-25.48c-55.51 0-101.05-37.92-114.39-87.82l66.6-138.11-26.74-43.4c-4.44-12-11.1-27.76-11.1-55.8-.01-60.11 44.79-116.14 102.01-134.99 13.16-4.33 26.97-6.7 41.04-6.7 82.82 0 143.06 67.76 143.06 143.06 0 52.85-24.98 61.93-10.11 85.79 18.69 29.97 34.11 63.04 40.67 97.17 12.78 66.38-32.15 128.11-95.9 139.07z" fill="#77728d"/><path d="m333.694 472.59c-6.58 1.14-13.36 1.73-20.3 1.73h-25.48l-31.11-9.56-32.77 9.56h-25.48c-74.04 0-130.32-67.45-116.2-140.8 6.57-34.14 21.99-67.22 40.67-97.18 15.26-24.47-10.1-32.45-10.1-87.15-.01-60.11 44.79-116.14 102.01-134.99-34.37 57.63-141.24 279.23 118.76 458.39z" fill="#5c576e"/><path d="m384.404 349.21c-2.69 35.26-11.74 81.41-37.82 120.41-4.2 1.22-8.49 2.22-12.88 2.97-6.58 1.14-13.36 1.73-20.31 1.73h-114.84c-11.58 0-22.7-1.64-33.19-4.7-6.42-9.61-11.8-19.66-16.31-29.87l21.37-185.79c17.15-9.38 39.09-6.81 53.61 7.71 17.62 17.62 46.23 17.67 63.94-.04 17.62-17.63 46.19-17.65 63.84-.06 23.56 23.48 35.07 55.78 32.59 87.64z" fill="#e1dfe5"/><path d="m333.704 472.59c-6.58 1.14-13.36 1.73-20.31 1.73h-114.84c-11.58 0-22.7-1.64-33.19-4.7-26.1-39.08-35.08-85.31-37.7-120.59-2.32-31.28 8.55-63.29 32.47-87.36 3.13-3.12 6.6-5.7 10.29-7.71 15.46 71.07 60.96 148.14 163.28 218.63z" fill="#c2c0cb"/><path d="m220.234 152.273 13.509-9.649c13.299-9.499 31.163-9.499 44.462 0l13.509 9.649c9.037 6.455 8.163 20.126-1.602 25.415-22.83 12.365-45.427 12.376-68.276 0-9.765-5.289-10.639-18.96-1.602-25.415z" fill="#f1e12b"/><path d="m133.292 449.96-1.093.984c-19.153 17.238-9.091 48.927 16.482 52.087 15.078 1.863 33.504 1.907 48.938 0 25.573-3.159 35.635-34.849 16.482-52.087l-1.093-.984c-22.659-20.393-57.057-20.393-79.716 0z" fill="#f3c23b"/><path d="m379.748 450.944c19.138 17.224 9.11 48.925-16.482 52.087-15.078 1.863-33.503 1.907-48.938 0-25.573-3.159-35.635-34.849-16.482-52.087 23.165-20.849 58.507-21.056 81.902 0z" fill="#f1e12b"/><g fill="#ffa1ac"><path d="m206.016 126.891c-.04 12.848-13.152 23.222-29.285 23.171s-29.179-10.506-29.139-23.354 13.151-23.222 29.285-23.172c16.134.051 29.18 10.507 29.139 23.355z"/><path d="m305.931 127.204c-.04 12.848 13.006 23.304 29.139 23.354 16.133.051 29.245-10.323 29.285-23.171s-13.006-23.304-29.139-23.355c-16.134-.05-29.245 10.324-29.285 23.172z"/></g></g><g><path d="m466.827 243.363c-22.335-26.919-48.489-38.735-68.664-43.861 4.018-11.322 8.371-26.441 8.371-48.941 0-10.744-1.176-21.538-3.495-32.081-.89-4.045-4.891-6.604-8.936-5.713-4.045.89-6.604 4.891-5.713 8.936 2.086 9.487 3.145 19.196 3.145 28.858 0 23.828-5.283 38.033-9.528 49.447-4.927 13.248-9.182 24.689.554 40.312 20.605 33.042 33.952 64.876 39.669 94.618 7.826 40.668-7.909 82.516-40.217 108.088-3.577-2.9-7.372-5.379-11.319-7.457 4.61-9.452 12.292-28.066 17.289-55.347.746-4.074-1.952-7.982-6.026-8.729-4.069-.743-7.982 1.952-8.729 6.026-4.898 26.742-12.584 44.567-16.557 52.537-21.836-5.893-45.943-.795-63.84 15.313-6.463 5.817-10.526 13.36-11.91 21.451h-49.89c-1.384-8.091-5.446-15.634-11.909-21.45l-1.094-.985c-18.169-16.352-42.892-21.077-64.862-14.203-9.716-24.133-15.778-51.583-18.02-81.708-2.25-30.284 8.786-59.983 30.274-81.481 14.757-14.757 38.587-14.747 53.313-.02 20.531 20.531 53.955 20.528 74.506 0 14.69-14.69 38.592-14.731 53.282-.092 20.353 20.289 31.531 48.315 30.668 76.892-.125 4.14 3.13 7.598 7.271 7.723 4.142.135 7.598-3.13 7.723-7.271.987-32.702-11.796-64.765-35.072-87.968-20.539-20.468-53.949-20.419-74.475.106-14.704 14.687-38.612 14.688-53.296.003-20.587-20.588-53.906-20.601-74.527.021-24.578 24.588-37.198 58.557-34.625 93.199 2.372 31.861 8.845 60.979 19.249 86.664-3.321 1.939-6.514 4.188-9.541 6.746-32.268-25.57-47.988-67.452-40.173-108.062 1.69-8.796 4.064-17.848 7.056-26.901 1.3-3.933-.835-8.175-4.768-9.475-3.934-1.299-8.174.835-9.474 4.768-9.049 27.384-13.137 52.456-6.683 80.683-18.752 16.859-38.087 24.281-51.276 27.539-4.877 1.204-9.565-2.658-9.57-7.75-.092-66.904 14.02-117.773 41.943-151.195 20.338-24.342 44.12-34.657 62.136-38.961 2.114 6.949 2.007 11.623-2.424 18.728-7.869 12.616-14.807 25.224-20.622 37.473-2.375 5.004 1.317 10.718 6.771 10.718 2.806 0 5.497-1.582 6.78-4.286 5.57-11.733 12.231-23.834 19.798-35.967 9.922-15.91 5.666-27.271.738-40.428-4.322-11.54-9.702-25.901-9.702-50.692-.011-70.007 64.642-134.188 135.548-134.188 51.808 0 98.314 28.866 121.372 75.333 1.841 3.711 6.342 5.228 10.052 3.385 3.71-1.841 5.226-6.341 3.385-10.052-25.609-51.607-77.264-83.666-134.809-83.666-92.351 0-178.504 97.341-141.992 199.451-20.164 5.089-46.228 16.825-68.546 43.536-30.244 36.198-45.529 90.31-45.432 160.83.015 14.851 13.869 25.829 28.168 22.293 13.619-3.364 33.033-10.645 52.368-26.374 8.014 21.524 21.664 40.269 39.377 54.482-13.366 22.468.236 52.844 27.845 56.254 15.897 1.964 34.879 1.965 50.777 0 15.805-1.952 28.292-13.158 31.996-28.653h50.878c3.704 15.49 16.182 26.7 31.995 28.653 15.895 1.964 34.878 1.966 50.777 0 27.591-3.408 41.218-33.772 27.844-56.255 17.8-14.281 31.414-33.076 39.382-54.48 19.353 15.742 38.782 23.018 52.362 26.372 14.306 3.538 28.155-7.444 28.17-22.291.098-70.27-15.082-124.256-45.116-160.455zm-270.128 252.224c-14.746 1.822-32.353 1.822-47.099 0-19.23-2.375-26.804-26.09-12.385-39.068l1.093-.984c19.862-17.875 49.818-17.877 69.681-.001l1.094.985c14.368 12.93 6.912 36.684-12.384 39.068zm165.647 0c-14.745 1.822-32.352 1.822-47.099 0-19.231-2.376-26.804-26.091-12.384-39.068 20.484-18.436 51.381-18.438 71.868 0 14.36 12.925 6.924 36.682-12.385 39.068zm125.026-84.038c-13.152-3.248-32.506-10.662-51.275-27.536 3.869-16.919 4.202-34.545.861-51.908-6.066-31.559-20.086-65.11-41.67-99.721-4.298-6.896-4.3-11.743-2.193-18.69 41.224 9.838 104.044 48.146 103.848 190.109-.004 5.074-4.678 8.954-9.571 7.746z"/><path d="m218.264 184.283c25.017 13.55 50.394 13.555 75.42 0 14.638-7.927 15.939-28.434 2.39-38.112l-13.509-9.649c-15.904-11.36-37.276-11.36-53.181 0l-13.509 9.649c-13.546 9.674-12.253 30.182 2.389 38.112zm6.329-25.907 13.509-9.649c10.689-7.636 25.053-7.636 35.743 0l13.509 9.649c4.528 3.234 4.072 10.07-.814 12.717-20.568 11.14-40.564 11.14-61.133 0-4.892-2.65-5.337-9.486-.814-12.717z"/><path d="m215.313 101.605c.036-11.83-9.506-21.433-21.336-21.471-12.16 0-21.435 9.802-21.472 21.337-.013 4.142 3.334 7.51 7.477 7.523 4.199 0 7.511-3.377 7.523-7.477.011-3.531 2.871-6.384 6.403-6.384 3.563 0 6.416 2.891 6.405 6.424-.013 4.142 3.334 7.51 7.477 7.523 4.198.002 7.51-3.375 7.523-7.475z"/><path d="m311.793 101.908c.011-3.525 2.882-6.384 6.404-6.384 3.546 0 6.415 2.875 6.404 6.424-.013 4.142 3.334 7.51 7.477 7.523 4.199 0 7.511-3.377 7.523-7.477.037-11.803-9.535-21.435-21.337-21.471-12.012 0-21.434 9.705-21.471 21.336-.013 4.142 3.334 7.511 7.476 7.524 4.182.013 7.51-3.333 7.524-7.475z"/></g></g></svg>