<svg id="Capa_1" enable-background="new 0 0 511.971 511.971" height="512" viewBox="0 0 511.971 511.971" width="512" xmlns="http://www.w3.org/2000/svg"><g><g><path d="m391.516 399.057c0 71.28-55.02 102.39-124.91 105.2-3.51.14-7.05.21-10.62.21-74.85 0-135.53-30.56-135.53-105.41 0-73.43 58.4-176.7 131.28-180.59 1.41-.08 2.83-.12 4.25-.12 74.85 0 135.53 105.86 135.53 180.71z" fill="#7dce5c"/><path d="m266.606 504.257c-3.51.14-7.05.21-10.62.21-74.85 0-135.53-30.56-135.53-105.41 0-73.43 58.4-176.7 131.28-180.59-37.32 50.89-141.74 215.89 14.87 285.79z" fill="#59c230"/><path d="m497.666 292.267c-15.17 1.45-37.19 2.37-61.23-.5-11.07-1.33-19.32-1.9-29.86-5.65 14.52 27.32 24.47 53.38 58.39 92.77 4.63 5.37-.1 13.57-7.07 12.26-14.97-2.83-36.38-8.07-58.68-17.52-42.09-17.83-76.67-58.81-90.52-102.57.96 14.4.44 29.28-3.16 43.13l-47.7 59.75-54.56-102.88-79.82 97.45c-3.5 1.87-7.07 3.58-10.7 5.12-22.3 9.45-43.71 14.69-58.68 17.52-6.97 1.31-11.7-6.89-7.07-12.26 34.06-39.55 43.93-65.68 58.39-92.77-10.52 3.74-18.73 4.31-29.86 5.65-24.04 2.87-46.06 1.95-61.23.5-7.06-.67-9.32-9.87-3.38-13.74 50.74-33.1 68.14-57.45 94.47-82.77-16.06-2.71-29.97-9.97-44.65-17.77-21.38-11.37-38.93-24.7-50.57-34.55-5.4-4.58-2.01-13.42 5.08-13.21 50.02 1.48 79.77-2.35 120.26-9.76-21.87-28.229-33.64-68.91-38.44-104.42-.94-7.03 7.5-11.32 12.62-6.42 46.63 44.65 78.03 57.55 110.29 80.36 11.64 8.22 23.39 17.729 36 30.479 47.54-48.07 82.92-50.16 146.29-110.84 5.12-4.9 13.56-.61 12.62 6.42-4.8 35.53-16.58 76.21-38.44 104.42 41.05 7.51 70.65 11.23 120.26 9.76 7.09-.21 10.48 8.63 5.08 13.21-11.64 9.85-29.19 23.18-50.57 34.55-14.67 7.8-28.59 15.06-44.65 17.77 26.36 25.34 43.74 49.67 94.47 82.77 5.94 3.871 3.68 13.071-3.38 13.741z" fill="#ffbfc7"/><path d="m305.536 314.187c-2.41 9.35-6.21 18.24-11.9 26.2-11.47 16.05-19.45 27.91-24.99 36.65-5.89 9.28-19.43 9.28-25.32 0-5.54-8.74-13.52-20.6-24.99-36.65-12.63-17.69-16.03-39.99-15.42-61.86h.01l3.34-4.27-2.99-3.2-3.27 2.54.84 4.53v.01c-15.19 41.04-48.27 78.61-88.09 95.49-22.3 9.45-43.71 14.69-58.68 17.52-6.97 1.31-11.7-6.89-7.07-12.26 34.06-39.55 43.93-65.68 58.39-92.77-10.52 3.74-18.73 4.31-29.86 5.65-24.04 2.87-46.06 1.95-61.23.5-7.06-.67-9.32-9.87-3.38-13.74 50.74-33.1 68.14-57.45 94.47-82.77-16.06-2.71-29.97-9.97-44.65-17.77-21.38-11.37-38.93-24.7-50.57-34.55-5.4-4.58-2.01-13.42 5.08-13.21 50.02 1.48 79.77-2.35 120.26-9.76-21.87-28.229-33.64-68.91-38.44-104.42-.94-7.03 7.5-11.32 12.62-6.42 46.63 44.65 78.03 57.55 110.29 80.36-26.61 44.32-69.35 152.1 85.55 224.2z" fill="#ff8a98"/><g><g fill="#fff"><ellipse cx="177.609" cy="430.352" rx="28.919" ry="23.03"/><ellipse cx="334.363" cy="430.352" rx="28.92" ry="23.03"/></g></g></g><g><path d="m87.724 135.364c15.897-1.701 29.787-4.03 44.54-6.687 5.797 7.369 19.637 22.727 38.527 29.023 3.949 1.314 8.182-.83 9.487-4.743 1.31-3.93-.814-8.178-4.744-9.487-41.738-13.912-65.13-84.786-71.018-128.419 61.197 58.601 96.771 63.358 140.967 105.618-6.329 6.915-18.048 20.349-33.144 40.476-3.738 4.984-.092 12 5.994 12 2.28 0 4.533-1.035 6.006-3 21.933-29.245 36.805-44.228 36.953-44.376 47.12-47.432 82.254-49.546 146.17-110.716-5.932 43.906-29.384 114.536-71.024 128.417-3.93 1.31-6.053 5.558-4.744 9.487 1.306 3.916 5.541 6.056 9.487 4.743 18.888-6.296 32.728-21.651 38.525-29.021 10.316 1.861 20.628 3.634 31.727 5.131 4.104.554 7.882-2.325 8.435-6.431.554-4.104-2.325-7.881-6.43-8.435-8.341-1.125-16.273-2.418-24.121-3.791 7.019-11.006 13.633-24.353 18.229-37.03 8.605-23.741 12.788-46.315 14.783-61.082 1.884-14.096-15.027-22.607-25.241-12.831-60.553 57.985-94.853 61.423-141.103 105.74-46.125-44.197-80.667-47.868-141.104-105.742-10.226-9.784-27.121-1.246-25.238 12.843 1.994 14.757 6.176 37.331 14.782 61.073 4.596 12.676 11.209 26.021 18.228 37.026-11.951 2.09-23.598 3.915-36.525 5.3-4.119.44-7.1 4.137-6.659 8.256.442 4.134 4.156 7.102 8.255 6.658z"/><path d="m505.144 272.246c-43.181-28.172-60.994-49.177-83.819-72.425 12.167-3.917 23.291-9.828 33.422-15.212 22.254-11.835 40.503-25.809 51.899-35.452 10.758-9.125 4.12-26.768-10.153-26.427-17.62.522-33.577.357-48.786-.502-4.137-.228-7.678 2.931-7.911 7.065-.233 4.136 2.93 7.678 7.065 7.911 15.612.881 31.961 1.051 50.067.525-10.832 9.164-28.158 22.432-49.223 33.634-12.339 6.557-25.068 13.31-38.856 16.309-5.752-4.967-18.564-14.47-32.394-14.47-4.142 0-7.5 3.357-7.5 7.5s3.358 7.5 7.5 7.5c26.82 0 41.262 44.885 120.472 96.6-14.085 1.346-35.852 2.352-59.601-.483-9.376-1.122-16.825-1.691-25.078-4.222-3.288-7.567-12.519-25.128-31.632-37.87-3.446-2.297-8.103-1.366-10.4 2.08-2.298 3.446-1.367 8.103 2.08 10.4 19.105 12.737 24.029 27.469 35.386 49.974 11.478 22.747 23.345 46.267 51.587 79.093-13.918-2.633-35.121-7.727-57.127-17.053-38.514-16.323-72.157-54.31-85.973-96.956-.178-6.291-1.789-33.815-16.296-55.577-2.297-3.446-6.954-4.377-10.4-2.08-3.447 2.298-4.378 6.954-2.08 10.4 17.391 26.087 20.528 84.962.141 113.517-10.41 14.567-18.896 27.014-25.22 36.992-2.938 4.627-9.695 4.665-12.654.003-6.327-9.981-14.813-22.428-25.22-36.993-20.422-28.601-17.166-87.559.139-113.519 2.298-3.446 1.367-8.103-2.08-10.4-3.446-2.298-8.103-1.367-10.4 2.08-14.507 21.761-16.119 49.286-16.296 55.577-13.816 42.646-47.46 80.632-85.973 96.956-21.967 9.309-43.13 14.401-57.13 17.047 28.224-32.775 40.1-56.314 51.586-79.079 11.34-22.476 16.313-37.264 35.39-49.981 3.446-2.298 4.378-6.954 2.08-10.4-2.297-3.446-6.954-4.378-10.4-2.08-19.109 12.738-28.361 30.363-31.63 37.869-8.212 2.518-15.33 3.058-25.079 4.223-23.7 2.83-45.426 1.833-59.604.478 51.817-33.808 69.391-58.523 95.547-83.629 6.17-5.922 16.413-12.965 24.926-12.965 4.142 0 7.5-3.357 7.5-7.5s-3.358-7.5-7.5-7.5c-13.83 0-26.642 9.503-32.394 14.47-13.788-3-26.517-9.752-38.854-16.308-21.031-11.185-38.334-24.426-49.223-33.641 12.846.376 25.168.395 36.622.06 4.14-.122 7.398-3.577 7.276-7.717-.121-4.141-3.583-7.401-7.717-7.277-11.166.329-23.193.308-35.747-.06-14.154-.416-20.98 17.243-10.148 26.433 11.39 9.638 29.639 23.611 51.895 35.447 10.13 5.383 21.254 11.294 33.42 15.211-22.028 22.436-40.149 43.934-83.815 72.422-11.879 7.741-7.366 26.148 6.76 27.489 14.817 1.417 37.747 2.476 62.835-.519 5.361-.643 10.047-1.111 14.755-1.853-14.306 28.467-25.518 48.367-49.856 76.628-9.277 10.761.225 27.16 14.143 24.527 14.28-2.7 35.881-7.884 58.507-17.279-1.902 17.257-1.362 35.006 3.591 51.962 1.16 3.971 5.322 6.26 9.302 5.097 3.976-1.161 6.258-5.326 5.097-9.302-5.227-17.895-4.818-37.251-1.75-55.662 26.987-15.316 50.788-39.989 66.663-68.672 2.342 15.738 7.438 28.998 15.356 40.087 10.249 14.343 18.578 26.558 24.76 36.31 8.843 13.931 29.156 13.909 37.987-.004 6.179-9.748 14.508-21.963 24.759-36.308 7.917-11.088 13.012-24.347 15.354-40.084 15.875 28.682 39.675 53.354 66.662 68.67 1.493 8.969 2.259 17.615 2.259 25.725 0 70.502-57.62 97.91-128.03 97.91-49.714 0-88.506-14.036-109.231-39.521-2.614-3.215-7.337-3.7-10.551-1.088-3.213 2.613-3.7 7.338-1.087 10.551 23.97 29.478 65.766 45.059 120.869 45.059 89.053 0 151.809-41.844 142.006-130.731 22.627 9.396 44.23 14.582 58.519 17.283 13.936 2.619 23.394-13.789 14.138-24.525-24.25-28.165-35.741-48.542-49.859-76.631 4.685.737 9.275 1.197 14.756 1.852 25.086 2.996 48.016 1.936 62.828.52 14.133-1.344 18.645-19.752 6.771-27.489z"/><path d="m188.198 405.291c0-3.454 2.811-6.265 6.265-6.265s6.265 2.811 6.265 6.265c0 4.143 3.358 7.5 7.5 7.5s7.5-3.357 7.5-7.5c0-11.726-9.54-21.265-21.265-21.265s-21.265 9.539-21.265 21.265c0 4.143 3.358 7.5 7.5 7.5s7.5-3.357 7.5-7.5z"/><path d="m311.243 405.291c0-3.454 2.811-6.265 6.265-6.265s6.265 2.811 6.265 6.265c0 4.143 3.358 7.5 7.5 7.5s7.5-3.357 7.5-7.5c0-11.726-9.54-21.265-21.265-21.265s-21.265 9.539-21.265 21.265c0 4.143 3.358 7.5 7.5 7.5s7.5-3.357 7.5-7.5z"/><path d="m276.241 426.308c2.721-3.123 2.396-7.86-.727-10.582-3.124-2.721-7.861-2.396-10.582.727-4.744 5.445-13.14 5.455-17.894 0-2.721-3.122-7.459-3.447-10.582-.727-3.123 2.722-3.448 7.459-.727 10.582 10.721 12.301 29.805 12.286 40.512 0z"/></g></g></svg>