<svg id="Capa_1" enable-background="new 0 0 511.972 511.972" height="512" viewBox="0 0 511.972 511.972" width="512" xmlns="http://www.w3.org/2000/svg"><g><g><path d="m183.246 394.692-59.1 15.83-2.82.76c-32.89 8.81-67.82-3.29-88.22-30.55-6.74-9.01-1.53-21.97 9.59-23.79l32.6-5.33 92.35-15.11z" fill="#77728d"/><path d="m183.246 394.692-59.1 15.83c-.06-.01-.12-.02-.18-.03-17.97-3.521-31.51-13.96-39.69-27.38-5.79-9.48-8.89-20.45-8.98-31.5l92.35-15.11z" fill="#5c576e"/><path d="m474.336 112.942c0 31.79-18.88 42.61-36.7 45.74-15.95 2.8-31.06-.56-31.06-.56v-45.18z" fill="#f3c23b"/><path d="m446.826 112.942c0 16.13-3.09 31.8-9.19 45.74-15.95 2.8-31.06-.56-31.06-.56v-45.18z" fill="#e8a900"/><path d="m385.336 504.472h-77.99c-12.92 0-19.81-15.26-11.24-24.94 3.46-3.92 7.71-7.4 12.59-10.33 2.01-1.21 4.13-2.33 6.33-3.34 5.32-2.43 8.72-7.76 8.72-13.61v-60.72h30.12v55.48c0 6.86 4.65 12.89 11.31 14.53 13.09 3.23 24.19 9.73 31.59 18.21 8.41 9.641 1.36 24.72-11.43 24.72z" fill="#c76d33"/><path d="m353.866 391.532v30.99c-9.57 3.64-19.67 6.47-30.12 8.61v-39.6z" fill="#a05423"/><path d="m310.046 504.472h-77.99c-12.92 0-19.81-15.26-11.25-24.94 4.89-5.53 11.36-10.2 18.93-13.67 5.32-2.43 8.72-7.76 8.72-13.61v-60.72h30.12v55.48c0 6.86 4.65 12.89 11.31 14.53 6.91 1.7 13.26 4.32 18.81 7.66 4.96 2.98 9.29 6.55 12.78 10.55 8.41 9.641 1.35 24.72-11.43 24.72z" fill="#df8a57"/><path d="m248.456 391.532h30.12v44.86c-9.99.42-20.07.4-30.12.03z" fill="#c76d33"/><path d="m481.866 117.262c0 5-4.8 8.61-9.6 7.19-6.16-1.82-15-3.7-25.67-3.95-.78-.02-1.58-.03-2.38-.03-22.59 0-37.65 7.53-37.65 7.53v-60.24l32.98 6.6 8.56 1.71c19.63 3.921 33.76 21.16 33.76 41.19z" fill="#f1e12b"/><path d="m446.826 112.942c0 2.53-.08 5.06-.23 7.56-.78-.02-1.58-.03-2.38-.03-22.59 0-37.65 7.53-37.65 7.53v-60.24l32.98 6.6c4.7 11.95 7.28 24.96 7.28 38.58z" fill="#f3c23b"/><path d="m429.176 317.562c-33.31 107.42-176.45 98.83-270.17 80.49-17.97-3.52-31.51-13.96-39.69-27.38l2.82-14.52-11.77-15.52c-.6-18.13 6.88-36.65 23.91-49.37 51.43-38.44 123.7-67.06 162.47-71.89-8.25-3-17.31-6.64-23.33-10.08-20.97-11.99-38.47-28.11-49.59-47.6-8.34-14.61-13.09-31.11-13.01-49.17.23-56.5 45.6-103.2 102.07-104.94 59.74-1.84 108.74 46.03 108.74 105.36 0 18.2-3.94 35.81-11.68 51.02-5.12 10.06-4.39 22.08 2.14 31.28 19.83 27.901 31.67 75.31 17.09 122.32z" fill="#e1dfe5"/><path d="m293.306 351.402c-.89.5-1.77 1-2.66 1.49-70.65 39.15-127.83 36.12-171.33 17.78-15.04-24.63-11.98-59.28 14.96-79.41 51.43-38.44 123.7-67.06 162.47-71.89-8.25-3-17.31-6.64-23.33-10.08-20.97-11.99-38.47-28.11-49.59-47.6 42.32-8.8 87.33 10.1 109.74 49.92 27.63 49.06 8.73 112.031-40.26 139.79z" fill="#c2c0cb"/><path d="m273.196 336.353c-.72.41-1.44.81-2.16 1.21-114 63.18-184.78-9.04-210.96-44.92-6.1-8.36-2.11-20.18 7.78-23.22 81.12-24.88 92.09-51.04 112.72-69.14 3.49-3.07 7.26-5.9 11.69-8.46 39.88-23.03 90.95-9.12 113.59 31.11 22.42 39.81 7.09 90.899-32.66 113.42z" fill="#77728d"/><path d="m271.036 337.562c-114 63.18-184.78-9.04-210.96-44.92-6.1-8.36-2.11-20.18 7.78-23.22 81.12-24.88 92.09-51.04 112.72-69.14-12.4 35.33-29.87 122.211 90.46 137.28z" fill="#5c576e"/><g><path d="m368.927 97.407c-.028 12.987-13.272 23.486-29.58 23.45s-29.506-10.593-29.477-23.58c.028-12.987 13.272-23.486 29.58-23.451 16.308.037 29.506 10.594 29.477 23.581z" fill="#ffa1ac"/></g></g><g><path d="m449.578 68.718-32.447-6.495c-5.04-10.009-11.598-19.305-19.563-27.574-2.873-2.982-7.621-3.071-10.605-.198-2.983 2.873-3.072 7.621-.199 10.604 17.645 18.318 27.362 42.428 27.362 67.888 0 17.197-3.756 33.662-10.864 47.617-6.438 12.648-5.399 27.601 2.711 39.027 16.682 23.47 30.892 67.867 16.04 115.753-30.397 98.012-160.357 95.057-261.567 75.352-19.586-3.831-34.534-17.598-40.179-35.886 46.446 23.294 95.08 18.403 141.69-4.1 3.73-1.801 5.294-6.284 3.493-10.015s-6.283-5.297-10.015-3.493c-98.815 47.706-161.017-10.208-189.3-48.977-3.055-4.187-1.06-10.098 3.921-11.629 96.454-29.582 97.369-61.769 125.961-78.274 36.338-20.984 82.716-8.291 103.305 28.294 16.973 30.146 10.244 69.347-16.001 93.212-3.064 2.786-3.29 7.53-.503 10.595 2.786 3.064 7.53 3.29 10.595.503 15.003-13.643 25.252-32.174 28.859-52.18 9.377-52.009-27.844-100.58-80.968-105.199-24.019-28.433-29.659-65.316-15.008-99.108 23.373-53.912 85.397-73.663 134.211-48.836 3.692 1.877 8.208.407 10.085-3.286 1.878-3.691.407-8.207-3.285-10.085-56.03-28.493-127.722-6.155-154.774 56.241-15.409 35.542-11.474 74 10.15 105.385-11.885 1.457-23.472 5.298-34.165 11.474-32.695 18.874-29.559 48.31-122.864 76.926-14.632 4.497-20.883 22.136-11.636 34.809 8.768 12.019 23.112 28.904 42.906 43.412l-55.434 9.067c-16.746 2.734-24.446 22.204-14.387 35.687 6.074 8.116 13.393 15.097 21.754 20.749 3.421 2.311 8.086 1.43 10.414-2.014 2.32-3.432 1.418-8.094-2.013-10.414-6.972-4.712-13.077-10.536-18.139-17.301-3.42-4.584-.698-11.007 4.79-11.903l60.726-9.933c4.454 19.414 16.85 35.419 34.115 44.435l-19.364 5.192c-10.538 2.827-21.328 3.349-32.066 1.548-4.085-.682-7.952 2.072-8.637 6.156-.685 4.085 2.072 7.952 6.157 8.637 12.85 2.156 25.788 1.539 38.433-1.853l42.887-11.5c26.609 4.858 51.576 7.887 74.801 9.09v36.135c0 2.92-1.703 5.585-4.345 6.792-8.471 3.883-15.879 9.25-21.423 15.52-12.845 14.525-2.509 37.408 16.868 37.408h153.28c19.32 0 29.664-22.729 17.081-37.15-8.473-9.71-21.06-17.012-35.448-20.562-3.299-.813-5.603-3.793-5.603-7.248v-46.893c38.131-15.773 63.292-42.672 74.974-80.335 16.474-53.116.524-102.627-18.138-128.882-4.63-6.524-5.712-15.373-1.405-23.879 36.372 2.755 56.533-13.508 62.719-35.674 5.849-2.158 9.85-7.637 9.85-14.087-.005-23.525-16.739-43.941-39.793-48.545zm-137.681 390.328c-1.087.499-2.16 1.027-3.217 1.576-5.239-2.717-10.959-4.876-17.001-6.362-3.299-.813-5.603-3.793-5.603-7.248v-30.994c10.525-.658 20.593-1.777 30.17-3.375v39.609c0 2.92-1.702 5.585-4.349 6.794zm-85.472 25.454c4.169-4.715 9.853-8.802 16.428-11.816 7.96-3.637 13.104-11.656 13.104-20.432v-35.606c5.144.091 9.437.107 15.12-.007v30.374c0 10.376 6.998 19.346 17.019 21.813 11.409 2.807 21.257 8.438 27.73 15.857 4.208 4.823.523 12.289-5.779 12.289h-77.99c-6.465 0-9.908-7.636-5.632-12.472zm136.955-15.676c11.42 2.818 21.27 8.45 27.735 15.859 4.132 4.736.642 12.289-5.778 12.289h-54.047c2.753-7.63 1.231-15.967-4.163-22.15-1.442-1.653-3.012-3.229-4.68-4.736 5.458-4.192 8.798-10.766 8.798-17.833v-42.606c5.217-1.213 10.259-2.581 15.12-4.104v41.47c.001 10.375 6.999 19.345 17.015 21.811zm83.258-385.397c16.067 3.209 27.729 17.438 27.75 33.832-14.375-4.241-30.154-5.326-45.277-3.221.101-12.161-1.635-23.83-5.209-35.162zm-23.743 68.888c2.437-7.318 4.173-15.012 5.183-22.935 11.901-2.082 24.389-1.827 36.079.736-6.873 18.804-26.034 22.508-41.262 22.199z"/><path d="m167.228 331.267c.85 0 21.068-.094 42.913-8.263 29.878-11.173 48.285-32.004 53.233-60.243.715-4.08-2.013-7.967-6.093-8.682-4.083-.707-7.967 2.014-8.682 6.094-4.014 22.909-18.592 39.273-43.331 48.638-19.343 7.322-37.865 7.456-38.049 7.456-4.138.005-7.49 3.361-7.49 7.5-.001 4.143 3.357 7.5 7.499 7.5z"/><path d="m221.988 244.475c1.951-3.653.57-8.197-3.084-10.147-3.655-1.952-8.198-.571-10.148 3.085-24.037 45.031-95.225 47.679-96.148 47.707-4.139.115-7.402 3.563-7.289 7.702.114 4.166 3.589 7.407 7.702 7.292 3.285-.09 80.768-2.809 108.967-55.639z"/><path d="m355.076 52.738c-11.726 0-21.265 9.539-21.265 21.265 0 4.143 3.358 7.5 7.5 7.5s7.5-3.357 7.5-7.5c0-3.454 2.811-6.265 6.265-6.265s6.265 2.811 6.265 6.265c0 4.143 3.358 7.5 7.5 7.5s7.5-3.357 7.5-7.5c0-11.726-9.539-21.265-21.265-21.265z"/></g></g></svg>