<svg id="Capa_1" enable-background="new 0 0 511.94 511.94" height="512" viewBox="0 0 511.94 511.94" width="512" xmlns="http://www.w3.org/2000/svg"><g><g><path d="m246.536 278.558c-90.353 0-143.059-52.706-143.059-143.059 0-67.765 52.706-128 143.059-128 13.826 0 22.841 14.552 16.649 26.938-10.949 21.897-16.649 46.043-16.649 70.525z" fill="#f1e12b"/><path d="m174.103 183.659s81.943 31.111 79.738 145.705c-.066 3.445-1.33 6.775-3.567 9.395-74.404 87.182-156.347 56.071-156.347 56.071-26.659-10.121-32.537-44.826-11.649-63.347 5.749-5.098 6.554-13.906 1.87-19.997-20.504-26.665-5.794-65.619 27.326-71.974 7.546-1.448 12.79-8.571 11.872-16.2-3.32-27.627 24.03-49.8 50.757-39.653z" fill="#736acc"/><path d="m292.195 212.23c-.32 1.87-.48 3.9-.48 6.09 0 2.37.37 4.6 1.07 6.72 6.51 20.13 41.27 30.67 54.26 59.73l-1.39 8.63 5.6 5.87c1.66 10.97.49 26.67-4.52 39.27l-9.42 7.71.72 7.56c-13.26 17.09-33.96 25.77-53.01 33.6l-13.32.88-3.55 6.34c-5.98 2.79-11.41 5.77-15.92 9.24-4.46 3.42-8.02 7.33-10.31 12.04-1.88 3.83-2.92 8.19-2.92 13.24 0 33.76 27.81 42.81 55.72 35.05 38.61-10.74 52.96-39.54 61.02-61.8 2.36-6.53 8.53-10.9 15.47-10.9 10.26 0 18.08 9.31 16.14 19.6-6.22 32.33-29.69 93.34-118.23 93.34-89.32 0-119.78-62.14-130.16-104.51 0-108.59 50.46-145.07 52.03-146.18.03-.02.04-.03.04-.03.18-.11.37-.22.56-.33 12.89-7.41 12.86-25.66.73-32.99-26.17-15.82-43.67-44.56-43.67-77.37 0-49.9 40.45-90.35 90.35-90.35 8.22 0 16.18 1.19 23.75 3.39 26.58 7.72 48.31 27.98 59.16 53.5 14.48 34.08 47.7 41.1 82.6 33.1l29.51 36.62-32.27 32.68c-32.6-16.23-87.45-16.24-87.45-16.24-12.87 0-20.24 5.5-22.11 16.5z" fill="#7dce5c"/><path d="m387.355 411.1c-6.22 32.33-29.69 93.34-118.23 93.34-135.53 0-135.53-143.06-135.53-143.06s0-74.18 57.44-107.66c-25.461 31.335-42.823 128.867 61.2 150.15-4.46 3.42-8.02 7.33-10.31 12.04-1.88 3.83-2.92 8.19-2.92 13.24 0 33.76 27.81 42.81 55.72 35.05 38.61-10.74 52.96-39.54 61.02-61.8 2.36-6.53 8.53-10.9 15.47-10.9 10.26 0 18.08 9.31 16.14 19.6z" fill="#59c230"/><path d="m442.305 180.68c0 14.63-5.33 25.71-10.82 33.23-4.85 6.66-14.15 8.09-20.86 3.31-2.69-1.92-5.68-3.66-8.87-5.25 5.71-8.63 10.43-19.37 10.43-31.29 0-15.25-3.86-28.58-7.67-38.01 4.09-.93 8.21-2.07 12.32-3.4 6.97-2.26 14.6.88 17.89 7.43 3.78 7.53 7.58 18.86 7.58 33.98z" fill="#59c230"/><g><path d="m274.858 144.639c-.04 12.848-13.152 23.222-29.285 23.171s-29.179-10.506-29.139-23.354 13.151-23.222 29.285-23.172c16.133.051 29.179 10.507 29.139 23.355z" fill="#fff"/></g></g><g><path d="m441.427 143.333c-4.905-9.766-16.472-14.58-26.901-11.199-19.788 6.405-67.757 16.743-85.708-25.499-12.227-28.758-35.958-49.663-63.896-57.755 1.511-3.75 3.164-7.465 4.976-11.096 8.692-17.447-4.021-37.784-23.363-37.784-92.756 0-150.56 61.924-150.56 135.5 0 32.436 6.555 60.591 19.483 83.686.039.07.088.13.13.198.019 1.597.117 3.206.311 4.824.45 3.735-2.114 7.222-5.839 7.937-38.678 7.429-55.724 52.874-31.856 83.922 2.272 2.951 1.869 7.346-.911 9.807-9.484 8.429-15.009 20.515-15.156 33.159-.049 4.174 3.32 7.587 7.501 7.587 4.101 0 7.449-3.3 7.497-7.413.099-8.429 3.788-16.492 10.111-22.112 8.698-7.699 9.946-20.957 2.846-30.176-17.111-22.257-4.831-54.737 22.799-60.044 11.427-2.195 19.29-12.94 17.901-24.458-1.795-14.982 7.93-28.87 22.173-32.678 8.173 15.142 20.276 27.887 35.482 37.08 7.111 4.297 7.498 15.418-.589 20.068-3.277 1.883-6.44 3.934-9.491 6.141l-12.463-22.04c-2.038-3.606-6.615-4.876-10.22-2.836-3.605 2.039-4.876 6.615-2.837 10.22l13.82 24.439c-8.359 8.032-15.584 17.481-21.552 28.184l-23.225-11.612c-3.707-1.853-8.211-.351-10.063 3.354-1.853 3.705-.351 8.21 3.354 10.062l23.363 11.681c-6.237 14.754-10.119 30.81-11.733 45.937l-16.734 1.859c-4.117.458-7.083 4.166-6.626 8.282.457 4.121 4.17 7.083 8.282 6.626l14.491-1.61c.261 5.257 1.058 15.029 3.455 27.149-19.899-.083-32.963-4.857-33.103-4.909-2.38-.899-4.653-2.112-6.756-3.607-3.376-2.4-8.059-1.608-10.458 1.769-2.399 3.376-1.607 8.059 1.769 10.458 3.15 2.239 6.563 4.06 10.131 5.408 8.374 3.175 24.594 6.23 41.977 5.847 17.979 64.442 63.815 104.252 135.888 104.252 40.853 0 72.986-12.44 95.51-36.974 18.896-20.583 26.789-45.321 30.09-62.476 1.338-7.09-.518-14.32-5.09-19.837-11.878-14.327-34.691-10.108-40.942 7.196-3.354 9.275-8.328 21.312-17.091 32.157-2.604 3.222-2.103 7.944 1.119 10.547 3.221 2.604 7.943 2.102 10.547-1.12 10.281-12.723 16.07-26.915 19.531-36.485 2.351-6.509 10.867-8.056 15.287-2.722 1.739 2.098 2.413 4.755 1.903 7.457-6.269 32.588-29.009 87.257-110.864 87.257-52.88 0-90.431-22.479-111.607-66.813-16.167-33.845-16.422-68.409-16.423-68.737.002-.705.8-70.789 54.238-101.498 17.786-10.228 17.949-35.592.872-45.91-40.91-24.731-52.234-78.343-25.878-117.31 2.32-3.431 1.42-8.093-2.011-10.414-3.43-2.32-8.093-1.421-10.415 2.011-17.782 26.291-21.399 58.402-11.06 87.65-10.946 3.554-19.922 11.139-25.402 20.818-6.941-17.737-10.465-38.249-10.465-61.236 0-59.881 46.564-120.5 135.561-120.5 8.228 0 13.664 8.612 9.939 16.09-2.4 4.807-4.569 9.751-6.485 14.745-21.589-2.571-45.075 2.309-65.205 15.724-3.447 2.297-4.379 6.954-2.082 10.4 2.298 3.448 6.955 4.379 10.4 2.082 13.606-9.068 29.479-13.861 45.901-13.861 32.659 0 62.494 20.539 76.008 52.324 14.585 34.319 47.389 45.496 84.698 38.808 2.554 7.646 4.974 17.914 4.974 29.368 0 7.064-2.001 14.351-5.941 21.718-33.901-13.969-82.059-14.168-84.439-14.168-19.122 0-30.09 10.968-30.09 30.093.01 29.389 40.513 38.633 55.004 67.447-27.951 2.367-45.976-8.898-46.353-9.138-3.456-2.257-8.093-1.298-10.365 2.153-2.278 3.459-1.321 8.11 2.138 10.389.887.584 18.526 11.949 46.704 11.949 3.958 0 8.13-.231 12.487-.741 1.655 11.001.158 26.48-5.436 38.433-38.399.353-58.307-20.334-59.193-21.277-2.809-3.025-7.538-3.212-10.577-.414-3.047 2.806-3.242 7.551-.436 10.598.946 1.027 21.415 22.736 60.243 25.746-13.318 14.183-33.15 21.557-51.345 29.103-16.833-11.217-23.718-24.302-23.856-24.569-1.86-3.685-6.35-5.176-10.048-3.329-3.705 1.851-5.208 6.356-3.356 10.062.303.608 6.516 12.783 21.535 24.888-16.604 8.368-29.856 19.389-29.856 39.53 0 43.774 41.542 55.361 81.541 36.193 3.735-1.79 5.313-6.27 3.522-10.005-1.79-3.736-6.272-5.312-10.005-3.522-18.499 8.865-37.003 9.956-48.291 2.847-7.809-4.917-11.768-13.5-11.768-25.513 0-43.814 112.939-26.026 112.939-120.47 0-55.931-60.222-66.516-60.229-90.36 0-10.859 4.23-15.09 15.089-15.09.637 0 64.049.24 91.97 20.099 10.033 7.148 24.063 4.902 31.269-4.996 8.022-10.988 12.263-24.008 12.263-37.652 0-17.08-4.556-29.739-8.378-37.353zm-16.006 66.163c-2.395 3.289-7.081 4.013-10.449 1.613-.923-.656-1.877-1.292-2.856-1.911 5.02-9.472 7.569-19.039 7.569-28.517 0-10.897-1.788-21.906-5.314-32.817 1.583-.459 3.173-.94 4.778-1.459 3.447-1.119 7.264.456 8.873 3.661 3.095 6.163 6.783 16.478 6.783 30.615 0 10.591-3.155 20.283-9.384 28.815z"/><path d="m248.822 126.743c4.198 0 7.511-3.377 7.523-7.476.011-3.525 2.882-6.385 6.404-6.385 3.544 0 6.416 2.875 6.404 6.424-.013 4.142 3.334 7.511 7.477 7.524 4.199 0 7.511-3.377 7.523-7.476.038-11.827-9.505-21.434-21.337-21.472-11.775.002-21.435 9.535-21.472 21.337-.012 4.142 3.335 7.51 7.478 7.524z"/></g></g></svg>