<svg id="Capa_1" enable-background="new 0 0 511.58 511.58" height="512" viewBox="0 0 511.58 511.58" width="512" xmlns="http://www.w3.org/2000/svg"><g><g><path d="m490.29 422.457c-9.09 5.53-34.21 11.97-69.4-1.41-2.01-.76-4.01-1.55-5.98-2.37-53.74-22.15-93.1-63.29-69.03-162.07l76.91 34.23s.18 31.04 15.29 50.86c6.04 7.94 14.09 14 23.02 18.41 2.93 1.44 5.95 2.72 9.02 3.82 40.33 14.49 41.56 45.52 20.17 58.53z" fill="#77728d"/><path d="m461.1 360.107c-7.78 21.18-23.6 42.58-46.19 58.57-53.74-22.15-93.1-63.29-69.03-162.07l76.91 34.23s.18 31.04 15.29 50.86c6.04 7.94 14.09 14 23.02 18.41z" fill="#5c576e"/><path d="m443.62 294.917c-16.9 40.78-121.8 110.14-241.28 94.64-37.95-4.92-77.37-18.41-115.91-44.1h-.01c-24-41.23-28.73-90.84-26.56-131.32.14-2.69-.46-5.36-1.72-7.74-3.99-7.54-15.14-24.03-42.05-40.01-9.21-5.47-11.81-17.42-3.87-24.62 19.89-18.03 52.54-20.98 79.99.27 5.41 4.19 12.98 4.33 18.38.12 27.46-21.37 60.17-18.46 80.1-.43 7.87 7.12 5.78 19.98-3.76 24.63-19.05 9.27-32.1 25.5-38.8 35.52-3.57 5.35-3.39 12.38.53 17.49 3.66 4.77 7.97 9.15 12.89 12.98 12.49 9.72 28.98 15.91 49.1 15.91 29.54 0 47.5-12.75 58.4-28.24 6.71-9.53 10.76-20.09 13.2-29.36 3.7-14.1 3.7-25.22 3.7-25.22v-44.22c0-1.65.05-3.29.17-4.91 2.47-39.18 34.5-70.89 74.24-71.34 21.14-.24 40.31 8.24 54.13 22.05 12.76 12.76 20.96 30.08 21.95 49.31.07 1.3.1 2.61.1 3.93 0 11.12-.44 22.24-1.32 33.31-.03.44-.06.88-.1 1.32-.95 11.51-2.36 22.99-4.23 34.4-.24 1.48-.47 2.99-.67 4.54-.73 5.35-1.21 11.06-1.21 16.78 0 6.21 1.14 12.99 2.79 20.5 3.73 16.96 10.08 37.63 11.82 63.81z" fill="#77728d"/><path d="m430.89 189.287c-1.08 6.59-1.88 13.95-1.88 21.32 0 6.21 1.14 12.99 2.79 20.5-5.57 1.39-11.58 2.09-17.85 2.09-4.245 0-8.376-.566-12.335-1.592-5.743-1.488-11.75.555-15.525 5.131-5.536 6.712-13.474 11.52-24.85 11.52s-19.313-4.808-24.849-11.519c-3.776-4.577-9.784-6.619-15.527-5.131-3.954 1.025-8.08 1.59-12.323 1.59-15.72 0-29.83-4.39-39.49-13.18 16.9-24 16.9-54.58 16.9-54.58v-11.44c6.85-2.32 14.51-3.62 22.59-3.62 17.24 0 32.54 5.92 42.16 15.06h21.08c9.62-9.14 24.93-15.06 42.17-15.06 7.57 0 14.77 1.14 21.27 3.19.002.003.004.006.006.009-.951 11.95-2.396 23.869-4.337 35.712z" fill="#5c576e"/><path d="m202.34 389.557c-37.95-4.92-77.37-18.41-115.91-44.1h-.01c-24-41.23-28.73-90.84-26.56-131.32.14-2.69-.46-5.36-1.72-7.74-3.99-7.54-15.14-24.03-42.05-40.01-9.21-5.47-11.81-17.42-3.87-24.62 19.89-18.03 52.54-20.98 79.99.27 5.41 4.19 12.98 4.33 18.38.12 27.46-21.37 60.17-18.46 80.1-.43 7.87 7.12 5.78 19.98-3.76 24.63-19.05 9.27-32.1 25.5-38.8 35.52-3.57 5.35-3.39 12.38.53 17.49 3.66 4.77 7.97 9.15 12.89 12.98-16.77 30.79-44.99 105.82 40.79 157.21z" fill="#5c576e"/><path d="m444.07 308.497c0 45.17-45.18 105.41-120.48 112.94-9.69.97-18.84 1.83-27.54 2.56h-.01c-41.25 3.45-72.17 3.81-100.45-2.56-55.02-12.4-88.94-41.22-109.16-75.98 28.7 14.87 59.22 21.52 88.32 23.36 75.42 4.78 141.32-22.68 141.32-22.68 0-37.64 30.11-75.29 75.29-75.29 23.58 0 41 12.3 52.26 24.07.29 4.37.45 8.89.45 13.58z" fill="#e1dfe5"/><path d="m296.04 423.997c-41.25 3.45-72.17 3.81-100.45-2.56-55.02-12.4-88.94-41.22-109.16-75.98 28.7 14.87 59.22 21.52 88.32 23.36 22.94 22.03 60.87 41.78 121.29 55.18z" fill="#c2c0cb"/><path d="m323.595 172.962h75.294s0 52.706-37.647 52.706-37.647-52.706-37.647-52.706z" fill="#ffbfc7"/><path d="m436.54 120.257c0 11.12-.44 22.24-1.32 33.31-.03.44-.06.88-.1 1.32-.95 11.51-2.36 22.99-4.23 34.4-.24 1.48-.47 2.99-.67 4.54-5.12 1.15-10.59 1.72-16.27 1.72-25.5 0-46.77-20.46-51.66-37.64 0-.01-.01-.03-.01-.04-.37.02-.74.03-1.12.03-.32 0-.64-.01-.96-.03 0 .01-.01.03-.01.04-4.89 17.18-26.16 37.64-51.65 37.64-9.57 0-18.55-1.63-26.29-4.89 3.7-14.1 3.7-25.22 3.7-25.22v-44.22c0-1.65.05-3.29.17-4.91 6.8-2.3 14.4-3.58 22.42-3.58 9.397 0 18.219 1.76 25.86 4.838 3.594 1.448 7.651 1.541 11.227.05 4.166-1.737 9.65-2.01 15.663-1.989 5.964.021 11.409.321 15.552 2.047 3.539 1.474 7.555 1.39 11.107-.051 7.674-3.113 16.545-4.896 26.002-4.896 8.05 0 15.67 1.29 22.49 3.6.069 1.301.099 2.611.099 3.931z" fill="#5c576e"/><path d="m466.65 165.435c.004 30.116-23.59 45.175-52.7 45.175-25.5 0-46.77-20.465-51.66-37.645-.69-2.44-1.05-4.95-1.05-7.53 0 2.58-.36 5.09-1.05 7.53-4.89 17.18-26.16 37.645-51.65 37.645-29.11 0-52.71-15.059-52.71-45.175 0-20.79 23.6-37.65 52.71-37.65 17.24 0 32.54 5.92 42.16 15.06h21.08c9.62-9.14 24.93-15.06 42.17-15.06 29.11 0 52.697 16.859 52.7 37.65z" fill="#77728d"/><path d="m323.49 355.747c-1.15 29.69-11.54 51.55-27.44 68.25-13.23 13.9-30.27 24.22-48.97 32.48-34.44 15.22-59.86 10.12-69.23 5.07-22.04-11.86-22.46-42.91 17.05-59.51 5.27-2.21 10.33-4.92 14.99-8.17 6.15-4.28 11.59-9.49 15.84-15.72 6.39-9.38 9.57-20.93 11.14-30.72 2.2-13.77 10.82-25.66 23.24-32 29.59-15.09 64.66 7.13 63.38 40.32z" fill="#5c576e"/><path d="m323.49 355.747c-1.15 29.69-11.54 51.55-27.44 68.25-13.23 13.9-30.27 24.22-48.97 32.48-34.44 15.22-59.86 10.12-69.23 5.07-22.04-11.86-22.46-42.91 17.05-59.51 5.27-2.21 10.33-4.92 14.99-8.17 6.15-4.28 11.59-9.49 15.84-15.72 6.39-9.38 9.57-20.93 11.14-30.72 2.2-13.77 10.82-25.66 23.24-32 29.59-15.09 64.66 7.13 63.38 40.32z" fill="#5c576e"/><path d="m296.05 423.997c-13.23 13.9-30.27 24.22-48.97 32.48-34.44 15.22-59.86 10.12-69.23 5.07-22.04-11.86-22.46-42.91 17.05-59.51 5.27-2.21 10.33-4.92 14.99-8.17 21.69 11.75 49.87 22.08 86.16 30.13z" fill="#423e4f"/><g><path d="m384.792 146.682c.046-14.555-10.495-15.956-23.502-15.997s-23.556 1.294-23.602 15.849 10.462 26.387 23.469 26.428c13.008.041 23.589-11.725 23.635-26.28z" fill="#fff"/></g></g><g><path d="m472.65 356.866c-11.179-4.007-20.39-10.046-26.837-17.546 3.747-10.394 5.757-20.859 5.757-30.823 0-42.817-13.077-72.517-14.86-93.546 10.407-3.124 19.903-8.734 26.82-17.336 6.866 3.346 14.304 7.885 21.457 14.018 3.157 2.708 7.891 2.32 10.575-.812 2.696-3.145 2.333-7.879-.812-10.575-7.952-6.819-16.183-11.912-23.847-15.719 2.137-5.808 3.247-12.201 3.247-19.09 0-8.318-2.917-16.225-8.364-23.108 7.301-3.082 15.993-5.807 25.751-7.11 4.106-.548 6.99-4.32 6.441-8.426-.549-4.107-4.34-6.994-8.426-6.441-14.271 1.905-26.472 6.369-35.957 11.013-2.991-1.955-6.206-3.67-9.602-5.127.028-1.997.045-3.996.045-5.981 0-13.126-2.983-25.675-8.868-37.298-1.871-3.695-6.386-5.174-10.079-3.304-3.695 1.871-5.175 6.384-3.304 10.079 5.341 10.549 7.288 20.693 7.242 31.973-15.324-2.928-32.353-1.417-46.855 5.304-6.057-3.447-13.734-3.804-20.862-3.827-7.12-.037-14.945.283-21.069 3.798-14.372-6.647-31.355-8.223-46.794-5.274 0-38.944 30.816-68.83 66.994-69.242 14.826-.185 28.993 4.374 40.891 13.13 3.336 2.456 8.03 1.741 10.485-1.595 2.456-3.336 1.741-8.03-1.595-10.485-14.54-10.702-31.84-16.223-49.95-16.05-45.119.514-81.825 38.083-81.825 83.75v5.038c-3.382 1.454-6.583 3.164-9.562 5.111-9.485-4.644-21.687-9.108-35.958-11.013-4.108-.564-7.878 2.335-8.427 6.441-.548 4.105 2.336 7.878 6.441 8.426 9.758 1.303 18.451 4.028 25.752 7.11-5.449 6.883-8.366 14.79-8.366 23.108 0 6.89 1.11 13.283 3.248 19.091-7.664 3.807-15.894 8.899-23.846 15.718-3.145 2.696-3.508 7.431-.812 10.575 2.689 3.136 7.423 3.514 10.575.812 7.13-6.114 14.583-10.649 21.473-13.998 2.791 3.466 5.881 6.332 9.404 8.878-7.562 15.096-18.718 25.321-33.249 30.405-3.91 1.367-5.971 5.646-4.603 9.556 1.368 3.912 5.651 5.971 9.556 4.603 18.001-6.297 32.235-19.215 41.54-37.535 7.988 3.003 17.063 4.566 26.923 4.566 6.43 0 12.809-1.116 19.042-3.313 7.906 12.043 19.418 18.372 33.658 18.372 14.234 0 25.758-6.325 33.665-18.371 9.219 3.247 17.415 3.811 27.002 2.948 1.677 16.169 8.484 35.347 12.18 59.235-13.073-8.951-27.577-13.632-42.726-13.632-27.433 0-52.2 13.272-67.47 35.04-1.029-4.011-2.159-8.089-3.408-12.247-1.19-3.967-5.373-6.22-9.34-5.025-3.967 1.191-6.217 5.373-5.025 9.34 30.959 103.087-16.908 139.21-62.065 159.162-2.98 1.314-5.993 2.513-8.954 3.561-3.905 1.382-5.95 5.667-4.568 9.572 1.388 3.924 5.687 5.944 9.572 4.568 3.315-1.173 6.682-2.512 10.009-3.979 20.468-9.043 36.8-19.665 49.292-32.1 7.456-.641 15.632-1.408 24.932-2.338 20.978-2.098 40.968-8.368 58.768-18.219 10.034 6.516 21.566 12.222 35.121 17.376 16.05 6.102 30.56 8.459 42.839 8.459 14.58 0 26.013-3.325 33.124-7.651 26.302-15.999 25.544-55.083-21.536-72zm-111.384-218.681c4.907.016 10.32.233 13.257 1.734 1.042.532 2.785 1.423 2.769 6.739-.031 9.901-6.823 18.804-16.111 18.804-9.165-.028-16.024-8.925-15.992-18.904.017-5.316 1.766-6.196 2.811-6.723 3.23-1.625 9.64-1.671 13.266-1.65zm-87.28 53.488c7.567-2.37 12.653-3.036 12.843-3.059 4.107-.486 7.047-4.207 6.567-8.316-.479-4.114-4.21-7.068-8.317-6.581-.632.074-8.544 1.058-19.635 4.956-1.354-3.872-2.114-8.262-2.114-13.234 0-5.856 2.669-11.381 7.208-16.067 6.55 3.948 10.292 7.167 10.443 7.298 1.427 1.26 3.198 1.88 4.964 1.88 6.878 0 10.124-8.547 4.979-13.111-.292-.258-2.66-2.328-6.815-5.196 14.748-6.474 32.755-6.435 46.944-.872-.533 2.085-.855 4.442-.864 7.143-.047 14.599 8.304 26.756 19.658 31.614-7.98 13.97-24.459 24.982-41.306 24.982-12.616-.002-25.72-3.31-34.555-11.437zm87.254 26.494c-8.452 0-15.062-3.321-20.064-10.087 8.121-5.242 15.13-12.199 20.059-19.819 4.925 7.623 11.936 14.577 20.071 19.822-5.004 6.767-11.615 10.084-20.066 10.084zm11.368-40.072c11.476-4.949 19.639-17.138 19.684-31.39.009-2.778-.315-5.197-.863-7.329 14.413-5.652 32.393-5.527 46.947.864-4.156 2.868-6.525 4.938-6.816 5.197-5.179 4.594-1.855 13.103 4.984 13.103 1.761 0 3.53-.616 4.955-1.868.086-.075 3.835-3.316 10.446-7.301 4.538 4.686 7.206 10.212 7.206 16.067 0 4.972-.759 9.361-2.113 13.233-11.09-3.897-19.001-4.881-19.633-4.955-4.113-.489-7.839 2.467-8.317 6.581-.479 4.114 2.467 7.838 6.581 8.317.114.013 5.216.647 12.854 3.034-8.833 8.146-21.947 11.459-34.572 11.459-16.767.001-33.353-10.968-41.343-25.012zm-49.765 235.88c-3.471.348-6.774.67-9.95.974 18.759-27.952 21.109-61.02 15.745-94.105 10.536-25.869 34.971-42.496 62.723-42.496 16.474 0 31.578 6.688 44.935 19.847.173 3.34.275 6.766.275 10.303 0 21.365-11.186 45.813-29.923 65.4-21.621 22.602-51.383 36.835-83.805 40.077zm163.548 2.075c-7.653 4.656-30.637 10.229-62.836-2.013-9.902-3.766-18.589-7.818-26.301-12.273 18.421-13.146 32.608-29.747 42.008-47.629 7.59 7.122 17.209 12.867 28.322 16.851 16.999 6.107 27.796 16.174 28.884 26.93.726 7.187-2.946 13.797-10.077 18.134z"/><path d="m332.276 82.639c-11.798 0-21.365 9.53-21.401 21.338-.013 4.142 3.335 7.51 7.478 7.522 4.199 0 7.51-3.378 7.522-7.478.01-3.529 2.871-6.383 6.402-6.383 3.546 0 6.417 2.875 6.405 6.424-.013 4.142 3.334 7.51 7.477 7.523 4.199 0 7.51-3.378 7.523-7.477.039-11.845-9.538-21.469-21.406-21.469z"/><path d="m390.271 82.639c-12.135 0-21.433 9.776-21.471 21.337-.013 4.142 3.334 7.51 7.477 7.523 4.199 0 7.511-3.377 7.523-7.477.012-3.58 2.927-6.392 6.424-6.384 3.531.011 6.396 2.894 6.385 6.425-.013 4.142 3.335 7.51 7.478 7.522 4.199 0 7.51-3.378 7.522-7.478.036-11.799-9.536-21.431-21.338-21.468z"/><path d="m197.805 408.951c14.667-6.162 26.466-15.353 34.123-26.58 15.266-22.404 13.938-54.807 13.874-56.175-.193-4.134-3.687-7.352-7.833-7.137-4.134.188-7.334 3.694-7.151 7.829.01.22.66 17.066-4.639 33.123-51.337 5.59-96.456-1.191-134.203-20.157-23.684-41.893-26.453-91.338-24.626-125.327.21-4.028-.683-8.053-2.581-11.638-4.703-8.887-16.783-26.284-44.85-42.951-4.813-2.858-6.832-8.832-2.662-12.614 15.426-13.982 44.024-19.745 70.36.643 8.188 6.341 19.531 6.384 27.579.109 26.347-20.504 54.995-14.781 70.463-.786 3.882 3.512 2.825 9.968-2.01 12.323-19.944 9.705-33.714 26.072-41.757 38.102-5.368 8.045-5.039 18.581.822 26.223 13.985 18.196 35.025 29.366 59.243 31.452 4.13.349 7.761-2.703 8.116-6.829.355-4.127-2.702-7.761-6.829-8.116-25.601-2.204-40.58-15.164-48.632-25.642-1.948-2.54-2.045-6.062-.247-8.757 5.739-8.582 18.027-24.273 35.852-32.946 14.342-6.992 17.276-26.286 5.505-36.934-24.408-22.081-61.309-22.053-89.743.076-2.642 2.062-6.415 2.005-9.177-.136-28.425-22.003-65.277-21.96-89.619.105-11.673 10.583-8.506 28.556 5.078 36.623 25.841 15.346 36.058 31.037 39.251 37.071.63 1.191.927 2.519.859 3.828-4.852 90.293 25.369 171.38 108.961 204.952-11.414 17.816-6.118 39.198 12.959 49.462 6.913 3.727 17.214 5.901 28.263 5.969 4.256 0 7.52-3.4 7.545-7.454.025-4.143-3.313-7.521-7.455-7.546-10.063-.061-17.569-2.195-21.242-4.175-7.348-3.954-11.363-10.36-11.017-17.577.52-10.795 10.77-21.417 27.42-28.413zm-89.663-45.86c35.319 12.722 72.888 15.753 110.003 12.749-6.051 7.974-15.037 14.614-26.151 19.284-7.748 3.255-14.41 7.191-19.846 11.648-27.905-10.231-48.661-25.607-64.006-43.681z"/></g></g></svg>