<svg id="Capa_1" enable-background="new 0 0 511.941 511.941" height="512" viewBox="0 0 511.941 511.941" width="512" xmlns="http://www.w3.org/2000/svg"><g><g><g fill="#91d4f2"><circle cx="444.204" cy="286.088" r="15.059"/><circle cx="338.792" cy="286.088" r="15.059"/><circle cx="431.105" cy="195.032" r="15.059"/><circle cx="326.542" cy="181.683" r="15.059"/><circle cx="435.046" cy="82.797" r="15.059"/><circle cx="331.266" cy="101.272" r="15.059"/></g><path d="m406.649 504.441h-112.95l-36.52-41.69c.25-.56.5-1.11.77-1.66 9.78-19.75 26.01-35.73 45.96-45.16 2.27-1.08 4.59-2.07 6.96-2.97 4.15-1.58 8.43-2.89 12.82-3.9 7.09-1.64 14.47-2.5 22.05-2.5 38.49 0 71.79 22.22 87.78 54.53 9.87 19.96-4.61 43.35-26.87 43.35z" fill="#df8a57"/><path d="m338.039 504.441h-44.34l-36.52-41.69c.25-.56.5-1.11.77-1.66 9.78-19.75 26.01-35.73 45.96-45.16 25.69 5.27 47.4 21.43 60.1 43.46 11.54 20.03-2.85 45.05-25.97 45.05z" fill="#c76d33"/><path d="m229.039 469.231-15 1.31c-8.79-100.42-49.09-139.71-77.15-155.01-42.51-23.17-72.81-63.99-80.64-111.76-3.92-23.89-3.96-45.93-3.17-61.15.37-7.08 9.45-9.74 13.58-3.98 5.43 7.58 10.66 14.41 15.74 20.64 45.71 56.14 78.15 63.39 115.23 123.74 5.36 8.72 9.88 18.08 13.68 27.79 27.5 70.09 17.73 158.42 17.73 158.42z" fill="#7dce5c"/><path d="m229.039 469.231-15 1.31c-8.79-100.42-49.09-139.71-77.15-155.01-42.51-23.17-72.81-63.99-80.64-111.76-3.92-23.89-3.96-45.93-3.17-61.15.37-7.08 9.45-9.74 13.58-3.98 5.43 7.58 10.66 14.41 15.74 20.64.95 39.33 16.68 122.85 128.91 151.53 27.5 70.09 17.73 158.42 17.73 158.42z" fill="#59c230"/><path d="m258.319 427.801-14.78-2.89c19.35-98.92-8.5-147.84-31.24-170.3-34.43-34.03-52.25-81.64-46.56-129.71 2.85-24.05 8.91-45.24 13.88-59.64 2.31-6.71 11.78-6.75 14.15-.07.58 1.64 1.16 3.25 1.74 4.83 30.72 83.51 63.52 95.73 84.16 170.16 2.19 7.91 3.75 16.06 4.78 24.33 9.58 76.55-26.13 163.29-26.13 163.29z" fill="#7dce5c"/><path d="m258.319 427.801-14.78-2.89c19.35-98.92-8.5-147.84-31.24-170.3-34.43-34.03-52.25-81.64-46.56-129.71 2.85-24.05 8.91-45.24 13.88-59.64 2.31-6.71 11.78-6.75 14.15-.07.58 1.64 1.16 3.25 1.74 4.83-6.31 42.88-19.221 145.418 88.94 194.49 9.58 76.55-26.13 163.29-26.13 163.29z" fill="#59c230"/><path d="m293.699 504.441h-104.75c-23.12 0-37.5-25.02-25.96-45.05 15.27-26.5 43.6-44.52 76.2-45.28.71-.01 1.43-.02 2.14-.02 33.49 0 62.73 18.22 78.34 45.3 11.54 20.03-2.85 45.05-25.97 45.05z" fill="#df8a57"/><path d="m272.719 504.441h-83.77c-23.12 0-37.5-25.02-25.96-45.05 15.27-26.5 43.6-44.52 76.2-45.28-13.802 12.221-38.22 68.051 33.53 90.33z" fill="#c76d33"/><circle cx="368.91" cy="30.088" fill="#91d4f2" r="22.588"/></g><path d="m398.817 345.848c21.757-2.637 40.427-16.906 48.603-37.434 10.92-1.566 19.342-10.979 19.342-22.325 0-12.439-10.12-22.559-22.559-22.559s-22.559 10.12-22.559 22.559c0 8.128 4.322 15.264 10.787 19.235-5.981 12.765-17.54 21.905-31.159 24.9 2.131-22.434-1.622-45.287-11.237-66.11-2.378-5.144-4.342-10.43-5.909-15.809 19.784-1.746 37.585-13.095 47.352-30.723 10.989-.16 20.555-8.349 22.002-19.693 1.575-12.338-7.181-23.658-19.52-25.233-5.978-.765-11.894.847-16.66 4.534-11.354 8.783-11.9 26.079-.311 35.419-7.905 12.457-21.391 20.211-36.123 20.888-3.124-20.711-.508-42.139 7.894-61.759 3.205-7.444 5.641-12.896 7.992-21.062 22.693-5.3 40.625-23.607 45.364-46.48 17.737-5.822 20.943-29.36 5.837-39.898-4.941-3.448-10.929-4.766-16.862-3.709-12.246 2.18-20.436 13.917-18.256 26.163 1.423 7.994 6.925 14.244 13.975 17.025-3.67 13.541-13.565 24.643-26.371 29.998 3.679-24.664.115-50.13-10.38-72.899l-3.021-6.791c7.259-5.498 11.959-14.207 11.959-23.995.001-16.592-13.496-30.09-30.087-30.09s-30.088 13.498-30.088 30.088c0 18.247 16.193 32.381 34.372 29.778l3.182 7.152c10.541 23.263 12.822 47.444 8.235 70.193-15.141.486-29.63-6.729-38.371-19.079 5.66-5.043 8.659-12.82 7.235-20.815-2.181-12.246-13.914-20.436-26.164-18.255-12.246 2.181-20.436 13.917-18.255 26.164 1.974 11.09 11.773 18.968 22.954 18.575 10.536 16.96 28.865 27.499 48.528 28.371-1.635 4.654-3.413 8.668-5.563 13.655-8.946 20.89-12.102 43.591-9.504 65.724-14.084-4.319-25.173-15.219-29.691-29.317 6.913-3.122 12.11-9.636 13.139-17.695 1.579-12.367-7.151-23.656-19.521-25.234-12.369-1.578-23.655 7.152-25.233 19.521-1.437 11.254 5.723 21.656 16.355 24.594 5.878 22.878 24.491 40.136 47.893 44.23 1.936 7.768 4.602 15.389 8.007 22.754 8.804 19.064 12.046 40.057 9.7 60.568-15.531-1.833-28.942-11.521-35.553-25.652 6.464-3.971 10.784-11.106 10.784-19.233 0-12.439-10.12-22.559-22.559-22.559s-22.559 10.12-22.559 22.559c0 11.346 8.421 20.758 19.341 22.325 8.079 20.313 26.387 34.471 47.861 37.333-2.927 11.658-5.124 15.588-21.806 54.529-26.461-4.054-53.361 2.055-75.473 17.249-4.502-2.324-9.184-4.305-14.008-5.913 11.668-35.113 32.021-111.149 14.748-173.434-21.363-77.041-55.311-88.895-86.059-175.493-4.745-13.375-23.694-13.271-28.308.13-4.853 14.062-11.262 36.094-14.238 61.205-6.03 50.943 13.143 100.745 48.738 135.928 10.929 10.792 25.332 30.593 31.883 63.632.805 4.063 4.758 6.704 8.815 5.898 4.063-.806 6.704-4.752 5.898-8.815-7.292-36.774-23.632-59.119-36.054-71.385-33.569-33.18-49.747-78.191-44.385-123.493 2.812-23.725 8.877-44.603 13.522-58.06 31.497 88.692 65.135 100.181 85.733 174.461 16.373 59.039-3.763 132.614-14.886 165.77-1.139-.193-2.284-.365-3.432-.518 2.588-17.837 3.72-34.827 3.343-50.576-.099-4.141-3.56-7.4-7.677-7.319-4.141.099-7.417 3.537-7.319 7.677.366 15.303-.788 31.91-3.396 49.406-.497.011-.995.022-1.491.041-2.017-37.865-9.646-88.639-33.565-127.574-21.653-35.237-41.672-52.785-62.866-71.363-3.115-2.73-7.853-2.418-10.584.696-2.73 3.115-2.418 7.854.696 10.584 20.317 17.81 39.508 34.631 59.973 67.936 22.49 36.608 29.573 85.291 31.416 121.462-3.789.741-7.516 1.709-11.168 2.884-16.615-61.413-47.529-89.54-71.008-102.346-41.446-22.59-69.449-61.367-76.829-106.389-3.866-23.561-3.814-45.313-3.076-59.531 14.212 19.846 28.346 36.414 44.48 52.136 2.966 2.891 7.714 2.83 10.605-.137 2.891-2.966 2.83-7.715-.137-10.605-15.489-15.095-29.079-31.028-42.769-50.149-8.25-11.508-26.424-6.213-27.165 7.961-.772 14.865-.833 37.818 3.258 62.751 8.315 50.729 40.603 93.233 84.45 117.132 21.113 11.515 49.074 37.309 64.2 94.893-16.885 8.474-31.289 21.773-41.008 38.639-14.426 25.03 3.559 56.293 32.46 56.293h170.429c4.142 0 7.5-3.358 7.5-7.5s-3.358-7.5-7.5-7.5h-35.688c9.145-12.298 10.02-28.199 2.473-41.293-6.677-11.587-15.57-21.486-25.953-29.3 44.622-26.09 103.095-9.399 126.585 38.067 7.425 15.014-3.493 32.525-20.146 32.525h-12.27c-4.142 0-7.5 3.358-7.5 7.5s3.358 7.5 7.5 7.5h12.27c27.816 0 45.93-29.226 33.591-54.177-12.977-26.223-35.991-45.664-63.742-54.105 16.102-37.575 19.037-42.943 22.322-57.807zm45.387-67.319c4.168 0 7.559 3.391 7.559 7.559s-3.391 7.559-7.559 7.559-7.559-3.391-7.559-7.559 3.391-7.559 7.559-7.559zm-20.597-84.454c.852-6.667 9.363-8.985 13.477-3.668 1.235 1.597 1.775 3.579 1.52 5.582-.528 4.134-4.298 7.069-8.455 6.541-4.145-.53-7.071-4.31-6.542-8.455zm5.24-115.603c3.838-5.5 12.46-3.627 13.641 3 0 .318.686 2.886-1.243 5.65-2.39 3.426-7.098 4.265-10.524 1.874-3.427-2.391-4.265-7.098-1.874-10.524zm-75.025-48.384c0-8.32 6.769-15.088 15.088-15.088s15.088 6.769 15.088 15.088-6.769 15.088-15.088 15.088c-8.32.001-15.088-6.768-15.088-15.088zm-29.999 72.509c-.823-4.624 2.744-8.885 7.445-8.885 6.057 0 9.701 6.861 6.196 11.885-3.872 5.551-12.472 3.561-13.641-3zm-4.779 78.129c.852-6.668 9.364-8.983 13.477-3.667 4.096 5.296-.265 12.967-6.936 12.124-4.135-.529-7.069-4.322-6.541-8.457zm12.189 105.362c0-4.168 3.391-7.559 7.559-7.559s7.559 3.391 7.559 7.559-3.391 7.559-7.559 7.559-7.559-3.391-7.559-7.559zm-18.065 177.049c8.647 15.007-2.078 33.804-19.478 33.804h-104.74c-17.33 0-28.138-18.752-19.464-33.804 14.769-25.628 42.297-41.549 71.841-41.549s57.072 15.921 71.841 41.549z"/></g></svg>