<svg id="Capa_1" enable-background="new 0 0 511.926 511.926" height="512" viewBox="0 0 511.926 511.926" width="512" xmlns="http://www.w3.org/2000/svg"><g><g><path d="m218.32 206.083v263.53h-75.29c-15.57 3.33-29.49 4.53-41.92 3.89-5.35-.26-10.43-.88-15.24-1.8-3.24-.62-6.35-1.39-9.35-2.3-52.26-15.63-69.02-71.96-69.02-127.79 0-54.09 27.53-100.78 68.37-122.51 13.97-7.44 29.5-11.96 46.02-12.86.52-.02 1.05-.05 1.58-.07 1.49-.06 2.99-.09 4.5-.09z" fill="#c76d33"/><path d="m218.32 206.083v263.53h-75.29c-15.57 3.33-29.49 4.53-41.92 3.89-5.35-.26-10.43-.88-15.24-1.8-3.24-.62-6.35-1.39-9.35-2.3 15.29-11.64 45.99-40.82 45.99-87.54 0-61.98-46.28-116.22-46.64-162.76 13.97-7.44 29.5-11.96 46.02-12.86.52-.02 1.05-.05 1.58-.07 1.49-.06 2.99-.09 4.5-.09z" fill="#a05423"/><circle cx="459.264" cy="68.088" fill="#c76d33" r="45.176"/><ellipse cx="421.239" cy="118.211" fill="#df8a57" rx="67.765" ry="82.824" transform="matrix(.553 -.833 .833 .553 89.658 403.641)"/><ellipse cx="369.181" cy="181.3" fill="#c76d33" rx="97.882" ry="112.941" transform="matrix(.707 -.707 .707 .707 -20.068 314.152)"/><path d="m444.21 296.433c0 23.94-11.89 69.29-40.42 110.05-43.22 61.79-124.65 113.03-260.76 63.13l.92-.55 102.47-61.271-94.39-201.71c7.02-36.97 38.77-77.51 86.09-91.06 26.65-7.65 58.24-6.72 93.14 8.24 99.09 42.461 112.95 120.472 112.95 173.171z" fill="#df8a57"/><path d="m403.79 406.484c-43.22 61.79-124.65 113.03-260.76 63.13 0 0 52.7-30.12 52.7-90.35 0-60.24-45.17-112.94-45.17-158.12 0-40.3 33.69-90.7 87.56-106.12-29.32 46.98-84.469 235.916 165.67 291.46z" fill="#c76d33"/><g fill="#fff"><path d="m206.8 204.761c7.472-10.622 24.343-11.626 37.681-2.243s18.094 25.601 10.621 36.223c-7.472 10.622-24.343 11.626-37.681 2.243-13.337-9.383-18.093-25.601-10.621-36.223"/><ellipse cx="361.861" cy="313.842" rx="23.515" ry="29.529" transform="matrix(.575 -.818 .818 .575 -103.032 429.233)"/></g></g><g><path d="m509.827 53.286c-1.163-3.976-5.33-6.253-9.305-5.09-3.976 1.164-6.255 5.33-5.09 9.305 2.737 9.348 1.657 19.353-2.704 27.843-13.736-20.95-35.821-37-60.248-43.781 11.388-11.573 29.235-14.764 44.286-6.843 3.669 1.933 8.202.521 10.13-3.144 1.93-3.666.521-8.201-3.144-10.13-23.988-12.627-53.045-5.082-68.026 16.996-29.08-2.803-55.475 8.351-69.714 29.78-.042.063-.075.129-.114.192-27.008 2.056-51.202 13.921-68.076 34.574-27.709-1.194-54.108 5.897-77.295 21.186-27.154 17.904-47.257 45.983-54.509 74.408h-18.048c-34.817 0-67.229 14.999-91.268 42.233-23.668 26.817-36.702 62.614-36.702 100.798 0 98.028 47.891 155.056 142.466 135.765 29.813 10.755 58.534 17.219 85.395 19.194 4.145.302 7.726-2.811 8.029-6.93.304-4.131-2.799-7.726-6.93-8.029-21.998-1.618-45.394-6.429-69.721-14.328 16.663-13.545 43.99-42.673 43.99-88.021 0-61.724-45.17-115.515-45.17-158.12 0-30.505 20.385-64.44 50.725-84.446 34.239-22.576 76.686-24.899 119.521-6.54 72.945 31.257 108.404 85.646 108.404 166.276 0 24.068-12.238 67.451-39.108 105.823-23.103 32.991-65.243 73.525-134.809 79.271-4.128.341-7.198 3.964-6.857 8.092.341 4.129 3.955 7.195 8.092 6.857 75.364-6.226 120.917-49.995 145.861-85.616 28.734-41.035 41.821-88.081 41.821-114.428 0-9.111-.416-17.868-1.251-26.299 24.506-21.817 34.835-53.263 31.186-86.257 23.663-17.855 33.116-50.155 19.141-83.395 10.325-13.249 13.804-30.936 9.042-47.196zm-321.598 325.978c0 50.741-41.251 78.992-47.996 83.268-37.109 7.715-66.494 3.093-87.348-13.763-24.43-19.75-37.885-57.806-37.885-107.156 0-71.793 49.622-128.03 112.97-128.03h15.446c-.228 2.533-.356 5.057-.356 7.561 0 47.519 45.169 99.645 45.169 158.12zm290.242-212.497c-7.394-28.344-25.008-54.523-49.948-73.116-3.32-2.477-8.02-1.791-10.495 1.53-2.476 3.32-1.791 8.02 1.53 10.495 49.523 36.92 63.394 105.022 28.263 145.794-12.154-65.397-53.198-109.214-113.605-135.1-12.673-5.432-25.334-9.205-37.821-11.363 23.519-22.189 59.119-28.249 94.241-15.128 3.88 1.448 8.2-.521 9.65-4.4 1.45-3.881-.521-8.201-4.4-9.65-10.164-3.797-20.516-6.186-30.813-7.183 12.721-12.34 32.28-17.927 53.413-14.764 28.306 4.219 54.513 23.295 66.766 48.601 11.567 23.894 8.634 48.435-6.781 64.284z"/><path d="m302.141 267.999c-.814.399-1.179-.04-1.396-.303l-7.507-9.096c-2.636-3.194-7.363-3.646-10.559-1.01-3.194 2.637-3.646 7.363-1.01 10.559l7.507 9.096c3.192 3.867 7.69 5.926 12.345 5.926 9.738 0 18.145-8.759 15.938-19.454 16.634-2.369 19.036-25.487 3.176-31.192l-11.097-3.992c-3.895-1.402-8.193.62-9.597 4.519-1.401 3.897.621 8.194 4.519 9.597l11.097 3.992c.32.114.855.308.758 1.211-.099.903-.663.977-1.001 1.02-8.602 1.114-14.41 9.371-12.552 17.845.073.33.195.885-.621 1.282z"/><path d="m260.774 206.492c2.835 1.985 3.526 5.888 1.539 8.726-3.511 5.015.166 11.803 6.137 11.803 2.364 0 4.691-1.115 6.15-3.199 6.726-9.605 4.383-22.891-5.223-29.616-9.606-6.726-22.893-4.383-29.616 5.223-2.376 3.394-1.551 8.069 1.842 10.445 3.396 2.377 8.07 1.552 10.445-1.842 1.976-2.822 5.87-3.535 8.726-1.54z"/><path d="m364.947 296.239c3.394 2.376 8.07 1.551 10.445-1.842 6.726-9.605 4.383-22.892-5.222-29.616-9.605-6.725-22.892-4.384-29.616 5.222-2.376 3.394-1.551 8.069 1.842 10.445 3.395 2.377 8.07 1.552 10.445-1.842 3.211-4.587 10.34-2.941 11.302 2.506.29 1.647-.078 3.311-1.038 4.682-2.376 3.394-1.55 8.069 1.842 10.445z"/></g></g></svg>