<svg id="Capa_1" enable-background="new 0 0 511.912 511.912" height="512" viewBox="0 0 511.912 511.912" width="512" xmlns="http://www.w3.org/2000/svg"><g><g><path d="m493.567 378.735c-2.65 2.19-5.33 4.31-8.05 6.37-65.85 50.07-152 65.09-231.44 40.31l-37.59 31.81c-7.62 6.45-18.91 5.98-25.96-1.08-5.36-5.36-7.06-13.37-4.34-20.45l6.9-17.93c3.66-9.52.34-20.31-8.04-26.12-.19-.13-.39-.27-.59-.41-8.33-5.81-19.55-5.17-27.2 1.51l-123.08 107.71c-6.38 5.58-15.99 5.26-21.99-.73-5.99-6-6.31-15.61-.73-21.99l107.71-123.08c6.68-7.65 7.32-18.87 1.51-27.2-.14-.2-.28-.4-.41-.59-5.81-8.38-16.6-11.7-26.12-8.04l-17.93 6.9c-7.08 2.72-15.09 1.02-20.45-4.34-7.06-7.05-7.53-18.34-1.08-25.96l31.81-37.59c-25.78-82.66-8.49-172.67 46.68-239.49 6.32-7.64 15.83-11.47 25.3-10.77 3.47.26 6.93 1.12 10.24 2.64 29.17 13.36 89 32.55 158.41 8.37 15.11-5.25 31.77 2.06 37.76 16.89 18.14 44.93 66.57 93.39 111.55 111.55 14.83 5.99 22.14 22.65 16.89 37.76-24.18 69.41-4.99 129.24 8.37 158.41 5.64 12.31 2.31 26.91-8.13 35.54z" fill="#77728d"/><path d="m485.517 385.105c-65.85 50.07-152 65.09-231.44 40.31l-37.59 31.81c-7.62 6.45-18.91 5.98-25.96-1.08-5.36-5.36-7.06-13.37-4.34-20.45l6.9-17.93c3.66-9.52.34-20.31-8.04-26.12-.19-.13-.39-.27-.59-.41-8.33-5.81-19.55-5.17-27.2 1.51l-123.08 107.71c-6.38 5.58-15.99 5.26-21.99-.73-5.99-6-6.31-15.61-.73-21.99l107.71-123.08c6.68-7.65 7.32-18.87 1.51-27.2-.14-.2-.28-.4-.41-.59-5.81-8.38-16.6-11.7-26.12-8.04l-17.93 6.9c-7.08 2.72-15.09 1.02-20.45-4.34-7.06-7.05-7.53-18.34-1.08-25.96l31.81-37.59c-25.78-82.66-8.49-172.67 46.68-239.49 6.32-7.64 15.83-11.47 25.3-10.77-30.53 67.684-95.94 368.73 327.04 377.53z" fill="#5c576e"/><g><g><path d="m308.419 129.599c-9.497 9.507-26.873 7.545-38.811-4.38-11.938-11.926-13.916-29.3-4.419-38.807s26.874-7.546 38.812 4.38c11.937 11.925 13.915 29.3 4.418 38.807z" fill="#ffa1ac"/><path d="m382.351 203.456c-9.497 9.507-7.518 26.881 4.419 38.807 11.938 11.926 29.314 13.887 38.811 4.38s7.519-26.881-4.419-38.807-29.314-13.887-38.811-4.38z" fill="#ffa1ac"/><path d="m374.347 179.912c13.081-13.095 4.824-23.801-6.878-35.492-11.702-11.69-22.417-19.936-35.499-6.842-13.081 13.094-14.199 33.186-2.497 44.876 11.702 11.691 31.793 10.553 44.874-2.542z" fill="#fff"/></g></g></g><g><path d="m321.65 429.46c-17.252-.63-34.371-3.055-51.074-7.21 10.501-7.891 25.272-18.65 32.757-22.539 3.676-1.91 5.107-6.438 3.197-10.113-1.91-3.676-6.44-5.105-10.113-3.197-24.422 12.691-84.776 65.1-84.776 65.1-4.604 3.897-11.548 3.611-15.812-.659-3.26-3.26-4.297-8.149-2.643-12.453l6.899-17.932c4.917-12.789.489-27.171-10.799-34.997-12.511-8.705-27.244-6.851-36.971 1.642l-123.075 107.707c-3.395 2.97-8.559 2.798-11.745-.383-3.19-3.195-3.362-8.358-.394-11.752l60-68.57c2.728-3.117 2.411-7.855-.706-10.583-3.116-2.728-7.854-2.411-10.583.706l-60.001 68.57c-8.145 9.313-7.676 23.468 1.077 32.235 8.76 8.746 22.917 9.21 32.229 1.066l123.072-107.705c5.079-4.435 12.471-4.848 18.021-.978 0 0 10.198 6.417 5.877 17.655l-6.9 17.933c-3.778 9.833-1.408 20.998 6.033 28.44 9.734 9.746 25.596 10.408 36.112 1.506l34.471-29.17c21.203 6.274 43.151 9.862 65.301 10.67 4.123.156 7.618-3.082 7.769-7.221.15-4.139-3.083-7.617-7.223-7.768z"/><path d="m508.516 340.072c-13.012-28.41-31.368-86.042-8.104-152.825 6.599-18.994-2.698-39.716-21.168-47.176-42.907-17.318-90.084-64.495-107.402-107.404-7.46-18.469-28.188-27.765-47.183-21.163-15.292 5.329-31.104 8.786-47.001 10.275-4.124.386-7.154 4.043-6.769 8.167.387 4.125 4.061 7.151 8.167 6.768 17.102-1.602 34.104-5.318 50.532-11.042 11.434-3.973 23.883 1.569 28.344 12.612 18.966 46.992 68.705 96.731 115.696 115.697 11.045 4.461 16.586 16.912 12.615 28.339-24.988 71.733-5.316 133.542 8.635 164.001 4.226 9.225 1.722 20.178-6.087 26.633-37.972 31.357-84.018 50.524-133.16 55.43-4.122.412-7.129 4.086-6.718 8.208.412 4.128 4.095 7.131 8.208 6.718 52.113-5.203 100.947-25.532 141.224-58.792 13.04-10.781 17.221-29.057 10.171-44.446z"/><path d="m78.91 332.725 17.929-6.899c6.313-2.427 13.413-.244 17.235 5.269 4.715 6.909 3.545 13.931-.552 18.622l-24.6 28.12c-2.728 3.118-2.411 7.856.706 10.583 3.119 2.727 7.856 2.411 10.583-.707l24.604-28.125c8.975-10.277 9.803-25.255 1.996-36.448-8.743-12.578-23.243-15.974-35.358-11.315l-17.928 6.898c-4.303 1.655-9.195.618-12.46-2.646-4.265-4.259-4.553-11.202-.653-15.808 10.11-11.947 51.649-58.893 65.099-84.775 1.91-3.676.479-8.203-3.197-10.113-3.674-1.91-8.203-.48-10.113 3.197-3.891 7.488-14.657 22.269-22.549 32.77-19.128-76.501-1.165-157.097 49.306-218.225 6.459-7.813 17.412-10.316 26.636-6.09 16.854 7.718 43.928 17.45 77.195 19.98 4.144.315 7.732-2.78 8.047-6.91.313-4.13-2.779-7.733-6.91-8.047-31.059-2.362-56.344-11.451-72.085-18.66-15.39-7.051-33.666-2.869-44.446 10.173-56.078 67.919-73.948 159.072-49.263 242.541l-29.169 34.47c-8.903 10.518-8.242 26.381 1.501 36.109 7.445 7.445 18.61 9.816 28.446 6.036z"/><path d="m351.21 251.362c-.993-4.006-5.033-6.459-9.055-5.481-4.024.98-6.492 5.037-5.512 9.062 0 0 7.739 30.409 39.448 41.95 20.762 7.557 43.425 3.328 57.184-6.779 3.325-2.444 4.035-7.103 1.609-10.442-2.427-3.338-7.11-4.078-10.461-1.668 0 0-19.227 13.52-43.201 4.793-23.926-8.708-30.012-31.435-30.012-31.435z"/><path d="m406.902 337.819c3.754-1.751 5.378-6.213 3.627-9.967s-6.212-5.378-9.967-3.628c-.164.077-16.695 7.611-34.792 1.024-17.807-6.481-26.006-23.175-26.006-23.175-1.759-3.736-6.21-5.348-9.955-3.602-3.754 1.75-5.378 6.213-3.627 9.967 0 0 10.587 22.216 34.457 30.905 15.349 5.587 33.76 4.3 46.263-1.524z"/><path d="m229.115 130.69c-8.728-23.979 4.237-42.428 4.771-43.171 2.452-3.338 1.735-8.032-1.603-10.485s-8.032-1.736-10.485 1.603c-.753 1.025-18.32 25.475-6.779 57.184s40.715 39.147 41.95 39.448c3.992.973 8.032-1.458 9.033-5.479.998-4.004-1.446-8.067-5.445-9.086-.923-.235-22.714-6.034-31.442-30.014z"/><path d="m184.06 101.383c-3.752-1.75-8.216-.127-9.967 3.627-.422.903-10.215 22.391-1.526 46.262 8.688 23.871 30.003 34.037 30.905 34.458 3.751 1.748 8.179.123 9.938-3.605 1.761-3.735.157-8.198-3.57-9.976-.166-.079-16.668-8.121-23.178-26.008-6.51-17.886.962-34.654 1.024-34.792 1.752-3.753.128-8.216-3.626-9.966z"/><path d="m372.77 139.115c-8.601-8.591-26.493-26.469-46.105-6.837-7.632 7.639-12.15 17.529-12.725 27.848-1.187 21.307 14.732 37.874 35.644 37.874 10.619 0 21.597-4.307 30.068-12.788 16.43-16.444 8.019-31.212-6.882-46.097zm-37.996 38.034c-14.441-14.425.928-38.775 10.568-38.775 3.989 0 8.8 3.334 16.826 11.353 4.816 4.811 9.471 9.867 10.906 14.248 3.461 10.561-22.85 28.608-38.3 13.174z"/><path d="m302.519 86.28c-2.928 2.93-2.926 7.679.005 10.607 2.93 2.928 7.679 2.925 10.606-.005 6.546-6.55 16.536 3.378 9.965 9.955-4.734 4.74-1.314 12.8 5.307 12.8 9.402 0 18.045-20.631 5.29-33.372-8.609-8.603-22.557-8.609-31.173.015z"/><path d="m415.068 209.317c2.928 2.926 7.677 2.927 10.606-.005 8.612-8.62 8.604-22.561-.015-31.173-8.584-8.574-22.531-8.635-31.174.016-2.927 2.93-2.924 7.679.006 10.606 2.932 2.927 7.68 2.925 10.607-.006 6.487-6.495 16.583 3.328 9.964 9.955-2.926 2.931-2.924 7.68.006 10.607z"/></g></g></svg>