<svg id="Capa_1" enable-background="new 0 0 512.168 512.168" height="512" viewBox="0 0 512.168 512.168" width="512" xmlns="http://www.w3.org/2000/svg"><g><g><path d="m188.409 84.127-15.64 13.12-11.58 9.72-17.46 14.65-11.46 9.62-41.92 35.17c-3.24-24.771-17.75-41.19-34.78-52.051-12.09-7.699-25.45-12.6-36.94-15.71-7.72-2.079-11.77-9.26-11.04-16.14.39-3.8 2.23-7.49 5.72-10.2 1.95-1.51 4-3.05 6.15-4.59 3.15-2.26 6.5-4.55 10.05-6.79 8.41-5.31 17.88-10.39 28.12-14.43 28.08-11.101 62-14.4 95.98 6.66h.01c11.671 7.23 23.34 17.331 34.79 30.971z" fill="#91d4f2"/><path d="m188.409 84.127-15.64 13.12-11.58 9.72-17.46 14.65-11.46 9.62-41.92 35.17c-3.24-24.771-17.75-41.19-34.78-52.051 25.59-29.489 59.53-52.279 98.04-61.199h.01c11.671 7.229 23.34 17.33 34.79 30.97z" fill="#59c2e8"/><path d="m286.399 243.777s0 22.199-11.49 43.609c-8.04 14.98-21.71 29.58-44.94 35.92-11.19 3.05-21.53-7.239-18.42-18.42 1.03-3.71 2-7.77 2.79-12.069 2.74-14.881 3.31-32.671-3.24-49.04z" fill="#91d4f2"/><path d="m286.399 243.777s0 22.199-11.49 43.609c-10.64 1.82-22.5 2.82-35.73 2.82-8.38 0-16.74.87-24.84 2.61 2.74-14.881 3.31-32.671-3.24-49.04h75.3z" fill="#59c2e8"/><path d="m500.77 86.936-131.68 74.551c-2 1.13-3.67 2.67-4.93 4.5l-8.65 7.06 4.93 10.47c-4.67 30.04-26.69 87.63-126.86 87.63-24.4 0-48.57 7.37-66.78 22.08-10.12 8.16-18.4 18.58-23.86 31.261-3.79 8.8 1.7 18.949 11.13 20.63 38.46 6.85 70.37 36.989 77.55 77.7 1.88 10.59-7.77 19.75-18.38 17.17-59.68-14.551-126.5-4.41-180.93 31.899-9.02 6.021-21.25.84-23.14-9.85-7.3-41.431 13.23-82.03 49.34-101.22 8.49-4.511 10.48-15.811 4.16-23.051-15.61-17.859-32.38-45.47-32.38-81.68 0-36.46 13.8-74.99 37.21-107.66 50.52-70.49 145.84-113.68 243.98-49.87 13.83 8.99 30.78 11.84 46.81 7.94l137.06-33.391c8.469-2.049 13.029 9.571 5.42 13.831z" fill="#91d4f2"/><path d="m213.24 439.987c-59.68-14.551-126.5-4.41-180.93 31.899-9.02 6.021-21.25.84-23.14-9.85-7.3-41.431 13.23-82.03 49.34-101.22 8.49-4.511 10.48-15.811 4.16-23.051-15.61-17.859-32.38-45.47-32.38-81.68 0-36.46 13.8-74.99 37.21-107.66-7.71 35.87-17.36 132.69 99.3 144.8-10.12 8.16-18.4 18.58-23.86 31.261-3.79 8.8 1.7 18.949 11.13 20.63 38.46 6.85 70.37 36.989 77.55 77.7 1.88 10.591-7.771 19.751-18.38 17.171z" fill="#59c2e8"/><g><g><ellipse cx="261.77" cy="163.853" fill="#fff" rx="28.919" ry="23.03" transform="matrix(.929 -.371 .371 .929 -42.126 108.909)"/></g></g></g><g><path d="m511.071 74.915c-2.813-7.169-10.007-10.905-17.497-9.096l-85.01 20.711c-4.024.98-6.492 5.038-5.512 9.063.981 4.024 5.041 6.494 9.063 5.512l84.959-20.694-131.682 74.552c-5.534 3.135-9.395 8.361-10.814 14.414-4.783 4.041-12.174 3.718-16.541-1.302-2.721-3.126-7.458-3.453-10.581-.735-3.125 2.719-3.454 7.456-.735 10.581 6.25 7.183 15.98 10.648 25.615 8.681-5.877 30.395-29.463 77.046-118.756 77.046-44.772 0-82.143 22.176-97.528 57.874-5.703 13.239 2.508 28.451 16.703 30.98 36.34 6.472 65.065 35.254 71.481 71.629.937 5.27-3.864 9.869-9.22 8.571-63.985-15.6-132.095-3.589-186.87 32.947-4.528 3.022-10.642.45-11.59-4.912-2.59-14.706-1.416-29.884 3.397-43.893 1.346-3.917-.739-8.184-4.656-9.529-3.919-1.348-8.184.738-9.53 4.656-5.636 16.404-7.013 34.167-3.982 51.372 2.838 16.051 21.225 23.77 34.687 14.783 51.291-34.212 115.073-45.456 174.994-30.852 15.853 3.864 30.368-9.851 27.541-25.76-7.503-42.541-41.108-76.21-83.621-83.781-4.679-.834-7.433-5.927-5.558-10.277 10.023-23.258 31.46-39.699 58.526-45.981-.635 6.879-1.979 14.047-4.03 21.402-4.661 16.755 10.764 32.258 27.621 27.665 35.802-9.775 51.025-37.021 57.487-59.131 68.851-20.238 78.394-77.294 79.555-97.322.149-2.542 1.57-4.813 3.798-6.075l131.647-74.532c6.722-3.764 9.451-11.398 6.639-18.567zm-283.074 241.155c-5.584 1.526-10.771-3.606-9.223-9.17 2.663-9.553 4.265-18.886 4.798-27.819 11.845-1.019 25.699.462 48.622-3.641-6.547 16.389-19.311 33.835-44.197 40.63z"/><path d="m16.674 105.887c16.008 4.321 37.508 12.819 51.654 28.997-30.743 38.645-45.538 83.012-45.538 121.202 0 39.217 18.616 68.748 34.229 86.611 3.149 3.608 2.194 9.253-2.029 11.496-11.694 6.215-21.969 14.537-30.542 24.737-2.665 3.171-2.255 7.901.916 10.566 3.17 2.664 7.903 2.256 10.567-.916 7.33-8.721 16.11-15.834 26.098-21.142 12.733-6.766 15.809-23.701 6.288-34.609-13.927-15.932-30.527-42.18-30.527-76.743 0-61.901 42.46-129.869 100.961-161.613 53.668-29.122 113.56-25.439 168.64 10.371 15.474 10.06 34.669 13.319 52.676 8.938l17.96-4.38c4.023-.981 6.49-5.039 5.509-9.063-.981-4.023-5.031-6.487-9.063-5.509l-17.955 4.379c-13.999 3.404-28.926.875-40.95-6.941-44.09-28.666-91.12-38.319-136.296-28.727-11.251-10.506-23.22-18.627-35.61-24.146-3.785-1.688-8.218.017-9.903 3.8-1.686 3.784.016 8.218 3.799 9.902 8.299 3.696 16.43 8.774 24.278 15.137-6.192 2.024-12.338 4.408-18.422 7.177-21.835-13.771-44.428-22.627-68.383-26.757 10.216-2.649 20.976-3.959 32.026-3.205 4.131.268 7.712-2.838 7.995-6.971.283-4.132-2.838-7.712-6.97-7.994-40.269-2.764-76.26 17.998-99.369 35.895-14.687 11.392-9.989 34.668 7.961 39.508zm61.466 17.475c-16.556-17.907-40.03-27.225-57.559-31.957-4.142-1.117-6.186-5.137-5.428-8.813 28.655.745 56.655 8.52 81.731 22.652-6.565 5.614-12.832 11.656-18.744 18.118zm49.586-39.885c-6.247 3.577-12.321 7.498-18.187 11.766-23.965-14.525-50.614-23.567-78.17-26.597 4.076-2.656 8.411-5.257 12.968-7.705 30.266.28 57.067 7.49 83.389 22.536z"/><path d="m265.788 128.508c3.207-1.282 6.86.283 8.144 3.49 1.538 3.847 5.901 5.719 9.748 4.18 3.847-1.538 5.718-5.902 4.18-9.748-4.354-10.887-16.751-16.203-27.641-11.85-10.887 4.354-16.202 16.754-11.849 27.641 1.173 2.934 3.989 4.718 6.966 4.718 5.269 0 8.937-5.344 6.962-10.286-1.284-3.208.283-6.861 3.49-8.145z"/></g></g></svg>