<svg id="Capa_1" enable-background="new 0 0 511.975 511.975" height="512" viewBox="0 0 511.975 511.975" width="512" xmlns="http://www.w3.org/2000/svg"><g><g><path d="m29.55 122.388c-12.703-6.738-26.645 6.655-20.532 19.67 13.983 29.768 30.174 74.398 30.174 121.459s-16.191 91.693-30.174 121.46c-6.113 13.015 7.829 26.408 20.532 19.67 39.934-21.183 95.023-64.323 95.023-141.13s-55.089-119.946-95.023-141.129z" fill="#423e4f"/><path d="m165.605 230.367c-2.41-15.519-16.558-32.36-25.91-42.027-3.955-4.088-2.085-10.906 3.394-12.433 17.353-4.836 49.851-7.554 69.367 30.317z" fill="#423e4f"/><path d="m368.945 165.639h-97.88c15.3-9.181 23.14-25.83 27.05-42.351 2.17-9.18 3.14-18.319 3.5-26.12.52-11.199 12.69-17.96 22.39-12.37 12.24 7.061 26.65 18.83 35.78 37.79 5.55 11.511 9.16 25.681 9.16 43.051z" fill="#f1e12b"/><path d="m368.945 165.639h-97.88c15.3-9.181 23.14-25.83 27.05-42.351 10.69-1.81 21.78-2.83 33.18-2.83 9.74 0 19.25.74 28.49 2.13 5.55 11.511 9.16 25.681 9.16 43.051z" fill="#f3c23b"/><path d="m368.945 346.338c0 22.11-5.85 39.03-14.11 51.9-8.9 13.88-20.62 23.05-30.83 28.94-9.7 5.59-21.87-1.171-22.39-12.37-.25-5.261-.76-11.13-1.74-17.21-3.08-19.17-10.74-40.42-28.81-51.261h97.88z" fill="#f1e12b"/><path d="m368.945 346.338c0 22.11-5.85 39.03-14.11 51.9-7.54.53-15.38.81-23.54.81-11.13 0-21.58-.51-31.42-1.449-3.08-19.17-10.74-40.42-28.81-51.261z" fill="#f3c23b"/><path d="m224.213 192.72c-2.41-15.519-16.558-32.36-25.91-42.027-3.955-4.088-2.085-10.906 3.394-12.433 17.353-4.836 49.851-7.554 69.367 30.317z" fill="#5c576e"/><path d="m165.605 296.668c-2.41 15.519-16.558 32.36-25.91 42.027-3.955 4.088-2.085 10.906 3.394 12.433 17.353 4.836 49.851 7.554 69.367-30.317z" fill="#423e4f"/><path d="m224.213 334.315c-2.41 15.519-16.558 32.36-25.91 42.027-3.955 4.088-2.085 10.906 3.394 12.433 17.353 4.836 49.851 7.554 69.367-30.317z" fill="#423e4f"/><path d="m500.065 267.458 3.47 6.66c-6.15 35.51-42.99 76.311-117 90.03l-100.18-108.16 97.97-105.49c66.11 18.78 113.56 69.17 119.51 105.55z" fill="#5c576e"/><path d="m386.535 364.148c-16.54 3.07-34.92 4.78-55.24 4.78-23.72 0-44.41-2.341-62.49-6.03l-49.22-15.01c-7.33-3.04-13.94-6.15-19.92-9.17l-17.64-18.07-25.57-2.47h-.01c-14.66-4.73-28.85-7.141-37.71-8.591-4.16-.68-7.86-3.06-10.15-6.6-14.33-22.27-14.27-56.8.01-78.95 2.28-3.53 5.95-5.91 10.1-6.6 8.1-1.34 23.5-4.181 37.81-8.4h.01l22.45-3.96 19.2-18.16c.01-.01.02-.02.02-.02 31.4-20.641 78.78-43.851 133.11-43.851 18.62 0 36.42 2.721 53.03 7.45-51.95 64.002-50.1 151.762 2.21 213.652z" fill="#77728d"/><path d="m268.805 362.898c-42.9-8.71-71.02-24.94-89.64-35.15-21.04-11.52-46.92-15.95-60.43-18.16-4.16-.68-7.86-3.06-10.15-6.6-14.33-22.27-14.27-56.8.01-78.95 2.28-3.53 5.95-5.91 10.1-6.6 14-2.32 49.8-9.11 64.14-19.79 4.56-3.391 9.69-7.021 15.33-10.73-1.48 1.811-115.458 104.506 70.64 175.98z" fill="#5c576e"/><path d="m335.473 261.073c.708 14.054-11.473 30.614-23.489 31.745-40.92 3.85-56.459 6.213-89.021 17.787-5.53 1.966-16.593-5.169-18.213-11.684-4.746-18.957-16.324-28.685-28.085-38.018-7.627-6.053-3.665-22.136 4.936-25.362 44.9-16.838 83.745-11.915 127.489-5.174 17.111 2.637 25.727 17.674 26.383 30.706z" fill="#5c576e"/><path d="m316.245 262.408c0 8.8-6.86 16.12-15.64 16.59-17.38.931-33.43 3.271-46.65 5.811-11.59 2.229-21 4.609-27.23 6.34-4.07 1.13-8.32-1.32-9.26-5.44-2.76-11.989-11.42-21.08-19.64-27.279-5.33-4.021-3.23-12.46 3.37-13.431 10.77-1.59 20.37-2.729 29.6-3.38 22.11-1.56 42.15-.32 71.45 4.38 8.07 1.289 14 8.249 14 16.409z" fill="#f1e12b"/><path d="m253.955 284.809c-11.59 2.229-21 4.609-27.23 6.34-4.07 1.13-8.32-1.32-9.26-5.44-2.76-11.989-11.42-21.08-19.64-27.279-5.33-4.021-3.23-12.46 3.37-13.431 10.77-1.59 20.37-2.729 29.6-3.38-5.45 12.135-9.194 33.289 23.16 43.19z" fill="#f3c23b"/><g><ellipse cx="413.406" cy="254.281" fill="#ffa1ac" rx="30.834" ry="24.555"/></g></g><g><path d="m466.645 186.577c-3.127-2.718-7.864-2.384-10.581.741-2.717 3.127-2.385 7.864.742 10.581 23.474 20.399 38.515 44.037 40.033 62.577-6.29 5.1-15.706 4.531-21.297-1.887-2.721-3.122-7.459-3.447-10.582-.727-3.123 2.722-3.448 7.459-.727 10.582 7.663 8.793 19.63 12.417 30.829 9.409-4.64 17.729-17.539 35.406-36.437 49.264-14.18 10.397-36.348 22.115-69.139 28.815-46.511-58.01-47.447-137.837-2.412-196.795 17.233 5.39 31.568 12.521 42.418 19.016 3.555 2.128 8.16.971 10.287-2.584s.97-8.16-2.584-10.287c-19.919-11.921-41.384-20.392-63.483-25.168-7.514-33.44-29.04-52.054-45.964-61.815-14.547-8.387-32.845 1.69-33.627 18.523-.575 12.488-2.889 30.164-10.499 44.369-6.506 1.516-12.839 3.292-18.987 5.266-21.977-22.948-49.947-19.602-64.959-15.424-10.978 3.065-14.663 16.73-6.765 24.868 4.031 4.17 9.366 10.128 14.011 16.764-2.82 1.663-5.533 3.32-8.134 4.962-20.805-15.861-44.824-12.538-57.726-8.942-10.953 3.065-14.653 16.694-6.76 24.867 2.752 2.845 6.272 6.693 9.766 11.087-6.643 1.639-13.953 3.178-21.783 4.57-5.572-14.551-13.548-28.333-23.771-41.034-2.597-3.228-7.318-3.737-10.545-1.141s-3.738 7.318-1.141 10.545c9.092 11.297 16.212 23.509 21.214 36.371-2.26 1.618-4.223 3.651-5.755 6.024-15.985 24.807-15.991 62.239-.003 87.086 1.531 2.366 3.492 4.396 5.751 6.011-16.71 42.993-53.524 69.846-81.997 84.95-4.378 2.321-7.692-.328-8.602-1.196-.924-.881-3.774-4.106-1.636-8.658 14.093-29.988 30.892-75.958 30.892-124.649 0-48.693-16.799-94.662-30.892-124.647-2.138-4.554.711-7.78 1.636-8.66.911-.867 4.223-3.521 8.603-1.195 13.718 7.271 26.237 15.597 37.21 24.743 3.182 2.653 7.911 2.226 10.563-.959 2.652-3.182 2.223-7.91-.959-10.563-11.769-9.811-25.156-18.718-39.789-26.475-19.082-10.121-40.012 9.959-30.841 29.486 13.443 28.604 29.468 72.344 29.468 118.27 0 45.924-16.025 89.664-29.469 118.271-9.173 19.543 11.778 39.595 30.847 29.485 30.917-16.4 71.002-45.793 89.238-93.488 5.744.986 13.417 2.438 21.746 4.616-3.505 4.408-7.023 8.264-9.747 11.079-7.901 8.161-4.194 21.807 6.764 24.871 21.026 5.864 42.824 3.591 59.85-10.641 2.551 1.239 5.204 2.486 7.968 3.732-4.949 7.665-11.156 14.701-15.976 19.683-7.909 8.175-4.187 21.82 6.771 24.873 29.92 8.337 56.051-.789 72.504-24.771 4.104.759 8.345 1.445 12.709 2.058 6.627 13.786 8.69 30.245 9.227 41.87.781 16.84 19.086 26.899 33.624 18.522 2.04-1.174 3.908-2.336 5.711-3.553 3.434-2.315 4.341-6.977 2.025-10.411-2.315-3.434-6.977-4.34-10.412-2.024-1.506 1.016-3.079 1.993-4.811 2.99-4.808 2.769-10.893-.601-11.153-6.218-.499-10.808-2.223-25.425-7.191-39.266 18.586 1.585 37.711 1.605 55.309.267-2.232 7.091-5.338 13.685-9.309 19.666-3.331 5.018.336 11.649 6.242 11.649 2.429 0 4.812-1.178 6.255-3.353 5.892-8.876 10.198-18.821 12.845-29.605 46.11-6 76.094-21.303 94.237-34.607 27.852-20.423 44.479-48.72 44.479-75.695.001-23.511-16.945-52.275-45.329-76.941zm-157.538-89.061c.261-5.616 6.344-8.991 11.151-6.221 13.23 7.632 29.793 21.64 37.216 45.992-18.984-2.513-37.278-2.262-55.927.494 5.231-14.076 7.044-29.07 7.56-40.265zm-105.401 47.967c12.751-3.552 30.118-4.808 44.932 6.699-10.216 4.031-19.776 8.516-28.558 13.141-5.414-7.95-11.702-15.008-16.374-19.84zm-58.606 37.65c11.118-3.102 26.392-4.61 40.207 3.476-2.474 1.741-4.808 3.428-6.952 5.025-3.888 2.896-10.356 5.825-18.797 8.609-5.006-6.925-10.479-12.993-14.458-17.11zm-.014 160.78c3.893-4.025 9.273-9.979 14.238-16.804 11.544 4.184 16.001 7.168 26.664 12.92-13.964 8.518-29.518 7.048-40.902 3.884zm58.608 37.644c5.772-5.966 13.367-14.647 19.211-24.24 9.833 3.807 20.816 7.402 33.102 10.427-15.902 18.73-36.767 18.135-52.313 13.813zm-18.149-58.861-2.778-1.526c-22.679-12.417-50.809-17.019-62.822-18.984-2.093-.342-3.938-1.534-5.052-3.256-12.786-19.869-12.782-50.981.003-70.822 1.119-1.733 2.953-2.926 5.026-3.27 18.717-3.103 52.36-9.979 67.395-21.175 26.627-19.837 80.739-53.115 143.979-53.115 14.465 0 27.918 1.701 40.21 4.432-43.954 61.729-43.414 142.611 1.26 203.776-12.483 1.69-26.26 2.673-41.47 2.673-75.356 0-119.422-24.246-145.751-38.733z"/><path d="m303.433 238.592c-40.426-6.479-64.568-6.715-103.324-1.013-13.197 1.941-17.403 18.837-6.798 26.835 6.38 4.813 14.481 12.706 16.841 22.977 1.938 8.431 10.543 13.215 18.575 10.984 13.38-3.708 40.562-10.182 72.279-11.883 12.748-.684 22.734-11.261 22.734-24.081 0-11.915-8.54-21.932-20.307-23.819zm-3.23 32.922c-33.103 1.775-61.46 8.522-75.46 12.394-4.661-20.002-22.432-31.491-22.432-31.491 37.449-5.508 59.603-5.288 98.748.986 4.451.714 7.682 4.503 7.682 9.009-.001 4.847-3.751 8.845-8.538 9.102z"/><path d="m431.376 210.841c-4.142 0-7.5 3.357-7.5 7.5v12c0 4.143 3.358 7.5 7.5 7.5s7.5-3.357 7.5-7.5v-12c0-4.143-3.358-7.5-7.5-7.5z"/></g></g></svg>