<svg id="Capa_1" enable-background="new 0 0 511.924 511.924" height="512" viewBox="0 0 511.924 511.924" width="512" xmlns="http://www.w3.org/2000/svg"><g><g><path d="m491.213 466.072c-9.42 1.16-24.1.75-46.57-4.41-20.29-4.65-44.64-12.65-64.46-28.21-30.35-23.82-50.06-65.39-28.31-139.85l79.04 25.86s-6.09 48.16 14.11 72.53c5.02 6.05 11.67 10.64 20.43 12.65 0 0 16.82 3.86 17.67 19.54l-7.8 7.67 14.18 2.27c2.88 1.23 6.23 2.97 9.24 5.34 10.42 8.211 5.64 24.981-7.53 26.61z" fill="#df8a57"/><path d="m445.023 391.992c-11.45 19.78-31.36 35.6-64.84 41.46-30.35-23.82-50.06-65.39-28.31-139.85l79.04 25.86c0 .001-6.09 48.161 14.11 72.53z" fill="#c76d33"/><path d="m444.183 301.143c0 45.17-15.06 97.88-90.36 105.41-40.25 4.02-91.46.56-142.22-7.68-34.29-5.58-68.37-13.33-98.72-22.44 0 0-22.59-7.53-37.65 7.53l-22.58-30.12c7.53-60.23 45.17-82.82 82.82-97.88 14.08-5.63 31.01-9.17 48.07-12.33 32.34-5.96 65.14-10.53 79.93-25.32 1.72-1.72 3.31-3.53 4.78-5.4 17.81-22.7 17.81-54.83 17.81-54.83v-44.22c0-41.4 33.02-75.78 74.41-76.25 42.14-.48 76.18 33.54 76.18 75.29 0 12.58-.56 25.14-1.69 37.65-.93 10.5-2.25 20.97-3.96 31.38-1.08 6.59-1.88 13.95-1.88 21.32 0 13.64 5.49 30.03 9.84 50.82 2.86 13.64 5.22 29.169 5.22 47.07z" fill="#df8a57"/><g fill="#c76d33"><path d="m320.763 303.483c-29.56-27.42-44.86-60.42-52.51-90.57 17.81-22.7 17.81-54.83 17.81-54.83v-7.53h61.18c-3.91 34.03-7.13 89.75 4.47 140.18 3.34 14.52-19.08 23.75-30.95 12.75z"/><path d="m438.963 254.072c-8.75 17.23-20.77 34.18-37.19 49.41-11.87 11-34.29 1.77-30.94-12.75 11.59-50.42 8.38-106.14 4.46-140.18h59.67c-.93 10.5-2.25 20.97-3.96 31.38-1.08 6.59-1.88 13.95-1.88 21.32 0 13.641 5.49 30.03 9.84 50.82z"/><path d="m211.603 398.873c-34.29-5.58-68.37-13.33-98.72-22.44 0 0-22.59-7.53-37.65 7.53l-22.58-30.12c7.53-60.23 45.17-82.82 82.82-97.88 14.08-5.63 31.01-9.17 48.07-12.33-22.12 28.76-58.77 96.649 28.06 155.24z"/></g><path d="m312.647 268.087c-30.143-39.521-19.057-94.95-19.057-94.95h40.647s-13.55 47.476-8.158 89.444c.985 7.664-8.745 11.651-13.432 5.506z" fill="#c2c0cb"/><path d="m320.575 165.607h81.559s0 52.706-40.78 52.706-40.779-52.706-40.779-52.706z" fill="#ffbfc7"/><path d="m410.063 268.087c30.143-39.521 19.057-94.95 19.057-94.95h-40.647s13.55 47.476 8.158 89.444c-.985 7.664 8.745 11.651 13.432 5.506z" fill="#e1dfe5"/><path d="m466.763 158.083c0 30.11-23.59 45.17-52.7 45.17-27.82 0-52.71-25.25-52.71-45.17 0 14.04-12.45 30.88-29.66 39.49-7.05 3.53-14.91 5.68-23.04 5.68-29.11 0-52.71-15.06-52.71-45.17 0-20.79 23.6-37.65 52.71-37.65 2.65 0 5.25.14 7.79.41 14.02 1.48 26.23 6.91 34.37 14.65h21.08c9.62-9.14 24.93-15.06 42.17-15.06 29.11-.001 52.7 16.86 52.7 37.65z" fill="#c76d33"/><path d="m384.905 139.326c.046-14.556-10.495-15.956-23.502-15.997s-23.556 1.294-23.602 15.849 10.462 26.387 23.469 26.428c13.008.042 23.59-11.725 23.635-26.28z" fill="#495560"/><path d="m331.693 197.572c-7.05 3.53-14.91 5.68-23.04 5.68-29.11 0-52.71-15.06-52.71-45.17 0-20.79 23.6-37.65 52.71-37.65 2.65 0 5.25.14 7.79.41-13.798 8.716-36.266 54.418 15.25 76.73z" fill="#a05423"/><path d="m313.023 387.523c-12.87 54.35-62.39 73.49-98.83 81.85-22.47 5.16-37.16 5.57-46.58 4.4-13.17-1.63-17.95-18.39-7.52-26.6 3.01-2.37 6.35-4.11 9.23-5.33l12.56-2.07-6.18-7.88c.85-15.68 17.68-19.55 17.68-19.55 20.78-4.76 29.64-24 33.2-42.99 3.04-16.23 14.75-29.48 30.54-34.3 32.65-9.981 63.76 19.249 55.9 52.47z" fill="#c76d33"/><path d="m114.063 459.492-16.1-1.34-5.77 5.59c-5.673.475-14.329.289-20.03.09l-15.39-4.83-8.37 2.64c-37.02-6.24-45.55-25.92-38.84-72.89 3.58-25.08 13.99-39.93 23.91-48.61 22.606-19.771 58.91-4.557 58.91 26.02 0 31.37 16 54.73 28.96 68.52 7.552 8.03 4.22 21.599-7.28 24.81z" fill="#a05423"/></g><g><path d="m503.378 433.567c-4.25-3.342-9.01-5.621-12.739-7.072.532-17.17-13.047-26.761-23.509-29.162-14.111-3.238-23.302-15.511-27.362-36.439 7.889-16.378 11.915-36.349 11.915-59.75 0-31.515-6.539-53.206-13.964-86.596.271-2.533.473-5.013.615-7.43 9.931-3.244 18.788-8.746 25.309-16.857 6.866 3.347 14.304 7.885 21.457 14.018 7.433 6.376 17.333-4.897 9.764-11.387-7.952-6.819-16.183-11.912-23.848-15.719 2.137-5.808 3.247-12.201 3.247-19.09 0-8.328-2.923-16.242-8.382-23.13 7.285-3.067 15.975-5.78 25.771-7.087 4.105-.548 6.99-4.321 6.441-8.427s-4.32-6.99-8.427-6.441c-14.271 1.905-26.473 6.369-35.958 11.013-20.093-13.135-49.255-14.606-71.41-4.348-8.656-4.937-31.869-5.545-41.852.019-14.261-6.621-31.238-8.315-46.883-5.326 0-38.945 30.816-68.831 66.995-69.242 29.957-.312 56.183 18.522 65.315 46.936 1.267 3.944 5.495 6.11 9.435 4.845 3.943-1.268 6.113-5.492 4.845-9.435-11.002-34.231-43.177-57.783-79.766-57.345-45.118.513-81.824 38.083-81.824 83.75v5.038c-3.381 1.454-6.582 3.163-9.561 5.11-9.485-4.644-21.688-9.108-35.959-11.014-4.107-.547-7.878 2.336-8.427 6.441-.548 4.106 2.336 7.878 6.441 8.427 9.758 1.303 18.451 4.028 25.752 7.109-5.449 6.883-8.367 14.79-8.367 23.108 0 6.89 1.11 13.283 3.248 19.091-7.664 3.807-15.894 8.899-23.846 15.718-3.145 2.696-3.508 7.431-.812 10.575 2.688 3.134 7.422 3.516 10.575.812 7.13-6.114 14.583-10.649 21.473-13.998 2.8 3.478 5.827 6.267 9.225 8.744-6.032 11.388-12.068 16.421-17.965 19.708-3.618 2.017-4.917 6.584-2.9 10.203 2.007 3.601 6.568 4.926 10.203 2.9 8.519-4.749 16.564-11.942 23.88-25.725.937.356 1.889.693 2.857 1.008 1.583 27.031 10.527 62.229 42.492 85.068 2.642 1.887 6.199 1.862 8.815-.069 2.613-1.93 3.688-5.323 2.66-8.405-7.036-21.115-7.129-47.752-5.354-69.619 7.441 7.7 17.047 11.72 28.359 11.72 11.307 0 20.915-4.025 28.359-11.726 1.778 21.889 1.68 48.515-5.354 69.625-1.027 3.082.047 6.475 2.66 8.405 2.589 1.912 6.148 1.974 8.815.069 17.216-12.301 27.745-28.192 34.055-44.459 3.544 15.33 6.795 32.602 6.795 53.417 0 65.902-32.228 96.244-95.282 98.881-4.082.07-7.369 3.401-7.369 7.499 0 4.142 3.358 7.5 7.5 7.5l10.82-.798c17.42 26.834 47.109 44.768 90.612 54.748 15.101 3.467 33.722 6.444 49.17 4.543 19.805-2.454 26.905-27.615 11.245-39.952zm-64.89-300.682c-4.156 2.868-6.524 4.938-6.815 5.197-3.099 2.748-3.383 7.488-.634 10.587 2.752 3.103 7.493 3.379 10.587.634.084-.075 3.805-3.321 10.41-7.311 4.551 4.691 7.228 10.225 7.228 16.09 0 4.972-.759 9.361-2.113 13.233-11.089-3.897-19.001-4.881-19.633-4.955-4.109-.475-7.838 2.468-8.318 6.582-.479 4.114 2.467 7.838 6.582 8.318.115.013 5.216.647 12.853 3.034-8.833 8.146-21.947 11.459-34.571 11.459-18.931 0-34.434-12.994-41.328-25.019 11.469-4.953 19.625-17.138 19.669-31.384.009-2.773-.314-5.188-.86-7.317 14.272-5.593 32.221-5.612 46.943.852zm-77.531-2.056c10.91 0 16.474-.016 16.448 8.474-.032 10.38-7.236 18.804-16.067 18.804-9.244 0-16.068-8.936-16.037-18.905.018-5.787.663-8.373 15.656-8.373zm-67.446 42.113c-.48-4.114-4.197-7.059-8.318-6.582-.632.074-8.545 1.059-19.636 4.956-1.354-3.872-2.114-8.262-2.114-13.234 0-5.856 2.669-11.382 7.208-16.068 6.591 3.973 10.338 7.207 10.445 7.3 1.426 1.259 3.197 1.878 4.961 1.878 6.874 0 10.129-8.544 4.979-13.111-.292-.259-2.66-2.328-6.815-5.196 14.515-6.372 32.446-6.529 46.915-.863-.524 2.099-.828 4.456-.836 7.133-.045 14.325 8.124 26.617 19.663 31.589-6.897 12.018-22.398 25.008-41.311 25.008-12.615 0-25.719-3.307-34.553-11.436 7.566-2.37 12.652-3.035 12.843-3.059 4.108-.485 7.048-4.205 6.569-8.315zm6.139 37.357c8.328.855 14.021.408 18.652-.413-1.458 16.243-2.005 35.412.346 53.693-12.653-16.575-17.514-36.358-18.998-53.28zm61.703.514c-8.466 0-15.082-3.321-20.089-10.11 8.316-5.362 15.252-12.38 20.088-19.843 4.835 7.462 11.769 14.479 20.084 19.841-5.007 6.786-11.617 10.112-20.083 10.112zm42.707 52.764c2.349-18.271 1.804-37.435.345-53.692 4.714.835 10.373 1.265 18.659.414-1.489 16.917-6.352 36.703-19.004 53.278zm86.236 195.052c-7.527.927-21.268.938-43.976-4.276-36.121-8.287-61.511-22.224-77.233-42.453 25.958-5.028 46.017-16.393 59.861-33.738 8.272 22.807 22.937 31.063 34.773 33.778.042.01 4.223 1.063 7.637 4.021 2.233 1.935 3.586 4.196 4.091 6.901-8.529-1.207-21.871-2.269-33.179.476-4.025.978-6.497 5.033-5.52 9.058s5.033 6.496 9.058 5.519c14.403-3.498 34.733 1.056 34.937 1.103 3.754.853 9.575 3.364 13.356 6.336 5.179 4.08 2.757 12.463-3.805 13.275z"/><path d="m309.76 311.146c-4.044.896-6.597 4.9-5.701 8.944 17.156 77.466-12.789 123.906-91.545 141.974-22.728 5.214-36.456 5.2-43.972 4.271-6.581-.814-8.977-9.198-3.807-13.268 5.718-4.5 13.295-6.327 13.359-6.343.108 0 20.691-4.558 34.933-1.101 4.026.979 8.08-1.495 9.058-5.519.977-4.025-1.494-8.08-5.52-9.058-11.309-2.745-24.653-1.683-33.182-.475.505-2.707 1.859-4.969 4.093-6.905 3.411-2.955 7.587-4.009 7.584-4.009 26.604-6.103 41.243-33.076 41.221-75.95-.002-4.141-3.359-7.496-7.5-7.496-4.132 0-7.502 3.349-7.5 7.504.007 13.607-1.711 33.757-10.526 47.402-33.17-5.478-66.153-13.005-95.648-21.847 0 0-7.212-2.167-15.209-2.204l-.014-.902c0-20.152-13.552-36.414-32.467-41.146 13.736-34.988 42.037-50.571 70.841-62.09 23.618-9.441 56.848-12.955 84.204-19.076 4.042-.904 6.586-4.914 5.681-8.957-.904-4.042-4.915-6.589-8.957-5.681-27.422 6.135-61.009 9.596-86.498 19.785-31.629 12.65-65.769 31.477-80.89 75.03-8.418 1.02-16.501 4.552-23.261 10.465-14.054 12.292-23.183 30.688-26.398 53.199-4.613 32.296-1.862 51.518 9.2 64.271 12.062 13.906 33.353 19.579 73.491 19.579 10.955 0 21.803-1.825 32.249-5.126 15.851-5.01 21.066-24.814 9.725-36.877-9.892-10.521-21.308-26.584-25.378-47.441 3.03.136 6.363.636 9.303 1.518 26.405 7.919 55.534 14.8 85.107 20.142-1.313.509-2.681.946-4.13 1.278-10.463 2.401-24.045 11.995-23.514 29.168-3.728 1.451-8.485 3.73-12.735 7.075-15.645 12.315-8.588 37.489 11.243 39.941 15.389 1.903 34.002-1.058 49.167-4.538 89.004-20.42 121.234-76.761 102.836-159.837-.895-4.043-4.903-6.597-8.943-5.7zm-197.202 140.968c-2.517.795-5.035 1.476-7.55 2.058-21.167-12.942-26.132-27.225-26.132-27.225-1.199-3.926-5.338-6.165-9.285-5.005-3.975 1.167-6.25 5.334-5.084 9.309 0 0 3.784 12.342 18.435 25.285-7.264-.034-13.803-.263-19.677-.702-17.398-18.763-18.172-34.307-18.172-34.307-.044-4.104-3.385-7.418-7.5-7.418-4.142 0-7.5 3.358-7.5 7.5 0 0 .167 13.642 11.522 30.925-8.805-2.339-14.918-5.755-18.945-10.398-7.917-9.128-9.617-24.776-5.682-52.322 2.739-19.179 9.947-33.993 21.424-44.029 17.738-15.514 46.471-3.825 46.471 20.379 0 33.629 16.853 58.614 30.991 73.651 3.743 3.98 2.051 10.604-3.316 12.299z"/><path d="m332.39 75.284c-11.799 0-21.365 9.53-21.402 21.337-.013 4.142 3.334 7.511 7.477 7.523 4.199 0 7.511-3.377 7.523-7.477.026-8.398 12.836-8.446 12.809.041-.013 4.142 3.334 7.51 7.477 7.523 4.199 0 7.511-3.377 7.523-7.477.036-11.819-9.566-21.47-21.407-21.47z"/><path d="m390.386 75.284c-12.16 0-21.435 9.802-21.472 21.337-.013 4.142 3.334 7.511 7.477 7.523 4.199 0 7.511-3.377 7.523-7.477.027-8.474 12.835-8.432 12.809.041-.013 4.142 3.334 7.51 7.477 7.523 4.199 0 7.511-3.377 7.523-7.477.036-11.802-9.536-21.434-21.337-21.47z"/></g></g></svg>