<svg id="Capa_1" enable-background="new 0 0 511.945 511.945" height="512" viewBox="0 0 511.945 511.945" width="512" xmlns="http://www.w3.org/2000/svg"><g><g><path d="m503.965 323.736c-4.35 55.58-38.81 105.92-91.8 130.44-21.63 10.01-46.35 15.72-73.37 15.72-8.53 0-16.78-.21-24.76-.63-45.43-2.33-81.98-11.11-111.39-23.96-32.79-14.29-56.68-33.64-74.09-54.71l83.49-26.95 37.82-12.21 43.83-14.15 196.64-63.47z" fill="#e1dfe5"/><path d="m412.165 454.176c-21.63 10.01-46.35 15.72-73.37 15.72-8.53 0-16.78-.21-24.76-.63-45.43-2.33-81.98-11.11-111.39-23.96-32.79-14.29-56.68-33.64-74.09-54.71l83.49-26.95 37.82-12.21 43.83-14.15c30.13 11.39 51.18 43.44 43.48 79.35-.138.667-.292 1.371-.459 2.105-1.648 7.232 2.183 14.609 9.098 17.294 18.879 7.329 40.856 13.472 66.351 18.141z" fill="#c2c0cb"/><path d="m504.445 311.786c0 .43 0 .87-.01 1.3-10.91-10.9-25.21-16.36-39.52-16.36s-28.62 5.46-39.53 16.37c-12.6 12.6-29.73 17.93-46.15 15.98-8.98 26.62-23.78 45.33-42.03 58.09h-13l-10.01 12.44c-60.21 24.56-141.87 5.01-185.64-9.01h-.01c-35.32-42.73-43.9-92.52-45.68-121.7-.4-6.46-4.91-11.87-11.16-13.57-30.88-8.45-55.68-33.01-63.75-64.93-2.02-8.01 2.95-16.16 10.99-18.1 15.3-3.69 41.63-4.69 67.55 19.54 6.68 6.24 17.25 5.19 22.57-2.24 20.64-28.85 46.66-33.05 62.39-32.45 8.25.32 14.74 7.34 14.33 15.59-1.67 33.61-21.98 63.1-51.63 77.12-9.82 4.64-11.75 17.98-3.4 24.93 25.4 21.11 68.89 15.44 84.04-20.9 11.36-27.24 30.48-50.43 54.61-66.8v-.01c24.09-16.33 53.15-25.88 84.45-25.88 83.17 0 150.59 67.42 150.59 150.59z" fill="#91d4f2"/><path d="m337.205 387.166c-60.53 42.36-158.99 19.34-208.65 3.43h-.01c-35.32-42.73-43.9-92.52-45.68-121.7-.4-6.46-4.91-11.87-11.16-13.57-30.88-8.45-55.68-33.01-63.75-64.93-2.02-8.01 2.95-16.16 10.99-18.1 15.3-3.69 41.63-4.69 67.55 19.54 6.68 6.24 17.25 5.19 22.57-2.24 20.64-28.85 46.66-33.05 62.39-32.45 8.25.32 14.74 7.34 14.33 15.59-1.67 33.61-21.98 63.1-51.63 77.12-9.82 4.64-11.75 17.98-3.4 24.93 25.4 21.11 68.89 15.44 84.04-20.9 11.36-27.24 30.48-50.43 54.61-66.8-14.543 29.168-35.459 82.17-27.701 134.056 1.243 8.317 9.033 13.882 17.341 12.576 3.487-.548 7.059-.841 10.631-.841 32.23 0 60.61 23.1 67.5 54.26z" fill="#59c2e8"/><path d="m310.625 55.913c40.165 20.671 25.599 64.523 25.599 64.523-22.024-19.693-33.661-.701-53.651-11.219-13.631-7.172-19.641-27.351-12.628-40.678s25.391-20.671 40.68-12.626z" fill="#91d4f2"/><path d="m373.962 84.588c-12.575-46.925 42.211-81.809 58.348-49.431 5.076 10.184 1.614 22.816-7.944 28.992-15.628 10.097-25.332-3.898-50.404 20.439z" fill="#91d4f2"/><path d="m313.625 416.106c-.29 1.38-.62 2.76-.97 4.13-7.68 29.92-29.65 59.2-83.42 68.89-12.73 2.3-22.22-11.66-15.38-22.63 11.22-17.97 12.1-36.75 9.52-52.24-3.6-21.6 8.36-42.77 28.8-50.63.96-.37 1.91-.7 2.87-1 4.63-1.46 9.25-2.14 13.76-2.14 27.76 0 51.21 25.8 44.82 55.62z" fill="#00aede"/><g><g><ellipse cx="390.306" cy="264.674" fill="#fff" rx="28.919" ry="23.03"/></g></g></g><g><path d="m353.855 153.696c-64.04 0-121.342 38.194-145.981 97.301-2.258 5.41-5.289 10.188-9.009 14.201-2.816 3.038-2.636 7.783.402 10.599 3.037 2.815 7.783 2.635 10.599-.402 4.923-5.311 8.91-11.576 11.852-18.623 22.304-53.504 74.171-88.076 132.138-88.076 74.084 0 135.195 56.594 142.38 128.818-24.191-13.7-55.62-10.256-76.152 10.276-18.872 18.872-49.58 18.872-68.452 0-2.929-2.929-7.678-2.929-10.606 0-2.929 2.929-2.929 7.678 0 10.606 8.067 8.067 17.789 13.484 28.081 16.286-9.499 23.064-24.698 40.528-45.368 52.051-.584-25.714-7.476-45.882-7.977-47.315-1.368-3.907-5.642-5.965-9.548-4.6-3.908 1.363-5.972 5.638-4.613 9.548.19.546 18.704 55.052-4.891 95.424-12.807 21.914-35.958 36.03-68.811 41.956-6.331 1.143-11.073-5.839-7.677-11.281 27.964-44.813-1.802-92.906-3.083-94.931-2.212-3.496-6.832-4.536-10.331-2.332-3.5 2.204-4.551 6.832-2.354 10.336 0 0 4.483 7.298 8.037 18.175-30.983-3.645-59.942-11.401-79.787-17.668-31.704-39.315-40.482-84.939-42.353-115.612-.596-9.617-7.297-17.792-16.667-20.341-28.764-7.871-51.164-30.683-58.457-59.53-1.002-3.973 1.495-8.014 5.476-8.975 15.123-3.648 37.926-3.533 60.672 17.73 9.951 9.295 25.808 7.79 33.789-3.357 18.106-25.308 40.455-29.911 56-29.319 4.096.159 7.333 3.651 7.13 7.724-1.517 30.525-19.658 57.62-47.343 70.711-14.846 7.014-17.499 27.067-4.992 37.478 13.175 10.957 30.733 15.827 48.167 13.359 4.101-.58 6.956-4.375 6.375-8.477-.581-4.101-4.378-6.962-8.477-6.375-13.25 1.874-26.546-1.784-36.472-10.039-4.125-3.433-3.07-10.08 1.809-12.385 32.698-15.461 54.123-47.467 55.915-83.528.619-12.456-9.124-22.976-21.535-23.457-15.75-.596-45.626 3.223-68.774 35.578-2.719 3.797-8.019 4.239-11.35 1.127-29.08-27.183-59.115-25.046-74.431-21.352-12.01 2.898-19.568 15.07-16.502 27.229 8.617 34.083 35.072 61.03 69.053 70.328 3.177.865 5.445 3.596 5.643 6.79 1.489 24.424 7.476 61.075 27.537 96.976 23.259 41.625 59.51 71.991 107.798 90.358-.948 1.956-2.012 3.905-3.219 5.839-10.289 16.488 3.929 37.433 23.065 33.983 22.096-3.985 40.428-11.398 54.851-22.14 22.081 2.63 54.601 4.403 77.371 1.539 4.109-.517 7.022-4.268 6.505-8.378-.517-4.109-4.266-7.024-8.378-6.505-18.091 2.277-42.609 1.323-60.845-.237 13.846-16.018 20.977-35.749 23.055-56.902 28.896-13.498 49.474-36.004 61.266-66.984 17.595.407 34.133-6.333 46.306-18.505 18.075-18.074 47.211-18.811 66.179-2.126-1.897 61.91-42.906 116.707-103.261 137.255-3.921 1.334-6.018 5.596-4.683 9.517 1.335 3.922 5.598 6.018 9.517 4.683 67.89-23.112 113.503-85.78 113.503-155.94-.002-87.17-70.921-158.089-158.092-158.089zm-200.557 251.88c18.412 4.788 40.192 9.324 62.86 11.629 1.138 7.824 1.271 16.457-.591 25.277-25.539-9.774-45.966-22.517-62.269-36.906z"/><path d="m279.08 115.854c22.995 12.099 33.216-6.753 52.145 10.173 4.016 3.591 10.416 1.894 12.117-3.227.169-.51 4.13-12.66 2.606-27.634-1.446-14.2-8.146-33.688-31.858-45.905-19.908-10.456-42.327-.283-50.782 15.786-9.004 17.112-1.339 41.803 15.772 50.807zm-2.498-43.822c5.061-9.619 18.686-15.558 30.611-9.45 23.025 11.851 25.088 32.571 23.901 45.077-19.28-10.149-30.832 2.392-45.028-5.079-9.728-5.119-14.602-20.821-9.484-30.548z"/><path d="m379.185 89.969c23.533-22.842 30.219-7.224 49.25-19.521 12.869-8.314 17.419-24.924 10.586-38.637-7.419-14.888-22.862-20.474-39.342-14.231-23.729 8.988-41.227 38.112-32.963 68.95 1.478 5.51 8.358 7.431 12.469 3.439zm25.808-58.362c8.62-3.266 16.351-1.636 20.604 6.895 3.366 6.753 1.037 15.251-5.302 19.347-10.472 6.766-21.126-1.286-40.701 12.288.251-19.743 13.979-34.204 25.399-38.53z"/><path d="m400.895 239.613c0-3.455 2.811-6.265 6.265-6.265s6.265 2.811 6.265 6.265c0 4.142 3.358 7.5 7.5 7.5s7.5-3.358 7.5-7.5c0-11.726-9.54-21.265-21.265-21.265s-21.265 9.54-21.265 21.265c0 4.142 3.358 7.5 7.5 7.5s7.5-3.358 7.5-7.5z"/></g></g></svg>