<svg id="Capa_1" enable-background="new 0 0 512 512" height="512" viewBox="0 0 512 512" width="512" xmlns="http://www.w3.org/2000/svg"><g><g><g><g><g><path d="m375.933 122.927c-7.406.032-14.662.698-21.717 1.947-24.88 4.403-50.087 6.685-75.354 6.685h-10.893c-25.555 0-51.001-2.623-76.202-6.866-6.489-1.092-13.144-1.693-19.927-1.761-71.88-.722-129.242 59.207-128.342 131.086 1.427 114.078 63.643 250.482 230.016 250.482 178.855 0 229.248-137.444 230.032-251.783.486-70.792-56.819-130.094-127.613-129.79z" fill="#fb4a59"/><g><path d="m435.211 137.659c-24.259 24.009-62.027 36.868-115.984-8.03 11.719-1.11 23.389-2.7 34.988-4.76 7.06-1.24 14.309-1.91 21.719-1.94 21.399-.09 41.568 5.26 59.277 14.73z" fill="#f82f40"/></g><g><path d="m364.149 394.469c-15.789 51.992-50.187 87.619-91.611 110.017-106.758-.338-170.456-56.999-202.632-127.724h281.037c9.213 0 15.879 8.887 13.206 17.707z" fill="#f82f40"/></g><path d="m503.545 252.715c-.778 114.337-51.18 251.782-230.027 251.782-7.703 0-15.18-.293-22.432-.857 159.516-11.729 205.429-141.844 206.174-250.925.429-62.762-44.56-116.491-104.107-127.656.35-.056.711-.113 1.06-.18 7.06-1.252 14.312-1.917 21.721-1.951 70.793-.305 128.096 58.995 127.611 129.787z" fill="#f82f40"/></g><g><g><path d="m295.744 82.302s29.614-43.662 90.914-30.17c30.003 6.604 50.631 7.115 63.873 5.915 8.741-.792 15.02 8.249 11.179 16.14-18.78 38.576-70.186 109.389-165.966 8.115z" fill="#1ca56f"/></g><g><path d="m461.715 74.184c-15.383 31.59-52.646 84.799-118.228 47.424 52.635 16.353 83.514-28.714 97.16-56.751 1.026-2.098 1.331-4.286 1.06-6.338 3.248-.068 6.18-.237 8.819-.474 8.742-.789 15.024 8.256 11.189 16.139z" fill="#158f5e"/></g></g><path d="m319.085 31.894c-12.329 19.184-36.121 65.179-37.254 135.797-3.97.158-8.053.237-12.214.237-4.319 0-8.549-.09-12.665-.259-2.505-21.211-8.945-101.811 29.847-155.45 3.269-4.52 9.341-5.996 14.306-3.453l13.64 6.985c5.938 3.04 7.947 10.53 4.34 16.143z" fill="#ba5d4f"/></g><g><g><g><path d="m25.709 345.922c-6.887 0-12.675 5.094-13.639 11.914-.618 4.369-1.296 8.732-2.029 13.085-.911 5.413-1.442 10.955-1.565 16.597-1.417 65.372 53.06 117.872 118.44 116.97 85.826-1.183 185.53-40.571 215.973-140.861 2.676-8.815-3.987-17.706-13.2-17.706h-303.98z" fill="#ffd496"/></g><g><path d="m342.89 363.623c-26.436 87.1-105.122 128.265-181.576 138.348 58.792-21.473 111.19-66.179 130.543-141.979 1.816-7.128-3.586-14.064-10.94-14.064h48.777c9.215-.001 15.869 8.887 13.196 17.695z" fill="#fcc16d"/></g></g><path d="m91.041 345.922c6.031 31.155 33.44 54.686 66.357 54.686s60.326-23.531 66.357-54.686z" fill="#fee7c9"/></g></g></g><g><path d="m485.195 171.818c-14.1-19.596-33.348-35.222-55.046-44.938 12.965-9.581 26.402-24.963 38.303-49.41 3-6.161 2.467-13.207-1.426-18.848-3.904-5.658-10.324-8.668-17.171-8.045-10.052.909-21.883.526-35.168-1.144-4.107-.519-7.859 2.396-8.376 6.507-.517 4.109 2.396 7.859 6.506 8.376 14.352 1.803 27.268 2.204 38.391 1.2 1.999-.187 3.094 1.076 3.473 1.625.463.672 1.117 2.055.286 3.763-9.065 18.622-28.948 50.58-60.253 55.383-24.438 3.748-52.257-9.15-82.82-38.362 7.181-.097 17.095.591 29.651 3.348 4.48 5.448 16.917 19.282 32.713 26.07.965.415 1.97.611 2.958.611 2.907 0 5.673-1.7 6.894-4.54 1.636-3.805-.124-8.216-3.929-9.852-3.92-1.685-7.64-3.977-11.019-6.473 7.615 1.26 14.87 2.023 21.951 2.023 10.315 0 20.269-1.613 30.453-5.643 3.851-1.524 5.738-5.882 4.214-9.733-1.524-3.852-5.884-5.739-9.733-4.214-8.306 3.287-16.374 4.701-25.578 4.602 1.048-.923 2.074-1.895 3.056-2.922 2.862-2.994 2.755-7.741-.239-10.603-2.994-2.864-7.741-2.756-10.603.238-5.177 5.416-12.36 9.085-15.693 10.607-5.889-1.102-12.326-2.516-19.492-4.202-12.892-3.033-23.561-4.13-31.924-4.301 12.132-9.236 32.461-19.065 61.51-14.93 4.108.586 7.898-2.268 8.481-6.37.583-4.1-2.268-7.897-6.369-8.48-28.495-4.052-49.983 3.389-64.776 12.434 3.908-8.036 7.722-14.587 10.975-19.648 2.863-4.456 3.716-9.941 2.34-15.05-1.375-5.103-4.864-9.414-9.57-11.824l-13.64-6.986c-8.311-4.256-18.321-1.844-23.801 5.734-25.42 35.148-32.272 80.886-33.173 115.672-17.293-.913-35.182-2.939-54.537-6.197-6.929-1.167-14.028-1.795-21.098-1.865-.463-.004-.923-.007-1.386-.007-30.373 0-58.999 10.051-82.862 29.11-3.236 2.585-3.764 7.304-1.18 10.54 1.481 1.854 3.663 2.819 5.865 2.819 1.641 0 3.293-.536 4.676-1.64 21.496-17.17 47.372-26.126 74.737-25.824 6.289.063 12.599.619 18.757 1.656 20.201 3.401 38.884 5.498 56.983 6.421.163 8.199.609 15.396 1.105 21.199-10.44-.74-19.985-2.032-27.901-3.816-4.043-.91-8.055 1.627-8.965 5.668-.911 4.04 1.627 8.054 5.667 8.964 14.042 3.164 32.581 4.907 52.202 4.907 19.622 0 38.161-1.743 52.202-4.907 4.04-.91 6.578-4.925 5.667-8.964-.911-4.041-4.921-6.576-8.965-5.668-8.18 1.843-18.096 3.164-28.948 3.89.3-7.259.836-14.235 1.577-20.918 19.448-.558 39.151-2.442 58.628-5.632 12.586 5.776 24.793 8.686 36.574 8.685 3.584 0 7.133-.269 10.637-.807 5.032-.772 10.613-2.212 16.514-4.684.054.019.104.044.158.062 23.505 7.899 44.586 23.556 59.36 44.088 15.243 21.184 23.205 46.112 23.027 72.088-.314 45.801-8.693 111.509-46.825 164.436-38.197 53.017-97.314 79.898-175.708 79.898-16.14 0-31.665-1.343-46.408-3.992 11.337-4.389 22.159-9.49 32.286-15.272 44.87-25.62 76.225-64.325 90.676-111.929 1.966-6.476.776-13.317-3.265-18.767-4.061-5.476-10.297-8.618-17.11-8.618h-35.53c-4.142 0-7.5 3.357-7.5 7.5s3.358 7.5 7.5 7.5h35.53c2.014 0 3.859.931 5.062 2.553 1.183 1.596 1.533 3.591.961 5.475-13.507 44.496-41.688 79.238-83.76 103.26-35.361 20.191-79.803 31.655-125.14 32.28-29.877.426-59.058-11.459-80.002-32.57-20.51-20.672-31.461-47.925-30.837-76.738.113-5.201.605-10.421 1.463-15.516.749-4.45 1.442-8.918 2.059-13.281.447-3.166 3.06-5.464 6.213-5.464h59.417c9.019 32.032 38.471 54.686 72.272 54.686s63.253-22.654 72.272-54.686h28.202c4.142 0 7.5-3.357 7.5-7.5s-3.358-7.5-7.5-7.5h-194.254c-7.909-26.695-12.263-55.785-12.622-84.499-.329-26.277 7.49-51.457 22.61-72.82 2.393-3.381 1.592-8.061-1.788-10.455-3.381-2.391-8.062-1.594-10.454 1.789-16.963 23.966-25.735 52.207-25.366 81.673.358 28.558 4.502 57.486 12.021 84.311h-22.31c-10.529 0-19.585 7.894-21.065 18.362-.599 4.233-1.271 8.57-1.998 12.891-.977 5.808-1.538 11.756-1.667 17.681-.714 32.919 11.782 64.04 35.184 87.628 23.396 23.581 55.801 37.015 89.147 37.014.569 0 1.141-.004 1.71-.012 24.846-.342 49.466-3.796 72.655-10.033 22.704 6.67 47.538 10.054 73.838 10.054 43.556 0 82.11-8.085 114.591-24.03 29.305-14.385 53.962-35.28 73.286-62.1 40.443-56.134 49.325-125.116 49.655-173.1.201-29.178-8.739-57.17-25.851-80.952zm-192.319-155.206c1.112-1.537 3.136-2.031 4.81-1.173l13.64 6.986c1.297.664 1.762 1.772 1.925 2.375.163.605.318 1.805-.476 3.039-13.395 20.843-35.719 65.262-38.251 132.55-3.565.056-7.204.05-10.821-.02-8.304-84.333 20.082-131.186 29.173-143.757zm.348 107.184c1.619-9.82 3.649-18.933 5.947-27.322 10.002 9.764 19.826 17.964 29.454 24.59-11.815 1.407-23.652 2.323-35.401 2.732zm-79.286 229.626c-8.457 23.46-30.942 39.686-56.539 39.686s-48.083-16.227-56.54-39.686z"/><path d="m147.165 376.687h13.897c4.142 0 7.5-3.357 7.5-7.5 0-4.142-3.358-7.5-7.5-7.5h-13.897c-4.142 0-7.5 3.357-7.5 7.5s3.358 7.5 7.5 7.5z"/></g></g></svg>