<svg id="Capa_1" enable-background="new 0 0 512 512" height="512" viewBox="0 0 512 512" width="512" xmlns="http://www.w3.org/2000/svg"><g><g><g><g><path d="m171.404 420.983c-3.847 10.57-15.534 16.019-26.103 12.172-10.57-3.847-16.019-15.534-12.172-26.103 3.847-10.57 20.644-30.06 31.214-26.213 10.569 3.847 10.908 29.575 7.061 40.144z" fill="#99d53b"/><path d="m171.405 420.982c-3.848 10.572-15.538 16.023-26.11 12.175-3.477-1.266-6.409-3.386-8.623-6.044 6.918-1.228 13.012-6.013 15.591-13.099s3.281-20.973.287-30.524c4.147-2.652 8.301-3.918 11.787-2.649 10.572 3.849 10.916 29.569 7.068 40.141z" fill="#82b732"/></g><g><path d="m177.402 307.476c-7.23 8.616-20.076 9.74-28.692 2.51s-9.74-20.076-2.51-28.692 29.68-21.186 38.297-13.956c8.615 7.23.135 31.522-7.095 40.138z" fill="#99d53b"/><path d="m177.403 307.475c-7.232 8.618-20.081 9.743-28.699 2.511-2.834-2.378-4.864-5.374-6.036-8.629 6.921 1.212 14.284-1.2 19.13-6.976 4.847-5.776 10.257-18.586 10.709-28.585 4.804-1.073 9.14-.842 11.982 1.543 8.619 7.231.145 31.518-7.086 40.136z" fill="#82b732"/></g><g><path d="m203.454 206.255c-8.616 7.23-21.462 6.106-28.692-2.51s-6.106-21.462 2.51-28.692 32.908-15.71 40.138-7.094-5.34 31.066-13.956 38.296z" fill="#99d53b"/><path d="m203.455 206.254c-8.618 7.232-21.468 6.108-28.699-2.511-2.378-2.834-3.857-6.137-4.446-9.546 6.605 2.395 14.275 1.299 20.051-3.548s13.328-16.523 15.51-26.291c4.917-.223 9.147.758 11.532 3.6 7.233 8.618-5.329 31.065-13.948 38.296z" fill="#82b732"/></g><g><g><path d="m194.817 86.809-12.956 16.846c-1.161 1.51-28.692 37.778-50.586 107.13-12.68 40.165-20.983 83.489-24.677 128.768-3.821 46.833-2.693 95.897 3.339 146.238 1.28 10.678 10.361 18.709 21.115 18.709 12.715 0 22.627-11.092 21.119-23.717-13.712-114.738 2.253-201.194 18.932-254.95 19.401-62.53 43.866-95.485 44.483-96.307l12.924-16.804z" fill="#d2f0a2"/></g><path d="m228.514 112.722-12.931 16.801c-.32.43-7.09 9.55-16.241 27.001-5.91-.93-11.741-3.02-17.171-6.33-7.78-4.74-13.711-11.361-17.541-18.931 9.62-17.591 16.661-26.871 17.231-27.611l12.951-16.841z" fill="#bcea73"/><g><path d="m228.514 112.722-12.931 16.801c-.61.82-25.081 33.782-44.482 96.314-16.681 53.752-32.641 140.206-18.931 254.942.1.86.15 1.71.15 2.55 0 11.53-9.41 21.171-21.271 21.171-1.2 0-2.39-.1-3.54-.3 0-.01 0-.01 0-.02-15.301-128.006 2.51-224.45 21.121-284.413 21.641-69.763 48.932-106.525 49.622-107.445l11.05-14.371z" fill="#bcea73"/></g><g><g><path d="m270.556 79.322c-10.009 16.424-31.437 21.624-47.86 11.615s-21.624-31.437-11.615-47.86 44.732-43.441 61.156-33.432 8.327 53.253-1.681 69.677z" fill="#82b732"/><path d="m270.551 79.322c-10.006 16.419-31.435 21.62-47.854 11.614-.64-.39-1.268-.799-1.87-1.231 9.809-1.502 18.918-7.163 24.489-16.304 8.597-14.108 15.783-48.017 7.22-63.649 7.483-2.736 14.506-3.276 19.702-.11 16.419 10.007 8.325 53.251-1.687 69.68z" fill="#79a72d"/></g><g><path d="m228.983 126.624c-10.563 1.567-21.713-.413-31.545-6.404-22.316-13.599-29.381-42.714-15.782-65.03s28.845-37.318 34.633-33.791c22.315 13.6 26.107 103.235 12.694 105.225z" fill="#a3e440"/><path d="m228.981 126.622c-10.212 1.518-20.994-.285-30.594-5.833 1.581-.058 3.171-.216 4.741-.451 10.919-1.624 10.438-61.32-2.154-90.804 6.644-6.732 12.277-9.979 15.314-8.128 22.314 13.597 26.112 103.229 12.693 105.216z" fill="#8dc637"/></g><g><path d="m180.803 110.362c3.449 10.106 10.32 19.109 20.151 25.1 22.316 13.599 51.43 6.533 65.03-15.782s19.944-42.742 14.157-46.269c-22.315-13.6-103.717 24.118-99.338 36.951z" fill="#a3e440"/><path d="m265.982 119.685c-13.213 21.682-41.072 28.964-63.105 16.886 14.118-1.522 27.395-9.359 35.358-22.425 10.984-18.024 17.236-34.818 16.186-42.466 10.773-1.858 20.11-1.682 25.717 1.735 5.788 3.527-.553 23.948-14.156 46.27z" fill="#8dc637"/></g></g></g><g><path d="m159.914 174.791c0 11.248-9.118 20.366-20.366 20.366s-20.366-9.118-20.366-20.366 9.118-35.308 20.366-35.308 20.366 24.06 20.366 35.308z" fill="#a3e440"/><path d="m159.914 174.789c0 11.251-9.12 20.371-20.371 20.371-3.7 0-7.18-.99-10.171-2.73 6.08-3.52 10.171-10.101 10.171-17.641s-4.09-20.831-10.171-28.781c2.99-3.91 6.46-6.52 10.171-6.52 11.251 0 20.371 24.051 20.371 35.301z" fill="#8dc637"/></g><g><path d="m125.484 299.378c1.953 11.077-5.443 21.64-16.52 23.593s-21.64-5.443-23.593-16.52 2.849-36.355 13.926-38.308c11.076-1.953 24.234 20.158 26.187 31.235z" fill="#a3e440"/><path d="m125.484 299.376c1.954 11.08-5.444 21.645-16.524 23.599-3.644.643-7.243.272-10.49-.923 5.377-4.523 8.262-11.713 6.953-19.139s-7.645-19.804-15.014-26.578c2.266-4.37 5.23-7.543 8.884-8.187 11.079-1.953 24.238 20.149 26.191 31.228z" fill="#8dc637"/></g><g><path d="m124.026 435.218c3.847 10.57-1.603 22.256-12.172 26.103-10.57 3.847-22.256-1.603-26.103-12.172-3.847-10.57-3.508-36.297 7.062-40.144s27.366 15.643 31.213 26.213z" fill="#a3e440"/><path d="m124.026 435.216c3.848 10.572-1.603 22.262-12.175 26.11-3.477 1.266-7.086 1.526-10.491.913 4.51-5.387 6.103-12.97 3.524-20.056s-10.968-18.176-19.401-23.567c1.472-4.697 3.841-8.337 7.327-9.606 10.572-3.847 27.368 15.634 31.216 26.206z" fill="#8dc637"/></g></g><g><g><path d="m317.66 420.983c-3.847 10.57-15.534 16.019-26.103 12.172-10.57-3.847-16.019-15.534-12.172-26.103 3.847-10.57 20.644-30.06 31.214-26.213 10.568 3.847 10.908 29.575 7.061 40.144z" fill="#99d53b"/><path d="m317.66 420.982c-3.848 10.572-15.538 16.023-26.11 12.175-3.477-1.266-6.409-3.386-8.623-6.044 6.918-1.228 13.012-6.013 15.591-13.099s3.281-20.973.287-30.524c4.147-2.652 8.301-3.918 11.787-2.649 10.572 3.849 10.916 29.569 7.068 40.141z" fill="#82b732"/></g><g><path d="m323.657 307.476c-7.23 8.616-20.076 9.74-28.692 2.51s-9.74-20.076-2.51-28.692 29.68-21.186 38.297-13.956c8.615 7.23.135 31.522-7.095 40.138z" fill="#99d53b"/><path d="m323.658 307.475c-7.232 8.618-20.081 9.743-28.699 2.511-2.834-2.378-4.864-5.374-6.036-8.629 6.921 1.212 14.284-1.2 19.13-6.976 4.847-5.776 10.257-18.586 10.709-28.585 4.804-1.073 9.14-.842 11.982 1.543 8.619 7.231.146 31.518-7.086 40.136z" fill="#82b732"/></g><g><path d="m349.709 206.255c-8.616 7.23-21.462 6.106-28.692-2.51s-6.106-21.462 2.51-28.692 32.908-15.71 40.138-7.094c7.231 8.616-5.339 31.066-13.956 38.296z" fill="#99d53b"/><path d="m349.711 206.254c-8.618 7.232-21.468 6.108-28.699-2.511-2.378-2.834-3.857-6.137-4.446-9.546 6.605 2.395 14.275 1.299 20.051-3.548s13.328-16.523 15.51-26.291c4.917-.223 9.147.758 11.532 3.6 7.232 8.618-5.33 31.065-13.948 38.296z" fill="#82b732"/></g><g><g><path d="m341.073 86.809-12.956 16.846c-1.161 1.51-28.692 37.778-50.586 107.13-12.68 40.165-20.983 83.489-24.677 128.768-3.822 46.833-2.693 95.897 3.339 146.238 1.28 10.678 10.361 18.709 21.115 18.709 12.715 0 22.627-11.092 21.119-23.717-13.712-114.738 2.253-201.194 18.932-254.95 19.401-62.53 43.866-95.485 44.483-96.307l12.924-16.804z" fill="#d2f0a2"/></g><path d="m374.77 112.722-12.931 16.801c-.32.43-7.09 9.55-16.241 27.001-5.91-.93-11.741-3.02-17.171-6.33-7.78-4.74-13.711-11.361-17.541-18.931 9.62-17.591 16.661-26.871 17.231-27.611l12.951-16.841z" fill="#bcea73"/><g><path d="m374.77 112.722-12.931 16.801c-.61.82-25.081 33.782-44.482 96.314-16.681 53.752-32.641 140.206-18.931 254.942.1.86.15 1.71.15 2.55 0 11.53-9.41 21.171-21.271 21.171-1.2 0-2.39-.1-3.54-.3 0-.01 0-.01 0-.02-15.301-128.006 2.51-224.45 21.121-284.413 21.641-69.763 48.932-106.525 49.622-107.445l11.05-14.371z" fill="#bcea73"/></g><g><g><path d="m416.811 79.322c-10.009 16.424-31.437 21.624-47.86 11.615s-21.624-31.437-11.615-47.86c10.009-16.424 44.732-43.441 61.156-33.432s8.328 53.253-1.681 69.677z" fill="#82b732"/><path d="m416.807 79.322c-10.006 16.419-31.435 21.62-47.854 11.614-.64-.39-1.268-.799-1.87-1.231 9.809-1.502 18.918-7.163 24.489-16.304 8.597-14.108 15.783-48.017 7.22-63.649 7.483-2.736 14.506-3.276 19.702-.11 16.419 10.007 8.324 53.251-1.687 69.68z" fill="#79a72d"/></g><g><path d="m375.238 126.624c-10.563 1.567-21.713-.413-31.545-6.404-22.316-13.599-29.381-42.714-15.782-65.03s28.845-37.318 34.633-33.791c22.316 13.6 26.107 103.235 12.694 105.225z" fill="#a3e440"/><path d="m375.237 126.622c-10.212 1.518-20.994-.285-30.594-5.833 1.581-.058 3.171-.216 4.741-.451 10.919-1.624 10.438-61.32-2.154-90.804 6.644-6.732 12.277-9.979 15.314-8.128 22.313 13.597 26.112 103.229 12.693 105.216z" fill="#8dc637"/></g><g><path d="m327.059 110.362c3.449 10.106 10.32 19.109 20.151 25.1 22.316 13.599 51.43 6.533 65.03-15.782s19.944-42.742 14.157-46.269c-22.316-13.6-103.718 24.118-99.338 36.951z" fill="#a3e440"/><path d="m412.237 119.685c-13.213 21.682-41.072 28.964-63.105 16.886 14.118-1.522 27.395-9.359 35.358-22.425 10.984-18.024 17.236-34.818 16.186-42.466 10.773-1.858 20.11-1.682 25.717 1.735 5.788 3.527-.553 23.948-14.156 46.27z" fill="#8dc637"/></g></g></g><g><path d="m306.169 174.791c0 11.248-9.118 20.366-20.366 20.366s-20.366-9.118-20.366-20.366 9.118-35.308 20.366-35.308 20.366 24.06 20.366 35.308z" fill="#a3e440"/><path d="m306.169 174.789c0 11.251-9.12 20.371-20.371 20.371-3.7 0-7.18-.99-10.171-2.73 6.08-3.52 10.171-10.101 10.171-17.641s-4.09-20.831-10.171-28.781c2.99-3.91 6.46-6.52 10.171-6.52 11.251 0 20.371 24.051 20.371 35.301z" fill="#8dc637"/></g><g><path d="m271.74 299.378c1.953 11.077-5.443 21.64-16.52 23.593s-21.64-5.443-23.593-16.52 2.849-36.355 13.926-38.308c11.076-1.953 24.233 20.158 26.187 31.235z" fill="#a3e440"/><path d="m271.74 299.376c1.954 11.08-5.444 21.645-16.524 23.599-3.644.643-7.243.272-10.49-.923 5.377-4.523 8.262-11.713 6.953-19.139s-7.645-19.804-15.014-26.578c2.266-4.37 5.23-7.543 8.884-8.187 11.079-1.953 24.237 20.149 26.191 31.228z" fill="#8dc637"/></g><g><path d="m270.282 435.218c3.847 10.57-1.603 22.256-12.172 26.103-10.57 3.847-22.256-1.603-26.103-12.172-3.847-10.57-3.508-36.297 7.062-40.144s27.366 15.643 31.213 26.213z" fill="#a3e440"/><path d="m270.281 435.216c3.848 10.572-1.603 22.262-12.175 26.11-3.477 1.266-7.086 1.526-10.491.913 4.51-5.387 6.103-12.97 3.524-20.056s-10.968-18.176-19.401-23.567c1.472-4.697 3.841-8.337 7.327-9.606 10.572-3.847 27.369 15.634 31.216 26.206z" fill="#8dc637"/></g></g></g><g><path d="m223.156 163.138c-3.419-4.074-8.739-6.182-15.499-6.294 1.677-3.105 3.283-5.951 4.796-8.539 4.258 1.055 8.625 1.59 13.025 1.59 4.338 0 8.706-.519 13.029-1.567 14.229-3.453 26.262-12.241 33.882-24.745 6.914-11.345 12.281-22.667 15.113-31.879 3.881-12.625 2.718-20.934-3.457-24.697-.027-.016-.055-.03-.082-.046 7.029-22.359 8.866-53.55-7.823-63.72-14.376-8.761-35.851 1.726-51.955 14.853-1.252-1.192-2.58-2.236-3.993-3.098-7.82-4.766-17.954.615-30.984 16.45-2.632 3.198-2.173 7.925 1.025 10.557s7.926 2.173 10.557-1.025c6.473-7.865 10.857-11.142 12.874-12.207 5.215 4.681 11.173 18.969 14.075 42.39-16.795 5.937-33.16 14.179-43.24 21.813-2.643-7.567-2.989-15.83-.839-23.669 1.096-3.995-1.254-8.121-5.249-9.217-3.994-1.095-8.121 1.254-9.217 5.249-3.508 12.789-2.203 26.395 3.489 38.25-3.877 5.636-11.342 17.212-20.05 34.364-3.703-3.632-8.073-5.967-13.084-5.967-18.101 0-27.866 30.385-27.866 42.808 0 10.86 6.249 20.283 15.336 24.879-.988 2.943-1.961 5.901-2.895 8.858-5.542 17.553-10.284 35.876-14.169 54.605-3.981-2.257-8.003-3.072-11.959-2.376-7.974 1.406-14.11 8.668-17.742 21-2.604 8.84-3.494 19.044-2.268 25.996 1.293 7.33 5.363 13.719 11.46 17.988 3.194 2.236 6.746 3.732 10.456 4.482-.276 2.907-.54 5.82-.777 8.719-.389 4.76-.734 9.762-1.057 15.29-.241 4.135 2.915 7.683 7.051 7.925.149.009.297.013.444.013 3.942 0 7.248-3.077 7.481-7.063.316-5.411.654-10.3 1.033-14.944.302-3.699.647-7.421 1.014-11.116 12.393-4.575 20.157-17.512 17.784-30.971-1.158-6.565-5.081-15.207-10.12-22.394 4.09-21.544 9.355-42.61 15.677-62.638 1.107-3.508 2.27-7.015 3.452-10.491 14.277-1.19 25.534-13.182 25.534-27.762 0-5.341-1.809-13.999-5.305-22.137 6.084-12.692 11.71-22.725 16.125-29.991 4.559 7.809 11.01 14.446 18.817 19.205.443.27.891.529 1.34.786-9.828 17.112-22.987 44.009-34.451 80.958-14.154 45.616-28.458 116.883-23.376 210.186-.008.365.015.726.059 1.082.842 15.04 2.169 30.629 4.101 46.795.469 3.925-.723 7.722-3.357 10.689-2.615 2.947-6.375 4.637-10.314 4.637-6.966 0-12.841-5.202-13.668-12.101-.676-5.639-1.28-11.325-1.835-16.972 6.464-2.67 11.62-7.588 14.594-13.966 3.146-6.746 3.476-14.313.931-21.308-2.415-6.634-8.288-15.026-14.963-21.38-1.373-1.307-2.737-2.477-4.091-3.538-.101-5.597-.146-11.218-.116-16.741.022-4.142-3.317-7.519-7.459-7.541-4.112.015-7.519 3.317-7.541 7.459-.018 3.352-.009 6.74.02 10.137-2.315-.155-4.549.134-6.676.908-7.609 2.77-12.39 10.987-13.825 23.762-1.029 9.158-.134 19.362 2.281 25.996 3.596 9.879 12.231 16.495 21.952 18.006.557 5.646 1.161 11.327 1.836 16.963 1.723 14.43 14.002 25.314 28.556 25.314 8.225 0 16.073-3.528 21.534-9.68 5.44-6.129 8.003-14.303 7.033-22.427-1.572-13.152-2.731-25.905-3.557-38.29 9.964-1.404 18.793-8.17 22.39-18.054 4.249-11.674 5.465-43.566-11.545-49.758-2.889-1.052-6.945-1.531-12.049.24.609-18.489 1.969-35.818 3.867-51.93 1.031.116 2.063.175 3.093.175 8.022-.001 15.878-3.483 21.329-9.979 7.985-9.517 20.035-39.07 6.169-50.705-4.704-3.948-11.395-4.893-19.419-2.899 2.686-11.248 5.529-21.485 8.369-30.637 1.159-3.734 2.335-7.358 3.522-10.877 2.785.902 5.675 1.355 8.564 1.355 6.382 0 12.75-2.192 17.922-6.533 5.408-4.538 11.285-12.927 14.973-21.373 5.145-11.782 5.113-21.288-.092-27.49zm-107.189 147.156c-1.971 2.815-4.921 4.694-8.305 5.291-3.386.598-6.799-.16-9.613-2.131-2.815-1.971-4.694-4.921-5.291-8.305-.699-3.965-.276-11.817 1.884-19.154 2.189-7.43 5.007-10.297 5.957-10.465.041-.007.086-.011.137-.011 1.126 0 4.64 1.841 9.04 7.807 4.54 6.156 7.623 13.39 8.322 17.354.596 3.384-.161 6.799-2.131 9.614zm152.366-294.245c7.406 4.513 7.71 26.874 1.131 47.039-8.514-.447-18.196 1.215-27.186 3.568-1.529-11.151-4.369-25.124-9.595-36.133 14.286-11.978 29.426-18.268 35.65-14.474zm-128.785 171.607c-7.094 0-12.866-5.772-12.866-12.866 0-4.026 1.78-11.685 5.182-18.535 3.445-6.937 6.719-9.272 7.683-9.272s4.238 2.335 7.683 9.272c3.402 6.85 5.182 14.51 5.182 18.535.002 7.095-5.77 12.866-12.864 12.866zm48.936-78.123c1.441-1.84 5.868-5.939 16.062-11.626 10.17-5.674 22.727-11.031 34.452-14.7 18.91-5.916 30.583-6.061 35.824-4.07.027 4.593-3.943 18.097-15.243 36.64-11.425 18.748-35.975 24.705-54.722 13.28-7.453-4.542-13.217-11.431-16.373-19.524zm-95.685 337.05c-1.377-3.783-2.324-11.589-1.47-19.19.865-7.697 3.143-11.011 4.049-11.34.096-.035.226-.054.387-.054 1.36 0 4.989 1.365 10.004 6.139 5.54 5.274 9.832 11.862 11.209 15.646 1.175 3.229 1.023 6.723-.43 9.838-1.452 3.114-4.03 5.477-7.26 6.652s-6.722 1.022-9.838-.429c-3.113-1.454-5.476-4.032-6.651-7.262zm68.978-58.696c.906.33 3.185 3.643 4.049 11.34.854 7.601-.093 15.407-1.47 19.191-1.517 4.167-5.045 7.134-9.144 8.113-.55-12.15-.77-23.909-.696-35.258 3.98-3.071 6.583-3.634 7.261-3.386zm17.897-114.804c.739.62 1.746 4.513-.074 12.042-1.797 7.435-5.357 14.446-7.944 17.531-2.776 3.307-6.897 4.912-10.983 4.549 1.588-11.024 3.417-21.399 5.396-31.148 8.239-4.005 12.828-3.626 13.605-2.974zm29.827-88.458c-3.061 7.009-7.785 13.297-10.868 15.885-3.352 2.812-7.786 3.668-11.802 2.521 4.273-11.375 8.594-21.423 12.725-30.155 7.637-1.864 11.524-.793 12.109-.095.62.738.935 4.746-2.164 11.844z"/><path d="m430.3 67.006c-.027-.016-.055-.03-.082-.046 7.029-22.36 8.865-53.55-7.824-63.72-5.283-3.22-14.746-5.672-29.831.931-7.185 3.146-14.886 8.005-22.152 13.938-1.436-1.386-2.782-2.393-3.963-3.114-6.178-3.766-14.095-.988-23.535 8.248-6.89 6.74-14.492 16.699-21.405 28.044-9.746 15.991-10.614 35.632-2.579 52.312-3.879 5.64-11.339 17.209-20.041 34.35-3.703-3.632-8.072-5.967-13.083-5.967-18.101 0-27.866 30.385-27.866 42.808 0 10.86 6.248 20.282 15.335 24.878-.985 2.935-1.957 5.89-2.895 8.859-5.541 17.549-10.283 35.872-14.169 54.604-3.98-2.257-8.003-3.072-11.96-2.375-7.974 1.406-14.11 8.668-17.742 21-2.604 8.841-3.494 19.045-2.268 25.997 2.044 11.592 11.026 20.235 21.917 22.454-.277 2.91-.542 5.828-.779 8.736-1.649 20.207-2.391 41.057-2.213 62.104-2.31-.152-4.54.137-6.663.91-7.609 2.77-12.389 10.986-13.825 23.761-1.029 9.158-.134 19.362 2.28 25.996 3.596 9.88 12.233 16.496 21.954 18.007.557 5.644 1.157 11.319 1.833 16.962 1.731 14.433 14.01 25.317 28.564 25.317 8.225 0 16.074-3.528 21.534-9.68 5.44-6.129 8.003-14.303 7.033-22.427-1.571-13.143-2.729-25.889-3.556-38.266 10.065-1.362 18.774-8.147 22.388-18.078 4.249-11.674 5.464-43.566-11.544-49.758-2.907-1.058-6.963-1.522-12.049.242.609-18.503 1.971-35.843 3.871-51.966.992.106 1.986.163 2.979.163 8.086 0 16.042-3.501 21.438-9.933 7.986-9.517 20.036-39.07 6.17-50.705-4.697-3.941-11.39-4.891-19.419-2.899 2.686-11.248 5.529-21.485 8.369-30.638 1.161-3.742 2.342-7.371 3.534-10.897 2.777.892 5.659 1.346 8.541 1.346 6.403 0 12.791-2.189 17.934-6.505 5.407-4.538 11.285-12.927 14.972-21.373 5.145-11.782 5.113-21.288-.092-27.49-3.417-4.071-8.731-6.179-15.483-6.294 1.735-3.223 3.344-6.077 4.791-8.556 1.845.453 3.718.813 5.619 1.074.347.047.691.071 1.032.071 3.688 0 6.904-2.722 7.42-6.479.564-4.104-2.304-7.888-6.408-8.453-5.431-.747-10.569-2.579-15.27-5.444-7.453-4.542-13.217-11.432-16.374-19.525 1.441-1.84 5.868-5.939 16.063-11.627 10.171-5.674 22.73-11.031 34.455-14.7 18.905-5.914 30.579-6.06 35.821-4.07.026 4.593-3.943 18.097-15.243 36.64-2.601 4.267-5.936 7.962-9.913 10.981-3.299 2.505-3.943 7.21-1.437 10.509 2.503 3.298 7.207 3.943 10.509 1.438 5.476-4.159 10.069-9.247 13.649-15.122 6.914-11.345 12.281-22.667 15.113-31.879 3.883-12.622 2.72-20.931-3.455-24.694zm-152.18 89.249c3.445-6.937 6.719-9.272 7.684-9.272.964 0 4.237 2.335 7.683 9.272 3.402 6.85 5.182 14.51 5.182 18.535 0 7.094-5.771 12.866-12.865 12.866s-12.866-5.772-12.866-12.866c0-4.025 1.78-11.685 5.182-18.535zm-39.107 148.893c-.699-3.965-.276-11.816 1.885-19.154 2.188-7.431 5.007-10.298 5.956-10.465.041-.007.086-.011.137-.011 1.126 0 4.64 1.841 9.04 7.807 4.54 6.156 7.623 13.39 8.323 17.354 1.232 6.987-3.45 13.673-10.436 14.904-6.99 1.233-13.674-3.448-14.905-10.435zm.041 141.436c-1.377-3.783-2.324-11.59-1.47-19.191.865-7.697 3.143-11.011 4.049-11.34.096-.035.226-.054.387-.054 1.36 0 4.989 1.365 10.004 6.139 5.54 5.274 9.833 11.863 11.21 15.646 2.427 6.666-1.023 14.064-7.689 16.49-6.668 2.425-14.065-1.024-16.491-7.69zm68.978-58.697c.906.33 3.185 3.643 4.049 11.34.855 7.601-.093 15.407-1.47 19.191-1.525 4.191-5.011 7.173-9.143 8.136-.551-12.158-.771-23.924-.697-35.281 4.347-3.36 6.809-3.55 7.261-3.386zm17.897-114.804c.739.62 1.746 4.513-.073 12.042-1.797 7.434-5.358 14.446-7.945 17.531-2.734 3.258-6.888 4.889-10.982 4.544 1.588-11.02 3.416-21.391 5.394-31.137 8.249-4.002 12.843-3.622 13.606-2.98zm31.991-100.303c.62.739.936 4.747-2.163 11.845-3.062 7.01-7.785 13.297-10.869 15.885-3.323 2.788-7.768 3.653-11.786 2.521 4.325-11.482 8.68-21.557 12.749-30.165 7.61-1.851 11.485-.782 12.069-.086zm-14.613-30.913c.445.271.899.519 1.349.776-8.851 15.454-22.649 42.896-34.461 80.967-16.486 53.134-33.202 141.037-19.216 258.063.47 3.925-.723 7.722-3.357 10.689-2.615 2.947-6.375 4.637-10.315 4.637-6.965 0-12.841-5.202-13.669-12.101-.676-5.648-1.276-11.328-1.831-16.975 13.691-5.664 20.638-21.216 15.522-35.271-2.415-6.634-8.288-15.026-14.964-21.38-1.377-1.311-2.744-2.483-4.102-3.545-.414-22.907.274-45.628 2.064-67.564.303-3.704.648-7.425 1.014-11.116 12.393-4.575 20.156-17.512 17.783-30.971-1.157-6.565-5.081-15.207-10.12-22.394 4.091-21.548 9.356-42.615 15.678-62.638 1.112-3.524 2.274-7.028 3.452-10.491 14.277-1.19 25.533-13.182 25.533-27.762 0-5.341-1.809-13.999-5.305-22.137 6.085-12.694 11.711-22.727 16.125-29.993 4.561 7.81 11.012 14.447 18.82 19.206zm-12.567-48.886c-3.909-11.144-2.716-23.563 3.576-33.888 11.319-18.574 21.516-28.293 25.597-30.353 6.836 5.913 11.832 24.619 14.079 42.419-16.801 5.94-33.172 14.186-43.252 21.822zm57.798-26.326c-2.259-16.71-5.818-28.21-9.617-36.116 14.285-11.971 29.464-18.272 35.667-14.49 7.406 4.514 7.711 26.875 1.132 47.04-8.513-.447-18.193 1.214-27.182 3.566z"/></g></g></svg>