<svg id="Capa_1" enable-background="new 0 0 512 512" height="512" viewBox="0 0 512 512" width="512" xmlns="http://www.w3.org/2000/svg"><g><g><path d="m219.373 78.376c-4.671-25.512-26.904-44.044-52.84-44.044-25.936 0-48.169 18.532-52.84 44.044v.002c-3.274 47.982-24.3 92.905-58.608 126.609-29.369 28.852-47.585 69.016-47.585 113.439-.001 87.748 71.2 158.988 158.948 159.034 87.87.046 159.117-71.173 159.117-159.032 0-44.264-18.085-84.3-47.269-113.13-34.323-33.906-55.638-78.787-58.923-126.922z" fill="#80d261"/><path d="m325.567 318.432c0 87.851-71.252 159.073-159.123 159.023-8.52 0-16.89-.684-25.049-1.982 75.88-12.062 133.874-77.781 133.874-157.041 0-44.272-18.087-84.31-47.27-113.131-34.324-33.911-55.64-78.787-58.919-126.922-3.048-16.629-13.56-30.3-27.694-37.794 7.545-4.014 16.126-6.257 25.149-6.257 25.934 0 48.166 18.54 52.843 44.051 3.279 48.135 24.596 93.011 58.919 126.922 29.182 28.821 47.27 68.859 47.27 113.131z" fill="#68ca44"/><path d="m398.308 78.376c-4.671-25.512-26.904-44.044-52.84-44.044-25.936 0-48.169 18.532-52.84 44.044v.002c-3.274 47.982-24.3 92.905-58.608 126.609-29.368 28.852-47.584 69.017-47.584 113.439-.001 87.748 71.2 158.988 158.948 159.034 87.87.046 159.117-71.173 159.117-159.032 0-44.264-18.085-84.3-47.269-113.13-34.324-33.906-55.639-78.787-58.924-126.922z" fill="#ade194"/><path d="m504.497 318.432c0 87.851-71.242 159.073-159.113 159.023-8.521 0-16.89-.684-25.049-1.982 75.88-12.062 133.864-77.781 133.864-157.041 0-44.272-18.087-84.31-47.27-113.131-34.324-33.911-55.63-78.787-58.919-126.922-3.038-16.629-13.55-30.3-27.684-37.794 7.545-4.014 16.116-6.257 25.139-6.257 25.944 0 48.176 18.54 52.843 44.051 3.29 48.135 24.596 93.011 58.919 126.922 29.183 28.821 47.27 68.859 47.27 113.131z" fill="#80d261"/><path d="m440.267 222.473c-38.559-38.086-61.927-88.052-65.931-140.855-2.998-13.48-14.959-23.147-28.871-23.147-13.902 0-25.873 9.667-28.861 23.147-4.014 53.024-27.292 102.9-65.659 140.594-26.034 25.572-40.369 59.734-40.369 96.21 0 74.341 60.479 134.86 134.819 134.89h.07c36.034 0 69.904-14.023 95.386-39.504 25.471-25.471 39.504-59.352 39.504-95.375-.001-36.346-14.235-70.418-40.088-95.96zm0 0c-38.559-38.086-61.927-88.052-65.931-140.855-2.998-13.48-14.959-23.147-28.871-23.147-13.902 0-25.873 9.667-28.861 23.147-4.014 53.024-27.292 102.9-65.659 140.594-26.034 25.572-40.369 59.734-40.369 96.21 0 74.341 60.479 134.86 134.819 134.89h.07c36.034 0 69.904-14.023 95.386-39.504 25.471-25.471 39.504-59.352 39.504-95.375-.001-36.346-14.235-70.418-40.088-95.96zm0 0c-38.559-38.086-61.927-88.052-65.931-140.855-2.998-13.48-14.959-23.147-28.871-23.147-13.902 0-25.873 9.667-28.861 23.147-4.014 53.024-27.292 102.9-65.659 140.594-26.034 25.572-40.369 59.734-40.369 96.21 0 74.341 60.479 134.86 134.819 134.89h.07c36.034 0 69.904-14.023 95.386-39.504 25.471-25.471 39.504-59.352 39.504-95.375-.001-36.346-14.235-70.418-40.088-95.96z" fill="#fef48b"/><path d="m440.267 222.473c-38.559-38.086-61.927-88.052-65.931-140.855-2.998-13.48-14.959-23.147-28.871-23.147-1.75 0-3.471.151-5.151.453 3.732 5.774 6.398 12.343 7.696 19.455 3.29 48.135 24.596 93.011 58.919 126.922 29.183 28.821 47.27 68.858 47.27 113.131 0 51.978-24.938 98.142-63.517 127.154 18.661-6.619 35.752-17.363 50.168-31.779 25.471-25.471 39.504-59.352 39.504-95.375 0-36.345-14.234-70.417-40.087-95.959zm0 0c-38.559-38.086-61.927-88.052-65.931-140.855-2.998-13.48-14.959-23.147-28.871-23.147-1.75 0-3.471.151-5.151.453 3.732 5.774 6.398 12.343 7.696 19.455 3.29 48.135 24.596 93.011 58.919 126.922 29.183 28.821 47.27 68.858 47.27 113.131 0 51.978-24.938 98.142-63.517 127.154 18.661-6.619 35.752-17.363 50.168-31.779 25.471-25.471 39.504-59.352 39.504-95.375 0-36.345-14.234-70.417-40.087-95.959zm0 0c-38.559-38.086-61.927-88.052-65.931-140.855-2.998-13.48-14.959-23.147-28.871-23.147-1.75 0-3.471.151-5.151.453 3.732 5.774 6.398 12.343 7.696 19.455 3.29 48.135 24.596 93.011 58.919 126.922 29.183 28.821 47.27 68.858 47.27 113.131 0 51.978-24.938 98.142-63.517 127.154 18.661-6.619 35.752-17.363 50.168-31.779 25.471-25.471 39.504-59.352 39.504-95.375 0-36.345-14.234-70.417-40.087-95.959z" fill="#fee45a"/><g><circle cx="345.465" cy="315.949" fill="#d6694b" r="78.084"/><path d="m345.465 237.864c-6.066 0-11.961.715-17.629 2.023 34.63 7.996 60.455 39.002 60.455 76.061s-25.826 68.066-60.455 76.061c5.668 1.309 11.563 2.023 17.629 2.023 43.125 0 78.084-34.96 78.084-78.085s-34.96-78.083-78.084-78.083z" fill="#c4573a"/></g></g><g><path d="m364.857 232.573c-4.037-.936-8.065 1.579-9 5.613-.936 4.035 1.578 8.064 5.613 9 15.27 3.539 29.126 12.257 39.018 24.548 10.18 12.651 15.561 27.94 15.561 44.215 0 38.92-31.664 70.584-70.584 70.584s-70.584-31.664-70.584-70.584c0-16.296 5.394-31.601 15.597-44.259 9.915-12.301 23.799-21.013 39.096-24.531 4.037-.928 6.557-4.953 5.628-8.99-.928-4.037-4.956-6.559-8.99-5.628-18.559 4.268-35.397 14.829-47.413 29.735-12.2 15.135-18.918 34.197-18.918 53.673 0 47.191 38.393 85.584 85.584 85.584s85.584-38.393 85.584-85.584c0-19.451-6.703-38.494-18.875-53.619-11.987-14.897-28.791-25.464-47.317-29.757z"/><path d="m97.114 408.429c-7.456-8.178-11.562-18.776-11.562-29.843v-33.988c0-4.142-3.358-7.5-7.5-7.5s-7.5 3.358-7.5 7.5v33.988c0 14.814 5.497 29.002 15.479 39.949l15.371 16.858c1.48 1.623 3.508 2.447 5.544 2.447 1.804 0 3.613-.647 5.051-1.958 3.061-2.791 3.28-7.534.489-10.595z"/><path d="m149.287 107.218c-3.966-1.192-8.149 1.055-9.343 5.021l-9.163 30.459c-1.193 3.967 1.055 8.149 5.021 9.343.721.217 1.448.32 2.164.32 3.224 0 6.203-2.095 7.179-5.341l9.163-30.459c1.193-3.967-1.055-8.15-5.021-9.343z"/><path d="m193.121 112.239c-1.193-3.967-5.376-6.216-9.343-5.021-3.966 1.193-6.215 5.376-5.021 9.343l9.163 30.459c.977 3.246 3.955 5.341 7.179 5.341.715 0 1.443-.103 2.164-.32 3.966-1.193 6.215-5.376 5.021-9.343z"/><path d="m462.502 199.963c-33.454-33.047-53.594-76.409-56.712-122.097-14.363-69.865-108.718-65.624-120.646.001-2.147 31.46-12.238 61.678-29.079 88.09-17.026-26.692-27.084-56.929-29.211-88.092-14.241-70.029-108.859-65.467-120.646.001-3.131 45.882-23.154 89.128-56.381 121.77-32.13 31.567-49.827 73.754-49.827 118.79-.001 91.779 74.666 166.486 166.444 166.534h.088c33.352 0 65.537-9.826 93.073-28.417 3.744-2.217 5.23-9.573.428-12.974-41.389-28.326-66.099-75.109-66.098-125.143 0-40.979 16.103-79.365 45.34-108.089 8.374-8.227 15.96-17.087 22.729-26.456.05-.065.096-.132.143-.199 22.034-30.574 35.272-66.622 37.931-104.353 12.04-52.001 81.158-47.505 90.777 0 3.466 49.176 25.155 95.791 61.104 131.304 29.046 28.692 45.041 66.974 45.041 107.795 0 40.49-15.771 78.552-44.409 107.176-28.621 28.607-66.657 44.356-107.122 44.356-.025 0-.057 0-.082 0-19.349-.01-38.195-3.621-56.013-10.733-3.849-1.536-8.21.338-9.746 4.186-1.535 3.847.338 8.21 4.186 9.746 19.592 7.82 40.306 11.791 61.565 11.802h.089c44.467 0 86.273-17.31 117.726-48.747 31.473-31.458 48.806-73.289 48.806-117.786 0-44.862-17.579-86.934-49.498-118.465zm-233.738-.326c-32.132 31.566-49.828 73.753-49.829 118.789 0 51.314 23.649 99.505 63.765 131.01-23.066 13.446-49.189 20.524-76.168 20.524-.026 0-.054 0-.08 0-83.512-.044-151.453-68.021-151.452-151.534 0-40.979 16.103-79.365 45.34-108.089 35.741-35.112 57.324-81.623 60.804-131.008 12.039-52 81.158-47.505 90.776 0 2.505 35.544 14.546 69.936 34.897 99.848-5.489 7.189-11.511 14.033-18.053 20.46z"/><path d="m446.153 419.111c26.892-26.891 41.701-62.646 41.701-100.679 0-38.361-15.028-74.335-42.317-101.294-37.227-36.77-59.857-85.1-63.723-136.086-9.362-41.585-65.426-38.111-72.689.001-3.875 51.196-26.404 99.427-63.436 135.809-27.48 26.992-42.614 63.06-42.614 101.561 0 78.482 63.843 142.358 142.39 142.39 38.038-.001 73.797-14.811 100.688-41.702zm-228.078-100.689c0-34.443 13.54-66.711 38.126-90.86 39.484-38.791 63.562-90.197 67.837-144.799 6.49-23.19 37.596-21.037 42.864.001 4.266 54.38 28.435 105.872 68.094 145.045 24.414 24.119 37.859 56.303 37.859 90.624 0 34.026-13.25 66.014-37.308 90.072s-56.05 37.307-90.15 37.307c-70.206-.029-127.322-57.175-127.322-127.39z"/></g></g></svg>