<svg id="Capa_1" enable-background="new 0 0 512 512" height="512" viewBox="0 0 512 512" width="512" xmlns="http://www.w3.org/2000/svg"><g><path d="m211.468 475.141 6.008 18.491c2.106 6.48 8.144 10.868 14.958 10.868h47.133c6.814 0 12.853-4.387 14.958-10.868l6.008-18.491z" fill="#dbf4b2"/><path d="m251.336 493.632-6.008-18.491h-33.86l6.008 18.491c2.106 6.48 8.144 10.868 14.958 10.868h33.86c-6.814 0-12.853-4.387-14.958-10.868z" fill="#d1f19e"/><g><path d="m352.649 403.724-20.507-38.766c-7.853-14.845-13.052-30.949-15.361-47.584l-1.404-10.113-37.713 17.586c2.696 13.981 7.443 27.501 14.114 40.112l20.507 38.766c16.216 30.654-3.928 67.206-37.182 71.075 1.904.222 3.848.343 5.833.343h28.697c36.665-.002 60.16-39.01 43.016-71.419z" fill="#a2e62e"/><g><path d="m198.636 403.724 20.507-38.766c6.744-12.749 11.524-26.428 14.204-40.572l-36.725-17.125-1.404 10.113c-2.309 16.635-7.508 32.739-15.361 47.584l-20.507 38.766c-17.144 32.409 6.351 71.418 43.015 71.418h28.697c1.798 0 3.563-.097 5.294-.279-33.574-3.535-54.023-40.319-37.72-71.139z" fill="#bbec6c"/></g></g><g><g><g><path d="m234.504 317.374.772-5.564-77.485-134.208c-19.447-33.683-19.386-71.113-5.634-102.271-21.229-1.418-43.334 4.009-63.056 17.818-62.474 43.745-54.165 138.716 14.956 170.948l129.289 60.289c.442-2.326.832-4.663 1.158-7.012z" fill="#05e39c"/></g><path d="m234.504 317.374.772-5.564-21.499-37.238-76.3-35.579c-61.467-28.663-74.84-106.936-33.117-154.683-5.202 2.436-10.305 5.372-15.258 8.839-62.474 43.745-54.165 138.716 14.956 170.948l129.289 60.289c.441-2.326.831-4.663 1.157-7.012z" fill="#0ed290"/></g><path d="m422.898 93.149c-20.045-14.035-42.551-19.408-64.097-17.739 14.648 32.788 12.835 70.006-5.458 101.691l-77.592 134.393.753 6.004c.341 2.457.751 4.897 1.214 7.323l130.224-60.725c69.121-32.231 77.431-127.202 14.956-170.947z" fill="#05e39c"/></g><g><path d="m256 7.5c-87.297 0-141.857 94.501-98.209 170.102l77.485 134.208 20.724-149.281 20.724 149.281 77.485-134.208c43.648-75.601-10.913-170.102-98.209-170.102z" fill="#00c285"/><g><path d="m245.079 241.197-36.717-63.595c-39.256-67.993.933-151.259 72.923-167.332-8.054-1.798-16.5-2.77-25.285-2.77-87.296 0-141.856 94.501-98.208 170.102l77.485 134.208z" fill="#07b27b"/></g><g><path d="m277.496 317.374-21.496-154.845-21.496 154.845c-2.309 16.635-7.508 32.739-15.361 47.584l-20.507 38.766c-17.144 32.409 6.351 71.418 43.015 71.418h28.697c36.664 0 60.159-39.009 43.015-71.418l-20.507-38.766c-7.852-14.846-13.05-30.949-15.36-47.584z" fill="#bbec6c"/></g><g><path d="m232.714 403.724 20.507-38.766c7.853-14.845 13.051-30.949 15.361-47.584l4.457-32.107-17.039-122.738-21.496 154.845c-2.309 16.635-7.508 32.739-15.361 47.584l-20.507 38.766c-17.144 32.409 6.351 71.418 43.015 71.418h28.697c.916 0 1.822-.028 2.721-.076-35.125-1.833-57.08-39.725-40.355-71.342z" fill="#a2e62e"/></g></g><path d="m427.2 87.006c-18.897-13.232-40.708-19.757-62.663-19.388-6.586-13.38-15.613-25.566-26.727-35.847-22.144-20.488-51.199-31.771-81.81-31.771-43.708 0-82.85 22.598-104.703 60.45-1.364 2.362-2.642 4.752-3.835 7.167-21.955-.368-43.765 6.157-62.662 19.389-31.561 22.099-48.397 58.207-45.04 96.589 3.358 38.381 26.21 71.017 61.128 87.3l87.544 40.823-.642 4.625c-1.741 12.537-5.222 24.779-10.344 36.387-1.673 3.789.044 8.217 3.833 9.89 3.791 1.672 8.218-.044 9.89-3.834 5.685-12.88 9.546-26.466 11.479-40.38l.008-.056 22.127 10.318c-2.66 11.392-6.764 22.377-12.269 32.784l-20.506 38.766c-9.292 17.566-8.719 38.216 1.534 55.239 2.76 4.582 6.084 8.662 9.851 12.186h-1.026c-14.564 0-27.746-7.449-35.261-19.925-7.515-12.477-7.936-27.612-1.125-40.486l8.913-16.849c1.937-3.661.538-8.2-3.123-10.136-3.662-1.938-8.2-.54-10.137 3.123l-8.913 16.849c-9.292 17.566-8.718 38.216 1.535 55.239s28.238 27.186 48.11 27.186h3.653l4.324 13.308c3.119 9.6 11.996 16.05 22.091 16.05h47.133c10.095 0 18.972-6.45 22.091-16.05l4.324-13.308h3.653c19.872 0 37.857-10.163 48.11-27.186s10.827-37.673 1.535-55.239l-20.507-38.766c-7.467-14.115-12.366-29.291-14.562-45.108l-.642-4.626 87.544-40.823c34.918-16.283 57.77-48.918 61.128-87.3 3.357-38.383-13.48-74.491-45.041-96.59zm-319.972 170.294c-30.004-13.991-49.639-42.033-52.524-75.013s11.582-64.005 38.7-82.994c14.504-10.156 31.004-15.718 47.808-16.57-10.975 32.491-7.616 67.969 10.085 98.629l2.201 3.812c-4.282 2.976-11.65 2.082-20.223-2.458-10.299-5.454-20.701-15.214-29.291-27.48-2.375-3.393-7.051-4.219-10.445-1.842-3.394 2.376-4.218 7.052-1.842 10.445 9.926 14.176 22.199 25.588 34.559 32.133 7.477 3.959 14.604 5.946 21.027 5.946 5.076 0 9.705-1.258 13.718-3.749l21.569 37.359c-10.276 5.283-22.969 5.843-36.325 1.497-16.075-5.233-31.028-16.828-42.105-32.647-2.375-3.394-7.052-4.219-10.445-1.842-3.394 2.375-4.218 7.052-1.842 10.445 12.932 18.468 30.6 32.073 49.75 38.307 7.523 2.449 14.938 3.663 22.058 3.663 9.485 0 18.442-2.157 26.42-6.415l37.415 64.804-.007.048zm180.164 234.015c-1.104 3.4-4.25 5.685-7.825 5.685h-47.133c-3.575 0-6.721-2.285-7.825-5.685l-2.818-8.673h68.419zm38.121-122.85 20.507 38.766c6.811 12.875 6.39 28.009-1.125 40.486-7.515 12.476-20.696 19.925-35.261 19.925h-.981c4.234-3.982 7.907-8.678 10.856-14.011 2.004-3.625.691-8.188-2.934-10.193-3.624-2.005-8.188-.691-10.193 2.933-7.366 13.319-20.837 21.271-36.033 21.271h-28.697c-14.564 0-27.746-7.449-35.261-19.925s-7.935-27.611-1.124-40.486l20.506-38.766c8.286-15.664 13.723-32.506 16.16-50.06l14.067-101.333 14.067 101.333c2.438 17.554 7.874 34.396 16.16 50.06l20.507 38.766c1.617 3.057 2.849 6.276 3.662 9.567.994 4.021 5.051 6.476 9.08 5.483 4.021-.993 6.476-5.059 5.482-9.08-1.106-4.479-2.777-8.848-4.966-12.985l-20.506-38.766c-5.505-10.407-9.61-21.392-12.269-32.784l22.127-10.318.008.056c2.438 17.555 7.875 34.397 16.161 50.061zm131.784-186.178c-2.886 32.979-22.521 61.021-52.524 75.013l-120.259 56.078-.007-.048 38.041-65.888c8.224 4.446 17.459 6.703 27.213 6.703 6.749 0 13.748-1.081 20.827-3.261 18.925-5.83 36.268-18.924 48.835-36.873 2.376-3.393 1.552-8.07-1.842-10.445-3.393-2.375-8.069-1.55-10.445 1.842-10.664 15.229-25.211 26.289-40.963 31.141-13.193 4.064-25.821 3.292-36.119-2.107l20.948-36.282c4.013 2.492 8.64 3.749 13.718 3.749 6.422 0 13.552-1.987 21.027-5.946 12.359-6.545 24.633-17.957 34.559-32.133 2.376-3.393 1.552-8.069-1.842-10.445s-8.069-1.55-10.445 1.842c-8.59 12.267-18.992 22.026-29.291 27.48-8.575 4.54-15.944 5.434-20.223 2.458l2.201-3.812c6.847-11.859 11.615-24.533 14.173-37.669.792-4.066-1.862-8.003-5.928-8.795-4.07-.789-8.004 1.862-8.795 5.928-2.24 11.503-6.426 22.619-12.44 33.037l-66.565 115.293-9.065-65.299c14.307-4.201 27.36-13.995 37.762-28.631 13.644-19.199 21.158-44.595 21.158-71.51 0-4.142-3.357-7.5-7.5-7.5s-7.5 3.358-7.5 7.5c0 41.216-19.656 75.841-46.015 85.057l-6.49-46.751v-10.98c9.407-2.774 17.822-10.771 24.199-23.235 7.214-14.101 11.188-32.683 11.188-52.323 0-4.142-3.357-7.5-7.5-7.5s-7.5 3.358-7.5 7.5c0 29.5-9.685 51.74-20.387 59.067v-65.093c0-4.142-3.357-7.5-7.5-7.5s-7.5 3.358-7.5 7.5v65.091c-10.702-7.327-20.387-29.567-20.387-59.067 0-4.142-3.357-7.5-7.5-7.5s-7.5 3.358-7.5 7.5c0 19.64 3.974 38.222 11.188 52.323 6.377 12.464 14.792 20.461 24.199 23.235v10.98l-6.49 46.751c-26.359-9.216-46.015-43.841-46.015-85.057 0-4.142-3.357-7.5-7.5-7.5s-7.5 3.358-7.5 7.5c0 26.915 7.515 52.312 21.158 71.51 10.402 14.637 23.455 24.43 37.762 28.631l-9.065 65.299-66.565-115.293c-19.143-33.156-19.143-72.746.001-105.902 19.143-33.156 53.428-52.95 91.713-52.95 27.212 0 51.979 9.606 71.624 27.78 18.569 17.179 30.513 40.404 33.632 65.397.513 4.11 4.259 7.025 8.371 6.514 4.11-.513 7.026-4.261 6.514-8.371-1.007-8.065-2.82-15.968-5.381-23.598 16.812.847 33.326 6.411 47.837 16.572 27.118 18.988 41.586 50.014 38.7 82.993z"/></g></svg>