<svg id="Capa_1" enable-background="new 0 0 512 512" height="512" viewBox="0 0 512 512" width="512" xmlns="http://www.w3.org/2000/svg"><g><g><g><path d="m291.907 128.132c9.805 3.156 19.57 11.521 22.829 13.383 9.69 5.537 21.957-10.958 24.974-57.804-18.607-24.925-48.333-41.063-81.829-41.063-8.391 0-16.543 1.02-24.346 2.93 31.308 15.743 53.852 46.345 58.372 82.554z" fill="#a2e62e"/><g><path d="m214.83 171.804c11.856 11.856 24.608 21.93 37.771 30.158 7.94-13.607 14.18-29.437 15.161-46.455 1.602-27.761 12.9-30.994 24.144-27.375-5.077-40.675-32.894-74.285-70.334-87.692-1.078-.386-2.266-.386-3.344 0-23.069 8.261-42.477 24.198-55.173 44.725 7.991 29.782 25.537 60.4 51.775 86.639z" fill="#bbec6c"/></g><path d="m219.356 242.739c8.152-7.526 22.313-22.041 33.245-40.777-13.163-8.228-25.916-18.302-37.771-30.158-26.765-26.765-44.492-58.087-52.25-88.431-1.097-4.291-6.832-5.158-9.11-1.36-10.119 16.868-15.855 36.665-15.625 57.82.54 49.676 34.451 91.767 80.236 104.794.261-.686.675-1.334 1.275-1.888z" fill="#a2e62e"/><path d="m219.356 242.739c3.856-3.56 9.061-8.691 14.63-15.083-45.488-13.219-79.111-55.165-79.649-104.629-.158-14.574 2.516-28.502 7.502-41.273-1.935-2.816-6.417-2.996-8.37.259-10.119 16.868-15.855 36.665-15.625 57.82.54 49.676 34.451 91.767 80.236 104.794.262-.686.676-1.334 1.276-1.888z" fill="#97d729"/><g><path d="m221.459 251.226c-3.792-1.033-4.99-5.821-2.103-8.487 14.072-12.993 46.073-46.783 48.407-87.232 2.998-51.97 39.977-17.99 46.973-13.992 9.702 5.544 21.987-10.994 24.985-57.966s76.606 57.441-.999 137.92c-42.651 44.23-96.538 35.404-117.263 29.757z" fill="#97d729"/></g><g><path d="m342.758 73.568c13.139 28.815 18.407 82.871-26.129 129.057-29.958 31.067-65.458 35.958-91.117 34.161-2.277 2.302-4.363 4.298-6.156 5.954-2.888 2.666-1.689 7.453 2.103 8.487 20.725 5.647 74.612 14.474 117.263-29.757 69.444-72.018 17.813-163.18 4.036-147.902z" fill="#a2e62e"/></g></g><path d="m344.12 226.674c11.165-11.578 20.001-24.359 26.265-37.989 1.73-3.764.081-8.217-3.683-9.946-3.765-1.731-8.217-.08-9.946 3.683-5.559 12.094-13.442 23.479-23.433 33.841-37.099 38.473-83.426 33.984-105.537 28.827.211-.204.429-.42.643-.629 2.03.093 4.114.148 6.259.148 25.598-.001 58.824-7.207 87.34-36.779 36.125-37.461 42.028-81.019 35.011-114.397.989 2.004 1.979 4.235 2.942 6.74 3.444 8.961 8.779 27.476 5.812 50.794-.522 4.108 2.385 7.863 6.494 8.387 4.114.52 7.863-2.385 8.387-6.494 5.33-41.903-11.474-75.465-24.509-84.952-6.846-4.982-12.303-3.644-14.948-2.403-1.686.792-3.139 1.917-4.36 3.369-19.948-20.77-47.974-33.725-78.977-33.725-8.041 0-15.877.887-23.43 2.539-3.357-1.589-6.803-3.039-10.349-4.309-.001-.001-.001-.001-.002-.001-2.708-.969-5.69-.97-8.399.001-21.778 7.798-40.116 21.824-53.347 39.614-.895-.355-1.839-.614-2.822-.757-4.991-.728-9.898 1.594-12.493 5.919-11.158 18.599-16.93 39.954-16.693 61.76.335 30.804 12.61 59.859 34.565 81.812 13.164 13.163 28.881 22.841 45.996 28.558 1.306 3.971 4.503 7.067 8.581 8.178 8.418 2.293 21.719 5.013 37.459 5.012 26.105-.002 58.906-7.485 87.174-36.801zm.149-117.044c1.573 19.313-1.95 41.266-14.066 62.601-1.7-4.871-4.486-9.445-8.372-13.332-2.93-2.928-7.678-2.928-10.607 0-2.929 2.93-2.929 7.678 0 10.607 6.462 6.462 7.691 16.2 3.696 23.914-1.192 1.339-2.412 2.674-3.689 3.997-2.32 2.406-4.678 4.633-7.062 6.711-.969-7.791-4.469-15.001-10.115-20.646-2.928-2.928-7.677-2.929-10.606.001-2.929 2.929-2.929 7.678.001 10.606 3.873 3.873 6.006 9.017 6.006 14.483 0 2.445-.449 4.817-1.267 7.048-15.661 9.118-31.665 12.78-45.768 13.715 3.947-4.735 7.965-10.01 11.79-15.767 12.874-19.377 19.954-38.767 21.042-57.632.944-16.358 5.236-20.124 7.038-20.984 6.16-2.946 19.366 6.528 24.336 10.096 1.862 1.336 3.208 2.302 4.391 2.978 4.637 2.65 9.801 2.706 14.535.156 10.068-5.421 15.65-21.243 18.717-38.552zm-86.388-59.482c30.018 0 56.81 14.064 74.143 35.947-3.01 40.514-12.34 48.053-13.618 48.879-.545-.324-1.865-1.271-3.034-2.11-3.397-2.438-7.919-5.68-12.999-8.373.535-7.782 3.754-15.411 9.69-21.347 2.929-2.93 2.929-7.678 0-10.607-2.93-2.928-7.678-2.928-10.607 0-3.181 3.181-5.807 6.707-7.917 10.447-1.928-5.386-4.253-10.603-6.941-15.616 1.559-5.31 4.429-10.18 8.456-14.206 2.93-2.929 2.93-7.678.001-10.606s-7.678-2.93-10.606-.001c-2.948 2.948-5.454 6.215-7.516 9.713-6.256-8.276-13.64-15.704-21.954-22.063.964-.031 1.93-.057 2.902-.057zm-37.979-2.337c32.075 11.818 55.457 39.195 62.848 71.695-2.34.229-4.662.831-6.923 1.911-9.417 4.495-14.504 15.505-15.551 33.658-.744 12.9-4.811 25.147-10.363 36.169-10.207-6.981-20.008-15.055-29.171-24.146-3.54-5.397-5.445-11.701-5.445-18.297 0-8.936 3.485-17.343 9.814-23.671 2.929-2.93 2.929-7.678 0-10.607-2.928-2.928-7.677-2.928-10.606 0-7.993 7.993-12.851 18.28-13.961 29.368-4.71-6.297-9.004-12.797-12.847-19.432-.922-3.083-1.402-6.315-1.402-9.621 0-8.936 3.486-17.343 9.815-23.671 2.929-2.929 2.929-7.678 0-10.606-2.929-2.93-7.678-2.929-10.606-.001-4.764 4.764-8.403 10.347-10.807 16.425-1.296-3.501-2.453-7.013-3.483-10.527 11.492-17.366 28.331-31.147 48.688-38.647zm-4.294 188.167c-40.291-13.597-69.779-51.736-70.263-96.228-.185-16.996 3.812-33.677 11.601-48.604 6.686 22.594 18.519 45.004 34.294 65.247-10.465.39-20.252 4.646-27.705 12.099-2.929 2.929-2.929 7.678 0 10.606s7.678 2.929 10.606-.001c4.994-4.993 11.625-7.743 18.674-7.743s13.681 2.75 18.674 7.743c.242.242.501.457.766.66 9.488 9.18 19.608 17.359 30.138 24.476-9.207 14.103-19.89 25.242-26.785 31.745z"/></g><g><g><g><path d="m398.466 290.564c12.478 15.42 20.367 33.943 22.816 53.566l.079.633.606.195c7.114 2.289 14.157 7.343 18.818 10.688 1.638 1.175 2.931 2.103 3.82 2.611 1.347.77 2.746 1.16 4.16 1.16h.002c8.846-.003 19.272-15.439 22.223-58.578-18.538-25.634-48.691-42.317-82.744-42.317-8.928 0-17.587 1.15-25.84 3.304 13.904 6.797 26.224 16.582 36.06 28.738z" fill="#a2e62e"/></g><path d="m345.198 387.678c11.856 11.856 24.608 21.93 37.771 30.158 7.94-13.607 14.18-29.437 15.161-46.455 1.602-27.761 12.9-30.994 24.144-27.375-5.077-40.674-32.894-74.285-70.334-87.692-1.078-.386-2.266-.386-3.344 0-23.068 8.261-42.477 24.198-55.173 44.725 7.991 29.783 25.537 60.401 51.775 86.639z" fill="#bbec6c"/><path d="m349.724 458.614c8.152-7.526 22.313-22.041 33.245-40.777-13.163-8.228-25.916-18.302-37.771-30.158-26.765-26.765-44.492-58.087-52.25-88.431-1.097-4.291-6.832-5.158-9.11-1.36-10.119 16.867-15.855 36.665-15.625 57.82.54 49.677 34.451 91.767 80.236 104.794.261-.686.675-1.334 1.275-1.888z" fill="#a2e62e"/><path d="m349.724 458.614c3.851-3.556 9.048-8.678 14.609-15.059-45.31-13.332-78.761-55.192-79.297-104.528-.157-14.478 2.482-28.318 7.406-41.021-1.78-3.172-6.567-3.513-8.603-.119-10.119 16.867-15.855 36.665-15.625 57.82.54 49.677 34.451 91.767 80.236 104.794.26-.685.674-1.333 1.274-1.887z" fill="#97d729"/><g><path d="m351.827 467.101c-3.792-1.033-4.99-5.821-2.103-8.487 14.072-12.993 46.073-46.783 48.407-87.232 2.998-51.97 39.977-17.99 46.973-13.992 9.702 5.544 21.987-10.994 24.986-57.966s76.606 57.441-.999 137.92c-42.653 44.23-96.539 35.404-117.264 29.757z" fill="#97d729"/></g><g><path d="m473.126 289.442c13.139 28.815 18.407 82.871-26.129 129.057-29.958 31.067-65.458 35.958-91.117 34.161-2.277 2.302-4.363 4.298-6.156 5.954-2.888 2.666-1.689 7.453 2.103 8.487 20.725 5.647 74.612 14.474 117.263-29.757 69.444-72.017 17.813-163.18 4.036-147.902z" fill="#a2e62e"/></g></g><path d="m498.725 298.623c-7.551-13.359-16.551-19.955-24.705-18.082-2.238.513-4.713 1.709-6.797 4.204-19.948-20.768-47.973-33.721-78.974-33.721-8.035 0-15.864.885-23.411 2.535-3.378-1.6-6.837-3.04-10.37-4.305-2.708-.97-5.69-.97-8.398.001-21.778 7.798-40.117 21.824-53.348 39.614-.895-.355-1.839-.614-2.821-.758-4.998-.728-9.898 1.594-12.494 5.919-11.157 18.598-16.93 39.953-16.693 61.76.336 30.803 12.611 59.858 34.565 81.812 13.164 13.162 28.882 22.841 45.997 28.557 1.306 3.971 4.503 7.067 8.58 8.178 8.417 2.294 21.722 5.014 37.462 5.013 26.104 0 58.901-7.483 87.171-36.8 52.656-54.607 38.878-118.024 24.236-143.927zm-24.088 26.877c1.571 19.315-1.945 41.269-14.066 62.607-1.7-4.872-4.486-9.446-8.373-13.333-2.93-2.928-7.678-2.928-10.607 0-2.929 2.93-2.929 7.678 0 10.607 6.473 6.472 7.697 16.231 3.679 23.951-1.183 1.328-2.406 2.648-3.671 3.96-2.328 2.414-4.696 4.642-7.089 6.727-.941-7.559-4.297-14.871-10.088-20.662-2.93-2.928-7.678-2.928-10.607 0-2.929 2.93-2.929 7.678 0 10.607 5.815 5.814 7.375 14.278 4.723 21.537-15.673 9.123-31.688 12.781-45.796 13.716 14.801-17.776 31.169-43.809 32.876-73.404.944-16.358 5.236-20.124 7.038-20.984 6.167-2.945 19.367 6.529 24.336 10.095 1.862 1.337 3.208 2.302 4.391 2.978 4.637 2.65 9.8 2.707 14.536.156 10.069-5.423 15.652-21.247 18.718-38.558zm-124.368-61.814c16.432 6.056 31.046 16.399 42.314 29.957 2.648 3.186 7.375 3.623 10.562.974 3.186-2.647 3.621-7.376.974-10.562-5.579-6.713-11.881-12.732-18.751-17.977.958-.029 1.916-.055 2.881-.055 30.018 0 56.81 14.064 74.143 35.947-3.011 40.517-12.341 48.053-13.619 48.878-.544-.322-1.865-1.271-3.035-2.11-4.201-3.015-10.118-7.258-16.687-10.172-1.253-7.562-3.251-14.982-6.012-22.194-1.481-3.867-5.815-5.803-9.687-4.321-3.868 1.481-5.803 5.818-4.321 9.687 1.708 4.461 3.074 9.016 4.115 13.642-2.35.227-4.681.829-6.951 1.913-9.417 4.495-14.505 15.505-15.552 33.658-.744 12.9-4.81 25.147-10.362 36.169-10.207-6.98-20.008-15.055-29.17-24.145-3.541-5.397-5.445-11.702-5.445-18.298 0-8.936 3.485-17.342 9.815-23.671 2.929-2.93 2.929-7.678 0-10.607-2.93-2.928-7.678-2.928-10.607 0-7.993 7.994-12.851 18.28-13.961 29.368-4.684-6.262-8.956-12.725-12.783-19.322-3.455-11.44-.674-24.377 8.35-33.402 2.929-2.929 2.929-7.678-.001-10.606-2.928-2.928-7.677-2.929-10.606.001-4.844 4.844-8.432 10.47-10.789 16.472-1.303-3.516-2.465-7.044-3.5-10.574 11.49-17.369 28.329-31.15 48.685-38.65zm-4.293 188.167c-40.291-13.597-69.78-51.736-70.263-96.227-.185-16.998 3.812-33.679 11.601-48.604 6.69 22.606 18.532 45.029 34.32 65.281-10.081.371-20.051 4.385-27.731 12.064-2.929 2.93-2.929 7.678 0 10.607 2.93 2.928 7.678 2.928 10.607 0 10.295-10.296 27.05-10.298 37.349 0 .24.24.497.454.76.655 9.49 9.182 19.612 17.363 30.144 24.481-9.209 14.1-19.892 25.24-26.787 31.743zm117.715-19.716c-37.103 38.474-83.433 33.981-105.539 28.826.208-.202.428-.42.641-.629 2.032.093 4.117.148 6.263.148 25.599-.001 58.824-7.207 87.34-36.778 36.128-37.466 42.031-81.032 35.011-114.412 2.061 4.166 4.084 9.273 5.774 15.355 4.989 17.95 12.102 64.358-29.49 107.49z"/></g><g><g><g><g><path d="m161.568 344.006c9.805 3.156 19.57 11.521 22.829 13.383 9.69 5.537 21.957-10.958 24.974-57.804-18.607-24.925-48.333-41.063-81.829-41.063-8.394 0-16.549 1.021-24.354 2.932 31.31 15.744 53.86 46.342 58.38 82.552z" fill="#a2e62e"/></g><path d="m84.491 387.678c11.856 11.856 24.608 21.93 37.771 30.158 7.94-13.607 14.18-29.437 15.161-46.455 1.602-27.762 12.9-30.994 24.144-27.375-5.077-40.674-32.894-74.285-70.334-87.692-1.078-.386-2.266-.386-3.344 0-23.069 8.261-42.477 24.198-55.173 44.725 7.991 29.783 25.537 60.401 51.775 86.639z" fill="#bbec6c"/><path d="m89.017 458.614c8.152-7.526 22.313-22.041 33.245-40.777-13.163-8.228-25.916-18.302-37.771-30.158-26.764-26.765-44.491-58.088-52.25-88.432-1.097-4.291-6.832-5.158-9.11-1.36-10.119 16.867-15.855 36.665-15.625 57.82.54 49.677 34.451 91.767 80.236 104.794.261-.685.675-1.333 1.275-1.887z" fill="#a2e62e"/><path d="m89.017 458.614c3.852-3.556 9.049-8.679 14.61-15.061-45.307-13.334-78.754-55.192-79.29-104.526-.157-14.474 2.481-28.311 7.402-41.011-1.775-3.181-6.57-3.526-8.609-.128-10.119 16.867-15.855 36.665-15.625 57.82.54 49.677 34.451 91.767 80.236 104.794.262-.686.676-1.334 1.276-1.888z" fill="#97d729"/><g><path d="m91.12 467.101c-3.792-1.033-4.99-5.821-2.103-8.487 14.072-12.993 46.073-46.783 48.407-87.232 2.998-51.97 39.977-17.99 46.973-13.992 9.702 5.544 21.987-10.994 24.985-57.966s76.606 57.441-.999 137.92c-42.651 44.23-96.538 35.404-117.263 29.757z" fill="#97d729"/></g><g><path d="m212.42 289.442c13.139 28.815 18.407 82.871-26.129 129.057-29.958 31.067-65.458 35.958-91.117 34.161-2.277 2.302-4.363 4.298-6.156 5.954-2.888 2.666-1.689 7.453 2.103 8.487 20.725 5.647 74.612 14.474 117.263-29.757 69.444-72.017 17.812-163.18 4.036-147.902z" fill="#a2e62e"/></g></g></g><path d="m213.313 280.541c-2.238.513-4.713 1.709-6.797 4.203-19.948-20.768-47.973-33.721-78.974-33.721-8.039 0-15.872.886-23.423 2.538-3.359-1.59-6.809-3.037-10.358-4.308-2.708-.969-5.689-.969-8.398 0-4.197 1.503-8.375 3.286-12.42 5.302-3.707 1.848-5.215 6.351-3.368 10.058 1.848 3.708 6.352 5.216 10.058 3.368 3.24-1.615 6.577-3.058 9.929-4.294 32.076 11.817 55.457 39.195 62.849 71.695-2.34.229-4.662.831-6.923 1.91-9.417 4.495-14.504 15.505-15.551 33.658-.744 12.9-4.811 25.147-10.363 36.169-10.207-6.98-20.007-15.054-29.169-24.144-3.541-5.397-5.446-11.703-5.446-18.3 0-8.936 3.485-17.342 9.814-23.672 2.929-2.929 2.929-7.677 0-10.606-2.929-2.928-7.678-2.928-10.606 0-7.993 7.994-12.852 18.281-13.961 29.369-4.684-6.262-8.956-12.725-12.783-19.322-3.455-11.44-.675-24.378 8.35-33.403 2.929-2.929 2.929-7.677 0-10.606-2.929-2.928-7.678-2.928-10.606 0-4.844 4.844-8.432 10.471-10.79 16.473-1.314-3.545-2.485-7.102-3.526-10.661 3.592-5.395 7.726-10.485 12.395-15.186 2.919-2.938 2.903-7.688-.035-10.606-2.939-2.919-7.687-2.903-10.606.036-3.871 3.896-7.418 8.028-10.648 12.352-.877-.342-1.801-.591-2.761-.732-4.994-.727-9.898 1.594-12.493 5.919-11.161 18.597-16.933 39.952-16.696 61.758.335 30.804 12.61 59.859 34.565 81.813 13.163 13.162 28.881 22.841 45.996 28.557 1.306 3.97 4.503 7.067 8.58 8.178 8.417 2.294 21.722 5.013 37.462 5.013 26.104 0 58.902-7.483 87.172-36.8 52.656-54.606 38.878-118.023 24.237-143.927-7.552-13.359-16.558-19.954-24.706-18.081zm-88.674-14.463c.965-.029 1.931-.055 2.903-.055 30.018 0 56.81 14.064 74.143 35.946-3.009 40.515-12.339 48.053-13.617 48.879-.544-.322-1.866-1.271-3.036-2.111-4.207-3.019-10.135-7.269-16.715-10.183-1.109-6.627-2.785-13.097-4.998-19.343 1.809-6.327 5.198-12.13 9.985-16.916 2.929-2.93 2.929-7.678 0-10.607-2.928-2.928-7.677-2.928-10.606 0-2.908 2.908-5.431 6.095-7.573 9.489-7.642-13.584-18.008-25.555-30.486-35.099zm20.273 105.735c.943-16.358 5.235-20.124 7.037-20.984 6.166-2.946 19.367 6.528 24.336 10.095 1.863 1.336 3.208 2.302 4.391 2.978 4.64 2.651 9.802 2.707 14.537.156 10.079-5.427 15.662-21.275 18.727-38.605 1.581 19.318-1.942 41.283-14.061 62.63-1.736-4.948-4.567-9.488-8.387-13.308-2.93-2.928-7.678-2.929-10.607.001-2.929 2.929-2.928 7.678 0 10.606 3.874 3.873 6.006 9.017 6.006 14.483 0 3.331-.802 6.538-2.297 9.415-1.197 1.344-2.421 2.684-3.703 4.013-2.328 2.415-4.695 4.649-7.088 6.733-.94-7.561-4.296-14.875-10.089-20.668-2.929-2.93-7.678-2.929-10.606-.001-2.929 2.929-2.929 7.678 0 10.606 5.817 5.817 7.376 14.285 4.719 21.546-15.672 9.122-31.688 12.782-45.798 13.712 14.804-17.775 31.175-43.81 32.883-73.408zm-59.642 80.04c-40.291-13.597-69.78-51.736-70.264-96.227-.185-16.998 3.812-33.678 11.601-48.604 6.689 22.606 18.531 45.028 34.319 65.28-10.081.37-20.051 4.385-27.731 12.064-2.929 2.929-2.929 7.678 0 10.606 1.464 1.465 3.384 2.197 5.303 2.197s3.839-.732 5.303-2.196c10.297-10.299 27.051-10.299 37.349 0 .242.242.5.456.765.658 9.489 9.181 19.609 17.36 30.14 24.478-9.207 14.101-19.89 25.24-26.785 31.744zm117.714-19.716c-37.1 38.474-83.43 33.983-105.54 28.826.208-.202.428-.42.641-.629 2.032.093 4.117.148 6.264.148 25.598-.001 58.824-7.207 87.34-36.778 36.128-37.467 42.031-81.032 35.011-114.412 2.061 4.166 4.084 9.273 5.774 15.354 4.989 17.951 12.102 64.359-29.49 107.491z"/></g></g></svg>