<svg id="Capa_1" enable-background="new 0 0 512 512" height="512" viewBox="0 0 512 512" width="512" xmlns="http://www.w3.org/2000/svg"><g><g><path d="m232.168 74.143c-1.998 8.014-6.022 15.43-11.639 21.445l-1.239 1.327 1.783.338c13.653 2.589 25.581 10.894 32.726 22.786 3.241 5.394 5.331 11.269 6.294 17.281l34.223-83.4c-12.741-4.96-26.335-7.652-40.455-7.652-7.579 0-15.004.782-22.23 2.264 2.453 8.251 2.674 17.039.537 25.611z" fill="#97d729"/></g><path d="m251.02 176.036c22.336-.245 44.209 11.012 56.545 31.543.421.701.823 1.407 1.215 2.117 1.891.34 3.774.745 5.639 1.231-9.495-20.971-5.633-46.513 11.607-63.752 11.946-11.946 27.88-17.464 43.517-16.572-4.537-8.174-7.13-17.576-7.13-27.587 0-5.79.871-11.376 2.477-16.64-14.997-23.605-35.9-43.603-61.602-56.953l-42.827 104.37c3.466 14.777-.067 30.398-9.441 42.243z" fill="#bbec6c"/><path d="m174.068 95.116c-.741 8.62-3.67 16.523-8.182 23.224 13.529.391 26.839 6.321 36.24 17.491 13.566 16.12 15 38.397 5.272 55.749 21.772-3.726 44.887 3.851 60.137 21.971.083.099.16.201.242.3 13.063-5.239 27.308-6.618 41.001-4.156-.392-.71-.794-1.416-1.215-2.117-12.336-20.53-34.209-31.787-56.545-31.543 12.485-15.775 14.61-38.249 3.637-56.513-7.604-12.656-19.949-20.703-33.396-23.253 5.576-5.972 9.762-13.396 11.878-21.885 6.648-26.662-9.577-53.666-36.24-60.313l-2.5 8.149c-5.276 17.198-13.947 33.023-25.361 46.642 3.946 7.852 5.84 16.857 5.032 26.254z" fill="#bbec6c"/><g fill="#97d729"><path d="m57.171 171.978c6.473-8.321 12-17.336 16.497-26.827-6.304 8.502-11.815 17.481-16.497 26.827z"/><path d="m138.917 135.189c0 8.815-2.253 17.533-6.517 25.213l-.881 1.587 1.812-.103c.989-.057 1.994-.085 2.985-.085 13.901 0 26.966 5.41 36.789 15.231 15.23 15.23 19.493 38.646 10.608 58.269l-.864 1.91 2.028-.529c5.654-1.476 11.491-2.224 17.347-2.224 11.371 0 22.316 2.76 32.073 7.958 2.68-4.055 5.786-7.885 9.315-11.414 7.197-7.197 15.634-12.698 24.821-16.341-.298-.37-.589-.744-.897-1.11-15.25-18.121-38.365-25.697-60.137-21.971 9.728-17.352 8.294-39.629-5.272-55.749-9.401-11.17-22.711-17.1-36.24-17.491 4.512-6.702 7.44-14.605 8.182-23.224 2.328-27.072-17.73-50.906-44.802-53.234l-1.169 8.347c-2.028 14.483-6.45 28.416-12.965 41.296 14.298 9.283 23.784 25.382 23.784 43.664z"/></g><g><path d="m455.496 146.081c-21.316-25.457-33.861-57.104-35.63-90.26l-.52-9.74c-31.443 0-56.933 25.49-56.933 56.933 0 10.011 2.593 19.414 7.13 27.587-15.637-.891-31.571 4.626-43.517 16.572-17.24 17.24-21.102 42.782-11.607 63.752-24.732-6.455-52.134-.011-71.514 19.368-3.383 3.383-6.361 7.016-8.956 10.831 6.228 3.206 12.074 7.411 17.294 12.63 21.408 21.408 25.878 53.322 13.444 79.137 26.861-12.938 60.327-7.573 81.688 16.131 2.914 3.233 5.468 6.684 7.663 10.299 18.473 30.426 9.332 70.11-19.751 90.633l-20.561 14.509c-16.841 11.349-34.904 19.745-53.535 25.293 73.551 11.716 151.063-15.939 199.985-78.906 62.05-79.862 57.711-190.26-4.68-264.769z" fill="#a2e62e"/><g><g><path d="m427.035 94.574c-4.026-12.477-6.462-25.494-7.169-38.753l-.52-9.74c-31.443 0-56.933 25.49-56.933 56.933 0 10.011 2.593 19.414 7.13 27.587-15.637-.891-31.571 4.626-43.517 16.572-17.24 17.24-21.102 42.781-11.607 63.752-24.732-6.455-52.134-.011-71.514 19.368-3.376 3.376-6.348 7.001-8.94 10.807 6.245 3.209 12.108 7.422 17.341 12.654 9.978 9.978 16.272 22.239 18.895 35.1 3.596-7.961 8.661-15.422 15.204-21.966 17.2-17.2 40.718-24.21 63.081-21.057 3.581.505 6.501-2.81 5.519-6.29-5.419-19.192-.584-40.669 14.521-55.773 10.032-10.032 22.877-15.531 35.996-16.507 3.401-.253 5.567-3.677 4.319-6.851-2.534-6.443-3.929-13.459-3.929-20.802.001-18.327 8.671-34.621 22.123-45.034z" fill="#97d729"/></g></g></g><g><g><path d="m139.917 135.189c0 9.326-2.415 18.084-6.642 25.699 14.566-.83 29.409 4.309 40.538 15.438 16.06 16.06 19.657 39.853 10.812 59.388 23.039-6.013 48.565-.011 66.618 18.042 21.408 21.408 25.878 53.322 13.444 79.137 26.861-12.938 60.327-7.573 81.688 16.131 2.914 3.233 5.468 6.684 7.663 10.299 18.473 30.426 9.332 70.11-19.751 90.633l-20.561 14.509c-85.002 57.283-201.057 39.63-264.878-42.513-57.802-74.396-53.76-177.236 4.359-246.645 19.857-23.714 31.543-53.195 33.191-84.081l.484-9.073c29.29.001 53.035 23.746 53.035 53.036z" fill="#bbec6c"/></g><g><g><path d="m91.231 421.952c-57.802-74.396-53.76-177.236 4.359-246.645 17.64-21.067 28.825-46.687 32.259-73.798-9.727-11.818-24.467-19.355-40.968-19.355l-.484 9.073c-1.648 30.886-13.334 60.367-33.191 84.081-58.119 69.409-62.161 172.249-4.359 246.645 43.403 55.863 110.962 81.887 176.484 74.812-51.135-5.528-100.051-30.989-134.1-74.813z" fill="#a2e62e"/></g></g></g><path d="m461.246 141.266c-20.187-24.108-32.223-54.595-33.891-85.846l-.521-9.74c-.213-3.981-3.503-7.1-7.489-7.1-23.901 0-44.788 13.091-55.91 32.47-15.131-20.161-34.395-36.705-56.69-48.286-1.867-.97-4.06-1.11-6.037-.387-1.978.725-3.559 2.247-4.358 4.195l-7.228 17.614c-11.261-3.531-23.078-5.42-35.26-5.42-5.523 0-10.969.395-16.324 1.148-1.032-2.41-2.225-4.77-3.599-7.056-7.876-13.109-20.386-22.366-35.225-26.066-3.868-.963-7.815 1.266-8.984 5.078l-2.5 8.149c-3.926 12.796-9.954 24.891-17.685 35.802-9.368-11.875-23.413-20.018-39.636-21.414-3.968-.334-7.517 2.484-8.07 6.433l-1.169 8.347c-1.492 10.656-4.426 21.073-8.603 30.975-7.67-3.525-16.19-5.507-25.168-5.51-1.835 0-3.62.679-4.997 1.906-1.495 1.331-2.403 3.21-2.509 5.208l-.483 9.054c-1.044 19.561-6.482 38.792-15.65 56.111-3.316 4.881-6.415 9.906-9.262 15.072-2.066 2.912-4.247 5.747-6.544 8.491-29.455 35.179-46.288 79.957-47.396 126.087-1.124 46.788 14.099 92.947 42.866 129.972 31.944 41.115 77.846 68.229 129.249 76.349 10.711 1.691 21.446 2.528 32.122 2.528 19.169 0 38.139-2.702 56.406-7.983 10.752 1.629 21.645 2.467 32.602 2.467 11.429 0 22.93-.896 34.396-2.707 55.042-8.693 104.192-37.727 138.398-81.753 2.698-3.473 5.371-7.144 7.945-10.91 2.338-3.419 1.461-8.086-1.959-10.424-3.421-2.337-8.087-1.46-10.424 1.959-2.404 3.516-4.896 6.939-7.408 10.172-31.857 41.003-77.632 68.043-128.894 76.14-10.691 1.688-21.405 2.501-32.06 2.496 8.471-4.132 16.699-8.865 24.618-14.202.045-.03.089-.061.133-.092l20.589-14.53c16.198-11.43 27.312-28.805 31.004-48.183.883-.794 1.762-1.592 2.634-2.4 11.105-5.86 42.475-18.413 58.125-8.206 3.467 2.262 8.115 1.285 10.379-2.185 2.263-3.47 1.284-8.117-2.186-10.379-12.556-8.189-29.379-7.089-43.782-3.573.477-.601.968-1.189 1.439-1.796 45.103-58.051 57.666-134.239 33.607-203.804-1.354-3.914-5.62-5.992-9.539-4.637-3.915 1.354-5.991 5.625-4.637 9.539 12.831 37.099 14.451 76.216 5.618 113.026-3.883-16.028-13.586-34.21-35.783-48.297-3.496-2.219-8.132-1.185-10.351 2.314-2.22 3.497-1.184 8.131 2.313 10.351 44.375 28.161 29.043 75.327 27.167 80.569-5.686 11.062-12.439 21.691-20.242 31.735-4.34 5.587-8.944 10.905-13.78 15.956-1.462-14.771-7.287-28.677-17.103-40.283-.515-.609-1.041-1.211-1.578-1.807-11.431-12.686-26.285-21.038-42.955-24.155-10.603-1.98-21.581-1.676-32.037.799 6.096-25.584-1.29-53.077-20.408-72.195-3.546-3.546-7.402-6.697-11.497-9.437 1.012-1.167 2.055-2.314 3.159-3.418 16.729-16.729 41.372-23.404 64.317-17.415 2.792.731 5.764-.211 7.628-2.422 1.863-2.21 2.29-5.294 1.098-7.928-8.44-18.641-4.391-40.887 10.077-55.355 9.946-9.946 23.714-15.184 37.788-14.388 2.754.156 5.327-1.187 6.779-3.501 1.453-2.315 1.531-5.237.205-7.627-4.048-7.292-6.188-15.573-6.188-23.947 0-24.854 18.436-45.482 42.35-48.928l.114 2.134c1.84 34.471 15.111 68.094 37.369 94.675 50.271 60.036 61.494 144.756 28.592 215.834-1.739 3.759-.103 8.217 3.656 9.957 3.758 1.741 8.217.104 9.957-3.656 35.334-76.323 23.282-167.296-30.7-231.764zm-259.677-116.846.243-.79c7.99 3.478 14.691 9.335 19.27 16.955 5.813 9.675 7.511 21.034 4.78 31.985-1.731 6.945-5.218 13.37-10.083 18.581-1.865 1.998-2.496 4.852-1.646 7.45s3.045 4.528 5.731 5.037c11.834 2.244 22.173 9.442 28.365 19.747 9.008 14.992 7.767 34.28-3.089 47.995-1.794 2.267-2.125 5.363-.853 7.958 1.273 2.595 3.957 4.246 6.815 4.196 15.941-.18 31.152 6.342 42.036 17.542-7.879.246-15.673 1.616-23.126 4.055-13.402-13.876-31.911-21.756-51.05-21.963 5.083-17.863 1.162-37.601-11.097-52.167-7.892-9.377-18.572-15.871-30.329-18.656 2.154-5.276 3.514-10.876 4.005-16.588.782-9.091-.651-17.866-3.827-25.811 10.621-13.577 18.795-29.033 23.855-45.526zm36.033 200.571c-2.174 2.174-4.191 4.458-6.076 6.823-11.301-4.648-23.647-6.603-35.957-5.559 2.221-10.555 1.582-21.568-1.966-31.988-.789-2.317-2.672-4.119-5.035-4.799-2.452-.705-5.107-.114-7.027 1.566-2.499 2.187-3.197 5.665-1.972 8.564 3.568 10.879 2.946 22.578-1.76 32.986-1.197 2.633-.771 5.735 1.092 7.948 1.862 2.213 4.842 3.16 7.643 2.433 21.189-5.521 43.947.646 59.396 16.095 18.553 18.553 23.378 46.904 12.003 70.553-1.369 2.852-.799 6.271 1.421 8.525 2.222 2.254 5.633 2.875 8.502 1.549l.108-.051c24.97-12.011 54.238-6.22 72.829 14.409.431.478.852.961 1.267 1.452 10.814 12.787 15.587 29.088 13.438 45.902-2.179 17.046-11.479 32.504-25.517 42.41l-20.52 14.481c-3.467 2.334-7.001 4.538-10.589 6.625-31.843 4.101-64.406.039-94.261-11.808-31.198-12.381-58.638-33.017-79.352-59.677-1.325-1.705-2.613-3.431-3.873-5.17-1.739-12.702-4.922-54.722 23.935-79.023 3.168-2.668 3.574-7.399.906-10.568-2.667-3.168-7.399-3.574-10.568-.906-22.52 18.964-29.056 44.538-30.285 64.137-22.923-45.698-26.462-98.969-8.766-148.377 1.396-3.899-.633-8.193-4.532-9.59-3.897-1.393-8.192.633-9.589 4.532-23.695 66.158-12.133 138.745 30.928 194.167 4.521 5.819 9.353 11.357 14.441 16.624-10.37-.826-22.041.203-33.435 5.31-3.78 1.694-5.47 6.132-3.776 9.912s6.133 5.472 9.912 3.776c20.598-9.234 43.686-.946 51.591 2.472 14.371 10.786 30.146 19.661 46.931 26.322 20.365 8.082 41.896 12.8 63.663 14.07-28.148 9.205-58.3 11.697-88.237 6.969-47.622-7.522-90.148-32.643-119.744-70.735-26.652-34.304-40.757-77.066-39.715-120.409 1.027-42.747 16.618-84.233 43.9-116.816 20.807-24.85 33.213-56.282 34.933-88.504l.076-1.417c21.757 3.412 38.455 22.287 38.455 44.985 0 7.707-1.967 15.328-5.702 22.062-1.306 2.375-1.229 5.283.201 7.585 1.447 2.332 4.068 3.701 6.808 3.538 9.635-.543 18.994 1.891 27.063 7.043 3.492 2.229 8.129 1.207 10.357-2.285 2.229-3.491 1.206-8.128-2.285-10.357-7.467-4.768-15.756-7.788-24.384-8.945 1.939-5.999 2.942-12.299 2.942-18.641 0-18.956-8.767-35.899-22.451-47.008 5.187-11.743 8.776-24.182 10.559-36.913l.099-.709c19.272 5.042 32.735 23.409 30.972 43.914-.605 7.038-3.001 13.842-6.931 19.678-1.526 2.267-1.698 5.186-.449 7.617 1.25 2.431 3.722 3.99 6.455 4.069 11.882.343 23.078 5.746 30.718 14.824 11.114 13.206 12.91 32.194 4.469 47.251-1.414 2.521-1.252 5.631.415 7.993 1.667 2.361 4.543 3.556 7.393 3.067 16.699-2.858 33.76 1.966 46.457 12.726-6.351 3.581-12.259 8.027-17.524 13.291zm83.119-83.12c-12.573 12.574-19.103 29.654-18.802 46.843-10.473-9.992-23.772-16.732-38.134-19.167 5.104-10.905 6.612-23.175 4.442-34.928l10.294-25.086c1.572-3.832-.259-8.213-4.091-9.786-3.836-1.573-8.213.26-9.786 4.091l-4.341 10.579c-6.383-10.029-15.705-17.771-26.577-22.232 3.015-4.941 5.281-10.337 6.689-15.987 1.797-7.207 2.166-14.543 1.181-21.686 4.035-.488 8.125-.746 12.265-.746 10.182 0 20.076 1.513 29.546 4.345l-5.476 13.345c-1.572 3.832.259 8.213 4.092 9.786 3.834 1.572 8.213-.259 9.785-4.091l15.216-37.081c20.256 12 37.056 28.495 49.746 47.617-1.204 4.916-1.857 10.046-1.857 15.327 0 6.982 1.143 13.918 3.349 20.499-14.101 1.774-27.358 8.177-37.541 18.358z"/></g></svg>