<svg id="Capa_1" enable-background="new 0 0 512 512" height="512" viewBox="0 0 512 512" width="512" xmlns="http://www.w3.org/2000/svg"><g><g><g><g><path d="m356.603 302.61c-3.223.014-6.381.304-9.452.847-10.829 1.916-21.799 2.91-32.796 2.91h-4.741c-11.122 0-22.197-1.142-33.165-2.988-2.824-.475-5.721-.737-8.673-.766-31.284-.314-56.249 25.769-55.858 57.052.621 49.65 27.699 109.017 100.109 109.017 77.842 0 99.775-59.819 100.116-109.583.213-30.812-24.728-56.622-55.54-56.489z" fill="#fb4a59"/><g fill="#f82f40"><path d="m274.415 402.42c-.12 18.15-3.12 37.65-10.66 55.09-36.61-19.54-51.38-61.33-51.84-97.85-.06-4.61.44-9.11 1.42-13.43 1.82-.19 3.67-.29 5.54-.3 30.81-.13 55.75 25.68 55.54 56.49z"/><path d="m412.142 359.095c-.345 49.761-22.273 109.583-100.118 109.583-6.858 0-13.313-.528-19.378-1.539 61.213-9.672 79.224-62.982 79.534-108.044.161-24.811-15.978-46.383-38.366-53.758 4.468-.471 8.914-1.091 13.336-1.884 3.067-.54 6.226-.827 9.454-.839 30.807-.137 55.757 25.674 55.538 56.481z"/></g></g><g><path d="m196.746 338.429c-3.223.014-6.381.304-9.452.847-10.829 1.916-21.799 2.91-32.796 2.91h-4.741c-11.122 0-22.197-1.142-33.165-2.988-2.824-.475-5.721-.737-8.673-.766-31.284-.314-56.249 25.769-55.858 57.052.621 49.649 27.699 109.016 100.109 109.016 77.842 0 99.775-59.819 100.116-109.583.212-30.81-24.729-56.62-55.54-56.488z" fill="#f82f40"/><path d="m252.284 394.914c-.345 49.761-22.273 109.583-100.118 109.583-6.858 0-13.313-.528-19.378-1.539 61.213-9.672 79.224-62.982 79.534-108.044.161-24.811-15.978-46.383-38.366-53.758 4.468-.471 8.914-1.091 13.336-1.884 3.067-.54 6.226-.827 9.454-.839 30.807-.137 55.757 25.674 55.538 56.481z" fill="#e22334"/></g></g><g><g><path d="m296.933 24.803s64.634-12.391 106.803 53.579c20.64 32.289 38.384 50.935 51.122 61.558 8.409 7.012 5.973 20.525-4.376 24.097-50.591 17.461-158.396 34.579-153.549-139.234z" fill="#a3e440"/></g><g><path d="m450.476 164.031c-5.847 2.022-12.474 4.043-19.596 5.755 2.378-5.41 1.31-12.199-3.871-16.529-12.739-10.614-30.486-29.268-51.127-61.557-24.478-38.297-56.526-50.174-79.098-53.413-.034-4.354.023-8.856.149-13.485 0 0 64.636-12.394 106.804 53.585 20.642 32.289 38.389 50.932 51.116 61.557 8.42 7.007 5.973 20.515-4.377 24.087z" fill="#8dc637"/></g></g></g><path d="m459.662 134.18c-11.097-9.254-28.711-27.147-49.606-59.838-23.129-36.184-52.89-49.762-73.782-54.781-10.673-2.565-20.144-3.221-27.266-3.18.975-1.709 1.952-3.346 2.926-4.906 2.195-3.513 1.127-8.14-2.386-10.335-3.512-2.194-8.139-1.127-10.335 2.386-3.679 5.887-6.95 12.024-9.885 18.341-29.999 30.737-56.217 67.432-77.938 109.156-17.77 34.133-32.595 71.682-44.064 111.603-10.876 37.854-16.622 70.324-19.601 92.036-9.343-.119-19.14-1.051-29.887-2.86-3.228-.544-6.539-.837-9.844-.871-16.875-.144-32.704 6.353-44.685 18.365-12.13 12.16-18.964 29.029-18.747 46.281.216 17.266 3.452 34.472 9.359 49.756 1.494 3.862 5.835 5.781 9.7 4.292 3.863-1.494 5.785-5.836 4.292-9.7-5.271-13.636-8.159-29.036-8.354-44.535-.168-13.436 4.936-26.043 14.369-35.501 8.992-9.015 20.848-13.961 33.431-13.961.16 0 .321.001.481.003 2.522.025 5.047.248 7.505.662 10.891 1.834 20.923 2.835 30.54 3.048-.58 5.419-.902 9.358-1.064 11.601-5.111-.352-10.228-1.181-14.824-2.678-3.939-1.283-8.172.871-9.454 4.81-1.282 3.938.871 8.171 4.81 9.454 8.143 2.651 17.084 3.627 25.397 3.627 10.609 0 20.193-1.591 25.77-3.319 3.957-1.228 6.17-5.429 4.943-9.385-1.228-3.955-5.427-6.166-9.385-4.943-2.979.923-7.266 1.737-12.189 2.209.201-2.476.554-6.36 1.126-11.454 9.171-.315 18.421-1.279 27.581-2.9 2.683-.475 5.434-.721 8.179-.732.067 0 .135-.001.203-.001 12.553 0 24.43 4.981 33.465 14.04 9.338 9.361 14.431 21.755 14.341 34.897-.63 92.181-64.978 102.133-92.614 102.133-28.184 0-50.748-9.453-67.067-28.096-2.729-3.118-7.469-3.433-10.583-.704-3.117 2.729-3.432 7.467-.704 10.583 19.021 21.731 46.116 33.217 78.354 33.217 37.776 0 66.444-13.204 85.206-39.246 3.931-5.457 7.198-11.174 9.912-17.001 12.804 9.862 27.923 16.228 45.088 18.932.396.063.788.093 1.176.093 3.628 0 6.817-2.638 7.399-6.334.645-4.092-2.149-7.931-6.241-8.575-16.22-2.555-30.244-8.885-41.742-18.822 5.219-16.595 6.729-33.067 6.819-46.079.117-17.181-6.531-33.373-18.721-45.594-4.974-4.987-10.616-9.019-16.705-12.037 8.002-16.526 24.575-27.229 42.868-27.229.155 0 .314.001.471.003 2.521.025 5.046.248 7.505.662 8.235 1.387 15.974 2.288 23.42 2.742 1.524 4.08 3.005 7.744 4.414 10.939-6.805-.652-10.858-2.25-11.026-2.319-3.792-1.601-8.178.152-9.81 3.942-1.638 3.805.118 8.217 3.923 9.854.525.227 9.076 3.809 22.663 3.809 6.749 0 14.743-.885 23.61-3.505 3.973-1.174 6.241-5.345 5.067-9.317s-5.345-6.246-9.317-5.067c-3.075.909-6.01 1.555-8.789 2.006-1.264-2.436-2.781-5.764-4.489-9.998 11.123-.03 22.42-1.042 33.589-3.019 2.679-.475 5.429-.721 8.176-.732.067 0 .135-.001.203-.001 12.552 0 24.43 4.981 33.465 14.04 9.338 9.361 14.431 21.755 14.341 34.897-.188 27.366-7.949 91.993-75.805 101.058-4.105.548-6.989 4.321-6.44 8.427.503 3.769 3.724 6.508 7.424 6.508.331 0 .666-.022 1.003-.067 31.177-4.164 54.799-18.877 70.208-43.727 15.141-24.415 18.478-52.682 18.61-72.095.117-17.181-6.531-33.373-18.721-45.594-11.936-11.967-27.711-18.506-44.352-18.446-3.6.016-7.209.339-10.727.962-10.479 1.854-21.074 2.795-31.489 2.795h-4.741c-.075 0-.152-.003-.227-.003-1.777-5.295-3.651-11.288-5.576-17.997-5.361-18.673-12.706-48.455-17.255-84.295-7.284-57.383-3.858-100.37 3.911-132.158 1.83 20.983 5.77 39.285 11.798 54.675 1.511 3.857 5.861 5.757 9.719 4.248 3.857-1.511 5.759-5.862 4.248-9.719-7.699-19.655-11.698-44.81-11.937-74.901.729.588 1.481 1.207 2.266 1.88 6.733 5.771 16.775 15.963 27.064 32.074-.835 8.049-2.332 31.53 5.673 51.604 1.171 2.937 3.989 4.724 6.969 4.724.925 0 1.865-.172 2.776-.535 3.848-1.534 5.723-5.897 4.188-9.745-2.977-7.464-4.365-15.706-4.934-23.166 14.902 21.944 29.934 38.478 52.801 48.378.971.42 1.981.619 2.976.619 2.899 0 5.661-1.692 6.887-4.522 1.646-3.801-.102-8.217-3.903-9.862-11.937-5.168-21.36-12.223-30.605-22.527 2.805.373 5.729.601 8.687.601.421 0 .845-.005 1.266-.015 4.142-.093 7.423-3.525 7.33-7.666-.092-4.084-3.431-7.332-7.495-7.332-.057 0-.114.001-.172.002-.315.007-.63.011-.947.011-9.758 0-19.512-3.301-23.491-4.823-4.342-6.316-8.893-13.421-13.865-21.453-10.041-16.218-20.137-27.48-28.445-35.084 4.285.426 9.037 1.172 14.094 2.422 26.202 6.479 47.735 22.669 64.003 48.117 17.605 27.543 35.315 48.833 52.639 63.28 2.673 2.229 2.476 5.117 2.267 6.256-.207 1.127-1.038 3.869-4.287 4.99-28.974 10-82.391 21.416-114.605-14.475-2.766-3.082-7.507-3.339-10.591-.571-3.083 2.767-3.339 7.508-.571 10.591 20.127 22.424 46.468 29.465 71.628 29.465 22.342 0 43.754-5.557 59.034-10.83 7.438-2.567 12.728-8.723 14.146-16.465 1.421-7.763-1.351-15.419-7.417-20.478zm-166.359 163.877c-5.006-.477-10.183-1.161-15.608-2.074-3.229-.544-6.539-.837-9.843-.871-.209-.002-.415-.003-.623-.003-24.653 0-46.907 14.707-57.089 37.243-4.283-.931-8.684-1.424-13.157-1.424-.089 0-.18.001-.27.001-3.596.016-7.204.339-10.728.962-7.657 1.355-15.376 2.217-23.043 2.585 3.019-21.304 8.648-52.454 18.908-88.086 15.178-52.707 43.493-124.831 94.534-187.473-11.883 47.251-9.839 99.142-4.71 139.543 4.857 38.26 13.391 73.797 21.629 99.597z"/></g></svg>