<svg id="Capa_1" enable-background="new 0 0 512 512" height="512" viewBox="0 0 512 512" width="512" xmlns="http://www.w3.org/2000/svg"><g><g><g><path d="m257.29 113.637c1.916 0 3.821.046 5.714.136 3.503-7.323 5.941-16.52 6.661-26.578 1.215-16.958-2.751-31.825-9.578-39.427-7.884 7.147-13.958 21.704-15.173 38.662-.743 10.372.459 19.951 3.062 27.575 3.072-.239 6.177-.368 9.314-.368z" fill="#00c285"/><g fill="#0ed290"><path d="m231.586 116.448c5.596-1.244 11.355-2.097 17.246-2.513-1.308-7.126-4.283-15.338-8.946-23.844-8.755-15.972-21.079-28.711-31.815-34.018-3.121 8.585-.253 23.561 8.502 39.534 4.338 7.912 9.552 15.026 15.013 20.841z"/><path d="m257.29 113.637c6.133 0 12.146.474 18.007 1.37 5.975-5.202 11.883-11.513 17.142-18.586 11.343-15.253 16.669-29.936 14.986-38.693-11.549 4.51-25.906 16.294-37.249 31.547-6.417 8.629-10.904 17.072-13.29 24.367.135 0 .269-.005.404-.005z"/></g><path d="m209.48 123.762c14.465-6.489 30.681-10.125 47.81-10.125s33.345 3.636 47.81 10.125c23.331-10.183 38.717-27.597 38.717-47.379 0-3.787-.576-7.485-1.651-11.064-7.838 26.099-42.852 45.784-84.876 45.784s-77.038-19.685-84.876-45.784c-1.075 3.58-1.651 7.277-1.651 11.064 0 19.782 15.386 37.196 38.717 47.379z" fill="#00c285"/><path d="m353.88 266.135c8.756-14.733 13.746-31.677 13.746-49.71 0-56.768-49.399-102.787-110.337-102.787-60.937 0-110.337 46.02-110.337 102.787 0 18.339 5.161 35.552 14.196 50.459 22.38 8.908 40.953 24.509 52.828 44.102 13.298 5.293 27.937 8.226 43.313 8.226 14.632 0 28.595-2.659 41.372-7.478 12.191-20.511 31.687-36.725 55.219-45.599z" fill="#fb2b3a"/><path d="m206.544 216.425c0-47.149 34.079-86.88 80.541-98.991-9.479-2.471-19.47-3.796-29.795-3.796-60.937 0-110.337 46.02-110.337 102.787 0 18.339 5.161 35.552 14.196 50.459 22.38 8.908 40.953 24.509 52.828 44.102 13.298 5.293 27.937 8.226 43.313 8.226 10.325 0 20.317-1.325 29.795-3.796-46.461-12.111-80.541-51.842-80.541-98.991z" fill="#e41f2d"/></g></g><g><g><path d="m117.837 258.657c2.29 0 4.561.073 6.816.201 2.907-6.883 4.917-15.161 5.559-24.125 1.215-16.958-2.751-31.825-9.578-39.427-7.884 7.147-13.958 21.704-15.173 38.662-.665 9.288.232 17.938 2.293 25.121 3.322-.281 6.683-.432 10.083-.432z" fill="#00c285"/><g fill="#0ed290"><path d="m90.231 261.901c6.027-1.447 12.256-2.426 18.636-2.904-1.499-6.527-4.302-13.832-8.434-21.369-8.755-15.972-21.079-28.711-31.815-34.018-3.121 8.585-.253 23.561 8.502 39.533 3.831 6.989 8.345 13.359 13.111 18.758z"/><path d="m138.218 260.414c5.157-4.764 10.207-10.322 14.768-16.455 11.343-15.253 16.669-29.936 14.986-38.693-11.549 4.509-25.906 16.294-37.249 31.547-5.691 7.653-9.865 15.161-12.402 21.85 6.795.027 13.444.629 19.897 1.751z"/></g><path d="m67.301 270.052c15.141-7.281 32.322-11.395 50.536-11.395s35.394 4.114 50.536 11.395c21.792-10.323 35.992-27.133 35.992-46.132 0-3.787-.576-7.484-1.651-11.064-7.838 26.099-42.853 45.784-84.876 45.784-42.024 0-77.038-19.685-84.876-45.784-1.075 3.58-1.651 7.277-1.651 11.064-.002 18.999 14.198 35.809 35.99 46.132z" fill="#00c285"/><g><ellipse cx="117.837" cy="361.444" fill="#fb2b3a" rx="110.337" ry="102.787"/></g><g><path d="m67 361.444c0-47.165 34.101-86.906 80.587-99.003-9.465-2.463-19.441-3.784-29.75-3.784-60.938 0-110.337 46.02-110.337 102.787s49.399 102.787 110.337 102.787c10.309 0 20.285-1.321 29.75-3.784-46.486-12.097-80.587-51.838-80.587-99.003z" fill="#e41f2d"/></g></g><g><path d="m395.252 255.64c2.355 0 4.684-.071 6.991-.192 2.814-6.8 4.755-14.929 5.385-23.715 1.215-16.958-2.751-31.825-9.578-39.427-7.884 7.147-13.958 21.704-15.173 38.662-.639 8.921.167 17.249 2.057 24.26 3.385.263 6.825.412 10.318.412z" fill="#00c285"/><g fill="#0ed290"><path d="m361.47 251.136c7.708 2.151 15.991 3.581 24.654 4.178-1.536-6.352-4.288-13.412-8.276-20.687-8.755-15.972-21.079-28.711-31.815-34.018-3.121 8.585-.253 23.561 8.502 39.533 2.126 3.878 4.464 7.559 6.935 10.994z"/><path d="m419.87 253.291c3.669-3.758 7.229-7.892 10.531-12.332 11.343-15.253 16.669-29.936 14.986-38.693-11.549 4.509-25.906 16.294-37.249 31.547-5.682 7.641-9.854 15.138-12.391 21.82 8.379-.032 16.47-.851 24.123-2.342z"/></g><path d="m348.006 268.537c14.322-6.332 30.339-9.88 47.246-9.88s32.924 3.548 47.246 9.88c23.644-10.147 39.281-27.677 39.281-47.616 0-3.787-.576-7.484-1.651-11.064-7.838 26.099-42.852 45.784-84.876 45.784s-77.038-19.685-84.876-45.784c-1.075 3.58-1.651 7.277-1.651 11.064 0 19.938 15.637 37.468 39.281 47.616z" fill="#00c285"/><g><ellipse cx="395.252" cy="361.444" fill="#fb2b3a" rx="110.337" ry="102.787"/></g><g><path d="m344.089 361.444c0-47.22 34.182-86.997 80.75-99.044-9.417-2.436-19.337-3.743-29.587-3.743-60.937 0-110.336 46.019-110.336 102.787s49.399 102.787 110.336 102.787c10.25 0 20.17-1.307 29.587-3.743-46.569-12.046-80.75-51.824-80.75-99.044z" fill="#e41f2d"/></g></g></g><path d="m504.977 374.672c-4.052-.879-8.043 1.686-8.925 5.731-9.637 44.228-52.029 76.328-100.8 76.328-56.704 0-102.836-42.746-102.836-95.287s46.132-95.287 102.836-95.287c25.038 0 49.163 8.438 67.932 23.759 18.47 15.077 30.509 35.747 33.899 58.204.618 4.096 4.443 6.912 8.536 6.296 4.096-.618 6.914-4.44 6.296-8.536-3.948-26.146-17.886-50.147-39.246-67.584-4.402-3.594-9.072-6.836-13.941-9.751.614-.381 1.226-.765 1.826-1.159 18.523-12.17 28.725-28.672 28.725-46.466 0-4.425-.662-8.873-1.969-13.222-.952-3.171-3.871-5.343-7.183-5.343s-6.23 2.172-7.183 5.343c-3.253 10.83-12.497 20.864-26.03 28.254-1.918 1.047-3.91 2.027-5.96 2.947 9.307-14.4 13.679-28.269 11.798-38.049-.421-2.188-1.791-4.074-3.741-5.15-1.951-1.078-4.28-1.231-6.352-.42-8.902 3.476-18.848 10.536-27.995 19.607-1.462-11.413-5.275-21.178-11.035-27.592-1.333-1.484-3.203-2.376-5.195-2.479-1.993-.102-3.944.594-5.422 1.934-7.674 6.956-13.386 18.636-16.101 32.396-.588-.813-1.186-1.611-1.79-2.401 0-.107.005-.213.005-.32 0-20.561-6.091-40.626-17.615-58.028-2.285-3.454-6.94-4.398-10.394-2.112-3.454 2.287-4.399 6.94-2.112 10.394 6.729 10.163 11.287 21.375 13.518 33.047-3.064-2.367-6.144-4.344-9.167-5.838-1.911-.945-4.135-1.032-6.116-.237-1.979.795-3.527 2.395-4.256 4.399-3.442 9.47-1.448 23.389 5.262 38.247-.217-.116-.442-.226-.658-.343-13.533-7.39-22.777-17.424-26.03-28.254-.952-3.172-3.872-5.343-7.184-5.343s-6.23 2.173-7.183 5.345c-1.305 4.35-1.967 8.797-1.967 13.22 0 17.794 10.201 34.296 28.725 46.466.605.397 1.222.783 1.84 1.168-15.567 9.349-28.633 22.034-38.058 36.963-11.333 3.996-23.614 6.196-36.442 6.196-13.567 0-26.521-2.461-38.389-6.905-8.898-13.856-20.945-25.749-35.222-34.785 18.178-12.134 28.184-28.483 28.184-46.102 0-4.423-.662-8.87-1.967-13.22-.952-3.172-3.871-5.345-7.183-5.345h-.001c-3.311 0-6.23 2.172-7.183 5.343-3.253 10.83-12.497 20.864-26.03 28.254-1.918 1.047-3.91 2.027-5.96 2.947 9.307-14.401 13.678-28.269 11.797-38.049-.421-2.188-1.791-4.074-3.741-5.15-1.95-1.078-4.278-1.231-6.353-.42-3.163 1.235-6.459 2.931-9.804 5.001 6.931-46.343 49.96-82.143 101.851-82.143 23.854 0 47.102 7.743 65.461 21.804 3.29 2.52 7.996 1.895 10.515-1.394s1.895-7.996-1.394-10.515c-3.428-2.625-7.017-5.037-10.719-7.269.482-.302.965-.603 1.438-.913 18.523-12.171 28.725-28.672 28.725-46.466 0-4.424-.662-8.872-1.967-13.221-.952-3.172-3.871-5.344-7.183-5.344-.001 0-.001 0-.001 0-3.311 0-6.23 2.172-7.183 5.343-3.253 10.829-12.497 20.863-26.03 28.253-1.918 1.047-3.91 2.027-5.96 2.947 9.307-14.4 13.678-28.268 11.797-38.049-.421-2.188-1.791-4.074-3.741-5.15-1.95-1.077-4.278-1.23-6.353-.42-8.901 3.476-18.847 10.536-27.994 19.607-1.462-11.413-5.275-21.179-11.035-27.593-1.333-1.484-3.203-2.376-5.195-2.479-1.996-.102-3.943.594-5.422 1.934-7.674 6.956-13.385 18.636-16.101 32.396-8.255-11.416-18.184-20.626-27.555-25.258-1.912-.945-4.137-1.032-6.115-.237-1.98.794-3.528 2.394-4.257 4.398-3.443 9.471-1.45 23.389 5.261 38.247-.217-.116-.441-.225-.656-.343-13.533-7.39-22.777-17.424-26.03-28.253-.952-3.171-3.871-5.343-7.183-5.343-3.311 0-6.23 2.171-7.183 5.342-1.307 4.349-1.969 8.797-1.969 13.223 0 17.794 10.201 34.296 28.725 46.466.479.314.968.618 1.456.924-32.27 19.549-53.733 53.451-53.981 91.978-.742.7-1.481 1.408-2.214 2.135-1.462-11.413-5.275-21.179-11.035-27.593-1.333-1.484-3.203-2.376-5.195-2.479-2.001-.101-3.944.594-5.422 1.934-7.674 6.956-13.385 18.636-16.101 32.396-8.255-11.416-18.184-20.626-27.555-25.258-1.912-.945-4.136-1.032-6.115-.237-1.98.794-3.528 2.394-4.257 4.398-3.443 9.47-1.449 23.389 5.261 38.247-.217-.116-.441-.225-.657-.343-13.533-7.39-22.777-17.424-26.03-28.254-.952-3.171-3.871-5.343-7.183-5.343s-6.23 2.172-7.183 5.343c-1.307 4.349-1.969 8.797-1.969 13.222 0 17.618 10.006 33.968 28.184 46.102-31.341 19.835-51.988 53.413-51.988 91.418 0 60.812 52.861 110.287 117.837 110.287 36.584 0 70.479-15.508 92.993-42.547 2.65-3.183 2.219-7.912-.965-10.562-3.181-2.648-7.911-2.219-10.562.965-19.655 23.605-49.349 37.145-81.466 37.145-56.704-.001-102.837-42.747-102.837-95.288s46.133-95.287 102.837-95.287 102.836 42.746 102.836 95.287c0 10.267-1.755 20.371-5.216 30.032-1.397 3.899.632 8.193 4.531 9.59 3.899 1.398 8.192-.632 9.59-4.531 4.044-11.289 6.095-23.095 6.095-35.091 0-13.381-2.569-26.209-7.254-38.086 9.242 2.188 18.914 3.353 28.872 3.353 9.371 0 18.486-1.04 27.23-2.986-4.593 11.773-7.105 24.476-7.105 37.718 0 60.812 52.861 110.287 117.836 110.287 55.772 0 104.329-37.066 115.456-88.135.882-4.045-1.685-8.041-5.731-8.923zm-50.873-125.555c5.316-2.903 10.122-6.185 14.353-9.771-3.717 5.658-9.154 10.915-16.139 15.504-3.1 2.037-6.422 3.879-9.923 5.529-2.679-1.094-5.403-2.085-8.162-2.99 7.081-2.181 13.776-4.943 19.871-8.272zm-39.947-10.829c6.398-8.604 14.132-16.354 21.64-21.914-2.167 5.736-5.876 12.662-11.414 20.109-2.576 3.464-5.369 6.781-8.276 9.874-2.643.459-5.328.821-8.04 1.105 1.713-2.928 3.731-6.001 6.09-9.174zm-23.8-6.785c.698-9.734 3.219-18.938 6.858-25.75 2.5 6.87 3.611 15.945 2.932 25.443-.024.341-.068.675-.097 1.014-3.454 4.93-6.334 9.829-8.614 14.565-.282-.829-.578-1.662-.893-2.501-.415-4.051-.501-8.36-.186-12.771zm-19.086 6.73c1.571 2.865 2.897 5.626 4.013 8.265-3.137-.521-6.217-1.165-9.229-1.925-1.759-2.578-3.424-5.264-4.942-8.034-4.618-8.426-7.205-16.004-8.254-22.046 6.711 6.04 13.339 14.484 18.412 23.74zm-49.222 1.114c4.229 3.586 9.036 6.868 14.352 9.771 6.086 3.323 12.769 6.081 19.837 8.261-2.757.908-5.467 1.909-8.127 3-3.502-1.65-6.823-3.492-9.923-5.529-6.985-4.589-12.422-9.846-16.139-15.503zm-5.907-134.767c5.315-2.902 10.122-6.185 14.352-9.771-3.717 5.657-9.154 10.914-16.138 15.503-2.944 1.934-6.085 3.696-9.392 5.283-2.613-1.08-5.259-2.088-7.947-2.988 6.806-2.137 13.245-4.816 19.125-8.027zm-39.947-10.829c6.399-8.604 14.133-16.354 21.64-21.914-2.167 5.736-5.875 12.662-11.413 20.109-2.575 3.463-5.372 6.776-8.277 9.875-2.641.459-5.325.821-8.034 1.104 1.716-2.932 3.724-6.001 6.084-9.174zm-23.8-6.784c.697-9.734 3.219-18.938 6.858-25.751 2.5 6.871 3.611 15.946 2.932 25.443-.024.341-.068.675-.097 1.014-3.454 4.93-6.333 9.828-8.613 14.564-.283-.83-.579-1.664-.894-2.504-.416-4.05-.502-8.357-.186-12.766zm-19.085 6.729c1.571 2.865 2.896 5.626 4.013 8.265-3.134-.52-6.212-1.164-9.221-1.923-1.759-2.581-3.431-5.264-4.951-8.037-4.619-8.425-7.205-16.003-8.254-22.045 6.711 6.039 13.339 14.483 18.413 23.74zm-49.225 1.113c4.23 3.587 9.036 6.869 14.354 9.771 5.87 3.205 12.293 5.886 19.084 8.026-2.69.905-5.334 1.9-7.93 2.979-3.298-1.584-6.432-3.343-9.369-5.273-6.984-4.588-12.422-9.845-16.139-15.503zm-116.62 166.947c-2.321-1.217-4.568-2.509-6.695-3.906-6.984-4.589-12.422-9.846-16.139-15.504 4.23 3.587 9.036 6.868 14.353 9.771 4.801 2.622 9.971 4.895 15.41 6.809-2.348.875-4.657 1.821-6.929 2.83zm21.168-14.184c-1.757-2.577-3.419-5.265-4.936-8.034v.001c-4.618-8.426-7.205-16.004-8.254-22.046 6.711 6.04 13.339 14.483 18.413 23.74 1.571 2.866 2.891 5.625 4.008 8.265-3.137-.521-6.218-1.166-9.231-1.926zm34.098-13.376c-.025.343-.068.678-.097 1.02-3.448 4.927-6.334 9.825-8.613 14.558-.271-.797-.584-1.606-.885-2.412-.425-4.076-.513-8.416-.195-12.86.697-9.734 3.219-18.938 6.858-25.75 2.501 6.872 3.612 15.947 2.932 25.444zm24.237 5.287c-2.575 3.463-5.372 6.777-8.278 9.875-2.644.46-5.331.822-8.044 1.105 1.715-2.929 3.737-6.004 6.095-9.175 6.399-8.604 14.132-16.354 21.64-21.913-2.167 5.735-5.875 12.661-11.413 20.108zm21.24 22.273c-2.276-1.011-4.59-1.959-6.942-2.835 5.441-1.915 10.62-4.18 15.423-6.803 5.315-2.902 10.122-6.185 14.352-9.771-3.717 5.657-9.154 10.914-16.138 15.503-2.128 1.397-4.375 2.689-6.695 3.906z"/></g></svg>