<svg id="Capa_1" enable-background="new 0 0 512 512" height="512" viewBox="0 0 512 512" width="512" xmlns="http://www.w3.org/2000/svg"><g><g><g><g><path d="m159.414 279.037 203.445-242.456c29.641-27.754 71.175-38.628 94.084-19.404 22.91 19.224 19.414 62.014-2.772 96.024l-203.445 242.456z" fill="#fdf0b2"/></g><g><path d="m454.176 113.198-203.445 242.457-22.902-19.217 203.445-242.457c18.352-28.136 23.908-62.297 12.305-84.139 4.908 1.599 9.415 4.019 13.362 7.331 22.91 19.224 19.413 62.017-2.765 96.025z" fill="#fde784"/></g><g><path d="m341.567 75.106-7.434-6.238c-8.989-7.543-10.162-20.945-2.619-29.935l3.487-4.155c7.543-8.989 20.945-10.162 29.935-2.619l7.434 6.238c8.989 7.543 10.162 20.945 2.619 29.935l-3.487 4.155c-7.543 8.99-20.945 10.162-29.935 2.619z" fill="#fde784"/><path d="m374.987 68.335-3.483 4.151c-7.542 8.988-20.946 10.161-29.935 2.619l-7.433-6.237c-2.224-1.867-3.969-4.085-5.228-6.514 7.94 2.456 16.927.119 22.603-6.644l3.483-4.151c5.676-6.764 6.416-16.02 2.611-23.404 2.618.81 5.106 2.142 7.33 4.009l7.433 6.237c8.989 7.542 10.161 20.946 2.619 29.934z" fill="#fddd45"/><path d="m386.981 113.213-12.86-10.791c-8.989-7.543-10.162-20.945-2.619-29.935l3.487-4.155c7.543-8.989 20.945-10.162 29.935-2.619l12.86 10.791c8.989 7.543 10.162 20.945 2.619 29.935l-3.487 4.155c-7.544 8.989-20.946 10.162-29.935 2.619z" fill="#fddd45"/><path d="m420.399 106.44-3.483 4.151c-7.542 8.988-20.946 10.161-29.934 2.619l-12.859-10.79c-1.42-1.191-2.651-2.533-3.667-3.986 8.515 4.048 19.02 2.014 25.363-5.545l3.483-4.151c6.343-7.56 6.522-18.258 1.057-25.941 1.607.748 3.142 1.728 4.562 2.919l12.859 10.79c8.989 7.542 10.161 20.946 2.619 29.934z" fill="#f8c52d"/><path d="m426.968 146.766-7.434-6.238c-8.989-7.543-10.162-20.945-2.619-29.935l3.487-4.155c7.543-8.989 20.945-10.162 29.935-2.619l7.434 6.238c8.989 7.543 10.162 20.945 2.619 29.935l-3.487 4.155c-7.543 8.99-20.945 10.162-29.935 2.619z" fill="#fde784"/><path d="m460.386 139.993-3.483 4.151c-7.542 8.988-20.946 10.161-29.935 2.619l-7.433-6.237c-2.514-2.109-4.414-4.675-5.689-7.47 7.688 1.967 16.157-.45 21.59-6.924l3.483-4.151c5.433-6.475 6.342-15.235 3.063-22.455 2.982.761 5.839 2.187 8.352 4.296l7.433 6.237c8.988 7.542 10.161 20.946 2.619 29.934z" fill="#fddd45"/></g><g><path d="m311.575 109.413-11.051-9.273c-8.989-7.543-10.162-20.945-2.619-29.935l3.487-4.155c7.543-8.989 20.945-10.162 29.935-2.619l11.051 9.273c8.989 7.543 10.162 20.945 2.619 29.935l-3.487 4.155c-7.543 8.99-20.945 10.162-29.935 2.619z" fill="#fddd45"/><path d="m345.001 102.639-3.49 4.16c-7.542 8.988-20.946 10.161-29.935 2.619l-11.05-9.272c-1.546-1.298-2.865-2.774-3.936-4.381 8.433 3.778 18.69 1.691 24.927-5.742l3.49-4.16c6.237-7.433 6.511-17.897 1.326-25.546 1.769.775 3.452 1.818 4.998 3.115l11.05 9.272c8.989 7.543 10.162 20.946 2.62 29.935z" fill="#f8c52d"/><path d="m358.797 149.037-14.668-12.308c-8.989-7.543-10.162-20.945-2.619-29.935l3.487-4.155c7.543-8.989 20.945-10.162 29.935-2.619l14.668 12.308c8.989 7.543 10.162 20.945 2.619 29.935l-3.487 4.155c-7.543 8.99-20.945 10.162-29.935 2.619z" fill="#fde784"/><path d="m392.222 142.262-3.49 4.16c-7.542 8.988-20.946 10.161-29.935 2.619l-14.667-12.307c-1.094-.918-2.079-1.93-2.937-3.019 8.686 4.762 19.826 2.891 26.442-4.995l3.49-4.16c6.616-7.885 6.525-19.18.327-26.908 1.222.655 2.389 1.45 3.483 2.368l14.667 12.307c8.989 7.542 10.162 20.946 2.62 29.935z" fill="#fddd45"/><g><path d="m402.402 185.626-11.051-9.273c-8.989-7.543-10.162-20.945-2.619-29.935l3.487-4.155c7.543-8.989 20.945-10.162 29.935-2.619l11.051 9.273c8.989 7.543 10.162 20.945 2.619 29.935l-3.487 4.155c-7.544 8.989-20.946 10.162-29.935 2.619z" fill="#fddd45"/><path d="m435.825 178.85-3.49 4.16c-7.542 8.988-20.946 10.161-29.935 2.619l-11.05-9.272c-1.827-1.533-3.322-3.296-4.488-5.23 8.259 3.232 17.996 1.031 24.005-6.13l3.49-4.16c6.009-7.162 6.486-17.132 1.869-24.705 2.107.813 4.103 1.979 5.929 3.511l11.05 9.272c8.99 7.542 10.162 20.946 2.62 29.935z" fill="#f8c52d"/></g></g><g><path d="m329.278 186.46-16.878-14.162c-8.989-7.543-10.162-20.945-2.619-29.935l4.825-5.751c7.543-8.989 20.945-10.162 29.935-2.619l16.878 14.162c8.989 7.543 10.162 20.945 2.619 29.935l-4.825 5.751c-7.543 8.989-20.945 10.162-29.935 2.619z" fill="#fddd45"/><path d="m364.036 178.092-4.826 5.751c-7.542 8.988-20.946 10.161-29.935 2.619l-16.874-14.159c-.714-.599-1.382-1.236-1.985-1.913 8.859 5.677 20.754 4.024 27.697-4.25l4.826-5.751c6.943-8.274 6.504-20.276-.624-28.014.771.477 1.514 1.024 2.228 1.623l16.874 14.159c8.989 7.543 10.161 20.947 2.619 29.935z" fill="#f8c52d"/><g><path d="m279.847 144.982-13.261-11.127c-8.989-7.543-10.162-20.945-2.619-29.935l4.825-5.751c7.543-8.989 20.945-10.162 29.935-2.619l13.261 11.127c8.989 7.543 10.162 20.945 2.619 29.935l-4.825 5.751c-7.543 8.989-20.946 10.162-29.935 2.619z" fill="#fde784"/><path d="m314.609 136.618-4.826 5.751c-7.542 8.988-20.946 10.161-29.935 2.619l-13.266-11.131c-1.148-.964-2.18-2.03-3.068-3.175 8.676 4.645 19.695 2.734 26.266-5.096l4.826-5.751c6.571-7.831 6.539-19.014.458-26.752 1.282.675 2.511 1.506 3.66 2.47l13.266 11.131c8.989 7.541 10.161 20.945 2.619 29.934z" fill="#fddd45"/></g><g><path d="m375.093 224.902-13.261-11.127c-8.989-7.543-10.162-20.945-2.619-29.935l4.825-5.751c7.543-8.989 20.945-10.162 29.935-2.619l13.261 11.127c8.989 7.543 10.162 20.945 2.619 29.935l-4.825 5.751c-7.544 8.99-20.946 10.162-29.935 2.619z" fill="#fde784"/><path d="m409.846 216.531-4.826 5.751c-7.542 8.988-20.937 10.169-29.935 2.619l-13.256-11.123c-1.411-1.184-2.633-2.518-3.656-3.962 8.524 4.055 19.038 2.029 25.389-5.539l4.826-5.751c6.351-7.569 6.52-18.275 1.046-25.965 1.599.757 3.126 1.729 4.536 2.913l13.256 11.123c8.999 7.549 10.162 20.946 2.62 29.934z" fill="#fddd45"/></g></g><g><path d="m248.638 180.244-16.971-14.24c-8.989-7.543-10.162-20.945-2.619-29.935l4.46-5.315c7.543-8.989 20.945-10.162 29.935-2.619l16.971 14.24c8.989 7.543 10.162 20.945 2.619 29.935l-4.46 5.315c-7.543 8.99-20.945 10.162-29.935 2.619z" fill="#fddd45"/><path d="m283.027 172.31-4.462 5.317c-7.542 8.988-20.937 10.169-29.935 2.619l-16.964-14.234c-.506-.425-.99-.877-1.449-1.34 8.919 6.174 21.245 4.652 28.355-3.821l4.462-5.317c7.11-8.473 6.469-20.876-1.16-28.587.535.372 1.064.77 1.571 1.195l16.964 14.234c8.996 7.549 10.16 20.945 2.618 29.934z" fill="#f8c52d"/><path d="m299.971 223.318-18.779-15.758c-8.989-7.543-10.162-20.945-2.619-29.935l4.46-5.315c7.543-8.989 20.945-10.162 29.935-2.619l18.779 15.758c8.989 7.543 10.162 20.945 2.619 29.935l-4.46 5.315c-7.543 8.989-20.946 10.162-29.935 2.619z" fill="#fde784"/><path d="m334.362 215.385-4.462 5.317c-7.542 8.988-20.946 10.161-29.935 2.619l-18.781-15.76c-.389-.326-.763-.671-1.12-1.016 8.939 6.499 21.523 5.055 28.739-3.545l4.462-5.317c7.216-8.6 6.453-21.243-1.499-28.918.402.291.807.6 1.195.926l18.781 15.76c8.989 7.541 10.162 20.945 2.62 29.934z" fill="#fddd45"/><path d="m349.495 264.874-16.971-14.24c-8.989-7.543-10.162-20.945-2.619-29.935l4.46-5.315c7.543-8.989 20.945-10.162 29.935-2.619l16.971 14.24c8.989 7.543 10.162 20.945 2.619 29.935l-4.46 5.315c-7.543 8.989-20.945 10.162-29.935 2.619z" fill="#fddd45"/><path d="m383.889 256.943-4.462 5.317c-7.542 8.988-20.946 10.161-29.935 2.619l-16.973-14.242c-.76-.637-1.465-1.322-2.106-2.044 8.832 5.562 20.649 3.874 27.546-4.346l4.462-5.317c6.897-8.22 6.507-20.151-.504-27.882.823.506 1.619 1.082 2.379 1.719l16.973 14.242c8.989 7.541 10.162 20.945 2.62 29.934z" fill="#f8c52d"/></g><g><path d="m215.394 217.121-19.671-16.506c-8.989-7.543-10.162-20.945-2.619-29.935l6.096-7.265c7.543-8.989 20.945-10.162 29.935-2.619l19.671 16.506c8.989 7.543 10.162 20.945 2.619 29.935l-6.096 7.265c-7.543 8.99-20.945 10.162-29.935 2.619z" fill="#fde784"/><path d="m251.42 207.241-6.093 7.261c-7.542 8.988-20.946 10.161-29.935 2.619l-19.831-16.64c8.992 7.391 22.275 6.179 29.772-2.755l6.093-7.261c7.504-8.943 6.384-22.226-2.456-29.798l19.831 16.64c8.988 7.542 10.169 20.937 2.619 29.934z" fill="#fddd45"/><path d="m269.427 262.46-21.479-18.023c-8.989-7.543-10.162-20.945-2.619-29.935l6.096-7.265c7.543-8.989 20.945-10.162 29.935-2.619l21.479 18.023c8.989 7.543 10.162 20.945 2.619 29.935l-6.096 7.265c-7.544 8.99-20.946 10.162-29.935 2.619z" fill="#fddd45"/><path d="m305.45 252.577-6.093 7.261c-7.542 8.988-20.937 10.169-29.935 2.619l-21.087-17.695c8.988 7.542 22.392 6.369 29.935-2.619l6.093-7.261c7.55-8.997 6.369-22.392-2.619-29.935l21.087 17.695c8.997 7.551 10.168 20.938 2.619 29.935z" fill="#f8c52d"/><path d="m321.651 306.281-19.671-16.506c-8.989-7.543-10.162-20.945-2.619-29.935l6.096-7.265c7.543-8.989 20.945-10.162 29.935-2.619l19.671 16.506c8.989 7.543 10.162 20.945 2.619 29.935l-6.096 7.265c-7.543 8.99-20.945 10.162-29.935 2.619z" fill="#fde784"/><path d="m357.68 296.404-6.093 7.261c-7.542 8.988-20.946 10.161-29.935 2.619l-19.677-16.511c-.298-.25-.589-.51-.88-.769 8.967 6.723 21.732 5.338 29.024-3.352l6.093-7.261c7.299-8.699 6.439-21.502-1.739-29.165.306.241.612.483.91.733l19.677 16.511c8.989 7.541 10.17 20.936 2.62 29.934z" fill="#fddd45"/></g><g><g><path d="m180.687 255.9-22.214-18.64c-8.989-7.543-10.162-20.945-2.619-29.935l7.637-9.101c7.543-8.989 20.945-10.162 29.935-2.619l22.214 18.64c8.989 7.543 10.162 20.945 2.619 29.935l-7.637 9.101c-7.543 8.99-20.945 10.162-29.935 2.619z" fill="#fddd45"/><path d="m218.254 244.177-7.633 9.097c-7.55 8.997-20.937 10.169-29.935 2.619l-19.993-16.776c8.997 7.55 22.385 6.379 29.935-2.619l7.633-9.097c7.542-8.988 6.378-22.385-2.619-29.935l19.993 16.776c8.997 7.55 10.161 20.947 2.619 29.935z" fill="#f8c52d"/><path d="m237.264 303.374-24.023-20.158c-8.989-7.543-10.162-20.945-2.619-29.935l7.637-9.101c7.543-8.989 20.945-10.162 29.935-2.619l24.023 20.158c8.989 7.543 10.162 20.945 2.619 29.935l-7.637 9.101c-7.544 8.989-20.946 10.162-29.935 2.619z" fill="#fde784"/><path d="m274.834 291.653-7.633 9.097c-7.55 8.997-20.946 10.161-29.935 2.619l-21.097-17.702c8.988 7.542 22.385 6.379 29.935-2.619l7.633-9.097c7.542-8.988 6.37-22.392-2.619-29.935l21.097 17.702c8.988 7.543 10.161 20.947 2.619 29.935z" fill="#fddd45"/><path d="m292.032 349.329-22.214-18.64c-8.989-7.543-10.162-20.945-2.619-29.935l7.637-9.101c7.543-8.989 20.945-10.162 29.935-2.619l22.214 18.64c8.989 7.543 10.162 20.945 2.619 29.935l-7.637 9.101c-7.544 8.99-20.946 10.162-29.935 2.619z" fill="#fddd45"/><path d="m329.605 337.612-7.633 9.097c-7.55 8.997-20.946 10.161-29.935 2.619l-21.467-18.013c8.988 7.542 22.385 6.379 29.935-2.619l7.633-9.097c7.542-8.988 6.369-22.392-2.619-29.935l21.467 18.013c8.988 7.543 10.161 20.947 2.619 29.935z" fill="#f8c52d"/></g></g></g><g><g><path d="m80.558 501.916-35.629-29.896c-4.949-4.153-5.295-11.647-.749-16.238l29.38-29.672 47.24 39.639-24.12 34.086c-3.733 5.273-11.173 6.234-16.122 2.081z" fill="#d2f0a2"/><path d="m80.558 501.921-20.729-17.393c4.951 4.155 12.396 3.19 16.13-2.086l24.115-34.085 20.729 17.393-24.123 34.078c-3.735 5.276-11.179 6.241-16.122 2.093z" fill="#a3e440"/><g><g><path d="m88.528 456.142s133.16-60.073 162.738-224.127c16.158-89.619 35.405-143.677 46.947-170.621 2.266-5.29-4.067-10.081-8.546-6.467-74.316 59.97-336.995 287.219-201.139 401.215z" fill="#a3e440"/><path d="m88.528 456.136c-7.618-6.392-13.972-13.138-19.193-20.186 35.068-20.667 124.94-85.366 148.592-216.535 10.427-57.772 22.116-100.769 32.21-131.243 15.7-13.726 29.383-25.048 39.536-33.246 4.476-3.615 10.809 1.18 8.534 6.469-11.532 26.945-30.786 81.003-46.944 170.616-29.574 164.062-162.735 224.125-162.735 224.125z" fill="#99d53b"/><g><path d="m88.528 456.142s40.873-160.388 215.42-146.997c20.652 1.584 41.219-4.037 58.187-15.916 5.865-4.106 13.176 2.706 9.488 8.842-42.001 69.871-167.116 251.389-283.095 154.071z" fill="#bcea73"/><path d="m88.528 456.136s2.126-8.327 7.469-21.037c88.246 44.638 177.907-53.759 229.212-126.848 13.191-2.158 25.827-7.248 36.926-15.026 2.808-1.971 5.945-1.43 8.053.339 2.294 1.925 3.357 5.298 1.434 8.501-42.002 69.875-167.111 251.393-283.094 154.071z" fill="#99d53b"/></g></g></g></g></g></g><g><path d="m472.385 64.562c-4.064-.754-7.987 1.933-8.742 6.006-1.664 8.969-4.817 18.189-9.163 26.966-6.327-4.995-14.16-6.916-21.631-5.915-.019-.447-.045-.895-.085-1.344-.669-7.65-4.277-14.581-10.16-19.516l-12.86-10.791c-5.882-4.936-13.332-7.286-20.984-6.616-.445.039-.886.09-1.326.149-.019-.443-.045-.886-.084-1.331-.629-7.195-3.859-13.753-9.136-18.614 12.339-9.1 25.984-15.294 38.935-17.593 10.043-1.781 24.266-2.023 34.971 6.96 4.54 3.809 7.949 8.92 10.135 15.191 1.078 3.095 3.98 5.034 7.082 5.034.818 0 1.651-.135 2.468-.419 3.911-1.363 5.978-5.639 4.614-9.551-3.087-8.859-8.018-16.175-14.657-21.746-11.81-9.913-28.586-13.55-47.232-10.239-16.307 2.895-33.38 10.921-48.333 22.666-5.197-3.169-11.245-4.599-17.424-4.061-7.65.669-14.582 4.277-19.517 10.16l-3.486 4.155c-4.081 4.863-6.344 10.802-6.677 16.897-4.812-.233-9.65.741-14.031 2.872-.875-1.925-2.243-3.66-4.06-5.037-4.856-3.68-11.305-3.58-16.044.246-13.083 10.558-33.585 27.585-56.954 48.744-3.07 2.78-3.306 7.523-.525 10.594 2.78 3.07 7.523 3.305 10.594.525 19.749-17.882 37.422-32.776 50.216-43.242-12.691 31.279-29.773 83.837-44.402 164.972-5.037 27.936-13.538 54.642-25.257 79.405-15.598 4.743-30.301 11.304-44.044 19.675-3.538 2.155-4.659 6.77-2.504 10.307 2.155 3.539 6.774 4.658 10.307 2.504 34.09-20.765 74.796-29.499 120.987-25.953 21.016 1.615 42.088-3.718 59.787-15.056-30.646 50.345-106.012 160.179-187.2 173.758-27.824 4.653-54.317-2.697-78.812-21.85 4.419-13.732 20.342-56.08 57.542-90.073 3.058-2.795 3.272-7.538.477-10.597-2.793-3.058-7.538-3.271-10.596-.477-26.003 23.763-42.215 50.94-51.721 71.27-1.199-37.139 6.462-73.637 23.162-110.763 20.355-45.25 54.15-91.377 103.317-141.017 2.915-2.943 2.893-7.692-.05-10.607s-7.693-2.892-10.607.051c-95.366 96.281-137.174 184.056-130.171 274.299-13.257-16.039-20.098-34.359-20.802-55.532-1.452-43.67 24.086-121.885 153.997-246.504 2.988-2.868 3.088-7.616.22-10.605-2.867-2.99-7.615-3.088-10.605-.22-45.101 43.264-81.328 84.65-107.674 123.009-35.072 51.061-52.207 96.421-50.93 134.818.621 18.694 5.58 35.792 14.782 51.15l-18.643 18.828c-3.637 3.673-5.586 8.742-5.348 13.907.239 5.164 2.648 10.031 6.607 13.353l35.629 29.897c3.353 2.813 7.602 4.338 11.938 4.338.786 0 1.575-.05 2.361-.151 5.127-.663 9.78-3.463 12.765-7.682l14.911-21.071c13.55 5.728 27.57 8.608 41.989 8.608 6.174 0 12.42-.527 18.734-1.583 38.793-6.488 79.777-32.885 121.814-78.459 33.812-36.658 60.972-77.728 77.802-105.726 3.471-5.773 2.455-13.014-2.47-17.608-1.62-1.511-3.499-2.571-5.483-3.189.244-2.859.054-5.732-.556-8.522 6.016-1.375 11.544-4.665 15.634-9.54l4.46-5.315c4.936-5.883 7.286-13.335 6.616-20.985-.126-1.446-.359-2.867-.691-4.253 5.862-1.441 11.244-4.69 15.212-9.418l4.825-5.751c5.761-6.866 7.754-15.659 6.205-23.846 6.262-1.279 12.035-4.622 16.279-9.679l3.487-4.156c4.937-5.883 7.286-13.335 6.616-20.985-.127-1.456-.362-2.885-.698-4.28 5.821-1.429 11.154-4.663 15.161-9.44l3.486-4.155c4.936-5.883 7.286-13.335 6.616-20.985-.525-6-2.865-11.553-6.685-16.053 5.918-11.056 10.18-22.918 12.325-34.471.757-4.072-1.931-7.987-6.005-8.742zm-381.828 430.94c-.782 1.105-1.866 1.395-2.442 1.47-.573.074-1.698.07-2.735-.801l-35.63-29.897c-1.037-.87-1.236-1.974-1.264-2.554-.026-.581.07-1.699 1.022-2.661l16.716-16.882c5.032 6.244 10.859 12.153 17.483 17.711.001.001.003.002.004.003 6.664 5.591 13.476 10.4 20.425 14.422zm262.346-205.245c-7.359 4.399-15.346 7.614-23.648 9.533l-19.665-16.501c-2.009-1.686-4.185-3.042-6.46-4.088-2.169-4.772-1.436-10.471 1.977-14.538l6.097-7.265c2.359-2.813 5.674-4.538 9.332-4.859 3.656-.318 7.223.804 10.035 3.164l19.671 16.505c5.386 4.521 6.493 12.219 2.661 18.049zm-99.14-34.231 13.633 11.439c2.813 2.36 4.538 5.675 4.859 9.333.319 3.658-.804 7.222-3.164 10.035l-7.638 9.101c-.001.001-.002.003-.003.004-4.875 5.803-13.558 6.561-19.365 1.69l-1.277-1.072c5.143-13.107 9.472-26.644 12.955-40.53zm23.226-106.53c4.486 5.009 4.743 12.696.298 17.993l-4.46 5.316c-.63.751-1.334 1.422-2.093 2.012 1.919-8.209 4-16.692 6.255-25.321zm14.717-49.705c.775.428 1.513.929 2.2 1.505l13.261 11.128c5.806 4.872 6.567 13.561 1.694 19.368l-4.825 5.751c-3.371 4.018-8.782 5.737-13.809 4.511-1.394-1.972-3.058-3.799-4.992-5.423l-3.869-3.246c3.166-11.23 6.614-22.528 10.34-33.594zm97.931 27.616c.319 3.658-.804 7.221-3.164 10.035l-3.486 4.155c-3.165 3.773-8.127 5.539-12.926 4.698-1.129-1.388-2.4-2.693-3.82-3.885l-16.879-14.163c-1.413-1.186-2.919-2.218-4.494-3.1-1.666-4.579-.802-9.731 2.386-13.532l3.488-4.156c2.359-2.813 5.674-4.538 9.332-4.859 3.651-.321 7.222.804 10.035 3.164l14.668 12.309c2.814 2.361 4.54 5.676 4.86 9.334zm-49.135 56.304c-1.166-1.444-2.48-2.787-3.933-4.007l-18.779-15.758c-1.455-1.221-3.007-2.283-4.634-3.181-1.675-4.585-.793-9.809 2.372-13.581l4.826-5.751c.002-.003.004-.005.006-.008 2.36-2.809 5.671-4.531 9.326-4.851 3.654-.321 7.222.804 10.035 3.164l16.878 14.162c5.807 4.873 6.568 13.562 1.695 19.368l-4.826 5.751c-3.197 3.809-8.106 5.566-12.966 4.692zm-29.176 36.885c-1.092-1.318-2.309-2.561-3.666-3.7l-21.479-18.023c-1.347-1.13-2.782-2.104-4.27-2.953-1.623-4.559-.734-9.729 2.408-13.473l4.46-5.316c2.36-2.813 5.675-4.538 9.333-4.858 3.651-.324 7.222.804 10.035 3.164l18.78 15.758c2.813 2.36 4.538 5.675 4.859 9.333.319 3.658-.804 7.222-3.164 10.035l-4.46 5.315c-3.171 3.776-8.023 5.538-12.836 4.718zm-52.679 12.75c1.332-7.388 2.965-16.027 4.897-25.553 4.441-1.414 9.335-.5 12.993 2.571l21.479 18.023c5.807 4.873 6.568 13.562 1.695 19.368l-6.096 7.264c-3.17 3.778-8.034 5.539-12.855 4.712-1.114-1.349-2.355-2.61-3.724-3.759l-19.572-16.422c.412-2.062.809-4.129 1.183-6.204zm131.42-165.051c3.653-.319 7.222.803 10.035 3.164l12.861 10.791c2.813 2.36 4.538 5.675 4.859 9.333.319 3.658-.804 7.222-3.164 10.035l-3.486 4.155c-.001.001-.002.002-.003.003-3.157 3.76-8.118 5.532-12.912 4.697-1.142-1.399-2.421-2.703-3.835-3.89l-14.668-12.309c-1.515-1.271-3.136-2.368-4.836-3.288-1.738-4.615-.893-9.836 2.331-13.678l3.486-4.155c2.359-2.813 5.674-4.538 9.332-4.858zm-52.807-24.54 3.486-4.155c2.36-2.813 5.675-4.538 9.333-4.859 3.662-.319 7.222.803 10.036 3.165l7.435 6.238c2.813 2.36 4.537 5.675 4.858 9.332.32 3.658-.804 7.222-3.164 10.036l-3.486 4.155c-3.347 3.988-8.697 5.708-13.69 4.537-1.368-1.904-2.991-3.67-4.867-5.244l-11.051-9.273c-.501-.42-1.015-.813-1.534-1.193-1.306-4.404-.346-9.175 2.644-12.739zm-10.755 25.421 11.052 9.274c5.806 4.872 6.567 13.561 1.694 19.367l-3.487 4.156c-3.386 4.037-8.838 5.754-13.887 4.493-1.409-2.014-3.097-3.88-5.068-5.534l-13.261-11.128c-.795-.667-1.631-1.274-2.487-1.848-1.393-4.457-.457-9.3 2.59-12.93l3.486-4.155c4.875-5.807 13.562-6.566 19.368-1.695zm-49.678 231.772 3.754-4.473c4.873-5.807 13.562-6.567 19.368-1.695l8.444 7.086c-1.29-.038-2.581-.099-3.872-.198-9.441-.726-18.674-.962-27.694-.72zm101.318-48.83-4.46 5.316c-2.978 3.55-7.545 5.346-12.118 4.819-.539-.528-1.095-1.043-1.683-1.536l-19.671-16.505c-2.01-1.687-4.207-3.064-6.529-4.129-2.163-4.75-1.46-10.479 1.966-14.563l4.46-5.315c4.874-5.807 13.562-6.566 19.368-1.695l16.97 14.24c2.814 2.361 4.539 5.675 4.86 9.334.32 3.658-.803 7.221-3.163 10.034zm25.963-40.406-4.825 5.75c-2.986 3.558-7.442 5.33-12.031 4.826-.376-.351-.761-.695-1.159-1.029l-16.971-14.241c-1.936-1.624-4.025-2.946-6.21-3.976-2.077-4.737-1.316-10.373 2.046-14.38l4.826-5.751c2.36-2.813 5.675-4.538 9.333-4.858 3.647-.325 7.221.803 10.035 3.164l13.26 11.126c5.807 4.873 6.568 13.562 1.696 19.369zm25.97-37.682-3.487 4.156c-3.014 3.592-7.638 5.387-12.257 4.804-.714-.745-1.472-1.46-2.28-2.138l-13.26-11.126c-1.953-1.639-4.082-2.986-6.331-4.04-2.126-4.756-1.396-10.383 2.014-14.447l3.486-4.155c4.873-5.808 13.561-6.567 19.368-1.695l11.052 9.274c2.813 2.36 4.538 5.675 4.859 9.333.32 3.658-.803 7.222-3.164 10.034zm24.566-38.859-3.486 4.155c-2.978 3.549-7.486 5.32-12.025 4.824-.36-.334-.729-.661-1.107-.979l-11.052-9.274c-1.969-1.652-4.098-2.989-6.324-4.027-2.134-4.759-1.408-10.381 2.011-14.456l3.486-4.155c4.874-5.807 13.562-6.566 19.368-1.695l7.434 6.238c2.814 2.361 4.539 5.675 4.86 9.334.319 3.658-.804 7.222-3.165 10.035z"/><path d="m213.975 204.195c-.454.581-11.25 14.448-23.827 34.055-17.019 26.532-28.514 49.738-34.164 68.974-1.167 3.974 1.108 8.142 5.082 9.31.706.208 1.418.306 2.117.306 3.243 0 6.233-2.12 7.194-5.388 12.577-42.816 54.995-97.478 55.422-98.025 2.548-3.266 1.968-7.979-1.298-10.527-3.264-2.55-7.978-1.968-10.526 1.295z"/><path d="m134.148 431.5c-4.12-.504-7.851 2.426-8.353 6.538-.501 4.112 2.427 7.851 6.538 8.352 4.779.583 9.62.872 14.515.872 34.986 0 72.715-14.799 110.044-43.326 31.69-24.217 51.806-49.47 52.647-50.534 2.569-3.249 2.019-7.966-1.23-10.535-3.247-2.57-7.965-2.02-10.536 1.23-.774.98-78.414 97.782-163.625 87.403z"/></g></g></svg>