<svg id="Capa_1" enable-background="new 0 0 512 512" height="512" viewBox="0 0 512 512" width="512" xmlns="http://www.w3.org/2000/svg"><g><g><g><g><g><circle cx="385.831" cy="409.723" fill="#1ca56f" r="86.646"/><path d="m472.476 409.723c0 47.849-38.795 86.644-86.644 86.644-10.438 0-20.445-1.844-29.709-5.229 2.033.157 4.076.231 6.141.231 45.093 0 81.645-36.552 81.645-81.645s-36.552-81.645-81.645-81.645c-2.065 0-4.108.073-6.141.231 9.264-3.385 19.272-5.229 29.709-5.229 47.849-.002 86.644 38.793 86.644 86.642z" fill="#158f5e"/></g><g><circle cx="385.831" cy="409.723" fill="#dbf2b4" r="60.257"/><path d="m446.089 409.723c0 33.283-26.974 60.257-60.257 60.257-8.363 0-16.327-1.698-23.568-4.789 29.489-1.32 52.994-25.654 52.994-55.468s-23.505-54.147-52.994-55.468c7.241-3.091 15.205-4.789 23.568-4.789 33.283 0 60.257 26.974 60.257 60.257z" fill="#bcea73"/></g></g></g><g><g><g><path d="m145.612 219.561c160.754-177.195 226.702-164.469 265.137-126.135 71.226 71.039-18.088 157.091-126.135 265.138s-226.752 164.519-265.137 126.135c-38.385-38.385 23.465-151.969 126.135-265.138z" fill="#158f5e"/><path d="m284.618 358.57c-108.043 108.043-226.754 164.514-265.138 126.13-4.235-4.235-7.319-9.452-9.296-15.525 48.942 15.976 153.49-39.334 249.598-135.442 101.192-101.192 184.438-184.438 137.513-251.684 4.562 3.177 9.047 6.961 13.462 11.375 69.503 69.504-18.087 157.094-126.139 265.146z" fill="#0f7a4f"/><path d="m109.257 438.473c-6.292.23-9.633-7.36-5.256-11.885 65.246-67.455 135.341-139.347 124.14-150.548-11.2-11.2-83.093 58.894-150.548 124.14-4.525 4.377-12.116 1.035-11.885-5.256 1.376-37.584 25.065-101.948 48.674-142.264-87.295 98.194-129.393 197.549-94.902 232.04s133.846-7.607 232.041-94.901c-40.316 23.608-104.68 47.297-142.264 48.674z" fill="#99d53b"/><path d="m251.521 389.799c-98.195 87.294-197.549 129.392-232.041 94.901-4.158-4.158-7.202-9.257-9.195-15.19-.031-.109-.062-.218-.101-.335 26.931 8.79 70.679-4.002 120.594-33.284 37.497-6.945 87.365-26.542 120.743-46.092z" fill="#8dc637"/></g></g></g><g><g><g><circle cx="274.822" cy="409.723" fill="#1ca56f" r="86.646"/><path d="m361.467 409.723c0 47.849-38.795 86.644-86.644 86.644-10.438 0-20.445-1.844-29.709-5.229 2.033.157 4.076.231 6.141.231 45.093 0 81.645-36.552 81.645-81.645s-36.552-81.645-81.645-81.645c-2.065 0-4.108.073-6.141.231 9.264-3.385 19.272-5.229 29.709-5.229 47.85-.002 86.644 38.793 86.644 86.642z" fill="#158f5e"/></g><g><circle cx="274.822" cy="409.723" fill="#dbf2b4" r="60.257"/><path d="m335.08 409.723c0 33.283-26.974 60.257-60.257 60.257-8.363 0-16.327-1.698-23.568-4.789 29.489-1.32 52.994-25.654 52.994-55.468s-23.505-54.147-52.994-55.468c7.241-3.091 15.205-4.789 23.568-4.789 33.283 0 60.257 26.974 60.257 60.257z" fill="#bcea73"/></g></g></g></g><g><path d="m385.831 390.455c4.143 0 7.501-3.358 7.501-7.501v-7.596c0-4.143-3.358-7.501-7.501-7.501s-7.501 3.358-7.501 7.501v7.596c0 4.142 3.358 7.501 7.501 7.501z"/><path d="m393.332 444.088v-7.596c0-4.143-3.358-7.501-7.501-7.501s-7.501 3.358-7.501 7.501v7.596c0 4.143 3.358 7.501 7.501 7.501s7.501-3.358 7.501-7.501z"/><path d="m404.827 439.327c1.465 1.465 3.385 2.197 5.305 2.197 1.919 0 3.84-.733 5.305-2.197 2.929-2.929 2.929-7.679 0-10.608l-5.371-5.371c-2.93-2.929-7.679-2.929-10.609 0-2.929 2.929-2.929 7.679 0 10.608z"/><path d="m404.76 398.296c1.919 0 3.84-.733 5.305-2.197l5.371-5.371c2.929-2.929 2.929-7.679 0-10.608-2.93-2.929-7.679-2.929-10.609 0l-5.371 5.371c-2.929 2.929-2.929 7.679 0 10.608 1.465 1.464 3.385 2.197 5.304 2.197z"/><path d="m405.099 409.723c0 4.143 3.358 7.501 7.501 7.501h7.596c4.143 0 7.501-3.358 7.501-7.501s-3.358-7.501-7.501-7.501h-7.596c-4.143-.001-7.501 3.358-7.501 7.501z"/><path d="m449.552 116.983c16.687 0 32.379-6.499 44.178-18.299 24.36-24.36 24.36-63.997 0-88.357-2.93-2.929-7.679-2.929-10.609 0-2.929 2.929-2.929 7.679 0 10.608 9.391 9.391 14.008 21.769 13.871 34.104-.984-1.326-2.073-2.588-3.261-3.777-13.075-13.075-34.347-13.074-47.422 0-6.333 6.334-9.821 14.754-9.821 23.711s3.488 17.377 9.821 23.711c1.206 1.206 2.483 2.299 3.816 3.283-.191.002-.381.014-.572.014-12.493 0-24.243-4.801-33.162-13.516-.113-.114-.218-.229-.331-.343-21.399-21.398-46.179-30.14-73.651-25.98-23.497 3.558-49.893 16.599-80.694 39.866-3.306 2.497-3.962 7.201-1.464 10.507 2.497 3.306 7.202 3.962 10.507 1.464 28.76-21.724 52.932-33.828 73.898-37.003 22.687-3.436 42.48 3.587 60.492 21.457.076.083.146.17.226.251.134.134.275.258.41.391 26.43 26.669 29.17 57.497 8.616 96.977-13.629 26.179-36.658 57.756-104.365 126.362-10.883-4.405-22.768-6.837-35.212-6.837-51.913 0-94.147 42.234-94.147 94.147 0 1.434.038 2.86.101 4.279-27.526 9.924-52.956 16.036-70.532 16.92l3.851-3.981c31.791-32.86 64.664-66.839 88.041-93.798 32.134-37.058 40.327-53.388 31.308-62.408-9.018-9.022-25.35-.826-62.404 31.306-26.957 23.375-60.934 56.246-93.792 88.035l-3.989 3.859c1.539-29.768 19.785-89.732 47.238-136.862 9.667-10.842 19.824-21.608 30.422-32.207 32.569-32.569 63.332-63.331 92.152-88.325 3.129-2.714 3.466-7.452.752-10.581-2.714-3.13-7.45-3.466-10.582-.753-29.223 25.342-60.168 56.288-92.932 89.05-10.954 10.954-21.452 22.092-31.441 33.318-.044.048-.087.096-.129.145-38.14 42.885-68.731 87.062-87.879 127.311-25.291 53.162-27.666 93.994-6.686 114.974 5.708 5.707 12.97 9.755 21.587 12.032.642.17 1.286.251 1.921.251 3.322 0 6.359-2.224 7.247-5.586 1.059-4.006-1.33-8.11-5.336-9.169-6.02-1.591-11.003-4.329-14.811-8.136-15.916-15.916-12.407-51.606 9.625-97.919 11.446-24.059 27.162-49.616 46.246-75.481-12.281 31.209-21.553 64.344-22.444 88.652-.217 5.93 3.15 11.325 8.578 13.744 5.448 2.429 11.736 1.321 16.019-2.822l4.872-4.712c30.332-29.345 61.696-59.688 87.32-82.343 26.735-23.637 39.481-31.92 45.414-34.75-2.83 5.933-11.114 18.68-34.753 45.418-22.656 25.625-53.002 56.992-82.348 87.325l-4.705 4.864c-4.142 4.283-5.25 10.571-2.822 16.019 2.346 5.263 7.489 8.588 13.204 8.588.18 0 .359-.003.54-.01 18.693-.685 44.472-6.6 73.184-16.729.323 1.525.682 3.035 1.078 4.532-41.46 28.701-80.891 47.685-111.235 53.518-4.068.782-6.733 4.714-5.95 8.782.691 3.59 3.833 6.087 7.358 6.087.47 0 .946-.044 1.425-.136 31.981-6.147 71.159-24.655 113.602-53.618 14.784 32.675 47.695 55.465 85.829 55.465 20.726 0 39.905-6.737 55.474-18.129 16.187 11.865 35.313 18.129 55.535 18.129 51.913 0 94.147-42.234 94.147-94.147s-42.234-94.147-94.147-94.147c-19.974 0-39.477 6.417-55.525 18.137-2.014-1.474-4.088-2.871-6.218-4.185 49.609-50.41 84.331-89.501 103.619-126.549 17.274-33.182 19.972-62.084 8.04-87.536 4.483 1.004 9.102 1.538 13.807 1.538zm7.365-28.908c-3.501-3.5-5.428-8.153-5.428-13.102s1.927-9.602 5.427-13.102c3.613-3.612 8.358-5.418 13.103-5.418s9.49 1.806 13.103 5.418c3.5 3.5 5.427 8.153 5.427 13.102 0 4.939-1.92 9.582-5.406 13.08-.007.007-.014.015-.021.022-.006.006-.012.011-.018.017-7.228 7.207-18.969 7.202-26.187-.017zm-261.239 321.648c0-43.64 35.504-79.144 79.144-79.144 43.641 0 79.145 35.504 79.145 79.144s-35.504 79.144-79.145 79.144c-43.64 0-79.144-35.504-79.144-79.144zm167.856 31.525c1.209-.334 2.352-.971 3.302-1.921l5.371-5.371c2.929-2.929 2.929-7.679 0-10.608-1.118-1.118-2.502-1.806-3.947-2.071.465-3.788.71-7.643.71-11.554s-.244-7.766-.71-11.554c1.446-.265 2.829-.953 3.947-2.071 2.929-2.929 2.929-7.679 0-10.608l-5.371-5.371c-.95-.95-2.093-1.587-3.302-1.92-1.618-4.54-3.572-8.922-5.838-13.113 8.405-5.323 18.043-8.119 28.134-8.119 29.09 0 52.756 23.666 52.756 52.756s-23.666 52.756-52.756 52.756c-10.089 0-19.73-2.795-28.135-8.118 2.267-4.19 4.221-8.573 5.839-13.113zm101.441-31.525c0 43.64-35.504 79.144-79.144 79.144-15.832 0-30.863-4.565-43.842-13.245 2.684-2.735 5.201-5.632 7.538-8.675 10.839 6.907 23.283 10.534 36.303 10.534 37.362 0 67.759-30.396 67.759-67.759 0-37.362-30.397-67.758-67.759-67.758-13.024 0-25.465 3.626-36.304 10.533-2.333-3.038-4.846-5.93-7.524-8.66 12.917-8.586 28.199-13.26 43.827-13.26 43.642.001 79.146 35.506 79.146 79.146z"/><path d="m301.328 123.962-9.03 9.029c-2.93 2.929-2.93 7.679-.001 10.608 1.465 1.465 3.384 2.197 5.305 2.197 1.919 0 3.84-.733 5.304-2.197l9.03-9.029c2.93-2.929 2.93-7.679.001-10.608-2.931-2.929-7.681-2.93-10.609 0z"/><path d="m306.164 229.058c1.464 1.465 3.384 2.197 5.304 2.197 1.919 0 3.84-.733 5.305-2.197l9.029-9.029c2.929-2.93 2.929-7.679-.001-10.608-2.928-2.93-7.678-2.929-10.608 0l-9.029 9.029c-2.93 2.929-2.93 7.679 0 10.608z"/><path d="m243.924 223.576c1.465 1.465 3.384 2.197 5.305 2.197 1.919 0 3.84-.733 5.304-2.197l9.03-9.029c2.93-2.929 2.93-7.679.001-10.608-2.929-2.93-7.679-2.93-10.608 0l-9.03 9.029c-2.931 2.929-2.931 7.678-.002 10.608z"/><path d="m281.352 300.454c1.464 1.465 3.384 2.197 5.304 2.197s3.84-.733 5.305-2.197l9.029-9.029c2.929-2.93 2.929-7.679-.001-10.608-2.928-2.93-7.678-2.929-10.608 0l-9.029 9.029c-2.93 2.929-2.93 7.679 0 10.608z"/><path d="m152.42 249.166-9.03 9.03c-2.929 2.929-2.929 7.679 0 10.608 1.465 1.465 3.385 2.197 5.305 2.197s3.84-.733 5.305-2.197l9.03-9.03c2.929-2.929 2.929-7.679 0-10.608-2.931-2.929-7.679-2.929-10.61 0z"/><path d="m370.708 163.676c-2.929 2.93-2.929 7.679.001 10.608 1.464 1.465 3.384 2.197 5.304 2.197 1.919 0 3.84-.733 5.305-2.197l9.029-9.029c2.929-2.93 2.929-7.679-.001-10.608-2.928-2.93-7.678-2.929-10.608 0z"/><path d="m334.568 420.63c-3.957-1.242-8.164.958-9.404 4.911-6.934 22.094-27.164 36.938-50.341 36.938-29.09 0-52.757-23.666-52.757-52.756s23.667-52.756 52.757-52.756c23.102 0 43.312 14.786 50.291 36.792 1.253 3.949 5.465 6.137 9.419 4.883 3.949-1.252 6.135-5.469 4.883-9.418-8.964-28.267-34.922-47.259-64.592-47.259-37.363 0-67.76 30.396-67.76 67.759s30.397 67.759 67.76 67.759c29.766 0 55.749-19.068 64.656-47.448 1.239-3.955-.96-8.165-4.912-9.405z"/><path d="m282.323 375.358c0-4.143-3.358-7.501-7.501-7.501s-7.501 3.358-7.501 7.501v7.596c0 4.143 3.358 7.501 7.501 7.501s7.501-3.358 7.501-7.501z"/><path d="m274.822 428.991c-4.143 0-7.501 3.358-7.501 7.501v7.596c0 4.143 3.358 7.501 7.501 7.501s7.501-3.358 7.501-7.501v-7.596c0-4.143-3.358-7.501-7.501-7.501z"/><path d="m288.446 433.956 5.371 5.371c1.465 1.465 3.385 2.197 5.305 2.197 1.919 0 3.84-.733 5.305-2.197 2.929-2.929 2.929-7.679 0-10.608l-5.371-5.371c-2.93-2.929-7.679-2.929-10.609 0s-2.93 7.679-.001 10.608z"/><path d="m261.199 385.49-5.371-5.371c-2.93-2.929-7.679-2.929-10.609 0-2.929 2.929-2.929 7.679 0 10.608l5.371 5.371c1.465 1.465 3.385 2.197 5.305 2.197 1.919 0 3.84-.733 5.305-2.197 2.928-2.929 2.928-7.679-.001-10.608z"/><path d="m293.751 398.296c1.919 0 3.84-.733 5.305-2.197l5.371-5.371c2.929-2.929 2.929-7.679 0-10.608-2.93-2.929-7.679-2.929-10.609 0l-5.371 5.371c-2.929 2.929-2.929 7.679 0 10.608 1.464 1.464 3.385 2.197 5.304 2.197z"/><path d="m250.523 441.524c1.919 0 3.84-.733 5.305-2.197l5.371-5.371c2.929-2.929 2.929-7.679 0-10.608-2.93-2.929-7.679-2.929-10.609 0l-5.371 5.371c-2.929 2.929-2.929 7.679 0 10.608 1.464 1.465 3.385 2.197 5.304 2.197z"/><path d="m316.689 409.723c0-4.143-3.358-7.501-7.501-7.501h-7.596c-4.143 0-7.501 3.358-7.501 7.501s3.358 7.501 7.501 7.501h7.596c4.143 0 7.501-3.358 7.501-7.501z"/><path d="m255.554 409.723c0-4.143-3.358-7.501-7.501-7.501h-7.595c-4.143 0-7.501 3.358-7.501 7.501s3.358 7.501 7.501 7.501h7.595c4.143 0 7.501-3.358 7.501-7.501z"/><path d="m371.577 111.183-9.03 9.029c-2.93 2.929-2.93 7.679-.001 10.608 1.465 1.465 3.384 2.197 5.305 2.197 1.919 0 3.84-.733 5.304-2.197l9.03-9.029c2.93-2.929 2.93-7.679.001-10.608-2.93-2.929-7.68-2.93-10.609 0z"/><path d="m75.522 444.877c2.929-2.93 2.929-7.679-.001-10.608-2.928-2.93-7.678-2.929-10.608 0l-9.029 9.029c-2.929 2.93-2.929 7.679.001 10.608 1.464 1.465 3.384 2.197 5.304 2.197 1.919 0 3.84-.733 5.305-2.197z"/><path d="m124.178 306.559-9.029 9.029c-2.929 2.93-2.929 7.679.001 10.608 1.464 1.465 3.384 2.197 5.304 2.197 1.919 0 3.84-.733 5.305-2.197l9.029-9.029c2.929-2.93 2.929-7.679-.001-10.608-2.929-2.93-7.679-2.929-10.609 0z"/></g></g></svg>