<svg id="Capa_1" enable-background="new 0 0 512.002 512.002" height="512" viewBox="0 0 512.002 512.002" width="512" xmlns="http://www.w3.org/2000/svg"><g><g><g><path d="m244.582 472.578h-98.87c-81.08 1.09-139.15-80.05-138.2-156.28 0-49.46 21.67-96.44 59.28-128.55l82.95-70.8 4.29-51.18c.61-7.27 9.08-10.9 14.76-6.35l6.2 4.97 65.56 52.56 82.95 70.8c37.62 32.11 59.28 79.09 59.28 128.55.95 76.24-57.1 157.36-138.2 156.28z" fill="#978ecb"/><path d="m382.782 316.298c0-49.46-21.66-96.44-59.28-128.55l-82.95-70.8-65.56-52.56-6.2-4.97c-5.68-4.55-14.15-.92-14.76 6.35l-1.722 20.545 121.162 101.435c37.62 32.11 59.28 79.09 59.28 128.55.95 76.24-57.1 157.36-138.2 156.28h50.03c81.1 1.08 139.15-80.04 138.2-156.28z" fill="#8379c1"/><path d="m240.552 116.948-65.56-52.56 3.23-12.01c1.03-3.82 3.28-7.07 6.26-9.35 2.99-2.29 6.7-3.62 10.67-3.62 7.92 0 14.86 5.32 16.92 12.97l9.15 33.97c3.21 11.92 9.95 22.59 19.33 30.6z" fill="#80d261"/></g><g><g><path d="m342.926 86.349-9.145-33.968c-3.99-16.958-29.865-16.952-33.853 0l-9.144 33.968c-3.208 11.918-9.949 22.585-19.336 30.597l-82.946 70.805c-37.617 32.111-59.281 79.088-59.281 128.547-.954 76.226 57.117 157.371 138.2 156.279h98.87c81.095 1.081 139.145-80.043 138.2-156.279 0-49.459-21.664-96.436-59.281-128.547l-82.947-70.805c-9.387-8.013-16.129-18.68-19.337-30.597z" fill="#fcf2eb"/><path d="m504.49 316.298c0-49.459-21.664-96.436-59.281-128.547l-82.947-70.805c-9.387-8.013-16.128-18.68-19.336-30.597l-9.144-33.968c-3.99-16.958-29.865-16.952-33.853 0l-6.352 23.594 4.32 10.374c3.208 11.918 9.949 22.585 19.336 30.597l82.947 70.805c37.617 32.111 61.953 79.088 61.953 128.547.944 76.236-59.777 157.36-140.872 156.279h-53.853.013 98.87c81.094 1.082 139.144-80.043 138.199-156.279z" fill="#ffead8"/><path d="m277.448 413.363c-7.858 11.525-22.368 16.723-35.639 12.427-46.085-14.918-68.922-63.403-70.231-109.491 0-37.12 16.192-72.231 44.424-96.33l82.946-70.805c6.858-5.855 12.859-12.5 17.907-19.784 5.048 7.284 11.048 13.93 17.907 19.784l82.947 70.806c28.232 24.1 44.424 59.211 44.424 96.33-1.231 46.477-24.852 95.773-71.654 109.963-13.322 4.039-27.709-1.378-35.375-12.998l-38.249-57.973c0-.001-24.338 35.972-39.407 58.071z" fill="#fe646f"/><g><path d="m417.709 219.968-82.947-70.806c-6.859-5.854-12.859-12.5-17.907-19.784-4.948 7.141-10.817 13.662-17.506 19.431.135.116.264.237.4.352l82.947 70.806c28.232 24.1 44.424 59.211 44.424 96.33-1.145 43.238-21.681 88.899-62.219 106.481 7.492 4.666 16.763 6.155 25.578 3.482 46.801-14.19 70.423-63.487 71.654-109.963 0-37.118-16.193-72.229-44.424-96.329z" fill="#fd4755"/></g></g><path d="m316.855 355.291-21.286 31.368c-10.669 15.723-9.357 36.67 3.19 50.939 9.544 10.853 26.493 10.719 35.863-.284l.174-.204c12.03-14.126 13.277-34.502 3.059-49.989z" fill="#d6694b"/></g></g><g><path d="m450.079 182.047-82.947-70.805c-8.271-7.061-14.136-16.342-16.963-26.843l-9.116-33.862c-2.647-10.995-12.354-18.373-24.196-18.373-11.844 0-21.552 7.378-24.199 18.374l-9.116 33.861c-1.653 6.142-4.357 11.887-8.037 17.076-2.396 3.379-1.599 8.06 1.78 10.456 3.378 2.394 8.061 1.599 10.456-1.78 4.708-6.64 8.168-13.992 10.285-21.853l9.145-33.968c.021-.077.04-.154.059-.232 1.203-5.113 5.762-6.934 9.627-6.934 3.864 0 8.422 1.821 9.625 6.934.019.078.038.155.059.232l9.145 33.968c3.617 13.438 11.124 25.316 21.709 34.352l82.947 70.806c36.002 30.732 56.65 75.506 56.651 122.935.511 41.208-16.68 83.289-45.984 112.565-16.785 16.77-45.098 36.658-84.717 36.121h-98.87c-38.073.917-68.453-19.494-84.715-36.119-29.311-29.282-46.502-71.363-45.986-112.66 0-47.336 20.648-92.11 56.65-122.842l67.501-57.613c3.234-2.653 3.682-8.416 0-11.409l-15.449-13.189c-8.266-7.059-14.13-16.342-16.959-26.848l-9.149-33.97c-2.937-10.904-12.872-18.52-24.162-18.52-10.415-.123-21.989 7.766-24.521 19.817-8.599-4.905-23.466 1.264-24.075 13.412l-4.031 48.11-80.603 68.797c-39.345 33.591-61.91 82.525-61.91 134.161-.563 45.166 18.273 91.284 50.387 123.366 26.467 26.517 60.128 41.101 95.362 40.507l220.429-.001c35.432.465 68.42-13.536 95.418-40.509 32.106-32.076 50.941-78.193 50.382-123.27-.001-51.731-22.567-100.663-61.912-134.25zm-261.036-133.065c1.771-1.357 3.884-2.074 6.109-2.074 4.522 0 8.501 3.051 9.678 7.42l8.37 31.077-29.693-23.802 1.956-7.273c.572-2.12 1.842-4.018 3.58-5.348zm-43.331 416.096c-38.734.704-68.243-19.386-84.711-36.119-29.311-29.282-46.503-71.363-45.989-112.661 0-47.334 20.648-92.109 56.649-122.846l82.95-70.8c1.273-1.224 2.208-2.281 2.608-5.128l4.284-51.135c.054-.636.378-1.086.964-1.338.587-.251 1.137-.177 1.634.222l80.348 64.864-60.818 51.909c-39.346 33.587-61.912 82.52-61.912 134.158-.565 45.165 18.27 91.282 50.384 123.365 10.511 10.5 21.932 19.027 34.047 25.508h-60.438z"/><path d="m443.988 382.843c3.692 1.875 8.207.402 10.083-3.291 9.586-18.874 14.966-40.678 15.559-63.055.001-.066.002-.132.002-.199 0-39.317-17.151-76.507-47.055-102.035l-82.947-70.806c-6.327-5.4-11.916-11.575-16.611-18.351-1.401-2.022-3.705-3.229-6.165-3.229s-4.764 1.207-6.165 3.229c-4.695 6.775-10.284 12.95-16.611 18.352l-82.946 70.805c-29.904 25.527-47.055 62.717-47.055 102.035 0 .071.001.142.003.213.715 25.182 7.591 50.051 19.36 70.029 13.449 22.827 32.833 38.867 56.059 46.385 15.319 4.96 32.328-.367 42.39-12.968 1.676 8.177 5.432 15.992 11.237 22.593 5.933 6.747 14.463 10.602 23.44 10.602.082 0 .166 0 .249-.001 9.066-.072 17.638-4.072 23.517-10.975l.174-.204c5.381-6.318 8.919-13.755 10.58-21.545 9.843 11.908 25.903 17.582 41.569 13.012 14.708-4.46 27.883-12.28 39.159-23.242 2.97-2.887 3.037-7.636.149-10.605-2.889-2.971-7.636-3.037-10.605-.149-9.541 9.276-20.662 15.885-33.055 19.643-9.999 3.03-21.074-1.062-26.939-9.951l-37.009-56.094v-19.081l38.519 8.043c.015.003.031.004.046.007.213.043.426.075.64.099.029.003.057.009.086.012.253.026.506.041.758.041.009 0 .017-.002.026-.002h29.052l14.861 21.729c1.453 2.125 3.804 3.267 6.197 3.267 1.458 0 2.933-.424 4.227-1.31 3.419-2.338 4.295-7.005 1.957-10.424l-17.095-24.995c-1.397-2.044-3.714-3.266-6.19-3.266h-21.919l7.861-19.481c1.55-3.841-.308-8.212-4.148-9.762s-8.211.307-9.762 4.148l-9.672 23.97-35.445-7.401v-21.395l45.869-32.697 35.987 13.391c.862.321 1.746.473 2.615.473 3.043 0 5.906-1.867 7.03-4.886 1.444-3.882-.532-8.2-4.414-9.645l-32.753-12.187 8.188-22.654c1.408-3.896-.608-8.195-4.504-9.603-3.897-1.411-8.195.608-9.603 4.504l-9.918 27.441-38.498 27.442v-40.463c0-4.142-3.358-7.5-7.5-7.5s-7.5 3.358-7.5 7.5v40.672l-38.791-27.651-9.918-27.441c-1.408-3.896-5.708-5.913-9.603-4.504-3.896 1.408-5.912 5.707-4.504 9.603l8.188 22.654-32.753 12.187c-3.882 1.445-5.858 5.763-4.414 9.645 1.124 3.02 3.986 4.886 7.03 4.886.869 0 1.752-.152 2.615-.473l35.987-13.391 46.163 32.906v21.125l-35.738 7.463-9.672-23.97c-1.55-3.84-5.918-5.698-9.762-4.148-3.841 1.55-5.698 5.92-4.148 9.762l7.861 19.481h-21.919c-2.476 0-4.793 1.222-6.191 3.266l-17.094 24.995c-2.338 3.419-1.462 8.086 1.957 10.425 1.295.885 2.769 1.31 4.227 1.31 2.393 0 4.745-1.143 6.198-3.267l14.86-21.729h29.052c.009 0 .017.002.026.002.252 0 .505-.015.758-.041.03-.003.059-.009.089-.013.213-.024.425-.056.637-.099.016-.003.031-.004.047-.007l38.813-8.104v19.089s-32.955 48.601-38.104 56.151c-6.018 8.827-17.173 12.741-27.133 9.517-28.91-9.358-63.277-41.809-65.041-102.461.03-34.884 15.259-67.871 41.793-90.521l82.946-70.805c4.716-4.025 9.078-8.424 13.038-13.143 3.96 4.719 8.322 9.118 13.038 13.143l82.946 70.806c26.535 22.651 41.764 55.644 41.793 90.527-.547 20.13-5.365 39.688-13.935 56.562-1.873 3.688-.4 8.203 3.293 10.078zm-114.902 49.404-.174.204c-3.054 3.586-7.506 5.664-12.216 5.701-4.748.023-9.195-1.971-12.305-5.507-10.014-11.388-11.298-27.96-3.296-40.726 5.918-8.722 11.584-17.084 15.68-23.131l14.82 22.462c8.328 12.625 7.297 29.482-2.509 40.997z"/><path d="m365.073 362.136c-.905-3.576-1.505-5.74-7.463-6.757-4.14 0-7.496 3.355-7.5 7.494v.006c.268 1.704.708 6.519 6.758 7.463 4.008-.209 7.143-.822 8.242-7.463.001-.249-.012-.497-.037-.743z"/><circle cx="290.461" cy="238.357" r="7.5"/><circle cx="277.591" cy="209.092" r="7.5"/><circle cx="303.801" cy="195.387" r="7.5"/><circle cx="331.411" cy="195.387" r="7.5"/><circle cx="357.611" cy="209.092" r="7.5"/><circle cx="344.746" cy="238.357" r="7.5"/><circle cx="408.831" cy="304.872" r="7.5"/><circle cx="431.821" cy="319.769" r="7.5"/><circle cx="393.001" cy="372.958" r="7.5"/><circle cx="382.793" cy="396.252" r="7.5"/><circle cx="224.878" cy="304.872" r="7.5"/><circle cx="201.888" cy="319.769" r="7.5"/><circle cx="276.098" cy="362.878" r="7.5"/><circle cx="240.708" cy="372.958" r="7.5"/><circle cx="250.916" cy="396.252" r="7.5"/><path d="m133.22 185.132c1.425 1.253 3.191 1.869 4.951 1.869 2.081 0 4.152-.861 5.634-2.546l33.404-37.972c2.736-3.11 2.433-7.849-.678-10.585-3.11-2.736-7.85-2.433-10.585.678l-33.404 37.972c-2.735 3.109-2.432 7.848.678 10.584z"/></g></g></svg>