<svg id="Capa_1" enable-background="new 0 0 512.498 512.498" height="512" viewBox="0 0 512.498 512.498" width="512" xmlns="http://www.w3.org/2000/svg"><g><g><path d="m366.263 314.277v18.915c0 15.348-2.477 30.498-7.256 44.888-4.767 14.39-11.836 28.02-21.018 40.33-30.366 40.715-78.16 64.695-128.949 64.695h-43.82c-25.389 0-50.029-5.989-72.126-17.077-22.097-11.087-41.629-27.261-56.811-47.618-18.365-24.618-28.285-54.51-28.285-85.217v-18.915c0-33.746 11.979-66.401 33.79-92.143 17.714-22.271 46.881-50.855 64.342-80.686 12.035-20.56 33.906-33.355 57.73-33.355h46.541c23.826 0 45.702 12.795 57.733 33.36 17.438 29.808 46.524 58.259 64.34 80.681 21.821 25.741 33.789 58.397 33.789 92.142z" fill="#bbec6c"/><path d="m332.473 222.135c-17.815-22.422-46.902-50.873-64.34-80.681-12.031-20.565-33.907-33.36-57.733-33.36h-46.54c-.583 0-1.164.014-1.745.029 23.145.608 44.252 13.269 55.988 33.331 17.438 29.808 46.524 58.259 64.34 80.681 21.822 25.741 33.79 58.397 33.79 92.143v18.915c0 15.348-2.477 30.498-7.256 44.888-4.767 14.39-11.836 28.02-21.018 40.33-29.746 39.884-76.218 63.693-125.845 64.649 1.035.02 2.069.046 3.106.046h43.82c50.789 0 98.583-23.98 128.949-64.695 9.182-12.309 16.251-25.939 21.018-40.33 4.778-14.39 7.256-29.54 7.256-44.888v-18.915c0-33.746-11.968-66.402-33.79-92.143z" fill="#a2e62e"/><path d="m170.306 44.241c-37.206-37.206-59.876-14.536-59.876-14.536s-22.67 22.67 14.536 59.876c25.677 25.677 62.496 17.156 62.496 17.156s8.521-36.818-17.156-62.496z" fill="#22b27f"/><path d="m170.306 44.241c-26.152-26.152-45.123-22.721-54.086-18.374 7.595 3.017 16.327 8.646 26.055 18.374 21.029 21.029 19.121 52.207 17.74 62.809 15.247 2.498 27.447-.313 27.447-.313s8.521-36.818-17.156-62.496z" fill="#09a76d"/><circle cx="333.985" cy="318.625" fill="#feb2a7" r="171.013"/><path d="m333.985 147.612c-8.498 0-16.849.629-25.015 1.826 82.589 12.106 145.998 83.237 145.998 169.187s-63.41 157.08-145.998 169.187c8.166 1.197 16.516 1.827 25.015 1.827 94.448 0 171.013-76.565 171.013-171.013s-76.565-171.014-171.013-171.014z" fill="#ffa799"/><g fill="#fd4755"><path d="m301.646 342.27-46.915 64.576c-4.609 6.345-13.923 6.941-19.196 1.137-21.465-23.628-34.567-54.996-34.567-89.36 0-3.044.103-6.065.306-9.06.55-8.126 8.517-13.614 16.263-11.097l78.124 25.386c7.734 2.512 10.764 11.839 5.985 18.418z"/><path d="m304.32 297.221-79.303-25.77c-7.515-2.442-10.826-11.153-6.94-18.033 18.263-32.335 49.661-56.304 86.901-64.613 7.714-1.721 15.009 4.265 15.009 12.169v84.865c.001 8.13-7.933 13.895-15.667 11.382z"/><path d="m343.671 358.729 46.494 63.991c4.715 6.49 2.155 15.706-5.252 18.787-15.694 6.529-32.893 10.135-50.925 10.135-18.025 0-35.228-3.606-50.924-10.135-7.407-3.081-9.968-12.297-5.252-18.788l46.494-63.991c4.779-6.577 14.586-6.577 19.365.001z"/><path d="m343.671 358.729 46.494 63.991c4.715 6.49 2.155 15.706-5.252 18.787-15.694 6.529-32.893 10.135-50.925 10.135-18.025 0-35.228-3.606-50.924-10.135-7.407-3.081-9.968-12.297-5.252-18.788l46.494-63.991c4.779-6.577 14.586-6.577 19.365.001z"/><path d="m442.95 271.451-79.293 25.769c-7.734 2.513-15.668-3.251-15.668-11.383v-84.864c0-7.904 7.295-13.89 15.009-12.169 37.232 8.31 68.629 32.279 86.891 64.613 3.886 6.881.576 15.592-6.939 18.034z"/></g><path d="m447.566 268.731c4.061-3.786 5.281-10.076 2.323-15.313-6.748-11.948-15.295-22.75-25.262-32.045 9.938 14.347 17.739 30.284 22.939 47.358z" fill="#fb2b3a"/><path d="m466.998 318.622c0 34.364-13.102 65.732-34.567 89.36-5.273 5.805-14.586 5.208-19.196-1.137l-46.915-64.576c-4.779-6.578-1.749-15.905 5.984-18.418l78.124-25.386c7.746-2.517 15.713 2.971 16.263 11.097.204 2.995.307 6.016.307 9.06z" fill="#fd4755"/><path d="m466.693 309.563c-.472-6.974-6.409-11.989-12.98-11.684.823 6.801 1.256 13.723 1.256 20.746 0 34.101-9.985 65.867-27.185 92.544 1.713-.659 3.311-1.716 4.647-3.187 21.465-23.628 34.567-54.996 34.567-89.36 0-3.044-.103-6.065-.305-9.059z" fill="#fb2b3a"/></g><g><path d="m333.985 140.112c-98.433 0-178.514 80.081-178.514 178.514 0 65.041 34.971 122.061 87.091 153.268-10.974 2.459-22.191 3.709-33.524 3.709h-43.82c-92.801-1.373-156.956-75.292-149.72-161.319 0-31.935 11.369-62.938 32.012-87.302.05-.06.1-.119.148-.181 5.478-6.888 12.163-14.492 19.241-22.544 15.652-17.804 33.392-37.983 45.701-59.014 10.709-18.289 30.351-29.65 51.258-29.65h46.54c15.704 0 30.534 6.161 41.759 17.35 2.933 2.924 7.682 2.916 10.606-.018s2.917-7.683-.018-10.607c-14.056-14.009-32.646-21.725-52.348-21.725h-14.127c3.305-14.5 13.444-46.962 39.495-57.756 3.827-1.585 5.644-5.973 4.058-9.8-1.585-3.826-5.974-5.643-9.799-4.058-18.251 7.562-30.044 22.765-37.562 37.668-3.022-9.351-8.2-19.055-16.854-27.709-17.095-17.095-33.896-24.956-49.929-23.381-12.625 1.244-19.779 8.071-20.554 8.845-.774.774-7.601 7.93-8.845 20.554-1.58 16.036 6.286 32.835 23.381 49.93 4.899 4.899 10.136 8.686 15.454 11.6-14.595 6.203-27.175 17.03-35.46 31.179-11.582 19.788-28.816 39.393-44.022 56.689-7.173 8.159-13.95 15.868-19.643 23.021-22.888 27.054-35.492 61.465-35.492 96.907-7.616 103.349 73.192 175.615 164.72 176.319h43.82c18.106 0 35.947-2.891 53.08-8.586 22 9.715 46.312 15.123 71.866 15.123 98.433 0 178.513-80.081 178.513-178.514s-80.079-178.512-178.512-178.512zm-218.217-105.137c.904-.844 18.378-16.286 49.234 14.57 17.177 17.177 16.93 40.609 15.873 50.633-15.708 1.399-34.519-.516-50.607-15.9-30.563-30.564-15.605-48.094-14.5-49.303zm218.217 447.164c-90.162 0-163.514-73.352-163.514-163.514s73.352-163.514 163.514-163.514 163.513 73.352 163.513 163.514-73.351 163.514-163.513 163.514z"/><path d="m307.713 346.678c3.706-5.1 4.714-11.464 2.766-17.46-1.948-5.995-6.504-10.551-12.5-12.499l-78.124-25.387c-5.873-1.91-12.176-1.021-17.29 2.438-5.155 3.485-8.353 9.057-8.774 15.286-.214 3.165-.323 6.384-.323 9.566 0 34.958 12.968 68.483 36.516 94.402 3.767 4.146 9.048 6.468 14.629 6.468.366 0 .733-.01 1.102-.029 6.035-.33 11.533-3.321 15.084-8.209zm-12.135-8.816-46.915 64.576c-.886 1.219-2.259 1.965-3.768 2.047-.855.051-2.489-.093-3.81-1.546-21.034-23.152-32.618-53.097-32.618-84.316 0-2.847.097-5.724.289-8.554.107-1.584.913-2.996 2.21-3.873.534-.36 1.482-.848 2.715-.848.473 0 .988.071 1.538.25l78.124 25.387c1.884.612 2.606 2.061 2.869 2.869.264.808.531 2.405-.634 4.008z"/><path d="m222.7 278.584 79.303 25.77c2.005.651 4.051.973 6.077.973 4.033 0 7.988-1.271 11.383-3.738 5.1-3.705 8.025-9.446 8.025-15.75v-84.865c0-6.101-2.732-11.788-7.496-15.605-4.712-3.777-10.777-5.191-16.646-3.883-38.723 8.64-72.183 33.515-91.798 68.245-2.979 5.273-3.431 11.524-1.241 17.15 2.173 5.584 6.69 9.85 12.393 11.703zm1.908-21.477c17.531-31.039 47.42-53.266 82.005-60.981 1.914-.429 3.328.41 3.999.946 1.192.956 1.876 2.378 1.876 3.901v84.865c0 1.98-1.154 3.115-1.842 3.615-.689.5-2.125 1.248-4.008.635l-79.302-25.77c-1.922-.625-2.737-2.072-3.051-2.879-.324-.831-.712-2.499.323-4.332z"/><path d="m349.739 354.321c-3.705-5.101-9.446-8.025-15.75-8.025s-12.045 2.925-15.75 8.025l-46.494 63.991c-3.613 4.972-4.73 11.217-3.066 17.136 1.66 5.9 5.853 10.634 11.505 12.984 17.084 7.106 35.187 10.71 53.805 10.71 18.622 0 36.725-3.604 53.806-10.71 5.651-2.351 9.845-7.083 11.504-12.984 1.665-5.918.547-12.164-3.065-17.136zm35.119 77.066c-.24.854-.927 2.405-2.825 3.195-15.247 6.344-31.411 9.56-48.044 9.56-16.631 0-32.795-3.216-48.044-9.56-1.898-.79-2.585-2.341-2.826-3.195-.243-.865-.467-2.568.761-4.259l46.494-63.991c1.164-1.603 2.765-1.842 3.615-1.842s2.451.239 3.615 1.842l46.494 63.991c1.228 1.692 1.003 3.395.76 4.259z"/><path d="m348.515 301.589c5.622 3.211 9.224 4.91 17.459 2.764l79.293-25.769c5.701-1.854 10.218-6.119 12.392-11.703 2.19-5.626 1.738-11.878-1.241-17.151-19.615-34.729-53.07-59.604-91.788-68.245-5.869-1.307-11.935.105-16.647 3.883-4.764 3.817-7.496 9.506-7.496 15.606v84.863c.002 6.305 2.927 12.046 8.028 15.752zm6.974-100.615c0-1.524.684-2.946 1.876-3.901.542-.435 1.567-1.065 2.953-1.065.329 0 .678.036 1.046.118 34.579 7.717 64.465 29.944 81.995 60.981 1.035 1.833.646 3.502.323 4.333-.314.807-1.128 2.254-3.05 2.879l-79.293 25.769c-1.885.614-3.319-.135-4.007-.634-.688-.5-1.842-1.635-1.842-3.616v-84.864z"/><path d="m474.176 309.057c-.421-6.23-3.62-11.802-8.774-15.287-5.113-3.458-11.416-4.345-17.29-2.438l-78.125 25.387c-5.996 1.948-10.551 6.504-12.5 12.5-1.948 5.995-.94 12.359 2.765 17.459l9.811 13.504c2.435 3.353 7.126 4.096 10.476 1.659 3.351-2.435 4.094-7.124 1.66-10.476l-9.811-13.504c-1.164-1.603-.897-3.199-.634-4.008s.985-2.257 2.869-2.869l78.124-25.387c1.981-.646 3.515.099 4.253.598 1.297.877 2.103 2.289 2.21 3.872.191 2.837.289 5.715.289 8.555 0 31.22-11.584 61.163-32.619 84.316-1.321 1.455-2.955 1.598-3.81 1.546-1.509-.082-2.882-.828-3.767-2.047l-16.462-22.66c-2.435-3.352-7.125-4.098-10.476-1.659-3.351 2.434-4.094 7.124-1.66 10.476l16.462 22.66c3.551 4.888 9.049 7.879 15.084 8.209.369.02.735.029 1.102.029 5.581 0 10.862-2.321 14.629-6.468 23.548-25.919 36.516-59.445 36.516-94.402 0-3.175-.108-6.393-.322-9.565z"/><circle cx="139.718" cy="151.723" r="7.5"/><circle cx="175.688" cy="151.723" r="7.5"/><circle cx="122.348" cy="178.442" r="7.5"/><circle cx="158.323" cy="178.442" r="7.5"/><circle cx="103.733" cy="205.162" r="7.5"/><circle cx="139.718" cy="205.162" r="7.5"/><circle cx="287.938" cy="230.016" r="7.5"/><circle cx="292.998" cy="267.442" r="7.5"/><circle cx="261.643" cy="248.224" r="7.5"/><circle cx="238.888" cy="337.176" r="7.5"/><circle cx="247.988" cy="362.612" r="7.5"/><circle cx="333.989" cy="391.352" r="7.5"/><circle cx="353.688" cy="421.192" r="7.5"/><circle cx="407.298" cy="343.306" r="7.5"/><circle cx="426.518" cy="370.112" r="7.5"/><circle cx="437.648" cy="331.171" r="7.5"/><circle cx="417.918" cy="253.281" r="7.5"/><circle cx="375.438" cy="265.421" r="7.5"/></g></g></svg>