<svg id="Capa_1" enable-background="new 0 0 512.002 512.002" height="512" viewBox="0 0 512.002 512.002" width="512" xmlns="http://www.w3.org/2000/svg"><g><g><path d="m398.084 312.422c0 125.458-56.592 192.078-194.911 192.078-136.193 0-194.912-66.621-194.912-192.078s63.48-262.245 194.911-262.245c131.973 0 194.912 136.787 194.912 262.245z" fill="#bbec6c"/><path d="m203.172 50.177c-8.617 0-16.934.603-24.969 1.737 114.886 16.165 169.85 143.275 169.85 260.508 0 117.548-49.683 183.442-169.72 191.284 7.975.528 16.252.794 24.838.794 138.319 0 194.911-66.621 194.911-192.078s-62.937-262.245-194.91-262.245z" fill="#a2e62e"/><g><path d="m406.773 435.542c-84.454 84.454-167.466 94.937-259.627 11.365-7.815-7.087-8.097-19.285-.637-26.745l294.079-294.079c7.752-7.752 20.585-7.146 27.419 1.427 74.057 92.913 22.779 224.019-61.234 308.032z" fill="#ffead8"/><path d="m468.006 127.51c-6.833-8.573-19.666-9.18-27.419-1.427l-13.706 13.706c60.636 91.902 10.238 215.377-70.138 295.753-36.734 36.734-73.195 59.465-110.255 66.557 54.614 10.406 107.165-13.437 160.285-66.557 84.013-84.013 135.291-215.119 61.233-308.032z" fill="#ffe3cb"/><g fill="#fef48b"><path d="m408.155 228.752c10.918-13.448 21.676-27.223 32.28-41.302 4.351-5.777 13.45-4.418 15.773 2.431 5.387 15.888 7.466 33.096 6.227 51.541-.41 6.098-6.281 10.321-12.21 8.837l-38.07-9.527c-5.315-1.33-7.454-7.726-4-11.98z"/><path d="m369.939 273.72c1.574-1.766 3.144-3.54 4.711-5.319 3.639-4.133 9.295-5.867 14.637-4.53l55.983 14.008c5.553 1.389 8.793 7.219 6.955 12.64-2.675 7.89-8.441 20.736-12.404 29.289-2.219 4.79-7.983 6.761-12.668 4.328l-52.972-27.512c-8.536-4.433-10.64-15.722-4.242-22.904z"/><path d="m249.113 403.445 11.313 45.193c1.807 7.219-4.736 13.738-11.957 11.939-14.567-3.631-29.53-10.672-45.054-21.195-5.223-3.541-5.22-11.228-.06-14.86 11.453-8.063 22.741-16.451 33.876-25.152 4.272-3.34 10.564-1.186 11.882 4.075z"/><path d="m334.836 442.23c-10.965 7.111-21.663 12.417-32.156 15.95-5.589 1.882-11.311-1.205-12.742-6.925l-17.552-70.156c-1.341-5.362.42-11.026 4.575-14.67 1.766-1.549 3.529-3.106 5.287-4.671 7.2-6.407 18.5-4.346 22.942 4.207l32.976 63.501c2.327 4.478.904 10.019-3.33 12.764z"/><path d="m377.781 406.551c-6.509 6.506-17.464 4.813-21.705-3.354l-32.22-62.043c-3.795-7.308-2.396-16.213 3.41-22.052.066-.066.132-.132.197-.199 5.833-5.869 14.786-7.303 22.13-3.489l57.958 30.098c7.493 3.891 9.819 13.539 4.873 20.382-10.308 14.26-21.945 27.96-34.643 40.657z"/></g></g><g><path d="m203.172 82.344c-7.814 0-14.148-6.334-14.148-14.148v-46.548c0-7.814 6.334-14.148 14.148-14.148s14.148 6.334 14.148 14.148v46.548c0 7.813-6.333 14.148-14.148 14.148z" fill="#dd7f66"/></g><path d="m141.759 23.843c-44.155 0-44.155 26.904-44.155 26.904s0 26.905 44.155 26.905c30.473 0 47.265-26.904 47.265-26.904s-16.791-26.905-47.265-26.905z" fill="#22b27f"/><path d="m141.759 23.843c-6.193 0-11.516.529-16.093 1.439 13.197 3.206 22.922 11.183 28.79 17.363 4.322 4.551 4.322 11.654 0 16.205-5.868 6.179-15.593 14.157-28.79 17.363 4.577.91 9.901 1.439 16.093 1.439 30.473 0 47.265-26.905 47.265-26.905s-16.791-26.904-47.265-26.904z" fill="#09a76d"/></g><g><path d="m473.871 122.836c-4.556-5.716-11.372-9.231-18.7-9.644-7.396-.41-14.648 2.349-19.888 7.588l-55.268 55.268c-14.23-35.026-33.99-64.884-57.593-86.81-27.831-25.854-60.638-41.08-97.602-45.328v-22.262c0-11.937-9.711-21.648-21.647-21.648-11.937 0-21.648 9.711-21.648 21.648v9.788c-9.038-7.57-22.383-15.093-39.765-15.093-.001 0 0 0-.001 0-20.664 0-35.615 5.449-44.432 16.194-7.019 8.554-7.222 17.247-7.222 18.21-.634 2.96 3.887 17.49 12.524 23.439-30.943 22.062-56.495 55.469-74.333 97.384-18.013 42.325-27.534 91.03-27.534 140.85 0 66.509 15.874 115.031 48.528 148.338 16.725 17.06 38.125 30.009 63.604 38.489 35.081 12.368 90.793 15.534 132.871 10.401 10.856 1.923 22.132 2.851 34.561 2.072 43.753-2.79 86.849-25.973 131.75-70.874 45.402-45.402 78.024-100.137 91.855-154.121 16.005-62.466 5.61-119.138-30.06-163.889zm-270.698-107.836c3.666 0 6.648 2.982 6.648 6.648v46.548c0 3.666-2.982 6.648-6.648 6.648s-6.648-2.982-6.648-6.648v-46.548c-.001-3.666 2.981-6.648 6.648-6.648zm-93.71 26.421c5.902-6.593 17.07-10.078 32.296-10.078 19.121 0 32.298 12.731 37.889 19.403-5.6 6.682-18.775 19.405-37.889 19.405-34.358 0-36.518-17.532-36.649-19.401.059-.802.546-5.076 4.353-9.329zm379.938 241.581c-13.174 51.417-44.401 103.707-87.932 147.237-42.207 42.207-82.146 63.963-122.097 66.51-48.067 1.882-84.028-17.551-127.188-55.398-2.239-2.031-3.513-4.817-3.587-7.846-.074-3.038 1.067-5.894 3.214-8.041l87.279-87.279c2.929-2.929 2.929-7.678 0-10.606-2.929-2.929-7.678-2.929-10.606 0l-87.279 87.279c-5.079 5.078-7.779 11.831-7.603 19.013.175 7.173 3.196 13.775 8.506 18.591 21.869 19.83 43.311 34.627 64.586 44.513-64.792.983-116.122-14.865-146.692-46.719-29.769-30.364-44.239-75.45-44.239-137.837 0-47.136 9.353-95.071 26.335-134.976 18.001-42.298 44.142-75.218 75.74-95.447 6.844 2.097 14.828 3.154 23.922 3.154 17.434 0 30.806-7.568 39.845-15.161.916 11.099 10.236 19.853 21.568 19.853 11.937 0 21.648-9.711 21.648-21.648v-9.164c40.807 5.279 106.245 29.991 143.646 128.565l-115.128 115.13c-2.929 2.929-2.929 7.678 0 10.606 2.928 2.928 7.677 2.929 10.607 0l181.944-181.944c2.223-2.222 5.294-3.393 8.438-3.218 3.114.175 5.889 1.602 7.813 4.017 41.218 51.711 37.575 110.557 27.26 150.816z"/><path d="m450.345 176.537c-6.092-.979-12.189 1.473-15.901 6.4-10.606 14.083-21.411 27.907-32.111 41.087-.001 0-.001 0-.001 0-3.244 3.997-4.209 9.299-2.581 14.182 1.63 4.886 5.587 8.55 10.584 9.801l38.07 9.528c8.605 2.575 20.973-4.303 21.514-15.61 1.301-19.365-.922-37.685-6.607-54.453-1.96-5.775-6.928-9.965-12.967-10.935zm4.606 64.383c-.058.867-.541 1.392-.936 1.679-.336.245-1.041.618-1.97.385l-38.086-9.481s.005-.008.018-.024h-.001c10.815-13.321 21.732-27.29 32.448-41.517.479-.637 1.1-.688 1.541-.615.867.14 1.072.745 1.14.942 5.047 14.886 7.014 31.248 5.846 48.631z"/><path d="m447.09 270.603-55.982-14.008c-8.12-2.031-16.58.595-22.087 6.85-1.557 1.768-3.117 3.53-4.681 5.285-.001 0-.001.001-.001.001-4.594 5.155-6.51 12.01-5.26 18.806 1.254 6.812 5.498 12.549 11.645 15.742l52.973 27.512c6.647 3.908 18.913 1.384 22.929-7.831 4.286-9.25 9.969-21.97 12.702-30.034 1.54-4.54 1.103-9.565-1.2-13.787-2.319-4.249-6.342-7.361-11.038-8.536zm-1.968 17.507c-1.967 5.801-6.267 15.938-12.107 28.545-.262.566-.704.817-1.029.928-.323.111-.827.183-1.376-.104l-52.972-27.512c-2.009-1.043-3.396-2.919-3.806-5.146-.407-2.21.215-4.439 1.706-6.113 1.584-1.777 3.165-3.562 4.741-5.352 1.783-2.026 4.536-2.872 7.188-2.21l55.982 14.008c.879.22 1.322.826 1.509 1.167.217.398.421 1.031.164 1.789z"/><path d="m256.388 401.624c-1.236-4.939-4.849-8.877-9.663-10.532-4.821-1.656-10.095-.771-14.114 2.368-11.062 8.645-22.358 17.032-33.575 24.929-4.46 3.14-7.094 8.27-7.046 13.722.048 5.41 2.745 10.449 7.215 13.479 16.16 10.954 32.124 18.445 47.448 22.264 10.677 3.304 24.675-7.943 21.046-21.037zm-3.85 51.053c-.354.354-1.118.905-2.256.622-13.609-3.392-27.962-10.163-42.66-20.125-.415-.281-.627-.684-.632-1.196-.003-.313.082-.902.682-1.324 11.419-8.04 22.918-16.578 34.156-25.416 0 0 .004.009.009.028l11.312 45.193c.28 1.118-.263 1.869-.611 2.218z"/><path d="m311.847 362.509c-3.188-6.138-8.916-10.376-15.716-11.63-6.807-1.255-13.688.667-18.87 5.277-1.743 1.552-3.492 3.097-5.245 4.634-6.293 5.52-8.938 13.998-6.905 22.129l17.552 70.157c2.689 8.848 11.031 15.645 22.411 12.212 11.026-3.712 22.413-9.353 33.844-16.765 7.504-4.867 10.043-14.545 5.906-22.514zm18.908 73.429c-10.378 6.73-20.63 11.822-30.468 15.135-.913.306-1.575.114-1.969-.101-.381-.208-.882-.644-1.105-1.537l-17.551-70.156c-.664-2.652.196-5.416 2.243-7.211 1.781-1.562 3.558-3.131 5.328-4.708 1.98-2.07 8.419-3.067 11.301 2.061l32.977 63.5c.55 1.06.218 2.385-.756 3.017z"/><path d="m411.01 338.855-7.494-3.892c-3.677-1.908-8.202-.478-10.113 3.199-1.909 3.676-.477 8.203 3.199 10.112l7.495 3.893c2.256 1.171 3.016 3.129 3.268 4.191.249 1.05.448 3.114-1.017 5.14-10.177 14.078-21.572 27.451-33.868 39.747-1.394 1.393-3.308 2.021-5.256 1.718-1.946-.301-3.584-1.476-4.491-3.224l-32.22-62.043c-2.29-4.41-1.458-9.758 2.097-13.332l.174-.175c3.551-3.572 8.914-4.426 13.354-2.12l19.343 10.044c3.674 1.906 8.204.477 10.112-3.2 1.909-3.676.477-8.203-3.2-10.112l-19.342-10.043c-10.287-5.343-22.708-3.391-30.969 4.92l-.134.134c-8.149 8.195-10.058 20.572-4.748 30.797l32.22 62.043c5.75 11.483 22.992 15.826 33.665 5.201 12.859-12.86 24.776-26.845 35.419-41.567 3.628-5.018 4.887-11.357 3.455-17.391-1.436-6.055-5.428-11.172-10.949-14.04z"/><circle cx="261.78" cy="87.92" r="7.5"/><circle cx="244.75" cy="117.06" r="7.5"/><circle cx="227.72" cy="146.2" r="7.5"/><circle cx="210.69" cy="175.34" r="7.5"/><circle cx="193.659" cy="204.48" r="7.5"/><circle cx="176.629" cy="233.62" r="7.5"/><circle cx="159.599" cy="262.761" r="7.5"/><circle cx="142.568" cy="291.901" r="7.5"/><circle cx="125.538" cy="321.041" r="7.5"/><circle cx="108.508" cy="350.181" r="7.5"/><circle cx="91.478" cy="379.321" r="7.5"/><circle cx="74.447" cy="408.461" r="7.5"/><circle cx="211.696" cy="117.06" r="7.5"/><circle cx="194.666" cy="146.2" r="7.5"/><circle cx="177.636" cy="175.34" r="7.5"/><circle cx="160.606" cy="204.48" r="7.5"/><circle cx="109.515" cy="291.901" r="7.5"/><circle cx="92.485" cy="321.041" r="7.5"/><circle cx="75.454" cy="350.181" r="7.5"/><circle cx="58.424" cy="379.321" r="7.5"/><circle cx="144.582" cy="175.34" r="7.5"/><circle cx="127.552" cy="204.48" r="7.5"/><circle cx="93.491" cy="262.761" r="7.5"/><circle cx="76.461" cy="291.901" r="7.5"/><circle cx="59.431" cy="321.041" r="7.5"/><circle cx="42.401" cy="350.181" r="7.5"/><circle cx="145.589" cy="117.06" r="7.5"/><circle cx="128.559" cy="146.2" r="7.5"/><circle cx="111.528" cy="175.34" r="7.5"/><circle cx="94.498" cy="204.48" r="7.5"/><circle cx="77.468" cy="233.62" r="7.5"/><circle cx="60.438" cy="262.761" r="7.5"/><circle cx="43.407" cy="291.901" r="7.5"/><circle cx="112.535" cy="117.06" r="7.5"/><circle cx="95.505" cy="146.2" r="7.5"/><circle cx="78.475" cy="175.34" r="7.5"/><circle cx="61.444" cy="204.48" r="7.5"/><circle cx="279.809" cy="117.06" r="7.5"/><circle cx="262.778" cy="146.2" r="7.5"/><circle cx="245.748" cy="175.34" r="7.5"/><circle cx="228.718" cy="204.48" r="7.5"/><circle cx="211.687" cy="233.62" r="7.5"/><circle cx="194.657" cy="262.761" r="7.5"/><circle cx="177.627" cy="291.901" r="7.5"/><circle cx="160.597" cy="321.041" r="7.5"/><circle cx="126.536" cy="379.321" r="7.5"/><circle cx="109.506" cy="408.461" r="7.5"/><circle cx="297.837" cy="146.2" r="7.5"/><circle cx="280.806" cy="175.34" r="7.5"/><circle cx="263.776" cy="204.48" r="7.5"/><circle cx="246.746" cy="233.62" r="7.5"/><circle cx="229.716" cy="262.761" r="7.5"/><circle cx="212.685" cy="291.901" r="7.5"/><circle cx="195.655" cy="321.041" r="7.5"/><circle cx="178.625" cy="350.181" r="7.5"/><circle cx="332.895" cy="146.2" r="7.5"/><ellipse cx="315.865" cy="175.34" rx="7.5" ry="7.5" transform="matrix(.987 -.16 .16 .987 -24.008 52.86)"/><circle cx="298.835" cy="204.48" r="7.5"/><circle cx="281.804" cy="233.62" r="7.5"/><circle cx="264.774" cy="262.761" r="7.5"/><circle cx="92.485" cy="437.618" r="7.5"/></g></g></svg>