<svg id="Capa_1" enable-background="new 0 0 512 512" height="512" viewBox="0 0 512 512" width="512" xmlns="http://www.w3.org/2000/svg"><g><g><g><path d="m469.503 234.812c-19.865 15.143-44.066 20.641-66.969 17.249-23.844-3.532-40.291-25.796-37.075-49.684l.016-.118c-23.718-3.199-40.915-24.695-38.141-48.467 2.611-22.377 13.604-43.755 32.274-58.851 29.762-24.067 70.005-25.716 100.91-7.645 8.776 5.132 18.557 8.308 28.632 9.667 6.789.916 11.549 7.161 10.634 13.95l-.001.009c-1.37 10.157-.814 20.497 1.801 30.407 8.901 33.736-2.609 71.018-32.081 93.483z" fill="#158f5e"/><path d="m469.503 234.812c-19.865 15.143-44.072 20.642-66.972 17.244-16.32-2.413-29.181-13.621-34.64-28.102 2.885 1.106 5.926 1.905 9.108 2.379 22.9 3.399 47.107-2.101 66.972-17.244 29.467-22.462 40.979-59.747 32.078-93.487-1.926-7.292-2.726-14.802-2.473-22.322 5.044 1.751 10.258 2.967 15.574 3.684 3.395.467 6.285 2.254 8.209 4.778s2.881 5.784 2.425 9.172l.007.01c-1.378 10.154-.819 20.498 1.79 30.402 8.901 33.74-2.611 71.024-32.078 93.486z" fill="#0f7a4f"/></g><g><path d="m367.822 174.195c-10.242 22.782-28.894 39.153-50.644 47.091-22.643 8.263-47.715-3.466-56.278-25.998l-.042-.111c-22.374 8.496-47.739-2.201-56.634-24.419-8.373-20.915-8.903-44.948.311-67.119 14.687-35.345 49.276-55.981 85.058-54.831 10.161.327 20.273-1.544 29.777-5.153 6.404-2.432 13.567.788 15.998 7.192l.003.008c3.638 9.581 9.057 18.406 16.08 25.87 23.91 25.41 31.566 63.67 16.371 97.47z" fill="#2db181"/><path d="m367.822 175.368c-10.242 22.782-28.899 39.157-50.649 47.088-15.496 5.659-32.145 1.939-43.848-8.187 3.063-.403 6.117-1.151 9.14-2.252 21.75-7.931 40.407-24.307 50.649-47.088 15.193-33.794 7.537-72.057-16.375-97.471-5.17-5.491-9.454-11.712-12.816-18.442 5.269-.866 10.431-2.283 15.446-4.187 3.207-1.208 6.6-1.015 9.494.286s5.29 3.71 6.504 6.906l.011.005c3.629 9.582 9.053 18.409 16.068 25.871 23.912 25.415 31.569 63.677 16.376 97.471z" fill="#1ca56f"/></g><g><g><path d="m147.007 469.154c-77.048 0-139.507-62.459-139.507-139.506v-94.984c0-77.047 62.459-139.506 139.506-139.506 77.047 0 139.506 62.459 139.506 139.506v94.984c.001 77.047-62.458 139.506-139.505 139.506z" fill="#d5887a"/><g><path d="m286.512 234.668v94.984c0 50.812-27.171 95.284-67.773 119.675-25.551-24.941-41.422-59.752-41.422-98.274 0-65.803 46.282-120.795 108.074-134.186.741 5.831 1.121 11.771 1.121 17.801z" fill="#c86f5c"/></g><path d="m286.512 234.663v94.981c0 77.053-62.455 139.508-139.508 139.508-8.836 0-17.485-.827-25.867-2.398 64.678-12.13 113.618-68.904 113.618-137.11v-94.981c0-38.521-15.611-73.398-40.861-98.647-19.441-19.441-44.609-33.177-72.757-38.451 8.382-1.583 17.031-2.41 25.867-2.41 38.521 0 73.398 15.622 98.648 40.861 25.25 25.249 40.86 60.127 40.86 98.647z" fill="#c86f5c"/></g></g><g><g><circle cx="330.347" cy="328.794" fill="#e99d8f" r="137.288"/></g><g><path d="m467.632 328.789c0 75.822-61.466 137.288-137.288 137.288-18.042 0-35.277-3.476-51.058-9.811 7.581 1.382 15.393 2.105 23.372 2.105 71.56 0 129.571-58.01 129.571-129.581 0-71.56-58.01-129.571-129.571-129.571-8 0-15.822.723-23.413 2.115 15.79-6.346 33.036-9.832 51.099-9.832 75.823-.001 137.288 61.465 137.288 137.287z" fill="#d5887a"/></g></g><g><g><circle cx="330.347" cy="328.791" fill="#99d53b" r="109.84"/></g><g><path d="m440.187 328.787c0 60.67-49.173 109.843-109.843 109.843-9.33 0-18.377-1.162-27.026-3.351 55.131-4.209 98.555-50.272 98.555-106.492 0-56.209-43.424-102.272-98.555-106.482 8.649-2.189 17.696-3.351 27.026-3.351 60.67 0 109.843 49.173 109.843 109.833z" fill="#8dc637"/></g></g><g><path d="m335.373 299.988c4.269-4.729 12.113-1.48 11.788 4.883-.205 4.007 3.1 7.312 7.107 7.107 6.363-.325 9.612 7.518 4.883 11.788-2.978 2.689-2.978 7.363 0 10.051 4.729 4.269 1.48 12.113-4.883 11.788-4.007-.205-7.312 3.1-7.107 7.107.325 6.363-7.518 9.612-11.788 4.883-2.689-2.978-7.363-2.978-10.051 0-4.269 4.729-12.113 1.48-11.788-4.883.205-4.007-3.1-7.312-7.107-7.107-6.363.325-9.612-7.518-4.883-11.788 2.978-2.689 2.978-7.363 0-10.051-4.729-4.269-1.48-12.113 4.883-11.788 4.007.205 7.312-3.1 7.107-7.107-.325-6.363 7.518-9.612 11.788-4.883 2.688 2.978 7.362 2.978 10.051 0z" fill="#fff1e2"/></g></g><g><path d="m508.835 139.415c-2.332-8.835-2.881-18.053-1.633-27.397.006-.034.01-.068.015-.103 1.466-10.877-6.19-20.919-17.064-22.385-9.448-1.274-18.144-4.205-25.849-8.709-30.787-18-68.946-17.447-99.034.963-2.531-3.547-5.309-6.961-8.357-10.2-6.27-6.663-11.15-14.513-14.507-23.332-.009-.023-.017-.046-.025-.068-3.897-10.26-15.416-15.437-25.674-11.542-8.911 3.386-17.949 4.959-26.872 4.669-19.358-.636-38.259 4.524-54.682 14.882-15.775 9.949-28.149 24.075-35.98 41.012-16.53-6.28-34.14-9.549-52.165-9.549-81.061.001-147.008 65.948-147.008 147.008v94.983c0 81.06 65.947 147.007 147.007 147.007 34.423 0 67.608-12.031 93.967-33.959 25.422 19.966 56.858 30.886 89.374 30.886 79.836 0 144.787-64.952 144.787-144.788 0-27.868-7.922-53.917-21.62-76.028 7.282-3.119 14.166-7.132 20.535-11.988 8.105-6.179 15.139-13.548 20.91-21.906 2.354-3.409 1.498-8.08-1.91-10.434-3.41-2.356-8.081-1.498-10.434 1.91-4.872 7.057-10.814 13.281-17.66 18.5-6.215 4.738-13.001 8.53-20.214 11.298-14.592-18.788-33.701-33.898-55.684-43.689l7.492-5.711c7.402 4.04 22.822 10.704 44.023 10.704 2.904 0 5.92-.125 9.035-.399 4.127-.363 7.177-4.002 6.814-8.128-.362-4.127-3.998-7.188-8.128-6.814-16.788 1.477-30.048-2.198-38.312-5.601l26.351-20.087c5.051 1.6 14.505 4.077 27.883 5.425.256.026.509.039.761.039 3.804 0 7.064-2.884 7.453-6.749.416-4.121-2.589-7.799-6.71-8.214-5.502-.554-10.236-1.316-14.164-2.105l10.872-8.287c3.294-2.512 3.929-7.218 1.418-10.512-2.512-3.294-7.215-3.93-10.512-1.418l-32.6 24.851c-.457-8.504-.106-19.592 3.579-27.677 1.718-3.769.056-8.217-3.714-9.935-3.768-1.719-8.218-.056-9.935 3.714-6.788 14.89-5.189 35.496-4.012 44.633l-15.055 11.476c-.011.008-.022.017-.033.025l-19.114 14.57c-1.362-.415-2.733-.807-4.111-1.183 2.369-3.776 4.49-7.719 6.326-11.803 12.11-26.935 11.104-57.168-1.648-82.637 25.42-15.596 57.688-16.082 83.717-.861 9.424 5.51 19.993 9.084 31.415 10.625 2.657.358 4.534 2.796 4.211 5.451-.003.023-.007.048-.01.071-1.529 11.335-.862 22.547 1.982 33.323 3.096 11.733 3.509 24.282 1.194 36.292-.784 4.067 1.878 8 5.946 8.784.48.093.956.137 1.427.137 3.524 0 6.665-2.494 7.357-6.082 2.737-14.208 2.246-29.062-1.421-42.958zm-178.487 44.591c-14.95 0-29.431 2.295-43.085 6.561-1.766-5.603-3.872-11.11-6.308-16.477l1.731-3.849c.061 0 .114.002.176.002 9.664 0 29.871-2.003 51.376-16.239 3.454-2.286 4.401-6.941 2.114-10.394-2.288-3.454-6.943-4.401-10.394-2.114-14.053 9.303-27.46 12.395-36.348 13.344l13.587-30.221c5.204-1.002 14.694-3.332 27.095-8.525 3.821-1.6 5.621-5.994 4.022-9.815s-5.993-5.62-9.815-4.022c-5.1 2.135-9.625 3.724-13.453 4.903l5.605-12.468c1.698-3.778.013-8.217-3.766-9.916-3.775-1.696-8.217-.013-9.916 3.766l-16.808 37.387c-4.456-7.257-9.434-17.171-10.049-26.035-.287-4.132-3.885-7.241-8.002-6.963-4.132.287-7.249 3.869-6.963 8.002 1.133 16.325 12.363 33.677 17.754 41.146l-6.872 15.286c-3.972-6.423-8.424-12.55-13.331-18.279-2.693-3.145-7.428-3.513-10.576-.817-3.146 2.694-3.512 7.429-.817 10.576 11.709 13.671 20.595 29.822 25.881 46.945-45.914 19.788-79.989 62.709-86.5 114.915-.513 4.111 2.404 7.859 6.514 8.371 4.102.504 7.859-2.402 8.371-6.514 8.075-64.736 63.437-113.553 128.78-113.553 71.564 0 129.787 58.222 129.787 129.788s-58.222 129.788-129.787 129.788c-31.506 0-61.884-11.428-85.54-32.18-23.438-20.562-38.706-48.801-42.988-79.515-.571-4.103-4.356-6.972-8.464-6.392-4.102.571-6.964 4.362-6.392 8.464 4.441 31.855 19.47 61.315 42.556 83.729-23.358 18.722-52.408 28.966-82.513 28.966-72.788 0-132.006-59.218-132.006-132.006v-94.983c0-72.788 59.218-132.006 132.006-132.006 26.871 0 52.731 8.031 74.784 23.223 3.411 2.351 8.081 1.489 10.431-1.921 2.351-3.411 1.49-8.081-1.921-10.431-5.588-3.85-11.404-7.264-17.394-10.277 6.621-14.189 17.017-26.025 30.247-34.369 13.879-8.754 29.865-13.098 46.197-12.578 10.901.348 21.906-1.546 32.68-5.638 2.511-.953 5.334.301 6.309 2.802.006.017.013.033.019.05 4.06 10.691 9.991 20.228 17.63 28.347 22.658 24.08 28.543 59.115 14.992 89.255-2.317 5.155-5.156 10.049-8.452 14.584-7.237-1.122-14.644-1.703-22.184-1.703z"/><path d="m55.778 197.099c-4.143 0-7.5 3.358-7.5 7.5v10.626c0 4.143 3.358 7.5 7.5 7.5s7.5-3.358 7.5-7.5v-10.626c0-4.142-3.358-7.5-7.5-7.5z"/><path d="m98.089 174.702v-10.625c0-4.143-3.358-7.5-7.5-7.5-4.143 0-7.5 3.358-7.5 7.5v10.625c0 4.143 3.358 7.5 7.5 7.5s7.5-3.358 7.5-7.5z"/><path d="m52.64 294.552c-4.143 0-7.5 3.358-7.5 7.5v10.625c0 4.143 3.358 7.5 7.5 7.5s7.5-3.358 7.5-7.5v-10.625c0-4.142-3.357-7.5-7.5-7.5z"/><path d="m129.297 197.099c-4.143 0-7.5 3.358-7.5 7.5v10.626c0 4.143 3.358 7.5 7.5 7.5 4.143 0 7.5-3.358 7.5-7.5v-10.626c.001-4.142-3.357-7.5-7.5-7.5z"/><path d="m150.549 343.548c-4.143 0-7.5 3.358-7.5 7.5v10.626c0 4.143 3.358 7.5 7.5 7.5s7.5-3.358 7.5-7.5v-10.626c0-4.142-3.357-7.5-7.5-7.5z"/><path d="m94.281 364.942c-4.143 0-7.5 3.358-7.5 7.5v10.626c0 4.143 3.358 7.5 7.5 7.5 4.143 0 7.5-3.358 7.5-7.5v-10.626c.001-4.143-3.357-7.5-7.5-7.5z"/><path d="m94.281 249.44c-4.143 0-7.5 3.358-7.5 7.5v10.626c0 4.143 3.358 7.5 7.5 7.5 4.143 0 7.5-3.358 7.5-7.5v-10.626c.001-4.142-3.357-7.5-7.5-7.5z"/><path d="m330.347 446.132c64.702 0 117.341-52.639 117.341-117.34 0-64.702-52.639-117.341-117.341-117.341-64.701 0-117.34 52.639-117.34 117.341 0 64.701 52.639 117.34 117.34 117.34zm0-219.68c56.431 0 102.34 45.909 102.34 102.34 0 56.43-45.909 102.339-102.34 102.339-56.43 0-102.339-45.909-102.339-102.339-.001-56.431 45.909-102.34 102.339-102.34z"/><path d="m306.024 304.469c-5.789.008-10.887 3.401-13.128 8.81s-1.036 11.413 3.052 15.513c-4.087 4.099-5.292 10.102-3.053 15.51 2.24 5.41 7.337 8.804 13.128 8.813.009 5.789 3.401 10.886 8.811 13.126 1.808.749 3.682 1.113 5.53 1.113 3.68 0 7.253-1.444 9.983-4.165 4.098 4.088 10.103 5.293 15.511 3.052 5.409-2.24 8.803-7.338 8.811-13.126 5.79-.009 10.888-3.402 13.128-8.813 2.239-5.408 1.034-11.411-3.053-15.51 4.088-4.1 5.293-10.104 3.052-15.513s-7.339-8.802-13.128-8.81c-.008-5.789-3.401-10.887-8.811-13.128-5.408-2.241-11.413-1.035-15.511 3.052-4.1-4.087-10.102-5.292-15.512-3.052-5.409 2.24-8.802 7.338-8.81 13.128zm10.84 10.839c2.434-2.435 3.896-5.667 4.143-9.068 2.578 2.23 5.898 3.483 9.34 3.483 3.443 0 6.763-1.253 9.341-3.483.246 3.4 1.708 6.632 4.143 9.068 2.435 2.435 5.667 3.896 9.069 4.143-2.231 2.578-3.484 5.898-3.484 9.341s1.253 6.763 3.484 9.341c-3.4.246-6.632 1.707-9.068 4.142-2.435 2.434-3.897 5.666-4.144 9.068-2.578-2.23-5.898-3.483-9.341-3.483s-6.761 1.252-9.34 3.483c-.246-3.401-1.709-6.633-4.144-9.068-2.436-2.435-5.668-3.897-9.068-4.142 2.231-2.578 3.484-5.898 3.484-9.341s-1.253-6.763-3.484-9.341c3.4-.246 6.633-1.708 9.069-4.143z"/><path d="m330.348 282.793c4.143 0 7.5-3.358 7.5-7.5v-4.645c0-4.143-3.358-7.5-7.5-7.5-4.143 0-7.5 3.358-7.5 7.5v4.645c-.001 4.142 3.357 7.5 7.5 7.5z"/><path d="m330.348 374.79c-4.143 0-7.5 3.358-7.5 7.5v4.645c0 4.143 3.358 7.5 7.5 7.5 4.143 0 7.5-3.358 7.5-7.5v-4.645c0-4.143-3.358-7.5-7.5-7.5z"/><path d="m362.872 296.266c1.465 1.464 3.385 2.196 5.304 2.196s3.839-.732 5.304-2.196l3.284-3.284c2.929-2.93 2.929-7.678 0-10.608-2.93-2.928-7.678-2.928-10.608 0l-3.284 3.284c-2.928 2.93-2.928 7.678 0 10.608z"/><path d="m297.822 361.317c-2.93-2.928-7.678-2.928-10.608 0l-3.284 3.284c-2.929 2.93-2.929 7.678 0 10.608 1.465 1.464 3.385 2.196 5.304 2.196s3.839-.732 5.304-2.196l3.284-3.284c2.929-2.93 2.929-7.679 0-10.608z"/><path d="m388.491 321.292h-4.645c-4.143 0-7.5 3.358-7.5 7.5s3.358 7.5 7.5 7.5h4.645c4.143 0 7.5-3.358 7.5-7.5s-3.358-7.5-7.5-7.5z"/><path d="m272.204 336.292h4.645c4.143 0 7.5-3.358 7.5-7.5s-3.358-7.5-7.5-7.5h-4.645c-4.143 0-7.5 3.358-7.5 7.5s3.357 7.5 7.5 7.5z"/><path d="m373.48 361.317c-2.93-2.928-7.678-2.928-10.608 0-2.929 2.93-2.929 7.678 0 10.608l3.284 3.284c1.465 1.464 3.385 2.196 5.304 2.196s3.839-.732 5.304-2.196c2.929-2.93 2.929-7.678 0-10.608z"/><path d="m287.214 296.266c1.465 1.464 3.385 2.196 5.304 2.196s3.839-.732 5.304-2.196c2.929-2.93 2.929-7.678 0-10.608l-3.284-3.284c-2.93-2.928-7.678-2.928-10.608 0-2.929 2.93-2.929 7.678 0 10.608z"/><path d="m279.419 350.04c-1.579-3.831-5.964-5.655-9.791-4.08-3.83 1.577-5.657 5.961-4.08 9.791l.041.1c1.193 2.897 3.989 4.647 6.939 4.647.951 0 1.919-.183 2.853-.566 3.83-1.577 5.657-5.961 4.08-9.791z"/><path d="m381.275 307.543c1.193 2.897 3.989 4.647 6.939 4.647.951 0 1.919-.183 2.853-.566 3.83-1.577 5.657-5.961 4.08-9.791l-.041-.1c-1.579-3.831-5.964-5.655-9.791-4.08-3.83 1.577-5.657 5.961-4.08 9.791z"/><path d="m309.465 379.872-.101-.042c-3.822-1.598-8.216.208-9.811 4.031-1.596 3.822.209 8.215 4.031 9.811l.101.042c.944.395 1.924.581 2.887.581 2.936 0 5.723-1.734 6.924-4.612 1.596-3.822-.209-8.215-4.031-9.811z"/><path d="m351.229 277.711.101.042c.944.395 1.924.581 2.887.581 2.936 0 5.723-1.734 6.924-4.612 1.596-3.822-.209-8.215-4.031-9.811l-.101-.042c-3.82-1.596-8.216.208-9.811 4.031-1.596 3.822.209 8.215 4.031 9.811z"/><path d="m351.695 379.679-.1.041c-3.83 1.577-5.656 5.961-4.08 9.791 1.193 2.897 3.989 4.647 6.939 4.647.951 0 1.919-.183 2.853-.566l.1-.041c3.83-1.577 5.656-5.961 4.08-9.791-1.58-3.832-5.965-5.655-9.792-4.081z"/><path d="m306.146 278.47c.951 0 1.919-.183 2.853-.566l.1-.041c3.83-1.577 5.656-5.961 4.08-9.791-1.578-3.831-5.962-5.656-9.791-4.08l-.1.041c-3.83 1.577-5.656 5.961-4.08 9.791 1.193 2.896 3.989 4.646 6.938 4.646z"/><path d="m391.239 345.642c-3.823-1.598-8.215.21-9.811 4.031l-.042.101c-1.596 3.822.209 8.215 4.031 9.811.944.395 1.923.581 2.887.581 2.936 0 5.723-1.734 6.924-4.612l.042-.101c1.596-3.822-.209-8.215-4.031-9.811z"/><path d="m269.455 311.941c.944.395 1.923.581 2.887.581 2.936 0 5.723-1.734 6.924-4.612l.042-.101c1.596-3.822-.209-8.215-4.031-9.811-3.823-1.596-8.215.209-9.811 4.031l-.042.101c-1.596 3.822.209 8.215 4.031 9.811z"/></g></g></svg>