<svg id="Capa_1" enable-background="new 0 0 512.005 512.005" height="512" viewBox="0 0 512.005 512.005" width="512" xmlns="http://www.w3.org/2000/svg"><g><g><path d="m170.863 481.343c-87.223 0-157.932-70.708-157.932-157.931v-28.983c0-87.223 70.708-157.931 157.931-157.931 87.223 0 157.931 70.708 157.931 157.931v28.983c.001 87.223-70.707 157.931-157.93 157.931z" fill="#fd4755"/><path d="m170.863 136.497c-8.514 0-16.867.682-25.015 1.979 75.335 11.99 132.917 77.242 132.917 155.952v28.983c0 78.71-57.582 143.962-132.917 155.952 8.148 1.297 16.501 1.979 25.015 1.979 87.223 0 157.931-70.708 157.931-157.931v-28.983c0-87.223-70.708-157.931-157.931-157.931z" fill="#fb2b3a"/><g><g><path d="m346.573 450.728c-70.203 0-127.317-57.114-127.317-127.317v-28.983c0-70.203 57.114-127.317 127.317-127.317s127.317 57.114 127.317 127.317v28.983c0 70.203-57.114 127.317-127.317 127.317z" fill="#fcf2eb"/><g><path d="m346.573 167.112c-8.56 0-16.924.855-25.015 2.474 58.265 11.655 102.302 63.2 102.302 124.843v28.983c0 61.643-44.037 113.188-102.302 124.843 8.091 1.619 16.455 2.474 25.015 2.474 70.203 0 127.316-57.114 127.316-127.317v-28.983c.001-70.204-57.114-127.317-127.316-127.317z" fill="#ffead8"/></g><path d="m504.505 304.963v18.449c0 87.223-70.708 157.931-157.931 157.931-87.223 0-157.931-70.708-157.931-157.931v-18.449c0-5.818 4.717-10.535 10.535-10.535h294.792c5.818 0 10.535 4.717 10.535 10.535z" fill="#fe646f"/><path d="m493.97 294.428h-50.03c5.818 0 10.535 4.717 10.535 10.535v18.449c0 78.71-57.582 143.962-132.917 155.952 8.148 1.297 16.501 1.979 25.015 1.979 87.223 0 157.931-70.708 157.931-157.931v-18.449c.001-5.818-4.716-10.535-10.534-10.535z" fill="#fd4755"/></g></g><path d="m17.874 41.171s-11.91 36.759 40.32 69.303c36.046 22.46 112.669 26.023 112.669 26.023s-36.964-67.212-73.01-89.672c-52.23-32.544-79.979-5.654-79.979-5.654z" fill="#22b27f"/><path d="m7.85 213.435s24.443 29.927 80.095 3.66c38.407-18.127 82.918-80.598 82.918-80.598s-76.519-5.348-114.927 12.78c-55.652 26.266-48.086 64.158-48.086 64.158z" fill="#22b27f"/><g fill="#09a76d"><path d="m69.821 46.825c31.711 19.759 64.128 74.145 71.467 86.942 17.17 2.152 29.574 2.73 29.574 2.73s-36.964-67.212-73.01-89.672c-27.737-17.283-48.57-17.804-62.01-14.492 9.822 2.104 21.162 6.505 33.979 14.492z"/><path d="m140.568 135.783c-9.511 13.599-47.371 65.604-80.654 81.313-10.349 4.884-19.616 7.823-27.85 9.375 12.978 2.858 31.411 2.174 55.882-9.375 38.407-18.127 82.918-80.598 82.918-80.598s-12.676-.887-30.296-.715z"/></g></g><g><path d="m493.969 286.928h-12.793c-1.611-28.656-12.404-56.269-30.814-78.46-2.645-3.188-7.374-3.628-10.561-.983-3.188 2.645-3.628 7.373-.983 10.561 16.181 19.504 25.744 43.72 27.336 68.883h-172.296c-4.142 0-7.5 3.358-7.5 7.5s3.358 7.5 7.5 7.5h200.111c1.673 0 3.035 1.361 3.035 3.035v18.449c0 82.948-67.483 150.431-150.432 150.431s-150.431-67.484-150.431-150.432v-18.449c0-1.673 1.362-3.035 3.035-3.035h59.548c4.142 0 7.5-3.358 7.5-7.5s-3.358-7.5-7.5-7.5h-31.729c3.885-62.588 56.029-112.32 119.578-112.32 24.318 0 47.747 7.278 67.753 21.047 3.413 2.348 8.082 1.485 10.43-1.926 2.348-3.412 1.486-8.082-1.926-10.43-22.519-15.499-48.888-23.69-76.257-23.69-22.217 0-43.194 5.406-61.69 14.965-28.999-27.623-66.318-43.545-106.197-45.389 1.213-13.682 6.808-44.096 32.273-63.387 3.302-2.501 3.951-7.205 1.449-10.507s-7.205-3.951-10.507-1.449c-23.06 17.469-32.357 41.806-36.086 59.606-14.053-22.193-38.913-57.357-63.997-72.986-56.554-35.237-87.858-5.939-89.164-4.675-.606.658-1.353 1.427-1.916 3.075-.56 1.729-13.066 42.741 43.488 77.979 10.205 6.358 23.297 11.256 36.996 15.024-14.043 2.153-27.615 5.499-38.489 10.631-60.26 28.441-52.595 70.628-52.239 72.41.217.907.575 2.168 1.78 3.551 1.194 1.379 6.482 7.032 16.221 11.45-8.663 20.383-13.06 42.047-13.06 64.522v28.98c0 91.218 74.211 165.43 165.43 165.43 31.297 0 61.571-8.741 87.893-25.29 25.466 16.015 55.575 25.295 87.816 25.295 91.219 0 165.431-74.212 165.431-165.431v-18.449c0-9.945-8.091-18.036-18.036-18.036zm-462.527-68.282c-2.67-.753-5.473-1.686-9.329-3.648l123.125-58.112c-16.051 18.966-39.486 43.513-60.493 53.428-24.32 11.476-41.767 11.428-53.303 8.332zm62.444-165.456c19.716 12.285 40.146 39.384 53.889 60.084l-115.555-72.001c10.914-4.293 31.502-6.878 61.666 11.917zm-69.599.814 115.555 72.002c-24.638-3.215-57.967-9.613-77.682-21.897-30.162-18.795-36.917-38.416-37.873-50.105zm34.85 102.055c21.008-9.915 54.854-12.405 79.699-12.74l-123.128 58.114c2.305-11.5 11.29-30.205 43.429-45.374zm111.727 317.78c-82.947 0-150.43-67.482-150.43-150.43v-28.98c0-20.958 4.204-41.132 12.478-60.066 18.706 2.88 34.849.032 58.234-10.484 35.067-16.551 73.648-66.543 83.493-79.833 36.093.883 70.052 14.426 96.78 38.507-34.018 22.927-57.059 60.945-59.452 104.376h-12.79c-9.945 0-18.035 8.09-18.035 18.035v18.449c0 53.105 25.158 100.438 64.175 130.728-22.615 12.914-48.137 19.698-74.453 19.698z"/><circle cx="251.214" cy="322.687" r="7.5"/><circle cx="305.844" cy="322.687" r="7.5"/><circle cx="360.474" cy="322.687" r="7.5"/><circle cx="415.104" cy="322.687" r="7.5"/><circle cx="469.734" cy="322.687" r="7.5"/><circle cx="223.404" cy="360.228" r="7.5"/><circle cx="278.034" cy="360.228" r="7.5"/><circle cx="332.664" cy="360.228" r="7.5"/><circle cx="387.294" cy="360.228" r="7.5"/><circle cx="441.924" cy="360.228" r="7.5"/><circle cx="251.214" cy="397.773" r="7.5"/><circle cx="305.844" cy="397.773" r="7.5"/><circle cx="360.474" cy="397.773" r="7.5"/><circle cx="415.104" cy="397.773" r="7.5"/><circle cx="332.664" cy="435.313" r="7.5"/><circle cx="387.294" cy="435.313" r="7.5"/><circle cx="184.775" cy="169.103" r="7.5"/><circle cx="156.954" cy="206.647" r="7.5"/><circle cx="129.134" cy="244.192" r="7.5"/><circle cx="101.314" cy="281.737" r="7.5"/><circle cx="73.493" cy="319.282" r="7.5"/><circle cx="45.673" cy="356.827" r="7.5"/><circle cx="45.673" cy="281.729" r="7.5"/><circle cx="212.595" cy="206.647" r="7.5"/><circle cx="184.775" cy="244.192" r="7.5"/><circle cx="156.954" cy="281.737" r="7.5"/><circle cx="129.134" cy="319.282" r="7.5"/><circle cx="73.493" cy="395.769" r="7.5"/><circle cx="129.134" cy="395.769" r="7.5"/><circle cx="101.314" cy="356.827" r="7.5"/><circle cx="156.954" cy="356.827" r="7.5"/><circle cx="101.314" cy="433.313" r="7.5"/><circle cx="156.954" cy="433.313" r="7.5"/></g></g></svg>