<svg id="Capa_1" enable-background="new 0 0 512 512" height="512" viewBox="0 0 512 512" width="512" xmlns="http://www.w3.org/2000/svg"><g><g><g><path d="m248.008 164.768c-64.799 14.151-130.052.252-185.916-34.324-2.911-1.801-3.848-6.092-1.954-8.944 36.361-54.731 89.88-94.568 154.679-108.719 66.934-14.617 134.341.697 191.399 37.827-36.388 57.521-91.274 99.542-158.208 114.16z" fill="#a3e440"/><path d="m406.216 50.61c-36.385 57.523-91.276 99.54-158.203 114.155-64.806 14.156-130.052.25-185.924-34.324-2.911-1.801-3.841-6.092-1.951-8.944 1.211-1.831 2.451-3.641 3.701-5.432 48.389 22.149 101.931 29.462 155.172 17.837 62.635-13.676 114.726-51.361 150.97-103.281 12.445 5.703 24.56 12.385 36.235 19.989z" fill="#99d53b"/></g><path d="m352.424 122.74s32.107-38.408 44.166-80.992c1.704-6.016 8.001-9.464 13.957-7.559l7.691 2.46c5.81 1.858 8.993 8.077 7.112 13.88-5.996 18.501-15.475 58.864-.509 97.531z" fill="#d68a5a"/><path d="m425.349 50.529c-5.997 18.506-15.478 58.864-.506 97.534l-18.159-6.354c-14.575-38.452-5.173-78.413.784-96.8 1.291-3.981.189-8.171-2.512-11 1.797-.387 3.713-.327 5.59.278l7.694 2.462c5.808 1.857 8.995 8.082 7.109 13.88z" fill="#c47a4a"/><g><path d="m117.127 310.148s-73.91 4.76-89.353 63.47 57.363 154.12 206.285 125.72 271.358-170.731 250.79-293.897c-22.167-132.733-275.773-207.194-367.722 104.707z" fill="#2db181"/><path d="m234.056 499.341c-99.063 18.893-164.45-17.007-192.576-60.443 32.306 30.44 87.894 50.614 164.907 35.92 141.486-26.985 257.804-162.206 238.266-279.22-8.399-50.306-51.795-91.805-106.479-104.702 73.081 1.34 136.125 51.338 146.679 114.541 20.56 123.169-101.874 265.499-250.797 293.904z" fill="#1ca56f"/></g></g><g><path d="m80.75 326.95c9.422-3.978 18.496-6.295 25.285-7.624-3.308 8.079-8.968 19.319-17.751 29.197-2.754 3.097-2.475 7.839.622 10.592 1.429 1.271 3.209 1.896 4.982 1.896 2.069 0 4.128-.85 5.61-2.518 17.702-19.91 24.197-43.767 24.86-46.341 22.551-76.439 56.013-133.859 99.458-170.665 45.673-38.692 90.904-44.645 120.816-42.836 32.311 1.961 63.577 14.07 88.037 34.098 24.226 19.836 40.129 46.09 44.778 73.928.414 2.477.787 5.217 1.141 8.378.46 4.119 4.18 7.086 8.289 6.623 4.119-.46 7.084-4.172 6.623-8.289-.384-3.434-.793-6.439-1.252-9.184-5.248-31.426-23.031-60.926-50.072-83.065-5.603-4.588-11.533-8.791-17.725-12.6-.982-23.745 4.547-44.935 8.035-55.696 1.531-4.721 1.128-9.75-1.134-14.162-2.261-4.409-6.106-7.668-10.828-9.178l-7.692-2.46c-4.811-1.539-9.908-1.07-14.357 1.317-2.616 1.404-4.79 3.374-6.437 5.738-26.881-14.972-55.196-25.156-84.251-30.284-31.967-5.642-64.114-5.023-95.544 1.841-16.351 3.571-32.376 8.834-47.63 15.644-3.784 1.689-5.482 6.126-3.793 9.91 1.69 3.783 6.125 5.481 9.91 3.793 14.319-6.393 29.363-11.335 44.714-14.687 29.509-6.445 59.699-7.025 89.735-1.723 27.474 4.849 54.281 14.512 79.758 28.73l-56.566 12.353-27.817-17.845c-3.488-2.239-8.13-1.224-10.366 2.264-2.237 3.488-1.224 8.129 2.264 10.366l15.186 9.742-27.532 6.013-27.817-17.845c-3.488-2.238-8.129-1.224-10.366 2.264-2.238 3.488-1.224 8.129 2.264 10.366l15.187 9.742-27.533 6.013-27.817-17.845c-3.489-2.239-8.13-1.225-10.366 2.264-2.238 3.488-1.224 8.129 2.264 10.366l15.187 9.742-27.533 6.013-27.817-17.845c-3.488-2.238-8.129-1.223-10.366 2.264-2.238 3.488-1.224 8.129 2.264 10.366l15.187 9.743-40.771 8.903c-4.048.884-6.613 4.883-5.729 8.931.766 3.509 3.872 5.904 7.323 5.904.53 0 1.069-.057 1.608-.175l17.648-3.854-9.742 15.186c-2.238 3.488-1.224 8.129 2.264 10.366 1.254.805 2.657 1.189 4.045 1.189 2.47 0 4.889-1.219 6.322-3.453l17.845-27.816 27.533-6.013-9.742 15.186c-2.238 3.488-1.224 8.129 2.264 10.366 1.254.805 2.657 1.189 4.045 1.189 2.47 0 4.889-1.219 6.322-3.453l17.845-27.816 27.533-6.013-9.742 15.186c-1.671 2.605-1.527 5.852.105 8.262-5.332 3.752-10.57 7.794-15.697 12.138-11.273 9.55-21.895 20.386-31.855 32.478-39.837-2.431-79.984-15.434-116.198-37.635 20.133-30.034 44.927-54.638 73.71-73.136 3.486-2.24 4.496-6.883 2.255-10.368-2.24-3.487-6.884-4.493-10.368-2.256-30.849 19.826-57.343 46.214-78.746 78.431-2.021 3.041-2.715 6.912-1.906 10.618.81 3.707 3.055 6.934 6.16 8.856 35.556 22.007 74.813 35.607 114.156 39.641-24.594 33.887-44.667 76.215-59.959 126.555-7.264.971-21.116 3.492-36.019 9.72-28.939 12.094-47.9 32.415-54.831 58.766-8.071 30.681 5.841 68.309 35.441 95.861 1.445 1.345 3.28 2.011 5.11 2.011 2.01 0 4.016-.803 5.493-2.391 2.823-3.033 2.653-7.781-.38-10.605-25.608-23.835-37.836-55.652-31.153-81.058 5.744-21.848 21.127-38.192 45.717-48.575zm255.233-253.578-6.464 10.077c-8.543.268-17.02 1.169-25.402 2.691l4.333-6.755zm44.448-9.706c-3.404 7.457-7.452 15.122-12.112 22.948-6.979-1.382-14.06-2.327-21.189-2.827l9.586-14.942zm25.142-22.084c.483-.259 1.474-.634 2.688-.246l7.692 2.46c1.206.386 1.801 1.251 2.047 1.733.248.484.606 1.475.213 2.687-3.365 10.385-8.472 29.691-8.858 52.074-8.299-3.994-16.95-7.317-25.837-9.936 9.307-16.214 16.127-31.85 20.292-46.561.366-1.297 1.262-1.942 1.763-2.211zm-145.389 48.344 27.533-6.013-4.786 7.46c-11.085 3.479-21.946 8.078-32.509 13.769z"/><path d="m486.966 243.059c-4.147-.413-7.792 2.62-8.191 6.745-10.611 109.672-121.021 218.305-246.122 242.163-67.345 12.842-112.549-1.331-138.613-15.483-3.64-1.977-8.197-.628-10.174 3.013-1.977 3.642-.628 8.197 3.013 10.174 20.527 11.147 51.884 22.329 95.064 22.329 16.165 0 33.992-1.568 53.521-5.292 64.241-12.251 126.424-45.749 175.093-94.321 48.225-48.129 77.757-105.356 83.153-161.137.4-4.124-2.621-7.792-6.744-8.191z"/></g></g></svg>