<svg id="Capa_1" enable-background="new 0 0 511.929 511.929" height="512" viewBox="0 0 511.929 511.929" width="512" xmlns="http://www.w3.org/2000/svg"><g><g><ellipse cx="62.26" cy="390.903" fill="#fd4755" rx="54.835" ry="54.739"/><path d="m101.036 429.609c-18.16 18.12-45.87 20.88-66.93 8.28-3.79-2.26-7.36-5.02-10.62-8.28-21.42-21.38-21.42-56.04 0-77.41 12.21-12.2 28.76-17.43 44.69-15.71 12 1.29 23.66 6.53 32.86 15.71 21.41 21.37 21.41 56.03 0 77.41z" fill="#fd4755"/><path d="m101.036 429.609c-18.16 18.12-45.87 20.88-66.93 8.28 1.174-7.216 3.807-14.239 7.893-20.605 2.57-4.004 3.128-9.035 1.442-13.484-7.396-19.513-3.237-42.394 12.505-58.101 3.72-3.72 7.84-6.79 12.23-9.21 12 1.29 23.66 6.53 32.86 15.71 21.41 21.37 21.41 56.03 0 77.41z" fill="#fb2b3a"/><ellipse cx="118.207" cy="446.752" fill="#fd4755" rx="54.835" ry="54.739"/><path d="m156.986 485.459c-3.72 3.72-7.85 6.79-12.24 9.21-20.85 11.52-47.62 8.45-65.31-9.21-21.42-21.38-21.42-56.04 0-77.41 12.22-12.2 28.77-17.44 44.71-15.72 12 1.3 23.64 6.54 32.84 15.72 21.41 21.37 21.41 56.03 0 77.41z" fill="#fd4755"/><path d="m156.986 485.459c-3.72 3.72-7.85 6.79-12.24 9.21-12-1.29-23.65-6.53-32.85-15.71-21.42-21.38-21.42-56.04 0-77.41.13-.13.27-.26.4-.39 3.62-3.55 7.61-6.49 11.85-8.83 12 1.3 23.64 6.54 32.84 15.72 21.41 21.37 21.41 56.03 0 77.41z" fill="#fb2b3a"/><ellipse cx="68.772" cy="328.554" fill="#fd4755" rx="54.835" ry="54.739"/><path d="m107.546 367.259c-18.15 18.13-45.87 20.88-66.94 8.27-3.78-2.26-7.35-5.02-10.61-8.27-21.41-21.38-21.41-56.03 0-77.41.13-.13.27-.26.4-.4 1.17-1.15 2.38-2.23 3.63-3.24 21.54-17.66 53.4-16.45 73.52 3.64 8.04 8.03 13.06 17.93 15.07 28.29 3.33 17.24-1.69 35.77-15.07 49.12z" fill="#fe646f"/><path d="m107.546 367.259c-18.15 18.13-45.87 20.88-66.94 8.27 1.79-10.92 6.9-21.4 15.34-29.83 2.39-2.386 4.946-4.505 7.632-6.358 4.297-2.964 3.916-9.411-.705-11.839-.896-.471-1.782-.969-2.657-1.493-3.79-2.26-7.35-5.02-10.61-8.27-8.87-8.86-14.07-20-15.58-31.53 21.54-17.66 53.4-16.45 73.52 3.64 8.04 8.03 13.06 17.93 15.07 28.29 3.33 17.24-1.69 35.77-15.07 49.12z" fill="#fd4755"/><ellipse cx="180.667" cy="440.252" fill="#fd4755" rx="54.835" ry="54.739"/><path d="m219.445 478.96c-21.42 21.37-56.14 21.37-77.55 0-21.42-21.38-21.42-56.04 0-77.41.13-.13.27-.26.4-.39 21.44-20.99 55.86-20.86 77.15.39 8.04 8.02 13.06 17.92 15.07 28.28 3.32 17.25-1.7 35.78-15.07 49.13z" fill="#fe646f"/><path d="m234.515 429.83c-2.01-10.36-7.03-20.26-15.07-28.28-15.137-15.108-36.907-19.529-55.934-13.286 7.905 2.592 15.342 7.01 21.63 13.286 8.04 8.02 13.06 17.92 15.07 28.28 3.32 17.25-1.7 35.78-15.07 49.13-6.286 6.271-13.722 10.688-21.626 13.278 19.027 6.237 40.796 1.821 55.93-13.278 13.37-13.35 18.39-31.88 15.07-49.13z" fill="#fd4755"/><ellipse cx="124.719" cy="384.403" fill="#fe646f" rx="54.835" ry="54.739"/><g fill="#fd4755"><path d="m163.494 345.697c-15.155-15.129-36.971-19.536-56.022-13.251 7.868 2.596 15.268 7.003 21.527 13.251 21.415 21.377 21.415 56.035 0 77.412-6.259 6.248-13.659 10.656-21.527 13.251 19.051 6.285 40.867 1.877 56.022-13.251 21.414-21.377 21.414-56.035 0-77.412z"/><ellipse cx="118.379" cy="279.035" rx="54.835" ry="54.739"/><path d="m157.156 317.739c-18.16 18.13-45.88 20.88-66.94 8.27-3.79-2.26-7.35-5.02-10.61-8.27-21.41-21.38-21.41-56.03 0-77.41.75-.75 1.51-1.47 2.29-2.16 1.19-1.06 2.41-2.05 3.66-2.98 21.47-16.07 52.07-14.35 71.6 5.14 8.01 8 13.03 17.86 15.04 28.18 3.37 17.27-1.64 35.85-15.04 49.23z"/></g><path d="m157.156 317.739c-18.16 18.13-45.88 20.88-66.94 8.27 1.78-10.92 6.9-21.4 15.34-29.83 3.871-3.866 8.179-7.034 12.764-9.503 3.595-1.936 3.457-7.198-.292-8.817-2.14-.924-4.232-1.991-6.262-3.201-3.81-2.27-7.4-5.04-10.68-8.31-8.77-8.76-13.96-19.76-15.53-31.16 21.47-16.07 52.07-14.35 71.6 5.14 8.01 8 13.03 17.86 15.04 28.18 3.37 17.271-1.64 35.851-15.04 49.231z" fill="#fb2b3a"/><ellipse cx="230.274" cy="390.732" fill="#fd4755" rx="54.835" ry="54.739"/><path d="m269.045 429.44c-21.41 21.37-56.13 21.37-77.55 0-21.41-21.38-21.41-56.04 0-77.41.75-.75 1.52-1.47 2.3-2.16 21.54-19.19 54.59-18.47 75.25 2.16 8.02 7.99 13.03 17.85 15.05 28.18 3.37 17.27-1.65 35.85-15.05 49.23z" fill="#fd4755"/><path d="m284.095 380.21c-2.02-10.33-7.03-20.19-15.05-28.18-15.124-15.103-36.885-19.521-55.913-13.283 7.899 2.592 15.328 7.011 21.608 13.283 8.02 7.99 13.03 17.85 15.05 28.18 3.37 17.27-1.65 35.85-15.05 49.23-6.283 6.271-13.716 10.688-21.62 13.278 19.03 6.237 40.797 1.821 55.924-13.278 13.401-13.38 18.421-31.96 15.051-49.23z" fill="#fb2b3a"/><ellipse cx="174.327" cy="334.883" fill="#fd4755" rx="54.835" ry="54.739"/><path d="m213.101 296.177c-15.155-15.129-36.971-19.536-56.022-13.251 7.868 2.596 15.268 7.003 21.527 13.251 21.415 21.377 21.415 56.036 0 77.412-6.259 6.248-13.659 10.656-21.527 13.251 19.051 6.285 40.867 1.877 56.022-13.251 21.415-21.376 21.415-56.035 0-77.412z" fill="#fb2b3a"/><ellipse cx="169.863" cy="227.642" fill="#fd4755" rx="54.835" ry="54.739"/><path d="m208.636 266.349c-18.13 18.1-45.81 20.87-66.87 8.31-3.81-2.27-7.4-5.04-10.68-8.31-21.41-21.38-21.41-56.04 0-77.41.13-.13.27-.26.4-.39 1.17-1.14 2.38-2.23 3.62-3.25 21.54-17.66 53.41-16.45 73.53 3.64 8.04 8.03 13.07 17.92 15.07 28.28 3.33 17.24-1.69 35.78-15.07 49.13z" fill="#fe646f"/><path d="m208.636 266.349c-18.13 18.1-45.81 20.87-66.87 8.31 1.66-10.28 6.23-20.16 13.72-28.26 3.18-3.45 6.69-6.38 10.44-8.81 3.89-2.53 3.41-8.32-.75-10.37-1.31-.65-2.6-1.35-3.87-2.11-3.78-2.27-7.35-5.03-10.61-8.28-8.88-8.86-14.07-20-15.59-31.53 21.54-17.66 53.41-16.45 73.53 3.64 8.04 8.03 13.07 17.92 15.07 28.28 3.33 17.24-1.69 35.78-15.07 49.13z" fill="#fd4755"/><ellipse cx="281.758" cy="339.339" fill="#fd4755" rx="54.835" ry="54.739"/><path d="m320.535 378.05c-21.42 21.37-56.14 21.37-77.55 0-21.42-21.38-21.42-56.04 0-77.42l.39-.39c21.44-20.98 55.87-20.85 77.16.39 8.04 8.03 13.06 17.93 15.07 28.29 3.32 17.25-1.7 35.78-15.07 49.13z" fill="#fe646f"/><path d="m335.605 328.92c-2.01-10.36-7.03-20.26-15.07-28.29-15.136-15.1-36.91-19.519-55.939-13.281 7.908 2.59 15.346 7.007 21.635 13.281 8.04 8.03 13.06 17.93 15.07 28.29 3.32 17.25-1.7 35.78-15.07 49.13-6.286 6.271-13.721 10.688-21.626 13.278 19.027 6.237 40.796 1.82 55.93-13.278 13.37-13.35 18.39-31.88 15.07-49.13z" fill="#fd4755"/><g><path d="m295.203 214.22c-5.913-5.902-5.913-15.472 0-21.374l178.245-177.93c5.913-5.902 15.499-5.902 21.412 0s5.913 15.472 0 21.374l-178.245 177.93c-5.913 5.903-15.5 5.903-21.412 0z" fill="#dd7f66"/></g><path d="m494.859 14.916c-5.913-5.902-15.499-5.902-21.412 0l-19.471 19.437c5.934-2.828 13.249-1.806 18.164 3.1 5.061 5.052 6.013 12.653 2.857 18.665l19.862-19.827c5.913-5.903 5.913-15.473 0-21.375z" fill="#d6694b"/><path d="m432.21 229.974c-45.297-15.909-74.262 2.043-72.102 48.427 2.749 59.059 69.258 126.864 72.051 129.687v.102s.017-.017.051-.051c.033.034.051.051.051.051v-.102c2.794-2.823 69.302-70.628 72.051-129.687 2.159-46.384-26.805-64.336-72.102-48.427z" fill="#22b27f"/><g><path d="m442.793 226.816c17.896 6.198 27.8 23.773 26.505 51.585-1.888 40.564-33.854 85.253-54.595 110.179 9.457 11.365 16.581 18.623 17.456 19.508v.103s.017-.017.051-.051c.033.034.051.051.051.051v-.103c2.794-2.823 69.302-70.628 72.051-129.687 1.986-42.657-22.364-61.243-61.519-51.585z" fill="#09a76d"/></g><g><ellipse cx="342.166" cy="223.189" fill="#fe646f" rx="54.835" ry="54.739"/><path d="m380.94 184.483c-15.109-15.082-36.837-19.508-55.846-13.308 7.934 2.588 15.397 7.013 21.703 13.308 21.415 21.377 21.415 56.035 0 77.412-6.306 6.295-13.769 10.72-21.703 13.308 19.009 6.2 40.737 1.774 55.846-13.308 21.415-21.377 21.415-56.036 0-77.412z" fill="#fd4755"/><ellipse cx="286.219" cy="167.34" fill="#fe646f" rx="54.835" ry="54.739"/><path d="m324.993 128.634c-15.109-15.082-36.837-19.508-55.846-13.308 7.934 2.588 15.397 7.013 21.703 13.308 21.415 21.377 21.415 56.035 0 77.412-6.306 6.295-13.769 10.72-21.703 13.308 19.009 6.2 40.738 1.774 55.846-13.308 21.415-21.377 21.415-56.035 0-77.412z" fill="#fd4755"/></g><ellipse cx="225.81" cy="283.49" fill="#fe646f" rx="54.835" ry="54.739"/><path d="m264.585 244.784c-15.181-15.155-37.046-19.552-56.12-13.22 7.832 2.6 15.196 6.998 21.429 13.22 21.415 21.377 21.415 56.035 0 77.412-6.233 6.222-13.597 10.62-21.429 13.22 19.074 6.332 40.939 1.935 56.12-13.22 21.414-21.376 21.414-56.035 0-77.412z" fill="#fd4755"/><path d="m273.576 186.989c-1.78 10.93-6.9 21.41-15.33 29.84-18.16 18.13-45.88 20.88-66.94 8.28-3.78-2.27-7.35-5.03-10.61-8.28-21.41-21.38-21.41-56.04 0-77.41 21.41-21.38 56.13-21.38 77.55 0 12.97 12.95 18.08 30.77 15.33 47.57z" fill="#fd4755"/><path d="m258.246 139.419c-14.56-14.54-35.28-19.19-53.77-13.95 8.7 2.46 16.92 7.11 23.77 13.95 7.088 7.075 11.823 15.605 14.213 24.629 1.976 7.458-2.669 14.953-10.163 16.785-9.399 2.298-18.307 7.106-25.65 14.436-8.44 8.42-13.56 18.91-15.34 29.84 21.06 12.6 48.78 9.85 66.94-8.28 21.41-21.38 21.41-56.04 0-77.41z" fill="#fb2b3a"/><ellipse cx="331.365" cy="289.819" fill="#fd4755" rx="54.835" ry="54.739"/><path d="m370.14 251.113c-15.109-15.082-36.837-19.508-55.846-13.308 7.934 2.588 15.397 7.013 21.703 13.308 21.415 21.377 21.415 56.036 0 77.412-6.306 6.295-13.769 10.72-21.703 13.308 19.009 6.2 40.737 1.774 55.846-13.308 21.414-21.377 21.414-56.035 0-77.412z" fill="#fb2b3a"/><ellipse cx="275.418" cy="233.971" fill="#fd4755" rx="54.835" ry="54.739"/><path d="m314.192 195.264c-15.109-15.082-36.837-19.508-55.846-13.308 7.934 2.588 15.397 7.013 21.703 13.308 21.415 21.377 21.415 56.036 0 77.412-6.306 6.295-13.769 10.72-21.703 13.308 19.009 6.2 40.737 1.774 55.846-13.308 21.415-21.376 21.415-56.035 0-77.412z" fill="#fb2b3a"/></g><path d="m492.217 225.99c-9.391-6.989-25.999-13.221-53.149-5.983-2.784-51.426 5.68-88.704 13.549-111.351 8.344-24.009 17.685-36.804 19.122-38.692l28.41-28.361c4.285-4.271 6.646-9.953 6.646-15.997 0-6.045-2.36-11.727-6.637-15.989-8.82-8.817-23.181-8.821-32.013-.004l-33.994 33.937c-2.932 2.927-2.936 7.675-.009 10.606 2.926 2.932 7.675 2.937 10.606.009l33.994-33.937c2.984-2.98 7.834-2.979 10.816.005 1.441 1.436 2.235 3.344 2.235 5.373 0 2.028-.794 3.937-2.239 5.377l-132.115 131.891c-3.028-.759-6.101-1.295-9.194-1.594-.3-3.099-.831-6.166-1.593-9.185l73.238-73.108c2.932-2.926 2.936-7.675.009-10.606-2.926-2.932-7.675-2.937-10.606-.009l-68.679 68.558c-19.755-35.335-67.306-41.87-96.149-15.805-22.817-9.942-50.422-5.625-69.067 12.987-30.241 29.961-20.889 79.764 14.235 98.683-12.756 8.796-23.479 25.381-25.511 41.729-22.368-2.085-42.05-23.47-41.594-46.887.001-12.613 4.922-24.47 13.855-33.387.39-.389.785-.77 1.185-1.143 3.028-2.826 3.192-7.572.366-10.601-2.827-3.029-7.573-3.19-10.601-.366-.521.486-1.037.984-1.546 1.492-9.371 9.354-15.378 21.168-17.445 33.982-24.442 3.569-46.764 24.375-51.191 49.8-12.228 2.321-23.584 8.276-32.456 17.13-11.774 11.757-18.258 27.386-18.258 44.01 0 8.987 1.91 17.677 5.511 25.627-17.911 24.433-15.567 58.963 6.238 80.737 10.359 10.34 23.641 16.564 37.991 17.932 1.372 14.314 7.595 27.573 17.958 37.916 12.078 12.061 28.084 18.16 44.123 18.16 12.917 0 25.851-3.969 36.771-11.958 8.126 3.65 16.878 5.487 25.635 5.487 15.961-.001 31.926-6.064 44.081-18.191 10.291-10.28 16.683-23.897 17.999-38.345.375-4.126-2.664-7.774-6.789-8.149-24.794 2.923-49.851-15.381-52.667-41.319 16.573-2.231 33.561-12.432 43.426-27.835 8.79 17.41 29.764 31.559 49.681 32.689-1.971 8.59-6.318 16.507-12.648 22.825-.398.397-.802.786-1.211 1.167-3.033 2.82-3.206 7.566-.385 10.6 1.478 1.589 3.482 2.393 5.494 2.393 1.828 0 3.661-.664 5.105-2.008.538-.5 1.068-1.012 1.592-1.534 9.301-9.282 15.36-21.186 17.443-34.023 23.913-3.259 47.011-24.422 51.207-49.786 10.045-1.89 19.709-6.253 28.004-13.086 19.695 37.338 48.898 68.378 55.033 74.7 1.195 1.529 6.131 6.297 12.26.104 9.913-10.175 70.772-74.951 73.518-133.908 1.42-30.496-9.869-45.523-19.59-52.759zm-154.758 1.902c-1.578-16.187-9.843-32.074-23.38-42.728 32.899-23.714 75.529 1.399 75.423 38.031-.002 10.232-3.24 19.965-9.238 28.042-9.462-12.446-26.6-22.071-42.805-23.345zm-95.517 39.477c-31.159-32.214-5.682-80.891 33.476-80.616 24.301-.854 47.967 21.65 47.336 47.218 0 12.615-4.923 24.477-13.86 33.398-18.457 18.425-48.493 18.427-66.952 0zm182.767-31.955v27.509l-31.465 19.464c-.723-6.1-2.332-11.996-4.766-17.541 8.416-9.302 13.725-20.734 15.422-33.032 6.322.13 13.283 1.333 20.809 3.6zm-31.371 61.073c.545-.165 1.361 1.528 6.63-.622l24.741-15.305v31.805l-15.776 11.179c-3.38 2.395-4.179 7.075-1.783 10.455 1.462 2.063 3.775 3.165 6.126 3.165 1.499 0 3.013-.449 4.329-1.382l7.104-5.034v58.003c-12.119-14.095-30.25-37.245-42.805-62.5 6.359-8.754 10.288-18.953 11.434-29.764zm45.269-193.448c-9.208 26.22-17.273 64.798-14.584 116.626-6.985-1.765-13.617-2.719-19.846-2.847-1.438-14.219-7.677-27.403-17.936-37.648-4.142-4.133-8.734-7.543-13.611-10.268zm-118.911 30.898c7.079 7.38 11.948 16.021 13.501 27.688-11.866 1.708-23.329 6.823-32.783 15.347-6.056-2.639-12.445-4.288-18.919-4.915-1.548-16.177-9.807-32.071-23.368-42.744 18.514-13.638 44.808-12.097 61.569 4.624zm-147.559 44.179c.001-12.613 4.922-24.471 13.856-33.388 18.464-18.43 48.498-18.43 66.953 0 7.596 7.581 12.261 17.231 13.506 27.675-25.277 2.959-49.578 25.858-52.725 52.593-22.208-2.164-42.112-23.265-41.59-46.88zm20.196 71.972c4.73-4.722 10.249-8.291 16.412-10.656 1.531.262 3.073.483 4.631.632 1.881 27.94 27.504 53.87 55.957 55.819.149 1.564.351 3.116.615 4.653-34.75 70.531-126.802 4.022-77.615-50.448zm-107.427-4.452c6.327-6.32 14.257-10.662 22.863-12.634 1.502 20.177 14.178 39.686 32.751 49.595-14.001 8.72-25.717 25.968-27.886 43.325-23.368-1.965-44.462-26.512-41.389-51.201.996-10.952 5.848-21.281 13.661-29.085zm83.337 151.161c.149 1.563.351 3.115.615 4.65-2.361 6.133-5.932 11.633-10.662 16.354-18.463 18.43-48.498 18.43-66.952.002-8.937-8.925-13.858-20.789-13.857-33.407-.205-18.738 11.971-36.989 30.249-44.05 1.537.263 3.085.483 4.649.631 1.884 27.937 27.506 53.871 55.958 55.82zm-132.951-101.638c5.82-5.808 13.047-9.976 20.891-12.141 1.149 20.554 13.489 40.344 32.353 50.695-12.752 8.801-23.477 25.378-25.506 41.729-22.202-2.149-42.109-23.287-41.593-46.888 0-12.613 4.921-24.473 13.855-33.395zm-14.546 73.072c9.284 11.67 26.335 21.155 41.936 22.265.659 6.812 2.433 13.383 5.208 19.516-5.997 8.178-9.897 17.732-11.36 27.767-10.474-1.26-20.148-5.894-27.746-13.477-15.056-15.032-17.885-38.078-8.038-56.071zm63.987 111.92c-14.2-13.883-18.369-37.649-8.05-56.085 9.303 11.82 26.924 21.228 41.95 22.252 1.625 15.825 9.162 31.015 22.292 41.873-18.041 9.826-41.133 6.997-56.192-8.04zm141.557-27.322c-2.167 7.818-6.336 15.02-12.143 20.821-18.464 18.421-48.5 18.42-66.955.001-7.601-7.587-12.269-17.237-13.514-27.678 12.856-1.85 25.244-7.703 35.115-17.556 2.482-2.477 4.717-5.122 6.715-7.913 9.109 17.437 30.027 31.5 50.782 32.325zm-18.484-84.548c-31.371 30.594-80.849 6.635-80.817-33.405-.123-20.447 14.792-42.098 36.782-45.292 1.385 14.326 7.64 27.615 17.965 37.926 10.608 10.583 24.116 16.544 37.993 17.891.14 7.31-6.083 16.727-11.923 22.88zm107.432 4.459c-29.311 28.74-76.009 9.424-80.464-27.684 15.647-2.159 31.756-11.268 41.826-25.464 8.972 17.473 30.687 31.702 50.791 32.296-2.165 7.835-6.337 15.048-12.153 20.852zm-17.344-49.518c-7.602-7.588-12.271-17.24-13.516-27.685 25.285-2.957 49.59-25.865 52.733-52.608 10.472 1.24 20.128 5.904 27.726 13.489 8.939 8.923 13.863 20.785 13.863 33.401s-4.924 24.479-13.864 33.401c-18.456 18.424-48.487 18.424-66.942.002zm198.929-45.17c-1.062 22.825-13.047 51.171-34.657 81.972-8.034 11.451-16.073 21.362-22.456 28.772v-58.047l7.105 5.035c1.316.934 2.83 1.382 4.329 1.382 2.351 0 4.664-1.102 6.126-3.165 2.396-3.38 1.597-8.061-1.783-10.455l-15.777-11.179v-31.807l24.742 15.305c1.229.761 2.592 1.123 3.938 1.123 2.512 0 4.967-1.262 6.385-3.556 2.18-3.522 1.09-8.145-2.433-10.323l-32.633-20.186v-27.494c18.469-5.526 33.812-4.657 43.551 2.594 9.755 7.261 14.444 21.102 13.563 40.029z"/></g></svg>