<svg id="Capa_1" enable-background="new 0 0 512.032 512.032" height="512" viewBox="0 0 512.032 512.032" width="512" xmlns="http://www.w3.org/2000/svg"><g><g><ellipse cx="243.281" cy="397.198" fill="#bbec6c" rx="70.078" ry="95.175"/><path d="m406.258 151.815 16.061 79.247c1.592 7.857 12.821 7.857 14.414 0l16.061-79.247c4.512-22.261 2.897-45.329-4.671-66.745l-18.597-52.625-18.597 52.625c-7.568 21.416-9.182 44.484-4.671 66.745z" fill="#22b27f"/><path d="m448.124 85.071-18.597-52.625-14.016 39.66 4.582 12.965c7.568 21.416 9.182 44.484 4.671 66.745l-9.252 45.652 6.809 33.595c1.592 7.857 12.821 7.857 14.414 0l16.061-79.247c4.51-22.262 2.896-45.33-4.672-66.745z" fill="#09a76d"/><ellipse cx="91.095" cy="397.322" fill="#bbec6c" rx="95.175" ry="70.078" transform="matrix(.707 -.707 .707 .707 -254.268 180.787)"/><ellipse cx="420.936" cy="253.017" fill="#bbec6c" rx="70.078" ry="95.175" transform="matrix(.707 -.707 .707 .707 -55.62 371.754)"/><g fill="#a2e62e"><path d="m243.281 302.023c-8.814 0-17.245 2.216-25.015 6.25 26.349 13.68 45.064 48.331 45.064 88.925s-18.715 75.245-45.064 88.925c7.77 4.034 16.201 6.25 25.015 6.25 38.703 0 70.079-42.611 70.079-95.175 0-52.563-31.375-95.175-70.079-95.175z"/><path d="m158.394 330.023c-16.671-16.671-42.601-20.215-68.725-12.056 6.987 2.697 13.326 6.687 18.695 12.056 27.367 27.367 19.422 79.684-17.746 116.852-14.527 14.527-31.367 24.566-48.127 29.802 28.626 11.05 68.281.075 98.157-29.802 37.169-37.168 45.114-89.485 17.746-116.852z"/><path d="m470.489 203.464c-29.876-29.876-69.53-40.851-98.157-29.801 16.761 5.235 33.601 15.275 48.127 29.801 37.168 37.168 45.113 89.484 17.746 116.852-5.369 5.369-11.708 9.359-18.695 12.056 26.124 8.16 52.053 4.616 68.725-12.056 27.367-27.368 19.423-79.684-17.746-116.852z"/></g><path d="m152.053 123.205-74.233 32.055c-7.36 3.178-5.045 14.166 2.972 14.104l80.856-.623c22.713-.175 44.953-6.511 64.348-18.332l47.66-29.048-55.329-7.347c-22.516-2.991-45.422.186-66.274 9.191z" fill="#22b27f"/><path d="m237.495 116.559-40.826 30.267c-14.86 9.057-30.63 18.164-47.408 22.01l12.386-.095c22.713-.175 44.953-6.511 64.348-18.332l47.66-29.048z" fill="#09a76d"/></g><path d="m510.978 264.438c-3.59-23.641-16.085-47.179-35.185-66.278-6.602-6.602-13.743-12.393-21.227-17.322l5.58-27.532c4.78-23.591 3.069-48.052-4.949-70.739l-16.072-45.468c20.186-6.995 33.006-10.029 33.44-10.129 4.038-.926 6.561-4.948 5.635-8.986-.925-4.037-4.949-6.556-8.986-5.635-.899.206-17.057 3.963-41.932 12.945-53.022 19.129-108.77 48.561-155.965 88.192l-52.004-6.906c-23.856-3.17-48.144.2-70.234 9.74l-74.233 32.056c-6.565 2.835-10.121 9.702-8.646 16.699 1.466 6.958 7.43 11.79 14.527 11.79h.122l80.856-.623c21.889-.169 43.37-5.76 62.542-16.192-29.516 34.124-49.813 68.157-62.631 93.384-12.836 25.263-20.236 45.436-23.703 55.931-10.677-3.266-22.661-4.019-35.396-2.083-23.641 3.59-47.179 16.086-66.278 35.185-19.1 19.1-31.595 42.638-35.185 66.278-3.719 24.488 2.475 46.216 17.439 61.181 12.127 12.127 28.693 18.493 47.572 18.493 4.418 0 8.964-.349 13.608-1.055 23.641-3.59 47.179-16.086 66.278-35.185 8.929-8.929 16.392-18.834 22.199-29.26 2.29 11.833 6.159 23.055 11.525 33.212 1.935 3.662 6.474 5.063 10.135 3.127 3.662-1.935 5.062-6.473 3.127-10.135-9.886-18.427-14.124-43.201-11.432-65.944 4.804-41.693 30.663-73.639 61.753-73.654.007 0 .013.002.02.002s.014-.002.021-.002c34.497.015 62.559 39.34 62.559 87.674 0 48.344-28.072 87.675-62.578 87.675-10.528 0-20.959-3.784-30.167-10.944-3.27-2.543-7.982-1.952-10.524 1.317-2.543 3.27-1.954 7.981 1.316 10.524 11.865 9.226 25.48 14.103 39.375 14.103 21.164 0 40.907-10.984 55.592-30.929 14.178-19.256 21.986-44.735 21.986-71.746s-7.808-52.491-21.986-71.746c-13.368-18.155-30.927-28.882-49.933-30.661-16.724-58.336-6.175-123.286-3.947-135.434 23.241-25.562 54.825-51.25 84.763-69.933-2.734 23.302-3.906 66.494 17.548 100.311 2.138 3.497 7.976 5.055 11.636 1.286 29.478-28.37 79.582-9.725 106.246 17.746 16.853 16.853 27.849 37.424 30.962 57.924 2.984 19.652-1.709 36.813-13.216 48.32-24.399 24.4-72.061 16.439-106.245-17.745-23.113-23.112-35.032-53.328-31.105-78.854.63-4.095-2.178-7.924-6.272-8.554-4.09-.634-7.923 2.179-8.553 6.272-4.64 30.161 8.896 65.314 35.324 91.743 33.853 34.538 91.786 51.896 127.458 17.745 14.965-14.965 21.159-36.693 17.44-61.181zm-65.533-114.112-4.592 22.653c-7.949-3.895-16.147-6.811-24.412-8.672l-2.835-13.98c-4.238-20.914-2.719-42.618 4.391-62.762l11.528-32.614 11.529 32.614c7.114 20.128 8.632 41.83 4.391 62.761zm-283.855 10.915-80.132.618 73.567-31.769c14.818-6.399 30.749-9.668 46.788-9.668 5.175 0 10.362.34 15.526 1.025l34.291 4.554-29.538 18.003c-18.231 11.113-39.152 17.073-60.502 17.237zm-26.245 280.33c-34.185 34.185-81.845 42.145-106.245 17.746-11.507-11.507-16.201-28.668-13.216-48.32 3.113-20.5 14.109-41.071 30.962-57.924 20.802-20.802 46.589-31.892 69.094-31.892 13.271.017 26.887 4.08 37.152 14.146 11.507 11.507 16.201 28.668 13.216 48.32-3.114 20.5-14.11 41.071-30.963 57.924zm98.172-146.256c-17.422 2.846-33.428 13.297-45.828 30.137-4.221 5.733-7.864 12.028-10.918 18.741-4.865-11.481-13.296-21.673-25.047-28.761 3.09-9.498 10.416-29.978 23.463-55.595 11.065-21.725 27.884-50.216 51.617-79.481-2.979 27.289-4.836 71.984 6.713 114.959zm122.184-121.174c-18.154-36.105-11.511-82.37-9.252-94.796 25.583-14.764 50.082-25.905 70.574-34.031l-13.169 37.256c-8.013 22.704-9.725 47.164-4.948 70.736l1.774 8.75c-17.204-.955-32.703 3.219-44.979 12.085z"/></g></svg>