<svg id="Capa_1" enable-background="new 0 0 512.001 512.001" height="512" viewBox="0 0 512.001 512.001" width="512" xmlns="http://www.w3.org/2000/svg"><g><g><path d="m217.943 109.774-3.673-4.995c-7.212-9.809-18.661-15.601-30.836-15.601-12.175 0-23.624 5.792-30.836 15.601l-3.673 4.995c-80.641 16.04-141.425 87.188-141.425 172.542v33.052c0 97.166 78.768 175.934 175.934 175.934 97.166 0 175.934-78.768 175.934-175.934v-33.052c0-85.354-60.784-156.502-141.425-172.542z" fill="#fdb441"/><path d="m217.943 109.774-3.673-4.995c-7.212-9.809-18.661-15.601-30.836-15.601-9.281 0-18.133 3.374-25.015 9.319 2.146 1.854 4.107 3.951 5.822 6.283l3.673 4.995c80.641 16.039 141.425 87.188 141.425 172.541v33.052c0 88.672-65.604 162.01-150.919 174.156 8.172 1.163 16.521 1.778 25.015 1.778 97.166 0 175.934-78.768 175.934-175.934v-33.052c-.001-85.354-60.785-156.502-141.426-172.542z" fill="#fe9901"/><g><path d="m444.045 199.887c4.99-4.99 13.184-4.715 17.797.626 59.696 69.122 56.738 173.649-8.869 239.255-65.613 65.613-170.14 68.572-239.262 8.876-5.341-4.612-5.616-12.807-.626-17.797z" fill="#fdb441"/><path d="m461.841 200.513c-4.612-5.341-12.807-5.616-17.797-.626l-18.617 18.617c45.141 68.297 37.652 161.128-22.484 221.264-27.976 27.976-63.027 44.552-99.392 49.747 52.95 7.566 108.685-9.011 149.421-49.747 65.607-65.606 68.565-170.133 8.869-239.255z" fill="#fe9901"/><path d="m431.496 212.436c56.76 56.76 56.76 149.11.007 205.862-56.76 56.76-149.11 56.76-205.869 0z" fill="#fee45a"/><path d="m431.496 212.436-6.068 6.068c45.141 68.297 37.651 161.128-22.484 221.264-.623.623-1.257 1.23-1.887 1.842 10.894-6.251 21.15-14.015 30.447-23.312 56.751-56.752 56.751-149.102-.008-205.862z" fill="#fed402"/></g></g><g><path d="m467.517 195.611c-3.549-4.109-8.702-6.58-14.137-6.779-5.437-.188-10.783 1.898-14.639 5.752l-72.511 72.51c-6.645-79.734-64.972-147.055-143.952-164.084-6.452-10.093-18.549-18.588-30.932-20.63 1.778-17.838 6.678-40.028 19.182-57.28 2.431-3.354 1.683-8.043-1.671-10.474-3.353-2.431-8.042-1.683-10.474 1.671-14.815 20.439-20.317 45.977-22.167 65.977-11.648 1.652-24.462 9.554-31.628 20.735-83.958 18.102-144.588 93.041-144.588 179.311v33.05c0 49.605 19.49 96.074 54.88 130.846 1.46 1.435 3.358 2.15 5.256 2.15 1.941 0 3.882-.75 5.35-2.244 2.903-2.955 2.861-7.703-.093-10.606-32.497-31.928-50.393-74.597-50.393-120.146v-33.05c0-80.116 56.937-149.59 135.383-165.194 1.833-.365 3.463-1.4 4.573-2.904l3.688-5.001c4.795-5.605 8.069-8.77 16.748-11.453-.141 9.903.501 16.518.582 17.307.398 3.858 3.654 6.728 7.451 6.728.255 0 .514-.013.773-.04 4.119-.421 7.116-4.103 6.698-8.222-.019-.182-.618-6.473-.438-16.038 7.053 1.664 13.411 5.786 17.771 11.72l3.67 4.99c1.109 1.508 2.743 2.547 4.579 2.913 78.172 15.549 134.979 84.585 135.384 164.337l-144.079 144.08c-3.854 3.854-5.951 9.19-5.752 14.64.198 5.435 2.669 10.587 6.779 14.137 9.06 7.824 18.782 14.671 29.013 20.506-17.422 5.952-35.65 8.974-54.391 8.974-32.742 0-64.483-9.401-91.792-27.188-3.47-2.26-8.117-1.279-10.378 2.191-2.26 3.471-1.279 8.117 2.191 10.378 29.751 19.377 64.323 29.619 99.979 29.619 25.232 0 49.621-5.026 72.552-14.917 22.706 9.784 47.326 14.921 72.529 14.92 2.128 0 4.269-.037 6.404-.11 46.575-1.604 90.385-20.646 123.36-53.621 32.972-32.972 52.013-76.78 53.614-123.354 1.594-46.343-14.164-91.128-44.374-126.107zm-18.678 125.876h.099l17.503-.227c-1.313 31.032-13.008 61.699-35.088 86.288l-84.891-84.891 67.33-.79c4.142-.049 7.46-3.446 7.411-7.587-.048-4.112-3.396-7.412-7.497-7.412-.03 0-.061 0-.09 0l-66.729.783 84.466-84.466c21.318 23.74 32.956 53.147 34.918 83.075l-17.527.227c-4.143.054-7.456 3.455-7.402 7.597.053 4.109 3.4 7.403 7.497 7.403zm-127.61 11.823-1.405 119.781c-31.137-1.926-60.27-14.11-83.443-34.934zm14.996.324 84.522 84.522c-23.788 21.374-53.855 33.653-85.924 35.068zm160.674-12.433c-1.471 42.764-18.954 82.988-49.23 113.264-30.278 30.278-70.505 47.764-113.27 49.236-1.966.068-3.923.102-5.882.101-40.447-.001-79.277-14.384-109.905-40.835-1.322-1.142-1.565-2.578-1.593-3.332-.028-.763.113-2.229 1.369-3.485l7.374-7.374c28.172 25.586 64.392 39.591 102.807 39.591 40.93 0 79.37-15.898 108.238-44.767 30.278-30.279 45.183-70.193 44.736-109.965 0-.024.003-.048.003-.072 0-.023-.004-.046-.004-.069-.441-36.234-13.626-72.339-39.569-100.927l7.377-7.377c1.168-1.168 2.52-1.371 3.316-1.371.059 0 .115.001.168.003.754.027 2.189.271 3.332 1.593 27.73 32.112 42.197 73.232 40.733 115.786z"/><circle cx="164.19" cy="141.069" r="7.5"/><circle cx="202.68" cy="141.069" r="7.5"/><circle cx="144.945" cy="168.1" r="7.5"/><circle cx="183.435" cy="168.1" r="7.5"/></g></g></svg>