<svg id="Capa_1" enable-background="new 0 0 512.006 512.006" height="512" viewBox="0 0 512.006 512.006" width="512" xmlns="http://www.w3.org/2000/svg"><g><g><g><path d="m193.019 174.656c-.38 0-.762-.016-1.147-.047-7.728-.624-13.485-7.395-12.861-15.123 4.823-59.672-29.652-99.249-30.001-99.642-5.148-5.798-4.621-14.67 1.176-19.818 5.796-5.148 14.669-4.622 19.818 1.176 1.749 1.97 42.767 49.062 36.99 120.546-.592 7.343-6.735 12.908-13.975 12.908z" fill="#feb2a7"/></g><path d="m193.003 147.234c-61.958-53.407-194.985 1.876-184.977 117.392 11.123 128.387 122.259 188.245 166.727 207.195 11.661 4.97 24.839 4.97 36.5 0 44.468-18.951 155.604-78.808 166.726-207.195 10.009-115.516-123.018-170.799-184.976-117.392z" fill="#fdb441"/><g><path d="m227.864 129.633c54.521 12.013 106.478 61.214 100.086 134.993-10.595 122.295-111.934 182.408-159.962 204.217 2.393 1.087 4.655 2.079 6.765 2.979 11.661 4.97 24.839 4.97 36.5 0 44.468-18.951 155.604-78.808 166.727-207.196 8.384-96.774-83.613-151.257-150.116-134.993z" fill="#fe9901"/></g><g><path d="m459.051 404.132c-85.989 66.59-176.133 59.812-237.306 38.102-21.37-7.586-27.573-34.82-11.536-50.857l187.853-187.853c9.657-9.657 24.135-12.748 36.833-7.721 67.526 26.701 104.004 141.214 24.156 208.329z" fill="#fcf2eb"/><path d="m434.895 195.803c-12.379-4.901-26.437-2.067-36.083 7.024 58.188 35.796 84.359 138.98 10.209 201.305-42.311 32.766-85.626 47.76-126.003 51.961 53.055 5.41 115.571-5.139 176.032-51.961 79.849-67.115 43.371-181.628-24.155-208.329z" fill="#ffead8"/><path d="m245.822 355.763 111.676-111.676s25.368 53.814-3.481 87.386c-49.382 57.45-108.195 24.29-108.195 24.29z" fill="#d6694b"/><path d="m357.499 244.087-21.768 21.768c4.425 18.701 6.376 45.715-10.726 65.617-17.735 20.632-36.686 29.578-53.692 32.57 21.681 3.637 53.805 1.052 82.705-32.57 28.849-33.571 3.481-87.385 3.481-87.385z" fill="#c4573a"/></g><path d="m278.47 79.28c68.279 0 68.279 41.604 68.279 41.604s0 41.604-68.279 41.604c-47.122 0-73.088-41.604-73.088-41.604s25.966-41.604 73.088-41.604z" fill="#22b27f"/><path d="m278.47 79.28c-4.086 0-8.01.319-11.775.891 52.011 6.019 52.023 40.713 52.023 40.713s-.011 34.695-52.023 40.713c3.765.571 7.689.891 11.775.891 68.28 0 68.279-41.604 68.279-41.604s.001-41.604-68.279-41.604z" fill="#09a76d"/></g><path d="m510.201 286.8c-7.314-44.981-35.791-83.437-72.546-97.972-15.452-6.117-33.076-2.428-44.897 9.392l-187.853 187.853c-9.349 9.35-13.192 22.627-10.28 35.517 2.918 12.918 12.118 23.277 24.611 27.713 4.069 1.444 8.4 2.867 12.953 4.235-7.868 4.143-15.851 7.956-23.877 11.38-9.73 4.146-20.891 4.146-30.619 0-135.685-57.821-158.631-159.784-162.199-200.937-2.279-26.34 3.039-50.417 15.81-71.562 43.745-67.974 135.539-80.903 182.614-13.626 11.846 15.803 26.891 42.861 31.294 82.021 1.032 9.184 1.451 18.829 1.247 28.668-.087 4.142 3.201 7.568 7.342 7.654.054.001.106.002.159.002 4.069 0 7.41-3.256 7.495-7.344.219-10.5-.231-20.814-1.337-30.656-7.129-63.407-39.367-98.407-54.804-111.795 2.723-1.785 5.589-3.392 8.577-4.827 13.179 12.664 34.926 27.472 64.58 27.472 19.421 0 35.374-3.187 47.728-9.483 12.472 9.707 22.612 21.372 30.166 34.747 1.379 2.441 3.92 3.812 6.537 3.812 1.249 0 2.517-.312 3.682-.971 3.606-2.037 4.879-6.612 2.842-10.219-7.779-13.773-17.963-25.925-30.333-36.244 1.764-1.625 3.412-3.349 4.921-5.188 9.95-12.125 10.237-24.221 10.237-25.56s-.287-13.435-10.237-25.56c-12.821-15.621-34.873-23.542-65.544-23.542-33.321 0-56.663 18.698-69.078 32.041-10.62-40.991-32.622-66.281-33.783-67.593-3.819-4.303-9.086-6.861-14.826-7.204-5.749-.343-11.276 1.575-15.572 5.395-8.881 7.888-9.692 21.528-1.809 30.408.001.001.002.002.003.003.479.554 20.254 23.744 26.608 60.552-53.952-19.567-122.557 9.714-151.552 59.283-14.241 23.583-20.435 51.457-17.911 80.61 4.964 57.261 29.57 107.524 73.137 149.395 36.163 34.755 77 55.046 98.124 64.047 6.733 2.87 13.961 4.305 21.189 4.305 7.229 0 14.459-1.436 21.194-4.306 13.239-5.648 26.361-12.29 39.058-19.74 16.428 3.549 34.923 5.95 54.907 5.95 21.695 0 45.147-2.831 69.591-10.094 3.97-1.18 6.232-5.355 5.053-9.326-1.18-3.97-5.355-6.234-9.325-5.053-45.228 13.439-86.894 10.701-119.553 3.308-.118-.031-.237-.055-.356-.081-10.837-2.469-20.677-5.448-29.316-8.514-7.614-2.702-13.221-9.014-14.998-16.881-1.771-7.84.568-15.917 6.257-21.604l31.867-31.867c6.505 2.804 18.581 7.039 33.625 7.838 1.571.084 3.195.13 4.873.13 20.454 0 48.416-6.856 73.828-36.42 26.621-30.977 12.498-75.687 6.666-90.54l36.993-36.993c7.588-7.589 18.881-9.965 28.772-6.051 31.943 12.632 56.774 46.558 63.258 86.431 6.772 41.648-8.191 81.4-41.057 109.087-15.635 12.095-32.13 22.215-49.027 30.077-3.756 1.747-5.384 6.208-3.636 9.964s6.21 5.383 9.964 3.636c17.953-8.354 35.449-19.09 52.003-31.91.079-.062.157-.124.234-.188 37.09-31.176 53.975-76.035 46.326-123.075zm-289.088-158.417h116.376c-3.974 10.088-16.91 26.604-59.018 26.604-26.994.001-46.631-15.391-57.358-26.604zm57.357-41.603c42.107 0 55.044 16.516 59.018 26.604h-116.372c10.731-11.217 30.366-26.604 57.354-26.604zm-123.851-31.911c-2.393-2.696-2.145-6.838.558-9.237 1.302-1.157 2.986-1.738 4.714-1.634 1.743.104 3.342.881 4.496 2.182 1.265 1.429 30.217 34.695 34.992 87.172-2.192 1.343-4.322 2.769-6.373 4.289-2.188-1.624-4.463-3.132-6.801-4.548-4.728-46.527-30.049-76.456-31.586-78.224zm193.711 271.715c-18.728 21.788-40.91 32.281-65.929 31.118-9.442-.43-17.589-2.505-23.415-4.495l95.64-95.64c5.269 16.123 12.02 47.703-6.296 69.017z"/></g></svg>