<svg id="Capa_1" enable-background="new 0 0 511.987 511.987" height="512" viewBox="0 0 511.987 511.987" width="512" xmlns="http://www.w3.org/2000/svg"><g><g><path d="m322.193 439.217c40.576-29.064 64.645-75.911 64.645-125.822v-46.278c0-49.911-24.069-96.758-64.645-125.822-26.281-18.825-57.797-28.948-90.125-28.948h-69.798c-32.327 0-63.843 10.123-90.125 28.948-40.576 29.063-64.645 75.911-64.645 125.821v46.278c0 49.911 24.069 96.758 64.645 125.822 26.281 18.825 57.797 28.948 90.125 28.948h69.799c32.327 0 63.843-10.123 90.124-28.947z" fill="#fdb441"/><path d="m322.193 141.294c-26.281-18.825-57.797-28.948-90.125-28.948h-50.03c32.327 0 63.844 10.123 90.125 28.948 40.576 29.064 64.645 75.911 64.645 125.822v46.278c0 49.911-24.069 96.758-64.645 125.822-26.281 18.825-57.797 28.948-90.125 28.948h50.03c32.327 0 63.844-10.123 90.125-28.948 40.576-29.064 64.645-75.911 64.645-125.822v-46.278c0-49.91-24.069-96.758-64.645-125.822z" fill="#fe9901"/><g><path d="m462.615 385.829-36.997 36.997c-35.292 35.292-85.437 51.399-134.68 43.261-31.897-5.272-61.343-20.4-84.204-43.261l-10.118-10.118c-8.036-8.036-8.036-21.066 0-29.102l166.885-166.885c19.754-19.754 48.195-28.11 75.495-22.18 32.896 7.145 58.099 33.643 63.588 66.856 7.52 45.496-7.362 91.826-39.969 124.432z" fill="#ffead8"/><path d="m502.584 261.397c-5.489-33.212-30.692-59.711-63.588-66.856-14.31-3.108-28.932-2.284-42.455 2.042 29.141 9.308 50.954 34.202 56.013 64.813 7.519 45.496-7.362 91.826-39.969 124.433l-36.997 36.997c-23.21 23.21-52.845 38.12-84.423 43.295 49.17 8.052 99.215-8.057 134.452-43.295l36.997-36.997c32.608-32.606 47.49-78.936 39.97-124.432z" fill="#ffe3cb"/><path d="m383.085 347.758-37.001 37.001c-22.433 22.433-54.516 32.745-85.828 27.57-13.333-2.205-25.865-7.019-37.03-14.171l33.631-33.631c3.74-3.74 8.536-6.222 13.74-7.166 10.473-1.901 21.611-7.751 30.981-17.122 9.377-9.377 15.228-20.516 17.129-30.989.945-5.203 3.427-10 7.166-13.74l37.476-37.476c13.987-15.002 41.367-6.159 44.02 14.134 4.557 27.578-4.527 55.832-24.284 75.59z" fill="#fdb441"/><path d="m407.369 272.169c-2.603-19.907-28.988-28.778-43.196-14.95 4.291 3.703 7.378 8.795 8.183 14.95 4.557 27.578-4.528 55.832-24.285 75.589l-37.001 37.001c-14.384 14.384-32.737 23.774-52.309 27.304.498.09.994.184 1.495.266 31.312 5.174 63.395-5.138 85.828-27.57l37.001-37.001c19.757-19.758 28.841-48.012 24.284-75.589z" fill="#fe9901"/></g><path d="m275.77 99.336c-31.233-16.535-78.6-3.644-78.6-3.644s-47.367-12.891-78.601 3.644c-21.704 11.49-32.404 17.584-32.404 17.584 17.853 19.982 58.37 29.659 76.93 22.317 7.836 46.214 34.075 55.883 34.075 55.883s26.239-9.669 34.075-55.883c12.63 4.574 72.768-6.253 76.93-22.317-.001 0-10.701-6.094-32.405-17.584z" fill="#80d261"/><path d="m308.17 116.921c-4.16 16.06-64.3 26.89-76.93 22.32-7.83 46.21-34.07 55.88-34.07 55.88s-6.51-2.4-14.01-10.52c6.416-6.952 13.569-18.1 17.985-35.525 1.317-5.199 6.043-8.758 11.406-8.783 21.174-.098 64.097-9.893 67.589-23.372 0 0-10.7-6.09-32.4-17.58-8.19-4.33-17.49-6.65-26.76-7.7 16.28-1.58 37.9-1.25 54.79 7.7 21.7 11.49 32.4 17.58 32.4 17.58z" fill="#68ca44"/><g><path d="m197.574 114.037c-7.779 0-14.085-6.306-14.085-14.085v-42.17c0-7.779 6.306-14.085 14.085-14.085s14.085 6.306 14.085 14.085v42.17c0 7.779-6.306 14.085-14.085 14.085z" fill="#22b27f"/></g></g><g><path d="m509.984 260.173c-6.028-36.475-33.268-65.114-69.396-72.961-29.932-6.5-60.731 2.548-82.39 24.206l-166.885 166.885c-10.24 9.823-11.257 28.836 0 39.708 15.47 16.476 34.311 32.422 55.118 41.936-4.767.466-9.558.713-14.361.713h-69.8c-30.944 0-60.597-9.522-85.753-27.538-.076-.055-.154-.108-.232-.16-38.379-27.609-61.285-72.288-61.285-119.571v-46.27c0-47.284 22.904-91.962 61.283-119.572.08-.053.159-.107.237-.163 6.477-4.644 13.389-8.778 20.59-12.328 7.439 4.372 16.052 7.989 25.281 10.504 12.881 3.51 25.107 4.494 34.905 2.924 10.034 43.152 36.112 53.242 37.28 53.672 1.224-.107-.507.996 5.187 0 1.176-.433 27.56-10.642 37.45-54.448 16.132.819 43.906-4.607 60.608-12.361 6.949 3.466 13.664 7.506 20 12.039 12.998 9.314 24.323 20.599 33.662 33.541 1.466 2.032 3.76 3.112 6.088 3.112 1.52 0 3.055-.461 4.382-1.418 3.359-2.424 4.117-7.112 1.693-10.471-10.291-14.261-22.77-26.695-37.094-36.959-4.775-3.416-9.748-6.572-14.862-9.452 1.86-2.179 3.103-4.484 3.739-6.938.85-3.28-.605-6.723-3.55-8.399-.441-.251-11.047-6.278-32.601-17.69-18.552-9.822-41.642-10.358-60.12-8.432v-26.5c0-11.902-9.683-21.585-21.585-21.585s-21.585 9.683-21.585 21.585v26.576c-30.614-3.366-49.892 2.512-60.927 8.354-21.563 11.413-32.17 17.44-32.611 17.691-1.969 1.121-3.327 3.072-3.692 5.309s.3 4.518 1.81 6.208c.978 1.094 2.038 2.164 3.148 3.218-5.43 3.002-10.683 6.306-15.701 9.89-.082.054-.163.11-.243.167-42.437 30.406-67.772 79.725-67.772 131.926v46.27c0 52.201 25.335 101.519 67.772 131.926.081.058.163.114.246.169 27.668 19.742 60.252 30.175 94.252 30.175h69.8c19.271 1.368 37.968-8.644 57.646-2.174 8.771 1.45 17.574 2.161 26.334 2.161 42.684 0 84.245-16.89 114.872-47.518l36.997-36.997c34.234-34.235 49.959-83.191 42.065-130.96zm-318.996-202.391c0-3.631 2.954-6.585 6.585-6.585s6.585 2.954 6.585 6.585v42.169c0 3.631-2.954 6.585-6.585 6.585s-6.585-2.954-6.585-6.585zm-68.909 48.187c16.581-8.78 38.939-8.259 53.909-6.505v.488c0 11.902 9.683 21.585 21.585 21.585s21.585-9.683 21.585-21.585v-.576c14.769-1.655 36.76-2.059 53.101 6.593 10.81 5.723 18.907 10.118 24.279 13.068-9.752 7.562-52.659 16.409-62.747 13.151-2.091-.756-4.41-.546-6.33.573-1.92 1.12-3.245 3.034-3.617 5.226-5.554 32.779-20.57 45.021-26.667 48.731-6.16-3.747-21.141-16.002-26.694-48.732-.378-2.23-1.743-4.17-3.713-5.28s-4.337-1.271-6.439-.44c-15.709 6.213-44.822-2.25-61.24-13.941 5.347-2.928 13.013-7.077 22.988-12.356zm335.233 274.558-36.997 36.997c-33.501 33.501-81.408 48.891-128.153 41.165-30.535-5.047-58.241-19.281-80.125-41.165l-10.117-10.118c-4.064-4.132-5.722-12.649 0-18.496l166.885-166.885c14.187-14.186 33.082-21.875 52.631-21.875 5.301 0 10.652.565 15.968 1.72 30.081 6.534 52.761 30.379 57.781 60.75 7.107 43.006-7.051 87.084-37.873 117.907z"/><path d="m464.352 231.996c-8.222-8.222-18.576-13.873-29.941-16.342-20.21-4.393-41.008 1.72-55.632 16.345l-12.498 12.498-45.71 45.71c-.007.007-.013.015-.021.023-4.806 4.814-7.996 10.927-9.222 17.681-1.712 9.432-7.058 19.03-15.053 27.025-7.99 7.99-17.585 13.333-27.017 15.045-6.763 1.227-12.884 4.423-17.704 9.242l-33.631 33.631c-2.711 2.627-3.052 7.787 0 10.606 25.063 27.056 60.712 43.09 98.148 43.083 35.028 0 69.136-13.861 94.27-38.995 2.929-2.929 2.929-7.678 0-10.606-2.929-2.929-7.678-2.929-10.606 0-21.787 21.786-51.167 34.023-81.489 34.579 23.15-4.325 44.842-15.51 61.88-32.549l36.135-36.134c24.239-24.239 35.373-58.901 29.783-92.722-2.89-18.496-18.459-35.525-38.335-38.686 24.518-8.732 54.963 8.911 58.762 35.935 5.581 33.769-5.536 68.378-29.738 92.58l-12.198 12.198c-2.929 2.929-2.929 7.678 0 10.606 1.464 1.465 3.384 2.197 5.303 2.197s3.839-.732 5.303-2.197l12.198-12.198c27.614-27.614 40.298-67.103 33.931-105.632-2.075-12.544-7.924-23.93-16.918-32.923zm-192.415 132.743c12.407-2.252 24.817-9.07 34.945-19.198 10.133-10.133 16.953-22.546 19.205-34.952.68-3.746 2.44-7.126 5.09-9.776l37.476-37.476c10.283-10.095 28.32-5.192 31.317 10.054 4.162 25.189-4.133 51.007-22.188 69.063l-37 37.001c-20.731 20.73-50.374 30.254-79.301 25.474-9.161-1.515-17.872-4.337-26.003-8.416l26.683-26.683c2.65-2.651 6.031-4.411 9.776-5.091zm150.334-109.639c4.771 4.771 7.874 10.81 8.973 17.463 4.803 29.06-4.764 58.842-25.59 79.669l-36.135 36.134c-18.663 18.663-43.717 29.28-69.662 30.112 19.266-4.389 37.223-14.11 51.53-28.417l37-37.001c21.439-21.439 31.303-52.084 26.401-81.996-1.502-11.121-8.874-20.44-19.557-25.066 8.302-1.302 19.934 1.743 27.04 9.102z"/></g></g></svg>