<svg id="Capa_1" enable-background="new 0 0 512.019 512.019" height="512" viewBox="0 0 512.019 512.019" width="512" xmlns="http://www.w3.org/2000/svg"><g><g><path d="m277.216 458.929c-55.686 20.884-117.052 20.884-172.738 0-58.333-21.877-96.978-77.644-96.978-139.944v-51.908c0-62.301 38.645-118.067 96.978-139.944 27.843-10.442 57.106-15.663 86.369-15.663s58.526 5.221 86.369 15.663c58.333 21.877 96.978 77.643 96.978 139.944v51.908c0 62.3-38.644 118.067-96.978 139.944z" fill="#fd4755"/><path d="m277.216 127.133c-27.843-10.442-57.106-15.663-86.369-15.663-8.35 0-16.698.44-25.015 1.29 20.831 2.129 41.456 6.91 61.354 14.373 58.333 21.877 96.978 77.643 96.978 139.944v51.908c0 62.301-38.645 118.067-96.978 139.944-19.898 7.463-40.523 12.244-61.354 14.373 37.464 3.83 75.597-.951 111.384-14.373 58.333-21.877 96.978-77.643 96.978-139.944v-51.908c0-62.301-38.644-118.067-96.978-139.944z" fill="#fb2b3a"/><path d="m217.733 83.416s-8.422-31.548-26.886-46.007c-18.464 14.459-26.886 46.007-26.886 46.007-20.375-15.774-53.894-11.173-53.894-11.173 13.589 10.391 20.129 29.289 23.169 42.505 2.093 9.099 9.174 16.208 18.277 18.288 25.889 5.915 52.779 5.915 78.669 0 9.102-2.08 16.184-9.189 18.277-18.288 3.04-13.216 9.58-32.114 23.169-42.505-.001-.001-33.52-4.601-53.895 11.173z" fill="#fe646f"/><path d="m271.63 72.24c-13.59 10.39-20.13 29.29-23.17 42.51-1.04 4.55-3.34 8.6-6.51 11.78-3.17 3.17-7.22 5.47-11.77 6.51-6.23 1.42-12.51 2.5-18.83 3.23 2.93-3.09 5.03-6.96 6.03-11.27 2.95-12.84 12.09-40.72 25.07-51.82 15.32-2.84 29.18-.94 29.18-.94z" fill="#fd4755"/><g><path d="m460.719 394.106-36.705 36.705c-44.052 44.052-110.809 56.157-167.529 30.389-20.987-9.539-40.362-21.903-57.654-36.622-8.114-6.907-8.605-19.273-1.07-26.808l229.916-229.916c7.535-7.535 19.903-7.044 26.809 1.072 14.717 17.294 27.076 36.672 36.615 57.659 12.888 28.356 16.309 59.22 10.995 88.513-5.315 29.276-19.351 56.982-41.377 79.008z" fill="#ffead8"/><path d="m491.101 226.584c-9.538-20.987-21.898-40.365-36.615-57.659-6.906-8.115-19.274-8.607-26.809-1.072l-13.401 13.401c10.457 14.016 19.463 29.195 26.796 45.329 12.888 28.356 16.309 59.22 10.995 88.513-5.315 29.278-19.35 56.984-41.376 79.009l-36.705 36.705c-22.448 22.449-50.797 36.579-80.706 41.651 46.989 7.984 95.943-6.859 130.736-41.651l36.705-36.705c22.026-22.026 36.062-49.732 41.376-79.009 5.313-29.292 1.892-60.156-10.996-88.512z" fill="#ffe3cb"/><path d="m328.891 341.284 40.91 73.018c4.989 8.905.894 20.137-8.631 23.805-38.698 14.901-82.457 5.919-117.59-16.1-9.15-5.735-10.689-18.429-3.054-26.065l58.751-58.751c8.788-8.789 23.54-6.75 29.614 4.093z" fill="#fd4755"/><path d="m328.891 341.284 40.91 73.018c4.989 8.905.894 20.137-8.631 23.805-38.698 14.901-82.457 5.919-117.59-16.1-9.15-5.735-10.689-18.429-3.054-26.065l58.751-58.751c8.788-8.789 23.54-6.75 29.614 4.093z" fill="#fb2b3a"/><path d="m440.251 373.637s-12.213 12.208-22.884 22.87c-7.839 7.832-20.987 6.009-26.404-3.658l-45.971-82.05c-4.104-7.325-2.838-16.485 3.099-22.422l77.899-77.899c7.553-7.553 20.187-6.204 25.917 2.811 31.683 49.851 33.461 116.922-11.656 160.348z" fill="#fd4755"/><path d="m451.907 213.289c-4.574-7.196-13.541-9.49-20.817-6.288 3.603 6.354 6.938 12.886 9.982 19.583 12.888 28.356 16.309 59.22 10.995 88.513-5.315 29.278-19.35 56.984-41.376 79.009l-7.157 7.157c4.863.593 9.987-.912 13.834-4.756 10.671-10.661 22.884-22.87 22.884-22.87 45.116-43.426 43.338-110.497 11.655-160.348z" fill="#fb2b3a"/><g fill="#5a73cc"><circle cx="392.23" cy="304.682" r="15.548"/><circle cx="422.93" cy="299.696" r="15.548"/><circle cx="288.891" cy="369.565" r="15.548"/><circle cx="322.719" cy="429.888" r="15.548"/></g></g></g><g><path d="m497.929 223.481c-9.761-21.476-22.455-41.466-37.73-59.417-4.644-5.456-11.413-8.75-18.575-9.038-7.146-.28-14.18 2.454-19.25 7.523l-50.333 50.333c-17.815-50.492-63.177-87.919-115.338-100.206 2.81-10.566 8.587-26.146 19.481-34.477 2.405-1.839 3.469-4.945 2.695-7.873-.773-2.928-3.231-5.104-6.231-5.515-1.313-.18-28.781-3.77-50.765 7.218-4.175-11.242-12.696-29.787-26.411-40.526-2.717-2.127-6.533-2.127-9.248 0-13.715 10.74-22.235 29.285-26.41 40.526-21.983-10.987-49.452-7.398-50.765-7.217-3 .412-5.459 2.587-6.231 5.515-.773 2.928.29 6.033 2.695 7.873 10.895 8.332 16.671 23.912 19.481 34.479-7.822 2.107-15.579 4.594-23.146 7.429-30.061 11.274-55.614 31.181-73.898 57.568-18.286 26.386-27.95 57.301-27.95 89.404v51.9c0 32.101 9.663 63.018 27.945 89.412 18.28 26.381 43.835 46.285 73.901 57.561 28.514 10.692 58.79 16.065 89.08 16.065 24.103 0 48.212-3.414 71.443-10.247 17.926 6.855 36.774 10.34 55.801 10.34 9.377 0 18.799-.844 28.168-2.544 31.587-5.729 60.281-20.755 82.979-43.453l36.705-36.705c22.691-22.692 37.717-51.383 43.452-82.974 5.731-31.582 1.739-63.726-11.545-92.954zm-338.56-134.135c1.986 1.538 4.61 1.979 6.99 1.176s4.2-2.745 4.848-5.171c1.905-7.138 8.788-26.108 19.65-37.764 13.073 13.934 19.523 37.371 19.631 37.768.648 2.425 2.468 4.365 4.847 5.168 2.381.804 5.003.362 6.99-1.176 9.422-7.294 22.523-9.561 32.702-10.086-7.333 10.762-11.517 23.54-13.879 33.807-1.44 6.265-6.401 11.233-12.637 12.658-24.642 5.629-50.688 5.628-75.328 0-6.236-1.425-11.197-6.393-12.638-12.658-2.364-10.275-6.553-23.066-13.896-33.833 10.163.515 23.252 2.78 32.72 10.111zm335.348 224.411c-5.188 28.572-18.777 54.522-39.301 75.046l-36.705 36.705c-20.528 20.529-46.48 34.119-75.049 39.301-28.567 5.18-57.641 1.572-84.073-10.437-20.195-9.179-39.002-21.125-55.896-35.505-2.31-1.966-3.648-4.72-3.771-7.753-.122-3.037.994-5.893 3.143-8.041l33.603-33.603c2.929-2.929 2.929-7.678 0-10.606-2.93-2.929-7.678-2.929-10.607 0l-33.603 33.603c-5.068 5.069-7.811 12.085-7.523 19.249.288 7.161 3.581 13.93 9.036 18.574 14.358 12.222 30.018 22.783 46.69 31.515-44.302 9.417-91.011 6.055-133.546-9.896-27.194-10.198-50.307-28.2-66.839-52.058-16.536-23.873-25.276-51.837-25.276-80.871v-51.9c0-29.035 8.74-56.997 25.277-80.861 16.537-23.866 39.649-41.87 66.834-52.065 7.597-2.846 15.399-5.315 23.26-7.379 4.453 6.748 11.395 11.727 19.472 13.572 13.412 3.064 27.208 4.596 41.004 4.596 13.797 0 27.593-1.532 41.006-4.596 8.077-1.845 15.019-6.825 19.471-13.574 49.567 10.945 94.065 47.816 108.893 97.933l-109.32 109.32c-2.929 2.929-2.929 7.678 0 10.606 2.93 2.929 7.678 2.929 10.607 0l171.476-171.476c2.147-2.148 4.992-3.263 8.041-3.142 3.033.122 5.787 1.461 7.753 3.771 14.372 16.888 26.315 35.696 35.498 55.901 12.015 26.437 15.626 55.507 10.445 84.071z"/><path d="m335.435 337.618c-4.054-7.235-11.091-12.037-19.307-13.172-8.212-1.137-16.29 1.577-22.154 7.441l-58.751 58.75c-5.234 5.235-7.76 12.454-6.927 19.806.84 7.412 4.959 13.942 11.301 17.917 18.85 11.813 39.697 19.75 60.29 22.951 20.194 3.332 44.061 1.652 63.979-6.207 6.588-2.537 11.737-7.795 14.13-14.426 2.385-6.609 1.783-13.915-1.651-20.043zm-46.543 23.898c2.149 0 4.171.837 5.691 2.358 1.52 1.52 2.357 3.541 2.357 5.69s-.838 4.17-2.357 5.69h-.001c-1.52 1.52-3.541 2.357-5.69 2.357-2.15 0-4.171-.837-5.691-2.358-1.52-1.52-2.357-3.541-2.357-5.69 0-2.148.837-4.168 2.355-5.688l.006-.006c1.519-1.517 3.538-2.353 5.687-2.353zm28.136 74.063c-3.139-3.138-3.139-8.244-.001-11.382 1.521-1.521 3.542-2.357 5.691-2.357 2.15 0 4.171.837 5.69 2.357 3.139 3.138 3.139 8.244 0 11.382-1.598.737-4.178 4.954-11.38 0zm46.858-9.991c-.928 2.573-2.85 4.533-5.411 5.519-4.326 1.666-8.788 3.013-13.352 4.059 1.756-7.511-.262-15.732-6.106-21.576-4.354-4.353-10.141-6.75-16.298-6.75-6.156 0-11.944 2.397-16.298 6.75-6.098 6.098-8.045 14.788-5.867 22.554-17.939-2.993-36.069-9.888-52.991-20.494-2.449-1.535-4.039-4.048-4.361-6.895-.316-2.787.642-5.525 2.629-7.511l22.109-22.109c1.129 2.468 2.679 4.75 4.655 6.726 4.353 4.354 10.141 6.751 16.298 6.751 6.156 0 11.944-2.397 16.297-6.75 4.354-4.354 6.752-10.141 6.752-16.298s-2.398-11.944-6.751-16.297c-1.976-1.976-4.259-3.526-6.727-4.655l6.118-6.118c2.137-2.137 4.959-3.298 7.921-3.298.521 0 1.046.036 1.572.109 3.521.486 6.537 2.544 8.274 5.645l40.909 73.018c1.325 2.364 1.548 5.07.628 7.62z"/><path d="m440.488 198.219c-7.356-.808-14.572 1.726-19.802 6.956l-77.898 77.898c-8.274 8.274-10.06 21.183-4.34 31.392l45.972 82.051c6.933 12.907 26.641 17.107 38.249 5.297l9.321-9.315c2.93-2.928 2.932-7.677.003-10.606-2.929-2.931-7.678-2.93-10.606-.003l-9.32 9.314c-2.06 2.057-4.893 3.006-7.778 2.61-2.886-.399-5.358-2.086-6.782-4.628l-45.972-82.05c-2.451-4.375-1.687-9.907 1.86-13.453l77.899-77.899c1.993-1.994 4.746-2.965 7.553-2.652 2.782.306 5.235 1.831 6.729 4.183 13.772 21.67 21.554 46.971 21.909 71.243.377 25.735-7.375 49.462-22.42 68.617-2.559 3.258-1.991 7.973 1.266 10.531 3.258 2.557 7.973 1.992 10.531-1.266 17.189-21.886 26.05-48.894 25.621-78.102-.396-27.009-9.007-55.089-24.247-79.069-3.949-6.216-10.418-10.243-17.748-11.049z"/><path d="m445.979 299.696c0-6.157-2.398-11.944-6.751-16.297-8.602-8.726-25.639-9.482-34.364 2.006-8.938-5.86-21.082-4.868-28.932 2.98-8.985 8.986-8.985 23.608 0 32.595 8.952 8.778 25.291 9.515 34.365-2.006 3.721 2.449 8.074 3.771 12.633 3.771 6.157 0 11.944-2.397 16.298-6.75 4.352-4.355 6.751-10.142 6.751-16.299zm-48.058 10.677c-3.138 3.138-8.244 3.138-11.382 0s-3.138-8.244 0-11.382c1.569-1.569 3.63-2.354 5.691-2.354s4.122.785 5.69 2.354c3.139 3.138 3.139 8.244.001 11.382zm30.699-4.986c-1.52 1.52-3.54 2.357-5.69 2.357-2.149 0-4.171-.837-5.69-2.357-1.521-1.521-2.358-3.542-2.358-5.691s.838-4.17 2.357-5.69c1.521-1.521 3.542-2.357 5.691-2.357 2.15 0 4.171.837 5.691 2.357s2.357 3.541 2.357 5.69c.001 2.15-.837 4.171-2.358 5.691z"/><circle cx="440.85" cy="249.4" r="7.5"/><circle cx="415.765" cy="259.162" r="7.5"/><circle cx="400.05" cy="350.701" r="7.5"/><circle cx="426.635" cy="345.199" r="7.5"/><circle cx="326.28" cy="387.89" r="7.5"/><circle cx="284.68" cy="410.684" r="7.5"/></g></g></svg>