<svg id="Capa_1" enable-background="new 0 0 512 512" height="512" viewBox="0 0 512 512" width="512" xmlns="http://www.w3.org/2000/svg"><g><g><g><g><path d="m318.097 27.914c11.378-19.708 36.721-26.327 56.313-14.574 19.179 11.504 25.174 36.571 13.992 55.94l-73.544 127.38-20.919-12.078 26.995-46.756c3.807-6.594 1.95-14.927-4.182-19.44-.093-.069-.186-.138-.279-.207-12.486-9.383-16.877-26.465-10.45-40.699 2.372-5.253 5.871-9.549 10.046-12.799-5.019-11.471-4.713-25.092 2.028-36.767z" fill="#8dc637"/><path d="m388.405 69.279-73.544 127.382-16.956-9.79 68.612-118.84c11.182-19.367 5.186-44.43-13.991-55.941-2.524-1.511-5.137-2.72-7.801-3.636 9.786-2.14 20.384-.693 29.69 4.883 19.176 11.512 25.172 36.574 13.99 55.942z" fill="#82b732"/></g></g><g><g><path d="m448.455 128.4c11.378-19.708 4.439-44.964-15.535-56.056-19.553-10.858-44.259-3.516-55.441 15.853l-73.544 127.382 20.919 12.078 26.995-46.756c3.807-6.594 11.952-9.152 18.927-6.098.106.046.212.092.319.138 14.369 6.121 31.357 1.384 40.472-11.3 3.364-4.681 5.334-9.859 6.061-15.099 12.443-1.391 24.086-8.466 30.827-20.142z" fill="#99d53b"/><path d="m417.628 148.546c-.729 5.235-2.696 10.418-6.057 15.093-9.121 12.685-26.111 17.419-40.473 11.299-.109-.041-.213-.09-.322-.131-6.978-3.058-15.123-.506-18.933 6.094l-26.993 46.752-16.688-9.635 26.993-46.752c3.81-6.599 11.955-9.152 18.933-6.094.109.041.213.09.322.131 14.362 6.12 31.352 1.386 40.473-11.299 2.442-3.408 4.151-7.075 5.182-10.846.71-2.567 2.872-4.439 5.474-5.032 10.662-2.445 20.326-9.137 26.227-19.358 9.597-16.622 6.163-37.183-7.115-49.877 2.821.824 5.594 1.961 8.272 3.453 19.972 11.09 26.909 36.353 15.531 56.059-6.741 11.676-18.387 18.746-30.826 20.143z" fill="#8dc637"/><path d="m303.935 215.579 20.919 12.078 53.659-92.941c3.335-5.777 1.356-13.163-4.421-16.498-5.777-3.335-13.163-1.356-16.498 4.421z" fill="#bcea73"/></g><g><path d="m368.197 104.236c6.124-11.456 1.707-25.897-10.186-31.824-10.407-5.186-23.3-1.727-29.733 7.958-.043.064-.085.128-.127.193-2.117 3.255-6.058 4.903-9.765 3.749-16.115-5.014-34.117 1.574-42.91 16.804-8.507 14.734-5.698 32.887 5.719 44.423-1.897 9.517 2.321 19.594 11.193 24.716l.066.038c3.429 1.972 4.616 6.389 2.638 9.815l-37.752 65.389 21.992 12.697 88.882-153.948z" fill="#a3e440"/><path d="m257.339 245.496 21.992 12.697 60.246-104.349c3.506-6.073 1.426-13.839-4.648-17.345-6.073-3.506-13.839-1.425-17.345 4.648z" fill="#dbf2b4"/></g></g><g><path d="m147.042 385.296c9.607-22.094 25.468-67.139 37.514-88.003 25.213-43.671 49.832-79.286 64.217-94.666 6.309-6.745 15.872-9.325 24.735-6.726 7.745 2.272 18.295 6.429 31.454 14.026 12.168 7.025 20.438 13.438 25.988 18.619 7.024 6.557 9.448 16.676 6.291 25.752-7.049 20.265-22.31 60.9-42.288 95.504-44.14 76.453-54.65 91.353-77.356 118.688-30.478 36.691-73.126 45.928-109.638 24.848-36.512-21.08-49.022-67.767-27.942-104.279l8.782-15.21c1.834-3.176 6.646-2.259 7.174 1.37.031.211.062.425.095.64 3.913 25.609 40.643 33.196 50.974 9.437z" fill="#fee7c9"/><g fill="#ffd496"><path d="m110.69 427.301s-.087.033-.254.092c-22.152 7.816-42.643-15.829-31.455-36.484.335-.619.679-1.234 1.033-1.847l8.784-15.215c1.834-3.176 6.646-2.254 7.174 1.371.027.212.061.427.095.643 3.909 25.556 40.499 33.166 50.915 9.566-.954 2.331-14.294 33.821-36.292 41.874z"/><path d="m294.951 349.8c-44.14 76.452-54.646 91.354-77.36 118.692-30.473 36.69-73.122 45.924-109.631 24.846-8.464-4.887-15.641-11.148-21.401-18.344l.161.093c36.509 21.078 79.158 11.844 109.638-24.842 22.703-27.335 33.209-42.237 77.353-118.696 19.976-34.599 35.24-75.238 42.294-95.501 2.42-6.969 1.558-14.556-2.161-20.667 7.483 4.89 13.027 9.359 17.105 13.168 7.025 6.556 9.447 16.675 6.29 25.746-7.047 20.266-22.308 60.898-42.288 95.505z"/></g></g></g><g><path d="m454.592 83.268c-2.118-3.557-6.72-4.726-10.281-2.605-3.558 2.119-4.725 6.722-2.605 10.281 6.175 10.366 6.272 23.282.253 33.707-5.266 9.121-14.674 15.266-25.165 16.437-3.409.38-6.125 3.025-6.596 6.422-.591 4.261-2.18 8.215-4.723 11.754-7.068 9.836-20.291 13.527-31.439 8.778l-.253-.109c-1.611-.705-3.262-1.186-4.923-1.499l21.294-36.883c2.071-3.587.842-8.173-2.745-10.244-3.588-2.073-8.173-.842-10.244 2.745l-52.807 91.465c-2.398-1.737-4.923-3.464-7.586-5.175l67.2-116.394c6.763-11.714 19.71-18.369 32.988-16.95 4.116.439 7.814-2.542 8.253-6.66.44-4.119-2.542-7.814-6.661-8.253-6.473-.691-12.888-.053-18.924 1.738 5.838-20.682-2.432-43.558-21.362-54.913-11.2-6.718-24.324-8.616-36.955-5.344-12.634 3.272-23.185 11.299-29.709 22.599-6.714 11.628-8.222 25.602-4.326 38.334-3.355 3.431-6.066 7.415-8.089 11.896-.238.527-.453 1.067-.669 1.606-12.109 2.46-22.959 9.971-29.538 21.367-9.345 16.186-7.461 36.481 4.333 50.641-.787 11.503 4.953 22.616 15.124 28.626l-7.887 13.661c-1.664-.572-3.313-1.114-4.933-1.589-11.664-3.422-24.047-.049-32.322 8.799-15.533 16.607-41.139 54.305-65.234 96.039-8.377 14.51-18.213 39.499-26.891 61.547-4.067 10.334-7.909 20.096-11.006 27.216-4.588 10.551-15.098 10.05-18.207 9.647-8.047-1.046-16.881-6.779-18.477-17.221l-.088-.592c-.225-1.552-.746-2.987-1.503-4.255 1.767-2.851 4.932-4.709 8.437-4.709 4.142 0 7.499-3.358 7.499-7.499 0-4.142-3.358-7.499-7.499-7.499-3.495 0-6.85.752-9.911 2.089v-4.055c0-5.465 4.446-9.911 9.911-9.911 4.142 0 7.499-3.358 7.499-7.499 0-4.142-3.358-7.499-7.499-7.499-12.99 0-23.684 9.997-24.806 22.7-3.067-1.352-6.453-2.109-10.014-2.109-13.735 0-24.909 11.174-24.909 24.909 0 4.142 3.358 7.499 7.499 7.499s7.499-3.358 7.499-7.499c0-5.465 4.446-9.911 9.911-9.911 4.762 0 8.747 3.377 9.695 7.86-1.142.89-2.13 2.014-2.898 3.345l-8.782 15.21c-16.873 29.226-14.639 65.518 5.691 92.458 1.474 1.954 3.719 2.983 5.992 2.983 1.573 0 3.159-.493 4.511-1.513 3.306-2.495 3.964-7.197 1.469-10.503-16.695-22.123-18.53-51.925-4.674-75.924l4.402-7.625c5.345 12.967 17.707 20.161 29.112 21.643 1.755.228 3.485.318 5.187.294-4.766 5.666-10.534 10.737-17.102 13.14-3.889 1.423-5.888 5.73-4.465 9.62 1.112 3.039 3.984 4.924 7.043 4.924.856 0 1.726-.147 2.577-.459 25.309-9.262 39.685-43.663 40.691-46.14 3.195-7.353 7.07-17.198 11.172-27.621 8.486-21.561 18.105-45.998 25.924-59.541 13.684-23.701 27.78-45.974 40.101-63.598l5.27 3.042c1.181.682 2.47 1.006 3.743 1.006 2.592 0 5.112-1.346 6.501-3.751 2.071-3.587.842-8.173-2.745-10.244l-3.948-2.28c5.359-7.164 10.198-13.108 14.278-17.469 4.383-4.686 10.953-6.469 17.147-4.652 9.085 2.665 19.116 7.148 29.815 13.325 10.016 5.783 18.3 11.706 24.621 17.606 4.823 4.502 6.521 11.492 4.325 17.806-1.75 5.031-4.046 11.422-6.816 18.707l-48.795-28.172c-3.587-2.072-8.173-.843-10.244 2.745-2.071 3.587-.842 8.173 2.745 10.244l50.75 29.301c-1.527 3.768-3.142 7.661-4.849 11.651-1.63 3.808.136 8.215 3.944 9.845 3.808 1.629 8.215-.137 9.845-3.944 7.848-18.341 13.895-34.838 17.585-45.448 4.136-11.89.918-25.081-8.194-33.635l22.214-38.477c1.867-3.233 5.92-4.512 9.425-2.978l.387.167c17.556 7.479 38.372 1.665 49.501-13.823 2.869-3.992 4.963-8.332 6.257-12.953 12.974-2.991 24.322-11.284 31.035-22.913 8.732-15.126 8.595-33.857-.357-48.885zm-133.917-12.669c2.706-2.107 3.639-5.781 2.264-8.923-4.294-9.816-3.692-20.755 1.653-30.012 4.498-7.791 11.772-13.324 20.482-15.58 8.707-2.255 17.756-.946 25.48 3.687 15.471 9.28 20.565 29.808 11.355 45.759l-7.355 12.739c-2.988-5.386-7.531-9.745-13.196-12.568-13.849-6.903-30.756-2.38-39.325 10.521l-.166.253c-.329.506-.867.792-1.251.677-1.676-.522-3.362-.932-5.049-1.251 1.438-1.992 3.14-3.77 5.108-5.302zm4.003 73.26c7.485-12.965 3.027-29.603-9.938-37.089-3.587-2.071-8.173-.842-10.244 2.745s-.842 8.173 2.745 10.244c2.811 1.623 4.822 4.244 5.662 7.379s.409 6.41-1.214 9.222l-15.748 27.277c-5.731-3.421-8.701-10.071-7.393-16.633.487-2.444-.271-4.97-2.025-6.741-9.293-9.39-11.166-23.946-4.554-35.398 6.815-11.803 21.192-17.436 34.189-13.393 6.778 2.108 14.296-.696 18.298-6.85l.068-.104c4.318-6.501 13.164-8.872 20.141-5.396 3.872 1.93 6.723 5.246 8.028 9.339 1.309 4.103.914 8.449-1.111 12.237-.046.087-.091.174-.133.262l-57.596 99.759c-3.148-1.706-6.245-3.267-9.293-4.698z"/><path d="m403.219 91.262-2.994 1.662c-3.621 2.011-4.927 6.575-2.916 10.197 1.37 2.468 3.927 3.86 6.563 3.86 1.231 0 2.48-.304 3.633-.944l2.994-1.662c3.621-2.011 4.927-6.575 2.916-10.197-2.01-3.621-6.576-4.927-10.196-2.916z"/><path d="m307.926 325.459c-3.689-1.885-8.206-.419-10.088 3.271-3.136 6.144-6.292 11.972-9.381 17.322-2.372 4.109-4.64 8.028-6.823 11.789l-33.642-19.424c-3.587-2.073-8.173-.842-10.244 2.745s-.842 8.173 2.745 10.244l33.592 19.395c-12.772 21.83-22.111 37.24-30.017 49.431l-7.003-4.043c-3.587-2.072-8.174-.842-10.244 2.745-2.071 3.587-.842 8.173 2.745 10.244l6.136 3.542c-7.886 11.346-14.935 20.216-23.874 30.978-26.374 31.75-62.882 41.599-95.274 25.706-3.719-1.826-8.211-.29-10.036 3.429-1.824 3.718-.289 8.211 3.429 10.036 12.508 6.137 25.481 9.131 38.362 9.131 27.21 0 53.997-13.368 75.055-38.719 23.424-28.199 34.154-43.643 78.082-119.73 3.218-5.574 6.499-11.631 9.751-18.004 1.883-3.689.418-8.206-3.271-10.088z"/><g><path d="m187.143 467.65c-1.272 0-2.562-.324-3.743-1.006l-28.754-16.601c-3.587-2.071-4.816-6.657-2.745-10.244s6.657-4.817 10.244-2.745l28.754 16.601c3.587 2.071 4.816 6.657 2.745 10.244-1.389 2.406-3.91 3.751-6.501 3.751z"/></g><path d="m269.301 297.975c1.181.682 2.47 1.006 3.743 1.006 2.591 0 5.112-1.345 6.501-3.751 2.071-3.587.842-8.173-2.745-10.244l-39.942-23.061c-3.587-2.071-8.173-.843-10.244 2.745-2.071 3.587-.842 8.173 2.745 10.244z"/><path d="m206.18 358.34c-2.071 3.587-.842 8.173 2.745 10.244l36.197 20.898c1.181.682 2.47 1.006 3.743 1.006 2.592 0 5.112-1.346 6.501-3.751 2.071-3.587.842-8.173-2.745-10.244l-36.197-20.898c-3.587-2.072-8.174-.841-10.244 2.745z"/><path d="m185.853 386.622c-3.587-2.073-8.173-.842-10.244 2.745s-.842 8.173 2.745 10.244l18.254 10.539c1.181.682 2.47 1.006 3.743 1.006 2.591 0 5.112-1.346 6.501-3.751 2.071-3.587.842-8.173-2.745-10.244z"/></g></g></svg>