<svg id="Capa_1" enable-background="new 0 0 512 512" height="512" viewBox="0 0 512 512" width="512" xmlns="http://www.w3.org/2000/svg"><g><g><g fill="#07b27b"><path d="m435.083 210.836-87.163 11.608-98.722 77.319 186.982-85.111c2.099-.956 1.19-4.12-1.097-3.816z"/><path d="m271.205 158.078-3.704-87.86c-.097-2.306-3.371-2.652-3.948-.417l-51.352 198.932z"/></g><g><path d="m273.182 233.616 74.614-58.437 117.427-139.106c1.075-1.273.911-3.177-.365-4.248l-24.582-20.627c-1.271-1.066-3.165-.904-4.235.364l-120.689 142.97z" fill="#00c285"/></g><g fill="#07b27b"><path d="m280.147 220.555 155.274-183.94c1.07-1.268 2.964-1.431 4.235-.364l14.879 12.484 10.688-12.662c1.075-1.273.911-3.177-.365-4.248l-24.582-20.627c-1.271-1.066-3.165-.904-4.235.364l-120.689 142.97z"/><path d="m200.627 290.437-.008.01.005-.004z"/></g><g><path d="m480.922 113.663-24.48-20.542c-1.09-.914-2.671-.941-3.791-.064l-179.469 140.559-43.364 81.324 251.025-196.601c1.507-1.179 1.545-3.446.079-4.676z" fill="#05e39c"/></g><g><path d="m480.922 113.663-24.48-20.542c-1.09-.914-2.671-.941-3.791-.064l-179.469 140.559-18.559 34.805 197.03-154.312c1.12-.877 2.701-.85 3.791.064l14.83 12.444 10.57-8.278c1.505-1.179 1.544-3.446.078-4.676z" fill="#0ed290"/></g><g><g><path d="m355.237 8.207 24.48 20.542c1.09.914 1.391 2.467.721 3.722l-150.625 282.479-29.194-24.497 150.027-281.357c.9-1.688 3.126-2.119 4.591-.889z" fill="#05e39c"/></g><g><path d="m358.852 34.148c.9-1.688 3.126-2.119 4.591-.89l11.451 9.609 5.544-10.397c.669-1.255.369-2.808-.721-3.722l-24.48-20.542c-1.465-1.23-3.691-.798-4.591.89l-150.027 281.357 14.899 12.501z" fill="#0ed290"/></g></g><g><path d="m154.348 437.547c-.802-6.128-.967-12.305-.511-18.437.73-9.835 4.652-19.164 10.991-26.719l64.986-77.447-29.194-24.497-65.078 77.427c-6.365 7.573-14.91 13.058-24.505 15.467-6.028 1.513-12.213 2.42-18.408 2.732-17.349.875-34.262 9.33-45.361 24.897-17.531 24.589-13.859 57.896 8.529 78.162 25.049 22.674 63.673 19.845 85.194-5.802 11.106-13.236 15.434-29.902 13.357-45.783z" fill="#fff5c6"/></g><g><path d="m134.766 421.116c1.424-4.26 3.262-8.756 5.474-13.415 3.547-7.471 8.932-15.573 15.271-23.127l64.986-77.447-10.563-8.863-65.037 77.461c-6.361 7.577-13.43 14.3-20.188 19.089-4.246 3.008-8.399 5.619-12.373 7.796-11.127 6.096-24.363 17.637-36.197 32.586-18.692 23.614-26.863 46.985-19.228 54.872 8.542 8.824 33.591-5.397 55.112-31.044 11.108-13.235 19.053-26.867 22.743-37.908z" fill="#fef0ae"/></g><g><path d="m164.827 392.391 64.986-77.447-29.194-24.497-65.078 77.427c-6.365 7.573-14.91 13.058-24.505 15.467l42.8 35.769c.73-9.835 4.652-19.164 10.991-26.719z" fill="#fff9e2"/></g><g><path d="m135.541 393.423 55.434-65.953c5.327-6.338 14.782-7.161 21.124-1.839l5.133 4.307 12.58-14.992-29.194-24.497-65.078 77.427c-6.365 7.573-14.91 13.058-24.505 15.467l18.859 15.761c2.027-1.73 3.92-3.626 5.647-5.681z" fill="#fff5c6"/></g></g><g><path d="m113.519 205.165h-41.425c-1.662 0-3.01-1.348-3.01-3.01v-23.633c0-1.662 1.348-3.01 3.01-3.01h41.426c1.662 0 3.01 1.348 3.01 3.01v23.633c0 1.662-1.348 3.01-3.011 3.01z" fill="#05e39c"/></g><g><path d="m94.553 202.155v-23.633c0-1.662 1.348-3.01 3.01-3.01h-25.47c-1.662 0-3.01 1.348-3.01 3.01v23.633c0 1.662 1.348 3.01 3.01 3.01h25.47c-1.662 0-3.01-1.348-3.01-3.01z" fill="#0ed290"/></g><g><path d="m351.936 393.17h-41.426c-1.662 0-3.01-1.348-3.01-3.01v-23.633c0-1.662 1.348-3.01 3.01-3.01h41.426c1.662 0 3.01 1.348 3.01 3.01v23.633c0 1.662-1.348 3.01-3.01 3.01z" fill="#00c285"/></g><g><path d="m328.999 390.16v-23.633c0-1.662 1.348-3.01 3.01-3.01h-21.5c-1.662 0-3.01 1.348-3.01 3.01v23.633c0 1.662 1.348 3.01 3.01 3.01h21.5c-1.662 0-3.01-1.348-3.01-3.01z" fill="#07b27b"/></g><g><path d="m418.36 479.759h-41.426c-1.662 0-3.01-1.348-3.01-3.01v-23.633c0-1.662 1.348-3.01 3.01-3.01h41.426c1.662 0 3.01 1.348 3.01 3.01v23.633c0 1.662-1.347 3.01-3.01 3.01z" fill="#00c285"/></g><g><path d="m395.999 476.749v-23.633c0-1.662 1.348-3.01 3.01-3.01h-22.075c-1.662 0-3.01 1.348-3.01 3.01v23.633c0 1.662 1.348 3.01 3.01 3.01h22.075c-1.662 0-3.01-1.348-3.01-3.01z" fill="#07b27b"/></g><g><path d="m230.983 414.893 29.292 29.292c1.176 1.176 1.176 3.081 0 4.257l-16.711 16.711c-1.176 1.176-3.081 1.176-4.257 0l-29.292-29.292c-1.176-1.176-1.176-3.081 0-4.257l16.711-16.711c1.175-1.176 3.081-1.176 4.257 0z" fill="#05e39c"/></g><g><path d="m228.881 435.861c-1.176-1.176-1.176-3.081 0-4.257l9.406-9.406-7.305-7.305c-1.176-1.176-3.081-1.176-4.257 0l-16.711 16.711c-1.176 1.176-1.176 3.081 0 4.257l29.292 29.292c1.176 1.176 3.081 1.176 4.257 0l7.305-7.305z" fill="#0ed290"/></g><g><path d="m440.57 324.363-29.292 29.292c-1.176 1.176-3.081 1.176-4.257 0l-16.711-16.711c-1.176-1.176-1.176-3.081 0-4.257l31.421-31.421 18.84 18.84c1.175 1.175 1.175 3.081-.001 4.257z" fill="#05e39c"/></g><g><path d="m411.857 336.944c-1.176-1.176-1.176-3.081 0-4.257l20.647-20.647-10.774-10.774-31.421 31.421c-1.176 1.176-1.176 3.081 0 4.257l16.711 16.711c1.176 1.176 3.082 1.176 4.257 0l8.645-8.645z" fill="#0ed290"/></g><g><path d="m81.144 283.463-31.421 31.421-18.84-18.84c-1.176-1.176-1.176-3.081 0-4.257l29.292-29.292c1.176-1.176 3.081-1.176 4.257 0l16.711 16.711c1.176 1.176 1.176 3.082.001 4.257z" fill="#05e39c"/></g><g><path d="m73.464 271.526-21.62 21.62c-1.172 1.172-3.071 1.172-4.243 0l-9.039-9.039-7.68 7.68c-1.176 1.176-1.176 3.081 0 4.257l16.719 16.719c1.172 1.172 3.071 1.172 4.243 0l29.3-29.3c1.176-1.176 1.176-3.081 0-4.257z" fill="#0ed290"/></g><g><path d="m72.094 212.665h41.426c5.795 0 10.51-4.715 10.51-10.51v-23.633c0-5.795-4.715-10.51-10.51-10.51h-41.426c-5.795 0-10.51 4.715-10.51 10.51v23.633c-.001 5.795 4.714 10.51 10.51 10.51zm4.489-29.654h32.446v14.654h-32.446z"/><path d="m351.936 356.016h-41.426c-5.795 0-10.51 4.715-10.51 10.51v23.633c0 5.795 4.715 10.51 10.51 10.51h41.426c5.795 0 10.51-4.715 10.51-10.51v-23.633c0-5.795-4.715-10.51-10.51-10.51zm-4.49 29.654h-32.446v-14.654h32.445v14.654z"/><path d="m418.361 442.605h-41.426c-5.796 0-10.511 4.715-10.511 10.51v23.634c0 5.795 4.715 10.51 10.511 10.51h41.426c5.795 0 10.51-4.715 10.51-10.51v-23.634c-.001-5.795-4.715-10.51-10.51-10.51zm-4.491 29.654h-32.446v-14.654h32.446z"/><path d="m236.286 409.589c-4.098-4.096-10.765-4.097-14.864 0l-16.711 16.711c-4.098 4.098-4.098 10.766 0 14.863l29.292 29.292c2.049 2.049 4.74 3.074 7.432 3.074s5.383-1.025 7.432-3.074l16.709-16.71c1.986-1.985 3.08-4.625 3.08-7.433s-1.094-5.448-3.078-7.432zm5.149 47.086-22.943-22.943 10.362-10.362 22.943 22.943z"/><path d="m427.034 295.962c-1.407-1.407-3.314-2.197-5.304-2.197s-3.896.79-5.304 2.197l-31.422 31.422c-4.095 4.097-4.095 10.763.002 14.862l16.713 16.712c2.048 2.048 4.738 3.072 7.43 3.072s5.383-1.024 7.433-3.073l29.292-29.292c1.984-1.985 3.078-4.625 3.078-7.432 0-2.808-1.094-5.448-3.078-7.432zm-17.885 49.215-10.361-10.362 22.942-22.943 10.361 10.362z"/><path d="m49.722 321.136c2.688 0 5.378-1.023 7.425-3.07l29.307-29.307s.001 0 .001-.001c4.093-4.094 4.092-10.755-.001-14.848l-16.727-16.727c-4.095-4.093-10.755-4.093-14.848.001l-29.307 29.307c-4.093 4.093-4.094 10.754 0 14.849l16.726 16.726c2.047 2.047 4.735 3.07 7.424 3.07zm12.582-50.163 10.362 10.362-22.943 22.943-10.362-10.362z"/><path d="m485.744 107.918-24.482-20.543c-3.78-3.172-9.348-3.265-13.234-.222l-47.535 37.229 70.461-83.469c1.815-2.149 2.683-4.877 2.442-7.68-.241-2.804-1.561-5.343-3.716-7.152l-24.582-20.627c-4.427-3.715-11.059-3.145-14.789 1.271l-75.047 88.902 5.402-10.131c1.948-3.655.565-8.198-3.089-10.147-3.658-1.948-8.198-.565-10.147 3.089l-119.879 224.817-17.449-14.642 144.559-271.102 17.45 14.642-8.212 15.399c-1.948 3.655-.565 8.198 3.089 10.147 3.655 1.949 8.198.565 10.147-3.089l9.925-18.612c2.32-4.355 1.263-9.819-2.519-12.995l-24.482-20.543c-2.438-2.045-5.632-2.872-8.754-2.266-3.125.605-5.776 2.563-7.275 5.373l-66.49 124.693-2.545-60.356c-.199-4.748-3.772-8.556-8.497-9.056-4.731-.498-9.018 2.476-10.206 7.078l-51.128 198.065-10.784 20.224-64.578 76.833c-5.471 6.509-12.591 11.011-20.59 13.018-5.494 1.379-11.2 2.226-16.96 2.517-20.504 1.034-39.126 11.251-51.09 28.033-19.609 27.506-15.481 65.371 9.603 88.077 12.431 11.252 28.158 17.307 44.715 17.307 1.554 0 3.118-.054 4.685-.161 18.267-1.253 34.807-9.666 46.573-23.688 11.983-14.281 17.468-33.08 15.048-51.577-.73-5.578-.888-11.267-.468-16.909.608-8.197 3.81-15.961 9.257-22.453l12.431-14.814c2.663-3.173 2.249-7.903-.924-10.566-3.174-2.663-7.904-2.25-10.566.924l-12.431 14.814c-4.494 5.355-7.867 11.362-10.034 17.764l-23.541-19.674c5.935-3.242 11.273-7.604 15.775-12.961l60.256-71.69 17.708 14.859-25.215 30.051c-2.663 3.173-2.249 7.904.924 10.566 3.172 2.662 7.904 2.249 10.566-.924l29.532-35.195 18.065-14.149 186.167-84.74c4.325-1.968 6.512-6.711 5.199-11.277-1.312-4.566-5.687-7.427-10.393-6.799l-59.877 7.974 48.16-37.719c3.262-2.554 3.835-7.268 1.28-10.529s-7.269-3.833-10.528-1.28l-159.991 125.305 25.92-48.609 175.354-137.336 17.449 14.642-31.167 24.41c-3.261 2.554-3.834 7.268-1.279 10.529s7.268 3.833 10.529 1.28l35.525-27.825c2.507-1.963 3.975-4.914 4.029-8.097s-1.314-6.182-3.752-8.228zm-224.178-.415 2.06 48.849-28.435 53.326zm-211.991 358.549c-.206.588-.398 1.164-.58 1.731-8.019-16.548-6.858-36.698 4.379-52.46 9.287-13.027 23.732-20.958 39.632-21.76 5.426-.274 10.815-.978 16.073-2.084l3.081 2.574c-1.153.692-2.299 1.362-3.427 1.979-12.521 6.861-26.544 19.438-38.473 34.509-9.541 12.054-16.887 24.665-20.685 35.511zm93.581-46.094 2.997 2.505c-.184 5.37.065 10.755.758 16.057 1.876 14.342-2.375 28.918-11.666 39.99-9.123 10.871-21.946 17.394-36.109 18.365-6.109.421-12.116-.227-17.82-1.861 11.549-6.035 24.581-17.018 36.454-31.167 11.384-13.567 19.946-27.897 24.11-40.352.385-1.152.819-2.338 1.276-3.537zm-12.094-10.107c-1.299 3.05-2.453 6.029-3.408 8.887-3.529 10.556-11.32 23.482-21.375 35.466-16.743 19.954-33.833 30.689-42.061 30.982-1.007.033-1.641-.123-1.867-.303-.027-.022-.052-.046-.079-.068-2.359-2.605.117-20.162 19.748-44.963 10.729-13.555 23.093-24.732 33.92-30.664 2.724-1.493 5.511-3.184 8.324-5.017zm219.873-180.242 48.459-6.453-96.03 43.711zm-54.435-23.782 25.097-47.066 117.287-138.94 17.703 14.855-114.023 135.075z"/></g></g></svg>