<svg id="Capa_1" enable-background="new 0 0 511.99 511.99" height="512" viewBox="0 0 511.99 511.99" width="512" xmlns="http://www.w3.org/2000/svg"><g><g><path d="m50.12 255.658c0 43.68 17.098 85.625 47.635 116.857l108.624 111.096c27.22 27.839 72.012 27.839 99.232 0l108.624-111.096c30.537-31.232 47.635-73.177 47.635-116.857 0-92.315-74.836-167.151-167.151-167.151h-77.45c-92.313.001-167.149 74.837-167.149 167.151z" fill="#fd4755"/><path d="m294.72 88.508h-50.03c92.315 0 167.151 74.836 167.151 167.151 0 43.68-17.098 85.625-47.635 116.856l-108.625 111.096c-7.188 7.352-15.609 12.742-24.601 16.211 25.058 9.666 54.599 4.276 74.631-16.211l108.625-111.096c30.537-31.232 47.635-73.177 47.635-116.856 0-92.315-74.836-167.151-167.151-167.151z" fill="#fb2b3a"/><path d="m401.743 96.937c-63.182-34.975-145.748-17.21-145.748-17.21s-82.566-17.765-145.748 17.21c0 0 31.167 17.758 69.095 13.434 0 0-37.504 45.697-40.251 67.957 0 0 53.679-23.733 88.648-51.557 0 0 13.302 59.53 28.256 76.975 14.954-17.444 28.256-76.975 28.256-76.975 34.969 27.824 88.648 51.557 88.648 51.557-2.747-22.26-40.251-67.957-40.251-67.957 37.928 4.324 69.095-13.434 69.095-13.434z" fill="#57be92"/><g fill="#22b27f"><path d="m265.235 126.098c-5.292.315-9.769 4.033-11.057 9.175-2.412 9.624-6.789 25.885-12.198 40.642 4.196 11.45 9.013 21.996 14.015 27.831 14.954-17.444 28.256-76.975 28.256-76.975-1.936-1.387-11.575-1.115-19.016-.673z"/><path d="m401.743 96.937c-23.452-12.982-49.573-18.695-73.152-20.75 11.669 4.511 23.393 9.574 34.62 15.214 4.48 2.251 4.156 8.75-.507 10.592-10.187 4.025-26.608 8.997-45.671 9.055-4.788.015-7.492 5.499-4.602 9.317 7.794 10.298 19.595 26.832 26.654 41.232 19.068 10.21 33.814 16.731 33.814 16.731-2.747-22.26-40.251-67.957-40.251-67.957 37.928 4.324 69.095-13.434 69.095-13.434z"/></g><g><path d="m255.887 112.61c-7.635 0-13.824-6.189-13.824-13.824 0-2.547.425-62.68 37.429-88.769 6.241-4.397 14.865-2.907 19.265 3.333 4.399 6.24 2.907 14.865-3.333 19.264-25.013 17.634-25.712 65.691-25.712 66.171 0 7.635-6.19 13.825-13.825 13.825z" fill="#22b27f"/></g></g><g><path d="m418.219 132.167c-8.33-8.329-17.456-15.749-27.23-22.22 8.635-3.222 13.936-6.186 14.468-6.489 2.356-1.342 3.806-3.851 3.789-6.563-.017-2.711-1.495-5.203-3.867-6.516-26.659-14.759-59.454-22.382-97.474-22.657-.02 0-.037 0-.056 0-4.116 0-7.469 3.322-7.499 7.446-.03 4.142 3.304 7.524 7.445 7.554 28.365.205 54.263 4.968 75.892 13.872-11.934 4.198-30.148 8.606-50.192 6.325-3.035-.345-5.976 1.184-7.436 3.866s-1.148 5.982.789 8.344c7.518 9.164 24.257 31.282 33.062 48.739-18.358-9.083-48.764-25.283-70.985-42.966-2.022-1.61-4.731-2.063-7.166-1.204-2.437.86-4.259 2.914-4.823 5.435-2.986 13.349-11.639 46.392-20.94 64.704-9.301-18.312-17.954-51.355-20.94-64.704-.564-2.521-2.387-4.575-4.823-5.435-2.437-.86-5.144-.404-7.166 1.203-22.226 17.682-52.628 33.881-70.984 42.965 8.806-17.458 25.543-39.574 33.062-48.738 1.937-2.361 2.25-5.662.789-8.344-1.46-2.683-4.404-4.212-7.436-3.866-20.056 2.286-38.286-2.133-50.216-6.333 39.38-16.277 83.465-14.813 107.219-12.297-.892 8.014-.937 13.5-.937 14.497 0 11.758 9.566 21.324 21.324 21.324 11.759 0 21.325-9.566 21.325-21.267-.659-10.525 6.344-50.632 22.534-60.1 9.608-6.775 11.915-20.105 5.14-29.716-6.773-9.607-20.103-11.913-29.716-5.141-16.914 11.925-28.871 31.269-35.538 57.495-.703 2.766-1.306 5.465-1.828 8.071-28.186-3.049-84.696-4.816-131.192 20.927-2.372 1.313-3.851 3.805-3.867 6.517-.016 2.711 1.433 5.221 3.789 6.562.532.303 5.818 3.259 14.43 6.476-48.72 32.173-78.348 86.553-78.348 145.726 0 45.908 17.678 89.269 49.777 122.093l66.414 67.93c1.469 1.503 3.416 2.257 5.363 2.257 1.891 0 3.784-.711 5.243-2.137 2.962-2.896 3.015-7.644.12-10.606l-66.415-67.931c-29.342-30.006-45.502-69.642-45.502-111.606 0-58.518 31.706-111.9 82.911-140.009 6.95 1.49 14.69 2.587 22.977 2.844-11.837 15.835-29.796 42.208-31.853 58.919-.33 2.68.806 5.33 2.975 6.939 2.168 1.608 5.033 1.927 7.503.836 2.04-.902 46.407-20.647 80.992-45.538 4.583 18.049 14.276 51.96 25.71 67.132v14.627c0 4.142 3.358 7.5 7.5 7.5 4.143 0 7.5-3.358 7.5-7.5v-15.048c0-.154-.014-.304-.023-.455 11.151-15.569 20.565-48.548 25.061-66.255 34.578 24.889 78.953 44.635 80.993 45.537 2.47 1.093 5.337.772 7.503-.837 2.168-1.609 3.304-4.259 2.974-6.939-2.057-16.711-20.016-43.083-31.852-58.919 8.282-.257 16.019-1.354 22.966-2.843 13.264 7.292 25.428 16.391 36.159 27.123 30.155 30.146 46.763 70.236 46.763 112.886 0 41.965-16.159 81.601-45.503 111.607l-108.619 111.1c-11.742 12.009-27.46 18.623-44.257 18.623-16.798 0-32.516-6.614-44.258-18.623l-17.658-18.061c-2.895-2.962-7.645-3.015-10.606-.12-2.962 2.896-3.015 7.644-.12 10.606l17.658 18.061c14.588 14.92 34.115 23.137 54.983 23.137s40.395-8.217 54.983-23.137l108.619-111.1c32.1-32.825 49.777-76.185 49.777-122.094 0-46.655-18.168-90.513-51.156-123.491zm-134.408-116.019c1.106-.779 2.378-1.154 3.638-1.154 1.989 0 3.948.933 5.178 2.677 2.01 2.85 1.326 6.804-1.523 8.813-11.938 8.416-20.424 23.206-25.222 43.959-3.569 15.436-3.669 28.218-3.669 28.342 0 3.487-2.838 6.324-6.325 6.324s-6.324-2.837-6.324-6.324c0-.636.052-15.793 4.607-33.708 3.959-15.58 12.317-36.716 29.64-48.929z"/><path d="m128.196 228.912c.315 0 .634-.02.955-.061 4.109-.522 7.017-4.276 6.495-8.386l-1.912-15.048c-.522-4.109-4.277-7.016-8.386-6.495-4.109.522-7.017 4.276-6.495 8.386l1.912 15.048c.481 3.789 3.71 6.556 7.431 6.556z"/><path d="m191.313 198.863c-4.142 0-7.5 3.358-7.5 7.5v15.048c0 4.142 3.358 7.5 7.5 7.5s7.5-3.358 7.5-7.5v-15.048c0-4.142-3.358-7.5-7.5-7.5z"/><path d="m321.35 228.911c4.143 0 7.5-3.358 7.5-7.5v-15.048c0-4.142-3.357-7.5-7.5-7.5s-7.5 3.358-7.5 7.5v15.048c0 4.142 3.357 7.5 7.5 7.5z"/><path d="m384.467 228.912c3.721 0 6.949-2.768 7.431-6.556l1.911-15.048c.521-4.109-2.387-7.863-6.495-8.385-4.108-.515-7.863 2.386-8.386 6.496l-1.911 15.048c-.521 4.109 2.387 7.863 6.495 8.385.321.04.639.06.955.06z"/><path d="m92.045 257.288c-4.069.775-6.739 4.703-5.964 8.771l2.867 15.048c.685 3.595 3.83 6.098 7.359 6.098.465 0 .938-.043 1.412-.134 4.069-.775 6.739-4.703 5.964-8.771l-2.867-15.048c-.775-4.069-4.7-6.742-8.771-5.964z"/><path d="m161.326 287.205c.465 0 .938-.043 1.412-.134 4.069-.775 6.739-4.703 5.964-8.771l-2.867-15.048c-.775-4.069-4.703-6.742-8.771-5.964-4.069.775-6.739 4.703-5.964 8.771l2.867 15.048c.685 3.595 3.829 6.098 7.359 6.098z"/><path d="m223.486 257.156c-4.142 0-7.5 3.358-7.5 7.5v15.048c0 4.142 3.358 7.5 7.5 7.5s7.5-3.358 7.5-7.5v-15.048c0-4.142-3.358-7.5-7.5-7.5z"/><path d="m288.505 287.204c4.143 0 7.5-3.358 7.5-7.5v-15.048c0-4.142-3.357-7.5-7.5-7.5s-7.5 3.358-7.5 7.5v15.048c0 4.142 3.357 7.5 7.5 7.5z"/><path d="m350.665 287.205c3.528 0 6.674-2.503 7.358-6.098l2.867-15.048c.775-4.069-1.895-7.996-5.964-8.771-4.061-.774-7.995 1.895-8.771 5.964l-2.867 15.048c-.775 4.069 1.895 7.996 5.964 8.771.475.091.947.134 1.413.134z"/><path d="m414.272 287.071c.474.09.946.134 1.412.134 3.528 0 6.674-2.503 7.358-6.098l2.867-15.048c.775-4.069-1.895-7.996-5.964-8.771-4.06-.774-7.996 1.895-8.771 5.964l-2.867 15.048c-.775 4.069 1.895 7.996 5.965 8.771z"/><path d="m119.145 325.218 4.779 15.048c1.014 3.193 3.965 5.232 7.146 5.232.752 0 1.517-.114 2.272-.354 3.948-1.254 6.132-5.471 4.878-9.418l-4.778-15.048c-1.254-3.948-5.471-6.132-9.418-4.878-3.948 1.254-6.132 5.471-4.879 9.418z"/><path d="m189.466 315.679c-4.015 1.02-6.442 5.101-5.422 9.116l3.823 15.048c.862 3.395 3.914 5.655 7.264 5.655.611 0 1.232-.076 1.852-.233 4.015-1.02 6.442-5.101 5.422-9.116l-3.823-15.048c-1.02-4.013-5.099-6.442-9.116-5.422z"/><path d="m256.331 345.496c4.143 0 7.5-3.358 7.5-7.5v-15.048c0-4.142-3.357-7.5-7.5-7.5-4.142 0-7.5 3.358-7.5 7.5v15.048c0 4.142 3.358 7.5 7.5 7.5z"/><path d="m315.68 345.265c.62.158 1.24.233 1.853.233 3.349 0 6.4-2.26 7.264-5.655l3.823-15.048c1.02-4.014-1.408-8.096-5.423-9.116-4.011-1.021-8.096 1.407-9.116 5.422l-3.823 15.048c-1.021 4.015 1.407 8.096 5.422 9.116z"/><path d="m379.32 345.145c.755.24 1.52.354 2.271.354 3.181 0 6.133-2.04 7.146-5.232l4.778-15.048c1.254-3.948-.931-8.165-4.879-9.418-3.946-1.254-8.164.932-9.418 4.878l-4.778 15.048c-1.252 3.947.932 8.164 4.88 9.418z"/><path d="m159.426 399.686c1.323 2.604 3.958 4.104 6.692 4.104 1.143 0 2.303-.262 3.392-.815 3.692-1.876 5.165-6.391 3.289-10.084l-7.646-15.048c-1.876-3.691-6.388-5.163-10.084-3.289-3.692 1.876-5.165 6.391-3.289 10.084z"/><path d="m222.541 373.8c-4.109.522-7.017 4.276-6.495 8.386l1.912 15.048c.481 3.788 3.71 6.556 7.431 6.556.315 0 .634-.02.955-.061 4.109-.522 7.017-4.276 6.495-8.386l-1.912-15.048c-.523-4.108-4.277-7.019-8.386-6.495z"/><path d="m285.648 403.729c.321.041.64.061.955.061 3.721 0 6.949-2.768 7.431-6.556l1.912-15.048c.521-4.109-2.386-7.863-6.495-8.385-4.106-.521-7.863 2.386-8.386 6.495l-1.912 15.048c-.522 4.108 2.385 7.863 6.495 8.385z"/><path d="m342.48 402.975c1.089.554 2.248.815 3.392.815 2.733 0 5.369-1.5 6.692-4.104l7.646-15.048c1.876-3.692.403-8.208-3.289-10.083-3.692-1.877-8.207-.405-10.084 3.289l-7.646 15.048c-1.876 3.692-.404 8.207 3.289 10.083z"/><path d="m248.831 454.582c0 4.142 3.358 7.5 7.5 7.5 4.143 0 7.5-3.358 7.5-7.5v-15.048c0-4.142-3.357-7.5-7.5-7.5-4.142 0-7.5 3.358-7.5 7.5z"/></g></g></svg>