<svg id="Capa_1" enable-background="new 0 0 511.985 511.985" height="512" viewBox="0 0 511.985 511.985" width="512" xmlns="http://www.w3.org/2000/svg"><g><g><path d="m473.706 40.437h-36.818c-.005 0-.01-.001-.015-.001-.034 0-.067 0-.1 0-.006 0-100.253.001-100.253.001-7.219 0-13.071 5.852-13.071 13.071s5.852 13.071 13.071 13.071h35.053c-13.534 21.271-41.458 56.887-89.055 83.325-14.954 8.404-2.191 31.096 12.695 22.854 64.931-36.067 96.432-86.736 106.695-106.179h20.965c-2.705 25.302-11.662 60.455-21.839 83.897-6.72 15.663 17.022 26.102 23.98 10.409 11.582-26.681 21.428-65.951 24.109-94.306h24.584c7.219 0 13.071-5.852 13.071-13.071s-5.853-13.071-13.072-13.071z" fill="#dd7f66"/><path d="m486.774 53.507c0 7.22-5.85 13.07-13.07 13.07h-22.02c7.22 0 13.07-5.85 13.07-13.07s-5.85-13.07-13.07-13.07h22.02c7.22 0 13.07 5.851 13.07 13.07z" fill="#d6694b"/><path d="m395.542 148.815c-18.097 12.26-47.039 40.299-39.677 91.314 0 0-44.83 16.036-44.727 78.287 0 0-59.178 12.931-66.053 75.946 0 0-85.757 16.194-89.628 59.534-3.871 43.339 96.674 86.146 140.328 4.035 0 0 90.53 6.499 90.072-92.414 0 0 77.488-15.986 58.721-102.871 0 0 65.798-68.589-22.6-115.314-8.405-4.444-18.565-3.849-26.436 1.483z" fill="#d6694b"/><path d="m421.978 147.33c-8.405-4.443-18.565-3.848-26.436 1.485-.851.577-1.733 1.2-2.627 1.847 66.137 38.819 33.608 90.705 20.927 106.923-2.621 3.352-3.672 7.668-2.978 11.865 10.331 62.446-31.025 85.722-50.448 93.095-5.611 2.13-9.488 7.364-9.876 13.354-4.617 71.242-60.51 80.903-81.697 81.994-4.964.256-9.507 2.885-12.151 7.095-13.759 21.91-31.995 33.391-50.638 37.599 30.451 6.585 67.48-2.803 89.731-44.657 0 0 90.529 6.499 90.072-92.414 0 0 77.488-15.986 58.721-102.871-.001 0 65.797-68.589-22.6-115.315z" fill="#c4573a"/><path d="m297.916 160.92c9.319 31.656 18.401 102.469-80.252 116.675 0 0-36.67 87.651-121.717 31.338-13.039-8.634-18.473-25.141-12.868-39.74 9.263-24.126 33.805-55.918 98.809-52.057 0 0 29.451-78.848 93.207-74.607 10.708.711 19.791 8.096 22.821 18.391z" fill="#d6694b"/><path d="m297.914 160.914c-3.035-10.309-12.141-17.684-22.865-18.39-9.04-.595-17.388.484-25.062 2.767 6.132 3.153 10.886 8.731 12.916 15.628 9.079 30.841 17.933 98.851-72.849 115.468-4.491.822-8.389 3.598-10.599 7.593-6.23 11.261-21.728 34.156-47.864 41.498 59.75 15.006 86.073-47.883 86.073-47.883 98.66-14.207 89.569-85.029 80.25-116.681z" fill="#c4573a"/><g><path d="m107.707 160.374c-8.1 0-14.667-6.566-14.667-14.667 0-11.389 3.186-22.552 9.198-32.225l5.469-8.799 5.469 8.799c6.012 9.673 9.198 20.836 9.198 32.225 0 8.1-6.567 14.667-14.667 14.667z" fill="#bbec6c"/><g fill="#a2e62e"><path d="m68.327 65.304c-5.728 5.728-5.728 15.014 0 20.742 8.054 8.054 18.199 13.694 29.291 16.283l10.089 2.355-2.355-10.089c-2.589-11.091-8.229-21.237-16.283-29.291-5.727-5.728-15.014-5.728-20.742 0z"/><path d="m123.327 41.526c-5.728 5.728-5.728 15.014 0 20.742 8.054 8.054 18.199 13.694 29.291 16.283l10.089 2.355-2.355-10.089c-2.589-11.091-8.229-21.237-16.283-29.291-5.728-5.728-15.014-5.728-20.742 0z"/><path d="m180.742 26.514c-5.728 5.728-5.728 15.014 0 20.742 8.054 8.054 18.199 13.694 29.291 16.283l10.089 2.355-2.355-10.089c-2.589-11.091-8.229-21.237-16.283-29.291-5.728-5.728-15.015-5.728-20.742 0z"/><path d="m250.405 9.245c-7.142 3.821-9.835 12.709-6.014 19.851 5.373 10.043 13.447 18.382 23.312 24.076l8.972 5.179.671-10.338c.738-11.366-1.718-22.711-7.091-32.754-3.82-7.143-12.707-9.835-19.85-6.014z"/><path d="m29.507 170.235c-5.728-5.728-5.728-15.014 0-20.742 8.054-8.054 18.199-13.694 29.291-16.283l10.089-2.355-2.355 10.089c-2.589 11.091-8.229 21.237-16.283 29.291-5.728 5.728-15.015 5.728-20.742 0z"/></g><path d="m162.706 136.596c-8.1 0-14.667-6.566-14.667-14.667 0-11.389 3.186-22.552 9.198-32.225l5.469-8.799 5.469 8.799c6.012 9.673 9.198 20.836 9.198 32.225 0 8.1-6.567 14.667-14.667 14.667z" fill="#bbec6c"/><path d="m220.121 121.584c-8.1 0-14.667-6.566-14.667-14.667 0-11.389 3.186-22.552 9.198-32.225l5.469-8.799 5.469 8.799c6.012 9.673 9.198 20.836 9.198 32.225 0 8.101-6.567 14.667-14.667 14.667z" fill="#bbec6c"/><path d="m276.676 114.041c-8.1 0-14.667-6.566-14.667-14.667 0-11.389 3.186-22.552 9.198-32.225l5.469-8.799 5.469 8.799c6.012 9.673 9.198 20.836 9.198 32.225-.001 8.101-6.567 14.667-14.667 14.667z" fill="#bbec6c"/></g></g><g><path d="m473.704 74.078c11.343 0 20.57-9.228 20.57-20.57s-9.228-20.57-20.57-20.57h-17.842c-4.143 0-7.5 3.357-7.5 7.5s3.357 7.5 7.5 7.5h17.842c3.071 0 5.57 2.499 5.57 5.57s-2.499 5.57-5.57 5.57h-24.58c-3.869 0-7.104 2.943-7.467 6.795-2.066 21.883-8.639 50.77-16.802 74.523-3.398-1.707-6.998-2.79-10.655-3.258 7.636-22.051 13.876-48.728 16.13-69.76.228-2.116-.456-4.229-1.878-5.812-1.423-1.583-3.451-2.487-5.579-2.487h-20.97c-2.781 0-5.335 1.539-6.633 3.999-9.329 17.678-36.289 61.049-90.343 95.187-1.141-3.644-2.884-6.991-5.097-9.95 39.532-25.222 64.14-55.831 78.069-77.707 1.471-2.31 1.566-5.236.249-7.637-1.317-2.399-3.838-3.892-6.575-3.892h-35.05c-3.077 0-5.58-2.499-5.58-5.57s2.503-5.57 5.58-5.57h84.281c4.143 0 7.5-3.357 7.5-7.5s-3.357-7.5-7.5-7.5h-84.281c-10.139 0-18.568 7.373-20.254 17.033-8.252.068-23.054-.213-31.553.281 1.201-12.141-1.643-27.128-7.848-38.53-2.793-5.222-7.451-9.042-13.118-10.759s-11.664-1.123-16.884 1.669c-5.221 2.793-9.041 7.452-10.758 13.118-1.717 5.667-1.124 11.663 1.669 16.884 4.18 7.813 9.805 14.694 16.547 20.314-8.488 1.03-18.1 2.418-28.525 4.282l-.73-3.13c-2.909-12.464-9.231-23.837-18.283-32.889-7.579-7.84-22.532-9.041-31.349 0-4.187 4.188-6.492 9.754-6.492 15.674 0 5.921 2.306 11.487 6.492 15.675 4.818 4.818 10.299 8.854 16.248 12.023-7.548 1.921-15.432 4.131-23.529 6.679-2.362-12.171-9.426-25.846-18.785-35.038-4.187-4.188-9.753-6.493-15.675-6.493-5.92 0-11.486 2.306-15.674 6.492v.001c-4.187 4.187-6.492 9.753-6.492 15.673 0 5.921 2.306 11.487 6.492 15.675 6.011 6.011 13.05 10.809 20.748 14.213-8.652 3.502-17.351 7.421-25.957 11.786-4.432-15.948-14.097-38.715-34.117-40.062-5.92 0-11.486 2.306-15.674 6.492h-.001c-4.187 4.187-6.492 9.754-6.492 15.675.001 5.922 2.307 11.488 6.493 15.674 7.207 7.208 15.891 12.678 25.423 16.079-7.906 5.038-15.593 10.529-22.937 16.515l-8.417 1.964c-12.464 2.909-23.837 9.231-32.89 18.283-4.187 4.188-6.492 9.754-6.492 15.675 0 5.92 2.306 11.486 6.492 15.673v.001c4.188 4.187 9.754 6.492 15.675 6.492s11.488-2.306 15.674-6.492c9.051-9.05 15.373-20.423 18.283-32.889l1.77-7.58c4.236-3.426 8.594-6.682 13.052-9.775-2.051 6.574-3.116 13.449-3.116 20.412 0 12.223 9.944 22.167 22.167 22.167s22.167-9.944 22.167-22.167c.143-12.509-4.203-27.122-11.538-38.129 9.167-4.706 18.471-8.874 27.716-12.56-3.62 8.474-5.512 17.616-5.512 26.912 0 12.223 9.943 22.167 22.166 22.167s22.167-9.944 22.167-22.167c.12-11.954-3.859-26.142-10.726-36.825 10.772-3.343 21.147-6.076 30.781-8.303-4.576 9.352-6.974 19.637-6.974 30.117 0 12.223 9.944 22.167 22.167 22.167s22.167-9.944 22.167-22.167c0-12.57-3.452-24.858-9.975-35.593 11.287-1.919 21.542-3.263 30.259-4.2-5.286 9.91-8.064 20.967-8.064 32.25 0 12.223 9.944 22.166 22.167 22.166s22.167-9.943 22.167-22.166c0-12.075-3.182-23.892-9.214-34.32.417-.156 29.161-.059 29.817-.084 3.699 5.489 9.974 9.107 17.079 9.107h20.869c-14.421 19.841-36.818 44.045-69.751 64.16-3.716-1.795-7.791-2.911-12.049-3.194-28.634-1.893-55.207 11.414-76.868 38.515-11.308 14.146-18.441 28.455-21.732 35.846-28.241-.895-51.655 4.843-69.629 17.061-14.29 9.714-24.816 23.185-31.287 40.038-6.788 17.68-.173 38.153 15.729 48.682 20.201 13.377 39.586 20.12 57.774 20.12 3.306 0 6.573-.223 9.798-.67 16.153-2.235 30.861-9.944 43.715-22.913 2.916-2.941 2.895-7.69-.048-10.606-2.941-2.915-7.689-2.894-10.606.048-24.883 25.106-55.954 25.616-92.352 1.515-10.087-6.678-14.295-19.63-10.007-30.798 9.021-23.499 32.179-50.774 91.363-47.259 3.295.227 6.311-1.777 7.468-4.855.071-.188 7.271-19.11 21.77-37.14 18.672-23.22 40.163-34.204 63.917-32.615 7.497.498 13.976 5.733 16.123 13.026 4.777 16.229 10.472 47.069-5.065 71.27-12.167 18.951-35.403 31.018-69.062 35.864-4.1.591-6.944 4.393-6.354 8.493.591 4.101 4.401 6.934 8.493 6.354 38.158-5.495 64.922-19.83 79.545-42.608 14.567-22.689 13.945-49.288 10.364-68.793 56.177-34.127 85.846-78.275 97.722-99.54h7.986c-3.07 20.759-9.581 46.015-16.896 65.252-2.12.867-4.173 1.957-6.119 3.276 0 0 0 0-.001 0-18.769 12.716-48.713 41.433-43.572 93.032-4.894 2.597-12.355 7.35-19.738 15.126-10.533 11.093-22.965 30.681-24.273 61.981-6.206 2.051-16.618 6.243-27.401 13.896-14.725 10.45-32.855 29.459-37.991 61.487-19.759 4.538-86.607 22.957-90.372 65.099-2.025 22.689 18.847 45.797 49.631 54.945 8.562 2.544 17.372 3.812 26.08 3.812 10.186-.001 20.229-1.735 29.557-5.191 19.13-7.089 35.265-21.312 46.888-41.272 11.772-.109 42.181-2.647 65.329-24.294 17.549-16.411 26.892-39.933 27.812-69.98 10.784-3.43 33.788-13.04 48.558-35.716 12.475-19.154 16.112-42.933 10.83-70.721 7.416-8.835 27.109-35.654 22.17-66.269-3.141-19.473-15.498-36.391-36.786-50.43 8.259-23.236 14.927-50.99 17.791-74.034h17.858zm-219.761-58.22c1.917-1.293 7.114-1.404 9.7 2.938 4.44 8.302 6.606 17.593 6.304 26.979-7.975-4.957-14.501-11.915-18.942-20.217-1.865-3.485-.546-7.836 2.938-9.7zm-146.236 137.016c-3.952 0-7.167-3.215-7.167-7.167 0-9.413 2.473-18.628 7.167-26.762 4.694 8.134 7.167 17.349 7.167 26.762 0 3.952-3.215 7.167-7.167 7.167zm54.999-23.778c-3.951 0-7.166-3.215-7.166-7.167 0-9.414 2.473-18.628 7.166-26.762 4.694 8.134 7.167 17.349 7.167 26.762 0 3.953-3.215 7.167-7.167 7.167zm23.34-97.278c2.236-2.064 6.418-3.245 10.134 0 6.658 6.657 11.425 14.922 13.857 23.991-9.07-2.433-17.334-7.199-23.991-13.857-2.795-2.794-2.795-7.34 0-10.134zm-57.415 15.012c0-.001 0-.001 0 0 1.354-1.354 3.153-2.1 5.066-2.1 1.914 0 3.714.745 5.068 2.1 6.656 6.656 11.424 14.921 13.855 23.99-9.069-2.432-17.333-7.198-23.99-13.856-2.794-2.794-2.794-7.34.001-10.134zm-57.1 28.844c0-1.914.746-3.714 2.1-5.067h.001c1.396-1.397 3.231-2.096 5.067-2.096 1.835 0 3.67.698 5.066 2.096 6.657 6.656 11.424 14.92 13.856 23.99-9.07-2.432-17.335-7.198-23.991-13.855-1.353-1.354-2.099-3.152-2.099-5.068zm-26.586 89.258c-1.354 1.354-3.153 2.099-5.067 2.099s-3.714-.745-5.067-2.099c0 0 0 0 0-.001-2.795-2.794-2.795-7.34 0-10.134 6.657-6.658 14.921-11.425 23.99-13.856-2.432 9.07-7.199 17.335-13.856 23.991zm175.176-50.847c-3.952 0-7.167-3.215-7.167-7.167 0-9.413 2.473-18.628 7.167-26.762 4.694 8.134 7.167 17.349 7.167 26.762 0 3.952-3.215 7.167-7.167 7.167zm56.555-7.544c-3.952 0-7.167-3.215-7.167-7.166 0-9.413 2.473-18.628 7.167-26.762 4.694 8.134 7.167 17.349 7.167 26.762 0 3.951-3.215 7.166-7.167 7.166zm183.342 94.312c4.779 29.297-20.605 56.34-20.854 56.6-1.727 1.8-2.445 4.339-1.919 6.776 5.461 25.277 2.807 46.467-7.888 62.979-15.902 24.555-44.746 30.906-45.018 30.963-3.497.722-6.001 3.81-5.984 7.381.132 28.407-7.618 50.151-23.033 64.628-23.82 22.369-58.663 20.289-59.001 20.271-2.96-.219-5.767 1.34-7.159 3.96-11.824 22.241-34.315 42.751-65.125 42.748-6.965 0-14.36-1.049-22.148-3.363-23.583-7.008-40.334-23.874-38.962-39.232 2.756-30.86 61.248-48.6 83.55-52.83 3.244-.613 5.706-3.274 6.064-6.557 2.586-23.709 13.364-42.542 32.035-55.977 14.257-10.259 28.044-13.43 28.162-13.456 3.449-.754 5.905-3.81 5.899-7.34-.093-55.843 38.16-70.624 39.753-71.213 3.358-1.201 5.406-4.603 4.896-8.133-6.786-47.026 19.931-72.834 36.461-84.033h-.001c6.237-4.803 17.518-3.41 25.221 2.584 20.588 12.275 32.369 26.799 35.051 43.244z"/><circle cx="247.024" cy="183.637" r="7.5"/><circle cx="228.784" cy="205.137" r="7.5"/><circle cx="327.484" cy="374.527" r="7.5"/><circle cx="327.484" cy="401.557" r="7.5"/><circle cx="246.02" cy="464.909" r="7.5"/></g></g></svg>