<svg id="Capa_1" enable-background="new 0 0 512 512" height="512" viewBox="0 0 512 512" width="512" xmlns="http://www.w3.org/2000/svg"><g><g><g><g><g><path d="m236.252 261.888c-77.655-44.833-164.026-40.615-201.747 24.722-34.831 60.33 19.584 103.392 40.324 147.681 12.838 27.415 16.756 49.426 17.848 62.546.483 5.804 6.628 9.352 11.896 6.868 11.908-5.615 32.928-13.227 63.09-15.817 48.725-4.184 113.226 21.409 148.057-38.921 37.72-65.338-1.813-142.246-79.468-187.079z" fill="#bc83df"/><path d="m315.721 448.965c-34.833 60.334-99.331 34.74-148.057 38.924-30.162 2.591-51.182 10.199-63.096 15.815-5.267 2.485-11.408-1.06-11.89-6.864-.458-5.51-1.409-12.563-3.317-20.942 11.978-5.056 30.628-10.907 55.974-13.084 47.005-4.036 109.221 20.648 142.818-37.545 31.46-54.491 7.207-117.339-48.37-161.301 75.31 45.104 113.08 120.663 75.938 184.997z" fill="#ae6ad8"/><path d="m315.721 448.965c-34.833 60.334-99.331 34.74-148.057 38.924-30.162 2.591-51.182 10.199-63.096 15.815-5.267 2.485-11.408-1.06-11.89-6.864-1.094-13.126-5.015-35.133-17.853-62.55-13.078-27.923-39.542-55.358-48.582-86.94 16.872-18.529 49.02-44.556 83.992-24.365 45.599 26.326.548 81.091 40.536 104.177 22.987 13.271 59.488-22.461 93.846-19.982 55.672 4.018 71.705 40.743 71.104 41.785z" fill="#fff1e2"/><path d="m315.721 448.965c-34.833 60.334-99.331 34.74-148.057 38.924-30.162 2.591-51.182 10.199-63.096 15.815-5.267 2.485-11.408-1.06-11.89-6.864-.458-5.51-1.409-12.563-3.317-20.942 11.978-5.056 30.628-10.907 55.974-13.084 47.005-4.036 109.221 20.648 142.818-37.545.805-1.394 1.572-2.79 2.302-4.188 19.237 11.958 25.651 27.216 25.266 27.884z" fill="#fee7c9"/></g></g><g><g><path d="m484.675 122.006c8.759-15.171 3.561-34.57-11.61-43.328-7.645-4.414-16.362-5.279-24.252-3.115-4.984-6.471-11.508-11.911-19.379-15.68-26.822-12.842-58.977-1.51-71.82 25.313-1.016 2.121-1.863 4.278-2.58 6.453-13.452-1.322-27.066 5.123-34.264 17.59-9.811 16.993-3.989 38.722 13.005 48.533 13.887 8.017 30.933 5.59 42.057-4.837 2.226 1.515 4.593 2.882 7.096 4.08 24.845 11.896 54.253 3.039 68.662-19.647 12.79 2.301 26.213-3.459 33.085-15.362z" fill="#2db181"/><path d="m484.673 121.999c-6.876 11.909-20.289 17.666-33.085 15.367-14.409 22.689-43.811 31.543-68.664 19.65-2.5-1.202-4.867-2.568-7.086-4.079-11.131 10.42-28.175 12.858-42.06 4.841-10.841-6.259-17.134-17.374-17.729-29.016 1.382 1.154 2.854 2.22 4.44 3.174 11.73 7.077 25.854 6.567 36.755-.016 3.929-2.376 8.784-2.41 12.93-.424l.067.039c22.79 10.906 49.416 4.368 64.789-14.304 2.439-2.969 6.064-4.795 9.913-4.85 11.804-.17 23.184-6.922 28.53-18.761 1.862-4.129 2.762-8.508 2.751-12.853 12.695 9.482 16.564 27.176 8.449 41.232z" fill="#158f5e"/></g></g><g><g><path d="m353.15 34.337c-2.701-17.308-18.922-29.15-36.23-26.448-8.722 1.361-16.052 6.158-20.837 12.794-7.941-1.911-16.435-2.052-24.927-.047-28.943 6.834-46.865 35.836-40.032 64.778.54 2.289 1.234 4.499 2.041 6.643-11.303 7.413-17.858 20.974-15.639 35.198 3.026 19.388 21.195 32.651 40.582 29.626 15.843-2.472 27.592-15.06 29.709-30.159 2.683-.218 5.384-.639 8.085-1.276 26.809-6.33 44.147-31.68 41.129-58.385 11.403-6.236 18.238-19.144 16.119-32.724z" fill="#a3e440"/><path d="m295.903 125.441c-2.699.643-5.401 1.068-8.085 1.287-2.12 15.088-13.87 27.682-29.712 30.153-15.214 2.375-29.683-5.292-36.666-18.077 3.694.72 7.537.852 11.429.325 13.564-1.852 24.223-11.081 28.594-23.037 1.583-4.328 5.324-7.436 9.81-8.485l.09-.024c24.582-5.797 41.205-27.602 41.461-51.781.048-3.853 1.721-7.544 4.683-10.007 9.077-7.546 13.696-19.932 10.432-32.504-.492-1.925-1.171-3.768-2.009-5.512 13.613 1.765 24.997 12.307 27.217 26.554 2.122 13.58-4.71 26.494-16.117 32.721 3.018 26.706-14.321 52.067-41.127 58.387z" fill="#8dc637"/></g></g></g></g><g><path d="m139.608 308.587c-2.071 3.587-.842 8.174 2.745 10.245l19.367 11.182c1.182.682 2.471 1.006 3.743 1.006 2.592 0 5.113-1.346 6.502-3.752 2.071-3.587.842-8.174-2.745-10.245l-19.367-11.182c-3.589-2.07-8.175-.84-10.245 2.746z"/><path d="m91.561 381.757c2.592 0 5.113-1.346 6.502-3.751 2.071-3.587.842-8.174-2.745-10.245l-14.756-8.519c-3.589-2.073-8.175-.842-10.245 2.745-2.071 3.587-.842 8.174 2.745 10.245l14.756 8.519c1.182.681 2.471 1.006 3.743 1.006z"/><path d="m476.815 72.182c-7.698-4.444-16.461-6.115-25.118-4.868-5.343-5.936-11.725-10.7-19.023-14.195-30.509-14.606-67.215-1.672-81.824 28.838-.321.67-.633 1.356-.934 2.054-2.071.079-4.128.312-6.158.685.861-4.452 1.242-9.046 1.078-13.717 11.776-8.554 18.008-23.164 15.724-37.798-1.615-10.351-7.164-19.452-15.625-25.629-8.462-6.177-18.821-8.69-29.171-7.073-8.783 1.371-16.655 5.567-22.612 11.972-7.887-1.269-15.845-.973-23.72.886-15.947 3.765-29.474 13.516-38.088 27.455s-11.284 30.399-7.52 46.346c.171.723.358 1.453.563 2.186-11.035 9.621-16.565 24.388-14.271 39.09 2.017 12.927 9.63 23.612 19.981 29.99-.13.524-.267 1.045-.393 1.571-8.038 33.576-6.861 64.755-3.507 87.998-15.058-7.521-30.395-13.309-45.764-17.251-4.01-1.026-8.1 1.389-9.128 5.402-1.029 4.012 1.39 8.099 5.401 9.128 18.774 4.814 37.546 12.597 55.795 23.133 37.267 21.516 65.647 50.793 79.912 82.437 3.381 7.5 5.916 14.999 7.628 22.455l-59.92-34.595c-3.59-2.072-8.175-.842-10.245 2.745-2.071 3.587-.842 8.174 2.745 10.245l69.977 40.401c.582 14.08-1.887 27.869-7.397 41.067-3.6-4.598-8.879-10.16-16.304-15.446-14.637-10.421-32.718-16.475-53.741-17.992-17.744-1.285-35.462 6.35-51.092 13.082-15.669 6.75-30.467 13.125-39.543 7.885-14.712-8.494-15.085-21.571-14.475-42.203.608-20.557 1.365-46.14-26.062-61.975-26.254-15.158-55.386-9.539-83.096 15.625-1.2-13.027 1.454-26.76 10.11-41.754 11.012-19.074 26.823-33.061 46.317-41.446l51.929 29.981c1.182.682 2.471 1.006 3.743 1.006 2.592 0 5.113-1.346 6.502-3.751 2.071-3.587.842-8.174-2.745-10.245l-40.169-23.191c11.13-2.479 23.143-3.435 35.888-2.793 4.178.204 7.66-2.978 7.867-7.114.208-4.137-2.977-7.659-7.113-7.868-24.533-1.233-46.835 2.882-66.307 12.233-20.679 9.93-37.132 25.302-48.903 45.689-28.279 48.98-2.534 87.584 20.18 121.644 3.593 5.386 6.985 10.474 10.197 15.62 1.422 2.279 3.867 3.53 6.369 3.53 1.356 0 2.73-.368 3.964-1.139 3.515-2.193 4.585-6.819 2.392-10.334-3.331-5.337-6.946-10.758-10.442-16-10.429-15.637-20.586-30.868-26.01-46.847 31.235-32.492 56.208-28.871 71.826-19.854 19.668 11.356 19.158 28.588 18.569 48.54-.586 19.796-1.249 42.233 21.968 55.637 15.597 9.004 33.754 1.182 52.977-7.099 14.741-6.349 29.989-12.913 44.079-11.898 42.768 3.087 59.144 26.348 63.257 33.675-5.827 9.251-12.446 16.092-19.699 21.101l-42.55-24.566c-3.589-2.071-8.175-.843-10.245 2.745-2.071 3.587-.842 8.174 2.745 10.245l33.961 19.607c-19.095 6.509-41.088 5.091-63.799 3.623-13.638-.883-27.74-1.794-40.727-.678-30.965 2.659-52.791 10.444-65.648 16.506-.099.047-.397.19-.792-.038-.394-.227-.421-.56-.43-.668-.909-10.937-3.776-28.572-12.274-50.473-1.498-3.861-5.841-5.778-9.705-4.279-3.861 1.498-5.777 5.843-4.279 9.705 7.849 20.23 10.482 36.338 11.309 46.291.432 5.175 3.377 9.816 7.879 12.416 2.448 1.413 5.189 2.126 7.936 2.126 2.304 0 4.612-.501 6.755-1.512 11.746-5.539 31.784-12.66 60.533-15.129 11.865-1.02 24.79-.183 38.476.702 40.858 2.642 87.158 5.634 115.434-43.346 19.043-32.983 20.419-71.36 3.876-108.06-14.059-31.189-40.41-60.098-74.884-82.41 6.264-5.809 19.18-14.866 42.828-20.644 44.492-10.87 62.26-44.501 62.996-45.928 1.892-3.673.45-8.171-3.216-10.077-3.668-1.907-8.19-.474-10.108 3.184-.151.29-15.618 29.059-53.233 38.249-18.003 4.399-30.773 10.639-39.616 16.526 6.71-15.683 18.604-38.529 37.851-60.734 9.187-10.599 19.111-20.025 29.737-28.3 3.179 3.819 7.065 7.138 11.581 9.746 6.774 3.912 14.207 5.826 21.581 5.826 8.769 0 17.453-2.708 24.841-7.984 1.064.589 2.147 1.147 3.241 1.672 4.903 2.347 10.107 4.034 15.464 5.016 4.067.747 7.982-1.952 8.728-6.026s-1.951-7.982-6.026-8.729c-4.051-.742-7.983-2.017-11.688-3.79-2.122-1.017-4.181-2.2-6.116-3.517-2.903-1.975-6.787-1.672-9.349.73-8.927 8.369-22.571 9.937-33.176 3.814-2.625-1.515-4.92-3.401-6.856-5.556 11.026-7.316 22.737-13.494 35.119-18.515 4.786.24 23.614 1.812 45.895 12.013 1.012.463 2.073.683 3.117.683 2.844 0 5.564-1.626 6.824-4.38 1.725-3.766.069-8.217-3.697-9.941-7.749-3.548-15.096-6.148-21.73-8.067 15.05-3.596 30.914-5.75 47.583-6.421 4.139-.167 7.358-3.657 7.192-7.796-.167-4.138-3.649-7.35-7.796-7.192-14.324.577-28.172 2.222-41.502 4.898 3.863-2.861 8.404-5.784 13.698-8.534 3.675-1.909 5.107-6.437 3.197-10.113-1.911-3.676-6.437-5.108-10.113-3.198-20.936 10.877-31.96 24.194-35.849 29.616-10.578 3.577-20.76 7.878-30.498 12.922-6.214 3.219-12.256 6.741-18.12 10.551-.863-4.524-.614-9.296.893-13.907 4.837-4.423 8.93-9.587 12.129-15.279 5.175-3.128 11.249-4.536 17.289-3.945 3.483.347 6.756-1.782 7.856-5.114.659-1.998 1.387-3.818 2.223-5.565 11.036-23.05 38.771-32.822 61.816-21.787 6.607 3.164 12.218 7.703 16.675 13.491 1.858 2.414 4.989 3.464 7.927 2.657 6.297-1.727 12.871-.882 18.518 2.377 11.565 6.677 15.541 21.518 8.864 33.083-5.091 8.818-15.238 13.536-25.263 11.732-3.004-.538-6.025.789-7.658 3.36-4.149 6.533-9.937 11.961-16.736 15.698-3.63 1.995-4.955 6.555-2.961 10.185 1.366 2.484 3.933 3.889 6.58 3.889 1.221 0 2.46-.299 3.605-.929 7.607-4.18 14.259-9.962 19.456-16.874 14.552.733 28.561-6.734 35.967-19.562 10.813-18.732 4.374-42.765-14.354-53.578zm-251.878 53.917c-1.692-10.844 3.152-21.744 12.341-27.77 2.934-1.924 4.142-5.625 2.907-8.91-.74-1.972-1.316-3.845-1.762-5.729-2.845-12.048-.827-24.483 5.681-35.014s16.727-17.897 28.775-20.742c3.538-.835 7.096-1.252 10.651-1.252 3.611 0 7.22.431 10.799 1.292 2.967.71 6.059-.437 7.839-2.907 3.816-5.294 9.466-8.763 15.908-9.769 6.395-.995 12.79.554 18.014 4.368 5.225 3.814 8.651 9.435 9.65 15.826 1.569 10.061-3.376 20.103-12.308 24.988-2.672 1.462-4.195 4.395-3.853 7.422 1.057 9.352-.777 18.433-4.824 26.303-.056.104-.109.209-.16.316-6.052 11.549-16.901 20.434-30.417 23.625-2.289.541-4.634.911-6.968 1.1-3.5.284-6.334 2.958-6.821 6.435-1.698 12.118-11.336 21.901-23.437 23.79-2.98.464-5.923.433-8.751-.021 8.235-25.906 21.711-49.889 40.268-71.693l17.386 1.668c.244.023.486.035.726.035 3.819 0 7.085-2.904 7.457-6.784.396-4.123-2.626-7.786-6.749-8.182l-6.07-.583c4.208-4.228 8.621-8.366 13.242-12.408 3.118-2.727 3.435-7.465.708-10.583-2.729-3.118-7.468-3.434-10.583-.707-10.155 8.882-19.368 18.205-27.647 27.941.408-5.273 1.409-10.686 3.442-15.157 1.714-3.771.047-8.217-3.725-9.932-3.772-1.713-8.217-.046-9.932 3.724-6.503 14.306-5.14 32.842-4.25 40.175-12.147 17.563-21.508 36.308-28 56.142-4.94-4.2-8.461-10.112-9.537-17.007zm86.044 15.305c-12.12 9.216-23.36 19.769-33.608 31.593-18.38 21.206-30.404 42.679-37.903 59.107-1.664-19.55-1.207-43.15 4.709-68.143 2.741.552 5.559.85 8.426.849 2.196 0 4.424-.169 6.66-.519 16.921-2.641 30.295-14.718 34.788-30.813 1.199-.209 2.391-.454 3.572-.733 3.809-.899 7.452-2.15 10.914-3.694.203 4.236 1.035 8.396 2.442 12.353z"/></g></g></svg>