<svg id="Capa_1" enable-background="new 0 0 512 512" height="512" viewBox="0 0 512 512" width="512" xmlns="http://www.w3.org/2000/svg"><g><g><g><path d="m321.6 340.31c-9.92 27.26-63.19 32.89-118.98 12.58-1.57-.57-3.12-1.15-4.66-1.75v-.01c-15.191-15.902-16.759-30.226-16.759-44.496 0-26.01 14.504-46.277 38.129-58.454 6.33 1.66 12.76 3.66 19.22 6.01 55.79 20.31 92.97 58.87 83.05 86.12z" fill="#df8a57"/><path d="m187.67 311.89c0 14.27 3.74 27.66 10.29 39.25-53.18-20.71-88.03-57.88-78.39-84.36 8.77-24.1 51.43-31.3 99.76-18.6-19.24 14.6-31.66 37.7-31.66 63.71z" fill="#d97c41"/></g><g><path d="m501.56 396.08c-13.29 36.52-55.42 45.8-106.27 36.16 0 0-3.153-3.786-3.763-3.916-2.278-2.354-2.812-1.316-5.416-3.977-20.467-20.916-48.718-50.643-48.718-78.801 0-34.99 19.485-70.045 62.537-82.516 2.16.7 4.32 1.45 6.5 2.24 9.08 3.3 18.44 8.04 27.6 13.87 0 0 3.087 9.351 5.47 11.032s8.81-.962 8.81-.962c36.68 28.54 65.73 72.57 53.25 106.87z" fill="#858586"/><path d="m360.83 350.54c0 28.706 10.191 54.958 27.068 75.146 1.784 2.134-8.678 2.954-8.678 2.954-9.48-2.43-19.17-5.46-28.96-9.02-7.44-2.71-14.52-5.68-21.21-8.86 0 0-2.392-5.936-4.483-7.017-2.439-1.261-9.067-.033-9.067-.033-46.88-26.56-69.98-64.37-58.26-96.56 14.31-39.32 60.56-59.95 116.15-50.66 0 0 3.364 7.407 5.83 7.928s8.96-4.798 8.96-4.798c3.88.99 7.8 2.12 11.75 3.41-23.94 21.17-39.1 52.52-39.1 87.51z" fill="#767678"/></g><path d="m87.138 395.275-.005-91.182c-.001-20.824 20.695-35.315 40.262-28.192l34.98 12.734c7.786 2.834 11.8 11.444 8.965 19.23-3.778 10.378-15.254 15.729-25.633 11.952l-16.867-6.138c-3.261-1.187-6.71 1.228-6.71 4.699l.001 85.475c0 12.612-7.888 23.877-19.739 28.191l-22.229 8.091c-7.41 2.697-15.603-1.124-18.3-8.534-2.173-5.969-.14-12.656 4.986-16.406l16.194-11.849c2.573-1.883 4.095-4.881 4.095-8.071z" fill="#eaaa83"/><path d="m170.469 427.739 31.181-85.685c7.121-19.569 31.525-26.108 47.477-12.721l28.515 23.93c6.347 5.326 7.174 14.79 1.848 21.137-7.1 8.46-19.714 9.564-28.175 2.464l-13.75-11.537c-2.659-2.231-6.725-1.141-7.912 2.12l-29.233 80.32c-4.313 11.852-15.579 19.74-28.191 19.74h-23.656c-7.886 0-14.278-6.392-14.278-14.278 0-6.352 4.196-11.94 10.297-13.712l19.27-5.595c3.061-.889 5.516-3.186 6.607-6.183z" fill="#eaaa83"/><g><path d="m199.5 215.5c0 26.39-18.29 48.79-43.67 56.83-36.09-1.392-67.075-35.29-67.075-67.83 0-19.15 16.974-35.946 35.454-48.36 3.62-.42 7.27-.64 10.94-.64 35.501 0 64.351 26.86 64.351 60z" fill="#e4996d"/><path d="m155.83 272.33c-6.49 2.06-13.45 3.17-20.68 3.17-40.45 0-78.66-26.99-99.44-44.76-9.37-8.02-9.37-22.46 0-30.48 18.9-16.16 52.2-39.94 88.5-44.12-12.27 12.52-19.86 29.85-19.86 49 0 32.54 21.93 59.83 51.48 67.19z" fill="#df8a57"/></g><path d="m250.93 334.97 118.13-84.14c3.69-2.63 7.95-3.9 12.18-3.9 13.855.487 16.975 8.23 20.99 19.84l66.88 168.87c1.66 5.18 5.35 7.71 9.47 7.71l13.89.01c2.92 0 5.63 1.05 7.73 2.81 2.11 1.77 3.61 4.26 4.11 7.13 1.3 7.35-4.34 14.1-11.81 14.12l-26.76.08c-12.32.04-23.41-7.45-27.97-18.9l-56.313-141.454c-1.326-3.33-5.622-4.225-8.166-1.701l-80.211 79.555c-6.43 6.37-14.77 9.52-23.1 9.52-9.33 0-18.63-3.95-25.15-11.73-12.3-14.67-9.49-36.71 6.1-47.82z" fill="#df8a57"/></g><g><path d="m109.502 191.001c-4.142 0-7.5 3.358-7.5 7.5v12c0 4.142 3.358 7.5 7.5 7.5s7.5-3.358 7.5-7.5v-12c0-4.143-3.358-7.5-7.5-7.5z"/><path d="m505.018 440.421c-3.511-2.941-7.967-4.562-12.542-4.562l-13.896-.01c-.375 0-1.309 0-2.074-1.811 15.505-7.532 26.286-19.409 32.104-35.396 6.723-18.49 3.407-40.418-9.589-63.413-2.038-3.606-6.614-4.879-10.22-2.839-3.605 2.038-4.877 6.613-2.839 10.219 7.512 13.292 15.093 32.913 8.551 50.906-4.282 11.768-12.18 20.653-23.525 26.497l-31.575-79.725c3.611-13.566 6.285-27.704 7.987-42.2 6.689 5.488 13.054 11.488 18.776 17.724 1.479 1.612 3.5 2.429 5.527 2.429 1.812 0 3.629-.653 5.069-1.974 3.052-2.801 3.255-7.545.454-10.597-9.369-10.209-20.326-19.836-31.683-27.837-12.093-8.532-24.732-15.313-36.55-19.61-.748-.272-1.486-.535-2.209-.789-3.766-9.116-9.722-17.448-25.28-17.998-.088-.003-.176-.005-.265-.005-5.958 0-11.676 1.83-16.532 5.292l-3.707 2.641c-31.774-2.718-60.042 4.161-80.706 18.584-7.358-4.534-15.256-8.709-23.545-12.443-3.775-1.702-8.217-.019-9.918 3.757-1.702 3.776-.02 8.217 3.757 9.918 6.119 2.757 12.001 5.767 17.574 8.992-7.904 8.044-14.026 17.582-17.97 28.415-1.699 4.668-2.774 9.468-3.223 14.364-8.192-4.203-17.758-5.296-26.832-2.864-11.811 3.164-21.357 11.911-25.537 23.399l-.689 1.894c-10.624-4.557-20.502-9.828-29.339-15.639 6.274-3.068 11.323-8.481 13.816-15.309 2.052-5.649 1.785-11.76-.754-17.205-2.541-5.45-7.053-9.582-12.698-11.633l-6.301-2.295c15.671-5.106 28.896-15.174 37.534-28.192 7.368 1.051 14.948 2.621 22.595 4.685.654.177 1.312.261 1.958.261 3.307 0 6.334-2.203 7.236-5.548 1.08-3.999-1.288-8.116-5.287-9.195-6.533-1.763-13.032-3.194-19.42-4.278 2.43-6.765 3.748-14.006 3.748-21.531 0-35.681-29.622-64.984-66.975-67.346l-1.758-14.733c-2.37-19.858-12.165-37.808-27.578-50.542l-53.41-44.16c-3.194-2.64-7.921-2.191-10.56 1.001s-2.191 7.92 1.001 10.56l53.413 44.162c12.431 10.269 20.329 24.743 22.239 40.756l1.59 13.324c-1.016.103-2.03.22-3.041.352l-.177-.344c-9.22-17.955-24.495-32.267-43.011-40.3l-68.245-29.61c-3.802-1.648-8.218.095-9.866 3.895s.095 8.217 3.895 9.866l68.248 29.61c14.144 6.136 26.006 16.695 33.758 29.963-31.984 8.561-59.922 29.125-75.685 42.607-6.136 5.248-9.655 12.88-9.654 20.939 0 8.059 3.519 15.69 9.654 20.938 13.586 11.62 36.218 28.503 62.689 38.425-8.507 6.869-13.896 17.396-13.896 29.227l.01 91.189c0 .791-.386 1.546-1.027 2.016l-16.19 11.84c-5.587 4.086-8.923 10.659-8.923 17.583 0 2.539.44 5.042 1.313 7.448 3.218 8.831 11.595 14.329 20.498 14.329 2.465 0 4.97-.421 7.417-1.31l22.226-8.098c14.76-5.369 24.676-19.53 24.676-35.239v-81.901l9.729 3.541c13.416 11.63 30.37 21.916 49.417 30.005l-25.355 69.674c-.271.748-.89 1.327-1.65 1.548l-19.26 5.587c-4.516 1.303-8.553 4.092-11.358 7.842-2.813 3.746-4.363 8.389-4.363 13.074 0 12.01 9.771 21.78 21.78 21.78h23.66c15.696 0 29.857-9.915 35.238-24.675l26.018-71.495c1.467 3.133 3.341 6.088 5.596 8.777 7.676 9.16 18.938 14.413 30.898 14.413 7.37 0 14.448-1.974 20.63-5.671 15.953 12.139 35.127 22.326 57.087 30.319 28.778 10.474 56.26 16.175 79.879 16.603l3.226 8.104c5.721 14.363 19.386 23.625 34.835 23.625h.126l26.758-.08c5.778-.016 11.219-2.566 14.926-6.999s5.256-10.238 4.252-15.908c-.788-4.519-3.16-8.634-6.681-11.59zm-464.431-215.381c-2.799-2.394-4.404-5.871-4.404-9.539s1.605-7.146 4.404-9.54c15.232-13.028 42.642-33.224 73.064-40.358l.679 1.323c1.33 2.588 3.956 4.075 6.678 4.075 1.153 0 2.324-.267 3.42-.83 2.662-1.367 4.159-4.106 4.071-6.911 2.211-.172 4.429-.261 6.652-.261 31.347 0 56.85 23.551 56.85 52.5s-25.503 52.5-56.85 52.5c-38.576.002-75.806-26.915-94.564-42.959zm111.963 88.49c-1.451 0-2.892-.256-4.275-.758l-16.863-6.138c-3.827-1.396-8.105-.837-11.444 1.5-3.342 2.337-5.337 6.167-5.337 10.246v85.47c0 9.425-5.949 17.921-14.807 21.144l-22.222 8.097c-3.515 1.276-7.414-.545-8.69-4.047-.272-.751-.411-1.533-.411-2.323 0-2.157 1.038-4.204 2.777-5.476l16.194-11.843c4.489-3.288 7.168-8.566 7.168-14.122l-.01-91.189c0-12.195 9.532-22.08 21.702-22.504.393-.014.777-.057 1.152-.129 1.855.317 3.719.589 5.592.813.398.203.821.373 1.264.506.159.047.321.108.493.171l34.977 12.742c1.882.684 3.385 2.06 4.231 3.875.847 1.817.936 3.857.254 5.734-1.797 4.923-6.517 8.231-11.745 8.231zm280.843-25.85c-.837 9.45-2.101 18.756-3.782 27.856l-15.386-38.85c6.321 3.018 12.788 6.724 19.168 10.994zm-169.104 22.036c10.265-28.197 39.125-45.773 76.205-47.749l-78.26 55.742c.421-2.717 1.106-5.385 2.055-7.993zm-34.307 46.876c-.038.295-.071.591-.102.887-3.39 1.292-6.018 3.948-7.278 7.396l-29.229 80.316c-3.229 8.858-11.726 14.809-21.143 14.809h-23.66c-3.738 0-6.78-3.042-6.78-6.78 0-1.478.469-2.884 1.366-4.078.881-1.179 2.096-2.018 3.523-2.429l19.275-5.591c5.342-1.554 9.665-5.603 11.563-10.827l31.18-85.681c2.545-6.996 8.13-12.113 15.322-14.04 6.087-1.63 12.32-.705 17.547 2.519-6.314 6.284-10.444 14.565-11.584 23.499zm122.845 55.98c-6.589-2.398-12.968-5.043-19.081-7.903 19.802-26.484 34.463-55.784 43.7-87.327l27.933 70.168c-6.108 11.957-13.246 23.572-21.276 34.62-10.106-2.469-20.578-5.664-31.276-9.558zm47.28 12.916c4.458-6.453 8.632-13.075 12.497-19.827l8.904 22.367c-6.83-.401-13.986-1.253-21.401-2.54zm95.832 32.81c-.505.604-1.625 1.617-3.462 1.622l-26.761.08h-.075c-9.271 0-17.471-5.558-20.903-14.174l-56.312-141.458c-1.562-3.91-4.953-6.755-9.073-7.61s-8.358.404-11.343 3.367l-40.46 40.13c-2.941 2.917-2.961 7.666-.044 10.607 2.918 2.94 7.667 2.96 10.606.043l18.354-18.204c-8.855 23.219-20.994 44.99-36.277 65.03-6.364-3.558-12.338-7.358-17.845-11.355l10.908-10.82c2.94-2.917 2.96-7.666.042-10.606-2.916-2.941-7.665-2.96-10.606-.043l-14.886 14.767c-4.783 4.738-11.112 7.348-17.821 7.348-7.512 0-14.583-3.298-19.403-9.049-4.59-5.475-6.621-12.393-5.716-19.48.904-7.085 4.605-13.27 10.42-17.413l118.132-84.141c2.268-1.617 4.929-2.482 7.703-2.507 8.255.321 9.934 2.943 14.025 14.789.036.105.075.209.116.313l66.796 168.658c2.607 7.816 8.917 12.66 16.521 12.66l13.896.01c1.064 0 2.099.376 2.909 1.055.813.682 1.36 1.631 1.545 2.692.319 1.803-.481 3.085-.986 3.689z"/></g></g></svg>