<svg id="Capa_1" enable-background="new 0 0 512 512" height="512" viewBox="0 0 512 512" width="512" xmlns="http://www.w3.org/2000/svg"><g><g><g fill="#8dd470"><path d="m118.152 358.493 35.355 35.355-41.87 19.833c-8.492 4.022-17.341-4.826-13.318-13.318z"/><path d="m93.696 130.516c-3.149-3.149-4.793-7.503-4.511-11.944.262-4.131 2.118-7.913 5.225-10.65s7.093-4.099 11.225-3.837l91.108 5.779c3.575.226 6.987 1.699 9.605 4.147l71.474 66.835c.138.129.247.235.354.342 5.955 5.955 6.122 15.428.38 21.567-2.826 3.023-6.662 4.765-10.801 4.903-4.138.139-8.082-1.342-11.106-4.17l-67.414-63.039-85.562-5.427c-3.765-.237-7.309-1.838-9.977-4.506z"/><path d="m18.989 323.812c-1.348-.361-2.645-.906-3.854-1.617-7.365-4.335-9.831-13.854-5.496-21.22l69.995-118.924c2.666-4.529 7.391-7.378 12.638-7.622l81.011-3.771c1.602-.074 3.194.098 4.735.51 6.545 1.754 11.154 7.482 11.469 14.253.193 4.135-1.237 8.098-4.025 11.16-2.788 3.06-6.601 4.851-10.737 5.044l-72.629 3.38-65.741 111.694c-3.522 5.984-10.663 8.909-17.366 7.113z"/><path d="m295.42 174.442c-.82-.82-1.551-1.737-2.172-2.728l-44.312-70.631c-1.865-2.97-2.671-6.527-2.268-10.015l7.761-67.204c.981-8.489 8.686-14.599 17.175-13.62 3.461.4 6.72 1.974 9.179 4.434 3.368 3.368 4.987 8.013 4.441 12.741l-7.137 61.8 41.42 66.019c2.2 3.506 2.904 7.66 1.979 11.697-.924 4.035-3.364 7.47-6.871 9.67-6.163 3.866-14.056 2.977-19.195-2.163z"/><path d="m381.483 418.304c-2.668-2.668-4.267-6.211-4.506-9.978l-5.428-85.561-63.038-67.413c-2.828-3.024-4.309-6.967-4.17-11.106.138-4.138 1.88-7.974 4.904-10.801 6.142-5.741 15.603-5.584 21.543.356.124.124.247.251.369.381l66.831 71.47c2.449 2.618 3.922 6.03 4.147 9.607l5.779 91.107c.262 4.132-1.1 8.119-3.837 11.226-2.736 3.107-6.519 4.963-10.651 5.224-4.44.281-8.794-1.363-11.943-4.512z"/><path d="m188.188 493.012c-1.796-6.703 1.129-13.845 7.113-17.366l111.694-65.739 3.38-72.63c.192-4.135 1.984-7.948 5.044-10.737s7.023-4.218 11.159-4.026c6.771.313 12.499 4.921 14.253 11.465.414 1.543.585 3.139.51 4.742l-3.77 81.008c-.244 5.248-3.093 9.972-7.622 12.638l-118.924 69.995c-7.365 4.334-16.884 1.869-21.219-5.495-.713-1.211-1.257-2.508-1.618-3.855z"/><path d="m337.558 216.58c-5.14-5.14-6.029-13.034-2.163-19.195 2.199-3.505 5.633-5.945 9.67-6.87 4.036-.925 8.191-.221 11.698 1.98l66.018 41.42 61.799-7.139c4.728-.546 9.373 1.072 12.742 4.44 2.46 2.46 4.035 5.72 4.435 9.179.978 8.492-5.131 16.196-13.619 17.178l-67.206 7.762c-3.491.401-7.047-.405-10.018-2.27l-70.627-44.311c-.992-.623-1.91-1.354-2.729-2.174z"/></g><g><path d="m443.75 104.148c-1.703 1.698-1.949 4.367-.594 6.353 16.53 24.214 4.419 58.281-24.666 66.31-13.23 3.65-27.51 6.58-42.73 8.87-2.54.38-5.06.54-7.52.48-23.343-30.299-11.582-67.531 12.478-91.591 14.99-14.99 45.582-28.313 67.982-21.929 5.6 9.71 4.24 22.32-4.05 30.61z" fill="#bbe5a7"/><path d="m368.236 186.162c-25.519-.559-45.87-23.582-41.917-49.922 2.284-15.224 5.218-29.5 8.874-42.73 8.03-29.091 42.097-41.19 66.308-24.662 1.984 1.354 4.649 1.109 6.348-.589l.905-.905c4.957-4.957 11.455-7.439 17.946-7.439s12.99 2.482 17.946 7.439c1.612 1.612 2.97 3.394 4.052 5.282-18.583 3.748-36.819 13.187-51.802 28.171-24.064 24.063-33.843 56.498-28.66 85.355z" fill="#ace094"/></g><g><path d="m415.35 177.66c-5.2 18.67-10.73 35.92-16.56 51.84 0 0-10.612-.824-11.529 1.581-.884 2.32 6.128 12.599 6.128 12.599-6.74 17.03-13.84 32.41-21.2 46.29 0 0-9.971-.307-11.265 2.015-1.157 2.077 3.915 11.206 3.915 11.206-9.19 15.75-18.74 29.34-28.52 41v.01c0-.01-9.418 1.157-11.251 3.197s.251 9.042.251 9.042c-14.97 15.53-30.36 26.9-45.65 34.96 0 0-13.416.301-16.876 1.804-2.941 1.278-2.324 6.686-2.324 6.686-20.03 7.21-39.56 9.28-57.48 8.2-65.578-44.027-39.04-151.104 20.15-210.294 33.81-33.8 98.742-57.779 145.75-42.055 12.501 10.289 27.981 17.599 46.461 21.919z" fill="#9cda82"/><path d="m256.96 217.93c-59.19 59.19-79.78 137.83-53.97 190.16-21.87-1.31-41.34-7.31-56.38-14.38-12.44-5.85-22.47-15.88-28.32-28.32-12.8-27.26-22.12-69.03-6.37-113.31 0 0 7.884 3.098 9.081.29 1.524-3.575-.701-19.45-.701-19.45 8.01-15.36 19.35-30.81 34.87-45.87 0 0 6.133 4.777 7.913 3.156 2.25-2.049 4.267-14.156 4.267-14.156 11.67-9.82 25.28-19.43 41.08-28.67 0 0 7.503 5.271 9.718 4.037 2.188-1.218 3.492-11.397 3.492-11.397 13.9-7.4 29.31-14.52 46.38-21.29 0 0 7.38 3.681 9.909 2.72 2.209-.839 4.281-8.13 4.281-8.13 16-5.87 33.35-11.44 52.13-16.67 5.92 25.3 17.43 45 34.55 59.09-37.98 7.17-78.12 28.39-111.93 62.19z" fill="#7dce5c"/></g></g><g><g><path d="m410.313 148.005c-1.919 0-3.839-.732-5.304-2.196-2.929-2.93-2.929-7.678 0-10.607l8.485-8.485c2.93-2.928 7.678-2.928 10.607 0 2.929 2.93 2.929 7.678 0 10.607l-8.485 8.485c-1.465 1.464-3.384 2.196-5.303 2.196z"/><path d="m371.494 109.187c-1.919 0-3.839-.732-5.304-2.196-2.929-2.93-2.929-7.678 0-10.607l8.485-8.485c2.93-2.928 7.678-2.928 10.607 0 2.929 2.93 2.929 7.678 0 10.607l-8.485 8.485c-1.464 1.463-3.384 2.196-5.303 2.196z"/></g><path d="m506.924 105.971c-14.244-4.868-31.111-7.211-50.302-7.001 1.937-4.234 2.957-8.873 2.957-13.668 0-8.782-3.421-17.039-9.632-23.25-6.215-6.214-14.472-9.636-23.25-9.636-4.794 0-9.433 1.021-13.668 2.959.21-19.189-2.133-36.056-7.001-50.3-1.339-3.92-5.603-6.009-9.522-4.671-3.919 1.339-6.011 5.603-4.671 9.522 4.575 13.387 6.63 29.626 6.139 48.399-11.2-5.031-23.968-5.864-36.038-2.058-16.326 5.146-28.865 17.94-33.708 34.312-11.704 3.324-22.987 6.825-33.842 10.5l-8.544-13.616 6.828-59.178c.815-7.017-1.585-13.908-6.586-18.91-3.655-3.655-8.494-5.994-13.633-6.587-12.593-1.455-24.019 7.627-25.471 20.212l-7.758 67.194c-.608 5.178.589 10.463 3.365 14.871l8.015 12.777c-6.733 2.914-13.254 5.91-19.562 8.99l-19.567-18.301c-3.881-3.63-8.943-5.816-14.258-6.157l-91.087-5.77c-6.115-.397-12.039 1.618-16.675 5.687-4.601 4.054-7.355 9.661-7.757 15.806-.417 6.591 2.027 13.052 6.701 17.725 3.953 3.953 9.208 6.326 14.798 6.683l82.887 5.26 3.012 2.816c-6.23 4.108-12.157 8.33-17.779 12.663l-79.379 3.694c-7.784.356-14.796 4.582-18.761 11.309l-69.987 118.924c-3.116 5.283-3.984 11.472-2.444 17.424 1.54 5.954 5.302 10.948 10.561 14.042 1.79 1.064 3.729 1.879 5.747 2.416 1.962.527 3.949.781 5.917.781 7.996 0 15.654-4.199 19.864-11.33l63.67-108.19 18.059-.839c-19.522 28.379-29.259 60.049-28.359 92.881.111 4.071 3.446 7.295 7.493 7.295.069 0 .14-.001.209-.003 4.141-.113 7.405-3.562 7.292-7.702-.399-14.553 1.417-28.663 5.426-42.273 13.234 25.597 32.989 52.038 56.925 75.974 24.358 24.357 51.219 44.329 77.181 57.553-45.541 13.586-84.88-.739-100.928-8.276-10.844-5.099-19.625-13.88-24.723-24.722-3.764-8.013-6.836-16.524-9.132-25.3-1.049-4.008-5.148-6.404-9.154-5.357-4.007 1.049-6.406 5.147-5.357 9.154 1.868 7.138 4.206 14.124 6.975 20.852l-16.868 35.598c-3.208 6.771-1.857 14.569 3.442 19.868 3.388 3.389 7.799 5.162 12.31 5.162 2.543 0 5.118-.563 7.56-1.721l35.613-16.874c13.689 5.59 35.482 12.248 61.605 12.247 19.202-.001 40.747-3.6 63.122-13.866 8.691-3.988 17.141-8.821 25.331-14.482l-.837 18.015-108.192 63.681c-8.881 5.229-13.219 15.825-10.551 25.756.536 2.011 1.339 3.937 2.396 5.737 3.116 5.284 8.108 9.043 14.058 10.583 1.927.499 3.878.746 5.815.746 4.051 0 8.04-1.079 11.611-3.186l118.934-69.992c6.723-3.961 10.948-10.974 11.305-18.753l3.693-79.373c2.311-2.994 4.589-6.075 6.834-9.241 1.97-2.778 3.916-5.625 5.838-8.541l2.808 3.002 5.26 82.889c.356 5.589 2.729 10.844 6.682 14.796 4.328 4.329 10.182 6.741 16.237 6.741.494 0 .99-.017 1.486-.049 6.132-.386 11.746-3.137 15.816-7.757 4.06-4.625 6.076-10.544 5.679-16.652l-5.771-91.105c-.34-5.312-2.526-10.373-6.156-14.253l-18.303-19.569c3.078-6.308 6.073-12.83 8.985-19.562l12.764 8.011c3.663 2.307 7.935 3.524 12.259 3.523.872 0 1.746-.049 2.617-.149l67.21-7.76c12.583-1.453 21.65-12.884 20.21-25.491-.593-5.139-2.936-9.977-6.586-13.613-5.002-5.001-11.898-7.397-18.903-6.586l-59.185 6.828-13.62-8.546c3.68-10.865 7.183-22.148 10.504-33.842 16.381-4.851 29.167-17.387 34.311-33.707 3.805-12.071 2.972-24.838-2.057-36.038 18.772-.491 35.013 1.564 48.399 6.138.805.275 1.622.405 2.427.405 3.118 0 6.031-1.961 7.096-5.076 1.337-3.92-.755-8.183-4.674-9.522zm-398.494 300.931c-1.314.627-2.271.077-2.841-.492-.569-.569-1.116-1.523-.493-2.839l11.997-25.318c4.518 6.489 10.164 12.136 16.654 16.654zm145.691-314.971 7.76-67.21c.505-4.377 4.482-7.531 8.858-7.03 4.274.42 7.62 4.605 7.03 8.87l-7.13 61.8c-.195 1.692.191 3.401 1.097 4.846l8.145 12.981c-5.183 1.897-10.26 3.838-15.232 5.821l-9.362-14.924c-.963-1.53-1.378-3.354-1.166-5.154zm-149.975 35.604c-4.294-.182-7.832-4.215-7.482-8.476.183-4.32 4.209-7.868 8.502-7.484l91.094 5.77c1.853.119 3.617.88 4.967 2.143l15.618 14.608c-5.018 2.691-9.885 5.441-14.601 8.248l-7.882-7.371c-1.27-1.188-2.913-1.897-4.647-2.008zm-2.396 69.983c-2.531.118-4.831 1.505-6.116 3.688l-65.724 111.681c-1.827 3.095-5.513 4.611-8.982 3.675-.697-.186-1.355-.46-1.986-.835-1.834-1.079-3.14-2.815-3.676-4.889-.535-2.07-.236-4.218.847-6.054l69.987-118.926c1.379-2.341 3.817-3.812 6.527-3.936l59.978-2.791c-3.729 3.502-7.279 7.069-10.649 10.699-1.858 2.002-3.662 4.026-5.411 6.071zm228.328 221.86c-.124 2.704-1.595 5.143-3.932 6.52l-118.936 69.993c-1.831 1.08-3.98 1.379-6.052.843-2.075-.538-3.814-1.846-4.889-3.668-.364-.62-.644-1.292-.835-2.01-.927-3.452.583-7.134 3.671-8.951l111.691-65.739c2.183-1.285 3.569-3.585 3.688-6.115l1.617-34.801c5.737-4.919 11.33-10.276 16.77-16.063zm13.276-96.598c-4.771 6.728-9.691 13.037-14.752 18.92-17.152-6.084-35.854-16.236-54.406-29.562-3.363-2.416-8.049-1.649-10.467 1.717-2.416 3.364-1.647 8.05 1.717 10.467 17.572 12.622 35.39 22.602 52.164 29.265-14.776 14.826-30.629 26.257-47.399 34.153-28.292-11.922-58.73-33.373-86.056-60.701-26.868-26.867-48.129-56.86-60.159-84.8 6.898-14.759 16.559-28.853 28.954-42.204 1.658-1.786 3.363-3.555 5.115-5.31 12.404 30.576 35.589 64.026 64.982 93.427 4.723 4.724 9.604 9.34 14.506 13.721 1.431 1.278 3.216 1.907 4.995 1.907 2.061 0 4.114-.845 5.595-2.503 2.76-3.089 2.493-7.83-.596-10.59-4.694-4.194-9.368-8.615-13.893-13.141-29.8-29.808-52.802-63.717-63.755-93.813 12.081-10.436 25.957-20.261 41.593-29.457 13.072 28.158 34.5 57.823 61.051 84.374 26.903 26.902 56.92 48.49 85.373 61.506-4.694 8.01-9.549 15.555-14.562 22.624zm49.16-12.005c1.262 1.35 2.022 3.112 2.141 4.96l5.771 91.113c.37 4.289-3.168 8.309-7.485 8.478-4.257.369-8.295-3.183-8.475-7.47l-5.431-85.57c-.11-1.735-.82-3.378-2.008-4.648l-7.365-7.875c2.804-4.714 5.552-9.583 8.243-14.605zm-27.261-23.758c-27.162-12.208-56.074-32.943-82.103-58.973-25.677-25.676-46.256-54.24-58.531-81.119 14.42-7.696 30.163-14.912 47.204-21.638 12.868 21.811 30.126 43.775 50.217 63.867 20.36 20.359 42.633 37.802 64.764 50.752-6.699 16.99-13.889 32.709-21.551 47.111zm53.541-46.753c1.444.906 3.157 1.295 4.846 1.097l61.807-7.13c4.237-.597 8.444 2.75 8.862 7.01.501 4.391-2.652 8.374-7.029 8.88l-67.205 7.759c-1.809.207-3.644-.207-5.178-1.172l-14.912-9.358c1.983-4.974 3.924-10.052 5.822-15.233zm22.631-94.71c-3.706 11.758-13.026 20.739-24.951 24.03-.402.112-.805.223-1.209.333-9.451-2.337-18.127-5.551-25.812-9.564-3.67-1.918-8.202-.497-10.119 3.176-1.918 3.671-.496 8.202 3.176 10.12 7.179 3.749 15.069 6.873 23.536 9.324-4.32 14.951-8.939 29.188-13.849 42.693-20.316-12.167-40.754-28.325-59.549-47.12-18.526-18.525-34.497-38.656-46.578-58.658 13.568-4.936 27.891-9.583 42.96-13.935 5.075 17.515 13.024 32.474 23.688 44.551 2.741 3.104 7.481 3.4 10.586.658 3.105-2.741 3.399-7.48.658-10.586-10.17-11.519-17.526-26.263-21.879-43.845.111-.407.222-.815.337-1.225 3.286-11.905 12.268-21.226 24.025-24.932 11.808-3.723 24.039-1.341 33.561 6.529 2.981 2.464 7.347 2.257 10.082-.478l3.967-3.967c3.381-3.381 7.87-5.243 12.643-5.243s9.262 1.862 12.644 5.243c3.378 3.378 5.238 7.867 5.238 12.643 0 4.774-1.86 9.265-5.239 12.643l-3.967 3.967c-2.734 2.735-2.941 7.101-.478 10.082 7.871 9.523 10.251 21.755 6.529 33.561z"/></g></g></svg>