<svg id="Capa_1" enable-background="new 0 0 512 512" height="512" viewBox="0 0 512 512" width="512" xmlns="http://www.w3.org/2000/svg"><g><g><path d="m132.617 266.09-61.97 170.28-18.692 3.311c-6.333 1.122-10.948 6.626-10.948 13.058 0 7.324 5.937 13.261 13.261 13.261h28.834c8.408 0 15.918-5.259 18.794-13.16l63.61-174.78z" fill="#9cda82"/><path d="m464.39 363.14c-4.51 25.6-35.47 48.53-82.26 57.49 0 0-4.68-6.169-7.077-5.795-3.469.541-10.643 8.415-10.643 8.415-11.7 1.26-24.19 1.69-37.34 1.15 0 0-2.297-4.521-5.268-4.737-2.451-.178-10.972 3.607-10.972 3.607-7.52-.74-15.23-1.79-23.1-3.18-3.67-.65-7.33-1.36-11-2.14 0 0-1.148-9.187-3.469-9.723-2.7-.624-11.591 6.213-11.591 6.213-87.57-22.4-168.28-77.1-161.81-113.81 4.1-23.22 13.41-87.41 64.53-95.29 19.75 3.86 33.76 5.52 54.98 5.2 24.48 6.87 48.89 19.06 73.3 30.73 5.28 2.52 10.55 5.02 15.83 7.43 2.91 1.34 5.83 2.65 8.75 3.93 8.74.32 17.15 1.15 25.21 2.4 5.27.83 10.39 1.83 15.35 3.02 12.47 2.94 23.97 6.96 34.43 11.76 5.49 2.51 10.68 5.24 15.59 8.14 40.45 23.94 61.04 59.77 56.56 85.19z" fill="#6dc847"/><path d="m494.04 282.132c-146.966-79.196-274.674-71.589-274.674-71.589-11.6 24.951 5.026 64.806 44.578 87.657 90.383 52.22 189.354 77.502 236.597 13.499 7.245-9.813 4.237-23.78-6.501-29.567z" fill="#8dd470"/><path d="m144.768 439.68 18.69-3.31 33.245-91.609c4.022-11.083 17.44-15.367 27.14-8.664 6.781 4.686 9.511 13.381 6.624 21.102l-35.759 95.641c-2.88 7.9-10.39 13.16-18.79 13.16h-28.84c-3.66 0-6.98-1.48-9.38-3.88s-3.88-5.72-3.88-9.38c0-6.43 4.62-11.94 10.95-13.06z" fill="#9cda82"/><g><g><path d="m184.77 242.83c0 26.71-21.28 57.73-40.37 74.76-32.088-10.745-47.799-32.237-53.139-56.577-5.56-25.41 4.877-56.08 27.59-69.903 36.759 1.57 65.919 24.21 65.919 51.72z" fill="#ace094"/><path d="m144.4 317.589c-4.287 3.831-8.47 6.951-12.276 9.162-9.783 5.683-24.929 5.683-34.711 0-20.729-12.042-52.64-51.21-52.64-83.921 0-28.521 31.334-51.816 70-51.816 1.374 0 2.73.028 4.086.092-13.396 18.246-18.97 42.605-13.405 68.02 5.338 24.33 19.863 44.949 38.946 58.463z" fill="#9cda82"/></g></g><g><path d="m449.808 434.35-74.755-286.654-34.902 9.531 81.111 294.085c2.398 8.696 10.321 14.71 19.342 14.682l31.899-.099c7.465-.023 13.107-6.768 11.81-14.119-1.013-5.747-6.005-9.938-11.84-9.941l-12.996-.008c-4.548-.004-8.521-3.076-9.669-7.477z" fill="#bbe5a7"/><path d="m375.053 147.696-151.628 226.352c-11.205 15.25-32.963 17.862-47.46 5.698-14.528-12.191-15.702-34.133-2.558-47.804l170.328-191.331c9.594-10.776 27.298-6.771 31.318 7.085z" fill="#ace094"/></g></g><g><g><path d="m149.771 265.412c-4.143 0-7.5-3.357-7.5-7.5v-12c0-4.143 3.357-7.5 7.5-7.5s7.5 3.357 7.5 7.5v12c0 4.143-3.358 7.5-7.5 7.5z"/><path d="m79.771 265.412c-4.143 0-7.5-3.357-7.5-7.5v-12c0-4.143 3.357-7.5 7.5-7.5s7.5 3.357 7.5 7.5v12c0 4.143-3.358 7.5-7.5 7.5z"/></g><path d="m511.334 293.674c-1.735-7.762-6.741-14.376-13.739-18.148-8.143-4.383-16.226-8.515-24.023-12.279-3.73-1.804-8.215-.237-10.015 3.493-1.801 3.729-.237 8.214 3.493 10.015 7.601 3.67 15.485 7.7 23.432 11.978 3.21 1.73 5.417 4.648 6.214 8.215.801 3.58.003 7.333-2.189 10.299-14.441 19.56-35.009 31.012-61.201 34.097l-23.131-88.689c8.457 3.087 16.936 6.397 25.336 9.892.941.392 1.918.577 2.878.577 2.938 0 5.729-1.738 6.928-4.621 1.591-3.824-.22-8.215-4.044-9.806-11.824-4.919-23.806-9.482-35.674-13.588l-23.284-89.274c-.019-.074-.039-.148-.06-.222-2.659-9.169-9.804-15.9-19.112-18.007-9.302-2.109-18.655.89-25.002 8.019l-62.308 69.99c-33.575-3.656-54.38-2.695-56.717-2.57-21.403.311-35.25-1.538-53.286-5.063-.175-.034-.35-.062-.526-.083-3.915-2.583-8.17-4.871-12.706-6.82 8.003-25.915 28.57-79.34 75.4-140.517 2.519-3.289 1.893-7.996-1.396-10.514-3.29-2.521-7.996-1.892-10.514 1.396-48.351 63.164-69.445 117.569-77.811 144.866-7.417-1.811-15.315-2.788-23.505-2.788s-16.087.978-23.503 2.787c-8.366-27.297-29.461-81.702-77.812-144.865-2.517-3.29-7.226-3.914-10.514-1.396-3.289 2.518-3.915 7.225-1.396 10.514 46.831 61.179 67.398 114.604 75.401 140.516-23.658 10.163-39.678 29.553-39.678 51.753 0 11.706 3.504 24.534 10.415 38.128 1.877 3.692 6.393 5.164 10.084 3.287 3.692-1.877 5.164-6.392 3.287-10.084-5.748-11.307-8.786-22.141-8.786-31.331 0-15.6 11.43-29.343 28.664-37.241.307 1.327.449 2.048.462 2.116.678 3.603 3.826 6.115 7.362 6.115.46 0 .927-.042 1.395-.13 4.071-.766 6.751-4.687 5.985-8.757-.07-.373-.348-1.805-.912-4.196 6.151-1.439 12.722-2.218 19.544-2.218 6.824 0 13.395.779 19.547 2.219-.564 2.391-.842 3.822-.912 4.195-.765 4.067 1.911 7.982 5.979 8.751.471.09.938.132 1.4.132 3.531 0 6.678-2.508 7.361-6.104.013-.068.156-.792.464-2.122 17.233 7.898 28.661 21.64 28.661 37.239 0 28.442-29.213 65.996-48.903 77.432-7.498 4.351-19.691 4.351-27.186-.002-6.353-3.682-14.155-10.523-21.408-18.772-2.736-3.111-7.477-3.416-10.585-.681-3.111 2.735-3.415 7.475-.681 10.585 8.405 9.559 17.338 17.317 25.147 21.843 1.75 1.017 3.63 1.885 5.602 2.605l-34.173 93.898-14.427 2.555c-9.935 1.756-17.146 10.354-17.146 20.446 0 5.549 2.157 10.763 6.078 14.685 3.919 3.918 9.133 6.075 14.682 6.075h28.83c11.514 0 21.901-7.27 25.849-18.096l31.592-86.809c9.666 6.761 20.543 13.365 32.404 19.64l-15.058 41.505-14.424 2.555c-9.934 1.758-17.143 10.356-17.143 20.445 0 5.55 2.158 10.765 6.076 14.684 3.919 3.918 9.134 6.076 14.684 6.076h28.84c11.509 0 21.892-7.27 25.816-18.034l17.4-46.545c22.427 8.395 45.029 14.629 67.293 18.555 17.584 3.101 34.965 4.636 51.701 4.636 24.293 0 47.221-3.239 67.399-9.63l8.501 30.824c3.282 11.896 14.173 20.186 26.501 20.186h.09l31.909-.09c5.782-.023 11.223-2.581 14.927-7.016 3.699-4.43 5.243-10.229 4.237-15.912-.797-4.505-3.163-8.609-6.66-11.557-3.49-2.942-7.943-4.57-12.564-4.586h-12.974c-1.143-.002-2.142-.774-2.43-1.873l-8.395-32.188c12.856-10.504 20.811-22.809 23.104-35.827 1.035-5.87.956-12.124-.227-18.661 13.795-6.84 25.504-16.732 35.021-29.623 4.779-6.463 6.515-14.659 4.765-22.484zm-247.845-74.197-32.276 36.255c-7.372-13.32-9.786-26.983-6.608-37.85 6.725-.103 20.254-.021 38.884 1.595zm-168.634 230.794c-1.795 4.922-6.519 8.229-11.755 8.229h-28.83c-3.108.063-5.822-2.654-5.76-5.76 0-2.802 2-5.188 4.758-5.676l18.69-3.31c2.637-.467 4.824-2.304 5.74-4.82l34.34-94.359c4.612 4.87 9.96 9.761 15.964 14.611zm62.545-88.464c-12.523-8.068-23.27-16.437-31.582-24.619 3.617-.874 7.042-2.191 10.079-3.953 22.985-13.35 56.373-55.204 56.373-90.405 0-9.56-2.971-18.599-8.243-26.604 7.903 1.02 15.905 1.637 25.157 1.805-2.858 15.154 1.23 32.963 11.563 49.458l-52.847 59.362c-7.185 7.521-11.14 17.381-11.14 27.779.001 2.429.218 4.829.64 7.177zm30.264 88.465c-1.794 4.922-6.513 8.228-11.743 8.228h-28.84c-3.106.063-5.823-2.653-5.76-5.76 0-2.801 2-5.187 4.757-5.676l18.69-3.31c2.64-.467 4.828-2.308 5.743-4.827l16.439-45.31c3.292.852 6.693 1.292 10.117 1.292 4.041.005 8.14-.629 11.982-1.841zm29.632-80.54c-4.18 5.617-10.304 9.167-17.263 10.001-7.003.84-13.839-1.194-19.242-5.729-5.739-4.814-9.03-11.876-9.03-19.374 0-6.551 2.505-12.762 7.055-17.488.066-.07.133-.142.197-.214l170.331-191.33c2.662-2.99 6.582-4.249 10.487-3.363 2.851.645 5.217 2.323 6.721 4.68l-63.252 94.431c-2.305 3.441-1.384 8.1 2.058 10.405 3.439 2.304 8.099 1.386 10.405-2.058l13.582-20.277c8.23 1.752 16.446 3.681 24.525 5.757l28.462 103.195c-29.989-6.041-64.236-19.219-100.142-38.565l14.093-21.04c2.305-3.441 1.384-8.1-2.058-10.405-3.44-2.305-8.101-1.385-10.405 2.058zm131.995-151.16c-3.643-.882-7.304-1.733-10.973-2.552l7.274-10.86zm-124.9 176.295 7.423-19.855 41.991-62.69c6.035 3.271 12.031 6.376 17.975 9.311-4.305 29.566-13.255 58.425-26.653 85.943-13.571-3.412-27.311-7.695-40.736-12.709zm64.643 17.837c-2.95-.52-5.923-1.088-8.913-1.702 12.572-26.55 21.228-54.277 25.806-82.665 11.313 5.135 22.402 9.621 33.186 13.426-4.755 25.451-13.031 50.396-24.653 74.305-8.376-.736-16.871-1.856-25.426-3.364zm41.577 4.31c10.533-22.78 18.202-46.426 22.872-70.528 11.546 3.506 22.676 6.171 33.281 7.955l.47 1.705c-4.172 20.109-10.594 39.976-19.115 59.137-11.961 1.524-24.54 2.106-37.508 1.731zm55.098-4.757c3.615-8.875 6.807-17.88 9.562-26.974l6.268 22.728c-5.087 1.634-10.373 3.05-15.83 4.246zm73.773 37.073h12.964c2.262.126 3.891 1.23 4.48 3.757.318 1.801-.479 3.081-.981 3.683-.506.606-1.63 1.623-3.465 1.631l-31.903.09h-.041c-5.603 0-10.553-3.768-12.044-9.175l-71.878-260.611 15.389-22.975 70.552 270.517c2.009 7.686 8.963 13.067 16.927 13.083zm-2.476-87.492c-1.349 7.653-5.65 15.164-12.591 22.102l-7.291-27.956c7.062-.939 13.772-2.42 20.121-4.44.406 3.634.328 7.078-.239 10.294z"/></g></g></svg>