<svg id="Capa_1" enable-background="new 0 0 512 512" height="512" viewBox="0 0 512 512" width="512" xmlns="http://www.w3.org/2000/svg"><g><g><g fill="#df8a57"><path d="m27.493 269.681c-7.794 0-14.402-5.837-15.371-13.577-.514-4.108.603-8.17 3.144-11.438 2.542-3.269 6.204-5.352 10.312-5.866l24.87-3.112 32.554-50.27c2.868-4.429 7.734-7.074 13.016-7.074.503 0 1.011.024 1.512.074l67.809 6.721c4.12.409 7.834 2.397 10.459 5.599s3.845 7.234 3.437 11.354c-.788 7.964-7.413 13.972-15.411 13.972-.514 0-1.035-.026-1.549-.077l-58.389-5.787-31.341 48.397c-2.494 3.851-6.534 6.385-11.086 6.955l-32.033 4.008c-.64.08-1.291.121-1.933.121z"/><path d="m32.997 458.878c-3.69 0-7.268-1.322-10.074-3.723-6.494-5.557-7.256-15.361-1.7-21.854l21.721-25.385 11.489-99.308c.681-5.882 4.562-10.785 10.13-12.796l54.275-19.609c1.695-.613 3.468-.925 5.267-.925 6.507 0 12.365 4.113 14.578 10.235 1.407 3.894 1.213 8.103-.545 11.851s-4.872 6.587-8.766 7.994l-45.248 16.347-10.93 94.473c-.355 3.075-1.607 5.944-3.62 8.296l-24.797 28.98c-2.948 3.448-7.242 5.424-11.78 5.424z"/><path d="m224.201 176.099c-1.477 0-2.946-.212-4.37-.63l-104.275-30.608c-7.395-2.17-12.107-9.555-10.962-17.176l7.05-46.906-16.846-24.175c-4.887-7.012-3.157-16.692 3.855-21.579 2.615-1.821 5.677-2.783 8.855-2.783 5.069 0 9.826 2.481 12.723 6.637l20.375 29.239c2.275 3.266 3.203 7.231 2.611 11.167l-5.958 39.639 91.304 26.801c3.972 1.166 7.253 3.81 9.238 7.443 1.984 3.633 2.435 7.822 1.269 11.794-1.924 6.558-8.039 11.137-14.869 11.137z"/></g><path d="m484.507 269.681c-.641 0-1.291-.041-1.933-.121l-32.034-4.008c-4.552-.569-8.592-3.104-11.086-6.955l-31.341-48.397-58.396 5.788c-.51.051-1.028.076-1.54.076-7.998 0-14.624-6.006-15.414-13.972-.409-4.12.812-8.152 3.437-11.354s6.339-5.19 10.459-5.599l67.798-6.72c.508-.05 1.023-.076 1.532-.076 5.275 0 10.138 2.645 13.007 7.074l32.554 50.271 24.87 3.112c4.108.514 7.771 2.597 10.312 5.866 2.541 3.268 3.658 7.331 3.144 11.438-.967 7.739-7.574 13.576-15.369 13.577z" fill="#eaaa83"/><path d="m479.001 458.878c-4.536 0-8.829-1.977-11.778-5.422l-24.798-28.98c-2.013-2.352-3.265-5.221-3.62-8.297l-10.929-94.472-45.248-16.348c-3.894-1.406-7.007-4.245-8.766-7.994s-1.953-7.957-.545-11.851c2.212-6.122 8.07-10.235 14.578-10.235 1.797 0 3.568.311 5.266.924l54.275 19.609c5.568 2.011 9.45 6.915 10.13 12.796l11.489 99.308 21.721 25.385c5.556 6.494 4.794 16.297-1.7 21.854-2.805 2.401-6.382 3.723-10.074 3.723z" fill="#eaaa83"/><path d="m287.799 176.099c-6.831 0-12.945-4.58-14.869-11.137-1.166-3.972-.715-8.161 1.269-11.794 1.985-3.634 5.266-6.277 9.238-7.443l91.303-26.801-5.958-39.64c-.592-3.935.335-7.9 2.61-11.166l20.375-29.238c2.897-4.157 7.653-6.639 12.724-6.639 3.18 0 6.242.963 8.856 2.785 7.011 4.886 8.741 14.566 3.854 21.578l-16.846 24.174 7.05 46.906c1.146 7.622-3.567 15.006-10.962 17.176l-104.275 30.61c-1.421.417-2.892.629-4.369.629z" fill="#eaaa83"/><g><path d="m288.71 495.87c-67.659-36.992-109.398-98.625-109.398-167.615 0-66.32 32.946-126.913 103.638-167.615 29.16 8.03 67.59 23.72 82.17 29.83 4.06 1.71 7.42 4.7 9.62 8.52 37.85 65.74 65.39 239.56-86.03 296.88z" fill="#d97c41"/><path d="m288.71 495.87c-7.07 2.68-14.52 5.1-22.39 7.25-6.75 1.84-13.89 1.84-20.64 0-176.36-48.11-148.04-235.32-108.42-304.13 2.2-3.82 5.56-6.81 9.62-8.52 19.99-8.38 84.81-34.75 109.12-34.75 6.58 0 16.13 1.93 26.95 4.92-47.05 39.61-76.95 98.95-76.95 165.27 0 68.99 32.35 130.42 82.71 169.96z" fill="#c76d33"/></g><ellipse cx="256" cy="184.336" fill="#af602d" rx="95" ry="50"/><path d="m402.033 285.238s-36.583 20-146.033 20-146.033-20-146.033-20 36.584-20 146.033-20c109.45 0 146.033 20 146.033 20z" fill="#af602d"/><g><path d="m314.9 113.39c-6.38 11.25-13.87 22.71-22.37 34.35-32.107-12.949-54.412-47.482-54.412-82.932 0-16.24 5.176-35.194 19.432-47.258 13.3.8 23.83 11.83 23.83 25.33v1.28c0 2.402 1.711 4.46 4.072 4.905 28.807 5.432 44.341 38.076 29.448 64.325z" fill="#e4996d"/><path d="m292.53 147.74c-.52.71-1.04 1.43-1.57 2.14-17.36 23.49-52.56 23.49-69.92 0-9.15-12.38-17.17-24.55-23.94-36.49-14.893-26.249.641-58.893 29.448-64.325 2.361-.445 4.072-2.503 4.072-4.905v-1.28c0-7.01 2.84-13.36 7.43-17.95s10.94-7.43 17.95-7.43c.52 0 1.04.02 1.55.05-6.75 13.63-10.55 28.98-10.55 45.22 0 35.45 18.08 66.69 45.53 84.97z" fill="#df8a57"/></g><path d="m331.741 107.151c-.989-3.397-5.147-4.7-7.901-2.479-17.137 13.818-41.198 22.42-67.84 22.42s-50.703-8.603-67.84-22.42c-2.755-2.221-6.912-.918-7.901 2.479-18.892 64.898 28.436 97.3 75.741 97.185 47.306.115 94.633-32.287 75.741-97.185z" fill="#d97c41"/><path d="m401.285 360.238s-35.834 20-145.284 20-145.284-20-145.284-20 35.835-20 145.284-20 145.284 20 145.284 20z" fill="#af602d"/><path d="m256 455.239c88.538 0 114.858-20 114.858-20s-34.637-20-114.858-20-114.858 20-114.858 20 26.32 20 114.858 20z" fill="#af602d"/></g><g><g><path d="m283.449 101c-4.142 0-7.5-3.358-7.5-7.5v-12c0-4.142 3.358-7.5 7.5-7.5s7.5 3.358 7.5 7.5v12c0 4.142-3.358 7.5-7.5 7.5z"/><path d="m228.551 101c-4.142 0-7.5-3.358-7.5-7.5v-12c0-4.142 3.358-7.5 7.5-7.5s7.5 3.358 7.5 7.5v12c0 4.142-3.358 7.5-7.5 7.5z"/></g><path d="m433.157 262.685c3.705 5.705 9.7 9.462 16.449 10.307l32.044 4.012c.95.117 1.911.176 2.857.176 11.565 0 21.372-8.662 22.813-20.155.76-6.112-.904-12.141-4.67-16.956-3.776-4.861-9.213-7.956-15.302-8.711l-21.404-2.677-30.652-47.339c-4.261-6.576-11.478-10.502-19.305-10.502-.724 0-1.463.038-2.269.117l-56.105 5.559c-.877-3.818-2.398-7.532-4.543-11.107l45.481-13.349c10.969-3.216 17.967-14.172 16.276-25.491l-6.606-43.949 15.131-21.726c3.511-5.034 4.85-11.14 3.769-17.193s-4.449-11.317-9.477-14.817c-3.879-2.708-8.428-4.14-13.154-4.14-7.518 0-14.573 3.683-18.873 9.851l-20.382 29.243c-3.373 4.844-4.748 10.725-3.872 16.561l4.988 33.171-23.939 7.027c-.747-4.911-1.884-10.087-3.471-15.541-1.167-4.01-4.249-7.152-8.243-8.405-.897-.282-1.811-.458-2.725-.534.813-9.48-1.06-19.105-5.596-27.867-5.846-11.293-15.421-19.779-26.974-24.149 12.921-13.612 25.852-23.635 38.547-29.864 3.719-1.825 5.254-6.318 3.43-10.037-1.825-3.719-6.319-5.253-10.037-3.43-13.559 6.653-27.186 16.969-40.65 30.754-4.689-12.339-16.4-21.26-30.071-21.514-9.013-.158-17.503 3.25-23.876 9.621-3.39 3.39-5.948 7.392-7.572 11.757-13.42-13.719-27.002-23.988-40.516-30.619-3.719-1.825-8.212-.29-10.037 3.43-1.824 3.719-.289 8.212 3.43 10.037 12.695 6.229 25.625 16.252 38.547 29.864-11.553 4.37-21.128 12.856-26.974 24.15-4.536 8.762-6.409 18.387-5.596 27.867-.914.076-1.828.252-2.725.534-3.994 1.253-7.075 4.396-8.243 8.406-1.59 5.461-2.718 10.64-3.455 15.544l-23.954-7.032 4.988-33.173c.875-5.834-.5-11.715-3.875-16.562l-20.38-29.241c-4.3-6.168-11.355-9.851-18.873-9.851-4.726 0-9.275 1.432-13.145 4.134-5.036 3.506-8.405 8.771-9.485 14.823-1.081 6.053.258 12.159 3.766 17.188l15.134 21.731-6.607 43.956c-1.69 11.312 5.308 22.268 16.275 25.484l45.483 13.35c-2.145 3.576-3.667 7.291-4.544 11.109l-56.113-5.558c-.779-.078-1.538-.117-2.253-.117-7.833 0-15.054 3.926-19.315 10.504l-30.651 47.337-21.397 2.676c-6.096.757-11.533 3.851-15.294 8.692-3.781 4.835-5.445 10.864-4.684 16.983 1.44 11.486 11.247 20.147 22.812 20.147.96 0 1.926-.06 2.872-.178l32.03-4.01c6.749-.845 12.744-4.602 16.454-10.315l28.854-44.562 11.588 1.149c-1.271 3.192-2.499 6.486-3.681 9.876-1.364 3.911.701 8.187 4.612 9.551.817.285 1.65.42 2.47.42 3.101 0 6.002-1.938 7.082-5.032 4.083-11.707 8.92-22.546 13.987-31.346 1.398-2.428 3.484-4.278 6.016-5.344 1.476-.618 3.319-1.386 5.451-2.266 8.759 26.917 49.885 46.717 100.774 46.717 50.89 0 92.017-19.8 100.775-46.718 2.127.878 3.965 1.644 5.431 2.258 2.548 1.073 4.634 2.923 6.032 5.35 9.279 16.115 18.827 41.376 24.255 70.722-19.078-6.204-60.688-15.716-136.494-15.716-75.902 0-117.522 9.536-136.567 15.74.425-2.337.858-4.541 1.287-6.599.845-4.055-1.757-8.027-5.812-8.872-4.05-.844-8.027 1.757-8.872 5.812-.675 3.238-1.292 6.473-1.853 9.704l-42.173 15.232c-8.263 2.986-14.022 10.264-15.031 18.991l-11.227 97.035-20.233 23.645c-8.238 9.634-7.107 24.182 2.529 32.438 4.165 3.558 9.475 5.517 14.951 5.517 6.724 0 13.093-2.93 17.479-8.044l24.789-28.979c2.995-3.499 4.854-7.762 5.373-12.315l10.396-89.856 9.007-3.254c.34 29.218 5.619 56.899 15.702 81.057 10.295 24.664 25.539 45.878 45.309 63.053 22.009 19.12 49.816 33.356 82.651 42.314 4.021 1.096 8.156 1.644 12.292 1.644s8.272-.548 12.294-1.645c33.001-9.002 60.922-23.337 82.987-42.605 19.806-17.296 35.041-38.662 45.283-63.504 11.375-27.591 15.132-55.831 15.395-80.314l9.007 3.254 3.036 26.256c.442 3.822 3.684 6.639 7.441 6.639.288 0 .578-.016.871-.05 4.115-.476 7.064-4.197 6.588-8.312l-3.57-30.87c-.327-2.827-2.226-5.225-4.902-6.192l-18.786-6.786c-.308-6.238-.811-12.112-1.422-17.529l34.67 12.522c2.874 1.039 4.878 3.571 5.229 6.608l11.49 99.31c.171 1.483.781 2.881 1.752 4.015l21.718 25.378c2.868 3.353 2.473 8.418-.87 11.283-1.452 1.24-3.302 1.923-5.209 1.923-2.341 0-4.56-1.021-6.081-2.795l-24.792-28.981c-1.041-1.216-1.686-2.693-1.868-4.286l-3.34-28.83c-.477-4.114-4.193-7.062-8.313-6.587-4.114.477-7.063 4.199-6.587 8.313l3.338 28.816c.521 4.565 2.379 8.828 5.373 12.326l24.796 28.986c4.38 5.108 10.749 8.038 17.473 8.038 5.476 0 10.786-1.959 14.96-5.524 9.627-8.249 10.758-22.796 2.518-32.432l-20.231-23.64-11.227-97.035c-1.009-8.728-6.768-16.005-15.032-18.993l-42.171-15.231c-3.319-19.221-8.503-37.822-15.075-54.263l11.555-1.146zm-302.396-67.435c-1.747 3.033-3.444 6.229-5.088 9.576l-21.041-2.087c-2.795-.274-5.51 1.03-7.036 3.387l-31.334 48.392c-1.292 1.988-3.381 3.298-5.732 3.592l-32.029 4.01c-.329.041-.669.062-1.009.062-4.019 0-7.427-3.015-7.927-7.005-.264-2.125.309-4.215 1.63-5.904 1.313-1.69 3.2-2.766 5.318-3.029l24.87-3.11c2.197-.274 4.161-1.506 5.365-3.366l32.549-50.268c1.484-2.291 3.999-3.658 6.726-3.658.222 0 .479.015.771.043l38.185 3.782c-1.617 1.656-3.032 3.525-4.218 5.583zm72.184-120.105c5.1-9.852 14.204-16.67 24.977-18.705 5.91-1.116 10.199-6.281 10.199-12.279v-1.278c0-4.781 1.858-9.272 5.233-12.646 3.464-3.465 8.083-5.327 12.991-5.23 9.669.18 17.536 8.456 17.536 18.449v.707c0 5.999 4.29 11.163 10.199 12.279 10.773 2.035 19.877 8.853 24.977 18.705 4.828 9.327 5.396 20.027 1.639 29.671-15.414 9.583-34.459 14.777-54.695 14.777s-39.282-5.194-54.694-14.776c-3.757-9.647-3.19-20.347 1.638-29.674zm-85.274 62.521c-3.817-1.12-6.251-4.935-5.664-8.868l7.05-46.9c.285-1.896-.167-3.828-1.262-5.401l-16.843-24.184c-1.218-1.747-1.682-3.868-1.305-5.975.376-2.105 1.544-3.935 3.298-5.155 1.348-.941 2.927-1.439 4.566-1.439 2.616 0 5.071 1.282 6.567 3.428l20.378 29.238c1.174 1.686 1.653 3.731 1.349 5.758l-5.96 39.64c-.558 3.707 1.708 7.256 5.304 8.312l33.359 9.792c.069 5.964.746 11.419 1.852 16.384-.244.207-.486.414-.725.622zm202.013 75.394c-16.886 8.888-39.502 13.783-63.683 13.783s-46.797-4.895-63.683-13.783c-15.136-7.967-23.817-18.434-23.817-28.717 0-6.439 3.206-12.008 7.266-16.477 2.103 4.331 4.48 8.071 6.872 11.25 15.425 20.505 42.742 32.728 73.079 32.728h.549c8.367 0 16.644-.944 24.604-2.808 4.033-.944 6.537-4.979 5.593-9.012s-4.979-6.537-9.012-5.593c-6.841 1.602-13.966 2.413-21.22 2.413-.159 0-.319 0-.479 0-25.684 0-48.522-9.988-61.127-26.745-11.147-14.819-13.94-34.551-8.148-57.246 18.891 14.045 43.416 21.74 69.524 21.74s50.632-7.695 69.526-21.742c9.461 36.839-5.032 57.427-19.142 68.29-3.282 2.527-3.895 7.236-1.368 10.518 2.528 3.283 7.236 3.895 10.518 1.368 6.661-5.128 14.905-13.279 20.719-25.138 4.05 4.466 7.245 10.026 7.245 16.455.001 10.282-8.68 20.748-23.816 28.716zm22.683-60.143c-.221-.192-.444-.384-.669-.575 1.123-5.019 1.789-10.492 1.845-16.445l33.311-9.778c3.597-1.056 5.862-4.605 5.304-8.312l-5.96-39.638c-.305-2.029.174-4.075 1.346-5.758l20.379-29.24c1.497-2.147 3.952-3.429 6.568-3.429 1.639 0 3.218.498 4.575 1.445 1.745 1.215 2.913 3.044 3.289 5.149.376 2.107-.087 4.229-1.308 5.979l-16.84 24.18c-1.096 1.573-1.547 3.505-1.262 5.401l7.049 46.894c.588 3.94-1.846 7.755-5.665 8.875zm-242.019 154.957-18.776 6.783c-2.676.967-4.575 3.365-4.902 6.192l-10.932 94.482c-.18 1.579-.825 3.057-1.868 4.274l-24.784 28.974c-1.527 1.78-3.746 2.802-6.086 2.802-1.907 0-3.757-.683-5.2-1.915-3.353-2.873-3.747-7.938-.881-11.289l21.72-25.38c.971-1.134 1.581-2.532 1.752-4.015l11.49-99.311c.351-3.037 2.355-5.569 5.228-6.607l34.665-12.52c-.666 5.878-1.141 11.726-1.426 17.53zm44.458-25.582c20.351-4.358 56.162-9.553 111.194-9.553s90.843 5.195 111.194 9.553c4.673 1 8.767 2.004 12.317 2.964-20.397 5.515-58.946 12.482-123.511 12.482-55.032 0-90.843-5.195-111.194-9.553-4.645-.995-8.717-1.992-12.252-2.947 3.535-.954 7.608-1.952 12.252-2.946zm111.194 165.446c-50.876 0-80.583-6.768-96.106-12.11 3.251-1.082 7.045-2.229 11.394-3.374 16.505-4.341 44.599-9.517 84.712-9.517s68.208 5.175 84.712 9.517c4.354 1.146 8.15 2.294 11.404 3.376-15.52 5.344-45.225 12.108-96.116 12.108zm8.346 48.146c-5.461 1.487-11.235 1.488-16.693 0-32.733-8.93-59.622-23.129-80.471-42.434 18.628 4.849 47.079 9.287 88.818 9.287 41.74 0 70.191-4.438 88.819-9.288-20.848 19.306-47.736 33.505-80.473 42.435zm118.347-97.355c-3.998 9.698-8.783 18.764-14.343 27.192-13.498-5.83-49.211-17.983-112.35-17.983-63.14 0-98.853 12.153-112.351 17.983-5.43-8.23-10.12-17.069-14.061-26.511-3.729-8.934-6.598-17.971-8.762-26.949 19.223 6.216 60.41 15.476 135.174 15.476 74.786 0 115.975-9.266 135.191-15.482-2.15 8.881-4.952 17.674-8.498 26.274zm-249.661-38.29c3.516-.96 7.573-1.963 12.21-2.963 20.177-4.351 55.771-9.538 110.758-9.538s90.581 5.187 110.758 9.538c4.638 1 8.695 2.002 12.21 2.962-3.515.96-7.572 1.962-12.21 2.962-20.177 4.351-55.771 9.538-110.758 9.538s-90.581-5.187-110.758-9.537c-4.637-1-8.695-2.003-12.21-2.962zm262.67-64.3c1.736 17.305 1.855 35.489-.403 53.677-17.092-6.107-58.669-16.877-139.299-16.877-80.574 0-122.149 10.756-139.263 16.865-2.399-19.454-1.977-37.936-.44-53.664 17.391 6.106 59.325 16.799 139.703 16.799 80.376-.001 122.31-10.694 139.702-16.8zm-9.368-91.116c-1.639-3.328-3.34-6.525-5.096-9.576-1.185-2.058-2.6-3.927-4.217-5.582l38.167-3.781c.307-.03.568-.044.8-.044 2.721 0 5.232 1.368 6.715 3.656l32.55 50.27c1.204 1.859 3.167 3.091 5.365 3.366l24.877 3.111c2.111.262 3.998 1.337 5.326 3.048 1.306 1.669 1.879 3.759 1.616 5.876-.501 3.998-3.91 7.013-7.928 7.013-.335 0-.679-.021-1.008-.062l-32.029-4.01c-2.352-.294-4.441-1.604-5.727-3.584l-31.34-48.4c-1.526-2.357-4.239-3.66-7.036-3.387z"/></g></g></svg>