<svg id="Capa_1" enable-background="new 0 0 512 512" height="512" viewBox="0 0 512 512" width="512" xmlns="http://www.w3.org/2000/svg"><g><g><path d="m194.212 311.964-116.589 3.689c-1.128.036-2.232-.14-3.281-.522-2.946-1.072-5.114-3.656-5.658-6.741-.762-4.318 1.701-8.466 5.857-9.864l110.733-37.246z" fill="#666667"/><path d="m75.589 113.073c-9.892 3.6-14.262 15.159-9.226 24.403l22.853 41.949c5.488 10.074 20.855 4.481 18.583-6.764l-9.458-46.825c-2.083-10.317-12.86-16.363-22.752-12.763z" fill="#858586"/><g fill="#666667"><path d="m219.736 177.841-116.589-3.689c-1.128-.036-2.232.14-3.281.522-2.946 1.072-5.114 3.656-5.658 6.741-.762 4.318 1.701 8.466 5.857 9.864l110.733 37.246z"/><ellipse cx="256" cy="285.565" rx="77.87" ry="96.966"/><path d="m182.417 358.246-86.941 77.768c-.841.753-1.8 1.328-2.849 1.709-2.946 1.072-6.267.487-8.667-1.528-3.359-2.818-4.139-7.579-1.854-11.321l60.885-99.71z"/><path d="m329.583 358.246 86.941 77.768c.841.753 1.8 1.328 2.849 1.709 2.946 1.072 6.267.487 8.667-1.528 3.359-2.818 4.139-7.579 1.854-11.321l-60.885-99.71z"/><path d="m317.788 311.964 116.589 3.689c1.128.036 2.232-.14 3.281-.522 2.946-1.072 5.114-3.656 5.658-6.741.762-4.318-1.701-8.466-5.857-9.864l-110.733-37.246z"/></g><path d="m436.411 113.073c9.892 3.6 14.262 15.159 9.226 24.403l-22.853 41.949c-5.488 10.074-20.855 4.481-18.583-6.764l9.458-46.825c2.083-10.317 12.86-16.363 22.752-12.763z" fill="#858586"/><path d="m292.264 177.841 116.589-3.689c1.128-.036 2.232.14 3.281.522 2.946 1.072 5.114 3.656 5.658 6.741.762 4.318-1.701 8.466-5.857 9.864l-110.733 37.246z" fill="#666667"/><g><path d="m256 321.01v179.797c-2.518 0-7.5 3.467-7.5 3.467-4.636-.28-9.209-.82-13.71-1.615-40.057-16.575-72.533-57.356-80.993-105.325-10.16-57.63 3.106-126.513 56.373-142.055 27.34 9.891 45.83 36.171 45.83 65.731z" fill="#df8a57"/><path d="m234.79 502.66c-62.81-11.03-110.78-71.07-110.78-158.38 0-27.32 4.7-54.32 13.07-79 2.13-6.28 7.27-11.07 13.67-12.83 15.98-4.39 34.79-3.76 52.84.81 2.24.57 4.44 1.24 6.58 2.02-34.97 28.31-53.37 82.59-43.21 140.22 8.46 47.97 34.72 86.99 67.83 107.16z" fill="#d97c41"/></g><g><path d="m387.99 344.28c0 56-19.73 100.78-50.46 128.61-36.919-9.236-48.924-48.567-55.144-83.857-9.66-54.82 6.075-110.668 50.174-139.433 10.02-.48 19.8.41 28.69 2.85 6.4 1.76 11.54 6.55 13.67 12.83 8.37 24.68 13.07 51.68 13.07 79z" fill="#df8a57"/><path d="m337.53 472.89c-20.604 18.667-46.166 29.704-74.03 31.385 0 0-4.983-6.422-7.5-6.422v-176.843c0-31.88 21.5-59.94 52.41-67.75 8.01-2.03 16.16-3.28 24.15-3.66-31.71 29.29-47.89 81.08-38.23 135.9 6.22 35.29 22.08 65.73 43.2 87.39z" fill="#d97c41"/></g><g><path d="m343.31 251.1c-29.29-2.04-53.09 13.78-87.31 13.78-.89 0-1.78-.01-2.66-.03h-.01c-37.989-12.94-59.899-32.65-59.899-65.291 0-15.59 12.836-36.259 25.139-54.669.01 0 .01-.01.01-.01 1.71-1.78 3.38-3.67 5-5.69 4.16-5.21 6.56-11.62 6.91-18.28 2.82-53.83 14.25-92.09 20.81-110.12 1.6-4.39 7.8-4.39 9.4 0 6.56 18.03 17.99 56.29 20.81 110.12.35 6.66 2.75 13.07 6.91 18.28 21.44 26.79 51.53 29.69 75.64 82.31 6.68 14.57-4.77 30.71-20.75 29.6z" fill="#858586"/><path d="m253.34 264.85c-32.81-.78-56.12-15.74-84.65-13.75-15.98 1.11-27.43-15.03-20.75-29.6 22.29-48.65 49.69-54.8 70.64-76.62-7.47 12.78-11.72 27.43-11.72 43.02 0 32.64 18.62 61.21 46.48 76.95z" fill="#767678"/></g></g><g><g><path d="m206.268 213.06c-4.143 0-7.5-3.357-7.5-7.5v-12c0-4.143 3.357-7.5 7.5-7.5s7.5 3.357 7.5 7.5v12c0 4.142-3.358 7.5-7.5 7.5z"/><path d="m305.732 213.06c-4.143 0-7.5-3.357-7.5-7.5v-12c0-4.143 3.357-7.5 7.5-7.5s7.5 3.357 7.5 7.5v12c0 4.142-3.357 7.5-7.5 7.5z"/></g><path d="m491.69 372.467c-7.541-25.422-22.285-48.382-40.834-63.814.858-7.625-3.643-14.766-11.005-17.231l-54.62-18.369c-.999-3.426-2.069-6.822-3.208-10.182-2.381-7.02-7.477-12.698-14.058-15.879 1.145-1.558 2.14-3.242 2.963-5.032 3.477-7.564 3.458-15.941-.05-23.584-.728-1.587-1.461-3.132-2.199-4.636l45.643-15.352c4.765-1.604 8.329-5.159 10.02-9.528 2.027-1.501 3.731-3.474 5.024-5.842l22.862-41.955c3.443-6.331 3.954-13.828 1.403-20.567-1.853-4.896-5.183-9.021-9.461-11.854 6.082-20.27 9.167-44.733 8.527-68.266-.069-2.543-1.423-4.878-3.596-6.201l-14.86-9.05c-3.536-2.153-8.152-1.034-10.307 2.504s-1.033 8.152 2.504 10.307l11.336 6.903c.167 20.815-2.699 42.054-8.033 59.705-3.92.124-7.799 1.183-11.305 3.149-6.284 3.527-10.705 9.601-12.128 16.661l-8.616 42.646-62.759 1.989c-5.548-4.831-11.033-8.901-16.298-12.81-6.152-4.565-12.067-8.957-17.475-14.164 5.627-2.247 10.266-5.72 13.286-10.119 3.198-4.658 6.186-12.647 2.258-24.252-1.328-3.924-5.584-6.026-9.509-4.7-3.924 1.328-6.027 5.585-4.7 9.509 1.579 4.664 1.443 8.247-.415 10.954-1.95 2.84-6.027 5.008-10.946 5.962-1.245-2.756-1.971-5.746-2.135-8.856-.496-9.379-1.271-18.753-2.307-27.86-.469-4.116-4.194-7.068-8.299-6.605-4.116.468-7.073 4.184-6.605 8.299 1.001 8.81 1.752 17.88 2.232 26.958.438 8.314 3.39 16.118 8.544 22.572 8.3 10.37 17.873 17.477 27.131 24.348 16.17 12.002 32.89 24.412 47.548 56.404 1.657 3.609 1.677 7.539.055 11.066-1.476 3.212-4.104 5.701-7.326 6.985-13.533-1.57-28.513-.461-43.399 3.308-6.124 1.547-11.918 3.808-17.302 6.679-9.912 2.478-20.797 4.712-33.271 4.712-12.473 0-23.358-2.234-33.269-4.712-5.384-2.872-11.177-5.131-17.3-6.679-14.889-3.769-29.871-4.879-43.406-3.309-3.22-1.285-5.847-3.772-7.323-6.983-1.622-3.526-1.603-7.457.057-11.07 14.656-31.988 31.376-44.398 47.546-56.4 9.258-6.871 18.831-13.978 27.136-24.354 5.149-6.447 8.102-14.251 8.539-22.567 2.453-46.831 11.521-81.607 18.02-101.186 3.224 9.717 7.125 23.304 10.506 40.27.81 4.062 4.76 6.706 8.821 5.89 4.062-.81 6.699-4.759 5.89-8.821-4.441-22.286-9.775-39.07-13.47-49.232-1.821-4.997-6.433-8.226-11.747-8.226s-9.925 3.229-11.748 8.229c-6.706 18.431-18.383 57.526-21.251 112.289-.164 3.109-.89 6.098-2.134 8.853-4.92-.953-8.997-3.121-10.948-5.962-1.858-2.707-1.994-6.29-.415-10.954 1.327-3.924-.776-8.181-4.7-9.509-3.921-1.328-8.181.776-9.509 4.7-3.928 11.604-.94 19.594 2.258 24.252 3.02 4.399 7.659 7.873 13.287 10.119-5.41 5.209-11.325 9.6-17.476 14.165-5.264 3.908-10.748 7.978-16.295 12.808l-62.761-1.99-8.616-42.642c-1.424-7.064-5.845-13.138-12.13-16.665-3.506-1.967-7.385-3.026-11.305-3.15-5.333-17.654-8.2-38.892-8.032-59.704l11.335-6.903c3.537-2.154 4.659-6.769 2.504-10.307-2.154-3.537-6.767-4.658-10.307-2.504l-14.859 9.05c-2.173 1.323-3.526 3.658-3.596 6.201-.641 23.53 2.444 47.993 8.526 68.266-4.279 2.833-7.608 6.957-9.461 11.854-2.551 6.739-2.04 14.236 1.406 20.573l22.863 41.953c1.291 2.366 2.994 4.337 5.022 5.839 1.691 4.37 5.255 7.923 10.02 9.527l45.643 15.352c-.738 1.503-1.471 3.046-2.198 4.633-3.51 7.647-3.528 16.024-.052 23.588.823 1.79 1.818 3.474 2.962 5.031-6.58 3.18-11.676 8.858-14.057 15.878-1.139 3.36-2.209 6.756-3.208 10.182l-54.61 18.365c-7.367 2.467-11.867 9.6-11.014 17.234-18.55 15.432-33.294 38.392-40.835 63.814-1.178 3.971 1.087 8.146 5.058 9.323.712.211 1.43.312 2.136.312 3.235 0 6.221-2.109 7.188-5.369 6.555-22.098 19.11-42.012 34.871-55.556.71.388 1.454.725 2.226 1.006 1.789.647 3.646.975 5.504.975.188 0 .377-.004.565-.011l39.677-1.258c-.679 7.488-1.024 14.972-1.024 22.392 0 3.204.063 6.383.188 9.536l-40.992 67.145c-3.896 6.379-2.989 14.356 2.029 19.665-6.159 21.452-9.781 42.793-10.771 63.516-.198 4.138 2.996 7.652 7.133 7.85.122.006.243.009.364.009 3.978 0 7.294-3.127 7.485-7.142.923-19.3 4.274-39.209 9.97-59.268 1.102-.157 2.195-.427 3.259-.817 1.949-.705 3.731-1.771 5.3-3.173l28.15-25.173c5.089 13.887 11.744 26.73 19.896 38.285 1.461 2.071 3.78 3.178 6.136 3.178 1.494 0 3.003-.445 4.316-1.372 3.385-2.388 4.193-7.067 1.806-10.452-19.148-27.145-29.27-62.342-29.27-101.786 0-25.661 4.382-52.146 12.673-76.591 1.324-3.905 4.522-6.898 8.555-8.007 14.12-3.88 31.524-3.579 49.016.849 27.523 6.955 46.747 31.824 46.747 60.479v26.24c0 4.143 3.357 7.5 7.5 7.5s7.5-3.357 7.5-7.5v-26.24c0-28.654 19.224-53.523 46.751-60.479 17.484-4.427 34.89-4.728 49.011-.849 4.033 1.109 7.231 4.103 8.556 8.008 8.291 24.445 12.673 50.93 12.673 76.591 0 44.147-13.09 83.773-36.858 111.578-20.993 24.559-49.218 38.903-80.132 40.9v-114.509c0-4.143-3.357-7.5-7.5-7.5s-7.5 3.357-7.5 7.5v114.511c-24.095-1.546-46.568-10.554-65.391-26.285-3.178-2.655-7.908-2.231-10.564.945-2.656 3.178-2.233 7.908.945 10.564 23.493 19.636 52.025 30.015 82.509 30.015 38.288 0 73.458-16.477 99.033-46.396 11.982-14.017 21.491-30.685 28.272-49.234l28.218 25.233c1.564 1.397 3.346 2.464 5.269 3.159 1.074.393 2.176.667 3.286.824 5.696 20.056 9.048 39.967 9.971 59.271.191 4.016 3.508 7.142 7.485 7.142.12 0 .242-.003.364-.009 4.137-.197 7.331-3.712 7.133-7.85-.99-20.725-4.611-42.066-10.77-63.515 5.017-5.303 5.927-13.283 2.03-19.665l-40.994-67.148c.128-3.155.194-6.334.194-9.533 0-7.42-.345-14.904-1.024-22.392l39.646 1.257c.193.007.387.011.579.011 1.879 0 3.734-.327 5.535-.979.768-.279 1.506-.614 2.213-1 15.761 13.544 28.316 33.458 34.87 55.555.967 3.26 3.952 5.369 7.188 5.369.706 0 1.425-.101 2.136-.312 3.97-1.176 6.234-5.35 5.056-9.321zm-414.337-64.312c-.146-.003-.304-.021-.446-.072-.431-.157-.762-.553-.84-.992-.117-.667.218-1.235.864-1.452l45.443-15.283c-1.184 5.452-2.194 10.95-3.024 16.468zm13.127 122.261c-.173.154-.302.213-.434.261-.427.158-.926.066-1.269-.221-.521-.437-.627-1.095-.271-1.678l30.553-50.045c1.151 7.544 2.688 14.891 4.602 22.011zm6.81-262.789c-1.671.612-3.206 1.486-4.561 2.568l-19.781-36.297c-1.375-2.527-1.571-5.401-.553-8.092 1.017-2.687 3.062-4.706 5.76-5.688 2.697-.982 5.562-.749 8.066.656 2.506 1.406 4.198 3.731 4.767 6.551l8.037 39.776c-.587.143-1.165.318-1.735.526zm53.343 32.748-48.171-16.203c-.644-.217-.983-.786-.865-1.461.11-.608.673-1.097 1.315-1.064l59.78 1.895c-4.078 4.841-8.119 10.374-12.059 16.833zm105.367 87.224c-2.659-5.603-5.974-10.849-9.859-15.628 3.187.261 6.475.409 9.859.409 3.385 0 6.673-.148 9.86-.409-3.886 4.779-7.201 10.025-9.86 15.628zm165.013-160.278c.567-2.815 2.26-5.141 4.765-6.547 2.504-1.405 5.368-1.639 8.067-.656 2.697.981 4.742 3.001 5.759 5.688 1.019 2.69.822 5.564-.55 8.086l-19.783 36.304c-1.356-1.083-2.894-1.958-4.568-2.57-.566-.207-1.142-.381-1.728-.522zm-59.645 73.053c-3.941-6.459-7.981-11.991-12.059-16.833l59.741-1.894c.665-.038 1.239.437 1.354 1.074.117.664-.224 1.233-.865 1.45zm62.121 228.405c.355.582.249 1.24-.264 1.67-.352.294-.854.384-1.304.218-.104-.037-.233-.097-.403-.248l-33.251-29.734c1.921-7.127 3.469-14.477 4.632-22.011zm12.448-121.705c-.081.456-.412.852-.828 1.003-.158.057-.307.074-.491.077l-41.967-1.33c-.831-5.519-1.84-11.016-3.024-16.468l45.453 15.287c.636.212.971.781.857 1.431z"/></g></g></svg>