<svg id="Capa_1" enable-background="new 0 0 512 512" height="512" viewBox="0 0 512 512" width="512" xmlns="http://www.w3.org/2000/svg"><g><g><path d="m107.379 351.578 32.139 38.302c-12.197 9.708-31.135 17.751-50.231 20.623-7.349 1.105-13.305-5.993-10.941-13.039 6.145-18.307 17.355-35.561 29.033-45.886z" fill="#858586"/><path d="m473.861 503.545c-142.256-41.594-293.466-41.594-435.722 0-12.355 3.613-25.335-3.337-29.313-15.58-.05-.153-.099-.306-.149-.459-4.166-12.822 3.098-26.546 16.039-30.327 151.025-44.132 311.545-44.132 462.57 0 12.941 3.782 20.205 17.505 16.039 30.327-.05.153-.099.306-.149.459-3.979 12.243-16.959 19.193-29.315 15.58z" fill="#e4996d"/><ellipse cx="319.003" cy="368.229" fill="#9cda82" rx="85" ry="74.375"/><ellipse cx="244.651" cy="370.228" fill="#bbe5a7" rx="85" ry="74.375"/><path d="m385.431 386.305c-14.43.362-25.534 5.685-33.976 14.978-2.918 3.213-3.35 7.995-1.126 11.722 7.337 12.3 19.188 25.034 32.805 34.411 6.12 4.215 14.585.446 15.548-6.923 2.131-16.305.626-33.534-3.553-47.182-1.296-4.231-5.273-7.117-9.698-7.006z" fill="#858586"/><ellipse cx="185.467" cy="338.229" fill="#8dd470" rx="85" ry="74.375"/><g fill="#858586"><path d="m231.807 264.761-12.941 48.296c15.157 3.644 35.72 2.93 54.241-2.538 7.128-2.104 9.526-11.055 4.405-16.441-13.306-13.995-30.757-24.894-45.705-29.317z"/><path d="m77.199 264.761 12.941 48.296c-15.157 3.643-35.72 2.929-54.241-2.538-7.128-2.104-9.526-11.055-4.405-16.441 13.306-13.995 30.757-24.894 45.705-29.317z"/><path d="m212.507 392.118c-13.301-5.515-25.585-5.171-37.055-.135-4.047 1.777-6.364 6.088-5.772 10.468 1.791 13.252 7.521 26.227 16.221 38.778 3.957 5.709 12.447 5.709 16.404 0 8.649-12.479 14.364-25.377 16.189-38.549.617-4.464-1.825-8.836-5.987-10.562z"/><path d="m286.912 416.755c-14.089-3.14-26.151-.661-36.591 6.313-3.609 2.411-5.184 6.947-3.929 11.102 4.143 13.71 12.562 28.932 23.506 41.325 4.919 5.57 14.044 3.961 16.761-2.955 6.012-15.305 8.72-32.386 7.966-46.64-.233-4.42-3.393-8.182-7.713-9.145z"/><path d="m82.425 181.244v50c-15.583-.403-35.261-6.415-51.736-16.49-6.34-3.877-6.34-13.143 0-17.021 16.475-10.073 36.153-16.085 51.736-16.489z"/><path d="m215.581 181.244v50c15.583-.403 35.261-6.415 51.736-16.49 6.34-3.877 6.34-13.143 0-17.021-16.476-10.073-36.153-16.085-51.736-16.489z"/></g><g><path d="m239.3 287.63c0 26.04-15.3 48.96-38.47 62.25h-.01c-49.522 1.698-78.64-32.23-78.64-67.27 0-26.04 12.884-55.633 52.18-67.27 37.26 7.88 64.94 37.26 64.94 72.29z" fill="#bbe5a7"/><path d="m200.829 349.883c-13.37 7.67-29.35 12.12-46.53 12.12-46.94 0-85-33.3-85-74.38 0-41.07 38.06-74.37 85-74.37 6.91 0 13.63.72 20.06 2.09-23.17 13.29-38.48 36.21-38.48 62.25 0 35.04 27.68 64.41 64.95 72.29z" fill="#9cda82"/></g><g><path d="m234 223.28c0 26.05-15.3 48.97-38.47 62.26-48.911 0-82.756-37.247-82.756-72.287 0-26.04 20.327-50.747 56.286-62.253 37.27 7.88 64.94 37.25 64.94 72.28z" fill="#9cda82"/><path d="m195.533 285.54c-13.37 7.67-29.35 12.12-46.53 12.12-46.94 0-85-33.3-85-74.38 0-41.07 38.06-74.37 85-74.37 6.91 0 13.63.72 20.06 2.09-23.17 13.29-38.48 36.21-38.48 62.25 0 35.04 27.68 64.41 64.95 72.29z" fill="#8dd470"/></g><g><path d="m249 108.37c0 38.5-21.75 71.92-53.64 88.62-53.884-8.231-85.223-53.228-96.985-99.93-7.308-29.014 17.157-61.033 51.295-78.42 54.92.27 99.33 34.72 99.33 89.73z" fill="#bbe5a7"/><path d="m195.36 196.99c-13.85 7.27-29.63 11.38-46.36 11.38-55.23 0-100-44.77-100-100s44.77-89.74 100-89.74c.22 0 .45 0 .67.01-17.06 19.64-27.37 45.28-27.37 73.33 0 48.16 30.4 89.21 73.06 105.02z" fill="#9cda82"/></g></g><g><g><path d="m86.554 97.06c-4.142 0-7.5 3.358-7.5 7.5v12c0 4.142 3.358 7.5 7.5 7.5s7.5-3.358 7.5-7.5v-12c0-4.142-3.358-7.5-7.5-7.5z"/><path d="m211.451 97.06c-4.142 0-7.5 3.358-7.5 7.5v12c0 4.142 3.358 7.5 7.5 7.5s7.5-3.358 7.5-7.5v-12c0-4.142-3.358-7.5-7.5-7.5z"/><path d="m178.096 116.215c-4.142 0-7.5 3.358-7.5 7.5 0 3.835-3.12 6.956-6.956 6.956s-6.956-3.12-6.956-6.956c0-4.142-3.358-7.5-7.5-7.5s-7.5 3.358-7.5 7.5c0 3.835-3.12 6.956-6.956 6.956s-6.956-3.12-6.956-6.956c0-4.142-3.358-7.5-7.5-7.5s-7.5 3.358-7.5 7.5c0 12.106 9.849 21.956 21.956 21.956 5.531 0 10.591-2.056 14.456-5.444 3.865 3.388 8.924 5.444 14.456 5.444 12.106 0 21.956-9.849 21.956-21.956 0-4.142-3.358-7.5-7.5-7.5z"/></g><path d="m508.342 465.425c-4.004-7.575-10.741-13.069-18.969-15.471-26.972-7.884-54.634-14.458-82.326-19.569.408-10.423-.465-21.015-2.566-30.804 4.659-9.932 7.018-20.466 7.018-31.352 0-23.034-10.801-43.878-28.155-58.77 13.065-14.016 31.437-23.659 51.465-26.822 4.091-.646 6.884-4.487 6.238-8.578s-4.486-6.887-8.578-6.238c-23.957 3.783-45.947 15.605-61.357 32.791-6.518-3.949-13.634-7.179-21.2-9.56-2.364-20.593-11.289-40.589-25.452-56.814-2.723-3.12-7.461-3.441-10.583-.718-3.121 2.724-3.442 7.462-.718 10.583 10.766 12.334 18.173 27.722 21.046 43.354-4.948-.727-10.028-1.106-15.206-1.106-11.544 0-23.043 1.931-33.717 5.627-.654-1.088-1.434-2.116-2.335-3.062-11.654-12.268-26.933-22.806-41.469-28.694-1.406-3.51-3.083-6.936-5.023-10.25 1.925-4.928 3.331-10.067 4.163-15.367 10.697-3.084 21.188-7.687 30.609-13.451 5.224-3.188 8.344-8.758 8.348-14.898.003-6.145-3.115-11.723-8.344-14.923-11.758-7.187-25.498-12.635-38.605-15.457 15.086-18.72 23.874-42.396 23.874-67.502 0-28.303-11.331-53.615-31.904-71.272-4.386-3.765-9.143-7.149-14.215-10.133 9.92-5.99 21.215-10.162 33.194-12.057 4.091-.647 6.883-4.488 6.236-8.58-.647-4.091-4.487-6.885-8.58-6.236-17.164 2.715-33.157 9.487-46.482 19.317-13.94-5.422-29.474-8.28-45.749-8.28-16.273 0-31.806 2.857-45.745 8.278-13.325-9.831-29.318-16.603-46.481-19.317-4.093-.649-7.933 2.145-8.58 6.236s2.145 7.933 6.236 8.58c11.978 1.895 23.272 6.066 33.191 12.055-5.073 2.985-9.831 6.37-14.217 10.135-20.573 17.656-31.904 42.968-31.904 71.272 0 24.853 8.393 48.446 23.831 67.51-13.077 2.823-26.804 8.269-38.556 15.452-5.226 3.198-8.343 8.776-8.34 14.92.003 6.14 3.124 11.709 8.341 14.894 9.43 5.769 19.918 10.373 30.606 13.455 1.449 9.234 4.644 17.981 9.281 25.969-14.394 5.964-29.01 16.137-40.605 28.338-4.221 4.435-5.792 10.626-4.201 16.561 1.591 5.936 6.048 10.513 11.917 12.242 11.292 3.338 23.687 5.104 35.528 5.104.472 0 .944-.003 1.415-.009 4.364 8.116 10.268 15.614 17.577 22.199 1.793 1.616 3.651 3.158 5.569 4.625.221 1.406.483 2.802.783 4.185-9.897 11.309-18.324 26.116-23.404 41.253-1.953 5.808-.761 12.085 3.189 16.792 3.371 4.017 8.218 6.255 13.33 6.254.876 0 1.76-.065 2.646-.199 13.954-2.099 28.46-6.957 40.544-13.512 10.182 6.577 21.963 11.363 34.775 13.821.351 1.051.724 2.102 1.12 3.155-15.83 1.709-31.725 3.886-47.386 6.492-4.086.68-6.847 4.543-6.167 8.629.611 3.669 3.789 6.27 7.389 6.27.409 0 .824-.033 1.24-.103 17.08-2.842 34.442-5.165 51.686-6.915 1.836 3.251 3.879 6.502 6.128 9.747 3.259 4.702 8.629 7.509 14.366 7.509 5.704 0 11.046-2.776 14.31-7.43 11.379 4.278 23.78 6.52 36.238 6.52.262 0 .524-.001.784-.003 2.094 4.319 4.486 8.596 7.122 12.738-73.322.303-146.079 10.891-216.511 31.489-8.504 2.485-17.323-2.213-20.052-10.628-.063-.201-.125-.389-.172-.531-1.384-4.256-.995-8.777 1.095-12.73 2.091-3.957 5.612-6.827 9.915-8.083 20.087-5.868 40.614-11.015 61.009-15.299 4.053-.852 6.649-4.828 5.798-8.882-.852-4.053-4.829-6.651-8.882-5.798-20.771 4.363-41.675 9.605-62.13 15.58-8.23 2.402-14.968 7.897-18.972 15.472-4.002 7.571-4.748 16.228-2.084 24.423l.133.409c4.316 13.306 16.449 21.744 29.679 21.743 2.927 0 5.91-.413 8.871-1.278 72.651-21.247 147.837-31.61 223.506-30.852 3.366 4.117 8.329 6.51 13.549 6.489 4.927.03 9.866-2.156 13.051-5.756 61.39 2.738 122.392 12.866 181.386 30.12 2.96.864 5.939 1.277 8.865 1.277 13.23 0 25.37-8.448 29.703-21.81l.127-.389c2.65-8.148 1.905-16.805-2.098-24.376zm-470.323-162.099c-1.141-.336-1.538-1.233-1.674-1.738-.135-.504-.24-1.478.582-2.341 7.321-7.704 16.24-14.627 25.328-19.807-.303 2.708-.455 5.44-.455 8.19 0 6.859.948 13.593 2.789 20.084-8.951-.39-18.108-1.887-26.57-4.388zm280.981-1.976c42.734 0 77.5 30.002 77.5 66.88 0 4.512-.511 8.951-1.526 13.29-2.846-1.812-6.217-2.809-9.736-2.717-15.958.409-29.19 6.275-39.334 17.439-5.077 5.599-5.907 14.072-2.013 20.614 2.349 3.932 5.143 7.927 8.262 11.826-10.307 4.217-21.604 6.418-33.153 6.418-5.367 0-10.683-.473-15.877-1.41 21.401-15.478 34.027-38.853 34.027-63.46 0-26.626-14.683-51.326-38.534-66.521 6.614-1.556 13.485-2.359 20.384-2.359zm72.244 138.168v.003c-.154 1.179-.977 1.712-1.454 1.924-.478.213-1.427.47-2.404-.202-6.215-4.283-12.321-9.539-17.665-15.206-5.104-5.401-9.583-11.236-12.945-16.864-.548-.921-.449-2.095.236-2.851 7.381-8.124 16.74-12.221 28.605-12.526h.058c1.039 0 1.974.698 2.285 1.711.5 1.63.944 3.268 1.33 4.91 2.953 12.254 3.647 26.141 1.954 39.101zm-144.936-160.328c9.241 5.205 18.32 12.219 25.769 20.06.818.86.713 1.835.578 2.34-.135.504-.531 1.401-1.67 1.737-8.59 2.538-17.888 4.042-26.969 4.405 1.827-6.462 2.784-13.202 2.784-20.103 0-2.826-.166-5.642-.492-8.439zm17.097-75.063c1.019.623 1.17 1.594 1.17 2.118 0 .521-.152 1.486-1.169 2.107-6.742 4.125-14.34 7.657-22.051 10.289-.586-9.35-2.942-18.425-6.963-26.933 9.928 2.66 20.093 6.968 29.013 12.419zm-206.76 14.514c-7.704-2.631-15.3-6.164-22.048-10.292-1.011-.617-1.162-1.583-1.163-2.104 0-.523.151-1.495 1.166-2.116 8.916-5.449 19.072-9.755 29.005-12.416-4.019 8.507-6.374 17.58-6.96 26.928zm24.171-27.151c18.902 15.56 42.371 24.14 67.164 24.37h.071c4.109 0 7.46-3.312 7.498-7.43.039-4.142-3.288-7.531-7.43-7.569-24.522-.229-47.54-9.95-64.815-27.375-17.284-17.436-26.804-40.561-26.804-65.114 0-24.204 9.224-44.914 26.673-59.89 5.3-4.548 11.255-8.452 17.731-11.664 6.21 5.617 11.495 12.1 15.578 19.265 1.383 2.427 3.916 3.788 6.523 3.788 1.259 0 2.535-.317 3.707-.985 3.599-2.051 4.854-6.631 2.803-10.229-3.677-6.453-8.165-12.435-13.32-17.851 10.215-3.071 21.28-4.673 32.806-4.673 11.527 0 22.594 1.603 32.81 4.674-5.154 5.416-9.642 11.397-13.319 17.849-2.051 3.599-.796 8.179 2.803 10.229 1.172.668 2.448.985 3.707.985 2.607 0 5.14-1.361 6.523-3.788 4.083-7.164 9.367-13.646 15.576-19.263 6.474 3.212 12.429 7.115 17.727 11.662 17.45 14.977 26.673 35.686 26.673 59.89 0 39.039-24.689 74.064-61.437 87.155-3.902 1.39-5.938 5.68-4.548 9.582 1.391 3.902 5.681 5.938 9.582 4.548 11.885-4.234 22.684-10.442 32.082-18.174 6.12 9.719 9.321 20.577 9.321 31.798 0 36.878-34.767 66.88-77.5 66.88s-77.5-30.002-77.5-66.88c-.001-11.218 3.199-22.072 9.315-31.79zm7.354 211.594c-1.176.181-1.915-.465-2.25-.865-.335-.399-.841-1.239-.46-2.372 3.437-10.24 8.779-20.559 15.014-29.241 4.249 8.742 10.17 16.706 17.42 23.568-9.243 4.25-19.634 7.392-29.724 8.91zm122.893-1.435c-1.583 11.424-6.604 23.303-14.924 35.307-.636.917-1.549 1.054-2.038 1.054s-1.402-.137-2.038-1.054c-8.37-12.075-13.4-24.023-14.952-35.51-.15-1.113.407-2.181 1.354-2.597 4.943-2.17 9.925-3.255 15.017-3.255 5.242 0 10.601 1.15 16.15 3.451.983.408 1.584 1.503 1.431 2.604zm4.316-16.46c-14.714-6.101-29.162-6.125-42.943-.074-6.598 2.897-10.693 9.703-10.324 16.89-23.235-6.313-41.588-21.753-49.664-41.322 11.967 5.375 25.214 8.401 38.959 8.773.069.002.138.003.207.003 4.047 0 7.383-3.226 7.493-7.297.112-4.141-3.153-7.588-7.294-7.7-20.356-.552-39.349-7.868-53.479-20.6-13.887-12.511-21.534-28.93-21.534-46.232 0-4.021.41-7.996 1.223-11.898 16.981 17.975 42.497 29.428 70.977 29.428 33.223 0 62.41-15.584 78.724-38.928 2.685 6.86 4.076 14.097 4.076 21.398 0 27.238-18.886 51.527-48.114 61.88-3.905 1.383-5.949 5.669-4.566 9.574 1.09 3.076 3.982 4.998 7.07 4.998.831 0 1.676-.139 2.504-.432 22.216-7.87 39.485-22.606 49.233-40.845.584.009 1.169.013 1.756.013 6.829 0 13.838-.586 20.714-1.721 1.71 5.558 2.573 11.298 2.573 17.133 0 23.849-14.532 45.491-37.808 57.444-1.57-4.636-5.054-8.523-9.783-10.485zm64.3 84.609c-.436 1.108-1.363 1.426-1.877 1.517-.512.091-1.493.109-2.282-.783-9.956-11.274-17.956-25.318-21.948-38.53-.308-1.021.068-2.129.916-2.696 6.395-4.272 13.25-6.392 20.765-6.392 3.217 0 6.555.389 10.028 1.163 1.019.227 1.799 1.161 1.855 2.22.727 13.731-1.991 29.587-7.457 43.501zm8.864-60.363c-15.583-3.473-29.845-.984-42.389 7.397-6.288 4.201-9.143 12.223-6.941 19.507.061.202.123.404.186.606-7.906-.464-15.698-1.972-23.033-4.45 3.466-6.64 6.064-13.276 7.776-19.867 32.838-13.342 53.828-42.149 53.828-74.398 0-6.965-.977-13.819-2.913-20.466l.174-.051c3.295-.972 6.144-2.84 8.29-5.342 23.674 11.883 38.628 33.981 38.628 57.859 0 17.687-8.273 34.684-22.564 47.133-2.405-3.938-6.338-6.88-11.042-7.928zm207.648 75.684c-.062.188-.125.376-.167.511-2.75 8.482-11.567 13.179-20.07 10.696-58.268-17.042-118.46-27.265-179.072-30.424 1.714-5.691 3.039-11.549 3.944-17.384 5.955 1.051 12.039 1.583 18.174 1.583 15.364 0 30.384-3.35 43.791-9.727 5.036 4.892 10.429 9.327 16.088 13.226 2.97 2.043 6.396 3.083 9.857 3.083 2.417 0 4.853-.508 7.16-1.536 4.38-1.953 7.67-5.501 9.278-9.853 26.908 4.996 53.781 11.398 79.993 19.059 4.302 1.255 7.822 4.125 9.914 8.082 2.09 3.953 2.479 8.474 1.11 12.684z"/></g></g></svg>