<svg id="Capa_1" enable-background="new 0 0 512 512" height="512" viewBox="0 0 512 512" width="512" xmlns="http://www.w3.org/2000/svg"><g><g><path d="m418.142 209.473c-58.813-14.603-43.15-66.131-46.859-97.54 65.746 8.792 58.973 54.183 59.338 87.755.072 6.569-6.103 11.368-12.479 9.785z" fill="#ace094"/><g><path d="m87.494 106.859h50l-20.149-80.597c-1.262-5.05-8.439-5.05-9.701 0z" fill="#858586"/><path d="m217.483 247.84c.06 11.35-.67 22.68-2.14 33.8 0 0-7.108 3.119-7.521 5.65-.398 2.438 5.101 9.25 5.101 9.25-2.14 11.09-5.02 21.89-8.6 32.23 0 0-9.913 3.957-10.928 6.567-.81 2.083 5.498 7.543 5.498 7.543-9.8 23.06-23.21 43.11-39.58 57.8-71.819-17.367-109.523-97.87-109.523-177.93 0-53.87 23.576-110.817 62.683-143.48 6.77-.01 13.53 1.72 19.59 5.18 18.07 10.32 33 23.49 45.05 38.62v.01c0-.01-4.589 5.11-2.693 7.812 2.217 3.16 14.943 9.828 14.943 9.828 7.33 12.12 13.13 25.13 17.52 38.68 0 0-5.9 5.412-5.143 8.127.799 2.868 9.793 8.623 9.793 8.623 2.75 11.76 4.52 23.81 5.36 35.92 0 0-7.741 2.769-7.643 5.406.097 2.62 8.233 10.364 8.233 10.364z" fill="#f8ea69"/><path d="m159.313 400.68c-13.68 12.28-29.41 20.82-46.82 24.25-38.24-7.55-68.41-39.71-86.4-82.05 0 0 5.997-8.059 5.185-10.147-1.013-2.604-10.615-3.962-10.615-3.962-3.58-10.34-6.46-21.14-8.6-32.23 0 0 5.512-7.19 5.123-9.566-.425-2.591-7.543-5.333-7.543-5.333-1.47-11.12-2.2-22.45-2.14-33.8 0 0 5.854-6.325 5.951-8.946.098-2.637-5.361-6.824-5.361-6.824.84-12.11 2.61-24.16 5.36-35.92 0 0 7.784-5.915 8.541-8.652.788-2.85-3.891-8.098-3.891-8.098 4.39-13.55 10.19-26.56 17.52-38.68 0 0 13.841-5.885 15.882-8.826s-3.632-8.824-3.632-8.814v-.01c12.05-15.13 26.98-28.3 45.05-38.62 6.04-3.45 12.8-5.18 19.55-5.18-27.44 36.31-44.27 85.28-44.27 139.15 0 80.058 37.16 149.268 91.11 182.258z" fill="#f6ca56"/></g><g fill="#df8a57"><path d="m504.5 29.429v26.05c0 9.269-6.375 17.304-15.388 19.469-137.194 32.944-274.387-28.777-411.581-47.541-12.463-1.705-10.997-20.179 1.579-19.904 133.077 2.915 266.155 45.752 399.232 2.906 12.924-4.161 26.158 5.443 26.158 19.02z"/><path d="m335.105 145.31c-8.462-7.1-9.565-19.715-2.465-28.177l51.423-61.284 30.642 25.711-51.423 61.284c-7.101 8.462-19.716 9.566-28.177 2.466z"/></g><g><path d="m235.85 497.97c-2.54 1.04-5.09 1.93-7.63 2.68-62.471-24.251-97.266-77.073-97.266-149.693 0-48.12 22.944-108.754 54.496-141.407 9.24-5.44 18.14-9.88 26.09-13.4 95 138.86 137.31 257.63 24.31 301.82z" fill="#f6ca56"/><path d="m228.22 500.65c-23.59 7.08-46.77 2.87-59.32-.61-4.57-1.27-9.41-.83-13.73 1.13-16.22 7.36-40.46 2.17-57.49-12.12-21.15-17.75-38.5-55.68-24.3-72.6 3.63-4.33 8.97-6.86 15.26-7.94 5.6-.96 9.37-6.26 8.2-11.82-21-99.86 38.89-157.92 88.61-187.14-23.71 33.01-38.16 76.85-38.16 124.97 0 72.62 32.92 135.52 80.93 166.13z" fill="#f8ad3e"/></g></g><g><path d="m500.709 7.226c-7.193-5.241-16.183-6.681-24.668-3.952-89.234 28.727-180.712 17.999-269.178 7.627-41.758-4.897-84.939-9.961-127.592-10.896-9.53-.21-17.062 6.575-17.817 16.121-.755 9.545 5.578 17.417 15.061 18.718 6.808.932 13.64 1.976 20.485 3.111l-10.377 41.493c-20.46 12.179-37.757 28.368-51.44 48.152-2.212 3.191-4.399 6.589-6.501 10.1-2.127 3.554-.971 8.16 2.583 10.287 3.553 2.127 8.159.973 10.288-2.582 1.386-2.316 2.811-4.574 4.254-6.746 44.27-8.253 89.11-8.253 133.381 0 7.779 11.702 14.17 24.656 19.083 38.669-56.98-13.113-114.562-13.113-171.542-.001.167-.476.335-.95.505-1.423 1.403-3.898-.619-8.194-4.516-9.597-3.899-1.401-8.194.618-9.597 4.517-1.762 4.893-3.364 9.937-4.76 14.985-4.746 17.113-7.501 35.251-8.187 53.91-.623 16.854.441 33.882 3.161 50.608 2.718 16.759 7.062 32.982 12.911 48.216 12.105 31.562 29.68 56.712 51.163 73.369-8.134 9.954-8.902 25.27-2.153 43.181 5.71 15.153 16.029 29.999 27.604 39.713 19.22 16.128 46.728 21.68 65.409 13.205 2.759-1.251 5.821-1.511 8.629-.732 7.973 2.209 20.11 4.722 34.048 4.721 11.757 0 24.794-1.787 37.69-7.056 32.248-12.621 54.011-31.908 64.689-57.328 13.945-33.196 9.429-75.853-13.806-130.408-1.623-3.811-6.028-5.583-9.839-3.962-3.811 1.623-5.584 6.028-3.961 9.839 21.263 49.925 25.898 89.868 13.777 118.721-9.181 21.855-27.622 37.945-56.378 49.189-.036.015-.073.029-.109.044-24.074 9.852-49.246 5.346-62.103 1.785-6.187-1.718-12.877-1.177-18.836 1.526-13.475 6.116-34.785 1.371-49.569-11.035-9.546-8.011-18.439-20.852-23.209-33.512-4.747-12.597-4.808-22.994-.165-28.526 2.284-2.725 5.912-4.53 10.78-5.366 4.729-.811 8.975-3.534 11.651-7.473 2.667-3.925 3.598-8.643 2.621-13.284-23.797-113.142 61.013-168.842 104.725-189.543 21.535 31.804 38.6 60.084 52.086 86.306 1.895 3.683 6.416 5.135 10.1 3.239 3.683-1.895 5.133-6.417 3.239-10.101-14.347-27.894-32.612-57.996-55.815-91.988-.581-2.425-1.212-4.863-1.879-7.256-5.959-21.533-14.984-41.118-26.819-58.206-13.685-19.788-30.979-35.975-51.436-48.153l-8.87-35.495c25.115 5.051 50.207 10.935 74.808 16.703 22.641 5.309 46.052 10.798 69.127 15.56 4.055.839 8.024-1.773 8.861-5.83s-1.773-8.024-5.83-8.862c-22.878-4.721-46.19-10.187-68.734-15.473-42.286-9.914-86.011-20.167-129.192-26.073-.637-.087-2.329-.319-2.143-2.674.187-2.358 1.898-2.317 2.539-2.308 41.938.92 84.76 5.942 126.171 10.797 90.059 10.561 183.184 21.48 275.52-8.245 3.87-1.244 7.965-.59 11.238 1.796 3.257 2.373 5.125 6.049 5.125 10.084v26.051c0 5.804-3.966 10.812-9.64 12.177-23.962 5.749-48.536 8.773-75.124 9.243-2.111.024-4.198.935-5.661 2.679l-49.042 58.444c-2.146 2.56-5.158 4.13-8.482 4.421-3.327.29-6.569-.732-9.128-2.878-2.557-2.146-4.125-5.159-4.415-8.487-.291-3.328.732-6.569 2.879-9.128l29.13-34.721c2.662-3.173 2.248-7.904-.925-10.567-1.25-1.049-2.741-1.62-4.253-1.733-16.231-1.481-33.151-3.745-51.723-6.924-4.086-.701-7.959 2.045-8.658 6.128-.699 4.082 2.045 7.959 6.127 8.657 13.695 2.343 26.523 4.201 38.855 5.624l-20.045 23.892c-4.722 5.626-6.97 12.755-6.332 20.074.639 7.32 4.089 13.951 9.718 18.675 5.002 4.193 11.186 6.436 17.632 6.436.811 0 1.626-.035 2.444-.107 5.288-.463 10.217-2.396 14.325-5.556 1.433 26.136 9.514 54.455 51.644 64.917 1.433.357 2.88.533 4.313.533 3.902 0 7.704-1.303 10.849-3.787 4.272-3.375 6.689-8.435 6.631-13.884-.031-2.911-.008-5.893.017-9.049.212-26.908.495-62.983-38.685-79.157l16.429-19.578c26.403-.68 50.966-3.821 74.984-9.583 12.445-2.991 21.136-13.996 21.136-26.759v-26.052c0-8.884-4.115-16.978-11.291-22.207zm-411.558 392.783c-.233.344-.775.945-1.78 1.118-2.455.421-4.756 1.019-6.9 1.788-18.948-13.391-35.356-34.99-46.957-61.746 17.643-3.892 35.422-6.502 53.062-7.789-2.829 20.454-1.862 42.108 2.924 64.863.167.791-.098 1.397-.349 1.766zm.286-81.857c-20.415 1.272-41.026 4.252-61.437 8.88-3.639-10.413-6.547-21.281-8.683-32.45 27.702-7.208 55.656-11.242 83.361-12.013-5.877 11.372-10.292 23.241-13.241 35.583zm30.482-62.333c-2.978 3.806-5.766 7.679-8.364 11.618-31.409.104-63.169 4.209-94.606 12.264-1.438-11.277-2.083-22.656-1.925-33.977 41.649-11.345 83.749-15.431 125.459-12.192-7.183 6.675-14.15 14.089-20.564 22.287zm36.582-35.787c-46.714-5.516-93.992-2.163-140.734 9.973 1.005-12.381 2.994-24.45 5.943-36.033 59.217-15.034 119.184-15.294 178.428-.784-12.147 5.92-27.822 14.725-43.637 26.844zm9.278-98.776c-35.432-5.05-71.131-5.05-106.563 0 10.755-12.06 23.289-22.21 37.431-30.291 9.776-5.584 21.924-5.585 31.7-.001 14.141 8.081 26.676 18.231 37.432 30.292zm-53.965-80.708 1.449.267 7.941 31.779c-5.746-1.075-11.657-1.076-17.404-.002zm306.63 108.602c4.92 12.357 4.805 27.069 4.693 41.297-.025 3.229-.049 6.278-.017 9.328.011.998-.5 1.612-.931 1.952-.369.292-1.149.741-2.243.468-18.594-4.617-29.901-13.158-35.583-26.877-4.944-11.938-5.049-26.15-4.954-40.027l9.817-11.699c14.958 5.003 24.3 13.205 29.218 25.558z"/></g></g></svg>