<svg id="Capa_1" enable-background="new 0 0 512 512" height="512" viewBox="0 0 512 512" width="512" xmlns="http://www.w3.org/2000/svg"><g><g><g><path d="m354.75 263.65c-7.503 6.678-12.548 6.678-13.648 6.678-67.1 0-126.813-65.468-126.813-151.738 0-38.01 15.528-83.18 43.811-111.01 4.02.28 8 1.37 11.68 3.27 23.91 12.38 42.56 27.96 56.84 45.58 0 0-3.942 5.72-1.928 8.555 2.207 3.106 14.537 9.285 14.537 9.285 36.121 58.94 32.211 134.09 15.521 189.38z" fill="#9c9c9c"/><path d="m354.75 263.647c-6.49 21.52-14.92 40.03-23.68 53.41 0 0-46.17 37.28-75.07 37.28s-75.07-37.28-75.07-37.28c-31.27-47.76-58.33-160.91-8.16-242.79 0 0 14.023-5.943 16.278-9.106 1.976-2.773-3.668-8.733-3.668-8.733 14.28-17.62 32.93-33.2 56.84-45.58 4.96-2.57 10.46-3.66 15.88-3.27-17.56 27.08-28.12 61.92-28.12 99.93 0 86.27 54.39 156.2 121.49 156.2 1.1-.001 2.19-.021 3.28-.061z" fill="#919191"/></g><g fill="#858586"><path d="m498.884 316.836c-43.027 39-99.671 59.617-157.701 57.398-10.086-.386-17.642-9.406-16.412-19.425.014-.116.028-.232.043-.347 1.093-8.903 8.802-15.54 17.766-15.201 48.847 1.851 96.524-15.502 132.753-48.318 6.648-6.022 16.82-5.893 23.381.224.085.08.171.159.256.239 7.382 6.884 7.393 18.651-.086 25.43z"/><path d="m13.116 316.836c43.027 39 99.671 59.617 157.701 57.398 10.086-.386 17.642-9.406 16.412-19.425-.014-.116-.028-.232-.043-.347-1.093-8.903-8.802-15.54-17.766-15.201-48.847 1.851-96.524-15.502-132.753-48.318-6.648-6.022-16.82-5.893-23.381.224-.085.08-.171.159-.256.239-7.382 6.884-7.393 18.651.086 25.43z"/><path d="m400.117 479.814c5.242-2.423 8.72-7.551 9.449-13.28l2.325-18.292c3.213-25.274-4.815-50.546-22.026-69.336l-9.376-10.235c-5.844-6.379-15.623-7.161-22.407-1.792-7.512 5.946-8.398 17.019-1.926 24.083l9.375 10.234c10.645 11.621 15.61 27.251 13.622 42.883l-2.375 18.691c-1.146 9.026 5.263 17.302 14.288 18.449 3.073.392 6.183-.08 9.051-1.405z"/><path d="m111.883 479.814c-5.242-2.423-8.72-7.551-9.449-13.28l-2.325-18.292c-3.213-25.274 4.815-50.546 22.026-69.336l9.376-10.235c5.844-6.379 15.623-7.161 22.407-1.792 7.512 5.946 8.398 17.019 1.926 24.083l-9.375 10.234c-10.645 11.621-15.61 27.251-13.622 42.883l2.375 18.691c1.146 9.026-5.263 17.302-14.288 18.449-3.073.392-6.183-.08-9.051-1.405z"/></g><g><path d="m469.84 239.9s-13.04 7.272-14.256 10.377 6.966 8.253 6.966 8.253c-6.9 15.8-15.19 30.53-24.57 44.02-54.112 0-89.241-53.382-98.431-105.512-10.2-57.82 26.42-123.779 61.831-161.628l.01-.01c.02-.01.05-.03.07-.05-.08.06 4.408 4.137 6.852 2.526 3.244-2.137 10.318-13.556 10.318-13.556 4.14-2.24 8.4-4.23 12.79-5.96 9.94-3.91 21.26.64 25.6 10.4 1.97 4.43 3.83 8.85 5.56 13.25 0 0-.008 20.929 1.771 26.17s8.909 5.27 8.909 5.27c17.29 61.06 13.44 118.01-3.42 166.45z" fill="#fff1cf"/><path d="m437.98 302.55c-35.77 51.51-87.21 84.92-136.18 90.4-3.77-31.74-41.26-173.77-1.47-256.18 0 0 6.162 1.918 7.774-.85 2.208-3.791 3.976-18.58 3.976-18.58 9.15-12.17 20.84-22.17 35.61-29.17 4.41-2.09 8.31-5.12 11.25-9.02 12.15-16.12 26.23-31.62 42.44-43.74-30.62 34.94-45.37 89.87-35.17 147.69 9.19 52.13 36.63 95.11 71.77 119.45z" fill="#fce3a0"/></g><g><path d="m228.31 272.02c-58.175 34.086-115.936-14.504-146.275-67.064-31.971-55.371-21.446-141.498 13.064-175.606.885-.874 15.441 6.001 15.441 6.001 16.24 12.13 30.35 27.65 42.52 43.8 2.94 3.9 6.84 6.93 11.25 9.02 14.77 7 26.46 17 35.61 29.17 0 0 1.097 13.793 3.052 17.035s8.698 2.395 8.698 2.395c18.33 37.969 20.26 88.589 16.64 135.249z" fill="#fff1cf"/><path d="m228.31 272.02c-4.24 54.62-16.08 103.81-18.11 120.93-61.8-6.92-127.53-58.31-160.75-134.42 0 0 5.938-5.307 4.834-8.094-1.35-3.408-12.124-10.536-12.124-10.536-16.86-48.44-20.71-105.39-3.42-166.45 0 0 5.459.087 6.876-4.217 2.028-6.16 3.804-27.223 3.804-27.223 1.73-4.4 3.59-8.82 5.56-13.25 4.34-9.76 15.66-14.31 25.6-10.4 4.39 1.73 8.65 3.72 12.79 5.96 0 0 2.922 4.685 2.2 5.8-25.541 39.44-24.069 101.451 7.82 156.68 30.34 52.56 79.76 84.32 124.92 85.22z" fill="#fce3a0"/></g><path d="m256 234.5c-74.557 0-135 40.02-135 104.05 0 64.04 79.773 115.95 135 115.95s135-51.91 135-115.95c0-64.03-60.443-104.05-135-104.05z" fill="#ace094"/><g><g><path d="m366 388.55c0 43.38-29.83 81.2-63.06 101.08h-.01c-53.073-13.666-91.263-55.119-91.263-109.338 0-32.53 12.175-67.778 45.073-95.782 60.41.32 109.26 40.27 109.26 104.04z" fill="#9c9c9c"/><path d="m302.94 489.63c-15.83 9.47-32.42 14.87-46.94 14.87-45 0-110-51.91-110-115.95 0-64.03 49.25-104.05 110-104.05.22.06.46.01.68.01.02-.01.04-.01.06 0-18.77 22.78-30.11 52.5-30.11 85.03 0 54.22 31.52 100.65 76.31 120.09z" fill="#919191"/></g><path d="m279.529 402.166c.046-14.555-10.495-15.956-23.502-15.997s-23.556 1.294-23.602 15.849c-.045 14.555 10.462 26.387 23.469 26.428 13.008.042 23.589-11.725 23.635-26.28z" fill="#666667"/></g></g><g><g><path d="m255.961 435.947c-.03 0-.06 0-.09 0-8.455-.026-16.345-3.682-22.215-10.291-5.658-6.372-8.76-14.775-8.731-23.661.073-23.424 21.837-23.35 31.125-23.326 8.11.025 14.621.609 20.036 3.377 5.013 2.562 10.98 8.137 10.942 20.144-.057 18.633-13.987 33.757-31.067 33.757zm-.371-42.279c-15.003 0-15.646 2.586-15.665 8.374-.017 5.193 1.74 10.043 4.947 13.653 2.996 3.374 6.919 5.239 11.046 5.252h.043c8.832.001 16.035-8.425 16.067-18.805.017-5.316-1.727-6.207-2.769-6.739-2.937-1.501-8.35-1.719-13.257-1.734-.138 0-.276-.001-.412-.001z"/><path d="m207.761 402.001c-.009 0-.017 0-.024 0-4.143-.014-7.489-3.382-7.477-7.523.006-1.711-.655-3.321-1.861-4.534-1.206-1.214-2.812-1.885-4.522-1.891-.007 0-.014 0-.021 0-3.521 0-6.394 2.86-6.404 6.385-.013 4.134-3.369 7.477-7.499 7.477-.009 0-.017 0-.024 0-4.143-.014-7.489-3.382-7.477-7.523.037-11.779 9.634-21.338 21.404-21.338h.066c5.719.019 11.086 2.262 15.116 6.317s6.24 9.438 6.222 15.154c-.013 4.133-3.369 7.476-7.499 7.476z"/><path d="m332.05 402.391c-.008 0-.016 0-.023 0-4.143-.013-7.49-3.381-7.478-7.522.011-3.532-2.854-6.415-6.385-6.426-.007 0-.015 0-.021 0-1.702 0-3.304.66-4.513 1.861-1.213 1.206-1.884 2.812-1.89 4.522-.013 4.134-3.369 7.477-7.499 7.477-.009 0-.017 0-.024 0-4.143-.014-7.489-3.382-7.477-7.523.019-5.718 2.262-11.085 6.316-15.115 4.039-4.014 9.394-6.222 15.085-6.222h.069c11.802.037 21.374 9.67 21.338 21.471-.012 4.134-3.367 7.477-7.498 7.477z"/></g><path d="m504.154 285.982c-.123-.12-.254-.24-.387-.359-9.356-8.668-24.04-8.783-33.47-.246-7.48 6.776-15.468 12.876-23.91 18.267 10.699-15.93 19.755-33.23 26.946-51.594 4.735-12.094 8.626-24.625 11.562-37.245.938-4.034-1.57-8.065-5.605-9.004-4.026-.941-8.065 1.569-9.004 5.605-2.516 10.812-5.773 21.556-9.695 31.986-16.227 5.523-38.058 10.279-55.172 12.238 11.937-18.215 24.683-41.183 36.247-69.257 10.877-26.388 19.686-54.86 26.182-84.624.763-3.487 1.497-7.005 2.201-10.547 6.569 29.082 8.5 58.104 5.738 86.63-.399 4.123 2.619 7.788 6.742 8.188 4.12.407 7.788-2.619 8.188-6.742 3.963-40.925-1.204-82.745-15.358-124.305-.021-.07-.045-.141-.068-.211-3.314-9.705-7.155-19.48-11.416-29.054-5.979-13.447-21.44-19.743-35.195-14.333-7.625 2.997-15.213 6.901-22.551 11.604-18.517 11.853-35.91 28.748-53.174 51.651-.865 1.146-1.869 2.216-2.99 3.192-17.184-31.409-42.963-56.157-76.736-73.636-10.787-5.581-23.666-5.581-34.449-.002-2.054 1.061-3.873 2.039-5.56 2.99-3.608 2.034-4.885 6.608-2.851 10.216 2.033 3.608 6.61 4.885 10.216 2.851 1.527-.86 3.188-1.753 5.083-2.732 6.471-3.348 14.198-3.348 20.667 0 19.078 9.874 35.37 22.245 48.749 36.985-39.286-5.944-78.881-5.944-118.167 0 4.918-5.423 10.225-10.522 15.908-15.278 3.177-2.658 3.597-7.389.938-10.564-2.659-3.177-7.388-3.597-10.564-.938-16.831 14.086-30.648 30.915-41.158 50.108-1.121-.976-2.125-2.045-2.99-3.191-17.265-22.904-34.658-39.8-53.172-51.65-7.341-4.704-14.929-8.608-22.552-11.604-13.76-5.411-29.219.883-35.199 14.328-4.261 9.576-8.102 19.352-11.416 29.057-.023.069-.046.139-.067.208-22.881 67.164-22.183 135.309 2.022 197.08 7.19 18.364 16.247 35.664 26.946 51.594-8.442-5.391-16.431-11.491-23.912-18.268-9.428-8.538-24.112-8.42-33.468.247-.133.119-.264.239-.387.359-5.036 4.729-7.895 11.397-7.846 18.312.048 6.891 2.992 13.486 8.079 18.098 30.065 27.251 66.478 45.89 105.973 54.36-16.936 20.07-24.709 46.247-21.383 72.433l2.32 18.295c1.068 8.385 6.336 15.719 13.736 19.136 3.192 1.479 6.644 2.237 10.122 2.237 1.009 0 2.021-.063 3.028-.191 6.354-.81 12.017-4.047 15.944-9.117 3.93-5.072 5.647-11.366 4.839-17.717l-2.37-18.693c-1.012-7.952.071-15.906 3.021-23.146 6.224 20.193 18.354 39.402 35.622 55.966 23.183 22.233 52.714 36.045 77.069 36.045s53.886-13.812 77.066-36.048c17.269-16.564 29.399-35.773 35.622-55.966 2.951 7.241 4.034 15.196 3.021 23.15l-2.369 18.685c-.81 6.355.908 12.649 4.838 17.722 3.928 5.07 9.59 8.308 15.944 9.117 1.009.128 2.021.191 3.029.191 3.479 0 6.927-.757 10.112-2.233 7.409-3.421 12.677-10.755 13.746-19.145l2.319-18.288c3.326-26.19-4.449-52.37-21.383-72.435 39.495-8.47 75.908-27.108 105.973-54.36 5.087-4.611 8.031-11.207 8.079-18.098.051-6.913-2.807-13.582-7.843-18.31zm-51.162-24.566c-13.419 28.629-32.221 54.628-54.506 75.401-.305-18.573-5.518-35.964-15.12-51.178 3.445-4.164 7.143-8.863 11.011-14.114 15.772-.534 38.871-4.6 58.615-10.109zm-78.856 11.812c-5.277-6.083-11.366-11.695-18.226-16.751-3.872-2.854-7.962-5.515-12.248-7.977 12.548-23.457 23.848-47.951 33.695-73.032 13.671 10.834 28.946 16.331 45.627 16.423-16.442 36.933-34.61 63.678-48.848 81.337zm-236.272 0c-14.238-17.659-32.405-44.404-48.848-81.337 16.68-.092 31.955-5.59 45.626-16.423 9.847 25.082 21.148 49.576 33.696 73.032-4.286 2.462-8.377 5.123-12.248 7.977-6.86 5.056-12.95 10.668-18.226 16.751zm43.865-31.496c-5.662-10.571-11.065-21.359-16.19-32.321 13.877-12.002 32.627-36.558 42.579-62.175 8.949 21.856 13.7 49.505 14.165 82.533-14.479 2.444-28.136 6.473-40.554 11.963zm33.46-114.502c27.127-2.954 54.489-2.954 81.622 0-6.851 12.487-12.126 27.042-15.804 43.578-16.611-1.071-33.38-1.075-50.015-.008-3.679-16.532-8.952-31.086-15.803-43.57zm22.064 100.608c-.282-15.096-1.441-29.168-3.468-42.182 14.784-.875 29.667-.873 44.429.006-2.027 13.011-3.185 27.082-3.467 42.175-6.144-.555-12.403-.837-18.747-.837s-12.603.282-18.747.838zm66.629-80.6c9.952 25.617 28.703 50.171 42.579 62.173-5.125 10.961-10.528 21.75-16.19 32.321-12.418-5.491-26.076-9.52-40.554-11.963.466-33.026 5.216-60.674 14.165-82.531zm113.092-113.345c5.646-3.416 11.416-6.288 17.191-8.558 6.268-2.464 13.293.379 16.002 6.47 3.833 8.613 7.31 17.392 10.345 26.121-1.713 11.968-3.796 23.854-6.212 35.435-17.755 1.683-33.335-2.175-47.373-11.728 3.791-15.598 7.162-31.618 10.047-47.74zm29.571 74.831c1.438 0 2.886-.033 4.344-.099-5.672 23.755-12.867 46.563-21.449 67.985-17.459 1.619-32.727-3.642-46.445-16.006 7.548-20.606 14.27-41.963 20.043-63.681 13.217 7.853 27.774 11.801 43.507 11.801zm-95.642-13.782c5.619-2.663 10.47-6.564 14.027-11.282 11.378-15.095 22.73-27.349 34.379-37.076-2.448 12.283-5.173 24.441-8.145 36.322-.015.059-.028.117-.041.176-6.606 26.328-14.646 52.203-23.896 76.912-4.427 11.821-9.187 23.524-14.256 35.059-14.434-13.92-33.607-41.479-39.331-66.817 9.511-14.891 22.034-26.084 37.263-33.294zm-167.822-22.835c48.406-9.427 97.437-9.426 145.843.001 2.879 4.252 5.561 8.659 8.045 13.218-12.105 6.994-22.534 16.324-31.157 27.867-33.081-4.238-66.55-4.238-99.623 0-8.623-11.544-19.053-20.874-31.157-27.867 2.481-4.554 5.166-8.962 8.049-13.219zm-36.01 11.554c3.557 4.717 8.407 8.618 14.029 11.282 15.225 7.208 27.747 18.401 37.26 33.292-5.724 25.339-24.896 52.898-39.332 66.818-5.069-11.535-9.828-23.237-14.255-35.058-9.25-24.708-17.29-50.584-23.896-76.91-.014-.061-.027-.119-.042-.179-2.972-11.881-5.697-24.04-8.145-36.323 11.648 9.727 23.002 21.981 34.381 37.078zm-38.11 13.262c5.773 21.717 12.495 43.074 20.042 63.681-13.718 12.364-28.99 17.623-46.444 16.005-8.581-21.42-15.776-44.228-21.449-67.984 1.458.066 2.906.099 4.344.099 15.733 0 30.292-3.948 43.507-11.801zm-47.127-65.122c2.708-6.089 9.735-8.933 16.003-6.466 5.773 2.269 11.541 5.141 17.189 8.557 2.885 16.122 6.257 32.142 10.046 47.739-14.036 9.553-29.62 13.409-47.374 11.728-2.415-11.578-4.499-23.465-6.211-35.434 3.036-8.729 6.513-17.508 10.347-26.124zm-19.878 59.419c.703 3.535 1.435 7.045 2.197 10.524 6.497 29.768 15.306 58.24 26.182 84.626 11.565 28.075 24.31 51.043 36.248 69.259-17.115-1.958-38.945-6.715-55.173-12.238-18.063-47.964-21.226-99.958-9.454-152.171zm17.053 170.196c19.743 5.509 42.842 9.575 58.614 10.109 3.868 5.25 7.566 9.95 11.011 14.114-9.602 15.214-14.814 32.605-15.12 51.178-22.285-20.773-41.086-46.771-54.505-75.401zm-44.009 42.773c-.02-2.8 1.097-5.392 3.142-7.298.064-.061.127-.121.189-.183l-.054.055c.042-.037.084-.076.126-.114 3.701-3.452 9.513-3.52 13.229-.155 16.56 15.002 35.416 26.944 56.072 35.517 8.72 9.688 18.15 18.636 28.218 26.746.259 1.08.538 2.157.837 3.234-36.744-7.961-70.617-25.345-98.605-50.712-2.015-1.827-3.135-4.345-3.154-7.09zm110.409 140.834 2.371 18.694c.303 2.378-.343 4.736-1.816 6.639-1.476 1.904-3.6 3.12-5.981 3.423-1.706.219-3.37-.042-4.958-.778-2.759-1.274-4.734-4.117-5.154-7.414l-2.319-18.292c-2.861-22.527 4.051-45.046 18.994-62.064 3.01 5.288 6.528 10.484 10.539 15.554-9.458 12.621-13.688 28.433-11.676 44.238zm247.564-68.205c-2.538-27.845-14.218-51.824-34.161-69.866-21.349-19.315-50.759-29.952-82.812-29.952-5.971 0-11.923.37-17.69 1.1-4.11.52-7.02 4.271-6.5 8.381.519 4.109 4.274 7.03 8.381 6.5 5.147-.65 10.466-.98 15.81-.98 28.326 0 54.163 9.261 72.75 26.075 19.463 17.607 29.75 41.978 29.75 70.475 0 36.736-22.44 63.747-35.816 76.577-20.498 19.659-46.049 31.872-66.685 31.872s-46.187-12.213-66.684-31.873c-13.376-12.83-35.816-39.841-35.816-76.577 0-39.562 20.068-71.219 55.06-86.853 3.782-1.689 5.478-6.125 3.788-9.907-1.69-3.781-6.124-5.479-9.907-3.788-19.188 8.573-35.164 21.946-46.202 38.673-9.752 14.776-15.52 31.6-17.212 50.142-6.932-12.514-10.526-25.474-10.526-38.267 0-28.196 12.618-52.401 36.49-69.999 23.226-17.122 55.547-26.551 91.009-26.551s67.783 9.429 91.01 26.551c23.872 17.598 36.49 41.803 36.49 69.999 0 12.793-3.594 25.754-10.527 38.268zm31.476 70.479-2.318 18.285c-.421 3.302-2.396 6.145-5.164 7.423-1.578.731-3.241.996-4.949.774-2.382-.303-4.506-1.519-5.981-3.423-1.474-1.902-2.119-4.261-1.815-6.644l2.37-18.686c2.012-15.809-2.218-31.62-11.675-44.243 4.011-5.07 7.529-10.267 10.539-15.554 14.941 17.015 21.855 39.536 18.993 62.068zm89.397-136.019c-27.988 25.367-61.861 42.751-98.605 50.712.299-1.077.578-2.154.837-3.233 10.067-8.109 19.498-17.059 28.218-26.746 20.655-8.572 39.512-20.515 56.07-35.515 3.718-3.367 9.531-3.3 13.231.153.034.032.109.1.158.144.034.033.068.065.104.099 2.045 1.906 3.161 4.498 3.142 7.298-.02 2.744-1.14 5.262-3.155 7.088z"/></g></g></svg>