<svg id="Capa_1" enable-background="new 0 0 512 512" height="512" viewBox="0 0 512 512" width="512" xmlns="http://www.w3.org/2000/svg"><g><g><path d="m224.194 191.101c-2.03 0-4.015-.394-5.9-1.17l-74.278-30.61c-3.155-1.302-5.827-3.645-7.527-6.598l-42.033-73.009c-4.263-7.406-1.707-16.901 5.698-21.166 2.35-1.354 5.022-2.069 7.728-2.069 5.531 0 10.681 2.977 13.44 7.768l39.395 68.428 69.386 28.594c3.828 1.577 6.813 4.551 8.404 8.374 1.591 3.822 1.599 8.036.021 11.863-2.403 5.828-8.029 9.595-14.334 9.595z" fill="#fdc072"/><path d="m287.806 191.101c-6.306 0-11.932-3.768-14.334-9.598-1.577-3.825-1.57-8.039.021-11.861 1.591-3.823 4.576-6.797 8.404-8.374l69.386-28.594 39.394-68.427c2.759-4.792 7.909-7.769 13.44-7.769 2.705 0 5.377.716 7.728 2.069 7.406 4.265 9.962 13.76 5.699 21.166l-42.033 73.009c-1.7 2.953-4.373 5.296-7.524 6.597l-74.278 30.61c-1.889.778-3.874 1.172-5.903 1.172z" fill="#fdc072"/><g><g><path d="m324.02 112.531c0 23.59-12 38.04-30.24 45.53-42.357-5.512-59.571-29.3-59.571-60.56 0-17.66 6.671-41.022 28.181-52.41 25.22 4.41 61.63 32.91 61.63 67.44z" fill="#eaaa83"/><path d="m293.778 158.065c-10.8 4.44-23.793 6.436-37.778 6.436-37.571 0-68.018-14.4-68.018-51.971 0-37.582 43.124-68.018 68.018-68.029 2.018 0 4.156.196 6.393.589-10.778 12.338-17.302 28.483-17.302 46.145 0 31.255 20.444 57.753 48.687 66.83z" fill="#e4996d"/></g></g><g><path d="m306.93 401.761c-2.62 7.61-5.59 14.83-8.87 21.54-11.47 23.45-25.96 38.77-38.64 41.16-20.815-7.227-40.346-48.236-31.436-66.826 10.58-21.17 34.246-9.204 53.576-9.204 9.99 0 18.99 5.12 25.37 13.33z" fill="#f8ea69"/><path d="m321 313.991c0 30.74-5.02 61.58-14.07 87.77-6.38-8.21-15.38-13.33-25.37-13.33-19.33 0-22.027 2.125-32.606 23.288-8.914 18.595-1.544 40.705 10.466 52.742-1.16.22-2.3.33-3.42.33-13.43 0-29.54-15.9-42.06-41.49-14.58-29.8-22.94-69.64-22.94-109.31 0-79.41 32.7-120.96 65-120.96s65 41.55 65 120.96z" fill="#f6ca56"/><path d="m331 313.841v.15c0 11.89-.7 23.479-1.99 34.63 0 0-7.525 6.768-8.01 9.979-.354 2.344 5.57 6.74 5.57 6.74-1.59 9.05-3.57 17.74-5.88 25.98-1.92 6.83-7.28 12.14-14.12 13.98-8.76 2.35-17.9 4.1-27.34 5.2-32.708-17.584-56.969-47.182-63.039-81.592-10.15-57.6 21.528-116.445 63.919-139.538 17.63 9.5 33.62 29.77 42.8 61.38 0 0-6.698 6.431-6.099 8.878.593 2.426 9.679 5.742 9.679 5.742 2.01 9.96 3.41 20.85 4.07 32.68 0 0-5.812 6.877-5.738 9.509s6.178 6.282 6.178 6.282z" fill="#919191"/><path d="m238.42 325.581c6.07 34.41 21.08 64.09 40.81 84.92-7.56.88-15.32 1.34-23.23 1.34-17.76 0-34.78-2.31-50.57-6.54-6.84-1.84-12.2-7.15-14.12-13.98-2.34-8.35-4.34-17.15-5.94-26.32 0 0 7.413-3.341 7.048-5.8-.457-3.082-9.458-10.861-9.458-10.861-1.27-11.07-1.96-22.56-1.96-34.35v-.45s8.597-2.968 8.668-5.506c.076-2.709-8.208-10.234-8.208-10.234.66-11.85 2.08-22.76 4.11-32.73 0 0 8.418-3.906 9.011-6.313.607-2.463-5.401-8.297-5.401-8.297 13.3-45.52 40.78-67.43 66.82-67.43 8.05 0 16.24 2.09 24.11 6.34-33.91 24.901-51.84 78.611-41.69 136.211z" fill="#858586"/></g><path d="m256 129.441c-38.66 0-70 33.3-70 61.82 0 13.79 7.29 31.96 12.32 45.53 15.12-15.929 100.24-15.929 115.36 0 5.03-13.57 12.32-31.74 12.32-45.53 0-28.52-31.34-61.82-70-61.82z" fill="#df8a57"/><g><path d="m502.72 386.171c-11.99 27.21-43.99 39.95-82.2 25.73-38.98-15.55-69.08-45.31-104.84-95.08 46.209-41.726 120.862-6.144 154.25 19.37 14.16 14.03 25.36 28 32.5 41.31 1.43 2.68 1.51 5.89.29 8.67z" fill="#fce3a0"/><path d="m469.93 336.191c-27.51-11.77-97.91-37.41-154.25-19.37-8.44-11.73-17.18-24.57-26.43-38.59-9.12-13.83-12.11-30.82-8.28-46.93l2.48-10.41c68.4 26.61 142.02 71.25 186.48 115.3z" fill="#f9d171"/></g><g><path d="m196.32 316.821c-35.76 49.77-65.86 79.53-104.84 95.08-38.21 14.22-70.21 1.48-82.2-25.73-1.22-2.78-1.14-5.99.29-8.67 7.14-13.31 18.34-27.28 32.5-41.31 34.639-25.869 109.858-61.042 154.25-19.37z" fill="#fce3a0"/><path d="m42.072 336.191c27.51-11.77 97.91-37.41 154.25-19.37 8.44-11.73 17.18-24.57 26.43-38.59 9.12-13.83 12.11-30.82 8.28-46.93l-2.48-10.41c-68.4 26.61-142.02 71.25-186.48 115.3z" fill="#f9d171"/></g><g><path d="m213.47 243.631c-19.42 11.43-39.12 22.19-58.51 31.88-48.504-8.592-68.17-49.26-32.85-87.8v-.01c25.16-9.13 52.15-15.4 78.41-18.6 1.25-.15 2.49-.23 3.73-.23 12.79 0 24.42 8 28.89 20.27 7.47 20.53-.84 43.4-19.67 54.49z" fill="#eaaa83"/><path d="m154.964 275.511c-51.1 25.55-100.09 43.72-136.25 47.45-5.51.57-10.47-3.52-10.92-9.05-4.74-58.97 48.56-102.35 114.32-126.21-19.12 33.192 1.833 73.441 32.85 87.81z" fill="#e4996d"/></g><g><path d="m504.207 313.911c-.45 5.53-5.41 9.62-10.92 9.05-32.26-3.33-74.72-18.15-119.78-39.44-22.732-16.796-30.667-26.15-34.657-33.06-18.04-31.24 3.157-59.36 33.527-68.57 73.5 22.2 136.98 67.89 131.83 132.02z" fill="#eaaa83"/><path d="m373.507 283.521c-24.63-11.63-50.04-25.21-74.98-39.89-18.83-11.09-27.14-33.96-19.67-54.49 4.47-12.27 16.1-20.27 28.89-20.27 1.24 0 2.48.08 3.73.23 20.26 2.47 40.95 6.76 60.9 12.79-25.22 15.15-31.11 52.38-13.07 83.62 3.99 6.91 8.82 12.95 14.2 18.01z" fill="#e4996d"/></g></g><g><g><path d="m283.449 111c-4.142 0-7.5-3.357-7.5-7.5v-12c0-4.143 3.358-7.5 7.5-7.5s7.5 3.357 7.5 7.5v12c0 4.143-3.358 7.5-7.5 7.5z"/><path d="m228.551 111c-4.142 0-7.5-3.357-7.5-7.5v-12c0-4.143 3.358-7.5 7.5-7.5s7.5 3.357 7.5 7.5v12c0 4.143-3.358 7.5-7.5 7.5z"/></g><path d="m256 512c-4.142 0-7.5-3.357-7.5-7.5v-9.713c0-4.143 3.358-7.5 7.5-7.5s7.5 3.357 7.5 7.5v9.713c0 4.143-3.358 7.5-7.5 7.5z"/><path d="m313.309 487.245c-1.883 0-3.768-.704-5.225-2.12l-10-9.713c-2.971-2.886-3.041-7.634-.154-10.605s7.634-3.04 10.605-.154l10 9.713c2.971 2.886 3.041 7.634.154 10.605-1.47 1.513-3.425 2.274-5.38 2.274z"/><path d="m198.691 487.245c-1.956 0-3.91-.761-5.38-2.274-2.886-2.972-2.817-7.72.154-10.605l10-9.713c2.971-2.885 7.719-2.816 10.605.154 2.886 2.972 2.817 7.72-.154 10.605l-10 9.713c-1.457 1.415-3.342 2.12-5.225 2.12z"/><path d="m494.339 330.516c4.051 0 7.941-1.402 11.111-4.036 3.636-3.02 5.848-7.268 6.231-11.968 3.229-40.203-18.095-76.688-61.667-105.507-24.701-16.339-56.05-29.588-89.906-38.322l10.745-4.429c4.667-1.928 8.629-5.404 11.157-9.791l42.026-73.004c3.066-5.313 3.875-11.51 2.279-17.448-1.597-5.94-5.405-10.898-10.722-13.959-3.487-2.009-7.455-3.07-11.474-3.07-8.211 0-15.852 4.419-19.939 11.526l-38.124 66.204-18.229 7.515c2.442-6.544 3.693-13.817 3.693-21.695 0-19.101-9.659-38.178-27.199-53.718-3.323-2.944-6.806-5.645-10.373-8.066 14.033-13.893 30.327-26.23 48.551-36.751 3.587-2.07 4.817-6.657 2.746-10.245s-6.659-4.817-10.245-2.746c-20.634 11.91-38.968 26.048-54.576 42.075-8.514-3.906-16.975-6.077-24.428-6.08-7.45.003-15.909 2.174-24.422 6.08-15.606-16.027-33.941-30.165-54.574-42.075-3.588-2.071-8.174-.843-10.245 2.745s-.841 8.175 2.746 10.245c18.224 10.521 34.518 22.858 48.551 36.751-3.567 2.422-7.05 5.122-10.373 8.066-17.54 15.54-27.199 34.617-27.199 53.718 0 7.878 1.25 15.151 3.693 21.695l-18.229-7.515-38.122-66.199c-4.09-7.112-11.731-11.531-19.942-11.531-4.033 0-8.005 1.064-11.472 3.069-5.318 3.062-9.127 8.02-10.724 13.96-1.596 5.938-.787 12.135 2.275 17.442l42.032 73.012c2.529 4.39 6.497 7.867 11.17 9.791l10.693 4.407c-19.219 4.948-37.677 11.376-54.726 19.106-3.772 1.711-5.444 6.156-3.733 9.929 1.71 3.771 6.156 5.443 9.928 3.733 29.461-13.359 63.387-22.656 98.093-26.884.994-.119 1.922-.177 2.84-.177 9.723 0 18.501 6.163 21.842 15.334 6.214 17.077-.695 36.197-16.428 45.463-76.608 45.111-146.489 73.663-191.726 78.333-.881.089-1.51-.312-1.809-.559-.293-.243-.794-.78-.864-1.632-3.594-44.742 29.631-75.721 58.136-93.828 3.497-2.222 4.53-6.856 2.309-10.353-2.221-3.496-6.854-4.53-10.352-2.31-45.87 29.144-68.363 66.384-65.043 107.703.382 4.692 2.594 8.94 6.23 11.96 3.17 2.635 7.06 4.036 11.11 4.036.605 0 1.215-.031 1.825-.095 6.648-.686 13.785-1.854 21.361-3.483-17.134 16.391-30.027 32.355-37.894 47.033-2.479 4.646-2.682 10.334-.536 15.225 6.823 15.483 19.514 27.02 35.737 32.484 7.154 2.41 14.798 3.611 22.771 3.61 10.608 0 21.795-2.126 33.171-6.359.055-.021.109-.041.163-.063 30.902-12.326 56.185-33.082 81.992-63.718 1.778 13.157 4.4 25.947 7.839 38.201 2.353 8.372 8.583 15.154 16.594 18.273 2.012 5.198 4.198 10.22 6.519 14.973 13.999 28.612 32.241 45.694 48.797 45.694s34.798-17.082 48.799-45.699c2.32-4.749 4.505-9.77 6.517-14.968 8.009-3.116 14.24-9.9 16.595-18.276 3.438-12.252 6.06-25.042 7.838-38.199 25.807 30.637 51.09 51.392 81.992 63.718.054.022.108.043.163.063 11.377 4.233 22.562 6.36 33.171 6.359 7.972 0 15.618-1.2 22.771-3.61 16.223-5.465 28.914-17.001 35.742-32.496 2.141-4.879 1.938-10.566-.548-15.226-7.859-14.663-20.744-30.617-37.867-47 7.556 1.618 14.675 2.774 21.339 3.463.612.065 1.221.096 1.827.096zm-140.201-190.911c1.533-.632 2.813-1.754 3.641-3.19l39.403-68.425c2.08-3.764 7.232-5.16 10.926-2.938 3.754 2.058 5.152 7.253 2.932 10.918l-42.029 73.008c-.882 1.53-2.261 2.742-3.879 3.41l-30.672 12.641c-2.878-.529-5.766-1.024-8.662-1.486-1.828-3.304-3.963-6.54-6.351-9.637zm-167.934 23.933c-2.9.461-5.792.955-8.674 1.482l-30.655-12.634c-1.625-.669-3.005-1.879-3.885-3.407l-42.034-73.016c-2.217-3.669-.817-8.857 2.949-10.92 3.681-2.213 8.842-.811 10.915 2.951l39.4 68.42c.828 1.437 2.108 2.559 3.641 3.19l34.691 14.3c-2.386 3.097-4.52 6.332-6.348 9.634zm9.276-51.006c0-8.541 2.877-25.418 22.146-42.49 12.174-10.786 27.596-18.036 38.371-18.04 10.781.004 26.203 7.254 38.377 18.04 19.269 17.072 22.146 33.949 22.146 42.49 0 11.792-3.242 21.061-9.879 28.149-14.492-11.979-32.595-18.739-50.641-18.739-18.047 0-36.153 6.762-50.642 18.738-6.636-7.089-9.878-16.357-9.878-28.148zm10.274 48.869c1.511-1.834 3.135-3.603 4.854-5.283 12.442-12.187 28.987-19.177 45.392-19.177s32.95 6.99 45.398 19.184c1.716 1.677 3.338 3.443 4.848 5.276-15.401.609-29.119 10.57-34.439 25.175-3.753 10.314-4.085 21.159-1.48 31.194-9.394-.565-19.26-.565-28.654 0 2.605-10.036 2.273-20.881-1.481-31.197-5.318-14.602-19.037-24.563-34.438-25.172zm67.99 99.622c-11.731.979-23.596.924-35.448-.167 2.16-9.079 2.448-18.587.749-27.873 10.999-.857 22.912-.857 33.911 0-1.711 9.341-1.409 18.91.788 28.04zm-40.722 14.377c8 .879 16.012 1.319 24 1.319 7.382 0 14.744-.376 22.052-1.127 1.168 2.322 2.473 4.583 3.915 6.769 5.725 8.681 11.275 16.943 16.697 24.796-28.658 6.142-57.887 6.04-87.161-.306 5.355-7.762 10.835-15.922 16.486-24.49 1.482-2.247 2.819-4.572 4.011-6.961zm-144.239 129.503c-32.415 12.032-61.602 3.294-72.635-21.744-.31-.706-.295-1.501.032-2.114 10.228-19.082 30.225-40.937 57.871-63.256 41.247-13.526 90.831-36.838 143.231-67.694 2.829-1.667 5.453-3.562 7.861-5.65.137 10.448-2.836 20.837-8.654 29.659-46.327 70.243-80.405 111.9-127.706 130.799zm224.687-15.611c-1.198 4.262-4.588 7.62-8.842 8.765-10.256 2.749-20.946 4.617-31.773 5.552-4.127.356-7.184 3.991-6.827 8.118.337 3.907 3.613 6.854 7.464 6.854 6.634-.473 13.234-1.427 19.727-2.594-.62 1.361-1.252 2.701-1.895 4.018-12.602 25.757-26.821 37.286-35.323 37.286s-22.721-11.529-35.321-37.281c-.644-1.318-1.276-2.66-1.897-4.022 6.492 1.166 13.092 2.121 19.727 2.594 3.85 0 7.126-2.948 7.464-6.854.356-4.127-2.7-7.762-6.827-8.118-10.827-.935-21.517-2.803-31.767-5.55-4.26-1.146-7.65-4.505-8.847-8.764-1.988-7.086-3.689-14.367-5.095-21.807 21.265 6.126 42.495 9.189 63.589 9.189 20.654 0 41.179-2.939 61.467-8.813-1.394 7.307-3.07 14.462-5.024 21.427zm7.648-37.925c-42.578 13.836-86.36 13.718-130.28-.346-.523-4.101-.96-8.24-1.31-12.411 4.509-5.867 9.064-12.035 13.698-18.511 17.974 4.397 35.95 6.596 53.826 6.596 17.445 0 34.795-2.095 51.946-6.284 4.557 6.362 9.038 12.426 13.474 18.199-.36 4.288-.812 8.543-1.354 12.757zm81.659-46.671c12.379 5.102 24.126 9.478 35.204 13.119 27.629 22.31 47.615 44.155 57.832 63.217.334.626.349 1.421.044 2.115-11.039 25.05-40.225 33.786-72.64 21.756-47.301-18.898-81.379-60.556-127.706-130.8-5.819-8.824-8.792-19.214-8.655-29.66 2.408 2.088 5.033 3.984 7.863 5.651 25.709 15.14 51.18 28.688 75.703 40.27 3.745 1.769 8.215.166 9.984-3.579 1.769-3.746.167-8.216-3.579-9.985-24.114-11.388-49.178-24.721-74.497-39.631-15.733-9.266-22.642-28.386-16.429-45.46 3.342-9.174 12.12-15.337 21.843-15.337.918 0 1.847.058 2.824.175 49.21 5.99 97.02 22.382 131.17 44.97 27.015 17.868 58.484 48.299 54.991 91.787-.07.859-.572 1.396-.865 1.64-.298.247-.923.646-1.809.559-22.759-2.354-51.547-10.656-85.564-24.675-3.828-1.573-8.213.248-9.792 4.077s.248 8.213 4.078 9.791z"/></g></g></svg>