<svg id="Capa_1" enable-background="new 0 0 512 512" height="512" viewBox="0 0 512 512" width="512" xmlns="http://www.w3.org/2000/svg"><g><g><path d="m188.104 432.096c-1.82 0-3.612-.318-5.328-.947-3.887-1.423-6.988-4.274-8.73-8.03-1.743-3.755-1.919-7.965-.496-11.853l28.916-78.999-17.715-11.728c-3.61-2.393-6.07-6.215-6.75-10.488l-10.032-63.008c-.651-4.089.329-8.186 2.76-11.537 2.431-3.353 6.021-5.557 10.11-6.207.795-.13 1.633-.197 2.463-.197 7.65 0 14.076 5.496 15.28 13.067l8.962 56.281 22.241 14.725c6.01 3.979 8.476 11.484 5.999 18.252l-33.123 90.495c-2.227 6.085-8.077 10.174-14.557 10.174z" fill="#e4996d"/><g><path d="m493.46 198.23c-10.98 17.09-24.14 31.42-38.83 43.2 0 0-6.046-3.677-9.16-1.492-4.372 3.068-13.45 16.952-13.45 16.952-11.45 6.64-23.53 12.02-36.01 16.21 0 0-7.92-.174-11.93.926l-6.022.755c-105.831-57.667-104.135-180.878-60.823-236.375 3.9-.11 11.745-1.837 11.745-1.837 11.46.27 22.92 1.34 34.23 3.28h.01s10.531 11.736 13.942 12.485 6.528-7.995 6.518-7.995h.01c14.59 3.94 28.74 9.41 42.14 16.52 0 0 9.635 13.316 13.936 16.07 3.136 2.008 8.494-2.039 8.494-2.039 17.27 12.61 32.65 28.53 45.2 48.06 14.72 22.9 14.72 52.38 0 75.28z" fill="#d97c41"/><path d="m371.78 279.7c-11.19 2.36-22.57 3.86-33.98 4.54 0 0-4.793-4.602-7.943-4.537-3.557.074-12.167 4.906-12.167 4.906-11.25-.24-22.44-1.26-33.45-3.01h-.01s-2.363-6.272-5.189-6.82-11.761 3.539-11.761 3.539c-67.43-15.488-124.28-58.378-135.04-117.728 10.25-56.56 62.37-98.17 125.6-115.37 0 0 7.412 3.554 9.71 2.999 2.958-.714 6.08-6.739 6.08-6.739 12.24-2.48 24.79-4.06 37.43-4.68 0 0 5.472 2.844 5.131 4.487-10.414 50.143-3.246 168.017 64.612 232.417 1.077 1.022-9.023 5.996-9.023 5.996z" fill="#c76d33"/></g><g fill="#e4996d"><path d="m113.101 341.765c-1.883 0-3.734-.34-5.501-1.012-7.988-3.032-12.021-12-8.989-19.99l13.433-35.383-7.492-60.19c-1.056-8.481 4.984-16.24 13.466-17.296.643-.079 1.28-.118 1.911-.118 7.807 0 14.421 5.84 15.385 13.584l7.968 64.009c.312 2.495.004 5.059-.889 7.413l-14.799 38.982c-2.273 5.982-8.097 10.001-14.493 10.001z"/><path d="m51.899 341.765c-6.396 0-12.221-4.019-14.491-10l-14.799-38.98c-.894-2.357-1.201-4.921-.89-7.418l7.968-64.007c.964-7.745 7.573-13.586 15.373-13.586.641 0 1.288.041 1.926.12 4.105.512 7.77 2.592 10.312 5.859 2.543 3.267 3.662 7.328 3.15 11.437l-7.492 60.19 13.433 35.382c3.032 7.991-1.001 16.959-8.99 19.992-1.763.67-3.615 1.011-5.5 1.011z"/></g><path d="m369.112 475.5c-5.442 0-10.55-2.904-13.329-7.579l-64.798-108.979c-1.663-2.795-2.397-5.987-2.123-9.229l5.623-66.335-28.317 14.319c-2.159 1.092-4.576 1.668-6.991 1.668-4.488 0-8.752-1.94-11.697-5.324l-32.069-36.854c-5.609-6.446-4.929-16.255 1.517-21.867 2.826-2.456 6.438-3.808 10.174-3.808 4.488 0 8.752 1.941 11.696 5.326l24.148 27.751 42.335-21.409c2.159-1.092 4.577-1.668 6.994-1.668 3.102 0 6.1.917 8.671 2.651 4.653 3.141 7.249 8.565 6.775 14.158l-7.548 89.053 62.255 104.704c2.116 3.559 2.72 7.729 1.7 11.741-1.021 4.013-3.543 7.389-7.103 9.504-2.394 1.424-5.131 2.177-7.913 2.177z" fill="#e4996d"/><g><path d="m155.67 80.37c31.036 12.277 52.113 62.533 52.113 104.543 0 26.06-11.85 63.433-31.373 69.687-19.38-9.34-38.36-20-49.61-16.24-57.62 19.25-75.52-71.3-82.71-112.09 0 0 37.34-22.58 111.58-45.9z" fill="#e4996d"/><path d="m233.33 258.194c-12.29 15.95-34.87 7.03-56.92-3.59 9.13-20.42 14.42-44.7 14.42-70.76 0-42.01-13.76-79.41-35.16-103.47 15.42-4.85 32.44-9.72 51.04-14.43 0 0 99.22 98.07 26.62 192.25z" fill="#df8a57"/></g><g><path d="m157.5 188.23c0 36.46-30.9 67.15-58.96 76.28-26.492-10.81-99.652-72.832-11.89-147.12 39.49 1.75 70.85 28.65 70.85 70.84z" fill="#efb899"/><path d="m98.546 264.517c-5.546 1.808-10.981 2.773-16.046 2.773-30.68 0-75-35.4-75-79.06s33.58-70.94 75-70.94c1.39 0 2.78.03 4.15.1-60.899 74.898 11.896 147.127 11.896 147.127z" fill="#eaaa83"/></g></g><g><g><path d="m117.5 200.778c-4.143 0-7.5-3.357-7.5-7.5v-12c0-4.143 3.357-7.5 7.5-7.5s7.5 3.357 7.5 7.5v12c0 4.143-3.357 7.5-7.5 7.5z"/><path d="m47.5 200.778c-4.143 0-7.5-3.357-7.5-7.5v-12c0-4.143 3.357-7.5 7.5-7.5s7.5 3.357 7.5 7.5v12c0 4.143-3.357 7.5-7.5 7.5z"/></g><path d="m499.79 118.906c-30.381-47.271-80.144-78.243-140.123-87.213-53.477-7.999-110.165 1.921-155.714 27.212-105.819 26.902-160.909 59.258-163.601 60.863-5.794 3.04-11.14 6.742-15.916 11.063-15.758 14.256-24.436 34.643-24.436 57.404 0 18.312 6.944 36.447 19.768 52.101l-5.491 44.11c-.457 3.694-.002 7.494 1.322 11.004l14.8 38.979c3.368 8.876 12.01 14.839 21.502 14.839 2.802 0 5.55-.505 8.159-1.498 5.737-2.176 10.286-6.463 12.809-12.072 2.521-5.606 2.71-11.853.533-17.591l-12.769-33.641 1.676-13.473c6.946 2.467 13.814 3.798 20.192 3.798 6.377 0 13.246-1.331 20.192-3.798l1.676 13.473-12.77 33.642c-2.176 5.737-1.986 11.983.534 17.59 2.522 5.609 7.071 9.896 12.813 12.074 2.624.993 5.367 1.496 8.154 1.496 9.492 0 18.134-5.963 21.502-14.838l14.806-38.995c1.318-3.495 1.773-7.295 1.315-10.994l-4.445-35.709c4.795 1.907 10.035 4.393 15.486 7.053l8.829 55.444c1.008 6.346 4.658 12.02 10.018 15.568l12.78 8.46-4.983 13.619c-1.424 3.89.575 8.196 4.466 9.62.851.312 1.721.459 2.576.459 3.059 0 5.932-1.885 7.044-4.925l7.02-19.181c1.193-3.261-.008-6.914-2.903-8.831l-17.719-11.729c-1.863-1.234-3.133-3.207-3.484-5.417l-7.188-45.133c5.699 2.63 11.536 5.095 17.31 6.986l4.605 28.907c.33 2.074 1.515 3.915 3.267 5.074l22.243 14.726c3.101 2.057 4.373 5.931 3.094 9.423l-33.118 90.494c-1.437 4.073-6.223 6.322-10.268 4.757-4.063-1.374-6.315-6.245-4.759-10.255l9.87-26.95c1.424-3.89-.574-8.197-4.464-9.622-3.887-1.422-8.197.575-9.622 4.464l-9.873 26.958c-2.111 5.785-1.845 12.034.739 17.572 2.584 5.581 7.188 9.815 12.944 11.917 2.545.937 5.207 1.412 7.912 1.412 9.61 0 18.291-6.062 21.604-15.093l33.119-90.498c3.676-10.034.021-21.17-8.893-27.083l-19.502-12.91-3.161-19.844c1.292.111 2.571.17 3.834.17 1.699 0 3.368-.106 5.001-.331l21.719 24.96c4.365 5.02 10.692 7.898 17.358 7.898 3.588 0 7.174-.853 10.375-2.467l16.326-8.256-4.494 52.948c-.403 4.83.692 9.569 3.157 13.688l64.788 108.977c4.121 6.939 11.7 11.25 19.778 11.25 4.138 0 8.203-1.119 11.753-3.233 5.28-3.139 9.021-8.146 10.535-14.097 1.512-5.942.618-12.127-2.522-17.423l-61.029-102.642 4.543-53.592c71.499-2.568 132.242-35.029 167.399-89.73 16.282-25.326 16.282-58.06.002-83.388zm-174.662 119.039c-3.825-2.565-8.271-3.922-12.858-3.922-1.557 0-3.117.163-4.647.48 7.813-28.012 8.965-61.354 3.125-95.849-5.649-33.369-17.412-65.667-32.77-90.449 12.483-2.37 25.224-3.758 38.01-4.125 35.869 55.773 56.53 157.465 18.893 218.577l.313-3.694c.698-8.3-3.151-16.349-10.066-21.018zm-265.941 91.603c-.877 1.952-2.456 3.443-4.453 4.2-.908.346-1.861.521-2.833.521-3.301 0-6.307-2.074-7.479-5.162l-14.794-38.966c-.464-1.229-.625-2.561-.466-3.846l4.027-32.349c4.714 3.978 9.714 7.476 14.829 10.415l-2.501 20.101c-.151 1.213-.003 2.444.431 3.587l13.429 35.38c.756 1.992.688 4.165-.19 6.119zm76.191-39.422-14.8 38.981c-1.172 3.087-4.178 5.161-7.479 5.161-.967 0-1.925-.177-2.841-.523-1.989-.754-3.568-2.245-4.445-4.197-.879-1.954-.946-4.127-.191-6.118l13.43-35.381c.434-1.143.582-2.374.431-3.587l-2.5-20.101c5.115-2.938 10.115-6.437 14.829-10.415l4.026 32.344c.159 1.29-.002 2.621-.46 3.836zm-52.878-30.334c-26.655 0-67.5-32.058-67.5-71.557 0-37.354 27.757-63.443 67.5-63.443s67.5 26.089 67.5 63.443c0 39.499-40.845 71.557-67.5 71.557zm90.041-15.428c-.017-.008-.034-.017-.051-.025-7.865-3.865-15.449-7.592-22.533-10.264 9.795-14.137 15.042-29.921 15.042-45.84 0-22.762-8.678-43.148-24.436-57.404-12.319-11.145-28.433-18.177-46.237-20.332 15.657-6.512 35.274-13.922 58.849-21.472 19.214 23.708 30.154 57.944 30.154 94.821.001 21.327-3.714 42.08-10.788 60.516zm13.581 6.466c8.002-20.42 12.208-43.414 12.208-66.982 0-37.926-10.783-73.522-29.876-99.56 11.172-3.354 23.119-6.706 35.842-9.987 7.16 7.843 26.131 30.312 37.978 60.039 1.17 2.937 3.988 4.726 6.969 4.726.924 0 1.864-.172 2.774-.535 3.848-1.533 5.725-5.895 4.19-9.743-11.228-28.174-28.066-49.976-37.405-60.764 13.72-6.886 28.391-12.349 43.601-16.316 31.452 47.201 49.952 131.226 26.625 191.302l-24.253 12.267-11.858-13.629c12.697-24.077 17.079-50.026 13.032-77.428-.605-4.098-4.418-6.924-8.516-6.324-4.098.605-6.929 4.418-6.324 8.516 4.642 31.43-3.339 60.77-23.721 87.206-7.518 9.755-21.857 6-41.266-2.788zm189.856 205.089c2.277 3.669.966 8.841-2.786 10.972-3.656 2.271-8.835.941-10.966-2.79l-64.801-108.998c-.854-1.428-1.231-3.072-1.092-4.745l5.629-66.329c.23-2.709-1.023-5.331-3.277-6.852-2.253-1.52-5.15-1.704-7.58-.477l-28.313 14.317c-1.11.561-2.359.856-3.612.856-2.323 0-4.524-.999-6.041-2.743l-18.608-21.384c1.671-1.4 3.255-3.049 4.739-4.974 1.939-2.516 3.779-5.055 5.519-7.618l12.504 14.372c2.255 2.591 5.98 3.32 9.043 1.77l42.323-21.406c2.574-1.298 5.744-1.077 8.095.5 2.398 1.619 3.737 4.422 3.493 7.311l-7.55 89.05c-.132 1.56.228 3.121 1.027 4.467zm61.716-211.488c-11.047 7.377-23.018 13.585-35.755 18.545 7.628-14.537 12.873-31.232 15.649-49.877.61-4.097-2.216-7.912-6.313-8.522-4.085-.604-7.913 2.215-8.522 6.313-3.498 23.485-11.207 43.398-22.924 59.235-11.538 3.011-23.57 5.085-36.002 6.174 20.096-29.008 28.979-69.387 25.158-115.804-3.386-41.133-16.379-83.524-35.338-116.27 7.972.362 15.923 1.126 23.802 2.304 3.815.57 7.584 1.234 11.305 1.989 21.5 35.615 35.267 84.579 36.068 128.673.075 4.095 3.417 7.363 7.496 7.363.046 0 .093 0 .14-.001 4.141-.075 7.438-3.494 7.362-7.636-.755-41.496-12.417-87.142-31.066-123.314 14.714 4.535 28.541 10.638 41.337 18.26.367.219.733.438 1.098.659 10.733 25.541 17.366 56.285 18.715 86.873 1.403 31.861-2.815 61.198-12.21 85.036zm49.477-50.245c-8.118 12.63-17.731 23.976-28.626 33.927 10.514-42.431 8.379-94.758-5.812-140.221 13.344 11.152 24.873 24.241 34.438 39.124 13.114 20.402 13.114 46.768 0 67.17z"/></g></g></svg>