<svg id="Capa_1" enable-background="new 0 0 512 512" height="512" viewBox="0 0 512 512" width="512" xmlns="http://www.w3.org/2000/svg"><g><g><g><path d="m339.14 117.152c-21.99 55.15-71.22 93.32-162.67 152.17l-2.18-1.83-11.67-9.79-17.2-14.43c46.53-89.54 107.77-177.34 157.49-211.01 2.88-1.94 6.55-2.33 9.71-.91 8.34 3.75 15.36 9.3 20.72 16.3 0 0-4.588 9.94-3.469 11.834 1.471 2.49 10.989 1.476 10.989 1.476 6.13 15.43 6.21 34.89-1.72 56.19z" fill="#fad989"/></g><path d="m77.352 441.731 31.181-85.685c7.121-19.569 31.525-26.108 47.477-12.721l-17.033 31.404-31.676 87.03c-4.313 11.852-15.579 19.74-28.191 19.74h-23.656c-7.886 0-14.278-6.393-14.278-14.278 0-6.352 4.196-11.94 10.297-13.712l19.27-5.595c3.063-.888 5.518-3.185 6.609-6.183z" fill="#858586"/><path d="m503.6 404.31c-5.1 28.93-32.29 55.61-80.16 62.23 0 0-4.238-4.351-7.48-4.095s-11.979 5.625-11.979 5.625c-13.36.3-28.02-.81-43.96-3.62-1.89-.33-3.77-.69-5.64-1.06 0 0-2.473-5.949-4.865-6.492-3.031-.688-11.365 2.742-11.365 2.742-14.89-3.91-28.87-8.97-41.68-14.84 0 0 .441-8.735-1.849-9.877-2.295-1.144-11.901 3.026-11.901 3.026-44.4-23.97-71.15-57.62-66.45-84.31 5.73-32.45 58.68-58.66 125.29-59.03 0 0 4.335 7.743 6.738 7.794 2.602.056 8.282-7.455 8.282-7.455 10.66.56 21.59 1.78 32.67 3.73 3.22.57 6.37 1.18 9.44 1.85 0 0 2.707 8.265 5.29 8.911 2.374.594 9.61-5.211 9.61-5.211 16.06 4.55 29.84 10.43 41.47 17.23 0 0 3.697 10.755 6.131 12.398 2.434 1.644 8.469-2.549 8.469-2.549 27.719 21.603 38.149 49.154 33.939 73.003z" fill="#919191"/><g><path d="m271.52 329.78c-9.36 25.71-33.56 42.68-63.14 47.79-37.828-18.771-62.96-52.853-62.96-91.094 0-28.39 13.844-56.437 43.34-73.456 4.37 1.09 8.74 2.42 13.1 4.01 53.98 19.65 85.17 70.13 69.66 112.75z" fill="#858586"/><path d="m208.38 377.571c-19.47 3.37-41.27 1.6-62.7-6.2-53.99-19.65-85.18-70.13-69.67-112.75 14.27-39.18 63.03-58.08 112.75-45.6-16.75 19.28-26.99 45.12-26.99 73.51 0 38.239 18.58 71.839 46.61 91.04z" fill="#767678"/></g><g><g><path d="m147.5 267.68c0 27.62-18.99 51.69-40.14 64.33-44.164-3.657-64.857-36.58-64.857-71.08 0-20.7 9.064-48.421 35.467-59.45 38.44.2 69.53 25.63 69.53 66.2z" fill="#9c9c9c"/><path d="m107.371 332.008c-10.074 6.026-20.631 9.463-29.871 9.463-28.636 0-70-33.034-70-73.786 0-40.746 31.341-66.214 70-66.214.14.038.293.006.433.006.013-.006.025-.006.038 0-11.945 14.496-19.161 33.409-19.161 54.11 0 34.503 20.058 64.05 48.561 76.421z" fill="#919191"/></g></g><g><path d="m440.8 157.41s-11.589 3.676-15.129 7.835c-.47.53 4.359 6.344 4.359 6.344-16.29 17.84-35.61 31.92-59.45 43.93v-.01c-46.667 3.648-66.499-16.447-71.619-45.477-2.06-11.64-.247-28.136 13.469-45.063 10.21-6.8 20.29-13.17 30.15-19.04 0 0 5.262 7.61 7.968 6.06 2.902-1.662 8.842-15.671 8.842-15.671 24.62-13.48 47.51-23.31 67.29-28.18 3.26-.8 6.72.12 9.15 2.43 3.99 3.79 7.37 7.99 10.1 12.52 0 0-3.006 8.829-1.992 11.13 1.082 2.455 8.212 3.14 8.212 3.14 5.16 18.102 1.87 39.332-11.35 60.052z" fill="#fff1cf"/><path d="m370.58 215.51v.01c-.82.42-1.65.83-2.48 1.24 0 0-18.627 1.493-25.921 4.46-3.904 1.588-6.909 9.49-6.909 9.49-29.91 11.1-65.66 20.73-109.02 30.88-2.19.51-4.39.76-6.57.76-8.24 0-16.13-3.55-21.61-9.75-1.26-1.43-2.39-2.99-3.37-4.68-1.61-2.8-2.71-5.77-3.31-8.8-1.96-9.84 1.31-20.3 9.17-27.24 14.43-12.74 29.2-25.17 44.06-37.05 0 0 4.745 4.798 7.12 2.927 3.223-2.539 9.68-16.117 9.68-16.117 17.12-13.16 34.24-25.5 51.01-36.67-4.14 10.76-5.5 22.34-3.44 33.98 5.12 29.03 30.04 50.43 61.59 56.56z" fill="#fce3a0"/></g><path d="m225.825 441.731-31.181-85.685c-7.121-19.569-31.525-26.108-47.477-12.721l-9.273 7.782c-6.686 5.611-8.216 15.29-3.587 22.69 5.639 9.012 17.943 10.958 26.087 4.125 1.85-1.552 4.679-.794 5.505 1.475l29.977 82.362c4.313 11.852 15.579 19.74 28.191 19.74h23.656c7.886 0 14.278-6.393 14.278-14.278 0-6.352-4.197-11.94-10.297-13.712l-19.27-5.595c-3.064-.888-5.519-3.185-6.609-6.183z" fill="#9c9c9c"/><path d="m210.93 348.97 118.13-84.14c3.69-2.63 7.95-3.9 12.18-3.9 13.855.487 16.975 8.23 20.99 19.84l66.88 168.87c1.66 5.18 5.35 7.71 9.47 7.71l13.89.01c2.92 0 5.63 1.05 7.73 2.81 2.11 1.77 3.61 4.26 4.11 7.13 1.3 7.35-4.34 14.1-11.81 14.12l-26.76.08c-12.32.04-23.41-7.45-27.97-18.9l-56.313-141.454c-1.326-3.33-5.622-4.225-8.166-1.701l-80.211 79.555c-6.43 6.37-14.77 9.52-23.1 9.52-9.33 0-18.63-3.95-25.15-11.73-12.3-14.67-9.49-36.71 6.1-47.82z" fill="#a8a8a8"/></g><g><g><path d="m112.503 281.974c-4.143 0-7.5-3.357-7.5-7.5v-12c0-4.143 3.357-7.5 7.5-7.5s7.5 3.357 7.5 7.5v12c0 4.142-3.357 7.5-7.5 7.5z"/><path d="m42.503 281.974c-4.143 0-7.5-3.357-7.5-7.5v-12c0-4.143 3.357-7.5 7.5-7.5s7.5 3.357 7.5 7.5v12c0 4.142-3.357 7.5-7.5 7.5z"/></g><path d="m487.301 337.149c-21.519-22.624-54.971-38.479-96.741-45.848-5.67-1-11.393-1.825-17.07-2.464l-4.225-10.668c-3.905-11.304-8.396-24.044-27.76-24.729-.088-.003-.176-.005-.265-.005-5.957 0-11.675 1.83-16.532 5.292l-43.62 31.071c-2.321-10.552-6.731-20.918-13.071-30.713 44.717-11.577 81.812-23.786 112.304-40.173 3.648-1.961 5.017-6.509 3.056-10.157s-6.508-5.02-10.157-3.056c-7.068 3.799-14.654 7.44-22.961 10.992-20.581-.806-39.178-4.408-55.476-10.733 26.127-14.71 52.33-31.16 78.843-49.504 14.105 6.749 29.917 11.438 47.181 14-5.931 6.109-12.239 11.715-19.135 17.014-3.285 2.523-3.901 7.232-1.378 10.517 2.521 3.284 7.23 3.903 10.517 1.378 9.643-7.408 18.227-15.374 26.244-24.352.04-.045.079-.09.117-.135 15.765-18.52 24.335-38.916 24.784-58.984.437-19.465-7.007-37.489-20.957-50.751-4.308-4.098-10.331-5.696-16.11-4.279-20.577 5.063-45.15 15.592-72.34 30.711 2.253-30.175-11.283-55.571-36.853-67.057-5.521-2.481-11.868-1.908-16.989 1.541-40.538 27.453-91.134 91.343-139.174 175.646-12.56-.116-24.826 1.65-36.278 5.299-4.84-3.196-10.137-5.863-15.823-7.933 5.935-11.941 17.059-24.89 37.902-32.135 3.912-1.36 5.981-5.634 4.621-9.547-1.359-3.912-5.631-5.98-9.547-4.621-27.96 9.719-41.384 28.103-47.783 42.436-4.854-.807-9.906-1.226-15.125-1.226-5.218 0-10.27.419-15.124 1.226-6.4-14.333-19.825-32.716-47.783-42.436-3.917-1.359-8.188.71-9.547 4.621-1.36 3.913.709 8.187 4.621 9.547 20.961 7.287 32.097 20.189 38.009 32.096-28.806 10.441-47.676 36.158-47.676 68.656 0 20.705 9.436 41.158 26.568 57.593 15.238 14.617 34.754 23.697 50.932 23.697 5.01 0 10.314-.864 15.7-2.483 2.562 2.651 5.249 5.191 8.058 7.616l-30.956 85.068c-.271.744-.879 1.315-1.654 1.538l-19.255 5.596c-4.573 1.318-8.5 4.034-11.35 7.843-2.812 3.745-4.362 8.388-4.362 13.073 0 12.01 9.766 21.78 21.77 21.78h23.66c15.709 0 29.87-9.917 35.238-24.675l27.607-75.85c2.3.685 4.721 1.044 7.205 1.044 3.996 0 7.919-.969 11.431-2.778l28.241 77.582c5.368 14.76 19.529 24.677 35.238 24.677h23.65c12.009 0 21.779-9.771 21.779-21.78 0-4.686-1.549-9.328-4.366-13.078-2.867-3.812-6.793-6.522-11.341-7.834l-19.29-5.605c-.75-.216-1.363-.796-1.635-1.537l-8.572-23.545c1.869.264 3.767.4 5.684.4 2.685 0 5.33-.262 7.908-.773 28.667 27.204 73.446 48.233 120.836 56.59 13.216 2.331 26.026 3.592 38.145 3.758 6.982 8.384 17.391 13.406 28.768 13.406h.126l26.758-.08c5.779-.016 11.22-2.567 14.927-7 3.706-4.433 5.255-10.238 4.251-15.907-.39-2.238-1.168-4.376-2.281-6.323 22.717-12.548 37.651-31.793 41.576-54.076 4.117-23.357-4.517-48.313-23.693-68.474zm-74.064-25.215c15.731 4.608 29.667 10.684 41.501 18.083-1.954 34.643-10.699 67.587-26.05 98.195l-24.467-61.78c4.831-17.537 7.854-35.818 9.016-54.498zm-25.282-5.861c3.56.628 7.052 1.32 10.473 2.075-.586 11.419-1.906 22.682-3.943 33.702l-14.686-37.083c2.722.393 5.445.829 8.156 1.306zm-68.581-77.703c-24.916 8.406-55.526 16.72-94.824 25.921-1.609.375-3.248.564-4.87.564-5.243 0-10.24-1.948-14.083-5.318 16.049-6.632 32.293-14.014 48.414-22.001 8.063-3.996 16.121-8.149 24.182-12.466 12.438 6.069 26.211 10.514 41.181 13.3zm-76.371-12.136c-14.837 7.239-29.75 13.943-44.482 19.996-.874-6.858 1.598-13.947 7.002-18.72 12.851-11.344 25.647-22.18 38.297-32.45-1 14.083-.965 25.139-.817 31.174zm96.417-54.89c-27.341 17.771-54.411 33.515-81.479 47.411.029-8.674.443-21.593 2.119-36.633 28.464-22.241 55.969-41.425 81.444-56.868-2.376 21.428-2.298 38.468-2.084 46.09zm106.342-58.836c3.674 16.823-.899 36.056-13.532 54.246-16.16-1.593-30.99-5.074-44.266-10.383 19.057-13.618 38.294-28.22 57.798-43.863zm-87.919 3.198c26.678-14.982 50.679-25.367 70.624-30.275.773-.188 1.617.032 2.195.582 3.801 3.613 6.933 7.581 9.403 11.826-29.102 23.498-57.578 44.64-85.718 63.62.094-10.733.792-27.088 3.496-45.753zm-120.604 65.399c29.042-38.509 60.441-72.171 97.51-104.801 3.429 10.193 3.985 22.113 1.298 34.815-30.743 18.449-64.275 42.156-98.808 69.986zm69.861-132.616c.763-.516 1.699-.627 2.447-.289 7.413 3.33 13.49 8.26 18.079 14.401-52.818 46.074-94.358 93.975-133.615 154.053-5.94-1.655-11.92-2.895-17.885-3.721 45.288-78.24 93.838-139.295 130.974-164.444zm-206.847 420.714c-3.221 8.854-11.718 14.804-21.143 14.804h-23.66c-3.732 0-6.77-3.042-6.77-6.78 0-1.479.469-2.884 1.364-4.076.885-1.182 2.097-2.021 3.519-2.432l19.243-5.592c5.354-1.534 9.688-5.582 11.592-10.825l29.365-80.691c3.541 2.363 7.229 4.573 11.057 6.626.606 2.618 1.644 5.169 3.13 7.544.398.636.821 1.25 1.267 1.841zm130.085-4.084 19.283 5.604c1.41.407 2.63 1.252 3.522 2.438.888 1.182 1.356 2.587 1.356 4.065 0 3.738-3.041 6.78-6.779 6.78h-23.65c-9.425 0-17.922-5.949-21.143-14.806l-29.978-82.354c-1.571-4.324-5.727-7.229-10.34-7.229-2.555 0-5.048.904-7.042 2.565-2.308 1.938-4.759 2.344-6.408 2.344-3.479 0-6.652-1.755-8.491-4.698-2.632-4.204-1.752-9.779 2.04-12.964l9.283-7.783c5.7-4.786 13.09-6.427 20.281-4.5 7.19 1.926 12.773 7.044 15.319 14.041l3.03 8.322c-.269 1.204-.483 2.423-.64 3.655-1.42 11.12 1.897 22.425 9.099 31.015 1.917 2.287 4.056 4.33 6.375 6.108l13.323 36.596c1.918 5.234 6.247 9.274 11.56 10.801zm22.721-46.352c1.872-1.312 3.646-2.793 5.302-4.435l77.528-76.891.655 1.646c-7.998 36.626-24.489 71.208-49.069 102.909-12.888-6.841-24.539-14.67-34.416-23.229zm90.254 44.46c-14.687-3.682-28.875-8.598-42.082-14.516 20.416-26.885 35.377-55.749 44.663-86.138l23.887 60.005c-7.375 13.919-16.259 27.561-26.468 40.649zm18.017 3.844c-.613-.108-1.226-.219-1.838-.332 6.357-8.549 12.182-17.311 17.433-26.217l11.858 29.788c-8.83-.493-18.02-1.576-27.453-3.239zm94.609 15.234c-.505.604-1.625 1.617-3.462 1.622l-26.762.08c-9.298.004-17.536-5.534-20.979-14.174l-56.312-141.459c-1.562-3.91-4.954-6.755-9.074-7.609s-8.358.404-11.342 3.367l-80.207 79.547c-4.782 4.738-11.111 7.348-17.821 7.348-7.513 0-14.584-3.297-19.403-9.048-4.59-5.476-6.62-12.394-5.716-19.48.904-7.085 4.605-13.269 10.421-17.413l14.61-10.41c3.373-2.404 4.159-7.087 1.756-10.461-2.404-3.372-7.085-4.158-10.461-1.756l-14.61 10.411c-2.528 1.801-4.819 3.879-6.842 6.179-4.815-9.279-13.348-16.215-23.58-18.956-11.809-3.16-24.445-.359-33.804 7.498l-9.283 7.783c-2.857 2.398-5.052 5.337-6.548 8.56-6.635-4.03-12.814-8.672-18.343-13.779 8.899-4.856 17.479-11.519 24.76-19.489 2.794-3.059 2.579-7.803-.479-10.596-3.058-2.794-7.802-2.579-10.596.479-12.801 14.014-30.629 23.429-44.363 23.429-24.681 0-62.5-29.698-62.5-66.29 0-26.119 14.674-46.286 37.721-54.584 1.692 7.221 1.634 12.416 1.621 13.007-.126 4.14 3.128 7.599 7.269 7.724.077.003.154.004.231.004 4.036 0 7.369-3.21 7.492-7.272.012-.401.182-7.314-2.095-16.935 3.31-.431 6.735-.653 10.261-.653 3.527 0 6.952.222 10.262.653-2.277 9.62-2.108 16.534-2.095 16.936.123 4.062 3.455 7.271 7.492 7.271.077 0 .154-.001.232-.004 4.14-.126 7.394-3.584 7.268-7.725-.004-.15-.101-5.458 1.695-12.979 23.005 8.313 37.647 28.465 37.647 54.555 0 5.151-.766 10.364-2.275 15.493-1.169 3.974 1.104 8.143 5.078 9.312 3.973 1.168 8.143-1.104 9.312-5.078 1.914-6.504 2.885-13.142 2.885-19.728 0-19.236-6.612-36.097-17.982-48.819 15.454-3.254 32.257-2.858 48.913 1.181-3.986 10.078-3.415 21.763 2.274 31.628 6.473 11.215 18.533 18.181 31.475 18.181 2.765 0 5.548-.321 8.28-.957 8.415-1.97 16.598-3.93 24.554-5.896 8.383 11.504 13.514 23.96 15.018 36.451l-17.834 12.703c-3.373 2.402-4.16 7.086-1.757 10.46 2.402 3.373 7.083 4.162 10.46 1.757l75.011-53.431c2.269-1.616 4.931-2.482 7.704-2.507 8.255.32 9.933 2.942 14.025 14.788.036.104.075.209.116.312l66.796 168.659c2.607 7.816 8.917 12.659 16.521 12.659l13.895.01c2.152-.028 4.115 1.613 4.455 3.747.32 1.808-.48 3.09-.985 3.694zm40.282-69.289c-3.495 19.841-18.407 36.883-41.053 47.038-.889-.125-1.789-.188-2.693-.188l-13.895-.01c-.631.389-2.203-1.349-2.645-3.346 18.54-32.881 29.636-68.483 33.072-106.062 2.634 2.258 5.111 4.605 7.425 7.038 15.859 16.675 23.072 36.914 19.789 55.53z"/></g></g></svg>