<svg id="Capa_1" enable-background="new 0 0 512 512" height="512" viewBox="0 0 512 512" width="512" xmlns="http://www.w3.org/2000/svg"><g><g><g><g><path d="m342.84 433.563c-.03 23.72-10.54 43.12-28.43 55.59-68.177 2.083-110.453-19.635-119.83-58.92 48.21-.22 87.36-3.43 112.41-43.12 0 0 35.9 11.28 35.85 46.45z" fill="#ffeab7"/><path d="m314.41 489.153c-18.86 13.16-45.91 18.63-77.52 13.36-30.33-5.05-58.96-16.11-84.53-32.15-4.51-2.82-12.01-19.67-1.85-20.15 5.68-.27 19.58-19.98 25.39-19.98 6.36 0 12.59.02 18.68 0 31.83 34.09 73.66 55.91 119.83 58.92z" fill="#fad989"/></g><g><path d="m305.48 390.973c-19.76 29.67-49.21 52.34-83.83 63.48-56.715-14.679-74.714-39.338-60.41-71.15 1.1.03 2.21.05 3.32.05 36.31 0 63.43-4.18 90.19-24.6 25.81-6.24 41.08 3.73 51.08 21.8 1.82 3.28 1.72 7.3-.35 10.42z" fill="#fff1cf"/><path d="m221.65 454.453c-15.39 4.95-31.81 7.63-48.85 7.63-8.47 0-16.79-.66-24.91-1.94-9.3-1.46-17.99-5.53-25.09-11.71-21.95-19.1-40.58-42.4-54.7-69.01-3.87-7.28-4.45-15.86-1.77-23.65 2-5.83 4.47-11.15 6.51-9.69 25.27 18.13 55.14 36.08 88.4 37.22 15.23 28.65 35.93 53.02 60.41 71.15z" fill="#fce3a0"/></g><g><path d="m258.53 360.123c-25.82 19.44-57.74 31.21-92.38 31.93-30.891-24.132-42.76-51.673-29.55-81.34 14.96 8.27 32.19 13.08 52.62 13.08 10.02 0 10.51-1.62 20-3.54 33.77-6.83 55.43 27.06 49.31 39.87z" fill="#ffeab7"/><path d="m166.15 392.053c-1.11.02-2.23.03-3.35.03-37.29 0-71.59-12.81-98.73-34.27-6.23-4.93-10.75-11.67-13.17-19.23-8.05-25.13-12.43-52.33-12.4-81.05.06-3.11 1.63-13.67 9.91-18.49 6-3.49 18.71-7.88 22.23-1.89 18.02 30.66 38.02 58.13 65.96 73.56 5.11 29.67 15.32 57.21 29.55 81.34z" fill="#fad989"/></g><g><path d="m214.46 321.803c-20.99 14.83-48.72 11.65-75.86-.76-23.29-16.713-23.29-34.986-23.29-53.617 0-17.38 3.803-39.573 22.55-50.923 13.44 22.58 34.88 38.55 67.96 46.35 10.26 9.19 23.89 48.17 8.64 58.95z" fill="#fff1cf"/><path d="m138.6 321.043c-37.89-17.32-74.61-52.62-90.19-81.99-5.21-9.83-7.12-21.1-5.2-32.05 6.64-37.92 19.86-68.55 37.22-93.28 3.41-4.86 15.08-7.81 20.4-2.57.05.05 16.92 6.28 16.92 6.34 0 39.88 4.99 73.62 20.11 99.01-3.26 16.22-4.98 33.13-4.98 50.51 0 18.63 1.98 36.73 5.72 54.03z" fill="#fce3a0"/></g><g><path d="m211.16 264.223c-5.32 3.42-11.97 4.18-17.87 1.9-21.89-8.47-41.45-21.64-57.43-38.27-8.969-82.156 17.309-132.357 73.76-138.61.14.91.21 1.83.21 2.78 0 46.6 32.56 63.02 24.65 108.75 6.16 28.12-1.44 49.36-23.32 63.45z" fill="#ffeab7"/><path d="m209.62 89.243c-38.04 33.14-65.1 82.2-73.76 138.61-27.52-28.63-44.43-67.52-44.43-110.36 0-2.78.07-5.54.21-8.28.38-7.27 3.41-14.13 8.45-19.39 19.94-20.77 43.17-36.13 67.24-47.46 7.8-3.67 24.67-1.24 23.62 9.46-1.36 13.91 16.5 23.38 18.67 37.42z" fill="#fad989"/></g><g><path d="m330.43 213.513c-2.03 2.86-77.45 26.84-110.33-2.82-22.31-22.81-37.84-52.29-43.28-85.18 11.714-42.359 61.183-93.761 121.013-93.761 8.36 0 39.499 0 52.277 14.562 2.34 50.019-.11 138.159-19.68 167.199z" fill="#fff1cf"/><path d="m350.11 46.313c-8.08-1.19-16.32-1.81-24.68-1.81-59.83 0-113.29 31.54-148.61 81.01-1.42-8.53-2.15-17.29-2.15-26.22 0-18.17 3.05-35.64 8.65-51.91 3.1-8.99 10.3-15.94 19.36-18.82 73.51-23.39 143.92-16.04 143.92-16.04 1.4 4.55 2.72 17.04 3.51 33.79z" fill="#fce3a0"/></g></g><g><path d="m473.5 111.55c0 43.38-29.83 81.2-63.06 101.08h-.01c-56.115-21.145-95.736-60.91-95.736-115.13 0-32.53 5.891-70 49.546-89.99 60.41.32 109.26 40.27 109.26 104.04z" fill="#e4996d"/><path d="m410.44 212.63c-15.83 9.47-32.42 14.87-46.94 14.87-45 0-110-51.91-110-115.95 0-64.03 49.25-104.05 110-104.05.22.06.46.01.68.01.02-.01.04-.01.06 0-18.77 22.78-30.11 52.5-30.11 85.03 0 54.22 31.52 100.65 76.31 120.09z" fill="#df8a57"/></g></g><g><path d="m446.313 29.952c-21.35-19.315-50.76-29.952-82.813-29.952-11.824 0-23.107 1.4-33.677 4.06-26.289-.739-76.981.647-129.415 17.334-7.223 2.296-13.522 6.718-18.13 12.519-6.16-1.285-13.041-.755-18.142 1.642-27.075 12.745-50.443 29.248-69.459 49.056-4.708 4.911-7.997 10.972-9.549 17.473-4.585 1.438-8.546 4.049-10.836 7.308-19.102 27.212-32.045 59.61-38.469 96.295-1.823 10.397-.632 21.272 3.344 31.207-6.127 6.497-8.067 15.405-8.165 20.473-.001.045-.001.091-.001.137-.03 28.784 4.263 56.826 12.757 83.345 2.645 8.264 7.324 15.507 13.606 21.1-.711 7.25.7 14.55 4.111 20.967 7.835 14.773 17.168 28.789 27.741 41.657 1.483 1.806 3.632 2.739 5.799 2.739 1.675 0 3.361-.559 4.757-1.705 3.2-2.63 3.663-7.355 1.034-10.556-9.938-12.097-18.712-25.272-26.083-39.17-.347-.653-.659-1.322-.936-2.004 26.565 16.855 57.009 25.685 89.014 25.685 36.504 0 71.167-11.573 100.242-33.469.561-.422 1.057-.92 1.476-1.477 15.607-1.624 26.43 4.518 34.758 19.563.294.527.405 1.134.31 1.714-.052.324-.18.644-.349.9-28.266 42.435-75.532 67.769-126.438 67.769-15.754 0-32.642-1.013-45.083-11.813-1.178-1.022-2.345-2.064-3.503-3.117-3.066-2.787-7.809-2.56-10.595.506-2.786 3.064-2.56 7.809.506 10.594 1.242 1.129 2.495 2.247 3.751 3.338 6.518 5.672 14.229 9.806 22.506 12.095 1.829 4.176 4.656 8.444 7.992 10.531 26.874 16.858 56.24 28.026 87.282 33.194 8.47 1.412 16.702 2.11 24.624 2.11 25.485-.001 47.732-7.225 64.156-21.12 16.676-14.108 25.876-34.469 25.904-57.329.033-28.712-21.385-45.309-36.11-51.73-.364-1.715-.98-3.378-1.839-4.921-10.612-19.169-26.033-28.375-45.916-27.459-.926-4.489-2.931-9.247-5.96-13.931-6.159-9.526-17.494-19.475-32.531-22.644.132-.634.248-1.281.347-1.94 1.96-13.077-2.898-30.762-9.515-42.875 13.473-9.776 21.602-22.477 24.261-37.884 8.258 1.956 16.934 2.717 25.437 2.717 23.852 0 46.331-5.989 54.334-8.374 13.823 6.738 27.885 10.49 40.652 10.49 24.356 0 53.886-13.812 77.067-36.048 26.074-25.01 40.433-56.05 40.433-87.402 0-32.853-11.995-61.069-34.687-81.598zm-135.696 366.794c8.923 4.482 24.748 15.443 24.724 36.787-.023 18.646-7.144 34.518-20.593 45.896-18.109 15.322-45.322 20.889-76.626 15.665-25.615-4.265-50.014-12.894-72.685-25.692 2.453.107 4.909.161 7.363.161 55.259-.001 106.613-27.165 137.817-72.817zm-90.514-69.851c12.976.8 22.788 8.981 27.817 16.759 3.284 5.079 4.319 9.506 4.14 11.909-26.044 18.98-56.854 29-89.259 29-34.53 0-67.062-11.291-94.076-32.652-4.973-3.935-8.666-9.341-10.681-15.636-8.012-25.008-12.064-51.477-12.044-78.671.028-.963.341-3.295 1.277-5.74 22.221 34.407 68.492 74.066 112.863 84.639 7.39 1.761 14.518 2.636 21.313 2.636 14.116 0 26.787-3.777 37.336-11.232.453-.321.89-.658 1.314-1.012zm-13.022-68.987c-.518.336-1.09.643-1.716.92-2.983 1.324-6.399 1.426-9.371.279-16.743-6.474-32.106-15.819-45.663-27.779-3.107-2.74-7.846-2.443-10.586.662-2.74 3.106-2.444 7.846.662 10.586 14.892 13.138 31.773 23.406 50.181 30.523 3.101 1.197 6.405 1.792 9.716 1.792 1.646 0 3.294-.147 4.919-.441 5.371 9.406 9.738 24.481 8.274 34.251-.509 3.396-1.642 5.737-3.367 6.956-12.175 8.604-27.826 10.705-46.514 6.255-42.969-10.24-90.835-52.938-108.58-86.392-4.466-8.427-6.043-18.102-4.439-27.244 5.746-32.816 16.977-61.894 33.387-86.491.855 33.93 11.791 66.238 31.76 93.689 1.468 2.018 3.753 3.089 6.071 3.089 1.53-.001 3.074-.467 4.406-1.436 3.35-2.437 4.089-7.128 1.653-10.478-18.936-26.031-28.945-56.869-28.945-89.179 0-2.644.067-5.3.204-7.984.003-.069.007-.138.016-.207.011-.097.021-.193.028-.29.402-5.189 2.648-10.161 6.323-13.994 17.738-18.476 39.615-33.908 65.021-45.867 1.103-.519 2.78-.83 4.6-.877-5.278 16.453-7.952 33.598-7.952 51.021 0 43.867 16.894 85.293 47.569 116.645.109.111.222.22.337.324 4.084 3.684 8.663 6.627 13.572 8.951-1.684 13.739-8.772 24.475-21.566 32.716zm223.102-69.781c-20.496 19.66-46.047 31.873-66.683 31.873-46.419 0-93.202-50.414-100.987-92.155-.76-4.072-4.678-6.76-8.748-5.998-4.072.76-6.757 4.677-5.998 8.748 6.413 34.381 29.676 64.251 56.791 83.131-23.944 5.11-60.479 8.257-79.267-8.473-27.81-28.512-43.121-66.139-43.121-105.98 0-16.937 2.773-33.58 8.241-49.466 2.302-6.677 7.738-11.954 14.544-14.118 32.181-10.242 63.729-14.476 88.917-16.014-24.874 16.347-41.815 41.976-46.519 73.436-.613 4.097 2.212 7.914 6.309 8.527 4.096.604 7.914-2.213 8.526-6.309 7.183-48.048 47.897-80.329 101.312-80.329 28.327 0 54.163 9.261 72.75 26.075 19.462 17.608 29.75 41.978 29.75 70.475 0 36.736-22.44 63.747-35.817 76.577z"/><g><path d="m392.411 118.85c-4.142 0-7.5 3.357-7.5 7.5 0 3.835-3.12 6.955-6.956 6.955s-6.955-3.12-6.955-6.955c0-4.143-3.358-7.5-7.5-7.5s-7.5 3.357-7.5 7.5c0 3.835-3.12 6.955-6.956 6.955s-6.956-3.12-6.956-6.955c0-4.143-3.358-7.5-7.5-7.5s-7.5 3.357-7.5 7.5c0 12.106 9.849 21.955 21.956 21.955 5.531 0 10.591-2.056 14.456-5.444 3.865 3.388 8.924 5.444 14.456 5.444 12.106 0 21.956-9.849 21.956-21.955-.001-4.143-3.359-7.5-7.501-7.5z"/><path d="m301.978 93.269c-11.726 0-21.265 9.54-21.265 21.266 0 4.143 3.358 7.5 7.5 7.5s7.5-3.357 7.5-7.5c0-3.455 2.811-6.266 6.265-6.266s6.265 2.811 6.265 6.266c0 4.143 3.358 7.5 7.5 7.5s7.5-3.357 7.5-7.5c0-11.726-9.54-21.266-21.265-21.266z"/><path d="m425.022 93.269c-11.726 0-21.265 9.54-21.265 21.266 0 4.143 3.358 7.5 7.5 7.5s7.5-3.357 7.5-7.5c0-3.455 2.811-6.266 6.265-6.266s6.265 2.811 6.265 6.266c0 4.143 3.358 7.5 7.5 7.5s7.5-3.357 7.5-7.5c.001-11.726-9.539-21.266-21.265-21.266z"/></g></g></g></svg>