<svg id="Capa_1" enable-background="new 0 0 512 512" height="512" viewBox="0 0 512 512" width="512" xmlns="http://www.w3.org/2000/svg"><g><g><path d="m26.001 504.5c-4.266 0-8.386-1.783-11.304-4.894-5.848-6.23-5.537-16.059.694-21.908l90.343-84.798c1.148-1.078 2.026-2.412 2.561-3.893l49.956-138.263c2.211-6.121 8.07-10.234 14.578-10.234 3.165 0 6.254.964 8.993 2.849 1.131.778 2.146 1.726 3.001 2.799 3.531 4.429 4.418 10.043 2.583 15.121l-52.033 144.009c-.826 2.285-2.198 4.371-3.969 6.033l-94.798 88.98c-2.882 2.708-6.649 4.199-10.605 4.199z" fill="#666667"/><path d="m367.251 101.072c25.851-30.364 30.608-70.232 4.693-87.219-9.71-6.365-21.834-7.954-32.989-4.738-61.148 17.63-137.36 76.886-215.416 148.514l21.932 37.988c114.799-26.002 178.995-46.599 221.78-94.545z" fill="#81d9e7"/><g><path d="m504.5 323.26c-.01 16.06-14.35 26.48-37.17 32.07h-.01s-2.542-7.71-5.541-7.175c-3.486.622-14.009 10.574-14.009 10.574-13.24 1.54-28.15 1.95-44.06 1.32-6.11-.24-12.35-.63-18.71-1.17h-.01c-13.46-1.13-27.39-2.92-41.42-5.32 0 0-.697-7.45-3.377-7.951-3.4-.636-11.458 5.206-14.853 4.501-12.92-2.68-25.79-5.85-38.3-9.48 0 0-1.312-5.423-4.292-6.35-2.756-.857-12.918 1.01-12.918 1.01-30.2-10.06-57.36-22.82-76.94-37.66-82.58-54.54-91.14-114.97-27.13-155.28 48.66-3.86 82.83 48.59 139.73 82.21 10.65 7.38 21.43 14.1 32.22 20.22 0 0 .236 10.16 2.167 11.22 2.483 1.363 11.063-3.99 11.063-3.99 10.45 5.49 20.86 10.46 31.11 14.96 2.431 1.069 3.465 6.725 5.873 7.742 2.189.924 7.927-1.901 7.927-1.901 10.96 4.46 21.68 8.42 32 11.97 0 0 1.495 11.965 2.184 12.206 4.07 1.45 12.036-7.485 12.036-7.485 11.62 3.58 22.77 6.42 32.34 9.43 0 0 1.53 10.578 3.636 11.335 2.678.962 10.474-6.105 10.474-6.105 9.85 4.529 15.98 10.219 15.98 19.099z" fill="#9c9c9c"/></g><ellipse cx="185.908" cy="192.889" fill="#858586" rx="125" ry="75"/><g><path d="m157.5 196.14c0 36.46-30.9 67.15-58.96 76.27-.58-.85-43.54-51.216-43.54-86.606 0-23.06 12.726-45.014 31.65-60.504v-.01c39.49 1.75 70.85 28.66 70.85 70.85z" fill="#9c9c9c"/><path d="m98.546 272.424c-5.546 1.807-10.981 2.772-16.046 2.772-30.68 0-75-35.4-75-79.06s33.58-70.94 75-70.94c1.39 0 2.78.03 4.15.1-14.66 15.55-23.65 36.52-23.65 59.58 0 35.68 35.546 87.548 35.546 87.548z" fill="#919191"/><path d="m82.5 219.459c13.275 0 23.546 11.635 21.899 24.807l-13.961 111.687c-1.168 9.344-14.708 9.344-15.876 0l-13.961-111.688c-1.647-13.172 8.624-24.806 21.899-24.806z" fill="#767678"/></g><g><path d="m449.3 158.14c-37.72 20.27-79.84 27.06-136.03 25.56-29.067-11.425-39.82-32.024-39.82-55.024 0-16.88 4.582-32.829 27.9-48.756 58.55-18.47 111.26-29.05 152.83-26.29 12.74.84 24.72 6.91 32.36 17.14 20.16 26.99.47 65.96-37.24 87.37z" fill="#b5e9f1"/><path d="m313.27 183.7c-29.87-.79-63.7-3.93-102.97-8.62-6.76-.81-12.85-3.78-17.55-8.22-4.69-4.44-8-10.36-9.18-17.06-2.53-14.35 5.33-28.54 18.86-33.97 34.11-13.7 67.36-25.95 98.92-35.91-9.58 12.91-15.19 28.56-15.19 45.44 0 23 10.42 43.74 27.11 58.34z" fill="#9be1ec"/></g><g fill="#666667"><path d="m244.81 418.34c.03 2.86-.73 5.68-2.2 8.14l-42.156 70.474c-2.8 4.68-7.853 7.546-13.306 7.546-12.044 0-19.489-13.132-13.305-23.467l37.018-61.863c1.9-3.17 2.88-6.8 2.84-10.5l-1.49-133.53c-.04-3.78-3.53-6.58-7.23-5.8l-4.4.92c-9.84 2.06-19.48-4.28-21.49-14.13-.25-1.22-.37-2.44-.37-3.64 0-8.59 6.13-16.23 14.91-17.82 14.16-2.56 31.7-5.66 33.65-5.66 2.39 0 4.78.57 6.92 1.63 5.22 2.61 8.51 7.86 8.57 13.69z"/><path d="m375.371 504.5c-5.08 0-9.838-2.49-12.734-6.663l-36.067-51.977c-1.36-1.97-2.27-4.27-2.61-6.65l-18.42-128.78c-.41-2.84-3.11-4.75-5.92-4.2l-5.8 1.14c-9.54 1.89-18.72-4.57-20.18-14.19-.13-.86-.19-1.72-.19-2.57 0-7.93 5.53-14.97 13.5-16.68l24.23-5.17c1.93-.83 3.99-1.25 6.1-1.25 2.65 0 5.28.69 7.6 1.99 4.17 2.35 7.06 6.58 7.74 11.32l21.51 150.38 33.975 48.965c7.131 10.278-.224 24.335-12.734 24.335z"/><path d="m504.233 467.354c-2.426 12.913-18.812 17.138-27.18 7.008l-93.73-113.472c-1.6-1.94-2.72-4.27-3.23-6.74l-31.998-161.017c-.659-3.316-4.878-4.37-7.019-1.753l-34.756 42.478c-4.986 6.093-13.672 7.636-20.451 3.632-8.427-4.978-10.422-16.302-4.204-23.86l52.57-63.895c15.341-16.835 34.518-4.516 37.043 8.006l38.395 186.38 91.277 110.503c2.93 3.545 4.133 8.21 3.283 12.73z"/></g></g><g><g><path d="m117.5 208.694c-4.142 0-7.5-3.357-7.5-7.5v-12c0-4.143 3.358-7.5 7.5-7.5s7.5 3.357 7.5 7.5v12c0 4.143-3.358 7.5-7.5 7.5z"/><path d="m47.5 208.694c-4.142 0-7.5-3.357-7.5-7.5v-12c0-4.143 3.358-7.5 7.5-7.5s7.5 3.357 7.5 7.5v12c0 4.143-3.358 7.5-7.5 7.5z"/></g><path d="m438.411 367.148c63.589-4.413 73.583-28.942 73.589-43.885.01-21.676-23.615-28.341-50.971-36.059-9.259-2.612-18.833-5.313-28.574-8.779-.035-.013-.07-.025-.105-.037-10.607-3.598-20.987-7.431-30.915-11.412l-16.424-79.729c25.112-4.106 47.374-11.494 67.837-22.49.051-.027.102-.056.152-.084 25.333-14.383 43.238-36.246 47.896-58.484 3.073-14.674.186-28.47-8.349-39.896-8.806-11.79-22.61-19.129-37.872-20.135-17.139-1.137-36.396-.149-58.01 3.004.281-17.793-6.958-32.62-20.615-41.575-11.426-7.486-25.707-9.549-39.177-5.664-45.111 13.004-101.595 48.85-172.634 109.562-17.672 1.784-34.526 5.751-49.679 11.736-9.9-3.62-20.749-5.518-32.06-5.518-22.447 0-43.068 7.473-58.064 21.041-15.758 14.255-24.436 34.643-24.436 57.406 0 37.024 28.678 68.369 57.12 80.743l10 80.001c.983 7.867 7.452 13.577 15.38 13.577s14.396-5.711 15.379-13.577l10-79.998c6.2-2.688 12.251-6.199 17.946-10.351 5.531 1.735 11.26 3.223 17.134 4.458l-41.706 115.436c-.138.379-.36.714-.657.992l-90.341 84.801c-4.474 4.2-7.044 9.898-7.237 16.044-.194 6.146 2.013 11.994 6.214 16.468 4.331 4.611 10.442 7.256 16.768 7.256 5.867 0 11.457-2.212 15.743-6.231l94.798-88.978c2.616-2.454 4.652-5.544 5.893-8.952l39.289-108.734c2.226 1.559 4.505 3.11 6.834 4.651 4.988 3.763 10.556 7.478 16.596 11.075l1.048 93.919c.025 2.317-.589 4.587-1.776 6.569l-37.018 61.862c-4.31 7.201-4.411 15.859-.272 23.159 4.139 7.301 11.621 11.659 20.013 11.659 8.047 0 15.612-4.29 19.743-11.195l42.158-70.477c2.178-3.645 3.306-7.817 3.262-12.066v-.01l-.956-81.579c16.308 6.2 33.968 11.664 52.696 16.299l12.486 87.298c.501 3.509 1.836 6.915 3.873 9.865l36.067 51.976c4.291 6.192 11.354 9.889 18.895 9.889 8.59 0 16.399-4.729 20.381-12.342 3.98-7.61 3.409-16.722-1.489-23.773l-32.959-47.503-2.309-16.135c-.587-4.101-4.385-6.945-8.487-6.362-4.1.587-6.949 4.387-6.362 8.487l2.56 17.891c.165 1.154.597 2.255 1.262 3.213l33.972 48.963c1.73 2.491 1.924 5.582.519 8.269-1.406 2.688-4.056 4.293-7.089 4.293-2.622 0-5.076-1.283-6.568-3.436l-36.059-51.964c-.714-1.034-1.184-2.228-1.358-3.452l-18.421-128.791c-.487-3.376-2.362-6.443-5.143-8.415-2.782-1.974-6.296-2.729-9.646-2.071l-5.812 1.142c-2.58.515-5.189-.04-7.343-1.553-2.16-1.517-3.568-3.792-3.965-6.405-.07-.46-.105-.945-.105-1.444 0-4.475 3.185-8.406 7.565-9.346l24.23-5.17c.48-.103.948-.252 1.399-.445 2.218-.956 4.91-.816 7.054.385 2.151 1.212 3.646 3.399 3.998 5.848l13.99 97.84c.586 4.1 4.383 6.949 8.486 6.363 4.101-.587 6.949-4.386 6.363-8.486l-2.159-15.102c8.638 1.314 17.243 2.398 25.712 3.239l93.682 113.414c4.462 5.402 10.886 8.371 17.625 8.371 1.936 0 3.898-.245 5.847-.748 8.734-2.252 15.195-9.157 16.86-18.022 1.264-6.729-.512-13.615-4.872-18.893zm47.988-55.703c6.839 3.288 10.603 6.928 10.601 11.812-.004 9.952-8.758 17.798-24.662 22.901 5.564-11.004 10.267-22.612 14.061-34.713zm-46.733-14.844c6.016 1.859 11.87 3.511 17.29 5.04 5.645 1.593 10.793 3.071 15.379 4.52-4.885 15.783-11.409 30.661-19.451 44.351-7.88 1.172-16.71 1.916-26.401 2.197l-9.205-11.145c9.045-13.875 16.553-28.956 22.388-44.963zm-14.242-4.727c-3.647 9.944-7.984 19.497-12.972 28.581l-7.408-35.961c6.655 2.541 13.468 5.008 20.38 7.38zm-84.395-275.539c9.266-2.673 19.035-1.289 26.798 3.796 12.584 8.253 14.379 21.767 13.714 31.52-24.056 4.388-50.82 11.219-80.576 20.542-3.953 1.238-6.153 5.447-4.915 9.399 1.238 3.953 5.448 6.151 9.399 4.915 62.421-19.558 110.902-27.86 148.235-25.384 10.882.718 20.667 5.873 26.844 14.145 5.969 7.99 7.881 17.359 5.686 27.845-3.728 17.798-19.26 36.364-40.543 48.472-19.119 10.263-40.017 17.144-63.69 20.957l-3.352-16.273c-1.955-9.693-10.417-18.428-20.58-21.24-10.431-2.886-21.131.637-29.359 9.665-.085.094-.168.189-.248.286l-25.397 30.868c-24.688-1.061-54.024-3.682-91.855-8.203-5.022-.603-9.619-2.755-13.287-6.22-3.671-3.476-6.074-7.941-6.95-12.916-1.906-10.813 4.094-21.625 14.269-25.708 24.317-9.764 46.306-18.051 67.223-25.337 3.912-1.363 5.978-5.639 4.615-9.55-1.363-3.913-5.637-5.976-9.55-4.616-21.139 7.364-43.342 15.732-67.875 25.582-1.295.52-2.549 1.106-3.76 1.753-2.323-.11-4.692-.182-7.086-.214 62.403-51.742 112.331-82.58 152.24-94.084zm-244.072 227.011-13.961 111.688c-.028.225-.076.342-.068.342-.168.129-.688.129-.832.027-.016-.026-.064-.144-.093-.37l-13.96-111.687c-.526-4.205.729-8.271 3.534-11.448 2.805-3.178 6.684-4.928 10.923-4.928s8.118 1.75 10.923 4.928c2.805 3.176 4.06 7.243 3.534 11.448zm31.376 159.379c-.434 1.191-1.144 2.272-2.055 3.127l-94.798 88.978c-1.493 1.399-3.439 2.17-5.48 2.17-2.201 0-4.326-.92-5.832-2.523-1.458-1.553-2.224-3.587-2.157-5.728.068-2.142.96-4.123 2.512-5.58l90.342-84.802c1.996-1.874 3.545-4.222 4.489-6.809l40.765-112.831c4.046 3.708 8.392 7.394 13.026 11.045zm69.083-111.076c-.128-.097-.259-.189-.392-.277-8.084-5.34-15.497-10.777-22.189-16.268 3.472.179 6.961.274 10.457.284 5.18 2.633 11.055 3.423 16.822 2.212l2.616-.547.222 19.936c-2.653-1.766-5.17-3.55-7.536-5.34zm38.757 130.981-42.156 70.475c-1.438 2.402-4.07 3.896-6.87 3.896-4.209 0-6.272-2.837-6.964-4.057s-2.067-4.447.094-8.06l37.015-61.858c2.61-4.355 3.961-9.347 3.907-14.439l-1.49-133.524c-.043-4.057-1.882-7.84-5.047-10.38-2.424-1.945-5.393-2.975-8.43-2.975-.927 0-1.861.097-2.788.292l-4.402.92c-2.788.584-5.639.044-8.022-1.523-2.384-1.567-4.012-3.97-4.583-6.771-.144-.704-.217-1.422-.217-2.134 0-5.132 3.678-9.522 8.744-10.439 26.228-4.741 31.448-5.443 32.475-5.539 1.173.024 2.355.315 3.408.837 2.698 1.349 4.393 4.054 4.424 7.069l2.04 174.004c.014 1.482-.379 2.938-1.138 4.206zm14.097-178.377c-.089-8.658-4.961-16.444-12.739-20.332-3.183-1.577-6.727-2.411-10.25-2.411-1.125 0-3.009 0-34.986 5.78-12.211 2.211-21.074 12.81-21.074 25.2 0 1.722.176 3.453.521 5.14.159.78.353 1.547.579 2.3-11.367-.772-22.482-2.508-32.968-5.148 6.295-6.493 11.733-13.777 15.888-21.479 1.967-3.646.606-8.195-3.039-10.162-3.648-1.969-8.195-.606-10.162 3.039-7.178 13.303-18.828 25.121-31.919 32.789l1.72-13.761c1.052-8.412-1.562-16.882-7.172-23.236-5.61-6.355-13.69-10.001-22.168-10.001s-16.558 3.646-22.168 10.001c-5.61 6.354-8.224 14.824-7.172 23.236l1.717 13.738c-8.731-5.132-16.956-12.172-23.568-20.31-7.442-9.157-16.31-23.959-16.31-42.486 0-37.358 27.757-63.449 67.5-63.449 39.615 0 67.372 25.982 67.5 63.185.014 4.134 3.369 7.475 7.499 7.475h.026c4.142-.015 7.488-3.384 7.474-7.525-.078-22.683-8.792-42.99-24.536-57.184-2.357-2.125-4.853-4.1-7.473-5.919 14.793-4.366 30.959-6.838 47.688-7.265-4.322 7.579-6.091 16.611-4.499 25.644 1.438 8.168 5.384 15.501 11.417 21.212 6.029 5.694 13.569 9.227 21.81 10.215 32.672 3.904 59.119 6.408 81.776 7.727l-15.312 18.61c-4.358 5.297-6.175 12.21-4.984 18.965.578 3.281 1.836 6.355 3.654 9.049-7.088 4.705-15.264 8.85-24.214 12.279zm50.258 84.102 1.224 8.558c-2.689-.7-5.353-1.418-7.992-2.153 2.307-2.099 4.564-4.235 6.768-6.405zm28.955-64.839c-.307-.193-.62-.38-.937-.559-3.441-1.928-7.337-2.947-11.266-2.947-2.873 0-5.666.522-8.315 1.554l-23.588 5.033c-11.257 2.415-19.427 12.514-19.427 24.014 0 1.249.092 2.492.275 3.694 1.017 6.702 4.63 12.537 10.173 16.431 4.781 3.358 10.434 4.874 16.155 4.379-4.959 5.049-10.233 9.92-15.77 14.565-8.897-2.856-17.451-5.919-25.62-9.177l-.65-55.444c13.943-4.812 26.501-11.227 36.79-18.795 8.895 2.679 18.677-.138 24.819-7.646l.315-.385c7.214 4.664 14.777 9.232 22.455 13.572-1.681 3.961-3.488 7.871-5.409 11.711zm-7.484-36.969 20.184-24.667 8.217 41.35c-3.049-1.64-6.057-3.304-8.985-4.971-6.647-3.776-13.15-7.699-19.416-11.712zm18.045 53.208c-.141-.98-.345-1.945-.61-2.891 3.151-5.795 6.059-11.77 8.692-17.861 1.986 1.041 4 2.076 6.023 3.095l8.739 43.976c-4.785 7.569-10.123 14.873-15.958 21.84zm31.576 70.254c-7.143-.825-14.365-1.822-21.6-2.984 6.083-6.479 11.751-13.286 16.96-20.363zm125.24 115.971c-.588 3.129-2.78 5.473-5.863 6.268-3.085.795-6.135-.195-8.163-2.651l-93.725-113.466c-.831-1.008-1.409-2.214-1.661-3.432l-31.998-161.018c-.876-4.41-4.131-7.826-8.493-8.916-.946-.236-1.897-.352-2.837-.352-3.391 0-6.621 1.502-8.85 4.228l-34.756 42.478c-2.66 3.251-7.215 4.061-10.832 1.923-2.158-1.274-3.587-3.337-4.022-5.806s.203-4.896 1.795-6.831l52.442-63.739c4.378-4.74 9.266-6.535 14.151-5.181 5.244 1.451 9.14 6.096 9.883 9.779l38.395 186.38c.247 1.198.784 2.318 1.563 3.263l91.277 110.503c1.516 1.835 2.133 4.231 1.694 6.57z"/></g></g></svg>