<svg id="Capa_1" enable-background="new 0 0 512 512" height="512" viewBox="0 0 512 512" width="512" xmlns="http://www.w3.org/2000/svg"><g><g><g><path d="m347.098 52.812c50.527 57.12 57.503 109.416 57.195 135.42-.124 10.502-3.637 20.666-9.898 29.098-40.98 55.189-119.498 122.642-219.288 166.528-15.392-100.588 15.439-244.028 98.354-332.202 20.059-21.331 54.237-20.775 73.637 1.156z" fill="#ffeab7"/></g><g><path d="m504.5 336.1c0 14.87-15.45 30.18-39.7 43.25 0 0-5.56-5.379-8.637-3.909-2.435 1.163-7.763 11.839-7.763 11.839-9.79 4.25-20.51 8.16-31.87 11.58 0 0-5.422-6.956-8.387-6.147-2.508.684-7.993 10.657-7.993 10.657-10.03 2.5-20.42 4.63-30.99 6.3 0 0-4.952-6.652-7.518-6.3-2.794.383-8.561 8.49-8.561 8.49-9.94 1.14-19.95 1.85-29.9 2.07 0 0-3.722-9.639-6.142-9.639-2.79 0-9.398 9.619-9.398 9.619-85.01-2.37-133.14-41.43-133.14-77.81 0-36.03 47.21-74.7 130.71-77.74 0 0 8.545 10.647 8.618 14.266.252 12.52 6.982-14.426 6.982-14.426 9.9.16 19.87.79 29.78 1.85 0 0 6.421 7.775 9.609 8.2 2.211.295 6.6-6.11 6.6-6.11 10.55 1.61 20.94 3.66 30.99 6.11 0 0 5.953 10.005 8.72 10.746 2.768.741 7.88-6.306 7.88-6.306 11.41 3.36 22.2 7.2 32.08 11.4 0 0 6.206 11.731 9.001 13.051s7.759-5.141 7.759-5.141c25.15 13.26 41.27 28.91 41.27 44.1z" fill="#e4996d"/></g><path d="m93.675 436.231 31.181-85.685c7.121-19.569 31.525-26.108 47.477-12.721l28.515 23.93c6.347 5.326 7.174 14.79 1.848 21.137-7.1 8.46-19.714 9.563-28.175 2.464l-13.75-11.537c-2.659-2.231-6.725-1.141-7.912 2.12l-29.233 80.32c-4.315 11.853-15.58 19.741-28.192 19.741h-23.656c-7.886 0-14.278-6.392-14.278-14.278 0-6.352 4.196-11.94 10.297-13.712l19.27-5.595c3.063-.889 5.518-3.186 6.608-6.184z" fill="#f9d171"/><g><path d="m194.799 417.79c-41.031-14.419-65.299-50.904-65.299-84.254 0-45.62 45-84.913 103.62-82.966 31.46 15.55 52.64 44.67 52.64 78.03 0 45.619-39.609 83.311-90.961 89.19z" fill="#d97c41"/><path d="m194.8 417.794c-4.59.53-9.28.8-14.04.8-57.99 0-105-40.29-105-90 0-49.7 47.01-90 105-90 19.08 0 36.97 4.36 52.38 11.98-51.35 5.88-90.96 43.57-90.96 89.2 0 33.35 21.17 62.47 52.62 78.02z" fill="#c76d33"/></g><g><path d="m459.75 221.82c-5.36 9.04-13.48 16.08-23.12 20.25-11.68 5.06-24.68 9.83-38.81 14.18-47.23-7.627-67.884-37.196-54.874-54.266 15.11-19.84 34.198-37.998 2.308-66.998-7.46-6.78-3.597-23.956 6.146-38.536 20.393-32.417 57.41-49.987 106.9-50.93 9.75 7.05 17.03 17.63 19.63 30.43 15.19 74.73-4.91 123.51-18.18 145.87z" fill="#fff1cf"/><path d="m397.82 256.25c-18.26 5.62-38.4 10.54-59.97 14.43-47.454-4.846-68.587-32.272-68.587-72.623 0-5.85 4.497-21.703 12.807-36.507 7.217-33.507 30.126-56.066 69.33-65.1-.65 11.37 1.13 22.29 8.59 29.07 31.89 29 19.77 48.64 4.66 68.48-13.01 17.07 1.28 42.97 33.17 62.25z" fill="#fce3a0"/><path d="m337.86 270.68c-40.23 7.26-85.45 10.96-132.81 9.05.512-46.868 24.324-89.608 77.02-118.18-.94 5.58-1.43 11.31-1.43 17.16 0 40.35 23.32 75.26 57.22 91.97z" fill="#fad989"/><g><path d="m458.3 45.524c-114.29 25.32-207.8 137.69-253.25 234.22-13.7-.54-27.59-1.56-41.59-3.1 36.96-94.81 135.38-203.61 251.27-238.52 15.53-4.68 31.46-1.37 43.57 7.4z" fill="#fab658"/></g></g><g><path d="m102 181.668c-41.42 0-75 29.105-75 75.673 0 46.575 44.318 84.327 75 84.327s75-37.753 75-84.327c0-46.567-33.58-75.673-75-75.673z" fill="#e4996d"/><g><path d="m182 233.86c0 18.357-16.067 42.356-39.949 56.207-17.778 10.311-40.051-2.52-40.051-23.072v-37.132c0-6.54 3.556-12.618 9.35-15.653 36.652-19.202 70.65-5.606 70.65 19.65z" fill="#919191"/><path d="m22 233.86c0 18.357 16.067 42.356 39.949 56.207 17.778 10.311 40.051-2.52 40.051-23.072v-37.132c0-6.54-3.556-12.618-9.35-15.653-36.652-19.202-70.65-5.606-70.65 19.65z" fill="#858586"/></g></g><g fill="#fad989"><path d="m448.325 436.231-31.181-85.685c-7.121-19.569-31.525-26.108-47.477-12.721l-9.273 7.782c-6.686 5.611-8.216 15.29-3.586 22.69 5.639 9.012 17.943 10.958 26.087 4.125l3.806-3.193 31.676 87.03c4.313 11.852 15.579 19.74 28.191 19.74h23.656c7.886 0 14.278-6.392 14.278-14.278 0-6.352-4.196-11.94-10.297-13.712l-19.27-5.595c-3.065-.888-5.52-3.185-6.61-6.183z"/><path d="m350.445 436.231-31.181-85.685c-7.121-19.569-31.525-26.108-47.477-12.721l-9.273 7.782c-6.686 5.611-8.216 15.29-3.586 22.69 5.638 9.012 17.943 10.958 26.087 4.125l3.806-3.193 31.676 87.03c4.313 11.852 15.579 19.74 28.191 19.74h23.656c7.886 0 14.278-6.392 14.278-14.278 0-6.352-4.196-11.94-10.297-13.712l-19.27-5.595c-3.065-.888-5.52-3.185-6.61-6.183z"/><path d="m251.825 436.231-31.181-85.685c-7.121-19.569-31.525-26.108-47.477-12.721l-9.273 7.782c-6.686 5.611-8.216 15.29-3.587 22.69 5.638 9.012 17.943 10.958 26.087 4.125l3.806-3.193 31.676 87.03c4.313 11.852 15.579 19.74 28.191 19.74h23.656c7.886 0 14.278-6.392 14.278-14.278 0-6.352-4.196-11.94-10.297-13.712l-19.27-5.595c-3.064-.888-5.519-3.185-6.609-6.183z"/></g></g><g><g><g><g><path d="m67 262.123c-4.142 0-7.5-3.357-7.5-7.5v-12c0-4.143 3.358-7.5 7.5-7.5s7.5 3.357 7.5 7.5v12c0 4.143-3.358 7.5-7.5 7.5z"/><path d="m137 262.123c-4.142 0-7.5-3.357-7.5-7.5v-12c0-4.143 3.358-7.5 7.5-7.5s7.5 3.357 7.5 7.5v12c0 4.143-3.358 7.5-7.5 7.5z"/></g></g></g><path d="m512 336.097c0-19.119-19.14-38.665-53.896-55.037-14.832-6.98-31.668-13.018-50.04-17.948-.063-.017-.128-.033-.192-.049-1.214-.324-2.43-.642-3.65-.954 12.528-3.998 24.378-8.402 35.386-13.167 11.239-4.862 20.435-12.922 26.595-23.311 3.331-5.621 6.392-11.66 9.098-17.949 1.637-3.805-.121-8.217-3.926-9.854-3.804-1.639-8.217.12-9.854 3.926-2.452 5.7-5.219 11.161-8.222 16.229-4.535 7.649-11.329 13.594-19.648 17.193-10.791 4.671-22.438 8.985-34.774 12.895-17.37-11.12-28.931-24.478-31.147-36.136-.983-5.174-.04-9.555 2.888-13.396 16.733-21.973 30.086-46.138-5.583-78.576-4.192-3.81-6.291-10.384-6.257-19.569 31.826-23.051 64.902-38.938 97.724-46.767 7.172 6.106 12.183 14.487 14.079 23.803 6.692 32.916 7.037 63.975 1.023 92.311-.859 4.052 1.729 8.033 5.78 8.894.524.111 1.048.165 1.564.165 3.466-.001 6.58-2.418 7.329-5.945 6.442-30.359 6.106-63.47-.998-98.415-3.206-15.75-12.976-29.525-26.804-37.793-13.811-8.254-30.543-10.337-45.907-5.714-18.409 5.543-36.858 13.084-55.059 22.455-1.559-1.853-3.161-3.709-4.793-5.555-10.648-12.037-25.994-19.082-42.102-19.327-16.129-.235-31.625 6.319-42.619 18.01-39.368 41.868-70.073 99.577-87.727 164.327-2.242-2.355-4.863-4.458-7.831-6.253-2.592-1.568-5.371-2.868-8.301-3.902-8.705-9.728-19.869-17.051-32.458-21.51.284-6.672 1.753-13.18 4.443-19.701l18.519-3.058c4.086-.675 6.853-4.534 6.178-8.621-.675-4.088-4.538-6.853-8.622-6.178l-6.578 1.086c3.405-4.822 7.132-9.375 10.753-13.569l18.502.625c.086.003.172.004.257.004 4.025 0 7.354-3.193 7.491-7.247.14-4.14-3.103-7.609-7.243-7.749l-5.969-.202c3.447-3.817 6.921-7.717 10.246-11.694l16.239 1.312c.206.017.41.024.612.024 3.868 0 7.15-2.973 7.467-6.897.333-4.128-2.743-7.746-6.872-8.079l-6.683-.54c2.641-3.942 4.867-7.75 6.779-11.58 1.851-3.706.347-8.21-3.359-10.061-3.707-1.85-8.21-.346-10.061 3.359-1.759 3.522-3.854 7.059-6.395 10.777l-2.991-7.99c-1.452-3.879-5.775-5.851-9.653-4.394-3.879 1.452-5.847 5.774-4.395 9.653l6.233 16.649c-3.51 4.116-7.208 8.203-10.829 12.196l-3.521-9.404c-1.452-3.879-5.775-5.851-9.653-4.394-3.879 1.452-5.847 5.774-4.395 9.653l6.291 16.804c-4.046 4.711-8.212 9.863-12.028 15.405l-3.027-8.086c-1.453-3.879-5.775-5.848-9.653-4.395-3.879 1.453-5.847 5.774-4.395 9.654l7.445 19.888c-3.288 7.583-5.25 15.171-5.923 22.947-4.847-.802-9.827-1.214-14.893-1.214s-10.046.412-14.893 1.214c-.673-7.775-2.635-15.363-5.923-22.946l7.445-19.889c1.452-3.88-.515-8.201-4.395-9.654-3.877-1.449-8.201.516-9.653 4.395l-3.027 8.086c-3.815-5.542-7.982-10.694-12.028-15.405l6.291-16.804c1.452-3.88-.515-8.201-4.395-9.653-3.875-1.455-8.201.515-9.653 4.394l-3.521 9.404c-3.62-3.993-7.318-8.08-10.829-12.197l6.233-16.649c1.452-3.88-.515-8.201-4.395-9.653-3.876-1.454-8.201.514-9.653 4.394l-2.991 7.99c-2.541-3.718-4.636-7.256-6.395-10.777-1.852-3.706-6.356-5.211-10.061-3.359-3.699 1.852-5.202 6.356-3.352 10.062 1.912 3.83 4.138 7.638 6.779 11.58l-6.683.54c-4.128.333-7.205 3.951-6.872 8.079.317 3.924 3.599 6.897 7.467 6.897.203 0 .407-.008.612-.024l16.239-1.312c3.326 3.977 6.799 7.877 10.246 11.694l-5.969.202c-4.14.141-7.383 3.609-7.243 7.749.137 4.054 3.466 7.247 7.491 7.247.085 0 .171-.001.257-.004l18.502-.625c3.62 4.194 7.348 8.747 10.753 13.569l-6.578-1.086c-4.088-.676-7.947 2.091-8.622 6.178s2.091 7.946 6.178 8.621l18.518 3.058c2.691 6.523 4.16 13.03 4.444 19.701-12.589 4.46-23.753 11.783-32.458 21.511-2.929 1.034-5.708 2.333-8.3 3.901-10.842 6.56-17.061 17.228-17.061 29.267 0 6.759 1.791 13.977 5.025 21.157-.017.727-.025 1.497-.025 2.323 0 23.275 9.991 46.315 28.131 64.876 6.524 6.675 13.787 12.335 21.263 16.719 2.718 22.354 14.163 42.389 31.249 57.598l-13.504 37.118c-.279.762-.901 1.349-1.658 1.568l-19.283 5.594c-4.546 1.327-8.461 4.031-11.333 7.835-2.855 3.8-4.364 8.32-4.364 13.074 0 12.01 9.771 21.781 21.78 21.781h23.65c15.709 0 29.87-9.917 35.237-24.674l13.818-37.941c11.407 3.381 23.614 5.214 36.275 5.214 7.251 0 14.46-.597 21.51-1.777l12.558 34.504c5.372 14.758 19.533 24.674 35.239 24.674h23.655c12.009 0 21.778-9.77 21.778-21.779 0-9.629-6.458-18.23-15.706-20.914l-19.269-5.595c-.764-.222-1.381-.8-1.652-1.546 0 0 0 0-.001 0l-7.223-19.849c14.837 3.901 30.932 6.336 48.062 7.266l13.736 37.742c5.371 14.758 19.533 24.674 35.239 24.674h23.655c12.009 0 21.778-9.77 21.778-21.779 0-9.629-6.458-18.23-15.706-20.914l-19.269-5.595c-.764-.222-1.382-.8-1.653-1.547v.001l-5.156-14.17c3.28-.357 6.56-.76 9.816-1.205 10.829-1.475 21.662-3.441 32.292-5.857l16.885 46.391c5.372 14.758 19.532 24.674 35.238 24.674h23.655c12.009 0 21.778-9.77 21.778-21.779 0-9.629-6.458-18.23-15.706-20.914l-19.269-5.595c-.764-.222-1.382-.8-1.653-1.547v.001l-13.022-35.784c6.123-2.399 12.011-4.956 17.574-7.636 33.582-16.173 52.076-35.403 52.076-54.147zm-15 0c0 10.269-11.358 22.553-30.992 33.979 2.391-22.695 1.974-45.698-1.245-68.697 20.422 11.635 32.237 24.187 32.237 34.718zm-97.089-59.606c4.127 17.249 6.619 34.542 7.449 51.645-2.711-1.529-5.63-2.731-8.702-3.554-7.095-1.902-14.49-1.649-21.294.561-1.005-17.685-3.697-35.562-8.037-53.367 1.338-.319 2.67-.642 3.998-.969 8.904 1.549 17.822 3.456 26.586 5.684zm-41.225-87.042c-5.498 7.214-7.466 15.958-5.692 25.288 2.494 13.121 12.302 26.757 27.547 38.713-18.886 5.116-39.065 9.33-60.022 12.503-34.273 5.188-68.993 7.413-103.667 6.661 24.045-48.026 57.243-94.333 94.312-131.385 10.926-10.921 22.118-20.961 33.503-30.078 1.509 8.396 4.944 15.064 10.279 19.912 26.563 24.158 19.132 38.175 3.74 58.386zm-40.842 145.103c-4.633-4.724-10.499-8.21-17.065-9.97-2.535-.68-5.108-1.084-7.678-1.222-.807-13.207-4.66-26.013-11.331-37.763 9.939-.832 19.858-1.903 29.745-3.214 3.789 17.426 5.904 34.872 6.329 52.169zm-133.369-79.538c2.296-5.097 3.865-10.214 4.581-15.172 17.502-31.851 40.881-63.43 67.68-91.405 2.866-2.991 2.763-7.739-.228-10.605-2.992-2.866-7.738-2.764-10.604.228-16.051 16.756-30.922 34.776-44.118 53.389 17.55-52.86 44.197-99.624 77.138-134.657 8.11-8.626 19.574-13.457 31.463-13.287 11.9.182 23.234 5.382 31.095 14.268.858.971 1.708 1.944 2.546 2.918-25.061 14.248-49.506 31.938-72.566 52.624-3.084 2.766-3.341 7.508-.575 10.591s7.508 3.341 10.591.575c42.167-37.825 88.992-65.206 135.414-79.183 5.99-1.804 12.263-2.224 18.353-1.319-108.279 34.45-192.774 141.167-234.825 228.053 0 0-.001.001-.003.003-5.694-.278-11.385-.637-17.07-1.077.763-4.522 1.153-9.074 1.153-13.622 0-.826-.008-1.596-.025-2.322zm-19.801-37.59c4.482 2.713 9.826 7.765 9.826 16.433 0 13.921-12.691 36.079-36.212 49.719-6.001 3.48-13.173 3.489-19.186.027-6.013-3.464-9.603-9.674-9.603-16.612v-37.131c0-3.835 2.042-7.287 5.33-9.01 11.362-5.953 21.719-8.234 30.416-8.234 8.092-.001 14.747 1.975 19.429 4.808zm-62.674-28.258c13.118 0 25.209 3.112 35.464 8.981-9.688 1.136-19.803 4.285-29.595 9.415-2.189 1.147-4.157 2.591-5.869 4.271-1.711-1.679-3.68-3.124-5.869-4.271-9.793-5.13-19.908-8.28-29.597-9.415 10.256-5.869 22.348-8.981 35.466-8.981zm-62.674 28.258c4.683-2.833 11.335-4.809 19.427-4.809 8.696 0 19.055 2.282 30.416 8.234 3.288 1.723 5.331 5.175 5.331 9.01v37.132c0 6.938-3.59 13.148-9.603 16.612-6.012 3.462-13.184 3.454-19.186-.027-23.519-13.641-36.211-35.798-36.211-49.719 0-8.668 5.344-13.72 9.826-16.433zm77.246 236.272c-3.22 8.855-11.716 14.804-21.142 14.804h-23.65c-3.738 0-6.78-3.042-6.78-6.78 0-1.479.469-2.884 1.345-4.049.902-1.194 2.132-2.046 3.544-2.458l19.274-5.591c5.323-1.548 9.644-5.589 11.564-10.827l11.89-32.68c5.548 3.669 11.496 6.9 17.773 9.637zm139.77-4.079 19.269 5.595c2.879.836 4.889 3.513 4.889 6.51 0 3.737-3.041 6.778-6.778 6.778h-23.655c-9.423 0-17.92-5.949-21.143-14.805l-31.676-87.032c-.837-2.299-2.743-4.046-5.106-4.679-2.342-.632-4.885-.08-6.762 1.498l-3.806 3.193c-2.251 1.889-5.089 2.674-7.992 2.217-2.902-.459-5.359-2.084-6.917-4.574-2.63-4.205-1.749-9.779 2.051-12.967l9.273-7.783c5.702-4.786 13.096-6.424 20.288-4.498 7.19 1.927 12.774 7.044 15.319 14.039l31.182 85.686c1.9 5.226 6.224 9.271 11.564 10.822zm-12.754-57.952-15.897-43.685c-4.18-11.487-13.725-20.235-25.533-23.399-11.809-3.166-24.448-.361-33.813 7.496l-9.272 7.783c-9.497 7.969-11.7 21.904-5.124 32.413 3.839 6.137 10.141 10.305 17.291 11.435 5.297.838 10.669-.054 15.352-2.466l10.449 28.711c-5.353.761-10.801 1.145-16.281 1.145-46.261 0-85.517-27.529-95.201-64.657 5.655 1.78 11.211 2.726 16.442 2.726 8.535 0 18.036-2.477 27.475-7.162 3.71-1.842 5.225-6.342 3.383-10.053-1.841-3.71-6.343-5.227-10.052-3.383-7.378 3.662-14.572 5.598-20.806 5.598-21.189 0-51.345-21.751-62.822-51.977 5.658 5.44 12.073 10.34 19.008 14.362 5.364 3.11 11.25 4.665 17.139 4.665 5.856 0 11.716-1.539 17.059-4.617 3.77-2.172 7.005-4.949 9.615-8.175 2.61 3.226 5.846 6.004 9.615 8.175 5.344 3.079 11.202 4.617 17.059 4.617 5.889 0 11.776-1.556 17.139-4.666 6.926-4.017 13.333-8.909 18.986-14.34-3.583 9.432-9.154 18.494-16.497 26.66-2.77 3.08-2.518 7.822.563 10.592 1.433 1.289 3.225 1.923 5.012 1.923 2.053 0 4.099-.839 5.58-2.485 9.06-10.076 15.835-21.381 20.039-33.202 16.802 1.373 33.655 2.058 50.503 2.058 11.607 0 23.211-.325 34.797-.976 8.222 11.781 12.813 25.072 13.4 38.805-4.041 1.476-7.849 3.654-11.23 6.491l-9.273 7.783c-9.496 7.969-11.699 21.904-5.124 32.413 1.538 2.458 3.471 4.6 5.696 6.358-4.317 4.791-9.222 9.147-14.677 13.034zm14.006 8.193c5.888-4.763 11.156-10.057 15.761-15.845 4.129.068 8.204-.889 11.856-2.77l8.894 24.436c-12.91-1.019-25.118-2.966-36.511-5.821zm97.369 49.759 19.269 5.595c2.879.836 4.889 3.513 4.889 6.51 0 3.737-3.041 6.778-6.778 6.778h-23.655c-9.424 0-17.921-5.949-21.144-14.805l-31.675-87.032c-1.034-2.924-3.95-4.962-7.048-4.935-1.742 0-3.454.607-4.82 1.754l-3.806 3.192c-4.427 3.912-11.905 2.73-14.909-2.356-2.631-4.205-1.749-9.779 2.05-12.967l9.273-7.783c5.702-4.786 13.095-6.426 20.288-4.498 7.19 1.927 12.773 7.044 15.319 14.039l31.181 85.686v.001c1.901 5.225 6.225 9.27 11.566 10.821zm.165-45.543c-2.691.328-5.389.625-8.081.889l-15.044-41.341c2.254-27.45.366-55.459-5.61-83.399 9.607-1.515 19.053-3.244 28.292-5.176 4.814 19.662 7.51 39.4 8.034 58.815l-7.146 5.998c-9.497 7.968-11.7 21.903-5.125 32.413 2.315 3.702 5.528 6.686 9.281 8.721-1.188 7.707-2.728 15.434-4.601 23.08zm15.944-2.311c1.325-5.95 2.459-11.932 3.393-17.906 3.006-.341 5.93-1.226 8.626-2.614l6.18 16.98c-6.016 1.333-12.095 2.515-18.199 3.54zm81.771 47.854 19.269 5.595c2.879.836 4.889 3.513 4.889 6.51 0 3.737-3.041 6.778-6.778 6.778h-23.655c-9.423 0-17.92-5.949-21.143-14.805l-31.676-87.032c-1.034-2.924-3.95-4.962-7.048-4.935-1.742 0-3.454.607-4.82 1.754l-3.806 3.192c-2.252 1.89-5.091 2.675-7.992 2.218-2.902-.459-5.358-2.084-6.917-4.574-2.631-4.205-1.749-9.779 2.05-12.967l9.273-7.783c5.702-4.786 13.096-6.426 20.288-4.498 7.19 1.927 12.773 7.044 15.319 14.039l31.181 85.686v.001c1.901 5.225 6.225 9.27 11.566 10.821zm-2.988-71.21c-4.055 1.864-8.279 3.661-12.636 5.375l-13.028-35.801c-.452-1.243-.968-2.454-1.542-3.63.264-20.854-1.86-42.065-6.326-63.242 11.406 3.532 22.234 7.575 31.922 11.929 5.116 28.608 5.657 57.289 1.61 85.369z"/></g></g></svg>