<svg id="Capa_1" enable-background="new 0 0 512 512" height="512" viewBox="0 0 512 512" width="512" xmlns="http://www.w3.org/2000/svg"><g><g><g fill="#858586"><path d="m184.195 163.077c-1.971 0-3.9-.372-5.738-1.104l-74.275-29.609c-4.493-1.791-7.937-5.646-9.211-10.312l-10.746-39.304-31.052-25.86c-3.182-2.65-5.141-6.38-5.517-10.503s.876-8.146 3.526-11.328c2.951-3.545 7.294-5.58 11.913-5.58 3.613 0 7.135 1.274 9.914 3.588l34.799 28.981c2.451 2.042 4.19 4.746 5.031 7.821l9.996 36.56 67.102 26.75c3.846 1.533 6.864 4.472 8.499 8.275 1.636 3.804 1.692 8.017.158 11.863-2.364 5.93-8.016 9.762-14.399 9.762z"/><path d="m34.014 333.857c-5.68 0-10.896-3.096-13.614-8.08-1.982-3.634-2.431-7.824-1.263-11.795 1.169-3.973 3.813-7.252 7.449-9.234l28.138-15.347 10.814-66.521c.961-5.911 5.304-10.788 11.065-12.423l104.274-29.609c1.381-.393 2.808-.592 4.238-.592 6.892 0 13.021 4.633 14.906 11.267 1.132 3.984.644 8.169-1.373 11.785s-5.32 6.23-9.303 7.361l-94.792 26.916-10.451 64.278c-.772 4.757-3.644 8.81-7.876 11.12l-34.798 18.98c-2.272 1.24-4.836 1.894-7.414 1.894z"/><path d="m72.691 504.5c-3.688 0-7.264-1.322-10.07-3.722-3.146-2.693-5.057-6.449-5.377-10.577-.321-4.128.984-8.134 3.677-11.279l19.814-23.156-16.365-76.512c-1.187-5.551.75-11.298 5.056-14.998l104.275-89.608c2.811-2.415 6.396-3.744 10.099-3.744 4.525 0 8.812 1.967 11.759 5.397 2.698 3.141 4.013 7.144 3.699 11.272-.312 4.128-2.214 7.888-5.354 10.586l-97.295 83.611 16.043 75.008c1.004 4.692-.26 9.672-3.381 13.319l-24.798 28.98c-2.949 3.446-7.243 5.423-11.78 5.423z"/></g><path d="m327.805 163.077c-6.384 0-12.036-3.832-14.4-9.762-1.533-3.845-1.477-8.058.159-11.862 1.635-3.804 4.653-6.743 8.5-8.275l67.101-26.75 9.995-36.558c.842-3.077 2.581-5.781 5.03-7.822l34.8-28.981c2.777-2.314 6.299-3.59 9.914-3.59 4.619 0 8.963 2.035 11.916 5.582 2.648 3.18 3.9 7.203 3.524 11.326s-2.335 7.853-5.516 10.502l-31.053 25.86-10.746 39.305c-1.274 4.664-4.718 8.519-9.212 10.31l-74.274 29.609c-1.838.734-3.768 1.106-5.738 1.106z" fill="#9c9c9c"/><path d="m477.986 333.857c-2.578 0-5.142-.654-7.413-1.893l-34.8-18.981c-4.233-2.31-7.104-6.363-7.877-11.122l-10.451-64.276-94.792-26.916c-3.982-1.131-7.286-3.745-9.303-7.361s-2.505-7.801-1.373-11.785c1.884-6.634 8.014-11.267 14.906-11.267 1.429 0 2.854.199 4.235.591l104.278 29.609c5.761 1.636 10.104 6.512 11.064 12.424l10.814 66.52 28.139 15.347c3.635 1.982 6.279 5.262 7.448 9.234 1.168 3.972.72 8.161-1.263 11.796-2.715 4.984-7.932 8.08-13.612 8.08z" fill="#9c9c9c"/><path d="m439.307 504.5c-4.538 0-8.832-1.977-11.781-5.423l-24.797-28.979c-3.121-3.647-4.385-8.627-3.381-13.32l16.043-75.007-97.295-83.611c-3.14-2.698-5.041-6.457-5.354-10.585s1.001-8.131 3.698-11.271c2.948-3.431 7.234-5.399 11.76-5.399 3.704 0 7.291 1.331 10.101 3.747l104.273 89.607c4.306 3.7 6.243 9.446 5.056 14.998l-16.365 76.513 19.814 23.156c2.692 3.145 3.998 7.151 3.677 11.279-.32 4.128-2.23 7.883-5.376 10.575-2.805 2.398-6.382 3.72-10.073 3.72z" fill="#9c9c9c"/><g><path d="m311.14 478.02c-64.744-28.394-95.099-104.178-95.099-189.498 0-47.95 18.929-96.101 43.449-133.352l95.06 18.45c26.53 158.19-.82 259.66-43.41 304.4z" fill="#858586"/><path d="m311.14 478.02c-76.19 80.05-201.14-21.42-153.69-304.4l98.54-19.12h.02l3.48.67c-17.22 35.93-27.39 80.24-27.39 128.19 0 85.32 32.2 159.15 79.04 194.66z" fill="#767678"/></g><g><path d="m351.69 178.73c-4.51 4.3-12.97 11.24-24.7 16.16-6.39 2.68-11.59 7.59-14.79 13.74-15.98 30.76-37.94 55.1-49.09 66.41-3.91 3.97-10.31 3.97-14.22 0-4.09-4.15-9.63-10.05-15.8-17.38-8.977-69.088 15.004-126.27 64.72-157.43 1.1 1.29 2.54 2.29 4.2 2.87 26.14 9.21 46.42 34.64 52.59 66.63.63 3.29-.48 6.69-2.91 9z" fill="#f8ea69"/><path d="m297.81 100.23c-35.05 34.2-59.62 91.26-64.72 157.43-10.65-12.65-23.17-29.55-33.29-49.03-3.2-6.15-8.4-11.06-14.79-13.74-11.73-4.92-20.19-11.86-24.7-16.16-2.43-2.31-3.54-5.71-2.91-9 6.17-31.99 26.45-57.42 52.59-66.63 3.26-1.14 5.66-3.89 6.33-7.28 8.12-41.01 71.23-41.04 79.36 0 .33 1.67 1.07 3.17 2.13 4.41z" fill="#f6ca56"/></g></g><g><g><path d="m223.541 157c-4.143 0-7.5-3.358-7.5-7.5v-12c0-4.142 3.357-7.5 7.5-7.5s7.5 3.358 7.5 7.5v12c0 4.142-3.357 7.5-7.5 7.5z"/><path d="m288.439 157c-4.143 0-7.5-3.358-7.5-7.5v-12c0-4.142 3.357-7.5 7.5-7.5s7.5 3.358 7.5 7.5v12c0 4.142-3.358 7.5-7.5 7.5z"/></g><path d="m500.053 311.86c-1.738-5.899-5.666-10.764-11.052-13.693l-24.909-13.592-10.23-62.897c-1.427-8.779-7.872-16.015-16.414-18.432l-73.905-20.984c-.446-2.864-.908-5.736-1.387-8.616.208-1.75.151-3.547-.192-5.335-.574-2.978-1.264-5.905-2.062-8.775l50.697-20.208c6.659-2.656 11.768-8.373 13.666-15.298l10.128-37.025 29.239-24.352c4.724-3.938 7.628-9.474 8.177-15.575.562-6.124-1.293-12.097-5.22-16.811-4.376-5.266-10.823-8.287-17.688-8.287-5.37 0-10.597 1.894-14.71 5.327l-34.799 28.979c-3.641 3.031-6.223 7.046-7.466 11.605l-9.014 32.956-44.985 17.937c-9.332-10.385-20.724-18.283-33.441-22.763-.755-.264-1.296-.882-1.449-1.658-2.251-11.365-7.934-19.923-15.295-25.914 19.889-26.542 57.236-47.976 95.64-53.525 4.1-.592 6.943-4.396 6.351-8.496s-4.4-6.945-8.495-6.35c-42.706 6.17-84.437 30.61-106.55 60.899-6.066-2.311-12.494-3.425-18.684-3.425-6.192 0-12.623 1.115-18.69 3.427-22.112-30.289-63.844-54.73-106.551-60.9-4.091-.593-7.902 2.25-8.495 6.35s2.251 7.903 6.351 8.496c38.405 5.549 75.753 26.984 95.641 53.527-7.364 5.992-13.046 14.551-15.297 25.916-.153.772-.694 1.391-1.465 1.661-12.709 4.478-24.097 12.373-33.426 22.757l-44.984-17.936-9.013-32.95c-1.244-4.565-3.826-8.58-7.466-11.61l-34.794-28.977c-4.119-3.438-9.346-5.332-14.716-5.332-6.865 0-13.312 3.021-17.683 8.279-3.933 4.721-5.788 10.694-5.227 16.802.55 6.117 3.454 11.653 8.18 15.592l29.237 24.351 10.129 37.029c1.897 6.921 7.006 12.638 13.666 15.294l50.697 20.208c-.8 2.872-1.49 5.802-2.065 8.783-.34 1.771-.399 3.552-.196 5.288-.482 2.9-.947 5.786-1.395 8.659l-73.884 20.978c-8.549 2.419-14.994 9.655-16.42 18.433l-10.231 62.898-24.9 13.587c-5.395 2.935-9.322 7.799-11.061 13.698-1.734 5.887-1.071 12.104 1.873 17.515 4.037 7.393 11.774 11.985 20.191 11.985 3.833 0 7.643-.975 11.011-2.815l34.805-18.982c6.28-3.43 10.537-9.446 11.677-16.499l9.686-59.562 41.048-11.655c-2.006 21.692-2.941 42.496-2.808 62.365l-28.528 24.52c-3.142 2.7-3.499 7.436-.799 10.577 1.483 1.726 3.581 2.611 5.69 2.611 1.731 0 3.471-.596 4.886-1.812l19.232-16.531c.296 6.779.724 13.44 1.286 19.981l-49.475 42.524c-2.081 1.789-3.02 4.572-2.445 7.256l16.042 75.02c.52 2.412-.135 4.979-1.747 6.865l-24.795 28.974c-1.527 1.782-3.745 2.803-6.086 2.803-1.901 0-3.747-.683-5.19-1.915-1.653-1.417-2.615-3.306-2.782-5.465-.167-2.158.492-4.174 1.899-5.822l19.82-23.15c1.521-1.776 2.126-4.16 1.637-6.447l-16.371-76.524c-.612-2.857.389-5.818 2.615-7.73l19.811-17.03c3.142-2.7 3.499-7.436.799-10.577-2.701-3.143-7.438-3.498-10.576-.798l-19.808 17.027c-6.396 5.492-9.273 14.02-7.508 22.25l15.594 72.892-17.414 20.339c-3.99 4.674-5.928 10.616-5.453 16.729.473 6.119 3.306 11.693 7.985 15.704 4.165 3.558 9.472 5.517 14.942 5.517 6.724 0 13.092-2.93 17.478-8.043l24.803-28.983c4.636-5.423 6.51-12.815 5.014-19.762l-15.108-70.656 38.254-32.88c1.492 11.628 3.435 22.845 5.828 33.637 11.473 51.745 32.656 90.075 61.263 110.846 14.504 10.532 30.068 15.841 45.709 15.84 11.605-.001 23.255-2.925 34.534-8.809 24.704-12.888 45.356-38.912 59.725-75.259 8.857-22.406 15.097-47.904 18.686-76.251l38.249 32.875-15.106 70.646c-1.498 6.958.376 14.349 5.015 19.775l24.796 28.976c4.37 5.115 10.742 8.048 17.481 8.048 5.485 0 10.795-1.962 14.95-5.525 4.672-4.003 7.505-9.577 7.978-15.694.475-6.115-1.463-12.056-5.46-16.738l-17.407-20.331 15.593-72.888c1.767-8.234-1.11-16.761-7.504-22.251l-74.964-64.425c.03-4.859-.002-9.781-.096-14.764-.079-4.141-3.521-7.427-7.641-7.356-4.142.078-7.436 3.499-7.357 7.641 1.055 55.697-6.264 105.06-21.162 142.75-13.023 32.946-31.252 56.278-52.714 67.474-21.166 11.043-44.07 8.959-64.491-5.87-25.23-18.32-44.917-54.529-55.432-101.955-11.661-52.594-12.053-118.605-1.213-191.716 5.131 3.926 11.726 8.104 19.72 11.457 4.689 1.966 8.609 5.619 11.034 10.279 2.797 5.388 5.923 10.859 9.292 16.262 2.191 3.516 6.818 4.587 10.332 2.396 3.516-2.191 4.588-6.817 2.396-10.333-3.161-5.071-6.091-10.197-8.711-15.244-4.043-7.769-10.628-13.875-18.542-17.194-10.93-4.584-18.742-11.161-22.434-14.68-.587-.557-.859-1.382-.713-2.144 5.638-29.228 23.922-52.592 47.702-60.971 5.738-2.007 10.035-6.953 11.211-12.903 1.072-5.414 3.848-11.26 8.636-15.907.407.813.797 1.629 1.17 2.448 1.258 2.763 3.981 4.395 6.831 4.395 1.039 0 2.095-.217 3.103-.676 3.77-1.716 5.435-6.163 3.719-9.933-.557-1.224-1.148-2.442-1.771-3.655 3.167-.894 6.707-1.397 10.64-1.397 3.93 0 7.467.502 10.632 1.395-.624 1.213-1.215 2.432-1.772 3.657-1.716 3.77-.051 8.217 3.719 9.933 1.008.458 2.063.676 3.103.676 2.85 0 5.574-1.633 6.831-4.395.373-.819.763-1.635 1.171-2.449 4.786 4.647 7.563 10.492 8.635 15.906 1.176 5.953 5.473 10.898 11.195 12.9 23.796 8.384 42.08 31.749 47.716 60.969.148.77-.124 1.595-.718 2.159-3.685 3.512-11.497 10.088-22.426 14.672-7.915 3.319-14.5 9.425-18.545 17.199-15.423 29.687-36.553 53.218-47.777 64.604-.635.645-1.38.741-1.768.741s-1.133-.096-1.765-.738c-6.56-6.667-13.22-14.144-19.262-21.623-2.602-3.221-7.323-3.725-10.547-1.122-3.222 2.603-3.725 7.325-1.121 10.547 6.434 7.965 13.243 15.608 20.241 22.72 3.312 3.362 7.734 5.214 12.453 5.214s9.142-1.852 12.451-5.212c11.815-11.985 34.075-36.785 50.402-68.213 2.428-4.666 6.348-8.319 11.038-10.286 7.991-3.352 14.584-7.528 19.712-11.451 2.798 18.816 4.867 37.197 6.167 54.824.29 3.943 3.58 6.949 7.472 6.949.185 0 .372-.007.56-.021 4.131-.304 7.232-3.9 6.928-8.031-.298-4.044-.637-8.128-1.013-12.245l41.095 11.668 9.684 59.555c1.142 7.06 5.398 13.075 11.683 16.508l34.795 18.977c3.374 1.844 7.184 2.818 11.017 2.818 8.417 0 16.154-4.592 20.197-11.996 2.935-5.397 3.599-11.614 1.864-17.501zm-128.022 1.667 65.653 56.423c2.224 1.909 3.225 4.87 2.611 7.731l-16.37 76.52c-.489 2.287.116 4.67 1.637 6.447l19.813 23.142c1.414 1.656 2.073 3.672 1.906 5.832-.167 2.157-1.129 4.046-2.784 5.464-1.439 1.234-3.282 1.914-5.188 1.914-2.346 0-4.562-1.018-6.081-2.796l-24.797-28.977c-1.615-1.889-2.27-4.457-1.748-6.878l16.04-75.01c.574-2.684-.364-5.467-2.445-7.256l-49.501-42.546c.549-6.535.967-13.205 1.254-20.01zm-279.529-83.152c-2.8.795-4.887 3.138-5.354 6.011l-10.452 64.277c-.396 2.452-1.876 4.542-4.056 5.732l-34.807 18.983c-1.175.642-2.497.981-3.823.981-2.928 0-5.621-1.6-7.021-4.165-1.025-1.884-1.258-4.049-.654-6.095.604-2.053 1.969-3.744 3.849-4.767l28.13-15.35c2.032-1.109 3.438-3.094 3.81-5.379l10.821-66.521c.495-3.052 2.732-5.566 5.705-6.408l67.413-19.14c-.792 5.807-1.513 11.556-2.163 17.247zm64.611-84.988-50.155-19.992c-2.316-.923-4.094-2.915-4.754-5.322l-10.75-39.3c-.405-1.48-1.255-2.801-2.435-3.784l-31.047-25.859c-1.642-1.368-2.651-3.289-2.843-5.425-.199-2.16.428-4.18 1.819-5.85 1.518-1.826 3.76-2.874 6.151-2.874 1.864 0 3.677.656 5.11 1.853l34.801 28.98c1.265 1.053 2.162 2.447 2.595 4.035l10 36.56c.621 2.27 2.271 4.117 4.457 4.988l44.603 17.784c-2.846 4.46-5.376 9.21-7.552 14.206zm197.774 0c-2.176-4.996-4.706-9.746-7.553-14.204l44.603-17.784c2.187-.872 3.836-2.718 4.457-4.988l10.002-36.565c.431-1.583 1.328-2.977 2.594-4.03l34.806-28.985c1.428-1.191 3.24-1.848 5.104-1.848 2.392 0 4.634 1.047 6.157 2.881 1.386 1.662 2.013 3.683 1.812 5.858-.19 2.12-1.2 4.041-2.84 5.408l-31.05 25.86c-1.18.983-2.029 2.304-2.435 3.784l-10.749 39.296c-.661 2.412-2.438 4.403-4.754 5.326zm130.129 176.798c-1.406 2.575-4.1 4.175-7.027 4.175-1.326 0-2.648-.339-3.829-.984l-34.797-18.978c-2.184-1.193-3.664-3.283-4.062-5.742l-10.45-64.27c-.467-2.873-2.554-5.216-5.354-6.011l-51.43-14.603c-.647-5.696-1.364-11.447-2.151-17.244l67.44 19.148c2.966.839 5.203 3.354 5.699 6.407l10.82 66.52c.371 2.285 1.777 4.271 3.81 5.379l28.139 15.355c1.871 1.018 3.235 2.709 3.84 4.762.604 2.048.372 4.212-.648 6.086z"/></g></g></svg>