<svg id="Capa_1" enable-background="new 0 0 512 512" height="512" viewBox="0 0 512 512" width="512" xmlns="http://www.w3.org/2000/svg"><g><g><g><path d="m101.587 458.913c1.414 0 2.826-.195 4.194-.579 3.983-1.118 7.296-3.723 9.323-7.332 2.028-3.61 2.528-7.794 1.409-11.781-5.216-18.585 2.061-38.283 18.108-49.017l8.1-5.417c3.441-2.301 5.781-5.805 6.587-9.865.807-4.062-.017-8.193-2.318-11.635-2.884-4.311-7.703-6.884-12.893-6.884-3.072 0-6.05.904-8.608 2.615l-8.101 5.417c-27.227 18.209-39.572 51.63-30.721 83.164 1.869 6.661 8.005 11.314 14.92 11.314z" fill="#d97c41"/></g><g><path d="m69.528 320.674c5.981 0 11.489-3.497 14.033-8.908l14.236-30.29c4.02-8.553 12.716-14.079 22.153-14.079.946 0 1.905.056 2.85.165l29.217 3.397c.598.069 1.201.104 1.797.104 7.865 0 14.48-5.895 15.39-13.711.985-8.49-5.118-16.199-13.606-17.187l-29.218-3.397c-2.134-.248-4.3-.373-6.438-.373-21.388 0-41.092 12.519-50.199 31.893l-14.237 30.29c-3.634 7.734-.3 16.984 7.434 20.621 2.082.98 4.298 1.475 6.588 1.475z" fill="#d97c41"/></g><g><path d="m153.8 188.881c6.239 0 11.842-3.712 14.274-9.456 1.615-3.811 1.649-8.023.096-11.861-1.553-3.839-4.509-6.842-8.322-8.457l-34.015-14.412 6.521-52.389c1.056-8.481-4.984-16.24-13.466-17.296-.643-.079-1.279-.118-1.909-.118-7.809 0-14.423 5.84-15.387 13.584l-7.968 64.008c-.852 6.842 2.987 13.498 9.335 16.187l44.797 18.98c1.923.815 3.958 1.23 6.044 1.23z" fill="#d97c41"/></g><g><path d="m410.413 458.913c-1.414 0-2.826-.195-4.194-.579-3.983-1.118-7.296-3.723-9.323-7.332-2.028-3.61-2.528-7.794-1.409-11.781 5.216-18.585-2.061-38.283-18.108-49.017l-8.1-5.417c-3.441-2.301-5.781-5.805-6.587-9.865-.807-4.062.017-8.193 2.318-11.635 2.884-4.311 7.703-6.884 12.893-6.884 3.072 0 6.05.904 8.608 2.615l8.101 5.417c27.227 18.209 39.572 51.63 30.721 83.164-1.869 6.661-8.005 11.314-14.92 11.314z" fill="#df8a57"/></g><g><path d="m442.472 320.674c-5.981 0-11.489-3.497-14.033-8.908l-14.236-30.29c-4.02-8.553-12.716-14.079-22.153-14.079-.946 0-1.905.056-2.85.165l-29.217 3.397c-.598.069-1.201.104-1.797.104-7.865 0-14.48-5.895-15.39-13.711-.985-8.49 5.118-16.199 13.606-17.187l29.218-3.397c2.134-.248 4.3-.373 6.438-.373 21.388 0 41.092 12.519 50.199 31.893l14.237 30.29c3.634 7.734.3 16.984-7.434 20.621-2.082.98-4.298 1.475-6.588 1.475z" fill="#df8a57"/></g><g><path d="m358.2 188.881c-6.239 0-11.842-3.712-14.274-9.456-1.615-3.811-1.649-8.023-.096-11.861 1.553-3.839 4.509-6.842 8.322-8.457l34.015-14.412-6.521-52.389c-1.056-8.481 4.984-16.24 13.466-17.296.643-.079 1.279-.118 1.909-.118 7.809 0 14.423 5.84 15.387 13.584l7.968 64.008c.852 6.842-2.987 13.498-9.335 16.187l-44.797 18.98c-1.923.815-3.958 1.23-6.044 1.23z" fill="#df8a57"/></g><ellipse cx="256" cy="225.566" fill="#666667" rx="77.87" ry="96.966"/><g><path d="m378.22 192.06c-40.88-15.45-71.55-2.61-104.6 1.55-31.78-7.702-61.737-37.77-61.737-65.01 0-16.87 21.901-32.588 40.237-43.78 1.29-.05 2.59-.07 3.88-.07 53.48 0 108.25 39.24 122.22 107.31z" fill="#f9d171"/><path d="m273.62 193.61c-5.78.74-11.63 1.2-17.62 1.2-40.26 0-74.19-20.9-122.22-2.75 13.64-66.44 65.67-105.41 118.34-107.24-9.48 12.45-15.12 28-15.12 44.87 0 27.24 14.71 51.06 36.62 63.92z" fill="#fab658"/></g><g><path d="m256 259.37-.76 203.36c-2.52 0-6.74 4.97-6.74 4.97-6.17-.326-12.242-1.055-18.193-2.174 0 0-7.65-8.655-10.637-9.432-1.949-.507-4.224 5.758-4.224 5.758-8.23-2.538-16.174-5.853-23.766-9.903-55.459-100.667-65.742-202.581-15.66-273.21 6.03.62 12.108 1.65 18.121 3.068 0 0 1.439 16.358 2.204 16.552 9.911 2.505 26.966-3.4 26.966-3.4 20.099 14.627 32.689 38.395 32.689 64.411z" fill="#f8ea69"/><path d="m191.68 451.95c-9.6-5.11-18.64-11.4-26.99-18.78-43.299-59.833-48.049-176.344-14.07-254.42 8.18-.92 16.75-.89 25.4-.01-36.96 72.03-30.78 173.24 15.66 273.21z" fill="#f6ca56"/><g fill="#767678"><path d="m215.45 461.84c4.86 1.5 9.81 2.73 14.86 3.67-22.29-70.56-21.85-191.34-7-270.55-7.9-5.75-16.96-10.09-26.87-12.59-.77-.19-1.53-.38-2.3-.56-35.89 65.23-27.14 219.42 21.31 280.03z"/><path d="m106 285.81c0 64.46 23.01 115.84 58.7 147.38-28.47-59.82-29.71-176.35-14.08-254.44-4.91.55-9.67 1.44-14.23 2.7-7.27 2-13.11 7.44-15.54 14.58-9.51 28.05-14.85 58.74-14.85 89.78z"/></g></g><g><path d="m361.38 178.75c28.502 75.994 27.675 192.457-14.08 254.44-14.944 13.198-32.114 22.911-50.749 28.652 0 0 .209-14.052-1.501-19.602-2.76-8.91-15.47-17.01-18.1-27.74-18.71-76.45-9.029-168.376 7.41-216.13 1.4-1.18 2.85-2.32 4.34-3.4 0 0 15.81.49 25.72-2.02.76-.19 3.44-11.14 3.44-11.14 14.64-3.46 29.63-4.62 43.52-3.06z" fill="#f8ea69"/><path d="m282.049 465.077c-.085.016-.358.44-.358.44-5.951 1.119-12.022 1.848-18.191 2.175 0 0-3.394-2.965-5.909-2.965l-1.591-205.357c0-24.09 10.8-46.26 28.36-61.01-11.79 53.35-9.96 138.39 8.75 214.84 2.628 10.734 5.317 20.525 8.076 29.445 1.723 5.572-10.709 20.831-19.137 22.432z" fill="#f6ca56"/><g fill="#767678"><path d="m296.55 461.84c-4.86 1.5-9.81 2.73-14.86 3.67 22.29-70.56 21.85-191.34 7-270.55 7.9-5.75 16.96-10.09 26.87-12.59.77-.19 1.53-.38 2.3-.56 35.89 65.23 27.14 219.42-21.31 280.03z"/><path d="m406 285.81c0 64.46-23.01 115.84-58.7 147.38 28.47-59.82 29.71-176.35 14.08-254.44 4.91.55 9.67 1.44 14.23 2.7 7.27 2 13.11 7.44 15.54 14.58 9.51 28.05 14.85 58.74 14.85 89.78z"/></g></g></g><g><g><path d="m206.268 153.06c-4.143 0-7.5-3.357-7.5-7.5v-12c0-4.143 3.357-7.5 7.5-7.5s7.5 3.357 7.5 7.5v12c0 4.142-3.358 7.5-7.5 7.5z"/><path d="m305.732 153.06c-4.143 0-7.5-3.357-7.5-7.5v-12c0-4.143 3.357-7.5 7.5-7.5s7.5 3.357 7.5 7.5v12c0 4.142-3.357 7.5-7.5 7.5z"/></g><path d="m495.076 307.702-29.598-2.282c.041-3.412-.687-6.832-2.191-10.031l-14.24-30.29c-7.934-16.876-22.99-29.327-40.897-34.085-2.474-12.722-5.787-25.269-9.899-37.399-1.246-3.661-3.164-6.989-5.608-9.85l19.322-8.187c9.42-3.99 15.118-13.867 13.857-24.022l-7.971-64.009c-.127-1.008-.321-2.007-.581-2.989l56.195-37.54c3.444-2.301 4.371-6.958 2.07-10.402-2.3-3.445-6.96-4.373-10.402-2.07l-56.196 37.54c-4.661-3.58-10.809-5.283-16.758-4.517-12.584 1.574-21.543 13.09-19.972 25.669l5.819 46.76-9.952 4.218c-9.087-15.624-20.929-29.193-35.143-40.127-7.904-6.081-16.403-11.201-25.28-15.286 22.746-16.333 38.742-45.153 43.879-80.214.601-4.098-2.235-7.907-6.334-8.508-4.09-.598-7.907 2.234-8.508 6.334-5.227 35.68-22.683 63.74-46.928 75.71-11.045-3.206-22.421-4.873-33.761-4.873-11.458 0-22.846 1.634-33.885 4.817-24.174-12.004-41.582-40.037-46.805-75.655-.601-4.099-4.419-6.929-8.509-6.333-4.099.602-6.934 4.411-6.333 8.509 5.132 34.999 21.087 63.787 43.768 80.135-5.758 2.65-11.366 5.745-16.781 9.273-3.471 2.262-4.451 6.908-2.19 10.378 2.263 3.471 6.908 4.451 10.378 2.19 18.39-11.981 39.261-18.314 60.356-18.314 23.825 0 47.899 8.426 67.787 23.726 18.319 14.093 32.242 33.155 40.735 55.619-15.726-2.095-33.312-.918-50.8 3.504-6.818 1.724-13.271 4.233-19.273 7.419-13.051 2.477-25.403 4.792-38.448 4.792-13.043 0-25.393-2.314-38.442-4.79-6.004-3.188-12.459-5.7-19.279-7.425-17.499-4.424-35.099-5.598-50.838-3.496 5.535-14.717 13.363-27.927 23.361-39.388 2.724-3.122 2.4-7.859-.721-10.582s-7.859-2.4-10.582.721c-5.897 6.76-11.115 14.053-15.635 21.839l-9.892-4.192 5.819-46.757c1.571-12.582-7.388-24.098-19.971-25.672-5.95-.767-12.1.937-16.76 4.516l-56.195-37.54c-3.445-2.303-8.103-1.373-10.402 2.07-2.301 3.444-1.374 8.102 2.07 10.402l56.195 37.54c-.26.984-.455 1.986-.582 2.997l-7.97 64.003c-1.261 10.152 4.438 20.029 13.856 24.019l19.321 8.187c-2.443 2.863-4.36 6.194-5.604 9.858-4.114 12.125-7.427 24.669-9.902 37.394-17.907 4.758-32.963 17.209-40.897 34.085l-14.24 30.291c-1.504 3.2-2.233 6.621-2.193 10.03l-29.596 2.282c-4.13.318-7.22 3.924-6.901 8.054.303 3.935 3.589 6.924 7.47 6.924.193 0 .389-.007.584-.022l33.924-2.616c2.113 2.491 4.757 4.534 7.744 5.944 3.077 1.449 6.37 2.185 9.786 2.185 8.878 0 17.05-5.187 20.816-13.209l8.393-17.852c.955 22.409 4.754 43.773 11.174 63.423-27.61 20.438-39.828 55.719-30.464 89.093 1.888 6.723 6.706 12.067 12.824 14.796l-25.388 35.733c-2.398 3.377-1.606 8.059 1.771 10.458 3.34 2.383 8.044 1.629 10.458-1.771l31.436-44.246c4.695-1.966 8.573-5.418 11.087-9.922 3.012-5.355 3.756-11.564 2.095-17.481-3.265-11.639-.67-23.834 6.606-32.979 4.238 6.653 8.874 12.939 13.894 18.812 28.867 33.771 68.561 52.368 111.769 52.368.083 0 .166-.002.249-.004 33.95-.056 65.785-11.544 92.082-33.231 12.832-10.583 24.027-23.353 33.346-37.926 7.265 9.144 9.854 21.33 6.593 32.959-1.662 5.919-.918 12.128 2.082 17.464 2.524 4.52 6.404 7.975 11.098 9.941l31.436 44.246c1.463 2.059 3.774 3.157 6.121 3.157 1.502 0 3.019-.45 4.337-1.387 3.377-2.399 4.169-7.081 1.771-10.458l-25.388-35.733c6.119-2.729 10.937-8.073 12.824-14.797 9.355-33.34-2.83-68.585-30.387-89.035.908-2.776 1.763-5.588 2.565-8.436 1.123-3.987-1.199-8.13-5.186-9.253-3.987-1.116-8.13 1.2-9.253 5.187-5.349 18.996-13.244 36.261-23.353 51.265 15.463-61.356 14.951-147.134 3.788-211.405.978.229 1.944.473 2.896.735 4.908 1.351 8.808 5.001 10.427 9.757 9.454 27.888 14.452 58.101 14.452 87.371 0 9.899-.564 19.686-1.679 29.089-.487 4.113 2.453 7.843 6.566 8.33 4.104.48 7.842-2.451 8.33-6.566.755-6.378 1.272-12.917 1.548-19.542l8.386 17.836c3.769 8.026 11.94 13.213 20.818 13.213 3.416 0 6.709-.735 9.792-2.188 2.986-1.41 5.63-3.454 7.74-5.94l33.922 2.615c.196.016.391.022.584.022 3.881 0 7.167-2.99 7.47-6.924.321-4.132-2.769-7.737-6.899-8.056zm-395.979-40.034c-3.408 2.928-6.169 6.544-8.084 10.622l-14.242 30.293c-1.309 2.787-4.15 4.588-7.24 4.588-1.189 0-2.331-.254-3.388-.752-1.625-.767-2.905-2.004-3.718-3.606-1.142-2.23-1.192-4.797-.138-7.041l14.24-30.289c5.04-10.719 13.855-19.096 24.56-23.687-.893 6.615-1.558 13.25-1.99 19.872zm6.788-105.904c-3.277-1.389-5.261-4.825-4.822-8.356l7.969-63.991c.157-1.25.59-2.409 1.29-3.452 1.679-2.507 4.558-3.903 7.638-3.512 4.378.547 7.495 4.553 6.948 8.931l-6.52 52.381c-.414 3.327 1.43 6.524 4.516 7.832l14.099 5.976c-2.166 4.82-4.094 9.798-5.779 14.927zm3.404 279.482c.586 2.088.335 4.189-.738 6.097-1.033 1.851-2.724 3.184-4.761 3.754-.043.013-.087.024-.13.037-.665.183-1.361.275-2.07.275-3.568 0-6.734-2.4-7.699-5.837-7.267-25.901 1.333-53.207 21.486-70.244 2.162 5.223 4.524 10.3 7.081 15.215-13.136 13.167-18.295 32.425-13.169 50.703zm4.211-155.434c0-29.286 4.999-59.499 14.457-87.371 1.616-4.763 5.51-8.411 10.415-9.759.955-.262 1.923-.508 2.903-.737-11.161 64.259-11.676 150.018 3.778 211.372-20.448-30.462-31.553-70.074-31.553-113.505zm57.314 142.749c-12.336-26.761-20.207-67.874-22.197-116.049-1.773-42.956 1.243-88.78 8.293-126.763 2.039-.117 4.108-.176 6.202-.176 6.471 0 13.181.559 19.982 1.671-14.659 32.924-21.134 83.015-17.408 136.832 3.359 48.521 14.201 91.343 30.452 121.732-8.969-4.683-17.452-10.452-25.324-17.247zm77.686 31.623c-4.166-.235-8.291-.665-12.365-1.287-9.083-30.875-14.479-72.139-15.637-119.76-.102-4.142-3.518-7.375-7.681-7.315-4.141.101-7.416 3.539-7.315 7.681.78 32.07 3.892 76.621 13.913 115.204-20.504-27.431-34.931-76.283-38.766-131.667-3.621-52.308 3.023-102.219 17.411-132.434 6.084 1.868 11.782 4.508 17 7.796-5.472 31.021-8.875 68.346-9.618 105.769-.083 4.142 3.208 7.565 7.349 7.647.051.002.102.002.152.002 4.073 0 7.414-3.261 7.495-7.351.664-33.381 3.477-66.625 8.003-95.151 12.543 13.062 20.058 30.818 20.058 50.052v200.814zm7.5-236.331c-3.62-8.158-8.462-15.681-14.325-22.312 4.692.479 9.462.77 14.325.77s9.633-.29 14.325-.77c-5.863 6.631-10.705 14.154-14.325 22.312zm19.864 235.047c-4.075.619-8.199 1.048-12.364 1.281v-200.81c0-19.234 7.515-36.99 20.057-50.051 11.775 74.31 12.058 182.437-7.693 249.58zm21.074-260.496c5.218-3.288 10.916-5.927 17.001-7.794 14.387 30.214 21.031 80.124 17.411 132.43-3.835 55.398-18.269 104.261-38.782 131.688 18.697-72.31 17.268-183.123 4.37-256.324zm66.446 114.108c-1.99 48.176-9.862 89.29-22.199 116.05-.792.685-1.591 1.36-2.398 2.025-7.211 5.947-14.886 11.039-22.936 15.244 16.257-30.391 27.104-73.222 30.464-121.754 3.726-53.817-2.75-103.907-17.408-136.831 9.004-1.474 17.846-1.975 26.185-1.497 7.049 37.982 10.065 83.807 8.292 126.763zm33.302 62.87c20.109 17.042 28.683 44.316 21.424 70.189-.965 3.438-4.131 5.838-7.699 5.838-.709 0-1.405-.093-2.07-.275-.043-.013-.086-.024-.13-.037-2.037-.57-3.728-1.903-4.772-3.773-1.062-1.888-1.312-3.989-.726-6.079 5.12-18.259-.024-37.497-13.132-50.662 2.562-4.905 4.933-9.976 7.105-15.201zm-15.934-202.872c-1.689-5.121-3.625-10.099-5.799-14.919l14.143-5.995c3.086-1.308 4.93-4.505 4.516-7.832l-6.52-52.384c-.547-4.375 2.57-8.381 6.949-8.928 3.074-.39 5.957 1.005 7.642 3.519.695 1.036 1.128 2.195 1.284 3.437l7.97 63.997c.438 3.534-1.545 6.971-4.823 8.36zm68.808 136.33c-.797 1.574-2.077 2.812-3.696 3.575-1.062.501-2.204.755-3.394.755-3.09 0-5.932-1.801-7.242-4.592l-14.239-30.286c-1.916-4.08-4.677-7.696-8.085-10.625-.432-6.621-1.097-13.256-1.99-19.873 10.705 4.591 19.52 12.968 24.56 23.687l14.24 30.289c1.054 2.245 1.003 4.811-.154 7.07z"/></g></g></svg>