<svg id="Capa_1" enable-background="new 0 0 512 512" height="512" viewBox="0 0 512 512" width="512" xmlns="http://www.w3.org/2000/svg"><g><g><path d="m73.334 375.314 116.868-46.773-35-60.622-98.584 78.674c-6.493 5.181-8.222 14.331-4.069 21.525 4.176 7.234 13.032 10.3 20.785 7.196z" fill="#666667"/><g><path d="m21.662 299.569c-9.117-5.263-11.413-17.405-4.848-25.635l29.791-37.343c7.154-8.968 21.316-.792 17.127 9.888l-17.445 44.471c-3.845 9.8-15.509 13.883-24.625 8.619z" fill="#858586"/><path d="m171.849 189.061-114.038 38.359c-5.573 1.875-8.877 7.438-7.856 13.228 1.012 5.738 6.166 9.925 11.989 9.741l120.049-3.798z" fill="#666667"/></g><g><path d="m490.338 299.569c9.117-5.263 11.413-17.405 4.848-25.635l-29.791-37.343c-7.154-8.968-21.316-.792-17.127 9.888l17.445 44.471c3.845 9.8 15.509 13.883 24.625 8.619z" fill="#858586"/><path d="m340.151 189.061 114.038 38.359c5.573 1.875 8.877 7.438 7.856 13.228-1.012 5.738-6.166 9.925-11.989 9.741l-120.049-3.798z" fill="#666667"/></g><path d="m225.657 154.029-108.296-43.342c-1.048-.419-2.146-.632-3.262-.632-3.135 0-6.056 1.686-7.622 4.4-2.192 3.797-1.297 8.538 2.13 11.272l91.316 72.873z" fill="#666667"/><path d="m127.677 172.092 128.323 70.018v-144.11c-64.472 0-115.322 30.255-128.323 74.092z" fill="#767678"/><path d="m286.343 154.029 108.296-43.342c1.048-.419 2.146-.632 3.262-.632 3.135 0 6.056 1.686 7.622 4.4 2.192 3.797 1.297 8.538-2.13 11.272l-91.317 72.873z" fill="#666667"/><path d="m438.666 375.314-116.868-46.773 35-60.622 98.584 78.674c6.493 5.181 8.222 14.331 4.069 21.525-4.176 7.234-13.032 10.3-20.785 7.196z" fill="#666667"/><path d="m384.323 172.092-128.323 70.018v-144.11c64.472 0 115.322 30.255 128.323 74.092z" fill="#767678"/><path d="m176.097 107.083c22.542 12.523 43.735 13.297 64.244 10-10.19-34.298-38.144-61.113-76.199-70.856-2.761-.707-5.565 1.081-6.107 3.879-4.212 21.723 4.113 48.513 18.062 56.977z" fill="#858586"/><path d="m336.903 107.083c-22.542 12.523-43.735 13.297-64.244 10 10.19-34.298 38.144-61.113 76.199-70.856 2.761-.707 5.565 1.081 6.107 3.879 4.212 21.723-4.113 48.513-18.062 56.977z" fill="#919191"/><g><path d="m308.41 122.84c6.4 12.16-1 26.93-14.56 29.15-2.01.33-4.02.63-6.03.9-36.437-13.806-56.768-46.034-56.768-79.604 0-14.3 9.289-29.403 23.728-42.516 4.26.74 8.94-1.26 10.94-5.97 2.35-5.54 5.12-10.44 8.34-14.88 2.37-3.25 7.21-3.21 9.63 0 3.9 5.14 7.02 10.54 9.32 16.59 2.51 6.57 10.69 8.57 15.97 3.93 1.97-1.72 4.23-3.43 6.82-5.04 3.08-1.91 7.1-.04 7.61 3.54l1.96 13.79c3.96 28.79-2.31 47-17.15 68.13-2.18 3.11-2.43 7.19-.6 10.52.25.46.52.95.79 1.46z" fill="#a8a8a8"/><path d="m287.82 152.893c-22.98 3.16-45.89 2.9-68.72-.84-13.46-2.21-20.97-16.86-14.65-28.94.32-.62.63-1.19.93-1.73 1.83-3.33 1.58-7.41-.6-10.52-14.84-21.13-21.11-39.34-17.15-68.13l1.96-13.79c.51-3.58 4.53-5.45 7.61-3.54 2.59 1.61 4.85 3.32 6.82 5.04 5.28 4.64 13.46 2.64 15.97-3.93 2.3-6.05 5.42-11.45 9.32-16.59 2.42-3.21 7.26-3.25 9.63 0 3.22 4.44 5.99 9.34 8.34 14.88 1.46 3.45 4.37 5.45 7.5 5.97-5.33 12.34-8.28 25.95-8.28 40.25 0 33.569 16.25 63.349 41.32 81.87z" fill="#919191"/></g><g><path d="m363.37 401.6s-7.95-3.82-10.64-1.84-2.58 11.86-5.49 13.7c-10.021 5.133-63.889-141.731-2.06-234.14.77-.22 1.55-.42 2.32-.63 0 0 4.87 8.75 7.31 8.19 2.45-.56 7.37-11.56 7.37-11.56 7.3-1.42 14.68-2.48 22.14-3.23 9.86-.99 18.94 5.33 21.44 14.91 13.33 51.25 25.46 156.67-42.39 214.6z" fill="#a8a8a8"/><path d="m347.24 413.46c-10.62 6.7-22.75 12.44-36.58 16.97 0 0-5.73-8.36-8.71-7.53-2.21.61-6.75 11.91-6.75 11.91-9.81 2.36-20.35 4.18-31.7 5.39 0 0-4.96-9.5-7.5-9.3v-189.96c2.48-2.4 7.5-16.94 7.5-16.94 10.17-9.01 20.66-16.68 31.42-23.15 0 0 5.59 3.44 7.95 2.15 2.34-1.28 6.15-9.87 6.15-9.87 11.76-5.84 23.84-10.39 36.16-13.81-43.56 83.054 2.06 234.14 2.06 234.14z" fill="#919191"/></g><g><path d="m256 240.94v189.96c-2.54-.2-7.5 9.3-7.5 9.3-11.35-1.21-21.89-3.03-31.7-5.39 0 0-4.54-11.3-6.75-11.91-2.98-.83-8.71 7.53-8.71 7.53-1.62-.53-3.22-1.08-4.8-1.65-59.865-105.067-40.506-208.782-4.17-240.54 3.56 1.51 7.1 3.14 10.61 4.89 0 0 3.81 8.59 6.15 9.87 2.36 1.29 7.95-2.15 7.95-2.15 10.76 6.47 21.25 14.14 31.42 23.15 0 0 5.02 14.54 7.5 16.94z" fill="#a8a8a8"/><path d="m196.54 428.78c-11.86-4.24-22.41-9.41-31.78-15.32-2.91-1.84-2.8-11.72-5.49-13.7s-10.64 1.84-10.64 1.84c-67.85-57.93-55.72-163.35-42.39-214.6 2.5-9.58 11.58-15.9 21.44-14.91 7.46.75 14.84 1.81 22.14 3.23 0 0 4.92 11 7.37 11.56 2.44.56 7.31-8.19 7.31-8.19 9.44 2.5 18.74 5.66 27.87 9.55-21.9 30.51-38.424 133.979 4.17 240.54z" fill="#919191"/></g></g><g><g><path d="m223.552 87c-4.143 0-7.5-3.358-7.5-7.5v-12c0-4.142 3.357-7.5 7.5-7.5s7.5 3.358 7.5 7.5v12c0 4.142-3.358 7.5-7.5 7.5z"/><path d="m288.448 87c-4.143 0-7.5-3.358-7.5-7.5v-12c0-4.142 3.357-7.5 7.5-7.5s7.5 3.358 7.5 7.5v12c0 4.142-3.357 7.5-7.5 7.5z"/></g><path d="m505.793 290.281c.079-.338.151-.677.215-1.02 1.341-7.081-.465-14.373-4.956-20.008l-29.8-37.353c-1.407-1.757-3.078-3.212-4.923-4.302-2.292-3.307-5.644-5.908-9.749-7.287l-38.647-12.997c-1.701-9.141-3.49-16.721-4.916-22.208-2.919-11.189-12.226-19.075-23.257-20.418-1.708-4.638-3.814-9.13-6.295-13.457l24.606-19.64c5.244-4.188 7.287-10.917 5.547-17.096 5.539-7.044 8.026-14.333 8.591-21.67 2.554-3.825 9.837-6.111 18.02-3.316 3.919 1.338 8.182-.752 9.522-4.672 1.34-3.919-.752-8.183-4.672-9.522-8.588-2.935-17.417-2.587-24.501.424-.489-2.051-1.061-4.094-1.69-6.125 3.104-10.353 17.82-16.612 26.603-18.152 4.08-.715 6.808-4.603 6.093-8.683-.715-4.079-4.604-6.812-8.683-6.092-2.595.455-11.775 2.371-21.006 7.933-3.658 2.204-6.818 4.696-9.443 7.428-1.033-2.644-2.047-5.264-2.99-7.861.161-.25.309-.512.442-.787 4.475-9.217 14.168-15.877 21.281-18.164 3.943-1.268 6.112-5.493 4.844-9.436s-5.495-6.111-9.436-4.844c-8.202 2.637-16.055 7.821-22.111 14.308-.622-5.269-.388-10.459 1.165-15.59 1.201-3.964-1.04-8.151-5.004-9.352-3.966-1.199-8.151 1.041-9.352 5.004-5.777 19.078 1.463 37.562 7.85 53.87 7.507 19.166 11.935 32.298 3.986 44.219-1.662-.565-3.425-.865-5.227-.865-2.059 0-4.092.396-6.048 1.177l-38.066 15.235c-3.406-2.459-6.999-4.786-10.77-6.969 15.187-11.24 23.958-39.363 19.312-63.33-.66-3.361-2.702-6.337-5.604-8.167-2.888-1.821-6.435-2.38-9.723-1.534-4.771 1.219-9.444 2.709-13.979 4.452-.072-.576-.147-1.155-.228-1.738l-1.961-13.792c-.597-4.194-3.244-7.769-7.082-9.562-3.847-1.798-8.297-1.534-11.913.71-2.755 1.713-5.377 3.651-7.811 5.775-.891.783-1.815.706-2.289.588-.465-.115-1.308-.471-1.72-1.549-2.466-6.485-5.853-12.523-10.342-18.441-2.555-3.389-6.601-5.405-10.838-5.405-.036 0-.072 0-.107 0-4.295.034-8.205 2.04-10.742 5.519-3.623 4.995-6.623 10.345-9.175 16.358-.572 1.351-1.695 1.552-2.313 1.552s-1.741-.202-2.315-1.557c-2.55-6.009-5.55-11.359-9.185-16.37-2.525-3.463-6.436-5.469-10.73-5.503-.035 0-.071 0-.107 0-4.237 0-8.283 2.016-10.828 5.39-4.502 5.935-7.889 11.973-10.35 18.447-.417 1.089-1.26 1.445-1.725 1.56-.472.118-1.397.196-2.308-.604-2.415-2.108-5.037-4.046-7.8-5.764-3.609-2.238-8.062-2.503-11.905-.705-3.838 1.793-6.485 5.368-7.083 9.564l-1.965 13.819c-.079.574-.154 1.143-.226 1.709-4.533-1.742-9.203-3.231-13.967-4.448-3.295-.848-6.845-.29-9.733 1.532-2.901 1.829-4.943 4.806-5.607 8.185-4.597 23.72 3.962 51.532 18.879 62.983-3.979 2.278-7.762 4.714-11.339 7.296l-38.06-15.233c-1.956-.782-3.989-1.177-6.048-1.177-1.802 0-3.565.301-5.227.865-7.949-11.922-3.521-25.054 3.986-44.219 6.387-16.308 13.627-34.792 7.85-53.87-1.2-3.964-5.386-6.204-9.352-5.004-3.964 1.201-6.205 5.388-5.004 9.352 1.553 5.131 1.787 10.321 1.165 15.59-6.055-6.487-13.909-11.671-22.111-14.308-3.94-1.267-8.168.901-9.436 4.844-1.269 3.943.9 8.168 4.844 9.436 7.113 2.287 16.807 8.946 21.281 18.164.133.274.281.536.442.787-.943 2.597-1.957 5.216-2.99 7.861-2.625-2.732-5.785-5.224-9.443-7.428-9.23-5.562-18.411-7.478-21.006-7.933-4.078-.72-7.968 2.013-8.683 6.092-.715 4.08 2.013 7.967 6.093 8.683 8.783 1.54 23.499 7.799 26.603 18.152-.629 2.031-1.201 4.074-1.69 6.125-7.084-3.012-15.912-3.359-24.501-.424-3.92 1.339-6.012 5.603-4.672 9.522 1.34 3.92 5.603 6.011 9.521 4.672 8.183-2.795 15.466-.509 18.02 3.316.565 7.337 3.052 14.626 8.591 21.67-1.74 6.179.303 12.908 5.547 17.096l24.601 19.636c-2.482 4.328-4.586 8.823-6.293 13.464-11.036 1.344-20.342 9.228-23.253 20.418-1.365 5.247-3.168 12.851-4.899 22.199l-38.663 13c-4.105 1.378-7.457 3.979-9.749 7.287-1.845 1.09-3.516 2.546-4.923 4.302l-29.801 37.353c-4.491 5.635-6.297 12.927-4.956 20.008.064.342.137.682.215 1.02-4.98 6.242-7.096 15.899-5.864 27.492.409 3.849 3.663 6.708 7.449 6.708.265 0 .532-.014.802-.042 4.119-.438 7.103-4.132 6.665-8.251-.498-4.678-.215-8.561.501-11.517.688.499 1.406.965 2.15 1.395 3.803 2.193 8.065 3.311 12.353 3.311.284 0 .568-.005.852-.015-.309 2.578-1.068 5.076-2.284 7.53-1.839 3.711-.32 8.211 3.391 10.05 1.07.53 2.206.781 3.324.781 2.761 0 5.417-1.53 6.727-4.172 3.133-6.324 4.43-13.015 3.877-19.953 3.128-2.623 5.593-6.012 7.123-9.904l14.105-35.971 21.182-.67c-.568 16.396.132 34.125 3.097 51.982l-39.717 31.695c-9.465 7.557-11.939 20.653-5.89 31.135 2.569 4.459 6.462 7.914 11.017 9.982 8.99 22.403 37.975 84.088 98.839 128.703 1.336.979 2.889 1.452 4.428 1.452 2.308 0 4.586-1.062 6.055-3.066 2.449-3.341 1.726-8.034-1.615-10.483-10.338-7.578-19.948-15.94-28.81-24.768l18.832 1.031c.14.008.278.011.417.011 3.954 0 7.264-3.094 7.482-7.09.226-4.136-2.943-7.672-7.079-7.899l-34.36-1.881c-21.49-24.945-37.448-51.937-47.428-74.792.772-.224 1.535-.487 2.288-.79l35.552-14.226c2.583 4.608 5.426 9.122 8.55 13.516 28.009 39.389 73.491 61.868 135.183 66.813.399.031.8.031 1.199 0 78.825-6.318 121.353-40.323 143.724-80.333l35.55 14.225c.756.304 1.523.568 2.298.793-9.979 22.856-25.937 49.847-47.427 74.793l-34.36 1.881c-4.136.227-7.305 3.763-7.079 7.899.22 3.997 3.528 7.09 7.482 7.09.138 0 .277-.003.417-.011l18.832-1.031c-8.861 8.828-18.472 17.19-28.81 24.768-3.341 2.449-4.064 7.142-1.615 10.483 1.47 2.004 3.746 3.066 6.055 3.066 1.539 0 3.092-.472 4.428-1.452 60.864-44.615 89.849-106.298 98.838-128.702 4.555-2.067 8.447-5.521 11.015-9.978 6.053-10.488 3.577-23.584-5.889-31.142l-39.726-31.702c.47-2.815.88-5.61 1.237-8.377.529-4.108-2.372-7.868-6.48-8.397-4.094-.531-7.867 2.371-8.396 6.48-4.676 36.297-17.595 65.855-38.398 87.853-1.303 1.378-2.639 2.727-4.006 4.047 6.498-81.165 6.12-149.397-1.138-207.852 7.115-1.4 14.419-2.474 21.92-3.227 6.211-.625 11.857 3.306 13.432 9.333 3.664 14.108 9.854 42.731 10.129 75.917.034 4.121 3.386 7.438 7.499 7.438h.063c4.142-.035 7.472-3.42 7.438-7.562-.021-2.569-.077-5.112-.162-7.625l21.155.669 14.105 35.971c1.53 3.892 3.995 7.281 7.123 9.904-.553 6.938.744 13.629 3.877 19.953 1.31 2.642 3.966 4.172 6.727 4.172 1.118 0 2.254-.251 3.324-.781 3.711-1.839 5.229-6.338 3.391-10.05-1.216-2.454-1.976-4.952-2.284-7.53.284.01.568.015.852.015 4.287 0 8.55-1.117 12.353-3.311.745-.43 1.462-.896 2.15-1.395.716 2.956.999 6.839.501 11.517-.438 4.119 2.546 7.813 6.665 8.251.27.029.537.042.802.042 3.786 0 7.04-2.858 7.449-6.708 1.229-11.592-.886-21.249-5.867-27.491zm-466.484-2.069c-1.05 2.671-3.122 4.667-5.834 5.617-2.711.948-5.576.68-8.067-.755-2.48-1.433-4.144-3.778-4.678-6.603-.535-2.826.155-5.62 1.946-7.866l23.102-28.958c1.674 2.375 3.867 4.349 6.391 5.769zm50.131-46.195-27.736.877c-2.075.065-3.995-1.493-4.355-3.543-.383-2.153.79-4.129 2.85-4.821l31.203-10.493c-.769 5.653-1.445 11.673-1.962 17.98zm327.475 83.472 33.785 26.961c3.623 2.893 4.571 7.906 2.251 11.926-1.649 2.864-4.73 4.644-8.041 4.644-1.181 0-2.339-.225-3.454-.673l-34.425-13.775c4.228-9.59 7.454-19.376 9.884-29.083zm-19.492-207.833c.234-.094.385-.104.478-.104.455 0 .895.252 1.121.646.342.592.219 1.25-.311 1.672l-23.755 18.961c-2.499-3.093-5.213-6.072-8.133-8.927zm-63.429-58.431c4.513-1.969 9.215-3.647 14.053-5.011 2.459 18.019-4.422 39.893-14.926 46.386-4.332 2.401-8.675 4.376-13.084 5.946 8.404-13.777 13.793-28.3 13.957-47.321zm-56.276-44.766c-.001-.001-.002-.002-.003-.004.001.002.003.003.003.004zm-164.429 105.411c-.529-.423-.652-1.08-.311-1.672.227-.394.666-.646 1.121-.646.093 0 .243.011.478.104l30.592 12.244c-2.92 2.855-5.635 5.833-8.133 8.925zm-42.757 248.481c-1.104.444-2.263.669-3.443.669-3.311 0-6.392-1.779-8.045-4.649-2.316-4.014-1.368-9.027 2.253-11.918l33.766-26.945c2.456 9.832 5.695 19.59 9.884 29.074zm77.18 22.266c-5.618-5.42-10.711-11.336-15.269-17.747-17.872-25.133-27.605-57.644-28.931-96.629-1.279-37.681 5.709-70.903 9.989-87.354 1.459-5.609 6.447-9.397 12.137-9.397.427 0 .857.021 1.291.064 7.501.752 14.806 1.826 21.922 3.226-7.258 58.451-7.636 126.678-1.139 207.837zm100.788 42.04c-11.466-1.255-22.279-3.182-32.429-5.774-3.374-38.388-5.204-75.049-5.441-109.045-.03-4.142-3.375-7.481-7.553-7.448-4.142.029-7.476 3.41-7.447 7.552.228 32.635 1.905 67.672 4.988 104.302-13.651-4.753-25.907-10.89-36.738-18.396-7.583-85.786-7.698-157.133-.337-217.643 13.485 3.656 26.263 8.583 38.397 14.811-3.21 25.428-5.216 52.872-5.967 81.667-.108 4.141 3.16 7.585 7.302 7.693.066.001.133.002.199.002 4.051 0 7.387-3.23 7.493-7.304.679-25.991 2.394-50.838 5.108-74.035 11.38 7.106 22.169 15.466 32.425 25.111zm0-218.558c-31.78-26.608-68.156-42.506-110.527-48.336 8.354-18.998 25.084-34.982 48.073-45.777 3.357 1.275 6.749 2.35 10.192 3.23-2.477 6.948-2.034 14.521 1.342 21.285 3.956 7.925 11.546 13.514 20.307 14.953 10.134 1.661 20.354 2.656 30.613 2.987zm-28.185-69.447c-4.081-.67-7.476-3.167-9.314-6.851-1.791-3.587-1.757-7.674.116-11.253.281-.547.556-1.049.835-1.553 3.175-5.776 2.771-13.013-1.035-18.444-3.619-5.153-6.484-9.805-8.759-14.222-1.896-3.683-6.417-5.129-10.102-3.234-3.683 1.896-5.131 6.419-3.234 10.102 1.233 2.396 2.608 4.835 4.143 7.35-4.41-1.57-8.753-3.545-13.086-5.947-10.507-6.495-17.388-28.38-14.927-46.386 4.821 1.36 9.513 3.032 14.017 4.995.007 1.003.029 1.997.066 2.984.154 4.14 3.657 7.379 7.775 7.214 4.14-.155 7.369-3.636 7.215-7.775-.206-5.499.132-11.345 1.03-17.845l1.396-9.824c.906.676 1.781 1.383 2.617 2.113 4.33 3.806 10.234 5.257 15.793 3.882 5.547-1.372 10.083-5.398 12.14-10.78 1.728-4.546 4.053-8.846 7.093-13.104 2.414 3.573 4.478 7.405 6.28 11.653 2.796 6.602 8.975 10.703 16.126 10.703s13.33-4.101 16.124-10.698c1.806-4.256 3.873-8.093 6.282-11.659 3.035 4.25 5.364 8.555 7.098 13.116 2.052 5.371 6.588 9.397 12.135 10.769 5.56 1.375 11.463-.077 15.774-3.866.846-.739 1.727-1.45 2.636-2.129l1.392 9.791c2.93 21.3 1.273 38.404-15.862 62.804-3.801 5.424-4.205 12.661-1.048 18.406l.187.342c.184.337.376.689.557 1.029 1.906 3.623 1.958 7.792.143 11.438-1.826 3.667-5.208 6.152-9.274 6.818-24.174 3.944-48.51 3.965-72.329.061zm75.615 282.228c-10.155 2.594-20.969 4.522-32.43 5.777v-198.506c10.256-9.645 21.045-18.007 32.426-25.113 7.272 62.074 7.275 135.264.004 217.842zm52.189-23.018c-10.825 7.496-23.084 13.628-36.734 18.38 7.076-83.937 6.632-158.28-1.324-221.226 12.133-6.227 24.911-11.154 38.397-14.81 7.361 60.512 7.246 131.863-.339 217.656zm-84.619-189.765v-51.645c10.518-.324 21.055-1.343 31.562-3.058 8.887-1.455 16.279-6.898 20.281-14.935 3.354-6.735 3.813-14.273 1.388-21.234 3.262-.832 6.477-1.84 9.661-3.026 22.745 10.778 39.321 26.687 47.631 45.564-42.375 5.832-78.749 21.73-110.523 48.334zm191.152 25.254c-.36 2.051-2.28 3.609-4.355 3.543l-27.704-.876c-.516-6.291-1.192-12.308-1.964-17.971l31.174 10.483c2.059.692 3.232 2.668 2.849 4.821zm36.618 47.12c-.534 2.824-2.197 5.17-4.678 6.603-2.491 1.436-5.356 1.703-8.067.755-2.712-.949-4.784-2.945-5.834-5.617l-12.86-32.795c2.524-1.421 4.717-3.394 6.391-5.769l23.102 28.958c1.791 2.245 2.481 5.039 1.946 7.865z"/></g></g></svg>