<svg id="Capa_1" enable-background="new 0 0 512 512" height="512" viewBox="0 0 512 512" width="512" xmlns="http://www.w3.org/2000/svg"><g><g><g><path d="m470.32 496.26c-23.3 13.45-57.06 11.5-90.11-13.81 0 0 1.924-7.448-.026-9.112-2.679-2.287-13.844-2.968-13.844-2.968-7.2-7.07-14.28-15.32-21.13-24.85-13.925-33.155-8.801-71.15 11.449-95.289 22.74-27.1 74.712-43.566 105.361-33.601 3.01 4.13 5.95 8.41 8.8 12.82 0 0-1.629 9.741.601 13.601.41.71 7.499-.181 7.499-.181 10.06 17.78 16.84 34.55 20.87 50.07 0 0-5.825 11.769-5.235 14.756.594 3.006 8.795 3.214 8.795 3.214 5.56 41.49-9.66 71.85-33.03 85.35z" fill="#f9d171"/><path d="m462.02 316.63c-31.24 4.38-61.84 20.6-84.58 47.7-20.25 24.14-30.92 52.9-32.23 81.19-4.05-5.63-8.03-11.71-11.89-18.25 0 0 3.399-6.631 2.939-7.421-2.19-3.79-10.54-6.349-10.54-6.349-7.96-15.45-14.11-31.05-18.53-46.24 0 0 7.328-5.362 6.663-7.967-.571-2.236-10.413-6.563-10.413-6.563-11.5-51.15-3.11-95.22 21-109.14 24.06-13.9 66.31.78 104.8 36.18 0 0-1.961 8.465-.104 10.289 1.713 1.681 10.813.201 10.813.201 7.662 7.98 15.082 16.79 22.072 26.37z" fill="#fab658"/></g><g><path d="m346.65 277.07c-14.77 25.59-48.77 35.13-84.01 26.48-21.145-18.312-35.677-41.467-35.677-55.207 0-40.16 29.037-71.859 78.507-75.353 41.28 26.39 59.71 72 41.18 104.08z" fill="#fff1cf"/><path d="m256 264.73c0 13.74 2.36 26.85 6.64 38.82-10.65-2.6-21.42-6.88-31.8-12.87-44.71-25.82-65.36-73.77-46.12-107.1 19.25-33.33 71.1-39.42 115.81-13.6 1.68.97 3.33 1.97 4.94 3.01-29.33 16.81-49.47 51.58-49.47 91.74z" fill="#fce3a0"/></g><path d="m160.707 365.085 31.181-85.685c7.121-19.569 31.525-26.108 47.477-12.721l28.515 23.93c6.347 5.326 7.174 14.79 1.848 21.137-7.1 8.46-19.714 9.563-28.175 2.464l-13.75-11.537c-2.659-2.231-6.725-1.141-7.912 2.12l-29.234 80.32c-4.313 11.852-15.579 19.74-28.191 19.74h-23.656c-7.886 0-14.278-6.393-14.278-14.278 0-6.352 4.197-11.94 10.297-13.712l19.27-5.595c3.062-.889 5.517-3.186 6.608-6.183z" fill="#f9d171"/><path d="m235.175 464.731 31.181-85.685c7.121-19.569 31.525-26.108 47.477-12.721l28.515 23.93c6.347 5.326 7.174 14.79 1.848 21.137-7.1 8.46-19.714 9.563-28.175 2.464l-13.75-11.537c-2.659-2.231-6.725-1.141-7.912 2.12l-29.233 80.32c-4.313 11.852-15.579 19.74-28.191 19.74h-23.656c-7.886 0-14.278-6.392-14.278-14.278 0-6.352 4.196-11.94 10.297-13.712l19.27-5.595c3.062-.888 5.517-3.186 6.607-6.183z" fill="#f9d171"/><g><path d="m21.706 202.079c17.731-19.143 39.263-28.905 70.951-28.817l-.174-42.025c-49.598-1.109-70.954 36.931-79.236 66.084-1.425 5.02 4.913 8.586 8.459 4.758z" fill="#767678"/><path d="m210.28 231.05c-48.494-10.606-80.954-47.125-80.954-91.645 0-23.85 6.812-53.203 36.784-72.145 58.73-5.06 100.83 24.39 108.48 67.73 6.96 39.5-16.92 77.95-64.31 96.06z" fill="#df8a57"/><path d="m210.282 231.048c-8.834 3.377-18.485 6.046-28.909 7.886-66.304 11.688-128.904-28.942-135.037-63.701-6.132-34.759 38.8-94.353 105.115-106.041 4.989-.882 9.88-1.514 14.662-1.928-12.962 17.973-20.598 40.031-20.598 63.886-.001 44.519 26.588 82.818 64.767 99.898z" fill="#d97c41"/><path d="m31.359 228.977c20.431-4.644 36.849-14.435 50.69-32.344 6.219-8.047 17.472-10.188 26.259-5.067 11.935 6.956 13.575 23.51 3.295 32.738-24.304 21.818-56.872 20.293-80.352 14.376-5.06-1.275-4.98-8.546.108-9.703z" fill="#858586"/></g></g><g><path d="m121.826 158.905c-4.142 0-7.5-3.358-7.5-7.5v-12c0-4.142 3.358-7.5 7.5-7.5s7.5 3.358 7.5 7.5v12c0 4.142-3.358 7.5-7.5 7.5z"/><path d="m484.214 337.009c-3.399-5.889-7.008-11.643-10.726-17.102-2.333-3.423-6.997-4.31-10.421-1.978s-4.309 6.997-1.978 10.421c1.525 2.24 3.032 4.533 4.511 6.868-31.497 33.927-68.667 57.714-110.828 70.968.415-2.078.536-4.228.346-6.398-.523-5.988-3.348-11.414-7.952-15.278l-25.241-21.183c42.512-12.672 80.364-35.383 112.781-67.686 1.837 1.917 3.653 3.878 5.444 5.879 1.481 1.656 3.532 2.499 5.592 2.499 1.78 0 3.567-.63 4.998-1.911 3.087-2.762 3.351-7.503.588-10.59-28.738-32.118-62.701-53.919-92.023-59.318-1.143-4.791-2.755-9.625-4.838-14.461-9.347-21.701-27.17-40.969-50.188-54.253-6.821-3.939-13.916-7.241-21.159-9.852.407-6.579.034-13.255-1.145-19.943-2.399-13.629-7.866-26.023-16.25-36.835-2.537-3.273-7.248-3.868-10.522-1.332-3.273 2.538-3.87 7.25-1.332 10.523 6.874 8.865 11.359 19.041 13.332 30.246 3.703 21.009-2.314 41.951-16.943 58.968-15.849 18.437-40.118 30.984-70.183 36.284-24.061 4.24-45.271.975-61.264-3.86 5.233-5.833 7.74-13.477 6.928-21.407-.914-8.94-5.892-16.664-13.658-21.19-12.023-7.008-27.486-4.017-35.97 6.96-2.137 2.766-4.353 5.335-6.659 7.717-8.754-8.54-14.277-17.557-15.739-25.835-4.182-23.748 20.314-62.668 60.569-84.032.101.8.184 1.599.25 2.395.322 3.919 3.603 6.886 7.466 6.886.206 0 .414-.008.623-.026 4.128-.339 7.199-3.961 6.86-8.089-.21-2.557-.562-5.111-1.048-7.657 7.685-2.995 15.814-5.331 24.316-6.83 29.178-5.141 55.665-1.98 76.601 9.138 3.659 1.942 8.198.552 10.142-3.106 1.943-3.658.552-8.199-3.106-10.142-23.917-12.702-53.738-16.389-86.24-10.662-8.851 1.56-17.537 3.961-25.943 7.137-11.953-30.33-42.177-57.365-79.064-68.615-3.963-1.208-8.154 1.024-9.362 4.986s1.024 8.153 4.986 9.362c19.352 5.902 37.477 17.062 51.037 31.425 8.473 8.975 14.818 18.847 18.658 28.849-6.364 3.174-12.513 6.809-18.389 10.873-22.562-17.623-53.838-27.06-84.966-25.42-4.137.218-7.313 3.749-7.095 7.885.218 4.137 3.748 7.3 7.885 7.095 25.764-1.359 52.444 6.181 71.834 19.958-4.774 4.092-9.307 8.495-13.559 13.189-7.869 8.687-14.217 17.774-18.859 26.798-24.215 14.923-35.801 40.69-41.274 59.94-1.611 5.656.759 11.399 5.898 14.291 1.98 1.114 4.107 1.657 6.204 1.657 3.346 0 6.614-1.383 9.073-4.036 5.577-6.022 11.399-10.875 17.655-14.7 3.262 5.813 7.69 11.568 13.143 17.055-8.24 5.721-17.556 9.688-28.314 12.133-5.73 1.303-9.628 6.137-9.697 12.029-.069 5.896 3.716 10.823 9.418 12.26 8.041 2.026 18.924 3.987 30.935 3.987 14.136 0 29.828-2.719 44.26-11.246 13.424 5.073 31.686 9.812 53.054 9.812 6.74 0 13.791-.472 21.095-1.554 3.23 6.645 7.283 13.065 12.114 19.189-2.554 3.17-4.607 6.772-6.034 10.695l-31.182 85.684c-.271.748-.89 1.327-1.65 1.548l-19.26 5.587c-4.517 1.304-8.553 4.093-11.357 7.842-2.813 3.747-4.363 8.393-4.363 13.084 0 12.004 9.771 21.77 21.78 21.77h23.66c15.701 0 29.861-9.916 35.238-24.675l7.26-19.95c1.417-3.893-.591-8.196-4.483-9.613-3.895-1.417-8.197.59-9.613 4.483l-7.259 19.948c-3.227 8.856-11.723 14.807-21.143 14.807h-23.66c-3.739 0-6.78-3.037-6.78-6.77 0-1.484.469-2.894 1.366-4.088.881-1.178 2.096-2.018 3.523-2.429l19.275-5.591c5.342-1.554 9.665-5.603 11.563-10.827l31.18-85.681c2.545-6.995 8.127-12.112 15.315-14.039 7.193-1.928 14.589-.288 20.295 4.5l28.51 23.93c3.168 2.659 3.582 7.405.926 10.576-2.377 2.834-5.871 4.459-9.584 4.459-2.974 0-5.75-1.011-8.029-2.925l-13.752-11.542c-3.121-2.616-7.33-3.549-11.262-2.497-3.934 1.053-7.115 3.966-8.515 7.799l-10 27.48c-1.417 3.893.591 8.196 4.483 9.613 3.895 1.416 8.196-.591 9.613-4.483l8.778-24.123 11.01 9.24c4.942 4.151 11.219 6.438 17.674 6.438 8.161 0 15.842-3.58 21.08-9.824.77-.919 1.454-1.883 2.053-2.881 3.465.331 6.88.495 10.233.495 1.051 0 2.095-.017 3.134-.049.332 12.021 1.908 24.784 4.651 37.689-3.571-.097-7.177.315-10.709 1.261-11.809 3.164-21.354 11.911-25.534 23.398l-31.181 85.685v.001c-.271.746-.889 1.324-1.652 1.545l-19.27 5.595c-9.247 2.686-15.706 11.286-15.706 20.915 0 12.008 9.77 21.778 21.778 21.778h23.656c15.706 0 29.866-9.916 35.238-24.675l28.013-76.965 11.016 9.242c3.714 3.116 8.017 5.08 12.47 5.931.604 1.081 1.197 2.122 1.785 3.135 21.206 36.735 47.543 62.751 76.163 75.237 12.316 5.373 24.842 8.053 36.815 8.053 12.82 0 25.008-3.073 35.626-9.205 20.539-11.857 34.106-34.515 37.225-62.165 3.5-31.029-5.861-66.846-27.068-103.581zm-460.582-147.331c4.245-11.398 9.487-20.124 14.932-26.798-.554 5.443-.359 10.457.742 15.462-5.507 3.141-10.703 6.898-15.674 11.336zm82.961 29.047c-19.597 17.593-45.364 17.727-63.459 14.771 18.17-5.997 32.599-16.422 44.85-32.274 3.895-5.04 11.008-6.402 16.547-3.174 3.576 2.084 5.868 5.641 6.29 9.757.423 4.148-1.117 8.128-4.228 10.92zm173.902 80.164c-.761-5.289-3.39-10.327-7.793-14.022l-28.511-23.931c-9.369-7.86-22.012-10.663-33.821-7.498-2.785.747-5.443 1.804-7.936 3.135-3.201-4.087-5.993-8.311-8.359-12.643 28.327-6.92 51.527-20.238 67.56-38.89 9.408-10.944 15.852-23.271 19.129-36.27 5.463 2.131 10.825 4.709 16.017 7.707 20.238 11.681 35.833 28.442 43.909 47.196 7.751 17.998 7.562 35.629-.535 49.648-10.497 18.186-32.997 27.688-59.66 25.568zm72.65-18.066c5.731-9.922 8.48-21.084 8.234-32.82 19.586 4.931 41.953 18.256 62.601 37.151-32.358 32.194-70.403 54.28-113.278 65.76-2.953-13.22-4.598-26.273-4.839-38.419 20.735-4.01 37.677-15.034 47.282-31.672zm-14.696 125.748c-4.43 5.278-12.326 5.971-17.609 1.54l-13.75-11.537c-3.122-2.619-7.336-3.553-11.271-2.498-3.936 1.055-7.117 3.971-8.51 7.799l-29.234 80.32c-3.223 8.855-11.72 14.805-21.143 14.805h-23.656c-3.737 0-6.778-3.041-6.778-6.778 0-2.997 2.01-5.674 4.888-6.509l19.27-5.595c5.34-1.55 9.664-5.596 11.565-10.821l31.181-85.685c2.546-6.996 8.13-12.113 15.32-14.04 7.191-1.926 14.585-.287 20.287 4.499l28.516 23.929c1.535 1.289 2.478 3.097 2.651 5.094.175 1.996-.438 3.941-1.727 5.477zm2.577 18.969c50.861-12.178 95.363-37.997 132.535-76.895 9.658 17.466 16.401 34.549 20.1 50.762-33.599 34.232-73.468 57.395-118.609 68.909-12.23-11.288-23.691-25.665-34.026-42.776zm155.351 13.369c-2.578 22.867-13.446 41.403-29.819 50.855-16.366 9.452-37.85 9.595-58.942.393-6.179-2.696-12.258-6.126-18.199-10.255 40.076-11.975 76.009-32.875 107.143-62.323.644 7.367.588 14.494-.183 21.33z"/></g></g></svg>