<svg id="Capa_1" enable-background="new 0 0 512 512" height="512" viewBox="0 0 512 512" width="512" xmlns="http://www.w3.org/2000/svg"><g><g><g><path d="m482.51 481.03c-47.38-3.485-112.437-37.543-140.297-85.783-38.33-66.39-29.203-153.977 32.357-194.137 11.83 3.53 23.39 10.11 33.1 19.82 0 0-2.821 30.499 2.804 36.88 7.157 8.119 34.746 6.85 34.746 6.85 11.59 16.46 20.89 33.3 28.15 50.09 0 0-9.184 35.799-5.961 47.855 2.77 10.361 24.871 19.275 24.871 19.275 5.25 38.13.86 72.99-9.77 99.15z" fill="#f8ea69"/><path d="m482.51 481.03c-2.83 6.99-6.12 13.35-9.78 18.99-3.06 4.72-9.46 5.88-14.08 2.66-18.22-12.73-41.5-24.1-66.47-38.08 0 0-6.576-22.831-15.781-28.669-10.841-6.876-44.019-10.551-44.019-10.551-14.43-11.53-28.57-24.88-41.79-40.76 0 0 10.316-25.481 1.206-41.711-1.37-2.45-34.956-10.259-34.956-10.259-5.06-12.73-9.65-31.43-11.49-51.37-.02-25.32 58.24-82.96 108.36-83.23 6.83-.03 13.89.98 20.86 3.06-43.78 48.02-50.82 126.68-12.49 193.07 27.86 48.24 73.3 78.99 120.43 86.85z" fill="#f6ca56"/><path d="m445.22 264.66c-19.96 27.55-44.52 52.4-72.98 73.85-8.55 6.45-17.51 12.54-26.7 18.22-20.573-16.412-23.858-38.139-8.09-64.65 29.78-21.05 55.79-46.69 70.22-71.15 14.54 14.06 26.99 28.74 37.55 43.73z" fill="#858586"/><path d="m492.28 381.88c-13.06 15.95-27.81 30.82-44.06 44.46-11.11 9.33-22.61 17.83-34.45 25.47-32.305-5.571-46.105-19.705-41.49-41.81 8.98-4.9 18.45-10.79 27.97-17.51 33.77-23.82 60.89-52.7 73.12-77.74 9.84 22.76 15.94 45.47 18.91 67.13z" fill="#858586"/><g fill="#767678"><path d="m345.54 356.73c-17.77 10.99-36.47 20.44-54.95 27.89-10.56-12.65-20.53-26.92-29.64-43.15-1.37-2.45-2.76-5.43-4.11-8.82 26.33-7.63 54.88-22.38 80.61-40.57-1.36 21.11 1.25 43.09 8.09 64.65z"/><path d="m413.77 451.81c-7.08 4.58-14.28 8.84-21.59 12.79-19.44-10.86-39.91-23.31-59.8-39.22 10.34-1.48 24.39-6.94 39.9-15.38 11.89 16.59 26 30.62 41.49 41.81z"/></g></g><path d="m117.091 323.492c-.668 0-1.347-.042-2.019-.124-9.034-1.112-15.478-9.361-14.368-18.391l1.766-14.354c2.417-19.627 11.588-37.993 25.823-51.714l38.167-36.788c3.092-2.979 7.157-4.62 11.45-4.62 4.457 0 8.787 1.84 11.881 5.048 6.314 6.552 6.121 17.018-.429 23.331l-38.167 36.788c-8.806 8.487-14.478 19.846-15.973 31.985l-1.765 14.35c-1.016 8.261-8.052 14.489-16.366 14.489z" fill="#f6ca56"/><path d="m325.339 98.288c21.487-36.607 14.341-71.73-11.224-89.101-2.867-1.948-6.549-2.206-9.713-.791-54.813 24.528-130.369 100.351-191.744 180.455l26.051 31.047c100.284-42.079 155.392-71.119 186.63-121.61z" fill="#fad989"/><g><path d="m471.192 112.67c-19.56 15.43-41.54 26.33-67.86 34.24-47.467-3.04-77.128-23.213-77.128-52.692 0-11.83 19.338-33.427 35.598-46.577v-.01c46.54-20.41 89.57-33.92 122.37-36.11 3.35-.22 6.6 1.28 8.59 3.98 20.44 27.689 14.76 67.129-21.57 97.169z" fill="#fff1cf"/><path d="m403.332 146.91c-42.87 12.9-97.26 17.84-171.53 21.42l-15.29-42.02c47.41-30.25 98.15-58 145.29-78.68-5.95 9.88-9.3 21.05-9.3 32.88 0 29.48 20.83 54.88 50.83 66.4z" fill="#fce3a0"/></g><g><path d="m309.92 224.98c-6.32 35.9-50.59 53.55-97.28 55.32-32.96-19.803-59.387-49.237-59.387-82.797 0-28.64 22.249-62.191 50.037-75.373 4.59.55 9.28 1.31 14.04 2.3 51.67 10.72 100.89 53.45 92.59 100.55z" fill="#858586"/><path d="m212.64 280.3c-14.56.56-29.36-.43-43.32-2.89-58.71-10.35-72.29-56.99-65.32-96.51 7.62-43.26 47.6-64.9 99.29-58.77-17.06 19.6-27.46 45.7-27.46 74.34 0 33.56 14.28 63.62 36.81 83.83z" fill="#767678"/></g><g><path d="m167.5 140.65c0 42.2-30.11 91.98-53.39 113.55-50.212-22.824-94.147-97.362-30.57-187.04 1.31-.06 2.63-.09 3.96-.09 44.18 0 80 33.08 80 73.58z" fill="#f8ea69"/><path d="m114.11 254.2c-2.34 2.17-4.61 4.06-6.78 5.62-11.18 8.07-28.48 8.07-39.66 0-23.7-17.1-60.17-72.72-60.17-119.17 0-39.28 33.7-71.59 76.04-73.49-34.07 83.78.55 160.18 30.57 187.04z" fill="#f6ca56"/></g><path d="m200.658 339.469c-5.583-1.475-9.899-5.922-11.611-11.437l-5.466-17.61c-7.553-24.333-4.035-50.614 9.651-72.107l7.456-11.707c4.648-7.297 14.142-9.766 21.756-5.656 8.431 4.551 11.225 15.302 6.079 23.383l-7.456 11.706c-8.465 13.293-10.641 29.548-5.969 44.597l5.585 17.995c2.696 8.689-2.179 17.953-10.867 20.649-2.959.919-6.103.994-9.158.187z" fill="#f8ea69"/></g><g><path d="m475.846 118.56c.046-.036.091-.073.136-.11 18.741-15.496 30.723-34.093 34.649-53.779 3.809-19.092-.392-38.136-11.821-53.62-3.524-4.783-9.182-7.407-15.127-7.015-34.784 2.319-83.054 17.353-138.69 42.947-2.268-18.129-11.628-33.764-26.657-43.975-5.019-3.42-11.372-3.959-16.998-1.438-35.839 16.036-82.742 54.547-132.687 108.849-7.404-16.989-20.916-31.453-38.595-40.599 6.407-17.997 16.688-40.019 32.385-57.273 2.787-3.064 2.563-7.807-.501-10.595-3.064-2.787-7.808-2.564-10.595.501-17.184 18.889-28.309 42.329-35.226 61.568-9.169-2.956-18.763-4.451-28.619-4.451-9.86 0-19.456 1.494-28.624 4.45-6.917-19.238-18.042-42.678-35.226-61.566-2.789-3.064-7.532-3.287-10.595-.501-3.064 2.787-3.287 7.53-.5 10.594 15.697 17.255 25.978 39.277 32.385 57.273-27.516 14.243-44.94 41.368-44.94 70.83 0 25.708 10.174 51.042 18.709 67.769 1.883 3.689 6.398 5.153 10.09 3.271 3.689-1.883 5.154-6.4 3.271-10.089-7.787-15.261-17.07-38.223-17.07-60.951 0-23.018 13.34-44.358 34.603-56.304 3.171 11.05 4.459 18.469 4.493 18.668.612 3.668 3.789 6.267 7.389 6.267.41 0 .825-.034 1.243-.103 4.086-.682 6.845-4.547 6.163-8.632-.152-.914-1.659-9.662-5.362-22.265 7.668-2.465 15.703-3.711 23.971-3.711 8.264 0 16.297 1.247 23.967 3.713-3.702 12.602-5.209 21.349-5.361 22.263-.682 4.084 2.075 7.945 6.159 8.629.419.07.836.104 1.247.104 3.596 0 6.772-2.596 7.388-6.26.034-.201 1.322-7.622 4.494-18.673 21.263 11.942 34.606 33.28 34.606 56.304 0 43.235-34.343 96.699-57.06 113.089-8.515 6.146-22.367 6.146-30.886-.003-6.649-4.792-14.536-13.113-22.206-23.43-2.472-3.324-7.172-4.015-10.493-1.544-3.324 2.471-4.016 7.169-1.544 10.494 8.687 11.685 17.495 20.9 25.469 26.646 6.904 4.984 15.562 7.476 24.221 7.476 3.896 0 7.793-.505 11.53-1.515-1.908 5.793-3.255 11.77-4.005 17.84l-1.771 14.362c-.781 6.356.965 12.642 4.917 17.699 3.951 5.055 9.627 8.27 16.007 9.054.962.115 1.94.173 2.91.173 12.093 0 22.331-9.059 23.814-21.077l1.759-14.335c.699-5.664 2.469-11.174 5.182-16.202 6.229 2.34 12.959 4.15 20.176 5.42 1.395.245 2.783.475 4.161.688.072 9.107 1.471 18.254 4.236 27.161l5.466 17.61c2.505 8.07 8.965 14.379 16.858 16.465 2.03.537 4.106.804 6.179.804 2.403 0 4.802-.36 7.119-1.078 12.638-3.923 19.729-17.396 15.807-30.036l-5.585-17.995c-1.124-3.62-1.787-7.321-1.999-11.025 6.167-.446 12.162-1.154 17.949-2.115 2.713 22.507 7.048 42.294 16.198 59.872 8.913 15.88 19.148 30.78 30.41 44.271 3.097 3.729 6.36 7.445 9.699 11.047 1.478 1.594 3.486 2.401 5.502 2.401 1.824 0 3.653-.662 5.097-2 3.038-2.816 3.218-7.561.401-10.599-.838-.904-1.671-1.816-2.497-2.734 26.015-11.395 51.326-26.151 73.736-43.026 26.096-19.674 48.982-42.15 68.154-66.917 7.717 11.873 14.472 24.246 20.158 36.925-12.364 23.218-37.926 49.834-69.141 71.853-22.911 16.16-46.042 27.792-61.499 31.037-1.444-1.179-2.863-2.36-4.24-3.532-3.154-2.683-7.889-2.3-10.572.854-2.684 3.155-2.302 7.889.854 10.572 2.325 1.978 4.76 3.981 7.225 5.944 30.819 24.221 53.812 36.073 82.359 51.684 16.34 8.822 31.773 17.156 44.307 25.912 2.968 2.068 6.519 3.161 10.099 3.161 1.118 0 2.239-.107 3.346-.323 4.66-.913 8.645-3.602 11.215-7.566 19.454-29.954 27.189-76.028 20.69-123.244-9.097-63.995-39.626-118.915-86.739-165.236-15.961-15.95-37.416-25.076-58.927-25.076-.122 0-.249 0-.372.001-11.719.058-24.17 2.888-37.122 8.426-2.178-9.505-6.335-18.859-12.37-27.784 73.172-6.363 128.023-18.237 171.664-52.639zm-9.408 377.386c-.438.676-1.065.922-1.515 1.01-.402.081-1.192.129-1.977-.418-13.233-9.245-29.035-17.777-45.765-26.811-3.167-1.71-6.385-3.448-9.641-5.22 15.781-9.398 31.04-20.265 45.501-32.414 11.975-10.053 23.199-20.815 33.515-32.124 2.334 37.488-4.861 72.485-20.118 95.977zm17.945-116.277c-12.194 14.569-25.969 28.33-40.989 40.939-16.169 13.584-33.367 25.486-51.172 35.42-12.559-7.099-27.656-16.113-43.052-27.283 16.091-5.635 35.712-16.228 55.405-30.117 28.57-20.153 52.817-44.231 67.56-66.705 5.711 15.671 9.816 31.665 12.248 47.746zm-176.916-364.408c.821-.369 1.75-.314 2.429.149 12.885 8.755 20.101 22.275 20.608 38.399-9.124 4.396-18.424 9.058-27.876 13.979-3.674 1.913-5.102 6.442-3.188 10.116 1.913 3.674 6.443 5.101 10.116 3.188 71.603-37.284 133.797-59.334 175.118-62.088.778-.055 1.592.309 2.063.95 19.217 26.032 11.076 60.938-20.248 86.881-37.458 29.5-84.779 43.23-173.772 50.259-14.771-15.359-34.25-27.456-55.505-34.905 13.889-8.548 27.876-16.773 41.744-24.547 3.613-2.025 4.9-6.596 2.875-10.209-2.024-3.612-6.593-4.9-10.209-2.875-18.005 10.092-36.205 20.935-54.137 32.251-10.824-2.162-21.29-3.235-31.313-3.214 46.101-49.127 88.776-83.784 121.295-98.334zm-179.692 278.486-1.759 14.334c-.557 4.509-4.395 7.909-8.927 7.909-.377 0-.757-.022-1.104-.064-2.38-.293-4.509-1.5-5.993-3.4-1.484-1.898-2.141-4.253-1.849-6.629l1.77-14.358c1.277-10.339 4.618-20.359 9.768-29.421 4.354 4.124 9.219 7.746 14.581 10.858-3.379 6.47-5.592 13.522-6.487 20.771zm86.966-41.733c-9.651 15.156-12.132 33.69-6.806 50.849l5.585 17.994c1.471 4.74-1.188 9.793-5.925 11.263-1.646.511-3.336.544-5.021.099-2.939-.777-5.379-3.233-6.364-6.409l-5.466-17.61c-6.898-22.223-3.686-46.226 8.814-65.855l7.455-11.707c2.523-3.961 7.735-5.315 11.868-3.085 2.224 1.201 3.799 3.209 4.435 5.655s.238 4.967-1.119 7.099zm12.653 8.057 7.456-11.707c3.567-5.603 4.655-12.502 2.984-18.931-1.671-6.428-5.982-11.925-11.826-15.08-11.015-5.948-24.918-2.335-31.646 8.226l-7.456 11.708c-7.095 11.142-11.675 23.468-13.635 36.184-.879-.142-1.763-.291-2.651-.447-17.703-3.117-31.791-9.877-41.98-20.128 22.676-26.02 46.36-70.622 46.36-109.246 0-3.851-.298-7.661-.877-11.408 12.888-1.392 26.87-.546 41.683 2.532 59.395 12.322 92.795 57.469 86.727 91.906-5.481 31.136-44.93 45.271-80.589 48.508 1.207-4.233 3.029-8.316 5.45-12.117zm208.546 4.549c-18.929 25.212-41.854 48.039-68.209 67.908-22.673 17.074-48.452 31.888-74.855 43.041-9.322-11.656-17.847-24.334-25.38-37.754-.101-.18-.202-.364-.302-.551 53.593-18.037 112.672-61.591 141.732-104.329 10.551 10.998 19.461 21.45 27.014 31.685zm-118.634-38.338c.682-3.87 1.022-7.759 1.027-11.649 12.512-5.897 24.676-9.024 35.414-9.077.1 0 .2-.001.301-.001 15.695 0 31.419 6.015 43.979 16.685-26.569 40.649-85.281 84.11-136.579 101.126-3.966-11.976-7.032-26.792-8.479-41.207 9.872-2.562 18.942-5.947 26.983-10.104 21.084-10.896 34.001-26.725 37.354-45.773z"/><path d="m130 163.37v-12c0-4.142-3.357-7.5-7.5-7.5s-7.5 3.358-7.5 7.5v12c0 4.142 3.357 7.5 7.5 7.5s7.5-3.358 7.5-7.5z"/><path d="m60 163.37v-12c0-4.142-3.357-7.5-7.5-7.5s-7.5 3.358-7.5 7.5v12c0 4.142 3.357 7.5 7.5 7.5s7.5-3.358 7.5-7.5z"/></g></g></svg>