<svg id="Capa_1" enable-background="new 0 0 512 512" height="512" viewBox="0 0 512 512" width="512" xmlns="http://www.w3.org/2000/svg"><g><g><g><circle cx="238.921" cy="216.689" fill="#fe7c66" r="202.885"/><path d="m406.5 331.12c-6.993 10.229-15.036 19.952-24.114 29.03-79.234 79.234-207.692 79.234-286.926 0s-79.234-207.692 0-286.926c9.078-9.078 18.801-17.121 29.03-24.114-54.086 78.993-46.05 187.748 24.106 257.904s178.911 78.192 257.904 24.106z" fill="#fe6c55"/><path d="m162.168 357.103c60.729 33.239 138.454 24.137 189.879-27.288s60.526-129.15 27.288-189.879l-140.414 76.753z" fill="#fef056"/><path d="m379.335 139.936c33.239 60.729 24.137 138.454-27.288 189.879-16.631 16.631-36.008 28.836-56.668 36.599-43.242 16.281-92.116 13.177-133.211-9.311l1.945-23.041 17.378-.342 4.146-.086c47.365 21.586 105.161 12.889 144.14-26.09s47.676-96.775 26.09-144.14l.202-21.298z" fill="#fea95c"/><path d="m295.379 366.414c-43.242 16.281-92.116 13.177-133.211-9.311l1.945-23.041 17.378-.342c34.467 22.442 74.255 33.34 113.888 32.694z" fill="#fe9738"/><path d="m217.312 301.959c29.038 7.335 61.094-.358 83.808-23.072s30.407-54.77 23.072-83.808l-85.27 21.609z" fill="#025f80"/><path d="m453.471 65.8-365.44 365.44c-9.066 9.066-23.765 9.066-32.831 0-8.312-8.312-9.07-21.504-1.825-30.761 31.647-40.438 43.456-93.572 30.56-144.007-13.537-52.944.416-111.466 41.86-152.909s99.965-55.397 152.909-41.86c50.435 12.896 103.568 1.086 144.007-30.56 9.257-7.245 22.449-6.487 30.761 1.825 9.065 9.066 9.065 23.766-.001 32.832z" fill="#fef056"/><path d="m111.103 326.615c-5.772 13.831-13.418 26.938-22.807 38.94-3.625 4.636-5.243 10.237-4.924 15.736.327 5.492 2.598 10.875 6.752 15.029 9.062 9.062 23.764 9.062 32.826 0l-34.919 34.919c-9.07 9.07-23.764 9.062-32.826 0-4.154-4.154-6.425-9.537-6.752-15.028-.327-5.492 1.307-11.108 4.924-15.736 21.072-26.922 33.347-59.484 35.378-93.127 13.317 7.685 24.192 14.841 22.348 19.267z" fill="#ffd15b"/><path d="m422.709 31.143-35.432 35.432c-28.711 28.711-71.012 39.71-109.735 27.544-44.207-13.901-94.442-3.322-129.477 31.714s-45.615 85.27-31.722 129.485c1.641 5.235 2.87 10.54 3.672 15.869 5.196 34.04-6.386 69.036-31.208 93.858l-35.432 35.432c31.644-40.434 43.46-93.571 30.563-144.008-8.113-31.714-6.355-65.427 5.266-96.262 7.771-20.653 19.976-40.029 36.591-56.645 41.445-41.445 99.964-55.392 152.906-41.857 50.438 12.898 103.566 1.09 144.008-30.562z" fill="#fea95c"/><path d="m89.204 160.208c-.638 38.52 9.638 77.188 30.812 110.979 5.196 34.04-6.386 69.036-31.208 93.858l-35.432 35.432c31.644-40.434 43.46-93.571 30.563-144.008-8.115-31.713-6.357-65.426 5.265-96.261z" fill="#fe9738"/><path d="m284.36 169.492-92.635 92.635c-9.27 9.27-24.811 6.772-30.864-4.857-17.248-33.139-11.957-74.962 15.862-102.781s69.642-33.111 102.781-15.862c11.628 6.054 14.126 21.595 4.856 30.865z" fill="#025f80"/></g><g><path d="m500.169 388.399-23.393 9.95-9.95 23.393c-.994 2.333-2.929 3.725-5.032 4.164-3.107.67-6.612-.722-8.077-4.164l-9.95-23.393-23.393-9.95c-5.775-2.459-5.775-10.65 0-13.109l23.393-9.95 9.95-23.393c1.507-3.547 5.179-4.917 8.359-4.101 1.998.502 3.798 1.873 4.75 4.101l9.95 23.393 23.393 9.95c5.775 2.458 5.775 10.65 0 13.109z" fill="#fef056"/><path d="m461.793 425.905c-3.107.67-6.612-.722-8.077-4.164l-9.95-23.393-23.393-9.95c-5.775-2.459-5.775-10.65 0-13.109l23.393-9.95 9.95-23.393c1.507-3.547 5.179-4.917 8.359-4.101-4.561 16.667-11.905 53.42-.282 88.06z" fill="#ffd15b"/></g><g><path d="m242.285 460.52-23.393 9.95-9.95 23.393c-.994 2.333-2.929 3.725-5.032 4.164-3.107.67-6.612-.722-8.077-4.164l-9.95-23.393-23.393-9.95c-5.775-2.459-5.775-10.65 0-13.109l23.393-9.95 9.95-23.393c1.507-3.547 5.179-4.917 8.359-4.101 1.998.502 3.798 1.873 4.75 4.101l9.95 23.393 23.393 9.95c5.775 2.459 5.775 10.651 0 13.109z" fill="#fef056"/><path d="m203.91 498.027c-3.107.67-6.612-.722-8.077-4.164l-9.95-23.393-23.393-9.95c-5.775-2.459-5.775-10.65 0-13.109l23.393-9.95 9.95-23.393c1.507-3.547 5.179-4.917 8.359-4.101-4.561 16.666-11.905 53.42-.282 88.06z" fill="#ffd15b"/></g><g><path d="m91.627 107.188-23.393 9.95-9.95 23.393c-.994 2.333-2.929 3.725-5.032 4.164-3.107.67-6.612-.722-8.077-4.164l-9.95-23.393-23.393-9.95c-5.775-2.459-5.775-10.65 0-13.109l23.393-9.95 9.95-23.393c1.507-3.547 5.179-4.917 8.359-4.101 1.998.502 3.798 1.873 4.75 4.101l9.95 23.393 23.393 9.95c5.775 2.458 5.775 10.65 0 13.109z" fill="#fef056"/><path d="m53.252 144.694c-3.107.67-6.612-.722-8.077-4.164l-9.95-23.393-23.393-9.95c-5.775-2.459-5.775-10.65 0-13.109l23.393-9.95 9.95-23.393c1.507-3.547 5.179-4.917 8.359-4.101-4.561 16.667-11.906 53.42-.282 88.06z" fill="#ffd15b"/></g></g><g><path d="m420.138 109.738 38.642-38.642c5.798-5.811 8.991-13.523 8.991-21.717 0-8.2-3.195-15.912-8.997-21.713-10.956-10.957-28.446-12.002-40.686-2.433-14.65 11.466-31.361 20.348-49.019 26.154-39.633-31.282-89.133-47.192-139.889-44.855-52.477 2.417-101.85 24.22-139.023 61.394-4.01 4.01-7.87 8.191-11.523 12.476l-4.682-1.992-8.769-20.61c-2.299-5.405-7.581-8.897-13.454-8.897-5.874 0-11.155 3.492-13.454 8.897l-8.769 20.61-20.61 8.769c-5.404 2.298-8.896 7.58-8.896 13.453 0 5.874 3.492 11.155 8.897 13.454l20.61 8.769 8.769 20.609c.547 1.285 1.266 2.457 2.118 3.505-23.777 67.82-11.222 143.548 33.224 199.873-5.806 17.656-14.688 34.365-26.152 49.013-4.227 5.398-6.555 12.14-6.555 18.984 0 8.201 3.191 15.909 8.987 21.704 5.803 5.803 13.518 8.999 21.722 8.999 8.206 0 15.919-3.197 21.714-8.999l1.22-1.22c2.929-2.929 2.929-7.678 0-10.606-2.929-2.929-7.678-2.929-10.606 0l-1.223 1.223c-2.965 2.968-6.909 4.603-11.105 4.603-4.198 0-8.145-1.636-11.115-4.605-2.962-2.962-4.593-6.903-4.593-11.097 0-3.395 1.128-6.737 3.169-9.462l35.034-35.034c31.091-31.092 42.354-76.031 29.392-117.283-13.583-43.201-2.138-89.921 29.868-121.927 31.949-31.949 78.605-43.408 121.757-29.906 3.952 1.239 8.161-.964 9.397-4.918s-.965-8.161-4.918-9.397c-48.5-15.174-100.934-2.294-136.843 33.615-35.973 35.973-48.836 88.48-33.572 137.032 10.946 34.836 2 72.732-23.325 99.734 2.821-7.669 5.107-15.525 6.82-23.491 5.605-26.074 5.092-53.457-1.484-79.189-6.448-25.21-6.347-51.834.293-76.992 6.839-25.913 20.531-49.688 39.594-68.756 19.068-19.063 42.845-32.756 68.758-39.596 25.157-6.641 51.781-6.745 76.991-.302 25.731 6.581 53.114 7.096 79.189 1.493 7.97-1.713 15.83-4.003 23.503-6.826-18.573 17.421-42.516 27.286-67.801 27.849-4.141.092-7.423 3.524-7.331 7.665.091 4.084 3.43 7.333 7.495 7.333.057 0 .114 0 .17-.002 30.287-.674 58.881-12.96 80.517-34.595l35.018-35.028c6.26-4.685 15.039-4.106 20.565 1.419 2.968 2.968 4.603 6.913 4.603 11.106s-1.637 8.144-4.603 11.117l-339.73 339.73c-2.929 2.929-2.929 7.678 0 10.606 2.929 2.929 7.678 2.929 10.606 0l12.934-12.934c16.636 9.836 34.451 17.285 53.141 22.201l-4.954 11.643-20.61 8.769c-5.405 2.299-8.897 7.581-8.897 13.454s3.492 11.154 8.897 13.454l20.61 8.769 8.769 20.61c2.299 5.405 7.581 8.897 13.454 8.897s11.154-3.492 13.454-8.897l8.769-20.61 20.61-8.769c5.405-2.299 8.897-7.581 8.897-13.454 0-5.874-3.492-11.155-8.897-13.454l-20.61-8.769-2.268-5.331c5.632.45 11.26.682 16.874.682 32.206 0 63.912-7.378 93.051-21.802 3.712-1.838 5.232-6.337 3.395-10.049-1.838-3.712-6.336-5.233-10.049-3.395-34.147 16.904-72.088 23.38-109.988 18.824-2.399-5.138-7.535-8.436-13.237-8.436-3.905 0-7.542 1.55-10.221 4.172-17.274-4.231-33.772-10.765-49.213-19.486l20.618-20.618c23.324 11.731 49.419 17.849 75.606 17.849 7.489 0 14.988-.5 22.428-1.512 36.513-4.965 69.62-21.397 95.744-47.521s42.556-59.231 47.521-95.743c4.549-33.456-1.252-68.04-16.338-98.034l20.624-20.624c19.808 35.153 28.335 76.207 24.054 116.654-4.681 44.236-24.617 85.956-56.135 117.474-7.063 7.064-14.706 13.628-22.715 19.508-3.339 2.451-4.059 7.145-1.607 10.484 1.47 2.002 3.745 3.062 6.051 3.062 1.541 0 3.096-.473 4.433-1.455 8.62-6.329 16.845-13.392 24.445-20.992 33.937-33.937 55.403-78.863 60.445-126.501 4.755-44.94-5.177-90.577-27.991-129.218zm-381.977.497-22.571-9.604 22.571-9.603c1.785-.759 3.206-2.181 3.965-3.965l9.604-22.571 9.603 22.571c.759 1.785 2.181 3.206 3.965 3.965l22.571 9.603-22.571 9.604c-1.785.759-3.206 2.181-3.965 3.965l-9.604 22.571-9.603-22.571c-.759-1.784-2.181-3.206-3.965-3.965zm242.396-55.803c-27.682-7.074-56.913-6.96-84.535.331-28.474 7.516-54.593 22.555-75.536 43.493-20.937 20.942-35.976 47.062-43.491 75.535-7.29 27.623-7.401 56.855-.322 84.535 5.802 22.703 6.418 46.815 1.834 69.905-35.581-51.11-44.733-116.86-24.004-176.143 4.718-.908 8.75-4.088 10.68-8.624l8.769-20.61 20.61-8.769c5.405-2.299 8.897-7.581 8.897-13.454s-3.492-11.154-8.897-13.454l-1.404-.597c2.456-2.745 4.994-5.437 7.605-8.049 34.523-34.523 80.375-54.772 129.107-57.016 43.249-1.994 85.512 10.284 120.614 34.755-23.095 4.588-47.216 3.971-69.927-1.838zm-68.566 385.964c.759 1.785 2.181 3.206 3.965 3.965l22.571 9.604-22.571 9.603c-1.785.759-3.206 2.181-3.965 3.965l-9.604 22.571-9.603-22.571c-.759-1.785-2.181-3.206-3.965-3.965l-22.571-9.604 22.571-9.603c1.785-.759 3.206-2.181 3.965-3.965l9.604-22.571zm146.151-203.05c-4.251 24.68-15.894 47.12-33.669 64.896-17.775 17.775-40.215 29.417-64.895 33.669-20.494 3.53-41.231 1.778-60.604-5.01l20.719-20.719c6.301 1.288 12.669 1.929 19.007 1.929 25.071 0 49.666-9.863 67.723-27.921 22.623-22.623 32.372-55.503 25.991-86.729l20.719-20.719c6.787 19.373 8.539 40.111 5.009 60.604zm-62.326 36.238c-16.6 16.601-39.755 24.974-62.842 23.316l86.159-86.158c1.657 23.086-6.716 46.242-23.317 62.842zm94.192-36.23c-4.52 33.235-19.48 63.374-43.265 87.158s-53.923 38.745-87.158 43.265c-28.814 3.919-58.542-.592-84.779-12.708l12.537-12.537c16.411 6.734 33.827 10.165 51.439 10.165 7.766 0 15.57-.665 23.341-2.003 27.75-4.78 52.978-17.867 72.955-37.845 19.978-19.978 33.064-45.206 37.845-72.956 4.375-25.396 1.551-51.139-8.153-74.788l12.53-12.53c12.116 26.237 16.627 55.963 12.708 84.779z"/><path d="m147.624 306.228c1.464 1.464 3.384 2.197 5.303 2.197s3.839-.732 5.303-2.197l131.433-131.433c.002-.002.004-.004.006-.007l38.791-38.791c2.929-2.929 2.929-7.678 0-10.606-2.929-2.929-7.678-2.929-10.606 0l-21.785 21.785c-2.206-6.527-6.813-11.928-13.102-15.202-17.869-9.3-37.903-12.669-57.934-9.737-20.433 2.989-38.972 12.308-53.613 26.949s-23.96 33.181-26.949 53.613c-2.931 20.032.437 40.065 9.737 57.934 3.274 6.29 8.675 10.896 15.202 13.102l-21.786 21.786c-2.929 2.93-2.929 7.679 0 10.607zm38.797-49.404c-2.682 2.682-6.365 3.89-10.108 3.313-3.804-.585-7.011-2.892-8.8-6.329-16.278-31.274-10.446-69.056 14.512-94.015 15.532-15.532 36.024-23.655 56.83-23.655 12.627 0 25.373 2.995 37.185 9.143 3.437 1.789 5.743 4.996 6.329 8.799.576 3.741-.63 7.424-3.309 10.105z"/><path d="m503.103 368.389-20.61-8.769-8.769-20.61c-2.299-5.405-7.581-8.897-13.454-8.897s-11.154 3.492-13.454 8.897l-8.769 20.61-20.61 8.769c-5.405 2.299-8.897 7.581-8.897 13.454 0 5.874 3.492 11.155 8.897 13.454l20.61 8.769 8.769 20.61c2.299 5.405 7.581 8.897 13.454 8.897 5.874 0 11.155-3.492 13.454-8.897l8.769-20.61 20.61-8.769c5.405-2.299 8.897-7.581 8.897-13.454s-3.492-11.155-8.897-13.454zm-29.264 23.057c-1.785.759-3.206 2.181-3.965 3.965l-9.604 22.571-9.603-22.571c-.759-1.785-2.181-3.206-3.965-3.965l-22.571-9.604 22.571-9.603c1.785-.759 3.206-2.181 3.965-3.965l9.604-22.571 9.603 22.571c.759 1.785 2.181 3.206 3.965 3.965l22.571 9.603z"/></g></g></svg>