<svg id="Capa_1" enable-background="new 0 0 512 512" height="512" viewBox="0 0 512 512" width="512" xmlns="http://www.w3.org/2000/svg"><g><g><path d="m420.28 325.881c-9.79 3.63-22.71 5.5-38.202 1.185 0 0-1.988 22.524 10.34 39.336 4.84 6.608 1.396 16-6.473 18.259-12.531 3.604-30.173 4.679-47.4-7.877 12.556 17.227 11.482 34.869 7.877 47.4-2.259 7.869-11.651 11.313-18.259 6.473-16.812-12.328-39.336-10.34-39.336-10.34 4.315 15.492 2.445 28.413-1.185 38.202-3.494 9.451-16.254 10.483-21.348 1.794-10.517-17.946-28.328-30.841-48.534-30.841-8.69 0-16.939 2.386-24.351 6.532-9.832 5.5-18.192 14.079-24.182 24.309-5.094 8.69-17.853 7.657-21.348-1.794-3.63-9.79-5.5-22.71-1.185-38.202 0 0-22.524-1.988-39.336 10.34-6.608 4.84-16 1.396-18.259-6.473-3.604-12.531-4.679-30.173 7.877-47.4-17.227 12.556-34.869 11.482-47.4 7.877-7.869-2.259-11.313-11.651-6.473-18.259 12.328-16.812 10.34-39.336 10.34-39.336-15.493 4.315-28.413 2.445-38.202-1.185-9.451-3.495-10.483-16.254-1.794-21.348 17.946-10.517 30.841-28.327 30.841-48.533s-12.895-38.016-30.841-48.534c-8.69-5.094-7.657-17.853 1.794-21.348 9.79-3.63 22.71-5.5 38.202-1.185 0 0 1.988-22.524-10.34-39.336-4.84-6.608-1.396-16 6.473-18.259 12.531-3.604 30.173-4.679 47.4 7.877-12.556-17.227-11.482-34.869-7.877-47.4 2.259-7.869 11.651-11.313 18.259-6.473 16.812 12.328 39.336 10.34 39.336 10.34-4.315-15.493-2.445-28.413 1.185-38.202 3.494-9.451 16.254-10.483 21.348-1.794 5.991 10.23 14.35 18.809 24.182 24.309 7.412 4.146 15.662 6.532 24.351 6.532 20.205 0 38.016-12.895 48.534-30.841 5.094-8.69 17.853-7.657 21.348 1.794 3.63 9.79 5.5 22.71 1.185 38.202 0 0 22.524 1.988 39.336-10.34 6.608-4.84 16-1.396 18.259 6.473 3.604 12.531 4.679 30.173-7.877 47.4 17.227-12.556 34.869-11.482 47.4-7.877 7.869 2.259 11.313 11.651 6.473 18.259-12.328 16.813-10.34 39.336-10.34 39.336 15.492-4.315 28.413-2.445 38.202 1.185 9.451 3.494 10.483 16.254 1.794 21.348-17.946 10.517-30.841 28.328-30.841 48.534s12.895 38.016 30.841 48.534c8.689 5.093 7.657 17.853-1.794 21.347z" fill="#fef056"/><path d="m124.213 256c0 71.557 26.737 135.837 69.196 180.004-9.832 5.5-18.192 14.079-24.182 24.309-5.094 8.69-17.853 7.657-21.348-1.794-3.63-9.79-5.5-22.71-1.185-38.202 0 0-22.524-1.988-39.336 10.34-6.608 4.84-16 1.396-18.259-6.473-3.604-12.531-4.679-30.173 7.877-47.4-17.227 12.556-34.869 11.482-47.4 7.877-7.869-2.259-11.313-11.651-6.473-18.259 12.328-16.812 10.34-39.336 10.34-39.336-15.493 4.315-28.413 2.445-38.202-1.185-9.451-3.495-10.483-16.254-1.794-21.348 17.946-10.517 30.841-28.327 30.841-48.533s-12.895-38.016-30.841-48.534c-8.69-5.094-7.657-17.853 1.794-21.348 9.79-3.63 22.71-5.5 38.202-1.185 0 0 1.988-22.524-10.34-39.336-4.84-6.608-1.396-16 6.473-18.259 12.531-3.604 30.173-4.679 47.4 7.877-12.556-17.227-11.482-34.869-7.877-47.4 2.259-7.869 11.651-11.313 18.259-6.473 16.812 12.328 39.336 10.34 39.336 10.34-4.315-15.493-2.445-28.413 1.185-38.202 3.494-9.451 16.254-10.483 21.348-1.794 5.991 10.23 14.35 18.809 24.182 24.309-42.458 44.169-69.196 108.448-69.196 180.005z" fill="#ffd15b"/><path d="m363.311 256c0 80.39-65.16 145.55-145.55 145.55-21.111 0-41.181-4.493-59.288-12.582-50.835-22.701-86.263-73.697-86.263-132.968s35.427-110.267 86.262-132.968c18.107-8.089 38.177-12.582 59.288-12.582 80.391 0 145.551 65.16 145.551 145.55z" fill="#fe7c66"/><path d="m124.213 256c0 49.143 12.607 94.85 34.26 132.968-50.835-22.701-86.263-73.697-86.263-132.968s35.427-110.267 86.262-132.968c-21.652 38.118-34.259 83.825-34.259 132.968z" fill="#fe6c55"/><g><circle cx="355.894" cy="255.998" fill="#ebebeb" r="148.606"/><path d="m504.473 255.987c0 49.489-24.188 93.324-61.393 120.344l-.02-.01c-28.016-10.322-47.995-37.254-47.995-68.843 0-40.495 32.83-73.325 73.335-73.325 12.89 0 25.008 3.32 35.515 9.169l.029.039c.353 4.16.529 8.378.529 12.626z" fill="#e2e2e2"/><path d="m402.709 397.073c-14.728 4.888-30.446 7.536-46.81 7.536-82.057 0-148.611-66.533-148.611-148.611s66.555-148.611 148.612-148.611c16.364 0 32.082 2.648 46.81 7.536-59.126 19.594-101.78 75.36-101.78 141.075 0 65.714 42.654 121.481 101.779 141.075z" fill="#e2e2e2"/><path d="m270.899 307.49c-17.853 0-34.208 6.364-46.913 16.964l-.006.004c22.523 43.31 65.74 74.135 116.553 79.355l.023-.016c2.387-7.207 3.674-14.951 3.674-22.977-.001-40.503-32.829-73.33-73.331-73.33z" fill="#cecece"/><path d="m371.891 211.384c0 24.637-19.969 44.616-44.616 44.616-9.745 0-18.759-3.135-26.102-8.437-11.21-8.105-18.505-21.288-18.505-36.179 0-24.637 19.969-44.616 44.607-44.616 1.123 0 2.226.039 3.33.117 23.084 1.708 41.286 20.985 41.286 44.499z" fill="#e2e2e2"/><path d="m330.605 166.885c-17.059 22.723-27.752 50.495-29.432 80.678-11.21-8.105-18.505-21.288-18.505-36.179 0-24.637 19.969-44.616 44.607-44.616 1.123-.001 2.226.038 3.33.117z" fill="#cecece"/><circle cx="426.112" cy="187.981" fill="#e2e2e2" r="23.403"/></g></g><g><path d="m512 256c0-27.136-7.067-53.855-20.438-77.269-2.053-3.597-6.634-4.848-10.231-2.793-3.598 2.054-4.849 6.635-2.794 10.232 7.948 13.919 13.413 29.14 16.233 44.909-8.428-2.901-17.347-4.415-26.35-4.415-44.57 0-80.83 36.26-80.83 80.83 0 28.983 15.707 55.564 40.201 69.869-21.07 12.529-45.658 19.738-71.901 19.738-1.937 0-3.862-.05-5.78-.128 1.069-5.273 1.61-10.677 1.61-16.152 0-7.112-.928-14.172-2.757-20.985-1.074-4-5.187-6.372-9.188-5.299-4 1.074-6.372 5.188-5.298 9.188 1.488 5.544 2.243 11.296 2.243 17.095 0 5.019-.564 9.953-1.659 14.74-43.301-6.435-80.246-32.611-101.357-69.056 10.882-7.456 23.87-11.514 37.186-11.514 18.581 0 36.389 7.912 48.855 21.708 1.48 1.639 3.52 2.472 5.566 2.472 1.793 0 3.592-.639 5.026-1.936 3.073-2.777 3.313-7.52.536-10.593-15.306-16.938-37.169-26.651-59.984-26.651-15.69 0-31.01 4.597-44.037 13.064-7.748-17.455-12.063-36.759-12.063-57.054 0-77.809 63.297-141.11 141.1-141.11 39.006 0 76.633 16.37 103.234 44.913 2.823 3.03 7.568 3.198 10.6.374 3.03-2.824 3.197-7.57.373-10.6-29.365-31.509-70.876-49.605-113.929-49.683-.327-4.666-1.174-9.398-2.539-14.143-1.763-6.137-6.42-11.032-12.459-13.094-5.917-2.02-12.438-1.03-17.443 2.645-8.312 6.092-18.526 8.112-25.625 8.735 1.652-11.415.511-22.532-3.421-33.168-2.634-7.09-8.921-11.902-16.407-12.556-7.534-.658-14.602 3.015-18.453 9.584-9.963 16.99-25.687 27.134-42.061 27.134s-32.097-10.144-42.06-27.133c-3.854-6.575-10.93-10.249-18.462-9.584-7.485.658-13.766 5.472-16.391 12.56-3.938 10.623-5.084 21.74-3.43 33.163-7.102-.623-17.314-2.644-25.621-8.732-5.012-3.677-11.535-4.666-17.447-2.647-6.039 2.062-10.696 6.957-12.457 13.088-2.577 8.944-4.155 20.837-.771 33.617-12.778-3.383-24.672-1.806-33.611.77-6.13 1.76-11.022 6.413-13.086 12.446-2.023 5.914-1.038 12.438 2.636 17.457 6.091 8.311 8.112 18.526 8.735 25.625-11.416-1.653-22.533-.511-33.167 3.42-7.086 2.632-11.896 8.916-12.553 16.398-.661 7.532 3.009 14.606 9.583 18.464 5.308 3.109 10.037 6.871 14.054 11.182 1.477 1.585 3.48 2.386 5.488 2.386 1.831 0 3.667-.667 5.112-2.014 3.03-2.824 3.197-7.57.373-10.6-5.011-5.376-10.88-10.052-17.44-13.894-2.229-1.308-2.3-3.382-2.227-4.213.071-.807.488-2.778 2.822-3.645 10.582-3.912 21.882-4.246 33.588-.989 2.147.597 4.448.209 6.28-1.06s3.005-3.286 3.201-5.506c.092-1.034 2.08-25.552-11.75-44.421-1.081-1.476-.805-2.975-.544-3.738.229-.671.984-2.295 3.04-2.885 15.06-4.339 28.82-2.077 40.896 6.724 2.985 2.176 7.109 1.853 9.721-.758 2.612-2.612 2.933-6.736.758-9.721-8.801-12.075-11.063-25.835-6.722-40.903.589-2.053 2.216-2.809 2.888-3.039.76-.26 2.255-.533 3.729.548 18.873 13.831 43.389 11.842 44.424 11.751 2.22-.196 4.237-1.369 5.506-3.201s1.657-4.133 1.06-6.28c-3.259-11.711-2.923-23.01.998-33.584.867-2.342 2.834-2.759 3.64-2.83.829-.072 2.9-.002 4.208 2.229 12.685 21.632 33.246 34.546 55 34.546s42.315-12.915 55.001-34.547c1.307-2.229 3.379-2.301 4.205-2.228.809.071 2.781.489 3.649 2.826 3.913 10.584 4.246 21.885.989 33.589-.598 2.147-.209 4.448 1.06 6.28s3.286 3.005 5.506 3.201c1.034.091 25.551 2.079 44.428-11.754 1.471-1.08 2.967-.804 3.725-.545.673.229 2.299.985 2.89 3.042 1.04 3.613 1.694 7.19 1.965 10.695-20.662 1.941-40.163 7.926-57.707 17.153-20.586-9.812-42.67-14.792-65.711-14.792-84.392 0-153.05 68.658-153.05 153.05s68.658 153.05 153.05 153.05c23.052 0 45.138-4.981 65.716-14.798 17.542 9.226 37.042 15.209 57.702 17.15-.271 3.51-.926 7.091-1.967 10.708-.589 2.053-2.216 2.809-2.889 3.038-.76.26-2.255.534-3.729-.548-18.874-13.831-43.389-11.845-44.424-11.751-2.22.196-4.237 1.369-5.506 3.201s-1.657 4.133-1.06 6.28c3.257 11.705 2.924 23.006-.984 33.578-.873 2.349-2.846 2.766-3.653 2.837-.832.074-2.899.002-4.207-2.229-12.685-21.631-33.246-34.546-55-34.546s-42.314 12.915-55 34.547c-1.308 2.23-3.38 2.301-4.207 2.228-.806-.071-2.772-.489-3.641-2.833-3.92-10.572-4.255-21.871-.997-33.583.597-2.146.209-4.448-1.06-6.28s-3.286-3.005-5.506-3.201c-1.036-.093-25.552-2.079-44.427 11.754-1.47 1.079-2.966.806-3.726.545-.672-.229-2.299-.985-2.89-3.044-4.339-15.062-2.077-28.821 6.724-40.896 2.175-2.985 1.854-7.109-.758-9.721-2.612-2.611-6.735-2.935-9.721-.758-12.077 8.801-25.836 11.063-40.902 6.723-2.049-.588-2.804-2.212-3.033-2.883-.261-.763-.537-2.262.542-3.735 13.832-18.872 11.843-43.39 11.751-44.424-.196-2.22-1.369-4.237-3.201-5.506-1.833-1.269-4.133-1.657-6.28-1.06-11.705 3.258-23.005 2.924-33.578-.985-2.344-.871-2.762-2.841-2.833-3.648-.073-.831-.002-2.904 2.225-4.211 21.631-12.685 34.546-33.246 34.546-55 0-1.886-.101-3.81-.301-5.72-.431-4.12-4.119-7.102-8.239-6.68-4.12.431-7.11 4.12-6.68 8.239.148 1.414.22 2.774.22 4.16 0 16.374-10.144 32.097-27.136 42.062-6.569 3.855-10.239 10.929-9.578 18.461.657 7.483 5.467 13.766 12.563 16.402 10.626 3.929 21.742 5.07 33.156 3.417-.624 7.103-2.645 17.316-8.736 25.628-3.672 5.015-4.657 11.54-2.634 17.453 2.063 6.033 6.955 10.686 13.08 12.445 8.944 2.576 20.838 4.156 33.618.771-3.384 12.78-1.806 24.671.77 33.612 1.762 6.137 6.419 11.032 12.458 13.094 5.913 2.019 12.436 1.03 17.444-2.645 8.311-6.091 18.526-8.111 25.625-8.735-1.654 11.422-.509 22.54 3.429 33.161 2.626 7.09 8.907 11.904 16.391 12.562.583.051 1.164.077 1.741.077 6.869 0 13.166-3.596 16.721-9.66 9.963-16.99 25.687-27.134 42.06-27.134 16.374 0 32.098 10.144 42.06 27.133 3.853 6.571 10.936 10.244 18.454 9.585 7.486-.655 13.773-5.466 16.412-12.567 3.928-10.627 5.069-21.742 3.416-33.156 7.102.624 17.314 2.644 25.621 8.732 5.011 3.677 11.53 4.668 17.447 2.647 6.039-2.062 10.696-6.957 12.458-13.09 1.366-4.751 2.214-9.487 2.541-14.157 85.952-.149 155.832-70.113 155.832-156.094zm-294.241 138.05c-76.121 0-138.05-61.929-138.05-138.05s61.929-138.05 138.05-138.05c17.349 0 34.09 3.135 49.944 9.311-40.981 28.164-67.913 75.362-67.913 128.739 0 53.376 26.934 100.574 67.919 128.735-15.85 6.179-32.593 9.315-49.95 9.315zm224.16-26.287c-23.679-10.437-39.329-34.158-39.329-60.27 0-36.298 29.531-65.83 65.83-65.83 9.847 0 19.565 2.207 28.343 6.405.148 2.638.237 5.282.237 7.932 0 45.448-21.606 85.94-55.081 111.763z"/><path d="m275.165 211.383c0 28.736 23.378 52.115 52.114 52.115s52.115-23.378 52.115-52.115-23.379-52.115-52.115-52.115-52.114 23.379-52.114 52.115zm89.23 0c0 20.465-16.649 37.115-37.115 37.115-20.465 0-37.114-16.649-37.114-37.115s16.649-37.115 37.114-37.115c20.465.001 37.115 16.65 37.115 37.115z"/><path d="m426.111 157.078c-17.04 0-30.902 13.863-30.902 30.903s13.862 30.902 30.902 30.902 30.903-13.863 30.903-30.902c.001-17.04-13.863-30.903-30.903-30.903zm0 46.805c-8.769 0-15.902-7.134-15.902-15.902 0-8.769 7.134-15.903 15.902-15.903 8.77 0 15.903 7.134 15.903 15.903.001 8.769-7.133 15.902-15.903 15.902z"/></g></g></svg>