<svg id="Capa_1" enable-background="new 0 0 511.997 511.997" height="512" viewBox="0 0 511.997 511.997" width="512" xmlns="http://www.w3.org/2000/svg"><g><g><path d="m191.878 366.347c.06.31.13.62.2.92 9.47 37.88 37.88 66.29 71.02 82.86 22.44 10.69 46.33 17.03 70.58 19.04 15.97 1.32 21.57 21.97 8.43 31.14-.42.29-.83.58-1.23.87-3.11 2.23-6.84 3.42-10.67 3.31-97.3-2.81-192.78-70.71-202.05-170.36-3.33-38.29 10.89-77.75 37.74-102.74 17.18-15.99 2.69-44.43-20.25-39.51-.31.06-.62.13-.92.2-11.01 2.76-21.23 7.11-30.58 12.72-22.82 13.67-40.53 34.8-52.28 58.3-10.69 22.44-17.03 46.33-19.04 70.58-1.32 15.97-21.97 21.57-31.14 8.43-.29-.42-.58-.83-.87-1.23-2.23-3.11-3.42-6.84-3.31-10.67 2.24-77.69 45.99-154.22 114.25-186.63 17.23-8.18 36.03-13.55 56.11-15.42 38.29-3.33 77.75 10.9 102.74 37.74 15.99 17.18 44.43 2.69 39.51-20.25-.06-.31-.13-.62-.2-.92-9.47-37.88-37.88-66.29-71.02-82.86-11.01-5.25-22.36-9.44-33.94-12.58v-.01c-12.02-3.28-24.29-5.43-36.64-6.45-15.97-1.32-21.57-21.97-8.43-31.14.42-.29.83-.58 1.23-.87 3.1-2.23 6.84-3.42 10.67-3.31 11.12.32 22.22 1.49 33.17 3.47 84.83 15.28 160.67 78.63 168.88 166.89 3.33 38.29-10.9 77.75-37.74 102.74-17.18 15.99-2.69 44.43 20.25 39.51.31-.06.61-.13.92-.2 37.88-9.47 66.29-37.88 82.86-71.02 10.69-22.44 17.03-46.33 19.04-70.58 1.32-15.97 21.97-21.57 31.14-8.43.29.42.58.83.87 1.23 2.23 3.11 3.42 6.84 3.31 10.67-2.81 97.3-70.71 192.78-170.36 202.05-38.29 3.33-77.75-10.9-102.74-37.74-15.99-17.18-44.43-2.69-39.51 20.25z" fill="#017297"/><g fill="#025f80"><path d="m342.108 500.307c-.42.29-.83.58-1.23.87-3.11 2.23-6.84 3.42-10.67 3.31-97.3-2.81-192.78-70.71-202.05-170.36-3.33-38.29 10.89-77.75 37.74-102.74 0 0-32.07 97.01 25.98 134.96.06.31.13.62.2.92 9.47 37.88 37.88 66.29 71.02 82.86 22.44 10.69 46.33 17.03 70.58 19.04 15.97 1.32 21.57 21.97 8.43 31.14z"/><path d="m214.958 49.277c-12.02-3.28-24.29-5.43-36.64-6.45-15.97-1.32-21.57-21.97-8.43-31.14.42-.29.83-.58 1.23-.87 3.1-2.23 6.84-3.42 10.67-3.31 11.12.32 22.22 1.49 33.17 3.47 0 0-20.28 8.55 0 38.3z"/><path d="m114.148 204.797c-22.82 13.67-40.53 34.8-52.28 58.3-10.69 22.44-17.03 46.33-19.04 70.58-1.32 15.97-21.97 21.57-31.14 8.43-.29-.42-.58-.83-.87-1.23-2.23-3.11-3.42-6.84-3.31-10.67 2.24-77.69 45.99-154.22 114.25-186.63-11.56 11.93-26.04 34.43-7.61 61.22z"/></g><path d="m304.236 326.013c3.487 7.103-3.472 14.832-10.947 12.237-12.472-4.33-23.668-11.258-31.89-20.09-12.368-13.286-29.003-20.603-46.841-20.603-9.926 0-19.709 2.365-28.523 6.7-7.147 3.516-14.96-3.235-12.371-10.767 4.299-12.504 11.224-23.763 20.169-32.09 19.489-18.143 25.812-45.803 16.107-70.469-.666-1.692-1.395-3.343-2.184-4.95-3.487-7.103 3.472-14.832 10.947-12.236 12.472 4.33 23.668 11.258 31.89 20.09 12.367 13.286 29.003 20.603 46.838 20.603h.007c9.926-.001 19.708-2.366 28.52-6.702 7.146-3.515 14.959 3.234 12.37 10.766-4.299 12.505-11.224 23.765-20.17 32.093-19.491 18.144-25.812 45.807-16.105 70.476.667 1.688 1.395 3.337 2.183 4.942z" fill="#fef056"/><g><path d="m500.356 468.487-22.36 9.51-9.51 22.36c-.95 2.23-2.8 3.56-4.81 3.98-2.97.64-6.32-.69-7.72-3.98l-9.51-22.36-22.36-9.51c-5.52-2.35-5.52-10.18 0-12.53l22.36-9.51 9.51-22.36c1.44-3.39 4.95-4.7 7.99-3.92 1.91.48 3.63 1.79 4.54 3.92l9.51 22.36 22.36 9.51c5.52 2.35 5.52 10.18 0 12.53z" fill="#fef056"/><path d="m463.676 504.337c-2.97.64-6.32-.69-7.72-3.98l-9.51-22.36-22.36-9.51c-5.52-2.35-5.52-10.18 0-12.53l22.36-9.51 9.51-22.36c1.44-3.39 4.95-4.7 7.99-3.92-4.36 15.93-11.38 51.06-.27 84.17z" fill="#ffd15b"/></g><g><path d="m98.179 83.215-22.36 9.51-9.51 22.36c-.95 2.23-2.8 3.56-4.81 3.98-2.97.64-6.32-.69-7.72-3.98l-9.51-22.36-22.36-9.51c-5.52-2.35-5.52-10.18 0-12.53l22.36-9.51 9.51-22.36c1.44-3.39 4.95-4.7 7.99-3.92 1.91.48 3.63 1.79 4.54 3.92l9.51 22.36 22.36 9.51c5.52 2.35 5.52 10.18 0 12.53z" fill="#fef056"/><path d="m61.499 119.065c-2.97.64-6.32-.69-7.72-3.98l-9.51-22.36-22.36-9.51c-5.52-2.35-5.52-10.18 0-12.53l22.36-9.51 9.51-22.36c1.44-3.39 4.95-4.7 7.99-3.92-4.36 15.93-11.38 51.06-.27 84.17z" fill="#ffd15b"/></g><g><path d="m102.765 450.729-22.36 9.51-9.51 22.36c-.95 2.23-2.8 3.56-4.81 3.98-2.97.64-6.32-.69-7.72-3.98l-9.51-22.36-22.36-9.51c-5.52-2.35-5.52-10.18 0-12.53l22.36-9.51 9.51-22.36c1.44-3.39 4.95-4.7 7.99-3.92 1.91.48 3.63 1.79 4.54 3.92l9.51 22.36 22.36 9.51c5.52 2.35 5.52 10.18 0 12.53z" fill="#fef056"/><path d="m66.085 486.579c-2.97.64-6.32-.69-7.72-3.98l-9.51-22.36-22.36-9.51c-5.52-2.35-5.52-10.18 0-12.53l22.36-9.51 9.51-22.36c1.44-3.39 4.95-4.7 7.99-3.92-4.36 15.93-11.38 51.06-.27 84.17z" fill="#ffd15b"/></g><g><path d="m496.929 76.598-22.36 9.51-9.51 22.36c-.95 2.23-2.8 3.56-4.81 3.98-2.97.64-6.32-.69-7.72-3.98l-9.51-22.36-22.36-9.51c-5.52-2.35-5.52-10.18 0-12.53l22.36-9.51 9.51-22.36c1.44-3.39 4.95-4.7 7.99-3.92 1.91.48 3.63 1.79 4.54 3.92l9.51 22.36 22.36 9.51c5.52 2.35 5.52 10.18 0 12.53z" fill="#fef056"/><path d="m460.249 112.448c-2.97.64-6.32-.69-7.72-3.98l-9.51-22.36-22.36-9.51c-5.52-2.35-5.52-10.18 0-12.53l22.36-9.51 9.51-22.36c1.44-3.39 4.95-4.7 7.99-3.92-4.36 15.93-11.38 51.06-.27 84.17z" fill="#ffd15b"/></g><circle cx="255.998" cy="255.997" fill="#fe7c66" r="22.337"/><path d="m263.291 277.115c-2.285.791-4.739 1.219-7.294 1.219-12.335 0-22.337-10.002-22.337-22.337s10.002-22.337 22.337-22.337c2.555 0 5.009.428 7.294 1.219-8.755 3.023-15.043 11.338-15.043 21.118s6.288 18.095 15.043 21.118z" fill="#fe6c55"/></g><g><path d="m406.597 385.323c-22.12 11.589-45.804 18.626-70.395 20.916-.045.004-.09.009-.135.014l-.087.01c-4.271.368-8.615.554-12.913.554-30.276 0-60.535-9.178-85.201-25.844-3.432-2.318-8.094-1.417-10.413 2.016-2.319 3.432-1.417 8.094 2.016 10.413 27.12 18.324 60.361 28.416 93.599 28.416 4.759 0 9.569-.208 14.298-.618.061-.005.122-.012.183-.018l.112-.013c26.522-2.479 52.058-10.068 75.898-22.558 3.669-1.922 5.085-6.455 3.163-10.124-1.924-3.67-6.458-5.086-10.125-3.164z"/><path d="m473.184 329.888c-11.362 14.184-24.199 26.752-38.155 37.358-3.298 2.506-3.939 7.211-1.433 10.509 1.475 1.941 3.713 2.962 5.977 2.962 1.582 0 3.176-.499 4.533-1.529 14.933-11.348 28.655-24.78 40.786-39.922 2.59-3.232 2.068-7.953-1.165-10.542s-7.954-2.069-10.543 1.164z"/><path d="m329.887 38.809c44.324 35.493 71.441 84.14 76.354 136.951l.015.162c2.975 34.218-6.246 70.016-25.299 98.213-2.319 3.432-1.417 8.094 2.015 10.414 1.288.87 2.748 1.287 4.192 1.287 2.407 0 4.772-1.157 6.221-3.302 20.944-30.996 31.082-70.328 27.812-107.929l-.019-.207c-5.295-56.926-34.387-109.238-81.916-147.297-3.235-2.589-7.954-2.066-10.542 1.167-2.589 3.232-2.067 7.951 1.167 10.541z"/><path d="m27.1 172.731c-2.589 3.233-2.067 7.953 1.167 10.542 1.383 1.107 3.039 1.646 4.683 1.646 2.199 0 4.378-.962 5.859-2.812 35.493-44.324 84.14-71.441 136.951-76.354l.162-.015c4.287-.373 8.663-.562 13.007-.562 30.286 0 60.542 9.179 85.196 25.847 3.432 2.321 8.095 1.418 10.414-2.013 2.32-3.432 1.418-8.094-2.013-10.414-27.109-18.327-60.349-28.42-93.598-28.42-4.776 0-9.589.208-14.325.62l-.207.019c-56.925 5.296-109.237 34.387-147.296 81.916z"/><path d="m182.107 473.185c-44.324-35.493-71.441-84.14-76.354-136.953l-.015-.16c-2.976-34.217 6.246-70.015 25.299-98.214 2.319-3.432 1.417-8.094-2.016-10.413-3.431-2.319-8.094-1.417-10.413 2.016-20.944 30.997-31.082 70.329-27.812 107.932l.019.205c5.295 56.926 34.387 109.237 81.916 147.297 1.383 1.107 3.039 1.646 4.683 1.646 2.199 0 4.378-.963 5.859-2.812 2.589-3.235 2.067-7.955-1.166-10.544z"/><path d="m334.297 461.693c-23.661-1.961-46.508-8.12-67.91-18.307-34.524-17.281-58.946-45.664-67.021-77.886-.044-.189-.088-.384-.126-.58-.01-.049-.02-.098-.03-.146-1.814-8.458 2.881-14.255 7.88-16.86 5.125-2.671 12.757-3.209 18.808 3.293 23.825 25.589 60.236 40.604 97.221 40.603 3.898 0 7.806-.167 11.703-.506 48.748-4.535 93.728-29.676 126.655-70.793 31.113-38.853 49.05-88.042 50.508-138.509.154-5.385-1.519-10.802-4.736-15.288-.257-.354-.514-.717-.791-1.119-6.004-8.604-16.443-12.393-26.597-9.656-10.17 2.743-17.302 11.284-18.167 21.758-1.961 23.661-8.12 46.508-18.307 67.91-17.281 34.524-45.664 58.946-77.886 67.021-.189.044-.384.088-.58.126-.049.01-.098.02-.146.03-8.461 1.812-14.255-2.881-16.86-7.88-2.671-5.125-3.208-12.757 3.293-18.808 28.285-26.336 43.651-68.056 40.097-108.925-4.302-46.174-26.222-87.826-63.39-120.451-3.114-2.732-7.852-2.424-10.584.689s-2.424 7.852.689 10.584c34.233 30.049 54.41 68.283 58.346 110.523 3.159 36.326-10.397 73.341-35.378 96.6-10.275 9.563-12.837 24.32-6.375 36.72 6.469 12.414 19.507 18.542 33.236 15.629.381-.075.763-.16 1.131-.247.036-.008.071-.017.106-.026 36.518-9.129 68.5-36.444 87.749-74.942.021-.042.042-.085.063-.128 10.987-23.065 17.63-47.688 19.744-73.188.517-6.256 5.584-8.098 7.125-8.513 1.535-.414 6.817-1.364 10.37 3.728.323.468.646.925.946 1.338 1.31 1.827 1.97 3.931 1.908 6.083-1.344 46.542-18.556 93.767-47.223 129.564-30.36 37.912-71.675 61.079-116.291 65.23-36.326 3.156-73.341-10.397-96.6-35.378-9.563-10.275-24.319-12.836-36.72-6.375-12.413 6.469-18.542 19.509-15.629 33.236.075.381.16.763.247 1.131.008.036.017.071.026.106 9.129 36.518 36.444 68.5 74.942 87.749.042.021.085.042.128.063 23.065 10.987 47.688 17.63 73.188 19.744 6.256.517 8.098 5.584 8.513 7.125.414 1.534 1.365 6.816-3.728 10.37-.468.323-.925.646-1.338.946-1.827 1.311-3.937 1.969-6.083 1.908-46.542-1.344-93.767-18.556-129.564-47.223-37.912-30.36-61.079-71.675-65.23-116.291-3.159-36.326 10.397-73.341 35.378-96.6 10.275-9.563 12.837-24.32 6.375-36.72-6.469-12.414-19.51-18.543-33.236-15.629-.381.075-.763.16-1.131.247-.036.008-.071.017-.106.026-36.518 9.129-68.5 36.444-87.749 74.942-.021.042-.042.085-.063.128-10.987 23.065-17.63 47.688-19.744 73.188-.517 6.256-5.584 8.098-7.125 8.513-1.533.415-6.816 1.364-10.37-3.728-.323-.468-.646-.925-.946-1.338-1.31-1.827-1.97-3.931-1.908-6.083 1.344-46.542 18.556-93.767 47.223-129.564 30.36-37.912 71.675-61.079 116.291-65.23 36.325-3.162 73.341 10.397 96.6 35.378 9.563 10.275 24.319 12.836 36.72 6.375 12.413-6.469 18.542-19.509 15.629-33.236-.075-.381-.16-.763-.247-1.131-.008-.036-.017-.071-.026-.106-9.129-36.518-36.444-68.5-74.942-87.749-.042-.021-.085-.042-.128-.063-23.065-10.987-47.688-17.63-73.188-19.744-6.256-.517-8.098-5.584-8.513-7.125-.414-1.534-1.365-6.816 3.728-10.37.468-.323.925-.646 1.338-.946 1.827-1.311 3.931-1.983 6.083-1.908 38.291 1.105 77.325 12.929 109.912 33.293 3.513 2.195 8.14 1.126 10.335-2.386 2.195-3.513 1.127-8.14-2.386-10.335-34.813-21.752-76.516-34.383-117.431-35.565-5.37-.149-10.802 1.52-15.288 4.736-.354.257-.717.514-1.119.791-8.604 6.004-12.394 16.444-9.656 26.597 2.743 10.17 11.284 17.302 21.758 18.167 23.661 1.961 46.508 8.12 67.91 18.307 34.524 17.281 58.946 45.664 67.021 77.886.044.189.088.384.126.58.01.049.02.098.03.146 1.814 8.458-2.881 14.255-7.88 16.86-5.125 2.67-12.757 3.208-18.808-3.293-26.336-28.286-68.059-43.654-108.924-40.097-48.748 4.535-93.728 29.676-126.655 70.793-31.112 38.853-49.05 88.043-50.507 138.51-.154 5.385 1.519 10.802 4.736 15.288.257.354.514.717.791 1.119 6.004 8.604 16.443 12.392 26.597 9.656 10.17-2.743 17.302-11.284 18.167-21.758 1.961-23.661 8.12-46.508 18.307-67.91 17.281-34.524 45.664-58.946 77.886-67.021.189-.044.384-.088.58-.126.049-.01.098-.02.146-.03 8.459-1.812 14.255 2.881 16.86 7.88 2.671 5.125 3.208 12.757-3.293 18.808-28.285 26.336-43.651 68.056-40.097 108.924 4.535 48.748 29.676 93.728 70.793 126.655 38.853 31.113 88.042 49.05 138.509 50.508.228.006.456.01.685.01 5.157 0 10.308-1.666 14.604-4.746.354-.257.717-.514 1.119-.791 8.604-6.004 12.394-16.444 9.656-26.597-2.743-10.171-11.285-17.303-21.759-18.168z"/><path d="m323.267 256.087c9.687-9.016 17.347-21.171 22.152-35.15 2.161-6.284.35-13.17-4.614-17.544-5.01-4.414-12.137-5.348-18.153-2.388-3.934 1.931-8.058 3.413-12.272 4.406-4.254 1.013-8.609 1.526-12.943 1.526-15.727 0-30.413-6.468-41.348-18.208-8.932-9.605-21.008-17.236-34.92-22.066-6.321-2.199-13.274-.376-17.712 4.641-4.401 4.975-5.355 12.033-2.434 17.978.709 1.446 1.358 2.918 1.934 4.393 6.586 16.731 4.981 35.052-4.404 50.265-2.175 3.525-1.081 8.146 2.445 10.321 3.525 2.175 8.146 1.08 10.321-2.445 11.89-19.271 13.929-42.465 5.603-63.617-.721-1.846-1.54-3.705-2.435-5.529-.104-.21-.377-.769.205-1.427.427-.482.949-.62 1.555-.41 11.609 4.031 21.588 10.294 28.862 18.117 13.808 14.824 32.392 22.988 52.328 22.988 5.502 0 11.026-.651 16.402-1.93 5.292-1.249 10.481-3.111 15.431-5.541.603-.297 1.146-.236 1.619.18.639.562.434 1.157.346 1.413-4.008 11.66-10.297 21.705-18.187 29.048-21.762 20.255-28.815 51.149-17.976 78.689.721 1.846 1.54 3.705 2.435 5.529.104.21.377.769-.205 1.427-.427.482-.949.62-1.555.41-11.609-4.031-21.588-10.294-28.862-18.117-13.808-14.824-32.392-22.988-52.328-22.988-10.903 0-21.911 2.583-31.833 7.471-.224.11-.903.446-1.615-.182-.644-.567-.438-1.165-.349-1.423 2.101-6.118 4.856-11.826 8.189-16.966 2.254-3.475 1.264-8.12-2.212-10.373-3.473-2.253-8.119-1.264-10.373 2.212-3.999 6.166-7.293 12.981-9.79 20.251-2.162 6.286-.349 13.176 4.618 17.553 5.008 4.413 12.134 5.349 18.159 2.384 7.872-3.878 16.588-5.928 25.206-5.928 15.727 0 30.413 6.468 41.348 18.208 8.932 9.605 21.008 17.236 34.92 22.066 1.78.619 3.609.919 5.418.919 4.618 0 9.105-1.956 12.293-5.56 4.401-4.975 5.355-12.033 2.434-17.978-.709-1.446-1.358-2.918-1.934-4.393-8.573-21.779-2.987-46.207 14.231-62.232z"/><path d="m503.292 449.056-19.577-8.329-8.329-19.576c-2.25-5.289-7.417-8.706-13.165-8.706s-10.915 3.417-13.165 8.706l-8.329 19.577-19.576 8.329c-5.289 2.25-8.706 7.418-8.706 13.165s3.418 10.914 8.706 13.164l19.577 8.329 8.329 19.576c2.25 5.289 7.417 8.706 13.165 8.706s10.915-3.417 13.165-8.706l8.329-19.576 19.577-8.329c5.288-2.25 8.705-7.417 8.706-13.164-.002-5.748-3.419-10.915-8.707-13.166zm-28.231 22.039c-1.785.759-3.206 2.181-3.965 3.965l-8.874 20.858-8.875-20.858c-.759-1.784-2.181-3.206-3.965-3.965l-20.858-8.874 20.858-8.875c1.784-.759 3.206-2.181 3.965-3.965l8.875-20.858 8.874 20.858c.759 1.785 2.181 3.206 3.965 3.965l20.858 8.875z"/><path d="m18.974 90.113 19.577 8.329 8.329 19.576c2.25 5.289 7.417 8.706 13.165 8.706s10.915-3.417 13.165-8.706l8.329-19.577 19.576-8.329c5.288-2.25 8.706-7.417 8.706-13.164 0-5.748-3.417-10.915-8.705-13.165l-19.577-8.329-8.329-19.576c-2.25-5.289-7.417-8.706-13.165-8.706s-10.915 3.417-13.165 8.706l-8.33 19.577-19.576 8.329c-5.288 2.25-8.706 7.417-8.706 13.165.001 5.747 3.418 10.914 8.706 13.164zm28.231-22.039c1.784-.759 3.206-2.181 3.965-3.965l8.875-20.858 8.875 20.858c.759 1.784 2.181 3.206 3.965 3.965l20.858 8.874-20.858 8.875c-1.784.759-3.206 2.181-3.965 3.965l-8.875 20.858-8.875-20.858c-.759-1.784-2.181-3.206-3.965-3.965l-20.858-8.875z"/><path d="m105.7 431.298-19.577-8.329-8.329-19.576c-2.25-5.289-7.417-8.706-13.165-8.706s-10.915 3.417-13.165 8.706l-8.329 19.577-19.576 8.329c-5.289 2.25-8.706 7.418-8.706 13.165s3.418 10.914 8.706 13.164l19.577 8.329 8.329 19.576c2.25 5.289 7.417 8.706 13.165 8.706s10.915-3.417 13.165-8.706l8.329-19.576 19.577-8.329c5.288-2.25 8.705-7.417 8.706-13.164-.002-5.748-3.419-10.915-8.707-13.166zm-28.231 22.039c-1.785.759-3.206 2.181-3.965 3.965l-8.874 20.858-8.875-20.858c-.759-1.784-2.181-3.206-3.965-3.965l-20.858-8.874 20.858-8.875c1.784-.759 3.206-2.181 3.965-3.965l8.875-20.858 8.874 20.858c.759 1.785 2.181 3.206 3.965 3.965l20.858 8.874z"/><path d="m417.724 83.497 19.577 8.329 8.329 19.577c2.25 5.288 7.417 8.705 13.165 8.705s10.915-3.417 13.165-8.705l8.329-19.577 19.576-8.329c5.289-2.25 8.706-7.417 8.706-13.165s-3.417-10.915-8.706-13.165l-19.577-8.329-8.329-19.576c-2.25-5.289-7.417-8.706-13.165-8.706s-10.915 3.417-13.165 8.706l-8.329 19.577-19.577 8.329c-5.288 2.25-8.705 7.417-8.705 13.165s3.417 10.914 8.706 13.164zm76.267-12.527 2.936-6.901zm-48.037-9.512c1.785-.759 3.206-2.181 3.965-3.965l8.874-20.858 8.875 20.858c.759 1.784 2.181 3.206 3.965 3.965l20.858 8.875-20.858 8.874c-1.785.759-3.206 2.181-3.965 3.965l-8.875 20.858-8.874-20.858c-.759-1.785-2.181-3.206-3.965-3.965l-20.858-8.874z"/><path d="m285.835 255.997c0-16.453-13.385-29.837-29.837-29.837s-29.837 13.385-29.837 29.837 13.385 29.837 29.837 29.837 29.837-13.385 29.837-29.837zm-44.675 0c0-8.181 6.656-14.837 14.837-14.837s14.837 6.656 14.837 14.837-6.656 14.837-14.837 14.837-14.837-6.656-14.837-14.837z"/></g></g></svg>