<svg id="Capa_1" enable-background="new 0 0 512 512" height="512" viewBox="0 0 512 512" width="512" xmlns="http://www.w3.org/2000/svg"><g><g><path d="m470.88 380.88c-34.12 58.6-91.52 101.97-159.54 117.43h-.01c-17.79 4.05-36.31 6.19-55.33 6.19-91.72 0-171.83-49.69-214.88-123.62h161.76c24.48 0 48.65 6.14 69.93 18.26 15.08 8.59 33.08 13.57 52.41 13.57s37.32-4.98 52.4-13.57c21.28-12.12 45.45-18.26 69.94-18.26z" fill="#e2e2e2"/><path d="m311.33 498.31c-17.79 4.05-36.31 6.19-55.33 6.19-91.72 0-171.83-49.69-214.88-123.62h110.67c34.13 58.59 91.53 101.96 159.54 117.43z" fill="#cecece"/><path d="m440.01 88.98-175.45 26.78-93.52-13.01-99.05-13.77c45.46-50.05 111.07-81.48 184.01-81.48 19 0 37.5 2.13 55.28 6.17.02.01.04.02.06.02 50.45 11.47 95.07 38.29 128.67 75.29z" fill="#e2e2e2"/><path d="m171.04 102.75-99.05-13.77c45.46-50.05 111.07-81.48 184.01-81.48 19 0 37.5 2.13 55.28 6.17.02.01.04.02.06.02-56.51 12.85-105.69 44.96-140.3 89.06z" fill="#cecece"/><path d="m504.5 256c0 6.44-.24 12.82-.72 19.13h-56.22c-24.49 0-48.66-6.14-69.94-18.25-15.08-8.59-33.07-13.58-52.4-13.58s-37.33 4.99-52.41 13.58c-21.28 12.11-45.45 18.25-69.93 18.25h-194.66c-.48-6.31-.72-12.69-.72-19.13 0-17.322 1.772-34.229 5.145-50.551 5.506-26.646 28.598-19.721 41.894-42.499h391.905c13.296 22.778 47.405 15.853 52.911 42.499 3.373 16.322 5.145 33.229 5.145 50.551z" fill="#e2e2e2"/><path d="m118.9 275.13h-110.68c-.48-6.31-.72-12.69-.72-19.13 0-17.322 1.772-34.229 5.145-50.551 5.506-26.646 32.177-34.834 45.473-57.611l100.327 25.037c-13.295 22.783-29.613 5.931-35.119 32.574-3.373 16.321-5.145 33.228-5.145 50.551-.001 6.44.239 12.82.719 19.13z" fill="#cecece"/><path d="m470.78 130.94-214.51 32.01-112.57-16.76-102.48-15.25c8.79-15.07 19.12-29.12 30.77-41.96h368.02c11.65 12.84 21.98 26.89 30.77 41.96z" fill="#fea95c"/><path d="m182.68 88.98c-15.51 17.07-28.67 36.31-38.98 57.21l-102.48-15.25c8.79-15.07 19.12-29.12 30.77-41.96z" fill="#fe9738"/><path d="m503.78 275.13c-2.92 38.34-14.55 74.25-32.9 105.75h-23.32c-24.49 0-48.66 6.14-69.94 18.26-15.08 8.59-33.07 13.57-52.4 13.57s-37.33-4.98-52.41-13.57c-21.28-12.12-45.45-18.26-69.93-18.26h-161.76c-18.35-31.5-29.98-67.41-32.9-105.75h194.66c24.48 0 48.65-6.14 69.93-18.25 15.08-8.59 33.08-13.58 52.41-13.58s37.32 4.99 52.4 13.58c21.28 12.11 45.45 18.25 69.94 18.25z" fill="#fea95c"/><path d="m118.9 275.13c2.92 38.34 14.54 74.24 32.89 105.75h-110.67c-18.35-31.5-29.98-67.41-32.9-105.75z" fill="#fe9738"/><path d="m499.35 205.45h-486.7c5.5-26.65 15.27-51.73 28.57-74.51h429.56c13.3 22.78 23.07 47.86 28.57 74.51z" fill="#e49280"/><path d="m123.33 205.45h-110.68c5.5-26.65 15.27-51.73 28.57-74.51h110.68c-13.3 22.78-23.07 47.86-28.57 74.51z" fill="#dd7f66"/><ellipse cx="326.128" cy="328.006" fill="#fe6c55" rx="69.859" ry="49.087"/><ellipse cx="211.973" cy="438.28" fill="#fea95c" rx="35.576" ry="25.57"/><ellipse cx="323.939" cy="77.53" fill="#fe6c55" rx="35.576" ry="25.57"/></g><g><path d="m485.323 142.097c-16.874-33.906-41.593-64.218-71.485-87.659-3.26-2.556-7.974-1.986-10.53 1.274-2.556 3.259-1.986 7.974 1.274 10.53 6.156 4.828 12.02 9.923 17.616 15.238h-55.485c.192-1.294.302-2.61.302-3.95 0-18.544-18.921-33.07-43.077-33.07-24.155 0-43.076 14.526-43.076 33.07 0 1.34.11 2.656.302 3.95h-191.366c45.008-42.916 103.794-66.48 166.202-66.48 42.403 0 84.106 11.169 120.602 32.301 3.585 2.075 8.172.852 10.249-2.732 2.075-3.585.852-8.173-2.733-10.249-38.777-22.453-83.079-34.32-128.118-34.32-68.379 0-132.666 26.629-181.019 74.982-48.352 48.352-74.981 112.639-74.981 181.018s26.629 132.666 74.981 181.018c48.353 48.353 112.64 74.982 181.019 74.982s132.666-26.629 181.019-74.982c48.352-48.352 74.981-112.639 74.981-181.018 0-40.011-8.975-78.333-26.677-113.903zm-470.323 113.903c0-14.592 1.302-28.983 3.824-43.05h474.344c2.521 14.057 3.832 28.448 3.832 43.05 0 3.892-.096 7.769-.278 11.63h-49.162c-23.477 0-46.379-5.971-66.228-17.267-16.726-9.527-36.128-14.563-56.112-14.563-19.99 0-39.396 5.036-56.12 14.561-19.852 11.297-42.75 17.269-66.221 17.269h-187.601c-.182-3.861-.278-7.738-.278-11.63zm308.938-196.54c15.219 0 28.077 8.275 28.077 18.07s-12.857 18.07-28.077 18.07c-15.219 0-28.076-8.275-28.076-18.07s12.858-18.07 28.076-18.07zm0 51.14c14.9 0 27.801-5.532 35.506-14.12h77.248c7.563 8.532 14.47 17.54 20.692 26.96h-327.934c-4.142 0-7.5 3.358-7.5 7.5s3.358 7.5 7.5 7.5h337.092c10.427 18.639 18.299 38.635 23.434 59.51h-467.969c5.13-20.838 13.026-40.821 23.501-59.51h48.942c4.142 0 7.5-3.358 7.5-7.5s-3.358-7.5-7.5-7.5h-39.794c6.216-9.399 13.129-18.404 20.706-26.96h213.071c7.704 8.588 20.605 14.12 35.505 14.12zm102.474 315.812c-45.52 45.519-106.04 70.588-170.412 70.588s-124.892-25.069-170.412-70.588c-11.741-11.741-22.109-24.486-31.05-38.032h148.342c23.475 0 46.373 5.974 66.218 17.277 16.714 9.521 36.121 14.553 56.123 14.553 19.995 0 39.398-5.032 56.106-14.55.962-.547 1.934-1.085 2.906-1.604 3.654-1.951 5.035-6.494 3.084-10.148-1.952-3.655-6.496-5.034-10.148-3.084-1.088.581-2.177 1.183-3.26 1.799-14.456 8.234-31.292 12.587-48.688 12.587-17.403 0-34.242-4.353-48.698-12.587-22.104-12.589-47.569-19.243-73.642-19.243h-157.472c-15.586-27.864-25.434-58.604-28.945-90.75h186.416c26.067 0 51.531-6.65 73.642-19.233 14.468-8.241 31.307-12.597 48.698-12.597 17.384 0 34.22 4.356 48.69 12.598 22.108 12.582 47.576 19.232 73.649 19.232h47.977c-3.512 32.146-13.36 62.886-28.945 90.75h-19.031c-12.275 0-24.49 1.476-36.305 4.388-4.022.991-6.479 5.055-5.488 9.077.843 3.419 3.906 5.707 7.276 5.707.594 0 1.198-.071 1.8-.219 10.642-2.623 21.649-3.952 32.716-3.952h9.901c-8.939 13.544-19.308 26.29-31.048 38.031z"/><path d="m379.838 287.159c-14.446-10.151-33.521-15.741-53.71-15.741s-39.264 5.59-53.71 15.741c-15.25 10.716-23.649 25.222-23.649 40.847 0 17.304 10.484 33.391 28.764 44.135 3.572 2.1 8.167.905 10.266-2.666s.906-8.167-2.666-10.266c-13.578-7.98-21.365-19.354-21.365-31.203 0-10.599 6.134-20.747 17.273-28.573 11.943-8.392 27.956-13.014 45.086-13.014s33.143 4.622 45.086 13.014c11.139 7.827 17.273 17.974 17.273 28.573 0 17.155-16.294 32.801-40.545 38.931-13.148 3.324-26.956.322-36.932-8.031-3.058-2.56-4.279-4.283-4.731-5.078-2.833-4.98-3.373-10.39-1.562-15.646 2.141-6.215 7.452-11.458 14.569-14.385 10.685-4.389 23.932-.678 28.928 8.105 1.418 2.492 1.692 5.188.793 7.798-1.118 3.243-3.958 6.006-7.792 7.581-3.832 1.574-5.662 5.956-4.088 9.787 1.573 3.832 5.954 5.663 9.787 4.088 7.822-3.212 13.754-9.252 16.275-16.57 2.311-6.707 1.623-13.847-1.938-20.103-8.828-15.519-29.764-21.915-47.667-14.561-11.104 4.565-19.505 13.084-23.049 23.373-3.209 9.315-2.248 19.24 2.709 27.954 1.719 3.018 4.381 6.013 8.138 9.158 10.024 8.392 22.808 12.854 35.94 12.854 4.758 0 9.562-.586 14.297-1.783 31.024-7.843 51.869-29.332 51.869-53.474 0-15.622-8.399-30.129-23.649-40.845z"/><path d="m211.973 405.21c-24.155 0-43.076 14.526-43.076 33.07s18.921 33.07 43.076 33.07 43.077-14.526 43.077-33.07-18.922-33.07-43.077-33.07zm0 51.14c-15.219 0-28.076-8.275-28.076-18.07s12.857-18.07 28.076-18.07 28.077 8.275 28.077 18.07-12.858 18.07-28.077 18.07z"/></g></g></svg>