<svg id="Capa_1" enable-background="new 0 0 512 512" height="512" viewBox="0 0 512 512" width="512" xmlns="http://www.w3.org/2000/svg"><g><g><path d="m291.438 281.407h-30v-134.091l30-131.885z" fill="#017297"/><path d="m504.5 372.829v109.11c0 12.42-10.07 22.49-22.49 22.49h-452.02c-12.42 0-22.49-10.07-22.49-22.49v-109.11c0-10.46 4.48-20.42 12.31-27.36 35.61-31.55 77.58-56.08 123.74-71.42 35.35-11.76 73.16-18.12 112.45-18.12 25.67 0 50.72 2.72 74.86 7.88 13.97 2.99 28.57 1.94 41.84-3.35 9.85-3.93 15.89-8.86 18.7-11.54 1.29-1.24 3.09-1.8 4.86-1.521 30.32 4.69 48.98 14.86 55.63 19.03 1.66 1.05 2.68 2.86 2.69 4.82.06 7.44 1.35 27.7 12.8 47.65 4.25 7.42 9.9 13.94 16.48 19.41 2.79 2.33 5.55 4.7 8.27 7.11 7.85 6.961 12.37 16.921 12.37 27.411z" fill="#ebebeb"/><path d="m105.98 504.429h-75.99c-12.42 0-22.49-10.07-22.49-22.49v-109.11c0-10.46 4.48-20.42 12.31-27.36 35.61-31.55 77.58-56.08 123.74-71.42-63.03 46.86-61.41 162.84-37.57 230.38z" fill="#e2e2e2"/><g><path d="m64.887 466.749c-18.13-13.234-22.1-38.659-8.866-56.789l15.343-21.02c13.234-18.13 38.659-22.1 56.789-8.866 18.13 13.234 22.1 38.659 8.866 56.789l-15.343 21.02c-13.233 18.13-38.659 22.099-56.789 8.866z" fill="#cecece"/></g><g><path d="m193.054 394.386c-18.13-13.234-22.1-38.659-8.866-56.789l15.343-21.02c13.234-18.13 38.659-22.1 56.789-8.866 18.13 13.233 22.1 38.659 8.866 56.789l-15.343 21.02c-13.233 18.13-38.659 22.1-56.789 8.866z" fill="#cecece"/></g><path d="m415.795 147.316h-154.357v-123.283c0-9.091 7.37-16.461 16.461-16.461h137.896c8.849 0 16.022 7.173 16.022 16.022v107.7c.001 8.848-7.173 16.022-16.022 16.022z" fill="#01d0fb"/><path d="m307.898 7.573c-9.09 0-16.46 7.37-16.46 16.46v123.29h-30v-123.29c0-9.09 7.37-16.46 16.46-16.46z" fill="#01c0fa"/><g><circle cx="349.15" cy="76.27" fill="#c8effe" r="46.455"/><g fill="#97da7b"><path d="m355 91.963c2.979 2.979 4.459 6.879 4.468 10.78s-1.489 7.801-4.459 10.77l-9.095 9.095c-10.78-.745-21.364-5.241-29.612-13.489l17.156-17.156c5.949-5.948 15.593-5.949 21.542 0z"/><path d="m381.996 43.426c1.946 1.946 3.677 4.012 5.204 6.191l-12.567 12.567c-2.979 2.979-6.879 4.459-10.77 4.459-3.901.009-7.801-1.489-10.78-4.468-5.948-5.948-5.948-15.593 0-21.541l8.983-8.983c7.298 2.103 14.186 6.031 19.93 11.775z"/></g></g><g><path d="m142.962 55.499c6.703 6.703 25.71-7.764 29.776.262 12.898 25.413 12.558 55.819-1.032 80.964-.007.007-.007.007-.007.021-3.931 7.283-8.973 14.121-15.118 20.266-27.4 27.4-68.469 32.789-101.251 16.157-8.026-4.066-8.803-37.866-15.507-44.569-15.677-15.677-30.894-7.418-32.152-27.938-1.491-24.12 6.98-48.727 25.407-67.154 6.138-6.138 12.961-11.165 20.216-15.097.028 0 .05-.021.071-.028 28.709-15.514 64.269-13.767 91.436 5.24 4.137 2.891-5.537 28.177-1.839 31.876z" fill="#c8effe"/><path d="m171.706 136.724c-.007.007-.007.007-.007.021-3.931 7.283-8.973 14.121-15.118 20.266-27.4 27.4-68.469 32.789-101.251 16.157-8.026-4.066-8.803-37.866-15.507-44.569-15.677-15.677-30.894-7.418-32.152-27.938-1.491-24.119 6.98-48.726 25.407-67.153 6.138-6.138 12.961-11.165 20.216-15.097.028 0 .05-.021.071-.028-17.876 33.078-12.834 75.271 15.118 103.223s70.145 32.994 103.223 15.118z" fill="#99e6fc"/><path d="m64.855 73.53c8.294 8.294 8.294 21.744 0 30.038l-.502.502c-2.121 2.121-3.698 4.575-4.731 7.191-.997 2.51-1.499 5.162-1.492 7.828-.007 5.438 2.072 10.868 6.215 15.012 8.301 8.301 8.301 21.751.007 30.045l-9.023 9.023c-8.026-4.066-15.549-9.454-22.253-16.157-15.677-15.677-24.141-35.836-25.406-56.349l27.139-27.139c2.475-2.475 5.395-4.207 8.514-5.19 2.107-.679 4.306-1.025 6.505-1.018 5.439-.009 10.877 2.063 15.027 6.214z" fill="#97da7b"/><path d="m43.324 68.333c1.464 15.182 6.901 30.052 16.299 42.928-.997 2.51-1.499 5.162-1.492 7.828-.007 5.438 2.072 10.868 6.215 15.012 8.301 8.301 8.301 21.751.007 30.045l-9.023 9.023c-8.026-4.066-15.549-9.454-22.253-16.157-15.677-15.677-24.141-35.836-25.406-56.349l27.139-27.139c2.475-2.476 5.396-4.209 8.514-5.191z" fill="#80d261"/><path d="m156.582 33.508c6.703 6.703 12.091 14.227 16.157 22.253l-23.327 23.327c-8.294 8.294-21.744 8.294-30.045-.007-4.144-4.144-6.222-9.574-6.215-15.012-.007-5.438 2.079-10.875 6.223-15.019l25.428-25.428c4.142 2.9 8.081 6.188 11.779 9.886z" fill="#97da7b"/></g><g fill="#e2e2e2"><ellipse cx="361.144" cy="385.175" rx="41.334" ry="28.006"/><ellipse cx="431.818" cy="437.693" rx="24.183" ry="16.385"/></g></g><g><path d="m132.575 374.015c-10.386-7.581-23.104-10.665-35.809-8.681-12.706 1.984-23.878 8.796-31.459 19.183l-15.343 21.021c-7.582 10.387-10.665 23.104-8.681 35.81s8.796 23.878 19.183 31.459c8.331 6.081 18.16 9.268 28.281 9.267 2.498 0 5.014-.194 7.529-.586 12.706-1.984 23.878-8.796 31.459-19.183l15.343-21.021c7.581-10.387 10.664-23.104 8.68-35.81-1.984-12.705-8.797-23.877-19.183-31.459zm-28.34 5.756c6.778 0 13.615 2.068 19.497 6.361 7.775 5.675 12.35 14.126 13.369 23.01l-39.35-28.722c2.133-.423 4.304-.649 6.484-.649zm-21.738 8.086 52.162 38.074c-.966 2.258-2.189 4.444-3.697 6.51l-3.25 4.452-53.539-39.079 3.25-4.452c1.507-2.067 3.218-3.897 5.074-5.505zm-13.188 72.834c-7.151-5.219-11.841-12.91-13.207-21.657-.071-.455-.127-.91-.179-1.365l39.392 28.753c-.449.089-.9.174-1.355.245-8.746 1.366-17.501-.756-24.651-5.976zm41.243-1.719-52.178-38.085c.978-2.273 2.209-4.457 3.704-6.504l3.25-4.452 53.539 39.079-3.25 4.452c-1.494 2.047-3.197 3.886-5.065 5.51z"/><path d="m497.104 339.807c-2.897-2.567-5.74-5.011-8.451-7.265-1.917-1.593-3.701-3.244-5.302-4.905-2.872-2.982-7.62-3.073-10.604-.198-2.983 2.874-3.072 7.622-.198 10.604 1.983 2.059 4.177 4.09 6.517 6.034 2.589 2.152 5.311 4.493 8.089 6.955 6.257 5.547 9.846 13.493 9.846 21.798v109.11c0 8.266-6.725 14.99-14.99 14.99h-452.021c-8.266 0-14.99-6.725-14.99-14.99v-109.11c0-8.309 3.566-16.236 9.784-21.747 63.788-56.523 145.903-87.653 231.216-87.653 24.687 0 49.346 2.596 73.291 7.714 15.695 3.359 31.67 2.07 46.188-3.728 10.347-4.128 17.058-9.356 20.461-12.475 27.329 4.342 44.394 13.218 51.152 17.34.126 6.686 1.125 19.088 5.99 33.134 1.355 3.913 5.626 5.988 9.542 4.632 3.914-1.356 5.987-5.628 4.632-9.542-4.575-13.207-5.145-24.897-5.177-29.292-.022-4.53-2.334-8.688-6.199-11.132-7.015-4.41-26.757-15.197-58.45-20.089-4.065-.642-8.265.673-11.206 3.5-2.348 2.239-7.588 6.514-16.306 9.993-11.746 4.691-24.706 5.726-37.491 2.99-11.039-2.359-22.222-4.203-33.487-5.528v-96.127h30.189c4.143 0 7.5-3.358 7.5-7.5s-3.357-7.5-7.5-7.5h-60.189v-115.79c0-4.94 4.02-8.96 8.96-8.96h137.9c4.698 0 8.521 3.822 8.521 8.52v107.7c0 4.703-3.822 8.53-8.521 8.53h-51.67c-4.143 0-7.5 3.358-7.5 7.5s3.357 7.5 7.5 7.5h51.67c12.97 0 23.521-10.555 23.521-23.53v-107.7c0-12.969-10.551-23.52-23.521-23.52h-137.9c-13.212 0-23.96 10.749-23.96 23.96v123.289.001 101.134c-88.243.498-173.084 32.901-239.105 91.404-9.428 8.356-14.835 20.374-14.835 32.972v109.11c0 16.537 13.454 29.99 29.99 29.99h452.02c16.537 0 29.99-13.454 29.99-29.99v-109.11c0-12.594-5.429-24.63-14.896-33.023zm-213.164-184.987v94.679c-4.991-.38-9.993-.657-15-.833v-93.846z"/><path d="m260.742 301.653c-10.387-7.582-23.102-10.664-35.81-8.681-12.705 1.984-23.877 8.796-31.459 19.183l-15.342 21.02c-7.582 10.387-10.665 23.104-8.681 35.81s8.796 23.878 19.183 31.459c8.331 6.081 18.16 9.268 28.281 9.268 2.498 0 5.014-.194 7.529-.587 12.705-1.984 23.877-8.796 31.459-19.183l15.343-21.02c7.582-10.387 10.664-23.104 8.681-35.81-1.985-12.705-8.798-23.878-19.184-31.459zm-28.313 5.736c6.966 0 13.734 2.194 19.469 6.38 7.776 5.675 12.351 14.126 13.369 23.01l-39.376-28.741c.449-.089.9-.174 1.355-.246 1.732-.27 3.463-.403 5.183-.403zm-21.774 8.099 52.171 38.08c-.966 2.258-2.189 4.444-3.697 6.51l-3.25 4.452-53.54-39.08 3.249-4.452c1.495-2.047 3.199-3.886 5.067-5.51zm-13.179 72.841c-7.151-5.22-11.841-12.911-13.207-21.658-.071-.455-.127-.91-.179-1.365l39.393 28.753c-.449.089-.9.174-1.355.246-8.745 1.364-17.502-.757-24.652-5.976zm41.243-1.72-52.178-38.085c.978-2.273 2.209-4.457 3.704-6.504l3.249-4.452 53.54 39.079-3.25 4.452c-1.493 2.047-3.197 3.886-5.065 5.51z"/><path d="m387.303 38.118c-10.191-10.191-23.741-15.803-38.152-15.803-14.412 0-27.961 5.612-38.151 15.803-10.191 10.19-15.804 23.74-15.804 38.152s5.612 27.961 15.803 38.152c10.52 10.52 24.334 15.777 38.152 15.777 13.814 0 27.635-5.26 38.152-15.777 21.037-21.038 21.037-55.267 0-76.304zm-10.223 11.011-7.75 7.75c-1.46 1.459-3.401 2.263-5.485 2.263-.007 0-.013 0-.019 0-2.044 0-3.976-.806-5.44-2.272-3.015-3.015-3.015-7.92-.001-10.935l5.677-5.677c4.667 1.933 8.954 4.786 12.633 8.465.133.133.255.272.385.406zm-27.375 59.081-6.531 6.531c-5.54-.854-10.927-2.899-15.747-6.14l11.336-11.335c3.014-3.014 7.92-3.014 10.934 0 1.46 1.46 2.267 3.412 2.271 5.496.005 2.049-.798 3.984-2.263 5.448zm15.378 3.6c1.234-2.833 1.893-5.906 1.885-9.084-.014-6.076-2.38-11.781-6.665-16.066-8.863-8.862-23.285-8.861-32.146 0l-11.344 11.343c-4.302-6.372-6.616-13.874-6.616-21.733 0-10.405 4.052-20.188 11.41-27.545 6.592-6.592 15.131-10.52 24.32-11.269-6.94 8.911-6.334 21.833 1.853 30.021 4.3 4.3 9.996 6.666 16.029 6.666h.055c6.072 0 11.78-2.363 16.074-6.656l5.461-5.461c5.472 13.982 2.576 30.511-8.701 41.79-3.454 3.452-7.402 6.11-11.615 7.994z"/><path d="m26.148 149.719c3.451-2.291 4.392-6.945 2.101-10.396-7.302-11-11.522-23.32-12.792-35.833l24.661-24.661c2.593-2.593 6.043-4.021 9.709-4.021 3.676.002 7.128 1.432 9.722 4.025 5.358 5.358 5.359 14.075.003 19.431l-.5.5c-5.434 5.434-8.423 12.653-8.418 20.319-.005 7.675 2.983 14.893 8.415 20.325 5.358 5.358 5.358 14.076 0 19.434l-5.035 5.035c-1.092-.651-2.175-1.326-3.244-2.035-3.451-2.291-8.106-1.35-10.396 2.101-2.291 3.451-1.351 8.105 2.101 10.396 15.894 10.551 34.099 15.705 52.223 15.705 24.529 0 48.908-9.443 67.188-27.729 17.914-17.909 27.78-41.722 27.78-67.054s-9.866-49.145-27.778-67.053c-17.909-17.914-41.723-27.78-67.054-27.78s-49.145 9.866-67.052 27.778c-31.803 31.787-36.86 82.007-12.031 119.412 2.291 3.451 6.947 4.392 10.397 2.101zm137.313-95.292-19.355 19.355c-5.358 5.357-14.076 5.357-19.435 0-2.593-2.593-4.021-6.043-4.021-9.719-.002-3.665 1.427-7.114 4.025-9.712l20.803-20.804c2.004 1.651 3.94 3.406 5.8 5.266 4.75 4.75 8.825 9.994 12.183 15.614zm-125.077-15.615c15.076-15.08 35.122-23.385 56.446-23.385 13.481 0 26.448 3.328 37.975 9.581l-18.737 18.737c-5.434 5.434-8.423 12.653-8.418 20.323 0 7.677 2.988 14.894 8.415 20.32 5.604 5.604 12.964 8.405 20.324 8.405s14.721-2.802 20.324-8.405l15.5-15.5c2.92 8.365 4.451 17.249 4.451 26.37 0 21.324-8.305 41.371-23.387 56.448-21.99 21.998-54.45 28.781-82.792 18.91l1.17-1.169c11.207-11.207 11.207-29.44 0-40.647-2.596-2.596-4.024-6.044-4.022-9.719-.002-3.665 1.427-7.114 4.025-9.712l.5-.5c11.205-11.206 11.203-29.438-.003-40.644-5.424-5.424-12.64-8.414-20.323-8.418-7.677 0-14.894 2.988-20.32 8.415l-13.254 13.252c2.759-15.747 10.204-30.744 22.126-42.662z"/><path d="m361.145 349.669c-27.384 0-48.834 15.596-48.834 35.505s21.45 35.506 48.834 35.506c27.383 0 48.833-15.596 48.833-35.506s-21.451-35.505-48.833-35.505zm0 56.012c-18.34 0-33.834-9.391-33.834-20.506s15.494-20.505 33.834-20.505 33.833 9.39 33.833 20.505-15.494 20.506-33.833 20.506z"/><path d="m431.817 461.579c17.767 0 31.684-10.492 31.684-23.885s-13.917-23.885-31.684-23.885-31.684 10.492-31.684 23.885 13.918 23.885 31.684 23.885zm0-32.771c7.875 0 16.684 3.8 16.684 8.885s-8.809 8.885-16.684 8.885-16.684-3.8-16.684-8.885 8.809-8.885 16.684-8.885z"/></g></g></svg>