<svg id="Capa_1" enable-background="new 0 0 512.001 512.001" height="512" viewBox="0 0 512.001 512.001" width="512" xmlns="http://www.w3.org/2000/svg"><g><g><path d="m484.647 504.501h-457.293c-22.04 0-27.637-30.599-7.025-38.39 53.08-20.055 109.388-33.536 167.937-39.447h.058c22.249-2.253 44.835-3.402 67.677-3.402 82.97 0 162.398 15.166 235.672 42.849 20.611 7.792 15.014 38.39-7.026 38.39z" fill="#e49280"/><path d="m188.324 426.664s-59.954 18.348-67.096 77.837h-93.874c-22.04 0-27.637-30.599-7.025-38.39 53.08-20.055 109.388-33.536 167.937-39.447z" fill="#dd7f66"/><g><path d="m371.755 74.351h-231.509c-29.439 0-54.284 21.895-57.985 51.101l-10.957 86.462c-4.425 34.918 22.789 65.797 57.985 65.797h253.422c35.197 0 62.41-30.88 57.985-65.797l-10.957-86.462c-3.7-29.206-28.545-51.101-57.984-51.101z" fill="#01d0fb"/><path d="m163.051 277.712h-33.76c-35.2 0-62.41-30.88-57.98-65.8l10.95-86.46c3.7-29.21 28.55-51.1 57.99-51.1h33.76c-29.44 0-54.28 21.89-57.98 51.1l-10.96 86.46c-4.43 34.92 22.79 65.8 57.98 65.8z" fill="#01c0fa"/><path d="m440.697 226.914h-369.393c-8.284 0-15-6.716-15-15s6.716-15 15-15h369.393c8.284 0 15 6.716 15 15s-6.716 15-15 15z" fill="#ebebeb"/><path d="m119.694 226.914h-48.39c-8.28 0-15-6.71-15-15 0-8.28 6.72-15 15-15h48.39c-8.29 0-15 6.72-15 15 0 8.29 6.71 15 15 15z" fill="#e2e2e2"/><path d="m176.603 290.789-67.478 31.226c-6.733 3.116-11.744 9.05-13.688 16.21l-29.847 109.938 38.949-11.618 28.58-55.932c3.176-6.215 9.097-10.569 15.977-11.746l47.058-8.055z" fill="#ebebeb"/><path d="m180.797 305.796-53.47 24.74c-6.73 3.11-11.75 9.05-13.69 16.21l-25.73 94.76-22.32 6.66 29.85-109.94c1.94-7.16 6.95-13.09 13.69-16.21l67.48-31.22z" fill="#cecece"/><path d="m335.398 290.789 67.478 31.226c6.733 3.116 11.744 9.05 13.688 16.21l29.847 109.938-38.949-11.618-28.58-55.932c-3.176-6.215-9.097-10.569-15.977-11.746l-47.058-8.055z" fill="#ebebeb"/><path d="m375.203 118.911v79.21c0 6.25-2.49 12.25-6.91 16.67l-56.01 56.02c-4.42 4.42-10.42 6.9-16.67 6.9h-79.22c-6.25 0-12.25-2.48-16.67-6.9l-56.01-56.02c-4.43-4.42-6.91-10.42-6.91-16.67v-79.21c0-6.26 2.48-12.25 6.91-16.67l56.01-56.02c4.42-4.42 10.42-6.9 16.67-6.9h79.22c6.25 0 12.25 2.48 16.67 6.9l56.01 56.02c4.42 4.42 6.91 10.41 6.91 16.67z" fill="#fef056"/><path d="m230.653 270.811c4.42 4.42 10.42 6.9 16.67 6.9h-30.93c-6.25 0-12.25-2.48-16.67-6.9l-56.01-56.02c-4.43-4.42-6.91-10.42-6.91-16.67v-79.21c0-6.26 2.48-12.25 6.91-16.67l56.01-56.02c4.42-4.42 10.42-6.9 16.67-6.9h30.93c-6.25 0-12.25 2.48-16.67 6.9l-56.01 56.02c-4.43 4.42-6.91 10.41-6.91 16.67v79.21c0 6.25 2.48 12.25 6.91 16.67z" fill="#ffd15b"/><path d="m375.203 118.911v57.4l-119.2 21.06-88.27-15.6-30.93-5.46v-57.4c0-6.26 2.48-12.25 6.91-16.67l24.71 11.01 87.58 39.01 112.29-50.02c4.42 4.42 6.91 10.41 6.91 16.67z" fill="#017297"/><path d="m168.423 113.251c-.46 1.84-.69 3.73-.69 5.66v62.86l-30.93-5.46v-57.4c0-6.26 2.48-12.25 6.91-16.67z" fill="#025f80"/><path d="m315.847 265.199-19.222-244.75c-.574-7.309-6.673-12.948-14.004-12.948h-53.24c-7.332 0-13.43 5.638-14.004 12.948l-19.222 244.75" fill="#fea95c"/><path d="m255.636 7.499c-7.33 0-13.43 5.64-14 12.95l-19.22 244.75h-26.26l19.22-244.75c.57-7.31 6.67-12.95 14-12.95h26.26z" fill="#fe9738"/><path d="m315.847 360.813h-119.693c-10.798 0-19.551-8.753-19.551-19.551v-56.512c0-10.798 8.753-19.551 19.551-19.551h119.693c10.798 0 19.551 8.753 19.551 19.551v56.511c0 10.798-8.753 19.552-19.551 19.552z" fill="#fef056"/><path d="m224.303 360.812h-28.15c-10.8 0-19.55-8.75-19.55-19.55v-56.51c0-10.8 8.75-19.55 19.55-19.55h28.15c-10.79 0-19.55 8.75-19.55 19.55v56.51c0 10.8 8.76 19.55 19.55 19.55z" fill="#ffd15b"/><path d="m65.584 463.167c-6.461 0-12.427-4.208-14.368-10.716-2.368-7.938 2.148-16.294 10.086-18.662l53.007-15.812c7.938-2.369 16.293 2.147 18.662 10.086 2.368 7.938-2.148 16.294-10.086 18.662l-53.007 15.812c-1.43.427-2.875.63-4.294.63z" fill="#01d0fb"/><path d="m446.417 463.167c6.461 0 12.427-4.208 14.368-10.716 2.368-7.938-2.148-16.294-10.086-18.662l-53.007-15.812c-7.938-2.369-16.293 2.147-18.662 10.086-2.368 7.938 2.148 16.294 10.086 18.662l53.007 15.812c1.43.427 2.875.63 4.294.63z" fill="#01d0fb"/><path d="m256.001 291.476c-10.298 0-18.645 8.348-18.645 18.645v155.462h37.29v-155.462c0-10.298-8.348-18.645-18.645-18.645z" fill="#ebebeb"/><path d="m283.546 478.881h-55.092c-8.284 0-15-6.716-15-15s6.716-15 15-15h55.092c8.284 0 15 6.716 15 15s-6.715 15-15 15z" fill="#01d0fb"/></g></g><path d="m494.321 459.095c-8.383-3.167-16.93-6.191-25.49-9.037.375-4.331-.511-8.68-2.625-12.593-2.858-5.288-7.604-9.145-13.362-10.863l-4.906-1.463-24.135-88.879c-2.525-9.319-9.005-16.993-17.779-21.055l-63.124-29.209v-.785h39.812c31.098 0 57.844-21.878 64.41-51.739 9.287-2.771 16.078-11.385 16.078-21.561 0-10.772-7.61-19.795-17.735-21.987l-6.085-48.056c-.52-4.109-4.279-7.023-8.382-6.499-4.109.52-7.019 4.273-6.499 8.382l5.781 45.659h-47.579v-70.5c0-8.297-3.234-16.101-9.107-21.973l-15.083-15.087h13.24c19.94 0 38.154 11.722 46.402 29.864 1.257 2.764 3.981 4.398 6.832 4.398 1.038 0 2.093-.217 3.1-.674 3.771-1.714 5.438-6.161 3.724-9.932-10.676-23.482-34.25-38.656-60.058-38.656h-28.237l-25.927-25.932c-3.49-3.49-7.773-6.083-12.43-7.586l-1.058-13.465c-.87-11.14-10.304-19.867-21.478-19.867h-53.24c-11.174 0-20.608 8.727-21.477 19.863l-1.058 13.468c-4.654 1.503-8.935 4.096-12.427 7.588l-25.928 25.932h-28.248c-33.132 0-61.257 24.788-65.42 57.657l-8.294 65.417c-10.122 2.195-17.729 11.217-17.729 21.986 0 10.173 6.789 18.787 16.072 21.56 6.566 29.862 33.316 51.74 64.42 51.74h39.808v.787l-63.133 29.209c-8.757 4.06-15.235 11.73-17.773 21.049l-24.127 88.881-4.909 1.464c-5.759 1.718-10.505 5.575-13.363 10.863-2.115 3.913-3 8.262-2.625 12.593-8.561 2.846-17.108 5.871-25.492 9.038-14.718 5.564-19.248 19.317-17.209 30.478 2.039 11.164 11.142 22.428 26.882 22.428h457.3c15.74 0 24.843-11.264 26.882-22.428 2.038-11.161-2.492-24.914-17.212-30.478zm-41.312-14.498c.953 1.762 1.162 3.79.589 5.71-.941 3.156-3.895 5.36-7.181 5.36-.722 0-1.444-.106-2.149-.317l-53.007-15.812c-1.919-.573-3.501-1.858-4.454-3.621-.953-1.762-1.162-3.79-.589-5.709.573-1.92 1.859-3.502 3.622-4.455 1.11-.6 2.327-.905 3.555-.905.72 0 1.445.105 2.154.317l53.007 15.812c1.919.572 3.501 1.857 4.453 3.62zm-53.287-115.78c4.739 2.194 8.239 6.336 9.603 11.369l21.699 79.907-27.774-8.285-17.691-34.616c-4.242-8.284-12.242-14.159-21.39-15.714l-26.319-4.508c3.174-4.432 5.05-9.854 5.05-15.709v-38.737zm-259.64 96.887c-1.75-5.66-5.567-10.326-10.787-13.147-1.08-.583-2.2-1.05-3.337-1.447l13.845-27.089c2.087-4.088 6.03-6.988 10.556-7.757l46.433-7.953h33.064v47.955c-14.098.537-28.214 1.51-42.067 2.911-.091.006-.182.013-.272.022-15.809 1.597-31.727 3.784-47.435 6.505zm127.064-58.562c-3.383-1.601-7.16-2.5-11.145-2.5s-7.762.899-11.145 2.5v-57.021c0-6.146 5-11.145 11.145-11.145s11.145 5 11.145 11.145zm-29.791 89.239h37.29 8.901c4.136 0 7.5 3.364 7.5 7.5s-3.364 7.5-7.5 7.5h-55.092c-4.136 0-7.5-3.364-7.5-7.5s3.364-7.5 7.5-7.5zm29.791-15h-22.29v-50.595c0-6.146 5-11.145 11.145-11.145s11.145 5 11.145 11.145zm-11.146-157.405c-14.417 0-26.145 11.729-26.145 26.145v43.19h-33.705c-6.644 0-12.05-5.406-12.05-12.05v-56.51c0-6.644 5.406-12.05 12.05-12.05h119.7c6.644 0 12.05 5.406 12.05 12.05v56.51c0 6.644-5.406 12.05-12.05 12.05h-33.705v-43.19c.001-14.417-11.728-26.145-26.145-26.145zm109.898-172.459c1.175 2.259 1.805 4.778 1.805 7.394v51.108l-51.098 9.028-3.46-44.032zm-2.909 97.971-40.788 40.795-4.417-56.212 49.918-8.819v12.869c.001 4.228-1.717 8.371-4.713 11.367zm19.723 60.723h-44.07c-1.945-3.038-4.477-5.664-7.44-7.714l28.08-28.085h72.086c-6.51 20.904-26.098 35.799-48.656 35.799zm57.989-50.8h-66.456c3.93-4.182 6.629-9.416 7.798-15h58.657c4.136 0 7.5 3.364 7.5 7.5s-3.364 7.5-7.499 7.5zm-133.722-167.888 48.296 48.305-43.376 19.321-5.344-68.015c.14.131.288.253.424.389zm-84.122-30.489c.265-3.384 3.13-6.034 6.523-6.034h53.24c3.394 0 6.259 2.65 6.523 6.038l18.595 236.664h-103.475l1.244-15.834c.324-4.129-2.76-7.74-6.89-8.064-4.11-.326-7.74 2.759-8.064 6.89l-.753 9.587-40.79-40.798c-3.035-3.029-4.707-7.063-4.707-11.361v-12.868l49.918 8.819-.927 11.8c-.324 4.129 2.76 7.74 6.89 8.064 4.139.327 7.741-2.76 8.064-6.89zm-78.554 97.877c0-2.619.629-5.136 1.802-7.393l52.754 23.499-3.458 44.031-51.098-9.028zm60.723-67.387c.135-.135.281-.256.421-.386l-5.342 68.012-43.376-19.32zm-64.783 30.327h13.251l-15.078 15.081c-5.876 5.863-9.112 13.669-9.112 21.979v70.5h-47.59l7.99-63.018c3.215-25.393 24.943-44.542 50.539-44.542zm-68.943 122.56h58.639c1.146 5.604 3.824 10.77 7.818 15h-66.457c-4.136 0-7.5-3.364-7.5-7.5s3.365-7.5 7.5-7.5zm9.328 30h72.095l28.078 28.084c-2.964 2.05-5.497 4.677-7.442 7.716h-44.066c-22.563 0-42.155-14.895-48.665-35.8zm22.041 105.781c1.372-5.035 4.874-9.182 9.603-11.375l56.829-26.292v38.736c0 5.855 1.876 11.277 5.05 15.709l-26.315 4.507c-9.165 1.559-17.163 7.437-21.391 15.721l-17.688 34.609-27.776 8.286zm-43.677 104.405c.952-1.763 2.534-3.048 4.454-3.621l53.008-15.812c.709-.211 1.433-.316 2.153-.316 1.228 0 2.444.305 3.555.905 1.763.953 3.049 2.535 3.622 4.455.573 1.919.363 3.947-.589 5.709-.952 1.763-2.534 3.048-4.454 3.621l-53.008 15.812c-.704.21-1.427.316-2.148.316-3.287 0-6.24-2.204-7.181-5.36-.574-1.919-.364-3.947.588-5.709zm437.784 42.28c-.894 4.894-4.549 10.124-12.126 10.124h-457.3c-7.577 0-11.232-5.229-12.126-10.124-.894-4.892.675-11.073 7.756-13.75 8.698-3.286 17.576-6.411 26.46-9.34 4.157 4.276 9.951 6.88 16.143 6.88 2.176 0 4.342-.317 6.438-.943l53.006-15.812c5.759-1.718 10.505-5.575 13.363-10.863.351-.649.666-1.311.95-1.982 16.354-2.919 32.967-5.25 49.462-6.922.092-.006.184-.013.275-.022 13.426-1.362 27.108-2.292 40.778-2.824v10.082h-1.401c-12.407 0-22.5 10.093-22.5 22.5s10.093 22.5 22.5 22.5h55.092c12.407 0 22.5-10.093 22.5-22.5s-10.093-22.5-22.5-22.5h-1.401v-10.106c8.736.339 17.588.856 26.416 1.552.201.016.399.023.598.023 3.875 0 7.159-2.982 7.469-6.911.325-4.129-2.758-7.741-6.888-8.066-9.222-.727-18.47-1.26-27.594-1.606v-47.956h33.058l46.442 7.954c4.517.768 8.465 3.671 10.559 7.759l13.842 27.085c-1.138.397-2.259.863-3.341 1.448-5.218 2.82-9.034 7.483-10.784 13.139-9.084-1.572-18.138-2.955-27.01-4.113-4.105-.531-7.872 2.359-8.408 6.466s2.358 7.872 6.466 8.408c9.74 1.272 19.707 2.829 29.69 4.608.284.672.6 1.334.951 1.985 2.858 5.288 7.604 9.145 13.362 10.863l53.006 15.811c2.097.626 4.263.943 6.438.943 6.192 0 11.986-2.604 16.143-6.88 8.884 2.929 17.762 6.055 26.459 9.34 7.083 2.677 8.651 8.858 7.757 13.75z"/></g></svg>