<svg id="Capa_1" enable-background="new 0 0 512.011 512.011" height="512" viewBox="0 0 512.011 512.011" width="512" xmlns="http://www.w3.org/2000/svg"><g><g><path d="m301.945 400.889c-22.821 0-41.814 16.347-45.936 37.967-4.122-21.621-23.115-37.967-45.936-37.967-25.834 0-46.776 20.942-46.776 46.777 0 25.834 20.943 46.776 46.776 46.776 22.821 0 41.814-16.347 45.936-37.967 4.122 21.621 23.115 37.967 45.936 37.967 25.834 0 46.776-20.943 46.776-46.776.001-25.834-20.942-46.777-46.776-46.777z" fill="#99e6fc"/><g fill="#fea95c"><path d="m494.792 171.539-13.495-6.178c-9.588-4.389-20.788 1.133-23.146 11.411l-75.15 327.666h81.166l40.206-315.666c.92-7.221-2.962-14.202-9.581-17.233z"/><path d="m17.226 171.539 13.495-6.178c9.588-4.389 20.788 1.133 23.146 11.411l75.15 327.666h-81.166l-40.206-315.666c-.92-7.221 2.961-14.202 9.581-17.233z"/></g><path d="m359.74 431.469c-16.985 0-31.851 9.068-40.029 22.614-3.899-1.42-8.108-2.199-12.497-2.199-8.399 0-16.133 2.84-22.302 7.601l11.63-152.5h-81.067l11.63 152.507c-6.171-4.766-13.906-7.608-22.302-7.608-4.399 0-8.598.78-12.497 2.199-8.188-13.546-23.054-22.614-40.029-22.614-25.813 0-46.737 20.924-46.737 46.737 0 9.727 2.969 18.755 8.048 26.233h284.841c5.079-7.478 8.048-16.505 8.048-26.233 0-25.813-20.924-46.737-46.737-46.737z" fill="#c8effe"/><path d="m151.438 478.206c0 9.727 2.969 18.755 8.048 26.233h-45.897c-5.079-7.478-8.048-16.505-8.048-26.233 0-25.813 20.924-46.737 46.737-46.737 8.328 0 16.155 2.189 22.934 6.018-14.197 8.028-23.774 23.253-23.774 40.719z" fill="#99e6fc"/><g><path d="m313.67 66.796-57.659 11.794-57.667-11.793c11.138-23.756 29.289-44.115 52.761-57.889 3.025-1.78 6.778-1.78 9.811 0 23.473 13.782 41.624 34.132 52.754 57.888z" fill="#fe7c66"/><path d="m256.014 78.589-57.671-11.793c11.138-23.756 29.289-44.115 52.761-57.889 1.513-.89 3.211-1.335 4.902-1.335-.663 0-1.302.445-1.893 1.335-9.092 13.775-16.112 34.134-20.424 57.889z" fill="#fe6c55"/><path d="m317.787 317.106 28.429 43.907c1.762 2.721 4.783 4.364 8.024 4.364h17.268c5.821 0 10.291-5.158 9.462-10.92l-9.659-67.188c-1.318-9.168-7.64-16.834-16.389-19.875l-41.81-14.529h-114.207l-41.81 14.529c-8.749 3.04-15.071 10.707-16.389 19.875l-9.659 67.188c-.828 5.762 3.641 10.92 9.462 10.92h17.268c3.242 0 6.263-1.643 8.024-4.364l28.429-43.907z" fill="#01d0fb"/><path d="m325.98 129.523-9.164 180.714c-.744 14.592-12.788 26.037-27.404 26.037h-66.811c-14.608 0-26.652-11.445-27.396-26.037l-9.164-180.714c-.113-2.249-.17-4.489-.17-6.721 0-19.655 4.376-38.728 12.473-56.005h115.326c9.018 19.242 13.426 40.717 12.31 62.726z" fill="#ebebeb"/><path d="m243.081 336.274h-20.48c-14.608 0-26.652-11.445-27.396-26.037l-9.164-180.714c-.113-2.249-.17-4.489-.17-6.721 0-19.655 4.376-38.728 12.473-56.005h35.347c-3.138 17.277-4.829 36.35-4.829 56.005 0 2.232.024 4.473.065 6.721l3.551 180.714c.282 14.592 4.949 26.037 10.603 26.037z" fill="#e2e2e2"/><path d="m256.009 365.376c-7.788 0-14.101-6.313-14.101-14.101v-88.584c0-7.788 6.313-14.101 14.101-14.101 7.788 0 14.101 6.313 14.101 14.101v88.584c0 7.788-6.314 14.101-14.101 14.101z" fill="#01d0fb"/></g><g fill="#017297"><circle cx="255.942" cy="125.523" r="22.905"/><circle cx="255.942" cy="198.828" r="22.905"/></g></g><g><path d="m497.918 164.722-13.497-6.179c-6.636-3.037-14.192-2.927-20.734.301-6.538 3.226-11.219 9.15-12.842 16.249l-59.432 259.121c-8.917-6.439-19.852-10.249-31.666-10.249-2.905 0-5.78.255-8.608.716-8.823-18.964-27.816-31.294-49.19-31.294-1.502 0-2.999.069-4.49.192l3.955-51.917c6.388-2.308 11.834-6.381 15.816-11.611l22.684 35.022c3.15 4.887 8.508 7.804 14.33 7.804h17.266c4.95 0 9.649-2.146 12.891-5.889 3.242-3.742 4.696-8.699 3.99-13.595l-9.657-67.193c-1.727-11.995-9.906-21.915-21.349-25.891l-29.998-10.421 6.03-118.894c.21-4.137-2.974-7.661-7.11-7.87-4.162-.214-7.66 2.974-7.87 7.11l-9.11 179.623c-.468 9.295-7.179 16.938-16.373 18.596-1.136.213-2.326.321-3.536.321h-11.808v-66.083c0-11.911-9.69-21.601-21.601-21.601s-21.601 9.69-21.601 21.601v66.083h-11.812c-1.21 0-2.4-.108-3.583-.33-9.139-1.656-15.849-9.299-16.316-18.59l-9.169-180.695c-.107-2.188-.161-4.329-.161-6.364 0-16.887 3.487-33.353 9.918-48.499h105.499c3.13 7.388 5.57 15.107 7.231 23.07.847 4.056 4.82 6.657 8.874 5.81 4.055-.846 6.655-4.819 5.81-8.874-8.03-38.485-32.081-71.97-65.983-91.866-5.368-3.153-12.038-3.153-17.404-.001-42.526 24.956-68.944 71.074-68.944 120.358 0 2.278.06 4.666.18 7.11l6.089 119.984-29.995 10.42c-11.448 3.974-19.633 13.895-21.36 25.893l-9.657 67.189c-.706 4.898.748 9.854 3.989 13.595 3.243 3.744 7.945 5.891 12.901 5.891h17.265c5.816 0 11.17-2.917 14.313-7.792l22.696-35.042c3.983 5.237 9.43 9.313 15.812 11.619l3.959 51.916c-1.49-.122-2.986-.191-4.485-.191-21.365 0-40.351 12.319-49.178 31.27-2.82-.446-5.696-.692-8.619-.692-11.816 0-22.754 3.811-31.672 10.253l-59.43-259.131c-1.632-7.104-6.32-13.026-12.861-16.247-6.539-3.22-14.089-3.327-20.71-.292l-13.499 6.18c-9.659 4.421-15.249 14.466-13.909 24.998l13.9 109.11c.523 4.109 4.278 7.021 8.388 6.492 4.109-.523 7.016-4.279 6.492-8.388l-2.235-17.542 44.679 26.135-35.988 42.104-2.047-16.067c-.523-4.108-4.267-7.016-8.388-6.492-4.109.523-7.016 4.279-6.492 8.388l21.9 171.92c.477 3.746 3.664 6.552 7.44 6.552h254.66c4.143 0 7.5-3.358 7.5-7.5s-3.357-7.5-7.5-7.5h-184.717c-3.112-5.721-4.742-12.125-4.742-18.73 0-21.637 17.599-39.24 39.23-39.24 13.855 0 26.42 7.103 33.611 19 1.853 3.068 5.617 4.395 8.984 3.168 3.186-1.16 6.528-1.748 9.935-1.748 6.465 0 12.592 2.091 17.718 6.047 2.345 1.81 5.536 2.071 8.144.664 2.607-1.407 4.142-4.217 3.917-7.171l-8.781-115.15h8.603v7.501c0 11.911 9.69 21.601 21.601 21.601 11.91 0 21.601-9.69 21.601-21.601v-7.501h8.6l-8.771 115.14c-.225 2.954 1.31 5.763 3.917 7.17s5.797 1.147 8.143-.662c5.121-3.951 11.248-6.039 17.719-6.039 3.406 0 6.749.588 9.935 1.748 3.369 1.228 7.137-.104 8.988-3.175 7.171-11.893 19.734-18.993 33.607-18.993 21.631 0 39.229 17.603 39.229 39.24 0 6.605-1.63 13.009-4.742 18.73h-56.728c-4.143 0-7.5 3.358-7.5 7.5s3.357 7.5 7.5 7.5l126.657.003c3.775 0 6.963-2.807 7.439-6.552l40.21-315.664c1.341-10.535-4.243-20.582-13.895-25zm-145.456 109.756c6.123 2.127 10.5 7.438 11.424 13.857l9.658 67.195c.116.807-.252 1.372-.481 1.637s-.736.71-1.553.71h-17.266c-.703 0-1.348-.349-1.732-.946l-28.419-43.877c.096-.806.173-1.618.214-2.439l2.289-45.123zm-97.556-259.107c.683-.4 1.531-.4 2.215.001 18.33 10.757 33.425 25.97 44.077 43.923h-90.319c10.596-17.86 25.613-33.118 44.027-43.924zm-95.412 341.573c-.377.584-1.018.933-1.715.933h-17.265c-.782 0-1.282-.387-1.564-.712-.28-.323-.59-.869-.479-1.638l9.657-67.189c.925-6.421 5.305-11.731 11.434-13.859l25.866-8.986 2.29 45.119c.041.818.117 1.626.213 2.429zm-104.056 95.25 46.89-30.569 5.774 25.177c-6.178 8.669-9.871 19.219-10.035 30.614zm-35.089-273.83 13.502-6.181c2.505-1.148 5.362-1.107 7.836.111 2.477 1.22 4.251 3.461 4.869 6.147l5.991 26.121-37.254-20.172c.671-2.61 2.478-4.846 5.056-6.026zm-3.425 23.968 34.227 18.533-28.265 28.265zm12.639 61.335 29.723-29.723 12.478 54.408zm49.409 56.115 17.128 74.684-54.378-31.103zm13.887 90.111-45.699 29.792-7.685-60.326zm-42.25 56.873 50.701 29.999c.021.057.042.114.063.17h-46.921zm154.198-22.381c-3.162 0-6.289.335-9.349.999-5.353-7.071-12.23-12.59-20.027-16.261 6.733-12.634 19.904-20.735 34.644-20.735 1.893 0 3.779.143 5.645.411l2.881 37.785c-4.401-1.454-9.037-2.199-13.794-2.199zm51.202-86.509c-3.64 0-6.601-2.961-6.601-6.601v-88.584c0-3.64 2.961-6.601 6.601-6.601s6.601 2.961 6.601 6.601v88.584c0 3.64-2.961 6.601-6.601 6.601zm60.567 87.51c-3.063-.666-6.193-1.001-9.359-1.001-4.759 0-9.396.745-13.795 2.195l2.878-37.78c1.864-.269 3.751-.413 5.649-.413 14.771 0 27.968 8.137 34.688 20.818-7.814 3.697-14.744 9.213-20.061 16.181zm97.38 32.022c-.166-11.394-3.86-21.943-10.039-30.611l5.772-25.168 46.885 30.566zm19.09-157.613 37.246 43.569-54.371 31.098zm-13.891 90.098 53.381-30.532-7.684 60.323zm21.436-104.357 44.678-26.133-8.691 68.23zm-.333-17.183 12.479-54.41 29.724 29.724zm20.613-67.489 34.215-18.529-5.959 46.784zm4.596-42.423c.613-2.685 2.384-4.925 4.856-6.145 2.479-1.223 5.341-1.265 7.854-.114l13.498 6.179c2.574 1.178 4.378 3.417 5.045 6.031l-37.244 20.17zm-54.818 318.497c.023-.062.046-.124.069-.186l50.684-29.985-3.843 30.171z"/><path d="m248.509 400.887v77.198c0 4.142 3.358 7.5 7.5 7.5 4.143 0 7.5-3.358 7.5-7.5v-77.198c0-4.142-3.357-7.5-7.5-7.5-4.142 0-7.5 3.358-7.5 7.5z"/><path d="m255.942 95.118c-16.765 0-30.405 13.64-30.405 30.405s13.64 30.405 30.405 30.405 30.405-13.64 30.405-30.405-13.64-30.405-30.405-30.405zm0 45.81c-8.494 0-15.405-6.911-15.405-15.405s6.911-15.405 15.405-15.405c8.495 0 15.405 6.911 15.405 15.405s-6.91 15.405-15.405 15.405z"/><path d="m255.942 168.423c-16.765 0-30.405 13.64-30.405 30.405s13.64 30.405 30.405 30.405 30.405-13.64 30.405-30.405-13.64-30.405-30.405-30.405zm0 45.809c-8.494 0-15.405-6.911-15.405-15.405s6.911-15.405 15.405-15.405c8.495 0 15.405 6.911 15.405 15.405s-6.91 15.405-15.405 15.405z"/></g></g></svg>