<svg id="Capa_1" enable-background="new 0 0 512 512" height="512" viewBox="0 0 512 512" width="512" xmlns="http://www.w3.org/2000/svg"><g><g><circle cx="256.001" cy="256" fill="#ebebeb" r="248.499"/><g fill="#e2e2e2"><path d="m311.342 498.31c-17.8 4.05-36.32 6.19-55.34 6.19-137.24 0-248.5-111.26-248.5-248.5s111.26-248.5 248.5-248.5c19.02 0 37.54 2.14 55.34 6.19-110.6 25.15-193.16 124.09-193.16 242.31s82.56 217.16 193.16 242.31z"/><path d="m399.821 53.33h-82.98c-23.93 0-43.33 19.4-43.33 43.34v47.17c0 23.93-19.4 43.33-43.33 43.33h-80.52c-8.69 0-16.79 2.47-23.66 6.76-2.9 1.81-5.58 3.94-7.99 6.35-8.1 8.1-13.11 19.29-13.11 31.65 0 23.93-19.4 43.33-43.34 43.33h-53.33c-.48-6.36-.73-12.78-.73-19.26 0-64.03 24.21-122.4 63.99-166.45h101.88c3.42 0 6.74-.43 9.9-1.23 13.43-3.39 24.17-13.52 28.43-26.58 1.29-3.94 1.98-8.14 1.98-12.51v-38.14c13.75-2.36 27.89-3.59 42.31-3.59 19.02 0 37.54 2.14 55.34 6.19h.01c32.35 7.35 62.3 21.02 88.48 39.64z"/><path d="m435.331 428.02c-33.02 34.42-75.86 59.35-124.01 70.29-16.7 3.8-34.05 5.92-51.84 6.16v-20.82c0-1.17-.05-2.33-.16-3.47-1.75-19.31-17.99-34.44-37.75-34.44h-126.05c-23.7-20.06-43.58-44.48-58.42-72.02h116.31c23.93 0 43.33-19.4 43.33-43.33 0-11.96 4.85-22.8 12.69-30.64s18.67-12.69 30.64-12.69h66.66c23.93 0 43.33 19.4 43.33 43.33v54.3c0 23.93 19.4 43.33 43.33 43.33z"/></g><path d="m259.321 480.18c16.41 7.87 33.83 13.99 52 18.13-16.7 3.8-34.05 5.92-51.84 6.16v-20.82c0-1.17-.05-2.33-.16-3.47z" fill="#cecece"/><path d="m504.311 246.34h-81.53c-24.73 0-44.77-20.04-44.77-44.77v-25.06c0-24.72 20.04-44.76 44.77-44.76h48.46c19.64 33.94 31.48 72.95 33.07 114.59z" fill="#e2e2e2"/><path d="m61.561 275.26h-53.33c-.48-6.36-.73-12.78-.73-19.26 0-64.03 24.21-122.4 63.99-166.45h101.88c3.42 0 6.74-.43 9.9-1.23-27.01 29.54-46.99 65.63-57.27 105.61-2.9 1.81-5.58 3.94-7.99 6.35-8.1 8.1-13.11 19.29-13.11 31.65 0 23.93-19.4 43.33-43.34 43.33z" fill="#cecece"/><path d="m206.211 445.74h-110.69c-23.7-20.06-43.58-44.48-58.42-72.02h110.68c14.84 27.54 34.73 51.96 58.43 72.02z" fill="#cecece"/><path d="m311.331 13.69c-37.04 8.42-70.93 25.12-99.63 48.05 1.29-3.94 1.98-8.14 1.98-12.51v-38.14c13.75-2.36 27.89-3.59 42.31-3.59 19.02 0 37.54 2.14 55.34 6.19z" fill="#cecece"/><circle cx="424.184" cy="312.829" fill="#e2e2e2" r="28.376"/><circle cx="178.481" cy="247.605" fill="#e2e2e2" r="19.059"/><circle cx="259.431" cy="375.848" fill="#cecece" r="33.882"/></g><g><path d="m437.019 74.982c-48.353-48.353-112.64-74.982-181.019-74.982s-132.666 26.629-181.019 74.982c-48.352 48.352-74.981 112.639-74.981 181.018s26.629 132.666 74.981 181.018c48.353 48.353 112.64 74.982 181.019 74.982 47.701 0 94.246-13.21 134.602-38.202 39.237-24.3 71.236-58.748 92.539-99.621 1.915-3.673.489-8.203-3.184-10.117s-8.203-.489-10.118 3.185c-10.141 19.457-22.86 37.365-37.73 53.276h-38.709c-19.757 0-35.83-16.073-35.83-35.83v-54.3c0-28.028-22.803-50.83-50.83-50.83h-66.66c-13.579 0-26.344 5.287-35.943 14.887-9.6 9.6-14.887 22.365-14.887 35.943 0 19.757-16.073 35.83-35.83 35.83h-14.26c-4.142 0-7.5 3.358-7.5 7.5s3.358 7.5 7.5 7.5h14.26c28.028 0 50.83-22.802 50.83-50.83 0-9.572 3.727-18.57 10.493-25.337 6.767-6.767 15.765-10.493 25.337-10.493h66.66c19.757 0 35.83 16.073 35.83 35.83v54.3c0 28.028 22.803 50.83 50.83 50.83h23.387c-10.551 9.454-21.946 18.008-34.083 25.525-34.879 21.6-74.677 33.841-115.724 35.698v-13.104c0-25.039-20.371-45.41-45.41-45.41h-123.291c-4.346-3.773-8.581-7.709-12.69-11.818-13.788-13.788-25.687-28.96-35.594-45.192h54.166c4.142 0 7.5-3.358 7.5-7.5s-3.358-7.5-7.5-7.5h-62.594c-13.348-25.897-21.865-54.09-25.089-83.46h45.092c28.028 0 50.83-22.802 50.83-50.83 0-9.952 3.876-19.309 10.913-26.347 7.038-7.038 16.395-10.913 26.347-10.913h80.52c28.028 0 50.83-22.802 50.83-50.83v-10.31c0-4.142-3.357-7.5-7.5-7.5s-7.5 3.358-7.5 7.5v10.31c0 19.757-16.073 35.83-35.83 35.83h-80.52c-13.959 0-27.083 5.436-36.954 15.307s-15.306 22.994-15.306 36.953c0 19.757-16.073 35.83-35.83 35.83h-46.287c-.186-3.904-.283-7.825-.283-11.76 0-59.117 21.157-114.975 59.866-158.96h98.504c26.368 0 47.82-21.448 47.82-47.81v-31.741c11.431-1.644 23.055-2.489 34.81-2.489 42.064 0 82.481 10.71 118.145 30.83h-57.305c-28.027 0-50.83 22.802-50.83 50.83v2.51c0 4.142 3.357 7.5 7.5 7.5s7.5-3.358 7.5-7.5v-2.51c0-19.757 16.073-35.83 35.83-35.83h80.606c10.191 7.419 19.882 15.674 28.966 24.758 11.922 11.922 22.427 24.882 31.46 38.662h-35.092c-28.816 0-52.26 23.444-52.26 52.26v25.06c0 28.816 23.443 52.26 52.26 52.26h74.193c.006.724.026 1.445.026 2.17 0 27.599-4.626 54.666-13.75 80.448-1.382 3.905.663 8.19 4.568 9.572 3.905 1.381 8.19-.664 9.572-4.568 9.696-27.393 14.611-56.144 14.611-85.452 0-68.379-26.629-132.666-74.981-181.018zm-215.448 378.248c16.768 0 30.41 13.642 30.41 30.41v13.311c-48.863-.794-95.362-16.036-134.58-43.721zm-15.381-404c0 18.092-14.723 32.81-32.82 32.81h-84.146c32.898-31.573 73.219-52.753 116.966-61.899zm216.59 189.6c-20.545 0-37.26-16.715-37.26-37.26v-25.06c0-20.545 16.715-37.26 37.26-37.26h44.158c16.897 30.424 26.984 64.251 29.454 99.58z"/><path d="m388.308 312.829c0 19.782 16.094 35.876 35.876 35.876s35.877-16.094 35.877-35.876-16.095-35.876-35.877-35.876-35.876 16.093-35.876 35.876zm56.753 0c0 11.511-9.365 20.876-20.877 20.876-11.511 0-20.876-9.365-20.876-20.876s9.365-20.876 20.876-20.876c11.511-.001 20.877 9.365 20.877 20.876z"/><path d="m151.922 247.605c0 14.645 11.914 26.559 26.559 26.559s26.559-11.914 26.559-26.559-11.915-26.559-26.559-26.559-26.559 11.915-26.559 26.559zm38.118 0c0 6.374-5.186 11.559-11.559 11.559s-11.559-5.185-11.559-11.559 5.185-11.559 11.559-11.559 11.559 5.186 11.559 11.559z"/><path d="m259.432 417.23c22.818 0 41.382-18.564 41.382-41.382s-18.563-41.382-41.382-41.382-41.383 18.564-41.383 41.382 18.564 41.382 41.383 41.382zm0-67.765c14.547 0 26.382 11.835 26.382 26.382s-11.835 26.382-26.382 26.382-26.383-11.835-26.383-26.382 11.835-26.382 26.383-26.382z"/></g></g></svg>