<svg id="Capa_1" enable-background="new 0 0 512 512" height="512" viewBox="0 0 512 512" width="512" xmlns="http://www.w3.org/2000/svg"><g><g><path d="m273.668 157.859h-246.9c-10.642 0-19.269-8.627-19.269-19.269v-36.291c0-10.642 8.627-19.269 19.269-19.269h246.9c10.642 0 19.269 8.627 19.269 19.269v36.291c0 10.642-8.627 19.269-19.269 19.269z" fill="#cecece"/><path d="m175.094 229.212h-49.75c-46.332 0-83.892-37.56-83.892-83.892v-49.75c0-46.332 37.56-83.892 83.892-83.892h49.75c46.332 0 83.892 37.56 83.892 83.892v49.75c-.001 46.332-37.56 83.892-83.892 83.892z" fill="#ebebeb"/><path d="m175.917 229.202c-.269.009-.548.009-.817.009h-49.748c-46.332 0-83.9-37.559-83.9-83.891v-49.748c0-46.332 37.569-83.891 83.9-83.891h49.748c.269 0 .548 0 .817.009-45.96.427-83.083 37.819-83.083 83.882v49.748c-.001 46.062 37.122 83.455 83.083 83.882z" fill="#e2e2e2"/><path d="m230.942 107.826v38.878c0 26.345-21.36 47.715-47.715 47.715h-66.021c-3.128 0-6.182-.297-9.144-.882-21.973-4.261-38.562-23.616-38.562-46.833v-38.878c0-19.949 12.235-37.039 29.613-44.159 5.579-2.293 11.687-3.555 18.093-3.555h66.021c26.355-.001 47.715 21.359 47.715 47.714z" fill="#017297"/><path d="m108.062 193.536c-21.973-4.261-38.562-23.616-38.562-46.833v-38.878c0-19.949 12.235-37.039 29.613-44.159-4.048 9.84-6.285 20.608-6.285 31.906v49.748c.001 17.944 5.636 34.58 15.234 48.216z" fill="#025f80"/><path d="m206.211 221.383h-111.985c-8.897 0-16.109 7.212-16.109 16.109 0 8.897 7.212 16.109 16.109 16.109h111.985c8.897 0 16.109-7.212 16.109-16.109 0-8.896-7.212-16.109-16.109-16.109z" fill="#e2e2e2"/><path d="m126.637 248.882c2.92 2.92 6.95 4.72 11.39 4.72h-43.8c-4.45 0-8.48-1.8-11.39-4.72-2.92-2.91-4.72-6.94-4.72-11.39 0-8.9 7.21-16.11 16.11-16.11h43.8c-8.89 0-16.11 7.21-16.11 16.11 0 4.45 1.81 8.48 4.72 11.39z" fill="#cecece"/><path d="m364.89 280.671c.16 7.87-2.96 15.01-8.08 20.13-5.01 5.01-11.93 8.11-19.56 8.11h-94.53c-12.25 0-22.51 9.31-23.68 21.5l-5.63 58.37-4.12 42.65-2.79 28.88c11.84 6.02 19.95 18.31 19.95 32.5 0 2.07-.84 3.95-2.2 5.3-1.35 1.37-3.23 2.2-5.3 2.2h-137.46c-2.07 0-3.94-.83-5.31-2.2-1.35-1.35-2.19-3.23-2.19-5.3 0-14.19 8.11-26.48 19.95-32.5l-2.79-28.88-1.28-13.25h-19.07c-14.64 0-26.89-11.14-28.28-25.71l-8.99-94.38c-2.28-23.86 16.49-44.49 40.46-44.49h262.69c15.14 0 27.9 11.93 28.21 27.07z" fill="#ebebeb"/><g><path d="m213.41 388.781-4.12 42.65c-2.15.66-4.45 1.02-6.82 1.02-12.82 0-23.21-10.39-23.21-23.2 0-12.82 10.39-23.21 23.21-23.21 3.96 0 7.68.99 10.94 2.74z" fill="#017297"/></g><path d="m106.96 473.501c-3.51 5.59-5.54 12.21-5.54 19.31 0 4.14 3.36 7.5 7.5 7.5h-27.43c-2.07 0-3.95-.84-5.3-2.2-1.36-1.36-2.2-3.23-2.2-5.3 0-14.19 8.11-26.48 19.95-32.5l-2.79-28.88-4.11-42.65-8.07-83.6h27.43l8.51 88.22 2.72 28.16 3.74 38.75c-5.91 3.01-10.9 7.59-14.41 13.19z" fill="#e2e2e2"/><path d="m121.17 409.251c0 4.52-1.29 8.74-3.54 12.31-4.1 6.54-11.37 10.89-19.66 10.89-2.37 0-4.67-.36-6.82-1.02l-4.11-42.65c3.25-1.75 6.98-2.74 10.93-2.74 6.69 0 12.72 2.83 16.94 7.36 3.89 4.15 6.26 9.72 6.26 15.85z" fill="#017297"/><path d="m96.22 418.181h-25.42c-14.64 0-26.89-11.14-28.28-25.71l-8.99-94.38c-2.28-23.86 16.49-44.49 40.46-44.49h25.42c-23.97 0-42.74 20.63-40.46 44.49l8.99 94.38c1.39 14.57 13.64 25.71 28.28 25.71z" fill="#e2e2e2"/><circle cx="189.404" cy="298.143" fill="#017297" r="15.927"/><path d="m489.888 237.492h-140.768v-115.67c0-6.501 5.27-11.772 11.772-11.772h128.996c8.07 0 14.612 6.542 14.612 14.612v98.218c0 8.071-6.542 14.612-14.612 14.612z" fill="#fe7c66"/><g><circle cx="426.81" cy="173.772" fill="#c8effe" r="41.478"/><g fill="#97da7b"><path d="m432.033 187.783c2.66 2.66 3.981 6.142 3.99 9.625.008 3.483-1.33 6.965-3.981 9.616l-8.12 8.12c-9.625-.665-19.075-4.68-26.439-12.044l15.318-15.318c5.31-5.31 13.921-5.31 19.232.001z"/><path d="m456.137 144.447c1.737 1.737 3.283 3.582 4.646 5.527l-11.221 11.221c-2.66 2.66-6.142 3.981-9.616 3.981-3.483.008-6.965-1.33-9.625-3.99-5.311-5.311-5.311-13.922 0-19.233l8.021-8.021c6.516 1.879 12.666 5.387 17.795 10.515z"/></g></g></g><g><path d="m117.21 201.914h66.018c30.444 0 55.212-24.768 55.212-55.212v-38.879c0-30.444-24.768-55.212-55.212-55.212h-66.018c-30.444 0-55.212 24.768-55.212 55.212v38.879c0 30.444 24.768 55.212 55.212 55.212zm-40.212-94.091c0-22.173 18.039-40.212 40.212-40.212h66.018c22.173 0 40.212 18.039 40.212 40.212v38.879c0 22.173-18.039 40.212-40.212 40.212h-66.018c-22.173 0-40.212-18.039-40.212-40.212z"/><path d="m189.404 274.717c-12.918 0-23.427 10.509-23.427 23.427s10.509 23.427 23.427 23.427 23.427-10.509 23.427-23.427-10.509-23.427-23.427-23.427zm0 31.853c-4.646 0-8.427-3.78-8.427-8.427s3.78-8.427 8.427-8.427 8.427 3.78 8.427 8.427-3.78 8.427-8.427 8.427z"/><path d="m103.349 295.138h24.975c4.143 0 7.5-3.358 7.5-7.5s-3.357-7.5-7.5-7.5h-24.975c-4.143 0-7.5 3.358-7.5 7.5s3.357 7.5 7.5 7.5z"/><path d="m103.349 316.41h24.975c4.143 0 7.5-3.358 7.5-7.5s-3.357-7.5-7.5-7.5h-24.975c-4.143 0-7.5 3.358-7.5 7.5s3.357 7.5 7.5 7.5z"/><path d="m489.89 102.555h-129c-10.625 0-19.27 8.645-19.27 19.27v124.618c-1.617-.225-3.266-.348-4.94-.348h-108.49c1.048-2.668 1.63-5.568 1.63-8.603 0-5.762-2.078-11.046-5.519-15.149 20.331-13.018 34.673-33.604 39.951-56.983h9.418c14.762 0 26.771-12.009 26.771-26.77v-36.29c0-14.761-12.009-26.77-26.771-26.77h-9.4c-9.163-40.783-45.667-71.346-89.18-71.346h-49.75c-20.12 0-39.199 6.41-55.175 18.537-3.299 2.504-3.943 7.209-1.438 10.508s7.207 3.944 10.509 1.439c13.344-10.129 29.287-15.484 46.104-15.484h49.75c42.127 0 76.4 34.269 76.4 76.39v49.75c0 29.197-16.78 55.911-42.925 68.676-.775-.077-1.56-.118-2.355-.118h-111.984c-.793 0-1.578.041-2.351.118-26.145-12.765-42.924-39.479-42.924-68.676v-49.75c0-12.885 3.271-25.623 9.457-36.837 2-3.627.683-8.189-2.944-10.19-3.625-2-8.188-.683-10.19 2.944-4.158 7.538-7.215 15.648-9.097 24.039h-9.405c-14.763.001-26.772 12.01-26.772 26.771v36.29c0 14.761 12.009 26.77 26.771 26.77h9.418c5.278 23.379 19.619 43.964 39.949 56.982-3.442 4.103-5.52 9.388-5.52 15.15 0 3.054.589 5.972 1.65 8.654-12.912.465-25.191 6.126-33.909 15.717-9.101 10.011-13.581 23.476-12.294 36.938l8.99 94.381c1.767 18.527 17.134 32.498 35.745 32.498h12.259l2.952 30.589c-12.158 8.105-19.522 21.682-19.522 36.541 0 8.271 6.729 15 15 15l137.462.003c4.023 0 7.797-1.568 10.583-4.376 2.849-2.827 4.417-6.603 4.417-10.633 0-14.854-7.365-28.43-19.525-36.538l12.08-125.125c.385-3.954 2.186-7.62 5.072-10.322 3.023-2.831 3.179-7.577.348-10.601-2.832-3.024-7.577-3.181-10.602-.348-5.548 5.196-9.01 12.233-9.748 19.823l-1.263 13.084h-52.593v-81.677l161.706-.006v40.31h-59.206c-4.143 0-7.5 3.358-7.5 7.5s3.357 7.5 7.5 7.5h77.03c1.474 0 2.931-.1 4.37-.278v184.183c0 4.142 3.357 7.5 7.5 7.5s7.5-3.358 7.5-7.5v-189.71c1.955-1.296 3.796-2.795 5.493-4.491 6.822-6.823 10.472-15.913 10.274-25.597-.24-11.749-6.475-22.137-15.768-28.35v-7.167h84.83c4.143 0 7.5-3.358 7.5-7.5s-3.357-7.5-7.5-7.5h-84.83v-108.17c0-2.354 1.915-4.27 4.27-4.27h129c3.921 0 7.11 3.189 7.11 7.11v98.22c0 3.92-3.189 7.11-7.11 7.11h-13.439c-4.143 0-7.5 3.358-7.5 7.5s3.357 7.5 7.5 7.5h13.439c12.191 0 22.11-9.918 22.11-22.11v-98.22c.001-12.191-9.918-22.11-22.109-22.11zm-216.22-12.024c6.49 0 11.771 5.28 11.771 11.77v36.29c0 6.49-5.28 11.77-11.771 11.77h-7.334c.093-1.672.155-3.349.155-5.036v-49.75c0-1.693-.05-3.374-.141-5.044zm-246.899 59.83c-6.49 0-11.771-5.28-11.771-11.77v-36.29c0-6.49 5.28-11.77 11.771-11.77h7.328c-.093 1.678-.148 3.36-.148 5.044v49.75c0 1.687.062 3.364.155 5.036zm67.329 95.734c-4.689-.068-8.483-3.898-8.483-8.603 0-4.747 3.861-8.609 8.608-8.609h111.985c4.747 0 8.609 3.862 8.609 8.609 0 4.705-3.795 8.535-8.484 8.603zm-23.3 164.586c-10.837 0-19.784-8.135-20.813-18.921l-.082-.858h29.799l1.908 19.779zm24.253-16.867c.957-.18 1.934-.273 2.917-.273 8.657 0 15.7 7.047 15.7 15.71 0 8.628-6.996 15.648-15.613 15.696zm-13.565 98.998c0-10.949 6.073-20.842 15.85-25.818.119-.061.223-.14.338-.206v1.02h45.043v25.004zm137.462.003h-61.231v-25.007h46.858c8.903 5.194 14.373 14.619 14.373 25.007zm-16.571-67.868c-8.62-.049-15.619-7.069-15.619-15.696 0-8.663 7.048-15.71 15.71-15.71.993 0 1.966.09 2.916.267zm4.449-46.082c-1.441-.207-2.897-.324-4.358-.324-16.934 0-30.71 13.776-30.71 30.71 0 16.414 12.952 29.859 29.175 30.661l-1.245 12.895h-41.971v-75.852c0-4.142-3.357-7.5-7.5-7.5s-7.5 3.358-7.5 7.5v75.852h-41.973l-1.245-12.895c16.219-.801 29.168-14.247 29.168-30.661 0-16.934-13.772-30.71-30.7-30.71-1.462 0-2.918.117-4.359.324l-2.035-21.087h58.596c.016 0 .032.002.048.002s.032-.002.048-.002h58.596zm-64.108-36.087h-52.592l-3.698-38.317c-.397-4.124-4.056-7.139-8.186-6.745-4.123.398-7.143 4.063-6.744 8.186l6.755 70h-29.78l-6.697-70.307h10.677c4.143 0 7.5-3.358 7.5-7.5s-3.357-7.5-7.5-7.5h-11.424c.734-6.9 3.62-13.354 8.427-18.643 6.36-6.998 15.073-10.852 24.532-10.852.039 0 .077-.005.116-.006l68.613.006v81.678zm208.786-47.276c-3.807 3.807-8.869 5.903-14.256 5.903h-2.824v-40.31h2.254c11.198 0 20.489 8.848 20.712 19.722.112 5.562-1.978 10.777-5.886 14.685z"/><path d="m461.443 139.139c-9.251-9.25-21.551-14.345-34.633-14.345-13.083 0-25.382 5.095-34.633 14.345-9.25 9.25-14.345 21.55-14.345 34.632 0 13.083 5.095 25.382 14.345 34.632 9.251 9.251 21.55 14.346 34.633 14.346 13.082 0 25.382-5.095 34.633-14.346 19.095-19.095 19.095-50.167 0-69.264zm-25.818 8.118 4.679-4.679c3.79 1.641 7.281 3.98 10.312 6.958l-6.355 6.356c-1.151 1.151-2.684 1.785-4.333 1.785-.006 0-.011 0-.016 0-1.608 0-3.13-.636-4.287-1.793-1.152-1.152-1.786-2.684-1.786-4.312-.001-1.631.633-3.163 1.786-4.315zm-8.888 54.465-5.557 5.557c-4.462-.74-8.696-2.358-12.501-4.768l9.423-9.423c2.378-2.378 6.249-2.378 8.627-.001 1.152 1.153 1.789 2.694 1.793 4.341.004 1.614-.629 3.138-1.785 4.294zm24.099-3.925c-2.492 2.493-5.307 4.544-8.346 6.129.675-2.086 1.038-4.281 1.032-6.534-.013-5.639-2.209-10.934-6.187-14.912-8.228-8.226-21.613-8.226-29.839 0l-9.424 9.424c-3.407-5.377-5.24-11.612-5.24-18.133 0-9.076 3.534-17.608 9.952-24.026 5.324-5.324 12.105-8.656 19.444-9.639-2.201 3.385-3.391 7.331-3.391 11.464 0 5.636 2.194 10.935 6.18 14.919 3.99 3.991 9.276 6.187 14.874 6.187 5.683.043 10.977-2.181 14.975-6.178l3.995-3.995c4.178 11.941 1.503 25.767-8.025 35.294z"/></g></g></svg>