<svg id="Capa_1" enable-background="new 0 0 512 512" height="512" viewBox="0 0 512 512" width="512" xmlns="http://www.w3.org/2000/svg"><g><g><circle cx="256" cy="256" fill="#e2e2e2" r="248.499"/><path d="m311.341 498.31c-17.8 4.05-36.32 6.19-55.34 6.19-137.24 0-248.5-111.26-248.5-248.5s111.26-248.5 248.5-248.5c19.02 0 37.54 2.14 55.34 6.19-110.6 25.15-193.16 124.09-193.16 242.31s82.56 217.16 193.16 242.31z" fill="#cecece"/><g><path d="m429.63 128.77c-2.57.11-5.31-.09-8.18-.62-20.72-3.83-40.63-23.74-44.46-44.46-.53-2.87-.73-5.61-.62-8.18.71-16 13.34-25.7 31.19-22.39 20.72 3.83 40.63 23.74 44.46 44.46 3.31 17.85-6.39 30.48-22.39 31.19z" fill="#cecece"/><path d="m429.63 128.77c-2.57.11-5.31-.09-8.18-.62-20.72-3.83-40.63-23.74-44.46-44.46-.53-2.87-.73-5.61-.62-8.18 2.57-.12 5.31.08 8.18.61 20.72 3.84 40.63 23.75 44.46 44.47.53 2.87.73 5.61.62 8.18z" fill="#bfbfbf"/><path d="m352.13 431.11c-10 13.99-31.59 21.82-48.23 17.49-11.37-2.96-17.49-10.83-17.02-19.99.21-4.23 1.83-8.75 4.99-13.17 10-13.99 31.59-21.82 48.23-17.49 2.35.61 4.48 1.44 6.37 2.44 11.49 6.07 14.25 18.71 5.66 30.72z" fill="#cecece"/><path d="m346.47 400.39c-.21 4.23-1.84 8.75-5 13.17-10 13.99-31.59 21.82-48.23 17.49-2.35-.61-4.47-1.43-6.36-2.44.21-4.23 1.83-8.75 4.99-13.17 10-13.99 31.59-21.82 48.23-17.49 2.35.61 4.48 1.44 6.37 2.44z" fill="#bfbfbf"/><path d="m168.6 163.17c-3.84 20.72-23.74 40.62-44.46 44.46-3.15.58-6.14.76-8.93.57-9.45-.64-16.6-5.51-20.03-13.16-2.23-4.95-2.9-11.08-1.62-17.98 3.69-19.89 22.17-39.03 41.98-43.92.83-.21 1.66-.39 2.49-.54 13.72-2.54 24.35 2.6 28.85 12.38 2.31 4.99 3.01 11.19 1.72 18.19z" fill="#cecece"/><path d="m168.6 163.17c-3.84 20.72-23.74 40.62-44.46 44.46-3.15.58-6.14.76-8.93.57-.04-.07-.07-.14-.1-.21-2.23-4.95-2.9-11.08-1.62-17.98 3.69-19.89 22.17-39.03 41.98-43.92.83-.21 1.66-.39 2.49-.54 3.15-.58 6.14-.76 8.92-.57 2.31 4.99 3.01 11.19 1.72 18.19z" fill="#bfbfbf"/></g><g fill="#bfbfbf"><circle cx="380.739" cy="238.032" r="17.968"/><circle cx="151.007" cy="342.256" r="27.671"/><circle cx="196.82" cy="278.534" r="18.142"/><circle cx="258.611" cy="81.233" r="18.142"/></g></g><g><path d="m420.209 432.401c-44.742 41.657-103.06 64.599-164.209 64.599-64.372 0-124.892-25.069-170.412-70.588s-70.588-106.04-70.588-170.412 25.069-124.892 70.588-170.412 106.04-70.588 170.412-70.588c22.467 0 44.668 3.076 65.987 9.144 3.984 1.134 8.132-1.177 9.266-5.161s-1.176-8.133-5.161-9.267c-22.654-6.447-46.237-9.716-70.092-9.716-68.379 0-132.666 26.629-181.019 74.982-48.352 48.352-74.981 112.639-74.981 181.018s26.629 132.666 74.981 181.019c48.353 48.352 112.64 74.981 181.019 74.981 64.956 0 126.903-24.37 174.431-68.621 3.031-2.823 3.201-7.568.378-10.6-2.823-3.031-7.569-3.201-10.6-.378z"/><path d="m460.055 101.41c-.121-1.701-.333-3.432-.659-5.196-4.42-23.881-26.59-46.051-50.471-50.472-2.74-.507-5.405-.75-7.984-.763-13.032-8.964-26.887-16.741-41.24-23.105-3.786-1.679-8.217.029-9.896 3.816s.03 8.217 3.816 9.896c9.701 4.301 19.158 9.298 28.267 14.889-1.465 1.008-2.849 2.14-4.126 3.416-.02.02-.038.042-.058.062-.005.005-.011.007-.016.013-.223.229-22.616 22.826-54.822 19.415-4.121-.436-7.812 2.549-8.249 6.668s2.548 7.812 6.667 8.249c2.832.3 5.596.439 8.291.439 15.879 0 29.291-4.845 39.299-10.211.086 2.124.325 4.302.737 6.529 1.779 9.609 6.435 18.939 12.916 26.949l-32.953 32.953c-2.929 2.929-2.929 7.678 0 10.606 1.464 1.464 3.384 2.197 5.303 2.197s3.839-.732 5.303-2.197l32.953-32.953c8.01 6.481 17.34 11.137 26.949 12.916 2.224.412 4.398.652 6.519.738-6.273 11.705-11.828 28.085-9.761 47.589.408 3.851 3.662 6.71 7.449 6.71.264 0 .531-.014.8-.042 4.119-.437 7.104-4.129 6.667-8.249-3.38-31.903 19.1-54.511 19.429-54.836.007-.007.013-.014.02-.021.013-.013.028-.025.041-.039 1.825-1.825 3.371-3.857 4.645-6.058 26.942 39.813 41.109 86.056 41.109 134.682 0 55.226-19.159 109.196-53.948 151.968-2.614 3.213-2.127 7.937 1.086 10.551 1.391 1.131 3.064 1.682 4.728 1.682 2.179 0 4.34-.945 5.823-2.768 36.957-45.438 57.311-102.77 57.311-161.433 0-56.415-17.96-109.81-51.945-154.59zm-75.694-19.085c-1.392-7.52.031-13.851 4.007-17.826 2.981-2.981 7.286-4.527 12.424-4.527 1.714 0 3.521.172 5.402.52 17.588 3.256 35.197 20.865 38.452 38.452 1.392 7.52-.031 13.851-4.007 17.826-3.976 3.976-10.307 5.398-17.826 4.007-17.587-3.256-35.196-20.864-38.452-38.452z"/><path d="m318.148 390.644-8.439-23.274c-1.412-3.894-5.712-5.907-9.607-4.494-3.894 1.412-5.906 5.713-4.494 9.607l8.439 23.274c-7.31 3.747-13.739 8.971-18.274 15.317-.68.951-1.297 1.919-1.871 2.895-3.864-4.89-8.859-10.002-15.21-14.409-3.403-2.362-8.077-1.517-10.438 1.886-2.362 3.403-1.518 8.076 1.886 10.438 14.828 10.29 20.564 25.917 20.679 26.236.003.007.007.014.009.021.007.018.011.037.018.055 3.093 8.53 10.807 14.968 21.165 17.663 3.748.975 7.675 1.44 11.662 1.44 16.963 0 34.977-8.421 44.558-21.825 6.223-8.707 8.018-18.592 4.925-27.122-.008-.021-.017-.041-.025-.062-.004-.012-.007-.024-.011-.036-.059-.156-5.833-15.769-.892-33.523 1.111-3.99-1.224-8.126-5.214-9.236-3.992-1.112-8.126 1.224-9.236 5.214-2.094 7.521-2.668 14.72-2.499 21.003-1.064-.381-2.157-.727-3.286-1.021-7.55-1.967-15.833-1.855-23.845-.047zm27.879 36.106c-8.187 11.454-26.612 18.136-40.241 14.591-5.585-1.453-9.435-4.386-10.839-8.259s-.329-8.591 3.027-13.286c6.696-9.368 20.241-15.543 32.407-15.543 2.709 0 5.352.307 7.833.952 5.586 1.453 9.435 4.386 10.839 8.259s.33 8.591-3.026 13.286z"/><path d="m132.096 197.236c-3.108 1.429-6.248 2.446-9.319 3.019-7.466 1.379-13.766-.012-17.694-3.868l-.14-.14c-1.292-1.292-2.326-2.854-3.074-4.642-1.6-3.821-5.993-5.622-9.814-4.024-3.821 1.599-5.623 5.993-4.024 9.814 1.505 3.597 3.627 6.779 6.28 9.432l.153.153c.557.56 13.689 13.937 18.195 34.328.773 3.5 3.874 5.883 7.316 5.883.536 0 1.081-.058 1.625-.178 4.045-.894 6.599-4.897 5.705-8.941-1.899-8.593-5.038-16.115-8.371-22.331 2.14-.083 4.337-.324 6.581-.739 4.297-.802 8.62-2.194 12.848-4.139 5.006-2.302 9.738-5.296 14.064-8.798l23.303 23.303c1.464 1.464 3.384 2.197 5.303 2.197s3.839-.732 5.303-2.197c2.929-2.929 2.929-7.678 0-10.606l-23.3-23.3c6.556-8.1 11.189-17.469 12.939-26.928.413-2.234.652-4.418.737-6.548 5.17 2.769 11.247 5.401 18.104 7.301.67.186 1.344.274 2.007.274 3.287 0 6.303-2.178 7.223-5.5 1.106-3.992-1.233-8.124-5.225-9.23-18.698-5.18-30.719-17.179-30.938-17.4-.008-.009-.018-.016-.026-.024-.013-.014-.026-.028-.039-.042-7.573-7.569-18.635-10.459-31.153-8.14-16.9 3.127-33.458 15.272-43.213 31.695-2.115 3.561-.943 8.163 2.618 10.278 3.562 2.115 8.163.943 10.278-2.618 7.496-12.619 20.467-22.277 33.048-24.605 7.516-1.393 13.843.027 17.818 4 3.977 3.975 5.401 10.308 4.011 17.831-2.624 14.18-14.602 28.75-29.129 35.43z"/><path d="m380.739 263.5c14.043 0 25.468-11.425 25.468-25.468s-11.425-25.468-25.468-25.468-25.468 11.425-25.468 25.468 11.425 25.468 25.468 25.468zm0-35.936c5.772 0 10.468 4.696 10.468 10.468s-4.696 10.468-10.468 10.468-10.468-4.696-10.468-10.468 4.696-10.468 10.468-10.468z"/><path d="m151.007 377.426c19.393 0 35.17-15.777 35.17-35.17s-15.777-35.17-35.17-35.17-35.17 15.777-35.17 35.17 15.777 35.17 35.17 35.17zm0-55.341c11.122 0 20.17 9.048 20.17 20.17s-9.048 20.17-20.17 20.17-20.17-9.048-20.17-20.17 9.048-20.17 20.17-20.17z"/><path d="m222.462 278.534c0-14.139-11.503-25.642-25.642-25.642s-25.642 11.503-25.642 25.642 11.503 25.642 25.642 25.642 25.642-11.503 25.642-25.642zm-36.284 0c0-5.868 4.774-10.642 10.642-10.642s10.642 4.774 10.642 10.642-4.774 10.642-10.642 10.642-10.642-4.774-10.642-10.642z"/><path d="m284.253 81.233c0-14.139-11.503-25.642-25.642-25.642s-25.642 11.503-25.642 25.642 11.503 25.642 25.642 25.642 25.642-11.503 25.642-25.642zm-36.284 0c0-5.868 4.774-10.642 10.642-10.642s10.642 4.774 10.642 10.642-4.774 10.642-10.642 10.642-10.642-4.774-10.642-10.642z"/></g></g></svg>