<svg id="Capa_1" enable-background="new 0 0 512 512" height="512" viewBox="0 0 512 512" width="512" xmlns="http://www.w3.org/2000/svg"><g><g><path d="m504.5 256c0 40.77-9.82 79.25-27.23 113.2-4.32 8.435-35.578 9.007-40.805 16.851s15.579 22.959 9.514 30.139c-45.579 54.01-113.779 88.31-189.979 88.31-107.84 0-199.63-68.69-234.01-164.71-2.695-7.52 12.399-16.851 10.429-24.69s-21.004-14.185-22.209-22.3c-1.79-12.01-2.71-24.29-2.71-36.8 0-26.59 4.18-52.21 11.92-76.23 3.26-10.135 28-19.985 32.482-29.504 4.481-9.519-11.297-18.706-5.692-27.516 44.1-69.28 121.58-115.25 209.79-115.25 103.57 0 192.35 63.37 229.66 153.45 3.409 8.217-16.141 16.659-13.618 25.295 3.012 10.313 27.903 20.905 29.568 31.724 1.9 12.401 2.89 25.101 2.89 38.031z" fill="#01d0fb"/><path d="m311.341 498.31c-17.8 4.05-36.32 6.19-55.34 6.19-107.837 0-199.634-68.693-234.018-164.708-3.585-10.011 26.517-20.32 24.227-30.878-1.152-5.31-35.196-10.683-36.002-16.114-1.783-12.008-2.706-24.296-2.706-36.8 0-26.593 4.177-52.211 11.912-76.232 2.179-6.768 29.758-23.001 32.488-29.502 5.445-12.965-13.161-15.779-5.69-27.516 44.099-69.285 121.577-115.25 209.789-115.25 19.02 0 37.54 2.14 55.34 6.19-110.6 25.15-193.16 124.09-193.16 242.31s82.56 217.16 193.16 242.31z" fill="#01c0fa"/><path d="m501.61 217.97h-149.64c-8.65 0-17.11-1.72-24.95-4.96-7.84-3.25-15.04-8.03-21.16-14.14-12.23-12.23-28.81-19.1-46.11-19.1h-240.33c6.52-20.27 15.58-39.4 26.79-57.02h279.44c8.65 0 17.11 1.72 24.95 4.96 7.84 3.25 15.04 8.03 21.16 14.14 12.23 12.23 28.81 19.1 46.11 19.1h67.79c7.48 18.03 12.89 37.14 15.95 57.02z" fill="#c8effe"/><path d="m477.27 369.2c-8.64 16.87-19.16 32.63-31.29 46.99h-46.13c-8.65 0-17.12-1.72-24.96-4.96-7.84-3.25-15.05-8.03-21.16-14.14-12.23-12.23-28.81-19.1-46.11-19.1h-146.72c-3.82 0-7.6-.34-11.32-.99-4.69-.83-9.26-2.16-13.64-3.97-7.83-3.25-15.04-8.03-21.15-14.14-12.23-12.23-28.82-19.1-46.12-19.1h-46.68c-5.39-15.04-9.37-30.76-11.78-46.99h120.3c8.65 0 17.12 1.72 24.96 4.96 7.83 3.25 15.03 8.02 21.15 14.14 12.23 12.23 28.82 19.1 46.12 19.1h146.72c8.64 0 17.12 1.72 24.95 4.96 7.84 3.25 15.05 8.02 21.16 14.14 12.23 12.23 28.82 19.1 46.11 19.1z" fill="#c8effe"/><g fill="#99e6fc"><path d="m120.89 292.8c4.48 30.18 14.38 58.59 28.69 84.2-4.69-.83-9.26-2.16-13.64-3.97-7.83-3.25-15.04-8.03-21.15-14.14-12.23-12.23-28.82-19.1-46.12-19.1h-46.68c-5.39-15.04-9.37-30.76-11.78-46.99z"/><path d="m130.09 179.77h-110.67c6.52-20.27 15.58-39.4 26.79-57.02h110.68c-11.22 17.62-20.27 36.75-26.8 57.02z"/></g></g><path d="m437.019 74.982c-48.353-48.353-112.64-74.982-181.019-74.982s-132.666 26.629-181.019 74.982c-48.352 48.352-74.981 112.639-74.981 181.018s26.629 132.666 74.981 181.018c48.353 48.353 112.64 74.982 181.019 74.982 61.1 0 120.257-21.877 166.574-61.602 45.814-39.293 76.381-93.562 86.067-152.808.669-4.088-2.104-7.944-6.191-8.612-4.092-.671-7.944 2.103-8.611 6.191-3.796 23.216-11.01 45.615-21.239 66.53h-10.92c-15.414 0-29.906-6.003-40.802-16.899-6.769-6.779-14.707-12.084-23.601-15.771-8.867-3.669-18.227-5.53-27.817-5.53h-146.72c-15.421 0-29.917-6.003-40.817-16.904-6.78-6.78-14.713-12.084-23.589-15.768-8.877-3.668-18.239-5.529-27.825-5.529h-113.751c-1.163-9.648-1.758-19.427-1.758-29.298 0-23.613 3.386-46.704 9.905-68.73h61.775c4.142 0 7.5-3.358 7.5-7.5s-3.358-7.5-7.5-7.5h-56.785c5.404-14.617 12.236-28.68 20.426-42.02h275.329c15.414 0 29.906 6.003 40.811 16.908 6.797 6.786 14.729 12.088 23.585 15.764 8.876 3.668 18.238 5.529 27.824 5.529h62.795c5.279 13.559 9.31 27.613 12.05 42.02h-140.745c-7.604 0-15.034-1.478-22.078-4.388-7.026-2.913-13.329-7.125-18.728-12.515-13.734-13.734-31.993-21.297-51.414-21.297h-138.11c-4.142 0-7.5 3.358-7.5 7.5s3.358 7.5 7.5 7.5h138.11c15.414 0 29.906 6.003 40.812 16.908 6.801 6.789 14.736 12.092 23.594 15.764 8.878 3.668 18.235 5.529 27.814 5.529h143.12c1.262 10.048 1.91 20.239 1.91 30.53 0 2-.022 3.795-.067 5.489-.111 4.141 3.155 7.587 7.296 7.699 4.126.124 7.587-3.155 7.698-7.296.05-1.829.073-3.756.073-5.891 0-68.382-26.629-132.669-74.981-181.021zm-306.509 225.318c7.61 0 15.045 1.478 22.085 4.387 7.04 2.922 13.339 7.133 18.722 12.516 13.733 13.733 31.996 21.297 51.423 21.297h146.72c7.613 0 15.043 1.477 22.078 4.388 7.058 2.926 13.357 7.135 18.729 12.515 13.733 13.734 31.992 21.297 51.413 21.297h2.915c-6.499 11.213-13.895 21.919-22.145 31.99h-42.6c-15.421 0-29.916-6.003-40.816-16.903-6.78-6.781-14.714-12.084-23.589-15.768-8.876-3.668-18.238-5.529-27.824-5.529h-64.6c-4.142 0-7.5 3.358-7.5 7.5s3.358 7.5 7.5 7.5h64.6c7.61 0 15.045 1.478 22.085 4.387 7.039 2.922 13.339 7.133 18.722 12.516 13.733 13.733 31.995 21.297 51.423 21.297h29.223c-5.167 5.335-10.587 10.454-16.264 15.322-43.601 37.394-99.29 57.988-156.81 57.988-64.372 0-124.892-25.069-170.412-70.588-23.017-23.017-40.796-49.875-52.758-79.122h35.84c7.611 0 15.044 1.478 22.088 4.388 7.042 2.919 13.344 7.13 18.729 12.515 13.733 13.734 31.992 21.297 51.413 21.297h47.18c4.142 0 7.5-3.358 7.5-7.5s-3.358-7.5-7.5-7.5h-47.18c-15.415 0-29.906-6.003-40.807-16.903-6.784-6.784-14.721-12.088-23.599-15.768-8.877-3.668-18.238-5.529-27.825-5.529h-41.398c-3.466-10.423-6.204-21.108-8.215-31.99zm287.36-146.85c-7.61 0-15.045-1.478-22.085-4.387-7.024-2.916-13.325-7.128-18.722-12.516-13.733-13.733-31.992-21.297-51.413-21.297h-265.323c7.548-10.446 15.971-20.371 25.262-29.662 45.519-45.519 106.039-70.588 170.411-70.588s124.893 25.069 170.412 70.588c20.031 20.032 36.098 42.97 47.815 67.862z"/></g></svg>