<svg id="Capa_1" enable-background="new 0 0 512 512" height="512" viewBox="0 0 512 512" width="512" xmlns="http://www.w3.org/2000/svg"><g><g><circle cx="413.69" cy="97.988" fill="#e49280" r="90.479"/><path d="m436.432 185.579c-7.262 1.881-14.885 2.881-22.738 2.881-49.978 0-90.482-40.505-90.482-90.472 0-49.968 40.505-90.483 90.482-90.483 7.853 0 15.476 1 22.738 2.881-38.974 10.083-67.754 45.486-67.754 87.601-.001 42.116 28.78 77.508 67.754 87.592z" fill="#dd7f66"/><g><path d="m455.033 219.333c-2.711 37.533-19.057 71.296-44.116 96.345-27.5 27.51-72.556 13.495-114.521 13.495-8.153 0-16.016-.07-23.588-.31-48.097-1.54-84.39-10.154-105.788-53.629-9.954-20.217-15.536-42.965-15.536-67.014 0-20.978 4.252-40.975 11.944-59.151 3.481-8.253 39.434 1.28 44.256-6.142 4.822-7.403-21.498-31.771-15.506-38.214 27.75-29.81 67.334-48.467 111.28-48.467 10.584 0 20.908 1.08 30.881 3.141h.01c47.097 9.723 86.231 41.245 106.378 83.54 9.423 19.777-21.308 5.912-21.308 29.281.001 3.739 35.874 43.453 35.614 47.125z" fill="#01d0fb"/><path d="m272.808 328.862c-48.097-1.54-84.39-10.154-105.788-53.629-9.954-20.217-15.536-42.965-15.536-67.014 0-20.978 4.252-40.975 11.944-59.151 3.481-8.253 39.434 1.28 44.256-6.142 4.822-7.403-21.498-31.771-15.506-38.214 27.75-29.81 67.334-48.467 111.28-48.467 10.584 0 20.908 1.08 30.881 3.141-69.125 14.275-121.083 75.487-121.083 148.833 0 49.157 23.339 92.863 59.552 120.643z" fill="#01c0fa"/><path d="m413.098 313.446c-20.858 21.728-48.117 37.273-78.748 43.605-9.974 2.061-20.307 3.141-30.891 3.141-59.881 0-111.67-34.633-136.439-84.96h140.75c8.653 0 17.126 1.721 24.969 4.962 7.843 3.251 15.055 8.033 21.168 14.145 12.234 12.234 28.82 19.107 46.127 19.107z" fill="#c8effe"/><path d="m455.433 208.219c0 3.741-.13 7.443-.4 11.114-4.852-2.811-9.353-6.262-13.395-10.294-6.112-6.112-13.325-10.894-21.158-14.145-7.843-3.241-16.316-4.962-24.969-4.962h-146.772c-11.714 0-23.108-3.151-33.032-8.993-4.732-2.771-9.143-6.162-13.095-10.114-6.112-6.112-13.325-10.894-21.168-14.145-6.092-2.521-12.564-4.122-19.207-4.702 7.023-17.616 17.246-33.612 29.941-47.267h26.16c8.653 0 17.126 1.721 24.969 4.962 1.531.63 3.031 1.321 4.502 2.061 6.092 3.101 11.724 7.153 16.656 12.084 12.234 12.234 28.83 19.107 46.137 19.107h130.127c9.422 19.777 14.704 41.925 14.704 65.294z" fill="#c8effe"/><g fill="#99e6fc"><path d="m181.445 156.68c-6.092-2.521-12.564-4.122-19.207-4.702 7.023-17.616 17.246-33.612 29.941-47.267h26.16c8.653 0 17.126 1.721 24.969 4.962 1.531.63 3.031 1.321 4.502 2.061-16.096 19.577-27.4 43.245-32.102 69.205-4.732-2.771-9.143-6.162-13.095-10.114-6.113-6.112-13.325-10.894-21.168-14.145z"/><path d="m334.35 357.052c-9.974 2.061-20.307 3.141-30.891 3.141-59.881 0-111.67-34.633-136.439-84.96h61.772c20.387 41.435 59.101 72.236 105.558 81.819z"/></g></g><g><circle cx="171.897" cy="340.415" fill="#fea95c" r="124.999"/><path d="m199.736 462.302c-8.952 2.039-18.27 3.113-27.84 3.113-69.03 0-124.999-55.962-124.999-124.999s55.969-124.999 124.999-124.999c9.569 0 18.888 1.074 27.84 3.113-55.634 12.65-97.166 62.419-97.166 121.886s41.532 109.236 97.166 121.886z" fill="#fe9738"/><path d="m323.211 189.101c-24.766-24.766-80.169-12.257-140.073 26.817 17.544 1.563 34.046 6.753 48.753 14.811 18.817-4.753 34.303-3.093 43.544 6.148 23.936 23.936-3.01 89.699-60.194 146.884-43.023 43.023-90.902 68.927-122.169 68.927-10.296 0-18.785-2.804-24.714-8.733-9.241-9.241-10.9-24.727-6.148-43.544-8.058-14.708-13.248-31.21-14.811-48.753-39.074 59.903-51.583 115.306-26.817 140.072 17.325 17.319 49.634 16.405 87.982.926 39.1-15.782 84.484-46.715 126.671-88.902 83.571-83.564 122.954-179.669 87.976-214.653z" fill="#fef056"/><path d="m108.564 492.656c-38.348 15.479-70.657 16.393-87.982-.926-24.766-24.766-12.257-80.169 26.817-140.073 1.563 17.544 6.753 34.046 14.811 48.753-4.752 18.817-3.093 34.303 6.148 43.544 5.929 5.929 14.418 8.733 24.714 8.733 0 .001-15.151 22.503 15.492 39.969z" fill="#ffd15b"/></g><g><circle cx="76.652" cy="90.328" fill="#ebebeb" r="62.717"/><path d="m96.409 149.867c-6.216 2.063-12.849 3.18-19.755 3.18-34.631 0-62.719-28.079-62.719-62.719s28.088-62.719 62.719-62.719c6.906 0 13.54 1.118 19.755 3.18-24.953 8.269-42.955 31.805-42.955 59.538.001 27.735 18.002 51.27 42.955 59.54z" fill="#e2e2e2"/></g><g><path d="m493.582 379.634-22.368 9.513-9.513 22.368c-.95 2.231-2.801 3.561-4.812 3.981-2.971.64-6.322-.69-7.723-3.981l-9.513-22.368-22.368-9.513c-5.522-2.351-5.522-10.184 0-12.535l22.368-9.513 9.513-22.368c1.441-3.391 4.952-4.702 7.993-3.921 1.911.48 3.631 1.791 4.542 3.921l9.513 22.368 22.368 9.513c5.522 2.351 5.522 10.184 0 12.535z" fill="#fef056"/><path d="m456.889 415.497c-2.971.64-6.322-.69-7.723-3.981l-9.513-22.368-22.368-9.513c-5.522-2.351-5.522-10.184 0-12.535l22.368-9.513 9.513-22.368c1.441-3.391 4.952-4.702 7.993-3.921-4.361 15.934-11.384 51.077-.27 84.199z" fill="#ffd15b"/></g><g><path d="m417.97 458.956-22.368 9.513-9.513 22.368c-.95 2.231-2.801 3.561-4.812 3.981-2.971.64-6.322-.69-7.723-3.981l-9.513-22.368-22.368-9.513c-5.522-2.351-5.522-10.184 0-12.535l22.368-9.513 9.513-22.368c1.44-3.391 4.952-4.702 7.993-3.921 1.911.48 3.631 1.791 4.542 3.921l9.513 22.368 22.368 9.513c5.522 2.351 5.522 10.184 0 12.535z" fill="#fef056"/><path d="m381.277 494.819c-2.971.64-6.322-.69-7.723-3.981l-9.513-22.368-22.368-9.513c-5.522-2.351-5.522-10.184 0-12.535l22.368-9.513 9.513-22.368c1.44-3.391 4.952-4.702 7.993-3.921-4.361 15.934-11.384 51.077-.27 84.199z" fill="#ffd15b"/></g></g><g><path d="m413.675 0c-35.587 0-68.63 19.692-85.745 50.609-7.98-1.235-16.153-1.878-24.474-1.878-87.929 0-159.465 71.536-159.465 159.465 0 .894.009 1.781.023 2.66-59.709 12.843-104.603 66.038-104.603 129.529 0 3.118.113 6.246.328 9.329-19.222 29.894-32.022 58.771-37.025 83.639-5.595 27.807-1.245 49.814 12.58 63.639 9.976 9.981 23.955 15.008 41.281 15.008 11.224 0 23.853-2.11 37.705-6.349 3.96-1.212 6.188-5.406 4.976-9.366-1.212-3.961-5.408-6.186-9.367-4.977-29.17 8.928-51.893 7.18-63.987-4.921-19.055-19.056-12.027-62.673 17.442-113.804 2.487 9.98 6.144 19.62 10.939 28.834-4.665 20.861-1.662 37.355 8.784 47.802 7.261 7.261 17.435 10.936 29.972 10.935 6.324 0 13.252-.936 20.706-2.819 32.228-8.123 72.155-33.658 106.803-68.307 34.649-34.649 60.185-74.575 68.306-106.8 5.615-22.231 2.807-39.756-8.116-50.681-10.447-10.446-26.941-13.45-47.803-8.784-9.215-4.795-18.856-8.453-28.835-10.94 51.128-29.468 94.747-36.498 113.806-17.445 21.112 21.119 10.202 72.407-27.795 130.663-16.417 25.18-36.663 49.864-60.18 73.37-23.465 23.484-48.152 43.73-73.379 60.177-11.92 7.781-23.791 14.562-35.281 20.155-3.724 1.812-5.274 6.301-3.461 10.025 1.298 2.667 3.968 4.219 6.749 4.219 1.101 0 2.22-.244 3.276-.758 11.352-5.525 23.031-12.151 34.743-19.686 3.081.215 6.206.328 9.324.328 63.717 0 117.067-45.213 129.667-105.24.63.007 1.253.025 1.887.025 87.929 0 159.465-71.536 159.465-159.465 0-8.316-.642-16.484-1.875-24.46 13.878-7.672 25.729-18.612 34.489-31.922 2.277-3.46 1.318-8.11-2.141-10.388-3.46-2.277-8.111-1.318-10.387 2.142-6.552 9.956-15.148 18.344-25.162 24.646-14.474-55.857-58.539-99.925-114.395-114.404 15.047-23.842 41.671-38.812 70.226-38.812 45.758 0 82.984 37.223 82.984 82.975 0 5.437-.524 10.853-1.557 16.099-.801 4.064 1.845 8.007 5.908 8.808.49.097.977.143 1.458.143 3.51 0 6.646-2.477 7.35-6.051 1.222-6.199 1.841-12.591 1.841-18.998-.002-54.018-43.958-97.969-97.985-97.969zm-254.685 208.196c0-16.815 2.898-32.964 8.204-47.986 3.89.731 7.703 1.855 11.384 3.379 7.045 2.921 13.349 7.132 18.735 12.519 5.22 5.22 11.161 9.568 17.613 12.954-10.973 5.394-22.258 11.805-33.696 19.16-3.08-.215-6.206-.328-9.329-.328-4.355 0-8.66.218-12.909.63 0-.11-.002-.218-.002-.328zm-91.756 213.413c6.805 8.769 14.674 16.638 23.443 23.443-6.37-.329-12.608-2.041-17.004-6.438-4.397-4.398-6.11-10.635-6.439-17.005zm209.335-162.45c-6.805-8.768-14.674-16.637-23.443-23.442 6.37.329 12.608 2.041 17.004 6.438 4.397 4.397 6.11 10.634 6.439 17.004zm-3.029 22.275c-8.268 29.224-31.832 65.223-63.6 96.99-31.765 31.766-67.762 55.329-96.989 63.599-18.574-10.79-33.807-26.374-44.153-45.252-7.793-14.219-12.476-29.63-13.917-45.813-.313-3.471-.472-7.028-.472-10.574 0-64.785 52.707-117.492 117.492-117.492 3.554 0 7.112.159 10.581.472 16.177 1.441 31.588 6.124 45.806 13.917 18.878 10.346 34.462 25.579 45.252 44.153zm-88.65 175.721c19.072-14.071 37.718-30.192 55.647-48.136 17.959-17.95 34.078-36.593 48.134-55.638-6.018 54.425-49.355 97.76-103.781 103.774zm119.175-126.093c9.812-15.262 17.944-30.254 24.221-44.588.531.201 1.059.406 1.576.621 7.045 2.921 13.349 7.133 18.735 12.519 12.313 12.313 28.266 19.648 45.429 21.04-24.706 19.936-56.083 31.918-90.208 32.002.373-4.042.574-8.134.574-12.272 0-3.119-.112-6.243-.327-9.322zm105.689-25.144h-9.73c-15.419 0-29.916-6.005-40.821-16.91-6.785-6.785-14.725-12.09-23.595-15.768-.566-.235-1.144-.456-1.721-.678 3.174-8.73 5.591-17.146 7.2-25.146 4.014-19.946 2.909-36.906-3.136-50.006h57.552c7.613 0 15.049 1.478 22.092 4.389 7.043 2.923 13.344 7.135 18.735 12.527 3.322 3.314 6.946 6.292 10.812 8.895-3.292 31.722-16.896 60.424-37.388 82.697zm18.448-170.506h-117.601c-9.98 0-19.836-2.604-28.502-7.53-3.6-2.047-8.179-.787-10.226 2.814s-.787 8.179 2.814 10.226c10.922 6.208 23.34 9.489 35.914 9.489h125.246c7.304 16.668 11.557 34.966 12.029 54.187-.312-.298-.64-.579-.945-.884-6.783-6.782-14.718-12.088-23.596-15.772-8.879-3.669-18.243-5.53-27.831-5.53h-68.419c-13.892-12.739-35.345-16.62-62.211-11.214-9.696 1.95-20.002 5.09-30.738 9.325-9.917-2.585-18.943-7.747-26.216-15.02-6.786-6.786-14.726-12.091-23.602-15.771-3.671-1.519-7.447-2.72-11.291-3.617 5.916-12.379 13.547-23.786 22.578-33.921h22.732c7.616 0 15.053 1.477 22.091 4.386 2.212.918 4.368 1.973 6.411 3.134 1.17.665 2.443.981 3.699.981 2.609 0 5.145-1.364 6.527-3.795 2.047-3.601.787-8.179-2.814-10.226-2.576-1.464-5.291-2.792-8.082-3.951-8.876-3.668-18.241-5.528-27.832-5.528h-7.233c25.057-20.882 57.262-33.464 92.353-33.464 53.133-.001 99.652 28.838 124.745 71.681z"/><path d="m76.663 160.525c38.715 0 70.212-31.497 70.212-70.212s-31.496-70.213-70.212-70.213-70.212 31.497-70.212 70.213 31.497 70.212 70.212 70.212zm-45.457-38.923c2.993-1.339 6.258-2.058 9.586-2.058 12.929 0 23.447 10.518 23.447 23.446 0 .368-.026.733-.043 1.099-13.602-3.153-25.291-11.336-32.99-22.487zm81.211 10.734c-7.132-4.144-11.713-11.865-11.713-20.292 0-12.928 10.518-23.446 23.446-23.446 2.642 0 5.253.454 7.717 1.311.001.135.01.268.01.403 0 16.816-7.565 31.889-19.46 42.024zm-35.754-97.237c24.757 0 45.76 16.379 52.743 38.871-1.737-.239-3.493-.371-5.257-.371-21.199 0-38.445 17.246-38.445 38.445 0 11.215 4.947 21.673 13.064 28.849-6.054 2.656-12.668 4.26-19.616 4.57.052-.821.085-1.645.085-2.473 0-21.199-17.247-38.445-38.446-38.445-5.687 0-11.272 1.269-16.352 3.653-1.928-5.613-2.99-11.626-2.99-17.885.001-30.445 24.77-55.214 55.214-55.214z"/><path d="m64.587 97.812c14.517 0 26.327-11.81 26.327-26.327s-11.811-26.327-26.327-26.327-26.327 11.81-26.327 26.327c-.001 14.517 11.81 26.327 26.327 26.327zm0-37.655c6.247 0 11.328 5.082 11.328 11.328 0 6.247-5.082 11.328-11.328 11.328s-11.328-5.082-11.328-11.328c-.001-6.246 5.081-11.328 11.328-11.328z"/><path d="m105.748 68.521c4.142 0 7.5-3.358 7.5-7.5v-.494c0-4.142-3.357-7.5-7.5-7.5-4.142 0-7.5 3.358-7.5 7.5v.494c.001 4.142 3.358 7.5 7.5 7.5z"/><path d="m496.501 360.167-19.583-8.332-8.332-19.584c-2.251-5.289-7.418-8.706-13.166-8.706s-10.915 3.417-13.166 8.706l-8.332 19.583-19.583 8.332c-5.29 2.25-8.707 7.418-8.707 13.165 0 5.748 3.418 10.916 8.707 13.167l19.584 8.332 8.332 19.583c2.251 5.289 7.418 8.706 13.166 8.706s10.915-3.417 13.166-8.707l8.332-19.583 19.584-8.332c5.289-2.25 8.706-7.419 8.706-13.167 0-5.746-3.418-10.913-8.708-13.163zm-28.236 22.045c-1.784.759-3.205 2.181-3.965 3.965l-8.879 20.87-8.879-20.87c-.76-1.785-2.181-3.206-3.965-3.965l-20.871-8.88 20.871-8.879c1.784-.759 3.205-2.181 3.965-3.965l8.879-20.87 8.879 20.87c.76 1.785 2.181 3.206 3.965 3.965l20.871 8.879zm22.366-8.243c-.001 0-.001-.001 0 0l2.935-6.901z"/><path d="m420.895 439.483-19.584-8.332-8.332-19.584c-2.251-5.289-7.419-8.706-13.167-8.706s-10.915 3.418-13.164 8.706l-8.332 19.584-19.584 8.332c-5.289 2.25-8.706 7.418-8.706 13.166s3.418 10.915 8.706 13.165l19.584 8.332 8.332 19.583c2.249 5.289 7.417 8.707 13.164 8.707h.001c5.748 0 10.915-3.417 13.166-8.706l8.332-19.583 19.583-8.332c5.29-2.25 8.707-7.418 8.707-13.165 0-5.748-3.417-10.916-8.706-13.167zm-28.238 22.046c-1.784.759-3.206 2.181-3.965 3.965l-8.879 20.869-8.879-20.87c-.76-1.785-2.181-3.205-3.965-3.965l-20.871-8.879 20.871-8.879c1.784-.759 3.205-2.18 3.965-3.965l8.879-20.87 8.879 20.869c.76 1.785 2.181 3.206 3.965 3.965l20.871 8.879z"/></g></g></svg>