<svg id="Capa_1" enable-background="new 0 0 511.901 511.901" height="512" viewBox="0 0 511.901 511.901" width="512" xmlns="http://www.w3.org/2000/svg"><g><g><circle cx="255.912" cy="255.949" fill="#e49280" r="189.312"/><path d="m298.075 440.547c-13.558 3.087-27.671 4.714-42.164 4.714-104.547 0-189.312-84.756-189.312-189.312 0-104.557 84.765-189.312 189.312-189.312 14.493 0 28.606 1.627 42.164 4.714-84.259 19.158-147.158 94.534-147.158 184.598s62.899 165.44 147.158 184.598z" fill="#dd7f66"/><path d="m485.079 26.782c-37.508-37.508-121.416-18.564-212.142 40.615 26.57 2.367 51.562 10.227 73.837 22.431 28.499-7.198 51.952-4.685 65.948 9.311 36.251 36.251-4.558 135.851-91.164 222.457-65.159 65.159-137.672 104.391-185.027 104.391-15.593 0-28.45-4.247-37.43-13.227-13.996-13.996-16.509-37.449-9.311-65.948-12.204-22.275-20.064-47.267-22.431-73.837-59.179 90.726-78.123 174.634-40.615 212.142 26.239 26.229 75.172 24.846 133.25 1.403 59.218-23.901 127.952-70.75 191.845-134.643 126.568-126.559 186.215-272.111 133.24-325.095z" fill="#fef056"/><path d="m159.994 486.519c-58.078 23.444-107.011 24.827-133.25-1.403-37.508-37.507-18.564-121.415 40.615-212.142 2.367 26.57 10.227 51.562 22.431 73.837-7.198 28.499-4.685 51.952 9.311 65.948 8.98 8.98 21.837 13.227 37.43 13.227 0 0-22.947 34.08 23.463 60.533z" fill="#ffd15b"/><g fill="#017297"><path d="m255.913 281.457c-11.778 0-21.326-9.548-21.326-21.326 0-20.199 11.424-38.608 29.812-48.043 6.696-3.436 10.675-10.523 10.135-18.054-.639-8.912-7.8-16.288-16.658-17.159-10.071-.994-19.068 6.012-20.455 15.944-.12.862-.181 1.746-.181 2.631 0 11.778-9.548 21.326-21.326 21.326s-21.326-9.548-21.326-21.326c0-2.854.198-5.724.592-8.531 4.559-32.671 33.943-55.726 66.87-52.493 29.746 2.924 52.888 26.709 55.027 56.556 1.767 24.616-11.267 47.797-33.205 59.054-4.092 2.099-6.633 5.967-6.633 10.094 0 11.779-9.548 21.327-21.326 21.327z"/><path d="m255.913 345.01c-11.778 0-21.326-9.548-21.326-21.326v-.126c0-11.778 9.548-21.326 21.326-21.326s21.326 9.548 21.326 21.326v.126c0 11.778-9.548 21.326-21.326 21.326z"/></g><g><path d="m99.677 67.846-22.36 9.51-9.51 22.36c-.95 2.23-2.8 3.56-4.81 3.98-2.97.64-6.32-.69-7.72-3.98l-9.51-22.36-22.36-9.51c-5.52-2.35-5.52-10.18 0-12.53l22.36-9.51 9.51-22.36c1.44-3.39 4.95-4.7 7.99-3.92 1.91.48 3.63 1.79 4.54 3.92l9.51 22.36 22.36 9.51c5.52 2.35 5.52 10.18 0 12.53z" fill="#fef056"/><path d="m62.997 103.696c-2.97.64-6.32-.69-7.72-3.98l-9.51-22.36-22.36-9.51c-5.52-2.35-5.52-10.18 0-12.53l22.36-9.51 9.51-22.36c1.44-3.39 4.95-4.7 7.99-3.92-4.36 15.93-11.38 51.06-.27 84.17z" fill="#ffd15b"/></g><g><path d="m488.417 456.586-22.36 9.51-9.51 22.36c-.95 2.23-2.8 3.56-4.81 3.98-2.97.64-6.32-.69-7.72-3.98l-9.51-22.36-22.36-9.51c-5.52-2.35-5.52-10.18 0-12.53l22.36-9.51 9.51-22.36c1.44-3.39 4.95-4.7 7.99-3.92 1.91.48 3.63 1.79 4.54 3.92l9.51 22.36 22.36 9.51c5.52 2.35 5.52 10.18 0 12.53z" fill="#fef056"/><path d="m451.737 492.436c-2.97.64-6.32-.69-7.72-3.98l-9.51-22.36-22.36-9.51c-5.52-2.35-5.52-10.18 0-12.53l22.36-9.51 9.51-22.36c1.44-3.39 4.95-4.7 7.99-3.92-4.36 15.93-11.38 51.06-.27 84.17z" fill="#ffd15b"/></g></g><g><path d="m490.385 21.476c-38.863-38.863-122.79-24.174-219.382 38.247-4.95-.38-10.01-.584-15.091-.584-94.637 0-175.982 67.401-193.421 160.266-.765 4.071 1.916 7.991 5.987 8.755.468.088.934.13 1.393.13 3.537 0 6.686-2.514 7.363-6.117 16.108-85.777 91.253-148.034 178.679-148.034 5.527 0 11.028.245 16.367.731 25.039 2.223 48.888 9.469 70.89 21.537 29.69 16.263 54.108 40.343 70.823 69.725-12.296 45.165-48.609 101.032-97.737 150.16-49.127 49.127-104.993 85.44-150.16 97.737-29.383-16.715-53.461-41.134-69.727-70.827-12.066-21.998-19.312-45.848-21.536-70.902-.484-5.321-.729-10.823-.729-16.351v-.47c0-4.142-3.358-7.5-7.5-7.5s-7.5 3.358-7.5 7.5v.47c0 5.086.204 10.149.584 15.092-62.421 96.592-77.109 180.52-38.247 219.382 14.392 14.393 34.964 21.441 60.074 21.441 42.686 0 98.485-20.387 159.3-59.687 4.976.38 10.039.584 15.1.584 108.522 0 196.812-88.29 196.812-196.812 0-5.063-.204-10.129-.585-15.108 25.478-39.447 43.766-78.231 52.907-112.299 1.074-4.001-1.299-8.114-5.3-9.188-3.997-1.073-8.114 1.3-9.187 5.3-8.904 33.184-27.016 71.28-52.379 110.167-25.01 38.355-55.842 75.954-91.641 111.753s-73.398 66.631-111.754 91.641c-58.896 38.42-113.376 58.67-153.314 58.667-20.977-.002-37.948-5.591-49.425-17.068-31.184-31.177-18.901-102.834 30.787-185.492 3.669 18.65 10.032 36.562 18.994 53.49-7.223 30.927-3.107 55.177 11.967 70.251 10.248 10.248 24.736 15.433 42.679 15.433 9.252 0 19.424-1.379 30.405-4.152 48.166-12.14 107.971-50.437 159.979-102.445 52.008-52.007 90.305-111.813 102.444-159.975 8.153-32.282 4.253-57.556-11.279-73.088-15.075-15.075-39.326-19.191-70.251-11.968-16.931-8.963-34.844-15.326-53.489-18.994 82.658-49.688 154.314-61.971 185.493-30.791 13.284 13.284 18.893 33.539 16.669 60.203-.344 4.128 2.723 7.753 6.851 8.097.212.018.423.026.632.026 3.86 0 7.139-2.961 7.466-6.877 2.57-30.824-4.695-55.74-21.011-72.056zm-133.24 335.707c30.508-30.509 57.486-62.331 80.454-94.839-3.308 95.177-80.116 171.985-175.293 175.293 32.508-22.969 64.33-49.946 94.839-80.454zm-252.741 50.274c-10.108-10.108-12.014-25.347-10.67-39.982 13.658 19.861 30.806 37.007 50.668 50.663-21.658 2-33.574-4.258-39.998-10.681zm303.015-303.015c10.107 10.108 12.014 25.346 10.67 39.982-13.658-19.861-30.806-37.007-50.668-50.663 21.658-2 33.574 4.257 39.998 10.681z"/><path d="m315.584 211.405c4.105.581 7.896-2.277 8.474-6.378.681-4.825.847-9.734.495-14.582-2.392-33.503-28.369-60.2-61.767-63.479-36.957-3.639-69.914 22.244-75.03 58.897-.441 3.099-.665 6.324-.665 9.586 0 15.897 12.929 28.83 28.82 28.83 15.897 0 28.83-12.933 28.83-28.83 0-.536.038-1.088.107-1.59.831-5.938 6.217-10.125 12.29-9.516 5.183.508 9.537 4.999 9.912 10.221.324 4.528-2.062 8.789-6.071 10.851-20.909 10.721-33.898 31.687-33.898 54.714 0 15.896 12.933 28.83 28.83 28.83s28.83-12.933 28.83-28.83c0-1.279 1.003-2.621 2.554-3.418 7.947-4.078 14.917-9.558 20.716-16.285 2.705-3.138 2.354-7.873-.784-10.578-3.138-2.704-7.873-2.353-10.578.784-4.532 5.258-9.984 9.542-16.205 12.735-6.603 3.39-10.704 9.813-10.704 16.762 0 7.625-6.204 13.83-13.83 13.83s-13.83-6.204-13.83-13.83c0-17.374 9.864-33.225 25.75-41.37 9.369-4.817 14.935-14.735 14.181-25.268-.898-12.504-10.962-22.855-23.4-24.076-14.099-1.397-26.667 8.423-28.62 22.37-.167 1.198-.251 2.431-.251 3.664 0 7.626-6.204 13.83-13.83 13.83-7.62 0-13.82-6.204-13.82-13.83 0-2.558.173-5.072.518-7.493 4.002-28.675 29.786-48.912 58.709-46.063 26.101 2.563 46.402 23.431 48.272 49.629.276 3.798.146 7.636-.386 11.409-.576 4.102 2.279 7.896 6.381 8.474z"/><path d="m255.913 294.731c-15.895 0-28.826 12.932-28.826 28.827v.125c0 15.895 12.931 28.826 28.826 28.826s28.827-12.931 28.827-28.826v-.125c-.001-15.895-12.932-28.827-28.827-28.827zm13.826 28.953c0 7.624-6.203 13.826-13.827 13.826s-13.826-6.203-13.826-13.826v-.125c0-7.624 6.202-13.827 13.826-13.827s13.827 6.203 13.827 13.827z"/><path d="m20.472 74.744 19.577 8.329 8.329 19.576c2.25 5.288 7.417 8.705 13.165 8.705s10.915-3.417 13.165-8.705l8.329-19.576 19.576-8.329c5.289-2.25 8.706-7.417 8.706-13.165 0-5.747-3.417-10.915-8.706-13.164l-19.577-8.329-8.329-19.576c-2.25-5.288-7.417-8.705-13.165-8.705s-10.915 3.417-13.165 8.705l-8.329 19.576-19.577 8.329c-5.289 2.25-8.706 7.417-8.706 13.164.001 5.747 3.418 10.915 8.707 13.165zm28.23-22.039c1.785-.759 3.206-2.18 3.965-3.965l8.874-20.858 8.875 20.858c.759 1.785 2.181 3.206 3.965 3.965l20.858 8.874-20.858 8.875c-1.784.759-3.206 2.18-3.965 3.965l-8.875 20.858-8.874-20.858c-.759-1.785-2.18-3.206-3.965-3.965l-20.858-8.874z"/><path d="m491.352 437.155-19.577-8.329-8.329-19.576c-2.25-5.289-7.417-8.706-13.165-8.706s-10.915 3.417-13.165 8.706l-8.329 19.577-19.576 8.329c-5.289 2.25-8.706 7.417-8.706 13.165s3.417 10.915 8.706 13.165l19.576 8.329 8.329 19.577c2.25 5.288 7.417 8.705 13.165 8.705s10.915-3.417 13.165-8.706l8.329-19.577 19.577-8.329c5.288-2.25 8.705-7.417 8.705-13.165s-3.417-10.915-8.705-13.165zm-28.231 22.038c-1.785.759-3.206 2.181-3.965 3.965l-8.874 20.858-8.875-20.858c-.759-1.785-2.181-3.206-3.965-3.965l-20.858-8.874 20.858-8.875c1.784-.759 3.206-2.181 3.965-3.965l8.875-20.858 8.874 20.858c.759 1.785 2.18 3.206 3.965 3.965l20.858 8.875z"/></g></g></svg>