<svg id="Capa_1" enable-background="new 0 0 511.86 511.86" height="512" viewBox="0 0 511.86 511.86" width="512" xmlns="http://www.w3.org/2000/svg"><g><g><path d="m504.142 454.025-270.388-98.102-226.036 98.102v21.446c0 15.955 12.934 28.889 28.889 28.889h438.645c15.955 0 28.889-12.934 28.889-28.889v-21.446z" fill="#fe9738"/><path d="m424.816 7.5h-337.772c-17.995 0-32.583 14.588-32.583 32.583v244.529l196.319 20.503 206.618-20.503v-244.529c0-17.995-14.587-32.583-32.582-32.583z" fill="#fea95c"/><path d="m265.26 303.676-14.476 1.44-196.323-20.504v-244.529c0-17.995 14.586-32.58 32.581-32.58h28.232c-17.995 0-32.581 14.586-32.581 32.58v244.529z" fill="#fe9738"/><path d="m457.398 284.611h-402.937l-46.743 169.414h496.424z" fill="#fea95c"/><path d="m82.693 284.611-46.746 169.411h-28.232l46.746-169.411z" fill="#fe9738"/><path d="m441.244 417.036h-370.633c-7.198 0-12.426-6.858-10.507-13.806l13.056-47.306 183.066-20.452 182.478 20.452 13.046 47.306c1.92 6.948-3.308 13.806-10.506 13.806z" fill="#ebebeb"/><path d="m396.406 355.923h-118.296l-21.963-11.009-22.393 11.009h-118.296l-15.178-20.451c1.3-4.729 17.558-13.869 22.456-13.869h112.167l21.324 13.869 20.734-13.869h112.167c4.909 0 22.069 12.431 23.368 17.16z" fill="#01d0fb"/><path d="m88.095 321.603h34.64l-7.278 34.32h-45.127l7.258-26.322c1.3-4.729 5.608-7.998 10.507-7.998z" fill="#fef056"/><path d="m435.864 355.923h-39.459l-7.278-34.32h28.973c4.909 0 9.207 3.269 10.507 7.998z" fill="#fef056"/><path d="m233.753 355.923 1.149-34.32h42.059l1.149 34.32z" fill="#fe7c66"/><path d="m91.451 233.821v-175.531c0-7.622 6.179-13.801 13.801-13.801h301.357c7.622 0 13.801 6.179 13.801 13.801v175.53c0 7.622-6.179 13.801-13.801 13.801h-301.357c-7.622.001-13.801-6.178-13.801-13.8z" fill="#017297"/><g><circle cx="252.811" cy="149.183" fill="#fef056" r="54.967"/><path d="m303.719 169.969c-2.685 6.582-6.696 12.744-12.041 18.089-21.461 21.461-56.266 21.461-77.735-.008s-21.47-56.274-.008-77.735c5.345-5.345 11.507-9.356 18.089-12.041-8.103 19.877-4.1 43.529 12.033 59.662s39.786 20.136 59.662 12.033z" fill="#ffd15b"/></g><path d="m435.874 355.923h-.01" fill="#01d0fb"/></g><g><path d="m455.886 417.281c3.511-4.611 4.641-10.458 3.099-16.044l-20.313-73.627c-2.194-7.955-9.49-13.51-17.741-13.51h-330c-8.251 0-15.547 5.555-17.741 13.51l-20.314 73.626c-1.542 5.586-.412 11.435 3.099 16.045s8.848 7.255 14.643 7.255h370.628c5.793 0 11.129-2.644 14.64-7.255zm-31.674-85.682 4.642 16.824h-26.372l-4.097-19.323h22.545c1.527 0 2.876 1.028 3.282 2.499zm-299.497 16.824 4.097-19.323h98.335l-.647 19.323zm117.441-19.323h27.551l.647 19.323h-28.845zm43.207 19.323-.647-19.323h98.335l4.097 19.323zm-194.433-19.323h22.548l-4.097 19.323h-26.375l4.642-16.824c.406-1.471 1.756-2.499 3.282-2.499zm-23.023 79.094c-.381-.501-.963-1.553-.573-2.968l11.534-41.802h36.57c.009 0 .019.001.028.001.006 0 .011-.001.017-.001h280.899c.006 0 .011.001.017.001.009 0 .019-.001.028-.001h36.567l11.533 41.803c.39 1.414-.192 2.466-.573 2.967-.382.501-1.241 1.342-2.709 1.342h-370.629c-1.468 0-2.327-.841-2.709-1.342z"/><path d="m511.629 453.916c-.01-.629-.091-1.26-.262-1.88l-46.47-168.439v-243.517c0-22.1-17.979-40.08-40.08-40.08h-337.769c-22.105 0-40.09 17.98-40.09 40.08v162.65c0 4.142 3.357 7.5 7.5 7.5s7.5-3.358 7.5-7.5v-162.65c0-13.829 11.255-25.08 25.09-25.08h337.77c13.829 0 25.08 11.251 25.08 25.08v237.03h-387.94v-39.42c0-4.142-3.357-7.5-7.5-7.5s-7.5 3.358-7.5 7.5v45.906l-46.469 168.44c-.174.629-.254 1.27-.261 1.909-.001.028-.009.053-.009.081v21.446c0 20.065 16.324 36.389 36.39 36.389h438.645c20.065 0 36.39-16.324 36.39-36.389v-21.446c-.002-.039-.012-.073-.015-.11zm-36.377 42.944h-438.644c-11.794 0-21.39-9.595-21.39-21.389v-13.941h334.7c4.143 0 7.5-3.358 7.5-7.5s-3.357-7.5-7.5-7.5h-332.35l42.602-154.42h391.518l42.602 154.42h-109.432c-4.143 0-7.5 3.358-7.5 7.5s3.357 7.5 7.5 7.5h111.784v13.941c0 11.794-9.596 21.389-21.39 21.389z"/><path d="m306.718 36.99h-201.47c-11.745 0-21.301 9.555-21.301 21.3v175.53c0 11.745 9.556 21.3 21.301 21.3h301.359c11.745 0 21.301-9.555 21.301-21.3v-175.53c0-11.745-9.556-21.3-21.301-21.3h-64.91c-4.143 0-7.5 3.358-7.5 7.5s3.357 7.5 7.5 7.5h64.91c3.475 0 6.301 2.826 6.301 6.3v175.53c0 3.474-2.826 6.3-6.301 6.3h-301.358c-3.475 0-6.301-2.826-6.301-6.3v-175.53c0-3.474 2.826-6.3 6.301-6.3h201.47c4.143 0 7.5-3.358 7.5-7.5s-3.358-7.5-7.501-7.5z"/><path d="m394.378 71.896c0-4.142-3.357-7.5-7.5-7.5h-35.159c-4.143 0-7.5 3.358-7.5 7.5s3.357 7.5 7.5 7.5h27.659v25.87c0 4.142 3.357 7.5 7.5 7.5s7.5-3.358 7.5-7.5z"/><path d="m117.484 220.212c0 4.142 3.357 7.5 7.5 7.5h35.16c4.143 0 7.5-3.358 7.5-7.5s-3.357-7.5-7.5-7.5h-27.66v-25.87c0-4.142-3.357-7.5-7.5-7.5s-7.5 3.358-7.5 7.5z"/><path d="m160.144 64.396h-35.16c-4.143 0-7.5 3.358-7.5 7.5v33.37c0 4.142 3.357 7.5 7.5 7.5s7.5-3.358 7.5-7.5v-25.87h27.66c4.143 0 7.5-3.358 7.5-7.5s-3.357-7.5-7.5-7.5z"/><path d="m386.878 179.342c-4.143 0-7.5 3.358-7.5 7.5v25.87h-27.659c-4.143 0-7.5 3.358-7.5 7.5s3.357 7.5 7.5 7.5h35.159c4.143 0 7.5-3.358 7.5-7.5v-33.37c0-4.142-3.357-7.5-7.5-7.5z"/><path d="m296.983 105.012c-11.8-11.799-27.486-18.296-44.172-18.296-4.033 0-8.005.388-11.88 1.13-21.865-16.107-49.324-31.457-61.997-18.787-11.946 11.947 1.272 37.227 15.63 57.604-8.605 22.354-3.924 48.69 14.076 66.69 12.18 12.179 28.173 18.267 44.171 18.267 7.646 0 15.287-1.408 22.517-4.19 14.81 10.435 32.211 20.268 45.201 20.268 4.878 0 9.134-1.386 12.396-4.648 12.679-12.68-2.689-40.156-18.802-62.021 1.106-5.771 1.391-11.668.865-17.506l20.722-13.838h24.823c4.143 0 7.5-3.358 7.5-7.5s-3.357-7.5-7.5-7.5h-27.098c-1.482 0-2.933.439-4.165 1.263l-17.776 11.871c-3.017-8.328-7.846-16.141-14.511-22.807zm-107.475-25.318c1.44-.965 11.613-.741 34.049 14.266-5.425 2.882-10.45 6.586-14.917 11.053-2.186 2.186-4.167 4.498-5.96 6.908-13.914-21.314-14.022-30.936-13.172-32.227zm29.74 103.053c-8.966-8.965-13.903-20.885-13.903-33.564 0-2.541.207-5.048.596-7.51 7.702 9.513 16.457 19.214 25.813 28.57 9.345 9.344 19.034 18.089 28.536 25.784-14.51 2.297-29.885-2.122-41.042-13.28zm103.102 29.668c-1.341.908-10.965.811-32.277-13.101 2.41-1.793 4.723-3.775 6.909-5.96h.001c4.519-4.519 8.195-9.565 11.037-14.941 15.02 22.448 15.245 32.616 14.33 34.002zm-35.975-29.668c-2.881 2.881-6.044 5.312-9.4 7.296-11.341-8.591-23.225-19.018-34.614-30.407-11.394-11.393-21.823-23.282-30.417-34.627 2.008-3.382 4.449-6.537 7.303-9.391 8.965-8.965 20.885-13.903 33.563-13.903s24.6 4.938 33.564 13.903c5.997 5.997 10.039 13.216 12.149 20.86l-12.724 8.498c-3.444 2.301-4.372 6.958-2.072 10.402 1.446 2.165 3.822 3.336 6.244 3.336 1.432 0 2.879-.409 4.158-1.264l5.926-3.958c-.964 10.682-5.521 21.096-13.68 29.255z"/><path d="m322.585 98.714c0 4.142 3.357 7.5 7.5 7.5h30.447c4.143 0 7.5-3.358 7.5-7.5s-3.357-7.5-7.5-7.5h-30.447c-4.142 0-7.5 3.358-7.5 7.5z"/><path d="m197.471 195.723c0-4.142-3.357-7.5-7.5-7.5h-42.341c-4.143 0-7.5 3.358-7.5 7.5s3.357 7.5 7.5 7.5h42.341c4.143 0 7.5-3.358 7.5-7.5z"/><path d="m140.13 172.252c0 4.142 3.357 7.5 7.5 7.5h27.098c4.143 0 7.5-3.358 7.5-7.5s-3.357-7.5-7.5-7.5h-27.098c-4.142 0-7.5 3.358-7.5 7.5z"/></g></g></svg>