<svg id="Capa_1" enable-background="new 0 0 512 512" height="512" viewBox="0 0 512 512" width="512" xmlns="http://www.w3.org/2000/svg"><g><g><path d="m441.381 222.654c-9.889 0-17.906 8.017-17.906 17.906v33.486h35.813v-33.486c-.001-9.889-8.018-17.906-17.907-17.906z" fill="#fef056"/><path d="m90.482 99.553h34.729v89.788h-34.729z" fill="#cecece"/><path d="m133.697 174.941h-51.7c-10.691 0-19.357 8.666-19.357 19.357v76.069h90.414v-76.069c0-10.69-8.667-19.357-19.357-19.357z" fill="#017297"/><path d="m107.089 174.938c-10.7 0-19.36 8.67-19.36 19.36v76.07h-25.09v-76.07c0-10.69 8.67-19.36 19.36-19.36z" fill="#025f80"/><path d="m277.37 318.785c-1.303 0-2.626-.171-3.944-.529-7.994-2.173-12.712-10.416-10.539-18.41l42.398-155.946c1.297-4.77 4.86-8.594 9.526-10.225 4.667-1.629 9.836-.857 13.822 2.067l43.488 31.91 13.747-77.026c1.456-8.155 9.249-13.585 17.402-12.131 8.155 1.456 13.587 9.247 12.131 17.402l-17.978 100.727c-.91 5.099-4.386 9.367-9.194 11.291-4.812 1.924-10.271 1.23-14.446-1.833l-45.282-33.227-36.666 134.862c-1.815 6.675-7.864 11.068-14.465 11.068z" fill="#017297"/><path d="m259.868 215.471h-139.162c-10.592 0-19.179 8.587-19.179 19.179v21.35l73.55 22.282 103.97-22.282v-21.35c0-10.593-8.587-19.179-19.179-19.179z" fill="#e2e2e2"/><path d="m194.107 274.2-19.03 4.08-73.55-22.28v-21.35c0-10.6 8.58-19.18 19.17-19.18h32.5c-10.59 0-19.18 8.58-19.18 19.18v21.35z" fill="#cecece"/><g><path d="m159.705 113.953h-103.717c-15.227 0-27.572-12.344-27.572-27.572v-51.306c0-15.227 12.344-27.572 27.572-27.572h103.717c15.227 0 27.572 12.344 27.572 27.572v51.307c-.001 15.227-12.345 27.571-27.572 27.571z" fill="#ebebeb"/><path d="m89.097 113.952h-33.1c-15.23 0-27.58-12.34-27.58-27.57v-51.3c0-15.23 12.35-27.58 27.58-27.58h33.1c-15.22 0-27.57 12.35-27.57 27.58v51.3c0 15.23 12.35 27.57 27.57 27.57z" fill="#e2e2e2"/><circle cx="107.846" cy="60.728" fill="#017297" r="25.617"/><path d="m117.729 84.368c-3.04 1.28-6.38 1.98-9.89 1.98-14.14 0-25.61-11.47-25.61-25.62s11.47-25.62 25.61-25.62c3.51 0 6.85.7 9.89 1.98-9.25 3.86-15.74 12.99-15.74 23.64s6.49 19.78 15.74 23.64z" fill="#025f80"/></g><path d="m470.498 7.503h-47.023v34.45h61.778c5.439 0 9.848-4.409 9.848-9.848-.001-13.587-11.016-24.602-24.603-24.602z" fill="#017297"/><path d="m470.498 99.553h-47.023v-34.45h61.778c5.439 0 9.848 4.409 9.848 9.848-.001 13.588-11.016 24.602-24.603 24.602z" fill="#017297"/><path d="m427.238 7.503h-59.781c-9.41 0-17.039 7.629-17.039 17.039v57.972c0 9.41 7.629 17.039 17.039 17.039h59.781c9.41 0 17.039-7.629 17.039-17.039v-57.972c-.001-9.41-7.629-17.039-17.039-17.039z" fill="#ebebeb"/><path d="m391.357 99.553h-23.9c-9.41 0-17.04-7.63-17.04-17.04v-57.97c0-9.41 7.63-17.04 17.04-17.04h23.9c-9.41 0-17.04 7.63-17.04 17.04v57.97c0 9.41 7.63 17.04 17.04 17.04z" fill="#e2e2e2"/><g fill="#ebebeb"><circle cx="382.657" cy="193.988" r="25.557"/><circle cx="319.759" cy="147.835" r="25.557"/><path d="m444.226 346.016h-381.587c-12.326 0-22.318-9.992-22.318-22.318v-45.379c0-12.326 9.992-22.318 22.318-22.318h381.586c12.326 0 22.318 9.992 22.318 22.318v45.379c.001 12.326-9.991 22.318-22.317 22.318z"/></g><path d="m104.551 346.01h-41.91c-12.33 0-22.32-9.99-22.32-22.31v-45.38c0-12.33 9.99-22.32 22.32-22.32h41.91c-12.33 0-22.32 9.99-22.32 22.32v45.38c0 12.32 9.99 22.31 22.32 22.31z" fill="#e2e2e2"/><g><path d="m83.088 453.31c-8.284 0-15-6.716-15-15v-101.698c0-3.978 1.58-7.793 4.393-10.606l36.877-36.877c5.857-5.858 15.355-5.858 21.213 0 5.858 5.857 5.858 15.355 0 21.213l-32.483 32.484v95.485c0 8.283-6.715 14.999-15 14.999z" fill="#017297"/></g><g><path d="m424.534 453.31c8.284 0 15-6.716 15-15v-101.698c0-3.978-1.58-7.793-4.393-10.606l-36.877-36.877c-5.857-5.858-15.355-5.858-21.213 0-5.858 5.857-5.858 15.355 0 21.213l32.483 32.484v95.485c0 8.283 6.716 14.999 15 14.999z" fill="#017297"/></g><g><path d="m253.811 453.31c8.284 0 15-6.716 15-15v-101.698c0-3.978-1.58-7.793-4.393-10.606l-36.877-36.877c-5.857-5.858-15.355-5.858-21.213 0-5.858 5.857-5.858 15.355 0 21.213l32.483 32.484v95.485c0 8.283 6.716 14.999 15 14.999z" fill="#017297"/></g><g><g><circle cx="83.088" cy="438.31" fill="#ebebeb" r="66.19"/><path d="m96.639 503.11c-4.38.91-8.91 1.39-13.55 1.39-36.56 0-66.19-29.64-66.19-66.19 0-36.56 29.63-66.19 66.19-66.19 4.64 0 9.17.48 13.55 1.39-30.05 6.25-52.64 32.88-52.64 64.8-.001 31.91 22.59 58.55 52.64 64.8z" fill="#e2e2e2"/><circle cx="83.088" cy="438.31" fill="#017297" r="21.842"/></g><g><circle cx="253.811" cy="438.31" fill="#ebebeb" r="66.19"/><path d="m267.361 503.11c-4.38.91-8.91 1.39-13.55 1.39-36.56 0-66.19-29.64-66.19-66.19 0-36.56 29.63-66.19 66.19-66.19 4.64 0 9.17.48 13.55 1.39-30.05 6.25-52.64 32.88-52.64 64.8 0 31.91 22.59 58.55 52.64 64.8z" fill="#e2e2e2"/><circle cx="253.811" cy="438.31" fill="#017297" r="21.842"/></g><g><circle cx="424.534" cy="438.31" fill="#ebebeb" r="66.19"/><path d="m438.084 503.11c-4.38.91-8.91 1.39-13.55 1.39-36.56 0-66.19-29.64-66.19-66.19 0-36.56 29.63-66.19 66.19-66.19 4.64 0 9.17.48 13.55 1.39-30.05 6.25-52.64 32.88-52.64 64.8 0 31.91 22.59 58.55 52.64 64.8z" fill="#e2e2e2"/><circle cx="424.534" cy="438.31" fill="#017297" r="21.842"/></g></g><path d="m334.633 293.24c8.081 0 14.632 6.551 14.632 14.632v38.144h-29.265v-38.144c.001-8.081 6.552-14.632 14.633-14.632z" fill="#01d0fb"/><path d="m305.368 293.24c8.081 0 14.632 6.551 14.632 14.632v38.144h-29.265v-38.144c.001-8.081 6.552-14.632 14.633-14.632z" fill="#01d0fb"/><path d="m168.45 308.776c-8.081 0-14.632-6.551-14.632-14.632v-38.144h29.265v38.144c0 8.081-6.551 14.632-14.633 14.632z" fill="#01d0fb"/></g><g><path d="m74.729 60.729c0 18.261 14.856 33.117 33.117 33.117s33.117-14.856 33.117-33.117-14.856-33.118-33.117-33.118-33.117 14.856-33.117 33.118zm51.235 0c0 9.99-8.127 18.117-18.117 18.117s-18.117-8.127-18.117-18.117 8.127-18.118 18.117-18.118 18.117 8.127 18.117 18.118z"/><path d="m470.501 107.05c8.574 0 16.634-3.337 22.688-9.391 6.069-6.057 9.412-14.122 9.412-22.709 0-9.566-7.783-17.35-17.351-17.35h-33.475v-8.15h33.475c9.567 0 17.351-7.779 17.351-17.34 0-8.588-3.343-16.653-9.406-22.703-6.066-6.066-14.126-9.407-22.694-9.407l-103.044.003c-13.531 0-24.539 11.008-24.539 24.539v57.973c0 13.531 11.008 24.539 24.539 24.539h7.866l-8.47 47.43-14.265-10.466c-1.9-16.435-15.894-29.239-32.829-29.239-18.228 0-33.057 14.829-33.057 33.057 0 6.402 1.835 12.381 4.999 17.449l-13.577 49.937c-4.776-4.491-11.198-7.251-18.256-7.251h-99.317v-13.671c0-14.811-12.045-26.86-26.85-26.86h-.99v-45.99h26.999c19.337 0 35.07-15.732 35.07-35.07v-51.31c0-19.338-15.733-35.07-35.07-35.07h-7.24c-4.142 0-7.5 3.358-7.5 7.5s3.358 7.5 7.5 7.5h7.24c11.066 0 20.07 9.003 20.07 20.07v51.31c0 11.067-9.003 20.07-20.07 20.07h-103.72c-11.067 0-20.07-9.003-20.07-20.07v-51.31c0-11.067 9.003-20.07 20.07-20.07h61.48c4.142 0 7.5-3.358 7.5-7.5s-3.358-7.5-7.5-7.5h-61.48c-19.338 0-35.07 15.732-35.07 35.07v51.31c0 19.338 15.732 35.07 35.07 35.07h26.992v45.99h-.98c-14.811 0-26.86 12.049-26.86 26.86v55.156c-12.825 3.334-22.321 15.01-22.321 28.864v45.38c0 15.753 12.281 28.684 27.771 29.741v14.704c-29.662 9.534-51.193 37.377-51.193 70.165 0 40.633 33.057 73.69 73.689 73.69 40.633 0 73.69-33.057 73.69-73.69 0-32.786-21.528-60.628-51.187-70.163v-14.627h125.72v14.609c-10.831 3.462-20.789 9.416-29.125 17.599-2.956 2.902-3 7.65-.099 10.606 2.902 2.956 7.65 3 10.606.099 11.045-10.842 25.647-16.812 41.116-16.812 32.362 0 58.69 26.328 58.69 58.69s-26.327 58.689-58.689 58.689-58.69-26.328-58.69-58.69c0-5.102.657-10.178 1.952-15.087 1.057-4.005-1.334-8.108-5.339-9.165-4.004-1.056-8.108 1.334-9.165 5.339-1.624 6.158-2.448 12.521-2.448 18.913 0 40.633 33.057 73.69 73.69 73.69 40.632 0 73.69-33.057 73.69-73.69 0-32.787-21.529-60.629-51.188-70.164v-14.626h125.72v14.627c-29.659 9.535-51.187 37.377-51.187 70.163 0 40.633 33.057 73.69 73.689 73.69s73.689-33.057 73.689-73.69c0-32.788-21.531-60.632-51.192-70.165v-14.762c15.129-1.422 27.009-14.189 27.009-29.683v-45.38c0-7.43-2.738-14.228-7.249-19.455v-18.305c0-14.011-11.399-25.41-25.41-25.41s-25.409 11.399-25.409 25.41v7.94h-15.812c-4.143 0-7.5 3.358-7.5 7.5s3.357 7.5 7.5 7.5h44.06c8.172 0 14.82 6.648 14.82 14.82v45.38c0 7.21-5.178 13.226-12.009 14.544v-1.635c0-6.007-2.339-11.655-6.586-15.903l-36.876-36.876c-4.247-4.253-9.896-6.596-15.909-6.596-6.011 0-11.661 2.341-15.913 6.592-8.771 8.772-8.771 23.044 0 31.816l22.87 22.877h-37.852v-30.648c0-12.204-9.929-22.132-22.133-22.132-5.606 0-10.728 2.099-14.632 5.548-3.904-3.448-9.027-5.548-14.633-5.548-12.203 0-22.132 9.929-22.132 22.132v30.648h-6.925v-1.91c0-6.008-2.34-11.656-6.587-15.903l-36.88-36.88c-4.25-4.251-9.901-6.592-15.912-6.592-6.012 0-11.663 2.343-15.904 6.592-8.772 8.772-8.772 23.044-.001 31.815l22.871 22.878h-110.892l22.87-22.877c8.772-8.772 8.772-23.044 0-31.816-4.25-4.251-9.901-6.592-15.912-6.592-6.012 0-11.663 2.343-15.904 6.592l-36.88 36.88c-4.248 4.248-6.587 9.896-6.587 15.903v1.751c-7.203-1.003-12.771-7.186-12.771-14.661v-45.38c0-8.172 6.648-14.82 14.82-14.82h83.678v30.644c0 12.204 9.929 22.132 22.132 22.132s22.132-9.929 22.132-22.132v-30.643h88.464 86.113c4.143 0 7.5-3.358 7.5-7.5s-3.357-7.5-7.5-7.5h-49.457l17.168-63.139 16.957 12.444c1.899 16.435 15.893 29.24 32.829 29.24 18.228 0 33.057-14.829 33.057-33.057 0-7.455-2.483-14.339-6.661-19.875l11.977-67.06zm-39.53 141.45v-7.94c0-5.74 4.67-10.41 10.409-10.41 5.74 0 10.41 4.67 10.41 10.41v8.917c-2.419-.635-4.956-.977-7.571-.977zm52.252 189.81c0 32.362-26.328 58.69-58.689 58.69s-58.689-26.328-58.689-58.69c0-32.361 26.328-58.689 58.689-58.689s58.689 26.328 58.689 58.689zm-100.87-143.876c1.418-1.418 3.303-2.199 5.307-2.199 2.001 0 3.882.779 5.298 2.198l36.88 36.879c1.414 1.415 2.193 3.296 2.193 5.297v28.391c-2.466-.25-4.967-.379-7.497-.379-2.532 0-5.035.129-7.503.38v-22.17c0-1.989-.79-3.896-2.196-5.303l-32.48-32.491c-2.925-2.924-2.925-7.681-.002-10.603zm-47.72 6.306c3.933 0 7.133 3.2 7.133 7.132v30.644h-14.265v-30.644c0-3.933 3.199-7.132 7.132-7.132zm-36.397 7.132c0-3.933 3.199-7.132 7.132-7.132s7.133 3.2 7.133 7.132v30.644h-14.265zm-156.458 130.438c0 32.362-26.328 58.69-58.69 58.69-32.361 0-58.689-26.328-58.689-58.69 0-32.361 26.328-58.689 58.689-58.689 32.362 0 58.69 26.328 58.69 58.689zm69.86-143.881c1.413-1.415 3.292-2.194 5.293-2.194 2.004 0 3.888.781 5.306 2.198l36.88 36.88c1.414 1.414 2.193 3.295 2.193 5.296v28.391c-2.467-.25-4.969-.379-7.501-.379-2.521 0-5.022.132-7.499.382v-22.173c0-1.989-.79-3.896-2.196-5.302l-32.481-32.491c-2.922-2.924-2.922-7.681.005-10.608zm-133.854 36.884 36.884-36.884c1.413-1.415 3.292-2.194 5.293-2.194 2.004 0 3.888.781 5.306 2.198 2.923 2.923 2.923 7.68-.001 10.604l-32.48 32.49c-1.406 1.406-2.196 3.313-2.196 5.302v22.171c-2.468-.251-4.97-.38-7.503-.38-2.531 0-5.031.129-7.497.379v-28.39c.001-2.001.78-3.881 2.194-5.296zm407.467-258.713c1.296 0 2.351 1.054 2.351 2.35 0 4.575-1.778 8.869-5.013 12.097-3.228 3.227-7.52 5.003-12.088 5.003h-20.653c1.241-2.933 1.928-6.155 1.928-9.535v-9.915zm-2.657-52.58c3.229 3.221 5.007 7.515 5.007 12.09 0 1.29-1.055 2.34-2.351 2.34h-33.475v-9.908c0-3.383-.688-6.607-1.931-9.542h20.656c4.562 0 8.855 1.78 12.094 5.02zm-124.676 62.495v-57.973c0-5.26 4.279-9.539 9.539-9.539h59.781c5.26 0 9.538 4.279 9.538 9.539v57.973c0 5.237-4.242 9.498-9.471 9.535l-59.849.003c-5.259 0-9.538-4.279-9.538-9.538zm-5.651 98.474-11.006-8.077c3.814-3.275 6.879-7.398 8.889-12.08l11.008 8.076c-3.815 3.276-6.88 7.399-8.891 12.081zm-32.507-51.21c9.956 0 18.057 8.1 18.057 18.057s-8.101 18.057-18.057 18.057-18.057-8.1-18.057-18.057 8.1-18.057 18.057-18.057zm-221.778-8.326h19.729v45.987h-19.729zm-15.981 60.987h51.7c6.534 0 11.85 5.32 11.85 11.86v13.671h-24.845c-14.711 0-26.679 11.968-26.679 26.679v13.85h-23.886v-54.2c0-6.54 5.32-11.86 11.86-11.86zm93.582 111.704c0 3.933-3.2 7.132-7.132 7.132s-7.132-3.2-7.132-7.132v-30.644h14.265v30.644zm-66.556-45.644v-13.85c0-6.44 5.239-11.679 11.679-11.679h139.162c6.439 0 11.679 5.239 11.679 11.679v13.85zm177.52 0v-7.084l17.533-64.487c4.335 2.345 9.251 3.743 14.47 3.932l-18.392 67.639zm96.11-36.456c-9.956 0-18.057-8.1-18.057-18.057s8.101-18.057 18.057-18.057 18.057 8.1 18.057 18.057-8.101 18.057-18.057 18.057zm13.034-48.43c-4.002-1.724-8.407-2.683-13.034-2.683-.579 0-1.155.016-1.726.045l9.629-53.923h15.233z"/><path d="m53.746 438.31c0 16.179 13.163 29.342 29.342 29.342s29.342-13.163 29.342-29.342-13.163-29.342-29.342-29.342-29.342 13.163-29.342 29.342zm43.684 0c0 7.908-6.434 14.342-14.342 14.342s-14.342-6.434-14.342-14.342 6.434-14.342 14.342-14.342 14.342 6.434 14.342 14.342z"/><path d="m283.153 438.31c0-16.179-13.163-29.342-29.342-29.342s-29.342 13.163-29.342 29.342 13.163 29.342 29.342 29.342 29.342-13.163 29.342-29.342zm-43.684 0c0-7.908 6.434-14.342 14.342-14.342 7.909 0 14.342 6.434 14.342 14.342s-6.434 14.342-14.342 14.342-14.342-6.434-14.342-14.342z"/><path d="m395.191 438.31c0 16.179 13.163 29.342 29.343 29.342 16.179 0 29.342-13.163 29.342-29.342s-13.163-29.342-29.342-29.342c-16.18 0-29.343 13.163-29.343 29.342zm43.685 0c0 7.908-6.434 14.342-14.342 14.342s-14.343-6.434-14.343-14.342 6.435-14.342 14.343-14.342 14.342 6.434 14.342 14.342z"/><path d="m382.657 186.488c-4.143 0-7.5 3.358-7.5 7.5v.5c0 4.142 3.357 7.5 7.5 7.5s7.5-3.358 7.5-7.5v-.5c0-4.142-3.357-7.5-7.5-7.5z"/><path d="m319.76 155.335c4.143 0 7.5-3.358 7.5-7.5v-.5c0-4.142-3.357-7.5-7.5-7.5s-7.5 3.358-7.5 7.5v.5c0 4.143 3.357 7.5 7.5 7.5z"/></g></g></svg>