<svg id="Capa_1" enable-background="new 0 0 512 512" height="512" viewBox="0 0 512 512" width="512" xmlns="http://www.w3.org/2000/svg"><g><g><circle cx="255.998" cy="406.061" fill="#01d0fb" r="29.098"/><path d="m266.138 433.34c-3.152 1.177-6.573 1.815-10.134 1.815-16.068 0-29.104-13.026-29.104-29.094s13.036-29.104 29.104-29.104c3.561 0 6.982.638 10.134 1.816-11.071 4.119-18.96 14.781-18.96 27.288s7.889 23.169 18.96 27.279z" fill="#01c0fa"/><path d="m66.902 116.453h385.149v29.259h-385.149z" fill="#017297"/><path d="m327.793 26.257h-143.586c-10.097 0-18.283 8.185-18.283 18.283v180.023c0 3.702 1.124 7.317 3.223 10.366l40.989 59.549c3.411 4.956 9.043 7.917 15.06 7.917h61.608c6.017 0 11.648-2.96 15.06-7.917l40.989-59.549c2.099-3.049 3.223-6.664 3.223-10.366v-180.024c0-10.097-8.185-18.282-18.283-18.282z" fill="#ebebeb"/><path d="m240.257 302.393h-15.061c-6.025 0-11.654-2.96-15.061-7.915l-40.988-59.549c-2.098-3.044-3.23-6.658-3.23-10.366v-180.02c0-10.097 8.185-18.281 18.292-18.281h35.108c-5.162 0-9.348 8.185-9.348 18.281v180.019c0 3.708.571 7.323 1.652 10.366l20.94 59.549c1.744 4.956 4.621 7.916 7.696 7.916z" fill="#e2e2e2"/><g><g><path d="m482.792 248.398h-77.772c-11.989 0-21.708-9.719-21.708-21.708v-191.216c0-11.989 9.719-21.708 21.708-21.708h77.773c11.989 0 21.708 9.719 21.708 21.708v191.216c-.001 11.989-9.72 21.708-21.709 21.708z" fill="#c8effe"/><path d="m426.128 248.4h-21.117c-11.987 0-21.699-9.722-21.699-21.709v-191.217c0-11.987 9.712-21.709 21.699-21.709h21.117c-11.987 0-21.699 9.722-21.699 21.709v191.217c0 11.987 9.712 21.709 21.699 21.709z" fill="#99e6fc"/></g><g><path d="m106.98 248.398h-77.772c-11.989 0-21.708-9.719-21.708-21.708v-191.216c0-11.989 9.719-21.708 21.708-21.708h77.773c11.989 0 21.708 9.719 21.708 21.708v191.216c-.001 11.989-9.72 21.708-21.709 21.708z" fill="#c8effe"/><path d="m50.316 248.4h-21.117c-11.987 0-21.699-9.722-21.699-21.709v-191.217c0-11.987 9.712-21.709 21.699-21.709h21.117c-11.987 0-21.699 9.722-21.699 21.709v191.217c0 11.987 9.712 21.709 21.699 21.709z" fill="#99e6fc"/></g></g><g fill="#01d0fb"><path d="m212.841 145.712c-9.071 0-16.424-7.353-16.424-16.424v-56.241h32.848v56.241c-.001 9.071-7.354 16.424-16.424 16.424z"/><path d="m299.159 145.712c-9.071 0-16.424-7.353-16.424-16.424v-56.241h32.848v56.241c0 9.071-7.353 16.424-16.424 16.424z"/></g><g><path d="m272.42 224.561v-19.912c0-9.068-7.354-16.422-16.422-16.422s-16.422 7.354-16.422 16.422v19.912" fill="#01d0fb"/></g><path d="m343.066 390.48c0-48.086-38.981-87.068-87.068-87.068s-87.068 38.981-87.068 87.068z" fill="#01d0fb"/><path d="m282.623 307.557c-35.068 11.25-60.452 44.124-60.452 82.923h-53.241c0-48.084 38.988-87.072 87.072-87.072 9.286 0 18.233 1.456 26.621 4.149z" fill="#01c0fa"/><path d="m343.066 406.061h-174.135c-8.605 0-15.581-6.976-15.581-15.581s6.976-15.581 15.581-15.581h174.135c8.605 0 15.581 6.976 15.581 15.581s-6.976 15.581-15.581 15.581z" fill="#ebebeb"/><path d="m222.999 406.061h-54.068c-8.597 0-15.579-6.971-15.579-15.579s6.982-15.579 15.579-15.579h54.068c-8.597 0-15.579 6.971-15.579 15.579 0 8.607 6.982 15.579 15.579 15.579z" fill="#e2e2e2"/></g><g><path d="m303.381 453.455c2.93-2.927 2.933-7.676.005-10.606s-7.677-2.933-10.606-.005c-9.831 9.821-22.893 15.23-36.779 15.23-13.807 0-26.79-5.339-36.588-15.04-1.37-1.471-3.323-2.39-5.492-2.39-4.142 0-7.5 3.363-7.5 7.505 0 1.989.79 3.897 2.197 5.303 12.653 12.653 29.481 19.621 47.383 19.621 17.89.001 34.717-6.966 47.38-19.618z"/><path d="m315.875 465.937c-15.984 15.993-37.248 24.801-59.875 24.801s-43.891-8.808-59.875-24.801c-2.927-2.929-7.676-2.932-10.606-.003-2.93 2.928-2.931 7.676-.003 10.606 18.817 18.829 43.849 29.198 70.484 29.198s51.667-10.369 70.484-29.198c2.928-2.93 2.926-7.679-.003-10.606-2.93-2.928-7.679-2.927-10.606.003z"/><path d="m504.5 150.052c4.142 0 7.5-3.358 7.5-7.5v-107.08c0-16.106-13.104-29.21-29.21-29.21h-77.77c-16.106 0-29.21 13.104-29.21 29.21v73.48h-22.23v-64.41c0-14.215-11.569-25.78-25.79-25.78h-90.97c-4.142 0-7.5 3.358-7.5 7.5s3.358 7.5 7.5 7.5h90.97c5.95 0 10.79 4.836 10.79 10.78v21.005h-165.16v-21.005c0-5.944 4.84-10.78 10.79-10.78h17.61c4.142 0 7.5-3.358 7.5-7.5s-3.358-7.5-7.5-7.5h-17.61c-14.221 0-25.79 11.565-25.79 25.78v64.41h-22.232v-73.478c0-16.105-13.103-29.208-29.208-29.208h-77.772c-16.105 0-29.208 13.103-29.208 29.208v191.216c0 16.105 13.103 29.208 29.208 29.208h77.772c16.105 0 29.208-13.103 29.208-29.208v-73.478h22.232v71.35c0 5.241 1.574 10.297 4.552 14.623l40.991 59.552c2.236 3.246 5.152 5.874 8.48 7.769-8.024 4.172-15.483 9.523-22.146 15.965-2.978 2.879-3.058 7.627-.179 10.605 2.878 2.977 7.625 3.059 10.605.179 14.903-14.407 34.534-22.342 55.277-22.342 35.455 0 66.153 23.276 76.159 56.488h-152.33c1.027-3.386 2.274-6.705 3.749-9.924 1.726-3.766.071-8.217-3.694-9.942-3.763-1.723-8.216-.072-9.942 3.694-2.457 5.362-4.401 10.951-5.806 16.676-10.433 2.213-18.286 11.494-18.286 22.576 0 12.727 10.354 23.081 23.081 23.081h51.245c3.47 16.595 18.212 29.098 35.822 29.098s32.352-12.503 35.822-29.098h51.245c12.727 0 23.081-10.354 23.081-23.081 0-11.092-7.866-20.379-18.312-22.583-6.615-27.066-24.599-49.118-48.281-61.392 3.329-1.895 6.247-4.524 8.484-7.772l40.99-59.549c2.979-4.326 4.553-9.382 4.553-14.623v-71.35h22.23v73.479c0 16.106 13.104 29.21 29.21 29.21h77.77c16.106 0 29.21-13.104 29.21-29.21v-49.14c0-4.142-3.358-7.5-7.5-7.5s-7.5 3.358-7.5 7.5v4.489h-45.594v-43.458h45.594v3.969c0 4.143 3.358 7.501 7.5 7.501zm-248.501 277.607c-9.273 0-17.198-5.875-20.253-14.098h40.506c-3.055 8.223-10.98 14.098-20.253 14.098zm87.067-29.098h-174.135c-4.456 0-8.081-3.625-8.081-8.081s3.625-8.081 8.081-8.081h174.135c4.456 0 8.081 3.625 8.081 8.081s-3.626 8.081-8.081 8.081zm153.934-363.089v29.651h-45.594v-43.862h31.384c7.835 0 14.21 6.375 14.21 14.211zm-91.98-14.211h31.386v43.862h-45.596v-29.651c0-7.836 6.375-14.211 14.21-14.211zm31.386 58.862v43.459h-45.596v-43.459zm-128.323.424v48.741c0 4.92-4.003 8.924-8.924 8.924-4.92 0-8.924-4.003-8.924-8.924v-48.741zm-86.318 0v48.741c0 4.92-4.003 8.924-8.924 8.924-4.92 0-8.924-4.003-8.924-8.924v-48.741zm-32.848 0v48.741c0 13.191 10.732 23.924 23.924 23.924 13.191 0 23.924-10.732 23.924-23.924v-48.741h38.471v48.741c0 13.191 10.732 23.924 23.924 23.924s23.924-10.732 23.924-23.924v-48.741h15.497v136.516h-58.66v-12.414c0-13.19-10.731-23.922-23.922-23.922-13.19 0-23.922 10.731-23.922 23.922v12.414h-58.657v-136.516zm76.003 136.516h-17.844v-12.414c0-4.919 4.002-8.922 8.922-8.922s8.922 4.002 8.922 8.922zm-204.326-93.481h-45.594v-43.459h45.594zm15-43.459h45.594v43.459h-45.594zm-15 58.459v43.458h-45.594v-43.458zm15 0h45.594v43.458h-45.594zm45.594-103.108v29.649h-45.594v-43.857h31.386c7.834 0 14.208 6.374 14.208 14.208zm-91.98-14.208h31.386v43.857h-45.594v-29.649c0-7.834 6.374-14.208 14.208-14.208zm-14.208 205.424v-29.649h45.594v43.857h-31.386c-7.834 0-14.208-6.374-14.208-14.208zm91.98 14.208h-31.386v-43.857h45.594v29.649c0 7.834-6.374 14.208-14.208 14.208zm29.208-102.686v-14.26h22.232v14.26zm159.495 152.015c-2.012 2.921-5.333 4.665-8.883 4.665h-61.6c-3.551 0-6.872-1.744-8.882-4.663l-40.038-58.167h159.44zm57.897-152.015v-14.26h22.23v14.26zm37.23 88.48v-29.651h45.596v43.861h-31.386c-7.835 0-14.21-6.375-14.21-14.21zm106.19-29.651v29.651c0 7.835-6.375 14.21-14.21 14.21h-31.384v-43.861zm-60.594-15h-45.596v-43.458h45.596zm15-58.459v-43.459h45.594v43.459z"/></g></g></svg>