<svg id="Capa_1" enable-background="new 0 0 511.887 511.887" height="512" viewBox="0 0 511.887 511.887" width="512" xmlns="http://www.w3.org/2000/svg"><g><g><path d="m445.216 255.942c0 90.062-62.889 165.437-147.146 184.595h-.01c-13.558 3.087-27.661 4.714-42.153 4.714-17.882 0-35.189-2.484-51.591-7.12-5.795-1.636-2.445-15.496-7.996-17.658-8.698-3.38-26.092 4.578-34.108 0-28.557-16.294-52.458-39.816-69.22-68.061-3.545-5.98 9.409-25.489 6.526-31.868-2.883-6.37-21.602.399-23.784-6.331-5.932-18.359-9.136-37.936-9.136-58.272 0-99.424 76.639-180.942 174.066-188.704 5.028-.401 3.506 18.67 8.638 18.67 14.493 0 35.211-17.648 48.759-14.561h.01c32.686 7.431 62.149 23.326 85.981 45.25 7.051 6.487-6.847 29.852-.847 37.332 6.009 7.48 31.897-.925 36.728 7.431 16.079 27.827 25.283 60.134 25.283 94.583z" fill="#fea95c"/><path d="m298.06 440.537c-13.558 3.087-27.661 4.714-42.153 4.714-17.882 0-35.189-2.484-51.591-7.12-5.795-1.636-2.445-15.496-7.996-17.658-8.698-3.38-26.092 4.578-34.108 0-28.557-16.294-52.458-39.816-69.22-68.061-3.545-5.98 9.409-25.489 6.526-31.868-2.883-6.37-21.602.399-23.784-6.331-5.932-18.359-9.136-37.936-9.136-58.272 0-104.555 84.754-189.309 189.309-189.309 14.493 0 28.605 1.627 42.153 4.714-84.248 19.168-147.146 94.533-147.146 184.595s62.898 165.428 147.146 184.596z" fill="#fe9738"/><path d="m271.598 94.488c-5.659 5.659-8.493 13.08-8.493 20.502s2.834 14.843 8.493 20.512c11.327 11.327 11.327 29.686 0 41.014l-177.593 177.592c-7.558-12.428-13.713-25.8-18.272-39.894l75.998-75.998 8.142-8.142c10.519-10.519 11.269-27.096 2.26-38.481-.701-.877-1.451-1.724-2.26-2.532-5.668-5.659-8.493-13.09-8.493-20.512s2.825-14.853 8.493-20.512l80.79-80.79c5.026-.409 10.11-.614 15.243-.614 13.519 0 26.706 1.412 39.426 4.12z" fill="#fe6c55"/><path d="m150.914 255.942c0 12.856 1.276 25.401 3.721 37.537l-60.629 60.629c-7.558-12.428-13.713-25.8-18.272-39.894l75.998-75.998c-.545 5.834-.818 11.746-.818 17.726z" fill="#fd544c"/><path d="m295.333 70.753-1.646 1.646c-61.097 15.437-110.379 60.6-131.553 119.194-.701-.877-1.451-1.724-2.26-2.532-5.668-5.659-8.493-13.09-8.493-20.512s2.825-14.853 8.493-20.512l80.79-80.79c5.026-.409 10.11-.614 15.243-.614 13.519 0 26.706 1.412 39.426 4.12z" fill="#fd544c"/><path d="m341.236 278.567c5.659 5.659 8.493 13.08 8.493 20.502s-2.834 14.843-8.493 20.512l-98.604 98.604-23.492 23.492c-20.336-3.993-39.504-11.249-56.928-21.203l63.522-63.522c5.669-5.659 8.493-13.09 8.493-20.512s-2.824-14.853-8.493-20.512c-11.327-11.327-11.327-29.686 0-41.014l158.318-158.318c13.655 12.564 25.459 27.105 34.965 43.176l-77.781 77.781c-11.327 11.328-11.327 29.687 0 41.014z" fill="#fe6c55"/><path d="m242.632 418.185-23.492 23.492c-20.336-3.993-39.504-11.249-56.928-21.203l37.585-37.585c12.438 13.751 26.862 25.673 42.835 35.296z" fill="#fd544c"/><path d="m485.071 26.778c-37.507-37.507-121.414-18.564-212.139 40.614 26.57 2.367 51.562 10.227 73.836 22.43 28.498-7.198 51.951-4.685 65.947 9.311 36.251 36.251-4.558 135.848-91.163 222.453-65.158 65.158-137.67 104.389-185.024 104.389-15.593 0-28.449-4.246-37.429-13.226-13.996-13.996-16.509-37.449-9.311-65.947-12.204-22.275-20.063-47.266-22.43-73.836-59.178 90.725-78.122 174.632-40.615 212.14 26.239 26.229 75.171 24.846 133.248 1.402 59.217-23.901 127.949-70.749 191.841-134.641 126.567-126.556 186.213-272.105 133.239-325.089z" fill="#e2e2e2"/><path d="m159.991 486.508c-58.077 23.443-107.009 24.826-133.248-1.402-37.507-37.508-18.563-121.415 40.615-212.139 2.367 26.57 10.227 51.562 22.43 73.836-7.197 28.498-4.685 51.951 9.311 65.947 8.98 8.98 21.836 13.226 37.429 13.226 0 0-22.946 34.079 23.463 60.532z" fill="#cecece"/></g><path d="m490.371 21.479c-38.855-38.867-122.781-24.184-219.374 38.238-4.974-.38-10.034-.584-15.09-.584-108.521 0-196.81 88.288-196.81 196.809 0 5.052.204 10.115.584 15.091-62.421 96.59-77.105 180.515-38.238 219.371 14.393 14.397 34.964 21.448 60.077 21.447 42.683-.002 98.48-20.387 159.29-59.684 4.952.38 10.013.584 15.097.584 21.121 0 41.918-3.334 61.813-9.909 3.933-1.3 6.067-5.542 4.768-9.474-1.299-3.933-5.542-6.067-9.475-4.768-16.366 5.409-33.4 8.436-50.721 9.034 32.512-22.97 64.337-49.95 94.848-80.46 30.512-30.512 57.493-62.339 80.462-94.851-2.243 64.226-38.218 122.614-95.026 153.478-3.64 1.977-4.987 6.531-3.01 10.171 1.359 2.502 3.936 3.921 6.597 3.921 1.209 0 2.437-.293 3.573-.911 63.521-34.51 102.979-100.815 102.979-173.04 0-5.085-.204-10.148-.584-15.103 23.512-36.393 41.04-72.512 50.715-104.592 1.196-3.966-1.05-8.15-5.015-9.346-3.967-1.197-8.15 1.048-9.347 5.015-9.461 31.369-26.857 66.95-50.312 102.899-25.01 38.356-55.843 75.955-91.642 111.753-35.797 35.798-73.396 66.63-111.754 91.642-58.89 38.416-113.365 58.663-153.3 58.66-20.979-.001-37.951-5.592-49.43-17.073-31.181-31.175-18.901-102.83 30.789-185.487 3.671 18.649 10.034 36.563 18.993 53.497-7.222 30.925-3.106 55.174 11.968 70.247 10.248 10.248 24.735 15.432 42.679 15.432 9.252 0 19.423-1.378 30.404-4.152 48.165-12.139 107.97-50.436 159.978-102.443 52.006-52.007 90.303-111.811 102.441-159.973 8.153-32.282 4.253-57.555-11.279-73.087-15.074-15.074-39.32-19.191-70.248-11.968-16.935-8.96-34.849-15.322-53.495-18.993 82.659-49.69 154.314-61.968 185.488-30.784 14.296 14.295 19.8 37.573 15.917 67.316-.536 4.107 2.358 7.872 6.466 8.408.329.043.656.064.98.064 3.71 0 6.934-2.752 7.427-6.53 4.508-34.536-2.471-62.153-20.183-79.865zm-270.865 56.317-64.928 64.928c-6.9 6.889-10.701 16.061-10.701 25.828 0 9.76 3.801 18.929 10.694 25.811 8.377 8.384 8.377 22.024.002 30.406l-6.88 6.88c-2.929 2.929-2.929 7.678.001 10.607 1.464 1.464 3.384 2.197 5.303 2.197s3.839-.732 5.304-2.197l6.882-6.882c14.218-14.229 14.218-37.382-.007-51.619-4.062-4.055-6.299-9.454-6.299-15.202 0-5.755 2.237-11.157 6.304-15.217l78.801-78.801c3.944-.257 7.918-.401 11.925-.401 5.496 0 11 .245 16.369.73 2.514.224 5.013.512 7.502.837l-13.485 13.485c-6.894 6.894-10.689 16.058-10.689 25.805 0 9.741 3.795 18.907 10.689 25.815 8.384 8.383 8.384 22.024 0 30.407l-170.642 170.642c-4.458-8.295-8.236-16.849-11.323-25.627l50.723-50.723c2.929-2.929 2.929-7.678 0-10.606-2.93-2.929-7.678-2.929-10.607 0l-45.008 45.008c-2.233-9.011-3.772-18.224-4.608-27.604-.484-5.368-.729-10.873-.729-16.361-.001-87.787 62.541-161.239 145.407-178.146zm-115.103 329.65c-10.109-10.108-12.015-25.347-10.671-39.982 13.661 19.858 30.809 37.005 50.669 50.663-21.659 2.001-33.575-4.257-39.998-10.681zm211.846-91.162c-42.152 42.152-89.266 74.874-130.326 91.086l45.109-45.11c6.896-6.884 10.694-16.054 10.694-25.82s-3.798-18.936-10.689-25.815c-8.384-8.383-8.384-22.024 0-30.407l153.144-153.144c9.563 9.519 18.055 20.109 25.334 31.593l-73.582 73.583c-14.231 14.232-14.231 37.388 0 51.62 1.894 1.894 3.398 4.119 4.467 6.545-7.637 8.763-15.699 17.417-24.151 25.869zm30.291-43.02c-4.062-4.062-6.299-9.461-6.299-15.204s2.236-11.142 6.299-15.204l63.145-63.145c-10.997 30.64-31.691 65.082-59.005 98.531-1.231-1.767-2.604-3.442-4.14-4.978zm60.871-168.827c10.108 10.108 12.015 25.346 10.671 39.982-13.661-19.858-30.809-37.004-50.668-50.663 21.658-2.001 33.574 4.257 39.997 10.681zm-34.314 12.508-152.667 152.667c-14.231 14.232-14.231 37.388.005 51.625 4.058 4.05 6.292 9.449 6.292 15.204s-2.234 11.154-6.297 15.208l-59.392 59.392c-23.119-14.158-42.715-33.202-57.489-55.87l173.352-173.352c14.231-14.232 14.231-37.388.005-51.615-4.063-4.071-6.302-9.474-6.302-15.213 0-5.74 2.236-11.138 6.297-15.199l20.825-20.825c15.812 3.712 31.023 9.532 45.438 17.433 10.704 5.866 20.708 12.767 29.933 20.545z"/></g></svg>