<svg id="Capa_1" enable-background="new 0 0 511.999 511.999" height="512" viewBox="0 0 511.999 511.999" width="512" xmlns="http://www.w3.org/2000/svg"><g><g><g><path d="m375.585 205.673c0-66.048-53.542-119.59-119.59-119.59s-119.59 53.542-119.59 119.59l115.179 27.284z" fill="#c8effe"/><path d="m201.404 205.673 83.881 19.871-33.701 7.41-115.178-27.281c0-66.045 53.539-119.596 119.596-119.596 11.271 0 22.174 1.558 32.5 4.473-50.259 14.152-87.098 60.337-87.098 115.123z" fill="#99e6fc"/><path d="m24.189 300.032c59.853-58.339 141.626-94.296 231.81-94.296s171.957 35.957 231.81 94.296v33.379c-59.853 58.339-141.625 94.296-231.809 94.296s-171.957-35.957-231.811-94.296z" fill="#01d0fb"/><path d="m256.004 427.705c-90.189 0-171.956-35.96-231.815-94.295v-33.379c59.859-58.335 141.626-94.295 231.815-94.295-41.979 0-80.031 35.96-107.891 94.295v33.379c27.86 58.336 65.912 94.295 107.891 94.295z" fill="#01c0fa"/><path d="m487.81 333.411h-463.621c-9.217 0-16.689-7.472-16.689-16.689s7.472-16.689 16.689-16.689h463.62c9.217 0 16.689 7.472 16.689 16.689.001 9.216-7.471 16.689-16.688 16.689z" fill="#fef056"/><path d="m128.642 333.411h-104.453c-9.212 0-16.689-7.466-16.689-16.689 0-9.212 7.477-16.689 16.689-16.689h104.453c-9.224 0-16.689 7.477-16.689 16.689 0 9.223 7.466 16.689 16.689 16.689z" fill="#ffd15b"/><path d="m345.167 461.515h-178.335c-11.918 0-19.234-13.054-13.012-23.219l13.837-22.609h176.684l13.837 22.609c6.223 10.165-1.093 23.219-13.011 23.219z" fill="#ebebeb"/><path d="m215.287 461.515h-48.455c-11.916 0-19.237-13.051-13.018-23.221l13.841-22.608h48.466l-13.841 22.608c-6.219 10.17 1.091 23.221 13.007 23.221z" fill="#e2e2e2"/><path d="m375.585 239.051h-239.18c-9.217 0-16.689-7.472-16.689-16.689s7.472-16.689 16.689-16.689h239.18c9.217 0 16.689 7.472 16.689 16.689.001 9.217-7.471 16.689-16.689 16.689z" fill="#ebebeb"/><path d="m186.028 239.051h-49.623c-9.213 0-16.689-7.466-16.689-16.689 0-9.212 7.477-16.689 16.689-16.689h49.623c-9.224 0-16.689 7.477-16.689 16.689 0 9.224 7.465 16.689 16.689 16.689z" fill="#e2e2e2"/><path d="m303.209 102.772h-94.428c-9.217 0-16.689-7.472-16.689-16.689s7.472-16.689 16.689-16.689h94.428c9.217 0 16.689 7.472 16.689 16.689s-7.472 16.689-16.689 16.689z" fill="#fef056"/><path d="m246.844 102.772h-38.063c-9.213 0-16.689-7.477-16.689-16.689 0-9.224 7.477-16.689 16.689-16.689h38.063c-9.212 0-16.689 7.466-16.689 16.689-.001 9.212 7.476 16.689 16.689 16.689z" fill="#ffd15b"/><circle cx="255.995" cy="42.712" fill="#fe7c66" r="26.681"/><path d="m267.834 66.622c-3.57 1.78-7.59 2.77-11.84 2.77-14.74 0-26.68-11.94-26.68-26.68 0-14.73 11.94-26.68 26.68-26.68 4.25 0 8.27 1 11.84 2.77-8.8 4.36-14.84 13.43-14.84 23.91 0 10.49 6.04 19.56 14.84 23.91z" fill="#fe6c55"/></g><g><path d="m478.689 92.633-23.393 9.95-9.949 23.393c-.994 2.333-2.929 3.725-5.032 4.164-3.107.67-6.612-.722-8.077-4.164l-9.949-23.393-23.393-9.95c-5.775-2.459-5.775-10.65 0-13.109l23.393-9.95 9.949-23.393c1.507-3.547 5.179-4.917 8.359-4.101 1.998.502 3.798 1.873 4.75 4.101l9.949 23.393 23.393 9.95c5.776 2.458 5.776 10.65 0 13.109z" fill="#fef056"/><path d="m440.314 130.139c-3.107.67-6.612-.722-8.077-4.164l-9.949-23.393-23.393-9.95c-5.775-2.459-5.775-10.65 0-13.109l23.393-9.95 9.949-23.393c1.507-3.547 5.179-4.917 8.359-4.101-4.561 16.667-11.905 53.42-.282 88.06z" fill="#ffd15b"/></g><g><path d="m96.201 458.295-23.393 9.95-9.95 23.393c-.994 2.333-2.929 3.725-5.032 4.164-3.107.67-6.612-.722-8.077-4.164l-9.95-23.393-23.393-9.95c-5.775-2.459-5.775-10.65 0-13.109l23.393-9.95 9.95-23.393c1.507-3.547 5.179-4.917 8.359-4.101 1.998.502 3.798 1.873 4.75 4.101l9.95 23.393 23.393 9.95c5.775 2.458 5.775 10.65 0 13.109z" fill="#fef056"/><path d="m57.826 495.801c-3.107.67-6.612-.722-8.077-4.164l-9.95-23.393-23.393-9.95c-5.775-2.459-5.775-10.65 0-13.109l23.393-9.95 9.95-23.393c1.507-3.547 5.179-4.917 8.359-4.101-4.561 16.667-11.906 53.42-.282 88.06z" fill="#ffd15b"/></g></g><g><path d="m511.999 316.721c0-12.24-9.141-22.379-20.954-23.967-27.247-26.141-58.271-47.366-92.37-63.165.717-2.284 1.104-4.712 1.104-7.23 0-10.788-7.1-19.946-16.871-23.055-2.055-41.33-24.001-78.876-58.854-100.971 2.122-3.596 3.344-7.782 3.344-12.251 0-13.338-10.851-24.189-24.189-24.189h-18.938c3.724-5.473 5.905-12.076 5.905-19.181 0-18.848-15.333-34.181-34.181-34.181-18.847 0-34.181 15.333-34.181 34.181 0 7.104 2.181 13.708 5.905 19.181h-18.938c-13.338 0-24.189 10.852-24.189 24.189 0 4.471 1.224 8.66 3.348 12.257-9.417 5.976-18.01 13.151-25.609 21.442-2.799 3.053-2.592 7.798.461 10.596 1.439 1.32 3.255 1.971 5.065 1.971 2.029 0 4.052-.819 5.531-2.433 7.759-8.465 16.686-15.616 26.561-21.322 2.738 1.078 5.716 1.677 8.833 1.677h94.428c3.122 0 6.105-.601 8.848-1.683 32.49 18.776 53.298 52.334 55.775 89.581h-223.67c.951-14.605 4.684-28.645 11.151-41.827 1.824-3.719.289-8.212-3.43-10.037s-8.212-.289-10.037 3.43c-7.652 15.598-11.932 32.248-12.773 49.574-9.762 3.114-16.854 12.268-16.854 23.049 0 2.518.388 4.946 1.104 7.23-34.099 15.799-65.123 37.024-92.37 63.165-11.813 1.59-20.954 11.729-20.954 23.969 0 12.233 9.131 22.369 20.935 23.964 38.291 36.71 84.784 64.068 135.14 79.565l-8.651 14.133c-4.359 7.12-4.524 15.72-.442 23.005 4.081 7.283 11.501 11.631 19.849 11.631h30.96c4.142 0 7.5-3.358 7.5-7.5s-3.358-7.5-7.5-7.5h-30.96c-4.1 0-6.095-2.772-6.763-3.964s-1.991-4.343.149-7.841l11.646-19.025h168.274l11.646 19.026c2.141 3.497.818 6.648.149 7.84-.668 1.192-2.664 3.964-6.763 3.964h-112.379c-4.142 0-7.5 3.358-7.5 7.5s3.358 7.5 7.5 7.5h112.38c8.348 0 15.768-4.348 19.849-11.631 4.082-7.285 3.917-15.885-.442-23.004l-8.651-14.132c50.37-15.5 96.865-42.858 135.143-79.566 11.801-1.599 20.93-11.732 20.93-23.965zm-275.185-274.009c0-10.577 8.604-19.181 19.181-19.181s19.181 8.604 19.181 19.181c0 10.576-8.604 19.181-19.181 19.181-10.576 0-19.181-8.604-19.181-19.181zm-28.033 52.56c-5.067 0-9.189-4.123-9.189-9.189s4.123-9.189 9.189-9.189h94.428c5.067 0 9.189 4.123 9.189 9.189s-4.122 9.189-9.189 9.189zm-72.371 117.897h239.18c5.067 0 9.19 4.123 9.19 9.19s-4.123 9.19-9.19 9.19h-13.27c-4.142 0-7.5 3.358-7.5 7.5s3.358 7.5 7.5 7.5h13.27c5.262 0 10.132-1.694 14.107-4.558 28.671 12.974 55.111 29.924 78.861 50.54h-425.116c23.75-20.616 50.19-37.566 78.861-50.54 3.974 2.864 8.845 4.558 14.107 4.558h191.05c4.142 0 7.5-3.358 7.5-7.5s-3.358-7.5-7.5-7.5h-191.05c-5.067 0-9.19-4.123-9.19-9.19s4.122-9.19 9.19-9.19zm-121.41 103.552c0-5.067 4.123-9.189 9.189-9.189h463.62c5.067 0 9.189 4.123 9.189 9.189s-4.123 9.189-9.189 9.189h-463.62c-5.066.001-9.189-4.122-9.189-9.189zm153.239 91.468c-45.865-12.85-88.635-35.949-124.801-67.279h425.128c-36.155 31.327-78.927 54.426-124.804 67.279z"/><path d="m395.959 99.531 20.61 8.769 8.769 20.609c2.299 5.405 7.58 8.897 13.454 8.897s11.155-3.493 13.454-8.897l8.769-20.61 20.61-8.769c5.405-2.299 8.897-7.58 8.897-13.454 0-5.873-3.492-11.154-8.896-13.455l-20.61-8.769-8.769-20.609c-2.299-5.405-7.581-8.897-13.454-8.897s-11.154 3.492-13.454 8.896l-8.769 20.61-20.61 8.769c-5.405 2.3-8.896 7.582-8.896 13.455-.002 5.875 3.491 11.155 8.895 13.455zm82.729-20.007-2.925 6.907c-.003-.002-.007-.004-.011-.006zm-53.465-3.051c1.785-.759 3.206-2.181 3.965-3.965l9.604-22.571 9.603 22.571c.759 1.784 2.181 3.206 3.965 3.965l22.572 9.604-22.572 9.603c-1.785.759-3.206 2.181-3.965 3.965l-9.604 22.571-9.603-22.571c-.759-1.784-2.181-3.206-3.965-3.965l-22.572-9.604z"/><path d="m99.136 438.285-20.61-8.769-8.769-20.61c-2.3-5.405-7.582-8.896-13.455-8.896-5.874 0-11.154 3.492-13.454 8.897l-8.769 20.61-20.609 8.769c-5.405 2.299-8.897 7.58-8.897 13.454s3.493 11.154 8.897 13.454l20.61 8.769 8.769 20.61c2.299 5.405 7.58 8.897 13.454 8.897 5.873 0 11.154-3.492 13.454-8.897l8.769-20.61 20.609-8.769c5.405-2.299 8.897-7.581 8.897-13.454 0-5.875-3.492-11.156-8.896-13.455zm-29.264 23.057c-1.784.759-3.206 2.181-3.965 3.965l-9.604 22.572-9.603-22.572c-.759-1.785-2.181-3.206-3.965-3.965l-22.571-9.604 22.571-9.603c1.784-.759 3.206-2.181 3.965-3.965l9.604-22.572 9.604 22.572c.759 1.785 2.181 3.206 3.965 3.965l22.571 9.603z"/></g></g></svg>