<svg id="Capa_1" enable-background="new 0 0 512 512" height="512" viewBox="0 0 512 512" width="512" xmlns="http://www.w3.org/2000/svg"><g><g><path d="m442.44 256c0 9.22 61.56 18.31 60.58 27.27-2.83 25.93-9.65 50.66-19.83 73.56-4.3 9.68-55.06 15.07-60.51 24.05-4.21 6.92 37.11 17.59 32.26 24.05-34.73 46.32-85.27 80.11-143.6 93.38-.01 0-.01 0-.02.01-17.79 4.04-36.31 6.18-55.32 6.18-81.37 0-153.61-39.12-198.94-99.57-6.79-9.05 32.32-14.1 26.8-24.05-2.77-4.98-50.65-14.54-53.08-19.72-11.27-24.11-18.79-50.32-21.8-77.89-.98-8.96 33.09-14.84 33.09-24.05 0-7.02-34.28-17.19-33.71-24.06 2.65-31.87 11.31-62.04 24.85-89.36 5.55-11.2 49.74-4.69 56.86-14.86 3.54-5.06-30.54-27.23-26.64-32.01 45.57-55.8 114.91-91.43 192.57-91.43 19.02 0 37.54 2.14 55.34 6.19 54.86 12.47 102.82 43.11 137.23 85.24 4 4.89-17.65 14.54-14.03 19.73 7.27 10.44 39.23 16.86 44.86 28.38 13.19 26.99 21.63 56.73 24.24 88.12.57 6.87-61.2 13.82-61.2 20.84z" fill="#fea95c"/><path d="m311.34 498.31c-.01 0-.01 0-.02.01-17.79 4.04-36.31 6.18-55.32 6.18-81.37 0-153.61-39.12-198.94-99.57-6.79-9.05 32.32-14.1 26.8-24.05-2.77-4.98-50.65-14.54-53.08-19.72-11.27-24.11-18.79-50.32-21.8-77.89-.98-8.96 33.09-14.84 33.09-24.05 0-7.02-34.28-17.19-33.71-24.06 2.65-31.87 11.31-62.04 24.85-89.36 5.55-11.2 49.74-4.69 56.86-14.86 3.54-5.06-30.54-27.23-26.64-32.01 45.57-55.8 114.91-91.43 192.57-91.43 19.02 0 37.54 2.14 55.34 6.19-110.6 25.15-193.16 124.09-193.16 242.31s82.56 217.16 193.16 242.31z" fill="#fe9738"/><path d="m479.39 147.04h-164.63c-24.49 0-48.66 6.14-69.94 18.25-15.08 8.59-33.07 13.58-52.4 13.58s-37.33-4.99-52.41-13.58c-1.29-.73-2.59-1.45-3.9-2.14-20.31-10.69-43.03-16.11-66.03-16.11h-37.47c8.42-17.25 18.79-33.38 30.82-48.11h6.65c24.48 0 48.65-6.14 69.93-18.25 15.08-8.59 33.08-13.58 52.41-13.58 4.08 0 8.09.22 12.04.65 14.75 1.62 28.46 6.15 40.36 12.93 21.28 12.11 45.45 18.25 69.94 18.25h133.81c12.03 14.73 22.4 30.86 30.82 48.11z" fill="#fef056"/><path d="m504.5 256c0 9.22-.5 18.32-1.48 27.27h-3.17c-24.49 0-48.66 6.14-69.94 18.25-15.08 8.59-33.07 13.58-52.4 13.58s-37.33-4.99-52.41-13.58c-21.28-12.11-45.45-18.25-69.93-18.25h-246.19c-.98-8.95-1.48-18.05-1.48-27.27 0-7.02.29-13.97.86-20.84h246.81c24.48 0 48.65-6.14 69.93-18.25 15.08-8.59 33.08-13.58 52.41-13.58s37.32 4.99 52.4 13.58c21.28 12.11 45.45 18.25 69.94 18.25h3.79c.57 6.87.86 13.82.86 20.84z" fill="#fef056"/><path d="m483.18 356.83c-7.61 17.14-17.11 33.26-28.24 48.1h-142.4c-24.49 0-48.66 6.14-69.94 18.25-13.56 7.72-29.47 12.54-46.6 13.43-1.92.1-3.85.15-5.8.15-19.33 0-37.33-4.99-52.41-13.58-21.28-12.11-45.45-18.25-69.93-18.25h-10.8c-11.13-14.84-20.63-30.96-28.24-48.1h39.04c22.71 0 45.16-5.29 65.28-15.73 1.56-.8 3.11-1.65 4.65-2.52 15.08-8.59 33.08-13.58 52.41-13.58s37.32 4.99 52.4 13.58c21.28 12.11 45.45 18.25 69.94 18.25z" fill="#fef056"/><path d="m119.66 283.27h-110.68c-.98-8.95-1.48-18.05-1.48-27.27 0-7.02.29-13.97.86-20.84h110.68c-.57 6.87-.86 13.82-.86 20.84 0 9.22.5 18.31 1.48 27.27z" fill="#ffd15b"/><path d="m196 436.61c-1.92.1-3.85.15-5.8.15-19.33 0-37.33-4.99-52.41-13.58-21.28-12.11-45.45-18.25-69.93-18.25h-10.8c-11.13-14.84-20.63-30.96-28.24-48.1h39.04c22.71 0 45.16-5.29 65.28-15.73 13.35 36.63 35.08 69.24 62.86 95.51z" fill="#ffd15b"/><path d="m70.08 147.04h-37.47c8.42-17.25 18.79-33.38 30.82-48.11h6.65c24.48 0 48.65-6.14 69.93-18.25 15.08-8.59 33.08-13.58 52.41-13.58 4.08 0 8.09.22 12.04.65-29.79 25.69-53.41 58.33-68.35 95.4-20.31-10.69-43.03-16.11-66.03-16.11z" fill="#ffd15b"/><g fill="#fea95c"><ellipse cx="377.966" cy="259.215" rx="30.773" ry="22.892"/><ellipse cx="185.93" cy="380.88" rx="30.773" ry="22.892"/><ellipse cx="185.93" cy="122.985" rx="30.773" ry="22.892"/></g></g><g><path d="m511.114 234.538c-2.64-31.741-11.046-62.289-24.984-90.788-8.603-17.626-19.286-34.302-31.751-49.564-48.883-59.857-121.189-94.186-198.379-94.186s-149.496 34.329-198.379 94.186c-12.465 15.262-23.148 31.938-31.749 49.559-13.94 28.505-22.347 59.052-24.986 90.795-.588 7.084-.886 14.304-.886 21.46 0 9.398.513 18.847 1.524 28.084.958 8.782 2.387 17.585 4.246 26.164.877 4.048 4.873 6.62 8.918 5.742 4.048-.877 6.619-4.87 5.742-8.918-1.162-5.362-2.127-10.82-2.92-16.302h237.66c23.47 0 46.369 5.971 66.218 17.267 16.726 9.527 36.132 14.563 56.122 14.563 19.984 0 39.387-5.036 56.11-14.562 18.336-10.435 39.277-16.314 60.868-17.152-2.917 20.127-8.359 39.731-16.235 58.444h-74.373c-4.142 0-7.5 3.358-7.5 7.5s3.358 7.5 7.5 7.5h67.43c-5.814 11.537-12.576 22.62-20.186 33.1h-138.584c-26.073 0-51.541 6.65-73.652 19.233-14.467 8.241-31.303 12.597-48.688 12.597-17.391 0-34.231-4.356-48.701-12.598-22.109-12.582-47.573-19.232-73.64-19.232h-6.984c-7.61-10.48-14.371-21.563-20.186-33.1h27.17c26.066 0 51.531-6.65 73.643-19.233 14.467-8.241 31.307-12.597 48.698-12.597 17.384 0 34.22 4.356 48.69 12.598 22.108 12.582 47.576 19.232 73.649 19.232h56.66c4.142 0 7.5-3.358 7.5-7.5s-3.358-7.5-7.5-7.5h-56.66c-23.477 0-46.379-5.971-66.228-17.267-16.726-9.527-36.129-14.563-56.112-14.563-19.99 0-39.397 5.036-56.12 14.562-19.85 11.297-42.749 17.268-66.219 17.268h-34.107c-1.382-3.281-2.685-6.558-3.88-9.784-1.438-3.884-5.752-5.869-9.638-4.429-3.884 1.438-5.867 5.753-4.429 9.637 1.845 4.983 3.917 10.07 6.159 15.12 7.772 17.505 17.562 34.178 29.094 49.556 23.355 31.145 53.972 56.952 88.541 74.632 36.249 18.538 75.412 27.938 116.4 27.938s80.151-9.4 116.4-27.939c34.569-17.679 65.186-43.487 88.54-74.631 11.533-15.378 21.322-32.051 29.092-49.551 10.701-24.048 17.579-49.549 20.443-75.793 1.012-9.239 1.525-18.688 1.525-28.086 0-7.156-.298-14.376-.886-21.462zm-145.544 236.168c-34.114 17.448-70.979 26.294-109.57 26.294s-75.456-8.846-109.57-26.294c-27.955-14.297-53.153-34.254-73.647-58.181 21.739.775 42.836 6.668 61.294 17.172 16.726 9.527 36.132 14.563 56.123 14.563 19.983 0 39.387-5.036 56.109-14.562 19.852-11.297 42.754-17.269 66.23-17.269h126.759c-20.507 23.971-45.735 43.961-73.728 58.277zm-298.516-364.276h3.026c26.067 0 51.531-6.65 73.642-19.233 14.467-8.241 31.307-12.597 48.698-12.597 11.776 0 23.202 1.964 33.96 5.836 3.895 1.404 8.194-.619 9.597-4.516s-.619-8.194-4.516-9.597c-12.393-4.461-25.528-6.723-39.041-6.723-19.99 0-39.396 5.036-56.12 14.562-16.946 9.644-36.115 15.391-55.962 16.871 45.512-48.508 108.623-76.033 175.662-76.033 67.222 0 130.496 27.675 176.035 76.43h-117.275c-17.889 0-35.169-3.374-51.359-10.027-3.83-1.575-8.213.255-9.788 4.086s.255 8.213 4.086 9.788c18.008 7.4 37.206 11.153 57.061 11.153h130.187c8.262 10.423 15.655 21.508 22.071 33.11h-152.258c-26.073 0-51.541 6.65-73.652 19.233-14.467 8.241-31.303 12.597-48.688 12.597-17.391 0-34.23-4.356-48.701-12.598-22.108-12.582-47.572-19.232-73.639-19.232h-25.097c6.414-11.601 13.808-22.686 22.071-33.11zm-29.703 48.11h32.729c23.471 0 46.369 5.971 66.218 17.267 16.726 9.527 36.132 14.563 56.122 14.563 19.983 0 39.387-5.036 56.109-14.562 19.852-11.297 42.754-17.268 66.23-17.268h159.89c10.767 23.134 17.701 47.65 20.68 73.044-21.888-.716-43.135-6.622-61.707-17.191-16.726-9.527-36.129-14.563-56.112-14.563-19.99 0-39.396 5.036-56.119 14.562-19.852 11.297-42.75 17.268-66.221 17.268h-238.508c2.974-25.42 9.911-49.961 20.689-73.12zm388.847 140.463c-14.467 8.241-31.303 12.597-48.688 12.597-17.391 0-34.23-4.356-48.7-12.598-22.108-12.582-47.573-19.232-73.64-19.232h-239.369c-.531-6.547-.801-13.171-.801-19.77 0-4.44.134-8.903.375-13.34h239.795c26.067 0 51.531-6.65 73.642-19.233 14.468-8.241 31.307-12.597 48.698-12.597 17.385 0 34.221 4.356 48.691 12.598 21.194 12.062 45.478 18.654 70.422 19.18.242 4.455.377 8.935.377 13.392 0 6.618-.271 13.261-.805 19.828-24.793.592-48.921 7.181-69.997 19.175z"/><path d="m377.966 228.823c-21.104 0-38.273 13.634-38.273 30.392s17.169 30.392 38.273 30.392 38.272-13.634 38.272-30.392-17.169-30.392-38.272-30.392zm0 45.784c-12.615 0-23.273-7.049-23.273-15.392s10.658-15.392 23.273-15.392 23.272 7.049 23.272 15.392-10.657 15.392-23.272 15.392z"/><path d="m147.657 380.88c0 16.758 17.169 30.392 38.273 30.392s38.272-13.634 38.272-30.392-17.169-30.392-38.272-30.392c-21.104 0-38.273 13.634-38.273 30.392zm61.546 0c0 8.344-10.658 15.392-23.272 15.392-12.615 0-23.273-7.049-23.273-15.392s10.658-15.392 23.273-15.392c12.614 0 23.272 7.049 23.272 15.392z"/><path d="m185.93 153.377c21.104 0 38.272-13.634 38.272-30.392s-17.169-30.392-38.272-30.392c-21.104 0-38.273 13.634-38.273 30.392s17.169 30.392 38.273 30.392zm0-45.784c12.615 0 23.272 7.049 23.272 15.392 0 8.344-10.658 15.392-23.272 15.392-12.615 0-23.273-7.049-23.273-15.392s10.658-15.392 23.273-15.392z"/></g></g></svg>