<svg id="Capa_1" enable-background="new 0 0 512.053 512.053" height="512" viewBox="0 0 512.053 512.053" width="512" xmlns="http://www.w3.org/2000/svg"><g><g><g fill="#c4e2ff"><circle cx="257.6" cy="256.021" r="77.888"/><path d="m473.462 251.833v-26.189l-25.036-31.063-21.558 28.626v28.626l23.297 17.885z"/><path d="m38.59 251.833v-26.189l25.036-31.063 21.557 28.626v28.626l-23.296 17.885z"/></g><path d="m56.692 203.821c-29.597-28.609-21.033-78.73 16.913-94.687.647-.272 1.301-.534 1.962-.786 1.645-.627 3.301-1.161 4.963-1.639 1.678-19.517 14.216-37.321 33.746-44.768 2.803-1.069 5.642-1.869 8.489-2.439-.081-.203-.171-.401-.249-.606-7.457-19.555 2.351-41.453 21.907-48.91 18.07-6.891 38.132.969 46.959 17.631.966-.747 1.96-1.47 3.002-2.148 19.592-12.74 45.464-8.082 59.49 10.107 10.348 18.426 5.729 41.644-10.883 54.706l-146.961 115.549c-11.772 9.256-28.571 8.398-39.338-2.01z" fill="#80d261"/><g><path d="m103.604 119.134c.647-.272 1.301-.534 1.962-.786 1.645-.627 3.301-1.161 4.963-1.64 1.678-19.517 14.216-37.321 33.746-44.768 2.803-1.069 5.642-1.869 8.489-2.439-.081-.203-.171-.401-.249-.606-7.457-19.556 2.351-41.453 21.907-48.91 3.091-1.179 6.24-1.916 9.382-2.261-10.24-9.568-25.404-13.069-39.382-7.739-19.555 7.457-29.363 29.354-21.907 48.91.078.205.167.403.249.606-2.847.57-5.685 1.37-8.489 2.439-19.53 7.447-32.069 25.251-33.746 44.768-1.661.479-3.318 1.012-4.963 1.64-.661.252-1.315.514-1.962.786-37.946 15.957-46.51 66.077-16.913 94.687 7.538 7.287 18.031 9.886 27.687 7.617-26.784-28.929-17.689-76.78 19.226-92.304z" fill="#68ca44"/></g><circle cx="280.331" cy="85.605" fill="#ea433f" r="77.656"/><path d="m232.675 85.605c0-37.755 26.948-69.204 62.656-76.194-4.855-.95-9.867-1.462-15-1.462-42.888 0-77.656 34.768-77.656 77.656s34.768 77.656 77.656 77.656c5.133 0 10.145-.511 15-1.461-35.708-6.991-62.656-38.44-62.656-76.195z" fill="#e32928"/><path d="m429.412 104.821c-3.763-7.585-10.002-13.127-17.254-16.134 7.873-9.071 8.345-22.753.515-32.402-8.776-10.815-24.658-12.468-35.473-3.692-2.721 2.208-4.862 4.866-6.403 7.78-8.496-4.018-18.906-3.105-26.691 3.213-10.815 8.776-22.161 32.524-13.385 43.339 6.828 8.415 11.314 51.118 11.314 51.118 8.266 16.659 55.521.173 72.18-8.093 16.658-8.264 23.463-28.47 15.197-45.129z" fill="#80d261"/><path d="m360.72 126.926c-8.776-10.815 2.57-34.563 13.385-43.339 7.785-6.317 18.196-7.231 26.691-3.213 3.41-6.448 9.598-11.288 17.058-12.865-4.373-23.323-35.924-28.19-47.058-7.135-8.496-4.018-18.906-3.105-26.691 3.213-10.815 8.776-22.161 32.524-13.385 43.339 6.828 8.415 11.314 51.119 11.314 51.119 3.694 7.446 15.179 8.268 28.238 6.164-1.912-13.258-5.272-32.008-9.552-37.283z" fill="#68ca44"/><path d="m376.879 116.923 85.735 19.195-23.962 98.739z" fill="#ffe177"/><path d="m454.438 169.809 8.176-33.692-85.735-19.194 21.078 40.241z" fill="#ffd15b"/><path d="m256.026 65.25c-102.931 0-186.374 83.442-186.374 186.374s83.442 186.374 186.374 186.374 186.374-83.442 186.374-186.374-83.443-186.374-186.374-186.374zm0 248.498c-34.31 0-62.125-27.814-62.125-62.125s27.814-62.125 62.125-62.125 62.125 27.814 62.125 62.125-27.815 62.125-62.125 62.125z" fill="#f59705"/><g fill="#ef7f02"><path d="m105.244 251.623c0-96.927 73.996-176.562 168.578-185.523-5.858-.555-11.792-.851-17.796-.851-102.931 0-186.374 83.442-186.374 186.374s83.442 186.374 186.374 186.374c6.004 0 11.938-.295 17.796-.85-94.582-8.961-168.578-88.596-168.578-185.524z"/><path d="m273.822 311.147c5.639 1.684 11.609 2.6 17.796 2.6 34.31 0 62.124-27.814 62.124-62.124s-27.814-62.125-62.124-62.125c-6.187 0-12.157.917-17.796 2.601 25.635 7.654 44.329 31.4 44.329 59.524-.001 28.124-18.694 51.871-44.329 59.524z"/></g><g><path d="m440.618 504.553h-370.966l-7.556-61.474 11.331-15.531-15.149-15.531-19.688-160.184h65.661c17.412 67.604 78.786 117.553 151.826 117.553s134.414-49.95 151.826-117.553h65.558l-20.818 160.184-19.716 15.531 15.705 15.332z" fill="#eaf6ff"/></g><g><path d="m103.428 427.548-15.149-15.531-19.689-160.184h-30l19.689 160.184 15.149 15.531-11.331 15.531 7.555 61.474h30l-7.555-61.474z" fill="#d8ecfe"/></g><path d="m448.607 443.079h-386.51l-3.823-31.062h394.37z" fill="#c4e2ff"/><path d="m58.274 412.017 3.823 31.062h30l-3.823-31.062z" fill="#b3dafe"/></g><g><path d="m479.301 220.938-22.714-28.183 13.316-54.869c.99-4.077-1.56-8.172-5.649-9.087l-23.991-5.371c1.353-14.818-5.504-29.092-17.492-37.436 5.188-11.104 3.793-24.491-4.274-34.434-12.971-15.985-37.516-16.181-50.692-.156-3.236-.787-6.56-1.058-9.848-.849-21.111-46.703-79.093-64.736-123.112-36.923-4.591-2.863-23.837-6.028-41.311 3.608-12.067-15.284-33.009-21.418-51.784-14.261-21.395 8.159-32.581 30.37-28.354 51.305-20.671 7.136-35.969 25.249-39.688 46.755-42.345 15.452-55.808 68.606-26.986 103.055-12.849 16.277-15.632 16.942-15.632 21.552.004 36.707 30.873 277.829 31.118 279.824.462 3.76 3.656 6.585 7.444 6.585h370.965c3.769 0 6.952-2.796 7.438-6.533l20.084-154.534c.534-4.107-2.363-7.87-6.471-8.404-4.108-.538-7.87 2.363-8.404 6.471l-7.208 55.465h-381.143l-17.845-145.186h51.477c20.542 69.509 84.499 117.554 157.533 117.554s136.991-48.045 157.533-117.554h51.312l-7.412 57.034c-.534 4.107 2.363 7.87 6.471 8.404 4.104.537 7.87-2.363 8.404-6.471 8.882-68.374 8.575-65.739 8.575-66.468v-26.188c0-1.711-.586-3.372-1.66-4.705zm-35.195 198.579c-.549 4.229-1.566 12.05-2.087 16.062h-225.801c-4.142 0-7.5 3.357-7.5 7.5s3.358 7.5 7.5 7.5h223.852l-6.04 46.474h-357.743l-5.712-46.474h112.957c4.142 0 7.5-3.357 7.5-7.5s-3.358-7.5-7.5-7.5h-114.8l-1.974-16.062zm-91.245-352.55c1.733.147 3.474-.294 4.98-1.368 3.279-.403 6.669.098 9.748 1.555 3.625 1.715 7.961.272 9.837-3.274 5.902-11.157 21.413-12.74 29.422-2.869 5.432 6.693 5.282 16.266-.354 22.76-3.351 3.861-1.936 9.885 2.791 11.844 9.754 4.044 16.282 13.695 16.129 24.489l-34.674-7.763c-14.372-13.905-30.881-25.608-48.981-34.571 2.799-4.385 6.342-8.721 11.102-10.803zm-9.409-12.004c-6.519 3.805-11.653 10.108-15.499 16.629-36.942-14.812-76.843-17.432-113.814-9.345 20.452-58.559 102.073-63.318 129.313-7.284zm-281.152 189.369h-16.21v-15.982l11.777-14.198c2.297 1.416 4.739 2.587 7.288 3.479-1.56 8.78-2.518 17.699-2.855 26.701zm345.604 0c-3.422 0-6.409 2.315-7.263 5.629-16.974 65.899-76.42 111.925-144.563 111.925s-127.59-46.025-144.563-111.925c-.854-3.313-3.842-5.629-7.263-5.629h-26.944c1.677-41.321 17.558-80.743 45.163-111.703 2.756-3.092 2.485-7.833-.607-10.589-3.091-2.756-7.831-2.486-10.589.606-20.627 23.134-35.212 50.627-42.883 80.146-2.389-1.064-4.594-2.534-6.488-4.365-26.814-25.92-18.051-73.373 20.698-84.512 2.986-.858 5.135-3.47 5.401-6.565 1.477-17.188 12.839-32.262 28.947-38.403 8.044-3.07 23.622-5.772 36.525-3.459 4.073.742 7.975-1.979 8.707-6.058.731-4.077-1.981-7.975-6.058-8.706-10.895-1.954-21.418-1.012-28.114.059-2.562-14.046 5.12-28.466 19.086-33.791 14.31-5.458 30.5.621 37.66 14.134 2.18 4.113 7.54 5.265 11.216 2.422 7.105-5.498 15.496-7.984 23.746-7.745-11.143 11.3-18.924 25.507-22.425 40.941-21.99 6.967-42.645 17.906-61.256 32.588-3.252 2.565-3.808 7.281-1.243 10.533 2.566 3.252 7.282 3.81 10.534 1.242 113.343-89.418 283.504-13.315 289.411 133.224h-26.835zm.283-112.714 45.339 10.15-12.545 51.692c-7.15-22.688-18.367-43.589-32.794-61.842zm57.774 112.714h-16.213c-.22-5.912-.692-11.76-1.432-17.527.224-.874 2.841-11.685 3.812-15.678l13.833 17.164z"/><path d="m256.026 181.999c-38.391 0-69.625 31.233-69.625 69.624 0 38.392 31.233 69.625 69.625 69.625s69.625-31.233 69.625-69.625c0-38.39-31.234-69.624-69.625-69.624zm0 124.249c-30.12 0-54.625-24.505-54.625-54.625s24.504-54.624 54.625-54.624 54.625 24.504 54.625 54.624-24.505 54.625-54.625 54.625z"/><path d="m261.795 46.771c3.728 0 7.5-2.957 7.5-7.5 0-4.144-3.37-7.497-7.496-7.497-4.108 0-7.503 3.294-7.503 7.497 0 4.197 3.428 7.5 7.499 7.5z"/><path d="m195.447 126.991c-2.929-2.928-7.678-2.928-10.606 0l-10.462 10.462c-2.929 2.93-2.929 7.678 0 10.607 2.93 2.929 7.678 2.928 10.606 0l10.462-10.462c2.929-2.929 2.929-7.677 0-10.607z"/><path d="m147.236 209.878-10.462 10.462c-2.929 2.93-2.929 7.678 0 10.607 2.93 2.929 7.678 2.928 10.606 0l10.462-10.462c2.929-2.93 2.929-7.678 0-10.607-2.928-2.928-7.677-2.928-10.606 0z"/><path d="m280.403 142.306 10.462-10.461c2.93-2.929 2.93-7.678.001-10.606s-7.678-2.93-10.606-.001l-10.462 10.461c-2.93 2.929-2.93 7.678-.001 10.606 2.928 2.928 7.676 2.931 10.606.001z"/><path d="m363.144 178.978-10.461 10.462c-2.929 2.929-2.929 7.678.001 10.606 2.928 2.928 7.677 2.929 10.606-.001l10.461-10.462c2.929-2.929 2.929-7.678-.001-10.606-2.927-2.928-7.676-2.929-10.606.001z"/></g></g></svg>