<svg id="Capa_1" enable-background="new 0 0 511.768 511.768" height="512" viewBox="0 0 511.768 511.768" width="512" xmlns="http://www.w3.org/2000/svg"><g><g><path d="m423.212 193.873h-60.92l-18.555 13.537 18.555 17.525h39.488c3.924 0 7.105 3.181 7.105 7.105v147.185c0 4.199-2.67 7.933-6.643 9.292l-39.95 13.661-18.555 19.088 18.555 15.927 60.839-20.28c10.043-3.348 16.817-12.746 16.817-23.333v-182.971c0-9.243-7.493-16.736-16.736-16.736z" fill="#c4e2ff"/><g><path d="m392.292 224.936v-31.063h-30l-18.555 13.537 18.555 17.526z" fill="#b3dafe"/></g><path d="m98.263 147.27h264.029v341.467h-264.029z" fill="#eaf6ff"/><path d="m98.263 147.27h31.062v341.467h-31.062z" fill="#d8ecfe"/><path d="m362.292 162.801h-264.029c-8.578 0-15.531-6.954-15.531-15.531 0-8.578 6.954-15.531 15.531-15.531h264.029c8.578 0 15.531 6.954 15.531 15.531 0 8.578-6.954 15.531-15.531 15.531z" fill="#c4e2ff"/><path d="m112.731 147.27c0-8.578 6.953-15.531 15.531-15.531h-30c-8.578 0-15.531 6.954-15.531 15.531 0 8.578 6.953 15.531 15.531 15.531h30c-8.577 0-15.531-6.953-15.531-15.531z" fill="#b3dafe"/><path d="m152.622 441.474c-12.866 0-23.297-10.43-23.297-23.297v-201.007c0-12.866 10.43-23.297 23.297-23.297 12.866 0 23.297 10.43 23.297 23.297v201.007c-.001 12.866-10.431 23.297-23.297 23.297z" fill="#c4e2ff"/><path d="m149.325 418.177v-201.007c0-9.287 5.435-17.302 13.297-21.044-3.03-1.443-6.42-2.252-10-2.252-12.866 0-23.297 10.43-23.297 23.297v201.007c0 12.866 10.43 23.297 23.297 23.297 3.58 0 6.97-.81 10-2.252-7.862-3.744-13.297-11.759-13.297-21.046z" fill="#b3dafe"/><path d="m230.277 441.474c-12.866 0-23.297-10.43-23.297-23.297v-201.007c0-12.866 10.43-23.297 23.297-23.297 12.866 0 23.297 10.43 23.297 23.297v201.007c0 12.866-10.43 23.297-23.297 23.297z" fill="#c4e2ff"/><path d="m226.98 418.177v-201.007c0-9.287 5.435-17.302 13.297-21.044-3.03-1.443-6.42-2.252-10-2.252-12.866 0-23.297 10.43-23.297 23.297v201.007c0 12.866 10.43 23.297 23.297 23.297 3.58 0 6.97-.81 10-2.252-7.861-3.744-13.297-11.759-13.297-21.046z" fill="#b3dafe"/><path d="m307.933 441.474c-12.866 0-23.297-10.43-23.297-23.297v-201.007c0-12.866 10.43-23.297 23.297-23.297 12.866 0 23.297 10.43 23.297 23.297v201.007c-.001 12.866-10.431 23.297-23.297 23.297z" fill="#c4e2ff"/><path d="m304.636 418.177v-201.007c0-9.287 5.435-17.302 13.297-21.044-3.03-1.443-6.42-2.252-10-2.252-12.866 0-23.297 10.43-23.297 23.297v201.007c0 12.866 10.43 23.297 23.297 23.297 3.58 0 6.97-.81 10-2.252-7.862-3.744-13.297-11.759-13.297-21.046z" fill="#b3dafe"/><path d="m381.707 108.003c-1.167-18.228-15.86-33.062-34.077-34.394-8.899-.651-17.183 1.864-23.862 6.521.336-2.159.513-4.37.513-6.623 0-23.588-19.122-42.711-42.711-42.711-6.078 0-11.854 1.278-17.089 3.566-11.007-16.21-29.589-26.862-50.661-26.862-26.521 0-49.094 16.873-57.59 40.467-4.97-2.311-10.506-3.61-16.348-3.61-21.444 0-38.828 17.384-38.828 38.828 0 2.331.217 4.61.611 6.828-1.115-.143-2.249-.225-3.402-.225-14.597 0-26.431 11.833-26.431 26.43v.109c.025 6.289 4.095 11.857 9.965 14.115 3.682 1.416-13.664 1.476 31.949 1.355 8.594-.023 15.579 6.937 15.579 15.531v31.015c0 8.578 6.954 15.531 15.531 15.531 8.578 0 15.531-6.954 15.531-15.531v-31.146c0-8.57 6.941-15.52 15.51-15.531.542-.001 1.087-.001 1.633-.002 8.585-.011 15.557 6.946 15.557 15.531v.085c0 8.578 6.954 15.531 15.531 15.531 8.578 0 15.531-6.954 15.531-15.531v-.124c0-8.578 6.945-15.531 15.523-15.531 35.454.001 84.896.034 131.639.124l1.722-1.235c3.823-2.742 6.59-6.74 7.703-11.311.868-3.559 1.219-7.32.971-11.2z" fill="#ffe177"/><g><g><path d="m101.832 126.327c0-.036 0-.073 0-.109 0-14.597 11.833-26.43 26.431-26.43 1.154 0 2.287.082 3.402.225-.394-2.218-.611-4.497-.611-6.828 0-21.444 17.384-38.828 38.828-38.828 5.842 0 11.378 1.298 16.348 3.61 8.495-23.594 31.069-40.467 57.59-40.467 1.244 0 2.478.04 3.703.113-9.665-6.39-21.249-10.113-33.703-10.113-26.521 0-49.094 16.873-57.59 40.467-4.97-2.311-10.506-3.61-16.348-3.61-21.444 0-38.828 17.384-38.828 38.828 0 2.331.217 4.61.611 6.828-1.115-.143-2.249-.225-3.402-.225-14.597 0-26.431 11.833-26.431 26.43v.109c.025 6.289 4.095 11.857 9.965 14.115 3.351 1.289-10.711 1.454 21.135 1.382-.702-1.716-1.092-3.572-1.1-5.497z" fill="#ffd15b"/></g></g><path d="m362.292 504.268h-264.029c-8.578 0-15.531-6.954-15.531-15.531 0-8.578 6.954-15.531 15.531-15.531h264.029c8.578 0 15.531 6.954 15.531 15.531 0 8.577-6.954 15.531-15.531 15.531z" fill="#c4e2ff"/><path d="m112.731 488.737c0-8.578 6.953-15.531 15.531-15.531h-30c-8.578 0-15.531 6.953-15.531 15.531 0 8.578 6.953 15.531 15.531 15.531h30c-8.577 0-15.531-6.954-15.531-15.531z" fill="#b3dafe"/><circle cx="377.823" cy="23.031" fill="#ffe177" r="15.531"/><path d="m382.292 23.031c0-4.766 2.151-9.026 5.531-11.875-2.703-2.278-6.189-3.656-10-3.656-8.578 0-15.531 6.954-15.531 15.531s6.953 15.531 15.531 15.531c3.811 0 7.297-1.378 10-3.656-3.38-2.849-5.531-7.109-5.531-11.875z" fill="#ffd15b"/></g><g><path d="m230.277 186.373c-16.981 0-30.797 13.815-30.797 30.797v201.007c0 16.981 13.815 30.797 30.797 30.797 16.98 0 30.796-13.815 30.796-30.797v-201.007c0-16.982-13.815-30.797-30.796-30.797zm15.796 231.804c0 8.71-7.086 15.797-15.796 15.797s-15.797-7.087-15.797-15.797v-201.007c0-8.71 7.087-15.797 15.797-15.797s15.796 7.087 15.796 15.797z"/><path d="m307.933 186.373c-16.981 0-30.797 13.815-30.797 30.797v201.007c0 16.981 13.815 30.797 30.797 30.797s30.797-13.815 30.797-30.797v-201.007c0-16.982-13.816-30.797-30.797-30.797zm15.797 231.804c0 8.71-7.086 15.797-15.797 15.797s-15.797-7.087-15.797-15.797v-201.007c0-8.71 7.086-15.797 15.797-15.797s15.797 7.087 15.797 15.797z"/><path d="m439.947 346.662c4.143 0 7.5-3.357 7.5-7.5v-128.554c0-13.363-10.872-24.235-24.235-24.235h-53.42v-17.333c14.586-5.039 20.276-22.85 11.064-35.38 6.963-6.976 8.945-16.599 8.335-26.136-1.827-28.509-30.191-48.18-57.705-39.48-3.363-30.945-34.205-51.69-64.325-42.642-9.774-12.06-23.243-20.426-38.482-23.789-4.049-.892-8.048 1.664-8.94 5.708-.893 4.045 1.663 8.047 5.708 8.94 13.409 2.959 25.068 10.884 32.83 22.314 2.029 2.987 5.898 4.104 9.209 2.659 24.236-10.595 51.178 8.498 49.193 34.921-3.941 3.334-10.768 10.194-13.722 19.714-1.5 4.835 2.129 9.725 7.165 9.725 3.199 0 6.163-2.063 7.161-5.279 3.418-11.012 15.782-20.272 29.801-19.226 25.978 1.9 33.956 34.016 21.817 43.155-56.292-.106-108.988-.119-129.228-.12-12.695 0-23.023 10.332-23.023 23.031v.125c0 4.357-3.489 7.907-7.819 8.021h-.424c-4.329-.114-7.818-3.665-7.818-8.106 0-6.155-2.399-11.941-6.756-16.292-14.039-14.02-40.945-5.125-40.945 16.294v31.146c0 4.429-3.603 8.031-8.031 8.031s-8.031-3.603-8.031-8.031v-31.015c0-6.161-2.403-11.951-6.767-16.304-9.047-9.023-16.538-6.452-43.823-6.707 0 0-2.543-.906-4.19-2.292-2.803-2.356-2.684-5.726-2.712-5.807 0-11.277 9.901-20.242 21.376-18.767 5.057.644 9.221-3.801 8.341-8.752-4.449-25.05 21.109-44.389 43.812-34.021 3.639 2.051 13.607 9.101 15.842 16.99 1.125 3.97 5.257 6.303 9.261 5.171 3.985-1.129 6.3-5.275 5.171-9.261-2.606-9.199-9.791-16.818-17.554-22.459 6.277-12.767 17.574-22.784 31.135-27.339 3.927-1.318 6.041-5.571 4.722-9.497-1.318-3.928-5.577-6.045-9.497-4.722-17.337 5.823-31.787 18.619-39.821 34.932-29.154-8.005-58.191 13.836-58.561 44.119-27.125 3.779-39.824 39.262-18.538 52.772l2.272 2.383c-5.605 12.32.645 26.841 13.471 31.272v297.926c-9.027 3.119-15.531 11.697-15.531 21.771 0 12.699 10.332 23.031 23.031 23.031h264.029c12.699 0 23.031-10.332 23.031-23.031 0-10.074-6.504-18.652-15.531-21.771v-24.365l55.71-18.57c13.126-4.376 21.945-16.611 21.945-30.448v-21.733c0-4.143-3.357-7.5-7.5-7.5s-7.5 3.357-7.5 7.5v21.733c0 7.37-4.697 13.888-11.689 16.218l-50.966 16.989v-19.248l34.876-11.926c7.008-2.396 11.717-8.981 11.717-16.389v-147.185c0-8.054-6.552-14.605-14.604-14.605h-31.988v-16.062h53.42c5.093 0 9.235 4.143 9.235 9.235v128.554c-.004 4.142 3.354 7.499 7.496 7.499zm-334.184-176.361h16.062c.58 3.834-2.752 16.589 8.373 25.792-5.186 5.514-8.373 12.928-8.373 21.077v201.007c0 16.981 13.815 30.797 30.797 30.797s30.797-13.815 30.797-30.797v-145.95c0-4.143-3.357-7.5-7.5-7.5s-7.5 3.357-7.5 7.5v145.95c0 8.71-7.086 15.797-15.797 15.797s-15.797-7.087-15.797-15.797v-201.007c0-8.71 7.086-15.797 15.797-15.797s15.797 7.087 15.797 15.797v22.37c0 4.143 3.357 7.5 7.5 7.5s7.5-3.357 7.5-7.5v-22.37c0-12.493-7.482-23.265-18.197-28.09 1.699-3.208 2.665-6.862 2.665-10.738v-8.041h40.308c.141.002.281.011.423.011s.282-.008.423-.011h145.75v295.404h-249.028zm125.887-23.021v-.125c0-4.429 3.6-8.031 8.023-8.031 76.595.004 122.516.115 122.619.115 4.429 0 8.031 3.603 8.031 8.03 0 4.429-3.603 8.031-8.031 8.031h-132.086c.932-2.498 1.444-5.2 1.444-8.02zm-46.062 0c0 2.82.512 5.521 1.443 8.021h-19.144v-8.104c0-10.811 17.701-10.856 17.701.083zm-88.499-7.945c17.582-.026 19.311-.749 22.376 2.309 3.591 3.582 1.94 7.587 2.359 13.657h-23.561c-4.429 0-8.031-3.603-8.031-8.031 0-4.029 2.984-7.364 6.857-7.935zm265.203 357.433h-264.029c-4.429 0-8.031-3.603-8.031-8.031s3.603-8.031 8.031-8.031h264.029c4.429 0 8.031 3.603 8.031 8.031s-3.602 8.031-8.031 8.031zm39.093-264.332v146.791c0 .992-.631 1.874-1.569 2.195l-30.023 10.266v-159.252z"/><path d="m377.823 46.062c12.699 0 23.03-10.332 23.03-23.031s-10.33-23.031-23.03-23.031-23.031 10.332-23.031 23.031 10.332 23.031 23.031 23.031zm0-31.062c4.428 0 8.03 3.603 8.03 8.031s-3.603 8.031-8.03 8.031c-4.429 0-8.031-3.603-8.031-8.031s3.603-8.031 8.031-8.031z"/></g></g></svg>