<svg id="Capa_1" enable-background="new 0 0 512.18 512.18" height="512" viewBox="0 0 512.18 512.18" width="512" xmlns="http://www.w3.org/2000/svg"><g><path d="m433.134 489.065h-354.088c-30.885 0-55.923-25.037-55.923-55.923v-16.81c0-14.728 11.939-26.667 26.667-26.667h412.6c14.728 0 26.667 11.939 26.667 26.667v16.81c0 30.886-25.037 55.923-55.923 55.923z" fill="#f59705"/><path d="m462.147 367.688-206.147 14.85-205.967-14.85c-14.862 0-26.91-12.048-26.91-26.91 0-14.862 12.048-26.91 26.91-26.91l205.522-11.843 206.592 11.843c14.862 0 26.91 12.048 26.91 26.91 0 14.862-12.048 26.91-26.91 26.91z" fill="#ca2e43"/><path d="m80.033 367.688c-14.862 0-26.91-12.048-26.91-26.91 0-14.862 12.048-26.91 26.91-26.91l190.561-10.981-15.039-.862-205.522 11.843c-14.862 0-26.91 12.048-26.91 26.91 0 14.862 12.048 26.91 26.91 26.91l205.967 14.85 15.007-1.081z" fill="#ac2638"/><path d="m462.39 389.666h-412.6c-14.728 0-26.667 11.939-26.667 26.667v16.81c0 30.885 25.037 55.923 55.923 55.923h30c-21.159 0-39.569-11.752-49.067-29.085-3.804-6.942-1.513-15.765 5.231-19.91 7.167-4.405 11.933-10.542 25.209-10.542 20.707 0 20.707 14.933 41.414 14.933 20.708 0 20.708-14.933 41.417-14.933s20.709 14.933 41.417 14.933 20.708-14.933 41.416-14.933c20.706 0 20.706 14.933 41.411 14.933 20.708 0 20.708-14.933 41.416-14.933 20.709 0 20.709 14.933 41.417 14.933 20.709 0 20.709-14.933 41.419-14.933 20.709 0 20.709 14.933 41.418 14.933 13.498 0 18.201-6.341 25.572-10.759.101-.177.219-.384.321-.56v-16.81c0-14.728-11.939-26.667-26.667-26.667z" fill="#ef7f02"/><path d="m504.588 391.912c0 8.732-5.335 16.509-13.481 20.495-8.869 4.339-13.055 12.055-27.943 12.055-20.709 0-20.709-14.933-41.418-14.933-20.71 0-20.71 14.933-41.419 14.933s-20.709-14.933-41.417-14.933-20.708 14.933-41.416 14.933c-20.706 0-20.706-14.933-41.411-14.933-20.708 0-20.708 14.933-41.416 14.933-20.709 0-20.709-14.933-41.417-14.933s-20.708 14.933-41.417 14.933c-20.707 0-20.707-14.933-41.414-14.933s-20.707 14.933-41.414 14.933c-14.883 0-19.069-7.715-27.934-12.054-8.145-3.986-13.479-11.762-13.479-20.494v-1.857c0-12.571 10.684-22.762 23.864-22.762h449.268c13.18 0 23.864 10.191 23.864 22.762z" fill="#80d261"/><path d="m37.592 411.914v-1.857c0-12.571 10.684-22.762 23.864-22.762h442.951c-1.43-11.267-11.484-20-23.683-20h-449.268c-13.18 0-23.864 10.191-23.864 22.762v1.857c0 8.732 5.334 16.507 13.479 20.494 7.043 3.447 11.138 9.02 19.982 11.168-2.206-3.453-3.461-7.443-3.461-11.662z" fill="#68ca44"/><path d="m156.407 291.622h200.302v27.656l-100.619 90.25-99.683-89.411z" fill="#ffe177"/><path d="m166.98 302.692 19.427-11.063-30-.007v28.495l99.683 89.411 15-13.454z" fill="#ffd23c"/><path d="m504.588 296.247c0 8.732-5.335 16.509-13.481 20.495-8.869 4.339-13.055 12.055-27.943 12.055-20.709 0-20.709-14.933-41.418-14.933-20.71 0-20.71 14.933-41.419 14.933s-20.709-14.933-41.417-14.933-20.708 14.933-41.416 14.933c-20.706 0-20.706-14.933-41.411-14.933-20.708 0-20.708 14.933-41.416 14.933-20.709 0-20.709-14.933-41.417-14.933s-20.708 14.933-41.417 14.933c-20.707 0-20.707-14.933-41.414-14.933s-20.707 14.933-41.414 14.933c-14.883 0-19.069-7.715-27.934-12.054-8.145-3.986-13.479-11.762-13.479-20.494v-1.857c0-12.571 10.684-22.762 23.864-22.762h17.185l207.359-9.898 214.816 9.898h9.909c13.18 0 23.864 10.191 23.864 22.762v1.855z" fill="#80d261"/><path d="m37.592 316.248v-1.856c0-12.571 10.684-22.762 23.864-22.762h442.951c-1.43-11.267-11.484-20-23.683-20h-9.91l-214.814-9.898-207.999 9.898h-16.545c-13.18 0-23.864 10.191-23.864 22.762v1.856c0 8.732 5.334 16.507 13.479 20.494 7.043 3.447 11.137 9.02 19.982 11.168-2.206-3.453-3.461-7.443-3.461-11.662z" fill="#68ca44"/><path d="m470.816 235.147-211.43-11.951-218.021 11.951c-10.074 0-18.241 8.167-18.241 18.241 0 10.074 8.167 18.241 18.241 18.241h8.352c11.046 0 20 8.954 20 20v37.781c0 8.578 6.954 15.531 15.531 15.531 8.578 0 15.531-6.953 15.531-15.531v-37.781c0-11.046 8.954-20 20-20h350.037c10.074 0 18.241-8.167 18.241-18.241 0-10.074-8.167-18.241-18.241-18.241z" fill="#ea433f"/><path d="m80.841 271.629h-8.352c-10.074 0-18.241-8.167-18.241-18.241 0-10.074 8.167-18.241 18.241-18.241l202.221-11.085-15.323-.866-218.022 11.951c-10.074 0-18.241 8.167-18.241 18.241 0 10.074 8.167 18.241 18.241 18.241h8.352c11.046 0 20 8.954 20 20v37.781c0 8.578 6.954 15.531 15.531 15.531 8.578 0 15.531-6.953 15.531-15.531v-37.781c0-.207.025-.408.031-.614-.327-10.758-9.131-19.386-19.969-19.386z" fill="#e32928"/><path d="m294.745 23.131h-77.31c-105.959 0-193.763 77.729-209.503 179.277-2.668 17.213 10.705 32.738 28.123 32.738h440.069c17.418 0 30.791-15.525 28.123-32.738-15.739-101.548-103.543-179.277-209.502-179.277z" fill="#f59705"/><path d="m37.932 202.409c15.74-101.549 103.545-179.277 209.503-179.277h-30c-105.959 0-193.763 77.729-209.503 179.277-2.668 17.213 10.705 32.738 28.123 32.738h30c-17.418 0-30.791-15.526-28.123-32.738z" fill="#ef7f02"/></g><g><g><path d="m492.943 266.521c5.095-8.551 4.805-19.326-.861-27.617 14.153-7.009 21.96-22.277 19.578-37.644-16.403-105.823-107.924-185.628-216.915-185.628-77.112.158-79.554-.381-92.721.533-4.132.287-7.25 3.869-6.963 8.001.286 4.132 3.855 7.245 8.001 6.963 12.338-.856 14.348-.348 91.683-.497 101.917 0 186.875 74.754 202.092 172.926 1.961 12.653-7.888 24.089-20.712 24.089h-440.069c-12.859 0-22.668-11.467-20.711-24.089 12.797-82.559 75.047-149.15 156.188-167.756 4.037-.926 6.56-4.949 5.634-8.986-.926-4.038-4.95-6.556-8.987-5.634-87.246 20.004-153.941 91.572-167.659 180.078-2.383 15.374 5.432 30.639 19.578 37.644-5.649 8.267-5.97 19.042-.861 27.617-24.598 10.077-26.122 44.887-1.464 56.957.656.321 1.292.686 1.923 1.068-6.133 11.449-5.401 25.682 2.602 36.568-26.171 7.725-30.467 43.044-6.675 56.875v15.154c0 34.971 28.451 63.422 63.422 63.422h354.089c34.971 0 63.422-28.451 63.422-63.422v-15.156c23.78-13.823 19.509-49.144-6.675-56.873 8.07-10.976 8.68-25.287 2.617-36.581.625-.378 1.255-.738 1.905-1.056 24.652-12.06 23.148-46.874-1.461-56.956zm-22.127-23.874c5.923 0 10.741 4.819 10.741 10.742s-4.818 10.741-10.741 10.741h-82.172c-4.142 0-7.5 3.358-7.5 7.5s3.358 7.5 7.5 7.5c86.149-.082 87.618-.061 92.081 0 17.577 0 22.721 23.225 7.086 30.875l-13.463 8.658c-2.937 1.625-6.183 2.634-11.183 2.634-16.589 0-18.574-14.933-41.418-14.933-22.73 0-24.916 14.933-41.419 14.933-16.593 0-18.564-14.933-41.417-14.933-22.728 0-24.915 14.933-41.417 14.933-16.591 0-18.56-14.933-41.412-14.933-22.729 0-24.916 14.933-41.416 14.933-16.593 0-18.564-14.933-41.417-14.933-22.729 0-24.917 14.933-41.417 14.933-11.661 0-14.309-5.819-23.554-10.732v-18.935c0-6.893 5.607-12.5 12.5-12.5h235.178c4.142 0 7.5-3.358 7.5-7.5s-3.358-7.5-7.5-7.5h-235.177c-15.164 0-27.5 12.336-27.5 27.5v37.781c0 4.428-3.603 8.031-8.031 8.031-4.429 0-8.031-3.603-8.031-8.031v-37.781c0-15.164-12.336-27.5-27.5-27.5h-8.352c-5.923 0-10.741-4.819-10.741-10.742s4.818-10.741 10.741-10.741zm-8.669 117.541h-139.816l34.93-31.33c5.174 3.616 11.813 7.438 23.067 7.438 22.73 0 24.916-14.933 41.419-14.933 16.589 0 18.574 14.933 41.418 14.933 7.127 0 12.402-1.534 16.628-3.576 5.877 12.852-3.564 27.468-17.646 27.468zm-292.843-38.578c19.989-2.692 20.927 14.686 45.363 14.686 22.729 0 24.916-14.933 41.416-14.933 16.591 0 18.561 14.933 41.412 14.933 24.958 0 24.835-17.465 45.38-14.684l-86.784 77.841zm-119.271 38.578c-14.053 0-23.528-14.577-17.643-27.464 9.513 4.595 21.62 4.501 30.284 1.261 2.128 10.515 11.44 18.457 22.573 18.457 12.699 0 23.031-10.332 23.031-23.031v-.898c5.245 3.714 11.941 7.782 23.554 7.782 11.263 0 17.903-3.827 23.079-7.445l34.938 31.338zm-34.941-65.797c0-8.416 7.341-15.262 16.364-15.262 1.233 0 11.272-.158 18.261 0 6.893 0 12.5 5.607 12.5 12.5v25.792c-3.543 2.335-7.042 3.874-13.212 3.874-12.244 0-14.52-6.337-24.637-11.29-10.569-5.173-9.182-15.277-9.276-15.614zm418.043 187.174h-354.089c-26.7 0-48.422-21.722-48.422-48.422v-5.667c4.506 2.479 10.231 4.486 18.381 4.486 22.742 0 24.905-14.933 41.414-14.933 16.592 0 18.562 14.933 41.414 14.933 6.975 0 12.802-1.415 18.337-4.452 3.631-1.993 4.959-6.552 2.967-10.184-1.992-3.63-6.551-4.958-10.184-2.967-2.208 1.212-5.467 2.603-11.12 2.603-16.592 0-18.562-14.933-41.414-14.933-22.742 0-24.905 14.933-41.414 14.933-12.244 0-14.519-6.339-24.637-11.291-10.548-5.163-9.187-15.294-9.275-15.614 0-8.416 7.341-15.262 16.364-15.262 0 0 174.495.408 175.087.366l33.593 30.132c-10.802 4.947-12.877 11.669-25.469 11.669-15.228 0-16.505-10.802-33.057-14.143-4.06-.818-8.016 1.807-8.836 5.867s1.807 8.016 5.867 8.836c11.515 2.325 15.385 14.44 36.026 14.44 22.729 0 24.916-14.933 41.416-14.933 16.591 0 18.561 14.933 41.412 14.933 22.743 0 24.906-14.933 41.417-14.933 16.593 0 18.564 14.933 41.417 14.933 22.73 0 24.916-14.933 41.419-14.933 16.589 0 18.574 14.933 41.418 14.933 8.156 0 13.884-2.009 18.392-4.49-.323 3 1.818 15.988-6.835 30.455-8.465 14.146-23.94 23.638-41.589 23.638zm63.953-91.508c-.145.524 1.472 10.354-9.277 15.613-10.03 4.908-12.458 11.292-24.646 11.292-16.589 0-18.574-14.933-41.418-14.933-22.73 0-24.916 14.933-41.419 14.933-16.593 0-18.564-14.933-41.417-14.933-22.728 0-24.915 14.933-41.417 14.933-12.571 0-14.685-6.728-25.455-11.664l33.65-30.183c.101.013 157.585.384 162.349-.442 1.245.22.931.077 12.686.122 9.023 0 16.364 6.847 16.364 15.262z"/><path d="m134.304 95.464-15.531 15.531c-2.929 2.929-2.929 7.678 0 10.606 2.929 2.929 7.678 2.929 10.606 0l15.531-15.531c2.929-2.929 2.929-7.678 0-10.606-2.929-2.929-7.678-2.929-10.606 0z"/><path d="m253.628 121.601 15.531-15.531c2.929-2.929 2.929-7.678 0-10.606-2.929-2.929-7.678-2.929-10.606 0l-15.531 15.531c-2.929 2.929-2.929 7.678 0 10.606 2.929 2.93 7.677 2.929 10.606 0z"/><path d="m377.877 121.601 15.531-15.531c2.929-2.929 2.929-7.678 0-10.606-2.929-2.929-7.678-2.929-10.606 0l-15.531 15.531c-2.929 2.929-2.929 7.678 0 10.606 2.929 2.93 7.677 2.929 10.606 0z"/><path d="m331.284 181.015c2.929-2.929 2.929-7.678 0-10.606l-15.531-15.531c-2.929-2.929-7.678-2.929-10.606 0-2.929 2.929-2.929 7.678 0 10.606l15.531 15.531c2.928 2.93 7.677 2.929 10.606 0z"/><path d="m196.428 181.015c2.929 2.929 7.678 2.929 10.606 0 2.929-2.929 2.929-7.678 0-10.606l-15.531-15.531c-2.929-2.929-7.678-2.929-10.606 0-2.929 2.929-2.929 7.678 0 10.606z"/></g></g></svg>