<svg id="Capa_1" enable-background="new 0 0 512.552 512.552" height="512" viewBox="0 0 512.552 512.552" width="512" xmlns="http://www.w3.org/2000/svg"><g><g><path d="m54.113 225.321 24.834-16.472 358.372-.347 22.835 16.425v77.651l-10.446 15.93 10.446 15.334v77.852l-20.207 15.93h-361.338l-24.496-15.93v-77.257l12.417-15.929-12.417-15.93z" fill="#f59705"/><g fill="#ef7f02"><path d="m54.113 411.694h406.041v38.998h-406.041z"/><path d="m54.113 225.321v186.444l24.496 15.86.003-15.86v-152.365c0-7.778 6.301-14.085 14.079-14.093 8.489.103 15.34 7.008 15.34 15.521v12.168c0 8.363 6.427 15.559 14.78 15.952 8.919.42 16.282-6.687 16.282-15.513v-12.623c0-8.576 6.951-15.529 15.527-15.531l140.366-.039c9.034-.003 16.358 7.32 16.358 16.353v45.412c0 8.363 6.427 15.559 14.781 15.952 8.919.42 16.282-6.687 16.282-15.513v-45.482c0-9.164 7.499-16.948 16.661-16.78 8.888.164 16.046 7.42 16.046 16.35v123.766c0 8.578 6.954 15.531 15.531 15.531 8.578 0 15.531-6.953 15.531-15.531v-123.861c0-9.017 7.298-16.332 16.315-16.353l3.509-.008c9.046-.021 16.391 7.307 16.391 16.353v76.638c0 8.363 6.427 15.559 14.781 15.952 1.018.048 2.013-.014 2.982-.154v-128.94l-22.835-16.425-358.373.347z"/><path d="m54.113 302.578h406.041v31.859h-406.041z"/></g><path d="m54.113 302.578h24.496v31.859h-24.496z" fill="#e76401"/><path d="m54.113 411.694h24.496v38.998h-24.496z" fill="#e76401"/><path d="m473.741 473.76h-434.93c-8.578 0-15.531-6.954-15.531-15.531 0-8.578 6.954-15.531 15.531-15.531h434.93c8.578 0 15.531 6.953 15.531 15.531 0 8.577-6.953 15.531-15.531 15.531z" fill="#eaf6ff"/><path d="m53.279 458.229c0-8.578 6.953-15.531 15.531-15.531h-30c-8.578 0-15.531 6.953-15.531 15.531 0 8.578 6.953 15.531 15.531 15.531h30c-8.577 0-15.531-6.954-15.531-15.531z" fill="#d8ecfe"/><path d="m442.62 504.881h-372.688l-31.121-31.121h434.93z" fill="#c4e2ff"/><path d="m38.811 473.76 31.121 31.121h30l-31.121-31.121z" fill="#b3dafe"/><path d="m464.62 182.481-84.353-112.471-336.371 140.154c-7.948 3.312-5.579 15.148 3.031 15.146l45.57-.013c8.579-.002 15.535 6.952 15.535 15.531v12.606c0 8.578 6.954 15.531 15.531 15.531 8.578 0 15.531-6.954 15.531-15.531v-12.623c0-8.576 6.951-15.529 15.527-15.531l140.366-.039c9.034-.003 16.358 7.32 16.358 16.353v45.412c0 8.363 6.427 15.559 14.781 15.952 8.919.42 16.282-6.687 16.282-15.513v-45.483c0-9.163 7.499-16.948 16.661-16.78 8.888.164 16.046 7.42 16.046 16.35v123.768c0 8.578 6.954 15.531 15.531 15.531 8.578 0 15.531-6.953 15.531-15.531v-123.861c0-9.017 7.298-16.332 16.315-16.353l3.509-.008c9.046-.021 16.391 7.307 16.391 16.353v76.638c0 8.363 6.427 15.559 14.78 15.952 8.919.42 16.282-6.687 16.282-15.513v-109.528c0-9.556-3.1-18.854-8.834-26.499z" fill="#ffe177"/><g><g><g><path d="m123.81 225.297-31.143.009c8.5.09 15.364 7.001 15.364 15.523v12.606c0 8.578 6.954 15.531 15.531 15.531 8.578 0 15.531-6.953 15.531-15.531v-12.623c0-.637.05-1.262.125-1.879-.936-7.683-7.471-13.638-15.408-13.636z" fill="#ffd15b"/></g></g></g><g><path d="m290.58 109.753c-6.916 1.302-13.673 3.323-20.169 6.03l-226.515 94.381c-7.948 3.312-5.579 15.148 3.031 15.146l31.114-.009c1.118-5.301 4.711-9.742 9.661-11.946 4.501-2.004 113.773-47.514 113.773-47.514 12.37-5.154 26.623-1.409 34.949 9.092 2.429 3.063 4.976 6.039 7.428 8.493 28.915 28.938 94.467 10.318 117.186-12.382 17.784-17.769 18.569-47.279 4.203-73.141 0 .001-52.132 7.608-74.661 11.85z" fill="#ffd15b"/><path d="m378.333 71.761c9.063-7.748 16.294-20.154 16.302-40.019 0 0-23.622.217-39.007 16.216-.019-13.414-5.004-28.578-22.46-40.457 0 0-27.59 40.545 9.815 69.891-.213 2.301 6.717 6.649 6.717 6.649 29.335 37.924 70.143 10.204 70.143 10.204-12.182-17.932-27.838-22.72-41.51-22.484z" fill="#80d261"/><g><path d="m354.861 59.182c1.174 1.984 2.157 3.991 2.969 6.006 2.891 7.171 11.074 10.695 18.086 7.435.942-.438 1.88-.843 2.811-1.218 8.876-7.77 15.9-20.092 15.908-39.665 0 0-23.622.217-39.007 16.216-.019-13.414-5.004-28.578-22.46-40.457 0 0-19.862 29.2-3.016 55.975.026-.123.053-.245.08-.367 2.619-11.81 18.465-14.336 24.629-3.925z" fill="#68ca44"/></g><path d="m359.975 162.214c-20.574 20.557-79.938 37.419-106.123 11.213s-9.275-85.556 11.299-106.113c15.43-15.418 40.61-16.697 63.282-5.317 7.557 3.793 14.836 8.993 21.382 15.545 5.688 5.693 10.355 11.937 13.965 18.436 13.011 23.42 12.3 50.144-3.805 66.236z" fill="#ea433f"/><path d="m285.151 87.314c15.43-15.418 40.61-16.697 63.282-5.317 3.59 1.802 7.113 3.931 10.529 6.362-2.676-3.762-5.723-7.391-9.146-10.818-6.546-6.552-13.825-11.751-21.382-15.545-22.672-11.38-47.852-10.101-63.282 5.317-20.574 20.557-37.484 79.907-11.299 106.113 3.434 3.436 7.442 6.125 11.854 8.169-13.546-29.244 1.562-76.414 19.444-94.281z" fill="#e32928"/></g></g><g><path d="m496.772 458.229c0-12.699-10.332-23.031-23.031-23.031h-6.087v-95.809c8.192-3.829 13.3-12.057 13.3-20.881v-109.528c0-11.105-3.67-22.114-10.333-31l-54.777-73.036c4.823-2.234 7.833-4.238 8.213-4.496 3.427-2.328 4.317-6.992 1.99-10.418-8.564-12.608-19.737-20.761-32.824-24.082 5.918-9.328 8.907-20.775 8.913-34.204.002-4.129-3.376-7.56-7.568-7.503-.875.008-17.627.292-33.188 9.667-3.353-12.986-11.482-24.095-23.992-32.608-3.421-2.329-8.089-1.443-10.42 1.981-.701 1.03-14.713 22.058-10.221 46.206-21.598-5.912-42.837-1.528-56.896 12.52-11.127 11.117-22.956 34.288-26.122 60.935l-46.742 19.476c-3.823 1.593-5.632 5.984-4.038 9.808 1.588 3.811 5.972 5.636 9.808 4.038l40.328-16.803c.787 16.277 6.035 29.832 15.463 39.268 29.804 29.828 93.829 11.672 116.729-11.209 14.006-13.994 18.345-35.375 12.54-56.876 7.098 1.331 14.781 1.243 23.096-.606l57.709 76.944c4.729 6.305 7.333 14.118 7.333 22v109.527c0 4.56-3.791 8.241-8.43 8.021-4.209-.198-7.633-3.993-7.633-8.46v-76.638c0-13.156-10.645-23.853-23.851-23.853-1.185.003-3.715.008-3.566.008-13.122.031-23.798 10.731-23.798 23.853v123.86c0 4.428-3.603 8.031-8.031 8.031s-8.031-3.603-8.031-8.031v-123.766c0-20.829-25.227-31.873-40.355-17.022-4.671 4.586-7.351 10.947-7.351 17.452v45.482c0 3.603-2.338 6.595-5.554 7.633h-4.885c-3.235-1.092-5.624-4.344-5.624-8.071v-45.412c0-6.373-2.482-12.364-6.988-16.869-7.687-7.683-16.768-6.963-16.871-6.984l-140.367.039c-12.695.003-23.024 10.335-23.024 23.031v12.624c0 4.428-3.603 8.031-8.031 8.031s-8.031-3.603-8.031-8.031v-12.606c0-12.725-10.298-23.031-23.03-23.031h-.007l-45.569.013c-.17 0-.256-.022-.243-.009-.11-.106-.184-.471-.146-.579.017-.016.092-.071.244-.135l115.804-48.251c3.823-1.593 5.632-5.984 4.038-9.808-1.593-3.824-5.984-5.631-9.808-4.038l-115.806 48.248c-15.307 6.378-11.023 29.234 5.602 29.556v202.401h-7.802c-12.699 0-23.031 10.332-23.031 23.031 0 11.56 8.562 21.155 19.677 22.784l29.171 29.171c1.407 1.407 3.314 2.197 5.304 2.197 394.82-.828 373.805 1.988 377.991-2.197l29.171-29.171c11.115-1.629 19.678-11.224 19.678-22.784zm-142.098-301.321c-19.705 19.689-73.967 32.786-95.516 11.218-21.659-21.676-8.259-75.97 11.294-95.507 22.23-22.21 67.179-8.276 86.771 27.001 11.697 21.055 10.673 44.077-2.549 57.288zm15.655-64.587c-8.102-14.578-20.686-27.235-35.474-35.413-.782-2.738-8.933-15.79.713-37.917 8.325 7.873 12.544 17.588 12.56 28.977.009 6.73 8.237 10.043 12.906 5.188 7.79-8.101 18.354-11.49 25.559-12.906-1.461 10.934-5.86 19.592-13.133 25.81-5.281 4.513-2.106 13.268 5.002 13.2 11.803-.224 21.814 4.02 29.891 12.575-12.768 5.547-25.45 6.593-38.024.486zm43.347 217.757h21.215c.254 5.971-.812 10.58 1.692 16.859h-22.906v-16.859zm8.832-77.492c.117 0 3.757-.008 3.53-.008 4.883 0 8.853 3.952 8.853 8.853v53.647h-21.215v-53.639c0-4.87 3.963-8.842 8.832-8.853zm-31.863 155.745c12.699 0 23.031-10.332 23.031-23.031v-23.363h38.978v62.257h-391.041v-62.257h193.851c4.143 0 7.5-3.358 7.5-7.5s-3.357-7.5-7.5-7.5h-193.851v-16.859h306.001v16.859h-79.464c-4.143 0-7.5 3.358-7.5 7.5s3.357 7.5 7.5 7.5h79.464v23.363c0 12.7 10.332 23.031 23.031 23.031zm-40.737-100.886v-45.482c0-4.852 3.906-9.326 9.022-9.281 4.788.088 8.684 4.059 8.684 8.852v53.544h-19.024c.858-2.436 1.318-5.017 1.318-7.633zm-257.407-54.648c4.436 0 8.03 3.591 8.03 8.031v12.606c0 12.699 10.332 23.031 23.031 23.031s23.031-10.332 23.031-23.031v-12.624c0-4.427 3.602-8.03 8.028-8.031l140.368-.039h.003c4.891 0 8.852 3.958 8.852 8.853.441 45.449-1.027 46.711 1.395 53.483h-243.626v-62.272c19.106-.003 11.771-.001 30.888-.007zm-30.888 186.397h391.041v16.003h-391.041zm412.128 47.066h-309.84c-4.143 0-7.5 3.358-7.5 7.5s3.357 7.5 7.5 7.5h291.733l-16.121 16.121h-366.475l-16.12-16.121h74.297c4.143 0 7.5-3.358 7.5-7.5s-3.357-7.5-7.5-7.5h-92.404c-4.429 0-8.031-3.603-8.031-8.031s3.603-8.031 8.031-8.031c529.292.074 418.156 0 434.93 0 4.429 0 8.031 3.603 8.031 8.031s-3.603 8.031-8.031 8.031z"/><path d="m286.255 110.731c4.137 0 7.5-3.359 7.5-7.5 0-4.049-3.294-7.493-7.505-7.493-4.206 0-7.505 3.438-7.505 7.493 0 4.125 3.344 7.5 7.51 7.5z"/><path d="m332.397 119.838c-4.19 0-7.501 3.429-7.501 7.492 0 4.086 3.313 7.5 7.5 7.5 4.158 0 7.5-3.357 7.5-7.5 0-4.077-3.289-7.492-7.499-7.492z"/><path d="m286.305 142.488c-4.247 0-7.509 3.476-7.509 7.502 0 4.02 3.267 7.5 7.511 7.5 4.216 0 7.5-3.457 7.5-7.5-.001-4.027-3.274-7.502-7.502-7.502z"/></g></g></svg>