<svg id="Capa_1" enable-background="new 0 0 512.055 512.055" height="512" viewBox="0 0 512.055 512.055" width="512" xmlns="http://www.w3.org/2000/svg"><g><g><path d="m457.903 444.693h-403.751l-31.121-31.121 30-15.531h404.875l31.118 15.531z" fill="#c4e2ff"/><path d="m53.031 413.572 30-15.531h-30l-30 15.531 31.121 31.121h30z" fill="#b3dafe"/><g><g><path d="m212.584 318.193v-26.623c0-11.862-9.616-21.479-21.479-21.479h-96.822c-11.862 0-21.478 9.616-21.478 21.479v26.624l-7.766 14.022v65.825h155.311v-65.825z" fill="#ffe177"/><path d="m102.804 318.193v-26.623c0-11.862 9.616-21.479 21.478-21.479h-30c-11.862 0-21.478 9.616-21.478 21.479v26.624l-7.766 14.022v65.825h30v-65.825z" fill="#ffd15b"/><path d="m220.216 332.216h-155.043c-8.652 0-15.665-7.014-15.665-15.665 0-8.652 7.014-15.665 15.665-15.665h155.043c8.652 0 15.665 7.014 15.665 15.665 0 8.651-7.014 15.665-15.665 15.665z" fill="#ea433f"/><path d="m79.507 316.551c0-8.652 7.014-15.666 15.666-15.666h-30c-8.652 0-15.666 7.014-15.666 15.666s7.014 15.665 15.666 15.665h30c-8.652 0-15.666-7.014-15.666-15.665z" fill="#e32928"/><path d="m142.694 145.842c-25.733 0-46.593 20.861-46.593 46.594s20.861 46.593 46.593 46.593c25.733 0 46.594-20.861 46.594-46.593 0-25.733-20.861-46.594-46.594-46.594zm0 62.125c-8.578 0-15.531-6.953-15.531-15.531s6.953-15.531 15.531-15.531 15.531 6.954 15.531 15.531-6.953 15.531-15.531 15.531z" fill="#80d261"/><g><path d="m126.101 192.436c0-20.483 13.223-37.866 31.593-44.112-4.709-1.601-9.75-2.482-15-2.482-25.733 0-46.593 20.861-46.593 46.594s20.861 46.593 46.593 46.593c5.25 0 10.291-.881 15-2.482-18.37-6.246-31.593-23.629-31.593-44.111z" fill="#68ca44"/></g><path d="m142.694 67.362h46.593v36.209h-46.593z" fill="#ea433f"/><path d="m142.694 67.362h20v36.209h-20z" fill="#e32928"/></g><g><path d="m384.833 269.287c-34.755 0-62.929 28.174-62.929 62.928l64.631 21.172 61.226-21.172c0-34.754-28.174-62.928-62.928-62.928z" fill="#ffe177"/><path d="m351.904 332.216c0-29.583 20.419-54.385 47.929-61.115-4.809-1.176-9.829-1.813-15-1.813-34.755 0-62.929 28.174-62.929 62.928l64.631 21.172 14.594-5.047z" fill="#ffd15b"/><path d="m307.177 332.216h155.311v65.825h-155.311z" fill="#80d261"/><path d="m307.177 332.216h30v65.825h-30z" fill="#68ca44"/><path d="m424.063 269.287h-78.46c-8.578 0-15.531-6.954-15.531-15.531 0-8.578 6.953-15.531 15.531-15.531h78.46c8.578 0 15.531 6.954 15.531 15.531 0 8.578-6.954 15.531-15.531 15.531z" fill="#80d261"/><path d="m360.072 253.756c0-8.578 6.954-15.531 15.531-15.531h-30c-8.578 0-15.531 6.953-15.531 15.531 0 8.578 6.954 15.531 15.531 15.531h30c-8.578 0-15.531-6.953-15.531-15.531z" fill="#68ca44"/><circle cx="384.833" cy="201.558" fill="#ea433f" r="36.667"/><path d="m378.166 201.558c0-14.905 8.898-27.723 21.667-33.457-4.58-2.057-9.654-3.21-15-3.21-20.251 0-36.667 16.416-36.667 36.667s16.416 36.667 36.667 36.667c5.346 0 10.42-1.154 15-3.21-12.769-5.734-21.667-18.553-21.667-33.457z" fill="#e32928"/><path d="m386.535 72.508v46.593l43.189-24.244z" fill="#ffe177"/><path d="m406.535 82.858-20-10.35v46.593l20-11.226z" fill="#ffd15b"/></g></g><path d="m489.024 413.572h-465.993c-8.578 0-15.531-6.954-15.531-15.531 0-8.578 6.954-15.531 15.531-15.531h465.993c8.578 0 15.531 6.954 15.531 15.531 0 8.577-6.954 15.531-15.531 15.531z" fill="#eaf6ff"/><path d="m37.5 398.041c0-8.578 6.953-15.531 15.531-15.531h-30c-8.578 0-15.531 6.954-15.531 15.531 0 8.578 6.953 15.531 15.531 15.531h30c-8.578 0-15.531-6.954-15.531-15.531z" fill="#d8ecfe"/></g><g><path d="m512.055 398.041c0-12.699-10.332-23.031-23.031-23.031h-19.035v-42.794c0-4.143-3.357-7.5-7.5-7.5h-7.63c-2.083-19.586-12.232-36.789-27.047-48.239 10.922-1.796 19.283-11.299 19.283-22.721 0-12.699-10.332-23.031-23.031-23.031h-6.039c3.826-4.356 6.835-9.51 8.742-15.268 1.303-3.932-.828-8.175-4.761-9.478-3.933-1.306-8.176.829-9.478 4.761-3.961 11.953-15.09 19.984-27.694 19.984-16.083 0-29.167-13.084-29.167-29.167s13.084-29.167 29.167-29.167c9.453 0 18.361 4.615 23.831 12.345 2.391 3.38 7.072 4.186 10.454 1.79 3.381-2.392 4.183-7.072 1.79-10.454-6.81-9.626-17.151-16.049-28.575-18.025v-33.598l41.062-23.05c5.191-2.913 5.078-10.457-.224-13.201-47.771-23.917-41.802-23.188-48.338-23.188-4.143 0-7.5 3.357-7.5 7.5v85.533c-34.107 5.862-48.354 46.902-25.625 72.684h-6.105c-12.699 0-23.03 10.332-23.03 23.031 0 11.423 8.361 20.926 19.283 22.722-14.815 11.45-24.964 28.652-27.047 48.238h-7.631c-4.143 0-7.5 3.357-7.5 7.5v42.794h-71.829v-36.592c9.033-3.163 15.531-11.768 15.531-21.867 0-12.773-10.392-23.166-23.165-23.166h-.132v-1.814c0-15.979-13-28.979-28.979-28.979h-40.911v-16.594c26.288-3.664 46.593-26.281 46.593-53.562s-20.304-49.897-46.593-53.561v-27.806h39.093c4.143 0 7.5-3.357 7.5-7.5v-36.209c0-4.143-3.357-7.5-7.5-7.5h-46.593c-4.143 0-7.5 3.357-7.5 7.5v71.513c-26.289 3.664-46.594 26.28-46.594 53.561s20.305 49.898 46.594 53.562v16.594h-40.912c-15.979 0-28.979 13-28.979 28.979v1.814h-.131c-12.773 0-23.165 10.393-23.165 23.166 0 10.099 6.498 18.703 15.53 21.866v36.593h-34.506c-12.699.001-23.031 10.333-23.031 23.032 0 11.56 8.562 21.155 19.677 22.784l29.172 29.172c1.407 1.406 3.314 2.196 5.304 2.196h263.187c4.143 0 7.5-3.357 7.5-7.5s-3.357-7.5-7.5-7.5h-260.081l-16.121-16.121h429.778l-16.121 16.121h-104.77c-4.143 0-7.5 3.357-7.5 7.5s3.357 7.5 7.5 7.5h107.876c1.989 0 3.896-.79 5.304-2.196l29.172-29.172c11.116-1.629 19.678-11.224 19.678-22.784zm-118.02-313.207 19.889 10.292-19.889 11.164zm-212.248 11.236h-31.593v-21.209h31.593zm-78.186 96.366c0-21.556 17.537-39.093 39.094-39.093 21.556 0 39.093 17.537 39.093 39.093 0 21.557-17.537 39.094-39.093 39.094-21.557-.001-39.094-17.538-39.094-39.094zm242.002 69.351c-4.428 0-8.03-3.603-8.03-8.031s3.603-8.031 8.03-8.031h78.46c4.429 0 8.031 3.603 8.031 8.031s-3.603 8.031-8.031 8.031zm39.23 15c28.021 0 51.252 20.898 54.923 47.929h-109.846c3.671-27.03 26.902-47.929 54.923-47.929zm-70.156 62.929h140.312v35.294h-140.312zm-234.373-48.146c0-7.708 6.271-13.979 13.979-13.979h96.823c7.708 0 13.979 6.271 13.979 13.979v1.814h-124.781zm-7.766 48.146h38.282c4.143 0 7.5-3.357 7.5-7.5s-3.357-7.5-7.5-7.5h-45.647c-4.502 0-8.165-3.663-8.165-8.165 0-4.503 3.663-8.166 8.165-8.166h155.043c4.502 0 8.165 3.663 8.165 8.166 0 4.502-3.663 8.165-8.165 8.165h-76.709c-4.143 0-7.5 3.357-7.5 7.5s3.357 7.5 7.5 7.5h69.343v35.294h-140.312zm416.485 66.356h-465.992c-4.429 0-8.031-3.603-8.031-8.031s3.603-8.031 8.031-8.031h465.992c4.429 0 8.031 3.603 8.031 8.031s-3.602 8.031-8.031 8.031z"/><path d="m165.726 192.436c0-12.699-10.332-23.031-23.031-23.031s-23.031 10.332-23.031 23.031 10.332 23.031 23.031 23.031 23.031-10.332 23.031-23.031zm-31.063 0c0-4.429 3.603-8.031 8.031-8.031s8.031 3.603 8.031 8.031-3.603 8.031-8.031 8.031-8.031-3.603-8.031-8.031z"/></g></g></svg>