<svg id="Capa_1" enable-background="new 0 0 512.049 512.049" height="512" viewBox="0 0 512.049 512.049" width="512" xmlns="http://www.w3.org/2000/svg"><g><g><path d="m86.883 49.792c1.313 30.027-3.887 47.162 7.688 70.312.555 1.536 7.688 13.925 7.688 32.568v211.64c0 11.306-2.632 22.456-7.688 32.568-11.433 22.865-6.495 40.323-7.688 65.362l24.049 13.481h290.184l24.049-13.481v-32.794c0-11.306-2.632-22.456-7.688-32.568-5.056-10.112-7.688-21.262-7.688-32.568v-211.64c0-30.05 15.376-35.086 15.376-65.136v-37.744l-30.753-13.625h-285.027z" fill="#ffe177"/><path d="m124.273 396.88c5.056-10.112 7.688-21.262 7.688-32.568v-211.64c0-18.642-7.133-31.032-7.688-32.568-11.575-23.15-6.375-40.285-7.688-70.312l22.502-13.625h-29.701l-22.503 13.625c1.313 30.028-3.887 47.162 7.688 70.312.555 1.536 7.688 13.926 7.688 32.568v211.64c0 11.305-2.632 22.456-7.688 32.568-11.433 22.865-6.495 40.323-7.688 65.362l24.049 13.481h29.701l-24.049-13.481c1.194-25.039-3.744-42.497 7.689-65.362z" fill="#ffd15b"/><g><path d="m434.567 504.515-35.707-9.9-35.709 9.9-35.702-9.9-35.704 9.9-35.708-9.9-35.708 9.9-35.711-9.9-35.709 9.9-35.714-9.9-35.713 9.9 8.763-42.273h338.281z" fill="#f59705"/></g><g><path d="m115.946 462.242h-29.701l-8.764 42.273 31.513-8.736z" fill="#ef7f02"/></g><g><path d="m77.482 7.519 35.707 9.9 35.708-9.9 35.703 9.9 35.703-9.9 35.708 9.9 35.709-9.9 35.71 9.9 35.709-9.9 35.714 9.9 35.714-9.9-10.041 42.273h-338.281z" fill="#f59705"/></g><g><path d="m77.481 7.519 8.764 42.273h29.701l-6.952-33.536z" fill="#ef7f02"/></g><g><circle cx="256.024" cy="222.483" fill="#eaf6ff" r="115.323"/><path d="m170.402 222.483c0-58.659 43.796-107.087 100.473-114.374-4.862-.625-9.818-.949-14.851-.949-63.691 0-115.323 51.632-115.323 115.323s51.632 115.323 115.323 115.323c5.032 0 9.988-.324 14.851-.949-56.677-7.287-100.473-55.715-100.473-114.374z" fill="#d8ecfe"/><g><path d="m285.866 196.605c-12.435 0-21.287 8.105-25.833 19.146l-8.578 35.913 53.963-3.302c5.451-6.875 8.993-15.173 8.993-23.212 0-15.765-12.78-28.545-28.545-28.545z" fill="#d38132"/><path d="m259.143 214.709c7.282 32.144 46.129 33.817 46.129 33.817-5.636 7.036-37.546 20.07-76.882 6.69-16.08-5.469-30.753-23.523-30.753-40.507s13.769-30.753 30.753-30.753 27.001 14.188 30.753 30.753z" fill="#f59705"/></g></g></g><g><path d="m79.41 52.734c1.273 25.876-4.078 45.549 8.474 70.654 4.518 9.038 6.907 19.154 6.907 29.256v160.541c0 4.102 3.325 7.427 7.427 7.427s7.427-3.325 7.427-7.427v-160.541c0-12.395-2.93-24.809-8.475-35.899-10.294-20.589-5.816-36.515-6.906-59.582h323.519v30.327c0 27.397-14.186 31.886-15.324 62.136-.154 4.1 3.044 7.547 7.143 7.702 4.108.131 7.547-3.044 7.701-7.143.989-26.298 15.334-31.458 15.334-62.695-.048-39.698.111-37.753-.122-39.061l9.325-39.261c1.301-5.477-3.757-10.392-9.21-8.874l-33.74 9.353c-33.636-8.848-34.486-10.723-38.572-9.113l-32.871 9.113c-33.408-8.758-34.574-10.858-38.87-9.03l-32.568 9.03-33.733-9.353c-3.312-.917-2.247-.167-37.698 9.353-31.952-8.307-35.926-11.537-40.789-8.496l-30.639 8.495-33.733-9.352c-5.349-1.48-10.385 3.227-9.257 8.665 9.254 44.319 8.622 42.353 9.25 43.775zm321.466-28.222 23.608-6.544-5.781 24.341h-50.051l1.331-25.261c27.273 7.21 27.423 8.426 30.893 7.464zm-71.442 0 25.654-7.113-1.312 24.909h-55.473l.44-25.205c27.116 7.167 27.222 8.369 30.691 7.409zm-45.553-7.177-.436 24.973h-55.299l-.444-25.095 26.324 7.299c3.467.96 3.669-.266 29.855-7.177zm-71.035-.111.444 25.084h-56.272l-1.347-25.263 26.925 7.466c3.466.962 3.627-.255 30.25-7.287zm-97.712 7.288 25.679-7.12 1.328 24.916h-49.897l-5.068-24.448c24.077 6.332 24.496 7.611 27.958 6.652z"/><path d="m432.517 463.605c.076-.425.122-.86.122-1.307-1.232-24.23 3.981-43.791-8.474-68.701-4.518-9.038-6.907-19.154-6.907-29.256v-181.941c0-4.102-3.325-7.427-7.427-7.427s-7.427 3.325-7.427 7.427v181.941c0 31.576 15.381 37.601 15.381 65.154v25.376h-323.52c.991-18.913-3.231-34.356 6.907-54.631 11.687-23.376 7.666-42.405 8.474-54.338 0-4.102-3.325-7.427-7.427-7.427s-7.427 3.325-7.427 7.427c-.788 12.757 2.801 28.28-6.906 47.695-12.319 24.639-7.311 44.015-8.475 65.703-.629 1.424.001-.532-9.25 43.775-1.128 5.44 3.915 10.15 9.257 8.665l33.74-9.353 33.74 9.353c3.389.941 3.736-.249 37.703-9.353 35.844 9.829 35.346 10.536 38.878 9.027l32.56-9.027c33.717 8.867 34.487 10.76 38.667 9.085l32.764-9.085 33.728 9.353c1.946.541 4.989.44 7.063-.858l30.639-8.495c34.96 9.597 33.857 9.623 35.716 9.623 4.795 0 8.334-4.483 7.227-9.144zm-345.341 30.57 5.068-24.449h51.153l-1.331 25.261-26.926-7.464c-3.849-1.068-5.345.994-27.964 6.652zm69.784.46 1.312-24.909h55.473l-.44 25.205-26.722-7.408c-3.465-.961-3.694.272-29.623 7.112zm71.207.064.436-24.973h55.299l.444 25.095-26.324-7.299c-3.466-.96-3.668.266-29.855 7.177zm71.036.111-.444-25.084h56.272l1.347 25.263-26.925-7.466c-3.467-.962-3.627.255-30.25 7.287zm97.711-7.288-25.679 7.12-1.328-24.916h48.796l5.781 24.34c-23.642-6.213-24.112-7.502-27.57-6.544z"/><path d="m348.333 303.436c19.651-22.388 30.473-51.141 30.473-80.962 0-67.702-55.08-122.782-122.782-122.782s-122.782 55.08-122.782 122.782c0 97.618 108.35 155.043 188.895 103.479 3.455-2.212 4.463-6.805 2.251-10.26-2.212-3.454-6.805-4.46-10.26-2.25-70.66 45.235-166.031-5.04-166.031-90.968 0-59.511 48.416-107.927 107.927-107.927 93.026 0 141.754 110.038 81.145 179.09-2.706 3.082-2.4 7.775.682 10.481 3.084 2.706 7.776 2.401 10.482-.683z"/><path d="m261.792 199.526c-19.341-40.695-71.598-22.428-71.598 15.172 0 19.504 16.059 40.835 35.797 47.549 32.64 11.102 73.142 6.006 85.26-9.274 23.915-30.163 3.563-63.812-25.376-63.812-9.279 0-17.656 3.727-24.083 10.365zm-31.017 48.657c-13.704-4.661-25.726-20.309-25.726-33.486 0-24.624 37.94-37.698 46.852 1.641 4.23 18.669 17.934 29.228 31.368 34.675-12.448 3.141-31.025 4.474-52.494-2.83zm71.034-7.503c-8.29-1.238-27.795-6.003-34.23-23.631 13.322-28.25 53.502-6.061 34.23 23.631z"/><path d="m340.355 374.154c0-4.102-3.325-7.427-7.427-7.427h-153.807c-4.102 0-7.427 3.325-7.427 7.427s3.325 7.427 7.427 7.427h153.807c4.101 0 7.427-3.325 7.427-7.427z"/><path d="m209.244 397.487c-4.102 0-7.427 3.325-7.427 7.427s3.325 7.427 7.427 7.427h92.284c4.102 0 7.427-3.325 7.427-7.427s-3.325-7.427-7.427-7.427z"/></g></g></svg>