<svg id="Capa_1" enable-background="new 0 0 511.996 511.996" height="512" viewBox="0 0 511.996 511.996" width="512" xmlns="http://www.w3.org/2000/svg"><g><g><g><g><path d="m279.425 287.758h-31.062v-97.524l31.062-13.515z" fill="#ffd23c"/><path d="m279.425 140.589h31.062v217.436h-31.062z" fill="#ffe177"/><path d="m341.55 338.924h-31.063v-217.436l31.063 15.531z" fill="#ffd23c"/><path d="m341.55 157.585h31.062v217.436h-31.062z" fill="#ffe177"/><path d="m403.674 354.455h-31.062v-212.401l31.062-20.566z" fill="#ffd23c"/><path d="m403.674 105.957h31.062v217.436h-31.062z" fill="#ffe177"/><path d="m434.736 173.199h31.062v189.022h-31.062z" fill="#ffd23c"/></g><g><g><path d="m144.407 113.653-1.827-4.953c-2.018-5.47-8.088-8.269-13.559-6.251-13.592 5.014-23.803 15.15-29.26 27.416-3.481 7.825-12.962 10.75-20.563 6.803-11.157-5.793-24.618-7.048-37.343-2.354l-4.953 1.827c-5.47 2.018-8.269 8.088-6.251 13.559l1.827 4.953c8.847 23.984 35.463 36.256 59.447 27.409l25.073-8.961c23.985-8.848 36.256-35.463 27.409-59.448z" fill="#ef7f02"/></g><path d="m210.938 244.016c2.103 5.701-1.866 13.173-.448 18.838 1.481 5.911 8.479 10.658 9.237 16.429.797 6.066-4.773 12.43-4.746 18.224.028 6.15 5.599 12.521 4.791 18.227-.868 6.125-8.029 10.594-9.821 16.037-1.943 5.899.994 13.846-1.984 18.729-3.214 5.27-11.554 6.063-15.911 9.879-4.503 3.944-6.585 12.107-12.239 14.193s-12.539-2.771-18.525-2.845c-5.792-.072-12.649 4.739-18.515 2.819-5.436-1.779-8.363-9.731-13.671-12.955-4.898-2.975-13.244-1.723-17.882-5.817-4.32-3.814-4.22-12.277-8.193-16.971-3.743-4.424-12.112-5.647-15.445-10.778-3.171-4.881-.931-13.035-3.644-18.491-2.599-5.229-10.47-8.334-12.573-14.035s1.866-13.173.448-18.838c-1.481-5.911-8.479-10.658-9.237-16.429-.797-6.066 4.772-12.43 4.746-18.224-.028-6.15-5.599-12.521-4.791-18.227.868-6.125 8.029-10.594 9.821-16.037 1.943-5.899-.994-13.846 1.984-18.729 3.214-5.269 11.554-6.063 15.911-9.879 4.503-3.944 6.585-12.107 12.239-14.193s12.539 2.771 18.525 2.845c5.792.072 12.649-4.739 18.515-2.819 5.436 1.779 8.363 9.731 13.671 12.955 4.898 2.975 13.244 1.723 17.882 5.817 4.32 3.814 4.22 12.277 8.193 16.971 3.743 4.424 12.112 5.647 15.445 10.778 3.171 4.881.931 13.035 3.644 18.491 2.599 5.229 10.47 8.334 12.573 14.035z" fill="#f59705"/><g fill="#ef7f02"><path d="m159.105 361.591c-4.898-2.975-13.244-1.723-17.881-5.817-4.32-3.814-4.22-12.277-8.193-16.971-3.743-4.424-12.112-5.647-15.445-10.778-3.171-4.881-.931-13.035-3.644-18.491-2.599-5.229-10.47-8.334-12.573-14.035s1.866-13.173.448-18.838c-1.481-5.911-8.479-10.658-9.237-16.429-.797-6.066 4.772-12.43 4.746-18.224-.028-6.15-5.599-12.521-4.791-18.227.868-6.125 8.029-10.594 9.821-16.037 1.943-5.899-.995-13.846 1.984-18.729 3.214-5.27 11.554-6.063 15.911-9.879 4.322-3.785 6.423-11.442 11.583-13.897-3.697.976-7.439 2.592-10.819 2.55-5.986-.075-12.871-4.931-18.525-2.846-5.654 2.086-7.735 10.249-12.239 14.193-4.357 3.816-12.697 4.61-15.911 9.879-2.978 4.883-.041 12.831-1.984 18.729-1.793 5.443-8.953 9.912-9.821 16.037-.809 5.706 4.763 12.077 4.791 18.227.026 5.794-5.543 12.158-4.746 18.224.758 5.771 7.756 10.518 9.237 16.429 1.418 5.664-2.551 13.136-.448 18.838 2.103 5.701 9.974 8.806 12.573 14.035 2.713 5.457.473 13.611 3.644 18.491 3.333 5.131 11.702 6.354 15.445 10.778 3.972 4.695 3.873 13.157 8.193 16.971 4.637 4.094 12.984 2.842 17.881 5.817 5.308 3.224 8.235 11.176 13.671 12.955 5.866 1.92 12.724-2.891 18.515-2.819 3.639.046 7.609 1.853 11.434 2.798-5.402-1.813-8.329-9.72-13.62-12.934z"/><path d="m139.581 164.99c-.017-.006-.033-.015-.051-.021-.751-.246-1.518-.379-2.297-.428.774.098 1.558.254 2.348.449z"/><path d="m175.073 374.974c1.641.208 3.237.154 4.743-.402.227-.084.44-.193.656-.296-1.827.482-3.643.81-5.399.698z"/></g><path d="m52.479 174.653-1.827-4.953c-2.018-5.47.781-11.541 6.251-13.559l4.953-1.827c12.725-4.694 26.186-3.439 37.343 2.354 7.6 3.947 17.082 1.022 20.563-6.803 5.159-11.596 14.571-21.282 27.067-26.543-.451-3.238-1.244-6.477-2.421-9.67l-1.827-4.953c-2.018-5.47-8.088-8.269-13.559-6.251-13.592 5.014-23.803 15.15-29.26 27.416-3.481 7.825-12.962 10.75-20.563 6.803-11.157-5.793-24.618-7.048-37.343-2.354l-4.953 1.827c-5.47 2.018-8.269 8.088-6.251 13.559l1.827 4.953c4.177 11.325 12.319 20.034 22.272 25.146-.847-1.65-1.614-3.361-2.272-5.145z" fill="#e76401"/></g><g><path d="m196.565 227.724c-19.408 33.228-1.828 79.621 39.264 103.622s90.138 16.521 109.545-16.706z" fill="#80d261"/></g><path d="m265.829 331.346c-35.541-20.759-53.471-58.263-45.115-89.518l-24.149-14.105c-19.408 33.228-1.828 79.621 39.264 103.622 21.237 12.404 44.591 16.379 64.887 12.758-11.71-1.96-23.598-6.163-34.887-12.757z" fill="#68ca44"/></g><path d="m447.894 410.21h-383.792c-6.134 0-11.743-3.464-14.489-8.949l-26.582-53.092 30.392-15.531h403.757l31.785 15.531-26.582 53.092c-2.746 5.485-8.354 8.949-14.489 8.949z" fill="#c4e2ff"/><path d="m79.613 401.26-26.582-53.092 30.392-15.531h-30l-30.392 15.531 26.582 53.092c2.746 5.485 8.355 8.949 14.489 8.949h30c-6.134.001-11.743-3.464-14.489-8.949z" fill="#b3dafe"/><path d="m488.965 348.168h-465.934c-8.578 0-15.531-6.954-15.531-15.531 0-8.578 6.954-15.531 15.531-15.531h108.889l118.877 12.077 129.455-12.077h108.713c8.578 0 15.531 6.954 15.531 15.531 0 8.577-6.953 15.531-15.531 15.531z" fill="#eaf6ff"/><g><path d="m37.5 332.637c0-8.578 6.954-15.531 15.531-15.531h-30c-8.578 0-15.531 6.953-15.531 15.531s6.954 15.531 15.531 15.531h30c-8.577 0-15.531-6.954-15.531-15.531z" fill="#d8ecfe"/></g><path d="m131.754 317.023 124.244 62.166 124.254-62.084z" fill="#ea433f"/><path d="m161.774 317.033-30.02-.01 124.244 62.166 15.011-7.5z" fill="#e32928"/></g><g><path d="m146.448 226.498c1.443 3.913 5.776 5.866 9.632 4.44 3.886-1.434 5.874-5.746 4.44-9.632-8.877-24.066-35.14-25.46-47.788-22.834-4.056.843-6.66 4.813-5.818 8.869.844 4.056 4.817 6.657 8.869 5.818.062-.013 6.371-1.249 13.461-.044 8.807 1.497 14.435 5.875 17.204 13.383z"/><path d="m511.996 332.637c0-12.699-10.332-23.031-23.031-23.031h-15.666v-136.407c0-4.143-3.357-7.5-7.5-7.5h-23.562v-59.742c0-4.143-3.357-7.5-7.5-7.5h-31.062c-4.143 0-7.5 3.357-7.5 7.5v11.501l-27.703 18.342c-2.098 1.39-3.359 3.738-3.359 6.254v8.031h-16.063v-13.065c0-2.841-1.605-5.438-4.146-6.708l-31.062-15.531c-4.977-2.489-10.854 1.134-10.854 6.708v11.601h-23.562c-4.143 0-7.5 3.357-7.5 7.5v31.214l-26.554 11.554c-2.737 1.19-4.508 3.892-4.508 6.877v54.678l-36.456-21.293c-.229-6.003-.416-11.626-3.398-16.216-4.578-7.047-13.882-9.022-16.008-11.535-2.551-3.014-2.69-12.221-8.956-17.751-6.532-5.766-15.991-4.804-18.95-6.604-2.861-1.737-6.026-8.252-11.462-11.831 9.46-14.065 11.907-32.094 5.81-48.626-1.302-2.496-2.233-10.964-11.207-15.102-4.556-2.101-9.686-2.219-14.286-.355-14.604 5.465-26.646 16.843-33.041 31.216-1.719 3.863-6.487 5.154-10.254 3.196-24.809-12.882-46.343-1.255-48.347-.908-9.342 3.445-14.14 13.849-10.693 23.191.866 1.284 7.76 32.4 42.107 39.141-.821 5.355.409 11.236-.49 13.962-1.08 3.282-8.904 8.731-10.123 17.33-.719 5.071 1.16 9.517 2.818 13.438 2.498 5.906 2.45 5.716.124 11.229-4.955 11.727-3.897 16.682 3.206 25.928 3.876 5.049 3.808 4.847 2.79 10.859-2.27 13.396.517 17.403 9.99 25.421h-51.007c-12.699.002-23.031 10.334-23.031 23.034 0 11.019 7.78 20.25 18.134 22.502l24.772 49.48c4.044 8.075 12.165 13.091 21.195 13.091h66.835c4.143 0 7.5-3.357 7.5-7.5s-3.357-7.5-7.5-7.5h-66.834c-3.315 0-6.298-1.842-7.783-4.807l-21.145-42.235c165.746-.034 155.795.073 156.899-.078l60.569 30.306c2.112 1.056 4.595 1.058 6.709.002l60.502-30.229h83.01c4.143 0 7.5-3.357 7.5-7.5s-3.357-7.5-7.5-7.5h-52.989l32.148-16.062h106.943c4.429 0 8.031 3.603 8.031 8.031s-3.603 8.031-8.031 8.031h-53.416c-4.143 0-7.5 3.357-7.5 7.5s3.357 7.5 7.5 7.5h41.274l-21.145 42.234c-1.485 2.966-4.468 4.808-7.783 4.808h-284.272c-4.143 0-7.5 3.357-7.5 7.5s3.357 7.5 7.5 7.5h284.271c9.03 0 17.151-5.016 21.195-13.092l24.772-49.479c10.355-2.253 18.135-11.485 18.135-22.503zm-131.884-186.554 16.062-10.634v174.156c-6.264 0-10.281 0-16.062 0zm-174.459 145.142 50.531-9.6-16.315 27.933-20.202-.007c-.967-1.167-7.834-7.518-14.014-18.326zm116.198 18.361-28.513-.01-7.966-21.296zm-64.614-.022 12.241-20.959 7.842 20.966zm-7.351-42.01-50.509 9.595c-4.335-13.328-4.349-26.917.375-38.877zm115.226-102.469v144.515l-14.187-.005c-.892-.982-1.776-1.426-1.876-1.495v-143.015zm-78.187-16.996h16.062v47.1c0 4.143 3.357 7.5 7.5 7.5s7.5-3.357 7.5-7.5v-61.565l16.062 8.031v157.685l-16.062-9.382v-62.234c0-4.143-3.357-7.5-7.5-7.5s-7.5 3.357-7.5 7.5v53.473l-16.062-9.382zm-31.062 47.061 16.062-6.989v74.574l-16.062-9.834zm-216.348-43.093c-1.024-3.634-2.66-5.284-1.734-7.291.928-2.01 3.227-1.827 6.67-3.415 10.216-3.768 21.62-3.05 31.292 1.974 11.297 5.864 25.571 1.504 30.872-10.411 4.655-10.465 12.636-18.408 25.136-23.474 1.545-.494 3.227.317 3.794 1.856l1.827 4.952c5.624 15.247 1.177 32.264-11.047 42.799-5.319 1.663-5.26 1.631-10.646-.083-4.461-1.419-10.014-3.187-15.782-1.059-8.593 3.17-11.358 12.761-14.585 15.588-1.353 1.184-4.935 2.408-8.079 3.911-16.567.555-31.951-9.709-37.718-25.347zm38.89 140.846c-1.019-2.764 2.479-10.906.687-18.064-1.809-7.221-8.743-13.054-9.076-15.585-.364-2.776 4.844-10.161 4.811-17.279-.035-7.615-5.222-14.634-4.865-17.14.404-2.851 7.319-8.059 9.52-14.744 2.299-6.986.106-15.163 1.264-17.17 1.352-2.217 9.4-3.722 14.449-8.143 4.695-4.113 7.984-12.094 9.893-12.799 1.88-.691 9.578 3.231 15.836 3.309 6.68.116 13.885-3.976 16.274-3.19 2.14.761 5.91 8.47 12.111 12.237 6.027 3.662 14.644 3.115 16.812 5.029 1.906 1.682 2.516 10.385 7.431 16.193 4.676 5.525 13.29 7.569 14.88 10.018.838 1.291.763 7.232 1.081 9.411-14.213 25.4-9.921 57.962 10.344 84.559-12.229.007-89.508.05-107.906.06-2.668-9.616-12.292-13.308-13.546-16.702zm-55.374 47.765c-4.429 0-8.031-3.603-8.031-8.031s3.603-8.031 8.031-8.031h107.117l32.102 16.062zm232.969 30.135-92.33-46.197h184.791zm155.174-257.346h16.062v196.148h-16.062zm31.062 196.148v-128.906h16.062v128.906z"/></g></g></svg>