<svg id="Capa_1" enable-background="new 0 0 511.997 511.997" height="512" viewBox="0 0 511.997 511.997" width="512" xmlns="http://www.w3.org/2000/svg"><g><g><g><path d="m131.75 189.301h-31.062v-97.524l31.062-13.515z" fill="#ffe177"/><path d="m131.75 42.132h31.062v198.335h-31.062z" fill="#ffd23c"/><path d="m209.406 127.07v92.469l-46.594 20.928v-217.436l31.063 15.531z" fill="#ffe177"/><path d="m193.875 59.129h31.062v181.339h-31.062z" fill="#ffd23c"/><path d="m255.999 240.467h-31.062v-196.87l31.062-20.566z" fill="#ffe177"/><path d="m255.999 7.5h31.062v232.967h-31.062z" fill="#ffd23c"/><path d="m287.061 85.156h31.062v155.311h-31.062z" fill="#ffe177"/><path d="m349.186 240.467h-31.062v-201.905l31.062-11.825z" fill="#ffd23c"/><path d="m380.248 240.467h-31.062v-181.338l31.062 10.496z" fill="#ffe177"/><path d="m380.248 91.777h31.062v97.524h-31.062z" fill="#ffd23c"/></g><path d="m379.539 504.496c-82.091-15.66-166.402-15.66-248.493 0l-7.678-46.593 10.968-18.637-11.811-71.678-16.989-17.902-30.758-186.667 60.933-9.007c13.8 53.579 62.442 86.455 120.329 86.455 57.888 0 106.529-32.876 120.329-86.455l60.732 9.007-31.466 186.667-16.754 17.509-12.149 72.07 10.686 18.486z" fill="#ea433f"/><g><path d="m153.369 457.903 10.968-18.637-11.811-71.677-16.989-17.902-30.759-186.667 32.13-4.75c-.42-1.407-.827-2.821-1.197-4.258l-60.933 9.007 30.759 186.667 16.989 17.902 11.811 71.677-10.968 18.637 7.678 46.593c9.703-1.851 19.437-3.475 29.194-4.889z" fill="#e32928"/></g><path d="m123.369 457.903h264.025l18.241-108.217h-300.098z" fill="#eaf6ff"/><path d="m105.537 349.686 17.832 108.217h30l-17.832-108.217z" fill="#d8ecfe"/><path d="m376.369 131.749c-13.8 53.579-62.442 93.167-120.329 93.167s-106.529-39.587-120.329-93.167h-66.086l5.118 31.27h40.126c21.765 54.288 79.623 92.979 140.482 92.979 60.784 0 118.5-38.797 140.296-92.979h41.488l5.236-31.27z" fill="#eaf6ff"/><g><g><g><path d="m69.625 131.749 5.119 31.27h30l-5.119-31.27z" fill="#d8ecfe"/></g></g></g></g><path d="m442.373 124.249h-23.563v-32.472c0-4.142-3.358-7.5-7.5-7.5h-23.562v-14.652c0-3.217-2.051-6.076-5.099-7.105l-25.963-8.773v-27.01c0-5.257-5.274-8.874-10.168-7.009l-31.062 11.826c-2.909 1.107-4.832 3.896-4.832 7.009v39.093h-16.062v-70.156c0-4.142-3.358-7.5-7.5-7.5h-31.062c-4.142 0-7.5 3.358-7.5 7.5v11.502l-27.703 18.342c-5.021 3.324-2.836 8.932-3.359 14.285h-16.062v-13.067c0-2.841-1.605-5.438-4.146-6.708l-31.062-15.531c-4.976-2.487-10.854 1.131-10.854 6.708v11.601h-23.564c-4.142 0-7.5 3.358-7.5 7.5v31.214l-26.554 11.554c-2.737 1.191-4.508 3.892-4.508 6.877v32.472h-23.563c-4.643 0-8.145 4.185-7.401 8.711v.002c0 .002 0 .004.001.006l.046.278c1.421 8.622 57.776 350.624 61.375 372.469.688 4.172 4.678 6.936 8.806 6.148 81.512-15.549 164.171-15.549 245.683 0 4.134.787 8.103-1.979 8.801-6.121 3.405-20.202 61.414-364.329 62.834-372.755.76-4.539-2.766-8.738-7.397-8.738zm-38.563 0h-16.062v-24.972h16.062zm-31.062-49.242v50.179c-6.269 3.462-1.989 10.796-16.062 34.717v-90.324zm-47.124-31.275 16.062-6.115v142.457c-4.902 5.28-10.289 10.073-16.062 14.354zm-15 48.924v111.227c-5.151 2.723-10.514 5.079-16.062 7.016v-118.243zm-47.125-77.656h16.062v200.022c-5.248 1.075-10.612 1.786-16.062 2.132zm-31.062 32.626 16.062-10.635v180.157c-5.45-.35-10.815-1.063-16.062-2.142zm-62.125-12.459 16.062 8.031v56.567c0 4.142 3.358 7.5 7.5 7.5s7.5-3.358 7.5-7.5v-33.137h16.062v144.24c-5.548-1.941-10.912-4.3-16.062-7.028v-72.091c0-4.142-3.358-7.5-7.5-7.5s-7.5 3.358-7.5 7.5v62.618c-5.775-4.289-11.161-9.094-16.062-14.385zm-15 14.465v110.129c-13.688-23.341-9.774-31.251-16.062-34.621 0-24.494 0-51.18 0-75.508zm-47.124 47.061 16.062-6.989v34.544h-16.062zm21.843 42.556c16.872 55.29 68.104 93.187 125.968 93.187 57.768 0 109.12-37.705 126.05-93.187h51.453l-2.743 16.27h-35.111c-3.062 0-5.815 1.861-6.958 4.701-7.251 18.025-19.108 34.935-34.289 48.903-3.048 2.804-3.246 7.549-.441 10.597 2.804 3.048 7.549 3.247 10.597.441 15.494-14.256 27.883-31.333 36.054-49.642h27.619l-28.937 171.667h-287.391l-28.287-171.667h26.282c34.331 77.335 137.811 122.923 226.865 70.269 3.565-2.108 4.747-6.708 2.639-10.273-2.107-3.565-6.707-4.746-10.273-2.639-82.926 49.032-178.664 3.77-207.296-67.647-1.141-2.844-3.897-4.709-6.961-4.709h-33.728l-2.681-16.27h51.569zm243.38 356.486c-78.397-14.043-157.785-14.049-236.208-.005l-4.997-30.328h91.919c4.142 0 7.5-3.358 7.5-7.5s-3.358-7.5-7.5-7.5h-94.391l-15.36-93.217h282.391l-15.713 93.217h-124.241c-4.142 0-7.5 3.358-7.5 7.5s3.358 7.5 7.5 7.5h121.713z"/></g></svg>