<svg id="Capa_1" enable-background="new 0 0 512.032 512.032" height="512" viewBox="0 0 512.032 512.032" width="512" xmlns="http://www.w3.org/2000/svg"><g><g><path d="m260.808 477.569c64.371-19.875 111.082-69.954 129.384-129.869 17.019-55.714 45.112-107.412 83.965-150.819 11.132-12.437 19.452-31.223 25.254-48.228 12.716-37.268 1.265-78.905-29.76-103.154-28.653-22.395-66.116-24.499-104.238-12.729-39.768 12.278-171.027 55.997-219.98 71.111-102.376 31.607-160.101 139.615-129.896 242.085 30.623 103.889 141.783 163.556 245.271 131.603z" fill="#ea433f"/><path d="m45.537 345.966c-30.205-102.47 27.52-210.478 129.897-242.085 48.952-15.113 180.212-58.833 219.98-71.111 9.531-2.942 19.02-5.018 28.341-6.126-18.479-2.403-38.318-.056-58.341 6.126-39.768 12.278-171.027 55.997-219.98 71.111-102.377 31.607-160.102 139.615-129.897 242.085 26.49 89.867 113.243 146.629 203.164 139.637-78.589-6.129-149.64-59.831-173.164-139.637z" fill="#e32928"/><path d="m158.774 448.9c-26.378-7.52-50.726-21.553-70.412-40.581-20.257-19.58-35.162-44.171-43.104-71.113-12.3-41.727-7.747-85.843 12.82-124.219 20.584-38.409 54.854-66.642 96.497-79.498 25.986-8.024 74.144-23.769 120.717-38.995 41.476-13.561 80.651-26.369 99.262-32.115 20.619-6.366 39.749-7.385 55.321-2.947 7.607 2.168 14.57 5.694 20.695 10.482 20.29 15.859 28.133 43.482 19.516 68.736-7.832 22.952-15.276 33.39-19.016 37.569-41.192 46.02-71.644 100.67-90.51 162.431-15.986 52.333-56.693 93.198-108.891 109.315-30.203 9.325-62.323 9.65-92.884.94-.005-.003-.007-.004-.011-.005z" fill="#ca2e43"/><path d="m188.784 448.903c-.004-.001-.006-.002-.01-.003-26.378-7.52-50.726-21.553-70.412-40.581-20.257-19.58-35.162-44.171-43.104-71.113-12.3-41.727-7.747-85.843 12.82-124.219 20.584-38.409 54.854-66.642 96.497-79.498 25.986-8.024 74.144-23.769 120.717-38.995 41.476-13.561 80.651-26.369 99.263-32.115 6.487-2.003 12.827-3.474 18.955-4.415-14.297-2.6-31.063-1.109-48.955 4.415-18.611 5.746-57.787 18.554-99.263 32.115-46.572 15.227-94.731 30.972-120.717 38.995-41.642 12.856-75.912 41.089-96.497 79.498-20.567 38.376-25.12 82.492-12.82 124.219 7.942 26.942 22.847 51.533 43.104 71.113 19.686 19.028 44.034 33.061 70.412 40.581.004.001.006.002.01.003 19.626 5.594 39.893 7.44 59.884 5.591-10.045-.933-20.046-2.787-29.884-5.591z" fill="#ac2638"/><circle cx="175.493" cy="349.407" fill="#c4e2ff" r="64.166"/><path d="m187.906 411.115c-34.081-9.713-53.834-45.215-44.12-79.296 6.571-23.054 24.947-39.535 46.696-44.791-33.268-8.017-67.229 11.576-76.696 44.791-9.714 34.08 10.04 69.583 44.12 79.296 11.027 3.143 22.198 3.185 32.6.671-.867-.209-1.735-.424-2.6-.671z" fill="#b3dafe"/><circle cx="175.493" cy="349.407" fill="#eaf6ff" r="34.137"/><path d="m162.664 340.05c3.29-11.543 12.144-19.988 22.821-23.274-.212-.065-.42-.137-.634-.198-18.131-5.168-37.018 5.341-42.186 23.472s5.341 37.018 23.472 42.186c6.588 1.878 13.272 1.677 19.366-.198-17.738-5.425-27.945-24.071-22.839-41.988z" fill="#d8ecfe"/></g><g><path d="m363.201 25.604c-28.92 8.928-105.095 34.111-164.269 53.312-3.94 1.278-6.097 5.509-4.819 9.448 1.278 3.94 5.508 6.101 9.449 4.819 57.659-18.71 135.448-44.413 164.063-53.248 95.099-29.357 145.692 44.736 124.688 106.296-6.898 20.215-15.108 35.999-23.744 45.647-38.903 43.463-67.686 95.151-85.549 153.629-18.264 59.789-64.777 106.479-124.424 124.895-99.587 30.748-206.388-26.56-235.866-126.557-29.079-98.65 26.444-202.397 124.917-232.799 6.182-1.909 13.769-4.301 23.197-7.312 3.945-1.261 6.122-5.481 4.861-9.427-1.26-3.946-5.481-6.12-9.427-4.862-9.38 2.997-16.922 5.375-23.057 7.27-106.092 32.754-166.34 144.64-134.878 251.371 31.77 107.781 146.827 169.953 254.678 136.649 64.404-19.884 114.626-70.293 134.345-134.844 17.223-56.382 44.939-106.179 82.38-148.008 10.109-11.294 19.114-28.388 26.764-50.808 24.875-72.9-36.285-158.513-143.309-125.471z"/><path d="m373.173 302.51c3.822 1.595 8.214-.206 9.812-4.027 18.19-43.519 42.977-82.972 73.672-117.265 5.033-5.623 12.68-17.152 20.526-40.148 16.893-49.508-22.502-111.289-104.843-85.858-18.722 5.779-57.901 18.59-99.38 32.152-46.523 15.211-94.63 30.938-120.599 38.958-125.304 38.683-162.262 197.448-69.212 287.389 93.793 90.66 247.251 49.335 284.583-72.872.937-3.065 1.919-6.168 2.922-9.221 1.292-3.936-.851-8.174-4.787-9.466-3.937-1.293-8.173.851-9.465 4.786-1.035 3.152-2.049 6.354-3.016 9.519-34.104 111.646-174.182 149.238-259.812 66.469-84.718-81.887-51.291-226.923 63.213-262.271 26.087-8.056 74.254-23.804 120.835-39.032 41.418-13.543 80.54-26.335 99.144-32.078 70.051-21.632 99.337 28.241 86.222 66.683-7.68 22.506-14.801 31.966-17.507 34.988-31.814 35.544-57.498 76.417-76.335 121.483-1.598 3.821.205 8.214 4.027 9.811z"/><path d="m401.111 102.258c21.082-2.169 22.512 6.295 28.453 6.295 2.229 0 4.437-.989 5.916-2.883 2.55-3.264 1.971-7.978-1.293-10.527-9.87-7.712-22.15-9.086-34.606-7.807-4.121.423-7.118 4.105-6.696 8.227.423 4.119 4.112 7.118 8.226 6.695z"/><path d="m195.737 385.791c9.719-5.407 16.75-14.275 19.798-24.971 10.103-35.45-27.962-65.784-60.286-47.797-9.718 5.407-16.75 14.275-19.798 24.972-10.198 35.779 28.112 65.7 60.286 47.796zm-12.942-62c22.68 6.464 26.329 37.388 5.649 48.893-12.861 7.155-29.069 2.542-36.227-10.325-11.455-20.587 7.75-45.075 30.578-38.568z"/><path d="m111.517 358.499c-4.004 1.059-6.393 5.163-5.334 9.168 11.955 45.225 63.322 67.085 104.155 44.365 16.728-9.308 28.83-24.571 34.077-42.981 17.389-61.012-48.131-113.231-103.766-82.268-17.153 9.543-29.445 25.36-34.458 44.369-1.056 4.005 1.336 8.108 5.341 9.163 4.007 1.057 8.108-1.336 9.164-5.341 3.827-14.535 13.252-27.298 27.246-35.084 44.009-24.486 95.791 16.826 82.046 65.049-4.148 14.557-13.717 26.626-26.944 33.985-32.557 18.115-72.994.343-82.36-35.092-1.058-4.004-5.164-6.393-9.167-5.333z"/></g></g></svg>