<svg id="Capa_1" enable-background="new 0 0 512.011 512.011" height="512" viewBox="0 0 512.011 512.011" width="512" xmlns="http://www.w3.org/2000/svg"><g><g><path d="m163.727 504.51h184.562l2.906-31.063-15.385-24.478 16.677-178.248 19.051-14.709 5.813-62.125-26.156-20.284h-196.147l-20.383 20.284 5.818 62.179 21.276 17.882 16.987 181.563-17.925 17.936z" fill="#eaf6ff"/><path d="m208.746 455.511-16.987-181.563-21.276-17.882-5.818-62.179 20.383-20.284h-30l-20.383 20.284 5.818 62.179 21.276 17.882 16.987 181.563-17.925 17.936 2.906 31.063h30l-2.906-31.063z" fill="#d8ecfe"/><path d="m351.195 473.447h-190.374l-20.343-217.435h231.06z" fill="#ea433f"/><path d="m140.478 256.012 20.343 217.435h30l-20.343-217.435z" fill="#e32928"/><path d="m380.257 162.805v-31.042h-248.498v31.042l-11.392 31.062h271.283z" fill="#c4e2ff"/><path d="m161.759 131.763h-30v31.042l-11.392 31.062h30l11.392-31.062z" fill="#b3dafe"/><path d="m289.444 9.123-42.844 21.165c-4.106 2.029-6.706 6.212-6.706 10.792v90.683h30.449v-74.521c0-2.516 1.431-4.814 3.689-5.924l29.145-14.328c7.949-3.908 11.027-13.662 6.759-21.424-4.006-7.285-13.038-10.125-20.492-6.443z" fill="#ea433f"/><path d="m266.6 30.288 39.338-19.433c-4.57-3.599-10.964-4.464-16.494-1.732l-42.844 21.165c-4.106 2.028-6.706 6.212-6.706 10.792v90.683h20v-90.683c.001-4.58 2.6-8.764 6.706-10.792z" fill="#e32928"/></g><path d="m398.691 191.285-10.934-29.812v-29.71c0-4.143-3.358-7.5-7.5-7.5h-102.413v-66.461l28.642-14.081c11.778-5.789 16.368-20.226 10.022-31.768-5.957-10.834-19.306-15.029-30.386-9.555l-42.843 21.165c-6.714 3.316-10.884 10.028-10.884 17.517v83.183h-100.636c-4.142 0-7.5 3.357-7.5 7.5v29.71l-10.934 29.812c-1.793 4.886 1.83 10.082 7.042 10.082h7.466c10.357 110.696 28.393 303.846 28.529 304.555.667 3.507 3.759 6.089 7.357 6.089.007 0 .014-.001.021-.001h109.838c4.142 0 7.5-3.357 7.5-7.5s-3.358-7.5-7.5-7.5h-103.02l-1.503-16.062h173.905l-1.503 16.062h-35.194c-4.142 0-7.5 3.357-7.5 7.5s3.358 7.5 7.5 7.5c.1 0 44.285.001 42.034.001 3.836 0 7.097-2.937 7.458-6.803.923-9.863 27.131-289.984 28.428-303.841 4.945-.485 10.29 1.555 13.615-3.206 1.403-2.009 1.737-4.576.893-6.876zm-151.296-150.205c0-1.739.968-3.298 2.527-4.067l42.843-21.165c3.867-1.91 8.521-.446 10.598 3.332 2.205 4.011.628 9.053-3.496 11.08l-29.146 14.328c-4.86 2.391-7.879 7.239-7.879 12.654v67.021h-15.449v-83.183zm-108.136 98.183h233.498v16.062h-146.999c-4.142 0-7.5 3.357-7.5 7.5s3.358 7.5 7.5 7.5h149.269l5.884 16.042h-249.805l5.884-16.042h56.082c4.142 0 7.5-3.357 7.5-7.5s-3.358-7.5-7.5-7.5h-53.812v-16.062zm28.393 326.684-18.94-202.436h34.179l8.197 202.436zm109.19-125.587c.035.001.069.001.103.001 4.095 0 7.442-3.292 7.498-7.398l.937-69.451h28.734l-8.197 202.436h-23.269l1.354-100.311c.056-4.143-3.256-7.545-7.398-7.601-.035-.001-.068-.001-.103-.001-4.095 0-7.442 3.292-7.498 7.398l-1.356 100.514h-23.275l-2.732-202.436h28.739l-.935 69.248c-.057 4.143 3.255 7.546 7.398 7.601zm-50.205-76.848 2.732 202.436h-23.269l-8.197-202.436zm94.292 202.435 8.197-202.436h34.179l-18.94 202.436zm43.779-217.435h-217.399l-4.411-47.145h226.221z"/></g></svg>