<svg id="Capa_1" enable-background="new 0 0 511.996 511.996" height="512" viewBox="0 0 511.996 511.996" width="512" xmlns="http://www.w3.org/2000/svg"><g><g><path d="m447.894 453.717h-383.792c-6.134 0-11.743-3.464-14.489-8.949l-26.582-53.092 20.094-11.15h427.971l17.869 11.15-26.582 53.092c-2.746 5.485-8.354 8.949-14.489 8.949z" fill="#c4e2ff"/><path d="m79.613 444.768-26.582-53.093 20.094-11.149h-30l-20.094 11.149 26.582 53.093c2.746 5.485 8.355 8.949 14.489 8.949h30c-6.135 0-11.743-3.464-14.489-8.949z" fill="#b3dafe"/><g><path d="m389.26 284.111c7.752 0 15.179 1.384 22.051 3.917 8.212 3.027 15.63 7.696 21.862 13.604 5.677-3.807 12.501-6.036 19.845-6.055 19.774-.051 35.948 16.82 35.948 36.595 0 24.318-19.714 44.032-44.032 44.032h-421.903v-36.464c0-32.128 26.045-58.174 58.174-58.174 1.665 0 3.31.086 4.94.224 8.062-16.688 25.148-28.201 44.923-28.201 2.838 0 5.617.25 8.326.705-.004-.207-.016-.412-.016-.62 0-19.801 16.052-35.853 35.853-35.853 18.297 0 33.383 13.71 35.57 31.416 1.106-.335 2.228-.639 3.378-.887 21.614-4.658 42.916 8.181 49.183 28.989 9.829-6.177 21.452-9.762 33.917-9.762 9.279 0 18.092 1.981 26.044 5.542z" fill="#80d261"/><g><path d="m53.031 349.741c0-32.128 26.045-58.174 58.174-58.174 1.666 0 3.31.086 4.94.224 8.062-16.688 25.148-28.201 44.923-28.201 2.839 0 5.617.25 8.326.705-.004-.207-.016-.412-.016-.62 0-18.161 13.507-33.158 31.021-35.519-6.471-6.387-15.356-10.333-25.168-10.333-19.801 0-35.853 16.052-35.853 35.853 0 .208.012.413.016.62-2.709-.456-5.488-.705-8.326-.705-19.776 0-36.861 11.513-44.923 28.201-1.63-.137-3.274-.224-4.94-.224-32.129 0-58.174 26.045-58.174 58.174v36.464h30z" fill="#68ca44"/></g><path d="m488.965 391.675h-465.934c-8.578 0-15.531-6.954-15.531-15.531 0-8.578 6.954-15.531 15.531-15.531h465.934c8.578 0 15.531 6.953 15.531 15.531 0 8.578-6.953 15.531-15.531 15.531z" fill="#eaf6ff"/><path d="m37.5 376.144c0-8.578 6.954-15.531 15.531-15.531h-30c-8.578 0-15.531 6.954-15.531 15.531 0 8.578 6.954 15.531 15.531 15.531h30c-8.577 0-15.531-6.953-15.531-15.531z" fill="#d8ecfe"/><path d="m366.273 175.02-43.928 131.786 131.786-43.929z" fill="#ffe177"/><path d="m381.273 190.02-15-15-43.928 131.786 22.5-7.5z" fill="#ffd15b"/><path d="m232.71 58.286-4.461 88.35 18.538 14.648 41.408-6.377 52.703-35.521z" fill="#ffe177"/><path d="m248.249 146.636 3.907-77.368-19.446-10.982-4.461 88.35 18.538 14.648 16.738-2.577z" fill="#ffd15b"/><path d="m284.548 142.688c-6.581.016-13.294 4.654-19.312 1.99-4.892-2.166-6.809-8.216-11.159-11.33-8.355-5.98-25.153-.069-25.925 15.217l-2.447 48.46 62.49-42.117c5.369-3.618 2.97-12.158-3.504-12.219-.048-.001-.095-.001-.143-.001z" fill="#80d261"/><path d="m249.024 131.292c-8.71-1.551-20.236 4.671-20.872 17.272l-2.447 48.46 20.705-13.954z" fill="#68ca44"/></g></g><g><path d="m511.996 376.144c0-11.698-8.77-21.381-20.079-22.835 18.485-41.12-22.123-78.519-57.842-60.851-4.876-3.947-10.206-7.195-15.85-9.707l38.277-12.759c5.279-1.76 6.873-8.475 2.932-12.419l-87.857-87.857c-3.934-3.934-10.655-2.356-12.418 2.932l-31.46 94.379c-2.118-1.517-12.01-5.387-22.647-6.558-12.884-1.418-25.994.709-37.904 6.28-9.422-18.341-29.716-29.252-50.662-26.404-5.667-17.573-22.182-30.021-41.253-30.021-21.806 0-39.231 15.908-42.694 35.786-16.854-.467-33.032 6.456-44.42 19.313-2.747 3.101-2.459 7.841.642 10.587 3.1 2.747 7.841 2.461 10.587-.642 9.709-10.962 24.129-16.074 38.614-13.702 7.603 1.596 14.57 5.758 19.624 11.733 2.678 3.166 7.413 3.554 10.57.882 3.163-2.675 3.558-7.407.882-10.569-5.787-6.841-13.344-12.012-21.722-14.964 2.294-13.242 13.868-23.425 27.917-23.425 14.286 0 26.377 10.677 28.126 24.835.569 4.613 5.167 7.607 9.618 6.258 18.738-5.678 37.802 5.151 43.206 23.088 1.427 4.739 6.988 6.816 11.172 4.188 8.899-5.592 18.989-8.498 29.154-8.639 15.338-.213 23.052 5.495 26.66 5.569l-5.865 17.595c-6.372-1.954-13.03-3.034-19.798-3.141-4.171-.046-7.552 3.24-7.617 7.382s3.24 7.552 7.381 7.616c13.529.212 26.524 5.28 36.594 14.272 3.109 2.776 7.849 2.47 10.59-.6 2.759-3.089 2.491-7.83-.599-10.59-1.574-1.406-3.205-2.734-4.886-3.986l52.519-17.506c13.652.533 26.549 5.952 36.526 15.411 2.546 2.414 6.424 2.741 9.337.787 19.11-12.811 44.116 1.755 44.116 24.311 0 7.515-2.325 14.833-6.599 20.94h-78.278c-4.142 0-7.5 3.357-7.5 7.5s3.358 7.5 7.5 7.5h92.375c4.428 0 8.031 3.603 8.031 8.031s-3.603 8.031-8.031 8.031h-465.934c-4.428 0-8.031-3.603-8.031-8.031s3.603-8.031 8.031-8.031h340.873c4.142 0 7.5-3.357 7.5-7.5s-3.358-7.5-7.5-7.5h-333.373v-13.372c0-21.433 13.556-40.634 33.731-47.781 3.904-1.383 5.948-5.669 4.565-9.573-1.383-3.905-5.667-5.95-9.574-4.565-26.152 9.264-43.723 34.147-43.723 61.92v14.633c-9.026 3.118-15.53 11.696-15.53 21.769 0 11.019 7.78 20.25 18.134 22.502l24.773 49.479c4.042 8.075 12.165 13.092 21.196 13.092h145.259c4.142 0 7.5-3.357 7.5-7.5s-3.358-7.5-7.5-7.5h-145.26c-3.316 0-6.298-1.842-7.783-4.807l-21.146-42.234h441.649l-21.146 42.234c-1.484 2.965-4.466 4.807-7.783 4.807h-205.845c-4.142 0-7.5 3.357-7.5 7.5s3.358 7.5 7.5 7.5h205.846c9.031 0 17.153-5.017 21.196-13.092l24.773-49.479c10.353-2.252 18.133-11.483 18.133-22.502zm-142.445-187.241 70.695 70.696-106.043 35.348z"/><path d="m387.748 229.302c0-4.111-3.347-7.502-7.501-7.502-4.766 0-8.299 4.409-7.349 8.962.758 4.056 4.842 6.721 8.81 5.89 3.506-.657 6.04-3.829 6.04-7.35z"/><path d="m229.896 203.244 115.193-77.638c4.613-3.11 4.35-10.009-.504-12.75l-108.188-61.1c-4.844-2.737-10.898.584-11.178 6.152l-4.558 90.273v.005.003l-2.447 48.457c-.313 6.195 6.592 10.026 11.682 6.598zm5.747-54.315c.463-8.984 10.258-12.212 14.068-9.483 2.849 2.038 5.47 8.982 12.489 12.09 6.648 2.942 12.483.826 18.676-.741l-46.925 31.626zm91-28.98-30.865 20.802c-8.753-11.634-23.491-1.163-27.506-2.931-2.052-.909-4.824-6.989-9.831-10.571-5.818-4.165-14.132-4.823-21.612-1.827l2.759-54.637z"/><path d="m364.704 256.149c-4.078 0-7.486 3.312-7.486 7.502 0 4.165 3.392 7.5 7.5 7.5 4.3 0 7.5-3.538 7.5-7.5 0-4.536-3.657-7.502-7.514-7.502z"/><path d="m156.301 164.015c8.599-2.088 15.32-1.455 19.978 1.887 6.968 4.997 7.968 14.913 7.991 15.16.318 3.918 3.596 6.894 7.468 6.894.189 0 .38-.007.572-.021 4.13-.312 7.226-3.912 6.914-8.043-.051-.685-1.411-16.88-14.048-26.066-8.388-6.099-19.295-7.572-32.417-4.386-4.025.978-6.495 5.033-5.518 9.059.98 4.023 5.033 6.497 9.06 5.516z"/><path d="m282.19 204.636c-14.394-6.065-28.962 1.14-29.575 1.449-3.697 1.868-5.179 6.379-3.311 10.076s6.379 5.182 10.077 3.311c.088-.043 9.041-4.364 16.983-1.014 5.311 2.239 9.358 7.678 12.03 16.165 1.241 3.944 5.444 6.146 9.406 4.902 3.951-1.244 6.146-5.455 4.902-9.406-4.055-12.88-10.956-21.454-20.512-25.483z"/><circle cx="162.808" cy="112.111" r="7.5"/></g></g></svg>