<svg id="Capa_1" enable-background="new 0 0 511.996 511.996" height="512" viewBox="0 0 511.996 511.996" width="512" xmlns="http://www.w3.org/2000/svg"><g><g><g><path d="m411.309 401.625h62.125v43.351h-62.125z" fill="#ef7f02"/><path d="m446.89 429.395h26.544v-27.77h-62.125v43.351h20c0-8.605 6.976-15.581 15.581-15.581z" fill="#e76401"/></g><g><path d="m311.656 359.814h-78.954l-54.359-14.501-54.359 14.501h-78.955c-29.146 0-47.044-31.914-31.846-56.784l133.313-218.149c14.553-23.814 49.14-23.814 63.693 0l133.313 218.149c15.198 24.869-2.701 56.784-31.846 56.784z" fill="#eaf6ff"/><g fill="#d8ecfe"><path d="m43.183 303.03 133.313-218.149c4.242-6.942 10.192-11.845 16.846-14.739-16.174-7.036-36.535-2.133-46.846 14.739l-133.313 218.149c-15.198 24.87 2.7 56.784 31.846 56.784h30c-29.146 0-47.044-31.915-31.846-56.784z"/><path d="m193.342 349.314 39.359 10.5h30l-54.359-14.501z"/></g><path d="m123.983 227.54h108.718v132.274h-108.718z" fill="#505559"/><path d="m170.983 257.54h61.718v-30h-108.718v132.274h30v-85.274c0-9.389 7.612-17 17-17z" fill="#373c42"/></g><g><path d="m466.967 359.814h-78.954l-54.359-15.627-54.359 15.627h-78.954c-29.146 0-47.044-31.914-31.846-56.784l133.312-218.149c14.553-23.814 49.14-23.814 63.693 0l133.313 218.149c15.198 24.869-2.7 56.784-31.846 56.784z" fill="#eaf6ff"/><g><path d="m198.494 303.03 133.313-218.149c4.242-6.942 10.192-11.845 16.846-14.739-16.174-7.036-36.535-2.133-46.846 14.739l-133.313 218.149c-15.198 24.87 2.7 56.784 31.846 56.784h30c-29.145 0-47.044-31.915-31.846-56.784z" fill="#d8ecfe"/></g><path d="m279.295 227.54h108.718v132.274h-108.718z" fill="#505559"/><path d="m326.295 257.54h61.718v-30h-108.718v132.274h30v-85.274c0-9.389 7.611-17 17-17z" fill="#373c42"/></g><g><path d="m38.562 401.625h62.125v43.351h-62.125z" fill="#ef7f02"/><path d="m74.143 429.395h26.544v-27.77h-62.125v43.351h20c0-8.605 6.976-15.581 15.581-15.581z" fill="#e76401"/></g><path d="m7.5 359.814h496.996v49.581h-496.996z" fill="#ef7f02"/><path d="m54.044 379.814h450.452v-20h-496.996v49.581h30v-13.037c0-9.137 7.407-16.544 16.544-16.544z" fill="#e76401"/></g><g><path d="m162.808 141.858c4.061 0 7.5-3.286 7.5-7.51 0-4.171-3.4-7.5-7.5-7.5-4.162 0-7.5 3.42-7.5 7.5 0 3.923 3.133 7.51 7.5 7.51z"/><path d="m193.865 172.913c4.249 0 7.513-3.483 7.513-7.495 0-4.145-3.377-7.503-7.505-7.503-4.072 0-7.495 3.282-7.495 7.503 0 4.171 3.397 7.495 7.487 7.495z"/><circle cx="147.278" cy="176.828" r="7.5"/><path d="m318.118 141.858c4.057 0 7.5-3.289 7.5-7.51 0-4.105-3.323-7.492-7.495-7.492-4.11 0-7.505 3.331-7.505 7.492 0 4.169 3.41 7.51 7.5 7.51z"/><path d="m349.188 172.918c3.72 0 7.5-2.934 7.5-7.5 0-4.052-3.286-7.503-7.505-7.503-4.067 0-7.495 3.282-7.495 7.503 0 4.17 3.38 7.5 7.5 7.5z"/><path d="m302.588 184.328c4.651 0 7.5-3.874 7.5-7.5 0-2.869-2.202-7.492-7.526-7.492-4.114 0-7.474 3.364-7.474 7.492 0 4.112 3.346 7.5 7.5 7.5z"/><path d="m504.496 352.314h-4.042c13.027-14.791 15.307-35.935 4.759-53.194l-133.314-218.15c-17.495-28.631-59.033-28.568-76.491 0l-39.41 64.489-39.41-64.489c-17.496-28.631-59.033-28.568-76.491 0l-54.243 88.761c-2.16 3.534-1.046 8.15 2.489 10.31 3.533 2.161 8.151 1.045 10.31-2.489l54.243-88.761c11.641-19.048 39.277-19.009 50.894 0l43.42 71.05-36.788 60.198h-86.437c-4.142 0-7.5 3.358-7.5 7.5v124.773h-71.456c-23.301 0-37.598-25.489-25.447-45.373l62.022-101.489c2.16-3.534 1.046-8.15-2.489-10.31-3.534-2.162-8.151-1.045-10.31 2.489l-62.021 101.49c-10.575 17.305-8.232 38.446 4.758 53.195h-4.042c-4.142 0-7.5 3.358-7.5 7.5v49.582c0 4.142 3.358 7.5 7.5 7.5h23.562v28.081c0 4.142 3.358 7.5 7.5 7.5h62.124c4.142 0 7.5-3.358 7.5-7.5v-28.081h100.406c4.142 0 7.5-3.358 7.5-7.5s-3.358-7.5-7.5-7.5h-193.592v-34.582h481.996v34.582h-255.717c-4.142 0-7.5 3.358-7.5 7.5s3.358 7.5 7.5 7.5h162.53v28.081c0 4.142 3.357 7.5 7.5 7.5h62.124c4.143 0 7.5-3.358 7.5-7.5v-28.081h23.562c4.143 0 7.5-3.358 7.5-7.5v-49.582c.001-4.143-3.356-7.5-7.499-7.5zm-411.309 64.581v20.581h-47.125v-20.581zm372.747 20.581h-47.124v-20.581h47.124zm-157.727-348.684c11.641-19.049 39.278-19.007 50.894 0l133.313 218.149c12.148 19.878-2.142 45.373-25.447 45.373h-71.454v-54.19c0-4.142-3.357-7.5-7.5-7.5s-7.5 3.358-7.5 7.5v54.19h-93.718v-117.274h93.718v30.397c0 4.142 3.357 7.5 7.5 7.5s7.5-3.358 7.5-7.5v-37.897c0-4.142-3.357-7.5-7.5-7.5h-108.718c-4.143 0-7.5 3.358-7.5 7.5v124.773h-71.455c-23.299 0-37.598-25.489-25.447-45.373zm-176.724 146.248h69.771l-39.159 64.079c-10.575 17.305-8.232 38.446 4.758 53.195h-35.369v-117.274z"/></g></g></svg>