<svg id="Capa_1" enable-background="new 0 0 511.986 511.986" height="512" viewBox="0 0 511.986 511.986" width="512" xmlns="http://www.w3.org/2000/svg"><g><g><path d="m429.29 504.486h-346.594c-17.402 0-31.509-14.107-31.509-31.509l9.35-15.754h393.245l7.017 15.754c0 17.402-14.107 31.509-31.509 31.509z" fill="#c4e2ff"/><path d="m81.187 472.977 9.35-15.754h-30l-9.35 15.754c0 17.402 14.107 31.509 31.509 31.509h30c-17.402 0-31.509-14.107-31.509-31.509z" fill="#b3dafe"/><path d="m90.127 252.417h331.732c12.805 0 23.185 10.38 23.185 23.185v16.646c0 12.805-10.38 23.185-23.185 23.185h-331.732c-12.805 0-23.185-10.38-23.185-23.185v-16.646c-.001-12.804 10.38-23.185 23.185-23.185z" fill="#f59705"/><path d="m96.941 292.249v-16.646c0-12.805 10.38-23.186 23.185-23.186h-30c-12.805 0-23.185 10.38-23.185 23.186v16.646c0 12.805 10.38 23.185 23.185 23.185h30c-12.804 0-23.185-10.38-23.185-23.185z" fill="#ef7f02"/><path d="m421.859 378.452h-331.732c-12.805 0-23.185-10.38-23.185-23.185v-16.647c0-12.805 10.38-23.185 23.185-23.185h331.732c12.805 0 23.185 10.38 23.185 23.185v16.646c0 12.805-10.38 23.186-23.185 23.186z" fill="#f59705"/><path d="m90.127 378.452h331.732c12.805 0 23.185 10.38 23.185 23.185v16.646c0 12.805-10.38 23.185-23.185 23.185l-24.107 22.833h-283.813l-23.813-22.833c-12.805 0-23.185-10.38-23.185-23.185v-16.646c0-12.805 10.381-23.185 23.186-23.185z" fill="#f59705"/><path d="m96.941 355.266v-16.646c0-12.805 10.38-23.186 23.185-23.186h-30c-12.805 0-23.185 10.381-23.185 23.186v16.646c0 12.805 10.38 23.186 23.185 23.186h30c-12.804 0-23.185-10.381-23.185-23.186z" fill="#ef7f02"/><path d="m96.941 418.283v-16.646c0-12.805 10.38-23.185 23.185-23.185h-30c-12.805 0-23.185 10.38-23.185 23.185v16.646c0 12.805 10.38 23.185 23.185 23.185l23.813 22.833h30l-23.813-22.833c-12.804.001-23.185-10.38-23.185-23.185z" fill="#ef7f02"/><path d="m460.799 472.977h-409.612c-8.701 0-15.754-7.053-15.754-15.754 0-8.701 7.053-15.754 15.754-15.754h409.612c8.701 0 15.754 7.053 15.754 15.754 0 8.701-7.054 15.754-15.754 15.754z" fill="#eaf6ff"/><path d="m65.433 457.223c0-8.701 7.053-15.754 15.754-15.754h-30c-8.701 0-15.754 7.053-15.754 15.754s7.053 15.754 15.754 15.754h30c-8.701 0-15.754-7.053-15.754-15.754z" fill="#d8ecfe"/><path d="m421.859 189.423h-331.732c-12.805 0-23.185 10.38-23.185 23.185v16.646c0 12.805 10.38 23.185 23.185 23.185h23.958c8.767 0 15.874 7.107 15.874 15.874v62.613c0 8.44 6.486 15.703 14.917 16.099 9.001.424 16.432-6.749 16.432-15.657v-63.056c0-8.767 7.107-15.874 15.874-15.874 8.767 0 15.874 7.107 15.874 15.874v31.026c0 8.44 6.486 15.703 14.917 16.1 9.001.424 16.432-6.749 16.432-15.657v-31.469c0-8.767 7.107-15.874 15.874-15.874h181.581c12.805 0 23.185-10.38 23.185-23.185v-16.646c-.001-12.804-10.381-23.184-23.186-23.184z" fill="#ffe177"/><g><path d="m145.594 252.44h-23.958c-12.805 0-23.185-10.38-23.185-23.185v-16.646c0-12.805 10.38-23.186 23.185-23.186h-31.509c-12.805 0-23.185 10.38-23.185 23.186v16.646c0 12.805 10.38 23.185 23.185 23.185h23.958c8.767 0 15.874 7.107 15.874 15.874v62.614c0 8.44 6.486 15.703 14.917 16.099 9.001.424 16.432-6.749 16.432-15.657v-63.056c0-.531.029-1.056.08-1.574-.791-8.028-7.559-14.3-15.794-14.3z" fill="#ffd15b"/></g><g><path d="m320.607 72.684c9.194-7.86 16.528-20.444 16.536-40.594 0 0-23.961.22-39.568 16.449-.02-13.606-5.076-28.989-22.783-41.038 0 0-27.986 41.128 9.956 70.896-.216 2.334 6.814 6.745 6.814 6.745 29.757 38.469 71.151 10.351 71.151 10.351-12.356-18.192-28.237-23.049-42.106-22.809z" fill="#80d261"/><g><path d="m279.862 42.976c17.707 12.049 22.763 27.432 22.783 41.038 5.696-5.924 12.504-9.708 18.855-12.134 8.769-7.905 15.636-20.302 15.644-39.792 0 0-23.961.22-39.568 16.449-.02-13.606-5.076-28.989-22.783-41.038 0 0-19.824 29.138-3.474 56.115 2.738-12.104 8.543-20.638 8.543-20.638z" fill="#68ca44"/></g><path d="m301.986 164.436c-20.87 20.853-81.086 37.957-107.647 11.374s-9.409-86.785 11.461-107.638c15.652-15.639 41.193-16.936 64.191-5.393 7.666 3.848 15.049 9.122 21.69 15.768 5.77 5.774 10.504 12.109 14.166 18.701 13.197 23.758 12.475 50.865-3.861 67.188z" fill="#ea433f"/><path d="m224.339 175.811c-26.561-26.583-9.408-86.786 11.461-107.638 5.35-5.346 11.856-9.013 19.021-11.068-18.424-4.632-36.758-1.186-49.021 11.068-20.87 20.853-38.022 81.055-11.461 107.638 13.022 13.033 34.134 15.561 54.733 12.298-9.563-1.839-18.175-5.735-24.733-12.298z" fill="#e32928"/></g></g><g><path d="m484.053 457.223c0-12.823-10.432-23.255-23.255-23.255h-12.58c6.485-10.856 3.607-19.729 4.326-32.331 0-9.252-4.122-17.555-10.619-23.186 6.497-5.631 10.619-13.933 10.619-23.186v-16.645c0-9.252-4.122-17.555-10.619-23.186 6.497-5.631 10.619-13.933 10.619-23.186v-16.646c0-9.246-4.116-17.543-10.606-23.174 6.489-5.631 10.606-13.928 10.606-23.174v-16.646c0-16.92-13.766-30.686-30.686-30.686h-131.393c6.667-3.667 32.051-16.696 32.051-51.16 0-6.135-.857-12.46-2.584-18.794 3.447.657 6.834.956 10.11.956 11.078 0 40.172-6.726 40.172-17.432 0-4.011-12.388-23.045-34.674-28.635 8.838-13.844 9.104-29.254 9.104-34.768 0-4.171-3.425-7.501-7.407-7.501-3.751 0-19.533 1.166-33.896 9.867-3.373-13.208-11.617-24.506-24.328-33.155-1.253-.854-2.726-1.3-4.22-1.3-10.97 0-17.444 30.215-17.444 40.195 0 3.256.28 6.62.929 10.045-6.394-1.766-12.757-2.64-18.919-2.64-57.357 0-66.101 72.82-66.101 89.364 0 11.949 2.288 31.314 16.635 44.96h-38.956c-4.142 0-7.5 3.357-7.5 7.5s3.358 7.5 7.5 7.5h270.922c8.649 0 15.686 7.036 15.686 15.686v16.646c0 8.493-6.87 15.662-15.686 15.662-.166 0-181.48.023-181.581.023-12.888 0-23.374 10.485-23.374 23.373v31.469c0 4.59-3.73 8.179-8.193 8.179-.326 0-.516-.024-.516-.027h.002c-4.226-.271-7.644-4.095-7.644-8.595v-31.026c0-12.888-10.485-23.373-23.374-23.373s-23.374 10.485-23.374 23.373v63.057c0 4.22-3.134 7.48-6.853 8.073h-2.572c-3.888-.631-6.924-4.275-6.924-8.517v-62.613c0-12.888-10.485-23.373-23.374-23.373h-23.491c-.154-.01-.308-.023-.464-.023-.103 0-.205.007-.308.008-8.506-.167-15.377-7.125-15.377-15.67v-16.646c0-8.649 7.037-15.686 15.686-15.686h28.124c4.142 0 7.5-3.357 7.5-7.5s-3.358-7.5-7.5-7.5h-28.125c-16.92 0-30.686 13.766-30.686 30.686v16.646c0 9.246 4.116 17.543 10.606 23.174-6.489 5.631-10.606 13.928-10.606 23.174v16.646c0 9.252 4.122 17.555 10.619 23.186-6.497 5.631-10.619 13.933-10.619 23.186v16.646c0 9.252 4.122 17.555 10.619 23.186-6.497 5.631-10.619 13.933-10.619 23.186v16.646c0 5.728 1.582 11.092 4.326 15.686h-12.58c-12.823 0-23.254 10.432-23.254 23.255 0 10.399 6.862 19.224 16.295 22.189 3.078 18.457 19.151 32.574 38.468 32.574h346.594c19.317 0 35.391-14.116 38.469-32.573 9.433-2.969 16.294-11.795 16.294-22.194zm-206.863-438.252c8.542 8.024 12.869 17.941 12.886 29.577.011 6.73 8.237 10.043 12.906 5.188 7.974-8.292 18.803-11.729 26.13-13.149-1.465 11.188-5.947 20.044-13.378 26.396-5.342 4.565-1.993 13.338 5.002 13.2 12.079-.226 22.274 4.127 30.507 12.902-22.724 9.951-36.17 1.405-38.624.926-8.296-15.133-21.258-28.108-36.396-36.421-.497-2.613-9.014-15.875.967-38.619zm-88.901 117.751c0-17.034 8.345-74.12 51.087-74.12 34.018 0 68.161 33.526 68.161 68.175 0 48.936-72.572 51.113-74.048 51.113-22.732 0-45.2-8.993-45.2-45.168zm43.616 163.06v-8.356h181.631c4.143 0 7.5-3.357 7.5-7.5s-3.357-7.5-7.5-7.5h-181.631v-8.112c0-4.617 3.756-8.373 8.374-8.373 5.2 0 180.602.004 181.889-.008 8.506.167 15.377 7.125 15.377 15.67v16.646c0 8.649-7.036 15.686-15.686 15.686h-191.448c.975-2.589 1.494-5.351 1.494-8.153zm-63.097-8.356h16.747v7.914c0 3.031.562 5.929 1.579 8.595h-18.326zm8.374-31.486c4.617 0 8.374 3.756 8.374 8.373v8.112h-16.747v-8.112c-.001-4.617 3.756-8.373 8.373-8.373zm-87.055 0h23.958c4.617 0 8.374 3.756 8.374 8.373v8.112h-48.018v-.823c0-8.545 6.871-15.503 15.377-15.67.103.001.205.008.309.008zm-15.686 32.309v-.823h48.018v16.509h-32.332c-8.649-.001-15.686-7.037-15.686-15.686zm0 63.017v-16.646c0-8.649 7.037-15.686 15.686-15.686h32.332c.242 6.091-.755 10.404 1.55 16.509h-25.559c-4.142 0-7.5 3.357-7.5 7.5s3.358 7.5 7.5 7.5h204.137c4.143 0 7.5-3.357 7.5-7.5s-3.357-7.5-7.5-7.5h-135.241c2.192-5.885 1.22-9.845 1.463-16.509h253.051c8.649 0 15.686 7.036 15.686 15.686v.823h-101.969c-4.143 0-7.5 3.357-7.5 7.5s3.357 7.5 7.5 7.5h101.968v.823c0 8.649-7.036 15.686-15.686 15.686h-331.732c-8.649 0-15.686-7.036-15.686-15.686zm0 63.017v-.823h339.095c4.143 0 7.5-3.357 7.5-7.5s-3.357-7.5-7.5-7.5h-339.095v-.822c0-8.649 7.037-15.686 15.686-15.686h331.732c8.649 0 15.686 7.036 15.686 15.686v16.646c0 8.649-7.036 15.686-15.686 15.686h-331.732c-8.649-.001-15.686-7.038-15.686-15.687zm386.357 47.194h-263.674c-4.142 0-7.5 3.357-7.5 7.5s3.358 7.5 7.5 7.5h254.969c-3.158 9.575-12.183 16.509-22.803 16.509h-346.595c-10.619 0-19.645-6.933-22.802-16.509h104.544c4.142 0 7.5-3.357 7.5-7.5s-3.358-7.5-7.5-7.5h-113.25c-4.551 0-8.254-3.703-8.254-8.254 0-4.552 3.703-8.255 8.254-8.255h409.611c4.552 0 8.255 3.703 8.255 8.255 0 4.551-3.703 8.254-8.255 8.254z"/><path d="m227.203 112.102c4.162 0 7.5-3.372 7.5-7.489 0-4.167-3.406-7.503-7.474-7.503-4.211 0-7.526 3.386-7.526 7.503 0 4.115 3.332 7.489 7.5 7.489z"/><path d="m274.012 136.553c4.09 0 7.5-3.311 7.5-7.5 0-4.052-3.266-7.492-7.53-7.492-3.595 0-6.68 2.622-7.319 6.032-.947 4.52 2.552 8.96 7.349 8.96z"/><path d="m227.258 144.533c-4.082 0-7.505 3.334-7.505 7.5 0 4.172 3.384 7.5 7.5 7.5 4.178 0 7.5-3.384 7.5-7.5 0-4.142-3.381-7.5-7.495-7.5z"/></g></g></svg>