<svg id="Capa_1" enable-background="new 0 0 511.325 511.325" height="512" viewBox="0 0 511.325 511.325" width="512" xmlns="http://www.w3.org/2000/svg"><g><g><g><path d="m379.912 503.826c-12.866 0-23.297-10.43-23.297-23.297v-116.484h46.593v116.483c0 12.867-10.43 23.298-23.296 23.298z" fill="#c4e2ff"/><path d="m377.615 480.529v-116.484h-21v116.484c0 12.866 10.43 23.297 23.297 23.297 3.779 0 7.344-.905 10.5-2.502-7.59-3.841-12.797-11.708-12.797-20.795z" fill="#b3dafe"/><path d="m448.355 379.576h-136.886c-13.666 0-24.744-11.078-24.744-24.744v-21.849h186.374v21.849c0 13.666-11.079 24.744-24.744 24.744z" fill="#c4e2ff"/><path d="m316.725 354.833v-21.849h-30v21.849c0 13.666 11.078 24.744 24.744 24.744h30c-13.666-.001-24.744-11.079-24.744-24.744z" fill="#b3dafe"/><path d="m473.099 332.983h-186.374v-261.498c0-35.293 28.61-63.903 63.903-63.903h58.567c35.293 0 63.903 28.61 63.903 63.903v261.498z" fill="#ea433f"/><path d="m381.691 7.581h-31.062c-35.293 0-63.903 28.61-63.903 63.903v261.499h31.062v-261.498c-.001-35.293 28.61-63.904 63.903-63.904z" fill="#e32928"/><path d="m341.084 286.39c-12.866 0-23.297-10.43-23.297-23.297v-142.153c0-12.866 10.43-23.297 23.297-23.297s23.297 10.43 23.297 23.297v142.154c0 12.865-10.431 23.296-23.297 23.296z" fill="#ca2e43"/><path d="m395.443 120.94c0-12.866 10.43-23.297 23.297-23.297s23.297 10.43 23.297 23.297v142.154c0 12.866-10.43 23.297-23.297 23.297s-23.297-10.43-23.297-23.297z" fill="#ca2e43"/><path d="m473.099 348.514h-186.374c-8.578 0-15.531-6.954-15.531-15.531 0-8.578 6.954-15.531 15.531-15.531h186.374c8.578 0 15.531 6.954 15.531 15.531 0 8.578-6.954 15.531-15.531 15.531z" fill="#eaf6ff"/><path d="m301.194 332.983c0-8.578 6.953-15.531 15.531-15.531h-30c-8.578 0-15.531 6.954-15.531 15.531s6.953 15.531 15.531 15.531h30c-8.578 0-15.531-6.953-15.531-15.531z" fill="#d8ecfe"/><path d="m409.195 7.581h-58.567c-35.293 0-63.903 28.61-63.903 63.903v28.907c0 28.907 23.664 31.062 23.664 31.062h15.9c12.46 0 22.561 10.101 22.561 22.561v46.771c0 12.632 9.823 23.391 22.447 23.84 13.254.471 24.147-10.133 24.147-23.281v-47.33c0-12.46 10.101-22.561 22.561-22.561h24.033s31.062-2.155 31.062-31.062c0 0 0-4.818 0-12.346v-16.56c-.002-35.293-28.612-63.904-63.905-63.904z" fill="#ffe177"/><g><path d="m378.849 190.786v-46.771c0-12.46-10.101-22.561-22.561-22.561h-15.9s-23.664-2.155-23.664-31.062v-28.907c0-22.544 11.684-42.346 29.316-53.721-33.149 2.354-59.316 29.973-59.316 63.721v28.907c0 28.907 23.664 31.062 23.664 31.062h15.9c12.46 0 22.561 10.101 22.561 22.561v46.771c0 12.632 9.823 23.391 22.447 23.84 9.164.326 17.196-4.644 21.282-12.087-8.15-3.782-13.729-12.235-13.729-21.753z" fill="#ffd15b"/></g></g><g><path d="m224.6 318.623-10.742 8.067h-165.838l-9.793-8.067v-247.138c0-35.293 28.61-63.903 63.903-63.903h58.567c35.293 0 63.903 28.61 63.903 63.903z" fill="#ea433f"/><path d="m133.193 7.581h-31.063c-35.293 0-63.903 28.61-63.903 63.903v247.139l9.793 8.067h21.269v-255.205c0-35.293 28.611-63.904 63.904-63.904z" fill="#e32928"/><path d="m131.414 503.826c-12.866 0-23.297-10.43-23.297-23.297v-116.484h46.593v116.483c0 12.867-10.43 23.298-23.296 23.298z" fill="#c4e2ff"/><path d="m128.117 480.529v-116.484h-20v116.483c0 12.866 10.43 23.297 23.297 23.297 3.58 0 6.97-.81 10-2.252-7.862-3.742-13.297-11.757-13.297-21.044z" fill="#b3dafe"/><path d="m199.857 379.576h-136.886c-13.666 0-24.744-11.078-24.744-24.744v-21.849h186.373v21.849c0 13.666-11.078 24.744-24.743 24.744z" fill="#c4e2ff"/><path d="m68.227 354.833v-21.849h-30v21.849c0 13.666 11.078 24.744 24.744 24.744h30c-13.666-.001-24.744-11.079-24.744-24.744z" fill="#b3dafe"/><path d="m224.6 348.514h-186.373c-8.578 0-15.531-6.954-15.531-15.531 0-8.578 6.954-15.531 15.531-15.531h186.373c8.578 0 15.531 6.954 15.531 15.531.001 8.578-6.953 15.531-15.531 15.531z" fill="#eaf6ff"/><path d="m52.696 332.983c0-8.578 6.953-15.531 15.531-15.531h-30c-8.578 0-15.531 6.954-15.531 15.531s6.953 15.531 15.531 15.531h30c-8.578 0-15.531-6.953-15.531-15.531z" fill="#d8ecfe"/><g fill="#ca2e43"><path d="m115.882 120.939c0-12.866-10.43-23.297-23.297-23.297s-23.297 10.43-23.297 23.297v142.154c0 12.866 10.43 23.297 23.297 23.297s23.297-10.43 23.297-23.297v-7.766z"/><path d="m192.973 255.327c.366-.372.566-.593.566-.593v-133.795c0-12.866-10.43-23.297-23.297-23.297s-23.297 10.43-23.297 23.297v142.154c0 12.866 10.43 23.297 23.297 23.297s23.297-10.43 23.297-23.297v-7.766z"/></g></g></g><g><path d="m496.13 332.983c0-10.074-6.504-18.651-15.531-21.77v-239.728c0-39.372-32.031-71.403-71.403-71.403h-58.566c-39.372 0-71.403 32.031-71.403 71.403v239.728c-20.628 7.127-20.679 36.395 0 43.54v.079c0 17.779 14.464 32.244 32.243 32.244h37.646v93.452c0 16.981 13.815 30.797 30.797 30.797s30.797-13.815 30.797-30.797v-93.452h37.646c17.779 0 32.243-14.465 32.243-32.244v-.079c9.026-3.119 15.531-11.697 15.531-21.77zm-201.905-200.033c5.626 3.987 12.301 5.948 16.062 6v124.143c0 16.981 13.815 30.797 30.797 30.797s30.797-13.815 30.797-30.797v-30.956c5.895.046 11.346-1.515 16.062-4.347v35.303c0 16.981 13.815 30.797 30.797 30.797 16.98 0 30.796-13.815 30.796-30.797v-37.616c0-4.143-3.357-7.5-7.5-7.5s-7.5 3.357-7.5 7.5v37.616c0 8.71-7.086 15.797-15.796 15.797s-15.797-7.087-15.797-15.797c-.075-59.377-.072-59.015 0-109.078 0-8.305 6.756-15.061 15.061-15.061h16.532v53.812c0 4.143 3.357 7.5 7.5 7.5s7.5-3.357 7.5-7.5v-55.015c5.718-1.4 11.259-3.745 16.062-7.15v179.351h-171.373zm32.064 6.004c8.305 0 15.061 6.756 15.061 15.061v46.771c0 11.473 6.287 21.7 15.531 27.165v35.143c0 8.71-7.087 15.797-15.797 15.797s-15.797-7.087-15.797-15.797v-124.14zm-32.064-67.469c0-31.101 25.303-56.403 56.403-56.403h58.566c31.101 0 56.403 25.303 56.403 56.403v28.907c0 20.563-20.607 23.266-23.869 23.562h-23.726c-16.575 0-30.061 13.485-30.061 30.061v47.329c0 4.326-1.715 8.363-4.829 11.369-10.153 9.799-26.765 2.293-26.765-11.928v-46.771c0-16.575-13.485-30.061-30.061-30.061h-15.436c-2.718-.394-16.625-3.398-16.625-23.562zm101.484 409.044c0 8.71-7.087 15.797-15.797 15.797s-15.797-7.087-15.797-15.797v-93.452h31.594zm52.646-108.453h-136.887c-9.109 0-16.572-7.105-17.183-16.062h171.253c-.611 8.957-8.074 16.062-17.183 16.062zm24.743-31.062h-186.373c-4.429 0-8.031-3.603-8.031-8.031s3.603-8.03 8.031-8.03h186.373c4.429 0 8.031 3.603 8.031 8.03.001 4.428-3.602 8.031-8.031 8.031z"/><g><path d="m92.586 293.89c16.981 0 30.797-13.815 30.797-30.797v-142.153c0-16.981-13.815-30.797-30.797-30.797-16.98 0-30.796 13.815-30.796 30.797v142.153c0 16.981 13.815 30.797 30.796 30.797zm-15.796-172.95c0-8.71 7.086-15.797 15.796-15.797s15.797 7.087 15.797 15.797v142.153c0 8.71-7.087 15.797-15.797 15.797s-15.796-7.087-15.796-15.797z"/><path d="m201.039 263.093v-142.153c0-16.981-13.815-30.797-30.797-30.797s-30.797 13.815-30.797 30.797v142.153c0 16.981 13.815 30.797 30.797 30.797s30.797-13.816 30.797-30.797zm-46.594 0v-142.153c0-8.71 7.087-15.797 15.797-15.797s15.797 7.087 15.797 15.797v142.153c0 8.71-7.087 15.797-15.797 15.797s-15.797-7.087-15.797-15.797z"/><path d="m247.631 332.983c0-10.074-6.504-18.651-15.531-21.77v-239.728c0-39.372-32.031-71.403-71.403-71.403-52.838 1.178-64.705-3.062-85.065 5.079-3.847 1.538-5.718 5.902-4.18 9.748 1.538 3.847 5.902 5.718 9.748 4.18 16.395-6.555 24.711-2.994 79.496-4.008 31.101 0 56.403 25.303 56.403 56.403v238.468h-171.372v-238.467c0-12.822 4.191-24.903 12.12-34.937 2.567-3.25 2.016-7.967-1.234-10.535-3.249-2.566-7.966-2.017-10.535 1.234-10.042 12.709-15.351 28.006-15.351 44.238v239.728c-9.027 3.119-15.531 11.696-15.531 21.77s6.504 18.652 15.531 21.771v.079c0 17.779 14.464 32.244 32.243 32.244h37.646v93.452c0 16.981 13.815 30.797 30.797 30.797s30.797-13.815 30.797-30.797v-22.109c0-4.143-3.357-7.5-7.5-7.5s-7.5 3.357-7.5 7.5v22.108c0 8.71-7.087 15.797-15.797 15.797s-15.797-7.087-15.797-15.797v-93.452h31.594v38.657c0 4.143 3.357 7.5 7.5 7.5s7.5-3.357 7.5-7.5v-38.657h37.646c17.779 0 32.243-14.465 32.243-32.244v-.079c9.028-3.119 15.532-11.697 15.532-21.77zm-47.774 39.093h-136.887c-9.109 0-16.572-7.105-17.183-16.062h171.253c-.611 8.957-8.074 16.062-17.183 16.062zm24.743-31.062h-186.373c-4.429 0-8.031-3.603-8.031-8.031s3.603-8.03 8.031-8.03h186.373c4.429 0 8.031 3.603 8.031 8.03 0 4.428-3.602 8.031-8.031 8.031z"/></g></g></g></svg>