<svg id="Capa_1" enable-background="new 0 0 511.996 511.996" height="512" viewBox="0 0 511.996 511.996" width="512" xmlns="http://www.w3.org/2000/svg"><g><g><g><path d="m340.677 172.268c2.79 8.649 12.977 12.356 20.673 7.525 11.459-7.194 25.416 4.516 20.32 17.051-3.422 8.418 1.999 17.807 11 19.053 13.403 1.855 16.566 19.797 4.606 26.123-8.033 4.249-9.915 14.926-3.82 21.666 9.075 10.036-.034 25.814-13.263 22.973-8.885-1.908-17.19 5.06-16.853 14.141.501 13.521-16.619 19.752-24.927 9.073-5.579-7.173-16.421-7.173-22 0-8.307 10.68-25.428 4.449-24.927-9.073.336-9.081-7.968-16.05-16.853-14.141-13.229 2.841-22.338-12.937-13.263-22.973 6.095-6.74 4.212-17.417-3.82-21.666-11.96-6.327-8.797-24.269 4.606-26.123 9.002-1.246 14.422-10.634 11-19.053-5.095-12.534 8.861-24.245 20.32-17.051 7.696 4.832 17.884 1.124 20.673-7.524 4.156-12.878 22.374-12.878 26.528-.001z" fill="#80d261"/><g><path d="m304.634 296.658c-13.229 2.841-22.338-12.937-13.263-22.972 6.095-6.74 4.212-17.417-3.82-21.666-11.96-6.327-8.797-24.269 4.606-26.123 9.002-1.246 14.422-10.634 11-19.053-5.095-12.534 8.861-24.245 20.32-17.051 7.696 4.832 17.884 1.124 20.673-7.524.371-1.151.859-2.195 1.436-3.141-2.212-1.652-3.978-3.972-4.909-6.859-4.154-12.877-22.373-12.877-26.526 0-2.79 8.648-12.977 12.356-20.673 7.524-11.459-7.195-25.416 4.516-20.32 17.051 3.422 8.418-1.999 17.807-11 19.053-13.403 1.854-16.566 19.797-4.606 26.123 8.033 4.249 9.915 14.926 3.82 21.666-9.075 10.036.034 25.814 13.263 22.973 8.885-1.908 17.189 5.06 16.853 14.141-.501 13.521 16.619 19.752 24.927 9.073 1.255-1.613 2.784-2.844 4.452-3.731-2.063-6.642-8.949-11.048-16.233-9.484z" fill="#68ca44"/></g></g><g><circle cx="209.405" cy="291.658" fill="#ea433f" r="99.538"/><path d="m139.867 291.658c0-49.875 36.682-91.18 84.538-98.413-4.892-.74-9.901-1.125-15-1.125-54.973 0-99.538 44.565-99.538 99.538s44.565 99.538 99.538 99.538c5.099 0 10.108-.385 15-1.125-47.857-7.233-84.538-48.539-84.538-98.413z" fill="#e32928"/><circle cx="209.405" cy="289.772" fill="#ea433f" r="67.585"/><path d="m171.82 289.772c0-32.168 22.481-59.068 52.585-65.893-4.827-1.094-9.842-1.691-15-1.691-37.326 0-67.585 30.259-67.585 67.585s30.259 67.585 67.585 67.585c5.158 0 10.173-.597 15-1.691-30.104-6.826-52.585-33.726-52.585-65.895z" fill="#e32928"/></g><path d="m206.01 84.615c-3.539-17.393-13.338-15.399-16.876-32.792-1.718-8.446-.291-13.261 1.227-17.971 2.673-8.294-3.997-16.913-12.651-15.883-5.791.689-10.321 5.369-10.657 11.108-.584 9.971-6.289 14.029-3.459 27.942 3.539 17.393 13.338 15.399 16.876 32.792 3.539 17.393-6.261 19.387-2.722 36.78 2.831 13.915 9.669 15.422 14.102 24.374 2.403 4.851 7.861 7.385 13.166 6.306 8.956-1.822 12.649-12.621 6.665-19.529-3.32-3.833-6.633-7.688-8.394-16.346-3.538-17.394 6.262-19.388 2.723-36.781z" fill="#ffe177"/><path d="m204.591 150.965c-4.434-8.952-11.271-10.459-14.102-24.374-3.539-17.393 6.261-19.387 2.722-36.78-3.538-17.393-13.338-15.399-16.876-32.792-2.83-13.912 2.875-17.971 3.459-27.942.228-3.9 2.396-7.306 5.577-9.308-2.162-1.41-4.797-2.141-7.66-1.8-5.791.689-10.321 5.369-10.657 11.108-.584 9.971-6.29 14.029-3.459 27.942 3.538 17.393 13.338 15.399 16.876 32.792 3.539 17.393-6.261 19.387-2.722 36.78 2.831 13.915 9.669 15.422 14.103 24.374 2.403 4.851 7.861 7.385 13.166 6.306 1.457-.296 2.757-.85 3.916-1.565-1.819-1.123-3.346-2.729-4.343-4.741z" fill="#ffd23c"/><path d="m504.496 79.758-426.117-11.641c-4.873-.133-8.754-4.122-8.754-8.997v-6.429c0-4.971 4.029-9 9-9l425.872-10v46.067z" fill="#505559"/><path d="m108.379 56.117c-4.873 1.867-8.754-2.122-8.754-6.997v-5.429h-21c-4.971 0-9 4.029-9 9v6.429c0 4.875 3.881 8.864 8.754 8.997l426.117 11.641v-12.82z" fill="#373c42"/><path d="m137.217 271.403c5.414 0 10.258-3.572 11.645-8.805 2.56-9.657 8.96-12.497 8.96-26.699 0-17.752-10-17.752-10-35.504 0-17.75 10-17.75 10-35.499 0-17.75-10-17.75-10-35.5 0-17.749 10-17.749 10-35.499 0-17.749-10-17.749-10-35.498 0-8.832 2.477-13.269 4.965-17.685 4.487-7.963-1.284-17.809-10.424-17.809-5.413 0-10.256 3.57-11.643 8.802-2.56 9.654-8.96 12.494-8.96 26.691 0 17.749 10 17.749 10 35.498s-10 17.749-10 35.499 10 17.75 10 35.5-10 17.75-10 35.499c0 17.752 10 17.752 10 35.504 0 8.839-2.479 13.277-4.968 17.696-4.486 7.964 1.285 17.809 10.425 17.809z" fill="#ffe177"/><path d="m141.537 253.595c2.49-4.419 4.969-8.857 4.969-17.696 0-17.752-10-17.752-10-35.504 0-17.75 10-17.75 10-35.499 0-17.75-10-17.75-10-35.5 0-17.749 10-17.749 10-35.499 0-17.749-10-17.749-10-35.498 0-14.198 6.4-17.037 8.96-26.691.685-2.583 2.214-4.757 4.235-6.301-1.983-1.55-4.497-2.502-7.338-2.502-5.413 0-10.256 3.57-11.643 8.802-2.56 9.654-8.96 12.494-8.96 26.691 0 17.749 10 17.749 10 35.498s-10 17.749-10 35.499 10 17.75 10 35.5-10 17.75-10 35.499c0 17.752 10 17.752 10 35.504 0 8.839-2.479 13.277-4.969 17.696-4.485 7.963 1.286 17.808 10.425 17.808 2.741 0 5.334-.918 7.408-2.501-4.397-3.436-6.179-9.818-3.087-15.306z" fill="#ffd23c"/><g><ellipse cx="427.657" cy="214.454" fill="#eaf6ff" rx="81.824" ry="63.584" transform="matrix(.532 -.847 .847 .532 18.644 462.625)"/><path d="m414.151 283.753c-29.741-18.671-34.373-64.834-10.345-103.107 13.696-21.815 33.746-36.343 53.965-41.359-28.319-7.826-63.343 8.511-83.965 41.359-24.028 38.273-19.396 84.436 10.345 103.107 12.789 8.029 28.138 9.651 43.392 5.867-4.677-1.292-9.177-3.22-13.392-5.867z" fill="#d8ecfe"/><circle cx="420.322" cy="226.138" fill="#ffe177" r="30.775"/><path d="m423.958 252.202c-14.395-9.037-18.738-28.032-9.701-42.427 3.894-6.203 9.64-10.534 16.068-12.738-13.223-4.557-28.312.384-36.068 12.738-9.037 14.395-4.694 33.39 9.701 42.427 8.192 5.143 17.871 5.947 26.36 3.037-2.184-.753-4.319-1.756-6.36-3.037z" fill="#ffd15b"/></g><path d="m111.144 271.403c5.414 0 10.258-3.572 11.645-8.805 2.56-9.657 8.96-12.497 8.96-26.699 0-17.752-10-17.752-10-35.504 0-17.75 10-17.75 10-35.499 0-17.75-10-17.75-10-35.5 0-17.749 10-17.749 10-35.499 0-17.749-10-17.749-10-35.498 0-8.832 2.477-13.269 4.965-17.685 4.487-7.963-1.284-17.809-10.424-17.809-5.413 0-10.256 3.57-11.643 8.802-2.56 9.654-8.96 12.494-8.96 26.691 0 17.749 10 17.749 10 35.498s-10 17.749-10 35.499 10 17.75 10 35.5-10 17.75-10 35.499c0 17.752 10 17.752 10 35.504 0 8.839-2.479 13.277-4.968 17.696-4.486 7.964 1.285 17.809 10.425 17.809z" fill="#ffe177"/><path d="m115.464 253.595c2.49-4.419 4.969-8.857 4.969-17.696 0-17.752-10-17.752-10-35.504 0-17.75 10-17.75 10-35.499 0-17.75-10-17.75-10-35.5 0-17.749 10-17.749 10-35.499 0-17.749-10-17.749-10-35.498 0-14.198 6.4-17.037 8.96-26.691.685-2.583 2.214-4.757 4.235-6.301-1.983-1.55-4.497-2.502-7.338-2.502-5.413 0-10.256 3.57-11.643 8.802-2.56 9.654-8.96 12.494-8.96 26.691 0 17.749 10 17.749 10 35.498s-10 17.749-10 35.499 10 17.75 10 35.5-10 17.75-10 35.499c0 17.752 10 17.752 10 35.504 0 8.839-2.479 13.277-4.969 17.696-4.485 7.963 1.286 17.808 10.425 17.808 2.741 0 5.334-.918 7.408-2.501-4.397-3.436-6.179-9.818-3.087-15.306z" fill="#ffd23c"/><path d="m504.496 43.691h-425.871c-4.971 0-9-4.029-9-9v-6.429c0-4.875 3.881-8.864 8.754-8.997l426.117-11.641z" fill="#505559"/><path d="m108.625 31.691c-4.971 0-9-4.029-9-9v-6.006l-21.246.581c-4.873.133-8.754 4.122-8.754 8.997v6.429c0 4.971 4.029 9 9 9h425.872v-10h-395.872z" fill="#373c42"/><path d="m290.193 487.752h-68.391c-109.778 0-198.772-88.993-198.772-198.772v-17.327h465.934v17.327c.001 109.779-88.992 198.772-198.771 198.772z" fill="#eaf6ff"/><path d="m53.031 288.981v-17.327h-30v17.327c0 109.778 88.993 198.771 198.771 198.771h30c-109.778 0-198.771-88.993-198.771-198.771z" fill="#d8ecfe"/><path d="m488.965 287.185h-465.934c-8.578 0-15.531-6.953-15.531-15.531 0-8.578 6.954-15.531 15.531-15.531h465.934c8.578 0 15.531 6.953 15.531 15.531 0 8.577-6.953 15.531-15.531 15.531z" fill="#c4e2ff"/><path d="m37.5 271.654c0-8.578 6.954-15.531 15.531-15.531h-30c-8.578 0-15.531 6.953-15.531 15.531 0 8.578 6.954 15.531 15.531 15.531h30c-8.577 0-15.531-6.954-15.531-15.531z" fill="#b3dafe"/><path d="m341.182 504.373h-170.368c-12.997 0-23.534-10.536-23.534-23.534v-7.529h217.436v7.529c0 12.997-10.536 23.534-23.534 23.534z" fill="#c4e2ff"/><path d="m177.28 480.839v-7.529h-30v7.529c0 12.997 10.536 23.534 23.534 23.534h30c-12.997 0-23.534-10.537-23.534-23.534z" fill="#b3dafe"/></g><g><path d="m504.291.127-426.117 11.642c-8.999.246-16.049 7.491-16.049 16.494.34 4.392-1.156 9.55 2.689 15.429-3.855 5.895-2.343 10.968-2.689 15.429 0 9.003 7.05 16.249 16.049 16.494l13.915.38c3.235 6.55 6.097 8.928 6.097 17.902 0 14.725-10 15.791-10 35.499 0 19.344 10 21.197 10 35.5 0 14.726-10 15.791-10 35.499 0 19.346 10 21.199 10 35.504 0 6.146-1.399 9.307-3.281 12.724h-71.874c-12.699 0-23.031 10.331-23.031 23.031 0 10.093 6.529 18.684 15.583 21.788 1.742 82.181 51.697 153.428 124.198 184.849v2.549c0 17.112 13.922 31.034 31.033 31.034h170.369c17.111 0 31.033-13.922 31.033-31.034v-2.551c44.901-19.45 81.321-54.058 103.087-98.199 1.832-3.715.306-8.212-3.41-10.043-3.715-1.832-8.212-.305-10.043 3.41-8.907 18.064-20.467 34.4-34.173 48.575h-343.321c-32.32-33.442-52.293-78.142-53.733-127.345h450.751c-.491 16.753-3.141 33.285-7.91 49.222-1.442 4.82 2.183 9.652 7.188 9.652 3.228 0 6.21-2.101 7.183-5.352 5.304-17.726 8.181-36.127 8.577-54.764 9.054-3.104 15.584-11.695 15.584-21.788 0-12.344-9.762-22.448-21.971-23.004 10.99-19.013 15.93-40.179 13.937-60.041-6.89-68.661-87.515-79.761-132.193-18.297-4.946-.734-9.945.328-14.406 3.129-3.551 2.23-8.258.523-9.548-3.475-4.972-15.42-20.3-14.823-20.4-14.856-9.481 0-17.49 5.832-20.401 14.856-1.292 4.005-6.003 5.7-9.547 3.475-15.781-9.908-34.591 3.481-32.801 20.177.449 4.188 1.69 5.783 1.955 7.543-33.158-20.952-76.257-22.459-111.28-1.904.386-13.253 9.982-15.288 9.982-34.362 0-19.341-10-21.199-10-35.5 0-14.726 10-15.79 10-35.499 0-7.111-1.425-12.076-3.154-15.988l3.955.108c2.662 3.413 5.407 5.464 6.997 13.29 2.89 14.204-6.619 17.629-2.722 36.779 2.162 10.625 6.573 15.719 10.119 19.812 1.811 2.091 3.374 3.896 4.612 6.396 7.545 15.236 30.3 14.048 35.925-2.473 2.252-6.613.867-13.711-3.704-18.989-2.981-3.443-5.337-6.162-6.714-12.932-3.062-15.054 8.075-18.796 1.763-40.618l291.89 7.974c.068.002.137.003.205.003 4.146 0 7.5-3.364 7.5-7.5v-72.137c.001-4.235-3.52-7.63-7.704-7.497zm-141.056 465.683h-214.46c-17.492-7.229-33.671-16.931-48.131-28.781h310.74c-14.428 11.812-30.612 21.537-48.149 28.781zm-6.019 15.029c0 8.841-7.192 16.034-16.033 16.034h-170.37c-8.841 0-16.033-7.193-16.033-16.034v-.028h202.436zm-278.633-420.219c-.817-.022-1.458-.681-1.458-1.5v-6.429c0-.827.673-1.5 1.5-1.5h10.117c-.523 3.222-.649 6.459-.488 9.693zm24.604 139.774c0-14.726 10-15.791 10-35.499 0-19.341-10-21.199-10-35.5 0-14.726 10-15.79 10-35.499 0-19.336-10-21.204-10-35.498 0-3.206.393-5.485.883-7.207h10.74c-.37 2.271-.56 4.65-.56 7.207 0 19.336 10 21.204 10 35.498 0 11.403-4.953 12.957-8.197 23.028-1.563 4.85 2.072 9.802 7.141 9.802 3.168 0 6.112-2.024 7.137-5.202 2.275-7.062 8.92-12.134 8.92-27.627 0-19.336-10-21.204-10-35.498 0-3.131.371-5.414.88-7.207h10.747c-1.652 10.211.844 20.596 2.56 23.102 3.329 7.585 6.887 9.758 6.887 19.604 0 14.725-10 15.791-10 35.499 0 19.344 10 21.197 10 35.5 0 14.726-10 15.791-10 35.499 0 19.346 10 21.199 10 35.504 0 6.142-1.339 9.2-3.282 12.724h-9.685c1.109-3.361 1.894-7.451 1.894-12.724 0-19.346-10-21.199-10-35.504 0-14.726 10-15.791 10-35.499 0-6.07-1.006-11.164-3.164-16.028-1.681-3.786-6.112-5.492-9.897-3.812-3.786 1.68-5.493 6.111-3.813 9.897.928 2.089 1.875 4.903 1.875 9.943 0 14.726-10 15.791-10 35.499 0 19.346 10 21.199 10 35.504 0 6.143-1.339 9.2-3.282 12.724h-9.67c1.106-3.353 1.89-7.442 1.89-12.724-.004-19.347-10.004-21.2-10.004-35.506zm64.795 45.854c24.352-23.187 62.5-21.675 85.191 2.375h-89.745c.038-.114.073-.232.11-.348 1.61-.156 3.182-.825 4.444-2.027zm329.014 25.406c0 4.428-3.603 8.031-8.031 8.031h-465.934c-4.429 0-8.031-3.603-8.031-8.031s3.603-8.031 8.031-8.031h465.934c4.429-.001 8.031 3.603 8.031 8.031zm-89.05-25.804c-5.265-3.306-8.928-8.463-10.313-14.524-4.579-20.027 17.446-35.961 35.064-24.9 10.892 6.838 14.179 21.19 7.336 32.088-4.75 7.568-11.063 8.946-12.808 10.109h-16.679c-.595-1.097-1.468-2.062-2.6-2.773zm81.09-55.744c2.069 20.616-4.879 41.591-16.793 58.517h-20.966c6.809-9.407 8.742-20.581 6.357-31.016-7.661-33.498-51.825-40.343-69.728-11.819-8.695 13.849-7.326 30.777 1.425 42.835h-21.31c-5.208-19.788-.796-43.388 12.136-63.989 34.615-55.135 103.089-52.269 108.879 5.472zm-208.931 3.913c-2.353-5.789 4.082-11.205 9.384-7.874 11.839 7.43 27.505 1.738 31.799-11.574 1.919-5.951 10.329-5.96 12.251 0 3.79 11.746 16.46 17.603 27.581 13.62-9.447 19.839-12.482 41.304-8.493 60.431h-45.21c-6.482-14.754-16.006-27.514-27.661-37.675 2.411-5.316 2.579-11.441.349-16.928zm10.671 54.604h-18.568c-23.403-35.629-72.397-45.11-107.344-19.282-.995-6.841-3.443-11.211-5.507-14.875-.007-.013-.014-.025-.021-.037 44.644-29.024 105.86-14.216 131.44 34.194zm-94.838-125.733c2.162 10.625 6.55 15.691 10.075 19.761 1.502 1.734 1.09 3.608.843 4.334-1.315 3.863-6.633 3.985-8.284.651-2.087-4.215-4.546-7.054-6.716-9.559-3.124-3.607-5.381-6.213-6.758-12.982-2.935-14.429 6.65-17.468 2.722-36.779-.804-3.953-1.92-7.139-3.187-9.794l11.572.316c8.69 21.509-4.831 21.624-.267 44.052zm301.058-50.839-341.398-9.327c-.46-3.294-.42-7.853.627-11.533h204.829c4.143 0 7.5-3.358 7.5-7.5s-3.357-7.5-7.5-7.5h-282.429c-.827 0-1.5-.673-1.5-1.5v-6.429c0-.818.641-1.477 1.459-1.5l418.412-11.431v20.859h-103.256c-4.143 0-7.5 3.358-7.5 7.5s3.357 7.5 7.5 7.5h103.256z"/><path d="m38.562 201.498c12.992 0 23.562 10.57 23.562 23.562v.693c0 4.142 3.357 7.5 7.5 7.5s7.5-3.358 7.5-7.5v-.693c0-21.263-17.299-38.562-38.562-38.562-4.143 0-7.5 3.358-7.5 7.5s3.358 7.5 7.5 7.5z"/><path d="m261.845 115.449c-7.801 6.727-12.516 16.088-13.275 26.364l-.051.691c-.319 4.334 3.106 8.05 7.487 8.05 3.893 0 7.183-3.007 7.472-6.951l.051-.688c.465-6.276 3.345-11.997 8.111-16.106s10.855-6.119 17.125-5.653c4.145.311 7.728-2.795 8.033-6.926s-2.795-7.727-6.926-8.033c-10.274-.757-20.226 2.526-28.027 9.252z"/><path d="m69.619 170.441c3.928 0 7.509-3.17 7.509-7.503 0-4.115-3.348-7.503-7.505-7.503-4.564 0-8.265 4.106-7.355 8.963.78 3.724 3.976 6.043 7.351 6.043z"/><path d="m329.357 97.898c-4.081.852-6.663 4.688-5.89 8.82.746 3.594 3.831 6.03 7.36 6.03 4.149 0 7.5-3.373 7.5-7.5.001-4.67-4.278-8.268-8.97-7.35z"/></g></g></svg>