<svg id="Capa_1" enable-background="new 0 0 512.082 512.082" height="512" viewBox="0 0 512.082 512.082" width="512" xmlns="http://www.w3.org/2000/svg"><g><g><path d="m49.986 309.907c-14.863 0-26.912-12.049-26.912-26.912 0-14.115 10.869-25.683 24.692-26.813-3.151-4.407-5.011-9.799-5.011-15.63 0-14.863 12.049-26.912 26.912-26.912 1.82 0 3.597.183 5.316.528-3.339-4.483-5.316-10.04-5.316-16.059 0-14.863 12.049-26.912 26.912-26.912 1.944 0 3.838.211 5.665.602-.977-2.787-1.515-5.782-1.515-8.903 0-14.863 12.049-26.912 26.912-26.912 3.678 0 7.183.74 10.377 2.076-1.336-3.194-2.076-6.698-2.076-10.377 0-14.863 12.049-26.912 26.912-26.912 8.544 0 16.153 3.987 21.083 10.196 3.58-10.66 13.645-18.343 25.51-18.343 8.254 0 15.635 3.719 20.572 9.569 3.04-11.53 13.536-20.033 26.021-20.033s22.981 8.503 26.021 20.033c4.937-5.85 12.318-9.569 20.572-9.569 11.866 0 21.931 7.683 25.51 18.343 4.93-6.209 12.539-10.196 21.083-10.196 14.863 0 26.912 12.049 26.912 26.912 0 3.678-.74 7.183-2.076 10.377 3.194-1.336 6.698-2.076 10.377-2.076 14.863 0 26.912 12.049 26.912 26.912 0 3.121-.537 6.116-1.515 8.903 1.827-.392 3.721-.602 5.665-.602 14.863 0 26.912 12.049 26.912 26.912 0 6.019-1.977 11.576-5.316 16.059 1.719-.344 3.496-.528 5.316-.528 14.863 0 26.912 12.049 26.912 26.912 0 5.83-1.86 11.223-5.011 15.63 13.823 1.13 24.692 12.699 24.692 26.813 0 14.863-12.049 26.912-26.912 26.912z" fill="#c4e2ff"/><g><path d="m67.766 286.182c-3.151-4.407-5.011-9.8-5.011-15.63 0-14.863 12.049-26.912 26.912-26.912 1.82 0 3.597.183 5.316.528-3.339-4.483-5.316-10.04-5.316-16.059 0-14.863 12.049-26.912 26.912-26.912 1.944 0 3.838.211 5.665.602-.977-2.787-1.515-5.782-1.515-8.903 0-14.863 12.049-26.912 26.912-26.912 3.678 0 7.183.74 10.377 2.076-1.336-3.194-2.076-6.698-2.076-10.377 0-14.863 12.049-26.912 26.912-26.912 8.544 0 16.153 3.987 21.083 10.196 3.58-10.66 13.645-18.343 25.51-18.343 8.254 0 15.635 3.719 20.572 9.569 3.04-11.53 13.536-20.033 26.021-20.033s22.981 8.503 26.021 20.033c4.937-5.85 12.318-9.569 20.572-9.569 11.866 0 21.931 7.683 25.51 18.343 4.93-6.209 12.539-10.196 21.083-10.196 2.287 0 4.506.287 6.626.824.186-1.277.286-2.583.286-3.912 0-14.863-12.049-26.912-26.912-26.912-8.544 0-16.153 3.987-21.083 10.196-3.58-10.66-13.644-18.343-25.51-18.343-8.254 0-15.635 3.719-20.572 9.569-3.04-11.53-13.536-20.033-26.021-20.033s-22.981 8.503-26.021 20.033c-4.937-5.85-12.318-9.569-20.572-9.569-11.866 0-21.931 7.683-25.51 18.343-4.93-6.209-12.539-10.196-21.083-10.196-14.863 0-26.912 12.049-26.912 26.912 0 3.678.74 7.183 2.076 10.377-3.194-1.336-6.698-2.076-10.377-2.076-14.863 0-26.912 12.049-26.912 26.912 0 3.121.537 6.116 1.515 8.903-1.827-.392-3.721-.602-5.665-.602-14.863 0-26.912 12.049-26.912 26.912 0 6.019 1.977 11.576 5.316 16.059-1.719-.344-3.496-.528-5.316-.528-14.863 0-26.912 12.049-26.912 26.912 0 5.83 1.86 11.223 5.011 15.63-13.823 1.13-24.692 12.698-24.692 26.813 0 12.575 8.626 23.134 20.283 26.087 1.791-12.287 11.887-21.877 24.409-22.9z" fill="#b3dafe"/></g><g><path d="m462.645 28.307-301.137 301.136c-3.515 3.515-3.515 9.213 0 12.728l4.546 4.546c3.447 3.447 9.012 3.523 12.552.171l301.459-285.424c4.428-4.193 4.524-11.213.212-15.526z" fill="#505559"/><path d="m170.901 338.535 300.986-300.986-9.242-9.242-301.137 301.136c-3.515 3.515-3.515 9.213 0 12.728l4.546 4.546c.903.903 1.954 1.569 3.074 2.008-1.568-3.336-.984-7.433 1.773-10.19z" fill="#373c42"/><path d="m429.488 10.887-285.425 301.458c-3.352 3.54-3.276 9.105.171 12.552l4.546 4.546c3.515 3.515 9.213 3.515 12.728 0l301.137-301.136-17.632-17.632c-4.312-4.312-11.332-4.216-15.525.212z" fill="#505559"/><path d="m155.637 324.507 285.425-301.458c4.193-4.428 11.213-4.524 15.526-.212l5.763 5.763.294-.294-17.631-17.632c-4.312-4.312-11.333-4.216-15.526.212l-285.425 301.459c-3.352 3.54-3.276 9.105.171 12.552l4.546 4.546c1.274 1.274 2.837 2.08 4.477 2.43-.342-2.598.443-5.32 2.38-7.366z" fill="#373c42"/></g><path d="m184.928 455.608h141.919v48.973h-141.919z" fill="#505559"/><path d="m184.927 455.608h30v48.973h-30z" fill="#373c42"/><path d="m287.208 252.137c-5.238-7.89-12.936-13.166-21.405-15.488 7.467-11.167 6.075-26.416-3.964-36.027-11.252-10.773-29.107-10.384-39.88.869-2.71 2.831-4.714 6.08-6.016 9.529-9.99-3.269-21.414-.799-29.168 7.301-10.773 11.252-20.039 39.193-8.787 49.965 8.755 8.382 19.71 55.14 19.71 55.14 11.504 17.329 61.633-7.58 78.962-19.083 17.33-11.503 22.052-34.877 10.548-52.206z" fill="#ca2e43"/><path d="m197.989 278.287c-11.252-10.772-1.986-38.713 8.787-49.965 7.755-8.1 19.179-10.571 29.168-7.301 1.302-3.449 3.306-6.698 6.016-9.53 5.929-6.193 14.003-9.088 21.942-8.65-.645-.765-1.323-1.511-2.062-2.219-11.252-10.773-29.107-10.384-39.88.869-2.71 2.831-4.714 6.08-6.016 9.53-9.99-3.27-21.414-.799-29.168 7.301-10.773 11.252-20.039 39.193-8.787 49.965 8.755 8.382 19.71 55.14 19.71 55.14 3.463 5.217 10.429 6.602 18.944 5.681-2.95-11.771-11.53-44.001-18.654-50.821z" fill="#ac2638"/><path d="m177.062 242.606c-8.261-1.857-16.496-.505-23.4 3.232-2.083-11.829-12.409-20.816-24.836-20.816-13.928 0-25.219 11.291-25.219 25.219 0 3.504.715 6.842 2.007 9.874-8.473 4.065-14.324 12.724-14.324 22.75 0 13.928 11.291 37.702 25.219 37.702 10.837 0 46.823 23.425 46.823 23.425 18.144 4.079 35.119-43.003 39.198-61.148 4.078-18.144-7.324-36.159-25.468-40.238z" fill="#ca2e43"/><path d="m113.524 285.39c-1.292-3.033-2.007-6.37-2.007-9.874 0-13.928 11.291-25.219 25.219-25.219 12.426 0 22.753 8.987 24.836 20.816 6.905-3.737 15.139-5.089 23.4-3.232 7.377 1.658 13.64 5.621 18.201 10.96 1.709-16.72-9.303-32.457-26.111-36.236-8.261-1.857-16.496-.505-23.4 3.232-2.083-11.829-12.409-20.816-24.836-20.816-13.928 0-25.219 11.291-25.219 25.219 0 3.504.715 6.842 2.007 9.874-8.473 4.065-14.324 12.724-14.324 22.75 0 7.23 3.047 17.108 7.922 24.942.129-9.882 5.933-18.396 14.312-22.416z" fill="#ac2638"/><g><ellipse cx="326.847" cy="256.083" fill="#eaf6ff" rx="81.824" ry="63.584" transform="matrix(.532 -.847 .847 .532 -63.823 396.741)"/><path d="m313.341 325.383c-29.741-18.671-34.373-64.834-10.345-103.107 13.695-21.815 33.746-36.343 53.965-41.359-28.319-7.826-63.343 8.511-83.965 41.359-24.028 38.273-19.396 84.436 10.345 103.107 12.789 8.029 28.138 9.651 43.392 5.867-4.677-1.293-9.177-3.221-13.392-5.867z" fill="#d8ecfe"/><circle cx="319.511" cy="267.768" fill="#ffe177" r="30.775"/><path d="m323.148 293.832c-14.395-9.037-18.738-28.032-9.701-42.427 3.894-6.203 9.64-10.534 16.068-12.738-13.223-4.557-28.312.384-36.068 12.738-9.037 14.395-4.694 33.39 9.701 42.427 8.192 5.143 17.871 5.947 26.36 3.037-2.184-.753-4.319-1.756-6.36-3.037z" fill="#ffd15b"/></g><path d="m318.166 473.519h-124.25c-55.194 0-104.784-23.992-138.91-62.117-13.117-14.654-1.45-31.396-9.438-49.666-5.994-13.709-32.885-28.278-35.439-43.47-1.701-10.12-2.587-20.517-2.587-31.12h496.996c0 10.584-.882 20.962-2.577 31.064-2.744 16.353-32.609 31.984-39.317 46.598-7.838 17.076 6.811 32.764-5.567 46.593-34.125 38.125-83.716 62.118-138.911 62.118z" fill="#505559"/><path d="m85.006 411.402c-13.117-14.654-1.45-31.396-9.438-49.666-5.994-13.709-32.885-28.278-35.439-43.47-1.701-10.12-2.587-20.516-2.587-31.12h-30c0 10.604.885 21 2.587 31.12 2.554 15.193 29.446 29.762 35.439 43.47 7.988 18.27-3.68 35.012 9.438 49.666 34.126 38.124 83.716 62.117 138.91 62.117h30c-55.194 0-104.784-23.992-138.91-62.117z" fill="#373c42"/><path d="m55.015 411.395h402.052c22.093-24.681 37.699-55.282 44.154-89.133v-4.054h-491.087c5.95 35.462 21.91 67.524 44.881 93.187z" fill="#eaf6ff"/><path d="m10.134 318.208c5.95 35.462 21.909 67.524 44.881 93.187h30c-22.971-25.662-38.93-57.725-44.881-93.187z" fill="#d8ecfe"/></g><g><path d="m186.531 150.052c4.198 0 7.5-3.391 7.5-7.5 0-4.162-3.383-7.492-7.495-7.492-4.235 0-7.505 3.462-7.505 7.492 0 4.21 3.431 7.5 7.5 7.5z"/><path d="m240.511 164.702c3.877 0 7.5-3.11 7.5-7.5 0-4.273-3.485-7.503-7.501-7.503-4.099 0-7.499 3.324-7.499 7.503 0 4.401 3.633 7.5 7.5 7.5z"/><path d="m162.851 201.452c4.174 0 7.5-3.377 7.5-7.49 0-4.145-3.35-7.502-7.495-7.502-4.117 0-7.505 3.338-7.505 7.502 0 4.066 3.31 7.49 7.5 7.49z"/><path d="m512.039 287.145c0-4.143-3.357-7.5-7.5-7.5h-8.216c-1.264-12.755-9.627-23.679-21.169-28.466 6.41-19.734-6.069-40.606-26.325-44.439 5.322-20.651-9.207-40.874-29.989-42.883.26-9.453-3.388-18.37-9.709-24.903l17.314-16.393c3.008-2.848 3.138-7.595.29-10.603-2.85-3.01-7.597-3.139-10.603-.29l-23.523 22.272c-.042.038-.083.078-.124.117l-40.287 38.144c-7.516-1.179-15.406-.994-23.45.61l133.898-133.898 12.328 12.329c1.323 1.323 1.3 3.482-.065 4.775l-35.033 33.17c-3.008 2.848-3.138 7.595-.29 10.603 2.849 3.009 7.596 3.138 10.603.29l35.033-33.17c7.501-7.103 7.664-18.969.359-26.274-3.56-3.56-31.671-31.671-35.264-35.265-7.255-7.253-19.129-7.186-26.274.359l-91.568 96.712c-9.644-16.86-31.261-22.319-47.701-12.32-13.563-20.537-43.814-20.666-57.462 0-15.128-9.2-34.867-5.385-45.464 8.853-15.453-10.262-36.793-6.42-47.522 9.464-2.319 3.433-1.416 8.095 2.017 10.413 3.418 2.308 8.084 1.431 10.413-2.017 7.318-10.835 23.094-11.552 31.31-1.204 3.686 4.644 11.089 3.366 12.984-2.275 4.817-14.346 23.485-17.885 33.241-6.325 3.901 4.626 11.434 2.952 12.984-2.925 5.059-19.185 32.478-19.199 37.539 0 1.543 5.858 9.068 7.563 12.983 2.925 9.778-11.585 28.436-7.988 33.24 6.324.095.283.209.553.333.817l-68.776 72.639c-15.484-4.618-32.258 1.653-40.769 15.622-17.359-2.252-33.94 7.029-42.8 31.871-3.643.058-7.265.584-10.767 1.594-5.354-11.024-16.628-18.378-29.43-18.378-20.586 0-36.201 18.931-32.065 39.264-7.19 5.476-11.887 13.795-12.797 22.86h-53.084c1.512-8.508 8.648-15.266 17.495-15.989 5.799-.473 8.873-7.103 5.49-11.837-10.123-14.159 2.319-33.776 19.641-30.298 6.715 1.347 11.592-6.326 7.49-11.834-10.57-14.191 2.077-34.325 19.674-30.555 5.714 1.232 10.585-4.294 8.65-9.814-3.549-10.126 1.784-21.435 12.263-24.871 3.936-1.291 6.08-5.528 4.789-9.464-1.291-3.937-5.529-6.08-9.464-4.79-14.499 4.756-24.087 18.392-23.667 33.664-20.805 2.011-35.304 22.258-29.989 42.883-20.263 3.834-32.736 24.717-26.325 44.439-11.543 4.786-19.906 15.712-21.169 28.466h-8.217c-4.142 0-7.5 3.357-7.5 7.5 0 100.893 77.752 184.734 177.385 193.166v24.271c0 4.143 3.358 7.5 7.5 7.5h141.919c4.143 0 7.5-3.357 7.5-7.5v-24.243c99.944-8.298 177.692-92.316 177.692-193.193zm-113.794-137.885c5.239 5.317 6.958 13.09 4.515 20.059-1.936 5.529 2.948 11.043 8.649 9.813 17.64-3.775 30.216 16.407 19.675 30.555-4.098 5.502.769 13.184 7.489 11.834 17.333-3.477 29.758 16.153 19.642 30.297-3.383 4.734-.309 11.364 5.489 11.838 8.848.724 15.984 7.481 17.496 15.989h-86.576c17.276-38.816 10.038-84.992-25.992-102.348zm-20.271 130.385h-22.062c5.258-16.016-.613-34.604-16.05-44.295-30.073-18.878-67.848 10.285-56.739 44.295h-17.712c-3.262-36.48 22.038-76.791 56.689-89.424 49.727-18.126 85.021 31.129 55.874 89.424zm-78.513 0c-11.9-23.75 13.215-43.651 32.426-31.591 10.721 6.731 14.082 20.742 7.633 31.591zm135.474-263.602c1.32-1.395 3.485-1.354 4.775-.064l12.329 12.328c-179.668 179.894-174.783 175.636-176.996 178.333-2.005-4.556-4.96-8.723-8.943-12.279zm-221.324 202.105c3.812 1.245 7.933-.726 9.35-4.479.984-2.605 2.47-4.958 4.417-6.992 14.374-15.014 39.598-1.672 35.203 18.679-9.227 17.369-13.527 36.445-12.23 54.289h-39.724c1.914-18.594-9.084-36.239-26.546-42.749 2.181-5.358 5.094-10.236 8.112-13.389 5.477-5.722 13.884-7.824 21.418-5.359zm-104.753 48.728c3.617-1.735 5.228-6.01 3.656-9.701-4.936-11.58 3.57-24.653 16.312-24.653 8.62 0 15.958 6.147 17.449 14.617.886 5.034 6.456 7.733 10.956 5.296 18.991-10.281 41.758 5.808 38.277 27.211h-96.408c1.028-5.491 4.626-10.308 9.758-12.77zm388.026 27.769c-.224 5.42-.703 10.776-1.402 16.062h-128.848c-4.143 0-7.5 3.357-7.5 7.5s3.357 7.5 7.5 7.5h126.215c-6.488 29.418-20.234 56.143-39.266 78.187h-395.084c-19.031-22.044-32.777-48.769-39.266-78.187h314.714c4.143 0 7.5-3.357 7.5-7.5s-3.357-7.5-7.5-7.5h-317.347c-.699-5.287-1.177-10.642-1.402-16.062zm-170.386 171.176c-7.756.358-.502.126-132.582.198-46.555 0-89.013-17.876-120.869-47.125h365.987c-30.013 27.557-69.327 44.934-112.536 46.927zm-7.151 31.261h-126.919v-16.082c4.18.033 124.134.021 126.919.004z"/></g></g></svg>