<svg id="Capa_1" enable-background="new 0 0 512.154 512.154" height="512" viewBox="0 0 512.154 512.154" width="512" xmlns="http://www.w3.org/2000/svg"><g><g><g><path d="m460.492 262.22c-5.79-5.753-6.053-18.637-6.068-18.637-.38 0 2.353-18.535-8.174-27.862-14.887-14.763-31.756.517-45.177-12.992-15.103-15.201 1.176-31.375-13.926-46.575-12.615-12.696-26.342-5.318-38.214-8.698-2.786-1.069-5.548-2.789-8.271-5.53-15.102-15.2 1.177-31.374-13.926-46.575-10.319-10.387-23.124-6.697-32.992-7.371-4.559-.648-9.076-2.41-13.492-6.855-15.1-15.198 1.179-31.372-13.922-46.571-15.247-15.346-31.726 1.294-46.922-14.678-15.681-16.481-41.965-16.477-57.728-.074l-8.944 9.307 299.602 299.602 8.683-8.32c15.162-14.568 17.795-39.967-.529-58.171z" fill="#80d261"/><path d="m460.492 262.22c-5.79-5.753-6.053-18.637-6.068-18.637-.38 0 2.353-18.535-8.174-27.862-14.887-14.763-31.756.517-45.177-12.992-15.103-15.201 1.176-31.375-13.926-46.575-12.615-12.696-26.342-5.318-38.214-8.698-2.786-1.069-5.547-2.789-8.271-5.53-15.102-15.2 1.177-31.374-13.926-46.575-10.319-10.387-23.124-6.697-32.992-7.371-4.559-.648-9.075-2.41-13.492-6.855-15.1-15.198 1.179-31.372-13.922-46.571-15.247-15.346-31.726 1.294-46.922-14.678-15.681-16.481-41.966-16.477-57.728-.074l-8.944 9.307 1.757 1.757c14.906-6.517 32.98-3.534 44.915 9.01 15.197 15.972 31.675-.668 46.922 14.678 15.1 15.198-1.179 31.372 13.921 46.571 4.416 4.445 8.933 6.207 13.492 6.855 9.868.674 22.672-3.015 32.992 7.371 15.102 15.2-1.177 31.374 13.926 46.575 2.723 2.741 5.485 4.462 8.271 5.53 11.872 3.38 25.6-3.998 38.214 8.698 15.103 15.201-1.176 31.375 13.926 46.575 13.421 13.509 30.29-1.771 45.177 12.992 10.528 9.326 7.795 27.862 8.174 27.862.015 0 .278 12.884 6.068 18.637 13.419 13.332 15.588 30.516 9.84 44.485l2.007 2.007 8.683-8.32c15.162-14.569 17.796-39.968-.529-58.172z" fill="#68ca44"/><path d="m147.578 87.201h217.837c15.964 0 28.905 12.941 28.905 28.905v217.837z" fill="#ffe177"/><g><g><circle cx="156.082" cy="106.529" fill="#ea433f" r="77.142"/><path d="m108.94 106.529c0-37.47 26.719-68.69 62.142-75.672-47.863-9.435-92.142 27.198-92.142 75.672 0 48.601 44.391 85.085 92.142 75.672-35.423-6.982-62.142-38.201-62.142-75.672z" fill="#e32928"/><circle cx="156.082" cy="106.529" fill="#eaf6ff" r="44.297"/><path d="m131.785 106.529c0-21.024 14.651-38.614 34.297-43.15-27.873-6.434-54.297 14.751-54.297 43.15 0 28.381 26.406 49.588 54.297 43.15-19.646-4.536-34.297-22.126-34.297-43.15z" fill="#d8ecfe"/></g><g><circle cx="265.364" cy="215.724" fill="#ea433f" r="77.142"/><path d="m218.223 215.724c0-37.47 26.719-68.69 62.142-75.672-47.862-9.436-92.142 27.199-92.142 75.672 0 48.593 44.383 85.088 92.142 75.672-35.423-6.983-62.142-38.202-62.142-75.672z" fill="#e32928"/><circle cx="265.364" cy="215.724" fill="#eaf6ff" r="45.025"/><path d="m280.364 173.268c-29.17-10.307-60.025 11.306-60.025 42.456 0 31.186 30.884 52.753 60.025 42.456-39.889-14.095-39.985-70.783 0-84.912z" fill="#d8ecfe"/></g><g><circle cx="374.002" cy="325.668" fill="#ea433f" r="77.142"/><path d="m326.86 325.668c0-37.47 26.719-68.69 62.142-75.672-47.865-9.435-92.142 27.2-92.142 75.672 0 48.601 44.391 85.085 92.142 75.672-35.423-6.982-62.142-38.201-62.142-75.672z" fill="#e32928"/><circle cx="374.002" cy="325.668" fill="#eaf6ff" r="46.211"/><path d="m389.002 281.961c-29.895-10.258-61.21 11.932-61.21 43.707 0 31.716 31.271 53.981 61.21 43.707-41.525-14.249-41.509-73.17 0-87.414z" fill="#d8ecfe"/></g></g><path d="m380.38 342.332c-5.79-5.753-6.053-18.637-6.068-18.637-.38 0 2.353-18.535-8.174-27.862-14.887-14.763-31.756.517-45.177-12.992-15.103-15.201 1.176-31.375-13.926-46.575-12.615-12.696-26.342-5.318-38.214-8.698-2.786-1.069-5.548-2.789-8.271-5.53-15.102-15.2 1.177-31.374-13.926-46.575-10.319-10.387-23.124-6.697-32.992-7.371-4.559-.648-9.076-2.41-13.492-6.855-15.1-15.198 1.179-31.372-13.922-46.571-15.247-15.346-31.726 1.294-46.922-14.678-15.681-16.481-41.965-16.477-57.728-.074l-8.944 9.307 299.602 299.602 8.683-8.32c15.162-14.568 17.795-39.966-.529-58.171z" fill="#80d261"/><path d="m380.38 342.332c-5.79-5.753-6.053-18.637-6.068-18.637-.38 0 2.353-18.535-8.174-27.862-14.887-14.763-31.756.517-45.177-12.992-15.103-15.201 1.177-31.375-13.926-46.575-12.615-12.696-26.343-5.318-38.214-8.698-2.786-1.069-5.547-2.789-8.271-5.53-15.102-15.201 1.177-31.374-13.926-46.575-10.319-10.387-23.124-6.697-32.992-7.371-4.559-.648-9.076-2.41-13.492-6.855-15.1-15.198 1.179-31.372-13.922-46.571-15.247-15.346-31.726 1.294-46.922-14.678-15.681-16.481-41.965-16.477-57.728-.074l-8.944 9.307 1.757 1.757c14.906-6.518 32.98-3.534 44.915 9.01 15.197 15.972 31.675-.668 46.922 14.678 15.1 15.198-1.179 31.372 13.922 46.571 4.416 4.445 8.933 6.207 13.492 6.855 9.868.674 22.672-3.015 32.992 7.371 15.102 15.2-1.177 31.374 13.926 46.575 2.723 2.741 5.485 4.462 8.271 5.53 11.872 3.38 25.6-3.998 38.214 8.698 15.103 15.201-1.177 31.375 13.926 46.575 13.421 13.509 30.29-1.771 45.177 12.992 10.527 9.326 7.794 27.862 8.174 27.862.015 0 .278 12.884 6.068 18.637 13.419 13.332 15.588 30.516 9.84 44.485l2.007 2.007 8.683-8.32c15.161-14.569 17.794-39.967-.53-58.172z" fill="#68ca44"/><path d="m397.623 442.379-8.621 13.554h-327.444l-7.27-13.554c-8.539 0-15.46-6.922-15.46-15.46v-343.336c0-13.774 16.653-20.672 26.392-10.932l343.335 343.335c9.739 9.74 2.842 26.393-10.932 26.393z" fill="#f59705"/><path d="m68.828 426.918v-343.335c0-2.232.443-4.279 1.217-6.108l-4.824-4.824c-9.739-9.74-26.392-2.842-26.392 10.932v343.335c0 8.538 6.922 15.46 15.46 15.46l7.27 13.554 22.73-13.554c-8.54 0-15.461-6.921-15.461-15.46z" fill="#ef7f02"/></g></g><g><path d="m457.952 504.486h-403.75l-31.121-31.046 30-9.757h403.333l32.659 9.757z" fill="#c4e2ff"/><path d="m53.081 473.44 30-9.757h-30l-30 9.757 31.121 31.046h30z" fill="#b3dafe"/><path d="m489.073 473.44h-465.992c-8.578 0-15.531-6.954-15.531-15.531 0-8.578 6.954-15.531 15.531-15.531h465.993c8.578 0 15.531 6.954 15.531 15.531 0 8.577-6.954 15.531-15.532 15.531z" fill="#eaf6ff"/><path d="m37.55 457.909c0-8.578 6.953-15.531 15.531-15.531h-30c-8.578 0-15.531 6.954-15.531 15.531 0 8.578 6.953 15.531 15.531 15.531h30c-8.578 0-15.531-6.954-15.531-15.531z" fill="#d8ecfe"/></g></g><g><path d="m305.086 393.183c2.93 2.929 7.678 2.929 10.607 0s2.929-7.678 0-10.606l-217.25-217.25c-2.93-2.929-7.678-2.929-10.607 0s-2.929 7.678 0 10.606z"/><path d="m87.836 230.246 162.938 162.937c2.93 2.929 7.678 2.929 10.607 0s2.929-7.678 0-10.606l-162.938-162.938c-2.929-2.928-7.677-2.929-10.607 0-2.929 2.929-2.929 7.678 0 10.607z"/><path d="m87.836 284.558 108.625 108.625c2.93 2.929 7.678 2.929 10.607 0s2.929-7.678 0-10.606l-108.625-108.625c-2.93-2.929-7.678-2.929-10.607 0s-2.929 7.678 0 10.606z"/><path d="m87.836 338.871 54.312 54.312c2.93 2.929 7.678 2.929 10.607 0s2.929-7.678 0-10.606l-54.312-54.312c-2.93-2.929-7.678-2.929-10.607 0-2.929 2.928-2.929 7.677 0 10.606z"/><path d="m85.758 390.712 3.229 3.925c2.626 3.193 7.352 3.663 10.557 1.027 3.199-2.631 3.659-7.357 1.027-10.557l-3.229-3.925c-2.631-3.199-7.357-3.659-10.557-1.027-3.199 2.631-3.659 7.358-1.027 10.557z"/><path d="m512.104 457.909c0-12.7-10.332-23.031-23.031-23.031h-69.929c3.172-8.517 1.196-17.713-5.286-24.194l-6.996-6.996c28.678-12.038 48.581-39.011 51.422-70.284 3.192-4.085 22.328-15.838 22.541-41.327.107-12.937-5.236-25.429-15.047-35.176-2.789-2.771-3.969-11.753-3.871-14.3.556-14.68-2.985-25.562-10.522-32.348-17.078-16.749-35.357-3.112-44.991-12.809-2.997-3.016-2.754-4.315-4.574-5.981v-75.356c0-20.073-16.331-36.404-36.404-36.404h-12.046c-4.143 0-7.5 3.358-7.5 7.5s3.357 7.5 7.5 7.5h12.046c11.803 0 21.404 9.602 21.404 21.404v125.89c-13.962-2.13-28.599-.803-42.627 4.485 26.765-68.533-40.904-135.774-108.97-109.874 4.957-13.06 6.699-27.376 4.657-41.906h80.803c4.143 0 7.5-3.358 7.5-7.5s-3.357-7.5-7.5-7.5h-29.641c-1.14-.742-2.814-1.191-5.469-3.863-11.321-11.394 3.387-29.149-13.922-46.571-9.846-9.91-20.36-9.584-28.803-9.322-8.306.259-12.885.143-18.006-5.24-18.494-19.438-49.695-19.742-68.57-.101l-7.289 7.586c-31.59 2.686-59.301 23.123-71.267 52.351l-7.194-7.194c-14.46-14.461-39.195-4.244-39.195 16.235v262.832c0 4.142 3.357 7.5 7.5 7.5s7.5-3.358 7.5-7.5v-262.832c0-7.091 8.573-10.645 13.588-5.629l343.337 343.336c5.003 5.003 1.479 13.564-5.598 13.587h-343.395c-4.376-.016-7.931-3.579-7.931-7.959v-47.842c0-4.142-3.357-7.5-7.5-7.5s-7.5 3.358-7.5 7.5c.453 47.846-1.065 49.086 1.424 55.801h-9.671c-12.699 0-23.031 10.332-23.031 23.031 0 11.562 8.565 21.159 19.683 22.785 29.534 28.452 29.037 31.292 34.469 31.292 427.604-.826 404.867 1.979 409.047-2.19l29.172-29.102c11.118-1.626 19.683-11.222 19.683-22.784zm-412.121-361.102c11.722-4.012 24.961-1.022 33.88 8.351 17.459 18.35 35.497 3.184 47.035 14.794 11.321 11.394-3.387 29.149 13.922 46.571 17.772 17.888 34.133 1.797 46.483 14.226 11.571 11.647-3.613 28.922 13.925 46.574 17.039 17.157 33.646 1.308 46.485 14.229 11.572 11.648-3.613 28.921 13.927 46.575 16.075 16.182 33.722 1.631 45.216 13.031.1.099.202.195.308.289 7.134 6.32 5.434 20.528 5.67 22.901.237 4.956 1.528 16.616 8.26 23.304 9.465 9.404 12.768 21.974 9.223 33.489zm92.673 13.753c-17.627-19.373-36.27-3.491-47.925-15.742-4.96-5.212-10.834-9.072-17.151-11.537 23.056-28.231 69.016-9.099 65.076 27.279zm109.361 113.209c-7.226-3.159-14.354-2.956-20.467-2.778-8.012.235-11.056.418-15.681-4.239-9.893-9.958-.428-22.594-7.693-37.863 26.427-5.12 49.61 18.468 43.841 44.88zm99.802-11.096c14.965 8.493 27.478-1.931 39.457 8.662 7.134 6.32 5.434 20.529 5.67 22.902.237 4.956 1.528 16.616 8.26 23.304 14.09 13.998 13.369 33.117 2.489 45.477-4.717-31.335-26.678-57.081-55.875-67.273v-33.072zm41.824 112.995c0 30.122-19.221 56.533-47.35 65.994 2.947-6.272 4.427-12.862 4.483-19.427 15.036-8.678 25.164-24.358 26.719-41.721.37-4.126-2.675-7.77-6.801-8.14-4.118-.359-7.769 2.675-8.139 6.801-.95 10.605-6.354 20.328-14.582 26.858-2.488-6.866-6.609-13.358-12.309-19.021-2.789-2.771-3.969-11.753-3.871-14.3.545-14.402-2.44-26.637-13.907-35.262 14.054-2.229 27.876 3.251 36.579 14.333 2.562 3.263 7.278 3.821 10.53 1.266 3.258-2.558 3.825-7.273 1.267-10.531-18.624-23.715-52.217-26.318-72.567-11.179-8.292.277-13.579.987-18.661-5.167 43.591-43.219 118.609-12.374 118.609 49.496zm-108.636-109.945c0 14.833-4.791 29.219-13.417 41.055.153-7.052-.413-15.206-6.844-23.138 15.26-41.999-25.806-82.43-67.348-67.286-8.26-5.739-17.228-6.016-24.48-5.831 45.198-34.905 112.089-2.812 112.089 55.2zm-121.032-190.678c17.471 18.364 35.461 3.143 47.035 14.795 10.302 10.368-.408 23.974 8.74 39.862h-33.41c-9.894-29.518-35.622-51.835-67.061-56.779 12.745-11.076 32.498-10.699 44.696 2.122zm-57.893 11.842c61.657 0 92.995 75.136 49.244 118.887-.005.005-.01.011-.015.017-7.048-7.237-3.977-14.81-4.607-25.575 1.338-.788 2.451-1.983 3.103-3.523 14.407-34.073-10.744-71.961-47.725-71.961-18.3 0-35.21 9.666-44.535 25.336-7.341-.173-14.753 1.374-21.633 4.692 9.314-28.313 36.154-47.873 66.168-47.873zm298.768 460.099h-397.546l-16.085-16.046h429.717zm34.223-31.046h-465.992c-4.429 0-8.031-3.603-8.031-8.031s3.603-8.031 8.031-8.031h465.992c4.429 0 8.031 3.603 8.031 8.031s-3.602 8.031-8.031 8.031z"/></g></svg>