<svg id="Capa_1" enable-background="new 0 0 511.977 511.977" height="512" viewBox="0 0 511.977 511.977" width="512" xmlns="http://www.w3.org/2000/svg"><g><g><path d="m391.325 85.156c7.291 10.097 11.215 22.234 11.215 34.688v89.541l-18.456 15.831.845 90.214 17.611 18.204v116.29c0 13.255-10.83 23.955-24.084 23.795l-30.693 19.59h-189.208l-25.61-19.59c-13.029-.158-23.509-10.764-23.509-23.795v-190.039l15.332-16.894-1.126-65.697-14.205-17.727v-39.899c0-12.345 3.856-24.381 11.028-34.428l.119-.167c7.173-10.047 11.028-22.083 11.028-34.428v-27.614h248.498v27.436c0 12.455 3.924 24.592 11.215 34.689z" fill="#eaf6ff"/><path d="m139.436 449.924v-190.039l15.332-16.894-1.126-65.697-14.205-17.727v-39.899c0-12.344 3.856-24.381 11.028-34.428l.119-.167c7.173-10.047 11.028-22.083 11.028-34.428v-27.614h-30v27.613c0 12.345-3.856 24.381-11.028 34.428l-.119.167c-7.173 10.047-11.028 22.083-11.028 34.428v39.899l14.205 17.727 1.126 65.697-15.332 16.894v190.039c0 13.03 10.479 23.637 23.509 23.794l25.61 19.59h30l-25.61-19.59c-13.029-.156-23.509-10.763-23.509-23.793z" fill="#d8ecfe"/><path d="m109.436 147.26 293.104 62.125v124.249l-293.104-61.982z" fill="#c4e2ff"/><path d="m139.436 153.619-30-6.359v124.392l30 6.344z" fill="#b3dafe"/><circle cx="255.988" cy="239.947" fill="#ea433f" r="77.656"/><path d="m208.333 239.947c0-37.755 26.948-69.204 62.656-76.194-4.855-.95-9.867-1.461-15-1.461-42.888 0-77.656 34.768-77.656 77.656s34.768 77.656 77.656 77.656c5.133 0 10.145-.511 15-1.462-35.708-6.991-62.656-38.44-62.656-76.195z" fill="#e32928"/><path d="m380.237 38.563h-248.498c-8.578 0-15.531-6.954-15.531-15.531 0-8.578 6.954-15.531 15.531-15.531h248.498c8.578 0 15.531 6.954 15.531 15.531 0 8.577-6.953 15.531-15.531 15.531z" fill="#505559"/><path d="m146.208 23.031c0-8.578 6.953-15.531 15.531-15.531h-30c-8.578 0-15.531 6.954-15.531 15.531 0 8.577 6.953 15.531 15.531 15.531h30c-8.577 0-15.531-6.953-15.531-15.531z" fill="#373c42"/><path d="m380.237 504.476h-248.498c-8.578 0-15.531-6.953-15.531-15.531 0-8.578 6.954-15.531 15.531-15.531h248.498c8.578 0 15.531 6.954 15.531 15.531 0 8.578-6.953 15.531-15.531 15.531z" fill="#505559"/><path d="m146.208 488.945c0-8.578 6.953-15.531 15.531-15.531h-30c-8.578 0-15.531 6.953-15.531 15.531s6.953 15.531 15.531 15.531h30c-8.577 0-15.531-6.953-15.531-15.531z" fill="#373c42"/></g><g><path d="m397.406 80.766c-12.11-16.77-9.441-33.085-9.796-35.92 9.093-3.082 15.659-11.693 15.659-21.814 0-12.7-10.332-23.032-23.032-23.032h-248.498c-12.699 0-23.031 10.332-23.031 23.031 0 10.026 6.443 18.572 15.404 21.728-.385 3.132 2.311 19.227-9.625 35.945-.721 1.435-12.55 15.699-12.55 38.963v330.257c0 9.889 4.672 18.758 11.935 24.51-3.226 3.964-5.164 9.015-5.164 14.512 0 12.699 10.332 23.031 23.031 23.031h248.498c19.444 0 29.962-22.601 17.904-37.496 7.593-6.026 11.898-14.937 11.898-24.557v-22.281c0-4.143-3.358-7.5-7.5-7.5s-7.5 3.357-7.5 7.5v22.281c0 7.976-5.718 14.674-13.457 16.033-1.045-.061-250.072-.065-251.168-.002-7.632-1.351-13.478-8.048-13.478-16.031v-169.02l75.79 16.027c9.332 10.379 21.254 18.532 35.001 23.367 3.907 1.375 8.189-.68 9.563-4.587s-.679-8.189-4.587-9.563c-28.036-9.859-46.872-36.464-46.872-66.201 0-38.685 31.472-70.156 70.156-70.156 61.124 0 92.68 73.053 51.636 117.649-11.874 12.902-27.99 20.853-45.378 22.388-4.126.364-7.176 4.004-6.812 8.13.368 4.168 4.061 7.184 8.13 6.812 9.505-.839 18.689-3.268 27.237-7.098l104.239 22.043v55.242c0 4.143 3.358 7.5 7.5 7.5s7.5-3.357 7.5-7.5v-275.113c.001-14.118-4.368-27.631-12.633-39.078zm-9.137 408.179c0 4.429-3.603 8.031-8.031 8.031h-248.499c-4.428 0-8.031-3.603-8.031-8.031 0-3.913 2.815-7.177 6.524-7.885 2.259.223 248.975.265 251.591.012 3.671.739 6.446 3.988 6.446 7.873zm-207.933-209.966-63.399-13.407v-109.055l84.681 17.948c-31.005 25.788-39.527 69.188-21.282 104.514zm38.776-115.782c-1.916-1.085 3.61.539-102.176-22.013v-21.517c0-17.701 8.738-28.222 9.751-30.237 14.851-20.802 12.083-40.833 12.424-43.367h53.94c4.142 0 7.5-3.357 7.5-7.5s-3.358-7.5-7.5-7.5h-61.312c-4.428 0-8.031-3.603-8.031-8.031s3.603-8.032 8.031-8.032h248.498c4.428 0 8.031 3.603 8.031 8.031s-3.603 8.031-8.031 8.031h-154.499c-4.142 0-7.5 3.357-7.5 7.5s3.358 7.5 7.5 7.5h146.872c.309 2.267-2.367 22.71 12.635 43.484 6.408 8.875 9.795 19.352 9.795 30.297v80.285c-78.329-16.564-73.408-15.642-74.579-15.718-25.533-29.6-67.184-37.695-101.349-21.213zm90.275 143.072c31.539-25.441 40.438-68.822 22.883-104.112l62.77 13.304v108.92z"/><path d="m224.799 372.737h-77.656c-4.142 0-7.5 3.357-7.5 7.5s3.358 7.5 7.5 7.5h77.656c4.142 0 7.5-3.357 7.5-7.5s-3.358-7.5-7.5-7.5z"/><path d="m224.799 403.8h-77.656c-4.142 0-7.5 3.357-7.5 7.5s3.358 7.5 7.5 7.5h77.656c4.142 0 7.5-3.357 7.5-7.5s-3.358-7.5-7.5-7.5z"/></g></g></svg>