<svg id="Capa_1" enable-background="new 0 0 510.279 510.279" height="512" viewBox="0 0 510.279 510.279" width="512" xmlns="http://www.w3.org/2000/svg"><g><g><path d="m160.206 442.404 1.151 1.089c11.287 10.681 29.026 10.436 40.014-.552l294.067-258.045 6.631-39.202c3.036-17.947-3.818-36.215-18.085-47.518-5.567-4.411-11.604-8.523-17.192-12.644l-44.959-26.671z" fill="#fec304"/><path d="m328.879 31.463c15.394 6.447 23.222-12.243 38.615-5.796 15.396 6.448 7.568 25.138 22.964 31.586s23.224-12.242 38.62-5.794c0 0 12.568 3.706 14.925 21.262.941 7.007-.138 14.138-2.783 20.695l-9.931 24.613c-8.314 20.605-33.457 28.373-51.945 16.049l-94.113-62.734c-.002 0 28.255-46.328 43.648-39.881z" fill="#80d261"/><path d="m328.879 61.463c15.394 6.447 23.222-12.243 38.615-5.796 15.396 6.448 7.568 25.138 22.964 31.586s23.224-12.242 38.62-5.794c0 0 7.743 2.288 12.214 11.762 2.589-6.503 3.643-13.562 2.711-20.5-2.356-17.555-14.925-21.262-14.925-21.262-15.396-6.448-23.224 12.242-38.62 5.794s-7.568-25.138-22.964-31.586c-15.394-6.447-23.222 12.243-38.615 5.796s-43.649 39.881-43.649 39.881l14.431 9.62c9.266-11.489 21.052-22.921 29.218-19.501z" fill="#68ca44"/><circle cx="275.61" cy="89.094" fill="#ea433f" r="78.678"/><path d="m249.976 144.728c-30.726-30.726-30.726-80.542 0-111.268 11.529-11.529 25.746-18.732 40.634-21.609-24.789-4.79-51.437 2.412-70.634 21.609-30.726 30.726-30.726 80.542 0 111.268 19.197 19.197 45.845 26.399 70.634 21.609-14.888-2.878-29.105-10.08-40.634-21.609z" fill="#e32928"/><circle cx="275.61" cy="89.094" fill="#eaf6ff" r="47.207"/><path d="m272.23 122.474c-18.436-18.435-18.436-48.325 0-66.761 5.348-5.348 11.663-9.134 18.38-11.379-16.437-5.494-35.293-1.708-48.381 11.379-18.436 18.435-18.436 48.325 0 66.761 13.087 13.087 31.944 16.873 48.381 11.379-6.717-2.245-13.032-6.03-18.38-11.379z" fill="#d8ecfe"/><ellipse cx="316.534" cy="102.648" fill="#ca2e43" rx="48.172" ry="40.842" transform="matrix(.707 -.707 .707 .707 20.127 253.888)"/><path d="m312.471 136.711c-15.95-15.95-13.629-44.13 5.184-62.942 6.169-6.169 13.346-10.552 20.768-13.111-15.809-6.179-36.125-1.532-50.768 13.111-18.812 18.812-21.133 46.993-5.184 62.942 10.72 10.72 26.962 13.174 42.174 7.928-4.501-1.759-8.639-4.393-12.174-7.928z" fill="#ac2638"/><path d="m28.479 331.863c6.447 15.394-12.243 23.222-5.796 38.615 6.448 15.396 25.138 7.568 31.586 22.964s-12.242 23.224-5.794 38.62c0 0 5.614 19.039 35.752 14.645l30.817-12.435c20.605-8.314 28.373-33.457 16.049-51.945l-62.733-94.114s-46.327 28.257-39.881 43.65z" fill="#80d261"/><path d="m78.476 432.061c-6.448-15.396 12.242-23.224 5.794-38.62s-25.138-7.568-31.586-22.964c-6.447-15.394 12.243-23.222 5.796-38.615-3.42-8.166 8.012-19.951 19.5-29.218l-9.62-14.431s-46.328 28.256-39.881 43.649c6.447 15.394-12.243 23.222-5.796 38.615 6.448 15.396 25.138 7.568 31.586 22.964s-12.242 23.224-5.794 38.62c0 0 5.614 19.039 35.752 14.645l6.026-2.432c-9.48-4.469-11.777-12.213-11.777-12.213z" fill="#68ca44"/><circle cx="86.11" cy="278.594" fill="#ea433f" r="78.678"/><path d="m60.476 334.228c-30.726-30.726-30.726-80.542 0-111.268 11.529-11.529 25.746-18.732 40.634-21.609-24.789-4.79-51.438 2.412-70.634 21.609-30.726 30.726-30.726 80.542 0 111.268 19.197 19.197 45.845 26.399 70.634 21.609-14.888-2.878-29.105-10.08-40.634-21.609z" fill="#e32928"/><circle cx="86.11" cy="278.594" fill="#eaf6ff" r="47.207"/><path d="m82.73 311.974c-18.436-18.435-18.436-48.325 0-66.761 5.348-5.348 11.663-9.134 18.38-11.379-16.437-5.494-35.293-1.708-48.38 11.379-18.436 18.435-18.436 48.325 0 66.761 13.087 13.087 31.944 16.873 48.38 11.379-6.717-2.245-13.032-6.031-18.38-11.379z" fill="#d8ecfe"/><g><path d="m180.132 92.976c-18.307-17.505-48.414-9.808-56.495 13.753-10.051-6.812-23.707-6.913-34.004.737-14.333 10.649-15.957 31.546-3.313 44.295-5.917 9.781-5.234 22.569 2.601 31.753-12.823 11.819-14.92 31.653-4.287 45.965 11.376 15.311 33.01 18.502 48.321 7.126s79.363-75.809 94.759-87.247c16.387-12.175 19.802-35.328 7.627-51.715-13.178-17.737-39.007-20.121-55.209-4.667z" fill="#ca2e43"/></g><g><path d="m114.635 219.48c-10.633-14.312-8.536-34.146 4.287-45.965-7.836-9.184-8.518-21.972-2.601-31.753-10.847-10.937-11.185-27.866-2.014-39.181-8.247-2.069-17.315-.581-24.673 4.886-14.333 10.649-15.957 31.546-3.313 44.295-5.917 9.781-5.234 22.569 2.601 31.753-12.823 11.819-14.92 31.653-4.287 45.965 11.376 15.311 33.01 18.502 48.321 7.126 1.186-.881 2.667-2.083 4.393-3.552-8.756-1.284-17.02-5.91-22.714-13.574z" fill="#ac2638"/></g><ellipse cx="99.665" cy="319.518" fill="#ac2638" rx="48.172" ry="40.842" transform="matrix(.707 -.707 .707 .707 -196.742 164.058)"/><path d="m487.854 198.371-293.014 293.015c-10.988 10.988-28.726 11.233-40.014.552l-1.151-1.089c-92.124-92.124-92.124-241.487 0-333.611 92.124-92.124 241.487-92.124 333.611 0 11.737 11.105 11.994 29.708.568 41.133z" fill="#ffd23c"/><g fill="#fec304"><path d="m184.826 471.938-1.151-1.089c-92.124-92.124-92.124-241.487 0-333.611 6.879-6.879 14.084-13.233 21.554-19.085-18.47 10.352-35.845 23.377-51.554 39.085-92.124 92.124-92.124 241.487 0 333.611l1.151 1.089c11.287 10.681 29.026 10.436 40.014-.552l11.666-11.666c-7.725.525-15.629-2.056-21.68-7.782z"/><circle cx="177.578" cy="373.549" r="21.166"/><circle cx="264.483" cy="211.489" r="15.736"/></g></g><g><path d="m488.641 92.296c-19.493-15.443-30.315-20.147-38.058-25.101-4.003-16.511-16.03-21.739-18.823-22.743-18.515-7.578-28.26 10.132-38.404 5.883-10.027-4.199-4.471-23.841-22.964-31.586-17.973-7.524-27.888 8.695-37.113 6.307-50.951-45.993-134.161-16.477-143.132 52.98-3.537 1.321-6.911 3.088-10.032 5.279-19.831-13.697-47.504-7.797-59.991 13.209-23.031-8.636-47.899 7.263-49.743 31.746-.666 8.826 1.865 17.525 7.032 24.577-3.959 9.782-3.23 20.822 1.931 29.99-2.58 3.254-4.615 6.815-6.1 10.555-31.16 4.667-55.982 25.605-67.001 52.775-2.01 4.955 1.67 10.32 6.947 10.32 2.964 0 5.771-1.768 6.953-4.684 8.35-20.59 26.611-37.309 50.151-42.614.042 5.469 1.154 10.951 3.364 16.125-41.372 9.587-56.639 61.548-26.233 91.96.275.275.571.516.876.74-1.226 7.304-.936 14.619.889 21.435-19.524-11.862-33.171-33.145-34.197-57.892-.171-4.139-3.692-7.364-7.804-7.183-4.139.171-7.354 3.666-7.183 7.804.834 20.142 8.635 39.167 22.061 54.066 2.399 9.214-13.807 19.209-6.302 37.128 7.747 18.495 27.375 12.909 31.587 22.963 4.246 10.142-13.431 19.857-5.905 38.353 4.267 12.222 18.993 23.063 43.863 19.436 1.571-.228.482-.043 23.722-9.342 11.933 20.821 28.107 40.798 39.488 51.51.7.452 9.555 11.069 26.033 11.069 9.247 0 18.482-3.568 25.59-10.676l224.737-224.737c2.929-2.929 2.929-7.678 0-10.606s-7.677-2.929-10.607 0l-224.737 224.74c-8.174 8.174-21.156 8.355-29.555.409-.094-.1-10.028-9.429-21.044-23.79-31.69-41.315-46.856-90.093-46.856-138.658 0-148.548 140.001-257.982 284.621-221.409 4.013 1.017 8.095-1.416 9.11-5.432 1.016-4.016-1.417-8.094-5.433-9.11-4.217-1.067-8.461-2.011-12.722-2.848-1.434-6.816-4.338-13.049-8.514-18.318-1.492-3.642-4.094-15.239-13.908-28.637 8.438-3.353 12.95-8.391 19.36-5.704 10.027 4.199 4.471 23.841 22.964 31.586 18.659 7.811 28.427-10.061 38.619-5.794 6.497 2.712 9.453 8.364 10.39 15.341 1.658 12.356-4.483 20.633-8.397 31.989-4.609-2.272-9.292-4.416-14.062-6.401-3.825-1.592-8.215.218-9.806 4.042-1.592 3.824.218 8.214 4.042 9.806 31.089 12.939 51.892 28.711 73.785 49.53 8.88 8.401 8.642 22.161.419 30.383l-45.165 45.165c-2.929 2.929-2.929 7.678 0 10.606 2.93 2.929 7.678 2.929 10.607 0l45.165-45.165c5.951-5.952 9.555-13.58 10.4-21.818l5.906-34.913c3.511-20.749-4.467-41.689-20.821-54.646zm-152.169-40.121c-6.793-1.819-14.083-2.115-21.363-.903-30.755-32.107-84.634-15.879-93.154 27.061-5.032-1.982-10.421-3.086-16.147-3.102 12.626-63.555 97.055-78.347 130.664-23.056zm-242.367 61.311c6.065-4.506 13.928-5.493 20.79-2.901-1.126 6.429-.74 13.131 1.263 19.577-2.927 5.263-7.377 15.681-5.042 27.351 1.655 8.274 6.288 15.501 13.78 21.576-11.835 15.898-21.592 33.056-29.14 51.133-13.158-10.254-14.068-29.84-1.751-41.192 2.964-2.731 3.238-7.316.622-10.383-5.531-6.483-6.291-15.728-1.89-23.003 1.781-2.943 1.331-6.721-1.092-9.163-9.416-9.494-8.214-25.064 2.46-32.995zm-11.035 125.526c2.195 2.137 4.614 4.019 7.215 5.625-3.212 9.336-5.852 18.882-7.905 28.598-12.323 6.009-22.539 16.159-28.651 28.332-17.726-24.888-1.486-60.234 29.341-62.555zm-4.066 54.251c-2.479 19.77-2.601 40.146-.125 60.566-21.477-9.952-22.233-41.464.125-60.566zm3.276 146.142c-10.935 1.44-22.624-.065-26.887-10.241-4.24-10.121 13.59-20.007 5.795-38.619-7.747-18.495-27.375-12.91-31.587-22.964-2.681-6.402 2.348-10.915 5.704-19.358 10.87 7.957 40.743 21.02 46.188 22.256 4.082 21.245 10.964 41.72 20.457 60.99zm51.946-272.056c-4.613-3.789-7.426-8.035-8.382-12.677-2.026-9.841 4.582-19.123 4.624-19.183 1.572-2.122 1.912-4.916.896-7.353-10.925-26.174 22.326-50.069 43.584-29.739 2.896 2.77 7.458 2.773 10.36.006 12.152-11.59 30.68-10.505 41.619.897-34.49 14.375-66.53 37.047-92.701 68.049zm107.488-73.651c-1.116-1.798-3.839-4.759-5.763-6.549 1.514-31.628 37.517-48.341 62.635-30.438-12.392 6.222-22.652 16.677-28.603 29.208-9.577 2.02-18.769 4.532-28.269 7.779zm48.055-11.106c18.955-23.014 51.64-22.596 61.384-.007-20.372-2.568-41.02-2.564-61.384.007zm151.721 30.195c5.34-13.96 8.343-18.627 9.757-27.757 11.628 7.279 24.559 16.234 28.08 19.024 23.505 18.623 13.848 46.234 13.962 48.579-15.454-15.591-32.876-29-51.799-39.846z"/><path d="m177.577 402.202c25.38 0 38.334-30.858 20.271-48.923 0 0 0 0-.001 0-17.908-17.91-48.937-5.334-48.937 20.27.001 15.911 12.885 28.653 28.667 28.653zm.135-42.335c7.357 0 13.526 6.112 13.526 13.683 0 7.515-6.089 13.662-13.522 13.662-7.031 0-13.805-5.439-13.805-13.662 0-8.18 6.757-13.683 13.801-13.683z"/><path d="m287.708 211.489c0-5.95-2.265-11.9-6.795-16.43h-.001c-4.529-4.529-10.479-6.794-16.429-6.794-12.861 0-23.224 10.386-23.224 23.224 0 12.859 10.384 23.225 23.224 23.225 12.859-.001 23.225-10.386 23.225-23.225zm-14.993 0c0 4.398-3.527 8.232-8.233 8.232-3.374 0-8.244-2.665-8.244-8.153 0-7.513 8.962-11.006 14.068-5.903h-.001c1.607 1.606 2.41 3.715 2.41 5.824z"/><path d="m143.995 267.69c-4.144 0-7.501 3.376-7.501 7.492 0 4.194 3.405 7.5 7.5 7.5 4.106 0 7.5-3.311 7.5-7.5 0-4.13-3.355-7.492-7.499-7.492z"/><path d="m260.672 285.123c-4.246 0-7.499 3.45-7.499 7.5 0 4.217 3.458 7.5 7.5 7.5 4.163 0 7.5-3.403 7.5-7.5.001-4.254-3.46-7.5-7.501-7.5z"/><path d="m360.054 155.643c0-4.107-3.332-7.497-7.514-7.497-4.129 0-7.486 3.368-7.486 7.497s3.356 7.5 7.5 7.5c4.067 0 7.5-3.302 7.5-7.5z"/><path d="m362.234 249.973c4.446 0 7.5-3.673 7.5-7.5 0-3.529-2.778-7.492-7.535-7.492-4.058 0-7.474 3.307-7.474 7.492-.001 4.037 3.279 7.5 7.509 7.5z"/></g></g></svg>