<svg id="Capa_1" enable-background="new 0 0 512.01 512.01" height="512" viewBox="0 0 512.01 512.01" width="512" xmlns="http://www.w3.org/2000/svg"><g><g><path d="m252.762 7.508 65.368 46.593-65.368 46.593z" fill="#ea433f"/><path d="m282.762 28.891-30-21.383v93.186l30-21.383z" fill="#e32928"/><g><path d="m361.48 240.475c0 7.505-.761 14.833-2.209 21.91-10.138 49.541-53.971 149.384-106.509 149.384-50.926 0-93.674-97.591-105.482-144.859-2.114-8.462-3.236-17.318-3.236-26.435 0-13.403 2.425-26.24 6.861-38.095 15.436-41.254 58.459-33.697 105.1-33.697 50.183 0 89.182-2.925 101.702 43.296 2.46 9.082 3.773 18.635 3.773 28.496z" fill="#f59705"/><path d="m358.237 214.041c-10.277-42.76-58.81-45.366-105.475-45.366-15.822 0-86.628-7.395-101.977 34.028-4.359 11.765-6.741 24.49-6.741 37.771 0 9.117 1.122 17.973 3.236 26.435 11.808 47.268 54.556 144.859 105.482 144.859 5.14 0 10.194-.967 15.144-2.738-44.226-16.1-79.986-99.531-90.625-142.121-.017-.066-.033-.133-.049-.199-1.483-5.985 3.987-11.392 9.98-9.943 1.647.398 3.342.584 5.03.528 8.503-.282 16.299-5.919 20.417-13.363 4.564-8.249 6.879-10.615 16.18-11.292 4.058-.295 7.952 1.445 10.502 4.615 8.452 10.505 2.991 16.094 11.736 30.172 9.634 15.508 28.535 13.086 35.816-5.793 5.044-13.079 4.463-20.462 12.848-32.467 4.055-5.806 11.613-8.271 18.123-5.482 9.313 3.989 36.524 23.735 43.306 8.52 0 .002-.374-7.516-2.933-18.164z" fill="#ef7f02"/><path d="m252.762 131.757c-46.762 0-86.624 29.525-101.973 70.948 2.384-2.237 5.064-4.091 8.357-5.002 3.357-.929 7.029-.465 9.734 1.729 6.617 5.368 2.574 15.789 4.367 23.998 1.816 8.311 10.492 14.148 18.994 13.867 8.503-.282 16.299-5.919 20.417-13.363 4.655-8.414 7.31-20.739 17.086-21.362 3.876-.247 7.546 1.672 9.975 4.703 8.395 10.473 2.626 26.098 11.357 40.155 9.634 15.508 28.535 13.086 35.816-5.793 5.044-13.079 2.936-28.078 11.321-40.084 4.055-5.806 11.613-8.271 18.123-5.482 9.313 3.989 10.59 13.55 14.932 20.774 7.061 11.748 20.186 12.413 26.968-2.803-11.807-47.268-54.548-82.285-105.474-82.285z" fill="#eaf6ff"/><g><path d="m203.247 223.429c-1.793-8.208 2.25-18.628-4.366-23.997-2.692-2.185-6.346-2.658-9.691-1.742-.049.013-.097.027-.146.041-2.886.819-5.385-2.114-4.071-4.811 15.556-31.924 46.288-55.082 82.806-60.118-4.91-.679-9.921-1.045-15.018-1.045-46.762 0-86.624 29.525-101.973 70.948 2.395-2.247 5.088-4.108 8.401-5.014 3.344-.915 6.998-.443 9.691 1.742 6.616 5.368 2.573 15.789 4.366 23.997 1.816 8.311 10.492 14.148 18.994 13.867 5.561-.184 10.812-2.668 14.937-6.441-1.908-2.104-3.317-4.619-3.93-7.427z" fill="#d8ecfe"/></g></g><g><path d="m473.441 375.289c0 60.043-48.675 108.718-108.718 108.718s-108.718-48.675-108.718-108.718c0-13.285 2.383-26.014 6.745-37.782 15.351-41.418 61.24-47.554 107.999-47.554 51.035 0 87.831 11.783 99.532 59.204 2.064 8.372 3.16 17.124 3.16 26.132z" fill="#f59705"/><path d="m470.198 352.25c-10.277-42.76-58.811-62.285-105.475-62.285-18.353 0-86.628 6.129-101.977 47.552-4.359 11.765-6.741 24.49-6.741 37.771 0 60.043 48.675 108.718 108.718 108.718 5.09 0 10.096-.358 15-1.035-40.504-5.591-73.883-33.49-87.333-70.898-2.895-8.051 3.041-16.386 11.594-16.564.073-.001.145-.003.218-.006 8.503-.282 16.299-5.919 20.417-13.363 4.564-8.249 6.879-10.615 16.18-11.292 4.058-.295 7.952 1.445 10.502 4.615 8.452 10.505 2.991 16.094 11.736 30.172 9.634 15.508 28.535 13.086 35.816-5.793 5.044-13.079 4.463-20.462 12.848-32.467 4.055-5.806 11.613-8.271 18.123-5.482 9.313 3.989 36.524 23.735 43.306 8.52.001.003-.373-7.515-2.932-18.163z" fill="#ef7f02"/><path d="m364.723 266.572c-46.762 0-86.624 29.525-101.973 70.948 2.384-2.237 5.064-4.091 8.357-5.002 3.357-.929 7.029-.465 9.734 1.729 6.617 5.368 2.574 15.789 4.367 23.998 1.816 8.311 10.492 14.148 18.994 13.867 8.503-.282 16.299-5.919 20.417-13.363 4.655-8.414 7.31-20.739 17.086-21.362 3.876-.247 7.546 1.672 9.975 4.703 8.395 10.473 2.626 26.098 11.357 40.155 9.634 15.508 28.535 13.086 35.816-5.793 5.044-13.079 2.936-28.078 11.321-40.084 4.055-5.806 11.613-8.271 18.123-5.482 9.313 3.989 10.59 13.55 14.932 20.774 7.061 11.748 20.186 12.413 26.968-2.803-11.807-47.269-54.548-82.285-105.474-82.285z" fill="#eaf6ff"/><g><path d="m315.208 358.244c-1.793-8.208 2.25-18.628-4.366-23.997-2.692-2.185-6.346-2.658-9.691-1.742-.049.013-.097.027-.146.041-2.886.819-5.385-2.114-4.071-4.811 15.556-31.924 46.288-55.082 82.806-60.118-4.911-.679-9.921-1.045-15.018-1.045-46.762 0-86.624 29.525-101.973 70.948 2.395-2.247 5.088-4.108 8.401-5.014 3.344-.915 6.998-.443 9.691 1.742 6.616 5.368 2.573 15.789 4.366 23.997 1.816 8.311 10.492 14.148 18.994 13.867 5.561-.184 10.812-2.668 14.937-6.441-1.908-2.104-3.317-4.619-3.93-7.427z" fill="#d8ecfe"/></g></g><g><path d="m256.005 375.289c0 60.043-48.675 108.718-108.718 108.718s-108.718-48.674-108.718-108.718c0-13.285 2.383-26.014 6.745-37.782 15.351-41.418 61.24-47.554 107.999-47.554 51.035 0 87.831 11.783 99.532 59.204 2.064 8.372 3.16 17.124 3.16 26.132z" fill="#f59705"/><path d="m252.762 352.25c-10.277-42.76-58.811-62.285-105.475-62.285-18.353 0-86.628 6.129-101.977 47.552-4.359 11.765-6.741 24.49-6.741 37.771 0 60.043 48.675 108.718 108.718 108.718 5.09 0 10.096-.358 15-1.035-40.504-5.591-73.883-33.49-87.333-70.898-2.895-8.051 3.041-16.386 11.594-16.564.073-.001.145-.003.218-.006 8.503-.282 16.299-5.919 20.417-13.363 4.564-8.249 6.879-10.615 16.18-11.292 4.058-.295 7.952 1.445 10.502 4.615 8.452 10.505 2.991 16.094 11.736 30.172 9.634 15.508 28.535 13.086 35.816-5.793 5.044-13.079 4.463-20.462 12.848-32.467 4.055-5.806 11.613-8.271 18.123-5.482 9.313 3.989 36.524 23.735 43.306 8.52.001.003-.373-7.515-2.932-18.163z" fill="#ef7f02"/><path d="m147.287 266.572c-46.762 0-86.624 29.525-101.973 70.948 2.384-2.237 5.064-4.091 8.357-5.002 3.357-.929 7.029-.465 9.734 1.729 6.617 5.368 2.574 15.789 4.367 23.998 1.816 8.311 10.492 14.148 18.994 13.867 8.503-.282 16.299-5.919 20.417-13.363 4.655-8.414 7.31-20.739 17.086-21.362 3.876-.247 7.546 1.672 9.975 4.703 8.395 10.473 2.626 26.098 11.357 40.155 9.634 15.508 28.535 13.086 35.816-5.793 5.044-13.079 2.936-28.078 11.321-40.084 4.055-5.806 11.613-8.271 18.123-5.482 9.313 3.989 10.59 13.55 14.932 20.774 7.061 11.748 20.186 12.413 26.968-2.803-11.807-47.269-54.548-82.285-105.474-82.285z" fill="#eaf6ff"/><g><path d="m97.772 358.244c-1.793-8.208 2.25-18.628-4.366-23.997-2.692-2.185-6.346-2.658-9.691-1.742-.049.013-.097.027-.146.041-2.886.819-5.385-2.114-4.071-4.811 15.556-31.924 46.288-55.082 82.806-60.118-4.911-.679-9.921-1.045-15.018-1.045-46.762 0-86.624 29.525-101.973 70.948 2.395-2.247 5.088-4.108 8.401-5.014 3.344-.915 6.998-.443 9.691 1.742 6.616 5.368 2.573 15.789 4.366 23.997 1.816 8.311 10.492 14.148 18.994 13.867 5.561-.184 10.812-2.668 14.937-6.441-1.907-2.104-3.317-4.619-3.93-7.427z" fill="#d8ecfe"/></g></g><g><g><path d="m504.503 380.721c-165.011 20.5-331.988 20.259-496.996-.932l31.062 93.653 203.225 15.531 231.647-15.531z" fill="#c4e2ff"/></g></g><path d="m83.003 414.021c136.097 14.977 273.336 15.748 409.523 2.451l11.977-35.751c-165.011 20.5-331.988 20.259-496.996-.932l31.062 93.653 26.443 2.021 3.606-2.021-9.812-29.582c-5.238-15.796 7.654-31.66 24.197-29.839z" fill="#b3dafe"/><path d="m464.68 504.504h-417.35l-8.761-31.063h434.872z" fill="#c4e2ff"/><path d="m38.569 473.441 8.761 31.063h30l-8.761-31.063z" fill="#b3dafe"/></g><g><path d="m268.295 191.736c4.255 0 7.5-3.501 7.5-7.5 0-4.686-3.907-7.502-7.533-7.502-4.006 0-7.467 3.246-7.467 7.502 0 4.124 3.344 7.5 7.5 7.5z"/><path d="m213.815 179.906c4.207 0 7.49-3.426 7.49-7.5 0-4.133-3.361-7.496-7.478-7.496-4.23 0-7.522 3.443-7.522 7.496 0 3.776 2.988 7.5 7.51 7.5z"/><path d="m162.815 326.546c4.116 0 7.5-3.319 7.5-7.5 0-4.284-3.511-7.5-7.499-7.5-4 0-7.501 3.24-7.501 7.5 0 4.112 3.343 7.5 7.5 7.5z"/><path d="m108.335 314.725c4.047 0 7.5-3.309 7.5-7.5 0-4.226-3.46-7.502-7.473-7.502-4.145 0-7.527 3.336-7.527 7.502 0 4.149 3.382 7.5 7.5 7.5z"/><circle cx="380.255" cy="319.046" r="7.5"/><path d="m325.773 299.723c-4.137 0-7.499 3.336-7.499 7.502 0 4.211 3.444 7.5 7.5 7.5 4.029 0 7.5-3.296 7.5-7.5.001-4.079-3.315-7.502-7.501-7.502z"/><path d="m503.578 373.278c-7.545.937-15.095 1.816-22.648 2.666.196-34.93-15.135-67.68-41.785-89.922-3.182-2.653-7.91-2.227-10.563.953-2.654 3.18-2.228 7.91.952 10.564 15.966 13.324 27.23 30.948 32.681 50.484-3.959 6.771-8.681 6.22-12.557-.227-3.952-6.576-5.979-18.482-18.406-23.804-9.623-4.123-21.073-.724-27.225 8.082-9.6 13.744-7.554 29.711-12.171 41.679-4.815 12.489-15.831 15.184-22.447 4.534-3.444-5.544-4.06-11.689-4.712-18.195-.773-7.729-1.574-15.72-7.164-22.692-4.076-5.086-10.183-7.884-16.304-7.498-14.886.949-18.706 17.148-23.172 25.216-3.292 5.95-9.311 9.503-14.458 9.503-5.088 0-10.104-3.586-11.064-7.977-1.473-6.751 3.025-20.115-6.969-28.222-2.527-2.05-5.433-3.258-8.509-3.68 25.682-44.368 79.533-61.943 125.572-43.335 3.84 1.551 8.212-.303 9.764-4.143 1.553-3.84-.303-8.212-4.143-9.764-12.989-5.25-26.691-8.069-40.769-8.395 10.903-67.703-38.856-130.222-107.219-134.599v-19.946l62.221-44.351c4.192-2.989 4.191-9.227 0-12.215l-65.368-46.594c-.019-.013-.04-.023-.059-.036-4.933-3.453-11.795.074-11.795 6.143v116.995c-13.647.862-26.867 4.076-39.39 9.604-3.79 1.673-5.506 6.101-3.833 9.89 1.673 3.79 6.103 5.504 9.89 3.833 55.936-24.691 121.659 5.879 138.319 65.39-4.005 6.839-8.728 6.12-12.55-.238-3.948-6.57-5.979-18.481-18.407-23.805-9.623-4.12-21.074-.723-27.225 8.083-9.604 13.75-7.554 29.714-12.17 41.679-4.88 12.654-15.887 15.094-22.447 4.534-7.607-12.247-1.562-28.019-11.877-40.889-4.076-5.084-10.184-7.89-16.304-7.497-14.864.948-18.682 17.097-23.172 25.216-3.044 5.502-8.712 9.319-14.103 9.498-5.185.168-10.438-3.478-11.419-7.971-1.478-6.773 3.024-20.115-6.97-28.222-2.431-1.972-5.387-3.209-8.531-3.657 5.412-9.396 12.346-17.963 20.635-25.299 3.102-2.745 3.391-7.485.646-10.587-2.746-3.102-7.486-3.391-10.587-.646-29.752 26.332-44.198 66.254-37.679 106.017-59.749 4.701-106.922 54.792-107.017 115.67-7.541-.88-15.079-1.788-22.61-2.755-5.471-.702-9.812 4.562-8.073 9.8l39.723 124.389c.912 3.232 3.86 5.464 7.219 5.464h117.065c4.143 0 7.5-3.358 7.5-7.5s-3.357-7.5-7.5-7.5h-111.386l-4.53-16.062h415.055l-4.53 16.062h-261.92c-4.143 0-7.5 3.358-7.5 7.5s3.357 7.5 7.5 7.5h267.597c3.358 0 6.307-2.232 7.219-5.464l39.716-123.437c1.75-5.227-2.559-10.502-8.037-9.824zm-243.316-287.14v-64.074l44.946 32.037zm156.061 254.524c2.102-3.009 5.896-4.223 9.021-2.883 5.954 2.549 7.027 10.377 11.457 17.743 6.674 11.107 18.441 15.562 28.655 9.937.454 4.68.53 8.411.447 12.117-20.582 2.157-41.189 3.991-61.813 5.502 7.53-14.75 4.523-31.378 12.233-42.416zm-140.207-.591c2.517 2.042.026 11.815 1.764 19.774 2.511 11.49 14.169 20.162 26.57 19.761 10.645-.353 21.137-7.115 26.731-17.228 4.034-7.291 6.772-17.239 11.001-17.508 1.237-.079 2.638.652 3.646 1.909 6.189 7.72 1.272 23.79 10.711 39.206-30.715 1.507-61.452 2.299-92.183 2.374-2.044-15.888-.367-31.673 4.813-46.456 2.248-1.718 5.279-3.185 6.947-1.832zm-26.873 48.268c-21.627-.112-43.247-.579-64.852-1.401 10.358-15.452 6.129-34.298 14.498-46.277 2.101-3.008 5.896-4.221 9.021-2.882 5.954 2.549 7.027 10.377 11.457 17.743 6.508 10.829 18.231 15.681 28.66 9.934.922 9.533-.021 11.801 1.216 22.883zm-85.088-183.083c2.522 2.045.021 11.792 1.765 19.773 2.511 11.492 14.184 20.166 26.569 19.762 10.645-.353 21.137-7.115 26.731-17.228 4.027-7.275 6.772-17.239 11-17.508 1.229-.079 2.641.653 3.646 1.909 6.245 7.79 1.2 23.902 10.839 39.421 12.743 20.514 39.553 17.918 49.186-7.051 5.356-13.89 3.432-28.411 10.471-38.487 2.103-3.009 5.896-4.221 9.022-2.883 6.017 2.578 6.932 10.219 11.456 17.743 6.635 11.04 18.383 15.597 28.66 9.935.946 9.771.486 19.504-1.365 29.113-44.131 4.775-80.928 34.353-96.131 74.47-15.954-42.098-55.686-72.598-102.72-75-3.158-16.891-2.12-34.845 3.962-52.197 1.796-1.42 5.132-3.214 6.909-1.772zm-16.868 68.816c46.371 0 85.555 31.346 97.486 73.961-3.989 6.813-8.708 6.152-12.551-.237-3.952-6.576-5.979-18.482-18.406-23.804-9.627-4.123-21.075-.724-27.225 8.082-9.6 13.744-7.554 29.711-12.171 41.679-4.851 12.582-15.85 15.153-22.447 4.534-7.607-12.245-1.561-28.02-11.876-40.887-4.076-5.086-10.167-7.884-16.306-7.498-14.884.949-18.704 17.149-23.17 25.216-3.044 5.502-8.712 9.319-14.103 9.498-5.187.166-10.438-3.478-11.42-7.971-1.473-6.749 3.025-20.115-6.969-28.222-2.527-2.05-5.433-3.257-8.509-3.68 17.519-30.266 50.254-50.671 87.667-50.671zm-95.552 67.83c2.247-1.718 5.278-3.184 6.946-1.831 2.524 2.048.02 11.788 1.764 19.773 2.51 11.491 14.167 20.174 26.57 19.762 10.645-.353 21.137-7.115 26.731-17.228 4.032-7.285 6.773-17.239 10.999-17.508 1.238-.077 2.64.651 3.647 1.909 6.001 7.486 1.562 22.922 9.922 37.867-30.799-1.893-61.548-4.509-92.221-7.848-.179-12.39 1.835-24.032 5.642-34.896zm429.517 84.61h-69.936c-4.143 0-7.5 3.358-7.5 7.5s3.357 7.5 7.5 7.5h64.911l-8.184 24.429h-424.059l-8.103-24.429h33.751c4.143 0 7.5-3.358 7.5-7.5s-3.357-7.5-7.5-7.5c-30.164.011-37.674-.048-38.717.028l-12.548-37.831c157.595 19.274 317.477 19.531 475.253.885z"/><path d="m224.943 426.512h-31.062c-4.143 0-7.5 3.358-7.5 7.5s3.357 7.5 7.5 7.5h31.062c4.143 0 7.5-3.358 7.5-7.5s-3.358-7.5-7.5-7.5z"/><path d="m380.254 426.512h-31.062c-4.143 0-7.5 3.358-7.5 7.5s3.357 7.5 7.5 7.5h31.062c4.143 0 7.5-3.358 7.5-7.5s-3.357-7.5-7.5-7.5z"/><path d="m162.819 426.512h-62.125c-4.143 0-7.5 3.358-7.5 7.5s3.357 7.5 7.5 7.5h62.125c4.143 0 7.5-3.358 7.5-7.5s-3.358-7.5-7.5-7.5z"/><path d="m318.129 426.512h-62.124c-4.143 0-7.5 3.358-7.5 7.5s3.357 7.5 7.5 7.5h62.124c4.143 0 7.5-3.358 7.5-7.5s-3.357-7.5-7.5-7.5z"/></g></g></svg>