<svg id="Capa_1" enable-background="new 0 0 512.399 512.399" height="512" viewBox="0 0 512.399 512.399" width="512" xmlns="http://www.w3.org/2000/svg"><g><path d="m504.895 256.127c0 137.242-111.256 248.498-248.498 248.498s-248.498-111.256-248.498-248.498 122.15-186.274 259.392-186.274c29.48 0 46.868-57.09 73.105-47.668 95.906 34.44 164.499 126.181 164.499 233.942z" fill="#f59705"/><path d="m39.049 256.127c0 132.009 102.94 239.957 232.923 247.998-5.152.319-10.342.5-15.575.5-137.242 0-248.498-111.256-248.498-248.498s122.15-186.274 259.392-186.274c0 0-228.242 11.246-228.242 186.274z" fill="#ef7f02"/><path d="m209.804 240.596v-154.961l-168.656 92.651v61.781z" fill="#ef7f02"/><path d="m41.148 240.067 168.656.529v-30l-168.656-.529z" fill="#e76401"/><g><path d="m271.928 240.596v-201.358c107.708 7.601 193.756 93.65 201.358 201.358z" fill="#ef7f02"/></g><path d="m301.928 187.138v-143.668c-9.773-2.083-19.789-3.511-30-4.232v201.358h201.358c-.721-10.211-2.15-20.226-4.232-30h-143.667c-12.956 0-23.459-10.503-23.459-23.458z" fill="#e76401"/><g><path d="m240.866 271.658v201.358c-107.708-7.601-193.756-93.65-201.358-201.358z" fill="#ef7f02"/></g><path d="m71.852 271.658h-32.343c7.602 107.708 93.65 193.757 201.358 201.358v-24.232c-86.851-18.505-154.508-88.863-169.015-177.126z" fill="#e76401"/><path d="m256.397 7.629c-137.241 0-248.498 111.257-248.498 248.498 0 4.748.133 9.464.396 14.146 1.659 7.432 8.294 12.988 16.226 12.988 9.182 0 16.626-7.444 16.626-16.626v-27.243c0-9.183 7.444-16.626 16.626-16.626 9.182 0 16.626 7.444 16.626 16.626v15.641c0 9.182 7.444 16.626 16.626 16.626 9.182 0 16.626-7.444 16.626-16.626v-62.55c0-9.182 7.444-16.626 16.626-16.626 9.182 0 16.626 7.444 16.626 16.626v89.482c0 9.182 7.444 16.626 16.626 16.626 9.182 0 16.626-7.444 16.626-16.626v-128.86c0-9.182 7.444-16.626 16.626-16.626 9.182 0 16.626 7.444 16.626 16.626v79.179c0 9.183 7.444 16.626 16.626 16.626 9.182 0 16.626-7.444 16.626-16.626v-112.776c0-9.183 7.444-16.626 16.626-16.626 9.182 0 16.626 7.444 16.626 16.626v4.22c0 9.183 7.444 16.626 16.626 16.626 9.182 0 16.626-7.444 16.626-16.626v-57.42c0-9.182 7.444-16.626 16.626-16.626 9.182 0 16.626-7.444 16.626-16.626v-10.862c-26.237-9.428-54.528-14.565-84.018-14.565z" fill="#eaf6ff"/><g fill="#d8ecfe"><path d="m94.401 255.032v-15.641c0-9.183-7.444-16.626-16.626-16.626-3.759 0-7.215 1.262-10 3.366 4.018 3.035 6.626 7.837 6.626 13.26v15.641c0 9.182 7.444 16.626 16.626 16.626 3.759 0 7.215-1.262 10-3.366-4.018-3.034-6.626-7.836-6.626-13.26z"/><path d="m227.412 232.283v-79.179c0-9.182-7.444-16.626-16.626-16.626-3.759 0-7.215 1.262-10 3.366 4.018 3.035 6.626 7.837 6.626 13.26v79.179c0 9.183 7.444 16.626 16.626 16.626 3.759 0 7.215-1.262 10-3.366-4.018-3.035-6.626-7.837-6.626-13.26z"/><path d="m293.917 123.728v-4.22c0-9.183-7.444-16.626-16.626-16.626-3.759 0-7.215 1.262-10 3.366 4.018 3.035 6.626 7.837 6.626 13.26v4.22c0 9.182 7.444 16.626 16.626 16.626 3.759 0 7.215-1.262 10-3.366-4.018-3.035-6.626-7.837-6.626-13.26z"/><path d="m160.906 281.964v-89.482c0-9.182-7.444-16.626-16.626-16.626-3.759 0-7.215 1.262-10 3.366 4.018 3.035 6.626 7.837 6.626 13.26v89.482c0 9.182 7.444 16.626 16.626 16.626 3.759 0 7.215-1.262 10-3.366-4.017-3.035-6.626-7.837-6.626-13.26z"/></g><g><path d="m38.295 270.273c-.263-4.682-.396-9.398-.396-14.146 0-132.223 103.273-240.308 233.555-248.038-4.982-.298-10-.46-15.057-.46-137.241 0-248.498 111.257-248.498 248.498 0 4.748.133 9.464.396 14.146 1.659 7.432 8.294 12.988 16.226 12.988 6.622 0 12.323-3.881 14.997-9.485-.528-1.108-.949-2.276-1.223-3.503z" fill="#d8ecfe"/></g><g><path d="m271.928 271.658v201.358c107.708-7.601 193.756-93.65 201.358-201.358z" fill="#ef7f02"/></g><path d="m301.928 416.18v-144.522h-30v201.358c61.359-4.33 115.679-34.128 152.48-78.877-26.817 22.054-59.001 37.82-94.302 45.027-14.551 2.972-28.178-8.134-28.178-22.986z" fill="#e76401"/><g><path d="m238.169 73.83c7.176-9.523 11.556-23.198 7.272-42.596 0 0-23.017 5.315-34.583 24.26-2.917-13.093-11.059-26.823-30.669-34.65 0 0-18.179 45.548 24.681 66.121.289 2.292 7.995 5.041 7.995 5.041 36.835 30.691 70.691-5.19 70.691-5.19-15.767-14.877-32.088-16.17-45.387-12.986z" fill="#80d261"/><g><path d="m192.276 47.708c9.244 5.34 15.114 12.258 18.741 19.57 2.159 4.353 7.85 5.388 11.341 2.008 8.549-8.275 18.816-12.422 23.931-14.104 1.251-6.806 1.19-14.723-.848-23.949 0 0-23.017 5.315-34.583 24.26-2.917-13.093-11.059-26.823-30.669-34.65 0 0-8.806 22.079.306 42.436.169-4.074.72-7.772 1.352-10.821.975-4.711 6.262-7.157 10.429-4.75z" fill="#68ca44"/></g><path d="m239.786 166.113c-15.647 24.516-69.967 53.804-101.194 33.874s-27.539-81.532-11.892-106.049c11.735-18.387 36.044-25.075 60.639-18.862 8.198 2.071 16.429 5.576 24.235 10.558 6.783 4.329 12.689 9.418 17.618 14.984 17.763 20.058 22.842 46.304 10.594 65.495z" fill="#ea433f"/><path d="m168.591 199.987c-31.228-19.931-27.538-81.532-11.891-106.049 6.378-9.994 16.475-16.523 28.31-19.412-23.789-5.229-46.945 1.605-58.31 19.412-15.647 24.516-19.336 86.118 11.891 106.049 11.448 7.307 26 7.993 40.612 4.73-3.746-1.071-7.309-2.622-10.612-4.73z" fill="#e32928"/></g><path d="m437.415 75.109c-113.116-113.117-299.812-95.298-390.656 34.057-2.38 3.39-1.562 8.068 1.827 10.448 3.391 2.381 8.068 1.562 10.448-1.827 27.879-39.699 66.688-69.499 110.764-86.5-1.474 9.11-1.819 21.739 3.428 34.1-22.365-1.107-42.156 7.763-52.849 24.516-11.187 17.528-17.329 53.528-9.177 82.315-6.814 4.391-11.047 11.96-11.047 20.264v62.55c0 5.032-4.094 9.126-9.126 9.126s-9.126-4.094-9.126-9.126v-15.641c0-13.303-10.823-24.126-24.126-24.126s-24.126 10.823-24.126 24.126c-.007 14.214.015 26.8-.019 27.622-.034 4.381-3.886 8.748-9.107 8.748-4.736 0-8.64-4.031-8.792-6.987-2.144-41.581 6.015-83.249 25.995-122.288 1.887-3.687.428-8.206-3.259-10.093-3.686-1.886-8.206-.429-10.093 3.259-92.685 181.09 54.239 395.462 259.178 370.597 4.112-.499 7.041-4.237 6.542-8.349-.499-4.111-4.233-7.036-8.349-6.542-133.15 16.158-250.334-78.16-268.017-205.61 5.629 1.679 11.266 1.179 16.123-.865 15.251 104.048 101.189 184.184 206.488 191.615.176.012.353.019.528.019 4.13 0 7.5-3.349 7.5-7.5v-201.359c0-4.142-3.358-7.5-7.5-7.5h-59.207v-16.062h24.181c14.583 16.761 42.325 6.501 42.325-15.813-.18-65.917-.48-65.917-.48-64.812 8.998-16.305 8.151-36.867-1.623-55.571 3.859-.125 7.543-.678 11.018-1.53.071.002.14.011.211.011 2.889 0 5.464 1.354 7.138 3.456v126.759c0 4.142 3.358 7.5 7.5 7.5h88.886c4.142 0 7.5-3.358 7.5-7.5s-3.358-7.5-7.5-7.5h-14.267v-47.31h52.119v47.31h-5.166c-4.142 0-7.5 3.358-7.5 7.5s3.358 7.5 7.5 7.5h79.785c4.344 0 7.788-3.686 7.481-8.028-6.077-86.108-60.84-159.762-138.261-191.803 5.61-6.889 5.148-13.759 5.415-15.212 29.156 11.961 55.931 29.708 78.886 52.663 131.94 131.938 69.554 356.912-109.368 403.613-4.008 1.046-6.409 5.143-5.363 9.151 1.039 3.982 5.117 6.415 9.151 5.363 189.822-49.547 256.484-288.437 116.187-428.734zm-197.5 6.015c11.468-2.746 22.166-.787 31.901 5.821-10.997 7.98-23.78 12.156-37.03 8.679-11.014-12.428-26.104-22.206-42.703-27.02-.981-2.817-11.729-13.291-7.071-37.059 9.831 5.888 16.048 14.462 18.525 25.581.665 2.985 3.076 5.267 6.093 5.768 3.016.499 6.036-.88 7.629-3.491 5.856-9.592 15.438-15.184 22.167-18.123.937 10.991-1.489 20.395-7.247 28.037-4.222 5.603.919 13.443 7.736 11.807zm-106.893 16.849c16.959-26.572 63.83-22.559 90.556 7.618 15.969 18.031 19.941 40.731 9.885 56.486-14.987 23.483-65.137 47.99-90.837 31.587-25.828-16.483-24.475-72.39-9.604-95.691zm100.344 295.614h-52.119v-52.119h52.119zm-67.119 0h-52.119v-52.119h52.119zm-67.119-114.429v47.31h-40.56c-5.414-15.216-9.078-31.085-10.855-47.31zm16.026-31.062h18.252v16.062h-20.05c2.622-6.391 1.55-10.959 1.798-16.062zm-16.026 93.372v52.119h-1.393c-13.637-15.734-24.783-33.312-33.159-52.119zm67.119 67.119v37.152c-19.744-9.397-38.043-21.895-54.158-37.152zm-52.119-82.119v-47.31h19.278c.201 1.239-1.382 10.659 6.337 19.086 6.818 7.443 17.349 9.77 26.504 6.21v22.013h-52.119zm52.531-44.504c0 5.032-4.094 9.126-9.126 9.126s-9.126-4.094-9.126-9.126v-69.688c5.931 1.539 12.01 2.038 18.253 1.745v67.943zm-33.253-76.424v27.556h-18.252c.647-40.805-1.455-41.793 1.908-46.167 3.994 7.441 9.365 13.86 16.344 18.611zm-75.632 24.725c5.032 0 9.126 4.094 9.126 9.126.386 13.201-1.053 17.818 1.798 24.767h-20.05v-24.767c0-5.032 4.094-9.126 9.126-9.126zm123.473 221.91v-43.587h52.119v56.226c-17.942-1.966-35.449-6.244-52.119-12.639zm52.119-173.017v47.31h-52.119s.358-45.269.412-47.31zm-51.707-46.062v-21.225c6.21-1.452 12.343-3.536 18.252-6.064.005 11.771-.016 26.189.021 27.289zm42.379 8.313c-5.081 0-9.126-4.18-9.126-9.126v-34.122c6.718-3.999 12.929-8.524 18.253-13.284v47.406c-.001 5.032-4.095 9.126-9.127 9.126zm122.51-137.742v-37.206c19.911 9.46 38.166 21.998 54.194 37.206zm-22.931-46.477c2.667.9 5.312 1.85 7.931 2.853v43.624h-16.878v-37.359c0-4.972 3.998-9.021 8.947-9.118zm-8.947 66.538v-5.061h16.878v52.119h-52.119v-25.656c3.329 1.736 7.108 2.724 11.115 2.724 13.303 0 24.126-10.823 24.126-24.126zm16.878 109.368h-52.119v-47.31h52.119zm15-62.31v-52.119h52.119v52.119zm67.119 62.31v-47.31h40.603c5.403 15.209 9.044 31.062 10.814 47.31zm34.607-62.31h-34.607v-52.119h1.402c13.796 15.929 24.871 33.412 33.205 52.119zm-115.352-143.256v5.525c0 4.463-3.221 8.178-7.454 8.966l-4.868.379c-11.797 1.569-20.93 11.689-20.93 23.908v57.42c0 5.032-4.094 9.126-9.126 9.126s-9.126-4.094-9.126-9.126c-.295-1.931 1.743-11.939-6.594-20.768 8.499-5.074 13.723-10.503 14.189-10.996 2.841-3.011 2.704-7.76-.308-10.602-11.085-10.459-23.758-16.006-37.252-16.422 3.763-10.387 4.209-22.21 1.313-35.323-.896-4.057-4.934-6.63-9.011-5.69-.853.197-17.147 4.094-30.314 16.608-3.631-7.141-8.792-13.25-15.345-18.215 46.061-11.517 93.005-8.788 134.826 5.21z"/><path d="m480.767 272.186c.305-4.326-3.121-8.028-7.481-8.028h-201.357c-4.142 0-7.5 3.358-7.5 7.5v201.358c0 4.147 3.365 7.5 7.5 7.5.176 0 .352-.006.528-.019 111.631-7.877 200.469-97.205 208.31-208.311zm-201.338 69.282h52.119v52.119h-52.119zm67.119 0h52.119v52.119h-52.119zm0-15v-47.31h52.119v47.31zm68.511 67.119h-1.393v-52.119h34.551c-8.374 18.807-19.521 36.386-33.158 52.119zm-14.354 15c-16.115 15.256-34.413 27.755-54.158 37.151v-37.151zm53.522-82.119h-40.56v-47.31h51.415c-1.777 16.225-5.442 32.094-10.855 47.31zm-122.679-47.31v47.31h-52.119v-47.31zm-52.119 129.429h52.119v43.587c-16.67 6.395-34.177 10.673-52.119 12.638z"/><path d="m155.057 131.957c4.172 0 7.5-3.392 7.5-7.5 0-4.23-3.412-7.502-7.523-7.502-3.988 0-7.477 3.246-7.477 7.502 0 4.135 3.406 7.5 7.5 7.5z"/><path d="m205.327 145.517c4.191 0 7.5-3.428 7.5-7.5 0-3.85-3.012-7.502-7.532-7.502-4.082 0-7.468 3.335-7.468 7.502 0 4.322 3.559 7.5 7.5 7.5z"/><path d="m157.707 170.097c0 4.098 3.352 7.5 7.51 7.5 4.076 0 7.49-3.318 7.49-7.5 0-4.184-3.389-7.502-7.495-7.502-4.123 0-7.505 3.344-7.505 7.502z"/></g></svg>