<svg id="Capa_1" enable-background="new 0 0 512 512" height="512" viewBox="0 0 512 512" width="512" xmlns="http://www.w3.org/2000/svg"><g><g><g><path d="m442.591 504.5h-373.183c-32.8 0-57.362-30.067-50.819-62.207l49.48-243.049c2.721-13.365 14.475-22.968 28.114-22.968h319.632c13.639 0 25.394 9.602 28.115 22.968l49.48 243.049c6.543 32.14-18.019 62.207-50.819 62.207z" fill="#df9874"/><path d="m407.004 199.243 49.48 243.049c6.543 32.139-18.017 62.204-50.815 62.207h36.921c32.8 0 57.362-30.067 50.819-62.207l-49.48-243.049c-2.721-13.365-14.475-22.968-28.114-22.968h-36.925c13.639.001 25.393 9.603 28.114 22.968z" fill="#da8659"/><path d="m152.941 230.644 19.712-122.71c3.03-19.308 12.88-36.94 27.733-49.646 14.855-12.705 33.8-19.702 53.345-19.702h4.871c19.545 0 38.49 6.997 53.344 19.701 14.855 12.708 24.705 30.339 27.737 49.664l19.388 122.694h31.472l-20.152-127.529c-4.176-26.621-17.756-50.932-38.238-68.452-20.481-17.517-46.602-27.164-73.55-27.164h-4.871c-26.948 0-53.069 9.647-73.552 27.165-20.48 17.519-34.06 41.829-38.228 68.395l-20.496 127.584z" fill="#fdb77e"/><g fill="#fba65c"><path d="m161.054 225.822 7.342-45.704c2.196-13.669-7.274-26.112-21.097-26.901-11.759-.672-21.989 7.656-23.834 19.142l-8.296 51.644c-.56 3.483 2.131 6.64 5.659 6.64h34.567c2.815.001 5.213-2.042 5.659-4.821z"/><path d="m356.617 230.644h34.553c3.522 0 6.211-3.147 5.661-6.626l-8.068-51.055c-1.737-10.994-10.95-19.531-22.078-19.778-14.266-.317-25.256 12.339-23.042 26.348l7.312 46.274c.441 2.786 2.842 4.837 5.662 4.837z"/></g><path d="m246.542 305.439c4.742 6.279 14.173 6.279 18.915 0l8.979-11.89c3.133-4.149 4.828-9.206 4.828-14.405v-102.868h-46.531v102.868c0 5.199 1.695 10.257 4.828 14.405z" fill="#fba65c"/><path d="m215.779 248.026v-26.444c0-7.956 6.45-14.406 14.406-14.406h51.629c7.956 0 14.406 6.45 14.406 14.406v26.444c0 7.956-6.45 14.406-14.406 14.406h-51.629c-7.956-.001-14.406-6.45-14.406-14.406z" fill="#fdb77e"/></g><path d="m18.589 442.293c-6.543 32.14 18.019 62.207 50.819 62.207h373.183c32.8 0 57.362-30.067 50.819-62.207l-3.102-15.237h-468.617z" fill="#e7ab8a"/><path d="m493.41 442.293-3.102-15.237h-36.926l3.102 15.237c6.543 32.14-18.019 62.207-50.819 62.207h36.926c32.8 0 57.362-30.067 50.819-62.207z" fill="#df9874"/></g><path d="m500.759 440.797c-1.914-9.401-34.766-170.775-36.771-180.625-.827-4.06-4.787-6.676-8.846-5.854-4.059.826-6.68 4.787-5.854 8.846l31.838 156.392h-380.914c-4.142 0-7.5 3.357-7.5 7.5s3.358 7.5 7.5 7.5h383.968l1.88 9.233c5.597 27.489-15.407 53.211-43.469 53.211h-373.183c-28.029 0-49.072-25.692-43.47-53.211l1.88-9.233h36.062c4.142 0 7.5-3.357 7.5-7.5s-3.358-7.5-7.5-7.5h-33.009l44.547-218.816c2.001-9.829 10.734-16.964 20.765-16.964h17.852l-6.271 39.039c-1.292 8.045 4.928 15.33 13.064 15.33h34.567c6.534 0 12.028-4.682 13.064-11.133l6.945-43.236h49.829v16.465c-9.703 2.25-16.955 10.965-16.955 21.342v26.443c0 10.377 7.253 19.092 16.955 21.342v9.776c0 6.788 2.253 13.51 6.343 18.925l8.979 11.891c3.69 4.887 9.319 7.689 15.442 7.689 6.123 0 11.753-2.803 15.443-7.689l8.979-11.891c4.09-5.416 6.343-12.137 6.343-18.925v-9.776c9.702-2.25 16.954-10.965 16.954-21.342v-26.443c0-10.377-7.252-19.092-16.954-21.342v-16.465h49.956l6.827 43.204c1.023 6.47 6.52 11.165 13.069 11.165h34.553c8.135 0 14.336-7.273 13.069-15.297l-6.174-39.072h17.75c10.031 0 18.764 7.135 20.765 16.964l5.457 26.806c.823 4.042 4.766 6.682 8.846 5.854 4.059-.826 6.68-4.787 5.854-8.846l-5.457-26.806c-3.418-16.787-18.332-28.972-35.464-28.972h-20.271c-1.617-6.246-5.054-11.666-9.664-15.682l-8.081-51.14c-9.193-58.612-59.734-101.954-119.194-101.954h-4.872c-59.452 0-110.005 43.363-119.185 101.87l-8.192 50.994c-4.747 4.027-8.259 9.524-9.811 15.912h-20.36c-17.131 0-32.045 12.185-35.463 28.972-3.777 18.555-47.525 233.446-49.48 243.05-7.483 36.751 20.589 71.202 58.168 71.202h373.183c37.507 0 65.664-34.38 58.168-71.203zm-228.994-161.653c0 3.546-1.177 7.057-3.313 9.886l-8.979 11.891c-1.136 1.504-2.664 1.729-3.473 1.729s-2.336-.225-3.473-1.729l-8.979-11.892c-2.136-2.828-3.313-6.339-3.313-9.885v-9.212h31.531v9.212zm16.954-57.562v26.443c0 3.809-3.098 6.906-6.905 6.906h-51.629c-3.808 0-6.906-3.098-6.906-6.906v-26.443c0-3.809 3.098-6.906 6.906-6.906h51.629c3.807 0 6.905 3.097 6.905 6.906zm-48.485-21.906v-15.9h31.531v15.9zm96.491-30.901h-161.408c-.728-2.996-1.895-5.869-3.473-8.512l8.219-51.165c5.684-36.223 36.921-63.012 73.669-63.012h4.872c36.66 0 67.971 26.694 73.672 63.035l8.06 51.01c-1.655 2.691-2.869 5.607-3.611 8.644zm44.631 5.359c2.263 14.322 5.482 34.697 7.744 49.011h-30.972l-7.076-44.782c-1.475-9.326 5.831-17.91 15.467-17.68 7.472.166 13.646 5.909 14.837 13.451zm-231.995-69.912c8.026-51.152 52.198-89.222 104.37-89.222h4.872c51.947 0 96.307 37.831 104.38 89.286l6.571 41.583c-.89-.101-1.791-.162-2.7-.182-4.617-.103-9.11.834-13.19 2.681l-6.571-41.58c-6.825-43.513-44.331-75.702-88.489-75.702h-4.872c-44.176 0-81.667 32.221-88.484 75.659l-6.685 41.615c-3.346-1.513-6.999-2.411-10.835-2.63-1.713-.097-3.401-.052-5.055.127zm-18.49 69.327c1.24-7.72 8.082-13.294 16-12.845 9.488.544 15.592 9.059 14.12 18.225l-7.103 44.216h-30.985c2.266-14.105 5.57-34.668 7.968-49.596z"/></g></svg>