<svg id="Capa_1" enable-background="new 0 0 512 512" height="512" viewBox="0 0 512 512" width="512" xmlns="http://www.w3.org/2000/svg"><g><g><circle cx="256" cy="68.11" fill="#f1d59d" r="60.61"/></g><g><path d="m256 128.72c33.474 0 60.61-27.136 60.61-60.61 0-7.282-1.287-14.263-3.641-20.731-18.338-4.976-37.455-7.554-56.969-7.554s-38.63 2.578-56.969 7.554c-2.354 6.468-3.641 13.449-3.641 20.731 0 33.474 27.136 60.61 60.61 60.61z" fill="#efcb84"/></g><g><path d="m449.951 256c0-107.116-86.835-193.951-193.951-193.951s-193.951 86.835-193.951 193.951v161.626h387.902z" fill="#c1a098"/></g><g><path d="m256 62.049c-5.444 0-10.832.236-16.163.676 99.553 8.214 177.789 91.603 177.789 193.275v161.626h32.325v-161.626c0-107.116-86.835-193.951-193.951-193.951z" fill="#b48e84"/></g><g><path d="m449.951 504.5h-387.902c-8.926 0-16.163-7.236-16.163-16.163v-54.549c0-8.926 7.236-16.163 16.163-16.163h387.902c8.926 0 16.163 7.236 16.163 16.163v54.549c0 8.927-7.237 16.163-16.163 16.163z" fill="#f1d59d"/></g><g><path d="m449.951 417.626h-48.488c8.926 0 16.163 7.236 16.163 16.163v54.549c0 8.926-7.236 16.163-16.163 16.163h48.488c8.926 0 16.163-7.236 16.163-16.163v-54.549c0-8.927-7.237-16.163-16.163-16.163z" fill="#efcb84"/></g><g><path d="m62.049 352.976h387.902v64.65h-387.902z" fill="#a77d73"/></g><g><path d="m62.049 288.325h387.902v32.325h-387.902z" fill="#a77d73"/></g><g><path d="m64.745 223.675c-1.764 10.514-2.697 21.31-2.697 32.325h387.902c0-11.015-.933-21.811-2.697-32.325z" fill="#a77d73"/></g><g><path d="m417.626 352.976h32.325v64.65h-32.325z" fill="#98695e"/></g><g><path d="m417.626 288.325h32.325v32.325h-32.325z" fill="#98695e"/></g><g><path d="m447.254 223.675h-32.325c1.764 10.514 2.697 21.31 2.697 32.325h32.325c0-11.015-.933-21.811-2.697-32.325z" fill="#98695e"/></g><g><path d="m457.451 411.351v-155.351c0-39.253-11.298-77.299-32.672-110.023-2.266-3.467-6.912-4.443-10.381-2.178-3.468 2.265-4.442 6.913-2.178 10.381 12.431 19.032 21.176 40.013 25.959 61.995h-364.335c18.293-83.738 93.012-146.626 182.156-146.626 51.656 0 99.694 20.643 135.266 58.125 2.851 3.005 7.598 3.129 10.604.277 3.004-2.851 3.129-7.598.277-10.603-18.628-19.628-40.584-35.072-65.26-45.902-4.228-1.856-8.506-3.545-12.822-5.097-.94-36.742-31.1-66.349-68.065-66.349-36.98 0-67.15 29.631-68.066 66.395-77.687 27.973-133.385 102.402-133.385 189.605v155.351c-9.381 3.144-16.163 12.011-16.163 22.437v54.549c0 13.047 10.615 23.663 23.663 23.663h310.715c4.143 0 7.5-3.358 7.5-7.5s-3.357-7.5-7.5-7.5h-310.715c-4.776 0-8.663-3.886-8.663-8.663v-54.549c0-4.776 3.886-8.663 8.663-8.663h47.025c4.142 0 7.5-3.358 7.5-7.5s-3.358-7.5-7.5-7.5h-39.525v-49.65h372.902v49.65h-298.127c-4.142 0-7.5 3.358-7.5 7.5s3.358 7.5 7.5 7.5h305.627c4.776 0 8.663 3.886 8.663 8.663v54.549c0 4.776-3.887 8.663-8.663 8.663h-42.165c-4.143 0-7.5 3.358-7.5 7.5s3.357 7.5 7.5 7.5h42.165c13.048 0 23.663-10.615 23.663-23.663v-54.549c0-10.426-6.781-19.292-16.163-22.437zm-201.451-396.351c27.047 0 49.421 20.329 52.684 46.507-17.058-4.617-34.684-6.958-52.684-6.958-18.226 0-35.888 2.447-52.691 7.005 3.242-26.201 25.627-46.554 52.691-46.554zm186.451 265.825h-372.902v-17.325h372.902zm-372.902 15h372.902v17.325h-372.902zm371.252-64.65c.763 5.729 1.265 11.509 1.496 17.325h-372.585c.233-5.847.731-11.627 1.493-17.325zm-371.252 114.301v-17.326h372.902v17.325h-372.902z"/><path d="m248.5 453.487v15.152c0 4.142 3.358 7.5 7.5 7.5 4.143 0 7.5-3.358 7.5-7.5v-15.152c0-4.142-3.357-7.5-7.5-7.5-4.142 0-7.5 3.358-7.5 7.5z"/><path d="m280.825 453.487v15.152c0 4.142 3.357 7.5 7.5 7.5s7.5-3.358 7.5-7.5v-15.152c0-4.142-3.357-7.5-7.5-7.5s-7.5 3.358-7.5 7.5z"/><path d="m313.15 453.487v15.152c0 4.142 3.357 7.5 7.5 7.5s7.5-3.358 7.5-7.5v-15.152c0-4.142-3.357-7.5-7.5-7.5s-7.5 3.358-7.5 7.5z"/><path d="m345.475 453.487v15.152c0 4.142 3.357 7.5 7.5 7.5s7.5-3.358 7.5-7.5v-15.152c0-4.142-3.357-7.5-7.5-7.5s-7.5 3.358-7.5 7.5z"/><path d="m385.301 445.987c-4.143 0-7.5 3.358-7.5 7.5v15.152c0 4.142 3.357 7.5 7.5 7.5s7.5-3.358 7.5-7.5v-15.152c0-4.142-3.358-7.5-7.5-7.5z"/><path d="m425.126 468.639v-15.152c0-4.142-3.357-7.5-7.5-7.5s-7.5 3.358-7.5 7.5v15.152c0 4.142 3.357 7.5 7.5 7.5s7.5-3.358 7.5-7.5z"/><path d="m216.175 453.487v15.152c0 4.142 3.358 7.5 7.5 7.5s7.5-3.358 7.5-7.5v-15.152c0-4.142-3.358-7.5-7.5-7.5s-7.5 3.358-7.5 7.5z"/><path d="m183.849 453.487v15.152c0 4.142 3.358 7.5 7.5 7.5s7.5-3.358 7.5-7.5v-15.152c0-4.142-3.358-7.5-7.5-7.5s-7.5 3.358-7.5 7.5z"/><path d="m151.524 453.487v15.152c0 4.142 3.358 7.5 7.5 7.5s7.5-3.358 7.5-7.5v-15.152c0-4.142-3.358-7.5-7.5-7.5s-7.5 3.358-7.5 7.5z"/><path d="m119.199 453.487v15.152c0 4.142 3.358 7.5 7.5 7.5s7.5-3.358 7.5-7.5v-15.152c0-4.142-3.358-7.5-7.5-7.5s-7.5 3.358-7.5 7.5z"/><path d="m86.874 453.487v15.152c0 4.142 3.358 7.5 7.5 7.5s7.5-3.358 7.5-7.5v-15.152c0-4.142-3.358-7.5-7.5-7.5s-7.5 3.358-7.5 7.5z"/></g></g></svg>