<svg id="Capa_1" enable-background="new 0 0 512 512" height="512" viewBox="0 0 512 512" width="512" xmlns="http://www.w3.org/2000/svg"><g><g><g><path d="m455.919 308.632c-104.301-19.363-190.099-93.382-224.544-193.718l-7.761-22.606h-168.357c-7.4 0-13.517 5.853-13.746 13.25-1.084 34.948-5.557 69.721-13.383 103.826-9.075 39.55-13.656 79.998-13.656 120.576v41.102l317.412 32.046 152.58-14.089c11.348-1.048 20.03-10.568 20.03-21.964-.001-28.635-20.422-53.196-48.575-58.423z" fill="#e7ab8a"/><path d="m455.919 308.632c-104.301-19.363-190.099-93.382-224.544-193.718l-7.761-22.606h-23.012l5.748 26.504c30.524 101.597 113.384 178.891 216.855 202.289 27.247 6.161 46.416 30.427 46.304 58.176l.047-.007-.434 11.165 15.341-1.417c11.348-1.048 20.03-10.568 20.03-21.964 0-28.634-20.421-53.195-48.574-58.422z" fill="#df9874"/><path d="m28.127 209.383c-9.075 39.55-13.656 79.998-13.656 120.576v41.102l202.549 20.45 2.022-10.396c8.855-45.537 48.288-78.72 94.668-79.663l15.263-.31c7.594-.154 13.669-6.354 13.669-13.95v-31.188c0-4.33-2.029-8.402-5.468-11.033-43.779-33.486-77.701-79.545-96.176-133.36l-3.437-10.013c-1.908-5.558-7.135-9.29-13.011-9.29h-169.293c-7.4 0-13.517 5.853-13.746 13.25-1.084 34.947-5.558 69.72-13.384 103.825z" fill="#df9874"/><path d="m113.589 252.078-4.516-1.586c-24.665-8.663-45.255-26.139-57.812-49.067l-15.982-29.182-.001.001c-1.949 12.451-4.328 24.839-7.15 37.14-9.075 39.55-13.656 79.998-13.656 120.576v41.102l169.952 17.159v-36.188c-.001-44.977-28.4-85.051-70.835-99.955z" fill="#ecb9a1"/><g><path d="m335.055 296.519c.017.012 1.139.648 2.514 1.428 3.099-2.561 5.073-6.429 5.073-10.755v-31.188c0-4.33-2.029-8.402-5.468-11.033-43.779-33.486-77.701-79.545-96.176-133.36l-3.437-10.013c-1.908-5.558-7.135-9.29-13.011-9.29h-32.314l7.08 20.625c25.693 74.842 73.747 138.456 135.739 183.586z" fill="#da8659"/></g><g><path d="m353.347 385.928c-28.75 0-57.583-3.058-85.693-9.09l-3.585-.769c-36.664-7.868-83.244-20.156-114.521-28.694-23.482-6.41-47.708-9.654-72.049-9.654h-57.19c-7.074 0-12.809 5.735-12.809 12.809v51.33c0 9.849 7.984 17.833 17.833 17.833h141.153c6.179 0 11.188-5.009 11.188-11.188v-8.131c0-3.415 3.082-6.014 6.446-5.426 24.196 4.23 48.288 8.915 72.167 14.039l3.586.769c30.665 6.58 62.114 9.916 93.473 9.916 26.611 0 53.382-2.41 79.569-7.163l55.773-10.124c9.152-1.661 15.805-9.631 15.805-18.932v-18.495l-78.199 14.402c-24.007 4.359-48.55 6.568-72.947 6.568z" fill="#da8659"/></g><g><path d="m469.029 371.49c.327 2.556.491 5.156.48 7.787l.047-.007-.718 18.481c-.122 3.142-1.013 6.093-2.475 8.686l22.325-4.052c9.152-1.661 15.805-9.631 15.805-18.932v-18.495z" fill="#d57e4b"/></g></g><g><path d="m199.315 112.933-7.08-20.625h-136.978c-7.4 0-13.517 5.853-13.746 13.25-.245 7.887-.671 15.765-1.261 23.629h165.082c-2.119-5.359-4.135-10.773-6.017-16.254z" fill="#e7ab8a"/></g></g><path d="m511.904 363.812c-1.499-30.992-24.156-56.899-54.615-62.554-38.582-7.163-74.609-21.839-107.147-43.641v-1.613c0-6.609-3.144-12.961-8.412-16.99-14.505-11.094-22.305-19.156-23.274-19.909-17.438-16.657-27.736-30.937-28.51-31.793-13.038-17.026-19.356-29.206-20.148-30.266-10.068-17.537-14.539-29.599-17.303-35.938-3.438-8.696-5.151-14.24-7.84-21.946-2.948-8.586-11.028-14.354-20.105-14.354-17.915 0-148.972 0-169.292 0-11.556 0-20.886 9.012-21.243 20.516-.238 7.666-.646 15.358-1.221 23.049-.017.157-.029.315-.036.474-1.965 25.98-5.877 52.432-11.94 78.857-15.443 67.305-13.711 124.959-13.847 127.523-4.269 3.726-6.971 9.204-6.971 15.302v51.33c0 13.969 11.364 25.333 25.333 25.333h141.153c10.305 0 18.688-8.384 18.688-18.688v-5.757c75.241 13.248 104.278 24.424 168.173 24.424 58.899 0 95.212-10.821 136.682-17.406 12.727-2.311 21.965-13.377 21.965-26.312-.031-19.002.077-18.566-.09-19.641zm-281.437-259.78c3.036 8.808 3.762 11.069 5.374 15.479l-5.227 1.771c-3.924 1.329-6.026 5.587-4.697 9.51 1.06 3.126 3.977 5.096 7.102 5.096.798 0 1.61-.128 2.407-.398l5.931-2.009c3.689 8.682 7.787 17.155 12.275 25.393l-5.109 3.048c-3.558 2.122-4.721 6.726-2.598 10.283s6.727 4.72 10.283 2.598l4.937-2.946c4.034 6.571 8.327 12.975 12.869 19.201l-4.702 3.777c-3.229 2.594-3.744 7.314-1.149 10.544 2.602 3.239 7.324 3.735 10.544 1.149l4.461-3.584c6.249 7.695 12.901 15.08 19.937 22.129l-3.999 3.916c-2.959 2.898-3.009 7.646-.11 10.606 2.897 2.958 7.646 3.009 10.606.11l4.375-4.285c5.974 5.401 12.19 10.575 18.638 15.507 1.581 1.21 2.525 3.107 2.525 5.076v31.188c0 .022 0 .043-.001.065-55.267-41.439-97.353-96.494-122.635-160.264-1.123-3.676 2.797 8.783-9.767-27.185h21.81c2.674.001 5.052 1.699 5.92 4.225zm-175.21-4.224h131.623c4.983 14.471 5.677 16.65 7.572 21.879h-92.842c-4.143 0-7.5 3.357-7.5 7.5s3.357 7.5 7.5 7.5h98.631c25.35 61.855 66.002 115.643 118.845 157.155l-5.528.112c-41.942.853-78.806 26.251-95.044 63.743-8.941-2.227-17.893-4.514-26.597-6.779-.467-47.633-30.826-90.105-75.843-105.915l-4.516-1.586c-47.919-16.831-58.374-58.234-68.48-72.548 1.717-11.32 3.082-22.741 4.088-34.182h18.772c4.143 0 7.5-3.357 7.5-7.5s-3.357-7.5-7.5-7.5h-17.659c.32-5.305.563-10.607.727-15.897.103-3.299 2.906-5.982 6.251-5.982zm-19.82 111.252c1.25-5.447 2.424-10.957 3.515-16.5 3.372 4.398 18.349 45.698 67.637 63.008l4.516 1.586c37.76 13.262 63.636 48.142 65.687 87.788-9.002-2.389-17.535-4.692-25.269-6.803-52.614-14.363-87.425-8.586-129.551-9.919.464-8.242-1.162-55.41 13.465-119.16zm461.556 172.393c0 5.68-4.056 10.539-9.644 11.553-42.411 6.751-77.129 17.166-134.002 17.166-62.19 0-91.95-11.332-167.935-24.612-7.949-1.393-15.237 4.742-15.237 12.813v8.131c0 2.034-1.654 3.688-3.688 3.688h-141.154c-5.697 0-10.333-4.636-10.333-10.333v-51.33c0-2.932 2.387-5.309 5.309-5.309 43.642 1.32 77.071-4.312 127.264 9.39 34.696 9.47 79.604 21.213 114.922 28.792 2.94.479 40.212 10.026 90.852 10.026 11.137 0 22.442-.459 33.602-1.363 4.128-.335 7.204-3.953 6.869-8.082-.335-4.128-3.922-7.201-8.082-6.869-10.758.872-21.655 1.314-32.389 1.314-47.442 0-85.964-9.409-87.706-9.692-10.176-2.184-21.122-4.71-32.314-7.408 14.26-30.536 45.025-51.655 80.535-52.379 10.378-.867 21.985 1.817 29.179-5.873 4.353-3.943 7.101-9.626 7.101-15.885v-11.713c32.021 19.983 67.078 33.597 104.409 40.528 21.603 4.011 38.318 21.528 41.774 42.831l-71.367 13.144c-1.455.264-2.912.521-4.371.769-4.084.695-6.83 4.569-6.135 8.652.696 4.083 4.574 6.83 8.652 6.135 1.512-.258 3.021-.522 4.55-.8l69.34-12.77v9.486z"/></g></svg>