<svg id="Capa_1" enable-background="new 0 0 512 512" height="512" viewBox="0 0 512 512" width="512" xmlns="http://www.w3.org/2000/svg"><g><g><path d="m466.721 98.335c-1.458-13.633-12.962-23.973-26.673-23.973h-184.048-184.048c-13.711 0-25.215 10.339-26.673 23.973l-8.301 77.617h219.022 219.023z" fill="#dcf5ff"/><g><path d="m499.236 266.847c-7.499-74.168-30.326-148.043-30.326-148.043-1.84-16.682-.951-9.106-2.189-20.468-.905-8.309-5.515-15.392-12.095-19.659-63.262 27.91-130.944 41.865-198.627 41.865s-135.364-13.956-198.626-41.866c-6.58 4.267-11.19 11.35-12.095 19.659-1.238 11.362-.349 3.786-2.189 20.468 0 0-22.826 73.875-30.326 148.043-4.714 46.626-5.506 85.633-5.211 116.54.152 15.936 11.896 29.38 27.66 31.716l149.466 22.14c20.656 3.06 39.614-11.974 41.307-32.787 1.067-13.125 1.687-22.846 1.687-22.846 1.553-14.52 13.624-25.942 28.227-25.993.034 0 .067.002.101.002s.067-.002.101-.002c14.603.051 26.674 11.473 28.227 25.993 0 0 .618 9.694 1.682 22.79 1.693 20.835 20.633 35.906 41.311 32.843l149.466-22.14c15.764-2.335 27.508-15.78 27.66-31.716.296-30.906-.496-69.913-5.211-116.539z" fill="#f0f0f3"/></g><path d="m193.825 116.594-3.063 191.01c-.523 20.858 7.106 41.099 21.268 56.422l15.705 16.993h.014c1.813-14.237 13.747-25.352 28.15-25.403.034 0 .067.002.101.002s.067-.002.101-.002c14.403.05 26.336 11.166 28.15 25.403h.014l15.705-16.993c14.162-15.323 21.791-35.564 21.268-56.422l-3.365-190.973c-20.54 2.602-41.206 3.91-61.872 3.91-20.769 0-41.536-1.32-62.176-3.947z" fill="#e0dde2"/><g><path d="m466.721 98.335c-.889-8.311-5.515-15.392-12.095-19.659-63.262 27.91-130.944 41.865-198.626 41.865s-135.364-13.955-198.626-41.865c-6.58 4.267-11.206 11.348-12.095 19.659l-2.189 20.468c68.042 28.786 140.476 43.179 212.911 43.179s144.869-14.393 212.911-43.179z" fill="#97e4f9"/></g><g><path d="m499.236 266.847c-7.499-74.168-30.326-148.043-30.326-148.043-1.84-16.682-.951-9.106-2.189-20.468-.905-8.309-5.515-15.392-12.095-19.659-9.851 4.346-19.809 8.353-29.858 12.022 3.449 4.001 5.75 9.043 6.361 14.648 1.238 11.362.349 3.786 2.189 20.468 0 0 22.827 73.875 30.326 148.043 4.714 46.626 5.506 85.633 5.212 116.54-.117 12.306-7.151 23.121-17.608 28.488l25.539-3.783c15.764-2.335 27.508-15.78 27.66-31.716.295-30.907-.496-69.914-5.211-116.54z" fill="#e0dde2"/></g><path d="m466.721 98.335c-.889-8.311-5.515-15.392-12.095-19.659-9.85 4.346-19.808 8.353-29.856 12.022h-.001c3.449 4.001 5.75 9.043 6.361 14.648 1.238 11.362.349 3.786 2.189 20.468 0 0 .654 2.118 1.774 5.984 11.377-3.947 22.658-8.273 33.818-12.995z" fill="#62d8f9"/></g><path d="m506.698 266.092c-7.1-70.223-28.062-141.025-30.408-148.803-2.243-20.336-1.303-34.348-17.582-44.906-.003-.002-.006-.004-.009-.006-5.568-3.608-12.017-5.515-18.651-5.515h-368.096c-6.551 0-12.967 1.859-18.634 5.504-.031.02-.064.042-.098.064-16.393 10.688-15.4 25.718-17.51 44.858-2.347 7.777-23.309 78.579-30.408 148.803-3.916 38.732-5.633 77.123-5.249 117.365.188 19.739 14.513 36.168 34.062 39.063l149.466 22.14c24.797 3.678 47.828-14.361 49.88-39.598.983-12.089 1.597-21.428 1.686-22.802.008-.072.017-.145.026-.217.006-.044.012-.089.017-.133 3.214-24.865 38.374-25.251 41.624.014.004.036.009.071.014.107.009.076.019.153.027.23.089 1.373.7 10.685 1.681 22.746 2.042 25.115 24.93 43.351 49.885 39.654l149.466-22.14c19.549-2.896 33.874-19.324 34.062-39.063.382-40.242-1.335-78.633-5.251-117.365zm-79.641-184.229c-54.727 20.701-112.146 31.178-171.057 31.178s-116.329-10.477-171.057-31.178zm-208.548 321.984c-1.343 16.526-16.358 28.399-32.732 25.976l-149.466-22.14c-12.201-1.807-21.143-12.055-21.259-24.368-.379-39.685 1.313-77.536 5.173-115.714 5.927-58.622 21.743-117.763 27.71-138.674 9.618 3.897 19.4 7.545 29.176 10.882.803.274 1.619.404 2.423.404 3.119 0 6.033-1.962 7.097-5.08 1.338-3.92-.755-8.183-4.676-9.521-10.329-3.525-20.665-7.409-30.798-11.571 1.578-14.462.947-20.509 7.322-26.701 62.713 27.009 129.145 40.701 197.521 40.701s134.808-13.693 197.521-40.701c6.427 6.244 5.767 12.451 7.322 26.702-113.536 46.68-235.225 51.638-345.754 21.699-3.999-1.081-8.117 1.28-9.2 5.278s1.28 8.117 5.278 9.2c24.444 6.621 49.3 11.551 74.382 14.765l-2.283 142.431c-.575 22.937 7.685 44.849 23.258 61.7l13.493 14.6c-.254 3.729-.778 11.161-1.508 20.132zm278.438-20.532c-.116 12.313-9.058 22.561-21.259 24.368l-149.466 22.14c-16.4 2.429-31.393-9.487-32.737-26.031-.728-8.946-1.249-16.355-1.502-20.075l13.493-14.6c15.573-16.851 23.833-38.763 23.259-61.644l-.251-14.266c-.073-4.142-3.495-7.421-7.631-7.367-4.142.073-7.44 3.489-7.367 7.631l.252 14.322c.478 19.013-6.369 37.176-19.277 51.143l-7.148 7.735c-13.776-24.734-48.835-24.743-62.625.001l-7.149-7.736c-12.908-13.968-19.755-32.131-19.277-51.211l2.261-141.026c36.916 3.715 74.144 3.693 110.731.057l1.613 91.535c.072 4.096 3.416 7.368 7.496 7.368.045 0 .09 0 .135-.001 4.142-.073 7.44-3.49 7.367-7.631l-1.638-92.966c47.204-5.998 93.331-18.078 137.839-36.131 5.967 20.903 21.777 80.011 27.708 138.673 3.86 38.176 5.552 76.026 5.173 115.712z"/></g></svg>