<svg id="Capa_1" enable-background="new 0 0 512.249 512.249" height="512" viewBox="0 0 512.249 512.249" width="512" xmlns="http://www.w3.org/2000/svg"><g><g><path d="m256.124 379.001h-228.162s30.201 49.358 44.164 79.265c3.263 6.988 10.309 11.425 18.021 11.425h165.977 165.978c7.712 0 14.759-4.438 18.021-11.426 13.963-29.906 44.164-79.265 44.164-79.265h-228.163z" fill="#fe93bb"/></g><g><path d="m484.284 379.004s-30.2 49.36-44.16 79.26c-3.26 6.99-10.31 11.43-18.02 11.43h-22.67c7.71 0 14.76-4.44 18.02-11.43 13.97-29.9 44.17-79.26 44.17-79.26z" fill="#fe76a8"/></g><g><g><path d="m80.432 208.618h-33.63v-154.354c0-6.465 5.241-11.707 11.707-11.707h10.217c6.465 0 11.707 5.241 11.707 11.707v154.354z" fill="#fe93bb"/></g><g><path d="m465.445 208.618h-33.63v-154.354c0-6.465 5.241-11.707 11.707-11.707h10.217c6.465 0 11.707 5.241 11.707 11.707v154.354z" fill="#fe93bb"/></g><g><path d="m80.43 54.264v154.35h-18.66v-154.35c0-4.98-3.11-9.22-7.48-10.92 1.31-.51 2.73-.79 4.22-.79h10.22c6.46 0 11.7 5.24 11.7 11.71z" fill="#fe76a8"/></g><g><path d="m465.447 54.264v154.35h-18.67v-154.35c0-4.98-3.1-9.23-7.48-10.92 1.31-.51 2.73-.79 4.22-.79h10.22c6.47 0 11.71 5.24 11.71 11.71z" fill="#fe76a8"/></g></g><g><path d="m466.126 202.091c-21.832-.771-43.61-1.309-64.407 6.473-27.776 10.394-52.253 24.006-73.051 45.362-11.208 11.509-21.799 26.622-29.064 40.966-8.238 16.264-13.111 33.333-17.022 50.808-2.767 12.363-13.789 21.12-26.458 21.12-12.668 0-23.691-8.757-26.457-21.12-3.911-17.475-8.784-34.544-17.022-50.808-7.265-14.344-17.856-29.457-29.064-40.966-27.858-28.607-68.173-49.914-108.021-52.332-5.655-.343-29.437.497-29.437.497-70.592 106.139-27.855 170.897-1.422 197.051 9.011 8.916 20.679 14.627 33.243 16.317 25.751 3.464 52.055 2.844 77.748-.694 27.512-3.789 61.132-7.874 90.698-9.75 6.487-.412 12.982-.412 19.469 0 29.566 1.876 63.187 5.961 90.698 9.75 25.693 3.539 51.997 4.159 77.748.694 12.564-1.69 24.231-7.401 33.243-16.317 26.432-26.155 69.17-90.913-1.422-197.051z" fill="#fe5694"/></g><g><path d="m467.544 399.144c-9.01 8.91-20.68 14.62-33.24 16.31-7.3.98-14.64 1.64-22 1.99 12.83-2.13 24.73-9.29 33.94-20.46 22.7-27.55 57.16-89.25 24.87-187.15 63.51 101.55 22.22 163.79-3.57 189.31z" fill="#fd3581"/></g><path d="m472.945 198.816v-144.552c0-10.59-8.616-19.207-19.207-19.207h-10.217c-10.59 0-19.207 8.616-19.207 19.207v141.22c-8.409 1.074-16.878 2.932-25.226 6.056-32.069 12.001-56.154 26.984-75.795 47.154-11.52 11.829-22.593 27.433-30.382 42.81-9.348 18.457-14.343 37.784-17.649 52.559-1.979 8.841-10.027 15.257-19.139 15.257-9.111 0-17.16-6.417-19.139-15.258-3.307-14.775-8.301-34.102-17.65-52.559-7.788-15.376-18.862-30.979-30.381-42.809-27.86-28.61-64.876-47.997-101.023-53.333v-31.57c0-4.142-3.358-7.5-7.5-7.5s-7.5 3.358-7.5 7.5v30.231c-4.832-.047-12.606.134-18.63.306v-140.064c0-2.319 1.887-4.207 4.207-4.207h10.217c2.319 0 4.207 1.887 4.207 4.207v74.86c0 4.142 3.358 7.5 7.5 7.5s7.5-3.358 7.5-7.5v-74.86c0-10.59-8.616-19.207-19.207-19.207h-10.216c-10.59 0-19.207 8.616-19.207 19.207v144.555c-31.417 47.552-44.101 92.282-37.681 132.96 1.53 9.697 4.174 19.211 7.888 28.299 4.407 10.782 10.406 19.956 16.31 29.837 6.246 10.451 12.389 20.964 18.385 31.56 7.415 13.104 14.753 26.314 21.127 39.963 4.468 9.569 14.209 15.752 24.817 15.752h211.645c4.142 0 7.5-3.358 7.5-7.5s-3.358-7.5-7.5-7.5h-211.645c-4.806 0-9.212-2.786-11.226-7.098-5.129-10.985-12.325-24.403-19.442-37.092 5.552 2.414 11.435 4.079 17.465 4.891 11.729 1.578 23.84 2.366 36.263 2.366 14.139 0 28.682-1.022 43.508-3.064 35.506-4.89 65.836-8.151 90.15-9.694 6.144-.39 12.375-.39 18.519 0 24.313 1.543 54.644 4.805 90.15 9.694 27.854 3.837 54.694 4.072 79.771.698 6.029-.811 11.912-2.477 17.463-4.89-7.117 12.688-14.312 26.106-19.44 37.091-2.013 4.312-6.419 7.098-11.226 7.098h-85.644c-4.142 0-7.5 3.358-7.5 7.5s3.358 7.5 7.5 7.5h85.644c10.608 0 20.349-6.183 24.817-15.752 1.706-3.655 3.499-7.269 5.333-10.86 6.964-13.635 14.403-27.023 22.096-40.259 7.168-12.332 15.085-24.34 21.952-36.784 2.192-3.973 4.177-8.06 5.937-12.242 3.978-9.453 6.793-19.383 8.392-29.514 6.42-40.678-6.264-85.41-37.684-132.963zm-33.63-144.552c0-2.319 1.887-4.207 4.207-4.207h10.217c2.319 0 4.207 1.887 4.207 4.207v140.056c-6.056-.168-12.293-.236-18.63-.012v-140.044zm56.497 275.177c-4.819 30.541-20.899 51.861-33.54 64.369-7.783 7.701-18.071 12.75-28.968 14.216-23.735 3.193-49.213 2.959-75.725-.691-35.869-4.94-66.568-8.239-91.247-9.805-3.387-.215-6.798-.322-10.209-.322s-6.822.107-10.209.322c-24.678 1.566-55.378 4.865-91.247 9.805-26.511 3.652-51.988 3.885-75.724.691-10.896-1.466-21.185-6.515-28.968-14.215-12.641-12.508-28.721-33.828-33.54-64.369-5.713-36.205 5.666-76.558 33.822-119.984 7.985-.252 21.195-.599 24.848-.377 36.16 2.194 74.702 20.915 103.102 50.078 10.503 10.786 20.617 25.045 27.747 39.122 8.548 16.876 13.083 34.27 16.394 49.057 3.555 15.887 17.444 26.982 33.776 26.982s30.221-11.095 33.776-26.981c3.31-14.788 7.846-32.181 16.393-49.057 7.131-14.078 17.244-28.337 27.747-39.123 18.042-18.528 40.383-32.373 70.306-43.57 18.649-6.979 39.143-6.756 57.641-6.137 28.16 43.429 39.539 83.782 33.825 119.989z"/></g></svg>