<svg id="Layer_1" enable-background="new 0 0 511.977 511.977" height="512" viewBox="0 0 511.977 511.977" width="512" xmlns="http://www.w3.org/2000/svg"><g><g><g><path d="m11.963 407.409c10.602 7.588 37.866 9.106 60.586-6.83s29.536-40.977 29.536-40.977l-3.787-18.591-67.288 33.559z" fill="#626a70"/><path d="m293.51 69.555s152.75-3.738 194.807 94.268c12.059 28.102 18.933 114.584 15.146 173.773 0 0-25.929 15.978-78.004 3.415z" fill="#97e3fc"/><path d="m98.297 312.554c-120.414 94.855-86.335 94.855-86.335 94.855 10.224-16.694 54.527-45.53 90.121-47.807 87.83-5.617 142.816 87.381 216.927 82.801 71.333-4.408 106.449-101.393 106.449-101.393l-185.449-92.942z" fill="#83888c"/><g><path d="m386.287 331.403s-31.245 92.627-93.274 108.749c8.45 1.931 17.084 2.803 25.997 2.252 71.333-4.408 106.449-101.393 106.449-101.393z" fill="#7d8387"/></g><path d="m98.297 312.554s1.136-149.111 46.575-193.503 104.209-51.847 163.581-48.945c60.557 2.96 124.958 36.424 126.094 96.752s-9.088 174.153-9.088 174.153-141.998-37.562-230.604-39.839c-65.904-1.693-96.558 11.382-96.558 11.382z" fill="#fff345"/><g><path d="m434.547 166.858c-1.136-60.328-65.537-93.791-126.094-96.752-13.634-.666-27.233-.776-40.649-.028.216.01.432.018.649.028 60.557 2.96 124.958 36.424 126.094 96.752.937 49.749-5.851 135.869-8.26 164.545 23.792 5.539 39.173 9.608 39.173 9.608s10.223-113.826 9.087-174.153z" fill="#ffea05"/></g></g><path d="m317.221 275.261c-48.468-9.445-95.918-16.249-145.5-10.693l5-69.001c49.435-6.451 96.984-.533 145.578 8.052z" fill="#fff"/></g><g><path d="m495.21 160.864c-43.069-101.964-217.12-116.734-302.956-82.153-8.933 3.775-3.092 17.594 5.84 13.817 65.033-29.704 225.413-23.579 228.955 74.473.933 49.539-5.962 136.693-8.301 164.533-32.38-8.204-146.777-35.885-223.699-37.86-45.503-1.177-74.67 4.558-89.056 8.503 1.245-61.396 5.435-146.895 54.309-186.871 7.505-6.14-1.991-17.752-9.497-11.611-56.071 45.864-58.77 140.682-59.942 205.175-85.815 67.889-93.797 87.775-90.174 98.23 3.693 10.655 24.096 13.428 33.189 13.428 35.191.52 64.087-26.958 73.618-53.633 77.829-2.511 131.316 82.204 206.075 83.178 11.95-.001 17.925-15.947 4.976-15.154-94.448 1.409-155.879-139.395-283.491-58.007 12.666-12.716 33.33-31.208 67.018-57.783 69.376-26.867 224.872 4.039 313.16 27.003-7.296 16.527-27.125 55.613-59.019 75.999-8.368 5.348.224 17.659 8.079 12.639 37.32-23.856 58.843-68.638 65.766-85.05 23.723 4.91 55.557 7.684 77.337-5.738 2.071-1.276 3.395-3.478 3.55-5.906 3.619-56.557-2.467-146.287-15.737-177.212zm-405.124 208.05c-12.055 24.984-40.904 41.06-65.961 35.495 12.695-12.621 39.939-29.764 65.961-35.495zm406.15-36.159c-19.418 7.999-42.673 6.446-62.737 2.35 2.139-25.194 9.521-116.702 8.547-168.388-.52-27.604-13.187-50.137-32.648-67.109 30.84 13.579 58.476 35.594 72.027 67.173 10.91 25.421 18.038 106.398 14.811 165.974z"/><path d="m172.556 272.021c46.81-5.243 91.111.445 143.23 10.602 4.051.789 8.614-2.569 8.916-6.831l5.078-71.642c.271-3.831-2.395-7.248-6.177-7.916-46.325-8.185-96.299-14.832-147.853-8.104-3.532.46-6.253 3.342-6.51 6.895l-5 69.001c.272 5.266 3.044 7.931 8.316 7.995zm11.199-69.745c45.025-4.938 89.187.468 130.584 7.57l-4.002 56.458c-41.209-7.865-86.799-13.83-130.493-10.063z"/><path d="m284.148 241.315c9.069 2.324 13.007-12.152 3.724-14.531-37.761-9.676-83.976-6.342-85.925-6.194-9.668.727-8.541 15.704 1.124 14.957.454-.032 45.745-3.286 81.077 5.768z"/></g></g></svg>