<svg height="512pt" viewBox="0 -27 512.00156 512" width="512pt" xmlns="http://www.w3.org/2000/svg"><path d="m14.136719 335.164062c-1.867188 10.039063-4.53125 24.566407-6.25 33.941407-1.121094 6.117187 1.863281 12.242187 7.367187 15.132812 7.585938 3.980469 19.738282 8.484375 35.738282 8.34375 6.867187-.0625 12.695312-5.074219 13.839843-11.84375l5.300781-31.390625" fill="#4baa54"/><path d="m497.867188 335.164062c1.867187 10.039063 4.53125 24.566407 6.25 33.941407 1.117187 6.117187-1.863282 12.242187-7.371094 15.132812-7.582032 3.980469-19.738282 8.484375-35.738282 8.34375-6.867187-.0625-12.695312-5.074219-13.835937-11.84375l-5.300781-31.390625" fill="#4baa54"/><path d="m485.644531 344.941406c-10.246093 3.628906-21.226562 5.503906-31.585937 6.484375-11.46875 1.082031-22.074219-6.210937-25.144532-17.3125l-47.511718-171.730469v238.382813c0 12.773437-7.179688 24.511719-18.628906 30.1875-18.3125 9.085937-51.683594 19.894531-106.773438 19.894531-55.085938 0-88.457031-10.808594-106.769531-19.894531-11.449219-5.675781-18.628907-17.414063-18.628907-30.1875v-238.382813l-47.511718 171.730469c-3.070313 11.101563-13.675782 18.394531-25.144532 17.3125-10.359374-.980469-21.339843-2.855469-31.585937-6.484375-10.460937-3.710937-17-14.140625-15.722656-25.175781 15.855469-136.359375 62.753906-245.027344 62.753906-245.027344 20.476563-20.472656 47.707031-35.644531 66.824219-44.730469 13.632812-6.484374 23.15625-9.871093 23.15625-9.871093 1.925781-.722657 3.875-1.394531 5.875-2.027344h.007812l173.648438.234375 5.730468 1.792969s9.523438 3.386719 23.15625 9.871093c19.117188 9.085938 46.347657 24.257813 66.824219 44.730469 0 0 46.898438 108.667969 62.753907 245.027344 1.273437 11.035156-5.261719 21.464844-15.722657 25.175781zm0 0" fill="#7ace84"/><g fill="#4baa54"><path d="m485.644531 344.941406c-10.246093 3.628906-21.226562 5.503906-31.585937 6.484375-11.46875 1.078125-22.074219-6.210937-25.144532-17.3125l-47.511718-171.730469c0-19.128906 4.027344-36.21875 13.191406-50.941406l54.722656 209.761719s8.871094 23.738281 36.328125 23.738281zm0 0"/><path d="m201.585938 20.136719-9.796876 19.535156c-47.414062 14.46875-116.511718 43.363281-151.054687 243.664063-5.976563 27.90625-13.683594 52.429687-.695313 65.417968-4.617187-.988281-9.214843-2.234375-13.679687-3.8125-10.460937-3.710937-17-14.144531-15.722656-25.175781 15.855469-136.359375 62.753906-245.027344 62.753906-245.027344 35.066406-35.066406 89.980469-54.601562 89.980469-54.601562zm0 0"/><path d="m163.308594 155.785156v281.183594c-5.441406-2-10.113282-4.046875-14.078125-6.015625-11.449219-5.679687-18.628907-17.414063-18.628907-30.191406v-238.378907c0-16.316406-2.9375-31.148437-9.480468-44.304687 0 0 42.1875 1.828125 42.1875 37.707031zm0 0"/></g><path d="m371.789062 30.007812c-10.707031 30.332032-115.789062 126.339844-115.789062 126.339844s-105.078125-96.007812-115.785156-126.339844c13.632812-6.484374 23.15625-9.871093 23.15625-9.871093 1.925781-.722657 3.875-1.394531 5.875-2.027344h.007812l173.648438.234375 5.730468 1.792969s9.523438 3.386719 23.15625 9.871093zm0 0" fill="#cce6f6"/><path d="m345.027344 25.570312c0-18.34375-39.859375-17.921874-89.027344-17.921874s-89.023438-.421876-89.023438 17.921874c0 18.347657 89.023438 99.683594 89.023438 99.683594s89.027344-81.335937 89.027344-99.683594zm0 0" fill="#4baa54"/><path d="m326.351562 358.046875 55.050782-19.71875v-32.003906l-77.894532 27.902343v7.738282c0 11.820312 11.714844 20.070312 22.84375 16.082031zm0 0" fill="#4baa54"/><path d="m185.652344 358.046875-55.050782-19.71875v-32.003906l77.894532 27.902343v7.738282c0 11.820312-11.714844 20.070312-22.84375 16.082031zm0 0" fill="#4baa54"/><path d="m511.636719 367.726562c-1.566407-8.554687-3.917969-21.378906-5.738281-31.191406 2.636718-5.304687 3.789062-11.386718 3.066406-17.652344-1.910156-16.378906-4.332032-33.011718-7.203125-49.433593-.726563-4.160157-4.6875-6.941407-8.847657-6.214844-4.160156.726563-6.945312 4.6875-6.21875 8.847656 2.820313 16.136719 5.203126 32.480469 7.074219 48.5625.871094 7.523438-3.523437 14.550781-10.679687 17.089844-8.464844 3-18.199219 4.988281-29.75 6.078125-7.800782.730469-14.972656-4.199219-17.054688-11.738281l-47.222656-170.679688c.269531-35.007812 14.824219-59.386719 45.605469-76.097656 8.082031 20.324219 30.386719 80.003906 46.363281 157.027344.75 3.609375 3.929688 6.09375 7.480469 6.09375.515625 0 1.039062-.050781 1.5625-.160157 4.132812-.855468 6.792969-4.90625 5.933593-9.039062-20.054687-96.679688-50.078124-166.8125-50.378906-167.511719-.378906-.886719-.929687-1.691406-1.613281-2.375-35.871094-35.871093-90.515625-55.574219-92.824219-56.398437-.089844-.03125-.183594-.0625-.277344-.089844l-4.902343-1.539062c-7.632813-6.492188-19.75-8.25-24.90625-8.992188-16.03125-2.3203125-37.257813-2.31640625-61.855469-2.3125h-6.5c-24.59375.00390625-45.824219-.0078125-61.855469 2.3125-5.078125.730469-16.90625 2.449219-24.554687 8.703125-1.902344.613281-3.746094 1.25-5.597656 1.941406-3.128907 1.121094-57.179688 20.796875-92.757813 56.375-.683594.683594-1.230469 1.488281-1.613281 2.375-.472656 1.097657-47.53125 111.273438-63.332032 247.183594-.722656 6.261719.429688 12.34375 3.066407 17.644531-1.820313 9.8125-4.175781 22.636719-5.742188 31.191406-1.730469 9.457032 2.824219 18.816407 11.339844 23.28125 8.054687 4.226563 21.234375 9.222657 38.550781 9.222657.269532 0 .539063 0 .808594-.003907 10.582031-.09375 19.542969-7.753906 21.308594-18.21875l4.683594-27.734374c6.371093-4.050782 11.261718-10.382813 13.402343-18.121094l32.496094-117.453125v41.21875c0 4.222656 3.425781 7.644531 7.648437 7.644531 4.222657 0 7.644532-3.421875 7.644532-7.644531v-97.535157c0-40.511718-16.941406-69.871093-51.691406-89.457031 15.996093-13.90625 34.847656-24.941406 50.167968-32.664062 19.652344 33.910156 94.546875 103.730469 111.632813 119.449219v283.410156c-49.058594-.929688-79.019531-10.726563-95.730469-19.015625-8.734375-4.332031-14.378906-13.492188-14.378906-23.339844v-51.574219l44.828125 16.054688c2.707031.972656 5.523437 1.449218 8.328125 1.449218 5.035156 0 10.027344-1.535156 14.246094-4.507812 6.574218-4.625 10.496093-12.1875 10.496093-20.222656v-7.738282c0-3.226562-2.027343-6.109374-5.070312-7.199218l-72.828125-26.085938v-10.457031c0-4.222656-3.421875-7.648437-7.648438-7.648437-4.222656 0-7.644531 3.425781-7.644531 7.648437v110.28125c0 15.847656 8.765625 30.042969 22.875 37.039063 19.027344 9.441406 53.582031 20.691406 110.171875 20.691406s91.148438-11.25 110.171875-20.691406c14.109375-6.996094 22.875-21.191407 22.875-37.039063v-182.066406l32.496094 117.453125c2.140625 7.738281 7.03125 14.066406 13.402343 18.121094l4.683594 27.738281c1.765625 10.460937 10.730469 18.121093 21.3125 18.214843.269532.003907.535156.003907.804688.003907 17.3125 0 30.5-4.996094 38.554687-9.21875 8.511719-4.46875 13.070313-13.828125 11.335938-23.285157zm-310.785157-28.117187v2.355469c0 3.113281-1.460937 5.925781-4.003906 7.714844-2.546875 1.792968-5.683594 2.21875-8.617187 1.171874l-49.980469-17.90625v-15.757812zm172.902344-6.664063-49.984375 17.902344c-2.929687 1.050782-6.066406.625-8.613281-1.167968-2.542969-1.789063-4.003906-4.605469-4.003906-7.714844v-2.355469l62.601562-22.425781zm-110.105468-204.339843c6.449218-5.96875 24.476562-22.8125 42.316406-40.953125 34.429687-35 43.9375-49.828125 46.125-57.96875 2.5 1.015625 5.683594 2.351562 9.382812 4.003906-5.800781 9.679688-20.472656 28.683594-56.980468 65.4375-15.457032 15.5625-30.605469 30.03125-40.84375 39.660156zm-70.5625-111.160157c14.941406-2.160156 36.667968-2.152343 59.664062-2.152343h6.5c23 0 44.726562-.007813 59.667969 2.152343 5.523437.800782 18.332031 3.179688 18.460937 8.050782-1.019531 7.933594-32.191406 43.9375-81.378906 89.375-49.1875-45.4375-80.359375-81.441406-81.378906-89.375.132812-4.871094 12.941406-7.25 18.464844-8.050782zm-135.792969 362.019532c-.53125 3.140625-3.207031 5.441406-6.367188 5.46875-14.550781.121094-25.488281-3.988282-32.117187-7.46875-2.550782-1.339844-3.917969-4.144532-3.398438-6.984375 1.03125-5.640625 2.410156-13.144531 3.75-20.410157 1.46875.800782 3.019532 1.503907 4.644532 2.078126 9.667968 3.425781 20.601562 5.679687 33.421874 6.890624 1.003907.09375 2 .140626 2.988282.140626.171875 0 .335937-.019532.507812-.019532zm65.648437-218.070313-47.222656 170.679688c-2.085938 7.539062-9.265625 12.46875-17.054688 11.738281-11.554687-1.09375-21.285156-3.078125-29.75-6.078125-7.160156-2.539063-11.550781-9.566406-10.683593-17.082031 13.1875-113.425782 48.476562-208.566406 59.109375-235.351563 30.777344 16.707031 45.332031 41.085938 45.601562 76.09375zm84.566406-62.269531c-36.496093-36.746094-51.171874-55.746094-56.972656-65.429688 3.695313-1.652343 6.878906-2.992187 9.375-4.007812 2.191406 8.140625 11.703125 22.96875 46.125 57.964844 17.84375 18.140625 35.867188 34.984375 42.316406 40.953125v10.179687c-10.234374-9.628906-25.382812-24.097656-40.84375-39.660156zm151.867188 324.980469c-16.707031 8.289062-46.671875 18.085937-95.726562 19.015625v-283.410156c17.085937-15.71875 91.992187-85.550782 111.636718-119.460938 15.3125 7.71875 34.152344 18.746094 50.160156 32.675781-34.746093 19.585938-51.691406 48.945313-51.691406 89.457031v138.558594l-72.828125 26.085938c-3.039062 1.089844-5.066406 3.972656-5.066406 7.199218v7.738282c0 8.039062 3.921875 15.597656 10.492187 20.222656 4.21875 2.972656 9.210938 4.507812 14.246094 4.507812 2.804688 0 5.625-.476562 8.332032-1.449218l44.824218-16.054688v51.574219c0 9.84375-5.644531 19.007813-14.378906 23.339844zm133.816406-46.640625c-6.625 3.480468-17.546875 7.605468-32.113281 7.46875-3.160156-.027344-5.835937-2.328125-6.367187-5.46875l-3.425782-20.296875c1.152344.019531 2.316406-.019531 3.492188-.128907 12.820312-1.210937 23.753906-3.464843 33.425781-6.890624 1.621094-.574219 3.171875-1.277344 4.640625-2.078126 1.339844 7.269532 2.714844 14.773438 3.75 20.410157.519531 2.839843-.847656 5.644531-3.402344 6.984375zm0 0"/><path d="m280.585938 163.914062c-4.222657 0-7.648438 3.425782-7.648438 7.648438v20.925781c0 4.222657 3.425781 7.648438 7.648438 7.648438 4.222656 0 7.644531-3.425781 7.644531-7.648438v-20.925781c0-4.222656-3.421875-7.648438-7.644531-7.648438zm0 0"/><path d="m280.585938 234.75c-4.222657 0-7.648438 3.421875-7.648438 7.644531v20.929688c0 4.222656 3.425781 7.644531 7.648438 7.644531 4.222656 0 7.644531-3.421875 7.644531-7.644531v-20.929688c0-4.222656-3.421875-7.644531-7.644531-7.644531zm0 0"/><path d="m280.585938 305.582031c-4.222657 0-7.648438 3.425781-7.648438 7.648438v20.925781c0 4.226562 3.425781 7.648438 7.648438 7.648438 4.222656 0 7.644531-3.421876 7.644531-7.648438v-20.925781c0-4.222657-3.421875-7.648438-7.644531-7.648438zm0 0"/><path d="m280.585938 376.417969c-4.222657 0-7.648438 3.425781-7.648438 7.648437v20.925782c0 4.222656 3.425781 7.648437 7.648438 7.648437 4.222656 0 7.644531-3.425781 7.644531-7.648437v-20.925782c0-4.222656-3.421875-7.648437-7.644531-7.648437zm0 0"/><path d="m244.890625 42.90625h22.210937c4.226563 0 7.648438-3.421875 7.648438-7.644531 0-4.222657-3.421875-7.648438-7.648438-7.648438h-22.210937c-4.222656 0-7.648437 3.425781-7.648437 7.648438 0 4.222656 3.425781 7.644531 7.648437 7.644531zm0 0"/></svg>