<svg id="Capa_1" enable-background="new 0 0 512 512" height="512" viewBox="0 0 512 512" width="512" xmlns="http://www.w3.org/2000/svg"><g><g><g><path d="m503.495 233.626-37.849-133.759c-5.207-18.403-19.464-32.865-37.791-38.335l-52.868-15.78c-7.165-2.139-14.786-2.225-21.998-.25-63.49 17.391-130.487 17.391-193.977 0-7.212-1.975-14.833-1.889-21.998.25l-52.868 15.78c-18.327 5.47-32.584 19.932-37.791 38.335l-37.85 133.759c-3.818 13.491 3.632 27.603 16.926 32.061l67.947 22.786-8.962 153.994c-.804 13.811 10.18 25.453 24.015 25.453h295.139c13.835 0 24.819-11.641 24.015-25.453l-8.962-153.994 67.947-22.786c13.293-4.458 20.743-18.569 16.925-32.061z" fill="#e3c6f0"/><g><path d="m411.57 204.226-11.687 6.765c-12.196 7.06-19.38 20.383-18.576 34.452l11.93 208.691c.293 5.037-.982 9.786-3.392 13.787h13.723c13.835 0 24.818-11.641 24.015-25.453l-14.098-237.211c-.055-.95-1.092-1.508-1.915-1.031z" fill="#d3aeea"/><g><path d="m503.495 233.626-37.849-133.759c-5.207-18.403-19.464-32.865-37.791-38.335l-52.868-15.78c-3.577-1.068-7.267-1.624-10.963-1.667v20.313l29.485 8.8c18.327 5.47 32.584 19.932 37.791 38.335l37.849 133.759c3.567 12.606-2.703 25.753-14.385 31.061l31.806-10.666c13.293-4.458 20.743-18.569 16.925-32.061z" fill="#d3aeea"/></g></g></g><path d="m275.836 172.673 57.968-19.095c18.034-5.94 30.219-22.784 30.219-41.771v-67.722c-3.709-.044-7.423.428-11.035 1.417-63.49 17.391-130.487 17.391-193.977 0-3.612-.989-7.326-1.461-11.035-1.417v67.722c0 18.987 12.185 35.83 30.219 41.771l57.968 19.095c12.884 4.244 26.79 4.244 39.673 0z" fill="#c793e2"/></g><g><path d="m80.544 379.913c-.24 4.135 2.916 7.682 7.052 7.923.148.009.296.013.442.013 3.942 0 7.248-3.078 7.48-7.064.008-.141 10.561-177.021 10.568-177.138.253-4.135-2.893-7.691-7.028-7.944-4.145-.252-7.69 2.893-7.944 7.027l-4.624 75.523-58.674-19.676c-9.513-3.191-14.827-13.254-12.094-22.909l37.85-133.759c4.532-16.021 16.764-28.429 32.718-33.191 56.093-16.731 52.943-15.827 54.187-16.142v59.232c0 22.275 14.215 41.924 35.372 48.894l57.968 19.095c14.332 4.721 30.088 4.703 44.366 0l57.968-19.095c21.157-6.97 35.372-26.618 35.372-48.894v-59.233c1.236.313-1.814-.561 54.186 16.143 15.955 4.762 28.187 17.17 32.72 33.191l5.432 19.199c1.127 3.985 5.271 6.3 9.259 5.175 3.985-1.128 6.303-5.273 5.175-9.259l-5.432-19.199c-5.939-20.988-21.962-37.242-42.863-43.48l-52.868-15.779c-8.516-2.542-17.55-2.645-26.124-.297-62.155 17.025-127.86 17.025-190.015 0-8.574-2.349-17.608-2.246-26.123.297l-52.87 15.779c-20.9 6.238-36.923 22.492-42.862 43.48l-37.85 133.759c-4.915 17.37 4.642 35.474 21.758 41.214l62.512 20.963zm74.932-327.562c.52.115 1.038.243 1.554.384 64.746 17.735 133.194 17.735 197.94 0 .516-.141 1.034-.269 1.554-.384v59.457c0 15.785-10.073 29.708-25.066 34.647l-57.968 19.095c-11.279 3.716-23.701 3.716-34.98 0l-57.968-19.095c-14.993-4.939-25.066-18.862-25.066-34.647z"/><path d="m510.712 231.584-22.869-80.815c-1.128-3.985-5.271-6.301-9.259-5.175-3.985 1.128-6.303 5.273-5.175 9.259l22.869 80.815c2.732 9.655-2.581 19.718-12.094 22.909l-58.711 19.689-4.625-75.536c-.254-4.134-3.834-7.283-7.944-7.027-4.135.253-7.281 3.809-7.028 7.944.008.142 14.213 239.14 14.22 239.256.552 9.478-6.96 17.518-16.528 17.518h-295.137c-9.515 0-17.083-7.985-16.528-17.518l1.57-26.981c.24-4.135-2.916-7.682-7.052-7.923-4.136-.25-7.681 2.916-7.923 7.052l-1.57 26.981c-1.054 18.093 13.373 33.388 31.502 33.388h295.139c18.123 0 32.556-15.29 31.502-33.388l-8.63-148.271 62.512-20.963c17.117-5.74 26.674-23.844 21.759-41.214z"/></g></g></svg>