<svg id="Layer_1" enable-background="new 0 0 511.756 511.756" height="512" viewBox="0 0 511.756 511.756" width="512" xmlns="http://www.w3.org/2000/svg"><g><g><g><g><path d="m327.721 236.093s66.249 60.29 101.985 203.669c0 0-56.156 47.793-173.827 47.793s-173.828-47.793-173.828-47.793c35.736-143.38 101.985-203.669 101.985-203.669z" fill="#9ce670"/><path d="m327.721 236.093s47.666 78.903 61.985 203.669c0 0-49.791 42.362-153.827 47.316 6.46.308 13.121.477 20 .477 117.671 0 173.827-47.793 173.827-47.793-35.736-143.38-101.985-203.669-101.985-203.669z" fill="#8cd65e"/><path d="m326.553 328.23s24.265 52.427 48.834 151.002c0 0-38.608 25.024-119.508 25.024s-119.509-25.024-119.509-25.024c24.569-98.575 53.293-151.002 53.293-151.002z" fill="#9ce670"/><g><path d="m337.931 83.028s47.198 68.946-10.21 154.638c0 0-32.768 17.342-71.842 17.342-39.074 0-71.842-17.342-71.842-17.342-57.408-85.692-10.21-154.638-10.21-154.638z" fill="#7ac74c"/><path d="m337.931 83.028h-40s47.198 68.946-10.21 154.638c0 0-22.203 11.74-51.842 15.898 6.374.894 13.084 1.445 20 1.445 39.074 0 71.842-17.342 71.842-17.342 57.408-85.693 10.21-154.639 10.21-154.639z" fill="#68bd35"/><g><g><path d="m185.897 16.154 69.982 239.098s-32.033-4.681-46.965-28.12c-15.786-24.779-6.695-52.106-6.695-52.106-22.37 0-37.165-10.311-43.542-21.21-13.429-22.948-2.331-50.137-2.331-50.137s-24.198-2.801-33.26-19.487c-11.077-20.397-.97-47.195 22.991-51.947 0 0-1.268-19.665 16.898-24.177 16.093-3.999 22.922 8.086 22.922 8.086z" fill="#9ce670"/></g></g></g></g><g><path d="m325.86 16.154-69.982 239.098s32.033-4.681 46.965-28.12c15.786-24.779 6.695-52.106 6.695-52.106 22.37 0 37.165-10.311 43.542-21.21 13.429-22.948 2.331-50.137 2.331-50.137s24.198-2.801 33.26-19.487c11.077-20.397.97-47.195-22.991-51.947 0 0 1.268-19.665-16.898-24.177-16.093-3.999-22.922 8.086-22.922 8.086z" fill="#9ce670"/></g></g></g><path d="m436.984 437.948c-27.193-100.023-54.372-150.006-99.077-202.244 17.44-28.104 26.094-57.286 25.758-86.864 5.528-15.171 3.517-30.414 1.301-39.54 9.17-2.576 23.223-8.503 30.298-21.53 12.617-22.176 2.196-53.302-22.378-61.321-1.328-9.407-6.935-21.846-22.294-25.662-10.323-2.565-28.319.949-31.928 13.259l-17.995 61.481h-89.579l-17.995-61.481c-3.609-12.31-21.607-15.822-31.929-13.259-15.358 3.815-20.966 16.254-22.293 25.662-24.621 8.597-34.602 38.81-22.378 61.321 7.075 13.028 21.128 18.955 30.298 21.53-2.216 9.126-4.227 24.369 1.301 39.54-.336 29.578 8.319 58.76 25.758 86.863-44.741 52.318-71.853 102.151-99.08 202.243-.687 2.765.25 5.68 2.419 7.526.758.646 18.013 15.122 52.819 28.302-1.031 4.075-2.048 8.944 2.282 11.75 1.652 1.071 41.414 26.23 123.587 26.23 20.446 0 40.044-1.583 58.251-4.703 9.556-1.638 7.026-16.426-2.534-14.784-60.735 11.764-139.832-1.189-166.535-16.822 12.334-48.286 30.174-98.261 51.181-143.613 1.741-3.759.659-8.191-2.974-10.182-3.634-1.99-8.191-.658-10.182 2.974-1.116 2.037-25.977 47.956-49.267 134.548-22.599-8.727-37.005-17.936-43.276-22.392 26.145-93.648 51.968-141.31 93.998-190.529 45.989 21.303 96.672 21.31 142.676 0 42.06 49.272 67.826 96.829 93.998 190.529-6.275 4.458-20.67 13.656-43.231 22.372-22.736-86.324-43.686-132.046-44.625-134.074-1.74-3.758-6.195-5.396-9.954-3.656-3.759 1.738-5.396 6.195-3.659 9.955.235.509 23.363 51.053 46.959 144.081-4.238 2.138-11.393 5.367-21.474 8.646-9.295 3.023-4.41 17.207 4.64 14.265 19.41-6.314 29.188-12.58 29.595-12.844 4.33-2.806 3.311-7.673 2.284-11.75 34.82-13.187 52.075-27.671 52.817-28.303 2.169-1.844 3.105-4.76 2.417-7.524zm-114.799-206.908c-4.315 4.727-13.796 6.8-19.75 8.71 14.417-15.151 19.412-37.452 16.309-57.769 10.115-1.23 19.981-4.714 28.248-10.744-3.213 20.032-10.982 44.647-24.807 59.803zm-132.601.005c-13.821-15.189-21.601-39.746-24.819-59.807 8.268 6.03 18.133 9.513 28.249 10.743-3.106 20.324 1.909 42.556 16.283 57.741-5.924-1.901-15.425-3.966-19.713-8.677zm143.164-211.725c1.201-1.594 5.5-6.142 14.226-3.975 11.545 2.868 11.286 15.088 11.222 16.417-.242 3.754 2.335 7.107 6.025 7.839 8.432 1.672 15.078 6.86 18.715 14.609 3.913 8.339 3.593 18.209-.855 26.401-7.055 12.991-27.348 15.594-27.532 15.616-5.431 1.415-7.458 4.844-6.082 10.285 12.634 30.899-5.157 61.013-38.929 61.013-5.739.861-8.111 4.151-7.117 9.868 6.407 21.415.988 55.414-35.611 67.208zm-203.072 61.292c-8.675-15.976-.552-37.361 17.859-41.011 3.69-.732 6.271-4.029 6.029-7.784-.067-1.384-.327-13.604 11.217-16.472 8.589-2.133 12.839 2.135 14.235 4.002l26.509 90.569c2.724 9.306 17.119 5.093 14.396-4.214l-4.441-15.174h80.797l-40.398 138.023-24.764-84.607c-2.724-9.306-17.119-5.093-14.396 4.214l28.228 96.443c-36.779-11.846-41.844-45.924-35.611-67.208.994-5.717-1.378-9.006-7.117-9.867-33.841 0-51.349-30.134-38.929-61.013 1.368-5.424-.653-8.851-6.062-10.282-.204-.025-20.496-2.627-27.552-15.619z"/></g></svg>