<svg id="Capa_1" enable-background="new 0 0 511.992 511.992" height="512" viewBox="0 0 511.992 511.992" width="512" xmlns="http://www.w3.org/2000/svg"><path d="m399.276 257.369 39.402-141.44c3.03-10.877 14.304-17.238 25.181-14.208 10.877 3.03 17.238 14.304 14.208 25.181l-39.402 141.44" fill="#ffe582"/><path d="m463.859 101.721c-5.82-1.621-11.741-.534-16.464 2.474 7.369 4.714 11.142 13.84 8.672 22.706l-37.818 135.753 20.416 5.687 39.402-141.44c3.03-10.876-3.331-22.15-14.208-25.18z" fill="#eed05e"/><path d="m359.888 246.396 44.889-161.134c3.03-10.877 14.304-17.238 25.181-14.208 10.877 3.03 17.238 14.304 14.208 25.181l-44.889 161.134" fill="#ffe582"/><path d="m429.957 71.054c-5.82-1.621-11.741-.534-16.464 2.474 7.369 4.714 11.142 13.84 8.672 22.706l-43.304 155.447 20.416 5.687 44.889-161.134c3.029-10.876-3.332-22.15-14.209-25.18z" fill="#eed05e"/><path d="m359.888 246.396 36.659-131.593c3.03-10.877-3.331-22.15-14.208-25.181-10.877-3.03-22.151 3.331-25.181 14.208l-42.642 153.208c-2.279 8.189-13.816 8.395-16.385.292l-15.183-47.887c-3.43-10.757-14.931-16.697-25.689-13.267-10.757 3.43-16.697 14.931-13.267 25.689l44.132 136.699-46.773 85.153c-3.104 5.65-.129 12.718 6.081 14.448l165.017 45.97c6.066 1.69 12.165-2.58 12.654-8.858l7.646-98.352c13.384-18.278 23.356-38.823 29.435-60.646l41.555-149.167c3.03-10.877-3.331-22.15-14.208-25.181-10.877-3.03-22.151 3.331-25.181 14.208l-25.686 92.205" fill="#ffe582"/><g fill="#eed05e"><path d="m374.547 114.803-34.553 126.202 19.894 5.391 36.659-131.593c3.03-10.877-3.331-22.151-14.208-25.181-5.82-1.621-11.741-.534-16.464 2.474 7.369 4.715 11.142 13.841 8.672 22.707z"/><path d="m260.949 209.443 15.183 47.887c2.569 8.103 14.106 7.898 16.385-.292l2.582-9.275-12.15-38.32c-3.43-10.757-14.931-16.697-25.689-13.267-1.727.551-3.314 1.329-4.774 2.259 3.882 2.48 6.954 6.276 8.463 11.008z"/><path d="m489.531 161.929c-5.82-1.621-11.741-.534-16.464 2.474 7.369 4.714 11.142 13.84 8.672 22.706l-41.555 149.167c-6.079 21.823-16.051 42.368-29.435 60.646l-7.646 98.352c-.169 2.169-1.018 4.089-2.293 5.615l11.64 3.243c6.066 1.69 12.165-2.58 12.654-8.858l7.646-98.352c13.384-18.278 23.356-38.823 29.435-60.646l41.555-149.167c3.029-10.876-3.332-22.15-14.209-25.18z"/></g><path d="m241.351 443.716c-3.104 5.65-.129 12.718 6.081 14.448l165.017 45.97c6.066 1.69 12.165-2.58 12.654-8.858l2.37-30.489-171.57-47.564z" fill="#e7c33c"/><path d="m103.119 196.385-22.333-145.117c-1.717-11.16-12.156-18.814-23.316-17.097-11.16 1.717-18.814 12.156-17.097 23.316l22.333 145.117" fill="#ffe582"/><path d="m80.786 51.268c-1.717-11.16-12.156-18.814-23.316-17.097-2.909.448-5.572 1.499-7.901 2.991 4.782 3.055 8.286 8.057 9.217 14.106l22.208 147.737 22.124-2.62z" fill="#eed05e"/><path d="m143.531 190.166-25.442-165.323c-1.717-11.16-12.156-18.814-23.316-17.097-11.16 1.717-18.814 12.156-17.097 23.316l25.442 165.324" fill="#ffe582"/><path d="m118.17 25.37c-1.625-10.56-10.923-18.51-21.584-17.821-3.621.234-6.909 1.392-9.714 3.188 4.781 3.055 8.286 8.057 9.217 14.106l25.442 165.324s.182 1.012.463 2.839l21.537-2.839z" fill="#eed05e"/><path d="m143.531 190.166-20.778-135.014c-1.717-11.16 5.937-21.598 17.097-23.316 11.16-1.717 21.598 5.937 23.316 17.097l24.152 157.187c1.291 8.402 12.722 9.975 16.235 2.235l20.761-45.746c4.683-10.274 16.808-14.807 27.082-10.124 10.274 4.683 14.807 16.808 10.124 27.082l-60.048 130.493 36.334 90.103c2.411 5.979-1.382 12.643-7.753 13.623l-169.309 26.055c-6.224.958-11.773-4.006-11.512-10.298l4.084-98.565c-11.119-19.737-18.582-41.321-22.028-63.711l-23.553-153.045c-1.717-11.16 5.937-21.598 17.097-23.316 11.16-1.717 21.598 5.937 23.316 17.097l14.559 94.602" fill="#ffe582"/><path d="m26.148 108.003 14.559 94.602 21.491-3.307-14.05-91.295c-1.717-11.16-12.156-18.814-23.316-17.097-2.909.448-5.572 1.499-7.901 2.991 4.781 3.055 8.286 8.057 9.217 14.106z" fill="#eed05e"/><path d="m141.166 48.933 24.152 157.187c2.677 12.886 22.677 3.886 22.677 3.886l-24.829-161.073c-1.717-11.16-12.156-18.814-23.316-17.097-2.909.448-5.572 1.499-7.901 2.991 4.781 3.055 8.286 8.057 9.217 14.106z" fill="#eed05e"/><path d="m251.395 152.484c-6.549-2.985-13.841-2.213-19.487 1.391 8.458 5.389 11.89 16.304 7.611 25.691l-60.048 130.493 36.334 90.103c2.411 5.979-1.382 12.643-7.753 13.623l-155.177 23.882c2.103 1.734 4.906 2.631 7.87 2.175l169.307-26.055c6.372-.981 10.164-7.645 7.753-13.623l-36.334-90.103 60.048-130.493c4.683-10.276.15-22.401-10.124-27.084z" fill="#eed05e"/><path d="m49.232 429.544c-.261 6.292 5.289 11.255 11.513 10.298l169.307-26.055c6.372-.981 10.164-7.645 7.753-13.623l-11.027-27.346-176.27 25.922z" fill="#e7c33c"/><path d="m491.544 154.705c-4.498-1.254-9.049-1.321-13.325-.402l7.073-25.388c5.553-19.936-12.789-39.379-33.087-34.748 2.113-17.049-12.257-32.301-29.37-31.286-15.428.916-23.096 12.519-26.864 26.043-15.015-14.109-40.523-6.901-46.037 12.895l-42.642 153.208c-.275.993-1.697 1.023-2.01.036l-15.188-47.898c-3.513-11.02-13.265-18.35-24.118-19.342l2.368-5.146c6.391-14.021.183-30.626-13.838-37.018-13.898-6.334-30.703-.013-37.021 13.849l-20.761 45.746c-.429.942-1.835.751-1.992-.274l-24.154-157.188c-3.124-20.304-27.593-30.498-44.181-18.267-2.123-13.794-8.197-26.232-23.387-29.057-16.91-3.146-33.164 10.319-33.076 27.566-19.598-6.99-40.12 10.147-36.973 30.594l4.006 26.029c-19.52-6.685-39.777 10.345-36.644 30.706l23.553 153.045c3.486 22.655 10.838 44.301 21.859 64.371l-3.997 96.454c-.447 10.796 9.415 19.677 20.147 18.021l169.307-26.055c10.936-1.683 17.727-13.529 13.568-23.841l-35.124-87.103 32.329-70.257 38.027 117.79-45.216 82.316c-5.349 9.738-.022 22.312 10.642 25.284l165.017 45.97c10.438 2.909 21.304-4.696 22.144-15.501l7.482-96.247c13.325-18.619 23.195-39.239 29.346-61.32l7.598-27.272c2.585-9.277-11.861-13.315-14.45-4.025l-7.598 27.272c-5.857 21.027-15.366 40.617-28.262 58.228-.824 1.126-1.318 2.459-1.426 3.85l-4.615 59.365-153.8-42.846 27.842-50.687c.994-1.81 1.198-3.95.563-5.915l-44.124-136.673c-5.025-15.76 19.59-23.782 24.661-7.875l15.184 47.887c4.715 14.867 26.579 14.474 30.76-.547l42.64-153.207c4.413-15.833 29.5-9.431 24.939 6.947l-36.659 131.594c-2.584 9.277 11.861 13.315 14.45 4.025l36.659-131.593v-.001l8.229-29.54c4.411-15.834 29.502-9.43 24.938 6.947l-44.889 161.134c-2.685 9.641 11.903 13.169 14.45 4.025l39.402-141.44c4.48-16.077 29.418-9.131 24.939 6.947l-13.713 49.224c-.001.004-.003.008-.004.012l-25.686 92.205c-2.583 9.275 11.853 13.345 14.45 4.025l25.69-92.219c4.496-16.062 29.411-9.107 24.934 6.962l-21.422 76.895c-2.584 9.277 11.861 13.316 14.45 4.025l21.422-76.895c4.14-14.845-4.572-30.285-19.415-34.419zm-72.073 316.243-1.846 23.746c-.121 1.557-1.658 2.636-3.163 2.214l-165.017-45.97c-1.542-.429-2.29-2.21-1.52-3.612l11.513-20.96zm-224.956-158.084 21.628 53.634-24.289 3.738c-9.498 1.461-7.252 16.296 2.281 14.825l27.77-4.274 8.944 22.179c.599 1.484-.357 3.163-1.938 3.406l-169.308 26.057c-1.544.239-2.943-1.014-2.878-2.574l.986-23.798 90.424-13.915c9.518-1.464 7.249-16.298-2.281-14.825l-87.51 13.467 2.465-59.493c.058-1.394-.274-2.776-.959-3.992-10.713-19.016-17.829-39.597-21.149-61.17l-23.553-153.048c-2.54-16.506 23.04-20.448 25.586-3.943l14.56 94.607c1.397 9.089 16.405 7.98 14.825-2.281l-14.559-94.602c-.001-.004-.001-.007-.002-.011l-7.772-50.505c-2.538-16.496 23.049-20.433 25.587-3.938l22.333 145.118c1.397 9.091 16.405 7.976 14.825-2.281l-25.442-165.324c-2.541-16.509 23.046-20.446 25.587-3.938l25.442 165.324c1.465 9.521 16.293 7.25 14.825-2.281l-20.777-135.015c-2.541-16.508 23.048-20.447 25.587-3.939l24.152 157.187c2.37 15.418 24.024 18.415 30.478 4.195l20.756-45.735c6.912-15.169 30.508-4.514 23.567 10.712-2.276 4.946-6.342 10.788-7.131 16.242-8.126 5.629-12.746 15.271-11.948 25.221l-40.968 89.031c-.865 1.875-.916 4.024-.144 5.939z"/></svg>