<svg id="Layer_1" enable-background="new 0 0 512.578 512.578" height="512" viewBox="0 0 512.578 512.578" width="512" xmlns="http://www.w3.org/2000/svg"><g><g><path d="m504.79 173.964s0 151.749-86.701 279.985c-13.085 19.353-32.973 33.051-55.676 38.559-24.835 6.025-61.613 12.393-106.122 12.393s-81.287-6.368-106.122-12.393c-22.703-5.507-42.591-19.206-55.676-38.559-86.703-128.237-86.703-279.985-86.703-279.985z" fill="#ebb58f"/><path d="m464.79 173.964s0 151.749-86.701 279.985c-13.085 19.353-32.973 33.051-55.676 38.559-21.01 5.097-50.568 10.438-86.122 11.963 6.474.278 13.144.43 20 .43 44.509 0 81.287-6.368 106.122-12.393 22.703-5.507 42.591-19.205 55.676-38.559 86.701-128.236 86.701-279.985 86.701-279.985z" fill="#e6a67a"/><ellipse cx="256.29" cy="173.964" fill="#db8e57" rx="248.5" ry="30.689"/><path d="m324.717 285.709c-8.855 0-16.033-7.191-16.033-16.061v-177.376c0-28.941-23.504-52.485-52.394-52.485s-52.394 23.545-52.394 52.485v177.376c0 8.87-7.178 16.061-16.033 16.061s-16.033-7.191-16.033-16.061v-177.376c0-46.653 37.889-84.607 84.46-84.607s84.46 37.954 84.46 84.607v177.376c0 8.87-7.178 16.061-16.033 16.061z" fill="#fff2e5"/><g fill="#fff345"><path d="m203.896 190.717v-16.753h-32.066v11.386c0 30.072-6.503 59.605-17.311 87.661-1.659 4.306-2.499 9.019-2.328 13.95.656 19.006 16.62 34.248 35.603 34.04 19.276-.211 34.838-15.931 34.838-35.291 0-4.507-.843-8.816-2.381-12.779-10.204-26.299-16.355-53.999-16.355-82.214z"/><path d="m340.75 191.039v-17.075h-32.066v11.351c0 30.066-6.544 59.586-17.424 87.607-1.674 4.312-2.527 9.035-2.365 13.976.624 19.031 16.602 34.312 35.61 34.101 19.275-.214 34.834-15.932 34.834-35.291 0-4.487-.836-8.779-2.361-12.727-10.125-26.221-16.228-53.827-16.228-81.942z"/></g></g><g><path d="m460.08 148.783c-28.354-4.914-66.913-8.649-111.83-10.847v-45.664c1.013-65.336-69.827-111.598-129.073-84.27-8.864 3.93-2.786 17.637 6.081 13.712 49.59-22.855 108.838 15.879 107.991 70.559.001-.001.001 74.19.001 74.19h-17.065v-22.293c.002-.018 0-.036 0-.054v-51.844c-3.013-79.471-116.789-79.446-119.789.001 0-.001 0 74.191 0 74.191h-17.066v-74.192c0-16.068 4.906-31.476 14.188-44.559 5.611-7.909-6.623-16.587-12.234-8.679-22.425 30.249-16.132 64.08-16.953 98.902-41.527 3.039-164.493 7.163-164.041 36.026.069 67.75 27.169 197.645 87.99 284.186 14.112 20.876 35.463 35.667 60.12 41.648 70.26 17.044 145.522 17.043 215.781 0 24.656-5.981 46.008-20.771 60.121-41.647 6.308-9.33 12.39-19.128 18.077-29.123 4.796-8.428-8.243-15.849-13.037-7.418-16.818 29.911-33.086 55.163-68.698 63.61-67.945 16.483-140.763 16.483-208.708.001-21.02-5.099-39.213-17.696-51.23-35.471-59.523-91.56-77.649-177.05-84.743-259.776 8.238 3.342 19.948 6.263 35.689 9.025 28.076 4.926 66.434 8.689 111.192 10.921-2.343 19.764-7.46 39.988-15.322 60.397-10.573 27.448 10.492 58.188 39.891 58.188 29.468 0 50.501-30.781 39.832-58.284-7.683-19.802-12.586-39.412-14.677-58.546 28.544.634 58.362.639 86.907.012-2.452 19.178-7.534 38.769-15.204 58.523-10.731 27.633 10.703 58.663 40.319 58.293 29.232-.324 49.925-30.923 39.386-58.219-7.887-20.425-12.83-40.643-14.776-60.336 44.511-2.204 82.727-5.922 110.881-10.801 16.155-2.8 28.14-5.765 36.525-9.166-2.182 33.493-11.323 114.698-49.562 197.218-3.972 8.569 9.547 15.073 13.609 6.307 51.051-110.164 51.638-215.124 51.638-219.538-.001-11.461-15.127-18.756-52.211-25.183zm-203.79-101.496c24.755 0 44.895 20.18 44.895 44.985v44.011c-29.518-.66-60.306-.66-89.789 0v-44.011c0-24.805 20.139-44.985 44.894-44.985zm-195.557 138.021c-28.595-4.569-39.581-9.027-43.638-11.344 33.008-14.412 95.469-17.769 147.235-21.005 0 13.952.424 28.061-.237 41.999-40.758-2.022-76.422-5.346-103.36-9.65zm154.399 100.401c0 15.158-12.301 27.625-27.42 27.791-19.13.161-33.057-19.975-26.194-37.794 11.648-30.238 17.837-61.835 17.812-94.242h17.066c-.05 15.209.615 30.178 3.179 45.214 3.262 19.125 15.557 39.996 15.557 59.031zm-3.631-89.067c-.478-15.09-.105-30.255-.105-45.355 29.473-.666 60.281-.666 89.789 0 0 15.051.843 30.348 0 45.36-29.329.658-60.328.656-89.684-.005zm140.338 89.067c0 15.156-12.299 27.623-27.416 27.791-19.184.227-33.089-20.049-26.171-37.864 11.725-30.197 17.955-61.776 17.933-94.173h17.065c-.262 32.525 4.987 63.803 16.731 94.22 1.233 3.192 1.858 6.565 1.858 10.026zm99.137-100.263c-26.911 4.249-62.29 7.526-102.676 9.523-.295-13.991-.051-28.02-.051-42.014 51.022 3.133 114.952 6.73 147.235 21.008-4.097 2.341-15.264 6.865-44.508 11.483z"/><path d="m187.401 278.209c-9.652 0-9.668 15 0 15 9.651 0 9.667-15 0-15z"/><path d="m324.929 278.209c-9.652 0-9.668 15 0 15 9.651 0 9.667-15 0-15z"/></g></g></svg>