<svg id="Capa_1" enable-background="new 0 0 512 512" height="512" viewBox="0 0 512 512" width="512" xmlns="http://www.w3.org/2000/svg"><g><g><g><g><g><g><g><path d="m503.355 221.173-37.828-133.684c-5.204-18.393-19.453-32.846-37.77-38.313l-80.862-24.135h-181.791l-80.861 24.135c-18.317 5.467-32.566 19.921-37.77 38.314l-37.828 133.683c-3.815 13.484 3.63 27.587 16.916 32.043l67.909 22.773v206.353c0 12.237 9.92 22.158 22.158 22.158h280.745c12.237 0 22.158-9.92 22.158-22.158v-206.353l67.909-22.773c13.285-4.456 20.73-18.559 16.915-32.043z" fill="#fdb77e"/><g><path d="m405.863 211.989c-13.747 4.61-23.012 17.489-23.012 31.988v250.538c0 3.593-.861 6.983-2.379 9.984h15.9c12.237 0 22.158-9.92 22.158-22.158v-267.481c0-3.499-3.431-5.967-6.749-4.855z" fill="#fba65c"/><g><path d="m503.355 221.173-37.828-133.684c-5.204-18.393-19.453-32.846-37.769-38.313l-72.834-21.739c1.661 4.142 1.512 9.071-1.023 13.288-1.444 2.402-3.112 4.997-5.018 7.731l43.197 12.893c18.316 5.467 32.565 19.921 37.77 38.313l40.804 144.202c1.934 6.836-1.28 13.94-7.395 17.125l23.181-7.774c13.285-4.455 20.73-18.558 16.915-32.042z" fill="#fba65c"/></g></g><g><path d="m93.47 482.342c0 12.237 9.92 22.158 22.158 22.158h280.745c12.237 0 22.158-9.92 22.158-22.158v-12.315h-325.061z" fill="#f0f0f3"/></g><path d="m382.851 504.5h13.521c12.237 0 22.158-9.92 22.158-22.158v-12.315h-35.679z" fill="#e0dde2"/><g><path d="m93.47 241.173-82.642-27.714-2.183 7.714c-3.815 13.484 3.63 27.587 16.916 32.043l67.909 22.773z" fill="#f0f0f3"/><path d="m501.172 213.459-82.642 27.714v34.816l67.909-22.773c13.286-4.455 20.732-18.559 16.916-32.043z" fill="#f0f0f3"/><path d="m501.172 213.459-35.732 11.983 5.213 18.423c1.934 6.835-1.279 13.94-7.395 17.125l23.181-7.774c13.286-4.455 20.732-18.559 16.916-32.043z" fill="#e0dde2"/></g></g></g></g></g></g><g><path d="m346.236 19.229-3.792-1.19c-28.427-7.026-57.436-10.539-86.444-10.539v.001-.001c-29.008 0-58.017 3.513-86.444 10.539l-3.792 1.19c-8.697 2.73-12.514 13.43-7.664 21.496 7.985 13.282 22.701 32.394 47.814 49.005 20.759 13.731 40.026 21.897 40.835 22.24l.778.33c2.718 1.153 5.596 1.729 8.474 1.729 2.878 0 5.756-.577 8.474-1.729l.778-.33c.808-.343 20.076-8.51 40.835-22.24 25.113-16.611 39.829-35.723 47.814-49.005 4.848-8.066 1.031-18.766-7.666-21.496z" fill="#f0f0f3"/><path d="m334.445 16.169c-25.861-5.773-52.152-8.669-78.445-8.669v.001-.001c-26.293 0-52.584 2.896-78.445 8.669 12.162 30.872 54.045 55.528 71.469 64.683 2.205 1.159 4.59 1.738 6.975 1.737v-.002.002c2.385 0 4.771-.579 6.975-1.737 17.425-9.156 59.309-33.811 71.471-64.683z" fill="#e0dde2"/></g></g><g><path d="m207.806 344.273c4.142 0 7.5-3.358 7.5-7.5v-119.658c0-4.142-3.358-7.5-7.5-7.5h-25.576c-4.142 0-7.5 3.358-7.5 7.5s3.358 7.5 7.5 7.5h18.076v112.158c0 4.142 3.358 7.5 7.5 7.5z"/><path d="m295.168 207.173c-23.216 0-42.103 18.887-42.103 42.102v55.337c0 23.215 18.887 42.102 42.103 42.102 23.215 0 42.102-18.887 42.102-42.102v-55.337c-.001-23.215-18.887-42.102-42.102-42.102zm27.101 97.44c0 14.944-12.157 27.102-27.102 27.102s-27.103-12.158-27.103-27.102v-55.337c0-14.944 12.158-27.102 27.103-27.102s27.102 12.158 27.102 27.102z"/><path d="m510.572 219.131-27.142-95.917c-1.128-3.986-5.273-6.303-9.259-5.175-3.985 1.128-6.303 5.273-5.175 9.259l23.012 81.322-65.979 22.126v-27.625c0-4.142-3.357-7.5-7.5-7.5s-7.5 3.358-7.5 7.5v259.405h-247.227c-4.142 0-7.5 3.358-7.5 7.5s3.358 7.5 7.5 7.5h247.228v4.815c0 8.083-6.575 14.658-14.658 14.658h-280.745c-8.082 0-14.658-6.575-14.658-14.658v-4.815h27.336c4.142 0 7.5-3.358 7.5-7.5s-3.358-7.5-7.5-7.5h-27.336c0-13.329 0-245.841 0-259.405 0-4.142-3.358-7.5-7.5-7.5s-7.5 3.358-7.5 7.5v27.625l-65.979-22.126 33.7-119.088c4.53-16.011 16.754-28.411 32.698-33.169l62.558-18.672c.511 2.401 1.421 4.73 2.726 6.899 8.312 13.826 23.751 33.965 50.104 51.396 20.712 13.7 39.919 21.988 42.044 22.89.705.227 4.9 2.654 12.18 2.654 6.764 0 11.816-2.537 12.18-2.654 2.12-.898 21.312-9.177 42.045-22.89 26.354-17.432 41.793-37.571 50.104-51.396 1.304-2.169 2.214-4.498 2.725-6.899l62.56 18.672c15.943 4.759 28.167 17.158 32.697 33.168l1.109 3.921c.935 3.304 3.941 5.46 7.213 5.46.676 0 1.363-.092 2.046-.285 3.985-1.127 6.303-5.273 5.175-9.258l-1.109-3.922c-5.937-20.977-21.952-37.223-42.841-43.457l-69.751-20.818c-2.69-4.338-6.782-7.564-11.67-9.098 0 0 0 0-.001 0-3.924-1.227-3.844-1.217-4.237-1.315-28.885-7.139-58.574-10.759-88.245-10.759s-59.36 3.62-88.244 10.758c-.411.102-.445.129-4.238 1.315-4.888 1.534-8.981 4.76-11.671 9.098l-69.749 20.818c-20.89 6.235-36.906 22.481-42.842 43.459-3.61 12.758-31.902 112.741-37.828 133.683-4.913 17.363 4.64 35.458 21.748 41.195l62.793 21.058v200.958c0 16.354 13.304 29.658 29.658 29.658h280.745c16.354 0 29.658-13.304 29.658-29.658v-200.957l62.794-21.058c17.108-5.738 26.661-23.833 21.748-41.196zm-187.191-197.617c-7.358 12.163-24.512 32.004-63.893 52.698-2.218 1.164-4.761 1.164-6.975 0-39.383-20.694-56.537-40.536-63.895-52.699 44.414-8.621 90.349-8.62 134.763.001zm-155.372 4.871c3.989-1.186 2.03-.752 5.256-1.531 6.466 12.638 17.674 25.29 33.408 37.69 14.242 11.225 28.994 19.762 38.863 24.947 6.513 3.421 14.263 3.501 20.927 0 9.868-5.186 24.621-13.723 38.862-24.947 15.734-12.4 26.943-25.052 33.409-37.69 6.796 1.638 7.81 2.318 9.376 5.718.73 2.112.502 4.392-.638 6.288-7.513 12.498-21.51 30.729-45.523 46.614-19.613 12.973-37.634 20.747-39.625 21.591l-.777.33c-6.261 2.653-11.609-.272-11.873-.331-1.992-.845-20.028-8.629-39.623-21.59-24.013-15.883-38.01-34.116-45.524-46.614-2.432-4.043-.425-9.249 3.482-10.475zm-82.039 239.179-58.024-19.459c-9.506-3.188-14.814-13.242-12.084-22.89l.041-.145 70.068 23.498v18.996zm398.084-19.459-58.024 19.458v-18.995l70.068-23.497.041.145c2.73 9.647-2.579 19.701-12.085 22.889z"/></g></g></svg>