<svg id="Capa_1" enable-background="new 0 0 512 512" height="512" viewBox="0 0 512 512" width="512" xmlns="http://www.w3.org/2000/svg"><g><g><path d="m343.791 250.108c13.304-40.786 21.822-96.562 21.822-134.726 0-65.149-10.426-94.135-15.106-103.864-1.184-2.462-3.675-4.018-6.407-4.018h-176.2c-2.732 0-5.222 1.556-6.407 4.018-4.68 9.729-15.106 38.715-15.106 103.864 0 38.164 8.519 93.941 21.822 134.726 6.549 20.077 7.828 41.51 3.898 62.259-2.507 13.236-3.943 28.613-3.943 45.022 0 20.922 2.334 40.167 6.247 55.435 7.327 28.59 10.856 58.016 10.856 87.531 0 2.289 1.856 4.145 4.145 4.145h42.589c2.289 0 4.145-1.856 4.145-4.145v-118.384c0-48.124 2.82-96.207 8.445-144.002l8.292-49.337c.591-3.516 5.643-3.516 6.234 0l8.291 49.337c5.625 47.794 8.445 95.877 8.445 144.001v118.384c0 2.289 1.856 4.145 4.145 4.145h42.589c2.289 0 4.145-1.856 4.145-4.145 0-29.514 3.529-58.94 10.856-87.531 3.913-15.268 6.247-34.513 6.247-55.435 0-16.409-1.436-31.786-3.943-45.022-3.929-20.748-2.65-42.181 3.899-62.258z" fill="#8f818f"/><g><g><path d="m243.432 183.189c-13.134 6.445-20.816 19.401-24.183 33.638-9.265 39.173-18.114 91.524-18.114 165.144 0 30.66 5.181 122.529 5.181 122.529h25.685c2.289 0 4.145-1.856 4.145-4.145v-118.384c0-48.124 2.82-96.207 8.445-144.002l8.292-49.337c.591-3.516 5.643-3.516 6.234 0 0-6.156-7.798-9.314-15.685-5.443z" fill="#786e79"/></g><path d="m343.791 250.108c13.304-40.786 21.822-96.562 21.822-134.726 0-65.149-10.427-94.135-15.106-103.863-1.184-2.463-3.675-4.019-6.407-4.019h-35.012c2.732 0 5.222 1.556 6.407 4.018 4.68 9.729 15.106 38.715 15.106 103.863 0 38.164-8.519 93.941-21.822 134.726-6.549 20.077-7.828 41.51-3.898 62.259 2.507 13.236 3.943 28.613 3.943 45.022 0 20.922-2.334 40.167-6.247 55.435-6.954 27.135-6.172 62.874-6.074 91.676h26.084c2.289 0 4.145-1.856 4.145-4.145 0-29.514 3.529-58.94 10.856-87.531 3.913-15.268 6.247-34.513 6.247-55.435 0-16.409-1.436-31.786-3.943-45.022-3.929-20.748-2.65-42.181 3.899-62.258z" fill="#786e79"/><g><path d="m358.79 59.271c2.014-.476 3.333-2.419 3.039-4.467-3.461-24.185-8.463-37.341-11.323-43.286-1.183-2.462-3.674-4.018-6.406-4.018h-176.2c-2.732 0-5.222 1.556-6.407 4.018-2.86 5.945-7.862 19.1-11.323 43.286-.293 2.048 1.026 3.991 3.039 4.467l37.253 8.81c43.097 10.193 87.977 10.193 131.074 0z" fill="#a8db8d"/><path d="m344.1 7.5h-35.011c2.732 0 5.222 1.556 6.407 4.018 3.29 6.84 9.417 23.221 12.767 54.972l30.527-7.22c2.014-.476 3.333-2.419 3.039-4.467-3.461-24.185-8.463-37.341-11.323-43.286-1.183-2.461-3.674-4.017-6.406-4.017z" fill="#8fd47c"/></g></g></g><path d="m350.921 252.434c13.066-40.058 22.192-96.415 22.192-137.052 0-64.532-9.929-94.811-15.848-107.116-2.415-5.022-7.583-8.266-13.164-8.266h-176.202c-5.582 0-10.749 3.244-13.166 8.267-5.918 12.305-15.847 42.583-15.847 107.115 0 40.637 9.125 96.994 22.192 137.052 6.104 18.712 7.369 38.954 3.66 58.538-5.973 31.535-5.558 72.637 2.408 103.715 7.048 27.5 10.622 56.323 10.622 85.668 0 6.421 5.224 11.646 11.645 11.646h42.589c6.421 0 11.645-5.225 11.645-11.646 1.197-90.965-3.88-157.095 8.372-261.326l3.981-23.689 3.981 23.689c10.758 91.517 7.919 156.543 8.372 177.496 0 4.143 3.358 7.5 7.5 7.5s7.5-3.357 7.5-7.5c-.466-21.436 2.394-86.902-8.496-179.434-.015-.122-.032-.244-.052-.366l-8.292-49.337c-1.986-11.816-19.042-11.806-21.026 0l-8.292 49.338c-.02.122-.038.244-.052.366-12.393 105.305-7.31 171.921-8.496 259.907h-35.895c-.263-29.443-3.985-58.371-11.076-86.038-7.034-27.448-8.059-66.264-2.2-97.199 4.178-22.059 2.747-44.874-4.137-65.981-12.631-38.723-21.453-93.167-21.453-132.399 0-18.924.882-34.678 2.236-47.715l13.461 3.184c9.644 2.271 13.143-12.306 3.452-14.598l-14.997-3.547c3.232-20.899 7.58-32.395 10.102-37.706h175.718c2.522 5.312 6.869 16.807 10.102 37.706l-34.15 8.076c-37.245 8.81-75.228 9.841-112.897 3.063-4.073-.727-7.976 1.978-8.709 6.054-.733 4.077 1.977 7.977 6.054 8.71 39.688 7.139 79.736 6.058 119.004-3.229l32.614-7.714c1.354 13.037 2.236 28.792 2.236 47.716 0 39.232-8.822 93.677-21.453 132.399-6.884 21.107-8.315 43.923-4.137 65.981 5.86 30.939 4.834 69.755-2.2 97.199-7.091 27.667-10.813 56.595-11.076 86.038h-35.895v-45.4c0-4.143-3.358-7.5-7.5-7.5s-7.5 3.357-7.5 7.5v48.755c0 6.421 5.224 11.646 11.645 11.646h42.589c6.421 0 11.645-5.225 11.645-11.646 0-29.345 3.574-58.168 10.622-85.668 7.944-30.995 8.398-72.092 2.408-103.715-3.708-19.583-2.442-39.825 3.661-58.537z"/></g></svg>