<svg id="Capa_1" enable-background="new 0 0 512 512" height="512" viewBox="0 0 512 512" width="512" xmlns="http://www.w3.org/2000/svg"><g><g><path d="m94.374 504.5c16.165 0 16.165-12.122 32.33-12.122s16.165 12.122 32.33 12.122c16.163 0 16.163-12.122 32.326-12.122s16.163 12.122 32.327 12.122c16.163 0 16.163-12.122 32.325-12.122s16.162 12.122 32.325 12.122c16.16 0 16.16-12.122 32.321-12.122 16.16 0 16.16 12.122 32.32 12.122 16.162 0 16.162-12.122 32.325-12.122 16.162 0 16.162 12.122 32.324 12.122l-41.418-287.554h-240.417z" fill="#cbafea"/></g><g><path d="m417.626 504.5-41.418-287.554h-24.244l39.784 276.211c10.099 2.676 12.211 11.343 25.878 11.343z" fill="#bc95e2"/></g><g><path d="m385.302 461.063c-16.162 0-16.162 12.122-32.325 12.122-16.16 0-16.16-12.122-32.32-12.122s-16.16 12.122-32.321 12.122c-16.162 0-16.162-12.122-32.325-12.122s-16.163 12.122-32.325 12.122c-16.163 0-16.163-12.122-32.327-12.122-16.163 0-16.163 12.122-32.326 12.122-16.165 0-16.165-12.122-32.33-12.122-14.477 0-15.997 9.716-27.766 11.747l-4.564 31.69c16.165 0 16.165-12.122 32.33-12.122s16.165 12.122 32.33 12.122c16.163 0 16.163-12.122 32.326-12.122s16.163 12.122 32.327 12.122c16.163 0 16.163-12.122 32.325-12.122s16.162 12.122 32.325 12.122c16.16 0 16.16-12.122 32.321-12.122 16.16 0 16.16 12.122 32.32 12.122 16.162 0 16.162-12.122 32.325-12.122 16.162 0 16.162 12.122 32.324 12.122l-4.564-31.691c-11.766-2.031-13.286-11.746-27.76-11.746z" fill="#ffd8d5"/></g><g><path d="m391.748 493.157c10.099 2.676 12.211 11.343 25.878 11.343l-4.564-31.691c-11.247-1.942-13.141-10.898-25.927-11.685z" fill="#eab1b7"/></g><g><path d="m238.828 216.946s-21.007-85.864-103.036-103.037c0 0-41.637 27.757-50.049 83.272-2.252 14.861 3.758 29.814 15.871 38.713 10.83 7.956 27.369 15.398 51.35 15.398 51.519 0 85.864-34.346 85.864-34.346z" fill="#cbafea"/></g><g><path d="m201.045 150.393c2.369 7.783 3.672 16.116 3.672 24.794 0 38.188-24.886 69.866-57.524 75.939 1.88.098 3.791.166 5.771.166 51.518 0 85.864-34.346 85.864-34.346s-8.916-36.409-37.783-66.553z" fill="#bc95e2"/></g><g><path d="m273.172 216.946s21.007-85.864 103.036-103.037c0 0 41.637 27.757 50.049 83.272 2.252 14.861-3.758 29.814-15.871 38.713-10.83 7.956-27.369 15.398-51.35 15.398-51.519 0-85.864-34.346-85.864-34.346z" fill="#cbafea"/></g><g><path d="m426.257 197.182c-8.412-55.515-50.049-83.272-50.049-83.272-7.847 1.643-15.131 3.918-21.896 6.683 20.829 13.248 34.886 38.258 34.886 66.951 0 26.514-11.996 49.895-30.252 63.747.03 0 .06.002.09.002 23.981 0 40.52-7.442 51.35-15.398 12.113-8.9 18.122-23.852 15.871-38.713z" fill="#bc95e2"/></g><g><path d="m401.794 139.496s.032.022.081.055c-12.849-17.091-25.668-25.641-25.668-25.641-82.029 17.173-103.036 103.037-103.036 103.037s10.077 10.059 27.476 19.29c6.681-20.111 32.615-82.394 101.147-96.741z" fill="#ffd8d5"/></g><g><path d="m376.208 113.91c-7.847 1.643-15.131 3.918-21.896 6.683 9.929 6.315 18.314 15.3 24.373 26.09 7.105-2.993 14.791-5.445 23.109-7.187 0 0 .032.022.081.055-12.848-17.091-25.667-25.641-25.667-25.641z" fill="#eab1b7"/></g><g><path d="m110.206 139.496s-.032.022-.081.055c12.849-17.091 25.668-25.641 25.668-25.641 82.029 17.173 103.036 103.037 103.036 103.037s-10.077 10.059-27.476 19.29c-6.681-20.111-32.615-82.394-101.147-96.741z" fill="#ffd8d5"/></g><g><path d="m201.045 150.393c2.369 7.783 3.672 16.116 3.672 24.794 0 11.453-2.255 22.312-6.269 32.081 6.73 11.98 10.786 22.594 12.904 28.969 17.399-9.231 27.476-19.29 27.476-19.29s-8.916-36.41-37.783-66.554z" fill="#eab1b7"/></g><g><path d="m402.951 350.008c-.591-4.101-4.404-6.939-8.493-6.354-4.1.591-6.944 4.394-6.354 8.493l15.444 107.203c-4.132-2.904-9.472-5.786-18.246-5.786-10.581 0-16.171 4.192-20.662 7.561-3.662 2.746-6.081 4.561-11.662 4.561-5.58 0-7.999-1.814-11.66-4.561-4.491-3.368-10.08-7.561-20.66-7.561s-16.169 4.192-20.66 7.561c-3.661 2.746-6.08 4.561-11.661 4.561s-8-1.814-11.662-4.561c-4.491-3.368-10.081-7.561-20.662-7.561s-16.172 4.192-20.663 7.561c-3.662 2.746-6.081 4.561-11.662 4.561-5.582 0-8.001-1.814-11.663-4.561-4.492-3.368-10.082-7.561-20.664-7.561-10.581 0-16.171 4.192-20.662 7.561-3.662 2.746-6.081 4.561-11.663 4.561-5.583 0-8.003-1.814-11.666-4.561-4.491-3.369-10.082-7.561-20.664-7.561-8.763 0-14.101 2.873-18.23 5.773l15.442-107.19c.59-4.1-2.255-7.902-6.354-8.493-4.093-.581-7.901 2.254-8.493 6.354l-22.105 153.423c-.31 2.153.33 4.336 1.755 5.98s3.493 2.589 5.669 2.589c10.586 0 16.177-4.192 20.67-7.561 3.661-2.746 6.081-4.56 11.66-4.56 5.58 0 7.999 1.814 11.66 4.561 4.491 3.368 10.08 7.56 20.66 7.56s16.169-4.191 20.66-7.56c3.661-2.746 6.08-4.561 11.66-4.561 5.579 0 7.998 1.814 11.659 4.56 4.491 3.368 10.08 7.561 20.66 7.561 10.586 0 16.177-4.192 20.67-7.561 3.661-2.746 6.081-4.56 11.66-4.56s7.999 1.813 11.66 4.56c4.493 3.368 10.084 7.561 20.67 7.561 10.58 0 16.169-4.191 20.66-7.56 3.661-2.746 6.08-4.561 11.66-4.561s7.999 1.814 11.66 4.561c4.491 3.368 10.08 7.56 20.66 7.56 10.579 0 16.168-4.191 20.659-7.56 3.661-2.746 6.08-4.561 11.66-4.561 5.579 0 7.999 1.813 11.66 4.56 4.493 3.368 10.084 7.561 20.67 7.561 2.176 0 4.244-.944 5.669-2.589s2.064-3.827 1.755-5.98zm3.007 142.43c-4.49-3.367-10.08-7.558-20.658-7.558-10.58 0-16.169 4.192-20.66 7.561-3.661 2.745-6.08 4.56-11.659 4.56-5.58 0-7.999-1.814-11.66-4.56-4.491-3.369-10.08-7.561-20.66-7.561s-16.169 4.191-20.66 7.561c-3.661 2.745-6.08 4.56-11.66 4.56-5.587 0-8.008-1.814-11.672-4.562-4.49-3.367-10.08-7.558-20.658-7.558s-16.168 4.19-20.658 7.558c-3.664 2.748-6.085 4.562-11.672 4.562-5.58 0-7.999-1.814-11.66-4.561-4.491-3.368-10.08-7.56-20.659-7.56-10.58 0-16.169 4.191-20.66 7.561-3.661 2.745-6.08 4.56-11.66 4.56s-7.999-1.814-11.66-4.56c-4.491-3.369-10.08-7.561-20.66-7.561-10.578 0-16.168 4.19-20.658 7.558-.934.7-1.786 1.339-2.631 1.903l2.255-15.655c3.961-1.538 6.869-3.709 9.343-5.562 3.667-2.746 6.089-4.561 11.675-4.561 5.583 0 8.003 1.814 11.666 4.561 4.491 3.369 10.082 7.561 20.664 7.561 10.581 0 16.172-4.192 20.663-7.561 3.662-2.746 6.081-4.561 11.662-4.561 5.582 0 8.002 1.814 11.664 4.561 4.492 3.368 10.082 7.561 20.663 7.561s16.171-4.192 20.662-7.561c3.662-2.746 6.081-4.561 11.663-4.561 5.581 0 8 1.814 11.662 4.561 4.491 3.368 10.081 7.561 20.662 7.561s16.17-4.192 20.661-7.561c3.661-2.746 6.08-4.561 11.66-4.561s7.999 1.814 11.66 4.561c4.491 3.368 10.08 7.561 20.66 7.561 10.581 0 16.171-4.192 20.662-7.561 3.662-2.746 6.081-4.561 11.662-4.561 5.584 0 8.006 1.814 11.671 4.561 2.478 1.856 5.392 4.031 9.362 5.57l2.254 15.647c-.845-.565-1.697-1.203-2.631-1.903z"/><path d="m97.174 241.939c7.667 5.631 16.234 9.861 25.633 12.676l-8.727 60.587c-.59 4.1 2.255 7.902 6.354 8.493.362.052.723.077 1.079.077 3.668 0 6.875-2.694 7.414-6.432l8.581-59.571c4.967.678 10.12 1.023 15.457 1.023 46.881 0 79.93-26.402 88.813-34.346h28.444c8.883 7.944 41.932 34.346 88.813 34.346 5.344 0 10.504-.346 15.477-1.025l8.581 59.574c.539 3.737 3.746 6.432 7.414 6.432.356 0 .717-.025 1.079-.077 4.1-.591 6.944-4.394 6.354-8.493l-8.727-60.592c9.391-2.815 17.952-7.044 25.613-12.672 14.319-10.52 21.54-28.1 18.846-45.881-7.807-51.52-42.225-80.198-51.208-86.892l-35.426-97.443c-2.549-7.012-9.273-11.723-16.733-11.723-6.072 0-11.664 3.046-14.959 8.148l-23.583 36.532c-4.222 2.432-18.543 9.869-35.763 9.869-17.088 0-31.534-7.459-35.77-9.88l-23.577-36.523c-3.294-5.1-8.885-8.146-14.958-8.146-7.461 0-14.186 4.711-16.734 11.722l-35.425 97.444c-8.983 6.693-43.401 35.371-51.208 86.892-2.694 17.781 4.526 35.361 18.846 45.881zm308.772-12.089c-12.595 9.252-28.378 13.942-46.911 13.942-19.16 0-35.884-5.156-49.062-11.338 8.558-22.222 33.185-70.602 88.678-84.533 8.725 12.566 17.005 29.367 20.19 50.384 1.856 12.25-3.085 24.338-12.895 31.545zm-17.417-94.682c-56.194 17.112-82.115 65.719-91.845 90.104-6.837-4.21-11.949-8.193-14.986-10.756 5.322-16.612 28.899-77.337 92.812-92.542 2.917 2.275 8.132 6.685 14.019 13.194zm-60.583-118.883c.521-.805 1.401-1.285 2.358-1.285 1.175 0 2.234.742 2.636 1.847l33.362 91.767c-31.883 8.841-58.945 29.141-78.642 59.138-11.37 17.315-17.447 33.444-20.102 41.695h-4.058v-93.327zm-71.946 53.264c7.902 0 15.258-1.265 21.65-3.006l-21.65 33.538-21.65-33.538c6.392 1.741 13.748 3.006 21.65 3.006zm-76.941-52.703c.401-1.104 1.461-1.846 2.636-1.846.957 0 1.838.48 2.357 1.283l64.448 99.837v93.326h-4.058c-2.655-8.251-8.732-24.38-20.102-41.695-19.697-29.996-46.759-50.297-78.642-59.138zm-41.553 105.131c30.371 7.207 55.262 25.224 74.022 53.594 10.796 16.325 16.485 31.773 18.779 38.96-3.029 2.569-8.133 6.563-14.976 10.783-9.714-24.364-35.62-72.992-91.807-90.129 5.876-6.506 11.077-10.927 13.982-13.208zm-44.348 76.329c3.177-20.961 11.491-37.776 20.246-50.369 55.482 13.961 80.098 62.364 88.638 84.559-13.152 6.162-29.863 11.296-49.078 11.296-18.533 0-34.316-4.69-46.91-13.941-9.81-7.208-14.751-19.296-12.896-31.545z"/></g></g></svg>