<svg id="Layer_1" enable-background="new 0 0 512.73 512.73" height="512" viewBox="0 0 512.73 512.73" width="512" xmlns="http://www.w3.org/2000/svg"><g><g><g><path d="m405.054 285.464s28.574 61.487 21.698 202.832h-157.748s-1.105-43.049-12.442-61.6c-10.531 18.535-12.442 61.6-12.442 61.6h-157.75c-6.876-141.345 21.698-202.832 21.698-202.832z" fill="#97e3fc"/><g><path d="m405.054 285.464h-40s28.574 61.488 21.698 202.832h40c6.877-141.345-21.698-202.832-21.698-202.832z" fill="#88e0fc"/></g><g><path d="" fill="#97e3fc"/><path d="" fill="#97e3fc"/><path d="m369.35 22.368-66.442 66.681c-7.276 7.303-11.471 16.836-11.802 26.824l-.026.793h-69.733c.057-10.505-4.172-20.633-11.822-28.311l-65.751-65.987 28.314-14.868 52.794 52.984c8.197 8.227 19.669 12.897 31.679 12.897 12.01 0 23.482-4.67 31.679-12.897l52.794-52.984z" fill="#6ac2de"/><g><path d="m405.054 315.537h-296.986v-30.073s52.3-37.566 52.3-169.865h192.386c0 132.299 52.3 169.865 52.3 169.865z" fill="#97e3fc"/><path d="m352.754 115.599h-40c0 132.299 52.3 169.865 52.3 169.865v30.073h40v-30.073s-52.3-37.566-52.3-169.865z" fill="#88e0fc"/><path d="m308.069 214.991-51.508 28.516-51.507-28.516v-62.289h103.015z" fill="#ccf7fc"/><g><path d="m108.068 285.464s-4.481 9.646-9.468 30.073h315.922c-4.986-20.427-9.468-30.073-9.468-30.073z" fill="#6ac2de"/></g><path d="m405.054 285.464h-40s4.481 9.646 9.468 30.073h40c-4.986-20.427-9.468-30.073-9.468-30.073z" fill="#5abbdb"/></g><g><g><g><path d="m143.171 7.5h28.918v66.066h-28.918z" fill="#97e3fc"/></g><circle cx="157.629" cy="120" fill="#fff345" r="16"/></g><g><g><path d="m340.432 7.5h28.918v66.066h-28.918z" fill="#97e3fc"/></g></g></g></g><ellipse cx="165.289" cy="488.296" fill="#6ac2de" rx="78.997" ry="16.204"/><ellipse cx="347.792" cy="488.296" fill="#6ac2de" rx="78.997" ry="16.204"/><path d="m88.901 373.251c58.712-5.245 60.385-57.635 60.385-57.635l-50.686-.079s-4.414 18.36-6.702 34.411c-2.287 16.052-2.997 23.303-2.997 23.303z" fill="#ccf7fc"/><path d="m424.229 373.318c-58.712-5.245-60.271-57.635-60.271-57.635l50.686-.079s4.414 18.36 6.702 34.411c2.287 16.052 2.883 23.303 2.883 23.303z" fill="#ccf7fc"/><path d="m381.345 350.015c.289 2.025.55 3.909.787 5.657 8.933 8.706 22.244 15.872 42.097 17.646 0 0-.596-7.251-2.884-23.303s-6.702-34.411-6.702-34.411l-39.985.062c.275 1.15 4.475 18.828 6.687 34.349z" fill="#bbf5fc"/><g><path d="m257.064 380.212h-1.006c-8.303 0-15.034-6.731-15.034-15.034v-49.641h31.073v49.641c.001 8.303-6.73 15.034-15.033 15.034z" fill="#6ac2de"/></g></g><circle cx="354.891" cy="120" fill="#fff345" r="16"/></g><g><path d="m430.346 360.627c-3.26-25.734-7.659-53.705-18.208-77.697-.425-1.179-1.491-2.684-2.667-3.528-31.602-25.068-47.597-98.789-48.427-136.726 12.644-3.436 20.264-17.364 16.205-29.899l9.048-23.843c3.246-8.552-1.303-17.956-9.449-21.419v-60.015c0-4.142-3.357-7.5-7.5-7.5h-28.918c-2.98 0-5.546 1.742-6.756 4.259l-50.747 50.931c-14.094 14.143-38.639 14.143-52.732 0l-52.794-52.984c-1.397-1.397-3.336-2.206-5.312-2.206h-28.918c-4.143 0-7.5 3.358-7.5 7.5v60.287c-7.791 3.657-12.002 12.835-8.847 21.148l8.73 23.004c-4.722 12.891 3.21 27.648 16.514 30.89-.604 10.04-1.551 19.788-2.833 29.058-1.293 9.338 13.505 11.826 14.857 2.058 1.433-10.35 2.467-21.253 3.084-32.478 7.31-3.264 12.656-10.15 13.744-18.366h150.682c1.118 8.446 6.734 15.488 14.359 18.633 4.249 76.675 26.711 117.387 41.522 136.231h-261.887c8.953-11.402 20.72-30.793 29.56-61.261 2.703-9.314-11.702-13.491-14.406-4.18-14.332 49.399-36.651 66.543-37.094 66.876-32.972 61.187-24.101 142.225-24.866 208.895.002 12.973 19.78 16.887 29.132 18.806 36.597 7.507 78.154 7.503 114.733 0 9.876-2.026 30.692-6.269 29.041-20.167.464-8.308 1.957-24.198 5.039-37.932 3.077 13.545 4.368 29.23 4.704 37.573-2.204 14.101 19.541 18.588 28.984 20.526 36.597 7.506 78.154 7.503 114.733 0 7.968-1.634 29.131-5.976 29.131-18.805.002-42.833 1.51-85.012-3.941-127.669zm-75.456-232.127c-4.687 0-8.5-3.813-8.5-8.5.399-11.25 16.602-11.247 17 0 0 4.687-3.813 8.5-8.5 8.5zm14.829-47.434c1.888.088 2.74.937 2.556 2.547l-6.009 15.833c-6.839-3.801-15.326-3.9-22.251-.269l-5.907-15.565c-.184-1.61.668-2.459 2.557-2.547h28.685.369zm-45.634 7.869 7.274 19.165h-31.417c3.6-11.858 15.106-20.609 23.568-29.101-.839 3.238-.665 6.671.575 9.936zm37.764-22.869h-13.918v-51.066h13.918zm-105.288 14.815c13.944 0 27.428-5.505 36.991-15.104l39.379-39.52v22.034l-35.337 35.464c-6.73 6.754-11.273 15.26-13.099 24.344h-56.418c-1.721-9.348-6.299-18.072-13.24-25.039l-35.248-35.375v-22.033l39.981 40.125c9.564 9.599 23.047 15.104 36.991 15.104zm-109.807 18.297-5.907-15.565c-.184-1.61.668-2.459 2.556-2.547h28.686c1.119.065 3.542.923 2.925 2.547l-6.009 15.833c-6.84-3.8-15.326-3.9-22.251-.268zm42.283-10.242c1.24-3.266 1.414-6.699.576-9.938 8.476 8.506 19.742 17.08 23.084 29.102h-30.933zm-38.366-73.936h13.918v51.066h-13.918zm-1.541 105c0-4.687 3.813-8.5 8.5-8.5 11.25.399 11.247 16.602 0 17-4.687 0-8.5-3.813-8.5-8.5zm88.605 353.686c-22.328-8.586-48.821-9.094-72.446-9.094-23.408 0-49.823.386-72.013 8.888-1.21-36.983.087-68.045 2.544-93.511 39.176-6.765 54.46-30.279 60.092-56.932h77.613v42.141c0 9.983 6.527 18.466 15.537 21.417v38.225c-6.686 13.185-9.876 34.664-11.327 48.866zm-133.116-150.64 36.026.056c-2.743 12.161-12.006 34.886-43.108 41.323 2.079-16.608 4.606-30.359 7.082-41.379zm152.445 49.666c-4.482.435-8.569-2.948-8.54-7.534v-42.141h16.074v42.141c0 4.155-3.379 7.534-7.534 7.534zm-148.692-64.675c1.911-6.864 3.603-11.869 4.781-15.073h286.815c1.179 3.206 2.871 8.212 4.781 15.073zm300.146 15.077c2.474 11.024 4.999 24.774 7.075 41.376-31.104-6.44-40.308-29.182-43.017-41.32zm-243.229 173.886c-36.417 0-59.987-4.95-68.688-8.704 22.876-11.325 114.71-11.265 137.378 0-8.704 3.753-32.275 8.704-68.69 8.704zm182.503 0c-36.417 0-59.988-4.951-68.689-8.704 5.981-4.177 50.848-10.44 80.916-8.504 9.67.279 10.189-14.679.486-14.993-31.109-.463-58.675.189-84.926 8.757-1.299-14.241-4.369-35.629-11.518-48.854v-38.107c9.01-2.951 15.537-11.434 15.537-21.417v-42.141h77.709c5.561 26.671 20.797 50.228 60.002 56.998 2.454 25.463 3.747 56.513 2.536 93.479-4.812-1.808-10.876-3.365-18.296-4.716-9.539-1.742-12.229 13.019-2.688 14.757 9.254 1.686 14.574 3.458 17.548 4.771-8.757 3.75-32.299 8.674-68.617 8.674z"/><path d="m252.928 250.069c2.263 1.214 5.005 1.233 7.266 0l51.508-28.516c2.387-1.321 3.867-3.834 3.867-6.562v-62.29c0-4.142-3.357-7.5-7.5-7.5-.006-.005-51.667.004-51.674 0h-51.342c-4.143 0-7.5 3.358-7.5 7.5v62.29c0 2.728 1.48 5.24 3.867 6.562.001 0 51.508 28.516 51.508 28.516zm47.641-39.498-36.529 20.223-.119-70.593h36.648zm-88.016-50.369h36.367l.119 70.569-36.486-20.2z"/></g></g></svg>