<svg id="Capa_1" enable-background="new 0 0 512 512" height="512" viewBox="0 0 512 512" width="512" xmlns="http://www.w3.org/2000/svg"><g><g><path d="m339.499 249.5-81.99-19.5-85.01 19.5c-11.046 0-20 8.954-20 20v225c0 5.523 4.477 10 10 10h61c5.523 0 10-4.477 10-10v-167.012c0-3.317 3.174-5.718 6.363-4.803 10.758 3.086 21.516 3.086 32.274 0 3.189-.915 6.363 1.486 6.363 4.803v167.012c0 5.523 4.477 10 10 10h61c5.523 0 10-4.477 10-10v-225c0-11.046-8.955-20-20-20z" fill="#f9e385"/><path d="m359.499 269.5v204h-30v-204c0-11.05-8.95-20-20-20h30c11.05 0 20 8.95 20 20z" fill="#f9c269"/><path d="m359.499 374.09v60.82c-3.15 1.03-6.51 1.59-10 1.59-17.67 0-32-14.33-32-32 0-8.84 3.58-16.84 9.37-22.63s13.79-9.37 22.63-9.37c3.49 0 6.85.56 10 1.59z" fill="#fff3c0"/><path d="m359.499 374.09v60.82c-3.15 1.03-6.51 1.59-10 1.59-7.57 0-14.52-2.62-20-7.02v-49.95c5.48-4.41 12.43-7.03 20-7.03 3.49 0 6.85.56 10 1.59z" fill="#f9e385"/><path d="m319.499 325.5c0 8.56-3.47 16.31-9.08 21.92s-13.36 9.08-21.92 9.08c-3.5 0-6.86-.58-10-1.65v-27.36c0-3.32-3.17-5.72-6.36-4.8-4.88 1.4-9.75 2.16-14.63 2.28.13-8.35 3.58-15.9 9.07-21.39 5.61-5.61 13.36-9.08 21.92-9.08s16.31 3.47 21.92 9.08 9.08 13.36 9.08 21.92z" fill="#fff3c0"/><path d="m189.499 366c0 10.36-4.2 19.73-10.98 26.52-6.68 6.67-15.86 10.84-26.02 10.97v-74.98c10.16.13 19.34 4.3 26.02 10.97 6.78 6.79 10.98 16.16 10.98 26.52z" fill="#fff3c0"/><path d="m233.499 473.5v21c0 5.52-4.48 10-10 10h-61c-5.52 0-10-4.48-10-10v-21z" fill="#b2a6f4"/><path d="m359.499 473.5v21c0 5.52-4.48 10-10 10h-61c-5.52 0-10-4.48-10-10v-21z" fill="#b2a6f4"/><path d="m359.499 473.5v21c0 5.52-4.48 10-10 10h-30c5.52 0 10-4.48 10-10v-21z" fill="#8686d1"/><path d="m155.64 24.982-140.723 200.713c-3.168 4.524-2.068 10.76 2.456 13.927l50.787 35.562c4.524 3.168 10.76 2.068 13.927-2.456l72.254-103.189z" fill="#f9e385"/><path d="m152.499 139.27v32.9l-24.58 35.1c-11.55-6.13-19.42-18.28-19.42-32.27 0-10.08 4.08-19.2 10.69-25.81s15.73-10.69 25.81-10.69c2.57 0 5.08.27 7.5.77z" fill="#fff3c0"/><path d="m339.499 249.5h-167c-11.046 0-20-8.954-20-20v-192c0-16.569 13.431-30 30-30h37c24.333 12.667 48.667 12.667 73 0h37c16.569 0 30 13.431 30 30v192c0 11.046-8.955 20-20 20z" fill="#b2a6f4"/><path d="m359.499 37.5v192c0 11.05-8.95 20-20 20h-30c4.62 0 8.88-1.57 12.27-4.22h.01c4.7-3.65 7.72-9.36 7.72-15.78v-192c0-16.57-13.43-30-30-30h30c16.57 0 30 13.43 30 30z" fill="#8686d1"/><path d="m262.276 96.42 9.364 18.973c1.457 2.951 4.272 4.997 7.529 5.47l20.938 3.043c5.742.834 8.034 7.89 3.879 11.94l-15.151 14.769c-2.357 2.297-3.432 5.607-2.876 8.851l3.577 20.854c.981 5.718-5.021 10.079-10.157 7.379l-18.728-9.846c-2.913-1.532-6.394-1.532-9.307 0l-18.728 9.846c-5.135 2.7-11.137-1.661-10.157-7.379l3.577-20.854c.556-3.244-.519-6.554-2.876-8.851l-15.151-14.769c-4.155-4.05-1.862-11.106 3.88-11.94l20.938-3.043c3.257-.473 6.073-2.519 7.529-5.47l9.364-18.973c2.569-5.203 9.988-5.203 12.556 0z" fill="#fff"/><path d="m292.499 7.5v1.5c0 20.16-16.34 36.5-36.5 36.5-10.08 0-19.2-4.08-25.81-10.69s-10.69-15.73-10.69-25.81v-1.5c24.33 12.67 48.67 12.67 73 0z" fill="#8686d1"/><path d="m93.559 256.35-11.47 16.38c-3.17 4.52-9.4 5.62-13.93 2.45l-50.79-35.56c-4.52-3.17-5.62-9.4-2.45-13.93l11.48-16.37z" fill="#b2a6f4"/><path d="m356.884 25.73 140.198 199.965c3.168 4.524 2.068 10.76-2.456 13.927l-50.787 35.562c-4.524 3.168-10.759 2.068-13.927-2.456l-71.079-101.512z" fill="#f9e385"/><path d="m485.601 209.319-24.574 17.207-103.432-147.524-.716-53.273z" fill="#f9c269"/><path d="m453.931 164.14c-6.21 3.42-13.34 5.36-20.93 5.36-24.02 0-43.5-19.48-43.5-43.5 0-12.01 4.87-22.88 12.74-30.76.66-.66 1.34-1.3 2.04-1.91z" fill="#fff3c0"/><path d="m453.932 164.143c-6.211 3.421-13.338 5.36-20.934 5.356-4.688-.001-9.211-.741-13.448-2.12l-30.017-42.816c.365-11.438 5.151-21.759 12.71-29.323.662-.659 1.335-1.301 2.031-1.911z" fill="#f9e385"/><path d="m494.631 239.62-50.79 35.56c-4.53 3.17-10.76 2.07-13.93-2.45l-11.47-16.38 67.16-47.03 11.48 16.37c3.17 4.53 2.07 10.76-2.45 13.93z" fill="#b2a6f4"/><path d="m497.081 225.696c3.166 4.522 2.074 10.755-2.448 13.922l-24.575 17.207c4.522-3.166 5.614-9.4 2.448-13.922l-11.48-16.377 24.575-17.207z" fill="#8686d1"/></g><g><path d="m503.222 221.389-138.847-198.038c-.099-.141-.208-.272-.315-.404-5.694-13.47-19.041-22.947-34.56-22.947h-37c-1.206 0-2.394.291-3.463.847-22.23 11.572-43.844 11.572-66.074 0-1.07-.556-2.258-.847-3.463-.847h-37c-15.472 0-28.783 9.419-34.506 22.824l-139.22 198.569c-2.681 3.829-3.71 8.473-2.899 13.077.812 4.604 3.368 8.615 7.197 11.296l50.788 35.562c3.048 2.134 6.546 3.158 10.012 3.158 5.522 0 10.96-2.601 14.36-7.457l56.768-81.072v33.543c0 7.875 3.332 14.982 8.655 20-5.322 5.018-8.655 12.125-8.655 20v225c0 9.649 7.851 17.5 17.5 17.5h61c9.649 0 17.5-7.851 17.5-17.5v-163.768c9.969 2.35 20.032 2.35 30 0v163.768c0 9.649 7.851 17.5 17.5 17.5h61c9.649 0 17.5-7.851 17.5-17.5v-225c0-7.875-3.333-14.982-8.655-20 5.323-5.018 8.655-12.125 8.655-20v-33.543l45.293 64.685c.001.001.002.003.003.005l.003.003 11.469 16.379c3.4 4.856 8.838 7.457 14.36 7.457 3.466 0 6.965-1.024 10.013-3.159l50.787-35.562c3.829-2.681 6.385-6.693 7.197-11.296.811-4.603-.218-9.247-2.903-13.08zm-99.691-116.061 38.865 55.432c-3.036.82-6.178 1.24-9.396 1.24-19.851 0-36-16.149-36-36 0-7.502 2.293-14.653 6.531-20.672zm-120.634-85.507c-4.298 10.645-14.731 18.179-26.897 18.179s-22.599-7.534-26.898-18.179c17.895 6.238 35.902 6.238 53.795 0zm-137.897 111.179c-11.754 0-22.803 4.577-31.113 12.887s-12.887 19.359-12.887 31.113c0 13.376 6.154 25.949 16.393 34.233l-25.675 36.667-54.87-38.42 108.152-154.257zm-72.537 138.041-50.787-35.562c-1.164-.99-1.37-2.149-.617-3.478l7.179-10.239 54.877 38.425-7.17 10.239c-.79 1.13-2.353 1.405-3.482.615zm53.553-72.124c-6.278-5.459-10.016-13.448-10.016-21.917 0-7.747 3.016-15.03 8.493-20.507s12.76-8.493 20.507-8.493v23.805zm33.984 140.178c4.957 1.374 9.536 4.014 13.213 7.685 5.666 5.675 8.787 13.211 8.787 21.22s-3.121 15.545-8.779 21.213c-3.679 3.673-8.264 6.312-13.221 7.687zm63.5 159.905h-61c-1.378 0-2.5-1.122-2.5-2.5v-13.5h66v13.5c0 1.378-1.122 2.5-2.5 2.5zm46.568-181.524c-1.061.305-2.119.57-3.174.806 1.167-2.733 2.842-5.252 4.989-7.399 4.438-4.439 10.34-6.883 16.616-6.883 6.277 0 12.179 2.444 16.617 6.884 4.438 4.438 6.883 10.339 6.883 16.616s-2.444 12.178-6.884 16.617c-4.437 4.439-10.338 6.883-16.615 6.883-.838 0-1.671-.054-2.5-.141v-21.37c0-3.96-1.814-7.599-4.978-9.982-3.161-2.382-7.154-3.123-10.954-2.031zm79.432 181.524h-61c-1.379 0-2.5-1.122-2.5-2.5v-13.5h66v13.5c0 1.378-1.121 2.5-2.5 2.5zm2.5-68.141c-.829.084-1.662.141-2.5.141-13.51 0-24.5-10.991-24.5-24.5 0-6.548 2.548-12.701 7.174-17.327 4.625-4.626 10.779-7.173 17.326-7.173.837 0 1.671.054 2.5.138zm15-259.032v-64.327c0-4.142-3.357-7.5-7.5-7.5s-7.5 3.358-7.5 7.5v124c0 6.893-5.607 12.5-12.5 12.5h-106.5c-4.142 0-7.5 3.358-7.5 7.5s3.358 7.5 7.5 7.5h106.5c6.893 0 12.5 5.607 12.5 12.5v95.579c-.831-.052-1.665-.079-2.5-.079-10.554 0-20.475 4.108-27.933 11.566-7.459 7.459-11.567 17.379-11.567 27.934 0 21.78 17.72 39.5 39.5 39.5.835 0 1.669-.034 2.5-.087v22.087h-66v-102.083c.831.054 1.665.083 2.5.083 10.284 0 19.952-4.005 27.223-11.276 7.272-7.272 11.277-16.94 11.277-27.224s-4.005-19.952-11.276-27.223c-7.271-7.272-16.94-11.277-27.224-11.277-10.283 0-19.951 4.005-27.224 11.277-5.244 5.245-8.814 11.831-10.375 18.964-2.975-.314-5.959-.901-8.97-1.765-3.801-1.091-7.793-.351-10.954 2.029-3.163 2.383-4.978 6.022-4.978 9.982v138.513h-66v-55.727c8.961-1.619 17.333-5.969 23.827-12.453 8.496-8.508 13.174-19.808 13.174-31.82s-4.678-23.312-13.181-31.827c-6.493-6.484-14.856-10.828-23.819-12.447v-52.226c0-6.893 5.607-12.5 12.5-12.5h25.5c4.142 0 7.5-3.358 7.5-7.5s-3.358-7.5-7.5-7.5h-25.5c-6.893 0-12.5-5.607-12.5-12.5v-192c0-12.407 10.093-22.5 22.5-22.5h29.92c2.937 21.432 21.355 38 43.58 38s40.644-16.568 43.58-38h29.92c12.406 0 22.5 10.093 22.5 22.5v33c0 4.142 3.357 7.5 7.5 7.5s7.5-3.358 7.5-7.5v-17.277l27.548 39.292c-8.109 9.294-12.548 21.049-12.548 33.485 0 28.122 22.879 51 51 51 6.369 0 12.534-1.16 18.379-3.427l23.772 33.906-54.87 38.42-53.13-75.878c-.047-.067-.102-.128-.151-.194zm123.324 63.652-50.787 35.562c-1.13.792-2.69.516-3.482-.614l-7.17-10.239 54.877-38.425 7.176 10.235c.757 1.329.552 2.49-.614 3.481z"/><path d="m301.188 116.484-20.939-3.043c-.814-.118-1.518-.629-1.882-1.367l-9.364-18.974c-2.462-4.985-7.444-8.083-13.004-8.082-5.559 0-10.541 3.097-13.002 8.083l-9.364 18.974c-.364.738-1.067 1.249-1.882 1.367l-20.938 3.043c-5.502.799-9.988 4.581-11.706 9.868-1.718 5.288-.312 10.983 3.669 14.864l15.151 14.769c.589.575.858 1.401.719 2.213l-3.577 20.854c-.939 5.48 1.271 10.914 5.769 14.182 4.498 3.269 10.348 3.69 15.27 1.104l18.728-9.846c.729-.383 1.6-.382 2.327 0l18.729 9.847c2.14 1.125 4.456 1.681 6.761 1.681 2.993 0 5.968-.938 8.509-2.785 4.498-3.268 6.709-8.702 5.769-14.182l-3.576-20.853c-.14-.812.13-1.64.719-2.214l15.151-14.769c3.981-3.881 5.387-9.576 3.669-14.864-1.72-5.29-6.205-9.071-11.706-9.87zm-17.587 28.761c-4.124 4.021-6.006 9.81-5.032 15.489l3.405 19.855-17.832-9.375c-2.549-1.34-5.346-2.01-8.143-2.01s-5.594.67-8.144 2.01l-17.831 9.375 3.405-19.855c.974-5.678-.907-11.469-5.033-15.49l-14.425-14.062 19.935-2.897c5.702-.828 10.627-4.407 13.177-9.573l8.917-18.065 8.915 18.064c2.549 5.167 7.476 8.746 13.177 9.574l19.936 2.897z"/></g></g></svg>