<svg id="Capa_1" enable-background="new 0 0 512 512" height="512" viewBox="0 0 512 512" width="512" xmlns="http://www.w3.org/2000/svg"><g><g><path d="m29.724 94.374c0-17.853 14.472-32.325 32.325-32.325s32.325 14.472 32.325 32.325z" fill="#ffd8d5"/></g><g><path d="m94.374 94.374c0-17.853 14.472-32.325 32.325-32.325s32.325 14.472 32.325 32.325z" fill="#ffd8d5"/></g><g><path d="m159.024 94.374c0-17.853 14.472-32.325 32.325-32.325s32.325 14.472 32.325 32.325z" fill="#ffd8d5"/></g><g><path d="m223.675 94.374c0-17.853 14.472-32.325 32.325-32.325s32.325 14.472 32.325 32.325z" fill="#ffd8d5"/></g><g><path d="m288.325 94.374c0-17.853 14.473-32.325 32.325-32.325 17.853 0 32.325 14.472 32.325 32.325z" fill="#ffd8d5"/></g><g><path d="m352.976 94.374c0-17.853 14.472-32.325 32.325-32.325s32.325 14.472 32.325 32.325z" fill="#ffd8d5"/></g><g><path d="m417.626 94.374c0-17.853 14.473-32.325 32.325-32.325 17.853 0 32.325 14.472 32.325 32.325z" fill="#ffd8d5"/></g><g><path d="m504.5 159.024c-38.386 177.789-216.175 290.928-216.175 290.928v-290.928z" fill="#ac80dd"/></g><g><path d="m7.5 159.024c38.386 177.789 216.175 290.928 216.175 290.928v-290.928z" fill="#ac80dd"/></g><g><path d="m504.5 126.699v32.325s-216.175 25.11-216.175 290.928h-64.65c0-265.818-216.175-290.928-216.175-290.928v-32.325z" fill="#cbafea"/></g><g><g><path d="m381.839 126.699c2.265 13.766 3.462 28.028 3.462 42.643 0 16.429-1.51 32.411-4.354 47.743 58.673-50.523 123.554-58.062 123.554-58.062v-32.325h-122.662z" fill="#bc95e2"/></g></g><g><path d="m7.5 94.374h497v32.325h-497z" fill="#ddc8f1"/></g><g><path d="m374.296 94.374c3.175 10.399 5.712 21.198 7.543 32.325h122.661v-32.325z" fill="#cbafea"/></g><path d="m504.5 86.874h-15.442c-3.519-18.385-19.711-32.325-39.107-32.325-13.299 0-25.088 6.559-32.325 16.606-7.237-10.046-19.026-16.606-32.325-16.606s-25.088 6.559-32.325 16.606c-7.237-10.046-19.026-16.606-32.325-16.606s-25.088 6.559-32.325 16.606c-7.238-10.047-19.027-16.606-32.326-16.606s-25.088 6.559-32.325 16.606c-7.237-10.046-19.026-16.606-32.325-16.606s-25.088 6.559-32.325 16.606c-7.237-10.046-19.026-16.606-32.325-16.606s-25.088 6.559-32.325 16.606c-7.237-10.046-19.026-16.606-32.325-16.606-19.396 0-35.588 13.94-39.107 32.325h-15.443c-4.143 0-7.5 3.358-7.5 7.5v64.65c0 .542.064 1.07.175 1.582l-.006.001c8.937 41.393 26.071 82.719 50.927 122.83 19.81 31.967 44.544 63.242 73.517 92.958 49.287 50.551 93.191 78.71 95.036 79.885l.003-.005c1.163.742 2.541 1.177 4.023 1.177h64.65c1.482 0 2.86-.436 4.023-1.177l.003.005c2.106-1.341 52.201-33.488 105.386-90.76 2.818-3.035 2.643-7.781-.393-10.599-3.036-2.82-7.781-2.643-10.6.392-36.794 39.621-72.752 67.35-90.677 80.205 3.043-100.185 38.048-175.595 104.218-224.25 37.865-27.843 76.188-38.874 94.308-42.823-13.836 54.847-42.408 108.882-85.042 160.784-2.629 3.201-2.165 7.927 1.035 10.556 1.396 1.146 3.081 1.705 4.757 1.705 2.166 0 4.316-.935 5.8-2.74 47.01-57.231 77.522-117.167 90.688-178.142l-.005-.001c.11-.512.174-1.04.174-1.582v-64.65c0-4.143-3.357-7.501-7.5-7.501zm-54.549-17.325c11.075 0 20.477 7.292 23.665 17.325h-47.329c3.187-10.034 12.589-17.325 23.664-17.325zm-64.65 0c11.075 0 20.477 7.292 23.665 17.325h-47.329c3.187-10.034 12.589-17.325 23.664-17.325zm-64.651 0c11.075 0 20.477 7.292 23.665 17.325h-47.329c3.187-10.034 12.589-17.325 23.664-17.325zm-64.65 0c11.075 0 20.477 7.292 23.665 17.325h-47.329c3.187-10.034 12.589-17.325 23.664-17.325zm-64.65 0c11.075 0 20.477 7.292 23.665 17.325h-47.329c3.186-10.034 12.588-17.325 23.664-17.325zm-64.651 0c11.075 0 20.477 7.292 23.665 17.325h-47.329c3.187-10.034 12.589-17.325 23.664-17.325zm-64.65 0c11.075 0 20.477 7.292 23.665 17.325h-47.33c3.188-10.034 12.59-17.325 23.665-17.325zm329.937 129.202c-32.335 23.637-58.096 53.982-76.565 90.193-22.022 43.179-33.631 94.792-34.538 153.506h-49.766c-.785-50.667-9.552-96.167-26.09-135.338-14.542-34.442-35.202-64.329-61.406-88.829-3.025-2.828-7.771-2.669-10.601.356-2.829 3.026-2.669 7.771.356 10.601 52.127 48.736 79.855 118.094 82.56 206.281-16.332-11.709-47.632-35.76-80.852-69.874-42.321-43.461-96.163-112.299-117.648-197.2 17.395 3.792 53.333 14.092 89.602 39.464 1.309.916 2.808 1.355 4.292 1.355 2.365 0 4.693-1.116 6.152-3.201 2.374-3.394 1.548-8.07-1.847-10.445-43.015-30.092-84.77-40.101-100.635-43.003v-18.418h186.661c-1.06 2.685-1.65 5.605-1.65 8.663 0 13.047 10.615 23.663 23.663 23.663 6.39 0 12.58-1.92 18.039-4.523l-8.992 26.976c-1.31 3.929.813 8.177 4.743 9.487.787.262 1.587.387 2.373.387 3.14 0 6.066-1.987 7.114-5.13l9.049-27.144 9.048 27.143c1.048 3.143 3.974 5.13 7.114 5.13.786 0 1.586-.125 2.373-.387 3.93-1.31 6.053-5.558 4.743-9.487l-8.992-26.976c5.459 2.603 11.649 4.523 18.039 4.523 13.048 0 23.663-10.615 23.663-23.663 0-3.057-.589-5.978-1.65-8.663h32.233c4.143 0 7.5-3.358 7.5-7.5s-3.357-7.5-7.5-7.5h-327.571v-17.325h482v17.325h-119.408c-4.143 0-7.5 3.358-7.5 7.5s3.357 7.5 7.5 7.5h119.408v18.417c-16.41 3-60.498 13.596-105.014 46.136zm-94.998-55.889c0 4.776-3.887 8.663-8.663 8.663-7.108 0-15.049-4.513-20.697-8.662 5.65-4.152 13.59-8.663 20.697-8.663 4.777-.001 8.663 3.885 8.663 8.662zm-52.616-.001c-5.65 4.152-13.59 8.663-20.697 8.663-4.776 0-8.663-3.886-8.663-8.663s3.887-8.663 8.663-8.663c7.108.001 15.049 4.514 20.697 8.663z"/></g></svg>