<svg id="Capa_1" enable-background="new 0 0 512 512" height="512" viewBox="0 0 512 512" width="512" xmlns="http://www.w3.org/2000/svg"><g><g><path d="m70.13 159.026-58.918 181.505c-2.459 7.577-3.712 15.493-3.712 23.459v1.901c0 41.963 34.018 75.98 75.98 75.98h345.04c41.963 0 75.98-34.017 75.98-75.98 0-7.888-1.228-15.728-3.641-23.239l-58.989-183.626z" fill="#665e66"/></g><g><path d="m500.859 342.652-58.989-183.626h-38.386l58.989 183.627c2.412 7.51 3.641 15.35 3.641 23.239 0 41.963-34.018 75.98-75.98 75.98h38.386c41.963 0 75.98-34.018 75.98-75.98 0-7.89-1.228-15.73-3.641-23.24z" fill="#544f57"/></g><g><path d="m266.744 126.7c-7.323-6.46-11.703-16.177-10.85-26.89 1.258-15.796 14.121-28.511 29.93-29.6 18.888-1.301 34.615 13.636 34.615 32.246v16.163c0 22.316-18.091 40.407-40.406 40.407h-218.195c-8.926 0-16.163-7.236-16.163-16.163 0-8.926 7.236-16.163 16.163-16.163z" fill="#eab14d"/></g><g><path d="m245.044 126.7c7.323-6.46 11.703-16.177 10.85-26.89-1.258-15.796-14.121-28.511-29.93-29.6-18.888-1.301-34.615 13.636-34.615 32.246v16.163c0 22.316 18.091 40.407 40.407 40.407h218.195c8.926 0 16.163-7.236 16.163-16.163 0-8.926-7.236-16.163-16.163-16.163z" fill="#ffe07d"/></g><g><circle cx="256" cy="300.448" fill="#ffe07d" r="90.915"/></g><g><path d="m311.123 228.153c11.678 15.293 18.619 34.396 18.619 55.123 0 50.211-40.704 90.915-90.915 90.915-20.727 0-39.83-6.941-55.123-18.619 16.611 21.753 42.812 35.792 72.296 35.792 50.211 0 90.915-40.704 90.915-90.915 0-29.484-14.039-55.685-35.792-72.296z" fill="#ffd064"/></g><g><circle cx="256" cy="300.448" fill="#eab14d" r="50.508"/></g><g><path d="m508 340.359-55.876-173.937c12.033-1.101 21.491-11.244 21.491-23.559 0-13.047-10.615-23.662-23.663-23.662h-63.478c-4.143 0-7.5 3.357-7.5 7.5s3.357 7.5 7.5 7.5h63.478c4.776 0 8.663 3.886 8.663 8.662s-3.887 8.663-8.663 8.663h-8.09c-.032 0-.065 0-.097 0l-210.201-.005c-18.056-.104-32.714-14.821-32.714-32.901v-16.163c0-6.956 2.802-13.402 7.89-18.151 5.082-4.744 11.721-7.101 18.71-6.612 11.993.826 21.767 10.385 22.918 22.309-.1 1.667-.097 3.314.009 4.916-.609 6.211-3.508 11.937-8.293 16.158-2.339 2.063-3.156 5.358-2.054 8.276 1.104 2.917 3.896 4.848 7.016 4.848h106.312c4.143 0 7.5-3.357 7.5-7.5s-3.357-7.5-7.5-7.5h-23.432c.002-.193.015-.386.015-.579v-16.16c0-10.996-4.612-21.609-12.655-29.117-8.156-7.614-18.819-11.382-29.98-10.615-12.021.829-22.658 7.125-29.41 16.395-6.752-9.271-17.39-15.568-29.414-16.396-11.184-.773-21.822 3-29.977 10.612-8.042 7.507-12.654 18.119-12.654 29.116v16.163c0 .195.012.387.015.582h-122.026c-6.334 0-12.279 2.467-16.724 6.928-4.479 4.465-6.946 10.406-6.946 16.732 0 12.372 9.552 22.55 21.671 23.569l-55.763 171.784c-2.706 8.339-4.078 17.011-4.078 25.775v1.901c0 46.031 37.449 83.48 83.48 83.48h24.341c4.143 0 7.5-3.357 7.5-7.5s-3.357-7.5-7.5-7.5h-24.341c-37.761 0-68.48-30.721-68.48-68.48v-1.901c0-7.189 1.126-14.303 3.346-21.144l57.237-176.325h38.132c4.143 0 7.5-3.357 7.5-7.5s-3.357-7.5-7.5-7.5h-51.875c-4.78 0-8.67-3.885-8.67-8.659 0-2.31.9-4.479 2.554-6.126 1.628-1.635 3.8-2.534 6.116-2.534h124.625c2.251 6.523 5.87 12.41 10.518 17.319h-48.18c-4.143 0-7.5 3.357-7.5 7.5s3.357 7.5 7.5 7.5l287.598.005 57.317 178.421c2.178 6.778 3.281 13.825 3.281 20.944 0 37.76-30.721 68.48-68.48 68.48h-285.662c-4.143 0-7.5 3.357-7.5 7.5s3.357 7.5 7.5 7.5h285.663c46.031 0 83.48-37.449 83.48-83.48 0-8.679-1.346-17.269-4-25.532zm-221.665-262.665c6.998-.484 13.631 1.869 18.715 6.615 5.088 4.75 7.891 11.197 7.891 18.152v16.16c0 .193-.011.386-.015.579h-43.119c-3.634-3.967-5.871-8.958-6.387-14.334.093-1.589.087-3.196-.009-4.813 1.13-11.946 10.917-21.532 22.924-22.359z"/><path d="m314.008 300.448c0-31.985-26.022-58.008-58.008-58.008s-58.008 26.022-58.008 58.008 26.022 58.008 58.008 58.008 58.008-26.022 58.008-58.008zm-101.016 0c0-23.715 19.293-43.008 43.008-43.008s43.008 19.293 43.008 43.008-19.293 43.008-43.008 43.008-43.008-19.293-43.008-43.008z"/><path d="m354.415 300.448c0-54.267-44.148-98.415-98.415-98.415s-98.415 44.148-98.415 98.415c0 54.266 44.148 98.414 98.415 98.414s98.415-44.148 98.415-98.414zm-181.83 0c0-45.995 37.42-83.415 83.415-83.415s83.415 37.42 83.415 83.415-37.42 83.414-83.415 83.414-83.415-37.418-83.415-83.414z"/></g></g></svg>