<svg id="Capa_1" enable-background="new 0 0 512 512" height="512" viewBox="0 0 512 512" width="512" xmlns="http://www.w3.org/2000/svg"><g><g><g><g><g><g><g><g><path d="m448.01 342.274-38.882-127.433c-6.693-21.936-25.723-37.84-48.498-40.532l-38.589-4.562c-7.362-.87-11.521-8.915-7.946-15.41 8.77-15.934 21.563-43.275 21.563-67.18-.001-43.993-35.665-79.657-79.658-79.657s-79.657 35.664-79.657 79.657c0 23.904 12.793 51.245 21.563 67.179 3.575 6.495-.584 14.539-7.946 15.41l-38.589 4.562c-22.776 2.693-41.805 18.596-48.498 40.532l-38.883 127.434c-3.068 10.056 2.712 20.674 12.824 23.554l54.044 15.397-10.15 105.726c-.903 9.408 6.493 17.548 15.944 17.548h238.696c9.451 0 16.847-8.141 15.944-17.548l-10.15-105.726 54.044-15.397c10.112-2.88 15.892-13.497 12.824-23.554z" fill="#f9e57a"/><g><path d="m68.538 327.367-4.548 14.907c-3.068 10.056 2.712 20.674 12.824 23.554l54.044 15.397 3.374-35.143z" fill="#faecaa"/></g><g><path d="m448.01 342.274-38.882-127.433c-6.693-21.936-25.723-37.84-48.498-40.532l-38.589-4.562c-7.362-.87-11.521-8.915-7.946-15.41 8.77-15.934 21.563-43.275 21.563-67.18-.001-43.993-35.665-79.657-79.658-79.657-17.436 0-33.552 5.618-46.669 15.12 4.758-.886 9.657-1.372 14.672-1.372 43.993 0 82.038 29.768 82.038 65.909 0 41.853-15.174 64.993-23.944 80.928-3.575 6.495.584 14.539 7.946 15.41l38.589 4.562c22.776 2.693 41.805 18.597 48.498 40.532l38.882 127.433c1.716 5.623.661 11.419-2.367 15.942l21.54-6.137c10.113-2.879 15.893-13.496 12.825-23.553z" fill="#fadb2f"/></g><g><path d="m381.142 381.226-12.327-128.404-16.352 9.005c-9.298 5.12-14.702 15.241-13.786 25.815l17.782 205.215c.52 5.415-2.978 10.258-8.012 11.643h26.902c9.451 0 16.847-8.14 15.944-17.548z" fill="#fadb2f"/></g></g></g></g><path d="m256.668 37.121c-29.435-.387-52.391 25.079-50.573 54.46 1.782 28.802 20.711 48.575 35.427 77.017 1.901 3.675 3.609 7.434 5.137 11.258l-.001-.023 14.289-10.576c10.109-7.47 18.689-16.818 25.267-27.529 10.69-17.405 19.827-33.501 19.827-54.571 0-27.369-22.087-49.677-49.373-50.036z" fill="#fbf1c2"/></g><g><circle cx="283.912" cy="216.985" r="7.381"/><circle cx="283.912" cy="259.871" r="7.381"/><circle cx="283.912" cy="302.756" r="7.381"/><circle cx="283.912" cy="345.642" r="7.381"/><circle cx="283.912" cy="388.527" r="7.381"/></g></g><g><path d="m204.092 460.755v-34.889c0-4.481-3.632-8.113-8.113-8.113h-68.628l-4.907 51.115h73.536c4.48 0 8.112-3.632 8.112-8.113z" fill="#faecaa"/><path d="m384.649 417.754h-68.628c-4.481 0-8.113 3.632-8.113 8.113v34.889c0 4.481 3.632 8.113 8.113 8.113h73.536z" fill="#faecaa"/><path d="m384.649 417.754h-34.698l4.429 51.114h35.176z" fill="#f9e57a"/></g></g><g><path d="m443.462 327.367 4.548 14.907c3.068 10.056-2.712 20.674-12.824 23.554l-54.044 15.397-3.374-35.143z" fill="#faecaa"/></g><path d="m443.461 327.367-33.298 9.487 5.849 19.169c1.716 5.623.661 11.419-2.367 15.942l21.54-6.137c10.112-2.881 15.892-13.498 12.824-23.554z" fill="#f9e57a"/></g><path d="m455.183 340.086-4.559-14.941c-.002-.008-.005-.015-.007-.023l-19.977-65.471c-1.208-3.961-5.397-6.195-9.362-4.985-3.961 1.209-6.193 5.4-4.984 9.362l17.764 58.22-49.685 14.155-8.093-84.297c-.396-4.124-4.063-7.147-8.183-6.749-4.123.396-7.145 4.06-6.749 8.183 2.977 31.01 11.67 121.557 15.046 156.715h-60.374c-8.609 0-15.613 7.004-15.613 15.612v34.889c0 8.609 7.004 15.613 15.613 15.613h66.721l1.085 11.301c.478 4.979-3.418 9.331-8.479 9.331h-111.847v-268.181c0-15.975-2.634-31.528-7.838-46.32 5.888-4.986 22.896-13.976 36.943-36.847 11.455-18.649 20.936-35.924 20.936-58.496 0-31.314-25.469-57.124-56.774-57.535-34.092-.523-60.221 29.057-58.158 62.422 1.37 22.146 11.828 39.096 22.899 57.04 17.227 27.92 26.992 46.919 26.992 79.736v268.18h-111.848c-4.991 0-8.963-4.284-8.479-9.331l1.085-11.301h66.721c8.609 0 15.613-7.004 15.613-15.613v-34.889c0-8.608-7.004-15.612-15.613-15.612h-10.434c-4.142 0-7.5 3.357-7.5 7.5s3.358 7.5 7.5 7.5h10.434c.338 0 .613.274.613.612v34.889c0 .338-.275.613-.613.613h-65.281l3.467-36.114h16.321c4.142 0 7.5-3.357 7.5-7.5s-3.358-7.5-7.5-7.5h-14.881c3.385-35.254 12.053-125.548 15.046-156.715.396-4.123-2.626-7.787-6.749-8.183-4.127-.392-7.787 2.627-8.183 6.749l-8.093 84.297-49.685-14.155 32.104-105.218c5.823-19.085 22.39-32.93 42.206-35.272l38.588-4.562c12.631-1.493 19.778-15.315 13.637-26.474-7.706-14.001-20.634-40.877-20.634-63.563.001-39.789 32.37-72.158 72.158-72.158s72.157 32.369 72.157 72.157c0 22.687-12.928 49.562-20.634 63.563-6.131 11.143.989 24.978 13.637 26.474l38.589 4.562c19.815 2.343 36.382 16.188 42.205 35.272l4.031 13.211c1.208 3.962 5.401 6.194 9.362 4.985 3.962-1.209 6.194-5.4 4.985-9.362l-4.031-13.211c-7.56-24.776-29.066-42.751-54.791-45.792l-38.589-4.562c-2.089-.247-3.264-2.513-2.256-4.345 10.261-18.644 22.492-46.06 22.492-70.796 0-48.057-39.098-87.156-87.157-87.156s-87.157 39.099-87.157 87.157c0 24.736 12.231 52.152 22.492 70.796 1.001 1.819-.153 4.097-2.256 4.345l-38.588 4.562c-25.725 3.041-47.231 21.016-54.791 45.792l-38.883 127.433c-4.297 14.084 3.781 28.923 17.942 32.957l48.037 13.686c-3.269 34.051-6.13 63.847-9.554 99.508-1.327 13.83 9.57 25.765 23.41 25.765h238.696c13.841 0 24.737-11.938 23.41-25.765-3.195-33.281-6.385-66.5-9.554-99.508l48.037-13.686c14.162-4.034 22.24-18.874 17.942-32.956zm-139.162 121.282c-.338 0-.613-.275-.613-.613v-34.889c0-.338.275-.612.613-.612h61.814l3.467 36.114zm-191.768-89.822-45.384-12.929c-6.081-1.732-9.55-8.105-7.705-14.153l2.4-7.866 52.606 14.987zm110.02-230.339c-10.493-17.007-19.555-31.694-20.693-50.089-1.518-24.537 17.342-46.501 42.425-46.501.187 0 .376.001.563.003 23.143.305 41.972 19.387 41.972 42.537 0 18.686-8.112 33.379-18.717 50.646-11.78 19.177-26.151 27.057-30.099 30.429-4.364-9.018-10.428-18.884-15.451-27.025zm198.859 217.409-45.384 12.929-1.916-19.961 52.605-14.987 2.4 7.867c1.844 6.046-1.624 12.42-7.705 14.152z"/></g></svg>