<svg id="Layer_1" enable-background="new 0 0 511.97 511.97" height="512" viewBox="0 0 511.97 511.97" width="512" xmlns="http://www.w3.org/2000/svg"><g><g><g><path d="m149.331 488.52c-49.995 3.998-94.394-32.116-101.054-82.195l-34.546-259.789c-8.225-61.857 36.731-117.956 98.484-122.894 61.753-4.938 115.04 43.306 116.733 105.685l7.113 261.983c1.371 50.502-36.734 93.212-86.73 97.21z" fill="#ebb58f"/><path d="m236.061 391.31-7.113-261.983c-1.693-62.379-54.981-110.623-116.734-105.685-3.868.309-7.669.82-11.396 1.519 48.771 9.226 86.706 51.692 88.13 104.166l7.113 261.983c1.254 46.201-30.532 85.874-74.234 95.359 8.824 1.929 18.064 2.606 27.504 1.851 49.996-3.998 88.101-46.708 86.73-97.21z" fill="#e6a67a"/><path d="m222.973 252.142c-57.023-35.3-132.096-27.54-184.133 19.119-7.159 6.419-18.542 2.407-20.207-7.107l-10.797-61.706c-1.351-7.72 1.125-15.594 6.572-21.185 59.289-60.865 152.056-70.389 217.897-22.455 6.325 4.605 10.054 12.009 9.977 19.866l-.612 63.109c-.092 9.615-10.56 15.396-18.697 10.359z" fill="#fff2e5"/><g><path d="m14.408 181.263c-5.446 5.591-7.923 13.466-6.572 21.185l10.796 61.706c1.665 9.514 13.048 13.526 20.207 7.107 9.697-8.695 20.196-16.037 31.227-22.004l-15.7-98.784c-14.37 8.093-27.861 18.372-39.958 30.79z" fill="#ff9f0f"/><path d="m54.367 150.474 15.7 98.784c18.486-9.998 38.47-16.127 58.704-18.26l-8.122-101.733c-22.902 2.391-45.511 9.513-66.282 21.209z" fill="#fff345"/></g></g><g><path d="m359.394 488.293c49.948 4.555 94.746-31.062 101.962-81.064l37.435-259.388c8.913-61.761-35.416-118.358-97.11-123.984-61.694-5.626-115.515 42.021-117.902 104.377l-10.028 261.887c-1.933 50.485 35.695 93.618 85.643 98.172z" fill="#ebb58f"/><path d="m401.682 23.858c-10.222-.932-20.225-.394-29.817 1.424 56.302 10.561 95.341 64.255 86.926 122.56l-37.435 259.388c-5.802 40.205-35.905 71.103-73.442 79.302 3.743.813 7.573 1.405 11.48 1.762 49.948 4.555 94.746-31.062 101.962-81.064l37.435-259.388c8.914-61.762-35.415-118.358-97.109-123.984z" fill="#e6a67a"/><path d="m288.388 251.109c57.412-34.662 132.394-26.066 183.909 21.17 7.087 6.498 18.514 2.614 20.285-6.881l11.482-61.582c1.436-7.704-.952-15.605-6.336-21.257-58.608-61.522-151.263-72.08-217.633-24.882-6.376 4.534-10.187 11.896-10.198 19.754l-.091 63.112c-.014 9.615 10.389 15.512 18.582 10.566z" fill="#fff2e5"/><g><path d="m497.728 182.559c5.384 5.652 7.772 13.553 6.336 21.257l-11.482 61.582c-1.77 9.495-13.198 13.38-20.285 6.881-9.6-8.803-20.016-16.261-30.98-22.35l16.798-98.602c14.28 8.251 27.656 18.68 39.613 31.232z" fill="#ff9f0f"/><path d="m458.115 151.326-16.798 98.602c-18.373-10.203-38.288-16.554-58.497-18.913l9.254-101.636c22.873 2.648 45.401 10.021 66.041 21.947z" fill="#fff345"/></g></g></g><g><path d="m145.786 444.112c-26.518 2.127-50.079-17.056-53.617-43.657-1.6-9.764-15.876-7.903-14.869 1.978 4.511 33.926 35.456 59.374 69.682 56.632 4.129-.33 7.209-3.945 6.879-8.074-.332-4.129-3.946-7.213-8.075-6.879z"/><path d="m237.143 153.073s-.697-23.95-.697-23.95c-1.508-85.331-94.807-140.552-169.926-99.744-8.547 4.579-1.461 17.805 7.085 13.221 12.149-6.51 25.341-10.373 39.208-11.482 56.065-5.713 108.411 42.127 108.638 98.428.001-.001.396 13.561.396 13.561-62.905-36.168-143.207-26.182-198.397 19.617-6.162-34.496-4.046-63.799 17.749-92.521 5.895-7.699-6.011-16.818-11.909-9.12-18.95 24.744-27.116 55.443-22.994 86.442l3.667 27.573c-7.396 7.489-11.357 18.111-9.515 28.643l10.796 61.706c1.227 7.012 6.106 12.82 12.76 15.237l16.839 126.63c7.055 53.059 55.545 92.966 109.086 88.683 53.982-4.316 95.108-50.39 93.629-104.89l-3.602-132.675c5.725-3.598 9.147-9.708 9.214-16.576l.612-63.108c.098-10.076-4.622-19.627-12.639-25.675zm-9.252 11.799c4.368 3.18 6.944 8.313 6.892 13.73l-.612 63.109c-.035 3.699-4.072 6.018-7.25 4.054-27.343-16.927-58.755-24.763-91.272-22.852l-6.928-86.774c35.389-2.137 70.749 7.985 99.17 28.733zm-152.032 73.045-13.247-83.349c16.039-8.388 33.331-14.12 51.186-16.857l6.927 86.759c-15.602 2.34-30.663 6.87-44.866 13.447zm-60.635-36.761c-.927-5.299.776-10.779 4.557-14.66 8.816-9.051 18.538-17.012 28.936-23.79l13.118 82.536c-9.886 5.775-19.264 12.6-28.002 20.435-2.798 2.509-7.178.809-7.812-2.815zm133.51 279.888c-46.035 3.682-86.888-29.574-93.021-75.708l-16.664-125.304c1.708-.81 3.325-1.868 4.797-3.187 23.849-21.384 54.055-35.109 85.964-38.418 31.806-3.299 62.654 3.649 89.216 20.092 1.898 1.176 3.921 2.004 5.995 2.489l3.543 130.506c1.263 46.523-33.803 85.85-79.83 89.53z"/><path d="m310.793 384.012c-4.132-.155-7.623 3.069-7.781 7.208-1.362 34.991 25.028 64.992 59.75 67.677 3.835 0 7.105-2.926 7.46-6.819.376-4.125-2.663-7.774-6.788-8.15-26.503-2.416-46.459-25.316-45.434-52.134.16-4.14-3.068-7.624-7.207-7.782z"/><path d="m503.159 177.386c-.303-.318-.613-.627-.918-.943 0 0 3.974-27.53 3.974-27.53 10.7-63.753-39.301-128.066-103.854-132.523-64.289-7.287-125.093 46.919-126.075 111.56-.001-.001-.916 23.902-.916 23.902-8.113 5.956-12.958 15.472-12.973 25.569l-.091 63.112c-.01 6.868 3.345 13.016 9.03 16.678 0 0-5.078 132.625-5.078 132.625-.724 129.59 179.583 145 202.522 18.465 0 .001 4.27-29.586 4.27-29.586 1.385-9.598-13.461-11.739-14.846-2.143l-4.271 29.587c-18.77 108.528-173.844 94.334-172.687-15.75 0 .001 4.995-130.457 4.995-130.457 4.015.55 6.022-.257 6.022-2.421 59.17-35.696 129.717-21.507 179.726 23.521l-7.558 52.374c-1.347 9.33 13.438 11.901 14.846 2.143l7.75-53.7c6.68-2.343 11.623-8.096 12.928-15.094l11.482-61.582c1.866-10.011-1.229-20.406-8.278-27.807zm-177.405-121.475c70.734-61.671 178.844-1.514 165.614 90.861.001-.001-2.475 17.148-2.475 17.148-54.666-46.401-134.835-57.291-198.139-21.841-.468-33.834 9.086-63.481 35-86.168zm65.183 168.667 7.892-86.676c17.824 2.936 35.052 8.861 50.996 17.427l-14.173 83.196c-14.13-6.736-29.14-11.433-44.715-13.947zm-106.426 20.111c-3.21 1.128-7.212.184-7.205-4.135l.091-63.111c.008-5.418 2.642-10.522 7.045-13.653 28.706-20.415 63.785-30.114 99.484-27.635l-7.895 86.711c-32.081-2.338-64.047 5.181-91.52 21.823zm212.18-42.248-11.482 61.582c-.54 2.896-5.456 4.915-7.844 2.728-8.65-7.932-17.951-14.861-27.771-20.745l14.035-82.384c10.322 6.893 19.954 14.962 28.669 24.111 3.737 3.922 5.379 9.421 4.393 14.708z"/></g></g></svg>