<svg id="Layer_1" enable-background="new 0 0 512.345 512.345" height="512" viewBox="0 0 512.345 512.345" width="512" xmlns="http://www.w3.org/2000/svg"><g><g><path d="m428.503 60.223s38.098 425.878 15.941 432.161c-36.929 10.472-98.867 20.639-166.598.401l-21.674-210.461-21.674 210.461c-67.326 20.117-128.928 10.191-165.933-.213-22.558-6.343 15.277-432.349 15.277-432.349z" fill="#ff9f0f"/><g><path d="m83.842 60.223s-30.726 42.827-38.708 143.152-12.544 276.334-12.544 276.334 13.419 6.52 35.976 12.862c3.217-223.844 12.355-371.721 50.486-432.348z" fill="#fff2e5"/><path d="m467.211 203.375c-7.982-100.325-38.708-143.152-38.708-143.152h-35.21c38.131 60.626 47.269 208.504 50.486 432.348 22.557-6.343 35.976-12.862 35.976-12.862s-4.562-176.009-12.544-276.334z" fill="#ffecdb"/></g><path d="m92.398 17.642s146.755-22.99 322.762 0l-20.198 37.856h-271.494z" fill="#ff9f0f"/><path d="m419.948 17.642c-11.678-3.506-53.505 28.289-163.775 28.289-110.271 0-152.097-31.795-163.775-28.289-14.137 4.244-23.345 34.362-8.555 42.581 61.139 33.975 172.331 33.401 172.331 33.401s111.192.574 172.33-33.401c14.789-8.218 5.581-38.336-8.556-42.581z" fill="#ff7300"/><g><path d="m419.948 17.642c-4.586-1.377-13.825 2.691-30.028 8.138 7.377 10.753 9.389 28.438-1.417 34.443-45.124 25.075-117.503 31.33-152.33 32.887 12.361.553 20 .514 20 .514s111.192.574 172.33-33.401c14.79-8.218 5.582-38.336-8.555-42.581z" fill="#ff6200"/></g></g><path d="m485.595 424.68c-.323-9.703-15.312-9.19-14.992.496.775 23.397 1.291 41.414 1.521 49.712-4.233 1.783-11.424 4.61-20.992 7.647-3.044-198.222-11.232-335.985-40.849-405.623 5.496-2.131 10.653-4.397 15.48-6.791 43.064 77.653 37.459 220.349 43.471 316.024.349 9.435 15.354 9.301 14.989-.557-3.83-92.826-5.34-263.482-45.984-323.921 13.083-16.09.716-54.781-23.179-51.598-162.756-21.1-302.18-2.921-321.523-.172-21.433 1.206-31.575 36.835-19.43 51.772-8.633 14.976-29.94 59.315-36.448 141.112-7.906 99.375-12.52 274.973-12.566 276.734-.076 2.94 1.574 5.654 4.219 6.94 62.023 30.079 142.13 32.999 207.334 13.516 2.906-.868 5.003-3.4 5.313-6.417l14.213-138.017 14.213 138.017c.311 3.017 2.408 5.549 5.313 6.417 65.362 19.53 145.255 16.606 207.335-13.516 2.646-1.286 4.296-4 4.219-6.94-.004-.22-.581-22.36-1.657-54.835zm-401.651-381.992c.58-5.357 4.165-16.848 10.834-17.818 2.514.092 9.417 2.517 15.558 4.67 10.633 3.726 25.196 8.827 45.078 13.396 9.449 2.174 12.81-12.447 3.358-14.619-10.804-2.482-20.012-5.144-27.841-7.643 49.237-4.72 142.194-10.216 249.003.466-25.16 7.909-64.335 17.291-123.763 17.291-20.669 0-40.545-1.156-59.076-3.437-9.627-1.178-11.456 13.704-1.832 14.889 77.16 10.921 168.915-4.025 206.755-20.347 5.172-1.81 10.899-3.818 14.068-4.461 9.539-1.186 17.957 23.487 8.774 28.592-36.923 20.517-93.696 28.059-131.027 30.835-4.418-10.66-8.331-16.34-8.716-16.886-2.386-3.386-7.063-4.198-10.45-1.813s-4.198 7.063-1.813 10.45c.065.093 2.2 3.206 5.021 9.235-14.515.711-28.875.718-43.391.011 2.808-6.003 4.947-9.154 5.023-9.265 2.368-3.385 1.553-8.051-1.828-10.431-3.386-2.386-8.064-1.574-10.45 1.813-.385.546-4.301 6.231-8.721 16.899-28.96-2.15-69.651-7.175-103.701-18.929-9.798-3.383-19.059-7.327-27.321-11.918-4.027-2.237-3.819-8.424-3.542-10.98zm-31.333 161.282c3.579-44.984 11.586-93.903 33.971-133.849 4.941 2.447 10.122 4.701 15.48 6.778-14.074 32.976-23.714 81.482-30.163 151.461-5.606 60.831-8.919 139.516-10.684 254.176-9.57-3.038-16.76-5.864-20.992-7.646.818-29.456 5.264-181.377 12.388-270.92zm364.888 287.158c-31.785 6.245-80.233 10.445-132.71-4.146l-21.155-205.427c-.901-8.733-14.022-8.735-14.921 0l-21.155 205.427c-49.217 13.684-102.122 12.755-151.405-.13 2.979-199.471 10.945-337.672 40.097-404.979 32.697 10.38 69.411 15.17 97.045 17.376-4.615 15.404-8.473 36.339-7.965 62.652.182 9.427 15.188 9.585 14.997-.289-.527-27.292 4.08-48.076 8.373-61.324 18.37 1.011 36.57.991 54.942-.042 4.632 14.257 8.892 34.775 8.378 61.366-.18 9.415 14.807 10.173 14.998.289.509-26.344-3.359-47.299-7.982-62.708 32.705-2.636 65.711-7.366 97.064-17.31 29.182 67.395 37.114 205.346 40.094 404.969-5.742 1.501-11.996 2.96-18.695 4.276z"/></g></svg>