<svg id="Layer_1" enable-background="new 0 0 511.813 511.813" height="512" viewBox="0 0 511.813 511.813" width="512" xmlns="http://www.w3.org/2000/svg"><g><g><path d="m255.906 457.418c38.498 0 91.1-2.298 93.387-16.086 1.822-10.985-18.533-27.662 3.812-24.511 43.453 6.128 76.786 4.552 79.283-7.021 2.287-10.597-21.345-26.682 4.574-22.086 28.193 4.999 46.779 2.462 58.022-1.027 7.907-2.454 11.692-11.449 8.001-18.892-69.034-139.185-93.323-313.4-93.323-313.4h-307.513s-24.289 174.215-93.322 313.402c-3.691 7.442.094 16.438 8.001 18.892 11.242 3.488 29.828 6.026 58.022 1.027 25.92-4.596 2.287 11.49 4.574 22.086 2.498 11.573 35.83 13.149 79.283 7.021 22.344-3.151 1.99 13.527 3.812 24.511 2.287 13.786 54.889 16.084 93.387 16.084" fill="#9ce670"/><g><path d="m502.984 367.796c-69.033-139.186-93.322-313.401-93.322-313.401h-40s24.289 174.216 93.322 313.402c3.691 7.442-.094 16.438-8.001 18.892-2.777.862-6.005 1.664-9.712 2.31 23.576 3.169 39.617.822 49.712-2.31 7.907-2.455 11.692-11.45 8.001-18.893z" fill="#8cd65e"/></g><g><path d="m409.662 54.395h-307.512s-1.607 11.525-5.168 31.012h317.848c-3.561-19.488-5.168-31.012-5.168-31.012z" fill="#7ac74c"/></g><path d="m409.662 54.395h-40s1.607 11.525 5.168 31.012h40c-3.561-19.488-5.168-31.012-5.168-31.012z" fill="#68bd35"/></g><g><path d="m509.703 364.464c-6.339-12.78-12.572-26.435-18.526-40.584-3.761-8.938-17.587-3.12-13.826 5.818 6.075 14.435 12.438 28.374 18.915 41.431 1.542 3.109.092 7.28-3.505 8.396-9.791 3.04-27.195 5.646-54.489.805-3.831-.679-7.887-1.235-11.462-.752-22.751-46.974-36.854-87.312-47.22-161.299-1.183-9.625-16.072-7.791-14.886 1.834 13.34 108.285 52.456 173.331 54.115 176.047 1.907 3.125 6.105 8.112 6.239 11.93-2.715 3.404-23.167 8.04-70.907 1.306-3.076-.434-6.521-.707-9.672-.125-7.824-19.075-19.8-56.596-26.603-118.879-1.052-9.642-15.964-8.01-14.912 1.629 4.138 37.882 10.538 76.307 23.492 112.291 3.316 9.212 15.463 35.48 15.463 35.48-1.45 1.674-12.431 10.127-86.013 10.127s-84.562-8.454-86.013-10.128c-.018-1.88 1.959-5.932 3.167-8.41 8.628-17.692 13.638-37.903 18.208-56.925 2.266-9.428-12.322-12.935-14.584-3.504-3.925 16.336-7.86 29.027-11.015 38.086-2.672-.251-5.467 0-8.008.358-47.673 6.721-68.135 2.111-70.896-1.292.196-3.623 4.615-8.96 6.065-11.991 3.436-5.017 28.858-44.326 42.028-126.664 1.532-9.575-13.278-11.945-14.812-2.369-9.721 60.776-26.515 97.308-34.824 112.528-3.627-.536-7.772.029-11.681.722-27.295 4.84-44.696 2.233-54.489-.805-3.597-1.116-5.046-5.287-3.505-8.396 49.577-99.96 76.41-218.926 87.621-278.222h26.522c9.697 0 9.697-15 0-15h-23.747c1.189-6.805 2.068-12.208 2.664-16.012h294.6c.596 3.804 1.475 9.207 2.664 16.012h-236.63c-9.697 0-9.697 15 0 15h239.388c8.402 44.55 25.594 122.737 54.554 200.905 3.37 9.093 17.434 3.882 14.066-5.211-42.39-114.414-59.249-228.909-60.122-234.979-.542-3.799-3.598-6.728-7.465-6.728h-307.512c-3.842 0-6.921 2.907-7.46 6.693-1.041 7.227-26.028 176.689-92.581 310.875-5.591 11.273.4 25.633 12.497 29.387 11.366 3.535 31.357 6.612 61.592 1.242-23.588 42.807 56.653 32.757 83.601 29.149-14.85 27.823 12.434 35.311 34.899 37.745 15.445 1.945 36.039 2.932 61.209 2.932 30.175-.873 96.864 1.368 100.785-22.357 1.09-6.53-4.634-18.313-4.634-18.313 26.811 3.589 107.167 13.664 83.557-29.156 30.24 5.373 50.223 2.292 61.592-1.242 12.055-3.74 18.105-18.076 12.496-29.385z"/><path d="m194.661 200.943c0 45.646-3.238 88.75-9.626 128.114-1.509 9.307 13.228 12.129 14.807 2.402 6.516-40.156 9.819-84.068 9.819-130.516 0-9.698-15-9.698-15 0z"/></g></g></svg>