<svg id="Capa_1" enable-background="new 0 0 512 512" height="512" viewBox="0 0 512 512" width="512" xmlns="http://www.w3.org/2000/svg"><g><g><g><path d="m423.414 245.192-3.583-4.912c-37.667-51.63-53.609-115.962-44.407-179.206l5.267-36.204c.634-4.355-2.023-8.517-6.24-9.776l-22.877-6.828c-4.434-1.323-9.205-.911-13.345 1.155l-12.061 6.015c-22.093 11.019-46.132 16.528-70.171 16.528s-48.078-5.509-70.171-16.528l-12.061-6.015c-4.141-2.065-8.912-2.478-13.345-1.155l-22.877 6.828c-4.217 1.259-6.874 5.42-6.24 9.776l5.267 36.204c9.201 63.244-6.74 127.575-44.407 179.205l-3.584 4.913c-3.363 4.609-5.174 10.167-5.174 15.872v230.369c0 7.216 5.85 13.067 13.067 13.067h319.051c7.216 0 13.067-5.85 13.067-13.067v-230.369c-.001-5.705-1.813-11.263-5.176-15.872z" fill="#d3aeea"/><g><path d="m423.414 245.192-3.584-4.912c-37.667-51.63-53.609-115.962-44.407-179.206l5.267-36.204c.634-4.356-2.023-8.517-6.24-9.776l-22.877-6.828c-2.375-.709-4.844-.903-7.263-.629l-8.571 58.383c-5.416 67.993 11.095 122.629 48.762 174.259l3.583 4.912c3.363 4.609 5.429 10.811 5.429 18.977v240.332h22.008c7.217 0 13.067-5.85 13.067-13.067v-230.369c.001-5.705-1.811-11.263-5.174-15.872z" fill="#c793e2"/></g><path d="m269.862 143.325 20.262-21.13c22.407-23.367 38.368-52.149 46.322-83.531l7.864-31.026c-2.098.238-4.159.825-6.082 1.784l-12.061 6.016c-22.093 11.019-46.132 16.528-70.171 16.528s-48.078-5.509-70.171-16.528l-12.061-6.016c-1.923-.959-3.984-1.546-6.082-1.784l7.864 31.026c7.954 31.382 23.915 60.164 46.322 83.531l20.262 21.13c7.563 7.886 20.17 7.886 27.732 0z" fill="#bb80e0"/></g><g fill="#f1e8f7"><path d="m118.734 504.5v-185.684c0-21.313-10.631-41.221-28.343-53.076l-6.987-4.677v.001 230.368c0 7.217 5.85 13.067 13.067 13.067h22.263z"/><path d="m393.514 504.5v-185.684c0-21.313 10.631-41.221 28.343-53.076l6.987-4.677v.001 230.368c0 7.217-5.85 13.067-13.067 13.067h-22.263z"/></g></g><g><path d="m320.749 377.523h.065c4.112 0 7.463-3.315 7.499-7.435.024-2.895.105-12.49.193-24.722h6.482c4.143 0 7.5-3.357 7.5-7.5s-3.357-7.5-7.5-7.5h-6.383c.167-27.086.282-58.43-.047-62.371-1.156-13.887-15.622-20.108-25.601-7.868-6.097 7.48-36.855 63.052-42.959 74.116-2.752 4.99.863 11.123 6.567 11.123h46.94c-.062 8.718-.128 17.137-.192 24.593-.034 4.141 3.294 7.528 7.436 7.564zm-41.451-47.158c12.851-23.091 29.367-52.2 34.38-59.52.173 7.059.089 32.929-.073 59.52z"/><path d="m213.975 314.091c-17.317 24.743-27.656 38.28-33.211 45.553-6.641 8.695-8.426 11.032-7.055 15.492.77 2.505 2.685 4.434 5.255 5.291 4.203 1.401 53.576.61 57.99.555 4.143-.052 7.458-3.451 7.405-7.593-.051-4.11-3.398-7.406-7.497-7.406-.032 0-.064 0-.096.001-13.212.165-30.625.295-42.151.234 5.962-7.826 15.987-21.149 31.648-43.526 6.251-8.93 13.478-21.288 13.478-32.17 0-19.509-15.872-35.38-35.38-35.38-16.869 0-31.47 11.999-34.717 28.531-.799 4.064 1.85 8.006 5.914 8.805 4.064.797 8.007-1.85 8.805-5.914 1.869-9.516 10.28-16.422 19.999-16.422 11.091 0 20.14 8.905 20.376 19.94-.203.617.419 8.032-10.763 24.009z"/><path d="m436.021 258.881c-.813-13.052-8.295-19.91-10.131-23.021-29.063-39.837-44.793-86.954-45.49-136.257-.058-4.106-3.404-7.394-7.497-7.394-.035 0-.072 0-.107.001-4.143.059-7.452 3.463-7.393 7.604.74 52.426 17.467 102.527 48.37 144.886 2.43 3.741 5.826 6.588 6.982 12.753-.824.889-34.74 18.574-34.74 61.363v178.184h-259.78v-43.38c0-4.143-3.357-7.5-7.5-7.5s-7.5 3.357-7.5 7.5v43.38h-14.764c-3.069 0-5.566-2.497-5.566-5.566v-215.963c12.825 10.648 20.33 26.461 20.33 43.346v99.744c0 4.143 3.357 7.5 7.5 7.5s7.5-3.357 7.5-7.5v-99.744c0-42.165-34.292-60.788-34.966-61.515 1.184-6.043 4.492-8.824 6.954-12.603 19.321-26.482 33.115-56.043 41-87.863 7.886-31.819 9.49-64.401 4.77-96.842l-5.268-36.204c-.098-.667.317-1.315.964-1.509l22.283-6.651c4.76 13.339 8.905 64.224 54.485 111.753l20.261 21.132c10.526 10.977 28.035 10.974 38.557-.001l20.261-21.13c45.61-47.563 49.667-98.252 54.485-111.754l22.284 6.651c.645.193 1.06.842.963 1.509-5.512 37.953-5.342 36.574-5.777 39.9-.537 4.107 2.357 7.872 6.465 8.408 4.109.528 7.872-2.356 8.408-6.465.423-3.227.186-1.395 5.748-39.683 1.161-7.979-3.79-15.736-11.517-18.042l-22.876-6.828c-6.283-1.876-12.972-1.297-18.839 1.629-6.57 2.561-34.787 21.755-78.885 21.755-44.06 0-72.388-19.222-78.884-21.754-5.867-2.928-12.556-3.505-18.839-1.63l-22.876 6.828c-7.727 2.306-12.679 10.062-11.517 18.042l5.268 36.204c4.438 30.508 2.93 61.15-4.486 91.074-7.415 29.924-20.387 57.725-38.558 82.631-1.713 2.993-10.132 10.643-10.198 25.043-.002.08-.002.16-.001.239v230.291c0 11.34 9.225 20.566 20.566 20.566h319.052c11.34 0 20.566-9.226 20.566-20.566.001-.098.041-232.193-.067-232.551zm-180.025-219.416c44.533 0 74.924-18.333 77.388-19.245-3.01 8.23-7.917 54.28-48.673 96.784l-20.262 21.13c-4.605 4.803-12.281 4.821-16.905.001l-20.261-21.132c-40.622-42.363-45.486-88.068-48.673-96.783 1.806.668 33.618 19.245 77.386 19.245zm159.526 457.535h-14.509v-178.183c0-16.774 7.406-32.489 20.075-43.133v215.751c.001 3.068-2.496 5.565-5.566 5.565z"/></g></g></svg>