<svg id="Capa_1" enable-background="new 0 0 512 512" height="512" viewBox="0 0 512 512" width="512" xmlns="http://www.w3.org/2000/svg"><g><g><g><path d="m488.337 239.837h-193.951v167.687c0 53.558 43.417 96.976 96.976 96.976 53.558 0 96.976-43.417 96.976-96.976v-167.687z" fill="#eab14d"/></g><g><path d="m467.557 239.837v167.687c0 50.048-37.914 91.236-86.585 96.421 3.414.364 6.88.555 10.39.555 53.558 0 96.976-43.418 96.976-96.976v-167.687z" fill="#e7a52e"/></g><g><path d="m391.362 466.114c-32.306 0-58.589-26.283-58.589-58.589v-167.688h117.179v167.687c-.001 32.307-26.284 58.59-58.59 58.59z" fill="#ffe07d"/></g><g><path d="m427.728 239.837v167.687c0 28.507-20.468 52.311-47.478 57.519 3.6.694 7.312 1.07 11.112 1.07 32.306 0 58.589-26.283 58.589-58.589v-167.687z" fill="#ffd064"/></g><g><path d="m391.362 7.5c-62.485 0-113.138 50.654-113.138 113.138v106.753h226.276v-106.753c0-62.484-50.654-113.138-113.138-113.138z" fill="#eab14d"/></g><g><path d="m391.362 7.5c-4.728 0-9.386.295-13.962.858 55.896 6.88 99.176 54.524 99.176 112.28v106.752h27.924v-106.752c0-62.484-50.654-113.138-113.138-113.138z" fill="#e7a52e"/></g><g><path d="m484.297 191.35h-185.87c-11.158 0-20.203 9.045-20.203 20.203v18.183c0 5.579 4.523 10.102 10.102 10.102h206.073c5.579 0 10.102-4.523 10.102-10.102v-18.183c-.001-11.158-9.046-20.203-20.204-20.203z" fill="#665e66"/></g><g><path d="m281.295 94.374h220.134c-2.749-11.563-7.268-22.441-13.263-32.325h-193.608c-5.996 9.884-10.514 20.762-13.263 32.325z" fill="#ffe07d"/></g><g><path d="m473.505 94.374h27.924c-2.749-11.563-7.268-22.441-13.263-32.325h-27.924c5.995 9.884 10.514 20.762 13.263 32.325z" fill="#ffd064"/></g></g><g><g><path d="m217.614 239.837h-193.951v167.687c0 53.558 43.417 96.976 96.976 96.976 53.558 0 96.976-43.417 96.976-96.976v-167.687z" fill="#eab14d"/></g><g><path d="m196.834 239.837v167.687c0 50.048-37.914 91.236-86.585 96.421 3.414.364 6.88.555 10.39.555 53.558 0 96.976-43.418 96.976-96.976v-167.687z" fill="#e7a52e"/></g><g><path d="m120.638 466.114c-32.306 0-58.589-26.283-58.589-58.589v-167.688h117.179v167.687c0 32.307-26.283 58.59-58.59 58.59z" fill="#ffe07d"/></g><g><path d="m157.004 239.837v167.687c0 28.507-20.468 52.311-47.478 57.519 3.6.694 7.312 1.07 11.112 1.07 32.306 0 58.589-26.283 58.589-58.589v-167.687z" fill="#ffd064"/></g><g><path d="m120.639 7.5c-62.485 0-113.139 50.654-113.139 113.138v106.753h226.276v-106.753c.001-62.484-50.653-113.138-113.137-113.138z" fill="#eab14d"/></g><g><path d="m120.638 7.5c-4.728 0-9.386.295-13.962.858 55.896 6.88 99.176 54.524 99.176 112.28v106.752h27.924v-106.752c.001-62.484-50.653-113.138-113.138-113.138z" fill="#e7a52e"/></g><g><path d="m213.573 191.35h-185.87c-11.158 0-20.203 9.045-20.203 20.203v18.183c0 5.579 4.523 10.102 10.102 10.102h206.073c5.579 0 10.102-4.523 10.102-10.102v-18.183c0-11.158-9.046-20.203-20.204-20.203z" fill="#665e66"/></g><g><path d="m10.571 94.374h220.134c-2.749-11.563-7.268-22.441-13.263-32.325h-193.608c-5.995 9.884-10.513 20.762-13.263 32.325z" fill="#ffe07d"/></g><g><path d="m202.782 94.374h27.924c-2.749-11.563-7.268-22.441-13.263-32.325h-27.924c5.995 9.884 10.514 20.762 13.263 32.325z" fill="#ffd064"/></g></g><g><path d="m391.361 0c-66.52 0-120.638 54.118-120.638 120.638v109.098c0 9.219 7.129 16.792 16.162 17.529v160.26c0 57.608 46.868 104.476 104.477 104.476 57.607 0 104.475-46.867 104.475-104.476v-58.632c0-4.143-3.357-7.5-7.5-7.5s-7.5 3.357-7.5 7.5v58.632c0 49.337-40.139 89.476-89.476 89.476s-89.476-40.139-89.476-89.476v-160.188h23.387v160.188c0 36.442 29.647 66.09 66.089 66.09s66.09-29.647 66.09-66.09v-160.188h23.386v66.521c0 4.143 3.357 7.5 7.5 7.5s7.5-3.357 7.5-7.5v-66.593c9.033-.736 16.163-8.309 16.163-17.529v-109.098c0-66.52-54.118-120.638-120.639-120.638zm-40.987 175.187c0-4.776 3.886-8.662 8.662-8.662 7.108 0 15.05 4.513 20.697 8.662-5.65 4.151-13.589 8.663-20.697 8.663-4.776 0-8.662-3.887-8.662-8.663zm52.599-.012c5.63-4.146 13.556-8.65 20.714-8.65 4.776 0 8.663 3.886 8.663 8.662s-3.887 8.663-8.663 8.663c-7.116 0-15.065-4.522-20.714-8.675zm20.714-23.651c-6.39 0-12.58 1.92-18.039 4.522l8.992-26.976c1.31-3.93-.813-8.178-4.743-9.487-3.932-1.313-8.177.813-9.487 4.743l-9.048 27.142-9.047-27.142c-1.311-3.929-5.557-6.052-9.487-4.743-3.929 1.31-6.053 5.558-4.743 9.487l8.992 26.976c-5.459-2.603-11.649-4.522-18.04-4.522-13.047 0-23.662 10.615-23.662 23.662 0 3.057.589 5.978 1.65 8.663h-38.597c-4.577 0-8.895 1.123-12.703 3.097v-66.309c0-6.402.573-12.673 1.67-18.764h207.935c1.096 6.091 1.67 12.362 1.67 18.764v66.309c-3.808-1.974-8.126-3.097-12.703-3.097h-38.597c1.06-2.685 1.65-5.606 1.65-8.663 0-13.046-10.616-23.662-23.663-23.662zm-124.76-81.975h184.869c3.05 5.496 5.629 11.287 7.67 17.325h-200.21c2.043-6.038 4.622-11.829 7.671-17.325zm92.435-54.549c33.257 0 62.968 15.452 82.346 39.549h-164.692c19.379-24.097 49.089-39.549 82.346-39.549zm51.089 392.524c0 28.171-22.919 51.09-51.09 51.09s-51.089-22.919-51.089-51.09v-160.187h102.179zm54.549-177.789c0 1.435-1.167 2.602-2.602 2.602h-206.073c-1.435 0-2.602-1.167-2.602-2.602v-18.183c0-7.005 5.698-12.703 12.703-12.703h185.87c7.005 0 12.703 5.698 12.703 12.703v18.183z"/><path d="m120.639 0c-66.521 0-120.639 54.118-120.639 120.638v109.098c0 9.219 7.13 16.792 16.163 17.529v160.26c0 57.608 46.867 104.475 104.476 104.475s104.476-46.867 104.476-104.476v-160.26c9.033-.737 16.162-8.309 16.162-17.529v-54.574c0-4.143-3.357-7.5-7.5-7.5s-7.5 3.357-7.5 7.5v11.785c-3.808-1.974-8.126-3.097-12.703-3.097h-38.597c1.06-2.685 1.65-5.606 1.65-8.663 0-13.047-10.615-23.662-23.662-23.662-6.39 0-12.581 1.92-18.04 4.522l8.992-26.976c1.31-3.93-.814-8.178-4.743-9.487-3.932-1.309-8.177.814-9.487 4.743l-9.047 27.142-9.048-27.142c-1.311-3.929-5.557-6.052-9.487-4.743-3.93 1.31-6.053 5.558-4.743 9.487l8.992 26.976c-5.459-2.603-11.649-4.522-18.039-4.522-13.048 0-23.663 10.615-23.663 23.662 0 3.057.589 5.978 1.65 8.663h-38.599c-4.577 0-8.895 1.123-12.703 3.097v-66.309c0-6.402.573-12.673 1.67-18.764h207.937c1.096 6.091 1.67 12.362 1.67 18.764v19.505c0 4.143 3.357 7.5 7.5 7.5s7.5-3.357 7.5-7.5v-19.505c-.001-66.519-54.119-120.637-120.638-120.637zm0 15c33.257 0 62.968 15.452 82.346 39.549h-164.693c19.379-24.097 49.09-39.549 82.347-39.549zm0 482c-49.337 0-89.476-40.139-89.476-89.476v-160.187h23.386v160.188c0 36.442 29.647 66.09 66.09 66.09 36.441 0 66.089-29.647 66.089-66.09v-62.703c0-4.143-3.357-7.5-7.5-7.5s-7.5 3.357-7.5 7.5v62.703c0 28.171-22.918 51.09-51.089 51.09s-51.09-22.919-51.09-51.09v-160.188h102.179v62.449c0 4.143 3.357 7.5 7.5 7.5s7.5-3.357 7.5-7.5v-62.449h23.387v160.188c-.001 49.336-40.139 89.475-89.476 89.475zm40.987-321.813c0 4.776-3.886 8.663-8.662 8.663-7.108 0-15.05-4.514-20.697-8.662 5.65-4.152 13.589-8.663 20.697-8.663 4.776-.001 8.662 3.885 8.662 8.662zm-81.976 0c0-4.776 3.887-8.662 8.663-8.662 7.108 0 15.049 4.513 20.697 8.662-5.65 4.151-13.59 8.663-20.697 8.663-4.776 0-8.663-3.887-8.663-8.663zm-51.947 23.663h185.87c7.005 0 12.703 5.698 12.703 12.703v18.183c0 1.435-1.167 2.602-2.602 2.602h-206.072c-1.435 0-2.602-1.167-2.602-2.602v-18.183c0-7.005 5.698-12.703 12.703-12.703zm-7.17-111.976c2.042-6.038 4.621-11.829 7.671-17.325h184.869c3.05 5.496 5.629 11.287 7.67 17.325z"/></g></g></svg>