<svg id="Layer_1" enable-background="new 0 0 512.078 512.078" height="512" viewBox="0 0 512.078 512.078" width="512" xmlns="http://www.w3.org/2000/svg"><g><g><ellipse cx="127.88" cy="381.687" fill="#83888c" rx="69.333" ry="105.56"/><ellipse cx="384.202" cy="381.687" fill="#83888c" rx="69.333" ry="105.56"/><g><g><g><path d="m225.451 80.688c-1.6 1.082-6.44 4.245-13.833 8.096-20.784 13.916-56.692 44.924-56.692 93.064v139.94s5.456 3.768 11.375 12.322c8.928 12.902 18.91 36.698 12.825 74.934-2.909 18.281-8.034 31.531-13.871 41.132-15.224 25.043-51.836 26.072-68.65 2.052-6.818-9.739-12.817-23.564-15.939-43.185-5.668-35.613 2.604-58.702 10.979-72.127 6.579-10.546 13.221-15.13 13.221-15.13s0-72.193 0-139.94c0-50.736-35.947-82.442-53.999-95.166-4.392-2.52-7.46-4.558-8.985-5.613-15.623 32.848-24.159 76.349-20.555 129.787 3.353 49.717 22.593 114.605 25.104 160.696 2.51 46.091 6.972 133.011 85.82 133.011 71.776 0 77.214-83.045 77.214-126.644 0-34.543 4.452-76.397 13.421-110.021 10.121-37.94 17.97-75.277 17.97-114.794.001-22.636-5.414-48.676-15.405-72.414z" fill="#9ce670"/><g><path d="m225.451 80.688c-1.6 1.082-6.44 4.245-13.833 8.096-5.378 3.601-11.77 8.357-18.289 14.247 4.923 17.059 7.529 34.383 7.529 50.073 0 39.516-7.849 76.853-17.97 114.794-6.003 22.505-9.972 48.692-11.948 73.911 7.261 13.875 13.22 35.613 8.187 67.234-2.909 18.281-8.034 31.531-13.871 41.132-2.372 3.902-5.263 7.219-8.518 9.951-8.422 19.924-22.332 36.302-45.204 42.137 6.265 1.49 13.145 2.299 20.718 2.299 71.776 0 77.214-83.045 77.214-126.644 0-34.543 4.452-76.397 13.421-110.021 10.121-37.94 17.97-75.277 17.97-114.794 0-22.637-5.415-48.677-15.406-72.415z" fill="#8cd65e"/></g><path d="m132.407 109.245c33.863 0 62.807-11.916 79.211-20.461 6.849-4.586 12.056-7.316 13.794-8.191-16.755-39.753-46.347-73.03-84.841-73.03-37.477 0-75.674 25.215-98.626 73.373 1.616.927 4.802 2.842 8.922 5.745 14.867 8.53 44.892 22.564 81.54 22.564z" fill="#fff2e5"/><path d="m140.571 7.564c-7.123 0-14.272.916-21.337 2.723 29.426 8.688 52.244 37.248 66.178 70.307-1.738.875-6.945 3.605-13.794 8.191-13.057 6.802-34.062 15.732-59.165 19.096 6.378.866 13.048 1.365 19.954 1.365 33.863 0 62.807-11.916 79.211-20.461 6.849-4.586 12.056-7.316 13.794-8.191-16.755-39.754-46.347-73.03-84.841-73.03z" fill="#ffecdb"/><path d="m50.868 86.682c18.052 12.724 53.999 44.43 53.999 95.166v139.94s-6.643 4.584-13.221 15.13c3.85 3.508 16.562 13.521 36.233 13.521 21.732 0 34.731-12.283 38.423-16.329-5.919-8.554-11.375-12.322-11.375-12.322s0-72.193 0-139.94c0-48.14 35.907-79.148 56.692-93.064-16.404 8.545-45.348 20.461-79.211 20.461-36.649 0-66.674-14.034-81.54-22.563z" fill="#7ac74c"/></g></g><g><g><path d="m286.629 80.688c1.6 1.082 6.44 4.245 13.833 8.096 20.784 13.916 56.692 44.924 56.692 93.064v139.94s-5.456 3.768-11.375 12.322c-8.928 12.902-18.91 36.698-12.825 74.934 2.909 18.281 8.034 31.531 13.871 41.132 15.224 25.043 51.836 26.072 68.65 2.052 6.818-9.739 12.817-23.564 15.939-43.185 5.668-35.613-2.604-58.702-10.979-72.127-6.579-10.546-13.221-15.13-13.221-15.13s0-72.193 0-139.94c0-50.736 35.947-82.442 53.999-95.166 4.392-2.52 7.46-4.558 8.985-5.613 15.623 32.848 24.159 76.349 20.555 129.787-3.353 49.717-22.593 114.605-25.104 160.696-2.51 46.091-6.972 133.011-85.82 133.011-71.776 0-77.214-83.045-77.214-126.644 0-34.543-4.452-76.397-13.421-110.021-10.121-37.94-17.97-75.277-17.97-114.794 0-22.636 5.415-48.676 15.405-72.414z" fill="#9ce670"/><g><path d="m470.198 81.069c-1.524 1.055-4.593 3.093-8.985 5.613-5.886 4.149-13.675 10.329-21.499 18.515 9.363 29.08 13.821 64.405 11.039 105.66-2.894 42.907-17.613 97.105-23.206 140.777 4.961 13.641 7.841 32.445 3.868 57.41-3.122 19.621-9.121 33.446-15.939 43.185-1.654 2.363-3.506 4.475-5.505 6.354-9.262 20.749-24.369 37.721-49.423 43.682 5.829 1.487 12.231 2.299 19.282 2.299 78.847 0 83.309-86.92 85.82-133.011 2.51-46.091 21.75-110.979 25.104-160.696 3.603-53.439-4.934-96.94-20.556-129.788z" fill="#8cd65e"/></g><path d="m379.674 109.245c-33.863 0-62.807-11.916-79.211-20.461-6.849-4.586-12.056-7.316-13.794-8.191 16.755-39.753 46.347-73.03 84.841-73.03 37.477 0 75.674 25.215 98.626 73.373-1.616.927-4.802 2.842-8.922 5.745-14.867 8.53-44.892 22.564-81.54 22.564z" fill="#fff2e5"/><path d="m371.509 7.564c-6.482 0-12.704.964-18.663 2.723 30.108 7.697 58.699 31.646 77.288 70.65-1.616.927-4.802 2.842-8.922 5.745-12.065 6.922-34.114 17.469-61.585 21.198 6.436.862 13.136 1.365 20.046 1.365 36.648 0 66.673-14.034 81.539-22.563 4.12-2.904 7.307-4.819 8.922-5.745-22.951-48.158-61.147-73.373-98.625-73.373z" fill="#ffecdb"/><path d="m461.213 86.682c-18.052 12.724-53.999 44.43-53.999 95.166v139.94s6.643 4.584 13.221 15.13c-3.85 3.508-16.562 13.521-36.233 13.521-21.732 0-34.731-12.283-38.423-16.329 5.919-8.554 11.375-12.322 11.375-12.322s0-72.193 0-139.94c0-48.14-35.907-79.148-56.692-93.064 16.404 8.545 45.348 20.461 79.211 20.461 36.649 0 66.674-14.034 81.54-22.563z" fill="#7ac74c"/></g></g></g></g><g><path d="m232.43 77.952c-.038-.107-.088-.21-.134-.314-26.077-64.246-82.068-99.483-142.884-62.792-8.306 5.002-.567 17.853 7.74 12.848 50.012-30.177 94.599-3.5 118.562 49.669-50.37 29.474-113.952 33.907-164.008.811 5.078-9.647 10.943-18.459 17.572-26.323 6.25-7.414-5.22-17.082-11.469-9.667-38.808 46.042-47.886 111.026-43.964 169.178 3.05 48.395 22.363 113.642 25.098 160.599 1.576 58.043 15.001 141.394 93.309 140.103 35.416.052 59.714-19.014 72.499-51.721 10.948-27.774 12.214-60.341 12.214-82.422 0-36.772 4.923-77.179 13.168-108.088 15.325-56.517 30.171-130.745 2.311-191.839-.004-.015-.008-.029-.014-.042zm-57.399 33.081c-14.028 16.362-25.98 38.063-27.44 65.231-12.348-1.246-24.771-.694-35.341.447-1.281-28.036-12.911-50.362-25.97-66.832 25.462 8.431 62.541 9.001 88.751 1.154zm-80.948 237.122c20.454 13.896 51.922 12.565 70.448-2.424 6.662 12.931 11.836 32.936 7.189 62.135-3.583 22.514-12.663 53.343-40.309 54.235-48.573.639-51.697-89.416-37.328-113.946zm56.535-20.228c.033.023 2.389 1.733 5.548 5.348-14.16 11.88-38.418 12.87-54.25 2.06 3.984-5.032 7.205-7.368 7.211-7.374 2.029-1.4 3.24-3.708 3.24-6.173v-33.635c10.451-1.212 22.971-1.862 35.059-.503v34.137c0 2.465 1.164 4.739 3.192 6.14zm-38.251-54.907v-33.029c10.451-1.212 22.971-1.862 35.059-.502v33.082c-12.248-1.22-24.562-.677-35.059.449zm0-48.161v-33.029c10.451-1.212 22.971-1.862 35.059-.502v33.082c-12.248-1.221-24.562-.678-35.059.449zm103.273 41.106c-8.563 32.098-13.675 73.95-13.675 111.954 0 80.172-22.804 119.145-69.714 119.145-31.068 0-52.162-14.493-64.489-44.306-10.896-26.401-12.559-58.165-13.841-81.613-1.29-23.686-6.71-51.26-12.449-80.453-15.12-65.209-21.116-142.523 3.717-198.639 29.632 17.552 51.079 52.476 52.114 86.784-7.826 1.381-12.951 2.711-13.601 2.883-9.37 2.481-5.538 16.974 3.834 14.502.132-.035 3.854-.996 9.832-2.117v32.882c-7.863 1.385-13.013 2.722-13.666 2.894-9.37 2.481-5.536 16.976 3.834 14.502.132-.035 3.854-.997 9.832-2.117v32.882c-7.863 1.385-13.013 2.721-13.666 2.894-9.37 2.48-5.536 16.98 3.834 14.502.132-.035 3.854-.996 9.832-2.117v27.815c-2.962 2.651-7.714 7.632-12.181 14.862-24.288 30.315-19.627 145.618 46.71 143.989 16.461-.532 31.328-9.137 39.768-23.021 23.175-38.332 20.891-99.217.682-124.402-3.787-5.44-7.423-9.175-9.92-11.424v-27.656c1.704.505 3.376 1.066 5.002 1.696 8.702 3.375 14.418-10.502 5.417-13.987-3.363-1.302-6.854-2.369-10.419-3.233v-32.636c1.704.505 3.376 1.066 5.002 1.696 8.702 3.375 14.418-10.502 5.417-13.987-3.363-1.303-6.854-2.369-10.419-3.234v-32.636c1.704.505 3.376 1.066 5.002 1.696 8.702 3.375 14.418-10.502 5.417-13.987-3.341-1.294-6.807-2.354-10.348-3.215 1.322-37.574 27.852-68.918 59.205-86.948 22.397 56.446 7.446 122.876-6.063 174.15z"/><path d="m449.419 36.704c-61.966-64.118-137.123-40.055-169.635 40.934-.052.118-.108.233-.149.355-44.569 103.921 19.64 195.655 15.479 299.926-.939 53.56 11.467 134.816 84.716 134.144 78.33 1.226 91.709-81.949 93.306-140.104 2.735-46.966 22.045-112.191 25.099-160.598 4.968-73.641-12.369-135.669-48.816-174.657zm-46.511 291.224c.042.03 3.271 2.372 7.257 7.406-15.87 10.834-40.13 9.792-54.25-2.06 3.156-3.612 5.502-5.315 5.501-5.315 2.028-1.4 3.238-3.707 3.238-6.171v-34.138c12.089-1.36 24.608-.709 35.059.502v33.635c.001 2.465 1.166 4.741 3.195 6.141zm-38.253-55.357v-33.082c12.089-1.359 24.608-.709 35.059.503v33.029c-10.498-1.127-22.811-1.67-35.059-.45zm0-48.161v-33.082c12.089-1.36 24.608-.709 35.059.503v33.029c-10.498-1.128-22.811-1.671-35.059-.45zm-.165-48.146c-1.46-27.168-13.412-48.87-27.44-65.231 26.209 7.847 63.291 7.277 88.751-1.155-13.059 16.47-24.689 38.797-25.97 66.833-10.57-1.141-22.993-1.693-35.341-.447zm7.02-161.2c36.287-.937 72.075 29.144 88.918 63.076-50.016 33.034-113.863 28.598-164.061-.776 15.98-34.412 42.064-62.3 75.143-62.3zm111.76 195.288c-3.187 48.497-22.601 113.818-25.136 161.267-1.263 23.196-2.993 54.963-13.816 81.14-12.327 29.813-33.421 44.306-64.489 44.306-46.91 0-69.714-38.973-69.714-119.145 0-38.004-5.112-79.856-13.675-111.954-13.496-51.273-28.469-117.7-6.063-174.152 31.362 18.034 57.883 49.361 59.205 86.948-3.541.861-7.007 1.922-10.348 3.215-8.911 3.45-3.299 17.363 5.417 13.987 1.627-.63 3.298-1.191 5.002-1.696v32.636c-3.566.864-7.056 1.931-10.419 3.234-8.911 3.45-3.299 17.363 5.417 13.987 1.627-.63 3.298-1.191 5.002-1.696v32.636c-3.566.864-7.056 1.931-10.419 3.233-8.911 3.45-3.299 17.363 5.417 13.987 1.627-.63 3.298-1.191 5.002-1.696v27.656c-2.497 2.249-6.133 5.984-9.92 11.424-10.104 14.554-20.597 40.036-14.187 80.552 5.324 33.007 18.907 65.369 54.639 66.871 16.266.528 32.08-7.201 41.434-20.563 5.561-7.944-6.726-16.546-12.288-8.603-6.472 9.246-17.195 14.543-28.662 14.173-28.142-1.607-35.441-28.454-40.309-54.236-4.646-29.198.527-49.203 7.19-62.135 18.571 15.02 50.037 16.293 70.448 2.424 5.906 12.677 10.414 32.038 6.01 59.71-1.481 9.311 13.265 12.09 14.813 2.357 6.057-38.058-3.116-62.922-11.926-77.118-4.468-7.231-9.217-12.21-12.181-14.862v-27.815c5.93 1.112 9.64 2.067 9.828 2.116 9.375 2.476 13.213-12.019 3.838-14.501-.652-.172-5.803-1.509-13.666-2.894v-32.882c5.93 1.112 9.64 2.067 9.828 2.116 9.375 2.479 13.213-12.019 3.838-14.501-.652-.172-5.803-1.509-13.666-2.894v-32.883c5.93 1.112 9.64 2.067 9.828 2.116 9.375 2.475 13.213-12.019 3.838-14.501-.65-.172-5.775-1.502-13.601-2.882 1.037-34.378 22.524-69.238 52.182-86.826 13.652 32.618 19.364 73.049 16.309 118.344z"/></g></g></svg>