<svg id="Capa_1" enable-background="new 0 0 512 512" height="512" viewBox="0 0 512 512" width="512" xmlns="http://www.w3.org/2000/svg"><g><g><g><path d="m314.145 142.57v-51.09-66.477h-143.47v36.593 128.586c0 32.798-12.773 63.633-35.964 86.825l-72.929 64.484c-28.089 28.088-28.196 73.596-.239 101.816 27.927 28.191 73.376 28.544 101.738.791l9.926-9.713c29.673-29.036 78.716-64.008 113.83-86.157 23.684-14.94 39.419-41.335 39.419-71.407 0-5.627-.551-11.126-1.602-16.444-7.66-38.763-10.709-78.295-10.709-117.807z" fill="#fa8084"/><path d="m324.854 260.377c-7.66-38.762-10.708-78.295-10.708-117.807v-51.09-66.477h-35.824v55.065 51.091c0 39.512 3.049 79.044 10.708 117.806 1.051 5.319 1.602 10.817 1.602 16.445 0 30.072-15.734 56.467-39.419 71.407-35.114 22.149-84.157 57.121-113.83 86.157l-9.926 9.713c-14.872 14.553-34.442 21.363-53.72 20.499 27.703 17.878 65.012 14.919 89.544-9.087l9.927-9.713c29.673-29.036 78.716-64.008 113.83-86.157 23.685-14.94 39.419-41.335 39.419-71.407-.001-5.628-.552-11.127-1.603-16.445z" fill="#f8636f"/><g><g><path d="m162.333 442.025c-20.332-44.516-56.032-80.209-100.551-100.533-28.089 28.088-28.196 73.596-.239 101.816 27.927 28.191 73.376 28.544 101.738.791z" fill="#fcc1c4"/><path d="m127.456 432.687c-14.872 14.553-34.442 21.363-53.72 20.499 27.703 17.878 65.011 14.919 89.544-9.087l-.947-2.074c-4.453-9.751-9.645-19.078-15.504-27.913-3.318 3-6.482 5.962-9.446 8.862z" fill="#fab0b6"/><path d="m170.675 99.611h143.47v34.248h-143.47z" fill="#fdd1d3"/><path d="m278.321 99.611v31.547c0 .9.01 1.8.013 2.7h35.811v-34.247z" fill="#fab0b6"/><path d="m154.142 22.546v22.129c0 8.309 6.736 15.045 15.045 15.045h146.447c8.309 0 15.045-6.736 15.045-15.045v-22.129c0-8.309-6.736-15.045-15.045-15.045h-146.448c-8.309 0-15.044 6.736-15.044 15.045z" fill="#fcc1c4"/><path d="m315.633 7.501h-35.178c8.309 0 15.045 6.736 15.045 15.045v22.129c0 8.309-6.736 15.045-15.045 15.045h35.178c8.309 0 15.045-6.736 15.045-15.045v-22.129c0-8.309-6.736-15.045-15.045-15.045z" fill="#fab0b6"/></g></g></g><g><path d="m454.754 182.464v-51.09-66.477h-143.47v36.593 128.586c0 32.798-12.773 63.633-35.964 86.825l-72.929 64.484c-28.089 28.088-28.196 73.596-.239 101.816 27.927 28.191 73.376 28.544 101.738.791l9.927-9.713c29.673-29.036 78.716-64.008 113.83-86.157 23.684-14.94 39.419-41.335 39.419-71.407 0-5.627-.551-11.126-1.602-16.444-7.662-38.763-10.71-78.295-10.71-117.807z" fill="#fa8084"/><path d="m465.462 300.27c-7.66-38.762-10.708-78.294-10.708-117.807v-51.091-66.475h-34.325v55.981 51.091c0 39.512 3.049 79.044 10.708 117.806 1.051 5.319 1.602 10.817 1.602 16.445 0 30.072-15.734 56.467-39.419 71.407-35.114 22.15-84.157 57.121-113.83 86.157l-9.927 9.713c-14.886 14.566-34.478 21.377-53.774 20.497 27.544 16.859 63.991 13.589 88.099-10.002l9.926-9.713c29.673-29.036 78.716-64.008 113.83-86.157 23.684-14.94 39.419-41.335 39.419-71.407.001-5.627-.55-11.126-1.601-16.445z" fill="#f8636f"/><g><g><path d="m302.942 481.918c-20.332-44.516-56.032-80.209-100.551-100.533-28.089 28.088-28.196 73.596-.239 101.816 27.927 28.191 73.376 28.544 101.738.791z" fill="#fcc1c4"/><path d="m269.564 473.497c-14.886 14.566-34.478 21.377-53.774 20.497 27.544 16.859 63.991 13.589 88.099-10.002l-.947-2.074c-4.215-9.228-9.1-18.07-14.577-26.482-3.111 2.825-6.079 5.613-8.874 8.348z" fill="#fab0b6"/><path d="m467.064 316.715c0-5.627-.551-11.126-1.602-16.444-1.85-9.362-3.425-18.769-4.759-28.209h-.001l-6.649 3.4c-36.323 18.573-50.479 63.237-31.485 99.342l6.518 12.391c22.88-15.092 37.978-41.022 37.978-70.48z" fill="#fcc1c4"/><path d="m467.064 316.715c0-5.627-.551-11.126-1.602-16.445-1.85-9.362-3.425-18.769-4.759-28.209h-.001l-6.649 3.4c-8.808 4.504-16.299 10.551-22.344 17.63.669 4.28 1.03 8.662 1.03 13.129 0 18.961-6.26 36.456-16.818 50.543 1.384 6.139 3.575 12.202 6.646 18.04l6.518 12.391c22.881-15.091 37.979-41.021 37.979-70.479z" fill="#fab0b6"/><path d="m311.283 139.505h143.47v34.248h-143.47z" fill="#fdd1d3"/><path d="m420.429 139.505v32.463c0 .595.007 1.189.009 1.784h34.316v-34.248h-34.325z" fill="#fab0b6"/><path d="m294.75 62.439v22.129c0 8.309 6.736 15.045 15.045 15.045h146.447c8.309 0 15.045-6.736 15.045-15.045v-22.129c0-8.309-6.736-15.045-15.045-15.045h-146.447c-8.309.001-15.045 6.736-15.045 15.045z" fill="#fcc1c4"/><path d="m456.242 47.395h-34.984c8.309 0 15.045 6.736 15.045 15.045v22.129c0 8.309-6.736 15.045-15.045 15.045h34.984c8.309 0 15.045-6.736 15.045-15.045v-22.13c0-8.309-6.736-15.044-15.045-15.044z" fill="#fab0b6"/></g></g></g></g><path d="m478.787 84.569v-22.13c0-12.432-10.114-22.545-22.545-22.545h-118.062v-17.349c0-12.431-10.114-22.545-22.547-22.545h-146.446c-12.433 0-22.546 10.114-22.546 22.545v22.129c0 10.351 7.01 19.094 16.533 21.732v123.776c0 30.719-11.932 59.603-33.606 81.36-77.781 68.776-72.885 64.428-73.193 64.748-30.813 30.926-30.897 81.27-.161 112.296 30.65 30.941 80.93 31.434 112.173 1.009.09-.083.177-.168.262-.255l5.943-5.815c2.292 16.446 9.7 32.306 22.23 44.955 30.647 30.936 80.925 31.436 112.173 1.009.09-.083.177-.168.262-.256 3.865-3.199 37.15-40.999 122.39-94.768 26.302-16.592 42.918-45.349 42.918-77.751 0-22.746-12.31-50.606-12.31-134.251v-76.163c9.521-2.638 16.532-11.381 16.532-21.731zm-317.144-39.894v-22.13c0-4.159 3.384-7.543 7.544-7.543h146.446c4.16 0 7.544 3.384 7.544 7.543v17.348h-13.382c-8.755 0-16.361 5.016-20.094 12.325h-120.514c-4.16.001-7.544-3.383-7.544-7.543zm126.903 47.435h-110.371v-24.889h109.074v17.347c0 2.644.458 5.183 1.297 7.542zm-221.675 345.919c-23.743-23.967-24.83-62.134-3.321-87.401 39.641 19.435 71.592 51.72 90.606 91.612-25.465 21.186-63.581 19.717-87.285-4.211zm107.512-15.106c-2.274 2.104-4.427 4.15-6.422 6.101l-2.419 2.367c-19.843-39.258-51.472-71.321-90.396-91.703 66.529-58.831 64.594-57.1 64.869-57.377 24.608-24.608 38.16-57.327 38.16-92.128v-48.823h20.091c4.143 0 7.501-3.358 7.501-7.501s-3.358-7.501-7.501-7.501h-20.091v-19.245h125.606v19.245h-70.468c-4.143 0-7.501 3.358-7.501 7.501s3.358 7.501 7.501 7.501h70.468v88.717c0 30.719-11.933 59.603-33.606 81.359-77.936 68.914-72.879 64.423-73.183 64.738-13.04 13.084-20.579 29.645-22.609 46.749zm131.769 48.361c-9.712-19.23-22.252-36.77-37.356-52.233-2.896-2.965-7.645-3.021-10.607-.125-2.964 2.895-3.02 7.644-.125 10.607 15.09 15.45 27.427 33.134 36.701 52.599-25.466 21.189-63.582 19.714-87.285-4.21-23.743-23.967-24.83-62.133-3.322-87.401 9.891 4.852 19.396 10.549 28.317 16.98 3.361 2.423 8.048 1.662 10.471-1.698 2.422-3.36 1.662-8.048-1.699-10.471-8.094-5.835-16.634-11.109-25.494-15.75 67.698-59.866 64.562-57.071 64.87-57.377 24.608-24.608 38.16-57.327 38.16-92.128v-48.823h128.468c.113 3.869-.624 41.801 5.282 86.558-.848.661-30.85 12.925-42.118 48.479-6.571 20.734-4.614 42.754 5.513 62.003l3.306 6.285c-76.606 49.045-112.548 86.267-113.082 86.705zm141.1-324.278v19.245h-128.468v-19.245zm-128.468-15.002v-24.89h128.468v24.89zm112.88 243.977-2.457-4.672c-8.245-15.673-9.839-33.603-4.489-50.485 5.049-15.933 15.692-29.065 30.126-37.269 3.051 18.879 4.719 22.234 4.719 33.16 0 23.225-10.274 44.744-27.899 59.266zm24.578-283.869c-4.434 0-144.715-.002-146.482-.002h-.12c-4.088-.083-7.389-3.434-7.389-7.541v-22.13c0-4.13 3.356-7.543 7.544-7.543h146.446c4.159 0 7.543 3.384 7.543 7.543v22.129c.001 4.16-3.383 7.544-7.542 7.544z"/></g></svg>