<svg id="Capa_1" enable-background="new 0 0 512 512" height="512" viewBox="0 0 512 512" width="512" xmlns="http://www.w3.org/2000/svg"><g><g><path d="m385.326 98.048v-71.398l-91.674 66.846c-3.458 2.521-7.626 3.88-11.905 3.88h-51.492c-4.279 0-8.448-1.358-11.905-3.88l-91.676-66.846v71.398l60.349 39.394c22.863 14.924 36.646 40.382 36.646 67.684v26.625h64.662v-26.625c0-27.303 13.783-52.76 36.646-67.684z" fill="#ac80dd"/></g><g><path d="m230.254 97.376h51.492v35.975h-51.492z" fill="#bed8fb"/></g><g><path d="m62.012 420.687v44.456c0 11.16 9.047 20.207 20.207 20.207h347.561c11.16 0 20.207-9.047 20.207-20.207v-44.456z" fill="#8b818e"/></g><g><path d="m417.656 420.687v44.456c0 11.16-9.047 20.207-20.207 20.207h32.331c11.16 0 20.207-9.047 20.207-20.207v-44.456z" fill="#756e78"/></g><g><path d="m396.925 436.853c13.523 0 25.61-1.437 36.375-3.852 52.616-11.806 83.268-66.316 66.773-117.656-16.916-52.649-36.775-122.174-45.538-153.253-3.018-10.705-4.546-21.768-4.546-32.89v-102.552h-64.662v124.273c0 44.64-36.188 80.828-80.828 80.828h-96.996c-44.64 0-80.828-36.188-80.828-80.828v-124.273h-64.663v102.552c0 11.122-1.528 22.185-4.546 32.89-8.763 31.079-28.622 100.604-45.538 153.253-16.496 51.34 14.157 105.85 66.773 117.656 10.765 2.415 22.851 3.852 36.375 3.852z" fill="#cbafea"/></g><g><path d="m500.072 315.346c-16.916-52.649-36.775-122.175-45.538-153.253-3.018-10.705-4.546-21.768-4.546-32.89v-102.553h-26.485v102.552c0 11.122 1.528 22.185 4.546 32.89 8.763 31.079 28.622 100.604 45.538 153.253 16.496 51.34-14.157 105.85-66.773 117.656-10.765 2.415-22.852 3.852-36.375 3.852h26.485c13.523 0 25.61-1.437 36.375-3.852 52.617-11.805 83.269-66.316 66.773-117.655z" fill="#bc95e2"/></g><g><path d="m185.275 307.528h141.449c5.58 0 10.104 4.523 10.104 10.104v40.414c0 5.58-4.523 10.104-10.104 10.104h-141.449c-5.58 0-10.104-4.523-10.104-10.104v-40.414c.001-5.581 4.524-10.104 10.104-10.104z" fill="#bed8fb"/></g><g><path d="m245.897 173.851h20.207c4.143 0 7.501-3.358 7.501-7.501s-3.359-7.501-7.501-7.501h-20.207c-4.143 0-7.501 3.358-7.501 7.501s3.358 7.501 7.501 7.501z"/><path d="m507.214 313.052c-17.108-53.244-37.491-124.732-45.46-152.995-2.83-10.037-4.265-20.418-4.265-30.854v-31.827c0-4.143-3.359-7.501-7.501-7.501s-7.501 3.358-7.501 7.501v31.826c0 11.814 1.624 23.564 4.828 34.925 7.992 28.342 28.434 100.036 45.616 153.513 7.28 22.658 4.71 47.445-7.05 68.006-11.794 20.618-31.051 34.837-54.223 40.036-10.851 2.435-22.536 3.67-34.733 3.67h-188.505c-4.143 0-7.501 3.358-7.501 7.501s3.359 7.501 7.501 7.501h188.505c13.299 0 26.09-1.357 38.017-4.033 2.556-.574 5.072-1.24 7.544-1.998v26.82c0 7.006-5.7 12.705-12.705 12.705h-347.562c-7.006 0-12.705-5.699-12.705-12.705v-26.82c2.472.757 4.988 1.424 7.544 1.998 11.927 2.676 24.718 4.033 38.017 4.033h58.088c4.143 0 7.501-3.358 7.501-7.501s-3.359-7.501-7.501-7.501h-58.088c-12.196 0-23.882-1.235-34.733-3.67-23.172-5.199-42.429-19.418-54.223-40.036-11.761-20.56-14.33-45.347-7.05-68.006 17.182-53.477 37.625-125.171 45.616-153.513 3.203-11.361 4.828-23.112 4.828-34.925v-95.051h49.659v78.65c0 4.143 3.359 7.501 7.501 7.501 4.143 0 7.501-3.358 7.501-7.501v-.899l48.747 31.821c20.817 13.589 33.245 36.544 33.245 61.403v19.124h-8.666c-40.433 0-73.327-32.895-73.327-73.327v-3.086c0-4.143-3.359-7.501-7.501-7.501-4.143 0-7.501 3.358-7.501 7.501v3.086c0 48.705 39.625 88.33 88.33 88.33h96.996c48.705 0 88.33-39.625 88.33-88.33v-116.772h49.659v28.157c0 4.143 3.359 7.501 7.501 7.501s7.501-3.358 7.501-7.501v-35.658c0-4.143-3.359-7.501-7.501-7.501h-64.661c-1.653 0-3.176.541-4.416 1.447l-.004-.006-91.674 66.845c-2.189 1.596-4.778 2.44-7.486 2.44h-51.492c-2.708 0-5.297-.844-7.486-2.439l-91.674-66.846-.004.006c-1.24-.906-2.763-1.447-4.416-1.447h-64.662c-4.143 0-7.501 3.358-7.501 7.501v102.552c0 10.437-1.435 20.817-4.265 30.854-7.969 28.263-28.352 99.751-45.46 152.995-8.566 26.66-5.537 55.835 8.312 80.044 9.87 17.255 24.175 30.704 41.413 39.256v32.791c0 15.278 12.43 27.708 27.708 27.708h347.561c15.278 0 27.708-12.43 27.708-27.708v-32.791c17.238-8.552 31.543-22.001 41.413-39.256 13.85-24.209 16.879-53.383 8.313-80.043zm-202.716-88.802h-8.666v-19.124c0-24.859 12.428-47.814 33.245-61.403l48.748-31.821v39.02c0 40.433-32.894 73.328-73.327 73.328zm-66.743-119.373h36.489v20.972h-36.489zm-15.002-1.048v29.521c0 4.143 3.359 7.501 7.501 7.501h51.492c4.143 0 7.501-3.358 7.501-7.501v-29.521c3.144-.883 6.126-2.305 8.824-4.272l79.754-58.155v52.584l-56.949 37.174c-25.076 16.369-40.047 44.02-40.047 73.966v19.124h-49.659v-19.124c0-29.946-14.971-57.597-40.047-73.966l-56.948-37.174v-52.583l79.754 58.155c2.698 1.967 5.68 3.389 8.824 4.271z"/><path d="m185.275 300.027c-9.707 0-17.605 7.898-17.605 17.605v40.414c0 9.707 7.897 17.605 17.605 17.605h141.449c9.707 0 17.605-7.898 17.605-17.605v-40.414c0-9.707-7.897-17.605-17.605-17.605zm144.052 17.605v40.414c0 1.435-1.167 2.602-2.602 2.602h-141.45c-1.435 0-2.602-1.167-2.602-2.602v-40.414c0-1.435 1.167-2.602 2.602-2.602h141.449c1.435-.001 2.603 1.167 2.603 2.602z"/></g></g></svg>