<svg id="Layer_1" enable-background="new 0 0 513.241 513.241" height="512" viewBox="0 0 513.241 513.241" width="512" xmlns="http://www.w3.org/2000/svg"><g><g><g><path d="m114.645 355.009s36.154 78.05 118.867 147.47h46.208s66.722-48.727 118.867-147.47z" fill="#ffe0c4"/><g><path d="m260.265 504.487c11.685 0 19.455-2.009 19.455-2.009 16.407-100.428 118.867-147.47 118.867-147.47s-27.218-27.033-35.855-80.19c-2.127-13.09-15.927-15.316-15.116-31.561.069-1.384 12.984-15.292 13.143-16.817 3.305-31.875 25.105-92.509 25.105-92.509-8.069-5.585-16.009-14.754-23.131-24.761-7.708-10.829-32.603-38.404-35.767-31.506l-66.653 145.313-73.328-145.463c-3.531-7.004-28.321 20.018-35.653 30.479-7.333 10.461-15.578 20.134-23.962 25.937 0 0 22.883 66.646 25.448 96.877 5.574 65.705-38.171 124.201-38.171 124.201s102.46 47.041 118.867 147.47c8.781 1.961 17.789 2.101 26.751 2.009z" fill="#ff99d8"/><g><path d="m349.616 240.508c.069-1.384 10.984-12.542 11.142-14.067 3.305-31.875 25.105-92.509 25.105-92.509-8.068-5.585-16.009-14.754-23.131-24.761-7.708-10.829-32.604-38.403-35.767-31.505l-10.693 23.312c2.639 3.132 4.903 6.007 6.46 8.194 7.122 10.007 15.063 19.176 23.131 24.761 0 0-23.936 66.575-25.448 96.877-4.102 82.215 38.171 124.201 38.171 124.201s-102.46 47.041-118.867 147.47c0 0-1.079.278-3.032.628 7.771 1.36 15.692 1.462 23.577 1.381 11.685 0 19.455-2.009 19.455-2.009 16.407-100.428 118.867-147.47 118.867-147.47s-27.218-27.033-35.855-80.19c-2.126-13.093-13.925-18.068-13.115-34.313z" fill="#ff85d0"/></g><path d="m343.429 77.63c4.948 9.591 11.404 21.106 17.5 28.958 0 0 4.174 20.313-17.078 20.43-18.763.104-10.961 18.722-8.883 26.49 4.148 15.5.017 28.788-23.838 27-20.014-1.5-10.775 32.505-10.775 32.505s-33.334-19.851-40.043-33.565c0 0 44.594-57.472 66.832-101.683 3.357-6.675 12.859-6.774 16.285-.135z" fill="#ffe0c4"/><path d="m362.735 274.818s-17.274 12.812-31.45 5.403c-11.861-6.199-13.661-20.404-26.749-27.186-13.432-6.96-32.707 4.833-53.278-6.625-23.439-13.056-6.348-39.497-17.746-51.219-11.719-12.051-28.579 1.603-39.511-15.734-9.71-15.399 7.236-30.019.335-40.506-8.371-12.721-46.827 11.65-43.311-30.53 6.642-10.289 12.948-20.787 18.763-31.555 3.647-6.752 13.361-6.707 16.993.053 23.417 43.59 92.469 156.925 173.982 149.52.001.002-2.15 24.274 1.972 48.379z" fill="#fff2e5"/></g></g><g><path d="m360.764 226.441c-13.498 1.226-26.65-.874-39.314-5.404-1.244 8.953-2.922 28.094.831 51.265 2.437 3.123 5.203 5.933 9.004 7.92 14.176 7.409 31.45-5.403 31.45-5.403-4.122-24.106-1.971-48.378-1.971-48.378z" fill="#ffecdb"/></g></g><path d="m406.076 355.272c.072-2.066-.737-4.128-2.206-5.587-30.207-30.08-38.736-82.324-35.632-122.676 3.194-30.492 24.459-89.915 24.683-90.54 1.149-3.198.005-6.77-2.789-8.704-22.128-15.316-36.709-45.571-47.664-69.184v-41.041c0-7.146-4.372-13.262-11.138-15.581-6.775-2.32-13.986-.169-18.376 5.484l-54.458 70.133-58.477-71.501c-4.471-5.466-11.66-7.462-18.313-5.089-6.646 2.372-10.94 8.46-10.94 15.512v41.985c-11.433 23.664-25.435 53.896-47.664 69.282-2.762 1.912-3.916 5.426-2.825 8.603.101.292 10.085 29.447 17.46 57.453 2.428 9.214 16.984 5.591 14.506-3.819-5.661-21.499-12.827-43.646-16.06-53.386 3.187-2.675 6.322-5.783 9.37-9.179 5.272 13.622 19.032 15.195 31.811 14.856 10.397-.278 12.589.359 9.188 10.964-7.512 23.444 3.686 42.908 28.669 43.61 13 .365 15.439 5.571 15.201 18.198-.628 33.215 22.514 46.085 54.02 43.572 13.493-1.077 20.17 1.466 28.029 12.869 11.094 16.094 25.802 22.991 44.788 14.871 7.225 33.357 21.224 55.496 29.51 66.297-50.906 26.509-104.441 85.683-113.516 143.391-10.709 1.572-22.542 1.538-33.277-.021-9.151-58.159-63.329-117.521-114.334-143.821 11.695-18.083 39.299-67.22 34.648-122.046-.821-9.663-15.767-8.395-14.946 1.268 5.237 61.738-35.956 118.063-36.692 119.058-1.635 2.178-1.956 5.185-.812 7.661 1.505 3.249 37.812 80.369 120.852 150.062 8.406 7.018 46.552 6.264 55.494.281 11.691-7.823 22.013-18.492 31.947-28.415 6.861-6.852-3.738-17.466-10.6-10.613-4.335 4.329-8.775 8.556-13.293 12.692 18.062-52.786 49.626-81.651 86.404-107.03-13.22 22.091-28.125 43.19-44.336 62.719-6.107 7.358 5.217 17.202 11.541 9.581 22.586-27.197 42.746-57.418 59.371-88.929.525-.997.818-2.118.856-3.24zm-29.089-218.711c-4.982 14.365-18.588 55.051-22.847 82.713-16.469.22-32.449-4.81-47.59-13.229-.704-4.16-3.485-18.633 4.02-18.059 25.726 1.928 38.039-15.245 30.774-39.408-1.602-5.326-5.52-14.017 2.547-14.061 8.128-.045 16.598-3.092 21.128-10.146 3.854 4.573 7.867 8.74 11.968 12.19zm-144.388-1.175 26.201-33.743 25.776 31.517c-10.136 14.784-19.435 27.426-24.96 34.796-9.77-10.377-18.826-21.507-27.017-32.57zm102.695-57.179c4.927 9.739 11.758 22.265 18.445 31.31.371 6.719-3.312 9.965-9.931 10.001-20.332.113-21.442 18.042-16.829 33.381 4.223 14.043.256 21.296-15.288 20.13-13.721-1.022-20.634 10.431-20.959 22.836-7.048-5.147-13.869-10.936-20.421-17.154 11.948-15.804 46.74-63.031 64.983-100.504zm-10.492-61.564c.683-1.148 2.824-.469 2.666.897v41.279c-6.93 17.858-20.532 40.669-34.148 61.337l-25.082-30.669zm-138.055-1.53c.994-.355 1.495.258 1.66.458l60.651 74.16-25.556 32.913c-20.878-30.315-34.568-57.622-37.738-64.136v-42.011c.001-.283.001-1.034.983-1.384zm167.818 255.942c-12.885 6.963-21.923 3.283-29.744-8.063-10.813-15.691-22.27-20.846-41.572-19.309-22.451 1.791-38.287-4.221-37.83-28.335.39-20.535-8.429-32.877-29.777-33.476-15.405-.434-19.269-10.114-14.806-24.038 6.765-21.106-3.292-31.093-23.874-30.537-12.917.342-19.328-2.063-18.593-16.307 8.258-11.941 15.25-24.57 20.017-33.848 33.112 62.863 96.564 150.533 174.397 157.143 0-.001.109 24.602 1.782 36.77zm-220.439 103.827c26.622 17.461 69.371 52.586 86.551 106.258-43.401-40.282-71.681-81.508-86.551-106.258z"/></g></svg>