<svg id="Capa_1" enable-background="new 0 0 511.862 511.862" height="512" viewBox="0 0 511.862 511.862" width="512" xmlns="http://www.w3.org/2000/svg"><g><g><path d="m327.091 15.68-25.42 16.4c-27.85 17.97-63.63 17.97-91.48 0l-25.42-16.4h-23.01v57.488l32.987 37.171 79.02 1.231 71.142-8.616v-87.274z" fill="#fedf30"/><g><g id="XMLID_658_"><g><path d="m413.958 451.288h-307.007l-17.25 18.132v17.44c0 9.67 7.83 17.5 17.5 17.5h297.46c9.67 0 17.5-7.83 17.5-17.5v-17.44z" fill="#fdf6ec"/><path d="m199.471 486.86v-17.44l17.25-18.132h-109.77l-17.25 18.132v17.44c0 9.67 7.83 17.5 17.5 17.5h109.77c-9.67 0-17.5-7.83-17.5-17.5z" fill="#fef1da"/><path d="m422.161 227.36v242.06h-2-328.46-2v-242.06c0-25.97 10.32-50.88 28.68-69.24l15.27-15.27v-127.17c0-4.52 3.66-8.18 8.18-8.18h34.76c4.51 0 8.18 3.66 8.18 8.18v19.88c0 39.3 31.86 71.16 71.16 71.16 19.65 0 37.44-7.97 50.32-20.84 12.88-12.88 20.84-30.67 20.84-50.32v-19.88c0-4.52 3.67-8.18 8.18-8.18h34.76c4.52 0 8.18 3.66 8.18 8.18v127.17l15.27 15.27c18.36 18.36 28.68 43.27 28.68 69.24z" fill="#fee97d"/></g></g><g id="XMLID_661_"><g><g><path d="m228.151 158.12c9.777-9.777 15.27-23.038 15.27-36.865v-15.654c-33.331-5.915-58.65-35.012-58.65-70.041v-19.88c0-4.52-3.67-8.18-8.18-8.18h-34.76c-4.518 0-8.18 3.662-8.18 8.18v127.17l-15.27 15.27c-18.363 18.364-28.68 43.27-28.68 69.24v242.06h2 107.77v-242.06c0-25.97 10.317-50.876 28.68-69.24z" fill="#fee45a"/></g></g></g><path d="m330.089 374.947h-147.315c-6.309 0-11.423-5.114-11.423-11.423v-105.422c0-6.309 5.114-11.423 11.423-11.423h147.315c6.309 0 11.423 5.114 11.423 11.423v105.423c-.001 6.308-5.115 11.422-11.423 11.422z" fill="#fdf6ec"/><path d="m199.471 246.679h-16.697c-6.309 0-11.423 5.114-11.423 11.423v105.423c0 6.309 5.114 11.423 11.423 11.423h16.697z" fill="#fef1da"/></g></g><g><path d="m398.786 152.816-13.076-13.076v-66.675c0-4.143-3.358-7.5-7.5-7.5s-7.5 3.357-7.5 7.5v69.781c0 1.989.79 3.896 2.197 5.303l15.271 15.273c17.078 17.076 26.483 39.782 26.483 63.935v234.566h-251.945c-4.142 0-7.5 3.357-7.5 7.5s3.358 7.5 7.5 7.5h251.946v9.938c0 5.515-4.486 10.001-10 10.001h-297.46c-5.514 0-10-4.486-10-10.001v-9.938h33.553c4.142 0 7.5-3.357 7.5-7.5s-3.358-7.5-7.5-7.5h-33.554v-234.566c0-24.152 9.405-46.858 26.483-63.936l15.271-15.272c1.407-1.406 2.197-3.313 2.197-5.303v-127.166c0-.375.305-.68.68-.68h34.754c.375 0 .68.305.68.68v19.878c0 43.376 35.289 78.664 78.665 78.664s78.665-35.288 78.665-78.664v-19.878c0-.375.305-.68.68-.68h34.754c.375 0 .68.305.68.68v25.424c0 4.143 3.358 7.5 7.5 7.5s7.5-3.357 7.5-7.5v-25.424c0-8.646-7.034-15.68-15.68-15.68h-34.754c-7.075 0-13.064 4.712-15.01 11.161l-22.66 14.621c-25.316 16.336-58.034 16.336-83.351 0l-22.66-14.621c-1.944-6.449-7.934-11.161-15.009-11.161h-34.754c-8.646 0-15.68 7.034-15.68 15.68v124.06l-13.075 13.075c-19.911 19.91-30.876 46.383-30.876 74.542v259.504c0 13.785 11.215 25.001 25 25.001h297.46c13.785 0 25-11.216 25-25.001v-259.504c.001-28.159-10.965-54.631-30.875-74.541zm-142.855-99.788c17.34 0 34.68-4.881 49.808-14.643l13.856-8.941v6.113c0 35.104-28.56 63.664-63.665 63.664s-63.665-28.56-63.665-63.664v-6.113l13.856 8.941c15.131 9.762 32.47 14.643 49.81 14.643z"/><path d="m182.774 254.179h102.527c4.142 0 7.5-3.357 7.5-7.5s-3.358-7.5-7.5-7.5h-102.527c-10.434 0-18.923 8.488-18.923 18.923v105.423c0 10.435 8.489 18.923 18.923 18.923h147.314c10.434 0 18.923-8.488 18.923-18.923v-105.423c0-10.435-8.489-18.923-18.923-18.923h-12.825c-4.142 0-7.5 3.357-7.5 7.5s3.358 7.5 7.5 7.5h12.825c2.163 0 3.923 1.76 3.923 3.923v105.423c0 2.163-1.76 3.923-3.923 3.923h-147.314c-2.163 0-3.923-1.76-3.923-3.923v-105.423c0-2.164 1.76-3.923 3.923-3.923z"/></g></g></svg>