<svg id="Capa_1" enable-background="new 0 0 512 512" height="512" viewBox="0 0 512 512" width="512" xmlns="http://www.w3.org/2000/svg"><g><g><path d="m341.443 7.5h-170.886c-10.258 0-18.574 8.316-18.574 18.574v15.306h208.033v-15.306c.001-10.258-8.315-18.574-18.573-18.574z" fill="#f8636f"/><path d="m260.533 123.453h28.166c7.652 0 14.989-3.051 20.384-8.477l40.097-40.326c6.941-6.98 10.837-16.424 10.837-26.267v-22.309c0-4.785-1.825-9.134-4.797-12.427z" fill="#fa8084"/><path d="m151.983 26.074v22.309c0 9.844 3.896 19.287 10.837 26.267l40.097 40.325c5.396 5.426 12.732 8.477 20.384 8.477h28.166l-94.686-109.805c-2.972 3.293-4.798 7.642-4.798 12.427z" fill="#fa8084"/><g><path d="m275.909 151.252 20.218-28.349c5.307-7.441-.013-17.769-9.152-17.769h-61.95c-9.14 0-14.459 10.328-9.152 17.769l20.218 28.349 4.682 5.864h29.031z" fill="#f84954"/><g><path d="m275.909 151.252h-39.819l-50.457 270.734c-.854 4.772.5 9.674 3.682 13.332l55.9 64.272c5.697 6.551 15.871 6.551 21.569 0l55.9-64.272c3.182-3.658 4.535-8.56 3.682-13.332z" fill="#fa8084"/></g><path d="m326.366 421.986-50.457-270.734h-35.469l50.457 270.734c.854 4.772-.5 9.674-3.682 13.332l-48.95 56.28 6.95 7.991c5.697 6.551 15.871 6.551 21.569 0l55.9-64.272c3.182-3.656 4.536-8.558 3.682-13.331z" fill="#f8636f"/></g></g><path d="m341.442 0h-170.884c-14.277 0-26.074 11.641-26.074 26.074v22.309c0 11.906 4.624 23.113 13.019 31.555l40.097 40.325c3.725 3.747 8.251 6.638 13.212 8.46l17.322 24.288-38.714 207.721c-.759 4.072 1.927 7.988 5.999 8.747 4.076.761 7.988-1.927 8.747-5.999l38.156-204.728h27.356l49.306 264.555c.456 2.551-.257 5.135-1.958 7.09l-55.9 64.271c-2.685 3.087-7.513 3.147-10.25 0l-55.9-64.271c-1.701-1.955-2.414-4.54-1.968-7.037l4.654-24.973c.759-4.072-1.927-7.988-5.999-8.747-4.069-.758-7.988 1.927-8.747 5.999l-4.664 25.027c-1.259 7.042.711 14.177 5.405 19.575l55.9 64.271c8.688 9.99 24.209 9.978 32.887 0l55.9-64.271c4.694-5.398 6.665-12.533 5.396-19.629l-49.873-267.601 17.322-24.288c4.962-1.822 9.487-4.713 13.213-8.46l9.785-9.841c2.92-2.937 2.907-7.686-.03-10.607-2.936-2.92-7.685-2.907-10.607.03l-9.273 9.325c-2.228-5.333-6.709-9.289-12.185-10.833 7.017-8.138 55.171-63.981 60.425-70.073-1.209 13.952 3.97 28.4-8.655 41.096l-5.446 5.478c-2.92 2.938-2.907 7.686.03 10.607 2.938 2.921 7.687 2.908 10.607-.03l5.446-5.477c8.395-8.443 13.019-19.65 13.019-31.556v-22.308c-.001-14.266-11.628-26.074-26.076-26.074zm2.469 15.276-16.042 18.604h-143.738l-16.043-18.604c2.017-.459 174.158-.379 175.823 0zm-53.675 102.94c-.701 1.055 2.704-3.79-18.19 25.536h-32.093c-4.289-6.019-17.63-24.696-18.19-25.537-1.378-2.372.296-5.58 3.261-5.58h61.95c2.973 0 4.638 3.213 3.262 5.581zm-51.129-20.582-42.041-48.754h117.869l-42.041 48.754zm-70.968-28.273c-5.582-5.613-8.655-13.063-8.655-20.979v-20.116c6.277 7.28 52.029 60.337 60.425 70.073-5.443 1.534-9.943 5.467-12.185 10.833z"/></g></svg>