<svg height="512pt" viewBox="0 -35 512.0001 512" width="512pt" xmlns="http://www.w3.org/2000/svg"><path d="m503.199219 243.871094c-8.007813 96.070312-8.007813 157.121094-8.007813 157.121094s-49.765625 34.128906-154.097656 33.460937c-19.445312-.109375-40.796875-1.441406-64.082031-4.433594v-87.066406h-42.035157v87.066406c-82.070312 10.539063-140.171874.484375-175.671874-10.574219-28.582032-8.898437-42.507813-18.453124-42.507813-18.453124s0-61.050782-7.996094-157.121094c-4.332031-51.945313 4.503907-104.761719 13.535157-148.816406 3.421874-16.699219 6.871093-32.140626 9.648437-45.800782 3.441406-16.9375 5.835937-31.140625 5.835937-41.574218h436.347657c0 18.851562 7.816406 49.949218 15.496093 87.375 9.03125 44.054687 17.867188 96.871093 13.535157 148.816406zm0 0" fill="#7ace84"/><g fill="#4baa54"><path d="m341.09375 297.792969v136.660156c-19.445312-.109375-40.796875-1.441406-64.082031-4.433594v-87.066406h-3.707031l3.125-3.59375c29.378906-4.785156 50.460937-20.0625 64.664062-41.566406zm0 0"/><path d="m210.308594 79.757812-59.125 106.0625c0-38.695312-64.324219-64.046874-89.679688-38.695312-25.351562 25.355469-2.199218 272.320312-2.199218 272.320312-28.582032-8.898437-42.507813-18.453124-42.507813-18.453124s0-61.050782-7.996094-157.121094c-4.332031-51.945313 4.503907-104.761719 13.535157-148.816406 3.421874-16.699219 6.871093-32.140626 9.648437-45.800782l177.476563-5.671875zm0 0"/><path d="m177.597656 95.058594c-42.742187 62.363281-25.351562 158.816406-6.699218 202.734375 17.304687 26.195312 44.808593 43.152343 85.101562 43.152343-38.367188 0-70.394531-158.503906-38.367188-245.886718"/></g><path d="m489.664062 95.054688h-467.328124c7.671874-37.425782 15.484374-68.523438 15.484374-87.375h436.347657c0 18.851562 7.816406 49.949218 15.496093 87.375zm0 0" fill="#343c3f"/><path d="m489.664062 95.054688h-384.761718c7.667968-37.425782 15.480468-68.523438 15.480468-87.375h353.785157c0 18.851562 7.816406 49.949218 15.496093 87.375zm0 0" fill="#515a5e"/><path d="m291.652344 69.726562h-71.3125c-6.007813 0-10.882813-4.871093-10.882813-10.882812v-15.265625c0-6.011719 4.875-10.882813 10.882813-10.882813h71.3125c6.007812 0 10.882812 4.871094 10.882812 10.882813v15.265625c0 6.007812-4.875 10.882812-10.882812 10.882812zm0 0" fill="#cce6f6"/><path d="m497.203125 93.628906c-.015625-.078125-.03125-.152344-.046875-.230468-1.722656-8.40625-3.445312-16.453126-5.066406-24.042969-5.496094-25.675781-10.242188-47.855469-10.242188-61.675781 0-4.242188-3.4375-7.679688-7.679687-7.679688h-41.027344c-4.242187 0-7.683594 3.4375-7.683594 7.679688 0 4.242187 3.441407 7.679687 7.683594 7.679687h33.675781c1.15625 14.707031 5.261719 33.890625 10.253906 57.210937 1.019532 4.761719 2.074219 9.710938 3.148438 14.808594h-448.441406c1.070312-5.101562 2.128906-10.050781 3.144531-14.808594 4.992187-23.320312 9.09375-42.503906 10.25-57.210937h357.277344c4.242187 0 7.679687-3.4375 7.679687-7.679687 0-4.242188-3.4375-7.679688-7.679687-7.679688h-364.628907c-4.242187 0-7.679687 3.4375-7.679687 7.679688 0 13.820312-4.742187 36-10.238281 61.675781-1.621094 7.582031-3.335938 15.613281-5.058594 24.011719-.019531.097656-.039062.195312-.058594.296874-9.003906 44.007813-18.035156 98.09375-13.636718 150.84375 7.875 94.59375 7.96875 155.875 7.96875 156.484376 0 2.53125 1.25 4.902343 3.339843 6.332031.78125.535156 19.570313 13.230469 57.527344 23.164062.652344.171875 1.308594.25 1.949219.25 3.410156 0 6.523437-2.285156 7.425781-5.738281 1.074219-4.101562-1.382813-8.296875-5.484375-9.371094-26.40625-6.910156-42.84375-15.234375-49.429688-18.980468-.171874-15.640626-1.25-72.464844-7.988281-153.414063-4.035156-48.386719 3.796875-98.601563 12.167969-140.496094h454.746094c8.375 41.894531 16.207031 92.109375 12.175781 140.496094-6.746094 80.957031-7.828125 137.78125-8 153.417969-14.992187 8.527344-81.117187 40.746094-202.855469 26.570312v-77.707031c26.382813-6.027344 47.792969-20.761719 62.808594-43.488281 2.339844-3.539063 1.367188-8.304688-2.171875-10.644532-3.539063-2.335937-8.304687-1.363281-10.644531 2.175782-17.402344 26.347656-43.878906 39.703125-78.683594 39.703125-34.8125 0-61.289062-13.355469-78.695312-39.703125-2.335938-3.539063-7.101563-4.511719-10.640626-2.175782-3.539062 2.339844-4.511718 7.105469-2.175781 10.644532 15.015625 22.722656 36.425781 37.457031 62.808594 43.488281v77.707031c-44.660156 5.207032-86.371094 4.730469-124.074219-1.429687-4.179687-.679688-8.136718 2.15625-8.816406 6.34375-.683594 4.183593 2.152344 8.132812 6.339844 8.816406 21.25 3.46875 43.6875 5.203125 67.140625 5.203125 21.855469 0 44.59375-1.507812 68.070312-4.519531 3.832031-.492188 6.699219-3.753907 6.699219-7.617188v-82.042969c4.339844.421876 8.785156.644532 13.34375.644532 4.554688 0 8.996094-.222656 13.332031-.640625v82.039062c0 3.863281 2.871094 7.125 6.703125 7.617188 24.746094 3.175781 47.324219 4.472656 67.683594 4.46875 43.605469 0 77.046875-5.9375 99.910156-12.050781 36.882813-9.863282 55.148438-22.210938 55.90625-22.734376 2.089844-1.429687 3.335938-3.800781 3.335938-6.332031 0-.605469.09375-61.824219 7.980468-156.480469 4.398438-52.765624-4.640624-106.863281-13.648437-150.878906zm0 0"/><path d="m220.339844 25.015625c-10.234375 0-18.558594 8.328125-18.558594 18.5625v15.265625c0 10.234375 8.324219 18.5625 18.558594 18.5625h71.3125c10.234375 0 18.5625-8.328125 18.5625-18.5625v-15.265625c0-10.234375-8.328125-18.5625-18.5625-18.5625zm74.515625 18.5625v15.265625c0 1.765625-1.4375 3.203125-3.203125 3.203125h-71.3125c-1.765625 0-3.199219-1.4375-3.199219-3.203125v-15.265625c0-1.765625 1.433594-3.203125 3.199219-3.203125h71.3125c1.765625 0 3.203125 1.4375 3.203125 3.203125zm0 0"/></svg>