<svg id="Capa_1" enable-background="new 0 0 512 512" height="512" viewBox="0 0 512 512" width="512" xmlns="http://www.w3.org/2000/svg"><g><path d="m463.418 275.4c-28.714-33.823-44.477-76.747-44.477-121.115v-93.111c0-9.094-5.449-17.303-13.83-20.833l-67.676-28.511c-6.784-2.858-14.071-4.33-21.433-4.33h-60.002-60.002c-7.362 0-14.649 1.472-21.433 4.33l-67.676 28.511c-8.38 3.531-13.83 11.739-13.83 20.833v93.111c0 44.368-15.763 87.292-44.477 121.115-7.656 9.018-11.858 20.462-11.858 32.291v170.365c0 14.604 11.839 26.443 26.443 26.443h192.833 192.833c14.604 0 26.444-11.839 26.444-26.443v-170.365c-.001-11.829-4.204-23.273-11.859-32.291z" fill="#f4d5c6"/><g><g><g><g><path d="m463.418 275.4c-28.714-33.823-44.477-76.747-44.477-121.115v-93.111c0-9.094-5.449-17.303-13.83-20.833l-24.467-10.308c1.221 2.747 1.918 5.773 1.918 8.957v115.295c0 44.368 15.763 87.292 44.477 121.115 7.656 9.018 11.858 20.462 11.858 32.291v170.365c0 14.604-11.839 26.443-26.444 26.443h36.379c14.604 0 26.444-11.839 26.444-26.443v-170.365c0-11.829-4.203-23.273-11.858-32.291z" fill="#ecb9a1"/></g><path d="m316.002 7.5h-120.004c-3.735 0-7.45.383-11.091 1.129.627 9.303 7.249 90.955 71.093 126.246 63.844-35.291 70.466-116.943 71.093-126.246-3.641-.746-7.356-1.129-11.091-1.129z" fill="#e7ab8a"/><path d="m321.34 42.647c4.465-17.232 5.521-30.577 5.753-34.018-3.641-.747-7.356-1.129-11.091-1.129h-120.004c-3.735 0-7.45.383-11.091 1.129.232 3.441 1.288 16.786 5.753 34.018z" fill="#df9874"/></g><g><g><path d="m192.222 457.854h-94.352c-9.225 0-16.703-7.478-16.703-16.703v-87.045c0-9.225 7.478-16.703 16.703-16.703h94.352c9.225 0 16.703 7.478 16.703 16.703v87.045c0 9.225-7.478 16.703-16.703 16.703z" fill="#ecb9a1"/><path d="m192.222 337.402h-36.511c9.225 0 16.703 7.478 16.703 16.703v87.045c0 9.225-7.478 16.704-16.703 16.704h36.511c9.225 0 16.703-7.478 16.703-16.704v-87.045c0-9.224-7.478-16.703-16.703-16.703z" fill="#e7ab8a"/><path d="m192.222 337.402h-94.352c-9.225 0-16.704 7.478-16.704 16.703v12.294c0 9.225 7.478 16.704 16.704 16.704h94.352c9.225 0 16.703-7.478 16.703-16.704v-12.294c0-9.224-7.478-16.703-16.703-16.703z" fill="#e7ab8a"/><path d="m172.415 354.106v28.997h19.807c9.225 0 16.703-7.478 16.703-16.704v-12.294c0-9.225-7.478-16.703-16.703-16.703h-36.511c9.225 0 16.704 7.479 16.704 16.704z" fill="#df9874"/></g><g><path d="m414.13 457.854h-94.352c-9.225 0-16.703-7.478-16.703-16.703v-87.045c0-9.225 7.478-16.703 16.703-16.703h94.352c9.225 0 16.703 7.478 16.703 16.703v87.045c.001 9.225-7.478 16.703-16.703 16.703z" fill="#ecb9a1"/><path d="m414.13 337.402h-36.597c9.225 0 16.703 7.478 16.703 16.703v87.045c0 9.225-7.478 16.704-16.703 16.704h36.597c9.225 0 16.703-7.478 16.703-16.704v-87.045c.001-9.224-7.478-16.703-16.703-16.703z" fill="#e7ab8a"/><path d="m414.13 337.402h-94.352c-9.225 0-16.704 7.478-16.704 16.703v12.294c0 9.225 7.478 16.704 16.704 16.704h94.352c9.225 0 16.703-7.478 16.703-16.704v-12.294c.001-9.224-7.478-16.703-16.703-16.703z" fill="#e7ab8a"/><path d="m394.237 354.106v28.997h19.894c9.225 0 16.703-7.478 16.703-16.704v-12.294c0-9.225-7.478-16.703-16.703-16.703h-36.597c9.224 0 16.703 7.479 16.703 16.704z" fill="#df9874"/></g></g><g><path d="m146.489 264.825h52.311c5.592 0 10.125-4.533 10.125-10.125v-62.402c0-5.592-4.533-10.125-10.125-10.125h-52.311c-5.592 0-10.125 4.533-10.125 10.125v62.402c.001 5.592 4.534 10.125 10.125 10.125z" fill="#ecb9a1"/><path d="m198.801 182.173h-36.28c5.592 0 10.125 4.533 10.125 10.125v62.402c0 5.592-4.533 10.125-10.125 10.125h36.28c5.592 0 10.125-4.533 10.125-10.125v-62.402c-.001-5.592-4.534-10.125-10.125-10.125z" fill="#e7ab8a"/></g><g><path d="m313.2 264.825h52.311c5.592 0 10.125-4.533 10.125-10.125v-62.402c0-5.592-4.533-10.125-10.125-10.125h-52.311c-5.592 0-10.125 4.533-10.125 10.125v62.402c0 5.592 4.533 10.125 10.125 10.125z" fill="#ecb9a1"/><path d="m365.511 182.173h-36.28c5.592 0 10.125 4.533 10.125 10.125v62.402c0 5.592-4.533 10.125-10.125 10.125h36.28c5.592 0 10.125-4.533 10.125-10.125v-62.402c-.001-5.592-4.534-10.125-10.125-10.125z" fill="#e7ab8a"/><path d="m365.511 182.173h-52.311c-5.592 0-10.125 4.533-10.125 10.125v6.523c0 8.166 6.62 14.786 14.786 14.786h42.989c8.166 0 14.786-6.62 14.786-14.786v-6.523c0-5.592-4.534-10.125-10.125-10.125z" fill="#e7ab8a"/><path d="m339.355 192.298v21.309h21.494c8.166 0 14.785-6.619 14.786-14.785v-6.524-.001c-.001-5.591-4.533-10.124-10.125-10.124h-36.28c5.592 0 10.125 4.533 10.125 10.125z" fill="#df9874"/></g></g><path d="m266.179 178.932h-20.358c-4.732 0-8.306-4.291-7.449-8.946l5.321-28.909c.662-3.594 3.795-6.203 7.449-6.203h9.716c3.654 0 6.788 2.609 7.449 6.203l5.321 28.909c.857 4.655-2.717 8.946-7.449 8.946z" fill="#f0f0f3"/></g><g><path d="m198.8 182.173h-52.311c-5.592 0-10.125 4.533-10.125 10.125v6.523c0 8.166 6.62 14.786 14.786 14.786h42.989c8.166 0 14.786-6.62 14.786-14.786v-6.523c0-5.592-4.533-10.125-10.125-10.125z" fill="#e7ab8a"/><path d="m172.645 192.298v21.309h21.494c8.166 0 14.786-6.62 14.786-14.786v-6.523c0-5.592-4.533-10.125-10.125-10.125h-36.28c5.592 0 10.125 4.533 10.125 10.125z" fill="#df9874"/></g><g><path d="m469.136 270.546c-27.532-32.431-42.695-73.72-42.695-116.261v-27.539c0-4.142-3.357-7.5-7.5-7.5s-7.5 3.358-7.5 7.5v27.539c0 46.093 16.429 90.83 46.26 125.968 6.498 7.654 10.076 17.398 10.076 27.438v170.366c0 10.445-8.498 18.943-18.943 18.943h-185.334v-310.568h2.679c9.439 0 16.528-8.563 14.825-17.803l-5.321-28.908c-.456-2.481-1.504-4.725-2.982-6.599 29.248-21.263 46.82-53.724 55.818-88.3.058-.192.108-.387.151-.585 2.649-10.299 4.143-19.313 4.978-25.853.749.298 3.22 1.35 68.551 28.869 5.614 2.365 9.241 7.83 9.241 13.921v29.17c0 4.142 3.357 7.5 7.5 7.5s7.5-3.358 7.5-7.5v-29.17c0-12.141-7.229-23.031-18.417-27.745l-67.676-28.511c-7.748-3.263-15.939-4.918-24.345-4.918h-120.004c-8.406 0-16.597 1.655-24.345 4.918l-67.676 28.512c-11.188 4.713-18.417 15.603-18.417 27.744v93.111c0 42.541-15.163 83.83-42.695 116.261-8.796 10.362-13.641 23.554-13.641 37.145v170.366c0 18.716 15.226 33.943 33.943 33.943h385.666c18.717 0 33.943-15.227 33.943-33.943v-170.366c0-13.591-4.844-26.782-13.64-37.145zm-202.957-99.114h-20.357l-.073-.087 5.395-28.97 9.788.061 5.279 28.994c-.004.001-.014.002-.032.002zm-10.179-45.218c-28.197-17.016-45.608-44.889-55.397-76.067h110.795c-9.789 31.176-27.199 59.05-55.398 76.067zm62.946-111.124c-.597 5.031-1.652 11.976-3.496 20.058h-118.9c-1.844-8.081-2.898-15.027-3.496-20.058 2.399-.147 123.852-.125 125.892 0zm-70.446 481.91h-185.333c-10.445 0-18.943-8.498-18.943-18.943v-170.366c0-10.039 3.578-19.783 10.076-27.437 29.831-35.139 46.26-79.875 46.26-125.969v-93.111c0-6.092 3.627-11.557 9.241-13.921 65.331-27.519 67.802-28.57 68.551-28.869.835 6.54 2.329 15.554 4.978 25.853.043.198.093.393.151.585 8.999 34.582 26.574 67.039 55.818 88.3-1.477 1.874-2.526 4.118-2.982 6.598l-5.321 28.908c-1.705 9.25 5.396 17.804 14.825 17.804h2.679z"/><path d="m192.222 329.902h-94.352c-13.347 0-24.204 10.857-24.204 24.203v87.045c0 13.346 10.857 24.203 24.204 24.203h94.352c13.346 0 24.203-10.857 24.203-24.203v-87.045c0-13.345-10.858-24.203-24.203-24.203zm9.203 36.497c0 5.075-4.129 9.204-9.203 9.204h-46.479c-4.143 0-7.5 3.358-7.5 7.5s3.357 7.5 7.5 7.5h46.479c3.256 0 6.365-.647 9.203-1.818v52.366c0 5.075-4.129 9.203-9.203 9.203h-94.352c-5.075 0-9.204-4.128-9.204-9.203v-52.366c2.839 1.172 5.947 1.818 9.204 1.818h11.47c4.143 0 7.5-3.358 7.5-7.5s-3.357-7.5-7.5-7.5h-11.47c-5.075 0-9.204-4.129-9.204-9.204v-12.294c0-5.075 4.129-9.203 9.204-9.203h94.352c5.074 0 9.203 4.128 9.203 9.203z"/><path d="m295.575 441.151c0 13.346 10.857 24.203 24.203 24.203h94.352c13.347 0 24.204-10.857 24.204-24.203v-87.045c0-13.346-10.857-24.203-24.204-24.203h-94.352c-13.346 0-24.203 10.857-24.203 24.203zm15-87.046c0-5.075 4.129-9.203 9.203-9.203h94.352c5.075 0 9.204 4.128 9.204 9.203v12.294c0 5.075-4.129 9.204-9.203 9.204h-94.353c-5.074 0-9.203-4.129-9.203-9.204zm0 34.68c2.839 1.171 5.947 1.818 9.203 1.818h94.353c3.256 0 6.365-.647 9.203-1.818v52.366c0 5.075-4.129 9.203-9.204 9.203h-94.352c-5.074 0-9.203-4.128-9.203-9.203z"/><path d="m198.801 174.673h-52.312c-9.719 0-17.625 7.906-17.625 17.625v62.402c0 9.718 7.906 17.625 17.625 17.625h52.312c9.718 0 17.624-7.906 17.624-17.625v-62.402c0-9.718-7.906-17.625-17.624-17.625zm2.624 80.027c0 1.447-1.177 2.625-2.624 2.625h-52.312c-1.447 0-2.625-1.177-2.625-2.625v-34.817c2.284.792 4.736 1.223 7.286 1.223h42.989c2.55 0 5.001-.431 7.285-1.223v34.817zm0-55.88c0 4.018-3.269 7.286-7.285 7.286h-42.99c-4.018 0-7.286-3.269-7.286-7.286v-6.522c0-1.447 1.178-2.625 2.625-2.625h52.312c1.447 0 2.624 1.177 2.624 2.625z"/><path d="m365.511 272.325c9.719 0 17.625-7.906 17.625-17.625v-62.402c0-9.718-7.906-17.625-17.625-17.625h-52.312c-9.718 0-17.624 7.906-17.624 17.625v62.402c0 9.718 7.906 17.625 17.624 17.625zm-54.936-80.027c0-1.447 1.177-2.625 2.624-2.625h52.312c1.447 0 2.625 1.177 2.625 2.625v6.522c0 4.018-3.269 7.286-7.286 7.286h-42.99c-4.017 0-7.285-3.269-7.285-7.286zm0 62.402v-34.817c2.284.792 4.735 1.223 7.285 1.223h42.989c2.55 0 5.002-.431 7.286-1.223v34.817c0 1.447-1.178 2.625-2.625 2.625h-52.312c-1.446 0-2.623-1.178-2.623-2.625z"/></g></g></svg>