<svg id="Capa_1" enable-background="new 0 0 512 512" height="512" viewBox="0 0 512 512" width="512" xmlns="http://www.w3.org/2000/svg"><g><g><path d="m23.663 433.789h44.447c5.579 0 10.102-4.523 10.102-10.102v-22.224h-64.65v22.224c-.001 5.579 4.522 10.102 10.101 10.102z" fill="#ffe07d"/></g><g><path d="m55.807 401.463v22.224c0 5.579-4.523 10.102-10.102 10.102h22.405c5.579 0 10.102-4.523 10.102-10.102v-22.224z" fill="#ffd064"/></g><g><path d="m488.337 433.789h-44.447c-5.579 0-10.102-4.523-10.102-10.102v-22.224h64.65v22.224c.001 5.579-4.522 10.102-10.101 10.102z" fill="#ffe07d"/></g><g><path d="m476.215 401.463v22.224c0 5.579-4.523 10.102-10.102 10.102h22.224c5.579 0 10.102-4.523 10.102-10.102v-22.224z" fill="#ffd064"/></g><g><path d="m359.037 504.5h-206.074c-5.579 0-10.102-4.523-10.102-10.102v-30.305h226.276v30.305c.001 5.579-4.521 10.102-10.1 10.102z" fill="#ffe07d"/></g><g><path d="m342.838 464.094v30.305c0 5.579-4.523 10.102-10.102 10.102h26.3c5.579 0 10.102-4.523 10.102-10.102v-30.305z" fill="#ffd064"/></g><g><path d="m433.789 256v145.463h64.65v-165.051c0-8.29-2.55-16.38-7.304-23.172l-93.77-133.957c-7.561-10.802-19.917-17.235-33.102-17.235h-.176v173.748h21.213z" fill="#e49542"/></g><g><path d="m491.135 213.24-93.77-133.957c-7.561-10.802-19.917-17.235-33.102-17.235h-.176v6.62c4.239 2.776 7.982 6.348 10.969 10.615l93.77 133.957c4.754 6.792 7.304 14.881 7.304 23.172v165.052h22.309v-165.052c0-8.29-2.55-16.38-7.304-23.172z" fill="#e28424"/></g><g><path d="m78.211 256v145.463h-64.65v-165.051c0-8.29 2.55-16.38 7.304-23.172l93.77-133.957c7.561-10.802 19.917-17.235 33.102-17.235h.176v173.748h-21.213z" fill="#e49542"/></g><g><path d="m127.208 207.512-59.27 30.577c-6.719 3.466-10.94 10.394-10.94 17.955v145.419h21.213v-145.463l48.488-20.203h21.213v-28.285z" fill="#e28424"/></g><g><path d="m336.813 62.049h-161.626v-40.407c0-7.811 6.332-14.142 14.142-14.142h133.341c7.811 0 14.142 6.332 14.142 14.142v40.407z" fill="#ffe07d"/></g><g><path d="m322.671 7.5h-25.11c7.811 0 14.142 6.332 14.142 14.142v40.407h25.11v-40.407c0-7.81-6.332-14.142-14.142-14.142z" fill="#ffd064"/></g><g><path d="m369.138 464.094h-226.276c-8.926 0-16.163-7.236-16.163-16.163v-54.549c0-8.926 7.236-16.163 16.163-16.163h226.276c8.926 0 16.163 7.236 16.163 16.163v54.549c0 8.926-7.236 16.163-16.163 16.163z" fill="#ecbe6b"/></g><g><path d="m369.138 377.22h-37.665c8.926 0 16.163 7.236 16.163 16.163v54.549c0 8.926-7.236 16.163-16.163 16.163h37.665c8.926 0 16.163-7.236 16.163-16.163v-54.549c0-8.927-7.236-16.163-16.163-16.163z" fill="#eab14d"/></g><g><path d="m369.138 377.22h-226.276c-8.926 0-16.163-7.236-16.163-16.163v-46.467c0-8.926 7.236-16.163 16.163-16.163h226.276c8.926 0 16.163 7.236 16.163 16.163v46.467c0 8.926-7.236 16.163-16.163 16.163z" fill="#eab14d"/></g><g><path d="m369.138 298.427h-226.276c-8.926 0-16.163-7.236-16.163-16.163v-46.467c0-8.926 7.236-16.163 16.163-16.163h226.276c8.926 0 16.163 7.236 16.163 16.163v46.467c0 8.927-7.236 16.163-16.163 16.163z" fill="#ecbe6b"/></g><g><path d="m369.138 219.634h-226.276c-8.926 0-16.163-7.236-16.163-16.163v-46.467c0-8.926 7.236-16.163 16.163-16.163h226.276c8.926 0 16.163 7.236 16.163 16.163v46.467c0 8.927-7.236 16.163-16.163 16.163z" fill="#eab14d"/></g><g><path d="m369.138 140.841h-226.276c-8.926 0-16.163-7.236-16.163-16.163v-41.416c0-11.716 9.498-21.213 21.213-21.213h216.175c11.716 0 21.213 9.498 21.213 21.213v41.417c.001 8.926-7.235 16.162-16.162 16.162z" fill="#ecbe6b"/></g><g><path d="m369.138 298.427h-37.665c8.926 0 16.163 7.236 16.163 16.163v46.467c0 8.926-7.236 16.163-16.163 16.163h37.665c8.926 0 16.163-7.236 16.163-16.163v-46.467c0-8.927-7.236-16.163-16.163-16.163z" fill="#e7a52e"/></g><g><path d="m369.138 219.634h-37.665c8.926 0 16.163 7.236 16.163 16.163v46.467c0 8.926-7.236 16.163-16.163 16.163h37.665c8.926 0 16.163-7.236 16.163-16.163v-46.467c0-8.927-7.236-16.163-16.163-16.163z" fill="#eab14d"/></g><g><path d="m369.138 140.841h-37.665c8.926 0 16.163 7.236 16.163 16.163v46.467c0 8.926-7.236 16.163-16.163 16.163h37.665c8.926 0 16.163-7.236 16.163-16.163v-46.467c0-8.926-7.236-16.163-16.163-16.163z" fill="#e7a52e"/></g><g><path d="m364.087 62.049h-37.665c11.716 0 21.213 9.498 21.213 21.213v41.417c0 8.926-7.236 16.163-16.163 16.163h37.665c8.926 0 16.163-7.236 16.163-16.163v-41.417c.001-11.716-9.497-21.213-21.213-21.213z" fill="#eab14d"/></g><g><path d="m282.731 361.057h84.854v32.325h-84.854z" fill="#e49542" transform="matrix(0 1 -1 0 702.377 52.062)"/></g><g><path d="m144.416 361.057h84.854v32.325h-84.854z" fill="#e49542" transform="matrix(0 1 -1 0 564.062 190.377)"/></g><path d="m498.439 297.938c4.142 0 7.5-3.357 7.5-7.5v-54.026c0-9.88-2.995-19.38-8.66-27.473l-93.769-133.956c-8.697-12.425-22.787-19.967-37.898-20.393-.16-.008-21.298-.041-21.298-.041v-32.906c-.001-11.934-9.71-21.643-21.643-21.643h-77.457c-4.142 0-7.5 3.357-7.5 7.5s3.358 7.5 7.5 7.5h77.457c3.663 0 6.642 2.979 6.642 6.643v32.906h-146.626v-32.906c0-3.663 2.979-6.643 6.642-6.643h20.742c4.142 0 7.5-3.357 7.5-7.5s-3.358-7.5-7.5-7.5h-20.742c-11.934 0-21.642 9.709-21.642 21.643v32.906s-19.891.004-19.95.004c0 0-1.189.028-1.349.037-15.111.427-29.201 7.967-37.898 20.393l-93.77 133.956c-5.666 8.093-8.66 17.593-8.66 27.473v187.274c0 9.706 7.896 17.603 17.602 17.603h44.448c9.706 0 17.602-7.896 17.602-17.603v-100.115c0-4.143-3.358-7.5-7.5-7.5s-7.5 3.357-7.5 7.5v70.393h-49.65v-157.552c0-6.786 2.057-13.312 5.948-18.871l92.19-131.699v38.836c0 6.245 2.436 11.93 6.403 16.163-3.967 4.233-6.403 9.917-6.403 16.162v46.468c0 6.245 2.436 11.929 6.403 16.162-2.821 3.011-4.864 6.756-5.809 10.916l-44.466 18.527c-2.795 1.164-4.615 3.896-4.615 6.923v32.562c0 4.143 3.358 7.5 7.5 7.5s7.5-3.357 7.5-7.5v-27.561l33.488-13.953v35.218c0 6.246 2.437 11.93 6.404 16.163-3.967 4.233-6.403 9.917-6.403 16.162v46.47c0 6.244 2.436 11.927 6.402 16.16-3.966 4.233-6.402 9.916-6.402 16.16v54.55c0 10.425 6.781 19.291 16.162 22.435v24.034c0 9.705 7.896 17.602 17.602 17.602h206.073c9.706 0 17.602-7.896 17.602-17.602v-24.034c9.381-3.144 16.162-12.01 16.162-22.435v-54.55c0-6.244-2.436-11.927-6.402-16.16 3.966-4.233 6.402-9.916 6.402-16.16v-46.47c0-6.245-2.436-11.929-6.403-16.162 3.967-4.233 6.404-9.918 6.404-16.163v-35.218l33.485 13.953v162.687c0 9.706 7.896 17.603 17.602 17.603h44.447c9.706 0 17.602-7.896 17.602-17.603v-98.187c0-4.143-3.358-7.5-7.5-7.5s-7.5 3.357-7.5 7.5v68.464h-49.65v-137.964c0-3.027-1.82-5.759-4.615-6.923l-44.466-18.527c-.946-4.16-2.988-7.905-5.809-10.916 3.967-4.233 6.403-9.917 6.403-16.162v-46.468c0-6.245-2.436-11.929-6.403-16.162 3.967-4.233 6.403-9.918 6.403-16.163v-38.837l92.19 131.699c3.891 5.56 5.948 12.085 5.948 18.871v54.026c-.002 4.143 3.356 7.5 7.498 7.5zm-427.728 111.026v14.723c0 1.435-1.167 2.603-2.602 2.603h-44.446c-1.435 0-2.602-1.168-2.602-2.603v-14.723zm420.228 0v14.723c0 1.435-1.167 2.603-2.602 2.603h-44.447c-1.435 0-2.602-1.168-2.602-2.603v-14.723zm-126.852-339.415c7.562 0 13.713 6.151 13.713 13.713v41.417c0 4.776-3.886 8.663-8.663 8.663h-105.637v-63.793zm13.714 87.455v46.468c0 4.776-3.886 8.662-8.663 8.662h-105.638v-63.792h105.638c4.777 0 8.663 3.886 8.663 8.662zm-.001 204.056c0 4.775-3.885 8.66-8.66 8.66h-20.32v-34.927c0-4.143-3.358-7.5-7.5-7.5h-32.325c-4.142 0-7.5 3.357-7.5 7.5v34.927h-37.995v-63.79h105.64c4.775 0 8.66 3.885 8.66 8.66zm-43.98 16.15v.01s0 .006 0 .01v34.917h-17.325v-69.854h17.325zm-130.815-49.917h-32.325c-4.142 0-7.5 3.357-7.5 7.5v34.927h-20.32c-4.775 0-8.66-3.885-8.66-8.66v-46.47c0-4.775 3.885-8.66 8.66-8.66h105.64v63.79h-37.995v-34.927c0-4.143-3.358-7.5-7.5-7.5zm-24.825 49.936c0-.003 0-.006 0-.01s0-.006 0-.01v-34.917h17.325v69.854h-17.325zm-43.981-173.757v-46.468c0-4.776 3.886-8.662 8.663-8.662h105.638v63.792h-105.638c-4.777 0-8.663-3.886-8.663-8.662zm114.301 23.662v63.793h-105.638c-4.776 0-8.663-3.886-8.663-8.662v-46.4c0-.023 0-.046 0-.069.001-4.776 3.887-8.662 8.663-8.662zm129.301 8.662v.069 46.4c0 4.776-3.886 8.662-8.663 8.662h-105.638v-63.793h105.638c4.776 0 8.662 3.886 8.663 8.662zm-129.301-166.247v63.793h-105.638c-4.776 0-8.663-3.887-8.663-8.663v-41.417c0-7.562 6.152-13.713 13.713-13.713zm-114.3 323.831c0-4.775 3.885-8.66 8.66-8.66h20.32v34.927c0 4.143 3.358 7.5 7.5 7.5h32.325c4.142 0 7.5-3.357 7.5-7.5v-34.927h37.995v71.87h-105.64c-4.775 0-8.66-3.885-8.66-8.66zm224.837 103.62h-206.074c-1.435 0-2.602-1.167-2.602-2.602v-22.808h211.276v22.809c.001 1.434-1.166 2.601-2.6 2.601zm18.763-49.07c0 4.775-3.885 8.66-8.66 8.66h-105.64v-71.87h37.995v34.927c0 4.143 3.358 7.5 7.5 7.5h32.325c4.142 0 7.5-3.357 7.5-7.5v-34.927h20.32c4.775 0 8.66 3.885 8.66 8.66z"/></g></svg>