<svg id="Capa_1" enable-background="new 0 0 512.021 512.021" height="512" viewBox="0 0 512.021 512.021" width="512" xmlns="http://www.w3.org/2000/svg"><g><g><path d="m430.865 20.118-210.786 210.786c-13.32 13.32-24.98 28.202-34.726 44.322l-39.321 65.035 25.728 25.728 65.035-39.321c16.12-9.746 31.002-21.406 44.322-34.726l210.786-210.786c16.855-16.855 16.855-44.183 0-61.038-16.855-16.855-44.183-16.855-61.038 0z" fill="#64caff"/><path d="m491.908 81.155-210.792 210.792c-13.318 13.318-28.197 24.976-44.32 34.715l-65.035 39.327-12.865-12.865 63.837-40.525c16.123-9.739 31.002-21.397 44.32-34.715l210.792-210.792c14.436-14.436 16.503-36.557 6.209-53.194 2.792 1.723 5.429 3.797 7.847 6.216 16.855 16.855 16.862 44.186.007 61.041z" fill="#00b8ff"/><path d="m86.45 330.652h36.385v153.453h-36.385z" fill="#ffbe84" transform="matrix(.707 .707 -.707 .707 318.709 45.325)"/><path d="m101.978 337.084h18.192v153.453h-18.192z" fill="#ffab69" transform="matrix(.707 .707 -.707 .707 325.141 42.661)"/><path d="m40.916 499.618-28.513-28.513c-6.553-6.553-6.553-17.176 0-23.729 6.553-6.553 17.176-6.553 23.729 0l28.513 28.513c6.553 6.553 6.553 17.176 0 23.729-6.552 6.552-17.176 6.552-23.729 0z" fill="#ffe6c2"/><path d="m64.642 499.618c-3.277 3.277-7.573 4.915-11.862 4.915s-8.586-1.638-11.862-4.915l-15.533-15.533c3.27 3.27 7.566 4.908 11.862 4.915 4.289 0 8.586-1.638 11.862-4.915 6.553-6.553 6.553-17.185.007-23.732l15.533 15.533c6.553 6.553 6.547 17.178-.007 23.732z" fill="#ffd3a3"/><path d="m352.039 43.457h86.321v146.729h-86.321z" fill="#ffe6c2" transform="matrix(.707 .707 -.707 .707 198.356 -245.232)"/><path d="m408.746 66.945h19.885v146.729h-19.885z" fill="#ffd3a3" transform="matrix(.707 .707 -.707 .707 221.845 -254.962)"/></g><path d="m497.207 14.815c-19.754-19.754-51.892-19.752-71.646 0l-210.785 210.786c-13.734 13.734-25.792 29.124-35.841 45.744l-38.85 64.257-103.005 103.005c-3.808-2.375-8.212-3.646-12.812-3.646-6.485 0-12.582 2.525-17.167 7.111-9.466 9.466-9.466 24.869 0 34.335l28.513 28.513c4.734 4.734 10.95 7.1 17.168 7.1 6.216 0 12.435-2.367 17.167-7.1 4.586-4.586 7.111-10.683 7.111-17.168 0-4.6-1.271-9.004-3.646-12.812l23.974-23.974c2.929-2.929 2.929-7.678 0-10.606-2.929-2.929-7.678-2.929-10.606 0l-23.529 23.53-15.121-15.122 97.901-97.901 15.121 15.121-49.912 49.912c-2.929 2.929-2.929 7.678 0 10.606 2.929 2.929 7.678 2.929 10.606 0l54.57-54.571 64.257-38.85c16.619-10.048 32.01-22.107 45.745-35.841l210.787-210.785c19.751-19.753 19.751-51.892 0-71.644zm-437.865 466.378c3.776 3.776 3.786 9.335 0 13.121-3.618 3.619-9.504 3.618-13.123 0l-28.513-28.513c-3.617-3.618-3.618-9.504 0-13.122 3.44-3.44 9.721-3.401 13.122 0 .001 0 28.501 28.5 28.514 28.514zm216.473-194.555c-12.881 12.879-27.314 24.188-42.899 33.611l-60.007 36.28-17.417-17.417 36.28-60.007c9.423-15.586 20.732-30.019 33.611-42.898l87.422-87.422 50.431 50.431zm210.785-210.786-9.005 9.005-18.807-18.807c-2.929-2.929-7.677-2.929-10.607 0-2.929 2.929-2.929 7.678 0 10.606l18.808 18.808-93.146 93.146-50.431-50.431 93.146-93.146 7.375 7.374c2.928 2.93 7.677 2.929 10.606 0s2.929-7.678-.001-10.606l-7.374-7.373 9.005-9.005c13.901-13.902 36.525-13.905 50.431 0 13.904 13.902 13.904 36.525 0 50.429z"/></g></svg>