<svg id="Capa_1" enable-background="new 0 0 511.861 511.861" height="512" viewBox="0 0 511.861 511.861" width="512" xmlns="http://www.w3.org/2000/svg"><g><g><circle cx="255.931" cy="255.931" fill="#f4f8f9" r="248.431"/><path d="m504.361 255.931c0 137.2-111.23 248.43-248.43 248.43-19.5 0-38.48-2.25-56.69-6.5 10.63 1.39 21.46 2.11 32.47 2.11 137.21 0 248.43-111.22 248.43-248.43 0-117.7-81.85-216.28-191.74-241.93 121.86 15.9 215.96 120.13 215.96 246.32z" fill="#e7eef3"/></g><path d="m436.9 74.96c-48.338-48.338-112.608-74.96-180.969-74.96-24.765 0-49.25 3.532-72.777 10.498-3.972 1.176-6.238 5.349-5.062 9.321 1.177 3.971 5.347 6.242 9.321 5.062 22.144-6.556 45.196-9.88 68.519-9.88 4.733 0 9.442.152 14.129.421-.155 10.012-.88 19.928-2.147 29.718l-3.431-4.208c-2.617-3.21-7.341-3.692-10.552-1.074-3.21 2.618-3.691 7.342-1.074 10.552l11.739 14.397c-1.457 6.988-3.188 13.898-5.211 20.709l-2.47-4.473c-2.002-3.625-6.564-4.941-10.191-2.939-3.626 2.003-4.942 6.565-2.939 10.191l9.066 16.415c-3.042 7.894-6.475 15.633-10.288 23.195l-2.207-5.606c-1.518-3.854-5.869-5.747-9.726-4.232-3.854 1.518-5.749 5.872-4.231 9.726l6.746 17.139c-4.78 7.922-10.01 15.605-15.662 23.032l-.832-5.306c-.642-4.093-4.488-6.889-8.571-6.249-4.092.642-6.89 4.479-6.249 8.571l2.895 18.474c-3.417 3.841-6.944 7.608-10.611 11.274-1.857 1.857-3.745 3.671-5.647 5.465l.279-4.783c.241-4.135-2.915-7.683-7.05-7.924-4.135-.237-7.683 2.916-7.924 7.05l-1.133 19.423c-7.435 5.965-15.144 11.501-23.11 16.568l1.074-5.265c.828-4.059-1.792-8.02-5.85-8.847-4.057-.825-8.02 1.792-8.847 5.85l-3.747 18.378c-7.685 4.083-15.566 7.761-23.612 11.037l1.64-4.153c1.521-3.853-.368-8.209-4.221-9.73-3.849-1.522-8.209.368-9.73 4.221l-6.506 16.473c-8.839 2.816-17.843 5.164-26.986 7.018l3.08-4.469c2.351-3.411 1.491-8.081-1.919-10.432-3.411-2.352-8.082-1.491-10.432 1.919l-11.23 16.294c-8.835 1.065-17.772 1.676-26.784 1.838-.295-4.885-.46-9.793-.46-14.728 0-47.105 13.592-92.731 39.307-131.943 25.07-38.229 60.243-68.439 101.719-87.364 3.769-1.72 5.43-6.168 3.71-9.937-1.719-3.769-6.169-5.43-9.937-3.71-44.054 20.102-81.412 52.187-108.036 92.785-27.322 41.663-41.763 90.133-41.763 140.169 0 68.362 26.622 132.631 74.96 180.97s112.608 74.96 180.97 74.96c69.051 0 133.778-27.083 182.26-76.259 2.908-2.95 2.874-7.699-.075-10.606-2.948-2.907-7.697-2.875-10.606.075-45.641 46.295-106.574 71.791-171.578 71.791-4.935 0-9.844-.165-14.728-.458.162-9.012.773-17.95 1.838-26.784l16.294-11.23c3.41-2.351 4.27-7.021 1.919-10.432s-7.02-4.269-10.432-1.919l-4.469 3.08c1.854-9.144 4.202-18.148 7.018-26.986l16.472-6.506c3.853-1.521 5.742-5.878 4.221-9.73-1.521-3.854-5.879-5.742-9.73-4.221l-4.152 1.64c3.275-8.046 6.954-15.927 11.037-23.612l18.377-3.747c4.059-.828 6.679-4.789 5.851-8.847s-4.787-6.679-8.847-5.85l-5.265 1.074c5.067-7.966 10.603-15.675 16.569-23.11l19.421-1.133c4.136-.241 7.292-3.789 7.051-7.924-.241-4.134-3.775-7.291-7.924-7.05l-4.782.279c1.793-1.903 3.608-3.79 5.465-5.647 3.666-3.666 7.433-7.193 11.274-10.61 0 0 19.258 2.986 19.643 2.986 3.631 0 6.821-2.641 7.4-6.34.642-4.092-2.156-7.929-6.248-8.571l-5.306-.831c7.426-5.652 15.107-10.884 23.028-15.664 0 0 17.143 6.748 17.144 6.748 3.792 1.495 8.228-.431 9.725-4.232 1.518-3.854-.377-8.208-4.231-9.726l-5.612-2.209c7.562-3.813 15.301-7.247 23.195-10.29l16.422 9.07c1.149.635 2.393.936 3.619.936 2.643 0 5.204-1.399 6.572-3.875 2.002-3.626.687-8.188-2.939-10.191l-4.466-2.466c6.809-2.022 13.715-3.759 20.701-5.216l14.399 11.739c1.393 1.135 3.068 1.688 4.734 1.687 2.177 0 4.336-.942 5.817-2.761 2.618-3.21 2.137-7.935-1.073-10.552l-4.211-3.433c9.79-1.267 19.709-1.982 29.722-2.136.269 4.685.421 9.392.421 14.122 0 51.97-16.284 101.458-47.092 143.114-2.463 3.33-1.76 8.026 1.57 10.489 1.342.992 2.904 1.471 4.454 1.471 2.297 0 4.565-1.052 6.036-3.041 32.73-44.256 50.031-96.829 50.031-152.033-.003-68.365-26.624-132.635-74.964-180.974zm28.33 154.065 3.033-3.996c2.504-3.299 1.859-8.004-1.44-10.508s-8.005-1.859-10.509 1.44l-12.678 16.704c-7.37 1.547-14.659 3.379-21.843 5.52l2.413-4.752c1.875-3.693.401-8.208-3.292-10.083-3.692-1.875-8.207-.402-10.083 3.292l-9.396 18.505c-7.7 2.978-15.259 6.307-22.66 9.979l1.45-4.098c1.382-3.905-.663-8.191-4.567-9.573-3.905-1.381-8.189.663-9.573 4.568l-7.061 19.947c-8.252 4.986-16.261 10.434-24.004 16.316l.61-5.029c.499-4.112-2.431-7.85-6.542-8.348-4.103-.498-7.851 2.43-8.349 6.542l-2.505 20.657c-3.987 3.555-7.898 7.222-11.708 11.031-2.259 2.259-4.458 4.562-6.628 6.885l-.521-5.577c-.386-4.124-4.033-7.165-8.165-6.77-4.124.385-7.155 4.041-6.771 8.165l1.856 19.873c-6.301 7.843-12.148 15.976-17.504 24.378l-1.183-4.921c-.968-4.026-5.02-6.511-9.045-5.539-4.028.968-6.507 5.018-5.539 9.045l4.847 20.159c-4.438 8.366-8.42 16.952-11.953 25.721l-2.388-5.481c-1.654-3.796-6.074-5.535-9.872-3.879-3.797 1.655-5.534 6.074-3.879 9.872l8.775 20.137c-2.775 8.905-5.103 17.966-6.958 27.16l-2.98-4.017c-2.467-3.327-7.165-4.024-10.492-1.555-3.327 2.468-4.023 7.165-1.555 10.492l11.669 15.73c-1.142 9.249-1.816 18.605-2.021 28.039-53.104-6.49-102.225-30.336-140.652-68.763s-62.273-87.548-68.763-140.652c9.434-.206 18.79-.88 28.039-2.021l15.73 11.669c1.343.997 2.909 1.477 4.462 1.477 2.293 0 4.558-1.048 6.029-3.032 2.468-3.327 1.771-8.024-1.555-10.492l-4.017-2.98c9.194-1.854 18.255-4.183 27.16-6.958 0 0 22.129 9.401 23.129 9.401 2.894 0 5.65-1.684 6.879-4.506 1.655-3.797-.082-8.217-3.879-9.872l-5.48-2.388c8.77-3.533 17.355-7.516 25.722-11.954 0 0 21.337 5.057 21.918 5.057 3.387 0 6.459-2.311 7.286-5.749.969-4.027-1.511-8.077-5.539-9.045l-4.921-1.183c8.403-5.356 16.535-11.203 24.379-17.504l19.872 1.856c.237.022.473.033.706.033 3.828 0 7.096-2.916 7.458-6.803.385-4.124-2.646-7.78-6.77-8.165l-5.577-.521c2.323-2.17 4.626-4.369 6.886-6.628 3.809-3.809 7.477-7.721 11.032-11.708l20.656-2.505c4.112-.499 7.041-4.236 6.542-8.348s-4.228-7.041-8.348-6.542l-5.026.609c5.884-7.744 11.333-15.753 16.322-24.007l19.94-7.058c3.904-1.382 5.949-5.668 4.567-9.573-1.383-3.904-5.664-5.948-9.573-4.567l-4.086 1.446c3.673-7.403 7.005-14.963 9.984-22.664l18.489-9.387c3.693-1.875 5.167-6.389 3.292-10.083-1.876-3.693-6.388-5.167-10.083-3.292l-4.735 2.404c2.141-7.186 3.974-14.476 5.52-21.849l16.686-12.661c3.3-2.504 3.944-7.209 1.44-10.508s-7.21-3.944-10.509-1.44l-3.983 3.023c1.257-9.851 2.006-19.82 2.2-29.884 53.33 6.385 102.675 30.259 141.245 68.829s62.446 87.917 68.83 141.249c-10.067.196-20.04.949-29.893 2.208z"/></g></svg>