<svg id="Capa_1" enable-background="new 0 0 511.885 511.885" height="512" viewBox="0 0 511.885 511.885" width="512" xmlns="http://www.w3.org/2000/svg"><g><g><circle cx="255.943" cy="255.954" fill="#f08045" r="248.431"/><path d="m504.373 255.954c0 137.2-111.23 248.43-248.43 248.43-19.5 0-38.48-2.25-56.69-6.5 10.63 1.39 21.46 2.11 32.47 2.11 137.21 0 248.43-111.22 248.43-248.43 0-117.7-81.85-216.28-191.74-241.93 121.86 15.9 215.96 120.13 215.96 246.32z" fill="#e26d2e"/></g><path d="m436.913 74.984c-17.51-17.511-37.322-32.328-58.884-44.039-3.64-1.976-8.192-.629-10.17 3.011-1.977 3.64-.628 8.193 3.011 10.17 20.295 11.022 38.946 24.973 55.437 41.463 5.67 5.67 11.023 11.573 16.05 17.688-21.655-5.061-57.826-10.482-102.393-5.577-7.605.837-15.17 1.946-22.69 3.325-10.681-7.843-18.49-16.468-23.614-26.028-9.105-16.986-8.838-43.059 7.393-55.757 13.335 2.535 26.487 6.203 39.321 10.995 3.88 1.449 8.201-.522 9.649-4.403 1.449-3.88-.522-8.201-4.403-9.649-45.366-16.936-94.47-20.664-142.002-10.783-48.78 10.141-93.265 34.203-128.646 69.583-48.339 48.34-74.961 112.609-74.961 180.971s26.622 132.631 74.961 180.97 112.608 74.961 180.97 74.961 132.631-26.622 180.97-74.961 74.961-112.608 74.961-180.97-26.621-132.631-74.96-180.97zm-96.075 37.713c35.885-4.042 66.077-.839 85.086 2.559 15.796 2.823 26.706 6.246 31.019 7.721 25.981 39.096 39.931 84.965 39.931 132.978 0 13.388-1.085 26.61-3.213 39.564-1.894-18.18-5.473-34.905-10.776-50.458-12.176-35.711-33.632-64.371-63.772-85.182-18.977-13.103-51.518-32.684-74.447-43.166-2.571-1.175-5.052-2.37-7.444-3.586 1.204-.151 2.409-.295 3.616-.43zm-134.167-92.611c25.264-5.252 50.998-6.421 76.302-3.575-13.822 18.711-12.928 46.186-2.535 65.575 4.442 8.287 10.45 15.916 18.107 22.957-19.175 4.713-38.008 11.209-56.383 19.451-26.208-43.599-55.01-71.977-78.122-91.321 13.699-5.648 27.959-10.036 42.631-13.087zm-121.092 65.504c18.659-18.659 40.006-33.973 63.245-45.513 24.331 19.646 53.311 46.996 79.785 90.855-3.617 1.815-7.216 3.699-10.794 5.653-15.268 8.334-30.175 17.934-44.684 28.764-4.889-8.77-11.026-16.892-18.355-24.164-13.323-13.219-30.077-23.129-48.451-28.661-13.031-3.923-26.697-5.574-40.268-4.922 6.013-7.665 12.526-15.016 19.522-22.012zm-49.513 269.178c12.861-23.535 26.535-45.699 40.674-65.924 2.373-3.395 1.545-8.071-1.85-10.444s-8.071-1.544-10.444 1.85c-12.285 17.573-24.21 36.575-35.571 56.629-9.115-25.632-13.863-52.913-13.863-80.924 0-47.621 13.723-93.132 39.297-132.019 32.64-5.532 66.839 5.016 89.903 27.898 6.929 6.875 12.607 14.516 16.991 22.77-26.897 21.667-52.341 47.664-76.068 77.763-2.564 3.253-2.006 7.969 1.247 10.533 1.375 1.084 3.013 1.61 4.638 1.61 2.218 0 4.415-.98 5.895-2.857 22.055-27.977 45.599-52.272 70.408-72.689 5.264 15.999 6.253 33.702 2.705 52.209-3.036 15.834-7.39 31.356-11.6 46.368-8.469 30.195-15.975 60.415-15.974 91.885 0 39.113 8.153 72.796 24.268 100.472-30.033-11.959-57.595-30.031-81.142-53.578-21.018-21.019-37.674-45.235-49.514-71.552zm154.096 133.076c-21.706-27.783-32.709-64.244-32.709-108.419 0-30.124 7.318-58.961 15.417-87.835 4.294-15.31 8.734-31.141 11.889-47.594 4.361-22.745 2.464-44.966-5.134-64.761 14.577-11.064 29.563-20.821 44.916-29.233 3.834-2.101 7.693-4.118 11.574-6.053 5.065 9.199 10.009 19.059 14.778 29.648 36.007 79.953 54.48 186.969 54.927 318.15-16.222 3.397-32.916 5.138-49.877 5.138-22.561 0-44.648-3.08-65.781-9.041zm236.144-61.526c-29.787 29.787-66 50.814-105.512 61.786-.405-68.618-5.701-131.112-15.775-185.87-9.283-50.458-22.892-95.811-40.45-134.796-4.783-10.622-9.768-20.562-14.889-29.872 20.871-9.245 42.344-16.134 64.237-20.609 7.209 4.761 15.368 9.218 24.513 13.398 22.149 10.125 53.71 29.128 72.161 41.867 27.435 18.943 46.982 45.078 58.098 77.679 9.128 26.772 12.88 58.855 11.158 95.373-11.961 29.995-30.02 57.523-53.541 81.044z"/></g></svg>