<svg id="Capa_1" enable-background="new 0 0 512 512" height="512" viewBox="0 0 512 512" width="512" xmlns="http://www.w3.org/2000/svg"><g><g><path d="m421.573 504.498h-331.146c-3.602 0-6.522-2.92-6.522-6.522v-483.952c0-3.602 2.92-6.522 6.522-6.522h331.147c3.602 0 6.522 2.92 6.522 6.522v483.952c-.001 3.602-2.921 6.522-6.523 6.522z" fill="#f08045"/><path d="m428.097 14.024v483.951c0 3.601-2.921 6.522-6.522 6.522h-20.005c3.601 0 6.522-2.921 6.522-6.522v-483.951c0-3.601-2.921-6.522-6.522-6.522h20.005c3.601.001 6.522 2.921 6.522 6.522z" fill="#e26d2e"/><circle cx="256" cy="256" fill="#f4f8f9" r="33.187"/><path d="m289.499 256c0 18.325-14.854 33.189-33.179 33.189-7.502 0-14.434-2.491-19.985-6.692 17.565-.85 31.559-15.364 31.559-33.149 0-10.833-5.192-20.446-13.224-26.497.55-.03 1.1-.04 1.651-.04 18.324 0 33.178 14.864 33.178 33.189z" fill="#e7eef3"/><path d="m395.159 504.498h-278.318v-44.829c0-76.855 62.303-139.158 139.158-139.158 76.855 0 139.158 62.303 139.158 139.158v44.829z" fill="#ffbe84"/><path d="m395.158 459.665v44.832h-19.665v-44.762c0-38.43-15.574-73.22-40.761-98.397-23.116-23.126-54.335-38.15-89.034-40.451 3.401-.25 6.832-.38 10.303-.38 38.43 0 73.22 15.574 98.397 40.761 25.186 25.187 40.76 59.977 40.76 98.397z" fill="#ffab69"/><path d="m310.016 504.497h-108.032l14.371-116.429h79.29z" fill="#ffe6c2"/><path d="m310.015 504.496h-21.576l-14.374-116.432h21.576z" fill="#ffd3a3"/><circle cx="256" cy="389.25" fill="#f4f8f9" r="39.705"/><path d="m295.701 389.255c0 21.926-17.775 39.701-39.701 39.701-7.292 0-14.124-1.961-19.985-5.392h.32c21.926 0 39.701-17.785 39.701-39.711 0-14.634-7.922-27.427-19.715-34.309 21.775.17 39.38 17.885 39.38 39.711z" fill="#e7eef3"/><path d="m395.159 7.503h-278.318v44.829c0 76.855 62.303 139.158 139.158 139.158 76.855 0 139.158-62.303 139.158-139.158v-44.829z" fill="#ffbe84"/><path d="m395.158 52.336v-44.832h-19.665v44.762c0 38.43-15.574 73.22-40.761 98.397-23.116 23.126-54.335 38.15-89.034 40.451 3.401.25 6.832.38 10.303.38 38.43 0 73.22-15.574 98.397-40.761 25.186-25.187 40.76-59.977 40.76-98.397z" fill="#ffab69"/><path d="m310.016 7.502h-108.032l14.371 116.429h79.29z" fill="#ffe6c2"/><path d="m310.015 7.503h-21.576l-14.374 116.432h21.576z" fill="#ffd3a3"/><circle cx="256" cy="122.749" fill="#f4f8f9" r="39.705"/><path d="m295.701 122.755c0 21.926-17.775 39.701-39.701 39.701-7.292 0-14.124-1.96-19.985-5.392h.32c21.926 0 39.701-17.785 39.701-39.711 0-14.634-7.922-27.427-19.715-34.309 21.775.17 39.38 17.885 39.38 39.711z" fill="#e7eef3"/></g><g><path d="m421.573 0h-331.146c-7.733 0-14.024 6.291-14.024 14.024v483.952c0 7.733 6.291 14.024 14.024 14.024h331.146c7.733 0 14.024-6.291 14.024-14.024v-483.952c0-7.733-6.291-14.024-14.024-14.024zm-134.56 131.433c-3.8 13.552-16.264 23.519-31.013 23.519s-27.213-9.967-31.013-23.519zm-62.592-15.004c2.945-14.741 15.985-25.882 31.579-25.882s28.634 11.142 31.579 25.882zm67.576-24.187c-8.666-10.21-21.588-16.7-35.997-16.7s-27.331 6.49-35.997 16.7l-9.534-77.237h91.062zm-182.658-77.238v37.327c0 80.869 65.792 146.661 146.661 146.661 50.356 0 96.61-25.376 123.727-67.882 2.229-3.493 1.203-8.131-2.29-10.359-3.495-2.229-8.132-1.204-10.359 2.29-24.347 38.164-65.872 60.948-111.078 60.948-72.596 0-131.657-59.061-131.657-131.657v-37.327h71.008l13.461 109.052c.695 25.428 21.596 45.899 47.188 45.899s46.493-20.471 47.188-45.899l13.461-109.052h71.008v37.327c0 13.813-2.128 27.417-6.323 40.432-1.271 3.943.895 8.171 4.838 9.442 3.944 1.271 8.171-.895 9.442-4.838 4.676-14.505 7.047-29.657 7.047-45.036v-37.328h17.933v233.494h-124.599c-3.53-18.865-20.121-33.187-39.995-33.187s-36.464 14.322-39.995 33.187h-124.598v-233.494zm172.346 240.996c0 14.163-11.522 25.685-25.685 25.685s-25.685-11.522-25.685-25.685 11.522-25.685 25.685-25.685 25.685 11.522 25.685 25.685zm-56.698 124.566c3.8-13.552 16.264-23.518 31.013-23.518s27.213 9.966 31.013 23.518zm62.592 15.004c-2.945 14.741-15.985 25.883-31.579 25.883s-28.635-11.142-31.579-25.883zm29.07 101.426-13.461-109.054c-.696-25.427-21.596-45.898-47.188-45.898s-46.493 20.471-47.188 45.898l-5.603 45.394c-.508 4.112 2.414 7.857 6.526 8.365 4.122.51 7.857-2.414 8.365-6.526l1.903-15.417c8.666 10.21 21.588 16.7 35.997 16.7s27.332-6.49 35.997-16.7l9.534 77.238h-91.062l3.357-27.198c.508-4.112-2.414-7.857-6.526-8.365-4.121-.512-7.857 2.414-8.365 6.526l-3.584 29.037h-71.008v-37.327c0-72.595 59.061-131.656 131.657-131.656s131.657 59.061 131.657 131.656v37.327zm86.012 0v-37.327c0-80.869-65.792-146.66-146.661-146.66s-146.661 65.791-146.661 146.66v37.327h-17.932v-233.494h124.599c3.53 18.865 20.121 33.187 39.995 33.187s36.464-14.322 39.995-33.187h124.599v233.494z"/><path d="m234.423 485.636h43.154c4.143 0 7.502-3.359 7.502-7.502s-3.359-7.502-7.502-7.502h-43.154c-4.143 0-7.502 3.359-7.502 7.502s3.359 7.502 7.502 7.502z"/><path d="m234.423 41.367h43.154c4.143 0 7.502-3.359 7.502-7.502s-3.359-7.502-7.502-7.502h-43.154c-4.143 0-7.502 3.359-7.502 7.502s3.359 7.502 7.502 7.502z"/></g></g></svg>