<svg id="Capa_1" enable-background="new 0 0 511.884 511.884" height="512" viewBox="0 0 511.884 511.884" width="512" xmlns="http://www.w3.org/2000/svg"><g><g><circle cx="255.954" cy="255.942" fill="#8296e1" r="248.431"/><path d="m431.624 431.612c-65.5 65.5-158.46 86.78-241.81 63.84 78.11 14.91 162-7.87 222.47-68.34 97.02-97.02 97.02-254.32 0-351.33-31.58-31.58-69.55-52.88-109.75-63.89 47.29 8.98 92.48 31.77 129.09 68.38 97.02 97.02 97.02 254.32 0 351.34z" fill="#6380dc"/><circle cx="369.388" cy="131.203" fill="#d4e8ed" r="29.311"/><g fill="#d4e8ed"><circle cx="275.828" cy="179.624" r="29.311"/><circle cx="371.569" cy="236.528" r="29.311"/></g><g fill="#c0d4de"><path d="m394.584 146.182c-8.27 13.91-26.26 18.49-40.17 10.22-2.78-1.65-5.18-3.69-7.18-6 11.2 1.38 22.66-3.81 28.8-14.12 6.62-11.14 5.01-24.89-3.05-34.18 3.9.48 7.77 1.76 11.38 3.9 13.92 8.28 18.49 26.26 10.22 40.18z"/><g><path d="m301.024 194.602c-8.27 13.91-26.26 18.49-40.17 10.22-2.78-1.65-5.18-3.69-7.18-6 11.19 1.38 22.66-3.81 28.79-14.12 6.63-11.14 5.02-24.89-3.04-34.17 3.91.48 7.78 1.76 11.38 3.9 13.91 8.27 18.49 26.25 10.22 40.17z"/><path d="m396.764 251.502c-8.27 13.92-26.25 18.49-40.17 10.22-2.78-1.65-5.18-3.69-7.18-6 11.2 1.38 22.67-3.8 28.8-14.12 6.62-11.14 5.01-24.89-3.04-34.17 3.9.48 7.77 1.76 11.37 3.9 13.92 8.27 18.49 26.26 10.22 40.17z"/></g></g></g><g><path d="m436.924 74.972c-48.339-48.339-112.608-74.96-180.97-74.96s-132.631 26.621-180.97 74.96c-35.364 35.364-59.421 79.827-69.57 128.581-9.889 47.506-6.181 96.588 10.723 141.939 1.447 3.882 5.768 5.858 9.647 4.408 3.881-1.446 5.854-5.766 4.408-9.646-15.915-42.698-19.405-88.911-10.093-133.645 9.552-45.886 32.198-87.738 65.491-121.03 45.506-45.507 106.009-70.567 170.364-70.567s124.858 25.061 170.364 70.567 70.567 106.009 70.567 170.363-25.062 124.858-70.567 170.363c-45.506 45.507-106.009 70.567-170.364 70.567s-124.858-25.06-170.364-70.567c-16.509-16.509-30.472-35.183-41.499-55.502-1.976-3.641-6.528-4.992-10.169-3.015-3.64 1.976-4.99 6.528-3.014 10.169 11.716 21.589 26.545 41.424 44.076 58.955 48.339 48.339 112.608 74.96 180.97 74.96s132.631-26.621 180.97-74.96c48.339-48.34 74.96-112.609 74.96-180.971s-26.621-132.63-74.96-180.969z"/><path d="m388.195 99.559c-17.449-10.37-40.081-4.612-50.451 12.836-10.37 17.449-4.612 40.08 12.835 50.451 26.829 15.947 62.315-9.932 54.482-40.72-2.423-9.529-8.414-17.543-16.866-22.567zm-.307 42.629c-5.892 9.364-18.656 14.295-29.643 7.764-10.338-6.145-13.75-19.555-7.605-29.893 4.073-6.853 11.338-10.662 18.788-10.662 9.961.001 18.608 6.637 21.098 16.428 1.519 5.973.287 11.715-2.638 16.363z"/><path d="m257.02 211.267c17.238 10.245 40.194 4.419 50.451-12.836 10.371-17.447 4.612-40.08-12.836-50.451-17.448-10.369-40.08-4.613-50.451 12.836-5.024 8.452-6.455 18.355-4.031 27.885 2.425 9.528 8.415 17.543 16.867 22.566zm.059-42.787c6.263-10.538 19.432-13.822 29.892-7.605 10.338 6.146 13.75 19.555 7.605 29.893-5.961 10.031-19.852 13.573-29.892 7.605-10.292-6.117-13.582-19.836-7.605-29.893z"/><path d="m398.721 249.89c4.053.85 8.03-1.744 8.881-5.799 4.396-20.936-11.758-43.535-33.534-44.834-17.964-1.072-36.593 14.559-38.996 32.317-1.957 14.461 5.228 29.191 17.688 36.597 7.028 4.177 16.988 6.01 24.978 4.648 4.083-.695 6.83-4.57 6.134-8.653-.695-4.083-4.565-6.828-8.653-6.134-5.088.867-10.345-.11-14.794-2.755-10.174-6.047-13.669-19.689-7.605-29.893 6.144-10.339 19.554-13.75 29.892-7.605 8.023 4.769 12.126 14.104 10.21 23.23-.851 4.054 1.746 8.031 5.799 8.881z"/></g></g></svg>