<svg id="Capa_1" enable-background="new 0 0 511.94 511.94" height="512" viewBox="0 0 511.94 511.94" width="512" xmlns="http://www.w3.org/2000/svg"><g><g><path d="m106.757 7.499h298.427v496.941h-298.427z" fill="#ffe6c2"/><path d="m385.165 7.499h20.018v496.941h-20.018z" fill="#ffd3a3"/><g fill="#f4f8f9"><circle cx="163.114" cy="62.909" r="16.955"/><circle cx="225.018" cy="62.909" r="16.955"/><circle cx="286.922" cy="62.909" r="16.955"/><circle cx="348.827" cy="62.909" r="16.955"/></g><g fill="#f4f8f9"><circle cx="194.066" cy="120.079" r="16.955"/><circle cx="255.97" cy="120.079" r="16.955"/><circle cx="317.875" cy="120.079" r="16.955"/></g><g><circle cx="255.97" cy="177.249" fill="#f4f8f9" r="16.955"/></g><g fill="#e7eef3"><path d="m180.072 62.905c0 9.369-7.597 16.955-16.955 16.955-5.825 0-10.97-2.933-14.023-7.417h.02c9.369 0 16.955-7.597 16.955-16.955 0-3.533-1.081-6.816-2.933-9.539 9.349.011 16.936 7.608 16.936 16.956z"/><path d="m241.978 62.905c0 9.369-7.597 16.955-16.955 16.955-5.825 0-10.97-2.933-14.023-7.417h.02c9.368 0 16.955-7.597 16.955-16.955 0-3.533-1.081-6.816-2.933-9.539 9.349.011 16.936 7.608 16.936 16.956z"/><path d="m303.873 62.905c0 9.369-7.587 16.955-16.955 16.955-5.825 0-10.96-2.933-14.023-7.417h.03c9.358 0 16.955-7.597 16.955-16.955 0-3.533-1.081-6.816-2.933-9.539 9.36.021 16.926 7.608 16.926 16.956z"/><path d="m365.779 62.905c0 9.369-7.587 16.955-16.955 16.955-5.825 0-10.96-2.933-14.023-7.417h.03c9.358 0 16.955-7.597 16.955-16.955 0-3.533-1.081-6.816-2.933-9.539 9.36.021 16.926 7.608 16.926 16.956z"/></g><g fill="#e7eef3"><path d="m211.02 120.077c0 9.368-7.587 16.955-16.955 16.955-5.825 0-10.97-2.943-14.023-7.427h.03c9.358 0 16.955-7.587 16.955-16.955 0-3.523-1.081-6.806-2.933-9.529 9.359.021 16.926 7.608 16.926 16.956z"/><path d="m272.926 120.077c0 9.368-7.587 16.955-16.955 16.955-5.835 0-10.98-2.943-14.023-7.427h.03c9.358 0 16.945-7.587 16.945-16.955 0-3.523-1.081-6.806-2.933-9.529 9.359.011 16.936 7.608 16.936 16.956z"/><path d="m334.831 120.077c0 9.368-7.597 16.955-16.955 16.955-5.835 0-10.98-2.943-14.033-7.427h.03c9.369 0 16.955-7.587 16.955-16.955 0-3.523-1.081-6.806-2.933-9.529 9.35.011 16.936 7.608 16.936 16.956z"/></g><g><path d="m272.926 177.249c0 9.368-7.587 16.955-16.955 16.955-5.835 0-10.98-2.943-14.023-7.427h.03c9.358 0 16.945-7.587 16.945-16.955 0-3.523-1.081-6.806-2.933-9.529 9.359.01 16.936 7.607 16.936 16.956z" fill="#e7eef3"/></g><g><path d="m405.184 7.5v496.939h37.347c3.817 0 6.914-3.096 6.914-6.914v-483.111c0-3.817-3.096-6.914-6.914-6.914z" fill="#a4ed62"/></g><g><path d="m449.445 14.412v483.116c0 3.814-3.093 6.916-6.916 6.916h-20.018c3.823 0 6.916-3.103 6.916-6.916v-483.116c0-3.813-3.093-6.916-6.916-6.916h20.018c3.823-.001 6.916 3.102 6.916 6.916z" fill="#7be700"/></g><g><path d="m106.757 7.5v496.939h-37.347c-3.817 0-6.914-3.096-6.914-6.914v-483.111c0-3.817 3.096-6.914 6.914-6.914z" fill="#a4ed62"/></g><g><path d="m86.737 7.495h20.018v496.949h-20.018z" fill="#7be700"/></g></g><g><path d="m163.114 87.364c13.484 0 24.455-10.971 24.455-24.455s-10.97-24.455-24.455-24.455-24.455 10.971-24.455 24.455 10.97 24.455 24.455 24.455zm0-33.91c5.213 0 9.455 4.241 9.455 9.455s-4.241 9.455-9.455 9.455-9.455-4.241-9.455-9.455 4.241-9.455 9.455-9.455z"/><path d="m249.473 62.909c0-13.484-10.97-24.455-24.455-24.455s-24.455 10.971-24.455 24.455 10.971 24.455 24.455 24.455 24.455-10.97 24.455-24.455zm-33.91 0c0-5.214 4.242-9.455 9.455-9.455s9.455 4.241 9.455 9.455-4.241 9.455-9.455 9.455-9.455-4.241-9.455-9.455z"/><path d="m311.377 62.909c0-13.484-10.971-24.455-24.455-24.455s-24.455 10.971-24.455 24.455 10.97 24.455 24.455 24.455 24.455-10.97 24.455-24.455zm-33.909 0c0-5.214 4.241-9.455 9.455-9.455s9.455 4.241 9.455 9.455-4.242 9.455-9.455 9.455-9.455-4.241-9.455-9.455z"/><path d="m373.282 62.909c0-13.484-10.971-24.455-24.455-24.455s-24.455 10.971-24.455 24.455 10.97 24.455 24.455 24.455 24.455-10.97 24.455-24.455zm-33.91 0c0-5.214 4.241-9.455 9.455-9.455s9.455 4.241 9.455 9.455-4.242 9.455-9.455 9.455-9.455-4.241-9.455-9.455z"/><path d="m218.521 120.079c0-13.484-10.97-24.455-24.455-24.455s-24.455 10.971-24.455 24.455 10.971 24.455 24.455 24.455 24.455-10.971 24.455-24.455zm-33.91 0c0-5.214 4.242-9.455 9.455-9.455s9.455 4.241 9.455 9.455-4.241 9.455-9.455 9.455-9.455-4.241-9.455-9.455z"/><path d="m255.97 95.624c-13.484 0-24.455 10.971-24.455 24.455s10.971 24.455 24.455 24.455 24.455-10.971 24.455-24.455-10.97-24.455-24.455-24.455zm0 33.91c-5.213 0-9.455-4.241-9.455-9.455s4.242-9.455 9.455-9.455 9.455 4.241 9.455 9.455-4.241 9.455-9.455 9.455z"/><path d="m293.42 120.079c0 13.484 10.97 24.455 24.455 24.455s24.455-10.971 24.455-24.455-10.971-24.455-24.455-24.455-24.455 10.971-24.455 24.455zm33.91 0c0 5.214-4.242 9.455-9.455 9.455s-9.455-4.241-9.455-9.455 4.241-9.455 9.455-9.455 9.455 4.241 9.455 9.455z"/><path d="m255.97 152.794c-13.484 0-24.455 10.971-24.455 24.455s10.971 24.455 24.455 24.455 24.455-10.971 24.455-24.455-10.97-24.455-24.455-24.455zm0 33.91c-5.213 0-9.455-4.241-9.455-9.455s4.242-9.455 9.455-9.455 9.455 4.241 9.455 9.455-4.241 9.455-9.455 9.455z"/><path d="m442.531 0h-373.121c-7.948 0-14.414 6.466-14.414 14.413v483.112c0 7.948 6.466 14.414 14.414 14.414l243.963.001c4.142 0 7.5-3.357 7.5-7.5s-3.358-7.5-7.5-7.5h-199.116v-388.133c0-4.143-3.358-7.5-7.5-7.5s-7.5 3.357-7.5 7.5v388.133h-29.261v-481.94h29.261v58.789c0 4.143 3.358 7.5 7.5 7.5s7.5-3.357 7.5-7.5v-58.79h283.427v481.941h-50.269c-4.142 0-7.5 3.357-7.5 7.5s3.358 7.5 7.5 7.5l95.116-.001c7.948 0 14.414-6.466 14.414-14.414v-483.112c-.001-7.947-6.466-14.413-14.414-14.413zm-.587 496.939h-29.261v-481.939h29.261z"/><path d="m145.839 454.549c3.298 2.506 8.003 1.861 10.509-1.436l5.679-7.477 5.679 7.477c1.476 1.942 3.713 2.963 5.978 2.963 1.581 0 3.175-.498 4.531-1.527 3.298-2.506 3.941-7.211 1.436-10.51l-11.651-15.338c-1.418-1.866-3.628-2.963-5.972-2.963-2.345 0-4.554 1.097-5.972 2.963l-11.651 15.338c-2.508 3.299-1.864 8.004 1.434 10.51z"/><path d="m344.235 453.113 5.679-7.477 5.679 7.477c2.505 3.297 7.211 3.939 10.509 1.436 3.298-2.506 3.941-7.211 1.436-10.51l-11.651-15.338c-1.418-1.866-3.627-2.963-5.972-2.963-2.344 0-4.554 1.097-5.972 2.963l-11.651 15.338c-2.506 3.299-1.863 8.004 1.436 10.51 1.356 1.03 2.95 1.527 4.531 1.527 2.262 0 4.501-1.021 5.976-2.963z"/><path d="m187.037 403.089c3.298 2.505 8.003 1.863 10.509-1.437l5.679-7.476 5.678 7.476c1.476 1.943 3.713 2.964 5.978 2.964 1.581 0 3.175-.498 4.531-1.527 3.298-2.506 3.941-7.211 1.436-10.509l-11.651-15.339c-1.418-1.867-3.628-2.964-5.973-2.964-2.344 0-4.554 1.097-5.972 2.964l-11.651 15.339c-2.506 3.298-1.863 8.003 1.436 10.509z"/><path d="m314.688 377.241c-1.418-1.867-3.627-2.964-5.972-2.964s-4.554 1.097-5.973 2.964l-11.651 15.339c-2.505 3.298-1.862 8.003 1.436 10.509 1.356 1.03 2.95 1.527 4.531 1.527 2.264 0 4.502-1.021 5.978-2.964l5.678-7.476 5.679 7.476c2.505 3.298 7.211 3.942 10.509 1.437 3.298-2.506 3.941-7.211 1.436-10.509z"/><path d="m255.97 322.817c-2.345 0-4.554 1.097-5.972 2.963l-11.651 15.338c-2.506 3.299-1.863 8.004 1.436 10.51 3.298 2.506 8.003 1.861 10.509-1.436l5.679-7.476 5.679 7.476c1.475 1.941 3.713 2.963 5.978 2.963 1.581 0 3.175-.498 4.531-1.527 3.298-2.506 3.941-7.211 1.436-10.51l-11.651-15.338c-1.42-1.866-3.629-2.963-5.974-2.963z"/></g></g></svg>