<svg id="Capa_1" enable-background="new 0 0 511.938 511.938" height="512" viewBox="0 0 511.938 511.938" width="512" xmlns="http://www.w3.org/2000/svg"><g><g><path d="m75.063 97.056h146.661c4.079 0 7.386 3.307 7.386 7.386v105.811h-161.433v-105.811c0-4.079 3.306-7.386 7.386-7.386z" fill="#d4e8ed"/><path d="m290.25 414.882h146.661c4.079 0 7.386-3.307 7.386-7.386v-105.808h-161.432v105.808c0 4.079 3.306 7.386 7.385 7.386z" fill="#d4e8ed"/><path d="m444.299 301.688v105.81c0 4.08-3.31 7.38-7.39 7.38h-20c4.08 0 7.39-3.3 7.39-7.38v-105.81z" fill="#c0d4de"/><path d="m282.865 331.147h161.433v54.272h-161.433z" fill="#889daa" transform="matrix(-1 0 0 -1 727.162 716.566)"/><path d="m397.744 385.419h46.554v-54.272h-46.554c-10.084 0-18.258 8.175-18.258 18.258v17.756c-.001 10.084 8.174 18.258 18.258 18.258z" fill="#4f6c77"/><path d="m424.299 331.148h20v54.27h-20z" fill="#395a61"/><path d="m229.11 210.246v-105.81c0-4.08-3.31-7.38-7.39-7.38h-20c4.08 0 7.39 3.3 7.39 7.38v105.81z" fill="#c0d4de"/><path d="m244.636 273.989-15.548-63.735h-161.448l-46.758 66.665c-8.689 12.389-13.351 27.154-13.351 42.286v32.395c0 16.599 13.456 30.054 30.054 30.054 16.598 0 30.054-13.456 30.054-30.054v104.017c0 26.963 21.857 48.82 48.82 48.82h87.309c26.963 0 48.82-21.857 48.82-48.82v-115.463c.001-22.294-2.669-44.507-7.952-66.165z" fill="#64caff"/><path d="m252.589 340.158v115.46c0 26.96-21.86 48.82-48.82 48.82h-20c26.96 0 48.82-21.86 48.82-48.82v-115.46c0-22.3-2.67-44.51-7.95-66.17l-15.55-63.73h20l15.55 63.73c5.28 21.66 7.95 43.87 7.95 66.17z" fill="#00b8ff"/><path d="m474.352 130.283c-16.598 0-30.054 13.456-30.054 30.054v-104.017c0-26.962-21.857-48.82-48.82-48.82h-87.309c-26.963 0-48.82 21.858-48.82 48.82v115.463c0 22.294 2.67 44.507 7.954 66.166l15.548 63.735h161.448l46.758-66.665c8.689-12.389 13.351-27.154 13.351-42.286v-32.396c-.002-16.598-13.457-30.054-30.056-30.054z" fill="#ff6470"/><path d="m504.409 160.338v32.4c0 15.13-4.66 29.89-13.35 42.28l-46.76 66.67h-20l46.76-66.67c8.69-12.39 13.35-27.15 13.35-42.28v-32.4c0-13.09-8.38-24.23-20.06-28.34 3.12-1.11 6.49-1.71 10-1.71 16.6 0 30.06 13.45 30.06 30.05z" fill="#ff4555"/><path d="m67.677 126.518h161.433v54.272h-161.433z" fill="#889daa" transform="matrix(-1 0 0 -1 296.787 307.309)"/><path d="m209.11 126.518h20v54.272h-20z" fill="#728d9a" transform="matrix(-1 0 0 -1 438.22 307.309)"/><path d="m114.231 126.518h-46.554v54.272h46.554c10.084 0 18.258-8.175 18.258-18.258v-17.756c0-10.083-8.174-18.258-18.258-18.258z" fill="#4f6c77"/></g><g><path d="m474.353 122.783c-8.457 0-16.271 2.811-22.555 7.545v-74.008c0-31.055-25.266-56.32-56.32-56.32h-87.31c-31.055 0-56.319 25.266-56.319 56.32v115.463c0 22.868 2.748 45.728 8.167 67.943l15.349 62.919v104.851c0 8.208 6.678 14.886 14.886 14.886h146.662c8.208 0 14.886-6.678 14.886-14.886v-103.443l45.398-64.728c9.623-13.721 14.71-29.832 14.71-46.593v-32.396c-.001-20.706-16.847-37.553-37.554-37.553zm-37.555 255.136h-39.055c-5.932 0-10.758-4.826-10.758-10.758v-17.756c0-5.933 4.826-10.759 10.758-10.759h39.055zm-77.641-54.273c-4.143 0-7.5 3.357-7.5 7.5s3.357 7.5 7.5 7.5h15.191c-1.513 3.277-2.363 6.919-2.363 10.759v17.756c0 3.839.85 7.482 2.363 10.758h-83.984v-39.272h34.444c4.143 0 7.5-3.357 7.5-7.5s-3.357-7.5-7.5-7.5h-34.444v-14.459h146.434v14.459h-77.641zm-68.793 83.736v-14.463h146.434v14.463zm206.542-214.65c0 13.662-4.146 26.796-11.991 37.979l-44.518 63.473h-151.657l-14.152-58.013c-5.136-21.054-7.739-42.718-7.739-64.389v-115.462c0-22.784 18.536-41.32 41.319-41.32h87.31c22.784 0 41.32 18.536 41.32 41.32v159.663c0 4.143 3.357 7.5 7.5 7.5s7.5-3.357 7.5-7.5v-55.646c0-12.437 10.118-22.554 22.555-22.554s22.554 10.117 22.554 22.554v32.395z"/><path d="m236.61 209.442v-105.001c0-8.208-6.678-14.886-14.886-14.886h-146.661c-8.208 0-14.886 6.678-14.886 14.886v103.391l-45.435 64.78c-9.624 13.722-14.71 29.833-14.71 46.593v32.396c0 20.707 16.847 37.554 37.554 37.554 8.458 0 16.269-2.812 22.554-7.548v74.011c0 31.055 25.265 56.32 56.32 56.32h2.146c4.142 0 7.5-3.357 7.5-7.5s-3.358-7.5-7.5-7.5h-2.146c-22.784 0-41.32-18.536-41.32-41.32v-159.664c0-4.143-3.358-7.5-7.5-7.5s-7.5 3.357-7.5 7.5v55.646c0 12.437-10.118 22.554-22.554 22.554s-22.554-10.117-22.554-22.554v-32.396c0-13.662 4.147-26.795 11.991-37.979l44.518-63.473h151.658l14.152 58.013c5.136 21.056 7.74 42.719 7.74 64.389v115.463c0 22.784-18.536 41.32-41.32 41.32h-50.945c-4.142 0-7.5 3.357-7.5 7.5s3.358 7.5 7.5 7.5h50.945c31.055 0 56.321-25.266 56.321-56.32v-115.463c0-22.866-2.748-45.726-8.168-67.943zm-161.433-75.423h39.054c5.932 0 10.758 4.826 10.758 10.758v17.756c0 5.933-4.826 10.759-10.758 10.759h-39.054zm62.449 0h83.984v39.272h-83.984c1.513-3.277 2.363-6.919 2.363-10.759v-17.756c0-3.839-.85-7.481-2.363-10.757zm83.984-29.463v14.463h-146.433v-14.463zm-146.433 98.197v-14.462h146.433v14.462z"/></g></g></svg>