<svg id="Capa_1" enable-background="new 0 0 511.998 511.998" height="512" viewBox="0 0 511.998 511.998" width="512" xmlns="http://www.w3.org/2000/svg"><g><g><path d="m431.747 7.938c-.279-.065-.557-.128-.836-.191-2.618-.589-5.355.207-7.252 2.104l-323.163 323.163c-4.2 4.2-4.2 11.009 0 15.209l63.332 63.332c4.2 4.2 11.01 4.2 15.21 0l323.162-323.163c1.897-1.897 2.693-4.635 2.104-7.252-.063-.279-.126-.557-.191-.836-8.344-36.003-36.363-64.023-72.366-72.366z" fill="#64caff"/><path d="m502.197 88.395-323.157 323.156c-4.201 4.201-11.012 4.201-15.212 0l-6.591-6.591c1.33-.55 2.57-1.37 3.651-2.45l332.578-332.568c1.95-1.95 2.8-4.741 2.24-7.391-.06-.28-.12-.56-.19-.84-.65-2.99-1.44-5.931-2.36-8.801 4.961 8.381 8.691 17.593 10.962 27.394.06.28.12.56.19.84.59 2.61-.211 5.35-2.111 7.251z" fill="#00b8ff"/><path d="m242.331 348.26-40.516-116.565 36.686-36.687 40.517 116.566z" fill="#f4f8f9"/><path d="m363.339 227.252-40.517-116.565 36.687-36.686 40.517 116.565z" fill="#f4f8f9"/><g><path d="m400.022 190.57-36.685 36.685-7.011-20.173 36.685-36.685z" fill="#e7eef3"/></g><path d="m302.835 287.756-40.516-116.565 36.686-36.686 40.517 116.565z" fill="#f4f8f9"/><path d="m339.524 251.068-36.686 36.686-7.011-20.173 36.686-36.686z" fill="#e7eef3"/><g><path d="m279.015 311.577-36.685 36.685-7.011-20.183 36.685-36.675z" fill="#e7eef3"/></g><path d="m132.078 339.929c-.199-.067-.4-.134-.601-.2-2.536-.834-5.331-.169-7.219 1.719l-18.008 18.008c-1.868 1.868-2.54 4.621-1.741 7.14l2.075 6.548c1.353 4.269.215 8.937-2.952 12.104l-91.344 91.342c-6.399 6.399-6.399 16.774 0 23.173 6.399 6.399 16.774 6.399 23.173 0l91.343-91.343c3.167-3.167 7.835-4.305 12.104-2.952l6.548 2.075c2.518.798 5.272.127 7.14-1.741l18.008-18.008c1.888-1.888 2.553-4.683 1.719-7.219-.066-.201-.132-.401-.199-.599-6.366-18.905-21.142-33.682-40.046-40.047z" fill="#ffbe84"/><path d="m170.599 387.788-18.003 18.013c-1.87 1.87-4.621 2.54-7.141 1.74l-6.551-2.07c-4.271-1.36-8.931-.22-12.102 2.95l-91.342 91.343c-3.2 3.2-7.391 4.801-11.582 4.801-4.201 0-8.391-1.6-11.592-4.801-2.09-2.09-3.501-4.601-4.221-7.271 1.41.39 2.87.58 4.331.58 4.191 0 8.381-1.6 11.582-4.791l96.954-95.494c4.661-4.661 11.532-6.341 17.813-4.341 1.26.4 2.55.59 3.831.59 3.33 0 6.581-1.3 9.011-3.731l11.892-12.552c1.84-1.85 2.5-4.551 1.77-7.041 2.84 4.401 5.161 9.181 6.871 14.262.07.2.14.4.2.6.84 2.532.169 5.333-1.721 7.213z" fill="#ffab69"/></g><path d="m511.617 79.471-.197-.861c-4.411-19.034-14.03-36.379-27.814-50.165-13.786-13.784-31.132-23.403-50.166-27.814l-.883-.202c-5.154-1.159-10.464.381-14.202 4.118l-16.084 16.083c-2.929 2.93-2.929 7.678 0 10.608 2.93 2.928 7.678 2.928 10.608 0l16.083-16.083c.08-.082.198-.115.281-.096l.811.186c33.427 7.747 59.005 33.325 66.752 66.751l.181.789c.024.107-.011.224-.091.304l-93.715 93.715-35.044-100.824 20.17-20.17c2.929-2.93 2.929-7.678 0-10.608-2.93-2.928-7.678-2.928-10.608 0l-282.506 282.509c-3.448 3.447-5.348 8.031-5.348 12.908 0 4.876 1.899 9.46 5.347 12.908l3.516 3.516c-2.089 3.521-2.625 7.796-1.349 11.817l2.074 6.55c.509 1.605.085 3.343-1.106 4.533l-91.343 91.344c-9.312 9.313-9.312 24.466.001 33.78 9.102 9.103 24.531 9.246 33.78-.001l32.868-32.868c2.929-2.93 2.929-7.678-.001-10.608-2.928-2.928-7.677-2.928-10.607 0l-32.867 32.869c-3.463 3.465-9.102 3.465-12.567.001-3.464-3.465-3.464-9.103 0-12.567l91.343-91.343c5.168-5.169 7.007-12.707 4.798-19.672l-1.996-6.303 17.642-17.641.307.102c16.797 5.656 29.674 18.534 35.333 35.341l.098.295-17.64 17.642-6.301-1.996c-6.969-2.209-14.505-.37-19.674 4.798l-34.222 34.222c-2.929 2.93-2.929 7.678 0 10.608 2.93 2.928 7.678 2.928 10.608 0l34.222-34.222c1.19-1.192 2.927-1.615 4.535-1.106l6.544 2.073c4.023 1.276 8.299.741 11.82-1.348l3.516 3.516c3.448 3.447 8.032 5.347 12.908 5.347 4.877 0 9.461-1.899 12.908-5.347l323.163-323.163c3.738-3.738 5.278-9.048 4.114-14.225zm-120.22 109.116-24.902 24.902-35.044-100.823 24.902-24.902zm-48.72 48.72-35.044-100.823 12.034-12.034 35.044 100.823zm-36.686 36.686-35.044-100.823 24.902-24.902 35.044 100.823zm-23.818 23.818-35.044-100.823 12.034-12.034 35.044 100.823zm-36.686 36.686-35.044-100.823 24.902-24.902 35.044 100.823zm-71.755 71.755c-.829.829-1.797.953-2.301.953-.503 0-1.472-.124-2.301-.954l-3.189-3.19 9.965-9.965c3.912-3.913 5.269-9.609 3.544-14.853l-.22-.662c-7.165-21.281-23.479-37.595-44.791-44.771l-.62-.206c-5.254-1.726-10.952-.372-14.864 3.54l-9.966 9.965-3.19-3.189c-.83-.829-.954-1.798-.954-2.301 0-.504.124-1.472.954-2.301l92.859-92.86 35.044 100.823z"/></g></svg>