<svg id="Capa_1" enable-background="new 0 0 511.862 511.862" height="512" viewBox="0 0 511.862 511.862" width="512" xmlns="http://www.w3.org/2000/svg"><g><g><circle cx="255.931" cy="255.931" fill="#a4ed62" r="248.431"/><path d="m431.601 431.601c-65.5 65.5-158.46 86.78-241.81 63.84 78.11 14.91 162-7.87 222.47-68.34 97.02-97.02 97.02-254.32 0-351.33-31.58-31.58-69.55-52.88-109.75-63.89 47.29 8.98 92.48 31.77 129.09 68.38 97.02 97.02 97.02 254.32 0 351.34z" fill="#7be700"/><path d="m255.931 461.05c-80.544 0-145.837-65.294-145.837-145.837v-118.563c0-80.544 65.293-145.837 145.837-145.837 80.544 0 145.837 65.293 145.837 145.837v118.563c0 80.544-65.294 145.837-145.837 145.837z" fill="#f4f8f9"/><path d="m401.771 196.651v118.56c0 80.55-65.3 145.84-145.84 145.84-3.36 0-6.69-.11-10-.34 75.88-5.13 135.84-68.31 135.84-145.5v-118.56c0-40.28-16.32-76.74-42.72-103.13-24.19-24.19-56.84-39.92-93.12-42.37 3.31-.23 6.64-.34 10-.34 40.27 0 76.73 16.32 103.12 42.71 26.4 26.39 42.72 62.85 42.72 103.13z" fill="#e7eef3"/><path d="m255.931 426.959c-62.904 0-113.898-50.994-113.898-113.898v-114.259c0-62.904 50.994-113.898 113.898-113.898 62.904 0 113.898 50.994 113.898 113.898v114.259c0 62.904-50.994 113.898-113.898 113.898z" fill="#37cba6"/><path d="m369.831 198.802v114.26c0 62.9-51 113.9-113.9 113.9-3.37 0-6.7-.15-10-.44 58.22-5.06 103.9-53.93 103.9-113.46v-114.26c0-31.45-12.75-59.93-33.36-80.54-18.41-18.4-43.08-30.54-70.54-32.92 3.3-.29 6.63-.44 10-.44 31.45 0 59.92 12.75 80.54 33.36 20.61 20.609 33.36 49.089 33.36 80.54z" fill="#00bf91"/><circle cx="255.931" cy="191.362" fill="#f4f8f9" r="71.14"/><circle cx="255.931" cy="320.501" fill="#f4f8f9" r="71.14"/><path d="m327.071 191.361c0 39.29-31.85 71.14-71.14 71.14-11.68 0-22.7-2.81-32.42-7.8 4.29.81 8.71 1.23 13.23 1.23 39.29 0 71.14-31.85 71.14-71.14 0-27.61-15.72-51.54-38.7-63.33 32.96 6.2 57.89 35.14 57.89 69.9z" fill="#e7eef3"/><path d="m327.071 320.501c0 39.29-31.85 71.14-71.14 71.14-11.68 0-22.7-2.81-32.42-7.8 4.29.81 8.71 1.23 13.23 1.23 39.29 0 71.14-31.85 71.14-71.14 0-27.61-15.72-51.54-38.7-63.33 32.96 6.201 57.89 35.14 57.89 69.9z" fill="#e7eef3"/><path d="m281.536 325.81h-51.21c-2.875 0-5.206-2.331-5.206-5.206v-129.345c0-2.875 2.331-5.206 5.206-5.206h51.21c2.875 0 5.206 2.331 5.206 5.206v129.344c0 2.876-2.331 5.207-5.206 5.207z" fill="#ffbe84"/><path d="m286.741 191.261v129.34c0 2.88-2.33 5.21-5.21 5.21h-20c2.88 0 5.21-2.33 5.21-5.21v-129.34c0-2.88-2.33-5.21-5.21-5.21h20c2.88.001 5.21 2.33 5.21 5.21z" fill="#ffab69"/></g><g><path d="m454.454 94.38c-2.617-3.208-7.342-3.69-10.552-1.071-3.21 2.618-3.689 7.342-1.071 10.552 37.504 45.978 56.595 104.087 53.755 163.623-2.859 59.941-27.823 116.342-70.292 158.811-45.506 45.506-106.009 70.567-170.363 70.567s-124.857-25.061-170.363-70.567c-45.507-45.506-70.568-106.009-70.568-170.364s25.061-124.857 70.567-170.363c44.317-44.318 103.224-69.364 165.869-70.525 62.473-1.159 122.104 21.511 167.895 63.831 3.045 2.813 7.789 2.625 10.599-.417 2.812-3.042 2.625-7.787-.417-10.598-48.648-44.961-111.965-69.036-178.355-67.814-66.546 1.234-129.121 27.839-176.198 74.916-48.339 48.339-74.96 112.609-74.96 180.97s26.621 132.631 74.96 180.97c48.34 48.339 112.609 74.96 180.971 74.96s132.631-26.621 180.971-74.96c45.112-45.113 71.63-105.026 74.667-168.703 3.017-63.238-17.267-124.968-57.115-173.818z"/><path d="m134.532 198.802v114.259c0 18.555 4.079 36.368 12.125 52.944 1.81 3.726 6.294 5.283 10.022 3.472 3.726-1.809 5.28-6.296 3.472-10.022-7.046-14.518-10.619-30.126-10.619-46.394v-114.259c0-58.668 47.73-106.398 106.398-106.398s106.398 47.73 106.398 106.398v114.259c0 58.668-47.73 106.398-106.398 106.398-29.72 0-57.288-11.945-77.628-33.634-2.833-3.02-7.58-3.175-10.601-.34-3.021 2.833-3.175 7.58-.341 10.601 22.869 24.387 55.151 38.374 88.569 38.374 66.939 0 121.398-54.459 121.398-121.398v-114.26c0-66.939-54.459-121.398-121.398-121.398s-121.397 54.459-121.397 121.398z"/><path d="m102.594 196.65v118.563c0 84.55 68.787 153.337 153.337 153.337s153.337-68.787 153.337-153.337v-118.563c0-84.55-68.787-153.337-153.337-153.337s-153.337 68.786-153.337 153.337zm291.674 0v118.563c0 76.279-62.058 138.337-138.337 138.337s-138.337-62.058-138.337-138.337v-118.563c0-76.279 62.058-138.337 138.337-138.337s138.337 62.057 138.337 138.337z"/><path d="m177.29 320.501c0 43.362 35.278 78.64 78.641 78.64s78.641-35.278 78.641-78.64c0-25.93-12.728-49.95-33.721-64.561 21.042-14.577 33.721-38.433 33.721-64.578 0-43.362-35.278-78.64-78.641-78.64s-78.641 35.278-78.641 78.64c0 26.082 12.692 49.981 33.718 64.57-21.026 14.589-33.718 38.487-33.718 64.569zm15-129.139c0-35.091 28.549-63.64 63.641-63.64s63.641 28.549 63.641 63.64c0 20.333-9.477 38.957-25.33 50.85v-50.952c0-7.006-5.7-12.707-12.706-12.707h-51.209c-7.006 0-12.706 5.7-12.706 12.707v50.945c-15.844-11.905-25.331-30.559-25.331-50.843zm86.951 2.191v124.757h-46.621v-124.757zm-61.621 76.105v50.945c0 7.006 5.7 12.707 12.706 12.707h51.209c7.006 0 12.706-5.7 12.706-12.707v-50.93c15.818 11.928 25.33 30.665 25.33 50.828 0 35.091-28.549 63.64-63.641 63.64s-63.641-28.549-63.641-63.64c.001-20.284 9.488-38.938 25.331-50.843z"/></g></g></svg>