<svg id="Capa_1" enable-background="new 0 0 512.087 512.087" height="512" viewBox="0 0 512.087 512.087" width="512" xmlns="http://www.w3.org/2000/svg"><g><g><path d="m383.412 153.637h-3.754c-5.261 0-10.01-3.15-12.057-7.996l-16.618-39.341c-8.693-20.58-28.864-33.956-51.205-33.956h-117.91c-17.724 0-32.091 14.368-32.091 32.091 0 4.725 3.83 8.555 8.555 8.555h137.491c5.567 0 10.598 3.32 12.788 8.438l5.977 13.971c3.695 8.636-2.641 18.237-12.034 18.237h-107.297c-13.894 0-25.158 11.263-25.158 25.158v28.743h238.47v-28.743c.001-13.893-11.263-25.157-25.157-25.157z" fill="#ff6470"/><g><path d="m412.131 429.81h-245.593c-50.964 0-92.279-41.315-92.279-92.279v-37.715c0-50.964 41.315-92.279 92.279-92.279h245.593c50.964 0 92.279 41.315 92.279 92.279v37.715c0 50.965-41.315 92.279-92.279 92.279z" fill="#889daa"/></g><g><path d="m504.405 299.82v37.71c0 50.97-41.31 92.28-92.27 92.28h-20.64c50.97 0 92.28-41.31 92.28-92.28v-37.71c0-50.97-41.31-92.28-92.28-92.28h20.64c50.96 0 92.27 41.31 92.27 92.28z" fill="#728d9a"/></g><path d="m504.406 299.82v37.71c0 2.65-.11 5.28-.34 7.87h-429.47c-.23-2.59-.34-5.22-.34-7.87v-37.71c0-2.65.11-5.28.34-7.87h429.47c.23 2.59.34 5.22.34 7.87z" fill="#f4f8f9"/><path d="m504.405 299.82v37.71c0 2.65-.11 5.28-.34 7.87h-20.63c.23-2.59.34-5.22.34-7.87v-37.71c0-2.65-.11-5.28-.34-7.87h20.63c.23 2.59.34 5.22.34 7.87z" fill="#e7eef3"/></g><g><path d="m511.817 295.665c-.004-.091-.006-.183-.01-.274-2.267-51.667-44.008-93.25-95.738-95.269v-21.327c0-18.008-14.65-32.658-32.657-32.658h-3.754c-2.251 0-4.271-1.34-5.147-3.414l-16.619-39.341c-9.889-23.411-32.7-38.538-58.114-38.538h-117.91c-21.83 0-39.591 17.761-39.591 39.591 0 8.854 7.202 16.056 16.056 16.056h58.386c4.143 0 7.5-3.357 7.5-7.5s-3.357-7.5-7.5-7.5h-58.386c-.582 0-1.056-.474-1.056-1.056 0-13.56 11.031-24.591 24.591-24.591h117.91c19.371 0 36.759 11.53 44.296 29.375l16.619 39.341c3.228 7.641 10.672 12.577 18.966 12.577h3.754c9.736 0 17.657 7.922 17.657 17.658v21.242h-223.47v-21.242c0-9.736 7.922-17.658 17.658-17.658h107.297c14.477 0 24.61-15.41 18.93-28.687-.018-.042-5.978-13.972-5.978-13.972-3.376-7.891-11.103-12.988-19.685-12.988h-44.13c-4.143 0-7.5 3.357-7.5 7.5s3.357 7.5 7.5 7.5h44.13c2.569 0 4.883 1.526 5.894 3.889l5.978 13.972c1.067 2.496.024 4.521-.474 5.275s-1.949 2.511-4.665 2.511h-107.297c-18.008 0-32.658 14.65-32.658 32.658v21.327c-50.333 1.965-91.209 41.388-95.467 91.111-.002.017-.006.034-.007.051-.003.035-.004.071-.007.105-.105 1.245-.105 53.322 0 54.565.003.036.004.074.007.11.002.018.006.035.007.053 4.369 51.012 47.28 91.192 99.405 91.192h180.193c4.143 0 7.5-3.357 7.5-7.5s-3.357-7.5-7.5-7.5h-180.193c-41.498 0-76.103-29.978-83.357-69.41h412.307c-7.254 39.432-41.86 69.41-83.358 69.41h-31.21c-4.143 0-7.5 3.357-7.5 7.5s3.357 7.5 7.5 7.5h31.211c53.534 0 97.35-42.38 99.676-95.35.004-.092.007-.185.011-.278.056-1.376.576-32.18-.001-46.016zm-345.279-80.627h245.593c41.498 0 76.104 29.979 83.358 69.412h-412.308c7.254-39.433 41.859-69.412 83.357-69.412zm330.368 122.492v.174c0 .066-.005.13-.005.196h-415.132c0-.123-.009-.245-.009-.368v-37.715c0-.123.009-.244.009-.367h415.132c0 .065.005.13.005.195v.175z"/><path d="m93.91 432.243h-45.758c-4.143 0-7.5 3.357-7.5 7.5s3.357 7.5 7.5 7.5h45.758c4.143 0 7.5-3.357 7.5-7.5s-3.357-7.5-7.5-7.5z"/><path d="m20.86 378.509h27.292c4.143 0 7.5-3.357 7.5-7.5s-3.357-7.5-7.5-7.5h-27.292c-4.143 0-7.5 3.357-7.5 7.5s3.358 7.5 7.5 7.5z"/><path d="m58.499 406.87c0-4.143-3.357-7.5-7.5-7.5h-43.499c-4.143 0-7.5 3.357-7.5 7.5s3.357 7.5 7.5 7.5h43.499c4.143 0 7.5-3.358 7.5-7.5z"/></g></g></svg>