<svg id="Capa_1" enable-background="new 0 0 511.861 511.861" height="512" viewBox="0 0 511.861 511.861" width="512" xmlns="http://www.w3.org/2000/svg"><g><g><circle cx="255.931" cy="255.931" fill="#4f6c77" r="248.431"/><g fill="#f4f8f9"><path d="m138.548 138.548 234.765 234.765 45.804-73.653-326.474-87.482z"/><path d="m211.935 91.738 87.991 328.385-87.128-3.217 87.128-325.168z"/><path d="m377.141 136.48-239.56 237.8-44.629-74.679 162.67-43.588 162.655-43.587z"/></g><g><path d="m143.401 143.401c-19.46 19.46-33.9 43.94-41.22 71.33l-34.69-9.3c8.96-33.57 26.67-63.57 50.52-87.42z" fill="#64caff"/><path d="m444.371 306.431c-8.96 33.57-26.67 63.57-50.52 87.42l-25.39-25.39c19.46-19.46 33.9-43.94 41.22-71.33z" fill="#64caff"/><path d="m96.791 255.931c0 14.25 1.87 28.06 5.39 41.2l-34.69 9.3c-4.31-16.11-6.61-33.04-6.61-50.5s2.3-34.39 6.61-50.5l34.69 9.3c-3.52 13.14-5.39 26.95-5.39 41.2z" fill="#a4ed62"/><path d="m450.981 255.931c0 17.46-2.3 34.39-6.61 50.5l-34.69-9.3c3.52-13.14 5.39-26.95 5.39-41.2s-1.87-28.06-5.39-41.2l34.69-9.3c4.31 16.11 6.61 33.04 6.61 50.5z" fill="#a4ed62"/><g fill="#64caff"><path d="m143.401 368.461-25.39 25.39c-23.85-23.85-41.56-53.85-50.52-87.42l34.69-9.3c7.32 27.39 21.76 51.87 41.22 71.33z"/><path d="m444.371 205.431-34.69 9.3c-7.32-27.39-21.76-51.87-41.22-71.33l25.39-25.39c23.85 23.85 41.56 53.85 50.52 87.42z"/><path d="m306.421 444.371c-16.11 4.31-33.03 6.61-50.49 6.61s-34.38-2.3-50.49-6.61l9.29-34.69c13.14 3.52 26.95 5.39 41.2 5.39s28.06-1.87 41.2-5.39z"/><path d="m306.421 67.491-9.29 34.69c-13.14-3.52-26.95-5.39-41.2-5.39s-28.06 1.87-41.2 5.39l-9.29-34.69c16.11-4.31 33.03-6.61 50.49-6.61s34.38 2.3 50.49 6.61z"/></g><path d="m214.731 102.181c-27.39 7.32-51.87 21.76-71.33 41.22l-25.39-25.39c23.85-23.85 53.85-41.56 87.42-50.52z" fill="#a4ed62"/><path d="m393.851 393.851c-23.85 23.85-53.85 41.56-87.42 50.52l-9.3-34.69c27.39-7.32 51.87-21.76 71.33-41.22z" fill="#a4ed62"/><path d="m214.731 409.681-9.29 34.69h-.01c-33.57-8.96-63.57-26.67-87.42-50.52l25.39-25.39c19.46 19.46 43.94 33.9 71.33 41.22z" fill="#a4ed62"/><path d="m393.851 118.011-25.39 25.39c-19.46-19.46-43.94-33.9-71.33-41.22l9.29-34.69h.01c33.57 8.96 63.57 26.67 87.42 50.52z" fill="#a4ed62"/><g><path d="m444.371 306.431c-8.96 33.57-26.67 63.57-50.52 87.42l-10.81-10.81c20.06-23.1 34.73-51.02 42.04-81.78z" fill="#00b8ff"/><path d="m450.981 255.931c0 17.46-2.3 34.39-6.61 50.5l-19.29-5.17c3.44-14.41 5.25-29.46 5.25-44.92 0-15.74-1.88-31.04-5.43-45.69l19.47-5.22c4.31 16.11 6.61 33.04 6.61 50.5z" fill="#7be700"/><g fill="#00b8ff"><path d="m444.371 205.431-19.47 5.22c-7.42-30.65-22.15-58.45-42.24-81.45l11.19-11.19c23.85 23.85 41.56 53.85 50.52 87.42z"/><path d="m306.421 444.371c-16.11 4.31-33.03 6.61-50.49 6.61-7.63 0-15.16-.44-22.56-1.3 1.19.03 2.38.04 3.58.04 23.8 0 46.59-4.3 67.64-12.17z"/><path d="m306.421 67.491-2.03 7.56c-21-7.82-43.72-12.09-67.44-12.09-4 0-7.98.12-11.92.36 10.06-1.61 20.38-2.44 30.9-2.44 17.46 0 34.38 2.3 50.49 6.61z"/></g><path d="m393.851 393.851c-23.85 23.85-53.85 41.56-87.42 50.52l-1.83-6.82c30.56-11.41 57.45-30.33 78.44-54.51z" fill="#7be700"/><path d="m393.851 118.011-11.19 11.19c-20.98-24.03-47.81-42.82-78.27-54.15l2.03-7.56h.01c33.57 8.96 63.57 26.67 87.42 50.52z" fill="#7be700"/></g></g><path d="m504.361 255.931c0 137.2-111.23 248.43-248.43 248.43-23.12 0-45.5-3.16-66.73-9.07 15.55 3.05 31.63 4.65 48.07 4.65 137.21 0 248.44-111.22 248.44-248.43 0-114.08-76.9-210.21-181.7-239.35 114.19 22.38 200.35 123.02 200.35 243.77z" fill="#395a61"/><circle cx="255.931" cy="255.931" fill="#64caff" r="60.582"/><path d="m316.511 255.931c0 33.46-27.12 60.58-60.58 60.58-5.57 0-10.96-.75-16.08-2.16 31.92-1.71 57.28-28.14 57.28-60.49 0-27.89-18.85-51.38-44.5-58.42 1.09-.06 2.19-.09 3.3-.09 33.46 0 60.58 27.12 60.58 60.58z" fill="#00b8ff"/><circle cx="255.931" cy="255.931" fill="#a4ed62" r="30.368"/><path d="m286.301 255.931c0 16.77-13.6 30.37-30.37 30.37-6.81 0-13.1-2.24-18.17-6.04 15.65-1.22 27.96-14.3 27.96-30.27 0-9.95-4.79-18.79-12.18-24.33.79-.07 1.59-.1 2.39-.1 16.77 0 30.37 13.6 30.37 30.37z" fill="#7be700"/></g><g><path d="m436.9 74.961c-48.338-48.34-112.608-74.961-180.969-74.961-62.177 0-122.121 22.568-168.792 63.547-3.113 2.732-3.421 7.472-.688 10.584 2.732 3.112 7.472 3.42 10.584.688 43.933-38.575 100.363-59.819 158.896-59.819 64.354 0 124.857 25.062 170.363 70.567s70.567 106.009 70.567 170.363-25.061 124.858-70.567 170.364-106.009 70.567-170.363 70.567-124.858-25.061-170.364-70.567-70.567-106.009-70.567-170.363c0-57.619 20.661-113.378 58.177-157.006 2.701-3.141 2.344-7.876-.797-10.576-3.139-2.701-7.876-2.346-10.576.797-39.855 46.346-61.804 105.579-61.804 166.785 0 68.361 26.621 132.631 74.961 180.97 48.339 48.34 112.608 74.961 180.97 74.961s132.631-26.622 180.969-74.962c48.34-48.339 74.961-112.608 74.961-180.97s-26.621-132.63-74.961-180.969z"/><path d="m60.245 203.492c-4.555 17.027-6.864 34.67-6.864 52.438 0 49.22 18.301 97.515 50.987 134.369 18.066 20.369 40.268 36.908 64.866 48.564 43.015 20.382 92.945 25.013 139.088 12.762.014-.004.028-.005.042-.008 38.628-10.27 73.85-32.399 100.09-62.408 32.185-36.816 50.026-84.463 50.026-133.279 0-17.769-2.31-35.411-6.868-52.45-10.559-39.551-33.383-75.44-64.567-101.938-36.703-31.188-83.11-48.162-131.115-48.162-41.41 0-83.965 13.573-117.723 37.713-38.538 27.559-66.056 66.348-77.962 112.399zm8.136 52.439c0-13.937 1.533-27.787 4.562-41.273l20.217 5.423c-2.57 11.711-3.869 23.737-3.869 35.85 0 12.112 1.3 24.138 3.87 35.85l-20.218 5.424c-3.029-13.487-4.562-27.338-4.562-41.274zm8.435 55.765 20.223-5.421c7.279 22.979 19.544 44.198 35.875 62.067l-14.797 14.797c-18.932-20.504-33.067-44.956-41.301-71.443zm179.115-108.847c29.27 0 53.082 23.812 53.082 53.082s-23.812 53.082-53.082 53.082-53.082-23.812-53.082-53.082 23.812-53.082 53.082-53.082zm-10.271-14.225-21.687-80.937c10.444-2.242 21.158-3.395 31.958-3.395s21.514 1.153 31.958 3.395l-21.687 80.937c-3.351-.509-6.78-.775-10.271-.775s-6.92.266-10.271.775zm20.542 134.613 21.687 80.938c-10.444 2.242-21.158 3.395-31.958 3.395s-21.513-1.153-31.957-3.395l21.687-80.938c3.351.509 6.78.775 10.271.775 3.489.001 6.919-.265 10.27-.775zm-63.174-24.516-59.458 59.014c-14.498-15.997-25.427-34.899-32.008-55.357l80.965-21.694c2.573 6.568 6.129 12.643 10.501 18.037zm-10.501-67.544-80.965-21.695c6.577-20.446 17.498-39.339 31.983-55.33l59.264 59.265c-4.27 5.326-7.752 11.304-10.282 17.76zm-3.903 14.483c-.509 3.351-.775 6.78-.775 10.271s.266 6.92.775 10.271l-80.937 21.687c-2.242-10.444-3.396-21.158-3.396-31.958s1.154-21.515 3.395-31.958zm11.548 189.388c-26.49-8.234-50.945-22.37-71.449-41.302l14.797-14.797c17.869 16.331 39.089 28.596 62.069 35.874zm-45.993-66.709 59.515-59.07c5.256 4.171 11.138 7.58 17.483 10.066l-21.694 80.965c-20.435-6.574-39.318-17.487-55.304-31.961zm60.487 70.579 5.37-20.052c.001-.006.005-.012.006-.018l.039-.147c23.423 5.14 48.276 5.14 71.699 0l.901 3.364c.001.006.004.01.006.016l4.509 16.837c-26.972 6.059-55.558 6.059-82.53 0zm66.018-119.584c6.456-2.53 12.434-6.012 17.76-10.283l17.344 17.344c1.465 1.464 3.385 2.196 5.304 2.196s3.839-.732 5.304-2.196c2.929-2.93 2.929-7.678 0-10.607l-17.344-17.344c4.271-5.326 7.754-11.304 10.283-17.76l80.965 21.695c-6.577 20.446-17.497 39.339-31.983 55.33l-17.522-17.522c-2.93-2.928-7.678-2.928-10.607 0-2.929 2.93-2.929 7.678 0 10.607l17.522 17.522c-15.991 14.486-34.884 25.407-55.33 31.983zm42.554-73.674 80.938-21.688c2.241 10.443 3.395 21.158 3.395 31.958 0 10.799-1.153 21.514-3.396 31.958l-80.937-21.687c.509-3.35.775-6.78.775-10.27s-.266-6.92-.775-10.271zm-3.904-14.482c-2.423-6.185-5.723-11.928-9.75-17.082l59.519-59.074c14.097 15.804 24.739 34.385 31.196 54.461zm-7.639 203.868-5.421-20.223c22.979-7.279 44.198-19.544 62.067-35.875l14.797 14.797c-20.503 18.932-44.955 33.067-71.443 41.301zm82.051-51.908-14.797-14.797c16.331-17.869 28.595-39.088 35.875-62.067l20.223 5.421c-8.236 26.488-22.37 50.94-41.301 71.443zm49.734-127.207c0 13.937-1.533 27.787-4.562 41.273l-20.218-5.424c2.571-11.712 3.87-23.738 3.87-35.85 0-12.113-1.3-24.139-3.869-35.85l20.217-5.423c3.029 13.487 4.562 27.337 4.562 41.274zm-49.734-127.208c18.931 20.503 33.066 44.955 41.3 71.443l-20.223 5.421c-7.156-22.59-19.139-43.471-35.058-61.148zm-82.057-51.908c26.49 8.233 50.945 22.369 71.449 41.301l-14.797 14.797c-17.869-16.331-39.089-28.596-62.068-35.874zm46.889 67.519-59.455 59.01c-5.493-4.52-11.71-8.181-18.439-10.817l21.694-80.965c20.817 6.696 40.027 17.892 56.2 32.772zm-61.382-71.39-5.416 20.217c-11.711-2.57-23.738-3.87-35.85-3.87s-24.138 1.3-35.85 3.87l-5.416-20.216c26.971-6.061 55.561-6.061 82.532-.001zm-66.019 119.583c-6.456 2.529-12.434 6.012-17.76 10.283l-59.264-59.265c15.991-14.486 34.884-25.407 55.33-31.983zm-31.011-115.711 5.421 20.222c-22.979 7.279-44.198 19.544-62.067 35.875l-14.797-14.797c20.504-18.932 44.955-33.066 71.443-41.3zm-67.253 66.704c-16.331 17.869-28.595 39.088-35.875 62.067l-20.223-5.421c8.234-26.488 22.369-50.94 41.3-71.443z"/><path d="m255.931 293.799c20.881 0 37.868-16.987 37.868-37.868s-16.987-37.868-37.868-37.868-37.868 16.987-37.868 37.868 16.987 37.868 37.868 37.868zm0-60.737c12.609 0 22.868 10.259 22.868 22.868s-10.259 22.868-22.868 22.868-22.868-10.259-22.868-22.868 10.258-22.868 22.868-22.868z"/><path d="m263.431 38.112v-7.324c0-4.143-3.357-7.5-7.5-7.5s-7.5 3.357-7.5 7.5v7.324c0 4.143 3.357 7.5 7.5 7.5s7.5-3.357 7.5-7.5z"/><path d="m248.431 473.749v7.324c0 4.143 3.357 7.5 7.5 7.5s7.5-3.357 7.5-7.5v-7.324c0-4.143-3.357-7.5-7.5-7.5s-7.5 3.357-7.5 7.5z"/><path d="m147.028 74.795c1.272 0 2.562-.324 3.743-1.006 3.587-2.071 4.816-6.658 2.745-10.245l-3.662-6.343c-2.072-3.588-6.659-4.814-10.245-2.745-3.587 2.071-4.816 6.658-2.745 10.245l3.662 6.343c1.39 2.406 3.911 3.751 6.502 3.751z"/><path d="m361.09 438.072c-3.587 2.071-4.816 6.658-2.745 10.245l3.662 6.343c1.39 2.406 3.91 3.751 6.502 3.751 1.272 0 2.562-.324 3.743-1.006 3.587-2.071 4.816-6.658 2.745-10.245l-3.662-6.343c-2.072-3.588-6.659-4.814-10.245-2.745z"/><path d="m63.544 153.517c1.181.682 2.471 1.006 3.743 1.006 2.592 0 5.113-1.345 6.502-3.751 2.071-3.587.842-8.174-2.745-10.245l-6.343-3.662c-3.586-2.07-8.175-.844-10.245 2.745-2.071 3.587-.842 8.174 2.745 10.245z"/><path d="m448.317 358.345c-3.586-2.07-8.175-.843-10.245 2.745-2.071 3.587-.842 8.174 2.745 10.245l6.343 3.662c1.181.682 2.471 1.006 3.743 1.006 2.592 0 5.113-1.345 6.502-3.751 2.071-3.587.842-8.174-2.745-10.245z"/><path d="m30.788 248.431c-4.143 0-7.5 3.357-7.5 7.5s3.357 7.5 7.5 7.5h7.324c4.143 0 7.5-3.357 7.5-7.5s-3.357-7.5-7.5-7.5z"/><path d="m481.073 263.431c4.143 0 7.5-3.357 7.5-7.5s-3.357-7.5-7.5-7.5h-7.324c-4.143 0-7.5 3.357-7.5 7.5s3.357 7.5 7.5 7.5z"/><path d="m63.544 358.345-6.343 3.662c-3.587 2.071-4.816 6.658-2.745 10.245 1.39 2.406 3.91 3.751 6.502 3.751 1.272 0 2.562-.324 3.743-1.006l6.343-3.662c3.587-2.071 4.816-6.658 2.745-10.245-2.071-3.588-6.66-4.815-10.245-2.745z"/><path d="m444.574 154.522c1.272 0 2.562-.324 3.743-1.006l6.343-3.662c3.587-2.071 4.816-6.658 2.745-10.245-2.072-3.588-6.66-4.814-10.245-2.745l-6.343 3.662c-3.587 2.071-4.816 6.658-2.745 10.245 1.39 2.407 3.91 3.751 6.502 3.751z"/><path d="m140.526 440.817-3.662 6.343c-2.071 3.587-.842 8.174 2.745 10.245 1.181.682 2.471 1.006 3.743 1.006 2.592 0 5.113-1.345 6.502-3.751l3.662-6.343c2.071-3.587.842-8.174-2.745-10.245-3.586-2.07-8.175-.843-10.245 2.745z"/><path d="m364.833 74.795c2.592 0 5.113-1.345 6.502-3.751l3.662-6.343c2.071-3.587.842-8.174-2.745-10.245-3.587-2.07-8.175-.843-10.245 2.745l-3.662 6.343c-2.071 3.587-.842 8.174 2.745 10.245 1.181.682 2.471 1.006 3.743 1.006z"/></g></g></svg>