<svg id="Capa_1" enable-background="new 0 0 512 512" height="512" viewBox="0 0 512 512" width="512" xmlns="http://www.w3.org/2000/svg"><g><g><circle cx="256" cy="153.326" fill="#f4f8f9" r="145.826"/><path d="m401.822 153.327c0 80.539-65.284 145.823-145.823 145.823-25.605 0-49.672-6.607-70.592-18.202 16.298 6.305 34.015 9.755 52.536 9.755 80.53 0 145.823-65.284 145.823-145.823 0-54.934-30.382-102.776-75.249-127.63 54.587 21.076 93.305 74.051 93.305 136.077z" fill="#e7eef3"/><path d="m365.877 334.855h-219.755c-3.122 0-5.652-2.531-5.652-5.652v-23.643c0-9.324 7.559-16.884 16.884-16.884h197.292c9.325 0 16.884 7.559 16.884 16.884v23.643c-.001 3.122-2.531 5.652-5.653 5.652z" fill="#4f6c77"/><path d="m371.527 305.559v23.641c0 3.127-2.528 5.655-5.647 5.655h-17.075c3.127 0 5.655-2.528 5.655-5.655v-23.641c0-9.322-7.56-16.882-16.882-16.882h17.067c9.322.001 16.882 7.561 16.882 16.882z" fill="#395a61"/><path d="m341.913 375.188h-171.827c-2.77 0-5.015-2.245-5.015-5.015v-35.317h181.857v35.317c0 2.769-2.245 5.015-5.015 5.015z" fill="#889daa"/><path d="m346.931 334.855v35.313c0 2.771-2.246 5.017-5.017 5.017h-18.739c2.761 0 5.008-2.246 5.008-5.017v-35.313z" fill="#728d9a"/><path d="m191.149 375.138v27.133c0 4.839 2.924 9.199 7.401 11.036l11.513 4.723c13.904 5.704 22.983 19.243 22.983 34.272v47.634c0 2.521 2.043 4.564 4.564 4.564h36.78c2.521 0 4.564-2.043 4.564-4.564v-47.634c0-15.028 9.08-28.567 22.983-34.272l11.513-4.723c4.477-1.837 7.401-6.196 7.401-11.036v-27.133z" fill="#4f6c77"/><path d="m320.854 375.136v27.14c0 4.84-2.929 9.191-7.402 11.037l-11.517 4.718c-13.899 5.707-22.987 19.248-22.987 34.268v47.639c0 2.524-2.034 4.567-4.558 4.567h-18.834c2.524 0 4.558-2.044 4.558-4.567v-47.639c0-15.02 4.096-34.541 22.987-43.289l11.517-4.727c4.473-1.836 7.402-6.196 7.402-11.037v-18.109h18.834z" fill="#395a61"/></g><path d="m382.376 240.171c17.631-25.61 26.95-55.641 26.95-86.846 0-.275-.001-.551-.003-.826-.323-58.029-35.907-114.906-89.255-138.202-20.405-8.911-41.69-14.297-64.068-14.297-20.796 0-40.967 4.093-59.951 12.166-3.812 1.621-5.588 6.025-3.967 9.837s6.026 5.589 9.836 3.967c4.003-1.702 8.064-3.208 12.179-4.516l11.724 20.438-17.115 29.645h-34.081l-11.845-20.395c3.539-3.235 7.244-6.288 11.098-9.137 3.331-2.462 4.036-7.158 1.574-10.489-2.463-3.331-7.158-4.036-10.491-1.573-37.376 27.613-60.668 71.881-62.205 118.46-1.066 32.304 8.406 64.953 26.87 91.771 11.258 16.352 25.389 30.212 41.67 41.002h-13.942c-13.445 0-24.384 10.938-24.384 24.384v23.643c0 7.252 5.9 13.153 13.152 13.153h11.449v27.817c0 6.9 5.614 12.515 12.515 12.515h13.562v19.584c0 7.916 4.732 14.971 12.054 17.974l11.513 4.724c11.135 4.568 18.33 15.297 18.33 27.333v47.634c0 6.652 5.412 12.064 12.064 12.064h36.779c6.651 0 12.063-5.412 12.063-12.064v-12.785c0-4.142-3.357-7.5-7.5-7.5s-7.5 3.358-7.5 7.5v9.848h-30.907v-44.698c0-18.146-10.848-34.323-27.637-41.21l-11.514-4.724c-1.669-.685-2.747-2.292-2.747-4.097v-19.584h114.704v19.584c0 1.804-1.078 3.412-2.747 4.097l-11.514 4.724c-16.789 6.888-27.637 23.064-27.637 41.21 0 4.142 3.357 7.5 7.5 7.5s7.5-3.358 7.5-7.5c0-12.036 7.195-22.764 18.33-27.333l11.513-4.724c7.323-3.003 12.055-10.059 12.055-17.975v-19.584h13.563c6.9 0 12.515-5.614 12.515-12.515v-27.817h11.448c7.252 0 13.152-5.9 13.152-13.153v-23.641c0-13.445-10.938-24.384-24.383-24.384h-13.942c16.283-10.791 30.414-24.652 41.673-41.005zm-261.521-57.195c-2.106-9.658-3.181-19.586-3.181-29.65 0-10.107 1.056-20.006 3.155-29.641h23.62l17.114 29.642-17.118 29.649zm228.346-131.777-11.825 20.337h-34.147l-17.123-29.651 11.782-20.404c19.269 6.136 36.719 16.388 51.313 29.718zm37.734 57.486h-19.371l-17.117-29.648 9.65-16.71c11.748 13.423 20.948 29.13 26.838 46.358zm-19.371 74.291-17.118-29.649 17.114-29.642h23.568c2.093 9.552 3.197 19.47 3.197 29.641 0 10.064-1.074 19.992-3.181 29.65zm-128.673 74.287-17.116-29.646 17.115-29.645h34.152l17.116 29.646-17.116 29.646h-34.151zm-64.277-96.436h34.09l17.116 29.645-17.113 29.64h-34.087l-17.116-29.637zm98.429-37.145 17.116 29.646-17.116 29.645h-34.153l-17.116-29.645 17.116-29.646zm30.181 22.145-17.116-29.646 17.114-29.642h34.164l17.108 29.644-17.118 29.643h-34.152zm0 15h34.16l17.11 29.647-17.115 29.637h-34.158l-17.113-29.64zm-30.18-111.433 17.115 29.643-17.116 29.646h-34.153l-17.118-29.65 17.112-29.638h34.16zm-47.223 66.788-17.116 29.646h-34.081l-17.119-29.643 17.108-29.644h34.094zm12.987 156.085h34.232l5.144 8.909h-44.521zm131.212-40.601c-3.065 4.452-6.366 8.7-9.885 12.728l-9.69-16.774 17.115-29.644h19.41c-4.045 11.871-9.723 23.193-16.95 33.69zm-87.216-214.059-9.761 16.784h-34.147l-9.709-16.804c8.764-1.721 17.721-2.587 26.813-2.587 9.167 0 18.13.897 26.804 2.607zm-130.918 44.668 9.677 16.76-17.118 29.65h-19.432c2.177-6.369 4.836-12.602 7.972-18.682 5.131-9.947 11.507-19.279 18.901-27.728zm-26.856 135.701h19.418l17.116 29.645-9.692 16.781c-3.521-4.031-6.825-8.281-9.892-12.736-7.226-10.496-12.905-21.818-16.95-33.69zm37.779 57.606 11.806-20.465h34.09l17.116 29.645-9.478 16.413h-13.247c-14.91-6.173-28.501-14.833-40.287-25.593zm176.619 112.106h-166.857v-25.332h166.857zm24.601-62.128v21.796h-216.059v-21.796c0-5.174 4.209-9.384 9.384-9.384h197.292c5.174 0 9.383 4.209 9.383 9.384zm-68.524-24.384-9.437-16.344 17.155-29.714h34.159l11.807 20.465c-11.787 10.759-25.376 19.419-40.285 25.593z"/></g></svg>