<svg id="Capa_1" enable-background="new 0 0 511.999 511.999" height="512" viewBox="0 0 511.999 511.999" width="512" xmlns="http://www.w3.org/2000/svg"><g><g><g><path d="m326.457 272.696c-7.857 0-14.489-6.081-15.054-14.04l-13.127-184.953c-.591-8.322 5.678-15.549 14-16.139 8.33-.606 15.548 5.677 16.14 14l13.126 184.953c.591 8.322-5.678 15.548-14 16.139-.364.028-.726.04-1.085.04z" fill="#d4e8ed"/></g><g><path d="m327.541 272.662c-.36.02-.72.03-1.08.03-2.64 0-5.141-.68-7.311-1.9 4.961-2.76 8.151-8.231 7.721-14.272l-13.133-184.952c-.37-5.291-3.421-9.752-7.721-12.152 1.87-1.04 3.991-1.69 6.261-1.85 8.331-.61 15.543 5.671 16.143 14.002l13.122 184.951c.59 8.321-5.681 15.553-14.002 16.143z" fill="#c0d4de"/></g><path d="m255.999 7.5c-35.402 0-64.983 25.356-71.565 58.859-2.057 10.47-2.462 21.023-3.217 31.662-1.174 16.535-6.123 86.273-7.424 104.606-.992 13.984-1.985 27.967-2.977 41.951-.279 3.936-.559 7.873-.838 11.809-.591 8.322 5.678 15.549 14 16.139.364.027.725.039 1.085.039 7.856 0 14.489-6.081 15.054-14.04l8.695-122.524c12.73 10.828 29.203 17.383 47.186 17.383 40.22 0 72.942-32.722 72.942-72.942.001-40.22-32.721-72.942-72.941-72.942zm0 115.669c-23.559 0-42.726-19.167-42.726-42.726 0-23.56 19.167-42.727 42.726-42.727s42.726 19.167 42.726 42.727c0 23.559-19.167 42.726-42.726 42.726z" fill="#d4e8ed"/><path d="m267.751 8.448c23.074 12.262 38.826 36.556 38.826 64.451 0 40.217-32.725 72.942-72.942 72.942-4.001 0-7.921-.32-11.752-.95 10.182 5.421 21.794 8.491 34.116 8.491 40.217 0 72.942-32.715 72.942-72.942 0-36.216-26.535-66.361-61.19-71.992z" fill="#c0d4de"/><path d="m166.472 504.417c-17.938-1.255-31.463-16.814-30.208-34.752l12.498-178.64 64.96 4.545-12.498 178.64c-1.255 17.938-16.814 31.462-34.752 30.207z" fill="#8296e1"/><path d="m213.727 295.566-12.502 178.64c-1.26 17.943-16.813 31.465-34.756 30.215-2.34-.16-4.601-.57-6.761-1.21 12.432-4.321 21.724-15.723 22.694-29.675l12.542-179.28z" fill="#6380dc"/><path d="m225.186 296.37-87.859-6.147c-3.631-.254-6.369-3.404-6.115-7.035l1.55-22.155c.254-3.631 3.404-6.369 7.035-6.115l87.858 6.147c3.631.254 6.369 3.404 6.115 7.035l-1.55 22.155c-.253 3.631-3.403 6.369-7.034 6.115z" fill="#889daa"/><path d="m233.77 268.101-1.55 22.154c-.25 3.631-3.401 6.371-7.031 6.111l-19.103-1.34c3.431 0 6.331-2.66 6.571-6.141l1.55-22.154c.26-3.631-2.47-6.771-6.101-7.031l19.553 1.37c3.631.25 6.361 3.4 6.111 7.031z" fill="#728d9a"/><path d="m345.526 504.417c17.938-1.255 31.463-16.814 30.208-34.752l-12.498-178.64-64.96 4.545 12.498 178.64c1.254 17.938 16.813 31.462 34.752 30.207z" fill="#8296e1"/><path d="m345.524 504.42c-3.721.26-7.331-.12-10.742-1.04 12.422-5.451 20.693-18.263 19.693-32.565l-12.482-178.31 21.243-1.48 12.492 178.64c1.261 17.943-12.261 33.495-30.204 34.755z" fill="#6380dc"/><path d="m286.812 296.37 87.859-6.147c3.631-.254 6.369-3.404 6.115-7.035l-1.55-22.155c-.254-3.631-3.404-6.369-7.035-6.115l-87.858 6.147c-3.631.254-6.369 3.404-6.115 7.035l1.55 22.155c.253 3.631 3.402 6.369 7.034 6.115z" fill="#889daa"/><path d="m374.668 290.225-19.893 1.39c3.631-.25 6.361-3.401 6.111-7.031l-1.55-22.154c-.25-3.601-3.341-6.321-6.931-6.121l19.793-1.39c3.631-.25 6.781 2.48 7.041 6.111l1.55 22.164c.25 3.63-2.49 6.771-6.121 7.031z" fill="#728d9a"/><g><path d="m357.182 210.973h-202.367c-8.344 0-15.108-6.764-15.108-15.108s6.764-15.108 15.108-15.108h202.367c8.344 0 15.086 6.764 15.086 15.108s-6.742 15.108-15.086 15.108z" fill="#889daa"/></g><g><path d="m372.268 195.869c0 8.341-6.741 15.102-15.083 15.102h-21.714c8.341 0 15.092-6.761 15.092-15.102 0-8.351-6.751-15.113-15.092-15.113h21.714c8.342.001 15.083 6.762 15.083 15.113z" fill="#728d9a"/></g></g><path d="m388.266 282.665-1.55-22.154c-.263-3.755-1.972-7.183-4.812-9.652s-6.468-3.685-10.228-3.421l-23.144 1.619-2.17-30.583h10.821c12.454 0 22.586-10.142 22.586-22.608s-10.132-22.607-22.586-22.607h-14.03l-7.415-103.283c-5.15-39.426-38.933-69.976-79.739-69.976-11.76 0-23.103 2.494-33.713 7.412-3.758 1.742-5.393 6.201-3.65 9.959s6.202 5.392 9.959 3.65c8.619-3.996 17.838-6.021 27.404-6.021 33.529 0 61.234 25.351 64.993 57.893 2.72 38.253-25.109 72.991-64.993 72.991-14.208 0-28.037-4.683-39.36-13.235l1.531-19.222c9.214 10.554 22.751 17.241 37.829 17.241 27.695 0 50.227-22.531 50.227-50.226s-22.531-50.228-50.227-50.228c-27.547 0-49.976 22.294-50.215 49.785l-4.373 54.912c-.027.186-.066.368-.079.558l-2.682 37.787h-15.254s5.553-78.401 5.675-80.245c.572-8.751 1.113-17.018 2.723-25.207 1.943-9.893 6.255-19.358 12.469-27.376 2.538-3.274 1.94-7.985-1.333-10.522s-7.985-1.94-10.522 1.333c-7.639 9.855-12.94 21.499-15.332 33.673-1.796 9.139-2.394 18.279-2.973 27.12-.118 1.816-5.744 81.225-5.744 81.225h-13.543c-12.467 0-22.608 10.142-22.608 22.607 0 12.467 10.142 22.608 22.608 22.608h10.334l-2.168 30.549-22.661-1.585c-7.775-.552-14.501 5.376-15.04 13.073-.001.014-1.548 22.135-1.55 22.154-.535 7.645 5.378 14.502 13.073 15.04l3.953.277-11.975 171.16c-.747 10.674 2.708 21 9.728 29.075 7.02 8.076 16.764 12.936 27.438 13.682 10.459.731 21.076-2.773 29.076-9.728 8.076-7.02 12.936-16.765 13.682-27.438l11.975-171.159s3.98.278 3.983.279c7.847.549 14.48-5.172 15.039-13.073l1.551-22.154c.542-7.751-5.322-14.498-13.073-15.04l-20.092-1.406 2.392-33.705h90.551l2.394 33.739-19.608 1.372c-7.751.542-13.615 7.289-13.073 15.04 0 0 1.549 22.13 1.551 22.154.52 7.426 7.547 13.596 15.039 13.073l3.982-.279 11.975 171.159c.746 10.674 5.605 20.419 13.682 27.438 7.354 6.393 16.571 9.828 26.221 9.828 11.553 0 22.7-5.048 30.293-13.782 7.02-8.075 10.475-18.401 9.728-29.075l-3.958-56.583c-.289-4.133-3.87-7.241-8.005-6.958-4.132.289-7.247 3.873-6.958 8.005l3.958 56.583c.964 13.784-9.465 25.782-23.249 26.747-13.542.944-25.798-9.67-26.748-23.25-.006-.087-11.975-171.158-11.975-171.158l49.997-3.498 5.582 79.782c.289 4.133 3.873 7.266 8.005 6.958 4.132-.289 7.247-3.873 6.958-8.005l-5.582-79.783 3.953-.277c3.755-.263 7.183-1.972 9.652-4.812 2.468-2.839 3.683-6.471 3.42-10.226zm-132.267-237.449c19.424 0 35.227 15.803 35.227 35.228 0 19.424-15.803 35.226-35.227 35.226s-35.227-15.802-35.227-35.226c0-19.425 15.803-35.228 35.227-35.228zm68.516 77.319 3.6 50.723h-15.253l-2.391-33.688c5.42-4.998 10.155-10.728 14.044-17.035zm-109.163 27.279c12.267 7.201 26.301 11.07 40.646 11.07 14.63 0 28.347-3.945 40.179-10.798l1.645 23.171h-84.134zm-21.609 323.872c-.468 6.678-3.507 12.773-8.559 17.164-5.053 4.392-11.514 6.543-18.189 6.086-13.784-.965-24.213-12.963-23.249-26.747l11.975-171.159 49.997 3.498zm32.483-205.203-1.424 20.342-86.045-6.02 1.423-20.342zm-48.28-18.413 2.242-31.596h15.254l-2.318 32.658zm-4.921-46.596c-.026 0-.052-.001-.078 0h-18.132c-4.195 0-7.608-3.413-7.608-7.608 0-4.194 3.413-7.607 7.608-7.607h202.367c4.183 0 7.586 3.413 7.586 7.607 0 4.195-3.403 7.608-7.586 7.608zm160.543 46.63-15.179 1.062-2.32-32.692h15.254zm-46.373 38.721-1.424-20.342 86.046-6.02 1.423 20.342z"/></g></svg>