<svg id="Capa_1" enable-background="new 0 0 512.024 512.024" height="512" viewBox="0 0 512.024 512.024" width="512" xmlns="http://www.w3.org/2000/svg"><g><g><path d="m463.676 7.5c-5.7 0-11.002 2.921-14.048 7.74l-261.52 413.787c-4.189 6.627-11.481 10.645-19.321 10.645h-123.146c-9.665 0-16.404 9.588-13.13 18.682l8.057 22.382c5.138 14.272 18.677 23.788 33.846 23.788h108.821c9.024 0 13.967-4.923 20.614-13.772l274.087-458.102c6.627-11.077-1.353-25.15-14.26-25.15z" fill="#ffbe84"/><path d="m477.936 32.652-274.09 458.1c-6.64 8.85-11.59 13.77-20.61 13.77h-23.47c9.03 0 13.97-4.92 20.62-13.77l274.08-458.1c4.2-7.01 2.54-15.23-2.52-20.3 3.08-3.07 7.28-4.85 11.73-4.85 12.91 0 20.89 14.07 14.26 25.15z" fill="#ffab69"/><path d="m448.481 81.881-22.359 37.369h-42.314l23.612-37.369z" fill="#64caff"/><path d="m448.476 81.882-22.35 37.37h-23.47l22.36-37.37z" fill="#00b8ff"/><path d="m405.891 153.065-22.364 37.379h-44.695l23.611-37.379z" fill="#64caff"/><path d="m405.886 153.062-22.36 37.38h-23.47l22.37-37.38z" fill="#00b8ff"/><path d="m265.896 488.266c0 8.973 23.182 16.246 51.777 16.246s51.777-7.274 51.777-16.246v-39.01h-103.554z" fill="#4f6c77"/><path d="m369.446 449.252v39.01c0 5.39-8.36 10.17-21.22 13.12.8-1.02 1.22-2.13 1.22-3.34v-48.79z" fill="#395a61"/><ellipse cx="317.674" cy="449.255" fill="#889daa" rx="51.777" ry="16.246"/><path d="m369.446 449.252c0 8.98-23.18 16.25-51.77 16.25-12.24 0-23.48-1.33-32.35-3.56 1.9.09 3.84.13 5.8.13 28.59 0 51.78-9.47 51.78-21.15 0-2.17-.8-4.26-2.3-6.23 17.09 2.65 28.84 8.17 28.84 14.56z" fill="#728d9a"/></g><g><path d="m89.943 497.024h-15.529c-11.969 0-22.735-7.566-26.79-18.828l-8.057-22.383c-.722-2.005-.433-4.155.792-5.898 1.225-1.744 3.15-2.744 5.281-2.744h123.146c10.472 0 20.065-5.285 25.661-14.138l123.805-195.889c2.213-3.501 1.168-8.134-2.333-10.347s-8.134-1.168-10.347 2.333l-123.804 195.89c-2.831 4.479-7.684 7.152-12.981 7.152h-123.146c-6.979 0-13.541 3.409-17.554 9.118-4.013 5.71-4.997 13.039-2.633 19.604l8.057 22.383c6.19 17.195 22.628 28.748 40.903 28.748h15.529c4.142 0 7.5-3.358 7.5-7.5s-3.358-7.501-7.5-7.501z"/><path d="m484.656 12.222c-4.34-7.653-12.183-12.222-20.98-12.222-8.321 0-15.942 4.199-20.387 11.233l-119.297 188.756c-2.213 3.501-1.168 8.134 2.333 10.347 3.503 2.214 8.135 1.168 10.347-2.333l6.357-10.059h27.271l-172.682 288.616c-6.27 8.302-9.265 10.464-14.383 10.464h-59.062c-4.142 0-7.5 3.358-7.5 7.5s3.358 7.5 7.5 7.5h59.062c12.943 0 19.973-7.931 26.611-16.768.158-.21.305-.428.439-.654l274.087-458.102c4.517-7.549 4.623-16.625.284-24.278zm-105.382 170.722h-26.766l14.144-22.379h26.011zm22.364-37.379h-25.506l11.891-18.814h24.871zm20.232-33.815h-24.366l14.138-22.369h23.612zm49.63-82.951-27.272 45.582h-23.106l34.846-55.135c1.68-2.659 4.562-4.247 7.707-4.247 4.794 0 7.144 3.231 7.932 4.621s2.355 5.065-.107 9.179z"/><path d="m317.674 425.509c-22.017 0-59.277 5.001-59.277 23.747v39.01c0 18.745 37.261 23.747 59.277 23.747s59.277-5.001 59.277-23.747v-39.01c0-18.746-37.261-23.747-59.277-23.747zm0 15c25.224 0 40.025 5.617 43.696 8.747-3.671 3.13-18.472 8.747-43.696 8.747-25.225 0-40.025-5.617-43.697-8.747 3.671-3.131 18.472-8.747 43.697-8.747zm44.277 47.172c-2.345 2.949-17.389 9.331-44.277 9.331s-41.933-6.382-44.277-9.331v-21.769c12.827 5.333 31.229 7.09 44.277 7.09s31.45-1.757 44.277-7.09z"/></g></g></svg>