<svg id="Capa_1" enable-background="new 0 0 512.011 512.011" height="512" viewBox="0 0 512.011 512.011" width="512" xmlns="http://www.w3.org/2000/svg"><g><g><path d="m34.767 499.99-22.767-22.766c-6-6-6-15.729 0-21.729l104.06-104.06 44.496 44.496-104.06 104.059c-6 6.001-15.729 6.001-21.729 0z" fill="#4f6c77"/><path d="m160.555 395.925-104.066 104.066c-5.994 5.994-15.724 6.002-21.726 0l-16.196-16.196c6.002 6.002 15.732 5.994 21.726 0l104.066-104.065z" fill="#395a61"/><path d="m469.486 42.504c-53.566-53.566-149.294-44.678-213.818 19.846-42.774 42.774-61.094 99.259-52.984 148.083 5.656 34.051-6.002 68.693-30.409 93.1l-24.903 24.903 36.183 36.183 24.903-24.903c24.408-24.408 59.049-36.065 93.1-30.409 48.823 8.11 105.308-10.21 148.083-52.984 64.523-64.525 73.412-160.252 19.845-213.819zm-206.07 206.07c-39.015-39.015-30.693-110.594 18.595-159.881 49.28-49.28 120.867-57.609 159.881-18.595s30.685 110.602-18.595 159.881c-49.287 49.288-120.866 57.61-159.881 18.595z" fill="#8296e1"/><path d="m449.641 256.322c-42.774 42.774-99.259 61.094-148.083 52.984-34.051-5.656-68.693 6.002-93.1 30.409l-24.903 24.903-15.732-15.732 24.903-24.903c24.408-24.408 65.751-42.767 99.802-37.111 48.823 8.11 98.607-3.508 141.381-46.283 61.338-61.338 72.397-150.867 27.334-205.574 2.847 2.344 5.593 4.838 8.243 7.488 53.567 53.568 44.678 149.295-19.845 213.819z" fill="#6380dc"/><path d="m165.533 400.907-54.449-54.449c-3.2-3.2-3.2-8.389 0-11.589l15.566-15.566c3.2-3.2 8.389-3.2 11.589 0l54.449 54.449c3.2 3.2 3.2 8.389 0 11.589l-15.566 15.566c-3.2 3.2-8.389 3.2-11.589 0z" fill="#889daa"/><path d="m192.686 385.346-15.567 15.567c-3.193 3.194-8.385 3.193-11.586-.008l-15.732-15.732c3.201 3.201 8.393 3.201 11.586.008l15.567-15.567c3.201-3.201 3.201-8.393 0-11.594l15.732 15.732c3.202 3.201 3.202 8.392 0 11.594z" fill="#728d9a"/></g><g><path d="m474.789 37.201c-33.194-33.194-83.775-45.116-135.306-31.892-4.012 1.03-6.43 5.117-5.4 9.129 1.029 4.012 5.115 6.427 9.129 5.4 46.34-11.893 91.565-1.437 120.971 27.97 24.3 24.3 35.733 58.678 32.195 96.802-3.588 38.646-22.07 76.437-52.043 106.41-19.85 19.85-43.688 34.994-68.938 43.796-24.349 8.487-49.457 10.942-72.614 7.097-22.464-3.733-45.408-.55-66.35 9.2-3.755 1.748-5.382 6.209-3.634 9.965 1.271 2.731 3.978 4.336 6.804 4.336 1.06 0 2.137-.226 3.161-.703 18.188-8.468 38.093-11.235 57.562-8.002 25.626 4.257 53.293 1.583 80.009-7.729 27.371-9.542 53.169-25.916 74.606-47.354 32.442-32.442 52.462-73.507 56.372-115.63 3.958-42.646-9.012-81.283-36.524-108.795z"/><path d="m326.274 280.668c38.513-.001 75.405-18.467 102.323-45.386 25.026-25.026 40.849-56.359 44.555-88.227 3.782-32.521-5.438-61.734-25.961-82.257-20.524-20.523-49.733-29.744-82.257-25.961-31.868 3.706-63.201 19.529-88.227 44.555-25.026 25.025-40.849 56.358-44.555 88.227-3.782 32.521 5.438 61.734 25.961 82.257 17.511 17.511 41.344 26.793 68.161 26.792zm-57.554-37.398c-2.52-2.52-4.822-5.19-6.91-7.995l32.407-32.407 14.905 14.905-32.407 32.407c-2.804-2.088-5.475-4.39-7.995-6.91zm70.856-55.95-19.847 19.847-14.905-14.905 19.847-19.847zm-4.299-25.512 19.847-19.846 14.905 14.905-19.847 19.846zm14.905 36.118 14.904 14.904-19.847 19.847-14.904-14.904zm10.607-10.606 19.846-19.846 14.904 14.905-19.846 19.846zm30.452-30.453 19.846-19.846 14.904 14.905-19.846 19.846zm-10.606-10.607-14.905-14.905 19.846-19.846 14.905 14.905zm-25.511-25.511-14.904-14.904 19.846-19.846 14.904 14.904zm-10.607 10.607-19.847 19.847-14.904-14.904 19.847-19.847zm-30.453 30.453-19.846 19.846-14.904-14.904 19.846-19.846zm-.616 102.66c-.092.092-.182.187-.268.282-8.134-1.141-15.917-3.36-23.14-6.682l29.689-29.689 14.904 14.904zm20.278.935 11.514-11.514 8.302 8.302c-6.647 1.677-13.283 2.752-19.816 3.212zm35.818-8.419c-.045-.047-.09-.094-.136-.14l-13.561-13.562 19.847-19.847 19.792 19.792c-8.383 5.63-17.104 10.225-25.942 13.757zm48.447-32.309c-3.357 3.357-6.823 6.514-10.377 9.469l-21.315-21.315 19.846-19.846 21.314 21.314c-2.954 3.555-6.111 7.021-9.468 10.378zm18.553-22.507-19.791-19.792 19.846-19.846 13.56 13.56c.046.046.093.092.141.137-3.532 8.838-8.127 17.559-13.756 25.941zm18.963-41.943-8.301-8.301 11.513-11.513c-.461 6.532-1.535 13.168-3.212 19.814zm-4.123-63.502c3.322 7.224 5.541 15.007 6.682 23.141-.095.086-.188.175-.28.266l-21.187 21.187-14.904-14.905zm-14.799-21.319c2.52 2.52 4.822 5.19 6.91 7.995l-32.407 32.407-14.905-14.905 32.407-32.407c2.805 2.088 5.476 4.391 7.995 6.91zm-44.728-21.198c.092-.092.182-.187.268-.282 8.134 1.141 15.917 3.36 23.141 6.682l-29.69 29.689-14.904-14.904zm-20.278-.935-11.513 11.513-8.301-8.301c6.646-1.677 13.282-2.751 19.814-3.212zm-35.816 8.42c.045.047.09.094.137.14l13.56 13.56-19.846 19.846-19.791-19.791c8.38-5.629 17.102-10.224 25.94-13.755zm-48.449 32.307c3.357-3.357 6.823-6.514 10.378-9.469l21.315 21.315-19.847 19.847-21.315-21.314c2.956-3.556 6.113-7.022 9.469-10.379zm-18.552 22.507 19.792 19.792-19.846 19.846-13.56-13.56c-.046-.046-.093-.092-.141-.137 3.531-8.838 8.126-17.559 13.755-25.941zm-18.963 41.943 8.302 8.302-11.513 11.513c.46-6.533 1.534-13.169 3.211-19.815zm-2.559 40.361c.096-.086.19-.176.282-.268l21.185-21.185 14.904 14.904-29.689 29.689c-3.322-7.223-5.541-15.006-6.682-23.14z"/><path d="m205.556 332.084c-.809.764-21.998 21.932-21.998 21.932l-25.583-25.583 19.602-19.602c26.338-26.338 38.488-63.58 32.502-99.624-3.845-23.154-1.391-48.264 7.097-72.613 8.802-25.25 23.946-49.088 43.796-68.937 15.153-15.153 32.302-27.388 50.971-36.364 3.733-1.795 5.304-6.276 3.509-10.009-1.795-3.732-6.277-5.305-10.009-3.509-20.196 9.71-38.727 22.925-55.078 39.276-21.438 21.438-37.812 47.236-47.354 74.606-9.313 26.715-11.986 54.382-7.729 80.008 5.194 31.279-5.389 63.638-28.312 86.56l-19.602 19.602-3.826-3.827c-2.964-2.964-6.905-4.597-11.098-4.597s-8.133 1.632-11.098 4.597l-15.566 15.565c-6.01 6.01-6.117 15.722-.322 21.864l-98.761 98.762c-4.319 4.319-6.697 10.061-6.697 16.168s2.378 11.849 6.697 16.167l22.766 22.767c4.319 4.319 10.061 6.697 16.168 6.697s11.85-2.378 16.168-6.697l98.762-98.761c3.015 2.845 6.891 4.268 10.766 4.268 4.02 0 8.039-1.53 11.098-4.59l15.565-15.566c2.964-2.964 4.597-6.905 4.597-11.098s-1.632-8.133-4.597-11.098l-3.827-3.827s20.986-20.967 21.691-21.633c3.011-2.844 3.146-7.591.303-10.602-2.843-3.01-7.59-3.145-10.601-.302zm-154.363 162.603c-3.028 3.027-8.088 3.034-11.123 0l-22.766-22.767c-2.795-2.794-2.876-8.246 0-11.123.075-.075 12.534-12.534 12.534-12.534l33.889 33.889zm23.141-23.141-33.889-33.889 18.154-18.154 33.889 33.889zm28.76-28.76-33.889-33.89 18.154-18.154 33.889 33.89zm28.76-28.76-33.889-33.89 18.095-18.095 33.89 33.89zm55.53-33.988-15.565 15.566c-.271.27-.713.269-.983 0l-54.449-54.449c-.135-.135-.204-.3-.204-.492 0-.191.069-.356.204-.491l15.566-15.565c.135-.135.3-.203.491-.203s.356.068.491.203l54.449 54.449c.135.135.203.3.203.491s-.068.356-.203.491z"/></g></g></svg>