<svg id="Capa_1" enable-background="new 0 0 511.997 511.997" height="512" viewBox="0 0 511.997 511.997" width="512" xmlns="http://www.w3.org/2000/svg"><g><g><g fill="#f4f8f9"><path d="m404.473 87.165-20.533-1.17c-8.822-.503-17.388 3.063-23.248 9.677l-119.707 135.114c-4.424 4.993-6.281 11.757-5.026 18.309l4.33 22.611 22.611 4.33c6.552 1.255 13.316-.602 18.309-5.026l135.114-119.707c6.614-5.86 10.179-14.426 9.677-23.248l-1.17-20.533c-.626-10.973-9.384-19.731-20.357-20.357z"/><path d="m486.987 170.939-20.19-3.921c-8.674-1.684-17.642.697-24.338 6.463l-136.788 117.79c-5.055 4.353-7.804 10.806-7.442 17.467l1.25 22.988 21.824 7.331c6.324 2.124 13.276 1.194 18.819-2.518l149.984-100.452c7.342-4.917 12.027-12.926 12.715-21.735l1.601-20.504c.855-10.958-6.645-20.814-17.435-22.909z"/><path d="m341.049 25 3.921 20.19c1.684 8.674-.697 17.642-6.463 24.338l-117.79 136.788c-4.353 5.055-10.806 7.804-17.467 7.442l-22.988-1.25-7.331-21.824c-2.124-6.324-1.194-13.276 2.518-18.819l100.452-149.983c4.917-7.342 12.926-12.027 21.735-12.715l20.504-1.601c10.958-.856 20.814 6.645 22.909 17.434z"/></g><path d="m416.328 151.303-135.121 119.708c-4.989 4.423-11.755 6.277-18.301 5.025l-22.618-4.331-2.229-11.684 10.927 2.095c6.546 1.253 13.312-.602 18.301-5.025l135.114-119.715c6.617-5.853 10.177-14.423 9.681-23.241l-1.175-20.537c-.099-1.883-.453-3.694-1.012-5.414 8.315 2.682 14.416 10.255 14.932 19.334l1.175 20.537c.503 8.825-3.064 17.388-9.674 23.248z" fill="#e7eef3"/><path d="m490.106 236.093-149.983 100.444c-5.541 3.715-12.498 4.643-18.825 2.519l-21.818-7.325-.517-9.419 8.415 2.824c6.327 2.123 13.284 1.196 18.825-2.52l149.976-100.451c7.346-4.912 12.031-12.923 12.717-21.734l1.606-20.502c.226-2.902-.134-5.725-.984-8.344 9.405 3.036 15.69 12.18 14.904 22.264l-1.606 20.502c-.686 8.812-5.371 16.823-12.71 21.742z" fill="#e7eef3"/><path d="m203.246 213.758-22.986-1.245-4.508-13.411 13.574.736c6.659.361 13.114-2.385 17.466-7.445l117.79-136.785c5.768-6.702 8.153-15.668 6.461-24.338l-3.914-20.191c-.17-.863-.389-1.705-.651-2.534 7.289 2.364 13.036 8.521 14.572 16.454l3.914 20.191c1.691 8.669-.686 17.643-6.461 24.338l-117.784 136.792c-4.359 5.053-10.806 7.806-17.473 7.438z" fill="#e7eef3"/><path d="m31.928 480.068c-32.559-32.559-32.559-85.348 0-117.907l18.86-18.86 117.907 117.907-18.86 18.86c-32.559 32.559-85.348 32.559-117.907 0z" fill="#f4f8f9"/><path d="m168.696 461.213-18.86 18.86c-32.554 32.554-85.349 32.554-117.91-.007-2.392-2.392-4.614-4.897-6.652-7.502 32.724 25.732 80.246 23.517 110.408-6.645l18.86-18.86z" fill="#e7eef3"/><path d="m168.695 461.208-117.907-117.907 27.999-27.999c2.392-2.392 6.269-2.392 8.661 0l109.246 109.246c2.392 2.392 2.392 6.269 0 8.661z" fill="#64caff"/><path d="m196.7 433.209-28.004 28.004-14.154-14.154 28.004-28.004c2.385-2.385 2.385-6.263-.007-8.655l14.154 14.154c2.392 2.392 2.392 6.27.007 8.655z" fill="#00b8ff"/></g><path d="m488.417 163.576-20.19-3.921c-10.998-2.136-22.172.833-30.661 8.142l-136.789 117.79c-6.77 5.83-10.522 14.637-10.037 23.558l1.202 22.114-15.906 12.422-48.558-48.558 15.303-15.303 18.708 3.583c1.785.342 3.588.509 5.385.509 7.039 0 13.98-2.568 19.308-7.288l135.115-119.707c8.384-7.429 12.828-18.104 12.19-29.288l-1.17-20.533c-.843-14.787-12.63-26.574-27.417-27.418l-20.533-1.17c-11.181-.624-21.86 3.808-29.288 12.191l-119.708 135.114c-5.925 6.688-8.459 15.919-6.778 24.692l3.582 18.708-15.303 15.303-48.565-48.565 12.421-15.905 22.115 1.202c.516.027 1.029.042 1.543.042 8.384-.001 16.521-3.7 22.014-10.079l117.791-136.79c7.309-8.489 10.277-19.665 8.142-30.661l-3.921-20.189c-2.823-14.54-16.095-24.625-30.855-23.482l-20.506 1.601c-11.168.873-21.149 6.712-27.382 16.019l-28.303 42.26c-2.305 3.442-1.384 8.101 2.058 10.405 3.442 2.306 8.101 1.384 10.405-2.058l28.303-42.26c3.662-5.469 9.526-8.898 16.087-9.411l20.504-1.602c7.155-.57 13.593 4.336 14.962 11.387l3.921 20.189c1.254 6.461-.489 13.026-4.784 18.015l-117.789 136.788c-2.815 3.27-7.062 5.092-11.377 4.847l-11.674-.634 115.039-147.307c2.549-3.265 1.97-7.978-1.295-10.527-3.266-2.55-7.978-1.97-10.527 1.295l-113.219 144.976-1.94-5.775c-1.374-4.091-.761-8.673 1.64-12.257l52.844-78.9c2.305-3.441 1.384-8.101-2.058-10.405-3.441-2.304-8.1-1.383-10.405 2.058l-52.844 78.9c-4.972 7.423-6.241 16.911-3.396 25.381l5.095 15.166-13.295 17.025-7.45-7.45c-2.929-2.928-7.678-2.928-10.606 0-2.929 2.93-2.929 7.678 0 10.607l8.754 8.754-12.515 16.025-4.585-4.585c-2.928-2.927-7.677-2.929-10.606 0-2.929 2.93-2.929 7.678 0 10.607l5.889 5.889-12.515 16.025-4.683-4.683c-2.929-2.928-7.678-2.928-10.606 0-2.929 2.93-2.929 7.678 0 10.607l5.987 5.987-12.697 16.259c-5.346-4.596-13.437-4.374-18.503.691l-46.858 46.859c-17.165 17.165-26.618 39.984-26.618 64.258s9.453 47.093 26.616 64.257c17.238 17.238 40.339 26.626 64.207 26.626 5.988 0 12.029-.592 18.032-1.799 4.061-.815 6.691-4.77 5.875-8.83-.816-4.062-4.769-6.695-8.831-5.875-24.997 5.021-50.672-2.725-68.676-20.729-14.331-14.33-22.223-33.383-22.223-53.649s7.892-39.319 22.223-53.649l13.556-13.557 107.3 107.301-13.556 13.555c-3.085 3.086-6.441 5.914-9.974 8.408-3.384 2.389-4.191 7.068-1.802 10.452 2.39 3.386 7.069 4.191 10.453 1.802 4.229-2.984 8.242-6.368 11.93-10.055l46.858-46.858c5.069-5.07 5.289-13.165.683-18.512l16.258-12.697 5.988 5.988c1.464 1.464 3.384 2.196 5.303 2.196s3.839-.732 5.303-2.196c2.929-2.93 2.929-7.678 0-10.607l-4.683-4.683 16.025-12.515 5.891 5.891c1.464 1.464 3.384 2.196 5.303 2.196s3.839-.732 5.303-2.196c2.929-2.93 2.929-7.678 0-10.607l-4.585-4.585 16.025-12.515 8.755 8.755c1.464 1.464 3.384 2.196 5.303 2.196s3.839-.732 5.303-2.196c2.929-2.93 2.929-7.678 0-10.607l-7.449-7.449 17.025-13.296 15.167 5.095c2.981 1.001 6.087 1.493 9.186 1.493 5.706 0 11.384-1.668 16.194-4.89l149.984-100.451c9.308-6.235 15.146-16.216 16.018-27.383l1.602-20.505c1.153-14.772-8.942-28.036-23.482-30.859zm-241.819 72.184 119.708-135.114c4.364-4.926 10.632-7.549 17.207-7.162l20.533 1.17c7.171.408 12.887 6.124 13.296 13.295l1.17 20.533c.374 6.57-2.237 12.843-7.163 17.208l-135.113 119.706c-3.23 2.863-7.687 4.088-11.925 3.274l-8.711-1.668 131.096-131.095c2.929-2.93 2.929-7.678 0-10.607-2.928-2.927-7.677-2.929-10.606 0l-131.097 131.095-1.668-8.711c-.812-4.237.412-8.695 3.273-11.924zm-87.593 12.103 47.26 47.26-14.27 14.27-45.505-45.505zm-21.818 27.936 44.2 44.201-14.27 14.27-42.445-42.446zm-21.817 27.937 41.141 41.141-14.441 14.441-39.364-39.365zm53.325 146.866-107.3-107.301 21.722-21.722 107.3 107.301zm23.339-41.32-39.358-39.358 14.441-14.441 41.134 41.134zm28.129-21.967-42.438-42.438 14.27-14.27 44.193 44.194zm27.937-21.817-45.498-45.498 14.27-14.27 47.253 47.253zm248.845-172.235-1.602 20.505c-.513 6.561-3.943 12.425-9.411 16.088l-149.985 100.451c-3.585 2.402-8.167 3.013-12.256 1.641l-5.775-1.94 144.976-113.219c3.265-2.55 3.844-7.263 1.295-10.527-2.55-3.264-7.263-3.846-10.527-1.295l-147.307 115.038-.635-11.675c-.234-4.308 1.578-8.561 4.848-11.376l136.789-117.79c4.988-4.295 11.552-6.036 18.014-4.784l20.19 3.921c7.05 1.369 11.945 7.802 11.386 14.962z"/></g></svg>