<svg id="Capa_1" enable-background="new 0 0 512.224 512.224" height="512" viewBox="0 0 512.224 512.224" width="512" xmlns="http://www.w3.org/2000/svg"><g><g><path d="m504.265 256.002c0 69.919-28.878 133.096-75.37 178.248-36.632 35.576-86.062 60.118-136.537 67.568-22.107 3.262-48.195 3.409-70.48.38-121.203-16.524-214.608-120.452-214.608-246.196 0-137.237 111.26-248.497 248.498-248.497 98.367 0 183.39 57.155 223.661 140.078 15.913 32.759 24.836 69.549 24.836 108.419z" fill="#f4f8f9"/><path d="m504.415 256.002c0 137.29-111.303 248.593-248.593 248.593-23.135 0-45.53-3.162-66.774-9.076 15.56 3.052 31.651 4.653 48.102 4.653 137.3 0 248.603-111.293 248.603-248.593 0-114.155-76.951-210.348-181.819-239.507 114.264 22.395 200.481 123.101 200.481 243.93z" fill="#e7eef3"/><path d="m272.233 8.049c-4.623 1.461-9.346 3.012-13.911 4.583-10.904 3.754-21.687 7.879-32.29 12.418-.07.03-.14.06-.21.09-40.838 17.482-81.588 40.9-111.303 74.329-3.602 4.053-6.995 8.315-9.936 12.898-.02.03-.04.05-.05.08-.05.06-.07.11-.07.11-7.945-10.487-15.68-21.674-23.045-33.612 44.859-44.179 106.43-71.437 174.354-71.437 5.533.001 11.017.181 16.461.541z" fill="#a4ed62"/><path d="m439.552 88.752c-161.956 25.957-237.496 116.667-237.496 116.667l-.981 1.241c-15.77-11.367-33.552-25.727-51.704-43.388 0 0 .01-.02.03-.05 4.249-6.363 9.325-12.186 14.53-17.74 16.503-17.614 35.723-32.413 55.717-45.842 28.231-18.961 58.908-33.702 90.727-45.939 13.981-5.376 28.171-10.267 42.509-14.601 5.242-1.584 10.379-3.106 15.67-4.583 26.859 13.699 50.895 32.151 70.998 54.235z" fill="#a4ed62"/><g><path d="m439.552 88.752c-4.283.69-8.506 1.421-12.658 2.191-18.382-21.674-40.387-40.156-65.093-54.496 2.232-.65 4.483-1.291 6.754-1.931 26.858 13.7 50.894 32.152 70.997 54.236z" fill="#7be700"/></g><g fill="#a4ed62"><path d="m194.331 461.339c-4.809 10.183-10.163 20.49-16.124 30.806-62.249-20.43-113.654-64.792-143.332-122.201.711.68 1.411 1.359 2.121 2.029 9.899 9.326 20.048 18.524 30.769 26.98 12.659 9.985 25.696 19.419 39.41 27.938 24.244 15.06 51.101 28.204 79.465 33.363.558.102 7.54 1.404 7.691 1.085z"/><path d="m231.97 335.54c-2.698 18.731-7.074 40.562-14.108 64.185l-.01-.01s-94.161-7.579-210.286-131.459c-.196-4.057-.299-8.145-.299-12.254 0-27.01 4.315-53.001 12.285-77.355 96.086 131.788 210.915 156.595 210.915 156.595z"/><path d="m477.234 330.678c2.829-29.639 3.659-61.872-3.321-91.038-2.495-10.425-5.445-19.974-9.765-29.969-.03-.05-.04-.08-.04-.08 11.478-1.041 23.305-1.641 35.493-1.701 3.062 15.56 4.663 31.651 4.663 48.112 0 46.571-12.808 90.149-35.113 127.394 1.551-7.205 2.932-14.389 4.103-21.744 1.626-10.215 2.987-20.573 3.98-30.974z"/></g><path d="m504.265 256.002c0 46.571-12.808 90.149-35.113 127.394 1.551-7.205 2.932-14.389 4.103-21.744 1.621-10.217 2.992-20.573 3.983-30.97.63-6.664 1.171-13.469 1.531-20.333 0 0 0-.01 0-.02 4.563-18.832 6.985-38.505 6.985-58.749 0-14.75-1.281-29.189-3.742-43.228 5.774-.27 11.638-.43 17.592-.46 3.06 15.559 4.661 31.649 4.661 48.11z" fill="#7be700"/><path d="m414.393 322.576c.004 45.608-7.453 91.018-19.23 134.869-.46 1.741-.941 3.492-1.431 5.253-7.595 5.083-15.5 9.756-23.656 13.989-18.732 9.736-38.865 17.141-60.009 21.864 59.979-147.147 24.296-255.638 24.296-255.638l-.52-1.481c17.902-7.305 39.386-14.73 63.842-20.724-.002.001.099.205.11.229 7.88 16.817 11.29 36.534 13.67 54.829 2.005 15.424 2.926 31.08 2.928 46.81z" fill="#a4ed62"/><path d="m314.23 487.994c31.771-10.357 60.73-26.928 85.436-48.292-.16.68-.32 1.361-.48 2.031-1.281 5.253-2.622 10.497-4.023 15.71-.18.68-.36 1.361-.55 2.041-.29 1.071-.58 2.141-.881 3.212-7.595 5.083-15.5 9.756-23.656 13.989-18.732 9.736-38.865 17.141-60.009 21.864 1.441-3.54 2.832-7.062 4.163-10.555z" fill="#7be700"/><path d="m486.013 162.351c-111.693 11.277-193.787 57.188-219.454 73.158-5.524 3.442-12.448 3.692-18.212.66-10.097-5.303-27.178-15.03-47.271-29.509l.981-1.241s75.54-90.71 237.496-116.667c15.94 17.501 29.419 37.294 39.866 58.829h.01c2.351 4.833 4.542 9.766 6.584 14.77z" fill="#8296e1"/><path d="m486.013 162.351c-5.414.55-10.767 1.171-16.04 1.881-10.127-26.968-24.796-51.704-43.078-73.288 4.153-.77 8.375-1.501 12.658-2.191 15.94 17.501 29.419 37.294 39.866 58.829h.01c2.351 4.832 4.542 9.765 6.584 14.769z" fill="#6380dc"/><path d="m368.556 34.517c-2.832.791-5.644 1.591-8.406 2.412-14.706 4.369-29.278 9.145-43.658 14.489-43.493 16.165-86.83 38.267-123.168 67.251-11.9 9.492-23.074 19.773-33.275 31.074-3.808 4.219-7.503 8.702-10.649 13.482-.018.028-.028.046-.037.056-15.03-14.61-30.31-31.461-44.899-50.723 0 0 .02-.05.07-.11.01-.03.03-.05.05-.09 4.983-7.485 11.067-14.129 17.211-20.513 19.037-19.781 42.467-35.316 66.444-48.452 18.356-10.056 37.583-18.866 57.289-26.148 8.855-3.272 17.761-6.344 26.756-9.195 34.491 2.261 67.053 11.557 96.272 26.467z" fill="#8296e1"/><path d="m368.556 34.517c-2.271.63-4.523 1.271-6.754 1.931h-.01c-17.612-10.227-36.584-18.342-56.597-24.016 22.354 4.503 43.618 12.008 63.361 22.085z" fill="#6380dc"/><path d="m310.067 498.551c-5.834 1.291-11.738 2.392-17.712 3.272-11.938 1.761-24.156 2.672-36.584 2.672-11.037 0-21.904-.721-32.551-2.121 47.541-98.535 50.833-190.295 50.453-220.545-.09-6.684 3.502-12.858 9.336-16.111 10.227-5.704 28.018-14.98 50.833-24.286l.52 1.481c.001 0 35.685 108.492-24.295 255.638z" fill="#8296e1"/><path d="m314.23 487.994c-1.331 3.492-2.722 7.015-4.163 10.557-5.834 1.291-11.738 2.392-17.712 3.272-11.938 1.761-24.156 2.672-36.584 2.672-11.037 0-21.904-.721-32.551-2.121.41-.841.811-1.681 1.201-2.522 4.213.21 8.456.32 12.728.32 26.908 0 52.815-4.272 77.081-12.178z" fill="#6380dc"/><path d="m477.329 330.689c-.946 10.156-2.312 20.338-4.075 30.963-1.211 7.295-2.592 14.569-4.123 21.784-11.167 18.662-24.716 35.743-40.236 50.813-10.807 10.507-22.575 20.033-35.162 28.446 3.181-11.394 6.068-22.992 8.565-34.611 3.379-15.719 6.225-31.402 8.235-47.361 5.384-42.748 6.171-83.104-2.505-125.46-1.695-8.275-3.79-16.477-6.471-24.49-1.901-5.683-3.372-8.974-3.762-9.835-.006-.014-.116-.251-.12-.25 20.243-4.963 42.508-8.966 66.434-11.097 0 0 .01.03.04.08.01.02.03.05.04.08.696 2.075 1.789 4.075 2.56 6.135 13.602 36.369 14.129 76.685 10.58 114.803z" fill="#8296e1"/><path d="m478.768 310.348c-.32 6.835-.811 13.619-1.441 20.343-.941 10.157-2.312 20.333-4.073 30.96-1.211 7.295-2.592 14.57-4.123 21.784-11.167 18.662-24.716 35.743-40.236 50.813-10.807 10.507-22.575 20.033-35.163 28.449.3-1.071.59-2.141.881-3.212 1.611-5.874 3.142-11.798 4.573-17.752.16-.67.32-1.351.48-2.031v-.01c38.525-33.291 66.714-78.231 79.102-129.344z" fill="#6380dc"/><path d="m231.97 335.54-1.503-.299s-114.828-24.807-210.915-156.595v-.01c7.981-24.405 19.648-47.152 34.342-67.573 60.146 95.07 143.898 141.615 172.219 155.338 6.165 2.988 10.067 9.241 10.031 16.091-.058 11.138-.805 29.673-4.174 53.048z" fill="#8296e1"/><path d="m217.862 399.725c-5.828 19.555-13.48 40.346-23.53 61.61 0 0-.371-.021-1.102-.093-10.942-1.079-21.746-4.424-32.098-8.011-11.172-3.872-22.423-8.936-32.929-14.384-7.156-3.711-14.184-7.704-21.03-11.957-13.69-8.504-26.871-17.893-39.409-27.938-7.836-6.282-15.91-13.201-24.189-20.822-2.938-2.704-5.855-5.432-8.712-8.207-15.867-30.717-25.526-65.141-27.297-101.667 116.125 123.88 210.286 131.459 210.296 131.469z" fill="#8296e1"/></g><path d="m444.026 429.163c16.433-17.876 30.384-38.042 41.102-59.76 17.774-36.017 27.205-76.362 26.69-116.572-.648-50.575-16.62-100.636-45.356-142.237-12.854-18.609-28.161-35.519-45.435-50.12-45.369-38.349-105.738-60.474-165.26-60.474-55.012 0-107.369 17.249-150.919 49.168-.01.008-.021.015-.031.022-31.904 23.405-58.712 54.675-76.665 89.371-18.996 36.711-28.09 78.271-27.758 119.52.594 73.754 30.214 140.583 85.912 189.783 27.121 23.957 59.578 42.16 94.339 52.849 38.079 11.71 73.353 14.353 112.805 8.536 27.811-4.1 55.007-12.865 80.083-25.901 26.321-13.683 50.284-32.202 70.493-54.185zm-9.973-11.064c-8.536 9.373-17.778 18.084-27.711 25.963 1.172-4.839 2.272-9.647 3.293-14.4 3.108-14.465 5.496-27.625 7.299-40.23.586-4.103-2.264-7.905-6.367-8.492-4.106-.576-7.905 2.264-8.492 6.367-1.752 12.258-4.08 25.08-7.115 39.201-2.195 10.215-4.775 20.696-7.65 31.199-20.053 12.969-42.12 23.121-64.878 29.805 26.646-71.311 31.019-132.491 29.777-172.194-1.095-35.013-6.494-59.303-9.19-69.457 16.361-6.385 33.185-11.83 50.176-16.257.88-.149 5.545 18.05 5.948 19.65 6.292 24.996 8.38 51.393 7.943 77.279-.15 8.902-.595 17.799-1.275 26.676-.317 4.133 2.777 7.739 6.91 8.057 4.141.308 7.74-2.777 8.057-6.91 2.818-36.78 1.931-73.341-7.224-109.337-.379-1.488-5.115-19.144-5.699-19.012 17.092-3.843 34.333-6.663 51.432-8.413 1.041 2.654 2.015 5.343 2.929 8.118 7.514 23.299 10.498 49.948 9.151 82.184-.734 17.594-2.737 35.068-5.524 52.578-.003.016-.006.033-.008.049-1.103 6.637-2.375 13.401-3.785 20.127-4.436 7.328-9.265 14.418-14.457 21.233-4.205 5.516-8.756 10.963-13.54 16.216zm-134.023 74.815c-22.242 4.186-42.966 4.939-65.532 3.094 43.253-94.723 47.099-180.887 46.679-214.28-.053-3.917 2.05-7.539 5.488-9.456 9.36-5.22 23.898-12.79 42.316-20.674 2.609 10.415 7.311 33.181 8.246 64.855 1.18 39.984-3.581 102.639-32.612 175.547-1.525.321-3.053.626-4.585.914zm-110.709-5.229c4.138-7.549 8.093-15.299 11.797-23.143 26.678-56.496 42.21-119.461 42.531-182.01.05-9.679-5.549-18.66-14.264-22.883-17.161-8.316-61.966-32.418-107.261-76.509-2.971-2.891-7.722-2.826-10.612.143-2.892 2.97-2.828 7.722.143 10.612 46.865 45.62 93.367 70.627 111.185 79.261 3.543 1.717 5.82 5.367 5.799 9.299-.05 9.77-.638 24.848-2.986 43.732-1.587-.462-3.168-.957-4.742-1.463-11.802-3.796-32.119-11.437-56.813-25.247-35.759-19.999-88.173-57.351-136.194-122.139 6.409-18.586 15.072-36.281 25.832-52.774 10.175 15.159 21.433 29.807 33.562 43.661 2.732 3.118 7.472 3.434 10.59.703 3.118-2.73 3.433-7.472.703-10.59-13.002-14.852-24.948-30.652-35.592-47.013 5.31-7.044 11.032-13.836 17.157-20.344 1.654 2.549 3.334 5.081 5.042 7.596 30.005 44.198 68.146 82.938 111.49 114.172 20.154 14.523 37.319 24.365 48.165 30.062 8.017 4.218 17.977 3.858 25.671-.929 22.222-13.827 102.23-59.253 210.606-71.46 3.755 9.852 6.833 19.898 9.238 30.114-8.964.242-17.989.771-26.943 1.583-64.294 5.832-127.682 25.614-184.07 57.046-8.261 4.605-13.312 13.329-13.185 22.76.413 32.876-3.448 118.555-47.355 212.236-9.999-1.541-19.846-3.71-29.494-6.476zm-74.693-36.337c-.038-.028-.076-.055-.114-.083-14.524-10.597-27.885-22.669-39.756-36.164-1.033-1.175-2.048-2.363-3.057-3.555 19.188 14.667 37.798 26.506 56.182 35.711 16.336 8.349 31.839 14.337 46.799 18.076 2.765.739 5.567 1.4 8.401 1.959-2.672 5.32-5.452 10.572-8.32 15.717-21.421-7.65-41.673-18.308-60.135-31.661zm-99.853-195.346c0-20.843 2.644-41.277 7.744-60.934 47.951 61.81 99.307 98.049 134.871 117.853 25.622 14.269 46.538 22.153 58.995 26.142.026.008.049.015.075.023.445.142 7.059 2.111 7.058 2.12-2.697 16.846-6.397 33.652-11.037 50.125-.574-.106-1.188-.223-1.84-.352-.001.014-.003.028-.004.042-24.46-4.767-102.251-27.037-195.675-125.872-.115-3.042-.187-6.091-.187-9.147zm189.912 149.219c1.988.478 3.39.751 3.442.587-5.194 16.246-11.327 32.137-18.295 47.396-.052.114-3.73-.688-4.024-.747-17.709-3.516-34.681-10.207-50.672-18.347-13.875-7.062-27.193-15.224-39.967-24.115-9.784-6.81-19.336-13.996-28.493-21.621-8.793-7.323-17.391-14.947-25.621-22.899-12.221-23.964-20.369-49.871-24.043-76.667 15.257 15.255 31.287 29.752 48.151 43.215 18.863 15.058 38.782 28.845 59.794 40.741 15.316 8.671 31.224 16.356 47.698 22.571 10.456 3.944 21.129 7.263 32.03 9.886zm-112.757-326.316c1.543-1.549 3.2-2.98 4.887-4.37 12.336-10.163 25.326-19.714 39.208-27.742 12.077-6.983 24.816-12.862 37.984-17.602 12.622-4.544 25.238-7.923 38.474-10.313 4.559-.823 9.131-1.517 13.728-2.076-4.895 2.047-9.766 4.19-14.607 6.426-22.678 10.355-44.684 22.43-64.825 37.176-13.705 10.035-26.645 21.447-37.869 34.079-1.617 1.82-3.12 3.597-4.521 5.348-4.662-6.469-9.132-13.056-13.366-19.695-.087-.137.257-.578.907-1.231zm188.668-62.615c21.209 2.181 42.141 7.177 62.036 14.862.844.326 3.806 2.079 4.603 1.833-13.127 4.056-26.415 8.658-39.556 13.711-42.61 16.386-83.317 37.613-119.038 66.107-13.115 10.462-25.156 21.541-36.187 34.192-1.443 1.655-2.781 3.252-4.017 4.807-12.389-12.518-24.012-25.741-34.666-39.438 3.79-5.042 8.201-9.884 13.427-15.315 12.048-12.519 25.732-23.162 40.183-32.554 25.483-16.563 53.161-30.066 81.708-40.561 8.127-2.988 16.224-5.779 24.102-8.298.445.032 5.383.446 7.405.654zm96.928 31.7c13.452 7.879 25.778 16.798 37.401 27.042 3.212 2.831 6.355 5.748 9.423 8.756-3.868.73-7.728 1.518-11.579 2.339-20.303 4.326-40.785 10.03-60.44 16.952-42.508 14.97-83.256 36.062-118.902 63.568-10.744 8.29-21.112 17.188-30.63 26.913-.22.224-2.779 3.028-2.851 2.974-14.185-10.56-27.827-22.017-40.685-34.172 1.282-1.664 2.596-3.271 3.899-4.8 9.049-10.622 19.518-20.415 30.112-29.167.02-.016.04-.033.06-.049 27.58-23.012 58.998-41.098 91.44-55.801 24.975-11.319 50.914-20.582 77.104-28.299 1.863-.549 3.824-1.12 5.848-1.696 3.303 1.733 6.6 3.565 9.8 5.44zm97.564 108.021c-106.116 12.815-183.55 55.114-212.5 73.128-3.243 2.02-7.363 2.169-10.754.385-9.183-4.824-23.087-12.746-39.563-24.144.144.099 17.169-16.111 18.449-17.2 16.791-14.287 34.812-26.703 53.91-37.715 9.993-5.762 20.667-11.314 31.285-16.298 38.602-18.118 78.887-30.262 120.803-37.329 14.345 16.289 26.54 34.606 36.043 54.205.799 1.65 1.568 3.308 2.327 4.968zm21.601 105.477c-.534 23.54-4.525 47.054-11.853 69.483.724-7.847 1.235-15.405 1.535-22.703 1.275-31.013-1.077-62.599-11.497-91.991 6.167-.406 12.345-.675 18.485-.802 1.323 7.798 2.25 15.698 2.802 23.641.521 7.498.697 14.932.528 22.372z"/></g></svg>