<svg id="Capa_1" enable-background="new 0 0 512 512" viewBox="0 0 512 512" xmlns="http://www.w3.org/2000/svg"><g><g><g><path d="m421.953 172.304h-331.905c-5.232 0-9.474-4.242-9.474-9.474v-69.218c0-5.232 4.242-9.474 9.474-9.474h331.905c5.232 0 9.474 4.242 9.474 9.474v69.218c0 5.233-4.242 9.474-9.474 9.474z" fill="#ac8597"/></g><g><path d="m420.63 172.304h-329.259v257.64c0 41.176 33.379 74.555 74.555 74.555h180.149c41.176 0 74.555-33.379 74.555-74.555z" fill="#ebe1e5"/></g><g><path d="m421.953 84.138h-30c5.233 0 9.474 4.242 9.474 9.474v69.218c0 5.232-4.242 9.475-9.474 9.475h30c5.233 0 9.474-4.242 9.474-9.475v-69.218c0-5.233-4.241-9.474-9.474-9.474z" fill="#916e7d"/></g><g><path d="m390.63 172.305v242.282c0 33.089-26.824 59.913-59.913 59.913h-209.433c-5.857 0-11.511-.855-16.861-2.422 13.436 19.576 35.966 32.422 61.503 32.422h180.149c41.176 0 74.555-33.379 74.555-74.555v-257.64z" fill="#dac8d1"/></g><g><path d="m337.802 383.107h-163.603c-3.663 0-6.632-2.969-6.632-6.632v-26.078c0-3.663 2.969-6.632 6.632-6.632h163.603c3.663 0 6.632 2.969 6.632 6.632v26.078c-.001 3.663-2.97 6.632-6.632 6.632z" fill="#ac8597"/></g><g><path d="m337.802 457.33h-163.603c-3.663 0-6.632-2.969-6.632-6.632v-26.078c0-3.663 2.969-6.632 6.632-6.632h163.603c3.663 0 6.632 2.969 6.632 6.632v26.078c-.001 3.663-2.97 6.632-6.632 6.632z" fill="#ac8597"/></g><g><path d="m230.26 84.138v-20.028c0-14.193 11.547-25.74 25.74-25.74s25.741 11.547 25.741 25.74v20.028h30.869v-20.028c0-31.215-25.395-56.61-56.61-56.61-31.214 0-56.609 25.395-56.609 56.61v20.028z" fill="#5f4a55"/></g><g><path d="m180.394 299.71h-.263c-10.551 0-19.105-8.554-19.105-19.105v-196.467h38.473v196.467c0 10.551-8.554 19.105-19.105 19.105z" fill="#ff9f45"/></g><g><path d="m331.607 299.71h.263c10.551 0 19.105-8.554 19.105-19.105v-196.467h-38.473v196.467c0 10.551 8.553 19.105 19.105 19.105z" fill="#ff9f45"/></g></g><g><path d="m421.953 76.638h-101.844v-12.529c0-8.572-1.674-16.903-4.974-24.76-1.604-3.819-6.002-5.613-9.819-4.01-3.819 1.604-5.614 6-4.011 9.819 2.524 6.008 3.804 12.384 3.804 18.951v12.528h-15.868v-12.528c0-18.329-14.912-33.24-33.241-33.24s-33.24 14.912-33.24 33.24v12.528h-15.868v-12.528c0-27.079 22.03-49.109 49.108-49.109 9.949 0 19.536 2.972 27.724 8.596 3.415 2.344 8.083 1.479 10.429-1.936 2.345-3.414 1.478-8.083-1.937-10.428-10.697-7.348-23.221-11.232-36.216-11.232-35.35 0-64.108 28.759-64.108 64.109v12.528h-101.844c-9.359 0-16.975 7.615-16.975 16.974v69.218c0 7.179 4.487 13.317 10.798 15.794v83.625c0 4.142 3.357 7.5 7.5 7.5s7.5-3.358 7.5-7.5v-82.444h54.655v100.8c0 14.67 11.935 26.605 26.604 26.605h.263c14.67 0 26.605-11.935 26.605-26.605v-100.8h98.003v100.8c0 14.67 11.935 26.605 26.604 26.605h.263c14.67 0 26.605-11.935 26.605-26.605v-100.8h54.655v250.14c0 36.974-30.081 67.055-67.055 67.055h-180.147c-36.974 0-67.055-30.081-67.055-67.055v-131.695c0-4.142-3.357-7.5-7.5-7.5s-7.5 3.358-7.5 7.5v131.696c0 45.246 36.81 82.055 82.055 82.055h180.149c45.245 0 82.055-36.81 82.055-82.055v-251.321c6.311-2.477 10.797-8.615 10.797-15.794v-69.218c0-9.36-7.615-16.974-16.974-16.974zm-78.478 88.167h-23.473v-73.167h23.473zm-105.715-100.696c0-10.058 8.183-18.24 18.24-18.24 10.059 0 18.241 8.183 18.241 18.24v12.528h-36.481zm-45.761 27.529v73.167h-23.473v-73.167zm-100.628 73.167h-1.323c-1.089 0-1.975-.886-1.975-1.975v-69.218c0-1.088.886-1.974 1.975-1.974h63.479v73.167zm100.628 115.8c0 6.399-5.206 11.605-11.605 11.605h-.263c-6.398 0-11.604-5.206-11.604-11.605v-100.8h23.473v100.8zm15-115.8v-73.167h98.003v73.167zm136.476 115.8c0 6.399-5.206 11.605-11.605 11.605h-.263c-6.398 0-11.604-5.206-11.604-11.605v-100.8h23.473v100.8zm15-115.8v-73.167h63.479c1.088 0 1.974.886 1.974 1.974v69.218c0 1.089-.886 1.975-1.974 1.975h-1.323z"/><path d="m174.199 390.607h163.603c7.792 0 14.132-6.339 14.132-14.132v-26.078c0-7.792-6.34-14.132-14.132-14.132h-163.603c-7.792 0-14.132 6.339-14.132 14.132v26.078c0 7.793 6.34 14.132 14.132 14.132zm.868-39.341h161.866v24.341h-161.866z"/><path d="m160.067 450.698c0 7.792 6.34 14.132 14.132 14.132h163.603c7.792 0 14.132-6.339 14.132-14.132v-26.078c0-7.792-6.34-14.132-14.132-14.132h-163.603c-7.792 0-14.132 6.339-14.132 14.132zm15-25.209h161.866v24.341h-161.866z"/></g></g><g/><g/><g/><g/><g/><g/><g/><g/><g/><g/><g/><g/><g/><g/><g/></svg>