<svg id="Capa_1" enable-background="new 0 0 512 512" viewBox="0 0 512 512" xmlns="http://www.w3.org/2000/svg"><g><g><g><path d="m495.402 503.587h-478.804c-5.025 0-9.098-4.073-9.098-9.098v-26.798c0-5.025 4.073-9.098 9.098-9.098h478.804c5.025 0 9.098 4.073 9.098 9.098v26.798c0 5.025-4.073 9.098-9.098 9.098z" fill="#ffc17f"/></g><g><path d="m103.768 19.786v438.806h152.232v-450.179h-140.859c-6.281 0-11.373 5.092-11.373 11.373z" fill="#37ddff"/></g><g><path d="m396.859 8.413h-140.859v450.18h152.232v-438.807c0-6.281-5.092-11.373-11.373-11.373z" fill="#00cdff"/></g><g><path d="m103.768 428.593h152.232v30h-152.232z" fill="#00cdff"/></g><g><path d="m396.859 8.413h-18.626v373.48c0 25.792-20.908 46.7-46.7 46.7h-75.533v30h152.232v-438.806c0-6.282-5.092-11.374-11.373-11.374z" fill="#0bf"/></g><g><path d="m493.394 290.513h-474.788c-6.134 0-11.106-4.972-11.106-11.106 0-9.552 7.744-17.296 17.296-17.296h462.408c9.552 0 17.296 7.744 17.296 17.296 0 6.134-4.972 11.106-11.106 11.106z" fill="#c6b2bc"/></g></g><path d="m495.402 451.093h-3.554v-153.08h1.546c10.259 0 18.606-8.347 18.606-18.606 0-13.672-11.124-24.796-24.796-24.796h-71.472v-234.824c0-10.407-8.466-18.874-18.873-18.874h-281.718c-10.407 0-18.874 8.467-18.874 18.874v54.98c0 4.142 3.358 7.5 7.5 7.5s7.5-3.358 7.5-7.5v-54.98c0-2.136 1.738-3.874 3.874-3.874h133.359v174.985h-137.232v-79.132c0-4.142-3.358-7.5-7.5-7.5s-7.5 3.358-7.5 7.5v142.845h-71.473c-13.672 0-24.795 11.124-24.795 24.796 0 10.259 8.346 18.606 18.605 18.606h1.546v153.08h-3.554c-9.151 0-16.597 7.446-16.597 16.598v26.798c0 9.152 7.446 16.598 16.598 16.598h385.902c4.142 0 7.5-3.358 7.5-7.5s-3.358-7.5-7.5-7.5h-385.902c-.881 0-1.598-.717-1.598-1.598v-26.798c0-.881.717-1.598 1.598-1.598h478.804c.881 0 1.598.717 1.598 1.598v26.798c0 .881-.717 1.598-1.598 1.598h-51.902c-4.142 0-7.5 3.358-7.5 7.5s3.358 7.5 7.5 7.5h51.902c9.152 0 16.598-7.446 16.598-16.598v-26.798c0-9.152-7.446-16.598-16.598-16.598zm-18.554 0h-61.116v-153.08h61.116zm-304.464-153.08v153.08h-61.116v-153.08zm15 0h61.116v153.08h-61.116zm76.116 0h61.116v153.08h-61.116zm76.116 0h61.116v153.08h-61.116zm61.116-43.402h-137.232v-48.713h137.232zm-137.232-238.698h133.359c2.136 0 3.873 1.738 3.873 3.874v171.112h-137.232zm-152.232 189.985h137.232v48.713h-137.232zm-96.268 73.509c0-5.401 4.394-9.796 9.795-9.796h462.409c5.401 0 9.796 4.395 9.796 9.796 0 1.988-1.618 3.606-3.606 3.606h-474.789c-1.988 0-3.605-1.617-3.605-3.606zm20.151 18.606h61.116v153.08h-61.116z"/></g><g/><g/><g/><g/><g/><g/><g/><g/><g/><g/><g/><g/><g/><g/><g/></svg>