<svg id="Capa_1" enable-background="new 0 0 512 512" viewBox="0 0 512 512" xmlns="http://www.w3.org/2000/svg"><g><g><g><path d="m428.958 504.5h-345.915c-8.621 0-15.609-6.989-15.609-15.609v-465.782c0-8.621 6.989-15.609 15.609-15.609h345.915c8.621 0 15.609 6.989 15.609 15.609v465.781c0 8.621-6.989 15.61-15.609 15.61z" fill="#f9f1f4"/></g><g><path d="m428.958 7.5h-30c8.621 0 15.609 6.988 15.609 15.609v465.781c0 8.621-6.989 15.609-15.609 15.609h30c8.621 0 15.609-6.988 15.609-15.609v-465.781c0-8.621-6.989-15.609-15.609-15.609z" fill="#ebe1e5"/></g><g><path d="m444.567 81.622v-58.513c0-8.621-6.989-15.609-15.609-15.609h-345.916c-8.621 0-15.609 6.988-15.609 15.609v58.512h377.134z" fill="#82e4ff"/></g><g><path d="m67.433 383.626v105.264c0 8.621 6.989 15.609 15.609 15.609h230.76l24.592-10 28.81 10h61.753c8.621 0 15.609-6.988 15.609-15.609v-105.264z" fill="#ff6472"/></g><g><path d="m428.958 7.5h-30c8.621 0 15.609 6.988 15.609 15.609v58.512h30v-58.512c0-8.621-6.989-15.609-15.609-15.609z" fill="#37ddff"/></g><g><path d="m414.567 383.626v40.575c0 27.779-22.519 50.298-50.298 50.298h-296.836v14.391c0 8.621 6.989 15.609 15.609 15.609h345.915c8.621 0 15.609-6.989 15.609-15.609v-105.264z" fill="#ff4255"/></g><g><circle cx="347.865" cy="387.091" fill="#ffe35e" r="47.683"/></g><g><path d="m208.092 160.635h-83.409c-5.097 0-9.23-4.132-9.23-9.23v-14.565c0-5.097 4.132-9.23 9.23-9.23h83.409z" fill="#b4eeff"/></g><g><path d="m209.68 127.611h92.639v33.024h-92.639z" fill="#37ddff"/></g><g><path d="m387.318 160.635h-83.409v-33.024h83.409c5.097 0 9.23 4.132 9.23 9.23v14.565c0 5.097-4.133 9.229-9.23 9.229z" fill="#b4eeff"/></g></g><g><path d="m428.958 0h-345.915c-12.743 0-23.11 10.367-23.11 23.109v465.781c0 12.743 10.367 23.11 23.11 23.11h237.542c4.142 0 7.5-3.357 7.5-7.5s-3.358-7.5-7.5-7.5h-237.542c-4.472 0-8.109-3.638-8.109-8.109v-97.764h217.912c2.076 28.548 25.95 51.146 55.02 51.146 29.069 0 52.943-22.598 55.019-51.146h34.183v97.764c0 4.472-3.638 8.109-8.109 8.109h-71.373c-4.142 0-7.5 3.357-7.5 7.5s3.358 7.5 7.5 7.5h71.373c12.742 0 23.109-10.367 23.109-23.109v-465.782c-.001-12.742-10.368-23.109-23.11-23.109zm-81.093 427.273c-22.157 0-40.183-18.025-40.183-40.183s18.026-40.183 40.183-40.183 40.183 18.025 40.183 40.183-18.026 40.183-40.183 40.183zm54.085-51.146c-5.099-25.193-27.411-44.219-54.085-44.219-26.675 0-48.986 19.025-54.086 44.219h-218.846v-353.018c0-4.472 3.638-8.109 8.109-8.109h345.915c4.471 0 8.109 3.638 8.109 8.109v51.012h-324.767c-4.142 0-7.5 3.357-7.5 7.5s3.358 7.5 7.5 7.5h324.768v287.006z"/><path d="m118.736 432.784h18.167c4.142 0 7.5-3.357 7.5-7.5s-3.358-7.5-7.5-7.5h-18.167c-4.142 0-7.5 3.357-7.5 7.5s3.358 7.5 7.5 7.5z"/><path d="m167.65 432.784h18.167c4.142 0 7.5-3.357 7.5-7.5s-3.358-7.5-7.5-7.5h-18.167c-4.142 0-7.5 3.357-7.5 7.5s3.358 7.5 7.5 7.5z"/><path d="m216.565 432.784h35.99c4.142 0 7.5-3.357 7.5-7.5s-3.358-7.5-7.5-7.5h-35.99c-4.142 0-7.5 3.357-7.5 7.5s3.358 7.5 7.5 7.5z"/><path d="m234.388 465.924h50.819c4.142 0 7.5-3.357 7.5-7.5s-3.358-7.5-7.5-7.5h-50.819c-4.142 0-7.5 3.357-7.5 7.5s3.358 7.5 7.5 7.5z"/><path d="m185.474 465.924h18.167c4.142 0 7.5-3.357 7.5-7.5s-3.358-7.5-7.5-7.5h-18.167c-4.142 0-7.5 3.357-7.5 7.5s3.358 7.5 7.5 7.5z"/><path d="m118.736 465.924h35.99c4.142 0 7.5-3.357 7.5-7.5s-3.358-7.5-7.5-7.5h-35.99c-4.142 0-7.5 3.357-7.5 7.5s3.358 7.5 7.5 7.5z"/><path d="m387.318 120.11h-262.636c-9.225 0-16.73 7.505-16.73 16.73v14.564c0 9.225 7.505 16.729 16.73 16.729h262.635c9.225 0 16.73-7.505 16.73-16.729v-14.564c.001-9.225-7.504-16.73-16.729-16.73zm-186.726 33.025h-75.909c-.954 0-1.73-.775-1.73-1.729v-14.564c0-.954.776-1.73 1.73-1.73h75.909zm94.228 0h-77.64v-18.025h77.639v18.025zm94.228-1.73c0 .954-.776 1.729-1.73 1.729h-75.909v-18.024h75.909c.954 0 1.73.776 1.73 1.73z"/><path d="m158.249 188.339h-26.907c-4.142 0-7.5 3.357-7.5 7.5s3.358 7.5 7.5 7.5h26.907c4.142 0 7.5-3.357 7.5-7.5s-3.358-7.5-7.5-7.5z"/><path d="m380.658 188.339h-26.907c-4.142 0-7.5 3.357-7.5 7.5s3.358 7.5 7.5 7.5h26.907c4.142 0 7.5-3.357 7.5-7.5s-3.357-7.5-7.5-7.5z"/><path d="m313.802 188.339h-120.092c-4.142 0-7.5 3.357-7.5 7.5s3.358 7.5 7.5 7.5h120.092c4.142 0 7.5-3.357 7.5-7.5s-3.357-7.5-7.5-7.5z"/><path d="m158.249 223.543h-26.907c-4.142 0-7.5 3.357-7.5 7.5s3.358 7.5 7.5 7.5h26.907c4.142 0 7.5-3.357 7.5-7.5s-3.358-7.5-7.5-7.5z"/><path d="m380.658 223.543h-26.907c-4.142 0-7.5 3.357-7.5 7.5s3.358 7.5 7.5 7.5h26.907c4.142 0 7.5-3.357 7.5-7.5s-3.357-7.5-7.5-7.5z"/><path d="m313.802 223.543h-120.092c-4.142 0-7.5 3.357-7.5 7.5s3.358 7.5 7.5 7.5h120.092c4.142 0 7.5-3.357 7.5-7.5s-3.357-7.5-7.5-7.5z"/><path d="m158.249 258.747h-26.907c-4.142 0-7.5 3.357-7.5 7.5s3.358 7.5 7.5 7.5h26.907c4.142 0 7.5-3.357 7.5-7.5s-3.358-7.5-7.5-7.5z"/><path d="m380.658 258.747h-26.907c-4.142 0-7.5 3.357-7.5 7.5s3.358 7.5 7.5 7.5h26.907c4.142 0 7.5-3.357 7.5-7.5s-3.357-7.5-7.5-7.5z"/><path d="m313.802 258.747h-120.092c-4.142 0-7.5 3.357-7.5 7.5s3.358 7.5 7.5 7.5h120.092c4.142 0 7.5-3.357 7.5-7.5s-3.357-7.5-7.5-7.5z"/><path d="m158.249 293.951h-26.907c-4.142 0-7.5 3.357-7.5 7.5s3.358 7.5 7.5 7.5h26.907c4.142 0 7.5-3.357 7.5-7.5s-3.358-7.5-7.5-7.5z"/><path d="m380.658 293.951h-26.907c-4.142 0-7.5 3.357-7.5 7.5s3.358 7.5 7.5 7.5h26.907c4.142 0 7.5-3.357 7.5-7.5s-3.357-7.5-7.5-7.5z"/><path d="m313.802 293.951h-120.092c-4.142 0-7.5 3.357-7.5 7.5s3.358 7.5 7.5 7.5h120.092c4.142 0 7.5-3.357 7.5-7.5s-3.357-7.5-7.5-7.5z"/><path d="m114.679 52.061h30.223c4.142 0 7.5-3.357 7.5-7.5s-3.358-7.5-7.5-7.5h-30.223c-4.142 0-7.5 3.357-7.5 7.5s3.358 7.5 7.5 7.5z"/><path d="m352.093 52.061h56.876c4.142 0 7.5-3.357 7.5-7.5s-3.358-7.5-7.5-7.5h-56.876c-4.142 0-7.5 3.357-7.5 7.5s3.358 7.5 7.5 7.5z"/><path d="m176.733 52.061h72.951c4.142 0 7.5-3.357 7.5-7.5s-3.358-7.5-7.5-7.5h-72.951c-4.142 0-7.5 3.357-7.5 7.5s3.358 7.5 7.5 7.5z"/></g></g><g/><g/><g/><g/><g/><g/><g/><g/><g/><g/><g/><g/><g/><g/><g/></svg>