<svg id="Capa_1" enable-background="new 0 0 512 512" viewBox="0 0 512 512" xmlns="http://www.w3.org/2000/svg"><g><g><g><path d="m324.959 243.702h-252.247c-5.555 0-10.058-4.503-10.058-10.058v-29.788c0-5.555 4.503-10.058 10.058-10.058h252.246c5.555 0 10.058 4.503 10.058 10.058v29.788c0 5.555-4.503 10.058-10.057 10.058z" fill="#ffae60"/></g><g><path d="m316.176 243.702h-234.681l33.398 251.607c.698 5.26 5.184 9.19 10.491 9.19h146.902c5.307 0 9.793-3.93 10.491-9.19z" fill="#00da9f"/></g><g><path d="m265.364 474.5h-153.233l2.762 20.81c.698 5.26 5.184 9.19 10.491 9.19h147.967z" fill="#00c7a4"/></g><g><path d="m277.417 141.317h-157.163c-5.994 0-11.396 3.614-13.683 9.154l-17.886 43.327h220.3l-17.885-43.327c-2.287-5.54-7.689-9.154-13.683-9.154z" fill="#ffe7c1"/></g><g><circle cx="206.657" cy="382.226" fill="#f9f1f4" r="65.733"/></g><g><path d="m439.288 285.551h-208.543c-5.555 0-10.058-4.503-10.058-10.058v-21.78c0-5.555 4.503-10.058 10.058-10.058h208.543c5.555 0 10.058 4.503 10.058 10.058v21.78c0 5.555-4.503 10.058-10.058 10.058z" fill="#ebe1e5"/></g><g><path d="m433.528 285.551h-197.023l28.039 211.234c.586 4.416 4.352 7.716 8.807 7.716h123.33c4.455 0 8.221-3.299 8.807-7.716l15.206-114.559-6.677-25.033 13.521-26.525z" fill="#ac8597"/></g><g><path d="m439.288 243.655h-30c5.555 0 10.058 4.503 10.058 10.058v21.78c0 5.555-4.503 10.058-10.058 10.058h30c5.555 0 10.058-4.503 10.058-10.058v-21.78c0-5.555-4.503-10.058-10.058-10.058z" fill="#dac8d1"/></g><g><path d="m399.546 285.551-24.057 181.234c-.586 4.416-4.352 7.716-8.807 7.716h-105.096l2.958 22.284c.586 4.416 4.352 7.716 8.807 7.716h123.33c4.455 0 8.221-3.299 8.807-7.716l28.039-211.234z" fill="#916e7d"/></g><g><path d="m372.892 435.639h-31.727c-4.543 0-8.226-3.683-8.226-8.226v-31.727c0-4.543 3.683-8.226 8.226-8.226h31.727c4.543 0 8.226 3.683 8.226 8.226v31.727c0 4.543-3.683 8.226-8.226 8.226z" fill="#f9f1f4"/></g><g><path d="m227.489 7.542c-8.29-.395-15.993 2.041-22.233 6.422-3.007 2.111-7.047 2.111-10.053 0-6.577-4.618-14.78-7.075-23.583-6.332-17.502 1.476-31.472 15.797-32.55 33.328-.791 12.857 5.225 24.361 14.787 31.252 4.545 3.276 29.864 22.306 41.054 30.724 3.157 2.375 7.493 2.384 10.661.024 11.389-8.486 37.406-27.89 42.107-31.554 8.764-6.83 14.26-17.657 13.748-29.742-.778-18.322-15.622-33.249-33.938-34.122z" fill="#ff6472"/></g></g><g><path d="m361.282 187.677c0 4.142 3.358 7.5 7.5 7.5s7.5-3.358 7.5-7.5c0-3.117.689-4.318 1.939-6.499 1.657-2.89 3.927-6.848 3.927-13.96 0-7.113-2.27-11.071-3.927-13.962-1.25-2.181-1.939-3.382-1.939-6.5s.689-4.319 1.939-6.5c1.657-2.89 3.927-6.849 3.927-13.962 0-4.142-3.358-7.5-7.5-7.5s-7.5 3.358-7.5 7.5c0 3.118-.689 4.319-1.939 6.5-1.657 2.89-3.927 6.849-3.927 13.962s2.27 11.072 3.927 13.962c1.25 2.181 1.939 3.382 1.939 6.5 0 3.117-.689 4.318-1.939 6.498-1.657 2.89-3.927 6.848-3.927 13.961z"/><path d="m399.34 187.54c0 4.142 3.358 7.5 7.5 7.5s7.5-3.358 7.5-7.5c0-3.117.689-4.318 1.939-6.499 1.657-2.89 3.927-6.848 3.927-13.96 0-7.113-2.27-11.071-3.927-13.961-1.25-2.181-1.939-3.383-1.939-6.5 0-3.118.689-4.32 1.939-6.501 1.657-2.89 3.927-6.849 3.927-13.961 0-4.142-3.358-7.5-7.5-7.5s-7.5 3.358-7.5 7.5c0 3.118-.689 4.319-1.939 6.5-1.657 2.89-3.927 6.849-3.927 13.962s2.27 11.071 3.927 13.961c1.25 2.181 1.939 3.383 1.939 6.5s-.689 4.318-1.939 6.499c-1.657 2.889-3.927 6.847-3.927 13.96z"/><path d="m439.288 236.155h-96.972c.119-.822.201-32.298.201-32.298 0-9.681-7.876-17.558-17.558-17.558h-10.956l-15.971-38.689c-3.459-8.379-11.551-13.792-20.615-13.792h-157.163c-9.064 0-17.156 5.414-20.615 13.792l-15.971 38.689h-10.956c-9.681 0-17.558 7.876-17.558 17.558v29.788c0 9.682 7.876 17.558 17.558 17.558h140.676c-.118.822-.201 1.656-.201 2.51v21.78c0 9.406 7.441 17.086 16.742 17.517l2.755 20.755c-8.271-3.139-17.097-4.772-26.027-4.772-40.381 0-73.233 32.853-73.233 73.233s32.853 73.233 73.233 73.233c15.701 0 30.576-4.895 42.985-13.942l7.365 55.483h-131.622c-1.54 0-2.854-1.151-3.056-2.677l-27.802-209.446c-.545-4.106-4.311-6.995-8.421-6.448-4.106.545-6.993 4.315-6.448 8.421l27.802 209.446c1.188 8.953 8.895 15.704 17.925 15.704h271.297c8.183 0 15.165-6.117 16.242-14.229l16.285-122.683c.545-4.106-2.342-7.876-6.448-8.421-4.111-.552-7.876 2.342-8.421 6.448l-16.285 122.683c-.091.686-.682 1.203-1.373 1.203h-123.33c-.691 0-1.281-.517-1.373-1.203l-26.912-202.747h104.462v86.91h-8.363c-8.671 0-15.726 7.055-15.726 15.726v31.727c0 8.671 7.055 15.726 15.726 15.726h31.727c8.671 0 15.726-7.055 15.726-15.726v-31.727c0-8.671-7.055-15.726-15.726-15.726h-8.364v-86.91h60.438l-5.644 42.521c-.545 4.106 2.341 7.876 6.448 8.421 4.104.551 7.876-2.342 8.421-6.448l5.912-44.535c9.301-.431 16.742-8.111 16.742-17.517v-21.78c-.001-9.682-7.877-17.558-17.558-17.558zm-65.67 159.531v31.727c0 .4-.326.726-.726.726h-31.727c-.4 0-.726-.326-.726-.726v-31.727c0-.4.326-.726.726-.726h31.727c.4 0 .726.326.726.726zm-260.114-242.353c1.132-2.743 3.782-4.516 6.75-4.516h157.164c2.968 0 5.618 1.773 6.75 4.516l13.608 32.966h-197.88zm-43.349 80.312v-29.788c0-1.41 1.147-2.558 2.558-2.558h252.247c1.41 0 2.558 1.147 2.558 2.558v29.788c0 1.249-.9 2.287-2.084 2.51l-252.72.048c-1.412 0-2.559-1.148-2.559-2.558zm136.502 206.814c-32.11 0-58.233-26.124-58.233-58.233s26.124-58.233 58.233-58.233c9.952 0 19.736 2.55 28.363 7.37l12.284 92.54c-10.935 10.68-25.296 16.556-40.647 16.556zm235.188-164.966c0 1.411-1.147 2.558-2.558 2.558h-208.542c-1.411 0-2.558-1.147-2.558-2.558v-21.78c0-1.248.9-2.287 2.085-2.51l209.016-.048c1.41 0 2.558 1.147 2.558 2.558v21.78z"/><path d="m195.229 379.404 20.608-20.607c2.929-2.929 2.929-7.678 0-10.606-2.929-2.93-7.678-2.929-10.606 0l-20.608 20.607c-2.929 2.929-2.929 7.678 0 10.606 1.464 1.465 3.384 2.197 5.303 2.197 1.918 0 3.838-.732 5.303-2.197z"/><path d="m222.264 382.157c-2.929-2.929-7.678-2.929-10.606 0l-20.607 20.607c-2.929 2.929-2.929 7.678 0 10.606 1.464 1.464 3.384 2.197 5.303 2.197s3.839-.732 5.303-2.197l20.607-20.607c2.93-2.928 2.93-7.677 0-10.606z"/><path d="m149.471 78.295c4.521 3.258 30.13 22.508 40.931 30.633 2.898 2.18 6.376 3.27 9.855 3.27 3.454 0 6.908-1.075 9.795-3.226 13.807-10.289 37.653-28.082 42.235-31.652 11.005-8.576 17.223-22.025 16.631-35.976-.936-22.102-18.978-40.241-41.073-41.294-9.688-.456-18.997 2.227-26.898 7.775-.422.297-1.012.297-1.435 0-8.259-5.799-18.387-8.518-28.522-7.668-21.161 1.784-38.102 19.127-39.406 40.341-.918 14.934 5.768 29.064 17.887 37.797zm-2.916-36.876c.851-13.839 11.897-25.152 25.694-26.315.837-.071 1.668-.106 2.495-.106 5.824 0 11.363 1.743 16.149 5.104 5.584 3.92 13.088 3.919 18.672 0 5.152-3.618 11.219-5.378 17.566-5.068 14.417.687 26.189 12.523 26.801 26.947.386 9.118-3.675 17.906-10.865 23.509-4.638 3.615-30.901 23.203-41.978 31.456-.5.373-1.172.372-1.671-.003-10.838-8.153-36.545-27.476-41.178-30.815-7.917-5.708-12.285-14.944-11.685-24.709z"/></g></g><g/><g/><g/><g/><g/><g/><g/><g/><g/><g/><g/><g/><g/><g/><g/></svg>