<svg id="Capa_1" enable-background="new 0 0 512 512" viewBox="0 0 512 512" xmlns="http://www.w3.org/2000/svg"><g><g><g><path d="m55.696 146.051h400.608v299.669h-400.608z" fill="#7a5d6a"/></g><g><path d="m426.304 146.051v212.939c0 31.331-25.399 56.73-56.73 56.73h-313.878v30h400.608v-299.669z" fill="#5f4a55"/></g><g><path d="m466.335 146.051h-420.67c-5.251 0-9.508-4.257-9.508-9.508v-34.298c0-5.251 4.257-9.508 9.508-9.508h420.669c5.251 0 9.508 4.257 9.508 9.508v34.298c.001 5.251-4.256 9.508-9.507 9.508z" fill="#ebe1e5"/></g><g><path d="m466.335 504.5h-420.67c-5.251 0-9.508-4.257-9.508-9.508v-39.312c0-5.251 4.257-9.508 9.508-9.508h420.669c5.251 0 9.508 4.257 9.508 9.508v39.312c.001 5.251-4.256 9.508-9.507 9.508z" fill="#ebe1e5"/></g><g><path d="m466.335 92.737h-30c5.251 0 9.508 4.257 9.508 9.508v34.298c0 5.251-4.257 9.508-9.508 9.508h30c5.251 0 9.508-4.257 9.508-9.508v-34.298c0-5.251-4.257-9.508-9.508-9.508z" fill="#dac8d1"/></g><g><path d="m466.335 446.172h-30c5.251 0 9.508 4.257 9.508 9.508v39.312c0 5.251-4.257 9.508-9.508 9.508h30c5.251 0 9.508-4.257 9.508-9.508v-39.312c0-5.251-4.257-9.508-9.508-9.508z" fill="#dac8d1"/></g><g><path d="m314.768 194.612 11.175-10.676c2.258-2.157 3.535-5.144 3.535-8.267v-82.932h-146.957v82.932c0 3.123 1.277 6.11 3.535 8.267l11.175 10.676c2.127 2.032 4.956 3.166 7.897 3.166h101.742c2.943 0 5.771-1.134 7.898-3.166z" fill="#c6b2bc"/></g><g><path d="m222.313 230.625h-.083c-8.235 0-14.911-6.676-14.911-14.911v-17.937h29.905v17.937c0 8.235-6.676 14.911-14.911 14.911z" fill="#f9f1f4"/></g><g><path d="m289.77 230.625h-.083c-8.235 0-14.911-6.676-14.911-14.911v-17.937h29.905v17.937c0 8.235-6.676 14.911-14.911 14.911z" fill="#f9f1f4"/></g><g><path d="m301.617 445.72h-88.455c-18.178 0-32.915-14.736-32.915-32.915v-130.891c0-7.283 5.904-13.187 13.187-13.187h127.909c7.283 0 13.187 5.904 13.187 13.187v130.891c.001 18.178-14.735 32.915-32.913 32.915z" fill="#ffe35e"/></g><g><path d="m456.304 92.737h-400.608v-65.659c0-10.813 8.765-19.578 19.578-19.578h361.452c10.813 0 19.578 8.765 19.578 19.578z" fill="#ac8597"/></g><g><path d="m436.726 7.5h-30c10.813 0 19.578 8.765 19.578 19.578v65.659h30v-65.659c0-10.813-8.765-19.578-19.578-19.578z" fill="#916e7d"/></g><g><path d="m172.499 65.619h-37.057c-8.329 0-15.081-6.752-15.081-15.081 0-8.329 6.752-15.081 15.081-15.081h37.057c8.329 0 15.081 6.752 15.081 15.081 0 8.329-6.752 15.081-15.081 15.081z" fill="#ffe35e"/></g><g><path d="m180.247 322.953h154.284v51.214h-154.284z" fill="#00cdff"/></g></g><g><path d="m466.335 153.551c9.378 0 17.008-7.63 17.008-17.008v-34.298c0-9.378-7.63-17.008-17.008-17.008h-2.531v-58.159c0-14.931-12.147-27.078-27.078-27.078h-296.816c-4.142 0-7.5 3.358-7.5 7.5s3.358 7.5 7.5 7.5h296.816c6.66 0 12.078 5.418 12.078 12.078v58.159h-385.608v-58.159c0-6.66 5.418-12.078 12.078-12.078h28.636c4.142 0 7.5-3.358 7.5-7.5s-3.358-7.5-7.5-7.5h-28.636c-14.931 0-27.078 12.147-27.078 27.078v58.159h-2.531c-9.378 0-17.008 7.63-17.008 17.008v34.298c0 9.378 7.63 17.008 17.008 17.008h2.531v285.121h-2.531c-9.378 0-17.008 7.63-17.008 17.008v39.312c0 9.378 7.63 17.008 17.008 17.008h280.875c4.142 0 7.5-3.358 7.5-7.5s-3.358-7.5-7.5-7.5h-280.875c-1.107 0-2.008-.901-2.008-2.008v-39.312c0-1.107.901-2.008 2.008-2.008h420.669c1.107 0 2.008.901 2.008 2.008v39.312c0 1.107-.901 2.008-2.008 2.008h-102.794c-4.142 0-7.5 3.358-7.5 7.5s3.358 7.5 7.5 7.5h102.795c9.378 0 17.008-7.63 17.008-17.008v-39.312c0-9.378-7.63-17.008-17.008-17.008h-2.531v-285.121zm0-53.314c1.107 0 2.008.901 2.008 2.008v34.298c0 1.107-.901 2.008-2.008 2.008h-129.356v-38.314zm-184.058 105.04h14.904v10.437c0 4.086-3.324 7.411-7.411 7.411h-.083c-4.086 0-7.411-3.325-7.411-7.411v-10.437zm27.312-16.089c-.736.703-1.701 1.089-2.718 1.089h-101.742c-1.017 0-1.982-.387-2.717-1.088l-11.175-10.676c-.773-.738-1.216-1.774-1.216-2.843v-75.432h131.958v75.432c0 1.069-.443 2.105-1.216 2.844zm-94.77 16.089h14.904v10.437c0 4.086-3.324 7.411-7.411 7.411h-.083c-4.086 0-7.411-3.325-7.411-7.411v-10.437zm-171.162-68.734v-34.298c0-1.107.901-2.008 2.008-2.008h129.356v38.314h-129.356c-1.107 0-2.008-.901-2.008-2.008zm310.213 155.492c15.537 0 28.178 12.641 28.178 28.178v59.458c0 15.537-12.641 28.178-28.178 28.178h-11.838v-33.681-51.214-30.918h11.838zm-26.839 74.632h-139.284v-36.214h139.284zm0-51.214h-139.284v-33.54c0-3.136 2.551-5.687 5.688-5.687h127.909c3.136 0 5.688 2.551 5.688 5.687v33.54zm-139.284 66.214h139.284v31.138c0 14.014-11.401 25.415-25.415 25.415h-88.455c-14.014 0-25.415-11.401-25.415-25.415v-31.138zm261.057-158.542h-16.565c-4.142 0-7.5 3.358-7.5 7.5s3.358 7.5 7.5 7.5h16.565v28.541h-16.565c-4.142 0-7.5 3.358-7.5 7.5s3.358 7.5 7.5 7.5h16.565v28.54h-16.565c-4.142 0-7.5 3.358-7.5 7.5s3.358 7.5 7.5 7.5h16.565v28.541h-16.565c-4.142 0-7.5 3.358-7.5 7.5s3.358 7.5 7.5 7.5h16.565v69.926h-116.164c3.793-4.542 6.613-9.923 8.127-15.824h13.102c23.808 0 43.178-19.37 43.178-43.178v-59.458c0-23.808-19.37-43.178-43.178-43.178h-12.444c-2.202-9.056-10.358-15.808-20.082-15.808h-127.908c-11.407 0-20.688 9.28-20.688 20.687v41.04 51.214 38.638c0 9.832 3.533 18.852 9.391 25.867h-118.942v-69.926h16.565c4.142 0 7.5-3.358 7.5-7.5s-3.358-7.5-7.5-7.5h-16.565v-28.541h16.565c4.142 0 7.5-3.358 7.5-7.5s-3.358-7.5-7.5-7.5h-16.565v-28.54h16.565c4.142 0 7.5-3.358 7.5-7.5s-3.358-7.5-7.5-7.5h-16.565v-28.541h16.565c4.142 0 7.5-3.358 7.5-7.5s-3.358-7.5-7.5-7.5h-16.565v-69.574h111.825v22.118c0 5.146 2.134 10.135 5.855 13.689l11.175 10.676c2.224 2.124 4.884 3.646 7.768 4.486v11.193c0 12.357 10.053 22.411 22.411 22.411h.083c12.357 0 22.411-10.054 22.411-22.411v-10.437h22.553v10.437c0 12.357 10.053 22.411 22.411 22.411h.083c12.357 0 22.411-10.054 22.411-22.411v-11.193c2.884-.84 5.544-2.362 7.768-4.486l11.175-10.675c3.721-3.555 5.855-8.544 5.855-13.69v-22.118h111.825v69.574z"/><path d="m135.443 73.119h37.057c12.451 0 22.581-10.129 22.581-22.581s-10.129-22.581-22.581-22.581h-37.057c-12.451 0-22.581 10.129-22.581 22.581s10.129 22.581 22.581 22.581zm0-30.161h37.057c4.18 0 7.581 3.4 7.581 7.581s-3.401 7.581-7.581 7.581h-37.057c-4.18 0-7.581-3.4-7.581-7.581s3.4-7.581 7.581-7.581z"/><path d="m227.998 42.958h13.619c4.142 0 7.5-3.358 7.5-7.5s-3.358-7.5-7.5-7.5h-13.619c-4.142 0-7.5 3.358-7.5 7.5s3.358 7.5 7.5 7.5z"/><path d="m227.998 69.604h13.619c4.142 0 7.5-3.358 7.5-7.5s-3.358-7.5-7.5-7.5h-13.619c-4.142 0-7.5 3.358-7.5 7.5s3.358 7.5 7.5 7.5z"/><path d="m278.521 42.958h13.62c4.142 0 7.5-3.358 7.5-7.5s-3.358-7.5-7.5-7.5h-13.62c-4.142 0-7.5 3.358-7.5 7.5s3.358 7.5 7.5 7.5z"/><path d="m278.521 69.604h13.62c4.142 0 7.5-3.358 7.5-7.5s-3.358-7.5-7.5-7.5h-13.62c-4.142 0-7.5 3.358-7.5 7.5s3.358 7.5 7.5 7.5z"/><path d="m329.045 42.958h13.619c4.142 0 7.5-3.358 7.5-7.5s-3.358-7.5-7.5-7.5h-13.619c-4.142 0-7.5 3.358-7.5 7.5s3.358 7.5 7.5 7.5z"/><path d="m329.045 69.604h13.619c4.142 0 7.5-3.358 7.5-7.5s-3.358-7.5-7.5-7.5h-13.619c-4.142 0-7.5 3.358-7.5 7.5s3.358 7.5 7.5 7.5z"/><path d="m379.568 42.958h13.62c4.142 0 7.5-3.358 7.5-7.5s-3.358-7.5-7.5-7.5h-13.62c-4.142 0-7.5 3.358-7.5 7.5s3.358 7.5 7.5 7.5z"/><path d="m379.568 69.604h13.62c4.142 0 7.5-3.358 7.5-7.5s-3.358-7.5-7.5-7.5h-13.62c-4.142 0-7.5 3.358-7.5 7.5s3.358 7.5 7.5 7.5z"/></g></g><g/><g/><g/><g/><g/><g/><g/><g/><g/><g/><g/><g/><g/><g/><g/></svg>