<svg id="Capa_1" enable-background="new 0 0 512 512" viewBox="0 0 512 512" xmlns="http://www.w3.org/2000/svg"><g><g><g><path d="m420.124 504.5h-328.249c-12.535 0-22.696-10.161-22.696-22.696v-328.249c0-12.535 10.161-22.696 22.696-22.696h328.249c12.535 0 22.696 10.161 22.696 22.696v233.559l-10 21.432 10 73.258c0 12.535-10.161 22.696-22.696 22.696z" fill="#ffe7c1"/></g><g><path d="m420.124 130.859h-7.304v320.945c0 12.535-10.161 22.696-22.696 22.696h-320.945v7.304c0 12.535 10.161 22.696 22.696 22.696h328.249c12.534 0 22.696-10.161 22.696-22.696v-328.249c0-12.534-10.161-22.696-22.696-22.696z" fill="#ffd5a1"/></g><g><path d="m283.164 408.546h-54.329c-4.573 0-8.279 3.707-8.279 8.28v87.674h70.888v-87.674c0-4.573-3.707-8.28-8.28-8.28z" fill="#ffae60"/></g><g><path d="m220.556 474.5h70.888v30h-70.888z" fill="#ff8e46"/></g><g><path d="m369.803 130.859h-227.607c-10.574 0-19.145-8.572-19.145-19.145v-85.069c0-10.573 8.572-19.145 19.145-19.145h227.607c10.573 0 19.145 8.572 19.145 19.145v85.069c0 10.574-8.571 19.145-19.145 19.145z" fill="#ffc17f"/></g><g><path d="m369.803 7.5h-10.855v74.214c0 10.574-8.572 19.145-19.145 19.145h-216.752v10.855c0 10.574 8.572 19.145 19.145 19.145h227.607c10.573 0 19.145-8.571 19.145-19.145v-85.069c0-10.574-8.571-19.145-19.145-19.145z" fill="#ffae60"/></g><g><path d="m283.164 226.813h-54.329c-4.573 0-8.279-3.707-8.279-8.28v-87.674h70.888v87.674c0 4.573-3.707 8.28-8.28 8.28z" fill="#ffae60"/></g><g><path d="m361.628 352.809h-88.941c-7.79 0-14.106-6.315-14.106-14.106v-42.046c0-7.79 6.315-14.106 14.106-14.106h88.941c7.79 0 14.106 6.315 14.106 14.106v42.046c0 7.79-6.316 14.106-14.106 14.106z" fill="#00cdff"/></g><g><path d="m270.573 69.18h-29.146c-5.899 0-10.682-4.782-10.682-10.682v-50.904h50.509v50.904c0 5.899-4.782 10.682-10.681 10.682z" fill="#ff8e46"/></g></g><g><path d="m442.82 420.412c-4.143 0-7.5 3.357-7.5 7.5v53.892c0 8.379-6.817 15.196-15.196 15.196h-121.18v-80.174c0-8.701-7.079-15.78-15.78-15.78h-54.329c-8.701 0-15.779 7.079-15.779 15.78v80.174h-121.181c-8.379 0-15.195-6.817-15.195-15.196v-283.602c0-4.143-3.357-7.5-7.5-7.5s-7.5 3.357-7.5 7.5v283.602c0 16.65 13.546 30.196 30.195 30.196h328.249c16.65 0 30.196-13.546 30.196-30.196v-53.892c0-4.142-3.357-7.5-7.5-7.5zm-214.764 76.588v-80.174c0-.431.35-.78.779-.78h54.329c.431 0 .78.35.78.78v80.174z"/><path d="m420.124 123.359h-26.361c1.718-3.521 2.685-7.472 2.685-11.646v-85.067c0-14.693-11.953-26.646-26.645-26.646h-227.607c-14.691 0-26.645 11.953-26.645 26.646v85.068c0 4.174.967 8.125 2.685 11.646h-26.361c-16.649 0-30.195 13.546-30.195 30.195v8.647c0 4.143 3.357 7.5 7.5 7.5s7.5-3.357 7.5-7.5v-8.647c0-8.379 6.816-15.195 15.195-15.195h121.181v80.174c0 8.701 7.078 15.779 15.779 15.779h54.329c8.701 0 15.78-7.078 15.78-15.779v-80.174h121.18c8.379 0 15.196 6.816 15.196 15.195v238.357c0 4.143 3.357 7.5 7.5 7.5s7.5-3.357 7.5-7.5v-238.357c0-16.65-13.546-30.196-30.196-30.196zm-146.37-108.264v43.403c0 1.754-1.428 3.182-3.182 3.182h-29.146c-1.754 0-3.182-1.428-3.182-3.182v-43.403zm10.19 203.438c0 .43-.35.779-.78.779h-54.329c-.43 0-.779-.35-.779-.779v-80.174h55.889v80.174zm-141.748-95.174c-6.421 0-11.645-5.225-11.645-11.646v-85.067c0-6.421 5.224-11.646 11.645-11.646h81.049v43.498c0 10.025 8.156 18.182 18.182 18.182h29.146c10.025 0 18.182-8.156 18.182-18.182v-43.498h81.049c6.421 0 11.646 5.225 11.646 11.646v85.068c0 6.421-5.225 11.646-11.646 11.646h-227.608z"/><path d="m136.266 307.945h74.192c4.143 0 7.5-3.357 7.5-7.5s-3.357-7.5-7.5-7.5h-74.192c-4.143 0-7.5 3.357-7.5 7.5s3.357 7.5 7.5 7.5z"/><path d="m136.266 342.414h74.192c4.143 0 7.5-3.357 7.5-7.5s-3.357-7.5-7.5-7.5h-74.192c-4.143 0-7.5 3.357-7.5 7.5s3.357 7.5 7.5 7.5z"/><path d="m361.628 360.309c11.913 0 21.605-9.692 21.605-21.605v-42.047c0-11.913-9.692-21.605-21.605-21.605h-88.941c-11.913 0-21.605 9.692-21.605 21.605v42.047c0 11.913 9.692 21.605 21.605 21.605zm-95.547-21.606v-42.047c0-3.643 2.963-6.605 6.605-6.605h88.941c3.643 0 6.605 2.963 6.605 6.605v42.047c0 3.643-2.963 6.605-6.605 6.605h-88.941c-3.642.001-6.605-2.962-6.605-6.605z"/><path d="m300.928 325.18h32.459c4.143 0 7.5-3.357 7.5-7.5s-3.357-7.5-7.5-7.5h-32.459c-4.143 0-7.5 3.357-7.5 7.5s3.357 7.5 7.5 7.5z"/><path d="m345.531 49.977h-24.289c-4.143 0-7.5 3.357-7.5 7.5s3.357 7.5 7.5 7.5h24.289c4.143 0 7.5-3.357 7.5-7.5s-3.357-7.5-7.5-7.5z"/><path d="m345.531 79.538h-24.289c-4.143 0-7.5 3.357-7.5 7.5s3.357 7.5 7.5 7.5h24.289c4.143 0 7.5-3.357 7.5-7.5s-3.357-7.5-7.5-7.5z"/><path d="m190.757 49.977h-24.289c-4.143 0-7.5 3.357-7.5 7.5s3.357 7.5 7.5 7.5h24.289c4.143 0 7.5-3.357 7.5-7.5s-3.358-7.5-7.5-7.5z"/><path d="m190.757 79.538h-24.289c-4.143 0-7.5 3.357-7.5 7.5s3.357 7.5 7.5 7.5h24.289c4.143 0 7.5-3.357 7.5-7.5s-3.358-7.5-7.5-7.5z"/><path d="m130.962 448.19 19.528 19.528c1.465 1.464 3.384 2.196 5.304 2.196 1.919 0 3.839-.732 5.303-2.196l19.529-19.528c2.93-2.929 2.93-7.678.001-10.606-2.93-2.929-7.679-2.93-10.606-.001l-14.227 14.226-14.225-14.226c-2.93-2.928-7.678-2.928-10.607 0-2.929 2.93-2.929 7.678 0 10.607z"/><path d="m130.962 404.086 19.528 19.528c1.465 1.464 3.384 2.196 5.304 2.196 1.919 0 3.839-.732 5.303-2.196l19.529-19.528c2.93-2.929 2.93-7.678.001-10.606-2.93-2.93-7.679-2.929-10.606-.001l-14.227 14.226-14.225-14.226c-2.93-2.928-7.678-2.928-10.607 0-2.929 2.929-2.929 7.677 0 10.607z"/></g></g><g/><g/><g/><g/><g/><g/><g/><g/><g/><g/><g/><g/><g/><g/><g/></svg>