<svg id="Capa_1" enable-background="new 0 0 512 512" viewBox="0 0 512 512" xmlns="http://www.w3.org/2000/svg"><g><g><g><g><path d="m465.186 407.057h-418.372c-21.713 0-39.314-17.601-39.314-39.314v-279.825c0-21.713 17.601-39.314 39.314-39.314h418.372c21.712 0 39.314 17.601 39.314 39.314v279.825c0 21.713-17.602 39.314-39.314 39.314z" fill="#f9f1f4"/></g><g><path d="m465.186 48.604h-30c21.713 0 39.314 17.602 39.314 39.314v279.825c0 21.713-17.601 39.314-39.314 39.314h30c21.713 0 39.314-17.601 39.314-39.314v-279.825c0-21.712-17.602-39.314-39.314-39.314z" fill="#ebe1e5"/></g></g><g><path d="m451.044 340.713h-390.088v-221.938c0-11.335 9.189-20.524 20.524-20.524h349.039c11.335 0 20.524 9.189 20.524 20.524v221.938z" fill="#b4eeff"/></g><g><path d="m7.5 340.713v27.031c0 21.713 17.602 39.314 39.314 39.314h418.372c21.713 0 39.314-17.601 39.314-39.314v-27.031z" fill="#00919e"/></g><g><path d="m474.377 340.713c-1.519 20.324-18.478 36.345-39.191 36.345h-418.372c-2.886 0-5.695-.32-8.404-.91 3.85 17.673 19.577 30.91 38.404 30.91h418.372c21.713 0 39.314-17.601 39.314-39.314v-27.031z" fill="#007c88"/></g><g><path d="m191.772 407.057h128.457v56.338h-128.457z" fill="#97e7ea"/></g><g><path d="m151.817 209.095h-34.527c-8.284 0-15-6.716-15-15v-34.527c0-8.284 6.716-15 15-15h34.527c8.284 0 15 6.716 15 15v34.527c0 8.284-6.716 15-15 15z" fill="#0097ff"/></g><g><path d="m151.817 305.797h-34.527c-8.284 0-15-6.716-15-15v-34.527c0-8.284 6.716-15 15-15h34.527c8.284 0 15 6.716 15 15v34.527c0 8.284-6.716 15-15 15z" fill="#ff838c"/></g><g><path d="m394.71 297.797h-34.527c-8.284 0-15-6.716-15-15v-123.229c0-8.284 6.716-15 15-15h34.527c8.284 0 15 6.716 15 15v123.228c0 8.285-6.716 15.001-15 15.001z" fill="#ffd42b"/></g><g><path d="m297.783 258.134h-83.566c-8.284 0-15-6.716-15-15v-83.566c0-8.284 6.716-15 15-15h83.566c8.284 0 15 6.716 15 15v83.566c0 8.284-6.716 15-15 15z" fill="#00da9f"/></g></g><g><path d="m151.817 233.77h-34.527c-12.407 0-22.5 10.094-22.5 22.5v34.527c0 12.406 10.093 22.5 22.5 22.5h34.527c12.407 0 22.5-10.094 22.5-22.5v-34.527c0-12.407-10.093-22.5-22.5-22.5zm7.5 57.027c0 4.135-3.364 7.5-7.5 7.5h-34.527c-4.136 0-7.5-3.365-7.5-7.5v-34.527c0-4.135 3.364-7.5 7.5-7.5h34.527c4.136 0 7.5 3.365 7.5 7.5z"/><path d="m394.709 137.068h-34.527c-12.407 0-22.5 10.094-22.5 22.5v123.229c0 12.406 10.093 22.5 22.5 22.5h34.527c12.407 0 22.5-10.094 22.5-22.5v-123.229c0-12.406-10.093-22.5-22.5-22.5zm7.5 145.729c0 4.135-3.364 7.5-7.5 7.5h-34.527c-4.136 0-7.5-3.365-7.5-7.5v-123.229c0-4.135 3.364-7.5 7.5-7.5h34.527c4.136 0 7.5 3.365 7.5 7.5z"/><path d="m465.186 41.104h-347.014c-4.142 0-7.5 3.358-7.5 7.5s3.358 7.5 7.5 7.5h347.014c17.542 0 31.814 14.272 31.814 31.814v245.294h-38.457v-214.437c0-15.453-12.571-28.024-28.024-28.024h-349.039c-15.453 0-28.024 12.572-28.024 28.024v214.438h-38.456v-245.295c0-17.542 14.271-31.814 31.814-31.814h35.358c4.142 0 7.5-3.358 7.5-7.5s-3.358-7.5-7.5-7.5h-35.358c-25.814 0-46.814 21.001-46.814 46.814v279.825c0 25.813 21 46.814 46.814 46.814h137.458v41.338h-30.158c-4.142 0-7.5 3.358-7.5 7.5s3.358 7.5 7.5 7.5h203.773c4.142 0 7.5-3.358 7.5-7.5s-3.358-7.5-7.5-7.5h-30.159v-41.338h73.718c4.142 0 7.5-3.358 7.5-7.5s-3.358-7.5-7.5-7.5h-354.632c-17.543 0-31.814-14.271-31.814-31.814v-19.531h482v19.531c0 17.542-14.271 31.814-31.814 31.814h-27.74c-4.142 0-7.5 3.358-7.5 7.5s3.358 7.5 7.5 7.5h27.74c25.814 0 46.814-21 46.814-46.814v-279.825c0-25.813-21-46.814-46.814-46.814zm-152.458 414.792h-113.457v-41.338h113.457zm-244.272-337.121c0-7.182 5.842-13.024 13.024-13.024h349.04c7.182 0 13.024 5.843 13.024 13.024v214.438h-375.088z"/><path d="m297.783 137.068h-83.566c-12.407 0-22.5 10.094-22.5 22.5v83.566c0 12.406 10.093 22.5 22.5 22.5h83.566c12.407 0 22.5-10.094 22.5-22.5v-83.566c0-12.406-10.094-22.5-22.5-22.5zm7.5 106.066c0 4.135-3.364 7.5-7.5 7.5h-83.566c-4.136 0-7.5-3.365-7.5-7.5v-83.566c0-4.135 3.364-7.5 7.5-7.5h83.566c4.136 0 7.5 3.365 7.5 7.5z"/><path d="m308.969 287.297h-105.938c-4.142 0-7.5 3.358-7.5 7.5s3.358 7.5 7.5 7.5h105.938c4.142 0 7.5-3.358 7.5-7.5s-3.358-7.5-7.5-7.5z"/><path d="m151.817 137.068h-34.527c-12.407 0-22.5 10.094-22.5 22.5v34.527c0 12.406 10.093 22.5 22.5 22.5h34.527c12.407 0 22.5-10.094 22.5-22.5v-34.527c0-12.406-10.093-22.5-22.5-22.5zm7.5 57.027c0 4.135-3.364 7.5-7.5 7.5h-34.527c-4.136 0-7.5-3.365-7.5-7.5v-34.527c0-4.135 3.364-7.5 7.5-7.5h34.527c4.136 0 7.5 3.365 7.5 7.5z"/></g></g><g/><g/><g/><g/><g/><g/><g/><g/><g/><g/><g/><g/><g/><g/><g/></svg>