<svg id="Capa_1" enable-background="new 0 0 512 512" viewBox="0 0 512 512" xmlns="http://www.w3.org/2000/svg"><g><g><g><circle cx="376.622" cy="177.897" fill="#ffd42b" r="24.743"/></g><g><path d="m418.492 186.022c1.356-2.415 2.495-5.005 3.381-7.755 6.631-20.58-3.762-43.159-23.704-51.516-22.045-9.238-47.161 1.709-55.524 23.878-.767 2.033-1.365 4.088-1.802 6.15-.748 3.529 1.205 7.074 4.58 8.348l64.093 24.179c3.392 1.28 7.202-.122 8.976-3.284z" fill="#0bf"/></g><g><circle cx="491.069" cy="188.209" fill="#0bf" r="13.431"/></g><g><path d="m480.62 302.369h-112.639v-21.324c0-6.551 5.311-11.862 11.862-11.862h88.916c6.551 0 11.862 5.311 11.862 11.862v21.324z" fill="#0bf"/></g><g><path d="m306.132 302.369h-270.398c-9.185 0-16.631-7.446-16.631-16.631v-15.997c0-2.154 1.746-3.899 3.899-3.899h295.861c2.154 0 3.899 1.746 3.899 3.899v15.997c.001 9.185-7.445 16.631-16.63 16.631z" fill="#c7eef3"/></g><g><path d="m318.863 265.841h-30c2.154 0 3.899 1.746 3.899 3.899v15.997c0 9.185-7.446 16.631-16.631 16.631h30c9.185 0 16.631-7.446 16.631-16.631v-15.997c.001-2.153-1.745-3.899-3.899-3.899z" fill="#97e7ea"/></g><g><path d="m307.247 265.841h-272.629v-112.232c0-26.351 21.361-47.712 47.712-47.712h177.205c26.351 0 47.712 21.361 47.712 47.712z" fill="#97e7ea"/></g><g><path d="m255.851 136.541h-169.837c-11.32 0-20.497 9.177-20.497 20.497v108.804h210.832v-108.804c-.001-11.321-9.177-20.497-20.498-20.497z" fill="#007c88"/></g><g><path d="m496.459 342.836h-480.918c-4.441 0-8.041-3.6-8.041-8.041v-24.385c0-4.441 3.6-8.041 8.041-8.041h480.918c4.441 0 8.041 3.6 8.041 8.041v24.385c0 4.441-3.6 8.041-8.041 8.041z" fill="#ffc17f"/></g><g><path d="m79.952 502.268h-26.666c-3.965 0-7.179-3.214-7.179-7.179v-152.253h41.023v152.253c0 3.965-3.214 7.179-7.178 7.179z" fill="#ff8e46"/></g><g><path d="m458.713 502.268h-26.665c-3.965 0-7.179-3.214-7.179-7.179v-152.253h41.023v152.253c0 3.965-3.214 7.179-7.179 7.179z" fill="#ff8e46"/></g><g><path d="m46.108 342.835h41.023v36.971h-41.023z" fill="#ff7d2e"/></g><g><path d="m424.869 342.835h41.023v36.971h-41.023z" fill="#ff7d2e"/></g></g><g><g><path d="m221.81 38.306c-1.919 0-3.839-.732-5.304-2.197-12.173-12.173-28.358-18.877-45.573-18.877-17.216 0-33.401 6.704-45.574 18.877-2.93 2.929-7.678 2.929-10.607 0s-2.929-7.678 0-10.606c15.007-15.006 34.959-23.271 56.182-23.271 21.222 0 41.174 8.265 56.181 23.271 2.929 2.929 2.929 7.678 0 10.606-1.466 1.465-3.386 2.197-5.305 2.197z"/></g><g><path d="m201.181 58.935c-1.92 0-3.839-.732-5.304-2.197-6.663-6.664-15.521-10.333-24.944-10.333-9.424 0-18.282 3.669-24.945 10.333-2.93 2.929-7.679 2.929-10.606 0-2.93-2.929-2.93-7.678-.001-10.607 9.496-9.497 22.122-14.727 35.553-14.727 13.43 0 26.056 5.23 35.552 14.727 2.929 2.929 2.929 7.678-.001 10.607-1.465 1.464-3.385 2.197-5.304 2.197z"/></g><g><path d="m183.07 77.046c-1.919 0-3.838-.732-5.303-2.196-1.826-1.826-4.253-2.831-6.834-2.831-2.582 0-5.009 1.005-6.835 2.831-2.929 2.93-7.678 2.928-10.606-.001-2.929-2.929-2.929-7.678.001-10.606 4.659-4.658 10.853-7.224 17.44-7.224s12.78 2.565 17.439 7.224c2.93 2.929 2.93 7.677.001 10.606-1.463 1.465-3.384 2.197-5.303 2.197z"/></g><path d="m496.459 294.869h-8.34v-13.823c0-10.676-8.686-19.362-19.361-19.362h-.793l31.797-54.459c7.208-3.31 12.237-10.579 12.237-19.016 0-11.542-9.39-20.931-20.931-20.931-.34 0-.671.035-1.007.051 0 0-86.305-46.368-88.994-47.494-.01-.004-.021-.008-.031-.012-.03-.012-.059-.023-.089-.035-12.49-5.198-26.192-5.122-38.596.219-12.449 5.361-21.94 15.296-26.724 27.977-.89 2.359-1.604 4.796-2.121 7.242-1.526 7.201 2.371 14.317 9.269 16.92l1.998.754c-.257 1.647-.394 3.315-.394 4.999 0 17.779 14.464 32.243 32.242 32.243 11.212 0 21.406-5.787 27.227-14.955l3.02 1.139c1.738.656 3.522.97 5.278.97 5.218 0 10.177-2.776 12.885-7.601 1.618-2.882 2.957-5.953 3.979-9.126 3.08-9.557 3.022-19.493.394-28.63l44.799 23.927c-2.544 3.466-4.066 7.726-4.066 12.344 0 8.443 5.035 15.716 12.251 19.022l-31.793 54.452h-29.583v-10.41c0-4.142-3.357-7.5-7.5-7.5s-7.5 3.358-7.5 7.5v10.41h-26.171c-10.676 0-19.361 8.686-19.361 19.362v13.823h-32.018c1.157-2.819 1.799-5.9 1.799-9.131v-15.997c0-6.286-5.113-11.399-11.398-11.399h-4.116v-104.733c0-30.444-24.768-55.212-55.212-55.212h-177.205c-30.444 0-55.212 24.768-55.212 55.212v104.732h-4.116c-6.286 0-11.399 5.114-11.399 11.399v15.997c0 3.29.664 6.426 1.861 9.286-7.589 1.022-13.464 7.523-13.464 15.387v24.385c0 8.569 6.971 15.541 15.541 15.541h23.067v144.753c0 8.094 6.585 14.679 14.679 14.679h26.665c8.094 0 14.679-6.585 14.679-14.679v-144.754h221.673c4.143 0 7.5-3.358 7.5-7.5s-3.357-7.5-7.5-7.5h-300.763c-.298 0-.541-.243-.541-.541v-24.384c0-.298.243-.541.541-.541h480.919c.298 0 .54.243.54.541v24.385c0 .298-.242.541-.54.541h-144.157c-4.143 0-7.5 3.358-7.5 7.5s3.357 7.5 7.5 7.5h65.066v144.753c0 8.094 6.585 14.679 14.679 14.679h26.665c8.094 0 14.679-6.585 14.679-14.679v-144.754h23.067c8.568 0 15.54-6.972 15.54-15.541v-24.384c.001-8.57-6.971-15.541-15.54-15.541zm.541-106.66c0 3.27-2.66 5.931-5.931 5.931s-5.931-2.661-5.931-5.931c0-3.271 2.66-5.931 5.931-5.931s5.931 2.66 5.931 5.931zm-120.378 6.931c-9.332 0-16.937-7.456-17.216-16.721l29.811 11.246c-3.192 3.412-7.708 5.475-12.595 5.475zm38.112-19.172c-.703 2.181-1.616 4.289-2.717 6.267l-63.801-24.069c.358-1.65.845-3.294 1.446-4.889 3.333-8.835 9.946-15.758 18.621-19.493 8.583-3.697 18.062-3.767 26.725-.218l6.12 3.269c12.442 8.396 18.349 24.415 13.606 39.133zm-335.104 174.367v144.432h-26.022v-144.432zm295.851-69.29c0-2.405 1.956-4.362 4.361-4.362h88.916c2.405 0 4.361 1.957 4.361 4.362v13.823h-97.639v-13.823zm-333.363-127.436c0-22.173 18.039-40.212 40.212-40.212h177.206c22.173 0 40.212 18.039 40.212 40.212v104.732h-15.899v-101.303c0-15.438-12.56-27.997-27.997-27.997h-98.796c-4.143 0-7.5 3.358-7.5 7.5s3.357 7.5 7.5 7.5h98.796c7.167 0 12.997 5.831 12.997 12.997v101.304h-195.832v-101.304c0-7.167 5.831-12.997 12.998-12.997h34.041c4.143 0 7.5-3.358 7.5-7.5s-3.357-7.5-7.5-7.5h-34.042c-15.438 0-27.998 12.56-27.998 27.997v101.304h-15.898zm-15.515 119.732h8.016 272.629 8.015v12.396c0 5.035-4.096 9.131-9.131 9.131h-270.399c-5.035 0-9.131-4.096-9.131-9.131v-12.396zm431.789 221.427h-26.022v-144.433h26.022z"/></g></g><g/><g/><g/><g/><g/><g/><g/><g/><g/><g/><g/><g/><g/><g/><g/></svg>