<svg id="Capa_1" enable-background="new 0 0 512 512" viewBox="0 0 512 512" xmlns="http://www.w3.org/2000/svg"><g><g><g><path d="m472.1 407.057h-432.201c-17.894 0-32.399-14.506-32.399-32.399v-293.654c0-17.894 14.506-32.399 32.399-32.399h432.201c17.894 0 32.399 14.506 32.399 32.399v293.654c.001 17.894-14.505 32.399-32.399 32.399z" fill="#f9f1f4"/></g><g><path d="m472.1 48.604h-30c17.894 0 32.399 14.506 32.399 32.399v293.654c0 17.894-14.506 32.399-32.399 32.399h30c17.894 0 32.399-14.506 32.399-32.399v-293.653c.001-17.894-14.505-32.4-32.399-32.4z" fill="#ebe1e5"/></g><g><path d="m7.5 341.307v33.351c0 17.894 14.506 32.399 32.399 32.399h432.201c17.894 0 32.399-14.506 32.399-32.399v-33.351z" fill="#00919e"/></g><g><path d="m474.5 341.307v3.351c0 17.894-14.506 32.399-32.399 32.399h-432.202c-.777 0-1.545-.037-2.308-.091 1.185 16.815 15.192 30.091 32.308 30.091h432.201c17.894 0 32.399-14.506 32.399-32.399v-33.351z" fill="#007c88"/></g><g><path d="m169.723 407.057h172.553v56.338h-172.553z" fill="#ac8597"/></g><g><path d="m447.958 341.458h-383.916v-231.434c0-11.012 8.927-19.939 19.939-19.939h344.038c11.012 0 19.939 8.927 19.939 19.939z" fill="#d7f7ff"/></g><g><path d="m447.958 139.425v-29.401c0-11.012-8.927-19.939-19.939-19.939h-344.038c-11.012 0-19.939 8.927-19.939 19.939v29.401z" fill="#37ddff"/></g><g><path d="m169.85 198.224h113.138c8.179 0 14.809 6.63 14.809 14.809v79.88c0 8.179-6.63 14.809-14.809 14.809h-127.634c-8.179 0-14.809-6.63-14.809-14.809v-65.386z" fill="#ffe35e"/></g><g><circle cx="139.164" cy="198.224" fill="#ff6472" r="27.204"/></g></g><g><path d="m472.101 41.104h-432.202c-22 0-39.899 17.899-39.899 39.9v293.654c0 22 17.899 39.899 39.899 39.899h122.324v41.338h-25.636c-4.142 0-7.5 3.358-7.5 7.5s3.358 7.5 7.5 7.5h238.825c4.142 0 7.5-3.358 7.5-7.5s-3.358-7.5-7.5-7.5h-25.636v-41.338h122.324c22 0 39.899-17.899 39.899-39.899v-293.654c.001-22.001-17.898-39.9-39.898-39.9zm-432.202 15h432.201c13.729 0 24.899 11.17 24.899 24.899v252.954h-41.542v-223.934c0-15.13-12.309-27.439-27.439-27.439h-344.037c-15.13 0-27.439 12.309-27.439 27.439v223.935h-41.542v-252.954c0-13.73 11.17-24.9 24.899-24.9zm31.643 90.821h368.916v187.033h-368.916zm368.916-36.902v21.901h-368.916v-21.901c0-6.859 5.58-12.439 12.439-12.439h344.038c6.858 0 12.439 5.581 12.439 12.439zm-105.682 345.873h-157.553v-41.338h157.553zm137.325-56.338h-432.202c-13.729 0-24.899-11.17-24.899-24.9v-25.7h482v25.7c0 13.73-11.17 24.9-24.899 24.9z"/><path d="m282.989 190.724h-1.201-108.745c-3.439-15.541-17.318-27.204-33.879-27.204-19.136 0-34.704 15.568-34.704 34.704 0 17.047 12.359 31.253 28.585 34.153v60.536c0 12.301 10.008 22.309 22.309 22.309h127.635c12.301 0 22.309-10.008 22.309-22.309v-79.88c-.001-12.302-10.008-22.309-22.309-22.309zm-109.946 15h102.456l-49.079 40.976c-4.2 3.507-10.298 3.507-14.498 0l-41.091-34.307c.953-2.12 1.699-4.351 2.212-6.669zm-53.583-7.5c0-10.865 8.839-19.704 19.704-19.704s19.704 8.839 19.704 19.704-8.839 19.704-19.704 19.704-19.704-8.84-19.704-19.704zm170.837 94.689c0 4.03-3.279 7.309-7.309 7.309h-127.634c-4.03 0-7.309-3.279-7.309-7.309v-61.142c5.178-1.372 9.88-3.917 13.815-7.327l40.449 33.771c4.885 4.079 10.874 6.118 16.862 6.118 5.989 0 11.977-2.04 16.862-6.118l54.258-45.301c.001.04.006.078.006.118z"/><path d="m404.163 197.495h-61.887c-4.142 0-7.5 3.358-7.5 7.5s3.358 7.5 7.5 7.5h61.887c4.142 0 7.5-3.358 7.5-7.5s-3.358-7.5-7.5-7.5z"/><path d="m404.163 228.103h-61.887c-4.142 0-7.5 3.358-7.5 7.5s3.358 7.5 7.5 7.5h61.887c4.142 0 7.5-3.358 7.5-7.5s-3.358-7.5-7.5-7.5z"/><path d="m404.163 258.71h-61.887c-4.142 0-7.5 3.358-7.5 7.5s3.358 7.5 7.5 7.5h61.887c4.142 0 7.5-3.358 7.5-7.5s-3.358-7.5-7.5-7.5z"/><path d="m404.163 289.317h-61.887c-4.142 0-7.5 3.358-7.5 7.5s3.358 7.5 7.5 7.5h61.887c4.142 0 7.5-3.358 7.5-7.5s-3.358-7.5-7.5-7.5z"/></g></g><g/><g/><g/><g/><g/><g/><g/><g/><g/><g/><g/><g/><g/><g/><g/></svg>