<svg id="Capa_1" enable-background="new 0 0 512 512" viewBox="0 0 512 512" xmlns="http://www.w3.org/2000/svg"><g><g><g><path d="m111.057 504.5h-15.902c-5.421 0-9.816-4.395-9.816-9.816v-42.033h35.534v42.033c.001 5.421-4.394 9.816-9.816 9.816z" fill="#7a5d6a"/></g><g><path d="m224.675 504.5h-15.902c-5.421 0-9.816-4.395-9.816-9.816v-42.033h35.534v42.033c.001 5.421-4.394 9.816-9.816 9.816z" fill="#7a5d6a"/></g><g><path d="m303.227 504.5h-15.902c-5.421 0-9.816-4.395-9.816-9.816v-42.033h35.534v42.033c0 5.421-4.394 9.816-9.816 9.816z" fill="#7a5d6a"/></g><g><path d="m416.845 504.5h-15.902c-5.421 0-9.816-4.395-9.816-9.816v-42.033h35.534v42.033c0 5.421-4.394 9.816-9.816 9.816z" fill="#7a5d6a"/></g><g><path d="m256 452.651h-174.133c-9.961 0-18.036-8.075-18.036-18.036v-409.078c0-9.961 8.075-18.036 18.036-18.036h174.133z" fill="#0bf"/></g><g><path d="m430.134 452.651h-174.134v-445.151h174.133c9.961 0 18.036 8.075 18.036 18.036v409.078c.001 9.961-8.074 18.037-18.035 18.037z" fill="#0097ff"/></g><g><path d="m96.452 408.396v-356.641c0-5.367 4.351-9.719 9.719-9.719h107.49c5.367 0 9.719 4.351 9.719 9.719v356.641c0 5.367-4.351 9.719-9.719 9.719h-107.491c-5.367-.001-9.718-4.352-9.718-9.719zm201.888 9.718h107.49c5.367 0 9.719-4.351 9.719-9.719v-356.64c0-5.367-4.351-9.719-9.719-9.719h-107.49c-5.367 0-9.719 4.351-9.719 9.719v356.641c.001 5.367 4.352 9.718 9.719 9.718z" fill="#d7f7ff"/></g><g><g><path d="m213.66 42.037h-20.281v336.359c0 5.367-4.351 9.719-9.719 9.719h-87.208v20.281c0 5.367 4.351 9.719 9.719 9.719h107.49c5.367 0 9.719-4.352 9.719-9.719v-356.641c-.001-5.367-4.352-9.718-9.72-9.718z" fill="#b4eeff"/></g><g><path d="m405.83 42.037h-20.281v336.359c0 5.367-4.351 9.719-9.719 9.719h-87.209v20.281c0 5.367 4.351 9.719 9.719 9.719h107.49c5.367 0 9.719-4.352 9.719-9.719v-356.641c0-5.367-4.351-9.718-9.719-9.718z" fill="#b4eeff"/></g></g></g><g><path d="m213.66 425.614c9.494 0 17.219-7.725 17.219-17.219v-356.64c0-9.494-7.725-17.219-17.219-17.219h-107.49c-9.494 0-17.218 7.725-17.218 17.219v356.641c0 9.494 7.724 17.219 17.218 17.219h107.49zm-109.708-17.218v-356.641c0-1.224.995-2.219 2.218-2.219h107.49c1.224 0 2.219.995 2.219 2.219v356.641c0 1.224-.995 2.219-2.219 2.219h-107.49c-1.223-.001-2.218-.996-2.218-2.219z"/><path d="m430.134 0h-348.267c-14.081 0-25.537 11.455-25.537 25.536v64.898c0 4.143 3.357 7.5 7.5 7.5s7.5-3.357 7.5-7.5v-64.898c0-5.809 4.727-10.536 10.537-10.536h166.633v430.15h-166.633c-5.811 0-10.537-4.727-10.537-10.536v-307.18c0-4.143-3.357-7.5-7.5-7.5s-7.5 3.357-7.5 7.5v307.18c0 12.71 9.335 23.278 21.509 25.215v34.854c0 9.548 7.769 17.316 17.316 17.316h15.902c9.548 0 17.316-7.769 17.316-17.316v-34.533h63.083v34.533c0 9.548 7.769 17.316 17.316 17.316h15.902c9.548 0 17.315-7.769 17.315-17.316v-34.533h28.018v34.533c0 9.548 7.769 17.316 17.316 17.316h15.902c9.548 0 17.316-7.769 17.316-17.316v-34.533h63.083v34.533c0 9.548 7.769 17.316 17.316 17.316h15.902c9.548 0 17.315-7.769 17.315-17.316v-34.853c12.174-1.938 21.509-12.505 21.509-25.216v-409.078c.004-14.081-11.451-25.536-25.532-25.536zm-316.76 494.684c0 1.277-1.039 2.316-2.316 2.316h-15.903c-1.277 0-2.316-1.039-2.316-2.316v-34.534h20.535zm113.617 0c0 1.277-1.039 2.316-2.315 2.316h-15.902c-1.277 0-2.316-1.039-2.316-2.316v-34.534h20.534v34.534zm78.553 0c0 1.277-1.039 2.316-2.316 2.316h-15.902c-1.277 0-2.316-1.039-2.316-2.316v-34.534h20.535v34.534zm113.617 0c0 1.277-1.039 2.316-2.315 2.316h-15.902c-1.277 0-2.316-1.039-2.316-2.316v-34.534h20.534v34.534zm21.509-60.07c0 5.81-4.727 10.536-10.536 10.536h-166.634v-430.15h166.634c5.81 0 10.536 4.727 10.536 10.536z"/><path d="m405.83 34.536h-107.49c-9.494 0-17.218 7.725-17.218 17.219v215.598c0 4.143 3.357 7.5 7.5 7.5s7.5-3.357 7.5-7.5v-215.598c0-1.224.995-2.219 2.218-2.219h107.49c1.224 0 2.219.995 2.219 2.219v356.641c0 1.224-.995 2.219-2.219 2.219h-107.49c-1.223 0-2.218-.995-2.218-2.219v-104.043c0-4.143-3.357-7.5-7.5-7.5s-7.5 3.357-7.5 7.5v104.043c0 9.494 7.724 17.219 17.218 17.219h107.49c9.494 0 17.219-7.725 17.219-17.219v-356.641c0-9.494-7.725-17.219-17.219-17.219z"/><path d="m133.954 263.235c4.143 0 7.5-3.357 7.5-7.5v-34.615c0-4.143-3.357-7.5-7.5-7.5s-7.5 3.357-7.5 7.5v34.615c0 4.143 3.358 7.5 7.5 7.5z"/><path d="m133.954 206.265c4.143 0 7.5-3.357 7.5-7.5v-9.643c0-4.143-3.357-7.5-7.5-7.5s-7.5 3.357-7.5 7.5v9.643c0 4.142 3.358 7.5 7.5 7.5z"/><path d="m133.954 96.288h51.923c4.143 0 7.5-3.357 7.5-7.5s-3.357-7.5-7.5-7.5h-51.923c-4.143 0-7.5 3.357-7.5 7.5s3.358 7.5 7.5 7.5z"/><path d="m133.954 126.576h51.923c4.143 0 7.5-3.357 7.5-7.5s-3.357-7.5-7.5-7.5h-51.923c-4.143 0-7.5 3.357-7.5 7.5s3.358 7.5 7.5 7.5z"/><path d="m133.954 348.574h51.923c4.143 0 7.5-3.357 7.5-7.5s-3.357-7.5-7.5-7.5h-51.923c-4.143 0-7.5 3.357-7.5 7.5s3.358 7.5 7.5 7.5z"/><path d="m133.954 378.862h51.923c4.143 0 7.5-3.357 7.5-7.5s-3.357-7.5-7.5-7.5h-51.923c-4.143 0-7.5 3.357-7.5 7.5s3.358 7.5 7.5 7.5z"/><path d="m318.624 255.735c0 4.143 3.357 7.5 7.5 7.5s7.5-3.357 7.5-7.5v-34.615c0-4.143-3.357-7.5-7.5-7.5s-7.5 3.357-7.5 7.5z"/><path d="m318.624 198.765c0 4.143 3.357 7.5 7.5 7.5s7.5-3.357 7.5-7.5v-9.643c0-4.143-3.357-7.5-7.5-7.5s-7.5 3.357-7.5 7.5z"/><path d="m326.124 96.288h51.923c4.143 0 7.5-3.357 7.5-7.5s-3.357-7.5-7.5-7.5h-51.923c-4.143 0-7.5 3.357-7.5 7.5s3.357 7.5 7.5 7.5z"/><path d="m326.124 126.576h51.923c4.143 0 7.5-3.357 7.5-7.5s-3.357-7.5-7.5-7.5h-51.923c-4.143 0-7.5 3.357-7.5 7.5s3.357 7.5 7.5 7.5z"/><path d="m326.124 348.574h51.923c4.143 0 7.5-3.357 7.5-7.5s-3.357-7.5-7.5-7.5h-51.923c-4.143 0-7.5 3.357-7.5 7.5s3.357 7.5 7.5 7.5z"/><path d="m326.124 378.862h51.923c4.143 0 7.5-3.357 7.5-7.5s-3.357-7.5-7.5-7.5h-51.923c-4.143 0-7.5 3.357-7.5 7.5s3.357 7.5 7.5 7.5z"/></g></g><g/><g/><g/><g/><g/><g/><g/><g/><g/><g/><g/><g/><g/><g/><g/></svg>