<svg id="Capa_1" enable-background="new 0 0 512.008 512.008" viewBox="0 0 512.008 512.008" xmlns="http://www.w3.org/2000/svg"><g><g><g><path d="m464.642 56.135c-53.609-53.609-140.813-53.148-193.844 1.383-50.071 51.487-51.293 134.034-2.67 186.891 44.141 47.984 113.876 56.774 167.406 26.389 2.135-1.212 4.672-1.503 7.044-.867l43.404 11.63c7.047 1.888 13.495-4.56 11.607-11.607l-11.63-43.405c-.637-2.377-.338-4.917.877-7.058 29.463-51.924 22.071-119.091-22.194-163.356z" fill="#ffd42b"/></g><g><path d="m219.54 96.674h-183.044c-16.014 0-28.996 12.982-28.996 28.996v164.532c0 16.014 12.982 28.997 28.997 28.997 5.516 0 9.988 4.472 9.988 9.988v33.333c0 7.557 8.882 11.614 14.594 6.667l54.907-47.551c1.815-1.572 4.137-2.438 6.538-2.438h97.017c16.014 0 28.997-12.982 28.997-28.997v-164.531c-.001-16.014-12.983-28.996-28.998-28.996z" fill="#00cdff"/></g><g><path d="m413.323 191.856h-175.107c5.715 19.046 15.672 37.074 29.912 52.553 44.141 47.984 113.876 56.774 167.406 26.389 2.058-1.168 4.489-1.472 6.786-.924v-49.022c0-16.014-12.982-28.996-28.997-28.996z" fill="#ffc700"/></g><g><path d="m170.279 191.856c-16.014 0-28.997 12.982-28.997 28.997v98.346h78.257c16.014 0 28.997-12.982 28.997-28.997v-98.346z" fill="#0bf"/></g><g><path d="m198.212 221.042h183.044c16.014 0 28.997 12.982 28.997 28.997v164.531c0 16.014-12.982 28.997-28.997 28.997-5.516 0-9.988 4.472-9.988 9.988v33.333c0 7.557-8.882 11.614-14.594 6.667l-54.907-47.551c-1.815-1.572-4.137-2.438-6.538-2.438h-97.017c-16.014 0-28.997-12.982-28.997-28.997v-164.53c0-16.015 12.982-28.997 28.997-28.997z" fill="#00da9f"/></g><g><path d="m198.212 221.042h183.044c16.014 0 28.997 12.982 28.997 28.997v164.531c0 16.014-12.982 28.997-28.997 28.997-5.516 0-9.988 4.472-9.988 9.988v33.333c0 7.557-8.882 11.614-14.594 6.667l-54.907-47.551c-1.815-1.572-4.137-2.438-6.538-2.438h-97.017c-16.014 0-28.997-12.982-28.997-28.997v-164.53c0-16.015 12.982-28.997 28.997-28.997z" fill="#00da9f"/></g><g><path d="m198.212 221.042h183.044c16.014 0 28.997 12.982 28.997 28.997v164.531c0 16.014-12.982 28.997-28.997 28.997-5.516 0-9.988 4.472-9.988 9.988v33.333c0 7.557-8.882 11.614-14.594 6.667l-54.907-47.551c-1.815-1.572-4.137-2.438-6.538-2.438h-97.017c-16.014 0-28.997-12.982-28.997-28.997v-164.53c0-16.015 12.982-28.997 28.997-28.997z" fill="#00da9f"/></g><g><path d="m381.255 216.689h-1.202c.127 1.1.199 2.216.199 3.35v164.531c0 16.015-12.982 28.997-28.997 28.997-5.25 0-166.327 0-181.842 0 1.662 14.435 13.917 25.646 28.798 25.646h97.017c2.402 0 4.723.865 6.538 2.438l54.907 47.551c5.712 4.947 14.594.889 14.594-6.667v-33.333c0-5.516 4.472-9.988 9.988-9.988 16.014 0 28.997-12.982 28.997-28.997v-164.532c0-16.014-12.982-28.996-28.997-28.996z" fill="#00c7a4"/></g></g><g><path d="m493.202 224.607c-.132-.492-.075-1.007.156-1.414 25.352-44.678 24.824-99.867-1.378-144.029-2.113-3.562-6.714-4.737-10.277-2.624-3.562 2.114-4.737 6.715-2.624 10.277 23.462 39.546 23.935 88.965 1.233 128.972-2.192 3.861-2.759 8.372-1.599 12.701l11.63 43.405c.244.912-.143 1.542-.512 1.91-.368.368-.998.757-1.91.512l-43.404-11.63c-4.333-1.161-8.838-.596-12.687 1.59-4.534 2.573-9.249 4.87-14.08 6.876v-21.114c0-20.125-16.372-36.497-36.497-36.497h-125.216v-87.872c0-7.964-2.572-15.335-6.918-21.342.084-.169.18-.329.252-.507 6.216-15.358 15.233-29.178 26.803-41.075 24.205-24.89 56.638-38.731 91.324-38.973 34.695-.207 67.31 13.134 91.84 37.664 2.929 2.929 7.678 2.929 10.606 0 2.929-2.929 2.929-7.678 0-10.606-27.39-27.391-63.783-42.32-102.55-42.057-38.732.27-74.947 15.724-101.974 43.515-11.82 12.155-21.248 26.111-28.089 41.531-5.268-2.954-11.334-4.647-17.792-4.647h-183.042c-20.125.001-36.497 16.373-36.497 36.497v91.018c0 4.142 3.358 7.5 7.5 7.5s7.5-3.358 7.5-7.5v-91.018c0-11.854 9.643-21.497 21.497-21.497h183.043c11.854 0 21.497 9.643 21.497 21.497v87.872h-42.826c-20.125 0-36.497 16.372-36.497 36.497v61.66h-39.192c-4.204 0-8.27 1.516-11.448 4.269l-54.907 47.55c-.159.137-.639.557-1.413.203-.771-.352-.771-.99-.771-1.2v-33.333c0-9.643-7.845-17.488-17.488-17.488-11.853 0-21.497-9.644-21.497-21.497v-38.514c0-4.142-3.358-7.5-7.5-7.5s-7.5 3.358-7.5 7.5v38.514c0 20.125 16.372 36.497 36.497 36.497 1.372 0 2.488 1.116 2.488 2.488v33.333c0 6.468 3.655 12.156 9.538 14.844 2.209 1.01 4.533 1.504 6.833 1.504 3.823 0 7.579-1.368 10.632-4.012l54.907-47.55c.452-.392 1.03-.607 1.628-.607h39.192v87.872c0 20.125 16.372 36.497 36.497 36.497h97.017c.598 0 1.176.216 1.629.607l54.906 47.55c3.053 2.645 6.809 4.013 10.633 4.013 2.299 0 4.623-.495 6.832-1.504 5.884-2.688 9.539-8.375 9.539-14.844v-33.333c0-1.372 1.116-2.488 2.488-2.488 20.125 0 36.497-16.372 36.497-36.497v-127.322c7.415-2.709 14.632-6.04 21.485-9.93.396-.224.906-.277 1.4-.145l43.403 11.63c1.488.398 2.989.594 4.471.594 4.422 0 8.677-1.737 11.928-4.988 4.34-4.34 5.982-10.47 4.394-16.398zm-90.45 189.963c0 11.853-9.644 21.497-21.497 21.497-9.643 0-17.488 7.845-17.488 17.488v33.333c0 .21 0 .848-.771 1.201-.772.351-1.253-.065-1.413-.203l-54.906-47.55c-3.179-2.752-7.244-4.269-11.449-4.269h-97.017c-11.853 0-21.497-9.644-21.497-21.497v-164.531c0-11.853 9.644-21.497 21.497-21.497h183.044c11.853 0 21.497 9.644 21.497 21.497z"/><path d="m350.748 261.955h-120.069c-4.142 0-7.5 3.358-7.5 7.5s3.358 7.5 7.5 7.5h120.069c4.142 0 7.5-3.358 7.5-7.5s-3.358-7.5-7.5-7.5z"/><path d="m350.748 301.959h-120.069c-4.142 0-7.5 3.358-7.5 7.5s3.358 7.5 7.5 7.5h120.069c4.142 0 7.5-3.358 7.5-7.5s-3.358-7.5-7.5-7.5z"/><path d="m429.879 135.752h-111.944c-4.142 0-7.5 3.358-7.5 7.5s3.358 7.5 7.5 7.5h111.944c4.142 0 7.5-3.358 7.5-7.5s-3.358-7.5-7.5-7.5z"/><path d="m429.879 94.297h-111.944c-4.142 0-7.5 3.358-7.5 7.5s3.358 7.5 7.5 7.5h111.944c4.142 0 7.5-3.358 7.5-7.5s-3.358-7.5-7.5-7.5z"/><path d="m429.879 175.755h-111.944c-4.142 0-7.5 3.358-7.5 7.5s3.358 7.5 7.5 7.5h111.944c4.142 0 7.5-3.358 7.5-7.5s-3.358-7.5-7.5-7.5z"/><path d="m49.176 193.454h140.212c4.142 0 7.5-3.358 7.5-7.5s-3.358-7.5-7.5-7.5h-140.212c-4.142 0-7.5 3.358-7.5 7.5s3.358 7.5 7.5 7.5z"/><path d="m49.176 152h140.212c4.142 0 7.5-3.358 7.5-7.5s-3.358-7.5-7.5-7.5h-140.212c-4.142 0-7.5 3.358-7.5 7.5s3.358 7.5 7.5 7.5z"/><path d="m49.176 233.458h78.842c4.142 0 7.5-3.358 7.5-7.5s-3.358-7.5-7.5-7.5h-78.842c-4.142 0-7.5 3.358-7.5 7.5s3.358 7.5 7.5 7.5z"/><path d="m49.176 265.944h78.842c4.142 0 7.5-3.358 7.5-7.5s-3.358-7.5-7.5-7.5h-78.842c-4.142 0-7.5 3.358-7.5 7.5s3.358 7.5 7.5 7.5z"/><path d="m350.748 341.962h-120.069c-4.142 0-7.5 3.358-7.5 7.5s3.358 7.5 7.5 7.5h120.069c4.142 0 7.5-3.358 7.5-7.5s-3.358-7.5-7.5-7.5z"/><path d="m350.748 381.966h-120.069c-4.142 0-7.5 3.358-7.5 7.5s3.358 7.5 7.5 7.5h120.069c4.142 0 7.5-3.358 7.5-7.5s-3.358-7.5-7.5-7.5z"/></g></g><g/><g/><g/><g/><g/><g/><g/><g/><g/><g/><g/><g/><g/><g/><g/></svg>