<svg id="Capa_1" enable-background="new 0 0 512 512" viewBox="0 0 512 512" xmlns="http://www.w3.org/2000/svg"><g><g><g><path d="m429.74 299.678h-356.849c-14.409 0-26.09-11.681-26.09-26.09v-210.398c0-14.409 11.681-26.09 26.09-26.09h356.85c14.409 0 26.09 11.681 26.09 26.09v210.398c-.001 14.409-11.682 26.09-26.091 26.09z" fill="#f9f1f4"/></g><g><path d="m497.776 339.505h-483.552c-3.713 0-6.724-3.01-6.724-6.724v-26.38c0-3.714 3.01-6.724 6.724-6.724h483.552c3.713 0 6.724 3.01 6.724 6.724v26.38c0 3.714-3.01 6.724-6.724 6.724z" fill="#ffe7c1"/></g><g><path d="m486.306 474.9h-460.612c-3.795 0-6.872-3.076-6.872-6.872v-128.523h474.355v128.523c.001 3.796-3.076 6.872-6.871 6.872z" fill="#ff8e46"/></g><g><path d="m497.777 299.678h-29.995c3.713 0 6.723 3.01 6.723 6.723v26.382c0 3.713-3.01 6.723-6.723 6.723h29.995c3.713 0 6.723-3.01 6.723-6.723v-26.382c0-3.713-3.01-6.723-6.723-6.723z" fill="#ffd5a1"/></g><g><path d="m463.182 339.505v67.197c0 21.099-17.104 38.203-38.203 38.203h-406.156v23.125c0 3.794 3.076 6.871 6.871 6.871h460.614c3.794 0 6.871-3.076 6.871-6.871v-128.525z" fill="#ff7d2e"/></g><g><path d="m321.029 267.114h-228.836c-6.469 0-11.714-5.244-11.714-11.714v-174.023c0-6.469 5.244-11.714 11.714-11.714h228.836c6.469 0 11.714 5.244 11.714 11.714v174.024c0 6.469-5.245 11.713-11.714 11.713z" fill="#00abff"/></g><g><path d="m80.48 232.926v22.477c0 6.468 5.244 11.712 11.712 11.712h228.839c6.468 0 11.712-5.244 11.712-11.712v-22.477z" fill="#0074ff"/></g><g><circle cx="391.957" cy="94.192" fill="#37ddff" r="24.528"/></g><g><circle cx="391.957" cy="172.87" fill="#ff838c" r="24.528"/></g><g><path d="m405.448 235.982h-26.98c-8.597 0-15.566 6.969-15.566 15.566 0 8.597 6.969 15.566 15.566 15.566h26.98c8.597 0 15.566-6.969 15.566-15.566 0-8.596-6.97-15.566-15.566-15.566z" fill="#37ddff"/></g><g><path d="m220.643 231.394h-27.874c-18.178 0-32.915-14.736-32.915-32.915v-61.394c0-7.283 5.904-13.187 13.187-13.187h67.328c7.283 0 13.187 5.904 13.187 13.187v61.394c.001 18.179-14.735 32.915-32.913 32.915z" fill="#ffe35e"/></g></g><g><path d="m497.776 292.178h-40.077c3.554-5.327 5.631-11.72 5.631-18.59v-210.399c0-18.521-15.068-33.589-33.59-33.589h-356.849c-18.521 0-33.59 15.068-33.59 33.589v210.398c0 6.87 2.077 13.263 5.631 18.59h-30.707c-7.844.001-14.225 6.382-14.225 14.224v26.38c0 7.843 6.381 14.224 14.225 14.224h471.453v120.395h-459.355v-90.9c0-4.142-3.357-7.5-7.5-7.5s-7.5 3.358-7.5 7.5v91.53c0 7.924 6.446 14.37 14.37 14.37h460.614c7.924 0 14.37-6.446 14.37-14.37v-121.324c6.456-1.344 11.322-7.076 11.322-13.924v-26.38c.001-7.843-6.38-14.224-14.223-14.224zm-443.475-18.59v-210.399c0-10.25 8.34-18.589 18.59-18.589h356.85c10.25 0 18.59 8.339 18.59 18.589v210.398c0 10.25-8.34 18.59-18.59 18.59h-356.85c-10.25.001-18.59-8.339-18.59-18.589zm-39.301 33.59h482v24.827h-482z"/><path d="m321.031 62.163h-49.62c-4.143 0-7.5 3.358-7.5 7.5s3.357 7.5 7.5 7.5h49.62c2.322 0 4.212 1.89 4.212 4.212v142.917h-73.529c5.831-7.006 9.344-16.006 9.344-25.812v-.028h4.245c16.084 0 29.169-13.085 29.169-29.169v-14.114c0-16.084-13.085-29.169-29.169-29.169h-7.496c-3.677-5.762-10.11-9.601-17.437-9.601h-67.329c-11.406 0-20.687 9.28-20.687 20.688v61.394c0 9.806 3.513 18.806 9.344 25.812h-73.719v-142.918c0-2.322 1.89-4.212 4.212-4.212h142.226c4.143 0 7.5-3.358 7.5-7.5s-3.357-7.5-7.5-7.5h-142.226c-10.594 0-19.212 8.619-19.212 19.212v174.027c0 10.593 8.618 19.212 19.212 19.212h228.84c10.594 0 19.212-8.619 19.212-19.212v-174.027c0-10.593-8.618-19.212-19.212-19.212zm-41.559 93.005v14.114c0 7.813-6.356 14.169-14.169 14.169h-4.245v-42.451h4.245c7.812 0 14.169 6.355 14.169 14.168zm-112.118-18.082c0-3.136 2.551-5.688 5.687-5.688h67.329c3.136 0 5.688 2.551 5.688 5.688v61.394c0 14.014-11.401 25.415-25.415 25.415h-27.874c-14.014 0-25.414-11.401-25.414-25.415v-61.394zm153.677 122.528h-228.84c-2.322 0-4.212-1.89-4.212-4.212v-16.11h237.264v16.11c0 2.323-1.889 4.212-4.212 4.212z"/><path d="m391.957 126.22c17.66 0 32.028-14.368 32.028-32.029s-14.368-32.028-32.028-32.028-32.028 14.368-32.028 32.028 14.368 32.029 32.028 32.029zm0-49.057c9.39 0 17.028 7.639 17.028 17.028s-7.639 17.029-17.028 17.029-17.028-7.639-17.028-17.029 7.638-17.028 17.028-17.028z"/><path d="m391.957 204.898c17.66 0 32.028-14.368 32.028-32.028s-14.368-32.028-32.028-32.028-32.028 14.368-32.028 32.028 14.368 32.028 32.028 32.028zm0-49.056c9.39 0 17.028 7.639 17.028 17.028s-7.639 17.028-17.028 17.028-17.028-7.639-17.028-17.028 7.638-17.028 17.028-17.028z"/><path d="m405.447 228.482h-26.98c-12.719 0-23.065 10.347-23.065 23.066s10.347 23.066 23.065 23.066h26.98c12.719 0 23.066-10.347 23.066-23.066s-10.347-23.066-23.066-23.066zm0 31.132h-26.98c-4.447 0-8.065-3.618-8.065-8.066s3.618-8.066 8.065-8.066h26.98c4.448 0 8.066 3.618 8.066 8.066s-3.617 8.066-8.066 8.066z"/></g></g><g/><g/><g/><g/><g/><g/><g/><g/><g/><g/><g/><g/><g/><g/><g/></svg>