<svg id="Capa_1" enable-background="new 0 0 512 512" viewBox="0 0 512 512" xmlns="http://www.w3.org/2000/svg"><g><g><g><path d="m476.325 467.593h-440.65c-15.56 0-28.175-12.614-28.175-28.175v-283.477c0-15.56 12.614-28.175 28.175-28.175h440.651c15.56 0 28.175 12.614 28.175 28.175v283.478c-.001 15.56-12.615 28.174-28.176 28.174z" fill="#fff4de"/></g><g><path d="m476.325 127.766h-6.825v280.653c0 15.56-12.614 28.175-28.175 28.175h-433.825v2.825c0 15.56 12.614 28.175 28.175 28.175h440.651c15.56 0 28.175-12.614 28.175-28.175v-283.478c-.001-15.561-12.616-28.175-28.176-28.175z" fill="#ffe7c1"/></g><g><circle cx="256" cy="60.861" fill="#00d6dc" r="16.455"/></g><g><path d="m162.553 317.144h-104.665c-5.523 0-10-4.477-10-10v-104.665c0-5.523 4.477-10 10-10h104.665c5.523 0 10 4.477 10 10v104.665c0 5.523-4.477 10-10 10z" fill="#ffd42b"/></g><g><path d="m130.091 173.7-7.538 33.933c-.911 4.103-4.977 6.69-9.079 5.779l-11.433-2.54c-4.103-.911-6.69-4.977-5.779-9.079l7.538-33.933c.911-4.103 4.977-6.69 9.079-5.779l11.433 2.54c4.103.911 6.69 4.976 5.779 9.079z" fill="#97e7ea"/></g><g><path d="m454.112 434.462h-104.665c-5.523 0-10-4.477-10-10v-104.666c0-5.523 4.477-10 10-10h104.665c5.523 0 10 4.477 10 10v104.665c0 5.523-4.477 10.001-10 10.001z" fill="#00da9f"/></g><g><path d="m283.663 436.593h-62.675c-5.523 0-10-4.477-10-10v-244.407c0-5.523 4.477-10 10-10h62.675c5.523 0 10 4.477 10 10v244.408c0 5.522-4.477 9.999-10 9.999z" fill="#00cdff"/></g><g><circle cx="388.985" cy="210.356" fill="#ff6472" r="46.678"/></g><g><path d="m129.215 434.462h-37.989c-22.179 0-40.158-17.979-40.158-40.158v-4.293c0-22.179 17.979-40.158 40.158-40.158h37.988c22.179 0 40.158 17.979 40.158 40.158v4.293c0 22.178-17.979 40.158-40.157 40.158z" fill="#ff9f45"/></g><g><path d="m457.315 295.282 24.09 25.059c2.913 3.03 2.818 7.848-.212 10.76l-8.443 8.116c-3.03 2.913-7.848 2.818-10.76-.212l-24.09-25.059c-2.913-3.03-2.818-7.848.212-10.76l8.443-8.116c3.03-2.913 7.847-2.818 10.76.212z" fill="#97e7ea"/></g><g><path d="m346.243 295.282-24.09 25.059c-2.913 3.03-2.818 7.848.212 10.76l8.443 8.116c3.03 2.913 7.848 2.818 10.76-.212l24.09-25.059c2.913-3.03 2.818-7.848-.212-10.76l-8.443-8.116c-3.029-2.913-7.847-2.818-10.76.212z" fill="#97e7ea"/></g></g><g><path d="m476.325 120.266h-128.402l-68.767-53.273c.519-1.958.799-4.012.799-6.131 0-13.208-10.746-23.955-23.955-23.955s-23.955 10.746-23.955 23.955c0 2.119.28 4.174.799 6.132l-68.767 53.273h-128.403c-19.671-.001-35.674 16.003-35.674 35.674v23.531c0 4.142 3.358 7.5 7.5 7.5s7.5-3.358 7.5-7.5v-23.531c0-11.4 9.274-20.675 20.674-20.675h440.651c11.4 0 20.675 9.275 20.675 20.675v283.478c0 11.4-9.275 20.675-20.675 20.675h-440.651c-11.4 0-20.674-9.275-20.674-20.675v-223.947c0-4.142-3.358-7.5-7.5-7.5s-7.5 3.358-7.5 7.5v223.947c0 19.671 16.003 35.675 35.674 35.675h440.651c19.671 0 35.675-16.004 35.675-35.675v-283.478c0-19.671-16.004-35.675-35.675-35.675zm-220.325-68.359c4.938 0 8.955 4.017 8.955 8.955s-4.017 8.955-8.955 8.955-8.955-4.017-8.955-8.955 4.017-8.955 8.955-8.955zm-14.917 27.678c4.096 3.27 9.28 5.232 14.917 5.232s10.821-1.962 14.917-5.232l52.513 40.682h-134.86z"/><path d="m135.409 163.937c-2.167-3.405-5.531-5.762-9.471-6.638l-11.433-2.54c-3.941-.875-7.986-.164-11.39 2.003-3.405 2.167-5.762 5.531-6.637 9.47l-4.165 18.746h-34.425c-9.649 0-17.5 7.85-17.5 17.5v104.665c0 9.65 7.851 17.5 17.5 17.5h104.665c9.649 0 17.5-7.85 17.5-17.5v-104.664c0-9.65-7.851-17.5-17.5-17.5h-27.285l2.144-9.652c.875-3.94.164-7.985-2.003-11.39zm-24.287 5.548c.01-.045.066-.085.114-.085.006 0 .012 0 .017.002l11.433 2.54c.051.011.095.081.083.131l-7.538 33.933c-.014.06-.072.097-.132.084l-11.433-2.54c-.05-.011-.095-.081-.084-.132zm51.431 30.494c1.378 0 2.5 1.122 2.5 2.5v104.665c0 1.378-1.122 2.5-2.5 2.5h-104.665c-1.378 0-2.5-1.122-2.5-2.5v-104.665c0-1.378 1.122-2.5 2.5-2.5h31.094l-.042.187c-.875 3.94-.164 7.985 2.003 11.39s5.53 5.762 9.471 6.637l11.433 2.54c1.099.244 2.197.361 3.279.361 6.925 0 13.186-4.801 14.749-11.835l2.062-9.281h30.616z"/><path d="m114.462 257.398c-2.031 1.169-3.409 2.737-4.412 4.216l-7.868-10.029c-5.739-7.316-11.829-10.07-18.097-8.184-3.058.92-5.691 2.935-8.052 6.162-4.314 5.897-6.477 13.163-6.089 20.46.219 4.136 3.752 7.307 7.887 7.092 4.136-.22 7.312-3.751 7.092-7.887-.202-3.799.971-7.739 3.216-10.809.004-.005.008-.01.012-.016.513.446 1.254 1.196 2.229 2.44l10.334 13.173c1.099 1.401 3.386 4.315 7.429 5.172.733.155 1.466.231 2.193.231 4.158 0 8.115-2.486 10.684-6.847.211-.358.416-.726.618-1.097.426.327.891.72 1.374 1.128 1.19 1.006 2.538 2.147 4.242 3.151 5.937 3.498 13.617 3.513 19.567.039 3.577-2.088 4.784-6.681 2.696-10.258-2.089-3.578-6.682-4.784-10.258-2.696-1.273.743-3.119.74-4.39-.009-.605-.357-1.365-.999-2.169-1.679-.973-.823-2.075-1.755-3.397-2.625-4.912-3.229-10.46-3.651-14.841-1.128z"/><path d="m293.663 320.492c4.142 0 7.5-3.358 7.5-7.5v-130.806c0-9.65-7.851-17.5-17.5-17.5h-62.675c-9.649 0-17.5 7.85-17.5 17.5v244.407c0 9.65 7.851 17.5 17.5 17.5h62.675c9.649 0 17.5-7.85 17.5-17.5v-77.602c0-4.142-3.358-7.5-7.5-7.5s-7.5 3.358-7.5 7.5v77.602c0 1.378-1.122 2.5-2.5 2.5h-62.675c-1.378 0-2.5-1.122-2.5-2.5v-244.407c0-1.378 1.122-2.5 2.5-2.5h62.675c1.378 0 2.5 1.122 2.5 2.5v130.806c0 4.142 3.358 7.5 7.5 7.5z"/><path d="m269.347 202.944h-34.043c-4.142 0-7.5 3.358-7.5 7.5s3.358 7.5 7.5 7.5h34.043c4.142 0 7.5-3.358 7.5-7.5s-3.358-7.5-7.5-7.5z"/><path d="m269.347 238.327h-34.043c-4.142 0-7.5 3.358-7.5 7.5s3.358 7.5 7.5 7.5h34.043c4.142 0 7.5-3.358 7.5-7.5s-3.358-7.5-7.5-7.5z"/><path d="m269.347 273.71h-34.043c-4.142 0-7.5 3.358-7.5 7.5s3.358 7.5 7.5 7.5h34.043c4.142 0 7.5-3.358 7.5-7.5s-3.358-7.5-7.5-7.5z"/><path d="m269.347 309.092h-34.043c-4.142 0-7.5 3.358-7.5 7.5s3.358 7.5 7.5 7.5h34.043c4.142 0 7.5-3.358 7.5-7.5s-3.358-7.5-7.5-7.5z"/><path d="m269.347 344.475h-34.043c-4.142 0-7.5 3.358-7.5 7.5s3.358 7.5 7.5 7.5h34.043c4.142 0 7.5-3.358 7.5-7.5s-3.358-7.5-7.5-7.5z"/><path d="m268.934 373.218h-33.216c-4.142 0-7.5 3.358-7.5 7.5s3.358 7.5 7.5 7.5h33.216c4.142 0 7.5-3.358 7.5-7.5s-3.358-7.5-7.5-7.5z"/><path d="m388.985 264.534c29.874 0 54.178-24.304 54.178-54.178s-24.304-54.178-54.178-54.178-54.178 24.304-54.178 54.178 24.304 54.178 54.178 54.178zm0-93.356c21.603 0 39.178 17.575 39.178 39.178s-17.575 39.178-39.178 39.178-39.178-17.575-39.178-39.178 17.575-39.178 39.178-39.178z"/><path d="m373.492 225.849c1.464 1.465 3.384 2.197 5.303 2.197s3.839-.732 5.303-2.197l4.887-4.887 4.887 4.887c1.464 1.465 3.384 2.197 5.303 2.197s3.839-.732 5.303-2.197c2.929-2.929 2.929-7.677 0-10.606l-4.887-4.887 4.887-4.887c2.929-2.929 2.929-7.678 0-10.606-2.929-2.929-7.678-2.929-10.606 0l-4.887 4.887-4.887-4.887c-2.928-2.929-7.677-2.929-10.606 0s-2.929 7.677 0 10.606l4.887 4.887-4.887 4.887c-2.93 2.929-2.93 7.678 0 10.606z"/><path d="m370.742 354.492h36.487c4.142 0 7.5-3.358 7.5-7.5s-3.358-7.5-7.5-7.5h-36.487c-4.142 0-7.5 3.358-7.5 7.5s3.358 7.5 7.5 7.5z"/><path d="m370.742 387.247h62.075c4.142 0 7.5-3.358 7.5-7.5s-3.358-7.5-7.5-7.5h-62.075c-4.142 0-7.5 3.358-7.5 7.5s3.358 7.5 7.5 7.5z"/><path d="m129.214 342.353h-37.988c-26.278 0-47.658 21.379-47.658 47.658v4.293c0 26.279 21.379 47.658 47.658 47.658h37.988c26.278 0 47.658-21.379 47.658-47.658v-4.293c0-26.278-21.379-47.658-47.658-47.658zm32.658 51.951c0 18.008-14.65 32.658-32.658 32.658h-37.988c-18.007 0-32.658-14.65-32.658-32.658v-4.293c0-18.008 14.65-32.658 32.658-32.658h37.988c18.007 0 32.658 14.65 32.658 32.658z"/><path d="m131.619 384.657h-42.797c-4.142 0-7.5 3.358-7.5 7.5s3.358 7.5 7.5 7.5h42.796c4.142 0 7.5-3.358 7.5-7.5s-3.357-7.5-7.499-7.5z"/><path d="m312.533 325.913c.08 4.035 1.726 7.798 4.635 10.595l8.443 8.117c1.813 1.743 3.983 2.974 6.335 3.64v76.197c0 9.649 7.851 17.5 17.5 17.5h104.665c9.649 0 17.5-7.851 17.5-17.5v-76.203c2.307-.653 4.491-1.861 6.336-3.635l8.443-8.117c2.91-2.797 4.556-6.56 4.635-10.595.08-4.035-1.417-7.86-4.214-10.77l-24.089-25.059c-5.775-6.006-15.359-6.195-21.365-.421l-8.443 8.117c-1.367 1.315-2.444 2.848-3.221 4.517h-55.826c-.778-1.669-1.854-3.203-3.222-4.517l-8.443-8.116c-6.006-5.774-15.59-5.585-21.365.421l-24.089 25.059c-2.798 2.91-4.295 6.735-4.215 10.77zm130.777-17.32 8.442-8.116c.021-.021.049-.031.077-.031.029 0 .059.011.08.034l24.089 25.059c.036.037.034.12-.003.156l-8.442 8.116c-.044.042-.115.041-.157-.003l-24.09-25.06c-.035-.037-.034-.119.004-.155zm-70.748 8.704h58.434c.451.645 25.586 26.907 25.586 26.907.009.01.02.018.029.027v80.231c0 1.378-1.122 2.5-2.5 2.5h-104.664c-1.378 0-2.5-1.122-2.5-2.5v-80.232c.009-.01.02-.018.029-.027 0 0 25.135-26.261 25.586-26.906zm-45.001 8.242 24.089-25.059c.042-.045.113-.045.156-.003l8.443 8.116c.037.036.039.118.003.156l-24.09 25.059c-.035.038-.118.039-.155.003l-8.443-8.116c-.038-.036-.04-.119-.003-.156z"/></g></g><g/><g/><g/><g/><g/><g/><g/><g/><g/><g/><g/><g/><g/><g/><g/></svg>