<svg id="Capa_1" enable-background="new 0 0 512 512" viewBox="0 0 512 512" xmlns="http://www.w3.org/2000/svg"><g><g><g><path d="m295.09 504.5h-78.181c-3.603 0-6.523-2.921-6.523-6.523v-483.954c0-3.603 2.921-6.523 6.523-6.523h78.181c3.603 0 6.523 2.921 6.523 6.523v483.953c.001 3.603-2.92 6.524-6.523 6.524z" fill="#ac8597"/></g><g><path d="m210.386 410.222h91.228v49.365h-91.228z" fill="#916e7d"/></g><g><circle cx="256" cy="240.457" fill="#0bf" r="194.002"/></g><g><circle cx="256" cy="240.457" fill="#f9f1f4" r="153.505"/></g><g><path d="m256 86.952c-5.062 0-10.064.252-15 .731 77.738 7.54 138.505 73.058 138.505 152.774s-60.767 145.234-138.505 152.774c4.936.479 9.938.731 15 .731 84.779 0 153.505-68.727 153.505-153.505 0-84.779-68.727-153.505-153.505-153.505z" fill="#ebe1e5"/></g><g><path d="m320.833 167.855c-12.747-12.41-29.502-19.245-47.179-19.245h-49.165c-9.189 0-16.637 7.451-16.634 16.64l.055 156.846c.002 5.638 4.573 10.208 10.212 10.208h20.024c5.64 0 10.212-4.572 10.212-10.212v-34.176c0-3.599 2.909-6.522 6.509-6.539 7.227-.034 14.302-.06 18.787-.06 17.677 0 34.433-6.835 47.179-19.245 12.948-12.606 20.078-29.337 20.078-47.109s-7.13-34.501-20.078-47.108zm-47.179 73.018c-4.605 0-11.888.027-19.281.062-3.209.015-5.822-2.573-5.833-5.782-.037-10.787-.081-29.357-.108-40.281-.008-3.212 2.593-5.819 5.805-5.819h19.416c14.535 0 26.813 11.865 26.813 25.91s-12.277 25.91-26.812 25.91z" fill="#0bf"/></g></g><g><path d="m254.238 181.554c-3.562 0-6.907 1.389-9.422 3.91-2.514 2.521-3.893 5.87-3.883 9.428 0 0 .077 31.552.107 40.29.013 3.556 1.41 6.893 3.936 9.396 2.51 2.489 5.835 3.858 9.368 3.858h.064c7.378-.034 14.647-.062 19.245-.062 18.6 0 34.313-15.3 34.313-33.41s-15.714-33.41-34.313-33.41zm38.729 33.41c0 9.979-8.845 18.41-19.313 18.41-4.261 0-10.81.023-17.619.054-.028-8.754-.098-36.874-.098-36.874h17.717c10.469 0 19.313 8.43 19.313 18.41z"/><path d="m218.123 339.804h20.024c9.766 0 17.711-7.945 17.711-17.712v-33.219c6.877-.032 13.518-.056 17.796-.056 19.643 0 38.256-7.59 52.411-21.371 2.968-2.89 3.032-7.638.143-10.606-2.891-2.968-7.64-3.031-10.605-.142-11.339 11.039-26.236 17.119-41.948 17.119-4.493 0-11.581.026-18.822.06-7.705.037-13.974 6.334-13.974 14.039v34.176c0 1.496-1.216 2.712-2.711 2.712h-20.024c-1.495 0-2.711-1.216-2.712-2.711l-.055-156.847c-.001-2.44.948-4.734 2.674-6.46 1.725-1.726 4.02-2.676 6.46-2.676h49.164c15.712 0 30.609 6.08 41.947 17.119 11.485 11.183 17.811 26.005 17.811 41.735 0 4.641-.553 9.256-1.643 13.718-.983 4.024 1.481 8.083 5.505 9.066 4.025.982 8.082-1.482 9.066-5.505 1.374-5.626 2.071-11.439 2.071-17.278 0-19.812-7.936-38.451-22.347-52.482-14.154-13.782-32.769-21.372-52.411-21.372h-49.164c-6.448 0-12.51 2.511-17.068 7.072-4.559 4.56-7.068 10.623-7.065 17.07l.055 156.846c.002 9.762 7.948 17.705 17.711 17.705z"/><path d="m256 401.462c88.778 0 161.005-72.227 161.005-161.005 0-88.779-72.227-161.005-161.005-161.005s-161.005 72.226-161.005 161.005c0 88.778 72.226 161.005 161.005 161.005zm0-307.01c80.508 0 146.005 65.498 146.005 146.005s-65.497 146.005-146.005 146.005-146.005-65.498-146.005-146.005c0-80.508 65.497-146.005 146.005-146.005z"/><path d="m457.501 240.457c0-92.73-62.968-171.017-148.388-194.383v-32.051c.001-7.732-6.29-14.023-14.023-14.023h-78.18c-7.732 0-14.023 6.291-14.023 14.023v32.037c-18.184 4.956-35.643 12.453-51.842 22.355-3.534 2.161-4.647 6.777-2.487 10.311s6.779 4.646 10.312 2.487c29.168-17.832 62.755-27.257 97.13-27.257 102.838 0 186.502 83.664 186.502 186.501s-83.665 186.501-186.502 186.501-186.501-83.664-186.501-186.501c0-51.613 20.609-99.627 58.032-135.199 3.002-2.854 3.123-7.601.27-10.603-2.854-3.002-7.602-3.123-10.604-.269-19.599 18.629-35.018 40.579-45.829 65.239-11.193 25.534-16.869 52.729-16.869 80.832 0 92.73 62.968 171.017 148.388 194.383v63.136c0 7.732 6.291 14.023 14.023 14.023h78.181c7.732 0 14.023-6.291 14.023-14.023v-63.136c85.419-23.366 148.387-101.653 148.387-194.383zm-239.615-197.88v-27.577h76.228v27.587c-12.347-2.374-25.085-3.632-38.114-3.632-12.861.001-25.619 1.224-38.114 3.622zm76.228 454.423h-76.228v-58.673c12.346 2.374 25.085 3.631 38.113 3.631 13.029 0 25.768-1.258 38.114-3.631v58.673z"/></g></g><g/><g/><g/><g/><g/><g/><g/><g/><g/><g/><g/><g/><g/><g/><g/></svg>