<svg id="Capa_1" enable-background="new 0 0 512 512" viewBox="0 0 512 512" xmlns="http://www.w3.org/2000/svg"><g><g><g><path d="m490.625 148.915h-469.249c-7.663 0-13.875 6.212-13.875 13.875v290.412c0 7.663 6.212 13.875 13.875 13.875h469.249c7.663 0 13.875-6.212 13.875-13.875v-290.412c0-7.663-6.212-13.875-13.875-13.875z" fill="#f9f1f4"/></g><g><path d="m490.625 148.915h-30c7.663 0 13.875 6.212 13.875 13.875v290.412c0 7.663-6.212 13.875-13.875 13.875h30c7.663 0 13.875-6.212 13.875-13.875v-290.411c0-7.664-6.212-13.876-13.875-13.876z" fill="#ebe1e5"/></g><g><path d="m7.5 429.849v23.354c0 7.663 6.212 13.875 13.875 13.875h469.249c7.663 0 13.875-6.212 13.875-13.875v-23.354z" fill="#dac8d1"/></g><g><path d="m474.5 429.849v23.354c0 7.663-6.212 13.875-13.875 13.875h30c7.663 0 13.875-6.212 13.875-13.875v-23.354z" fill="#c6b2bc"/></g><g><path d="m404.912 232.107h-76.885c-9.241 0-16.732-7.491-16.732-16.732 0-9.241 7.491-16.732 16.732-16.732h76.885c9.241 0 16.732 7.491 16.732 16.732 0 9.241-7.491 16.732-16.732 16.732z" fill="#00e894"/></g><g><path d="m267.036 384.845h-167.156c-5.26 0-9.523-4.264-9.523-9.523v-167.156c0-5.26 4.264-9.523 9.523-9.523h167.156c5.26 0 9.523 4.264 9.523 9.523v167.156c0 5.259-4.263 9.523-9.523 9.523z" fill="#ffd42b"/></g><g><g><path d="m161.767 250.815c0 11.51-9.331 20.842-20.842 20.842-11.51 0-20.842-9.331-20.842-20.842s9.331-20.842 20.842-20.842 20.842 9.332 20.842 20.842z" fill="#ff6472"/></g><g><path d="m246.832 332.673c0 11.51-9.331 20.842-20.842 20.842s-20.842-9.331-20.842-20.842 9.331-20.842 20.842-20.842 20.842 9.331 20.842 20.842z" fill="#ff6472"/></g><g><path d="m150.394 353.193h-18.936c-6.104 0-11.052-4.948-11.052-11.052v-18.936c0-6.104 4.948-11.052 11.052-11.052h18.936c6.104 0 11.052 4.948 11.052 11.052v18.936c-.001 6.104-4.949 11.052-11.052 11.052z" fill="#00cdff"/></g></g></g><g><path d="m205.969 73.146c13.363-13.364 31.132-20.724 50.031-20.724 18.9 0 36.669 7.36 50.032 20.724 1.465 1.465 3.384 2.197 5.304 2.197 1.919 0 3.839-.732 5.303-2.197 2.93-2.929 2.93-7.677.001-10.606-16.198-16.198-37.733-25.118-60.64-25.118-22.906 0-44.441 8.92-60.639 25.118-2.929 2.929-2.929 7.678.001 10.606 2.928 2.93 7.677 2.929 10.607 0z"/><path d="m288.9 97.779c1.919 0 3.839-.732 5.304-2.197 2.929-2.929 2.929-7.678 0-10.606-10.205-10.205-23.772-15.825-38.204-15.825-14.431 0-27.998 5.62-38.203 15.824-2.929 2.929-2.929 7.678 0 10.606 2.93 2.929 7.678 2.929 10.607 0 7.371-7.371 17.171-11.431 27.596-11.431s20.226 4.06 27.597 11.431c1.465 1.465 3.384 2.198 5.303 2.198z"/><path d="m237.496 104.675c-2.929 2.929-2.929 7.678.001 10.606s7.677 2.929 10.606-.001c2.109-2.109 4.913-3.271 7.896-3.271s5.788 1.162 7.898 3.272c1.465 1.464 3.384 2.196 5.303 2.196s3.839-.732 5.304-2.197c2.929-2.929 2.929-7.678-.001-10.606-4.943-4.942-11.515-7.665-18.504-7.665-6.989.001-13.561 2.723-18.503 7.666z"/><path d="m490.625 141.415h-469.249c-11.787 0-21.376 9.589-21.376 21.376v290.412c0 11.787 9.589 21.375 21.376 21.375h469.249c11.786 0 21.375-9.589 21.375-21.375v-290.412c0-11.787-9.589-21.376-21.375-21.376zm-469.249 15h469.249c3.516 0 6.375 2.86 6.375 6.375v259.558h-392.227c-4.143 0-7.5 3.358-7.5 7.5s3.357 7.5 7.5 7.5h392.227v15.854c0 3.515-2.859 6.375-6.375 6.375h-469.249c-3.516 0-6.376-2.86-6.376-6.375v-15.854h54.773c4.143 0 7.5-3.358 7.5-7.5s-3.357-7.5-7.5-7.5h-54.773v-259.557c0-3.516 2.86-6.376 6.376-6.376z"/><path d="m453.116 320.266c1.465 1.465 3.384 2.197 5.304 2.197 1.919 0 3.839-.732 5.303-2.197l15.495-15.494c1.406-1.406 2.196-3.314 2.196-5.303s-.79-3.897-2.196-5.303l-15.495-15.494c-2.928-2.93-7.677-2.929-10.606 0s-2.929 7.678 0 10.606l10.191 10.19-10.191 10.19c-2.929 2.93-2.929 7.678-.001 10.608z"/><path d="m48.278 320.266c1.464 1.465 3.384 2.197 5.303 2.197s3.839-.732 5.304-2.197c2.929-2.929 2.929-7.678 0-10.606l-10.191-10.19 10.191-10.19c2.929-2.929 2.929-7.677 0-10.606s-7.678-2.93-10.606 0l-15.495 15.494c-1.406 1.406-2.196 3.314-2.196 5.303s.79 3.897 2.196 5.303z"/><path d="m311.295 278.573h110.349c4.143 0 7.5-3.358 7.5-7.5s-3.357-7.5-7.5-7.5h-110.349c-4.143 0-7.5 3.358-7.5 7.5s3.357 7.5 7.5 7.5z"/><path d="m311.295 307.969h110.349c4.143 0 7.5-3.358 7.5-7.5s-3.357-7.5-7.5-7.5h-110.349c-4.143 0-7.5 3.358-7.5 7.5s3.357 7.5 7.5 7.5z"/><path d="m311.295 346.245h110.349c4.143 0 7.5-3.358 7.5-7.5s-3.357-7.5-7.5-7.5h-110.349c-4.143 0-7.5 3.358-7.5 7.5s3.357 7.5 7.5 7.5z"/><path d="m311.295 375.642h110.349c4.143 0 7.5-3.358 7.5-7.5s-3.357-7.5-7.5-7.5h-110.349c-4.143 0-7.5 3.358-7.5 7.5s3.357 7.5 7.5 7.5z"/><path d="m328.026 239.607h76.886c13.361 0 24.231-10.871 24.231-24.232s-10.87-24.232-24.231-24.232h-76.886c-13.361 0-24.231 10.871-24.231 24.232s10.87 24.232 24.231 24.232zm0-33.464h76.886c5.09 0 9.231 4.142 9.231 9.232 0 5.091-4.142 9.232-9.231 9.232h-76.886c-5.09 0-9.231-4.142-9.231-9.232 0-5.091 4.142-9.232 9.231-9.232z"/><path d="m99.88 392.345h167.156c9.387 0 17.023-7.637 17.023-17.023v-167.156c0-9.387-7.637-17.023-17.023-17.023h-167.156c-9.387 0-17.023 7.637-17.023 17.023v167.156c-.001 9.386 7.636 17.023 17.023 17.023zm-2.024-184.179c0-1.116.908-2.023 2.023-2.023h167.156c1.115 0 2.023.908 2.023 2.023v167.156c0 1.116-.908 2.023-2.023 2.023h-167.155c-1.115 0-2.023-.908-2.023-2.023v-167.156z"/><path d="m133.426 278.142v26.51h-1.969c-10.229 0-18.552 8.322-18.552 18.552v18.936c0 10.23 8.322 18.552 18.552 18.552h18.937c10.229 0 18.552-8.322 18.552-18.552v-2.513h29.57c3.109 12.276 14.247 21.387 27.475 21.387 15.628 0 28.342-12.714 28.342-28.341 0-15.628-12.714-28.342-28.342-28.342-12.833 0-23.694 8.576-27.171 20.296h-29.874v-1.423c0-10.23-8.322-18.552-18.552-18.552h-1.968v-26.51c11.998-3.297 20.841-14.295 20.841-27.327 0-15.627-12.714-28.341-28.341-28.341-15.628 0-28.342 12.714-28.342 28.341 0 13.031 8.843 24.03 20.842 27.327zm92.564 41.189c7.356 0 13.342 5.985 13.342 13.342 0 7.356-5.985 13.341-13.342 13.341s-13.341-5.985-13.341-13.341c0-7.357 5.985-13.342 13.341-13.342zm-72.045 3.874v18.936c0 1.958-1.594 3.552-3.552 3.552h-18.937c-1.958 0-3.552-1.594-3.552-3.552v-18.936c0-1.958 1.594-3.552 3.552-3.552h18.937c1.959-.001 3.552 1.593 3.552 3.552zm-13.019-85.731c7.356 0 13.341 5.985 13.341 13.341 0 7.357-5.984 13.342-13.341 13.342s-13.342-5.985-13.342-13.342 5.985-13.341 13.342-13.341z"/></g></g><g/><g/><g/><g/><g/><g/><g/><g/><g/><g/><g/><g/><g/><g/><g/></svg>