<svg id="Capa_1" enable-background="new 0 0 512 512" viewBox="0 0 512 512" xmlns="http://www.w3.org/2000/svg"><g><g><g><g><path d="m293.579 179.773h-210.361c-5.747 0-10.405-4.659-10.405-10.405v-55.745c0-5.747 4.659-10.405 10.405-10.405h210.361z" fill="#00919e"/></g><g><path d="m263.58 103.217h30v76.555h-30z" fill="#007c88"/></g><g><path d="m428.723 179.773h-135.144v-126.401h145.607v115.936c.001 5.779-4.684 10.465-10.463 10.465z" fill="#c7eef3"/></g><g><path d="m97.528 179.773h314.015v108.242h-314.015z" fill="#00d6dc"/></g><g><path d="m97.528 288.015h314.015v108.242h-314.015z" fill="#c7eef3"/></g><g><path d="m394.422 504.5h-279.774c-9.455 0-17.12-7.665-17.12-17.12v-91.122h314.015v91.122c0 9.455-7.665 17.12-17.121 17.12z" fill="#00d6dc"/></g><g><path d="m381.543 179.773h30v108.242h-30z" fill="#00beca"/></g><g><path d="m381.543 288.015h30v108.243h-30z" fill="#97e7ea"/></g><g><path d="m381.543 396.258v61.122c0 9.455-7.665 17.12-17.12 17.12h-266.895v12.88c0 9.455 7.665 17.12 17.12 17.12h279.775c9.455 0 17.12-7.665 17.12-17.12v-91.122z" fill="#00beca"/></g><g><path d="m278.729 425.369h-48.387c-4.519 0-8.183-3.664-8.183-8.183v-20.929h64.754v20.929c-.001 4.52-3.665 8.183-8.184 8.183z" fill="#00919e"/></g><g><path d="m278.729 317.127h-48.387c-4.519 0-8.183-3.664-8.183-8.183v-20.929h64.754v20.929c-.001 4.519-3.665 8.183-8.184 8.183z" fill="#00919e"/></g><g><path d="m278.729 208.884h-48.387c-4.519 0-8.183-3.664-8.183-8.183v-20.929h64.754v20.929c-.001 4.52-3.665 8.183-8.184 8.183z" fill="#00919e"/></g><g><path d="m439.187 52.521h-362.578c-2.097 0-3.796-1.7-3.796-3.796v-21.195c0-11.062 8.968-20.03 20.03-20.03h326.315c11.062 0 20.03 8.968 20.03 20.03v24.991z" fill="#00919e"/></g><g><path d="m439.187 108.339h-93.321c-8.462 0-15.322-6.86-15.322-15.322v-40.496h108.643z" fill="#00f58e"/></g></g><g><path d="m419.158 0h-326.316c-15.18 0-27.529 12.35-27.529 27.53v21.195c0 6.229 5.067 11.296 11.296 11.296h23.75c4.143 0 7.5-3.358 7.5-7.5s-3.357-7.5-7.5-7.5h-20.046v-17.491c0-6.909 5.621-12.53 12.529-12.53h326.315c6.908 0 12.529 5.621 12.529 12.53v17.491h-295.327c-4.143 0-7.5 3.358-7.5 7.5s3.357 7.5 7.5 7.5h149.721v35.696h-202.862c-9.873 0-17.905 8.032-17.905 17.905v55.745c0 9.873 8.032 17.905 17.905 17.905h6.81v300.108c0 13.576 11.045 24.62 24.62 24.62h279.774c13.575 0 24.62-11.045 24.62-24.62v-300.108h9.68c9.906 0 17.965-8.059 17.965-17.964v-141.778c0-15.18-12.35-27.53-27.529-27.53zm-81.115 60.872h93.644v39.967h-85.821c-4.313 0-7.822-3.509-7.822-7.822v-32.145zm-108.384 126.4h49.753v13.429c0 .377-.307.683-.683.683h-48.388c-.376 0-.683-.306-.683-.683v-13.429zm-149.346-17.905v-55.745c0-1.602 1.304-2.905 2.905-2.905h202.862v22.775h-165.158c-4.143 0-7.5 3.358-7.5 7.5s3.357 7.5 7.5 7.5h165.158v23.78h-202.862c-1.601 0-2.905-1.303-2.905-2.905zm323.729 318.013c0 5.305-4.315 9.62-9.62 9.62h-279.774c-5.305 0-9.62-4.316-9.62-9.62v-83.622h42.322c4.143 0 7.5-3.358 7.5-7.5s-3.357-7.5-7.5-7.5h-42.322v-93.242h109.631v13.428c0 8.648 7.035 15.683 15.683 15.683h48.388c8.647 0 15.683-7.035 15.683-15.683v-13.428h109.631v93.242h-220.694c-4.143 0-7.5 3.358-7.5 7.5s3.357 7.5 7.5 7.5h31.309v13.428c0 8.648 7.035 15.683 15.683 15.683h48.388c8.647 0 15.683-7.035 15.683-15.683v-13.428h109.631v83.622zm-174.383-191.865h49.753v13.428c0 .377-.307.683-.683.683h-48.388c-.376 0-.683-.306-.683-.683v-13.428zm0 108.243h49.753v13.428c0 .377-.307.683-.683.683h-48.388c-.376 0-.683-.306-.683-.683v-13.428zm174.383-123.243h-299.014v-93.243h109.631v13.429c0 8.648 7.035 15.683 15.683 15.683h48.388c8.647 0 15.683-7.035 15.683-15.683v-13.429h109.631v93.243zm24.68-108.243h-127.642v-111.4h21.964v32.145c0 12.584 10.238 22.822 22.822 22.822h85.821v53.469c0 1.635-1.33 2.964-2.965 2.964z"/><path d="m323.843 132.358c-4.143 0-7.5 3.358-7.5 7.5v6.27c0 4.142 3.357 7.5 7.5 7.5s7.5-3.358 7.5-7.5v-6.27c0-4.142-3.357-7.5-7.5-7.5z"/><path d="m353.101 132.358c-4.143 0-7.5 3.358-7.5 7.5v6.27c0 4.142 3.357 7.5 7.5 7.5s7.5-3.358 7.5-7.5v-6.27c0-4.142-3.357-7.5-7.5-7.5z"/><path d="m382.359 132.358c-4.143 0-7.5 3.358-7.5 7.5v6.27c0 4.142 3.357 7.5 7.5 7.5s7.5-3.358 7.5-7.5v-6.27c0-4.142-3.358-7.5-7.5-7.5z"/><path d="m411.616 132.358c-4.143 0-7.5 3.358-7.5 7.5v6.27c0 4.142 3.357 7.5 7.5 7.5s7.5-3.358 7.5-7.5v-6.27c0-4.142-3.358-7.5-7.5-7.5z"/></g></g></g><g/><g/><g/><g/><g/><g/><g/><g/><g/><g/><g/><g/><g/><g/><g/></svg>