<svg id="Capa_1" enable-background="new 0 0 512 512" viewBox="0 0 512 512" xmlns="http://www.w3.org/2000/svg"><g><g><g><g><path d="m450.384 363.635h-388.767c-16.947 0-30.686-13.738-30.686-30.686v-95.341c0-16.947 13.738-30.686 30.686-30.686h388.767c16.947 0 30.686 13.739 30.686 30.686v95.341c0 16.948-13.739 30.686-30.686 30.686z" fill="#00beca"/></g><g><path d="m450.899 204.372c.111 1.064.171 2.143.171 3.236v95.341c0 16.948-13.739 30.686-30.686 30.686h-388.767c-.175 0-.347-.01-.522-.013 1.617 15.425 14.661 27.449 30.515 27.449h388.767c16.948 0 30.686-13.739 30.686-30.686v-95.341c0-16.772-13.459-30.393-30.164-30.672z" fill="#00a5b7"/></g></g><g><g><circle cx="256" cy="285.279" fill="#f9f1f4" r="77.839"/></g><g><path d="m316.974 333.635h-121.947c10.743 13.528 25.884 23.39 43.27 27.436h35.408c17.385-4.046 32.526-13.908 43.269-27.436z" fill="#ebe1e5"/></g></g><g><path d="m497.003 60.643h-482.005c-4.141 0-7.498-3.357-7.498-7.498v-20.685c0-4.141 3.357-7.498 7.498-7.498h482.005c4.141 0 7.498 3.357 7.498 7.498v20.686c-.001 4.14-3.358 7.497-7.498 7.497z" fill="#ffc17f"/></g><g><path d="m327.939 112.445h-143.877c-11.974 0-21.681-9.707-21.681-21.681v-30.373h187.239v30.374c0 11.974-9.707 21.68-21.681 21.68z" fill="#00beca"/></g><g><path d="m314.779 151.508h-117.558c-5.898 0-10.679-4.781-10.679-10.679v-28.384h138.916v28.384c0 5.898-4.781 10.679-10.679 10.679z" fill="#e4f6f7"/></g><g><path d="m224.877 151.508h62.246v55.414h-62.246z" fill="#916e7d"/></g><g><circle cx="256" cy="285.279" fill="#7a5d6a" r="45.207"/></g><g><path d="m429.625 396.787h-347.25c-5.144 0-9.315-4.17-9.315-9.315v-23.355h365.88v23.355c0 5.145-4.17 9.315-9.315 9.315z" fill="#916e7d"/></g></g><g><circle cx="256" cy="285.279" fill="#916e7d" r="45.207"/><g><path d="m256 454.705c22.8 0 44.782-4.797 65.337-14.259 3.763-1.732 5.409-6.187 3.677-9.949-1.73-3.762-6.185-5.408-9.948-3.677-18.574 8.55-38.446 12.885-59.065 12.885-20.623 0-40.5-4.337-59.077-12.89-3.761-1.733-8.217-.087-9.949 3.676s-.087 8.217 3.676 9.949c20.558 9.466 42.544 14.265 65.349 14.265z"/><path d="m359.875 446.842c-30.534 21.39-66.453 32.696-103.875 32.696-36.147 0-71.047-10.607-100.926-30.674-3.438-2.309-8.098-1.394-10.408 2.044-2.309 3.438-1.394 8.098 2.045 10.408 32.36 21.734 70.152 33.222 109.289 33.222 40.518 0 79.412-12.245 112.481-35.411 3.392-2.376 4.216-7.053 1.839-10.446-2.376-3.391-7.053-4.217-10.445-1.839z"/><path d="m256 337.986c29.063 0 52.708-23.645 52.708-52.708s-23.645-52.707-52.708-52.707c-29.062 0-52.707 23.645-52.707 52.708s23.645 52.707 52.707 52.707zm0-90.415c20.792 0 37.708 16.916 37.708 37.708s-16.916 37.707-37.708 37.707-37.707-16.916-37.707-37.708 16.915-37.707 37.707-37.707z"/><path d="m375.053 255.675h59.748c4.143 0 7.5-3.358 7.5-7.5s-3.357-7.5-7.5-7.5h-59.748c-4.143 0-7.5 3.358-7.5 7.5s3.357 7.5 7.5 7.5z"/><path d="m434.801 277.779h-45.778c-4.143 0-7.5 3.358-7.5 7.5s3.357 7.5 7.5 7.5h45.778c4.143 0 7.5-3.358 7.5-7.5s-3.358-7.5-7.5-7.5z"/><path d="m375.053 329.882h59.748c4.143 0 7.5-3.358 7.5-7.5s-3.357-7.5-7.5-7.5h-59.748c-4.143 0-7.5 3.358-7.5 7.5s3.357 7.5 7.5 7.5z"/><path d="m136.947 240.675h-59.747c-4.143 0-7.5 3.358-7.5 7.5s3.357 7.5 7.5 7.5h59.747c4.143 0 7.5-3.358 7.5-7.5s-3.357-7.5-7.5-7.5z"/><path d="m77.2 292.779h45.778c4.143 0 7.5-3.358 7.5-7.5s-3.357-7.5-7.5-7.5h-45.778c-4.143 0-7.5 3.358-7.5 7.5s3.358 7.5 7.5 7.5z"/><path d="m136.947 314.882h-59.747c-4.143 0-7.5 3.358-7.5 7.5s3.357 7.5 7.5 7.5h59.747c4.143 0 7.5-3.358 7.5-7.5s-3.357-7.5-7.5-7.5z"/><path d="m497.003 17.462h-74.995c-4.143 0-7.5 3.358-7.5 7.5s3.357 7.5 7.5 7.5l74.992-.003.003 20.684-482.003.003-.002-20.684h371.01c4.143 0 7.5-3.358 7.5-7.5s-3.357-7.5-7.5-7.5h-371.01c-8.269 0-14.998 6.728-14.998 14.997v20.686c0 8.27 6.729 14.998 14.998 14.998h139.883v22.622c0 14.378 10.456 26.353 24.162 28.74v21.325c0 10.024 8.155 18.179 18.179 18.179h20.155v40.415h-155.761c-21.056 0-38.186 17.13-38.186 38.186v95.341c0 21.056 17.13 38.186 38.186 38.186h3.944v16.337c0 9.272 7.543 16.815 16.814 16.815h23.429c4.143 0 7.5-3.358 7.5-7.5s-3.357-7.5-7.5-7.5h-23.428c-1.001 0-1.814-.814-1.814-1.815v-16.337h350.88v16.337c0 1.001-.814 1.815-1.815 1.815h-287.822c-4.143 0-7.5 3.358-7.5 7.5s3.357 7.5 7.5 7.5h287.821c9.272 0 16.815-7.543 16.815-16.815v-16.337h3.943c21.056 0 38.186-17.13 38.186-38.186v-95.341c0-21.056-17.13-38.186-38.186-38.186h-155.76v-40.415h20.156c10.023 0 18.179-8.155 18.179-18.179v-21.325c13.706-2.387 24.162-14.361 24.162-28.74v-22.622h139.883c8.27 0 14.997-6.728 14.997-14.998v-20.686c0-8.269-6.728-14.997-14.997-14.997zm-241.003 197.477c38.785 0 70.34 31.554 70.34 70.339s-31.555 70.339-70.34 70.339-70.339-31.554-70.339-70.339 31.554-70.339 70.339-70.339zm-217.569 118.01v-95.341c0-12.785 10.401-23.186 23.186-23.186h146.877c-22.8 15.336-37.832 41.373-37.832 70.856s15.032 55.52 37.832 70.856h-146.878c-12.784.001-23.185-10.4-23.185-23.185zm435.138-95.341v95.341c0 12.785-10.401 23.186-23.186 23.186h-146.876c22.8-15.336 37.833-41.373 37.833-70.856s-15.032-55.52-37.833-70.856h146.876c12.785-.001 23.186 10.4 23.186 23.185zm-193.946-38.186h-47.246v-40.415h47.246zm35.156-55.414h-117.557c-1.753 0-3.179-1.426-3.179-3.179v-20.884h123.915v20.884c0 1.753-1.426 3.179-3.179 3.179zm27.341-53.243c0 7.819-6.361 14.181-14.181 14.181h-143.877c-7.819 0-14.181-6.361-14.181-14.181v-22.622h172.239z"/></g></g></g><g/><g/><g/><g/><g/><g/><g/><g/><g/><g/><g/><g/><g/><g/><g/></svg>