<svg id="Capa_1" enable-background="new 0 0 512 512" viewBox="0 0 512 512" xmlns="http://www.w3.org/2000/svg"><g><g><g><path d="m436.656 464.835h-361.313c-11.032 0-19.975-8.943-19.975-19.975v-417.385c0-11.032 8.943-19.975 19.975-19.975h361.313c11.032 0 19.975 8.943 19.975 19.975v417.385c0 11.032-8.943 19.975-19.975 19.975z" fill="#00919e"/></g><g><path d="m436.656 7.5h-16.025v391.167c0 19.975-16.193 36.168-36.168 36.168h-329.094v10.025c0 11.032 8.943 19.975 19.975 19.975h361.313c11.032 0 19.975-8.943 19.975-19.975v-417.385c-.001-11.032-8.944-19.975-19.976-19.975z" fill="#007c88"/></g><g><path d="m122.667 504.5h-18.983c-8.516 0-15.419-6.903-15.419-15.419v-20.506c0-2.066 1.674-3.74 3.74-3.74h42.342c2.066 0 3.74 1.674 3.74 3.74v20.506c-.001 8.516-6.905 15.419-15.42 15.419z" fill="#97e7ea"/></g><g><path d="m415.533 504.5h-18.983c-8.516 0-15.419-6.903-15.419-15.419v-20.506c0-2.066 1.674-3.74 3.74-3.74h42.342c2.066 0 3.74 1.674 3.74 3.74v20.506c0 8.516-6.904 15.419-15.42 15.419z" fill="#97e7ea"/></g><g><path d="m327.554 431.352h-223.738c-6.932 0-12.552-5.62-12.552-12.552v-16.617c0-6.932 5.62-12.552 12.552-12.552h223.738c6.932 0 12.552 5.62 12.552 12.552v16.617c0 6.932-5.62 12.552-12.552 12.552z" fill="#97e7ea"/></g><g><path d="m409.646 153.019h-24.994c-6.343 0-11.486-5.142-11.486-11.486v-83.386c0-6.343 5.142-11.486 11.486-11.486h24.994c6.343 0 11.486 5.142 11.486 11.486v83.385c0 6.344-5.143 11.487-11.486 11.487z" fill="#97e7ea"/></g><g><path d="m413.966 223.988h-33.635c-3.957 0-7.165-3.208-7.165-7.165v-18.363c0-3.957 3.208-7.165 7.165-7.165h33.635c3.957 0 7.165 3.208 7.165 7.165v18.363c.001 3.956-3.207 7.165-7.165 7.165z" fill="#97e7ea"/></g><g><path d="m324.983 358.534h-218.596c-8.352 0-15.123-6.771-15.123-15.123v-281.626c0-8.352 6.771-15.123 15.123-15.123h218.595c8.352 0 15.123 6.771 15.123 15.123v281.627c.001 8.351-6.77 15.122-15.122 15.122z" fill="#f9f1f4"/></g><g><path d="m176.44 287.666h-59.657v-68.126c0-3.132 3.044-5.36 6.029-4.412 15.486 4.913 32.113 4.913 47.599 0 2.985-.947 6.029 1.281 6.029 4.412z" fill="#00da9f"/></g><g><path d="m262.289 287.666h-59.657v-68.126c0-3.132 3.044-5.36 6.029-4.412 15.486 4.913 32.113 4.913 47.599 0 2.985-.947 6.029 1.281 6.029 4.412z" fill="#ffd42b"/></g><g><path d="m91.264 287.666h248.842v30.308h-248.842z" fill="#97e7ea"/></g><g><path d="m91.264 156.655h248.842v30.308h-248.842z" fill="#97e7ea"/></g><g><path d="m157.774 156.263h-31.42c-4.091 0-7.408-3.317-7.408-7.408v-63.494c0-4.091 3.317-7.408 7.408-7.408h31.42c4.091 0 7.408 3.317 7.408 7.408v63.494c0 4.092-3.317 7.408-7.408 7.408z" fill="#ff6472"/></g><g><path d="m305.016 156.263h-31.42c-4.091 0-7.408-3.317-7.408-7.408v-63.494c0-4.091 3.317-7.408 7.408-7.408h31.42c4.091 0 7.408 3.317 7.408 7.408v63.494c0 4.092-3.317 7.408-7.408 7.408z" fill="#ff6472"/></g><g><path d="m230.659 156.263h-31.42c-4.091 0-7.408-3.317-7.408-7.408v-63.494c0-4.091 3.317-7.408 7.408-7.408h31.42c4.091 0 7.408 3.317 7.408 7.408v63.494c0 4.092-3.316 7.408-7.408 7.408z" fill="#00cdff"/></g><g><path d="m176.44 242.083c-.662-.037-1.328-.059-2-.059-19.685 0-35.642 15.958-35.642 35.642 0 3.473.506 6.826 1.432 10h36.21z" fill="#00ad85"/></g><g><path d="m256.26 215.128c-10.476 3.324-21.474 4.391-32.288 3.217-.037.667-.06 1.337-.06 2.013 0 19.685 15.958 35.642 35.642 35.642.921 0 1.832-.046 2.735-.115v-36.345c0-3.132-3.044-5.36-6.029-4.412z" fill="#ffb000"/></g><g><path d="m315.318 287.666h-27.015v-60.201c0-7.46 6.048-13.508 13.508-13.508 7.46 0 13.508 6.048 13.508 13.508v60.201z" fill="#ff9f45"/></g></g><g><path d="m436.656 0h-27.489c-4.143 0-7.5 3.358-7.5 7.5s3.357 7.5 7.5 7.5h27.489c6.879 0 12.476 5.596 12.476 12.475v417.385c0 6.879-5.597 12.475-12.476 12.475h-361.313c-6.878 0-12.475-5.596-12.475-12.475v-417.385c.001-6.879 5.597-12.475 12.475-12.475h297.823c4.143 0 7.5-3.358 7.5-7.5s-3.357-7.5-7.5-7.5h-297.823c-15.149 0-27.474 12.325-27.474 27.475v417.385c0 15.15 12.325 27.475 27.475 27.475h5.421v16.746c0 12.638 10.281 22.919 22.919 22.919h18.983c12.638 0 22.919-10.282 22.919-22.919v-16.746h228.044v16.746c0 12.638 10.282 22.919 22.92 22.919h18.982c12.638 0 22.92-10.282 22.92-22.919v-16.811c14.315-.929 25.679-12.864 25.679-27.41v-417.385c0-15.15-12.325-27.475-27.475-27.475zm-306.071 489.081c0 4.367-3.553 7.919-7.919 7.919h-18.983c-4.366 0-7.919-3.553-7.919-7.919v-16.746h34.821zm284.948 7.919h-18.983c-4.367 0-7.92-3.553-7.92-7.919v-16.746h34.822v16.746c.001 4.366-3.552 7.919-7.919 7.919z"/><path d="m347.606 61.785c0-12.475-10.148-22.624-22.623-22.624h-218.596c-12.475 0-22.623 10.149-22.623 22.624v281.626c0 12.475 10.148 22.623 22.623 22.623h16.231c4.143 0 7.5-3.358 7.5-7.5s-3.357-7.5-7.5-7.5h-16.231c-4.203 0-7.623-3.42-7.623-7.623v-17.937h233.842v17.937c0 4.203-3.42 7.623-7.623 7.623h-167.364c-4.143 0-7.5 3.358-7.5 7.5s3.357 7.5 7.5 7.5h167.364c12.475 0 22.623-10.148 22.623-22.623zm-51.804 218.381v-52.701c0-3.312 2.695-6.007 6.008-6.007s6.008 2.695 6.008 6.007v52.701zm6.008-73.708c-11.584 0-21.008 9.424-21.008 21.007v52.701h-11.014v-60.626c0-3.853-1.856-7.512-4.965-9.788s-7.158-2.939-10.833-1.774c-14.084 4.47-28.975 4.47-43.062 0-3.67-1.166-7.721-.502-10.831 1.774-3.109 2.275-4.966 5.935-4.966 9.788v60.626h-11.191v-60.626c0-3.853-1.856-7.512-4.966-9.788s-7.159-2.939-10.832-1.774c-14.086 4.47-28.977 4.47-43.062 0-3.674-1.166-7.723-.502-10.832 1.774-3.108 2.276-4.965 5.935-4.965 9.788v60.626h-10.519v-85.702h233.842v85.702h-9.788v-52.701c0-11.584-9.424-21.007-21.008-21.007zm-91.679 73.708v-56.794c14.685 3.95 29.975 3.951 44.657 0v56.794zm-85.848 0v-56.794c14.683 3.95 29.975 3.951 44.657 0v56.794zm33.399-181.997c-8.356 9.446-19.184 16.163-31.236 19.459v-32.175h31.236zm-31.236 50.686v-15.792c11.419-2.503 22.054-7.442 31.236-14.474v30.266c0 .101.011.2.015.3h-31.267c.005-.1.016-.198.016-.3zm206.16 15.3v15.309h-233.842v-15.309zm-102.039-65.986c-8.356 9.446-19.184 16.163-31.236 19.459v-32.175h31.236zm-31.236 50.686v-15.792c11.419-2.503 22.054-7.442 31.236-14.474v30.266c0 .101.011.2.015.3h-31.267c.004-.1.016-.198.016-.3zm105.593-50.686c-8.356 9.446-19.184 16.163-31.236 19.459v-32.175h31.236zm-31.236 50.686v-15.792c11.419-2.503 22.054-7.442 31.236-14.474v30.266c0 .101.011.2.015.3h-31.267c.005-.1.016-.198.016-.3zm-167.301-94.694h218.596c4.203 0 7.623 3.42 7.623 7.624v87.371h-12.697c.004-.1.015-.199.015-.3v-63.495c0-8.22-6.688-14.908-14.908-14.908h-31.42c-8.221 0-14.908 6.688-14.908 14.908v63.495c0 .101.011.2.015.3h-13.151c.004-.1.015-.199.015-.3v-63.495c0-8.22-6.688-14.908-14.907-14.908h-31.421c-8.221 0-14.908 6.688-14.908 14.908v63.495c0 .101.011.2.015.3h-11.679c.004-.1.015-.199.015-.3v-63.495c0-8.22-6.688-14.908-14.908-14.908h-31.42c-8.221 0-14.908 6.688-14.908 14.908v63.495c0 .101.011.2.015.3h-12.697v-87.371c0-4.204 3.42-7.624 7.623-7.624zm-7.623 256.314v-15.309h233.842v15.309z"/><path d="m103.816 382.131c-11.057 0-20.052 8.995-20.052 20.052v16.617c0 11.057 8.995 20.052 20.052 20.052h223.738c11.057 0 20.052-8.995 20.052-20.052v-16.617c0-11.057-8.995-20.052-20.052-20.052zm228.79 20.052v16.617c0 2.786-2.267 5.052-5.052 5.052h-223.738c-2.785 0-5.052-2.266-5.052-5.052v-16.617c0-2.786 2.267-5.052 5.052-5.052h223.738c2.785 0 5.052 2.266 5.052 5.052z"/><path d="m428.632 58.147c0-10.469-8.518-18.986-18.986-18.986h-24.994c-10.469 0-18.985 8.517-18.985 18.986v83.386c0 10.469 8.517 18.986 18.985 18.986h24.994c10.469 0 18.986-8.517 18.986-18.986zm-15 83.386c0 2.198-1.788 3.986-3.986 3.986h-24.994c-2.197 0-3.985-1.788-3.985-3.986v-83.386c0-2.198 1.788-3.986 3.985-3.986h24.994c2.198 0 3.986 1.788 3.986 3.986z"/><path d="m389.775 269.144c0-4.142-3.357-7.5-7.5-7.5s-7.5 3.358-7.5 7.5v10.662c0 4.142 3.357 7.5 7.5 7.5s7.5-3.358 7.5-7.5z"/><path d="m419.523 269.144c0-4.142-3.357-7.5-7.5-7.5s-7.5 3.358-7.5 7.5v10.662c0 4.142 3.357 7.5 7.5 7.5s7.5-3.358 7.5-7.5z"/><path d="m389.775 310.644c0-4.142-3.357-7.5-7.5-7.5s-7.5 3.358-7.5 7.5v10.662c0 4.142 3.357 7.5 7.5 7.5s7.5-3.358 7.5-7.5z"/><path d="m419.523 310.644c0-4.142-3.357-7.5-7.5-7.5s-7.5 3.358-7.5 7.5v10.662c0 4.142 3.357 7.5 7.5 7.5s7.5-3.358 7.5-7.5z"/><path d="m389.775 352.143c0-4.142-3.357-7.5-7.5-7.5s-7.5 3.358-7.5 7.5v10.663c0 4.142 3.357 7.5 7.5 7.5s7.5-3.358 7.5-7.5z"/><path d="m419.523 352.143c0-4.142-3.357-7.5-7.5-7.5s-7.5 3.358-7.5 7.5v10.663c0 4.142 3.357 7.5 7.5 7.5s7.5-3.358 7.5-7.5z"/><path d="m382.275 384.143c-4.143 0-7.5 3.358-7.5 7.5v10.663c0 4.142 3.357 7.5 7.5 7.5s7.5-3.358 7.5-7.5v-10.663c0-4.142-3.358-7.5-7.5-7.5z"/><path d="m412.023 384.143c-4.143 0-7.5 3.358-7.5 7.5v10.663c0 4.142 3.357 7.5 7.5 7.5s7.5-3.358 7.5-7.5v-10.663c0-4.142-3.357-7.5-7.5-7.5z"/><path d="m428.632 216.822v-18.363c0-8.086-6.579-14.666-14.666-14.666h-33.635c-8.086 0-14.665 6.579-14.665 14.666v18.363c0 8.086 6.579 14.666 14.665 14.666h33.635c8.087 0 14.666-6.579 14.666-14.666zm-15-.334h-32.966v-17.694h32.966z"/></g></g><g/><g/><g/><g/><g/><g/><g/><g/><g/><g/><g/><g/><g/><g/><g/></svg>