<svg id="Capa_1" enable-background="new 0 0 512 512" viewBox="0 0 512 512" xmlns="http://www.w3.org/2000/svg"><g><g><g><path d="m465.186 407.057h-418.372c-21.713 0-39.314-17.601-39.314-39.314v-274.503c0-24.651 19.984-44.635 44.635-44.635h407.729c24.651 0 44.635 19.984 44.635 44.635v274.504c.001 21.712-17.601 39.313-39.313 39.313z" fill="#f9f1f4"/></g><g><path d="m465.186 407.057h-418.372c-21.713 0-39.314-17.601-39.314-39.314v-274.503c0-24.651 19.984-44.635 44.635-44.635h407.729c24.651 0 44.635 19.984 44.635 44.635v274.504c.001 21.712-17.601 39.313-39.313 39.313z" fill="#f9f1f4"/></g><g><path d="m459.864 48.604h-21c24.652 0 44.635 19.984 44.635 44.635v274.504c0 21.713-17.601 39.314-39.314 39.314h21c21.713 0 39.314-17.601 39.314-39.314v-274.503c.001-24.652-19.983-44.636-44.635-44.636z" fill="#ebe1e5"/></g><g><path d="m461.341 340.712h-410.682v-231.522c0-11.335 9.189-20.524 20.524-20.524h369.634c11.335 0 20.524 9.189 20.524 20.524z" fill="#00da9f"/></g><g><g><path d="m7.5 340.712v27.031c0 21.713 17.602 39.314 39.314 39.314h418.372c21.713 0 39.314-17.601 39.314-39.314v-27.031z" fill="#00919e"/></g><g><path d="m483.475 340.712c-.516 21.263-17.902 38.345-39.29 38.345h-418.371c-6.352 0-12.348-1.516-17.658-4.191 3.353 18.31 19.379 32.191 38.658 32.191h418.372c21.713 0 39.314-17.601 39.314-39.314v-27.031z" fill="#007c88"/></g></g><g><path d="m191.772 407.057h128.457v56.338h-128.457z" fill="#97e7ea"/></g><g><path d="m216.367 241.301h-99.717c-8.284 0-15-6.716-15-15v-89.365c0-8.284 6.716-15 15-15h99.716c8.284 0 15 6.716 15 15v89.365c.001 8.284-6.715 15-14.999 15z" fill="#f9f1f4"/></g><g><circle cx="167.543" cy="180.235" fill="#ffc17f" r="18.611"/></g><g><path d="m209.403 241.301c.003-.194.015-.387.015-.582 0-23.127-18.748-41.874-41.874-41.874s-41.874 18.748-41.874 41.874c0 .195.012.387.015.582z" fill="#00abff"/></g><g><path d="m395.35 241.301h-99.716c-8.284 0-15-6.716-15-15v-89.365c0-8.284 6.716-15 15-15h99.716c8.284 0 15 6.716 15 15v89.365c0 8.284-6.716 15-15 15z" fill="#f9f1f4"/></g><g><circle cx="346.526" cy="180.235" fill="#ffc17f" r="18.611"/></g><g><path d="m388.386 241.301c.003-.194.015-.387.015-.582 0-23.127-18.748-41.874-41.874-41.874s-41.874 18.748-41.874 41.874c0 .195.012.387.015.582z" fill="#00abff"/></g><g><path d="m215.483 307.442h-97.95c-8.772 0-15.883-7.111-15.883-15.883v-1.116c0-8.772 7.111-15.883 15.883-15.883h97.95c8.772 0 15.883 7.111 15.883 15.883v1.116c.001 8.772-7.111 15.883-15.883 15.883z" fill="#ffd42b"/></g><g><path d="m394.466 307.442h-97.95c-8.772 0-15.883-7.111-15.883-15.883v-1.116c0-8.772 7.111-15.883 15.883-15.883h97.95c8.772 0 15.883 7.111 15.883 15.883v1.116c.001 8.772-7.111 15.883-15.883 15.883z" fill="#ffd42b"/></g></g><g><path d="m459.865 41.104h-407.73c-28.747 0-52.135 23.388-52.135 52.136v274.504c0 25.813 21 46.814 46.814 46.814h137.458v41.338h-30.159c-4.143 0-7.5 3.358-7.5 7.5s3.357 7.5 7.5 7.5h203.773c4.143 0 7.5-3.358 7.5-7.5s-3.357-7.5-7.5-7.5h-30.158v-14.838c0-4.142-3.357-7.5-7.5-7.5s-7.5 3.358-7.5 7.5v14.838h-113.456v-41.338h265.914c25.814-.001 46.814-21.002 46.814-46.815v-274.503c0-28.748-23.388-52.136-52.135-52.136zm-407.73 15h407.729c20.477 0 37.136 16.659 37.136 37.136v239.973h-28.158v-224.023c0-15.453-12.571-28.024-28.024-28.024h-282.82c-4.143 0-7.5 3.358-7.5 7.5s3.357 7.5 7.5 7.5h282.819c7.182 0 13.024 5.843 13.024 13.024v224.022h-395.682v-224.022c0-7.182 5.843-13.024 13.024-13.024h50.814c4.143 0 7.5-3.358 7.5-7.5s-3.357-7.5-7.5-7.5h-50.814c-15.453 0-28.024 12.572-28.024 28.024v224.022h-28.159v-239.972c0-20.477 16.659-37.136 37.135-37.136zm413.051 343.453h-418.372c-17.543 0-31.814-14.272-31.814-31.814v-19.531h482v19.531c0 17.542-14.272 31.814-31.814 31.814z"/><path d="m94.15 136.936v89.365c0 12.406 10.094 22.5 22.5 22.5h99.717c12.406 0 22.5-10.094 22.5-22.5v-89.365c0-12.406-10.094-22.5-22.5-22.5h-99.717c-12.406 0-22.5 10.094-22.5 22.5zm62.283 43.299c0-6.126 4.984-11.111 11.11-11.111s11.11 4.984 11.11 11.111-4.984 11.111-11.11 11.111-11.11-4.985-11.11-11.111zm11.11 26.11c16.593 0 30.477 11.818 33.678 27.456h-67.353c3.211-15.649 17.09-27.456 33.675-27.456zm56.324-69.409v89.365c0 4.117-3.334 7.467-7.444 7.497-2.367-16.795-13.211-30.897-28.056-37.832 3.316-4.378 5.288-9.828 5.288-15.732 0-14.397-11.713-26.111-26.11-26.111s-26.11 11.713-26.11 26.111c0 5.903 1.972 11.353 5.288 15.732-14.846 6.936-25.69 21.039-28.057 37.835h-2.014c-4.136 0-7.5-3.365-7.5-7.5v-89.365c0-4.135 3.364-7.5 7.5-7.5h99.717c4.133 0 7.498 3.365 7.498 7.5z"/><path d="m295.633 248.801h99.716c12.406 0 22.5-10.094 22.5-22.5v-89.365c0-12.406-10.094-22.5-22.5-22.5h-99.716c-12.406 0-22.5 10.094-22.5 22.5v89.365c0 12.407 10.094 22.5 22.5 22.5zm39.783-68.566c0-6.126 4.984-11.111 11.111-11.111 6.126 0 11.11 4.984 11.11 11.111s-4.984 11.111-11.11 11.111c-6.127-.001-11.111-4.985-11.111-11.111zm11.111 26.11c16.593 0 30.477 11.818 33.678 27.456h-67.354c3.211-15.649 17.091-27.456 33.676-27.456zm-58.394-69.409c0-4.135 3.364-7.5 7.5-7.5h99.716c4.136 0 7.5 3.365 7.5 7.5v89.365c0 4.116-3.334 7.466-7.443 7.497-2.367-16.795-13.211-30.897-28.056-37.832 3.316-4.378 5.288-9.828 5.288-15.732 0-14.397-11.713-26.111-26.11-26.111s-26.111 11.713-26.111 26.111c0 5.903 1.972 11.353 5.288 15.732-14.846 6.936-25.691 21.039-28.057 37.835h-2.013c-4.136 0-7.5-3.365-7.5-7.5v-89.365z"/><path d="m215.483 267.059h-97.949c-12.894 0-23.384 10.49-23.384 23.383v1.116c0 12.894 10.49 23.384 23.384 23.384h97.949c12.894 0 23.384-10.49 23.384-23.384v-1.116c0-12.893-10.491-23.383-23.384-23.383zm8.384 24.499c0 4.623-3.761 8.384-8.384 8.384h-97.949c-4.623 0-8.384-3.761-8.384-8.384v-1.116c0-4.623 3.761-8.383 8.384-8.383h97.949c4.623 0 8.384 3.761 8.384 8.383z"/><path d="m296.516 314.942h97.95c12.894 0 23.383-10.49 23.383-23.384v-1.116c0-12.894-10.489-23.383-23.383-23.383h-97.95c-12.894 0-23.383 10.49-23.383 23.383v1.116c0 12.894 10.49 23.384 23.383 23.384zm-8.383-24.5c0-4.623 3.761-8.383 8.383-8.383h97.95c4.622 0 8.383 3.761 8.383 8.383v1.116c0 4.623-3.761 8.384-8.383 8.384h-97.95c-4.622 0-8.383-3.761-8.383-8.384z"/></g></g><g/><g/><g/><g/><g/><g/><g/><g/><g/><g/><g/><g/><g/><g/><g/></svg>