<svg id="Capa_1" enable-background="new 0 0 512 512" height="512" viewBox="0 0 512 512" width="512" xmlns="http://www.w3.org/2000/svg"><g><path d="m390.878 189.33h-.1c-6.052 0-11.168-4.373-12.236-10.33-1.699-9.471-4.174-18.672-7.357-27.535-2.046-5.697.191-12.042 5.433-15.069l.066-.038c9.487-5.477 13.308-17.52 8.171-27.195-5.393-10.158-18.08-13.741-27.955-8.039l-.517.298c-5.237 3.024-11.846 1.797-15.755-2.817-6.154-7.265-12.9-14.012-20.165-20.165-4.614-3.908-5.841-10.518-2.817-15.755l.298-.517c5.579-9.663 2.268-22.019-7.395-27.598-9.663-5.579-22.019-2.268-27.598 7.395l-.28.486c-3.027 5.243-9.372 7.48-15.069 5.433-8.864-3.184-18.065-5.658-27.535-7.357-5.957-1.069-10.33-6.185-10.33-12.236v-.584c0-11.158-9.045-20.203-20.203-20.203-11.158 0-20.203 9.045-20.203 20.203v.584c0 6.052-4.373 11.168-10.33 12.236-9.471 1.699-18.672 4.174-27.535 7.357-5.697 2.046-12.042-.191-15.069-5.433l-.281-.486c-5.579-9.663-17.935-12.974-27.598-7.395-9.663 5.579-12.974 17.935-7.395 27.598l.298.517c3.024 5.237 1.797 11.846-2.817 15.755-7.265 6.154-14.012 12.9-20.165 20.165-3.908 4.614-10.518 5.841-15.755 2.817l-.098-.056c-9.487-5.477-21.826-2.765-27.637 6.521-6.101 9.749-2.86 22.528 7.015 28.229l.486.28c5.243 3.027 7.48 9.372 5.433 15.069-3.184 8.864-5.658 18.065-7.357 27.535-1.069 5.957-6.185 10.33-12.236 10.33h-.1c-10.955 0-20.285 8.518-20.674 19.466-.409 11.494 8.788 20.94 20.19 20.94h.584c6.052 0 11.168 4.373 12.236 10.33 1.699 9.471 4.174 18.672 7.357 27.535 2.046 5.697-.191 12.042-5.433 15.069l-.067.038c-9.487 5.477-13.308 17.52-8.171 27.195 5.393 10.158 18.08 13.741 27.955 8.039l.517-.298c5.237-3.023 11.846-1.797 15.755 2.817 6.154 7.265 12.9 14.012 20.165 20.165 4.614 3.908 5.841 10.518 2.817 15.755l-.298.517c-5.579 9.663-2.268 22.019 7.395 27.598 9.663 5.579 22.019 2.268 27.598-7.395l.281-.486c3.027-5.242 9.372-7.48 15.069-5.433 8.864 3.184 18.065 5.658 27.535 7.357 5.957 1.069 10.33 6.185 10.33 12.236v.584c0 11.158 9.045 20.203 20.203 20.203 11.158 0 20.203-9.045 20.203-20.203v-.584c0-6.052 4.373-11.168 10.33-12.236 9.471-1.699 18.672-4.174 27.535-7.357 5.697-2.046 12.042.191 15.069 5.433l.28.486c5.579 9.663 17.935 12.974 27.598 7.395 9.663-5.579 12.974-17.935 7.395-27.598l-.298-.517c-3.024-5.237-1.797-11.846 2.817-15.755 7.265-6.154 14.012-12.9 20.165-20.165 3.908-4.614 10.518-5.841 15.755-2.817l.097.056c9.487 5.477 21.826 2.765 27.637-6.521 6.101-9.749 2.86-22.528-7.015-28.229l-.486-.28c-5.242-3.027-7.48-9.372-5.433-15.069 3.184-8.864 5.658-18.065 7.357-27.535 1.069-5.957 6.185-10.33 12.236-10.33h.584c11.402 0 20.599-9.446 20.19-20.94-.387-10.947-9.718-19.466-20.672-19.466z" fill="#a2e62e"/><g><path d="m376.617 136.396.066-.038c.32-.185.617-.395.924-.595-14.425-3.281-29.43-5.022-44.835-5.022-111.4 0-202.03 90.63-202.03 202.03 0 15.415 1.743 30.43 5.029 44.865.112-.181.239-.349.346-.535l.281-.486c3.027-5.242 9.372-7.48 15.069-5.433 8.864 3.184 18.065 5.658 27.535 7.357 5.957 1.069 10.33 6.185 10.33 12.236v.584c0 11.158 9.045 20.203 20.203 20.203 11.158 0 20.203-9.045 20.203-20.203v-.584c0-6.052 4.373-11.168 10.329-12.236 9.471-1.699 18.672-4.174 27.535-7.357 5.697-2.046 12.042.191 15.069 5.433l.28.486c5.579 9.663 17.935 12.974 27.598 7.395 9.663-5.579 12.974-17.935 7.395-27.598l-.298-.517c-3.024-5.237-1.797-11.846 2.817-15.755 7.265-6.154 14.012-12.9 20.165-20.165 3.908-4.614 10.518-5.841 15.755-2.817l.097.056c9.487 5.477 21.826 2.765 27.637-6.521 6.101-9.749 2.86-22.528-7.015-28.229l-.486-.28c-5.242-3.027-7.48-9.372-5.433-15.069 3.184-8.864 5.658-18.065 7.357-27.535 1.069-5.957 6.185-10.329 12.236-10.329h.584c11.402 0 20.599-9.446 20.19-20.94-.389-10.948-9.719-19.466-20.674-19.466h-.1c-6.052 0-11.168-4.373-12.236-10.329-1.699-9.471-4.174-18.672-7.357-27.535-2.045-5.699.192-12.044 5.434-15.071z" fill="#97d729"/><circle cx="332.773" cy="332.771" fill="#fd8087" r="171.726"/><path d="m453.744 210.896c3.903 14.375 5.998 29.494 5.998 45.104 0 94.841-76.884 171.726-171.726 171.726-47.191 0-89.931-19.04-120.971-49.85 19.81 72.959 86.496 126.622 165.727 126.622 94.841 0 171.726-76.884 171.726-171.726.001-47.651-19.412-90.765-50.754-121.876z" fill="#fe646f"/><path d="m255.691 332.771c0 48.626-11.168 94.747-31.816 132.782 8.345 6.852 17.345 12.935 26.896 18.135 24.156-43.297 37.245-95.798 37.245-150.917s-13.089-107.62-37.245-150.917c-9.551 5.201-18.551 11.283-26.896 18.135 20.649 38.035 31.816 84.156 31.816 132.782z" fill="#60b7ff"/><path d="m409.855 332.771c0 48.626 11.168 94.747 31.816 132.782-8.345 6.852-17.345 12.935-26.896 18.135-24.156-43.297-37.245-95.798-37.245-150.917s13.089-107.62 37.245-150.917c9.551 5.201 18.551 11.283 26.896 18.135-20.648 38.035-31.816 84.156-31.816 132.782z" fill="#60b7ff"/><g fill="#26a6fe"><path d="m383.928 398.465c6.123 30.723 16.544 59.587 30.847 85.224 9.551-5.201 18.551-11.283 26.896-18.135-14.681-27.043-24.564-58.177-29.053-91.39-8.635 9.102-18.254 17.261-28.69 24.301z"/><path d="m242.403 421.59c-4.897 15.528-11.095 30.272-18.528 43.964 8.345 6.852 17.345 12.935 26.896 18.135 9.75-17.475 17.694-36.452 23.705-56.493-11.017-.86-21.738-2.766-32.073-5.606z"/></g></g><g><path d="m460.029 206.567c-22.011-22.192-48.831-37.928-78.124-46.228-1.099-3.869-2.325-7.691-3.663-11.396-.83-2.318.059-4.861 2.08-6.025.013-.008.096-.055.109-.063 13.213-7.63 18.07-23.973 11.052-37.214-3.562-6.703-9.537-11.548-16.821-13.642-7.295-2.096-14.935-1.165-21.57 2.656l-.471.277c-2.049 1.186-4.687.69-6.265-1.166-6.364-7.52-13.443-14.604-21.051-21.06-1.862-1.575-2.352-4.206-1.165-6.255.021-.035.041-.07.061-.106l.265-.476c7.593-13.222 3.042-30.168-10.159-37.799-4.193-2.426-8.978-3.708-13.836-3.708-9.887 0-19.09 5.313-23.996 13.829l-.305.522c-1.184 2.059-3.724 2.949-6.028 2.123-9.317-3.354-18.989-5.944-28.745-7.695-2.408-.432-4.155-2.471-4.155-4.848v-.59c0-15.274-12.431-27.7-27.71-27.7-7.394 0-14.349 2.882-19.583 8.117-5.234 5.234-8.117 12.189-8.117 19.583v.59c0 2.377-1.748 4.416-4.155 4.848-9.756 1.751-19.427 4.34-28.732 7.69-2.317.829-4.858-.062-6.042-2.118-.027-.047-.054-.093-.082-.139l-.251-.416c-3.697-6.376-9.651-10.937-16.775-12.849-7.145-1.916-14.611-.938-21.024 2.76-8.542 4.936-13.848 14.137-13.848 24.014 0 4.866 1.283 9.654 3.703 13.836l.309.536c.901 1.554.852 3.485-.128 5.041-2.208 3.504-1.156 8.135 2.349 10.343 3.504 2.208 8.136 1.155 10.343-2.349 3.961-6.289 4.119-14.166.421-20.543l-.306-.531c-1.106-1.912-1.691-4.102-1.691-6.333 0-4.537 2.434-8.762 6.346-11.022 2.938-1.693 6.361-2.144 9.639-1.264 3.277.879 6.013 2.981 7.706 5.919.026.045.053.091.08.136l.253.419c4.824 8.299 14.923 11.951 24.066 8.678 8.53-3.071 17.383-5.441 26.314-7.045 9.563-1.716 16.505-9.964 16.505-19.612v-.59c0-3.388 1.322-6.576 3.723-8.977s5.589-3.723 8.977-3.723c7.009 0 12.71 5.697 12.71 12.7v.59c0 9.647 6.941 17.895 16.504 19.612 8.932 1.604 17.785 3.974 26.324 7.048 9.156 3.283 19.293-.401 24.077-8.718l.302-.517c2.258-3.92 6.482-6.355 11.021-6.355 2.224 0 4.411.585 6.326 1.693 6.066 3.506 8.15 11.297 4.647 17.368-.018.032-.036.063-.054.095l-.265.475c-4.789 8.333-2.906 18.906 4.482 25.157 6.972 5.917 13.465 12.413 19.308 19.319 6.288 7.397 16.895 9.267 25.264 4.419l.454-.267c3.021-1.741 6.531-2.167 9.884-1.205 3.341.96 6.082 3.186 7.715 6.258 3.162 5.965.783 13.678-5.264 17.17-.011.007-.093.053-.104.06-8.344 4.809-12.021 14.942-8.738 24.117.287.794.56 1.599.835 2.402-10-1.804-20.224-2.77-30.586-2.86-4.109-.061-7.529 3.292-7.565 7.434s3.292 7.529 7.434 7.565c24.767.216 48.668 5.893 70.325 16.434-22.613 43.357-34.541 94.263-34.541 147.777 0 53.482 11.913 104.359 34.499 147.698-21.692 10.582-46.043 16.529-71.758 16.529-25.225 0-49.349-5.552-71.777-16.486 22.601-43.349 34.522-94.242 34.522-147.741 0-53.502-11.922-104.397-34.525-147.748 12.471-6.071 25.865-10.626 39.974-13.393 4.065-.797 6.714-4.739 5.916-8.803-.797-4.065-4.735-6.715-8.803-5.916-83.744 16.424-144.526 90.383-144.526 175.859 0 10.915.973 21.661 2.88 32.194-.813-.278-1.628-.555-2.432-.845-9.153-3.275-19.286.402-24.053 8.672l-.335.567c-2.255 3.918-6.474 6.352-11.01 6.352-2.245 0-4.373-.573-6.332-1.706-6.065-3.5-8.151-11.292-4.682-17.314l.323-.55c4.825-8.327 2.957-18.935-4.455-25.235-6.894-5.832-13.389-12.325-19.299-19.288-6.258-7.396-16.829-9.279-25.162-4.492l-.477.266c-.032.018-.063.036-.095.054-3.018 1.741-6.521 2.169-9.872 1.207-3.34-.96-6.08-3.186-7.713-6.264-3.162-5.966-.788-13.674 5.254-17.16.009-.005.089-.051.099-.057 8.359-4.809 12.043-14.945 8.757-24.111-3.067-8.52-5.438-17.374-7.045-26.315-1.716-9.563-9.964-16.504-19.612-16.504h-.59c-3.474 0-6.717-1.377-9.132-3.879-2.419-2.504-3.684-5.808-3.563-9.288.247-6.751 6.162-12.244 13.185-12.244h.1c9.647 0 17.895-6.941 19.612-16.505 1.604-8.931 3.974-17.785 7.05-26.327 3.267-9.129-.384-19.229-8.683-24.053l-.419-.253c-.045-.027-.09-.054-.136-.081-3.008-1.732-5.128-4.542-5.971-7.913-.844-3.378-.287-6.874 1.565-9.837 3.581-5.719 11.444-7.509 17.532-3.995.101.058.202.114.306.167 7.033 3.961 15.669 3.286 22.07-1.746 3.256-2.56 3.821-7.275 1.261-10.531-2.56-3.257-7.276-3.821-10.531-1.261-1.61 1.266-3.767 1.437-5.495.436-.102-.059-.206-.116-.311-.17-12.972-7.351-29.771-3.279-37.549 9.144-4.033 6.453-5.241 14.063-3.4 21.429 1.832 7.331 6.435 13.448 12.965 17.234l.416.251c.046.028.092.055.139.082 2.057 1.184 2.948 3.725 2.123 6.029-3.355 9.318-5.944 18.989-7.695 28.745-.432 2.408-2.471 4.155-4.848 4.155h-.1c-15.252 0-27.628 11.726-28.176 26.709-.264 7.596 2.493 14.785 7.764 20.243 5.268 5.455 12.343 8.458 19.922 8.458h.59c2.377 0 4.416 1.747 4.848 4.156 1.755 9.766 4.344 19.437 7.692 28.735.83 2.314-.062 4.853-2.091 6.021-.012.007-.095.054-.107.062-13.21 7.622-18.063 23.962-11.047 37.201 3.56 6.709 9.534 11.558 16.822 13.653 7.275 2.091 14.895 1.167 21.46-2.602l.477-.266c.036-.02.071-.04.106-.061 2.049-1.187 4.68-.697 6.262 1.173 6.449 7.599 13.533 14.679 21.04 21.031 1.869 1.589 2.364 4.228 1.201 6.236l-.333.566c-7.626 13.24-3.073 30.219 10.143 37.845 4.205 2.433 8.989 3.718 13.836 3.718 9.886 0 19.086-5.314 23.965-13.791l.333-.564c1.184-2.054 3.727-2.943 6.024-2.121 3.731 1.348 7.567 2.579 11.449 3.68 2.499 8.762 5.668 17.349 9.528 25.725 1.265 2.745 3.979 4.363 6.816 4.363 1.05 0 2.118-.222 3.134-.69 3.762-1.733 5.406-6.188 3.672-9.951-9.935-21.557-14.972-44.634-14.972-68.59 0-47.178 20.212-90.52 53.049-120.824 17.417 35.486 26.591 77.038 26.591 120.826 0 43.79-9.175 85.343-26.593 120.83-7.749-7.129-14.834-14.984-21.081-23.454-2.458-3.334-7.153-4.042-10.488-1.584-3.333 2.458-4.043 7.154-1.584 10.488 16.319 22.127 37.826 40.476 62.195 53.062 25.19 13.01 53.59 19.886 82.13 19.886 98.832-.003 179.234-80.404 179.234-179.231 0-47.594-18.457-92.413-51.971-126.203zm-196.838 126.204c0-47.436-10.286-92.486-29.784-130.75 4.611-3.517 9.42-6.798 14.409-9.823 21.41 41.161 32.7 89.58 32.7 140.573 0 50.986-11.287 99.398-32.691 140.555-4.968-3.014-9.785-6.286-14.414-9.813 19.496-38.261 29.78-83.309 29.78-130.742zm121.839 0c0-51.005 11.296-99.434 32.715-140.602 4.954 3.005 9.758 6.291 14.402 9.835-19.504 38.268-29.793 83.324-29.793 130.767 0 47.409 10.274 92.436 29.751 130.686-4.619 3.519-9.423 6.806-14.406 9.829-21.389-41.148-32.669-89.545-32.669-140.515zm58.893 120.782c-17.402-35.477-26.568-77.012-26.568-120.781 0-43.801 9.179-85.364 26.605-120.857 1.838 1.694 3.648 3.43 5.42 5.216 30.708 30.96 47.62 72.028 47.62 115.639 0 47.722-20.467 90.75-53.077 120.783z"/><path d="m159.928 95.914c2.929 2.929 7.678 2.929 10.606 0 2.929-2.929 2.929-7.678 0-10.606-10.801-10.801-28.376-10.801-39.178 0-10.801 10.801-10.801 28.376 0 39.178 1.464 1.465 3.384 2.197 5.303 2.197s3.839-.732 5.303-2.197c2.929-2.929 2.929-7.677 0-10.606-4.953-4.953-4.953-13.012 0-17.965 4.955-4.954 13.014-4.954 17.966-.001z"/><path d="m280.163 113.541c-3.116 2.729-3.428 7.468-.699 10.583 1.483 1.692 3.558 2.558 5.644 2.558 1.754 0 3.516-.612 4.939-1.859 11.49-10.066 12.648-27.603 2.582-39.093-10.066-11.489-27.604-12.648-39.093-2.582-3.116 2.729-3.428 7.468-.699 10.583 2.73 3.116 7.468 3.429 10.583.699 5.269-4.615 13.31-4.084 17.926 1.184 4.617 5.27 4.086 13.311-1.183 17.927z"/><path d="m97.554 162.048c-15.135-2.016-29.104 8.654-31.124 23.795-2.021 15.141 8.654 29.103 23.795 31.124.337.045.671.067 1.001.067 3.701 0 6.922-2.74 7.425-6.509.548-4.106-2.336-7.878-6.442-8.426-6.943-.927-11.838-7.329-10.911-14.272s7.328-11.836 14.272-10.911c4.107.547 7.878-2.336 8.426-6.442s-2.336-7.878-6.442-8.426z"/><path d="m101.428 259.901c-3.28-2.529-7.989-1.922-10.519 1.357-4.52 5.859-6.487 13.127-5.54 20.466s4.695 13.87 10.554 18.39c5.03 3.88 10.981 5.757 16.89 5.757 8.3 0 16.516-3.706 21.966-10.771 2.53-3.28 1.922-7.989-1.357-10.519-3.279-2.529-7.989-1.922-10.519 1.357-2.073 2.687-5.067 4.406-8.433 4.84-3.362.436-6.698-.467-9.385-2.541-5.546-4.278-6.578-12.271-2.299-17.817 2.529-3.279 1.922-7.989-1.358-10.519z"/><path d="m205.194 116.455c3.09-1.4 6.541-1.514 9.717-.318 3.176 1.195 5.696 3.555 7.097 6.645 1.709 3.773 6.154 5.444 9.927 3.735s5.445-6.154 3.735-9.927c-3.054-6.74-8.55-11.887-15.476-14.493-6.927-2.607-14.452-2.359-21.191.695-13.913 6.305-20.103 22.754-13.798 36.668 1.255 2.769 3.982 4.406 6.836 4.406 1.035 0 2.087-.216 3.091-.67 3.773-1.71 5.445-6.154 3.736-9.927-2.892-6.379-.054-13.922 6.326-16.814z"/><path d="m116.769 222.748c1.498 7.247 5.728 13.476 11.911 17.541 4.574 3.007 9.812 4.564 15.162 4.564 1.882 0 3.778-.193 5.664-.583 4.056-.838 6.665-4.806 5.827-8.863s-4.805-6.666-8.863-5.827c-3.324.687-6.715.038-9.549-1.826-2.835-1.864-4.775-4.721-5.462-8.043-1.417-6.859 3.01-13.593 9.869-15.011 4.056-.838 6.665-4.806 5.827-8.863-.838-4.056-4.807-6.667-8.863-5.827-14.96 3.093-24.615 17.778-21.523 32.738z"/></g></g></svg>