<svg id="Capa_1" enable-background="new 0 0 512 512" height="512" viewBox="0 0 512 512" width="512" xmlns="http://www.w3.org/2000/svg"><g><path d="m296.408 256.001h-40.407v-238.399c0-5.579 4.523-10.102 10.102-10.102h20.203c5.579 0 10.102 4.523 10.102 10.102z" fill="#eaf6ff"/><path d="m326.713 131.75c0 52.987-9.691 85.879-15.65 101.094-2.365 6.04-8.169 10.024-14.655 10.024v-222.236c6.487 0 12.29 3.984 14.655 10.024 5.959 15.216 15.65 48.108 15.65 101.094z" fill="#7a6d79"/><path d="m286.306 7.5h-19c5.579 0 10.102 4.523 10.102 10.102v238.399h19v-238.399c0-5.579-4.523-10.102-10.102-10.102z" fill="#d8ecfe"/><path d="m256.001 242.869-78.399 12.74c-1.607.261-3.233.392-4.861.392h-7.655c-5.579 0-10.102-4.523-10.102-10.102v-228.297c0-5.579 4.523-10.102 10.102-10.102h7.655c1.628 0 3.254.131 4.861.392l78.399 12.74z" fill="#7a6d79"/><path d="m234.002 17.057v229.387l21.999-3.575v-222.237z" fill="#685e68"/><path d="m276.205 504.499c11.699 0 21.571-8.69 23.05-20.295 2.988-23.43 7.255-63.904 7.255-103.954 0-57.078-10.102-124.249-10.102-124.249h-40.407s-10.102 67.17-10.102 124.249c0 40.05 4.267 80.524 7.255 103.954 1.48 11.604 11.352 20.295 23.051 20.295z" fill="#fd8087"/><path d="m296.408 256.001h-19s9.102 67.17 9.102 124.249c0 40.05-4.267 80.524-7.254 103.954-1.028 8.064-6.113 14.711-13.042 18.023 3.039 1.451 6.427 2.272 9.992 2.272 11.699 0 21.571-8.69 23.05-20.295 2.987-23.43 7.254-63.904 7.254-103.954 0-57.079-10.102-124.249-10.102-124.249z" fill="#fe646f"/><g><path d="m304.501 330.227c-4.134.271-7.265 3.841-6.994 7.975.998 15.215 1.504 29.363 1.504 42.049 0 40.537-4.511 81.932-7.199 103-.485 3.803-2.335 7.291-5.21 9.823-2.873 2.532-6.566 3.927-10.4 3.927-7.9 0-14.611-5.91-15.609-13.744-1.123-8.85-2.135-17.789-3.008-26.567-.409-4.121-4.079-7.126-8.204-6.722-4.122.41-7.132 4.083-6.722 8.205.886 8.913 1.913 17.988 3.054 26.977 1.95 15.306 15.057 26.85 30.489 26.85 7.487 0 14.703-2.725 20.316-7.671 5.612-4.943 9.226-11.754 10.173-19.179 3.34-26.166 7.32-65.605 7.32-104.9 0-13.013-.517-27.49-1.535-43.031-.272-4.133-3.839-7.266-7.975-6.992z"/><path d="m356.819 160.682-23.408-3.121c.368-5.803.619-11.906.731-18.311h22.877c4.143 0 7.5-3.358 7.5-7.5s-3.357-7.5-7.5-7.5h-22.877c-.112-6.405-.363-12.508-.731-18.311l23.408-3.121c4.105-.547 6.99-4.319 6.443-8.425-.548-4.106-4.323-6.993-8.426-6.443l-22.677 3.023c-.676-6.43-1.49-12.41-2.393-17.963l23.223-4.645c4.062-.812 6.696-4.764 5.884-8.825-.812-4.062-4.762-6.692-8.825-5.884l-23.074 4.615c-1.583-7.252-3.27-13.49-4.894-18.741l23.231-7.744c3.93-1.31 6.053-5.557 4.743-9.487-1.311-3.93-5.557-6.055-9.487-4.744l-23.673 7.891c-2.863-5.396-7.64-9.364-13.314-11.19-1.567-8.109-8.713-14.256-17.274-14.256h-20.203c-7.733 0-14.303 5.02-16.66 11.967l-70.644-11.479c-1.995-.323-4.033-.486-6.057-.486h-7.66c-9.704 0-17.6 7.895-17.6 17.6v28.94c0 4.142 3.357 7.5 7.5 7.5s7.5-3.358 7.5-7.5v-28.94c0-1.434 1.166-2.6 2.6-2.6h7.66c1.224 0 2.456.099 3.656.293l72.103 11.717v17.845h-22.805c-4.143 0-7.5 3.358-7.5 7.5s3.357 7.5 7.5 7.5h22.805v16.723h-12.703c-4.143 0-7.5 3.358-7.5 7.5s3.357 7.5 7.5 7.5h12.703v16.724h-22.805c-4.143 0-7.5 3.358-7.5 7.5s3.357 7.5 7.5 7.5h22.805v16.724h-12.703c-4.143 0-7.5 3.358-7.5 7.5s3.357 7.5 7.5 7.5h12.703v16.724h-22.805c-4.143 0-7.5 3.358-7.5 7.5s3.357 7.5 7.5 7.5h22.805v16.724h-12.703c-4.143 0-7.5 3.358-7.5 7.5s3.357 7.5 7.5 7.5h12.703v18.016l-72.097 11.716c-1.206.195-2.438.294-3.662.294h-7.66c-1.434 0-2.6-1.166-2.6-2.6v-164.361c0-4.142-3.357-7.5-7.5-7.5s-7.5 3.358-7.5 7.5v164.359c0 9.705 7.895 17.6 17.6 17.6h7.66c2.023 0 4.062-.164 6.062-.487l69.697-11.325v3.761c-.97 6.64-10.1 70.575-10.1 124.801 0 13.268.473 27.655 1.404 42.761.245 3.978 3.547 7.039 7.479 7.039.155 0 .312-.005.469-.015 4.134-.255 7.279-3.813 7.023-7.947-.912-14.801-1.375-28.877-1.375-41.838 0-45.745 6.654-98.72 9.115-116.75h27.381c1.08 7.892 2.964 22.46 4.73 40.088.388 3.867 3.648 6.752 7.454 6.752.25 0 .503-.012.757-.038 4.121-.413 7.128-4.089 6.715-8.21-2.462-24.565-5.156-43.323-5.646-46.669v-6.296c5.53-1.872 10.179-5.784 12.987-11.075l23.673 7.891c.787.262 1.587.387 2.373.387 3.14 0 6.066-1.988 7.114-5.13 1.31-3.93-.813-8.177-4.743-9.487l-23.231-7.744c1.625-5.251 3.311-11.488 4.894-18.741l23.074 4.615c.496.099.991.147 1.479.147 3.502 0 6.634-2.465 7.347-6.031.812-4.062-1.822-8.013-5.884-8.825l-23.223-4.645c.903-5.553 1.717-11.533 2.393-17.963l22.677 3.023c.337.045.67.067 1.001.067 3.701 0 6.922-2.741 7.425-6.51.546-4.105-2.339-7.876-6.444-8.424zm-67.911 87.819h-25.406v-230.899c0-1.435 1.167-2.602 2.602-2.602h20.203c1.435 0 2.602 1.167 2.602 2.602v230.899zm15-18.031v-197.439c.055.122.124.234.173.36 5.651 14.433 15.133 46.404 15.133 98.36 0 51.955-9.481 83.926-15.133 98.359-.05.125-.119.237-.173.36z"/></g></g></svg>