<svg id="Capa_1" enable-background="new 0 0 512 512" height="512" viewBox="0 0 512 512" width="512" xmlns="http://www.w3.org/2000/svg"><g><g><g><path d="m467.659 247.208c-4.531 0-8.842-.953-12.751-2.659v21.932c0 1.222-.598 2.371-1.6 3.07l-19.35 13.518v30.787c.771-.334 1.522-.742 2.238-1.241l31.717-22.158c7.825-5.468 12.496-14.43 12.496-23.976v-21.931c-3.909 1.706-8.219 2.658-12.75 2.658z" fill="#0182fc"/></g><path d="m499.5 150.554h-63.682c-.298 0-.582-.051-.859-.118v69.108c2.121 16.174 15.947 28.664 32.7 28.664 18.221 0 32.992-14.771 32.992-32.992v-64.851c-.367.111-.748.189-1.151.189z" fill="#f2fbff"/><g><path d="m499.5 150.554h-24.5v64.662c0 13.664-8.307 25.388-20.146 30.397 3.939 1.662 8.261 2.594 12.805 2.594 18.221 0 32.992-14.771 32.992-32.992v-64.851c-.367.112-.748.19-1.151.19z" fill="#dff6fd"/></g><path d="m499.5 118.411h-63.682c-.294 0-.579.038-.859.087v32.969c.28.049.565.087.859.087h63.682c2.761 0 5-2.239 5-5v-23.143c0-2.761-2.239-5-5-5z" fill="#0593fc"/><g><path d="m499.5 118.411h-31.5c2.761 0 5 2.239 5 5v23.143c0 2.761-2.239 5-5 5h31.5c2.761 0 5-2.239 5-5v-23.143c0-2.761-2.239-5-5-5z" fill="#0182fc"/></g><path d="m397.556 79.411h-331.28c-20.657 0-37.403 16.746-37.403 37.403v229.691h160.297v-81.08h85.492v81.08h160.297v-229.691c0-20.657-16.746-37.403-37.403-37.403z" fill="#dff6fd"/><g><path d="m385.086 116.814v229.691h49.873v-229.691c0-20.657-16.746-37.403-37.403-37.403h-49.873c20.657 0 37.403 16.746 37.403 37.403z" fill="#c8effe"/></g><g><path d="m397.556 79.411h-331.28c-20.657 0-37.403 16.746-37.403 37.403h406.086c0-20.657-16.746-37.403-37.403-37.403z" fill="#fe646f"/></g><g><path d="m397.556 79.411h-49.873c20.657 0 37.403 16.746 37.403 37.403h49.873c0-20.657-16.746-37.403-37.403-37.403z" fill="#fd4755"/></g><path d="m274.662 373.357v.551c0 13.807-11.193 25-25 25h-35.492c-13.807 0-25-11.193-25-25v-.551h-170.984v24.231c0 19.33 15.67 35 35 35h357.459c19.33 0 35-15.67 35-35v-24.231z" fill="#fe646f"/><g><path d="m396 373.357v24.231c0 19.33-15.67 35-35 35h49.645c19.33 0 35-15.67 35-35v-24.231z" fill="#fd4755"/></g><g fill="#fd4755"><path d="m451.332 345.504h-176.67v28.404c0 .151-.009.299-.011.449h176.681c2.761 0 5-2.239 5-5v-18.854c0-2.76-2.239-4.999-5-4.999z"/><path d="m189.17 373.908v-28.404h-176.67c-2.761 0-5 2.239-5 5v18.854c0 2.761 2.239 5 5 5h176.681c-.002-.15-.011-.299-.011-.45z"/></g><g><path d="m451.332 345.504h-62.5c2.761 0 5 2.239 5 5v18.854c0 2.761-2.239 5-5 5h62.5c2.761 0 5-2.239 5-5v-18.854c0-2.761-2.239-5-5-5z" fill="#fb2b3a"/></g><g><path d="m189.17 265.425v108.484c0 13.807 11.193 25 25 25h35.492c13.807 0 25-11.193 25-25v-108.484z" fill="#c8effe"/></g><path d="m243.492 265.425v104.986c4.712 6.267 7.508 14.055 7.508 22.501 0 2.034-.168 4.029-.479 5.975 13.409-.454 24.141-11.459 24.141-24.978v-108.484z" fill="#99e6fc"/><g><path d="m176.916 229.022h110v37.403h-110z" fill="#0593fc"/></g><g><path d="m256 229.022v11.978c0 2.761-2.239 5-5 5h-74.084v20.425h110v-37.403z" fill="#0182fc"/></g></g><g><path d="m216.92 355.573c-1.005-16.326-12.455-29.819-27.75-33.893v52.228c0 13.807 11.193 25 25 25h35.492c.288 0 .573-.012.859-.022.312-1.947.479-3.941.479-5.975 0-19.557-14.973-35.609-34.08-37.338z" fill="#fae2c0"/></g><path d="m499.5 110.911h-57.441c-2.901-21.978-21.745-39-44.503-39h-255.556c-4.142 0-7.5 3.357-7.5 7.5s3.358 7.5 7.5 7.5h255.556c13.899 0 25.613 9.532 28.95 22.403h-389.18c3.336-12.871 15.05-22.403 28.949-22.403h40.725c4.142 0 7.5-3.357 7.5-7.5s-3.358-7.5-7.5-7.5h-40.725c-24.759 0-44.902 20.144-44.902 44.903v221.189h-8.873c-6.893 0-12.5 5.607-12.5 12.5v18.854c0 6.275 4.653 11.47 10.687 12.353v15.878c0 23.435 19.065 42.5 42.5 42.5h46.813c4.142 0 7.5-3.357 7.5-7.5s-3.358-7.5-7.5-7.5h-46.813c-15.164 0-27.5-12.337-27.5-27.5v-15.731h156.971c3.556 14.09 16.334 24.551 31.513 24.551h35.492c15.179 0 27.957-10.461 31.513-24.551h55.824c4.142 0 7.5-3.357 7.5-7.5s-3.358-7.5-7.5-7.5h-54.838v-13.854h152.797 13.873v13.854h-76.832c-4.142 0-7.5 3.357-7.5 7.5s3.358 7.5 7.5 7.5h66.145v15.731c0 15.163-12.336 27.5-27.5 27.5h-275.645c-4.142 0-7.5 3.357-7.5 7.5s3.358 7.5 7.5 7.5h275.645c23.435 0 42.5-19.065 42.5-42.5v-15.878c6.034-.883 10.687-6.078 10.687-12.353v-18.854c0-6.893-5.607-12.5-12.5-12.5h-8.873v-20.615l29.75-20.785c9.831-6.869 15.7-18.131 15.7-30.123v-16.224c12.088-7.013 20.241-20.089 20.241-35.042v-59.66c2.367-2.276 3.849-5.467 3.849-9.002v-23.143c.001-6.89-5.606-12.498-12.499-12.498zm-388.322 125.61h58.238v22.403h-58.238zm-74.805-112.207h59.805v22.402h-59.805zm0 37.403h59.805v22.402h-59.805zm0 37.402h59.805v22.402h-59.805zm0 37.402h59.805v22.403h-59.805zm0 37.404h59.805v22.402h-59.805zm0 37.402h59.805v26.677h-59.805zm145.297 55.53h-166.67v-13.854h13.873 152.797zm0-28.853h-70.492v-26.677h70.492zm0-41.677h-70.492v-22.402h70.492zm0-74.806h-70.492v-22.402h70.492zm0-37.402h-70.492v-22.402h70.492zm0-37.402h-70.492v-22.402h70.492zm15-22.403h70.492v22.402h-70.492zm0 37.403h70.492v22.402h-70.492zm0 37.402h70.492v22.402h-70.492zm17.5 192.289c-9.649 0-17.5-7.851-17.5-17.5v-40.582c7.352 5.122 12.19 13.384 12.764 22.708.228 3.697 3.121 6.675 6.81 7.009 15.037 1.36 26.495 13.43 27.219 28.365zm52.992-17.5c0 6.49-3.56 12.155-8.822 15.176-1.627-19.653-15.683-35.719-34.72-40.031-2.933-14.727-13.052-27.007-26.95-32.725v-42.403h70.492zm12.254-114.983h-95v-22.403h95zm73.237 79.079h-70.492v-26.677h70.492zm0-41.677h-70.492v-22.402h70.492zm0-37.402h-58.237v-22.403h58.237zm0-37.404h-70.492v-22.402h70.492zm0-37.402h-70.492v-22.402h70.492zm0-37.402h-70.492v-22.402h70.492zm74.806 191.287h-59.806v-26.677h59.806zm0-41.677h-59.806v-22.402h59.806zm0-37.402h-59.806v-22.403h59.806zm0-37.404h-59.806v-22.402h59.806zm0-37.402h-59.806v-22.402h59.806zm0-37.402h-59.806v-22.402h59.806zm15 100.142c1.56 1.249 3.211 2.39 4.949 3.399v14.267l-4.949 3.458zm30.451 19.622c0 7.098-3.474 13.762-9.292 17.827l-21.159 14.782v-12.81l15.143-10.579c3.01-2.102 4.807-5.548 4.807-9.22v-11.125c1.72.224 3.471.352 5.251.352s3.53-.128 5.25-.352zm20.241-51.265c0 14.057-11.436 25.492-25.492 25.492-12.745 0-23.335-9.401-25.2-21.633v-60.021h50.692zm3.849-71.162h-54.541v-18.143h54.541z"/></g></svg>