<svg id="Capa_1" enable-background="new 0 0 512 512" height="512" viewBox="0 0 512 512" width="512" xmlns="http://www.w3.org/2000/svg"><g><path d="m210.542 70.128h90.916v371.743h-90.916z" fill="#fd8087"/><path d="m271.153 70.128h30.305v371.743h-30.305z" fill="#fe646f"/><path d="m345.267 49.13-35.715-35.715c-7.89-7.89-20.682-7.89-28.572 0l-73.501 73.501 64.287 64.287 73.501-73.501c7.89-7.89 7.89-20.682 0-28.572z" fill="#fe646f"/><path d="m166.733 49.13 35.715-35.715c7.89-7.89 20.682-7.89 28.572 0l140.774 140.774c7.89 7.89 7.89 20.682 0 28.572l-35.715 35.715c-7.89 7.89-20.682 7.89-28.572 0l-140.774-140.774c-7.89-7.89-7.89-20.682 0-28.572z" fill="#ffe177"/><path d="m166.733 462.87 35.715 35.715c7.89 7.89 20.682 7.89 28.572 0l73.501-73.501-64.287-64.287-73.501 73.501c-7.89 7.89-7.89 20.682 0 28.572z" fill="#fe646f"/><path d="m345.267 462.87-35.715 35.715c-7.89 7.89-20.682 7.89-28.572 0l-140.775-140.775c-7.89-7.89-7.89-20.682 0-28.572l35.715-35.715c7.89-7.89 20.682-7.89 28.572 0l140.774 140.774c7.891 7.891 7.891 20.683.001 28.573z" fill="#ffe177"/><path d="m371.795 154.19-40.672-40.673c7.89 7.89 7.89 20.682 0 28.572l-35.715 35.715c-7.89 7.89-20.681 7.89-28.572 0l40.672 40.672c7.89 7.89 20.682 7.89 28.572 0l35.715-35.715c7.89-7.889 7.89-20.682 0-28.571z" fill="#ffd15b"/><path d="m345.267 434.298-40.672-40.672c7.89 7.89 7.89 20.682 0 28.572l-35.715 35.715c-7.89 7.89-20.682 7.89-28.572 0l40.673 40.673c7.89 7.89 20.682 7.89 28.572 0l35.715-35.715c7.889-7.891 7.889-20.683-.001-28.573z" fill="#ffd15b"/><path d="m321.796 231.897c7.399 0 14.357-2.882 19.589-8.115l35.71-35.72c10.8-10.801 10.8-28.375 0-39.177l-46.197-46.197 19.676-19.677c5.233-5.232 8.115-12.191 8.115-19.593s-2.882-14.361-8.118-19.597l-7.76-7.75c-2.931-2.927-7.68-2.925-10.607.007-2.927 2.931-2.924 7.679.007 10.607l7.757 7.747c2.399 2.4 3.721 5.591 3.721 8.987s-1.321 6.587-3.722 8.987l-19.676 19.676-53.684-53.683 19.678-19.677c2.399-2.399 5.589-3.721 8.981-3.721 3.393 0 6.582 1.321 8.982 3.721l3.21 3.21c2.93 2.929 7.678 2.929 10.608 0 2.929-2.929 2.929-7.678 0-10.607l-3.21-3.21c-5.234-5.233-12.191-8.115-19.591-8.115-7.398 0-14.356 2.882-19.588 8.114l-19.677 19.677-19.677-19.677c-5.232-5.232-12.19-8.114-19.589-8.114-7.398 0-14.356 2.882-19.587 8.113l-35.72 35.711c-5.233 5.232-8.115 12.189-8.115 19.589s2.882 14.356 8.114 19.589l41.617 41.617v158.629c-3.915-2.053-8.292-3.145-12.838-3.145-7.399 0-14.357 2.882-19.589 8.115l-35.71 35.72c-10.8 10.801-10.8 28.375 0 39.177l46.2 46.2-19.678 19.678c-10.802 10.803-10.802 28.381.001 39.185l35.72 35.709c5.399 5.4 12.493 8.1 19.586 8.1 7.094 0 14.188-2.7 19.588-8.1l19.677-19.679 19.677 19.677c5.232 5.232 12.19 8.114 19.589 8.114s14.356-2.882 19.587-8.113l35.72-35.711c5.233-5.232 8.115-12.189 8.115-19.589s-2.882-14.356-8.114-19.589l-41.617-41.617v-158.627c3.916 2.052 8.293 3.144 12.839 3.144zm-93.23-81.755c2.93 2.929 7.678 2.929 10.608 0 2.929-2.929 2.929-7.678 0-10.607l-67.141-67.14c-2.399-2.4-3.721-5.589-3.721-8.982s1.321-6.582 3.721-8.981l35.721-35.711c2.399-2.399 5.589-3.721 8.981-3.721 3.393 0 6.582 1.321 8.982 3.721l140.772 140.771c4.953 4.953 4.953 13.011 0 17.964l-35.71 35.72c-2.399 2.399-5.589 3.721-8.982 3.721s-6.582-1.321-8.982-3.721l-48.89-48.891c-2.929-2.929-7.677-2.93-10.608 0-2.929 2.929-2.929 7.678 0 10.607l40.641 40.641v23.307l-75.915-75.916v-23.306zm-10.523 33.997 75.915 75.916v23.302l-75.915-75.915zm0 44.516 75.915 75.915v23.301l-75.915-75.915zm125.645 219.932c0 3.393-1.321 6.582-3.721 8.981l-35.721 35.711c-2.399 2.399-5.589 3.721-8.981 3.721-3.393 0-6.582-1.321-8.982-3.721l-47.121-47.121c-2.93-2.929-7.678-2.929-10.608 0-2.929 2.929-2.929 7.678 0 10.607l16.836 16.836-19.677 19.678c-4.953 4.953-13.011 4.951-17.962-.001l-35.719-35.709c-4.954-4.955-4.954-13.017 0-17.971l19.678-19.677 12.094 12.094c2.93 2.929 7.678 2.929 10.608 0 2.929-2.929 2.929-7.678 0-10.607l-68.901-68.901c-4.953-4.953-4.953-13.011 0-17.964l35.71-35.72c2.399-2.399 5.589-3.721 8.982-3.721s6.582 1.321 8.982 3.721l140.782 140.781c2.4 2.401 3.721 5.59 3.721 8.983zm-125.645-152.12v-23.297l75.915 75.915v23.296z"/></g></svg>