<svg id="Capa_1" enable-background="new 0 0 512 512" height="512" viewBox="0 0 512 512" width="512" xmlns="http://www.w3.org/2000/svg"><g><path d="m490.358 235.796h-468.716c-7.811 0-14.142-6.332-14.142-14.142v-52.528c0-7.811 6.332-14.142 14.142-14.142h468.716c7.811 0 14.142 6.332 14.142 14.142v52.528c0 7.81-6.332 14.142-14.142 14.142z" fill="#d77f4a"/><path d="m490.358 154.983h-32.325c7.811 0 14.142 6.332 14.142 14.142v52.528c0 7.811-6.332 14.142-14.142 14.142h32.325c7.811 0 14.142-6.332 14.142-14.142v-52.528c0-7.81-6.332-14.142-14.142-14.142z" fill="#c86d36"/><path d="m304.488 124.678h-96.976c-17.853 0-32.325 14.472-32.325 32.325v76.772c0 17.853 14.472 32.325 32.325 32.325h96.976c17.853 0 32.325-14.472 32.325-32.325v-76.772c0-17.853-14.472-32.325-32.325-32.325zm-4.041 111.118h-88.894c-3.347 0-6.061-2.714-6.061-6.061v-68.691c0-3.347 2.714-6.061 6.061-6.061h88.894c3.347 0 6.061 2.714 6.061 6.061v68.691c0 3.347-2.713 6.061-6.061 6.061z" fill="#ffe177"/><path d="m351.965 210.542h-60.61c-8.368 0-15.152-6.784-15.152-15.152 0-8.368 6.784-15.152 15.152-15.152h60.61c8.368 0 15.152 6.784 15.152 15.152.001 8.368-6.783 15.152-15.152 15.152z" fill="#feb237"/><path d="m336.735 154.871-36.288.111c3.347 0 6.061 2.714 6.061 6.061v19.193h30.305v-23.234c0-.716-.032-1.425-.078-2.131z" fill="#ffd15b"/><path d="m336.735 235.907-36.288-.111c3.347 0 6.061-2.714 6.061-6.061v-19.193h30.305v23.234c0 .717-.032 1.426-.078 2.131z" fill="#ffd15b"/><path d="m334.058 341.856c7.457-4.129 12.507-12.079 12.507-21.207 0-13.386-10.857-24.243-24.243-24.243s-24.243 10.857-24.243 24.243c0 1.729.186 3.414.536 5.05h-85.23c.35-1.636.536-3.322.536-5.05 0-13.386-10.857-24.243-24.243-24.243s-24.243 10.857-24.243 24.243c0 9.129 5.05 17.079 12.507 21.207-7.457 4.143-12.507 12.093-12.507 21.222 0 13.386 10.85 24.236 24.243 24.243 13.386 0 24.243-10.857 24.243-24.243 0-1.743-.186-3.429-.529-5.057h85.216c-.343 1.629-.529 3.314-.529 5.057 0 13.386 10.857 24.243 24.243 24.243 13.393-.007 24.243-10.857 24.243-24.243 0-9.129-5.049-17.079-12.507-21.222z" fill="#ffe177"/><path d="m334.058 341.856c8.058-4.461 13.305-13.384 12.408-23.434-1.065-11.931-10.994-21.417-22.959-21.988-6.192-.296-11.901 1.74-16.337 5.299 5.539 4.444 9.091 11.265 9.091 18.916 0 4.108-1.023 7.978-2.828 11.368-3.298 6.195-3.3 13.493-.002 19.688 1.806 3.392 2.83 7.263 2.83 11.373 0 7.653-3.551 14.473-9.091 18.915 4.151 3.331 9.418 5.328 15.153 5.328 13.393-.007 24.243-10.857 24.243-24.243-.001-9.129-5.05-17.079-12.508-21.222z" fill="#ffd15b"/><path d="m490.36 147.479h-50.18c-4.143 0-7.5 3.358-7.5 7.5s3.357 7.5 7.5 7.5h50.181c3.661 0 6.64 2.983 6.64 6.65v52.52c0 3.667-2.979 6.65-6.64 6.65h-146.051v-10.257h7.656c12.49 0 22.652-10.162 22.652-22.652s-10.162-22.652-22.652-22.652h-7.656v-10.258h60.87c4.143 0 7.5-3.358 7.5-7.5s-3.357-7.5-7.5-7.5h-62.029c-4.279-17.373-19.986-30.3-38.661-30.3h-30.99c-4.143 0-7.5 3.358-7.5 7.5s3.357 7.5 7.5 7.5h30.99c13.686 0 24.819 11.134 24.819 24.82v15.738h-15.302v-11.693c0-7.478-6.083-13.561-13.561-13.561h-88.895c-7.478 0-13.561 6.083-13.561 13.561v68.691c0 7.478 6.083 13.561 13.561 13.561h88.895c7.478 0 13.561-6.083 13.561-13.561v-11.693h15.302v15.737c0 13.686-11.134 24.82-24.819 24.82h-96.98c-13.686 0-24.819-11.134-24.819-24.82v-76.78c0-13.686 11.134-24.82 24.819-24.82h30.99c4.143 0 7.5-3.358 7.5-7.5s-3.357-7.5-7.5-7.5h-30.99c-18.675 0-34.381 12.926-38.661 30.3h-147.209c-11.933 0-21.64 9.712-21.64 21.65v52.52c0 11.938 9.707 21.65 21.64 21.65h50.36c4.143 0 7.5-3.358 7.5-7.5s-3.357-7.5-7.5-7.5h-50.36c-3.661 0-6.64-2.983-6.64-6.65v-52.52c0-3.667 2.979-6.65 6.64-6.65h146.05v65.82h-60.69c-4.143 0-7.5 3.358-7.5 7.5s3.357 7.5 7.5 7.5h61.849c4.279 17.374 19.986 30.3 38.661 30.3h40.99v15.576c-8.815 3.103-15.152 11.508-15.152 21.371v7.653h-12.021c-1.254-16.364-14.97-29.293-31.649-29.293-17.503 0-31.743 14.24-31.743 31.743 0 7.949 2.979 15.473 8.136 21.213-5.156 5.746-8.136 13.271-8.136 21.216 0 17.494 14.238 31.734 31.743 31.743 16.682 0 30.399-12.934 31.65-29.3h69.344c1.251 16.367 14.969 29.3 31.654 29.3 17.501-.009 31.739-14.249 31.739-31.743 0-7.944-2.979-15.47-8.136-21.216 5.156-5.74 8.136-13.264 8.136-21.213 0-17.503-14.24-31.743-31.743-31.743-16.68 0-30.396 12.93-31.649 29.293h-12.021v-7.653c0-9.863-6.338-18.268-15.152-21.371v-15.576h40.99c18.675 0 34.381-12.927 38.661-30.3h147.209c11.933 0 21.64-9.712 21.64-21.65v-52.52c0-11.939-9.707-21.651-21.64-21.651zm-130.742 47.91c0 4.22-3.433 7.652-7.652 7.652h-60.61c-4.22 0-7.652-3.433-7.652-7.652s3.433-7.652 7.652-7.652h60.61c4.22 0 7.652 3.433 7.652 7.652zm-60.61 32.907h-86.016v-65.813h86.016v10.254h-7.652c-12.49 0-22.652 10.162-22.652 22.652s10.162 22.652 22.652 22.652h7.652zm-.393 104.903c2.265 0 4.408-1.023 5.832-2.785 1.425-1.762 1.976-4.072 1.502-6.287-.246-1.145-.37-2.315-.37-3.479 0-9.232 7.511-16.743 16.743-16.743s16.743 7.511 16.743 16.743c0 6.083-3.311 11.695-8.64 14.646-2.385 1.32-3.865 3.83-3.867 6.556s1.475 5.238 3.857 6.562c5.335 2.964 8.649 8.583 8.649 14.666 0 9.228-7.513 16.738-16.743 16.743-9.232 0-16.743-7.511-16.743-16.743 0-1.172.124-2.354.367-3.513.466-2.211-.091-4.515-1.515-6.27-1.425-1.755-3.564-2.774-5.824-2.774h-85.215c-2.26 0-4.399 1.019-5.824 2.774-1.424 1.755-1.98 4.059-1.515 6.27.243 1.159.367 2.341.367 3.513 0 9.232-7.511 16.743-16.739 16.743-9.234-.005-16.747-7.516-16.747-16.743 0-6.082 3.314-11.702 8.649-14.666 2.383-1.324 3.859-3.836 3.857-6.562s-1.482-5.235-3.867-6.556c-5.329-2.95-8.64-8.562-8.64-14.646 0-9.232 7.511-16.743 16.743-16.743s16.743 7.511 16.743 16.743c0 1.164-.124 2.334-.37 3.479-.474 2.215.077 4.525 1.502 6.287 1.424 1.761 3.567 2.785 5.832 2.785zm-34.963-15h-15.305v-7.653c0-4.22 3.433-7.652 7.652-7.652s7.652 3.433 7.652 7.652v7.653z"/></g></svg>