<svg id="Capa_1" enable-background="new 0 0 512 512" height="512" viewBox="0 0 512 512" width="512" xmlns="http://www.w3.org/2000/svg"><g><path d="m291.356 78.211h-70.711l11.905-62.5c.908-4.764 5.073-8.211 9.923-8.211h27.055c4.85 0 9.016 3.447 9.923 8.211z" fill="#0593fc"/><path d="m296.406 391.362h-80.813c-5.579 0-10.102-4.523-10.102-10.102v-292.947c0-5.579 4.523-10.102 10.102-10.102h80.813c5.579 0 10.102 4.523 10.102 10.102v292.947c0 5.579-4.523 10.102-10.102 10.102z" fill="#60b7ff"/><path d="m296.406 78.211h-30.305c5.579 0 10.102 4.523 10.102 10.102v292.947c0 5.579-4.523 10.102-10.102 10.102h30.305c5.579 0 10.102-4.523 10.102-10.102v-292.947c0-5.579-4.523-10.102-10.102-10.102z" fill="#26a6fe"/><path d="m256 179.228c-11.158 0-20.203-9.045-20.203-20.203v-40.407h40.406v40.407c0 11.157-9.045 20.203-20.203 20.203z" fill="#0593fc"/><g><path d="m297.577 70.769-3.14-16.482c-.775-4.069-4.701-6.742-8.771-5.964-4.069.775-6.739 4.702-5.964 8.771l2.594 13.617h-52.592l10.212-53.591c.234-1.228 1.309-2.119 2.554-2.119h27.06c1.245 0 2.319.891 2.553 2.115l1.07 5.61c.776 4.068 4.702 6.738 8.772 5.962 4.069-.776 6.738-4.703 5.962-8.772l-1.07-5.614c-1.585-8.287-8.855-14.302-17.287-14.302h-27.06c-8.432 0-15.702 6.015-17.288 14.306l-10.759 56.463c-9.16.605-16.433 8.23-16.433 17.541v146.47c0 4.142 3.358 7.5 7.5 7.5s7.5-3.358 7.5-7.5v-146.47c0-1.434 1.166-2.6 2.6-2.6h80.82c1.434 0 2.6 1.167 2.6 2.6v22.51c0 4.142 3.358 7.5 7.5 7.5s7.5-3.358 7.5-7.5v-22.51c0-9.311-7.273-16.935-16.433-17.541z"/><path d="m306.51 138.32c-4.142 0-7.5 3.358-7.5 7.5v235.44c0 1.434-1.166 2.6-2.6 2.6h-80.82c-1.434 0-2.6-1.167-2.6-2.6v-111.48c0-4.142-3.358-7.5-7.5-7.5s-7.5 3.358-7.5 7.5v111.48c0 9.705 7.895 17.6 17.6 17.6h32.91v15.882c-23.425 3.62-41.417 23.918-41.417 48.342 0 26.972 21.944 48.916 48.917 48.916s48.917-21.944 48.917-48.917c0-24.423-17.992-44.722-41.417-48.342v-15.881h32.91c9.705 0 17.6-7.896 17.6-17.6v-235.44c0-4.142-3.358-7.5-7.5-7.5zm-16.593 324.763c0 18.702-15.215 33.917-33.917 33.917s-33.917-15.215-33.917-33.917c0-16.124 11.313-29.647 26.417-33.071v1.755c0 4.142 3.358 7.5 7.5 7.5s7.5-3.358 7.5-7.5v-1.755c15.103 3.425 26.417 16.948 26.417 33.071z"/><path d="m283.703 159.024v-40.407c0-4.142-3.358-7.5-7.5-7.5h-40.406c-4.142 0-7.5 3.358-7.5 7.5v40.407c0 15.275 12.428 27.703 27.703 27.703s27.703-12.427 27.703-27.703zm-40.406 0v-32.907h25.406v32.907c0 7.004-5.699 12.703-12.703 12.703s-12.703-5.698-12.703-12.703z"/></g></g></svg>