<svg id="Capa_1" enable-background="new 0 0 512 512" height="512" viewBox="0 0 512 512" width="512" xmlns="http://www.w3.org/2000/svg"><g><g><g><path d="m20.443 92.439h471.115v321.675h-471.115z" fill="#dff6fd"/></g><g><path d="m440 92.439h51.557v321.675h-51.557z" fill="#c8effe"/></g><g><path d="m499.5 57.2h-487c-2.761 0-5 2.239-5 5v26.24c0 2.761 2.239 5 5 5h487c2.761 0 5-2.239 5-5v-26.24c0-2.761-2.239-5-5-5z" fill="#fe646f"/></g><g><path d="m499.5 57.2h-70.5c2.761 0 5 2.239 5 5v26.24c0 2.761-2.239 5-5 5h70.5c2.761 0 5-2.239 5-5v-26.24c0-2.761-2.239-5-5-5z" fill="#fd4755"/></g></g><g><g><path d="m361.643 172.039c2.973 5.58 4.664 11.942 4.664 18.693 0 22-17.898 39.898-39.898 39.898s-39.898-17.898-39.898-39.898c0-7.255 1.956-14.057 5.354-19.925-65.276 14.262-120.447 55.528-153.236 111.496 20.218-15.071 42.035-23.93 60.262-23.93 11.067 0 20.27 3.354 26.614 9.698 12.677 12.678 12.956 35.889.745 62.09l-.405.87.852.44c4.433 2.297 7.846 6.49 9.128 11.219.873 3.217 1.194 8.188-2.227 13.606l-21.623 34.254h38.073c5.659 0 10.855 2.009 14.922 5.347 16.521-5.402 31.349-14.535 43.513-26.388l-17.348-51.087c-1.189-3.502-.938-7.254.707-10.566s4.482-5.779 7.99-6.949c1.417-.472 2.884-.711 4.363-.711 5.907 0 11.153 3.761 13.054 9.358l11.374 33.495c8.828-16.057 13.867-34.49 13.867-54.108v-3.001c50.427-2.478 90.05-27.496 90.05-57.998-.001-26.512-29.945-48.88-70.897-55.903z" fill="#bbec6c"/></g><g><g><path d="m361.643 172.039c2.973 5.58 4.664 11.942 4.664 18.693 0 2.244-.196 4.442-.553 6.586 24.341 10.592 40.148 27.657 40.148 46.916 0 11.634-5.77 22.469-15.7 31.561 25.581-10.507 42.336-28.019 42.336-47.851.001-26.514-29.943-48.882-70.895-55.905z" fill="#a2e62e"/></g></g><g><path d="m250.046 389.552h-36.259l20.655-32.72c6.509-10.31 1.47-21.711-7.287-26.247 11.914-25.562 12.499-49.778-.944-63.22-21.131-21.131-68.876-7.647-106.641 30.118s-51.25 85.51-30.118 106.641c6.453 6.453 15.395 9.661 25.769 9.953l-.018.038h159.406c0-13.566-10.997-24.563-24.563-24.563z" fill="#a2e62e"/></g><g><g><path d="m250.046 389.552h-20.609c13.565 0 24.562 10.997 24.562 24.562h20.609c.001-13.565-10.996-24.562-24.562-24.562z" fill="#97d729"/></g><g><path d="m205.603 267.365c13.443 13.443 12.858 37.658.944 63.22 8.757 4.536 13.796 15.937 7.287 26.247l-15.814 25.051c-2.102 3.329.291 7.669 4.228 7.669h11.539l20.655-32.72c6.509-10.31 1.47-21.711-7.287-26.247 11.914-25.562 12.499-49.778-.944-63.22-8.891-8.891-22.501-11.632-38.089-9.037 6.86 1.404 12.819 4.375 17.481 9.037z" fill="#97d729"/></g></g><g><path d="m350.154 384.536h-5.734c-.394 0-.744-.252-.869-.626l-25.357-74.676c-2.616-7.703-10.962-11.847-18.68-9.275-7.779 2.593-11.964 11.021-9.327 18.785l25.304 74.519c4.157 12.472 15.782 20.851 28.929 20.851h35.312c0-16.335-13.242-29.578-29.578-29.578z" fill="#a2e62e"/></g><g><g><circle cx="326.409" cy="190.732" fill="#fff" r="40.898"/></g><g><path d="m326.409 149.834c-3.542 0-6.978.451-10.255 1.297 17.624 4.551 30.643 20.555 30.643 39.601s-13.019 35.05-30.643 39.601c3.277.846 6.713 1.297 10.255 1.297 22.588 0 40.898-18.311 40.898-40.898 0-22.588-18.311-40.898-40.898-40.898z" fill="#f2fbff"/></g></g></g><g><path d="m25.443 454.8h461.115c2.761 0 5-2.239 5-5v-35.685h-471.115v35.685c0 2.761 2.238 5 5 5z" fill="#fe646f"/></g><g><path d="m440 414.115v35.685c0 2.761-2.239 5-5 5h51.557c2.761 0 5-2.239 5-5v-35.685z" fill="#fd4755"/></g><g><path d="m217 230c14.359 0 26-11.641 26-26 0-5.402-1.648-10.419-4.468-14.576-15.674 7.699-30.366 17.085-43.846 27.921 4.542 7.58 12.834 12.655 22.314 12.655z" fill="#97d729"/></g><g><path d="m93.653 330.983c4.302 3.152 9.605 5.017 15.347 5.017 14.359 0 26-11.641 26-26 0-7.578-3.244-14.397-8.417-19.149-2.369 2.12-4.71 4.329-7.013 6.632-10.646 10.647-19.362 22.087-25.917 33.5z" fill="#97d729"/></g><g><circle cx="177" cy="302.5" fill="#97d729" r="15"/></g><g><circle cx="266" cy="249" fill="#97d729" r="15"/></g><g><path d="m499.5 49.7h-91.5c-4.142 0-7.5 3.357-7.5 7.5s3.358 7.5 7.5 7.5h89v21.239h-482v-21.239h358c4.142 0 7.5-3.357 7.5-7.5s-3.358-7.5-7.5-7.5h-360.5c-6.893 0-12.5 5.608-12.5 12.5v26.239c0 6.893 5.607 12.5 12.5 12.5h.443v169.246c0 4.143 3.358 7.5 7.5 7.5s7.5-3.357 7.5-7.5v-169.246h456.114v305.675h-97.588c-3.478-16.862-18.439-29.578-36.315-29.578h-1.016l-11.74-34.574c7.653-15.348 11.947-32.328 12.524-49.522 5.052-.46 10.05-1.143 14.927-2.041 4.074-.751 6.768-4.661 6.017-8.735s-4.668-6.761-8.735-6.017c-6.49 1.196-13.222 1.972-20.011 2.305-3.994.196-7.132 3.492-7.132 7.491v3c0 10.813-1.697 21.573-4.957 31.829l-4.736-13.948c-3.93-11.573-16.557-17.841-28.153-13.979-5.67 1.89-10.257 5.879-12.916 11.233-2.658 5.354-3.063 11.419-1.142 17.078l15.921 46.886c-9.359 8.166-20.183 14.679-31.699 19.074-4.987-3.2-10.909-5.064-17.261-5.064h-22.655l13.393-21.216c6.535-10.353 5.163-23.177-3.413-31.912-.301-.307-.619-.584-.93-.873 11.116-27.295 9.396-51.667-4.926-65.989-12.225-12.225-31.554-15.4-54.425-8.941-3.946 1.115-7.925 2.501-11.91 4.134 8.649-10.6 18.192-20.397 28.519-29.252 6.182 5.98 14.538 9.497 23.301 9.497 18.472 0 33.5-15.028 33.5-33.5 0-3.784-.65-7.485-1.876-10.992 9.766-4.418 19.865-8.141 30.215-11.144-.535 2.877-.829 5.838-.829 8.868 0 26.687 21.711 48.398 48.398 48.398s48.398-21.712 48.398-48.398c0-2.803-.253-5.546-.713-8.22 30.54 8.511 50.944 26.242 50.944 45.432 0 14.442-11.485 28.346-31.511 38.146-3.721 1.82-5.261 6.312-3.44 10.033 1.302 2.659 3.968 4.205 6.742 4.205 1.106 0 2.23-.246 3.291-.766 25.369-12.413 39.918-31.228 39.918-51.618 0-28.787-28.909-53.573-72.313-62.39-8.51-13.914-23.846-23.22-41.317-23.22-17.035 0-32.031 8.854-40.658 22.194-62.721 14.982-117.686 55.018-151.417 110.364-6.936 5.117-13.679 10.901-20.066 17.288-19.157 19.157-33.028 41.468-39.06 62.823-5.986 21.194-3.683 39.335 6.414 51.611h-53.676v-101.428c0-4.143-3.358-7.5-7.5-7.5s-7.5 3.357-7.5 7.5v144.614c0 6.893 5.607 12.5 12.5 12.5h461.114c6.893 0 12.5-5.607 12.5-12.5v-348.86h.443c6.893 0 12.5-5.607 12.5-12.5v-26.24c0-6.892-5.607-12.5-12.5-12.5zm-173.091 107.634c18.416 0 33.398 14.982 33.398 33.398s-14.982 33.398-33.398 33.398-33.398-14.982-33.398-33.398 14.982-33.398 33.398-33.398zm-91.404 42.405c.326 1.385.495 2.812.495 4.261 0 10.201-8.299 18.5-18.5 18.5-4.269 0-8.271-1.428-11.479-3.977 9.336-6.997 19.194-13.279 29.484-18.784zm62.284 116.595c-.628-1.852-.496-3.835.374-5.586.869-1.75 2.369-3.055 4.224-3.673.759-.254 1.532-.374 2.293-.374 3.038 0 5.886 1.918 6.914 4.944l25.345 74.642c1.149 3.438 4.357 5.749 7.982 5.749h5.733c9.542 0 17.69 6.085 20.767 14.578h-26.5c-9.914 0-18.68-6.318-21.828-15.762zm6.878 66.906 4.209 12.395c1.347 4.042 3.341 7.723 5.818 10.979h-32.983c-.661-2.745-1.665-5.359-2.983-7.78 9.223-4.07 17.976-9.331 25.939-15.594zm-199.83-55.344c5.689-8.681 12.598-17.17 20.537-25.109.271-.271.547-.529.819-.798 1.184 2.459 1.807 5.177 1.807 8.01 0 10.201-8.299 18.5-18.5 18.5-1.593 0-3.157-.2-4.665-.592 0-.003.001-.007.002-.011zm-14.694 31.184c1.67-5.913 4.039-11.93 7.037-17.938 3.885 1.549 8.042 2.357 12.32 2.357 18.472 0 33.5-15.028 33.5-33.5 0-6.519-1.935-12.855-5.437-18.244 14.204-11.635 29.47-20.067 44.104-24.2 17.413-4.917 31.526-3.103 39.741 5.113 9.589 9.589 10.243 27.911 2.033 48.733-5.817-.919-11.933.202-17.413 3.522l-77.146 46.736c-3.542 2.146-4.675 6.759-2.528 10.301 2.146 3.543 6.756 4.674 10.301 2.529l77.146-46.736c5.417-3.284 10.457-1.285 13.367 1.679s4.814 8.039 1.433 13.396l-20.655 32.72c-1.458 2.311-1.545 5.232-.226 7.625s3.835 3.879 6.568 3.879h36.259c6.719 0 12.543 3.903 15.324 9.562h-149.489c-.15-.013-.298-.031-.451-.035-8.818-.247-15.775-2.857-20.676-7.759-8.214-8.214-10.03-22.328-5.112-39.74zm394.414 88.22h-456.114v-25.686h456.114z"/><path d="m177 325c12.407 0 22.5-10.094 22.5-22.5s-10.093-22.5-22.5-22.5-22.5 10.094-22.5 22.5 10.093 22.5 22.5 22.5zm0-30c4.136 0 7.5 3.364 7.5 7.5s-3.364 7.5-7.5 7.5-7.5-3.364-7.5-7.5 3.364-7.5 7.5-7.5z"/><path d="m243.5 249c0 12.406 10.093 22.5 22.5 22.5s22.5-10.094 22.5-22.5-10.093-22.5-22.5-22.5-22.5 10.094-22.5 22.5zm30 0c0 4.136-3.364 7.5-7.5 7.5s-7.5-3.364-7.5-7.5 3.364-7.5 7.5-7.5 7.5 3.364 7.5 7.5z"/><path d="m326.409 205.997c8.417 0 15.265-6.848 15.265-15.265 0-8.418-6.848-15.266-15.265-15.266s-15.265 6.848-15.265 15.266c0 8.417 6.848 15.265 15.265 15.265z"/></g></g></svg>