<svg id="Capa_1" enable-background="new 0 0 512 512" height="512" viewBox="0 0 512 512" width="512" xmlns="http://www.w3.org/2000/svg"><g><g><g><g><path d="m255.77 152.009c18.992 0 35.995 8.67 47.266 22.258v-24.349c0-26.104-21.162-47.266-47.266-47.266-26.104 0-47.266 21.162-47.266 47.266v24.349c11.271-13.587 28.274-22.258 47.266-22.258z" fill="#e2dee2"/></g><g><g><path d="m255.77 418.31c-16.264 0-32.087-1.915-47.266-5.512v47.549h94.532v-47.549c-15.179 3.597-31.002 5.512-47.266 5.512z" fill="#e2dee2"/></g></g></g><g><g><path d="m267.302 149.919v3.192c14.268 2.724 26.803 10.389 35.734 21.157v-24.349c0-26.104-21.162-47.266-47.266-47.266-6.324 0-12.354 1.252-17.867 3.505 17.244 7.048 29.399 23.981 29.399 43.761z" fill="#cbc4cc"/></g><g><g><path d="m267.302 417.979v42.368h35.734v-47.549c-11.567 2.741-23.508 4.499-35.734 5.181z" fill="#cbc4cc"/></g></g></g><path d="m200.948 241.595c-.846-8.998.345-17.681 5.905-20.687 5.383-3.312 13.499-.003 20.868 5.229 2.696 1.944 5.278 4.161 7.725 6.562 2.445-.576 4.98-.887 7.572-.887h27.585c2.568 0 5.08.308 7.505.873 2.443-2.396 5.021-4.608 7.712-6.549 7.369-5.232 15.485-8.541 20.868-5.229 4.97 2.687 6.444 9.911 6.098 17.84 3.449-7.746 5.381-16.317 5.381-25.343 0-34.46-27.935-62.395-62.395-62.395s-62.395 27.935-62.395 62.395c0 10.99 2.851 21.309 7.839 30.277-.096-.695-.198-1.393-.268-2.086z" fill="#ffd15b"/><path d="m286.77 213.405c0 4.476-.475 8.841-1.37 13.05.141-.103.278-.215.419-.317 7.369-5.232 15.485-8.541 20.868-5.229 4.97 2.687 6.444 9.911 6.098 17.84 3.449-7.746 5.381-16.317 5.381-25.343 0-34.46-27.935-62.395-62.395-62.395-5.422 0-10.682.694-15.698 1.994 26.86 6.96 46.697 31.362 46.697 60.4z" fill="#ffc344"/><path d="m241.519 231.872c.499-.023.995-.06 1.498-.06h27.08c5.478-4.269 9.004-10.925 9.004-18.408 0-12.886-10.446-23.332-23.332-23.332s-23.332 10.446-23.332 23.332c.002 7.519 3.561 14.202 9.082 18.468z" fill="#fff"/><path d="m258.433 213.405c0 7.483-3.526 14.139-9.005 18.408h20.669c5.478-4.269 9.004-10.925 9.004-18.408 0-12.886-10.446-23.332-23.332-23.332-3.712 0-7.219.871-10.334 2.413 7.701 3.812 12.998 11.745 12.998 20.919z" fill="#f2fbff"/><g><path d="m79.503 494.5v-10.153c0-13.807 11.193-25 25-25h302.534c13.807 0 25 11.193 25 25v10.153c0 5.523-4.477 10-10 10h-332.534c-5.523 0-10-4.477-10-10z" fill="#60b7ff"/></g><g><path d="m407.037 459.347h-302.534c-11.25 0-20.763 7.432-23.901 17.653h297.702c13.807 0 25 11.193 25 25v2.5h18.733c5.523 0 10-4.477 10-10v-10.153c0-13.808-11.193-25-25-25z" fill="#26a6fe"/></g><g><g><path d="m301.074 254.952 3.846 11.836c4.158-7.894 6.807-16.674 7.673-25.193.846-8.998-.345-17.681-5.905-20.687-5.383-3.312-13.499-.003-20.868 5.229-3.006 2.168-5.882 4.661-8.573 7.388 11.054 2.328 20.226 10.344 23.827 21.427z" fill="#fae2c0"/></g><g><path d="m208.67 266.881 3.876-11.929c3.594-11.06 12.736-19.067 23.761-21.413-2.695-2.733-5.575-5.23-8.586-7.402-7.369-5.232-15.485-8.541-20.868-5.229-5.56 3.006-6.752 11.689-5.905 20.687.869 8.553 3.536 17.368 7.722 25.286z" fill="#fed2a4"/></g><g><path d="m306.993 303.463c3.817-9.397 4.377-20.06 1.088-30.185l-6.055-18.635c-4.423-13.613-17.109-22.83-31.423-22.83h-27.585c-14.314 0-27 9.217-31.423 22.83l-6.055 18.635c-3.29 10.125-2.729 20.787 1.088 30.185-10.332 11.939-16.609 27.584-16.609 44.726 0 13.475 3.887 26.021 10.562 36.576 17.401 5.618 35.945 8.665 55.19 8.665 20.213 0 39.658-3.35 57.811-9.522 6.346-10.374 10.021-22.609 10.021-35.719-.001-17.143-6.279-32.787-16.61-44.726z" fill="#fae2c0"/></g><g><path d="m306.993 303.463c3.817-9.397 4.377-20.06 1.088-30.185l-6.055-18.635c-4.423-13.613-17.109-22.83-31.423-22.83h-27.585c-14.314 0-27 9.217-31.423 22.83l-6.055 18.635c-3.29 10.125-2.729 20.787 1.088 30.185-10.332 11.939-16.609 27.584-16.609 44.726 0 13.475 3.887 26.021 10.562 36.576 17.401 5.618 35.945 8.665 55.19 8.665 20.213 0 39.658-3.35 57.811-9.522 6.346-10.374 10.021-22.609 10.021-35.719-.001-17.143-6.279-32.787-16.61-44.726z" fill="#fae2c0"/></g><g><path d="m306.993 303.463c3.817-9.397 4.377-20.06 1.088-30.185l-6.055-18.635c-4.423-13.613-17.109-22.83-31.423-22.83h-25.61c15.604 0 29.434 10.048 34.256 24.888l6.601 20.315c3.288 10.12 3.048 20.733-.222 30.324-.548 1.608-.253 3.385.81 4.71 10.204 12.721 16.334 28.945 16.334 46.63 0 10.724-2.256 20.911-6.305 30.107 5.817-1.35 11.528-2.979 17.116-4.879 6.346-10.374 10.021-22.609 10.021-35.719-.002-17.143-6.28-32.787-16.611-44.726z" fill="#fed2a4"/></g></g><g><path d="m255.77 7.5c-113.536 0-205.905 92.369-205.905 205.905s92.369 205.905 205.905 205.905 205.905-92.369 205.905-205.905-92.369-205.905-205.905-205.905zm0 384.929c-98.872 0-179.024-80.152-179.024-179.024s80.152-179.024 179.024-179.024 179.024 80.152 179.024 179.024-80.152 179.024-179.024 179.024z" fill="#0593fc"/></g></g><g><path d="m407.037 451.847h-96.501v-32.147c35.302-9.353 67.791-27.739 94.568-54.001 2.958-2.9 3.003-7.649.103-10.606-2.901-2.958-7.649-3.003-10.606-.103-37.36 36.641-86.665 56.82-138.832 56.82-104.198 0-191.153-81.394-197.961-185.3-.271-4.133-3.836-7.255-7.974-6.994-4.133.271-7.265 3.841-6.994 7.974 6.088 92.929 71.775 169.107 158.163 192.151v32.206h-96.501c-17.92 0-32.5 14.58-32.5 32.5v10.153c0 9.649 7.851 17.5 17.5 17.5h70.267c4.142 0 7.5-3.358 7.5-7.5s-3.358-7.5-7.5-7.5h-70.266c-1.378 0-2.5-1.122-2.5-2.5v-10.153c0-9.649 7.851-17.5 17.5-17.5h302.534c9.649 0 17.5 7.851 17.5 17.5v10.153c0 1.378-1.122 2.5-2.5 2.5h-227.267c-4.142 0-7.5 3.358-7.5 7.5s3.358 7.5 7.5 7.5h227.267c9.649 0 17.5-7.851 17.5-17.5v-10.153c0-17.921-14.579-32.5-32.5-32.5zm-191.033-28.786c12.905 2.454 26.198 3.748 39.766 3.748 13.48 0 26.778-1.265 39.766-3.714v28.751h-79.532z"/><path d="m253.525 312.438h6.57c4.142 0 7.5-3.358 7.5-7.5s-3.358-7.5-7.5-7.5h-6.57c-4.142 0-7.5 3.358-7.5 7.5s3.358 7.5 7.5 7.5z"/><path d="m237.101 297.108c4.142 0 7.5-3.358 7.5-7.5v-4.38c0-4.142-3.358-7.5-7.5-7.5s-7.5 3.358-7.5 7.5v4.38c0 4.142 3.358 7.5 7.5 7.5z"/><path d="m276.519 297.108c4.142 0 7.5-3.358 7.5-7.5v-4.38c0-4.142-3.358-7.5-7.5-7.5s-7.5 3.358-7.5 7.5v4.38c0 4.142 3.358 7.5 7.5 7.5z"/><path d="m288.77 340c-4.142 0-7.5 3.358-7.5 7.5 0 4.579-2.64 8-5 8s-5-3.421-5-8c0-4.142-3.358-7.5-7.5-7.5s-7.5 3.358-7.5 7.5c0 4.579-2.64 8-5 8s-5-3.421-5-8c0-4.142-3.358-7.5-7.5-7.5s-7.5 3.358-7.5 7.5c0 12.682 8.972 23 20 23 4.727 0 9.073-1.9 12.5-5.065 3.427 3.165 7.773 5.065 12.5 5.065 11.028 0 20-10.318 20-23 0-4.142-3.358-7.5-7.5-7.5z"/><path d="m50.2 199.46c4.111.423 7.806-2.566 8.234-6.686 5.029-48.466 27.808-93.316 64.14-126.289 36.585-33.2 83.889-51.485 133.196-51.485 109.401 0 198.405 89.004 198.405 198.405 0 41.931-12.989 82.049-37.563 116.018-2.428 3.356-1.675 8.045 1.681 10.473 1.329.961 2.866 1.424 4.39 1.424 2.325 0 4.616-1.077 6.083-3.104 26.436-36.543 40.41-79.702 40.41-124.81-.001-117.673-95.734-213.406-213.406-213.406-53.042 0-103.926 19.667-143.276 55.378-39.071 35.458-63.569 83.703-68.979 135.848-.428 4.12 2.565 7.806 6.685 8.234z"/><path d="m255.77 26.88c-102.85 0-186.524 83.674-186.524 186.524s83.674 186.525 186.524 186.525 186.524-83.674 186.524-186.524-83.674-186.525-186.524-186.525zm171.351 179.025h-101.859c-.788-7.307-2.71-14.278-5.577-20.741l88.21-50.928c11.293 21.612 18.112 45.911 19.226 71.669zm-26.741-84.651-88.211 50.929c-.529-.722-1.076-1.429-1.632-2.13v-20.134c0-4.645-.586-9.154-1.679-13.463l39.064-67.661c21.057 13.466 38.992 31.401 52.458 52.459zm-113.978 95.604c.127-1.135.2-2.286.2-3.454 0-17-13.831-30.832-30.832-30.832s-30.832 13.831-30.832 30.832c0 .776.036 1.544.093 2.306-10.494-5.371-17.58-3.899-21.93-1.299-.714.398-1.438.875-2.153 1.44-.037-.813-.074-1.626-.074-2.447 0-30.27 24.626-54.896 54.896-54.896s54.896 24.626 54.896 54.896c0 .377-.019.749-.027 1.124-.067-.038-.134-.079-.2-.116-4.632-2.768-12.363-4.26-24.037 2.446zm18.729 23.978c-.077.758-.194 1.519-.302 2.279-3.187-5.035-7.415-9.253-12.347-12.411 5.855-3.667 9.405-3.944 10.274-3.409.12.073.241.143.364.21 1.014.549 2.837 4.542 2.011 13.331zm-33.529-27.431c0 4.228-1.676 8.065-4.386 10.908h-22.891c-2.71-2.842-4.386-6.68-4.386-10.908 0-8.729 7.102-15.832 15.832-15.832s15.831 7.102 15.831 15.832zm-50.502 17.324c-4.949 3.177-9.189 7.422-12.375 12.49-.112-.776-.231-1.553-.31-2.326-.832-8.846.992-12.839 2.005-13.387.123-.067.244-.137.364-.21.874-.536 4.449-.256 10.316 3.433zm42.17-188.675c25.757 1.114 50.057 7.933 71.669 19.226l-33.632 58.253c-8.514-12.717-22.207-21.684-38.037-23.863zm32.266 107.865v6.052c-11.297-7.846-25-12.461-39.766-12.461s-28.469 4.615-39.766 12.461v-6.052c0-21.927 17.839-39.766 39.766-39.766s39.766 17.839 39.766 39.766zm-47.266-107.865v53.616c-15.83 2.179-29.523 11.145-38.037 23.862l-33.632-58.252c21.612-11.293 45.912-18.112 71.669-19.226zm-84.651 26.741 39.064 67.66c-1.093 4.309-1.679 8.819-1.679 13.463v20.134c-.556.701-1.103 1.408-1.632 2.13l-88.211-50.929c13.465-21.057 31.401-38.992 52.458-52.458zm-59.973 65.441 88.21 50.928c-2.867 6.463-4.789 13.434-5.577 20.741h-101.86c1.114-25.758 7.934-50.057 19.227-71.669zm-19.227 86.669h101.859c.788 7.307 2.71 14.278 5.577 20.741l-88.21 50.928c-11.292-21.612-18.112-45.912-19.226-71.669zm26.741 84.651 85.158-49.166c1 3.329 2.211 6.607 3.645 9.779l-1.557 4.792c-3.372 10.376-3.306 21.19-.267 31.078-10.095 13.175-15.622 29.389-15.622 46.15 0 7.424 1.106 14.75 3.198 21.772-30.671-13.781-56.591-36.314-74.555-64.405zm198.046 70.84c-16.825 5.53-34.785 8.533-53.436 8.533-17.729 0-34.838-2.704-50.938-7.721-4.788-8.859-7.314-18.831-7.314-29.02 0-10.919 2.915-21.546 8.338-30.811 3.097 4.21 6.869 8.004 11.274 11.204 1.331.967 2.874 1.433 4.402 1.433 2.319 0 4.606-1.072 6.074-3.092 2.435-3.351 1.692-8.041-1.659-10.476-12.846-9.333-18.18-25.75-13.273-40.851l6.055-18.635c3.43-10.556 13.191-17.648 24.29-17.648h27.585c11.099 0 20.86 7.092 24.29 17.648l6.055 18.635c4.906 15.101-.428 31.518-13.273 40.851-3.351 2.435-4.094 7.125-1.659 10.476 2.434 3.35 7.126 4.094 10.476 1.659 4.404-3.2 8.176-6.994 11.273-11.204 5.423 9.265 8.338 19.892 8.338 30.811-.002 9.855-2.383 19.546-6.898 28.208zm19.014-7.543c1.887-6.691 2.882-13.643 2.882-20.665 0-16.761-5.527-32.975-15.622-46.15 3.039-9.888 3.104-20.701-.267-31.078l-1.589-4.891c1.272-2.826 2.379-5.734 3.308-8.692l83.448 48.179c-17.494 27.356-42.535 49.434-72.16 63.297zm79.675-76.279-87.801-50.692c.045-.511.085-1.015.117-1.509 2.566-6.104 4.297-12.639 5.04-19.468h101.871c-1.115 25.757-7.934 50.057-19.227 71.669z"/></g></g></svg>