<svg id="Capa_1" enable-background="new 0 0 512 512" height="512" viewBox="0 0 512 512" width="512" xmlns="http://www.w3.org/2000/svg"><g><path d="m484.297 427.728h-456.594c-11.158 0-20.203-9.045-20.203-20.203v-303.049c0-11.158 9.045-20.203 20.203-20.203h456.594c11.158 0 20.203 9.045 20.203 20.203v303.049c0 11.157-9.045 20.203-20.203 20.203z" fill="#eaf6ff"/><path d="m484.297 84.272h-32.325c11.158 0 20.203 9.045 20.203 20.203v303.049c0 11.158-9.045 20.203-20.203 20.203h32.325c11.158 0 20.203-9.045 20.203-20.203v-303.048c0-11.158-9.045-20.204-20.203-20.204z" fill="#d8ecfe"/><path d="m258.02 164.075v-24.244c0-4.463 3.618-8.081 8.081-8.081h197.992c4.463 0 8.081 3.618 8.081 8.081v24.244c0 4.463-3.618 8.081-8.081 8.081h-197.991c-4.464.001-8.082-3.618-8.082-8.081z" fill="#60b7ff"/><path d="m464.094 131.75h-32.325c4.463 0 8.081 3.618 8.081 8.081v24.244c0 4.463-3.618 8.081-8.081 8.081h32.325c4.463 0 8.081-3.618 8.081-8.081v-24.244c0-4.463-3.618-8.081-8.081-8.081z" fill="#26a6fe"/><g><path d="m39.825 360.047v-208.094c0-11.158 9.045-20.203 20.203-20.203h145.463c11.158 0 20.203 9.045 20.203 20.203v208.094c0 11.158-9.045 20.203-20.203 20.203h-145.463c-11.158 0-20.203-9.045-20.203-20.203z" fill="#fd8087"/><circle cx="132.593" cy="293.879" fill="#c4e2ff" r="55.427"/><path d="m170.738 315.118h-.333c-6.465 0-12.666-2.568-17.238-7.14l-9.532-9.532c-6.098-6.098-15.985-6.098-22.084 0l-9.532 9.532c-4.572 4.572-10.772 7.14-17.238 7.14-13.463 0-24.378-10.914-24.378-24.378v-119.021c0-4.985 4.041-9.026 9.026-9.026 3.018 0 5.836 1.508 7.51 4.019l20.197 30.295c3.022 4.533 8.11 7.256 13.558 7.256h24.129c5.448 0 10.536-2.723 13.558-7.256l20.197-30.295c1.674-2.511 4.492-4.019 7.51-4.019 4.985 0 9.026 4.041 9.026 9.026v119.021c.002 13.464-10.913 24.378-24.376 24.378z" fill="#eaf6ff"/><path d="m147.913 289.839c0 8.368-6.784 19.193-15.152 19.193s-15.152-10.825-15.152-19.193 6.784-11.112 15.152-11.112 15.152 2.743 15.152 11.112z" fill="#7a6d79"/></g><g><path d="m479.675 139.832c0-8.592-6.99-15.582-15.582-15.582h-197.991c-8.591 0-15.581 6.99-15.581 15.582v24.244c0 8.592 6.99 15.582 15.581 15.582h197.992c8.592 0 15.582-6.99 15.582-15.582v-24.244zm-15 24.243c0 .321-.261.582-.582.582h-197.991c-.32 0-.581-.261-.581-.582v-24.244c0-.321.261-.582.581-.582h197.992c.321 0 .582.261.582.582v24.244z"/><path d="m258.021 244.307h32.325c4.142 0 7.5-3.358 7.5-7.5s-3.358-7.5-7.5-7.5h-32.325c-4.142 0-7.5 3.358-7.5 7.5s3.357 7.5 7.5 7.5z"/><path d="m472.175 229.307h-149.504c-4.142 0-7.5 3.358-7.5 7.5s3.358 7.5 7.5 7.5h149.504c4.142 0 7.5-3.358 7.5-7.5s-3.358-7.5-7.5-7.5z"/><path d="m472.175 196.982h-149.504c-4.142 0-7.5 3.358-7.5 7.5s3.358 7.5 7.5 7.5h149.504c4.142 0 7.5-3.358 7.5-7.5s-3.358-7.5-7.5-7.5z"/><path d="m258.021 211.982h32.325c4.142 0 7.5-3.358 7.5-7.5s-3.358-7.5-7.5-7.5h-32.325c-4.142 0-7.5 3.358-7.5 7.5s3.357 7.5 7.5 7.5z"/><path d="m250.521 380.25c0 4.142 3.358 7.5 7.5 7.5h32.325c4.142 0 7.5-3.358 7.5-7.5s-3.358-7.5-7.5-7.5h-24.825v-63.792h24.825c4.142 0 7.5-3.358 7.5-7.5s-3.358-7.5-7.5-7.5h-32.325c-4.142 0-7.5 3.358-7.5 7.5z"/><path d="m439.85 387.75h32.325c4.142 0 7.5-3.358 7.5-7.5v-78.792c0-4.142-3.358-7.5-7.5-7.5h-32.325c-4.142 0-7.5 3.358-7.5 7.5s3.358 7.5 7.5 7.5h24.825v63.792h-24.825c-4.142 0-7.5 3.358-7.5 7.5s3.358 7.5 7.5 7.5z"/><path d="m472.175 261.632h-149.504c-4.142 0-7.5 3.358-7.5 7.5s3.358 7.5 7.5 7.5h149.504c4.142 0 7.5-3.358 7.5-7.5s-3.358-7.5-7.5-7.5z"/><path d="m258.021 276.632h32.325c4.142 0 7.5-3.358 7.5-7.5s-3.358-7.5-7.5-7.5h-32.325c-4.142 0-7.5 3.358-7.5 7.5s3.357 7.5 7.5 7.5z"/><path d="m39.83 266c-4.142 0-7.5 3.358-7.5 7.5v86.55c0 15.274 12.426 27.7 27.7 27.7h145.46c15.279 0 27.71-12.426 27.71-27.7v-208.1c0-15.274-12.431-27.7-27.71-27.7h-145.46c-15.273 0-27.7 12.426-27.7 27.7v86.55c0 4.142 3.358 7.5 7.5 7.5s7.5-3.358 7.5-7.5v-86.55c0-7.003 5.697-12.7 12.7-12.7h145.46c7.008 0 12.71 5.697 12.71 12.7v208.1c0 7.003-5.702 12.7-12.71 12.7h-145.46c-7.002 0-12.7-5.697-12.7-12.7v-86.55c0-4.142-3.358-7.5-7.5-7.5z"/><path d="m132.588 356.81c27.135 0 50.764-16.955 59.504-42.423 6.459-5.837 10.526-14.276 10.526-23.647v-119.016c0-4.432-1.726-8.589-4.827-11.671-3.114-3.134-7.271-4.86-11.704-4.86-5.534 0-10.673 2.751-13.746 7.359l-20.206 30.299c-1.63 2.448-4.364 3.91-7.313 3.91h-24.123c-2.949 0-5.683-1.462-7.316-3.914l-20.195-30.282c-1.507-2.27-3.576-4.146-5.943-5.404-2.39-1.288-5.091-1.968-7.811-1.968-9.115 0-16.531 7.416-16.531 16.531v119.017c0 8.525 3.319 16.531 9.338 22.537.232.232.473.453.711.677 8.537 25.341 32.741 42.855 59.636 42.855zm0-15c-15.282 0-29.419-7.425-38.316-19.206.169.003.337.012.506.012 8.518 0 16.525-3.317 22.546-9.339l2.285-2.285c3.679 3.37 8.197 5.539 13.151 5.539 4.876 0 9.33-2.1 12.977-5.379l2.125 2.125c6.022 6.022 14.029 9.339 22.547 9.339h.333c.091 0 .181-.006.271-.007-8.834 11.884-22.871 19.201-38.425 19.201zm.172-40.278c-3.021 0-7.652-6.271-7.652-11.693 0-1.351 0-3.612 7.652-3.612s7.652 2.261 7.652 3.612c.001 5.421-4.63 11.693-7.652 11.693zm-54.857-129.808c0-1.093 1.155-1.937 2.265-1.337.213.114.39.273.532.488l20.2 30.291c4.418 6.635 11.82 10.596 19.799 10.596h24.123c7.979 0 15.38-3.961 19.796-10.592l20.203-30.295c.285-.427.758-.682 1.266-.682.523 0 .868.236 1.097.466.198.197.434.541.434 1.065v119.017c0 9.305-7.57 16.875-16.875 16.875h-.333c-4.511 0-8.751-1.756-11.94-4.945l-4.457-4.457c.906-2.771 1.401-5.622 1.401-8.375 0-4.366-1.633-18.612-22.652-18.612s-22.652 14.246-22.652 18.612c0 2.669.465 5.432 1.319 8.124l-4.709 4.708c-3.188 3.189-7.429 4.945-11.939 4.945-4.504 0-8.741-1.756-11.936-4.952-3.186-3.178-4.939-7.412-4.939-11.924v-119.016z"/><path d="m292.947 331.762v18.183c0 4.142 3.358 7.5 7.5 7.5s7.5-3.358 7.5-7.5v-18.183c0-4.142-3.358-7.5-7.5-7.5s-7.5 3.358-7.5 7.5z"/><path d="m325.272 331.762v18.183c0 4.142 3.358 7.5 7.5 7.5s7.5-3.358 7.5-7.5v-18.183c0-4.142-3.358-7.5-7.5-7.5s-7.5 3.358-7.5 7.5z"/><path d="m357.598 331.762v18.183c0 4.142 3.358 7.5 7.5 7.5s7.5-3.358 7.5-7.5v-18.183c0-4.142-3.358-7.5-7.5-7.5s-7.5 3.358-7.5 7.5z"/><path d="m397.423 324.262c-4.142 0-7.5 3.358-7.5 7.5v18.183c0 4.142 3.358 7.5 7.5 7.5s7.5-3.358 7.5-7.5v-18.183c0-4.142-3.358-7.5-7.5-7.5z"/><path d="m437.248 349.945v-18.183c0-4.142-3.358-7.5-7.5-7.5s-7.5 3.358-7.5 7.5v18.183c0 4.142 3.358 7.5 7.5 7.5s7.5-3.358 7.5-7.5z"/><path d="m392.34 420.23h-364.64c-7.003 0-12.7-5.702-12.7-12.71v-303.04c0-7.008 5.697-12.71 12.7-12.71h26.8c4.142 0 7.5-3.358 7.5-7.5s-3.358-7.5-7.5-7.5h-26.8c-15.274 0-27.7 12.431-27.7 27.71v303.04c0 15.279 12.426 27.71 27.7 27.71h364.64c4.142 0 7.5-3.358 7.5-7.5s-3.358-7.5-7.5-7.5z"/><path d="m484.3 76.77h-394.8c-4.142 0-7.5 3.358-7.5 7.5s3.358 7.5 7.5 7.5h394.8c7.003 0 12.7 5.702 12.7 12.71v303.04c0 7.008-5.697 12.71-12.7 12.71h-56.96c-4.142 0-7.5 3.358-7.5 7.5s3.358 7.5 7.5 7.5h56.96c15.274 0 27.7-12.431 27.7-27.71v-303.04c0-15.279-12.426-27.71-27.7-27.71z"/></g></g></svg>