<svg id="Capa_1" enable-background="new 0 0 512 512" height="512" viewBox="0 0 512 512" width="512" xmlns="http://www.w3.org/2000/svg"><g><path d="m415.606 504.5h-319.212c-14.505 0-26.264-11.759-26.264-26.264v-301.029c0-10.669 2.113-21.233 6.216-31.082l24.088-57.812h311.13l24.089 57.812c4.104 9.849 6.216 20.413 6.216 31.082v301.028c.001 14.506-11.758 26.265-26.263 26.265z" fill="#eaf6ff"/><path d="m435.654 146.125-24.089-57.812h-32.325l24.089 57.812c4.104 9.849 6.216 20.413 6.216 31.082v301.028c0 14.505-11.759 26.264-26.264 26.264h32.325c14.505 0 26.264-11.759 26.264-26.264v-301.028c0-10.669-2.113-21.233-6.216-31.082z" fill="#d8ecfe"/><path d="m70.13 179.228h371.74v262.642h-371.74z" fill="#fd8087"/><path d="m409.545 179.228h32.325v262.642h-32.325z" fill="#fe646f"/><path d="m416.616 88.313h-321.232c-8.926 0-16.163-7.236-16.163-16.163v-48.487c0-8.926 7.236-16.163 16.163-16.163h321.232c8.926 0 16.163 7.236 16.163 16.163v48.487c-.001 8.927-7.237 16.163-16.163 16.163z" fill="#fd8087"/><path d="m416.616 7.5h-32.325c8.926 0 16.163 7.236 16.163 16.163v48.487c0 8.926-7.236 16.163-16.163 16.163h32.325c8.926 0 16.163-7.236 16.163-16.163v-48.487c-.001-8.927-7.237-16.163-16.163-16.163z" fill="#fe646f"/><g><g fill="#ffe177"><circle cx="359.879" cy="283.41" r="20.841"/><circle cx="296.38" cy="232.394" r="20.841"/><circle cx="152.121" cy="283.41" r="20.841"/><circle cx="215.62" cy="232.394" r="20.841"/><path d="m256 402.074-16.855 5.376c-15.776 5.032-33.041.838-44.75-10.871-17.286-17.286-17.286-45.312 0-62.598l45.548-45.548c4.259-4.259 10.034-6.651 16.057-6.651 6.022 0 11.798 2.392 16.057 6.651l45.548 45.548c17.286 17.286 17.286 45.312 0 62.598-11.709 11.709-28.974 15.903-44.75 10.871z"/></g><path d="m317.605 333.981-23.311-23.311c17.286 17.286 17.286 45.312 0 62.598-11.709 11.709-28.974 15.903-44.75 10.871l-9.492-3.028c-4.79-1.528-9.937-1.528-14.727 0l-9.491 3.027c-10.308 3.288-21.243 2.613-30.857-1.499 2.157 5.063 5.288 9.809 9.418 13.939 11.709 11.709 28.974 15.903 44.75 10.871l16.855-5.375 16.855 5.376c15.776 5.032 33.041.838 44.75-10.871 17.286-17.286 17.286-45.312 0-62.598z" fill="#ffd15b"/></g><g><path d="m388.221 283.41c0-15.627-12.714-28.341-28.341-28.341-15.628 0-28.342 12.714-28.342 28.341s12.714 28.341 28.342 28.341c15.627 0 28.341-12.714 28.341-28.341zm-28.341 13.341c-7.356 0-13.342-5.985-13.342-13.341s5.985-13.341 13.342-13.341 13.341 5.985 13.341 13.341-5.985 13.341-13.341 13.341z"/><path d="m296.38 260.735c15.627 0 28.341-12.714 28.341-28.341s-12.714-28.341-28.341-28.341-28.341 12.714-28.341 28.341 12.714 28.341 28.341 28.341zm0-41.682c7.356 0 13.341 5.985 13.341 13.341s-5.984 13.341-13.341 13.341-13.341-5.985-13.341-13.341 5.984-13.341 13.341-13.341z"/><path d="m152.121 255.068c-15.627 0-28.341 12.714-28.341 28.341s12.714 28.341 28.341 28.341 28.341-12.714 28.341-28.341-12.714-28.341-28.341-28.341zm0 41.683c-7.356 0-13.341-5.985-13.341-13.341s5.985-13.341 13.341-13.341 13.341 5.985 13.341 13.341-5.985 13.341-13.341 13.341z"/><path d="m215.62 260.735c15.627 0 28.341-12.714 28.341-28.341s-12.714-28.341-28.341-28.341-28.341 12.714-28.341 28.341 12.714 28.341 28.341 28.341zm0-41.682c7.356 0 13.341 5.985 13.341 13.341s-5.985 13.341-13.341 13.341-13.341-5.985-13.341-13.341 5.985-13.341 13.341-13.341z"/><path d="m277.36 283.129c-5.706-5.706-13.292-8.848-21.36-8.848-8.069 0-15.655 3.142-21.36 8.848l-45.548 45.548c-20.183 20.183-20.183 53.022 0 73.205 13.751 13.752 33.804 18.623 52.333 12.713l14.575-4.649 14.575 4.649c5.208 1.661 10.535 2.47 15.811 2.47 13.492 0 26.637-5.297 36.523-15.184 20.183-20.183 20.183-53.022 0-73.205zm34.942 108.147c-9.765 9.767-24.005 13.228-37.168 9.029l-16.854-5.376c-.741-.236-1.51-.354-2.279-.354s-1.538.118-2.279.354l-16.855 5.376c-13.158 4.199-27.4.737-37.167-9.029-14.334-14.334-14.334-37.658 0-51.992l45.549-45.548c2.872-2.873 6.69-4.454 10.753-4.454 4.062 0 7.881 1.582 10.753 4.454l45.549 45.548c14.333 14.334 14.333 37.658-.002 51.992z"/><path d="m276.964 338.163h-13.464v-13.464c0-4.142-3.357-7.5-7.5-7.5-4.142 0-7.5 3.358-7.5 7.5v13.464h-13.464c-4.142 0-7.5 3.358-7.5 7.5s3.358 7.5 7.5 7.5h13.464v13.464c0 4.142 3.358 7.5 7.5 7.5 4.143 0 7.5-3.358 7.5-7.5v-13.464h13.464c4.143 0 7.5-3.358 7.5-7.5s-3.358-7.5-7.5-7.5z"/><path d="m442.574 143.247-20.065-48.179c10.206-2.624 17.771-11.904 17.771-22.918v-48.49c0-13.046-10.614-23.66-23.66-23.66h-45.17c-4.143 0-7.5 3.358-7.5 7.5s3.357 7.5 7.5 7.5h45.17c4.775 0 8.66 3.885 8.66 8.66v48.49c0 4.775-3.885 8.66-8.66 8.66h-4.984c-.021 0-.042 0-.063 0h-311.152c-.017 0-.034 0-.05 0h-4.991c-4.775 0-8.66-3.885-8.66-8.66v-48.49c0-4.775 3.885-8.66 8.66-8.66h241.07c4.143 0 7.5-3.358 7.5-7.5s-3.357-7.5-7.5-7.5h-241.07c-13.046 0-23.66 10.614-23.66 23.66v48.49c0 11.014 7.565 20.294 17.771 22.918l-20.062 48.171c-4.512 10.803-6.799 22.232-6.799 33.971v301.03c0 18.615 15.145 33.76 33.76 33.76h50.04c4.142 0 7.5-3.358 7.5-7.5s-3.358-7.5-7.5-7.5h-50.04c-10.344 0-18.76-8.416-18.76-18.76v-28.87h356.74v28.87c0 10.344-8.416 18.76-18.76 18.76h-234.18c-4.142 0-7.5 3.358-7.5 7.5s3.358 7.5 7.5 7.5h234.18c18.615 0 33.76-15.145 33.76-33.76v-301.03c0-11.738-2.287-23.167-6.796-33.963zm-364.944 291.123v-247.64h77.83c4.142 0 7.5-3.358 7.5-7.5s-3.358-7.5-7.5-7.5h-77.606c.579-7.819 2.38-15.439 5.419-22.717l22.158-53.203h301.138l22.16 53.21c3.037 7.272 4.837 14.891 5.416 22.71h-243.685c-4.142 0-7.5 3.358-7.5 7.5s3.358 7.5 7.5 7.5h243.91v247.64z"/><path d="m248.5 37.805v20.204c0 4.142 3.358 7.5 7.5 7.5 4.143 0 7.5-3.358 7.5-7.5v-20.204c0-4.142-3.357-7.5-7.5-7.5-4.142 0-7.5 3.358-7.5 7.5z"/><path d="m283.855 37.805v20.204c0 4.142 3.357 7.5 7.5 7.5s7.5-3.358 7.5-7.5v-20.204c0-4.142-3.357-7.5-7.5-7.5s-7.5 3.358-7.5 7.5z"/><path d="m319.211 37.805v20.204c0 4.142 3.357 7.5 7.5 7.5s7.5-3.358 7.5-7.5v-20.204c0-4.142-3.357-7.5-7.5-7.5s-7.5 3.358-7.5 7.5z"/><path d="m362.067 65.508c4.143 0 7.5-3.358 7.5-7.5v-20.203c0-4.142-3.357-7.5-7.5-7.5s-7.5 3.358-7.5 7.5v20.204c0 4.141 3.358 7.499 7.5 7.499z"/><path d="m404.923 58.008v-20.203c0-4.142-3.357-7.5-7.5-7.5s-7.5 3.358-7.5 7.5v20.204c0 4.142 3.357 7.5 7.5 7.5s7.5-3.359 7.5-7.501z"/><path d="m213.145 37.805v20.204c0 4.142 3.358 7.5 7.5 7.5s7.5-3.358 7.5-7.5v-20.204c0-4.142-3.358-7.5-7.5-7.5s-7.5 3.358-7.5 7.5z"/><path d="m177.789 37.805v20.204c0 4.142 3.358 7.5 7.5 7.5s7.5-3.358 7.5-7.5v-20.204c0-4.142-3.358-7.5-7.5-7.5s-7.5 3.358-7.5 7.5z"/><path d="m142.433 37.805v20.204c0 4.142 3.358 7.5 7.5 7.5s7.5-3.358 7.5-7.5v-20.204c0-4.142-3.358-7.5-7.5-7.5s-7.5 3.358-7.5 7.5z"/><path d="m107.077 37.805v20.204c0 4.142 3.358 7.5 7.5 7.5s7.5-3.358 7.5-7.5v-20.204c0-4.142-3.358-7.5-7.5-7.5s-7.5 3.358-7.5 7.5z"/><path d="m134.78 369.72h-32.325c-4.142 0-7.5 3.358-7.5 7.5s3.358 7.5 7.5 7.5h32.325c4.142 0 7.5-3.358 7.5-7.5s-3.358-7.5-7.5-7.5z"/><path d="m134.78 402.045h-32.325c-4.142 0-7.5 3.358-7.5 7.5s3.358 7.5 7.5 7.5h32.325c4.142 0 7.5-3.358 7.5-7.5s-3.358-7.5-7.5-7.5z"/><path d="m369.72 377.22c0 4.142 3.357 7.5 7.5 7.5h32.325c4.143 0 7.5-3.358 7.5-7.5s-3.357-7.5-7.5-7.5h-32.325c-4.143 0-7.5 3.358-7.5 7.5z"/><path d="m409.545 402.045h-32.325c-4.143 0-7.5 3.358-7.5 7.5s3.357 7.5 7.5 7.5h32.325c4.143 0 7.5-3.358 7.5-7.5s-3.357-7.5-7.5-7.5z"/></g></g></svg>