<svg id="Capa_1" enable-background="new 0 0 512 512" height="512" viewBox="0 0 512 512" width="512" xmlns="http://www.w3.org/2000/svg"><g><path d="m494.398 402.891h-93.343l-24.42-40.7c-3.651-6.085-10.227-9.808-17.324-9.808h-74.144v40.407h62.705l18.183 30.305-18.183 30.305h-116.873v40.406h128.312c7.096 0 13.672-3.723 17.324-9.808l24.42-40.7h93.343c5.579 0 10.102-4.523 10.102-10.102v-20.203c0-5.579-4.523-10.102-10.102-10.102z" fill="#d77f4a"/><path d="m494.398 402.891h-32.325c5.579 0 10.102 4.523 10.102 10.102v20.203c0 5.579-4.523 10.102-10.102 10.102h32.325c5.579 0 10.102-4.523 10.102-10.102v-20.203c0-5.58-4.523-10.102-10.102-10.102z" fill="#c86d36"/><g><path d="m226.735 219.288-15.348-37.378 68.872-28.28c16.476-6.766 29.793-19.5 37.288-35.657l29.535-63.667c13.187-28.434 41.963-46.806 73.308-46.806h74.009c5.579 0 10.102 4.523 10.102 10.102v20.203c0 5.579-4.523 10.102-10.102 10.102h-74.009c-15.672 0-30.06 9.186-36.654 23.402l-29.536 63.669c-11.813 25.468-32.623 45.366-58.593 56.03z" fill="#7a6d79"/></g><path d="m494.398 7.5h-32.325c5.579 0 10.102 4.523 10.102 10.102v20.203c0 5.579-4.523 10.102-10.102 10.102h32.325c5.579 0 10.102-4.523 10.102-10.102v-20.203c0-5.579-4.523-10.102-10.102-10.102z" fill="#685e68"/><path d="m323.938 316.61c-8.573 0-16.795-3.406-22.857-9.468l-119.637-119.637-116.34 45.812c-34.756 13.686-57.604 47.239-57.604 84.592v65.371c0 66.948 54.272 121.22 121.22 121.22h115.86c6.852 0 13.122-3.852 16.22-9.964l90.156-177.926zm-188.794-32.325c8.926 0 16.163 7.236 16.163 16.163 0 8.926-7.236 16.163-16.163 16.163-8.926 0-16.163-7.236-16.163-16.163s7.236-16.163 16.163-16.163zm-64.651 0c8.926 0 16.163 7.236 16.163 16.163 0 8.926-7.236 16.163-16.163 16.163-8.926 0-16.163-7.236-16.163-16.163.001-8.927 7.237-16.163 16.163-16.163zm0 157.585c-8.926 0-16.163-7.236-16.163-16.163 0-8.926 7.236-16.163 16.163-16.163 8.926 0 16.163 7.236 16.163 16.163s-7.236 16.163-16.163 16.163zm32.326-62.63c-8.926 0-16.163-7.236-16.163-16.163s7.236-16.163 16.163-16.163c8.926 0 16.163 7.236 16.163 16.163s-7.237 16.163-16.163 16.163zm32.325 62.63c-8.926 0-16.163-7.236-16.163-16.163 0-8.926 7.236-16.163 16.163-16.163 8.926 0 16.163 7.236 16.163 16.163-.001 8.927-7.237 16.163-16.163 16.163zm32.325-62.63c-8.926 0-16.163-7.236-16.163-16.163s7.236-16.163 16.163-16.163c8.926 0 16.163 7.236 16.163 16.163s-7.237 16.163-16.163 16.163zm32.325 62.63c-8.926 0-16.163-7.236-16.163-16.163 0-8.926 7.236-16.163 16.163-16.163 8.926 0 16.163 7.236 16.163 16.163s-7.237 16.163-16.163 16.163zm0-125.26c-8.926 0-16.163-7.236-16.163-16.163 0-8.926 7.236-16.163 16.163-16.163 8.926 0 16.163 7.236 16.163 16.163s-7.237 16.163-16.163 16.163z" fill="#7a6d79"/><path d="m494.148 256h-183.6l-96.515-96.515c-2.843-2.843-7.103-3.73-10.844-2.256l-15.345 6.043c-3.862 1.521-6.4 5.249-6.4 9.399v14.835l119.637 119.637c6.062 6.062 14.284 9.468 22.857 9.468h170.21c5.579 0 10.102-4.523 10.102-10.102v-40.406c0-5.58-4.523-10.103-10.102-10.103z" fill="#d77f4a"/><path d="m494.148 256h-32.325c5.579 0 10.102 4.523 10.102 10.102v40.406c0 5.579-4.523 10.102-10.102 10.102h32.325c5.579 0 10.102-4.523 10.102-10.102v-40.406c0-5.579-4.523-10.102-10.102-10.102z" fill="#c86d36"/><path d="m301.081 307.142-119.637-119.637-30.749 12.108 128.958 128.958c2.755 2.755 5.722 5.222 8.864 7.386 7.94 5.467 10.554 16 6.197 24.599l-72.938 143.944h22.803c6.852 0 13.122-3.852 16.22-9.964l90.156-177.926h-27.017c-8.573 0-16.795-3.406-22.857-9.468z" fill="#685e68"/><path d="m450.961 47.907h40.407v208.093h-40.407z" fill="#ffe177"/><path d="m450.961 316.61h40.407v86.281h-40.407z" fill="#ffe177"/><g><path d="m512 37.805v-20.203c0-9.706-7.896-17.602-17.602-17.602h-74.005c-34.252 0-65.701 20.075-80.121 51.146l-29.527 63.67c-6.717 14.483-18.557 25.803-33.34 31.876l-46.474 19.084-11.594-11.594c-4.956-4.958-12.373-6.502-18.896-3.933l-15.344 6.042c-6.775 2.667-11.153 9.096-11.153 16.377v9.722l-111.592 43.95c-18.457 7.266-34.116 19.775-45.283 36.176-11.167 16.401-17.069 35.556-17.069 55.394v21.89c0 4.142 3.357 7.5 7.5 7.5s7.5-3.358 7.5-7.5v-21.89c0-16.814 5.003-33.05 14.468-46.95 9.465-13.901 22.736-24.503 38.38-30.662l111.765-44.018 116.165 116.165c7.522 7.521 17.523 11.664 28.16 11.664h14.813l-84.64 167.037c-1.832 3.61-5.483 5.853-9.531 5.853h-115.86c-62.705.001-113.72-51.014-113.72-113.719v-8.48c0-4.142-3.357-7.5-7.5-7.5s-7.5 3.358-7.5 7.5v8.48c0 70.976 57.743 128.72 128.72 128.72h115.86c8.396 0 16.077-4.021 20.856-10.7h93.873c9.691 0 18.796-5.158 23.751-13.45l22.244-37.06h17.196c4.143 0 7.5-3.358 7.5-7.5s-3.357-7.5-7.5-7.5h-21.44c-2.634 0-5.075 1.382-6.431 3.64l-24.437 40.712c-2.271 3.798-6.44 6.157-10.883 6.157h-85.926l12.873-25.404h61.618c2.635 0 5.076-1.382 6.431-3.641l18.185-30.305c1.425-2.375 1.425-5.343-.001-7.718l-18.184-30.305c-1.355-2.259-3.796-3.641-6.431-3.641h-23.305l12.874-25.406h21.867c4.438 0 8.609 2.361 10.89 6.17l24.43 40.7c1.355 2.258 3.797 3.64 6.431 3.64h49.891.01s.007 0 .01 0h40.387.01s.007 0 .01 0h3.022c1.434 0 2.6 1.167 2.6 2.6v20.2c0 1.434-1.166 2.6-2.6 2.6h-36.9c-4.143 0-7.5 3.358-7.5 7.5s3.357 7.5 7.5 7.5h36.9c9.704 0 17.6-7.896 17.6-17.6v-20.2c0-8.158-5.588-15.018-13.132-17.003v-72.539c7.417-2.07 12.882-8.871 12.882-16.94v-40.407c0-8.069-5.465-14.87-12.882-16.94v-194.35c7.543-1.986 13.131-8.846 13.131-17.005zm-228.896 122.762c18.29-7.513 32.938-21.521 41.249-39.441l29.526-63.668c11.971-25.792 38.079-42.458 66.515-42.458h74.005c1.435 0 2.602 1.167 2.602 2.602v20.203c0 1.435-1.167 2.602-2.602 2.602h-74.005c-18.585 0-35.645 10.893-43.462 27.749l-29.537 63.671c-11.015 23.751-30.417 42.304-54.637 52.242l-30.855 12.678-19.476-19.476zm200.764 163.543v71.28h-25.407v-71.28zm-25.408-75.61v-119c0-4.142-3.357-7.5-7.5-7.5s-7.5 3.358-7.5 7.5v119h-129.805l-40.259-40.259 25.059-10.296c27.725-11.376 49.938-32.616 62.547-59.806l29.537-63.671c5.37-11.579 17.088-19.061 29.854-19.061h23.066v39.093c0 4.142 3.357 7.5 7.5 7.5s7.5-3.358 7.5-7.5v-39.093h25.408v193.093zm-152.075 53.339-117.44-117.44v-11.729c0-1.076.646-2.026 1.648-2.42l15.346-6.043c.961-.378 2.059-.152 2.791.582l96.516 96.515c1.407 1.407 3.314 2.197 5.304 2.197h183.6c1.435 0 2.602 1.167 2.602 2.602v40.407c0 1.435-1.167 2.602-2.602 2.602h-170.21c-6.632-.002-12.867-2.585-17.555-7.273zm37.243 98.447 13.684 22.805-13.684 22.805h-49.771l23.111-45.61zm39.437-41.948c-4.97-8.301-14.072-13.458-23.756-13.458h-14.266l10.525-20.77h87.893v71.28h-38.156z"/><path d="m70.493 276.785c-13.047 0-23.662 10.615-23.662 23.663s10.615 23.663 23.662 23.663c13.048 0 23.663-10.615 23.663-23.663s-10.615-23.663-23.663-23.663zm0 32.325c-4.776 0-8.662-3.886-8.662-8.663s3.886-8.663 8.662-8.663c4.777 0 8.663 3.886 8.663 8.663s-3.885 8.663-8.663 8.663z"/><path d="m79.156 363.077c0 13.047 10.615 23.663 23.662 23.663 13.048 0 23.663-10.615 23.663-23.663s-10.615-23.663-23.663-23.663c-13.047.001-23.662 10.616-23.662 23.663zm32.325 0c0 4.776-3.886 8.663-8.663 8.663-4.776 0-8.662-3.886-8.662-8.663s3.886-8.663 8.662-8.663c4.778.001 8.663 3.887 8.663 8.663z"/><path d="m135.144 276.785c-13.047 0-23.662 10.615-23.662 23.663s10.615 23.663 23.662 23.663c13.048 0 23.663-10.615 23.663-23.663s-10.616-23.663-23.663-23.663zm0 32.325c-4.776 0-8.662-3.886-8.662-8.663s3.886-8.663 8.662-8.663 8.663 3.886 8.663 8.663-3.887 8.663-8.663 8.663z"/><path d="m199.794 276.785c-13.047 0-23.662 10.615-23.662 23.663s10.615 23.663 23.662 23.663c13.048 0 23.663-10.615 23.663-23.663s-10.615-23.663-23.663-23.663zm0 32.325c-4.776 0-8.662-3.886-8.662-8.663s3.886-8.663 8.662-8.663 8.663 3.886 8.663 8.663-3.887 8.663-8.663 8.663z"/><path d="m70.493 449.37c13.048 0 23.663-10.615 23.663-23.663s-10.615-23.663-23.663-23.663c-13.047 0-23.662 10.615-23.662 23.663s10.615 23.663 23.662 23.663zm0-32.325c4.777 0 8.663 3.886 8.663 8.663s-3.886 8.663-8.663 8.663c-4.776 0-8.662-3.886-8.662-8.663s3.886-8.663 8.662-8.663z"/><path d="m111.481 425.708c0 13.047 10.615 23.663 23.662 23.663 13.048 0 23.663-10.615 23.663-23.663s-10.615-23.663-23.663-23.663c-13.046 0-23.662 10.615-23.662 23.663zm32.326 0c0 4.776-3.887 8.663-8.663 8.663s-8.662-3.886-8.662-8.663 3.886-8.663 8.662-8.663 8.663 3.886 8.663 8.663z"/><path d="m199.794 402.045c-13.047 0-23.662 10.615-23.662 23.663s10.615 23.663 23.662 23.663c13.048 0 23.663-10.615 23.663-23.663s-10.615-23.663-23.663-23.663zm0 32.325c-4.776 0-8.662-3.886-8.662-8.663s3.886-8.663 8.662-8.663 8.663 3.886 8.663 8.663-3.887 8.663-8.663 8.663z"/><path d="m143.807 363.077c0 13.047 10.615 23.663 23.662 23.663 13.048 0 23.663-10.615 23.663-23.663s-10.615-23.663-23.663-23.663c-13.047.001-23.662 10.616-23.662 23.663zm32.325 0c0 4.776-3.887 8.663-8.663 8.663s-8.662-3.886-8.662-8.663 3.886-8.663 8.662-8.663 8.663 3.887 8.663 8.663z"/></g></g></svg>