<svg id="Capa_1" enable-background="new 0 0 512 512" height="512" viewBox="0 0 512 512" width="512" xmlns="http://www.w3.org/2000/svg"><g><path d="m256 68.014 56.168-17.916c52.573-16.769 110.109-2.792 149.128 36.228 57.605 57.605 57.605 151.001 0 208.605l-151.787 151.787c-14.192 14.192-33.439 22.164-53.509 22.164-20.07 0-39.317-7.973-53.509-22.164l-151.787-151.787c-57.605-57.605-57.605-151.001 0-208.605 39.02-39.02 96.556-52.997 149.128-36.228z" fill="#fd8087"/><path d="m461.296 86.325c-7.314-7.314-15.278-13.747-23.738-19.264 37.324 57.192 30.887 134.594-19.325 184.806l-151.787 151.789c-14.191 14.191-33.439 22.164-53.509 22.164-20.069 0-39.316-7.972-53.507-22.163l43.061 43.061c14.191 14.191 33.439 22.164 53.509 22.164 20.07 0 39.317-7.973 53.509-22.164l151.788-151.788c57.604-57.604 57.604-151-.001-208.605z" fill="#fe646f"/><g><g fill="#eaf6ff"><circle cx="383.199" cy="207.034" r="25.52"/><circle cx="305.445" cy="144.567" r="25.52"/><circle cx="128.801" cy="207.034" r="25.52"/><circle cx="206.555" cy="144.567" r="25.52"/><path d="m256 352.338-20.639 6.583c-19.317 6.162-40.459 1.026-54.796-13.312-21.167-21.167-21.167-55.484 0-76.651l55.773-55.773c5.215-5.215 12.287-8.144 19.661-8.144 7.374 0 14.447 2.929 19.661 8.144l55.773 55.773c21.167 21.167 21.167 55.484 0 76.651-14.338 14.338-35.479 19.473-54.796 13.312z"/></g><path d="m331.435 268.959-28.544-28.544c21.166 21.167 21.166 55.484 0 76.651-14.338 14.338-35.479 19.473-54.796 13.312l-11.622-3.707c-5.865-1.871-12.168-1.871-18.033 0l-11.622 3.707c-12.622 4.026-26.012 3.2-37.784-1.836 2.641 6.199 6.475 12.011 11.532 17.068 14.338 14.338 35.479 19.473 54.796 13.312l20.638-6.584 20.638 6.583c19.318 6.162 40.459 1.026 54.796-13.312 21.167-21.166 21.167-55.484.001-76.65z" fill="#d8ecfe"/></g><g><path d="m56.003 289.626c-26.441-26.44-41.003-61.599-41.003-98.996s14.562-72.556 41.003-98.996c26.448-26.448 61.613-41.014 99.017-41.014 14.423 0 28.733 2.229 42.532 6.625l56.17 17.91c1.482.473 3.074.473 4.557 0l56.172-17.91c47.44-15.14 99.804-3.747 136.657 29.727 3.066 2.784 7.808 2.558 10.595-.509 2.785-3.066 2.557-7.81-.509-10.595-40.804-37.062-98.779-49.672-151.302-32.914l-53.892 17.184-53.894-17.185c-15.274-4.866-31.117-7.333-47.086-7.333-41.411 0-80.342 16.126-109.623 45.406-29.274 29.275-45.397 68.2-45.397 109.604s16.123 80.329 45.397 109.604l30.07 30.07c1.464 1.464 3.384 2.196 5.303 2.196s3.839-.732 5.303-2.196c2.929-2.93 2.929-7.678 0-10.607z"/><path d="m485.26 103.55c-2.331-3.425-6.995-4.31-10.42-1.98-3.424 2.33-4.312 6.995-1.98 10.42 15.792 23.205 24.14 50.399 24.14 78.64 0 37.397-14.562 72.555-41.004 98.996l-151.79 151.791c-12.872 12.873-29.992 19.963-48.206 19.963-9 0-17.778-1.746-26.096-5.191-8.314-3.435-15.751-8.403-22.11-14.772l-96.98-96.979c-2.929-2.928-7.678-2.928-10.606 0-2.929 2.93-2.929 7.678 0 10.607l96.977 96.975c7.759 7.771 16.841 13.839 26.987 18.03 10.141 4.201 20.85 6.331 31.83 6.331 22.221 0 43.107-8.65 58.813-24.356l151.79-151.79c29.273-29.277 45.395-68.201 45.395-109.605 0-31.264-9.247-61.375-26.74-87.08z"/><path d="m383.199 240.055c18.207 0 33.02-14.812 33.02-33.021 0-18.207-14.812-33.02-33.02-33.02s-33.02 14.812-33.02 33.02c.001 18.208 14.813 33.021 33.02 33.021zm0-51.04c9.936 0 18.02 8.084 18.02 18.02 0 9.937-8.084 18.021-18.02 18.021s-18.02-8.084-18.02-18.021c.001-9.936 8.085-18.02 18.02-18.02z"/><path d="m305.444 177.587c18.208 0 33.021-14.812 33.021-33.021 0-18.207-14.812-33.02-33.021-33.02-18.207 0-33.02 14.812-33.02 33.02.001 18.208 14.813 33.021 33.02 33.021zm0-51.04c9.937 0 18.021 8.084 18.021 18.02 0 9.937-8.084 18.021-18.021 18.021-9.936 0-18.02-8.084-18.02-18.021.001-9.936 8.085-18.02 18.02-18.02z"/><path d="m128.801 240.055c18.208 0 33.02-14.812 33.02-33.021 0-18.207-14.812-33.02-33.02-33.02s-33.02 14.812-33.02 33.02 14.812 33.021 33.02 33.021zm0-51.04c9.936 0 18.02 8.084 18.02 18.02 0 9.937-8.084 18.021-18.02 18.021s-18.02-8.084-18.02-18.021c0-9.936 8.084-18.02 18.02-18.02z"/><path d="m206.555 177.587c18.208 0 33.02-14.812 33.02-33.021 0-18.207-14.812-33.02-33.02-33.02s-33.02 14.812-33.02 33.02 14.813 33.021 33.02 33.021zm0-51.04c9.936 0 18.02 8.084 18.02 18.02 0 9.937-8.084 18.021-18.02 18.021s-18.02-8.084-18.02-18.021c0-9.936 8.084-18.02 18.02-18.02z"/><path d="m175.265 350.912c11.777 11.785 27.44 18.099 43.525 18.098 6.287 0 12.64-.965 18.848-2.944l18.362-5.854 18.367 5.855c6.081 1.933 12.387 2.913 18.743 2.913 16.479 0 31.972-6.416 43.623-18.066 11.655-11.655 18.073-27.15 18.073-43.629s-6.418-31.974-18.073-43.628l-17.029-17.03c-2.93-2.929-7.679-2.93-10.606-.001-2.93 2.929-2.93 7.678-.001 10.606l17.029 17.031c8.822 8.821 13.681 20.549 13.681 33.021s-4.858 24.2-13.681 33.021c-8.817 8.817-20.542 13.674-33.016 13.674-4.812 0-9.589-.743-14.192-2.206l-20.64-6.58c-1.482-.473-3.075-.473-4.556 0l-20.641 6.58c-16.723 5.331-34.811.938-47.208-11.467-8.824-8.825-13.684-20.555-13.684-33.027 0-12.476 4.858-24.2 13.683-33.017l55.775-55.775c3.772-3.78 9.003-5.948 14.352-5.948 2.687 0 5.296.52 7.776 1.552 2.476 1.022 4.686 2.5 6.58 4.402l14 14c2.93 2.928 7.678 2.928 10.607 0 2.929-2.93 2.929-7.678 0-10.607l-13.99-13.989c-3.293-3.306-7.152-5.886-11.451-7.661-4.297-1.789-8.847-2.696-13.522-2.696-9.302 0-18.403 3.773-24.963 10.347l-55.768 55.768c-11.659 11.647-18.079 27.141-18.079 43.626.001 16.479 6.42 31.975 18.076 43.631z"/></g></g></svg>