<svg id="Capa_1" enable-background="new 0 0 512 512" height="512" viewBox="0 0 512 512" width="512" xmlns="http://www.w3.org/2000/svg"><g><path d="m489.5 214.974h-467c-.181 0-.357-.02-.537-.027v224.611h156.381v-140.509h155.312v140.509h156.381v-224.611c-.18.007-.356.027-.537.027z" fill="#ffe177"/><g><path d="m142.502 439.558v-166.99c0-5.523-4.477-10-10-10h-110.539v176.99z" fill="#dff6fd"/></g><g><path d="m132.502 262.568h-42.963c5.523 0 10 4.477 10 10v166.99h42.963v-166.99c0-5.523-4.477-10-10-10z" fill="#c8effe"/></g><g><g><path d="m22.5 214.974c-.181 0-.357-.02-.537-.027v.027z" fill="#ffd15b"/></g><g><path d="m489.5 214.974h-42.426v224.583h42.963v-224.61c-.18.007-.356.027-.537.027z" fill="#ffd15b"/></g></g><g><path d="m333.656 300.049v-27.481c0-5.523-4.477-10-10-10h-135.312c-5.523 0-10 4.477-10 10v27.481z" fill="#fe646f"/></g><g><path d="m323.656 262.568h-31.344c5.523 0 10 4.477 10 10v27.481h31.344v-27.481c0-5.523-4.477-10-10-10z" fill="#fd4755"/></g><g><path d="m490.037 439.558v-176.99h-110.539c-5.523 0-10 4.477-10 10v166.99z" fill="#dff6fd"/></g><g><path d="m447.074 262.568h42.963v176.99h-42.963z" fill="#c8effe"/></g><path d="m489.5 72.609h-128.372c1.345 4.085 2.084 8.409 2.084 12.851v9.512c0 15.934-14.999 27.61-30.446 23.699l-3.031-.767c-.328 1.423-.714 2.842-1.172 4.251l-13.463 41.434c-4.363 13.427-16.875 22.517-30.992 22.517h-56.218c-14.118 0-26.63-9.09-30.992-22.517l-13.463-41.434c-.458-1.409-.844-2.828-1.172-4.251l-3.031.767c-15.447 3.911-30.446-7.765-30.446-23.699v-9.512c0-4.443.739-8.766 2.084-12.851h-128.37c-8.284 0-15 6.716-15 15v113.365c0 8.284 6.716 15 15 15h467c8.284 0 15-6.716 15-15v-113.365c0-8.284-6.716-15-15-15z" fill="#fe646f"/><g><path d="m489.5 72.609h-50.5c8.284 0 15 6.716 15 15v20.634c12.344 7.269 20.632 20.687 20.632 36.049s-8.289 28.78-20.632 36.049v20.634c0 8.284-6.716 15-15 15h50.5c8.284 0 15-6.716 15-15v-113.366c0-8.284-6.716-15-15-15z" fill="#fd4755"/></g><g><g><path d="m432.817 102.477h-71.827c-1.155 3.44-3.105 6.584-5.768 9.201-4.433 4.355-10.258 6.754-16.405 6.754-.001 0-.001 0-.002 0-1.94 0-3.894-.246-5.804-.729l-4.021-1.018-.229.996c-.331 1.438-.717 2.839-1.148 4.167l-13.463 41.432c-4.242 13.055-16.314 21.826-30.041 21.826h-.59l-.552 1h149.851c23.094 0 41.815-18.721 41.815-41.815-.001-23.093-18.722-41.814-41.816-41.814z" fill="#fff"/></g><g><path d="m432.817 102.477h-41.967c23.094 0 41.815 18.721 41.815 41.815s-18.721 41.815-41.815 41.815h41.967c23.094 0 41.815-18.721 41.815-41.815s-18.721-41.815-41.815-41.815z" fill="#f2fbff"/></g><g><path d="m228.481 185.107h-.59c-13.727 0-25.799-8.771-30.041-21.826l-13.463-41.434c-.431-1.327-.817-2.729-1.148-4.166l-.229-.996-4.021 1.018c-1.912.484-3.865.729-5.804.729-10.284 0-19.033-6.69-22.163-15.955h-71.839c-23.094 0-41.815 18.721-41.815 41.815 0 23.094 18.721 41.815 41.815 41.815h149.851z" fill="#fff"/></g></g><g><path d="m499.5 438.557h-165.844v40.253h165.844c2.761 0 5-2.239 5-5v-30.253c0-2.761-2.239-5-5-5z" fill="#60b7ff"/><g><path d="m499.5 438.557h-52.5c2.761 0 5 2.239 5 5v30.253c0 2.761-2.239 5-5 5h52.5c2.761 0 5-2.239 5-5v-30.253c0-2.761-2.239-5-5-5z" fill="#26a6fe"/></g><path d="m12.5 438.557c-2.761 0-5 2.239-5 5v30.253c0 2.761 2.239 5 5 5h165.844v-40.253z" fill="#60b7ff"/><path d="m127 438.557h51.344v40.253h-51.344z" fill="#26a6fe"/></g><g><g><g><path d="m339.971 48.424-26.515-12.807c-9.364-4.523-20.565-2.626-27.919 4.727-3.389 3.389-5.626 7.625-6.599 12.143 11.027 2.845 21.464 7.738 30.874 14.575 16.046 11.658 23.346 31.557 18.956 50.597l3.999 1.012c15.447 3.911 30.446-7.765 30.446-23.699v-9.512c0-15.782-9.031-30.172-23.242-37.036z" fill="#d88a55"/></g><g><path d="m202.188 67.063c9.41-6.837 19.848-11.73 30.875-14.575-.973-4.518-3.21-8.754-6.599-12.143-7.354-7.354-18.554-9.25-27.919-4.727l-26.515 12.807c-14.211 6.864-23.242 21.254-23.242 37.036v9.512c0 15.934 14.999 27.61 30.446 23.699l3.999-1.012c-4.392-19.04 2.909-38.939 18.955-50.597z" fill="#d88a55"/></g></g><g><path d="m201.6 66.254c-17.524 12.732-24.857 35.301-18.164 55.902l13.463 41.434c4.363 13.427 16.875 22.517 30.992 22.517h56.218c14.118 0 26.63-9.091 30.992-22.517l13.463-41.434c6.694-20.601-.639-43.17-18.164-55.902-32.438-23.568-76.362-23.568-108.8 0z" fill="#fae2c0"/></g><g><path d="m310.4 66.254c-20.628-14.987-45.898-20.427-69.907-16.354 13.747 2.332 27.082 7.773 38.893 16.354 17.524 12.732 24.857 35.301 18.164 55.902l-13.463 41.434c-4.363 13.427-16.875 22.517-30.992 22.517h31.014c14.118 0 26.63-9.091 30.992-22.517l13.463-41.434c6.694-20.602-.639-43.17-18.164-55.902z" fill="#fed2a4"/></g><g><path d="m256 158.322 16.534-20.342c2.964-3.647.369-9.1-4.33-9.1h-24.407c-4.699 0-7.295 5.454-4.33 9.1z" fill="#7a6d79"/></g></g><g><g><path d="m178.344 299.049h155.312v179.762h-155.312z" fill="#dff6fd"/></g><g><path d="m302.312 299.049h31.344v179.762h-31.344z" fill="#c8effe"/></g></g><g><path d="m224.859 117.786c4.142 0 7.5-3.358 7.5-7.5v-8.907c0-4.142-3.358-7.5-7.5-7.5s-7.5 3.358-7.5 7.5v8.907c0 4.142 3.358 7.5 7.5 7.5z"/><path d="m287.141 117.786c4.142 0 7.5-3.358 7.5-7.5v-8.907c0-4.142-3.358-7.5-7.5-7.5s-7.5 3.358-7.5 7.5v8.907c0 4.142 3.358 7.5 7.5 7.5z"/><path d="m512 200.974v-113.365c0-12.407-10.093-22.5-22.5-22.5h-123.305c-4.662-10.059-12.692-18.477-22.963-23.438l-26.515-12.807c-12.224-5.903-26.885-3.422-36.484 6.177-2.28 2.28-4.177 4.896-5.667 7.732-12.268-2.325-24.865-2.325-37.133 0-1.49-2.837-3.387-5.453-5.667-7.732-9.598-9.598-24.259-12.082-36.484-6.177l-26.515 12.806c-10.271 4.961-18.3 13.38-22.962 23.438h-123.305c-12.407 0-22.5 10.093-22.5 22.5v113.365c0 9.576 6.015 17.768 14.463 21.01v209.073h-1.963c-6.893 0-12.5 5.607-12.5 12.5v30.253c0 6.893 5.607 12.5 12.5 12.5h487c6.893 0 12.5-5.607 12.5-12.5v-30.253c0-6.893-5.607-12.5-12.5-12.5h-1.963v-209.071c8.448-3.243 14.463-11.435 14.463-21.011zm-153.611-80.792c3.619-2.817 6.514-6.3 8.593-10.206h65.835c18.921 0 34.315 15.394 34.315 34.315s-15.394 34.315-34.315 34.315h-117.422c2.964-3.705 5.306-7.981 6.839-12.699l12.74-39.211c1.29.157 2.58.238 3.865.238 7.01 0 13.856-2.32 19.55-6.752zm-67.549-74.534c5.09-5.092 12.869-6.409 19.354-3.277l26.515 12.807c11.544 5.576 19.004 17.463 19.004 30.283v9.512c0 5.265-2.383 10.139-6.537 13.373-3.163 2.461-6.996 3.686-10.897 3.564 1.838-19.881-6.784-39.6-23.471-51.724-7.85-5.704-16.305-10.125-25.091-13.283.355-.434.725-.857 1.123-1.255zm15.152 26.673c14.941 10.856 21.146 29.952 15.439 47.517l-13.463 41.434c-3.369 10.369-12.958 17.335-23.859 17.335h-20.609v-17.621l14.854-18.275c3.214-3.954 3.851-9.269 1.661-13.871s-6.716-7.46-11.812-7.46h-24.407c-5.096 0-9.622 2.858-11.812 7.46-2.189 4.602-1.553 9.917 1.661 13.871l14.854 18.275v17.621h-20.609c-10.902 0-20.49-6.966-23.859-17.335l-13.463-41.434c-5.707-17.565.498-36.661 15.439-47.517 14.954-10.863 32.471-16.293 49.993-16.293 17.519 0 35.043 5.432 49.992 16.293zm-49.992 74.11-8.17-10.051h16.34zm-99.713-60.97c0-12.82 7.459-24.707 19.003-30.283l26.515-12.807c6.484-3.132 14.262-1.814 19.354 3.277.398.398.768.821 1.123 1.256-8.786 3.158-17.24 7.579-25.091 13.283-16.687 12.123-25.308 31.843-23.47 51.723-3.901.121-7.734-1.103-10.897-3.564-4.154-3.234-6.537-8.108-6.537-13.373zm14.557 385.85h-155.844v-25.253h28c4.142 0 7.5-3.358 7.5-7.5s-3.358-7.5-7.5-7.5h-13.537v-160.99h103.04c1.378 0 2.5 1.122 2.5 2.5v158.489h-57.003c-4.142 0-7.5 3.358-7.5 7.5s3.358 7.5 7.5 7.5h92.844zm77.656 0h-62.656v-164.762h62.656zm77.656 0h-62.656v-164.762h62.656zm0-179.762h-140.312v-18.981c0-1.378 1.122-2.5 2.5-2.5h135.312c1.378 0 2.5 1.122 2.5 2.5zm-2.5-36.481h-135.312c-9.649 0-17.5 7.851-17.5 17.5v158.489h-20.841v-158.489c0-9.649-7.851-17.5-17.5-17.5h-103.04v-31.594h453.074v31.594h-103.04c-9.649 0-17.5 7.851-17.5 17.5v58.429c0 4.142 3.358 7.5 7.5 7.5s7.5-3.358 7.5-7.5v-58.429c0-1.378 1.122-2.5 2.5-2.5h103.04v160.989h-105.54v-65.06c0-4.142-3.358-7.5-7.5-7.5s-7.5 3.358-7.5 7.5v65.061h-20.841v-158.49c0-9.649-7.85-17.5-17.5-17.5zm173.344 216.243h-155.844v-25.253h155.844zm0-270.337c0 4.136-3.364 7.5-7.5 7.5h-467c-4.136 0-7.5-3.364-7.5-7.5v-113.365c0-4.136 3.364-7.5 7.5-7.5h119.09c-.199 1.767-.303 3.552-.303 5.352v9.512.004h-10.287c-4.142 0-7.5 3.358-7.5 7.5s3.358 7.5 7.5 7.5h14.017c2.079 3.905 4.974 7.388 8.593 10.206 5.694 4.432 12.54 6.752 19.55 6.752 1.285 0 2.575-.081 3.865-.238l12.741 39.211c1.533 4.719 3.875 8.994 6.839 12.699h-117.422c-18.921 0-34.315-15.394-34.315-34.315s15.394-34.315 34.315-34.315h16.817c4.142 0 7.5-3.358 7.5-7.5s-3.358-7.5-7.5-7.5h-16.817c-27.192 0-49.315 22.123-49.315 49.315s22.123 49.315 49.315 49.315h148.708 56.218 148.708c27.192 0 49.315-22.123 49.315-49.315s-22.123-49.315-49.315-49.315h-62.105c0-.001 0-.003 0-.004v-9.512c0-1.799-.104-3.585-.303-5.352h119.091c4.136 0 7.5 3.364 7.5 7.5z"/><path d="m228.207 387.223c4.142 0 7.5-3.358 7.5-7.5v-18.528c0-4.142-3.358-7.5-7.5-7.5s-7.5 3.358-7.5 7.5v18.528c0 4.142 3.358 7.5 7.5 7.5z"/><path d="m283.793 387.223c4.142 0 7.5-3.358 7.5-7.5v-18.528c0-4.142-3.358-7.5-7.5-7.5s-7.5 3.358-7.5 7.5v18.528c0 4.142 3.358 7.5 7.5 7.5z"/><path d="m74.114 144.292c0 4.142 3.358 7.5 7.5 7.5h79.563c4.142 0 7.5-3.358 7.5-7.5s-3.358-7.5-7.5-7.5h-79.563c-4.142 0-7.5 3.358-7.5 7.5z"/><path d="m350.822 151.792h79.563c4.142 0 7.5-3.358 7.5-7.5s-3.358-7.5-7.5-7.5h-79.563c-4.142 0-7.5 3.358-7.5 7.5s3.358 7.5 7.5 7.5z"/></g></g></svg>