<svg id="Capa_1" enable-background="new 0 0 512 512" height="512" viewBox="0 0 512 512" width="512" xmlns="http://www.w3.org/2000/svg"><g><path d="m286.975 136.252h-61.95l-129.581 129.581c-26.219 26.219-40.949 61.78-40.949 98.859 0 77.214 62.594 139.808 139.808 139.808h123.393c77.214 0 139.808-62.594 139.808-139.808 0-37.079-14.73-72.64-40.949-98.859z" fill="#eaf6ff"/><path d="m416.556 265.833-54.497-54.497c26.219 26.219 40.949 61.78 40.949 98.859 0 77.214-62.594 139.808-139.808 139.808h-123.393c-24.601 0-47.712-6.362-67.793-17.518 23.859 42.947 69.677 72.015 122.29 72.015h123.393c77.214 0 139.808-62.594 139.808-139.808-.001-37.079-14.73-72.64-40.949-98.859z" fill="#d8ecfe"/><g><path d="m322.406 466.017h-132.812c-15.046 0-27.243-12.197-27.243-27.243 0-15.046 12.197-27.243 27.243-27.243h132.811c15.046 0 27.243 12.197 27.243 27.243.001 15.045-12.196 27.243-27.242 27.243z" fill="#d77f4a"/><path d="m322.406 411.53h-51.081c15.046 0 27.243 12.197 27.243 27.243s-12.197 27.243-27.243 27.243h51.081c15.046 0 27.243-12.197 27.243-27.243s-12.197-27.243-27.243-27.243z" fill="#c86d36"/><path d="m300.27 411.53h-88.54c-15.046 0-27.243-12.197-27.243-27.243 0-15.046 12.197-27.243 27.243-27.243h88.541c15.046 0 27.243 12.197 27.243 27.243 0 15.046-12.197 27.243-27.244 27.243z" fill="#d77f4a"/><path d="m300.27 357.043h-51.081c15.046 0 27.243 12.197 27.243 27.243s-12.197 27.243-27.243 27.243h51.081c15.046 0 27.243-12.197 27.243-27.243.001-15.045-12.197-27.243-27.243-27.243z" fill="#c86d36"/><path d="m266.216 357.043h-30.649c-9.404 0-17.027-7.623-17.027-17.027 0-20.688 16.771-37.46 37.46-37.46h23.838c7.523 0 13.622 6.099 13.622 13.622v13.622c0 15.046-12.198 27.243-27.244 27.243z" fill="#d77f4a"/><path d="m279.838 302.557h-23.838c-2.939 0-5.796.349-8.54.99 5.004 2.015 8.54 6.907 8.54 12.632v13.621c0 13.769-10.224 25.121-23.488 26.955.993.18 2.011.289 3.056.289h30.649c15.046 0 27.243-12.197 27.243-27.243v-13.622c0-7.524-6.099-13.622-13.622-13.622z" fill="#c86d36"/></g><path d="m284.572 164.824 21.11-21.11c3.156-3.156 3.156-8.273 0-11.429l-17.143-17.143c-3.156-3.156-8.273-3.156-11.429 0l-21.11 21.11v28.572z" fill="#b3dafe"/><path d="m248.857 186.253-42.539-42.539c-3.156-3.156-3.156-8.273 0-11.429l17.143-17.143c3.156-3.156 8.273-3.156 11.429 0l49.682 49.682-21.429 21.429c-3.945 3.945-10.341 3.945-14.286 0z" fill="#c4e2ff"/><path d="m253.608 7.5h4.783c1.753 0 3.486.372 5.084 1.091l11.011 4.956c4.295 1.933 9.221 1.893 13.484-.109l10.143-4.763c1.648-.774 3.446-1.175 5.266-1.175 6.842 0 12.388 5.546 12.388 12.388v20.952c0 22.823-9.066 44.71-25.204 60.848l-34.563 34.564-34.564-34.564c-16.138-16.138-25.204-38.026-25.204-60.848v-20.952c0-6.842 5.546-12.388 12.388-12.388 1.82 0 3.618.401 5.266 1.175l10.143 4.763c4.263 2.002 9.189 2.042 13.484.109l11.011-4.956c1.599-.719 3.332-1.091 5.084-1.091z" fill="#eaf6ff"/><g><path d="m54.611 374.359c4.142-.056 7.454-3.459 7.398-7.601-.009-.687-.019-1.382-.019-2.068 0-35.341 13.763-68.566 38.752-93.557l111.204-111.185 17.385 17.385c-5.818 4.875-13.756 12.758-18.872 22.856-1.872 3.695-.394 8.208 3.301 10.08 1.086.551 2.244.812 3.384.812 2.737 0 5.375-1.504 6.696-4.112 4.282-8.452 11.423-15.153 16.151-18.975l3.562 3.562c3.431 3.431 7.939 5.146 12.446 5.146s9.015-1.716 12.446-5.146l3.562-3.562c4.728 3.822 11.869 10.524 16.151 18.975 1.322 2.608 3.959 4.112 6.696 4.112 1.14 0 2.297-.261 3.384-.812 3.695-1.872 5.173-6.385 3.301-10.08-5.116-10.098-13.054-17.981-18.872-22.856l17.385-17.385 34.623 34.615c1.464 1.465 3.383 2.196 5.303 2.196s3.839-.732 5.304-2.197c2.928-2.93 2.928-7.678-.001-10.606l-34.623-34.614.325-.325c6.075-6.075 6.075-15.961 0-22.036l-17.143-17.142c-.138-.138-.289-.259-.431-.391l2.456-2.456c17.67-17.67 27.401-41.163 27.401-66.151v-20.952c.002-10.967-8.92-19.889-19.887-19.889-2.902 0-5.825.652-8.455 1.887l-10.141 4.763c-2.286 1.074-4.916 1.096-7.219.058l-11.009-4.954c-2.583-1.164-5.329-1.754-8.163-1.754h-4.783c-2.834 0-5.581.59-8.162 1.752l-11.012 4.956c-2.302 1.035-4.933 1.014-7.217-.058l-10.144-4.765c-2.629-1.233-5.552-1.885-8.453-1.885-10.967 0-19.889 8.922-19.889 19.889v20.952c0 24.988 9.731 48.481 27.401 66.151l2.456 2.456c-.142.132-.293.253-.431.391l-17.143 17.143c-6.075 6.075-6.075 15.961 0 22.036l.325.325-111.203 111.183c-27.824 27.825-43.147 64.817-43.147 104.164 0 .754.01 1.517.02 2.271.056 4.107 3.402 7.398 7.498 7.398.034.001.069.001.103 0zm245.767-236.77c.227.227.227.595 0 .821l-15.807 15.807-17.965-17.964 15.807-15.808c.042-.042.17-.17.411-.17.24 0 .368.128.411.171zm-96.646-96.748v-20.952c0-2.695 2.193-4.889 4.889-4.889.713 0 1.433.16 2.078.463l10.143 4.765c6.253 2.936 13.453 2.995 19.75.159l11.013-4.956c.634-.286 1.309-.431 2.004-.431h4.783c.696 0 1.37.145 2.006.432l11.01 4.954c6.299 2.836 13.498 2.778 19.751-.159l10.14-4.763c.647-.304 1.366-.464 2.08-.464 2.696 0 4.889 2.193 4.889 4.889v20.952c0 20.981-8.171 40.708-23.007 55.544l-11.031 11.032c2.94-10.83 4.531-23.766 4.531-37.287 0-4.143-3.358-7.5-7.5-7.5s-7.5 3.357-7.5 7.5c0 14.85-2.177 29.274-5.973 39.576l-1.788 4.853-1.788-4.853c-3.796-10.302-5.973-24.727-5.973-39.576 0-4.143-3.358-7.5-7.5-7.5s-7.5 3.357-7.5 7.5c0 13.521 1.591 26.456 4.531 37.287l-11.031-11.032c-14.836-14.836-23.007-34.563-23.007-55.544zm7.89 96.748 17.144-17.144c.042-.042.17-.17.411-.17.24 0 .368.128.411.171l44.379 44.378-16.125 16.125c-1.015 1.016-2.665 1.016-3.68 0l-42.539-42.539c-.228-.226-.228-.595-.001-.821z"/><path d="m453.791 308.323c-7.429-17.958-18.17-34.039-31.928-47.797l-51.83-51.82c-2.929-2.928-7.678-2.928-10.606.001s-2.928 7.678.001 10.606l51.83 51.819c12.354 12.355 22.001 26.798 28.676 42.932 6.687 16.117 10.077 33.149 10.077 50.626 0 72.956-59.354 132.31-132.31 132.31h-123.401c-35.34 0-68.565-13.763-93.557-38.754-16.31-16.31-28.111-36.624-34.126-58.744-1.087-3.998-5.208-6.356-9.205-5.27s-6.356 5.208-5.27 9.205c6.7 24.64 19.838 47.26 37.994 65.416 27.825 27.824 64.818 43.147 104.164 43.147h123.4c81.227 0 147.31-66.083 147.31-147.31 0-19.459-3.776-38.425-11.219-56.367z"/><path d="m322.41 458.52h-48.91c-4.142 0-7.5 3.357-7.5 7.5s3.358 7.5 7.5 7.5h48.91c9.277 0 18.001-3.614 24.563-10.176s10.177-15.289 10.177-24.574c0-17.093-12.413-31.332-28.696-34.202 4.122-5.712 6.56-12.715 6.56-20.28 0-19.158-15.586-34.744-34.743-34.744h-5.489c3.89-5.611 6.178-12.414 6.178-19.743v-13.621c0-11.646-9.475-21.122-21.122-21.122h-23.838c-24.791 0-44.959 20.169-44.959 44.96 0 3.377.686 6.596 1.926 9.526h-1.237c-19.157 0-34.743 15.586-34.743 34.744 0 7.563 2.437 14.564 6.556 20.275-6.976 1.219-13.403 4.532-18.516 9.645-6.562 6.562-10.176 15.286-10.176 24.562 0 19.161 15.584 34.75 34.74 34.75h48.91c4.142 0 7.5-3.357 7.5-7.5s-3.358-7.5-7.5-7.5h-48.91c-10.885 0-19.74-8.859-19.74-19.75 0-5.271 2.054-10.227 5.783-13.956s8.686-5.783 13.957-5.783h132.82c10.885 0 19.74 8.855 19.74 19.739 0 5.278-2.054 10.238-5.783 13.967-3.73 3.729-8.687 5.783-13.958 5.783zm-96.369-118.503c0-16.52 13.44-29.96 29.959-29.96h23.838c3.375 0 6.122 2.746 6.122 6.122v13.621c0 10.887-8.857 19.743-19.743 19.743h-30.649c-5.254 0-9.527-4.273-9.527-9.526zm-14.312 64.013c-10.886 0-19.743-8.856-19.743-19.743s8.857-19.744 19.743-19.744h88.541c10.886 0 19.743 8.857 19.743 19.744s-8.857 19.743-19.743 19.743z"/><path d="m243.839 271.831c0 4.143 3.358 7.5 7.5 7.5s7.5-3.357 7.5-7.5c0-.608 0-.608.831-1.717 1.433-1.91 3.83-5.107 3.83-10.716 0-5.607-2.397-8.805-3.83-10.716-.831-1.107-.831-1.107-.831-1.716 0-.605 0-.605.83-1.711 1.433-1.909 3.832-5.106 3.832-10.713 0-4.143-3.358-7.5-7.5-7.5s-7.5 3.357-7.5 7.5c0 .605 0 .605-.83 1.711-1.433 1.909-3.832 5.106-3.832 10.713s2.397 8.805 3.83 10.716c.831 1.107.831 1.107.831 1.716s0 .609-.831 1.718c-1.433 1.91-3.83 5.108-3.83 10.715z"/><path d="m315.353 332.052c0 4.143 3.358 7.5 7.5 7.5s7.5-3.357 7.5-7.5c0-.608 0-.608.831-1.717 1.433-1.91 3.83-5.107 3.83-10.716 0-5.607-2.397-8.805-3.83-10.716-.831-1.107-.831-1.107-.831-1.716 0-.605 0-.605.83-1.711 1.433-1.909 3.832-5.106 3.832-10.713 0-4.143-3.358-7.5-7.5-7.5s-7.5 3.357-7.5 7.5c0 .605 0 .605-.83 1.711-1.433 1.909-3.832 5.106-3.832 10.713s2.397 8.805 3.83 10.716c.831 1.107.831 1.107.831 1.716s0 .609-.831 1.718c-1.433 1.91-3.83 5.107-3.83 10.715z"/><path d="m176.986 332.052c0 4.143 3.358 7.5 7.5 7.5s7.5-3.357 7.5-7.5c0-.608 0-.608.831-1.717 1.433-1.91 3.83-5.107 3.83-10.716 0-5.607-2.397-8.805-3.83-10.716-.831-1.107-.831-1.107-.831-1.716 0-.605 0-.605.83-1.711 1.433-1.909 3.832-5.106 3.832-10.713 0-4.143-3.358-7.5-7.5-7.5s-7.5 3.357-7.5 7.5c0 .605 0 .605-.83 1.711-1.433 1.909-3.832 5.106-3.832 10.713s2.397 8.805 3.83 10.716c.831 1.107.831 1.107.831 1.716s0 .609-.831 1.718c-1.432 1.91-3.83 5.107-3.83 10.715z"/></g></g></svg>