<svg id="Capa_1" enable-background="new 0 0 512 512" height="512" viewBox="0 0 512 512" width="512" xmlns="http://www.w3.org/2000/svg"><g><g><g><path d="m263.662 84.461v75.712c0 20.345-16.552 36.897-36.897 36.897h-114.776c-20.346 0-36.898-16.552-36.898-36.897v-75.712h-39.258v145.362h440.334v-145.362z" fill="#f2fbff"/></g><g><g><path d="m35.833 260.879h157.55v211.564h-157.55z" fill="#f2fbff"/></g><g><path d="m159.899 472.444v-168.081c0-5.523-4.477-10-10-10h-114.066v178.081z" fill="#dff6fd"/></g><g><path d="m124.066 304.363v168.081h35.833v-168.081c0-5.523-4.477-10-10-10h-35.833c5.523 0 10 4.477 10 10z" fill="#c8effe"/></g><g><path d="m318.618 260.879h157.55v211.564h-157.55z" fill="#f2fbff"/></g></g></g><g><g><path d="m430 84.461h46.167v145.362h-46.167z" fill="#dff6fd"/></g><g><path d="m430 260.879h46.167v211.564h-46.167z" fill="#dff6fd"/></g></g><g><g><path d="m193.382 471.444h-169.389c-2.761 0-5 2.239-5 5v23.056c0 2.761 2.239 5 5 5h169.39v-33.056z" fill="#918291"/></g><g><path d="m143 471.444h50.382v33.056h-50.382z" fill="#7a6d79"/></g><g><path d="m488.007 471.444h-169.39v33.056h169.39c2.761 0 5-2.239 5-5v-23.056c0-2.762-2.238-5-5-5z" fill="#918291"/></g><g><path d="m488.007 471.444h-52.007c2.761 0 5 2.239 5 5v23.056c0 2.761-2.239 5-5 5h52.007c2.761 0 5-2.239 5-5v-23.056c0-2.762-2.238-5-5-5z" fill="#7a6d79"/></g></g><g><path d="m192.382 261.879h127.235v242.621h-127.235z" fill="#fe646f"/></g><path d="m278 261.879v32.527c5.117.44 9.134 4.726 9.134 9.956v157.654c0 5.23-4.017 9.516-9.134 9.956v32.528h41.618v-242.621z" fill="#fd4755"/><g><path d="m224.866 462.016v-157.653c0-5.523 4.477-10 10-10h42.268c5.523 0 10 4.477 10 10v157.653c0 5.523-4.477 10-10 10h-42.268c-5.523 0-10-4.477-10-10z" fill="#dff6fd"/></g><g><path d="m277.134 294.363h-20.866c5.523 0 10 4.477 10 10v157.654c0 5.523-4.477 10-10 10h20.866c5.523 0 10-4.477 10-10v-157.654c0-5.523-4.477-10-10-10z" fill="#c8effe"/></g><g><g><path d="m75.091 52.405h-51.098c-2.761 0-5 2.239-5 5v23.056c0 2.761 2.239 5 5 5h51.099v-33.056z" fill="#918291"/></g><g><path d="m488.007 52.405h-224.345v33.056h224.345c2.761 0 5-2.239 5-5v-23.056c0-2.762-2.238-5-5-5z" fill="#918291"/></g></g><g><path d="m488.007 52.405h-52.007c2.761 0 5 2.239 5 5v23.056c0 2.761-2.239 5-5 5h52.007c2.761 0 5-2.239 5-5v-23.056c0-2.762-2.238-5-5-5z" fill="#7a6d79"/></g><g><path d="m488.007 228.823h-464.014c-2.761 0-5 2.239-5 5v23.056c0 2.761 2.239 5 5 5h464.015c2.761 0 5-2.239 5-5v-23.056c-.001-2.761-2.239-5-5.001-5z" fill="#918291"/></g><g><path d="m488.007 228.823h-52.007c2.761 0 5 2.239 5 5v23.056c0 2.761-2.239 5-5 5h52.007c2.761 0 5-2.239 5-5v-23.056c0-2.761-2.238-5-5-5z" fill="#7a6d79"/></g><g><g><path d="m226.765 198.071h-114.776c-20.93 0-37.898-16.967-37.898-37.898v-114.775c0-20.93 16.967-37.898 37.898-37.898h114.776c20.93 0 37.898 16.967 37.898 37.898v114.776c-.001 20.929-16.968 37.897-37.898 37.897z" fill="#0593fc"/></g><g><path d="m226.765 7.5h-41.662c20.93 0 37.897 16.967 37.897 37.898v114.776c0 20.93-16.967 37.898-37.898 37.898h41.662c20.93 0 37.898-16.967 37.898-37.898v-114.776c0-20.931-16.967-37.898-37.897-37.898z" fill="#0182fc"/></g><g><g><g><path d="m206.396 114.342c-5.077-2.155-8.906-6.403-10.97-11.518-4.159-10.306-14.253-17.578-26.049-17.578s-21.89 7.273-26.049 17.578c-2.064 5.115-5.893 9.363-10.97 11.518-10.457 4.438-17.67 15.029-17.087 27.233.684 14.337 12.361 26.005 26.699 26.679 5.88.277 11.384-1.256 16.005-4.09 7.043-4.318 15.762-4.318 22.805 0 4.621 2.833 10.125 4.366 16.005 4.09 14.338-.674 26.014-12.342 26.699-26.679.582-12.204-6.63-22.795-17.088-27.233z" fill="#fff"/></g><g><path d="m206.396 114.342c-5.077-2.155-8.906-6.403-10.97-11.518-4.159-10.306-14.253-17.578-26.049-17.578-8.033 0-15.272 3.378-20.39 8.784.259-.007.514-.03.775-.03 11.796 0 21.89 7.273 26.049 17.578 2.064 5.115 5.893 9.363 10.97 11.518 10.457 4.438 17.67 15.029 17.087 27.233-.33 6.909-3.217 13.193-7.72 17.931.213-.005.422.004.636-.006 14.338-.674 26.014-12.342 26.699-26.679.583-12.204-6.629-22.795-17.087-27.233z" fill="#f2fbff"/></g><g><g><g><ellipse cx="113.153" cy="80.62" fill="#fff" rx="13.79" ry="17.349"/></g><g><ellipse cx="225.601" cy="80.62" fill="#fff" rx="13.79" ry="17.349"/></g></g><g><g><ellipse cx="148.073" cy="52.467" fill="#f2fbff" rx="13.79" ry="17.349"/></g><g><ellipse cx="190.681" cy="52.467" fill="#f2fbff" rx="13.79" ry="17.349"/></g></g></g></g></g></g><g><g><path d="m436.204 354.714h-23.874v-23.874c0-2.761-2.239-5-5-5h-18.874c-2.761 0-5 2.239-5 5v23.874h-23.874c-2.761 0-5 2.239-5 5v18.874c0 2.761 2.239 5 5 5h23.874v23.874c0 2.761 2.239 5 5 5h18.874c2.761 0 5-2.239 5-5v-23.874h23.874c2.761 0 5-2.239 5-5v-18.874c0-2.761-2.238-5-5-5z" fill="#60b7ff"/></g></g><g><g><path d="m436.204 354.714h-9.21v9.664c0 2.761-2.239 5-5 5h-18.874c-2.761 0-5 2.239-5 5v18.874c0 2.761-2.239 5-5 5h-9.664v9.21c0 2.761 2.239 5 5 5h18.874c2.761 0 5-2.239 5-5v-23.874h23.874c2.761 0 5-2.239 5-5v-18.874c0-2.761-2.238-5-5-5z" fill="#26a6fe"/></g></g><g><path d="m234.866 479.516h42.268c9.649 0 17.5-7.851 17.5-17.5v-157.653c0-9.649-7.851-17.5-17.5-17.5h-42.268c-9.649 0-17.5 7.851-17.5 17.5v56.637c0 4.142 3.358 7.5 7.5 7.5s7.5-3.358 7.5-7.5v-56.637c0-1.378 1.122-2.5 2.5-2.5h42.268c1.378 0 2.5 1.122 2.5 2.5v157.653c0 1.378-1.122 2.5-2.5 2.5h-42.268c-1.378 0-2.5-1.122-2.5-2.5v-66.016c0-4.142-3.358-7.5-7.5-7.5s-7.5 3.358-7.5 7.5v66.016c0 9.65 7.851 17.5 17.5 17.5z"/><path d="m488.007 92.96c6.893 0 12.5-5.607 12.5-12.5v-23.056c0-6.893-5.607-12.5-12.5-12.5h-66.007c-4.142 0-7.5 3.358-7.5 7.5s3.358 7.5 7.5 7.5h63.507v18.056h-9.34-204.005v-18.056h114.838c4.142 0 7.5-3.358 7.5-7.5s-3.358-7.5-7.5-7.5h-114.85c-.267-24.805-20.519-44.904-45.385-44.904h-114.776c-24.867 0-45.119 20.099-45.385 44.904h-42.611c-6.893 0-12.5 5.607-12.5 12.5v23.056c0 6.893 5.607 12.5 12.5 12.5h4.34v128.363h-4.34c-6.893 0-12.5 5.607-12.5 12.5v23.056c0 6.893 5.607 12.5 12.5 12.5h4.34v194.564h-4.34c-6.893 0-12.5 5.607-12.5 12.5v23.057c0 6.893 5.607 12.5 12.5 12.5h464.015c6.893 0 12.5-5.607 12.5-12.5v-23.056c0-6.893-5.607-12.5-12.5-12.5h-4.34v-194.565h4.34c6.893 0 12.5-5.607 12.5-12.5v-23.056c0-6.893-5.607-12.5-12.5-12.5h-4.34v-128.363zm-413.916 27.54c4.142 0 7.5-3.358 7.5-7.5v-67.603c0-16.761 13.637-30.397 30.398-30.397h114.775c16.761 0 30.397 13.636 30.397 30.397v114.776c0 16.761-13.636 30.397-30.397 30.397h-114.775c-16.761 0-30.398-13.636-30.398-30.397v-12.173c0-4.142-3.358-7.5-7.5-7.5s-7.5 3.358-7.5 7.5v12.173c0 25.032 20.365 45.397 45.398 45.397h114.775c25.032 0 45.397-20.365 45.397-45.397v-67.213h196.505v128.363h-425.333v-128.363h23.258v20.04c0 4.142 3.358 7.5 7.5 7.5zm-47.598-42.54v-18.056h40.099v18.056h-30.759zm158.389 419.04h-158.389v-18.056h158.39v18.056zm-141.549-33.056v-162.081h106.566c1.378 0 2.5 1.122 2.5 2.5v159.581zm141.549 0h-17.483v-159.581c0-9.649-7.851-17.5-17.5-17.5h-106.566v-17.483h141.549zm127.236 33.056h-112.236v-227.621h112.235v227.621zm173.389-18.056v18.056h-158.39v-18.056zm-158.389-15v-194.565h141.549v194.564h-141.549zm158.389-227.621v18.056h-459.014v-18.056z"/><path d="m190.681 77.316c6.685 0 12.658-3.618 16.564-9.262-1.861 3.69-2.934 7.983-2.934 12.566 0 13.702 9.551 24.849 21.29 24.849s21.29-11.147 21.29-24.849-9.551-24.849-21.29-24.849c-6.685 0-12.658 3.618-16.564 9.262 1.861-3.69 2.934-7.983 2.934-12.566 0-13.702-9.551-24.849-21.29-24.849s-21.29 11.147-21.29 24.849 9.551 24.849 21.29 24.849zm34.92-6.545c2.975 0 6.29 4.045 6.29 9.849s-3.315 9.849-6.29 9.849-6.29-4.045-6.29-9.849 3.315-9.849 6.29-9.849zm-34.92-28.152c2.975 0 6.29 4.045 6.29 9.849s-3.315 9.849-6.29 9.849-6.29-4.045-6.29-9.849 3.315-9.849 6.29-9.849z"/><path d="m136.373 100.017c-1.405 3.481-3.871 6.117-6.945 7.421-13.657 5.796-22.356 19.658-21.648 34.495.864 18.109 15.728 32.962 33.837 33.813.571.027 1.141.041 1.71.041 6.579 0 12.966-1.793 18.569-5.228 4.614-2.83 10.349-2.829 14.965 0 6.086 3.732 13.099 5.529 20.277 5.187 18.11-.852 32.974-15.705 33.838-33.813.708-14.836-7.992-28.699-21.648-34.495-3.074-1.304-5.54-3.939-6.945-7.421-5.46-13.529-18.415-22.271-33.004-22.271s-27.546 8.742-33.006 22.271zm13.91 5.614c3.159-7.828 10.654-12.885 19.094-12.885s15.936 5.058 19.094 12.885c2.906 7.199 8.231 12.744 14.995 15.615 7.902 3.354 12.936 11.38 12.525 19.972-.499 10.467-9.091 19.053-19.56 19.545-4.166.195-8.22-.838-11.732-2.992-4.727-2.897-10.024-4.346-15.323-4.346-5.298 0-10.597 1.449-15.322 4.346-3.513 2.153-7.568 3.19-11.734 2.992-10.468-.492-19.06-9.078-19.559-19.545-.41-8.592 4.623-16.618 12.525-19.972 6.766-2.871 12.091-8.416 14.997-15.615z"/><path d="m113.153 105.469c11.739 0 21.29-11.147 21.29-24.849 0-4.583-1.073-8.876-2.934-12.566 3.906 5.643 9.878 9.262 16.564 9.262 11.739 0 21.29-11.147 21.29-24.849s-9.551-24.849-21.29-24.849-21.29 11.147-21.29 24.849c0 4.583 1.073 8.876 2.934 12.566-3.906-5.643-9.878-9.262-16.564-9.262-11.739 0-21.29 11.147-21.29 24.849s9.551 24.849 21.29 24.849zm34.92-62.85c2.975 0 6.29 4.045 6.29 9.849s-3.315 9.849-6.29 9.849-6.29-4.045-6.29-9.849 3.315-9.849 6.29-9.849zm-34.92 28.152c2.975 0 6.29 4.045 6.29 9.849s-3.315 9.849-6.29 9.849-6.29-4.045-6.29-9.849 3.315-9.849 6.29-9.849z"/><path d="m436.204 347.214h-16.374v-16.374c0-6.893-5.607-12.5-12.5-12.5h-18.874c-6.893 0-12.5 5.607-12.5 12.5v16.375h-16.375c-6.893 0-12.5 5.607-12.5 12.5v18.874c0 6.893 5.607 12.5 12.5 12.5h16.375v16.375c0 6.893 5.607 12.5 12.5 12.5h18.874c6.893 0 12.5-5.607 12.5-12.5v-16.375h16.375c6.893 0 12.5-5.607 12.5-12.5v-18.874c-.001-6.893-5.608-12.501-12.501-12.501zm-2.5 28.874h-21.374c-4.142 0-7.5 3.358-7.5 7.5v21.375h-13.874v-21.375c0-4.142-3.358-7.5-7.5-7.5h-21.375v-13.874h21.375c4.142 0 7.5-3.358 7.5-7.5v-21.374h13.874v21.375c0 4.142 3.358 7.5 7.5 7.5h21.375v13.873z"/><path d="m299.312 136.272h125.604c4.142 0 7.5-3.358 7.5-7.5s-3.358-7.5-7.5-7.5h-125.604c-4.142 0-7.5 3.358-7.5 7.5s3.357 7.5 7.5 7.5z"/><path d="m299.312 176.335h125.604c4.142 0 7.5-3.358 7.5-7.5s-3.358-7.5-7.5-7.5h-125.604c-4.142 0-7.5 3.358-7.5 7.5s3.357 7.5 7.5 7.5z"/></g></g></svg>