<svg id="Layer_1" enable-background="new 0 0 512.022 512.022" height="512" viewBox="0 0 512.022 512.022" width="512" xmlns="http://www.w3.org/2000/svg"><g><path d="m406.685 159.084c-.31 2.904-.502 5.812-.579 8.701-.156 5.796 2.835 11.189 7.795 14.192 7.763 4.701 14.442 10.283 20.073 15.968 8.137 8.215 22.042 5.202 26.179-5.595 9.758-25.466 10.335-48.039-9.573-84.042-3.363-6.075-11.736-6.969-16.297-1.722-10.198 11.725-25.432 32.285-27.598 52.498z" fill="#e2b844"/><path d="m310.888 164.342c-30.148 30.148-14.979 94.198 33.882 143.059 33.063 33.063 95.754 42.865 132.837 45.748 15.87 1.234 28.849-12.536 26.662-28.304-4.907-35.38-17.707-94.006-50.322-126.621-48.861-48.861-112.911-64.03-143.059-33.882z" fill="#f2d98d"/><path d="m323.804 330.638v33.882c0 6.788-1.633 13.195-4.528 18.849-1.757 3.431.674 7.505 4.529 7.505 8.317 0 15.059 6.742 15.059 15.059 0 8.317-6.742 15.059-15.059 15.059h-27.838c-5.418 0-9.809-4.392-9.809-9.809 0-3.875-2.297-7.352-5.825-8.956-14.327-6.513-24.292-20.941-24.292-37.705v-33.882h67.763z" fill="#e2b844"/><path d="m218.392 330.638v33.882c0 6.788-1.633 13.195-4.528 18.849-1.757 3.431.674 7.505 4.529 7.505 8.317 0 15.059 6.742 15.059 15.059 0 8.317-6.742 15.059-15.059 15.059h-42.897c-5.418 0-9.809-4.392-9.809-9.809 0-3.875-2.297-7.352-5.825-8.956-14.327-6.513-24.292-20.941-24.292-37.705v-33.882h82.822z" fill="#e2b844"/><path d="m368.981 292.99v71.529c0 6.788-1.633 13.195-4.528 18.849-1.757 3.431.674 7.505 4.529 7.505 8.317 0 15.059 6.742 15.059 15.059 0 8.317-6.742 15.059-15.059 15.059h-27.838c-5.418 0-9.809-4.392-9.809-9.809 0-3.875-2.297-7.352-5.825-8.956-14.327-6.513-24.292-20.941-24.292-37.705v-48.941z" fill="#ebca5f"/><path d="m173.216 330.638v33.882c0 6.788-1.633 13.195-4.528 18.849-1.757 3.431.674 7.505 4.529 7.505 8.317 0 15.059 6.742 15.059 15.059 0 8.317-6.742 15.059-15.059 15.059h-42.897c-5.418 0-9.809-4.392-9.809-9.809 0-3.875-2.297-7.352-5.825-8.956-14.327-6.513-24.292-20.941-24.292-37.705v-33.882h82.822z" fill="#ebca5f"/><path d="m74.307 406.479c-26.426-32.592-30.485-56.522 16.086-69.557-3.579-22.173-7.158-44.346-10.738-66.519-64.015 17.917-118.109 94.858-12.021 149.953 6.515 3.383 11.784-7.572 6.673-13.877z" fill="#ddae2c"/><path d="m308.737 351.468-19.76-10.17-25.41 4.61c-3.57-.9-6.89-1.83-9.92-2.74-11.09-3.34-23.04-.26-31.46 7.75-1.24 1.181-2.51 2.32-3.8 3.4l-1.73.29-.71.12c-216.16-72.551-62.14-246.04-60.71-247.641.01-.01.01-.01.01-.01 5.89-1.96 11.89-3.64 17.96-5.03l24.29 6.591 20.89-11.391c16.15.22 31.21 2.08 45.18 5.43l25.79 24.03 19.38-6.13c9.82 5.7 18.85 12.36 27.1 19.87 10.62 9.68 14.9 24.61 10.64 38.34-6.39 20.59 7.53 35.57 21.3 62 25.39 48.742-7.75 105.971-59.04 110.681z" fill="#daa985"/><path d="m216.657 354.609-23.06 3.859-20.39 15.9c-9.23 1.46-18.78 1.771-28.42 1.13v.01c-5.57-.369-11.17-1.05-16.75-2.029l-20.89-11.67-24.29-1.99c-12.66-5.45-24.45-11.93-34.73-18.88-22.42-15.15-35.04-41.49-32.77-68.62 3.87-46.16 29.6-91.07 67.5-123.84l27.86-4.17 17.32-25.99c8.77-4.37 17.86-8.15 27.21-11.24-15.53 47.639-38.21 161.81 61.41 247.53z" fill="#cb8a5a"/><path d="m218.387 97.248v257.07c-40.48-1.851-45.18-49.43-45.18-49.43v-202.84c16.093-3.705 30.385-4.936 45.18-4.8z" fill="#cb8a5a"/><path d="m217.337 355.189c-12.94 10.59-28.06 16.63-44.13 19.18v-69.479c11 17.358 25.43 34.328 44.13 50.299z" fill="#c47b46"/><path d="m82.862 148.475v211.34c14.29 6.16 29.67 10.989 45.18 13.66v-255.16c-16.341 8.14-31.55 18.359-45.18 30.16z" fill="#c47b46"/><path d="m263.572 102.674v243.23c8.96 2.27 19.44 4.36 30.61 5.479 4.99.5 9.85.511 14.56.08v-230.89c-13.55-7.888-28.601-13.939-45.17-17.899z" fill="#cb8a5a"/><path d="m457.634 299.062c0 30.475-57.839 30.475-57.839 0s57.839-30.475 57.839 0z" fill="#fff"/><path d="m375.83 154.804c4.289 25.104 10.054 14.823 36.839 29.962 10.066 5.689 22.626-.996 23.666-12.512.79-8.742.467-18.226-1.126-27.569-3.42-20.061-20.01-39.631-30.97-50.69-4.89-4.93-13.19-3.51-16.15 2.78-6.619 14.059-15.679 37.99-12.259 58.029z" fill="#ebca5f"/></g><g><path d="m511.709 323.769c-3.178-22.904-7.972-44.164-14.25-63.187-1.299-3.935-5.543-6.071-9.472-4.771-3.934 1.298-6.07 5.539-4.772 9.473 5.91 17.909 10.625 38.846 13.636 60.544 1.523 11.02-7.538 20.66-18.648 19.805-24.604-1.917-68.34-7.677-101.713-24.889v-10.331c10.398-22.927 10.292-49.458-2.048-73.139-13.582-26.07-26.027-39.436-20.799-56.31 2.494-8.027 2.581-16.598.392-24.648 4.729.086 9.664.615 14.771 1.577.451 2.401.963 4.825 1.577 7.247 2.083 8.185 8.458 14.668 16.645 16.924 7.325 2.008 14.716 5.101 21.968 9.188 8.043 4.537 17.527 3.852 24.802-1.176 16.952 13.795 27.319 25.72 37.445 45.849 4.744 8.726 17.579 2.251 13.4-6.74-5.807-11.544-12.373-21.599-19.576-30.009.828-1.314 1.535-2.713 2.099-4.185 10.494-27.412 11.02-52.31-10.015-90.357-5.887-10.622-20.546-12.171-28.521-3.013-1.313 1.511-2.58 3.033-3.823 4.559-5.372-7.134-10.971-13.218-15.231-17.513-8.552-8.621-23.089-6.121-28.259 4.866-6.144 13.041-12.954 31.243-13.66 48.94-7.224-1.101-14.188-1.424-20.824-.975-1.759-2.388-3.728-4.62-5.935-6.63-87.571-79.912-243.477-51.502-309.668 64.279-2.056 3.597-.807 8.178 2.789 10.233 3.596 2.057 8.177.807 10.233-2.788 8.428-14.743 18.861-28.435 31.117-40.868v182.303c-8.117-4.023-15.836-8.487-23.03-13.351-19.83-13.4-31.578-36.895-29.496-61.78 1.05-12.521 3.827-25.218 8.255-37.739 1.381-3.905-.665-8.19-4.57-9.572-3.907-1.381-8.191.664-9.571 4.57-4.856 13.731-7.905 27.69-9.062 41.49-1.045 12.494.779 24.822 5.058 36.165-31.096 49.213-3.146 90.819 51.226 119.154 14.119 7.34 26.07-12.802 15.957-25.246-19.502-24.065-20.008-35.444-15.518-42.329 8.417 4.39 14.175 6.814 18.407 8.564 1.27 17.747 12.193 33.613 28.528 41.039.862.397 1.467 1.176 1.467 2.147 0 9.545 7.765 17.311 17.31 17.311h88.07c27.598-.555 30.75-39.885 3.616-44.835 4.362-10.214 3.884-17.732 3.884-25.955.49-.447.981-.892 1.47-1.356 5.772-5.492 13.66-7.923 21.18-6.68v14.855c0 19.134 11.261 36.612 28.667 44.52.848.388 1.443 1.186 1.443 2.141 0 9.545 7.765 17.311 17.31 17.311 29.612 0 31.232.645 37.11-2.008 4.929 2.611 5.691 2.008 35.909 2.008 6.027 0 11.692-2.347 15.954-6.607 13.147-13.15 5.516-35.368-12.339-38.227 4.733-11.083 3.885-16.185 3.885-46.193 21.387 9.838 53.531 19.501 100.551 23.164 20.614 1.607 37.508-16.282 34.669-36.819zm-67.682-211.87c18.796 33.997 17.72 53.722 9.838 75.779-3.606-3.36-7.319-6.582-11.11-9.646 2.362-7.33 1.521-22.58.519-30.216-1.112-8.956-3.499-17.467-9.76-28.473 2.023-2.633 4.169-5.27 6.435-7.879 1.138-1.307 3.229-1.096 4.078.435zm-49.14-11.976c.741-1.574 2.806-1.935 4.039-.692 5.357 5.401 13.02 13.862 19.164 23.543v.001c5.887 9.744 8.975 16.266 10.305 26.94.946 7.212 1.111 14.759.475 21.832-.53 5.972-7.062 9.708-12.506 6.64-28.793-16.235-29.711-4.599-33.133-24.704-2.887-16.669 4.417-38.195 11.656-53.56zm-55.571 76.597c-13.887 46.685 59.352 74.756 16.367 139.972-9.747 13.414-23.817 22.647-39.433 26.15v-208.376c5.073 3.59 9.94 7.49 14.541 11.689 8.684 7.907 11.834 19.913 8.525 30.565zm-128.416-71.781v245.94c-8.719 6.734-18.83 11.578-30.18 14.453v-257.057c10.482-2.061 20.376-3.096 30.18-3.336zm-120.53 250.023v-202.835c9.468-7.937 19.567-15.014 30.18-21.117v233.462c-9.997-2.257-20.1-5.435-30.18-9.51zm45.18-231.776c9.836-4.629 19.936-8.409 30.17-11.305v256.035c-9.117.888-19.178.737-30.17-.729zm-66.685 289.492c-37.573-20.076-66.93-51.143-47.895-88.793 8.792 13.552 18.524 20.919 30.613 28.328-15.785 25.998 17.335 57.203 17.282 60.465zm59.155-1.338c0-6.794-3.952-12.899-10.226-15.787-9.12-4.146-15.799-12.066-18.53-21.4 19.834 6.439 40.805 10.151 61.633 9.128-1.656 7.707 4.159 15.25 12.323 15.25 9.998 0 9.998 15.12 0 15.12h-42.89c-1.273 0-2.31-1.037-2.31-2.311zm95.717.107c-2.937 2.949-3.699 2.204-29.28 2.204 4.752-13.366-3.822-27.633-17.619-29.834.347-.817.663-1.648.965-2.483 12.019-2.275 22.99-6.354 32.796-12.158-.5 3.813-1.633 7.48-3.409 10.946-4.306 8.443 1.782 18.409 11.21 18.409 6.744 0 10.077 8.159 5.337 12.916zm2.163-72.207v-234.091c10.452.503 20.559 1.737 30.18 3.706v100.939c.344 9.931 14.659 9.923 15 0v-97.158c10.645 3.189 20.748 7.37 30.17 12.5v219.282c-2.098-.02-4.205-.129-6.311-.341-7.713-.773-15.715-2.102-23.859-3.94v-99.849c-.344-9.931-14.659-9.923-15 0v95.925c-.085-.025-.171-.049-.256-.074-10.012-3.016-20.774-1.783-29.924 3.101zm70.071 74.411c-1.274 0-2.31-1.036-2.31-2.311 0-6.847-4.013-12.948-10.218-15.788-12.084-5.489-19.892-17.607-19.892-30.872v-10.907c9.675 2.372 20.254 4.31 30.17 5.252v5.655c0 19.131 11.265 36.609 28.662 44.513 1.835.844 1.331 2.224 1.629 4.447-.068.002-.131.011-.201.011zm78.367-2.214c-1.428 1.428-3.327 2.214-5.348 2.214h-27.84c-1.274 0-2.31-1.036-2.31-2.311 0-3.376-.977-6.646-2.813-9.436-1.802-2.755-4.35-4.946-7.405-6.353-12.09-5.492-19.902-17.61-19.902-30.872v-5.543c20.263-1.666 38.997-11.06 52.77-25.935 0 32.099 1.18 37.373-3.703 46.904-4.322 8.423 1.735 18.424 11.203 18.424 6.684.002 10.118 8.136 5.348 12.908z"/><path d="m424.312 273.959c.346 9.93 14.657 9.925 15 0 0-5.715 4.795-6.159 6.265-6.159s6.265.444 6.265 6.159c0 4.143 3.358 7.5 7.5 7.5s7.5-3.357 7.5-7.5c-.355-28.074-42.175-28.074-42.53 0z"/></g></svg>