<svg id="Layer_1" enable-background="new 0 0 511.967 511.967" height="512" viewBox="0 0 511.967 511.967" width="512" xmlns="http://www.w3.org/2000/svg"><g><ellipse cx="370.481" cy="406.103" fill="#8894a2" rx="89.272" ry="74.153" transform="matrix(.672 -.741 .741 .672 -179.222 407.526)"/><ellipse cx="333.018" cy="46.27" fill="#fef5e6" rx="48.242" ry="32.579" transform="matrix(.808 -.589 .589 .808 36.707 205.146)"/><ellipse cx="133.815" cy="46.27" fill="#fbebcf" rx="32.579" ry="48.242" transform="matrix(.589 -.808 .808 .589 17.573 127.11)"/><path d="m384.007 357.647c0 .39 0 .78-.01 1.17-.07 17.29-1.96 34.03-5.38 49.95-8.7 40.25-34.64 71.98-67.96 86.71-39.1-16.8-68.85-34.56-91.02-52.76-91.74-75.33-53.5-158.27-9.07-211.979 15.394.627 31.508.403 46.13-.48 24.45-1.44 51.51-4.82 81.18-10.89 6.12 7.51 11.74 15.68 16.79 24.41 18.439 31.859 29.34 71.239 29.34 113.869z" fill="#c47b46"/><path d="m310.656 495.477c-13.15 5.82-27.45 8.99-42.3 8.99h-69.89c-51.78 0-97.37-38.47-109.81-93.75-3.79-16.85-5.83-34.66-5.83-53.07 0-54.7 17.94-104.06 46.73-139.04 20.02 5.59 46.51 10.61 79.53 12.06.49.03.98.05 1.48.07 11.972.488 22.504.436 33.93.09-25.123 69.696-30.802 148.238 10.8 209.54.01 0 .01.01.01.01 13.09 19.72 31.11 38.39 55.35 55.1z" fill="#b36d3a"/><path d="m316.237 335.057c0 50.31-25.81 92.67-60.93 105.32 0 0 0-.01-.01-.01-1.51-.65-141.3-62.08-12.76-209.48 4.708-.145 9.282-.336 14.16-.63 34.399 13.249 59.54 55.16 59.54 104.8z" fill="#fbebcf"/><path d="m255.307 440.376c-11.577 4.186-23.871 4.974-35.67 2.34-39.18-8.64-69.04-53.55-69.04-107.66 0-49.14 24.62-90.69 58.49-104.39.49.03.98.05 1.48.07 11.972.488 22.504.436 33.93.09-24.894 69.062-30.92 148.064 10.8 209.54.01.001.01.01.01.01z" fill="#f8e0b8"/><path d="m105.416 225.879c-12.994 20.413-24.625 46.95-31.33 74.63-7.591 31.34 10.712 62.863 41.629 72.026 23.357 6.923 51.302 8.099 80.368-6.437l2.926-17.553c2.25-13.501-6.731-26.174-20.15-28.871-52.523-10.552-67.699-70.699-73.443-93.795z" fill="#c47b46"/><path d="m361.416 225.879c12.994 20.413 24.625 46.95 31.33 74.63 7.591 31.34-10.712 62.863-41.629 72.026-23.357 6.923-51.302 8.099-80.368-6.437l-2.926-17.553c-2.25-13.501 6.731-26.174 20.15-28.871 52.524-10.552 67.7-70.699 73.443-93.795z" fill="#cb8a5a"/><path d="m402.346 196.037c-1.54 3.49-6.27 4.02-8.55.97l-6.64-8.88c-2.95-3.95-9.22-1.69-8.96 3.24 1.01 19.12-1.39 48.77-22.51 65.91-3.41 2.77-8.48.11-8.11-4.27.56-6.73.47-15.67-2.37-23.65-1.55-4.33-7.58-4.49-9.32-.23-4.81 11.76-18.55 29.97-57.84 37.94-12.23 2.5-26.94 3.99-44.63 3.99-7.22 0-13.95-.25-20.21-.72-2.95-.21-5.79-.48-8.53-.79-3.41-.38-6.66-.83-9.76-1.35-176.53-108.95 3.37-254.52 5.26-256.05.01-.01.02-.01.02-.01 2.43-.7 4.91-1.32 7.42-1.86 8.25-1.8 16.9-2.75 25.8-2.75 47.98 0 88.44 27.67 101 65.46 3.2 9.61 9.44 17.89 17.52 23.95 26.88 20.12 68.021 59.069 50.41 99.1z" fill="#daa985"/><path d="m194.916 268.197c-2.11-.35-4.15-.73-6.13-1.13-39.29-7.97-53.03-26.18-57.84-37.94-1.74-4.26-7.77-4.1-9.32.23-2.84 7.98-2.93 16.92-2.37 23.65.37 4.38-4.7 7.04-8.11 4.27-21.12-17.14-23.52-46.79-22.51-65.91.26-4.93-6.01-7.19-8.96-3.24l-6.64 8.88c-2.28 3.05-7.01 2.52-8.55-.97-17.61-40.03 23.53-78.98 50.41-99.1 8.08-6.06 14.32-14.34 17.52-23.95 9.52-28.65 35.07-51.48 67.78-60.85 2.43-.7 4.91-1.32 7.42-1.86-32.869 33.689-123.359 145.11-12.7 257.92z" fill="#cb8a5a"/><path d="" style="fill:none;stroke:#000;stroke-width:15;stroke-linecap:round;stroke-linejoin:round;stroke-miterlimit:10"/><path d="m271.122 368.938c-12.508 0-22.647-10.139-22.647-22.647v-7.412c0-12.508 10.139-22.647 22.647-22.647 8.284 0 15 6.716 15 15v22.706c0 8.284-6.715 15-15 15z" fill="#f2d98d"/><path d="m195.711 368.938c12.508 0 22.647-10.139 22.647-22.647v-7.412c0-12.508-10.139-22.647-22.647-22.647-8.284 0-15 6.716-15 15v22.706c0 8.284 6.715 15 15 15z" fill="#ebca5f"/><path d="m139.269 504.467h37.706c10.38 0 18.794-8.414 18.794-18.794 0-18.729-15.183-33.912-33.912-33.912h-7.471c-18.729 0-33.912 15.183-33.912 33.912.001 10.38 8.416 18.794 18.795 18.794z" fill="#ebca5f"/><path d="m327.564 504.467h-37.706c-10.38 0-18.794-8.414-18.794-18.794 0-18.729 15.183-33.912 33.912-33.912h7.471c18.729 0 33.912 15.183 33.912 33.912-.001 10.38-8.416 18.794-18.795 18.794z" fill="#f2d98d"/><path d="m271.066 173.177-13.32 59.93c-1.02 4.58-5.08 7.83-9.76 7.83h-14.57l-15.06-47.87 15.06-19.89z" fill="#fef5e6"/><path d="m233.416 173.177v67.76h-14.57c-4.68 0-8.74-3.25-9.76-7.83l-13.32-59.93z" fill="#fbebcf"/><path d="m308.707 180.707c0 16.63-18.96 30.11-42.35 30.11-7.21 0-14-1.28-19.95-3.54-8.19-3.12-17.79-3.12-25.98 0-5.95 2.26-12.74 3.54-19.95 3.54-8.29 0-16.01-1.69-22.54-4.62-11.9-5.32-19.81-14.75-19.81-25.49 0-9.15 5.73-17.34 14.77-22.85 7.41-4.54 17.04-7.27 27.58-7.27 13.31 0 25.18 4.37 32.94 11.19 7.76-6.82 19.63-11.19 32.94-11.19 23.39-.001 42.35 13.479 42.35 30.12z" fill="#f2d98d"/><path d="m257.672 142.426c0-14.643-10.608-16.019-23.694-16.019s-23.693 1.376-23.693 16.019c0 35.082 47.387 35.082 47.387 0z" fill="#4e5660"/></g><g><path d="m401.982 317.501c.74-21.918-13.883-58.183-23.95-77.666 4.647-10.246 7.854-23.571 7.868-40.865l1.891 2.529c5.714 7.637 17.567 6.315 21.421-2.443 14.643-33.286-4.101-71.686-52.773-108.121-2.868-2.15-5.412-4.583-7.608-7.24 43.471-24.184 46.94-75.779 8.058-82.931-15.701-2.893-37.412 2.833-55.032 19.424-40.16-26.773-96.122-27.062-136.88 0-17.646-16.617-39.366-22.306-55.031-19.424-39.042 7.181-35.153 58.89 8.058 82.931-6.976 8.439-14.232 10.435-32.201 28.335-2.934 2.924-2.943 7.673-.02 10.606 2.923 2.936 7.672 2.943 10.606.021 6.699-6.674 14.437-13.308 23.003-19.721 9.551-7.161 16.514-16.699 20.137-27.585 27.289-79.877 160.52-79.831 187.774.004 3.623 10.884 10.587 20.422 20.142 27.585 23.665 17.715 60.591 51.845 49.62 85.913l-3.897-5.214c-7.376-9.878-23.105-4.189-22.458 8.121 1.03 19.568-1.923 41.215-15.363 55.596.079-7.66-.952-14.54-3.08-20.521-3.859-10.817-18.986-11.142-23.325-.545-8.835 21.63-36.615 30.226-52.399 33.428-39.668 8.11-122.241 6.745-138.652-33.433-4.319-10.551-19.451-10.305-23.325.556-2.127 5.979-3.158 12.861-3.078 20.531-13.369-14.223-16.394-36.039-15.363-55.613.646-12.307-15.083-17.997-22.457-8.123l-3.906 5.226c-4.246-12.999-1.92-26.727 7.052-41.812 2.118-3.56.948-8.162-2.612-10.28-3.561-2.117-8.163-.946-10.28 2.612-12.416 20.875-14.536 40.952-6.3 59.674 3.847 8.746 15.699 10.091 21.423 2.44l1.888-2.526c.015 17.295 3.221 30.62 7.868 40.865-9.542 18.466-17.125 38.749-22.004 58.905-4.469 18.452-1.313 37.07 8.623 52.265-1.574 53.406 11.524 95.068 38.968 123.952-5.965 22.241 8.698 37.01 24.881 37.01h188.294c10.723 0 19.961-6.455 24.048-15.68 29.546 1.375 59.077-12.992 79.337-35.309 2.784-3.066 2.556-7.81-.512-10.594-3.066-2.785-7.811-2.557-10.594.512-17.996 19.822-42.837 31.118-66.211 30.463-.233-2.239-.652-4.423-1.229-6.543 31.305-33.037 40.236-77.679 39.006-123.768 3.792-5.792 6.597-12.083 8.368-18.677 41.05 9.071 54.762 54.443 36.646 93.693-1.736 3.761-.095 8.217 3.667 9.952 3.673 1.722 8.213.132 9.952-3.667 22.529-48.807 2.732-104.413-48.059-114.848zm-276.67-246.926c-28.622-15.993-38.076-50.382-12.653-55.059 13.702-2.519 29.503 4.578 40.281 13.98-12.885 11.496-22.498 25.682-27.628 41.079zm188.581-41.079c26.344-22.98 62.559-18.033 53.81 10.916-3.569 11.804-13.52 23.088-26.182 30.163-5.13-15.398-14.743-29.583-27.628-41.079zm54.822 225.364c7.122 15.148 12.848 31.32 16.743 47.412 3.976 16.422.213 33.217-10.468 45.729-19.679 23.057-56.627 26.379-84.78 17.829 2.159-3.453 3.413-7.528 3.413-11.893 0-24.386.194-24.379-.571-27.722 8.959-2.22 17.34-5.894 24.955-10.953.1-.066.196-.134.292-.204 15.895-10.633 28.789-27.401 38.384-49.877 4.064-1.43 9.41-7.161 12.032-10.321zm-90.092 76.372v22.706c0 4.136-3.364 7.5-7.5 7.5-8.353 0-15.147-6.795-15.147-15.147v-7.412c-.001-16.06 22.647-20.48 22.647-7.647zm61.107-92.943c1.92 12.147-1.73 16.14 2.593 22.296-6.471 14.782-14.452 26.575-23.824 35.228-2.916-10.565-7.009-20.582-12.135-29.647 17.918-7.874 27.871-18.328 33.366-27.877zm-47.698 33.057c6.038 10.088 10.602 21.676 13.406 34.005-10.088 5.624-17.977 6.628-21.297 7.547-16.207-11.542-43.165 1.97-43.165 25.98v7.412c0 18.934 17.347 32.513 33.756 29.854 8.107 3.402 16.44 5.854 24.9 7.287-28.516 70.985-103.915 70.986-132.429 0 8.462-1.435 16.794-3.886 24.899-7.287 16.357 2.649 33.757-10.836 33.757-29.854v-7.412c0-24.165-27.067-37.446-43.166-25.98-3.664-1.014-11.219-1.929-21.296-7.547 2.803-12.327 7.367-23.915 13.406-34.004 34.109 9.984 85.302 9.348 117.229-.001zm-103.822 82.592v-22.706c0-4.136 3.365-7.5 7.5-7.5 8.352 0 15.147 6.795 15.147 15.146v7.412c.001 16.059-22.647 20.482-22.647 7.648zm-61.107-115.65c5.496 9.552 15.449 20.006 33.365 27.877-5.126 9.066-9.219 19.082-12.135 29.647-9.372-8.652-17.352-20.444-23.823-35.228 4.339-6.177.656-10.046 2.593-22.296zm-45.727 63.983c3.895-16.091 9.62-32.263 16.742-47.41 2.655 3.2 7.975 8.89 12.031 10.321 9.595 22.475 22.491 39.243 38.383 49.876.096.07.193.139.293.204 7.616 5.062 16 8.735 24.955 10.955-.369 1.614-.571 3.291-.571 5.015v22.706c0 4.364 1.253 8.439 3.413 11.893-28.38 8.62-65.139 5.155-84.746-17.818-10.682-12.515-14.509-29.187-10.5-45.742zm46.599 183.402c0-14.563 11.849-26.412 26.412-26.412h7.471c24.236-.856 37.284 35.666 15.117 37.706h-37.705c-6.228 0-11.295-5.066-11.295-11.294zm199.589 11.294h-37.706c-22.175-2.046-9.103-38.569 15.117-37.706h7.471c24.236-.856 37.284 35.666 15.118 37.706zm17.643-36.581c-7.581-9.798-19.443-16.125-32.761-16.125h-7.471c-26.292-.633-49.164 27.58-38.858 52.705h-65.401c9.612-20.126-7.893-52.705-38.858-52.705-8.89 0-26.809-1.347-40.317 16.233-19.486-22.757-29.924-54.006-31.133-93.198 17.156 13.575 39.207 18.47 61.323 17.667 32.43 88.938 130.954 88.931 163.376-.01 22.003.749 44.163-4.35 61.181-17.587-1.41 34.989-8.559 66.794-31.081 93.02z"/><g><path d="m265.157 143.111c.335-19.099-13.35-24.766-31.179-24.203-17.84-.568-31.537 5.125-31.175 24.233-63.129-1.022-72.612 67.752-7.501 74.932l6.127 18.39c2.381 7.162 9.056 11.975 16.607 11.975h30.76c7.552 0 14.226-4.812 16.605-11.968l6.142-18.418c64.364-6.993 56.094-74.969-6.386-74.941zm-31.179-9.203c15.539 0 16.194 2.611 16.194 8.519 0 25.163-32.387 25.163-32.387 0 0-5.908.655-8.519 16.193-8.519zm-18.316 97.817-4.746-14.245c8.324-1.31 11.387-3.147 15.001-4.089v20.046h-7.88c-1.08 0-2.034-.686-2.375-1.712zm33.134 1.712h-7.88v-20.045c3.669.956 6.69 2.772 15.008 4.079l-4.755 14.26c-.338 1.02-1.293 1.706-2.373 1.706zm.284-33.168c-9.955-3.796-21.373-3.795-31.321-.002-13.856 5.273-31.413 3.524-42.692-4.251-23.035-15.879-.793-41.047 31.004-37.62 11.036 23.91 45.076 23.671 55.885-.126 20.021-1.679 39.251 8.763 39.251 22.437 0 17.289-29.523 28.164-52.127 19.562z"/><path d="m159.247 139.967c4.142 0 7.5-3.357 7.5-7.5v-12c-.344-9.931-14.659-9.923-15 0v12c0 4.143 3.357 7.5 7.5 7.5z"/><path d="m308.71 112.967c-4.143 0-7.5 3.357-7.5 7.5v12c.344 9.931 14.66 9.923 15 0v-12c0-4.142-3.357-7.5-7.5-7.5z"/></g></g></svg>