<svg id="Layer_1" enable-background="new 0 0 511.958 511.958" height="512" viewBox="0 0 511.958 511.958" width="512" xmlns="http://www.w3.org/2000/svg"><g><path d="m340.701 474.103-33.803-15.449-13.952-76.799c-3.81-20.96 17.303-39.867 40.26-28.296 16.246 8.131 28.086 2.734 28.086 20.917l-1.488 84.797c.001 4.717-19.103 14.83-19.103 14.83z" fill="#c47b46"/><path d="m362.704 496.921h-24.592c-14.286 0-26.525-10.669-29.08-25.358l-2.134-12.289h52.906c1.617 3.19 3.827 6.06 6.545 8.43l4.976 4.33c9.674 8.428 3.972 24.887-8.621 24.887z" fill="#707c8a"/><path d="m165.483 372.007c-15.738 9.646-24.603 27.433-22.927 45.83l.229 18.849c.183 2.053-7.814 31.35-7.814 31.35l-37.722 9.32v-.01c-8.188-10.463-7.993-14.542-24.329-71.787-2.247-7.842-.528-20.054 3.95-27.067 4.437-6.932 3.99-15.937-1.137-22.371-35.752-44.908-3.585-112.627 54.923-111.732 36.696.56 66.813 30.421 67.706 67.144.628 25.581-12.694 48.093-32.879 60.474z" fill="#c47b46"/><path d="m175.357 496.921h-39.855c-15.282 0-29.263-7.491-38.253-19.566v-.01c10.583-22.859 31.322-35.954 45.537-40.659 1.68 3.547 5.26 8.867 8.892 10.391 10.452 4.379 27.045 9.958 35.37 31.773 3.309 8.659-2.778 18.071-11.691 18.071z" fill="#646f7e"/><path d="m387.15 275.652c0-59.958-80.46-72.378-143.235-72.378-17.685 0-41.765.983-67.237 3.738v-.001c-64.908 7.038-138.839 25.58-138.839 68.641 0 21.948 16.978 84.383 41.578 104.536 21.275 17.419 52.392 18.434 83.177 24.126 30.889 5.703 61.377 16.085 81.321 16.085 33.282 0 89.219-13.126 126.6-40.211 33.127-23.999 16.635-76.374 16.635-104.536z" fill="#daa985"/><path d="m297.263 473.524-34.656-14.251-13.951-77.419c-3.99-21.954 18.774-39.05 38.717-29.068 19.068 9.542 28.055 26.393 28.055 43.705l-.588 62.782c0 4.717-17.577 14.251-17.577 14.251z" fill="#cb8a5a"/><path d="m110.549 370.544c-15.517 9.78-24.271 27.814-22.618 46.466l1.03 19.11c.181 2.082-.882 13.465 0 15.268l-7.752 16.517-37.482 9.439c-8.66-11.401-7.476-11.533-24.493-72.783-2.237-8.021-.48-20.364 3.907-27.442 4.368-7.028 3.936-16.159-1.122-22.682-9.245-11.922-14.765-27.031-14.765-43.466 0-38.922 30.962-70.414 68.936-69.817 36.201.568 65.912 30.843 66.803 68.076.612 25.937-12.519 48.762-32.444 61.314z" fill="#cb8a5a"/><path d="m122.544 496.921h-40.221c-15.428 0-29.534-7.491-38.595-19.576 10.677-22.868 30.894-36.519 45.234-41.224 1.685 3.547 6.016 9.431 9.69 10.956l8.434 3.507c12.431 5.153 22.276 15.368 27.252 28.266 3.33 8.659-2.812 18.071-11.794 18.071z" fill="#707c8a"/><path d="m317.693 496.921h-24.279c-14.095 0-26.178-10.669-28.701-25.358l-2.107-12.289h52.233c1.587 3.19 3.77 6.06 6.452 8.43l4.912 4.33c9.562 8.428 3.932 24.887-8.51 24.887z" fill="#8894a2"/><path d="m44.332 69.18c5.868-7.147 31.647-19.794 45.564-23.68 7.118-1.987 13.506 4.977 10.8 11.857-1.349 3.431-2.402 7.336-3.17 11.606-3.697 20.538-1.077 33.129-5.934 39.043-10.728 13.066-30.004 14.966-43.054 4.245s-14.933-30.005-4.206-43.071z" fill="#cb8a5a"/><path d="m433.969 164.44-39.79-55.11c13.13-7.04 24.72-15.03 30.67-23.35 18.98-26.56-29.08-53.83-23.51-66.94s70.08 5.96 79.26 57.54c6.19 34.73-16.87 64.869-46.63 87.86z" fill="#8894a2"/><path d="m261.999 106.06-41.98 51.83c-25.71-22.05-44.19-49.79-38.57-81.31 9.18-51.58 73.69-70.65 79.26-57.54s-42.49 40.38-23.51 66.94c5.04 7.06 14.15 13.87 24.8 20.08z" fill="#707c8a"/><path d="m504.199 150.049c0 13.34-9.836 24.297-21.87 31.33-23.38 12.88-47.63 23.42-69.85 27.54-6.55 1.22-12.92 1.88-19.04 1.88-10.7 0-20.63-2.02-29.4-6.6v-.01c22.26-122.78 140.14-54.95 140.14-54.95.02.27.02.54.02.81z" fill="#f2d98d"/><path d="m504.183 149.243c-26.37-.94-79.15 3.68-90.34 54.03-.43 1.93-.88 3.81-1.36 5.649-6.55 1.22-12.92 1.88-19.04 1.88-24.81 0-45.49-10.84-57.1-39.43-1.47-3.63-2.81-7.53-3.98-11.74 56.04-74.97 116.02-59.91 161.93-28.069 6.48 4.489 9.66 10.829 9.89 17.68z" fill="#cb8a5a"/><path d="m303.879 200.6c-10.1 7.14-22.11 10.2-35.28 10.2-6.12 0-12.49-.66-19.04-1.88-22.22-4.12-46.47-14.66-69.85-27.54-.24-.14-.47-.28-.7-.41-13.67-7.81-21.17-19.94-21.17-30.92 0-.27 0-.54.02-.81 0-.001 95.45-52.961 146.02 51.36z" fill="#ebca5f"/><path d="m157.863 149.243c26.37-.94 79.15 3.68 90.34 54.03.43 1.93.88 3.81 1.36 5.649 6.55 1.22 12.92 1.88 19.04 1.88 24.81 0 45.49-10.84 57.1-39.43 1.47-3.63 2.81-7.53 3.98-11.74-56.04-74.97-116.02-59.91-161.93-28.069-6.48 4.489-9.66 10.829-9.89 17.68z" fill="#c47b46"/><path d="m459.019 180.69c0 64.49-47.68 117.84-109.73 126.7-202.91-72.59-128.01-176.82-76.46-225.37h139.73c28.38 23.469 46.46 58.96 46.46 98.67z" fill="#daa985"/><path d="m349.289 307.39c-5.96.86-12.07 1.3-18.27 1.3-70.69 0-128-57.31-128-128 0-39.71 18.08-75.2 46.46-98.67h31.41c-43.88 54.29-86.86 150.529 68.4 225.37z" fill="#cb8a5a"/><path d="m412.559 82.02-6.25 8.32c-3.39 5.09-8.49 9.23-15.22 11.44-19.5 6.4-33.23 23.91-34.8 44.37l-5.87 76.13-15.4 18.87-23.4-18.87-5.87-76.13c-1.57-20.46-15.3-37.97-34.8-44.37-1.25-.41-2.439-.88-3.57-1.42-5.71-25.49 36.82-44.55 38.07-45.11.02-.01.03-.01.03-.01 36.975-7.485 76.461 1.443 107.08 26.78z" fill="#cb8a5a"/><path d="m305.479 55.239c-11.04 10.65-25.55 26.27-38.1 45.12-4.99-2.36-8.89-5.87-11.65-10.02l-6.25-8.32c15.89-13.149 35.01-22.53 56-26.78z" fill="#c47b46"/><path d="m413.849 262.98c0 23.27-17.83 43.48-44.02 53.69-123.3 11.9-110.27-78.04-110.27-78.04 3.26-3.88 7.05-7.74 11.16-11.49 34.87-31.82 85.74-31.82 120.61 0 12.79 11.679 22.52 24.34 22.52 35.84z" fill="#f9dee4"/><g fill="#f5c9d3"><path d="m369.829 316.67c-11.58 4.51-24.79 7.07-38.81 7.07-45.74 0-82.82-27.2-82.82-60.76 0-7.8 4.48-16.14 11.36-24.35 18.9 27.12 53.27 53.899 110.27 78.04z"/><path d="m380.344 260.602c4.158 7.202.231 17.255-8.772 22.453s-19.673 3.573-23.831-3.629c-4.158-7.203-.231-17.255 8.772-22.453 9.004-5.199 19.673-3.574 23.831 3.629z"/><path d="m314.309 279.43c-1.3 2.26-3.26 3.97-5.6 5.09-22.35.64-27.97-21.83-27.97-21.83.25-.72.57-1.42.96-2.09 4.16-7.2 14.83-8.83 23.83-3.63 9.01 5.2 12.93 15.25 8.78 22.46z"/></g><path d="m308.709 284.52c-5.1 2.45-12.06 2.1-18.23-1.47-8.17-4.7-12.16-13.41-9.74-20.36 7.93 7.37 17.2 14.67 27.97 21.83z" fill="#f1b3c1"/></g><g><path d="m483.804 115.859c21.837-54.667-24.837-103.235-67.685-108.09-14.863-1.688-19.802 4.47-21.425 8.287-3.992 9.397 3.648 18.637 11.737 28.418 11.255 13.611 18.665 23.962 14.08 34.221-.801-.704-1.619-1.391-2.438-2.076-.236-.231-.483-.455-.754-.659-.055-.042-.113-.075-.169-.114-9.05-7.437-19.134-13.775-30.109-18.736-3.777-1.708-8.218-.029-9.924 3.744-1.706 3.774-.03 8.218 3.744 9.924 7.71 3.485 14.921 7.74 21.583 12.629-4.508 6.121-7.142 9.13-13.436 11.196-22.453 7.37-38.131 27.358-39.938 50.919l-3.946 51.152c-9.187-1.373-18.506-1.373-27.692.001l-3.946-51.15c-1.808-23.564-17.485-43.553-39.938-50.923-6.293-2.066-9.068-5.25-13.443-11.197 25.661-18.786 58.903-27.354 92.393-21.405 4.075.713 7.972-1.995 8.696-6.073s-1.995-7.972-6.073-8.696c-40.499-7.188-82.125 4.352-113.078 31.44-9.474-21.29 34.016-43.34 25.828-62.615-1.621-3.816-6.552-9.967-21.419-8.288-42.766 4.84-89.576 53.305-67.689 108.104-16.494 9.378-28.855 16.807-28.127 35.565.609 15.629 12.31 29.042 25.715 36.462 6.508 3.583 12.874 6.868 19.005 9.82-43.455 3.388-111.229 12.924-144.43 39.73-5.839 2.045-11.306 4.769-16.331 8.074-21.649-34.071-34.393-81.228 11.931-125.648 16.085 11.181 38.386 8.353 51.121-7.159 8.186-9.969 2.901-33.877 10.287-52.664 4.971-12.638-6.715-25.48-19.795-21.826-14.229 3.973-41.828 16.988-49.345 26.145-10.722 13.06-11.292 31.173-2.669 44.699-56.735 54.343-34.846 112.541-13.24 145.968-27.495 27.348-30.861 72.35-6.585 103.783 3.137 4.064 3.406 9.763.662 14.192-5.505 8.93-7.539 23.297-4.733 33.416 12.031 33.593 11.677 97.084 70.352 97.941 42.984 0 41.684.248 45.05-.601 6.026.998 48.087.599 47.987.599 14.086 0 23.907-14.616 18.697-28.242-5.621-14.737-16.96-26.589-31.114-32.517l-8.327-3.482c-.844-.417-2.825-2.64-4.35-5.352-.179-13.911-.41-21.177-.23-25.038 48.596 7.693 67.656 18.67 99.333 17.936 7.71 42.442 3.137 17.016 7.954 45.108 3.144 18.304 18.322 31.589 36.092 31.589 25.368 0 27.455.646 32.951-1.949 7.77 2.741 15.304 1.947 36.334 1.947 19.458 0 28.5-25.017 13.551-38.05-3.319-2.884-5.871-4.869-7.788-7.356.359-5.838.214-16.883.301-68.518 2.121-1.387 4.177-2.798 6.158-4.233 26.873-19.475 24.923-55.294 22.753-77.109 8.206-6.748 14.418-14.549 18.414-23.009 27.39-22.105 44.771-53.28 49.261-87.612 7.266-3.455 15.156-7.521 21.401-11.051 15.39-8.793 24.949-23.136 24.949-37.432 0-17.719-12.815-25.403-28.154-34.139zm-433.417-41.971c4.375-5.326 28.194-17.421 41.784-21.215 1.176-.326 2.243.772 1.803 1.89-7.469 18.998-4.793 44.061-7.921 48.635-3.917 4.771-9.456 7.732-15.595 8.338-20.36 2.011-33.101-21.777-20.071-37.648zm400.771 43.724c15.336 4.935 38.184 17.632 43.185 24.037-9.566.257-20.828 1.409-32.059 4.479-2.629-9.943-6.381-19.501-11.126-28.516zm-42.177-95.004c14.852-2.466 57.701 17.074 64.493 55.237 1.842 10.331.796 20.778-3.095 31.149-9.803-4.433-20.324-7.884-30.759-9.667-2.516-3.357-5.204-6.587-8.025-9.705 18.838-28.281-17.394-55.026-22.614-67.014zm-22.45 210.025c16.592 15.141 20.074 24.831 20.074 30.294 0 15.234-9.493 29.001-21.688 37.352-48.014 34.475-128.958 9.29-128.958-37.352 0-5.463 3.482-15.152 20.073-30.294 32.013-29.218 78.484-29.219 110.499 0zm-117.662-123.778c16.676 5.474 28.318 20.317 29.661 37.821l4.124 53.454c-13.134 4.198-25.666 11.324-36.733 21.423-15.73 14.356-23.888 27.137-24.861 38.977-42.869-48.276-40.096-122.644 7.502-167.507 5.025 6.753 10.114 12.485 20.307 15.832zm-87.312 22.782c9.36-5.702 19.271-10.58 29.689-13.983-4.739 9.019-8.439 18.561-11.033 28.459-11.199-3.056-22.423-4.204-31.967-4.463 2.317-3.315 6.966-6.142 13.311-10.013zm48.445-103.41c11.232-5.252 20.015-6.208 23.582-5.619-5.315 12.215-41.512 38.531-22.653 66.957-2.86 3.142-5.551 6.408-8.085 9.776-10.438 1.79-20.736 5.17-30.658 9.668-12.469-33.226 5.666-65.75 37.814-80.782zm-63.203 128.395c9.054.177 19.842 1.212 30.42 4.224-.976 6.685-1.459 13.487-1.429 20.363-11.106-5.618-24.446-11.921-28.991-24.587zm-113.878 319.687c8.477-15.048 22.417-25.187 34.114-30.366 2.312 3.357 5.302 6.475 8.995 8.008 11.883 4.946 24.629 9.561 31.565 27.541 1.42 3.692-1.03 7.879-4.793 7.879h-40.221c-11.315 0-21.901-4.709-29.66-13.062zm82.557-44.819c-7.681 3.233-15.408 7.967-22.193 13.602-12.173-6.11-11.718-3.07-15.659-10.655-1.887-15.597-4.135-23.854-.077-35.846 11.752 4.401 24.501 6.748 37.868 8.848-.346 4.373-.14 10.09.061 24.051zm21.932 25.957c10.382 4.348 18.726 13.105 22.892 24.03 1.398 3.654-.961 7.892-4.684 7.892l-33.404.026c1.213-4.318 1.04-8.979-.621-13.295-3.877-10.05-9.349-17.121-15.177-22.269 5.042-3.719 9.788-6.25 13.467-7.903 5.266 7.305 8.783 7.861 17.527 11.519zm151.307-5.728-39.476.004-12.945-71.255c-2.705-14.889 11.958-28.99 29.523-20.252 13.797 6.906 22.368 20.786 22.368 36.291zm-15.044 37.652c-10.443 0-19.405-8.044-21.308-19.125l-.604-3.522h39.042c3.096 4.558 6.64 7.302 10.7 10.886 4.513 3.979 1.805 11.762-3.551 11.762h-24.279zm69.285-.002c-12.628 0-20.414.229-25.188-.043 2.524-8.172.254-16.855-5.966-22.606h23.998c3.183 4.616 6.893 7.463 10.858 10.913 4.496 3.92 1.906 11.736-3.702 11.736zm-9.007-37.65h-30.238c0-.035.005-.068.004-.103l-.374-38.992c10.929-3.904 21.24-8.41 30.665-13.381zm12.428-77.654c-11.852 8.585-26.641 16.315-43.188 22.628l-.002-.254c0-20.36-10.595-39.664-32.204-50.407-25.46-12.745-54.537 9.105-49.445 37.118l5.371 29.567c-28.219.055-44.908-10.277-102.152-19.015-14.287-2.183-27.931-4.269-39.865-8.402 2.72-3.336 5.938-6.264 9.616-8.593 29.476-18.655 42.993-56.092 32.118-90.089-1.263-3.945-5.482-6.122-9.429-4.858-3.945 1.262-6.12 5.483-4.858 9.429 8.75 27.352-1.989 57.741-25.854 72.844-24.574 15.56-27.683 39.72-24.3 67.665-13.049 5.499-27.886 15.755-38.422 30.999-3.26-8.553-7.276-24.842-17.079-60.271-1.662-5.992-.21-16.259 3.038-21.527 6.009-9.701 5.387-22.257-1.55-31.243-26.595-34.442-11.012-85.343 28.848-98.447 20.35-6.758 42.133-1.843 58.27 13.143 3.036 2.82 7.782 2.643 10.599-.392 2.819-3.035 2.644-7.78-.392-10.599-11.099-10.309-24.358-16.794-38.302-19.146 35.541-14.228 84.73-19.718 112.335-21.765 6.906 28.785 23.12 54.633 46.693 73.66 20.128 42.583 88.987 58.514 137.386 32.535 1.526 25.106-1.691 44.157-17.232 55.42zm55.126-113.53c-.971-11.843-9.13-24.625-24.863-38.981-11.069-10.104-23.604-17.23-36.74-21.427l4.123-53.454c1.344-17.501 12.986-32.345 29.662-37.818 10.218-3.355 15.115-8.864 20.292-15.822 46.596 42.115 50.554 121.236 7.526 167.502zm45.265-79.329c.017-6.743-.404-13.289-1.452-20.355 10.579-3.015 21.369-4.052 30.424-4.229-4.548 12.695-17.065 18.571-28.972 24.584z"/><path d="m248.744 171.858c-1.072 4.001 1.302 8.113 5.303 9.186l7.078 1.896c-.524 1.563-.395 1.437-.395 12.754.344 9.931 14.66 9.923 15 0v-8.84c2.19.587 3.051.896 4.327.896 8.727 0 10.366-12.487 1.937-14.746l-24.064-6.448c-4.005-1.078-8.115 1.301-9.186 5.302z"/><path d="m403.428 166.555-24.064 6.448c-4.001 1.072-6.375 5.185-5.303 9.186 1.074 4.01 5.197 6.375 9.186 5.303l2.381-.638v8.84c.344 9.931 14.66 9.923 15 0v-10.366c0-.836-.143-1.637-.395-2.388l7.078-1.896c4.001-1.072 6.375-5.185 5.303-9.186-1.071-4.001-5.183-6.38-9.186-5.303z"/><path d="m375.581 289.499c20.624-11.908 17.996-39.486-3.947-42.828-6.175-.943-12.788.392-18.611 3.755-12.57 7.258-17.737 21.927-11.518 32.698 6.142 10.638 21.357 13.718 34.076 6.375zm-15.059-26.083c4.316-2.493 11.24-3.178 13.586.885 2.013 3.487-.804 9.191-6.027 12.208-5.223 3.015-11.574 2.603-13.586-.885-2.013-3.487.804-9.191 6.027-12.208z"/><path d="m301.605 293.511c24.968 0 30.256-30.198 7.937-43.085-12.964-7.484-27.982-4.182-34.076 6.375-9.064 15.697 6.19 36.71 26.139 36.71zm-8.416-32.011c9.24-1.405 18.085 8.572 14.88 14.123-2.015 3.488-8.363 3.9-13.586.886-7.447-4.3-9.714-13.727-1.294-15.009z"/></g></svg>