<svg id="Layer_1" enable-background="new 0 0 511.952 511.952" height="512" viewBox="0 0 511.952 511.952" width="512" xmlns="http://www.w3.org/2000/svg"><g><path d="m390.73 86.558s-3.638-24.501-6.585-41.854c-1.527-8.987 7.51-16.453 17.165-14.211 18.327 4.255 26.439 12.435 29.899 17.78 2.23 3.437 5.233 6.415 8.74 8.805 27.113 18.454 17.763 51.683 17.763 51.683z" fill="#e2796e"/><path d="m329.219 429.83c-249.69-73.77-128.11-225.14-128.11-225.14 86.44-9.66 128.13-138.24 192.09-136.94 35.11.71 58.69 24.83 73.08 47.3l1.57 30.65-23.56 12.52-9.441 1.803c-2.373.453-4.05 2.675-3.695 5.065 16.074 108.135 3.518 237.868-101.934 264.742z" fill="#f2d98d"/><path d="m329.219 429.83c-12.85 3.28-27.19 5.06-43.16 5.06-48.445 0-78.973-9.246-80.78-9.54-94.741-24.387-148.32-111.289-148.32-127.04-.792-2.072-1.876-5.238-2.85-8.49-.018-.018-.28-.951-.28-.97-.131-.41-.461-1.674-.48-1.77-.01-.02-.01-.04-.02-.06-.003-.013-.047-.24-.06-.24-.01-.05-.02-.08-.02-.08l138.89-81.44c3.04-.04 6.03-.24 8.97-.57-19.44 72.64-7.77 163.83 128.11 225.14z" fill="#ebca5f"/><path d="m115.632 331.267c-76.576-5.688-100.337-42.061-107.479-67.842-3.484-12.572 7.575-24.422 20.783-22.253l102.698 16.87s-17.066 71.526-16.002 73.225z" fill="#e9901b"/><path d="m153.019 286.015c-71.997-4.586-109.23-44.056-127.584-75.298-8.643-14.714 3.545-33.548 18.978-29.474l144.946 38.256c-.001 0-30.879 69.198-36.34 66.516z" fill="#eb9c32"/><path d="m431.231 165.54 41.843-3.858c12.564-1.159 19.942-11.762 14.498-20.812-4.979-8.271-13.009-17.859-22.39-27.508-44.277 18.736-33.951 52.178-33.951 52.178z" fill="#8894a2"/><path d="m336.579 278.34c-6.06 25.66-26.82 53.44-80.91 72.06-7.485 2.649-16.119-.854-19.05-8.25-.34-.86-.69-1.73-1.04-2.6-2.42-5.94-10-7.42-14.37-2.82-1.22 1.28-2.57 2.65-4.08 4.08-122.34-58.89-6.83-164.03-6.83-164.03 18.81-1.4 35.65.38 50.3 3.79-.01 0-.01-.01-.01-.01 13.9 3.23 31.53 9.53 43.4 17.61 26.29 17.9 39.91 49.18 32.59 80.17z" fill="#f1b260"/><path d="m217.129 340.81c-17.871 17.005-41.19 28.892-64.86 36.5-7.64 2.45-15.87-1.39-18.6-8.57l-20.75 30.29s-30.13-.07-61.1-20.99c-13.28-8.98-29.25-9.68-24.61-24.25 2.48-7.79 5.31-15.8 8.05-22.94h.01c18.92-49.19 56.35-118.2 121.58-142.17 19.2-7.06 37.07-10.68 53.45-11.9-18.64 47.8-27.71 108.38 6.83 164.03z" fill="#eea849"/><path d="m494.319 409c-15.44 5.85-31.78 7.13-45.32 6.71-10.21-.32-17.64 9.89-15.06 20.42.61 2.48 1.04 5.15 1.23 8.02.62 9.26-6.4 17.12-15.13 17.12-31.78-.01-56.16-14.99-70.55-26.93-7.49-6.21-18.46-3.69-22.8 5.3-5.9 12.25-15.04 27.57-27.41 38.05-71.06-48.13-5.88-90.35-5.88-90.35 31.778-.589 87.537-14.672 117.49-24.24 0 0 43.08-9.62 86.05 16.74 11.169 6.86 9.535 24.558-2.62 29.16z" fill="#daa985"/><path d="m299.277 477.694c-.36.32-.73.62-1.1.92-5.33 4.33-12.79 4.33-18.13 0-12.93-10.49-22.43-26.36-28.52-38.97-4.35-9.02-15.32-11.5-22.78-5.3-14.39 11.94-38.78 26.92-70.56 26.93-4.36 0-8.3-1.96-11.07-5.09-5.06-5.7-4.64-12.58-2.83-20.05 2.56-10.46-4.77-20.75-15.06-20.42-3.07.1-6.28.1-9.59-.01l11.61-53.32c30.11-4.25 37.95 2.42 77.34 12.24h.01c24.26 6.09 59.82 13.58 84.8 12.72-11.18 20.371-24.82 58.57 5.88 90.35z" fill="#cb8a5a"/><path d="m98.869 390.621c23.461 59.664-60.654 92.653-84.115 32.988-11.71-29.781-10.446-81.836 12.781-90.945 23.227-9.108 59.624 28.177 71.334 57.957z" fill="#fbebcf"/><path d="m156.43 447.617c-19.691 61.013-105.651 33.186-85.961-27.826 9.828-30.454 43.812-69.905 67.549-62.221 23.737 7.683 28.24 59.594 18.412 90.047z" fill="#fef5e6"/><g><path d="m404.863 142.764c0 30.475-57.839 30.475-57.839 0s57.839-30.475 57.839 0z" fill="#e79ea8"/></g></g><g><path d="m500.864 373.441c-24.912-15.28-53.907-20.577-76.39-19.527 26.823-63.178 20.54-143.63 15.37-181.576l33.922-3.194c18.926-1.747 28.219-18.876 20.234-32.149-4.913-8.163-13.166-18.38-23.267-28.822-1.404-2.095-2.838-4.12-4.298-6.083 1.207-12.25.141-35.966-22.263-51.215-2.769-1.886-5.012-4.136-6.667-6.688-4.521-6.977-14.175-16.285-34.499-21.008-14.771-3.427-28.7 8.393-26.25 22.767.777 4.592 1.666 10.052 2.581 15.833-23.875 5.68-44.243 26.151-61.837 45.561-2.782 3.069-2.549 7.812.52 10.594s7.813 2.548 10.594-.52c23.229-25.625 43.073-42.598 64.438-42.171 25.421.51 45.237 14.492 60.588 34.762-19.367 10.537-26.732 24.199-29.427 34.361-3.139 11.834-.774 21.248-.204 23.208 8.64 60.552 9.503 134.696-17.211 188.947-93.944 28.63-130.639 29.195-208.107 7.805 30.628-19.122 27.44-28.32 30.958-19.418 4.445 11.22 17.219 16.562 28.464 12.579 13.88-4.777 26.316-10.402 36.964-16.717 3.563-2.113 4.738-6.715 2.625-10.277s-6.713-4.736-10.276-2.625c-14.323 8.495-33.013 15.424-35.741 15.813-3.499.506-6.903-1.304-8.087-4.291-.329-.832-.865-2.167-1.07-2.674-4.474-10.983-18.632-13.704-26.758-5.152-6.796 7.166-18.725 17.527-37.377 27.002-12.247-3.651-15.985-4.571-31.026-4.654-16.972-11.614-37.431-.529-52.218 13.762-11.172-16.974-30.115-36.599-49.604-42.352 22.169-54.141 58.947-109.41 113.893-129.606 38.16-14.016 65.769-14.036 99.802-7.774 12.182 2.865 29.117 8.654 40.531 16.424 34.019 23.162 42.328 68.314 14.729 101.226-2.662 3.174-2.247 7.904.927 10.565 3.173 2.663 7.904 2.246 10.566-.927 33.127-39.502 23.855-94.916-17.781-123.264-9.869-6.717-23.037-12.076-34.706-15.67 11.507-10.273 22.041-21.632 31.185-31.868 2.759-3.089 2.493-7.83-.597-10.59-3.088-2.76-7.83-2.494-10.59.596-10.94 12.246-23.9 26.129-37.899 37.395-45.242-8.731-95.018 2.339-128.976 23.351l-80.304-21.195c-21.94-5.782-39.398 20.028-27.35 40.53 4.09 6.964 8.598 13.508 13.492 19.631l-2.309-.379c-18.624-3.067-34.17 13.813-29.232 31.665 3.793 13.657 12.685 32.549 33.457 47.725-1.562 3.634-3.084 7.327-4.569 11.079-34.311 6.53-34.918 69.368-22.031 102.113 9.473 24.093 32.095 40.321 58.386 35.545 17.056 31.527 64.513 38.56 88.117 6.509 1.289.235 2.597.362 3.91.362 33.74-.011 59.597-15.59 75.346-28.658 3.712-3.079 9.012-1.817 11.238 2.79 6.067 12.563 16.292 29.967 30.55 41.533 8.12 6.585 19.464 6.592 27.579-.001 14.301-11.602 24.502-28.994 30.54-41.533 2.176-4.51 7.441-5.95 11.256-2.789 15.75 13.068 41.605 28.647 75.339 28.658 13.337 0 23.504-11.809 22.614-25.116-.211-3.179-.692-6.312-1.429-9.309-1.359-5.547 2.174-11.269 7.542-11.139 17.928.563 34.146-1.864 48.208-7.192 17.992-6.813 20.36-32.45 3.885-42.568zm-106.576-313.161c-.97-6.149-1.917-11.973-2.742-16.846-.571-3.352 3.347-6.746 8.068-5.645 16.26 3.778 22.833 10.739 25.305 14.555 2.747 4.237 6.385 7.915 10.813 10.93 8.647 5.886 12.878 13.566 14.756 20.995-16.549-15.16-35.592-23.347-56.2-23.989zm68.853 61.674c7.855 8.424 14.169 16.398 18.008 22.774 2.839 4.722-3.064 8.953-8.774 9.48l-34.726 3.27c-.471-16.516 10.692-28.177 25.492-35.524zm-420.643 66.532 68.089 17.972c-15.577 12.317-28.959 26.991-40.723 43.189-14.788-11.006-27.699-25.268-37.956-42.732-5.381-9.157 1.919-20.714 10.59-18.429zm-27.117 72.939c-2.041-7.376 4.613-14.13 12.346-12.859l21.568 3.542c3.86 3.514 7.893 6.821 12.093 9.921-7.407 11.438-14.304 23.829-20.655 37.117-12.625-9.936-21.149-22.585-25.352-37.721zm6.36 159.432c-9.604-24.401-9.55-65.339 4.204-78.327 1.812-1.712 7.326-6.923 20.299-.939 12.96 5.947 28.26 21.031 38.455 37.617-15.088 18.838-28.262 44.39-23.686 68.216-14.757 1.472-31.102-5.784-39.272-26.567zm55.869 1.231c9.109-28.225 40.296-63.161 58.102-57.389 17.901 5.795 22.662 52.479 13.583 80.608-16.591 51.415-88.411 28.604-71.685-23.219zm414.055-20.108c-12.211 4.628-26.491 6.719-42.427 6.229-15.209-.478-26.333 14.383-22.578 29.707.53 2.154.876 4.417 1.029 6.729.324 4.849-3.204 9.119-7.645 9.119-29.26-.009-51.913-13.71-65.766-25.203-11.191-9.281-27.855-5.623-34.344 7.82-5.375 11.166-14.333 26.545-26.481 36.401-2.592 2.104-6.079 2.104-8.676-.003-12.106-9.822-21.088-25.22-26.492-36.408-6.469-13.388-23.132-17.097-34.322-7.809-13.205 10.956-34.417 23.911-61.729 25.103 9.001-23.458 9.266-61.15-2.135-84.171 98.85 27.365 136.2 37.709 252.7.863 20.343-4.163 52.917-.878 80.218 15.867 5.885 3.617 4.952 13.371-1.352 15.756z"/><path d="m386.536 117.697c0-5.715 4.795-6.159 6.265-6.159s6.265.444 6.265 6.159c.339 9.924 14.659 9.928 15 0 0-13.743-10.957-21.159-21.265-21.159-21.98 0-27.649 28.659-13.765 28.659 4.142 0 7.5-3.357 7.5-7.5z"/></g></svg>