<svg id="Layer_1" enable-background="new 0 0 512.278 512.278" height="512" viewBox="0 0 512.278 512.278" width="512" xmlns="http://www.w3.org/2000/svg"><g><path d="m12.3 429.505c13.632-13.632 35.734-13.632 49.366 0l8.413 8.413c8.185 8.185 21.456 8.185 29.642 0l38.42-38.42 31.944 31.944-54.918 54.918c-15.475 15.475-37.934 21.695-59.165 16.388-4.686-1.172-7.626-5.817-6.679-10.554l.97-4.849c1.266-6.332-4.316-11.915-10.648-10.648-6.332 1.266-11.915-4.316-10.648-10.648 1.266-6.332-4.316-11.915-10.648-10.648-6.332 1.266-11.914-4.316-10.648-10.648 2.164-10.825 2.048-12.698 4.599-15.248z" fill="#8ec853"/><path d="m254.473 317.134c-17.661 7.731-25.71 28.315-17.979 45.976l4.771 10.899c4.642 10.604-.191 22.964-10.795 27.606l-49.774 21.789 18.117 41.384 71.148-31.146c20.048-8.776 34.021-27.427 36.81-49.134.615-4.791-2.64-9.221-7.397-10.064l-4.87-.863c-6.358-1.127-9.524-8.359-6.039-13.795 3.485-5.436.319-12.668-6.039-13.795-4.673 0-10.13-7.415-6.039-13.795 3.485-5.436.319-12.668-6.039-13.795-10.872-1.924-12.571-2.713-15.875-1.267z" fill="#99ce64"/><path d="m361.125 286.09c-4.734-18.688-23.722-30.001-42.41-25.266l-11.534 2.922c-11.221 2.843-22.622-3.95-25.465-15.171l-13.343-52.671-43.793 11.094 19.072 75.288c5.374 21.214 21.485 38.054 42.441 44.36 4.625 1.392 9.529-1.094 11.139-5.648l1.649-4.662c2.153-6.088 9.806-8.027 14.598-3.698s12.445 2.39 14.598-3.698c2.153-6.088 9.806-8.027 14.598-3.698 4.792 4.329 12.445 2.39 14.598-3.698 3.681-10.413 4.737-11.958 3.852-15.454z" fill="#99ce64"/><path d="m232.18 21.489c5.037 18.609-5.965 37.778-24.574 42.815l-11.485 3.109c-11.174 3.024-17.78 14.534-14.755 25.708l14.196 52.447-43.607 11.803-20.292-74.969c-5.718-21.124.067-43.7 15.239-59.471 3.349-3.481 8.841-3.718 12.478-.539l3.723 3.255c4.861 4.25 12.482 2.188 14.536-3.935 2.054-6.122 9.674-8.185 14.536-3.934 4.861 4.25 12.482 2.188 14.536-3.934 2.054-6.122 9.674-8.185 14.536-3.934 8.309 7.265 9.991 8.097 10.933 11.579z" fill="#8ec853"/><path d="m500.338 192.395c-17.079 12.193-36.918 20.015-57.66 22.73l-178.51 23.49c-43.45 5.72-75.94 42.76-75.94 86.6 0 21.35 7.72 41.13 20.7 56.45s31.22 26.19 52.28 29.7l210.09 37.32c11.39 2.03 20.9 9.86 25.08 20.67 3.76 9.74-3.63 20.2-14.07 20.2h-226.54c-454.11-142.41-67.09-405.39-67.09-405.39 7.27-.8 14.65-1.2 22.13-1.2h46.41c10.75 0 20.89-4.44 28.68-11.85 15.065-14.317 45.595-14.317 60.66 0 7.79 7.41 17.92 11.85 28.67 11.85h67.82c8.61 0 17.07-3.01 23.34-8.92 4.32-4.06 10.24-6.45 16.71-6.11 12.09.64 21.36 11.05 21.36 23.16 0 14.49-5.92 27.6-15.47 37.04l-24.59 25.36-20.17-10.3h-20.71l-19.76 9.17-19.77-9.17h-7.74c-13.41 0-20.105 16.361-10.57 25.79 2.72 2.68 6.45 4.33 10.57 4.33h117.97c10.24 0 14.44 13.129 6.12 19.08z" fill="#b0da87"/><path d="m330.093 138.562c0 30.933-58.71 30.933-58.71 0s58.71-30.933 58.71 0z" fill="#fff"/><path d="m444.23 143.199 17.46 34.92c1.95 3.9 7.62 3.61 9.15-.48l18.56-49.5h-.4c-9.41 9.31-22.35 15.06-36.64 15.06z" fill="#fef5e6"/><path d="m383.99 143.199 17.46 34.92c1.95 3.9 7.62 3.61 9.15-.48l12.92-34.44z" fill="#fef5e6"/><path d="m255.768 489.554h-44.96c-112.27 0-203.29-91.02-203.29-203.3 0-56.13 22.75-106.96 59.54-143.75 31.89-31.88 74.32-53.23 121.62-58.34-78.31 100.83-165.37 280.061 67.09 405.39z" fill="#99ce64"/></g><g><path d="m354.403 482.061h-143.589c-156.544 1.667-252.216-181.467-159.601-309.23 2.402-3.375 1.614-8.058-1.76-10.46-3.375-2.4-8.057-1.613-10.459 1.761-53.437 75.068-51.379 175.497 2.657 247.966-5.745-.6-11.714-.041-17.627 1.75-11.497 3.48-19.953 10.869-21.543 18.819l-2.13 10.619c-2.311 11.518 7.799 21.775 19.469 19.481 1.082-.216 2.046.725 1.831 1.816-2.308 11.483 7.772 21.781 19.479 19.481.665-.136 1.123.154 1.388.418 1.239 1.242-.864 4.705-.864 9.498 0 7.614 5.155 14.218 12.53 16.057 23.652 5.913 49.055-1.124 66.293-18.363l10.394-10.395c25.216 10.325 52.397 15.781 79.942 15.781h143.589c9.932-.343 9.925-14.658.001-14.999zm-244.532-.993c-13.537 13.536-33.479 19.062-52.053 14.416-.764-.19-1.164-.9-1.164-1.503v-.137c.078-.481.399-2.053.993-5.01 2.317-11.565-7.874-21.792-19.441-19.482-1.145.228-2.066-.739-1.844-1.843 2.289-11.629-7.974-21.742-19.456-19.457-.562.111-1.043-.031-1.431-.419-.792-.797-.604-.471 1.712-12.02 1.15-5.21 23.686-16.286 39.183-.789 7.432 7.429 12.576 14.207 22.96 16.193 11.5 9.186 23.897 17.096 36.954 23.636z"/><path d="m504.693 198.514c6.5-4.643 9.125-12.558 6.688-20.163s-9.171-12.52-17.157-12.52h-10.938l12.838-34.238c10.094-10.88 15.841-25.228 15.841-40.492 0-26.777-31.452-40.642-50.715-22.498-4.698 4.429-11.16 6.868-18.195 6.868h-67.82c-8.538 0-16.882-3.47-23.503-9.776-17.928-17.039-53.095-17.036-70.996.002-6.626 6.304-14.976 9.774-23.511 9.774-23.962 0-43.693-.649-62.725.743 7.504-4.627 28.34-2.816 40.774-24.482 5.638-9.824 7.112-21.257 4.146-32.208-1.633-5.976-4.677-7.769-13.229-15.249-8.883-7.768-22.85-3.993-26.589 7.199-.352 1.053-1.654 1.401-2.49.671-8.882-7.767-22.839-3.993-26.58 7.197-.217.648-.697.903-1.062 1.002-1.031.276-1.481-.366-2.768-1.522-3.212-2.888-6.854-6.16-13.267-6.16-4.479 0-8.829 1.852-11.935 5.08-16.895 17.563-23.437 43.094-17.074 66.63l2.314 8.548c-24.263 10.551-46.1 25.421-64.976 44.287-2.93 2.928-2.931 7.677-.003 10.606 2.928 2.931 7.677 2.932 10.606.003 19.06-19.049 41.11-33.549 66.13-43.557v.001c41.933-16.679 71.372-13.789 118.728-13.789 12.401 0 24.422-4.938 33.851-13.907 12.218-11.629 38.084-11.627 50.316-.002 9.417 8.97 21.436 13.909 33.843 13.909h67.82c10.875 0 20.991-3.89 28.483-10.951 9.826-9.26 25.427-1.855 25.427 11.581 0 12.23-4.941 23.668-13.518 31.986-16.061 15.614-23.257 12.624-107.192 12.624-20.392 0-29.956 24.708-15.833 38.623 4.253 4.189 9.876 6.497 15.833 6.497h18.166c5.381 10.761 18.956 9.379 22.98 0h37.26c5.381 10.761 18.954 9.38 22.98 0h16.585c2.962 0 4.161 3.757 1.75 5.478-15.991 11.426-34.757 18.824-54.268 21.396l-178.51 23.49c-106.976 15.785-110.49 167.726-3.293 187.561l210.083 37.33c8.757 1.552 16.191 7.675 19.402 15.976 1.839 4.765-1.822 9.999-7.074 9.999h-97.699c-9.931.344-9.923 14.659 0 15h97.699c15.729 0 26.707-15.789 21.065-30.405-5.092-13.169-16.886-22.878-30.773-25.339l-167.238-29.717c4.639-7.992 7.653-16.849 8.843-26.125 1.126-8.782-4.82-16.864-13.52-18.396l-4.886-.873c-1.055-.186-1.639-1.39-1.005-2.378 2.981-4.686 3.433-10.506 1.207-15.57-2.228-5.068-6.812-8.673-12.277-9.643-2.625-.461-.429-3.2.244-4.76 8.459 2.51 17.384-2.023 20.329-10.341 1.755-4.955 1.667-5.381 2.732-5.65.367-.093.911-.107 1.418.351 8.397 7.943 23.086 4.17 26.701-6.765.361-1.021 1.634-1.408 2.507-.618 8.822 7.924 22.772 4.294 26.682-6.78 3.593-10.154 5.587-13.648 4.06-19.794-5.749-22.663-28.865-36.436-51.537-30.694l-11.523 2.928c-7.212 1.825-14.525-2.531-16.35-9.743l-.937-3.694 155.607-20.477c21.941-2.893 43.044-11.214 61.028-24.064zm-352.384-170.373c2.855-2.97 7.383 10.385 21.085 6.681 5.355-1.452 9.603-5.461 11.363-10.723.349-1.046 1.65-1.386 2.481-.661 8.891 7.773 22.847 3.991 26.589-7.21.349-1.043 1.66-1.386 2.488-.662 4.416 3.865 8.047 6.828 8.529 7.587.103 0 3.505 10.505-2.582 21.113-6.559 11.426-16.076 12.662-28.098 15.916-9.341 2.527-16.542 9.462-19.525 18.358-10.855 1.801-21.914 4.577-33.863 8.835l-1.873-6.92c-4.995-18.48.142-38.525 13.406-52.314zm322.112 118.61-8.584 22.894-9.531-19.062c6.4-.414 13.593-2.169 18.115-3.832zm-61.721 3.961-7.103 18.935-9.467-18.935zm-41.752 12.938c-4.742-4.674-1.436-12.938 5.306-12.938h3.105l7.56 15.12c-10.7 0-13.086.659-15.971-2.182zm52.101 2.182 5.654-15.071c3.893.061 7.179.141 11.007.172l7.449 14.898h-24.11zm-227.315 159.389c0-26.497 12.981-50.866 34.425-65.664 6.211 24.531 7.777 36.703 19.777 51.43-20.345 9.888-29.459 34.246-20.311 55.146l4.779 10.897c2.255 5.147.988 11.06-2.8 14.884-21.853-14.36-35.87-39.004-35.87-66.693zm103.601 58.346c-1.173 9.146-4.607 17.771-9.988 25.186-29.624-5.264-34.309-5.634-44.222-9.695 5.688-7.944 7.154-18.607 3.017-28.049l-4.778-10.895c-6.058-13.841.276-30.037 14.089-36.091.726-.31 2.384.101 8.084 1.144 1.501.999 3.047 1.936 4.627 2.819-.028.056-.045.115-.079.169-6.382 9.925-.585 23.19 11.037 25.23 1.089.193 1.643 1.416 1.042 2.36-3 4.666-3.461 10.488-1.236 15.573 5.619 12.842 18.932 8.16 18.407 12.249zm-24.881-133.136c3.85 15.21 19.357 24.456 34.578 20.599l11.523-2.928c14.652-3.707 29.594 5.193 33.301 19.809.055.224.062.308.062.308-.011.635-.968 3.254-1.894 5.787-1.963 5.367-1.815 5.757-2.904 6.035-.53.133-1.012.011-1.418-.354-8.762-7.916-22.756-4.366-26.69 6.768-.365 1.033-1.663 1.39-2.499.634-4.115-3.722-9.783-5.129-15.162-3.764-13.554 3.435-11.178 17.349-15.092 16.157-18.323-5.525-32.629-20.479-37.334-39.021l-7.202-28.443c11.665-5.083 20.071-5.771 29.359-6.993z"/><path d="m310.351 115.255c.344 9.931 14.659 9.923 15 0v-8.84c2.186.586 3.049.896 4.327.896 3.311 0 6.342-2.21 7.24-5.561 1.072-4.001-1.302-8.114-5.303-9.186l-24.065-6.448c-3.996-1.074-8.113 1.302-9.186 5.303-1.072 4.001 1.302 8.114 5.304 9.186l7.078 1.896c-.252.751-.395 1.552-.395 2.388z"/><path d="m101.642 355.772c19.31 13.562 48.912 1.764 48.912-20.562 0-4.143-3.358-7.5-7.5-7.5s-7.5 3.357-7.5 7.5c0 10.098-17.071 15.509-26.455 7.379-4.252-3.684-10.664-3.683-14.914 0-2.894 2.507-7.037 3.945-11.367 3.945-8.179 0-15.088-5.186-15.088-11.324 0-4.143-3.358-7.5-7.5-7.5s-7.5 3.357-7.5 7.5c0 22.249 29.551 34.159 48.912 20.562z"/><path d="m138.304 394.518c-5.139-2.288-11.273-.427-14.271 4.334-6.668 10.59-24.547 10.207-27.458.626-1.204-3.964-5.395-6.2-9.355-4.998-3.963 1.204-6.201 5.393-4.997 9.355 6.462 21.286 38.139 24.18 52.776 5.464 22.616 7.434 47.281-12.631 40.827-33.886-1.204-3.964-5.395-6.197-9.355-4.998-3.963 1.204-6.201 5.393-4.997 9.355 2.938 9.679-11.852 19.793-23.17 14.748z"/><path d="m80.682 298.564c6.866.947 13.657-.161 19.435-3.132 17.274 16.077 48.205 8.477 51.265-13.677.566-4.104-2.3-7.889-6.403-8.456-4.105-.561-7.889 2.301-8.456 6.403-.839 6.08-8.393 10.271-16.494 9.153-4.291-.593-8.199-2.584-10.722-5.463-3.708-4.232-10.059-5.108-14.773-2.041-10.358 6.739-26.583-.889-25.196-10.929.566-4.104-2.3-7.89-6.404-8.456-15.148-2.07-11.531 32.553 17.748 36.598z"/><path d="m89.287 196.226c-3.908-1.377-8.19.669-9.569 4.575-7.409 20.979 16.49 42.052 39.272 35.677 13.771 19.328 45.553 17.896 52.967-3.101 1.379-3.905-.668-8.189-4.574-9.569-3.907-1.376-8.19.669-9.569 4.575-3.356 9.495-21.258 8.948-27.402-1.854-2.781-4.888-8.826-7.021-14.063-4.967-11.489 4.516-25.866-6.199-22.487-15.768 1.378-3.904-.67-8.188-4.575-9.568z"/><path d="m142.016 137.443c-12.929-8.164-23.929 24.89 1.04 40.66 5.861 3.701 12.51 5.493 18.992 5.179 9.049 21.683 40.336 27.732 52.335 8.729 2.211-3.502 1.165-8.134-2.337-10.346-3.503-2.212-8.134-1.164-10.346 2.338-5.369 8.505-22.707 4.028-26.308-7.888-1.628-5.383-7.05-8.805-12.609-7.962-12.208 1.849-23.851-11.778-18.43-20.364 2.211-3.502 1.165-8.134-2.337-10.346z"/></g></svg>