<svg id="Layer_1" enable-background="new 0 0 511.945 511.945" height="512" viewBox="0 0 511.945 511.945" width="512" xmlns="http://www.w3.org/2000/svg"><g><path d="m423.101 120.706c-54.007 7.726-101.27-2.095-144.68-6.978-.093-1.891.35-3.804 1.339-5.511 10.982-19.018 4.718-45.995-8.715-63.071 77.789 0 127.269 15.452 158.586 33.73-.067 6.317-.995 34.335-6.53 41.83z" fill="#f2d98d"/><path d="m454.007 123.57-30.878-2.904-.001.008c-52.312-12.89-99.746-17.514-144.704-6.946.082 2.241.886 4.431 2.359 6.24 14.598 17.847-.371 38.12-.371 38.12 62.47-1.912 132.399-21.99 185.443-21.362 2.281.022 4.486-.644 6.48-2.18z" fill="#ebca5f"/><path d="m481.869 436.676h-451.765c-12.475 0-22.588-10.113-22.588-22.588 0-12.475 10.113-22.588 22.588-22.588h451.765c12.475 0 22.588 10.113 22.588 22.588 0 12.475-10.113 22.588-22.588 22.588z" fill="#daa985"/><path d="m246.22 247.176c-.021.063-.032.127-.052.179-15.914 54.249-77.734 89.492-110.454 111.528-88.091 55.345-113.609 34.67-103.546-17.244 17.134-74.229 51.038-121.514 76.727-148.278 19.771-20.599 50.816-26.169 76.468-13.395 29.919 14.899 55.918 38.466 60.857 67.21z" fill="#6171a0"/><path d="m164.396 444.251-65.55 45.859-67-45.62 52.5-114.539h75.29z" fill="#54669b"/><path d="m255.356 217.18c7.57 21.53 10.07 46.56 6.04 72.49-1.94 12.5-5.27 24.359-9.74 35.31-204.45-107.609-43.5-310.05-41.95-311.99.01-.01.01-.01.01-.01 9.8-3.56 20.3-5.48 31.21-5.48 54.06 0 97.88 47.189 97.88 105.41 0 52.94-36.23 96.76-83.45 104.27z" fill="#7c85aa"/><path d="m249.136 330.82c-20.82 45.48-61.69 73.94-103.47 67.45-53.31-8.29-87.93-70.34-77.32-138.59 5.74-36.92 23.53-68.09 47.09-87.62 17.53-14.53 27.69-35.95 27.61-58.72v-.43c0-46.471 27.91-85.91 66.67-99.931-34.04 64.722-96.81 222.812 39.42 317.841z" fill="#6e7ca5"/><path d="m472.334 134.546c-12.939-3.197-33.729-8.011-49.233-13.84-19.573-12.788-6.582-39.896 6.532-41.829 24.673 14.403 38.076 30.554 45.163 42.273 2.858 4.735 1.377 10.366-2.462 13.396 0 0 .245-.161 0 0z" fill="#8894a2"/><path d="m309.666 300.81c-12.79 14.72-27.37 28.29-42.14 41.731-117.74 17.859-96.56-117.46-96.19-119.79.01-.021.01-.03.01-.03 2.53-4.95 5.1-9.62 7.67-14.02 0 0 0 0 .01-.011 4.36-7.489 8.72-14.189 12.92-20.13 17.71-25.09 50.34-36.37 80.44-27.439 2.5.739 5.05 1.68 7.62 2.779 53.53 22.971 68.06 92.74 29.66 136.91z" fill="#6e7ca5"/><path d="m267.526 342.541c-17.964 16.314-17.022 15.549-23.4 20.83-80.37 66.869-110.06 49.069-108.56-5.7 3.68-57.5 18.98-102.2 35.78-134.95 11.21 44.19 39.44 86.769 96.18 119.82z" fill="#6171a0"/><path d="m284.404 105.114c0 30.475-57.839 30.475-57.839 0s57.839-30.475 57.839 0z" fill="#e79ea8"/><path d="m130.266 503.951-19.71-3.591c-17.33-3.149-35.09-3.149-52.42 0-1.89.341-3.75.511-5.56.511-21.12 0-36.39-22.221-27.08-42.521l6.35-13.86c9.852-1.395 14.984 1.972 21.38 5.011 9.03 4.309 21.54 4.67 31.21.91 5.499-2.123 13.949-6.308 24.81-2.011 1.7.681 3.41 1.351 5.12 2.011 19.373 7.532 35.307-3.125 37.52-3.931 3.783-1.773 8.338-2.453 12.51-2.229l1.21 28.93c.8 19.209-16.42 34.209-35.34 30.77z" fill="#6171a0"/></g><g><path d="m481.866 383.998h-251.798c20.744-15.36 48.917-41.509 61.079-53.164 2.991-2.866 3.092-7.613.226-10.604-2.866-2.99-7.614-3.091-10.604-.226-44.508 42.648-55.147 48.493-79.458 65.329-43.242 26.029-59.351 14.362-58.247-27.319 3.788-58.928 20.942-116.902 55.009-165.134 17.107-24.23 50.685-34.215 78.978-22.085 48.679 20.886 62.234 84.513 26.96 125.09-2.718 3.126-2.386 7.863.74 10.581 3.125 2.717 7.863 2.388 10.581-.739 29.387-33.804 31.072-83.766 5.268-118.917 6.546-8.083 11.927-17.012 16.04-26.544 47.37-6.698 92.29-16.496 129.148-16.038 13.969.054 22.656-15.007 15.428-26.961-30.802-50.918-100.592-71.358-159.864-77.23-33.64-42.555-89.458-51.446-132.315-25.428-3.541 2.149-4.668 6.763-2.519 10.303 2.149 3.541 6.761 4.669 10.303 2.52 90.707-51.879 175.302 67.119 113.729 147.877-39.78-38.453-97.689-29.377-124.729 8.92-35.723 50.58-53.783 111.17-57.734 172.967-.495 7.678.359 20.221 2.865 29.218-70.476-29.01-77.033-153.615-10.727-208.581 18.468-15.306 30.324-38.103 30.324-64.924 0-23.179 7.613-45.662 21.437-63.309 2.555-3.261 1.982-7.975-1.279-10.529-3.261-2.556-7.975-1.98-10.529 1.279-15.592 19.902-24.629 45.407-24.629 73.015.072 20.458-9.002 39.746-24.896 52.919-20.989 17.399-36.893 42.889-45.214 71.829-19.516 32.23-56.041 113.365-37.628 145.98-34.699 3.306-37.553 51.854-3.784 59.467l-5.346 11.662c-12.555 27.376 10.725 57.931 40.799 52.516 28.047-5.099 45.976-.684 69.447 3.59 23.654 4.302 45.175-14.453 44.175-38.462l-1.197-28.688h166.758c9.931-.344 9.923-14.659 0-15h-167.385l-.648-15.531c10.585-1.409 22.907-6.282 37.061-14.649h274.176c19.978.748 20.006 29.443 0 30.18h-113.088c-9.931.344-9.923 14.659 0 15h113.087c39.911-1.481 39.818-58.697 0-60.18zm-139.684-239.686c2.468-9.177 3.858-18.734 4.088-28.49 28.603 1.597 58.944 7.736 86.632 15.085-28.388 2.847-58.773 8.647-90.72 13.405zm126.196-19.282c.107.177.189.354.252.528-15.551-4.753-29.587-8.67-42.701-11.924-9.722-7.668-4.25-22.263 2.823-26.546 21.801 13.354 33.555 27.904 39.626 37.942zm-53.602-45.598c-7.019 7.69-10.748 19.259-8.469 29.683-21.973-4.645-41.976-7.391-60.612-8.344-1.608-16.045-6.364-31.093-13.593-44.421 32.204 4.184 59.912 11.916 82.674 23.082zm-273.577 325.658c3.939 3.884 8.727 6.583 14.393 7.968l1.009 24.193c-5.588.975-8.022 2.518-14.256 5.477-7.152 3.411-17.541 3.693-25.281.684-6.073-2.345-16.729-7.358-30.272-1.982-10.047 3.997-19.904 6.281-30.351 1.295-5.863-2.785-8.11-4.19-13.127-5.249l35.742-77.978c15.081 24.612 36.909 40.651 62.143 45.592zm-82.267-121.546c-.099 20.837 3.782 40.976 11.408 58.97l-18.918 41.263c-3.987-.714-7.006-2.35-9.14-4.964-14.216-17.419 7.863-74.87 16.65-95.269zm-43.916 130.544c0-8.351 6.739-15.09 15.09-15.09h14.344l-13.833 30.18c-9.416 0-15.601-7.188-15.601-15.09zm116.594 82.482c-62.331-11.351-64.959-3.201-79.034-3.201-15.64 0-27.314-16.517-20.262-31.896l4.467-9.745c10.006.4 14.342 8.785 33.096 8.783 19.491 0 23.792-10.201 36.582-5.148 14.44 5.778 28.294 7.604 42.333.91 6.491-3.083 6.509-3.232 8.445-3.791l.876 21.008c.6 14.418-12.325 25.661-26.503 23.08z"/><path d="m258.574 87.551c4.142 0 7.5-3.357 7.5-7.5 0-5.715 4.795-6.159 6.265-6.159s6.265.444 6.265 6.159c.338 9.924 14.66 9.928 15 0-.355-28.074-42.176-28.074-42.53 0 0 4.143 3.358 7.5 7.5 7.5z"/></g></svg>