<svg id="Capa_1" enable-background="new 0 0 512 512" height="512" viewBox="0 0 512 512" width="512" xmlns="http://www.w3.org/2000/svg"><g><g><g><g><path d="m346.745 139.458-17.55-39.379-.143.065c1.786-.828 43.751-20.871 43.751-71.088 0-11.905 9.651-21.556 21.556-21.556s21.556 9.651 21.556 21.556c0 78.671-66.346 109.143-69.17 110.402z" fill="#fff7e5"/></g></g><g><g><path d="m268.869 139.458 17.55-39.379.143.065c-1.786-.828-43.751-20.871-43.751-71.088 0-11.905-9.651-21.556-21.556-21.556s-21.556 9.651-21.556 21.556c0 78.671 66.346 109.143 69.17 110.402z" fill="#fff7e5"/></g></g><path d="m381.635 178.014-8.407-56.089 50.323-10.487c17.633-3.675 34.22 9.948 33.854 27.969-.108 5.4-.517 11.123-1.423 16.889z" fill="#e4986c"/><path d="m407.548 120.601c-.92-1.785-1.88-3.521-2.864-5.232l-31.456 6.555 8.407 56.089 41.006-11.979c-3.223-16.952-8.25-32.153-15.093-45.433z" fill="#df8956"/><path d="m455.982 156.296c-4.419 28.691-20.565 58.741-68.797 58.741l-5.551-37.023c12.319-15.434 31.289-25.329 52.576-25.329 7.621 0 14.95 1.272 21.772 3.611z" fill="#fff7e5"/><path d="m233.978 178.014 8.407-56.089-50.323-10.487c-17.633-3.675-34.22 9.948-33.854 27.969.108 5.4.517 11.123 1.423 16.889z" fill="#e4986c"/><path d="m233.978 178.014 8.407-56.089-31.456-6.555c-.983 1.71-1.944 3.447-2.864 5.232-6.842 13.28-11.87 28.481-15.093 45.434z" fill="#df8956"/><path d="m159.631 156.296c4.419 28.691 20.565 58.741 68.797 58.741l5.551-37.023c-12.319-15.434-31.289-25.329-52.576-25.329-7.62 0-14.949 1.272-21.772 3.611z" fill="#fff7e5"/><path d="m102.394 332.055c-9.991-1.776-19.082-6.152-26.546-12.407-8.497-7.121-21.463-.972-21.256 10.112.004.233.01.466.017.7.705 23.066 15.355 42.881 35.791 51.135z" fill="#e4986c"/><path d="m320.75 380.469v104.798c0 10.622-8.611 19.233-19.233 19.233h-18.494c-10.622 0-19.233-8.611-19.233-19.233l-11.642-23.584 11.642-24.254z" fill="#df8956"/><path d="m193.993 276.876c-57.213 0-103.593 46.38-103.593 103.593v104.798c0 10.622 8.611 19.233 19.233 19.233h18.494c10.622 0 19.233-8.611 19.233-19.233v-31.929c0-8.786 7.123-15.909 15.909-15.909h27.654c8.786 0 15.909 7.123 15.909 15.909v31.929c0 10.622 8.611 19.233 19.233 19.233h18.494c10.622 0 19.233-8.611 19.233-19.233v-27.823c0-11.985 7.334-22.754 18.493-27.126 38.53-15.096 65.817-52.6 65.817-96.482v-56.96z" fill="#e4986c"/><path d="m307.807 323.744c14.343 0 27.865-1.988 40.294-5.694v-41.174h-139.966c20.733 28.916 56.499 46.868 99.672 46.868z" fill="#df8956"/><g fill="#ffeab6"><path d="m370.177 78.197c-3.252-2.116-6.621-4.037-10.1-5.767-12.508 18.885-29.89 27.187-31.026 27.713l.143-.065 17.55 39.379c1.737-.774 27.509-12.61 47.09-39.912-6.887-8.435-14.792-15.58-23.657-21.348z"/><path d="m221.779 99.545c19.581 27.302 45.353 39.138 47.09 39.912l17.55-39.379.143.065c-1.136-.527-18.518-8.828-31.026-27.713-3.479 1.729-6.848 3.65-10.1 5.767-8.865 5.768-16.77 12.913-23.657 21.348z"/><path d="m195.594 154.192c-3.928 15.455-6.184 32.568-6.74 51.227 9.875 5.964 22.773 9.617 39.573 9.617l5.551-37.022c-9.501-11.904-22.96-20.507-38.384-23.822z"/><path d="m420.02 154.192c-15.425 3.315-28.883 11.918-38.385 23.822l5.551 37.022c16.8 0 29.698-3.653 39.573-9.617-.555-18.659-2.811-35.772-6.739-51.227z"/></g><path d="m396.912 214.664c0 49.212-39.894 79.08-89.106 79.08s-89.106-29.868-89.106-79.08 13.051-123.736 89.106-123.736 89.106 74.525 89.106 123.736z" fill="#e4986c"/><ellipse cx="216.815" cy="339.404" fill="#fff7e5" rx="26.187" ry="21.331"/><g><path d="m147.581 338.083c0-18.685 2.734-36.728 7.802-53.766-38.089 15.31-64.983 52.588-64.983 96.153v104.798c0 10.622 8.611 19.232 19.233 19.232h18.494c10.622 0 19.233-8.611 19.233-19.232v-31.93c0-8.786 7.123-15.909 15.909-15.909h12.636c-17.947-28.84-28.324-62.879-28.324-99.346z" fill="#df8956"/></g><ellipse cx="147.905" cy="371.275" fill="#fff7e5" rx="20.324" ry="16.555"/></g><g><path d="m307.874 199.007c6.378 0 15.277-5.61 15.277-11.419 0-4.245-6.14-5.74-15.277-5.74-9.136 0-15.277 1.495-15.277 5.74 0 5.808 8.899 11.419 15.277 11.419z"/><path d="m253.199 202.284c4.142 0 7.5-3.358 7.5-7.5v-10.491c0-4.142-3.358-7.5-7.5-7.5s-7.5 3.358-7.5 7.5v10.491c0 4.142 3.358 7.5 7.5 7.5z"/><path d="m362.397 202.284c4.142 0 7.5-3.358 7.5-7.5v-10.491c0-4.142-3.358-7.5-7.5-7.5s-7.5 3.358-7.5 7.5v10.491c0 4.142 3.358 7.5 7.5 7.5z"/><path d="m295.319 233.67c4.785 0 9.179-1.684 12.638-4.481 3.459 2.797 7.854 4.481 12.639 4.481 11.104 0 20.138-9.034 20.138-20.138 0-4.143-3.358-7.5-7.5-7.5s-7.5 3.357-7.5 7.5c0 2.833-2.305 5.138-5.138 5.138s-5.139-2.305-5.139-5.138c0-4.143-3.358-7.5-7.5-7.5s-7.5 3.357-7.5 7.5c0 2.833-2.305 5.138-5.138 5.138s-5.139-2.305-5.139-5.138c0-4.143-3.358-7.5-7.5-7.5s-7.5 3.357-7.5 7.5c0 11.104 9.035 20.138 20.139 20.138z"/><path d="m250.493 339.404c0-15.898-15.112-28.832-33.687-28.832s-33.687 12.934-33.687 28.832c0 15.897 15.112 28.831 33.687 28.831s33.687-12.933 33.687-28.831zm-52.373 0c0-7.498 8.558-13.832 18.687-13.832s18.687 6.334 18.687 13.832c0 7.497-8.558 13.831-18.687 13.831s-18.687-6.334-18.687-13.831z"/><path d="m120.073 371.275c0 13.265 12.481 24.056 27.824 24.056s27.824-10.791 27.824-24.056c0-13.264-12.481-24.055-27.824-24.055s-27.824 10.791-27.824 24.055zm27.823-9.055c6.951 0 12.824 4.147 12.824 9.055 0 4.909-5.873 9.056-12.824 9.056s-12.824-4.147-12.824-9.056c.001-4.908 5.873-9.055 12.824-9.055z"/><path d="m109.624 512h18.494c14.74 0 26.732-11.992 26.732-26.732v-31.93c0-4.636 3.772-8.408 8.409-8.408h27.654c4.637 0 8.409 3.772 8.409 8.408v31.93c0 14.74 11.992 26.732 26.733 26.732h18.494c7.547 0 14.367-3.148 19.233-8.194 4.865 5.046 11.686 8.194 19.233 8.194h18.494c14.741 0 26.733-11.992 26.733-26.732v-78.426c17.68-20.307 27.351-45.949 27.351-73.006v-42.739c28.255-13.21 46.43-37.922 48.588-69.886 41.904-6.809 59.871-39.368 60.716-81.652.463-22.781-20.471-40.135-42.883-35.463l-26.403 5.502c7.466-9.285 13.514-19.409 18.052-30.295 1.594-3.823-.213-8.215-4.037-9.809-3.821-1.593-8.214.213-9.808 4.037-5.814 13.947-14.454 26.519-25.731 37.463-6.462-7.312-13.887-13.18-22.253-17.59 13.477-12.174 28.462-32.805 28.462-64.348 0-7.751 6.306-14.056 14.056-14.056s14.056 6.305 14.056 14.056c0 6.058-.438 12.106-1.3 17.979-.602 4.098 2.232 7.908 6.331 8.51 4.101.602 7.909-2.232 8.51-6.331.968-6.592 1.459-13.375 1.459-20.159-.002-16.02-13.037-29.055-29.058-29.055s-29.056 13.035-29.056 29.056c0 30.731-17.237 48.98-29.382 58.024-8.611-2.427-17.985-3.651-28.114-3.651s-19.503 1.225-28.114 3.651c-12.145-9.043-29.382-27.293-29.382-58.024.001-16.021-13.034-29.056-29.056-29.056s-29.056 13.035-29.056 29.056c0 35.663 12.861 61.99 27.793 80.541l-26.399-5.501c-22.389-4.668-43.347 12.658-42.883 35.461.844 42.271 18.799 74.843 60.716 81.654 1.251 18.53 7.856 34.902 19.384 48.166h-36.817c-12.576 0-24.932 2.094-36.726 6.224-3.909 1.369-5.968 5.648-4.6 9.557 1.369 3.91 5.646 5.968 9.558 4.6 10.197-3.571 20.885-5.381 31.768-5.381h53.964c17.644 11.726 38.836 16.868 59.85 16.868 10.9 0 22.236-1.433 32.794-4.489v37.08c0 38.038-21.964 70.394-53.325 86.057-7.366 3.649-9.969 3.809-15.12 7.343-10.303 7.034-15.863 18.458-15.865 30.208v27.823c0 6.469-5.263 11.732-11.733 11.732h-18.494c-6.47 0-11.733-5.263-11.733-11.732v-31.93c0-12.907-10.501-23.408-23.409-23.408h-27.654c-12.908 0-23.409 10.501-23.409 23.408v31.93c0 6.469-5.263 11.732-11.732 11.732h-18.494c-6.47 0-11.733-5.263-11.733-11.732 0-8.756 0-107.304 0-104.798 0-30.678 14.822-60.335 40.905-78.669 3.389-2.382 4.205-7.06 1.823-10.449s-7.061-4.205-10.449-1.823c-12.946 9.1-23.611 20.722-31.514 33.942-6.568-1.902-12.719-5.145-18-9.571-6.224-5.216-14.643-6.279-21.973-2.775-7.308 3.493-11.775 11.508-11.58 19.564.729 23.816 14.605 45.172 35.788 55.741v98.839c0 14.739 11.992 26.732 26.733 26.732zm294.645-306.053c-.363-11.65-1.516-23.792-3.7-35.387 13.425-9.21 30.191-12.604 46.769-8.913-5.578 24.814-20.031 39.674-43.069 44.3zm20.804-87.167c12.941-2.698 25.093 7.296 24.825 20.477-.051 2.563-.173 5.07-.363 7.507-1.408-.032-26.207-6.738-52.582 8.374-2.766-9.702-6.484-19.217-11.518-28.098zm-203.827-103.78c7.75 0 14.056 6.305 14.056 14.056 0 31.543 14.985 52.173 28.462 64.348-8.365 4.409-15.788 10.275-22.249 17.586-16.801-16.343-34.325-42.777-34.325-81.934 0-7.751 6.306-14.056 14.056-14.056zm-30.723 103.78 39.637 8.26c-5.015 8.85-8.752 18.395-11.518 28.098-15.654-8.969-33.053-12.15-52.582-8.374-.19-2.437-.312-4.945-.363-7.509-.266-13.16 11.867-23.177 24.826-20.475zm-22.265 42.867c15.88-3.536 32.811-.663 46.769 8.913-2.179 11.572-3.336 23.709-3.7 35.387-23.038-4.626-37.49-19.486-43.069-44.3zm57.935 52.941c0-.001 0-.003 0-.004.017-61.875 19.691-116.156 81.605-116.156 62.041 0 81.588 54.453 81.605 116.156v.004.076c0 45.282-36.857 71.58-81.605 71.58-44.6 0-81.605-26.223-81.605-71.58 0-.025 0-.051 0-.076zm75.316 282.412h-18.494c-6.47 0-11.733-5.263-11.733-11.732v-27.823c0-5.558 2.095-10.777 5.72-14.699 2.285-2.466 5.111-4.309 8.009-5.444 10.234-4.009 19.721-9.463 28.231-16.171v64.138c-.001 6.467-5.264 11.731-11.733 11.731zm-239.428-167.381c-.058-3.125 2.129-4.511 3.072-4.962 1.879-.898 4.045-.789 5.869.739 6.138 5.144 13.172 9.086 20.698 11.64-4.466 10.533-7.213 21.806-8.271 32.345-22.057-15.277-21.307-39.542-21.368-39.762z"/></g></g></svg>