<svg id="Layer_1" enable-background="new 0 0 512.063 512.063" height="512" viewBox="0 0 512.063 512.063" width="512" xmlns="http://www.w3.org/2000/svg"><g><path d="m274.001 293.688c40.861.707 64.118-28.467 75.109-48.077 4.767-8.504-.103-19.194-9.776-21.455l-42.263-9.879c-9.966-2.329-19.222 5.601-18.211 15.6 1.281 12.673-.619 29.745-13.192 47.625-4.726 6.72-.019 16.042 8.333 16.186z" fill="#6e7ca5"/><path d="m203.553 98.009s-5.687-85.072-147.574-90.495c-12.293-.47-19.853 13.256-12.947 23.437 19.15 28.234 41.686 82.508 17.462 164.868z" fill="#6171a0"/><path d="m489.67 173.494c0 4.92-.59 9.27-1.69 13.119h-.01s-261.6-.359-303.38 59.5c-2.49 3.57-4.68 7.091-6.6 10.57-178.27-128.91 86.28-221.26 86.28-221.26 10.37-.97 21.03-1.47 31.96-1.47 62.27 0 114.52 35.17 128.77 82.6.89 2.94 2.57 5.51 4.78 7.51 2.22 2 4.97 3.431 7.98 4.09 29.52 6.54 51.91 20.401 51.91 45.341z" fill="#7c85aa"/><path d="m290.44 498.863c-17.35 17.25-70.44-7.47-85.09-40.17-3.14-6.989-9.63-11.88-17.23-13.08-112.13-17.71-169.05-103.63-165.08-200.13 3.65-88.609 93.32-196.33 241.23-210.06-60.13 34.05-154.55 109.24-86.28 221.26-25.63 46.311-2.78 84.716 4.482 94.995 1.367 1.936 2.444 4.045 3.321 6.246 1.164 2.922 2.556 5.749 4.157 8.458.01.01.02.02.03.04 5.89 9.91 19.69 11.649 27.63 3.27.35-.37.74-.77 1.17-1.21 11.12-11.279 26.07-20.189 39.86-24.31 13.06-3.91 25.07-3.53 31.8 3.16 5.63 5.6 6.83 14.62 4.9 24.79-2.63 13.89-11.12 29.92-22.12 42.22-4.46 4.979-4.45 12.53 0 17.52 19.02 21.262 30.58 53.722 17.22 67.001z" fill="#6e7ca5"/><path d="m487.97 186.613c-8.79 30.69-50.54 29.851-91.43 35.46-7.25.99-14.23 3.461-20.44 7.311-22.22 13.75-49.88 21.92-79.87 21.92-27.5 0-49.67 5.13-66.93 13.46-12.33 5.95-22.16 13.53-29.63 22.05 0 0-49.87-1.529-39.82-69.68 53.57-72.731 266.14-36.93 328.12-30.521z" fill="#fef5e6"/><path d="m191.84 297.424c-11.19 18.26-13.599 39.1-7.699 56.95-46.972-56.685-44.611-109.641-24.291-137.24 6.57 21.6 19.24 44.83 39.82 69.68-2.98 3.4-5.59 6.95-7.83 10.61z" fill="#fbebcf"/><g><path d="m359.971 127.786c0 30.475-57.839 30.475-57.839 0s57.839-30.475 57.839 0z" fill="#e79ea8"/></g><path d="m216.077 233.219c39.95-8.613 55.956-42.314 62.195-63.911 2.706-9.366-4.469-18.667-14.403-18.667h-43.402c-10.234 0-17.443 9.83-14.183 19.336 4.132 12.049 6.167 29.105-2.005 49.377-3.073 7.621 3.632 15.626 11.798 13.865z" fill="#6e7ca5"/></g><g><path d="m439.365 120.827c-3.438-.752-6.21-3.22-7.182-6.432-15.557-51.778-71.463-87.941-135.953-87.941-4.142 0-7.5 3.357-7.5 7.5s3.358 7.5 7.5 7.5c62.367 0 109.145 35.843 121.592 77.272 2.589 8.553 9.724 14.868 18.316 16.749 25.863 5.73 48.466 17.043 45.77 42.926-40.618-4.661-122.276-16.609-195.561-13.084.033-11.841-9.659-22.176-22.478-22.176h-43.402c-15.221 0-26.257 14.746-21.277 29.27.865 2.522 1.548 5.067 2.065 7.631-83.446 30.677-71.425 102.298-23.53 177.646 1.74 5.055 4.39 10.414 5.95 12.803 8.533 14.018 28.093 16.27 39.382 4.358 13.866-14.647 35.115-25.448 50.525-25.681 3.63-.041 8.575.505 11.569 3.482 8.862 8.815.184 36.896-17.518 56.688-7.013 7.83-7.018 19.659-.003 27.524 17.708 19.794 26.387 47.869 17.521 56.681-12.045 11.981-59.61-8.126-72.96-37.925-4.178-9.3-12.739-15.811-22.901-17.415-111.363-14.268-176.597-118.623-155.308-218.012.908-4.041-1.632-8.054-5.673-8.961-4.043-.915-8.054 1.632-8.961 5.674-20.273 90.211 27.471 213.986 167.602 236.117 5.142.812 9.463 4.081 11.555 8.738 12.892 30.52 70.124 66.502 97.222 42.423 17.084-16.98 4.521-53.355-16.91-77.312-1.92-2.152-1.924-5.387-.007-7.527 10.303-11.52 18.454-25.896 22.364-39.443 7.461-25.851-2.222-46.146-27.82-45.729-19.38.293-44.543 12.779-61.189 30.364-4.489 4.736-12.362 3.736-15.738-1.943l-.001.001c-21.382-36.429 1.102-90.158 69.979-101.483-1.83 4.12-4.114 8.159-6.869 12.077-7.825 11.116-1.124 28.01 15.929 28.01 44.401 0 69.265-32.428 80.187-51.918.315-.563.596-1.141.86-1.726 23.374-9.257 25.278-15.896 41.046-18.049 43.642-5.985 99.611-4.433 99.611-56.01.001-18.184-10.025-42.082-57.804-52.667zm-218.899 37.315h43.402c4.903 0 8.53 4.476 7.198 9.085-8.628 29.866-26.833 52.251-56.57 58.662-2.302.5-4.084-1.692-3.262-3.729 7.579-18.802 7.948-37.694 2.144-54.614-1.553-4.533 1.885-9.404 7.088-9.404zm53.659 128.043c-2.345-.039-3.592-2.56-2.32-4.367 5.058-7.193 8.844-14.772 11.338-22.588 14.966-.962 28.058.666 51.388-4.802-19.581 26.415-43.121 32.066-60.406 31.757zm140.736-73.873c-18.234 2.045-29.5 2.507-42.708 10.694-41.969 25.973-85.445 19.549-96.321 21.821-62.856 6.394-95.345 40.753-101.153 77.673-28.98-56.087-30.945-103.093 27.579-126.767-.474 6.854-2.11 13.805-4.937 20.816-5.319 13.194 6.314 27.025 20.335 24.002 0 0 0 0 0-.001 38.645-8.332 56.644-38.109 64.797-60.01 65.995-3.815 136.083 5.49 194.227 12.354-9.357 12.566-30.583 15.916-61.819 19.418z"/><path d="m33.794 194.463c3.813 1.619 8.216-.159 9.835-3.972 31.43-73.997 112.354-137.205 220.506-147.527 4.124-.394 7.147-4.055 6.754-8.179-.394-4.123-4.053-7.149-8.179-6.753-27.197 2.596-53.481 8.483-78.197 17.408-11.448-11.725-25.979-21.357-43.29-28.659-23.384-9.864-51.968-15.504-84.956-16.761-18.377-.743-29.803 19.859-19.444 35.144 12.562 18.521 27.247 49.843 26.675 94.461-14.064 17.185-25.514 35.79-33.675 55.003-1.619 3.812.159 8.216 3.971 9.835zm15.444-167.717c-3.461-5.105.291-11.928 6.456-11.738 49.927 1.904 88.833 14.463 113.433 36.461-34.574 14.669-65.421 35.414-91.071 61.838-2.69-39.854-16.663-68.639-28.818-86.561z"/><path d="m341.641 102.725c0-5.715 4.795-6.159 6.265-6.159s6.265.444 6.265 6.159c0 4.143 3.358 7.5 7.5 7.5s7.5-3.357 7.5-7.5c-.355-28.074-42.176-28.074-42.53 0 .346 9.93 14.657 9.925 15 0z"/></g></svg>