<svg id="Layer_1" enable-background="new 0 0 511.915 511.915" viewBox="0 0 511.915 511.915" xmlns="http://www.w3.org/2000/svg"><g><g><path d="m84.797 253.811c-13.584-8.103-34.182-7.94-53.727 5.695-6.794 4.74-16.144 3.075-20.885-3.72-4.739-6.794-3.073-16.145 3.721-20.884 28.882-20.149 65.731-22.82 92.275-2.805 7.528 7.488 6.349 19.31-.449 24.4-5.683 4.254-14.933 3.536-20.935-2.686z" fill="#9ea2e3"/><path d="m255.446 475.704 27.318 10.393 47.613-6.892-13.935-73.935-60.995-3.097-12.008 23.72c3.788 16.677 7.8 33.319 12.007 49.811z" fill="#c2c2f0"/><path d="m166.117 475.704-16.256 13.566-51.871-12.079-3.355-47.793 57.29-29.935 26.166 26.576c-3.778 16.622-7.779 33.216-11.974 49.665z" fill="#9ea2e3"/><path d="m115.4 467.835c16.5 4.625 33.512 7.275 50.717 7.869l-1.585 6.172c-4.148 16.04-20.516 25.68-36.557 21.533-8.374-2.166-15.003-7.661-18.837-14.701-4.761-2.858-6.804-8.661-4.955-13.631 1.675-4.502 6.226-7.475 11.217-7.242z" fill="#5972a5"/><path d="m306.162 467.835c-16.58 4.326-33.512 7.275-50.716 7.869l1.585 6.173c4.149 16.039 20.516 25.68 36.556 21.532 8.373-2.166 15.002-7.66 18.837-14.7 5.407-1.942 8.422-7.727 6.985-13.117-1.501-5.627-7.438-9.273-13.247-7.757z" fill="#5972a5"/><path d="m344.698 239.462-138.16-34.75c-4.611-29.645 27.826-44.783 58.07-46.08 19.313 1.329 42.763 2.97 60.28-2.28z" fill="#7888af"/><path d="m264.607 158.632c-22.81 12.41-42.36 28.19-58.07 46.08l-28.16-7.08c.05-1.92.17-3.83.35-5.73 1.94-19.74 18.38-34.87 38.21-35.2 16.42-.28 32.511.92 47.67 1.93z" fill="#5972a5"/><path d="m354.337 377.312c-3.8 3.61-5.49 8.91-4.39 14.03 4.05 18.83 8.41 37.68 13.04 56.38-1.15 13.17-10.271 24.35-22.93 28.13-12.69 3.78-26.47-.61-34.64-11.03-2.9-11.63-5.7-23.33-8.39-35.04-1.92-8.38-10.45-13.43-18.71-11.08-20.031 5.711-41.131 8.732-60.63 9.26-111.833-45.217-104.126-183.824-1.98-233.01 42.895.173 83.059 9.117 109.41-3.26 1.39.22 4.47.75 8.64 1.88 59.05 16.006 81.181 77.725 55.01 127.57-6.31 22.24-18.43 40.94-34.43 56.17z" fill="#d9d9f9"/><path d="m217.687 427.962c-25.77.79-51.26-2.33-74.02-9.28-8.37-2.55-17.15 2.43-19.1 10.96-2.7 11.76-5.51 23.5-8.41 35.18-1.46 1.13-15.12 11.28-32.62 6.38-18.18-5.09-24.42-21.93-24.96-23.48 5.54-22.41 10.7-45.05 15.41-67.6.79-3.78.07-7.72-1.97-11-10.29-16.53-14.96-36.48-11.82-59.77 6.04-44.87 38.62-71.37 52.7-82.82 32.36-26.32 68.49-31.74 102.81-31.58-38.097 37.978-60.17 90.474-51.4 142.58 7.55 44.79 35.87 75.21 53.38 90.43z" fill="#c2c2f0"/><path d="m436.533 62.343c8.788-28.338 22.817-54.694 39.092-54.801 11.158-.074 19.439 11.583 21.405 14.368 15.939 22.576 6.077 67.498-29.145 90.814-3.109 2.093-16.301 10.545-26.154 5.966-11.85-5.508-17.762-29.353-5.198-56.347z" fill="#c2c2f0"/><path d="m376.558 62.343c-8.788-28.338-22.816-54.694-39.092-54.801-11.158-.074-19.439 11.583-21.405 14.368-15.938 22.576-6.077 67.498 29.145 90.814 19.079 13.736 39.798 17.142 48.01 9.579 9.456-8.711 6.958-36.234-16.658-59.96z" fill="#9ea2e3"/><path d="m457.127 265.852h-48.45c-77.097-34.988-70.592-143.435 10.67-167.915h27.01c57.99 25.58 53.03 110.575 10.77 167.915z" fill="#d9d9f9"/><path d="m408.677 265.852h-52.71c-42.24-57.31-47.22-142.27 10.68-167.9 60.823-.023 113.593-.083 52.7-.015-57.899 25.63-52.92 110.605-10.67 167.915z" fill="#c2c2f0"/><path d="m459.247 278.602c0 25.936-24.721 45.17-52.8 45.17-45.426-13.49-45.383-76.781.02-90.35 28.362 0 52.78 19.51 52.78 45.18z" fill="#7888af"/><path d="m406.448 323.772c-29.06-.05-52.61-20.25-52.61-45.17 0-24.93 23.56-45.14 52.63-45.18-33.361 20.753-33.369 69.577-.02 90.35z" fill="#5972a5"/><path d="m415.027 141.422c-44.811-10.114-49.349-72.28-6.48-88.79 59.96 1.73 39.55 77.08 6.48 88.79z" fill="#7888af"/><path d="m415.027 141.422c-43.1 15.296-81.913-90.948-6.48-88.79-23.08 19.74-13.57 67.52 6.48 88.79z" fill="#5972a5"/><g fill="#7888af"><path d="m58.577 447.722c18.26 8.34 37.62 14.1 57.58 17.1-1.42 5.7-2.86 11.39-4.33 17.06-4.153 16.042-20.514 25.67-36.56 21.53-16.04-4.15-25.68-20.52-21.53-36.56 1.64-6.35 3.26-12.73 4.84-19.13z"/><path d="m346.287 503.412c-15.946 4.13-32.377-5.409-36.55-21.54-1.47-5.67-2.91-11.35-4.32-17.05 19.96-3 39.31-8.76 57.57-17.1 1.58 6.4 3.2 12.78 4.84 19.13 4.15 16.04-5.49 32.41-21.54 36.56z"/></g></g><g><path d="m361.374 168.762c-4.143 0-7.5 3.358-7.5 7.5v12c0 4.142 3.357 7.5 7.5 7.5s7.5-3.358 7.5-7.5v-12c0-4.142-3.357-7.5-7.5-7.5z"/><path d="m451.727 168.762c-4.143 0-7.5 3.358-7.5 7.5v12c0 4.142 3.357 7.5 7.5 7.5s7.5-3.358 7.5-7.5v-12c0-4.142-3.358-7.5-7.5-7.5z"/><path d="m391.511 271.116c-4.142 0-7.505 3.358-7.505 7.5s3.363 7.5 7.505 7.5c4.143 0 7.5-3.358 7.5-7.5s-3.358-7.5-7.5-7.5z"/><path d="m421.629 271.116c-4.142 0-7.505 3.358-7.505 7.5s3.363 7.5 7.505 7.5c4.143 0 7.5-3.358 7.5-7.5s-3.357-7.5-7.5-7.5z"/><path d="m510.632 61.647c7.138-38.005-17.036-61.591-34.897-61.591-21.602 0-35.877 30.187-43.195 50.602-14.488-7.279-37.482-7.269-51.983-.015-21.824-60.871-51.545-60.062-70.617-33.044-16.295 23.081-10.493 68.393 24.3 96.393-8.146 10.561-13.261 22.901-15.893 36.306-25.74 5.666-62.803-1.732-101.534-1.084-23.655.4-43.234 18.442-45.541 41.966-.12 1.22-30.695 2.956-65.516 31.518-29.228-18.563-66.902-14.326-96.136 6.067-10.175 7.098-12.679 21.151-5.58 31.327 7.098 10.176 21.151 12.679 31.326 5.58 12.376-8.634 26.2-11.684 37.681-8.671-23.96 34.534-29.604 80.422-7.392 116.104 1.036 1.665 1.392 3.617.999 5.496-6.025 28.863-12.813 57.928-20.173 86.388-6.142 23.742 11.802 46.898 36.325 46.898 10.135 0 19.509-4.07 26.352-10.838 20.563 20.272 55.41 10.676 62.64-17.28.506-1.958 8.772-35.102 12.086-49.45 17.61 1.827 35.77 1.778 53.773-.141 3.326 14.407 11.617 47.649 12.119 49.593 7.233 27.971 42.063 37.561 62.638 17.279 9.282 9.18 22.78 12.994 35.761 9.636 20.066-5.19 32.106-25.629 26.915-45.695-3.833-14.823-7.55-29.968-11.046-45.015-.938-4.036-4.98-6.546-9.003-5.607-4.035.938-6.546 4.968-5.608 9.003 1.549 6.667 3.148 13.351 4.774 20.021-13.888 5.851-28.358 10.177-43.172 12.898-2.297-9.374-4.537-18.786-6.689-28.171-2.824-12.309-15.444-20.22-28.085-16.614-42.235 12.042-90.984 12.048-130.403.019-12.519-3.822-25.673 3.697-28.601 16.455-2.162 9.43-4.412 18.89-6.722 28.312-14.813-2.721-29.284-7.047-43.172-12.899 4.995-20.487 9.68-41.156 13.974-61.726 1.185-5.675.138-11.531-2.948-16.488-9.896-15.898-13.517-34.339-10.759-54.81 5.648-41.931 36.732-67.211 50.006-78.006 22.04-17.925 49.395-29.363 93.239-29.888 4.142-.05 7.459-3.448 7.409-7.589-.049-4.142-3.455-7.463-7.589-7.41-7.149.086-15.224.425-23.892 1.415 3.112-14.063 15.513-24.429 30.262-24.678 36.23-.62 71.442 6.171 99.356 1.72-.37 6.819-.178 13.832.552 20.944-19.388 6.574-46.888 3.179-76.97 1.428-4.139-.244-7.683 2.917-7.923 7.052s2.917 7.682 7.052 7.923c27.337 1.589 57.649 5.338 80.162-1.372 4.612 22.53 14.338 45.327 28.466 65.382-6.049 24.06 7.683 47.718 31.714 58.353-6.058 17.32-16.223 32.856-30.306 46.252-5.389 5.126-8.287 12.999-6.492 21.29.897 4.034 4.877 6.519 8.933 5.62 4.043-.899 6.576-4.979 5.678-9.023-.549-2.551.281-5.174 2.22-7.019 15.971-15.192 27.475-32.887 34.297-52.669 43.107 8.164 80.889-25.614 71.536-62.803 32.221-45.737 44.777-112.778 13.525-153.298 16.521-13.3 27.94-31.975 31.767-52.346zm-152.777 396.472c.897 3.556 1.801 7.103 2.713 10.628 3.686 14.248-7.086 28.14-21.804 28.14-10.244 0-19.193-6.939-21.764-16.874-.784-3.032-1.557-6.088-2.33-9.142 14.789-2.78 29.253-7.055 43.185-12.752zm-57.1 18.886c1.574 6.178 1.986 8.176 3.131 11.094-10.534 13.759-32.251 10.892-38.708-5.438 11.985-.927 23.894-2.813 35.577-5.656zm-20.381-51.075c4.138-1.178 8.39 1.35 9.352 5.543 2.367 10.323 4.842 20.679 7.382 30.981-11.777 2.861-23.798 4.7-35.889 5.471-2.983-11.853-5.867-23.819-8.637-35.779 9.396-1.556 18.695-3.622 27.792-6.216zm-148.496 5.402c.975-4.259 5.356-6.756 9.602-5.461 8.855 2.702 18.055 4.836 27.477 6.42-2.757 11.899-5.63 23.817-8.603 35.634-12.091-.771-24.113-2.61-35.891-5.471 2.551-10.351 5.037-20.754 7.415-31.122zm-11.063 45.673c11.684 2.844 23.594 4.729 35.579 5.656-6.514 16.473-28.278 19.062-38.709 5.436 1.056-2.693 1.251-3.72 3.13-11.092zm-13.916-6.133c-.774 3.053-1.546 6.11-2.33 9.143-2.57 9.935-11.519 16.873-21.763 16.873-14.717 0-25.489-13.893-21.804-28.142.914-3.533 1.819-7.076 2.715-10.627 13.932 5.697 28.395 9.971 43.182 12.753zm-24.057-226.384c-16.891-6.981-37.958-3.746-56.059 8.882-3.393 2.365-8.076 1.531-10.442-1.86-2.366-3.392-1.531-8.077 1.86-10.443 26.229-18.297 55.948-18.946 75.639-7.966-3.536 3.333-7.269 7.127-10.998 11.387zm323.708-184.255c11.618 0 20.313 2.897 25.844 8.611 18.364 18.975-2.099 66.742-25.844 66.742-15.676 0-29.93-20.577-32.479-38.668-3.642-22.418 7.09-36.685 32.479-36.685zm-84.358-33.983c3.459-4.899 9.227-11.246 15.229-11.193 9.486.062 21.589 18.118 30.638 45.36-7.756 9.21-10.347 21.139-9.463 33.148-5.082 2.683-9.757 5.844-13.987 9.472-29.781-23.338-34.04-60.324-22.417-76.787zm84.358 290.042c-24.926 0-45.205-16.901-45.205-37.676s20.279-37.677 45.205-37.677c24.927 0 45.206 16.902 45.206 37.677s-20.279 37.676-45.206 37.676zm51.442-65.018c-23.524-33.755-79.36-33.756-102.883-.001-28.741-45.879-37.219-114.626 6.51-142.134 6.861 21.93 24.092 41.447 44.931 41.447 21.379 0 38.154-20.859 44.682-41.602 13.531 8.421 22.981 21.594 27.523 38.6 8.232 30.825.094 70.399-20.763 103.69zm10.496-148.234c-4.288-3.678-9.029-6.878-14.191-9.584.922-11.987-1.673-23.845-9.278-32.969 9.052-27.281 21.167-45.367 30.661-45.429 5.99-.053 11.757 6.278 15.229 11.193 11.725 16.608 7.181 53.595-22.421 76.789z"/></g></g><g/><g/><g/><g/><g/><g/><g/><g/><g/><g/><g/><g/><g/><g/><g/></svg>