<svg id="Layer_1" enable-background="new 0 0 511.947 511.947" height="512" viewBox="0 0 511.947 511.947" width="512" xmlns="http://www.w3.org/2000/svg"><g><path d="m476.926 140.043c8.25 60.86 0 90.31-30.92 90.31-25.56 0-28.59 50.95-74.26 26.52l-75.71-84.42 5.37-33.06c61.24-146.72 195.05-109.18 195.05-109.18 27.41 39.26-27.5 50.94-19.53 109.83z" fill="#f9dee4"/><path d="m496.46 30.213c-47.44 5.64-161.34 32.47-162.36 160.29-.07 8.17-.38 15.95-.93 23.35l-37.13-41.4 17.13-105.44c31.7-22.2 91.73-59.51 137.27-59.51 17.15 0 32.24 5.29 42.99 18.67 1.109 1.38 2.119 2.73 3.03 4.04z" fill="#6e7ca5"/><path d="m215.856 172.453-37.13 41.4-38.58 43.02c-45.67 24.43-48.7-26.52-74.26-26.52-30.92 0-39.17-29.45-30.92-90.31 7.97-58.89-46.94-70.57-19.53-109.83 0 0 126.79-32.87 190.83 118.16 10.11 23.838 8.844 19.467 9.59 24.08z" fill="#f5c9d3"/><path d="m15.432 30.213c47.44 5.64 161.34 32.47 162.36 160.29.07 8.17.38 15.95.93 23.35l37.13-41.4-17.13-105.44c-31.7-22.2-91.73-59.51-137.27-59.51-17.15 0-32.24 5.29-42.99 18.67-1.11 1.38-2.12 2.73-3.03 4.04z" fill="#6171a0"/><path d="m406.309 350.093c0 74.27-51.18 136.29-119.37 151.03 0 0-249.33-93.21 18.24-296.78.03-.02.05-.04.08-.06 58.83 20.99 101.05 78.35 101.05 145.81z" fill="#6e7ca5"/><path d="m286.939 501.123c-10.07 2.17-20.52 3.32-31.22 3.32-83.17 0-150.59-69.11-150.59-154.35 0-85.25 67.42-154.36 150.59-154.36 3.4 0 6.78.12 10.13.34l23.59 64.88s-104.479 168.94-2.5 240.17z" fill="#6171a0"/><ellipse cx="416.926" cy="416.421" fill="#7c85aa" rx="92.439" ry="73.092" transform="matrix(.5 -.866 .866 .5 -152.168 569.279)"/><path d="m454.158 437.913c-25.087 43.45-78.057 51.548-84.89 4.91-2.22-15.13 1.58-32.58 10.43-47.9 24.907-43.135 78.03-51.653 84.89-4.91 2.21 15.13-1.589 32.59-10.43 47.9z" fill="#f9dee4"/><ellipse cx="94.513" cy="416.421" fill="#6e7ca5" rx="73.092" ry="92.439" transform="matrix(.866 -.5 .5 .866 -195.548 103.046)"/><path d="m125.68 470.403c11.83-6.83 15.41-20.21 16.49-27.58 4.652-31.7-16.92-69.035-46.69-80.88-10.455-4.149-22.32-5.18-32.14.49-11.83 6.83-15.41 20.22-16.49 27.58-7.23 49.502 46.043 99.334 78.83 80.39z" fill="#f5c9d3"/><path d="m368.656 391.503c0 101.78.288 98.885-.52 101.88h-89.3c-.824-2.968-.53.001-.53-101.88 0-12.47 5.06-23.77 13.23-31.95 8.18-8.17 19.47-13.23 31.95-13.23 24.95 0 45.17 20.23 45.17 45.18z" fill="#6171a0"/><path d="m338.543 489.385c0-8.317-6.742-15.059-15.059-15.059s-15.059 6.742-15.059 15.059l-4.718 8.988 4.718 6.071h30.118l4.035-6.823z" fill="#7c85aa"/><path d="m391.25 214.563c0 56.14-60.68 101.65-135.53 101.65-15.11 0-29.65-1.86-43.23-5.29-.66-.48-1.34-.97-2.03-1.46-149.39-106.36 10.25-252.31 10.25-252.31 67.359-17.842 140.42 19.321 140.42 74.58 0 .64-.01 1.28-.03 1.92-.31 9.62 2.76 19.03 8.99 26.36 13.399 15.76 21.16 34.47 21.16 54.55z" fill="#7c85aa"/><path d="m212.039 310.813c-53.42-13.63-91.85-51.57-91.85-96.25 0-20.08 7.76-38.79 21.16-54.55 6.23-7.33 9.3-16.74 8.99-26.36-.02-.64-.03-1.28-.03-1.92 0-34.46 29.39-63.76 70.4-74.58-30.9 46.35-102.309 174.53-8.67 253.66z" fill="#6e7ca5"/><path d="m206.262 204.34c0 30.475-57.839 30.475-57.839 0s57.839-30.475 57.839 0z" fill="#fff"/><path d="m305.177 204.34c0 30.475 57.839 30.475 57.839 0s-57.839-30.475-57.839 0z" fill="#fff"/><path d="m270.778 280.208 18.66-19.257c9.386-9.687 23.242-4.619 27.542 9.862 3.474 11.701 9.313 24.028 19.128 32.412 4.403 3.761 2.461 12.586-2.814 12.878-17.358.963-42.871-4.217-62.516-35.895z" fill="#fef5e6"/><path d="m240.659 280.213c-9.25 14.92-19.8 23.96-30.2 29.25-27.97 3.5-22.07-22.72-21.82-23.77.01-.02.01-.03.01-.03 2.45-4.83 4.34-9.9 5.81-14.85 4.3-14.48 18.16-19.55 27.54-9.86z" fill="#fef5e6"/><path d="m210.46 309.463c-11.67 5.94-23.13 7.15-32.31 6.64-5.28-.29-7.22-9.12-2.82-12.88 5.66-4.83 10-10.98 13.32-17.56 5.919 8.29 13.129 16.26 21.81 23.8z" fill="#fbebcf"/><path d="m401.594 370.914c-1.258-13.781-16.845-21.676-28.735-14.175-4.919 3.103-10.803 4.384-16.538 3.416-64.526-10.892-71.64-91.205-69.118-121.43.797-9.554-3.86-18.824-12.143-23.651-20.066-11.694-36.812-3.74-46.133 3.331-5.202 3.946-8.602 9.812-9.545 16.273-4.591 31.452-3.838 137.136 120.388 154.635 8.04 1.133 15.036 6.238 18.364 13.644 2.921 6.5 9.46 11.133 17.188 11.133 11.768 0 20.334-10.561 18.608-21.642-.363-2.332.392-4.683 2.08-6.332 3.879-3.79 6.129-9.235 5.584-15.202z" fill="#54669b"/><path d="m233.136 391.503c0 102.07.322 98.96-.58 102.07h-89.2c-.902-3.111-.58-.001-.58-102.07 0-24.95 20.23-45.18 45.18-45.18 24.953 0 45.18 20.228 45.18 45.18z" fill="#54669b"/><path d="m202.878 487.369-.013.011c-.982-7.366-7.275-13.054-14.91-13.054-7.634 0-13.926 5.686-14.91 13.051l-.011-.009-5.326 9.781 5.188 7.294h30.118l7.612-8.538z" fill="#7c85aa"/><g fill="#6e7ca5"><path d="m172.896 504.444h-15.118c-8.284 0-15-6.716-15-15 0-8.543 6.886-15.118 15.059-15.118 8.317 0 15.059 6.742 15.059 15.059z"/><path d="m218.131 504.444h-15.118v-15.059c0-8.317 6.742-15.059 15.059-15.059s15.059 6.742 15.059 15.059c0 8.528-6.876 15.059-15 15.059z"/><path d="m338.543 504.444h15.118c8.284 0 15-6.716 15-15 0-8.543-6.886-15.118-15.059-15.118-8.317 0-15.059 6.742-15.059 15.059z"/><path d="m293.308 504.444h15.118v-15.059c0-8.317-6.742-15.059-15.059-15.059-8.317 0-15.059 6.742-15.059 15.059 0 8.528 6.876 15.059 15 15.059z"/></g></g><g><path d="m411.671 323.677c-2.964-18.505-9.087-36.369-18.052-52.755 28.709.426 37.384-33.189 52.352-33.164 43.364-1.656 45.312-43.633 38.353-98.816-9.349-51.658 53.456-73.573 14.498-117.995-41.884-49.597-131.681-.249-185.054 36.406-35.667-16.385-80.19-16.432-115.918-.115-17.972-12.321-35.402-22.918-51.85-31.48-3.675-1.912-8.203-.485-10.116 3.19-1.913 3.674-.484 8.203 3.19 10.116 13.976 7.275 28.721 16.096 43.938 26.247-11.904 7.637-21.458 16.946-28.265 27.343-29.373-38.984-76.539-59.661-124.182-67.898 16.825-13.208 43.224-12.991 78.722.703 3.864 1.489 8.206-.434 9.697-4.298 1.491-3.865-.434-8.206-4.298-9.697-22.175-8.554-41.771-12.35-58.229-11.29-21.127 1.363-37.105 10.756-47.251 25.707-30.506 45.235 27.509 61.481 18.283 113.06-6.146 45.34-7.402 98.817 38.352 98.817 14.989 0 23.289 33.097 51.903 33.17-8.95 16.36-15.076 34.229-18.042 52.741-70.344-19.392-117.808 58.836-75.026 132.949 29.546 51.176 82.121 65.47 116.559 48.001 4.113 4.442 9.988 7.229 16.505 7.229 66.275 0 64.066.849 70.527-2.441 17.488 3.134 36.2 3.341 54.833.002 6.389 3.252 4.196 2.439 70.522 2.439 6.518 0 12.394-2.788 16.507-7.231 33.969 17.205 86.724 3.675 116.557-47.999 2.071-3.587.842-8.174-2.745-10.245-3.587-2.072-8.174-.842-10.245 2.745-26.186 45.356-70.846 55.883-97.625 41.673.085-1.322.05-1.395.05-18.247 36.622 32.486 104.518-24.375 95.85-83.715-5.248-35.767-36.383-47.182-66.812-30.129-2.866-4.675-7.067-8.272-12.054-10.37 55.911-35.934 106.731 9.275 92.394 71.292-.933 4.036 1.582 8.064 5.618 8.997 3.93.941 8.081-1.553 8.997-5.618 14.341-62.035-28.777-115.758-88.443-99.324zm-46.531 28.367c-2.127.834-4.304 1.179-7.608.62-19.378-3.271-34.586-13.742-45.403-31.189 6.955 1.74 14.17 2.43 21.534 2.022 10.616-.583 15.658-13.921 9.993-22.907 13.243-7.879 24.583-17.48 33.447-28.324 10.487 17.237 17.383 36.574 20.197 56.675-11.638 5.375-22.636 13.273-32.16 23.103zm-34.213-43.448c-10.079.25-19.507-2.011-28.086-6.717-4.249-11.909-6.647-24.569-7.778-36.077 5.78-5.606 12.382-.72 14.688 7.048 4.621 15.585 11.749 27.613 21.176 35.746zm138.532-167.641c5.381 39.695 3.419 64.231-5.997 75.011-15.043 14.922-22.757-4.36-46.203 24.619-8.711 9.993-15.38 17.639-28.873 14.715 17.257-32.748 12.761-70.388-12.62-100.239-12.135-14.278-2.986-23.891-11.343-46.834 15.343-23.149 51.227-59.651 128.23-70.067 17.127 29.856-31.117 44.252-23.194 102.795zm11.856-116.21c-48.319 8.342-95.381 29.327-124.531 68.291-6.837-10.522-16.45-19.922-28.187-27.534 39.042-25.88 115.619-70.228 152.718-40.757zm-280.996 47.935c.075-.034.148-.07.222-.107 32.986-16.533 77.227-16.538 110.215-.038.039.022.079.042.118.063.002.001.003.002.005.002.065.035.129.071.195.104 23.962 12.086 43.341 33.828 42.492 60.612-.376 11.671 3.449 22.844 10.772 31.46 11.5 13.524 18.147 29.093 19.225 45.023 2.307 34.101-20.286 62.497-50.034 79.327-3.834-5.527-6.981-12.394-9.397-20.543-4.755-16.013-18.341-22.78-29.888-19.317.007-3.667.148-7.039.396-10.013 1.04-12.468-5.178-24.54-15.841-30.754-24.301-14.162-44.541-3.675-54.442 3.836-11.971 9.08-13.169 21.216-13.704 36.043-10.861.213-19.94 8.495-23.422 20.208-2.417 8.15-5.565 15.019-9.404 20.549-52.044-29.467-65.832-83.159-30.8-124.36 7.322-8.615 11.147-19.787 10.771-31.451-.756-24.176 15.136-46.832 42.521-60.644zm1.291 200.175c1.337-4.496 4.651-9.266 9.163-9.472.509 9.918 1.96 21.468 5.2 33.611-10.437 8.028-22.351 11.937-35.537 11.603 10.6-9.153 17.177-22.264 21.174-35.742zm-135.769-50.097c-7.885 0-13.442-2.158-17.491-6.792-9.417-10.779-11.378-35.315-5.997-75.012 8.68-56.041-40.842-74.257-23.231-102.798 76.658 10.357 112.561 46.589 127.968 69.61-3.074 8.316-4.565 17.07-4.285 26.034.256 7.94-2.304 15.491-7.208 21.26-26.019 30.602-29.499 68.22-12.542 100.284-26.074 5.142-30.088-32.586-57.214-32.586zm-28.174 226.36c-36.579-63.369 2.735-132.875 65.556-108.5 14.027 5.455 26.869 14.967 37.396 27.628-2.774 5.643-4.564 11.85-5.154 18.399-30.264-46.412-88.492-49.48-96.075 2.188-6.44 44.088 31.485 92.921 70.634 92.917 9.354 0 18.18-2.862 25.215-9.026 0 18.027-.022 16.914.051 18.067-26.833 14.263-71.594 3.413-97.623-41.673zm16.565-58.111c7.787-53.053 81.008-14.269 81.008 43.577-.026 2.402-.193 4.763-.529 7.057-5.892 40.223-50.369 28.113-70.974-7.573-8.011-13.874-11.475-29.571-9.505-43.061zm96.008 98.283c.356-10.007 14.765-10 15.118 0v7.559h-7.618c-4.128-.001-7.5-3.357-7.5-7.559zm30.118 0c.356-10.007 14.765-9.999 15.118 0v7.559h-15.118zm37.735 7.558h-7.618v-7.559c0-4.168 3.391-7.559 7.559-7.559 9.958.341 10.03 14.775.059 15.118zm21.52-.931c.636-2.079.98-4.284.98-6.569v-45.385c-.344-9.931-14.659-9.923-15 0v24.074c-7.596-2.709-16.3-1.204-22.618 4.473-8.579-7.708-21.539-7.708-30.118 0-6.309-5.668-15.013-7.188-22.618-4.472v-76.631c1.9-49.928 73.471-49.889 75.353 0v22.588c.344 9.931 14.659 9.923 15 0v-22.588c0-47.874-58.732-70.649-91.165-35.912-10.237-11.479-22.26-20.512-35.356-26.544 2.817-20.122 9.722-39.485 20.225-56.736 8.82 10.816 20.097 20.452 33.404 28.377-5.583 8.361-.742 22.46 9.995 22.903 15.549.861 30.272-3.073 43.137-11.569 10.064 25.958 27.485 47.771 52.613 62.917-1.765 5.317-2.675 10.86-2.675 16.563 0 100.66-.694 99.042.979 104.51-10.645 1.218-21.491 1.218-32.136.001zm53.658.931c-4.068 0-7.5-3.281-7.5-7.597.402-9.98 14.766-9.938 15.116.039v7.558zm22.616 0v-7.558c.356-10.007 14.765-10 15.118 0v7.558zm30.118-7.558c.371-10.021 14.756-9.999 15.117.039v.019c0 4.136-3.364 7.5-7.5 7.5h-7.617zm15.116-21.249c-7.622-2.726-16.324-1.184-22.617 4.469-8.579-7.708-21.538-7.707-30.118 0-6.308-5.668-15.011-7.187-22.616-4.473 0-82.251-.467-79.58 1.194-86.036 15.164 7.027 32.425 11.926 51.721 14.645 5.527.778 10.343 4.339 12.569 9.291 2.147 4.777 5.621 8.696 9.866 11.407v50.697zm80.816-100.365c24.593 10.192 21.43 64.887-16.932 90.904-25.19 17.082-48.2 7.205-48.884-23.223v-13.885c15.867-.502 27.538-14.796 25.194-30.188 4.827-4.766 7.505-10.971 7.789-17.434 11.649-7.622 23.715-9.952 32.833-6.174zm-51.207 12.981c-3.397 3.319-4.985 8.124-4.249 12.851 1.737 12.822-15.802 18.295-21.544 6.28-4.385-9.755-13.416-16.482-24.159-17.996-94.033-11.013-122.263-87.309-114.013-146.125.67-4.591 3.035-8.633 6.657-11.381 12.741-9.665 25.49-10.015 37.824-2.827 5.692 3.317 9.007 9.812 8.445 16.547-4.451 49.017 16.448 121.349 75.343 129.449 7.304 1.232 12.512-.115 16.525-1.836 3.161-.957 7.077-4.847 12.469-4.296 9.367.96 13.598 12.596 6.702 19.334z"/><path d="m180.394 186.684c4.142 0 7.5-3.358 7.5-7.5 0-5.715 4.795-6.159 6.265-6.159s6.265.444 6.265 6.159c.339 9.924 14.659 9.928 15 0-.355-28.073-42.175-28.074-42.53 0 0 4.142 3.358 7.5 7.5 7.5z"/><path d="m303.439 186.684c4.142 0 7.5-3.358 7.5-7.5 0-5.715 4.795-6.159 6.265-6.159s6.265.444 6.265 6.159c.339 9.924 14.659 9.928 15 0-.355-28.073-42.175-28.074-42.53 0 0 4.142 3.358 7.5 7.5 7.5z"/><path d="m275.454 175.131c-15.486-12.513-32.603-5.501-39.488-.045-3.247 2.572-3.818 7.308-1.246 10.555 2.583 3.262 7.287 3.801 10.512 1.241 1.099-.84 11.019-7.983 20.795-.083 3.221 2.603 7.943 2.103 10.547-1.12 2.603-3.223 2.102-7.945-1.12-10.548z"/><path d="m236.567 157.611c.195-.101 19.717-9.971 38.145-.044 3.575 1.946 8.186.636 10.16-3.046 1.964-3.647.601-8.195-3.046-10.16-25.592-13.785-51.16-.597-52.235-.029-3.652 1.929-5.043 6.438-3.13 10.098 1.912 3.661 6.439 5.078 10.106 3.181z"/></g></svg>