<svg id="Layer_1" enable-background="new 0 0 511.955 511.955" height="512" viewBox="0 0 511.955 511.955" width="512" xmlns="http://www.w3.org/2000/svg"><g><path d="m289.741 278.568h-67.765v-45.956c0-29.272-6.143-58.218-18.031-84.967l-12.087-27.195h67.765l12.086 27.195c11.888 26.749 18.031 55.695 18.031 84.967v45.956z" fill="#f9dee4"/><path d="m221.971 325.038-36.599-8.823-5.984 24.822c-1.531 6.35-6.995 10.98-13.511 11.446l-47.373 3.392c-11.018.789-19.309 10.36-18.521 21.377l1.798 25.113c.594 8.296 7.8 14.539 16.096 13.944 8.295-.594 14.539-7.8 13.945-16.096-.297-4.148 2.824-7.751 6.972-8.048l52.496-4.818 14.799 3.568z" fill="#ebca5f"/><path d="m221.971 466.803v-135.53h-37.647v153.177c0 11.046 8.954 20 20 20h25.176c8.317 0 15.059-6.742 15.059-15.059 0-8.317-6.742-15.059-15.059-15.059-4.158.001-7.529-3.37-7.529-7.529z" fill="#f2d98d"/><path d="m438.849 232.55c0 5.48-5.14 9.27-9.95 7.32-9.16-3.72-18.75-6.08-28.5-7.02-3.663-.362-5.505-2.194-7.29-3.93-4.218-4.113-11.02-3.866-14.92.55-5.462 6.156-11.62.998-34.73 10.37-4.83 1.96-10.02-1.77-10.02-7.29 0-15.93 8.08-30.14 20.43-37.76 5.68-3.5 7.77-10.69 4.7-16.61-8.53-16.45-16.2-39.8-18.09-71.94l90.76 7.75c-2.57 28.18-9.68 49.09-17.51 64.19-3.07 5.92-.98 13.11 4.7 16.61 12.35 7.62 20.42 21.83 20.42 37.76z" fill="#7c85aa"/><path d="m399.441 126.757c-45.956-13.035-103.606 8.991-103.606 8.991v-90.589h23.684s45.608 1.05 82.445 20.228c-5.573 13.171-9.974 33.876-2.523 61.37z" fill="#daa985"/><path d="m292.417 166.404c-172.1-54.76-38-158.73-38-158.73 46.207-2.952 86.021 33.033 87.95 79.09 1.49 35.6-19.5 66.489-49.95 79.64z" fill="#f9dee4"/><path d="m292.417 166.404c-10.4 4.49-21.91 6.91-34.01 6.74-49.487-.697-88.123-45.192-80.7-95.09 1.35-9.02-4.08-17.67-12.86-20.18l-8.78-2.5c-4.15-1.19-4.98-6.77-1.31-9.04 12.49-7.71 28.3-9.72 40.51-9.89.96-.02 1.85-.43 2.48-1.15 1.114-.557 1.577-4.148-1.15-5.31l-22.43-9.62c-4.44-1.9-3.88-8.38.82-9.47 20.17-4.66 39.03-2.01 50.54.72 8.785 2.074 10.896-2.83 28.89-3.94-24.61 31.25-70.54 109.599 38 158.73z" fill="#f5c9d3"/><path d="m289.734 274.807c0 24.63-16.83 49.28-43.61 64.34-4.57 2.58-9.42 4.87-14.54 6.83-71.08 27.36-152.67-20.87-152.67-71.17 0-4.46.6-8.83 1.77-13.07l51.09-9.29c3.12-13.2 9.17-28.26 18.93-45.45 2.61-.6 5.23-1.12 7.84-1.57 66.82-11.6 131.19 23.15 131.19 69.38z" fill="#f5c9d3"/><path d="m246.124 339.147c-4.57 2.58-9.42 4.87-14.54 6.83-71.08 27.36-152.67-20.87-152.67-71.17 0-4.46.6-8.83 1.77-13.07l51.09-9.29c3.12-13.2 9.17-28.26 18.93-45.45 2.61-.6 5.23-1.12 7.84-1.57-11 38.75-16.37 111.6 87.58 133.72z" fill="#f1b3c1"/><path d="m295.136 95.124c0 30.475-57.839 30.475-57.839 0s57.839-30.475 57.839 0z" fill="#fff"/><path d="m182.474 275.877c-6.22 2.98-12.97 5.72-20.11 7.94-.23.07-.46.14-.7.21-22.22 6.77-48.22 8.35-74.21-4.19v.01c-3.43-1.16-16.72-9.26-25.2-16.98-3.47-3.06-1.96-9.34 2.23-11.55l67.44-36.7c13.21-7.19 21.27-12.37 28.53-15.46 6.63-2.83 12.58-3.92 21.17-3.2 39.2 7.47 36.16 63.02.85 79.92z" fill="#f9dee4"/><path d="m161.664 284.027c-22.22 6.77-48.22 8.35-74.21-4.19v.01c-3.43-1.16-16.72-9.26-25.2-16.98-3.47-3.06-1.96-9.34 2.23-11.55l67.44-36.7c13.21-7.19 21.27-12.37 28.53-15.46-6.7 20.5-13.49 54.68 1.21 84.87z" fill="#f5c9d3"/><path d="m401.965 65.388s-17.834 7.027-17.834 27.286c0 20.26 15.311 34.083 15.311 34.083 13.233 3.742 25.492 10.395 35.128 21.32 4.352 4.927 12.219 2.099 12.855-4.584 3.824-40.248-18.459-64.042-45.46-78.105z" fill="#cb8a5a"/></g><g><path d="m335.672 38.702c-23.051-32.905-63.996-46.221-101.123-34.532-1.652.52-3.47.571-5.258.147-12.868-3.049-32.673-5.648-53.963-.724-11.733 2.714-13.153 18.925-2.084 23.669l7.206 3.089c-9.179 1.468-19.024 4.317-27.594 9.607-9.282 5.732-7.137 19.676 3.187 22.626l8.78 2.508c5.068 1.448 8.292 6.547 7.498 11.86-4.477 29.99 6.204 60.452 29.942 81.277 5.101 12.825 8.861 26.18 11.237 39.844-3.605-.619-7.263-1.111-10.963-1.48-13.769-10.349-31.725-10.187-46.677-2.054l-25.762 14.017c-3.638 1.979-4.982 6.534-3.003 10.172 1.979 3.639 6.534 4.984 10.173 3.003l27.535-14.914c24.737-11.732 46.698 10.358 37.365 38.23-3.663 10.938-11.382 19.899-21.176 24.584-39.437 18.866-77.797 17.826-111.216-11.165l36.75-20.011c8.56-5.048 1.709-17.621-7.168-13.176l-36.702 19.969c-8.753 4.76-11.246 17.349-3.264 24.064 4.786 4.204 9.466 7.738 14.339 10.911 2.676 26.905 24.924 52.443 56.313 67.456l-10.037.72c-15.161 1.073-26.56 14.228-25.471 29.388l1.799 25.116c.883 12.406 11.704 21.773 24.109 20.89 12.573-.888 21.789-11.994 20.9-24.021l.009-.119 37.503-3.441v88.24c0 15.164 12.337 27.5 27.5 27.5h25.18c29.812-1.109 29.981-43.95-.029-45.15v-37.599c-.344-9.931-14.659-9.923-15 0v37.599c0 4.015 1.561 7.787 4.396 10.623 6.736 6.736 11.678 2.316 15.971 6.61 4.742 4.76 1.404 12.917-5.337 12.917h-25.18c-6.893 0-12.5-5.607-12.5-12.5v-123.137c7.685-.205 15.277-1.072 22.65-2.575v40.16c.344 9.931 14.659 9.923 15 0v-44.194c41.337-13.904 64.759-45.431 67.47-74.085.429-1.515 3.628-64.761-7.348-105.029 20.287-7.108 36.762-21.188 47.232-38.304 3.236 16.361 8.291 31.244 15.087 44.35 1.245 2.399.395 5.311-1.98 6.774-14.798 9.13-23.991 26.045-23.991 44.143 0 10.923 10.657 18.17 20.338 14.24 22.532-9.137 29.434-3.227 37.534-12.356 4.44-3.798 5.456 5.156 15.868 5.881 24.525 2.366 29.507 12.106 39.935 5.08 4.218-2.841 6.735-7.643 6.735-12.845 0-18.101-9.189-35.016-23.985-44.145-2.372-1.461-3.222-4.373-1.978-6.771 4.246-8.185 7.809-17.108 10.677-26.618 9.203 7.131 22.689 1.106 23.824-10.813 6.383-67.152-54.448-98.357-121.253-105.506zm53.439 28.084c-13.308 13.442-12.81 33.031-4.698 49.129-11.119-1.191-23.223-1.035-36.207.449 5.838-19.529 5.072-41.413-3.456-61.363 12.728 1.944 28.834 5.459 44.361 11.785zm-248.903 317.914c-8.117.596-14.389 7.794-13.839 15.92.004.075.01.149.016.223.264 4.095-2.905 7.715-6.998 7.99-4.185.285-7.791-2.841-8.088-6.996l-1.8-25.12c-.493-6.89 4.685-12.865 11.576-13.353 57.705-4.193 44.038-3.642 57.783-2.494v20.28zm75.914-41.216c-53.748 12.321-111.675-16.686-125.007-54.043 31.786 13.218 65.541 8.464 96.351-6.276 13.438-6.428 23.98-18.585 28.927-33.353 4.108-12.269 3.806-25.206-.719-36.087 33.315 6.857 68.595 28.474 68.595 61.078-.001 27.005-25.2 58.873-68.147 68.681zm68.146-108.226c-13.96-16.696-32.986-27.175-54.991-33.611-1.46-10.099-3.621-20.061-6.469-29.808 16.695 8.016 35.484 10.706 54.295 7.498 5.421 19.808 7.165 37.086 7.165 55.921zm-23.717-69.605c-44.97-.642-80.168-41.12-73.394-86.483 1.903-12.736-5.927-24.988-18.213-28.499l-2.786-.796c10.346-4.605 22.373-5.804 31.251-5.931 11.713-.163 14.864-16.275 4.176-20.854l-14.835-6.358c15.382-2.114 29.434-.104 39.082 2.181 4.419 1.047 8.99.896 13.221-.436 62.234-19.591 118.488 44.464 90.939 103.608-.114.213-.217.432-.31.656-12.028 25.178-37.938 43.319-69.131 42.912zm172.837 66.902c0 .086-.009.156-.021.212-19.453-7.812-30.027-6.319-31.911-8.17-7.058-7.808-19.478-8.388-26.838-.1-1.903 2.149-11.661.248-31.618 8.269-.141-12.984 6.41-25.144 16.843-31.585 8.983-5.536 12.244-17.154 7.424-26.448-6.61-12.746-11.418-27.453-14.335-43.787 17.633-1.734 33.232-.729 46.5 3.035.009.002.018.003.027.006 8.002 2.265 15.089 5.565 21.203 9.854-2.86 11.235-6.736 21.609-11.552 30.892-4.82 9.296-1.56 20.914 7.42 26.446 10.398 6.415 16.858 18.438 16.858 31.376zm8.606-89.767c-.002.021-.004.041-.007.06-10.111-11.35-22.857-18.564-36.554-22.739-12.958-13.841-17.617-35.719-1.468-46.205 28.077 15.842 40.869 39 38.029 68.884z"/><path d="m285.107 48.909c-10.31 0-21.266 7.416-21.266 21.159 0 4.142 3.357 7.5 7.5 7.5s7.5-3.358 7.5-7.5c0-5.715 4.795-6.159 6.266-6.159 1.47 0 6.265.444 6.265 6.159 0 4.142 3.357 7.5 7.5 7.5s7.5-3.358 7.5-7.5c0-13.743-10.956-21.159-21.265-21.159z"/></g></svg>