<svg id="Layer_1" enable-background="new 0 0 512.06 512.06" height="512" viewBox="0 0 512.06 512.06" width="512" xmlns="http://www.w3.org/2000/svg"><g><path d="m458.8 40.871v.01h-.01c-23.77 18.24-46.78 52.35-60.09 74.23l-72.26-77.47c5.95-5.91 12.3-11.02 18.72-14.93 37.09-22.62 77.23-15.15 99.39-7.9 10.46 3.42 16.68 14.78 14.25 26.06z" fill="#fef5e6"/><path d="m458.8 40.881c-2.29 19.18-18 54.53-42.32 76.85-3.59 3.29-7.75 4.41-11.66 3.93l-13.81-14.8c-.15-1.79-.02-3.68.45-5.63 6.8-28.28 23.98-63.36 67.33-60.35z" fill="#ebca5f"/><path d="m184.05 36.111-73.79 73.97c-33.915-54.3-55.824-68.005-57-69.21-2.43-11.28 3.79-22.64 14.25-26.06 22.16-7.25 62.3-14.72 99.39 7.9 5.85 3.57 11.66 8.14 17.15 13.4z" fill="#fbebcf"/><path d="m120.31 100.011-20.49 20.54c-12.596-5.607-42.837-48.491-46.56-79.67h.01c42.73-2.97 60.03 31.08 67.04 59.13z" fill="#e2b844"/><path d="m444.27 361.441c0 35.75-12.87 64.25-34.75 85.72-21.89 21.46-52.78 35.88-88.83 43.46-13.5 2.85-27.73 4.73-42.48 5.66 0 0-219.72-44.7-53.46-217.06h198.71c13.3 26.47 20.81 54.92 20.81 82.22z" fill="#f2d98d"/><path d="m278.21 496.281c-7.27.46-14.67.69-22.18.69-103.96 0-188.24-44.04-188.24-135.53 0-27.3 7.51-55.75 20.81-82.22h136.15c-23.07 68.27-31.21 159.34 53.46 217.06z" fill="#ebca5f"/><path d="" style="fill:#fdcb89;stroke:#000;stroke-width:15;stroke-linecap:round;stroke-linejoin:round;stroke-miterlimit:10"/><ellipse cx="383.138" cy="337.919" fill="#ebca5f" rx="67.121" ry="36.071" transform="matrix(.714 -.701 .701 .714 -126.999 365.197)"/><ellipse cx="128.922" cy="337.919" fill="#e2b844" rx="36.071" ry="67.121" transform="matrix(.701 -.714 .714 .701 -202.531 193.182)"/><path d="m474.38 222.151c0 68.316-79.092 113.745-148.55 85.9-17.009-6.848-22.612.69-69.8.69-43.521 0-49.241-5.976-64.08-2.48-188.676-27.088-95.971-167.085-6.77-260.19 18.8-24.84 48.06-36.81 48.06-36.81 27.049-4.024 54.669-1.004 82.24 10.04l-.03.13 50.74 118.41 101.01 50.12c4.64 10.59 7.18 22.12 7.18 34.19z" fill="#fef5e6"/><path d="m191.95 306.261c-7.325 1.691-22.159 10.01-48.86 10.01-58.22 0-105.41-42.14-105.41-94.12 0-12.04 2.53-23.56 7.16-34.15l.37.271 97.14-54.75c-25.47 58.249-27.11 124.189 49.6 172.739z" fill="#fbebcf"/><path d="m233.24 9.261c-14.59 14.2-42.82 43.62-66.56 79.91l29.93-69.74-.04-.14c10.913-4.243 25.437-8.4 27.64-8.4 0 0 0 0 .01-.01.108-.012 3.893-.857 9.02-1.62z" fill="#fbebcf"/><path d="m467.2 187.961-.35.31c-105.7 46.74-180.75 23.29-187.82-7.53-6.94-30.25 14.93-113.62 36.45-161.44 51.307 20.725 92.102 65.596 110.59 114.36 2.74 7.21 7.27 13.61 13.29 18.43 12.18 9.76 21.8 22.02 27.84 35.87z" fill="#f2d98d"/><path d="m233.03 180.741c-5.06 22.04-44.88 40.31-105.82 31.83-71.26-104.2 77.61-173.28 77.61-173.28 18.42 48.36 34.26 115.09 28.21 141.45z" fill="#f2d98d"/><path d="m127.21 212.571c-24.27-3.37-51.9-10.99-82-24.3l-.35-.31c6.04-13.85 15.66-26.11 27.84-35.87 6.02-4.82 10.55-11.22 13.29-18.43 18.456-48.679 59.164-93.536 110.58-114.37 2.76 6.14 5.53 12.87 8.25 20-36.15 41.34-83.97 109.19-77.61 173.28z" fill="#ebca5f"/><path d="m369.03 504.501h-60.353c-8.284 0-15-6.716-15-15v-7.588c0-24.95 20.226-45.176 45.176-45.176 24.95 0 45.176 20.226 45.176 45.176v7.588c.001 8.285-6.715 15-14.999 15z" fill="#ebca5f"/><path d="m143.03 504.501h60.353c8.284 0 15-6.716 15-15v-7.588c0-24.95-20.226-45.176-45.176-45.176-24.95 0-45.176 20.226-45.176 45.176v7.588c-.001 8.285 6.715 15 14.999 15z" fill="#e2b844"/><path d="m280.001 192.706c0-14.643-10.608-16.019-23.694-16.019-13.085 0-23.693 1.376-23.693 16.019 0 35.082 47.387 35.082 47.387 0z" fill="#4e5660"/></g><g><path d="m444.044 146.295c-9.276-7.427-9.662-13.307-16.7-28.706 21.352-22.502 36.325-55.189 38.855-75.441 3.001-14.801-5.427-29.864-19.321-34.407-41.301-13.515-81.63-8.892-111.54 12.567-53.068-27.892-108.616-26.226-158.734-.077-29.897-21.391-70.175-25.986-111.428-12.49-13.902 4.546-22.333 19.619-19.32 34.426 2.535 20.238 17.486 52.88 38.805 75.373-6.387 13.756-7.03 21.045-16.666 28.769-50.122 40.186-50.882 111.779.528 152.173-1.133 4.27-1.442 8.972-.999 13.95-19.542 67.568.109 125.203 54.034 159.164-1.282 6.392-1.031 10.61-1.031 17.964 0 12.406 10.093 22.5 22.5 22.5h60.353c7.804 0 14.169-3.253 18.158-9.196 21.907 2.175 46.003 2.282 68.979 0 3.989 5.942 10.354 9.196 18.158 9.196h60.353c12.406 0 22.5-10.094 22.5-22.5 0-7.227.248-11.582-1.031-17.96 22.441-14.097 39.03-32.292 49.344-54.16 3.926-9.128-9.025-15.228-13.566-6.398-8.644 18.326-22.423 33.787-40.998 46.069-28.207-50.445-103.319-27.279-99.292 31.109-19.565 1.749-40.338 1.75-59.916 0 3.987-58.585-71.198-81.41-99.282-31.127-40.129-26.559-56.934-67.359-50.036-116.386 19.663 36.382 58.382 59.168 83.514 58.364 31.613-1.005 43.48-36.47 11.288-78.507 23.806-5.563 16.839-9.614 40.874-6.836 30.038 3.472 57.029 3.461 87.07.018 24.114-2.766 17.204 1.218 40.985 6.845-32.717 42.748-19.842 78.571 12.691 78.503 26.048 0 63.514-23.872 82.169-58.458 2.11 14.754 2.036 28.89-.26 42.23-.702 4.082 2.038 7.961 6.12 8.663 4.055.699 7.956-2.014 8.663-6.12 4.165-24.206-.042-63.179-6.334-86.92 51.522-40.523 50.558-112.097.513-152.194zm-143.09 337.484c.662-51.245 73.178-52.84 75.572-1.808 0 5.536 1.255 15.089-7.5 15.089-65.274 0-63.291.746-65.592-1.922-2.511-2.911-2.704-8.978-2.48-11.359zm-127.751-39.484c20.775 0 37.676 16.901 37.676 37.676 0 7.76.535 15.089-7.5 15.089h-60.353c-8.706 0-7.5-9.401-7.5-15.089 0-20.774 16.902-37.676 37.677-37.676zm261.464-286.293c9.381 7.517 16.923 16.508 22.347 26.389-31.414 13.133-62.538 20.904-90.423 22.533-24.852 1.454-47.005-1.985-62.364-9.683-10.006-5.013-16.359-11.448-17.89-18.119-2.902-12.649-.16-38.401 7.523-70.651 6.553-27.507 15.933-56.529 25.543-79.267 40.17 18.221 73.574 52.624 92.054 89.895.079.178.164.353.257.524 8.641 17.589 9.25 27.409 22.953 38.379zm-194.557 34.763c0-5.907.655-8.519 16.193-8.519s16.194 2.611 16.194 8.519c0 25.163-32.387 25.163-32.387 0zm179.941-89.426c-4.101-7.22-8.833-14.52-14.062-21.617 9.593-20.784 24.243-31.96 43.673-33.318-3.983 14.95-14.128 37.13-29.611 54.935zm22.165-81.34c4.947 1.617 8.434 6.091 9.353 11.296-24.192.646-43.247 12.783-55.853 35.528-13.509-15.713-29.052-29.287-45.914-40.098 25.347-15.33 58.368-17.868 92.414-6.726zm-136.718 1.576c-17.426 41.505-36.524 109.692-35.199 146.851-7.018-1.594-21.254-1.654-28.551.141 1.379-37.123-17.74-105.415-35.186-146.975 32.964-11.399 66.778-11.41 98.936-.017zm-235.66-1.577c33.972-11.115 66.924-8.613 92.25 6.629-16.983 10.837-32.5 24.402-45.868 39.979-12.604-22.606-31.611-34.658-55.736-35.308.918-5.207 4.406-9.682 9.354-11.3zm-7.447 26.406c19.365 1.355 33.988 12.463 43.582 33.118-5.098 6.954-9.788 14.225-14.018 21.763-15.456-17.797-25.585-39.947-29.564-54.881zm97.395 335.674c-31.643.983-78.241-44.26-77.517-76.329 21.67 12.444 47.126 17.775 72.103 15.558 21.767 24.345 31.8 59.931 5.414 60.771zm54.362-85.252c-12.063-1.393-19.345-2.235-30.725 2.322-75.086 30.13-157.841-31.438-134.369-102.996 18.191 7.624 44.535 16.148 48.8 16.148 8.775 0 10.357-12.589 1.856-14.768-14.572-3.732-29.566-8.82-44.669-15.141 14.615-26.617 29.227-25.026 37.898-47.914 16.676-43.993 52.242-86.076 99.68-107.345 9.621 22.748 19.014 51.802 25.573 79.338 7.683 32.25 10.425 58.002 7.523 70.651-4.212 18.36-42.434 33.592-96.841 26.173-4.104-.561-7.885 2.314-8.444 6.419-.56 4.104 2.314 7.885 6.418 8.444 31.976 4.357 74.656 3.049 99.532-17.071 3.048 11.651 11.505 19.807 22.144 22.516v19.241c-6.615 4.028-15.489 4.474-25.987-2.524-3.446-2.297-8.103-1.366-10.4 2.08-2.298 3.446-1.366 8.103 2.08 10.4 15.158 10.105 30.45 9.865 41.864 3.06 11.67 6.936 26.662 7 41.751-3.06 3.446-2.297 4.378-6.954 2.08-10.4-2.297-3.446-6.954-4.378-10.4-2.08-12.815 8.542-21.964 5.091-25.987 2.585v-19.177c10.134-2.408 19.237-9.933 22.594-22.252 20.871 16.54 54.888 19.972 81.345 18.422 30.06-1.756 62.167-9.74 95.535-23.746 23.453 71.538-59.254 133.114-134.373 103-23.851-9.603-41.151 6.149-114.478-2.325zm138.119 85.252c-26.293-.837-16.547-36.16 5.337-60.685 26.011 2.403 51.245-3.578 72.179-15.626.703 32.055-45.903 77.317-77.516 76.311z"/><path d="m181.571 190.306c4.142 0 7.5-3.357 7.5-7.5v-12c-.344-9.931-14.659-9.923-15 0v12c0 4.143 3.358 7.5 7.5 7.5z"/><path d="m331.035 163.306c-4.143 0-7.5 3.357-7.5 7.5v12c.344 9.931 14.66 9.923 15 0v-12c0-4.142-3.357-7.5-7.5-7.5z"/></g></svg>