<svg id="Layer_1" enable-background="new 0 0 511.939 511.939" height="512" viewBox="0 0 511.939 511.939" width="512" xmlns="http://www.w3.org/2000/svg"><g><path d="m36.589 187.282c-10.536-14.039-19.551-24.831-25.24-45.94l-2.92-10.8c-2.439-9.034 4.502-17.63 13.46-17.63 6.01 0 11.79 3.89 13.54 10.35 5.875 21.782 15.641 33.138 26.94 48.18" fill="#6171a0"/><path d="m383.971 323.729v105.42l-30 52.7h-37.88c-16.57 0-30-13.43-30-30v-128.12z" fill="#6e7ca5"/><path d="m383.971 429.151v22.7c0 16.57-13.43 30-30 30h-.12v-37.7c0-8.29 6.72-15 15-15z" fill="#ebca5f"/><path d="m180.681 323.729v112.94l-30 45.18h-37.88c-16.57 0-30-13.43-30-30v-128.12z" fill="#6171a0"/><path d="m180.681 436.669v15.18c0 16.57-13.43 30-30 30h-.12v-30.18c0-8.28 6.71-15 15-15z" fill="#e2b844"/><path d="m399.031 250.79v54.85c0 37.07-23.97 73.08-66.14 83.11-14.17 3.37-24.22 15.95-24.22 30.51v9.89l-28.27 49.67-1.73 3.03h-37.88c-16.56 0-30-13.43-30-30v-35.93c0-13.49-10.93-24.42-24.42-24.42h-4.82c-179.41-79.86-17.81-218.73-17.81-218.73 52.59 3.226 90.629-.79 136.14-7.52 52.24-7.741 99.15 32.729 99.15 85.54z" fill="#7c85aa"/><path d="m181.551 391.499h-36.69c-13.49 0-24.42 10.93-24.42 24.42v20.75l-30 45.18h-37.88c-16.57 0-30-13.43-30-30v-43.17c0-26.84-4.27-53.44-11.71-79.23-2.18-7.56-3.35-15.55-3.35-23.81v-53.67c0-53.454 47.882-93.801 100.14-85.39 18.61 2.98 37.33 5.04 56.1 6.19-23.56 41.301-55.63 128.04 17.81 218.73z" fill="#6e7ca5"/><path d="m120.441 436.669v15.18c0 16.57-13.43 30-30 30h-.12v-30.18c0-8.28 6.72-15 15-15z" fill="#ebca5f"/><path d="m451.736 135.499h-52.706v-90.411c0-8.284 6.716-15 15-15 20.824 0 37.706 16.882 37.706 37.706z" fill="#6171a0"/><path d="m225.853 135.499h52.706v-90.411c0-8.284-6.716-15-15-15-20.824 0-37.706 16.882-37.706 37.706z" fill="#54669b"/><path d="m459.261 271.03v6.1c0 42.37-34.35 76.72-76.72 76.72h-71.69s-64.09-19.43-16.45-82.82z" fill="#6e7ca5"/><path d="m310.851 353.849h-15.8c-42.38 0-76.73-34.35-76.73-76.72v-6.1h76.08c-6.67 22.67-9.56 55.98 16.45 82.82z" fill="#6171a0"/><path d="m383.971 323.735c-12.475 0-22.588-10.113-22.588-22.588v-30.118h45.176v30.118c0 12.475-10.113 22.588-22.588 22.588z" fill="#fef5e6"/><path d="m316.211 271.03v30.12c0 12.47-10.12 22.59-22.59 22.59-.21 0-.42 0-.63-.02 0 0-32.11-20.36 1.41-52.69z" fill="#fef5e6"/><path d="m292.991 323.719c-12.19-.32-21.96-10.31-21.96-22.57v-30.12h23.37c-4.31 14.66-7.05 33.761-1.41 52.69z" fill="#fbebcf"/><path d="m474.321 250.159h-134.62c-226.84-70.92-43.76-197.03-41.98-198.25.01-.01.01-.01.01-.01 75.509-25.638 156.769 23.827 165.68 102.28z" fill="#6e7ca5"/><path d="m339.701 250.159h-136.44l10.91-95.98c5.48-48.14 38.99-87.19 83.56-102.28-30.63 39.61-77.4 128.02 41.97 198.26z" fill="#6171a0"/><path d="m504.431 244.739c-.49 30.63-29.46 55.71-65.14 56.39-15.81.3-30.41-4.13-42.01-11.75-16.31-10.73-36.1-16.84-56.65-16.84h-2.49c-8.74 0-17.42 1-25.75 2.99-10.66 2.53-20.76 6.66-29.75 12.33-116.43-40.35-14.56-116.32-14.56-116.32.19.26.37.52.55.78 5.342 7.869 16.451 10.515 24.69 7.34 28.755-9.988 61.304-10.333 90.95 0 9.24 3.23 19.69-.02 24.73-7.41 6-8.78 17.29-14.57 30.11-14.14 17.12.57 31.11 12.45 31.95 27.14.01.2.02.39.03.59.17 5.14 3.11 9.88 7.83 13.05 15.77 10.641 25.82 27.24 25.51 45.85z" fill="#7c85aa"/><path d="m282.641 287.86c-.65.41-1.29.82-1.93 1.25-11.3 7.54-25.49 12.04-40.91 12.04-36.98 0-66.93-25.86-66.65-57.66.15-18.1 10.25-34.12 25.76-44.49 4.69-3.13 7.43-7.96 7.59-13.06.02-.87.09-1.74.21-2.62 1.85-13.6 14.94-24.27 30.86-25.17 12.84-.72 24.26 4.8 30.51 13.39-15.9 25.409-35.62 74.809 14.56 116.32z" fill="#6e7ca5"/><path d="m269.741 236.499c-4.89 4.89-12.31 5.71-18.05 2.47-23.15-25.71 2.64-37.62 2.64-37.62 3.583 1.512 4.259 2.709 15.41 13.85 5.88 5.891 5.88 15.42 0 21.3z" fill="#6e7ca5"/><path d="m251.691 238.969c-2.551-1.439-3.114-2.334-13.9-13.12-11.483-11.482 1.233-31.008 16.54-24.5-3.44 11.511-5.04 24.36-2.64 37.62z" fill="#6171a0"/><path d="m407.851 236.501c-5.881-5.881-5.881-15.416 0-21.296l10.648-10.648c5.881-5.881 15.415-5.881 21.296 0 5.881 5.881 5.881 15.415 0 21.296l-10.648 10.648c-5.88 5.88-15.415 5.88-21.296 0z" fill="#6e7ca5"/><path d="m308.671 429.149v22.7c0 16.57-13.43 30-30 30h-.11v-37.7c0-8.29 6.71-15 15-15z" fill="#f2d98d"/></g><g><path d="m483.131 192.585c-2.784-1.876-4.432-4.461-4.521-7.093-.163-.245.516-8.348-6.072-17.746-2.173-19.077-3.169-33.931-13.284-55.117v-44.929c0-24.988-20.212-45.2-45.2-45.2-12.406 0-22.5 10.093-22.5 22.5v3.234c-33.207-14.036-71.34-14.419-105.47-.006v-3.228c0-12.407-10.094-22.5-22.5-22.5-24.94 0-45.21 20.159-45.21 45.2v44.948c-10.2 21.353-11.255 37.265-13.106 53.567-88.766.966-102.107-16.143-140.214-3.806-9.561-12.728-17.266-22.298-22.363-41.198-8.309-27.001-47.852-16.802-41.479 11.199 5.962 22.049 7.804 30.506 25.409 53.965-16.449 16.942-26.598 40.056-26.598 65.505v11.529c.344 9.931 14.659 9.923 15 0v-11.529c0-48.564 43.508-85.702 91.455-77.984 30.679 4.912 61.902 7.375 92.983 7.353-.708 4.253.347 8.056-4.699 11.429-47.396 31.688-34.357 95.716 20.864 112.331 16.858 47.734 56.177 56.251 100.603 56.251 9.931-.344 9.923-14.659 0-15h-21.155c-26.24 0-50.128-15.131-61.759-37.974 10.566.808 20.846-.294 30.519-3.174 4.994 36.924 59.899 33.208 59.899-4.052v-20.12c9.281-1.289 20.497-1.412 30.171-.054v20.174c0 37.26 54.912 40.971 59.9 4.046 9.38 2.794 19.642 4.014 30.506 3.187-22.278 43.742-64.516 37.966-97.963 37.966-9.931.344-9.923 14.659 0 15h21.938c-10.007 9.788-22.601 16.654-37.106 20.104-17.655 4.198-29.985 19.745-29.985 37.806v2.392h-7.609c-12.406 0-22.5 10.093-22.5 22.5v30.198h-30.271c-12.406 0-22.5-10.093-22.5-22.5v-35.93c0-17.601-14.319-31.92-31.92-31.92h-41.51c-17.601 0-31.92 14.319-31.92 31.92v13.251h-7.62c-12.406 0-22.5 10.093-22.5 22.5v22.678h-30.26c-12.406 0-22.5-10.093-22.5-22.5 0-49.247 1.85-76.449-12.004-124.479-3.585-12.43-3.057-20.776-3.057-33.754-.344-9.931-14.659-9.923-15 0 0 13.774-.546 23.383 3.645 37.912 7.575 26.261 11.416 52.218 11.416 77.151v43.17c0 20.678 16.822 37.5 37.5 37.5 40.657.002 41.827.563 49.067-1.705 7.54 2.366 9.502 1.705 49.053 1.705 20.678 0 37.5-16.822 37.5-37.5v-52.75c8.481.907 15.109 8.102 15.109 16.82v35.93c0 20.678 16.822 37.5 37.5 37.5 37.88.002 0 0 37.88 0 6.81 0 13.196-1.834 18.706-5.02 11.554 6.653 18.625 5.021 56.594 5.021 20.679 0 37.5-16.823 37.5-37.502v-90.979c33.034-3.451 59.966-25.913 70.51-55.78 55.582-16.801 67.836-80.928 21.128-112.413zm-467.438-64.087c-2.014-8.171 9.928-11.727 12.518-3.372 5.278 19.567 13.519 31.206 22.568 43.254-4.51 2.345-8.809 5.044-12.856 8.064-14.161-18.867-16.074-25.174-22.23-47.946zm112.271 287.332c0-9.33 7.59-16.92 16.92-16.92h28.32v30.171h-7.62c-12.406 0-22.5 10.093-22.5 22.5v22.678h-22.641c4.719-6.272 7.521-14.064 7.521-22.5zm-22.62 28.252h7.62v7.678c0 9.822-6.329 18.188-15.12 21.25v-21.429c0-4.135 3.364-7.499 7.5-7.499zm52.74 28.928v-21.429c0-4.136 3.364-7.5 7.5-7.5h7.62v7.678c0 9.823-6.329 18.189-15.12 21.251zm135.5-36.448h7.609v15.198c0 9.818-6.323 18.182-15.109 21.247v-28.945c0-4.136 3.364-7.5 7.5-7.5zm15.826 36.67c4.268-6.087 6.783-13.489 6.783-21.472v-32.59c0-11.083 7.589-20.629 18.456-23.213 16.135-3.836 30.309-11.251 41.845-21.782v47.387h-7.62c-12.406 0-22.5 10.093-22.5 22.5v30.198h-30.26c-2.316 0-4.562-.36-6.704-1.028zm66.412-16.018c-1.84 7.353-7.335 13.334-14.448 15.796v-28.948c0-4.136 3.364-7.5 7.5-7.5h7.62c0 15.782.217 17.061-.672 20.652zm38.232-419.714c16.698 0 30.2 13.503 30.2 30.2v20.72c-10.248-13.09-22.973-24.158-37.7-32.692v-10.728c0-4.135 3.364-7.5 7.5-7.5zm-18.545 29.23c.367.367 52.878 24.76 60.384 87.552-18.991-8.415-42.136-2.345-53.06 13.647-3.197 4.682-10.108 6.646-16.075 4.563-30.914-10.778-64.967-10.779-95.869-.004l-.146.05c-5.907 2.06-12.734.113-15.882-4.522-11.191-16.489-34.517-21.919-53.117-13.809 9.819-81.659 101.265-126.316 173.765-87.477zm-131.925-29.23c4.136 0 7.5 3.364 7.5 7.5v10.727c-14.733 8.539-27.462 19.61-37.71 32.704v-20.731c0-16.764 13.574-30.2 30.21-30.2zm45.149 263.56c0 19.96-30.18 19.96-30.18 0v-2.012c7.71-4.137 14.005-10.004 30.18-14.843zm90.351 0c0 19.96-30.18 19.96-30.18 0v-16.844c16.068 4.917 22.713 10.829 30.18 14.836zm2.344-18.039c-38.925-25.597-91.325-22.644-124.863-.236-38.946 26.02-96.251 2.046-95.893-39.32.129-14.908 8.304-28.874 22.429-38.317 6.704-4.482 10.682-11.433 10.914-19.06.682-21.596 35.72-28.384 48.436-9.646 6.949 10.237 20.923 14.553 33.219 10.267l.146-.05c27.73-9.669 58.275-9.669 86.006 0 12.347 4.303 26.395-.013 33.399-10.268 12.87-18.841 47.425-11.61 48.398 9.62.257 7.49 4.313 14.421 11.129 19.015 60.8 45.397-14.321 115.813-73.32 77.995z"/><path d="m264.416 199.163c-14.055-14.051-38.511-4.271-38.511 15.952 0 11.381 6.498 15.842 17.256 26.6 8.817 8.817 23.087 8.817 31.903 0 8.795-8.795 8.795-23.107 0-31.903zm.041 31.945c-2.946 2.948-7.744 2.946-10.688 0l-10.649-10.648c-4.778-4.778-1.332-12.9 5.344-12.9 4.129 0 4.977 1.842 15.993 12.858 2.947 2.947 2.947 7.743 0 10.69z"/><path d="m413.219 199.163-10.648 10.648c-14.147 14.147-4.056 38.51 15.951 38.51 11.388 0 15.853-6.509 26.601-17.256 20.431-21.798-10.074-52.278-31.904-31.902zm10.647 31.945c-2.944 2.946-7.742 2.948-10.688 0-2.947-2.947-2.947-7.743 0-10.69l10.648-10.648c4.757-4.757 12.903-1.346 12.903 5.345 0 4.128-1.844 4.974-12.863 15.993z"/><path d="m256.03 135.41c.346 9.93 14.657 9.925 15 0 0-5.715 4.795-6.159 6.265-6.159s6.265.444 6.265 6.159c0 4.142 3.357 7.5 7.5 7.5s7.5-3.358 7.5-7.5c-.356-28.073-42.175-28.073-42.53 0z"/><path d="m386.575 142.91c4.143 0 7.5-3.358 7.5-7.5 0-5.715 4.795-6.159 6.265-6.159s6.265.444 6.265 6.159c.338 9.924 14.66 9.928 15 0-.355-28.074-42.175-28.073-42.529 0-.001 4.143 3.356 7.5 7.499 7.5z"/></g></svg>