<svg id="Layer_1" enable-background="new 0 0 509.517 509.517" height="512" viewBox="0 0 509.517 509.517" width="512" xmlns="http://www.w3.org/2000/svg"><g><path d="m116.197 321.308c-26.633 79.9-58.501 110.079-80.174 121.392-8.19 4.275-17.345-4.046-13.849-12.598 13.778-33.698 1.194-73.517-11.389-123.853-16.537-66.146 88.627-68.398 88.627-68.398z" fill="#ebca5f"/><path d="m354.163 346.697 36.421-47.978 53.555 39.222c11.573 8.475 18.411 21.96 18.411 36.305v37.415h-67.765v-26.681c0-4.691-2.194-9.111-5.931-11.948z" fill="#cb8a5a"/><path d="m455.079 441.778h-45.294c-8.284 0-15-6.716-15-15v-15.177c0-8.284 6.716-15 15-15h30.118c16.666 0 30.176 13.51 30.176 30.176 0 8.286-6.716 15.001-15 15.001z" fill="#707c8a"/><path d="m209.57 366.484-24.71 29.652c-8.199 9.839-11.613 22.806-9.322 35.406l11.444 62.942h-67.765l-22.588-90.353v-52.706l112.941-7.53z" fill="#c47b46"/><path d="m184.02 502.014h-45.294c-8.284 0-15-6.716-15-15v-15.177c0-8.284 6.716-15 15-15h30.118c16.666 0 30.176 13.51 30.176 30.177 0 8.284-6.715 15-15 15z" fill="#646f7e"/><path d="m397.491 306.166c-1.736 19.972-10.322 38.896-26.7 53.91-8.45 7.569-12.58 18.87-11.41 30.16l2.51 24.37c-158.97-32.091-121.32-181.681-121.32-181.681 7.05-.2 14.1-.52 21.14-.98 3.55-.23 60.8-106.4 60.8-106.4h60.24v82.82l13.8 75.939c1.269 7.292 1.569 14.642.94 21.862z" fill="#daa985"/><path d="m367.69 471.896-30.12 22.591-20.69-8.87c-8.78-3.76-14.57-12.3-14.83-21.851 0-7.59-1.772-18.86-5.44-29.159-9.501-26.96-12.949-37.721-23.81-45.461-6.57-4.829-14.63-7.6-23.16-7.6h-76.51c-15.04 0-28.75 8.64-35.24 22.21-8.993 18.862-7.56 17.923-3.32 47.63l.38 2.65c.12.85.31 1.68.57 2.479l.11.351c3.7 11.1-4.56 22.56-16.25 22.56h-29.961c-6.007 0-10.899-4.917-10.759-10.923.526-22.534-6.262-36.116-15.28-60.187-2.77-7.392-2.618-15.839 1.04-23.511 7.389-16.06 7.339-34.433.51-50.739-18.827-45.008 8.525-95.846 55.93-105.421 19.352-3.927 24.81.545 65.74 3.24 18.581 1.233 36.911 1.522 53.97 1.04 10.2 58.49 44.71 121.07 121.32 181.681 4.572 44.171 4.261 22.923 5.8 57.29z" fill="#cb8a5a"/><path d="m138.844 502.014h-45.294c-8.284 0-15-6.716-15-15v-15.177c0-8.284 6.716-15 15-15h30.118c16.666 0 30.176 13.51 30.176 30.177 0 8.284-6.716 15-15 15z" fill="#707c8a"/><path d="m364.726 502.014h-45.294c-8.284 0-15-6.716-15-15v-15.177c0-8.284 6.716-15 15-15h30.118c16.666 0 30.176 13.51 30.176 30.177 0 8.284-6.716 15-15 15z" fill="#8894a2"/><path d="m387.526 194.731c11.711-1.4 23.117 1.643 32.1 8.03l18.93 13.43c15.6 11.07 36.92 9.27 50.44-4.26h.01c15.32-15.32 15.32-40.16 0-55.49-26.005-25.996-34.633-31.925-40.07-50.2-7.142-23.916-26.521-43.796-52.56-52.07-32.357-10.269-68.789-2.223-87.388 21.327-4.928 6.239-5.972 15.807-8.491 23.743-16.208 51.031 31.355 102.09 87.029 95.49z" fill="#cb8a5a"/><path d="m414.977 145.538c0 30.475-57.839 30.475-57.839 0s57.839-30.475 57.839 0z" fill="#fff"/><path d="m462.335 22.81c-.183-2.464-2.823-4.123-5.388-3.406-9.206 2.576-31.321 5.851-64.37-7.41-30.933-12.419-61.292 3.717-77.043 14.654-3.699 2.568-3.077 7.905.843 10.122.964.545 2.018 2.433 6.232 8.283 36-12.886 55.833 29.666 87.65 34.787 9.241 1.491 17.749-.274 25.094-4.148 15.495-8.152 25.825-25.681 27.01-41.829.263-3.681.243-7.373-.028-11.053z" fill="#f2d98d"/><path d="m315.56 100.041c-2.116-2.629-3.849-5.556-4.958-8.743-.024-.068-.047-.135-.07-.203-1.688-4.883-.9-10.283 1.974-14.576l3.329-4.974 4.094-23.435-10.965-14.024s-14.664 5.129-30.284 15.429c0 0 0 0-.01.011-1.39 1.689-127.44 155.301-19.16 242.961 10.238-80.85 117.75-115.776 56.05-192.446z" fill="#f2d98d"/><path d="m260.07 321.306s-18.56-5.69-35.43-25.529c-14.07-16.551-26.96-42.931-26.96-84.07 0-93.43 48.94-141.03 81-162.191-34.81 61.311-62.87 149.691-19.17 242.971-1.14 9-1.08 18.559.56 28.819z" fill="#ebca5f"/><path d="m325.797 80.364c10.186-6.834 20.489-9.918 29.525-11.06 6.846-.865 11.053-8.196 8.677-14.983-4.846-13.842-16.782-31.437-46.178-34.149-4.987-.457-9.56 2.941-10.902 7.998-2.69 10.077-5.106 28.08 3.592 47.526 2.708 6.057 9.91 8.274 15.286 4.668z" fill="#daa985"/></g><g><path d="m494.345 151.142-25.729-25.72c-14.708-14.706-9.705-25.357-24.757-46.085 16.395-11.144 27.884-31.239 25.994-57.068-.525-7.161-7.713-12.1-14.896-10.084-7.388 2.072-27.975 5.519-59.552-7.148-27.436-11.015-54.163-1.986-72.482 8.199-1.438-.213-2.897-.393-4.383-.529-8.633-.793-16.543 4.905-18.832 13.532-.301 1.127-.606 2.386-.898 3.751-12.755 5.571-51.133 25.142-78.459 68.711-5.014 8.591 7.205 16.191 12.707 7.971 20.923-33.36 48.639-51.265 63.943-59.208.062 15.951-.119 30.032 8.58 51.698 12.898 16.761 32.573 40.554 13.638 74.225-19.911 37.448-70.224 74.106-67.888 135.411-51.99-28.636-55.586-115.393-32.851-172.996 1.497-3.862-.421-8.206-4.283-9.703-3.862-1.499-8.206.422-9.703 4.283-11.616 29.974-15.826 64.707-13.838 94.243-14.422-.867-28.675-2.259-42.991-4.209-18.688-2.551-37.511 1.115-53.821 10.587-.139-.004-.074-.022-.326-.016-2.397.039-58.97 1.306-82.222 31.593-16.492 21.484-8.573 42.19-2.047 67.973 1.014 4 5.079 6.447 9.113 5.428 4.016-1.019 6.445-5.098 5.428-9.113l-5.693-22.43c-8.66-34.628 19.521-50.246 54.709-56.235-21.956 24.755-27.049 59.412-14.763 88.761 5.91 14.112 6.215 30.289-.385 44.664-4.284 8.969-4.936 19.536-1.271 29.32l1.745 4.657c-8.286 9.048-16.863 15.924-25.539 20.452-1.313.683-2.316.045-2.8-.395-4.692-4.283 14.58-14.43.867-79.803-.85-4.054-4.826-6.651-8.88-5.8-4.054.85-6.65 4.825-5.8 8.88 6.557 31.26 6.35 51.056-.712 68.326-6.144 15.01 9.88 29.588 24.262 22.09 8.361-4.363 16.542-10.468 24.427-18.199 9.168 24.477 7.127 32.059 7.127 55.861 0 12.406 10.094 22.5 22.5 22.5l90.466-.001c6.015 0 11.666-2.339 15.923-6.596 13.312-13.361 5.315-38.608-12.662-48.738l-4.361-23.979c-1.896-10.417.899-21.07 7.662-29.216l9.952-11.941h49.107c13.195 0 24.668 8.099 29.362 19.99l10.542 28.086c3.057 8.581 7.393 42.587 7.393 49.895 0 12.406 10.094 22.5 22.5 22.5h45.294c28.557-1.715 27.424-35.698 9.883-50.604-.244-5.503-7.467-61.572-7.893-70.954-.346-6.695 1.588-13.094 5.385-18.228l12.219 9.278c1.857 1.41 2.966 3.644 2.966 5.976v26.581c0 .013-.001.025-.001.038v15.177c0 12.406 10.094 22.5 22.5 22.5h45.294c24.866-1.283 27.777-28.484 14.967-45.077v-29.958c0-16.682-8.031-32.515-21.479-42.351l-43.286-31.704c.178-11.534-1.365-17.27-5.654-40.868-.741-4.076-4.65-6.789-8.72-6.038-4.076.74-6.779 4.645-6.038 8.72 4.831 26.584 5.801 28.871 5.282 41.571 0 .007-.001.014-.001.02 0 .004 0 .008-.001.011-1.03 18.894-8.937 36.443-24.431 50.939-9.758 8.775-15.247 21.92-13.805 36.457 5.273 51.095 3.287 34.271 6.888 59.49-6.032-1.529-7.033-1.153-39.371-1.153-3.931 0-7.628 1.016-10.847 2.795-2.039-14.536-5.882-22.683-14.787-46.454-.015-.038-.029-.077-.045-.115-8.381-21.269-25.792-31.52-44.117-31.52h-76.51c-17.826 0-34.314 10.392-42.011 26.482-2.832 5.942-3.658 7.611-4.112 8.776-5.421 13.132-2.883 21.977-.285 40.169-2.371-.191-.439-.134-33.168-.134-3.01 0-5.883.599-8.51 1.676-1.058-6.98-2.845-13.852-5.362-20.561-10.56-28.189-12.389-30.505-9.738-39.227 1.504-5.015 15.108-28.526 1.903-60.06-20.649-49.332 20.19-103.224 73.759-95.892 15.015 2.045 30.636 3.578 46.702 4.47 3.82 24.106 12.753 44.571 26.626 60.885 15.973 18.796 36.448 28.174 41.134 28.174 4.612 0 8.135-4.128 7.407-8.683-9.35-58.545 36.527-93.262 60.663-132.258 13.879 9.12 30.361 14.372 47.111 14.883 0 8.394-.829 1.731 4.179 29.29.722 4.099 4.742 6.792 8.72 6.038 4.075-.74 6.779-4.645 6.038-8.72-4.602-25.326-3.937-19.789-3.937-27.347 17.621-1.281 26.927 8.212 43.97 20.303 18.542 13.16 43.655 11.133 59.843-4.834.085-.078.169-.157.251-.239 18.22-18.215 18.22-47.865.002-66.095zm-39.229 283.14h-45.294c-4.136 0-7.5-3.364-7.5-7.5l.001-15.196c.011-4.127 3.37-7.48 7.499-7.48h30.117c22.45-.001 29.575 30.176 15.177 30.176zm-51.673-116.871 36.301 26.589c9.604 7.024 15.338 18.331 15.338 30.246v18.047c-4.638-2.045-9.758-3.188-15.144-3.188-32.105 0-32.757-.435-37.616 1.29 0-18.761-3.885-19.527-19.696-31.533 10.55-11.764 17.641-26.013 20.817-41.451zm-91.474 154.429c0-4.136 3.364-7.5 7.5-7.5h30.117c22.45 0 29.575 30.177 15.177 30.177h-45.294c-4.136 0-7.5-3.364-7.5-7.5zm-122.61 20.483c-2.923 2.923-3.562 2.193-29.268 2.193 2.829-7.976 1.065-20.41-6.324-30.18h15.116c18.651 0 27.025 21.419 20.476 27.987zm-44.671-85.33c5.214-10.902 16.392-17.946 28.475-17.946h7.877c-19.124 22.948-13.649 39.424-9.84 60.368-1.831-.112-.013-.078-29.313-.078-4.166-29.176-4.812-26.372 2.801-42.344zm-51.102 57.347h30.117c22.295 0 29.816 30.177 15.039 30.177h-45.156c-4.136 0-7.5-3.364-7.5-7.5v-15.177c0-4.136 3.365-7.5 7.5-7.5zm296.233-445.383c30.891 12.393 53.043 11.224 65.26 8.634.362 24.838-19.261 48.77-43.593 44.851-14.804-2.386-27.338-14.802-42.062-24.924-5.309-12.285-13.976-21.641-25.371-27.604 13.551-5.062 29.712-7.402 45.766-.957zm-72.652 8.687c20.284 1.871 33.671 11.682 39.789 29.159.772 2.204-.383 4.792-2.539 5.064-11.829 1.494-22.852 5.623-32.763 12.271-1.566 1.053-3.486.232-4.262-1.503-7.926-17.719-5.401-34.251-3.188-42.539.44-1.653 1.766-2.572 2.963-2.452zm166.772 178.787c-.071.066-.142.134-.212.203-10.974 10.982-28.13 12.434-40.795 3.445l-18.931-13.431c-10.756-7.63-24.087-10.944-37.337-9.359-17.277 2.084-35.95-2.198-51.334-12.693 5.563-12.3 7.662-23.995 6.393-35.585-1.675-15.286-9.091-30.526-22.665-46.562-.386-.993-.753-1.991-1.108-2.991 4.304.548 8.55-.505 12.062-2.861 7.952-5.335 16.796-8.648 26.286-9.848 5.833-.737 11.102-4.325 13.939-10.071 17.584 13.293 35.751 26.425 59.808 19.257 15.287 19.376 9.439 31.57 27.964 50.097l25.729 25.718c12.303 12.31 12.371 32.294.201 44.681z"/><path d="m402.948 99.321c-10.309 0-21.265 7.416-21.265 21.159 0 4.143 3.357 7.5 7.5 7.5s7.5-3.357 7.5-7.5c0-5.715 4.795-6.159 6.265-6.159 1.471 0 6.266.444 6.266 6.159 0 4.143 3.357 7.5 7.5 7.5s7.5-3.357 7.5-7.5c-.001-13.743-10.957-21.159-21.266-21.159z"/></g></svg>