<svg id="Layer_1" enable-background="new 0 0 511.965 511.965" height="512" viewBox="0 0 511.965 511.965" width="512" xmlns="http://www.w3.org/2000/svg"><g><path d="m317.247 409.205 145.598-36.35c11.196-2.704 15.294-16.493 7.392-24.872l-17.942-19.026c-3.693-3.916-9.201-5.553-14.434-4.29l-132.986 33.304z" fill="#cb8a5a"/><path d="m32.51 329.765c-9.647 0-17.468 7.821-17.468 17.468v58.002c0 24.86 20.15 45 45 45h193.39c30.26 0 58.96-13.38 78.4-36.55l145.68-173.614c17.402-20.739 26.94-46.946 26.94-74.018v-31.759c0-25.112-20.357-45.469-45.469-45.469h-3.686c-5.163 0-10.062 2.284-13.381 6.24l-191.698 228.46c-3.319 3.955-8.218 6.24-13.381 6.24z" fill="#daa985"/><path d="m242.642 363.199c-41.63 18.99-84.59 25.49-121.7 20.85-173.8-99.72-3.56-240.21-1.78-241.67.01-.01.01-.01.01-.01 91.509-51.065 203.233-39.678 235.36 30.76 29 63.55-21.1 148.65-111.89 190.07z" fill="#8894a2"/><path d="m120.942 384.049c-43.82-5.49-79.5-26.54-95.19-60.95-26.96-59.1 14.47-136.83 93.42-180.73-27.32 48.95-74.21 159.52 1.77 241.68z" fill="#707c8a"/><path d="m188.432 432.209c-212.25-14.81-103.94-200.11-103.94-200.11 1.93-.14 3.88-.21 5.84-.21 45.75 0 82.83 38.76 82.83 86.58 0 23.59-9.02 44.97-23.65 60.59-6.37 6.8-3.01 17.94 6.07 20.04l9.57 2.22c14.45 3.35 24.03 16.57 23.28 30.89z" fill="#707c8a"/><g fill="#646f7e"><path d="m188.432 432.209c-1.094 19.036-18.827 31.969-36.89 27.79l-76.72-17.8c-11.07-2.57-17.97-13.63-15.4-24.7l.23-.97c2.06-8.87-2.01-17.92-9.85-22.53-25.24-14.84-42.29-43.1-42.29-75.53 0-45.77 33.96-83.23 76.98-86.37-14.13 67.04-2.61 148.37 103.94 200.11z"/><path d="m204.158 275.746 5.355 21.837c8.019 32.7 27.431 61.344 54.832 80.909l18.298 13.065c10.58 7.554 24.911 7.644 35.86.223 18.069-12.246 18.713-38.374 1.253-50.841-27.401-19.565-46.813-48.209-54.832-80.909-5.11-20.837-29.618-29.92-47.687-17.674-10.948 7.42-16.176 20.764-13.079 33.39z"/><path d="m173.159 117.265c0 36.499 30.338 66.086 67.765 66.086s67.765-29.587 67.765-66.086-30.338-66.086-67.765-66.086-67.765 29.587-67.765 66.086z"/></g><path d="m203.256 117.261c0 19.85 16.9 35.99 37.67 35.99s37.66-16.14 37.66-35.99c0-19.84-16.89-35.98-37.66-35.98s-37.67 16.139-37.67 35.98z" fill="#f5c9d3"/><path d="m436.688 51.179c-37.426 0-67.765 29.587-67.765 66.086s30.338 66.086 67.765 66.086 67.765-29.587 67.765-66.086-30.339-66.086-67.765-66.086z" fill="#707c8a"/><path d="m474.356 117.261c0 19.85-16.9 35.99-37.67 35.99s-37.66-16.14-37.66-35.99c0-19.84 16.89-35.98 37.66-35.98s37.67 16.139 37.67 35.98z" fill="#f5c9d3"/><path d="m451.742 179.179c0 37-17.79 69.85-45.3 90.44h-81.76c-175.93-71.17-28-194.62-26.54-195.83.01-.01.01-.01.01-.01 12.61-4.87 26.32-7.54 40.65-7.54 62.38 0 112.94 50.56 112.94 112.94z" fill="#8894a2"/><path d="m324.682 269.619h-53.52c-71.017-53.154-55.767-163.904 26.99-195.84-23.87 35.63-73.7 131.37 26.53 195.84z" fill="#707c8a"/><path d="m406.442 269.619c-12.65 9.48-27.37 16.37-43.35 19.87-90.39-.73-83.4-63.89-83.4-63.89 12.15-23.77 32.82-31.36 32.82-31.36h52.58s44.11 16.19 41.35 75.38z" fill="#fbebcf"/><path d="m363.092 289.489c-30.641 6.778-64.549.655-91.93-19.87-.87-18.67 2.92-33.06 8.53-44.02 14.33 23.52 40.22 45.81 83.4 63.89z" fill="#f8e0b8"/><path d="m316.217 186.709h45.176v-45.177c0-12.475-10.113-22.588-22.588-22.588-12.475 0-22.588 10.113-22.588 22.588z" fill="#707c8a"/><path d="m308.445 186.516c.009-18.509 13.419-20.242 29.96-20.233 16.54.008 29.949 1.754 29.939 20.263-.009 18.509-13.426 33.506-29.966 33.498-16.541-.008-29.942-15.019-29.933-33.528z" fill="#4e5660"/></g><g><path d="m470.086 51.307c-3.726-1.809-8.213-.251-10.021 3.476-1.807 3.727-.251 8.214 3.476 10.021 46.741 22.669 43.504 88.163-4.54 106.877-.324-5.245-.998-10.453-1.997-15.585 15.096-7.297 24.839-22.172 24.839-38.835 0-35.721-42.32-55.878-71.76-35.133-4.308-3.171-8.813-6.046-13.49-8.608 10.966-9.517 25.126-14.838 40.09-14.838 4.142 0 7.5-3.357 7.5-7.5s-3.358-7.5-7.5-7.5c-20.869 0-40.507 8.339-54.711 23.048-27.65-10.66-58.707-10.662-86.357-.001-45.411-47.051-127.207-17.529-129.885 47.542-23.849 7.432-44.945 17.587-65.955 31.1-8.22 5.52-.309 17.797 8.114 12.615 20.308-13.059 39.165-21.838 58.852-28.295 4.978 28.302 25.811 49.958 51.919 57.878 1.016 14.632 4.698 28.95 10.829 42.203-22.903 3.323-38.042 25.67-32.625 47.76 6.714 27.377 11.251 52.589 35.821 81.827-23.54 9.917-48.015 16.014-71.857 17.943 65.866-87.931-42.599-202.264-128.511-130.887 8.859-23.719 25.47-47.257 48.11-67.5 3.088-2.761 3.353-7.502.592-10.59-2.761-3.089-7.502-3.353-10.59-.592-34.857 31.168-56.627 70.003-59.945 106.79-12.713 24.959-14.066 54.91-2.951 81.478v49.232c0 28.948 23.551 52.5 52.5 52.5h48.549c44.253 10.267 44.031 10.559 49.83 10.559 9.764 0 19.065-3.844 26.052-10.559h68.959c32.559 0 63.228-14.299 84.145-39.229l7.054-8.406 119.982-29.949c16.792-4.066 22.932-24.743 11.081-37.315l-17.936-19.014c-5.527-5.872-13.83-8.341-21.723-6.425l-17.236 4.315 30.747-36.642c2.663-3.174 2.249-7.904-.924-10.566-3.174-2.665-7.905-2.25-10.566.924l-111.97 133.433c-18.06 21.524-44.542 33.87-72.654 33.87h-59.452c7.123-21.149-5.572-43.715-27.13-48.717l-6.883-1.597c27.799-1.992 56.398-9.31 83.613-21.438 9.809 9.405 16.382 13.597 34.705 26.68 13.084 9.343 30.937 9.469 44.426.328 22.027-14.926 23.458-47.407 1.404-63.153-3.953-2.823-7.73-5.851-11.323-9.062 8.911-8.25 16.966-17.018 24.04-26.177 26.866.457 52.605-7.855 74.104-23.971.047-.035.092-.072.139-.107.005-.004.011-.008.016-.012 28.245-21.211 45.467-53.011 47.852-87.939 14.737-4.472 28.268-13.5 38.008-26.229v4.715c0 25.265-8.944 49.84-25.186 69.198l-10.691 12.741c-2.662 3.174-2.249 7.904.925 10.566 3.156 2.653 7.893 2.26 10.566-.924l10.691-12.742c18.504-22.056 28.694-50.055 28.694-78.84 0-33.671.199-34.271-.594-39.633 3.948-30.596-11.845-60.844-41.261-75.109zm-30.472 280.65c2.61-.636 5.373.188 7.217 2.147l17.939 19.018c3.934 4.173 1.948 11.079-3.749 12.459l-99.99 24.958 41.332-49.256zm27.229-214.697c0 9.834-5.317 18.731-13.766 23.893-6.151-18.438-16.831-35.337-30.896-48.861 19.857-10.341 44.662 3.239 44.662 24.968zm-286.19 0c0-50.796 61.989-77.047 100.344-43.743-4.68 2.563-9.186 5.439-13.493 8.61-29.459-20.758-71.76-.569-71.76 35.133 0 16.663 9.743 31.538 24.839 38.835-.999 5.134-1.672 10.341-1.997 15.584-21.905-8.531-37.933-29.302-37.933-54.419zm43.855 23.893c-32.306-20.949-2.389-65.674 30.898-48.86-14.069 13.527-24.749 30.426-30.898 48.86zm-201.975 264.077v-24.617c6.602 7.83 14.491 14.577 23.458 19.848 4.905 2.884 7.77 8.235 6.12 15.342-2.353 10.143 1.145 20.297 8.272 26.928-21.671-.001-37.85-17.333-37.85-37.501zm157.838 30.539c-2.812 12.12-14.911 19.76-27.144 16.921l-76.719-17.799c-6.431-1.493-11.626-7.756-9.56-16.673 2.79-12.021-2.579-24.354-13.357-30.689-66.607-39.294-41.193-147.449 36.736-148.145 67.303 0 99.959 85.166 53.7 134.542-10.324 11.021-4.86 29.066 9.851 32.479l9.573 2.221c12.149 2.817 19.739 14.994 16.92 27.143zm144.581-69.809c-.237 19.346-22.523 30.513-37.96 19.491l-18.298-13.065c-25.895-18.49-44.329-45.69-51.906-76.592l-5.355-21.837c-4.587-18.703 14.411-34.866 32.168-28.036 12.432 4.784 13.693 15.239 15.712 22.146 9.517 32.571 29.745 60.171 56.077 78.973 6.169 4.406 9.655 11.302 9.562 18.92zm-19.232-159.349c14.466 28.17 51.499 27.744 65.557-.452 11.249 7.704 28.206 25.075 27.76 59.542-36.109 25.241-84.368 25.231-120.488.006-.425-33.825 16.124-51.256 27.171-59.096zm10.216-20.093c.004-7.093 1.836-8.518 4.477-10.304 4.392-2.36 12.973-2.433 17.979-2.433 6.144.003 14.158-.066 18.893 3.047 5.238 3.918 5.117 18.973-3.323 28.409-14.408 16.106-38.037 3.879-38.026-18.719zm37.947-26.629c-8.142-1.58-23.018-1.406-30.17-.15v-18.209c.743-20.009 29.42-19.972 30.17 0zm-71.742 125.591c11.461 6.128 23.82 10.333 36.672 12.477-5.104 5.946-10.662 11.696-16.641 17.201-7.982-8.943-14.719-18.93-20.031-29.678zm131.388-31.907c-3.622-37.157-25.677-55.203-37.936-62.438.884-8.701-.43-17.85-6.71-24.051v-25.555c-1.507-39.859-58.704-39.867-60.17 0v24.775c-7.04 6.254-8.533 15.953-7.483 25.311-10.916 6.682-29.733 22.288-35.766 52.521-4.507-5.868-10.79-10.405-18.363-12.874-13.623-23.955-17.09-52.052-10.545-77.944 7.703-30.63 29.539-57.463 60.029-70.781 59.678-26.169 128.654 7.989 144.447 70.791 8.68 34.335-.17 72.906-27.503 100.245z"/><path d="m381.349 171.073c-.002 4.143 3.354 7.502 7.496 7.504 4.143 0 7.502-3.353 7.504-7.496.004-7.709 8.614-8.253 12.083-5.192 1.349 1.191 2.004 2.892 2.003 5.199-.002 4.143 3.354 7.502 7.496 7.504 4.143 0 7.502-3.353 7.504-7.496.014-29.074-44.071-29.381-44.086-.023z"/><path d="m251.352 171.008c-.002 4.143 3.354 7.502 7.497 7.504 4.143 0 7.501-3.353 7.503-7.496.003-7.585 8.522-8.336 12.082-5.192 1.349 1.191 2.004 2.893 2.003 5.199-.002 4.143 3.354 7.502 7.497 7.504 4.142.002 7.502-3.354 7.503-7.496.015-29.088-44.072-29.11-44.085-.023z"/></g></svg>