<svg id="Layer_1" enable-background="new 0 0 511.895 511.895" height="512" viewBox="0 0 511.895 511.895" width="512" xmlns="http://www.w3.org/2000/svg"><g><path d="m428.767 187.783c0 36.922 2.051 62.76-15.51 98.39-19.4 39.46-55.61 69.69-100.58 80.48l-24.92 5.99c-23.893 5.783-47.23-12.35-47.23-37.24v-71.9h61.19c27.6 0 50.15-21.61 51.66-48.84.06-.96.09-1.94.09-2.92v-23.96z" fill="#e2b844"/><path d="m504.057 154.323c0 27.87-31.42 51.57-75.29 60.36-11.78 2.36-24.45 3.64-37.65 3.64-4.61 0-9.15-.16-13.62-.46-151.1-75.99 12.71-210.33 12.71-210.33 4.68-.28 9.48 1.61 12.7 5.68 1.62 2.05 4.3 3.04 6.81 2.35 9.516-2.621 19.05 4.543 19.05 14.53 0 7.57 4.35 14.5 11.22 17.69 20.58 9.59 33.95 25.07 33.95 42.54v.75c-.25 11.16 4.54 21.74 12.83 29.21 10.96 9.86 17.29 21.53 17.29 34.04z" fill="#f2d98d"/><path d="m377.497 217.863c-3.79-.26-7.52-.62-11.18-1.09-4.42-.56-8.74-1.26-12.94-2.11-43.81-8.8-75.2-32.49-75.2-60.34 0-12.51 6.34-24.18 17.29-34.04 8.3-7.47 13.08-18.05 12.84-29.21-.01-.25-.01-.5-.01-.75 0-17.47 13.37-32.95 33.95-42.54 6.87-3.19 11.22-10.12 11.22-17.69 0-9.61 8.85-16.67 18.09-14.76.32.07.64.14.96.23 2.51.69 5.19-.3 6.81-2.35 2.81-3.54 6.8-5.44 10.88-5.68-18.39 22-110.43 140.99-12.71 210.33z" fill="#ebca5f"/><path d="m391.118 188.208c-8.186 0-15.546-8.306-18.586-20.973l-4.002-16.674h45.176l-4.002 16.674c-3.04 12.667-10.401 20.973-18.586 20.973z" fill="#707c8a"/><path d="m418.765 158.09h-55.294c-2.762 0-5-2.239-5-5 0-13.872 11.245-25.118 25.118-25.118h15.059c13.872 0 25.118 11.246 25.118 25.118-.001 2.762-2.24 5-5.001 5z" fill="#8894a2"/><path d="m214.82 462.996-14.908-104.352-44.722 6.389 15.989 111.923c2.343 16.402 17.539 27.799 33.941 25.456l22.478-3.211c8.233-1.176 13.954-8.804 12.778-17.037-1.176-8.233-8.804-13.954-17.037-12.778-4.117.588-7.93-2.273-8.519-6.39z" fill="#707c8a"/><path d="m182.876 411.945c-24.7 3.529-47.583-13.634-51.111-38.333l-6.389-44.722 89.445-12.778 6.389 44.723c3.528 24.698-13.635 47.581-38.334 51.11z" fill="#ebca5f"/><path d="m119.251 465.643 25.453-102.293-43.839-10.908-27.3 109.714c-4.001 16.078 5.79 32.355 21.868 36.356l22.034 5.483c8.071 2.008 16.241-2.906 18.249-10.977 2.008-8.071-2.906-16.241-10.977-18.249-4.035-1.005-6.493-5.091-5.488-9.126z" fill="#8894a2"/><path d="m113.694 407.267c-24.212-6.025-38.956-30.536-32.931-54.748l10.909-43.84 87.679 21.817-10.909 43.84c-6.025 24.211-30.536 38.955-54.748 32.931z" fill="#f2d98d"/><path d="m300.767 297.103v46.47c0 28.304-33.519 43.364-54.7 24.59-3.77-3.35-9.46-3.35-13.23 0-8.546 7.589-20.128 9.987-30.55 7.1-4.92-1.35-9.37-3.81-13.08-7.1-3.77-3.35-9.46-3.35-13.23 0-.1.09-.21.18-.32.27-1.8-.56-3.58-1.13-5.33-1.7-2.74-.89-5.41-1.8-8.01-2.72-12.84-4.5-24.11-9.26-33.95-14.23-64.004-32.183-75.612-77.602-38.29-131.34 17.706-25.428 47.448-52.627 69.74-67.77h.01c24.15.91 46.8 7.67 66.59 18.9 35.01 19.86 61.03 53.7 70.48 93.93 2.26 9.65 3.57 19.66 3.82 29.94.03 1.21.05 2.44.05 3.66z" fill="#8894a2"/><path d="m175.654 368.434c-12.451 10.786-30.992 10.668-43.31-.27-3.77-3.35-9.46-3.35-13.23 0-5.81 5.15-13.44 8.28-21.82 8.28-8.43 0-16.12-3.18-21.94-8.39-3.74-3.36-9.37-3.2-13.13.13-5.91 5.23-13.71 8.37-22.25 8.26-18.09-.25-32.42-15.44-32.42-33.53v-45.81c0-80.93 65.64-146.54 146.6-146.54 1.89 0 3.78.04 5.66.11-35.16 45.33-95.62 148.64 15.84 217.76z" fill="#707c8a"/></g><g><path d="m491.784 114.703c-7.455-6.711-10.344-14.818-10.344-24.379 0-19.728-14.314-38.172-38.291-49.339-4.183-1.948-6.886-6.225-6.886-10.896 0-14.501-13.594-25.338-27.809-21.942-9.012-10.863-25.663-10.863-34.676 0-14.08-3.382-27.81 7.279-27.81 21.942 0 4.671-2.703 8.948-6.886 10.896-20.897 9.733-38.802 27.539-38.28 50.256.194 8.812-3.58 17.364-10.354 23.462-39.047 35.146-19.801 87.838 54.645 105.811-4.014 20.031-21.509 35.016-42.419 35.465-27.781-100.131-144.694-144.038-231.274-88.843-3.493 2.227-4.519 6.863-2.292 10.356 2.226 3.493 6.864 4.52 10.356 2.292 91.625-58.412 213.798 7.204 213.798 117.37.002 1.284.002 46.417.002 46.417 0 22.333-26.308 33.105-42.217 18.979-6.61-5.868-16.581-5.869-23.192 0-9.597 8.521-24.071 8.52-33.669 0-6.61-5.868-16.581-5.869-23.192 0-9.597 8.521-24.072 8.52-33.668 0-6.611-5.869-16.582-5.869-23.192 0-9.646 8.564-24.162 8.527-33.766-.087-6.515-5.843-16.452-5.798-23.114.104-16.606 14.713-42.198 2.31-42.198-19.657v-45.804c0-35.734 13.535-69.692 38.111-95.619 2.85-3.006 2.723-7.753-.284-10.603-3.007-2.849-7.752-2.722-10.603.284-27.231 28.727-42.227 66.35-42.227 105.94v45.804c0 35.133 41.031 54.019 67.146 30.884.956-.848 2.311-.918 3.151-.164 1.015.91 2.067 1.756 3.146 2.546 1.735 6.94 4.841 13.349 9.029 18.907l-16.241 65.258c-2.418 9.721-.907 19.802 4.256 28.386s13.36 14.644 23.082 17.062l22.027 5.479c29.281 6.199 39.605-35.601 10.881-43.817l13.339-53.606c2.499-.76 4.949-1.704 7.331-2.843 2.438 1.64 4.975 3.064 7.594 4.258l8.963 62.749c2.921 20.473 21.952 34.746 42.425 31.826l22.472-3.21c5.967-.854 11.245-3.98 14.86-8.801 11.585-15.449-.337-38.245-21.268-35.894l-8.24-57.681c6.454-6.501 11.122-14.65 13.474-23.822 3.683-1.644 7.174-3.858 10.331-6.661.934-.829 2.343-.829 3.275 0 11.25 9.988 26.983 13.111 41.68 7.265 4.223-.327 6.043-.94 31.656-7.087 26.091-6.262 50.329-19.119 70.093-37.181 3.058-2.794 3.271-7.538.477-10.596s-7.538-3.271-10.596-.477c-22.307 20.387-44.195 29.016-69.992 35.235 5.12-10.835 3.858-15.168 3.856-63.301 0-.177-.004-.35-.012-.52h.012c0-8.957-.777-17.734-2.252-26.276 26.674-1.918 48.641-21.527 53.801-47.416 20.141 3.146 41.214 3.209 61.375.195-.793 27.576-9.372 54.093-24.966 76.931-2.335 3.421-1.455 8.087 1.965 10.423 3.379 2.318 8.072 1.481 10.424-1.965 17.842-26.132 27.37-56.624 27.631-88.26 54.072-11.245 104.963-58.909 55.546-106.035zm-307.557 259.065c7.443 6.608 16.729 9.986 26.062 10.155-8.897 18.139-31.059 26.037-49.419 17.606 6.518-6.294 11.416-14.304 14.266-23.465 2.032-1.238 3.982-2.666 5.817-4.295.931-.829 2.34-.829 3.274-.001zm-60.136 0c.934-.828 2.341-.828 3.275 0 8.16 7.245 18.536 10.616 28.76 10.12-8.943 14.084-25.589 19.836-40.624 16.096-9.499-2.361-17.511-8.313-22.619-16.283 10.993 1.206 22.381-2.095 31.208-9.933zm4.345 117.432c-1.009 4.053-5.104 6.525-9.162 5.514l-22.03-5.48c-12.04-2.995-19.398-15.229-16.403-27.27l14.18-56.974c8.484 5.773 18.397 8.934 28.832 9.109-12.747 51.225-12.33 48.766-12.33 51.374 0 6.909 4.688 12.9 11.396 14.567 3.974.991 6.544 4.982 5.517 9.16zm78.961-27.16c1.116 7.911 8.488 13.943 16.97 12.771 6.77-.941 11.131 6.705 7.149 12.016-2.51 3.347-3.484 2.737-27.451 6.161-12.282 1.751-23.704-6.813-25.456-19.096l-8.039-56.282c10.04 1.116 20.205-.667 29.704-5.431zm183.72-253.216c-77.205 0-133.685-46.214-90.632-84.973 9.933-8.942 15.308-20.767 15.308-35.527 0-13.741 11.074-27.103 29.623-35.742 9.448-4.4 15.554-14.015 15.554-24.494 0-5.002 4.779-8.602 9.562-7.292 5.374 1.476 11.136-.459 14.673-4.928 3.028-3.824 8.795-3.825 11.822 0 3.537 4.469 9.299 6.403 14.673 4.929 4.803-1.319 9.563 2.31 9.563 7.291 0 10.479 6.105 20.093 15.553 24.494 15.074 7.02 30.015 19.881 29.617 36.327-.291 13.183 5.291 25.919 15.315 34.942 43.271 38.957-13.849 84.973-90.631 84.973z"/><path d="m398.647 120.472h-15.059c-29.639-1.124-45.967 43.878-19.161 45.118l.813 3.394c8.534 35.57 43.222 35.568 51.757-.002l.813-3.392c25.06 0 13.28-45.118-19.163-45.118zm-15.059 15h15.059c8.865 0 16.223 6.583 17.44 15.118h-49.94c1.217-8.535 8.575-15.118 17.441-15.118zm7.53 45.187c-3.796 0-8.741-4.664-11.264-15.069h22.528c-2.524 10.406-7.469 15.069-11.264 15.069z"/><path d="m328.668 120.472c-4.143 0-7.5 3.358-7.5 7.5v12c.344 9.931 14.659 9.923 15 0v-12c0-4.142-3.357-7.5-7.5-7.5z"/><path d="m453.566 120.472c-4.143 0-7.5 3.358-7.5 7.5v12c.344 9.931 14.659 9.923 15 0v-12c0-4.142-3.358-7.5-7.5-7.5z"/><path d="m50.421 301.415c-4.011 1.034-6.424 5.124-5.389 9.135 6.408 26.541 40.243 37.239 60.754 19.277 1.153-.979 2.894-.979 4.042-.004 21.112 17.936 53.85 7.552 60.768-19.273 1.035-4.011-1.378-8.101-5.389-9.135-4.013-1.034-8.102 1.378-9.135 5.389-4.176 16.188-23.91 22.311-36.537 11.583-6.794-5.763-16.658-5.763-23.457.004-12.641 10.738-32.353 4.576-36.522-11.587-1.034-4.01-5.127-6.423-9.135-5.389z"/><path d="m186.431 265.686c-12.64 10.738-32.353 4.577-36.522-11.587-1.034-4.011-5.127-6.425-9.135-5.389-4.011 1.034-6.424 5.125-5.389 9.135 6.918 26.826 39.64 37.214 60.754 19.277 1.154-.979 2.894-.979 4.043-.004 21.055 17.89 53.833 7.618 60.769-19.272 1.034-4.011-1.379-8.101-5.39-9.135-4.013-1.036-8.102 1.378-9.135 5.389-4.157 16.117-23.853 22.359-36.537 11.583-6.796-5.762-16.659-5.763-23.458.003z"/><path d="m203.807 196.004c-4.014-1.034-8.101 1.378-9.135 5.389-4.176 16.192-23.914 22.309-36.537 11.583-6.794-5.762-16.656-5.762-23.457.004-12.64 10.738-32.353 4.575-36.521-11.587-1.034-4.011-5.128-6.424-9.135-5.389-4.011 1.034-6.424 5.124-5.389 9.135 3.25 12.604 12.609 22.481 25.036 26.422 12.45 3.949 25.805 1.276 35.717-7.145 1.154-.979 2.895-.979 4.043-.004 9.939 8.443 23.3 11.09 35.731 7.148 12.427-3.941 21.787-13.818 25.037-26.421 1.034-4.011-1.379-8.101-5.39-9.135z"/></g></svg>