<svg id="Layer_1" enable-background="new 0 0 512.207 512.207" height="512" viewBox="0 0 512.207 512.207" width="512" xmlns="http://www.w3.org/2000/svg"><g><path d="m26.828 453.119 120.01-38.54v55.36l-103.9 33.37c-13.86 4.45-28.7-3.18-33.15-17.04-4.465-13.916 3.236-28.717 17.04-33.15z" fill="#cb8a5a"/><path d="m485.378 361.219-254.63 81.77v-55.35l238.52-76.6c13.86-4.45 28.7 3.17 33.15 17.03 4.46 13.892-3.207 28.709-17.04 33.15z" fill="#daa985"/><path d="m441.188 110.816s-3.262 32.347-64.422 32.347l-26.289-20.094 26.289-18.84 34.07-12.558z" fill="#6171a3"/><path d="m371.125 47.064s79.398-17.885 84.242 59.613c.227 3.649-4.062 6.405-8.426 5.399-12.824-2.957-38.77-7.847-70.176-7.847l-26.289-24.45z" fill="#6e7ca8"/><path d="m398.148 81.209-81.18 124.53s41 31.63 60.6 31.63c5.79 58.17-67.86 92.3-101.271 122.78-1.683.847-3.897 1.984-5.55 2.89-186.06-215.9 25.86-354.42 25.86-354.42 5.809-.65 11.93-.99 18.38-.99 51.97 0 72.32 19.58 80.72 41.08 4.601 11.79 3.902 22.75 2.441 32.5z" fill="#e2796e"/><path d="m271.678 362.539c-6.15 3.24-12.16 6.72-18.06 10.27l-113.97-15.8-59.68-48.05c.04-.23.09-.45.14-.67 12.159-57.76 45.583-111.812 97.68-137.32 7.3-3.57 12.03-10.77 12.1-18.62v-.17c.12-35.96 9.56-132.76 106.72-143.56-57.91 62.47-135.97 189.93-24.93 353.92z" fill="#de695c"/><path d="m146.838 319.809v82.86l-54.44 7.12-26.95-28.84 14.52-71.99c13.094-2.068 13.958-11.51 28.84-11.51 8.21 0 16.33 3.95 21.68 11.46 4.18 5.87 10.06 9.57 16.35 10.9z" fill="#99ce64"/><path d="m146.838 393.509v20.75c-7.1 2.03-13.96 3.46-20.479 4.23-22.17 11.25-45.961 19.77-70.42 22.61-9.68 1.13-16.42-9.48-11.35-17.85 7.77-12.814 13.188-15.426 20.86-42.3 3.863 3.424 7.643 2.51 10.48 2.51 16.494 0 17.489-11.74 33.97-11.74 8.57 0 17.06 3.99 22.66 11.54 3.749 5.06 8.789 8.52 14.279 10.25z" fill="#ebca5f"/><path d="m395.653 128.104c-10.759 35.238-42.37 56.66-42.37 56.66 5.96 7.559 10.7 14.79 14.37 21.73l-2.78 4.43s-104.75-21.97-104.75-92.65c0-74.155 83.483-89.108 123.67-57.067 12.653 10.088 18.904 26.156 16.808 42.202-1.116 8.546-2.709 17.362-4.948 24.695z" fill="#fef5e6"/><path d="m230.748 251.679-16.67 37.63-6.02 13.57-34.34 10.14-39.4-36.52c.19-.63.39-1.26.59-1.88 3.89-12.15 8.78-23.84 14.17-34.74 3.27-6.6 9.65-10.97 16.92-12.18 1.242-.195 7.403-1.567 8.63-1.84 8.3-1.86 16.98 1.24 22.14 7.92 1.45 1.9 2.93 3.8 4.41 5.67 7.08 9 18.37 13.53 29.57 12.23z" fill="#99ce64"/><path d="m214.078 289.309-6.02 13.57-32.39 73.1-7.97 5.2-43.5-35.74c.87-5.59 1.34-11.28 1.4-16.99.19-17.6 3.5-35.2 8.72-51.95 9.15 5.95 21.41 5.86 30.6-1.12 6.9-5.23 15.52-6.59 23.25-4.44 5.42 1.5 10.4 4.72 14.06 9.54 3.15 4.16 7.301 7.13 11.85 8.83z" fill="#ebca5f"/><path d="m262.454 395.714c-29.37 9.83-58.61 15.29-84.01 7.28-6.55 29.4-17.97 68.4-49.93 88.68-20.44 12.98-46.59 15.43-67.69 10.62-13.38-3.05-19.46-15.31-12.62-24.88 58.459-81.825 71.396-102.372 75.99-131.97 6.7.75 13.68-.92 19.46-5.2 11.882-8.814 28.99-6.59 38.18 5.23 5.838 7.493 15.115 11.367 24.57 10.46 11.619-5.148 17.687-7.884 24.77-11.42 18.35 12.52 30.26 30.75 31.28 51.2z" fill="#de695c"/><path d="m368.138 333.309-91.35 36.6c-107.14-36.03-59.42-135.68-58.7-137.16.01-.01.01-.02.01-.02 65.57-70.742 161.079-72.874 176.57 16.51 5.009 28.832-9.823 60.158-26.53 84.07z" fill="#de695c"/><path d="m276.788 369.909-16.66 6.67-100.95-23.31c8.707-44.517 28.088-87.269 58.92-120.54 6.181 42.02 23.9 88 58.69 137.18z" fill="#d95749"/><path d="m368.138 333.309c-18.324 26.437-41.978 49.195-66.93 69.12-51.34-12.25-50.74-74.89-50.74-74.89 8.499-3.616 18.656-2.636 26.5 3.32 11.698 8.9 28.402 6.62 37.3-5.08 5.24-6.88 13.17-10.5 21.2-10.5 11.293 0 16.092 5.423 32.67 18.03z" fill="#b0da87"/><path d="m301.638 402.069c-.14.12-.28.24-.43.36l-107.91 41.62-49.26-9.38c4.3-9.47 7.73-20.07 9.58-31.789.555-16.385 2.31-33.011 5.56-49.62l5.61-7.37c8.756-11.51 25.433-14.214 37.57-4.88 11.7 8.9 28.4 6.63 37.3-5.07 2.92-3.84 6.67-6.66 10.81-8.4 12.83 23.989 29.65 48.869 51.17 74.529z" fill="#99ce64"/><path d="m355.61 114.118c0 30.475-57.839 30.475-57.839 0s57.839-30.475 57.839 0z" fill="#e79ea8"/><path d="m301.204 402.434c-45.416 37.356-112.229 77.285-170.7 86.91-10.69 1.76-17.69-10.46-10.52-18.38 8.28-9.14 17.25-21.27 24.04-36.27l.01-.02 15.86-20.35c8.832-11.334 25.705-14.434 38.46-5 11.95 8.872 29.042 6.551 38.19-5.19 5.4-6.93 13.58-10.59 21.83-10.59 5.71 0 11.47 1.76 16.36 5.39 7.719 5.73 17.743 6.86 26.47 3.5z" fill="#ebca5f"/></g><g><path d="m509.526 325.647c-5.721-17.819-24.766-27.609-42.585-21.888l-89.153 28.634c46.716-70.238 18.852-126.397-13.342-147 8.009-6.747 20.656-19.049 30.021-35.851 34.855-4.103 47.348-20.2 51.771-30.12 9.353 1.528 17.089-5.307 16.583-13.35-2.619-41.953-26.702-64.825-63.78-68.026-13.686-25.253-41.917-38.046-84.086-38.046-48.249 0-88.491 18.45-111.992 61.917-17.775 32.881-20.542 70.568-20.608 90.133v.093c-.044 4.941-3.143 9.636-7.897 11.962-15.819 7.745-30.6 18.395-43.934 31.651-6.862 7.191 3.402 17.423 10.576 10.637 12.168-12.098 25.61-21.794 39.95-28.815 9.961-4.872 16.208-14.566 16.305-25.367v-.135c-.646-66.094 30.966-139.13 117.602-137.074 14.728-.002 59.552-.002 73.732 36.306.757 1.939 1.347 3.854 1.797 5.743-41.919-38.178-137.891-21.602-137.891 61.089 0 23.185 10.448 44.268 30.389 61.664-27.238 9.427-54.256 28.46-76.361 54.376-1.147-1.416-2.507-3.217-3.952-5.114-13.278-17.19-32.952-9.706-37.937-8.894-9.799 1.631-18.177 7.705-22.411 16.254-9.865 19.947-16.524 39.501-20.132 56.197-9.468-4.156-21.379-4.045-31.176 2.415 6.362-22.883 15.792-43.704 28.061-61.897 2.315-3.435 1.408-8.096-2.025-10.412-3.435-2.315-8.095-1.408-10.412 2.025-24.22 35.918-36.973 81.1-39.187 118.267-.665 11.202-8.048 31.477-9.252 35.743-7.222 25.465-12.328 27.719-20.048 40.468-4.075 6.72-3.793 15.288 1.246 21.834l-14.895 4.785c-42.64 13.691-21.931 78.152 20.708 64.461l8.317-2.673c17.408 7.526 55.817 6.792 81.875-11.683 16.726-3.123 35.387-9.039 55.542-17.617 3.812-1.623 5.586-6.027 3.964-9.839-1.623-3.812-6.028-5.586-9.839-3.964-20.556 8.75-39.334 14.562-55.812 17.274-3.612.59-6.2-3.231-3.744-5.945 10.373-11.45 18.711-24.021 24.841-37.272l15.427-19.792c6.75-8.664 19.088-10.235 28.073-3.589 15.171 11.264 36.963 8.303 48.575-6.602 6.649-8.532 19.121-10.232 27.805-3.787 2.879 2.138 6.019 3.775 9.303 4.923-20.298 15.013-42.211 28.833-64.521 40.536-3.668 1.924-5.081 6.457-3.157 10.126 1.925 3.669 6.458 5.08 10.126 3.157 12.951-6.793 25.775-14.29 38.253-22.308l125.797-40.4c3.944-1.267 6.114-5.49 4.848-9.434s-5.493-6.116-9.434-4.848l-80.875 25.974c22.219-17.495 43.885-37.598 61.827-59.457l109.127-35.05c9.923-3.185 20.531 2.268 23.716 12.19 3.176 9.896-2.289 20.531-12.182 23.708l-70.715 22.711c-3.944 1.267-6.114 5.49-4.848 9.434 1.257 3.98 5.597 6.112 9.434 4.848l70.715-22.711c17.764-5.705 27.579-24.803 21.877-42.575zm-107.702-192.491c2.224-6.486 3.708-13.324 4.859-20.083 8.178.795 16.343 1.912 24.265 3.306-3.522 5.496-11.463 13.002-29.124 16.777zm45.831-28.739c-12.405-2.801-25.807-4.924-39.206-6.24.108-6.039-.795-12.065-2.65-17.777 1.076-7.828 1.599-16.755-.634-26.419 27.044 4.995 40.088 23.256 42.49 50.436zm-180.06 13.723c0-89.93 133.827-79.412 125.543-15.844-2.692 20.576-8.487 50.034-43.621 75.78-15.546-5.617-32.208-6.106-48.46-3.09-22.204-15.906-33.462-35.018-33.462-56.846zm33.006 72.224c.308-.051.612-.115.912-.204 68.454-14.229 115.454 54.996 64.917 132.321l-10.359-7.877c-14.972-11.367-36.416-8.451-47.805 6.504-6.368 8.374-18.344 10.078-26.795 3.646-14.983-11.376-36.433-8.453-47.815 6.514-6.411 8.428-18.412 10.013-26.754 3.668-10.376-7.988-23.563-9.15-34.615-4.34 23.158-79.678 78.471-129.402 128.314-140.232zm-168.047 146.915c1.085-14.748.395-27.991 6.508-50.537 10.412 3.083 21.707 1.052 30.354-5.516 2.39-1.812 5.124-3 7.974-3.547-7.448 14.21-14.336 30.687-19.762 49.579-12.827.679-18.604 8.266-25.074 10.021zm23.212-94.2c2.099-4.236 6.372-7.269 11.362-8.1 6.482-1.009 16.607-5.89 23.645 3.222 2.165 2.84 4.213 5.582 6.351 7.935-3.715 5.016-7.479 10.536-11.194 16.556-8.975-1.32-18.194.986-25.58 6.586-4.883 3.709-11.175 4.769-16.877 3.125 3.329-9.695 7.454-19.539 12.293-29.324zm-46.981 61.731c3.872 0 7.59 1.23 10.761 3.491-2.72 22.547.148 33.593-7.888 55.833-20.561-1.048-21.608 12.754-37.045 12.754 12.598-40.178 3.989-21.804 11.729-61.917 10.971-3.633 12.176-10.161 22.443-10.161zm-38.827 86.782c19.012 2.996 27.448-9.279 34.339-11.665-8.656 15.57-22.47 36.101-32.511 50.708-5.66 1.268-11.283 2.25-16.745 2.885-2.32.268-3.563-1.257-3.992-1.924-3.85-5.997 9.16-10.628 18.909-40.004zm-40.869 68.539 28.572-9.178c-3.078 4.369-6.533 9.253-10.224 14.443-5.457 7.664-12.891 15.589-8.175 28.004.348.916.761 1.803 1.224 2.665-23.71 7.422-35.053-28.34-11.397-35.934zm85.307 5.664c-6.522 7.203-6.371 17.578-.181 24.673-16.362 6.89-35.511 8.084-51.753 4.38-6.683-1.524-11.895-6.947-8.618-12.533 3.459-5.854 59.043-79.872 70.892-110.328 2.781-7.073 4.565-13.312 5.744-19.083 12.156-.966 17.128-7.598 23.054-9.6-3.983 17.673-6.67 37.201-7.429 58.72-3.716 22.924-14.673 44.965-31.709 63.771zm183.435-70.268c-6.382 2.221-13.307 1.22-18.655-2.75-15.17-11.259-36.96-8.294-48.577 6.612-6.646 8.531-19.118 10.226-27.813 3.771-12.812-9.478-29.576-9.255-41.689-.482.582-16.7 2.369-32.137 5.05-46.362 4.997-6.566 8.225-12.196 17.29-13.402 5.08-.674 10.164.713 14.35 3.936 15.008 11.415 36.394 8.507 47.81-6.5 6.381-8.389 18.405-10.026 26.799-3.651 15.004 11.416 36.396 8.502 47.809-6.505 6.381-8.381 18.403-10.016 26.793-3.645l10.79 8.205c-16.88 22.377-38.331 43.116-59.957 60.773z"/><path d="m329.751 96.422c4.143 0 7.5-3.357 7.5-7.5 0-5.715 4.795-6.159 6.265-6.159 1.471 0 6.266.444 6.266 6.159.338 9.924 14.66 9.929 15 0-.355-28.074-42.176-28.074-42.53 0-.001 4.142 3.357 7.5 7.499 7.5z"/></g></svg>