<svg id="Layer_1" enable-background="new 0 0 512.153 512.153" height="512" viewBox="0 0 512.153 512.153" width="512" xmlns="http://www.w3.org/2000/svg"><g><path d="m375.182 180.834s137.575 49.506 88.843 227.125c-3.362 12.253-18.017 17.736-28.873 10.726-19.628-12.674-45.735-29.622-45.735-29.622z" fill="#6171a0"/><path d="m137.056 180.834s-137.575 49.506-88.843 227.125c3.362 12.253 18.017 17.736 28.873 10.726 19.628-12.674 45.735-29.622 45.735-29.622z" fill="#54669b"/><path d="m429.298 354.01c0 33.92-6.58 65.98-18.27 94.37-12.2 29.6-39.07 50.08-70.07 55.05l-81.6-17.36-10.93 2.76c-250.55-132.01-66.73-332.88-65.01-334.76.01-.01.01-.01.01-.01 47.22-18.45 120.78-29.09 198.11 29.26 1.16 16.53 6.31 32.7 14.9 47.13 20.67 34.71 32.86 77.4 32.86 123.56z" fill="#7c85aa"/><path d="m261.328 486.49-1.97-.42-73.38 18.53c-37.56 0-71.29-22.86-85.36-57.69-11.32-28.03-17.68-59.56-17.68-92.9 0-46.16 12.19-88.85 32.87-123.56 8.59-14.43 13.74-30.6 14.9-47.13 0 0 20.06-16.5 52.72-29.26-29.56 95.92-34.38 223.27 77.9 332.43z" fill="#6e7ca5"/><path d="m382.488 160.54c-1.19 7.58-1.49 15.22-.95 22.78-25.18 7.81-25.74 22.48-53.65 33.34-25.521 9.93-47.76 7.15-60.48 3.86-7.4-1.91-15.18-1.91-22.58 0-26.585 6.897-55.179 1.374-74.58-10.89-43.65-128.77 85.87-201.97 85.87-201.97 78.976 0 138.938 72.825 126.37 152.88z" fill="#6e7ca5"/><path d="m256.118 7.66s-67.12 88.02-85.87 201.97c-15.06-9.52-19.49-20.08-39.54-26.31 1.351-18.919-2.59-23.763-2.59-43.9 0-72.77 57.31-131.76 128-131.76z" fill="#6171a0"/><path d="m256.119 188.363c-13.643 0-25.911-8.306-30.977-20.973l-6.67-16.674h75.294l-6.67 16.674c-5.066 12.668-17.334 20.973-30.977 20.973z" fill="#ebca5f"/><path d="m291.296 158.246h-70.353c-5.523 0-10-4.477-10-10 0-15.269 12.378-27.647 27.647-27.647h35.059c15.269 0 27.647 12.378 27.647 27.647 0 5.523-4.477 10-10 10z" fill="#f2d98d"/><path d="m376.589 391.01c0 47.7-22.11 89.61-55.479 113.59h-39.86c-164.69-21.75-114.69-202.35-114.09-204.52.01-.01.01-.02.01-.02 22.02-27 53.72-43.93 88.95-43.93 66.53 0 120.469 60.39 120.469 134.88z" fill="#fef5e6"/><path d="m281.249 504.6h-66.69c-1.21 0-5.53-1.93-10.76-4.5l-13.99 3.53c-32.63-24.12-54.16-65.55-54.16-112.62 0-35.04 11.939-66.96 31.52-90.95 4.002 37.163 14.732 73.13 33.31 107.3.01.01.01.02.01.02 19.956 36.92 48.175 69.462 80.76 97.22z" fill="#fbebcf"/><path d="m210.943 504.599h-45.177c-12.475 0-22.588-10.113-22.588-22.588 0-12.475 10.113-22.588 22.588-22.588h45.177c12.475 0 22.588 10.113 22.588 22.588 0 12.475-10.113 22.588-22.588 22.588z" fill="#54669b"/><path d="m301.296 504.599h45.176c12.475 0 22.588-10.113 22.588-22.588 0-12.475-10.113-22.588-22.588-22.588h-45.176c-12.475 0-22.588 10.113-22.588 22.588-.001 12.475 10.112 22.588 22.588 22.588z" fill="#6171a0"/></g><g><path d="m477.174 291.854c-.925-4.038-4.948-6.558-8.985-5.636-4.038.925-6.561 4.948-5.636 8.985 7.454 32.538 5.53 69.825-5.717 110.826-2.018 7.357-10.962 10.674-17.569 6.409-2.524-1.635-5.161-3.34-7.835-5.068 12.305-59.296 4.083-125.975-28.509-180.706-5.579-9.366-9.365-19.061-11.768-29.428 18.415 11.058 45.56 32.539 61.918 69.368 4.342 8.964 17.451 3.053 13.709-6.089-21.23-47.796-58.988-72.051-77.928-81.695-.195-13.472 2.806-24.436 2.806-39.347 2.134-103.795-113.598-175.107-203.003-120.774-3.564 2.107-4.745 6.707-2.636 10.272 2.108 3.565 6.708 4.747 10.273 2.637 79.137-46.812 180.364 11.462 180.364 107.866 0 13.555-2.899 24.369-2.825 38.686-22.089 8.776-24.255 22.081-48.624 31.562-23.021 8.958-43.095 6.897-55.886 3.588-8.612-2.222-17.716-2.222-26.338.002-14.694 3.812-30.414 3.738-45.482-.22-34.055-8.839-33.473-24.737-59.039-34.937.119-6.301-.292-12.578-1.257-18.724-6.249-39.808 6.667-80.422 34.549-108.642 2.912-2.947 2.883-7.695-.063-10.606-2.947-2.912-7.696-2.882-10.606.063-31.215 31.594-45.682 77.019-38.697 121.511.879 5.6 1.223 11.329 1.056 17.08-78.337 38.947-112.585 131.511-82.42 231.16 4.662 16.994 24.905 24.892 40.173 15.035l3.413-2.205c9.622 34.99 23.953 63.472 59.453 80.003 5.482 5.737 13.199 9.322 21.742 9.322h180.706c8.466 0 16.121-3.52 21.594-9.167 35.283-16.203 49.694-44.074 59.612-80.153 1.147.742 2.29 1.481 3.403 2.202 15.197 9.811 35.491 2.06 40.18-15.037 11.909-43.415 13.885-83.164 5.872-118.143zm-396.286 115.52-7.827 5.059c-6.639 4.285-15.557.936-17.57-6.403-28.081-102.326 5.265-172.307 65.635-208.736-2.372 10.585-6.401 20.424-11.72 29.372-32.541 54.616-40.853 121.303-28.518 180.708zm130.095 89.779h-45.176c-19.994-.761-19.979-29.423 0-30.177h45.176c19.994.761 19.979 29.423 0 30.177zm135.53 0h-45.177c-19.994-.761-19.979-29.423 0-30.177h45.177c19.994.761 19.978 29.423 0 30.177zm57.621-51.576c-5.829 14.151-15.372 26.202-27.567 35.138-.354-7.978-3.831-15.153-9.234-20.341 64.284-122.952-62.998-268.468-179.543-189.822-3.391 2.375-4.216 7.051-1.84 10.444 2.376 3.394 7.054 4.218 10.445 1.842 103.339-69.57 214.485 61.19 157.865 170.154-2.473-.66-5.069-1.016-7.748-1.016h-45.177c-22.864-.321-37.755 25.717-26.014 45.178h-38.325c11.744-19.465-3.156-45.501-26.014-45.178h-45.176c-2.678 0-5.274.356-7.747 1.016-23.737-46.516-18.602-105.79 13.319-146.37 2.561-3.255 1.998-7.971-1.258-10.532-3.256-2.56-7.97-1.998-10.532 1.258-36.63 46.567-40.882 112.262-14.61 163.034-5.359 5.15-8.826 12.256-9.221 20.162-12.464-9.209-22.211-21.695-28.144-36.388-26.359-65.269-22.99-146.589 14.683-209.819 7.428-12.497 12.416-26.03 14.741-40.381 17.24 8.747 22.042 24.661 56.678 33.651 17.525 4.604 35.865 4.681 53.03.229 6.16-1.59 12.671-1.59 18.828-.001 21.025 5.438 43.551 4.244 65.078-4.132 25.11-9.771 29.657-22.17 44.561-29.725 2.252 13.386 7.098 27.395 14.824 40.365 36.99 62.116 41.838 143.831 14.098 211.234z"/><path d="m238.63 113.153c-34.042 0-46.846 44.956-22.466 51.957l2.051 5.121c13.686 34.2 62.2 34.202 75.885.001l2.051-5.122c24.568-7.051 11.386-51.958-22.463-51.958h-35.058zm-5.981 52.647h47.019c-9.184 20.135-37.833 20.134-47.019 0zm61.187-17.5c0 1.378-1.122 2.5-2.5 2.5h-70.353c-1.378 0-2.5-1.122-2.5-2.5 0-11.109 9.038-20.147 20.147-20.147h35.059c11.109 0 20.147 9.038 20.147 20.147z"/><path d="m193.841 76.906c-10.309 0-21.265 7.416-21.265 21.159 0 4.142 3.358 7.5 7.5 7.5s7.5-3.358 7.5-7.5c0-5.715 4.795-6.159 6.265-6.159s6.265.444 6.265 6.159c0 4.142 3.358 7.5 7.5 7.5s7.5-3.358 7.5-7.5c.001-13.744-10.956-21.159-21.265-21.159z"/><path d="m310.621 98.064c0-5.715 4.795-6.159 6.265-6.159s6.265.444 6.265 6.159c0 4.142 3.358 7.5 7.5 7.5s7.5-3.358 7.5-7.5c-.355-28.074-42.176-28.073-42.53 0 .347 9.93 14.657 9.925 15 0z"/></g></svg>