<svg id="Layer_1" enable-background="new 0 0 511.998 511.998" height="512" viewBox="0 0 511.998 511.998" width="512" xmlns="http://www.w3.org/2000/svg"><g><path d="m441.172 14.718-47.11 94.46c-55.22 21.52-55.22-85.05-55.22-85.05s36.6-18.3 87.83-16.47c5.83.21 11 2.91 14.5 7.06z" fill="#8894a2"/><path d="m445.932 27.688c.01 22.31-6.66 59.16-46.85 79.26-1.72.86-3.4 1.6-5.02 2.23l-2.51-2.23c-17.46-46.54 28.04-79.6 49.62-92.23h.01c2.96 3.5 4.75 8.04 4.75 12.97z" fill="#707c8a"/><path d="m233.432 24.128s0 103.44-52.79 85.93l-49.54-95.34c3.5-4.15 8.67-6.85 14.51-7.06 51.23-1.83 87.82 16.47 87.82 16.47z" fill="#707c8a"/><path d="m180.732 106.948-.09 3.11c-2.37-.79-4.85-1.82-7.44-3.11-40.19-20.1-46.86-56.95-46.85-79.26 0-4.93 1.78-9.47 4.75-12.97 21.58 12.62 67.09 45.68 49.63 92.23z" fill="#646f7e"/><ellipse cx="289.905" cy="361.411" fill="#646f7e" rx="169.412" ry="143.059"/><path d="m461.862 208.538c-1.11 1.28-2.25 2.54-3.4 3.78-35.55 38.26-87.7 57.25-172.32 51.21-2.44.17-4.85.33-7.23.45-227.06-110.66-13.23-246.98-13.23-246.98l21.75 6.96 44.94-15.2c15.58 2.65 29.82 9.52 41.42 19.47 15.12 12.97 25.75 31.19 28.97 52.14.95 6.2 3.02 12.05 6.01 17.31.15.27.3.54.46.81l-7.17 53.65z" fill="#fef5e6"/><path d="m278.912 263.978c-80.38 4.48-130.56-14.5-165.09-51.66l50.88-53.7-1.65-60.13c3.23-5.47 5.47-11.6 6.47-18.12 5.7-37.03 34.51-65.49 70.39-71.61l25.77 8.24c-32.2 50.92-89.47 169.39 13.23 246.98z" fill="#fbebcf"/><path d="m467.71 201.469c-1.89 2.42-3.84 4.78-5.85 7.07-20.64 9.9-49.68 12.85-79.94 6.35-52.33-11.23-88.42-46.52-80.61-78.8 7.72-32 55.67-49.05 107.46-38.41.15.27.3.54.46.81 6.69 11.34 17.68 19.87 30.91 23.28 4.48 1.15 9.54 2.27 15.25 3.33 8.69 1.6 12.58 11.85 7.13 18.81-4.5 5.75-9.88 12.29-15.39 18.24-7.47 8.09-1.36 21.17 9.63 20.47.29-.01.58-.03.87-.05 10.09-.65 16.32 10.94 10.08 18.9z" fill="#8894a2"/><path d="m230.742 204.208c-83.23-43.37-2.63-105.29-2.63-105.29 22.37 6.58 38.7 20.22 42.89 38.64 5.5 24.1-11.3 49.83-40.26 66.65z" fill="#8894a2"/><path d="m230.742 204.208c-11.19 6.51-24.19 11.69-38.43 14.93-29.76 6.78-58.32 3.62-78.49-6.82-3.22-3.46-6.3-7.08-9.25-10.85-6.24-7.96-.01-19.55 10.08-18.9.29.02.58.04.87.05 10.99.7 17.1-12.38 9.63-20.47-5.51-5.95-10.89-12.49-15.39-18.24-5.45-6.96-1.56-17.21 7.13-18.81 5.71-1.06 10.77-2.18 15.25-3.33 9.81-2.53 18.38-7.87 24.89-15.08 2.27-2.52 4.29-5.26 6.02-8.2.56-.14 1.13-.27 1.69-.4 22.93-5.22 45.15-4.54 63.37.83-9.35 33.29-11.96 70.44 2.63 105.29z" fill="#707c8a"/><path d="m301.202 150.588-19.77 24.94-10.35-24.94s3.23-64.68-15.73-113.49c-.01-.02-.02-.05-.03-.08-.2-.51-.4-1.01-.6-1.51-.2-.51-.41-1.02-.63-1.53-7.44-19.82 17.8-26.45 17.8-26.45h45.97c4.94 0 9.78.42 14.51 1.23-35.93 46.56-31.17 141.83-31.17 141.83z" fill="#8894a2"/><path d="m271.892 7.528c-4.9 7.22-10.95 16.74-17.17 27.98-3.94-9.83-8.81-18.97-14.81-26.75 4.73-.81 9.57-1.23 14.51-1.23z" fill="#707c8a"/><path d="m309.833 165.017c0-14.643-10.608-16.019-23.694-16.019-13.085 0-23.693 1.376-23.693 16.019 0 35.081 47.387 35.081 47.387 0z" fill="#4e5660"/><path d="m406.532 497.558c-13.53 4.01-27.52 6.21-41.6 6.76l-44.18-10.25-38.8 10.4h-22.64c-192.36-46.58-105.11-167.95-77.56-200.37l2.15 1.27.52-.04 28.9-2.35c15.23 5.4 32.4 13.47 50.99 25.41l31.78 45.87 29.5 4.63c8.87 8.97 17.88 18.87 27.01 29.78 17.41 20.81 46.46 28.32 71.3 17.41 17.13-7.52 32.38-23.78 35.41-57.14 39.91 84.8-12.72 116.73-52.78 128.62z" fill="#fef5e6"/><path d="m259.312 504.468h-44.79l-28.46-7.57-27.46 7.57h-14.38c-58.26 0-106.35-46.78-106.55-105.04-.2-55.92 43.16-101.76 98.08-105.53 4.05-.28 8.1-.52 12.14-.92 3.26-.32 8.1-.59 14.34-.36l21.67 12.75.52-.04c-18.47 40.44-40.74 129.71 74.89 199.14z" fill="#fbebcf"/><path d="m213.322 302.978c-23.73 20.21-39.72 56.78-40.11 98.67-.01.52-.01 1.05-.01 1.57-54.75-66.85 15.8-107.18 15.8-107.18 7.391 1.58 15.53 3.82 24.32 6.94z" fill="#8894a2"/><path d="m214.522 504.468h-55.92l-.64-.39c-30.64-16.57-52.3-57.35-52.3-105.02 0-47.77 21.75-88.61 52.47-105.12 0-.01.01-.01.01-.01l4.09-1.31c7.19.25 16.21 1.17 26.77 3.42-10.41 19.58-26.98 60.27-15.79 105.61-.01.52-.01 1.05-.01 1.57 0 43.24 16.61 81.01 41.32 101.25z" fill="#707c8a"/><path d="m364.932 504.318c-2.4.1-4.8.15-7.2.15h-75.78c-24.53-19.6-40.99-55.93-40.99-97.49 0-30.55 8.89-58.26 23.35-78.59 19.13 12.29 39.75 28.68 61.28 50.49v.01c-1.18 7.85-1.8 15.99-1.8 24.33 0 43.13 16.531 80.83 41.14 101.1z" fill="#8894a2"/></g><g><path d="m466.652 367.026c1.86-42.986-17.568-83.679-53.045-113.231 23.593-10.787 43.492-26.55 59.983-47.672 9.002-11.482 2.256-27.801-11.088-30.61-5.476-1.163-8.752 1.132-10.699-2.964-.416-.873-1.169-3.136.808-5.276 4.922-5.315 10.235-11.611 15.793-18.713 8.926-11.4 2.547-28.19-11.668-30.808-14.669-2.724-25.7-4.769-35.858-15.989 28.143-23.225 32.54-55.9 32.53-74.053-.014-14.907-11.651-26.995-26.491-27.519-28.677-1.031-52.951 4.056-69.062 8.875-12.627-5.985-26.587-9.01-40.02-9.01-62.129 0-70.937-.49-79.573 1.414-8.275 1.453-16.31 4.008-23.88 7.597-16.105-4.82-40.384-9.907-69.059-8.876-14.857.523-26.496 12.614-26.496 27.521-.009 18.154 4.39 50.835 32.539 74.052-13.744 15.147-31.676 13.954-39.475 17.017-11.754 4.614-16.116 19.493-8.062 29.777 5.562 7.107 10.875 13.403 15.785 18.706 2.627 2.845 1.36 8.172-4.611 7.845-16.522-.991-26.559 18.007-16.365 31.01 17.563 22.438 38.88 38.935 64.957 49.855-10.52 9.111-19.602 19.282-27.105 30.382l-1.278.086c-144.337 14.923-136.487 221.265 8.988 225.556h213.505c2.065 0 4.123-.036 6.174-.104.996.171 2.016.122 2.996-.122 14.409-.698 28.42-3.04 41.763-6.999 10.556-3.134 20.191-7.08 28.641-11.731 3.628-1.998 4.95-6.559 2.953-10.188-1.997-3.627-6.556-4.948-10.188-2.953-7.509 4.134-16.147 7.664-25.674 10.491-11.772 3.493-24.14 5.59-36.87 6.307-23.909-20.787-38.223-61.71-36.049-100.733 5.155 5.613 10.28 11.462 15.373 17.547 19.683 23.518 52.608 31.521 80.072 19.462 18.745-8.23 28.988-22.889 34.466-38.078 8.147 27.012 5.511 49.148-7.931 65.996-2.584 3.238-2.053 7.957 1.185 10.54 3.215 2.571 7.944 2.068 10.54-1.185 20.702-25.945 21.194-60.672 1.496-103.222zm-321.311-137.701c16.291 1.962 32.887.737 48.612-2.847 4.039-.92 6.566-4.939 5.646-8.979-.919-4.039-4.939-6.57-8.979-5.646-23.631 5.383-62.934 6.287-78.21-12.528-4.636-5.682-2.225-8.835.891-9.215.455-.303 14.299 2.275 20.674-11.112 3.491-7.332 2.182-15.932-3.345-21.918-4.637-5.006-9.679-10.982-14.988-17.768-1.336-1.705-.886-3.456-.631-4.13 1.297-3.424 2.898-2.008 18.979-6.123 14.059-3.627 25.903-12.252 33.739-23.931 49.909-10.85 95.714 7.933 96.749 40.57-9.08 5.583-10.781 16.277-8.913 26.771-7.803 11.216-20.272 21.426-35.458 28.965-3.71 1.842-5.225 6.343-3.383 10.053 1.843 3.71 6.344 5.225 10.053 3.383 14.348-7.123 26.678-16.479 35.751-26.979 4.224 5.091 9.829 8.536 16.088 10.067v18.629c-6.288-1.503-10.557-4.205-10.957-4.466-8.455-5.179-16.348 6.724-8.294 12.498 10.582 7.161 34.502 13.441 53.497 0 8.072-5.795.125-17.701-8.32-12.48-3.688 2.459-7.378 3.919-10.926 4.7v-18.905c6.803-1.683 13.118-5.679 17.517-11.889 27.677 29.38 79.02 44.694 122.613 38.451-57.329 42.832-139.456 30.957-148.167 31.579-60.506 4.317-106.013-4.235-140.238-26.75zm91.305-212.221c16.949 24.746 23.55 62.285 25.92 92.245-21.613-20.185-57.153-25.048-87.192-20.805.832-2.948 5.826-58.538 61.272-71.44zm160.101 71.051c-35.884-4.349-68.253 3.831-87.038 20.713 2.309-28.764 8.723-66.714 25.876-91.765 48.937 11.386 56.346 53.503 61.162 71.052zm41.503 40.906c16.093 4.132 17.652 2.643 18.971 6.121.255.674.705 2.425-.632 4.132-5.308 6.781-10.35 12.759-14.993 17.774-6.793 7.355-7.043 18.472-.626 26.108 4 4.77 9.773 7.376 17.119 6.884 2.489-.16 3.687 1.555 4.08 2.3 1.647 3.118-.736 5.135-4.984 10.081-43.448 19.752-113.469 3.205-140.14-32.647 1.063-9.749-.932-18.967-9.283-24.109-.67-33.981 49.248-49.894 96.294-41.271 7.368 11.61 19.533 20.838 34.194 24.627zm-140.308 28.566c.13.05.263.09.396.133 3.72 1.306 3.97 3.681 3.97 7.285 0 25.163-32.387 25.163-32.387 0 0-3.649.255-6.039 4.11-7.334.084-.026.168-.054.251-.082 4.799-1.495 18.861-1.493 23.66-.002zm114.875-68.686c-3.71-9.129-2.23-15.539-8.688-31.157 9.086-14.229 23.31-25.352 34.061-32.379 2.734 14.863-4.708 45.596-25.373 63.536zm13.566-73.759c.021.001.042.005.064.006-14.118 9.668-23.687 19.334-30.133 27.672-5.652-8.768-12.631-16.454-20.837-22.895 13.813-3.096 31.247-5.48 50.906-4.783zm-107.241-.096c-24.157 41.567-24.217 98.317-26.291 126.638-4.038-.262-9.426-.27-13.608.01-1.091-10.543.629-80.642-26.146-126.647.433-.008.864-.029 1.298-.029zm-122.379 4.877c-8.212 6.437-15.205 14.155-20.839 22.895-6.447-8.343-16.017-18.009-30.135-27.67 15.094-.65 33.177.783 50.974 4.775zm-62.719 5.437c10.749 7.021 24.98 18.141 34.066 32.375-6.507 15.727-4.934 21.89-8.693 31.16-22.913-19.883-27.374-52.626-25.373-63.535zm-88.898 374.033c-.177-51.155 39.385-94.011 90.226-97.955-23.121 22.252-37.237 58.14-37.237 97.609 0 4.143 3.357 7.5 7.5 7.5s7.5-3.357 7.5-7.5c0-43.327 19.499-82.917 48.521-98.514.228-.123.436-.271.647-.415 9.215.362 21.741 1.88 36.844 6.191-43.329 45.391-44.088 143.216-2.655 190.648h-35.896c-21.575-12.125-38.204-37.828-44.581-69.028-.829-4.059-4.794-6.669-8.85-5.847-4.058.83-6.676 4.792-5.846 8.851 5.418 26.513 17.64 49.681 34.067 65.631-50.335-4.42-90.065-46.309-90.24-97.171zm172.109 97.565c-47.495-39.956-48.293-143.533-2.288-185.389 1.094.415 2.197.843 3.311 1.287 11.922 4.754 23.777 10.703 35.544 17.808-30.13 46.488-26.232 125.852 9.753 166.294zm129.819 0h-62.442c-40.076-32.708-47.425-113.345-18.184-158.201 17.302 11.74 34.388 26.018 51.184 42.767-5.705 40.5 5.906 87.757 29.442 115.434zm73.791-77.758c-21.392 9.394-47.108 3.081-62.539-15.354-89.966-107.493-169.552-119.302-202.191-118.828 6.868-8.421 14.847-16.162 23.855-23.134 33.583 10.375 70.779 11.637 106.125 9.151 44.062 3.098 80.755-.406 111.389-10.876 38.411 28.751 58.512 70.501 53.515 114.518-3.409 22.242-13.52 37.22-30.154 44.523z"/><path d="m218.883 155.086v-12c-.344-9.931-14.66-9.923-15 0v12c.344 9.931 14.66 9.923 15 0z"/><path d="m360.848 135.586c-4.143 0-7.5 3.357-7.5 7.5v12c.344 9.931 14.66 9.923 15 0v-12c0-4.143-3.358-7.5-7.5-7.5z"/></g></svg>