<svg id="Layer_1" enable-background="new 0 0 511.954 511.954" height="512" viewBox="0 0 511.954 511.954" width="512" xmlns="http://www.w3.org/2000/svg"><g><g clip-rule="evenodd" fill-rule="evenodd"><path d="m203.276 350.027v82.82l-19.97 17.39-25.21-17.39v-82.82z" fill="#e2b844"/><path d="m203.276 432.847v36.01c0 8.15-9.86 12.23-15.62 6.47l-.5-.5c-3.58-3.57-9.37-3.57-12.94 0l-.5.5c-5.77 5.76-15.62 1.68-15.62-6.47v-36.01z" fill="#707c8d"/><path d="m49.673 161.79c-23.284 0-42.167 16.402-42.167 36.648 0 13.135 7.942 24.646 19.891 31.117 20.016 0 32.366-11.125 45.397-17.917.435-7.898 2.931-15.797 2.403-25.634-.721-13.433-11.85-24.154-25.302-24.214-.073.001-.148 0-.222 0z" fill="#f8e0b8"/><path d="m361.386 350.027v82.82l-22.58 13.15-22.59-13.15v-82.82z" fill="#ebca5f"/><path d="m361.386 432.847v36.01c0 8.15-9.85 12.23-15.62 6.47l-.5-.5c-3.57-3.57-9.36-3.57-12.93 0l-.51.5c-5.76 5.76-15.61 1.68-15.61-6.47v-36.01z" fill="#7c899a"/></g><path d="m392.876 335.967c-4.56 2.44-7.76 6.75-8.67 11.84-3.11 17.5-18.06 30.99-36.5 32.86-4.74.48-8.9 3.19-11.65 7.07-11.21 15.86-32.76 21.6-50.75 14.15-5.18-2.14-11.02-1.64-15.7 1.43-12.85 8.44-29.65 9.24-43.28 2.11-2.49-1.3-5.2-1.96-7.91-1.97-238.77-102.97-40.58-271.84-40.58-271.84.68.24 1.35.5 2.02.77 5.01 2.06 10.73 1.5 15.27-1.45 13.98-9.06 32.43-9.06 46.4 0 4.55 2.95 10.27 3.51 15.28 1.45 14.31-5.88 31.12-3.58 43.18 6.25 3.35 2.74 7.64 4.15 11.94 3.72 17.56-1.75 34.24 7.45 41.71 22.42 2.25 4.5 6.52 7.63 11.42 8.77 18.3 4.22 31.62 20.01 31.77 38.35.04 4.49 1.7 8.85 4.96 11.94 12.6 11.95 15.85 30.35 8.25 45.54-2.29 4.56-2.3 9.98-.01 14.54 9.47 18.81 1.87 41.88-17.15 52.05z" fill="#fef5e6"/><path d="m218.416 403.457c-2.77-.01-5.54.65-8.08 1.97-13.63 7.13-30.43 6.33-43.28-2.11-4.68-3.07-10.53-3.57-15.7-1.43-17.99 7.45-39.54 1.71-50.75-14.15-2.75-3.88-6.9-6.59-11.63-7.07-18.54-1.86-33.44-15.45-36.53-32.87-.91-5.08-4.09-9.39-8.65-11.83-19-10.15-26.64-33.23-17.16-52.05 2.29-4.56 2.28-9.98-.01-14.54-7.61-15.2-4.35-33.58 8.24-45.53 3.26-3.1 4.93-7.46 4.96-11.96.16-18.34 13.48-34.12 31.77-38.34 4.9-1.14 9.18-4.27 11.42-8.77 7.48-14.97 24.15-24.17 41.71-22.42 4.31.43 8.59-.98 11.94-3.72 11.5-9.37 27.31-11.9 41.17-7.02-26.92 64.18-53.77 179.1 40.58 271.84z" fill="#fbebcf"/><path d="m474.326 173.087c0 21.45-10.85 41.07-28.82 56.2-5.13 4.32-8.79 10.2-10.15 16.77-5.8 27.86-30.27 50.12-61.84 56.77 0 0-170.29-29.02-83.97-202.97 18.61-8.46 40.66-13.36 64.31-13.36 66.54 0 120.47 38.77 120.47 86.59z" fill="#f2d98d"/><path clip-rule="evenodd" d="m373.516 302.827c-3.95.82-8.01 1.41-12.16 1.73l-7.49-3.55-7.51 3.55c-37.3-2.89-67.46-27.15-73.99-58.5-1.37-6.57-5.02-12.45-10.15-16.77-17.97-15.13-28.83-34.75-28.83-56.2 0-30.82 22.41-57.89 56.16-73.23-15.62 67.15-17.22 163.57 83.97 202.97z" fill="#ebca5f" fill-rule="evenodd"/><path d="m502.228 180.654c5.998 9.823-.846 22.46-12.35 22.819-16.928.528-33.724-7.795-43.067-23.096-13.576-22.234-6.272-50.781 16.314-63.763z" fill="#ebca5f"/><path d="m205.49 180.654c-5.998 9.823.846 22.46 12.35 22.819 16.928.528 33.724-7.795 43.067-23.096 13.576-22.234 6.272-50.781-16.314-63.763z" fill="#e2b844"/><path clip-rule="evenodd" d="m471.476 94.397c-3.32-.52-6.11-2.65-7.55-5.69-5.114-10.832-16.298-17.797-28.56-17.24-3.92.17-7.52-2.13-9.24-5.66-6.601-13.58-22.136-20.07-36.29-15.53-4.18 1.35-8.79-.04-11.31-3.64-12.01-17.155-37.381-17.097-49.33 0-2.53 3.6-7.13 4.99-11.31 3.64-2.898-.939-5.975-1.405-8.93-1.43 0 0-76.49 82.12 4.34 120.12 1.57-.24 3.11-.6 4.59-1.08 1.4-.45 2.85-.59 4.25-.44 2.78.28 5.38 1.7 7.06 4.09 11.999 17.116 37.323 17.11 49.33 0 2.52-3.6 7.13-4.99 11.31-3.65 8.964 2.875 19.236 1.461 27.28-4.6 4.188-3.141 7.634-1.5 12.04-1.5 7.29 0 13.97-2.59 19.18-6.9 2.64-2.18 6.2-3.02 9.47-1.99 18.871 5.891 37.83-7.745 39.05-26.78 1.01-15.88-10.31-29.38-25.38-31.72z" fill="#fef5e6" fill-rule="evenodd"/><path d="m313.296 168.967c-7.922 1.215-16.104-.718-22.69-5.68-4.215-3.147-7.572-1.5-12.04-1.5-9.43 0-17.85-4.33-23.37-11.12-4.67 2.52-10.07 3.84-15.81 3.56-15.15-.75-28.49-12.95-28.52-28.11-.05-23.63 16.61-29.85 25.53-31.49 3.24-.59 5.93-2.77 7.32-5.77 5.072-10.897 16.289-17.952 28.64-17.39 3.92.17 7.52-2.13 9.24-5.66 4.759-9.792 14.814-16.96 27.36-16.96-11.3 26.39-28.59 81.82 4.34 120.12z" fill="#fbebcf"/><path clip-rule="evenodd" d="m286.096 375.147v57.7l-22.59 12.59-22.59-12.59v-57.7z" fill="#f2d98d" fill-rule="evenodd"/><path d="m286.096 432.847v36.02c0 8.15-9.86 12.23-15.62 6.46l-.5-.5c-3.57-3.57-9.37-3.57-12.94 0l-.5.5c-5.76 5.77-15.62 1.69-15.62-6.46v-36.02z" fill="#8b97a5"/><path clip-rule="evenodd" d="m127.976 376.147v56.7l-21.66 20.12-23.52-20.12v-56.7z" fill="#ebca5f" fill-rule="evenodd"/><path d="m127.976 432.847v36.02c0 8.15-9.85 12.23-15.62 6.46l-.5-.5c-3.57-3.57-9.36-3.57-12.94 0l-.5.5c-5.76 5.77-15.62 1.69-15.62-6.46v-36.02z" fill="#7c899a"/></g><g><path d="m508.622 176.749-15.619-25.591c21.922-21.26 10.653-59.36-20.378-64.177-.837-.13-1.537-.67-1.921-1.483-6.412-13.569-20.526-22.188-35.672-21.525-.88.025-1.727-.546-2.167-1.451-6.356-13.061-19.32-21.174-33.835-21.174-10.224 0-12.55 3.573-14.368.98-14.343-21.212-47.277-21.207-61.618 0-1.804 2.577-4.233-.98-14.368-.98-14.515 0-27.479 8.113-33.834 21.174-.866 1.781-2.299 1.415-3.813 1.415-14.574 0-27.966 8.54-34.118 21.758-.392.842-1.076 1.41-1.877 1.557-17.417 3.192-28.663 14.747-31.153 31.487-12.956 3.844-14.329 9.525-21.183 6.707-16.857-6.922-36.789-4.027-50.787 7.383-1.874 1.533-4.222 2.284-6.448 2.062-20.458-2.046-40.216 8.623-49.172 26.548-.065.132-.146.256-.219.384-.708-.92-1.607-1.685-2.667-2.196-7.241-3.489-15.449-5.333-23.736-5.333-47.445 0-67.498 53.493-30.537 78.966-5.634 12.511-5.483 26.954.785 39.479 1.231 2.451 1.234 5.37.014 7.8-11.329 22.491-2.259 49.975 20.319 62.037 3.107 1.662 4.328 4.097 4.929 7.148-.162 18.456 12.873 33.62 30.109 37.153v81.986c0 6.759 4.036 12.796 10.282 15.38 5.995 2.481 12.999 1.52 18.634-4.109.648-.647 1.699-.649 2.341-.008l.5.5c10.474 10.477 28.423 3.051 28.423-11.763v-56.254c5.145-.043 10.242-.873 15.121-2.462v58.707c0 14.213 17.308 22.889 28.923 11.273.643-.642 1.693-.639 2.333 0 11.432 11.443 28.913 3.152 28.913-11.273v-55.338c3.137-1.375 6.913-4.149 12.091-1.443 3.365 1.755 6.898 3.112 10.56 4.059v52.731c0 14.438 17.475 22.712 28.923 11.263.397-.397.854-.48 1.167-.48.44 0 .701.015 1.662.976 10.465 10.485 28.428 3.055 28.428-11.758v-56.899c5.139.831 10.045.87 15.12.157v20.641c-.005.058-.005.116 0 .174v35.917c-.001 15.193 18.759 22.303 28.906 11.281.648-.647 1.699-.649 2.341-.008l.5.5c10.479 10.478 28.423 3.046 28.423-11.773v-35.966c.002-.026.002-.052 0-.077v-22.907c-.344-9.931-14.659-9.923-15 0v15.446h-30.17v-17.766c17.769-8.535 17.018-18.676 24.744-19.458 21.659-2.189 39.425-18.139 43.128-39.002.499-2.787 2.257-5.173 4.824-6.546 20.14-10.77 29.586-34.082 23.135-54.988 11.658-10.792 19.927-24.521 23.152-40.013.99-4.782 3.702-9.24 7.635-12.552 9.38-7.894 16.779-16.734 22.077-26.348 14.503 4.242 29.589 3.85 36.807-9.504 3.855-7.129 3.634-15.513-.589-22.424zm-270.883-74.743c5.563-1.019 10.338-4.75 12.772-9.981 3.825-8.218 12.321-13.464 21.508-13.066 6.838.307 13.247-3.575 16.312-9.873 5.048-10.375 16.731-15.038 27.256-11.663 7.419 2.379 15.352-.226 19.739-6.482 8.632-12.762 28.425-12.76 37.054 0 4.387 6.257 12.319 8.862 19.74 6.482 10.507-3.371 22.196 1.263 27.256 11.663 3.064 6.297 9.446 10.186 16.31 9.873 9.153-.394 17.613 4.818 21.455 12.949 2.506 5.305 7.435 9.004 13.182 9.896 11.606 1.802 19.792 12.049 19.041 23.836-.892 13.991-15.011 24.578-29.329 20.093-5.64-1.762-11.803-.501-16.486 3.375-4.038 3.341-9.152 5.181-14.402 5.181-3.735 0-9.817-2.051-16.543 3.004-6.061 4.557-13.758 5.608-20.484 3.451-7.42-2.381-15.352.226-19.74 6.482-8.631 12.763-28.424 12.759-37.053 0-4.356-6.213-12.27-8.879-19.74-6.482-6.703 2.15-14.396 1.127-20.484-3.451-6.718-5.049-12.819-3.004-16.543-3.004-6.833 0-13.23-3.046-17.552-8.358-2.272-2.792-6.208-3.578-9.378-1.867-14.716 7.936-33.242-2.884-33.271-17.967-.028-13.624 6.493-21.73 19.38-24.091zm-19.675 93.974c-5.752-.18-9.181-6.502-6.184-11.415l15.458-25.308c8.609 3.274 17.815 3.269 26.056.376 1.869 1.686 3.893 3.162 6.033 4.429-3.868 18.733-21.272 32.526-41.363 31.918zm-159.422-25.688c-15.786 7.924-26.165 23.709-26.321 41.541-.032 4.818-2.551 6.342-4.915 8.916-28.081-19.769-4.696-58.531 31.236-50.457zm31.648 216.579c12.014-2.431 13.726-7.699 16.157-5.999 4.254 2.975 9.013 4.983 14.023 5.997v38.479h-30.18zm29.167 83.511c-.675.28-1.282.158-1.803-.363l-.5-.5c-6.059-6.059-16.46-7.085-24.05.505-1.049 1.051-2.812.324-2.812-1.161v-28.514h30.18c-.002 29.946.442 29.43-1.015 30.033zm76.304-45.033h-30.17v-14.15c8.902 5.057 19.497 7.356 30.17 6.268zm-2.807 44.671c-7.544-7.551-17.762-6.784-24.546 0-.521.521-1.126.641-1.801.363-1.452-.601-1.016.024-1.016-30.034h30.17v28.504c0 1.495-1.751 2.224-2.807 1.167zm71.61-89.148c4.255 2.975 9.015 4.984 14.027 5.998v38.479h-30.18v-38.479c11.962-2.421 13.739-7.686 16.153-5.998zm11.21 89.147c-7.517-7.517-17.693-6.853-24.551.004-1.049 1.052-2.812.324-2.812-1.161v-28.514h30.18v28.514c0 1.491-1.764 2.211-2.817 1.157zm78.107-29.67c0 29.873.467 29.42-1.016 30.034-.675.28-1.28.158-1.801-.363-6.726-6.726-16.953-7.593-24.551.004-.515.516-1.115.637-1.785.359-1.46-.604-1.017-.045-1.017-30.035h30.17zm86.788-216.799c-6.497 5.471-10.994 12.924-12.662 20.978-5.931 28.489-33.369 49.697-66.654 52.495v-22.291c0-.206-.015-.409-.031-.611 6.422-1.007 13.111-3.566 19.619-8.448 3.313-2.485 3.985-7.186 1.5-10.5-2.485-3.313-7.186-3.985-10.5-1.5-17.65 13.238-35.411.561-36.206-.021-3.312-2.46-7.993-1.782-10.471 1.521-2.485 3.314-1.813 8.015 1.5 10.5 4.205 3.153 11.234 6.706 19.638 8.219-.031.276-.05.555-.05.839v22.292c-9.987-.851-19.719-3.386-28.503-7.466-3.758-1.747-8.217-.114-9.961 3.642-1.745 3.757-.114 8.217 3.642 9.962 29.545 13.723 66.433 12.224 94.847-5.535 1.378 12.53-5.088 25.33-17.046 31.725-6.642 3.554-11.203 9.798-12.516 17.142-2.523 14.212-14.821 25.188-29.871 26.709-6.701.679-12.902 4.395-17.016 10.198-3.853 5.445-9.403 9.715-16.233 12.138-6.515 2.318-13.498 2.697-20.104 1.154v-9.815c17.896-3.668 31.265-19.875 30.038-39.281-.261-4.134-3.821-7.27-7.958-7.012-4.134.261-7.273 3.824-7.012 7.958 1.193 18.899-19.981 30.891-35.499 20.038-5.778-4.04-13.542-4.041-19.32 0-15.508 10.846-36.693-1.153-35.499-20.04.262-4.134-2.877-7.697-7.011-7.958-4.134-.26-7.697 2.878-7.958 7.011-1.228 19.397 12.13 35.614 30.039 39.284v13.521c-3.729-1.432-13.866-8.231-26.551-1.624-11.279 5.888-25.233 5.142-35.691-1.729-6.792-4.461-13.7-3.97-13.112-3.97-9.056-.085-11.128 4.374-22.587 4.512v-10.709c17.899-3.666 31.268-19.875 30.042-39.282-.261-4.134-3.82-7.27-7.958-7.012-4.134.261-7.273 3.824-7.012 7.958 1.193 18.901-19.98 30.892-35.499 20.038-5.778-4.04-13.542-4.041-19.32 0-3.799 2.657-8.266 4.061-12.919 4.063-.008-.001-.016-.001-.024 0-13.011-.009-23.387-10.938-22.555-24.102.088-1.385-.213-2.702-.799-3.856-1.688-6.555-6.016-12.081-12.101-15.336-15.545-8.304-21.692-26.78-13.991-42.069 3.341-6.653 3.338-14.605-.005-21.262-6.18-12.352-3.405-27.177 6.702-36.74 4.656-4.428 7.246-10.588 7.291-17.329.129-14.813 10.803-27.601 25.877-31.08.626-.137 1.25-.307 1.856-.505 6.53-2.291 11.59-6.04 14.666-12.238 6.185-12.376 19.95-19.737 34.257-18.309 6.243.621 12.432-1.288 17.423-5.37 9.785-7.976 23.76-9.988 35.599-5.127 7.277 2.992 15.581 2.209 22.204-2.094 1.67-1.083 3.426-2.005 5.25-2.78 1.698 6.437 5.293 12.254 10.171 16.853l-15.547 25.453c-9.734 15.958 1.725 42.036 36.23 31.922 5.296 9.607 12.693 18.448 22.072 26.35 3.926 3.306 6.639 7.768 7.638 12.562 2.627 12.617 11.153 27.266 17.963 35.537 2.632 3.197 7.36 3.655 10.557 1.023 3.198-2.633 3.656-7.359 1.023-10.557-6.831-8.297-13.079-20.519-14.858-29.063-4.22-20.237-18.244-20.522-30.617-41.962 12.762-7.852 21.341-20.229 24.605-33.592 1.603.207 3.228.319 4.87.319 5.378 0 6.184-1.017 7.529-.006 9.575 7.313 22.628 9.465 34.079 5.744 1.127-.362 2.284-.036 2.877.811 14.978 21.362 46.639 21.363 61.617 0 .594-.846 1.75-1.172 2.877-.811 11.159 3.579 23.932 1.884 34.079-5.744.498-.374 1.15-.532 1.784-.434 3.427.529 7.011.594 10.618.121 1.308 5.356 3.433 10.483 6.386 15.308 4.572 7.5 10.793 13.716 18.222 18.288-4.366 7.565-10.379 14.601-17.96 20.982zm48.975-27.57c-19.938.595-37.465-13.005-41.364-31.931 1.69-.998 3.31-2.124 4.834-3.385.745-.617 1.681-.854 2.442-.615 8.099 2.535 16.891 2.247 24.809-.803l15.455 25.321c3.002 4.912-.422 11.233-6.176 11.413z"/><path d="m292.338 185.808c-10.309 0-21.265 7.416-21.265 21.159 0 4.142 3.358 7.5 7.5 7.5s7.5-3.358 7.5-7.5c0-5.715 4.795-6.159 6.265-6.159s6.265.444 6.265 6.159c0 4.142 3.358 7.5 7.5 7.5s7.5-3.358 7.5-7.5c0-13.744-10.957-21.159-21.265-21.159z"/><path d="m415.383 185.808c-10.309 0-21.265 7.416-21.265 21.159 0 4.142 3.358 7.5 7.5 7.5s7.5-3.358 7.5-7.5c0-5.715 4.795-6.159 6.265-6.159 1.469 0 6.265.444 6.265 6.159 0 4.142 3.358 7.5 7.5 7.5s7.5-3.358 7.5-7.5c-.001-13.744-10.957-21.159-21.265-21.159z"/></g></svg>