<svg id="Layer_1" enable-background="new 0 0 511.83 511.83" height="512" viewBox="0 0 511.83 511.83" width="512" xmlns="http://www.w3.org/2000/svg"><g><path d="m345.768 426.232 9.985 43.24c3.62 15.674 25.796 16.074 29.977.54l3.606-13.393c4.029-14.964-7.078-29.73-22.572-30.009z" fill="#e2b844"/><path d="m108.906 427.868-8.44 43.568c-3.06 15.793 17.042 25.167 27.173 12.671l8.735-10.773c9.76-12.037 5.609-30.042-8.436-36.591z" fill="#e2b844"/><path d="m84.984 408.119c-5.68 26.11 14.3 50.77 41.03 50.74 18.433-.02 34.738-12.062 40.06-29.71 8.2-27.08 18.34-70.83 19.19-123.34.13-8.65 7.5-15.39 16.13-14.73l-45.41-38.12-79.45 12.19c3.11 13.35 6.55 26.6 9.7 38.16 4.72 17.33 7.99 62.29-1.25 104.81z" fill="#c47b46"/><path d="m317.694 286.156c-2.94 41.202-1.389 88.174 1.048 122.176 1.736 24.219 22.223 43.001 46.941 42.997 26.598-.005 47.927-21.639 47.011-47.722-1.813-51.59-.514-113.236 8.807-153.525z" fill="#cb8a5a"/><path d="m480.472 296.152c-122.49 16.8-211.24 29.01-275.63 37.86 0 0-45.43-12.46-4.95-53.38l273.15-37.45c15.18-2.04 28.6 8.43 30.61 22.78 2.07 14.651-8.348 28.156-23.18 30.19z" fill="#b0da87"/><path d="m204.842 334.013c-171.58 23.58-170.4 23.33-174.4 22.73-7.48-1.11-14.1-5.27-18.31-11.31-11.33-16.32-1.31-38.86 18.7-41.62l169.06-23.18c-4.93 14.889-8.59 37.1 4.95 53.38z" fill="#99ce64"/><path d="m57.63 430.988c-14.045-6.549-30.504 1.845-33.451 17.058l-2.638 13.617c-3.06 15.793 17.042 25.167 27.173 12.671l27.95-34.471z" fill="#ebca5f"/><path d="m67.086 435.398-8.44 43.568c-3.06 15.793 17.042 25.167 27.173 12.671l8.735-10.773c9.76-12.037 5.609-30.042-8.436-36.591z" fill="#f2d98d"/><path d="m298.904 436.275c-15.494-.279-27.125 14.077-23.638 29.176l3.121 13.515c3.62 15.674 25.796 16.074 29.977.54l11.537-42.852z" fill="#ebca5f"/><path d="m309.336 436.463 9.985 43.24c3.62 15.674 25.796 16.074 29.977.54l3.606-13.393c4.029-14.964-7.078-29.73-22.572-30.009z" fill="#f2d98d"/><path d="m503.112 160.663c0 69.64-59.67 89.87-71.13 92.78-17.5 4.45-25.7 2.07-42.81-1.43-8.52-1.73-16.88 4.01-18.95 13.14-9.16 40.29-10.43 101.93-8.65 153.52.883 26.198-20.124 47.717-46.18 47.73-24.28 0-42.77-18.78-44.48-43-.97-13.91-1.81-29.98-2.26-46.95-.64-24.51-.48-50.88 1.23-75.23.75-10.71-11.3-18.68-21.46-15.2-16.718 5.676-42.01 11.017-66.09 12.41-184.43-128.18 11.3-224.9 11.3-224.9 26.075 5.374 48.245 9.087 80.99 3.7l105.91-17.43h27.11c52.72 0 95.47 47.88 95.47 100.86z" fill="#daa985"/><path d="m193.632 73.533c-38.33 40.17-91.8 123.49-11.3 224.9-11.92.69-22.75.46-32.43-.28-8.63-.65-15.99 6.09-16.13 14.74-.85 52.5-10.99 96.25-19.19 123.34-2.66 8.82-8.07 16.25-15.12 21.47-30.67 22.698-74.232-4.522-65.97-42.5 9.24-42.53 5.97-87.48 1.25-104.81-22.31-81.85-19.83-96.58-19.83-125.54 0-74.86 60.14-135.74 134.3-120.47z" fill="#cb8a5a"/><path d="m494.612 211.823c0 .01.02.02.02.02-1.77 4.23-3.77 8.26-6.01 12.09v.01c-12.92 22.16-33.58 37.61-61.05 46.19-286.59-46.1-79.76-254-79.76-254 55.962-9.031 110.263 17.747 139.09 73.08h.01c21.52 41.39 22.02 89.67 7.7 122.61z" fill="#daa985"/><path d="m427.572 270.133c-17.05 5.33-36.71 8.02-58.78 8.02-24.5 0-52.82-3.57-74.89-14.21-24.86-11.49-41.51-29.55-50.9-52.12-.02.01-.02.01-.02.01-.19-.44-.37-.88-.55-1.34-.01-.01-.03-.04-.04-.06-13.15-32.63-13.56-79.21 8.28-121.22h.01c20.16-38.47 54.27-66.24 97.13-73.08-32 51.76-106.61 203.42 79.76 254z" fill="#cb8a5a"/><path d="m461.992 206.122c-16 27.17-47.23 41.26-90.81 41.76-169.33-48.87-43.31-194.62-43.31-194.62 41.807-18.615 97.353-7.943 128.14 41z" fill="#f2d98d"/><path d="m371.182 247.883c-.79.01-1.59.01-2.39.01-16.54 0-31.34-1.92-44.26-5.74-20.79-6.12-38.13-17.64-48.91-36.05l5.96-111.84c10.94-17.4 26.59-32.22 46.29-41-26.11 56.85-45.98 144.439 43.31 194.62z" fill="#ebca5f"/><path d="m391.385 136.591c0 20.38 11.89 38.43 29.691 45.82 13.479 5.6 27.13 13.55 40.92 23.7 1.74-2.95 3.3-6.05 4.67-9.31 0 0-.01-.01-.01-.02 11.113-25.932 10.718-62.629-5.99-94.46h-.01c-1.44-2.74-2.99-5.43-4.64-8.06-8.763-2.664-13.444-4.49-20.88-4.49-23.401 0-43.751 20.24-43.751 46.82z" fill="#8894a2"/><path d="m346.202 136.592c0 20.38-11.89 38.43-29.69 45.82-1.17.49-2.35.99-3.53 1.53-64.05-34.03.56-92.62.56-92.62 18.4 5.191 32.66 23.031 32.66 45.27z" fill="#8894a2"/><path d="m312.982 183.943c-12.32 5.47-24.78 12.9-37.36 22.16-1.74-2.95-3.3-6.06-4.67-9.32-.01.01-.01.01-.01.01-.15-.34-.29-.68-.43-1.03-.01-.01-.02-.03-.03-.05-10.35-25.42-10.39-61.32 6.44-93.39h.01c1.44-2.74 2.98-5.43 4.65-8.06 10.843-3.3 19.12-6.581 31.96-2.94-8.56 29.55-11.74 62.409-.56 92.62z" fill="#707c8a"/><path d="m338.838 164.874c.009-18.509 13.419-20.242 29.96-20.233 16.54.008 29.949 1.754 29.939 20.263-.009 18.509-13.426 33.506-29.966 33.498-16.541-.008-29.942-15.019-29.933-33.528z" fill="#4e5660"/></g><g><path d="m488.608 237.566c38.947-52.304 29.333-146.507-32.081-198.468-3.162-2.676-7.895-2.281-10.57.881s-2.281 7.895.881 10.57c45.052 38.118 62.691 106.917 40.824 158.419-20.004 46.9-67.931 61.769-118.918 61.769-219.28 5.616-126.289-311.297 49.523-238.274 3.777 1.698 8.217.012 9.916-3.766s.012-8.217-3.766-9.916c-60.468-27.179-132.684-7.445-172.41 53.349-29.264 1.387-44.74-3.345-101.33-15.003-77.686-16.005-143.314 46.502-143.314 127.815 0 45.855 6.014 72.765 16.249 113.14-36.371 12.033-28.667 64.784 9.04 66.413-1.125 37.792-9.422 48.893-7.558 66.225-7.937 7.892-8.61 17.405-10.964 29.596-4.126 21.305 20.511 35.339 36.685 22.474.55 20.782 27.162 30.432 40.787 13.652l5.838-7.209c4.589 5.051 11.43 8.122 18.293 8.121 6.762 0 13.211-2.934 17.676-8.439 7.365-9.081 14.923-16.307 15.674-28.241 11.486-6.093 20.328-16.717 24.118-29.269 5.946-19.634 13.623-50.436 17.319-87.785l70.404-9.678c-.74 38.165 1.327 73.986 2.457 90.065.586 8.353 2.932 16.096 6.636 22.88-5.592 11.558-1.767 21.821 1.008 33.853 4.877 21.111 33.081 23.994 42.65 5.599 8.61 18.116 35.662 17.119 42.343-2.57 12.086 10.083 32.297 5.416 36.908-11.729 2.74-10.188 5.038-16.251 4.648-23.301 14.684-10.429 23.229-27.359 22.565-45.309-.818-23.358-1.297-57.634.836-91.472 19.185-2.633 39.319-5.396 60.466-8.295 11.564-1.584 21.216-8.871 25.612-17.412 10.331-18.484 1.232-41.599-18.445-48.685zm-473.673 92.557c.046-6.544 3.412-13.896 12.23-17.379 2.665 11.796 4.689 23.546 5.347 36.747-8.42.053-17.656-8.211-17.577-19.368zm13.922 133.041c.991-5.136 1.743-9.972 2.641-13.545 3.924 6.398 9.174 11.492 15.183 15.337l-3.844 4.742c-5.232 6.451-15.56 1.621-13.98-6.534zm59.817 13.058-8.724 10.773c-5.226 6.439-15.572 1.627-13.995-6.514l1.5-7.73c8.266 1.281 16.548.61 24.123-1.953-.609 1.954-1.567 3.778-2.904 5.424zm33.084 3.246c-5.217 6.435-16.642 1.121-15.107-7.001.009-.045.018-.089.026-.134.65-3.146.802-6.376.473-9.565 7.713 3.156 16.29 4.367 25.006 3.264-2.188 3.942-6.28 8.356-10.398 13.436zm37.085-52.404c-5.275 17.468-23.796 28.2-42.169 23.125 2.063-3.557 3.754-7.466 5.037-11.703 6.351-20.972 13.72-51.329 17.331-87.794 10.883-1.494 22.905-3.145 36.183-4.969-3.699 34.529-10.822 62.982-16.382 81.341zm-18.546-91.685c.473-7.234.793-14.665.915-22.285.071-4.342 3.744-7.702 8.073-7.373 32.916 2.499 71.819-2.301 101.518-12.523 5.182-1.773 11.914 2.366 11.548 7.59-.417 5.941-.737 11.947-.979 17.952zm145.344 141.987c-1.361-5.895-2.911-11.212-3.364-15.432 5.809 4.899 12.671 8.503 20.212 10.434l-1.419 5.275c-2.156 8.01-13.562 7.805-15.429-.277zm56.359 1.008c-2.158 8.024-13.551 7.813-15.42-.283l-1.17-5.057c7.282-1.37 14.15-4.212 20.249-8.401-.757 3.833-2.271 8.597-3.659 13.741zm36.44-10.23c-2.156 8.015-13.562 7.811-15.429-.277-2.194-9.512-1.821-7.535-1.898-9.157 7.222.58 14.169-.239 20.519-2.153-.789 3.124-1.92 6.858-3.192 11.587zm26.708-64.174c.819 22.129-17.914 41.02-41.509 39.878 8.06-16.444 4.523-23.271 4.703-68.358.017-4.142-3.328-7.513-7.47-7.53-4.095-.022-7.513 3.328-7.53 7.47-.056 14.141.174 28.807.685 43.59 1.076 47.959-70.961 56.263-75.683 3.936-1.434-20.396-4.403-73.026-1.029-121.12 1.138-16.273-16.322-27.985-31.383-22.826-27.904 9.604-64.5 14.108-95.507 11.753-12.925-.984-24.001 9.128-24.211 22.088-.657 41.067-7.279 83.042-18.859 121.287-12.727 42.04-75.826 25.253-66.592-17.265 22.928-105.51-18.399-121.701-18.399-231.932 0-71.609 56.863-127.221 125.287-113.125 56.171 11.572 69.729 15.521 95.549 15.541-16.427 32.448-18.258 63.856-16.852 84.624 4.366 64.538 45.851 110.337 132.526 113.564-2.819 19.502-4.287 40.934-4.983 60.856-.148 4.231 3.238 7.762 7.5 7.762 4.021 0 7.349-3.188 7.491-7.238.345-9.877.849-19.228 1.508-28.024l35.432-4.865c-1.96 33.451-1.48 66.915-.674 89.934zm88.619-124.692c-3.062 5.225-8.284 8.691-14.363 9.524l-107.647 14.772c.66-6.32 1.412-12.293 2.257-17.898 44.775-.868 79.646-12.866 103.109-35.167 13.647.134 24.207 14.421 16.644 28.769z"/><path d="m368.744 240.474c-10.248 0-19.894-.776-28.669-2.306-4.083-.713-7.965 2.019-8.677 6.1-.711 4.081 2.02 7.965 6.1 8.677 47.484 7.646 107.935-.104 132.112-45.071 19.805-35.977 13.913-86.846-7.485-117.793-36.441-57.637-96.46-52.798-93.38-52.798-75.204 0-127.111 75.774-109.302 148.839 5.977 24.513 21.173 44.536 45.278 56.465 3.712 1.836 8.211.317 10.048-3.395s.317-8.211-3.395-10.049c-10.55-5.221-19.093-12.276-25.556-21.049 27.964-19.338 35.529-16.778 48.182-27.732 12.572 34.09 56.902 34.08 69.47-.011 12.891 11.163 19.668 8.015 48.232 27.76-15.771 21.477-43.628 32.363-82.958 32.363zm68.589-158.07c-30.555-1.324-54.422 25.283-53.518 55.853-7.575-1.4-22.589-1.367-30.179-.044.807-31.766-24.083-57.208-53.486-55.803 37.652-40.192 99.529-40.195 137.183-.006zm-159.03 112.641c-11.147-25.358-10.942-62.284 8.149-94.36l6.007-1.828c25.809-7.864 51.9 16.76 45.167 47.243-3.399 3.683-5.44 8.515-6.098 14.459-11.342 17.224-19.73 11.575-53.225 34.486zm74.838-11.381c-7.014-7.857-10.37-24.932-2.186-29.077 4.805-2.434 40.238-8.015 40.229 10.396-.009 22.547-23.611 34.846-38.043 18.681zm52.798-23.139c-.708-6.365-2.946-10.997-6.07-14.358-6.902-33.167 22.446-57.898 51.161-45.494 18.208 30.586 19.894 67.835 8.194 94.392-33.493-22.902-42.045-17.4-53.285-34.54z"/><path d="m433.754 127.597c-11.512-.006-22.047 8.41-22.055 21.919-.002 4.142 3.354 7.502 7.496 7.504 4.141.002 7.502-3.354 7.504-7.496.003-6.426 5.386-6.927 7.042-6.927 4.156 0 7.045 2.355 7.043 6.934-.002 4.142 3.354 7.502 7.496 7.504h.004c4.14 0 7.498-3.355 7.5-7.496.008-14.244-11.345-21.936-22.03-21.942z"/><path d="m303.756 127.532c-11.511-.006-22.046 8.411-22.053 21.919-.002 4.142 3.354 7.502 7.497 7.504 4.142.002 7.502-3.354 7.503-7.496.004-6.428 5.385-6.927 7.045-6.927 1.652.001 7.042.503 7.04 6.934-.002 4.142 3.354 7.502 7.497 7.504 4.142.002 7.502-3.354 7.503-7.496.007-14.245-11.346-21.937-22.032-21.942z"/></g></svg>