<svg id="Layer_1" enable-background="new 0 0 511.943 511.943" height="512" viewBox="0 0 511.943 511.943" width="512" xmlns="http://www.w3.org/2000/svg"><g><path d="m452.116 192.217-29.278-6.89-.091-21.248c-.169-39.278 15.944-76.865 44.494-103.798l29.278 6.889c-28.55 26.933-44.663 64.52-44.494 103.798z" fill="#fef5e6"/><ellipse cx="481.88" cy="63.726" fill="#f2d98d" rx="22.557" ry="22.588"/><path d="m361.889 192.217 29.278-6.89.091-21.248c.169-39.278-15.944-76.865-44.494-103.798l-29.278 6.889c28.55 26.933 44.662 64.52 44.494 103.798z" fill="#fef5e6"/><path d="m354.084 58.559c-2.85-12.144-14.991-19.676-27.119-16.822s-19.649 15.012-16.799 27.156 14.991 19.676 27.119 16.822c12.128-2.853 19.649-15.011 16.799-27.156z" fill="#f2d98d"/><path d="m498.981 227.399-3.15 142.01c-4.46 57.2-52.16 101.4-109.46 101.4l-20.33-.063-26.26-24.107-62.12 19.77-62.68 4.4h-187.43c-14.09 0-23.79-14.2-18.66-27.35 15.27-39.24 53.01-79.75 95.05-79.61 134.76.44 132.41 2.9 145.4-5.98 8.27-5.65 51.27-65.3 52.4-75.3l4.6-60.19c1.56-52.36 44.45-93.61 96.23-93.61 1.47 0 2.95.03 4.42.1 52.3 2.36 93.14 46.12 91.99 98.53z" fill="#f2d98d"/><path d="m442.69 401.184c-5.937 38.887-38.408 68.668-77.734 69.595-.862.02-1.723.03-2.582.03h-152.309c141.534 0 124.817-150.59 194-150.59 31.875.001 44.855 40.165 38.625 80.965z" fill="#fef5e6"/><path d="m309.261 267.509c0 55.37-29.84 103.76-74.3 129.92-304.72-70.11-63.58-279.99-63.58-279.99 77.2 6.35 137.88 71.11 137.88 150.07z" fill="#daa985"/><path d="m234.961 397.429c-22.32 13.14-48.32 20.67-76.08 20.67-83.06 0-150.38-67.42-150.38-150.59s67.32-150.59 150.38-150.59c4.21 0 8.38.17 12.5.52-32.77 71.4-62.29 194.52 63.58 279.99z" fill="#cb8a5a"/><path d="m264.141 267.509c0 44.84-27.96 83.14-67.37 98.37-173.5-64.39-42.4-203.68-42.4-203.68 1.5-.07 3-.1 4.51-.1 58.13 0 105.26 47.2 105.26 105.41z" fill="#cb8a5a"/><path d="m196.771 365.879c-11.75 4.55-24.53 7.04-37.89 7.04-58.14 0-105.27-47.19-105.27-105.41 0-56.7 44.71-102.95 100.76-105.31-18.28 60.96-21.25 138.89 42.4 203.68z" fill="#c47b46"/><path d="m203.991 267.509c0 24.74-19.86 44.84-44.49 45.17-60.56-29.78-17.12-86.47-16.31-87.53.01-.01.01-.01.01-.01 4.88-1.81 10.17-2.8 15.68-2.8 24.91 0 45.11 20.22 45.11 45.17z" fill="#daa985"/><path d="m159.501 312.679c-.2.01-.41.01-.62.01-24.92 0-45.12-20.23-45.12-45.18 0-19.43 12.25-35.99 29.44-42.37-1.32 28.64 2.87 58.54 16.3 87.54z" fill="#cb8a5a"/></g><g><path d="m511.143 70.372c3.788-16.162-6.252-32.403-22.381-36.203-19.691-4.639-38.07 11.115-36.881 31.095-14.416 16.616-25.02 36.292-30.993 57.445-9.208-1.625-18.697-2.019-28.098-1.137-6.024-20.713-16.52-40.005-30.662-56.308 1.197-20.096-17.286-35.713-36.881-31.096-16.128 3.8-26.168 20.041-22.381 36.203 3.143 13.414 14.711 22.515 27.66 23.19 8.891 12.817 15.391 26.889 19.392 41.939-23.105 13.696-41.232 36.569-48.124 64.817-36.509-82.57-146.903-118.029-225.285-67.84-3.53 2.168-4.633 6.787-2.465 10.316s6.786 4.633 10.316 2.465c93.009-58.697 218.814 12.097 217.399 122.277.001 79.004-64.094 143.279-142.878 143.279-125.688.803-190.533-155.427-101.566-244.057 2.909-2.948 2.877-7.697-.071-10.606-2.949-2.91-7.698-2.877-10.606.071-61.049 59.16-59.707 164.941.168 222.678-19.134 15.522-35.589 38.14-44.9 62.084-7.034 18.051 6.275 37.608 25.648 37.608h62.817c9.931-.344 9.923-14.659 0-15h-62.817c-8.826 0-14.892-8.897-11.67-17.167 8.688-22.346 24.209-43.339 42.105-57.242 114.429 95.709 287.221-8.985 255.041-155.879l.811-10.736c.917-30.788 16.963-59.515 48.336-76.696 59.784-30.76 130.782 14.116 129.309 81.333l-1.216 54.925c-.092 4.141 3.191 7.573 7.332 7.664 4.123.098 7.578-3.189 7.664-7.332l1.216-54.926c.778-35.491-16.069-67.41-43.588-87.144 3.805-16.706 10.845-32.743 20.588-46.828 12.933-.676 24.514-9.761 27.661-23.192zm-193.672-3.423c-1.903-8.119 3.129-16.275 11.217-18.18 8.112-1.911 16.195 3.14 18.096 11.255 1.903 8.119-3.129 16.275-11.217 18.18-8.095 1.907-16.19-3.121-18.096-11.255zm28.745 23.141c3.933-2.092 7.287-5.009 9.892-8.474 9.709 12.725 17.114 27.141 21.788 42.459-4.88 1.194-9.657 2.74-14.296 4.628-3.934-13.68-9.753-26.606-17.384-38.613zm121.01-30.066c1.91-8.147 10.017-13.159 18.097-11.255 8.088 1.906 13.119 10.061 11.216 18.18-1.909 8.147-10.017 13.159-18.096 11.255-8.088-1.906-13.12-10.061-11.217-18.18zm-31.791 66.361c4.624-16.187 12.265-31.401 22.467-44.769 2.608 3.469 5.966 6.389 9.905 8.482-8.213 12.984-14.436 27.273-18.35 42.133-4.524-2.293-9.208-4.247-14.022-5.846z"/><path d="m497.257 305.304c-4.127-.093-7.572 3.191-7.664 7.332l-1.253 56.547c-3.381 42.348-31.974 76.524-69.51 89.118 16.323-13.622 27.828-33.175 31.277-55.794 6.237-40.901-6.251-89.699-46.039-89.699-76.979 0-56.01 150.727-193.924 150.782h-89.278c-9.931.344-9.923 14.659 0 15h265.508c61.184 0 112.17-47.226 116.938-108.448.011-.138.018-.277.021-.416l1.257-56.759c.091-4.14-3.192-7.572-7.333-7.663zm-93.189 22.505c29.126 0 35.85 42.01 31.211 72.438-5.467 35.854-35.115 62.482-70.499 63.317l-86.235.028c74.428-38.193 76.533-135.783 125.523-135.783z"/><path d="m158.88 380.58c62.179 0 112.765-50.713 112.765-113.047-5.673-149.768-219.88-149.727-225.53.001 0 62.333 50.586 113.046 112.765 113.046zm0-211.094c53.908 0 97.765 43.984 97.765 98.047-4.919 129.895-190.631 129.86-195.53-.001 0-54.063 43.857-98.046 97.765-98.046z"/><path d="m158.88 320.267c29.011 0 52.614-23.656 52.614-52.734-2.647-69.864-102.591-69.845-105.228.001 0 29.077 23.603 52.733 52.614 52.733zm0-90.469c20.74 0 37.614 16.927 37.614 37.734-1.893 49.992-73.342 49.978-75.228 0 0-20.806 16.874-37.734 37.614-37.734z"/><path d="m349.933 219.236v-12.016c-.344-9.931-14.659-9.923-15 0v12.015c.344 9.931 14.659 9.924 15 .001z"/><path d="m474.657 219.236v-12.016c-.344-9.931-14.659-9.923-15 0v12.015c.344 9.931 14.659 9.924 15 .001z"/><path d="m426.897 223.798c2.717-3.126 2.386-7.864-.741-10.581-3.125-2.717-7.863-2.386-10.581.74-5.721 6.581-15.841 6.582-21.562 0-6.774-7.27-17.574 2.126-11.321 9.84 11.692 13.453 32.514 13.452 44.205.001z"/></g></svg>