<svg id="Capa_1" enable-background="new 0 0 512 512" height="512" viewBox="0 0 512 512" width="512" xmlns="http://www.w3.org/2000/svg"><g><g><path d="m99.559 46.231c12.088-23.025 36.233-38.731 64.037-38.731 39.923 0 72.288 32.365 72.288 72.288 0 35.04-24.932 64.254-58.013 70.878z" fill="#e6876e"/><path d="m130.285 87.206 47.586 63.46c33.081-6.625 58.013-35.838 58.013-70.878 0-23.356-11.088-44.113-28.275-57.328-30.983 14.417-57.539 36.629-77.324 64.746z" fill="#db6747"/><path d="m186.123 117.109c0 12.109-2.986 23.533-8.252 33.558-4.613.923-9.392 1.41-14.275 1.41-39.923 0-72.288-32.365-72.288-72.288 0-12.109 2.986-23.533 8.252-33.558 4.613-.923 9.392-1.41 14.275-1.41 39.922 0 72.288 32.365 72.288 72.288z" fill="#fff2ce"/><path d="m480.349 46.231c-12.088-23.025-36.233-38.731-64.037-38.731-39.923 0-72.288 32.365-72.288 72.288 0 35.04 24.932 64.254 58.013 70.878z" fill="#e6876e"/><path d="m372.299 22.46c-17.188 13.215-28.275 33.972-28.275 57.328 0 35.04 24.932 64.254 58.013 70.878l47.586-63.46c-19.785-28.117-46.341-50.329-77.324-64.746z" fill="#db6747"/><path d="m393.785 117.109c0 12.109 2.986 23.533 8.252 33.558 4.613.923 9.392 1.41 14.275 1.41 39.923 0 72.288-32.365 72.288-72.288 0-12.109-2.986-23.533-8.252-33.558-4.613-.923-9.392-1.41-14.275-1.41-39.922 0-72.288 32.365-72.288 72.288z" fill="#fff2ce"/><path d="m163.596 152.077c4.883 0 9.662-.487 14.275-1.41 5.266-10.025 8.252-21.449 8.252-33.558 0-24.429-12.131-46.012-30.684-59.098-9.848 9.38-18.755 19.819-26.559 31.205-8.133 11.866-14.86 24.478-20.134 37.629 13.258 15.439 32.904 25.232 54.85 25.232z" fill="#ffe0bc"/><path d="m471.162 126.846c-5.274-13.151-12.001-25.763-20.134-37.629-7.804-11.387-16.711-21.825-26.559-31.205-18.553 13.085-30.684 34.668-30.684 59.098 0 12.108 2.986 23.533 8.252 33.558 4.613.922 9.392 1.41 14.275 1.41 21.945-.001 41.592-9.794 54.85-25.232z" fill="#ffe0bc"/><path d="m198.469 457.211c-162.683.004-67.412-151.921-148.422-167.295-20.83-3.953-32.602-26.172-23.58-45.358 15.268-32.466 47.084-68.063 112.247-55.511l82.458 124.033v64.738z" fill="#e6876e"/><path d="m352.188 46.402-20.302 11.865-20.302-22.595c-7.079-.926-14.297-1.41-21.629-1.41s-14.55.484-21.629 1.41l-20.302 24.792-20.304-14.062c-60.362 24.576-102.918 83.819-102.918 153.011 0 91.211 73.941 144.418 165.152 144.418s165.152-53.207 165.152-144.418c0-69.192-42.557-128.435-102.918-153.011z" fill="#e6876e"/><path d="m342.459 324.762c-98.914 0-179.099-80.186-179.099-179.099 0-23.117 4.382-45.21 12.357-65.497-31.374 30.058-50.914 72.366-50.914 119.247 0 91.211 73.941 144.418 165.152 144.418 36.774 0 70.737-8.654 98.182-24.956-14.584 3.836-29.891 5.887-45.678 5.887z" fill="#db6747"/><path d="m397.205 409.775c0 59.234-48.019 76.311-107.253 76.311s-107.252-17.077-107.252-76.311 48.019-107.253 107.253-107.253 107.252 48.019 107.252 107.253z" fill="#e6876e"/><path d="m227.72 46.402v45.002c0 11.213 9.09 20.302 20.302 20.302 11.213 0 20.302-9.09 20.302-20.302v-55.732c-14.18 1.855-27.791 5.514-40.604 10.73z" fill="#4a5561"/><path d="m331.885 111.706c11.213 0 20.302-9.09 20.302-20.302v-45.002c-12.812-5.216-26.424-8.875-40.604-10.73v55.732c0 11.213 9.09 20.302 20.302 20.302z" fill="#4a5561"/><g><g><g><ellipse cx="208.978" cy="221.63" fill="#fff2ce" rx="23.794" ry="29.879" transform="matrix(.002 -1 1 .002 -13.11 430.122)"/></g><g><ellipse cx="370.93" cy="221.985" fill="#fff2ce" rx="23.794" ry="29.879" transform="matrix(.002 -1 1 .002 148.134 592.428)"/></g></g></g><path d="m338.43 472.985c-46.561 0-84.306-37.745-84.306-84.306 0-39.972 27.828-73.422 65.161-82.096-9.323-2.645-19.162-4.061-29.332-4.061-59.234 0-107.253 48.019-107.253 107.253s48.019 76.311 107.253 76.311c32.791 0 62.14-5.239 81.813-19.96-10.226 4.407-21.493 6.859-33.336 6.859z" fill="#db6747"/><path d="m350.407 335.291c.166 1.762.249 3.566.249 5.432 0 33.527-27.182 71.065-60.698 71.065-33.527 0-60.709-37.539-60.709-71.065 0-1.866.083-3.67.249-5.432z" fill="#db6747"/><path d="m271.812 354.893c0-6.757.832-13.317 2.366-19.602h-44.68c-.166 1.762-.249 3.566-.249 5.432 0 33.527 27.182 71.065 60.709 71.065 1.501 0 2.983-.101 4.457-.248-13.999-14.764-22.603-34.695-22.603-56.647z" fill="#c85036"/><path d="m350.407 335.291c-18.723 5.629-39.114 8.542-60.449 8.542-21.345 0-41.737-2.913-60.46-8.542 2.789-29.909 28.799-44.899 60.46-44.899 31.65 0 57.66 14.991 60.449 44.899z" fill="#fff2ce"/><path d="m270.882 469.224-2.717-10.397c-4.17-15.958-18.586-27.09-35.079-27.09-16.494 0-30.909 11.132-35.079 27.09l-2.717 10.397c-4.663 17.842 8.8 35.276 27.242 35.276h21.109c18.441 0 31.904-17.433 27.241-35.276z" fill="#f89f86"/><path d="m309.023 469.224 2.717-10.397c4.17-15.958 18.586-27.09 35.079-27.09 16.493 0 30.909 11.132 35.079 27.09l2.717 10.397c4.663 17.842-8.8 35.276-27.242 35.276h-21.109c-18.441 0-31.904-17.433-27.241-35.276z" fill="#f89f86"/><path d="m302.003 291.162c-3.894-.509-7.92-.77-12.045-.77-31.661 0-57.671 14.99-60.46 44.899 13.596 4.088 28.075 6.735 43.158 7.883 2.976-20.885 13.774-39.246 29.347-52.012z" fill="#ffe0bc"/><path d="m221.173 313.079h-40.096c-17.877 0-32.369 14.492-32.369 32.369 0 17.877 14.492 32.369 32.369 32.369h40.096c17.877 0 32.369-14.492 32.369-32.369-.001-17.877-14.493-32.369-32.369-32.369z" fill="#f89f86"/><path d="m358.735 313.079h40.096c17.877 0 32.369 14.492 32.369 32.369 0 17.877-14.492 32.369-32.369 32.369h-40.096c-17.877 0-32.369-14.492-32.369-32.369.001-17.877 14.493-32.369 32.369-32.369z" fill="#f89f86"/><g><path d="m289.954 313.713c-10.02 0-18.142-8.122-18.142-18.142v-13.772c0-10.02 8.122-18.142 18.142-18.142s18.142 8.122 18.142 18.142v13.772c0 10.019-8.123 18.142-18.142 18.142z" fill="#db6747"/></g></g><g><path d="m219.178 191.765v12.142c0 4.142 3.358 7.5 7.5 7.5s7.5-3.358 7.5-7.5v-12.142c0-4.142-3.358-7.5-7.5-7.5s-7.5 3.358-7.5 7.5z"/><path d="m353.055 184.265c-4.142 0-7.5 3.358-7.5 7.5v12.142c0 4.142 3.358 7.5 7.5 7.5s7.5-3.358 7.5-7.5v-12.142c0-4.142-3.358-7.5-7.5-7.5z"/><path d="m311.805 211.147c0 3.93-3.197 7.127-7.127 7.127s-7.126-3.197-7.126-7.127c0-4.142-3.358-7.5-7.5-7.5s-7.5 3.358-7.5 7.5c0 3.93-3.197 7.127-7.127 7.127s-7.127-3.197-7.127-7.127c0-4.142-3.358-7.5-7.5-7.5s-7.5 3.358-7.5 7.5c0 12.201 9.926 22.127 22.127 22.127 5.604 0 10.724-2.098 14.627-5.544 3.903 3.446 9.023 5.544 14.626 5.544 12.201 0 22.127-9.926 22.127-22.127 0-4.142-3.358-7.5-7.5-7.5s-7.5 3.358-7.5 7.5z"/><path d="m83.299 358.918c2.467 20.578 5.264 43.901 16.502 63.146 2.089 3.577 6.682 4.783 10.258 2.695 3.577-2.088 4.784-6.682 2.695-10.258-9.669-16.559-12.156-37.305-14.562-57.369-3.963-33.06-8.063-67.245-46.746-74.585-16.154-3.067-25.072-20.168-18.191-34.798 7.979-16.968 18.478-30.151 31.205-39.184 14.673-10.415 32.458-15.281 52.926-14.506-.004.137-.002.271-.006.408-.046 1.646-.077 3.294-.077 4.947 0 41.727 15.412 80.949 47.907 109.46-14.362 6.256-24.001 20.533-24.001 36.574 0 20.786 16.072 38.091 36.634 39.739-4.538 20.773-3.797 45.02 6.176 64.085-23.171-1.476-40.887-6.687-53.886-15.81-3.39-2.38-8.068-1.561-10.447 1.83-2.38 3.391-1.561 8.068 1.83 10.447 16.391 11.504 38.474 17.663 67.254 18.771l-.736 2.817c-5.905 22.592 11.126 44.673 34.497 44.673h21.109c13.545 0 25.291-7.439 31.423-18.799 4.798.253 9.781.384 14.889.384s10.091-.131 14.889-.384c6.126 11.343 17.859 18.799 31.424 18.799h21.109c23.351 0 40.407-22.061 34.498-44.672l-2.19-8.379c9.964-12.949 15.023-29.463 15.023-49.174 0-8.317-.904-16.553-2.663-24.599 20.486-1.643 36.657-18.827 36.657-39.728 0-16.348-9.894-30.422-24.004-36.567 9.042-7.923 16.934-16.814 23.563-26.564 2.329-3.426 1.44-8.09-1.985-10.419-3.427-2.329-8.091-1.439-10.419 1.986-8.239 12.119-18.691 22.774-31.087 31.697h-36.031c-3.811 0-7.943.64-11.186 1.588-7.943-10.569-19.441-17.246-31.954-20.843v-4.525c0-14.16-11.546-25.642-25.642-25.642-14.139 0-25.643 11.503-25.643 25.642v4.526c-12.69 3.63-24.124 10.416-31.955 20.842-3.394-.996-7.438-1.588-11.184-1.588h-36.009c-35.578-25.584-52.862-62.858-52.862-106.166 0-43.651 17.916-84.51 48.757-113.979 0 0 .001-.001.001-.001 11.419-10.91 24.433-20.15 39.16-27.44v33.411c0 15.33 12.472 27.802 27.802 27.802 15.33 0 27.802-12.472 27.802-27.802v-49.014c9.406-.837 18.852-.837 28.258 0v49.012c0 15.33 12.472 27.802 27.802 27.802 13.414 0 24.639-9.549 27.236-22.206.371-1.808.566-3.68.566-5.596v-33.411c53.774 26.549 87.918 81.344 87.918 141.42 0 17.73-2.956 34.431-8.785 49.638-1.483 3.868.451 8.205 4.318 9.688 3.868 1.482 8.205-.451 9.688-4.318 6.489-16.927 9.779-35.434 9.779-55.007 0-17.122-2.5-33.931-7.355-50.006 25.014-14.016 40.85-40.649 40.85-69.619 0-12.887-3.15-25.697-9.111-37.043s0-.001-.001-.001c-.097-.106-20.789-42.745-70.674-42.745-27.577 0-52.825 14.069-67.401 37.119-11.751-4.27-23.949-7.261-36.355-8.884-.003 0-.005 0-.008 0-14.941-1.954-30.25-1.954-45.194 0-.001 0-.001 0-.002 0-12.406 1.623-24.604 4.614-36.356 8.884-14.575-23.05-39.823-37.119-67.4-37.119-29.753 0-56.835 16.379-70.677 42.744 0 .001 0 .001-.001.002-5.96 11.348-9.11 24.156-9.11 37.042 0 28.97 15.835 55.604 40.85 69.619-2.917 9.66-4.983 19.585-6.167 29.685-56.063-2.428-84.627 32.116-98.81 62.273-11.048 23.494 3.169 51.022 28.969 55.918 26.547 5.039 30.461 26.703 34.649 61.635zm366.888-223.916c-8.531-21.196-21.235-40.276-36.511-55.995 14.242-19.597 37.618-29.44 61.63-26.024 3.799 8.364 5.794 17.557 5.794 26.805 0 22.639-11.907 43.529-30.913 55.214zm-33.875-120.002c19.078 0 36.802 8.292 48.951 22.325-24.371.258-47.608 11.891-62.557 31.32-11.972-10.335-25.504-19.073-39.687-25.693 12.02-17.418 31.789-27.952 53.293-27.952zm-97.229 29.454c8.717 1.63 17.286 3.999 25.604 7.079v39.871c0 .882-.09 1.744-.26 2.577-1.196 5.829-6.365 10.226-12.542 10.226-7.059 0-12.802-5.743-12.802-12.802zm-73.125 299.054c1.152 14.475-10.388 26.809-24.786 26.809-15.072 0-25.687 0-40.096 0-13.758 0-24.869-11.193-24.869-24.869 0-13.663 11.099-24.869 24.869-24.869h40.096c12.968 0 23.763 10.003 24.786 22.929zm19.125-41.684c2.761 11.045 12.873 19.38 24.857 19.389h.014s.009 0 .014 0c11.892-.009 22.064-8.218 24.857-19.389 7.36 2.624 14.053 6.564 19.113 12.4-6.165 4.89-11.109 11.989-13.45 19.955-9.574 1.374-19.739 2.155-30.53 2.155-9.887 0-20.283-.684-30.538-2.154-2.281-7.75-7.089-14.908-13.451-19.957 5.059-5.816 11.896-9.88 19.114-12.399zm35.513-20.025v13.772c0 5.896-4.801 10.642-10.642 10.642-5.868 0-10.642-4.774-10.642-10.643v-13.771c0-5.868 4.774-10.642 10.642-10.642 5.844 0 10.642 4.749 10.642 10.642zm32.263 93.964c-9.158 15.361-25.115 28.525-42.901 28.525-17.799 0-34.193-13.493-42.911-28.524 7.542-6.45 12.725-15.793 13.789-26.252.054.007.109.011.163.018 9.266 1.17 19.611 1.803 28.96 1.803 9.944 0 19.239-.643 29.115-1.821 1.084 10.678 6.435 19.962 13.785 26.251zm-89.218 121.237h-21.109c-13.529 0-23.409-12.783-19.985-25.88l2.717-10.397c3.251-12.441 14.559-21.486 27.823-21.486 12.994 0 24.494 8.753 27.822 21.486l2.717 10.397c3.415 13.086-6.443 25.88-19.985 25.88zm113.733 0h-21.109c-13.521 0-23.406-12.777-19.985-25.879l2.717-10.397c3.306-12.651 14.747-21.486 27.823-21.486 9.549 0 18.504 4.768 23.848 12.694 4.262 6.355 4.455 11.875 6.692 19.189 3.421 13.088-6.446 25.879-19.986 25.879zm25.108-54.412c-8.279-11.685-21.653-18.341-35.636-18.35-.009 0-.018-.001-.027-.001-19.896 0-37.305 13.444-42.335 32.694l-2.717 10.397c-.895 3.427-1.327 7.315-1.115 11.053-6.957.271-14.441.271-21.398 0 .211-3.834-.238-7.699-1.115-11.053l-2.717-10.397c-5.002-19.139-22.353-32.693-42.335-32.693-.009 0-.018.001-.027.001-14.194.009-27.469 6.833-35.625 18.335-8.856-16.549-8.773-39.078-4.197-57.257h27.935.026c4.432-.004 8.883-.791 12.802-2.122 12.146 20.473 32.27 36.094 55.958 36.094 23.65 0 43.996-15.809 55.947-36.095 3.839 1.314 8.321 2.119 12.804 2.123h.026 27.95c2.006 7.958 3.02 16.162 3.02 24.458-.001 12.912-2.376 23.75-7.224 32.813zm41.218-97.14c0 13.712-11.156 24.869-24.869 24.869-14.215 0-25.051 0-40.096 0-13.779 0-24.869-11.263-24.869-24.869 0-13.69 11.149-24.869 24.869-24.869h40.096c13.712 0 24.869 11.156 24.869 24.869zm-188.479-293.915c8.319-3.08 16.887-5.449 25.604-7.079v46.95c0 7.059-5.743 12.802-12.802 12.802s-12.802-5.743-12.802-12.802zm-71.625-36.533c21.504 0 41.273 10.535 53.292 27.952-14.195 6.63-27.711 15.356-39.686 25.693-14.531-18.917-37.545-31.056-62.557-31.32 12.148-14.033 29.873-22.325 48.951-22.325zm-64.789 64.788c0-9.247 1.995-18.44 5.795-26.805 23.382-3.338 47.161 6.033 61.63 26.024-15.036 15.472-27.772 34.283-36.511 55.995-19.006-11.685-30.914-32.575-30.914-55.214z"/></g></g></svg>