<svg id="Layer_1" enable-background="new 0 0 511.999 511.999" height="512" viewBox="0 0 511.999 511.999" width="512" xmlns="http://www.w3.org/2000/svg"><g><path d="m203.293 413.887h45.176v75.294h-45.176z" fill="#e2b844"/><path d="m278.587 504.24h-95.412c-5.523 0-10-4.477-10-10 0-11.111 9.007-20.118 20.118-20.118h85.294c8.317 0 15.059 6.742 15.059 15.059 0 8.316-6.742 15.059-15.059 15.059z" fill="#ddae2c"/><path d="m165.646 413.887h45.176v75.294h-45.176z" fill="#f2d98d"/><path d="m104.19 372.908c-20.897-10.186-45.949-1.197-55.955 20.076l-39.178 83.294c-3.71 7.889-.436 17.345 7.313 21.123 34.046 16.594 74.859 1.951 91.16-32.706l13.93-29.615h.002l2.45-5.209c9.988-21.236 1.198-46.765-19.722-56.963z" fill="#54669b"/><path d="m325.839 344.439c-9.496 22.447-23.845 42.231-41.83 57.68-315.56-178.41-76.25-392.8-76.25-392.8 46.768-8.113 93.074 15.96 116.32 59.77l-21.31 113.05c25.254 161.984 23.244 143.826 23.07 162.3z" fill="#7c85aa"/><path d="m284.009 402.119c-43.47 37.325-86.581 34.36-105.86 34.36-51.008 0-93.121-39.026-102.64-90.18-2.14-11.5 6.8-22.1 18.5-22.1 5.19 0 9.89-2.1 13.3-5.5 3.4-3.41 5.5-8.11 5.5-13.3v-176.42c0-60.35 41.12-110.4 94.95-119.66-49.86 70.22-137.28 243.67 76.25 392.8z" fill="#6e7ca5"/><path d="m188.634 154.745c3.245 35.587 24.258 56.669 49.293 77.196 38.173 31.292 84.789 57.108 87.42 113.644 8.641-20.352 13.475-42.425 13.475-66.229v-155.65c0-14.105-2.184-27.667-6.214-40.318-2.69-8.445-8.218-15.535-15.535-19.755-12.337-7.116-26.456-11.158-41.459-11.158-50.917 0-91.893 48.487-86.98 102.27z" fill="#fef5e6"/><path d="m443.709 175.959-35.33 39.68-70.76-12.09-34.84-26.56v-.01h-.01c6.71-27.39 31.85-44.93 26-101.92 40.8 0 81.65 15.5 111.98 40.97z" fill="#f2d98d"/><path d="m435.429 218.249-21.71 16.55c-18.74-.78-40.89-.8-66.89.38-24.66 1.13-45.76-20.03-45.51-46.74.075-7.647 1.46-10.678 1.46-11.46 0 0 48.99-6.09 104.06 11.48z" fill="#ebca5f"/><path d="m199.569 324.609c-112.56-13.38-50.45-114.02-50.45-114.02 50.621 0 78.853 66.948 50.45 114.02z" fill="#6e7ca5"/><path d="m199.569 324.609c-.58.97-1.19 1.93-1.82 2.87-26.17 39.17-68.35 80.3-131.69 85.79-.05.01-.11.01-.16.01-19.13 1.641-33.556-.146-49.98-2.88-7.337-1.4-10.757-11.361-6.58-18.3l89.69-150.7c11.015-18.235 29.213-30.729 50.09-30.81 5.08 36.84 20.12 75.52 50.45 114.02z" fill="#6171a0"/><path d="m240.94 504.24h-95.412c-5.523 0-10-4.477-10-10 0-11.111 9.007-20.118 20.118-20.118h85.294c8.317 0 15.059 6.742 15.059 15.059 0 8.316-6.742 15.059-15.059 15.059z" fill="#ebca5f"/><g><path d="m285.121 124.625c0 30.934-58.71 30.934-58.71 0 0-30.933 58.71-30.933 58.71 0z" fill="#e79ea8"/></g><path d="m504.469 244.359c.08 2.62-2.3 4.54-4.6 3.67l-54.44-26.08-37.05-6.31c-6.558-35.854 4.903-73.431 32.37-99.61 3.91 3.29 7.68 6.74 11.31 10.35 30.81 30.61 50.86 72.36 52.41 117.98z" fill="#e2796e"/><path d="m499.869 248.029c-9.7-3.62-35.46-11.14-86.15-13.23-5.689-14.93-7.957-31.055-6.88-46.34 31.72 10.12 65.46 28.07 93.03 59.57z" fill="#de695c"/></g><g><path d="m511.4 234.708c-.017-.185-.036-.369-.053-.554-8.13-89.907-85.273-164.041-175.513-166.531-6.453-12.026-16.246-20.501-24.62-29.476-44.036-47.211-116.712-51.911-165.798-5.037-2.778 2.653-3.345 7.018-1.039 10.09 2.758 3.674 8.001 4.018 11.213.936 42.505-40.776 105.684-37.507 144.627 4.213-62.936-18.085-125.383 37.69-119.036 107.074 8.248 90.586 130.502 101.944 136.555 188.814-22.274 50.002-67.455 81.576-117.392 84.479-9.607.558-23.851.431-33.987-.508-17.632-2.299-33.847-9.678-47.36-20.907 23.304-10.386 44.674-26.477 63.888-48.173 2.747-3.101 2.459-7.841-.642-10.587-3.102-2.746-7.842-2.459-10.587.642-41.712 47.098-93.893 65.38-154.314 53.842-1.186-.227-2.239-2.087-2.301-4.062l-.012-.348c-.004-.114-.011-.221-.013-.329 1.258-4.491 19.541-33.889 90.47-153.054 26.808-45.034 84.695-31.381 96.107 21.518 4.272 19.805.67 40.291-9.883 56.267-5.421 8.617 6.258 16.778 12.282 8.619 12.943-19.375 17.413-44.178 12.264-68.049-10.391-48.167-56.2-74.343-95.938-53.075v-81.539c0-20.458 5.05-40.456 14.604-57.832 1.995-3.63.671-8.19-2.959-10.186-3.628-1.996-8.19-.671-10.186 2.958-10.769 19.584-16.46 42.081-16.46 65.059v92.492c-4.811 4.621-9.1 10.011-12.722 16.095-94.37 158.554-92.857 153.298-92.545 161.87.287 9.218 6.24 16.755 14.479 18.33 4.299.821 8.572 1.491 12.818 2.033l-25.063 53.29c-5.438 11.563-.589 25.494 10.81 31.053 37.82 18.438 83.129 2.239 101.234-36.25 10.244-21.784 14.091-29.815 16.452-35.068 8.684 4.327 17.876 7.436 27.381 9.256v24.543h-2.503c-28.04-.611-40.218 42.353-10.118 45.118 0-.001 27.183-.001 27.183-.001 10.138-.267 10.44-14.535.314-15h-27.497c-5.722 0-1.588-15.118 10.118-15.118h85.025c10.235.264 10.409 14.686.258 15.118h-37.283c-4.107 0-7.688 3.164-7.811 7.269-.128 4.247 3.277 7.731 7.497 7.731h75.257c6.011 0 11.673-2.343 15.954-6.607 14.171-14.172 4.12-38.513-15.954-38.513h-22.62v-37.22c33.223-16.049 58.986-43.628 74.31-76.532 18.373-39.453 16.04-67.367 16.04-110.182.284-.008.565-.001.85-.014 16.543-.751 45.914-1.561 76.048.113 71.604 4.215 74.08 18.057 84.045 10.941 6.077-4.336 4.814-11.106 4.126-19.011zm-410.646 226.793c-14.551 30.929-50.816 43.909-81.086 29.151-4.069-1.984-5.778-7.003-3.811-11.187l27.412-58.283c20.078.915 40.19-1.384 60.002-7.83 4.562 4.38 9.409 8.32 14.494 11.802-1.815 4.217-6.182 13.315-17.011 36.347zm102.576 5.115h-30.17v-22.765c3.441.161 20.927.352 30.17-.322zm37.65-.003-22.649.003v-24.969c7.699-1.383 15.267-3.396 22.649-6.003zm37.62 15c6.716 0 10.048 8.205 5.357 12.896-2.941 2.929-4.611 2.223-21.754 2.223 1.711-4.799 1.774-10.147-.001-15.12h16.398zm60.625-398.849c32.452 1.69 63.752 13.495 90.405 33.933-16.018 17.613-26.026 39.242-29.368 61.961-36.876-10.315-69.756-10.737-86.587-10.007 9.084-20.053 27.837-40.678 25.55-85.887zm-11.994 233.393c-25.164-71.556-124.442-88.855-131.111-162.097-6.034-65.971 60.233-116.797 117.219-83.937 4.667 2.686 8.473 7.016 10.841 12.244 2.919 49.791-22.471 65.578-28.706 92.963-7.379 30.248 10.56 58.067 35.857 65.43-.001 39.309.985 53.124-4.1 75.397zm19.265-88.476c-21.828.994-40.32-19.49-37.375-43.726 13.352-.885 49.704-1.784 89.914 9.961-.166 11.046 1.238 22.188 4.275 33.113-18.932-.454-38.413-.183-56.814.652zm72.614-.151c-3.087-9.412-4.735-19.06-5.035-28.667 22.823 8.391 43.034 19.995 60.397 34.673-17.22-3.248-37.859-5.135-55.362-6.006zm-4.323-44.321c2.574-20.874 11.578-40.82 26.354-56.878h.001c31.173 28.356 50.719 66.504 55.021 106.778-22.241-22.16-49.543-38.897-81.376-49.9z"/><path d="m272.655 82.619c-4.105.123-7.27 3.704-7.27 7.811v11.372c.269 10.144 14.538 10.434 15 .314v-12c0-4.218-3.482-7.623-7.73-7.497z"/></g></svg>