<svg id="Layer_1" enable-background="new 0 0 513.519 513.519" height="512" viewBox="0 0 513.519 513.519" width="512" xmlns="http://www.w3.org/2000/svg"><g><path d="m279.359 354.5h-45.176l-31.138-286.47c-3.475-31.97 21.568-59.882 53.726-59.882 32.159 0 57.201 27.912 53.726 59.882z" fill="#cb8a5a"/><path d="m278.171 365.79-42.176-16.19 73.592-278.602c8.213-31.092 41.595-48.176 71.618-36.651 30.022 11.525 43.399 46.557 28.698 75.159z" fill="#daa985"/><path d="m264.862 384.618-33.573-30.229 168.546-233.724c18.81-26.084 56.097-30.07 79.996-8.551 23.898 21.518 23.832 59.018-.143 80.451z" fill="#cb8a5a"/><path d="m201.987 395.74-20.51-40.253 241.111-157.799c26.908-17.61 63.147-7.969 77.747 20.684 14.6 28.653 1.099 63.639-28.965 75.057z" fill="#daa985"/><path d="m235.371 365.79 42.176-16.19-73.592-278.602c-8.213-31.092-41.595-48.176-71.618-36.651-30.023 11.525-43.399 46.557-28.698 75.159z" fill="#daa985"/><path d="m248.68 384.618 33.573-30.229-168.546-233.725c-18.81-26.084-56.097-30.07-79.996-8.551-23.898 21.518-23.832 59.018.143 80.451z" fill="#cb8a5a"/><path d="m311.555 395.74 20.51-40.253-241.111-157.798c-26.908-17.61-63.147-7.969-77.747 20.684-14.6 28.653-1.099 63.639 28.965 75.057z" fill="#daa985"/><path d="m167.672 286.738s-54.116-1.219-87.556 45.931c-32.767 46.2-21.904 119.058 21.19 148.28 14.104 9.564 31.032 16.61 50.295 16.61z" fill="#54669b"/><path d="m345.87 286.738s54.116-1.219 87.556 45.931c32.767 46.2 21.904 119.058-21.19 148.28-14.104 9.564-31.032 16.61-50.295 16.61z" fill="#6171a0"/><path d="m399.831 414.278c0 18.439-2.39 34.34-6.87 47.979-8.44 25.641-32.56 42.83-59.55 42.83h-20.17l-10.5-5.76-12.09 5.76h-12c-.01-.01-.01-.01-.02-.01-2.65-.64-246.35-60.75-28.98-263.31 2.36-.141 4.73-.21 7.12-.21 79.01.001 143.06 77.33 143.06 172.721z" fill="#6e7ca5"/><path d="m278.651 505.087h-53.7l-.02-.109-11.84-5.65-14.82 5.65-.07.109h-18.07c-26.99 0-51.1-17.189-59.54-42.819-4.49-13.641-6.88-29.54-6.88-47.99 0-92.51 60.24-168.03 135.94-172.51-.22 19.76-.41 33.85-.41 33.85s-78.87 145.29 29.39 229.46c.01 0 .01 0 .02.009z" fill="#6171a0"/><path d="m392.301 185.087c0 72.771-60.68 131.771-135.53 131.771-11.06 0-21.8-1.29-32.09-3.71-202.93-112.891-4.89-253.941-2.84-255.4.01-.01.02-.01.02-.01 11.14-2.88 22.84-4.41 34.91-4.41 74.85 0 135.53 58.99 135.53 131.759z" fill="#7c85aa"/><path d="m224.681 313.148c-59.36-14.021-103.441-66.04-103.441-128.061 0-61.029 42.691-112.38 100.62-127.35-33.449 44.541-106.799 165.591 2.821 255.411z" fill="#6e7ca5"/><path d="m226.653 356.651c0-23.762 13.484-107.563 30.118-107.563s30.118 83.801 30.118 107.563-13.484 43.025-30.118 43.025-30.118-19.262-30.118-43.025z" fill="#d95749"/><path d="m264.293 305.07c-5.774-11.059-22.399-64.75-11.341-70.524s45.613 38.557 51.387 49.615c5.774 11.059 1.49 24.704-9.569 30.478-11.057 5.774-24.703 1.49-30.477-9.569z" fill="#de695c"/><path d="m253.429 325.067c4.59-13.006 14.883-74.194 2.485-78.569-12.398-4.376-42.793 49.717-47.383 62.723s1.74 27.096 14.138 31.472c12.398 4.375 26.17-2.621 30.76-15.626z" fill="#e2796e"/><path d="m286.889 208.486c0-30.741-16.704-42.221-30.118-42.221s-30.118 11.481-30.118 42.221 16.704 55.661 30.118 55.661 30.118-24.92 30.118-55.661z" fill="#fef5e6"/><g fill="#e79ea8"><path d="m207.314 182.396c0 30.475-57.839 30.475-57.839 0s57.839-30.475 57.839 0z"/><path d="m306.228 182.396c0 30.475 57.839 30.475 57.839 0s-57.839-30.475-57.839 0z"/></g><path d="m313.242 505.088h-22.588c-10.396 0-18.823-8.428-18.823-18.823 0-10.396 8.428-18.824 18.823-18.824h22.588c10.396 0 18.824 8.428 18.824 18.824-.001 10.396-8.429 18.823-18.824 18.823z" fill="#fef5e6"/><path d="m200.3 505.088h22.588c10.396 0 18.824-8.428 18.824-18.823 0-10.396-8.428-18.824-18.824-18.824h-22.588c-10.396 0-18.824 8.428-18.824 18.824.001 10.396 8.428 18.823 18.824 18.823z" fill="#fbebcf"/></g><g><path d="m489.144 193.611c42.651-47.402-5.923-120.78-66.521-99.269 9.708-61.159-66.426-96.166-106.985-50.306-18.225-58.112-100.196-57.169-117.739-.007-40.183-46.049-116.806-10.212-106.983 50.288-7.282-2.643-15.066-3.925-22.968-3.683-4.14.126-7.395 3.584-7.268 7.725.127 4.182 3.655 7.42 7.725 7.268 11.312-.335 22.303 3.386 30.975 10.507 6.145 5.035 8.334 8.914 21.091 26.6-6.339 19.35-8.391 40.292-5.322 61.7l-20.09-13.147c-17.038-11.152-38.522-13.063-57.199-5.37-20.796-19.145-18.98-54.711 4.699-71.456 3.349-2.438 4.086-7.13 1.647-10.478-2.438-3.35-7.13-4.087-10.478-1.647-29.636 20.82-33.754 65.358-9.358 91.246-38.522 28.424-29.819 89.92 15.138 106.732l43.645 16.577c-3.17 3.452-6.243 7.201-9.16 11.313-35.827 50.527-22.652 127.8 23.099 158.825 16.462 11.166 33.67 17.144 51.174 17.814 9.843 4.984 20.819 7.618 31.866 7.618 166.542 0 165.362 2.4 185.146-7.618 17.504-.671 34.711-6.648 51.173-17.814 45.819-31.07 58.861-108.391 23.099-158.826-24.518-34.568-59.564-44.777-78.646-47.787 14.997-15.535 26.236-34.311 32.679-54.903l33.118-21.676c30.909-20.238 72.042 2.099 72.042 38.895 0 19.225-12.07 36.73-30.033 43.559l-21.66 8.227c-3.872 1.471-5.819 5.803-4.349 9.675 1.469 3.864 5.789 5.82 9.675 4.349l21.662-8.228c44.781-16.58 53.742-78.419 15.106-106.703zm-110.629-152.386c26.082 10 37.221 39.999 24.852 64.443-6.733 5.833-9.435 10.231-16.912 20.596-13.489-28.138-36.352-51.195-64.665-65.323 11.316-19.127 35.342-27.927 56.725-19.716zm-64.161 254.746c.264-5.18-.798-10.492-3.367-15.416-3.188-6.092-13.9-20.864-25.375-33.306 5.679-11.46 8.777-25.078 8.777-38.889 0-49.82-42.138-61.908-63.358-37.567-17.864 20.488-14.065 60.728 1.079 83.763-10.349 12.925-21.35 31.889-27.193 44.04-125.034-54.851-86.09-236.573 51.856-237.893 133.847.928 177.213 175.534 57.581 235.268zm-34.963 60.551c0 19.26-10.358 35.53-22.62 35.53-15.017.204-24.991-23.528-22.303-42.985 8.369-1.164 16.163-5.748 21.408-12.888 4.448-5.997 5.888-12.129 7.586-19.986 3.52 3.394 7.822 5.872 12.568 7.221 2.067 13.433 3.361 26.051 3.361 33.108zm-63.788-44.932c2.45-6.938 14.765-30.22 26.647-45.673 3.863 3.015 7.923 4.864 11.99 5.413-.587 18.39-5.212 43.539-7.88 51.112-8.784 22.008-37.843 10.583-30.757-10.852zm41.168-55.068c-8.015 0-22.617-20.976-22.617-48.161 0-46.445 45.234-46.445 45.234 0 0 27.253-14.598 48.161-22.617 48.161zm14.174 44.96c-.872-1.677-2.156-4.821-3.521-8.599.942-7.279 1.88-16.743 1.877-25.519 2.72-1.812 5.359-4.195 7.855-7.097 9.425 10.634 18.094 22.568 20.535 27.233 1.864 3.575 2.227 7.662 1.02 11.509-3.985 12.698-21.518 14.421-27.766 2.473zm-14.174-285.96c22.583 0 41.453 16.135 45.666 37.459-28.635-9.416-60.941-9.994-91.328-.001 4.043-20.609 22.324-37.458 45.662-37.458zm-146.602 90.133c-12.366-24.472-1.211-54.436 24.86-64.432 21.379-8.21 45.406.589 56.722 19.717-28.313 14.128-51.176 37.186-64.666 65.324-7.364-10.21-10.173-14.757-16.916-20.609zm-95.368 137.077c-.007-16.984 9.492-33.279 25.307-41.359 14.884-7.61 32.783-6.668 46.736 2.465l33.05 21.628c6.355 20.4 17.443 39.116 32.727 54.954-14.003 2.211-36.58 8.313-57.3 25.047l-50.485-19.175c-17.964-6.83-30.035-24.336-30.035-43.56zm71.427 94.149c16.548-23.332 38.683-33.933 55.58-38.747-10.546 15.431-19.861 34.099-26.152 52.866-1.316 3.927.8 8.179 4.728 9.495 3.822 1.312 8.186-.763 9.495-4.728 8.061-24.047 21.337-47.813 35.53-63.617 10.389 8.408 21.981 15.342 34.5 20.618-2.236 14.632 5.542 29.312 19.641 34.627-5.375 77.054 73.989 77.952 74.841 9.125 0-7.382-1.176-19.486-3.139-32.756 5.444-1.292 10.312-4.034 14.16-7.82 15.845-5.578 30.223-13.7 42.71-23.809 44.065 49.025 52.212 123.505 37.717 167.649-7.107 21.567-26.635 36.079-48.779 37.55 8.213-17.406-4.571-37.52-23.817-37.52h-22.589c-19.377 0-32.057 20.302-23.76 37.646h-20.244c8.297-17.344-4.384-37.646-23.76-37.646h-22.59c-19.261 0-32.02 20.135-23.817 37.52-7.925-.526-15.707-2.751-22.701-6.523-.073-.04-.148-.079-.223-.116-12.312-6.705-21.486-17.67-25.844-30.899-7.524-22.854-7.805-51.012-4.483-74.211.587-4.101-2.262-7.9-6.362-8.487-4.095-.585-7.899 2.26-8.487 6.362-4.439 31.022-3.311 75.924 15.499 100.988-59.751-23.734-69.392-102.807-37.654-147.567zm204.405 160.581c-14.991-.594-14.963-22.083.02-22.646h22.589c14.994.569 14.999 22.058.02 22.646zm-90.352 0c-14.991-.594-14.963-22.083.02-22.646h22.589c14.994.569 14.999 22.058.02 22.646zm227.032-160.582c31.622 44.595 22.4 123.694-37.646 147.566 24.103-32.132 28.304-120.64-17.606-186.216 16.856 4.858 38.811 15.468 55.252 38.65zm-8.829-145.594-20.113 13.164c3.101-21.385 1.044-42.355-5.299-61.717 12.671-17.567 21.301-34.26 45.643-36.862 44.363-4.746 68.953 49.721 36.958 80.054-19.217-7.951-40.575-5.515-57.189 5.361z"/><path d="m195.249 136.051c-10.309 0-21.265 7.416-21.265 21.159 0 4.143 3.357 7.5 7.5 7.5s7.5-3.357 7.5-7.5c0-5.715 4.795-6.159 6.265-6.159s6.265.444 6.265 6.159c0 4.143 3.357 7.5 7.5 7.5 13.764 0 8.276-28.659-13.765-28.659z"/><path d="m318.293 136.051c-10.309 0-21.265 7.416-21.265 21.159 0 4.143 3.357 7.5 7.5 7.5s7.5-3.357 7.5-7.5c0-5.715 4.795-6.159 6.265-6.159s6.265.444 6.265 6.159c0 4.143 3.357 7.5 7.5 7.5s7.5-3.357 7.5-7.5c0-13.743-10.956-21.159-21.265-21.159z"/></g></svg>