<svg id="Layer_1" enable-background="new 0 0 511.475 511.475" height="512" viewBox="0 0 511.475 511.475" width="512" xmlns="http://www.w3.org/2000/svg"><g><path d="m59.017 262.181c.001 0 .001-.001.002-.002-3.076-3.969-5.627-8.829-7.333-13.973-16.351 10.672-31.687 26.087-42.698 45.275-3.88 6.76.636 16.078 6.659 14.851 1.799-.367 7.29-3.419 17.49-6.089 0-.001 0-.002-.001-.003 9.932-2.602 20.935-3.787 31.563-1.462 3.588-4.727 28.265-9.488 35.527-21.016-6.929-1.405-32.675-6.563-41.209-17.581z" fill="#7ebf32"/><path d="m357.123 328.773c-1.346-3.969-3.16-8.679-4.999-12.803-13.992 13.354-32.861 23.647-58.466 26.387 12.152 27.865 13.389 57.064 14.211 60.164 1.704 6.448 7.298 11.332 13.965 11.332h32.592c8.233 0 14.84-7.327 14.514-16.147-.591-15.999-3.052-43.28-11.817-68.933z" fill="#99ce64"/><path d="m146.299 328.773c.001 0 .001 0 0 0-1.346-3.969-3.16-8.679-4.999-12.803-13.992 13.354-32.861 23.647-58.466 26.387 12.152 27.865 13.389 57.064 14.211 60.164 1.704 6.448 7.298 11.332 13.965 11.332h32.592c8.233 0 14.84-7.327 14.514-16.147-.59-15.999-3.051-43.28-11.817-68.933z" fill="#8ec853"/><path d="m261.717 226.221-36.37 65.46-17.1 1.31c-121.39-42.3-44.46-135.13-44.46-135.13l.45-11.94h52.86z" fill="#daa985"/><path d="m208.246 292.991-75.76 5.78-40.3-72.55 44.62-80.3h30.27c-13.83 45.28-16.639 105.59 41.17 147.07z" fill="#cb8a5a"/><path d="m124.116 123.751c-37.452 21.009-67.141 57.215-79.28 101.87l35.391 13.95 25.189-13.95 37.65-67.76.972-20.078z" fill="#b36d3a"/><path d="m105.417 225.621h-60.58c-2.23 8.2-3.84 16.6-4.81 25.13-1.65 15.39 7.03 26.6 19.37 29.71 3.637.896 11.235 2.002 20.436 3.034l33.712 16.782 25.882-13.436z" fill="#c47b46"/><path d="m312.606 225.951-31.344-16.591-32.785 16.261-30.691 55.24-3.159 14.617 102.023-28.33 7.529-37.27z" fill="#b36d3a"/><path d="m329.346 156.241c-11.79-12.8-25.87-24.02-41.49-32.77-14.84-8.31-31.01-14.39-48-17.86l-33.418 16.219 4.388 36.031 37.65 67.76h64.21l26.458-29.814z" fill="#c47b46"/><path d="m239.856 105.611-29.03 52.25h-47.04c-22.79-27.97 20.58-54.22 20.58-54.22 7.27-.96 14.6-1.45 21.96-1.45 9.1 0 18.22.74 27.27 2.25 2.101.35 4.19.74 6.26 1.17z" fill="#cb8a5a"/><path d="m184.366 103.641c-6.91 13.45-15.32 32.58-20.58 54.22h-20.72l-18.95-34.11c18.68-10.53 39.17-17.32 60.25-20.11z" fill="#c47b46"/><path d="m504.509 172.917c0 35.72-31.39 65.63-70.56 73.35-11.98 2.37-22.16 10.1-27.53 21.07-15.25 31.19-52.31 82.54-123.47 82.54-11.88 0-22.26 8.03-25.25 19.53-1.82 6.97-3.5 16.61-4.4 27.49-.79 9.58-8.79 16.96-18.4 16.96h-31.95c-8.85 0-16.04-7.16-16.05-16.01-.01-4.68.13-9.49.43-14.31.66-11.1 2.13-22.35 4.49-32.68.62-2.77-1.96-5.21-4.69-4.4-4.06 1.2-10.46 2.75-18.43 4.12 0 0-54.4-27.62 2.97-66.71 24.87-1.96 49.89-5.27 73.04-9.77 38.92-7.55 68.83-38.84 74.76-78.04 1.2-7.93 2.84-16.13 5.06-24.67 6.81-36.12 49.05-73.77 93.39-73.77 47.82 0 86.59 33.71 86.59 75.3z" fill="#b0da87"/><path d="m171.669 283.867c-6.42 17.05-11.27 41.16-2.97 66.71-20.4 3.53-51.01 5.92-78.61-1.47-6.5-1.74-13.33 1.6-15.78 7.87-3.3 8.45-7.14 22.56-8.59 41.21-.69 8.83-8.01 15.67-16.86 15.67h-26.259c-8.65 0-15.51-7.25-15.08-15.89 1.79-36.22 12.4-77.21 38.6-102.53.05-.04.09-.09.14-.13 8.6-8.31 20.38-12.44 32.28-11.31 27.649 2.63 60.249 2.44 93.129-.13z" fill="#99ce64"/><path d="m437.815 192.356c0 30.934-58.71 30.934-58.71 0 0-30.933 58.71-30.933 58.71 0z" fill="#fff"/></g><g><path d="m417.92 90.117c-36.882 0-72.608 23.869-90.381 53.517-37.256-35.887-88.423-53.475-139.856-47.945-4.118.443-7.098 4.141-6.655 8.259s4.142 7.1 8.259 6.655c12.932-1.391 26.116-1.169 38.91.606l-21.751 39.148h-58.933l-13.096-23.573c8.173-4.113 16.713-7.542 25.485-10.201 3.964-1.202 6.203-5.39 5.002-9.354-1.203-3.964-5.395-6.204-9.354-5.001-57.605 17.465-102.113 63.339-117.918 121.421-2.302 8.468-5.087 22.458-5.257 29.832-11.838 10.311-22.118 22.78-29.86 36.262-6.456 11.251.63 26.203 12.043 26.202 3.015 0 4.925-.956 7.93-2.192-16.976 28.984-21.44 63.211-22.459 83.837-.632 12.728 9.437 23.762 22.571 23.762h26.26c12.657 0 23.348-9.921 24.338-22.588 1.541-19.809 5.697-32.884 8.062-38.965 7.716 24.937 6.944 38.522 8.565 44.618 2.686 10.249 11.63 16.939 21.215 16.939h32.591c12.603 0 22.485-10.966 22.015-23.924-.34-9.297-1.324-22.949-3.976-38.162 8.331-1.131 15.701-2.576 21.57-4.009-2.516 13.191-3.867 28.074-3.839 42.59.015 12.959 10.579 23.502 23.55 23.502h31.95c13.406 0 24.772-10.473 25.875-23.842.795-9.616 2.28-18.925 4.184-26.217 2.131-8.194 9.529-13.917 17.991-13.917 2.817 0 5.575-.085 8.289-.234 8.483 25.82 7.807 41.271 9.412 47.297 2.713 10.229 11.614 16.917 21.209 16.917h32.6c12.711 0 22.485-11.102 22.006-23.927-.522-14.157-2.667-41.233-11.033-67.475 25.605-19.528 40.62-44.791 47.724-59.321 4.342-8.872 12.451-15.072 22.243-17.009 112.57-24.34 94.74-160.615-17.481-163.508zm-97.323 67.792c-3.133 8.335-6.919 26.263-8.546 37.024-1.233 8.154-3.613 15.935-6.957 23.184h-52.171l-33.483-60.26 24.285-43.71c29.131 7.002 55.73 22.117 76.872 43.762zm-77.321 108.829c-3.325.646-6.683 1.265-10.068 1.859l19.714-35.479h43.313c-12.567 17.091-31.27 29.409-52.959 33.62zm-152.141 10.721c-.101-.012-25.306-3.14-29.869-4.274-7.599-1.918-13.179-8.001-13.831-16.915-.441-5.424 2.04-17.853 3.278-23.153h50.323l25.136 45.246c-12.19.096-23.958-.201-35.037-.904zm51.99.534-29.096-52.375 33.483-60.26h58.933l33.483 60.262-25.545 45.974c-23.575 3.391-47.921 5.562-71.258 6.399zm-21.774-143.839 13.169 23.703-33.483 60.26h-46.03c11.665-34.205 35.031-64.329 66.344-83.963zm-106.02 166.327c-.3-.841-.453-2.145.192-3.269 5.533-9.635 12.52-18.693 20.512-26.652 2.815 5.655 7.117 10.264 12.491 13.444-4.465 2.871-7.464 5.716-11.084 9.575-8.216 1.576-15.174 4.043-22.111 6.902zm135.323 97.499c.163 4.483-2.991 8.378-7.024 8.378-35.969 0-34.273.561-36.82-1.673-5.475-4.772-.326-12.121-10.349-46.407 16.876 3.373 34.512 3.69 50.253 2.549 2.647 14.796 3.611 28.133 3.94 37.153zm210.821.008c.177 4.727-3.2 8.37-7.016 8.37-35.867 0-34.262.578-36.819-1.672-5.765-5.029-.01-13.09-11.185-49.195 17.707-2.909 32.953-8.983 45.979-16.741 6.764 23.222 8.576 46.632 9.041 59.238zm71.019-159.078c-14.433 2.855-26.392 12.015-32.812 25.133-22.737 46.497-63.065 78.334-116.733 78.334-15.291 0-28.659 10.339-32.507 25.136-2.113 8.096-3.753 18.311-4.617 28.764-.466 5.65-5.266 10.076-10.926 10.076h-31.95c-4.709 0-8.545-3.821-8.55-8.525-.031-15.699 1.649-31.789 4.739-45.333 1.872-8.366-5.934-15.665-14.139-13.23-16.862 4.995-57.992 11.965-92.971 2.596-10.254-2.745-20.873 2.58-24.706 12.386-2.663 6.819-7.383 21.518-9.081 43.35-.384 4.909-4.505 8.755-9.383 8.755h-26.258c-4.365 0-7.806-3.653-7.589-8.02 1.682-34.043 11.783-73.906 36.452-97.63 7.039-6.798 16.646-10.166 26.367-9.242 51.286 4.88 116.207.115 168.306-10 32.044-6.222 58.594-28.152 70.608-53.046 18.911-36.629 4.019-67.865 45.166-101.664 57.989-47.636 135.101-8.837 135.101 46.165-.001 30.873-27.132 58.627-64.517 65.995z"/><path d="m425.597 150.354c-4.143 0-7.5 3.358-7.5 7.5v12c.344 9.931 14.659 9.923 15 0v-12c0-4.142-3.358-7.5-7.5-7.5z"/></g></svg>