<svg id="Capa_1" enable-background="new 0 0 512.006 512.006" height="512" viewBox="0 0 512.006 512.006" width="512" xmlns="http://www.w3.org/2000/svg"><g><path d="m71.088 118.801c-3.972.629-7.531 2.81-9.894 6.063l-5.667 7.8c-2.364 3.253-5.923 5.434-9.894 6.063l-25.338 4.013c-8.27 1.31-13.913 9.076-12.603 17.347l39.46 249.144c1.31 8.27 9.076 13.913 17.347 12.603l25.338-4.013c3.972-.629 8.03.345 11.283 2.709l7.8 5.667c3.253 2.364 7.312 3.338 11.283 2.709l24.808-3.929-13.964-188.518-35.152-121.587z" fill="#f3f0f3"/><path d="m131.047 236.457-35.152-121.585-24.808 3.929c-3.972.629-7.531 2.81-9.894 6.063l-.45.619 40.338 254.685c2.17 13.701-7.178 26.567-20.878 28.737-3.972.629-8.03-.345-11.284-2.709l-7.8-5.667c-3.253-2.364-7.312-3.338-11.284-2.709l-4.382.694 1.697 10.716c1.31 8.27 9.076 13.913 17.347 12.603l25.338-4.013c3.972-.629 8.03.345 11.284 2.709l7.8 5.667c3.253 2.364 7.312 3.338 11.283 2.709l24.808-3.929z" fill="#e2dee2"/><path d="m359.628 425.746 78.056 12.363c8.27 1.31 16.037-4.333 17.347-12.603l49.284-311.164c1.31-8.27-4.333-16.037-12.603-17.347l-78.056-12.363z" fill="#0681af"/><path d="m240.498 425.746-78.056 12.363c-8.27 1.31-16.037-4.333-17.347-12.603l-49.284-311.165c-1.31-8.27 4.333-16.037 12.603-17.347l78.056-12.363z" fill="#0681af"/><path d="m491.711 96.995-27.226-4.312c-.027.549-.083 1.103-.171 1.659l-39.923 252.062c-5.199 32.824-30.957 57.28-62.068 62.32l-2.696 17.022 78.056 12.363c8.27 1.31 16.037-4.333 17.347-12.603l49.284-311.164c1.31-8.271-4.333-16.037-12.603-17.347z" fill="#017297"/><path d="m186.471 84.632-35.931 5.691 40.914 258.323c4.995 31.535-16.521 61.149-48.056 66.144l1.697 10.716c1.31 8.27 9.076 13.913 17.347 12.603l78.056-12.363z" fill="#017297"/><path d="m327.733 86.917c-18.333-2.904-37.009-2.904-55.341 0l-83.466 13.22 49.116 310.104 34.35-5.441c18.333-2.904 37.009-2.904 55.342 0l34.35 5.441 49.116-310.104z" fill="#685e68"/><path d="m369.088 93.467-41.564 262.423c-3.005 18.971-20.819 31.914-39.79 28.909-17.806-2.82-35.935-2.901-53.759-.243l4.068 25.683 34.35-5.44c18.333-2.904 37.009-2.904 55.342 0l34.35 5.44 49.116-310.104z" fill="#554e56"/><path d="m507.673 98.65c-3.558-4.897-8.81-8.116-14.789-9.062l-78.056-12.363c-4.088-.646-7.933 2.144-8.581 6.234l-1.282 8.097-22.371-3.543.656-6.239c.433-4.119-2.555-7.81-6.675-8.243-4.11-.427-7.81 2.555-8.243 6.675l-.574 5.458-22.569-3.575.228-4.349c.217-4.136-2.961-7.665-7.098-7.882-4.132-.219-7.666 2.961-7.882 7.098l-.145 2.774-1.385-.219c-7.087-1.122-14.211-1.829-21.344-2.12v-3.685c0-4.142-3.358-7.5-7.5-7.5s-7.5 3.358-7.5 7.5v3.685c-7.133.291-14.257.997-21.344 2.12l-1.385.219-.145-2.774c-.217-4.137-3.74-7.314-7.882-7.098-4.137.217-7.314 3.746-7.098 7.882l.228 4.349-22.569 3.575-.574-5.458c-.434-4.12-4.135-7.109-8.243-6.675-4.12.433-7.108 4.124-6.675 8.243l.656 6.239-22.371 3.543-1.282-8.097c-.311-1.964-1.39-3.725-3-4.895-1.609-1.168-3.615-1.652-5.582-1.34l-37.719 5.974c-4.091.648-6.882 4.49-6.234 8.581s4.488 6.883 8.581 6.234l30.312-4.801c14.622 92.32 25.365 160.148 51.68 326.298l-70.648 11.189c-2.024.32-4.046-.166-5.702-1.369s-2.744-2.979-3.064-5c-.106-.67-1.239-7.823-1.367-8.628l39.638-6.278c5.979-.947 11.23-4.166 14.789-9.062s4.996-10.887 4.049-16.865l-39.46-249.144c-1.955-12.342-13.585-20.793-25.928-18.837l-39.638 6.278-1.366-8.628c-.32-2.021.166-4.046 1.369-5.702 1.203-1.655 2.979-2.744 5-3.063l6.212-.984c4.091-.648 6.882-4.49 6.234-8.581-.648-4.092-4.489-6.883-8.581-6.234l-6.212.984c-5.979.947-11.231 4.165-14.789 9.062-2.147 2.956-3.522 6.309-4.067 9.818l-18.471 2.926c-5.979.947-11.23 4.165-14.79 9.062l-5.667 7.8c-1.203 1.655-2.978 2.743-5 3.063l-25.337 4.013c-5.979.947-11.231 4.165-14.789 9.062s-4.996 10.887-4.049 16.865l33.109 209.046c.651 4.108 4.508 6.88 8.581 6.234 4.091-.648 6.882-4.49 6.234-8.581l-33.108-209.043c-.32-2.021.166-4.046 1.369-5.702 1.203-1.655 2.979-2.744 5-3.063l25.338-4.013c5.979-.948 11.231-4.167 14.788-9.063l5.667-7.799c1.203-1.656 2.979-2.744 5-3.064l17.4-2.756c2.678 16.907 44.781 282.737 46.769 295.288l-17.4 2.756c-2.022.319-4.046-.167-5.702-1.369l-7.8-5.667c-4.897-3.558-10.886-4.998-16.865-4.048l-25.338 4.013c-2.022.321-4.047-.167-5.702-1.369-1.655-1.203-2.744-2.979-3.063-5l-.776-4.899c-.648-4.092-4.491-6.882-8.581-6.234-4.091.648-6.882 4.49-6.234 8.581l.776 4.898c.947 5.979 4.165 11.231 9.062 14.789s10.887 4.995 16.865 4.049l25.338-4.013c2.023-.319 4.046.166 5.701 1.368l7.8 5.667c4.762 3.46 10.721 5.021 16.865 4.049l18.472-2.926c1.602 3.169 3.946 5.933 6.902 8.081 4.762 3.46 10.722 5.021 16.865 4.049l78.056-12.363c1.964-.311 3.725-1.39 4.895-3 1.169-1.609 1.651-3.617 1.34-5.582l-1.283-8.098 5.358-.849.913 8.679c.405 3.853 3.66 6.716 7.45 6.716 4.484 0 7.932-3.877 7.468-8.285l-.995-9.46 5.416-.858.485 9.269c.209 4.003 3.521 7.108 7.483 7.108 4.318 0 7.72-3.616 7.496-7.892l-.539-10.291c1.8-.138 3.602-.247 5.404-.327v8.785c0 4.142 3.358 7.5 7.5 7.5s7.5-3.358 7.5-7.5v-8.785c1.802.08 3.604.19 5.404.327l-.539 10.291c-.224 4.278 3.179 7.892 7.496 7.892 3.962 0 7.274-3.105 7.483-7.108l.485-9.269 5.416.858-.995 9.46c-.463 4.407 2.983 8.285 7.468 8.285 3.79 0 7.044-2.863 7.45-6.716l.913-8.679 5.358.849-1.283 8.098c-.311 1.965.171 3.973 1.34 5.582s2.93 2.688 4.895 3l78.057 12.363c5.805.919 11.826-.388 16.865-4.049 4.897-3.558 8.116-8.81 9.062-14.789l49.284-311.164c.947-5.978-.49-11.967-4.048-16.864zm-361.103 31.683c2.021-.321 4.045.165 5.702 1.369 1.656 1.203 2.744 2.979 3.064 5l39.46 249.144c.661 4.172-2.196 8.105-6.369 8.766l-39.638 6.278-41.857-264.278zm97.706 271.327-46.769-295.288 21.595-3.42 31.308 297.737zm20.97-3.322-31.308-297.737 21.787-3.451 15.718 300.207c-.489.077 1.009-.16-6.197.981zm21.128-2.709-15.752-300.838 2.943-.466c6.308-.999 12.648-1.64 18.997-1.922v302.869c-2.064.084-4.127.203-6.188.357zm21.188-.357v-302.869c6.349.282 12.689.923 18.998 1.922l2.943.466-15.752 300.838c-2.062-.154-4.125-.273-6.189-.357zm21.119 2.085 15.719-300.206 21.787 3.451-31.308 297.737c-1.55-.246-6.123-.97-6.198-.982zm168.225-284.189-49.284 311.165c-.32 2.021-1.408 3.796-3.063 5-1.656 1.203-3.681 1.689-5.702 1.369l-70.649-11.189c.481-3.038 1.305-8.242 1.283-8.098.001-.004.001-.007.002-.011l10.206-64.439c.648-4.091-2.143-7.933-6.234-8.581-4.087-.646-7.933 2.144-8.581 6.234l-9.035 57.043-6.134-.972 31.308-297.737 21.595 3.42-32.145 202.954c-.648 4.091 2.144 7.933 6.234 8.581 4.091.647 7.933-2.143 8.581-6.234l34.601-218.459 70.649 11.189c2.021.32 3.796 1.408 5 3.063 1.202 1.656 1.688 3.681 1.368 5.702z"/><circle cx="458.513" cy="202.817" r="7.5"/><circle cx="453.629" cy="233.653" r="7.5"/><circle cx="448.745" cy="264.489" r="7.5"/><circle cx="443.861" cy="295.325" r="7.5"/><circle cx="438.977" cy="326.161" r="7.5"/><circle cx="427.502" cy="197.905" r="7.5"/><circle cx="422.618" cy="228.741" r="7.5"/><circle cx="417.734" cy="259.578" r="7.5"/><circle cx="412.85" cy="290.414" r="7.5"/><circle cx="407.966" cy="321.25" r="7.5"/><circle cx="43.698" cy="186.715" r="7.5"/><circle cx="48.582" cy="217.552" r="7.5"/><circle cx="53.466" cy="248.388" r="7.5"/><circle cx="58.349" cy="279.224" r="7.5"/><circle cx="63.233" cy="310.06" r="7.5"/><circle cx="68.117" cy="340.896" r="7.5"/><circle cx="73.001" cy="371.732" r="7.5"/><circle cx="74.708" cy="181.804" r="7.5"/><circle cx="79.592" cy="212.64" r="7.5"/><circle cx="84.476" cy="243.476" r="7.5"/><circle cx="89.36" cy="274.312" r="7.5"/><circle cx="94.244" cy="305.148" r="7.5"/><circle cx="99.128" cy="335.985" r="7.5"/><circle cx="104.012" cy="366.821" r="7.5"/><circle cx="57.159" cy="168.689" r="7.5"/><circle cx="62.043" cy="199.525" r="7.5"/><circle cx="66.927" cy="230.362" r="7.5"/><circle cx="71.811" cy="261.198" r="7.5"/><circle cx="76.695" cy="292.034" r="7.5"/><circle cx="81.578" cy="322.87" r="7.5"/><circle cx="86.462" cy="353.706" r="7.5"/><circle cx="91.346" cy="384.542" r="7.5"/><path d="m428.011 397.533-31.671-5.016c-4.091-.645-7.933 2.144-8.581 6.234-.648 4.091 2.144 7.933 6.234 8.581l31.671 5.016c4.077.646 7.931-2.13 8.581-6.234.648-4.091-2.143-7.933-6.234-8.581z"/><path d="m472.32 117.78-31.671-5.016c-4.088-.646-7.933 2.144-8.581 6.234-.648 4.091 2.144 7.933 6.234 8.581l31.671 5.016c4.077.646 7.931-2.13 8.581-6.234.648-4.092-2.143-7.934-6.234-8.581z"/><path d="m432.87 366.853-31.671-5.016c-4.087-.645-7.933 2.144-8.581 6.234-.648 4.091 2.144 7.933 6.234 8.581l31.671 5.016c4.077.646 7.931-2.13 8.581-6.234.649-4.091-2.143-7.933-6.234-8.581z"/><path d="m467.46 148.46-31.671-5.016c-4.087-.646-7.933 2.144-8.581 6.234-.648 4.091 2.144 7.933 6.234 8.581l31.671 5.016c4.077.646 7.931-2.13 8.581-6.234.649-4.092-2.143-7.933-6.234-8.581z"/></g></svg>