<svg id="Capa_1" enable-background="new 0 0 512.023 512.023" height="512" viewBox="0 0 512.023 512.023" width="512" xmlns="http://www.w3.org/2000/svg"><g><circle cx="147.693" cy="364.33" fill="#fe9738" r="140.16"/><circle cx="147.693" cy="384.33" fill="#fe860a" r="109.097"/><path d="m246.801 265.222c-2.175-2.175-4.404-4.263-6.682-6.265l-51.561 51.561c7.649 2.043 14.88 6.064 20.882 12.065s10.023 13.232 12.065 20.882l48.194-48.194c-6.097-10.757-13.73-20.88-22.898-30.049z" fill="#fe860a"/><path d="m209.439 302.583c6.001 6.001 10.022 13.232 12.065 20.882l206.692-206.692-7.429-25.517-25.517-7.429-206.692 206.691c7.649 2.043 14.88 6.064 20.881 12.065z" fill="#685e68"/><circle cx="147.693" cy="364.33" fill="#fff" r="109.097"/><path d="m86.972 410.932c-2.413-2.413-6.481-1.753-8.008 1.299l-12.478 24.956c1.308 1.456 2.662 2.885 4.063 4.286 8.968 8.968 19.109 16.048 29.93 21.241l19.312-9.656c3.052-1.526 3.713-5.594 1.299-8.008z" fill="#f3f0f3"/><path d="m224.836 287.187c-14.184-14.184-31.301-23.645-49.399-28.385 3.252 2.583 6.392 5.378 9.399 8.385 42.605 42.605 42.605 111.681 0 154.286-28.421 28.421-68.623 37.883-104.888 28.385 42.826 34.008 105.29 31.213 144.888-8.385 42.605-42.605 42.605-111.681 0-154.286z" fill="#f3f0f3"/><path d="m464.696 69.291c6.065-6.065 15.899-6.065 21.965 0l13.609-13.609c5.685-5.685 5.685-14.903 0-20.588l-23.341-23.341c-5.685-5.685-14.903-5.685-20.588 0l-13.609 13.609c6.065 6.065 6.065 15.899 0 21.965-6.065 6.065-15.899 6.065-21.964 0l-6.868 6.868c-1.445 1.445-2.708 3.062-3.76 4.815l-14.89 24.817 32.947 32.947 24.817-14.89c1.753-1.052 3.37-2.314 4.815-3.76l6.868-6.868c-6.066-6.066-6.066-15.899-.001-21.965z" fill="#fe9738"/><path d="m82.067 451.921-21.965-21.965 21.965-43.929 43.929 43.929z" fill="#a79ba7"/><path d="m505.573 29.791-23.341-23.34c-8.602-8.6-22.595-8.602-31.196 0l-13.608 13.608c-2.929 2.929-2.929 7.678 0 10.606 3.132 3.131 3.132 8.227.001 11.358-3.133 3.132-8.227 3.132-11.359 0-2.928-2.929-7.677-2.928-10.606 0l-6.867 6.868c-1.876 1.877-3.521 3.982-4.888 6.26l-14.414 24.025-161.244 161.243c-8.88-5.77-18.368-10.568-28.282-14.297-3.876-1.458-8.202.503-9.661 4.379-1.458 3.877.502 8.202 4.379 9.661 7.904 2.973 15.505 6.703 22.692 11.129l-11.736 11.736c-15.626-8.902-32.887-13.904-50.351-15.004l.199-16.137c2.283.132 4.57.322 6.859.571 4.123.449 7.82-2.525 8.269-6.644.449-4.118-2.526-7.82-6.644-8.269-44.767-4.875-88.686 10.566-120.495 42.375-57.705 57.705-57.713 151.109 0 208.822 57.705 57.705 151.109 57.713 208.822 0 49.831-49.832 56.945-127.098 19.499-184.768 125.93-125.93 31.139-31.139 161.245-161.244l24.023-14.414c2.277-1.366 4.383-3.01 6.26-4.887l6.868-6.868c1.407-1.407 2.197-3.314 2.197-5.304s-.79-3.897-2.196-5.303c-1.518-1.517-2.353-3.534-2.353-5.679s.835-4.162 2.353-5.679c3.129-3.131 8.224-3.132 11.356 0 2.929 2.929 7.678 2.929 10.606 0l13.61-13.609c8.603-8.601 8.603-22.594.003-31.195zm-101.279 100.277-22.34-22.34 13.295-13.295 22.339 22.34zm-21.962 21.963-22.34-22.34 11.356-11.356 22.34 22.34zm-21.97 21.97-22.34-22.34 11.363-11.363 22.34 22.34zm-21.963 21.963-22.34-22.34 11.356-11.356 22.34 22.34zm-21.963 21.963-22.34-22.34 11.356-11.356 22.34 22.34zm-21.962 21.962-22.34-22.34 11.356-11.356 22.34 22.34zm-21.97 21.97-22.34-22.34 11.363-11.363 22.34 22.34zm-38.341-6.339c.062-.059.122-.12.182-.182l5.212-5.212 22.34 22.34-5.212 5.213c-.055.053-.109.107-.162.162l-15.963 15.963c-6.22-8.167-13.74-15.79-22.346-22.335zm-94.071 225.159.199 16.109c-30.131-1.646-58.384-13.325-80.879-33.43l11.232-11.513c1.495 1.318 3.02 2.596 4.569 3.829l1.551 1.551c.823.823 1.802 1.422 2.853 1.785 17.744 12.784 38.732 20.252 60.475 21.669zm-87.079-48.274c.363 1.051.963 2.031 1.786 2.854l1.551 1.551c1.191 1.497 2.425 2.972 3.696 4.419l-11.249 11.53c-20.142-22.47-31.861-50.706-33.551-80.829l16.085-.198c1.384 21.813 8.859 42.876 21.682 60.673zm-21.67-75.675-16.108.199c1.65-30.197 13.376-58.508 33.562-81.027l11.25 11.531c-16.387 18.672-26.984 42.826-28.704 69.297zm39.301-79.915-11.231-11.511c22.573-20.161 50.982-31.82 80.878-33.446l-.2 16.177c-24.97 1.616-49.517 11.21-69.447 28.78zm84.648 219.962-.198-16.083c30.136-1.904 58.372-15.435 78.815-37.866l11.504 11.224c-23.543 25.589-55.479 40.781-90.121 42.725zm108.771-125.046 16.239.2c-1.442 24.97-9.972 49.5-25.33 70.489l-11.647-11.364c12.229-17.491 19.398-37.975 20.738-59.325zm16.252-14.801-16.271-.201c-.07-1.081-.156-2.163-.257-3.246-.384-4.125-4.041-7.161-8.162-6.774-4.125.383-7.157 4.037-6.774 8.162.283 3.048.429 6.09.44 9.118 0 .02-.001.039-.001.059-.001.088 0 .175.002.262.018 26.885-10.558 52.657-29.76 71.859-32.499 32.497-83.033 38.694-122.122 16.464l31.939-15.97c2.156-1.078 3.663-3.127 4.049-5.507.386-2.379-.396-4.8-2.1-6.504l-11.393-11.393c-2.929-2.929-7.678-2.929-10.606 0-2.929 2.929-2.929 7.678 0 10.606l4.035 4.035-29.787 14.894-14.32-14.32 14.894-29.787.19.19c2.929 2.929 7.678 2.929 10.606 0 2.929-2.929 2.929-7.678 0-10.606l-7.548-7.548c-1.704-1.705-4.128-2.485-6.504-2.1-2.38.386-4.429 1.893-5.507 4.049l-15.97 31.939c-22.231-39.09-16.034-89.625 16.464-122.122 39.614-39.612 104.069-39.611 143.68 0 8.76 8.76 15.873 18.988 20.993 30.487 1.685 3.784 6.117 5.486 9.902 3.801 3.784-1.685 5.486-6.118 3.801-9.902-1.572-3.532-3.314-6.971-5.219-10.31l11.729-11.729c11.902 19.255 18.372 40.608 19.577 62.094zm214.652-306.551-9.193 9.192c-8.591-4.18-19.257-2.707-26.381 4.417s-8.596 17.792-4.417 26.381l-2.451 2.451c-1.011 1.011-2.145 1.896-3.37 2.632l-19.795 11.877-24.665-24.666 11.876-19.795c.736-1.226 1.622-2.36 2.633-3.371l2.45-2.451c8.589 4.179 19.258 2.708 26.382-4.417 7.124-7.124 8.596-17.792 4.417-26.382l9.191-9.191c1.333-1.333 3.105-2.067 4.99-2.067 1.886 0 3.658.734 4.991 2.067l23.341 23.341c2.752 2.753 2.752 7.23.001 9.982z"/><path d="m98.352 347.777c-2.929-2.929-7.678-2.929-10.606 0-2.929 2.929-2.929 7.678 0 10.606l65.894 65.894c2.929 2.929 7.678 2.929 10.606 0 2.929-2.929 2.929-7.678 0-10.606z"/></g></svg>