<svg id="Capa_1" enable-background="new 0 0 511.972 511.972" height="512" viewBox="0 0 511.972 511.972" width="512" xmlns="http://www.w3.org/2000/svg"><g><path d="m187.145 171.297c12.34-12.34 32.348-12.34 44.689 0 5.86 5.86 5.863 15.357.002 21.216-7.297 7.294-17.058 17.055-24.967 24.962-7.651 7.65-7.647 20.05.003 27.7 7.651 7.65 20.054 7.65 27.705-.001l8.11-8.11 21.964 43.929-8.362 8.362c-7.511 7.511-7.511 19.689 0 27.2 7.511 7.511 19.689 7.511 27.2 0l23.254-23.254c3.905-3.905 10.237-3.905 14.142 0 8.228 8.228 8.228 21.569 0 29.797l-23.964 23.964c-7.559 7.559-16.646 13.414-26.652 17.174l-26.852 10.09c-13.836 5.199-24.662 16.252-29.573 30.193l-21.086 59.863c-14.672 41.652-67.792 53.718-99.018 22.492l-68.42-68.42c-31.226-31.226-19.159-84.346 22.492-99.018l56.163-19.783c16.013-5.641 28.07-19.022 32.018-35.534l6.522-27.282c4.296-17.968 13.485-34.396 26.549-47.459z" fill="#685e68"/><g fill="#554e56"><path d="m101.075 457.727-26.608-26.608c-4.783-4.783-4.783-12.538 0-17.32l4.644-4.644c4.783-4.783 12.538-4.783 17.32 0l26.608 26.608c4.783 4.783 4.783 12.538 0 17.32l-4.644 4.644c-4.782 4.783-12.537 4.783-17.32 0z"/><path d="m256.289 289.355 8.362-8.362-15.298-30.595-64.446 64.446c-1.953 1.953-1.953 5.118 0 7.071l25.875 25.875c1.953 1.953 5.118 1.953 7.071 0l35.317-35.317c-4.185-7.342-3.146-16.853 3.119-23.118z"/><path d="m320.885 293.301c-3.905-3.905-10.237-3.905-14.142 0l-23.254 23.254c-5.527 5.527-13.58 6.987-20.441 4.38l-6.126 6.127c-7.559 7.559-16.646 13.414-26.652 17.174l-26.852 10.09c-13.836 5.199-24.662 16.252-29.573 30.193l-21.086 59.863c-9.642 27.373-35.889 41.968-61.615 39.895l2.597 2.597c31.226 31.226 84.346 19.159 99.018-22.492l21.086-59.863c4.91-13.941 15.737-24.994 29.573-30.193l26.852-10.09c10.006-3.76 19.094-9.616 26.652-17.174l23.964-23.964c8.228-8.228 8.228-21.568-.001-29.797z"/></g><path d="m101.075 437.727-26.608-26.608c-4.783-4.783-4.783-12.538 0-17.32l4.644-4.644c4.783-4.783 12.538-4.783 17.32 0l26.608 26.608c4.783 4.783 4.783 12.538 0 17.32l-4.644 4.644c-4.782 4.783-12.537 4.783-17.32 0z" fill="#fff3be"/><path d="m406.328 73.423-224.957 224.956 32.947 32.947 224.957-224.957-12.209-21.242z" fill="#fff3be"/><path d="m425.608 44.096c-1.848 1.232-3.399 2.859-4.542 4.763l-14.738 24.563 32.947 32.947 24.563-14.738c1.904-1.143 3.531-2.694 4.763-4.542l13.06-31.129c3.231-7.701 8.576-14.381 15.554-18.969 1.727-1.135 3.277-2.651 4.532-4.547 4.045-6.111 3.055-14.366-2.161-19.513-6.389-6.305-16.336-7.263-23.815-2.277z" fill="#685e68"/><path d="m87.771 378.067c-5.274 0-10.233 2.054-13.964 5.784l-4.643 4.644c-3.73 3.73-5.784 8.689-5.784 13.964 0 5.274 2.054 10.233 5.783 13.963l26.608 26.608c3.729 3.729 8.688 5.784 13.964 5.784 5.274 0 10.233-2.054 13.964-5.784l4.643-4.644c3.73-3.73 5.784-8.689 5.784-13.964s-2.054-10.234-5.783-13.963l-26.608-26.608c-3.73-3.73-8.689-5.784-13.964-5.784zm31.355 46.356c0 1.268-.493 2.46-1.391 3.357l-4.643 4.644c-.897.897-2.09 1.391-3.357 1.391-1.269 0-2.46-.494-3.356-1.39l-26.608-26.608c-.897-.897-1.391-2.089-1.391-3.357s.493-2.46 1.391-3.357l4.644-4.644c.896-.896 2.089-1.391 3.356-1.391 1.269 0 2.46.494 3.356 1.391l26.609 26.609c.897.895 1.39 2.087 1.39 3.355z"/><path d="m169.95 374.815c2.929-2.929 2.929-7.678 0-10.606l-10.982-10.982c-2.93-2.929-7.678-2.929-10.607 0s-2.929 7.678 0 10.606l10.982 10.982c2.93 2.929 7.677 2.929 10.607 0z"/><path d="m180.932 331.262-10.982-10.982c-2.928-2.93-7.677-2.929-10.606 0s-2.929 7.678.001 10.606l10.982 10.982c2.927 2.929 7.677 2.929 10.606 0 2.928-2.929 2.928-7.677-.001-10.606z"/><path d="m147.985 396.78c2.929-2.929 2.929-7.678 0-10.606l-21.964-21.964c-2.929-2.929-7.677-2.929-10.607 0-2.929 2.929-2.929 7.677 0 10.606l21.964 21.964c2.929 2.928 7.677 2.929 10.607 0z"/><path d="m504.854 7.593c-8.88-8.764-22.862-10.099-33.242-3.18l-7.051 4.7c-3.446 2.298-4.378 6.954-2.08 10.401 2.299 3.447 6.955 4.377 10.4 2.081l7.051-4.701c4.493-2.994 10.544-2.417 14.386 1.375 2.696 2.66 3.201 6.975 1.176 10.035-.656.991-1.463 1.805-2.398 2.42-8.111 5.333-14.457 13.056-18.351 22.335l-12.733 30.35c-.562.712-1.256 1.325-2.032 1.791l-19.542 11.725-24.666-24.665 11.726-19.542c.567-.946 1.353-1.77 2.271-2.382l13.01-8.673c3.446-2.297 4.378-6.954 2.08-10.4s-6.954-4.377-10.4-2.08l-13.009 8.672c-2.754 1.835-5.11 4.307-6.814 7.146l-14.264 23.772c-7.084 7.084-34.758 34.761-171.099 171.099-4.712 4.713-12.384 4.714-17.098.001-4.714-4.714-4.715-12.383-.004-17.094l24.966-24.962c8.797-8.791 8.797-23.025 0-31.824-7.385-7.385-17.204-11.452-27.647-11.452-10.444 0-20.263 4.067-27.648 11.452l-18.081 18.081c-14.05 14.051-23.919 31.693-28.54 51.019l-6.521 27.282c-3.369 14.097-13.543 25.388-27.215 30.204l-56.164 19.784c-22.005 7.751-38.229 25.962-43.396 48.713s1.596 46.184 18.093 62.681l68.421 68.421c12.851 12.851 29.909 19.795 47.575 19.795 5.014 0 10.077-.559 15.107-1.702 22.751-5.168 40.962-21.392 48.713-43.397l21.086-59.862c4.185-11.88 13.347-21.234 25.137-25.665l26.852-10.089c10.562-3.968 20.04-9.946 28.173-17.768 2.985-2.872 3.078-7.619.206-10.605-2.869-2.984-7.617-3.078-10.604-.207-6.654 6.4-14.409 11.291-23.05 14.538l-26.852 10.089c-15.951 5.994-28.347 18.649-34.01 34.722l-21.086 59.863c-6.028 17.115-20.192 29.733-37.888 33.753-17.693 4.019-35.921-1.24-48.752-14.072l-68.423-68.421c-12.832-12.832-18.093-31.057-14.073-48.752 4.021-17.696 16.638-31.859 33.754-37.889l56.164-19.783c18.496-6.515 32.261-21.792 36.82-40.864l6.521-27.281c3.977-16.629 12.468-31.81 24.558-43.9l18.081-18.081c4.553-4.552 10.604-7.059 17.042-7.059s12.489 2.507 17.041 7.059c1.418 1.418 2.199 3.302 2.199 5.306 0 2.002-.779 3.886-2.197 5.302l-24.967 24.963c-5.117 5.116-7.935 11.919-7.934 19.155.002 7.234 2.82 14.036 7.938 19.152 3.069 3.07 6.699 5.247 10.563 6.532-11.643 11.643-28.907 28.907-36.065 36.065-1.406 1.406-2.196 3.314-2.196 5.303s.79 3.897 2.197 5.303l32.947 32.946c2.928 2.929 7.677 2.929 10.606 0l24.974-24.974c1.303 3.799 3.466 7.28 6.389 10.204 5.05 5.049 11.763 7.83 18.903 7.83s13.854-2.781 18.904-7.83l23.253-23.254c.977-.976 2.562-.975 3.536 0 5.291 5.291 5.291 13.9 0 19.191-2.929 2.929-2.929 7.678.001 10.607 2.928 2.929 7.677 2.928 10.606 0 11.138-11.14 11.138-29.264-.001-40.404-6.822-6.822-17.925-6.823-24.749 0l-23.253 23.254c-2.217 2.216-5.163 3.437-8.298 3.437-3.134 0-6.08-1.22-8.297-3.437-2.216-2.216-3.437-5.163-3.437-8.297 0-3.128 1.216-6.069 3.424-8.284l182.347-182.348 23.77-14.262c2.838-1.703 5.309-4.058 7.146-6.812.265-.397.491-.819.676-1.26l13.06-31.128c2.735-6.519 7.147-11.915 12.759-15.604 2.642-1.737 4.885-3.982 6.666-6.674 6.007-9.07 4.683-21.263-3.147-28.989zm-76.187 98.776-16.67 16.67-22.34-22.339 16.67-16.67zm-38.633 38.634-22.339-22.34 11.356-11.356 22.34 22.339zm-21.962 21.962-22.34-22.339 11.356-11.356 22.34 22.34zm-21.97 21.97-22.34-22.34 11.363-11.363 22.34 22.34zm-21.963 21.963-22.34-22.34 11.356-11.356 22.34 22.34zm-21.962 21.963-22.34-22.34 11.356-11.356 22.34 22.34zm-21.966 21.965-22.34-22.34 11.359-11.359 22.34 22.34zm-54.911 10.231 22.34 22.34-11.357 11.357-22.34-22.34zm32.947 11.734-22.34-22.34c.444-.444-2.245 2.245 11.357-11.357l22.34 22.34zm-43.929 43.929-22.341-22.34 11.358-11.358 22.341 22.34z"/><circle cx="153.521" cy="424.567" r="7.5"/><circle cx="153.521" cy="446.486" r="7.5"/><circle cx="175.628" cy="402.459" r="7.5"/><circle cx="175.628" cy="424.503" r="7.5"/></g></svg>