<svg id="Capa_1" enable-background="new 0 0 512 512" height="512" viewBox="0 0 512 512" width="512" xmlns="http://www.w3.org/2000/svg"><g><path d="m224.938 178.344h93.187v93.188h-93.187z" fill="#fe7701"/><path d="m193.955 116.219h-124.41c-9.469 0-18.126 5.35-22.361 13.82l-8.621 17.243 93.188 15.531 93.187-15.531-8.621-17.243c-4.236-8.47-12.892-13.82-22.362-13.82z" fill="#fff3be"/><path d="m240.469 178.344-108.719-15.532-108.719 15.532 13.142 170.844 95.577 15.531 95.577-15.531z" fill="#fe9738"/><path d="m199.382 172.474-6.687 86.928c-3.029 39.378-35.865 69.785-75.359 69.785h-82.701l1.538 20 95.577 15.531 95.577-15.531 13.142-170.844z" fill="#fe860a"/><path d="m240.469 178.344h-217.438v-16.062c0-8.284 6.716-15 15-15h187.437c8.284 0 15 6.716 15 15v16.062z" fill="#cbc4cc"/><path d="m36.173 349.188 1.324 17.213c.601 7.815 7.118 13.85 14.956 13.85h158.594c7.838 0 14.355-6.035 14.956-13.85l1.324-17.213z" fill="#cbc4cc"/><path d="m69.625 349.188h31.063v31.062h-31.063z" fill="#f3f0f3"/><path d="m162.812 349.188h31.062v31.062h-31.062z" fill="#f3f0f3"/><path d="m442.455 116.219h-93.348c-9.469 0-18.126 5.35-22.361 13.82l-8.621 17.243 62.125 15.531 93.187-15.531-8.621-17.243c-4.235-8.47-12.891-13.82-22.361-13.82z" fill="#fff3be"/><path d="m488.969 178.344-108.719-15.532-77.656 15.532 13.142 170.844 64.514 15.531 95.577-15.531z" fill="#fe9738"/><path d="m447.882 172.474-6.687 86.928c-3.029 39.378-35.865 69.785-75.359 69.785h-51.639l1.538 20 64.514 15.531 95.577-15.531 13.142-170.844z" fill="#fe860a"/><path d="m488.969 178.344h-186.375v-16.062c0-8.284 6.716-15 15-15h156.375c8.284 0 15 6.716 15 15z" fill="#cbc4cc"/><path d="m315.736 349.188 1.324 17.213c.601 7.815 7.118 13.85 14.956 13.85h127.532c7.838 0 14.355-6.035 14.956-13.85l1.324-17.213z" fill="#cbc4cc"/><path d="m349.188 349.188h31.062v31.062h-31.062z" fill="#f3f0f3"/><path d="m411.312 349.188h31.062v31.062h-31.062z" fill="#f3f0f3"/><path d="m504.5 170.844h-8.031v-8.562c0-10.932-7.837-20.068-18.189-22.085l-6.756-13.512c-5.541-11.081-16.679-17.965-29.068-17.965h-93.349c-12.39 0-23.528 6.884-29.068 17.965l-6.756 13.512c-10.351 2.017-18.189 11.153-18.189 22.085v8.562h-47.125v-8.562c0-10.932-7.837-20.068-18.189-22.085l-6.756-13.512c-5.541-11.081-16.679-17.965-29.068-17.965h-76.627c-4.142 0-7.5 3.357-7.5 7.5s3.358 7.5 7.5 7.5h76.627c6.671 0 12.669 3.707 15.652 9.674l3.194 6.389h-162.104l3.194-6.389c2.983-5.967 8.981-9.674 15.652-9.674h12.784c4.142 0 7.5-3.357 7.5-7.5s-3.358-7.5-7.5-7.5h-12.784c-12.39 0-23.528 6.884-29.068 17.965l-6.756 13.512c-10.351 2.017-18.189 11.153-18.189 22.085v8.562h-8.031c-4.142 0-7.5 3.357-7.5 7.5s3.358 7.5 7.5 7.5h8.586c.641 8.338 13.108 170.409 13.933 181.132.896 11.649 10.75 20.774 22.434 20.774h25.203v8.031c0 4.143 3.358 7.5 7.5 7.5s7.5-3.357 7.5-7.5v-8.031h78.188v8.031c0 4.143 3.358 7.5 7.5 7.5s7.5-3.357 7.5-7.5v-8.031h25.203c11.684 0 21.538-9.125 22.434-20.774 1.649-21.434.886-11.512 3.542-46.041.317-4.13-2.773-7.735-6.903-8.053-4.129-.33-7.736 2.773-8.053 6.902l-1.685 21.903h-34.538v-95.317c0-2.702.639-5.408 1.847-7.825l10.253-20.506c1.331-2.662 2.29-5.513 2.85-8.439 3.29-1.057 6.384-2.89 8.991-5.497l18.26-18.26h4.325l-6.543 85.058c-.003.033-.005.065-.008.098l-.998 12.974c-.334 4.345 3.096 8.075 7.486 8.075 3.88 0 7.167-2.99 7.47-6.925l.469-6.093h62.57c.844 10.978 5.923 76.994 6.765 87.944.896 11.649 10.75 20.774 22.434 20.774h25.203v8.031c0 4.143 3.358 7.5 7.5 7.5s7.5-3.357 7.5-7.5v-8.031h47.125v8.031c0 4.143 3.358 7.5 7.5 7.5s7.5-3.357 7.5-7.5v-8.031h25.203c11.684 0 21.538-9.125 22.434-20.774.825-10.72 13.289-172.756 13.933-181.132h8.586c4.142 0 7.5-3.357 7.5-7.5s-3.357-7.498-7.499-7.498zm-35.618 170.844h-34.538v-95.318c0-2.702.639-5.408 1.847-7.825l10.253-20.506c1.331-2.662 2.29-5.513 2.85-8.439 3.29-1.057 6.384-2.89 8.991-5.497l18.26-18.26h4.325zm-96.663 0v-95.318c0-5.019-1.187-10.045-3.431-14.534l-10.253-20.506c-.366-.732-.679-1.491-.939-2.268 2.732-1.096 5.292-2.749 7.501-4.959l18.26-18.26h24.849l18.26 18.26c2.21 2.21 4.769 3.863 7.501 4.959-.26.777-.573 1.536-.939 2.268l-10.253 20.506c-2.245 4.489-3.431 9.516-3.431 14.534v95.317h-47.125zm31.593 15v16.062h-16.062v-16.062zm-81.131-15c-19.199-249.597-8.301-107.916-11.988-155.844h4.325l18.26 18.26c2.607 2.607 5.701 4.439 8.991 5.497.56 2.926 1.519 5.777 2.85 8.439l10.253 20.506c1.208 2.417 1.847 5.123 1.847 7.825v95.317zm31.81-148.192c-2.924 2.924-7.682 2.925-10.606 0l-7.652-7.652h25.911zm93.187 0c-2.924 2.924-7.682 2.925-10.606 0l-7.652-7.652h25.911zm-137.584-31.215c0-4.136 3.364-7.5 7.5-7.5h96.782c4.142 0 7.5-3.357 7.5-7.5s-3.358-7.5-7.5-7.5h-84.116l3.194-6.389c2.983-5.967 8.981-9.674 15.652-9.674h93.349c6.671 0 12.669 3.707 15.652 9.674l3.194 6.389h-11.926c-4.142 0-7.5 3.357-7.5 7.5s3.358 7.5 7.5 7.5h23.906c.146.003.2.002.3 0h.387c4.136 0 7.5 3.364 7.5 7.5v8.562h-171.374zm-279.563 0c0-4.136 3.364-7.5 7.5-7.5h187.438c4.136 0 7.5 3.364 7.5 7.5v8.562h-202.438zm47.125 179.407h-34.538l-11.988-155.844h4.325l18.26 18.26c2.607 2.607 5.701 4.439 8.991 5.497.56 2.926 1.519 5.777 2.85 8.439l10.253 20.506c1.208 2.417 1.847 5.123 1.847 7.825zm-2.728-148.192c-2.924 2.924-7.682 2.925-10.606 0l-7.652-7.652h25.911zm-29.953 172.329-.703-9.138h17.853v16.062h-9.672c-3.894.001-7.18-3.041-7.478-6.924zm32.15 6.925v-16.062h16.062v16.062zm78.187-16.062v16.062h-47.125v-16.062zm63.213 9.137c-.298 3.883-3.583 6.925-7.478 6.925h-9.672v-16.062h17.853zm-32.15 6.925h-16.062v-16.062h16.062zm-93.719-31.062v-95.318c0-5.019-1.187-10.045-3.431-14.534l-10.253-20.506c-.366-.732-.679-1.491-.939-2.268 2.732-1.096 5.292-2.749 7.501-4.959l18.26-18.26h55.911l18.26 18.26c2.21 2.21 4.769 3.863 7.501 4.959-.26.777-.573 1.536-.939 2.268l-10.253 20.506c-2.245 4.489-3.431 9.516-3.431 14.534v95.317h-78.187zm106.522-148.192c-2.924 2.924-7.682 2.925-10.606 0l-7.652-7.652h25.911zm42.222 70.535 6.014-78.188h48.234l6.014 78.188zm83.138 101.794-.703-9.138h17.853v16.062h-9.672c-3.895.001-7.18-3.041-7.478-6.924zm32.15 6.925v-16.062h16.062v16.062zm62.124 0v-16.062h16.062v16.062zm48.213-6.925c-.298 3.883-3.583 6.925-7.478 6.925h-9.672v-16.062h17.853z"/></g></svg>