<svg id="Capa_1" enable-background="new 0 0 511 511" height="512" viewBox="0 0 511 511" width="512" xmlns="http://www.w3.org/2000/svg"><path d="m255.5 503.5c-15.616 0-28.275-12.659-28.275-28.275v-226.339h56.55v226.339c0 15.616-12.659 28.275-28.275 28.275z" fill="#99573d"/><path d="m85.941 43.98h339.118v168.426h-339.118z" fill="#fcc472"/><path d="m427.424 43.98h-343.848c-10.074 0-18.24-8.166-18.24-18.24 0-10.074 8.166-18.24 18.24-18.24h343.849c10.074 0 18.24 8.166 18.24 18.24-.001 10.073-8.167 18.24-18.241 18.24z" fill="#e8834d"/><path d="m427.424 248.886h-343.848c-10.074 0-18.24-8.166-18.24-18.24 0-10.074 8.166-18.24 18.24-18.24h343.849c10.074 0 18.24 8.166 18.24 18.24-.001 10.074-8.167 18.24-18.241 18.24z" fill="#e8834d"/><path d="m265.775 248.886v226.339c0 12.468-8.074 23.043-19.275 26.803 2.828.949 5.852 1.471 9 1.471 15.616 0 28.275-12.659 28.275-28.275v-226.338z" fill="#894c37"/><path d="m407.059 43.98h18v168.427h-18z" fill="#f4b158"/><path d="m427.425 7.5h-18c10.073 0 18.24 8.166 18.24 18.24s-8.166 18.24-18.24 18.24h18c10.073 0 18.24-8.166 18.24-18.24s-8.167-18.24-18.24-18.24z" fill="#d66e41"/><path d="m427.425 212.406h-18c10.073 0 18.24 8.166 18.24 18.24s-8.166 18.24-18.24 18.24h18c10.073 0 18.24-8.166 18.24-18.24-.001-10.074-8.167-18.24-18.24-18.24z" fill="#d66e41"/><path d="m432.559 205.422v-154.458c11.741-2.386 20.605-12.789 20.605-25.224 0-14.193-11.547-25.74-25.739-25.74h-343.85c-14.192 0-25.739 11.547-25.739 25.74 0 12.435 8.865 22.838 20.605 25.224v154.458c-11.741 2.386-20.605 12.789-20.605 25.225 0 14.192 11.547 25.739 25.739 25.739h136.15v218.84c0 19.726 16.048 35.774 35.774 35.774s35.774-16.049 35.774-35.774v-68.067c0-4.143-3.357-7.5-7.5-7.5s-7.5 3.357-7.5 7.5v68.067c0 11.455-9.319 20.774-20.774 20.774s-20.774-9.319-20.774-20.774v-218.84h41.549v120.772c0 4.143 3.357 7.5 7.5 7.5s7.5-3.357 7.5-7.5v-120.772h136.15c14.192 0 25.739-11.547 25.739-25.739.001-12.436-8.863-22.839-20.604-25.225zm-5.134 35.964h-343.85c-5.922 0-10.739-4.817-10.739-10.739s4.817-10.74 10.739-10.74h71.636c4.143 0 7.5-3.357 7.5-7.5s-3.357-7.5-7.5-7.5h-61.77v-153.428h239.513c4.143 0 7.5-3.357 7.5-7.5s-3.357-7.5-7.5-7.5h-249.379c-5.922 0-10.739-4.817-10.739-10.739s4.817-10.74 10.739-10.74h343.85c5.922 0 10.739 4.818 10.739 10.74s-4.817 10.739-10.739 10.739h-64.471c-4.143 0-7.5 3.357-7.5 7.5s3.357 7.5 7.5 7.5h54.604v153.427h-232.347c-4.143 0-7.5 3.357-7.5 7.5s3.357 7.5 7.5 7.5h242.214c5.922 0 10.739 4.818 10.739 10.74s-4.817 10.74-10.739 10.74z"/><path d="m134.939 76.188c-6.845 0-12.414 5.569-12.414 12.414s5.569 12.414 12.414 12.414 12.414-5.569 12.414-12.414c-.001-6.844-5.57-12.414-12.414-12.414z"/><path d="m134.939 115.778c-6.845 0-12.414 5.569-12.414 12.415 0 6.845 5.569 12.414 12.414 12.414s12.414-5.569 12.414-12.414c-.001-6.845-5.57-12.415-12.414-12.415z"/><path d="m134.939 155.369c-6.845 0-12.414 5.569-12.414 12.414s5.569 12.414 12.414 12.414 12.414-5.569 12.414-12.414-5.57-12.414-12.414-12.414z"/><path d="m215.313 101.017c6.846 0 12.415-5.569 12.415-12.414s-5.569-12.414-12.415-12.414c-6.845 0-12.414 5.569-12.414 12.414-.001 6.844 5.569 12.414 12.414 12.414z"/><path d="m215.313 140.607c6.846 0 12.415-5.569 12.415-12.414 0-6.846-5.569-12.415-12.415-12.415-6.845 0-12.414 5.569-12.414 12.415-.001 6.845 5.569 12.414 12.414 12.414z"/><path d="m215.313 180.197c6.846 0 12.415-5.569 12.415-12.414s-5.569-12.414-12.415-12.414c-6.845 0-12.414 5.569-12.414 12.414s5.569 12.414 12.414 12.414z"/><path d="m175.126 121.024c6.845 0 12.414-5.569 12.414-12.414s-5.569-12.414-12.414-12.414c-6.846 0-12.415 5.569-12.415 12.414s5.569 12.414 12.415 12.414z"/><path d="m187.54 148.201c0-6.845-5.569-12.414-12.414-12.414-6.846 0-12.415 5.569-12.415 12.414s5.569 12.414 12.415 12.414c6.845 0 12.414-5.569 12.414-12.414z"/><path d="m295.688 101.017c6.845 0 12.414-5.569 12.414-12.414s-5.569-12.414-12.414-12.414c-6.846 0-12.415 5.569-12.415 12.414-.001 6.844 5.569 12.414 12.415 12.414z"/><path d="m295.688 140.607c6.845 0 12.414-5.569 12.414-12.414 0-6.846-5.569-12.415-12.414-12.415-6.846 0-12.415 5.569-12.415 12.415-.001 6.845 5.569 12.414 12.415 12.414z"/><path d="m295.688 180.197c6.845 0 12.414-5.569 12.414-12.414s-5.569-12.414-12.414-12.414c-6.846 0-12.415 5.569-12.415 12.414s5.569 12.414 12.415 12.414z"/><path d="m255.5 121.024c6.845 0 12.414-5.569 12.414-12.414s-5.569-12.414-12.414-12.414-12.414 5.569-12.414 12.414 5.569 12.414 12.414 12.414z"/><path d="m255.5 160.615c6.845 0 12.414-5.569 12.414-12.414s-5.569-12.414-12.414-12.414-12.414 5.569-12.414 12.414 5.569 12.414 12.414 12.414z"/><path d="m376.061 101.017c6.845 0 12.414-5.569 12.414-12.414s-5.569-12.414-12.414-12.414-12.414 5.569-12.414 12.414c0 6.844 5.57 12.414 12.414 12.414z"/><path d="m376.061 140.607c6.845 0 12.414-5.569 12.414-12.414 0-6.846-5.569-12.415-12.414-12.415s-12.414 5.569-12.414 12.415c0 6.845 5.57 12.414 12.414 12.414z"/><path d="m376.061 180.197c6.845 0 12.414-5.569 12.414-12.414s-5.569-12.414-12.414-12.414-12.414 5.569-12.414 12.414 5.57 12.414 12.414 12.414z"/><path d="m335.874 121.024c6.846 0 12.415-5.569 12.415-12.414s-5.569-12.414-12.415-12.414c-6.845 0-12.414 5.569-12.414 12.414s5.569 12.414 12.414 12.414z"/><path d="m335.874 160.615c6.846 0 12.415-5.569 12.415-12.414s-5.569-12.414-12.415-12.414c-6.845 0-12.414 5.569-12.414 12.414s5.569 12.414 12.414 12.414z"/></svg>