<svg id="Capa_1" enable-background="new 0 0 512 512" height="512" viewBox="0 0 512 512" width="512" xmlns="http://www.w3.org/2000/svg"><g><path d="m178.344 224.938h155.312v31.062h-155.312z" fill="#685e68"/><path d="m147.362 7.5h-62.286c-9.469 0-18.126 5.35-22.361 13.82l-8.621 17.243 62.125 15.531 62.125-15.531-8.621-17.243c-4.235-8.47-12.892-13.82-22.361-13.82z" fill="#fff3be"/><path d="m170.578 380.25h-108.719l-26.284-113.899c-13.321-57.726-11.772-117.889 4.504-174.853l6.249-21.873h139.781l6.249 21.873c16.275 56.964 17.825 117.127 4.504 174.853z" fill="#fe9738"/><path d="m186.109 69.625h-139.781l-5.714 20h37.205c7.506 0 14.285 4.252 17.797 10.885 3.908 7.382 11.668 12.412 20.603 12.412s16.694-5.029 20.603-12.412c3.512-6.633 10.291-10.885 17.797-10.885h37.205z" fill="#fe860a"/><path d="m112.009 154.552-25.124 39.21c-1.053 1.644-1.053 3.751 0 5.395l25.124 39.21c1.967 3.07 6.453 3.07 8.42 0l25.124-39.21c1.053-1.644 1.053-3.751 0-5.395l-25.124-39.21c-1.967-3.07-6.453-3.07-8.42 0z" fill="#fe860a"/><path d="m193.875 38.562h-154.874c-8.363 0-15.559 6.427-15.952 14.78-.42 8.919 6.687 16.282 15.514 16.282h39.257c7.506 0 14.285 4.252 17.797 10.885 3.908 7.382 11.668 12.412 20.603 12.412s16.694-5.029 20.603-12.412c3.512-6.633 10.291-10.885 17.797-10.885h38.818c8.363 0 15.559-6.427 15.952-14.781.418-8.918-6.688-16.281-15.515-16.281z" fill="#685e68"/><path d="m116.219 127.981-31.063 48.478 31.063 48.479 31.062-48.479z" fill="#685e68"/><path d="m364.638 7.5h62.286c9.469 0 18.126 5.35 22.361 13.82l8.621 17.243-62.125 15.531-62.125-15.531 8.621-17.243c4.235-8.47 12.892-13.82 22.361-13.82z" fill="#fff3be"/><path d="m341.422 380.25h108.719l26.284-113.899c13.321-57.726 11.772-117.889-4.504-174.853l-6.249-21.873h-139.781l-6.25 21.873c-16.275 56.964-17.825 117.127-4.504 174.853z" fill="#fe9738"/><g fill="#fe860a"><path d="m465.672 69.625h-139.781l-5.714 20h37.205c7.506 0 14.285 4.252 17.797 10.885 3.908 7.382 11.668 12.412 20.603 12.412s16.694-5.029 20.603-12.412c3.512-6.633 10.291-10.885 17.797-10.885h37.205z"/><path d="m399.991 154.552 25.124 39.21c1.053 1.644 1.053 3.751 0 5.395l-25.124 39.21c-1.967 3.07-6.453 3.07-8.42 0l-25.124-39.21c-1.053-1.644-1.053-3.751 0-5.395l25.124-39.21c1.967-3.07 6.453-3.07 8.42 0z"/><path d="m192.359 91.498-6.25-21.873h-34.286l.535 1.873c16.275 56.964 17.825 117.127 4.504 174.853l-17.34 75.142c-5.235 22.687-25.437 38.757-48.719 38.757h-33.559l4.615 20h108.719l26.284-113.899c13.322-57.726 11.772-117.889-4.503-174.853z"/><path d="m471.921 91.498-6.25-21.873h-34.286l.535 1.873c16.275 56.964 17.825 117.127 4.503 174.853l-17.34 75.142c-5.235 22.687-25.437 38.757-48.719 38.757h-33.559l4.615 20h108.719l26.284-113.899c13.323-57.726 11.774-117.889-4.502-174.853z"/></g><path d="m318.125 38.562h154.874c8.363 0 15.559 6.427 15.952 14.78.42 8.919-6.687 16.282-15.514 16.282h-39.257c-7.506 0-14.285 4.252-17.797 10.885-3.908 7.382-11.668 12.412-20.603 12.412s-16.694-5.029-20.603-12.412c-3.512-6.633-10.291-10.885-17.797-10.885h-38.818c-8.363 0-15.559-6.427-15.952-14.781-.419-8.918 6.688-16.281 15.515-16.281z" fill="#685e68"/><path d="m395.781 127.981 31.063 48.478-31.063 48.479-31.062-48.479z" fill="#685e68"/><path d="m484.006 155.68c-4.133.29-7.247 3.874-6.957 8.006 2.377 33.895-.292 67.869-7.932 100.979l-24.943 108.085h-96.785l-24.943-108.085c-12.999-56.333-11.48-115.503 4.406-171.106l4.696-16.434h25.834c4.638 0 8.917 2.642 11.168 6.895 4.155 7.848 11.366 13.39 19.731 15.481v26.284l-29.877 46.628c-1.581 2.466-1.581 5.626 0 8.093l31.062 48.478c1.379 2.152 3.759 3.454 6.314 3.454s4.936-1.302 6.314-3.454l31.062-48.478c1.581-2.466 1.581-5.626 0-8.093l-29.877-46.628v-26.284c8.366-2.091 15.576-7.633 19.731-15.481 2.251-4.253 6.53-6.895 11.168-6.895h25.834l4.696 16.434c3.335 11.673 6.076 23.655 8.148 35.612.703 4.062 4.565 6.819 8.67 6.11 4.081-.708 6.816-4.589 6.109-8.67-2.162-12.481-5.023-24.988-8.505-37.172l-3.547-12.415c11.995-1.138 21.449-11.435 20.857-24.033-.58-12.295-10.878-21.927-23.444-21.927h-10.458l-6.548-13.097c-5.538-11.083-16.677-17.967-29.066-17.967h-62.285c-12.39 0-23.528 6.884-29.069 17.966l-6.548 13.097h-10.896c-12.854 0-23.637 10.689-23.006 24.135.115 2.431.61 4.759 1.427 6.928-17.956 0-32.515 14.594-32.515 32.5v37.125c0 4.428-3.603 8.031-8.031 8.031-4.429 0-8.031-3.603-8.031-8.031v-37.126c0-17.885-14.537-32.5-32.515-32.5.817-2.169 1.312-4.497 1.427-6.928.631-13.443-10.15-24.134-23.006-24.134h-10.896l-6.548-13.097c-5.542-11.082-16.681-17.966-29.071-17.966h-62.285c-12.39 0-23.528 6.884-29.069 17.966l-6.548 13.097h-10.458c-12.566 0-22.864 9.632-23.444 21.928-.591 12.583 8.848 22.893 20.858 24.033-1.196 7.276-32.206 86.766-8.147 191.014l24.205 104.888c-3.363.741-5.879 3.738-5.879 7.324 0 4.142 3.357 7.5 7.5 7.5h27.589c4.143 0 7.5-3.358 7.5-7.5s-3.357-7.5-7.5-7.5h-13.858l-24.942-108.085c-13.002-56.343-11.478-115.511 4.408-171.107l4.695-16.433h25.833c4.638 0 8.917 2.642 11.168 6.895 4.155 7.848 11.366 13.39 19.731 15.481v26.284l-29.877 46.628c-1.581 2.466-1.581 5.626 0 8.093l31.062 48.478c1.379 2.152 3.759 3.454 6.314 3.454s4.936-1.302 6.314-3.454l31.062-48.478c1.581-2.466 1.581-5.626 0-8.093l-29.877-46.628v-26.284c8.366-2.091 15.576-7.633 19.731-15.481 2.251-4.253 6.53-6.895 11.168-6.895h25.834l4.696 16.434c15.881 55.584 17.411 114.759 4.407 171.106l-24.94 108.085h-47.929c-4.143 0-7.5 3.358-7.5 7.5s3.357 7.5 7.5 7.5h61.661c4.143 0 7.5-3.358 7.5-7.5 0-3.585-2.516-6.583-5.879-7.324 26.18-113.447 24.501-106.114 25.22-109.426h43.315v112.736l-67.583 45.055c-16.033 10.689-25.604 28.574-25.604 47.843v35.366c0 4.142 3.357 7.5 7.5 7.5s7.5-3.358 7.5-7.5v-35.366c0-7.068 1.743-13.884 4.947-19.924.264.119-4.28-1.704 73.241 29.304v25.986c0 4.142 3.357 7.5 7.5 7.5s7.5-3.358 7.5-7.5v-25.985c77.594-31.038 72.991-29.192 73.241-29.304 3.204 6.039 4.947 12.855 4.947 19.924v35.365c0 4.142 3.357 7.5 7.5 7.5s7.5-3.358 7.5-7.5v-35.366c0-19.269-9.571-37.154-25.604-47.843l-67.585-45.055v-112.736h43.315c.719 3.314-1.284-5.428 25.22 109.426-3.363.741-5.879 3.738-5.879 7.324 0 4.142 3.357 7.5 7.5 7.5h124.25c4.143 0 7.5-3.358 7.5-7.5 0-3.585-2.516-6.583-5.879-7.324l24.205-104.888c7.976-34.56 10.761-70.022 8.279-105.401-.289-4.133-3.882-7.248-8.005-6.957zm-235.506 238.584v68.096l-63.473-25.389c1.326-1.144 2.731-2.213 4.21-3.199zm78.473 42.707-63.473 25.389v-68.096l59.263 39.508c1.479.986 2.884 2.055 4.21 3.199zm90.964-260.512-22.155 34.576-22.155-34.576 14.655-22.871v24.756c0 4.142 3.357 7.5 7.5 7.5s7.5-3.358 7.5-7.5v-24.756zm-68.952-151.785c2.985-5.967 8.983-9.674 15.654-9.674h62.285c6.671 0 12.669 3.707 15.653 9.674l3.194 6.389h-99.98zm-38.881 29.818c-.219-4.619 3.444-8.429 8.021-8.429h154.874c4.467 0 8.262 3.424 8.46 7.633.219 4.62-3.444 8.43-8.021 8.43-8.756 0-26.323 0-39.257 0-10.208 0-19.567 5.7-24.426 14.876-1.497 2.829-3.768 5.075-6.474 6.533v-13.91c0-4.142-3.357-7.5-7.5-7.5s-7.5 3.358-7.5 7.5v13.909c-2.706-1.458-4.977-3.704-6.475-6.533-4.857-9.176-14.217-14.876-24.425-14.876-13.486 0-24.521 0-38.818 0-4.466 0-8.261-3.424-8.459-7.633zm-31.073 77.258v-37.125c0-9.649 7.851-17.5 17.5-17.5h19.417l-3.518 12.312c-11.878 41.572-16.062 85.057-12.492 128h-36.438v-63.91c9.028-3.118 15.531-11.702 15.531-21.777zm-140.657 44.709-22.155 34.576-22.155-34.576 14.655-22.871v24.756c0 4.142 3.357 7.5 7.5 7.5s7.5-3.358 7.5-7.5v-24.756zm-8.182-99.458c-1.497 2.829-3.768 5.075-6.474 6.533v-13.909c0-4.142-3.357-7.5-7.5-7.5s-7.5 3.358-7.5 7.5v13.909c-2.706-1.458-4.977-3.704-6.475-6.533-4.857-9.176-14.217-14.876-24.425-14.876-9.423 0-28.972 0-39.257 0-4.58 0-8.239-3.811-8.022-8.429.199-4.209 3.994-7.633 8.461-7.633h78.199c4.143 0 7.5-3.358 7.5-7.5s-3.357-7.5-7.5-7.5h-50.97l3.194-6.388c2.984-5.968 8.982-9.675 15.653-9.675h62.285c6.671 0 12.669 3.707 15.653 9.674l3.194 6.389h-14.008c-4.143 0-7.5 3.358-7.5 7.5s3.357 7.5 7.5 7.5h41.675c4.579 0 8.239 3.811 8.022 8.429-.199 4.209-3.994 7.634-8.461 7.634-14.262 0-25.322 0-38.818 0-10.208-.001-19.567 5.699-24.426 14.875zm65.86.124h19.416c9.649 0 17.5 7.851 17.5 17.5v37.125c0 10.075 6.503 18.659 15.531 21.777v63.91h-36.438c3.571-42.944-.614-86.428-12.492-128zm12.052 171.375c.92-5.338 1.717-10.694 2.392-16.062h38.004v16.062zm55.396 0v-16.062h38.004c.675 5.369 1.472 10.725 2.392 16.062z"/></g></svg>