<svg id="Capa_1" enable-background="new 0 0 512.01 512.01" height="512" viewBox="0 0 512.01 512.01" width="512" xmlns="http://www.w3.org/2000/svg"><g><path d="m311.955 162.761-9.351 31.119-22.619 22.171c-7-4.21-15.205 8.891-23.975 8.891s-16.965-13.111-23.965-8.891l-22.629-22.171-9.351-31.119c16.35-9.82 35.485-31.007 55.945-31.007 20.45 0 39.595 21.187 55.945 31.007z" fill="#ffc344"/><path d="m307.569 177.357 4.386-14.596c-16.35-9.82-35.495-31.007-55.945-31.007-2.251 0-4.486.257-6.703.726 24.241 7.791 44.771 23.859 58.262 44.877z" fill="#feb237"/><path d="m349.254 311.95-31.119-9.351-22.171-22.619c4.21-7-8.891-15.205-8.891-23.975s13.111-16.965 8.891-23.965l22.171-22.629 31.119-9.351c9.82 16.35 31.007 35.485 31.007 55.945 0 20.45-21.187 39.595-31.007 55.945z" fill="#ffc344"/><path d="m349.254 200.06-28.039 8.426c2.293 8.789 3.514 18.012 3.514 27.519 0 20.87-5.88 40.365-16.074 56.922l9.481 9.672 31.119 9.351c9.82-16.35 31.007-35.495 31.007-55.945-.002-20.46-21.188-39.595-31.008-55.945z" fill="#feb237"/><path d="m200.065 349.249 9.351-31.119 22.619-22.171c7 4.21 15.205-8.891 23.975-8.891s16.965 13.111 23.965 8.891l22.629 22.171 9.351 31.119c-16.35 9.82-35.485 31.007-55.945 31.007-20.45-.001-39.595-21.187-55.945-31.007z" fill="#ffc344"/><path d="m295.013 310.693c-19.818 20.956-47.884 34.031-79.003 34.031-4.849 0-9.624-.318-14.305-.933l-1.64 5.458c16.35 9.82 35.495 31.007 55.945 31.007 20.46 0 39.595-21.187 55.945-31.007l-9.351-31.119z" fill="#feb237"/><path d="m162.766 200.06 31.119 9.351 22.171 22.619c-4.21 7 8.891 15.205 8.891 23.975s-13.111 16.965-8.891 23.965l-22.171 22.629-31.119 9.351c-9.82-16.35-31.007-35.485-31.007-55.945 0-20.45 21.187-39.595 31.007-55.945z" fill="#ffc344"/><path d="m162.766 200.06 31.119 9.351 22.171 22.619c-4.21 7 8.891 15.205 8.891 23.975s-13.111 16.965-8.891 23.965l-22.171 22.629-31.119 9.351c-9.82-16.35-31.007-35.485-31.007-55.945 0-20.45 21.187-39.595 31.007-55.945z" fill="#ffc344"/><path d="m232.045 216.051c-6.56 3.93-12.06 9.43-15.99 15.98l-53.28-31.97c-15.484-37.245 15.577-52.775 37.29-37.3z" fill="#ffe177"/><path d="m200.066 162.766-21.713-62.073-50.215-57.806c-34.918 20.996-64.252 50.33-85.247 85.248l57.806 50.215 62.073 21.713c9.186-15.278 22.02-28.112 37.296-37.297z" fill="#ffc344"/><path d="m295.964 232.04c-3.93-6.56-9.43-12.06-15.98-15.99l31.97-53.28c37.245-15.484 52.775 15.577 37.3 37.29z" fill="#ffe177"/><path d="m311.954 162.77-6.688 11.146c8.616 12.363 14.729 26.6 17.606 41.977l26.382-15.832c15.475-21.714-.055-52.775-37.3-37.291z" fill="#ffd15b"/><path d="m349.249 200.061 62.073-21.713 57.806-50.215c-20.996-34.918-50.33-64.252-85.248-85.247l-50.215 57.806-21.713 62.073c15.278 9.186 28.112 22.02 37.297 37.296z" fill="#ffc344"/><path d="m279.975 295.959c6.56-3.93 12.06-9.43 15.99-15.98l53.28 31.97c15.484 37.245-15.577 52.775-37.29 37.3z" fill="#ffe177"/><path d="m349.245 311.949-38.275-22.967c-5.313 9.503-12.011 18.126-19.821 25.596l20.806 34.67c21.713 15.476 52.774-.054 37.29-37.299z" fill="#ffd15b"/><path d="m311.954 349.244 21.713 62.073 50.215 57.806c34.918-20.996 64.252-50.33 85.247-85.248l-57.806-50.215-62.073-21.713c-9.186 15.278-22.02 28.112-37.296 37.297z" fill="#ffc344"/><path d="m216.056 279.97c3.93 6.56 9.43 12.06 15.98 15.99l-31.97 53.28c-37.245 15.484-52.775-15.577-37.3-37.29z" fill="#ffe177"/><path d="m156.933 327.287c-1.614 17.936 14.214 33.976 43.133 21.953l3.157-5.261c-16.924-1.983-32.659-7.852-46.29-16.692z" fill="#ffd15b"/><path d="m162.771 311.948-62.073 21.713-57.806 50.215c20.996 34.918 50.33 64.252 85.248 85.247l50.215-57.806 21.713-62.073c-15.278-9.185-28.112-22.019-37.297-37.296z" fill="#ffc344"/><path d="m256.01 209.411c-25.733 0-46.594 20.861-46.594 46.594s20.861 46.594 46.594 46.594 46.594-20.861 46.594-46.594-20.861-46.594-46.594-46.594zm0 62.125c-8.578 0-15.531-6.954-15.531-15.531 0-8.578 6.954-15.531 15.531-15.531 8.578 0 15.531 6.954 15.531 15.531 0 8.578-6.953 15.531-15.531 15.531z" fill="#fff0ad"/><path d="m256.01 147.286c20.46 0 39.6 5.652 55.944 15.479l71.928-119.88c-37.358-22.462-81.106-35.38-127.872-35.38s-90.514 12.918-127.871 35.381l71.928 119.88c16.343-9.828 35.483-15.48 55.943-15.48z" fill="#f6ab31"/><path d="m147.291 256.005c0-20.46 5.652-39.6 15.479-55.944l-119.88-71.928c-22.462 37.358-35.38 81.106-35.38 127.872s12.918 90.514 35.381 127.871l119.88-71.928c-9.828-16.343-15.48-35.483-15.48-55.943z" fill="#feb237"/><path d="m256.01 364.724c-20.46 0-39.6-5.652-55.944-15.479l-71.928 119.88c37.357 22.463 81.106 35.381 127.871 35.381s90.514-12.918 127.871-35.381l-71.928-119.88c-16.342 9.827-35.482 15.479-55.942 15.479z" fill="#f6ab31"/><path d="m469.129 128.134-119.88 71.928c9.828 16.344 15.479 35.484 15.479 55.944s-5.652 39.6-15.479 55.944l119.88 71.928c22.463-37.357 35.381-81.106 35.381-127.871s-12.918-90.516-35.381-127.873z" fill="#f6ab31"/><g fill="#feb237"><path d="m447.958 146.524 21.171-18.391c-20.996-34.918-50.33-64.252-85.248-85.248l-4.824 5.554c30.289 26.323 54.172 59.883 68.901 98.085z"/><path d="m434.763 354.024c-18.491 34.198-44.764 63.546-76.422 85.699l25.54 29.401c34.918-20.996 64.252-50.33 85.248-85.248z"/><path d="m125.465 467.492c.888.549 1.779 1.093 2.674 1.631l.394-.454c-1.026-.385-2.049-.778-3.068-1.177z"/></g><path d="m380.036 49.295 3.845-6.409c-11.834-7.116-24.31-13.273-37.32-18.366 11.853 7.324 23.049 15.618 33.475 24.775z" fill="#eca026"/><path d="m147.291 256.005c0-20.46 5.652-39.6 15.479-55.944l-119.88-71.928c-22.462 37.358-35.38 81.106-35.38 127.872s12.918 90.514 35.381 127.871l119.88-71.928c-9.828-16.343-15.48-35.483-15.48-55.943z" fill="#f6ab31"/><path d="m216.01 484.505c-30.822 0-60.337-5.612-87.577-15.872l-.295.491c37.357 22.463 81.106 35.381 127.871 35.381s90.514-12.918 127.871-35.381l-20.024-33.374c-41.354 30.65-92.531 48.755-147.846 48.755z" fill="#eca026"/><path d="m469.129 128.134-22.995 13.797c11.839 28.963 18.376 60.71 18.376 94.074 0 45.588-12.255 88.253-33.625 124.925l38.244 22.946c22.463-37.357 35.381-81.106 35.381-127.871s-12.918-90.514-35.381-127.871z" fill="#eca026"/><path d="m279.041 256.005c0-12.699-10.332-23.031-23.031-23.031-12.7 0-23.031 10.332-23.031 23.031s10.332 23.031 23.031 23.031c12.7 0 23.031-10.332 23.031-23.031zm-31.062 0c0-4.429 3.603-8.031 8.031-8.031s8.031 3.603 8.031 8.031c0 4.429-3.603 8.031-8.031 8.031s-8.031-3.602-8.031-8.031z"/><path d="m512.01 256.001c0-141.395-114.736-255.996-256.004-255.996-59.677 0-119.545 20.765-167.754 62.622-3.128 2.715-3.462 7.452-.747 10.58 2.716 3.128 7.453 3.462 10.581.746 8.661-7.519 17.902-14.451 27.546-20.669l64.275 107.125c-11.493 7.969-21.523 17.998-29.492 29.492l-107.126-64.276c6.217-9.643 13.15-18.884 20.673-27.548 2.716-3.128 2.382-7.864-.746-10.58s-7.865-2.382-10.58.746c-41.53 47.827-62.636 107.697-62.636 167.772 0 142.128 115.552 255.99 256.013 255.99 141.502 0 255.997-114.796 255.997-256.004zm-53.279-130.375-40.949 24.569c-3.552 2.132-4.704 6.738-2.573 10.29s6.739 4.704 10.29 2.573l40.963-24.577c40.584 72.56 40.876 161.965 0 235.049l-107.127-64.276c17.188-33.323 17.195-73.153 0-106.497l34.618-20.771c3.552-2.132 4.704-6.738 2.573-10.29-2.133-3.554-6.738-4.704-10.29-2.573l-34.63 20.779c-7.969-11.494-17.998-21.523-29.492-29.492l64.275-107.125c28.904 18.638 53.703 43.437 72.342 72.341zm-144.355 213.082-24.389-40.641c2.969-2.403 5.679-5.112 8.082-8.081l40.643 24.387c-6.664 9.414-14.922 17.672-24.336 24.335zm-116.736-.002c-9.413-6.663-17.671-14.92-24.333-24.334l40.641-24.389c2.402 2.968 5.112 5.678 8.08 8.081zm92.352-124.76 24.387-40.643c9.414 6.663 17.672 14.921 24.334 24.335l-40.641 24.389c-2.402-2.967-5.112-5.678-8.08-8.081zm-12.85-7.736c-13.451-5.73-28.788-5.738-42.257-.003l-24.385-40.635c28.537-14.372 62.45-14.391 91.025.002zm-60.226 49.795c0-21.557 17.538-39.094 39.094-39.094s39.094 17.537 39.094 39.094-17.538 39.094-39.094 39.094-39.094-17.537-39.094-39.094zm129.525 45.515-40.636-24.383c5.73-13.45 5.739-28.788.003-42.257l40.635-24.386c14.372 28.536 14.391 62.45-.002 91.026zm27.093-255.967-64.276 107.127c-33.319-17.186-73.155-17.197-106.497 0l-64.275-107.127c72.56-40.585 161.965-40.877 235.048 0zm-175.89 127.749 24.389 40.641c-2.969 2.403-5.679 5.112-8.082 8.081l-40.643-24.387c6.664-9.415 14.923-17.673 24.336-24.335zm-32.065 37.188 40.636 24.383c-5.73 13.45-5.738 28.788-.003 42.257l-40.635 24.386c-14.373-28.539-14.39-62.452.002-91.026zm-120.02-72.01 107.126 64.275c-17.186 33.323-17.196 73.156 0 106.498l-107.126 64.276c-40.748-72.848-40.716-162.256 0-235.049zm7.73 247.904 107.125-64.275c7.969 11.494 17.999 21.523 29.492 29.492l-64.275 107.125c-28.903-18.639-53.703-43.438-72.342-72.342zm85.197 80.073 64.275-107.126c5.296 2.733 10.801 5.059 16.438 6.939 3.932 1.311 8.178-.811 9.488-4.74 1.311-3.93-.811-8.178-4.74-9.488-4.603-1.536-9.105-3.413-13.452-5.605l24.384-40.637c13.451 5.73 28.788 5.738 42.257.002l24.386 40.635c-14.048 7.075-29.637 10.786-45.521 10.786-4.142 0-7.495 3.357-7.495 7.5s3.363 7.5 7.505 7.5c18.597 0 36.855-4.438 53.248-12.894l64.276 107.127c-72.562 40.585-161.966 40.878-235.049.001zm247.903-7.731-64.275-107.125c11.494-7.969 21.523-17.998 29.492-29.492l107.125 64.275c-18.639 28.904-43.438 53.703-72.342 72.342z"/><path d="m75.421 326.675c1.506 3.85 5.848 5.762 9.718 4.251 3.857-1.51 5.76-5.861 4.25-9.718-8.131-20.772-12.254-42.712-12.254-65.207 0-22.515 4.123-44.448 12.253-65.193 1.511-3.856-.39-8.208-4.246-9.719-3.857-1.513-8.208.388-9.72 4.246-8.817 22.495-13.287 46.271-13.287 70.666 0 24.374 4.47 48.152 13.286 70.674z"/><path d="m321.208 89.384c3.856 1.514 8.208-.389 9.719-4.246 1.512-3.856-.389-8.208-4.246-9.719-22.496-8.817-46.272-13.288-70.666-13.288-24.384 0-48.163 4.474-70.677 13.298-3.856 1.511-5.757 5.862-4.246 9.719 1.514 3.863 5.869 5.756 9.72 4.246 20.762-8.137 42.7-12.263 65.203-12.263 22.513 0 44.447 4.123 65.193 12.253z"/><path d="m190.812 422.618c-3.858-1.514-8.208.389-9.72 4.246-1.511 3.856.39 8.208 4.246 9.719 22.514 8.824 46.293 13.298 70.677 13.298 24.396 0 48.172-4.471 70.666-13.287 3.857-1.511 5.758-5.862 4.246-9.719-1.511-3.856-5.862-5.76-9.719-4.246-20.744 8.13-42.678 12.252-65.193 12.252-22.503 0-44.441-4.126-65.203-12.263z"/><path d="m426.882 330.926c3.865 1.514 8.212-.404 9.718-4.251 8.815-22.521 13.285-46.3 13.285-70.674 0-24.396-4.471-48.172-13.287-70.666-1.512-3.857-5.863-5.76-9.719-4.246-3.857 1.511-5.758 5.862-4.246 9.719 8.13 20.744 12.252 42.679 12.252 65.193 0 22.495-4.123 44.434-12.254 65.207-1.51 3.856.394 8.208 4.251 9.718z"/><path d="m58.35 347.035c3.819-1.604 5.614-6.001 4.009-9.819-10.806-25.717-16.285-53.041-16.285-81.215 0-28.167 5.479-55.488 16.285-81.204 1.604-3.818-.19-8.215-4.009-9.819-3.817-1.608-8.215.189-9.82 4.009-11.583 27.565-17.456 56.841-17.456 87.015 0 30.18 5.873 59.459 17.456 87.025 1.608 3.826 6.012 5.611 9.82 4.008z"/><path d="m112.004 314.752c3.906-1.38 5.953-5.665 4.573-9.57-5.562-15.739-8.381-32.286-8.381-49.181 0-16.885 2.82-33.432 8.382-49.183 1.379-3.905-.669-8.189-4.575-9.569-3.906-1.376-8.19.669-9.569 4.575-6.13 17.359-9.238 35.587-9.238 54.177 0 18.602 3.108 36.83 9.239 54.179 1.381 3.911 5.669 5.95 9.569 4.572z"/><path d="m305.197 395.438c-15.748 5.562-32.295 8.383-49.182 8.383-16.863 0-33.415-2.82-49.196-8.384-3.906-1.378-8.189.673-9.567 4.58-1.377 3.906.673 8.189 4.58 9.566 17.388 6.13 35.617 9.237 54.184 9.237 18.592 0 36.82-3.108 54.178-9.238 3.905-1.38 5.953-5.664 4.574-9.57-1.381-3.903-5.661-5.95-9.571-4.574z"/><path d="m174.8 449.647c-3.821-1.606-8.215.19-9.82 4.009-1.604 3.819.19 8.216 4.009 9.819 27.584 11.59 56.864 17.466 87.025 17.466 30.173 0 59.449-5.873 87.016-17.456 3.818-1.604 5.613-6.001 4.009-9.819-1.604-3.82-6.001-5.616-9.819-4.009-25.717 10.806-53.038 16.284-81.205 16.284-28.156 0-55.481-5.482-81.215-16.294z"/><path d="m337.22 62.355c3.82 1.607 8.216-.189 9.819-4.009 1.604-3.818-.19-8.215-4.009-9.819-27.566-11.583-56.843-17.456-87.016-17.456-30.164 0-59.444 5.876-87.025 17.466-3.819 1.604-5.614 6.001-4.009 9.819 1.608 3.826 6.012 5.612 9.82 4.009 25.732-10.812 53.057-16.294 81.215-16.294 28.167 0 55.488 5.479 81.205 16.284z"/><path d="m206.822 116.573c15.75-5.562 32.301-8.382 49.193-8.382 16.876 0 33.425 2.817 49.187 8.373 3.905 1.379 8.19-.674 9.566-4.58 1.377-3.906-.673-8.189-4.58-9.566-17.367-6.122-35.593-9.227-54.173-9.227-18.598 0-36.829 3.108-54.187 9.237-3.906 1.38-5.954 5.664-4.575 9.569s5.659 5.954 9.569 4.576z"/><path d="m465.946 256.001c0 28.175-5.479 55.499-16.285 81.215-1.604 3.818.189 8.215 4.009 9.819 3.818 1.607 8.215-.191 9.819-4.009 11.584-27.565 17.457-56.845 17.457-87.025 0-30.175-5.873-59.45-17.457-87.015-1.605-3.82-6.005-5.615-9.819-4.009-3.819 1.604-5.613 6.001-4.009 9.819 10.805 25.716 16.285 53.037 16.285 81.205z"/><path d="m395.451 206.814c5.556 15.762 8.373 32.31 8.373 49.187 0 16.896-2.819 33.442-8.381 49.181-1.38 3.905.667 8.19 4.572 9.57 3.913 1.381 8.193-.673 9.57-4.572 6.13-17.348 9.238-35.576 9.238-54.179 0-18.58-3.104-36.806-9.227-54.173-1.376-3.906-5.661-5.959-9.566-4.58-3.906 1.377-5.956 5.66-4.579 9.566z"/></g></svg>