<svg id="Capa_1" enable-background="new 0 0 512 512" height="512" viewBox="0 0 512 512" width="512" xmlns="http://www.w3.org/2000/svg"><path d="m341.643 492.999-18.576-184.564h-134.134l-18.576 184.564c-.593 5.889 4.031 11.001 9.95 11.001h151.387c5.918 0 10.542-5.112 9.949-11.001z" fill="#99573d"/><path d="m341.643 492.999-18.576-184.564h-18l18.576 184.564c.593 5.889-4.031 11.001-9.95 11.001h18c5.919 0 10.543-5.112 9.95-11.001z" fill="#894c37"/><path d="m326.122 338.785-3.054-30.35h-134.135l-3.055 30.35z" fill="#725539"/><path d="m326.122 338.785-3.054-30.35h-134.135l-3.055 30.35z" fill="#725539"/><path d="m323.068 308.435h-18l3.054 30.35h18z" fill="#6b4c32"/><path d="m384.532 73.145-31.718 216.205c-1.608 10.961-11.01 19.084-22.088 19.084h-149.451c-11.078 0-20.48-8.124-22.088-19.084l-31.719-216.205z" fill="#e8834d"/><path d="m366.532 73.145-31.718 216.205c-1.608 10.961-11.01 19.084-22.088 19.084h18c11.078 0 20.48-8.124 22.088-19.084l31.718-216.206h-18z" fill="#d66e41"/><path d="m387.763 73.145h-263.525c-5.703 0-10.326-4.623-10.326-10.326v-8.234c0-5.703 4.623-10.326 10.326-10.326h263.525c5.703 0 10.326 4.623 10.326 10.326v8.234c-.001 5.703-4.624 10.326-10.326 10.326z" fill="#725539"/><path d="m348.273 8h-184.546c-20.025 0-36.259 16.234-36.259 36.259h257.064c0-20.025-16.234-36.259-36.259-36.259z" fill="#ffeca1"/><path d="m387.763 44.259h-18c5.703 0 10.326 4.623 10.326 10.326v8.234c0 5.703-4.623 10.326-10.326 10.326h18c5.703 0 10.326-4.623 10.326-10.326v-8.234c-.001-5.703-4.624-10.326-10.326-10.326z" fill="#6b4c32"/><path d="m348.273 8h-18c20.025 0 36.259 16.234 36.259 36.259h18c0-20.025-16.234-36.259-36.259-36.259z" fill="#ffdf85"/><path d="m405.881 62.441v-8.25c0-8.583-6.088-15.768-14.171-17.473-3.415-20.798-21.507-36.718-43.256-36.718h-184.908c-21.749 0-39.841 15.92-43.256 36.718-8.083 1.705-14.171 8.89-14.171 17.473v8.25c0 8.719 6.284 15.986 14.558 17.541l2.216 15.108h-7.254c-4.15 0-7.515 3.364-7.515 7.515s3.364 7.515 7.515 7.515h9.459l23.587 160.778h-5.876c-4.15 0-7.515 3.364-7.515 7.515s3.365 7.515 7.515 7.515h8.081l.672 4.579c2.106 14.353 14.485 25.219 28.932 25.53l-17.782 176.673c-1.024 10.176 7.225 19.29 17.446 19.29h33.293c4.15 0 7.515-3.364 7.515-7.515s-3.365-7.515-7.515-7.515h-33.293c-1.462 0-2.639-1.298-2.492-2.755l14.871-147.754h63.463c4.15 0 7.515-3.364 7.515-7.515s-3.365-7.515-7.515-7.515h-61.95l1.548-15.381h120.804l1.548 15.381h-31.892c-4.15 0-7.515 3.364-7.515 7.515s3.365 7.515 7.515 7.515h33.404l14.871 147.754c.147 1.457-1.03 2.755-2.492 2.755h-88.331c-4.15 0-7.515 3.364-7.515 7.515s3.365 7.515 7.515 7.515h88.332c10.221 0 18.47-9.114 17.446-19.29l-17.781-176.673c14.447-.311 26.826-11.178 28.932-25.53l.672-4.579h8.08c4.15 0 7.515-3.364 7.515-7.515s-3.364-7.515-7.515-7.515h-5.875l23.587-160.778h9.459c4.15 0 7.515-3.364 7.515-7.515s-3.364-7.515-7.515-7.515h-7.254l2.216-15.108c8.273-1.554 14.557-8.822 14.557-17.541zm-242.335-47.412h184.908c13.289 0 24.5 9.045 27.815 21.3h-154.012c-4.15 0-7.515 3.364-7.515 7.515s3.365 7.515 7.515 7.515h165.764c1.561 0 2.831 1.27 2.831 2.832v8.25c0 1.561-1.27 2.831-2.831 2.831h-264.042c-1.561 0-2.831-1.27-2.831-2.831v-8.25c0-1.562 1.27-2.832 2.831-2.832h68.219c4.15 0 7.515-3.364 7.515-7.515s-3.365-7.515-7.515-7.515h-56.467c3.315-12.255 14.526-21.3 27.815-21.3zm128.089 285.993 1.161-15.095h16.43l-2.124 15.095zm-86.738 0-2.123-15.095h16.43l1.161 15.095zm58.618-190.902h27.734l-12.369 160.778h-15.364v-160.778zm-15.03 160.778h-15.364l-12.37-160.778h27.734zm15.03-175.807v-14.79h30.028l-1.138 14.79zm-15.03 0h-28.89l-1.138-14.79h30.028zm-45.101-14.79 1.138 14.79h-28.594l-2.081-14.79zm2.294 29.819 12.37 160.778h-17.388l-22.618-160.778zm28.6 175.808h14.207v15.095h-13.046zm29.237 0h14.208l-1.161 15.095h-13.046v-15.095zm30.438-15.03 12.37-160.778h27.636l-22.617 160.778zm13.525-175.807 1.138-14.79h29.537l-2.081 14.79zm-171.564-14.79h22.757l2.08 14.79h-22.667zm4.374 29.819h22.577l22.617 160.778h-21.607zm26.144 178.205-.352-2.397h21.516l2.124 15.095h-8.592c-7.316-.001-13.634-5.459-14.696-12.698zm179.137 0c-1.063 7.239-7.381 12.698-14.697 12.698h-8.591l2.123-15.095h21.517zm2.556-17.427h-21.607l22.618-160.778h22.576zm3.125-175.807 2.081-14.79h22.756l-2.17 14.79z"/></svg>