<svg id="Capa_1" enable-background="new 0 0 512 512" height="512" viewBox="0 0 512 512" width="512" xmlns="http://www.w3.org/2000/svg"><path d="m194.023 189.122v-27.586h-133.365v69.848h82.327c13.364-17.826 30.849-32.38 51.038-42.262z" fill="#fcc472"/><path d="m317.977 189.122v-27.586h133.365v69.848h-82.327c-13.364-17.826-30.849-32.38-51.038-42.262z" fill="#fcc472"/><g fill="#99573d"><path d="m162.336 421.579-25.391 39.099c-3.659 5.634-2.057 13.168 3.577 16.827 2.047 1.329 4.343 1.963 6.614 1.963 3.981 0 7.884-1.952 10.213-5.541l24.543-37.792c-6.942-4.29-13.482-9.165-19.556-14.556z"/><path d="m349.664 421.579 25.391 39.099c3.659 5.634 2.057 13.168-3.577 16.827-2.047 1.329-4.343 1.963-6.614 1.963-3.982 0-7.884-1.952-10.213-5.541l-24.543-37.792c6.942-4.29 13.482-9.165 19.556-14.556z"/><path d="m199.308 161.535h-143.935c-3.652 0-6.613-2.961-6.613-6.613v-12.21c0-3.652 2.961-6.613 6.613-6.613h143.935c3.652 0 6.613 2.961 6.613 6.613v12.21c0 3.653-2.961 6.613-6.613 6.613z"/></g><path d="m199.308 136.099h-18c3.652 0 6.613 2.96 6.613 6.613v12.21c0 3.652-2.961 6.613-6.613 6.613h18c3.652 0 6.613-2.961 6.613-6.613v-12.21c0-3.652-2.961-6.613-6.613-6.613z" fill="#894c37"/><path d="m142.985 231.384h-87.612c-3.652 0-6.613 2.961-6.613 6.613v12.211c0 3.652 2.961 6.613 6.613 6.613h72.432c4.175-9.035 9.272-17.557 15.18-25.437z" fill="#99573d"/><path d="m312.692 161.535h143.935c3.652 0 6.613-2.961 6.613-6.613v-12.21c0-3.652-2.961-6.613-6.613-6.613h-143.935c-3.652 0-6.613 2.961-6.613 6.613v12.21c0 3.653 2.961 6.613 6.613 6.613z" fill="#99573d"/><path d="m369.015 231.384h87.612c3.652 0 6.613 2.961 6.613 6.613v12.211c0 3.652-2.961 6.613-6.613 6.613h-72.432c-4.175-9.035-9.272-17.557-15.18-25.437z" fill="#99573d"/><path d="m433.342 161.535h18v69.848h-18z" fill="#f4b158"/><path d="m456.627 136.099h-18c3.652 0 6.613 2.96 6.613 6.613v12.21c0 3.652-2.961 6.613-6.613 6.613h18c3.652 0 6.613-2.961 6.613-6.613v-12.21c0-3.652-2.96-6.613-6.613-6.613z" fill="#894c37"/><path d="m456.627 231.383h-18c3.652 0 6.613 2.961 6.613 6.613v12.211c0 3.652-2.961 6.613-6.613 6.613h18c3.652 0 6.613-2.961 6.613-6.613v-12.211c0-3.652-2.96-6.613-6.613-6.613z" fill="#894c37"/><circle cx="256" cy="315.978" fill="#e8834d" r="141.162"/><path d="m349.664 421.579c-6.074 5.391-12.614 10.266-19.555 14.557l10.332 15.909c6.922-4.305 13.493-9.12 19.657-14.399z" fill="#894c37"/><path d="m151.902 437.645c6.164 5.279 12.735 10.094 19.658 14.399l10.331-15.909c-6.941-4.29-13.482-9.166-19.555-14.557z" fill="#894c37"/><path d="m124.985 231.383h18c13.364-17.825 30.849-32.379 51.038-42.262v-7.311c-27.825 9.116-51.843 26.638-69.038 49.573z" fill="#f4b158"/><path d="m109.804 256.82h18c4.176-9.035 9.272-17.556 15.18-25.437h-18c-5.907 7.881-11.004 16.403-15.18 25.437z" fill="#894c37"/><path d="m256 174.816c-3.024 0-6.023.106-9 .294 73.767 4.643 132.162 65.931 132.162 140.869s-58.396 136.226-132.162 140.869c2.977.188 5.976.294 9 .294 77.962 0 141.162-63.201 141.162-141.162s-63.2-141.164-141.162-141.164z" fill="#d66e41"/><circle cx="256" cy="315.978" fill="#ffeca1" r="115.172"/><path d="m256 200.806c-3.029 0-6.03.119-9 .348 59.401 4.592 106.172 54.245 106.172 114.824s-46.771 110.232-106.172 114.824c2.97.229 5.971.348 9 .348 63.608 0 115.172-51.564 115.172-115.172s-51.564-115.172-115.172-115.172z" fill="#ffdf85"/><path d="m154.554 71.674h-146.554c5.226-15.893 20.066-26.635 36.797-26.635h72.961c16.73 0 31.57 10.742 36.796 26.635z" fill="#ffe431"/><path d="m117.758 45.039h-18c16.731 0 31.57 10.742 36.797 26.635h18c-5.227-15.893-20.067-26.635-36.797-26.635z" fill="#ffbf00"/><path d="m357.446 71.674h146.554c-5.226-15.893-20.066-26.635-36.797-26.635h-72.961c-16.73 0-31.57 10.742-36.796 26.635z" fill="#ffe431"/><path d="m467.203 45.039h-18c16.73 0 31.57 10.742 36.797 26.635h18c-5.226-15.893-20.066-26.635-36.797-26.635z" fill="#ffbf00"/><circle cx="256" cy="372.683" fill="#5a5a5a" r="23.924"/><path d="m256 348.759c-3.184 0-6.221.628-9 1.757 8.751 3.557 14.924 12.139 14.924 22.167s-6.173 18.61-14.924 22.167c2.779 1.129 5.816 1.757 9 1.757 13.213 0 23.924-10.711 23.924-23.924 0-13.212-10.711-23.924-23.924-23.924z" fill="#4c4c4c"/><path d="m256 193.182c-67.776 0-122.916 55.14-122.916 122.915 0 67.776 55.14 122.916 122.916 122.916 19.595 0 38.326-4.476 55.674-13.303 3.699-1.883 5.172-6.407 3.29-10.106-1.883-3.699-6.407-5.171-10.106-3.29-15.216 7.743-31.654 11.669-48.857 11.669-59.489 0-107.886-48.398-107.886-107.886s48.397-107.885 107.886-107.885 107.886 48.397 107.886 107.885c0 30.115-12.726 59.08-34.916 79.467-3.056 2.807-3.257 7.562-.45 10.618 2.807 3.055 7.561 3.258 10.618.449 25.279-23.225 39.777-56.224 39.777-90.534 0-67.775-55.14-122.915-122.916-122.915z"/><path d="m224.513 372.916c0 17.362 14.125 31.486 31.487 31.486s31.486-14.125 31.486-31.486c0-17.362-14.125-31.486-31.486-31.486-17.362-.001-31.487 14.124-31.487 31.486zm47.943 0c0 9.074-7.382 16.457-16.456 16.457-9.075 0-16.457-7.383-16.457-16.457s7.382-16.456 16.457-16.456c9.074-.001 16.456 7.382 16.456 16.456z"/><path d="m511.632 68.96c-6.265-19.054-23.951-31.856-44.008-31.856h-29.039v-5.018c0-4.151-3.365-7.515-7.515-7.515s-7.515 3.364-7.515 7.515v5.018h-29.038c-20.057 0-37.743 12.802-44.008 31.856-1.573 4.784 2.111 9.862 7.139 9.862h65.908v49.522h-110.751c-7.797 0-14.141 6.344-14.141 14.141v12.235c0 7.04 5.178 12.878 11.922 13.949v8.826c-16.911-6.684-35.327-10.357-54.585-10.357s-37.675 3.674-54.585 10.357v-8.826c6.744-1.071 11.922-6.909 11.922-13.949v-12.235c0-7.798-6.344-14.141-14.141-14.141h-110.753v-49.521h65.908c5.027 0 8.712-5.078 7.139-9.862-6.265-19.054-23.951-31.856-44.008-31.856h-29.039v-5.018c0-4.151-3.365-7.515-7.515-7.515s-7.515 3.364-7.515 7.515v5.018h-29.038c-20.057 0-37.743 12.802-44.008 31.856-1.573 4.784 2.111 9.862 7.139 9.862h65.908v49.522h-18.442c-7.797 0-14.141 6.344-14.141 14.141v12.235c0 7.04 5.178 12.878 11.922 13.949v55.341c-6.744 1.07-11.922 6.909-11.922 13.95v12.234c0 7.798 6.344 14.141 14.141 14.141h18.441v151.827l-37.196 56.979c-2.063 3.161-1.407 7.503 1.509 9.904 3.414 2.811 8.661 2.011 11.076-1.689l24.611-37.7v36.255c0 4.151 3.365 7.515 7.515 7.515s7.515-3.364 7.515-7.515v-36.255l24.61 37.7c2.269 3.477 6.926 4.455 10.4 2.185 3.476-2.269 4.454-6.925 2.185-10.401l-37.196-56.979v-151.825h27.877c-5.996 16.13-9.28 33.568-9.28 51.76 0 41.932 17.422 79.866 45.4 106.962l-22.036 33.933c-4.153 6.394-4.188 14.837-.117 21.28 4.647 7.355 13.901 10.811 22.244 8.349 4.476-1.321 8.382-4.253 10.923-8.166l20.716-31.899c21.314 11.782 45.801 18.501 71.829 18.501s50.515-6.718 71.83-18.501l20.715 31.897c4.271 6.58 12.235 10.034 19.961 8.676 8.086-1.421 14.547-7.929 15.971-15.996.863-4.89-.177-9.978-2.882-14.141l-22.037-33.933c27.978-27.096 45.4-65.03 45.4-106.962 0-18.192-3.284-35.63-9.28-51.76h27.877v151.827l-37.196 56.979c-2.269 3.476-1.291 8.131 2.185 10.401 3.474 2.268 8.131 1.29 10.401-2.185l24.61-37.7v36.255c0 4.151 3.365 7.515 7.515 7.515s7.515-3.364 7.515-7.515v-36.255l24.61 37.7c2.415 3.7 7.663 4.499 11.076 1.689 2.917-2.401 3.573-6.743 1.509-9.904l-37.196-56.979v-151.828h18.441c7.797 0 14.141-6.344 14.141-14.141v-12.234c0-7.041-5.178-12.879-11.922-13.95v-55.342c6.744-1.071 11.922-6.909 11.922-13.949v-12.235c0-7.798-6.344-14.141-14.141-14.141h-18.441v-49.522h65.908c5.03 0 8.715-5.078 7.141-9.863zm-467.256-16.826h73.107c9.694 0 18.568 4.427 24.383 11.659h-121.873c5.815-7.232 14.689-11.659 24.383-11.659zm11.486 91.241h142.444v10.457h-63.929c-4.15 0-7.515 3.364-7.515 7.515s3.365 7.515 7.515 7.515h52.007v15.58c-18.349 9.742-34.434 23.202-47.235 39.378h-71.365v-54.958h36.534c4.15 0 7.515-3.364 7.515-7.515s-3.365-7.515-7.515-7.515h-48.456zm0 105.932v-10.457h72.816c-2.069 3.398-3.999 6.889-5.797 10.457zm94.987 220.963c-1.5 2.312-4.779 2.812-6.903 1.051-1.8-1.492-2.208-4.182-.935-6.142l20.856-32.115c2.449 1.933 4.963 3.784 7.532 5.564zm218.141-5.092c1.387 2.137.76 5.08-1.375 6.465-2.139 1.388-5.079.762-6.465-1.375l-20.548-31.642c2.569-1.779 5.083-3.631 7.532-5.564zm-112.99-15.152c-73.848 0-133.929-60.08-133.929-133.929 0-73.848 60.08-133.928 133.929-133.928s133.929 60.08 133.929 133.928c0 73.849-60.081 133.929-133.929 133.929zm200.138-200.719h-67.019c-1.798-3.569-3.728-7.059-5.797-10.457h13.51c4.15 0 7.515-3.364 7.515-7.515s-3.365-7.515-7.515-7.515h-23.981c-12.801-16.176-28.886-29.636-47.235-39.378v-15.58h118.601v54.958h-17.325c-4.15 0-7.515 3.364-7.515 7.515s3.365 7.515 7.515 7.515h29.247v10.457zm0-95.475h-142.444v-10.457h142.444zm-86.004-90.039c5.815-7.232 14.689-11.659 24.383-11.659h73.107c9.694 0 18.568 4.427 24.383 11.659z"/></svg>