<svg id="Capa_1" enable-background="new 0 0 512 512" height="512" viewBox="0 0 512 512" width="512" xmlns="http://www.w3.org/2000/svg"><g><path d="m206.351 8.9h31.062v562.436h-31.062z" fill="#cbc4cc" transform="matrix(.707 .707 -.707 .707 270.132 -71.921)"/><path d="m409.751 80.284-61.588 61.588v11.609c0 6.63 2.634 12.989 7.322 17.678l3.66 3.66 72.57-72.57z" fill="#b5adb6"/><path d="m379.522 155.194-4.036-4.036c-4.688-4.688-7.322-11.047-7.322-17.678v-27.36c0-3.978 1.58-7.794 4.393-10.607l43.196-43.196c4.688-4.688 11.047-7.322 17.678-7.322 7.433 0 14.562-2.953 19.818-8.209l24.738-24.738 21.965 21.965-24.738 24.738c-5.256 5.256-8.209 12.385-8.209 19.818 0 6.63-2.634 12.989-7.322 17.678l-58.947 58.947c-5.859 5.858-15.356 5.858-21.214 0z" fill="#f3f0f3"/><path d="m477.986 12.049-24.738 24.738c-1.553 1.553-3.271 2.906-5.111 4.04l-2.924 2.924c-5.256 5.256-8.209 12.385-8.209 19.818 0 6.63-2.634 12.989-7.322 17.678l-58.947 58.947c-.416.416-.85.802-1.3 1.158 1.215 3.661 3.272 7.027 6.051 9.806l4.036 4.036c5.858 5.858 15.355 5.858 21.213 0l58.947-58.947c4.688-4.688 7.322-11.047 7.322-17.678 0-7.433 2.953-14.562 8.209-19.818l24.738-24.738z" fill="#e2dee2"/><g fill="#f3f0f3"><circle cx="91.454" cy="420.546" r="23.297"/><circle cx="146.365" cy="365.635" r="23.297"/><circle cx="201.276" cy="310.724" r="23.297"/><circle cx="256.188" cy="255.813" r="23.297"/></g><path d="m93.256 397.319c3.126 8.298 1.35 18.022-5.328 24.7-5.008 5.008-11.728 7.259-18.275 6.754 1.133 3.007 2.909 5.827 5.328 8.246 9.098 9.098 23.849 9.098 32.947 0s9.098-23.849 0-32.947c-4.091-4.089-9.324-6.34-14.672-6.753z" fill="#e2dee2"/><path d="m148.167 342.408c3.126 8.298 1.35 18.022-5.328 24.7-5.008 5.008-11.728 7.259-18.275 6.754 1.133 3.007 2.909 5.826 5.329 8.246 9.098 9.098 23.849 9.098 32.947 0s9.098-23.849 0-32.947c-4.092-4.09-9.325-6.341-14.673-6.753z" fill="#e2dee2"/><path d="m272.661 239.339c-4.09-4.09-9.323-6.341-14.672-6.754 3.126 8.298 1.35 18.022-5.328 24.701-5.008 5.008-11.728 7.259-18.275 6.754 1.133 3.007 2.909 5.826 5.328 8.246 9.098 9.098 23.849 9.098 32.947 0s9.098-23.849 0-32.947z" fill="#e2dee2"/><path d="m203.078 287.497c3.126 8.298 1.35 18.022-5.328 24.7-5.008 5.008-11.728 7.259-18.275 6.754 1.133 3.007 2.909 5.827 5.328 8.246 9.098 9.098 23.849 9.098 32.947 0s9.098-23.849 0-32.947c-4.091-4.09-9.323-6.341-14.672-6.753z" fill="#e2dee2"/><path d="m509.804 33.259-31.063-31.062c-2.93-2.929-7.678-2.929-10.607 0-2.673 2.673-2.906 6.861-.701 9.799l-19.489 19.489c-3.877 3.877-9.031 6.012-14.514 6.012-8.682 0-16.843 3.38-22.981 9.519l-16.349 16.349c-2.93 2.929-2.93 7.677-.001 10.606s7.678 2.93 10.606 0l16.351-16.349c3.305-3.305 7.699-5.125 12.374-5.125 9.489 0 18.41-3.695 25.121-10.406l19.435-19.435 11.358 11.358-19.435 19.434c-6.71 6.711-10.405 15.632-10.405 25.122 0 4.674-1.82 9.069-5.126 12.374l-58.947 58.947c-2.923 2.923-7.681 2.924-10.605 0-.161-.161-3.982-3.983-4.035-4.036-3.306-3.305-5.126-7.7-5.126-12.375v-27.36c0-2.004.78-3.888 2.195-5.303l2.141-2.14c2.93-2.928 2.93-7.677.001-10.606s-7.678-2.931-10.606-.001l-2.142 2.141c-4.249 4.25-6.589 9.9-6.589 15.91v12.644l-27.842 27.842c-2.938-2.205-7.126-1.972-9.799.701s-2.906 6.861-.7 9.799l-11.465 11.465c-2.938-2.205-7.125-1.972-9.799.701-2.673 2.673-2.906 6.861-.701 9.799l-46.015 46.015c-15.564.925-27.957 13.305-28.883 28.883l-26.012 26.012c-7.539.438-14.566 3.583-19.949 8.967-5.535 5.535-8.519 12.671-8.95 19.932l-26.012 26.012c-7.539.438-14.566 3.583-19.949 8.967-5.535 5.536-8.519 12.672-8.95 19.933l-26.011 26.011c-7.539.438-14.566 3.583-19.95 8.967-5.535 5.536-8.519 12.672-8.95 19.933l-24.425 24.425c-2.938-2.205-7.126-1.972-9.799.701s-2.906 6.861-.7 9.799l-13.806 13.806c-2.938-2.205-7.126-1.972-9.799.701-2.929 2.929-2.929 7.678 0 10.606l31.062 31.062c2.93 2.929 7.678 2.929 10.607 0 2.673-2.673 2.906-6.861.701-9.798l13.806-13.806c2.95 2.214 7.135 1.962 9.799-.701 2.673-2.673 2.906-6.861.7-9.799l24.409-24.409c7.539-.438 14.566-3.583 19.948-8.967h.001c5.384-5.384 8.529-12.41 8.967-19.949l25.995-25.995c4.909-.285 9.601-1.719 13.764-4.17l.882.882c8.979 8.979 23.592 8.98 32.572 0l38.715-38.715.321.327c2.9 2.953 7.648 3.001 10.605.097 2.956-2.902 3-7.65.098-10.606l-.418-.425 44.203-44.203.322.327c2.9 2.953 7.648 3.001 10.605.097 2.956-2.902 3-7.65.098-10.606l-.52-.529c1.945-2.914 1.631-6.889-.94-9.46-2.539-2.538-6.442-2.876-9.345-1.016l-6.571-6.693c2.598-4.321 4.043-9.147 4.333-14.029l23.996-23.996 5.679 5.679c1.518 1.517 2.353 3.534 2.353 5.679s-.835 4.162-2.353 5.679l-3.391 3.391c-2.929 2.929-2.929 7.678 0 10.606 2.93 2.929 7.678 2.929 10.607 0l3.39-3.39c4.351-4.35 6.746-10.134 6.746-16.286s-2.396-11.936-6.745-16.286l-5.679-5.679 11.412-11.411c2.95 2.214 7.135 1.962 9.799-.701 2.673-2.673 2.906-6.861.701-9.799l11.465-11.465c2.95 2.214 7.135 1.962 9.799-.701 2.672-2.672 2.906-6.86.701-9.798l14.534-14.534c8.423 4.276 19.038 2.925 26.111-4.147l58.946-58.947c6.139-6.138 9.52-14.299 9.52-22.981 0-5.483 2.136-10.638 6.013-14.515l19.488-19.488c2.95 2.214 7.135 1.962 9.799-.701 2.924-2.93 2.924-7.679-.005-10.608zm-226.912 207.207c-2.622-4.566-6.511-8.574-11.358-11.357l39.377-39.377 11.358 11.358c-3.576 3.575-34.963 34.961-39.377 39.376zm38.626-61.342 11.357-11.357 11.358 11.358-11.357 11.357zm21.965-21.964 17.723-17.723c1.043 5.663 3.572 10.927 7.392 15.323l-13.757 13.757zm-98.466 87.483c6.157-6.157 16.18-6.161 22.341 0 6.159 6.159 6.159 16.181 0 22.34-6.158 6.158-16.182 6.158-22.34 0-6.159-6.16-6.159-16.182-.001-22.34zm-17.036 50.734c-2.703-4.706-6.658-8.657-11.351-11.365l12.853-12.853c2.633 4.584 6.531 8.585 11.358 11.358zm-37.874 4.177c6.159-6.16 16.15-6.19 22.34 0 6.159 6.159 6.159 16.181.001 22.34-6.162 6.158-16.183 6.158-22.341 0-6.159-6.159-6.159-16.181 0-22.34zm-17.03 50.728c-2.696-4.673-6.647-8.64-11.358-11.358l12.853-12.853c2.617 4.556 6.502 8.569 11.358 11.358zm-37.881 4.183c6.162-6.163 16.155-6.184 22.34 0 6.156 6.157 6.185 16.154 0 22.34-.001 0-.001 0-.001 0-6.146 6.147-16.144 6.196-22.339 0-6.16-6.159-6.16-16.181 0-22.34zm-28.388 39.37 12.853-12.853c2.703 4.706 6.658 8.657 11.35 11.365l-12.846 12.846c-2.712-4.702-6.674-8.656-11.357-11.358zm-84.152 84.152 13.699-13.699 11.357 11.357-13.698 13.699zm24.306-24.306 17.788-17.788c2.702 4.706 6.658 8.657 11.35 11.365l-17.781 17.781zm55.662-21.965c-.001 0-.001 0 0 0-6.176 6.177-16.17 6.17-22.34 0-6.159-6.159-6.159-16.181 0-22.34 6.179-6.18 16.177-6.162 22.34 0 6.144 6.145 6.197 16.143 0 22.34zm82.179-49.232c-3.131 3.131-8.227 3.131-11.357 0l-.789-.789c2.624-4.278 4.156-9.138 4.452-14.232l26.012-26.012c4.889-.291 9.723-1.74 14.049-4.345l6.446 6.565zm49.419-49.42-6.475-6.595c2.55-4.288 3.969-9.068 4.256-13.902l26.028-26.028c4.843-.288 9.629-1.711 13.922-4.269l6.471 6.591z"/><circle cx="420.734" cy="91.267" r="7.5"/></g></svg>