<svg id="Capa_1" enable-background="new 0 0 511.996 511.996" height="512" viewBox="0 0 511.996 511.996" width="512" xmlns="http://www.w3.org/2000/svg"><g><path d="m209.407 209.402h434.875v31.062h-434.875z" fill="#855151" transform="matrix(0 1 -1 0 651.778 -201.911)"/><path d="m411.313 58.559h31.062v62.125h-31.062z" fill="#704444"/><path d="m403.547 473.434 23.297 15.531 23.297-15.531v-34.094c0-6.904-5.596-12.5-12.5-12.5h-21.594c-6.904 0-12.5 5.596-12.5 12.5z" fill="#9b5e5e"/><path d="m380.25 504.496h93.188v-16.062c0-8.284-6.716-15-15-15h-63.188c-8.284 0-15 6.716-15 15z" fill="#ae6c6c"/><path d="m-132.281 209.402h434.875v31.063h-434.875z" fill="#855151" transform="matrix(0 1 -1 0 310.09 139.777)"/><path d="m69.625 58.559h31.062v62.125h-31.062z" fill="#704444"/><path d="m23.032 54.09h465.938v31.062h-465.938z" fill="#855151"/><g fill="#9b5e5e"><path d="m103.719 100.684h-37.125c-6.904 0-12.5-5.596-12.5-12.5v-37.125c0-6.904 5.596-12.5 12.5-12.5h37.125c6.904 0 12.5 5.596 12.5 12.5v37.125c0 6.903-5.596 12.5-12.5 12.5z"/><path d="m445.407 100.684h-37.125c-6.904 0-12.5-5.596-12.5-12.5v-37.125c0-6.904 5.596-12.5 12.5-12.5h37.125c6.904 0 12.5 5.596 12.5 12.5v37.125c0 6.903-5.597 12.5-12.5 12.5z"/><path d="m108.454 473.434-23.297 15.531-23.297-15.531v-34.094c0-6.904 5.596-12.5 12.5-12.5h21.594c6.904 0 12.5 5.596 12.5 12.5z"/></g><path d="m131.75 504.496h-93.187v-16.062c0-8.284 6.716-15 15-15h63.187c8.284 0 15 6.716 15 15z" fill="#ae6c6c"/><circle cx="256" cy="263.762" fill="#f6ab31" r="124.25"/><path d="m213.175 322.59-18.429 18.429c-1.953 1.952-1.953 5.118 0 7.071l2.148 2.148-14.002 14c4.131 3.011 8.455 5.772 12.949 8.264l11.66-11.658 2.139 2.139c1.953 1.953 5.118 1.953 7.071 0l14.893-14.894c1.953-1.953 1.953-5.119 0-7.071z" fill="#eca026"/><circle cx="256" cy="283.762" fill="#eca026" r="85.422"/><path d="m290.606 144.395c30.147 22.671 49.645 58.742 49.645 99.367 0 68.621-55.629 124.25-124.25 124.25-12.009 0-23.62-1.704-34.605-4.883 20.776 15.623 46.609 24.883 74.605 24.883 68.621 0 124.25-55.629 124.25-124.25-.001-56.612-37.862-104.381-89.645-119.367z" fill="#eca026"/><circle cx="256" cy="263.762" fill="#ffc344" r="85.422"/><circle cx="256" cy="273.762" fill="#feb237" r="15.531"/><path d="m272.847 180.001c17.534 15.644 28.575 38.413 28.575 63.761 0 47.177-38.245 85.422-85.422 85.422-5.767 0-11.4-.572-16.847-1.661 15.101 13.473 35.017 21.661 56.847 21.661 47.177 0 85.422-38.245 85.422-85.422 0-41.41-29.466-75.938-68.575-83.761z" fill="#feb237"/><path d="m240.441 327.893c2.929-2.929 2.929-7.678 0-10.606s-7.678-2.929-10.606.001l-10.98 10.98-.001.001-2.143-2.143c-1.953-1.953-5.118-1.953-7.071 0l-5.511 5.511c8.468 6.481 18.183 11.413 28.724 14.374.518-1.709.102-3.64-1.249-4.991l-2.144-2.144.001-.001z" fill="#feb237"/><circle cx="256" cy="263.762" fill="#ffe177" r="15.531"/><path d="m197.644 309.023h31.062v31.062h-31.062z" fill="#fff" transform="matrix(.707 .707 -.707 .707 291.932 -55.678)"/><path d="m279.032 263.762c0-12.699-10.332-23.031-23.031-23.031s-23.031 10.332-23.031 23.031 10.332 23.031 23.031 23.031 23.031-10.332 23.031-23.031zm-31.063 0c0-4.429 3.603-8.031 8.031-8.031s8.031 3.603 8.031 8.031-3.603 8.031-8.031 8.031-8.031-3.603-8.031-8.031z"/><path d="m488.968 46.59h-24.065c-1.706-7.446-7.58-13.321-15.025-15.027v-24.063c0-4.143-3.358-7.5-7.5-7.5h-31.07c-4.142 0-7.5 3.357-7.5 7.5v24.063c-7.444 1.708-13.317 7.581-15.023 15.027h-32.097v-8.031c0-4.143-3.358-7.5-7.5-7.5s-7.5 3.357-7.5 7.5v8.031h-108.559c-4.142 0-7.5 3.357-7.5 7.5s3.358 7.5 7.5 7.5h108.559v16.06h-171.375v-16.06h27.816c4.142 0 7.5-3.357 7.5-7.5s-3.358-7.5-7.5-7.5h-27.816v-8.031c0-4.143-3.358-7.5-7.5-7.5s-7.5 3.357-7.5 7.5v8.031h-32.097c-1.706-7.447-7.581-13.322-15.028-15.028v-24.062c0-4.143-3.358-7.5-7.5-7.5h-31.06c-4.142 0-7.5 3.357-7.5 7.5v24.062c-7.448 1.705-13.324 7.581-15.03 15.028h-24.07c-4.142 0-7.5 3.357-7.5 7.5v31.06c0 4.143 3.358 7.5 7.5 7.5h24.069c1.706 7.448 7.582 13.325 15.031 15.03v315.846c-4.723 3.662-7.768 9.388-7.768 15.813v26.594h-.797c-12.407 0-22.5 10.094-22.5 22.5v16.062c0 4.143 3.358 7.5 7.5 7.5h93.188c4.142 0 7.5-3.357 7.5-7.5v-16.062c0-12.406-10.093-22.5-22.5-22.5h-.797v-16.062h280.094v16.062h-.797c-12.407 0-22.5 10.094-22.5 22.5v16.062c0 4.143 3.358 7.5 7.5 7.5h93.188c4.142 0 7.5-3.357 7.5-7.5v-16.062c0-12.406-10.093-22.5-22.5-22.5h-.797v-26.593c0-6.423-3.043-12.147-7.763-15.809v-215.903c0-4.143-3.358-7.5-7.5-7.5s-7.5 3.357-7.5 7.5v211.712h-16.07v-311.156h16.07v64.444c0 4.143 3.358 7.5 7.5 7.5s7.5-3.357 7.5-7.5v-64.948c7.446-1.707 13.32-7.582 15.026-15.029h24.065c4.142 0 7.5-3.357 7.5-7.5v-31.061c-.002-4.143-3.36-7.5-7.502-7.5zm-54.09-31.59v16.059h-16.07v-16.059zm-38.327 419.871h-281.101c-1.048-4.575-3.67-8.556-7.262-11.342v-315.849c7.447-1.706 13.323-7.582 15.028-15.03h32.097v86.229c-19.372 22.943-31.063 52.573-31.063 84.882 0 21.322 5.214 42.505 15.078 61.257 1.928 3.667 6.464 5.075 10.129 3.146 3.666-1.929 5.074-6.464 3.146-10.129-8.736-16.607-13.354-35.375-13.354-54.274 0-64.376 52.374-116.75 116.75-116.75s116.75 52.374 116.75 116.75-52.373 116.751-116.749 116.751c-24.392 0-47.566-7.39-67.047-21.124l13.243-13.241 5.676 5.676c2.93 2.929 7.678 2.928 10.606 0l2.12-2.12c11.212 4.635 23.096 6.981 35.402 6.981 51.237 0 92.922-41.685 92.922-92.922s-41.684-92.922-92.922-92.922-92.922 41.685-92.922 92.922c0 21.558 7.386 42.184 20.919 58.742-.741 2.606-.021 5.422 1.911 7.354l5.682 5.682-14.383 14.38c-1.665-1.527-3.294-3.108-4.883-4.741-2.889-2.969-7.637-3.033-10.606-.145-2.968 2.889-3.033 7.638-.144 10.605 1.636 1.681 3.309 3.313 5.017 4.895l-24.616 24.611c-2.929 2.929-2.93 7.678-.001 10.606 2.928 2.929 7.677 2.93 10.606.001l25.623-25.618c22.417 16.484 49.374 25.376 77.797 25.376 72.647 0 131.75-59.103 131.75-131.75 0-32.309-11.69-61.938-31.062-84.882v-86.228h32.097c1.705 7.446 7.578 13.321 15.023 15.029v315.854c-3.59 2.786-6.21 6.765-7.257 11.338zm-303.363-326.687v311.156h-16.06v-311.156zm108.629 216.371 11.358-11.358 11.358 11.358c-.101.101-5.419 5.419-11.358 11.357-.963-.963-9.979-9.979-11.358-11.357zm38.626-5.304-5.68-5.68 5.678-5.678c2.929-2.929 2.929-7.678 0-10.606s-7.678-2.929-10.606.001l-5.678 5.678-5.679-5.679c-1.406-1.406-3.314-2.196-5.303-2.196s-3.897.79-5.303 2.196l-13.791 13.791c-10.368-13.539-16.003-30.072-16.003-47.315 0-42.966 34.956-77.922 77.922-77.922s77.922 34.956 77.922 77.922-34.955 77.921-77.922 77.921c-8.165 0-16.106-1.229-23.718-3.665l8.16-8.16c1.407-1.407 2.197-3.314 2.197-5.304s-.789-3.897-2.196-5.304zm116.245-257.661h31.594v16.06h-31.594zm-15 31.06v71.11c-23.053-19.782-52.999-31.748-85.688-31.748s-62.634 11.966-85.688 31.748v-71.11zm-186.375-15h-31.594v-16.06h31.594zm-62.125-62.65v16.059h-16.06v-16.059zm-62.66 46.59h16.066v16.06h-16.066zm31.066-10.531c0-2.757 2.243-5 5-5h37.125c2.757 0 5 2.243 5 5v37.125c0 2.757-2.243 5-5 5-.102 0-36.211-.002-37.125 0-2.757 0-5-2.243-5-5 0-15.004 0-22.05 0-37.125zm62.656 437.375v8.562h-78.187v-8.562c0-4.136 3.364-7.5 7.5-7.5h63.187c4.136 0 7.5 3.364 7.5 7.5zm-54.89-22.5v-26.594c0-2.766 2.253-5 5-5h21.594c2.757 0 5 2.243 5 5v26.594zm396.578 22.5v8.562h-78.188v-8.562c0-4.136 3.364-7.5 7.5-7.5h63.188c4.136 0 7.5 3.364 7.5 7.5zm-54.891-22.5v-26.594c0-2.757 2.243-5 5-5h21.594c2.757 0 5 2.243 5 5v26.594zm39.36-377.75c0 2.757-2.243 5-5 5-72.433 0 1.988 0-37.125 0-2.757 0-5-2.243-5-5v-37.125c0-2.757 2.243-5 5-5h37.125c2.757 0 5 2.243 5 5zm31.061-10.534h-16.062v-16.06h16.062z"/></g></svg>