<svg id="Capa_1" enable-background="new 0 0 511.998 511.998" height="512" viewBox="0 0 511.998 511.998" width="512" xmlns="http://www.w3.org/2000/svg"><g><path d="m245.186 444.867 26.165-72.68c4.424-12.29 13.483-22.361 25.238-28.058l21.628-10.482c34.04-16.498 41.651-61.637 14.903-88.384l-66.383-66.383c-26.748-26.748-71.887-19.136-88.384 14.903l-10.482 21.628c-5.697 11.755-15.768 20.813-28.058 25.237l-72.68 26.165c-62.16 22.377-79.917 101.814-33.203 148.528l62.728 62.728c46.714 46.714 126.151 28.957 148.528-33.202z" fill="#fe9738"/><g fill="#fe860a"><path d="m146.176 451.716-65.894-65.894c-5.858-5.858-5.858-15.355 0-21.213l11.358-11.358 83.571 83.571c1.953 1.953 1.953 5.118 0 7.071l-7.822 7.822c-5.858 5.859-15.355 5.859-21.213.001z"/><path d="m234.034 297.965c6.001 6.001 10.022 13.232 12.065 20.882l80.302-80.302-32.947-32.947-80.302 80.302c7.65 2.042 14.881 6.064 20.882 12.065z"/><path d="m333.119 245.263-66.383-66.383c-10.21-10.21-23.099-15.413-36.052-16.052l62.435 62.435c26.748 26.748 19.136 71.887-14.903 88.384l-21.628 10.482c-11.755 5.697-20.813 15.768-25.238 28.058l-26.165 72.68c-16.132 44.811-61.918 66.545-103.72 57.685 47.172 40.989 122.094 22.389 143.72-37.685l26.165-72.68c4.424-12.29 13.483-22.361 25.238-28.058l21.628-10.482c34.039-16.498 41.651-61.637 14.903-88.384z"/></g><path d="m234.034 343.858c-18.196 18.196-47.698 18.196-65.894 0s-18.196-47.698 0-65.894c12.195-12.195 29.468-16.217 45.012-12.066 7.649 2.043 18.749 2.196 24.751 8.197 6.001 6.001 6.154 17.101 8.197 24.751 4.151 15.544.129 32.817-12.066 45.012z" fill="#554e56"/><path d="m168.14 297.965c18.196-18.196 47.698-18.196 65.894 0 6.539 6.539 10.727 14.537 12.567 22.947 1.591-7.274 1.424-14.856-.501-22.065-2.043-7.649-2.195-18.75-8.197-24.75-6.001-6.001-17.101-6.154-24.751-8.197-15.544-4.151-32.817-.129-45.012 12.066-11.657 11.657-15.846 27.955-12.567 42.947 1.84-8.411 6.029-16.41 12.567-22.948z" fill="#433f43"/><path d="m146.176 431.716-65.894-65.894c-5.858-5.858-5.858-15.355 0-21.213l11.358-11.358 87.107 87.107-11.358 11.358c-5.858 5.858-15.355 5.858-21.213 0z" fill="#685e68"/><path d="m234.034 277.965c6.001 6.001 10.023 13.232 12.065 20.882l182.063-182.063-7.429-25.517-25.517-7.429-182.064 182.062c7.65 2.042 14.881 6.064 20.882 12.065z" fill="#685e68"/><path d="m428.162 116.784-32.947-32.947 14.89-24.817c1.052-1.753 2.314-3.37 3.76-4.815l42.441-42.441c5.685-5.685 14.903-5.685 20.588 0l23.341 23.341c5.685 5.685 5.685 14.903 0 20.588l-42.441 42.441c-1.445 1.445-3.063 2.708-4.815 3.76z" fill="#9b5e5e"/><path d="m86.337 327.948-11.358 11.358c-8.773 8.773-8.773 23.047 0 31.82l65.893 65.893c8.771 8.772 23.047 8.774 31.82 0l11.358-11.358c2.929-2.929 2.929-7.678 0-10.606l-87.106-87.106c-2.929-2.929-7.678-2.929-10.607-.001zm75.749 98.465c-2.924 2.924-7.682 2.925-10.607 0l-65.893-65.893c-2.924-2.924-2.924-7.683 0-10.607l6.055-6.055 76.5 76.5z"/><path d="m505.537 29.801-23.34-23.34c-4.166-4.166-9.705-6.461-15.598-6.461s-11.431 2.294-15.597 6.461l-14.597 14.597c-2.929 2.929-2.929 7.678 0 10.606 2.929 2.929 7.678 2.929 10.606 0l14.597-14.597c1.333-1.333 3.105-2.067 4.99-2.067s3.658.734 4.991 2.067l23.34 23.34c1.333 1.333 2.067 3.106 2.067 4.991s-.734 3.657-2.067 4.991l-42.439 42.442c-1.011 1.011-2.145 1.896-3.371 2.632l-19.795 11.877-24.666-24.666 11.877-19.795c.736-1.226 1.622-2.36 2.632-3.371l2.856-2.856c2.929-2.929 2.929-7.678 0-10.606-2.929-2.929-7.678-2.929-10.606 0l-2.856 2.856c-1.877 1.877-3.521 3.982-4.888 6.259l-14.416 24.026-105.803 105.804-11.415-11.415c-14.486-14.487-34.381-20.842-54.586-17.436-20.203 3.407-36.915 15.935-45.85 34.372l-10.482 21.627c-4.871 10.05-13.341 17.669-23.85 21.452l-72.68 26.165c-31.621 11.383-54.875 37.76-62.207 70.558s2.479 66.566 26.243 90.331l62.728 62.728c23.845 23.845 57.644 33.551 90.331 26.243 32.797-7.332 59.174-30.586 70.558-62.207l26.165-72.68c3.783-10.509 11.402-18.979 21.452-23.85l21.627-10.482c19.322-9.365 32.342-27.702 34.828-49.053.479-4.114-2.468-7.838-6.583-8.317-4.117-.478-7.838 2.468-8.317 6.583-1.89 16.232-11.785 30.172-26.47 37.289l-21.627 10.482c-13.597 6.59-23.905 18.049-29.023 32.267l-26.165 72.68c-9.634 26.762-31.958 46.444-59.717 52.649-27.761 6.207-56.339-2.098-76.452-22.21l-62.728-62.728c-20.113-20.113-28.416-48.693-22.21-76.452 6.205-27.758 25.887-50.083 52.649-59.717l72.68-26.165c14.218-5.119 25.677-15.426 32.267-29.023l10.482-21.627c6.791-14.012 19.492-23.533 34.846-26.122 15.356-2.59 30.476 2.241 41.485 13.251l11.415 11.415-62.089 62.089c-17.339-3.127-35.359 2.412-47.921 14.975-2.929 2.929-2.929 7.678 0 10.606 2.929 2.929 7.678 2.929 10.606 0 14.976-14.975 39.768-15.517 55.286 0 17.153 17.153 13.247 42.041.001 55.287-15.279 15.278-40.007 15.28-55.287 0-7.288-7.288-11.354-16.976-11.449-27.28-.038-4.119-3.388-7.431-7.498-7.431-4.167 0-7.539 3.397-7.501 7.569.131 14.259 5.757 27.666 15.841 37.749 21.139 21.14 55.358 21.143 76.5 0 12.562-12.562 18.103-30.584 14.975-47.922l62.089-62.089 11.415 11.415c2.942 2.943 5.476 6.217 7.528 9.73 2.097 3.588 6.693 4.775 10.259 2.693 3.577-2.09 4.782-6.683 2.693-10.259-2.701-4.623-6.023-8.92-9.874-12.771l-11.415-11.415c11.987-11.987 94.5-94.5 105.804-105.804l24.026-14.416c2.276-1.366 4.382-3.01 6.259-4.887l42.441-42.44c4.167-4.167 6.461-9.706 6.461-15.598s-2.294-11.432-6.461-15.599zm-87.982 86.983-13.295 13.295-22.34-22.34 13.295-13.295zm-35.258 35.258-22.34-22.34 11.356-11.356 22.34 22.34zm-21.97 21.97-22.34-22.341 11.363-11.363 22.34 22.34zm-21.963 21.963-22.34-22.34 11.356-11.356 22.34 22.341zm-43.925 43.925-22.34-22.341 11.356-11.356 22.34 22.34zm-21.97 21.97-22.34-22.34 11.363-11.364 22.34 22.341zm43.933-43.933-22.34-22.34 11.356-11.356 22.34 22.34zm-89.899 45.218 13.019-13.019 22.34 22.34-13.019 13.019c-5.058-9.491-12.833-17.273-22.34-22.34z"/><path d="m438.956 83.649 32.947-32.947c2.929-2.929 2.929-7.678 0-10.606-2.929-2.929-7.678-2.929-10.606 0l-32.947 32.947c-2.929 2.929-2.929 7.678 0 10.606 2.929 2.929 7.677 2.929 10.606 0z"/></g></svg>