<svg id="Capa_1" enable-background="new 0 0 512 512" height="512" viewBox="0 0 512 512" width="512" xmlns="http://www.w3.org/2000/svg"><g><path d="m449.416 29.534-215.45 204.432-204.432 215.45 33.05 33.05 215.45-204.432 204.432-215.45z" fill="#feb237"/><path d="m79.73 366.169-49.577 38.558-11.393-11.394c-5.876-5.876-5.876-15.404 0-21.28l11.771-11.771c5.876-5.876 15.404-5.876 21.28 0z" fill="#cbc4cc"/><path d="m366.169 79.73 38.558-49.577-11.394-11.393c-5.876-5.876-15.404-5.876-21.28 0l-11.771 11.771c-5.876 5.876-5.876 15.404 0 21.28z" fill="#cbc4cc"/><path d="m145.832 432.27-38.558 49.577 22.033 22.033 33.051-33.05z" fill="#cbc4cc"/><path d="m432.27 145.832 49.577-38.558 22.033 22.033-33.05 33.051z" fill="#cbc4cc"/><path d="m311.838 45.926-265.912 265.912c-11.753 11.753-11.753 30.807 0 42.56l17.278 17.278 159.746-148.726 148.726-159.746-17.278-17.278c-11.752-11.752-30.807-11.752-42.56 0z" fill="#fd4755"/><path d="m465.32 199.409-265.911 265.911c-11.753 11.753-30.807 11.753-42.56 0l-16.524-16.524 148.727-159.745 159.745-148.727 16.524 16.524c11.752 11.753 11.752 30.808-.001 42.561z" fill="#fd4755"/><path d="m354.398 45.926c-10.486-10.486-26.786-11.616-38.525-3.389 8.039 9.6 7.548 23.923-1.475 32.945l-273.048 273.048c1.249 2.092 2.774 4.066 4.576 5.868l17.278 17.278 159.746-148.726 148.726-159.746z" fill="#fb2b3a"/><path d="m465.32 156.849-16.524-16.524-18.821 17.523c6.81 11.54 5.259 26.648-4.654 36.562l-265.912 265.91c-1.29 1.29-2.668 2.438-4.115 3.445l1.555 1.555c11.753 11.752 30.807 11.752 42.56 0l265.911-265.911c11.753-11.753 11.753-30.808 0-42.56z" fill="#fb2b3a"/><path d="m449.416 29.534-215.45 204.432-204.432 215.45 12.5 12.5 419.882-419.882z" fill="#f6ab31"/><path d="m-13.359 267.962h593.803v31.16h-593.803z" fill="#ffc344" transform="matrix(.707 -.707 .707 .707 -117.447 283.542)"/><g fill="#685e68"><path d="m94.919 370.34h46.741v46.741h-46.741z" transform="matrix(.707 -.707 .707 .707 -243.749 198.959)"/><path d="m150.003 315.256h46.741v46.741h-46.741z" transform="matrix(.707 -.707 .707 .707 -188.665 221.775)"/><path d="m205.088 260.172h46.741v46.741h-46.741z" transform="matrix(.707 -.707 .707 .707 -133.581 244.592)"/><path d="m260.172 205.088h46.741v46.741h-46.741z" transform="matrix(.707 -.707 .707 .707 -78.497 267.408)"/><path d="m315.256 150.003h46.741v46.741h-46.741z" transform="matrix(.707 -.707 .707 .707 -23.412 290.225)"/><path d="m370.341 94.919h46.741v46.741h-46.741z" transform="matrix(.707 -.707 .707 .707 31.672 313.042)"/></g><path d="m194.812 264.428h46.741v17.678h-46.741z" fill="#554e56" transform="matrix(.707 -.707 .707 .707 -129.325 234.316)"/><path d="m84.644 374.597h46.74v17.678h-46.74z" fill="#554e56" transform="matrix(.707 -.707 .707 .707 -239.493 188.682)"/><path d="m139.728 319.512h46.741v17.678h-46.741z" fill="#554e56" transform="matrix(.707 -.707 .707 .707 -184.409 211.501)"/><path d="m360.065 99.175h46.741v17.678h-46.741z" fill="#554e56" transform="matrix(.707 -.707 .707 .707 35.928 302.767)"/><path d="m304.981 154.26h46.741v17.678h-46.741z" fill="#554e56" transform="matrix(.707 -.707 .707 .707 -19.156 279.95)"/><path d="m249.897 209.344h46.741v17.678h-46.741z" fill="#554e56" transform="matrix(.707 -.707 .707 .707 -74.24 257.133)"/><path d="m-68.443 212.878h593.803v31.16h-593.803z" fill="#ffc344" transform="matrix(.707 -.707 .707 .707 -94.63 228.458)"/><path d="m492.453 107.273 17.351-17.351c2.929-2.93 2.929-7.678 0-10.606-30.037-30.039-48.75-48.75-77.118-77.118-1.407-1.408-3.315-2.198-5.304-2.198s-3.897.79-5.303 2.196l-17.351 17.351-6.091-6.091c-8.791-8.789-23.096-8.789-31.887 0l-11.771 11.771c-2.411 2.411-4.161 5.237-5.249 8.25-14.043-6.901-31.53-4.52-43.195 7.144l-25.839 25.84c-2.929 2.93-2.929 7.678 0 10.607 2.93 2.929 7.678 2.928 10.606 0l25.839-25.84c8.809-8.81 23.144-8.81 31.954 0 1.129 1.129 11.045 11.045 11.975 11.975l-297.865 297.867c-1.423-1.423-10.896-10.896-11.976-11.975-4.268-4.268-6.618-9.941-6.618-15.977s2.351-11.709 6.618-15.977l215.083-215.081c2.929-2.93 2.929-7.678 0-10.607-2.929-2.928-7.678-2.928-10.606 0l-215.083 215.081c-11.665 11.665-14.047 29.153-7.145 43.196-3.013 1.088-5.84 2.838-8.251 5.249l-11.771 11.771c-8.791 8.792-8.79 23.096 0 31.887l6.091 6.091-17.35 17.35c-2.929 2.93-2.929 7.678 0 10.607l77.118 77.118c1.406 1.406 3.314 2.196 5.303 2.196s3.897-.79 5.303-2.196l17.351-17.351 16.731 16.731c2.93 2.929 7.678 2.928 10.606 0l30.03-30.03c4.247 1.63 8.802 2.481 13.488 2.481 10.042 0 19.482-3.91 26.583-11.011l265.912-265.913c7.101-7.101 11.011-16.541 11.011-26.583 0-4.686-.852-9.24-2.481-13.487l30.03-30.03c1.407-1.407 2.197-3.314 2.197-5.304s-.79-3.896-2.197-5.304zm-65.691.409-22.444-22.444 45.098-45.098 22.444 22.443zm-364.177 364.177-22.444-22.443 45.098-45.098 22.444 22.443zm55.705-100.592 22.443 22.444-22.444 22.444-22.444-22.443zm33.05 11.837-22.443-22.444 11.427-11.427 22.443 22.444zm22.034-66.921 22.444 22.443-22.444 22.444-22.443-22.444zm33.05 11.836-22.444-22.443 11.427-11.427 22.443 22.443zm22.035-66.921 22.443 22.444-22.444 22.444-22.443-22.443zm33.049 11.837-22.443-22.444 11.427-11.427 22.443 22.444zm22.035-66.921 22.443 22.443-22.444 22.444-22.443-22.444zm33.05 11.837-22.443-22.443 11.427-11.427 22.443 22.443zm22.033-22.034-22.443-22.443 22.444-22.444 22.444 22.443zm33.051-33.051-22.443-22.443 11.427-11.427 22.443 22.444zm-6.11-116.278c-2.923-2.944-2.917-7.718.019-10.654l11.771-11.771c2.943-2.943 7.731-2.944 10.674 0l6.091 6.091-22.444 22.444zm-341.504 341.541c-2.942-2.942-2.942-7.73 0-10.673l11.771-11.771c2.938-2.939 7.717-2.943 10.661-.013l6.104 6.104-22.444 22.444zm403.319-369.922 11.427 11.428c-82.563 82.562-328.34 328.34-409.275 409.275l-11.427-11.428zm-298.075 475.167-11.428-11.428 22.443-22.444c12.581 12.581 11.177 11.179 11.429 11.426zm330.71-299.169-265.912 265.913c-4.268 4.268-9.941 6.617-15.977 6.617s-11.709-2.35-15.977-6.618l-11.222-11.222 18.449-18.449c2.929-2.93 2.929-7.678 0-10.607-2.929-2.928-7.678-2.928-10.606 0l-74.154 74.155-11.427-11.428c96.955-96.955 221.471-221.471 330.495-330.494 2.929-2.93 2.929-7.678 0-10.607-2.715-2.714-6.994-2.912-9.937-.594l-22.481-22.481 22.444-22.444 22.76 22.76c-1.3 2.778-.803 6.189 1.492 8.483 2.929 2.928 7.678 2.928 10.606 0l53.897-53.898 11.427 11.428-309.71 309.708c-2.929 2.93-2.929 7.678 0 10.607 2.93 2.929 7.678 2.928 10.606 0l254.005-254.004 11.222 11.222c4.268 4.267 6.618 9.94 6.618 15.976s-2.351 11.709-6.618 15.977zm10.811-42.353c-.25-.254 1.284 1.281-11.426-11.429l22.444-22.444 11.428 11.427z"/></g></svg>