<svg id="Capa_1" enable-background="new 0 0 512 512" height="512" viewBox="0 0 512 512" width="512" xmlns="http://www.w3.org/2000/svg"><path d="m484 504h-456c-11.046 0-20-8.954-20-20v-456c0-11.046 8.954-20 20-20h456c11.046 0 20 8.954 20 20v456c0 11.046-8.954 20-20 20z" fill="#5a5a5a"/><path d="m484 486h-456c-11.046 0-20-8.954-20-20v18c0 11.046 8.954 20 20 20h456c11.046 0 20-8.954 20-20v-18c0 11.046-8.954 20-20 20z" fill="#4c4c4c"/><path d="m154.729 211.806h54.263v54.263h-54.263z" fill="#e8834d"/><path d="m245.913 120.965h54.263v54.263h-54.263z" fill="#e8834d"/><path d="m337.098 211.806h54.263v54.263h-54.263z" fill="#e8834d"/><path d="m63.545 211.806h54.263v54.263h-54.263z" fill="#fcc472"/><path d="m154.729 302.647h54.263v54.263h-54.263z" fill="#fcc472"/><path d="m245.913 393.489h54.263v54.263h-54.263z" fill="#fcc472"/><path d="m337.098 302.647h54.263v54.263h-54.263z" fill="#fcc472"/><path d="m63.545 302.647h54.263v54.263h-54.263z" fill="#ffeca1"/><path d="m154.729 120.965h54.263v54.263h-54.263z" fill="#ffeca1"/><path d="m154.729 393.489h54.263v54.263h-54.263z" fill="#ffeca1"/><path d="m245.913 302.647h54.263v54.263h-54.263z" fill="#ffeca1"/><path d="m337.098 120.965h54.263v54.263h-54.263z" fill="#ffeca1"/><path d="m63.545 120.965h54.263v54.263h-54.263z" fill="#ffe431"/><path d="m63.545 393.489h54.263v54.263h-54.263z" fill="#ffe431"/><path d="m245.913 211.806h54.263v54.263h-54.263z" fill="#ffe431"/><g fill="#ffeca1"><circle cx="90.676" cy="66.997" r="17.4"/><circle cx="181.861" cy="66.997" r="17.4"/><circle cx="273.045" cy="66.997" r="17.4"/><circle cx="364.229" cy="66.997" r="17.4"/><circle cx="447.996" cy="148.097" r="17.4"/><circle cx="447.996" cy="238.938" r="17.4"/><circle cx="447.996" cy="329.779" r="17.4"/><circle cx="447.996" cy="420.62" r="17.4"/><path d="m337.098 393.489h54.263v54.263h-54.263z"/></g><path d="m154.73 248.07h54.26v18h-54.26z" fill="#d66e41"/><path d="m245.91 157.23h54.27v18h-54.27z" fill="#d66e41"/><path d="m63.54 248.07h54.27v18h-54.27z" fill="#fcc472"/><path d="m154.73 338.91h54.26v18h-54.26z" fill="#f9b458"/><path d="m337.1 338.91h54.26v18h-54.26z" fill="#f9b458"/><path d="m63.54 157.23h54.27v18h-54.27z" fill="#ffbf00"/><path d="m63.54 429.75h54.27v18h-54.27z" fill="#ffbf00"/><path d="m245.91 248.07h54.27v18h-54.27z" fill="#ffbf00"/><path d="m245.91 429.75h54.27v18h-54.27z" fill="#f9b458"/><path d="m337.1 248.07h54.26v18h-54.26z" fill="#d66e41"/><path d="m63.54 338.91h54.27v18h-54.27z" fill="#ffdf85"/><path d="m154.73 157.23h54.26v18h-54.26z" fill="#ffdf85"/><path d="m154.73 429.75h54.26v18h-54.26z" fill="#ffdf85"/><path d="m245.91 338.91h54.27v18h-54.27z" fill="#ffdf85"/><path d="m337.1 157.23h54.26v18h-54.26z" fill="#ffdf85"/><path d="m337.1 429.75h54.26v18h-54.26z" fill="#ffdf85"/><path d="m484.446 0h-456.892c-15.193 0-27.554 12.361-27.554 27.554v154.107c0 4.15 3.364 7.515 7.515 7.515s7.515-3.364 7.515-7.515v-154.107c0-6.906 5.618-12.524 12.524-12.524h456.892c6.906 0 12.524 5.618 12.524 12.524v304.775c0 4.15 3.364 7.515 7.515 7.515s7.515-3.364 7.515-7.515v-304.775c0-15.193-12.36-27.554-27.554-27.554z"/><path d="m504.485 354.872c-4.151 0-7.515 3.365-7.515 7.515v122.059c0 6.906-5.618 12.524-12.524 12.524h-456.892c-6.906 0-12.524-5.618-12.524-12.524v-272.726c0-4.15-3.365-7.515-7.515-7.515s-7.515 3.365-7.515 7.515v272.727c0 15.192 12.361 27.553 27.554 27.553h456.892c15.194 0 27.554-12.361 27.554-27.554v-122.059c0-4.15-3.364-7.515-7.515-7.515z"/><path d="m55.654 120.701v54.369c0 4.15 3.365 7.515 7.515 7.515h54.369c4.15 0 7.515-3.364 7.515-7.515v-54.369c0-4.15-3.364-7.515-7.515-7.515h-54.37c-4.15 0-7.514 3.364-7.514 7.515zm15.029 7.514h39.34v39.34h-39.34z"/><path d="m55.654 266.089c0 4.15 3.365 7.515 7.515 7.515h54.369c4.15 0 7.515-3.365 7.515-7.515v-54.369c0-4.15-3.364-7.515-7.515-7.515h-54.37c-4.15 0-7.515 3.365-7.515 7.515v54.369zm15.029-46.855h39.34v39.34h-39.34z"/><path d="m55.654 357.108c0 4.15 3.365 7.515 7.515 7.515h54.369c4.15 0 7.515-3.364 7.515-7.515v-54.369c0-4.15-3.364-7.515-7.515-7.515h-54.37c-4.15 0-7.515 3.365-7.515 7.515v54.369zm15.029-46.855h39.34v39.34h-39.34z"/><path d="m55.654 448.127c0 4.15 3.365 7.515 7.515 7.515h54.369c4.15 0 7.515-3.365 7.515-7.515v-54.37c0-4.15-3.364-7.515-7.515-7.515h-54.37c-4.15 0-7.515 3.364-7.515 7.515v54.37zm15.029-46.855h39.34v39.341h-39.34z"/><path d="m115.302 66.627c0-13.757-11.192-24.949-24.949-24.949s-24.949 11.192-24.949 24.949 11.192 24.949 24.949 24.949 24.949-11.192 24.949-24.949zm-34.869 0c0-5.47 4.45-9.92 9.919-9.92 5.47 0 9.92 4.45 9.92 9.92s-4.45 9.919-9.92 9.919c-5.469.001-9.919-4.449-9.919-9.919z"/><path d="m147.016 120.701v54.369c0 4.15 3.365 7.515 7.515 7.515h54.369c4.15 0 7.515-3.364 7.515-7.515v-54.369c0-4.15-3.365-7.515-7.515-7.515h-54.369c-4.15 0-7.515 3.364-7.515 7.515zm15.029 7.514h39.34v39.34h-39.34z"/><path d="m147.016 266.089c0 4.15 3.365 7.515 7.515 7.515h54.369c4.15 0 7.515-3.365 7.515-7.515v-54.369c0-4.15-3.365-7.515-7.515-7.515h-54.369c-4.15 0-7.515 3.365-7.515 7.515zm15.029-46.855h39.34v39.34h-39.34z"/><path d="m147.016 357.108c0 4.15 3.365 7.515 7.515 7.515h54.369c4.15 0 7.515-3.364 7.515-7.515v-54.369c0-4.15-3.365-7.515-7.515-7.515h-54.369c-4.15 0-7.515 3.365-7.515 7.515zm15.029-46.855h39.34v39.34h-39.34z"/><path d="m147.016 448.127c0 4.15 3.365 7.515 7.515 7.515h54.369c4.15 0 7.515-3.365 7.515-7.515v-54.37c0-4.15-3.365-7.515-7.515-7.515h-54.369c-4.15 0-7.515 3.364-7.515 7.515zm15.029-46.855h39.34v39.341h-39.34z"/><path d="m206.664 66.627c0-13.757-11.192-24.949-24.949-24.949s-24.949 11.192-24.949 24.949 11.192 24.949 24.949 24.949c13.758 0 24.949-11.192 24.949-24.949zm-34.868 0c0-5.47 4.45-9.92 9.92-9.92s9.919 4.45 9.919 9.92-4.45 9.919-9.919 9.919c-5.47.001-9.92-4.449-9.92-9.919z"/><path d="m238.379 120.701v54.369c0 4.15 3.365 7.515 7.515 7.515h54.37c4.151 0 7.515-3.364 7.515-7.515v-54.369c0-4.15-3.364-7.515-7.515-7.515h-54.37c-4.151 0-7.515 3.364-7.515 7.515zm15.029 7.514h39.34v39.34h-39.34z"/><path d="m245.893 246.419c-4.15 0-7.515 3.365-7.515 7.515v12.155c0 4.15 3.365 7.515 7.515 7.515h54.37c4.151 0 7.515-3.365 7.515-7.515v-54.369c0-4.15-3.364-7.515-7.515-7.515h-54.37c-4.15 0-7.515 3.365-7.515 7.515v12.155c0 4.15 3.365 7.515 7.515 7.515s7.515-3.364 7.515-7.515v-4.641h39.34v39.34h-39.34v-4.641c0-4.15-3.365-7.514-7.515-7.514z"/><path d="m238.379 357.108c0 4.15 3.365 7.515 7.515 7.515h54.37c4.151 0 7.515-3.364 7.515-7.515v-54.369c0-4.15-3.364-7.515-7.515-7.515h-54.37c-4.15 0-7.515 3.365-7.515 7.515zm15.029-46.855h39.34v39.34h-39.34z"/><path d="m238.379 448.127c0 4.15 3.365 7.515 7.515 7.515h54.37c4.151 0 7.515-3.365 7.515-7.515v-54.37c0-4.15-3.364-7.515-7.515-7.515h-54.37c-4.15 0-7.515 3.364-7.515 7.515zm15.029-46.855h39.34v39.341h-39.34z"/><path d="m298.027 66.627c0-13.757-11.192-24.949-24.949-24.949-13.756 0-24.949 11.192-24.949 24.949s11.192 24.949 24.949 24.949c13.758 0 24.949-11.192 24.949-24.949zm-34.869 0c0-5.47 4.45-9.92 9.92-9.92s9.92 4.45 9.92 9.92-4.45 9.919-9.92 9.919c-5.469.001-9.92-4.449-9.92-9.919z"/><path d="m329.742 120.701v54.369c0 4.15 3.364 7.515 7.515 7.515h54.369c4.151 0 7.515-3.364 7.515-7.515v-54.369c0-4.15-3.364-7.515-7.515-7.515h-54.369c-4.151 0-7.515 3.364-7.515 7.515zm15.029 7.514h39.34v39.34h-39.34z"/><path d="m329.742 266.089c0 4.15 3.364 7.515 7.515 7.515h54.369c4.151 0 7.515-3.365 7.515-7.515v-54.369c0-4.15-3.364-7.515-7.515-7.515h-54.369c-4.151 0-7.515 3.365-7.515 7.515zm15.029-46.855h39.34v39.34h-39.34z"/><path d="m329.742 357.108c0 4.15 3.364 7.515 7.515 7.515h54.369c4.151 0 7.515-3.364 7.515-7.515v-54.369c0-4.15-3.364-7.515-7.515-7.515h-54.369c-4.151 0-7.515 3.365-7.515 7.515zm15.029-46.855h39.34v39.34h-39.34z"/><path d="m329.742 448.127c0 4.15 3.364 7.515 7.515 7.515h54.369c4.151 0 7.515-3.365 7.515-7.515v-54.37c0-4.15-3.364-7.515-7.515-7.515h-54.369c-4.151 0-7.515 3.364-7.515 7.515zm15.029-46.855h39.34v39.341h-39.34z"/><path d="m389.389 66.627c0-13.757-11.192-24.949-24.948-24.949-13.757 0-24.949 11.192-24.949 24.949s11.192 24.949 24.949 24.949 24.948-11.192 24.948-24.949zm-34.867 0c0-5.47 4.45-9.92 9.92-9.92s9.919 4.45 9.919 9.92-4.449 9.919-9.919 9.919c-5.47.001-9.92-4.449-9.92-9.919z"/><path d="m448.371 172.834c13.757 0 24.949-11.192 24.949-24.949s-11.192-24.949-24.949-24.949c-13.756 0-24.948 11.192-24.948 24.949s11.192 24.949 24.948 24.949zm0-34.868c5.47 0 9.92 4.45 9.92 9.92s-4.45 9.919-9.92 9.919-9.919-4.45-9.919-9.919c0-5.47 4.449-9.92 9.919-9.92z"/><path d="m448.371 263.853c13.757 0 24.949-11.192 24.949-24.949s-11.192-24.949-24.949-24.949c-13.756 0-24.948 11.192-24.948 24.949s11.192 24.949 24.948 24.949zm0-34.868c5.47 0 9.92 4.45 9.92 9.919 0 5.47-4.45 9.92-9.92 9.92s-9.919-4.45-9.919-9.92 4.449-9.919 9.919-9.919z"/><path d="m448.371 354.872c13.757 0 24.949-11.192 24.949-24.949s-11.192-24.949-24.949-24.949c-13.756 0-24.948 11.192-24.948 24.949s11.192 24.949 24.948 24.949zm0-34.868c5.47 0 9.92 4.45 9.92 9.919s-4.45 9.92-9.92 9.92-9.919-4.45-9.919-9.92 4.449-9.919 9.919-9.919z"/><path d="m448.371 445.891c13.757 0 24.949-11.192 24.949-24.949s-11.192-24.949-24.949-24.949c-13.756 0-24.948 11.192-24.948 24.949s11.192 24.949 24.948 24.949zm0-34.868c5.47 0 9.92 4.45 9.92 9.919 0 5.47-4.45 9.919-9.92 9.919s-9.919-4.45-9.919-9.919 4.449-9.919 9.919-9.919z"/></svg>