<svg id="Capa_1" enable-background="new 0 0 511.987 511.987" height="512" viewBox="0 0 511.987 511.987" width="512" xmlns="http://www.w3.org/2000/svg"><g><path d="m233.577 464.784c-65.909 65.909-124.341 40.898-175.807-10.568s-76.477-109.898-10.568-175.807 216.304-95.813 249.246-62.871 3.038 183.337-62.871 249.246z" fill="#fe9738"/><g fill="#fe860a"><path d="m142.594 455.286-65.894-65.894c-5.858-5.858-5.858-15.355 0-21.213l11.358-11.358 83.571 83.571c1.953 1.953 1.953 5.118 0 7.071l-7.822 7.822c-5.858 5.858-15.355 5.858-21.213.001z"/><path d="m296.448 215.538c-2.058-2.058-4.575-3.871-7.501-5.445l-75.807 75.807c7.649 2.043 14.88 6.064 20.882 12.065 6.001 6.001 10.023 13.232 12.065 20.881l63.505-63.505c-1.173-17.97-5.439-32.099-13.144-39.803z"/><path d="m296.448 215.538c-6.955-6.955-19.146-11.108-34.671-12.713 23.834 43.674-6.308 180.067-68.2 241.959-37.197 37.197-72.013 45.435-104.538 36.301 43.537 30.926 91.628 36.609 144.538-16.301 65.909-65.909 95.813-216.305 62.871-249.246z"/></g><path d="m234.022 343.858c-18.196 18.196-47.698 18.196-65.894 0s-18.196-47.698 0-65.894c12.195-12.195 29.468-16.217 45.012-12.066 7.649 2.043 18.749 2.195 24.751 8.197 6.001 6.001 6.154 17.101 8.197 24.751 4.15 15.544.129 32.817-12.066 45.012z" fill="#fe7701"/><path d="m142.594 435.286-65.894-65.894c-5.858-5.858-5.858-15.355 0-21.213l11.358-11.358 87.107 87.107-11.358 11.358c-5.858 5.857-15.355 5.857-21.213 0z" fill="#9b5e5e"/><path d="m234.022 277.965c6.001 6.001 10.022 13.232 12.065 20.882l182.063-182.063-7.429-25.517-25.517-7.429-182.064 182.061c7.65 2.043 14.881 6.064 20.882 12.066z" fill="#9b5e5e"/><path d="m428.149 116.784-32.947-32.947 14.89-24.817c1.052-1.753 2.314-3.37 3.76-4.815l42.441-42.441c5.685-5.685 14.903-5.685 20.588 0l23.341 23.341c5.685 5.685 5.685 14.903 0 20.588l-42.441 42.441c-1.445 1.445-3.062 2.708-4.815 3.76z" fill="#b98080"/><path d="m147.897 429.982-24.641-24.642c-2.929-2.929-7.678-2.929-10.606 0-2.929 2.929-2.929 7.678 0 10.606l24.641 24.642c4.25 4.25 9.9 6.59 15.91 6.59s11.66-2.34 15.91-6.59l11.358-11.358c2.929-2.929 2.929-7.678 0-10.606l-87.107-87.107c-2.929-2.929-7.678-2.929-10.606 0l-11.358 11.358c-4.25 4.25-6.59 9.9-6.59 15.91s2.34 11.661 6.59 15.91l15.628 15.628c2.929 2.93 7.678 2.929 10.606 0 2.929-2.929 2.929-7.678 0-10.606l-15.628-15.628c-2.924-2.924-2.924-7.683 0-10.607l6.055-6.055 76.5 76.5-6.055 6.055c-2.924 2.924-7.682 2.925-10.607 0z"/><path d="m505.525 29.801-23.34-23.34c-4.167-4.167-9.706-6.461-15.598-6.461s-11.431 2.294-15.597 6.461l-15.907 15.906c-2.929 2.929-2.929 7.677 0 10.606s7.678 2.929 10.606 0l15.907-15.906c1.333-1.333 3.105-2.067 4.99-2.067s3.658.734 4.991 2.067l23.34 23.34c1.333 1.333 2.067 3.106 2.067 4.991s-.734 3.657-2.067 4.991l-42.441 42.441c-1.011 1.011-2.145 1.896-3.371 2.632l-19.795 11.877-24.666-24.666 11.877-19.795c.736-1.226 1.622-2.36 2.632-3.371l2.111-2.111c2.929-2.929 2.929-7.678 0-10.606-2.929-2.929-7.678-2.929-10.606 0l-2.111 2.111c-1.877 1.877-3.521 3.982-4.888 6.259l-14.416 24.026-117.479 117.483c-59.393-10.922-174.584 21.155-229.865 76.436-32.256 32.256-45.997 65.817-40.843 99.749 4.249 27.97 21.065 56.318 51.412 86.664 30.346 30.346 58.694 47.163 86.664 51.412 38.407 5.834 72.051-13.145 99.749-40.843 42.804-42.803 67.164-114.807 75.019-163.461.66-4.089-2.12-7.939-6.209-8.6-4.086-.66-7.939 2.12-8.6 6.209-9.875 61.163-37.672 122.1-70.817 155.246-29.102 29.102-57.524 41.076-86.89 36.62-24.692-3.751-50.308-19.187-78.31-47.188s-43.438-53.618-47.188-78.31c-4.46-29.366 7.518-57.788 36.62-86.89 48.233-48.233 148.613-78.533 205.909-73.693l-47.668 47.668c-17.337-3.127-35.359 2.412-47.922 14.975-10.217 10.217-15.844 23.801-15.844 38.25s5.627 28.033 15.844 38.25 23.801 15.844 38.25 15.844c14.382 0 27.907-5.576 38.108-15.703.108-.105.165-.162.24-.239 12.494-12.558 17.997-30.531 14.878-47.823l47.646-47.646c.407 4.962.557 10.319.447 16.039-.08 4.141 3.212 7.563 7.354 7.643 4.139.082 7.563-3.212 7.643-7.354.214-11.079-.483-21.045-2.073-29.698.1-.1 72.478-72.475 72.271-72.271.006-.006.013-.013.019-.02 6.093-6.093 33.375-33.375 45.192-45.192l24.026-14.416c2.276-1.366 4.382-3.01 6.259-4.887l42.441-42.44c4.167-4.167 6.461-9.706 6.461-15.598s-2.295-11.434-6.462-15.601zm-87.982 86.983-13.295 13.295-22.34-22.34 13.295-13.295zm-35.258 35.258-22.34-22.34 11.356-11.356 22.34 22.34zm-21.97 21.97-22.34-22.341 11.363-11.363 22.34 22.34zm-21.963 21.962-22.34-22.34 11.356-11.356 22.34 22.341zm-21.963 21.963-22.34-22.34 11.356-11.356 22.34 22.34zm-21.962 21.963-22.34-22.341c7.875-7.875 7.42-7.417 7.518-7.518l3.838-3.838 22.34 22.34c-11.355 11.355-9.871 9.872-11.356 11.357zm-21.97 21.97-22.34-22.34 11.363-11.364 22.34 22.341zm-32.947-11.734 22.34 22.34-13.019 13.019c-5.058-9.492-12.833-17.274-22.34-22.34zm-75.847 49.367c1.917 3.733 4.333 7.575 7.113 11.408-2.78 3.833-5.195 7.675-7.113 11.408-2.242-7.385-2.246-15.417 0-22.816zm17.048-.637c-4.721-7.196-6.709-12.647-6.893-15.212 2.565.184 8.016 2.172 15.212 6.893-2.871 2.655-5.673 5.458-8.319 8.319zm0 24.09c2.605 2.816 5.401 5.62 8.319 8.319-7.196 4.721-12.647 6.709-15.212 6.893.184-2.564 2.172-8.015 6.893-15.212zm9.322-12.045c3.391-3.812 7.227-7.648 11.042-11.042 3.928 3.494 7.758 7.35 11.042 11.042-3.397 3.818-7.234 7.655-11.042 11.042-3.72-3.308-7.574-7.142-11.042-11.042zm31.406-12.045c-2.649-2.864-5.452-5.668-8.319-8.319 7.196-4.721 12.647-6.709 15.212-6.893-.184 2.566-2.172 8.017-6.893 15.212zm0 24.09c4.721 7.196 6.709 12.647 6.893 15.212-2.565-.184-8.016-2.172-15.212-6.893 2.817-2.605 5.62-5.4 8.319-8.319zm9.935-12.045c2.776-3.828 5.19-7.666 7.106-11.394 2.191 7.208 2.295 15.133-.018 22.754-1.914-3.718-4.32-7.543-7.088-11.36zm-18.905-37.405c-3.729 1.916-7.566 4.33-11.394 7.106-3.816-2.768-7.642-5.175-11.359-7.088 7.207-2.187 15.134-2.333 22.753-.018zm-22.803 74.817c3.733-1.917 7.575-4.333 11.408-7.113 3.833 2.78 7.675 5.195 11.408 7.113-7.383 2.242-15.416 2.246-22.816 0z"/><path d="m438.944 83.649 32.947-32.947c2.929-2.929 2.929-7.678 0-10.606-2.929-2.929-7.678-2.929-10.606 0l-32.947 32.947c-2.929 2.929-2.929 7.678 0 10.606 2.929 2.929 7.677 2.929 10.606 0z"/></g></svg>