<svg id="Capa_1" enable-background="new 0 0 512 512" height="512" viewBox="0 0 512 512" width="512" xmlns="http://www.w3.org/2000/svg"><g><path d="m233.591 464.784c-65.909 65.909-124.341 40.898-175.807-10.568s-76.477-109.898-10.568-175.807 216.304-95.813 249.246-62.871 3.038 183.337-62.871 249.246z" fill="#9b5e5e"/><g fill="#855151"><path d="m296.462 215.538c-2.058-2.058-4.575-3.871-7.501-5.446l-67.863 67.863c-1.953 1.953-1.953 5.118 0 7.071l25.876 25.876c1.953 1.953 5.118 1.953 7.071 0l55.561-55.561c-1.173-17.97-5.44-32.098-13.144-39.803z"/><path d="m103.016 432.107c-.484-1.484-1.633-2.657-3.107-3.171l-27.269-9.509c-1.812-.632-3.825-.171-5.182 1.186l-21.312 21.312c3.694 4.14 7.584 8.238 11.638 12.292 10.82 10.82 21.948 20.47 33.388 28.353l19.171-19.171c1.331-1.331 1.802-3.296 1.218-5.086z"/><path d="m296.462 215.538c-6.955-6.955-19.146-11.109-34.671-12.713 23.834 43.674-6.308 180.067-68.2 241.959-37.197 37.197-72.013 45.435-104.539 36.302 43.537 30.926 91.628 36.609 144.539-16.302 65.909-65.909 95.813-216.304 62.871-249.246z"/></g><circle cx="184.615" cy="327.385" fill="#685e68" r="38.828"/><path d="m157.16 319.929c15.163-15.163 39.748-15.163 54.911 0 5.015 5.015 8.371 11.061 10.069 17.456 3.435-12.94.08-27.308-10.069-37.456-15.163-15.163-39.748-15.163-54.911 0-10.148 10.148-13.504 24.516-10.069 37.456 1.698-6.395 5.053-12.441 10.069-17.456z" fill="#554e56"/><path d="m250.509 294.438 177.654-177.654-7.429-25.517-25.518-7.43-177.654 177.654z" fill="#685e68"/><path d="m483.715 34.616-1.179-5.151-5.151-1.179c-7.779-1.781-13.853-7.855-15.634-15.634l-1.18-5.152-46.705 46.705c-1.445 1.445-2.708 3.062-3.76 4.815l-14.89 24.816 32.947 32.947 24.817-14.89c1.753-1.052 3.37-2.314 4.815-3.76l46.705-46.704-5.151-1.179c-7.779-1.781-13.853-7.855-15.634-15.634z" fill="#9b5e5e"/><path d="m78.655 475.086-42.835-42.835 33.857-33.857 32.571 11.358 10.264 31.477z" fill="#cbc4cc"/><path d="m230.943 327.385c0-12.375-4.819-24.009-13.569-32.76-18.063-18.062-47.454-18.062-65.518 0-2.684 2.685-5.028 5.682-6.968 8.908-2.134 3.55-.986 8.157 2.564 10.291 3.55 2.136 8.158.985 10.292-2.564 1.31-2.179 2.897-4.207 4.718-6.027 12.216-12.215 32.091-12.215 44.305-.001 5.917 5.918 9.176 13.785 9.176 22.153s-3.259 16.234-9.176 22.152c-5.917 5.917-13.784 9.176-22.152 9.176s-16.235-3.259-22.152-9.177c-3.007-3.007-5.331-6.512-6.905-10.415-1.55-3.841-5.92-5.701-9.761-4.149-3.841 1.549-5.699 5.919-4.15 9.761 2.333 5.784 5.769 10.969 10.21 15.41 8.75 8.751 20.384 13.57 32.759 13.57s24.009-4.819 32.759-13.569c8.749-8.75 13.568-20.385 13.568-32.759z"/><path d="m438.957 83.65 20.026-20.026c2.929-2.93 2.929-7.678 0-10.607-2.929-2.928-7.678-2.928-10.606 0l-20.026 20.026c-2.929 2.93-2.929 7.678 0 10.607 2.93 2.929 7.678 2.928 10.606 0z"/><path d="m511.707 49.355c-.755-2.622-2.875-4.628-5.535-5.237l-5.15-1.178c-4.941-1.132-8.866-5.056-9.997-9.997l-1.179-5.151c-.642-2.805-2.832-4.995-5.637-5.637l-5.151-1.18c-4.942-1.132-8.866-5.056-9.998-9.997l-1.18-5.151c-.609-2.66-2.615-4.779-5.237-5.534-2.624-.754-5.448-.025-7.377 1.904l-16.814 16.815c-2.929 2.929-2.929 7.677 0 10.606 2.929 2.928 7.678 2.929 10.606-.001l8.109-8.108c3.835 7.016 10.565 12.261 18.541 14.087l.565.13.129.564c1.826 7.976 7.071 14.705 14.087 18.541l-38 37.999c-1.011 1.012-2.145 1.896-3.37 2.632l-19.796 11.877-24.663-24.665 11.877-19.795c.735-1.226 1.621-2.359 2.632-3.371l4.478-4.479c2.929-2.929 2.928-7.678 0-10.606-2.93-2.928-7.678-2.929-10.607.001l-4.478 4.478c-1.877 1.878-3.522 3.983-4.888 6.261l-14.414 24.023-117.483 117.483c-59.391-10.923-174.584 21.156-229.864 76.436-27.772 27.772-41.874 56.567-41.913 85.583-.033 24.133 9.239 48.185 28.321 73.406-.043 2.028.739 4.004 2.195 5.461 4.657 4.657 39.543 39.543 42.835 42.835 1.418 1.417 3.263 2.149 5.121 2.194 22.03 16.964 46.912 29.416 74.704 29.416 29.067 0 57.906-14.1 85.719-41.913 41.448-41.448 65.545-109.34 74.276-159.056.716-4.079-2.01-7.968-6.09-8.684-4.082-.713-7.968 2.011-8.685 6.09-10.473 59.639-37.993 118.927-70.108 151.042-44.931 44.931-88.711 49.413-137.224 13.805l26.752-26.752c1.997-1.997 2.703-4.945 1.827-7.629l-10.264-31.477c-.726-2.227-2.45-3.985-4.661-4.757l-32.571-11.358c-2.719-.947-5.738-.256-7.773 1.778l-26.58 26.58c-34.618-48.011-29.84-91.391 14.725-135.958 48.233-48.233 148.611-78.534 205.908-73.693l-46.169 46.168c-1.407 1.407-2.197 3.314-2.197 5.304s.79 3.896 2.197 5.304l32.947 32.946c2.93 2.929 7.678 2.928 10.606 0l46.151-46.151c.519 6.31.619 13.252.295 20.771-.183 4.252 3.21 7.822 7.499 7.822 3.994 0 7.314-3.149 7.488-7.178.564-13.135-.079-24.811-1.914-34.784 84.365-84.364 80.674-80.674 117.483-117.483l24.026-14.415c2.276-1.366 4.382-3.011 6.259-4.887l46.705-46.705c1.93-1.927 2.659-4.753 1.904-7.375zm-440.055 357.671 24.618 8.585 7.686 23.568-25.3 25.301c-.778-.778-30.272-30.271-32.229-32.229zm345.904-290.242-13.295 13.295-22.34-22.339 13.295-13.295zm-35.258 35.257-22.34-22.34 11.355-11.355 22.34 22.339zm-21.969 21.97-22.34-22.339 11.363-11.363 22.34 22.34zm-21.963 21.963-22.34-22.34 11.356-11.355 22.34 22.339zm-21.963 21.963-22.34-22.34 11.356-11.356 22.34 22.34zm-21.963 21.963-22.34-22.34c1.316-1.316 4.301-4.301 11.356-11.356l22.34 22.34c-12.458 12.458-10.707 10.707-11.356 11.356zm-21.97 21.97-22.34-22.34 11.363-11.363 22.34 22.34zm-21.961 21.961-22.34-22.34 11.355-11.355 22.34 22.34z"/><path d="m96.569 327.573c-2.929-2.928-7.678-2.928-10.606 0-2.929 2.93-2.929 7.678 0 10.607l87.858 87.857c2.93 2.929 7.678 2.928 10.606 0 2.929-2.93 2.929-7.678 0-10.607z"/></g></svg>