<svg id="Capa_1" enable-background="new 0 0 512.043 512.043" height="512" viewBox="0 0 512.043 512.043" width="512" xmlns="http://www.w3.org/2000/svg"><g><path d="m93.376 113.359h31.062v100.952h-31.062z" fill="#025f80" transform="matrix(.707 -.707 .707 .707 -83.95 124.996)"/><path d="m158.345 81.663c-30.87 19.645-57.052 45.826-76.697 76.697-5.032 7.907-3.896 18.247 2.73 24.874l14.935 14.935 164.734 120.805 120.805 164.734 14.935 14.935c6.627 6.627 16.967 7.762 24.874 2.73 30.87-19.645 57.052-45.826 76.697-76.696 5.032-7.907 3.896-18.247-2.73-24.874l-315.409-315.41c-6.626-6.626-16.967-7.762-24.874-2.73z" fill="#0681af"/><path d="m78.615 248.141h403.812v108.719h-403.812z" fill="#f3f0f3" transform="matrix(.707 .707 -.707 .707 296.063 -109.758)"/><path d="m172.654 225.615-14.893-14.893c-1.953-1.953-1.953-5.118 0-7.071l42.29-42.29 21.965 21.965-42.29 42.29c-1.953 1.952-5.119 1.952-7.072-.001zm93.291 1.639-21.965-21.964-42.29 42.29c-1.953 1.953-1.953 5.118 0 7.071l14.893 14.893c1.953 1.953 5.118 1.953 7.071 0zm87.858 87.858-21.965-21.965-42.29 42.29c-1.953 1.953-1.953 5.118 0 7.071l14.893 14.893c1.953 1.953 5.118 1.953 7.071 0zm43.929 43.929-21.965-21.965-42.29 42.29c-1.953 1.953-1.953 5.118 0 7.071l14.893 14.893c1.953 1.953 5.118 1.953 7.071 0zm43.929 43.929-21.965-21.965-42.29 42.29c-1.953 1.953-1.953 5.118 0 7.071l14.893 14.893c1.953 1.953 5.118 1.953 7.071 0z" fill="#e2dee2"/><path d="m176.19 121.293-10 10 229.786 229.786c14.223 14.223 14.223 37.282 0 51.505l-41.123 41.123 30 30 76.876-76.875z" fill="#e2dee2"/><g fill="#685e68"><path d="m171.641 145.142h31.062v62.125h-31.062z" transform="matrix(.707 .707 -.707 .707 179.417 -80.742)"/><path d="m215.57 189.071h31.062v62.125h-31.062z" transform="matrix(.707 .707 -.707 .707 223.346 -98.938)"/><path d="m303.428 276.929h31.062v62.125h-31.062z" transform="matrix(.707 .707 -.707 .707 311.204 -135.33)"/><path d="m347.357 320.858h31.062v62.125h-31.062z" transform="matrix(.707 .707 -.707 .707 355.133 -153.526)"/><path d="m391.286 364.787h31.062v62.125h-31.062z" transform="matrix(.707 .707 -.707 .707 399.062 -171.722)"/><path d="m364.704 131.751h31.062v62.125h-31.062z" transform="matrix(0 -1 1 0 217.422 543.048)"/></g><path d="m62.229 95.199-16.481-16.485c-8.571-8.573-9.585-22.385-1.849-31.718 4.453-5.373 11.04-8.436 17.942-8.436h357.216c30.022 0 54.36 24.338 54.36 54.36 0 30.022-24.338 54.36-54.36 54.36h-7.76v31.06h7.77c47.176 0 85.42-38.244 85.42-85.42 0-47.176-38.244-85.42-85.42-85.42h-357.222c-14.417 0-28.244 5.727-38.438 15.922-21.229 21.229-21.229 55.648 0 76.877l16.862 16.862z" fill="#f3f0f3"/><path d="m503.932 394.498-158.689-158.689c-2.93-2.928-7.678-2.928-10.607 0-2.929 2.93-2.929 7.678 0 10.607l158.689 158.688c4.173 4.174 4.875 10.565 1.706 15.545-18.927 29.742-44.652 55.468-74.396 74.396-4.979 3.166-11.372 2.466-15.544-1.706l-9.632-9.632 71.573-71.573c1.406-1.407 2.196-3.314 2.196-5.304s-.79-3.896-2.196-5.304l-285.538-285.537c-2.93-2.928-7.678-2.928-10.607 0l-71.572 71.572-9.631-9.632c-4.135-4.135-4.861-10.447-1.792-15.406.036-.056.072-.113.106-.17 18.926-29.729 44.644-55.442 74.375-74.362 4.978-3.17 11.371-2.469 15.544 1.706l131.624 131.624c2.931 2.929 7.678 2.928 10.607 0 2.929-2.93 2.929-7.678 0-10.607l-131.625-131.624c-9.183-9.181-23.247-10.727-34.204-3.754-20.219 12.866-38.69 28.692-54.638 46.701l-10.179-10.179c-2.93-2.928-7.678-2.928-10.607 0l-5.681 5.681-11.357-11.357c8.237-8.237 2.648-2.649 9.451-9.452 2.929-2.93 2.929-7.678 0-10.607-2.398-2.396-6.013-2.831-8.853-1.305l-11.404-11.407c-5.919-5.92-6.524-15.421-1.378-21.629 3.014-3.636 7.449-5.722 12.168-5.722h37.112c4.143 0 7.5-3.357 7.5-7.5s-3.357-7.5-7.5-7.5h-37.112c-9.198 0-17.843 4.063-23.717 11.149-10.034 12.105-9.016 30.469 2.319 41.807l11.179 11.182-11.355 11.355-11.557-11.557c-18.271-18.271-18.271-48.001 0-66.271 8.851-8.851 20.618-13.725 33.135-13.725h357.222c42.965 0 77.92 34.955 77.92 77.92 0 42.966-34.955 77.921-77.92 77.921h-.27v-16.061h.26c34.11 0 61.86-27.75 61.86-61.86 0-34.109-27.75-61.859-61.86-61.859h-285.104c-4.143 0-7.5 3.357-7.5 7.5s3.357 7.5 7.5 7.5h285.104c25.839 0 46.86 21.021 46.86 46.859 0 25.839-21.021 46.86-46.86 46.86-4.967 0-8.677.002-62.384.002v-.268c0-4.143-3.357-7.5-7.5-7.5s-7.5 3.357-7.5 7.5v46.597c0 4.143 3.357 7.5 7.5 7.5s7.5-3.357 7.5-7.5v-.267c.131 0 5.198 0 62.394-.004 51.236 0 92.92-41.685 92.92-92.921s-41.684-92.919-92.92-92.919h-357.222c-16.523 0-32.058 6.435-43.742 18.118-24.118 24.119-24.118 63.364 0 87.483l11.782 11.782c-1.528 2.84-1.093 6.457 1.304 8.855 2.931 2.929 7.678 2.928 10.607 0 6.933-6.933.935-.934 9.452-9.451l11.357 11.357-5.676 5.676c-2.929 2.93-2.929 7.678 0 10.606l15.609 15.61c-3.462 9.807-1.114 20.848 6.536 28.498 45.633 45.636 21.987 21.989 189.117 189.119 2.93 2.928 7.678 2.927 10.607 0 2.929-2.93 2.929-7.678 0-10.607l-4.145-4.145 22.34-22.34 5.679 5.679c2.929 2.929 7.677 2.928 10.606 0l38.626-38.626 11.357 11.357-38.626 38.626c-2.929 2.93-2.929 7.678 0 10.606l5.679 5.679-22.34 22.34-4.081-4.081c-2.93-2.928-7.678-2.928-10.607 0-2.929 2.93-2.929 7.678 0 10.607.645.645 98.933 98.932 101.196 101.195 9.148 9.148 23.213 10.75 34.203 3.753 31.582-20.097 58.899-47.414 78.998-78.997 6.975-10.952 5.431-25.016-3.751-34.201zm-147.259-239.716h47.124v16.062h-47.124zm-266.646-21.184c-3.351 4.26-6.566 8.623-9.635 13.079l-7.552-7.552c.346-.346 10.123-10.123 11.357-11.357zm294.826 339.503-22.34-22.34 22.34-22.34 5.679 5.679c2.931 2.929 7.678 2.928 10.607 0l38.626-38.626 11.357 11.357zm44.305-88.234-33.322 33.322c-.515-.515-9.869-9.869-11.358-11.358l33.322-33.322zm-242.362-109.822 22.34-22.34 5.678 5.678c1.407 1.407 3.314 2.197 5.304 2.197s3.896-.79 5.304-2.196l38.627-38.626 22.339 22.339-66.27 66.27zm-43.928-43.929 22.34-22.34 5.679 5.679c1.407 1.406 3.314 2.196 5.304 2.196s3.896-.79 5.304-2.196l38.626-38.626 11.357 11.357-38.626 38.625c-2.929 2.93-2.929 7.678 0 10.606l5.679 5.679-22.34 22.341zm66.644-65.894-33.322 33.323c-.515-.515-9.869-9.869-11.358-11.358l33.323-33.322zm4.946 71.591c-.019-.019-.017-.018-.037-.037l-5.66-5.66 33.322-33.322 11.358 11.358-33.323 33.322zm-38.268-104.914 11.358 11.358-38.626 38.625c-1.406 1.407-2.196 3.314-2.196 5.304s.79 3.896 2.196 5.304l5.679 5.679-22.34 22.34-22.34-22.34zm87.858 220.396-33.322-33.322 66.269-66.269 22.339 22.339-38.626 38.626c-1.406 1.407-2.196 3.314-2.196 5.304s.79 3.896 2.197 5.304l5.678 5.678zm77.251-55.286-33.322 33.322c-1.282-1.282-10.298-10.297-11.358-11.357l33.323-33.323c5.971 5.971 3.417 3.417 11.357 11.358zm32.571 32.571c3.88 3.88 7.351 7.35 11.358 11.357l-33.323 33.323-5.66-5.661c-.019-.019-.017-.018-.037-.037l-5.66-5.66zm-32.946 54.912 5.678 5.678c1.407 1.407 3.314 2.197 5.304 2.197s3.896-.79 5.304-2.196l38.626-38.626 11.357 11.357-38.626 38.626c-2.929 2.93-2.929 7.678 0 10.607l5.679 5.679-22.34 22.34-33.322-33.322z"/></g></svg>