<svg id="Capa_1" enable-background="new 0 0 511.999 511.999" height="512" viewBox="0 0 511.999 511.999" width="512" xmlns="http://www.w3.org/2000/svg"><g><path d="m499.679 33.693-21.654-21.654c-6.065-6.065-15.899-6.065-21.964 0-4.044 4.043-5.391 9.762-4.044 14.922 1.389 5.319.112 10.974-3.776 14.862l-336.461 336.46c-19.853 19.853-41.343 37.999-64.242 54.244l-9.406 6.673c-4.644 3.295-10.753 3.676-15.77.983l-3.534-1.896-8.439 14.065c-4.722 7.87-3.482 17.943 3.008 24.432l21.845 21.845c6.489 6.489 16.562 7.729 24.432 3.008l14.065-8.439-1.896-3.533c-2.692-5.018-2.311-11.127.984-15.771l6.673-9.406c16.246-22.899 34.391-44.389 54.244-64.242l336.369-336.367c3.807-3.807 9.384-5.478 14.554-3.979 5.486 1.591 11.677.099 15.841-4.477 5.628-6.184 5.084-15.817-.829-21.73z" fill="#685e68"/><path d="m499.679 33.693-21.654-21.655c-4.848-4.848-12.104-5.821-17.919-2.918l9.573 9.573c5.913 5.913 6.457 15.546.829 21.731-4.164 4.575-10.354 6.068-15.84 4.477-3.584-1.039-7.363-.555-10.613 1.108l-332.275 332.274c-5.664 5.664-11.462 11.189-17.387 16.571-16.231 17.126-31.234 35.382-44.893 54.636l-6.673 9.406c-3.295 4.644-3.676 10.753-.984 15.771 1.061 1.978.382 4.441-1.543 5.596l-10.627 6.376c-1.421.853-2.914 1.511-4.445 1.979l10.013 10.013c6.489 6.489 16.562 7.729 24.432 3.008l14.065-8.439-1.896-3.533c-2.692-5.018-2.311-11.127.984-15.771l6.673-9.406c16.246-22.899 34.391-44.389 54.244-64.242l336.37-336.368c3.807-3.807 9.384-5.478 14.554-3.979 5.486 1.591 11.677.099 15.84-4.477 5.629-6.185 5.085-15.818-.828-21.731z" fill="#554e56"/><g fill="#cbc4cc"><circle cx="148.029" cy="363.999" r="23.297"/><circle cx="202.94" cy="309.088" r="23.297"/><circle cx="257.851" cy="254.176" r="23.297"/><circle cx="312.762" cy="199.265" r="23.297"/></g><path d="m149.831 340.772c3.126 8.298 1.35 18.022-5.328 24.7-5.008 5.008-11.728 7.259-18.275 6.754 1.133 3.007 2.909 5.827 5.329 8.246 9.098 9.098 23.849 9.098 32.947 0s9.098-23.849 0-32.947c-4.092-4.09-9.325-6.341-14.673-6.753z" fill="#b5adb6"/><path d="m204.742 285.86c3.126 8.298 1.35 18.022-5.328 24.701-5.008 5.008-11.728 7.259-18.275 6.754 1.133 3.007 2.909 5.826 5.328 8.246 9.098 9.098 23.849 9.098 32.947 0s9.098-23.849 0-32.947c-4.091-4.09-9.324-6.341-14.672-6.754z" fill="#b5adb6"/><path d="m259.653 230.949c3.126 8.298 1.35 18.022-5.328 24.7-5.008 5.008-11.728 7.259-18.275 6.754 1.133 3.007 2.909 5.827 5.328 8.246 9.098 9.098 23.849 9.098 32.947 0s9.098-23.849 0-32.947c-4.091-4.089-9.324-6.34-14.672-6.753z" fill="#b5adb6"/><path d="m329.236 182.792c-4.09-4.09-9.323-6.341-14.671-6.754 3.126 8.298 1.35 18.022-5.329 24.7-5.008 5.008-11.728 7.259-18.275 6.754 1.133 3.007 2.909 5.826 5.328 8.246 9.098 9.098 23.849 9.098 32.947 0 9.098-9.097 9.098-23.848 0-32.946z" fill="#b5adb6"/><path d="m504.983 28.389-5.368-5.368 7.645-7.645c2.929-2.93 2.929-7.678 0-10.607-2.93-2.928-7.678-2.928-10.607 0l-7.645 7.645-5.679-5.679c-8.98-8.979-23.592-8.98-32.572.001-5.758 5.759-8.055 14.234-5.996 22.119.757 2.9.076 5.767-1.821 7.664l-26.421 26.42c-2.93 2.929-2.93 7.678-.001 10.606s7.678 2.93 10.606.001l26.422-26.421c5.704-5.705 7.845-13.951 5.729-22.061-.72-2.755.081-5.715 2.09-7.723 3.131-3.133 8.227-3.133 11.357 0 1.877 1.877 21.344 21.343 21.654 21.653 3.158 3.159 3.421 8.265.585 11.381-2.088 2.295-5.233 3.184-8.204 2.321-7.681-2.228-16.093.024-21.947 5.879l-53.394 53.393-11.357-11.357 1.877-1.877c2.929-2.93 2.929-7.678 0-10.607-2.93-2.928-7.678-2.928-10.607 0l-1.931 1.931c-2.938-2.204-7.125-1.97-9.799.701-2.672 2.673-2.906 6.86-.701 9.799l-11.465 11.465c-2.938-2.204-7.125-1.971-9.799.701-2.672 2.673-2.906 6.861-.701 9.799l-45.997 45.998c-7.539.438-14.566 3.583-19.949 8.967-5.384 5.384-8.529 12.41-8.968 19.949l-25.996 25.995c-7.539.438-14.565 3.584-19.949 8.967-5.536 5.536-8.52 12.672-8.951 19.934l-26.027 26.028c-7.261.432-14.397 3.415-19.933 8.949-5.384 5.384-8.529 12.411-8.967 19.95l-26.012 26.012c-7.26.432-14.396 3.415-19.932 8.949-5.384 5.383-8.529 12.41-8.967 19.949-8.198 8.124-14.356 14.603-24.724 24.185-2.916-1.961-6.905-1.653-9.484.924-2.379 2.379-2.826 5.958-1.341 8.788-12.345 10.753-25.231 20.902-38.538 30.342l-9.407 6.673c-2.337 1.66-5.359 1.848-7.884.493l-3.533-1.896c-3.527-1.893-7.918-.683-9.978 2.75l-8.439 14.065c-6.503 10.84-4.803 24.654 4.136 33.595l21.845 21.845c8.968 8.967 22.786 10.619 33.594 4.136l14.065-8.44c3.432-2.059 4.642-6.45 2.75-9.977l-1.896-3.533c-1.355-2.526-1.167-5.547.492-7.885l6.672-9.406c9.442-13.308 19.59-26.195 30.342-38.539 2.829 1.484 6.408 1.038 8.787-1.34 2.579-2.579 2.887-6.567.925-9.484 9.583-10.369 15.892-16.354 24.202-24.74 7.261-.432 14.397-3.415 19.932-8.95 0 0 0 0 0-.001 5.384-5.384 8.529-12.411 8.967-19.949l25.995-25.995c4.909-.285 9.6-1.719 13.762-4.17l.883.883c8.98 8.979 23.592 8.98 32.571-.001l8.494-8.494c2.929-2.929 2.929-7.678 0-10.606s-7.678-2.929-10.606.001l-8.494 8.493c-3.132 3.133-8.227 3.133-11.358 0l-.789-.789c2.624-4.278 4.157-9.138 4.453-14.233l25.994-25.994c5.032-.292 9.835-1.791 14.074-4.355l6.44 6.559-4.79 4.79c-2.929 2.93-2.929 7.678 0 10.607 2.93 2.929 7.678 2.928 10.606 0l4.693-4.693.321.327c2.899 2.955 7.648 3.001 10.605.098 2.956-2.901 3-7.65.098-10.605l-.417-.425 44.203-44.203.321.327c2.899 2.955 7.648 3.001 10.605.098 2.956-2.901 3-7.65.098-10.605l-.417-.425 27.656-27.656c4.35-4.351 6.745-10.134 6.745-16.286s-2.396-11.936-6.745-16.286l-5.679-5.679 11.411-11.411c2.951 2.214 7.135 1.962 9.799-.701 2.673-2.673 2.906-6.861.701-9.799l11.465-11.465c2.95 2.214 7.134 1.962 9.799-.701 2.672-2.673 2.906-6.861.701-9.799l53.448-53.447c1.958-1.958 4.77-2.771 7.162-2.08 8.514 2.469 17.507-.073 23.476-6.632 8.285-9.105 7.814-23.198-1.071-32.085zm-104.176 94.188-11.357 11.357-11.357-11.357 11.357-11.357zm-61.334 61.334c-2.706-4.69-6.665-8.649-11.357-11.356l39.369-39.369 11.357 11.357c-5.549 5.549-33.868 33.867-39.369 39.368zm-37.88 4.184c6.182-6.182 16.178-6.161 22.34.001 6.152 6.152 6.191 16.148 0 22.339-6.085 6.085-16.086 6.255-22.341 0-6.078-6.078-6.263-16.077.001-22.34zm-17.031 50.727c-2.707-4.692-6.665-8.65-11.358-11.357l12.846-12.846c2.706 4.691 6.665 8.65 11.357 11.357zm-37.881 4.184c6.173-6.172 16.163-6.177 22.34.001 6.153 6.152 6.191 16.149 0 22.339v.001c-6.186 6.186-16.179 6.161-22.34-.001-6.159-6.158-6.159-16.181 0-22.34zm-28.395 39.377 12.86-12.861c2.635 4.587 6.546 8.593 11.352 11.365l-12.846 12.847c-2.702-4.682-6.649-8.642-11.366-11.351zm-26.516 15.535c6.156-6.157 16.181-6.16 22.34 0 6.134 6.133 6.207 16.133 0 22.339v.001c-6.175 6.174-16.166 6.175-22.34-.001-6.174-6.172-6.175-16.165 0-22.339zm-28.395 39.377 12.853-12.853c2.707 4.691 6.666 8.65 11.358 11.357l-12.846 12.846c-2.691-4.665-6.629-8.631-11.365-11.35zm-89.992 122.855-6.672 9.406c-4.36 6.145-5.334 13.863-2.774 20.779l-8.122 4.872c-4.926 2.958-11.207 2.184-15.27-1.88l-21.845-21.843c-4.063-4.064-4.836-10.344-1.88-15.271l4.873-8.121c6.914 2.562 14.634 1.586 20.778-2.773l9.407-6.673c13.9-9.861 27.355-20.472 40.234-31.722l12.993 12.993c-11.249 12.877-21.86 26.332-31.722 40.233zm41.769-51.401-11.874-11.874c9.284-8.605 15.201-14.722 18.038-17.523 2.702 4.683 6.648 8.642 11.365 11.351-2.625 2.661-8.891 8.726-17.529 18.046zm44.047-33.58c-6.159 6.157-16.18 6.158-22.34.001-6.174-6.176-6.174-16.168 0-22.341 6.156-6.157 16.181-6.16 22.34 0 6.175 6.174 6.174 16.166 0 22.34zm131.598-98.651-6.469-6.589c2.51-4.202 3.977-8.951 4.266-13.924l25.996-25.996c4.981-.29 9.738-1.761 13.946-4.279l6.464 6.584zm82.367-93.726c1.518 1.517 2.353 3.533 2.353 5.679s-.835 4.162-2.353 5.679l-27.558 27.558-6.443-6.562c2.557-4.234 4.051-9.03 4.343-14.053l23.979-23.979z"/></g></svg>