<svg id="Capa_1" enable-background="new 0 0 512 512" height="512" viewBox="0 0 512 512" width="512" xmlns="http://www.w3.org/2000/svg"><g><path d="m325.275 309.085c11.932 4.468 22.894 11.461 32.077 20.644l50.515 50.515 21.965-21.965-50.515-50.515c-9.183-9.183-16.176-20.145-20.644-32.077l-27.681 5.716z" fill="#fe9738"/><path d="m215.98 317.979 206.692-206.692-1.938-20.026-20.026-1.938-206.692 206.691z" fill="#fe9738"/><path d="m464.663 69.296c6.065-6.065 15.899-6.065 21.964 0l13.609-13.609c5.685-5.685 5.685-14.903 0-20.588l-23.341-23.341c-5.685-5.685-14.903-5.685-20.588 0l-13.609 13.609c6.065 6.065 6.065 15.899 0 21.964s-15.899 6.065-21.965 0l-6.54 6.54c-1.647 1.647-2.887 3.654-3.624 5.863l-9.863 29.588 21.965 21.965 29.588-9.863c2.209-.736 4.217-1.977 5.863-3.624l6.54-6.54c-6.065-6.064-6.065-15.898.001-21.964z" fill="#685e68"/><path d="m141.101 504.495-26.071-17.82c-35.217-24.071-65.639-54.494-89.71-89.71l-17.82-26.071 17.399-25.529c24.025-35.251 54.409-65.716 89.595-89.834l26.607-18.238 26.071 17.82c35.217 24.071 65.639 54.494 89.71 89.71l17.82 26.071-18.238 26.607c-24.119 35.187-54.584 65.57-89.834 89.595z" fill="#fff3be"/><path d="m95.467 472.262 12.231-6.689c2.927-1.601 3.495-5.563 1.136-7.922l-39.209-39.209-10.946 20.014c11.417 12.137 23.711 23.437 36.788 33.806z" fill="#fff0ad"/><path d="m256.882 344.823c-24.071-35.217-54.494-65.639-89.71-89.71l-26.071-17.82-5.499 3.77c31.655 23.062 59.152 51.385 81.281 83.76l.337.493c10.539 15.419 10.526 35.728-.034 51.134l-.721 1.052c-24.119 35.187-54.584 65.57-89.834 89.595-8.353 5.693-18.136 8.293-27.795 7.802 5.277 4.078 10.677 8.006 16.195 11.777l26.071 17.82 25.529-17.399c35.251-24.025 65.716-54.408 89.834-89.595l18.238-26.607z" fill="#fff0ad"/><path d="m57.13 460.938-6.073-6.073c-4.71-4.71-5.75-11.961-2.554-17.804l21.122-38.619 43.929 43.929-38.619 21.122c-5.844 3.194-13.095 2.154-17.805-2.555z" fill="#685e68"/><path d="m352.956 244.125v-6.65l-65.894 65.894h6.65c10.883 0 21.563 1.972 31.563 5.716l33.397-33.397c-3.744-10-5.716-20.68-5.716-31.563z" fill="#685e68"/><path d="m415.643 333.483c-2.93-2.928-7.678-2.928-10.607 0-2.929 2.93-2.929 7.678 0 10.607l14.19 14.189-11.358 11.358-45.212-45.213c-7.219-7.218-15.375-13.167-24.344-17.768l17.934-17.934c4.601 8.97 10.55 17.127 17.768 24.345l5.821 5.821c2.931 2.929 7.678 2.928 10.607 0 2.929-2.93 2.929-7.678 0-10.607l-5.821-5.821c-15.686-15.686-24.164-36.732-24.164-58.336v-6.65c0-3.033-1.827-5.769-4.63-6.929-2.803-1.162-6.027-.52-8.174 1.625l-65.893 65.894c-2.145 2.146-2.787 5.371-1.626 8.174s3.896 4.63 6.929 4.63h6.649c21.188 0 42.361 8.187 58.336 24.164l50.516 50.516c2.931 2.929 7.678 2.928 10.607 0l21.965-21.965c2.929-2.93 2.929-7.678 0-10.607zm-69.584-78.504c.709 6.354 2.043 12.613 3.992 18.725l-26.76 26.76c-6.111-1.949-12.371-3.283-18.725-3.992z"/><path d="m509.804 81.866-12.57-12.57 8.306-8.305c8.599-8.601 8.599-22.594 0-31.195l-23.342-23.341c-8.6-8.6-22.594-8.599-31.195.001l-13.608 13.609c-2.929 2.929-2.929 7.677 0 10.606.715.715 1.266 1.532 1.655 2.405l-18.894-18.894c-2.928-2.928-7.677-2.929-10.606.001-2.929 2.929-2.929 7.677.001 10.606l18.894 18.893c-.874-.389-1.692-.94-2.407-1.656-2.93-2.928-7.678-2.928-10.607 0l-6.54 6.54c-2.456 2.457-4.335 5.498-5.435 8.795l-9.302 27.908-16.114 16.115c-2.929 2.929-2.929 7.678.001 10.606 2.928 2.928 7.677 2.929 10.606-.001l12.061-12.062 11.358 11.358-184.926 184.926c-3.698-3.873-7.484-7.659-11.357-11.357l147.449-147.449c2.929-2.93 2.929-7.678 0-10.607-2.93-2.928-7.678-2.928-10.607 0l-147.922 147.923c-10.529-9.221-21.638-17.831-33.298-25.801l-26.071-17.818c-2.554-1.747-5.919-1.742-8.472.005l-26.607 18.237c-29.479 20.208-55.612 44.71-77.671 72.828-2.557 3.259-1.987 7.973 1.271 10.529 3.259 2.56 7.974 1.987 10.53-1.271 21.116-26.915 46.131-50.37 74.35-69.713l22.373-15.335 21.833 14.922c35.542 24.294 64.775 54.136 87.75 87.752l14.923 21.832-15.335 22.373c-23.688 34.557-53.252 64.043-87.872 87.639l-21.299 14.516-21.845-14.932c-8.628-5.898-17.042-12.249-25.113-18.952l23.003-12.581c2.073-1.134 3.49-3.177 3.825-5.516.335-2.338-.45-4.697-2.121-6.368l-43.929-43.929c-1.67-1.67-4.028-2.454-6.368-2.12-2.338.335-4.382 1.753-5.515 3.825l-12.581 23.003c-6.704-8.072-13.055-16.486-18.952-25.113l-14.931-21.845 7.314-10.732c2.333-3.422 1.45-8.088-1.973-10.421-3.423-2.332-8.088-1.45-10.421 1.974l-10.198 14.961c-1.739 2.551-1.737 5.907.005 8.456l17.82 26.071c7.271 10.637 15.202 20.962 23.62 30.757l-.825 1.508c-4.762 8.707-3.187 19.689 3.83 26.705l6.073 6.074v.001c7.006 7.005 17.987 8.598 26.706 3.83l1.508-.825c9.793 8.418 20.118 16.348 30.756 23.619l26.071 17.82c2.547 1.741 5.902 1.747 8.456.006l25.529-17.398c36.167-24.649 67.051-55.452 91.796-91.553l18.238-26.607c1.75-2.553 1.752-5.918.006-8.473l-17.82-26.07c-7.97-11.66-16.58-22.769-25.801-33.298l189.452-189.451 27.906-9.302c3.297-1.1 6.338-2.979 8.795-5.435l1.236-1.236 12.568 12.568c2.931 2.929 7.678 2.928 10.607 0 2.929-2.93 2.929-7.678 0-10.607l-17.872-17.872c-3.132-3.131-3.132-8.227 0-11.357 3.129-3.133 8.224-3.134 11.356 0l17.873 17.873c2.931 2.929 7.678 2.928 10.607 0 2.933-2.93 2.933-7.678.005-10.608zm-447.37 373.769-6.074-6.075c-2.339-2.339-2.864-5.999-1.277-8.901 23.937-43.768 12.069-22.067 16.317-29.835l29.771 29.77c-10.004 5.472-18.91 10.343-29.835 16.318-2.903 1.587-6.563 1.06-8.902-1.277zm396.925-391.642c-7.124 7.125-8.596 17.793-4.417 26.382l-2.123 2.123c-.818.818-1.832 1.445-2.932 1.812l-25.19 8.396-15.408-15.408 8.396-25.19c.366-1.1.993-2.113 1.812-2.932l2.123-2.123c8.589 4.18 19.258 2.707 26.382-4.417 7.123-7.124 8.596-17.793 4.416-26.382l9.191-9.191c2.753-2.75 7.231-2.754 9.982 0l23.341 23.34c2.752 2.753 2.752 7.23.001 9.982l-9.192 9.192c-8.588-4.181-19.257-2.708-26.382 4.416z"/><path d="m152.584 416.611c2.929-2.93 2.929-7.678 0-10.607l-46.594-46.594c-2.929-2.928-7.678-2.928-10.606 0-2.929 2.93-2.929 7.678 0 10.607l46.594 46.594c2.93 2.929 7.678 2.928 10.606 0z"/></g></svg>