<svg id="Capa_1" enable-background="new 0 0 511.938 511.938" height="512" viewBox="0 0 511.938 511.938" width="512" xmlns="http://www.w3.org/2000/svg"><g><path d="m227.624 381.57c-4.934-24.785 2.844-50.518 20.713-68.388l.007-.007-32.947-32.947-.007.007c-17.897 17.897-43.565 25.654-68.388 20.713-32.537-6.477-67.602 2.895-92.82 28.113-40.131 40.131-40.131 105.197 0 145.329s105.197 40.131 145.329 0c25.219-25.218 34.59-60.283 28.113-92.82z" fill="#fd4755"/><path d="m124.004 450.445-25.876-25.876c-1.953-1.953-5.118-1.953-7.071 0l-14.893 14.893c-1.953 1.953-1.953 5.118 0 7.071l25.876 25.876c1.953 1.953 5.118 1.953 7.071 0l14.893-14.893c1.953-1.953 1.953-5.119 0-7.071z" fill="#fb2b3a"/><path d="m248.344 313.175-22.947-22.947-61.376 61.376c-1.953 1.953-1.953 5.118 0 7.071l25.876 25.876c1.953 1.953 5.118 1.953 7.071 0l30.233-30.233c2.562-15.372 9.828-29.828 21.136-41.136z" fill="#fb2b3a"/><path d="m248.344 313.175-32.947-32.947-.007.007c-3.386 3.386-7.05 6.409-10.934 9.051l3.888 3.888-.007.007c-17.869 17.869-25.647 43.603-20.713 68.388 6.477 32.537-2.895 67.602-28.113 92.821-26.436 26.437-63.691 35.458-97.511 27.066 40.362 32.909 99.892 30.554 137.511-7.065 25.219-25.219 34.59-60.284 28.113-92.821-4.934-24.785 2.844-50.519 20.713-68.388z" fill="#fb2b3a"/><path d="m193.433 368.087-32.947-32.947 289.987-289.987c5.858-5.858 15.355-5.858 21.213 0l11.734 11.734c5.858 5.858 5.858 15.355 0 21.213z" fill="#fff3be"/><path d="m76.787 412.958h46.594v31.062h-46.594z" fill="#fff3be" transform="matrix(.707 .707 -.707 .707 332.301 54.731)"/><g fill="#9b5e5e"><circle cx="368.436" cy="66.95" r="15.531"/><circle cx="412.365" cy="23.021" r="15.531"/><circle cx="366.323" cy="255.438" r="15.531"/><circle cx="322.394" cy="299.367" r="15.531"/><circle cx="410.252" cy="211.509" r="15.531"/></g><circle cx="114.283" cy="354.83" fill="#fff3be" r="15.531"/><circle cx="173.743" cy="414.29" fill="#fff3be" r="15.531"/><path d="m427.946 111.234 34.886-34.885c2.929-2.929 2.929-7.678 0-10.606-2.93-2.929-7.678-2.93-10.607 0l-34.886 34.885c-2.929 2.929-2.929 7.678 0 10.606 2.928 2.929 7.676 2.93 10.607 0z"/><path d="m488.724 83.403c8.771-8.773 8.771-23.047 0-31.82l-11.735-11.733c-8.771-8.772-23.047-8.771-31.82 0l-2.684 2.684-9.418-9.418c4.179-8.589 2.707-19.257-4.417-26.381-8.98-8.98-23.592-8.981-32.572 0-8.979 8.979-8.979 23.591.001 32.571 4.489 4.489 10.388 6.734 16.285 6.734 3.46 0 6.92-.773 10.095-2.318l9.418 9.418-4.824 4.824c-2.929 2.929-2.929 7.678 0 10.606 2.93 2.929 7.678 2.929 10.607 0l18.114-18.115c2.924-2.923 7.682-2.926 10.607 0l11.733 11.733c2.925 2.924 2.925 7.683 0 10.607l-60.965 60.965-22.34-22.34 17.3-17.3c2.929-2.929 2.929-7.678 0-10.606-2.93-2.929-7.678-2.929-10.607 0l-2.948 2.948-9.418-9.418c4.179-8.589 2.708-19.257-4.416-26.381-8.98-8.98-23.592-8.98-32.572 0-8.979 8.98-8.979 23.591 0 32.571 4.49 4.49 10.389 6.735 16.286 6.735 3.459 0 6.919-.773 10.095-2.318l9.418 9.418c-11.383 11.383-189.174 189.175-177.855 177.855-16.159 16.16-39.184 23.144-61.601 18.673-36.265-7.227-73.501 4.047-99.615 30.161-42.99 42.991-42.99 112.944 0 155.935 42.992 42.991 112.943 42.992 155.937 0 11.905-11.905 20.72-25.951 26.2-41.746 1.357-3.914-.715-8.187-4.628-9.544-3.912-1.358-8.187.714-9.544 4.628-4.73 13.635-12.346 25.766-22.636 36.056-37.141 37.143-97.577 37.144-134.722 0-37.143-37.143-37.143-97.579 0-134.722 22.562-22.562 54.741-32.304 86.076-26.056 10.324 2.057 20.755 2.123 30.801.347l-21.18 21.18c-2.929 2.929-2.929 7.678 0 10.606l32.946 32.947c1.407 1.407 3.314 2.197 5.304 2.197s3.896-.79 5.304-2.197l21.187-21.187c-1.778 10.054-1.713 20.495.345 30.831 1.163 5.847 1.781 11.838 1.836 17.809.038 4.119 3.389 7.431 7.499 7.431 4.167 0 7.539-3.397 7.501-7.569-.064-6.904-.779-13.834-2.125-20.598-4.465-22.428 2.507-45.458 18.649-61.608 3.686-3.686 33.54-33.539 38.644-38.644l9.41 9.41c-1.519 3.107-2.321 6.544-2.321 10.103 0 6.152 2.396 11.936 6.745 16.286 8.979 8.979 23.592 8.98 32.572 0 4.35-4.35 6.745-10.134 6.745-16.286s-2.396-11.936-6.745-16.285c-7.124-7.124-17.793-8.596-26.381-4.417l-9.418-9.418c10.613-10.613 31.136-31.135 33.322-33.322l9.419 9.419c-4.178 8.589-2.707 19.257 4.416 26.379 4.35 4.351 10.133 6.746 16.285 6.746s11.936-2.396 16.286-6.746c8.979-8.98 8.979-23.591 0-32.571-4.351-4.35-10.134-6.746-16.286-6.746-3.56 0-6.996.802-10.103 2.321l-9.41-9.41c47.201-47.2 28.933-28.933 33.322-33.322l9.418 9.418c-4.179 8.589-2.707 19.257 4.418 26.381 8.978 8.978 23.591 8.98 32.571-.001 8.979-8.979 8.979-23.591-.001-32.571-7.123-7.123-17.792-8.595-26.381-4.416l-9.418-9.418c102.069-102.066 35.062-35.058 97.989-97.985zm-82.038-54.702c-3.131-3.132-3.131-8.228 0-11.359 3.138-3.139 8.219-3.139 11.357 0 3.138 3.137 3.14 8.219 0 11.358-3.131 3.131-8.226 3.131-11.357.001zm-43.929 43.928c-3.132-3.131-3.132-8.227 0-11.358 3.132-3.132 8.226-3.131 11.357 0 3.132 3.131 3.132 8.227 0 11.358-1.517 1.517-3.533 2.353-5.679 2.353s-4.161-.836-5.678-2.353zm-40.363 218.71c4.414 0 8.031 3.562 8.031 8.027 0 2.146-.835 4.162-2.353 5.679-1.517 1.517-3.533 2.353-5.679 2.353s-4.162-.835-5.679-2.353c-1.518-1.517-2.353-3.534-2.353-5.679s.835-4.162 2.352-5.678h.001c1.566-1.566 3.623-2.349 5.68-2.349zm49.607-41.58c1.518 1.517 2.353 3.534 2.353 5.679 0 2.146-.835 4.162-2.353 5.679-1.517 1.517-3.533 2.352-5.679 2.352-2.145 0-4.161-.835-5.678-2.352-3.132-3.131-3.132-8.227 0-11.358 1.517-1.517 3.533-2.352 5.678-2.352 2.146-.001 4.163.835 5.679 2.352zm43.93-43.93c3.131 3.132 3.131 8.228.001 11.358-3.133 3.132-8.228 3.131-11.358 0-1.518-1.517-2.353-3.534-2.353-5.679s.835-4.162 2.353-5.679c3.13-3.13 8.226-3.13 11.357 0zm-64.676-6.171-22.34-22.34 11.363-11.363 22.34 22.34zm-43.926 43.926-22.34-22.34 11.356-11.356 22.34 22.34zm-43.932 43.933-22.34-22.34 11.363-11.363 22.34 22.34zm-54.909 10.228 22.34 22.34-11.358 11.358-22.34-22.34zm32.947 11.733-22.34-22.34 11.355-11.355 22.34 22.34zm43.932-43.932-22.34-22.34 11.356-11.356 22.34 22.34zm43.925-43.925-22.34-22.34 11.356-11.356 22.34 22.34c-2.896 2.896-8.596 8.596-11.356 11.356zm21.593-66.272 11.356-11.356 22.34 22.34c-.137.137-10.166 10.166-11.356 11.356zm55.659-10.98-11.357 11.357-22.34-22.34 11.357-11.357zm-213.111 213.111-22.34-22.34 15.43-15.43 22.34 22.34z"/><path d="m89.289 395.73-21.965 21.964c-2.927 2.927-2.928 7.678 0 10.606l32.947 32.947c2.928 2.927 7.678 2.929 10.607 0l21.964-21.965c2.929-2.929 2.929-7.678 0-10.606l-32.945-32.946c-2.929-2.928-7.677-2.929-10.608 0zm16.286 49.608-22.341-22.34 11.358-11.358 22.34 22.34z"/><path d="m130.569 338.544c-8.98-8.98-23.591-8.979-32.571 0-8.999 9-9.001 23.569 0 32.571 8.981 8.98 23.591 8.98 32.571 0 8.999-9 9-23.569 0-32.571zm-16.287 24.317c-4.438 0-8.03-3.592-8.03-8.031 0-4.467 3.618-8.027 8.031-8.027 4.412 0 8.03 3.56 8.03 8.027.001 4.434-3.591 8.031-8.031 8.031z"/><path d="m157.457 398.005c-4.35 4.35-6.745 10.134-6.745 16.285 0 6.152 2.396 11.936 6.745 16.286 8.979 8.979 23.592 8.98 32.572 0 4.35-4.35 6.745-10.134 6.745-16.286s-2.396-11.936-6.745-16.285c-8.98-8.981-23.591-8.981-32.572 0zm21.965 21.964c-3.131 3.131-8.227 3.131-11.357 0-3.137-3.136-3.141-8.218-.001-11.357h.001c3.138-3.139 8.218-3.14 11.358 0 3.137 3.136 3.139 8.218-.001 11.357z"/></g></svg>