<svg id="Capa_1" enable-background="new 0 0 512 512" height="512" viewBox="0 0 512 512" width="512" xmlns="http://www.w3.org/2000/svg"><g><path d="m90.333 85.156 13.036 117.325c7.315 65.836 62.963 115.644 129.205 115.644h46.851c66.241 0 121.89-49.808 129.205-115.644l13.036-117.325-165.666-15.531z" fill="#9b5e5e"/><path d="m395.781 38.562-139.781 15.532-139.781-15.532 7.239-14.479c5.082-10.163 15.47-16.583 26.833-16.583h211.418c11.363 0 21.751 6.42 26.833 16.584z" fill="#fff3be"/><path d="m275.61 488.969h-39.22c-6.325 0-11.452-5.127-11.452-11.452v-82.267c0-8.284 6.716-15 15-15h32.125c8.284 0 15 6.716 15 15v82.267c-.001 6.324-5.128 11.452-11.453 11.452z" fill="#685e68"/><path d="m224.937 431.312h62.125v31.062h-62.125z" fill="#554e56"/><path d="m424.993 55.219c.987-8.885-5.968-16.656-14.908-16.656h-308.17c-8.94 0-15.896 7.771-14.908 16.656l3.326 29.937h331.333z" fill="#a79ba7"/><path d="m379.88 81.239c-4.388 39.492-10.092 90.831-11.249 101.242-7.315 65.836-62.964 115.644-129.205 115.644h-46.851c-12.903 0-25.404-1.89-37.225-5.42 21.682 16.024 48.454 25.42 77.225 25.42h46.851c66.241 0 121.89-49.808 129.205-115.644l13.036-117.325z" fill="#855151"/><path d="m410.085 38.562h-25.463c-.918 8.259-2.902 26.114-5.177 46.594h42.222l3.326-29.937c.987-8.886-5.968-16.657-14.908-16.657z" fill="#918291"/><circle cx="54.094" cy="473.438" fill="#685e68" r="31.062"/><circle cx="457.906" cy="473.438" fill="#685e68" r="31.062"/><g fill="#cbc4cc"><path d="m183.51 38.562 14.381 388.282h31.084l-14.381-388.282z"/><path d="m77.973 54.094c-11.92 0-21.194 10.361-19.878 22.209l38.949 350.541h31.254l-41.416-372.75z"/><path d="m297.406 38.562-14.381 388.282h31.084l14.381-388.282z"/><path d="m453.904 76.302c1.316-11.847-7.957-22.209-19.878-22.209h-8.908l-41.417 372.75h31.254z"/></g><path d="m488.969 442.375h-465.938v-16.062c0-8.284 6.716-15 15-15h435.938c8.284 0 15 6.716 15 15z" fill="#e2dee2"/><path d="m496.469 442.375v-16.062c0-12.406-10.094-22.5-22.5-22.5h-48.909l24.547-220.926c.457-4.116-2.509-7.825-6.626-8.282-4.118-.453-7.825 2.509-8.282 6.626l-24.731 222.582h-16.162c1.169-10.522 32.282-290.536 38.025-342.219h2.195c3.604 0 6.911 1.479 9.314 4.163 2.403 2.686 3.507 6.136 3.109 9.718l-7.832 70.488c-.457 4.116 2.509 7.825 6.626 8.282 4.104.452 7.825-2.508 8.282-6.626l7.832-70.488c.862-7.765-1.631-15.557-6.841-21.378-5.21-5.82-12.679-9.159-20.491-9.159h-2.551c-3.029-9.299-11.691-15.531-21.391-15.531h-9.668l-5.167-10.333c-6.392-12.787-19.243-20.73-33.539-20.73h-211.418c-14.295 0-27.148 7.943-33.541 20.729l-5.167 10.333h-9.668c-9.696 0-18.361 6.23-21.391 15.531h-2.551c-7.812 0-15.281 3.339-20.491 9.159-5.21 5.821-7.704 13.613-6.841 21.378l36.299 326.682h-48.909c-12.407 0-22.5 10.094-22.5 22.5v16.062c0 4.143 3.358 7.5 7.5 7.5h.556c-5.048 6.521-8.056 14.697-8.056 23.562 0 21.265 17.299 38.564 38.563 38.564s38.562-17.299 38.562-38.562c0-8.866-3.008-17.042-8.056-23.562h18.007c4.142 0 7.5-3.357 7.5-7.5s-3.358-7.5-7.5-7.5h-72.076v-8.562c0-4.136 3.365-7.5 7.5-7.5h435.938c4.136 0 7.5 3.364 7.5 7.5v8.562h-343.862c-4.142 0-7.5 3.357-7.5 7.5s3.358 7.5 7.5 7.5h79.83v27.642c0 10.45 8.502 18.952 18.952 18.952h39.221c10.45 0 18.952-8.502 18.952-18.952v-27.642h132.837c-5.048 6.521-8.056 14.697-8.056 23.562 0 21.264 17.299 38.562 38.562 38.562s38.562-17.299 38.562-38.562c0-8.866-3.008-17.042-8.056-23.562h.556c4.144-.001 7.502-3.358 7.502-7.501zm-442.375 54.625c-12.992 0-23.562-10.57-23.562-23.562 0-10.371 6.736-19.199 16.062-22.339v22.339c0 4.143 3.358 7.5 7.5 7.5s7.5-3.357 7.5-7.5v-22.339c9.327 3.14 16.062 11.967 16.062 22.339 0 12.992-10.57 23.562-23.562 23.562zm324.62-93.188h-56.247l3.191-86.163c28.603-10.207 52.473-29.394 68.622-53.927zm-87.33 0 13.25-357.75h16.072c-7.966 215.073-5.224 141.048-13.25 357.75zm-55.757 0-.529-14.291c1.339-1.131 3.046-1.771 4.84-1.771h32.125c1.795 0 3.502.64 4.84 1.771l-.529 14.291zm-31.083 0-13.251-357.75h16.073l13.25 357.75zm-71.258 0-15.566-140.09c16.149 24.533 40.019 43.719 68.622 53.927l3.191 86.163zm99.445-78.183h46.538l-1.77 47.786c-1.758-.437-3.581-.665-5.437-.665h-32.125c-1.855 0-3.679.228-5.437.665zm47.094-15.001c-.133 0-.266.001-.4.001h-46.85c-.134 0-.267 0-.4-.001l-8.073-217.969h63.795zm8.628-232.969h-64.906l-1.17-31.597h67.247zm112.622 124.902c-5.259 44.272-34.105 81.951-74.814 98.787l7.729-208.689h79.296zm14.599-154c1.441 1.611 2.104 3.682 1.865 5.83l-2.585 23.269h-80.407l1.17-31.597h74.368c2.162-.001 4.146.886 5.589 2.498zm-285.508-21.123c3.836-7.672 11.548-12.438 20.125-12.438h211.418c8.577 0 16.289 4.766 20.125 12.438l1.812 3.624h-255.292zm-33.839 21.123c1.442-1.61 3.427-2.498 5.588-2.498 15.242 0 14.399.003 14.499 0h59.869l1.17 31.597h-36.846c-4.142 0-7.5 3.357-7.5 7.5s3.358 7.5 7.5 7.5h37.402l7.729 208.689c-40.708-16.837-69.555-54.515-74.814-98.787l-12.211-109.903h6.894c4.142 0 7.5-3.357 7.5-7.5s-3.358-7.5-7.5-7.5h-8.561l-2.585-23.269c-.239-2.148.424-4.218 1.866-5.829zm-30.777 26.914c-.398-3.581.707-7.032 3.109-9.718 2.403-2.685 5.711-4.163 9.314-4.163h2.196c7.629 68.659 31.212 280.904 38.025 342.219h-16.162zm214.012 402.042c0 2.18-1.773 3.952-3.952 3.952h-39.22c-2.179 0-3.952-1.772-3.952-3.952v-27.642h47.125v27.642zm178.344 19.483c-12.992 0-23.562-10.57-23.562-23.562 0-10.371 6.736-19.199 16.062-22.339v22.339c0 4.143 3.357 7.5 7.5 7.5s7.5-3.357 7.5-7.5v-22.339c9.327 3.14 16.062 11.967 16.062 22.339.001 12.992-10.57 23.562-23.562 23.562z"/></g></svg>