<svg id="Capa_1" enable-background="new 0 0 511.935 511.935" height="512" viewBox="0 0 511.935 511.935" width="512" xmlns="http://www.w3.org/2000/svg"><g><path d="m255.962 299.883-.002 18.197 21.966 3.767 54.912-54.911.778-26.512-22.743 4.547z" fill="#f3f0f3"/><path d="m212.032 255.953 21.965 21.965 54.912-54.912-1.886-13.645-20.079-8.319z" fill="#f3f0f3"/><path d="m424.919 43.067-157.975 157.975 21.965 21.965 157.975-157.976c6.065-6.065 15.899-6.065 21.965 0 6.065 6.065 6.065 15.899 0 21.965l-157.976 157.975 21.965 21.965 157.975-157.975c18.196-18.196 18.196-47.698 0-65.894-18.196-18.196-47.698-18.196-65.894 0z" fill="#feb237"/><path d="m258.953 82.572-29.401 49.002c-18.93 31.55-41.658 60.659-67.674 86.675l-131.673 131.673c-30.327 30.327-30.327 79.496 0 109.823 30.327 30.327 79.496 30.327 109.823 0l137.898-137.898-21.965-21.965-137.897 137.898c-18.196 18.196-47.698 18.196-65.894 0-18.196-18.196-18.196-47.698 0-65.894l134.054-134.054c24.446-24.446 51.627-45.993 81.006-64.215l50.835-31.53c7.85-4.869 18.019-3.693 24.551 2.839l-40.062-59.814-46.592-26.84c6.454 6.454 7.687 16.473 2.991 24.3z" fill="#ffc344"/><path d="m302.554 85.111-46.592-26.84c6.227 6.227 7.594 15.772 3.465 23.465l8.199 8.199c12.195 12.195 9.838 32.572-4.824 41.653-8.285 5.132-19.633 12.143-35.554 22.018-7.595 4.711-15.042 9.644-22.335 14.792-13.097 17.63-27.478 34.294-43.036 49.852l-131.672 131.672c-30.327 30.327-30.327 79.496 0 109.823 30.327 30.327 79.496 30.327 109.823 0l137.898-137.898-21.965-21.965-137.897 137.898c-18.196 18.196-47.698 18.196-65.894 0-18.196-18.196-18.196-47.698 0-65.894l134.054-134.054c24.446-24.446 51.627-45.993 81.006-64.215l50.835-31.53c7.85-4.869 18.019-3.693 24.551 2.839z" fill="#feb237"/><path d="m365.785 146.13c-6.065 6.065-15.899 6.065-21.965 0l-87.859-87.859c-6.065-6.065-6.065-15.899 0-21.965 6.065-6.065 15.899-6.065 21.965 0l87.859 87.859c6.065 6.066 6.065 15.9 0 21.965z" fill="#ffc344"/><path d="m201.05 310.865-10.982 10.982-21.965-21.965 10.982-10.982c6.065-6.065 15.899-6.065 21.965 0 6.065 6.066 6.065 15.899 0 21.965z" fill="#f3f0f3"/><path d="m496.116 37.764c-21.091-21.092-55.41-21.091-76.5 0l-64.813 64.813-71.573-71.573c-8.98-8.981-23.592-8.98-32.571 0-4.35 4.35-6.746 10.134-6.746 16.286s2.396 11.936 6.746 16.286c4.028 4.028 4.794 10.253 1.864 15.138l-29.401 49.002c-18.598 30.996-40.987 59.672-66.546 85.231l-131.674 131.672c-33.203 33.203-33.203 87.228 0 120.43 16.084 16.084 37.469 24.942 60.215 24.942 22.747 0 44.131-8.858 60.215-24.942l277.167-277.167c2.929-2.929 2.929-7.678 0-10.606-2.929-2.929-7.678-2.929-10.606 0l-79.054 79.054-11.358-11.358 152.67-152.673c8.98-8.98 8.98-23.591 0-32.571-4.35-4.35-10.134-6.746-16.286-6.746s-11.936 2.396-16.285 6.746l-65.835 65.835c-1.109-2.429-2.661-4.704-4.657-6.701l-5.679-5.679 64.813-64.813c15.244-15.242 40.045-15.242 55.288 0 15.243 15.243 15.243 40.044 0 55.288l-48.411 48.411c-2.929 2.929-2.929 7.678 0 10.606 2.929 2.929 7.678 2.929 10.606 0l48.411-48.411c21.092-21.091 21.092-55.41 0-76.5zm-361.391 416.678c-13.251 13.251-30.869 20.548-49.608 20.548s-36.357-7.297-49.608-20.548c-27.354-27.354-27.354-71.862 0-99.217l131.673-131.672c26.426-26.425 49.574-56.074 68.802-88.12l29.401-49.002c1.074-1.79 1.923-3.661 2.552-5.578l1.389 1.389c2.929 2.929 7.678 2.929 10.606 0 2.929-2.929 2.929-7.678 0-10.606l-18.667-18.667c-1.517-1.517-2.353-3.534-2.353-5.679s.835-4.162 2.353-5.679c3.132-3.131 8.227-3.131 11.358 0l87.858 87.858c3.131 3.131 3.131 8.227 0 11.358-3.132 3.13-8.227 3.132-11.358 0l-43.355-43.355c-2.929-2.929-7.678-2.929-10.606 0-2.929 2.929-2.929 7.678 0 10.606l24.867 24.868c-2.037.672-4.023 1.593-5.918 2.768l-50.834 31.53c-29.829 18.501-57.538 40.466-82.356 65.286l-50.793 50.793c-2.929 2.929-2.929 7.678 0 10.606 2.928 2.929 7.677 2.929 10.606 0l27.369-27.369 12.38 12.38c-2.429 1.109-4.704 2.661-6.701 4.657l-10.982 10.982c-1.407 1.406-2.197 3.314-2.197 5.303s.79 3.897 2.197 5.303l21.965 21.964c1.407 1.407 3.314 2.197 5.303 2.197s3.897-.79 5.303-2.197l10.982-10.982c1.97-1.97 3.539-4.233 4.666-6.692l12.371 12.371-72.38 72.38-55.286-55.286 20.022-20.022c2.929-2.929 2.929-7.678 0-10.606-2.929-2.929-7.678-2.929-10.606 0-57.244 57.244-9.463 9.463-58.272 58.272-10.217 10.217-15.844 23.801-15.844 38.25s5.627 28.034 15.844 38.25c21.091 21.092 55.409 21.092 76.5 0l132.595-132.595 11.358 11.358zm132.219-176.148-11.358-11.358 22.34-22.34 11.358 11.358zm-32.947 32.947-22.341-22.34 11.358-11.358 5.679 5.679c2.929 2.929 7.678 2.929 10.606 0l5.679-5.679 11.358 11.358zm0-43.93c-.912-.912-9.904-9.904-11.358-11.358l44.305-44.305 11.358 11.358zm-27.268-16.661c-1.407 1.406-2.197 3.314-2.197 5.303s.79 3.897 2.197 5.303l5.679 5.679-11.358 11.358-22.341-22.34 12.818-12.818c24.005-24.005 50.805-45.25 79.656-63.145l16.341-10.136zm-10.982 43.553c1.517 1.517 2.352 3.534 2.352 5.679s-.835 4.162-2.352 5.678l-5.679 5.679-11.358-11.358 5.679-5.679c3.132-3.129 8.226-3.129 11.358.001zm93.162-81.803-11.358-11.358 54.069-54.069c2.086.535 4.049 1.621 5.67 3.234l1.228 1.228c1.997 1.996 4.271 3.548 6.701 4.656zm-170.845 214.774-12.245-12.245c4.18-8.589 2.708-19.257-4.417-26.381-7.124-7.125-17.793-8.596-26.382-4.417l-12.244-12.244 22.341-22.341 55.287 55.287zm-65.388-44.175 11.739 11.739c-4.18 8.589-2.708 19.257 4.417 26.381 4.49 4.49 10.388 6.735 16.286 6.735 3.46 0 6.92-.773 10.096-2.318l11.739 11.739c-6.4 4.327-13.938 6.653-21.835 6.653-10.442 0-20.26-4.067-27.644-11.451s-11.451-17.201-11.451-27.644c0-7.896 2.326-15.435 6.653-21.834zm32.441 13.803c2.146 0 4.162.835 5.679 2.353s2.353 3.534 2.353 5.679-.835 4.162-2.353 5.679-3.534 2.353-5.679 2.353-4.162-.835-5.679-2.353-2.353-3.534-2.353-5.679.835-4.162 2.353-5.679 3.533-2.353 5.679-2.353zm237.115-129.867-44.305 44.305-11.358-11.358 44.305-44.305zm129.956-196.601c1.517-1.517 3.533-2.352 5.678-2.352 2.146 0 4.162.835 5.679 2.352s2.353 3.534 2.353 5.679-.835 4.162-2.353 5.679l-163.654 163.655-11.358-11.358c19.967-19.968 143.65-143.65 163.655-163.655z"/></g></svg>