<svg id="Capa_1" enable-background="new 0 0 512 512" height="512" viewBox="0 0 512 512" width="512" xmlns="http://www.w3.org/2000/svg"><g><path d="m62.257 471.709 116.868-116.869-21.965-21.965-116.868 116.869c-2.813 2.813-6.628 4.393-10.607 4.393h-11.202c-2.913 0-5.706 1.157-7.766 3.217-4.289 4.289-4.289 11.242 0 15.531l28.398 28.398c4.289 4.289 11.242 4.289 15.531 0 2.06-2.06 3.217-4.853 3.217-7.766v-11.202c0-3.978 1.581-7.793 4.394-10.606z" fill="#cbc4cc"/><path d="m157.161 332.876-64.306 64.306c-16.177 16.201-21.462 39.164-15.855 59.784l102.125-102.126z" fill="#b5adb6"/><path d="m390.129 34.014c6.454 6.454 7.688 16.473 2.992 24.3l-29.401 49.002c-18.93 31.55-41.658 60.659-67.674 86.675l-72.21 72.21-13.126-13.126c-4.882-4.882-12.796-4.882-17.678 0l-4.287 4.287c-4.882 4.882-4.882 12.796 0 17.678-4.882-4.882-12.796-4.882-17.678 0l-4.287 4.287c-4.882 4.882-4.882 12.796 0 17.678-4.882-4.882-12.796-4.882-17.678 0l-4.287 4.287c-4.882 4.882-4.882 12.796 0 17.678l13.126 13.126-45.052 45.052c-24.072 24.072-24.072 63.101 0 87.174 24.072 24.072 63.101 24.072 87.174 0l45.052-45.052 2.828 2.828c4.882 4.882 12.796 4.882 17.678 0l4.287-4.287c4.882-4.882 4.882-12.796 0-17.678 4.882 4.882 12.796 4.882 17.678 0l4.287-4.287c4.882-4.882 4.882-12.796 0-17.678 4.882 4.882 12.796 4.882 17.678 0l4.287-4.287c4.882-4.882 4.882-12.796 0-17.678l-2.828-2.828 65.455-65.455c24.072-24.072 24.072-63.101 0-87.174-7.312-7.312-16.003-12.402-25.236-15.272 15.863-13.163 32.624-25.232 50.17-36.115l50.835-31.53c7.85-4.869 18.019-3.693 24.551 2.839l-40.062-59.814zm-212.03 408.342c-11.942 11.942-31.303 11.942-43.244 0-11.942-11.942-11.942-31.303 0-43.244l45.052-45.052 43.245 43.245zm176.4-219.645c11.942 11.942 11.942 31.303 0 43.244l-65.455 65.455-43.245-43.245 65.455-65.455c11.942-11.941 31.303-11.941 43.245.001z" fill="#ffc344"/><path d="m436.721 60.854-46.592-26.84c6.227 6.227 7.594 15.772 3.465 23.465l9.565 9.565c11.501 11.5 9.131 30.747-4.815 39.115l-34.864 20.918c-7.616 4.57-15.09 9.362-22.413 14.367-13.625 18.629-28.674 36.199-45.023 52.547l-72.21 72.21-13.126-13.125c-4.882-4.882-12.796-4.882-17.678 0l-4.287 4.287c-4.882 4.881-4.882 12.796 0 17.678-4.882-4.881-12.796-4.881-17.678 0l-4.287 4.287c-4.882 4.882-4.882 12.796 0 17.678-4.882-4.882-12.796-4.882-17.678 0l-4.287 4.287c-4.882 4.881-4.882 12.796 0 17.678l13.126 13.126-45.052 45.052c-24.072 24.072-24.072 63.101 0 87.174 24.072 24.072 63.101 24.072 87.174 0l45.052-45.052 2.828 2.828c4.882 4.882 12.796 4.882 17.678 0l4.287-4.287c4.882-4.882 4.882-12.796 0-17.678 4.882 4.881 12.796 4.881 17.678 0l4.287-4.287c4.882-4.881 4.882-12.796 0-17.678 4.882 4.882 12.796 4.882 17.678 0l4.287-4.287c4.882-4.882 4.882-12.796 0-17.678l-2.828-2.828 65.455-65.455c24.072-24.072 24.072-63.101 0-87.174-7.312-7.312-16.003-12.402-25.236-15.272 15.863-13.163 32.624-25.232 50.17-36.115l50.835-31.53c7.85-4.869 18.019-3.693 24.551 2.839zm-258.622 381.502c-11.942 11.942-31.303 11.942-43.244 0-11.942-11.942-11.942-31.303 0-43.244l45.052-45.052 43.245 43.244zm176.4-219.645c11.942 11.942 11.942 31.303 0 43.244l-65.455 65.455-43.245-43.245 65.455-65.455c11.942-11.94 31.303-11.94 43.245.001z" fill="#feb237"/><path d="m499.952 121.872c-6.065 6.065-15.899 6.065-21.965 0l-87.859-87.859c-6.065-6.065-6.065-15.899 0-21.965 6.065-6.065 15.899-6.065 21.965 0l87.859 87.859c6.065 6.066 6.065 15.9 0 21.965z" fill="#ffc344"/><path d="m505.256 94.604-55.867-55.866c-2.929-2.928-7.678-2.928-10.606 0-2.929 2.93-2.929 7.678 0 10.607l55.867 55.865c3.131 3.132 3.131 8.228 0 11.358-3.132 3.133-8.227 3.133-11.358 0l-87.86-87.858c-3.131-3.131-3.131-8.227 0-11.358 1.517-1.517 3.533-2.352 5.678-2.352 2.146 0 4.162.835 5.679 2.353l6.862 6.862c2.929 2.928 7.678 2.928 10.606 0 2.929-2.93 2.929-7.678 0-10.607l-6.862-6.862c-4.348-4.35-10.132-6.746-16.284-6.746s-11.936 2.396-16.285 6.745c-8.967 8.967-8.98 23.549-.039 32.533.013.013.025.026.038.039 4.028 4.028 4.795 10.253 1.864 15.139l-29.401 49.002c-18.599 30.996-40.988 59.672-66.546 85.229l-66.907 66.908-7.822-7.822c-3.777-3.778-8.8-5.858-14.143-5.858-3.819 0-7.475 1.063-10.629 3.05l-11.71-11.71 5.679-5.679c2.929-2.93 2.929-7.678 0-10.607-2.929-2.928-7.678-2.928-10.606 0-22.872 22.872-42.856 42.856-65.894 65.894-2.929 2.93-2.929 7.678 0 10.607 2.93 2.929 7.678 2.928 10.606 0l5.679-5.679 11.714 11.714c-4.842 7.721-3.908 18.056 2.804 24.769l7.822 7.821-39.749 39.749c-.001.001-.002.002-.003.003-.007.006-.013.013-.02.019l-60.682 60.682-.188-.188c-2.928-2.928-7.677-2.928-10.606 0-2.929 2.93-2.929 7.678 0 10.607l.188.188-1.286 1.286c-1.416 1.416-3.299 2.196-5.303 2.196h-11.202c-4.937 0-9.578 1.923-13.069 5.413-7.207 7.207-7.207 18.932 0 26.139l28.397 28.397c3.491 3.49 8.132 5.413 13.069 5.413s9.579-1.923 13.069-5.413c3.491-3.491 5.414-8.133 5.414-13.069v-11.202c0-2.004.78-3.887 2.197-5.303l1.285-1.285.188.188c2.93 2.929 7.678 2.928 10.606 0 2.929-2.93 2.929-7.678 0-10.607l-.187-.187 14.592-14.592c3.346 6.997 7.895 13.448 13.542 19.095 13.059 13.06 30.421 20.252 48.89 20.252 17.917 0 35.448-6.808 48.89-20.251l39.963-39.963c3.333 2.338 7.296 3.597 11.452 3.597 5.343 0 10.365-2.08 14.142-5.857l4.287-4.287c3.253-3.253 5.248-7.43 5.739-11.939 4.509-.491 8.686-2.485 11.939-5.738l4.287-4.286c3.256-3.257 5.251-7.438 5.74-11.951 4.364-.479 8.599-2.389 11.938-5.728l4.286-4.286c6.954-6.954 7.706-17.797 2.259-25.593l60.369-60.368c26.958-26.958 26.958-70.822 0-97.781-4.759-4.759-10.201-8.8-16.093-11.981 12.703-9.95 26.006-19.248 39.677-27.729l1.81-1.123c3.52-2.183 4.604-6.807 2.42-10.326-2.184-3.52-6.808-4.604-10.327-2.42l-1.811 1.123c-17.742 11.004-34.883 23.342-50.951 36.671-.019.015-.037.03-.056.045-10.842 8.997-21.39 18.609-31.35 28.568l-185.536 185.535c-7.192 7.192-11.153 16.755-11.153 26.926s3.961 19.733 11.153 26.927c14.846 14.845 39.002 14.848 53.851 0l39.749-39.749 11.357 11.357-39.748 39.749c-10.226 10.227-23.822 15.858-38.283 15.857-14.462 0-28.058-5.632-38.284-15.858-10.262-10.262-15.857-23.878-15.857-38.282 0-14.462 5.632-28.058 15.857-38.283 5.065-5.065 173.866-173.866 183.156-183.156 26.425-26.425 49.573-56.072 68.802-88.12l29.401-49.002c1.074-1.79 1.923-3.661 2.552-5.578l52.092 52.092c-2.037.672-4.023 1.594-5.917 2.769l-18.804 11.663c-3.52 2.183-4.604 6.807-2.42 10.326 2.176 3.509 6.794 4.61 10.327 2.421l18.804-11.664c4.917-3.047 11.205-2.322 15.295 1.77.123.123-.446-.446 1.205 1.204 8.98 8.979 23.591 8.98 32.572-.001 8.977-8.981 8.977-23.592-.002-32.572zm-218.687 295.938-4.287 4.286c-.945.945-2.2 1.465-3.536 1.465-1.331 0-2.582-.516-3.526-1.455-1.103-1.098 7.022 7.022-62.744-62.743l11.358-11.358c.121.121 62.853 62.854 62.744 62.744.938.943 1.454 2.194 1.454 3.525.001 1.336-.519 2.592-1.463 3.536zm21.963-21.964-4.286 4.286c-1.946 1.946-5.111 1.949-7.062.009-1.104-1.097 7.022 7.022-62.743-62.743l11.358-11.358c112.348 112.349 33.519 33.509 62.733 62.734 1.951 1.95 1.951 5.122 0 7.072zm62.628-162.528c21.109 21.109 21.11 55.457 0 76.566l-60.152 60.152-11.357-11.357 60.152-60.152c14.846-14.847 14.846-39.005 0-53.852-6.018-6.018-13.566-9.596-21.403-10.735 4.704-4.343 9.506-8.589 14.377-12.711 6.885 2.706 13.055 6.76 18.383 12.089zm-54.602 21.965c8.999-8.998 23.641-8.997 32.638 0 8.997 8.998 8.998 23.64 0 32.638l-6.021 6.021-32.638-32.638zm-16.628 16.627 32.638 32.638-43.524 43.524-32.638-32.639zm-127.134 192.411c-8.999 8.999-23.64 8.998-32.638.001-4.359-4.359-6.76-10.155-6.76-16.32 0-6.164 2.401-11.96 6.76-16.318l39.749-39.749.435.436c2.93 2.93 7.678 2.929 10.607.001 2.929-2.929 2.929-7.678 0-10.606l-.436-.436 11.358-11.358c.145.145 62.853 62.853 62.743 62.742.938.944 1.455 2.196 1.455 3.526 0 1.336-.52 2.591-1.464 3.535l-4.288 4.288c-.944.944-2.2 1.464-3.535 1.464s-2.591-.52-3.535-1.464c-8.896-8.897-27.993-27.993-36.887-36.887-2.929-2.928-7.678-2.929-10.606.001-2.929 2.929-2.929 7.678 0 10.606l6.791 6.79zm-115.841 29.351c-4.25 4.249-6.591 9.9-6.591 15.911v11.202c0 .93-.362 1.805-1.021 2.463-.887.887-1.923 1.02-2.462 1.02s-1.575-.133-2.462-1.021l-28.397-28.397c-.888-.887-1.02-1.923-1.02-2.462s.132-1.575 1.02-2.462c.658-.658 1.532-1.021 2.462-1.021h11.202c6.011 0 11.661-2.341 15.91-6.59l1.286-1.286 11.358 11.358zm11.891-11.891-11.358-11.358 30.287-30.287c-.789 7.017-.543 14.417.95 21.766zm136.56-196.134 7.822 7.823-11.358 11.358-7.822-7.822c-.944-.944-1.464-2.2-1.464-3.535 0-1.336.52-2.591 1.465-3.536 1.673-1.673 3.002-3.002 4.286-4.286.944-.945 2.2-1.465 3.536-1.465s2.591.519 3.535 1.463zm-25.5 41.145-7.823-7.823c-.944-.944-1.464-2.199-1.464-3.535 0-1.335.52-2.591 1.464-3.535l4.288-4.287c.944-.944 2.2-1.464 3.535-1.464s2.591.52 3.536 1.465l7.822 7.822zm.728-43.952c-1.601 2.542-2.603 5.41-2.931 8.427-3.017.329-5.884 1.33-8.426 2.931l-11.71-11.71 11.358-11.358zm-33.675 10.255 11.71 11.71c-1.603 2.545-2.605 5.417-2.932 8.438-2.945.323-5.83 1.298-8.422 2.923l-11.714-11.714c3.973-3.972 7.386-7.385 11.358-11.357zm3.16 40.769 4.287-4.287c1.95-1.949 5.122-1.948 7.071 0l7.822 7.823-11.358 11.358-7.822-7.822c-1.949-1.951-1.949-5.123 0-7.072z"/></g></svg>