<svg id="Capa_1" enable-background="new 0 0 512 512" height="512" viewBox="0 0 512 512" width="512" xmlns="http://www.w3.org/2000/svg"><g><path d="m240.469 145.729v56.086h31.062v-56.086c0-3.978 1.58-7.794 4.393-10.607l7.921-7.921c2.06-2.06 3.217-4.853 3.217-7.766 0-6.065-4.917-10.982-10.982-10.982h-40.16c-6.065 0-10.982 4.917-10.982 10.982 0 2.913 1.157 5.706 3.217 7.766l7.921 7.921c2.812 2.813 4.393 6.629 4.393 10.607z" fill="#ffc344"/><path d="m240.469 166.109h31.062v35.705h-31.062z" fill="#feb237"/><path d="m271.532 279.297-15.532-7.766-15.532 7.766v23.297c0 12.866-10.43 23.295-23.295 23.295h-62.128c-12.866 0-23.295-10.43-23.295-23.295 0-12.866 10.43-23.295 23.295-23.295h7.767l15.532-23.299-15.531-7.766h-7.767c-30.022 0-54.359 24.337-54.359 54.359 0 30.022 24.337 54.359 54.359 54.359h62.128c30.021 0 54.359-24.337 54.359-54.358z" fill="#ffc344"/><path d="m271.531 279.296-15.531-7.765-15.532 7.766v20.001h31.063z" fill="#feb237"/><path d="m162.812 248.234h108.719v31.064h-108.719z" fill="#ffe177"/><path d="m473.438 139.516-37.971 16.273c-46.679 20.005-96.935 30.32-147.719 30.32h-171.529c-60.044 0-108.719 48.675-108.719 108.719 0 60.044 48.675 108.719 108.719 108.719h170.844c42.888 0 77.656-34.768 77.656-77.656 0-42.888-34.768-77.656-77.656-77.656h.685c50.785 0 101.041 10.315 147.72 30.321l37.97 16.273 15.531-77.656zm-194.14 139.782c21.444 0 38.827 17.384 38.827 38.827 0 21.444-17.384 38.827-38.827 38.827h-155.314c-30.022 0-54.359-24.338-54.359-54.359 0-30.022 24.338-54.359 54.359-54.359h147.547v31.064z" fill="#ffc344"/><path d="m473.438 139.516-37.456 16.052 4.937 69.959c1.676 23.752-21.684 41.982-43.978 33.62-.492-.185-.983-.382-1.472-.591-46.679-20.005-96.935-30.321-147.72-30.321h-163.765c-30.022 0-54.359 24.337-54.359 54.359 0 29.298 23.179 53.183 52.199 54.317-7.627-9.358-12.199-21.304-12.199-34.317 0-30.022 24.338-54.359 54.359-54.359h163.078c.228 0 .455.001.683.003l.002-.003c50.785 0 101.041 10.315 147.72 30.321l37.97 16.273 15.531-77.656z" fill="#feb237"/><path d="m488.969 325.891c-8.578 0-15.531-6.954-15.531-15.531v-186.376c0-8.578 6.954-15.531 15.531-15.531 8.578 0 15.531 6.954 15.531 15.531v186.375c0 8.578-6.954 15.532-15.531 15.532z" fill="#ffc344"/><path d="m488.969 100.953c-12.699 0-23.031 10.332-23.031 23.031v10.586l-33.425 14.325c-46.008 19.717-94.714 29.714-144.766 29.714h-8.716v-16.062h.266c4.143 0 7.5-3.357 7.5-7.5s-3.357-7.5-7.5-7.5h-.266v-1.818c0-2.003.78-3.887 2.197-5.303l7.921-7.921c3.49-3.491 5.413-8.133 5.413-13.069 0-10.191-8.291-18.482-18.482-18.482h-40.16c-10.191 0-18.482 8.291-18.482 18.482 0 4.937 1.923 9.578 5.413 13.069l7.921 7.921c1.417 1.416 2.197 3.3 2.197 5.303v1.818h-.266c-4.143 0-7.5 3.357-7.5 7.5s3.357 7.5 7.5 7.5h.266v16.062h-21.98c-4.143 0-7.5 3.357-7.5 7.5s3.357 7.5 7.5 7.5h76.759c52.095 0 102.789-10.405 150.674-30.927l27.517-11.793v67.824c0 4.143 3.357 7.5 7.5 7.5s7.5-3.357 7.5-7.5c0-11.854 0-87.82 0-94.729 0-4.429 3.603-8.031 8.031-8.031s8.031 3.603 8.031 8.031v186.375c0 4.429-3.603 8.031-8.031 8.031s-8.031-3.603-8.031-8.031c0-10.952 0-45.283 0-56.646 0-4.143-3.357-7.5-7.5-7.5s-7.5 3.357-7.5 7.5v29.74l-27.517-11.793c-47.884-20.521-98.578-30.927-150.674-30.927h-117.436v-47.125h5.676c4.143 0 7.5-3.357 7.5-7.5s-3.357-7.5-7.5-7.5h-59.77c-64.082.001-116.218 52.137-116.218 116.22s52.136 116.219 116.219 116.219h170.844c46.955 0 85.156-38.201 85.156-85.156 0-26.825-12.47-50.795-31.915-66.415 31.621 4.549 62.478 13.23 92.209 25.973l33.425 14.325v10.586c0 12.699 10.332 23.031 23.031 23.031s23.031-10.332 23.031-23.032v-186.375c0-12.699-10.332-23.031-23.031-23.031zm-247.59 28.865-7.921-7.921c-.648-.647-1.021-1.545-1.021-2.462 0-1.92 1.562-3.482 3.482-3.482h40.16c1.92 0 3.482 1.562 3.482 3.482 0 .917-.372 1.814-1.021 2.462l-7.921 7.921c-4.249 4.25-6.59 9.9-6.59 15.91v1.818h-16.062v-1.818c.002-6.009-2.339-11.66-6.588-15.91zm6.59 32.729h16.062v16.062h-16.062zm-92.657 201.906v31.594h-16.062v-31.594zm-.267-15c-25.838 0-46.859-21.021-46.859-46.859s21.021-46.859 46.859-46.859h.268v16.063h-.268c-16.98 0-30.795 13.815-30.795 30.796s13.814 30.795 30.795 30.795h62.128c16.98 0 30.796-13.814 30.796-30.795v-15.796h16.063v15.797c-.001 25.838-21.021 46.858-46.859 46.858zm-41.718-1.223c-20.721-4.838-36.202-23.463-36.202-45.636s15.481-40.799 36.202-45.636c-12.371 11.318-20.142 27.587-20.142 45.636s7.771 34.318 20.142 45.636zm165.705-45.635v-15.797h.266c17.273 0 31.327 14.054 31.327 31.328 0 17.273-14.054 31.327-31.327 31.327h-21.785c13.169-11.352 21.519-28.148 21.519-46.858zm-15.001-30.797c-12.117 0 3.141 0-30.667 0-4.143 0-7.5 3.357-7.5 7.5 0 4.01 3.146 7.284 7.104 7.49v15.806c0 8.709-7.086 15.795-15.796 15.795h-62.128c-8.709 0-15.795-7.086-15.795-15.795 0-8.71 7.086-15.796 15.795-15.796h43.319c4.143 0 7.5-3.357 7.5-7.5s-3.357-7.5-7.5-7.5h-28.052v-16.063h93.719v16.063zm-108.719-31.064h-16.062v-47.125h16.062zm-140.312 54.094c0-55.812 45.406-101.219 101.219-101.219h8.031v47.125h-.266c-34.109 0-61.859 27.75-61.859 61.859s27.75 61.859 61.859 61.859h.266v31.594h-8.031c-55.813.001-101.219-45.405-101.219-101.218zm342.219 31.063c0 38.685-31.472 70.156-70.156 70.156h-116.75v-31.594h108.985c25.545 0 46.327-20.782 46.327-46.327 0-25.546-20.782-46.328-46.327-46.328h-.267v-16.063h8.031c38.685-.001 70.157 31.471 70.157 70.156z"/></g></svg>