<svg id="Capa_1" enable-background="new 0 0 512 512" height="512" viewBox="0 0 512 512" width="512" xmlns="http://www.w3.org/2000/svg"><g><path d="m489.5 348.624h-467c-8.284 0-15-6.716-15-15v-155.844c0-8.284 6.716-15 15-15h467c8.284 0 15 6.716 15 15v155.844c0 8.284-6.716 15-15 15z" fill="#fe9738"/><path d="m205.308 348.624 185.844-185.844h-43.929l-185.844 185.844z" fill="#fe860a"/><path d="m489.5 162.78h-25v90.844c0 41.421-33.579 75-75 75h-382v5c0 8.284 6.716 15 15 15h467c8.284 0 15-6.716 15-15v-155.844c0-8.285-6.716-15-15-15z" fill="#fe860a"/><path d="m434.609 240.436h-357.218c-12.866 0-23.297-10.43-23.297-23.297 0-12.866 10.43-23.297 23.297-23.297h357.219c12.866 0 23.297 10.43 23.297 23.297-.001 12.867-10.431 23.297-23.298 23.297z" fill="#554e56"/><path d="m77.391 213.842h357.219c9.287 0 17.305 5.435 21.047 13.297 1.442-3.03 2.25-6.421 2.25-10 0-12.866-10.43-23.297-23.297-23.297h-357.219c-12.866 0-23.297 10.43-23.297 23.297 0 3.579.808 6.97 2.25 10 3.742-7.862 11.759-13.297 21.047-13.297z" fill="#433f43"/><path d="m29.465 504.467-21.965-21.964 417.459-417.46h21.965v21.965z" fill="#ffc344"/><path d="m424.959 65.043-10 10 21.965 21.965 10-10v-21.965z" fill="#feb237"/><path d="m490.853 87.008c18.623-18.623 18.186-49.088-1.311-67.156-18.019-16.697-46.761-16.56-64.582 1.262-6.217 6.217-10.309 13.753-12.278 21.707-1.241 5.013.364 10.308 4.015 13.96l38.481 38.481c3.749 3.749 9.198 5.246 14.334 3.931 7.819-2.003 15.22-6.064 21.341-12.185z" fill="#fff3be"/><path d="m489.542 19.852c-4.362-4.042-9.351-7.097-14.663-9.154 14.052 18.271 12.71 44.573-4.026 61.309-6.121 6.121-13.521 10.183-21.341 12.185-1.653.423-3.338.555-4.989.414l10.655 10.655c3.749 3.749 9.198 5.246 14.334 3.931 7.819-2.003 15.219-6.064 21.341-12.185 18.623-18.622 18.186-49.088-1.311-67.155z" fill="#fff0ad"/><path d="m463.585 70.347c2.93 2.929 7.678 2.929 10.607 0s2.929-7.678 0-10.606l-21.965-21.965c-2.93-2.929-7.678-2.929-10.607 0s-2.929 7.678 0 10.606z"/><path d="m489.5 155.28h-100.241l57.666-57.666 2.951 2.951c5.617 5.618 13.86 7.849 21.499 5.894 9.353-2.396 17.922-7.288 24.782-14.147 10.493-10.493 16.116-24.445 15.834-39.285-.282-14.834-6.444-28.569-17.351-38.675-10.186-9.44-23.49-14.524-37.576-14.312-25.417.381-45.968 17.964-51.663 40.981-1.844 7.452.452 15.523 5.992 21.064l2.96 2.96-21.347 21.347c-2.93 2.929-2.93 7.677-.001 10.606 2.928 2.928 7.677 2.93 10.606 0l21.348-21.347 11.358 11.358-406.852 406.852-11.358-11.358 360.093-360.094c2.929-2.929 2.929-7.678 0-10.606-2.93-2.929-7.678-2.929-10.607 0l-43.477 43.477h-301.616c-12.406 0-22.5 10.093-22.5 22.5v155.844c0 12.407 10.094 22.5 22.5 22.5h43.433c4.143 0 7.5-3.358 7.5-7.5s-3.357-7.5-7.5-7.5h-43.433c-4.136 0-7.5-3.364-7.5-7.5v-155.844c0-4.136 3.364-7.5 7.5-7.5h286.616l-16.062 16.062h-215.663c-16.981 0-30.797 13.815-30.797 30.797s13.815 30.797 30.797 30.797h154.069l-93.188 93.188h-37.34c-4.143 0-7.5 3.358-7.5 7.5s3.357 7.5 7.5 7.5h22.34l-121.076 121.076c-1.406 1.406-2.196 3.314-2.196 5.303s.79 3.897 2.196 5.303l21.966 21.964c2.928 2.929 7.677 2.929 10.606 0l153.647-153.647h301.085c12.406 0 22.5-10.093 22.5-22.5v-155.843c0-12.407-10.094-22.5-22.5-22.5zm-69.538-110.656c1.701-6.872 5.263-13.167 10.302-18.206 7.533-7.534 17.604-11.325 27.681-11.325 9.549 0 19.104 3.407 26.5 10.261 7.888 7.31 12.345 17.239 12.549 27.958.203 10.726-3.86 20.81-11.444 28.393-4.959 4.959-11.147 8.494-17.897 10.223-2.555.657-5.302-.1-7.169-1.968-1.157-1.157 6.812 6.812-30.219-30.219-.725-.725 2.815 2.815-8.263-8.262-1.848-1.848-2.629-4.475-2.04-6.855zm-342.571 188.312c-8.71 0-15.797-7.086-15.797-15.797s7.087-15.797 15.797-15.797h200.663l-31.594 31.594zm419.609 100.688c0 4.136-3.364 7.5-7.5 7.5h-286.085l93.188-93.188h88.248c4.143 0 7.5-3.358 7.5-7.5s-3.357-7.5-7.5-7.5h-73.248l31.594-31.594h91.413c8.71 0 15.797 7.086 15.797 15.797s-7.087 15.797-15.797 15.797h-14.759c-4.143 0-7.5 3.358-7.5 7.5s3.357 7.5 7.5 7.5h14.759c16.981 0 30.797-13.815 30.797-30.797s-13.815-30.797-30.797-30.797h-76.413l16.062-16.062h115.241c4.136 0 7.5 3.364 7.5 7.5z"/></g></svg>