<svg id="Capa_1" enable-background="new 0 0 512 512" height="512" viewBox="0 0 512 512" width="512" xmlns="http://www.w3.org/2000/svg"><g><path d="m7.5 162.812h77.656v186.375h-77.656z" fill="#685e68"/><path d="m100.156 395.781h32.125c8.284 0 15-6.716 15-15v-249.562c0-8.284-6.716-15-15-15h-32.125c-8.284 0-15 6.716-15 15v249.562c0 8.285 6.716 15 15 15z" fill="#9b5e5e"/><path d="m162.281 388.016h32.125c8.284 0 15-6.716 15-15v-234.032c0-8.284-6.716-15-15-15h-32.125c-8.284 0-15 6.716-15 15v234.031c0 8.285 6.716 15.001 15 15.001z" fill="#704444"/><path d="m224.406 380.25h32.125c8.284 0 15-6.716 15-15v-218.5c0-8.284-6.716-15-15-15h-32.125c-8.284 0-15 6.716-15 15v218.5c0 8.284 6.716 15 15 15z" fill="#9b5e5e"/><path d="m286.531 372.484h32.125c8.284 0 15-6.716 15-15v-202.968c0-8.284-6.716-15-15-15h-32.125c-8.284 0-15 6.716-15 15v202.969c0 8.284 6.716 14.999 15 14.999z" fill="#704444"/><path d="m348.656 364.719h32.125c8.284 0 15-6.716 15-15v-187.438c0-8.284-6.716-15-15-15h-32.125c-8.284 0-15 6.716-15 15v187.438c0 8.284 6.716 15 15 15z" fill="#9b5e5e"/><path d="m410.781 356.953h32.125c8.284 0 15-6.716 15-15v-171.906c0-8.284-6.716-15-15-15h-32.125c-8.284 0-15 6.716-15 15v171.906c0 8.284 6.716 15 15 15z" fill="#704444"/><path d="m132.281 116.219h-15v224.562c0 18.362-14.14 33.421-32.125 34.883v5.117c0 8.284 6.716 15 15 15h32.125c8.284 0 15-6.716 15-15v-249.562c0-8.285-6.715-15-15-15z" fill="#855151"/><path d="m194.406 123.984h-15v209.031c0 18.362-14.14 33.421-32.125 34.883v5.117c0 8.284 6.716 15 15 15h32.125c8.284 0 15-6.716 15-15v-234.031c0-8.284-6.715-15-15-15z" fill="#593636"/><path d="m256.531 131.75h-15v193.5c0 18.362-14.14 33.421-32.125 34.883v5.117c0 8.284 6.716 15 15 15h32.125c8.284 0 15-6.716 15-15v-218.5c0-8.284-6.715-15-15-15z" fill="#855151"/><path d="m318.656 139.516h-15v177.969c0 18.362-14.14 33.421-32.125 34.883v5.117c0 8.284 6.716 15 15 15h32.125c8.284 0 15-6.716 15-15v-202.969c0-8.285-6.715-15-15-15z" fill="#593636"/><path d="m380.781 147.281h-15v162.438c0 18.362-14.14 33.421-32.125 34.883v5.117c0 8.284 6.716 15 15 15h32.125c8.284 0 15-6.716 15-15v-187.438c0-8.284-6.715-15-15-15z" fill="#855151"/><path d="m442.906 155.047h-15v146.906c0 18.362-14.14 33.421-32.125 34.883v5.117c0 8.284 6.716 15 15 15h32.125c8.284 0 15-6.716 15-15v-171.906c0-8.284-6.715-15-15-15z" fill="#593636"/><path d="m457.906 162.812h46.594v186.375h-46.594z" fill="#685e68" transform="matrix(-1 0 0 -1 962.406 512)"/><path d="m45.156 162.812v131.375c0 19.33-15.67 35-35 35h-2.656v20h77.656v-186.375z" fill="#554e56"/><path d="m474.5 162.812v131.375c0 12.577-6.634 23.604-16.594 29.774v25.226h46.594v-186.375z" fill="#554e56"/><path d="m38.562 54.094h403.813v31.062h-403.813z" fill="#ffc344"/><circle cx="457.906" cy="69.625" fill="#fff3be" r="31.062"/><path d="m69.625 426.844h403.812v31.062h-403.812z" fill="#ffc344" transform="matrix(-1 0 0 -1 543.062 884.75)"/><circle cx="54.094" cy="442.375" fill="#fff3be" r="31.062"/><path d="m457.906 38.562c-1.116 0-2.218.059-3.303.174 2.773 4.649 4.366 10.082 4.366 15.888 0 16.039-12.157 29.239-27.759 30.888 5.42 9.087 15.347 15.174 26.697 15.174 17.155 0 31.062-13.907 31.062-31.062s-13.907-31.062-31.063-31.062z" fill="#fff0ad"/><path d="m54.094 411.312c-1.116 0-2.218.059-3.303.174 2.773 4.649 4.366 10.082 4.366 15.888 0 16.039-12.157 29.239-27.759 30.888 5.42 9.087 15.347 15.174 26.697 15.174 17.155 0 31.062-13.907 31.062-31.062s-13.908-31.062-31.063-31.062z" fill="#fff0ad"/><path d="m504.5 155.312h-44.603c-4.129-4.754-10.215-7.766-16.991-7.766h-32.125c-3.958 0-7.68 1.027-10.915 2.829-3.98-6.358-11.047-10.595-19.085-10.595h-32.125c-3.958 0-7.68 1.027-10.915 2.829-3.98-6.358-11.047-10.595-19.085-10.595h-32.125c-3.958 0-7.68 1.027-10.914 2.829-3.98-6.358-11.047-10.595-19.086-10.595h-32.125c-3.958 0-7.68 1.027-10.914 2.829-3.98-6.358-11.047-10.595-19.086-10.595h-32.125c-3.958 0-7.68 1.027-10.914 2.829-3.98-6.358-11.047-10.595-19.086-10.595h-32.125c-12.407 0-22.5 10.093-22.5 22.5v24.094h-70.156c-4.142 0-7.5 3.358-7.5 7.5v186.375c0 4.142 3.358 7.5 7.5 7.5h70.156v24.094c0 12.407 10.093 22.5 22.5 22.5h32.125c8.038 0 15.105-4.237 19.086-10.595 3.234 1.802 6.957 2.829 10.914 2.829h32.125c8.038 0 15.105-4.237 19.086-10.595 3.234 1.802 6.957 2.829 10.914 2.829h32.125c8.038 0 15.105-4.237 19.086-10.595 3.234 1.802 6.957 2.829 10.914 2.829h32.125c8.038 0 15.105-4.237 19.085-10.595 3.234 1.802 6.957 2.829 10.915 2.829h32.125c8.038 0 15.105-4.237 19.085-10.595 3.234 1.802 6.957 2.829 10.915 2.829h32.125c6.776 0 12.862-3.011 16.991-7.766h44.603c4.143 0 7.5-3.358 7.5-7.5v-186.371c0-4.142-3.357-7.5-7.5-7.5zm-489.5 186.376v-171.376h62.656v171.375h-62.656zm124.781 39.093c0 4.136-3.364 7.5-7.5 7.5h-32.125c-4.136 0-7.5-3.364-7.5-7.5v-249.562c0-4.136 3.364-7.5 7.5-7.5h32.125c4.136 0 7.5 3.364 7.5 7.5zm62.125-7.765c0 4.136-3.364 7.5-7.5 7.5h-32.125c-4.136 0-7.5-3.364-7.5-7.5v-234.032c0-4.136 3.364-7.5 7.5-7.5h32.125c4.136 0 7.5 3.364 7.5 7.5zm62.125-7.766c0 4.136-3.364 7.5-7.5 7.5h-32.125c-4.136 0-7.5-3.364-7.5-7.5v-218.5c0-4.136 3.364-7.5 7.5-7.5h32.125c4.136 0 7.5 3.364 7.5 7.5zm62.125-7.766c0 4.136-3.364 7.5-7.5 7.5h-32.125c-4.136 0-7.5-3.364-7.5-7.5v-202.968c0-4.136 3.364-7.5 7.5-7.5h32.125c4.136 0 7.5 3.364 7.5 7.5zm62.125-7.765c0 4.136-3.364 7.5-7.5 7.5h-32.125c-4.136 0-7.5-3.364-7.5-7.5v-187.438c0-4.136 3.364-7.5 7.5-7.5h32.125c4.136 0 7.5 3.364 7.5 7.5zm108.719-8.031h-31.594v-115.814c0-4.142-3.357-7.5-7.5-7.5s-7.5 3.358-7.5 7.5v116.079c0 4.136-3.364 7.5-7.5 7.5h-32.125c-4.136 0-7.5-3.364-7.5-7.5v-171.906c0-4.136 3.364-7.5 7.5-7.5h32.125c4.136 0 7.5 3.364 7.5 7.5v20.827c0 4.142 3.357 7.5 7.5 7.5s7.5-3.358 7.5-7.5v-20.562h31.594z"/><circle cx="38.537" cy="318.125" r="7.5"/><circle cx="38.537" cy="193.875" r="7.5"/><circle cx="54.094" cy="287.015" r="7.5"/><circle cx="54.094" cy="224.756" r="7.5"/><circle cx="116.219" cy="178.344" r="7.5"/><circle cx="178.728" cy="178.728" r="7.5"/><circle cx="240.469" cy="193.875" r="7.5"/><circle cx="302.594" cy="193.875" r="7.5"/><circle cx="364.719" cy="209.406" r="7.5"/><circle cx="426.844" cy="209.406" r="7.5"/><circle cx="116.219" cy="333.656" r="7.5"/><circle cx="178.728" cy="333.272" r="7.5"/><circle cx="240.469" cy="318.125" r="7.5"/><circle cx="302.594" cy="318.125" r="7.5"/><circle cx="364.719" cy="302.594" r="7.5"/><circle cx="426.844" cy="302.594" r="7.5"/><path d="m38.562 92.656h388.432c7.037 9.421 18.274 15.531 30.911 15.531 21.264 0 38.562-17.299 38.562-38.562s-17.299-38.562-38.562-38.562c-12.637 0-23.874 6.11-30.911 15.531h-342.504c-4.142 0-7.5 3.358-7.5 7.5s3.358 7.5 7.5 7.5h335.696c-1.122 5.275-1.124 10.778 0 16.062h-374.124v-16.062h3.427c4.142 0 7.5-3.358 7.5-7.5s-3.358-7.5-7.5-7.5h-10.927c-4.142 0-7.5 3.358-7.5 7.5v31.062c0 4.142 3.358 7.5 7.5 7.5zm419.344-46.594c12.992 0 23.562 10.57 23.562 23.562s-10.57 23.562-23.562 23.562-23.562-10.57-23.562-23.562 10.57-23.562 23.562-23.562z"/><path d="m473.438 419.344h-388.448c-2.513-2.878-6.849-3.427-10.017-1.154-3.365 2.415-4.135 7.101-1.72 10.466.423.589.816 1.194 1.18 1.813.05.091.102.18.156.269 2.013 3.531 3.067 7.509 3.067 11.637 0 12.992-10.57 23.562-23.562 23.562s-23.562-10.57-23.562-23.562c0-11.398 8.122-21.148 19.312-23.182 4.075-.74 6.778-4.645 6.038-8.72-.741-4.075-4.645-6.781-8.72-6.038-18.328 3.331-31.63 19.287-31.63 37.939 0 21.263 17.299 38.562 38.562 38.562 12.637 0 23.874-6.11 30.911-15.531h388.433c4.143 0 7.5-3.358 7.5-7.5v-31.062c0-4.141-3.358-7.499-7.5-7.499zm-7.5 31.062h-374.124c1.125-5.289 1.118-10.805.007-16.062h374.116v16.062z"/></g></svg>