<svg id="Capa_1" enable-background="new 0 0 512 512" height="512" viewBox="0 0 512 512" width="512" xmlns="http://www.w3.org/2000/svg"><g><path d="m327.696 473.438-18.564-15.531-186.374 15.531v18.562c0 6.904 5.596 12.5 12.5 12.5h192.438c6.904 0 12.5-5.596 12.5-12.5v-6.062c0-6.904-5.597-12.5-12.5-12.5z" fill="#685e68"/><path d="m325.196 7.5h-187.438c-8.284 0-15 6.716-15 15v78.188l108.719 15.531 108.719-15.531v-78.188c0-8.284-6.716-15-15-15z" fill="#685e68"/><path d="m325.196 7.5h-25v22.863c0 27.793-22.531 50.325-50.325 50.325h-127.113v20l108.719 15.531 108.719-15.531v-78.188c0-8.284-6.716-15-15-15z" fill="#554e56"/><path d="m327.722 473.438c37.143-32.167 61.52-86.251 61.52-147.547 0-33.835-7.428-65.473-20.33-92.44-19.289-40.315-28.716-84.64-28.716-129.332v-3.432h-217.438v372.75h204.964z" fill="#9b5e5e"/><path d="m368.911 233.451c-19.289-40.315-28.716-84.64-28.716-129.332v-3.432h-39.565c2.05 39.033 11.38 77.438 28.282 112.764 12.903 26.967 20.33 58.604 20.33 92.44 0 39.033-9.885 75.142-26.657 104.529-15.166 26.573-43.54 43.018-74.137 43.018h-125.69v20h204.964c37.143-32.167 61.52-86.251 61.52-147.547 0-33.836-7.428-65.473-20.331-92.44z" fill="#855151"/><circle cx="247.008" cy="294.828" fill="#685e68" r="62.125"/><path d="m247.008 252.703c30.906 0 56.541 22.569 61.324 52.125.527-3.256.801-6.596.801-10 0-34.311-27.814-62.125-62.125-62.125s-62.125 27.814-62.125 62.125c0 3.404.274 6.744.801 10 4.783-29.556 30.418-52.125 61.324-52.125z" fill="#554e56"/><path d="m341.15 471.152c34.992-35.182 55.592-88.547 55.592-145.261 0-33.79-7.284-66.874-21.064-95.677-18.306-38.259-27.981-81.861-27.981-126.095v-81.619c0-12.407-10.093-22.5-22.5-22.5h-187.439c-12.407 0-22.5 10.093-22.5 22.5v28.343c0 4.142 3.358 7.5 7.5 7.5s7.5-3.358 7.5-7.5v-28.343c0-4.136 3.364-7.5 7.5-7.5h187.438c4.136 0 7.5 3.364 7.5 7.5v70.688h-202.438v-7.345c0-4.143-3.358-7.5-7.5-7.5s-7.5 3.357-7.5 7.5v323.553c0 4.143 3.358 7.5 7.5 7.5s7.5-3.357 7.5-7.5v-301.208h16.062v357.75h-16.062v-21.542c0-4.143-3.358-7.5-7.5-7.5s-7.5 3.357-7.5 7.5v47.604c0 11.028 8.972 20 20 20h192.438c11.028 0 20-8.972 20-20v-6.062c0-5.853-2.527-11.125-6.546-14.786zm20.996-234.464c12.82 26.793 19.596 57.639 19.596 89.202 0 55.811-21.207 107.919-56.858 140.047h-8.25v-224.412c0-4.143-3.358-7.5-7.5-7.5s-7.5 3.357-7.5 7.5v10.177c-4.54-5.738-9.963-10.748-16.062-14.82v-128.694h16.062v98.338c0 4.143 3.358 7.5 7.5 7.5s7.5-3.357 7.5-7.5v-98.338h16.088c.576 45.065 10.72 89.408 29.424 128.5zm-76.575 229.25v-113.164c6.099-4.073 11.523-9.082 16.062-14.82v127.984zm-31.063 0v-101.886c5.576-.6 10.957-1.861 16.062-3.702v105.588zm-31.062 0v-105.589c5.106 1.842 10.487 3.103 16.062 3.702v101.886h-16.062zm-31.063 0v-127.985c4.54 5.738 9.963 10.748 16.062 14.82v113.164h-16.062zm78.188-121.833c-4.984 2.393-10.386 4.052-16.062 4.834v-108.223c5.677.783 11.078 2.441 16.062 4.834zm15-87.929c9.918 9.895 16.062 23.57 16.062 38.652s-6.145 28.758-16.062 38.652zm-46.063 92.764c-5.677-.783-11.078-2.441-16.062-4.834v-98.555c4.984-2.393 10.386-4.052 16.062-4.834zm15-123.336v-117.416h16.062v121.119c-5.105-1.842-10.486-3.103-16.062-3.703zm-15 0c-5.576.6-10.957 1.861-16.062 3.702v-121.118h16.062zm-31.062 11.279c-6.099 4.073-11.523 9.082-16.062 14.82v-143.515h16.062zm0 19.293v77.305c-9.918-9.895-16.062-23.57-16.062-38.652s6.144-28.758 16.062-38.653zm-47.125-147.988h16.062v357.75h-16.062zm171.375 383.812c0 2.757-2.243 5-5 5h-192.438c-2.757 0-5-2.243-5-5v-11.062h197.438c2.757 0 5 2.243 5 5z"/><circle cx="153.833" cy="39.408" r="7.5"/><circle cx="153.833" cy="69.625" r="7.5"/><circle cx="184.883" cy="39.408" r="7.5"/><circle cx="184.883" cy="69.625" r="7.5"/><circle cx="215.934" cy="39.408" r="7.5"/><circle cx="215.934" cy="69.625" r="7.5"/><circle cx="246.984" cy="39.408" r="7.5"/><circle cx="246.984" cy="69.625" r="7.5"/><circle cx="278.034" cy="39.408" r="7.5"/><circle cx="278.034" cy="69.625" r="7.5"/><circle cx="309.085" cy="39.408" r="7.5"/><circle cx="309.085" cy="69.625" r="7.5"/></g></svg>