<svg id="Capa_1" enable-background="new 0 0 512 512" viewBox="0 0 512 512" xmlns="http://www.w3.org/2000/svg"><g><path d="m316.333 137.935c25.372 0 50.042-19.62 50.042-44.992 0-8.54-10.749-30.302-17.655-42.678-6.474-9.851-12.933-18.679-17.32-24.487-2.766-3.661-8.254-3.661-11.02 0-12.202 16.153-40.431 55.674-40.431 75.563 0 4.991.796 9.796 2.268 14.295 8.329 8.425 21.334 22.299 34.116 22.299z" fill="#62dbfb"/><path d="m406.844 193.875h-176.907c-2.761 0-5 2.239-5 5v57.125l194.779 22.297z" fill="#dff6fd"/><path d="m421.844 193.875h-15v62.125l10 15.849 10-15.849v-57.125c0-2.761-2.239-5-5-5z" fill="#99e6fc"/><path d="m419.462 460.509-12.618-204.509h-181.907v217.438l166.906 15.531c8.285 0 27.619-20.176 27.619-28.46z" fill="#62dbfb"/><path d="m406.844 458.438c0 8.284-6.716 15-15 15l17.5 13.091 17.5-13.091v-217.438h-20z" fill="#01d0fb"/><path d="m224.937 473.438v16.062c0 8.284 6.716 15 15 15h171.906c8.284 0 15-6.716 15-15v-16.062z" fill="#99e6fc"/><path d="m348.721 50.265c6.906 12.375 12.111 24.535 12.111 33.076 0 25.372-20.568 45.941-45.941 45.941-12.782 0-24.345-5.221-32.673-13.646 6.01 18.373 23.291 31.646 43.673 31.646 25.373 0 45.941-20.568 45.941-45.941 0-12.739-11.58-33.529-23.111-51.076z" fill="#01d0fb"/><g fill="#ffe177"><path d="m254.956 141.339c-8.482 4.876-15.543 11.938-20.42 20.429-.8 1.393-2.834 1.393-3.635 0-4.877-8.491-11.938-15.552-20.42-20.429-1.391-.8-1.392-2.831-.002-3.633 8.483-4.888 15.545-11.959 20.422-20.444.8-1.392 2.833-1.392 3.634 0 4.877 8.485 11.939 15.556 20.422 20.444 1.391.802 1.39 2.833-.001 3.633z"/><path d="m270.129 40.994c-11.31 6.502-20.724 15.917-27.227 27.238-1.067 1.857-3.779 1.857-4.846 0-6.503-11.321-15.917-20.736-27.227-27.238-1.855-1.066-1.856-3.775-.002-4.843 11.311-6.517 20.727-15.945 27.23-27.258 1.067-1.856 3.778-1.856 4.845 0 6.503 11.313 15.919 20.741 27.23 27.258 1.853 1.068 1.852 3.776-.003 4.843z"/><path d="m425.8 32.62c-8.482 4.876-15.543 11.938-20.42 20.429-.8 1.393-2.834 1.393-3.634 0-4.877-8.491-11.938-15.552-20.42-20.429-1.391-.8-1.392-2.831-.002-3.633 8.483-4.888 15.545-11.959 20.422-20.444.8-1.392 2.833-1.392 3.634 0 4.877 8.485 11.939 15.556 20.422 20.444 1.39.802 1.389 2.834-.002 3.633z"/></g><path d="m426.827 363.695c-.396-11.841-10.511-21.053-22.359-21.053h-30.486c12.287 0 22.2-10.166 21.787-22.546-.396-11.841-10.51-21.053-22.358-21.053h-136.128c-6.818 0-12.346-5.527-12.346-12.345v-53.18l-59.688 59.688s-6.482 7.002-14.369 15.521c-10.409 11.244-25.041 17.639-40.363 17.639h-20.361c-2.761 0-5 2.239-5 5v98.24l26.107 8.446c1.304-.109 10.811-.238 12.119-.238 11.052 0 19.036 5.091 27.327 12.149 12.121 10.318 28.488 11.376 44.436 11.376l141.98 6.119c1.28 0 11.202-13.243 11.228-14.022l-6.912-23.599h31.97c11.848 0 21.963-9.212 22.358-21.053.413-12.38-9.5-22.546-21.787-22.546h31.058c12.288.003 22.201-10.163 21.787-22.543z" fill="#ffe5c2"/><path d="m339.071 453.438h-141.123c-15.948 0-31.405-5.682-43.526-16-8.291-7.058-18.944-10.945-29.997-10.945-1.308 0-2.632.055-3.936.164l-35.333 2.951v14.635c0 2.926 2.501 5.226 5.416 4.983l31.583-2.638c6.983-.583 13.967 1.538 19.303 6.08 15.217 12.954 34.94 20.771 56.49 20.771h141.123c11.848 0 21.963-9.211 22.359-21.052.393-11.77-8.548-21.539-19.989-22.473v21.804c-.026.778-1.089 1.72-2.37 1.72z" fill="#fed2a4"/><path d="m421.844 186.375h-61.194c-4.143 0-7.5 3.358-7.5 7.5s3.357 7.5 7.5 7.5h58.694v47.125h-186.907v-47.125h93.212c4.143 0 7.5-3.358 7.5-7.5s-3.357-7.5-7.5-7.5h-95.712c-6.893 0-12.5 5.607-12.5 12.5v31.538l-57.491 57.491c-.187.187 1.069-1.159-14.569 15.729-8.963 9.682-21.669 15.234-34.859 15.234h-20.362c-6.893 0-12.5 5.607-12.5 12.5v28.201c0 4.142 3.358 7.5 7.5 7.5s7.5-3.358 7.5-7.5v-25.701h17.861c17.356 0 34.074-7.306 45.867-20.044l14.271-15.415 46.782-46.782v35.073c0 10.943 8.903 19.846 19.846 19.846h136.128c7.94 0 14.607 6.192 14.861 13.803.132 3.919-1.293 7.625-4.01 10.435-2.72 2.812-6.37 4.36-10.28 4.36-.013 0-81.442 0-81.442 0-4.143 0-7.5 3.358-7.5 7.5s3.357 7.5 7.5 7.5h111.929c7.941 0 14.608 6.192 14.862 13.803.131 3.92-1.294 7.627-4.011 10.437-2.72 2.811-6.37 4.359-10.279 4.359h-111.979c-4.143 0-7.5 3.358-7.5 7.5s3.357 7.5 7.5 7.5h80.92c3.91 0 7.561 1.548 10.28 4.36 2.717 2.81 4.142 6.516 4.01 10.436-.254 7.611-6.921 13.803-14.861 13.803h-80.871c-4.143 0-7.5 3.358-7.5 7.5s3.358 7.5 7.5 7.5h47.103c3.91 0 7.562 1.549 10.281 4.36 2.717 2.81 4.142 6.516 4.01 10.435-.255 7.611-6.922 13.803-14.862 13.803h-141.124c-18.914 0-37.25-6.741-51.628-18.982-6.74-5.737-15.772-8.593-24.789-7.843l-28.875 2.412v-46.957c0-4.142-3.358-7.5-7.5-7.5s-7.5 3.358-7.5 7.5v49.674c0 3.486 1.472 6.84 4.038 9.2s6.029 3.549 9.503 3.257l31.583-2.638c5.062-.422 10.097 1.15 13.816 4.316 17.09 14.548 38.878 22.56 61.352 22.56h19.489v8.562c0 12.407 10.093 22.5 22.5 22.5h171.906c12.406 0 22.5-10.093 22.5-22.5v-290.625c.001-6.893-5.607-12.5-12.499-12.5zm-17.375 148.767h-4.896c2.587-4.608 3.873-9.853 3.691-15.296-.521-15.606-13.914-28.302-29.854-28.302h-136.127c-2.672 0-4.846-2.174-4.846-4.846v-23.198h186.906v75.606c-4.403-2.517-9.493-3.964-14.874-3.964zm-39.236 102.197h8.178c15.939 0 29.332-12.696 29.854-28.302.182-5.443-1.104-10.688-3.692-15.296h5.469c5.102 0 9.988-1.287 14.303-3.709v75.906h-54.26c2.3-3.968 3.681-8.497 3.842-13.302.18-5.444-1.106-10.688-3.694-15.297zm46.611 59.661h-171.907c-4.136 0-7.5-3.364-7.5-7.5v-8.562h186.906v8.562c.001 4.136-3.364 7.5-7.499 7.5z"/><path d="m325.891 154.781c29.468 0 53.441-23.974 53.441-53.441 0-21.364-26.281-59.345-41.947-80.083-2.748-3.639-6.938-5.726-11.494-5.726s-8.746 2.087-11.494 5.725c-3.41 4.514-8.632 11.598-14.143 19.71-2.327 3.426-1.437 8.091 1.989 10.418 3.427 2.327 8.09 1.437 10.419-1.99 5.086-7.487 9.923-14.077 13.229-18.468 23.727 31.508 38.441 58.449 38.441 70.413 0 21.196-17.245 38.441-38.441 38.441s-38.441-17.245-38.441-38.441c0-3.485 1.312-10.245 7.561-22.653 1.863-3.7.375-8.209-3.325-10.072-3.698-1.863-8.208-.375-10.072 3.325-6.166 12.244-9.163 21.861-9.163 29.4-.001 29.469 23.972 53.442 53.44 53.442z"/><path d="m206.743 147.841c7.335 4.217 13.44 10.325 17.655 17.662 1.704 2.966 4.893 4.809 8.321 4.809s6.617-1.843 8.321-4.81c4.214-7.337 10.319-13.444 17.655-17.662.001 0 .001 0 .002-.001 2.962-1.704 4.803-4.89 4.804-8.314.001-3.425-1.837-6.612-4.798-8.318-7.336-4.227-13.444-10.341-17.664-17.682-1.704-2.965-4.892-4.808-8.319-4.808s-6.615 1.842-8.319 4.807c-4.22 7.341-10.328 13.456-17.664 17.683-2.961 1.706-4.8 4.894-4.798 8.318s1.84 6.612 4.804 8.316zm25.975-19.825c3.318 4.312 7.184 8.181 11.493 11.502-4.311 3.318-8.175 7.184-11.493 11.495-3.317-4.31-7.183-8.177-11.492-11.495 4.309-3.321 8.174-7.189 11.492-11.502z"/><path d="m207.091 47.496c10.163 5.843 18.622 14.305 24.462 24.472 1.827 3.182 5.248 5.158 8.926 5.158s7.099-1.976 8.926-5.158c5.84-10.167 14.298-18.629 24.461-24.472 3.177-1.827 5.152-5.244 5.154-8.919s-1.97-7.095-5.146-8.925c-10.163-5.855-18.625-14.327-24.472-24.496-1.825-3.18-5.245-5.156-8.923-5.156-3.677 0-7.097 1.976-8.925 5.155-5.846 10.17-14.308 18.641-24.472 24.497-3.176 1.83-5.147 5.25-5.146 8.925.002 3.675 1.978 7.092 5.155 8.919zm33.388-28.477c5.35 7.575 11.962 14.193 19.531 19.549-7.572 5.349-14.183 11.963-19.531 19.536-5.348-7.573-11.959-14.187-19.531-19.536 7.57-5.357 14.181-11.975 19.531-19.549z"/><path d="m377.586 39.123c7.336 4.218 13.441 10.325 17.655 17.661 1.703 2.967 4.892 4.811 8.32 4.811 3.43 0 6.618-1.843 8.32-4.809 4.216-7.338 10.321-13.446 17.656-17.663h.001c2.962-1.704 4.804-4.89 4.805-8.314.002-3.425-1.837-6.612-4.798-8.318-7.336-4.227-13.444-10.341-17.663-17.68-1.703-2.965-4.891-4.808-8.318-4.809-.001 0-.001 0-.002 0-3.427 0-6.614 1.841-8.319 4.807-4.221 7.341-10.329 13.456-17.664 17.683-2.961 1.706-4.799 4.893-4.798 8.317 0 3.422 1.841 6.608 4.805 8.314zm25.976-19.826c3.318 4.312 7.183 8.181 11.492 11.502-4.309 3.317-8.175 7.184-11.492 11.495-3.317-4.311-7.184-8.177-11.493-11.495 4.31-3.321 8.175-7.19 11.493-11.502z"/></g><g/><g/><g/><g/><g/><g/><g/><g/><g/><g/><g/><g/><g/><g/><g/></svg>