<svg id="Capa_1" enable-background="new 0 0 512 512" viewBox="0 0 512 512" xmlns="http://www.w3.org/2000/svg"><g><path d="m461.512 160.858c-4.322-57.037-50.927-102.966-108.016-106.532-35.81-2.237-68.386 11.818-91.039 35.457-3.552 3.707-9.36 3.707-12.913 0-22.654-23.64-55.229-37.695-91.039-35.457-57.09 3.567-103.694 49.495-108.016 106.532-2.919 38.523 13.027 73.442 39.562 96.487h-.003l154.45 134.138c6.598 5.73 16.408 5.73 23.006 0l154.45-134.138h-.003c26.534-23.045 42.48-57.964 39.561-96.487z" fill="#fe646f"/><path d="m180.412 329.598c0-5.588-7.713-12.694-9.83-17.5-4.806-2.117-10.119-3.293-15.707-3.293h-108.375c-21.539 0-39 17.461-39 39v46.709l175.764 9.433z" fill="#ffe177"/><path d="m170.582 312.098c2.117 4.806 3.293 10.119 3.293 15.707v66.709h-166.375v15c0 2.761 2.239 5 5 5h181.375v-66.709c0-15.95-9.576-29.664-23.293-35.707z" fill="#ffc344"/><path d="m131.38 238.249 3.883-44.375c0-22.3-23.649-40.941-44.576-45.518-20.927 4.576-36.594 23.217-36.594 45.518v37.275c0 22.3 15.666 40.941 36.594 45.518 20.928-4.577 40.693-16.118 40.693-38.418z" fill="#ffe177"/><path d="m100.687 147.28c-3.433 0-6.779.371-10 1.076 20.927 4.576 36.594 23.217 36.594 45.518v37.275c0 22.3-15.666 40.941-36.594 45.518 3.221.704 6.567 1.076 10 1.076 25.733 0 46.594-20.861 46.594-46.594v-37.275c0-25.733-20.86-46.594-46.594-46.594z" fill="#ffc344"/><path d="m497.402 395.78-6.178-66.182c0-5.588-7.9-12.694-10.017-17.5-4.806-2.117-10.119-3.293-15.707-3.293h-108.375c-21.539 0-39 17.461-39 39v46.709l157.891 9.433c2.762.001 21.386-5.405 21.386-8.167z" fill="#e8ad8c"/><path d="m481.207 312.098c2.117 4.806 3.293 10.119 3.293 15.707v61.709c0 2.761-2.239 5-5 5h-161.375v20h181.375c2.761 0 5-2.239 5-5v-61.709c0-15.95-9.576-29.664-23.293-35.707z" fill="#e19974"/><path d="m447.501 240.468v-47.53c0-22.3-25.262-40.005-46.189-44.581-20.927 4.577-36.594 23.217-36.594 45.518v37.275c0 22.3 15.667 40.941 36.594 45.518 20.928-4.578 46.189-13.9 46.189-36.2z" fill="#e8ad8c"/><path d="m411.312 147.28c-3.433 0-6.779.371-10 1.076 20.927 4.577 36.594 23.217 36.594 45.518v37.275c0 22.3-15.667 40.941-36.594 45.518 3.221.704 6.567 1.076 10 1.076 25.733 0 46.594-20.861 46.594-46.594v-37.275c0-25.733-20.86-46.594-46.594-46.594z" fill="#e19974"/><path d="m353.64 434.126-4.515-78.167c0-7.409-6.178-14.405-9.32-20.587-6.182-3.142-13.177-4.913-20.587-4.913h-126.437c-25.129 0-45.5 20.371-45.5 45.5v61.946l192.438 9.527c2.761.001 13.921-10.545 13.921-13.306z" fill="#5f99d7"/><path d="m339.805 335.372c3.142 6.182 4.913 13.177 4.913 20.587v76.946c0 2.761-2.239 5-5 5h-192.437v10c0 5.523 4.477 10 10 10h197.438c5.523 0 10-4.477 10-10v-71.946c0-17.72-10.13-33.073-24.914-40.587z" fill="#3c87d0"/><path d="m299.035 253.783v-53.505c0-26.606-27.79-43.738-53.035-48.433-25.245 4.694-44.359 26.836-44.359 53.441v43.487c0 26.606 19.114 48.747 44.359 53.441 25.245-4.693 53.035-21.825 53.035-48.431z" fill="#5f99d7"/><path d="m256 150.927c-3.416 0-6.759.315-10 .918 25.245 4.694 44.359 26.836 44.359 53.441v43.487c0 26.606-19.114 48.747-44.359 53.441 3.241.603 6.584.918 10 .918 30.022 0 54.359-24.338 54.359-54.359v-43.487c0-30.021-24.337-54.359-54.359-54.359z" fill="#3c87d0"/><path d="m106.002 203.68c-4.142 0-7.5 3.358-7.5 7.5v12.97h-3.129c-4.142 0-7.5 3.358-7.5 7.5s3.358 7.5 7.5 7.5h3.472c8.082 0 14.657-6.575 14.657-14.657v-13.313c0-4.142-3.358-7.5-7.5-7.5z"/><path d="m424.127 224.493v-13.313c0-4.142-3.357-7.5-7.5-7.5s-7.5 3.358-7.5 7.5v12.97h-3.129c-4.143 0-7.5 3.358-7.5 7.5s3.357 7.5 7.5 7.5h3.472c8.082 0 14.657-6.575 14.657-14.657z"/><path d="m249.8 256.859h4.05c8.74 0 15.851-7.11 15.851-15.85v-15.531c0-4.142-3.358-7.5-7.5-7.5s-7.5 3.358-7.5 7.5v15.531c0 .469-.381.85-.851.85h-4.05c-4.142 0-7.5 3.358-7.5 7.5s3.358 7.5 7.5 7.5z"/><path d="m318.859 248.774v-43.487c0-34.661-28.198-62.859-62.859-62.859s-62.859 28.199-62.859 62.859v43.487c0 34.661 28.199 62.859 62.859 62.859 34.661 0 62.859-28.198 62.859-62.859zm-62.859-90.347c25.838 0 46.859 21.021 46.859 46.859v43.487c0 25.838-21.021 46.859-46.859 46.859s-46.859-21.021-46.859-46.859v-43.487c0-25.838 21.021-46.859 46.859-46.859z"/><path d="m465.5 301.305h-25.712c-4.143 0-7.5 3.358-7.5 7.5s3.357 7.5 7.5 7.5h25.712c17.369 0 31.5 14.131 31.5 31.5v59.209h-31.594v-41.756c0-4.142-3.357-7.5-7.5-7.5s-7.5 3.358-7.5 7.5v41.756h-78.188v-31.056c0-23.725-15.669-43.858-37.202-50.596 5.804-5.727 13.691-9.058 22.108-9.058h47.663c4.143 0 7.5-3.358 7.5-7.5s-3.357-7.5-7.5-7.5h-22.014l19.386-16.837c2.976.509 6.034.775 9.152.775 29.827 0 54.094-24.266 54.094-54.094v-31.458c.362-.629.638-1.32.81-2.064 2.797-12.16 3.73-24.722 2.774-37.336-4.611-60.867-54.062-109.641-115.025-113.45-36.425-2.286-71.75 11.485-96.922 37.753-.372.388-.772.47-1.042.47s-.67-.082-1.042-.469c-25.173-26.269-60.508-40.033-96.922-37.754-14.239.89-28.105 4.252-41.213 9.992-3.794 1.662-5.523 6.084-3.861 9.879 1.662 3.794 6.084 5.522 9.879 3.861 11.494-5.034 23.65-7.981 36.131-8.762 32.004-2.002 63.045 10.087 85.157 33.161 3.146 3.283 7.362 5.091 11.871 5.091 4.509 0 8.725-1.808 11.872-5.091 22.112-23.074 53.152-35.156 85.157-33.161 53.272 3.328 96.533 45.755 100.943 98.837-9.908-12.692-25.347-20.867-42.659-20.867-29.827 0-54.094 24.266-54.094 54.094v37.275c0 20.599 11.574 38.546 28.56 47.679l-25.881 22.477h-2.773c-16.063 0-30.811 8.211-39.305 21.654h-123.641c-8.493-13.443-23.242-21.654-39.304-21.654h-2.772l-25.881-22.477c16.986-9.133 28.559-27.08 28.559-47.679v-37.275c0-29.828-24.266-54.094-54.094-54.094-17.312 0-32.751 8.175-42.659 20.867 2.329-28.051 15.486-53.787 37.107-72.541 3.129-2.714 3.465-7.451.751-10.58-2.713-3.128-7.449-3.465-10.58-.751-24.826 21.535-39.847 51.195-42.296 83.516-.956 12.612-.022 25.174 2.775 37.336.171.744.447 1.435.809 2.064v31.458c0 29.828 24.266 54.094 54.094 54.094 3.119 0 6.177-.266 9.152-.775l19.387 16.837h-82.727c-25.64 0-46.5 20.86-46.5 46.5v61.709c0 6.893 5.607 12.5 12.5 12.5h127.281v25.891c0 9.649 7.851 17.5 17.5 17.5h58.735c4.142 0 7.5-3.358 7.5-7.5s-3.358-7.5-7.5-7.5h-14.641v-54.084c0-4.142-3.358-7.5-7.5-7.5s-7.5 3.358-7.5 7.5v54.084h-29.094c-1.378 0-2.5-1.122-2.5-2.5v-71.946c0-20.953 17.047-38 38-38h126.438c20.953 0 38 17.047 38 38v71.946c0 1.378-1.121 2.5-2.5 2.5h-29.094v-54.084c0-4.142-3.357-7.5-7.5-7.5s-7.5 3.358-7.5 7.5v54.084h-60.609c-4.142 0-7.5 3.358-7.5 7.5s3.358 7.5 7.5 7.5h104.703c9.649 0 17.5-7.851 17.5-17.5v-25.891h127.281c6.893 0 12.5-5.607 12.5-12.5v-61.709c0-25.64-20.859-46.5-46.5-46.5zm-93.281-70.156v-37.275c0-21.556 17.537-39.094 39.094-39.094s39.094 17.538 39.094 39.094v37.275c0 21.556-17.537 39.094-39.094 39.094s-39.094-17.538-39.094-39.094zm-310.625 0v-37.275c0-21.556 17.538-39.094 39.094-39.094s39.094 17.538 39.094 39.094v37.275c0 21.556-17.538 39.094-39.094 39.094-21.557 0-39.094-17.538-39.094-39.094zm78.187 144.81v31.056h-78.187v-41.756c0-4.142-3.358-7.5-7.5-7.5s-7.5 3.358-7.5 7.5v41.756h-31.594v-59.209c0-17.369 14.131-31.5 31.5-31.5h108.375c8.418 0 16.304 3.331 22.108 9.058-21.533 6.737-37.202 26.871-37.202 50.595z"/></g><g/><g/><g/><g/><g/><g/><g/><g/><g/><g/><g/><g/><g/><g/><g/></svg>