<svg id="Capa_1" enable-background="new 0 0 512 512" viewBox="0 0 512 512" xmlns="http://www.w3.org/2000/svg"><g><path d="m118.567 454.862 37.545-27.089c3.726 8.098 5.585-6.913 7.129-6.107l7.129 8.232c9.463 4.947 15.022 7.04 25.188 10.231l10.931 4.277c1.661.521 1.954 4.014 2.376 5.703l9.505 37.069c.556 2.226 6.26 9.03 8.554 9.03l60.356-3.796c2.294 0 8.949-5.687 9.505-7.913l13.307-39.618c.422-1.689.24-3.281 1.901-3.802l6.178-4.752c10.166-3.191 13.824-4.083 23.287-9.03l5.228-2.376c1.543-.807 6.586 1.005 8.079 1.901l37.069 21.861c1.968 1.18 6.932 1.622 8.554 0l40.871-40.396c1.622-1.622 8.784-12.29 7.604-14.257l-21.861-39.578c-.896-1.494-2.233-3.722-1.426-5.266l1.901-2.46c4.946-9.462 7.739-21.897 10.931-32.063l4.581-9.253c.521-1.661 2.76 1.595 4.449 1.173l33.743-9.03c2.226-.556 16.158-2.933 16.158-5.228l-12.84-87.921-35.832-8.958c-3.586-11.423-8.16-22.408-13.622-32.856l23.591-39.319c3.541-5.902 2.611-13.457-2.256-18.324l-49.331-49.331c-4.867-4.867-12.422-5.797-18.324-2.256l-39.319 23.591c-10.448-5.462-21.433-10.036-32.856-13.622l-11.117-44.47c-1.668-6.675-7.668-11.359-14.551-11.359h-69.764c-6.883 0-12.883 4.684-14.552 11.362l-11.117 44.47c-11.423 3.586-22.408 8.16-32.856 13.622l-39.319-23.591c-5.902-3.541-13.457-2.611-18.324 2.256l-49.331 49.331c-4.867 4.867-5.797 12.422-2.256 18.324l23.591 39.319c-5.462 10.448-10.036 21.433-13.622 32.856l-44.47 11.117c-6.678 1.669-11.362 7.669-11.362 14.552v69.764c0 6.883 4.684 12.883 11.362 14.552l44.47 11.117c3.586 11.423 8.16 22.408 13.622 32.856l-19.01 31.684 42.089 61.889c1.622 1.624 16.567 13.063 18.534 11.882zm137.433-307.581c60.044 0 108.719 48.675 108.719 108.719s-48.675 108.719-108.719 108.719-108.719-48.675-108.719-108.719 48.675-108.719 108.719-108.719z" fill="#5f99d7"/><path d="m493.138 206.566-8.638-2.159v78.668c0 2.294-1.562 4.294-3.787 4.851l-45.051 11.263c-1.689.422-3.036 1.692-3.558 3.353l-2.518 8.021c-3.191 10.166-7.317 20.119-12.264 29.581l-3.897 7.454c-.807 1.543-.753 3.396.144 4.889l23.901 39.836c1.18 1.967.87 4.486-.752 6.108l-38.289 38.289c-1.622 1.622-4.141 1.932-6.108.752l-39.836-23.902c-1.493-.896-3.346-.95-4.889-.144l-7.454 3.897c-9.463 4.947-19.415 9.073-29.581 12.264l-8.021 2.518c-1.661.521-2.931 1.869-3.353 3.558l-11.262 45.051c-.556 2.226-2.556 3.787-4.851 3.787h-54.149c-2.294 0-4.294-1.562-4.851-3.787l-11.262-45.051c-.422-1.689-1.692-3.036-3.353-3.558l-8.021-2.518c-10.166-3.191-20.118-7.317-29.581-12.264l-7.454-3.897c-1.543-.807-3.396-.753-4.889.144l-39.836 23.902c-1.967 1.18-4.486.87-6.108-.752l-55.627-55.627-4.581 7.635c-3.541 5.902-2.611 13.457 2.256 18.324l49.331 49.331c4.867 4.867 12.422 5.797 18.324 2.256l39.319-23.591c10.448 5.462 21.433 10.036 32.856 13.622l11.117 44.47c1.669 6.677 7.669 11.362 14.552 11.362h69.764c6.883 0 12.883-4.684 14.552-11.362l11.117-44.47c11.423-3.586 22.408-8.16 32.856-13.622l39.319 23.591c5.902 3.541 13.457 2.611 18.324-2.256l49.331-49.331c4.867-4.867 5.797-12.422 2.256-18.324l-23.591-39.319c5.462-10.448 10.036-21.433 13.622-32.856l44.47-11.117c6.678-1.669 11.362-7.669 11.362-14.552v-69.764c.001-6.885-4.683-12.885-11.361-14.554z" fill="#3c87d0"/><path d="m351.951 298.981-106.364-164.131c-2.329 1.538-4.374 3.648-5.923 6.332l-91.371 158.259c-1.549 2.683-2.354 5.509-2.522 8.296l191.027 7.403c3.849 0 17.078-12.826 15.153-16.159z" fill="#ffe177"/><path d="m363.707 299.441-91.371-158.259c-5.711-9.893-18.162-12.003-26.75-6.332l95.485 165.386c1.924 3.333-.481 7.5-4.33 7.5h-190.97c-.618 10.273 7.435 20 18.858 20h182.742c14.521 0 23.597-15.719 16.336-28.295z" fill="#ffc344"/><path d="m141.798 322.055c4.765 8.254 13.3 13.182 22.831 13.182h6.357c21.945 23.528 52.813 36.982 85.014 36.982s63.068-13.454 85.014-36.982h6.357c9.531 0 18.066-4.928 22.831-13.182 4.766-8.254 4.766-18.11 0-26.364l-3.129-5.42c3.415-11.076 5.146-22.595 5.146-34.271 0-19.07-4.721-37.984-13.653-54.697-1.951-3.653-6.492-5.032-10.149-3.08-3.653 1.952-5.032 6.497-3.079 10.15 7.773 14.545 11.882 31.015 11.882 47.627 0 5.122-.382 10.208-1.141 15.227l-63.235-109.528c12.091 4.727 23.222 11.777 32.768 20.824 1.451 1.375 3.306 2.056 5.158 2.056 1.986 0 3.971-.785 5.445-2.341 2.849-3.006 2.721-7.753-.285-10.603-15.166-14.372-33.823-24.358-54.07-28.96l-3.027-5.243c-4.766-8.254-13.302-13.182-22.833-13.182-9.53 0-18.065 4.928-22.83 13.182l-3.027 5.244c-24.955 5.68-47.606 19.677-63.963 39.573-17.022 20.708-26.397 46.899-26.397 73.751 0 11.673 1.731 23.192 5.146 34.271l-3.129 5.42c-4.768 8.254-4.768 18.11-.002 26.364zm114.202 35.164c-22.978 0-45.177-7.867-62.963-21.982h125.925c-17.785 14.114-39.984 21.982-62.962 21.982zm-101.219-101.219c0-42.008 26.256-79.351 64.373-94.294l-27.498 47.628c-2.071 3.587-.842 8.174 2.745 10.245 3.588 2.071 8.174.841 10.245-2.745l41.513-71.903c2.054-3.557 5.732-5.681 9.841-5.681 4.108 0 7.787 2.124 9.842 5.682l91.37 158.259c2.054 3.558 2.055 7.806 0 11.364-2.054 3.558-5.732 5.682-9.841 5.682h-182.742c-4.108 0-7.787-2.124-9.841-5.682-2.055-3.558-2.054-7.806 0-11.364l31.808-55.093c2.071-3.587.842-8.174-2.745-10.245-3.589-2.073-8.175-.842-10.245 2.745l-17.683 30.629c-.76-5.02-1.142-10.106-1.142-15.227z"/><path d="m256 257.969c4.143 0 7.5-3.358 7.5-7.5v-51.572c0-4.142-3.357-7.5-7.5-7.5s-7.5 3.358-7.5 7.5v51.572c0 4.142 3.357 7.5 7.5 7.5z"/><circle cx="256" cy="281.456" r="7.5"/><path d="m494.957 199.29-40.441-10.11c-3.023-8.981-6.677-17.793-10.9-26.291l21.452-35.755c5.322-8.87 3.932-20.172-3.383-27.487l-49.331-49.332c-7.313-7.313-18.615-8.706-27.485-3.383l-35.756 21.454c-8.498-4.224-17.311-7.877-26.292-10.901l-10.109-40.442c-2.511-10.035-11.487-17.043-21.83-17.043h-69.764c-10.343 0-19.319 7.008-21.829 17.043l-10.11 40.441c-8.98 3.023-17.793 6.677-26.291 10.901l-35.756-21.454c-8.868-5.321-20.17-3.93-27.486 3.383l-10.437 10.438c-2.929 2.929-2.929 7.678.001 10.606 2.928 2.929 7.677 2.929 10.606 0l10.436-10.437c2.439-2.438 6.206-2.9 9.163-1.128l39.318 23.591c2.239 1.344 5.02 1.425 7.333.215 10.116-5.289 20.758-9.7 31.629-13.113 2.49-.782 4.396-2.804 5.029-5.337l11.117-44.469c.836-3.345 3.828-5.681 7.276-5.681h69.764c3.448 0 6.44 2.336 7.276 5.681l11.117 44.47c.634 2.533 2.539 4.555 5.029 5.337 10.871 3.413 21.513 7.825 31.629 13.113 2.315 1.21 5.093 1.128 7.333-.215l39.318-23.591c2.957-1.775 6.725-1.311 9.162 1.127l49.33 49.331c2.438 2.438 2.902 6.206 1.128 9.162l-23.591 39.319c-1.344 2.24-1.425 5.018-.215 7.333 5.289 10.116 9.7 20.757 13.113 31.628.781 2.491 2.803 4.396 5.336 5.029l44.47 11.117c3.346.836 5.682 3.829 5.682 7.276v69.764c0 3.448-2.336 6.44-5.682 7.276l-44.47 11.118c-2.533.633-4.555 2.538-5.336 5.029-3.413 10.871-7.824 21.512-13.113 31.628-1.21 2.315-1.129 5.093.215 7.333l23.592 39.32c1.773 2.956 1.31 6.723-1.129 9.162l-49.33 49.331c-2.437 2.438-6.204 2.901-9.162 1.128l-39.318-23.591c-2.239-1.344-5.02-1.425-7.333-.215-10.117 5.289-20.759 9.701-31.628 13.113-2.491.782-4.396 2.804-5.03 5.337l-11.117 44.469c-.836 3.345-3.828 5.682-7.276 5.682h-69.764c-3.448 0-6.44-2.336-7.276-5.681l-11.117-44.47c-.634-2.533-2.539-4.555-5.03-5.337-10.869-3.412-21.511-7.824-31.628-13.113-2.316-1.211-5.095-1.129-7.333.215l-39.318 23.591c-2.958 1.772-6.726 1.31-9.162-1.128l-49.331-49.33c-2.438-2.438-2.901-6.206-1.127-9.163l23.591-39.319c1.344-2.24 1.425-5.018.215-7.333-5.289-10.116-9.7-20.757-13.113-31.628-.781-2.491-2.803-4.396-5.336-5.029l-44.47-11.118c-3.346-.835-5.682-3.827-5.682-7.275v-69.764c0-3.448 2.336-6.44 5.682-7.276l44.47-11.117c2.533-.633 4.555-2.538 5.336-5.029 3.413-10.871 7.824-21.512 13.113-31.628 1.21-2.315 1.129-5.093-.215-7.333l-23.592-39.32c-1.773-2.956-1.31-6.724 1.127-9.162l13.588-13.587c2.93-2.929 2.93-7.677.001-10.606s-7.678-2.93-10.606 0l-13.59 13.586c-7.313 7.315-8.704 18.618-3.383 27.486l21.453 35.756c-4.223 8.498-7.877 17.31-10.9 26.291l-40.441 10.11c-10.034 2.509-17.043 11.485-17.043 21.829v69.764c0 10.343 7.009 19.32 17.043 21.828l40.441 10.111c3.023 8.981 6.677 17.793 10.9 26.291l-21.452 35.755c-5.322 8.869-3.932 20.171 3.382 27.487l49.331 49.331c7.314 7.314 18.618 8.707 27.486 3.384l35.756-21.454c8.498 4.224 17.311 7.877 26.292 10.9l10.109 40.443c2.51 10.034 11.486 17.042 21.829 17.042h69.764c10.343 0 19.319-7.008 21.829-17.043l10.109-40.442c8.981-3.023 17.794-6.677 26.292-10.9l35.756 21.454c8.869 5.321 20.173 3.929 27.486-3.384l49.33-49.331c7.314-7.314 8.705-18.617 3.384-27.486l-21.453-35.756c4.223-8.498 7.877-17.31 10.9-26.291l40.441-10.111c10.036-2.508 17.045-11.485 17.045-21.828v-69.764c0-10.344-7.009-19.32-17.043-21.828z"/></g><g/><g/><g/><g/><g/><g/><g/><g/><g/><g/><g/><g/><g/><g/><g/></svg>