<svg id="Capa_1" enable-background="new 0 0 512 512" viewBox="0 0 512 512" xmlns="http://www.w3.org/2000/svg"><g><path d="m308.485 139.222c-3.869-14.441-15.606-31.09-30.712-47.625-2.15-2.354-5.976-2.111-7.759.532-3.674 5.446-9.313 9.184-15.855 10.443-11.909 2.291-23.953-4.657-27.93-16.114-1.221-3.518-1.607-7.095-1.274-10.531 1.88-19.394-6.575-38.382-22.325-49.853-11.716-8.532-22.141-14.735-27.774-17.914-2.437-1.375-5.52-.507-6.874 1.941-5.025 9.084-16.851 31.4-26.961 57.603-7.113 18.436-3.852 39.27 8.367 54.8l17.257 21.931c10.078 12.808 3.778 31.748-11.965 35.966-8.791 2.355-18.115-.771-23.716-7.89l-6.413-8.15c-2.875-3.654-8.717-1.731-8.91 2.915-.358 8.647.217 16.479 1.987 23.086 14.122 52.703 68.294 83.979 120.997 69.858 52.705-14.123 83.981-68.295 69.86-120.998z" fill="#fe646f"/><path d="m131.749 333.658-62.124 62.125-12.674 88.717 45.995 11.634 28.803-11.634z" fill="#e8ad8c"/><path d="m56.951 484.5-2.857 20h77.655v-20z" fill="#e19974"/><path d="m57.323 487.58 52.36-56.929c2.231-2.231-10.527-12.28-13.153-14.03l-10.337-7.456c-5.692-3.794-4.903-6.64-6.059-13.382-1.156-6.743-2.723-6.417 1.383-11.892l22.645-46.784-92.282 11.535c-2.502.313-4.38 2.44-4.38 4.961v130.897l31.062 11.634c1.327 0 17.823-7.617 18.761-8.554z" fill="#9be69d"/><path d="m131.749 333.658-27.586 3.448-31.835 42.448c-4.106 5.476-5.796 12.482-4.641 19.225 1.156 6.742 5.084 12.784 10.776 16.578l16.819 11.212c2.625 1.75 2.993 5.465.762 7.696l-48.77 48.77c-.938.938-2.209 1.464-3.535 1.464h-36.239v15c0 2.761 2.239 5 5 5h41.593l77.655-77.655-42.196-28.13c-2.388-1.592-2.949-4.864-1.226-7.16z" fill="#6fd7a3"/><path d="m162.811 395.783v108.717l77.656-77.655z" fill="#e8ad8c"/><path d="m428.012 350.686 23.071-119.338-55.306-131.209-140.579 99.428-28.094 104.848 187.719 58.058c2.668.714 12.474-9.12 13.189-11.787z" fill="#dff6fd"/><path d="m419.106 350.686c-.715 2.667-3.457 4.25-6.124 3.535l-185.878-49.807-5.177 19.319 96.194 44.441 113.832 11.835 33.271-124.168 5.202-24.495h-19.344z" fill="#99e6fc"/><path d="m384.583 255.023-65.35-17.511c-2.667-.715-5.409.868-6.124 3.535l-21.603 80.623 34.916 20.099h40.093l21.603-80.624c.715-2.666-.868-5.407-3.535-6.122z" fill="#62dbfb"/><path d="m286.33 340.99 31.792 27.185 43.217-7.086 5.177-19.319-75.01-20.099z" fill="#01d0fb"/><path d="m488.323 127.207c.715-2.667-.868-5.409-3.535-6.124l-35.347-9.471c-2.667-.715-5.409.868-6.124 3.536l-.115.428 9.725 44.8 23.221 12.265z" fill="#5f99d7"/><path d="m468.829 199.961 7.32-27.32-32.946-57.065-7.32 27.32 4.248 41.479z" fill="#3c87d0"/><path d="m503.824 260.574-101.605-175.984c-1.381-2.391-4.439-3.211-6.83-1.83l-175.984 101.605c-2.391 1.381-3.211 4.439-1.83 6.83l10.531 18.24c1.381 2.391 4.439 3.211 6.83 1.83l153.414-88.574 88.574 153.414c1.381 2.391 4.439 3.211 6.83 1.83l18.24-10.531c2.392-1.38 3.211-4.438 1.83-6.83z" fill="#62dbfb"/><path d="m489.853 479.5-5.358-85.412-279.524-74.898c-2.306-.618-4.727.481-5.781 2.623l-36.38 73.969 41.519 27.679c2.625 1.75 2.993 5.465.762 7.696l-53.342 53.343 332.25 7.8c2.761.001 5.854-10.038 5.854-12.8z" fill="#9be69d"/><path d="m500.789 398.454-16.294-4.366v85.412c0 2.761-2.238 5-5 5h-327.746l-20 20h367.746c2.761 0 5-2.238 5-5v-96.216c0-2.263-1.52-4.244-3.706-4.83z" fill="#6fd7a3"/><circle cx="328.328" cy="304.265" r="7.5"/><path d="m502.73 391.21-61.591-16.503 9.783-36.509c1.072-4.001-1.302-8.113-5.303-9.185-4.003-1.076-8.114 1.302-9.185 5.303l-9.783 36.509-56.126-15.039 24.838-92.698c.864-3.225.421-6.594-1.248-9.485-1.67-2.893-4.366-4.961-7.59-5.823l-65.35-17.511c-6.659-1.789-13.525 2.181-15.309 8.838l-24.839 92.698-49.912-13.374 30.525-113.923 53.498-30.887 11.807 23.613c1.271 2.54 3.867 4.145 6.708 4.145h27.957l13.334 13.334c1.407 1.406 3.314 2.196 5.304 2.196h15.531c4.143 0 7.5-3.357 7.5-7.5s-3.357-7.5-7.5-7.5h-12.425l-8.03-8.031 10.231-10.224c2.93-2.928 2.932-7.676.003-10.606-2.927-2.931-7.676-2.932-10.606-.003l-13.344 13.334h-23.318l-10.136-20.272 57.453-33.171 71.572 123.965-11.493 42.892c-1.072 4.001 1.302 8.114 5.303 9.185.65.175 1.304.258 1.946.258 3.311 0 6.342-2.21 7.239-5.56l7.611-28.404 2.646 4.583c2.312 4.006 6.522 6.248 10.846 6.247 2.119 0 4.267-.538 6.229-1.672l18.238-10.53c2.893-1.669 4.962-4.364 5.826-7.591.864-3.226.421-6.594-1.249-9.485l-33.444-57.924 18.69-69.751c1.784-6.657-2.181-13.525-8.838-15.309l-35.347-9.472c-3.225-.864-6.594-.421-9.485 1.249-2.892 1.67-4.959 4.365-5.823 7.59l-2.749 10.259-24.61-42.626c-3.445-5.967-11.103-8.023-17.075-4.575l-81.447 47.024c-5.644-11.041-14.655-23.365-26.88-36.748-2.607-2.853-6.305-4.326-10.167-4.04-3.809.282-7.21 2.255-9.332 5.411-2.58 3.837-6.524 6.431-11.105 7.302-8.265 1.58-16.594-3.228-19.375-11.167-.849-2.423-1.155-4.919-.909-7.419 2.158-21.951-7.566-43.645-25.377-56.618-12.193-8.88-23.091-15.329-28.503-18.383-2.935-1.657-6.337-2.064-9.576-1.147-3.237.917-5.917 3.044-7.547 5.99-4.782 8.644-17.025 31.654-27.395 58.533-8.001 20.737-4.372 44.546 9.471 62.138l17.257 21.93c3.217 4.088 4.12 9.263 2.478 14.199s-5.465 8.539-10.489 9.885c-5.883 1.576-12.117-.498-15.881-5.282l-6.413-8.15c-3.266-4.15-8.621-5.784-13.64-4.16-5.039 1.629-8.438 6.105-8.657 11.403-.404 9.766.349 18.29 2.237 25.338 7.319 27.313 24.812 50.179 49.259 64.388 16.437 9.553 34.717 14.438 53.244 14.438 5.22 0 10.46-.389 15.684-1.17l-11.948 44.59-9.712-2.602c-5.751-1.543-11.827 1.217-14.452 6.558l-9.872 20.072c-1.828 3.717-.297 8.212 3.42 10.04 3.716 1.826 8.212.297 10.04-3.421l8.966-18.228 198.444 53.172-25.584 8.528c-3.062 1.021-5.128 3.887-5.128 7.115v26.427l-54.624 27.313-27.708-13.854c-3.706-1.854-8.21-.352-10.062 3.353-1.853 3.705-.351 8.21 3.354 10.062l31.062 15.531c1.056.528 2.205.792 3.354.792s2.299-.264 3.354-.792l58.231-29.116 42.972 28.648c1.231.821 2.68 1.26 4.16 1.26h31.062c4.143 0 7.5-3.357 7.5-7.5s-3.357-7.5-7.5-7.5h-28.796l-41.364-27.576v-21.643l41.974-14.011 67.275 18.026v91.796h-347.14l60.539-60.539c2.659-2.658 3.971-6.329 3.601-10.07-.371-3.742-2.377-7.084-5.506-9.169l-36.046-24.031 7.858-15.978c1.828-3.717.297-8.212-3.42-10.04-3.716-1.828-8.212-.297-10.04 3.421l-10.693 21.742c-.576 1.11-.85 2.325-.838 3.522v74.474l-16.062 16.062v-152.752c-.011-4.51-3.979-8.011-8.488-7.418l-119.81 14.975c-.001 0-.001 0-.002.001-6.241.781-10.947 6.114-10.947 12.403v145.897c0 6.892 5.607 12.5 12.5 12.5h486.995c6.892 0 12.5-5.607 12.5-12.5v-96.217c-.001-5.646-3.811-10.611-9.266-12.073zm-52.815-271.707 30.516 8.178-14.161 52.849-22.34-38.694zm-52.94-28.998 99.104 171.654-13.91 8.031-87.324-151.248c-1.39-2.406-3.91-3.751-6.502-3.751-1.272 0-2.562.324-3.743 1.006l-151.249 87.323-8.031-13.91zm-272.1 97.915c-1.05-3.919-1.651-8.543-1.798-13.806l1.994 2.534c7.481 9.508 19.867 13.629 31.551 10.495 9.836-2.635 17.627-9.976 20.841-19.638s1.374-20.207-4.923-28.209l-17.257-21.93c-10.586-13.453-13.369-31.64-7.265-47.462 9.257-23.991 20.063-44.813 25.321-54.473 5.573 3.226 14.747 8.828 24.876 16.205 13.532 9.855 20.92 26.342 19.28 43.026-.461 4.688.104 9.347 1.68 13.845 5.215 14.89 20.841 23.891 36.337 20.944 7.454-1.419 14.012-5.292 18.772-11.027 10.574 11.833 18.251 22.52 22.903 31.876l-81.53 47.072c-2.893 1.669-4.962 4.364-5.826 7.591-.864 3.226-.42 6.594 1.249 9.485l10.531 18.24c3.447 5.969 11.106 8.022 17.075 4.575l4.582-2.645-10.395 38.794c-47.362 10.544-95.339-18.249-107.998-65.492zm170.64 147.267 24.192-90.283 60.52 16.217-24.191 90.283zm-125.204 74.109 27.321 18.214-27.321 27.321zm-155.311 87.204v-141.191l100.149-12.517-32.822 43.763c-2.052 2.737-2.898 6.24-2.32 9.612.578 3.37 2.542 6.392 5.387 8.287l34.583 23.056-68.99 68.99zm109.249 0h-52.049l52.049-52.049zm0-84.169-28.336-18.891 28.336-37.782z"/></g><g/><g/><g/><g/><g/><g/><g/><g/><g/><g/><g/><g/><g/><g/><g/></svg>