<svg id="Capa_1" enable-background="new 0 0 512 512" viewBox="0 0 512 512" xmlns="http://www.w3.org/2000/svg"><g><path d="m319.703 191.934 45.032-184.434h-148.121c-4.304 0-8.126 2.754-9.487 6.838l-53.179 159.537z" fill="#9be69d"/><path d="m388.844 7.5h-24.109l-54.319 162.956c-.681 2.042-2.591 3.419-4.743 3.419h-151.725l-6.667 20 73.1 38.014 113.275-38.014 59.931-179.794c1.08-3.237-1.33-6.581-4.743-6.581z" fill="#6fd7a3"/><path d="m461.513 481.476-8.075-225.476h-414.876v228.5l410.427 9.808c2.762 0 12.524-10.07 12.524-12.832z" fill="#e8ad8c"/><path d="m479.405 247.654-10.437-53.779h-440.937c-2.761 0-5 2.239-5 5v37.125z" fill="#e8ad8c"/><path d="m483.969 193.875h-15v37.125c0 2.761-2.239 5-5 5h-440.938v15c0 2.761 2.239 5 5 5h455.938c2.761 0 5-2.239 5-5v-52.125c0-2.761-2.239-5-5-5z" fill="#e19974"/><path d="m453.438 256v223.5c0 2.761-2.239 5-5 5h-409.876v15c0 2.761 2.239 5 5 5h424.875c2.761 0 5-2.239 5-5v-243.5z" fill="#e19974"/><path d="m349.414 351.123c-1.965-25.926-23.148-46.803-49.098-48.424-16.277-1.017-31.084 5.372-41.382 16.117-1.615 1.685-4.255 1.685-5.87 0-10.297-10.745-25.104-17.134-41.382-16.117-25.95 1.621-47.133 22.498-49.098 48.424-1.327 17.51 5.921 33.383 17.983 43.858h-.001l70.205 60.972c2.999 2.605 7.458 2.605 10.457 0l70.205-60.972h-.001c12.061-10.475 19.309-26.347 17.982-43.858z" fill="#fe646f"/><path d="m310.278 170.822 31.761-95.282c.939-2.818-.763-5.871-3.674-6.461-11.751-2.381-18.317-12.306-16.432-24.878.447-2.982-1.943-5.639-4.958-5.639h-52.362c-1.973 0-3.787 1.149-4.564 2.963-6.314 14.753-21.945 26.501-37.165 27.949-1.946.185-3.585 1.531-4.203 3.385l-33.671 101.016 116.652 13.779c2.022 0 7.84-14.993 8.616-16.832z" fill="#c9f6b0"/><path d="m302.594 193.875 7.684-23.053c-.776 1.839-2.584 3.053-4.605 3.053h-120.663l-6.667 20z" fill="#d7f8c4"/><path d="m305.971 173.865c-.164-24.493-17.484-42.115-44.794-42.115-27.314 0-56.386 17.627-72.877 42.125l99.283 11.864c.1 0 18.289-11.868 18.388-11.874z" fill="#9be69d"/><path d="m302.594 193.875c2.334-7.001 3.419-13.731 3.377-20.01-.099.006-.198.01-.298.01h-117.373c-4.225 6.276-7.624 13.003-9.956 20z" fill="#6fd7a3"/><path d="m483.969 186.375h-61.761c-4.142 0-7.5 3.358-7.5 7.5s3.358 7.5 7.5 7.5h59.261v47.125h-450.938v-47.125h356.676c4.142 0 7.5-3.358 7.5-7.5s-3.358-7.5-7.5-7.5h-43.145l56.64-169.921c1.268-3.801.625-8.011-1.717-11.262-2.343-3.251-6.134-5.192-10.141-5.192h-172.23c-7.544 0-14.216 4.809-16.602 11.966l-27.892 83.676c-1.31 3.93.814 8.177 4.744 9.487 3.929 1.31 8.177-.814 9.487-4.744l27.892-83.676c.341-1.022 1.294-1.709 2.372-1.709h168.762l-57.125 171.375h-15.252l36.155-108.464c1.134-3.402.754-7.133-1.042-10.238-1.78-3.075-4.789-5.242-8.257-5.945-7.879-1.597-11.806-7.733-10.504-16.416.532-3.551-.514-7.156-2.869-9.891-2.386-2.771-5.851-4.359-9.506-4.359h-52.362c-5.008 0-9.505 2.949-11.458 7.512-5.21 12.175-18.529 22.25-30.98 23.434-4.881.464-9.045 3.792-10.608 8.48l-38.629 115.887h-15.251l17.305-51.915c1.31-3.93-.814-8.177-4.744-9.487-3.929-1.31-8.177.814-9.487 4.744l-18.886 56.658h-113.846c-6.893 0-12.5 5.607-12.5 12.5v52.125c0 6.893 5.607 12.5 12.5 12.5h3.031v54.966c0 4.142 3.358 7.5 7.5 7.5s7.5-3.358 7.5-7.5v-54.966h419.875v233.5h-419.875v-143.534c0-4.142-3.358-7.5-7.5-7.5s-7.5 3.358-7.5 7.5v146.034c0 6.893 5.607 12.5 12.5 12.5h424.875c6.893 0 12.5-5.607 12.5-12.5v-236h3.031c6.893 0 12.5-5.607 12.5-12.5v-52.125c.001-6.893-5.607-12.5-12.499-12.5zm-187.03 0h-107.31c13.602-26.683 43.814-47.125 71.548-47.125 13.399 0 24.351 4.882 30.837 13.747 6.365 8.699 8.067 20.428 4.925 33.378zm-71.647-109.63c16.937-2.289 33.369-14.604 40.94-30.683h47.961c-.938 14.131 6.866 25.775 19.876 29.667l-25.369 76.112c-1.275-2.699-2.802-5.272-4.579-7.701-9.385-12.826-24.635-19.89-42.943-19.89-20.893 0-42.438 9.134-59.619 23.698z"/><path d="m245.853 461.615c2.893 2.513 6.52 3.769 10.147 3.769s7.255-1.256 10.146-3.768l70.204-60.972c14.513-12.604 22-30.86 20.543-50.087-2.25-29.692-26.372-53.485-56.109-55.342-16.599-1.042-32.723 4.753-44.784 15.969-12.062-11.216-28.19-17.009-44.784-15.969-29.737 1.857-53.859 25.65-56.109 55.342-1.457 19.226 6.03 37.482 20.542 50.087zm-75.789-109.925c1.688-22.269 19.781-40.112 42.087-41.505.955-.06 1.908-.089 2.857-.089 12.319 0 24.085 4.981 32.642 13.91 2.177 2.272 5.22 3.575 8.35 3.575 3.129 0 6.173-1.303 8.35-3.574 9.216-9.617 22.149-14.658 35.499-13.821 22.306 1.394 40.4 19.237 42.087 41.505 1.095 14.45-4.525 28.165-15.421 37.628l-70.205 60.972c-.177.153-.444.154-.621 0l-70.204-60.972c-10.895-9.464-16.516-23.179-15.421-37.629z"/></g><g/><g/><g/><g/><g/><g/><g/><g/><g/><g/><g/><g/><g/><g/><g/></svg>