<svg id="Capa_1" enable-background="new 0 0 512 512" viewBox="0 0 512 512" xmlns="http://www.w3.org/2000/svg"><g><path d="m454.03 277.646c0-52.81-27.882-103.876-60.105-140.742-36.866-32.223-85.115-51.747-137.925-51.747-115.799 0-209.672 93.873-209.672 209.672 0 52.81 19.524 101.059 51.747 137.925 36.865 32.223 84.201 63.172 137.01 63.172 115.8-.001 218.945-102.482 218.945-218.28z" fill="#9be69d"/><path d="m393.925 136.904c.154.176.306.351.458.527 31.949 36.798 51.289 84.839 51.289 137.397 0 115.799-93.873 209.672-209.672 209.672-52.603 0-100.682-19.372-137.491-51.371-.145-.125-.289-.251-.433-.377 38.434 43.973 94.935 71.748 157.924 71.748 115.799 0 209.672-93.873 209.672-209.672 0-62.988-27.776-119.49-71.747-157.924z" fill="#6fd7a3"/><path d="m301.951 207.547c-15.903 0-20.436-18.315-20.436-34.218l-10.204-155.8-148.099 236.958c-3.681 5.889.553 13.527 7.498 13.527h81.138c4.883 0 8.842 3.958 8.842 8.841v165.286l155.637-233.408z" fill="#ffe177"/><path d="m381.291 197.393h-81.138c-4.883 0-8.842-3.958-8.842-8.842v-172.193c0-8.883-11.631-12.219-16.339-4.686l-3.661 5.858v171.022c0 15.929 12.913 28.842 28.842 28.842h51.984c3.927 0 6.321 4.32 4.24 7.65l-135.687 217.098v6.907c0 8.883 11.631 12.219 16.339 4.686l151.76-242.815c3.68-5.888-.554-13.527-7.498-13.527z" fill="#ffc344"/><path d="m421.644 154.374c-31.693-37.342-75.147-62.946-122.833-72.495v-65.522c0-7.365-4.757-13.678-11.836-15.708-7.077-2.03-14.459.802-18.363 7.047l-45.249 72.398c-50.517 7.62-96.877 33.011-130.748 71.661-34.685 39.578-53.786 90.389-53.786 143.073 0 58.009 22.59 112.546 63.608 153.563 41.017 41.02 95.554 63.609 153.563 63.609 34.652 0 69.128-8.364 99.697-24.188 29.575-15.309 55.656-37.62 75.423-64.521 2.452-3.338 1.735-8.031-1.604-10.484-3.336-2.452-8.031-1.736-10.484 1.604-37.999 51.714-98.945 82.589-163.032 82.589-111.478 0-202.172-90.694-202.172-202.172 0-95.083 67.254-177.426 158.761-197.498l-24.653 39.445c-2.195 3.512-1.127 8.14 2.386 10.335 3.509 2.194 8.139 1.127 10.335-2.386l80.675-129.078c.16-.256.54-.857 1.507-.579.972.278.972.987.972 1.289v172.194c0 9.011 7.331 16.342 16.342 16.342h81.138c.524 0 .919.232 1.174.691.254.459.242.916-.036 1.361l-151.76 242.816c-.161.257-.536.853-1.508.579-.972-.279-.972-.987-.972-1.29v-172.193c0-9.011-7.331-16.342-16.342-16.342h-81.137c-.524 0-.919-.232-1.174-.691-.254-.459-.242-.916.036-1.361l52.781-84.45c2.195-3.512 1.127-8.14-2.386-10.335-3.509-2.194-8.139-1.127-10.335 2.386l-52.78 84.449c-3.147 5.035-3.314 11.39-.437 16.583 2.879 5.193 8.355 8.42 14.294 8.42h81.138c.74 0 1.342.602 1.342 1.342v172.193c0 7.365 4.757 13.678 11.836 15.708 1.528.438 3.068.65 4.586.65 5.516-.001 10.716-2.799 13.777-7.697l151.759-242.814c3.147-5.035 3.314-11.39.437-16.583-2.879-5.193-8.355-8.42-14.294-8.42h-81.138c-.74 0-1.342-.602-1.342-1.342v-91.358c92.811 19.93 159.361 101.81 159.361 197.634 0 31.685-7.12 62.018-21.163 90.156-1.85 3.706-.345 8.21 3.362 10.06 1.075.536 2.218.791 3.343.791 2.753 0 5.403-1.522 6.717-4.153 15.09-30.236 22.741-62.823 22.741-96.854.001-51.423-18.299-101.304-51.527-140.454z"/></g><g/><g/><g/><g/><g/><g/><g/><g/><g/><g/><g/><g/><g/><g/><g/></svg>