<svg id="Capa_1" enable-background="new 0 0 512 512" viewBox="0 0 512 512" xmlns="http://www.w3.org/2000/svg"><g><path d="m390.733 131.324-83.188.804c-2.742.027-4.952 2.257-4.952 5v26.111l37.663 23.592 55.525-23.592v-26.915c0-2.78-2.268-5.027-5.048-5z" fill="#fe646f"/><path d="m173.295 131.324-83.188.804c-2.742.027-4.952 2.257-4.952 5v26.111l40.691 21.248 52.496-21.248v-26.915c.002-2.78-2.266-5.027-5.047-5z" fill="#fe646f"/><path d="m493.125 325.584-8.625-122.303-19.176-28.873c-4.633-6.976-12.451-11.169-20.825-11.169h-411.999c-13.807 0-25 11.193-25 25v141.375l474.694 9.752c2.762 0 10.931-11.021 10.931-13.782z" fill="#dff6fd"/><path d="m500.325 227.109-15.825-23.828v121.333c0 2.761-2.239 5-5 5h-472v10c0 5.523 4.477 10 10 10h316.156l23.297-13.812 23.297 13.812h114.25c5.523 0 10-4.477 10-10v-98.674c0-4.92-1.452-9.732-4.175-13.831z" fill="#99e6fc"/><g fill="#5f99d7"><circle cx="411.312" cy="349.614" r="31.062"/><circle cx="100.688" cy="349.614" r="31.062"/><circle cx="162.812" cy="349.614" r="31.062"/></g><path d="m473.438 271.958c-2.761 0-5 2.239-5 5v21.062c0 2.761 2.239 5 5 5h11.062l7.496-13.733-7.496-17.329z" fill="#ffe177"/><path d="m484.5 271.958h20v31.062h-20z" fill="#ffc344"/><path d="m33.562 313.551h-26.062v-41.594h26.062c2.761 0 5 2.239 5 5v31.594c0 2.762-2.238 5-5 5z" fill="#fe646f"/><path d="m173.344 287.489h-83.188c-2.761 0-5-2.239-5-5v-83.188c0-2.761 2.239-5 5-5h83.188c2.761 0 5 2.239 5 5v83.188c0 2.761-2.239 5-5 5z" fill="#62dbfb"/><circle cx="256" cy="240.895" fill="#fe646f" r="46.594"/><path d="m411.312 196.801v41.594c0 1.381 1.119 2.5 2.5 2.5h53.718c1.995 0 3.186-2.221 2.083-3.883l-27.624-41.594c-.463-.698-1.245-1.117-2.083-1.117h-26.094c-1.38 0-2.5 1.12-2.5 2.5z" fill="#5f99d7"/><path d="m380.25 199.301c0-2.761-2.239-5-5-5h-36.594c-2.761 0-5 2.239-5 5v130.312l23.297 9.752 23.297-9.752z" fill="#62dbfb"/><path d="m333.656 329.614h46.594v20h-46.594z" fill="#01d0fb"/><circle cx="100.687" cy="349.614" r="7.5"/><circle cx="162.812" cy="349.614" r="7.5"/><circle cx="411.312" cy="349.614" r="7.5"/><path d="m90.156 186.801c-6.893 0-12.5 5.607-12.5 12.5v83.188c0 6.893 5.607 12.5 12.5 12.5h83.188c6.893 0 12.5-5.607 12.5-12.5v-83.188c0-6.893-5.607-12.5-12.5-12.5zm2.5 15h31.594v78.188h-31.594zm78.188 78.188h-31.594v-78.188h31.594z"/><path d="m310.094 240.895c0-29.827-24.267-54.094-54.094-54.094s-54.094 24.267-54.094 54.094 24.267 54.094 54.094 54.094 54.094-24.267 54.094-54.094zm-54.094 39.094c-21.556 0-39.094-17.537-39.094-39.094s17.538-39.094 39.094-39.094 39.094 17.537 39.094 39.094-17.538 39.094-39.094 39.094z"/><path d="m271.531 233.395h-8.031v-8.031c0-4.143-3.358-7.5-7.5-7.5s-7.5 3.357-7.5 7.5v8.031h-8.031c-4.142 0-7.5 3.357-7.5 7.5s3.358 7.5 7.5 7.5h8.031v8.031c0 4.143 3.358 7.5 7.5 7.5s7.5-3.357 7.5-7.5v-8.031h8.031c4.142 0 7.5-3.357 7.5-7.5s-3.358-7.5-7.5-7.5z"/><path d="m467.53 248.395c3.692 0 7.069-2.021 8.814-5.276 1.743-3.254 1.558-7.185-.484-10.256l-27.624-41.595c-1.858-2.797-4.973-4.467-8.33-4.467h-26.094c-5.514 0-10 4.486-10 10v41.594c0 5.514 4.486 10 10 10zm-48.718-46.594h18.412l20.982 31.594h-39.395v-31.594z"/><path d="m54.094 202.333h-15.532c-4.142 0-7.5 3.357-7.5 7.5s3.358 7.5 7.5 7.5h15.531c4.142 0 7.5-3.357 7.5-7.5s-3.357-7.5-7.499-7.5z"/><path d="m54.094 233.395h-15.532c-4.142 0-7.5 3.357-7.5 7.5s3.358 7.5 7.5 7.5h15.531c4.142 0 7.5-3.357 7.5-7.5s-3.357-7.5-7.499-7.5z"/><path d="m506.573 222.96-35.001-52.702c-6.039-9.092-16.16-14.52-27.074-14.52h-41.217v-19.415c0-3.361-1.315-6.515-3.703-8.881-2.359-2.337-5.478-3.619-8.795-3.619l-83.31.805c-6.826.066-12.38 5.673-12.38 12.5v18.61h-109.25v-19.415c0-3.361-1.315-6.515-3.703-8.881-2.359-2.337-5.478-3.619-8.795-3.619l-83.31.805c-6.826.066-12.379 5.673-12.379 12.5v18.61h-45.156c-17.92 0-32.5 14.579-32.5 32.5v151.375c0 9.649 7.851 17.5 17.5 17.5h45.358c3.5 17.686 19.132 31.062 37.83 31.062 12.728 0 24.035-6.199 31.063-15.736 7.027 9.537 18.334 15.736 31.062 15.736 18.698 0 34.33-13.376 37.83-31.062h49.156c4.142 0 7.5-3.357 7.5-7.5s-3.358-7.5-7.5-7.5h-49.156c-3.5-17.686-19.132-31.062-37.83-31.062-12.728 0-24.035 6.199-31.062 15.736-7.027-9.537-18.334-15.736-31.063-15.736-18.698 0-34.33 13.376-37.83 31.062h-45.358c-1.378 0-2.5-1.121-2.5-2.5v-18.562h18.562c6.893 0 12.5-5.607 12.5-12.5v-31.594c0-6.893-5.607-12.5-12.5-12.5h-18.562v-76.219c0-9.649 7.851-17.5 17.5-17.5h83.278c4.142 0 7.5-3.357 7.5-7.5s-3.358-7.5-7.5-7.5h-23.122v-16.135l78.188-.756v16.891h-20.065c-4.142 0-7.5 3.357-7.5 7.5s3.358 7.5 7.5 7.5h293.72c5.877 0 11.327 2.923 14.578 7.818l35.002 52.703c1.911 2.877 2.922 6.225 2.922 9.68v23.518h-23.562c-6.893 0-12.5 5.607-12.5 12.5v21.062c0 6.893 5.607 12.5 12.5 12.5h23.561v29.094c0 1.379-1.121 2.5-2.5 2.5h-45.358c-3.5-17.686-19.132-31.062-37.83-31.062-8.866 0-17.042 3.008-23.562 8.056v-53.098c0-4.143-3.357-7.5-7.5-7.5s-7.5 3.357-7.5 7.5v76.104h-31.594v-140.312h31.594v29.208c0 4.143 3.357 7.5 7.5 7.5s7.5-3.357 7.5-7.5v-31.708c0-6.893-5.607-12.5-12.5-12.5h-36.594c-6.893 0-12.5 5.607-12.5 12.5v142.812h-41.358c-4.142 0-7.5 3.357-7.5 7.5s3.358 7.5 7.5 7.5h88.684c3.5 17.686 19.132 31.062 37.83 31.062s34.33-13.376 37.83-31.062h45.358c9.649 0 17.5-7.851 17.5-17.5v-98.673c0-6.417-1.877-12.635-5.427-17.98zm-343.761 103.091c12.992 0 23.563 10.57 23.563 23.562s-10.57 23.562-23.563 23.562c-12.992 0-23.562-10.57-23.562-23.562s10.57-23.562 23.562-23.562zm-62.125 0c12.992 0 23.563 10.57 23.563 23.562s-10.57 23.562-23.563 23.562c-12.992 0-23.562-10.57-23.562-23.562s10.57-23.562 23.562-23.562zm-69.625-46.593v26.594h-16.062v-26.594zm279.032-139.854 78.188-.756v16.891h-78.188zm101.218 233.572c-12.992 0-23.562-10.57-23.562-23.562s10.57-23.562 23.562-23.562 23.562 10.57 23.562 23.562-10.569 23.562-23.562 23.562zm64.626-77.656v-16.062h21.062v16.062z"/></g><g/><g/><g/><g/><g/><g/><g/><g/><g/><g/><g/><g/><g/><g/><g/></svg>