<svg id="Capa_1" enable-background="new 0 0 512 512" viewBox="0 0 512 512" xmlns="http://www.w3.org/2000/svg"><g><path d="m496.456 239.863c0-58.431-32.123-116.014-65.875-158.444l-81.232 81.232c23.89 23.89 38.666 56.894 38.666 93.349s-14.776 69.459-38.667 93.349l-7.228 83.411 46.377-.54c69.409-39.125 107.959-112.592 107.959-192.357z" fill="#dff6fd"/><path d="m411.716 411.716-62.367-62.367c-23.89 23.89-56.894 38.666-93.349 38.666s-69.459-14.776-93.349-38.666l-81.232 81.232c42.43 33.753 92.288 65.237 150.719 65.237 68.62 0 146.27-39.132 179.578-84.102z" fill="#fe646f"/><path d="m123.984 256c0-36.455 14.776-69.459 38.667-93.349l-23.135-76.636-59.232-5.73c-44.97 44.969-72.784 107.094-72.784 175.715s27.814 130.746 72.784 175.716l82.367-82.367c-23.89-23.89-38.667-56.894-38.667-93.349z" fill="#dff6fd"/><path d="m504.5 256c0-68.621-27.814-130.746-72.784-175.716l-1.135 1.135c33.752 42.43 53.919 96.15 53.919 154.581 0 79.766-37.581 150.751-96.002 196.219l43.218-.503c44.97-44.97 72.784-107.095 72.784-175.716z" fill="#99e6fc"/><path d="m256 123.984c36.455 0 69.459 14.776 93.349 38.667l82.367-82.367c-44.97-44.97-107.095-72.784-175.716-72.784s-130.746 27.814-175.716 72.784l82.367 82.367c23.89-23.89 56.894-38.667 93.349-38.667z" fill="#fe646f"/><path d="m236 484.5c-58.431 0-112.151-20.167-154.581-53.919l-1.135 1.135c44.97 44.97 107.095 72.784 175.716 72.784s130.746-27.814 175.716-72.784l-20-20c-44.97 44.97-107.096 72.784-175.716 72.784z" fill="#fd4755"/><path d="m399.151 205.708 43.723-41.109c8.717-8.718 10.726-24.984 11.644-37.256.766-10.239 8.067-16.198 15.208-23.338l17.822-15.683c.938-.938 10.218-15.783 10.218-17.109l-13.266-63.713h-38.764c-1.326 0-2.598.527-3.536 1.464l-37.276 37.276c-4.428 4.428-10.503 6.809-16.761 6.568-13.293-.512-27.216-1.049-27.216-1.049h-73.469c-8.79 0-15.917 7.126-15.917 15.917 0 15.892 12.883 28.776 28.776 28.776h31.709c.676 0 1.268.454 1.444 1.108.175.653-.111 1.343-.696 1.681l-98.835 57.062c-8.627 4.981-11.583 16.012-6.602 24.639s16.012 11.583 24.639 6.602l68.962-39.815-62.457 62.457c-7.044 7.044-7.044 18.464 0 25.508s18.464 7.044 25.508 0l62.533-62.533-39.871 69.059c-4.981 8.627-2.025 19.658 6.602 24.638 8.627 4.981 19.658 2.025 24.639-6.602l31.486-54.535-11.549 43.102c-2.406 8.981 2.408 18.196 10.885 21.48l21.863-47.424c1.785-6.667 3.675-12.293 8.554-17.171z" fill="#ffdfcf"/><path d="m499.5 7.5h-15v67.083c0 1.326-.527 2.598-1.464 3.536l-23.476 23.476c-7.141 7.141-11.496 16.711-12.262 26.95-.917 12.271-6.224 23.83-14.941 32.548l-39.479 39.479c-4.879 4.878-8.402 10.979-10.188 17.644l-13.956 52.086c.605.234 1.228.439 1.869.61 9.622 2.578 19.512-3.132 22.09-12.754l9.316-34.766c.879-3.282 2.607-6.274 5.01-8.677l39.481-39.481c12.597-12.597 19.512-28.725 20.744-45.198.403-5.39 2.637-10.478 6.459-14.3l29.334-29.334c.938-.938 1.464-2.209 1.464-3.536v-70.366c-.001-2.761-2.24-5-5.001-5z" fill="#ffcebf"/><path d="m88.395 488.969 15.627-20.806c7.142-7.141 13.083-8.858 23.321-9.624 12.271-.917 30.02-8.825 38.738-17.543l38.838-40.594c4.878-4.878 11.528-7.448 18.192-9.233l47.191-22.435c-3.284-8.477-12.499-13.292-21.48-10.885l-43.102 11.549 54.535-31.486c8.627-4.981 11.583-16.012 6.602-24.639-4.981-8.627-16.012-11.583-24.638-6.602l-69.059 39.871 62.533-62.533c7.044-7.044 7.044-18.464 0-25.508s-18.464-7.044-25.508 0l-62.457 62.457 39.815-68.962c4.981-8.627 2.025-19.658-6.602-24.638s-19.658-2.025-24.639 6.602l-57.062 98.835c-.338.586-1.028.871-1.681.696s-1.108-.767-1.108-1.444v-31.709c0-15.893-12.884-28.776-28.776-28.776-8.791 0-15.917 7.126-15.917 15.917v73.469s.537 13.923 1.049 27.216c.241 6.258-2.139 12.332-6.568 16.761l-37.275 37.275c-.938.938-1.464 2.209-1.464 3.536v38.764l60.3 11.748c1.326 0 19.657-6.342 20.595-7.279z" fill="#eb9c8d"/><path d="m270.302 368.733-52.086 13.956c-6.664 1.786-12.764 5.308-17.642 10.186l-39.481 39.481c-8.717 8.717-20.276 14.024-32.548 14.941-10.238.766-19.809 5.12-26.95 12.261l-23.476 23.476c-.938.938-2.209 1.465-3.536 1.465h-67.083v15c0 2.761 2.239 5 5 5h70.367c1.326 0 2.598-.527 3.536-1.464l29.334-29.334c3.822-3.822 8.91-6.056 14.3-6.459 16.473-1.232 32.601-8.147 45.198-20.744l39.481-39.481c2.402-2.402 5.395-4.13 8.677-5.01l34.766-9.316c9.622-2.578 15.332-12.468 12.754-22.09-.173-.64-.377-1.263-.611-1.868z" fill="#d78878"/><path d="m508.339 91.706c2.361-2.361 3.661-5.5 3.661-8.839v-70.367c0-6.893-5.607-12.5-12.5-12.5h-53.764c-3.339 0-6.478 1.3-8.839 3.661l-37.277 37.277c-.643.643-1.341 1.222-2.081 1.732-41.999-27.926-90.866-42.67-141.539-42.67-40.933 0-81.646 9.897-117.738 28.623-3.677 1.908-5.111 6.435-3.203 10.111 1.907 3.676 6.434 5.111 10.111 3.203 34.452-17.874 71.74-26.937 110.83-26.937 40.901 0 80.55 10.202 115.942 29.678-13.661-.524 2.578-.46-84.464-.418-12.912 0-23.417 10.505-23.417 23.417 0 20.002 16.273 36.276 36.276 36.276h9.296l-26.342 15.208c-8.952-1.776-18.126-2.676-27.292-2.676-34.755 0-67.57 12.623-93.21 35.699l-71.816-71.817c7.856-7.382 16.229-14.263 24.971-20.516 3.369-2.41 4.146-7.095 1.736-10.464s-7.095-4.145-10.464-1.736c-66.301 47.43-107.216 123.703-107.216 208.349 0 50.673 14.744 99.54 42.67 141.54-.51.74-1.089 1.437-1.732 2.08l-37.277 37.277c-2.361 2.361-3.661 5.5-3.661 8.839v53.764c0 6.893 5.607 12.5 12.5 12.5h70.367c3.339 0 6.478-1.3 8.838-3.661l29.333-29.334c1.202-1.202 2.616-2.177 4.17-2.896 39.45 23.487 84.627 35.891 130.792 35.891 113.51 0 207.385-73.194 241.743-171.554 1.366-3.91-.697-8.188-4.607-9.554-3.911-1.364-8.188.698-9.554 4.607-11.03 31.578-28.921 61-51.949 85.526l-71.82-71.82c19.745-21.999 32.076-49.835 35.003-79.261 2.383-2.827 4.136-6.168 5.121-9.846l9.315-34.766c.538-2.008 1.599-3.845 3.068-5.315l39.481-39.481c9.174-9.173 15.885-20.402 19.649-32.63 16.763 33.386 25.55 70.388 25.55 108.094 0 15.729-1.524 31.459-4.531 46.754-.799 4.064 1.849 8.006 5.913 8.806.488.096.975.142 1.455.142 3.512 0 6.648-2.479 7.351-6.055 3.193-16.245 4.812-32.949 4.812-49.647 0-46.165-12.404-91.342-35.891-130.791.719-1.554 1.695-2.968 2.896-4.169zm-246.619 39.909-31.511 18.193c-12.194 7.041-16.387 22.689-9.347 34.884 7.041 12.195 22.689 16.388 34.884 9.347l19.625-11.331-22.173 22.174c-9.957 9.957-9.957 26.158 0 36.114 9.957 9.957 26.157 9.957 36.114 0l22.25-22.25-11.387 19.723c-7.04 12.194-2.847 27.843 9.347 34.884 12.195 7.042 27.844 2.848 34.884-9.347l5.355-9.275c.532 10.783 7.925 20.486 18.9 23.427 2.2.589 4.432.881 6.65.881 1.037 0 2.07-.065 3.096-.191-4.578 24.559-16.543 47.38-34.362 65.2-17.823 17.823-40.649 29.788-65.213 34.364.397-3.174.201-6.474-.676-9.75-1.766-6.589-5.991-12.096-11.898-15.506-3.574-2.064-7.504-3.21-11.511-3.403l9.258-5.345c12.194-7.041 16.387-22.689 9.347-34.884-7.04-12.193-22.688-16.388-34.884-9.347l-19.723 11.387 22.25-22.25c4.823-4.823 7.48-11.236 7.48-18.057s-2.657-13.234-7.48-18.057c-9.957-9.957-26.157-9.957-36.114 0l-22.174 22.173 11.331-19.625c3.411-5.907 4.316-12.789 2.551-19.378-1.766-6.589-5.991-12.096-11.898-15.506-5.907-3.411-12.789-4.317-19.378-2.551-6.588 1.766-12.095 5.991-15.506 11.898l-18.193 31.511c-.087-1.905-.131-3.813-.131-5.72 0-33.259 12.952-64.528 36.47-88.046s54.787-36.47 88.046-36.47c1.908-.002 3.816.042 5.721.129zm-179.888 365.385h-66.832v-50.229l36.544-36.543c5.887-5.887 9.08-14.034 8.759-22.353l-1.043-27.073v-20.589c0-4.142-3.358-7.5-7.5-7.5s-7.5 3.358-7.5 7.5c.002 19.192-.141 20.779.418 31.73-19.476-35.393-29.678-75.042-29.678-115.943 0-61.867 23.155-120.176 65.365-165.029l71.819 71.819c-23.077 25.64-35.7 58.454-35.7 93.21 0 9.166.901 18.341 2.676 27.292l-15.208 26.342v-9.296c0-20.002-16.273-36.276-36.276-36.276-12.912 0-23.417 10.504-23.417 23.417v17.734c0 4.142 3.358 7.5 7.5 7.5 4.143 0 7.5-3.358 7.5-7.5v-17.734c0-4.641 3.776-8.417 8.417-8.417 11.731 0 21.276 9.544 21.276 21.276v41.823c0 9.396 5.032 17.997 13.132 22.445 2.762 1.517 5.319 3.414 7.6 5.638 6.659 6.496 10.385 15.264 10.491 24.687.106 9.414-3.417 18.253-9.92 24.888-2.489 2.54-5.319 4.673-8.412 6.34-3.646 1.965-5.009 6.514-3.044 10.16 1.355 2.515 3.939 3.943 6.609 3.943 1.201 0 2.42-.29 3.551-.899 4.423-2.383 8.463-5.427 12.009-9.045 9.312-9.501 14.357-22.128 14.206-35.556-.151-13.437-5.484-25.957-15.017-35.255-3.251-3.171-6.903-5.879-10.854-8.049-3.301-1.812-5.352-5.375-5.352-9.296v-3.42c.694-.622 1.299-1.358 1.784-2.197l57.062-98.834c1.407-2.438 3.68-4.181 6.398-4.91s5.558-.354 7.995 1.053c2.438 1.407 4.181 3.679 4.909 6.398.729 2.719.355 5.558-1.052 7.996l-39.815 68.962c-1.882 3.259-1.057 7.409 1.929 9.7s7.208 2.014 9.869-.647l62.457-62.457c4.108-4.108 10.793-4.109 14.901 0 1.99 1.99 3.086 4.636 3.086 7.45s-1.096 5.46-3.086 7.451l-62.533 62.533c-2.662 2.661-2.938 6.883-.647 9.869 2.292 2.985 6.44 3.81 9.7 1.929l69.059-39.871c5.031-2.905 11.489-1.175 14.394 3.857 2.905 5.031 1.174 11.488-3.857 14.394l-54.535 31.486c-3.259 1.882-4.62 5.888-3.179 9.365s5.235 5.347 8.87 4.375l43.102-11.549c2.718-.728 5.559-.354 7.995 1.053 2.438 1.407 4.181 3.679 4.909 6.398 1.504 5.612-1.838 11.401-7.45 12.905l-34.767 9.315c-4.547 1.219-8.71 3.622-12.039 6.951l-39.481 39.481c-10.833 10.833-25.2 17.427-40.454 18.568-7.255.543-14.018 3.609-19.044 8.635zm174.168 0c-37.706 0-74.708-8.787-108.092-25.549 12.228-3.764 23.456-10.475 32.629-19.649l39.481-39.481c1.469-1.469 3.307-2.53 5.314-3.068l34.767-9.315c3.73-1 7.045-2.78 9.819-5.119 29.436-2.922 57.281-15.254 79.287-35.006l71.823 71.823c-44.852 42.209-103.162 65.364-165.028 65.364zm185.195-327.069-39.48 39.48c-3.329 3.328-5.733 7.491-6.952 12.04l-9.315 34.766c-.728 2.718-2.472 4.99-4.909 6.398-2.437 1.407-5.275 1.782-7.996 1.052-2.718-.728-4.991-2.472-6.398-4.909s-1.781-5.277-1.052-7.996l11.549-43.102c.974-3.635-.897-7.43-4.375-8.87-.935-.387-1.908-.572-2.867-.572-2.61 0-5.122 1.368-6.498 3.751l-31.486 54.535c-2.905 5.032-9.362 6.762-14.394 3.857-5.031-2.905-6.762-9.362-3.857-14.394l39.871-69.059c1.882-3.259 1.057-7.409-1.929-9.7-2.988-2.292-7.208-2.015-9.869.647l-62.533 62.533c-4.108 4.108-10.793 4.108-14.901 0s-4.108-10.793 0-14.901l62.457-62.457c2.662-2.661 2.938-6.883.647-9.869-2.291-2.985-6.442-3.811-9.7-1.929l-68.962 39.815c-5.032 2.904-11.488 1.175-14.394-3.857-2.905-5.031-1.174-11.488 3.857-14.394l98.835-57.062c3.52-2.033 5.243-6.194 4.191-10.114-1.051-3.927-4.624-6.669-8.688-6.669h-31.709c-11.731 0-21.276-9.544-21.276-21.276 0-4.641 3.776-8.417 8.417-8.417h73.324l27.072 1.043c8.32.325 16.467-2.872 22.353-8.759l36.543-36.542h50.229v66.832l-28.602 28.602c-5.026 5.025-8.092 11.789-8.635 19.043-1.141 15.254-7.735 29.621-18.568 40.454z"/></g><g/><g/><g/><g/><g/><g/><g/><g/><g/><g/><g/><g/><g/><g/><g/></svg>