<svg id="Capa_1" enable-background="new 0 0 512 512" viewBox="0 0 512 512" xmlns="http://www.w3.org/2000/svg"><g><path d="m428.616 469.448-10.922-215.254-161.694-193.278-181.695 213.278v195.254l333.389 10.162c5.524-.001 20.922-4.64 20.922-10.162z" fill="#dff6fd"/><path d="m417.695 218.817v240.63c0 5.523-4.477 10-10 10h-333.39v10c0 5.523 4.477 10 10 10h343.389c5.523 0 10-4.477 10-10v-205.253z" fill="#99e6fc"/><path d="m342.121 385.826-8.986-19.315c0-1.565-4.092-5.375-4.367-6.86-1.485-.275-3.016-.419-4.581-.419h-136.375c-13.807 0-25 11.193-25 25v1.594l161.375 8.892c2.762 0 17.934-6.13 17.934-8.892z" fill="#9be69d"/><path d="m328.768 359.652c.275 1.485.419 3.016.419 4.581v16.594c0 2.761-2.239 5-5 5h-161.375l-10.553 31.288 209.822-7.604-12.894-25.278c.001-12.243-8.799-22.43-20.419-24.581z" fill="#6fd7a3"/><path d="m419.341 154.14v-97.595c0-4.615-3.741-8.356-8.356-8.356h-61.157c-4.615 0-8.356 3.741-8.356 8.356v19.726l36.293 59.907z" fill="#5f99d7"/><path d="m341.472 76.271v28.285l31.065 58.862 46.804 19.007v-28.285z" fill="#3c87d0"/><path d="m349.188 405.826h-186.376l-10 17.704 10 13.359h186.376l10-13.834z" fill="#e19974"/><path d="m157.812 452.42h-21.062c-2.761 0-5-2.239-5-5v-83.188c0-2.761 2.239-5 5-5h21.062c2.761 0 5 2.239 5 5v83.188c0 2.762-2.238 5-5 5z" fill="#e8ad8c"/><path d="m354.188 452.42h21.062c2.761 0 5-2.239 5-5v-129.781c0-2.761-2.239-5-5-5h-21.062c-2.761 0-5 2.239-5 5v129.781c0 2.762 2.238 5 5 5z" fill="#e8ad8c"/><path d="m271.531 192.309v-9.452c0-2.761-2.239-5-5-5h-21.062c-2.761 0-5 2.239-5 5v9.446c0 2.992-1.3 5.876-3.652 7.725-7.755 6.097-12.538 15.802-11.805 26.591 1.042 15.329 13.454 27.758 28.782 28.817 18.153 1.254 33.269-13.101 33.269-30.986 0-9.865-4.602-18.65-11.773-24.338-2.381-1.887-3.759-4.765-3.759-7.803z" fill="#ffe177"/><path d="m256 81.589c5.119 0 5.647 5.007 9.552 8.911l200.252 196.076c1.953 1.953 9.453-2.005 11.406-3.957l16.608-25.717-231.91-231.91c-3.263-3.263-8.554-3.263-11.817 0l-240.143 240.144c-3.263 3.263-3.263 8.554 0 11.817l16.657 16.656 215.358-199.109c3.905-3.905 8.918-12.911 14.037-12.911z" fill="#9be69d"/><path d="m493.819 256.903-19.03 19.03c-1.953 1.953-5.118 1.953-7.071 0l-197.576-197.576c-3.905-3.904-9.023-5.857-14.142-5.857s-10.237 1.953-14.142 5.857l-215.254 215.253 8.234 8.234c3.263 3.263 8.554 3.263 11.817 0l209.345-209.345 209.345 209.345c3.263 3.263 8.554 3.263 11.817 0l24.89-24.89c3.263-3.263 3.263-8.554 0-11.817z" fill="#6fd7a3"/><path d="m507.356 259.832-80.515-80.515v-122.772c0-8.743-7.113-15.856-15.856-15.856h-61.157c-8.743 0-15.856 7.113-15.856 15.856v29.904l-66.76-66.76c-6.181-6.182-16.24-6.182-22.423 0l-102.045 102.045c-2.929 2.93-2.929 7.678 0 10.607 2.929 2.928 7.678 2.928 10.606 0l102.044-102.045c.335-.334.877-.334 1.211 0l240.144 240.143c.167.167.251.371.251.606s-.084.438-.25.604l-24.891 24.892c-.333.332-.877.333-1.21-.001l-209.346-209.344c-2.929-2.928-7.678-2.928-10.606 0l-209.345 209.344c-.333.334-.877.334-1.211 0l-24.891-24.89c-.166-.166-.25-.369-.25-.604s.084-.439.25-.605l112.792-112.791c2.929-2.93 2.929-7.678 0-10.607-2.929-2.928-7.678-2.928-10.606 0l-112.792 112.79c-2.995 2.995-4.644 6.977-4.644 11.212s1.649 8.218 4.644 11.212l24.89 24.89c2.995 2.995 6.977 4.645 11.212 4.645s8.217-1.649 11.212-4.644l14.847-14.847v187.146c0 9.649 7.851 17.5 17.5 17.5h343.39c9.649 0 17.5-7.851 17.5-17.5v-102.234c0-4.143-3.358-7.5-7.5-7.5s-7.5 3.357-7.5 7.5v102.234c0 1.379-1.122 2.5-2.5 2.5h-343.39c-1.378 0-2.5-1.121-2.5-2.5v-202.146l166.695-166.695v59.752h-3.031c-6.893 0-12.5 5.607-12.5 12.5v9.446c0 .746-.302 1.447-.788 1.83-10.042 7.896-15.52 20.229-14.652 32.995 1.297 19.085 16.666 34.472 35.749 35.791.926.063 1.848.096 2.766.096 9.802 0 19.042-3.628 26.264-10.368 7.789-7.27 12.256-17.547 12.256-28.196 0-11.835-5.326-22.848-14.611-30.213-.584-.464-.92-1.167-.92-1.93v-9.451c0-6.893-5.607-12.5-12.5-12.5h-3.033v-59.752l166.695 166.695v65.912c0 4.143 3.358 7.5 7.5 7.5s7.5-3.357 7.5-7.5v-50.912l14.847 14.847c2.995 2.994 6.977 4.644 11.212 4.644 4.236 0 8.218-1.649 11.212-4.644l24.89-24.891c2.995-2.994 4.645-6.977 4.645-11.212s-1.65-8.217-4.645-11.213zm-158.384-203.287c0-.473.384-.856.856-.856h61.157c.472 0 .856.384.856.856v107.772l-62.869-62.869zm-78.344 149.445c5.678 4.504 8.934 11.233 8.934 18.462 0 6.603-2.66 12.723-7.491 17.23-4.826 4.503-11.133 6.73-17.761 6.273-11.646-.805-21.025-10.195-21.816-21.844-.531-7.812 2.818-15.358 8.958-20.187 4.141-3.257 6.516-8.222 6.516-13.621v-6.946h16.062v6.951c.001 5.368 2.406 10.354 6.598 13.682z"/><path d="m354.188 459.92h21.062c6.893 0 12.5-5.607 12.5-12.5v-129.781c0-6.893-5.607-12.5-12.5-12.5h-21.062c-6.893 0-12.5 5.607-12.5 12.5v39.218c-5.055-3.242-11.062-5.124-17.5-5.124h-136.376c-7.162 0-13.79 2.329-19.167 6.269-2.162-3.744-6.208-6.269-10.833-6.269h-21.062c-6.893 0-12.5 5.607-12.5 12.5v83.188c0 6.893 5.607 12.5 12.5 12.5h21.062c6.893 0 12.5-5.607 12.5-12.5v-3.031h24.958c4.142 0 7.5-3.357 7.5-7.5s-3.358-7.5-7.5-7.5h-24.958v-16.062h171.375v16.062h-111.417c-4.142 0-7.5 3.357-7.5 7.5s3.358 7.5 7.5 7.5h111.417v3.031c.001 6.892 5.608 12.499 12.501 12.499zm2.5-139.781h16.062v124.781h-16.062zm-201.376 124.781h-16.062v-78.188h16.062zm15-46.594v-14.094c0-9.649 7.851-17.5 17.5-17.5h136.375c9.649 0 17.5 7.851 17.5 17.5v14.094z"/><path d="m263.5 302.108v-15.531c0-4.143-3.358-7.5-7.5-7.5s-7.5 3.357-7.5 7.5v15.531c0 4.143 3.358 7.5 7.5 7.5s7.5-3.358 7.5-7.5z"/><path d="m310.912 286.863c1.919 0 3.839-.732 5.303-2.196 2.929-2.929 2.929-7.678 0-10.606l-10.982-10.982c-2.928-2.929-7.677-2.93-10.606-.001s-2.929 7.678 0 10.606l10.982 10.982c1.464 1.464 3.383 2.197 5.303 2.197z"/><path d="m206.391 284.666 10.982-10.982c2.929-2.93 2.929-7.678 0-10.607-2.929-2.928-7.678-2.928-10.606 0l-10.982 10.982c-2.929 2.93-2.929 7.678 0 10.607 1.464 1.464 3.384 2.196 5.303 2.196s3.839-.732 5.303-2.196z"/></g><g/><g/><g/><g/><g/><g/><g/><g/><g/><g/><g/><g/><g/><g/><g/></svg>