<svg id="Capa_1" enable-background="new 0 0 512 512" height="512" viewBox="0 0 512 512" width="512" xmlns="http://www.w3.org/2000/svg"><g><g><g><path d="m439.076 249.296c3.252 3.252 3.027 8.57-.454 11.574-7.21 6.223-.874 11.403-9.075 15.538-43.12 21.743-97.179 14.632-133.144-21.333l-28.69-28.69 30.655-30.655 28.69 28.69c19.221 19.221 46.739 25.212 71.132 17.973 8.87-2.633 17.328 7.128 24.822.996 3.16-2.585 7.743-2.415 10.63.471z" fill="#806e7b"/><path d="m433.644 229.723 19.573 19.573c3.253 3.253 3.026 8.57-.46 11.575-7.212 6.223-15.012 11.406-23.214 15.535-.092-2.439-1.209-5.056-3.309-7.156l-24.331-24.331c-1.117-1.117-2.39-1.966-3.72-2.517 8.874-2.637 17.331-7.022 24.833-13.152 3.154-2.589 7.736-2.42 10.628.473z" fill="#6c5e68"/><path d="m106.697 497.178 42.79-81.826 9.717-45.625-30.818-30.818-33.483 19.341-66.003 66.003c-6.156 6.156-6.156 16.138 0 22.294l53.336 53.336c7.139 7.137 19.054 5.82 24.461-2.705z" fill="#d59186"/><path d="m128.387 324.772 26.414 12.271 18.544 32.686-23.865 45.629-54.638-57.042z" fill="#cb7e72"/><path d="m415.948 53.926-10.557 24.699-79.865 65.723-25.34-25.34 69.202-69.201c2.809-2.809 6.842-4.02 10.734-3.222z" fill="#ac9da9"/><path d="m435.037 34.838-6.695 20.837-14.518.376-35.829-7.347c-3.889-.792-7.919.41-10.734 3.224l21.213-21.213c2.814-2.814 6.845-4.016 10.734-3.225z" fill="#988393"/><path d="m461.362 59.193-136.388 136.387-25.34-25.34 136.388-136.388c3.078-3.078 8.069-3.078 11.147 0l14.193 14.193c3.078 3.079 3.078 8.069 0 11.148z" fill="#806e7b"/><path d="m471.212 9.806 14.192 14.192c3.083 3.083 3.083 8.075 0 11.158l-28.284 28.284c3.083-3.083 3.083-8.075 0-11.158l-14.192-14.192c-3.076-3.076-8.068-3.076-11.151.007l28.284-28.284c3.083-3.083 8.075-3.083 11.151-.007z" fill="#6c5e68"/><path d="m265.838 448.237-5.055 5.055c-5.418 5.418-14.48 4.33-18.462-2.217l-69.585-114.416 34.285-34.285 60.558 131.36c2.833 4.657 2.114 10.648-1.741 14.503z" fill="#d59186"/><path d="m207.024 302.378 72.577 119.331c2.836 4.66 2.114 10.656-1.739 14.51l-14.142 14.141c3.854-3.854 4.575-9.85 1.74-14.51l-72.578-119.33z" fill="#cb7e72"/><path d="m390.005 138.925-50.174 64.316-166.485 166.485-59.265-59.265c-7.695-7.696-7.695-20.172 0-27.868l36.58-36.58 62.709-48.567 22.95-37.092 30.312-30.312 64.316-50.174c6.156-6.156 16.138-6.156 22.294 0l36.762 36.762c6.158 6.157 6.158 16.138.001 22.295z" fill="#ac9da9"/><path d="m332.591 86.371 50.904 50.904c6.159 6.159 6.159 16.143 0 22.302l-13.958 13.958-11.528-2.614.922 13.221-19.099 19.099-73.199-73.199 43.664-43.664c6.158-6.159 16.143-6.159 22.294-.007z" fill="#d59186"/><path d="m382.782 160.292c.184-.184.361-.375.53-.559l.014.014z" fill="#fea95c"/><path d="m250.848 197.176-63.365 63.365c-6.156 6.156-16.138 6.156-22.294 0l-14.528-14.527 85.659-85.659 14.527 14.527c6.157 6.156 6.157 16.138.001 22.294z" fill="#988393"/><path d="m350.976 67.987 50.904 50.904c6.159 6.159 6.159 16.143 0 22.302l-7.948 7.948-16.101 1.959c6.159-6.159 11.109-6.951 4.95-13.11l-50.905-50.904c-6.152-6.152-16.136-6.152-22.295.007l19.099-19.099c6.16-6.159 16.144-6.159 22.296-.007z" fill="#cb7e72"/></g></g><path d="m108.772 277.285c-10.607 10.608-10.607 27.868 0 38.475l9.002 9.002-29.538 29.538c-2.929 2.929-2.929 7.678 0 10.606 1.464 1.464 3.384 2.197 5.303 2.197 1.92 0 3.839-.732 5.303-2.197l29.538-29.538 35.761 35.761-63.93 122.25c-1.361 2.005-3.506 3.3-5.926 3.568-2.508.274-4.969-.587-6.752-2.371l-53.335-53.336c-3.223-3.223-3.223-8.466 0-11.688l41.532-41.532c2.929-2.929 2.929-7.678 0-10.607s-7.678-2.929-10.606 0l-41.532 41.532c-9.07 9.07-9.071 23.83 0 32.901l53.337 53.337c4.403 4.405 10.273 6.817 16.412 6.817.86 0 1.726-.047 2.593-.143 7.058-.78 13.287-4.668 17.09-10.664.112-.176.216-.356.313-.541l66.119-126.437 4.564-4.564 51.889 85.319c3.102 5.1 8.279 8.433 14.205 9.145.784.094 1.566.141 2.344.141 5.095 0 9.962-1.999 13.626-5.662l17.074-17.075c6.321-6.32 7.491-16.068 2.847-23.705l-26.914-44.254 40.94-40.939c10.664-10.665 10.664-28.019 0-38.684l-20.147-20.147 12.326-12.326c21.852 21.308 50.638 33.606 81.247 34.658 1.431.049 2.858.074 4.284.074 29.435-.001 57.671-10.444 79.923-29.65 3.241-2.798 5.19-6.853 5.348-11.125.156-4.254-1.479-8.421-4.49-11.431l-19.576-19.577c-5.611-5.61-14.502-6.029-20.683-.973-12.221 9.997-27.725 15.086-43.589 14.351-15.471-.724-30.029-6.969-41.189-17.602l73.702-73.702c7.255-7.255 8.69-18.145 4.339-26.857l31.539-31.539c2.929-2.929 2.929-7.678 0-10.607-2.93-2.929-7.678-2.929-10.608 0l-30.686 30.686-14.734-14.734 53.213-53.213c.036-.035.07-.07.105-.105l25.011-25.011c.148-.149.393-.15.541-.001l14.193 14.192c.149.149.149.392 0 .54l-24.531 24.531c-2.929 2.929-2.929 7.678 0 10.607 2.93 2.929 7.678 2.929 10.608 0l24.531-24.531c2.905-2.905 4.505-6.768 4.505-10.877s-1.6-7.972-4.505-10.877l-14.194-14.193c-5.997-5.998-15.756-5.997-21.755 0l-22.169 22.169-31.872-6.532c-6.377-1.307-12.938.661-17.544 5.266l-32.934 32.934c-3.194-1.603-6.733-2.471-10.41-2.471-6.215 0-12.057 2.42-16.451 6.814zm10.607 10.606 31.277-31.277 9.225 9.225c4.535 4.536 10.493 6.803 16.45 6.803 5.958 0 11.915-2.268 16.45-6.803l28.644-28.644c2.929-2.929 2.929-7.678 0-10.607s-7.678-2.929-10.607 0l-28.644 28.644c-3.223 3.222-8.465 3.222-11.688 0l-9.225-9.225 75.054-75.054 9.224 9.225c1.561 1.561 2.421 3.636 2.421 5.843 0 2.208-.86 4.283-2.421 5.844l-11.609 11.608c-2.929 2.929-2.929 7.677 0 10.607 1.464 1.465 3.384 2.197 5.303 2.197s3.839-.732 5.303-2.197l11.608-11.608c4.395-4.394 6.815-10.236 6.815-16.451s-2.42-12.057-6.815-16.45l-9.224-9.224 19.706-19.705 62.593 62.592-155.877 155.882-53.962-53.963c-4.76-4.759-4.76-12.503-.001-17.262zm153.172 143.019-17.074 17.076c-1.294 1.293-2.794 1.332-3.574 1.235-.779-.093-2.228-.483-3.178-2.045l-53.788-88.442 23.369-23.369 54.882 90.241c1.039 1.709.778 3.89-.637 5.304zm16.872-126.369c4.816 4.817 4.816 12.654 0 17.471l-38.354 38.355-21.845-35.919 4.151-4.151 3.513 3.513c4.811 4.811 11.207 7.461 18.011 7.461s13.2-2.649 18.011-7.461l5.249-5.249c2.929-2.929 2.929-7.678 0-10.607-2.93-2.929-7.678-2.929-10.607 0l-5.249 5.249c-1.978 1.978-4.607 3.067-7.403 3.067-2.797 0-5.427-1.089-7.404-3.067l-3.513-3.513 25.295-25.295zm84.548-51.768c19.597.916 38.697-5.379 53.788-17.725.167-.137.419-.189.577-.031l19.577 19.576c.037.037.113.113.107.274-.008.189-.117.284-.159.32-41.965 36.222-105.363 34.214-145.045-4.334l20.06-20.06c13.81 13.28 31.884 21.081 51.095 21.98zm22.607-116.894-7.949 7.949-28.388-28.389c-2.929-2.929-7.677-2.93-10.608 0-2.929 2.929-2.929 7.678 0 10.607l28.389 28.389-13.793 13.793-28.389-28.389c-2.929-2.928-7.677-2.93-10.608 0-2.929 2.929-2.929 7.678 0 10.607l28.39 28.389-13.793 13.793-62.594-62.593 56.75-56.75c3.222-3.222 8.467-3.221 11.687 0l50.906 50.905c3.223 3.223 3.223 8.467 0 11.689zm-34.883-67.785 32.085-32.086c1.031-1.031 2.502-1.47 3.926-1.179l22.176 4.545-43.453 43.453z"/></g></svg>