<svg id="Capa_1" enable-background="new 0 0 512 512" height="512" viewBox="0 0 512 512" width="512" xmlns="http://www.w3.org/2000/svg"><g><g><g><path d="m457.636 270.912c5.926 5.292-2.587 3.976-6.416 10.938l-59.765 126.866c-5.282 9.606-18.126 11.805-26.303 4.503-5.926-5.292-7.413-13.976-3.584-20.938l69.765-126.866c1.694-3.081 4.166-5.4 7.013-6.888 6.029-3.151 13.736 7.425 19.29 12.385z" fill="#806e7b"/><path d="m461.22 281.85-69.76 126.87c-4.61 8.37-14.96 11.11-22.96 6.84 2.83-1.48 5.28-3.78 6.96-6.84l69.76-126.87c3.83-6.96 2.34-15.65-3.58-20.94-1.05-.94-2.17-1.72-3.35-2.34 6.03-3.2 13.77-2.64 19.35 2.34 5.92 5.29 7.41 13.98 3.58 20.94z" fill="#6c5e68"/><path d="m171.16 180.369c5.926-5.292 7.413-13.976 3.584-20.938l-69.764-116.866c-4.699-8.546-15.382-21.229-23.44-16.577-1 .577-1.96 1.268-2.863 2.074-5.927 5.292-7.413 13.976-3.585 20.938l69.765 126.866c5.283 9.607 18.126 11.805 26.303 4.503z" fill="#806e7b"/><path d="m171.16 180.37c-5.73 5.12-13.76 5.57-19.86 2.07 1-.58 1.96-1.26 2.86-2.07 5.93-5.29 7.41-13.98 3.58-20.94l-69.76-126.87c-1.58-2.87-3.84-5.08-6.44-6.57 8.05-4.65 18.74-1.97 23.44 6.57l69.76 126.87c3.83 6.96 2.35 15.65-3.58 20.94z" fill="#6c5e68"/><path d="m276.652 249.088c5.926-5.292-.587-11.976-4.416-18.938l-59.765-126.866c-5.283-9.606-18.126-11.805-26.303-4.503-5.926 5.292-7.413 13.976-3.584 20.938l69.765 126.866c1.797 3.267 4.469 5.678 7.534 7.149 5.946 2.854 11.373.172 16.769-4.646z" fill="#806e7b"/><path d="m278.65 251.09c-5.42 4.84-12.89 5.5-18.85 2.6 1.36-.67 2.65-1.53 3.85-2.6 5.93-5.29 7.41-13.98 3.59-20.94l-69.77-126.87c-1.78-3.24-4.42-5.63-7.45-7.1 7.92-3.9 17.94-1.1 22.45 7.1l69.77 126.87c3.82 6.96 2.34 15.65-3.59 20.94z" fill="#6c5e68"/><path d="m456.5 163.891h-439c-5.523 0-10-4.477-10-10v-19.101c0-5.523 4.477-10 10-10h439c5.523 0 10 4.477 10 10v19.101c0 5.523-4.477 10-10 10z" fill="#ac9da9"/><path d="m504.5 134.79v19.1c0 5.52-4.48 10-10 10h-40c5.52 0 10-4.48 10-10v-19.1c0-5.52-4.48-10-10-10h40c5.52 0 10 4.48 10 10z" fill="#988393"/><path d="m161.605 229.465c7.933.448 15.124-4.641 17.34-12.271l40.377-139.039c3.057-10.528-4.47-21.164-15.415-21.783-7.933-.448-15.124 4.641-17.34 12.271l-40.377 139.039c-3.057 10.528 4.47 21.164 15.415 21.783z" fill="#fdb97e"/><path d="m196.574 228.441c7.933.448 12.124-1.641 14.34-9.271l33.377-139.039c3.057-10.528 5.53-18.164-5.415-18.783-3.405-.192-6.673-2.365-9.47-.754-3.719 2.142-6.605 5.67-7.87 10.025l-23.971 48.111-16.405 90.928c-2.282 7.857 1.332 15.775 7.862 19.544 2.219 1.28 4.775-.918 7.552-.761z" fill="#806e7b"/><path d="m238.876 58.348c-3.398-.192-6.656.638-9.448 2.242 6.53 3.769 10.145 11.684 7.863 19.541l-40.377 139.039c-1.267 4.362-4.163 7.888-7.892 10.029 2.22 1.281 4.775 2.085 7.552 2.242 7.933.449 15.124-4.641 17.34-12.271l40.377-139.039c3.057-10.528-4.47-21.164-15.415-21.783z" fill="#6c5e68"/><path d="m161.605 226.465c7.933.448 12.124-1.641 14.34-9.271l33.377-139.039c3.057-10.528 5.53-18.164-5.415-18.783-3.405-.193-6.673-2.365-9.47-.754-3.719 2.142-6.605 5.67-7.87 10.025l-20.619 36.567-19.758 102.472c-2.282 7.857 1.332 15.775 7.862 19.544 2.22 1.28 4.777-.918 7.553-.761z" fill="#806e7b"/><path d="m203.907 56.372c-3.398-.192-6.655.638-9.448 2.242 6.53 3.769 10.145 11.684 7.863 19.541l-40.377 139.039c-1.267 4.362-4.164 7.888-7.892 10.029 2.22 1.281 4.775 2.085 7.552 2.242 7.933.449 15.124-4.641 17.34-12.271l40.377-139.039c3.057-10.528-4.47-21.164-15.415-21.783z" fill="#6c5e68"/><path d="m350.145 331.631c5.926 5.292 7.413 13.976 3.584 20.938l-79.765 116.866c-4.7 8.547-5.386 21.23-13.445 16.574-.998-.577-1.957-1.266-2.858-2.071-5.926-5.292-7.413-13.976-3.584-20.938l69.765-126.866c5.282-9.607 18.126-11.805 26.303-4.503z" fill="#806e7b"/><path d="m353.73 352.57-69.77 126.87c-4.7 8.54-15.38 11.23-23.44 6.57 2.6-1.49 4.86-3.7 6.44-6.57l69.77-126.87c3.83-6.96 2.34-15.65-3.59-20.94-.9-.81-1.86-1.5-2.86-2.07 6.1-3.5 14.13-3.05 19.86 2.07 5.93 5.29 7.42 13.98 3.59 20.94z" fill="#6c5e68"/><path d="m460.5 396.741h-443c-5.523 0-10-4.477-10-10v-19.101c0-5.523 4.477-10 10-10h443c5.523 0 10 4.477 10 10v19.101c0 5.523-4.477 10-10 10z" fill="#ac9da9"/><path d="m375.558 282.559c7.933-.448 12.124 2.641 14.34 10.271l32.377 139.039c3.057 10.528 6.53 18.164-4.415 18.783-2.972.168-5.841 2.559-8.382 1.329-4.241-2.051-7.572-5.829-8.958-10.6l-38.718-98.891-1.659-40.148c-2.397-8.255 1.713-16.577 8.876-20.083 1.972-.966 4.176.434 6.539.3z" fill="#806e7b"/><path d="m417.86 453.65c-.33.02-.65.03-.97.03-2.65 0-5.21-.62-7.49-1.74 7.17-3.5 11.27-11.81 8.88-20.07l-40.38-139.04c-1.38-4.74-4.68-8.5-8.88-10.56 1.97-.97 4.18-1.57 6.54-1.71 7.93-.45 15.12 4.64 17.34 12.27l40.38 139.04c3.05 10.53-4.47 21.16-15.42 21.78z" fill="#6c5e68"/><path d="m340.588 284.534c7.933-.448 12.124 2.641 14.34 10.271l32.377 139.039c3.057 10.528 6.53 18.164-4.415 18.783-2.972.168-5.841 2.559-8.382 1.329-4.241-2.051-7.572-5.829-8.958-10.6l-40.916-106.46.539-32.579c-2.397-8.255 1.713-16.577 8.876-20.083 1.973-.966 4.176.434 6.539.3z" fill="#806e7b"/><path d="m382.89 455.625c-.33.02-.65.03-.97.03-2.65 0-5.21-.62-7.49-1.74 7.17-3.5 11.27-11.81 8.88-20.07l-40.38-139.04c-1.38-4.74-4.68-8.5-8.88-10.56 1.97-.97 4.18-1.57 6.54-1.71 7.93-.45 15.12 4.64 17.34 12.27l40.38 139.04c3.05 10.53-4.47 21.16-15.42 21.78z" fill="#6c5e68"/><path d="m126.655 224.49c7.933.448 12.124-1.641 14.34-9.271l33.377-139.039c3.057-10.528 5.53-18.164-5.415-18.783-3.405-.193-6.673-2.365-9.47-.754-3.719 2.142-6.605 5.67-7.87 10.025l-40.377 139.039c-2.282 7.857 1.332 15.775 7.862 19.544 2.22 1.281 4.776-.918 7.553-.761z" fill="#806e7b"/><path d="m168.956 54.397c-3.398-.192-6.655.638-9.448 2.242 6.53 3.769 10.145 11.684 7.863 19.541l-40.377 139.039c-1.267 4.362-4.164 7.888-7.892 10.029 2.22 1.281 4.775 2.085 7.552 2.242 7.933.448 15.124-4.641 17.34-12.271l40.378-139.039c3.057-10.528-4.47-21.164-15.416-21.783z" fill="#6c5e68"/><path d="m504.5 367.789v19.1c0 5.52-4.48 10-10 10h-40c5.52 0 10-4.48 10-10v-19.1c0-5.52-4.48-10-10-10h40c5.52 0 10 4.48 10 10z" fill="#988393"/><path d="m305.638 286.509c7.933-.448 12.124 2.641 14.34 10.271l32.377 139.039c3.057 10.528 6.53 18.164-4.415 18.783-2.972.168-5.841 2.559-8.382 1.329-4.241-2.052-7.572-5.829-8.958-10.6l-40.377-139.039c-2.397-8.255 1.713-16.577 8.876-20.083 1.972-.966 4.176.434 6.539.3z" fill="#806e7b"/><path d="m347.94 457.6c-.33.02-.65.03-.97.03-2.65 0-5.21-.62-7.49-1.74 7.17-3.5 11.27-11.81 8.88-20.07l-40.38-139.04c-1.38-4.74-4.68-8.5-8.88-10.56 1.97-.97 4.18-1.57 6.54-1.71 7.93-.45 15.12 4.64 17.34 12.27l40.38 139.04c3.05 10.53-4.47 21.16-15.42 21.78z" fill="#6c5e68"/></g></g><g><path d="m494.5 117.29h-243.19l10.184-35.067c2.098-7.225.808-14.89-3.537-21.031-4.346-6.141-11.146-9.907-18.658-10.332-6.81-.372-13.172 2.034-17.905 6.341-4.326-4.943-10.415-7.94-17.064-8.316-6.807-.375-13.165 2.028-17.897 6.33-4.325-4.935-10.41-7.929-17.054-8.305-11.485-.631-21.756 6.615-24.966 17.667l-4.586 15.793-28.275-51.42c-3.626-6.592-9.958-11.101-17.373-12.37-7.415-1.267-14.886.877-20.498 5.889-8.584 7.665-10.706 20.062-5.161 30.146l35.566 64.676h-86.586c-9.649 0-17.5 7.851-17.5 17.5v19.101c0 9.649 7.851 17.5 17.5 17.5h95.895l-9.358 32.225c-2.098 7.226-.809 14.891 3.537 21.031 4.346 6.142 11.146 9.907 18.658 10.332.477.026.951.04 1.423.04 6.265 0 12.077-2.357 16.48-6.363 4.325 4.931 10.407 7.922 17.048 8.297.477.026.95.04 1.422.04 6.27-.001 12.086-2.361 16.49-6.372 4.325 4.938 10.41 7.932 17.055 8.308.477.026.952.04 1.425.04 10.905 0 20.465-7.114 23.542-17.707l3.023-10.41 21.637 39.346c3.625 6.593 9.957 11.102 17.372 12.371 1.4.239 2.801.357 4.192.357 5.977 0 11.754-2.18 16.306-6.244 8.584-7.665 10.706-20.062 5.161-30.148l-30.325-55.145h59.548c4.142 0 7.5-3.357 7.5-7.5s-3.358-7.5-7.5-7.5h-78.076l6.999-24.101h247.546c1.378 0 2.5 1.121 2.5 2.5v19.101c0 1.379-1.122 2.5-2.5 2.5h-143.782c-4.142 0-7.5 3.357-7.5 7.5s3.358 7.5 7.5 7.5h143.782c9.649 0 17.5-7.851 17.5-17.5v-19.1c0-9.65-7.851-17.5-17.5-17.5zm-412.836-71.905c-2.158-3.923-1.332-8.746 2.008-11.729 2.184-1.95 5.092-2.783 7.976-2.291 2.886.494 5.35 2.248 6.76 4.813l35.503 64.562-4.806 16.549h-7.9zm-64.164 111.005c-1.378 0-2.5-1.121-2.5-2.5v-19.1c0-1.379 1.122-2.5 2.5-2.5h107.249l-6.999 24.101h-100.25zm109.578 63.612c-2.923-.165-5.569-1.631-7.26-4.02-1.691-2.39-2.192-5.373-1.376-8.184l40.377-139.039c1.249-4.3 5.237-7.124 9.715-6.874 2.922.165 5.568 1.63 7.259 4.019 1.691 2.39 2.193 5.373 1.376 8.185l-40.377 139.038c-1.248 4.3-5.234 7.138-9.714 6.875zm79.633-2.924c-1.248 4.301-5.239 7.13-9.715 6.874-2.922-.165-5.568-1.63-7.259-4.02-1.691-2.389-2.192-5.372-1.376-8.183l17.444-60.07c1.155-3.979-1.133-8.139-5.111-9.294-3.981-1.155-8.139 1.133-9.294 5.11l-17.444 60.07c-.134.461-.253.924-.36 1.388-.124.286-.237.58-.326.887l-1.528 5.261c-1.249 4.301-5.237 7.127-9.715 6.874-2.922-.165-5.568-1.63-7.259-4.019-1.691-2.39-2.193-5.373-1.376-8.185.012-.04.018-.08.028-.121l38.153-131.38c.11-.377.204-.757.296-1.136.095-.236.179-.478.252-.727l1.648-5.675c1.249-4.3 5.241-7.144 9.715-6.874 2.922.165 5.568 1.63 7.259 4.019 1.691 2.39 2.193 5.373 1.376 8.184-.044.153-.074.306-.108.459l-11.119 38.288c-1.155 3.978 1.133 8.139 5.111 9.294 3.98 1.155 8.139-1.132 9.294-5.11l13.441-46.283c1.249-4.302 5.25-7.149 9.713-6.875 2.923.165 5.569 1.631 7.261 4.021 1.691 2.39 2.192 5.372 1.376 8.183zm34.654-45.688 34.3 62.372c2.158 3.925 1.332 8.748-2.008 11.731-2.184 1.949-5.09 2.788-7.976 2.29-2.885-.494-5.349-2.248-6.759-4.813l-28.865-52.491 5.544-19.09h5.764z"/><path d="m494.5 350.139h-62.273l35.565-64.676c5.545-10.085 3.423-22.481-5.161-30.145-5.611-5.012-13.082-7.153-20.499-5.888-7.415 1.27-13.747 5.778-17.372 12.37l-21.638 39.348-3.023-10.41c-3.21-11.053-13.482-18.3-24.967-17.667-6.648.376-12.735 3.373-17.061 8.314-4.734-4.31-11.096-6.719-17.907-6.339-6.644.376-12.728 3.369-17.054 8.304-4.733-4.306-11.092-6.711-17.898-6.329-7.512.425-14.312 4.191-18.658 10.332-4.346 6.142-5.635 13.807-3.537 21.031l12.125 41.755h-277.642c-9.649 0-17.5 7.851-17.5 17.5v19.101c0 9.649 7.851 17.5 17.5 17.5h99.398c4.142 0 7.5-3.357 7.5-7.5s-3.358-7.5-7.5-7.5h-99.398c-1.378 0-2.5-1.121-2.5-2.5v-19.101c0-1.379 1.122-2.5 2.5-2.5h282.003l6.999 24.101h-156.917c-4.142 0-7.5 3.357-7.5 7.5s3.358 7.5 7.5 7.5h128.245l-30.325 55.147c-5.545 10.084-3.423 22.48 5.161 30.145 4.552 4.066 10.329 6.246 16.307 6.246 1.39 0 2.791-.118 4.19-.357 7.415-1.27 13.748-5.778 17.373-12.37l28.276-51.419 4.586 15.793c3.077 10.593 12.636 17.707 23.544 17.707.472 0 .946-.014 1.422-.04 6.641-.376 12.723-3.366 17.047-8.297 4.403 4.006 10.216 6.362 16.481 6.362.472 0 .946-.014 1.422-.04 6.645-.376 12.73-3.37 17.056-8.307 4.404 4.011 10.22 6.371 16.491 6.371.472 0 .946-.014 1.422-.04 7.512-.425 14.312-4.191 18.658-10.332 4.346-6.142 5.635-13.807 3.537-21.031l-7.416-25.537h61.438c9.649 0 17.5-7.851 17.5-17.5v-19.101c0-9.65-7.851-17.501-17.5-17.501zm-56.595-81.111c1.411-2.565 3.874-4.318 6.759-4.812 2.885-.496 5.792.341 7.977 2.291 3.34 2.982 4.165 7.806 2.008 11.729l-38.073 69.234-7.536-25.951zm-160.512 206.793c-1.411 2.565-3.875 4.319-6.76 4.813-2.886.491-5.792-.341-7.976-2.291-3.34-2.982-4.165-7.807-2.008-11.73l34.3-62.374h15.909l2.038 7.019zm77.384-29.726c-1.691 2.389-4.336 3.854-7.259 4.018-4.477.255-8.466-2.573-9.715-6.874l-40.376-139.039c-.816-2.81-.315-5.794 1.375-8.183 1.691-2.39 4.337-3.855 7.261-4.021 4.462-.268 8.465 2.575 9.713 6.875l40.377 139.038c.817 2.813.315 5.797-1.376 8.186zm34.951-1.974c-1.691 2.389-4.336 3.853-7.259 4.018-4.465.274-8.465-2.573-9.714-6.874-.274-.943-.721-1.787-1.29-2.516-.129-1.681-.423-3.363-.905-5.022l-38.153-131.38c-.011-.04-.017-.081-.028-.121-.817-2.811-.315-5.794 1.376-8.184s4.337-3.854 7.26-4.02c4.471-.271 8.465 2.574 9.714 6.874.277.955.732 1.809 1.311 2.545.13 1.671.423 3.343.902 4.991l38.055 131.043c.034.154.064.307.109.46.814 2.813.313 5.796-1.378 8.186zm34.969-1.978c-1.691 2.39-4.337 3.855-7.26 4.02-4.473.262-8.465-2.575-9.714-6.875l-40.377-139.038c-.816-2.811-.315-5.794 1.376-8.183 1.691-2.39 4.337-3.854 7.259-4.02h.001c.186-.011.371-.016.555-.016 4.243 0 7.962 2.768 9.159 6.89l40.377 139.039c.816 2.811.315 5.794-1.376 8.183zm72.303-55.403c0 1.379-1.122 2.5-2.5 2.5h-65.794l-6.999-24.101h72.793c1.378 0 2.5 1.121 2.5 2.5z"/></g></g></svg>