<svg id="Capa_1" enable-background="new 0 0 512 512" height="512" viewBox="0 0 512 512" width="512" xmlns="http://www.w3.org/2000/svg"><g><g><path d="m430.482 250.082h-5.27l-23.572-10v122.077h29.949c31.331 0 56.656-25.712 56.026-57.187-.613-30.683-26.444-54.89-57.133-54.89z" fill="#f6a96c"/><path d="m81.518 250.082h28.842v112.077h-29.95c-31.331 0-56.657-25.712-56.026-57.187.614-30.683 26.445-54.89 57.134-54.89z" fill="#f6a96c"/><path d="m256 502.5c-6.257 0-12.431 1.641-18.5.941-79.584-9.17-141.379-76.779-141.379-158.82v-77.002c0-88.299 71.58-159.879 159.879-159.879 88.299 0 129.879 71.58 129.879 159.879v77.002c0 88.299-41.58 157.879-129.879 157.879z" fill="#fed2a4"/><path d="m415.88 267.62v77c0 88.3-71.58 159.88-159.88 159.88-6.26 0-12.43-.36-18.5-1.06 79.58-9.17 141.38-76.78 141.38-158.82v-77c0-44.15-17.9-84.12-46.83-113.05-24.83-24.83-57.79-41.53-94.55-45.77 6.07-.7 12.24-1.06 18.5-1.06 44.15 0 84.12 17.9 113.05 46.83s46.83 68.9 46.83 113.05z" fill="#ffbd86"/><path d="m88.002 250.091h301.995c7.315 0 13.245-5.93 13.245-13.245v-13.707c0-7.315-5.93-13.245-13.245-13.245l-71.81-10-230.185 10c-7.315 0-13.245 5.93-13.245 13.245v13.707c.001 7.315 5.931 13.245 13.245 13.245z" fill="#f9f7f8"/><path d="m437.24 223.14v13.71c0 7.31-5.93 13.24-13.24 13.24h-40c7.31 0 13.24-5.93 13.24-13.24v-13.71c0-7.32-5.93-13.25-13.24-13.25l15.256-10 21.603 10h3.141c7.31 0 13.24 5.93 13.24 13.25z" fill="#e6eef2"/><path d="m383.859 122.793v87.101h-142.266c-21.757 0-43.182 5.337-62.396 15.542l-63.748 33.859c-23.571 12.519-52.553 8.181-71.426-10.691-21.976-21.976-23.813-56.997-4.257-81.152l51.376-63.457c46.017-56.836 113.642-91.495 186.143-95.995 5.357-.332 10.74 1.5 16.143 1.5h12.138c63.675 0 78.293 49.618 78.293 113.293z" fill="#8ac9fe"/><path d="m420.86 122.79v87.1h-39v-87.1c0-60.06-45.93-109.4-104.58-114.79 5.36-.33 10.74-.5 16.15-.5h12.14c63.67 0 115.29 51.62 115.29 115.29z" fill="#60b7ff"/><path d="m332.521 135.808 3.141 8.946c-3.176 2.753-7.818 2.753-10.994 0l-9.498 1.767-12.361-10.714c-1.925-1.668-3.036-4.126-3.036-6.716v-39.657c0-4.85 3.82-8.781 8.533-8.781h18.718c4.713 0 8.533 3.931 8.533 8.781v39.659c0 2.589-1.111 5.047-3.036 6.715z" fill="#fff1ab"/><path d="m360.56 89.43v39.66c0 2.59-1.11 5.05-3.04 6.72l-21.86 18.94c-3.17 2.76-7.82 2.76-10.99 0l-9.5-8.24 12.35-10.7c1.93-1.67 3.04-4.13 3.04-6.72v-39.66c0-4.85-3.82-8.78-8.54-8.78h30c4.72 0 8.54 3.93 8.54 8.78z" fill="#ffe270"/></g><g><path d="m443.482 243.898c.801-2.205 1.26-4.573 1.26-7.051v-13.707c0-9.941-7.033-18.264-16.383-20.275v-80.072c0-67.708-55.085-122.793-122.794-122.793h-12.138c-57.964 0-115.343 19.26-161.569 54.232-3.303 2.499-3.955 7.203-1.456 10.507 2.5 3.304 7.202 3.956 10.507 1.456 43.637-33.013 97.802-51.195 152.519-51.195h12.138c59.438 0 107.794 48.355 107.794 107.793v79.602h-171.767c-22.898 0-45.69 5.678-65.915 16.418l-63.747 33.859c-20.796 11.047-45.955 7.278-62.604-9.37-19.318-19.319-20.922-49.898-3.731-71.13l51.375-63.457c6.153-7.6 12.82-14.92 19.812-21.753 2.963-2.896 3.018-7.644.123-10.605-2.895-2.963-7.644-3.021-10.606-.123-7.407 7.238-14.469 14.991-20.987 23.042l-51.375 63.457c-22.035 27.216-19.979 66.412 4.782 91.176.857.857 1.734 1.685 2.625 2.489-15.081 11.714-24.075 29.255-24.458 48.423-.346 17.227 6.099 33.482 18.146 45.773 12.05 12.294 28.166 19.064 45.379 19.064h10.056c4.167 28.034 15.353 54.345 32.967 77.16 1.478 1.914 3.697 2.917 5.941 2.917 1.601 0 3.214-.51 4.578-1.564 3.279-2.531 3.885-7.241 1.354-10.52-20.729-26.851-31.686-59.02-31.686-93.031v-72.763c5.238-1.336 10.389-3.306 15.346-5.938l15.711-8.345c.111.005.221.017.334.017h190.102c4.143 0 7.5-3.357 7.5-7.5s-3.357-7.5-7.5-7.5h-162.228l19.827-10.531c18.065-9.595 38.425-14.666 58.879-14.666h179.267c.16 0 .317-.014.475-.024.158.01.315.024.475.024h2.189c3.168 0 5.745 2.577 5.745 5.745v13.707c0 3.168-2.577 5.745-5.745 5.745h-66.199c-4.142 0-7.5 3.357-7.5 7.5s3.358 7.5 7.5 7.5h50.242c.216 3.334.337 6.688.337 10.027v77.002c0 84.024-68.357 152.38-152.379 152.38-36.411 0-71.653-13.047-99.233-36.737-3.143-2.7-7.877-2.338-10.576.803-2.699 3.142-2.34 7.877.803 10.576 30.298 26.025 69.011 40.358 109.006 40.358 83.785 0 153.385-61.883 165.506-142.342h10.084c17.212 0 33.327-6.771 45.378-19.064 12.047-12.291 18.491-28.547 18.147-45.774-.6-29.953-22.766-55.028-51.633-60.922zm-354.566 110.76h-8.506c-13.149 0-25.461-5.173-34.667-14.564-9.202-9.389-14.125-21.809-13.861-34.973.322-16.084 8.664-30.68 22.423-39.519 10.054 5.518 21.243 8.369 32.552 8.369.588 0 1.175-.012 1.764-.027zm334.154-97.066 7.412-.01c26.844 0 49.11 21.326 49.636 47.539.263 13.164-4.66 25.585-13.863 34.974-9.205 9.392-21.517 14.564-34.665 14.564h-8.52z"/><path d="m255.306 428.479c11.514 0 23.259-2.237 35.152-6.711 3.877-1.458 5.838-5.783 4.379-9.66-1.458-3.877-5.782-5.835-9.66-4.379-20.482 7.703-39.5 7.73-58.148.081-3.831-1.574-8.214.26-9.785 4.092-1.572 3.832.26 8.213 4.092 9.785 11.036 4.529 22.386 6.792 33.97 6.792z"/><path d="m196.474 321.807v-18.487c0-4.143-3.358-7.5-7.5-7.5-4.143 0-7.5 3.357-7.5 7.5v18.486c0 4.143 3.357 7.5 7.5 7.5 4.142.001 7.5-3.357 7.5-7.499z"/><path d="m330.526 321.807v-18.487c0-4.143-3.357-7.5-7.5-7.5s-7.5 3.357-7.5 7.5v18.486c0 4.143 3.357 7.5 7.5 7.5 4.143.001 7.5-3.357 7.5-7.499z"/><path d="m319.756 160.423c3.017 2.613 6.713 3.92 10.41 3.92 3.696 0 7.394-1.307 10.408-3.921l21.859-18.945c0-.001.001-.001.001-.001 3.573-3.099 5.623-7.612 5.623-12.383v-39.659c0-8.977-7.192-16.28-16.033-16.28h-43.718c-8.841 0-16.033 7.304-16.033 16.28v39.659c0 4.77 2.05 9.284 5.624 12.383zm-12.483-70.989c0-.694.474-1.28 1.033-1.28h43.718c.56 0 1.033.586 1.033 1.28v39.659c0 .413-.168.806-.449 1.049l-21.858 18.946c-.355.307-.814.307-1.17 0l-21.857-18.946c-.281-.243-.449-.636-.449-1.049v-39.659z"/></g></g></svg>