<svg id="Capa_1" enable-background="new 0 0 512 512" height="512" viewBox="0 0 512 512" width="512" xmlns="http://www.w3.org/2000/svg"><g><g><g><path d="m396.757 487.418h-281.514c111.06-95.083 111.06-190.166 0-285.249h281.513c-51.807 44.354-89.447 88.708-92.921 133.062-3.972 50.73 33.669 101.459 92.922 152.187z" fill="#ac9da9"/><path d="m396.76 487.42h-40c-111.06-95.08-111.06-190.17 0-285.25h40c-111.06 95.08-111.06 190.17 0 285.25z" fill="#988393"/><path d="m385.628 116.45c-5.468-31.96-22.057-57.594-56.445-64.84-3.329-.701-6.245-2.644-8.082-5.436-15.239-23.159-33.169-36.674-65.101-36.674-6.797 0-13.412-1.297-19.763.033-23.484 4.918-43.343 18.411-55.338 36.641-1.837 2.791-4.753 4.734-8.082 5.436-34.388 7.246-60.977 32.88-66.445 64.84-.686 4.008-3.339 7.453-7.118 9.181-28.497 13.029-48.042 39.776-48.042 70.66 0 43.693 39.113 79.113 87.361 79.113 23.367 0 44.589-8.309 60.264-21.841 3.872-3.343 9.402-4.239 14.057-2.035 12.891 6.103 27.552 9.557 43.106 9.557s30.216-3.454 43.106-9.557c4.655-2.204 10.185-1.309 14.057 2.035 11.068 9.555 24.902 16.506 40.303 19.766 6.411 1.357 13.093-.925 19.961-.925 48.248 0 57.361-32.42 57.361-76.113 0-30.884-9.545-57.631-38.042-70.66-3.779-1.727-6.433-5.173-7.118-9.181z" fill="#806e7b"/><path d="m460.79 196.29c0 43.69-39.11 79.11-87.36 79.11-6.89 0-13.58-.72-20-2.09 38.61-8.18 67.36-39.56 67.36-77.02 0-30.88-19.55-57.63-48.04-70.66-3.78-1.73-6.44-5.17-7.12-9.18-5.47-31.96-32.06-57.59-66.45-64.84-3.33-.7-6.24-2.64-8.08-5.44-11.96-18.17-31.72-31.63-55.1-36.58 6.43-1.37 13.12-2.09 20-2.09 31.93 0 59.86 15.51 75.1 38.67 1.84 2.8 4.75 4.74 8.08 5.44 34.39 7.25 60.98 32.88 66.45 64.84.68 4.01 3.34 7.45 7.12 9.18 28.49 13.03 48.04 39.78 48.04 70.66z" fill="#6c5e68"/><path d="m441.683 497.726c-.004 3.742-3.411 6.774-7.612 6.774h-393.143c-4.183 0-7.608-3.048-7.612-6.774 0-20.932 19.058-37.895 42.544-37.895 8.761 0 16.894 2.355 23.656 6.397 3.816 2.281 8.93 1.042 11.013-2.606 9.187-16.097 27.95-27.117 49.616-27.117 8.255 0 16.092 1.604 23.137 4.482 3.569 1.458 7.822.363 9.794-2.661 12.592-19.306 36.055-32.297 62.925-32.297s50.333 12.99 62.925 32.297c1.972 3.024 6.225 4.12 9.794 2.661 7.045-2.879 14.882-4.482 23.137-4.482 21.665 0 40.428 11.021 49.615 27.117 2.082 3.649 7.197 4.887 11.013 2.606 1.16-.693 2.36-1.337 3.597-1.928 5.974-2.853 12.8-2.469 20.059-2.469 23.485 0 5.542 14.964 5.542 35.895z" fill="#806e7b"/><path d="m478.68 497.73c0 3.74-3.41 6.77-7.61 6.77h-40c4.2 0 7.61-3.03 7.61-6.77 0-14.5-9.13-27.08-22.54-33.45 5.97-2.84 12.77-4.45 20-4.45 23.49 0 42.54 16.96 42.54 37.9z" fill="#6c5e68"/></g></g><g><path d="m63.263 243.902c1.402 0 2.821-.393 4.084-1.215 3.472-2.259 4.455-6.905 2.195-10.377-7.085-10.888-10.83-23.343-10.83-36.019 0-27.064 16.73-51.526 43.66-63.839 6.026-2.755 10.285-8.264 11.393-14.738 4.883-28.54 29.235-52.157 60.598-58.766 5.322-1.121 9.869-4.194 12.801-8.652 14.326-21.771 40.703-35.296 68.836-35.296s54.51 13.525 68.835 35.296c2.933 4.458 7.48 7.531 12.801 8.652 31.363 6.609 55.716 30.226 60.599 58.767 1.108 6.474 5.367 11.983 11.393 14.737 26.931 12.314 43.661 36.775 43.661 63.839 0 9.224-1.927 18.199-5.729 26.677-1.694 3.779-.004 8.217 3.775 9.912 3.78 1.694 8.217.004 9.912-3.775 4.672-10.421 7.041-21.462 7.041-32.814 0-33.007-20.087-62.696-52.424-77.481-1.511-.69-2.574-2.045-2.844-3.625-2.945-17.213-11.431-33.05-24.541-45.8-12.927-12.571-29.439-21.256-47.751-25.115-1.403-.296-2.629-1.104-3.362-2.219-17.067-25.938-48.245-42.051-81.366-42.051s-64.299 16.113-81.366 42.052c-.733 1.114-1.958 1.923-3.363 2.219-18.311 3.859-34.823 12.544-47.75 25.115-13.11 12.75-21.596 28.587-24.541 45.799-.271 1.579-1.334 2.934-2.845 3.625-32.336 14.785-52.423 44.474-52.423 77.481 0 15.588 4.584 30.873 13.258 44.201 1.437 2.209 3.841 3.41 6.293 3.41z"/><path d="m436.14 452.332c-9.829 0-19.34 2.58-27.504 7.459-.238.142-.569.083-.707.016-10.896-19.002-32.371-30.802-56.074-30.802-.047 0-.094.003-.142.003-15.854-21.852-25.647-43.848-29.205-65.564 9.246-1.347 17.883-2.984 25.71-4.894 28.655-6.993 43.184-16.87 43.184-29.357 0-18.174-30.844-27.809-60.173-32.863 2.626-6.262 5.751-12.521 9.38-18.768 10.393 3.494 21.469 5.342 32.817 5.342 24.949 0 48.506-8.767 66.332-24.685 3.089-2.759 3.357-7.5.599-10.59-2.759-3.089-7.501-3.357-10.59-.599-15.073 13.46-35.082 20.873-56.34 20.873-20.749 0-40.411-7.109-55.363-20.018-6.193-5.348-14.895-6.58-22.168-3.137-12.208 5.78-26.004 8.835-39.897 8.835s-27.688-3.055-39.896-8.835c-7.272-3.443-15.973-2.212-22.167 3.136-14.953 12.909-34.615 20.018-55.364 20.018-17.534 0-34.174-5.003-48.122-14.466-3.425-2.326-8.091-1.433-10.417 1.995-2.326 3.427-1.433 8.091 1.995 10.417 16.442 11.157 35.995 17.054 56.544 17.054 11.352 0 22.433-1.849 32.83-5.347 3.629 6.249 6.75 12.509 9.377 18.771-29.332 5.053-60.182 14.689-60.182 32.865 0 12.487 14.529 22.364 43.184 29.357 7.826 1.91 16.461 3.546 25.704 4.893-3.56 21.722-13.345 43.715-29.198 65.565-.048 0-.095-.003-.143-.003-23.703 0-45.178 11.8-56.074 30.802-.138.066-.47.125-.706-.016-8.164-4.88-17.675-7.459-27.504-7.459-27.594 0-50.044 20.364-50.044 45.402.009 7.868 6.788 14.268 15.112 14.268h135.8c4.142 0 7.5-3.358 7.5-7.5s-3.358-7.5-7.5-7.5h-135.8c-.037 0-.07-.002-.102-.005.45-16.423 15.993-29.664 35.034-29.664 7.12 0 13.969 1.845 19.808 5.335 3.594 2.148 8.003 2.766 12.092 1.69 4.003-1.051 7.299-3.543 9.282-7.017 8.215-14.393 24.73-23.335 43.102-23.335 7.097 0 13.927 1.32 20.299 3.925 6.896 2.817 15.027.45 18.914-5.507 11.624-17.823 33.328-28.894 56.643-28.894s45.019 11.071 56.643 28.894c3.885 5.958 12.015 8.325 18.914 5.506 6.372-2.604 13.203-3.925 20.299-3.925 18.372 0 34.887 8.941 43.102 23.335 1.983 3.474 5.279 5.967 9.282 7.018 4.091 1.073 8.499.457 12.092-1.691 5.838-3.49 12.688-5.334 19.808-5.334 19.045 0 34.59 13.244 35.034 29.664-.032.003-.066.004-.102.004h-261.657c-4.142 0-7.5 3.358-7.5 7.5s3.358 7.5 7.5 7.5h261.657c8.324 0 15.103-6.4 15.112-14.274 0-25.03-22.45-45.393-50.044-45.393zm-72.502-131.934c10.599 4.429 12.765 8.065 12.765 8.796 0 1.397-5.648 8.417-31.74 14.784-7.192 1.755-15.126 3.266-23.622 4.524-.397-12.531 1.3-25.165 5.053-37.821 15.427 2.532 28.319 5.861 37.544 9.717zm-159.9-61.157c1.676-1.448 4.067-1.824 5.946-.933 14.202 6.724 30.218 10.278 46.316 10.278s32.114-3.554 46.316-10.278c1.88-.889 4.269-.514 5.946.934 5.627 4.858 11.813 9.014 18.411 12.432-14.862 26.148-21.721 52.435-20.585 78.71-15.577 1.648-32.54 2.522-50.088 2.522-17.55 0-34.515-.874-50.093-2.522 1.136-26.274-5.722-52.559-20.584-78.708 6.6-3.419 12.787-7.576 18.415-12.435zm-68.141 69.953c0-.731 2.167-4.367 12.765-8.796 9.225-3.856 22.12-7.186 37.549-9.717 3.756 12.659 5.439 25.293 5.04 37.821-8.493-1.258-16.424-2.768-23.615-4.523-26.091-6.369-31.739-13.389-31.739-14.785zm190.284 104.851c-.305.124-.623.082-.774.032-14.384-21.931-40.846-35.547-69.107-35.547s-54.722 13.617-69.107 35.547c-.151.051-.471.092-.774-.032-2.924-1.195-5.922-2.17-8.977-2.942 14.689-21.847 23.777-43.81 27.263-65.8 16.105 1.702 33.575 2.603 51.594 2.603 18.022 0 35.494-.901 51.6-2.604 3.486 21.992 12.572 43.955 27.259 65.8-3.054.773-6.052 1.748-8.977 2.943z"/><path d="m300.877 206.111c0 4.142 3.358 7.5 7.5 7.5s7.5-3.358 7.5-7.5c0-23.083 18.779-41.861 41.861-41.861 4.142 0 7.5-3.358 7.5-7.5s-3.358-7.5-7.5-7.5c-31.353 0-56.861 25.508-56.861 56.861z"/><path d="m134.767 152.352c-4.142 0-7.5 3.358-7.5 7.5s3.358 7.5 7.5 7.5c23.082 0 41.861 18.779 41.861 41.861 0 4.142 3.358 7.5 7.5 7.5s7.5-3.358 7.5-7.5c0-31.354-25.508-56.861-56.861-56.861z"/><path d="m268.917 66.198c0 23.082-18.779 41.861-41.861 41.861-4.142 0-7.5 3.358-7.5 7.5s3.358 7.5 7.5 7.5c31.353 0 56.861-25.508 56.861-56.861 0-4.142-3.358-7.5-7.5-7.5s-7.5 3.358-7.5 7.5z"/></g></g></svg>