<svg id="Capa_1" enable-background="new 0 0 512 512" height="512" viewBox="0 0 512 512" width="512" xmlns="http://www.w3.org/2000/svg"><g><g><g><path d="m364.047 332.826 44.045 44.045 24.005 38.147-46.523 46.523-38.148-24.005-44.045-44.044z" fill="#ac9da9"/><path d="m349.113 401.301h85.794v40.308h-85.794z" fill="#988393" transform="matrix(.707 -.707 .707 .707 -183.196 400.636)"/><path d="m453.829 377.455 5.333 5.333c4.221 4.221 4.221 11.063 0 15.284l-90.535 90.534c-4.221 4.221-11.064 4.221-15.284 0l-5.333-5.333c-4.221-4.221-4.221-11.063 0-15.284l90.535-90.534c4.22-4.221 11.063-4.221 15.284 0z" fill="#fff1ab"/><path d="m471.888 410.802-90.531 90.53c-4.221 4.221-11.066 4.221-15.288 0l-15.556-15.556c4.221 4.221 11.066 4.221 15.288 0l90.531-90.53c4.221-4.221 4.221-11.066 0-15.288l15.556 15.556c4.221 4.221 4.221 11.066 0 15.288z" fill="#ffe270"/><path d="m187.402 372.277-53.908 96.334-60.665-60.665 75.121-75.121z" fill="#ac9da9"/><path d="m107.33 405.441h106.24v30h-106.24z" fill="#988393" transform="matrix(.707 -.707 .707 .707 -250.302 236.599)"/><path d="m141.36 460.644-18.061 18.061c-4.221 4.221-11.063 4.221-15.284 0l-67.907-67.907c-4.221-4.221-4.221-11.063 0-15.284l18.061-18.061c4.221-4.221 11.064-4.221 15.284 0l67.907 67.907c4.22 4.221 4.22 11.063 0 15.284z" fill="#fff1ab"/><path d="m163.985 483.275-18.059 18.06c-4.221 4.221-11.066 4.221-15.288 0l-28.284-28.284c4.221 4.221 11.066 4.221 15.288 0l18.06-18.06c4.221-4.221 4.221-11.066 0-15.288l28.284 28.284c4.221 4.221 4.221 11.066-.001 15.288z" fill="#ffe270"/><path d="m256 434.112c-68.672 0-127.169-49.892-138.003-117.704l-19.796-123.898c-14.166-88.664 47.163-169.695 132.799-183.079 8.129-1.27 16.477.069 25 .069 98.312 0 153.309 85.93 137.798 183.01l-29.795 123.897c-10.834 67.812-39.331 117.705-108.003 117.705z" fill="#93e291"/><path d="m413.8 192.509-19.8 123.899c-10.83 67.81-69.33 117.699-138 117.699-8.52 0-16.87-.77-25-2.25 57.44-10.4 103.51-56.05 113-115.45l19.8-123.899c8.44-52.84-9.93-102.969-44.28-137.689-23.29-23.529-53.92-39.979-88.52-45.379 8.13-1.28 16.48-1.94 25-1.94 44.8 0 84.76 18.26 113.52 47.32 34.35 34.72 52.72 84.849 44.28 137.689z" fill="#6fdb76"/><path d="m434.637 176.947c0 47.368-28.4 82.768-75.768 82.768-6.85 0-13.513 2.197-19.899.68-37.773-8.974-65.869-42.93-65.869-83.448s28.096-74.473 65.869-83.447c6.386-1.517 13.049.68 19.9.68 47.367-.001 75.767 35.399 75.767 82.767z" fill="#806e7b"/><path d="m444.64 176.949c0 47.37-38.4 85.769-85.77 85.769-6.85 0-13.52-.8-19.9-2.33 37.78-8.96 65.88-42.92 65.88-83.439 0-40.52-28.1-74.48-65.88-83.44 6.38-1.53 13.05-2.33 19.9-2.33 47.37.001 85.77 38.4 85.77 85.77z" fill="#6c5e68"/><path d="m394.851 176.947c0 25.395-10.587 42.982-35.982 42.982-5.252 0-10.298 2.119-14.999.498-18.03-6.219-30.982-23.337-30.982-43.48s12.952-37.261 30.982-43.479c4.701-1.622 9.748-.502 15-.502 25.394-.001 35.981 18.586 35.981 43.981z" fill="#ac9da9"/><path d="m404.85 176.949c0 25.39-20.59 45.98-45.98 45.98-5.25 0-10.3-.88-15-2.51 18.03-6.22 30.98-23.33 30.98-43.47s-12.95-37.26-30.98-43.47c4.7-1.63 9.75-2.51 15-2.51 25.39 0 45.98 20.58 45.98 45.98z" fill="#988393"/><path d="m228.898 176.947c0 47.368-28.4 82.768-75.768 82.768-6.85 0-13.513 2.197-19.899.68-37.773-8.974-65.869-42.93-65.869-83.448s28.096-74.473 65.869-83.447c6.386-1.517 13.049.68 19.9.68 47.367-.001 75.767 35.399 75.767 82.767z" fill="#806e7b"/><path d="m238.901 176.949c0 47.37-38.4 85.769-85.77 85.769-6.85 0-13.52-.8-19.9-2.33 37.78-8.96 65.88-42.92 65.88-83.439 0-40.52-28.1-74.48-65.88-83.44 6.38-1.53 13.05-2.33 19.9-2.33 47.37.001 85.77 38.4 85.77 85.77z" fill="#6c5e68"/><path d="m332.916 393.749c0 48.06-28.96 84.02-77.02 84.02-5.471 0-10.825 2.495-16.016 1.529-40.41-7.518-71.004-42.961-71.004-85.549s30.594-78.031 71.004-85.549c5.191-.966 10.545.529 16.016.529 48.06 0 77.02 36.96 77.02 85.02z" fill="#ac9da9"/><path d="m342.92 393.748c0 48.06-38.96 87.02-87.02 87.02-5.47 0-10.83-.51-16.02-1.48 40.4-7.52 70.99-42.96 70.99-85.539 0-42.58-30.59-78.02-70.99-85.54 5.19-.97 10.55-1.48 16.02-1.48 48.06-.001 87.02 38.959 87.02 87.019z" fill="#988393"/><path d="m189.112 176.947c0 25.395-10.587 42.982-35.982 42.982-5.252 0-10.298 2.119-14.999.498-18.03-6.219-30.982-23.337-30.982-43.48s12.952-37.261 30.982-43.479c4.701-1.622 9.748-.502 15-.502 25.394-.001 35.981 18.586 35.981 43.981z" fill="#ac9da9"/><path d="m199.111 176.949c0 25.39-20.59 45.98-45.98 45.98-5.25 0-10.3-.88-15-2.51 18.03-6.22 30.98-23.33 30.98-43.47s-12.95-37.26-30.98-43.47c4.7-1.63 9.75-2.51 15-2.51 25.39 0 45.98 20.58 45.98 45.98z" fill="#988393"/></g></g><g><path d="m477.192 390.212-18.061-18.061c-7.138-7.139-18.754-7.138-25.891 0l-9.631 9.631-31.407-31.407c4.289-10.445 7.395-21.433 9.208-32.784l10.187-63.76c11.483-7.867 21.262-18.308 28.369-30.785 2.05-3.599.795-8.179-2.805-10.229-3.598-2.049-8.179-.794-10.229 2.805-13.911 24.421-39.991 39.592-68.062 39.592-43.157 0-78.269-35.111-78.269-78.268s35.111-78.268 78.269-78.268 78.269 35.111 78.269 78.268c0 3.22-.197 6.46-.586 9.632-.504 4.111 2.42 7.853 6.531 8.357 4.114.505 7.853-2.419 8.357-6.531.463-3.775.698-7.631.698-11.458 0-33.309-17.555-62.59-43.895-79.092-13.058-28.521-33.745-52.755-59.892-70.112-27.342-18.148-59.276-27.742-92.352-27.742-32.865 0-64.628 9.481-91.856 27.416-26.271 17.306-47.111 41.561-60.265 70.144-.044.097-.077.196-.118.294-26.343 16.502-43.9 45.784-43.9 79.095 0 9.808 1.517 19.471 4.509 28.723 1.274 3.941 5.501 6.105 9.444 4.829 3.941-1.274 6.103-5.503 4.829-9.444-2.509-7.759-3.781-15.87-3.781-24.108 0-43.157 35.111-78.268 78.269-78.268 43.157 0 78.268 35.111 78.268 78.268s-35.111 78.268-78.268 78.268c-22.729 0-44.305-9.864-59.197-27.063-2.71-3.131-7.447-3.471-10.579-.761-3.131 2.711-3.472 7.448-.761 10.579 5.288 6.107 11.287 11.431 17.815 15.906l10.18 63.715c1.812 11.34 4.922 22.327 9.216 32.777l-31.415 31.414-9.631-9.631c-7.138-7.138-18.754-7.139-25.891 0l-18.061 18.061c-7.138 7.138-7.138 18.752 0 25.891l90.535 90.535c3.458 3.458 8.055 5.362 12.946 5.362 4.89 0 9.487-1.904 12.945-5.362l18.061-18.061c7.138-7.138 7.138-18.752 0-25.891l-9.631-9.631 13.55-13.55c16.143 29.056 47.152 48.766 82.683 48.766 35.585 0 66.635-19.77 82.758-48.899l13.683 13.683-9.631 9.631c-7.138 7.138-7.138 18.753 0 25.891l18.061 18.061c3.458 3.458 8.055 5.362 12.945 5.362 4.891 0 9.488-1.904 12.945-5.362l26.634-26.634c2.929-2.929 2.929-7.678 0-10.606-2.928-2.929-7.677-2.929-10.606 0l-26.635 26.634c-.842.842-1.827.968-2.338.968-.512 0-1.496-.126-2.339-.969l-18.061-18.061c-1.29-1.289-1.29-3.388 0-4.678l90.535-90.535c1.289-1.289 3.388-1.29 4.678 0l18.06 18.06c1.29 1.29 1.29 3.388 0 4.678l-40.785 40.785c-2.929 2.929-2.929 7.678 0 10.606 2.929 2.929 7.678 2.929 10.606 0l40.785-40.785c7.139-7.138 7.139-18.752.001-25.891zm-324.061-119.996c51.428 0 93.268-41.84 93.268-93.269 0-51.428-41.84-93.268-93.268-93.268-9.367 0-18.413 1.394-26.949 3.975 11.696-19.034 27.419-35.332 46.213-47.712 24.772-16.317 53.682-24.942 83.605-24.942 30.115 0 59.181 8.728 84.055 25.241 18.609 12.354 34.169 28.54 45.766 47.415-8.537-2.581-17.584-3.976-26.952-3.976-51.428 0-93.269 41.84-93.269 93.268s41.84 93.269 93.269 93.269c12.58 0 24.823-2.558 36.085-7.295l-8.357 52.305c-4.377 27.4-17.137 52.45-36.412 71.978-3.374-49.076-44.372-87.974-94.29-87.974-49.851 0-90.808 38.794-94.277 87.777-19.162-19.506-31.859-44.512-36.216-71.782l-8.352-52.274c11.297 4.74 23.54 7.264 36.081 7.264zm5.557 207.755-18.061 18.061c-.843.843-1.827.969-2.339.969s-1.496-.126-2.339-.969l-90.535-90.535c-1.29-1.29-1.29-3.388 0-4.678l18.061-18.06c.645-.645 1.492-.967 2.339-.967s1.694.322 2.339.967l90.535 90.535c1.29 1.288 1.29 3.387 0 4.677zm-9.631-35.522-50.059-50.059 27.647-27.647c8.961 16.472 21.068 31.202 35.815 43.334.883 5.784 2.298 11.394 4.183 16.786zm106.839 30.822c-43.848 0-79.52-35.672-79.52-79.52s35.673-79.52 79.52-79.52 79.521 35.672 79.521 79.52-35.673 79.52-79.521 79.52zm89.308-48.562c1.837-5.284 3.221-10.777 4.098-16.437 14.865-12.175 27.05-26.967 36.058-43.525l27.644 27.643-50.059 50.059z"/><path d="m206.613 176.948c0-29.49-23.992-53.481-53.482-53.481s-53.483 23.992-53.483 53.481c0 29.49 23.992 53.482 53.483 53.482 29.49 0 53.482-23.992 53.482-53.482zm-91.965 0c0-21.219 17.263-38.482 38.483-38.482 21.219 0 38.482 17.263 38.482 38.482s-17.263 38.482-38.482 38.482-38.483-17.263-38.483-38.482z"/><path d="m305.387 176.948c0 29.49 23.992 53.482 53.482 53.482s53.482-23.992 53.482-53.482-23.992-53.481-53.482-53.481c-29.49-.001-53.482 23.991-53.482 53.481zm91.965 0c0 21.219-17.263 38.482-38.482 38.482s-38.482-17.263-38.482-38.482 17.263-38.482 38.482-38.482c21.218 0 38.482 17.263 38.482 38.482z"/><path d="m256 338.197c-4.142 0-7.5 3.358-7.5 7.5v94.701c0 4.142 3.358 7.5 7.5 7.5s7.5-3.358 7.5-7.5v-94.701c0-4.142-3.358-7.5-7.5-7.5z"/><path d="m214.54 355.792c-4.142 0-7.5 3.358-7.5 7.5v55.371c0 4.142 3.358 7.5 7.5 7.5s7.5-3.358 7.5-7.5v-55.371c0-4.142-3.358-7.5-7.5-7.5z"/><path d="m297.46 355.792c-4.142 0-7.5 3.358-7.5 7.5v55.371c0 4.142 3.358 7.5 7.5 7.5s7.5-3.358 7.5-7.5v-55.371c0-4.142-3.357-7.5-7.5-7.5z"/></g></g></svg>