<svg id="Capa_1" enable-background="new 0 0 512 512" height="512" viewBox="0 0 512 512" width="512" xmlns="http://www.w3.org/2000/svg"><g><g><g><path d="m439.045 116.907h-8.744c-8.604 0-15.578-6.975-15.578-15.578v-19.714c0-6.608 4.114-12.255 9.921-14.519 1.754-.684 3.662-.059 5.657-.059h-1.256c8.604 0 15.578 5.975 15.578 14.578v19.713c.001 8.604 3.026 15.579-5.578 15.579z" fill="#ac9da9"/><path d="m454.62 81.62v19.71c0 8.6-6.97 15.58-15.57 15.58h-8.75c-1.98 0-3.88-.37-5.63-1.06 5.82-2.25 9.95-7.9 9.95-14.52v-19.71c0-6.62-4.13-12.28-9.95-14.53 1.75-.68 3.65-1.05 5.63-1.05h8.75c8.6 0 15.57 6.97 15.57 15.58z" fill="#988393"/><path d="m479.309 184.313h-22.645c-5.628 0-10.191-4.562-10.191-10.191v-37.645c0-5.628 4.563-10.191 10.191-10.191h22.645c5.628 0 10.191 4.563 10.191 10.191v37.645c0 5.629-4.562 10.191-10.191 10.191z" fill="#ac9da9"/><path d="m504.5 136.48v37.64c0 5.63-4.56 10.19-10.19 10.19h-18c5.63 0 10.19-4.56 10.19-10.19v-37.64c0-5.63-4.56-10.19-10.19-10.19h18c5.63 0 10.19 4.56 10.19 10.19z" fill="#988393"/><path d="m421.734 123.138v93.088c0 8.744-7.088 15.832-15.832 15.832h-197.244c-9.799 0-58.309 6.743-60.55 16.282l-33.471 175.052c-1.72 7.325-8.94 12.571-17.299 12.571h-45.98c-11.23 0-19.611-9.257-17.299-19.094l-4.309-14.239 32.448-138.152c3.89-16.561-8.677-32.421-25.688-32.421h-13.17c-10.217 0-17.758-9.533-15.408-19.475l10.977-46.56 20.924-46.336c1.6-6.768 7.643-11.549 14.597-11.549h352.303c8.285.001 15.001 6.717 15.001 15.001z" fill="#ac9da9"/><path d="m458.73 123.14 10 42.89v50.2c0 8.74-7.08 15.83-15.83 15.83h-50c8.75 0 15.83-7.09 15.83-15.83v-50.254l-10-42.836c0-8.29-6.71-15-15-15h50c8.29 0 15 6.71 15 15z" fill="#988393"/><path d="m428.73 113.14-10 52.89h-276.754l-5.562-10-9.834 10h-42.235l-4.61-10-10.815 10h-49.98l13.32-56.34c1.6-6.77 7.64-11.55 14.6-11.55h38.105l5.567 10 9.848-10h42.24l9.295 10 6.115-10h89.44c5.726 0 10.282 4.798 9.987 10.516l-.912 17.647c-.296 5.718 4.261 10.516 9.987 10.516h79.883c5.322 0 9.712-4.169 9.987-9.484l1.019-19.713c.275-5.315 4.664-9.484 9.987-9.484h46.324c8.278.002 14.998 6.712 14.998 15.002z" fill="#806e7b"/><path d="m468.73 113.14v52.89h-50v-52.89c0-8.29-6.72-15-15-15h50c8.28 0 15 6.71 15 15z" fill="#6c5e68"/><path d="m158.66 232.06h50c-9.8 0-18.31 6.74-20.55 16.28l-36.244 154.289-17.226 20.76c-1.72 7.33-8.94 12.57-17.3 12.57h-50c8.36 0 15.58-5.24 17.3-12.57l17.226-20.76 36.244-154.29c2.24-9.539 10.75-16.279 20.55-16.279z" fill="#988393"/><path d="m101.87 402.63 2.77 30.76c-1.72 7.33-8.94 12.57-17.3 12.57h-45.98c-11.23 0-19.61-9.25-17.3-19.09l5.69-24.24z" fill="#806e7b"/><path d="m151.87 402.63-7.23 30.76c-1.72 7.33-8.94 12.57-17.3 12.57h-50c8.36 0 15.58-5.24 17.3-12.57l7.23-30.76z" fill="#6c5e68"/></g></g><g><path d="m46.861 90.641c-10.483 0-19.488 7.124-21.899 17.324l-24.327 102.892c-1.651 6.984-.045 14.217 4.408 19.845 4.452 5.628 11.122 8.856 18.298 8.856h13.17c5.804 0 11.2 2.609 14.804 7.158s4.911 10.398 3.583 16.048l-7.579 32.268c-.947 4.032 1.554 8.069 5.586 9.016.577.136 1.153.2 1.721.2 3.402 0 6.483-2.331 7.295-5.787l7.579-32.268c2.381-10.137.038-20.632-6.429-28.793-6.467-8.162-16.147-12.842-26.561-12.842h-13.17c-2.563 0-4.945-1.153-6.535-3.163s-2.164-4.593-1.573-7.091l9.612-40.773h353.913c4.142 0 7.5-3.358 7.5-7.5s-3.358-7.5-7.5-7.5h-234.993l12.499-52.89h91.208c.934 0 1.537.488 1.813.778.276.291.731.918.683 1.851l-.912 17.647c-.247 4.77 1.498 9.491 4.786 12.954 3.289 3.463 7.914 5.45 12.69 5.45h79.883c9.319 0 16.996-7.29 17.477-16.596l1.019-19.713c.069-1.329 1.166-2.371 2.497-2.371h86.323c4.136 0 7.5 3.365 7.5 7.5v45.39h-49.786c-4.142 0-7.5 3.358-7.5 7.5s3.358 7.5 7.5 7.5h49.789v42.695c0 4.594-3.738 8.332-8.332 8.332h-110.302c-4.142 0-7.5 3.358-7.5 7.5s3.358 7.5 7.5 7.5h110.303c12.865 0 23.332-10.467 23.332-23.332v-24.412h18.076c9.755 0 17.691-7.936 17.691-17.691v-37.645c0-9.755-7.936-17.691-17.691-17.691h-18.08v-5.646c0-9.44-5.846-17.536-14.106-20.87v-10.655c0-12.725-10.353-23.078-23.078-23.078h-8.744c-12.725 0-23.078 10.353-23.078 23.078v9.025h-39.817c-6.957 0-12.995 4.065-15.811 9.997h-88.331c-.786-1.658-1.824-3.2-3.103-4.547-3.289-3.463-7.914-5.45-12.69-5.45zm-7.301 20.775c.804-3.4 3.806-5.775 7.301-5.775h36.334l-12.499 52.89h-42.275zm88.791 47.115h-42.241l12.499-52.89h42.241zm218.063-29.21h-79.883c-.934 0-1.537-.488-1.813-.778-.276-.291-.731-.917-.683-1.851l.571-11.054h84.89l-.585 11.312c-.069 1.329-1.165 2.371-2.497 2.371zm75.809-47.705c0-4.454 3.624-8.078 8.078-8.078h8.744c4.454 0 8.078 3.624 8.078 8.078v9.025h-24.9zm74.777 92.507c0 1.484-1.207 2.691-2.691 2.691h-18.076v-8.678c0-.362-.034-.715-.084-1.064.048-.341.081-.687.081-1.041v-32.243h18.079c1.484 0 2.691 1.207 2.691 2.691z"/><path d="m309.912 224.558h-101.254c-13.347 0-24.799 9.074-27.852 22.067l-34.885 148.505h-106.704l15.028-63.982c.947-4.032-1.554-8.069-5.586-9.016-4.031-.948-8.069 1.554-9.016 5.586l-22.885 97.435c-1.539 6.549.028 13.397 4.298 18.787 4.794 6.051 12.194 9.522 20.303 9.522h85.98c11.946 0 22.062-7.548 24.6-18.355l31.192-132.781h53.615c18.995 0 34.449-15.453 34.449-34.449v-28.32h38.718c4.142 0 7.5-3.358 7.5-7.5-.001-4.141-3.359-7.499-7.501-7.499zm-182.575 213.904h-85.98c-3.448 0-6.642-1.434-8.545-3.836-1.011-1.276-2.083-3.359-1.453-6.043l4.334-18.453h106.703l-5.062 21.547c-.922 3.932-5.126 6.785-9.997 6.785zm128.857-170.585c0 10.724-8.725 19.449-19.449 19.449h-50.091l7.94-33.799c6.13 9.072 16.485 14.875 28.079 14.875h10.9c4.142 0 7.5-3.358 7.5-7.5s-3.358-7.5-7.5-7.5h-10.9c-8.384 0-15.593-5.442-18.014-13.24 1.27-.387 2.611-.605 4-.605h47.536v28.32z"/></g></g></svg>