<svg id="Capa_1" enable-background="new 0 0 512 512" height="512" viewBox="0 0 512 512" width="512" xmlns="http://www.w3.org/2000/svg"><g><g><g><g fill="#a79ba7"><path d="m233.347 133.093h-140.894c-9.475 0-17.155-6.801-17.155-15.19 0-8.389 7.681-15.19 17.155-15.19h140.894c1.788 0 3.549.384 5.132 1.12l30.269 14.07-30.269 14.07c-1.583.735-3.344 1.12-5.132 1.12z"/><path d="m304.148 133.093h110.894c9.475 0 17.155-6.801 17.155-15.19 0-8.389-7.681-15.19-17.155-15.19h-110.894c-1.788 0-3.549.384-5.132 1.12l-30.269 14.07 30.269 14.07c1.583.735 3.344 1.12 5.132 1.12z"/></g><path d="m445.042 102.713h-40c9.475 0 17.155 6.801 17.155 15.19s-7.681 15.19-17.155 15.19h40c9.475 0 17.155-6.801 17.155-15.19s-7.681-15.19-17.155-15.19z" fill="#988393"/><path d="m286.766 230.384h-36.036v-72.397c0-2.628 2.13-4.758 4.758-4.758h10.521c2.628 0 4.758 2.13 4.758 4.758z" fill="#a79ba7"/><path d="m286.77 157.99v72.39h-17v-72.39c0-2.63-2.13-4.76-4.76-4.76h17c2.63 0 4.76 2.13 4.76 4.76z" fill="#988393"/><path d="m326.084 241.9h-144.613l18.343-47.769c1.943-5.061 6.804-8.401 12.225-8.401h83.477c5.421 0 10.281 3.34 12.225 8.401z" fill="#00c091"/><path d="m335.741 194.13c-1.943-5.061-6.804-8.401-12.225-8.401h-30c5.421 0 10.281 3.34 12.225 8.401l18.343 47.769h30z" fill="#00b47e"/><path d="m443.438 332.823-62.755-103.161c-3.96-6.509-11.027-10.482-18.646-10.482h-291.687c-4.177 0-7.914-2.596-9.372-6.511l-16.745-44.981c-1.457-3.915-5.194-6.511-9.372-6.511h-17.361c-5.523 0-10 4.477-10 10v85.428c0 7.232 5.863 13.095 13.095 13.095h158.354c6.059 0 11.685 3.141 14.864 8.299l35.742 57.99 17.466 18.338c3.179 5.158 8.805 8.299 14.864 8.299h159.179c20.428-.002 32.991-12.35 22.374-29.803z" fill="#93e291"/><path d="m431.06 362.62h-30c19.153 0 41.398-9.635 34.103-26.476-.486-1.123-1.059-2.233-1.723-3.324l-17.145-28.182-9.123-31.434-26.243-26.7-10.249-16.844c-3.96-6.51-11.02-10.48-18.64-10.48h30c7.62 0 14.68 3.97 18.64 10.48l10.248 16.845 13.803 39.126 21.564 19.008 17.145 28.182c.633 1.04 1.183 2.098 1.654 3.167 7.44 16.875-14.821 26.632-34.034 26.632z" fill="#6fdb76"/><path d="m416.555 304.638h-53.552c-16.053 0-29.067-13.014-29.067-29.067 0-16.053 13.014-29.067 29.067-29.067h17.928l32.04 19.791z" fill="#f9f7f8"/><path d="m410.93 246.505h-30l35.366 58.133h30z" fill="#e6eef2"/><path d="m421.067 372.628h-159.18c-6.059 0-11.689-3.143-14.867-8.302l-17.469-28.338h205.932c7.437 16.875 4.79 36.64-14.416 36.64z" fill="#00c091"/><path d="m441.07 372.63h-30c19.2 0 31.46-19.77 24.02-36.64h30c7.44 16.87-4.82 36.64-24.02 36.64z" fill="#00b47e"/></g></g><g><path d="m510.632 375.643c-2.384-3.387-7.064-4.199-10.45-1.814l-26.872 18.922c-8.394 5.911-18.257 9.035-28.522 9.035h-41.465v-21.663h37.74c12.341 0 23.32-6.423 29.368-17.18 6.047-10.758 5.829-23.476-.585-34.018l-62.756-103.162c-5.285-8.687-14.885-14.084-25.054-14.084h-31.523l-7.771-20.236c-3.034-7.903-10.761-13.213-19.226-13.213h-29.251v-20.242c0-6.759-5.499-12.258-12.258-12.258h-5.76v-16.07l19.609 9.115c2.561 1.189 5.428 1.818 8.292 1.818h65.969c4.142 0 7.5-3.357 7.5-7.5s-3.358-7.5-7.5-7.5h-65.969c-.696 0-1.378-.146-1.971-.421l-15.637-7.269 15.635-7.269c.594-.276 1.276-.422 1.972-.422h140.893c5.234 0 9.655 3.521 9.655 7.69 0 4.168-4.421 7.689-9.655 7.689h-42.238c-4.142 0-7.5 3.357-7.5 7.5s3.358 7.5 7.5 7.5h42.238c13.595 0 24.655-10.179 24.655-22.689 0-12.512-11.06-22.69-24.655-22.69h-140.893c-2.864 0-5.731.629-8.293 1.819l-27.107 12.601-27.108-12.602c-2.561-1.189-5.428-1.818-8.292-1.818h-140.894c-13.595 0-24.655 10.179-24.655 22.69s11.061 22.689 24.655 22.689h140.894c2.864 0 5.732-.629 8.292-1.819l19.608-9.114v16.07h-5.76c-6.759 0-12.258 5.499-12.258 12.258v20.242h-31.19c-8.465 0-16.192 5.31-19.226 13.213l-7.771 20.236h-27.149c-4.142 0-7.5 3.357-7.5 7.5s3.358 7.5 7.5 7.5h224.144c4.967 0 9.657 2.637 12.239 6.88l3.313 5.446h-34.586c-20.163 0-36.567 16.404-36.567 36.567s16.404 36.566 36.567 36.566h79.074l9.946 16.35h-218.28l-33.546-54.427c-4.579-7.429-12.522-11.863-21.248-11.863h-95.714c-4.142 0-7.5 3.358-7.5 7.5 0 4.143 3.358 7.5 7.5 7.5h95.714c3.482 0 6.652 1.77 8.479 4.734l53.207 86.328c4.579 7.429 12.522 11.863 21.249 11.863h58.974v21.663h-97.538c-4.142 0-7.5 3.357-7.5 7.5s3.358 7.5 7.5 7.5h221.468c13.374 0 26.223-4.07 37.159-11.772l26.87-18.922c3.387-2.381 4.199-7.06 1.815-10.447zm-275.315-250.472c-.594.276-1.275.422-1.971.422h-140.893c-5.234 0-9.655-3.521-9.655-7.689 0-4.169 4.421-7.69 9.655-7.69h140.894c.696 0 1.377.146 1.97.421l15.638 7.27zm22.912 35.559h21.036v17.5h-21.036zm-51.413 36.089c.825-2.147 2.923-3.59 5.223-3.59h111.477c2.3 0 4.398 1.442 5.223 3.59l5.706 14.859h-133.335zm156.186 100.32c-11.892 0-21.567-9.675-21.567-21.566 0-11.893 9.675-21.567 21.567-21.567h43.711l26.239 43.134h-69.95zm-109.598 63.25-10.417-16.901h216.556c.665 4.082-.057 8.312-2.189 12.104-3.355 5.969-9.445 9.531-16.292 9.531h-179.179c-3.482.001-6.651-1.769-8.479-4.734zm82.454 19.735h52.464v21.663h-52.464z"/><path d="m132.706 219.179c0-4.143-3.358-7.5-7.5-7.5h-54.856c-1.039 0-1.981-.653-2.343-1.627l-16.746-44.982c-2.538-6.814-9.128-11.394-16.4-11.394h-17.361c-9.649 0-17.5 7.851-17.5 17.5v85.428c0 11.356 9.239 20.595 20.595 20.595h29.953c4.142 0 7.5-3.357 7.5-7.5 0-4.142-3.358-7.5-7.5-7.5h-29.953c-3.085 0-5.595-2.51-5.595-5.595v-85.428c0-1.379 1.122-2.5 2.5-2.5h17.361c1.039 0 1.98.654 2.343 1.627l16.746 44.981c2.536 6.816 9.128 11.395 16.4 11.395h54.856c4.142 0 7.5-3.358 7.5-7.5z"/></g></g></svg>