<svg id="Capa_1" enable-background="new 0 0 512 512" height="512" viewBox="0 0 512 512" width="512" xmlns="http://www.w3.org/2000/svg"><g><g><g><g><path d="m397.477 466.582-20.054 20.054c-4.965 4.965-13.014 4.965-17.979 0l-169.345-169.345c-4.965-4.965-4.965-13.014 0-17.979l20.054-20.054c4.965-4.965 13.014-4.965 17.979 0l169.345 169.345c4.965 4.965 4.965 13.014 0 17.979z" fill="#f9f7f8"/><path d="m411.623 480.727-20.054 20.054c-4.964 4.964-13.018 4.957-17.982-.007l-18.385-18.385c4.964 4.964 13.018 4.971 17.982.007l20.054-20.054c4.964-4.964 4.957-13.018-.007-17.982l18.385 18.385c4.964 4.964 4.971 13.018.007 17.982z" fill="#e6eef2"/><path d="m376.947 425.783-40.324 40.324c-4.855 4.855-12.726 4.855-17.581 0l-6.269-6.269c-4.855-4.855-4.855-12.726 0-17.581l40.324-40.324c4.855-4.855 12.726-4.855 17.581 0l6.269 6.269c4.855 4.854 4.855 12.726 0 17.581z" fill="#ac9da9"/><path d="m390.382 439.22-40.319 40.319c-4.858 4.858-12.735 4.858-17.586.007l-16.263-16.263c4.851 4.851 12.728 4.851 17.586-.007l40.319-40.319c4.858-4.858 4.851-12.728 0-17.579l16.263 16.264c4.85 4.85 4.857 12.72 0 17.578z" fill="#988393"/></g><path d="m453.009 224.509 20 62.717h-255.054l-79.636 84.75-3.351 3.567h-95.977v-128.269l10-22.765c0-31.461-3.304-61.36 8.74-88.347 10.896-24.414 26.169-46.447 44.822-65.1 34.853-34.852 81.504-57.906 133.447-62.652 6.586-.602 3.257.09 10 .09 119.856 0 207.009 96.163 207.009 216.009z" fill="#93e291"/><path d="m473.01 224.51v62.72h-40v-62.72c0-6.298-.268-12.532-.794-18.694-1.742-20.422 3.688-40.037-3.318-58.452-10.576-27.801-36.701-52.866-57.022-73.841-35.097-36.228-82.714-60.258-135.876-65.113 6.59-.6 13.26-.91 20-.91 61.161 0 116.409 25.298 155.854 66 20.519 21.174 26.762 46.516 37.336 74.634 6.833 18.171 21.299 37.501 23.021 57.615.529 6.183.799 12.441.799 18.761z" fill="#6fdb76"/><path d="m368.876 182.604c0-12.821-10.393-23.214-23.213-23.214h-29.621c-12.82 0-23.213-10.393-23.213-23.213v-39.468c0-12.82 10.393-23.213 23.213-23.213h55.806l39.981 10c33.807 34.869 46.015 61.049 50.387 112.321l-30 10h-40.126c-12.821 0-23.214-10.393-23.214-23.213z" fill="#00c091"/><path d="m472.21 205.82h-40c-4.37-51.27-26.56-97.45-60.36-132.32h40c33.8 34.87 55.991 81.05 60.36 132.32z" fill="#00b47e"/><g fill="#00c091"><path d="m202.676 216.086v4.413c0 14.795-11.991 26.776-26.776 26.776h-136.909v-22.765c0-31.621 6.764-61.655 18.919-88.75h32.415c14.785 0 26.776 11.991 26.776 26.776v.01c0 14.785 11.98 26.776 26.776 26.776h32.023c14.785-.001 26.776 11.979 26.776 26.764z"/><path d="m231.23 90.015h-3.503c-2.583 0-4.583-2.366-4.575-5.231 0-.018 0-.037 0-.055 0-9.794-7.162-17.734-15.996-17.734h-50.219c-8.834 0-15.996 7.94-15.996 17.734 0 9.794 7.161 17.734 15.996 17.734h31.75c2.584 0 4.583 2.366 4.576 5.231v.055c0 9.794 7.161 17.734 15.996 17.734h21.972c8.834 0 15.996-7.94 15.996-17.734-.001-9.794-7.163-17.734-15.997-17.734z"/><path d="m382.517 269.493v17.734h-132.724v-51.283c0-9.259 7.506-16.775 16.775-16.775h49.592c9.259 0 16.764 7.516 16.764 16.775 0 9.269 7.516 16.775 16.775 16.775h16.053c9.259-.001 16.765 7.515 16.765 16.774z"/></g><path d="m34.228 390.017h124.055c5.386 0 10.558-2.112 14.404-5.883l55.02-53.939c3.846-3.771 9.018-5.883 14.404-5.883h205.66c11.363 0 20.576-9.212 20.576-20.576 0-11.364-9.212-20.576-20.576-20.576h-222.467c-5.386 0-10.558 2.112-14.404 5.883l-55.02 53.938c-3.846 3.771-9.018 5.883-14.404 5.883h-107.248c-11.364 0-20.576 9.212-20.576 20.576.001 11.365 9.213 20.577 20.576 20.577z" fill="#ac9da9"/><path d="m477.772 283.162h-40c11.364 0 20.576 9.212 20.576 20.576s-9.212 20.576-20.576 20.576h40c11.364 0 20.576-9.212 20.576-20.576-.001-11.364-9.213-20.576-20.576-20.576z" fill="#988393"/></g></g><g><path d="m254.726 107.751c0-13.914-10.54-25.234-23.496-25.234h-.669c-1.047-12.882-11.145-23.021-23.406-23.021h-50.219c-12.956 0-23.496 11.321-23.496 25.235s10.54 25.234 23.496 25.234h28.916c1.047 12.881 11.145 23.02 23.406 23.02h21.972c12.956 0 23.496-11.32 23.496-25.234zm-23.496 10.234h-21.972c-4.685 0-8.496-4.591-8.496-10.269.009-3.491-1.354-6.865-3.739-9.257-2.247-2.253-5.208-3.494-8.337-3.494h-31.75c-4.685 0-8.496-4.591-8.496-10.234 0-5.644 3.811-10.235 8.496-10.235h50.219c4.685 0 8.496 4.591 8.496 10.269-.009 3.491 1.354 6.866 3.739 9.259 2.247 2.253 5.208 3.493 8.337 3.493h3.503c4.685 0 8.496 4.591 8.496 10.234s-3.811 10.234-8.496 10.234z"/><path d="m480.513 275.802v-51.289c0-59.968-23.353-116.348-65.756-158.753-42.405-42.406-98.786-65.76-158.757-65.76-59.968 0-116.347 23.354-158.753 65.76-33.019 33.019-54.633 74.671-62.505 120.452-.702 4.082 2.039 7.96 6.121 8.662 4.086.705 7.961-2.039 8.663-6.121 2.71-15.759 7.171-30.992 13.264-45.492h27.533c10.629 0 19.276 8.647 19.276 19.286 0 18.9 15.376 34.276 34.276 34.276h32.024c10.629 0 19.276 8.643 19.276 19.266v4.412c0 10.629-8.647 19.276-19.276 19.276h-129.412v-15.265c0-1.402.014-2.801.041-4.197.081-4.141-3.21-7.564-7.352-7.646-4.154-.036-7.565 3.211-7.646 7.353-.029 1.494-.044 2.99-.044 4.49v116.994c-14.201 1.381-25.338 13.383-25.338 27.94 0 15.482 12.595 28.077 28.076 28.077h124.057c7.394 0 14.374-2.851 19.655-8.027l37.243-36.512 88.76 88.76c-3.969 7.527-2.793 17.078 3.53 23.403l19.706 19.704c3.886 3.885 8.989 5.827 14.094 5.827 3.203 0 6.406-.767 9.308-2.297l17.707 17.707c3.94 3.941 9.117 5.91 14.293 5.91s10.353-1.97 14.293-5.91l20.053-20.054c3.818-3.817 5.922-8.894 5.922-14.293 0-5.401-2.104-10.477-5.921-14.294l-17.701-17.702c1.503-2.836 2.303-6.013 2.303-9.314 0-5.324-2.073-10.329-5.838-14.094l-19.704-19.704c-3.765-3.764-8.771-5.837-14.094-5.837-3.3 0-6.477.8-9.312 2.302l-61.281-61.281h108.915c4.143 0 7.5-3.357 7.5-7.5s-3.358-7.5-7.5-7.5h-158.101c-7.394 0-14.374 2.851-19.655 8.027l-12.521 12.275c-.002.002-.004.003-.006.005-.001.001-.002.003-.004.004l-42.49 41.655c-2.459 2.41-5.71 3.738-9.154 3.738h-124.056c-7.21 0-13.076-5.866-13.076-13.076s5.866-13.076 13.076-13.076h56.542c4.142 0 7.5-3.358 7.5-7.5 0-4.143-3.358-7.5-7.5-7.5h-44.28v-86.593h129.411c18.9 0 34.276-15.376 34.276-34.276v-4.412c0-18.895-15.376-34.266-34.276-34.266h-32.024c-10.629 0-19.276-8.647-19.276-19.287 0-18.9-15.376-34.276-34.276-34.276h-20.516c9.823-18.968 22.596-36.443 38.047-51.894 39.574-39.571 92.186-61.365 148.147-61.365 52.261 0 100.112 19.236 136.85 50.996h-76.808c-16.936 0-30.714 13.779-30.714 30.714v39.469c0 16.936 13.778 30.713 30.714 30.713h29.623c8.664 0 15.713 7.049 15.713 15.714 0 16.936 13.778 30.714 30.714 30.714h73.121c.196 3.707.3 7.438.3 11.193v51.153h-75.494v-6.169c0-13.385-10.885-24.275-24.265-24.275h-16.053c-5.114 0-9.276-4.16-9.276-9.275 0-13.386-10.885-24.276-24.264-24.276h-49.593c-13.385 0-24.276 10.89-24.276 24.276v39.719h-16.989c-7.394 0-14.374 2.851-19.655 8.027l-55.02 53.939c-2.459 2.41-5.71 3.738-9.154 3.738h-18.021c-4.142 0-7.5 3.357-7.5 7.5s3.358 7.5 7.5 7.5h18.021c7.394 0 14.375-2.851 19.655-8.027l55.021-53.94c2.459-2.41 5.71-3.738 9.154-3.738h252.472c7.21 0 13.076 5.866 13.076 13.076s-5.865 13.075-13.076 13.075h-44.877c-4.143 0-7.5 3.357-7.5 7.5s3.357 7.5 7.5 7.5h44.877c15.481 0 28.076-12.595 28.076-28.076-.001-14.555-11.138-26.557-25.339-27.938zm-72.667 195.94c0 1.392-.543 2.701-1.528 3.686l-20.054 20.054c-2.031 2.033-5.339 2.033-7.372 0l-17.078-17.078 27.426-27.427 17.079 17.078c.984.985 1.527 2.295 1.527 3.687zm-42.47-64.5 19.706 19.704c.932.932 1.444 2.17 1.444 3.486 0 1.317-.513 2.556-1.444 3.487 0 0 0 0-.001 0l-40.323 40.325c-1.925 1.926-5.055 1.924-6.976 0l-19.704-19.703c-1.923-1.924-1.923-5.053 0-6.976l40.325-40.324c.961-.962 2.224-1.442 3.486-1.442 1.263.001 2.526.481 3.487 1.443zm-123.265-75.423h27.97l71.265 71.265-27.426 27.426-88.027-88.026 7.065-6.926c2.459-2.411 5.71-3.739 9.153-3.739zm149.981-133.499c-8.664 0-15.713-7.049-15.713-15.713 0-16.936-13.778-30.714-30.714-30.714h-29.623c-8.664 0-15.713-7.049-15.713-15.713v-39.469c0-8.665 7.049-15.714 15.713-15.714h92.447c29.686 31.524 49.738 72.214 55.389 117.324h-71.786zm-134.799 37.628c0-5.114 4.161-9.276 9.276-9.276h49.593c5.108 0 9.264 4.161 9.264 9.276 0 13.385 10.89 24.275 24.276 24.275h16.053c5.109 0 9.265 4.16 9.265 9.275v6.169h-117.727z"/></g></g></svg>