<svg id="Capa_1" enable-background="new 0 0 512 512" height="512" viewBox="0 0 512 512" width="512" xmlns="http://www.w3.org/2000/svg"><g><g><g><path d="m497.108 26.516c1.842-7.045-4.58-13.467-11.625-11.625-8.114 2.122-9.048-2.5-16.924.266-43.205 15.173-82.566 39.88-115.096 72.411l-76.013 76.012c-1.808 1.808-1.808 4.74 0 6.549l9.484 9.484c5.025 5.025 5.487 13.209.704 18.464-5.106 5.611-13.8 5.765-19.103.462l-9.747-9.747c-1.808-1.808-4.74-1.808-6.549 0l-12.114 12.114c-1.808 1.808-1.808 4.74 0 6.549l9.747 9.747c5.154 5.154 5.154 13.509 0 18.663-5.154 5.154-13.509 5.154-18.663 0l-9.747-9.747c-1.808-1.808-4.74-1.808-6.549 0l-26.846 26.846 70.969 70.968 151.253-179.537c38.461-38.462 73.057-65.257 86.819-117.879z" fill="#f9f7f8"/><path d="m424.428 158.538-165.392 165.392-28.284-28.284 165.392-165.392c32.534-32.534 57.24-71.891 72.408-115.089 7.877-2.772 15.889-5.226 24.006-7.347 7.043-1.839 13.463 4.582 11.625 11.625-13.76 52.623-41.288 100.628-79.755 139.095z" fill="#e6eef2"/><path d="m230.936 330.979-155.553 155.553-49.916-49.916 17.171-31.314 36.865-36.865 36.521-22.378.227-14.37 57.697-57.697z" fill="#93e291"/><path d="m238.007 338.044-22.104 7.962-8.287 22.43-36.862 36.861-30.536 16.394-6.184 20.326-51.583 51.584-26.87-26.87 24.707-24.708 26.53-12.388 10.196-24.338 36.861-36.861 33.223-19.08 3.498-17.641 20.541-20.541z" fill="#6fdb76"/><path d="m223.129 338.786-22.58 22.58-45.99 7.071h-75.056l36.722-36.722h74.371z" fill="#00c091"/><path d="m142.471 419.444-8.437 8.437-53.748 14.142h-49.412l-12.478-12.478 24.242-24.243h74.371z" fill="#00c091"/><path d="m238.007 338.044-30.391 30.392h-53.741l36.728-36.727h41.068z" fill="#00b47e"/><path d="m244.343 331.709-6.336 6.335-6.336-6.335z" fill="#ac9da9"/><path d="m170.754 405.297-36.72 36.72-53.747.007 36.727-36.727z" fill="#00b47e"/><path d="m227.516 338.41-75.141-75.141c-7.707-7.707-7.707-20.202 0-27.908 7.707-7.707 20.202-7.707 27.908 0l75.141 75.141c7.707 7.707 7.707 20.202 0 27.908-7.706 7.707-20.201 7.707-27.908 0z" fill="#ac9da9"/><path d="m53.422 478.549-41.185-41.185c-6.317-6.317-6.317-16.56 0-22.877 6.317-6.317 16.56-6.317 22.877 0l41.185 41.185c6.317 6.317 6.317 16.56 0 22.877-6.317 6.317-16.56 6.317-22.877 0z" fill="#ac9da9"/><g fill="#988393"><path d="m276.638 331.715-28.284-28.284c7.707 7.707 7.707 20.202 0 27.908-7.707 7.707-20.202 7.707-27.909 0l28.284 28.284c7.707 7.707 20.202 7.707 27.909 0 7.707-7.706 7.707-20.201 0-27.908z"/><path d="m97.512 476.885-28.284-28.285c6.317 6.317 6.317 16.56 0 22.877s-16.56 6.317-22.877 0l28.284 28.284c6.317 6.317 16.56 6.317 22.877 0 6.318-6.316 6.318-16.559 0-22.876z"/></g></g></g><path d="m33.126 404.21c-2.943-1.281-6.143-1.96-9.449-1.96-6.324 0-12.269 2.462-16.742 6.935-4.472 4.471-6.935 10.416-6.935 16.741 0 6.324 2.463 12.27 6.935 16.741l14.421 14.421c2.929 2.929 7.678 2.93 10.606 0 2.93-2.929 2.93-7.677.001-10.606l-14.421-14.421c-3.384-3.383-3.384-8.888 0-12.27 3.383-3.383 8.887-3.383 12.269 0l62.398 62.398c3.384 3.383 3.384 8.888 0 12.27-1.639 1.639-3.817 2.541-6.135 2.541-2.317 0-4.496-.902-6.135-2.541l-24.864-24.864c-2.929-2.928-7.677-2.93-10.607 0-2.929 2.929-2.929 7.678 0 10.606l24.864 24.864c4.472 4.472 10.419 6.935 16.743 6.935s12.27-2.463 16.742-6.935 6.935-10.417 6.935-16.742c0-3.306-.679-6.507-1.961-9.449l31.547-31.546s.001-.001.001-.001l93.243-93.243 10.843 10.843c5.31 5.31 12.284 7.964 19.258 7.964s13.949-2.655 19.259-7.964c10.617-10.618 10.617-27.896 0-38.514l-7.39-7.39 51.841-51.84c2.929-2.929 2.929-7.678 0-10.606-2.929-2.929-7.677-2.93-10.607 0l-51.84 51.84-26.022-26.022c-2.929-2.928-7.677-2.929-10.607 0-2.929 2.929-2.929 7.678 0 10.606l44.019 44.019c4.771 4.77 4.771 12.532 0 17.302-2.31 2.311-5.383 3.583-8.65 3.583-3.268 0-6.341-1.272-8.651-3.583l-96.354-96.353c-2.311-2.311-3.583-5.383-3.583-8.651s1.272-6.34 3.584-8.651c2.311-2.311 5.383-3.583 8.65-3.583 3.268 0 6.34 1.272 8.65 3.583l29.222 29.222c2.93 2.929 7.678 2.929 10.607 0s2.929-7.678 0-10.606l-11.226-11.226 14.604-14.605 7.718 7.718c8.07 8.069 21.2 8.069 29.27 0 8.069-8.07 8.068-21.2-.001-29.269l-7.719-7.719 8.057-8.056 7.719 7.719c3.982 3.981 9.514 6.192 15.124 6.056 5.71-.134 10.976-2.539 14.829-6.773 7.445-8.182 7.029-20.839-.947-28.815l-7.455-7.455 73.983-73.983c37.481-37.482 84.401-64.383 135.684-77.795.926-.24 1.569.152 1.944.527.374.374.77 1.016.527 1.944-13.412 51.284-40.313 98.203-77.795 135.685l-80.229 80.228c-2.929 2.929-2.929 7.678 0 10.606 2.929 2.929 7.677 2.929 10.607 0l80.229-80.228c39.363-39.363 67.615-88.638 81.699-142.497 1.545-5.912-.112-12.023-4.433-16.345-4.322-4.322-10.436-5.979-16.346-4.432-53.858 14.085-103.133 42.337-142.497 81.7l-76.011 76.012c-2.291 2.291-3.553 5.337-3.553 8.577 0 3.241 1.262 6.287 3.553 8.578l9.483 9.484c2.265 2.264 2.472 5.904.461 8.113-1.065 1.171-2.518 1.836-4.089 1.873-1.576.031-3.053-.556-4.164-1.667l-9.748-9.748c-4.73-4.727-12.425-4.727-17.155.001l-12.114 12.115c-4.729 4.73-4.729 12.424.001 17.154l9.747 9.747c2.222 2.221 2.222 5.835.001 8.056-2.223 2.222-5.836 2.221-8.056.001l-9.747-9.747c-2.292-2.292-5.338-3.553-8.578-3.553s-6.286 1.262-8.578 3.553l-16.633 16.633-7.389-7.389c-10.62-10.619-27.896-10.618-38.514-.001-5.145 5.144-7.978 11.983-7.978 19.258 0 7.274 2.833 14.114 7.977 19.257l10.845 10.845zm169.588-79.993h-68.381l34.191-34.191zm-35.065 73.585h-106.902l21.865-21.865h106.902zm-36.722 36.722h-63.668c-.468 0-.925.049-1.369.131l-20.998-20.998.855-.855h106.902zm-50.168 15h35.168l-17.584 17.584zm123.755-88.586h-106.902l21.721-21.721h98.381l4.261 4.261z"/></g></svg>