<svg id="Capa_1" enable-background="new 0 0 512 512" height="512" viewBox="0 0 512 512" width="512" xmlns="http://www.w3.org/2000/svg"><g><g><g><g fill="#ac9da9"><path d="m89.928 88.926h10.223c9.534 0 17.653-7.413 17.992-16.941.356-10.003-7.647-18.223-17.571-18.223h-10.643c-45.525 0-82.429 36.905-82.429 82.429v13.496c0 11.046 8.954 20 20 20h11.8l100.494-10v-8.436l-77.549-10h-14.521c-2.795 0-5.06-2.266-5.06-5.06 0-26.104 21.161-47.265 47.264-47.265z"/><path d="m475.118 244.062h-254.195c-5.181 0-9.382-4.2-9.382-9.382v-12.799c0-5.181 4.2-9.382 9.382-9.382l178.561-10 75.634 10c5.181 0 9.382 4.2 9.382 9.382v12.799c0 5.182-4.2 9.382-9.382 9.382z"/><path d="m474.118 180.938-75.173 10-178.022-10c-5.181 0-9.382-4.2-9.382-9.382v-12.799c0-5.181 4.2-9.382 9.382-9.382h253.195c5.181 0 9.382 4.2 9.382 9.382v12.799c0 5.181-4.2 9.382-9.382 9.382z"/></g><path d="m223.068 454.059c8.428-3.371 7.521-9.941 4.137-18.363l-67.073-179.409-30.487 12.194 72.091 179.455c1.452 3.615 4.045 6.43 7.199 8.197 4.179 2.342 9.34-.157 14.133-2.074z" fill="#806e7b"/><path d="m223.07 457.06c-4.78 1.91-9.93 1.42-14.1-.91 7.13-3.95 10.36-12.69 7.24-20.45l-69.87-173.9 13.79-5.51 72.08 179.41c3.38 8.42-.71 17.99-9.14 21.36z" fill="#6c5e68"/><path d="m91.664 456.059c-1.036-.414-2.006.078-2.905-.51-6.416-4.196-9.2-12.466-6.232-19.853l72.073-179.41 30.487 12.194-82.091 179.455c-3.377 8.405-2.922 11.488-11.332 8.124z" fill="#ac9da9"/><path d="m185.09 268.48-72.09 179.46c-3.38 8.4-12.93 12.48-21.34 9.12-1.03-.41-2-.92-2.9-1.51 2.72-1.78 4.94-4.37 6.24-7.61l72.09-179.46-14.98-5.99 2.49-6.2z" fill="#988393"/><path d="m162.518 297.592h-30.304c-5.181 0-9.382-4.2-9.382-9.382v-46.789c0-5.181 4.2-9.382 9.382-9.382h30.304c5.181 0 9.382 4.2 9.382 9.382v46.789c0 5.182-4.201 9.382-9.382 9.382z" fill="#00c091"/><path d="m191.9 241.42v46.79c0 5.18-4.2 9.38-9.38 9.38h-30c5.18 0 9.38-4.2 9.38-9.38v-46.79c0-5.18-4.2-9.38-9.38-9.38h30c5.18 0 9.38 4.2 9.38 9.38z" fill="#00b47e"/><path d="m504.5 158.76v12.8c0 5.18-4.2 9.38-9.38 9.38l-10.62 10-14.38-10c5.18 0 9.38-4.2 9.38-9.38v-12.8c0-5.18-4.2-9.38-9.38-9.38h25c5.18 0 9.38 4.2 9.38 9.38z" fill="#988393"/><path d="m504.5 221.878v12.8c0 5.18-4.2 9.38-9.38 9.38h-25c5.18 0 9.38-4.2 9.38-9.38v-12.8c0-5.18-4.2-9.38-9.38-9.38l17.19-10 7.81 10c5.18 0 9.38 4.2 9.38 9.38z" fill="#988393"/><path d="m475.118 212.5h-254.195c-5.181 0-9.382-4.2-9.382-9.382v-12.799c0-5.181 4.2-9.382 9.382-9.382h254.195c5.181 0 9.382 4.2 9.382 9.382v12.799c0 5.182-4.2 9.382-9.382 9.382z" fill="#806e7b"/><path d="m103.44 141.25c-13.41.45-14.14 11.46-14.14 24.98l-10 3.46h-40v-3.46c0-13.52 10.73-24.53 24.14-24.98z" fill="#988393"/><path d="m504.5 190.319v12.8c0 5.18-4.2 9.38-9.38 9.38h-25c5.18 0 9.38-4.2 9.38-9.38v-12.8c0-5.18-4.2-9.38-9.38-9.38h25c5.18 0 9.38 4.2 9.38 9.38z" fill="#6c5e68"/><path d="m449.008 254.492c-2.705 0-5.257 1.341-7.502.175-5.227-2.715-8.797-8.177-8.797-14.474v-86.948c0-6.297 3.57-11.759 8.797-14.474 2.246-1.166 4.797 1.175 7.502 1.175 9.002 0 6.299 4.297 6.299 13.299l8 86.948c0 9.002-5.298 14.299-14.299 14.299z" fill="#fff1ab"/><path d="m449.008 136.946c-2.707 0-5.253.67-7.5 1.838 5.225 2.715 8.799 8.167 8.799 14.461v86.949c0 6.295-3.574 11.746-8.799 14.461 2.247 1.168 4.793 1.838 7.5 1.838 9.002 0 16.299-7.297 16.299-16.299v-86.949c0-9.002-7.298-16.299-16.299-16.299z" fill="#ffe270"/><path d="m347.521 254.492c-2.705 0-5.256 1.341-7.502.175-5.227-2.715-8.797-8.177-8.797-14.474v-86.948c0-6.297 3.57-11.759 8.797-14.474 2.246-1.166 4.797 1.175 7.502 1.175 9.002 0 6.299 4.297 6.299 13.299l8 86.948c0 9.002-5.298 14.299-14.299 14.299z" fill="#fff1ab"/><path d="m347.521 136.946c-2.707 0-5.253.67-7.5 1.838 5.225 2.715 8.799 8.167 8.799 14.461v86.949c0 6.295-3.574 11.746-8.799 14.461 2.247 1.168 4.793 1.838 7.5 1.838 9.002 0 16.299-7.297 16.299-16.299v-86.949c0-9.002-7.298-16.299-16.299-16.299z" fill="#ffe270"/><path d="m230.436 242.212-18.505 10h-107.63c-13.807 0-25-11.193-25-25v-60.986c0-13.807 11.193-25 25-25h107.559l18.576 10z" fill="#93e291"/><path d="m234.5 251.92c0 .1 0 .19.01.29h-22.64c-.01-.1-.01-.19-.01-.29v-110.4c0-.1 0-.19.01-.29h22.64c-.01.1-.01.19-.01.29l10 45.709z" fill="#6fdb76"/><path d="m246.552 261.488h-2.482c-5.285 0-9.57-4.285-9.57-9.57v-110.398c0-5.285 4.285-9.57 9.57-9.57h4.482c5.285 0 9.57 4.285 9.57 9.57l-2 110.398c0 5.285-4.285 9.57-9.57 9.57z" fill="#fff1ab"/><path d="m272.12 141.52v110.4c0 5.28-4.28 9.57-9.57 9.57h-18.48c-.09 0-.17 0-.26-.01 5.17-.13 9.31-4.37 9.31-9.56v-110.4c0-5.2-4.14-9.43-9.31-9.56.09-.01.17-.01.26-.01h18.48c5.29 0 9.57 4.28 9.57 9.57z" fill="#ffe270"/></g></g><g><path d="m50.238 133.752c1.265-20.794 18.583-37.323 39.689-37.323h10.223c13.81 0 25.005-10.619 25.487-24.175.244-6.875-2.247-13.382-7.017-18.324-4.771-4.942-11.181-7.665-18.049-7.665h-10.642c-49.587 0-89.929 40.342-89.929 89.929v13.495c0 15.163 12.337 27.5 27.5 27.5h44.302v50.025c0 17.921 14.579 32.5 32.5 32.5h11.031v28.499c0 7.569 5.007 13.989 11.882 16.125l-51.647 128.565c-2.385 5.934-2.312 12.44.202 18.32 2.515 5.881 7.17 10.427 13.108 12.803 2.901 1.16 5.896 1.709 8.847 1.709 9.485 0 18.485-5.681 22.229-15.001l37.412-93.129 37.411 93.128c3.744 9.321 12.743 15.002 22.23 15.002 2.949 0 5.946-.55 8.847-1.709 5.939-2.376 10.594-6.922 13.108-12.803 2.515-5.88 2.587-12.387.203-18.32l-12.888-32.083c-1.545-3.844-5.911-5.703-9.756-4.164-3.844 1.545-5.708 5.912-4.164 9.756l12.889 32.083c.889 2.213.861 4.639-.076 6.83-.938 2.193-2.673 3.888-4.887 4.773-4.555 1.823-9.756-.399-11.587-4.956l-43.248-107.656 9.61-23.923 25.113 62.513c1.176 2.927 3.988 4.706 6.961 4.706.931 0 1.878-.175 2.794-.543 3.844-1.544 5.708-5.911 4.163-9.755l-26.573-66.146c6.876-2.136 11.882-8.557 11.882-16.126v-28.499h29.502c2.838 5.5 8.566 9.276 15.169 9.276h18.481c9.413 0 17.07-7.657 17.07-17.07v-.355h47.01c4.04 7.399 11.895 12.43 20.903 12.43s16.862-5.031 20.903-12.43h59.667c4.041 7.399 11.895 12.43 20.903 12.43s16.862-5.031 20.903-12.43h25.208c9.309 0 16.882-7.573 16.882-16.882v-12.799c0-3.47-1.054-6.697-2.856-9.382 1.802-2.685 2.856-5.912 2.856-9.382v-12.799c0-3.47-1.054-6.697-2.856-9.382 1.802-2.685 2.856-5.912 2.856-9.382v-12.799c0-9.309-7.573-16.882-16.882-16.882h-25.207c-4.041-7.399-11.895-12.43-20.902-12.43s-16.862 5.031-20.902 12.43h-59.668c-4.041-7.399-11.895-12.43-20.902-12.43-9.008 0-16.862 5.031-20.902 12.43h-47.011v-.355c0-9.413-7.657-17.07-17.07-17.07h-18.483c-6.604 0-12.332 3.777-15.17 9.277h-24.241c-4.143 0-7.5 3.357-7.5 7.5s3.357 7.5 7.5 7.5h22.341v95.985h-122.698c-9.65 0-17.5-7.851-17.5-17.5v-60.985c0-9.649 7.85-17.5 17.5-17.5h67.671c4.143 0 7.5-3.357 7.5-7.5s-3.357-7.5-7.5-7.5zm-35.238 15.937v-13.495c0-41.315 33.613-74.929 74.929-74.929h10.644c2.761 0 5.338 1.095 7.256 3.082 1.916 1.986 2.918 4.604 2.819 7.374-.19 5.353-4.899 9.708-10.497 9.708h-10.223c-30.197 0-54.764 24.566-54.764 54.764 0 6.926 5.635 12.559 12.561 12.559h29.197c-2.547 3.976-4.25 8.537-4.86 13.437h-44.562c-6.893 0-12.5-5.608-12.5-12.5zm482 9.07v12.799c0 1.038-.844 1.882-1.882 1.882h-22.312v-16.562h22.312c1.038-.001 1.882.843 1.882 1.881zm0 31.563v12.799c0 1.038-.844 1.882-1.882 1.882h-22.312v-16.563h22.312c1.038 0 1.882.844 1.882 1.882zm-125.666-1.882h53.875v16.562h-53.875zm53.875-15h-53.875v-16.562h53.875zm-53.875 46.562h53.875v16.562h-53.875zm-91.712-31.562h44.114v16.562h-44.114zm44.114-31.563v16.562h-44.114v-16.562zm-217.701 288.266c-1.829 4.556-7.027 6.78-11.586 4.955-2.214-.886-3.949-2.58-4.887-4.773-.938-2.191-.965-4.617-.076-6.83l53.59-133.399h19.22zm78.364-156.93c0 1.038-.844 1.882-1.881 1.882h-50.304c-1.038 0-1.882-.844-1.882-1.882v-28.499h54.066v28.499zm80.223-36.293c0 1.142-.929 2.07-2.07 2.07h-18.482c-1.142 0-2.07-.929-2.07-2.07v-110.398c0-1.142.929-2.07 2.07-2.07h18.481c1.142 0 2.07.929 2.07 2.07v110.398zm15-31.918h44.114v16.562h-44.114zm67.913 28.993c-4.852 0-8.799-3.947-8.799-8.799v-86.948c0-4.853 3.947-8.8 8.799-8.8s8.799 3.947 8.799 8.8v86.948c0 4.851-3.947 8.799-8.799 8.799zm110.272-8.799c0 4.852-3.947 8.799-8.799 8.799s-8.799-3.947-8.799-8.799v-86.948c0-4.853 3.947-8.8 8.799-8.8s8.799 3.947 8.799 8.8zm39.193-5.513c0 1.038-.844 1.882-1.882 1.882h-22.312v-16.562h22.312c1.038 0 1.882.844 1.882 1.882z"/><path d="m204.358 170.724h-38.501c-4.143 0-7.5 3.357-7.5 7.5s3.357 7.5 7.5 7.5h38.501c4.143 0 7.5-3.357 7.5-7.5s-3.357-7.5-7.5-7.5z"/><path d="m113.349 185.724h19.822c4.143 0 7.5-3.357 7.5-7.5s-3.357-7.5-7.5-7.5h-19.822c-4.143 0-7.5 3.357-7.5 7.5s3.357 7.5 7.5 7.5z"/><path d="m113.349 222.719h91.01c4.143 0 7.5-3.357 7.5-7.5 0-4.142-3.357-7.5-7.5-7.5h-91.01c-4.143 0-7.5 3.358-7.5 7.5 0 4.143 3.357 7.5 7.5 7.5z"/></g></g></svg>