<svg id="Capa_1" enable-background="new 0 0 512 512" height="512" viewBox="0 0 512 512" width="512" xmlns="http://www.w3.org/2000/svg"><g><g><g><path d="m208.025 182.482h85.95v109.212h-85.95z" fill="#f3f7f8"/><path d="m273.98 182.48h30v109.21h-30z" fill="#e6eef2"/><path d="m126.883 375.294c0-16.116 23.107-27.521 28.919-41.535 6.024-14.528-2.023-38.879 8.925-49.828 10.948-10.948 35.3-2.901 49.827-8.925 14.014-5.811 25.419-28.919 41.535-28.919s27.521 23.107 41.535 28.919c5.196 2.155 11.649 2.509 18.296 2.577 11.937.121 14.499 9.316 21.532 16.349 10.948 10.948-7.099 25.3-1.075 39.827 5.811 14.014 38.919 25.419 38.919 41.535s-23.107 27.521-28.919 41.535c-6.024 14.528 2.023 28.879-8.925 39.828-7.03 7.03-9.587 16.228-21.52 16.348-6.651.067-13.108.421-18.308 2.577-14.014 5.811-25.419 28.919-41.535 28.919s-27.521-23.107-41.535-28.919c-14.528-6.024-38.879 2.023-49.828-8.925-10.948-10.948-2.901-35.3-8.925-49.828-5.81-14.014-28.918-25.419-28.918-41.535z" fill="#fff1ab"/><path d="m385.3 375.29c0 16.12-23.11 27.52-28.92 41.54-6.03 14.53 2.02 38.88-8.93 49.83-7.03 7.02-19.59 6.22-31.52 6.35 6.97-13.55.86-43.01 6.32-56.18 5.82-14.02 28.92-25.42 28.92-41.54 0-16.11-23.1-27.52-28.92-41.53-5.46-13.17.65-42.63-6.33-56.18 11.94.12 24.5-.68 31.53 6.35 10.95 10.95 2.9 35.3 8.93 49.83 5.81 14.01 28.92 25.42 28.92 41.53z" fill="#ffe270"/><ellipse cx="256.09" cy="375.294" fill="#f3f7f8" rx="77.73" ry="77.73" transform="matrix(.707 -.707 .707 .707 -190.366 291.004)"/><path d="m274.76 357.893 21.801 3.231c4.42.655 6.169 6.094 2.961 9.203l-15.826 15.339c-1.274 1.235-1.859 3.017-1.564 4.767l3.664 21.733c.743 4.406-3.889 7.75-7.837 5.66l-19.479-10.312c-1.568-.83-3.444-.835-5.017-.014l-19.537 10.2c-3.96 2.068-8.573-1.303-7.805-5.705l3.788-21.712c.305-1.748-.27-3.534-1.537-4.776l-15.738-15.429c-3.19-3.128-1.41-8.556 3.014-9.186l21.82-3.107c1.756-.25 3.277-1.349 4.067-2.937l9.81-19.736c1.989-4.001 7.702-3.984 9.668.028l9.698 19.792c.78 1.594 2.294 2.701 4.049 2.961z" fill="#ffe270"/><path d="m198.626 184.101 115.454 33.303 105.419-195.262c4.277-6.658-1.643-14.642-10.856-14.642h-5.354l-20.441 10-25.174-10h-38.2c-4.558 0-8.74 2.064-10.856 5.358z" fill="#00c091"/><path d="m439.5 22.14-125.42 195.26-21.09-6.08 121.51-189.18c4.28-6.66-1.64-14.64-10.86-14.64h25c9.22 0 15.14 7.98 10.86 14.64z" fill="#00b47e"/><path d="m222.85 217.403h45.615l134.824-209.903h-45.615z" fill="#ffe270"/><path d="m294.456 217.403h-5.476l-14.491-10-30.832 10h-40.276c-3.404 0-6.574-1.732-8.414-4.596l-122.466-190.665c-4.277-6.659 1.643-14.642 10.856-14.642h25.354l22.325 10 23.29-10h18.2c4.558 0 8.74 2.064 10.856 5.358l119.488 189.141c4.275 6.655-.504 15.404-8.414 15.404z" fill="#93e291"/><path d="m316.46 217.4h-28c7.91 0 12.69-8.75 8.41-15.4l-121.49-189.14c-2.11-3.3-6.3-5.36-10.85-5.36h28c4.55 0 8.74 2.06 10.85 5.36l121.49 189.14c4.28 6.65-.5 15.4-8.41 15.4z" fill="#6fdb76"/><path d="m289.15 217.403h-45.615l-134.824-209.903h45.615z" fill="#fff1ab"/></g></g><g><path d="m170.859 375.294c0 46.996 38.234 85.23 85.23 85.23s85.229-38.234 85.229-85.23c0-17.645-5.346-34.577-15.46-48.964-2.381-3.388-7.059-4.206-10.449-1.823-3.389 2.382-4.204 7.06-1.822 10.449 8.329 11.849 12.731 25.797 12.731 40.338 0 38.725-31.505 70.23-70.229 70.23-38.726 0-70.23-31.505-70.23-70.23s31.505-70.23 70.23-70.23c12.631 0 25.013 3.388 35.806 9.799 3.562 2.115 8.164.943 10.278-2.618 2.115-3.561.943-8.163-2.618-10.278-13.109-7.787-28.14-11.902-43.466-11.902-46.995-.001-85.23 38.233-85.23 85.229z"/><path d="m276.957 350.637-9.209-18.796c-2.175-4.438-6.597-7.204-11.539-7.218-.013 0-.025 0-.038 0-4.927 0-9.348 2.738-11.542 7.153l-9.316 18.743-20.721 2.951c-4.894.696-8.891 4.046-10.432 8.742s-.306 9.764 3.225 13.224l14.945 14.652-3.597 20.619c-.85 4.869 1.101 9.706 5.091 12.623s9.19 3.309 13.573 1.02l18.555-9.687 18.498 9.793c1.911 1.011 3.982 1.511 6.043 1.511 2.648 0 5.281-.826 7.535-2.454 4.007-2.894 5.985-7.719 5.164-12.593l-3.48-20.639 15.03-14.568c3.549-3.44 4.813-8.499 3.299-13.205-1.514-4.705-5.492-8.078-10.381-8.802zm1.521 29.643c-3.048 2.954-4.446 7.215-3.741 11.4l2.953 17.518-15.7-8.312c-1.887-.999-3.959-1.499-6.032-1.499-2.048 0-4.097.488-5.965 1.464l-15.748 8.222 3.053-17.501c.729-4.18-.645-8.449-3.675-11.419l-12.686-12.437 17.588-2.504c4.2-.598 7.836-3.224 9.726-7.024l7.907-15.908 7.818 15.956c1.868 3.81 5.489 6.455 9.686 7.076l17.572 2.605z"/><path d="m446.433 9.854c-3.321-6.078-10.137-9.854-17.79-9.854h-109.169c-7.101 0-13.678 3.374-17.167 8.805l-46.307 72.094-46.307-72.094c-3.489-5.431-10.066-8.805-17.167-8.805h-109.169c-7.653 0-14.47 3.776-17.79 9.854-2.841 5.201-2.608 11.31.623 16.341l37.143 57.826c2.238 3.485 6.877 4.496 10.364 2.257 3.484-2.239 4.495-6.879 2.257-10.364l-37.142-57.826c-.299-.464-.28-.677-.08-1.044.538-.984 2.214-2.044 4.625-2.044h21.257l125.189 194.903h-26.422c-.855 0-1.642-.43-2.104-1.149l-64.33-100.154c-2.238-3.485-6.877-4.496-10.364-2.257-3.484 2.239-4.495 6.878-2.257 10.364l64.33 100.154c2.712 4.222 7.02 7.009 11.867 7.803v45.31c-2.626.116-5.369.122-8.078.128-11.504.022-24.542.047-33.021 8.527-8.481 8.48-8.507 21.52-8.528 33.024-.014 7.092-.028 14.425-2.023 19.234-1.848 4.454-6.866 9.435-11.719 14.252-8.33 8.267-17.772 17.638-17.772 30.156s9.441 21.889 17.772 30.156c4.852 4.817 9.871 9.798 11.719 14.252 1.994 4.81 2.009 12.143 2.023 19.235.021 11.504.047 24.542 8.527 33.023 8.48 8.48 21.519 8.505 33.023 8.527 7.092.014 14.426.028 19.235 2.023 4.455 1.847 9.436 6.866 14.253 11.719 8.267 8.33 17.637 17.771 30.155 17.771 12.519 0 21.889-9.441 30.155-17.771 4.817-4.854 9.798-9.873 14.253-11.72 4.81-1.994 12.143-2.008 19.234-2.022 11.504-.022 24.543-.047 33.023-8.527s8.505-21.519 8.526-33.023c.014-7.092.028-14.426 2.022-19.235 1.848-4.454 6.866-9.435 11.72-14.252 8.33-8.267 17.771-17.637 17.771-30.156s-9.441-21.889-17.771-30.156c-4.854-4.817-9.872-9.798-11.72-14.251-1.994-4.81-2.008-12.142-2.021-19.234-.022-11.504-.048-24.544-8.527-33.024-8.48-8.48-21.52-8.505-33.023-8.527-2.771-.006-5.577-.013-8.257-.136v-45.061h4.98c6.403 0 12.288-3.491 15.358-9.111 2.376-4.351 2.758-9.43 1.208-14.003l39.787-61.942c2.238-3.485 1.228-8.125-2.257-10.364-3.485-2.238-8.126-1.229-10.364 2.257l-35.766 55.683-13.893-21.63 96.859-150.796h21.257c2.411 0 4.088 1.06 4.626 2.044.2.367.218.58-.08 1.044l-52.006 80.966c-2.238 3.485-1.227 8.125 2.257 10.364 1.255.806 2.658 1.19 4.047 1.19 2.468 0 4.885-1.217 6.317-3.448l52.006-80.966c3.231-5.03 3.463-11.139.623-16.34zm-131.505 7.058c.591-.921 2.267-1.912 4.546-1.912h24.469l-65.135 101.408-13.894-21.631zm-192.486-1.912h27.787l125.189 194.903h-27.786zm219.706 274.234c4.1 4.099 4.117 13.426 4.135 22.446.017 8.553.033 17.396 3.166 24.951 3 7.234 9.105 13.293 15.009 19.152 6.558 6.508 13.338 13.238 13.338 19.51s-6.78 13.001-13.338 19.509c-5.904 5.859-12.009 11.918-15.009 19.152-3.133 7.555-3.15 16.399-3.167 24.953-.017 9.02-.035 18.347-4.134 22.445-4.098 4.099-13.425 4.116-22.444 4.134-8.553.017-17.397.033-24.952 3.166-7.234 3-13.294 9.105-19.153 15.009-6.508 6.559-13.237 13.339-19.509 13.339s-13.001-6.78-19.509-13.337c-5.859-5.904-11.919-12.009-19.153-15.009-7.556-3.132-16.399-3.15-24.952-3.166-9.02-.018-18.347-.036-22.445-4.134-4.099-4.099-4.117-13.425-4.134-22.445-.017-8.553-.034-17.397-3.167-24.953-3-7.234-9.105-13.293-15.008-19.152-6.558-6.508-13.338-13.237-13.338-19.509s6.78-13.002 13.338-19.51c5.903-5.859 12.008-11.918 15.008-19.152 3.133-7.555 3.15-16.399 3.167-24.952.017-9.02.035-18.347 4.135-22.446 4.099-4.099 13.425-4.117 22.444-4.134 8.553-.017 17.396-.034 24.952-3.166 7.234-3 13.294-9.105 19.153-15.009 6.508-6.557 13.236-13.337 19.509-13.337 6.272 0 13.001 6.78 19.509 13.337 5.859 5.904 11.919 12.009 19.153 15.009 7.555 3.133 16.398 3.15 24.952 3.167 9.02.016 18.346.034 22.444 4.132zm-45.672-64.331v40.821c-3.329-2.418-6.82-5.93-10.23-9.366-8.267-8.33-17.637-17.771-30.155-17.771-12.519 0-21.889 9.441-30.155 17.771-3.472 3.498-7.027 7.075-10.41 9.495v-40.95zm22.174-16.301c-.266.486-.904 1.301-2.194 1.301h-23.21l-125.189-194.903h24.469c2.279 0 3.955.991 4.546 1.912l121.488 189.14c.697 1.086.356 2.064.09 2.55zm-17.035-56.686-13.893-21.63 74.049-115.286h27.787z"/></g></g></svg>