<svg id="Capa_1" enable-background="new 0 0 512 512" height="512" viewBox="0 0 512 512" width="512" xmlns="http://www.w3.org/2000/svg"><g><g><g><path d="m273.5 143.973-10-117.283c0-9.671 2.165-15.51-7.5-15.51-2.883 0-5.604-1.303-8.002-.067-5.64 2.907-9.498 8.791-9.498 15.577v117.283z" fill="#fff1ab"/><path d="m273.5 26.694v117.275h-16v-117.275c0-6.784-3.86-12.668-9.5-15.57 2.4-1.241 5.12-1.941 8-1.941 9.66 0 17.5 7.835 17.5 17.511z" fill="#ffe270"/><path d="m293.249 245.557h-74.497c-9.754 0-17.661-7.912-17.661-17.672v-69.599c0-9.76 7.907-17.672 17.661-17.672h54.497c9.754 0 17.661 7.912 17.661 17.672l20 69.599c-.001 9.76-7.908 17.672-17.661 17.672z" fill="#ac9da9"/><path d="m310.91 158.288v69.594c0 9.766-7.91 17.671-17.66 17.671h-30c9.75 0 17.66-7.905 17.66-17.671v-69.594c0-9.766-7.91-17.671-17.66-17.671h30c9.75 0 17.66 7.905 17.66 17.671z" fill="#988393"/><path d="m459.492 502.821h-426.984c-13.812 0-25.008-11.197-25.008-25.008v-266.909c0-13.811 11.196-25.008 25.008-25.008h426.984c13.812 0 25.008 11.196 25.008 25.008v266.908c0 13.812-11.196 25.009-25.008 25.009z" fill="#8ac9fe"/><path d="m504.5 210.911v266.89c0 13.819-11.19 25.016-25 25.016h-30c13.81 0 25-11.197 25-25.016v-266.89c0-13.819-11.19-25.016-25-25.016h30c13.81 0 25 11.197 25 25.016z" fill="#60b7ff"/><path d="m454.988 389.24c0 12.846-8.407 21.259-21.246 21.259-3.78 0-7.348 1.099-10.503-.503-7.561-3.838-12.742-11.692-12.742-20.756s5.181-16.917 12.741-20.756c3.155-1.602 6.724-.503 10.504-.503 12.839 0 21.246 8.413 21.246 21.259z" fill="#ff7d7d"/><path d="m456.99 389.245c0 12.838-10.41 23.255-23.25 23.255-3.78 0-7.35-.901-10.5-2.512 7.57-3.832 12.75-11.687 12.75-20.743 0-9.066-5.18-16.921-12.75-20.753 3.15-1.611 6.72-2.512 10.5-2.512 12.84 0 23.25 10.417 23.25 23.265z" fill="#ff6161"/><path d="m91.001 249.51c0 12.846-.407 21.259-13.246 21.259-3.58 0-6.971 1.191-10-.255-7.833-3.741-13.245-11.74-13.245-21.004s5.412-17.263 13.245-21.004c3.029-1.447 6.42-.255 10-.255 12.838 0 13.246 8.413 13.246 21.259z" fill="#ff7d7d"/><path d="m77.755 226.25c-3.58 0-6.971.812-10 2.258 7.833 3.741 13.245 11.738 13.245 21.002s-5.413 17.261-13.245 21.002c3.029 1.447 6.42 2.259 10 2.259 12.838 0 23.245-10.414 23.245-23.26s-10.407-23.261-23.245-23.261z" fill="#ff6161"/><path d="m80.337 452.461h-12.164c-7.686 0-13.916-6.234-13.916-13.925l-10-12.678v-36.613l10-12.029-10-24.595v-22.684c0-7.691 6.23-13.925 13.916-13.925h22.164c7.686 0 13.916 6.234 13.916 13.925v118.605c0 7.691-6.23 3.919-13.916 3.919z" fill="#806e7b"/><path d="m111.25 329.937v22.689l-10 15.983 10 20.63v36.618l-10 12.678c0 7.695 3.77 13.929-3.91 13.929h-22c7.68 0 13.91-6.234 13.91-13.929v-12.678-36.613l10-23.068-10-13.55v-22.689c0-7.695-6.23-13.929-13.91-13.929h22c7.68 0 13.91 6.234 13.91 13.929z" fill="#6c5e68"/><path d="m77.337 462.468h-19.164c-7.686 0-13.916-6.234-13.916-13.925v-22.689h44.993l12.003 10.006v12.683c0 7.69-16.23 13.925-23.916 13.925z" fill="#fff1ab"/><path d="m89.25 389.24h-44.993v-36.614h44.993l12.003 14.156z" fill="#fff1ab"/><path d="m89.25 352.621h22v36.623h-22z" fill="#ffe270"/><path d="m111.25 425.858v22.684c0 7.695-6.23 13.929-13.91 13.929h-22c7.68 0 13.91-6.234 13.91-13.929v-22.684z" fill="#ffe270"/><path d="m327.508 462.468h-163.016c-8.548 0-15.477-6.93-15.477-15.478v-205.263c0-8.548 6.93-15.477 15.477-15.477h163.017c8.548 0 15.478 6.929 15.478 15.477v205.263c-.001 8.548-6.931 15.478-15.479 15.478z" fill="#f9f7f8"/><path d="m362.99 241.731v205.251c0 8.555-6.93 15.49-15.48 15.49h-24.51c8.55 0 15.48-6.934 15.48-15.49v-205.251c0-8.545-6.93-15.48-15.48-15.48h24.51c8.55 0 15.48 6.935 15.48 15.48z" fill="#e6eef2"/></g></g><g><path d="m182.173 120.96c1.443 0 2.903-.416 4.189-1.285 3.434-2.317 4.338-6.979 2.02-10.412-9.108-13.491-13.923-29.266-13.923-45.619s4.814-32.127 13.923-45.619c2.318-3.433 1.414-8.095-2.02-10.412-3.432-2.319-8.095-1.415-10.412 2.019-10.789 15.981-16.491 34.657-16.491 54.012s5.702 38.033 16.491 54.012c1.449 2.146 3.815 3.304 6.223 3.304z"/><path d="m337.541 63.644c0 16.075-4.664 31.625-13.488 44.969-2.285 3.455-1.336 8.107 2.119 10.393 1.273.842 2.709 1.245 4.13 1.245 2.434 0 4.82-1.183 6.263-3.364 10.452-15.805 15.976-34.216 15.976-53.242 0-19.591-5.831-38.456-16.861-54.557-2.342-3.416-7.008-4.288-10.427-1.948-3.417 2.342-4.289 7.01-1.948 10.427 9.313 13.591 14.236 29.525 14.236 46.077z"/><path d="m300.383 63.644c0 7.101-1.417 13.972-4.211 20.424-1.646 3.801.102 8.217 3.902 9.863.971.42 1.982.619 2.977.619 2.899 0 5.661-1.691 6.887-4.521 3.613-8.345 5.445-17.222 5.445-26.385 0-9.405-1.928-18.499-5.73-27.029-1.686-3.785-6.123-5.48-9.903-3.798-3.784 1.687-5.483 6.12-3.798 9.903 2.941 6.596 4.431 13.636 4.431 20.924z"/><path d="m208.95 94.552c.994 0 2.006-.199 2.977-.619 3.801-1.646 5.548-6.062 3.902-9.863-2.795-6.453-4.212-13.326-4.212-20.426 0-7.288 1.49-14.326 4.43-20.92 1.686-3.783-.014-8.218-3.797-9.904-3.782-1.686-8.218.014-9.904 3.797-3.801 8.528-5.729 17.622-5.729 27.027 0 9.162 1.832 18.04 5.446 26.387 1.226 2.829 3.987 4.521 6.887 4.521z"/><path d="m7.5 296.755c4.143 0 7.5-3.357 7.5-7.5v-78.343c0-9.658 7.851-17.516 17.5-17.516h331.616c4.143 0 7.5-3.357 7.5-7.5s-3.357-7.5-7.5-7.5h-45.707v-20.11c0-13.88-11.287-25.172-25.161-25.172h-12.248v-106.424c0-13.791-11.215-25.012-25-25.012s-25 11.221-25 25.012v106.424h-12.248c-13.874 0-25.161 11.292-25.161 25.172v20.11h-161.091c-17.921 0-32.5 14.587-32.5 32.516v78.343c0 4.142 3.357 7.5 7.5 7.5zm238.5-270.065c0-5.52 4.486-10.012 10-10.012s10 4.491 10 10.012v106.424h-20zm-37.409 131.596c0-5.608 4.559-10.172 10.161-10.172h74.496c5.603 0 10.161 4.563 10.161 10.172v20.11h-94.818z"/><path d="m479.5 178.396h-82.697c-4.143 0-7.5 3.357-7.5 7.5s3.357 7.5 7.5 7.5h82.697c9.649 0 17.5 7.857 17.5 17.516v266.893c0 9.658-7.851 17.517-17.5 17.517h-447c-9.649 0-17.5-7.858-17.5-17.517v-155.843c0-4.143-3.357-7.5-7.5-7.5s-7.5 3.357-7.5 7.5v155.843c0 17.93 14.579 32.517 32.5 32.517h447c17.921 0 32.5-14.587 32.5-32.517v-266.893c0-17.929-14.579-32.516-32.5-32.516z"/><path d="m433.743 218.75c-4.143 0-7.5 3.357-7.5 7.5v133.159c-13.34 3.359-23.246 15.457-23.246 29.831 0 14.373 9.906 26.472 23.246 29.83v43.397c0 4.143 3.357 7.5 7.5 7.5s7.5-3.357 7.5-7.5v-43.397c13.339-3.358 23.245-15.457 23.245-29.83 0-14.374-9.906-26.473-23.245-29.831v-133.159c0-4.143-3.357-7.5-7.5-7.5zm15.745 170.49c0 8.69-7.064 15.76-15.745 15.76-8.683 0-15.746-7.069-15.746-15.76 0-8.69 7.063-15.761 15.746-15.761 8.682 0 15.745 7.071 15.745 15.761z"/><path d="m108.501 249.51c0-16.961-13.793-30.76-30.746-30.76s-30.745 13.799-30.745 30.76c0 16.962 13.792 30.761 30.745 30.761s30.746-13.799 30.746-30.761zm-46.491 0c0-8.69 7.063-15.76 15.745-15.76 8.683 0 15.746 7.069 15.746 15.76 0 8.69-7.063 15.761-15.746 15.761-8.682 0-15.745-7.071-15.745-15.761z"/><path d="m36.757 329.933v118.614c0 11.811 9.609 21.421 21.421 21.421h39.155c11.811 0 21.42-9.609 21.42-21.421v-118.614c0-11.81-9.609-21.42-21.42-21.42h-39.155c-11.812 0-21.421 9.609-21.421 21.42zm15 66.807h51.996v21.613h-51.996zm51.996-15h-51.996v-21.614h51.996zm-6.42 73.228h-39.155c-3.54 0-6.421-2.881-6.421-6.421v-15.193h51.996v15.193c0 3.54-2.88 6.421-6.42 6.421zm-39.155-131.455h39.155c3.54 0 6.42 2.88 6.42 6.42v15.193h-51.996v-15.193c0-3.54 2.881-6.42 6.421-6.42z"/><path d="m243.808 469.968h103.706c12.667 0 22.973-10.31 22.973-22.982v-205.254c0-12.673-10.306-22.982-22.973-22.982h-183.028c-12.667 0-22.973 10.31-22.973 22.982v205.253c0 12.673 10.306 22.982 22.973 22.982h46.635c4.143 0 7.5-3.357 7.5-7.5s-3.357-7.5-7.5-7.5h-46.635c-4.396 0-7.973-3.581-7.973-7.982v-205.253c0-4.401 3.576-7.982 7.973-7.982h183.027c4.396 0 7.973 3.581 7.973 7.982v205.253c0 4.401-3.576 7.982-7.973 7.982h-103.705c-4.143 0-7.5 3.357-7.5 7.5s3.357 7.501 7.5 7.501z"/><path d="m223.053 351.858h25.447v25.469c0 4.143 3.357 7.5 7.5 7.5s7.5-3.357 7.5-7.5v-25.469h25.447c4.143 0 7.5-3.357 7.5-7.5s-3.357-7.5-7.5-7.5h-25.447v-25.468c0-4.143-3.357-7.5-7.5-7.5s-7.5 3.357-7.5 7.5v25.468h-25.447c-4.143 0-7.5 3.357-7.5 7.5s3.357 7.5 7.5 7.5z"/><path d="m181.023 298.322c4.143 0 7.5-3.357 7.5-7.5v-19.62h19.603c4.143 0 7.5-3.357 7.5-7.5 0-4.142-3.357-7.5-7.5-7.5h-24.021c-5.835 0-10.582 4.748-10.582 10.584v24.036c0 4.143 3.358 7.5 7.5 7.5z"/><path d="m338.477 266.786c0-5.836-4.747-10.584-10.582-10.584h-24.021c-4.143 0-7.5 3.358-7.5 7.5 0 4.143 3.357 7.5 7.5 7.5h19.603v19.62c0 4.143 3.357 7.5 7.5 7.5s7.5-3.357 7.5-7.5z"/><path d="m173.523 421.931c0 5.836 4.747 10.584 10.582 10.584h24.021c4.143 0 7.5-3.357 7.5-7.5 0-4.142-3.357-7.5-7.5-7.5h-19.603v-19.619c0-4.143-3.357-7.5-7.5-7.5s-7.5 3.357-7.5 7.5z"/><path d="m330.977 390.396c-4.143 0-7.5 3.357-7.5 7.5v19.619h-19.603c-4.143 0-7.5 3.358-7.5 7.5 0 4.143 3.357 7.5 7.5 7.5h24.021c5.835 0 10.582-4.748 10.582-10.584v-24.035c0-4.143-3.358-7.5-7.5-7.5z"/></g></g></svg>