<svg id="Capa_1" enable-background="new 0 0 512 512" height="512" viewBox="0 0 512 512" width="512" xmlns="http://www.w3.org/2000/svg"><g><g><g><path d="m97.88 495.555.57-10.286-12.582-28.144-38.063-38.063-21.065-5.511-10.293.571c-8.159.452-11.939 10.344-6.161 16.123l71.471 71.471c5.778 5.778 15.67 1.998 16.123-6.161z" fill="#d59186"/><path d="m54.872 411.992 24.432 10.29 20.702 34.845-1.555 28.143-71.715-71.715z" fill="#cb7e72"/><path d="m179.645 320.202c-2.929 2.929-7.678 2.929-10.607 0l-46.395-46.395c-2.929-2.929-2.929-7.678 0-10.607s7.678-2.929 10.607 0l46.395 46.395c2.928 2.929 2.928 7.678 0 10.607z" fill="#f3f7f8"/><path d="m204.872 294.974c-2.929 2.929-7.678 2.929-10.607 0l-46.395-46.395c-2.929-2.929-2.929-7.678 0-10.607s7.678-2.929 10.607 0l46.395 46.395c2.929 2.929 2.929 7.678 0 10.607z" fill="#f3f7f8"/><path d="m181 229.176-4.382 18.524-62.771 62.771c-3.692 3.692-9.677 3.692-13.368 0l-14.695-14.695c-3.691-3.691-3.691-9.677 0-13.368l62.772-62.771 18.524-4.382c3.692-3.692 9.677-3.692 13.368 0l.553.553c3.69 3.691 3.69 9.676-.001 13.368z" fill="#ac9da9"/><path d="m416.908 109.658-67.651 81.794-69.942 69.942-28.708-28.707 69.942-69.942 81.794-67.652z" fill="#806e7b"/><path d="m346.68 395.904-7.716 7.716c-3.207 3.207-8.407 3.207-11.614 0l-118.501-118.501c-3.207-3.207-3.207-8.407 0-11.614l19.029-19.029c3.207-3.207 8.407-3.207 11.614 0l107.188 129.814c3.207 3.207 3.207 8.407 0 11.614z" fill="#d59186"/><path d="m239.497 254.477 118.497 118.497c3.21 3.21 3.203 8.408 0 11.611l-14.142 14.142c3.203-3.203 3.21-8.401 0-11.611l-118.497-118.497c-3.21-3.21-8.415-3.21-11.618-.007l14.142-14.142c3.204-3.203 8.408-3.203 11.618.007z" fill="#cb7e72"/><path d="m233.314 433.858-7.009 7.009c-3.207 3.207-8.407 3.207-11.614 0l-80.795-80.795c-3.207-3.207-3.207-8.407 0-11.614l19.029-19.029c3.207-3.207 8.407-3.207 11.614 0l68.774 92.815c3.208 3.207 3.208 8.407.001 11.614z" fill="#d59186"/><path d="m164.544 329.43 80.794 80.794c3.203 3.203 3.203 8.408 0 11.611l-14.142 14.142c3.203-3.203 3.203-8.408 0-11.611l-80.794-80.794c-3.21-3.21-8.415-3.21-11.618-.007l14.142-14.142c3.204-3.203 8.408-3.203 11.618.007z" fill="#cb7e72"/><path d="m310.319 246.817-158.662 158.662-23.079 8.937-2.744 16.886-25.823 25.823-45.134-45.134 25.823-25.823 18.614-4.472 7.209-21.351 158.661-158.661c4.107-4.107 10.765-4.107 14.871 0l30.263 30.263c4.107 4.106 4.107 10.764.001 14.87z" fill="#ac9da9"/><path d="m304.099 177.643 30.264 30.264c4.101 4.101 4.101 10.762-.007 14.87l-28.284 28.284c4.108-4.108 4.108-10.769.007-14.87l-30.264-30.264c-4.108-4.108-10.769-4.108-14.878 0l28.284-28.284c4.108-4.108 10.769-4.108 14.878 0z" fill="#988393"/><path d="m97.919 363.909h36.52v63.829h-36.52z" fill="#d59186" transform="matrix(.707 -.707 .707 .707 -245.862 198.085)"/><path d="m169.836 211.717 14.7 14.7c3.688 3.688 3.696 9.674 0 13.369l-7.916 7.916-28.062-28.062 7.916-7.916c3.696-3.695 9.674-3.695 13.362-.007z" fill="#806e7b"/><path d="m180.447 201.112 14.701 14.701c3.684 3.684 3.691 9.673-.007 13.371l-12.021 12.021c3.698-3.698 3.691-9.687.007-13.371l-14.701-14.701c-3.691-3.691-9.673-3.691-13.371.007l12.021-12.021c3.698-3.698 9.68-3.698 13.371-.007z" fill="#6c5e68"/><path d="m365.06 175.649-15.803 15.803-28.708-28.707 15.804-15.803 21.423 7.281z" fill="#6c5e68"/><path d="m404.414 156.245-14.187 29.261c-2.446 5.045-9.137 6.173-13.102 2.208l-52.838-52.838c-3.965-3.965-2.837-10.656 2.208-13.102l29.261-14.187c3.343-1.621 5.966-4.425 7.36-7.87l23.34-57.667c1.433-3.542 4.439-6.21 8.126-7.213l70.938-19.302 21.348-.662c6.237-1.697 11.958 4.024 10.261 10.261l-27.035 85.214c-1.003 3.686-3.671 6.692-7.213 8.126l-26.647 20.717-23.95 9.693c-3.444 1.395-6.249 4.018-7.87 7.361z" fill="#ff7d7d"/><path d="m504.196 18.063-27.033 99.355c-1.004 3.691-3.67 6.696-7.212 8.132l-33.715 13.647c.134-.347.24-.707.339-1.061l30.964-113.794c.905-3.338-.035-6.541-2.022-8.811l28.419-7.729c6.236-1.696 11.957 4.024 10.26 10.261z" fill="#ff6161"/></g></g><path d="m200.449 234.477c6.61-6.61 6.61-17.364 0-23.974l-14.694-14.694c-3.202-3.202-7.459-4.966-11.987-4.966s-8.785 1.763-11.987 4.966l-81.292 81.292c-6.61 6.61-6.61 17.365 0 23.974l14.694 14.695c3.305 3.305 7.646 4.957 11.987 4.957s8.682-1.653 11.987-4.957l22.73-22.73 10.668 10.668-100.946 100.944-35.566 1.972c-6.769.375-12.477 4.542-14.897 10.874-2.42 6.333-.946 13.245 3.848 18.039l71.469 71.469c3.268 3.269 7.521 4.994 11.904 4.994 2.045 0 4.119-.376 6.133-1.146 6.332-2.42 10.5-8.128 10.875-14.897l1.972-35.567 58.138-58.137 43.905 43.905c2.968 2.968 6.913 4.603 11.11 4.603s8.142-1.635 11.11-4.602l19.029-19.028c6.126-6.126 6.126-16.093 0-22.22l-43.906-43.906 33.702-33.702 42.578 42.578c1.464 1.465 3.384 2.197 5.303 2.197s3.839-.732 5.303-2.197c2.929-2.929 2.929-7.677 0-10.606l-42.578-42.578 20.036-20.036 81.61 81.61c.278.278.278.73 0 1.008l-19.029 19.029c-.277.276-.73.276-1.008 0l-15.921-15.921c-2.929-2.93-7.677-2.929-10.606 0s-2.929 7.677 0 10.606l15.921 15.921c3.063 3.063 7.087 4.595 11.11 4.595s8.047-1.532 11.11-4.595l19.029-19.029c6.126-6.126 6.126-16.093 0-22.22l-81.611-81.61 8.267-8.267 6.208 6.208c5.203 5.202 12.037 7.803 18.871 7.803s13.669-2.601 18.871-7.804l5.605-5.605c2.929-2.929 2.929-7.677 0-10.606-2.929-2.928-7.677-2.928-10.606 0l-5.605 5.605c-4.557 4.557-11.972 4.557-16.53 0l-6.208-6.208 39.105-39.105c3.403-3.402 5.277-7.926 5.277-12.738 0-2.588-.559-5.085-1.589-7.376l21.707-21.707 6.763 6.763c2.956 2.956 6.961 4.583 11.078 4.583.862 0 1.729-.071 2.592-.217 4.985-.84 9.277-4.058 11.483-8.606l15.446-31.857 60.341-24.421c5.678-2.298 10.027-7.198 11.635-13.108l27.034-99.353c1.512-5.557-.016-11.306-4.088-15.378-4.073-4.072-9.822-5.601-15.378-4.088l-45.821 12.467c-3.996 1.087-6.355 5.209-5.267 9.206 1.087 3.996 5.208 6.353 9.206 5.267l45.821-12.468c.133-.036.481-.13.834.222.352.352.257.702.221.833l-27.034 99.353c-.386 1.416-1.429 2.591-2.79 3.142l-63.016 25.505c-1.722.697-3.124 2.008-3.934 3.68l-16.705 34.454c-.04.083-.147.303-.479.359-.334.055-.506-.117-.571-.182l-52.836-52.837c-.065-.065-.238-.238-.182-.57s.276-.439.359-.479l34.454-16.705c1.672-.811 2.983-2.212 3.68-3.935l25.504-63.016c.551-1.361 1.726-2.404 3.143-2.79l21.956-5.974c3.996-1.087 6.355-5.209 5.267-9.206-1.087-3.996-5.212-6.356-9.206-5.267l-21.956 5.974c-5.909 1.609-10.81 5.958-13.108 11.635l-24.421 60.341-31.857 15.446c-4.549 2.205-7.766 6.498-8.606 11.483s.792 10.095 4.367 13.669l6.762 6.762-21.707 21.708c-2.291-1.03-4.788-1.589-7.376-1.589-4.812 0-9.336 1.874-12.738 5.277l-28.648 28.647c-2.929 2.929-2.929 7.678 0 10.606 2.928 2.929 7.677 2.929 10.606 0l28.648-28.647c.768-.769 1.665-.883 2.132-.883.466 0 1.364.115 2.132.883l30.262 30.262c1.176 1.176 1.176 3.089 0 4.264l-177.394 177.394-34.527-34.526 125.634-125.634c2.929-2.929 2.929-7.678 0-10.606s-7.677-2.928-10.606 0l-43.777 43.777-10.668-10.668zm-59.392 170.993-15.216 15.216-34.526-34.526 15.216-15.216zm31.33-199.056c.473-.473 1.012-.572 1.38-.572.369 0 .908.1 1.381.572l14.694 14.694c.473.473.572 1.012.572 1.381s-.099.908-.572 1.381l-13.22 13.22-17.456-17.456zm-63.836 98.749c-.762.762-2.001.76-2.762 0l-14.694-14.694c-.761-.762-.761-2.001 0-2.762l57.466-57.466 17.456 17.456zm43.942-22.73 14.621-14.621 10.668 10.668-14.62 14.62zm-71.785 114.332 34.526 34.527-15.216 15.216-34.527-34.526zm8.438 100.078c-.539.206-1.336.296-2.078-.443l-71.468-71.469c-.74-.74-.65-1.539-.443-2.078.206-.539.671-1.195 1.716-1.253l35.081-1.945 40.391 40.391-1.945 35.08c-.058 1.046-.714 1.511-1.254 1.717zm150.887-81.327c.278.278.278.73 0 1.008l-19.029 19.029c-.277.277-.73.277-1.008 0l-43.906-43.906 20.036-20.036zm93.548-218.997-18.1-18.1 20.87-20.87 18.1 18.1z"/></g></svg>