<svg id="Capa_1" enable-background="new 0 0 512 512" height="512" viewBox="0 0 512 512" width="512" xmlns="http://www.w3.org/2000/svg"><g><g><g><path d="m450.799 419.625h-419.104c-5.523 0-10-4.477-10-10v-38.982c0-5.523 4.477-10 10-10h419.103c5.523 0 10 4.477 10 10v38.982c.001 5.523-4.476 10-9.999 10z" fill="#ff7d7d"/><path d="m487.8 370.64v38.99c0 5.52-4.48 10-10 10h-30c5.52 0 10-4.48 10-10v-38.99c0-5.52-4.48-10-10-10h30c5.52 0 10 4.48 10 10z" fill="#ff6161"/><path d="m409.537 170.086h-24.924c-13.807 0-25 11.193-25 25l-10 85.446 10 105.797h94.887c11.046 0 20-8.954 20-20v-94.187c0-5.77-1.427-11.451-4.153-16.537l-38.777-72.331c-4.353-8.12-12.82-13.188-22.033-13.188z" fill="#93e291"/><path d="m504.5 272.14v38.14l-10 20.346 10 13.136v22.568c0 11.04-8.95 20-20 20h-37.15c11.05 0 20-8.96 20-20v-94.19c0-2.528-.275-5.039-.812-7.49-.689-3.144 8.19-6.19 6.662-9.05l-37.45-51.198-11.33-21.132c-4.35-8.12-12.82-13.18-22.03-13.18h37.15c9.21 0 17.68 5.06 22.03 13.18l11.334 21.14 17.446 51.19c1.528 2.86 12.649 5.906 13.338 9.049.537 2.452.812 4.963.812 7.491z" fill="#6fdb76"/><path d="m466.666 264.649h-61.76c-5.523 0-10-4.477-10-10v-40.24c0-5.523 4.477-10 10-10h32.774l42.67 51.2c1.53 2.85-14.374 5.9-13.684 9.04z" fill="#f9f7f8"/><path d="m503.69 264.65h-37.15c-.69-3.14-1.81-6.19-3.34-9.05l-27.45-51.19h37.15l27.45 51.19c1.53 2.86 2.65 5.91 3.34 9.05z" fill="#e6eef2"/><path d="m477.49 343.762h27.01v-33.482h-27.01c-5.523 0-10 4.477-10 10v13.482c0 5.523 4.477 10 10 10z" fill="#ff6161"/><path d="m326.271 93.539c-8.744 5.781-7.487-10.582-16.231-9.092-19.236 3.28-38.472-3.824-57.708-21.312-.809-.735-1.678-1.367-2.59-1.894-1.429-.826-2.965 8.602-4.541 8.286-3.53-.708-7.263-10.136-10.464-8.285-.911.527-1.779 1.158-2.587 1.892-32.396 29.452-64.793 29.452-97.189 0-.808-.735-1.676-1.365-2.588-1.893-2.315-1.339-4.909 7.992-7.503 7.991-2.594 0-5.188-9.331-7.503-7.991-.911.527-1.78 1.158-2.588 1.893-27.979 25.438-55.958 28.906-83.938 10.405-10.003-6.614-23.341.47-23.341 12.461v239.65l10 16.846h332.112v-16.846-219.65c0-11.991-13.338-19.075-23.341-12.461z" fill="#00c091"/><path d="m359.61 86v239.647l-10 16.853h-30l-10-16.709v-239.791c0-.5-.02-1-.07-1.48 8.91-1.43 17.82-5.09 26.73-10.98 10-6.61 23.34.47 23.34 12.46z" fill="#00b47e"/><path d="m18.352 386.329h291.188l40.072-10v-40.682l-40.002-10h-302.11v49.831c0 5.993 4.858 10.851 10.852 10.851z" fill="#fff1ab"/><path d="m309.61 325.65h50v60.68h-50z" fill="#ffe270"/><path d="m351.183 402.87c0 22.359 14.707 41.284 34.976 47.626 4.711 1.474 9.722.269 14.919.269 27.556 0 39.895-20.339 39.895-47.895s-12.339-47.895-39.895-47.895c-5.167 0-10.15-1.215-14.837.243-20.311 6.318-35.058 25.263-35.058 47.652z" fill="#806e7b"/><path d="m450.97 402.87c0 27.56-22.34 49.9-49.89 49.9-5.2 0-10.22-.8-14.94-2.27 20.25-6.35 34.95-25.27 34.95-47.63s-14.7-41.27-34.95-47.62c4.72-1.47 9.74-2.27 14.94-2.27 27.55 0 49.89 22.33 49.89 49.89z" fill="#6c5e68"/><ellipse cx="401.078" cy="402.871" fill="#f9f7f8" rx="20.013" ry="20.013" transform="matrix(.387 -.922 .922 .387 -125.71 616.559)"/><path d="m61.029 402.87c0 22.359 14.707 41.284 34.976 47.626 4.711 1.474 9.722.269 14.919.269 27.556 0 39.895-20.339 39.895-47.895s-12.339-47.895-39.895-47.895c-5.167 0-10.15-1.215-14.837.243-20.311 6.318-35.058 25.263-35.058 47.652z" fill="#806e7b"/><path d="m160.816 402.87c0 27.56-22.34 49.9-49.89 49.9-5.2 0-10.22-.8-14.94-2.27 20.25-6.35 34.95-25.27 34.95-47.63s-14.7-41.27-34.95-47.62c4.72-1.47 9.74-2.27 14.94-2.27 27.55 0 49.89 22.33 49.89 49.89z" fill="#6c5e68"/><ellipse cx="110.924" cy="402.871" fill="#f9f7f8" rx="20.013" ry="20.013" transform="matrix(.387 -.922 .922 .387 -303.46 349.062)"/></g></g><g><path d="m0 375.493c0 8.688 6.075 15.968 14.195 17.859v16.289c0 9.65 7.851 17.5 17.5 17.5h27.226c9.158 19.556 29.018 33.141 52.001 33.141s42.843-13.585 52.001-33.141h129.397c4.142 0 7.5-3.357 7.5-7.5s-3.358-7.5-7.5-7.5h-124.76c.491-3.015.757-6.104.757-9.255 0-3.076-.25-6.095-.719-9.041h48.757c4.142 0 7.5-3.357 7.5-7.5s-3.358-7.5-7.5-7.5h-53.335c-9.113-19.67-29.032-33.354-52.098-33.354s-42.984 13.684-52.098 33.354h-40.472c-1.848 0-3.352-1.504-3.352-3.352v-42.33h337.112v39.624c0 .06.008.118.009.177-1.159 1.89-2.203 3.856-3.141 5.881h-99.938c-4.142 0-7.5 3.357-7.5 7.5s3.358 7.5 7.5 7.5h95.359c-.468 2.947-.719 5.965-.719 9.041 0 3.151.266 6.24.757 9.255h-19.432c-4.142 0-7.5 3.357-7.5 7.5s3.358 7.5 7.5 7.5h24.069c9.158 19.556 29.018 33.141 52.001 33.141s42.843-13.585 52.001-33.141h24.72c9.649 0 17.5-7.85 17.5-17.5v-18.008c9.81-4.206 16.701-13.956 16.701-25.288v-94.188c0-6.982-1.744-13.927-5.044-20.081l-38.777-72.33c-5.669-10.574-16.644-17.144-28.643-17.144h-54.924c-6.44 0-12.444 1.891-17.5 5.135v-81.721c0-8.285-4.528-15.867-11.817-19.786-7.329-3.94-16.203-3.532-23.16 1.069-24.967 16.509-49.421 13.336-74.757-9.696-8.628-7.846-21.642-7.845-30.271-.001-14.699 13.363-29.351 20.139-43.55 20.139s-28.851-6.775-43.549-20.138c-8.628-7.846-21.643-7.845-30.271-.001-25.336 23.035-49.79 26.207-74.758 9.697-6.956-4.599-15.831-5.009-23.16-1.069-7.29 3.919-11.818 11.501-11.818 19.786zm492.665-118.329h-87.759c-1.379 0-2.5-1.121-2.5-2.5v-40.239c0-1.379 1.121-2.5 2.5-2.5h63.506zm4.335 79.113h-19.51c-1.378 0-2.5-1.121-2.5-2.5v-13.482c0-1.379 1.122-2.5 2.5-2.5h19.51zm-478.08-256.836c2.495-1.342 5.405-1.203 7.784.369 15.457 10.221 31.28 14.413 47.029 12.462 14.653-1.816 29.32-9.018 43.638-21.403v247.293h-102.371v-232.146c0-4.032 2.742-5.941 3.92-6.575zm92.002 281.05c23.376 0 42.395 19.019 42.395 42.395 0 23.377-19.019 42.395-42.395 42.395-23.377 0-42.395-19.019-42.395-42.395s19.019-42.395 42.395-42.395zm-56.638 51.65h-22.589c-1.378 0-2.5-1.121-2.5-2.5v-15.796h25.05c-.468 2.947-.718 5.965-.718 9.041 0 3.151.266 6.24.757 9.255zm195.458-93.978v-102.539c0-4.143-3.358-7.5-7.5-7.5s-7.5 3.357-7.5 7.5v102.539h-102.371v-247.303c16.773 14.51 33.979 21.881 51.186 21.881 17.206 0 34.412-7.37 51.185-21.881v112.078c0 4.143 3.358 7.5 7.5 7.5s7.5-3.357 7.5-7.5v-112.068c14.317 12.385 28.984 19.587 43.638 21.402 15.751 1.955 31.572-2.241 47.028-12.462 2.379-1.572 5.29-1.71 7.784-.369 1.179.634 3.92 2.543 3.92 6.574v105.717c0 .373.036.736.089 1.094-.052.753-.089 1.51-.089 2.276v123.061zm151.336 127.118c-23.376 0-42.395-19.019-42.395-42.395s19.019-42.395 42.395-42.395 42.395 19.019 42.395 42.395c0 23.377-19.019 42.395-42.395 42.395zm76.721-33.14h-20.083c.491-3.015.757-6.104.757-9.255 0-3.076-.25-6.095-.719-9.041h22.545v15.796c0 1.379-1.122 2.5-2.5 2.5zm6.701-33.296h-31.325c-9.113-19.67-29.032-33.354-52.098-33.354-12.702 0-24.448 4.154-33.965 11.166v-161.554c0-9.649 7.851-17.5 17.5-17.5h54.924c6.461 0 12.371 3.537 15.423 9.231l5.41 10.091h-55.464c-9.65 0-17.5 7.851-17.5 17.5v40.239c0 9.649 7.85 17.5 17.5 17.5h92.095v30.632h-19.51c-9.649 0-17.5 7.851-17.5 17.5v13.482c0 9.649 7.851 17.5 17.5 17.5h19.51v15.067c0 6.892-5.607 12.5-12.5 12.5z"/><path d="m401.078 375.373c-15.17 0-27.513 12.342-27.513 27.513s12.342 27.513 27.513 27.513c15.17 0 27.513-12.342 27.513-27.513s-12.343-27.513-27.513-27.513zm0 40.026c-6.899 0-12.513-5.613-12.513-12.513 0-6.899 5.613-12.513 12.513-12.513s12.513 5.613 12.513 12.513c-.001 6.899-5.614 12.513-12.513 12.513z"/><path d="m110.922 430.399c15.17 0 27.513-12.342 27.513-27.513s-12.342-27.513-27.513-27.513-27.512 12.342-27.512 27.513 12.342 27.513 27.512 27.513zm0-40.026c6.899 0 12.513 5.613 12.513 12.513 0 6.899-5.613 12.513-12.513 12.513-6.899 0-12.513-5.613-12.513-12.513.001-6.9 5.614-12.513 12.513-12.513z"/></g></g></svg>