<svg id="Capa_1" enable-background="new 0 0 512 512" height="512" viewBox="0 0 512 512" width="512" xmlns="http://www.w3.org/2000/svg"><g><g><g><path d="m340.762 66.694h-9.425c-9.274 0-16.793-7.518-16.793-16.793v-21.25c0-7.427 4.821-13.728 11.505-15.943 1.663-.551 3.44.151 5.288.151h9.425c9.274 0 6.793 6.518 6.793 15.793l10 21.25c0 9.274-7.518 16.792-16.793 16.792z" fill="#806e7b"/><path d="m357.55 28.65v21.25c0 9.28-7.51 16.79-16.79 16.79h-9.42c-1.85 0-3.63-.3-5.29-.85 6.68-2.21 11.5-8.51 11.5-15.94v-21.25c0-7.42-4.82-13.73-11.5-15.93 1.66-.56 3.44-.86 5.29-.86h9.42c9.28 0 16.79 7.52 16.79 16.79z" fill="#6c5e68"/><path d="m66.36 66.693h-9.426c-9.274 0-16.793-7.518-16.793-16.793v-21.25c0-7.427 4.821-13.728 11.505-15.943 1.663-.551 3.44.151 5.288.151h9.426c9.274 0 6.793 6.518 6.793 15.793l10 21.25c-.001 9.274-7.519 16.792-16.793 16.792z" fill="#806e7b"/><path d="m83.147 28.649v21.25c0 9.28-7.51 16.79-16.79 16.79h-9.42c-1.85 0-3.63-.3-5.29-.85 6.68-2.21 11.5-8.51 11.5-15.94v-21.25c0-7.42-4.82-13.73-11.5-15.93 1.66-.56 3.44-.86 5.29-.86h9.42c9.28 0 16.79 7.52 16.79 16.79z" fill="#6c5e68"/><path d="m135.138 500.141h-12.933c-5.953 0-10.78-4.826-10.78-10.779v-160.077c0-5.953 4.826-10.78 10.78-10.78h12.933c5.953 0 10.78 4.826 10.78 10.78v160.076c-.001 5.953-4.827 10.78-10.78 10.78z" fill="#ac9da9"/><path d="m172.92 329.28v160.08c0 5.95-4.83 10.78-10.78 10.78h-30c5.95 0 10.78-4.83 10.78-10.78v-160.08c0-5.95-4.83-10.77-10.78-10.77h30c5.95 0 10.78 4.82 10.78 10.77z" fill="#988393"/><path d="m466.72 148.353h-91.489v-37.728h91.489c5.953 0 10.78 4.826 10.78 10.78v16.169c0 5.953-4.826 10.779-10.78 10.779z" fill="#d59186"/><path d="m504.5 121.4v16.17c0 5.96-4.83 10.78-10.78 10.78h-30c5.95 0 10.78-4.82 10.78-10.78v-16.17c0-5.95-4.83-10.78-10.78-10.78h30c5.95 0 10.78 4.83 10.78 10.78z" fill="#cb7e72"/><path d="m396.687 177.98h-31.519c-8.93 0-16.169-7.239-16.169-16.169v-64.644c0-8.93 7.239-16.169 16.169-16.169h31.519c8.93 0 16.169 7.239 16.169 16.169v64.644c0 8.929-7.239 16.169-16.169 16.169z" fill="#806e7b"/><path d="m424.86 97.17v64.64c0 8.93-7.24 16.17-16.17 16.17h-20c8.93 0 16.17-7.24 16.17-16.17v-64.64c0-8.93-7.24-16.17-16.17-16.17h20c8.93 0 16.17 7.24 16.17 16.17z" fill="#6c5e68"/><path d="m345.236 59.204v140.576c0 8.93-7.239 16.169-16.169 16.169h-111.14c-11.907 0-61.559 9.652-61.559 21.559l10 124.324c0 8.93-7.239 16.169-16.169 16.169h-36.05c-8.93 0-16.169-7.239-16.169-16.169l-10-20.302v-107.366c0-11.004-6.691-20.903-16.901-25.006l-53.438-21.473c-6.127-2.461-10.141-8.4-10.141-15.003v-113.478c0-8.93 7.239-16.169 16.169-16.169h305.398c8.93 0 16.169 7.239 16.169 16.169z" fill="#ac9da9"/><path d="m385.24 59.2v140.58c0 8.93-7.24 16.17-16.17 16.17h-50c8.93 0 16.17-7.24 16.17-16.17v-140.58c0-8.93-7.24-16.17-16.17-16.17h50c8.93 0 16.17 7.24 16.17 16.17z" fill="#988393"/><path d="m167.93 215.95h50c-11.91 0-21.56 9.65-21.56 21.56v104.02l-10 20.3c0 8.93-7.24 16.17-16.17 16.17h-50c8.93 0 16.17-7.24 16.17-16.17l10-20.3v-104.02c0-11.91 9.65-21.56 21.56-21.56z" fill="#988393"/><path d="m146.37 341.53 10 30.3c0 8.93-7.24 16.17-16.17 16.17h-36.05c-8.93 0-16.17-7.24-16.17-16.17v-30.3z" fill="#806e7b"/><path d="m196.37 341.53v30.3c0 8.93-7.24 16.17-16.17 16.17h-50c8.93 0 16.17-7.24 16.17-16.17v-30.3z" fill="#6c5e68"/></g></g><g><path d="m493.721 103.124h-61.365v-5.957c0-13.051-10.618-23.669-23.669-23.669h-15.951v-14.293c0-13.051-10.618-23.669-23.669-23.669h-4.012v-6.883c0-13.395-10.897-24.293-24.293-24.293h-9.425c-13.395 0-24.293 10.898-24.293 24.293v6.883h-46.788c-4.142 0-7.5 3.358-7.5 7.5s3.358 7.5 7.5 7.5h108.811c4.78 0 8.669 3.889 8.669 8.669v140.576c0 4.78-3.889 8.669-8.669 8.669h-151.14c-16.023 0-29.059 13.036-29.059 29.059v96.521h-93.388v-45.495c0-4.142-3.358-7.5-7.5-7.5s-7.5 3.358-7.5 7.5v83.297c0 12.976 10.497 23.542 23.445 23.664v93.865c0 10.08 8.2 18.28 18.279 18.28h39.934c10.079 0 18.279-8.2 18.279-18.28v-27.83c0-4.142-3.358-7.5-7.5-7.5s-7.5 3.358-7.5 7.5v27.83c0 1.809-1.471 3.28-3.279 3.28h-39.934c-1.808 0-3.279-1.471-3.279-3.28v-93.859h46.492v33.344c0 4.142 3.358 7.5 7.5 7.5s7.5-3.358 7.5-7.5v-33.349c12.951-.118 23.451-10.686 23.451-23.664v-86.086h57.804c18.995 0 34.449-15.454 34.449-34.449v-27.848h72.946c13.051 0 23.669-10.618 23.669-23.669v-14.301h15.951c13.051 0 23.669-10.618 23.669-23.669v-5.958h61.365c10.079 0 18.279-8.2 18.279-18.279v-16.169c0-10.08-8.2-18.281-18.279-18.281zm-171.677-74.472c0-5.124 4.169-9.293 9.293-9.293h9.425c5.124 0 9.293 4.169 9.293 9.293v6.883h-28.011zm-141.845 351.85h-76.049c-4.78 0-8.669-3.889-8.669-8.67v-22.802h93.388v22.802c-.001 4.781-3.89 8.67-8.67 8.67zm100.922-129.205c0 10.724-8.725 19.449-19.449 19.449h-57.804v-33.237c0-4.867 2.487-9.162 6.256-11.687 3.057 16.74 17.74 29.474 35.349 29.474h11.75c4.142 0 7.5-3.358 7.5-7.5s-3.358-7.5-7.5-7.5h-11.75c-10.146 0-18.624-7.254-20.536-16.846h56.183v27.847zm136.235-89.486c0 4.78-3.889 8.669-8.669 8.669h-15.951v-81.982h15.951c4.78 0 8.669 3.889 8.669 8.669zm79.644-24.237c0 1.808-1.471 3.279-3.279 3.279h-61.365v-22.729h61.365c1.808 0 3.279 1.471 3.279 3.28z"/><path d="m80.48 255.85c0 4.142 3.358 7.5 7.5 7.5s7.5-3.358 7.5-7.5v-21.685c0-14.144-8.481-26.691-21.605-31.965l-53.439-21.473c-3.302-1.327-5.436-4.485-5.436-8.044v-113.478c0-4.78 3.889-8.669 8.669-8.669h203.9c4.142 0 7.5-3.358 7.5-7.5s-3.358-7.5-7.5-7.5h-136.917v-6.883c0-13.395-10.898-24.293-24.293-24.293h-9.425c-13.395 0-24.292 10.898-24.292 24.293v6.883h-8.972c-13.052-.001-23.67 10.617-23.67 23.669v113.478c0 9.719 5.827 18.34 14.844 21.962l53.438 21.473c7.41 2.977 12.197 10.061 12.197 18.047v21.685zm-32.838-227.198c0-5.124 4.168-9.293 9.292-9.293h9.425c5.124 0 9.293 4.169 9.293 9.293v6.883h-28.01z"/><path d="m293.06 93.174h-193.383c-4.142 0-7.5 3.358-7.5 7.5s3.358 7.5 7.5 7.5h193.383c4.142 0 7.5-3.358 7.5-7.5s-3.358-7.5-7.5-7.5z"/><path d="m293.06 149.734h-193.383c-4.142 0-7.5 3.358-7.5 7.5s3.358 7.5 7.5 7.5h193.383c4.142 0 7.5-3.358 7.5-7.5s-3.358-7.5-7.5-7.5z"/></g></g></svg>