<svg id="Capa_1" enable-background="new 0 0 512 512" height="512" viewBox="0 0 512 512" width="512" xmlns="http://www.w3.org/2000/svg"><g><g><g><path d="m144.807 481.94h-23.942l58.102-311.485h33.943z" fill="#d59186"/><path d="m212.91 170.46-58.1 311.48h-17l58.1-311.48z" fill="#cb7e72"/><path d="m357.193 481.94h23.942l-48.102-311.485h-33.943z" fill="#d59186"/><path d="m391.14 481.94h-16l-58.11-311.48h16z" fill="#cb7e72"/><path d="m409.349 504.5h-336.698c-9.69 0-17.545-7.855-17.545-17.545 0-9.69 7.855-17.545 17.545-17.545h336.699c9.69 0 17.545 7.855 17.545 17.545-.001 9.69-7.856 17.545-17.546 17.545z" fill="#93e291"/><path d="m439.349 469.41h-40c9.69 0 17.545 7.855 17.545 17.545 0 9.69-7.855 17.545-17.545 17.545h40c9.69 0 17.545-7.855 17.545-17.545 0-9.69-7.855-17.545-17.545-17.545z" fill="#6fdb76"/><path d="m172.649 80.859h146.701v130.701h-146.701z" fill="#d59186"/><path d="m309.35 80.86h30v130.7h-30z" fill="#cb7e72"/><path d="m315.764 85.211h-158.528c-4.455 0-6.14-6.355-2.372-8.949l81.178-55.903 17.585-2.11c1.449-.998 3.296-.998 4.745 0l59.764 58.013c3.768 2.594 2.083 8.949-2.372 8.949z" fill="#00c091"/><path d="m354.76 85.21h-40c4.46 0 6.14-6.35 2.38-8.95l-81.14-55.87 17.63-12.14c1.45-1 3.29-1 4.74 0l98.77 68.01c3.76 2.6 2.08 8.95-2.38 8.95z" fill="#00b47e"/><path d="m282.671 212.175h-53.341v-40.76c0-14.73 11.941-26.671 26.671-26.671 14.73 0 26.671 11.941 26.671 26.671v40.76z" fill="#806e7b"/><path d="m325.132 240.825h-168.264c-8.284 0-15-6.716-15-15v-8.651c0-8.284 6.716-15 15-15h168.264c8.284 0 15 6.716 15 15v8.651c0 8.284-6.716 15-15 15z" fill="#ac9da9"/><path d="m370.13 217.17v8.66c0 8.28-6.71 15-15 15h-40c8.29 0 15-6.72 15-15v-8.66c0-8.28-6.71-15-15-15h40c8.29 0 15 6.72 15 15z" fill="#988393"/></g></g><path d="m439.347 461.911h-44.32l-39.841-213.583c12.381-.03 22.444-10.111 22.444-22.498v-8.65c0-12.406-10.093-22.5-22.5-22.5h-8.281v-101.963h7.913c5.208 0 9.776-3.437 11.368-8.554 1.656-5.324-.25-10.98-4.741-14.072l-98.763-68.012c-4.026-2.773-9.227-2.771-13.253 0l-98.761 68.011c-4.492 3.093-6.397 8.749-4.742 14.073 1.591 5.116 6.159 8.554 11.367 8.554h7.913v30.381c0 4.143 3.358 7.5 7.5 7.5s7.5-3.357 7.5-7.5v-30.381h151.699v101.963h-41.679v-23.26c0-18.841-15.329-34.17-34.17-34.17s-34.17 15.329-34.17 34.17v23.26h-41.68v-38.896c0-4.143-3.358-7.5-7.5-7.5s-7.5 3.357-7.5 7.5v38.896h-8.281c-12.407 0-22.5 10.094-22.5 22.5v8.65c0 12.388 10.063 22.468 22.444 22.498l-39.841 213.583h-44.32c-13.809 0-25.044 11.235-25.044 25.045 0 13.809 11.235 25.045 25.044 25.045h253.076c4.142 0 7.5-3.357 7.5-7.5 0-4.142-3.358-7.5-7.5-7.5h-253.075c-5.538 0-10.044-4.506-10.044-10.045s4.506-10.045 10.044-10.045h127.821c4.142 0 7.5-3.357 7.5-7.5s-3.358-7.5-7.5-7.5h-34.3l1.454-7.792c.326-.117.649-.251.964-.417l87.407-45.932 87.409 45.932c.315.166.638.3.964.418l1.453 7.791h-112.664c-4.142 0-7.5 3.357-7.5 7.5s3.358 7.5 7.5 7.5h206.187c5.538 0 10.044 4.506 10.044 10.045s-4.506 10.044-10.045 10.044h-80.933c-4.142 0-7.5 3.357-7.5 7.5s3.358 7.5 7.5 7.5h80.933c13.809 0 25.044-11.235 25.044-25.045 0-13.809-11.235-25.044-25.044-25.044zm-183.347-446.182 90.016 61.988h-180.032zm-19.171 155.691c0-10.571 8.6-19.171 19.171-19.171s19.171 8.6 19.171 19.171v23.26h-38.341v-23.26zm-87.459 54.409v-8.65c0-4.136 3.364-7.5 7.5-7.5h198.26c4.136 0 7.5 3.364 7.5 7.5v8.65c0 4.136-3.364 7.5-7.5 7.5h-198.26c-4.136 0-7.5-3.364-7.5-7.5zm50.25 56.785 40.257 21.154-49.007 25.752zm-12.254 65.692 68.634-36.066 68.634 36.066 1.096 5.876-69.73 36.643-69.73-36.642zm84.757-44.538 40.257-21.155 8.75 46.906zm37.379-36.586-53.502 28.114-53.502-28.114 3.517-18.853h99.97zm-177.27 194.729 39.84-213.582h18.684l-39.84 213.582zm38.882-26.479 12.277-65.816 56.486 29.682zm101.009-36.135 56.486-29.683 12.277 65.817zm49.121-150.968h18.684l39.84 213.582h-18.683z"/></g></svg>