<svg id="Capa_1" enable-background="new 0 0 512.064 512.064" height="512" viewBox="0 0 512.064 512.064" width="512" xmlns="http://www.w3.org/2000/svg"><g><g><g><path d="m34.63 64.254 29.636-29.636c36.128-36.128 94.702-36.128 130.829 0l282.34 282.34c36.128 36.128 36.128 94.702 0 130.829l-29.636 29.636c-36.128 36.128-94.702 36.128-130.829 0l-282.34-282.34c-36.128-36.127-36.128-94.701 0-130.829z" fill="#bf7859"/><path d="m426.969 477.423-282.339-282.34c-36.128-36.127-36.128-94.702 0-130.829l29.636-29.636c3.296-3.296 6.779-6.291 10.415-8.986-36.215-26.84-87.584-23.845-120.416 8.986l-29.635 29.636c-36.128 36.127-36.128 94.702 0 130.829l282.34 282.34c32.831 32.832 84.201 35.826 120.415 8.986-3.637-2.695-7.12-5.69-10.416-8.986z" fill="#ba6a4f"/></g><g><path d="m64.265 477.423-29.635-29.636c-36.128-36.128-36.128-94.702 0-130.829l282.34-282.34c36.128-36.128 94.702-36.128 130.829 0l29.636 29.636c36.128 36.128 36.128 94.702 0 130.829l-282.34 282.34c-36.128 36.127-94.702 36.127-130.83 0z" fill="#e29a6b"/><path d="m104.63 376.958 282.339-282.34c26.691-26.691 65.634-33.663 98.726-20.915-2.504-3.288-5.257-6.446-8.26-9.449l-29.636-29.636c-36.128-36.128-94.702-36.128-130.829 0l-282.34 282.34c-36.128 36.128-36.128 94.702 0 130.83l29.636 29.636c9.437 9.437 20.405 16.408 32.104 20.915-27.618-36.263-24.865-88.257 8.26-121.381z" fill="#ce845c"/><path d="m174.985 158.956h162.094v194.129h-162.094z" fill="#ffeb99" transform="matrix(.707 .707 -.707 .707 256.024 -106.055)"/><path d="m122.703 189.995h194.128v59.522h-194.128z" fill="#ffe477" transform="matrix(.707 -.707 .707 .707 -91.022 219.764)"/></g></g><g><path d="m482.737 311.654-55.634-55.634 55.634-55.634c11.683-11.684 20.352-26.173 25.07-41.902 1.19-3.967-1.061-8.148-5.029-9.338-3.967-1.19-8.148 1.062-9.338 5.028-4.007 13.359-11.376 25.672-21.309 35.604l-282.339 282.34c-33.222 33.222-86.996 33.227-120.223 0l-29.636-29.636c-33.222-33.221-33.226-86.997 0-120.222l282.339-282.34c33.222-33.222 86.996-33.227 120.223 0l29.636 29.636c14.583 14.583 23.36 33.933 24.714 54.486.272 4.132 3.834 7.28 7.977 6.99 4.133-.271 7.263-3.843 6.991-7.977-1.593-24.184-11.919-46.951-29.075-64.107l-29.636-29.636c-39.081-39.082-102.346-39.09-141.436 0l-55.634 55.634-55.634-55.634c-39.082-39.082-102.347-39.09-141.436 0l-29.636 29.638c-33.82 33.821-38.401 86.016-13.437 124.791 2.238 3.478 6.877 4.492 10.366 2.246 3.483-2.242 4.488-6.883 2.246-10.365-21.26-33.023-17.241-77.394 11.432-106.064l29.636-29.636c33.222-33.222 86.996-33.227 120.223 0l55.633 55.634-149.858 149.858-46.439-46.439c-2.929-2.928-7.678-2.928-10.606 0-2.929 2.93-2.929 7.678 0 10.607l46.439 46.439-55.633 55.634c-39.084 39.084-39.089 102.347 0 141.437l29.636 29.636c39.081 39.082 102.347 39.09 141.436 0l55.634-55.634 55.634 55.634c35.837 35.836 92.951 39.388 132.878 7.639 3.242-2.578 3.78-7.296 1.203-10.538-2.579-3.241-7.296-3.78-10.539-1.202-33.799 26.875-82.352 24.078-112.936-6.506l-55.633-55.633 149.858-149.859 55.634 55.635c33.222 33.221 33.226 86.997 0 120.222l-14.021 14.021c-2.929 2.93-2.929 7.678 0 10.607 2.93 2.929 7.678 2.928 10.606 0l14.021-14.021c39.082-39.086 39.088-102.349-.002-141.439z"/><path d="m181.802 131.981c4.077 0 7.5-3.311 7.5-7.5 0-4.142-3.374-7.497-7.51-7.497-4.162 0-7.49 3.413-7.49 7.497 0 4.205 3.427 7.5 7.5 7.5z"/><path d="m124.493 174.29c-4.181 0-7.501 3.429-7.501 7.5 0 4.257 3.491 7.5 7.5 7.5 4.236 0 7.5-3.451 7.5-7.5 0-4.167-3.396-7.5-7.499-7.5z"/><path d="m153.173 145.638c-4.34 0-7.532 3.534-7.532 7.503 0 4.072 3.321 7.5 7.51 7.5 4.024 0 7.5-3.284 7.5-7.5.001-4.021-3.278-7.503-7.478-7.503z"/><path d="m147.417 82.597c-4.096 0-7.505 3.321-7.505 7.503 0 4.04 3.31 7.5 7.5 7.5 3.994 0 7.5-3.222 7.5-7.5 0-4.133-3.351-7.503-7.495-7.503z"/><path d="m90.107 139.908c-4.072 0-7.495 3.281-7.495 7.493 0 4.174 3.369 7.5 7.5 7.5 4.094 0 7.5-3.323 7.5-7.5 0-3.998-3.245-7.493-7.505-7.493z"/><path d="m118.753 111.254c-4.097 0-7.491 3.347-7.491 7.496 0 4.199 3.416 7.5 7.5 7.5 3.678 0 6.701-2.656 7.35-6.029.943-4.639-2.634-8.967-7.359-8.967z"/><path d="m113.032 48.21c-4.129 0-7.5 3.35-7.5 7.5 0 4.163 3.385 7.5 7.5 7.5 4.057 0 7.5-3.29 7.5-7.5 0-4.091-3.326-7.5-7.5-7.5z"/><path d="m55.722 120.521c4.112 0 7.5-3.346 7.5-7.5 0-3.604-2.834-7.497-7.514-7.497-4.168 0-7.486 3.414-7.486 7.497 0 4.017 3.251 7.5 7.5 7.5z"/><path d="m84.382 76.86c-4.236 0-7.51 3.482-7.51 7.5 0 4.08 3.306 7.5 7.51 7.5 4.145 0 7.5-3.367 7.5-7.5 0-3.598-2.866-7.5-7.5-7.5z"/><path d="m331.183 380.994c-4.135 0-7.491 3.372-7.491 7.496 0 4.077 3.309 7.5 7.5 7.5 4.184 0 7.5-3.418 7.5-7.5 0-4.061-3.287-7.496-7.509-7.496z"/><path d="m396.002 331.181c0-4.081-3.311-7.497-7.491-7.497-5.261 0-7.509 4.549-7.509 7.497 0 4.173 3.396 7.5 7.5 7.5 4.155 0 7.5-3.389 7.5-7.5z"/><path d="m367.352 359.84c0-4.668-3.887-7.502-7.532-7.502-4.226 0-7.478 3.497-7.478 7.502 0 4.079 3.315 7.49 7.51 7.49 4.115 0 7.5-3.343 7.5-7.49z"/><path d="m365.582 430.37c4.222 0 7.5-3.464 7.5-7.5 0-4.146-3.387-7.49-7.5-7.49-4.14 0-7.5 3.35-7.5 7.49 0 4.118 3.324 7.5 7.5 7.5z"/><path d="m422.882 373.061c4.239 0 7.51-3.458 7.51-7.5 0-3.974-3.215-7.492-7.537-7.492-4.054 0-7.473 3.347-7.473 7.492 0 4.03 3.272 7.5 7.5 7.5z"/><path d="m394.232 401.721c4.137 0 7.5-3.371 7.5-7.5 0-4.177-3.414-7.501-7.5-7.501-4.167 0-7.5 3.393-7.5 7.501 0 4.142 3.376 7.5 7.5 7.5z"/><path d="m399.962 464.761c4.166 0 7.5-3.381 7.5-7.5 0-4.083-3.317-7.501-7.499-7.501-4.211 0-7.501 3.45-7.501 7.501 0 4.103 3.347 7.5 7.5 7.5z"/><path d="m464.772 399.95c0-4.138-3.365-7.496-7.486-7.496-4.083 0-7.514 3.29-7.514 7.496 0 4.114 3.322 7.5 7.5 7.5 4.106 0 7.5-3.332 7.5-7.5z"/><path d="m428.622 436.101c4.178 0 7.5-3.411 7.5-7.49 0-4.123-3.354-7.502-7.505-7.502-4.136 0-7.495 3.352-7.495 7.502 0 4.123 3.334 7.49 7.5 7.49z"/><path d="m250.009 387.268 137.27-137.27c2.927-2.928 2.929-7.678 0-10.607l-114.618-114.618c-2.929-2.928-7.678-2.928-10.606 0l-137.27 137.27c-2.927 2.928-2.929 7.677 0 10.607l114.618 114.617c2.93 2.93 7.678 2.928 10.606.001zm17.349-246.584 104.012 104.011-126.664 126.662-104.012-104.01z"/><path d="m131.842 328.78c-.767-3.99-4.763-6.724-8.81-5.88-3.523.659-6.04 3.842-6.04 7.35 0 4.637 4.267 8.307 8.97 7.351 3.944-.739 6.718-4.695 5.88-8.821z"/><path d="m181.782 380.067c-4.816 0-8.263 4.473-7.33 8.953.627 3.344 3.662 6.04 7.35 6.04 3.695 0 6.722-2.69 7.35-6.04.939-4.507-2.532-8.953-7.37-8.953z"/><path d="m160.652 358.9c0-4.044-3.274-7.492-7.533-7.492-4.015 0-7.467 3.273-7.467 7.492 0 4.247 3.476 7.51 7.5 7.51 4.039 0 7.5-3.304 7.5-7.51z"/><path d="m97.612 364.641c0-4.021-3.259-7.507-7.523-7.507-4.004 0-7.477 3.256-7.477 7.507 0 4.114 3.326 7.489 7.49 7.489 4.148 0 7.51-3.308 7.51-7.489z"/><path d="m147.383 414.448c-3.998 0-7.472 3.282-7.472 7.492 0 4.051 3.283 7.5 7.51 7.5 4.229 0 7.5-3.464 7.5-7.5.001-3.99-3.235-7.492-7.538-7.492z"/><path d="m126.262 393.29c0-4.128-3.363-7.502-7.499-7.502-4.159 0-7.501 3.409-7.501 7.502 0 4.033 3.281 7.5 7.5 7.5 4.195 0 7.5-3.414 7.5-7.5z"/><path d="m55.736 391.523c-4.021 0-7.515 3.228-7.515 7.497 0 4.003 3.245 7.5 7.5 7.5 4.109 0 7.5-3.338 7.5-7.5.001-4.163-3.387-7.497-7.485-7.497z"/><path d="m113.032 448.83c-4.095 0-7.5 3.327-7.5 7.5 0 4.126 3.365 7.5 7.5 7.5 4.2 0 7.5-3.43 7.5-7.5 0-4.217-3.43-7.5-7.5-7.5z"/><path d="m82.912 420.32c-3.657.759-6.04 3.916-6.04 7.36 0 3.999 3.261 7.5 7.5 7.5 3.997 0 7.51-3.221 7.51-7.5 0-4.638-4.251-8.286-8.97-7.36z"/><path d="m396.002 180.86c0-4.039-3.271-7.5-7.501-7.5-4.091 0-7.499 3.328-7.499 7.5 0 4.15 3.38 7.5 7.5 7.5 4.155 0 7.5-3.388 7.5-7.5z"/><path d="m331.192 131.05c4.121 0 7.5-3.356 7.5-7.5 0-4.028-3.259-7.493-7.476-7.493-4.124 0-7.524 3.311-7.524 7.493 0 4.204 3.436 7.5 7.5 7.5z"/><path d="m352.352 152.21c0 4.146 3.39 7.5 7.5 7.5 4.22 0 7.5-3.48 7.5-7.5 0-4.031-3.255-7.502-7.532-7.502-4.054 0-7.468 3.315-7.468 7.502z"/><path d="m422.855 138.978c-4.039 0-7.474 3.314-7.474 7.493 0 4.109 3.375 7.51 7.5 7.51 4.035 0 7.51-3.285 7.51-7.51.001-4.007-3.248-7.493-7.536-7.493z"/><path d="m365.582 96.67c4.079 0 7.5-3.354 7.5-7.5 0-4.054-3.297-7.502-7.505-7.502-4.111 0-7.495 3.33-7.495 7.502 0 4.142 3.374 7.5 7.5 7.5z"/><path d="m401.732 117.82c0-4.13-3.353-7.492-7.469-7.492-4.171 0-7.531 3.345-7.531 7.492 0 4.143 3.377 7.5 7.5 7.5 4.13 0 7.5-3.357 7.5-7.5z"/><path d="m457.273 104.59c-4.234 0-7.501 3.471-7.501 7.5 0 4.226 3.462 7.5 7.5 7.5 4.06 0 7.5-3.287 7.5-7.5 0-4.144-3.383-7.5-7.499-7.5z"/><circle cx="399.962" cy="54.78" r="7.5"/><path d="m436.122 83.431c0-4.042-3.293-7.5-7.51-7.5-4.136 0-7.49 3.379-7.49 7.5 0 4.154 3.361 7.5 7.49 7.5 4.161 0 7.51-3.386 7.51-7.5z"/></g></g></svg>