<svg id="Capa_1" enable-background="new 0 0 511.996 511.996" height="512" viewBox="0 0 511.996 511.996" width="512" xmlns="http://www.w3.org/2000/svg"><g><path d="m328.123 504.496h166.374c5.523 0 10-4.477 10-10v-42.123c0-5.523-4.477-10-10-10h-166.374c-5.523 0-10 4.477-10 10v42.123c0 5.523 4.477 10 10 10z" fill="#5680a6"/><path d="m333.654 131.748h139.78v-21.062c0-5.523-4.477-10-10-10h-119.78c-5.523 0-10 4.477-10 10z" fill="#5680a6"/><path d="m349.185 69.625h108.718v31.062h-108.718z" fill="#eaf6ff" transform="matrix(-1 0 0 -1 807.088 170.311)"/><path d="m178.342 442.373h-155.311l15.531-310.625h139.78z" fill="#eaf6ff"/><path d="m38.562 131.748-15.531 310.625h50l15.531-310.625z" fill="#d8ecfe"/><path d="m178.342 131.748h-139.78v-21.062c0-5.523 4.477-10 10-10h119.78c5.523 0 10 4.477 10 10z" fill="#5680a6"/><path d="m393.654 100.687h-50c-5.523 0-10 4.477-10 10v21.062h50v-21.062c0-5.523 4.477-10 10-10z" fill="#497090"/><path d="m98.562 100.687h-50c-5.523 0-10 4.477-10 10v21.062h50v-21.062c0-5.523 4.477-10 10-10z" fill="#497090"/><path d="m54.093 69.625h108.718v31.062h-108.718z" fill="#eaf6ff"/><path d="m349.185 69.625h44.469v31.062h-44.469z" fill="#d8ecfe"/><path d="m54.093 69.625h44.469v31.062h-44.469z" fill="#d8ecfe"/><path d="m183.874 504.496h-166.374c-5.523 0-10-4.477-10-10v-42.123c0-5.523 4.477-10 10-10h166.374c5.523 0 10 4.477 10 10v42.123c0 5.523-4.478 10-10 10z" fill="#5680a6"/><path d="m373.661 494.496v-42.123c0-5.523 4.477-10 10-10h-55.539c-5.523 0-10 4.477-10 10v42.123c0 5.523 4.477 10 10 10h55.539c-5.523 0-10-4.477-10-10z" fill="#497090"/><path d="m63.039 494.496v-42.123c0-5.523 4.477-10 10-10h-55.539c-5.523 0-10 4.477-10 10v42.123c0 5.523 4.477 10 10 10h55.539c-5.523 0-10-4.477-10-10z" fill="#497090"/><path d="m105.665 380.248h-79.528l9.319-186.374h70.209c5.523 0 10 4.477 10 10v166.374c0 5.523-4.477 10-10 10z" fill="#ffb124"/><path d="m35.456 193.874-9.319 186.374h50l9.319-186.374z" fill="#ff901d"/><path d="m44.054 69.625h129.78c2.761 0 5-2.239 5-5v-52.125c0-2.761-2.239-5-5-5h-129.78c-2.761 0-5 2.239-5 5v52.125c0 2.761 2.238 5 5 5z" fill="#5680a6"/><path d="m333.654 442.373h155.311l-15.531-310.625h-139.78z" fill="#eaf6ff"/><path d="m333.654 131.748h50v310.625h-50z" fill="#d8ecfe"/><path d="m338.654 69.625h129.78c2.761 0 5-2.239 5-5v-52.125c0-2.761-2.239-5-5-5h-129.78c-2.761 0-5 2.239-5 5v52.125c0 2.761 2.238 5 5 5z" fill="#5680a6"/><path d="m406.331 380.248h79.528l-9.319-186.374h-70.209c-5.523 0-10 4.477-10 10v166.374c0 5.523 4.477 10 10 10z" fill="#ffb124"/><path d="m436.331 370.248v-166.374c0-5.523 4.477-10 10-10h-40c-5.523 0-10 4.477-10 10v166.374c0 5.523 4.477 10 10 10h40c-5.523 0-10-4.477-10-10z" fill="#ff901d"/><path d="m178.342 193.874h155.311v124.249h-155.311z" fill="#ffb124"/><path d="m178.342 193.874h38.828v124.249h-38.828z" fill="#ff901d"/><path d="m224.936 162.811h62.125v31.062h-62.125z" fill="#eaf6ff"/><path d="m224.936 162.811h31.062v31.062h-31.062z" fill="#d8ecfe"/><path d="m209.405 116.217h93.187v46.595h-93.187z" fill="#5680a6"/><path d="m209.405 116.217h46.593v46.595h-46.593z" fill="#497090"/><path d="m217.17 224.934h77.656v62.125h-77.656z" fill="#5680a6"/><g fill="#497090"><path d="m217.17 224.934h40v62.125h-40z"/><path d="m388.162 64.625v-52.125c0-2.761 2.239-5 5-5h-54.509c-2.761 0-5 2.239-5 5v52.125c0 2.761 2.239 5 5 5h54.509c-2.761 0-5-2.239-5-5z"/><path d="m93.562 64.625v-52.125c0-2.761 2.239-5 5-5h-54.508c-2.761 0-5 2.239-5 5v52.125c0 2.761 2.239 5 5 5h54.509c-2.762 0-5.001-2.239-5.001-5z"/></g></g><g><path d="m496.103 434.946c-.408-8.166-14.76-295.2-15.169-303.377v-20.882c0-8.984-6.805-16.408-15.531-17.39v-16.172h3.031c6.893 0 12.5-5.607 12.5-12.5v-52.125c0-6.893-5.607-12.5-12.5-12.5h-76.294c-4.143 0-7.5 3.358-7.5 7.5s3.357 7.5 7.5 7.5h73.794v47.125h-124.78v-47.125h19.452c4.143 0 7.5-3.358 7.5-7.5s-3.357-7.5-7.5-7.5h-21.952c-6.893 0-12.5 5.607-12.5 12.5v52.125c0 6.893 5.607 12.5 12.5 12.5h3.031v16.173c-8.726.981-15.531 8.406-15.531 17.39v75.687h-31.593v-16.062h8.031c4.143 0 7.5-3.358 7.5-7.5v-46.595c0-4.142-3.357-7.5-7.5-7.5h-93.188c-4.143 0-7.5 3.358-7.5 7.5v46.595c0 4.142 3.357 7.5 7.5 7.5h8.031v16.062h-31.593v-75.687c0-8.984-6.805-16.408-15.531-17.39v-16.173h3.031c6.893 0 12.5-5.607 12.5-12.5v-52.125c0-6.893-5.607-12.5-12.5-12.5h-129.78c-6.893 0-12.5 5.607-12.5 12.5v52.125c0 6.893 5.607 12.5 12.5 12.5h3.031v16.173c-8.726.981-15.531 8.406-15.531 17.39v20.882c-.409 8.178-14.761 295.216-15.169 303.377-8.899.813-15.893 8.318-15.893 17.426v42.123c0 9.649 7.851 17.5 17.5 17.5h166.374c9.649 0 17.5-7.851 17.5-17.5v-42.123c0-8.984-6.805-16.408-15.531-17.39v-109.36h140.311v109.361c-8.726.981-15.531 8.406-15.531 17.39v42.123c0 9.649 7.851 17.5 17.5 17.5h96.679c4.143 0 7.5-3.358 7.5-7.5s-3.357-7.5-7.5-7.5h-96.679c-1.379 0-2.5-1.122-2.5-2.5v-42.123c0-1.378 1.121-2.5 2.5-2.5h166.374c1.379 0 2.5 1.122 2.5 2.5v42.123c0 1.378-1.121 2.5-2.5 2.5h-37.598c-4.143 0-7.5 3.358-7.5 7.5s3.357 7.5 7.5 7.5h37.598c9.649 0 17.5-7.851 17.5-17.5v-42.123c-.001-9.109-6.995-16.614-15.894-17.428zm-18.129-62.198h-71.643c-1.379 0-2.5-1.122-2.5-2.5v-166.374c0-1.378 1.121-2.5 2.5-2.5h63.074c1.076 21.514 7.739 154.772 8.569 171.374zm-27.572-279.561h-21.055v-16.062h21.055zm-57.109 0v-16.062h21.055v16.062zm-15-16.062v16.062h-21.608v-16.062zm-37.14 33.562c0-1.378 1.121-2.5 2.5-2.5h119.78c1.379 0 2.5 1.122 2.5 2.5v13.562h-124.78zm-124.249 13.03h78.188v31.595h-7.993c-.013 0-.026 0-.039 0h-62.125c-.013 0-.026 0-.039 0h-7.993v-31.595zm15.532 46.595h47.125v16.062h-47.125zm16.062 109.248h-23.828v-47.125h23.828zm15-47.125h23.828v47.125h-23.828zm-230.226 155.313h72.393c9.649 0 17.5-7.851 17.5-17.5v-114.25c0-4.142-3.357-7.5-7.5-7.5s-7.5 3.358-7.5 7.5v114.25c0 1.378-1.121 2.5-2.5 2.5h-71.643c.839-16.78 7.476-149.525 8.569-171.374h63.074c1.379 0 2.5 1.122 2.5 2.5v20.25c0 4.142 3.357 7.5 7.5 7.5s7.5-3.358 7.5-7.5v-20.25c0-9.649-7.851-17.5-17.5-17.5h-62.324l2.356-47.125h125.146v295.625h-139.927zm122.04-294.561h-21.608v-16.062h21.608zm-57.664 0v-16.062h21.055v16.062zm-51.586-78.187h124.78v47.125h-124.78zm36.586 62.125v16.062h-21.054v-16.062zm-36.586 33.562c0-1.378 1.121-2.5 2.5-2.5h119.78c1.379 0 2.5 1.122 2.5 2.5v13.562h-124.78zm140.312 383.809c0 1.378-1.121 2.5-2.5 2.5h-166.374c-1.379 0-2.5-1.122-2.5-2.5v-42.123c0-1.378 1.121-2.5 2.5-2.5h166.374c1.379 0 2.5 1.122 2.5 2.5zm-.531-293.122h62.655v16.061h-31.328c-4.143 0-7.5 3.358-7.5 7.5v62.125c0 4.142 3.357 7.5 7.5 7.5h31.328v16.063h-62.655zm77.655 109.249v-16.063h31.328c4.143 0 7.5-3.358 7.5-7.5v-62.125c0-4.142-3.357-7.5-7.5-7.5h-31.328v-16.061h62.655v109.249zm77.655 124.25v-295.624h125.146l2.356 47.125h-62.324c-9.649 0-17.5 7.851-17.5 17.5v166.374c0 9.649 7.851 17.5 17.5 17.5h72.393l2.356 47.125z"/></g></svg>