<svg id="Capa_1" enable-background="new 0 0 511.996 511.996" height="512" viewBox="0 0 511.996 511.996" width="512" xmlns="http://www.w3.org/2000/svg"><g><g><path d="m477.964 504.496h-237.498l-72.95-29.18c-2.254-.902-4.705.758-4.705 3.186v25.994h-128.781c-6.075 0-11-4.925-11-11v-40.125c0-6.075 4.925-11 11-11h443.934c6.075 0 11 4.925 11 11v40.125c0 6.075-4.925 11-11 11z" fill="#5680a6"/><g fill="#497090"><path d="m217.515 495.316-.001-.001 22.952 9.181z"/><path d="m73.03 473.372c0-6.075 4.925-11 11-11h404.934v-9c0-6.075-4.925-11-11-11h-443.934c-6.075 0-11 4.925-11 11v40.125c0 6.075 4.925 11 11 11h39z"/></g><path d="m224.934 229.346v-159.253c0-8.837-7.163-16-16-16h-155c-8.588 0-15.644 6.78-15.987 15.361l-14.168 354.198c-.409 10.215 7.762 18.719 17.986 18.719h424.074c12.772 0 23.125-10.353 23.125-23.125v-10.891c0-69.168-51.771-127.386-120.465-135.468l-117.095-13.776c-15.094-1.775-26.47-14.567-26.47-29.765z" fill="#e29a6b"/><path d="m73.779 423.652 14.167-354.198c.343-8.581 7.399-15.36 15.987-15.36h-50c-8.588 0-15.644 6.78-15.987 15.36l-14.167 354.198c-.409 10.215 7.762 18.719 17.986 18.719h50c-10.224.001-18.395-8.504-17.986-18.719z" fill="#bf7859"/><path d="m35.455 131.749h80.762l23.705-35.558c4.596-6.894 12.334-11.036 20.62-11.036h64.393v-15.062c0-8.837-7.163-16-16-16h-155.001c-8.588 0-15.644 6.78-15.987 15.361z" fill="#ffb124"/><path d="m103.934 54.093h-50c-8.588 0-15.644 6.78-15.987 15.36l-2.492 62.295h50l2.492-62.295c.343-8.58 7.399-15.36 15.987-15.36z" fill="#ff901d"/><path d="m28 318.123-4.222 105.56c-.408 10.198 7.749 18.689 17.956 18.689h154.516l-31.225-83.265c-9.244-24.652-32.811-40.984-59.139-40.984z" fill="#ffb124"/><path d="m73.777 423.683 4.223-105.56h-50l-4.222 105.56c-.408 10.198 7.749 18.689 17.956 18.689h50c-10.207 0-18.365-8.491-17.957-18.689z" fill="#ff901d"/><path d="m208.581 323.689c10.262 7.761 24.873 5.734 32.634-4.529l42.535-56.242-32.346-3.805c-6.648-.782-12.575-3.702-17.126-8.023l-30.225 39.966c-7.761 10.261-5.734 24.871 4.528 32.633z" fill="#ffb124"/><path d="m234.053 291.055 23.602-31.207-6.25-.735c-6.648-.782-12.575-3.702-17.126-8.023l-30.225 39.966c-7.761 10.262-5.733 24.873 4.529 32.634 8.845 6.689 20.92 6.106 29.056-.753-9.437-7.925-11.103-21.943-3.586-31.882z" fill="#ff901d"/><path d="m208.934 54.093h-71.963c0-25.733 20.861-46.593 46.593-46.593h11.479c7.671 0 13.89 6.219 13.89 13.89v32.703z" fill="#e29a6b"/><path d="m201.487 9.081c-1.926-1.01-4.117-1.581-6.443-1.581h-11.479c-25.733 0-46.593 20.861-46.593 46.593h30c0-21.555 14.637-39.691 34.515-45.012z" fill="#bf7859"/></g><path d="m496.464 418.978c.092-29.483-1.975-51.869-18.475-81.183-22.39-39.78-62.502-66.931-108.613-72.355-153.83-18.097-109.208-12.664-117.601-13.841-11.09-1.565-19.34-11.053-19.34-22.253v-88.907c0-4.143-3.358-7.5-7.5-7.5s-7.5 3.357-7.5 7.5v10.463h-23.562c-4.142 0-7.5 3.357-7.5 7.5s3.358 7.5 7.5 7.5h23.562v20.473h-23.562c-4.142 0-7.5 3.357-7.5 7.5s3.358 7.5 7.5 7.5h23.562v20.472h-23.562c-4.142 0-7.5 3.357-7.5 7.5s3.358 7.5 7.5 7.5h24.316c1.089 5.344 3.319 10.295 6.438 14.571l-26.556 35.115c-10.267 13.575-7.591 32.872 5.986 43.14 13.489 10.201 32.854 7.614 43.14-5.986l39.944-52.817 23.156 2.724-10.359 16.378c-2.214 3.5-1.171 8.133 2.329 10.348 3.52 2.226 8.146 1.151 10.348-2.33l14.201-22.452 22.709 2.672-10.341 16.349c-2.214 3.5-1.171 8.133 2.329 10.348 3.515 2.224 8.143 1.155 10.348-2.329l14.183-22.424 1.577.186c15.178 1.786 29.483 6.164 42.494 12.661-31.635 26.754-29.195 63.31-29.301 63.787.078 15.359-12.097 28.089-27.626 28.089h-22.385c-4.142 0-7.5 3.357-7.5 7.5s3.358 7.5 7.5 7.5h22.385c11.386 0 22.079-4.445 30.11-12.517 13.519-13.589 12.466-30.744 12.515-31.002 0-22.12 10.485-42.444 28.272-55.246 19.133 12.78 34.567 30.505 44.589 51.247 11.23 23.303 13.299 44.272 12.782 67.344-.24 8.374-7.097 15.114-15.514 15.172h-263.653l-13.125-34.999h109.307c4.142 0 7.5-3.357 7.5-7.5s-3.358-7.5-7.5-7.5h-115.774l-10.65-28.399c-9.35-24.933-32.178-42.428-58.26-45.4l9.804-176.866 22.57-33.855c3.213-4.819 8.588-7.696 14.38-7.696h56.893v15.098c0 4.143 3.358 7.5 7.5 7.5s7.5-3.357 7.5-7.5v-37.664c0-10.337-6.708-19.136-16-22.273v-26.43c0-11.795-9.595-21.391-21.39-21.391h-11.479c-27.283 0-49.913 20.303-53.575 46.594h-76.056c-12.661 0-22.975 9.91-23.481 22.561-.897 22.414-13.629 340.725-14.168 354.198-.24 6.011 1.583 11.754 5.177 16.455-3.646 3.381-5.932 8.21-5.932 13.563v40.125c0 10.201 8.299 18.5 18.5 18.5h128.78c4.142 0 7.5-3.357 7.5-7.5v-19.984l67.371 26.948c.886.354 1.831.536 2.785.536h237.498c10.201 0 18.5-8.299 18.5-18.5v-40.125c0-5.892-2.769-11.15-7.073-14.54 4.291-5.166 7.01-11.759 7.073-19.853zm-226.593-150.141-34.638 45.799c-5.253 6.948-15.181 8.326-22.128 3.07-6.963-5.266-8.338-15.163-3.07-22.127l25.72-34.01c10.665 6.359 18.659 4.756 34.116 7.268zm-232.801 10.192h17.022c4.142 0 7.5-3.357 7.5-7.5s-3.358-7.5-7.5-7.5h-16.422l1.264-31.594h30.69c4.142 0 7.5-3.357 7.5-7.5s-3.358-7.5-7.5-7.5h-30.09l1.264-31.593h43.357c4.142 0 7.5-3.357 7.5-7.5s-3.358-7.5-7.5-7.5h-42.758l1.264-31.594h65.628l-9.499 171.375h-62.984zm146.495-264.029h11.479c3.523 0 6.39 2.867 6.39 6.391v25.203h-56.241c3.508-17.982 19.381-31.594 38.372-31.594zm-129.631 46.594h155c4.687 0 8.5 3.813 8.5 8.5v7.562h-56.893c-10.818 0-20.859 5.374-26.86 14.376l-21.479 32.218h-68.941l2.18-54.495c.183-4.577 3.913-8.161 8.493-8.161zm427.53 431.902c0 1.93-1.57 3.5-3.5 3.5h-12.562v-23.562c0-4.143-3.358-7.5-7.5-7.5s-7.5 3.357-7.5 7.5v23.562h-31.593v-23.562c0-4.143-3.358-7.5-7.5-7.5s-7.5 3.357-7.5 7.5v23.562h-31.593v-23.562c0-4.143-3.358-7.5-7.5-7.5s-7.5 3.357-7.5 7.5v23.562h-31.593v-23.562c0-4.143-3.358-7.5-7.5-7.5s-7.5 3.357-7.5 7.5v23.562h-31.594v-23.562c0-4.143-3.358-7.5-7.5-7.5s-7.5 3.357-7.5 7.5v23.562h-22.119l-71.607-28.643c-3.373-1.351-7.182-.939-10.189 1.096-3.008 2.036-4.804 5.42-4.804 9.053v18.494h-31.593v-23.562c0-4.143-3.358-7.5-7.5-7.5s-7.5 3.357-7.5 7.5v23.562h-31.594v-23.562c0-4.143-3.358-7.5-7.5-7.5s-7.5 3.357-7.5 7.5v23.562h-28.093c-1.93 0-3.5-1.57-3.5-3.5v-40.125c0-1.93 1.57-3.5 3.5-3.5h50.313c4.142 0 7.5-3.357 7.5-7.5s-3.358-7.5-7.5-7.5h-42.658c-2.854-.021-5.512-1.163-7.493-3.225-3.397-3.537-2.901-7.575-2.92-7.692.339-8.473 3.433-85.821 3.933-98.331h70.68c23.072 0 44.016 14.515 52.117 36.117l27.424 73.131h-68.396c-4.142 0-7.5 3.357-7.5 7.5s3.358 7.5 7.5 7.5h360.934c1.93 0 3.5 1.57 3.5 3.5z"/></g></svg>