<svg id="Capa_1" enable-background="new 0 0 511.996 511.996" height="512" viewBox="0 0 511.996 511.996" width="512" xmlns="http://www.w3.org/2000/svg"><g><g><path d="m293.263 100.687h-77.655l11.09-93.187h55.475z" fill="#eaf6ff"/><path d="m226.698 7.5-11.09 93.187h44.716l11.09-93.187z" fill="#d8ecfe"/><path d="m200.077 100.687h108.718v31.062h-108.718z" fill="#95d6a4"/><path d="m200.077 100.687h60v31.062h-60z" fill="#78c2a4"/><path d="m332.091 178.311h-155.311v-26.817c0-10.905 8.84-19.745 19.745-19.745h115.821c10.905 0 19.745 8.84 19.745 19.745z" fill="#ffeb99"/><path d="m256.525 131.749h-60c-10.905 0-19.745 8.84-19.745 19.745v26.817h60v-26.817c0-10.905 8.84-19.745 19.745-19.745z" fill="#ffe477"/><path d="m363.153 504.496h-214.31v-288.847c0-20.621 16.716-37.337 37.337-37.337h139.636c20.621 0 37.337 16.716 37.337 37.337z" fill="#eaf6ff"/><path d="m236.18 178.311h-50c-20.621 0-37.337 16.716-37.337 37.337v288.847h50v-288.846c0-20.621 16.716-37.338 37.337-37.338z" fill="#d8ecfe"/><path d="m148.843 224.936h214.311v248.498h-214.311z" fill="#95d6a4"/><path d="m148.843 224.936h50v248.498h-50z" fill="#78c2a4"/><path d="m275.032 67.979c5.898 0 10.984-3.471 13.329-8.482l-1.833-15.402c-2.695-3.372-6.843-5.533-11.496-5.533-8.123 0-14.708 6.585-14.708 14.708s6.585 14.709 14.708 14.709z" fill="#ffeb99"/></g><g><path d="m339.591 172.976v-21.482c0-13.682-10.137-25.04-23.296-26.959v-23.848c0-4.142-3.358-7.5-7.5-7.5h-8.871c-3.393-28.505-7.147-60.047-10.304-86.577-.449-3.773-3.648-6.61-7.447-6.61h-55.475c-3.799 0-6.999 2.841-7.447 6.614l-10.303 86.573h-8.871c-4.142 0-7.5 3.358-7.5 7.5v23.848c-13.159 1.919-23.297 13.277-23.297 26.959v22.624c-16.371 6.686-27.937 22.783-27.937 41.531v48.362c0 4.107 3.164 7.688 7.269 7.811 4.247.128 7.731-3.278 7.731-7.497v-31.889h199.311v233.498h-62.238c-4.107 0-7.688 3.164-7.811 7.269-.128 4.247 3.277 7.731 7.497 7.731h62.552v16.062h-199.311v-16.062h103.759c4.107 0 7.688-3.164 7.811-7.269.128-4.247-3.277-7.731-7.497-7.731h-104.073v-168.608c0-4.107-3.164-7.688-7.269-7.811-4.247-.128-7.731 3.278-7.731 7.497v207.485c0 4.142 3.358 7.5 7.5 7.5h214.311c4.142 0 7.5-3.358 7.5-7.5v-288.848c-.001-19.92-13.058-36.847-31.063-42.673zm-15-21.482v19.317h-16.062v-31.562h3.816c6.763 0 12.246 5.482 12.246 12.245zm-47.124 19.318v-31.562h16.062v31.562zm-31.063 0v-31.562h16.062v31.562zm-31.062 0v-31.562h16.062v31.562zm18.016-155.812h42.155l1.927 16.192c-13.163-1.415-24.616 8.904-24.616 22.079 0 15.359 15.302 26.108 29.729 20.884l2.265 19.033h-60.765zm47.252 42.835c-4.305 5.235-12.786 2.166-12.786-4.564 0-5.99 6.882-9.298 11.559-5.749zm-73.033 50.352h93.718v16.062h-93.718zm-23.297 62.625v-19.317c0-6.763 5.483-12.246 12.246-12.246h3.817v31.562h-16.063zm-27.937 46.624v-1.787c0-16.479 13.359-29.837 29.837-29.837h139.636c16.479 0 29.837 13.359 29.837 29.837v1.787z"/><path d="m291.434 289.566c3.773 2.346 8.819.937 10.767-3.212 1.622-3.456.23-7.624-3.017-9.632-13.422-8.304-28.891-12.692-44.749-12.692-48.419 0-87.507 40.611-85.045 89.532 2.183 43.389 37.279 78.485 80.668 80.669 70.448 3.546 113.602-74.918 75.209-132.328-2.125-3.178-6.34-4.434-9.742-2.689-4.079 2.092-5.309 7.188-2.829 10.876 16.691 24.818 16.124 58.596-3.655 83.095l-98.605-98.604c23.63-19.079 56.212-20.433 80.998-5.015zm-91.604 15.619 98.604 98.605c-12.956 10.46-29.696 16.412-47.811 15.448-56.391-2.999-86.84-69.404-50.793-114.053z"/></g></g></svg>