<svg id="Capa_1" enable-background="new 0 0 511.987 511.987" height="512" viewBox="0 0 511.987 511.987" width="512" xmlns="http://www.w3.org/2000/svg"><g><g><path d="m465.664 504.476h-419.341v-341.664l209.67-134.401 209.671 134.401z" fill="#e29a6b"/><path d="m465.664 162.812-209.671-134.401-209.67 134.401v341.665h54.359v-310.009c0-10.222 5.205-19.74 13.81-25.257l125.388-80.374c9.867-6.325 22.513-6.325 32.379 0l193.405 123.974z" fill="#ce845c"/><g fill="#bf7859"><circle cx="465.664" cy="248.213" r="23.297"/><circle cx="465.664" cy="201.639" r="23.297"/><circle cx="465.664" cy="294.806" r="23.297"/><circle cx="465.664" cy="341.399" r="23.297"/><circle cx="465.664" cy="387.993" r="23.297"/><circle cx="465.664" cy="434.586" r="23.297"/><circle cx="465.664" cy="481.18" r="23.297"/><circle cx="46.323" cy="248.213" r="23.297"/><circle cx="46.323" cy="201.639" r="23.297"/><circle cx="46.323" cy="294.806" r="23.297"/><circle cx="46.323" cy="341.399" r="23.297"/><circle cx="46.323" cy="387.993" r="23.297"/><circle cx="46.323" cy="434.586" r="23.297"/><circle cx="46.323" cy="481.18" r="23.297"/><path d="m255.993 7.5-235.467 147.168c-7.338 4.586-9.875 14.069-5.808 21.706 4.491 8.433 15.191 11.287 23.285 6.212l217.99-136.69 217.99 136.69c8.094 5.076 18.795 2.221 23.285-6.212 4.067-7.638 1.53-17.12-5.808-21.706z"/></g><path d="m271.525 209.405h139.78v295.091h-139.78z" fill="#95d6a4"/><path d="m271.525 209.405h61.062v295.091h-61.062z" fill="#78c2a4"/><path d="m302.587 240.467h77.656v108.698h-77.656z" fill="#eaf6ff"/><path d="m302.587 240.467h30v108.698h-30z" fill="#d8ecfe"/><path d="m302.587 376.306h77.656v68.027h-77.656z" fill="#eaf6ff"/><path d="m302.587 376.306h30v68.027h-30z" fill="#d8ecfe"/><path d="m100.682 255.998h139.78v124.249h-139.78z" fill="#95d6a4"/><path d="m100.682 255.998h61.062v124.249h-61.062z" fill="#78c2a4"/><path d="m131.744 287.061h77.656v62.125h-77.656z" fill="#eaf6ff"/><path d="m131.744 287.061h30v62.125h-30z" fill="#d8ecfe"/><circle cx="255.993" cy="116.198" fill="#eaf6ff" r="23.297"/><path d="m252.697 116.198c0-9.287 5.434-17.305 13.297-21.047-3.03-1.442-6.421-2.25-10-2.25-12.866 0-23.297 10.43-23.297 23.297s10.43 23.297 23.297 23.297c3.579 0 6.97-.808 10-2.25-7.863-3.742-13.297-11.76-13.297-21.047z" fill="#d8ecfe"/></g><g><path d="m495.436 148.308-93.383-58.365c-3.514-2.196-8.139-1.127-10.335 2.385-2.195 3.513-1.128 8.14 2.385 10.335l93.383 58.365c3.979 2.487 5.369 7.68 3.164 11.821-2.453 4.606-8.279 6.145-12.682 3.383l-217.99-136.69c-2.437-1.528-5.532-1.528-7.969 0l-217.99 136.69c-4.395 2.758-10.224 1.231-12.681-3.383-2.206-4.142-.816-9.335 3.163-11.822l231.492-144.683 112.993 70.621c3.514 2.197 8.14 1.127 10.335-2.385 2.195-3.513 1.128-8.14-2.385-10.335l-116.967-73.105c-2.433-1.521-5.518-1.521-7.95 0l-235.468 147.168c-10.634 6.646-14.348 20.522-8.453 31.592 2.236 4.198 5.679 7.616 9.812 9.843-5.033 12.018-2.02 26.266 8.28 35.183-6.528 5.651-10.664 13.995-10.664 23.287 0 9.297 4.141 17.645 10.676 23.297-14.232 12.308-14.237 34.28 0 46.593-14.232 12.308-14.237 34.28 0 46.593-14.231 12.308-14.237 34.28 0 46.593-14.231 12.308-14.237 34.28 0 46.594-21.576 18.66-8.22 54.093 20.121 54.093 407.252.024 356.099.001 419.341 0 28.321 0 41.707-35.424 20.121-54.093 14.231-12.308 14.237-34.28 0-46.594 14.232-12.308 14.237-34.28 0-46.593 6.535-5.652 10.676-14 10.676-23.297s-4.141-17.645-10.676-23.296c6.535-5.652 10.676-14 10.676-23.297s-4.141-17.645-10.676-23.296c6.535-5.652 10.676-14 10.676-23.297 0-9.292-4.136-17.635-10.664-23.287 10.24-8.866 13.345-23.119 8.29-35.189 4.129-2.227 7.568-5.643 9.803-9.838 5.894-11.069 2.18-24.945-8.454-31.591zm-461.769 43.877c6.385-1.194 9.586-4.281 13.243-6.331 8.44.31 15.21 7.272 15.21 15.786 0 7.914-5.857 15.564-16.444 15.784-12.724-.516-19.554-15.158-12.009-25.239zm59.515 118.438h-20.443c5.832-9.703 5.848-21.869.024-31.593h20.419zm0 15v31.593h-20.443c5.832-9.703 5.848-21.869.024-31.593zm0 46.593v8.031c0 4.142 3.358 7.5 7.5 7.5h139.78c4.142 0 7.5-3.358 7.5-7.5v-8.031h16.063v31.593h-191.286c5.832-9.703 5.848-21.869.024-31.593zm154.78-46.593h16.063v31.593h-16.063zm16.063-15h-16.063v-31.593h16.063zm0 108.186v31.594h-191.286c5.832-9.703 5.848-21.87.024-31.594zm0-154.779h-16.063v-8.031c0-4.142-3.358-7.5-7.5-7.5h-70.774c-4.142 0-7.5 3.358-7.5 7.5s3.358 7.5 7.5 7.5h63.274v109.249h-124.78v-109.25h28.819c4.142 0 7.5-3.358 7.5-7.5s-3.358-7.5-7.5-7.5h-36.319c-4.142 0-7.5 3.358-7.5 7.5v8.031h-20.443c5.832-9.703 5.848-21.869.024-31.593h191.261v31.594zm-218.512-31.594c.114 0 1.723 0 1.621 0 8.335.423 14.987 7.338 14.987 15.776 0 8.71-7.086 15.797-15.797 15.797-8.71 0-15.796-7.086-15.796-15.797-.001-8.438 6.65-15.353 14.985-15.776zm.011 46.594h1.599c8.341.418 14.998 7.334 14.998 15.776 0 8.71-7.086 15.797-15.797 15.797-8.71 0-15.796-7.086-15.796-15.797-.001-8.442 6.656-15.359 14.996-15.776zm0 46.593h1.599c8.341.418 14.998 7.334 14.998 15.776 0 8.71-7.086 15.797-15.797 15.797-8.71 0-15.796-7.086-15.796-15.797-.001-8.442 6.656-15.358 14.996-15.776zm0 46.593h1.599c8.341.418 14.998 7.334 14.998 15.777 0 8.71-7.086 15.796-15.797 15.796-8.71 0-15.796-7.086-15.796-15.796-.001-8.443 6.656-15.359 14.996-15.777zm0 46.593h1.599c8.341.418 14.998 7.334 14.998 15.777 0 8.71-7.086 15.797-15.797 15.797-8.71 0-15.796-7.086-15.796-15.797-.001-8.442 6.656-15.359 14.996-15.777zm218.501 46.594v31.573h-191.274c5.824-9.706 5.828-21.863.012-31.573zm15 31.573v-280.071h124.78v280.071zm139.78-31.573h20.419c-5.816 9.711-5.811 21.867.012 31.573h-20.431zm0-15v-31.594h20.419c-5.817 9.712-5.815 21.879.024 31.594zm0-46.594v-31.593h20.419c-5.817 9.712-5.815 21.878.024 31.593zm0-46.593v-31.593h20.419c-5.817 9.712-5.815 21.878.024 31.593zm0-46.593v-31.593h20.419c-5.817 9.712-5.815 21.878.024 31.593zm0-46.593v-31.593h20.419c-5.817 9.712-5.815 21.878.024 31.593zm0-46.594v-8.031c0-4.142-3.358-7.5-7.5-7.5h-139.78c-4.142 0-7.5 3.358-7.5 7.5v8.031h-191.274c5.709-9.515 5.94-21.693 0-31.594h366.484c-5.709 9.515-5.94 21.693 0 31.594zm-162.812-162.687 185.144 116.094h-370.288zm-225.466 426.43c0-8.442 6.657-15.359 14.997-15.776h1.599c8.341.418 14.998 7.334 14.998 15.776 0 8.71-7.086 15.797-15.797 15.797s-15.797-7.086-15.797-15.797zm450.933 0c0 8.71-7.086 15.797-15.796 15.797s-15.797-7.086-15.797-15.797c0-8.71 7.086-15.796 15.797-15.796 8.71 0 15.796 7.086 15.796 15.796zm0-46.593c0 8.71-7.086 15.797-15.796 15.797s-15.797-7.086-15.797-15.797 7.086-15.797 15.797-15.797c8.71 0 15.796 7.087 15.796 15.797zm0-46.593c0 8.71-7.086 15.796-15.796 15.796s-15.797-7.086-15.797-15.796 7.086-15.797 15.797-15.797c8.71 0 15.796 7.086 15.796 15.797zm0-46.594c0 8.71-7.086 15.797-15.796 15.797s-15.797-7.086-15.797-15.797c0-8.71 7.086-15.796 15.797-15.796 8.71 0 15.796 7.086 15.796 15.796zm0-46.593c0 8.71-7.086 15.797-15.796 15.797s-15.797-7.086-15.797-15.797c0-8.71 7.086-15.796 15.797-15.796 8.71 0 15.796 7.086 15.796 15.796zm0-46.593c0 8.71-7.086 15.797-15.796 15.797s-15.797-7.086-15.797-15.797c0-7.832 5.773-15.563 16.444-15.784 8.411.34 15.149 7.29 15.149 15.784zm-31.593-46.574c0-8.514 6.77-15.476 15.21-15.786 3.634 2.038 6.828 5.133 13.247 6.333 7.484 9.977.823 24.717-12.013 25.237-10.568-.219-16.444-7.866-16.444-15.784z"/><path d="m380.242 232.967h-77.656c-4.142 0-7.5 3.358-7.5 7.5v108.698c0 4.142 3.358 7.5 7.5 7.5h77.656c4.142 0 7.5-3.358 7.5-7.5v-108.698c0-4.142-3.357-7.5-7.5-7.5zm-7.5 108.698h-62.656v-93.698h62.656z"/><path d="m380.242 368.805h-77.656c-4.142 0-7.5 3.358-7.5 7.5v68.027c0 4.142 3.358 7.5 7.5 7.5h77.656c4.142 0 7.5-3.358 7.5-7.5v-16.701c0-4.142-3.358-7.5-7.5-7.5s-7.5 3.358-7.5 7.5v9.201h-62.656v-53.027h62.656v11.141c0 4.142 3.358 7.5 7.5 7.5s7.5-3.358 7.5-7.5v-18.641c0-4.142-3.357-7.5-7.5-7.5z"/><path d="m124.244 287.06v62.125c0 4.142 3.358 7.5 7.5 7.5h77.656c4.142 0 7.5-3.358 7.5-7.5v-62.125c0-4.142-3.358-7.5-7.5-7.5h-77.656c-4.142 0-7.5 3.358-7.5 7.5zm15 38.563h23.828v16.062h-23.828zm38.828 16.062v-16.062h23.828v16.062zm23.828-31.062h-23.828v-16.063h23.828zm-38.828-16.063v16.062h-23.828v-16.062z"/><path d="m255.993 146.994c16.981 0 30.797-13.815 30.797-30.796s-13.815-30.797-30.797-30.797-30.797 13.815-30.797 30.797c.001 16.981 13.816 30.796 30.797 30.796zm0-46.593c8.71 0 15.797 7.086 15.797 15.797 0 8.71-7.086 15.796-15.797 15.796-8.71 0-15.797-7.086-15.797-15.796.001-8.71 7.087-15.797 15.797-15.797z"/></g></g></svg>