<svg id="Capa_1" enable-background="new 0 0 511.998 511.998" height="512" viewBox="0 0 511.998 511.998" width="512" xmlns="http://www.w3.org/2000/svg"><g><g><path d="m299.71 94.925c0 24.141-19.57 43.711-43.711 43.711s-43.711-19.57-43.711-43.711 43.711-87.423 43.711-87.423 43.711 63.281 43.711 87.423z" fill="#ffb124"/><path d="m242.058 94.925c0-14.678 16.158-43.823 28.826-64.418-8.168-13.279-14.885-23.004-14.885-23.004s-43.711 63.281-43.711 87.423 19.57 43.711 43.711 43.711c5.227 0 10.239-.918 14.885-2.601-16.812-6.09-28.826-22.197-28.826-41.111z" fill="#ff901d"/><path d="m425.535 504.498h-339.072c-8.512 0-15.412-6.9-15.412-15.412 0-8.512 6.9-15.412 15.412-15.412h339.073c8.512 0 15.412 6.9 15.412 15.412 0 8.512-6.901 15.412-15.413 15.412z" fill="#e5646e"/><path d="m120.668 489.086c0-8.512 6.9-15.412 15.412-15.412h-49.617c-8.512 0-15.412 6.9-15.412 15.412s6.9 15.412 15.412 15.412h49.618c-8.513 0-15.413-6.9-15.413-15.412z" fill="#db4655"/><path d="m425.535 473.673h-339.072v-92.866c0-67.664 54.853-122.517 122.517-122.517h94.039c67.664 0 122.517 54.853 122.517 122.517v92.866z" fill="#eaf6ff"/><path d="m258.597 258.291h-49.618c-67.664 0-122.517 54.853-122.517 122.517v92.866h49.618v-92.866c.001-67.665 54.853-122.517 122.517-122.517z" fill="#d8ecfe"/><path d="m225.174 227.466h61.65v30.825h-61.65z" fill="#eaf6ff"/><path d="m225.174 227.466h30.825v30.825h-30.825z" fill="#d8ecfe"/><path d="m209.762 196.25h92.474v31.216h-92.474z" fill="#e5646e"/><path d="m209.762 196.25h46.237v31.216h-46.237z" fill="#db4655"/><path d="m275.685 114.915c0 10.872-8.814 19.686-19.686 19.686s-19.686-8.814-19.686-19.686 19.686-39.372 19.686-39.372 19.686 28.5 19.686 39.372z" fill="#ffeb99"/><path d="m333.061 165.325h-154.124c-8.512 0-15.412-6.9-15.412-15.412 0-8.512 6.9-15.412 15.412-15.412h154.124c8.512 0 15.412 6.9 15.412 15.412 0 8.512-6.9 15.412-15.412 15.412z" fill="#95d6a4"/><path d="m252.837 149.913c0-8.512 6.9-15.412 15.412-15.412h-89.312c-8.512 0-15.412 6.9-15.412 15.412 0 8.512 6.9 15.412 15.412 15.412h89.312c-8.512 0-15.412-6.9-15.412-15.412z" fill="#78c2a4"/><circle cx="363.886" cy="211.663" fill="#e5646e" r="15.412"/><path d="m286.824 350.374h-196.551c-2.487 9.731-3.81 19.927-3.81 30.433v62.041h200.361z" fill="#95d6a4"/><path d="m139.89 350.374h-49.617c-2.487 9.731-3.81 19.927-3.81 30.433v62.041h49.618v-62.041c0-10.505 1.322-20.702 3.809-30.433z" fill="#78c2a4"/></g><path d="m433.02 467.522v-86.688c0-71.529-58.166-129.989-129.99-129.989h-8.754v-15.943h7.972c4.112 0 7.444-3.333 7.444-7.444v-8.362h32.603c3.095 8.962 11.616 15.416 21.616 15.416 12.605 0 22.861-10.255 22.861-22.861s-10.255-22.86-22.861-22.86c-10 0-18.521 6.454-21.616 15.416h-32.603v-7.972c0-4.111-3.333-7.444-7.444-7.444h-1.506l10.695-16.044h21.642c12.605 0 22.86-10.255 22.86-22.86s-10.255-22.861-22.86-22.861h-37.31c7.219-8.957 11.397-20.268 11.397-32.14 0-22.516-32.268-73.189-45.041-91.674-2.957-4.281-9.294-4.28-12.25 0-4.61 6.674-45.041 65.949-45.041 91.674 0 11.873 4.178 23.183 11.397 32.14h-37.31c-12.605 0-22.861 10.255-22.861 22.861 0 12.605 10.255 22.86 22.861 22.86h21.642l10.696 16.044h-1.506c-4.112 0-7.444 3.333-7.444 7.444v31.223c0 4.111 3.333 7.444 7.444 7.444h7.972v15.943c-4.584.531-38.692-3.803-75.853 18.635-3.52 2.125-4.65 6.701-2.525 10.221 2.126 3.52 6.701 4.649 10.222 2.525 17.868-10.789 38.409-16.492 59.403-16.492h94.061c50.201 0 92.998 32.304 108.696 77.216h-94.063c-4.112 0-7.444 3.333-7.444 7.444s3.333 7.444 7.444 7.444h98.16c1.058 5.197 1.764 10.52 2.094 15.943h-100.258c-4.112 0-7.444 3.333-7.444 7.444s3.333 7.444 7.444 7.444h100.468v15.943h-100.468c-4.112 0-7.444 3.333-7.444 7.444s3.333 7.444 7.444 7.444h100.468v15.943h-100.468c-4.112 0-7.444 3.333-7.444 7.444s3.333 7.444 7.444 7.444h100.468v15.943h-324.263v-15.943h126.219c4.112 0 7.444-3.333 7.444-7.444s-3.333-7.444-7.444-7.444h-126.219c.785-48.934-1.677-57.986 2.297-77.607h183.222v77.607h-26.856c-4.112 0-7.444 3.333-7.444 7.444s3.333 7.444 7.444 7.444h34.3c4.112 0 7.444-3.333 7.444-7.444v-92.496c0-4.111-3.333-7.444-7.444-7.444h-186.59c5.337-15.339 13.929-29.487 25.411-41.53 2.837-2.975 2.725-7.688-.25-10.525s-7.688-2.725-10.525.251c-22.92 24.038-35.666 55.531-35.894 88.759-.006.819-.004 86.509-.004 87.617-8.961 3.095-15.415 11.615-15.415 21.616 0 12.606 10.254 22.861 22.86 22.861h339.152c12.605 0 22.86-10.255 22.86-22.861 0-9.998-6.454-18.518-15.415-21.613zm-69.109-263.844c4.396 0 7.972 3.576 7.972 7.972 0 4.395-3.576 7.972-7.972 7.972s-7.972-3.576-7.972-7.972c0-4.395 3.576-7.972 7.972-7.972zm-81.064-14.888h-19.404v-16.044h30.099zm-28.421-61.765c-6.012-.775-10.673-5.926-10.673-12.145 0-3.927 5.618-15.001 12.247-25.752 6.629 10.746 12.245 21.818 12.245 25.752 0 6.219-4.661 11.371-10.673 12.145zm-13.894-81.101c5.649-9.743 11.345-18.735 15.467-25.059 4.451 6.829 10.739 16.773 16.826 27.418 4.015 9.019 19.451 33.737 19.451 46.603 0 9.172-3.517 17.871-9.508 24.455.241-1.451.366-2.941.366-4.46 0-3.777-1.124-10.739-10.851-27.504-5.012-8.641-9.952-15.807-10.159-16.108-1.39-2.012-3.68-3.213-6.125-3.213-2.446 0-4.735 1.201-6.125 3.213-.207.301-5.147 7.468-10.159 16.108-9.726 16.765-10.851 23.727-10.851 27.504 0 1.519.125 3.009.366 4.46-5.991-6.584-9.508-15.283-9.508-24.455 0-4.883 2.704-17.736 20.81-48.962zm-69.584 103.961c0-4.395 3.576-7.972 7.972-7.972 164.083 0-10.317.217 154.159 0 4.396 0 7.972 3.576 7.972 7.972 0 4.395-3.576 7.972-7.972 7.972-23.238 0-138.82 0-154.159 0-4.396 0-7.972-3.576-7.972-7.972zm47.507 22.861h30.1v16.044h-19.404zm-1.26 30.932h77.608v16.334h-77.608zm15.416 47.167v-15.943h46.776v15.943zm192.964 246.264h-339.152c-4.395 0-7.971-3.576-7.971-7.972s3.576-7.972 7.971-7.972h339.152c4.395 0 7.971 3.576 7.971 7.972s-3.576 7.972-7.971 7.972z"/></g></svg>