<svg id="Capa_1" enable-background="new 0 0 511.996 511.996" height="512" viewBox="0 0 511.996 511.996" width="512" xmlns="http://www.w3.org/2000/svg"><g><g><path d="m488.965 69.624h-465.934c-8.578 0-15.531-6.954-15.531-15.531 0-8.578 6.954-15.531 15.531-15.531h465.934c8.578 0 15.531 6.954 15.531 15.531 0 8.578-6.953 15.531-15.531 15.531z" fill="#e29a6b"/><path d="m488.965 38.562h-74.469v15.531 15.531h74.469c8.578 0 15.531-6.954 15.531-15.531 0-8.577-6.953-15.531-15.531-15.531z" fill="#ce845c"/><path d="m97.5 54.093c0-8.578 6.954-15.531 15.531-15.531h-90c-8.578 0-15.531 6.954-15.531 15.531 0 8.578 6.954 15.531 15.531 15.531h90c-8.577.001-15.531-6.953-15.531-15.531z" fill="#ce845c"/><g><path d="m351.84 380.247h-191.684v124.249h191.684c30.021 0 54.359-27.814 54.359-62.125s-24.337-62.124-54.359-62.124z" fill="#e29a6b"/><path d="m296.112 464.496c-12.044 0-21.636-9.847-21.597-21.891 0-.078 0-.156 0-.234 0-30.406-19.114-55.71-44.359-61.075v-1.049h-70v124.249h191.684c23.202 0 43.009-16.614 50.81-40z" fill="#ce845c"/><ellipse cx="160.156" cy="442.372" fill="#ffeb99" rx="54.359" ry="62.125"/><ellipse cx="160.156" cy="442.372" fill="#e29a6b" rx="23.297" ry="26.625"/></g><path d="m69.625 504.496h-31.063v-481.465c0-8.578 6.954-15.531 15.531-15.531 8.578 0 15.531 6.954 15.531 15.531v481.465z" fill="#e29a6b"/><path d="m64.093 11.147c-2.702-2.276-6.191-3.647-10-3.647-8.578 0-15.531 6.953-15.531 15.531v481.465h20v-481.465c0-4.768 2.149-9.035 5.531-11.884z" fill="#ce845c"/><path d="m473.434 504.496h-31.062v-481.465c0-8.578 6.954-15.531 15.531-15.531 8.578 0 15.531 6.954 15.531 15.531z" fill="#e29a6b"/><path d="m467.903 11.147c-2.702-2.276-6.191-3.647-10-3.647-8.578 0-15.531 6.953-15.531 15.531v481.465h20v-481.465c0-4.768 2.149-9.035 5.531-11.884z" fill="#ce845c"/><circle cx="255.998" cy="115.605" fill="#5680a6" r="15.531"/><path d="m335.265 193.874h-158.534c-8.578 0-15.531-6.954-15.531-15.531 0-8.578 6.954-15.531 15.531-15.531h158.534c8.578 0 15.531 6.954 15.531 15.531 0 8.577-6.953 15.531-15.531 15.531z" fill="#5680a6"/><path d="m221.2 178.342c0-8.578 6.953-15.531 15.531-15.531h-60c-8.578 0-15.531 6.953-15.531 15.531s6.953 15.531 15.531 15.531h60c-8.577.001-15.531-6.953-15.531-15.531z" fill="#497090"/><path d="m277.697 308.665h-43.398c-32.408 0-58.68-26.272-58.68-58.68v-56.112h160.758v56.112c0 32.408-26.272 58.68-58.68 58.68z" fill="#5680a6"/><path d="m235.619 249.985v-56.112h-60v56.112c0 32.408 26.272 58.68 58.68 58.68h43.398c2.818 0 5.589-.199 8.301-.583-28.477-4.032-50.379-28.507-50.379-58.097z" fill="#497090"/><g><path d="m304.265 275.742c-1.502 4.13-14.989 23.855-14.989 23.855-.979 1.271-4.025 4.998-4.025 4.998-2.073-20.969-11.531-26.35-16.938-34.215-12.315-17.913 0-38.505 0-38.505-38.182 10.224-38.862 44.881-37.559 58.558-7.467-15.01-26.854-26.777-26.854-26.777 5.172 10.873 5 23.537-.145 34.475-3.732 7.934-5.707 16.857-5.424 26.268.899 29.943 25.097 54.492 55.025 55.793 30.219 1.313 55.576-20.659 59.627-49.47 5.368-33.837-8.718-54.98-8.718-54.98z" fill="#ffb124"/><g fill="#ff901d"><path d="m250.542 279.145c.584-10.08 3.472-22.843 12.824-32.971 1.371-8.319 4.947-14.3 4.947-14.3-24.235 6.489-33.361 22.822-36.462 37.385 3.893 3.032 8.6 7.134 12.641 11.903 2.008 2.37 5.87 1.085 6.05-2.017z"/><path d="m218.331 324.398c-.282-9.411 1.693-18.334 5.424-26.268 1.974-4.197 3.215-8.648 3.704-13.155-8.713-12.31-23.559-21.321-23.559-21.321 5.172 10.873 5 23.537-.145 34.475-3.732 7.934-5.707 16.857-5.424 26.268.899 29.943 25.097 54.492 55.025 55.793 4.308.187 8.518-.099 12.581-.811-26.415-4.656-46.783-27.556-47.606-54.981z"/></g><path d="m283.177 330.177s-9.258 7.453-13.37 7.925c-2.122-24.169-13.809-34.58-13.809-34.58-2.957 13.162-8.028 18.782-13.9 22.52-8.598 5.473-14.982 14.411-14.982 25.323 0 15.951 12.931 28.882 28.882 28.882 15.056 0 27.421-11.521 28.761-26.227 1.324-19.098-1.582-23.843-1.582-23.843z" fill="#ffeb99"/></g></g><g><path d="m160.156 476.496c16.981 0 30.797-15.309 30.797-34.125s-13.815-34.124-30.797-34.124c-16.981 0-30.796 15.308-30.796 34.124s13.815 34.125 30.796 34.125zm0-53.249c8.71 0 15.797 8.579 15.797 19.124 0 10.546-7.086 19.125-15.797 19.125-8.71 0-15.796-8.579-15.796-19.125-.001-10.545 7.086-19.124 15.796-19.124z"/><path d="m257.737 442.371c0 4.143 3.358 7.5 7.5 7.5h42.465c4.142 0 7.5-3.357 7.5-7.5s-3.358-7.5-7.5-7.5h-42.465c-4.142 0-7.5 3.358-7.5 7.5z"/><path d="m294.874 473.434c0 4.143 3.358 7.5 7.5 7.5h45.584c4.142 0 7.5-3.357 7.5-7.5s-3.358-7.5-7.5-7.5h-45.584c-4.143 0-7.5 3.357-7.5 7.5z"/><path d="m332.481 418.81h31.007c4.142 0 7.5-3.357 7.5-7.5s-3.358-7.5-7.5-7.5h-31.007c-4.142 0-7.5 3.357-7.5 7.5s3.358 7.5 7.5 7.5z"/><path d="m488.965 31.062h-8.031v-8.031c0-12.699-10.332-23.031-23.031-23.031-12.7 0-23.031 10.332-23.031 23.031v8.031h-357.747v-8.031c0-12.699-10.332-23.031-23.032-23.031-12.699 0-23.031 10.332-23.031 23.031v8.031h-8.031c-12.699 0-23.031 10.332-23.031 23.031s10.332 23.031 23.031 23.031h8.031v427.372c0 4.143 3.358 7.5 7.5 7.5h31.062c4.142 0 7.5-3.357 7.5-7.5v-294.279c0-4.143-3.358-7.5-7.5-7.5s-7.5 3.357-7.5 7.5v286.779h-16.062v-419.872h16.062v100.406c0 4.143 3.358 7.5 7.5 7.5s7.5-3.357 7.5-7.5v-100.406h171.374v16.703c-8.121 2.805-14.198 10.032-15.338 18.789-19.877 6.924-35.859 22.843-42.861 42.696h-13.568c-12.699 0-23.031 10.332-23.031 23.031 0 9.656 5.973 17.943 14.419 21.361v50.282c0 20.476 9.644 40.001 25.859 52.482-8.081 24.749-.637 52.757 20.472 70.28h-54.295c-47.607 0-77.039 58.117-53.778 104.074 1.871 3.696 6.384 5.176 10.079 3.305 3.696-1.87 5.175-6.383 3.305-10.078-18.191-35.94 3.977-82.301 40.395-82.301 25.838 0 46.859 24.504 46.859 54.624s-21.021 54.625-46.859 54.625c-7.718 0-15.371-2.24-22.129-6.479-3.509-2.202-8.137-1.139-10.339 2.369-2.201 3.509-1.14 8.138 2.369 10.338 9.15 5.738 19.558 8.771 30.099 8.771h191.684c34.109 0 61.859-31.233 61.859-69.625 0-38.391-27.75-69.624-61.859-69.624h-54.196c12.008-9.98 20.401-24.289 22.756-40.916 1.912-12.097.887-32.047 1.24-32.36 14.132-12.556 22.237-30.593 22.237-49.485v-50.282c8.446-3.417 14.419-11.705 14.419-21.361 0-12.699-10.332-23.031-23.031-23.031h-13.568c-7.002-19.854-22.984-35.772-42.861-42.695-1.14-8.757-7.217-15.984-15.338-18.789v-16.704h113.087c4.142 0 7.5-3.357 7.5-7.5s-3.358-7.5-7.5-7.5h-113.087v-16.062h225.467c4.428 0 8.031 3.603 8.031 8.03 0 4.429-3.603 8.031-8.031 8.031h-79.693c-4.142 0-7.5 3.357-7.5 7.5s3.358 7.5 7.5 7.5h25.6v427.372c0 4.143 3.358 7.5 7.5 7.5h31.062c4.142 0 7.5-3.357 7.5-7.5v-427.371h8.031c12.699 0 23.031-10.332 23.031-23.031s-10.332-23.031-23.031-23.031zm-211.682 322.353c-1.043 11.026-10.181 19.332-21.285 19.332-20.458 0-30.846-27.03-9.873-40.378 4.965-3.16 8.807-7.152 11.748-12.325 6.214 14.583 2.317 19.889 7.193 23.869 3.744 3.055 8.244 1.423 12.517-.867.057 2.728-.009 6.143-.3 10.369zm74.557 34.332c23.656 0 43.273 20.54 46.419 47.124h-50.301c-4.142 0-7.5 3.357-7.5 7.5s3.358 7.5 7.5 7.5h50.301c-3.145 26.584-22.763 47.125-46.419 47.125h-153.37c5.098-4.54 9.549-9.963 13.167-16.062h49.471c4.142 0 7.5-3.357 7.5-7.5s-3.358-7.5-7.5-7.5h-42.74c2.359-7.362 3.646-15.296 3.646-23.562s-1.286-16.2-3.646-23.562h73.802c4.142 0 7.5-3.357 7.5-7.5s-3.358-7.5-7.5-7.5h-80.532c-3.618-6.099-8.069-11.522-13.167-16.062 18.624-.001 141.55-.001 153.369-.001zm-46.284-58.07c-1.544 10.982-6.511 20.653-13.726 28.035 1.206-6.937 1.511-25.299-2.257-31.452-2.36-3.852-7.573-4.756-11.096-1.928-.917.736-1.9 1.48-2.883 2.188-4.336-19.242-14.123-28.167-14.607-28.599-4.265-3.797-11.055-1.615-12.306 3.957-2.554 11.365-6.608 15.289-10.61 17.836-14.387 9.157-20.403 23.739-17.907 37.958-14.834-15.139-18.443-37.598-9.623-56.351 2.891-6.146 4.442-12.676 4.65-19.196 3.473 3.458 6.755 7.44 8.847 11.646 3.688 7.411 14.967 4.192 14.181-4.052-1.192-12.514.075-32.794 17.668-44.352-1.346 8.544-.701 19.156 6.244 29.26 6.05 8.8 13.829 12.233 15.655 30.704.655 6.633 9.041 9.179 13.27 4.009 3.976-4.87 3.902-4.377 12.221-17.219 4.02 13.015 4.038 24.368 2.279 37.556zm23.321-79.692c0 12.434-4.54 24.389-12.63 33.661-2.713-7.428-5.473-11.662-5.74-12.063-3.457-5.187-11.202-4.143-13.27 1.542-.668 1.637-4.3 7.434-8.483 13.786-4.38-10.824-10.872-15.849-14.261-20.781-9.366-13.624-.124-29.757.256-30.407 3.449-5.768-1.88-12.831-8.377-11.095-29.226 7.827-39.165 28.463-42.209 45.332-7.951-7.556-15.841-12.395-16.373-12.717-6.35-3.855-13.851 2.931-10.664 9.633 3.059 6.431 3.842 13.654 2.352 20.63-10.461-9.66-16.359-23.05-16.359-37.522v-48.611h145.758zm14.419-71.642c0 4.429-3.603 8.031-8.031 8.031h-158.534c-4.428 0-8.031-3.603-8.031-8.031s3.603-8.031 8.031-8.031h158.534c4.428 0 8.031 3.602 8.031 8.031zm-37.789-23.031h-99.018c5.946-12.657 16.691-22.76 29.768-27.854 8.963 14.872 30.492 14.916 39.481 0 13.078 5.093 23.823 15.195 29.769 27.854zm-49.509-31.676c-4.428 0-8.031-3.603-8.031-8.031s3.603-8.031 8.031-8.031 8.031 3.603 8.031 8.031-3.603 8.031-8.031 8.031zm193.874-100.605c0-4.429 3.603-8.031 8.031-8.031s8.031 3.603 8.031 8.031v8.031h-16.062zm-403.81 0c0-4.429 3.603-8.031 8.031-8.031s8.031 3.603 8.031 8.031v8.031h-16.062zm202.436 39.093h-225.467c-4.428 0-8.031-3.603-8.031-8.031s3.603-8.03 8.031-8.03h225.467zm217.436 434.872h-16.062v-419.872h16.062z"/></g></g></svg>