<svg id="Capa_1" enable-background="new 0 0 511.996 511.996" height="512" viewBox="0 0 511.996 511.996" width="512" xmlns="http://www.w3.org/2000/svg"><g><g><path d="m453.434 473.434h-394.872c-11.046 0-20-8.954-20-20v-197.436h434.872v197.436c0 11.046-8.954 20-20 20z" fill="#eaf6ff"/><path d="m148.562 453.434v-197.436h-110v197.436c0 11.046 8.954 20 20 20h110c-11.045 0-20-8.955-20-20z" fill="#d8ecfe"/><path d="m69.625 473.434h62.125v31.062h-62.125z" fill="#5680a6"/><path d="m69.625 473.434h30v31.062h-30z" fill="#497090"/><path d="m380.247 473.434h62.125v31.062h-62.125z" fill="#5680a6"/><path d="m380.247 473.434h30v31.062h-30z" fill="#497090"/><path d="m69.625 7.5h372.747v248.498h-372.747z" fill="#5680a6"/><path d="m69.625 7.5h77.656v248.498h-77.656z" fill="#497090"/><path d="m100.687 38.562h310.623v217.436h-310.623z" fill="#eaf6ff"/><path d="m100.687 38.562h46.593v217.436h-46.593z" fill="#d8ecfe"/><g><path d="m178.342 100.687h-31.062c-8.578 0-15.531-6.954-15.531-15.531 0-8.578 6.954-15.531 15.531-15.531h31.062c8.578 0 15.531 6.954 15.531 15.531.001 8.577-6.953 15.531-15.531 15.531z" fill="#ffb124"/><g fill="#95d6a4"><path d="m147.28 100.687h31.062v31.062h-31.062z"/><path d="m178.342 131.749h-31.062c-10.214 20.427-15.531 42.952-15.531 65.791v58.458h62.125v-58.458c0-22.839-5.318-45.364-15.532-65.791z"/></g></g><g><path d="m271.529 100.687h-31.062c-8.578 0-15.531-6.954-15.531-15.531 0-8.578 6.954-15.531 15.531-15.531h31.062c8.578 0 15.531 6.954 15.531 15.531 0 8.577-6.953 15.531-15.531 15.531z" fill="#ffb124"/><g fill="#95d6a4"><path d="m240.467 100.687h31.062v31.062h-31.062z"/><path d="m271.529 131.749h-31.062c-10.214 20.427-15.531 42.952-15.531 65.791v58.458h62.125v-58.458c-.001-22.839-5.318-45.364-15.532-65.791z"/></g></g><g><path d="m364.716 100.687h-31.062c-8.578 0-15.531-6.954-15.531-15.531 0-8.578 6.954-15.531 15.531-15.531h31.062c8.578 0 15.531 6.954 15.531 15.531 0 8.577-6.953 15.531-15.531 15.531z" fill="#ffb124"/><path d="m364.716 131.749v-31.062h-31.062v31.062c-10.214 20.427-15.531 42.952-15.531 65.791v58.458h62.125v-58.458c-.001-22.839-5.318-45.363-15.532-65.791z" fill="#95d6a4"/></g><path d="m442.171 255.998c.125-1.422.201-2.858.201-4.313 0-26.877-21.788-48.665-48.665-48.665-17.012 0-31.976 8.735-40.676 21.958-8.016-5.811-17.866-9.246-28.524-9.246-2.675 0-5.296.225-7.854.64-8.789-8.681-20.863-14.045-34.192-14.045-15.33 0-28.996 7.095-37.916 18.173-3.46-.781-7.053-1.206-10.749-1.206-3.707 0-7.312.428-10.781 1.213-8.295-14.985-24.259-25.135-42.6-25.135-16.546 0-31.154 8.265-39.946 20.883-6.653-3.414-14.187-5.352-22.178-5.352-25.675 0-46.69 19.887-48.521 45.094h372.401z" fill="#ffeb99"/><g><path d="m195.873 210.904c7.991 0 15.525 1.938 22.178 5.352.375-.539.761-1.069 1.157-1.591-8.885-11.719-22.953-19.292-38.794-19.292-16.546 0-31.154 8.265-39.946 20.883-6.653-3.414-14.187-5.352-22.178-5.352-25.675 0-46.69 19.887-48.521 45.094h77.583c1.83-25.208 22.846-45.094 48.521-45.094z" fill="#ffe477"/></g><path d="m38.562 255.998v31.062h170.843l15.531 31.063h62.124l15.531-31.063h170.843v-31.062z" fill="#5680a6"/><path d="m38.562 255.998h110v31.062h-110z" fill="#497090"/></g><path d="m473.434 248.498h-23.562v-240.998c0-4.143-3.358-7.5-7.5-7.5h-372.747c-4.142 0-7.5 3.357-7.5 7.5v240.998h-23.563c-4.142 0-7.5 3.357-7.5 7.5v197.436c0 15.164 12.336 27.5 27.5 27.5h3.562v23.562c0 4.143 3.358 7.5 7.5 7.5h62.125c4.142 0 7.5-3.357 7.5-7.5v-23.562h35.432c4.142 0 7.5-3.357 7.5-7.5s-3.358-7.5-7.5-7.5h-116.119c-6.893 0-12.5-5.607-12.5-12.5v-34.624h39.093c4.142 0 7.5-3.357 7.5-7.5s-3.358-7.5-7.5-7.5h-39.093v-16.062h39.093c4.142 0 7.5-3.357 7.5-7.5s-3.358-7.5-7.5-7.5h-39.093v-16.062h39.093c4.142 0 7.5-3.357 7.5-7.5s-3.358-7.5-7.5-7.5h-39.093v-47.124h158.708l13.458 26.916c1.271 2.541 3.867 4.146 6.708 4.146h62.124c2.841 0 5.438-1.604 6.708-4.146l13.458-26.916h50.25c4.142 0 7.5-3.357 7.5-7.5s-3.358-7.5-7.5-7.5h-311.414v-16.062h419.871v16.062h-75.771c-4.142 0-7.5 3.357-7.5 7.5s3.358 7.5 7.5 7.5h75.771v47.124h-39.305c-4.142 0-7.5 3.357-7.5 7.5s3.358 7.5 7.5 7.5h39.305v16.062h-39.305c-4.142 0-7.5 3.357-7.5 7.5s3.358 7.5 7.5 7.5h39.305v16.062h-39.305c-4.142 0-7.5 3.357-7.5 7.5s3.358 7.5 7.5 7.5h39.305v34.624c0 6.893-5.607 12.5-12.5 12.5h-246.066c-4.142 0-7.5 3.357-7.5 7.5s3.358 7.5 7.5 7.5h165.38v23.562c0 4.143 3.358 7.5 7.5 7.5h62.125c4.142 0 7.5-3.357 7.5-7.5v-23.562h3.562c15.164 0 27.5-12.336 27.5-27.5v-197.436c0-4.143-3.358-7.5-7.5-7.5zm-349.185 232.436v16.062h-47.124v-16.062zm166.207-186.373-8.031 16.062h-52.854l-8.031-16.062zm144.416-279.561v198.514c-4.567-4.922-10.004-9.026-16.062-12.066v-162.886c0-4.143-3.358-7.5-7.5-7.5h-310.623c-4.142 0-7.5 3.357-7.5 7.5v68.714c0 4.143 3.358 7.5 7.5 7.5s7.5-3.357 7.5-7.5v-61.214h295.622v150.368c-5.108-.932-10.537-1.182-16.073-.595-.255-22.712-5.604-45.397-15.521-65.832v-23.072c9.029-3.118 15.531-11.703 15.531-21.777 0-12.699-10.332-23.031-23.031-23.031h-31.062c-12.7 0-23.031 10.332-23.031 23.031 0 10.075 6.503 18.659 15.531 21.777v23.072c-18.138 37.374-15.228 69.469-15.531 72.375-4.999-2.907-10.41-5.013-16.07-6.251-.212-22.81-5.564-45.602-15.523-66.124v-23.072c9.029-3.118 15.531-11.703 15.531-21.777 0-12.699-10.332-23.031-23.031-23.031h-31.062c-12.699 0-23.031 10.332-23.031 23.031 0 10.075 6.502 18.659 15.531 21.777v23.072c-17.541 36.145-15.347 70.063-15.531 71.806-4.792-4.199-10.263-7.553-16.167-9.918-.794-21.387-6.083-42.637-15.426-61.888v-23.072c9.029-3.118 15.531-11.703 15.531-21.777 0-12.699-10.332-23.031-23.031-23.031h-31.063c-12.7 0-23.031 10.332-23.031 23.031 0 10.075 6.503 18.659 15.531 21.777v23.072c-18.264 37.633-15.188 70.332-15.531 73.709-5.341-.56-10.754-.367-16.062.611v-64.361c0-4.143-3.358-7.5-7.5-7.5s-7.5 3.357-7.5 7.5v69.413c-6.047 3.047-11.487 7.157-16.062 12.089v-206.464zm-93.718 93.187h16.062v16.062h-16.062zm23.562-15h-31.062c-4.428 0-8.031-3.603-8.031-8.031s3.603-8.031 8.031-8.031h31.062c4.428 0 8.031 3.603 8.031 8.031s-3.603 8.031-8.031 8.031zm-26.341 46.062h21.62c13.929 30.356 12.675 59.575 12.752 60.314-8.242 3.312-15.64 8.567-21.544 15.415-7.838-4.255-16.557-6.577-25.58-6.739.489-5.658-3.08-34.487 12.752-68.99zm-90.408-31.062h16.062v16.062h-16.062zm23.562-15h-31.062c-4.428 0-8.031-3.603-8.031-8.031s3.603-8.031 8.031-8.031h31.062c4.428 0 8.031 3.603 8.031 8.031s-3.602 8.031-8.031 8.031zm-26.341 46.062h21.619c7.988 17.41 12.358 36.505 12.727 55.653-14.449.742-27.906 6.967-37.83 17.456-3.079-.44-6.175-.622-9.269-.546.632-7.8-3.496-37.149 12.753-72.563zm-90.408-31.062h16.062v16.062h-16.062zm23.562-15h-31.062c-4.428 0-8.031-3.603-8.031-8.031s3.603-8.031 8.031-8.031h31.062c4.428 0 8.031 3.603 8.031 8.031s-3.602 8.031-8.031 8.031zm-26.341 46.062h21.62c7.049 15.363 11.281 32.04 12.432 48.907-17.964-1.814-35.148 5.137-46.804 17.691.405-4.452-2.734-32.847 12.752-66.598zm-73.35 109.249c4.874-17.397 20.955-30.095 39.638-30.095 6.593 0 12.903 1.522 18.754 4.525 3.341 1.713 7.433.695 9.578-2.386 17.444-25.036 55.062-23.08 69.831 3.597 1.615 2.916 4.961 4.415 8.217 3.683 15.879-3.593 20.503 3.856 25.717-2.618 7.868-9.772 19.559-15.377 32.074-15.377 10.894 0 21.166 4.22 28.922 11.881 3.614 3.569 6.507 1.523 13.125 1.523 8.725 0 17.066 2.704 24.122 7.819 3.471 2.514 8.324 1.612 10.668-1.95 21.601-32.831 72.463-19.469 75.453 19.397h-356.099zm356.221 248.498h-47.125v-16.062h47.125z"/></g></svg>