<svg id="Capa_1" enable-background="new 0 0 511.996 511.996" height="512" viewBox="0 0 511.996 511.996" width="512" xmlns="http://www.w3.org/2000/svg"><g><g><path d="m437.355 232.693v-38.829c0-7.875-2.864-15.481-8.058-21.401l-18.065-20.586c-8.963-10.214-21.892-16.07-35.481-16.07h-216.146c-10.437 0-18.898 8.461-18.898 18.898v26.941 51.047h68.697l-27.852-35.9v-15.153c0-2.218 1.798-4.016 4.016-4.016h179.54c7.523 0 14.783 2.765 20.4 7.769 6.533 5.82 10.269 14.152 10.269 22.901v24.4h41.578z" fill="#5680a6"/><g><path d="m181.553 181.64c0-2.218 1.798-4.016 4.016-4.016h23.836v-22.919c0-10.437 8.461-18.898 18.898-18.898h-68.698c-10.437 0-18.898 8.461-18.898 18.898v77.988h68.697l-27.852-35.9v-15.153z" fill="#497090"/></g><path d="m224.936 135.807h-52.994v-14.562c0-7.07 5.731-12.801 12.801-12.801h27.392c7.07 0 12.801 5.731 12.801 12.801z" fill="#ffeb99"/><path d="m217.4 109.574c-4.314-1.949-5.548-.777-32.657-1.129-7.07 0-12.801 5.731-12.801 12.801v14.562h37.921v-14.562c0-5.194 3.093-9.665 7.537-11.672z" fill="#ffe477"/><path d="m100.687 186.1h-93.187v217.436h93.187l62.124-17.065v-164.855z" fill="#5680a6"/><path d="m37.5 236.1h85.217c5.223 0 10.355 1.363 14.889 3.956l25.205 14.41v-32.849l-62.124-35.517h-93.187v217.436h30z" fill="#497090"/><path d="m38.562 186.1h62.125v217.436h-62.125z" fill="#eaf6ff"/><path d="m88.562 236.1h12.125v-50h-62.125v217.436h20v-137.436c0-16.568 13.432-30 30-30z" fill="#d8ecfe"/><path d="m451.945 386.634h-289.134v-165.018h289.133c3.291 0 5.958 2.668 5.958 5.958v153.102c.001 3.29-2.667 5.958-5.957 5.958z" fill="#ffeb99"/><path d="m451.945 221.616h-289.134v32.879h295.091v-26.921c.001-3.291-2.667-5.958-5.957-5.958z" fill="#ffe477"/><path d="m493.809 375.394h-35.906v-142.7h35.906c5.902 0 10.687 4.785 10.687 10.687v121.326c0 5.902-4.785 10.687-10.687 10.687z" fill="#5680a6"/><path d="m493.809 232.693h-35.906v21.802h35.906c5.902 0 10.687 4.785 10.687 10.687v-21.802c0-5.902-4.785-10.687-10.687-10.687z" fill="#497090"/><path d="m209.405 221.616h201.905v165.018h-201.905z" fill="#eaf6ff"/><path d="m209.405 221.616h201.905v32.879h-201.905z" fill="#d8ecfe"/><path d="m209.405 280.057h201.905v48.135h-201.905z" fill="#5680a6"/></g><path d="m493.81 225.193h-28.618c-1.127-6.289-6.638-11.078-13.247-11.078h-7.089c-1.156-13.728 3.958-29.812-9.14-45.68-2.638-3.195-7.365-3.645-10.559-1.01-3.194 2.637-3.646 7.364-1.01 10.559 8.631 10.456 4.729 20.844 5.708 36.131h-26.577v-5.822c0-20.995-17.019-38.17-38.17-38.17h-179.54c-6.35 0-11.516 5.166-11.516 11.516.421 14.009-1.034 16.39 1.574 19.75l9.873 12.725h-20.695l-16.598-9.489v-49.922c0-6.285 5.113-11.398 11.398-11.398h216.146c10.411 0 20.25 4 27.706 11.264 2.966 2.89 7.715 2.828 10.605-.138 2.891-2.967 2.828-7.715-.139-10.606-10.271-10.008-23.829-15.52-38.173-15.52h-143.313v-7.062c0-11.194-9.106-20.301-20.301-20.301h-27.392c-11.194 0-20.301 9.107-20.301 20.301v7.062h-4.837c-14.556 0-26.398 11.842-26.398 26.398v41.346c-31.069-17.526-29.317-17.452-32.521-17.452h-93.186c-4.143 0-7.5 3.358-7.5 7.5v38.362c0 4.142 3.357 7.5 7.5 7.5s7.5-3.358 7.5-7.5v-30.859h16.062v202.436h-16.062v-138.84c0-4.142-3.357-7.5-7.5-7.5s-7.5 3.358-7.5 7.5v146.34c0 4.142 3.357 7.5 7.5 7.5 105.505-.001 92.524.041 93.55-.009 1.44-.071-2.789.913 62.18-16.893h288.714c6.666 0 12.215-4.871 13.275-11.24h28.59c10.028 0 18.187-8.159 18.187-18.187v-121.327c0-10.028-8.158-18.187-18.186-18.187zm-314.368-103.948c0-2.923 2.378-5.301 5.301-5.301h27.392c2.923 0 5.301 2.378 5.301 5.301v7.062h-37.993v-7.062zm224.368 151.313h-108.172c-4.143 0-7.5 3.358-7.5 7.5s3.357 7.5 7.5 7.5h108.172v33.135h-186.906v-33.135h46.047c4.143 0 7.5-3.358 7.5-7.5s-3.357-7.5-7.5-7.5h-46.047v-43.442h186.906zm-214.757-78.333v-9.101h176.056c12.847 0 23.17 10.433 23.17 23.17v5.822h-183.795zm-95.866 92.562v16.062h-47.125v-16.062zm-47.125-15v-16.062h47.124v16.062zm47.125 46.062v16.062h-47.125v-16.062zm0-77.124h-47.125v-16.062h47.124v16.062zm-47.125 108.187h47.124v16.062h-47.124zm47.125-155.312v16.062h-47.125v-16.062zm-47.125 186.374h47.124v16.062h-47.124zm62.125-180.947c9.291 5.311 37.888 21.66 47.125 26.94v154.786l-47.125 12.945zm62.125 30.089h31.593v150.018h-31.593zm46.592 150.018v-43.441h186.906v43.441zm233.498 0h-31.592v-150.018h31.593v150.018zm46.594-14.428c0 1.757-1.43 3.187-3.187 3.187h-28.407v-127.7h28.407c1.757 0 3.187 1.43 3.187 3.187z"/></g></svg>