<svg id="Capa_1" enable-background="new 0 0 511.996 511.996" height="512" viewBox="0 0 511.996 511.996" width="512" xmlns="http://www.w3.org/2000/svg"><g><g><path d="m116.229 100.687h31.062v378.381h-31.062z" fill="#eaf6ff"/><path d="m116.229 100.687h20v378.381h-20z" fill="#d8ecfe"/><path d="m398.973 100.687h-285.928c-6.819 0-12.347-5.528-12.347-12.347v-68.493c0-6.819 5.528-12.347 12.347-12.347h285.928c6.819 0 12.347 5.528 12.347 12.347v68.492c0 6.82-5.528 12.348-12.347 12.348z" fill="#95d6a4"/><path d="m180.698 88.339v-68.492c0-6.819 5.528-12.347 12.347-12.347h-80c-6.819 0-12.347 5.528-12.347 12.347v68.492c0 6.819 5.528 12.347 12.347 12.347h80c-6.819.001-12.347-5.527-12.347-12.347z" fill="#78c2a4"/><path d="m364.727 100.687h31.062v378.381h-31.062z" fill="#eaf6ff"/><path d="m364.727 100.687h20v378.381h-20z" fill="#d8ecfe"/><path d="m159 193.187c-18.08 1.678-36.275 1.746-54.371.203-8.759-.747-15.101-8.686-13.863-17.389.033-.231.066-.461.098-.692 1.146-8.054 8.404-13.809 16.504-13.056 16.279 1.513 32.664 1.575 48.958.183 8.059-.688 15.244 5.059 16.384 13.067.014.101.029.203.043.304 1.233 8.661-5.043 16.572-13.753 17.38z" fill="#95d6a4"/><g><path d="m144.629 193.39c-8.758-.747-15.102-8.686-13.863-17.388.033-.231.066-.461.098-.692.786-5.524 4.447-9.967 9.283-11.97-10.934.289-21.88-.074-32.779-1.087-8.101-.753-15.358 5.002-16.505 13.056-.033.231-.066.461-.098.692-1.239 8.703 5.104 16.642 13.863 17.388 15.32 1.306 30.711 1.457 46.044.455-2.015-.131-4.03-.282-6.043-.454z" fill="#78c2a4"/></g><path d="m407.498 193.187c-18.08 1.678-36.275 1.746-54.371.203-8.759-.747-15.102-8.686-13.863-17.389.033-.231.066-.461.098-.692 1.146-8.054 8.404-13.809 16.504-13.056 16.279 1.513 32.664 1.575 48.958.183 8.059-.688 15.244 5.059 16.384 13.067.014.101.029.203.043.304 1.233 8.661-5.043 16.572-13.753 17.38z" fill="#95d6a4"/><g><path d="m393.127 193.39c-8.759-.747-15.102-8.686-13.863-17.388l.099-.692c.786-5.524 4.447-9.967 9.283-11.97-10.934.289-21.88-.074-32.779-1.087-8.101-.753-15.358 5.002-16.504 13.056-.033.231-.066.461-.098.692-1.239 8.703 5.104 16.642 13.863 17.388 15.32 1.306 30.711 1.457 46.044.455-2.017-.131-4.032-.282-6.045-.454z" fill="#78c2a4"/></g><path d="m425.914 289.402c-112.789 14.241-226.92 14.38-339.755.413-12.698-1.572-21.642-13.252-19.839-25.919.06-.423.12-.846.181-1.268 1.758-12.355 13.1-21.017 25.48-19.454 108.963 13.76 219.221 13.894 328.228.399 12.363-1.53 23.669 7.128 25.424 19.461.022.152.043.304.065.457 1.8 12.645-7.112 24.311-19.784 25.911z" fill="#95d6a4"/><g><path d="m145.101 268.273c0-12.469 17.399-18.109 17.399-18.109-23.549-1.699-47.064-4.029-70.519-6.991-12.381-1.563-23.722 7.099-25.48 19.454-.06.423-.12.846-.181 1.268-1.803 12.667 7.141 24.347 19.839 25.919 30.2 3.738 60.492 6.466 90.827 8.183 0 .002-31.885-11.704-31.885-29.724z" fill="#78c2a4"/></g><path d="m147.291 504.496h-31.062c-8.578 0-15.531-6.954-15.531-15.531 0-8.578 6.954-15.531 15.531-15.531h31.062c8.578 0 15.531 6.954 15.531 15.531 0 8.578-6.953 15.531-15.531 15.531z" fill="#95d6a4"/><path d="m130.698 488.965c0-8.578 6.954-15.531 15.531-15.531h-30c-8.578 0-15.531 6.953-15.531 15.531 0 8.578 6.954 15.531 15.531 15.531h30c-8.578 0-15.531-6.954-15.531-15.531z" fill="#78c2a4"/><path d="m395.789 504.496h-31.062c-8.578 0-15.531-6.954-15.531-15.531 0-8.578 6.954-15.531 15.531-15.531h31.062c8.578 0 15.531 6.954 15.531 15.531 0 8.578-6.953 15.531-15.531 15.531z" fill="#95d6a4"/><path d="m379.196 488.965c0-8.578 6.953-15.531 15.531-15.531h-30c-8.578 0-15.531 6.953-15.531 15.531 0 8.578 6.954 15.531 15.531 15.531h30c-8.578 0-15.531-6.954-15.531-15.531z" fill="#78c2a4"/></g><path d="m453.122 262.42-.063-.443c-2.316-16.271-17.476-27.863-33.771-25.848-5.319.658-10.653 1.284-15.999 1.879v-36.938c6.049-.465 14.206-.757 20.713-8.997 3.901-4.939 5.562-11.092 4.673-17.336l-.042-.29c-1.572-11.046-11.18-20.571-25.345-19.409v-47.325c8.875-1.976 15.531-9.912 15.531-19.374v-68.491c.001-10.945-8.902-19.848-19.846-19.848h-186.368c-4.142 0-7.5 3.357-7.5 7.5s3.358 7.5 7.5 7.5h186.368c2.673 0 4.847 2.175 4.847 4.848v68.492c0 2.673-2.174 4.847-4.847 4.847h-285.928c-2.673 0-4.847-2.174-4.847-4.847v-68.492c0-2.673 2.174-4.848 4.847-4.848h66.873c4.142 0 7.5-3.357 7.5-7.5s-3.358-7.5-7.5-7.5h-66.873c-10.944 0-19.847 8.903-19.847 19.848v68.492c0 9.461 6.655 17.398 15.531 19.374v47.132c-.222-.02-.444-.039-.666-.06-12.096-1.115-22.911 7.427-24.625 19.471l-.098.688c-1.838 12.916 7.575 24.805 20.651 25.918 1.577.135 3.156.257 4.737.367v36.401c-5.276-.601-10.546-1.233-15.809-1.897-27.394-3.469-44.151 28.829-28.079 49.836 4.995 6.527 12.238 10.679 20.396 11.689 7.823.968 15.654 1.869 23.491 2.702v167.227c-9.028 3.118-15.531 11.703-15.531 21.777 0 12.699 10.332 23.031 23.031 23.031h31.062c21.622 0 31.219-27.152 14.614-40.819l94.027-76.846 94.174 76.852c-16.716 13.769-6.794 40.814 14.621 40.814h31.062c12.699 0 23.031-10.332 23.031-23.031 0-10.075-6.502-18.659-15.531-21.777v-167.577c7.862-.855 15.717-1.777 23.564-2.768 16.807-2.123 28.67-17.561 26.271-34.424zm-64.833-22.83c-5.349.533-10.704 1.035-16.062 1.503v-39.175c5.3.117 10.658.101 16.062-.055zm17.174-69.681c4.083-.348 7.74 2.573 8.319 6.641l.045.314c.628 4.412-2.565 8.441-7.021 8.854-3.813.183-24.357 2.644-53.042.198-10.55-.898-8.803-17.14 1.409-16.196 16.678 1.551 33.598 1.615 50.29.189zm-33.236-14.132v-47.59h16.062v47.657c-5.352.137-10.712.115-16.062-.067zm-248.498-47.59h16.062v47.657c-5.352.137-10.712.115-16.062-.067zm-17.054 61.534c16.678 1.551 33.598 1.614 50.291.188 6.939-.586 10.904 7.629 6.768 12.867-2.246 2.844-5.326 2.912-5.426 2.942-17.594 1.632-35.439 1.699-53.041.198-10.551-.897-8.805-17.139 1.408-16.195zm17.054 32.197c5.3.117 10.658.101 16.062-.055v38.929c-5.359-.481-10.714-.995-16.062-1.541zm23.562 295.078h-31.062c-4.428 0-8.031-3.603-8.031-8.031s3.603-8.031 8.031-8.031h31.062c4.428 0 8.031 3.603 8.031 8.031s-3.603 8.031-8.031 8.031zm7.5-39.378v-65.334c0-4.143-3.358-7.5-7.5-7.5s-7.5 3.357-7.5 7.5v73.65h-16.062v-164.461c5.352.51 10.706.988 16.062 1.435v57.892c0 4.143 3.358 7.5 7.5 7.5s7.5-3.357 7.5-7.5v-49.006l89.28 72.858zm15.54-152.503c54.927 3.356 112.18 3.551 171.304-.199l-85.71 70.049zm186.896 6.431v146.088l-89.441-72.99zm38.562 185.45h-31.062c-4.428 0-8.031-3.603-8.031-8.031s3.603-8.031 8.031-8.031h31.062c4.428 0 8.031 3.603 8.031 8.031s-3.603 8.031-8.031 8.031zm-7.5-31.062h-16.062v-163.301c5.357-.46 10.711-.951 16.062-1.474zm36.685-183.973c-109.171 13.785-222.895 14.647-337.894.411-8.605-1.064-14.539-10.246-13.337-18.688h.182c1.174-8.251 8.853-14.105 17.116-13.07 66.382 8.384 134.03 11.77 201.027 10.035 4.141-.106 7.411-3.55 7.304-7.691s-3.569-7.448-7.691-7.303c-45.512 1.172-91.343-.036-136.89-3.602v-40.983c1.635-.126 3.269-.264 4.901-.416 12.739-1.181 22.358-12.761 20.485-25.917l-.042-.29c-1.575-11.072-11.223-20.567-25.345-19.409v-46.851h202.436v46.659c-.222-.02-.444-.039-.666-.06-12.1-1.115-22.91 7.427-24.625 19.471l-.098.688c-1.838 12.916 7.575 24.805 20.651 25.918 1.577.135 3.156.257 4.737.367v41.089c-11.032.838-22.06 1.538-33.045 2.094-4.137.209-7.32 3.732-7.111 7.869s3.74 7.325 7.87 7.111c32.009-1.62 64.372-4.439 96.19-8.378 8.247-1.021 15.906 4.845 17.077 13.064l.066.467c1.211 8.5-4.768 16.34-13.298 17.415z"/></g></svg>