<svg id="Capa_1" enable-background="new 0 0 511.996 511.996" height="512" viewBox="0 0 511.996 511.996" width="512" xmlns="http://www.w3.org/2000/svg"><g><g><path d="m504.496 201.268v202.646c0 38.395-31.125 69.519-69.519 69.519h-357.958c-38.394 0-69.519-31.125-69.519-69.519v-202.646c0-38.394 31.125-69.519 69.519-69.519h357.957c38.395 0 69.52 31.125 69.52 69.519z" fill="#eaf6ff"/><path d="m137.5 403.915v-202.647c0-38.394 31.125-69.519 69.519-69.519h-130c-38.394 0-69.519 31.125-69.519 69.519v202.646c0 38.395 31.125 69.519 69.519 69.519h130c-38.394.001-69.519-31.124-69.519-69.518z" fill="#d8ecfe"/><path d="m442.372 185.291v234.601c0 12.415-10.064 22.479-22.479 22.479h-327.789c-12.415 0-22.479-10.064-22.479-22.479v-234.601c0-12.415 10.064-22.479 22.479-22.479h327.788c12.415-.001 22.48 10.064 22.48 22.479z" fill="#5680a6"/><path d="m149.1 162.811h-56.996c-12.415 0-22.479 10.064-22.479 22.479v234.601c0 12.415 10.064 22.479 22.479 22.479h56.996z" fill="#497090"/><path d="m147.28 147.28h217.436v310.624h-217.436z" fill="#95d6a4" transform="matrix(0 -1 1 0 -46.594 558.589)"/><path d="m100.686 193.874h48.414v217.436h-48.414z" fill="#78c2a4"/><g fill="#5680a6"><path d="m131.748 131.749h-62.125v-10.483c0-11.366 9.214-20.579 20.579-20.579h20.966c11.366 0 20.579 9.214 20.579 20.579v10.483z"/><path d="m69.623 473.434h62.125v10.483c0 11.366-9.214 20.579-20.579 20.579h-20.966c-11.366 0-20.579-9.214-20.579-20.579v-10.483z"/><path d="m162.81 473.434h62.125v10.483c0 11.366-9.214 20.579-20.579 20.579h-20.966c-11.366 0-20.579-9.214-20.579-20.579v-10.483z"/></g><path d="m131.748 411.309h46.593l40.299-80.803 161.606 80.803h31.062v-31.062l-114.766-59.041 60.055-127.332h-46.593l-50.691 108.717-158.627-77.655v46.593l79.366 39.683z" fill="#ffeb99"/><path d="m295.525 7.5c-43.668 0-79.067 35.4-79.067 79.068s79.067 138.368 79.067 138.368 79.068-94.7 79.068-138.368c-.001-43.668-35.4-79.068-79.068-79.068zm0 113.146c-19.601 0-35.491-15.89-35.491-35.491s15.89-35.491 35.491-35.491 35.491 15.89 35.491 35.491c0 19.602-15.89 35.491-35.491 35.491z" fill="#e5646e"/><g><path d="m272.329 112.018c-7.53-6.508-12.296-16.129-12.296-26.863 0-10.248 4.344-19.481 11.29-25.96 8.278-22.434 26.439-40.082 49.201-47.662-7.858-2.617-16.263-4.034-25-4.034-43.668 0-79.067 35.4-79.067 79.068s79.067 138.368 79.067 138.368 11.11-13.306 25-32.243c-16.981-23.15-38.119-54.716-48.195-80.674z" fill="#db4655"/></g><g fill="#ffe477"><path d="m149.1 248.637-48.414-23.701v46.593l48.414 24.207z"/><path d="m131.748 411.309h17.352v-35.957z"/></g></g><g><path d="m434.977 124.249h-63.324c6.594-14.414 11.035-27.771 10.332-42.053-.204-4.136-3.706-7.297-7.861-7.121-4.137.204-7.325 3.724-7.121 7.861 1.702 34.375-49.916 103.259-71.479 130.146-24.301-30.296-71.566-95.603-71.566-126.515 0-39.462 32.104-71.567 71.567-71.567 26.697 0 50.996 14.698 63.415 38.358 1.924 3.668 6.458 5.08 10.126 3.155s5.08-6.459 3.155-10.126c-15.018-28.613-44.407-46.387-76.697-46.387-47.733 0-86.567 38.834-86.567 86.567 0 9.907 3.497 22.504 10.44 37.682h-80.149v-2.982c0-15.483-12.597-28.08-28.08-28.08h-20.965c-15.483 0-28.08 12.597-28.08 28.08v4.442c-33.38 6.619-59.449 35.018-61.929 70.048-.292 4.132 2.82 7.718 6.952 8.011.18.013.359.019.537.019 3.901 0 7.193-3.019 7.474-6.971 2.285-32.28 29.459-57.566 61.862-57.566h149.905c2.774 5.118 5.867 10.473 9.278 16.062h-144.098c-16.53 0-29.979 13.449-29.979 29.979v234.602c0 16.53 13.448 29.979 29.979 29.979h327.789c16.53 0 29.979-13.448 29.979-29.979v-234.602c0-16.53-13.448-29.979-29.979-29.979h-65.046c3.411-5.589 6.504-10.944 9.278-16.062h70.852c34.197 0 62.02 27.822 62.02 62.02v202.646c0 34.197-27.822 62.02-62.02 62.02h-357.957c-34.197 0-62.02-27.822-62.02-62.02v-174.955c0-4.143-3.357-7.5-7.5-7.5s-7.5 3.357-7.5 7.5v174.953c0 37.374 26.758 68.615 62.123 75.573v4.429c0 15.482 12.597 28.079 28.08 28.079h20.965c15.483 0 28.08-12.597 28.08-28.079v-2.983h16.062v2.983c0 15.482 12.597 28.079 28.079 28.079h20.966c15.482 0 28.079-12.597 28.079-28.079v-2.983h202.542c42.469 0 77.02-34.551 77.02-77.02v-202.644c0-42.469-34.551-77.02-77.019-77.02zm-357.854 0v-2.982c0-7.212 5.868-13.08 13.08-13.08h20.965c7.212 0 13.08 5.868 13.08 13.08v2.982zm326.687 77.125v166.581l-97.394-50.104 54.936-116.478h42.458zm-114.051 116.633c-1.725 3.655-.242 8.02 3.353 9.868l110.697 56.948v18.986h-21.792l-106.96-53.48c-3.706-1.854-8.211-.352-10.062 3.354-1.853 3.705-.351 8.21 3.354 10.062l80.128 40.064h-158.013l31.537-63.237 17.08 8.539c3.703 1.855 8.21.352 10.062-3.354 1.853-3.704.351-8.21-3.354-10.062l-23.795-11.896c-3.69-1.847-8.208-.361-10.065 3.36l-38.227 76.65h-30.006l43.111-89.338c1.782-3.693.268-8.134-3.4-9.968l-75.221-37.61v-29.936l147.829 72.37c3.771 1.846 8.322.234 10.096-3.567l35.798-76.777c2.33-2.828 10.887-13.323 21.521-27.61h21.338zm-181.573 85.803v-120.145l61.897 30.949-43.044 89.196zm178.547-177.776-30.988 66.461-147.56-72.239v-18.882h159.435c8.287 11.135 15.313 19.966 19.113 24.66zm133.16-55.722c8.259 0 14.979 6.72 14.979 14.979v234.602c0 8.259-6.72 14.979-14.979 14.979h-327.789c-8.259 0-14.979-6.72-14.979-14.979v-234.602c0-8.26 6.72-14.979 14.979-14.979h153.645c3.59 5.432 7.245 10.765 10.987 16.062h-156.05c-4.143 0-7.5 3.357-7.5 7.5v217.436c0 4.143 3.357 7.5 7.5 7.5h310.624c4.143 0 7.5-3.357 7.5-7.5v-217.436c0-4.143-3.357-7.5-7.5-7.5h-76.996c3.898-5.519 7.529-10.83 10.99-16.066.076.002-4.342.002 74.589.004zm-295.645 313.605c0 7.212-5.868 13.079-13.08 13.079h-20.965c-7.212 0-13.08-5.867-13.08-13.079v-2.983h47.125zm93.187 0c0 7.212-5.867 13.079-13.079 13.079h-20.966c-7.212 0-13.079-5.867-13.079-13.079v-2.983h47.124z"/><path d="m252.533 85.155c0 23.705 19.286 42.991 42.991 42.991s42.991-19.286 42.991-42.991-19.286-42.99-42.991-42.99-42.991 19.285-42.991 42.99zm70.983 0c0 15.435-12.557 27.991-27.991 27.991s-27.991-12.557-27.991-27.991 12.557-27.99 27.991-27.99 27.991 12.557 27.991 27.99z"/></g></g></svg>