<svg id="Capa_1" enable-background="new 0 0 512.042 512.042" height="512" viewBox="0 0 512.042 512.042" width="512" xmlns="http://www.w3.org/2000/svg"><g><g><path d="m267.89 393.505c-2.333-17.478 9.106-33.646 26.341-37.372 15.125-3.269 29.005-10.423 40.176-21.594 36.103-36.103 30.25-100.491-13.074-143.815s-107.712-49.177-143.815-13.074c-11.171 11.171-18.325 25.05-21.594 40.176-3.726 17.235-19.893 28.674-37.372 26.341-32.659-4.359-63.46 3.613-84.849 25.001-43.323 43.324-31.616 125.273 26.148 183.037s139.713 69.472 183.037 26.148c21.389-21.388 29.361-52.19 25.002-84.848z" fill="#e29a6b"/><path d="m83.703 309.169c21.388-21.388 52.19-29.36 84.849-25.001 17.479 2.333 33.646-9.106 37.372-26.341 3.269-15.125 10.423-29.005 21.594-40.176 26.462-26.462 68.121-30.383 105.542-13.531-3.541-4.639-7.452-9.12-11.727-13.395-43.324-43.324-107.712-49.177-143.815-13.074-11.171 11.171-18.325 25.05-21.594 40.176-3.726 17.235-19.893 28.674-37.372 26.341-32.659-4.359-63.46 3.613-84.849 25.001-43.323 43.323-31.616 125.272 26.148 183.036 13.222 13.222 27.712 24.031 42.715 32.319-51.395-57.149-60.299-133.919-18.863-175.355z" fill="#ce845c"/><path d="m283.284 38.505h55.469v325.069h-55.469z" fill="#bf7859" transform="matrix(.707 .707 -.707 .707 233.251 -161.04)"/><path d="m138.873 177.286h325.069v28.284h-325.069z" fill="#ba6a4f" transform="matrix(.707 -.707 .707 .707 -47.08 269.195)"/><circle cx="203.666" cy="308.391" fill="#eaf6ff" r="55.469"/><path d="m184.444 289.169c18.206-18.206 45.918-21.109 67.157-8.713-2.353-4.032-5.257-7.831-8.713-11.287-21.662-21.662-56.783-21.662-78.444 0s-21.662 56.783 0 78.444c3.456 3.456 7.255 6.36 11.287 8.713-12.396-21.239-9.493-48.952 8.713-67.157z" fill="#d8ecfe"/><path d="m458.873 14.488 38.696 38.696c10.404 10.404 8.975 27.659-2.997 36.211l-52.235 37.31c-9.471 6.765-22.445 5.691-30.675-2.539l-23.772-23.772c-8.23-8.23-9.304-21.204-2.539-30.675l37.31-52.235c8.553-11.972 25.809-13.4 36.212-2.996z" fill="#e29a6b"/><path d="m407.891 120.394c-8.23-8.23-9.304-21.204-2.539-30.675l37.31-52.234c8.552-11.972 25.807-13.4 36.211-2.997l18.698 18.698-.002-.002-38.696-38.696c-10.404-10.404-27.659-8.976-36.211 2.997l-37.31 52.234c-6.765 9.471-5.691 22.445 2.539 30.675l23.772 23.772c.002.002.003.003.005.004z" fill="#ce845c"/><path d="m147.186 430.764-65.893-65.893c-6.065-6.065-6.065-15.899 0-21.964 6.065-6.065 15.899-6.065 21.964 0l65.893 65.893c6.065 6.065 6.065 15.899 0 21.964-6.065 6.065-15.899 6.065-21.964 0z" fill="#bf7859"/><path d="m111.293 372.906c6.065-6.065 15.899-6.065 21.964 0l-30-30c-6.065-6.065-15.899-6.065-21.964 0-6.065 6.065-6.065 15.899 0 21.964l29.998 29.998c-6.063-6.065-6.062-15.897.002-21.962z" fill="#ba6a4f"/></g><g><path d="m344.032 323.479c-3.184-2.647-7.913-2.213-10.562.971-10.572 12.712-24.977 20.927-40.824 24.353-21.217 4.586-35.056 24.23-32.191 45.695 4.228 31.679-3.894 59.577-22.871 78.553-43.747 43.748-132.814 26.42-187.452-43.059-2.562-3.257-7.277-3.819-10.532-1.259-3.256 2.561-3.82 7.276-1.259 10.532 58.834 74.809 158.217 96.025 209.85 44.393 22.357-22.357 31.993-54.726 27.132-91.144-1.821-13.642 6.989-26.13 20.492-29.049 19.133-4.136 36.467-14.128 49.188-29.423 2.649-3.186 2.214-7.915-.971-10.563z"/><path d="m502.872 47.88-38.696-38.695c-13.661-13.662-36.361-11.818-47.617 3.94l-1.742-1.003c-2.929-2.929-7.678-2.929-10.606 0-2.929 2.929-2.929 7.678 0 10.606l3.202 3.202-12.951 18.132-1.585-1.585c-2.929-2.929-7.678-2.929-10.606 0-2.929 2.929-2.929 7.678 0 10.606l3.352 3.352c-2.865 5.281-14.57 14.876-11.851 32.02l-75.226 75.226c-63.721-37.214-136.092-11.568-149.952 52.559-2.919 13.503-15.406 22.311-29.049 20.492-98.255-13.119-150.68 79.044-99.771 174.188 1.957 3.658 6.507 5.026 10.151 3.075 3.652-1.954 5.029-6.499 3.075-10.151-44.673-83.49-2.297-163.832 84.561-152.244 21.465 2.866 41.109-10.974 45.695-32.191 3.047-14.097 9.813-26.704 19.566-36.457 27.338-27.338 70.306-26.815 104.71-8.256l-71.893 71.893c-28.734-5.522-57.098 9.303-69.145 35.378-1.737 3.76-.097 8.217 3.663 9.954 3.761 1.736 8.216.097 9.954-3.663 13.937-30.161 53.888-37.375 77.476-13.788 30.03 30.03 8.698 81.888-33.919 81.888-24.023 0-43.488-17.488-47.29-39.899-.693-4.083-4.562-6.829-8.649-6.14-4.084.693-6.833 4.565-6.14 8.649 4.981 29.36 30.478 52.391 62.079 52.391 39.368 0 69.321-35.802 61.8-74.94l71.901-71.901c12.882 23.74 16.605 49.834 10.16 72.884-1.337 4.781 2.264 9.522 7.227 9.522 3.28 0 6.292-2.168 7.219-5.482 7.855-28.088 2.885-59.791-13.596-87.933l75.224-75.224c17.104 2.712 26.707-8.953 32.02-11.851 2.298 1.889 4.091 5.488 8.594 5.488 6.622 0 10.042-8.066 5.303-12.803l-1.523-1.523 18.132-12.951c2.254 1.844 3.962 5.337 8.444 5.337 1.919 0 3.839-.732 5.303-2.197 2.929-2.929 2.929-7.678 0-10.606l-.942-1.681c15.72-11.231 17.633-33.923 3.938-47.618zm-135.78 125.701-28.616-28.616 15.542-15.542 28.616 28.616zm-52.296 52.296-28.616-28.616 15.542-15.542 28.616 28.616zm-26.148 26.148-28.616-28.616 15.542-15.542 28.616 28.616zm52.296-52.296-28.616-28.616 15.542-15.542 28.616 28.616zm-109.418 52.186 17.9-17.9 28.616 28.616-17.9 17.9c-6.093-12.376-16.213-22.51-28.616-28.616zm161.714-104.482-28.616-28.616 15.672-15.672c1.934 2.402 26.787 27.143 28.616 28.616zm44.738-26.831c-6.525 4.661-15.363 3.911-21.012-1.739l-23.772-23.772c-5.648-5.648-6.401-14.486-1.739-21.012 31.952-44.715 36.678-51.35 37.311-52.235 5.852-8.193 17.671-9.186 24.804-2.053l38.696 38.696c7.117 7.117 6.157 18.94-2.053 24.804-34.67 24.765-19.729 14.092-52.235 37.311z"/><path d="m174.454 436.067c8.979-8.98 8.979-23.591 0-32.571l-65.893-65.894c-8.98-8.978-23.591-8.979-32.571 0-9 9-9.002 23.569 0 32.571l65.893 65.893c9 9.001 23.568 9.003 32.571.001zm-87.858-76.5c-3.138-3.137-3.139-8.219 0-11.357 3.13-3.13 8.226-3.132 11.358 0l65.893 65.893c3.131 3.131 3.131 8.227 0 11.358-3.137 3.137-8.219 3.14-11.357 0z"/></g></g></svg>