<svg id="Capa_1" enable-background="new 0 0 510.835 510.835" height="512" viewBox="0 0 510.835 510.835" width="512" xmlns="http://www.w3.org/2000/svg"><g><g><path d="m412.209 187.271h-313.583l19.361-123.475c5.03-32.076 32.664-55.716 65.133-55.716h144.596c32.468 0 60.103 23.639 65.133 55.716z" fill="#e29a6b"/><path d="m253.119 8.08h-70c-32.468 0-60.103 23.639-65.133 55.716l-19.36 123.475h70l19.361-123.475c5.029-32.077 32.664-55.716 65.132-55.716z" fill="#ce845c"/><circle cx="255.418" cy="61.278" fill="#95d6a4" r="23.297"/><path d="m109.858 115.637h291.119l4.882 31.063h-300.872z" fill="#ffeb99"/><path d="m109.858 115.637-4.871 31.063h70l4.871-31.063z" fill="#ffe477"/><circle cx="255.417" cy="447.879" fill="#e29a6b" r="19.345"/><path d="m460.231 261.506h-409.627c-10.59 0-19.175-8.585-19.175-19.175 0-6.411 3.204-12.398 8.539-15.955l58.658-39.105h313.584l58.658 39.105c5.335 3.556 8.539 9.543 8.539 15.955-.001 10.59-8.586 19.175-19.176 19.175z" fill="#e29a6b"/><path d="m470.867 226.376-58.658-39.105h-313.583l-58.241 38.827c-5.279 3.52-8.761 9.313-8.947 15.655-.319 10.854 8.384 19.753 19.167 19.753h70c-18.971 0-26.32-24.674-10.636-35.13 8.906-5.937 19.369-9.105 30.072-9.105h292.169l46.301 30.867c2.549-8.031-.446-16.963-7.644-21.762z" fill="#ce845c"/></g><g><path d="m286.213 60.698c0-16.981-13.815-30.797-30.797-30.797s-30.796 13.816-30.796 30.797c0 16.98 13.815 30.796 30.797 30.796s30.796-13.815 30.796-30.796zm-46.593 0c0-8.71 7.087-15.797 15.797-15.797s15.797 7.087 15.797 15.797-7.087 15.796-15.797 15.796c-8.711 0-15.797-7.086-15.797-15.796z"/><path d="m475.026 219.556-55.918-37.279c-5.684-36.247-1.472-9.488-18.851-120.224-2.709-17.278-11.521-33.055-24.811-44.423-13.29-11.369-30.242-17.63-47.732-17.63h-144.595c-25.718 0-49.885 13.721-63.068 35.808-2.124 3.557-.961 8.16 2.596 10.283 3.555 2.125 8.161.961 10.283-2.596 10.491-17.576 29.723-28.495 50.189-28.495h144.596c28.961 0 53.237 20.766 57.724 49.377l6.771 43.18h-273.586l5.34-34.057c.642-4.093-2.155-7.93-6.247-8.571-4.1-.642-7.93 2.155-8.571 6.247-2.627 16.753-15.576 99.338-17.421 111.101l-55.917 37.278c-21.929 14.616-11.463 48.871 14.795 48.871h11.083c3.586 93.84 74.174 172.002 167.502 184.614.652 2.984 1.803 5.784 3.36 8.308l-33.516 36.948c-2.783 3.068-2.553 7.812.516 10.594 3.082 2.795 7.824 2.54 10.594-.516l33.513-36.946c7.258 3.551 15.974 3.694 23.522 0l33.513 36.946c2.773 3.058 7.515 3.308 10.594.516 3.068-2.782 3.299-7.525.516-10.594l-33.516-36.948c1.557-2.525 2.708-5.325 3.36-8.31 92.429-12.514 163.867-89.954 167.5-184.612h11.085c26.251 0 36.734-34.249 14.797-48.87zm-80.466-96.999 2.519 16.062h-53.454c-4.143 0-7.5 3.357-7.5 7.5s3.357 7.5 7.5 7.5h55.806l4.01 25.571h-296.049l4.01-25.571h199.537c4.143 0 7.5-3.357 7.5-7.5s-3.357-7.5-7.5-7.5h-197.185l2.519-16.062zm-150.989 324.742c0-6.531 5.314-11.846 11.846-11.846 6.043 0 11.043 4.55 11.758 10.403-.035.579-.003 1.131.085 1.672-.123 6.426-5.388 11.616-11.843 11.616-6.532.001-11.846-5.314-11.846-11.845zm216.659-193.873h-228.262c-4.143 0-7.5 3.357-7.5 7.5s3.357 7.5 7.5 7.5h202.165c-3.619 86.956-69.139 157.707-153.518 169.612-8.625-23.392-41.774-23.393-50.398.001-85.417-12.021-149.957-83.621-153.519-169.613h122.584c4.143 0 7.5-3.357 7.5-7.5s-3.357-7.5-7.5-7.5h-148.679c-11.49 0-16.076-14.991-6.476-21.39l56.768-37.846h309.043l56.769 37.847c9.575 6.381 5.037 21.389-6.477 21.389z"/></g></g></svg>