<svg id="Capa_1" enable-background="new 0 0 512.175 512.175" height="512" viewBox="0 0 512.175 512.175" width="512" xmlns="http://www.w3.org/2000/svg"><g><g><g><path d="m457.992 504.675c-8.578 0-15.531-6.953-15.531-15.531v-357.216h31.062v357.216c0 8.578-6.953 15.531-15.531 15.531z" fill="#e29a6b"/><path d="m462.461 489.144v-357.216h-20v357.216c0 8.578 6.953 15.531 15.531 15.531 3.809 0 7.298-1.371 10-3.647-3.382-2.849-5.531-7.115-5.531-11.884z" fill="#ce845c"/><path d="m442.461 256.177h31.062v93.187h-31.062z" fill="#eaf6ff"/><path d="m442.461 256.177h20v93.187h-20z" fill="#d8ecfe"/><path d="m473.523 131.928h-31.062l-17.352-17.352c-8.778-8.778-13.71-20.684-13.71-33.099v-54.737c0-10.527 8.534-19.061 19.061-19.061h55.065c10.527 0 19.061 8.534 19.061 19.061v54.737c0 12.415-4.932 24.321-13.71 33.099z" fill="#e5646e"/><path d="m431.399 81.477v-54.737c0-10.527 8.534-19.061 19.061-19.061h-20c-10.527 0-19.061 8.534-19.061 19.061v54.737c0 12.414 4.932 24.32 13.71 33.099l17.352 17.352h20l-17.352-17.352c-8.778-8.778-13.71-20.684-13.71-33.099z" fill="#db4655"/></g><g><path d="m54.183 504.675c-8.578 0-15.531-6.953-15.531-15.531v-357.216h31.062v357.216c0 8.578-6.953 15.531-15.531 15.531z" fill="#e29a6b"/><path d="m58.652 489.144v-357.216h-20v357.216c0 8.578 6.954 15.531 15.531 15.531 3.809 0 7.298-1.371 10-3.647-3.382-2.849-5.531-7.115-5.531-11.884z" fill="#ce845c"/><path d="m38.652 256.177h31.062v93.187h-31.062z" fill="#eaf6ff"/><path d="m38.652 256.177h20v93.187h-20z" fill="#d8ecfe"/><path d="m69.714 131.928h-31.062l-17.352-17.352c-8.778-8.778-13.71-20.684-13.71-33.099v-54.737c0-10.527 8.534-19.061 19.061-19.061h55.065c10.527 0 19.061 8.534 19.061 19.061v54.737c0 12.415-4.932 24.321-13.71 33.099z" fill="#e5646e"/><path d="m27.59 81.477v-54.737c0-10.527 8.534-19.061 19.061-19.061h-20c-10.527 0-19.061 8.534-19.061 19.061v54.737c0 12.414 4.932 24.32 13.71 33.099l17.352 17.352h20l-17.352-17.352c-8.779-8.778-13.71-20.684-13.71-33.099z" fill="#db4655"/></g><g><path d="m376.512 504.675h-240.85c-19.267 0-34.887-15.619-34.887-34.887v-243.817c0-124.31 69.535-218.292 155.311-218.292 85.776 0 155.311 93.982 155.311 218.292v243.818c.002 19.267-15.617 34.886-34.885 34.886z" fill="#95d6a4"/><path d="m180.776 469.789v-243.818c0-104.267 48.92-187.197 115.311-211.229-12.762-4.62-26.17-7.063-40-7.063-85.776 0-155.311 93.982-155.311 218.292v243.818c0 19.267 15.619 34.887 34.886 34.887h80c-19.266-.001-34.886-15.62-34.886-34.887z" fill="#78c2a4"/><path d="m329.829 473.615h-147.573c-19.267 0-34.887-15.619-34.887-34.887v-198.875c0-92.391 48.654-154.517 108.673-154.517 60.018 0 108.673 62.126 108.673 154.517v198.876c0 19.267-15.619 34.886-34.886 34.886z" fill="#eaf6ff"/><path d="m180.724 438.729v-198.876c0-83.662 39.894-142.506 91.996-152.88-5.437-1.082-11.006-1.638-16.677-1.638-60.018 0-108.673 62.126-108.673 154.517v198.876c0 19.267 15.619 34.887 34.887 34.887h33.354c-19.268 0-34.887-15.619-34.887-34.886z" fill="#d8ecfe"/><path d="m325.539 473.615h-138.993v-31.994c0-16.642 13.491-30.132 30.132-30.132h78.728c16.642 0 30.132 13.491 30.132 30.132v31.994z" fill="#e5646e"/><path d="m246.679 411.489h-30c-16.642 0-30.132 13.491-30.132 30.132v31.994h30v-31.994c-.001-16.642 13.49-30.132 30.132-30.132z" fill="#db4655"/><path d="m193.963 147.392c0 12.319 9.987 22.306 22.306 22.306h79.637c12.319 0 22.306-9.987 22.306-22.306v-36.22c-17.616-16.617-39.049-25.836-62.17-25.836-23.081 0-44.48 9.188-62.079 25.751z" fill="#e5646e"/><path d="m223.963 147.392v-22.012c0-9.817 4.731-19.118 12.859-24.623 10.532-7.133 22.055-11.932 34.22-14.1-4.903-.874-9.911-1.321-15-1.321-23.081 0-44.48 9.188-62.079 25.751v36.305c0 12.319 9.987 22.306 22.306 22.306h30c-12.319 0-22.306-9.987-22.306-22.306z" fill="#db4655"/><path d="m256.37 38.742c10.263 0 18.583-8.32 18.583-18.583 0-4.356-1.499-8.361-4.009-11.53-4.89-.629-9.845-.95-14.856-.95-4.797 0-9.543.294-14.229.871-2.547 3.181-4.071 7.216-4.071 11.608-.001 10.264 8.319 18.584 18.582 18.584z" fill="#e5646e"/></g></g><g><path d="m485.525.179h-55.065c-14.646 0-26.561 11.915-26.561 26.561v54.737c0 14.506 5.649 28.145 15.906 38.401l15.155 15.156v54.98c0 4.143 3.357 7.5 7.5 7.5s7.5-3.357 7.5-7.5v-50.586h16.062v109.249h-16.062v-25.977c0-4.143-3.357-7.5-7.5-7.5s-7.5 3.357-7.5 7.5v266.444c0 12.699 10.332 23.031 23.031 23.031s23.031-10.332 23.031-23.031v-354.109l15.156-15.155c10.257-10.258 15.906-23.896 15.906-38.403v-54.737c.002-14.646-11.913-26.561-26.559-26.561zm-19.502 488.965c0 4.429-3.603 8.031-8.031 8.031s-8.031-3.603-8.031-8.031v-132.28h16.062zm0-147.28h-16.062v-78.187h16.062zm31.063-260.387c0 10.5-4.089 20.372-11.513 27.796l-15.156 15.155h-24.85l-15.154-15.156c-7.425-7.424-11.514-17.295-11.514-27.795v-54.737c0-6.375 5.187-11.561 11.561-11.561h55.065c6.374 0 11.561 5.186 11.561 11.561z"/><path d="m108.276 26.74c0-14.646-11.915-26.561-26.561-26.561h-55.065c-14.645 0-26.56 11.915-26.56 26.561v54.737c0 14.506 5.649 28.145 15.906 38.402l15.156 15.156v244.579c0 4.143 3.357 7.5 7.5 7.5s7.5-3.357 7.5-7.5v-22.751h16.062v132.28c0 4.429-3.603 8.031-8.031 8.031s-8.031-3.603-8.031-8.031v-76.843c0-4.143-3.357-7.5-7.5-7.5s-7.5 3.357-7.5 7.5v76.843c0 12.699 10.332 23.031 23.031 23.031s23.031-10.332 23.031-23.031v-354.107l15.156-15.156c10.257-10.258 15.906-23.896 15.906-38.403zm-46.061 315.124h-16.063v-78.187h16.062v78.187zm0-93.187h-16.063v-109.249h16.062v109.249zm31.061-167.2c0 10.5-4.089 20.372-11.514 27.796l-15.154 15.155h-24.85l-15.155-15.156c-7.425-7.424-11.514-17.295-11.514-27.795v-54.737c0-6.375 5.187-11.561 11.561-11.561h55.065c6.374 0 11.561 5.186 11.561 11.561z"/><path d="m348.92 49.614c-3.094 2.756-3.367 7.496-.612 10.589 35.329 39.66 55.592 100.08 55.592 165.769v243.817c0 15.102-12.285 27.387-27.387 27.387h-240.85c-15.102 0-27.387-12.285-27.387-27.387v-243.818c0-105.656 51.876-190.849 122.083-207.743-1.129 15.052 10.833 28.013 26.011 28.013 15.052 0 27.029-12.782 26.025-27.803 15.144 3.781 29.781 10.806 43.238 20.843 3.322 2.477 8.021 1.793 10.496-1.527 2.477-3.32 1.793-8.02-1.527-10.496-104.388-77.86-241.326 18.089-241.326 198.713v243.817c0 23.372 19.015 42.387 42.387 42.387h240.85c23.372 0 42.387-19.015 42.387-42.387v-243.817c0-69.318-21.647-133.375-59.391-175.745-2.756-3.094-7.497-3.368-10.589-.612zm-102.671-33.99c6.608-.597 13.399-.606 20.27.066 3.218 7.281-2.146 15.553-10.149 15.553-8.073-.001-13.38-8.374-10.121-15.619z"/><path d="m139.87 239.853v198.876c0 23.371 19.015 42.386 42.387 42.386h147.572c23.372 0 42.387-19.015 42.387-42.386v-198.876c0-45.47-11.812-86.777-33.261-116.312-67.066-92.354-199.085-41.474-199.085 116.312zm61.593-125.449c31.906-28.157 75.949-29.38 109.25.079v32.91c0 8.164-6.643 14.806-14.807 14.806h-79.637c-8.164 0-14.807-6.642-14.807-14.806v-32.989zm101.416 61.97v228.361c-6.297-1.274-8.833-.533-39.336-.746v-226.791c32.087-.247 33.486.583 39.336-.824zm-54.336.824v226.791c-30.435.212-33.037-.529-39.337.746v-228.383c5.932 1.447 7.793.596 39.337.846zm-69.496 264.423v24.307c-13.594-1.594-24.177-13.184-24.177-27.198v-198.877c0-38.113 8.972-79.019 31.593-109.115 1.033 11.05-3.456 24.343 7.743 36.674v244.042c-9.195 6.867-15.159 17.834-15.159 30.167zm138.992 24.494h-123.992v-24.494c0-14.94 12.513-20.131 12.735-20.351 8.239-4.023 8.104-1.51 88.624-2.281 12.479 0 22.633 10.152 22.633 22.632zm39.177-226.262v198.876c0 14.015-10.583 25.604-24.177 27.198v-24.307c0-12.333-5.964-23.3-15.16-30.168v-243.941c4.863-5.306 7.834-12.372 7.834-20.119v-16.534c22.619 30.17 31.503 71.072 31.503 108.995z"/></g></g></svg>