<svg id="Capa_1" enable-background="new 0 0 512.11 512.11" height="512" viewBox="0 0 512.11 512.11" width="512" xmlns="http://www.w3.org/2000/svg"><g><g><path d="m7.506 504.609c39.229-282.719 214.39-457.879 497.108-497.109s-.006.044-.018.13c-39.229 282.616-214.345 457.732-496.96 496.96-.087.013-.13.019-.13.019z" fill="#ffb124"/><path d="m502.228 23.528c.838-5.261 1.627-10.56 2.368-15.898.012-.086.018-.13.018-.13-282.718 39.23-457.879 214.39-497.109 497.108s.044-.006.13-.018c28.524-3.959 55.952-9.303 82.256-16.002 39.062-245.158 182.951-406.622 412.337-465.06z" fill="#ff901d"/><path d="m221.315 356.107-65.29-65.29c-12.99-12.99-12.99-34.051 0-47.042l55.111-55.111c31.019-31.019 81.312-31.019 112.331 0 31.019 31.019 31.019 81.312 0 112.331l-55.111 55.111c-12.99 12.991-34.051 12.991-47.041.001z" fill="#eaf6ff"/><path d="m204.545 292.298c-12.99-12.99-12.99-34.051 0-47.042l55.111-55.111c9.869-9.869 21.69-16.598 34.22-20.187-27.963-9.903-60.365-3.667-82.739 18.707l-55.111 55.111c-12.99 12.99-12.99 34.051 0 47.042l65.29 65.29c12.99 12.99 34.05 12.99 47.04.001z" fill="#d8ecfe"/><path d="m221.315 356.107-65.598-65.598 9.819-9.819c7.543-7.543 19.772-7.543 27.315 0l38.283 38.283c7.543 7.543 7.543 19.772 0 27.315z" fill="#5680a6"/><path d="m222.851 310.691-30-30c-7.543-7.543-19.772-7.543-27.315 0l-9.819 9.819 30 30 9.819-9.819c7.543-7.543 19.772-7.543 27.315 0z" fill="#497090"/><circle cx="390.866" cy="121.309" fill="#eaf6ff" r="31.803"/><path d="m388.378 143.798c-12.42-12.42-12.42-32.556 0-44.976 3.632-3.631 7.923-6.201 12.488-7.708-11.048-3.649-23.7-1.08-32.488 7.708-12.42 12.42-12.42 32.556 0 44.976 8.788 8.788 21.44 11.358 32.488 7.708-4.565-1.508-8.856-4.077-12.488-7.708z" fill="#d8ecfe"/><circle cx="121.315" cy="390.861" fill="#eaf6ff" r="31.803"/><path d="m118.827 413.349c-12.42-12.42-12.42-32.556 0-44.976 3.632-3.632 7.923-6.201 12.488-7.708-11.048-3.649-23.7-1.08-32.488 7.708-12.42 12.42-12.42 32.556 0 44.976 8.788 8.788 21.44 11.357 32.488 7.708-4.565-1.507-8.857-4.077-12.488-7.708z" fill="#d8ecfe"/></g><g><path d="m133.259 111.18-22.073 22.073h-44.146l-54.712-54.712c-6.355-6.355-6.355-16.658 0-23.013l43.205-43.205c6.355-6.355 16.658-6.355 23.013 0l54.712 54.712v44.145z" fill="#5680a6"/><path d="m101.547 111.18c-7.956 0-15.587-3.161-21.213-8.787l-45.925-45.925c-6.355-6.355-6.355-16.658 0-23.013l-22.081 22.073c-6.355 6.355-6.355 16.658 0 23.013l54.712 54.712h44.146l22.073-22.073z" fill="#497090"/><path d="m378.861 400.928 22.073-22.073h44.146l54.712 54.712c6.355 6.355 6.355 16.658 0 23.013l-43.205 43.205c-6.355 6.355-16.658 6.355-23.013 0l-54.712-54.712v-44.145z" fill="#5680a6"/><path d="m478.566 477.806c-6.355 6.355-16.658 6.355-23.013 0l-54.712-54.712v-44.146l.093-.093-22.073 22.073v44.146l54.712 54.712c6.355 6.355 16.658 6.355 23.013 0z" fill="#497090"/><path d="m240.452 66.78h31.216v378.55h-31.216z" fill="#e29a6b" transform="matrix(.707 -.707 .707 .707 -106.06 256.058)"/><path d="m175.964 153.885-42.705-42.705-22.073 22.073 42.749 42.75z" fill="#ce845c"/></g></g><g><path d="m450.383 373.552c-1.406-1.407-3.314-2.197-5.303-2.197h-41.039l-35.389-35.389c76.656-84.078 124.88-194.137 143.363-327.227.012-.079.022-.158.031-.238.628-5.194-3.756-9.081-8.463-8.43-84.295 11.697-160.157 35.634-225.48 71.147-3.639 1.979-4.985 6.533-3.007 10.171 1.978 3.639 6.532 4.985 10.171 3.007 57.912-31.484 124.427-53.658 197.991-66.034l-70.375 70.375c-14.921-10.131-35.971-9.057-49.807 4.78-13.52 13.52-15.112 34.521-4.775 49.802l-35.006 35.005c-31.884-26.937-79.466-27.607-112.147.137l-24.363-24.361c22.023-20.01 46.193-38.243 71.933-54.253 3.517-2.188 4.595-6.812 2.407-10.33-2.188-3.517-6.811-4.595-10.33-2.407-26.715 16.617-51.795 35.563-74.629 56.372l-35.407-35.407v-41.04c0-1.989-.79-3.897-2.197-5.303l-54.712-54.713c-4.49-4.49-10.46-6.963-16.81-6.963s-12.32 2.473-16.81 6.963l-43.205 43.206c-9.269 9.269-9.269 24.351 0 33.62l54.712 54.712c1.406 1.407 3.314 2.197 5.303 2.197h41.04l35.407 35.407c-76.692 84.112-124.929 194.224-143.41 327.417-.684 4.927 3.541 9.124 8.431 8.463l.155-.021c.024-.003.048-.006.071-.01 133.112-18.488 243.163-66.709 327.237-143.364l35.389 35.389v41.039c0 1.989.79 3.897 2.197 5.303l54.712 54.712c9.29 9.29 24.328 9.292 33.62 0l10.765-10.765c2.929-2.929 2.929-7.678 0-10.606-2.929-2.929-7.678-2.929-10.606 0l-10.765 10.765c-3.428 3.427-8.977 3.429-12.406 0l-52.516-52.515v-37.933l17.68-17.68h37.933l52.515 52.516c3.428 3.427 3.428 8.976 0 12.406l-10.046 10.046c-2.929 2.929-2.929 7.678 0 10.606 2.929 2.929 7.678 2.929 10.606 0l10.046-10.046c9.29-9.29 9.292-24.328 0-33.619zm-116.716-72.57c27.291-32.207 27.365-79.749.223-112.039l35.021-35.021c15.117 10.223 36.086 8.839 49.746-4.821 13.502-13.502 15.107-34.465 4.816-49.741l70.241-70.241c-20.126 119.725-65.704 219.255-135.682 296.229zm40.015-196.858c9.497-9.497 24.871-9.499 34.37 0 9.476 9.476 9.476 24.894 0 34.37-9.497 9.497-24.871 9.499-34.37 0-9.476-9.476-9.476-24.894 0-34.37zm-55.464 89.897c26.271 26.326 27.871 68.103 4.799 96.31l-101.216-101.215c27.608-22.582 69.312-22.065 96.417 4.905zm-300.587-120.783c-3.428-3.429-3.428-8.977 0-12.407l43.206-43.206c3.42-3.42 8.985-3.42 12.407 0l52.515 52.515v37.933l-17.679 17.679h-37.933zm160.629 137.696-27.539 27.539c-16.104 16.105-15.577 42.071-.308 57.34 9.889 9.889 17.085 17.085 27.697 27.697l-34.785 34.785c-15.282-10.337-36.283-8.745-49.802 4.775-13.838 13.837-14.911 34.887-4.78 49.807l-70.381 70.381c20.116-119.842 65.713-219.452 135.742-296.479zm47.571 130.051-4.516 4.516c-6.282-6.282-49.141-49.141-54.991-54.991l4.516-4.516c4.607-4.607 12.102-4.606 16.708 0l38.282 38.283c4.607 4.606 4.607 12.101.001 16.708zm-121.701 32.691c9.476-9.476 24.894-9.476 34.37 0 9.497 9.497 9.499 24.871 0 34.37-9.476 9.476-24.895 9.476-34.37 0-9.497-9.498-9.499-24.871 0-34.37zm-75.004 120.031 70.239-70.239c15.209 10.246 36.182 8.744 49.741-4.816 13.645-13.645 15.055-34.614 4.821-49.746l34.79-34.79 27.294 27.294c7.699 7.699 17.936 11.939 28.824 11.939s21.125-4.24 28.824-11.939l27.538-27.538 24.156 24.156c-76.957 69.964-176.47 115.538-296.227 135.679zm349.735-103.385c-15.662-15.662-129.381-129.381-142.857-142.857-2.929-2.93-7.678-2.929-10.606 0-2.929 2.929-2.929 7.678 0 10.606l65.194 65.194-27.538 27.538c-8.201 8.202-20.602 9.706-30.344 4.516l3.728-3.728c10.455-10.455 10.455-27.466 0-37.921l-38.283-38.283c-10.455-10.455-27.466-10.454-37.921 0l-3.632 3.632c-4.936-9.68-3.361-21.851 4.727-29.94l27.539-27.539 14.597 14.597c2.929 2.929 7.678 2.929 10.606 0 2.929-2.929 2.929-7.678 0-10.606-.187-.187-89.698-89.698-92.277-92.277l11.466-11.466 257.069 257.068z"/></g></svg>