<svg id="Capa_1" enable-background="new 0 0 511.998 511.998" height="512" viewBox="0 0 511.998 511.998" width="512" xmlns="http://www.w3.org/2000/svg"><g><g><path d="m504.497 7.502-190.054 3.022-128.379 284.672 296.2-98.92z" fill="#eaf6ff"/><path d="m383.484 60.221 115.019-1.829 5.994-50.89-190.055 3.021-128.378 284.673 85.412-28.524 85.137-188.787c4.779-10.597 15.249-17.479 26.871-17.664z" fill="#d8ecfe"/><g fill="#e5646e"><g><path d="m192.204 377.257-36.405-43.267 55.084 12.77z"/><path d="m119.393 290.723 36.406 43.267-55.085-12.77z"/></g><g><path d="m193.889 504.498-36.465-43.217 55.102 12.696z"/><path d="m120.96 418.064 36.464 43.217-55.101-12.695z"/></g><circle cx="25.383" cy="451.816" r="17.881"/></g></g><path d="m504.403.003c-.031 0-.062.001-.093.001-142.304 2.269-190.132 3.007-190.657 3.061-41.493 8.693-14.081 2.95-23.818 4.99-13.374 2.823-24.269 12.666-28.431 25.687-3.191 9.979-12.747 16.574-23.19 16.047l-26.974-1.367c-4.149-.229-7.661 2.973-7.87 7.11-.21 4.137 2.974 7.66 7.11 7.87 28.779 1.443 27.231 1.417 28.914 1.417 16.48 0 31.235-10.674 36.297-26.509 5.296-16.562 22.66-16.099 25.838-17.394l-121.656 269.766c-4.58 4.617-16.138 12.487-25.791 29.618l-28.95-34.406c-3.292-3.913-9.462-3.452-12.134.912l-18.679 30.497c-2.671 4.36-.283 10.067 4.702 11.224l47.01 10.898c-11.461 39.276 7.327 67.408 8.946 73.27 4.962 11.442 5.093 24.031.955 35.187l-29.239-34.654c-3.314-3.925-9.477-3.422-12.133.929l-18.638 30.521c-2.664 4.362-.27 10.068 4.717 11.217l43.33 9.983c-14.213 13.327-35.026 16.667-52.81 8.07l-40.522-19.583c.708-7.104-1.52-14.14-6.421-19.564-15.241-16.869-43.049-6.612-44.182 15.729-.343 6.771 1.971 13.271 6.515 18.3 5.003 5.539 11.911 8.355 18.846 8.355 7.707 0 14.672-3.435 19.384-8.992l39.853 19.26c8.676 4.192 17.938 6.242 27.125 6.242 17.494 0 34.144-7.42 45.97-20.426l30.431 36.066c3.314 3.927 9.477 3.422 12.133-.929l18.637-30.521c2.664-4.363.27-10.068-4.717-11.217l-45.457-10.473c6.691-15.439 6.988-33.32-.014-49.467-2.014-6.626-16.064-26.965-9.753-57.301l27.48 32.659c3.288 3.908 9.457 3.461 12.134-.912l18.679-30.496c2.671-4.36.283-10.067-4.702-11.224l-46.04-10.674c8.401-15.515 18.916-22.452 23.391-26.967l190.214-63.524c3.929-1.312 6.05-5.562 4.738-9.49-1.312-3.929-5.563-6.048-9.489-4.738l-157.693 52.664 36.913-33.35c3.074-2.777 3.314-7.52.537-10.594-2.776-3.073-7.52-3.312-10.593-.537l-36.914 33.351 110.304-244.594c12.97 7.302 25.552 15.442 37.494 24.261 3.316 2.449 8.018 1.769 10.489-1.578 2.46-3.332 1.754-8.027-1.578-10.488-7.396-5.462-15.028-10.674-22.84-15.601l143.147-2.276-69.63 62.908c-7.837-8.352-16.052-16.343-24.614-23.93-3.101-2.747-7.841-2.461-10.587.64-2.747 3.1-2.461 7.84.639 10.587 8.148 7.22 15.967 14.82 23.431 22.761l-135.6 122.51c-3.074 2.777-3.314 7.52-.537 10.594 2.776 3.073 7.519 3.314 10.593.537l135.589-122.5c23.893 27.624 43.655 58.878 58.253 92.308l-65.8 21.974c-3.929 1.312-6.05 5.562-4.738 9.49 1.312 3.929 5.56 6.048 9.49 4.738l59.471-19.861-2.675 8.366c-2.525 7.896-9.132 13.865-17.243 15.578-16.902 3.568-29.318 18.111-30.193 35.364l-1.368 26.974c-.21 4.137 2.974 7.66 7.11 7.87.129.007.258.01.386.01 3.967 0 7.281-3.112 7.484-7.12l1.368-26.974c.531-10.464 8.061-19.283 18.311-21.448 13.374-2.823 24.268-12.666 28.431-25.686 7.448-23.313 7.368-22.731 7.495-23.969 22.73-192.986 22.217-188.592 22.239-188.826.428-4.475-3.206-8.333-7.56-8.211zm-479.546 462.181c-5.729-.291-10.133-5.162-9.842-10.894.281-5.558 4.864-9.851 10.362-9.851 5.9 0 10.677 4.919 10.373 10.902-.286 5.665-5.068 10.11-10.893 9.843zm175.845 16.766-7.792 12.76-15.244-18.067zm-86.555-35.336 7.792-12.76 15.244 18.067zm84.905-91.898-7.809 12.749-15.219-18.088zm-86.507-35.452 7.809-12.75 15.22 18.088zm382.169-289.815-16.749 142.207c-14.195-28.49-32.036-55.215-52.892-79.288z"/></g></svg>