<svg id="Capa_1" enable-background="new 0 0 511.896 511.896" height="512" viewBox="0 0 511.896 511.896" width="512" xmlns="http://www.w3.org/2000/svg"><g><g><path d="m318.377 131.649c-.07 29.17-20.194 53.628-47.316 60.316 0 0-8.928 17.228-8.979 17.227l-6.133 36.416v238.787c0 11.046 8.954 20 20 20h127.367v-124.248l-9.831-15.531 9.831-15.531v-197.436c0-11.046-8.954-20-20-20l-32.065-14.056z" fill="#ffb124"/><path d="m305.948 484.396v-213.335c0-28.729 7.182-50.944 6.901-49.949 4.296-15.25 13.743-28.686 27.044-37.294 17.101-11.068 28.431-30.293 28.483-52.167l7.562-3.233-24.689-10.823-32.873 14.056c-.07 29.17-20.194 53.628-47.316 60.316 0 0-8.928 17.228-8.979 17.228l-6.133 36.416v238.787c0 11.046 8.954 20 20 20h50c-11.045-.002-20-8.956-20-20.002z" fill="#ff901d"/><path d="m193.824 131.649-33.472-14.056-31.771 14.056c-11.046 0-20 8.954-20 20v197.436l10.663 15.531-10.663 15.531v124.249h127.367c11.046 0 20-8.954 20-20v-239.276l-4.652-35.738-10.829-17.587c-26.781-6.924-46.573-31.217-46.643-60.146z" fill="#ffb124"/><path d="m158.582 151.649c0-11.046 8.954-20 20-20l7.423-3.284-25.652-10.772-31.771 14.056c-11.046 0-20 8.954-20 20v197.436l10.663 15.531-10.663 15.531v124.249h50z" fill="#ff901d"/><path d="m108.582 7.5v104.149c0 11.046 8.954 20 20 20h65.243c0-.051 0-.101 0-.152 0-34.394 0-62.277 62.277-62.277s62.277 27.882 62.277 62.277v.152h64.938c11.046 0 20-8.954 20-20v-104.149z" fill="#ffb124"/><g fill="#ff901d"><path d="m158.582 111.649v-104.149h-50v104.149c0 11.046 8.954 20 20 20h50c-11.046 0-20-8.954-20-20z"/><path d="m306.101 69.221c-9.793 0-18.045.69-25 1.985 37.276 6.945 37.277 31.305 37.277 60.291v.152h50c0-.051 0-.101 0-.152-.001-34.394-.001-62.276-62.277-62.276z"/></g><path d="m255.948 193.926c-5.344 0-10.531-.673-15.481-1.94v37.602c0 8.578 6.953 15.531 15.531 15.531 8.578 0 15.531-6.954 15.531-15.531v-37.628c-4.979 1.284-10.2 1.966-15.581 1.966z" fill="#5680a6"/><path d="m147.231 380.147h-38.649v-31.062h38.649l7.772 15.061z" fill="#ffe477"/><path d="m403.315 380.147h-178.429l-6.157-16.752 6.157-14.31h178.429z" fill="#ffeb99"/><path d="m306.012 349.085h-81.126l-6.157 14.31 6.157 16.752h81.126z" fill="#ffe477"/><path d="m333.604 302.492h31.062v124.249h-31.062z" fill="#5680a6"/><path d="m333.604 302.492h20v124.249h-20z" fill="#497090"/><g><path d="m224.886 384.384c-15.531-6.724-31.062-6.455-46.593.807l-7.429-20.574 7.429-20.574c15.531 7.261 31.062 7.53 46.593.807z" fill="#5680a6"/></g><g><path d="m206.302 349.557c-9.336.688-18.673-1.15-28.009-5.515l-7.429 20.574 7.429 20.574c9.336-4.365 18.672-6.203 28.009-5.515z" fill="#497090"/></g><path d="m147.231 344.042h31.062v41.149h-31.062z" fill="#e5646e"/><path d="m147.231 344.042h11.351v41.149h-11.351z" fill="#db4655"/></g><path d="m410.815 111.649v-104.149c0-4.143-3.357-7.5-7.5-7.5h-294.733c-4.142 0-7.5 3.357-7.5 7.5v44.675c0 4.143 3.358 7.5 7.5 7.5s7.5-3.357 7.5-7.5v-37.175h279.733v96.649c0 6.893-5.607 12.5-12.5 12.5h-57.463c-.33-31.838-4.953-62.429-69.751-62.429s-69.421 30.591-69.751 62.429h-57.768c-6.893 0-12.5-5.607-12.5-12.5v-26.788c0-4.143-3.358-7.5-7.5-7.5s-7.5 3.357-7.5 7.5v26.788c0 7.872 3.325 14.982 8.645 20-5.319 5.018-8.645 12.128-8.645 20v352.747c0 4.143 3.358 7.5 7.5 7.5h127.367c7.872 0 14.982-3.325 20-8.645 5.018 5.32 12.128 8.645 20 8.645h127.366c4.143 0 7.5-3.357 7.5-7.5v-45.781c0-4.143-3.357-7.5-7.5-7.5s-7.5 3.357-7.5 7.5v38.281h-119.867c-6.893 0-12.5-5.607-12.5-12.5v-96.749h62.655v39.094c0 4.143 3.357 7.5 7.5 7.5h31.062c4.143 0 7.5-3.357 7.5-7.5v-39.094h23.648v39.094c0 4.143 3.357 7.5 7.5 7.5s7.5-3.357 7.5-7.5v-275.092c0-7.872-3.326-14.982-8.645-20 5.321-5.017 8.647-12.128 8.647-20zm-224.073 27.5c2.919 26.613 20.9 49.326 46.225 58.198v32.241c0 10.056 6.479 18.627 15.481 21.759v90.237h-16.811c-1.753-3.626-6.052-5.213-9.731-3.619-23.802 10.305-38.861-1.216-43.277-1.416-.318-.014 1.467-.005-31.398-.008-3.282 0-6.07 2.107-7.088 5.043h-24.061v-189.935c0-6.893 5.607-12.5 12.5-12.5zm77.288 61.813v28.627c0 3.969-2.894 7.274-6.684 7.917-.908-.171-1.842-.174-2.748-.009-3.763-.665-6.63-3.958-6.63-7.908v-28.616c5.318.607 10.746.602 16.062-.011zm-78.237 153.88c10.508 2.978 21.075 3.139 31.593.479v18.59c-10.518-2.659-21.085-2.499-31.593.48zm-31.062-3.3h16.062v26.148h-16.062zm-38.649 5.043h23.649v16.062h-23.649zm132.366 127.811c0 6.893-5.607 12.5-12.5 12.5h-119.866v-109.249h24.061c1.017 2.936 3.806 5.043 7.088 5.043 33.355 0 31.298-.004 31.292-.004 4.728-.141 19.67-11.684 43.384-1.42 3.717 1.606 7.994-.025 9.731-3.619h16.811v96.749zm-16.062-111.749v-16.062h93.717v16.062zm124.78 46.594h-16.062v-109.249h16.062zm15-46.594v-16.062h23.648v16.062zm23.649-220.998v189.936h-23.648v-39.093c0-4.143-3.357-7.5-7.5-7.5h-31.062c-4.143 0-7.5 3.357-7.5 7.5v39.093h-62.655v-90.203c9.054-3.104 15.581-11.7 15.581-21.793v-32.167c7.233-2.508 13.963-6.183 20.072-10.97 3.26-2.554 3.832-7.269 1.277-10.529-2.554-3.261-7.268-3.831-10.529-1.277-35.721 27.988-88.416 2.663-88.525-43.014 0-.002 0-.003 0-.005v-.13c0-34.158 0-54.776 54.777-54.776 52.868 0 54.96 18.463 54.776 54.893v.019c-.016 6.789-1.257 13.409-3.689 19.678-1.498 3.861.418 8.207 4.279 9.705 3.859 1.497 8.206-.418 9.705-4.279 2.199-5.669 3.635-11.559 4.292-17.586h57.852c6.889-.002 12.497 5.606 12.497 12.498z"/></g></svg>