<svg id="Capa_1" enable-background="new 0 0 511.996 511.996" height="512" viewBox="0 0 511.996 511.996" width="512" xmlns="http://www.w3.org/2000/svg"><g><g><path d="m7.5 7.5h496.996v496.996h-496.996z" fill="#ffb124"/><path d="m7.5 7.5h85.421v496.996h-85.421z" fill="#ff901d"/><path d="m38.562 38.562h434.872v434.872h-434.872z" fill="#eaf6ff"/><path d="m38.562 38.562h54.329v434.872h-54.329z" fill="#d8ecfe"/><path d="m162.842 419.09-23.312-23.312 23.312-23.312-23.312-23.312-23.312 23.312-23.312-23.312-23.312 23.312 23.312 23.312-23.312 23.312 23.312 23.312 23.312-23.312 23.312 23.312z" fill="#ffb124"/><g><path d="m209.573 214.583h-46.594l23.297-62.124z" fill="#95d6a4"/></g><g><path d="m155.046 292.239h-46.594l23.297-62.125z" fill="#95d6a4"/></g><g><path d="m279.295 255.998h-46.594l23.297-62.124z" fill="#95d6a4"/></g><g><path d="m289.187 131.749h-46.593l23.296-62.124z" fill="#95d6a4"/></g><g><path d="m116.188 194.531h-46.594l23.297-62.124z" fill="#95d6a4"/></g><path d="m395.778 69.625c-25.733 0-46.593 20.861-46.593 46.593 0 46.593 46.593 77.656 46.593 77.656s46.593-31.062 46.593-77.656c.001-25.733-20.86-46.593-46.593-46.593zm0 62.124c-8.578 0-15.531-6.954-15.531-15.531 0-8.578 6.953-15.531 15.531-15.531s15.531 6.953 15.531 15.531c0 8.577-6.953 15.531-15.531 15.531z" fill="#e5646e"/><g><path d="m380.247 116.218c0-20.287 12.966-37.546 31.062-43.942-4.858-1.717-10.085-2.652-15.531-2.652-25.733 0-46.593 20.861-46.593 46.593 0 46.593 46.593 77.656 46.593 77.656s6.977-4.651 15.531-13.054c-13.551-13.311-31.062-36.038-31.062-64.601z" fill="#db4655"/></g><path d="m445.796 335.177c-13.953 0-26.693 5.17-36.421 13.696-6.354 5.569-14.908 7.81-23.141 5.914-3.079-.709-6.285-1.085-9.58-1.085-20.233 0-36.351 13.819-41.176 31.527-3.598 13.204-14.43 23.11-27.883 25.619-34.449 6.426-61.911 31.017-68.246 62.586h234.085v-130.85c-8.134-4.703-17.567-7.407-27.638-7.407z" fill="#95d6a4"/><path d="m357.595 420.848c13.453-2.51 24.286-12.416 27.883-25.619 4.825-17.708 20.943-31.527 41.176-31.527 3.295 0 6.501.375 9.58 1.085 8.233 1.897 16.787-.345 23.141-5.914 4.178-3.662 8.912-6.704 14.059-8.984v-7.305c-8.134-4.703-17.567-7.407-27.638-7.407-13.953 0-26.693 5.17-36.421 13.696-6.354 5.569-14.908 7.81-23.141 5.914-3.079-.709-6.285-1.085-9.58-1.085-20.233 0-36.351 13.819-41.176 31.527-3.598 13.204-14.43 23.11-27.883 25.619-34.449 6.426-61.911 31.017-68.246 62.586h52.785c9.583-26.684 34.744-46.856 65.461-52.586z" fill="#78c2a4"/><path d="m92.891 132.407-23.297 62.124h23.297z" fill="#78c2a4"/><g fill="#ff901d"><path d="m69.594 372.466 23.297 23.297v-46.593z"/><path d="m92.891 395.793-23.297 23.297 23.297 23.297z"/></g></g><g><path d="m168.145 367.163-23.312-23.312c-2.929-2.929-7.678-2.929-10.606 0l-18.009 18.009-18.008-18.009c-2.926-2.927-7.678-2.929-10.606 0l-23.312 23.312c-2.929 2.929-2.929 7.678 0 10.606l18.008 18.009-18.009 18.008c-2.927 2.926-2.929 7.678 0 10.606l23.312 23.312c2.926 2.927 7.678 2.929 10.606 0l18.008-18.009 18.009 18.009c2.929 2.929 7.678 2.929 10.606 0l23.312-23.312c2.927-2.926 2.929-7.678 0-10.606l-18.009-18.008 18.009-18.009c2.93-2.928 2.93-7.677.001-10.606zm-33.918 23.312c-2.927 2.926-2.929 7.678 0 10.606l18.009 18.008-12.706 12.706-18.009-18.009c-2.926-2.927-7.678-2.929-10.606 0l-18.008 18.009-12.706-12.705 18.009-18.008c2.927-2.926 2.929-7.678 0-10.606l-18.009-18.009 12.706-12.706 18.008 18.009c2.926 2.927 7.678 2.929 10.606 0l18.009-18.009 12.706 12.706z"/><path d="m193.298 149.826c-2.428-6.474-11.618-6.473-14.045 0l-23.296 62.125c-1.837 4.898 1.79 10.133 7.022 10.133h15.796v13.205c0 4.142 3.358 7.5 7.5 7.5s7.5-3.358 7.5-7.5v-13.205h15.797c5.231 0 8.86-5.234 7.022-10.133zm-19.496 57.257 12.474-33.265 12.474 33.265z"/><path d="m131.749 320.444c4.142 0 7.5-3.358 7.5-7.5v-13.205h15.797c5.231 0 8.86-5.234 7.022-10.133l-23.297-62.125c-2.428-6.474-11.618-6.473-14.045 0l-23.297 62.125c-1.837 4.898 1.79 10.133 7.022 10.133h15.797v13.205c.001 4.142 3.359 7.5 7.501 7.5zm0-68.97 12.474 33.265h-24.948z"/><path d="m232.701 263.498h15.797v13.205c0 4.142 3.358 7.5 7.5 7.5s7.5-3.358 7.5-7.5v-13.205h15.797c5.231 0 8.86-5.234 7.022-10.133l-23.297-62.125c-2.428-6.474-11.618-6.473-14.045 0l-23.297 62.125c-1.836 4.898 1.791 10.133 7.023 10.133zm23.297-48.265 12.474 33.265h-24.948z"/><path d="m272.913 66.991c-2.428-6.474-11.618-6.473-14.045 0l-23.297 62.125c-1.837 4.898 1.79 10.133 7.022 10.133h15.797v13.205c0 4.142 3.358 7.5 7.5 7.5s7.5-3.358 7.5-7.5v-13.205h15.796c5.231 0 8.86-5.234 7.022-10.133zm-19.496 57.258 12.474-33.265 12.474 33.265z"/><path d="m69.594 202.031h15.796v13.205c0 4.142 3.358 7.5 7.5 7.5s7.5-3.358 7.5-7.5v-13.205h15.797c5.231 0 8.86-5.234 7.022-10.133l-23.297-62.125c-2.428-6.474-11.618-6.473-14.045 0l-23.296 62.125c-1.836 4.898 1.791 10.133 7.023 10.133zm23.297-48.264 12.474 33.265h-24.948z"/><path d="m318.123 187.035c-4.157 0-7.505 3.393-7.505 7.493 0 4.083 3.331 7.5 7.5 7.5 4.134 0 7.5-3.332 7.5-7.5 0-4.16-3.383-7.493-7.495-7.493z"/><path d="m193.878 325.618c4.121 0 7.5-3.35 7.5-7.49 0-4.054-3.296-7.503-7.505-7.503-4.119 0-7.495 3.327-7.495 7.503 0 4.082 3.305 7.49 7.5 7.49z"/><path d="m442.368 403.278c4.076 0 7.5-3.28 7.5-7.5 0-4.087-3.3-7.5-7.495-7.5-4.161 0-7.505 3.392-7.505 7.5 0 4.093 3.329 7.5 7.5 7.5z"/><circle cx="380.248" cy="428.138" r="7.5"/><path d="m504.496 0h-496.996c-4.142 0-7.5 3.358-7.5 7.5v369.956c0 4.142 3.358 7.5 7.5 7.5s7.5-3.358 7.5-7.5v-362.456h481.996v481.996h-481.996v-86.854c0-4.142-3.358-7.5-7.5-7.5s-7.5 3.358-7.5 7.5v94.354c0 4.142 3.358 7.5 7.5 7.5h496.996c4.142 0 7.5-3.358 7.5-7.5v-496.996c0-4.142-3.358-7.5-7.5-7.5z"/><path d="m168.541 31.062h-129.979c-4.142 0-7.5 3.358-7.5 7.5v434.871c0 4.142 3.358 7.5 7.5 7.5h434.871c4.142 0 7.5-3.358 7.5-7.5v-434.871c0-4.142-3.358-7.5-7.5-7.5h-272.206c-4.142 0-7.5 3.358-7.5 7.5s3.358 7.5 7.5 7.5h264.707v284.933c-21.393-7.243-44.792-2.408-61.502 12.237-2.249 1.971-4.943 3.4-7.792 4.133-4.011 1.032-6.426 5.121-5.394 9.132 1.032 4.012 5.122 6.429 9.132 5.394 5.112-1.315 9.933-3.867 13.94-7.379 14.282-12.516 34.547-15.32 51.615-7.384v118.805h-216.711c8.646-23.807 31.579-42.458 59.748-47.712 16.437-3.066 29.366-14.952 33.744-31.021 3.047-11.184 11.33-20.154 22.156-23.995 3.904-1.385 5.945-5.672 4.561-9.576s-5.671-5.947-9.576-4.561c-15.457 5.484-27.274 18.264-31.613 34.188-2.852 10.469-11.291 18.216-22.022 20.217-34.293 6.398-63.533 29.985-72.765 62.458h-187.393v-419.869h122.478c4.142 0 7.5-3.358 7.5-7.5s-3.357-7.5-7.499-7.5z"/><path d="m177.384 393.799c0 4.142 3.358 7.5 7.5 7.5h31.58c4.142 0 7.5-3.358 7.5-7.5s-3.358-7.5-7.5-7.5h-31.58c-4.142 0-7.5 3.358-7.5 7.5z"/><path d="m255.2 356.03c-2.442 6.651-3.71 15.374-13.688 23.077-3.279 2.531-3.885 7.241-1.354 10.52 2.524 3.27 7.233 3.892 10.52 1.354 13.942-10.763 16.295-23.494 18.603-29.78 1.428-3.889-.567-8.198-4.456-9.625-3.889-1.43-8.198.566-9.625 4.454z"/><path d="m400.81 236.434c.259-4.134-2.883-7.695-7.017-7.954-4.133-.249-7.695 2.883-7.954 7.017-.564 9.024-3.753 17.459-9.477 25.07-2.49 3.311-1.824 8.012 1.486 10.502 3.318 2.495 8.018 1.817 10.502-1.486 7.518-9.995 11.71-21.148 12.46-33.149z"/><path d="m326.626 288.81c-3.968 1.188-6.222 5.368-5.034 9.336.973 3.251 3.954 5.351 7.182 5.351 1.859 0 2.131-.475 7.524-1.756 8.288-1.962 17.414-5.363 25.685-9.9 3.631-1.992 4.96-6.551 2.968-10.183s-6.551-4.96-10.183-2.968c-12.41 6.808-22.239 8.352-28.142 10.12z"/><path d="m271.585 326.51c-2.543 3.27-1.954 7.981 1.315 10.524 3.254 2.532 7.97 1.969 10.524-1.315 6.015-7.732 13.152-14.455 21.214-19.98 3.417-2.342 4.288-7.01 1.946-10.427s-7.009-4.288-10.427-1.946c-9.339 6.401-17.607 14.188-24.572 23.144z"/><path d="m395.778 93.187c-12.7 0-23.031 10.332-23.031 23.031 0 12.7 10.332 23.031 23.031 23.031s23.031-10.332 23.031-23.031-10.331-23.031-23.031-23.031zm0 31.062c-4.428 0-8.031-3.603-8.031-8.031s3.603-8.031 8.031-8.031 8.031 3.603 8.031 8.031-3.602 8.031-8.031 8.031z"/><path d="m449.872 116.218c0-29.827-24.266-54.093-54.093-54.093-29.828 0-54.094 24.266-54.094 54.093 0 50.032 47.895 82.537 49.934 83.896 2.519 1.68 5.801 1.68 8.32 0 2.039-1.359 49.933-33.864 49.933-83.896zm-54.103 68.31c-10.846-8.558-39.084-34.128-39.084-68.311 0-21.556 17.538-39.093 39.094-39.093s39.093 17.537 39.093 39.093c0 34.063-28.273 59.731-39.103 68.311z"/><path d="m69.81 76.813h77.471c4.142 0 7.5-3.358 7.5-7.5s-3.358-7.5-7.5-7.5h-77.471c-4.142 0-7.5 3.358-7.5 7.5s3.357 7.5 7.5 7.5z"/><path d="m69.81 108.187h77.471c4.142 0 7.5-3.358 7.5-7.5s-3.358-7.5-7.5-7.5h-77.471c-4.142 0-7.5 3.358-7.5 7.5s3.357 7.5 7.5 7.5z"/></g></g></svg>