<svg id="Capa_1" enable-background="new 0 0 511.996 511.996" height="512" viewBox="0 0 511.996 511.996" width="512" xmlns="http://www.w3.org/2000/svg"><g><g><g><path d="m131.749 350.885h-77.656v-81.102l68.688 20.67z" fill="#e5646e"/><path d="m54.093 269.783v81.102h40v-69.065z" fill="#db4655"/><g><path d="m431.688 259.259-65.466 41.768-111.289-175.426c-21.078-33.038-29.907-72.42-24.949-111.295 31.249 3.352 59.281 20.726 76.185 47.222z" fill="#d8ecfe"/><path d="m229.984 14.307c-.958 7.51-1.401 15.039-1.34 22.537 20.956 7.749 39.075 22.17 51.338 41.391l125.519 197.73 26.187-16.707-125.519-197.73c-16.904-26.495-44.936-43.87-76.185-47.221z" fill="#eaf6ff"/><path d="m479.867 334.773-80.231 18.627-33.414-52.374 65.466-41.767z" fill="#e5646e"/><path d="m405.501 275.966-39.279 25.06 33.414 52.374 49.557-11.505z" fill="#db4655"/><path d="m382.929 327.213 65.466-41.768-16.872-26.081-65.466 41.767z" fill="#5680a6"/><path d="m422.762 301.797-17.261-25.831-39.279 25.06 16.707 26.187 65.466-41.768z" fill="#497090"/></g><path d="m458.279 435.565h-373.499c-25.525 0-46.217-20.692-46.217-46.217v-16.538c0-25.525 20.692-46.217 46.217-46.217h373.499c25.525 0 46.217 20.692 46.217 46.217v16.538c0 25.525-20.692 46.217-46.217 46.217z" fill="#e5646e"/><path d="m88.562 409.348v-16.538c0-25.525 20.692-46.217 46.217-46.217h361.565c-8.337-12.082-22.277-20-38.066-20h-373.498c-25.525 0-46.217 20.692-46.217 46.217v16.538c0 25.525 20.692 46.217 46.217 46.217h11.934c-5.141-7.449-8.152-16.481-8.152-26.217z" fill="#db4655"/><g><path d="m113.578 287.699-59.485-17.916 41.08-136.393c8.112-26.932 26.59-49.539 51.369-62.847 15.25 15.925 20.747 38.825 14.388 59.937z" fill="#eaf6ff"/><path d="m159.407 90.769c-2.865-7.407-7.189-14.3-12.865-20.226-24.78 13.308-43.258 35.915-51.369 62.847l-41.08 136.393 29.743 8.958 41.08-136.393c6.141-20.392 18.227-38.305 34.491-51.579z" fill="#d8ecfe"/></g><circle cx="30.797" cy="474.393" fill="#5680a6" r="23.297"/></g><path d="m459.749 404.503h-376.44c-7.558 0-13.684-6.127-13.684-13.684v-19.225c0-7.558 6.127-13.684 13.684-13.684h376.441c7.558 0 13.684 6.127 13.684 13.684v19.225c0 7.557-6.127 13.684-13.685 13.684z" fill="#5680a6"/><path d="m129.625 390.819v-19.225c0-7.558 6.127-13.684 13.684-13.684h-60c-7.558 0-13.684 6.127-13.684 13.684v19.225c0 7.558 6.127 13.684 13.684 13.684h60c-7.558 0-13.684-6.127-13.684-13.684z" fill="#497090"/></g><g><path d="m482.418 324.828c-110.942-174.399 75.245 118.587-111.37-175.09-2.22-3.497-6.856-4.531-10.352-2.312-3.497 2.22-4.532 6.854-2.312 10.352l62.962 99.184-13.542 8.639-121.5-191.399c-11.986-18.786-29.647-33.697-50.118-42.425.068-2.972.219-5.947.453-8.92 26.053 4.851 48.8 20.126 63.197 42.692l41.011 64.604c2.221 3.498 6.858 4.532 10.352 2.312 3.497-2.22 4.532-6.854 2.312-10.352l-41.021-64.619c-18.229-28.571-48.01-47.03-81.707-50.644-4.056-.437-7.723 2.457-8.239 6.508-5.157 40.429 4.031 81.742 26.055 116.261.499.787-9.219-14.526 120.252 189.474h-234.238l-4.413-29.74c-.864-5.822-6.692-6.364-7.273-6.687l9.515-31.592c1.194-3.966-1.053-8.15-5.019-9.344-3.968-1.195-8.15 1.051-9.345 5.018l-9.516 31.596-15.38-4.628 38.915-129.203c4.535-15.059 12.501-28.648 23.29-39.86 1.207 7.791.708 15.876-1.639 23.666l-26.522 88.059c-1.194 3.966 1.053 8.15 5.019 9.344s8.149-1.052 9.345-5.018l26.522-88.059c4.423-14.688 3.715-30.193-1.547-44.111-.049-.158-.104-.314-.164-.47-3.138-8.112-7.794-15.657-14.077-22.322-2.904-3.078-6.534-3.307-9.331-1.805-26.513 14.238-45.949 37.876-54.795 66.611-.031.101-41.643 137.522-41.604 139.391v65.126c-9.598 9.709-15.531 23.047-15.531 37.745v16.538c0 17.49 8.402 33.055 21.382 42.87l-10.726 13.379c-3.396-1.292-7.078-2-10.922-2-16.982-.001-30.797 13.815-30.797 30.796s13.815 30.797 30.797 30.797 30.797-13.815 30.797-30.797c0-7.714-2.851-14.775-7.555-20.184l11.722-14.621c5.915 2.247 12.326 3.477 19.019 3.477h373.499c29.62 0 53.718-24.098 53.718-53.718v-16.537c-.001-20.944-12.049-39.127-29.579-47.982zm-451.621 165.362c-8.71 0-15.797-7.086-15.797-15.797s7.087-15.797 15.797-15.797 15.797 7.086 15.797 15.797-7.087 15.797-15.797 15.797zm398.602-220.575 8.639 13.541-52.821 33.7-8.639-13.541zm16.707 26.187 14.903 23.359c-2.422-.122-.393-.045-51.408-.069zm-209.419-247.223c14.989 7.747 27.87 19.424 36.963 33.676l121.508 191.413-26.632 16.991-107.27-169.092c-14.072-22.055-22.44-47.181-24.569-72.988zm-175.093 231.295c9.807 2.962 42.349 12.744 54.468 16.389l3.387 22.829c-28.214 1.05-40.721-2.967-57.855 5.266zm56.14-139.689-38.915 129.206-15.38-4.628 38.916-129.21c6.875-22.826 21.598-42.5 42.553-55.417 2.076 2.702 3.874 5.577 5.383 8.58-15.354 13.87-26.559 31.554-32.557 51.469zm379.262 249.163c0 21.349-17.369 38.718-38.718 38.718h-373.499c-21.349 0-38.717-17.369-38.717-38.718v-16.538c0-21.349 17.368-38.717 38.717-38.717h373.499c5.619 0 10.963 1.204 15.787 3.367.062.029.124.057.186.084 13.403 6.094 22.745 19.61 22.745 35.267z"/><path d="m459.749 350.41h-376.44c-11.681 0-21.184 9.503-21.184 21.184v19.225c0 11.681 9.503 21.185 21.184 21.185h240.963c4.143 0 7.5-3.358 7.5-7.5s-3.357-7.5-7.5-7.5h-240.963c-3.409 0-6.184-2.774-6.184-6.185v-19.225c0-3.41 2.774-6.184 6.184-6.184h376.44c3.41 0 6.185 2.774 6.185 6.184v19.225c0 3.41-2.774 6.185-6.185 6.185h-102.791c-4.143 0-7.5 3.358-7.5 7.5s3.357 7.5 7.5 7.5h102.791c11.682 0 21.185-9.503 21.185-21.185v-19.225c0-11.681-9.503-21.184-21.185-21.184z"/></g></g></svg>