<svg id="Capa_1" enable-background="new 0 0 511.996 511.996" height="512" viewBox="0 0 511.996 511.996" width="512" xmlns="http://www.w3.org/2000/svg"><g><g><g><path d="m318.123 71.997h30.626v30.626h-30.626z" fill="#95d6a4"/><path d="m348.748 132.541v-29.918h-30.626v29.918l-.084.084c-9.891 9.891-15.447 23.305-15.447 37.293v117.965h62.125v-117.536c0-14.241-5.759-27.876-15.968-37.806z" fill="#eaf6ff"/><path d="m348.039 132.625.084-.084v-29.918h-30v29.918l-.084.084c-9.891 9.891-15.447 23.305-15.447 37.293v117.965h30v-117.965c-.001-13.987 5.556-27.402 15.447-37.293z" fill="#d8ecfe"/></g><g><path d="m117.276 70.167h62.125v31.062h-62.125z" fill="#5680a6"/><path d="m179.401 101.229h-62.125l-.011.011c-19.882 19.882-31.051 46.848-31.051 74.965v80.305h124.219l.02-80.29c.006-28.126-11.164-55.103-31.052-74.991z" fill="#eaf6ff"/><path d="m167.266 101.24.011-.011h-50l-.011.011c-19.882 19.882-31.051 46.848-31.051 74.965v80.305h50v-80.305c-.001-28.118 11.169-55.083 31.051-74.965z" fill="#d8ecfe"/><path d="m86.214 176.205h124.219v80.305h-124.219z" fill="#5680a6"/><path d="m86.214 176.205h50v80.305h-50z" fill="#497090"/></g><g><circle cx="69.625" cy="214.704" fill="#ffb124" r="41.8"/><path d="m67.824 214.704c0-15.841 8.812-29.623 21.8-36.714-5.941-3.243-12.755-5.087-20-5.087-23.086 0-41.8 18.715-41.8 41.8s18.715 41.801 41.8 41.801c7.245 0 14.059-1.844 20-5.087-12.988-7.09-21.8-20.873-21.8-36.713z" fill="#ff901d"/><g fill="#95d6a4"><path d="m69.625 163.608v9.062h-9.062c-12.15 0-22-9.85-22-22v-9.062h9.062c12.15 0 22 9.85 22 22z"/><path d="m78.687 172.67h-9.062v-9.062c0-12.15 9.85-22 22-22h9.062v9.062c0 12.15-9.85 22-22 22z"/></g></g><g><path d="m340.921 334.181-65.893-65.893 134.84-134.84c18.196-18.196 47.697-18.196 65.893 0 18.196 18.196 18.196 47.697 0 65.893z" fill="#ffeb99"/><path d="m488.998 160.211c-1.303-9.788-5.715-19.241-13.237-26.763-18.196-18.196-47.697-18.196-65.893 0l-134.84 134.84 40 40 134.84-134.84c10.674-10.675 25.239-15.087 39.13-13.237z" fill="#ffe477"/><g fill="#ffeb99"><path d="m399.024 188.518-22.113-22.113 21.666-21.666 22.113 22.113c5.983 5.983 5.983 15.683 0 21.666-5.982 5.983-15.683 5.983-21.666 0z"/><path d="m354.947 232.596-22.113-22.113 21.666-21.666 22.113 22.113c5.983 5.983 5.983 15.683 0 21.666-5.983 5.983-15.683 5.983-21.666 0z"/></g></g><path d="m488.965 256.504h-465.934c-8.578 0-15.531-6.954-15.531-15.531 0-8.578 6.954-15.531 15.531-15.531h465.934c8.578 0 15.531 6.954 15.531 15.531 0 8.578-6.953 15.531-15.531 15.531z" fill="#e29a6b"/><path d="m420.41 473.961h-328.824c-21.513 0-39.752-15.819-42.795-37.116l-25.76-180.32h465.934l-25.76 180.32c-3.042 21.298-21.282 37.116-42.795 37.116z" fill="#e29a6b"/><path d="m146.669 306.526h335.153l7.143-50h-465.934l25.76 180.32c3.042 21.297 21.282 37.116 42.795 37.116h35.365l-17.748-124.237c-3.258-22.8 14.434-43.199 37.466-43.199z" fill="#ce845c"/><path d="m221.909 225.442h68.179v31.062h-68.179z" fill="#ce845c"/><path d="m210.433 225.442h-171.871l62.125 77.625z" fill="#e5646e"/><path d="m119.779 245.442h62.378l28.276-20h-171.871l62.125 77.625 21.706-15.353-14.325-17.899c-7.86-9.821-.868-24.373 11.711-24.373z" fill="#db4655"/><path d="m302.591 225.442h171.871l-62.124 77.625z" fill="#e5646e"/><path d="m400.901 245.442h57.555l16.006-20h-171.871l109.746 77.625 15.082-18.844-31.716-22.433c-7.165-5.069-3.579-16.348 5.198-16.348z" fill="#db4655"/><path d="m271.529 295.72h-31.062v-242.187c0-8.56 6.939-15.499 15.499-15.499h.065c8.56 0 15.499 6.939 15.499 15.499v242.187z" fill="#bf7859"/></g><g><path d="m511.996 240.973c0-12.699-10.332-23.03-23.031-23.03h-21.198l13.298-13.298c21.091-21.092 21.091-55.409 0-76.501-21.091-21.09-55.408-21.09-76.499 0-2.97 2.97-31.181 31.18-32.958 32.957-.007.007-.013.013-.019.02l-.081.081c-1.831-11.779-7.15-22.898-15.258-31.704v-57.501c0-4.143-3.358-7.5-7.5-7.5h-30.626c-4.142 0-7.5 3.357-7.5 7.5v57.545c-10.039 11.09-15.531 25.311-15.531 40.376v48.024h-16.062v-100.37c0-4.143-3.358-7.5-7.5-7.5s-7.5 3.357-7.5 7.5v170.648h-16.062v-234.687c0-4.41 3.588-7.998 8.063-7.998 4.411 0 7.999 3.588 7.999 7.998v31.353c0 4.143 3.358 7.5 7.5 7.5s7.5-3.357 7.5-7.5v-31.353c0-12.682-10.317-22.998-23.063-22.998-12.682 0-22.999 10.316-22.999 22.998v164.409h-15.031l.017-41.721c.007-29.28-10.996-56.867-31.052-78.038v-28.016c0-4.143-3.358-7.5-7.5-7.5h-62.125c-4.142 0-7.5 3.357-7.5 7.5v28.017c-13.892 14.668-22.405 32.619-22.803 36.291-6.85 1.09-12.922 4.545-17.349 9.501-11.649-13.04-26.427-9.178-31.062-9.867-4.142 0-7.5 3.357-7.5 7.5.708 4.342-3.417 20.536 11.146 32.141-14.359 9.644-22.997 26.295-21.768 44.339-11.486 1.29-20.442 11.061-20.442 22.885 0 10.389 6.915 19.193 16.384 22.052l24.983 174.88c3.547 24.83 25.137 43.555 50.22 43.555h272.318c4.142 0 7.5-3.357 7.5-7.5s-3.358-7.5-7.5-7.5h-272.319c-17.666 0-32.872-13.188-35.37-30.676l-24.54-171.781h28.142l35.014 43.75c2.489 3.109 6.956 3.721 10.187 1.437l30.388-21.494c3.382-2.392 4.184-7.072 1.792-10.454-2.393-3.383-7.072-4.185-10.454-1.792l-24.618 17.413c-10.263-12.824-39.226-49.013-47.956-59.921h132.671l-34.877 24.669c-3.382 2.392-4.184 7.072-1.792 10.454 2.392 3.381 7.072 4.185 10.454 1.792l8.279-5.855c2.104.039-10.661.001 64.061.002v31.717c0 4.143 3.358 7.5 7.5 7.5h31.062c4.142 0 7.5-3.357 7.5-7.5v-31.717h65.093l63.885 45.187c3.225 2.282 7.696 1.675 10.187-1.437l35.014-43.75h27.113l-24.54 171.781c-2.498 17.488-17.704 30.676-35.37 30.676h-23.82c-4.142 0-7.5 3.357-7.5 7.5s3.358 7.5 7.5 7.5h23.82c25.083 0 46.672-18.725 50.22-43.555l24.983-174.881c9.467-2.86 16.382-11.664 16.382-22.053zm-409.979-72.268c8.457-10.915 5.621-21.822 6.17-27.098 0-3.339-2.181-6.167-5.196-7.139 4.425-9.475 10.278-18.107 17.458-25.739h55.78c15.545 16.515 24.767 37.492 26.445 59.976zm22.759-91.038h47.125v16.062h-47.125zm-33.151 71.44h1.562v1.562c0 7.995-6.505 14.5-14.5 14.5h-1.562v-1.562c0-7.995 6.504-14.5 14.5-14.5zm-45.563 0h1.562c7.995 0 14.5 6.505 14.5 14.5v1.562h-1.562c-7.995 0-14.5-6.505-14.5-14.5zm1.751 99.897h-24.782c-4.428 0-8.031-3.603-8.031-8.031s3.603-8.03 8.031-8.03h11.927zm-12.337-31.062c-1.891-20.25 14.078-37.539 34.149-37.539 20.096 0 36.036 17.311 34.15 37.539zm83.343 0c.829-12.745-3.248-24.816-10.886-34.237h95.001v34.237zm71.291 31.062 22.708-16.062h20.149v16.062zm280.348-110.254c15.242 15.243 15.242 40.045 0 55.287l-23.906 23.905h-58.269c-.778-4.643-2.972-8.921-6.367-12.316l-16.81-16.81 11.805-11.805 16.81 16.81c8.92 8.918 23.353 8.919 32.273 0 8.918-8.919 8.92-23.353 0-32.273l-16.81-16.81 5.987-5.987c15.243-15.242 40.044-15.241 55.287-.001zm-115.958 60.673c17.534 17.673 17.177 16.862 18.108 18.52h-36.628zm44.077-44.078 16.809 16.809c3.057 3.057 3.058 8.003 0 11.061-3.056 3.055-8.002 3.057-11.06-.001l-16.81-16.809zm-72.954-75.848h15.626v15.626h-15.626zm-2.197 58.348c3.722-3.723 1.571-6.892 2.197-27.722h15.626c.645 20.779-1.567 24.061 2.271 27.794 16.305 15.86 13.362 35.624 13.697 37.576l-42.45 42.45h-4.675v-48.024c-.001-20.811 13.201-31.875 13.334-32.074zm-44.397 111.159v-16.062h21.178l22.708 16.062zm131.869 43.859-84.716-59.921h132.671zm78.067-43.859h-23.753l12.854-16.062h10.899c4.428 0 8.031 3.603 8.031 8.031s-3.603 8.031-8.031 8.031z"/><path d="m193.874 303.894c4.142 0 7.5-3.357 7.5-7.5s-3.358-7.5-7.5-7.5h-31.062c-4.142 0-7.5 3.357-7.5 7.5s3.358 7.5 7.5 7.5z"/><path d="m349.185 303.894c4.142 0 7.5-3.357 7.5-7.5s-3.358-7.5-7.5-7.5h-31.062c-4.142 0-7.5 3.357-7.5 7.5s3.358 7.5 7.5 7.5z"/><path d="m210.651 389.58c0-4.143-3.358-7.5-7.5-7.5h-31.062c-4.142 0-7.5 3.357-7.5 7.5s3.358 7.5 7.5 7.5h31.062c4.142 0 7.5-3.357 7.5-7.5z"/><path d="m288.307 389.58c0-4.143-3.358-7.5-7.5-7.5h-31.062c-4.142 0-7.5 3.357-7.5 7.5s3.358 7.5 7.5 7.5h31.062c4.142 0 7.5-3.357 7.5-7.5z"/><path d="m94.434 397.08h31.062c4.142 0 7.5-3.357 7.5-7.5s-3.358-7.5-7.5-7.5h-31.062c-4.142 0-7.5 3.357-7.5 7.5s3.358 7.5 7.5 7.5z"/><path d="m365.962 389.58c0-4.143-3.358-7.5-7.5-7.5h-31.062c-4.142 0-7.5 3.357-7.5 7.5s3.358 7.5 7.5 7.5h31.062c4.142 0 7.5-3.357 7.5-7.5z"/><path d="m397.556 389.58c0 4.143 3.358 7.5 7.5 7.5h31.062c4.142 0 7.5-3.357 7.5-7.5s-3.358-7.5-7.5-7.5h-31.062c-4.142 0-7.5 3.358-7.5 7.5z"/><path d="m146.034 342.986c0 4.143 3.358 7.5 7.5 7.5h31.062c4.142 0 7.5-3.357 7.5-7.5s-3.358-7.5-7.5-7.5h-31.062c-4.142 0-7.5 3.358-7.5 7.5z"/><path d="m114.44 342.986c0-4.143-3.358-7.5-7.5-7.5h-31.062c-4.142 0-7.5 3.357-7.5 7.5s3.358 7.5 7.5 7.5h31.062c4.142 0 7.5-3.357 7.5-7.5z"/><path d="m269.751 342.986c0-4.143-3.358-7.5-7.5-7.5h-31.062c-4.142 0-7.5 3.357-7.5 7.5s3.358 7.5 7.5 7.5h31.062c4.143 0 7.5-3.357 7.5-7.5z"/><path d="m301.345 342.986c0 4.143 3.358 7.5 7.5 7.5h31.062c4.142 0 7.5-3.357 7.5-7.5s-3.358-7.5-7.5-7.5h-31.062c-4.142 0-7.5 3.358-7.5 7.5z"/><path d="m425.062 342.986c0-4.143-3.358-7.5-7.5-7.5h-31.062c-4.142 0-7.5 3.357-7.5 7.5s3.358 7.5 7.5 7.5h31.062c4.143 0 7.5-3.357 7.5-7.5z"/><path d="m162.812 443.673h31.062c4.142 0 7.5-3.357 7.5-7.5s-3.358-7.5-7.5-7.5h-31.062c-4.142 0-7.5 3.357-7.5 7.5s3.357 7.5 7.5 7.5z"/><path d="m240.467 443.673h31.062c4.142 0 7.5-3.357 7.5-7.5s-3.358-7.5-7.5-7.5h-31.062c-4.142 0-7.5 3.357-7.5 7.5s3.358 7.5 7.5 7.5z"/><path d="m318.123 443.673h31.062c4.142 0 7.5-3.357 7.5-7.5s-3.358-7.5-7.5-7.5h-31.062c-4.142 0-7.5 3.357-7.5 7.5s3.357 7.5 7.5 7.5z"/></g></g></svg>