<svg id="Capa_1" enable-background="new 0 0 512.024 512.024" height="512" viewBox="0 0 512.024 512.024" width="512" xmlns="http://www.w3.org/2000/svg"><g><g><g><g><path d="m256.018 255.972c-56.847-56.847-149.015-56.847-205.863 0-56.847 56.847-56.847 149.015 0 205.863 56.847 56.847 149.015 56.847 205.863 0 56.847-56.847 56.847-149.015 0-205.863zm-50.949 154.915c-28.709 28.709-75.256 28.709-103.966 0-28.709-28.709-28.709-75.257 0-103.966s75.256-28.709 103.966 0 28.71 75.256 0 103.966z" fill="#e29a6b"/><path d="m461.88 50.11c-56.847-56.847-149.015-56.847-205.863 0s-56.847 149.015 0 205.863 149.015 56.847 205.863 0 56.848-149.016 0-205.863zm-50.948 154.914c-28.709 28.709-75.256 28.709-103.966 0-28.709-28.709-28.709-75.256 0-103.966 28.709-28.709 75.256-28.709 103.966 0 28.709 28.71 28.709 75.257 0 103.966z" fill="#e29a6b"/><path d="m436.147 75.843c-42.635-42.636-111.761-42.636-154.397 0-42.635 42.636-42.635 111.761 0 154.397 42.636 42.636 111.761 42.636 154.397 0s42.636-111.762 0-154.397zm-25.215 129.181c-28.709 28.709-75.256 28.709-103.966 0-28.709-28.709-28.709-75.256 0-103.966 28.709-28.709 75.256-28.709 103.966 0 28.709 28.71 28.709 75.257 0 103.966z" fill="#bf7859"/><path d="m318.594 442.734c-9.221-19.17-16.722-39.124-22.414-59.626-2.755-9.923 3.375-20.129 13.438-22.321.267-.058.533-.116.8-.174 9.313-2.028 18.595 3.593 21.074 12.796 4.982 18.496 11.602 36.513 19.78 53.84 4.045 8.57.666 18.806-7.663 23.326-.106.057-.211.115-.317.172-9.006 4.887-20.256 1.222-24.698-8.013z" fill="#e29a6b"/><path d="m329.618 420.787c.267-.058.533-.116.8-.174 9.313-2.028 18.595 3.593 21.074 12.796.4 1.483.81 2.964 1.231 4.441.597-3.486.166-7.177-1.45-10.602-8.179-17.326-14.798-35.344-19.78-53.84-2.479-9.203-11.761-14.825-21.074-12.796-.267.058-.533.116-.8.174-10.063 2.192-16.193 12.398-13.438 22.321 5.067 18.252 11.568 36.07 19.44 53.287.794-7.435 6.222-13.914 13.997-15.607z" fill="#ce845c"/><path d="m230.285 281.705c-42.636-42.636-111.761-42.636-154.397 0s-42.636 111.761 0 154.397 111.761 42.635 154.397 0c42.635-42.635 42.635-111.761 0-154.397zm-25.216 129.182c-28.709 28.709-75.256 28.709-103.966 0-28.709-28.709-28.709-75.257 0-103.966s75.256-28.709 103.966 0 28.71 75.256 0 103.966z" fill="#bf7859"/><g><path d="m445.126 270.382c-.845-1.793-2.008-3.474-3.49-4.956l-47.705-47.705c-13.319 7.21-28.394 10.007-43.076 8.39l62.134 62.134c11.257-4.493 22.066-10.447 32.137-17.863z" fill="#ce845c"/></g><g><path d="m419.871 243.661-25.94-25.94c-13.319 7.21-28.394 10.007-43.076 8.39l33.195 33.195c12.579-2.958 24.734-8.173 35.821-15.645z" fill="#ba6a4f"/></g><g fill="#ce845c"><path d="m273.348 440.967c7.221-10.557 12.897-21.853 17.027-33.573-.068-.07-.136-.139-.204-.208l-65.636-65.636c3.771 15.591 2.382 32.174-4.169 47.033z"/><path d="m122.646 291.966c15.052-6.842 31.937-8.345 47.795-4.51l-65.636-65.636c-.069-.069-.138-.137-.208-.204-12.224 4.308-23.987 10.297-34.931 17.967z"/></g><g fill="#ba6a4f"><path d="m134.328 251.343c-13.331 2.313-26.316 7.112-38.207 14.397l26.525 26.226c15.052-6.842 31.937-8.345 47.795-4.51z"/><path d="m246.892 414.809c6.926-11.601 11.511-24.21 13.755-37.147l-36.112-36.112c3.771 15.591 2.382 32.174-4.169 47.033z"/></g><path d="m356.406 331.663-176.078-176.079c-6.728-6.728-6.728-17.635 0-24.363l1.37-1.37c6.728-6.728 17.635-6.728 24.363 0l176.078 176.079c6.728 6.728 6.728 17.635 0 24.363l-1.37 1.37c-6.727 6.727-17.635 6.727-24.363 0z" fill="#bf7859"/><path d="m321.3 348.022-157.332-157.332c-6.383-6.383-6.383-16.733 0-23.116l2.617-2.617c6.383-6.383 16.733-6.383 23.116 0l157.332 157.332c6.383 6.383 6.383 16.733 0 23.116l-2.617 2.617c-6.383 6.383-16.733 6.383-23.116 0z" fill="#e29a6b"/><path d="m304.94 383.128-176.078-176.078c-6.728-6.728-6.728-17.635 0-24.363l1.37-1.37c6.728-6.728 17.635-6.728 24.363 0l176.079 176.079c6.728 6.728 6.728 17.635 0 24.363l-1.37 1.37c-6.728 6.727-17.636 6.727-24.364-.001z" fill="#bf7859"/><path d="m283.851 413.505-185.366-185.366c-6.891-6.891-6.891-18.065 0-24.956l.777-.777c6.891-6.891 18.065-6.891 24.956 0l185.366 185.366c6.891 6.892 6.891 18.065 0 24.956l-.777.777c-6.891 6.891-18.064 6.891-24.956 0z" fill="#e29a6b"/><path d="m386.783 310.573-185.366-185.365c-6.891-6.891-6.891-18.065 0-24.956l.777-.777c6.891-6.891 18.065-6.891 24.956 0l185.365 185.365c6.891 6.892 6.891 18.065 0 24.956l-.777.777c-6.891 6.892-18.064 6.892-24.955 0z" fill="#e29a6b"/><path d="m307.445 127.346-60.135-60.135c-7.249-7.249-7.249-19.001 0-26.25 7.249-7.249 19.001-7.249 26.25 0l60.135 60.135c7.249 7.249 7.249 19.001 0 26.25-7.248 7.249-19.001 7.249-26.25 0z" fill="#a86d39"/><path d="m319.55 90.957c12.488-7.941 26.849-11.745 41.131-11.41l-57.999-58c-.688-.687-1.416-1.31-2.176-1.867-11.489 5.031-22.461 11.618-32.595 19.761z" fill="#ce845c"/><path d="m293.885 65.354 25.665 25.603c12.488-7.941 26.849-11.745 41.131-11.41l-31.55-31.55c-12.469 3.527-24.433 9.312-35.246 17.357z" fill="#ba6a4f"/><path d="m281.271 153.52-60.135-60.135c-7.249-7.249-7.249-19.001 0-26.25 7.249-7.249 19.001-7.249 26.25 0l60.135 60.135c7.249 7.249 7.249 19.001 0 26.25-7.248 7.249-19.001 7.249-26.25 0z" fill="#bf7859"/><path d="m307.445 127.346-60.135-60.135c-7.249-7.249-7.249-19.001 0-26.25 7.249-7.249 19.001-7.249 26.25 0l60.135 60.135c7.249 7.249 7.249 19.001 0 26.25-7.248 7.249-19.001 7.249-26.25 0z" fill="#e29a6b"/></g></g></g><path d="m467.183 44.806c-27.909-27.91-65.003-43.815-104.448-44.786-4.127-.08-7.581 3.173-7.682 7.313-.102 4.141 3.172 7.58 7.313 7.683 35.578.875 69.035 15.222 94.21 40.397 68.27 68.267 46.882 183.146-39.825 223.056l-16.345-16.345c78.786-29.956 100.872-131.757 41.045-191.586-38.698-38.697-98.41-45.222-144.239-16.533l-15.459-15.459c14.946-10.077 31.923-17.216 49.601-20.803 4.06-.824 6.682-4.783 5.858-8.843-.824-4.059-4.783-6.68-8.842-5.858-21.46 4.356-41.991 13.431-59.657 26.334-16.904-5.633-34.418 6.932-34.34 24.834-6.711-.029-13.432 2.511-18.542 7.621-6.982 6.982-9.125 16.843-6.642 25.587-12.845 2.848-22.822 16.053-19.943 30.333-15.748 2.979-26.457 20.821-19.073 36.291-6.769 2.388-9.805 6.766-11.51 8.228-2.597 2.597-4.469 5.65-5.615 8.903-16.652-7.915-33.618 4.904-36.29 19.077-7.989-1.615-16.618.668-22.801 6.851l-.776.776c-6.306 6.306-8.558 15.082-6.782 23.204-94.059 45.485-116.491 171.114-41.547 246.057 75.111 75.111 200.665 52.323 246.062-41.562 3.882.85 7.921.774 11.769-.224 2.84 6.969 5.905 13.882 9.152 20.633 3.052 6.346 8.42 11.031 15.114 13.195 20.971 6.781 40.625-14.967 31.106-35.133-6.749-14.298-12.458-29.214-16.989-44.378 2.936-6.586 2.852-14.202-.251-20.73 3.254-1.146 6.306-3.017 8.904-5.615 1.487-1.725 5.871-4.798 8.244-11.513 15.774 7.486 33.413-3.761 36.292-19.081 17.987 3.625 34.566-13.175 30.219-31.312 94.992-44.926 117.965-171.357 42.709-246.612zm-36.339 36.34c54.326 54.326 30.672 146.986-42.245 169.172l-17.224-17.224c64.444-10.017 92.353-89.845 44.86-137.339-25.299-25.299-62.788-30.163-92.816-15.542l-15.28-15.28c39.509-22.902 89.815-16.679 122.705 16.213zm-110.399 59.136c23.314.068 34.856-28.186 18.554-44.49l-4.218-4.218c24.297-9.63 51.964-4.098 70.847 14.787 42.212 42.209 10.851 114.092-48.312 112.673l-54.113-54.113c10.206-3.646 17.29-13.391 17.242-24.639zm-67.833-94.018c4.313-4.311 11.331-4.314 15.645 0 9.715 9.715 45.013 45.012 60.135 60.135 4.312 4.313 4.312 11.331 0 15.644-4.04 4.041-10.365 4.275-14.671.866-.611-.674-61.164-61.241-61.974-61.974-3.389-4.28-3.195-10.609.865-14.671zm-26.173 26.174c4.007-4.005 10.84-4.651 15.568.076l60.136 60.136v-.001c4.711 4.712 4.092 11.552.076 15.567-4.312 4.314-11.33 4.315-15.644 0l-60.135-60.136c-4.324-4.321-4.324-11.318-.001-15.642zm-170.98 384.093c-67.561-67.559-47.619-181.592 38.415-222.397l16.264 16.265c-78.074 30.953-98.652 131.908-39.554 191.007 23.224 23.224 55.533 35.801 88.832 34.002 4.136-.224 7.308-3.758 7.084-7.894-.224-4.137-3.741-7.289-7.894-7.085-28.805 1.551-57.028-9.243-77.416-29.631-53.871-53.871-31.112-145.553 40.668-168.68l17.006 17.006c-63.201 11.129-89.988 90.141-43.064 137.066 46.796 46.796 125.898 20.356 137.064-43.065l17.005 17.005c-9.309 28.883-31.503 52.841-60.819 63.905-3.875 1.462-5.832 5.789-4.369 9.664 1.463 3.878 5.791 5.831 9.665 4.369 31.619-11.929 55.537-36.679 67.244-66.217l16.265 16.265c-40.675 85.749-154.65 106.164-222.396 38.415zm163.641-97.171c-.389 57.921-71.008 87.911-112.693 46.223-41.644-41.641-11.739-112.303 46.223-112.693zm70.054 48.841c-193.112-194.643-188.337-184.568-188.337-192.54 0-8.558 11.178-14.873 18.098-7.951l185.366 185.366c9.574 9.573-5.547 24.707-15.127 15.125zm42.409 36.707c-2.75-.889-4.955-2.815-6.21-5.425-3.488-7.252-6.758-14.698-9.749-22.197 5.623-6.094 7.713-14.305 6.15-22.057 2.637-.499 5.208-1.428 7.599-2.788 4.257 12.964 9.33 25.705 15.138 38.009 3.94 8.35-4.417 17.21-12.928 14.458zm7.55-102.19c-3.443 3.443-9.039 3.449-12.49.019l-74.933-74.933c-2.929-2.928-7.678-2.928-10.606 0-2.929 2.93-2.929 7.678 0 10.607 15.103 15.103 73.671 73.671 84.287 84.287 9.315 9.314-5.85 24.402-15.126 15.126-4.967-4.967-171.116-171.116-176.079-176.08-9.202-9.2 5.917-24.334 15.126-15.125l68.679 68.679c2.929 2.928 7.678 2.928 10.606 0 2.929-2.93 2.929-7.678 0-10.607l-59.324-59.324c-3.43-3.451-3.424-9.048.019-12.491l2.616-2.616c3.449-3.448 9.059-3.448 12.508-.002 164.435 165.621 159.924 156.538 159.924 163.589 0 5.049-3.845 7.169-5.207 8.871zm22.596-16.359c-1.931-1.931-174.148-174.149-176.078-176.079-9.195-9.193 5.842-24.409 15.126-15.125 4.964 4.964 171.115 171.114 176.079 176.079 9.223 9.221-5.938 24.314-15.127 15.125zm30.377-21.09c-20.778-20.778-164.21-164.209-185.365-185.364-7.007-7.008-.574-18.094 7.951-18.094 2.598 0 5.197.989 7.175 2.967 195.523 195.523 185.588 185.404 186.711 187.03 6.522 10.078-7.714 22.221-16.472 13.461z"/></g></svg>