<svg id="Capa_1" enable-background="new 0 0 512.423 512.423" height="512" viewBox="0 0 512.423 512.423" width="512" xmlns="http://www.w3.org/2000/svg"><g><g><path d="m229.58 101.739h31.214v330.804h-31.214z" fill="#e29a6b" transform="matrix(-.707 -.707 .707 -.707 229.663 629.412)"/><path d="m499.905 12.423 1.628 8.138c5.727 28.636 4.066 58.104-4.62 85.681-4.587 14.563-12.689 27.773-23.485 38.569l-52.955 52.955-105.91-105.91 52.955-52.956c10.796-10.796 24.007-18.899 38.569-23.485 27.576-8.686 57.044-10.347 85.681-4.62z" fill="#eaf6ff"/><path d="m364.562 141.855 52.956-52.955c10.796-10.796 24.007-18.899 38.569-23.485 15.806-4.978 32.234-7.649 48.77-7.943.219-12.314-.879-24.688-3.323-36.911l-1.628-8.138-8.138-1.628c-28.636-5.727-58.104-4.066-85.68 4.62-14.563 4.587-27.773 12.689-38.569 23.485l-52.955 52.955z" fill="#d8ecfe"/><g fill="#e5646e"><path d="m133.015 334.868h31.214v57.677h-31.214z" transform="matrix(-.707 -.707 .707 -.707 -3.466 725.977)"/><path d="m400.582 111.746c6.095 6.095 6.095 15.977 0 22.072l-46.944 46.944-22.072-22.072 46.944-46.944c6.095-6.095 15.977-6.095 22.072 0z"/><path d="m34.44 401.767c24.164 26.556 49.566 51.958 76.122 76.122-7.47 8.21-14.94 16.419-22.411 24.629-2.625 2.885-7.105 3.098-9.974.455-23.875-21.987-46.835-44.947-68.821-68.821-2.642-2.869-2.43-7.349.455-9.974 8.209-7.471 16.419-14.941 24.629-22.411z"/></g><g><path d="m49.355 474.151c-2.642-2.869-2.43-7.349.455-9.974 7.898-7.186 15.795-14.372 23.693-21.558-13.354-13.292-26.38-26.913-39.064-40.852-8.21 7.47-16.419 14.94-24.629 22.411-2.885 2.625-3.098 7.105-.455 9.974 17.382 18.875 33.944 35.812 52.514 53.515-4.69-4.92-7.909-8.516-12.514-13.516z" fill="#db4655"/></g></g><path d="m507.26 10.952c-.594-2.969-2.915-5.29-5.883-5.884-1.94-.117-52.888-13.989-103.108 5.127-3.871 1.473-5.816 5.805-4.343 9.677 1.473 3.87 5.802 5.816 9.677 4.343 44.423-16.888 89.113-5.461 89.929-5.418.174 2.245 10.65 39.405-3.772 85.191-4.176 13.259-11.657 25.541-21.635 35.519l-47.652 47.652-31.312-31.312 16.726-16.726c9.009-9.01 9.008-23.669 0-32.679-9.01-9.009-23.669-9.009-32.678 0l-16.726 16.726-31.313-31.312c50.369-50.28 48.062-48.263 51.884-51.617 3.113-2.732 3.422-7.471.689-10.584s-7.471-3.422-10.584-.689c-4.553 3.996-3.172 2.963-57.899 57.587-2.929 2.93-2.929 7.678 0 10.607l36.616 36.616-230.829 230.827c-14.99-4.013-29.285-3.518-39-2.292-9.413 1.187-18.308 5.553-25.048 12.292l-46.236 44.026c-5.943 5.407-6.409 14.647-.925 20.604 6.857 7.445 13.921 14.922 20.998 22.221 2.884 2.975 7.632 3.047 10.605.164s3.047-7.632.164-10.605c-6.877-7.093-13.743-14.356-20.413-21.593l18.765-17.074c21.043 22.82 43.203 44.979 66.026 66.024l-17.075 18.765c-8.009-7.381-16.016-14.971-23.807-22.564-2.965-2.89-7.714-2.831-10.605.136s-2.831 7.715.136 10.606c8.004 7.802 16.235 15.6 24.463 23.177 5.932 5.463 15.175 5.04 20.602-.924l44.028-46.234c6.74-6.74 11.105-15.636 12.292-25.049 1.225-9.716 1.72-24.01-2.292-39l140.325-140.325c2.929-2.93 2.929-7.678 0-10.607-2.929-2.928-7.678-2.928-10.606 0l-97.393 97.393-11.465-11.465 162.982-162.982 11.465 11.466-42.475 42.474c-2.929 2.93-2.929 7.678 0 10.607 2.929 2.928 7.678 2.928 10.606 0 8.392-8.391 59.742-59.742 67.391-67.391l36.616 36.616c2.93 2.929 7.678 2.928 10.606 0l52.955-52.955c11.677-11.677 20.438-26.069 25.335-41.62 16.453-52.238 3.604-92.753 3.193-97.542zm-123.446 106.097c3.161-3.162 8.304-3.162 11.465 0 3.161 3.16 3.161 8.304 0 11.465l-41.641 41.642c-4.01-4.01-7.456-7.456-11.465-11.466zm-248.678 317.356c-.773 6.126-3.62 11.922-8.017 16.318l-16.786 16.786c-22.65-20.876-44.641-42.867-65.514-65.515l16.785-16.785c4.397-4.397 10.192-7.245 16.318-8.017 8.792-1.108 21.899-1.538 35.269 2.473l19.47 19.472c4.012 13.37 3.583 26.478 2.475 35.268zm34.307-80.055-30.177 30.177-11.465-11.465 30.177-30.177z"/></g></svg>