<svg id="Capa_1" enable-background="new 0 0 511.996 511.996" height="512" viewBox="0 0 511.996 511.996" width="512" xmlns="http://www.w3.org/2000/svg"><g><path d="m224.939 7.5h62.125v496.996h-62.125z" fill="#e29a6b"/><path d="m224.939 7.5h62.125v280h-62.125z" fill="#ce845c"/><path d="m395.781 131.749h-248.498l-31.062-46.593 31.062-46.594h248.498z" fill="#e29a6b"/><path d="m167.315 88.515 11.062-16.593c5.564-8.346 14.931-13.359 24.962-13.359h192.443v-20h-248.499l-31.062 46.593 31.062 46.593h26.667l-6.635-9.952c-6.718-10.077-6.718-23.205 0-33.282z" fill="#ce845c"/><path d="m403.547 255.998h-326.154v-93.187h326.154l31.062 46.594z" fill="#e29a6b"/><path d="m147.393 182.811h269.487l-13.333-20h-326.154v93.187h40v-43.187c0-16.568 13.432-30 30-30z" fill="#ce845c"/><path d="m36.378 504.496h191.885c-6.859-17.427-22.418-30.476-41.329-33.798.004-.275.007-.55.007-.827 0-30.166-24.454-54.62-54.62-54.62s-54.621 24.454-54.621 54.62c0 .276.003.552.007.827-18.91 3.322-34.469 16.371-41.329 33.798z" fill="#95d6a4"/><g><path d="m93.219 495.415c7.923-3.882 14.018-10.838 16.248-19.375 6.108-23.385 27.366-40.79 52.854-40.79 4.692 0 9.247.592 13.592 1.705-9.971-13.185-25.787-21.705-43.592-21.705-30.166 0-54.621 24.454-54.621 54.62 0 .276.003.552.007.827-18.91 3.322-34.47 16.371-41.329 33.798h43.647c3.908-3.635 8.349-6.706 13.194-9.08z" fill="#78c2a4"/></g><path d="m421.004 449.876c-.276 0-.552.003-.827.007-4.502-25.63-26.873-45.106-53.794-45.106-2.644 0-5.243.189-7.786.552-12.722-26.356-39.702-44.539-70.928-44.539-31.479 0-58.642 18.479-71.234 45.181-3.679-.782-7.494-1.194-11.406-1.194-30.166 0-54.621 24.455-54.621 54.621 0 18.731 9.429 35.26 23.8 45.099h301.416c0-30.167-24.454-54.621-54.62-54.621z" fill="#95d6a4"/><g><path d="m252.911 424.816c8.224-.312 15.875-4.31 20.657-11.007 14.874-20.829 39.395-33.818 66.571-32.981-39.169-35.051-101.225-22.527-123.704 25.142-33.32-7.08-64.271 17.723-65.953 50.553-1.02 19.907 8.625 37.633 23.726 47.973h32.297c-18.443-35.58 6.838-78.18 46.406-79.68z" fill="#78c2a4"/></g></g><g><g><path d="m168.246 93.187c-4.142 0-7.5 3.358-7.5 7.5s3.358 7.5 7.5 7.5h72.224c4.142 0 7.5-3.358 7.5-7.5s-3.358-7.5-7.5-7.5z"/><path d="m312.448 108.187h49.699c4.143 0 7.5-3.358 7.5-7.5s-3.357-7.5-7.5-7.5h-49.699c-4.143 0-7.5 3.358-7.5 7.5s3.357 7.5 7.5 7.5z"/><path d="m298.369 62.125h-33.921c-4.143 0-7.5 3.358-7.5 7.5s3.357 7.5 7.5 7.5h33.921c4.143 0 7.5-3.358 7.5-7.5s-3.357-7.5-7.5-7.5z"/><path d="m255.189 224.936c0-4.142-3.358-7.5-7.5-7.5h-33.921c-4.142 0-7.5 3.358-7.5 7.5s3.358 7.5 7.5 7.5h33.921c4.142 0 7.5-3.358 7.5-7.5z"/><path d="m256.001 201.374h93.187c4.143 0 7.5-3.358 7.5-7.5s-3.357-7.5-7.5-7.5h-93.187c-4.142 0-7.5 3.358-7.5 7.5s3.358 7.5 7.5 7.5z"/><path d="m170.58 217.436h-59.166c-4.142 0-7.5 3.358-7.5 7.5s3.358 7.5 7.5 7.5h59.166c4.142 0 7.5-3.358 7.5-7.5s-3.358-7.5-7.5-7.5z"/><path d="m159.842 201.374h49.566c4.142 0 7.5-3.358 7.5-7.5s-3.358-7.5-7.5-7.5h-49.566c-4.142 0-7.5 3.358-7.5 7.5s3.358 7.5 7.5 7.5z"/><path d="m277.918 224.936c0 4.142 3.357 7.5 7.5 7.5h83.056c4.143 0 7.5-3.358 7.5-7.5s-3.357-7.5-7.5-7.5h-83.056c-4.142 0-7.5 3.357-7.5 7.5z"/><path d="m443.032 446.396c-3.871-1.466-8.203.479-9.673 4.353-1.469 3.873.479 8.204 4.353 9.673 15.82 6 27.126 20.179 29.804 36.575h-290.892c-11.76-8.897-18.715-22.789-18.715-37.599 0-29.811 27.545-52.344 56.967-46.09 3.403.725 6.858-.99 8.343-4.138 25.503-54.081 102.624-54.444 128.625-.581 4.255 8.808 6.71 19.163 6.71 29.978 0 4.142 3.357 7.5 7.5 7.5s7.5-3.358 7.5-7.5c0-9.011-1.373-17.78-4.091-26.187 16.98 1.124 32.299 11.475 39.597 27.012 1.76 3.75 6.229 5.36 9.977 3.6 3.749-1.761 5.361-6.228 3.6-9.977-10.607-22.585-34.203-37.059-59.734-35.641-14.019-24.943-39.888-41.482-68.338-43.802v-90.073h108.983c2.508 0 4.85-1.253 6.24-3.34l31.062-46.593c1.68-2.519 1.68-5.801 0-8.32-6.203-9.305-24.678-37.017-31.062-46.594-1.391-2.086-3.732-3.34-6.24-3.34h-108.984v-16.062h101.218c4.143 0 7.5-3.358 7.5-7.5v-93.188c0-4.142-3.357-7.5-7.5-7.5h-42.141c-4.143 0-7.5 3.358-7.5 7.5s3.357 7.5 7.5 7.5h34.641v16.062h-47.115c-4.143 0-7.5 3.358-7.5 7.5s3.357 7.5 7.5 7.5h47.115v47.125h-236.985l-26.062-39.093 5.354-8.031h94.35c4.142 0 7.5-3.358 7.5-7.5s-3.358-7.5-7.5-7.5h-84.35l10.708-16.062h169.657c4.143 0 7.5-3.358 7.5-7.5s-3.357-7.5-7.5-7.5h-26.391v-23.563c0-4.142-3.357-7.5-7.5-7.5h-62.124c-4.142 0-7.5 3.358-7.5 7.5v23.562h-70.156c-2.508 0-4.85 1.253-6.24 3.34-6.356 9.534-24.899 37.347-31.062 46.593-1.68 2.519-1.68 5.801 0 8.32l31.062 46.593c1.391 2.086 3.732 3.34 6.24 3.34h70.156v16.062h-140.046c-4.142 0-7.5 3.358-7.5 7.5v93.187c0 4.142 3.358 7.5 7.5 7.5h140.046v33.366c0 4.142 3.358 7.5 7.5 7.5s7.5-3.358 7.5-7.5v-33.366h47.124v90.178c-17.479 1.67-33.892 8.684-47.124 19.699v-43.824c0-4.142-3.358-7.5-7.5-7.5s-7.5 3.358-7.5 7.5v59.957c-1.871 2.615-3.603 5.347-5.183 8.188-18.947-2.198-37.392 4.323-50.69 17.36-39.248-20.961-87.462 5.243-91.151 49.626-18.499 5.219-33.9 18.991-41.016 37.069-1.937 4.922 1.701 10.247 6.979 10.247h439.246c4.143 0 7.5-3.358 7.5-7.5 0-25.656-16.112-49.004-40.092-58.101zm-210.593-431.396h47.124v16.062h-47.124zm0 124.249h47.124v16.062h-47.124zm-147.546 62.125h44.541c4.142 0 7.5-3.358 7.5-7.5s-3.358-7.5-7.5-7.5h-44.541v-16.062h314.64l10.708 16.062h-24.715c-4.143 0-7.5 3.358-7.5 7.5s3.357 7.5 7.5 7.5h34.715l5.354 8.031-26.062 39.093h-314.64zm-5.888 276.71c3.408-.598 6.195-3.264 6.195-8.213 0-34.246 35.63-57.163 66.811-42.821-13.313 21.74-11.944 49.544 3.568 69.945h-106.614c7.111-9.84 17.899-16.777 30.04-18.911z"/></g></g></svg>