<svg id="Capa_1" enable-background="new 0 0 511.996 511.996" height="512" viewBox="0 0 511.996 511.996" width="512" xmlns="http://www.w3.org/2000/svg"><g><g><path d="m62.471 185.105-16.659 24.3 47.587 62.185 26.484-64.829z" fill="#5680a6"/><path d="m86.307 194.096-23.836-8.991-16.659 24.299 47.586 62.185 10.442-25.559-16.748-21.887c-6.729-8.792-7.046-20.914-.785-30.047z" fill="#497090"/><path d="m388.49 175.593h-217.436c0-17.155 13.907-31.062 31.062-31.062h155.311c17.156 0 31.063 13.907 31.063 31.062z" fill="#eaf6ff"/><path d="m247.683 144.531h-45.566c-17.155 0-31.062 13.907-31.062 31.062h45.566c0-17.155 13.907-31.062 31.062-31.062z" fill="#d8ecfe"/><path d="m310.834 144.531h-62.124l11.135-22.269c2.694-5.389 8.202-8.793 14.227-8.793h11.401c6.025 0 11.533 3.404 14.227 8.793z" fill="#5680a6"/><path d="m294.772 116.47c-2.659-1.916-5.897-3.002-9.3-3.002h-11.401c-6.025 0-11.533 3.404-14.227 8.793l-11.135 22.269h30l11.135-22.269c1.173-2.345 2.879-4.314 4.928-5.791z" fill="#497090"/><path d="m431.857 113.852-12.521-69.447c-3.852-21.364-22.446-36.905-44.154-36.905h-190.82c-21.708 0-40.301 15.541-44.153 36.904l-12.955 71.855c-1.455 8.07 4.747 15.49 12.947 15.49h4.178c6.431 0 11.919-4.649 12.977-10.993l10.124-60.74c2.063-12.38 12.775-21.454 25.325-21.454h173.935c12.551 0 23.262 9.074 25.325 21.454l9.839 59.032c1.222 7.329 7.563 12.701 14.993 12.701 9.475 0 16.641-8.573 14.96-17.897z" fill="#95d6a4"/><g><path d="m254.362 7.5h-70c-21.708 0-40.301 15.541-44.153 36.904l-12.955 71.855c-1.455 8.07 4.747 15.49 12.947 15.49h4.178c6.431 0 11.919-4.649 12.977-10.993l10.124-60.74c2.063-12.38 12.775-21.454 25.325-21.454h18.865c5.901-18.296 23.018-31.062 42.692-31.062z" fill="#78c2a4"/></g><path d="m434.7 194.618c-6.276-11.714-18.487-19.025-31.777-19.025h-246.302c-13.289 0-25.501 7.311-31.777 19.025l-31.445 76.972v201.844l5.661 17.403c2.649 8.145 10.241 13.659 18.807 13.659h323.812c8.565 0 16.157-5.514 18.807-13.659l5.661-17.403v-201.844z" fill="#5680a6"/><path d="m159.059 490.837-5.661-17.403v-201.844l31.445-76.972c6.276-11.714 18.487-19.025 31.777-19.025h-60c-13.289 0-25.501 7.311-31.777 19.025l-31.444 76.972v201.844l5.661 17.403c2.649 8.145 10.241 13.659 18.807 13.659h60c-8.566 0-16.158-5.514-18.808-13.659z" fill="#497090"/><path d="m93.337 271.509h372.809v201.925h-372.809z" fill="#eaf6ff"/><path d="m93.337 271.509h60v201.925h-60z" fill="#d8ecfe"/></g><path d="m441.643 191.782c-.098-.241-.209-.476-.332-.706-3.458-6.455-8.392-11.797-14.259-15.701v-38.518c8.891-4.447 13.998-14.285 12.185-24.336l-12.521-69.448c-4.499-24.958-26.172-43.073-51.534-43.073h-190.82c-25.361 0-47.035 18.115-51.534 43.074l-12.955 71.854c-1.785 9.898 3.796 19.401 12.828 22.916v37.392c-13.556 8.909-16.521 21.149-17 21.931l-50.582-19.08c-3.234-1.218-6.879-.072-8.833 2.777l-16.659 24.299c-1.833 2.674-1.741 6.224.23 8.799l46.042 60.167v49.571c0 4.142 3.358 7.5 7.5 7.5s7.5-3.358 7.5-7.5v-44.692h357.747v186.924h-49.188c-4.142 0-7.5 3.358-7.5 7.5s3.358 7.5 7.5 7.5h46.361l-2.467 7.583c-1.649 5.071-6.341 8.479-11.674 8.479h-323.812c-5.333 0-10.025-3.408-11.674-8.479l-2.467-7.583h274.019c4.142 0 7.5-3.358 7.5-7.5s-3.358-7.5-7.5-7.5h-276.845v-109.545c0-4.142-3.358-7.5-7.5-7.5s-7.5 3.358-7.5 7.5c-.068 127.322-.4 118.02.655 120.25l5.373 16.52c3.666 11.269 14.089 18.839 25.939 18.839h323.812c11.85 0 22.273-7.571 25.939-18.839 6.078-18.889 6.028-17.863 6.028-19.723v-201.925c.001-2.253 2.453 4.766-32.002-79.727zm-293.942-52.797c8.64-1.387 15.571-8.109 17.052-16.996l10.124-60.74c1.467-8.8 9.006-15.187 17.928-15.187h40.375c4.142 0 7.5-3.358 7.5-7.5s-3.358-7.5-7.5-7.5h-40.375c-16.284 0-30.046 11.658-32.724 27.721l-10.124 60.74c-.457 2.738-2.803 4.726-5.579 4.726h-4.178c-3.528 0-6.193-3.186-5.566-6.66l12.955-71.854c3.212-17.809 18.676-30.735 36.773-30.735h190.82c18.097 0 33.562 12.926 36.772 30.735l12.521 69.448c.852 4.73-2.765 9.066-7.578 9.066-3.78 0-6.974-2.706-7.595-6.434l-9.839-59.032c-2.677-16.062-16.439-27.721-32.723-27.721h-101.687c-4.142 0-7.5 3.358-7.5 7.5s3.358 7.5 7.5 7.5h101.687c8.921 0 16.46 6.387 17.927 15.187l9.839 59.031c1.558 9.354 8.611 16.525 17.546 18.454v30.321c-6.625-1.415-10.932-.823-16.795-.962-3.5-17.686-19.132-31.062-37.829-31.062h-41.959l-9.061-18.124c-3.991-7.981-12.013-12.938-20.936-12.938h-11.4c-8.922 0-16.944 4.958-20.936 12.939l-9.061 18.124h-41.959c-18.698 0-34.329 13.376-37.829 31.062-5.877.135-10.092-.436-16.586.918zm209.727 13.046c10.372 0 19.199 6.735 22.338 16.062h-199.988c3.139-9.327 11.967-16.062 22.338-16.062zm-96.583-15 5.707-11.415c1.434-2.867 4.315-4.647 7.52-4.647h11.4c3.205 0 6.086 1.781 7.519 4.647l5.708 11.416h-37.854zm-104.225 46.062c255.473 1.078 248.134-2.505 259.157 3.049.205.12.417.23.634.331 4.766 2.554 8.79 6.455 11.502 11.364l27.033 66.172h-350.35l27.033-66.172c5.059-9.157 14.635-14.744 24.991-14.744zm-91.29 11.107 44.696 16.859-18.622 45.583-36.332-47.479z"/></g></svg>