<svg id="Capa_1" enable-background="new 0 0 511.996 511.996" height="512" viewBox="0 0 511.996 511.996" width="512" xmlns="http://www.w3.org/2000/svg"><g><path d="m357.725 504.496h-203.454c-12.439 0-22.522-10.084-22.522-22.522v-296.64c0-12.439 10.084-22.522 22.522-22.522h203.453c12.439 0 22.522 10.084 22.522 22.522v296.64c.001 12.439-10.083 22.522-22.521 22.522z" fill="#ffeb99"/><path d="m202.836 481.974v-296.64c0-12.439 10.084-22.522 22.522-22.522h-71.087c-12.439 0-22.522 10.084-22.522 22.522v296.64c0 12.439 10.084 22.522 22.522 22.522h71.087c-12.438 0-22.522-10.083-22.522-22.522z" fill="#ffe477"/><path d="m211.171 162.811h-48.36l8.649-155.311h31.062z" fill="#5680a6"/><path d="m171.46 7.5-8.649 155.311h20l8.649-155.311z" fill="#497090"/><path d="m337.898 349.185h-163.801c-6.233 0-11.286-5.053-11.286-11.286v-70.614c0-6.233 5.053-11.286 11.286-11.286h163.801c6.233 0 11.286 5.053 11.286 11.286v70.614c.001 6.233-5.052 11.286-11.286 11.286z" fill="#eaf6ff"/><path d="m202.836 255.998h-28.739c-6.233 0-11.286 5.053-11.286 11.286v70.615c0 6.233 5.053 11.286 11.286 11.286h28.739z" fill="#d8ecfe"/><path d="m287.06 504.496h-62.125v-23.062c0-4.418 3.582-8 8-8h46.125c4.418 0 8 3.582 8 8z" fill="#ffb124"/><path d="m411.309 364.716-31.062 15.531v-170.842l31.062 15.531z" fill="#5680a6"/><path d="m400.247 219.405-20-10v170.842l20-10z" fill="#497090"/><path d="m131.749 287.06h-16.062c-8.284 0-15-6.716-15-15v-63.187c0-8.284 6.716-15 15-15h16.062z" fill="#5680a6"/><path d="m120.687 272.06v-63.187c0-6.922 4.688-12.748 11.062-14.478v-.522h-16.062c-8.284 0-15 6.716-15 15v63.187c0 8.284 6.716 15 15 15h16.062v-.522c-6.374-1.73-11.062-7.556-11.062-14.478z" fill="#497090"/><path d="m131.749 379.716h-16.062c-8.284 0-15-6.716-15-15v-31.593c0-8.284 6.716-15 15-15h16.062z" fill="#5680a6"/><path d="m120.687 364.716v-31.593c0-6.922 4.688-12.748 11.062-14.478v-.522h-16.062c-8.284 0-15 6.716-15 15v31.593c0 8.284 6.716 15 15 15h16.062v-.522c-6.374-1.73-11.062-7.556-11.062-14.478z" fill="#497090"/><path d="m315.591 116.218h20.593c7.18 0 13 5.82 13 13v33.593h-46.593v-33.593c0-7.18 5.82-13 13-13z" fill="#5680a6"/><path d="m335.591 116.218h-20c-7.18 0-13 5.82-13 13v33.593h20v-33.593c0-7.18 5.82-13 13-13z" fill="#497090"/></g><g><g><path d="m178.342 201.374h155.311c4.143 0 7.5-3.358 7.5-7.5s-3.357-7.5-7.5-7.5h-155.311c-4.142 0-7.5 3.358-7.5 7.5s3.358 7.5 7.5 7.5z"/><path d="m178.342 232.436h155.311c4.143 0 7.5-3.358 7.5-7.5s-3.357-7.5-7.5-7.5h-155.311c-4.142 0-7.5 3.358-7.5 7.5s3.358 7.5 7.5 7.5z"/><path d="m155.311 267.284v70.614c0 10.359 8.427 18.786 18.786 18.786h163.801c10.358 0 18.786-8.427 18.786-18.786v-70.614c0-10.359-8.428-18.786-18.786-18.786h-34.495c-4.143 0-7.5 3.358-7.5 7.5s3.357 7.5 7.5 7.5h34.495c2.088 0 3.786 1.698 3.786 3.786v70.614c0 2.088-1.698 3.786-3.786 3.786h-163.801c-2.088 0-3.786-1.698-3.786-3.786v-70.614c0-2.088 1.698-3.786 3.786-3.786h97.432c4.143 0 7.5-3.358 7.5-7.5s-3.357-7.5-7.5-7.5h-97.432c-10.358 0-18.786 8.427-18.786 18.786z"/><path d="m162.811 387.747h38.417c4.142 0 7.5-3.358 7.5-7.5s-3.358-7.5-7.5-7.5h-38.417c-4.142 0-7.5 3.358-7.5 7.5s3.358 7.5 7.5 7.5z"/><path d="m349.184 372.747h-38.417c-4.143 0-7.5 3.358-7.5 7.5s3.357 7.5 7.5 7.5h38.417c4.143 0 7.5-3.358 7.5-7.5s-3.357-7.5-7.5-7.5z"/><path d="m276.824 372.747h-38.417c-4.142 0-7.5 3.358-7.5 7.5s3.358 7.5 7.5 7.5h38.417c4.143 0 7.5-3.358 7.5-7.5s-3.357-7.5-7.5-7.5z"/><path d="m162.811 418.809h38.417c4.142 0 7.5-3.358 7.5-7.5s-3.358-7.5-7.5-7.5h-38.417c-4.142 0-7.5 3.358-7.5 7.5s3.358 7.5 7.5 7.5z"/><path d="m349.184 403.809h-38.417c-4.143 0-7.5 3.358-7.5 7.5s3.357 7.5 7.5 7.5h38.417c4.143 0 7.5-3.358 7.5-7.5s-3.357-7.5-7.5-7.5z"/><path d="m276.824 403.809h-38.417c-4.142 0-7.5 3.358-7.5 7.5s3.358 7.5 7.5 7.5h38.417c4.143 0 7.5-3.358 7.5-7.5s-3.357-7.5-7.5-7.5z"/><path d="m162.811 449.872h38.417c4.142 0 7.5-3.358 7.5-7.5s-3.358-7.5-7.5-7.5h-38.417c-4.142 0-7.5 3.358-7.5 7.5s3.358 7.5 7.5 7.5z"/><path d="m349.184 434.872h-38.417c-4.143 0-7.5 3.358-7.5 7.5s3.357 7.5 7.5 7.5h38.417c4.143 0 7.5-3.358 7.5-7.5s-3.357-7.5-7.5-7.5z"/><path d="m276.824 434.872h-38.417c-4.142 0-7.5 3.358-7.5 7.5s3.358 7.5 7.5 7.5h38.417c4.143 0 7.5-3.358 7.5-7.5s-3.357-7.5-7.5-7.5z"/><path d="m414.664 218.228-26.917-13.458v-19.436c0-16.554-13.468-30.022-30.022-30.022h-1.04v-26.094c0-11.304-9.196-20.5-20.5-20.5h-20.593c-11.304 0-20.5 9.196-20.5 20.5v26.094h-76.827l-2.41-43.267c-.23-4.136-3.777-7.295-7.905-7.071-4.136.23-7.302 3.77-7.071 7.905l2.363 42.433h-32.502l7.813-140.312h16.875l3.63 65.192c.23 4.136 3.77 7.309 7.905 7.071 4.136-.23 7.302-3.77 7.071-7.905l-4.024-72.275c-.221-3.974-3.508-7.083-7.488-7.083h-31.062c-3.98 0-7.267 3.109-7.488 7.083l-8.254 148.229h-1.446c-16.554 0-30.022 13.468-30.022 30.022v1.04h-8.562c-12.407 0-22.5 10.093-22.5 22.5v63.187c0 12.407 10.093 22.5 22.5 22.5h8.562v16.062h-8.562c-12.407 0-22.5 10.093-22.5 22.5v31.593c0 12.407 10.093 22.5 22.5 22.5h8.562v36.638c0 4.142 3.358 7.5 7.5 7.5s7.5-3.358 7.5-7.5v-238.521c0-8.283 6.739-15.022 15.022-15.022h203.453c8.283 0 15.022 6.739 15.022 15.022v296.64c0 8.283-6.739 15.022-15.022 15.022h-63.165v-15.562c0-8.547-6.953-15.5-15.5-15.5h-46.124c-8.547 0-15.5 6.953-15.5 15.5v15.562h-63.165c-8.283 0-15.022-6.739-15.022-15.022v-26.109c0-4.142-3.358-7.5-7.5-7.5s-7.5 3.358-7.5 7.5v26.109c0 16.554 13.468 30.022 30.022 30.022h203.453c16.555 0 30.022-13.468 30.022-30.022v-97.091l26.917-13.458c2.54-1.27 4.146-3.867 4.146-6.708v-139.78c0-2.841-1.605-5.438-4.145-6.708zm-298.977 61.332c-4.136 0-7.5-3.364-7.5-7.5v-63.187c0-4.136 3.364-7.5 7.5-7.5h8.562v78.187zm0 92.656c-4.136 0-7.5-3.364-7.5-7.5v-31.593c0-4.136 3.364-7.5 7.5-7.5h8.562v46.593zm194.405-216.904v-26.094c0-3.033 2.467-5.5 5.5-5.5h20.593c3.033 0 5.5 2.467 5.5 5.5v26.094zm-77.656 341.684c.212-15.179-.463-16.062.5-16.062 48.017.231 46.624-.48 46.624.5v15.562zm171.373-136.915-16.062 8.031v-146.572l16.062 8.031z"/></g></g></svg>