<svg id="Capa_1" enable-background="new 0 0 512 512" height="512" viewBox="0 0 512 512" width="512" xmlns="http://www.w3.org/2000/svg"><g><g><g><path d="m488.617 194.611h-46.691v-54.707h46.691c8.772 0 15.883 7.111 15.883 15.883v22.941c0 8.772-7.111 15.883-15.883 15.883z" fill="#e1d3ce"/></g></g><g><g><path d="m162.831 147.185c-27.551-12.128-40.054-44.294-27.926-71.845l18.576-42.2c1.868-4.245 6.824-6.171 11.069-4.302l84.4 37.152c4.245 1.868 6.171 6.824 4.302 11.068l-18.576 42.2c-12.129 27.551-44.295 40.054-71.845 27.927z" fill="#f3eae6"/></g></g><g><g><path d="m130.35 99.925c.979 19.969 12.937 38.657 32.481 47.259 27.551 12.128 59.717-.375 71.844-27.926l8.51-19.333z" fill="#e1d3ce"/></g></g><g><g><path d="m79.936 143.424v27.178c0 6.797 5.51 12.307 12.307 12.307h19.34c6.647 0 13.057 2.47 17.985 6.931l30.334 27.458c4.928 4.461 11.338 6.931 17.985 6.931h102.152c29.451 0 55.537 19.001 64.571 47.032l38.767 112.636c2.553 7.417 9.531 12.395 17.375 12.395h25.056c11.825 0 20.572-11.008 17.9-22.527l-27.129-116.953c-2.153-9.28 1.915-18.891 10.075-23.807l7.725-4.653c13.003-7.832 20.954-21.903 20.954-37.083v-48.399c0-9.348-7.572-16.927-16.919-16.935-63.315-.049-276.059-.22-340.735-.252-9.802-.003-17.743 7.94-17.743 17.741z" fill="#b9acac"/></g></g><g><g><path d="m426.652 233.005 7.725-4.653c13.003-7.833 20.954-21.903 20.954-37.083v-48.399c0-9.348-7.571-16.927-16.919-16.934-63.315-.049-85.613-.043-30 0 9.348.007 16.919 7.587 16.919 16.934v48.399c0 15.18-7.951 29.25-20.954 37.083l-7.725 4.653c-8.161 4.915-12.228 14.526-10.075 23.807l27.129 116.953c2.479 10.688-4.875 20.93-15.394 22.353.802.107 1.614.174 2.439.174h25.056c11.825 0 20.572-11.007 17.9-22.527l-27.129-116.953c-2.154-9.28 1.914-18.891 10.074-23.807z" fill="#9e9797"/></g></g><g><g><path d="m422.105 280.642h-74.267l35.538 103.255c2.552 7.417 9.531 12.395 17.375 12.395h25.056c11.825 0 20.572-11.007 17.9-22.527z" fill="#efe2dd"/></g></g><g><g><path d="m443.706 373.765-21.601-93.123h-30l21.601 93.123c2.479 10.688-4.874 20.93-15.394 22.353.801.107 1.613.174 2.438.174h25.056c11.826 0 20.572-11.007 17.9-22.527z" fill="#e1d3ce"/></g></g><g><g><path d="m7.5 156.285c0 7.031 5.375 12.896 12.38 13.507l60.055 5.237v-37.487l-60.055 5.237c-7.005.61-12.38 6.474-12.38 13.506z" fill="#e1d3ce"/></g></g><g><g><path d="m356.055 125.871h-49.292v-24.876c0-3.146 2.55-5.696 5.696-5.696h37.899c3.146 0 5.696 2.55 5.696 5.696v24.876z" fill="#b9acac"/></g></g><g><path d="m488.617 132.403h-28.147c-3.926-8.243-12.333-13.959-22.052-13.968l-30-.024c-.002 0-.004 0-.006 0-4.139 0-7.497 3.354-7.5 7.494-.003 4.142 3.352 7.503 7.494 7.506l30 .023c5.196.004 9.425 4.237 9.425 9.436v48.398c0 12.474-6.639 24.222-17.324 30.658l-7.724 4.653c-10.978 6.611-16.408 19.441-13.513 31.926l3.395 14.636h-59.477l-1.464-4.255c-10.091-31.199-38.89-52.158-71.686-52.158h-7.25v-83.407l105.619.09h.006c4.14 0 7.497-3.354 7.5-7.494.003-4.143-3.352-7.503-7.494-7.506l-14.863-.013v-17.404c0-7.276-5.92-13.196-13.196-13.196h-37.9c-7.276 0-13.196 5.92-13.196 13.196v17.35s-47.4-.04-55.97-.047l16.823-38.218c3.531-8.023-.123-17.423-8.145-20.953l-84.4-37.152c-8.021-3.532-17.422.122-20.954 8.146l-18.578 42.198c-6.448 14.652-6.954 31.01-1.616 45.884-10.99-.007-20.712-.014-28.742-.018-.005 0-.009 0-.014 0-6.739 0-13.074 2.624-17.84 7.39-1.455 1.456-2.709 3.059-3.751 4.775l-56.847 4.958c-10.963.955-19.23 9.973-19.23 20.977 0 11.005 8.267 20.023 19.229 20.979l57.018 4.973c3.605 4.943 9.423 8.174 15.996 8.174h19.34c4.796 0 9.396 1.773 12.952 4.991l30.334 27.458c6.319 5.721 14.494 8.871 23.018 8.871h47.589c4.143 0 7.5-3.357 7.5-7.5s-3.357-7.5-7.5-7.5h-47.589c-4.796 0-9.395-1.772-12.951-4.992l-30.334-27.458c-6.32-5.72-14.495-8.87-23.019-8.87h-19.34c-2.65 0-4.808-2.156-4.808-4.808v-27.178c0-2.737 1.065-5.309 2.999-7.243 1.933-1.933 4.501-2.996 7.234-2.996h.005c33.652.017 96.795.071 160.114.125v83.42h-2.312c-4.143 0-7.5 3.357-7.5 7.5s3.357 7.5 7.5 7.5h24.562c26.288 0 49.368 16.811 57.433 41.832.016.047.031.094.047.14l38.767 112.636c3.594 10.441 13.426 17.455 24.467 17.455h7.11v80.081c0 4.142 3.357 7.5 7.5 7.5s7.5-3.358 7.5-7.5v-80.081h2.945c7.938 0 15.321-3.564 20.259-9.778s6.741-14.212 4.947-21.942l-27.13-116.953c-1.422-6.135 1.246-12.439 6.641-15.688l7.725-4.653c12.011-7.236 20.397-19.207 23.373-32.666h26.996c12.894 0 23.383-10.49 23.383-23.384v-22.941c0-12.894-10.49-23.385-23.383-23.385zm-416.182 34.443-51.904-4.526c-3.153-.275-5.531-2.87-5.531-6.036 0-3.165 2.378-5.76 5.531-6.034l51.903-4.526v21.122zm241.828-64.047h34.292v15.572h-18.484l-15.808-.014zm-172.495-24.438 18.576-42.198c.199-.454.734-.658 1.184-.461l84.4 37.152c.452.199.658.73.459 1.183l-18.575 42.196c-.304.692-.631 1.374-.967 2.05-30.348-.026-59.509-.05-84.149-.069-6.22-12.536-6.56-27.056-.928-39.853zm292.553 306.321c-2.075 2.612-5.179 4.11-8.515 4.11h-25.056c-4.641 0-8.773-2.948-10.283-7.336l-32.116-93.313h57.795l20.255 87.317c.753 3.249-.005 6.61-2.08 9.222zm62.679-205.954c0 4.623-3.761 8.384-8.383 8.384h-25.785v-39.708h25.785c4.622 0 8.383 3.761 8.383 8.384z"/><path d="m345.398 160.581c0 4.143 3.358 7.5 7.5 7.5h42.479c4.143 0 7.5-3.357 7.5-7.5s-3.357-7.5-7.5-7.5h-42.479c-4.143 0-7.5 3.357-7.5 7.5z"/><path d="m395.376 183.223h-42.479c-4.142 0-7.5 3.357-7.5 7.5s3.358 7.5 7.5 7.5h42.479c4.143 0 7.5-3.357 7.5-7.5s-3.357-7.5-7.5-7.5z"/></g></g></svg>