<svg id="Capa_1" enable-background="new 0 0 512 512" height="512" viewBox="0 0 512 512" width="512" xmlns="http://www.w3.org/2000/svg"><g><g><g><path d="m378.813 266.852h-245.627c-5.004 0-9.061-4.057-9.061-9.061v-125.054h263.749v125.054c0 5.004-4.056 9.061-9.061 9.061z" fill="#f6a96c"/></g></g><g><g><path d="m124.126 132.737h263.749v26.791h-263.749z" fill="#ea9b58"/></g></g><g><g><path d="m124.125 231.597v26.101c0 5.055 4.098 9.154 9.154 9.154h245.441c5.055 0 9.154-4.099 9.154-9.154v-26.101z" fill="#faf7f7"/></g></g><g><g><path d="m411.509 504.5h-311.018c-5.004 0-9.061-4.057-9.061-9.061v-183.519h329.139v183.519c0 5.004-4.056 9.061-9.06 9.061z" fill="#fed2a4"/></g></g><g><g><path d="m91.43 311.92h329.14v32.275h-329.14z" fill="#ffbd86"/></g></g><g><g><path d="m432.243 266.852h-352.486c-5.004 0-9.061 4.057-9.061 9.061v26.946c0 5.004 4.057 9.061 9.061 9.061h352.487c5.004 0 9.061-4.057 9.061-9.061v-26.946c-.001-5.004-4.058-9.061-9.062-9.061z" fill="#ea9b58"/></g></g><g><g><path d="m285.184 389.191h-58.368c-11.55 0-20.913-9.363-20.913-20.913v-.429c0-11.55 9.363-20.913 20.913-20.913h58.368c11.55 0 20.913 9.363 20.913 20.913v.429c-.001 11.55-9.364 20.913-20.913 20.913z" fill="#d88a55"/></g></g><g><g><path d="m224.264 474.873h-132.834v-38.84h132.833c3.171 0 5.742 2.571 5.742 5.742v27.355c.001 3.172-2.57 5.743-5.741 5.743z" fill="#faf7f7"/></g></g><g><g><path d="m395.428 96.623h-278.857c-5.004 0-9.061 4.057-9.061 9.061v17.992c0 5.004 4.057 9.061 9.061 9.061h278.857c5.004 0 9.061-4.057 9.061-9.061v-17.992c0-5.004-4.056-9.061-9.061-9.061z" fill="#d88a55"/></g></g><g><g><path d="m279.386 200.718h-46.772c-9.255 0-16.758-7.503-16.758-16.758v-.344c0-9.255 7.503-16.758 16.758-16.758h46.772c9.255 0 16.758 7.503 16.758 16.758v.344c0 9.255-7.503 16.758-16.758 16.758z" fill="#d88a55"/></g></g><g><g><path d="m334.477 96.408h-156.954c-5.004 0-9.061-4.057-9.061-9.061v-43.902h175.076v43.903c0 5.004-4.057 9.06-9.061 9.06z" fill="#fed2a4"/></g></g><g><g><path d="m168.462 43.445h175.076v26.188h-175.076z" fill="#ffbd86"/></g></g><g><g><path d="m344.042 7.5h-176.084c-5.004 0-9.061 4.057-9.061 9.061v17.823c0 5.004 4.057 9.061 9.061 9.061h176.084c5.004 0 9.061-4.057 9.061-9.061v-17.823c0-5.004-4.057-9.061-9.061-9.061z" fill="#ea9b58"/></g></g><g><path d="m432.243 259.352h-36.947c.048-.515.079-119.115.079-119.115h.054c9.132 0 16.561-7.429 16.561-16.561v-17.993c0-9.131-7.43-16.561-16.561-16.561h-44.489c.062-.584.099-1.175.099-1.775v-37.973c5.64-2.644 9.565-8.36 9.565-14.99v-17.823c0-9.132-7.429-16.561-16.56-16.561h-137.017c-4.143 0-7.5 3.358-7.5 7.5s3.357 7.5 7.5 7.5h137.016c.86 0 1.56.7 1.56 1.561v17.823c0 .861-.7 1.561-1.56 1.561h-.505-175.076-.505c-.86 0-1.561-.7-1.561-1.561v-17.823c0-.861.7-1.561 1.561-1.561h9.069c4.143 0 7.5-3.358 7.5-7.5s-3.357-7.5-7.5-7.5h-9.069c-9.132 0-16.561 7.429-16.561 16.561v17.823c0 6.63 3.925 12.346 9.565 14.99v37.974c0 .6.036 1.191.099 1.775h-44.49c-9.132 0-16.561 7.429-16.561 16.561v17.993c0 9.132 7.429 16.561 16.561 16.561h.055s.031 118.6.079 119.115h-36.948c-9.132 0-16.561 7.429-16.561 16.56v26.946c0 9.132 7.429 16.561 16.561 16.561h4.174v176.019c0 9.132 7.429 16.561 16.561 16.561h311.018c9.132 0 16.561-7.429 16.561-16.561v-176.019h4.173c9.132 0 16.561-7.429 16.561-16.561v-26.946c0-9.132-7.429-16.561-16.561-16.561zm-96.205-208.407v36.403c0 .86-.7 1.561-1.561 1.561h-156.954c-.86 0-1.561-.7-1.561-1.561v-36.403zm-221.028 72.731v-17.993c0-.86.7-1.561 1.561-1.561h278.857c.861 0 1.561.7 1.561 1.561v17.993c0 .861-.7 1.561-1.561 1.561h-7.554-263.748-7.555c-.861 0-1.561-.7-1.561-1.561zm16.616 134.115v-18.694h200.916c4.143 0 7.5-3.358 7.5-7.5s-3.357-7.5-7.5-7.5h-200.916v-83.86h248.749v83.86h-17.833c-4.143 0-7.5 3.358-7.5 7.5s3.357 7.5 7.5 7.5h17.833v18.694c0 .861-.7 1.561-1.562 1.561h-245.627c-.86 0-1.56-.7-1.56-1.561zm281.444 237.648c0 .861-.7 1.561-1.561 1.561h-311.018c-.86 0-1.561-.7-1.561-1.561v-13.066h125.333c7.302 0 13.242-5.94 13.242-13.242v-27.355c0-7.302-5.941-13.242-13.242-13.242h-47.313c-4.143 0-7.5 3.358-7.5 7.5s3.357 7.5 7.5 7.5h45.556v23.84h-123.576v-23.84h48.02c4.143 0 7.5-3.358 7.5-7.5s-3.357-7.5-7.5-7.5h-48.02v-109.114h314.14zm20.734-192.58c0 .861-.7 1.561-1.561 1.561h-352.487c-.86 0-1.561-.7-1.561-1.561v-26.946c0-.86.7-1.56 1.561-1.56h352.486c.861 0 1.561.7 1.561 1.56v26.946z"/><path d="m226.816 396.691h58.368c15.666 0 28.412-12.746 28.412-28.413v-.429c0-15.667-12.746-28.413-28.412-28.413h-58.368c-15.667 0-28.413 12.746-28.413 28.413v.429c0 15.667 12.746 28.413 28.413 28.413zm-13.413-28.841c0-7.396 6.017-13.413 13.413-13.413h58.368c7.395 0 13.412 6.017 13.412 13.413v.429c0 7.396-6.017 13.413-13.412 13.413h-58.368c-7.396 0-13.413-6.017-13.413-13.413z"/><path d="m260.902 441.13c0 4.142 3.357 7.5 7.5 7.5h52.963c4.143 0 7.5-3.358 7.5-7.5s-3.357-7.5-7.5-7.5h-52.963c-4.143 0-7.5 3.358-7.5 7.5z"/><path d="m321.365 462.276h-52.963c-4.143 0-7.5 3.358-7.5 7.5s3.357 7.5 7.5 7.5h52.963c4.143 0 7.5-3.358 7.5-7.5s-3.358-7.5-7.5-7.5z"/><path d="m279.385 159.359h-46.772c-13.376 0-24.258 10.882-24.258 24.258v.344c0 13.376 10.882 24.258 24.258 24.258h46.772c13.376 0 24.259-10.882 24.259-24.258v-.344c0-13.376-10.883-24.258-24.259-24.258zm9.259 24.601c0 5.105-4.153 9.258-9.259 9.258h-46.772c-5.105 0-9.258-4.153-9.258-9.258v-.344c0-5.105 4.153-9.258 9.258-9.258h46.772c5.105 0 9.259 4.153 9.259 9.258z"/></g></g></svg>