<svg id="Capa_1" enable-background="new 0 0 512.015 512.015" height="512" viewBox="0 0 512.015 512.015" width="512" xmlns="http://www.w3.org/2000/svg"><g><g><g><path d="m283.82 71.812h-55.549v-49.955c0-7.929 6.428-14.357 14.357-14.357h26.835c7.929 0 14.357 6.428 14.357 14.357z" fill="#62dbfb"/></g></g><g><g><path d="m268.875 7.5h-13.733c.438 1.375.678 2.837.678 4.357v49.955h-28.136v10h55.549v-49.955c-.001-7.929-6.428-14.357-14.358-14.357z" fill="#01d0fb"/></g></g><g><g><path d="m160.21 468.011c-18.208-4.164-29.593-22.299-25.429-40.507l66.253-289.74 41.006 9.377-71.954 314.67c-1.015 4.439-5.437 7.215-9.876 6.2z" fill="#b9acac"/></g></g><g><g><ellipse cx="139.537" cy="358.648" fill="#cdbfba" rx="21.661" ry="21.661" transform="matrix(.903 -.43 .43 .903 -140.652 94.844)"/></g></g><g><ellipse cx="139.537" cy="358.648" fill="#766e6e" rx="21.661" ry="21.661" transform="matrix(.903 -.43 .43 .903 -140.652 94.844)"/></g><g><g><path d="m351.88 468.011c18.208-4.164 29.593-22.299 25.429-40.507l-66.253-289.74-41.006 9.377 71.954 314.67c1.016 4.439 5.437 7.215 9.876 6.2z" fill="#b9acac"/></g></g><g><g><path d="m377.31 427.505-66.253-289.74-21.312 4.873 60.566 264.867c3.083 13.484-2.366 26.921-12.793 34.681l4.488 19.626c1.015 4.439 5.437 7.215 9.876 6.2 18.206-4.164 29.591-22.3 25.428-40.507z" fill="#9e9797"/></g></g><g><g><circle cx="256.045" cy="125.018" fill="#ffe177" r="64.911"/></g></g><g><g><path d="m290.834 70.229c6.399 10.057 10.122 21.985 10.122 34.789 0 35.849-29.061 64.911-64.911 64.911-12.804 0-24.731-3.722-34.789-10.122 11.519 18.102 31.744 30.122 54.789 30.122 35.849 0 64.911-29.061 64.911-64.911 0-23.045-12.02-43.271-30.122-54.789z" fill="#ffd15b"/></g></g><g><g><circle cx="256.045" cy="125.018" fill="#feb237" r="20.548"/></g></g><g><g><ellipse cx="372.47" cy="358.648" fill="#cdbfba" rx="21.661" ry="21.661" transform="matrix(.9 -.436 .436 .9 -119.181 198.518)"/></g></g><g><ellipse cx="372.47" cy="358.648" fill="#766e6e" rx="21.661" ry="21.661" transform="matrix(.9 -.436 .436 .9 -119.181 198.518)"/></g><g><path d="m397.168 343.143c-4.142-6.597-10.604-11.186-18.197-12.923-5.514-1.261-11.024-.855-16.009.874l-10.775-47.24h21.513c4.143 0 7.5-3.358 7.5-7.5s-3.357-7.5-7.5-7.5h-24.934l-26.259-115.126c3.82-8.809 5.95-18.515 5.95-28.712 0-27.126-15.002-50.803-37.137-63.205v-39.954c-.001-12.052-9.806-21.857-21.857-21.857h-26.835c-12.052 0-21.857 9.805-21.857 21.857v39.956c-22.134 12.403-37.136 36.079-37.136 63.205 0 10.257 2.157 20.016 6.02 28.866l-12.403 54.242c-.923 4.038 1.602 8.06 5.64 8.983.562.129 1.125.191 1.679.191 3.42 0 6.51-2.355 7.305-5.83l9.049-39.573c6.483 7.611 14.498 13.876 23.58 18.29l-61.728 269.953c-.092.401-.491.653-.893.561-14.147-3.235-23.024-17.376-19.79-31.523l9.852-43.084c.089-.391.137-.781.163-1.169 7.744-3.714 13.8-10.772 15.859-19.775v-.001c2.049-8.962-.295-17.918-5.604-24.618l23.542-102.953c.923-4.038-1.602-8.06-5.64-8.983-4.034-.922-8.059 1.602-8.983 5.639l-7.917 34.622h-24.973c-4.143 0-7.5 3.358-7.5 7.5s3.357 7.5 7.5 7.5h21.543l-10.806 47.257c-1.002-.348-2.032-.65-3.09-.892-15.669-3.582-31.343 6.251-34.929 21.927-3.583 15.675 6.254 31.344 21.928 34.928 1.058.242 2.116.42 3.17.542l-8.738 38.215c-5.078 22.21 8.859 44.411 31.069 49.49.246.056.49.081.736.125l-6.264 27.394c-.923 4.038 1.602 8.06 5.64 8.983.562.129 1.125.19 1.679.19 3.42 0 6.51-2.355 7.305-5.83l50.839-222.33h30.073v20.222c0 4.142 3.357 7.5 7.5 7.5s7.5-3.358 7.5-7.5v-20.222h30.074l24.575 107.474c.795 3.475 3.885 5.83 7.305 5.83.554 0 1.116-.062 1.679-.19 4.038-.923 6.562-4.945 5.64-8.983l-45.23-197.799c9.082-4.413 17.097-10.678 23.58-18.289l38.537 168.533c-2.67 3.326-4.649 7.288-5.662 11.717-1.736 7.593-.412 15.409 3.729 22.005 2.982 4.749 7.171 8.45 12.114 10.803l10.112 44.221c1.567 6.853.372 13.906-3.365 19.86-3.738 5.954-9.571 10.096-16.424 11.663-.2.046-.39.014-.562-.095-.174-.109-.284-.265-.33-.465l-10.874-47.555c-.923-4.038-4.948-6.562-8.983-5.639-4.038.923-6.562 4.945-5.64 8.983l20.639 90.257c.795 3.476 3.885 5.83 7.305 5.83.554 0 1.116-.062 1.679-.19 4.038-.923 6.562-4.945 5.64-8.983l-6.264-27.394c.245-.044.491-.07.736-.125 10.759-2.46 19.916-8.963 25.783-18.31 5.869-9.348 7.745-20.421 5.285-31.18l-8.746-38.246c11.896-1.413 22.202-10.108 25.023-22.438 1.732-7.595.406-15.41-3.735-22.007zm-271.436 12.348c1.499-6.554 7.348-11.006 13.804-11.006 1.042 0 2.101.116 3.158.358 7.612 1.741 12.389 9.35 10.648 16.962s-9.354 12.389-16.962 10.648c-7.612-1.741-12.388-9.35-10.648-16.962zm110.038-333.634c0-3.781 3.076-6.857 6.857-6.857h26.835c3.78 0 6.856 3.076 6.856 6.857v33.659c-6.438-1.881-13.237-2.909-20.274-2.909-7.038 0-13.836 1.028-20.274 2.91zm54.419 246.998h-26.644v-20.223c0-4.142-3.357-7.5-7.5-7.5s-7.5 3.358-7.5 7.5v20.223h-26.643l16.815-73.538c5.555 1.37 11.356 2.111 17.328 2.111s11.773-.741 17.329-2.111zm-34.144-86.427c-31.656 0-57.41-25.754-57.41-57.41s25.754-57.411 57.41-57.411 57.411 25.754 57.411 57.411c0 31.656-25.755 57.41-57.411 57.41zm130.23 179.377c-1.741 7.612-9.355 12.389-16.961 10.648-3.688-.843-6.826-3.072-8.838-6.276-2.011-3.204-2.654-6.999-1.81-10.686 1.499-6.554 7.348-11.006 13.803-11.006 1.042 0 2.101.116 3.158.358 3.688.843 6.826 3.072 8.837 6.276 2.011 3.203 2.655 6.998 1.811 10.686z"/><path d="m256.045 96.97c-15.465 0-28.047 12.582-28.047 28.048s12.582 28.048 28.047 28.048c15.466 0 28.048-12.582 28.048-28.048s-12.582-28.048-28.048-28.048zm0 41.095c-7.194 0-13.047-5.853-13.047-13.048s5.853-13.048 13.047-13.048 13.048 5.853 13.048 13.048-5.854 13.048-13.048 13.048z"/></g></g></svg>