<svg id="Capa_1" enable-background="new 0 0 512 512" height="512" viewBox="0 0 512 512" width="512" xmlns="http://www.w3.org/2000/svg"><g><g><path d="m22.581 15.813h466.838c8.329 0 15.081 6.752 15.081 15.081v196.706h-497v-196.706c0-8.329 6.752-15.081 15.081-15.081z" fill="#ffbd86"/></g><g><path d="m489.419 15.813h-14.919v117.331c0 20.134-16.322 36.456-36.456 36.456h-430.544v58h497v-196.706c0-8.329-6.752-15.081-15.081-15.081z" fill="#f6a96c"/></g><g><path d="m139.889 207.499v-62.45c0-2.675-2.168-4.842-4.842-4.842h-67.724c-2.674 0-4.842 2.168-4.842 4.842v62.45z" fill="#99e6fc"/></g><g><path d="m62.481 261.033h77.408v146.097h-77.408z" fill="#01c0fa"/></g><g><path d="m217.296 207.499v-62.45c0-2.675-2.168-4.842-4.842-4.842h-67.723c-2.675 0-4.842 2.168-4.842 4.842v62.45z" fill="#d5efc8"/></g><g><path d="m139.889 261.033h77.408v146.097h-77.408z" fill="#97da7b"/></g><g><path d="m294.704 207.499v-62.45c0-2.675-2.168-4.842-4.842-4.842h-67.723c-2.674 0-4.842 2.168-4.842 4.842v62.45z" fill="#fff0ad"/></g><g><path d="m217.296 261.033h77.408v146.097h-77.408z" fill="#ffd15b"/></g><g><path d="m372.112 207.499v-62.45c0-2.675-2.168-4.842-4.842-4.842h-67.723c-2.674 0-4.842 2.168-4.842 4.842v62.45z" fill="#d9b1ee"/></g><g><path d="m294.704 261.033h77.408v146.097h-77.408z" fill="#bd80e1"/></g><g><path d="m449.52 207.499v-62.45c0-2.675-2.168-4.842-4.842-4.842h-67.723c-2.674 0-4.842 2.168-4.842 4.842v62.45z" fill="#fd8087"/></g><g><path d="m62.481 169.6h77.408v37.899h-77.408z" fill="#01c0fa"/></g><g><path d="m139.889 169.6h77.408v37.899h-77.408z" fill="#97da7b"/></g><g><path d="m217.296 169.6h77.408v37.899h-77.408z" fill="#ffd15b"/></g><g><path d="m294.704 169.6h77.408v37.899h-77.408z" fill="#bd80e1"/></g><g><path d="m372.112 169.6h77.408v37.899h-77.408z" fill="#fe646f"/></g><g><path d="m372.112 261.033h77.408v146.097h-77.408z" fill="#fe646f"/></g><g><path d="m86.029 67.223-20.467 72.983h71.245l-20.467-72.983c-4.296-15.32-26.015-15.32-30.311 0l-20.467 72.983h71.245l-20.467-72.983c-4.296-15.32-26.015-15.32-30.311 0z" fill="#01c0fa"/></g><g><path d="m163.437 67.223-20.467 72.983h71.245l-20.467-72.983c-4.296-15.32-26.015-15.32-30.311 0l-20.467 72.983h71.245l-20.467-72.983c-4.296-15.32-26.015-15.32-30.311 0z" fill="#97da7b"/></g><g><path d="m240.844 67.223-20.467 72.983h71.245l-20.467-72.983c-4.295-15.32-26.014-15.32-30.311 0l-20.467 72.983h71.245l-20.467-72.983c-4.295-15.32-26.014-15.32-30.311 0z" fill="#ffd15b"/></g><g><path d="m318.252 67.223-20.467 72.983h71.245l-20.467-72.983c-4.295-15.32-26.014-15.32-30.311 0l-20.467 72.983h71.245l-20.467-72.983c-4.295-15.32-26.014-15.32-30.311 0z" fill="#bd80e1"/></g><g><path d="m395.66 67.223-20.467 72.983h71.245l-20.467-72.983c-4.296-15.32-26.015-15.32-30.311 0l-20.467 72.983h71.245l-20.467-72.983c-4.296-15.32-26.015-15.32-30.311 0z" fill="#fe646f"/></g><g><path d="m7.501 207.607v266.825c0 12.015 9.74 21.755 21.756 21.755h453.489c12.015 0 21.755-9.74 21.755-21.755v-266.825zm432.529 183.257c0 8.294-6.724 15.018-15.018 15.018h-338.023c-8.294 0-15.018-6.724-15.018-15.018v-113.997c0-8.294 6.724-15.018 15.018-15.018h338.022c8.294 0 15.018 6.724 15.018 15.018v113.997z" fill="#ffe5c2"/></g><g><g><path d="m474.5 207.607v236.825c0 12.015-9.74 21.755-21.755 21.755h-445.244v8.245c0 12.015 9.74 21.755 21.756 21.755h453.489c12.015 0 21.755-9.74 21.755-21.755v-266.825z" fill="#fed2a4"/></g></g><g><path d="m489.419 8.312h-354.936c-4.143 0-7.5 3.358-7.5 7.5s3.357 7.5 7.5 7.5h354.936c4.181 0 7.581 3.401 7.581 7.581v169.213h-39.98v-55.058c0-3.573-1.535-6.786-3.969-9.042l-19.857-70.809c-2.846-10.147-11.838-16.965-22.377-16.965-.818 0-1.628.041-2.425.122-9.474.957-17.328 7.484-19.953 16.844l-16.327 58.22-16.327-58.22c-2.846-10.147-11.838-16.965-22.376-16.965-.001 0-.001 0-.001 0-9.849 0-18.349 5.955-21.741 15.017-.001.002-.002.005-.003.007s-.002.005-.003.007c-.235.63-.445 1.275-.631 1.934l-16.326 58.218-16.326-58.218c-2.847-10.147-11.84-16.965-22.379-16.965-.797 0-1.586.039-2.364.116-9.5.936-17.382 7.47-20.012 16.85l-16.327 58.22-16.327-58.22c-2.846-10.147-11.838-16.965-22.376-16.965-.001 0-.001 0-.001 0-9.849 0-18.349 5.955-21.741 15.017-.001.002-.002.005-.003.007s-.002.005-.003.007c-.235.63-.445 1.275-.631 1.934l-16.326 58.218-16.326-58.218c-2.847-10.147-11.84-16.965-22.379-16.965-.797 0-1.586.039-2.364.116-9.5.936-17.382 7.47-20.012 16.85l-19.857 70.809c-2.434 2.256-3.969 5.469-3.969 9.042v55.058h-39.981v-169.215c0-4.18 3.4-7.581 7.581-7.581h81.902c4.143 0 7.5-3.358 7.5-7.5s-3.357-7.5-7.5-7.5h-81.902c-12.451-.001-22.581 10.129-22.581 22.581l.001 443.538c0 16.132 13.124 29.256 29.255 29.256h349.354c4.143 0 7.5-3.358 7.5-7.5s-3.357-7.5-7.5-7.5h-349.354c-7.86 0-14.255-6.395-14.255-14.256v-259.325h481.999v259.325c0 7.861-6.395 14.256-14.255 14.256h-74.136c-4.143 0-7.5 3.358-7.5 7.5s3.357 7.5 7.5 7.5h74.136c16.131 0 29.255-13.124 29.255-29.256v-443.538c0-12.452-10.13-22.582-22.581-22.582zm-419.438 139.394h62.407v52.293h-62.407zm309.631 0h62.407v52.293h-62.407zm-15.001 52.293h-62.407v-52.293h62.407zm-139.814-52.293h62.407v52.293h-62.407zm-77.408 0h62.408v52.293h-62.408zm255.493-78.458c1.564-5.582 6.469-6.015 7.935-6.015 1.465 0 6.369.434 7.934 6.015l17.796 63.458h-51.46zm-77.408 0c1.565-5.581 6.469-6.016 7.935-6.016s6.369.434 7.934 6.015l17.796 63.458h-51.46zm-77.408 0c1.564-5.581 6.468-6.015 7.934-6.015s6.369.434 7.935 6.015l17.796 63.458h-51.46zm-77.408 0c1.565-5.581 6.469-6.015 7.935-6.015s6.369.434 7.934 6.015l17.796 63.458h-51.46zm-77.407 0c1.564-5.581 6.468-6.015 7.934-6.015s6.369.434 7.935 6.015l17.796 63.458h-51.46z"/><path d="m447.529 390.864v-113.997c0-12.416-10.102-22.518-22.518-22.518h-338.022c-12.416 0-22.518 10.102-22.518 22.518v113.998c0 12.417 10.102 22.518 22.518 22.518h338.022c12.417-.001 22.518-10.102 22.518-22.519zm-15-113.997v113.998c0 4.146-3.372 7.518-7.518 7.518h-45.4v-129.034h45.4c4.146 0 7.518 3.373 7.518 7.518zm-207.732-7.518h62.407v129.033h-62.407zm-15 129.033h-62.408v-129.033h62.408zm92.407-129.033h62.407v129.033h-62.407zm-222.732 121.515v-113.997c0-4.145 3.372-7.518 7.518-7.518h45.399v129.033h-45.4c-4.145 0-7.517-3.372-7.517-7.518z"/></g></g></svg>