<svg id="Capa_1" enable-background="new 0 0 512.001 512.001" height="512" viewBox="0 0 512.001 512.001" width="512" xmlns="http://www.w3.org/2000/svg"><g><g><g><path d="m369.178 195.457 104.189-104.188c1.785-1.785 2.356-4.453 1.457-6.812l-27.742-72.827c-1.654-4.342-7.234-5.535-10.52-2.25l-126.73 126.731z" fill="#cdbfba"/></g></g><g><g><path d="m187.501 389.26 223.512-223.512-39.431-103.513-255.553 255.553z" fill="#766e6e"/></g></g><g><g><path d="m226.182 426.143c1.345-38.307 18.08-74.466 45.184-101.57l107.465-107.465c2.883-2.883 3.804-7.189 2.353-10.999l-9.769-25.646c-1.972-5.176-8.625-6.599-12.541-2.682l-178.521 178.521c-2.228 2.228-5.84 2.228-8.068 0l-26.049-26.049c-2.228-2.228-2.228-5.84 0-8.068l198.659-198.659c2.129-2.128 2.809-5.308 1.737-8.121l-10.238-26.877c-2.67-7.01-11.68-8.937-16.984-3.633l-201.874 201.873-29.401 29.401-23.01 23.01c-37.82 37.82-37.82 99.137 0 136.957 37.82 37.82 99.138 37.82 136.957 0l4.16-4.16c12.709-12.709 19.355-29.184 19.94-45.833z" fill="#ffe177"/></g></g><g><g><g><path d="m381.184 206.109-9.769-25.646c-1.972-5.176-8.625-6.599-12.541-2.683l-1.694 1.693 1.004 2.635c1.451 3.81.53 8.116-2.353 10.999l-107.465 107.466c-27.104 27.104-43.839 63.263-45.184 101.57-.584 16.649-7.231 33.124-19.94 45.833l-4.16 4.16c-34.306 34.306-87.944 37.49-125.843 9.559 3.431 5.091 7.382 9.937 11.886 14.44 37.82 37.82 99.138 37.82 136.957 0l4.16-4.16c12.709-12.71 19.356-29.184 19.94-45.833 1.345-38.307 18.08-74.466 45.184-101.57l107.465-107.465c2.883-2.882 3.804-7.188 2.353-10.998z" fill="#ffc344"/></g></g></g><g><g><path d="m63.452 340.939c-36.11 37.938-35.571 97.953 1.673 135.198 37.244 37.244 97.26 37.783 135.198 1.673z" fill="#766e6e"/></g></g><g><g><path d="m176.797 454.284c-34.369 32.243-86.494 34.733-123.569 7.405 3.432 5.094 7.389 9.94 11.896 14.447 37.244 37.244 97.26 37.783 135.198 1.673z" fill="#5b5555"/></g></g><g><g><path d="m256.003 279.947-33.413-33.412c-2.537-2.537-2.537-6.651 0-9.188l35.435-35.435c2.537-2.537 6.651-2.537 9.188 0l33.412 33.412c2.537 2.537 2.537 6.651 0 9.188l-35.435 35.435c-2.536 2.537-6.65 2.537-9.187 0z" fill="#e1d3ce"/></g></g><g><g><circle cx="131.887" cy="409.374" fill="#cdbfba" r="32.833"/></g></g><g><path d="m481.833 81.786-27.742-72.826c-1.686-4.425-5.457-7.659-10.088-8.649-4.631-.99-9.395.417-12.743 3.766l-53.676 53.676c-1.073-1.436-2.634-2.467-4.433-2.852-2.488-.534-5.074.232-6.872 2.031l-24.975 24.975c-2.552-3.623-6.389-6.195-10.846-7.148-5.945-1.273-12.056.536-16.352 4.832l-124.669 124.669c-2.929 2.929-2.929 7.678 0 10.606 1.464 1.464 3.384 2.197 5.303 2.197s3.839-.732 5.303-2.197l124.669-124.67c.953-.952 2.043-.891 2.608-.771.565.121 1.585.512 2.065 1.771l10.238 26.877c.02.051.007.11-.032.149l-73.983 73.983c-4.351-.769-8.997.514-12.352 3.869l-35.435 35.435c-3.355 3.354-4.639 8.001-3.869 12.352l-73.021 73.021c-5.149 5.148-5.149 13.526 0 18.675l26.049 26.049c2.574 2.574 5.956 3.862 9.337 3.862s6.763-1.288 9.337-3.862l73.021-73.021c.812.144 1.633.224 2.455.224 3.584 0 7.169-1.364 9.897-4.093l35.435-35.435c3.355-3.355 4.638-8.001 3.869-12.352l53.892-53.885c.032-.014.126.008.181.09l9.769 25.646c.399 1.046.145 2.234-.647 3.026l-25.58 25.58c-2.929 2.929-2.929 7.678 0 10.606 1.464 1.464 3.384 2.197 5.303 2.197s3.839-.732 5.303-2.197l25.58-25.58c4.964-4.964 6.557-12.411 4.058-18.972l-1.176-3.088 29.3-29.3c2.09-2.089 2.757-5.211 1.706-7.973l-1.616-4.242 62.263-62.263c3.872-3.87 5.113-9.674 3.166-14.788zm-160.287 122.716-12.971-34.051 18.119-18.119 12.971 34.051zm-43.544-3.477 18.95-18.95 12.971 34.051-8.41 8.41zm-51.781 98.803-12.971-34.051 9.523-9.523 23.511 23.511zm-29.743 29.742-12.971-34.051 18.119-18.119 12.971 34.051zm-43.67-3.351 19.075-19.075 12.971 34.051-8.535 8.535zm108.324-52.82-31.994-31.994 34.016-34.016 31.994 31.994zm120.033-88.409-2.741-7.196c-1.835-4.817-5.94-8.337-10.981-9.415-5.042-1.079-10.227.454-13.872 4.099l-2.281 2.281-12.971-34.051 11.88-11.88c4.211-4.211 5.562-10.528 3.443-16.095l-6.056-15.898c.01-.01.021-.018.031-.028l21.08-21.08 33.579 88.151zm29.389-41.515-26.89-70.591 57.009-57.009 26.89 70.59z"/><path d="m328.129 257.204-62.066 62.066c-29.162 29.161-45.986 67.023-47.376 106.61-.541 15.401-6.844 29.888-17.748 40.793l-.573.573-35.158-35.158c10.706-15.692 9.112-37.32-4.801-51.233-7.618-7.618-17.746-11.813-28.519-11.813-8.27 0-16.155 2.48-22.821 7.075l-35.753-34.52 105.572-105.572c2.929-2.929 2.929-7.678 0-10.606-2.929-2.93-7.678-2.929-10.607 0l-108.458 108.457c-19.708 19.707-30.562 45.911-30.562 73.782s10.854 54.074 30.562 73.782 45.911 30.561 73.782 30.561c27.872 0 54.074-10.853 73.782-30.561l4.16-4.16c13.598-13.598 21.458-31.665 22.132-50.873 1.256-35.78 16.524-70.062 42.992-96.53l62.066-62.066c2.929-2.929 2.929-7.678 0-10.606-2.928-2.93-7.677-2.93-10.606-.001zm-178.329 134.257c9.877 9.877 9.877 25.948 0 35.826-4.785 4.785-11.146 7.42-17.912 7.42-6.767 0-13.129-2.635-17.913-7.42-4.785-4.785-7.42-11.146-7.42-17.913 0-6.766 2.635-13.128 7.42-17.913s11.146-7.42 17.913-7.42c6.765 0 13.127 2.635 17.912 7.42zm-79.372 79.372c-16.875-16.875-26.168-39.311-26.168-63.175 0-20.448 6.842-39.834 19.41-55.585l34.874 34.602c-4.541 6.64-6.99 14.48-6.99 22.699 0 10.773 4.195 20.902 11.813 28.52s17.746 11.814 28.52 11.814c8.217 0 16.055-2.448 22.694-6.986l34.208 35.183c-15.679 12.367-34.91 19.098-55.186 19.098-23.864-.002-46.3-9.295-63.175-26.17z"/></g></g></svg>