<svg id="Capa_1" enable-background="new 0 0 512 512" height="512" viewBox="0 0 512 512" width="512" xmlns="http://www.w3.org/2000/svg"><g><g><g><path d="m227.43 83.262h-34.685v-66.605c0-5.057 4.1-9.157 9.157-9.157h16.371c5.057 0 9.157 4.1 9.157 9.157z" fill="#ea9b58"/></g></g><g><g><path d="m319.255 83.262h-34.685v-66.605c0-5.057 4.1-9.157 9.157-9.157h16.371c5.057 0 9.157 4.1 9.157 9.157z" fill="#ea9b58"/></g></g><g><g><ellipse cx="256" cy="284.306" fill="#f6a96c" rx="220.194" ry="220.194" transform="matrix(.707 -.707 .707 .707 -126.054 264.291)"/></g></g><g><g><circle cx="256" cy="284.306" fill="#faf7f7" r="183.682"/></g></g><g><g><path d="m373.557 98.1c45.761 40.349 74.637 99.401 74.637 165.207 0 121.609-98.584 220.193-220.194 220.193-43.229 0-83.541-12.467-117.557-33.987 38.806 34.217 89.752 54.987 145.557 54.987 121.61 0 220.194-98.584 220.194-220.194 0-78.381-40.961-147.187-102.637-186.206z" fill="#d88a55"/></g></g><g><g><path d="m343.539 120.521c41.565 33.676 68.143 85.122 68.143 142.785 0 101.445-82.237 183.682-183.682 183.682-31.633 0-61.397-7.998-87.383-22.08 31.56 25.57 71.757 40.898 115.539 40.898 101.445 0 183.682-82.237 183.682-183.682 0-69.812-38.948-130.525-96.299-161.603z" fill="#f3eae6"/></g></g><g><path d="m417.004 123.303c-25.753-25.753-56.593-44.569-90.249-55.529v-29.074h19.501c4.142 0 7.5-3.357 7.5-7.5s-3.358-7.5-7.5-7.5h-19.501v-7.043c-.001-9.184-7.473-16.657-16.657-16.657h-16.371c-9.185 0-16.657 7.473-16.657 16.657v7.043h-42.14v-7.043c0-9.184-7.472-16.657-16.657-16.657h-16.371c-9.185 0-16.657 7.473-16.657 16.657v7.043h-22.407c-4.142 0-7.5 3.357-7.5 7.5s3.358 7.5 7.5 7.5h22.407v29.076c-23.581 7.694-45.857 19.286-66.139 34.568-3.308 2.493-3.969 7.195-1.477 10.504 2.494 3.308 7.196 3.971 10.503 1.477 37.085-27.943 81.301-42.713 127.868-42.713 117.28 0 212.694 95.414 212.694 212.694s-95.414 212.694-212.694 212.694-212.694-95.414-212.694-212.693c0-58.394 23.187-112.849 65.29-153.333 2.986-2.871 3.079-7.619.208-10.604-2.871-2.984-7.619-3.078-10.604-.208-21.863 21.022-39.055 45.725-51.1 73.421-12.471 28.677-18.794 59.201-18.794 90.725 0 60.819 23.684 117.998 66.69 161.004 43.006 43.003 100.185 66.688 161.004 66.688s117.998-23.685 161.004-66.69c43.005-43.006 66.69-100.184 66.69-161.004 0-60.819-23.685-117.998-66.69-161.003zm-123.277-108.303h16.371c.914 0 1.657.743 1.657 1.657v46.793c-6.477-1.623-13.047-2.948-19.685-3.999v-42.794c-.001-.914.743-1.657 1.657-1.657zm-93.482 1.657c0-.914.743-1.657 1.657-1.657h16.371c.914 0 1.657.743 1.657 1.657v42.777c-6.637 1.049-13.203 2.391-19.685 4.017zm34.685 40.919v-18.876h42.139v18.881c-6.964-.635-13.99-.969-21.069-.969-7.08 0-14.106.33-21.07.964z"/><path d="m411.764 201.901c1.94 3.66 6.48 5.053 10.14 3.113 3.66-1.939 5.053-6.479 3.113-10.139-33.275-62.762-98.039-101.751-169.017-101.751-105.418 0-191.182 85.765-191.182 191.183s85.764 191.181 191.182 191.181 191.182-85.764 191.182-191.182c0-20.839-3.334-41.331-9.909-60.907-1.319-3.927-5.571-6.045-9.498-4.722-3.926 1.318-6.04 5.57-4.722 9.497 6.058 18.035 9.129 36.92 9.129 56.132 0 97.146-79.035 176.182-176.182 176.182s-176.182-79.035-176.182-176.181c0-97.147 79.035-176.183 176.182-176.183 65.411 0 125.097 35.934 155.764 93.777z"/><path d="m179.336 174.4c-2.929-2.928-7.678-2.928-10.606 0l-6.162 6.162-6.162-6.162c-2.929-2.928-7.678-2.928-10.606 0-2.929 2.93-2.929 7.678 0 10.607l6.161 6.162-6.161 6.162c-2.929 2.93-2.929 7.678 0 10.607 1.464 1.464 3.384 2.196 5.303 2.196s3.839-.732 5.303-2.196l6.162-6.162 6.162 6.162c1.464 1.464 3.384 2.196 5.303 2.196s3.839-.732 5.303-2.196c2.929-2.93 2.929-7.678 0-10.607l-6.161-6.162 6.161-6.162c2.93-2.929 2.93-7.677 0-10.607z"/><path d="m241.625 174.4c-2.929-2.928-7.678-2.928-10.606 0l-6.162 6.162-6.162-6.162c-2.929-2.928-7.678-2.928-10.606 0-2.929 2.93-2.929 7.678 0 10.607l6.162 6.162-6.162 6.162c-2.929 2.93-2.929 7.678 0 10.607 1.464 1.464 3.384 2.196 5.303 2.196s3.839-.732 5.303-2.196l6.162-6.162 6.162 6.162c1.464 1.464 3.384 2.196 5.303 2.196s3.839-.732 5.303-2.196c2.929-2.93 2.929-7.678 0-10.607l-6.162-6.162 6.162-6.162c2.929-2.929 2.929-7.677 0-10.607z"/><path d="m303.912 174.4c-2.929-2.928-7.678-2.928-10.606 0l-6.162 6.162-6.162-6.162c-2.929-2.928-7.678-2.928-10.606 0-2.929 2.93-2.929 7.678 0 10.607l6.161 6.162-6.161 6.162c-2.929 2.93-2.929 7.678 0 10.607 1.464 1.464 3.384 2.196 5.303 2.196s3.839-.732 5.303-2.196l6.162-6.162 6.162 6.162c1.464 1.464 3.384 2.196 5.303 2.196s3.839-.732 5.303-2.196c2.929-2.93 2.929-7.678 0-10.607l-6.161-6.162 6.161-6.162c2.929-2.929 2.929-7.677 0-10.607z"/><path d="m366.2 174.4c-2.929-2.928-7.678-2.928-10.607 0l-6.162 6.162-6.162-6.162c-2.929-2.928-7.678-2.928-10.606 0-2.929 2.93-2.929 7.678 0 10.607l6.162 6.162-6.162 6.162c-2.929 2.93-2.929 7.678 0 10.607 1.464 1.464 3.384 2.196 5.303 2.196s3.839-.732 5.303-2.196l6.162-6.162 6.162 6.162c1.464 1.464 3.384 2.196 5.303 2.196s3.839-.732 5.303-2.196c2.929-2.93 2.929-7.678 0-10.607l-6.162-6.162 6.162-6.162c2.93-2.929 2.93-7.677.001-10.607z"/><path d="m179.336 235.527c-2.929-2.928-7.678-2.928-10.606 0l-6.162 6.162-6.162-6.162c-2.929-2.928-7.678-2.928-10.606 0-2.929 2.93-2.929 7.678 0 10.607l6.161 6.162-6.161 6.162c-2.929 2.93-2.929 7.678 0 10.607 1.464 1.464 3.384 2.196 5.303 2.196s3.839-.732 5.303-2.196l6.162-6.162 6.162 6.162c1.464 1.464 3.384 2.196 5.303 2.196s3.839-.732 5.303-2.196c2.929-2.93 2.929-7.678 0-10.607l-6.161-6.162 6.161-6.162c2.93-2.929 2.93-7.677 0-10.607z"/><path d="m241.625 235.527c-2.929-2.928-7.678-2.928-10.606 0l-6.162 6.162-6.162-6.162c-2.929-2.928-7.678-2.928-10.606 0-2.929 2.93-2.929 7.678 0 10.607l6.162 6.162-6.162 6.162c-2.929 2.93-2.929 7.678 0 10.607 1.464 1.464 3.384 2.196 5.303 2.196s3.839-.732 5.303-2.196l6.162-6.162 6.162 6.162c1.464 1.464 3.384 2.196 5.303 2.196s3.839-.732 5.303-2.196c2.929-2.93 2.929-7.678 0-10.607l-6.162-6.162 6.162-6.162c2.929-2.929 2.929-7.677 0-10.607z"/><path d="m303.912 235.527c-2.929-2.928-7.678-2.928-10.606 0l-6.162 6.162-6.162-6.162c-2.929-2.928-7.678-2.928-10.606 0-2.929 2.93-2.929 7.678 0 10.607l6.161 6.162-6.161 6.162c-2.929 2.93-2.929 7.678 0 10.607 1.464 1.464 3.384 2.196 5.303 2.196s3.839-.732 5.303-2.196l6.162-6.162 6.162 6.162c1.464 1.464 3.384 2.196 5.303 2.196s3.839-.732 5.303-2.196c2.929-2.93 2.929-7.678 0-10.607l-6.161-6.162 6.161-6.162c2.929-2.929 2.929-7.677 0-10.607z"/><path d="m366.2 235.527c-2.929-2.928-7.678-2.928-10.607 0l-6.162 6.162-6.162-6.162c-2.929-2.928-7.678-2.928-10.606 0-2.929 2.93-2.929 7.678 0 10.607l6.162 6.162-6.162 6.162c-2.929 2.93-2.929 7.678 0 10.607 1.464 1.464 3.384 2.196 5.303 2.196s3.839-.732 5.303-2.196l6.162-6.162 6.162 6.162c1.464 1.464 3.384 2.196 5.303 2.196s3.839-.732 5.303-2.196c2.929-2.93 2.929-7.678 0-10.607l-6.162-6.162 6.162-6.162c2.93-2.929 2.93-7.677.001-10.607z"/><path d="m179.336 296.655c-2.929-2.928-7.678-2.928-10.606 0l-6.162 6.162-6.162-6.162c-2.929-2.928-7.678-2.928-10.606 0-2.929 2.93-2.929 7.678 0 10.607l6.161 6.162-6.161 6.162c-2.929 2.93-2.929 7.678 0 10.607 1.464 1.464 3.384 2.196 5.303 2.196s3.839-.732 5.303-2.196l6.162-6.162 6.162 6.162c1.464 1.464 3.384 2.196 5.303 2.196s3.839-.732 5.303-2.196c2.929-2.93 2.929-7.678 0-10.607l-6.161-6.162 6.161-6.162c2.93-2.929 2.93-7.677 0-10.607z"/><path d="m241.625 296.655c-2.929-2.928-7.678-2.928-10.606 0l-6.162 6.162-6.162-6.162c-2.929-2.928-7.678-2.928-10.606 0-2.929 2.93-2.929 7.678 0 10.607l6.162 6.162-6.162 6.162c-2.929 2.93-2.929 7.678 0 10.607 1.464 1.464 3.384 2.196 5.303 2.196s3.839-.732 5.303-2.196l6.162-6.162 6.162 6.162c1.464 1.464 3.384 2.196 5.303 2.196s3.839-.732 5.303-2.196c2.929-2.93 2.929-7.678 0-10.607l-6.162-6.162 6.162-6.162c2.929-2.929 2.929-7.677 0-10.607z"/><path d="m303.912 296.655c-2.929-2.928-7.678-2.928-10.606 0l-6.162 6.162-6.162-6.162c-2.929-2.928-7.678-2.928-10.606 0-2.929 2.93-2.929 7.678 0 10.607l6.161 6.162-6.161 6.162c-2.929 2.93-2.929 7.678 0 10.607 1.464 1.464 3.384 2.196 5.303 2.196s3.839-.732 5.303-2.196l6.162-6.162 6.162 6.162c1.464 1.464 3.384 2.196 5.303 2.196s3.839-.732 5.303-2.196c2.929-2.93 2.929-7.678 0-10.607l-6.161-6.162 6.161-6.162c2.929-2.929 2.929-7.677 0-10.607z"/><path d="m366.2 296.655c-2.929-2.928-7.678-2.928-10.607 0l-6.162 6.162-6.162-6.162c-2.929-2.928-7.678-2.928-10.606 0-2.929 2.93-2.929 7.678 0 10.607l6.162 6.162-6.162 6.162c-2.929 2.93-2.929 7.678 0 10.607 1.464 1.464 3.384 2.196 5.303 2.196s3.839-.732 5.303-2.196l6.162-6.162 6.162 6.162c1.464 1.464 3.384 2.196 5.303 2.196s3.839-.732 5.303-2.196c2.929-2.93 2.929-7.678 0-10.607l-6.162-6.162 6.162-6.162c2.93-2.929 2.93-7.677.001-10.607z"/><path d="m179.336 354.406c-2.929-2.928-7.678-2.928-10.606 0l-6.162 6.162-6.162-6.162c-2.929-2.928-7.678-2.928-10.606 0-2.929 2.93-2.929 7.678 0 10.607l6.161 6.162-6.161 6.162c-2.929 2.93-2.929 7.678 0 10.607 1.464 1.464 3.384 2.196 5.303 2.196s3.839-.732 5.303-2.196l6.162-6.162 6.162 6.162c1.464 1.464 3.384 2.196 5.303 2.196s3.839-.732 5.303-2.196c2.929-2.93 2.929-7.678 0-10.607l-6.161-6.162 6.161-6.162c2.93-2.929 2.93-7.677 0-10.607z"/><path d="m241.625 354.406c-2.929-2.928-7.678-2.928-10.606 0l-6.162 6.162-6.162-6.162c-2.929-2.928-7.678-2.928-10.606 0-2.929 2.93-2.929 7.678 0 10.607l6.162 6.162-6.162 6.162c-2.929 2.93-2.929 7.678 0 10.607 1.464 1.464 3.384 2.196 5.303 2.196s3.839-.732 5.303-2.196l6.162-6.162 6.162 6.162c1.464 1.464 3.384 2.196 5.303 2.196s3.839-.732 5.303-2.196c2.929-2.93 2.929-7.678 0-10.607l-6.162-6.162 6.162-6.162c2.929-2.929 2.929-7.677 0-10.607z"/><path d="m303.912 354.406c-2.929-2.928-7.678-2.928-10.606 0l-6.162 6.162-6.162-6.162c-2.929-2.927-7.678-2.929-10.606 0-2.929 2.93-2.929 7.678 0 10.607l6.161 6.162-6.161 6.162c-2.929 2.93-2.929 7.678 0 10.607 1.464 1.464 3.384 2.196 5.303 2.196s3.839-.732 5.303-2.196l6.162-6.162 6.162 6.162c1.464 1.464 3.384 2.196 5.303 2.196s3.839-.732 5.303-2.196c2.929-2.93 2.929-7.678 0-10.607l-6.161-6.162 6.161-6.162c2.929-2.929 2.929-7.677 0-10.607z"/><path d="m366.2 354.406c-2.929-2.928-7.678-2.928-10.607 0l-6.162 6.162-6.162-6.162c-2.929-2.928-7.678-2.928-10.606 0-2.929 2.93-2.929 7.678 0 10.607l6.162 6.162-6.162 6.162c-2.929 2.93-2.929 7.678 0 10.607 1.464 1.464 3.384 2.196 5.303 2.196s3.839-.732 5.303-2.196l6.162-6.162 6.162 6.162c1.464 1.464 3.384 2.196 5.303 2.196s3.839-.732 5.303-2.196c2.929-2.93 2.929-7.678 0-10.607l-6.162-6.162 6.162-6.162c2.93-2.929 2.93-7.677.001-10.607z"/></g></g></svg>