<svg id="Capa_1" enable-background="new 0 0 512 512" height="512" viewBox="0 0 512 512" width="512" xmlns="http://www.w3.org/2000/svg"><g><g><g><path d="m447.154 132.346-6.83-4.701c-12.416-8.546-19.832-22.654-19.832-37.726v-19.796h-226.016v19.795c0 15.073-7.416 29.18-19.832 37.726l-6.83 4.701c-14.63 10.07-23.369 26.694-23.369 44.455v273.732c0 29.805 24.162 53.967 53.967 53.967h218.144c29.805 0 53.967-24.162 53.967-53.967v-273.731c0-17.761-8.739-34.385-23.369-44.455z" fill="#c8effe"/></g></g><g><g><path d="m447.154 132.346-5.021-3.456h-269.298l-5.021 3.456c-14.63 10.07-23.369 26.694-23.369 44.455v273.732c0 29.805 24.162 53.967 53.967 53.967h218.144c29.805 0 53.967-24.162 53.967-53.967v-273.732c0-17.761-8.739-34.385-23.369-44.455z" fill="#e5caf3"/></g></g><g><g><path d="m447.154 132.346-5.021-3.456h-9.388c5.017 8.303 7.779 17.927 7.779 27.911v273.732c0 29.805-24.162 53.967-53.967 53.967h-218.146c-4.559 0-8.984-.571-13.213-1.636 9.844 13.136 25.536 21.636 43.213 21.636h218.144c29.805 0 53.967-24.162 53.967-53.967v-273.732c.001-17.761-8.738-34.385-23.368-44.455z" fill="#cb97e7"/></g></g><g><g><path d="m217.28 418.827h253.243v-213.396h-239.593" fill="#faf7f7"/></g></g><g><g><path d="m440.523 205.431h30v213.396h-30z" fill="#f3eae6"/></g></g><g><g><path d="m230.93 205.431h-86.486v213.396h72.836" fill="#faf7f7"/></g></g><g><g><path d="m437.326 70.123h-260.737c-3.321 0-6.013-2.692-6.013-6.013v-50.597c0-3.321 2.692-6.013 6.013-6.013h260.737c3.321 0 6.013 2.692 6.013 6.013v50.597c-.001 3.321-2.693 6.013-6.013 6.013z" fill="#9e9797"/></g></g><g><g><path d="m140.353 504.5h-9.077c-40.278 0-72.929-32.651-72.929-72.929v-193.189h154.935v193.189c0 40.277-32.652 72.929-72.929 72.929z" fill="#dff6fd"/></g></g><g><g><path d="m224.139 238.382h-176.65c-3.321 0-6.013-2.692-6.013-6.013v-45.925c0-3.321 2.692-6.013 6.013-6.013h176.65c3.321 0 6.013 2.692 6.013 6.013v45.925c0 3.321-2.692 6.013-6.013 6.013z" fill="#9e9797"/></g></g><g><g><path d="m437.326 7.5h-23.987v36.61c0 3.321-2.692 6.013-6.013 6.013h-236.75v13.987c0 3.321 2.692 6.013 6.013 6.013h260.737c3.321 0 6.013-2.692 6.013-6.013v-50.597c-.001-3.321-2.692-6.013-6.013-6.013z" fill="#766e6e"/></g></g><g><g><path d="m224.139 180.432h-23.988v31.938c0 3.321-2.692 6.013-6.012 6.013h-152.662v13.987c0 3.321 2.692 6.013 6.013 6.013h176.65c3.321 0 6.012-2.692 6.012-6.013v-45.925c0-3.321-2.692-6.013-6.013-6.013z" fill="#766e6e"/></g></g><g><g><path d="m213.282 427.033v-133.23c-15.876-1.68-32.133.169-47.145 5.612-13.738 4.98-26.861 12.915-41.463 13.487-11.724.46-23.05-3.922-33.837-8.54-10.501-4.495-21.139-9.34-32.489-10.413v133.083c0 42.784 34.683 77.467 77.467 77.467 42.784.001 77.467-34.683 77.467-77.466z" fill="#fff0ad"/></g></g><g><g><path d="m183.282 238.382v193.189c0 36.724-27.148 67.095-62.467 72.17 3.418.491 6.908.759 10.462.759h9.077c40.278 0 72.929-32.652 72.929-72.929v-193.189z" fill="#c8effe"/></g></g><g><g><path d="m183.282 294.839v112.193c0 42.784-34.683 77.467-77.468 77.467-9.395 0-18.398-1.675-26.73-4.738 14.145 15.211 34.32 24.738 56.73 24.738 42.784 0 77.468-34.684 77.468-77.467v-133.23c-9.984-1.055-20.119-.714-30 1.037z" fill="#ffd15b"/></g></g><g><g><path d="m328.664 254.236 12.303 37.8c.484 1.487 1.65 2.653 3.137 3.137l37.801 12.303c4.503 1.466 4.503 7.837 0 9.302l-37.801 12.303c-1.487.484-2.653 1.65-3.137 3.137l-12.303 37.801c-1.466 4.503-7.837 4.503-9.302 0l-12.304-37.801c-.484-1.487-1.65-2.653-3.137-3.137l-37.8-12.303c-4.503-1.466-4.503-7.837 0-9.302l37.8-12.303c1.487-.484 2.653-1.65 3.137-3.137l12.304-37.8c1.465-4.503 7.836-4.503 9.302 0z" fill="#ffe177"/></g></g><g><path d="m451.406 126.168-6.83-4.701c-10.384-7.148-16.584-18.941-16.584-31.548v-12.296h9.334c7.451 0 13.513-6.062 13.513-13.513v-50.597c-.001-7.451-6.062-13.513-13.513-13.513h-169.416c-4.143 0-7.5 3.357-7.5 7.5s3.357 7.5 7.5 7.5h167.929v47.623h-257.763v-47.623h59.834c4.143 0 7.5-3.357 7.5-7.5s-3.357-7.5-7.5-7.5h-61.321c-7.451 0-13.513 6.062-13.513 13.513v50.597c0 7.451 6.062 13.513 13.513 13.513h10.388v12.296c0 12.606-6.2 24.399-16.585 31.548l-6.831 4.701c-15.599 10.737-25.313 28.007-26.493 46.764h-27.982c-4.143 0-7.5 3.357-7.5 7.5s3.357 7.5 7.5 7.5h113.567v42.95h-173.676v-42.95h30.107c4.143 0 7.5-3.357 7.5-7.5s-3.357-7.5-7.5-7.5h-31.594c-7.451 0-13.513 6.062-13.513 13.513v45.925c0 7.451 6.062 13.513 13.513 13.513h3.358v181.15 4.538c0 44.349 36.08 80.43 80.429 80.43h9.077c11.003 0 21.495-2.226 31.056-6.244 8.36 4.087 17.639 6.244 27.003 6.244h218.144c33.894 0 61.468-27.574 61.468-61.468v-245.102-28.63c-.002-20.233-9.952-39.161-26.619-50.633zm-38.414-48.545v12.296c0 10.948 3.361 21.455 9.4 30.226h-229.816c6.039-8.771 9.4-19.277 9.4-30.226v-12.296zm-260.867 95.309c1.153-13.812 8.412-26.472 19.94-34.408l4.909-3.379h261.019l4.908 3.379c12.6 8.673 20.122 22.982 20.122 38.277v21.13h-225.371v-11.486c0-7.451-6.062-13.513-13.513-13.513zm72.014 72.95c7.451 0 13.513-6.062 13.513-13.513v-19.438h225.371v198.396h-242.241v-165.445zm-158.292 181.15v-124.13c6.58 1.711 13.121 4.522 19.928 7.449 0 0 25.878 10.558 39.192 10.045 11.801-.462 22.274-4.963 32.403-9.316 3.9-1.676 7.584-3.259 11.323-4.614 11.683-4.237 24.374-6.178 37.088-5.686v126.253c0 38.58-31.388 69.968-69.968 69.968-38.579-.001-69.966-31.389-69.966-69.969zm139.935-181.15v39.898c-14.443-.478-28.883 1.755-42.2 6.584-4.148 1.503-8.208 3.248-12.133 4.935-9.281 3.988-18.048 7.756-27.068 8.109-10.18.394-32.681-8.837-32.681-8.837-8.252-3.548-16.731-7.188-25.853-9.06v-41.63h139.935zm210.773 251.118h-218.143c-3.327 0-6.634-.379-9.866-1.079 19.559-14.686 32.236-38.065 32.236-64.351v-4.538-.705h242.241v24.205c0 25.622-20.846 46.468-46.468 46.468z"/><path d="m263.799 323.912 36.538 11.893 11.893 36.538c1.666 5.117 6.401 8.556 11.783 8.556 5.381 0 10.116-3.438 11.782-8.556l11.893-36.538 36.538-11.893c5.118-1.666 8.557-6.401 8.557-11.783s-3.439-10.117-8.557-11.783l-36.538-11.893-11.893-36.538c-1.666-5.117-6.401-8.556-11.782-8.556-5.382 0-10.117 3.438-11.783 8.556l-11.893 36.538-36.538 11.893c-5.118 1.666-8.557 6.401-8.557 11.783s3.439 10.117 8.557 11.783zm42.44-21.605c3.755-1.221 6.727-4.191 7.951-7.948l9.822-30.179 9.824 30.18c1.223 3.756 4.195 6.727 7.947 7.946l30.18 9.823-30.177 9.822c-3.755 1.221-6.728 4.191-7.951 7.948l-9.823 30.179-9.823-30.18c-1.223-3.756-4.195-6.727-7.947-7.946l-30.18-9.823z"/><path d="m380.765 263.5h3.424v3.423c0 4.142 3.357 7.5 7.5 7.5 4.142 0 7.5-3.358 7.5-7.5v-3.423h3.423c4.143 0 7.5-3.357 7.5-7.5s-3.357-7.5-7.5-7.5h-3.423v-3.423c0-4.143-3.358-7.5-7.5-7.5-4.143 0-7.5 3.357-7.5 7.5v3.423h-3.424c-4.142 0-7.5 3.357-7.5 7.5s3.358 7.5 7.5 7.5z"/><path d="m129.111 361.009h-3.424v-3.423c0-4.143-3.357-7.5-7.5-7.5s-7.5 3.357-7.5 7.5v3.423h-3.423c-4.143 0-7.5 3.357-7.5 7.5s3.357 7.5 7.5 7.5h3.423v3.424c0 4.143 3.357 7.5 7.5 7.5s7.5-3.357 7.5-7.5v-3.424h3.424c4.143 0 7.5-3.357 7.5-7.5s-3.358-7.5-7.5-7.5z"/><path d="m166.291 418.082h-3.424v-3.424c0-4.143-3.357-7.5-7.5-7.5s-7.5 3.357-7.5 7.5v3.424h-3.423c-4.143 0-7.5 3.358-7.5 7.5 0 4.143 3.357 7.5 7.5 7.5h3.423v3.423c0 4.143 3.357 7.5 7.5 7.5s7.5-3.357 7.5-7.5v-3.423h3.424c4.143 0 7.5-3.357 7.5-7.5 0-4.142-3.358-7.5-7.5-7.5z"/><path d="m409.972 350.086h-3.424c-4.142 0-7.5 3.357-7.5 7.5s3.358 7.5 7.5 7.5h3.424v3.423c0 4.143 3.357 7.5 7.5 7.5 4.142 0 7.5-3.357 7.5-7.5v-3.423h3.423c4.143 0 7.5-3.357 7.5-7.5s-3.357-7.5-7.5-7.5h-3.423v-3.423c0-4.143-3.358-7.5-7.5-7.5-4.143 0-7.5 3.357-7.5 7.5z"/><path d="m246.942 376.148h3.423v3.423c0 4.143 3.357 7.5 7.5 7.5s7.5-3.357 7.5-7.5v-3.423h3.423c4.143 0 7.5-3.357 7.5-7.5s-3.357-7.5-7.5-7.5h-3.423v-3.423c0-4.143-3.357-7.5-7.5-7.5s-7.5 3.357-7.5 7.5v3.423h-3.423c-4.143 0-7.5 3.357-7.5 7.5s3.357 7.5 7.5 7.5z"/></g></g></svg>