<svg id="Capa_1" enable-background="new 0 0 512 512" height="512" viewBox="0 0 512 512" width="512" xmlns="http://www.w3.org/2000/svg"><g><g><g><path d="m18.535 178.204 48.453 10.257v-22.784-22.784l-48.453 10.257c-14.714 1.87-14.714 23.183 0 25.054z" fill="#faf7f7"/></g></g><g><g><path d="m274.476 247.263-29.846 62.477c-7.148 14.962 3.76 32.261 20.342 32.261h59.775v-94.738z" fill="#9e9797"/></g></g><g><g><path d="m247.507 303.717-2.877 6.023c-7.148 14.962 3.76 32.261 20.342 32.261h59.775v-30h-59.775c-7.252 0-13.419-3.309-17.465-8.284z" fill="#766e6e"/></g></g><g><g><path d="m478.95 168.084-257.443 8.591v-59.692h257.443c14.111 0 25.55 11.439 25.55 25.55 0 14.111-11.439 25.551-25.55 25.551z" fill="#e1d3ce"/></g></g><g><g><path d="m427.551 247.665 7.81-4.704c13.148-7.919 21.188-22.146 21.188-37.495v-46.044c0-15.35-7.965-29.6-21.04-37.642l-26.002-15.993c-6.963-4.283-14.978-6.55-23.153-6.55h-31.525c-2.901 0-4.857 2.967-3.713 5.633l15.473 36.079c2.456 5.726-1.744 12.097-7.975 12.097h-61.734c-2.952 0-5.701-1.5-7.298-3.983l-30.86-47.972c-.744-1.156-2.024-1.854-3.398-1.854h-82.656c-5.008 0-9.98.851-14.702 2.518l-78.306 27.625c-7.593 2.679-12.671 9.855-12.671 17.907v37.283c0 6.873 5.571 12.444 12.444 12.444h19.555c6.721 0 13.202 2.498 18.185 7.008l30.67 27.762c4.983 4.51 11.464 7.008 18.184 7.008h73.285c29.777 0 56.153 19.212 65.287 47.553l39.197 113.885c2.581 7.499 9.637 12.532 17.567 12.532h65.334c11.956 0 20.8-11.13 18.098-22.777l-27.43-118.251c-2.178-9.382 1.935-19.099 10.186-24.069z" fill="#62dbfb"/></g></g><g><g><g><path d="m427.551 247.665 7.81-4.704c13.148-7.919 21.188-22.146 21.188-37.495v-46.044c0-15.35-7.965-29.6-21.04-37.642l-11.502-7.075c1.648 4.663 2.542 9.626 2.542 14.717v46.044c0 15.349-8.039 29.576-21.188 37.495l-7.81 4.704c-8.251 4.97-12.364 14.687-10.187 24.07l27.43 118.251c2.702 11.647-6.142 22.777-18.098 22.777h-58.913l6.012 17.467c2.581 7.499 9.637 12.533 17.567 12.533h65.334c11.956 0 20.8-11.13 18.098-22.777l-27.43-118.251c-2.177-9.383 1.936-19.1 10.187-24.07z" fill="#01d0fb"/></g></g></g><g><path d="m478.95 109.483h-48.071c-.319 0-.631.026-.94.065l-16.503-10.151c-8.15-5.013-17.515-7.663-27.082-7.663h-31.524c-3.892 0-7.494 1.94-9.636 5.189s-2.504 7.324-.971 10.9l.712 1.659h-71.895l-8.01-12.452c-2.134-3.316-5.762-5.296-9.705-5.296h-82.656c-5.872 0-11.658.991-17.197 2.945l-19.39 6.841c-3.906 1.378-5.955 5.662-4.578 9.568 1.378 3.906 5.66 5.955 9.568 4.578l19.39-6.841c3.932-1.387 8.039-2.09 12.207-2.09h80.768l29.839 46.385c2.991 4.649 8.077 7.425 13.605 7.425h61.733c5.455 0 10.504-2.719 13.507-7.273 3.002-4.555 3.511-10.267 1.361-15.28l-10.248-23.896c-.01-.023-.02-.046-.03-.069l-3.127-7.291h26.276c6.791 0 13.438 1.881 19.224 5.439l26.002 15.993c10.775 6.628 17.469 18.604 17.469 31.254v23.52l-20.508 6.388c-21.315 6.639-39.577 19.653-52.809 37.634-13.233 17.981-20.227 39.287-20.227 61.612 0 9.02 1.176 18.013 3.496 26.73l23.937 89.957h-21.574c-4.728 0-8.938-3.003-10.476-7.474l-39.174-113.818c-10.191-31.512-39.277-52.679-72.402-52.679h-73.285c-4.87 0-9.541-1.8-13.151-5.068l-30.669-27.762c-6.375-5.77-14.621-8.948-23.218-8.948h-19.555c-2.726 0-4.944-2.218-4.944-4.944v-37.283c0-4.863 3.08-9.216 7.666-10.834l30.793-10.864c3.906-1.378 5.955-5.662 4.578-9.568-1.378-3.906-5.66-5.956-9.568-4.578l-30.793 10.864c-6.919 2.441-12.335 7.592-15.264 13.997l-44.648 9.451c-10.176 1.45-17.253 9.595-17.253 19.922s7.077 18.472 17.253 19.922l45.332 9.596c3.537 5.589 9.758 9.319 16.848 9.319h19.555c4.87 0 9.54 1.8 13.151 5.068l30.669 27.763c6.375 5.77 14.62 8.947 23.218 8.947h73.285c8.768 0 17.178 1.857 24.814 5.24l-26.262 54.975c-4.473 9.365-3.839 20.196 1.696 28.975 5.535 8.778 15.036 14.019 25.414 14.019h52.887c.181 0 .357-.014.535-.027l18.309 53.196c3.621 10.522 13.531 17.592 24.659 17.592h31.302c.008 0 .016.002.024.002.01 0 .02-.002.03-.002h33.978c8 0 15.441-3.592 20.418-9.855 4.976-6.263 6.794-14.324 4.986-22.117l-9.546-41.153c-.936-4.035-4.97-6.548-9.001-5.611-4.035.936-6.547 4.966-5.611 9.001l9.546 41.153c.768 3.311-.004 6.735-2.118 9.396s-5.275 4.187-8.674 4.187h-28.238l-24.963-93.814c-1.985-7.46-2.991-15.155-2.991-22.874 0-39.153 25.116-73.282 62.497-84.925l16.047-4.999v6.814c0 12.642-6.728 24.548-17.557 31.071l-7.81 4.704c-11.068 6.667-16.543 19.603-13.624 32.189l11.309 48.754c.804 3.465 3.889 5.807 7.299 5.807.561 0 1.132-.064 1.702-.195 4.035-.936 6.547-4.966 5.611-9.001l-11.309-48.754c-1.447-6.237 1.266-12.647 6.75-15.951l7.81-4.704c15.308-9.22 24.818-26.049 24.818-43.92v-16.965c0-.027 0-.054 0-.081v-12.335l15.035-.502c18.163-.072 32.917-14.87 32.917-33.05 0-18.222-14.826-33.049-33.05-33.049zm-119.353 35.533c-.231.351-.562.529-.983.529h-61.734c-.402 0-.773-.202-.99-.54l-13.201-20.521h68.678l8.329 19.42c.165.387.132.761-.099 1.112zm-300.109 34.191-39.4-8.34c-.201-.042-.404-.077-.607-.103-4.044-.514-4.481-3.729-4.481-5.087s.437-4.573 4.481-5.087c.204-.026.406-.06.607-.102l39.4-8.34zm205.484 155.294c-5.274 0-9.912-2.559-12.725-7.02s-3.123-9.749-.849-14.509l25.646-53.685c9.346 7.334 16.569 17.422 20.416 29.358.015.047.03.093.046.14l15.734 45.715h-48.268zm213.978-173.917c-.083 0-.167.001-.25.004l-14.652.489v-1.656c0-13.012-5.044-25.502-13.665-34.938h28.566c9.953 0 18.05 8.097 18.05 18.05.001 9.953-8.096 18.051-18.049 18.051z"/><path d="m187.353 139.712h46.285c4.142 0 7.5-3.358 7.5-7.5s-3.358-7.5-7.5-7.5h-46.285c-4.142 0-7.5 3.358-7.5 7.5s3.357 7.5 7.5 7.5z"/><path d="m187.353 173.177h46.285c4.142 0 7.5-3.358 7.5-7.5s-3.358-7.5-7.5-7.5h-46.285c-4.142 0-7.5 3.358-7.5 7.5s3.357 7.5 7.5 7.5z"/><path d="m187.353 208.649h46.285c4.142 0 7.5-3.358 7.5-7.5s-3.358-7.5-7.5-7.5h-46.285c-4.142 0-7.5 3.358-7.5 7.5s3.357 7.5 7.5 7.5z"/></g></g></svg>