<svg id="Capa_1" enable-background="new 0 0 512 512" height="512" viewBox="0 0 512 512" width="512" xmlns="http://www.w3.org/2000/svg"><g><g><g><path d="m112.209 47.386c0-15.883-12.875-28.758-28.758-28.758-15.883 0-28.758 12.876-28.758 28.758v108.495h57.516z" fill="#01d0fb"/></g></g><g><g><path d="m112.209 155.881v96.975h-57.516 57.516z" fill="#c8effe"/></g></g><g><g><path d="m54.693 155.881h57.516v96.975h-57.516z" fill="#99e6fc"/></g></g><g><g><path d="m169.725 155.881v-108.495c0-15.883-12.876-28.758-28.758-28.758-15.883 0-28.758 12.876-28.758 28.758v108.495z" fill="#68ca44"/></g></g><g><g><path d="m169.725 155.881h-57.516v96.975h57.516z" fill="#97da7b"/></g></g><g><g><path d="m227.242 155.881v-108.495c0-15.883-12.875-28.758-28.758-28.758-15.883 0-28.758 12.876-28.758 28.758v108.495z" fill="#ffc344"/></g></g><g><g><path d="m227.242 155.881v96.975h-57.517 57.517z" fill="#c8effe"/></g></g><g><g><path d="m169.725 157.041v96.974h57.517v-96.974z" fill="#ffe177"/></g></g><g><g><path d="m284.758 47.386c0-15.883-12.875-28.758-28.758-28.758-15.883 0-28.758 12.876-28.758 28.758v108.495h57.516z" fill="#fe646f"/></g></g><g><g><path d="m227.242 157.041h57.516v96.975h-57.516z" fill="#fd8087"/></g></g><g><g><path d="m342.274 155.881v-108.495c0-15.883-12.875-28.758-28.758-28.758-15.883 0-28.758 12.875-28.758 28.758v108.495z" fill="#bd80e1"/></g></g><g><g><path d="m342.274 157.041h-57.516v96.974h57.516z" fill="#d9b1ee"/></g></g><g><g><path d="m399.791 155.881v-108.496c0-15.883-12.875-28.758-28.758-28.758-15.883 0-28.758 12.875-28.758 28.758v108.495h57.516z" fill="#9e9797"/></g></g><g><g><path d="m342.274 157.041v96.974h57.517v-96.975h-57.517z" fill="#b9acac"/></g></g><g><g><path d="m428.549 18.627c-15.883 0-28.758 12.875-28.758 28.758v108.495h57.516v-108.495c0-15.882-12.876-28.758-28.758-28.758z" fill="#e1d3ce"/></g></g><g><g><path d="m399.791 157.04h57.516v96.975h-57.516z" fill="#f3eae6"/></g></g><g><g><path d="m489.419 493.373h-466.838c-8.329 0-15.081-6.752-15.081-15.081v-181.626c0-8.329 6.752-15.081 15.081-15.081h466.838c8.329 0 15.081 6.752 15.081 15.081v181.625c0 8.33-6.752 15.082-15.081 15.082z" fill="#ffbd86"/></g></g><g><g><path d="m487.82 281.585h-463.641v-47.859c0-3.524 2.857-6.382 6.382-6.382h450.878c3.525 0 6.382 2.857 6.382 6.382v47.859z" fill="#fff3de"/></g></g><g><g><path d="m481.439 227.345h-23.619v9.171c0 12.189-9.881 22.069-22.069 22.069h-411.572v23h463.641v-47.859c0-3.524-2.857-6.381-6.381-6.381z" fill="#ffe5c2"/></g></g><g><g><path d="m463.299 418.188v-61.418c-18.769 0-33.984-15.215-33.984-33.984h-346.63c0 18.769-15.215 33.984-33.984 33.984v61.418c18.769 0 33.984 15.215 33.984 33.984h346.631c-.001-18.769 15.214-33.984 33.983-33.984z" fill="#d88a55"/></g></g><g><g><path d="m489.419 281.585h-14.919v166.706c0 8.329-6.752 15.081-15.081 15.081h-451.919v14.919c0 8.329 6.752 15.081 15.081 15.081h466.838c8.329 0 15.081-6.752 15.081-15.081v-181.625c0-8.329-6.752-15.081-15.081-15.081z" fill="#f6a96c"/></g></g><g><g><g><path d="m433.299 338.754v25.267c0 11.882-6.496 22.723-16.817 28.612-5.295 3.021-9.699 7.425-12.72 12.721-5.889 10.321-16.73 16.817-28.612 16.817h-310.481c10.718 5.717 18.015 17.004 18.015 30h346.631c0-18.769 15.215-33.984 33.984-33.984v-61.417c-12.996 0-24.283-7.297-30-18.016z" fill="#c57a44"/></g></g></g><g><path d="m495.32 274.873v-41.147c0-7.654-6.227-13.881-13.882-13.881h-16.631v-172.459c0-19.993-16.266-36.258-36.258-36.258-11.704 0-22.125 5.58-28.758 14.213-6.634-8.633-17.054-14.213-28.758-14.213s-22.124 5.58-28.758 14.213c-6.634-8.633-17.054-14.213-28.758-14.213s-22.124 5.58-28.758 14.213c-6.634-8.633-17.054-14.213-28.758-14.213s-22.124 5.58-28.758 14.213c-6.634-8.633-17.054-14.213-28.758-14.213s-22.124 5.58-28.758 14.213c-6.634-8.633-17.054-14.213-28.758-14.213s-22.124 5.58-28.758 14.213c-6.634-8.633-17.054-14.213-28.758-14.213-19.993 0-36.258 16.266-36.258 36.258v172.459h-16.634c-7.654 0-13.882 6.227-13.882 13.881v41.147c-9.597 2.602-16.679 11.384-16.679 21.794v181.625c0 12.451 10.129 22.581 22.581 22.581h358.043c4.142 0 7.5-3.358 7.5-7.5s-3.358-7.5-7.5-7.5h-358.043c-4.18 0-7.581-3.401-7.581-7.581v-181.625c0-4.18 3.401-7.581 7.581-7.581h466.838c4.18 0 7.581 3.401 7.581 7.581v181.625c0 4.18-3.401 7.581-7.581 7.581h-78.795c-4.142 0-7.5 3.358-7.5 7.5s3.358 7.5 7.5 7.5h78.795c12.451 0 22.581-10.13 22.581-22.581v-181.625c0-10.41-7.082-19.192-16.68-21.794zm-88.03-55.028v-56.464h42.517v56.464zm-287.581-56.464h42.516v56.464h-42.516zm57.516 0h42.517v56.464h-42.517zm57.517 0h42.516v56.464h-42.516zm57.516 0h42.517v56.464h-42.517zm57.516 0h42.516v56.464h-42.516zm78.775-137.254c11.722 0 21.258 9.537 21.258 21.258v100.995h-42.517v-100.994c0-11.722 9.537-21.259 21.259-21.259zm-57.516 0c11.722 0 21.258 9.537 21.258 21.258v100.995h-42.516v-100.994c-.001-11.722 9.536-21.259 21.258-21.259zm-57.517 0c11.722 0 21.258 9.537 21.258 21.258v100.995h-42.517v-100.994c.001-11.722 9.537-21.259 21.259-21.259zm-57.516 0c11.722 0 21.258 9.537 21.258 21.258v100.995h-42.516v-100.994c0-11.722 9.536-21.259 21.258-21.259zm-57.517 0c11.722 0 21.258 9.537 21.258 21.258v100.995h-42.517v-100.994c.001-11.722 9.538-21.259 21.259-21.259zm-57.516 0c11.722 0 21.258 9.537 21.258 21.258v100.995h-42.516v-100.994c0-11.722 9.537-21.259 21.258-21.259zm-78.775 21.259c0-11.722 9.537-21.258 21.258-21.258s21.258 9.537 21.258 21.258v100.995h-42.516zm0 115.995h42.517v56.464h-42.517zm-30.513 110.704v-39.241h448.641v39.241z"/><path d="m135.743 315.286h-53.058c-4.142 0-7.5 3.358-7.5 7.5 0 14.603-11.88 26.484-26.483 26.484-4.142 0-7.5 3.358-7.5 7.5v61.418c0 4.142 3.358 7.5 7.5 7.5 14.603 0 26.483 11.88 26.483 26.484 0 4.142 3.358 7.5 7.5 7.5h346.631c4.142 0 7.5-3.358 7.5-7.5 0-14.603 11.88-26.484 26.483-26.484 4.142 0 7.5-3.358 7.5-7.5v-61.418c0-4.142-3.358-7.5-7.5-7.5-14.603 0-26.483-11.881-26.483-26.484 0-4.142-3.358-7.5-7.5-7.5h-263.573c-4.142 0-7.5 3.358-7.5 7.5s3.358 7.5 7.5 7.5h256.751c3.094 16.873 16.432 30.21 33.304 33.305v47.776c-16.872 3.094-30.21 16.432-33.304 33.305h-332.989c-3.094-16.873-16.432-30.21-33.304-33.305v-47.776c16.873-3.094 30.21-16.432 33.304-33.305h46.238c4.142 0 7.5-3.358 7.5-7.5s-3.358-7.5-7.5-7.5z"/><path d="m146.42 394.979h219.16c4.142 0 7.5-3.358 7.5-7.5s-3.358-7.5-7.5-7.5h-219.16c-4.142 0-7.5 3.358-7.5 7.5s3.358 7.5 7.5 7.5z"/></g></g></svg>