<svg id="Capa_1" enable-background="new 0 0 512 512" height="512" viewBox="0 0 512 512" width="512" xmlns="http://www.w3.org/2000/svg"><g><g><g><path d="m451.61 77.091h-48.551v30.764h35.09c5.309 0 9.613 4.304 9.613 9.614v48.765c0 3.933-2.396 7.469-6.048 8.928l-206.197 82.351c-10.226 4.084-16.933 13.985-16.933 24.996v52.388h30.763v-43.269c0-3.933 2.396-7.469 6.048-8.928l206.197-82.351c10.226-4.084 16.933-13.985 16.933-24.996v-71.346c.001-14.866-12.05-26.916-26.915-26.916z" fill="#9e9797"/></g></g><g><g><path d="m388.849 144.521h-329.998c-14.015 0-25.377-11.362-25.377-25.377v-86.267c0-14.015 11.361-25.377 25.377-25.377h329.998c14.015 0 25.377 11.362 25.377 25.377v86.267c0 14.015-11.362 25.377-25.377 25.377z" fill="#efe2dd"/></g></g><g><g><path d="m388.849 7.5h-4.623v85.644c0 14.015-11.362 25.377-25.377 25.377h-325.375v.623c0 14.015 11.361 25.377 25.377 25.377h329.998c14.015 0 25.377-11.362 25.377-25.377v-86.267c0-14.015-11.362-25.377-25.377-25.377z" fill="#e1d3ce"/></g></g><g><g><path d="m234.715 504.5c-29.249 0-51.811-25.75-47.967-54.745l13.362-100.806h69.21l13.362 100.806c3.843 28.995-18.718 54.745-47.967 54.745z" fill="#ea9b58"/></g></g><g><g><path d="m282.682 449.755-13.362-100.806h-27.349l10.711 80.806c3.843 28.995-18.718 54.745-47.967 54.745-3.4 0-6.705-.362-9.893-1.022 8.668 12.611 23.184 21.022 39.893 21.022 29.248 0 51.81-25.75 47.967-54.745z" fill="#d88a55"/></g></g><g><g><path d="m258.5 313.289h-47.571c-2.198 0-3.98 1.782-3.98 3.98v31.68h55.531v-31.68c0-2.198-1.782-3.98-3.98-3.98z" fill="#01c0fa"/></g></g><g><g><path d="m414.226 45.276c0-20.863-16.913-37.776-37.776-37.776h-305.2c-20.863 0-37.776 16.913-37.776 37.776v16.911c0 6.126 4.966 11.092 11.092 11.092h20.464c6.126 0 11.092 4.966 11.092 11.092v94.152c0 9.205 7.462 16.667 16.668 16.667 9.205 0 16.667-7.462 16.667-16.667v-42.11c0 9.205 7.462 16.667 16.668 16.667 9.205 0 16.667-7.462 16.667-16.667v-63.134h49.045v29.081c0 9.205 7.462 16.668 16.667 16.668 9.205 0 16.668-7.462 16.668-16.668v-29.081h177.963c6.126 0 11.092-4.966 11.092-11.092v-16.911z" fill="#cb97e7"/></g></g><g><g><g><path d="m376.45 7.5h-30c20.863 0 37.776 16.913 37.776 37.776v16.911c0 6.126-4.966 11.091-11.091 11.091h30c6.126 0 11.091-4.966 11.091-11.091v-16.911c0-20.863-16.913-37.776-37.776-37.776z" fill="#bd80e1"/></g></g></g><path d="m451.61 69.591h-29.884v-36.714c0-18.129-14.748-32.877-32.877-32.877h-235.629c-4.143 0-7.5 3.358-7.5 7.5s3.357 7.5 7.5 7.5h235.629c9.857 0 17.877 8.02 17.877 17.877v32.902h-170.463c-10.252 0-18.592 8.34-18.592 18.592v17.989c0 5.055-4.112 9.168-9.168 9.168-5.055 0-9.167-4.112-9.167-9.168v-17.989c0-10.251-8.34-18.592-18.592-18.592h-26.861c-10.252 0-18.592 8.34-18.592 18.592v52.041c0 5.055-4.112 9.168-9.168 9.168-5.055 0-9.167-4.112-9.167-9.168v-23.751c0-4.142-3.357-7.5-7.5-7.5-4.142 0-7.5 3.358-7.5 7.5v23.751 42.11c0 5.055-4.112 9.167-9.168 9.167-5.055 0-9.167-4.112-9.167-9.167v-94.151c0-10.251-8.34-18.592-18.592-18.592h-24.055v-32.902c0-9.857 8.02-17.877 17.877-17.877h64.369c4.143 0 7.5-3.358 7.5-7.5s-3.357-7.5-7.5-7.5h-64.369c-18.128 0-32.877 14.748-32.877 32.877v86.267c0 18.129 14.749 32.877 32.877 32.877h9.77v26.502c0 13.326 10.841 24.167 24.167 24.167s24.168-10.841 24.168-24.167v-19.749c2.828 1.164 5.924 1.806 9.167 1.806 7.38 0 13.993-3.328 18.43-8.559h139.637c4.143 0 7.5-3.358 7.5-7.5s-3.357-7.5-7.5-7.5h-133.914c.005-.203.015-.405.015-.609v-52.041c0-1.98 1.611-3.592 3.592-3.592h26.861c1.98 0 3.592 1.611 3.592 3.592v17.989c0 13.326 10.841 24.168 24.167 24.168s24.168-10.841 24.168-24.168v-17.989c0-1.98 1.611-3.592 3.592-3.592h170.463v38.365c0 9.857-8.02 17.877-17.877 17.877h-74.659c-4.143 0-7.5 3.358-7.5 7.5s3.357 7.5 7.5 7.5h74.659c18.129 0 32.877-14.748 32.877-32.877v-3.789h16.423c1.165 0 2.113.948 2.113 2.113v48.765c0 .87-.523 1.641-1.329 1.963l-206.198 82.35c-13.152 5.253-21.65 17.798-21.65 31.961v23.282h-.155c-6.33 0-11.48 5.15-11.48 11.48v24.211c-3.466.304-6.309 2.976-6.773 6.484l-13.362 100.805c-2.116 15.963 2.756 32.063 13.367 44.174 10.61 12.111 25.931 19.057 42.032 19.057 16.102 0 31.423-6.946 42.034-19.056 10.611-12.111 15.484-28.212 13.368-44.174l-13.362-100.805c-.465-3.509-3.308-6.18-6.774-6.484v-24.211c0-6.331-5.15-11.48-11.48-11.48h-1.651v-14.163c0-.87.521-1.64 1.329-1.963l206.198-82.351c13.152-5.253 21.65-17.798 21.65-31.961v-71.346c0-18.976-15.44-34.415-34.416-34.415zm-392.759 67.43c-9.858 0-17.877-8.02-17.877-17.877v-38.365h24.056c1.98 0 3.592 1.611 3.592 3.592v52.65zm196.129 183.768v20.661h-40.531v-20.661zm20.268 129.951c1.547 11.678-2.018 23.458-9.781 32.318s-18.972 13.941-30.752 13.941-22.989-5.082-30.752-13.942c-7.764-8.86-11.328-20.64-9.78-32.318l12.499-94.29h.268 55.531.268zm195.778-275.388c0 7.99-4.794 15.067-12.214 18.031l-206.197 82.35c-6.541 2.612-10.767 8.85-10.767 15.893v14.163h-15.764v-23.282c0-7.99 4.794-15.067 12.214-18.031l206.198-82.351c6.54-2.612 10.766-8.851 10.766-15.893v-48.765c0-9.436-7.677-17.113-17.113-17.113h-16.423v-15.763h29.884c10.706 0 19.416 8.71 19.416 19.416z"/></g></svg>