<svg id="Capa_1" enable-background="new 0 0 512 512" height="512" viewBox="0 0 512 512" width="512" xmlns="http://www.w3.org/2000/svg"><g><g><g><path d="m456.126 504.5h-248.569c-4.81 0-8.709-3.899-8.709-8.709v-327.899c0-4.81 3.899-8.709 8.709-8.709h248.569c4.81 0 8.709 3.899 8.709 8.709v327.898c0 4.811-3.899 8.71-8.709 8.71z" fill="#d9b1ee"/></g></g><g><g><path d="m405.565 453.939h-248.569c-4.81 0-8.709-3.899-8.709-8.709v-327.899c0-4.81 3.899-8.709 8.709-8.709h248.569c4.81 0 8.709 3.899 8.709 8.709v327.899c0 4.81-3.899 8.709-8.709 8.709z" fill="#ffe177"/></g></g><g><g><path d="m355.004 403.378h-248.569c-4.81 0-8.709-3.899-8.709-8.709v-327.899c0-4.81 3.899-8.709 8.709-8.709h248.569c4.81 0 8.709 3.899 8.709 8.709v327.898c0 4.811-3.899 8.71-8.709 8.71z" fill="#97da7b"/></g></g><g><g><path d="m304.443 352.817h-248.569c-4.81 0-8.709-3.899-8.709-8.709v-327.899c0-4.81 3.899-8.709 8.709-8.709h248.569c4.81 0 8.709 3.899 8.709 8.709v327.898c0 4.811-3.899 8.71-8.709 8.71z" fill="#62dbfb"/></g></g><g><g><path d="m456.126 159.183h-19.291v309.607c0 4.81-3.899 8.71-8.709 8.71h-229.278v18.29c0 4.81 3.899 8.71 8.709 8.71h248.569c4.81 0 8.709-3.899 8.709-8.71v-327.898c0-4.81-3.899-8.709-8.709-8.709z" fill="#cb97e7"/></g></g><g><g><path d="m405.565 108.622h-19.291v309.608c0 4.81-3.899 8.709-8.709 8.709h-229.278v18.291c0 4.81 3.899 8.709 8.709 8.709h248.569c4.81 0 8.709-3.899 8.709-8.709v-327.899c0-4.81-3.899-8.709-8.709-8.709z" fill="#ffd15b"/></g></g><g><g><path d="m355.004 58.061h-19.291v309.608c0 4.81-3.899 8.71-8.709 8.71h-229.278v18.29c0 4.81 3.899 8.71 8.709 8.71h248.569c4.81 0 8.709-3.899 8.709-8.71v-327.899c0-4.81-3.899-8.709-8.709-8.709z" fill="#80d261"/></g></g><g><g><path d="m304.443 7.5h-19.291v309.608c0 4.81-3.899 8.709-8.709 8.709h-229.278v18.291c0 4.81 3.899 8.709 8.709 8.709h248.569c4.81 0 8.709-3.899 8.709-8.709v-327.899c0-4.81-3.899-8.709-8.709-8.709z" fill="#01d0fb"/></g></g><g><path d="m456.126 151.683h-34.352v-34.351c0-8.938-7.271-16.209-16.21-16.209h-34.352v-34.352c0-8.938-7.271-16.209-16.209-16.209h-34.352v-34.353c.002-8.937-7.27-16.209-16.208-16.209h-133.475c-4.142 0-7.5 3.358-7.5 7.5s3.358 7.5 7.5 7.5h133.476c.667 0 1.209.542 1.209 1.209v240.099h-.5c-4.142 0-7.5 3.358-7.5 7.5s3.358 7.5 7.5 7.5h.5v72.8c0 .667-.542 1.21-1.209 1.21h-248.57c-.667 0-1.21-.543-1.21-1.21v-201.938h.5c4.142 0 7.5-3.358 7.5-7.5s-3.358-7.5-7.5-7.5h-.5v-110.961c0-.667.543-1.209 1.21-1.209h85.093c4.142 0 7.5-3.358 7.5-7.5s-3.358-7.5-7.5-7.5h-85.093c-8.938 0-16.21 7.272-16.21 16.209v327.898c0 8.938 7.272 16.21 16.21 16.21h34.352v34.351c0 8.938 7.271 16.209 16.209 16.209h34.352v34.352c0 8.938 7.271 16.21 16.21 16.21h34.351v34.352c0 8.938 7.271 16.21 16.209 16.21h248.569c8.938 0 16.209-7.272 16.209-16.21v-327.899c0-8.938-7.271-16.209-16.209-16.209zm-350.9 242.985v-34.351h199.217c8.938 0 16.209-7.272 16.209-16.21v-278.546h34.352c.667 0 1.209.543 1.209 1.21v327.898c0 .667-.542 1.209-1.209 1.209h-248.569c-.667 0-1.209-.543-1.209-1.21zm352.109 101.122c0 .667-.542 1.21-1.209 1.21h-248.569c-.667 0-1.209-.543-1.209-1.21v-34.352h84.686c4.142 0 7.5-3.358 7.5-7.5s-3.358-7.5-7.5-7.5h-134.038c-.667 0-1.21-.542-1.21-1.21v-34.352h199.217c8.938 0 16.209-7.271 16.209-16.209v-278.545h34.352c.667 0 1.21.542 1.21 1.209v327.898c0 .667-.542 1.21-1.21 1.21h-84.531c-4.142 0-7.5 3.358-7.5 7.5s3.358 7.5 7.5 7.5h84.531c8.938 0 16.21-7.271 16.21-16.21v-278.546h34.352c.667 0 1.209.542 1.209 1.21z"/><path d="m136.257 146.523c-2.23 3.491-1.208 8.128 2.283 10.358 4.268 2.727 8.342 5.822 12.11 9.2 1.432 1.284 3.221 1.916 5.004 1.916 2.057 0 4.105-.841 5.586-2.493 2.765-3.084 2.507-7.826-.577-10.591-4.372-3.919-9.098-7.511-14.049-10.673-3.49-2.231-8.127-1.208-10.357 2.283z"/><path d="m267.438 270.918c.216.018.431.027.643.027 3.855 0 7.133-2.955 7.465-6.866.351-4.128-2.711-7.757-6.838-8.108-5.046-.428-10.091-1.275-14.996-2.516-4.015-1.015-8.094 1.416-9.11 5.432s1.416 8.094 5.432 9.11c5.692 1.442 11.548 2.424 17.404 2.921z"/><path d="m218.436 252.855c2.356 0 4.677-1.108 6.137-3.18 2.386-3.386 1.575-8.065-1.811-10.451-4.14-2.917-8.07-6.194-11.681-9.741-2.955-2.903-7.704-2.86-10.606.095-2.903 2.955-2.86 7.704.095 10.606 4.189 4.115 8.748 7.917 13.551 11.301 1.314.926 2.822 1.37 4.315 1.37z"/><path d="m92.465 127.254c-4.112-.162-7.626 3.06-7.789 7.2-.163 4.139 3.061 7.626 7.199 7.789 5.065.199 10.146.815 15.101 1.83.508.104 1.014.154 1.513.154 3.487 0 6.612-2.446 7.339-5.996.832-4.058-1.784-8.021-5.842-8.853-5.748-1.178-11.644-1.893-17.521-2.124z"/><path d="m177.892 207.808c1.258 2.76 3.981 4.391 6.829 4.391 1.041 0 2.098-.218 3.107-.678 3.769-1.718 5.431-6.166 3.713-9.936-.753-1.652-1.47-3.354-2.129-5.055-1.357-3.503-2.911-6.971-4.618-10.307-1.888-3.688-6.409-5.146-10.094-3.259-3.687 1.888-5.146 6.407-3.259 10.094 1.472 2.876 2.812 5.867 3.983 8.889.764 1.973 1.595 3.945 2.468 5.861z"/></g></g></svg>