<svg id="Capa_1" enable-background="new 0 0 511.996 511.996" height="512" viewBox="0 0 511.996 511.996" width="512" xmlns="http://www.w3.org/2000/svg"><g><g><g><path d="m420.978 7.5-274.628 274.628 47.676 108.865 56.898 56.897 27.888-5.21-8.554-29.552 29.904-7.227-8.553-29.552 29.905-7.228-8.551-29.555 29.905-7.228-8.552-29.555 29.903-7.224-8.554-29.551 29.904-7.227-8.551-29.556 29.904-7.227-8.552-29.555 29.906-7.229-8.55-29.557 29.904-7.227-8.55-29.558 29.909-7.234-8.548-29.562 27.894-5.22z" fill="#eaf6ff"/></g><path d="m291.12 408.087-7.094-7.094-39.459-90.101c-4.956-11.316-2.468-24.513 6.267-33.248l206.536-233.753-36.392-36.391-274.628 274.628 47.676 108.865 56.898 56.898 27.888-5.21-8.553-29.552z" fill="#d8ecfe"/><path d="m148.666 255.394-124.492 124.491c-3.364 3.364-3.364 8.817 0 12.18l17.171 17.171c2.307 2.307 5.719 3.112 8.814 2.081l14.457-4.819c5.889-1.963 12.364.258 15.808 5.424l52.586 88.738c3.015 4.522 9.413 5.156 13.257 1.313l83.265-83.265c2.139-2.139 2.999-5.244 2.265-8.179l-27.285-46.858 27.442-35.639-71.874-71.872c-3.363-3.364-8.051-4.129-11.414-.766zm-6.858 95.205 32.198 48.183c6.197 9.274 4.98 21.634-2.907 29.521-10.425 10.425-27.779 8.716-35.97-3.542l-32.198-48.183c-6.197-9.274-4.98-21.634 2.907-29.521 10.425-10.425 27.779-8.716 35.97 3.542z" fill="#ffb124"/><g><path d="m163.009 470.66-25.281-42.662c-2.651-2.764-1.097-1.213-34.796-51.419-.056-.084-.111-.168-.166-.252-10.886-3.125-23.597 10.733-31.42 2.91l-17.171-17.171c-3.363-3.363-3.363-8.817 0-12.18l-30 30c-3.364 3.364-3.364 8.817 0 12.18l17.171 17.171c2.307 2.307 5.719 3.112 8.814 2.081l14.457-4.819c5.889-1.963 12.364.258 15.808 5.424l52.586 88.738c3.015 4.522 9.413 5.156 13.257 1.313l30-30c-3.846 3.842-10.244 3.208-13.259-1.314z" fill="#ff901d"/></g></g><g><path d="m495.639 71.552-69.357-69.356c-2.93-2.928-7.678-2.928-10.607 0l-53.83 53.83c-2.929 2.93-2.929 7.678 0 10.607 2.93 2.928 7.678 2.928 10.607 0l48.526-48.527 53.995 53.994-13.911 2.604c-4.344.812-7.055 5.198-5.825 9.455l6.371 22.032-22.29 5.391c-4.169 1.009-6.624 5.288-5.442 9.374l6.371 22.026-22.282 5.385c-4.161 1.005-6.628 5.281-5.442 9.374l6.371 22.026-22.285 5.387c-4.16 1.007-6.627 5.28-5.441 9.375l6.372 22.021-22.282 5.386c-4.151 1.002-6.63 5.272-5.442 9.375l6.372 22.022-22.283 5.386c-4.154 1.003-6.63 5.273-5.442 9.376l6.374 22.017c-20.583 5.655-24.279 4.213-27.005 8.907-1.027 1.771-1.287 3.884-.718 5.851l6.372 22.021-1.939.469c-4.026.973-6.501 5.025-5.528 9.052.98 4.054 5.057 6.497 9.052 5.528l9.562-2.311c4.151-1.002 6.63-5.272 5.442-9.375l-6.372-22.021 22.281-5.383c4.152-1.003 6.63-5.273 5.442-9.376l-6.374-22.017 22.282-5.386c4.151-1.002 6.63-5.272 5.442-9.375l-6.372-22.022 22.283-5.386c4.151-1.002 6.63-5.272 5.442-9.375l-6.373-22.021 22.285-5.387c4.161-1.007 6.626-5.28 5.442-9.374l-6.372-22.025 22.282-5.385c4.144-1.001 6.632-5.262 5.443-9.374l-6.372-22.027 22.289-5.391c4.16-1.007 6.626-5.279 5.442-9.373l-6.254-21.627 19.774-3.7c5.922-1.109 8.181-8.417 3.924-12.677z"/><path d="m319.752 361.831-29.904 7.229c-4.152 1.002-6.63 5.272-5.442 9.375l6.372 22.02-22.281 5.385c-4.151 1.002-6.631 5.272-5.442 9.375l6.255 21.612-15.876 2.966-17.279-17.278c4.092-5.275 4.099-12.362 2.124-15.759l-24.749-42.502 24.366-31.646c2.299-2.985 2.026-7.214-.639-9.879l-60.449-60.449 172.531-172.534c2.929-2.93 2.929-7.678 0-10.607-2.93-2.928-7.678-2.928-10.607 0l-172.533 172.533-.816-.816c-6.495-6.494-15.961-6.822-22.021-.766l-124.492 124.493c-6.281 6.283-6.281 16.505.001 22.787l17.171 17.171c4.343 4.343 10.66 5.835 16.489 3.893l14.456-4.819c2.625-.872 5.521.087 7.105 2.336l12.538 21.157c2.112 3.564 6.714 4.742 10.276 2.629 3.563-2.111 4.74-6.712 2.628-10.275-13.958-23.547-12.699-21.44-12.87-21.698-5.304-7.957-15.345-11.402-24.42-8.379l-14.455 4.819c-1.242.415-.776-.231-18.311-17.44-.434-.434-.434-1.14 0-1.573l124.394-124.395c.208.096.532.295.905.669l67.213 67.213-23.422 30.419c-1.86 2.415-2.073 5.715-.539 8.35l26.481 45.477c-.051.18-.147.347-.283.482-87.958 87.761-83.706 84.688-84.913 83.185l-22.58-38.103c-2.111-3.563-6.713-4.74-10.276-2.629s-4.74 6.712-2.628 10.275c24.34 41.066 22.734 38.381 22.938 38.688 5.63 8.446 17.598 9.658 24.8 2.456l74.066-74.067c20.213 19.228 20.473 23.214 26.666 22.053l27.887-5.21c4.344-.81 7.061-5.198 5.827-9.457l-6.373-22.019 22.281-5.385c4.151-1.002 6.63-5.272 5.442-9.375l-6.372-22.021 22.281-5.386c4.026-.974 6.502-5.026 5.528-9.052-.971-4.026-5.024-6.507-9.049-5.528z"/><path d="m100.535 341.754c-10.383 10.384-11.998 26.782-3.839 38.991l32.198 48.183c10.809 16.176 33.728 18.46 47.509 4.678 10.384-10.384 11.999-26.782 3.839-38.991l-32.198-48.183c-10.83-16.207-33.754-18.434-47.509-4.678zm67.236 61.195c4.196 6.278 3.365 14.711-1.974 20.051-7.07 7.073-18.861 5.929-24.431-2.405l-32.198-48.183c-4.195-6.278-3.365-14.711 1.975-20.051 7.1-7.102 18.883-5.895 24.431 2.405z"/><path d="m152.563 307.837c4.672 0 8.312-4.364 7.35-8.97-.654-3.479-3.78-6.033-7.351-6.033-4.123 0-7.499 3.336-7.499 7.502 0 4.206 3.457 7.501 7.5 7.501z"/><path d="m425.863 68.717c4.773 0 8.292-4.417 7.35-8.96-.737-3.934-4.708-6.738-8.82-5.89-3.306.632-6.029 3.642-6.029 7.35-.001 4.19 3.408 7.5 7.499 7.5z"/><path d="m185.663 340.927c4.068 0 7.5-3.275 7.5-7.49 0-4.177-3.402-7.502-7.501-7.502-4.126 0-7.499 3.353-7.499 7.502 0 4.083 3.303 7.49 7.5 7.49z"/><path d="m221.41 265.673c2.93 2.929 7.678 2.928 10.606 0l174.733-174.731c2.929-2.93 2.929-7.678 0-10.607-2.93-2.928-7.678-2.928-10.607 0l-174.732 174.731c-2.929 2.93-2.929 7.678 0 10.607z"/></g></g></svg>