<svg id="Capa_1" enable-background="new 0 0 512 512" height="512" viewBox="0 0 512 512" width="512" xmlns="http://www.w3.org/2000/svg"><g><g><g><path d="m494.637 481.674h-477.275c-5.447 0-9.862-4.415-9.862-9.862v-29.055c0-5.447 4.416-9.862 9.862-9.862h477.275c5.447 0 9.862 4.415 9.862 9.862v29.055c.001 5.447-4.415 9.862-9.862 9.862z" fill="#ea9b58"/></g></g><g><g><path d="m504.5 454.459v-11.702c0-5.447-4.415-9.862-9.862-9.862h-477.276c-5.447 0-9.862 4.415-9.862 9.862v11.702z" fill="#d88a55"/></g></g><g><g><path d="m155.814 210.452c-3.604 13.288-15.664 22.514-29.433 22.514h-9.816c-11.318 0-21.706-6.269-26.981-16.283l-29.325-55.668c-3.938-7.476-4.598-16.251-1.822-24.232l12.431-35.74c4.265-12.26 15.823-20.477 28.803-20.477h316.104c25.311 0 43.835 23.859 37.562 48.38l-18.033 70.494c-1.615 6.311-1.613 12.928.005 19.239l6.082 23.718c9.206 35.903 13.864 72.822 13.864 109.887v78.458h-336.709c-25.865 0-46.832-20.967-46.832-46.832v-46.347c0-4.956 4.018-8.974 8.974-8.974h266.99v-121.825c0-5.76-4.643-10.443-10.403-10.493l-160.919-1.391c-9.591-.084-18.031 6.314-20.542 15.572z" fill="#faf7f7"/></g></g><g><g><g><path d="m441.391 243.059-6.082-23.718c-1.618-6.311-1.62-12.927-.005-19.239l18.033-70.494c5.593-21.862-8.531-43.182-29.596-47.552 1.173 5.585 1.132 11.548-.404 17.552l-18.033 70.494c-1.615 6.311-1.613 12.928.005 19.239l6.082 23.718c9.206 35.904 13.864 72.822 13.864 109.887v78.458h-336.709c-5.072 0-9.95-.817-14.524-2.308 6.114 18.752 23.731 32.308 44.524 32.308h336.709v-78.458c0-37.065-4.658-73.983-13.864-109.887z" fill="#f3eae6"/></g></g></g><g><g><path d="m153.426 328.589h-62.645v-25.137c0-3.259 2.642-5.9 5.9-5.9h50.844c3.259 0 5.9 2.642 5.9 5.9v25.137z" fill="#cdbfba"/></g></g><g><g><path d="m344.978 30.326h40.721v50.241h-40.721z" fill="#fe646f"/></g></g><g><g><ellipse cx="381.238" cy="139.145" fill="#01d0fb" rx="26.061" ry="26.061" transform="matrix(.629 -.778 .778 .629 33.392 348.207)"/></g></g><g><g><path d="m416.056 398.666h-24.45c-4.622 0-8.369-3.747-8.369-8.369v-59.961c0-4.622 3.747-8.369 8.369-8.369h24.45c4.622 0 8.369 3.747 8.369 8.369v59.961c0 4.622-3.747 8.369-8.369 8.369z" fill="#ffd15b"/></g></g><g><path d="m182.173 143.645c4.142 0 7.5-3.358 7.5-7.5v-21.831c0-4.142-3.358-7.5-7.5-7.5s-7.5 3.358-7.5 7.5v21.831c0 4.142 3.358 7.5 7.5 7.5z"/><path d="m223.801 136.145v-21.831c0-4.142-3.358-7.5-7.5-7.5s-7.5 3.358-7.5 7.5v21.831c0 4.142 3.358 7.5 7.5 7.5s7.5-3.358 7.5-7.5z"/><path d="m257.929 136.145v-21.831c0-4.142-3.358-7.5-7.5-7.5s-7.5 3.358-7.5 7.5v21.831c0 4.142 3.358 7.5 7.5 7.5s7.5-3.358 7.5-7.5z"/><path d="m381.238 105.584c-18.506 0-33.561 15.055-33.561 33.561s15.056 33.561 33.561 33.561c18.506 0 33.561-15.055 33.561-33.561 0-18.505-15.055-33.561-33.561-33.561zm0 52.122c-10.235 0-18.561-8.326-18.561-18.561s8.327-18.561 18.561-18.561 18.561 8.326 18.561 18.561-8.327 18.561-18.561 18.561z"/><path d="m265.477 353.771h-16.648c-4.142 0-7.5 3.358-7.5 7.5s3.358 7.5 7.5 7.5h16.648c4.142 0 7.5-3.358 7.5-7.5 0-4.143-3.358-7.5-7.5-7.5z"/><path d="m383.238 292.453h16.648c4.142 0 7.5-3.358 7.5-7.5s-3.358-7.5-7.5-7.5h-16.648c-4.142 0-7.5 3.358-7.5 7.5s3.358 7.5 7.5 7.5z"/><path d="m383.238 263.489h16.648c4.142 0 7.5-3.358 7.5-7.5s-3.358-7.5-7.5-7.5h-16.648c-4.142 0-7.5 3.358-7.5 7.5s3.358 7.5 7.5 7.5z"/><path d="m375.738 390.297c0 8.75 7.119 15.869 15.869 15.869h24.45c8.75 0 15.869-7.119 15.869-15.869v-59.961c0-8.75-7.119-15.869-15.869-15.869h-24.45c-8.75 0-15.869 7.119-15.869 15.869zm15-59.961c0-.479.39-.869.869-.869h24.45c.479 0 .869.39.869.869v59.961c0 .479-.39.869-.869.869h-24.45c-.479 0-.869-.39-.869-.869z"/><path d="m494.637 425.395h-31.882v-73.111c0-37.664-4.744-75.262-14.099-111.75l-6.082-23.718c-1.301-5.075-1.303-10.441-.004-15.517l18.033-70.494c3.568-13.949.551-28.471-8.279-39.844-8.83-11.372-22.151-17.895-36.549-17.895h-22.575v-35.24h6.752c4.142 0 7.5-3.358 7.5-7.5s-3.358-7.5-7.5-7.5h-69.226c-4.142 0-7.5 3.358-7.5 7.5s3.358 7.5 7.5 7.5h6.752v35.241h-146.732c-4.142 0-7.5 3.358-7.5 7.5s3.358 7.5 7.5 7.5h225.03c9.73 0 18.733 4.408 24.701 12.094 5.967 7.686 8.006 17.501 5.595 26.928l-18.033 70.494c-1.921 7.511-1.919 15.451.006 22.96l6.082 23.718c9.043 35.271 13.629 71.615 13.629 108.024v70.958h-92.577v-94.653-121.826c0-9.837-8.002-17.908-17.838-17.993l-160.919-1.391c-.083-.001-.167-.001-.249-.001-12.891 0-24.217 8.65-27.597 21.111-2.71 9.996-11.837 16.977-22.194 16.977h-9.816c-8.56 0-16.356-4.705-20.346-12.278l-29.325-55.669c-2.958-5.616-3.459-12.276-1.374-18.272l12.432-35.74c3.212-9.236 11.94-15.441 21.719-15.441h61.074c4.142 0 7.5-3.358 7.5-7.5s-3.358-7.5-7.5-7.5h-61.074c-16.158 0-30.58 10.253-35.887 25.513l-12.432 35.74c-3.446 9.907-2.618 20.912 2.271 30.191l29.325 55.668c6.043 11.471 17.376 18.94 30.117 20.107v19.974c0 4.142 3.358 7.5 7.5 7.5s7.5-3.358 7.5-7.5v-19.833c16.411-.728 30.656-12.04 34.987-28.012 1.607-5.925 6.992-10.037 13.121-10.037.04 0 .079 0 .119.001l160.919 1.391c1.636.014 2.968 1.357 2.968 2.994v114.326h-179.255v-17.637c0-7.389-6.011-13.4-13.4-13.4h-50.844c-7.389 0-13.4 6.012-13.4 13.4v17.637h-2.592c-9.084 0-16.474 7.39-16.474 16.474v46.347c0 16.619 7.508 31.51 19.3 41.484h-66.153c-9.573 0-17.362 7.788-17.362 17.362v29.055c0 9.574 7.789 17.362 17.362 17.362h272.304c4.142 0 7.5-3.358 7.5-7.5s-3.358-7.5-7.5-7.5h-272.304c-1.303 0-2.362-1.06-2.362-2.362v-29.055c0-1.303 1.06-2.362 2.362-2.362h477.275c1.303 0 2.363 1.06 2.363 2.362v29.055c0 1.303-1.06 2.362-2.363 2.362h-174.971c-4.142 0-7.5 3.358-7.5 7.5s3.358 7.5 7.5 7.5h174.971c9.574 0 17.363-7.789 17.363-17.362v-29.055c0-9.574-7.789-17.362-17.363-17.362zm-142.159-352.329v-35.24h25.722v35.241h-25.722zm-170.734 350.176v-87.153h158.435v87.153zm-83.463-118.19h47.645v16.038h-47.645zm-19.067 78.859v-46.347c0-.813.661-1.474 1.474-1.474h86.055v87.153h-48.197c-21.688-.001-39.332-17.645-39.332-39.332z"/></g></g></svg>