<svg id="Capa_1" enable-background="new 0 0 512 512" height="512" viewBox="0 0 512 512" width="512" xmlns="http://www.w3.org/2000/svg"><g><g><g><path d="m497.632 405.149h-225.216v-63.26h232.084v56.393c0 3.792-3.075 6.867-6.868 6.867z" fill="#ffe177"/></g></g><g><g><path d="m272.416 373.82v31.329h225.216c3.793 0 6.867-3.075 6.867-6.868v-24.461z" fill="#ffd15b"/></g></g><g><g><path d="m287.595 177.093-63.998-46.51 12.759-17.557c4.872-6.704 14.255-8.189 20.959-3.317l39.723 28.868c6.704 4.872 8.189 14.255 3.317 20.959z" fill="#01d0fb"/></g></g><g><g><path d="m285.705 405.149h-264.077c-7.803 0-14.128-6.325-14.128-14.128v-180.899c0-49.318 39.98-89.297 89.297-89.297h104.913c7.709 0 15.22 2.443 21.455 6.977l61.647 44.838c9.437 6.864 15.021 17.829 15.021 29.498v188.883c0 7.803-6.325 14.128-14.128 14.128z" fill="#b9acac"/></g></g><g><g><path d="m51.199 405.149v-151.328c0-25.183 20.415-45.598 45.598-45.598h75.204c17.782 0 35.106 5.634 49.487 16.093 21.767 15.832 34.646 41.123 34.646 68.039v112.793h-204.935z" fill="#ffd15b"/></g></g><g><g><path d="m284.812 172.64-16.971-12.343c1.294 3.766 1.991 7.758 1.991 11.841v188.883c0 7.803-6.325 14.128-14.128 14.128h-248.204v15.872c0 7.803 6.325 14.128 14.128 14.128h264.077c7.803 0 14.128-6.325 14.128-14.128v-188.883c0-11.669-5.584-22.634-15.021-29.498z" fill="#9e9797"/></g></g><g><g><path d="m221.488 224.316c-2.231-1.622-4.54-3.114-6.903-4.502 7.461 12.731 11.549 27.378 11.549 42.541v95.253c0 9.688-7.853 17.541-17.541 17.541h-157.394v30h204.935v-112.794c0-26.916-12.879-52.207-34.646-68.039z" fill="#ffc344"/></g></g><g><g><path d="m192.21 323.092h-76.922c-12.294 0-22.26-9.966-22.26-22.259v-.724c0-12.294 9.966-22.26 22.26-22.26h76.922c12.294 0 22.259 9.966 22.259 22.26v.724c0 12.293-9.966 22.259-22.259 22.259z" fill="#9e9797"/></g></g><g><path d="m504.5 314.738c-4.143 0-7.5 3.358-7.5 7.5v12.151h-189.668v-132.25c0-9.793-3.31-19.224-9.165-26.836l8.253-11.358c3.534-4.863 4.964-10.811 4.023-16.748-.939-5.937-4.135-11.153-8.997-14.687l-39.723-28.868c-10.039-7.295-24.14-5.063-31.435 4.975l-7.38 10.155c-6.471-3.574-13.702-5.446-21.199-5.446h-51.558c-4.143 0-7.5 3.358-7.5 7.5s3.357 7.5 7.5 7.5h51.558c6.165 0 12.059 1.917 17.044 5.543l61.648 44.838c7.471 5.434 11.932 14.194 11.932 23.433v188.883c0 3.655-2.974 6.628-6.628 6.628h-13.289-8.782v-105.295c0-29.217-14.106-56.92-37.734-74.105-15.765-11.467-34.402-17.528-53.897-17.528h-75.206c-29.279 0-53.099 23.82-53.099 53.098v143.828h-22.071c-3.654 0-6.627-2.973-6.627-6.628v-180.899c0-45.103 36.694-81.797 81.797-81.797h23.354c4.143 0 7.5-3.358 7.5-7.5s-3.357-7.5-7.5-7.5h-23.354c-53.374 0-96.797 43.423-96.797 96.797v180.899c0 11.926 9.702 21.628 21.627 21.628h336.83c4.143 0 7.5-3.358 7.5-7.5s-3.357-7.5-7.5-7.5h-52.168c.675-2.09 1.043-4.316 1.043-6.628v-41.632h20.142v18.289c0 4.142 3.357 7.5 7.5 7.5s7.5-3.358 7.5-7.5v-18.289h26.451v18.289c0 4.142 3.357 7.5 7.5 7.5s7.5-3.358 7.5-7.5v-18.289h26.451v18.289c0 4.142 3.357 7.5 7.5 7.5s7.5-3.358 7.5-7.5v-18.289h26.451v18.289c0 4.142 3.357 7.5 7.5 7.5s7.5-3.358 7.5-7.5v-18.289h30.173v18.289 29.971h-108.543c-4.143 0-7.5 3.358-7.5 7.5s3.357 7.5 7.5 7.5h109.175c7.922 0 14.367-6.445 14.367-14.368v-30.604-25.789-19.651c.001-4.141-3.357-7.499-7.499-7.499zm-445.801-60.917c0-21.007 17.091-38.098 38.099-38.098h75.204c16.304 0 31.891 5.069 45.075 14.658 19.76 14.372 31.557 37.54 31.557 61.974v105.294h-189.935zm176.545-126.507 7.179-9.879c2.432-3.347 7.134-4.093 10.483-1.659l39.723 28.867c1.621 1.178 2.687 2.918 3 4.898.314 1.98-.163 3.963-1.342 5.585l-7.193 9.899z"/><path d="m192.21 270.349h-76.922c-16.409 0-29.759 13.35-29.759 29.759v.724c0 16.409 13.35 29.759 29.759 29.759h76.922c16.409 0 29.76-13.35 29.76-29.759v-.724c-.001-16.409-13.351-29.759-29.76-29.759zm14.759 30.483c0 8.138-6.621 14.759-14.76 14.759h-76.922c-8.138 0-14.759-6.621-14.759-14.759v-.724c0-8.138 6.621-14.759 14.759-14.759h76.922c8.139 0 14.76 6.621 14.76 14.759z"/><path d="m208.374 351.525h-109.251c-4.143 0-7.5 3.358-7.5 7.5s3.357 7.5 7.5 7.5h109.252c4.143 0 7.5-3.358 7.5-7.5s-3.358-7.5-7.501-7.5z"/></g></g></svg>