<svg id="Capa_1" enable-background="new 0 0 511.996 511.996" height="512" viewBox="0 0 511.996 511.996" width="512" xmlns="http://www.w3.org/2000/svg"><g><g><g><circle cx="311.996" cy="194.337" fill="#ffe177" r="136.603"/></g></g><g><g><path d="m372.022 71.604c28.548 25.037 46.577 61.778 46.577 102.733 0 75.443-61.159 136.602-136.603 136.602-21.538 0-41.907-4.991-60.026-13.87 24.04 21.083 55.538 33.87 90.026 33.87 75.444 0 136.603-61.159 136.603-136.602 0-53.906-31.228-100.512-76.577-122.733z" fill="#ffd15b"/></g></g><g><g><ellipse cx="311.996" cy="194.337" fill="#ea9b58" rx="64.375" ry="64.375" transform="matrix(.707 -.707 .707 .707 -46.035 277.535)"/></g></g><g><g><circle cx="311.996" cy="194.337" fill="#faf7f7" r="25.922"/></g></g><g><g><path d="m476.259 260.404c-4.564-23.504-23.314-41.661-46.954-45.467l-85.299-13.734c-18.088-2.912-36.474 3.036-49.429 15.99l-75.279 75.28c-10.703 10.703-25.22 16.716-40.356 16.716h-19.769c-38.517 0-69.742-31.224-69.742-69.741 0-16.066-12.699-29.602-28.763-29.849-14.59-.224-27.075 10.329-29.324 24.699l-23.675 194.084c-1.678 13.755 9.057 25.879 22.914 25.879h450.829c12.749 0 23.084-10.335 23.084-23.084 0-16.871-1.619-33.704-4.835-50.266z" fill="#cb97e7"/></g></g><g><g><g><path d="m499.66 380.911-23.402-120.508c-3.661-18.852-16.452-34.255-33.567-41.582 1.573 3.674 2.783 7.547 3.567 11.582l23.402 120.508c3.216 16.562 4.835 33.395 4.835 50.266 0 12.749-10.335 23.084-23.084 23.084h-443.239l-.503 4.121c-1.678 13.755 9.057 25.879 22.914 25.879h450.829c12.749 0 23.084-10.336 23.084-23.084 0-16.871-1.619-33.704-4.836-50.266z" fill="#bd80e1"/></g></g></g><g><g><path d="m405.413 316.999h-82.627c-7.654 0-13.859-6.205-13.859-13.859v-25.038c0-7.654 6.205-13.859 13.859-13.859h82.627c7.654 0 13.859 6.205 13.859 13.859v25.038c0 7.654-6.205 13.859-13.859 13.859z" fill="#faf7f7"/></g></g><g><g><path d="m405.413 264.242h-14.141v18.897c0 7.654-6.205 13.859-13.859 13.859h-68.486v6.141c0 7.654 6.205 13.859 13.859 13.859h82.628c7.654 0 13.859-6.205 13.859-13.859v-25.038c-.001-7.653-6.206-13.859-13.86-13.859z" fill="#f3eae6"/></g></g><g><path d="m507.023 379.482-23.401-120.508c-3.505-18.049-14.543-33.395-29.647-42.698.413-.771.706-1.622.829-2.54.86-6.382 1.296-12.909 1.296-19.399 0-79.459-64.645-144.103-144.103-144.103-59.647 0-110.945 36.429-132.818 88.206-.287.262-6.235 7.647-6.235 7.647-33.161 41.543-86.403 62.342-138.941 54.283-4.098-.628-7.923 2.182-8.551 6.276s2.182 7.922 6.275 8.55c.13.02.259.036.389.056-4.199 4.981-7.121 11.102-8.182 17.886-.013.083-.024.167-.034.251l-23.675 194.084c-1.061 8.687 1.658 17.426 7.46 23.979 5.801 6.552 14.146 10.31 22.897 10.31h225.413c4.143 0 7.5-3.358 7.5-7.5s-3.357-7.5-7.5-7.5h-225.412c-4.524 0-8.668-1.866-11.667-5.253-3-3.387-4.35-7.726-3.801-12.218l2.365-19.386h208.246c4.143 0 7.5-3.358 7.5-7.5s-3.357-7.5-7.5-7.5h-206.417l19.464-159.565c1.713-10.573 11.053-18.402 21.779-18.242 11.788.181 21.379 10.207 21.379 22.35 0 42.591 34.65 77.242 77.241 77.242h19.768c17.248 0 33.464-6.717 45.66-18.914l75.28-75.28c11.219-11.219 27.268-16.41 42.933-13.889l85.299 13.734c20.446 3.292 36.836 19.162 40.784 39.492l23.401 120.508c3.117 16.053 4.697 32.484 4.697 48.836 0 8.593-6.991 15.584-15.584 15.584h-195.414c-4.143 0-7.5 3.358-7.5 7.5s3.357 7.5 7.5 7.5h195.416c16.864 0 30.584-13.72 30.584-30.584 0-17.31-1.673-34.702-4.973-51.695zm-347.851-77.792c-34.32 0-62.241-27.921-62.241-62.242 0-9.715-3.725-18.614-9.789-25.29 30.774-5.877 59.546-20.49 82.519-42.357-1.159 7.345-1.767 14.871-1.767 22.536 0 36.99 13.849 71.847 39.083 98.665-8.19 5.642-17.877 8.688-28.036 8.688zm209.598-104.096-23.364-3.762c-.272-18.196-15.15-32.917-33.409-32.917-18.429 0-33.422 14.993-33.422 33.422 0 7.724 2.588 14.999 7.348 20.904l-16.631 16.631c-9.066-10.324-14.171-23.655-14.171-37.535 0-31.361 25.515-56.876 56.876-56.876s56.875 25.514 56.875 56.876c0 1.085-.041 2.172-.102 3.257zm-71.63 7.614c-2.306-3.133-3.565-6.891-3.565-10.871 0-10.158 8.264-18.422 18.422-18.422 9.759 0 17.748 7.633 18.362 17.24-11.937.861-23.472 5.029-33.219 12.053zm86.494-5.221c.146-1.875.238-3.766.238-5.649 0-39.632-32.243-71.876-71.875-71.876-39.633 0-71.876 32.243-71.876 71.876 0 17.868 6.68 35.024 18.539 48.166l-40.499 40.499c-22.769-24.062-35.267-55.402-35.267-88.665 0-71.188 57.915-129.103 129.103-129.103s129.103 57.916 129.103 129.103c0 5.193-.328 10.405-.942 15.532-3.124-1.018-6.351-1.805-9.659-2.337z"/><path d="m321.831 343.594c-4.143 0-7.5 3.358-7.5 7.5s3.357 7.5 7.5 7.5h86.22c4.143 0 7.5-3.358 7.5-7.5s-3.357-7.5-7.5-7.5z"/><path d="m322.786 271.742h30.314c4.143 0 7.5-3.358 7.5-7.5s-3.357-7.5-7.5-7.5h-30.314c-11.777 0-21.359 9.582-21.359 21.359v25.038c0 11.778 9.582 21.359 21.359 21.359h82.628c11.777 0 21.358-9.582 21.358-21.359v-25.038c0-11.778-9.581-21.359-21.358-21.359h-22.315c-4.143 0-7.5 3.358-7.5 7.5s3.357 7.5 7.5 7.5h22.315c3.506 0 6.358 2.853 6.358 6.359v25.038c0 3.506-2.853 6.359-6.358 6.359h-82.628c-3.507 0-6.359-2.853-6.359-6.359v-25.038c-.001-3.505 2.852-6.359 6.359-6.359z"/></g></g></svg>