<svg id="Capa_1" enable-background="new 0 0 512 512" height="512" viewBox="0 0 512 512" width="512" xmlns="http://www.w3.org/2000/svg"><g><g><g><path d="m235.491 50.468h-115.74v-34.255c0-4.812 3.901-8.713 8.713-8.713h98.314c4.812 0 8.713 3.901 8.713 8.713z" fill="#ffe5c2"/></g></g><g><g><path d="m226.778 504.5h-98.314c-4.812 0-8.713-3.901-8.713-8.713v-34.256h115.74v34.256c0 4.812-3.901 8.713-8.713 8.713z" fill="#ffe5c2"/></g></g><g><g><path d="m226.778 7.5h-21.287v6.592c0 9.045-7.332 16.376-16.376 16.376h-69.363v20h115.74v-34.255c-.001-4.812-3.902-8.713-8.714-8.713z" fill="#fed2a4"/></g></g><g><g><path d="m205.491 461.531v14.256c0 4.812-3.901 8.713-8.713 8.713h-77.027v11.287c0 4.812 3.901 8.713 8.713 8.713h98.314c4.812 0 8.713-3.901 8.713-8.713v-34.256z" fill="#fed2a4"/></g></g><g><g><path d="m253.176 50.468h-151.11c-7.432 0-13.768 5.386-14.965 12.721l-62.21 381.302c-1.505 9.227 5.616 17.604 14.965 17.604h275.529c9.349 0 16.47-8.378 14.965-17.604l-62.21-381.301c-1.196-7.335-7.533-12.722-14.964-12.722z" fill="#80d261"/></g></g><g><g><path d="m429.117 7.5c-30.961 0-58.191 19.987-58.191 66.903 0 37.55 28.403 328.799 43.503 417.691 1.217 7.165 7.42 12.407 14.688 12.407 7.268 0 13.47-5.241 14.688-12.407 15.1-88.892 43.503-380.141 43.503-417.691 0-46.916-27.229-66.903-58.191-66.903z" fill="#e1d3ce"/></g></g><g><g><path d="m330.35 444.491-62.21-381.301c-1.197-7.335-7.533-12.721-14.965-12.721h-13.195l60.37 370.023c1.505 9.227-5.616 17.604-14.965 17.604h-259.45l-1.043 6.396c-1.505 9.227 5.616 17.604 14.965 17.604h275.529c9.348-.001 16.469-8.378 14.964-17.605z" fill="#68ca44"/></g></g><g><g><path d="m465.248 20.96c-4.97 77.116-29.095 318.236-42.592 397.691-1.217 7.165-7.42 12.407-14.688 12.407-1.509 0-2.968-.238-4.35-.66 3.181 25.022 6.18 46.368 8.784 61.695 1.217 7.165 7.42 12.407 14.688 12.407s13.47-5.241 14.688-12.407c15.1-88.892 43.503-380.141 43.503-417.691 0-25.268-7.907-42.712-20.033-53.442z" fill="#cdbfba"/></g></g><g><g><path d="m429.117 118.537c-9.345 0-16.921-7.576-16.921-16.921v-40.228c0-9.345 7.576-16.921 16.921-16.921 9.345 0 16.921 7.576 16.921 16.921v40.227c0 9.346-7.576 16.922-16.921 16.922z" fill="#faf7f7"/></g></g><g><path d="m275.543 61.982c-1.798-11.017-11.205-19.013-22.367-19.013h-10.185v-26.756c0-8.94-7.273-16.213-16.212-16.213h-98.314c-8.94 0-16.213 7.273-16.213 16.213v26.756h-10.185c-11.163 0-20.569 7.996-22.367 19.013l-62.21 381.301c-1.072 6.573.787 13.253 5.1 18.327s10.607 7.985 17.267 7.985h72.395v26.192c0 8.94 7.273 16.213 16.213 16.213h14.111c4.142 0 7.5-3.358 7.5-7.5s-3.358-7.5-7.5-7.5h-14.111c-.669 0-1.213-.544-1.213-1.213v-26.192h100.74v26.192c0 .669-.544 1.213-1.212 1.213h-54.204c-4.142 0-7.5 3.358-7.5 7.5s3.358 7.5 7.5 7.5h54.204c8.939 0 16.212-7.273 16.212-16.213v-26.192h72.395c6.66 0 12.954-2.91 17.267-7.985 4.314-5.074 6.172-11.754 5.1-18.327zm-229.02 296.501c1.079.601 261.501.789 262.279.516l5.827 35.718-273.7-.283c-.092 0-.182.011-.274.014zm226.442-219.145h-190.688l5.067-31.057h180.553zm-193.135 15h195.582l3.178 19.48-205.064 19.158zm-8.8 53.937 209.981-19.617 2.626 16.093-219.095 43.295zm-9.066 55.57 224.09-44.282 7.374 45.194-236.319 28.842zm-7.358 45.096c.037.001.074.005.111.005.303 0 241.126-29.372 241.126-29.372l10.582 64.861c-.036 0-.07-.005-.106-.005 0 0-257.081.049-257.525.131zm72.645-292.728c0-.669.544-1.213 1.213-1.213h98.314c.669 0 1.212.544 1.212 1.213v26.756h-100.74v-26.756zm-25.184 41.755h17.685 115.74 17.685c3.774 0 6.955 2.704 7.562 6.429l4.712 28.883h-175.659l4.712-28.883c.607-3.725 3.788-6.429 7.563-6.429zm219.157 393.928c-1.48 1.741-3.553 2.7-5.838 2.7h-275.529c-2.285 0-4.358-.959-5.838-2.7s-2.092-3.942-1.724-6.197l5.996-36.751c.822.31 277.33.01 278.53-.805l6.127 37.557c.368 2.254-.244 4.455-1.724 6.196z"/><path d="m475.172 18.1c-11.642-11.841-27.567-18.1-46.055-18.1s-34.413 6.259-46.054 18.1c-12.847 13.067-19.637 32.536-19.637 56.303 0 14.805 4.089 62.824 6.526 90.129.369 4.126 4.017 7.173 8.137 6.804 4.125-.368 7.171-4.011 6.803-8.137-4.11-46.042-6.467-78.407-6.467-88.796 0-37.196 18.95-59.403 50.691-59.403s50.69 22.207 50.69 59.403c0 38.011-28.694 329.882-43.397 416.435-.607 3.571-3.674 6.163-7.293 6.163s-6.687-2.592-7.294-6.163c-9.371-55.17-24.428-192.959-34.457-300.556-.384-4.124-4.033-7.158-8.164-6.771-4.124.384-7.156 4.039-6.771 8.164 10.055 107.877 25.17 246.14 34.604 301.676 1.837 10.805 11.123 18.649 22.083 18.649 10.959 0 20.246-7.844 22.082-18.651 6.676-39.299 16.949-124.757 27.482-228.598 9.496-93.618 16.127-171.893 16.127-190.349 0-23.765-6.79-43.235-19.636-56.302z"/><path d="m453.538 101.616v-40.228c0-13.466-10.955-24.421-24.421-24.421s-24.421 10.955-24.421 24.421v40.227c0 13.466 10.956 24.421 24.421 24.421s24.421-10.955 24.421-24.42zm-33.842 0v-40.228c0-5.195 4.227-9.421 9.421-9.421 5.195 0 9.421 4.226 9.421 9.421v40.227c0 5.195-4.226 9.421-9.421 9.421-5.194.001-9.421-4.226-9.421-9.42z"/></g></g></svg>