<svg id="Capa_1" enable-background="new 0 0 510.56 510.56" height="512" viewBox="0 0 510.56 510.56" width="512" xmlns="http://www.w3.org/2000/svg"><g><g><g><path d="m362.679 503.06h-214.797c-13.167 0-23.84-10.674-23.84-23.84v-265.71c0-2.526 2.048-4.574 4.574-4.574h253.329c2.526 0 4.574 2.048 4.574 4.574v265.71c0 13.167-10.674 23.84-23.84 23.84z" fill="#faf7f7"/></g></g><g><g><path d="m381.945 208.937h-25.426v250.284c0 13.166-10.673 23.84-23.84 23.84h-208.325c1.837 11.34 11.669 20 23.528 20h214.797c13.167 0 23.84-10.674 23.84-23.84v-265.71c0-2.526-2.048-4.574-4.574-4.574z" fill="#f3eae6"/></g></g><g><g><path d="m214.988 8.362-32.451 15.64c-2.511 1.21-4.107 3.752-4.107 6.539v178.396h38.347v-163.09h.002v-38.115c-.616.144-1.217.354-1.791.63z" fill="#f3eae6"/></g></g><g><g><path d="m327.835 24.002-32.451-15.64c-.654-.316-1.345-.537-2.053-.68v38.165l.264 163.09h38.347v-178.396c0-2.787-1.596-5.328-4.107-6.539z" fill="#f3eae6"/></g></g><g><g><path d="m291.608 7.5h-72.845c-.671 0-1.336.08-1.984.232v38.115h76.552v-38.165c-.566-.115-1.141-.182-1.723-.182z" fill="#b9acac"/></g></g><g><g><path d="m293.943 264.286c-13.909-.842-26.334 5.727-33.72 16.126-.898 1.264-2.8 1.264-3.698 0-7.386-10.399-19.81-16.968-33.72-16.126-19.466 1.179-35.134 17.13-35.989 36.613-.418 9.534 2.64 18.344 8.014 25.266 7.028 9.054 31.552 31.315 63.544 46.009 31.425-13.921 56.516-36.955 63.543-46.009 5.374-6.923 8.432-15.732 8.014-25.266-.854-19.483-16.522-35.435-35.988-36.613z" fill="#fe646f"/></g></g><g><g><g><path d="m329.932 300.899c-.837-19.067-15.864-34.744-34.752-36.508 8.571 6.727 14.247 17.001 14.752 28.508.418 9.534-2.64 18.344-8.014 25.266-6.84 8.812-30.794 30.865-61.042 44.872 5.512 3.226 11.367 6.321 17.498 9.138 31.425-13.92 56.516-36.956 63.543-46.009 5.375-6.923 8.433-15.733 8.015-25.267z" fill="#fd4755"/></g></g></g><g><path d="m386.519 448.615c-4.142 0-7.5 3.358-7.5 7.5v23.105c0 9.01-7.33 16.34-16.34 16.34h-214.797c-9.01 0-16.34-7.33-16.34-16.34v-215.007c0-4.142-3.358-7.5-7.5-7.5s-7.5 3.358-7.5 7.5v215.007c0 17.281 14.059 31.34 31.34 31.34h214.797c17.281 0 31.34-14.059 31.34-31.34v-23.105c0-4.142-3.358-7.5-7.5-7.5z"/><path d="m381.945 201.437h-42.409v-170.896c0-5.632-3.278-10.851-8.351-13.295l-32.452-15.641c-2.18-1.05-4.611-1.605-7.03-1.605h-72.845c-2.419 0-4.85.555-7.032 1.606l-32.45 15.64c-5.074 2.445-8.352 7.663-8.352 13.295v170.896h-42.409c-6.658 0-12.074 5.416-12.074 12.074v20.703c0 4.142 3.358 7.5 7.5 7.5s7.5-3.358 7.5-7.5v-17.776h247.477v209.678c0 4.142 3.358 7.5 7.5 7.5s7.5-3.358 7.5-7.5v-212.605c.001-6.658-5.416-12.074-12.073-12.074zm-95.757-163.09h-61.816v-23.347h61.816zm-61.816 15h61.817v148.09h-61.817zm-38.348 148.09v-170.744l23.348-11.253v181.997zm115.165 0v-155.59c0-.01-.001-.019-.001-.029v-26.378l23.349 11.253v170.744z"/><path d="m337.424 300.57c-1.016-23.145-19.916-42.372-43.028-43.771-13.708-.827-26.748 4.361-36.022 14.092-9.273-9.732-22.314-14.922-36.022-14.092-23.112 1.399-42.013 20.626-43.028 43.771-.479 10.895 2.925 21.618 9.582 30.194 6.989 9.004 32.399 32.638 66.338 48.226.993.456 2.062.685 3.13.685 1.035 0 2.07-.214 3.038-.643 33.353-14.775 59.159-38.899 66.43-48.268 6.658-8.576 10.061-19.299 9.582-30.194zm-21.431 20.996c-6.043 7.785-28.602 28.768-57.567 42.343-29.584-14.272-51.865-34.864-57.671-42.343-4.479-5.77-6.768-12.993-6.445-20.338.684-15.576 13.4-28.514 28.949-29.456.644-.039 1.283-.058 1.921-.058 10.041 0 19.367 4.784 25.231 13.041 1.826 2.571 4.803 4.105 7.964 4.105s6.138-1.536 7.962-4.105c6.237-8.781 16.393-13.634 27.152-12.982 15.549.941 28.266 13.88 28.949 29.456.324 7.344-1.966 14.567-6.445 20.337z"/><path d="m320.166 409.793h-122.467c-4.142 0-7.5 3.358-7.5 7.5s3.358 7.5 7.5 7.5h122.467c4.142 0 7.5-3.358 7.5-7.5s-3.358-7.5-7.5-7.5z"/><path d="m320.166 442.064h-46.22c-4.142 0-7.5 3.358-7.5 7.5s3.358 7.5 7.5 7.5h46.22c4.142 0 7.5-3.358 7.5-7.5s-3.358-7.5-7.5-7.5z"/></g></g></svg>