<svg id="Capa_1" enable-background="new 0 0 512 512" height="512" viewBox="0 0 512 512" width="512" xmlns="http://www.w3.org/2000/svg"><g><g><path d="m487.345 256h-462.69c-9.475 0-17.155 7.68-17.155 17.155v202.979c0 9.474 7.68 17.155 17.155 17.155h462.69c9.474 0 17.155-7.68 17.155-17.155v-202.979c0-9.475-7.681-17.155-17.155-17.155z" fill="#f3eae6"/></g><g><path d="m487.345 256h-12.845v190.133c0 9.474-7.68 17.155-17.155 17.155h-449.845v12.845c0 9.474 7.68 17.155 17.155 17.155h462.69c9.474 0 17.155-7.68 17.155-17.155v-202.978c0-9.475-7.681-17.155-17.155-17.155z" fill="#e1d3ce"/></g><g><path d="m24.655 256h462.69" fill="#f3eae6"/></g><g><path d="m487.345 256h-462.69c-9.475 0-17.155-7.681-17.155-17.155v-202.979c0-9.474 7.68-17.155 17.155-17.155h462.69c9.474 0 17.155 7.681 17.155 17.155v202.978c0 9.475-7.681 17.156-17.155 17.156z" fill="#f3eae6"/></g><g><path d="m487.345 18.712h-12.845v194.133c0 9.474-7.68 17.155-17.155 17.155h-449.845v8.845c0 9.474 7.68 17.155 17.155 17.155h462.69c9.474 0 17.155-7.681 17.155-17.155v-202.979c0-9.474-7.681-17.154-17.155-17.154z" fill="#e1d3ce"/></g><g><ellipse cx="72.453" cy="335.455" fill="#01c0fa" rx="30.828" ry="30.828" transform="matrix(.23 -.973 .973 .23 -270.675 328.898)"/></g><g><ellipse cx="72.453" cy="427.802" fill="#62dbfb" rx="30.828" ry="30.828" transform="matrix(.23 -.973 .973 .23 -360.551 400.028)"/></g><g><ellipse cx="165.692" cy="335.455" fill="#97da7b" rx="30.828" ry="30.829" transform="matrix(.16 -.987 .987 .16 -191.973 445.274)"/></g><g><ellipse cx="165.692" cy="427.802" fill="#d5efc8" rx="30.828" ry="30.829" transform="matrix(.16 -.987 .987 .16 -283.127 522.828)"/></g><g><ellipse cx="258.931" cy="335.455" fill="#ffd15b" rx="30.828" ry="30.829" transform="matrix(.16 -.987 .987 .16 -113.669 537.309)"/></g><g><ellipse cx="258.931" cy="427.802" fill="#ffe177" rx="30.828" ry="30.829" transform="matrix(.16 -.987 .987 .16 -204.823 614.863)"/></g><g><ellipse cx="352.17" cy="335.455" fill="#bd80e1" rx="30.828" ry="30.829" transform="matrix(.16 -.987 .987 .16 -35.365 629.344)"/></g><g><ellipse cx="352.17" cy="427.802" fill="#d9b1ee" rx="30.828" ry="30.829" transform="matrix(.16 -.987 .987 .16 -126.519 706.898)"/></g><g><ellipse cx="445.409" cy="335.455" fill="#fd4755" rx="30.828" ry="30.828" transform="matrix(.23 -.973 .973 .23 16.593 691.877)"/></g><g><ellipse cx="445.409" cy="427.802" fill="#08a9f1" rx="30.828" ry="30.828" transform="matrix(.23 -.973 .973 .23 -73.283 763.007)"/></g><g><path d="m421.188 276.142h-77.114c-5.44 0-9.849-4.41-9.849-9.849v-20.437c0-5.44 4.41-9.849 9.849-9.849h77.114c5.44 0 9.849 4.41 9.849 9.849v20.437c0 5.439-4.41 9.849-9.849 9.849z" fill="#cdbfba"/></g><g><path d="m167.926 276.142h-77.114c-5.44 0-9.849-4.41-9.849-9.849v-20.437c0-5.44 4.41-9.849 9.849-9.849h77.114c5.44 0 9.849 4.41 9.849 9.849v20.437c0 5.439-4.409 9.849-9.849 9.849z" fill="#cdbfba"/></g><ellipse cx="445.409" cy="427.802" fill="#fd8087" rx="30.828" ry="30.828" transform="matrix(.23 -.973 .973 .23 -73.283 763.007)"/><g><path d="m114.457 116.048c-3.816-1.728-7.24-4.167-10.095-7.159-6.82-7.149-16.114-11.416-25.994-11.416h-.085c-7.788 0-13.129-7.869-10.234-15.098 7.34-18.325 24.821-32.469 45.545-32.469 18.846 0 35.476 10.989 39.344 24.267v24.558c-3.102 11.183-13.314 20.194-25.138 20.194-4.758 0-9.273-1.034-13.343-2.877z" fill="#fed2a4"/></g><g><path d="m436.627 95.676c-65.619 8.51-235.682 11.655-274.227 12.352-5.2.094-9.461-4.096-9.461-9.297v-24.558c0-5.201 4.261-9.392 9.461-9.298 38.545.698 208.608 3.842 274.227 12.352 4.642.602 8.121 4.543 8.121 9.224 0 4.682-3.479 8.623-8.121 9.225z" fill="#f6a96c"/></g><g><path d="m397.543 203.985c3.816-1.728 7.24-4.167 10.095-7.159 6.82-7.149 16.114-11.416 25.994-11.416h.085c7.788 0 13.129-7.869 10.234-15.098-7.34-18.325-24.821-32.469-45.545-32.469-18.846 0-35.477 10.989-39.344 24.267v24.558c3.102 11.183 13.314 20.194 25.138 20.194 4.757 0 9.273-1.033 13.343-2.877z" fill="#fed2a4"/></g><g><path d="m225.434 155.962c-56.345 1.936-116.701 4.876-150.062 9.203-4.642.602-8.121 4.543-8.121 9.224 0 4.681 3.479 8.622 8.121 9.224 65.619 8.51 235.682 11.655 274.227 12.352 5.2.094 9.461-4.096 9.461-9.298v-24.557c0-5.201-4.261-9.392-9.461-9.298-14.004.253-45.367.83-82.774 1.869" fill="#f6a96c"/></g><g><path d="m266.826 154.682c-.423.012-.847.024-1.272.035" fill="#f6a96c"/></g><g><path d="m294.558 39.906h34.702v91.019h-34.702z" fill="#f3eae6"/></g><g><path d="m228.103 130.925h34.702v91.019h-34.702z" fill="#f3eae6"/></g><ellipse cx="165.692" cy="427.802" fill="#ade194" rx="30.828" ry="30.829" transform="matrix(.16 -.987 .987 .16 -283.127 522.828)"/><g><path d="m445.409 466.13c21.135 0 38.329-17.194 38.329-38.329 0-21.134-17.194-38.328-38.329-38.328-21.134 0-38.328 17.194-38.328 38.328 0 21.135 17.194 38.329 38.328 38.329zm0-61.657c12.863 0 23.329 10.465 23.329 23.328s-10.466 23.329-23.329 23.329-23.328-10.465-23.328-23.329c0-12.863 10.464-23.328 23.328-23.328z"/><path d="m512 35.866c0-13.595-11.06-24.655-24.654-24.655h-311.003c-4.143 0-7.5 3.358-7.5 7.5s3.357 7.5 7.5 7.5h311.002c5.323 0 9.654 4.331 9.654 9.655v202.979c0 5.324-4.331 9.655-9.654 9.655h-48.809v-2.645c0-9.566-7.782-17.35-17.349-17.35h-77.114c-9.566 0-17.35 7.783-17.35 17.35v2.645h-141.447v-2.645c0-9.566-7.783-17.35-17.35-17.35h-77.114c-9.566 0-17.349 7.783-17.349 17.35v2.645h-48.808c-5.324 0-9.655-4.331-9.655-9.655v-202.979c0-5.324 4.331-9.655 9.655-9.655h121.689c4.142 0 7.5-3.358 7.5-7.5s-3.358-7.5-7.5-7.5h-121.689c-13.595.001-24.655 11.061-24.655 24.655v202.979c0 6.663 2.661 12.713 6.971 17.155-4.31 4.441-6.971 10.491-6.971 17.155v202.979c0 13.595 11.06 24.655 24.655 24.655h334.633c4.143 0 7.5-3.358 7.5-7.5s-3.357-7.5-7.5-7.5h-334.633c-5.324 0-9.655-4.331-9.655-9.655v-202.979c0-5.324 4.331-9.655 9.655-9.655h48.808v2.792c0 9.566 7.783 17.35 17.349 17.35h77.114c9.566 0 17.35-7.783 17.35-17.35v-2.792h141.448v2.792c0 9.566 7.783 17.35 17.35 17.35h77.114c9.566 0 17.349-7.783 17.349-17.35v-2.792h48.809c5.323 0 9.654 4.331 9.654 9.655v202.979c0 5.324-4.331 9.655-9.654 9.655h-98.058c-4.143 0-7.5 3.358-7.5 7.5s3.357 7.5 7.5 7.5h98.058c13.595 0 24.654-11.06 24.654-24.655v-202.979c0-6.663-2.661-12.713-6.971-17.155 4.31-4.442 6.971-10.492 6.971-17.155zm-341.724 230.426c0 1.295-1.054 2.35-2.35 2.35h-77.114c-1.295 0-2.35-1.054-2.35-2.35v-20.437c0-1.295 1.055-2.35 2.35-2.35h77.114c1.296 0 2.35 1.054 2.35 2.35zm253.261 0c0 1.295-1.054 2.35-2.349 2.35h-77.114c-1.296 0-2.35-1.054-2.35-2.35v-20.437c0-1.295 1.054-2.35 2.35-2.35h77.114c1.295 0 2.349 1.054 2.349 2.35z"/><path d="m72.453 297.127c-21.134 0-38.329 17.194-38.329 38.328s17.194 38.329 38.329 38.329 38.329-17.194 38.329-38.329c0-21.134-17.195-38.328-38.329-38.328zm0 61.657c-12.863 0-23.329-10.465-23.329-23.329 0-12.863 10.465-23.328 23.329-23.328s23.329 10.465 23.329 23.328c0 12.864-10.465 23.329-23.329 23.329z"/><path d="m72.453 389.473c-21.134 0-38.329 17.194-38.329 38.328s17.194 38.329 38.329 38.329 38.329-17.194 38.329-38.329c0-21.134-17.195-38.328-38.329-38.328zm0 61.657c-12.863 0-23.329-10.465-23.329-23.329 0-12.863 10.465-23.328 23.329-23.328s23.329 10.465 23.329 23.328c0 12.864-10.465 23.329-23.329 23.329z"/><path d="m165.692 297.127c-21.134 0-38.328 17.194-38.328 38.328s17.194 38.329 38.328 38.329c21.135 0 38.329-17.194 38.329-38.329 0-21.134-17.194-38.328-38.329-38.328zm0 61.657c-12.863 0-23.328-10.465-23.328-23.329 0-12.863 10.465-23.328 23.328-23.328s23.329 10.465 23.329 23.328c0 12.864-10.466 23.329-23.329 23.329z"/><path d="m165.692 389.473c-21.134 0-38.328 17.194-38.328 38.328s17.194 38.329 38.328 38.329c21.135 0 38.329-17.194 38.329-38.329 0-21.134-17.194-38.328-38.329-38.328zm0 61.657c-12.863 0-23.328-10.465-23.328-23.329 0-12.863 10.465-23.328 23.328-23.328s23.329 10.465 23.329 23.328c0 12.864-10.466 23.329-23.329 23.329z"/><path d="m258.931 297.127c-21.134 0-38.328 17.194-38.328 38.328s17.194 38.329 38.328 38.329 38.328-17.194 38.328-38.329c0-21.134-17.194-38.328-38.328-38.328zm0 61.657c-12.863 0-23.328-10.465-23.328-23.329 0-12.863 10.465-23.328 23.328-23.328s23.328 10.465 23.328 23.328c0 12.864-10.465 23.329-23.328 23.329z"/><path d="m258.931 389.473c-21.134 0-38.328 17.194-38.328 38.328s17.194 38.329 38.328 38.329 38.328-17.194 38.328-38.329c0-21.134-17.194-38.328-38.328-38.328zm0 61.657c-12.863 0-23.328-10.465-23.328-23.329 0-12.863 10.465-23.328 23.328-23.328s23.328 10.465 23.328 23.328c0 12.864-10.465 23.329-23.328 23.329z"/><path d="m352.17 373.784c21.134 0 38.328-17.194 38.328-38.329 0-21.134-17.194-38.328-38.328-38.328-21.135 0-38.329 17.194-38.329 38.328 0 21.135 17.195 38.329 38.329 38.329zm0-61.657c12.863 0 23.328 10.465 23.328 23.328s-10.465 23.329-23.328 23.329-23.329-10.465-23.329-23.329c0-12.863 10.466-23.328 23.329-23.328z"/><path d="m352.17 466.13c21.134 0 38.328-17.194 38.328-38.329 0-21.134-17.194-38.328-38.328-38.328-21.135 0-38.329 17.194-38.329 38.328 0 21.135 17.195 38.329 38.329 38.329zm0-61.657c12.863 0 23.328 10.465 23.328 23.328s-10.465 23.329-23.328 23.329-23.329-10.465-23.329-23.329c0-12.863 10.466-23.328 23.329-23.328z"/><path d="m445.409 373.784c21.135 0 38.329-17.194 38.329-38.329 0-21.134-17.194-38.328-38.329-38.328-21.134 0-38.328 17.194-38.328 38.328 0 21.135 17.194 38.329 38.328 38.329zm0-61.657c12.863 0 23.329 10.465 23.329 23.328s-10.466 23.329-23.329 23.329-23.328-10.465-23.328-23.329c0-12.863 10.464-23.328 23.328-23.328z"/><path d="m294.558 41.209c-4.143 0-7.5 3.358-7.5 7.5v11.828c-55.579-1.912-107.266-2.849-124.523-3.161-3.253-.063-6.377.816-9.083 2.485-8.777-10.476-23.876-17.456-39.857-17.456-22.499 0-43.6 14.941-52.508 37.18-2.285 5.704-1.591 12.15 1.856 17.243 3.451 5.099 9.186 8.143 15.425 8.143 7.668 0 14.973 3.229 20.567 9.092 3.551 3.722 7.731 6.688 12.427 8.814 0 0 0 .001.001.001 5.193 2.352 10.724 3.544 16.438 3.544 10.071 0 19.661-5.124 26.005-13.175 2.534 1.478 5.41 2.28 8.416 2.28.105 0 .209-.001.313-.003 17.226-.312 68.889-1.247 124.523-3.161v2.855c0 4.142 3.357 7.5 7.5 7.5s7.5-3.358 7.5-7.5v-66.509c0-4.142-3.357-7.5-7.5-7.5zm-166.757 70.216c-3.565 0-7.015-.743-10.251-2.209-2.935-1.33-5.546-3.182-7.762-5.505-8.33-8.731-19.782-13.738-31.505-13.738-1.626 0-2.526-.971-2.918-1.55-.389-.575-.953-1.763-.354-3.259 6.65-16.603 22.155-27.757 38.583-27.757 12.473 0 27.898 6.831 31.844 17.938v22.283c-2.607 7.926-10.035 13.797-17.637 13.797zm34.463-10.895c-.61.001-1.042-.273-1.287-.513-.245-.241-.538-.66-.538-1.286v-24.558c0-.626.293-1.045.538-1.287.245-.24.716-.524 1.287-.512 17.28.313 69.142 1.253 124.794 3.173v21.809c-55.707 1.923-107.545 2.861-124.794 3.174z"/><path d="m329.261 41.209c-4.143 0-7.5 3.358-7.5 7.5v66.511c0 4.142 3.357 7.5 7.5 7.5s7.5-3.358 7.5-7.5v-4.824c45.746-2.089 79.667-4.538 100.831-7.283 8.355-1.083 14.655-8.247 14.655-16.662s-6.301-15.578-14.655-16.662c-21.161-2.745-55.082-5.194-100.831-7.283v-13.797c0-4.142-3.357-7.5-7.5-7.5zm106.402 43.456c.903.117 1.585.885 1.585 1.787 0 .901-.682 1.67-1.585 1.787-20.65 2.678-53.918 5.08-98.901 7.143v-17.86c44.985 2.063 78.254 4.465 98.901 7.143z"/><path d="m228.103 213.739c4.143 0 7.5-3.358 7.5-7.5v-66.511c0-4.142-3.357-7.5-7.5-7.5s-7.5 3.358-7.5 7.5v8.898c-69.226 2.436-118.407 5.497-146.195 9.101-8.355 1.083-14.656 8.247-14.656 16.662s6.301 15.578 14.656 16.662c27.775 3.603 76.962 6.664 146.195 9.101v6.088c0 4.142 3.357 7.499 7.5 7.499zm-151.766-37.563c-.904-.117-1.586-.885-1.586-1.787 0-.901.682-1.669 1.586-1.787 27.259-3.535 75.787-6.551 144.266-8.967v21.506c-68.485-2.417-117.022-5.432-144.266-8.965z"/><path d="m270.305 139.728c0-4.142-3.357-7.5-7.5-7.5s-7.5 3.358-7.5 7.5v66.511c0 4.142 3.357 7.5 7.5 7.5s7.5-3.358 7.5-7.5v-4.545c36.624.999 67.402 1.557 79.159 1.77.104.002.207.003.312.003 3.006 0 5.883-.803 8.417-2.281 6.344 8.052 15.934 13.176 26.004 13.176 5.715 0 11.245-1.193 16.439-3.545h.001c4.693-2.126 8.875-5.091 12.427-8.814 5.594-5.864 12.898-9.093 20.651-9.093 6.155 0 11.89-3.044 15.341-8.144 3.446-5.093 4.14-11.539 1.854-17.243-8.907-22.238-30.008-37.18-52.507-37.18-15.98 0-31.078 6.98-39.856 17.454-2.702-1.67-5.818-2.551-9.086-2.484-11.881.215-42.368.766-79.158 1.769v-7.354zm128.1 5.616c16.428 0 31.933 11.155 38.583 27.757.599 1.496.035 2.684-.353 3.259-.393.579-1.292 1.55-3.003 1.55-11.638 0-23.09 5.008-31.42 13.739-2.217 2.324-4.829 4.176-7.762 5.504-3.237 1.466-6.686 2.209-10.252 2.209-7.601 0-15.028-5.871-17.637-13.798v-22.282c3.945-11.107 19.371-17.938 31.844-17.938zm-48.67 14.967c.609.01 1.044.273 1.288.513.245.242.538.661.538 1.286v24.558c0 .625-.293 1.045-.539 1.286-.243.24-.674.53-1.287.513-11.781-.214-42.695-.775-79.43-1.778v-24.6c36.905-1.009 67.524-1.562 79.43-1.778z"/></g></g></svg>